<?xml version="1.0" encoding="UTF-8"?>
<svg width="100pt" height="100pt" version="1.1" viewBox="0 0 100 100" xmlns="http://www.w3.org/2000/svg"><g fill="#1C1C1C" stroke="#1C1C1C" stroke-width="2.5" fill-rule="evenodd">
 <g>
  <path d="m39.062 52.25c-3.4062-2.4766-7.2734-3.4453-10.328-2.6016s-6.3047 3.7891-8.4219 7.6641c-2.3398 4.0352-3.0078 8.8242-1.8672 13.344 2.3438 8.375 11 13.055 17.094 13.055 0.85156 0.007812 1.6992-0.097657 2.5234-0.3125 6.0234-1.6641 10.992-10.938 8.3672-20.477-1.1797-4.2852-3.7773-8.0469-7.3672-10.672z"/>
  <path d="m50 0c-13.262 0-25.98 5.2695-35.355 14.645s-14.645 22.094-14.645 35.355 5.2695 25.98 14.645 35.355 22.094 14.645 35.355 14.645 25.98-5.2695 35.355-14.645 14.645-22.094 14.645-35.355c-0.015625-13.258-5.2852-25.965-14.66-35.34s-22.082-14.645-35.34-14.66zm-46.875 50c-0.015625-11.902 4.5156-23.359 12.664-32.031l9.7031 9.7344c-0.33203 1.418-0.51563 2.8711-0.53906 4.3281-0.0625 4.4375 1.2969 8.5938 3.5625 10.867 1.8984 1.8984 4.9375 2.9531 8.3672 2.9531 0.64844 0 1.3008-0.035156 1.9453-0.10937 1.3086-0.15625 2.6016-0.44141 3.8516-0.85938l6.6406 6.6797c-0.75391 1.4453-1.2227 3.0195-1.375 4.6406-0.25 3.6719 1.7578 7.8125 5.375 11.156 3.8516 3.4922 8.7734 5.5781 13.961 5.9219 0.51953 0.035156 1.0586 0.054688 1.6094 0.054688 0.72656 0 1.4375 0 2.1406-0.10156l10.938 10.938c-8.9453 8.3398-20.797 12.855-33.023 12.582-12.227-0.27734-23.863-5.3203-32.422-14.055-8.5625-8.7344-13.371-20.469-13.398-32.699zm73.953 7.6562c0.23438-3.4453 1.125-6.1875 1.9844-6.125s1.3672 2.8984 1.1328 6.3438c-0.23437 3.4453-1.125 6.1875-1.9844 6.125-0.85938-0.0625-1.3672-2.8984-1.1328-6.3438zm7.1328 24.375l-9.4219-9.4531c7.875-2.0625 13.609-7.9922 13.992-13.594 0.25781-3.6953-1.7344-8.3828-5.1797-12.227-3.9062-4.3125-8.8438-6.8906-13.992-7.2422-7.9062-0.54688-14.844 4.0391-18.609 9.2656l-5.2188-5.2188c5.793-3.0234 9.7109-8.7188 10.469-15.211 0.47656-4.2031-0.58594-8.0547-2.8438-10.312-2.2578-2.2578-6.4219-3.625-10.867-3.5625-4.6797-0.042968-9.1953 1.7422-12.578 4.9766-1.4297 1.418-2.582 3.0898-3.3984 4.9297l-8.5938-8.5938c11.973-11.086 28.852-15.148 44.559-10.723 15.707 4.4258 27.98 16.699 32.406 32.406 4.4258 15.707 0.36328 32.586-10.723 44.559z"/>
 </g>
</g></svg>
