<?xml version="1.0" encoding="UTF-8"?>
<svg width="100pt" height="100pt" version="1.1" viewBox="0 0 100 100" xmlns="http://www.w3.org/2000/svg"><g fill="#1C1C1C" stroke="#1C1C1C" stroke-width="2.5" fill-rule="evenodd">
 <g>
  <path d="m50 0c-13.262 0-25.98 5.2695-35.355 14.645s-14.645 22.094-14.645 35.355 5.2695 25.98 14.645 35.355 22.094 14.645 35.355 14.645 25.98-5.2695 35.355-14.645 14.645-22.094 14.645-35.355c-0.015625-13.258-5.2852-25.965-14.66-35.34s-22.082-14.645-35.34-14.66zm-43.75 50c-0.007812-10.52 3.7969-20.688 10.703-28.625l10.156 10.156c-4.3438 6.0469-6.7969 14.195-6.7969 23.711 0 9.7266 2.5234 17.242 7.5938 22.328 5.0703 5.0859 12.461 7.5859 22.094 7.5859 10.047 0 17.641-2.7578 22.656-8.1094l5.9922 5.9922c-8.4961 7.3594-19.496 11.168-30.723 10.637-11.227-0.53516-21.816-5.3672-29.578-13.5-7.7578-8.1289-12.09-18.938-12.098-30.176zm43.75 32.031c-8.7734 0-15.461-2.2422-19.875-6.6719s-6.6875-11.242-6.6875-20.109c0.046875-15.266 6.625-26.641 17.609-30.469 1.5234-0.54688 6.5391-2.5547 7.2266-5.3203 0.078124-0.27734 0.19922-0.54297 0.35937-0.78125 0.30469-0.45703 0.82031-0.73438 1.3711-0.73438 0.55078 0 1.0664 0.27734 1.3711 0.73438 0.16016 0.23828 0.28125 0.50391 0.35938 0.78125 0.6875 2.7578 5.7031 4.7656 7.2266 5.3203 11.023 3.8438 17.602 15.289 17.602 30.641 0 17.664-8.9375 26.609-26.562 26.609zm33.039-3.4141l-6.7734-6.7422c2.2656-4.4219 3.4219-9.9062 3.4219-16.406 0-16.742-7.3594-29.281-19.68-33.594-2.4922-0.90625-5.0391-2.4219-5.25-3.125-0.16406-0.61328-0.42969-1.1914-0.78125-1.7188-0.88281-1.3516-2.3867-2.168-4-2.168-1.6133 0-3.1172 0.81641-4 2.168-0.35156 0.52344-0.61719 1.1016-0.78125 1.7109-0.21094 0.71094-2.7656 2.2344-5.2344 3.125-3.1758 1.1055-6.1094 2.8164-8.6328 5.0391l-9.9531-9.9531c11.27-9.5859 26.621-12.832 40.801-8.6211 14.184 4.2109 25.281 15.309 29.492 29.492 4.2109 14.18 0.96484 29.531-8.6211 40.801z"/>
  <path d="m50 26.148c-12.57 0-22.766 12.859-22.766 28.727s10.156 23.852 22.766 23.852 22.766-7.9766 22.766-23.844c0-15.867-10.195-28.734-22.766-28.734zm12.289 41.742c-3.125 2.3438-5.5391 2.4531-7.4141 0.53906-0.78125-0.78125-1.1797-2.1172-3.25-4.3359-0.54688-0.58594-0.91406-0.91406-1.0859-1.0859-0.20312-0.20703-0.38281-0.43359-0.53906-0.67969-0.15625 0.24609-0.33594 0.47266-0.53906 0.67969-0.17188 0.17188-0.53906 0.5-1.0859 1.0859-2.0703 2.2188-2.4531 3.5156-3.25 4.3359-1.875 1.9141-4.2891 1.7734-7.4141-0.53906-3.8281-2.8281-4.6875-8.5547-2.7109-11.383 2.4531-3.4531 6.8047-2.4766 6.875-3.7969 0.054688-0.99219-3.7422-0.98438-5.4219-3.7969-1.375-2.2969-0.91406-5.7578 0.53906-6.5078 1.4531-0.75 3.3984 1.0547 3.7969 0.53906 0.39844-0.51562-1.6719-1.8516-1.625-3.7969 0-1.7578 1.7891-3.9922 3.7969-3.7969 1.4844 0.14844 2.125 2.3438 2.7109 2.1719 0.58594-0.17188-0.046875-3.0547 0.53906-3.25 0.39844-0.13281 1.4609 0.90625 1.625 2.1719 0.28125 2.1875-2.4062 3.125-2.7109 5.4219-0.38281 2.8281 2.4219 5.6484 3.25 5.4219h3.25c0.82812 0.22656 3.6328-2.5938 3.25-5.4219-0.30469-2.2578-2.9922-3.2266-2.7109-5.4219 0.16406-1.2656 1.2266-2.3047 1.625-2.1719 0.58594 0.19531-0.125 3.0156 0.53906 3.25 0.66406 0.23437 1.2266-2.0234 2.7109-2.1719 2-0.20312 3.7578 2.0312 3.7969 3.7969 0.046874 1.9453-2.0078 3.3047-1.625 3.7969 0.38281 0.49219 2.4375-1.2422 3.7969-0.53906 1.3594 0.70312 1.9141 4.2109 0.53906 6.5078-1.6797 2.8125-5.4688 2.8047-5.4219 3.7969 0.070312 1.3203 4.4141 0.34375 6.875 3.7969 2.0156 2.8672 1.1172 8.5547-2.7109 11.383z"/>
 </g>
</g></svg>
