<?xml version="1.0" encoding="UTF-8"?>
<svg width="100pt" height="100pt" version="1.1" viewBox="0 0 100 100" xmlns="http://www.w3.org/2000/svg"><g fill="#1C1C1C" stroke="#1C1C1C" stroke-width="2.5" fill-rule="evenodd">
 <path d="m50 0c-13.262 0-25.98 5.2695-35.355 14.645s-14.645 22.094-14.645 35.355 5.2695 25.98 14.645 35.355 22.094 14.645 35.355 14.645 25.98-5.2695 35.355-14.645 14.645-22.094 14.645-35.355c-0.015625-13.258-5.2852-25.965-14.66-35.34s-22.082-14.645-35.34-14.66zm-46.875 50c-0.015625-11.902 4.5156-23.359 12.664-32.031l12.289 12.32c-4.9609 6.1328-7.7656 14.758-7.7656 24.953 0 9.7266 2.5234 17.242 7.5938 22.328 5.0703 5.0859 12.461 7.5859 22.094 7.5859 10.766 0 18.711-3.1641 23.656-9.2969l8.375 8.3516c-8.9453 8.3711-20.812 12.91-33.062 12.641-12.246-0.26953-23.902-5.3242-32.473-14.082-8.5664-8.7539-13.367-20.52-13.371-32.77zm43.078-15.719c0.39844-0.13281 1.4609 0.90625 1.625 2.1719 0.28125 2.1875-2.4062 3.125-2.7109 5.4219-0.042969 0.34375-0.042969 0.69531 0 1.0391l-5.4688-5.4688c0.60156-1.2852 1.9023-2.0977 3.3203-2.0781 1.4844 0.14844 2.125 2.3438 2.7109 2.1719 0.58594-0.17187-0.0625-3.0547 0.52344-3.2578zm-11.203 22.227c2.4531-3.4531 6.8047-2.4766 6.875-3.7969 0.054688-0.99219-3.7422-0.98438-5.4219-3.7969-1.375-2.2969-0.91406-5.7578 0.53906-6.5078 1.3359-0.6875 3.3359 1 3.7734 0.5625l23.227 23.234c-0.48828 0.63672-1.0586 1.207-1.7031 1.6875-3.125 2.3438-5.5391 2.4531-7.4141 0.53906-0.78125-0.78125-1.1797-2.1172-3.25-4.3359-0.54688-0.58594-0.91406-0.91406-1.0859-1.0859-0.20312-0.20703-0.38281-0.43359-0.53906-0.67969-0.15625 0.24609-0.33594 0.47266-0.53906 0.67969-0.17188 0.17188-0.53906 0.5-1.0859 1.0859-2.0703 2.2188-2.4531 3.5156-3.25 4.3359-1.875 1.9141-4.2891 1.7734-7.4141-0.53906-3.8281-2.8281-4.7266-8.5156-2.7109-11.383zm14.477-9.2422h2.1484c0.82812 0.22656 3.6328-2.5938 3.25-5.4219-0.30469-2.2578-2.9922-3.2266-2.7109-5.4219 0.16406-1.2656 1.2266-2.3047 1.625-2.1719 0.58594 0.19531-0.125 3.0156 0.53906 3.25s1.2266-2.0234 2.7109-2.1719c2-0.20312 3.7578 2.0312 3.7969 3.7969 0.046874 1.9453-2.0078 3.3047-1.625 3.7969 0.38281 0.49219 2.4375-1.2422 3.7969-0.53906 1.3594 0.70313 1.9141 4.2109 0.53906 6.5078-1.6797 2.8125-5.4688 2.8047-5.4219 3.7969 0.070312 1.3203 4.4141 0.34375 6.875 3.7969 1.1797 1.6641 1.3516 4.3203 0.52344 6.8047zm0.52344-21.094c-5.6328 0-10.789 2.5938-14.766 6.875l-2.8359-2.8359c2.4414-2.418 5.3945-4.2578 8.6406-5.3828 1.5234-0.54688 6.5391-2.5547 7.2266-5.3203 0.078125-0.27734 0.19922-0.54297 0.35938-0.78125 0.30469-0.45703 0.82031-0.73437 1.3711-0.73437 0.55078 0 1.0664 0.27734 1.3711 0.73437 0.16016 0.23828 0.28125 0.50391 0.35937 0.78125 0.6875 2.7578 5.7031 4.7656 7.2266 5.3203 11.031 3.7969 17.609 15.242 17.609 30.594 0 6.2812-1.1289 11.461-3.3906 15.539l-3.2812-3.2812c1.9922-3.9648 2.9805-8.3594 2.875-12.797 0-15.867-10.195-28.734-22.766-28.734zm-16.766 9.2734c-3.9922 5.6875-6.0898 12.488-6 19.438 0 15.867 10.156 23.852 22.766 23.852 7.4297 0 14.062-2.7891 18.18-8.3438l3.2344 3.2344c-4.3789 5.6055-11.52 8.4062-21.414 8.4062-8.7734 0-15.461-2.2422-19.875-6.6719s-6.6875-11.242-6.6875-20.109c0-9.2969 2.4844-17.148 6.875-22.727zm50.977 46.586l-8.7344-8.7578c2.7812-4.6406 4.2109-10.609 4.2109-17.852 0-16.742-7.3594-29.281-19.68-33.594-2.4922-0.89844-5.0391-2.4219-5.25-3.125-0.16406-0.61328-0.42969-1.1914-0.78125-1.7188-0.88281-1.3516-2.3867-2.168-4-2.168-1.6133 0-3.1172 0.81641-4 2.168-0.35156 0.52734-0.61719 1.1055-0.78125 1.7188-0.21094 0.71094-2.7656 2.2344-5.2344 3.125-3.6797 1.2891-7.0234 3.3867-9.7812 6.1406l-12.211-12.18c11.973-11.086 28.852-15.148 44.559-10.723 15.707 4.4258 27.98 16.699 32.406 32.406 4.4258 15.707 0.36328 32.586-10.723 44.559z"/>
</g></svg>
