<?xml version="1.0" encoding="UTF-8"?>
<svg width="100pt" height="100pt" version="1.1" viewBox="0 0 100 100" xmlns="http://www.w3.org/2000/svg"><g fill="#1C1C1C" stroke="#1C1C1C" stroke-width="2.5" fill-rule="evenodd">
 <path d="m50 100c13.262 0 25.98-5.2695 35.355-14.645s14.645-22.094 14.645-35.355-5.2695-25.98-14.645-35.355-22.094-14.645-35.355-14.645-25.98 5.2695-35.355 14.645-14.645 22.094-14.645 35.355c0.015625 13.258 5.2852 25.965 14.66 35.34s22.082 14.645 35.34 14.66zm46.875-50c0.015625 11.902-4.5156 23.359-12.664 32.031l-12.5-12.5c2.4336-0.59375 4.8047-1.4102 7.0859-2.4453 2.5938-1.3516 4.1641-4.0859 4.0156-7.0078-1.2266-24.484-13.922-37.422-36.719-37.422-5.8359-0.015625-11.559 1.6094-16.516 4.6875l-11.609-11.555c8.9453-8.3711 20.812-12.91 33.062-12.641 12.246 0.26953 23.902 5.3242 32.473 14.082 8.5664 8.7539 13.367 20.52 13.371 32.77zm-42.109 0.4375c-1.4297-1.4297-3.2031-2.4727-5.1484-3.0234l-3.5703-3.5703h0.29688c3.9922-0.011719 7.8203 1.5781 10.633 4.4062 2.9922 3.0859 4.7422 7.168 4.9219 11.461l-3.8516-3.875c-0.65625-2.0312-1.7812-3.8789-3.2812-5.3984zm-16.844 13.031c1.3203 1.332 3.1172 2.0781 4.9922 2.0781s3.6719-0.74609 4.9922-2.0781c2.0781-2.0859 2.0781-5.4609 0-7.5469-0.74219-0.74219-1.7461-1.1602-2.7969-1.1602s-2.0547 0.41797-2.7969 1.1602c-1.1133 1.1133-1.1133 2.918 0 4.0312 0.76953 0.76953 2.0195 0.76953 2.7891 0 0.60938-0.60938 1.6016-0.60938 2.2109 0s0.60938 1.6016 0 2.2109c-1.9922 1.9844-5.2109 1.9844-7.2031 0-1.1211-1.1211-1.75-2.6406-1.75-4.2266s0.62891-3.1055 1.75-4.2266c2.7656-2.7617 7.25-2.7617 10.016 0 3.2969 3.3047 3.2969 8.6562 0 11.961-1.9062 1.918-4.5 2.9961-7.2031 2.9961s-5.2969-1.0781-7.2031-2.9961c-4.8125-4.8203-4.8125-12.633 0-17.453 1.7969-1.8008 4.0234-3.1133 6.4688-3.8125l2.6406 2.6406c-2.6211 0.32422-5.0586 1.5117-6.9219 3.3828-3.5938 3.6055-3.5859 9.4414 0.015625 13.039zm-22.133-45.5l11.188 11.219c-0.69531 0.53516-1.3555 1.1133-1.9766 1.7344-1.8086 1.8086-3.3594 3.8555-4.6094 6.0859l-0.24219 0.42969-0.14844 0.26562c-2.2656 3.9922-3.5 8.4883-3.5938 13.078 0 8.1016 4.625 15.625 8.5938 19.531 4.125 4.2695 9.8047 6.6875 15.742 6.7031 4.7305-0.015625 9.3398-1.4766 13.219-4.1875 3.0898-3.1445 4.832-7.3672 4.8594-11.773l2.8984 2.8594c-0.40234 2.7109-1.3516 5.3125-2.7891 7.6484 3.3281-0.3125 6.3789-0.73047 9.1562-1.25l13.945 13.898c-11.973 11.086-28.852 15.148-44.559 10.723-15.707-4.4258-27.98-16.699-32.406-32.406-4.4258-15.707-0.36328-32.586 10.723-44.559z"/>
</g></svg>
