<?xml version="1.0" encoding="UTF-8"?>
<svg width="100pt" height="100pt" version="1.1" viewBox="0 0 100 100" xmlns="http://www.w3.org/2000/svg"><g fill="#1C1C1C" stroke="#1C1C1C" stroke-width="2.5" fill-rule="evenodd">
 <path d="m50 0c-12.164-0.0078125-23.906 4.4414-33.016 12.5h-8.6719c-0.86328 0-1.5625 0.69922-1.5625 1.5625s0.69922 1.5625 1.5625 1.5625h5.4688c-0.98828 1.043-1.9375 2.0977-2.8438 3.1719l-9.0859-0.046875c-0.86328 0-1.5625 0.69922-1.5625 1.5625s0.69922 1.5625 1.5625 1.5625h6.8125c-8.4336 12.398-10.859 27.926-6.6055 42.305 4.25 14.383 14.734 26.094 28.555 31.906 13.82 5.8164 29.523 5.1211 42.777-1.8945 13.254-7.0117 22.66-19.605 25.625-34.305 2.9648-14.695-0.82031-29.949-10.32-41.555-9.4961-11.605-23.699-18.332-38.695-18.332zm-5.6406 72.906c1.0703-0.16797 2.1016-0.51562 3.0547-1.0312 1.4844 2.6484 0.78125 5.7656-0.17187 8.1016-1.3203 0.52344-2.6914 0.89453-4.0938 1.1172 0.92187-1.4844 3.1953-5.6406 1.2109-8.1875zm1.8359-3.9062c-3.5469 2.0938-7.9141 0.35156-9.9375-2.5312-0.85156-1.2109-2.4375-4.3359 1.1484-7.2109l0.875-0.71875c1.8711-1.5 3.7383-3.0039 5.6016-4.5156 2.0234-0.28516 3.9219-1.1484 5.4688-2.4844l7.1953 7.1953-1.3594 1.5625c-2.7031 3.1484-5.75 6.6953-8.9922 8.6719zm-4.0859-18.07l-0.078125 0.59375-2.4375 1.9688c-3.8516-1.4375-7.5312-5.4688-10.938-11.953 0.71094-0.84375 1.4219-1.6875 2.1328-2.5156l0.046876-0.0625c3.6641 7.3438 7.5625 11.492 11.273 11.969zm-7.3984 6.5469c-0.80859 0.76563-1.4688 1.6758-1.9453 2.6797-2.25-0.78125-5.7266-2.4766-7.6953-5.75-1.3828-2.2969-2.8281-2.4688-3.6094-2.3438 0.44141-1.043 0.96484-2.0547 1.5625-3.0156 1.5625 0.32812 3.3125 1.3594 4.7578 3.7578 1.7266 2.8984 5.3281 4.2266 6.9219 4.6719zm-9.7734 3.2266c2.1719 1.2969 4.7383 1.7656 7.2266 1.3125-0.18359 1.0391-0.15234 2.1016 0.10156 3.125-0.58594 0.11328-1.1836 0.16797-1.7812 0.17188-2.4648-0.042969-4.8828-0.70312-7.0312-1.9141-0.55859-0.38672-1.2617-0.51563-1.9219-0.34375-0.60156 0.28906-1.0859 0.76953-1.3828 1.3672-0.23438-1.3203-0.35156-2.6602-0.34375-4 0.21094-0.11719 0.42969-0.21875 0.65625-0.30469 1.5039-0.48438 3.1484-0.26953 4.4766 0.58594zm2.5625 7.8672c1.7812-0.29687 3.125-0.41406 4.0391-0.5 0.62891-0.019531 1.2578-0.11328 1.8672-0.27344 0.09375 0.15625 0.1875 0.3125 0.29688 0.46094 0.50781 0.71875 1.1055 1.3711 1.7734 1.9453-1.0547 0.72656-2.1328 0.84375-3.6484 0.97656-0.95312 0.085937-2.1484 0.19531-3.8125 0.47656-2.7578 0.46094-3.5703 1.5156-3.8047 2.0547-0.39453-0.51953-0.76953-1.043-1.125-1.5625-0.25-0.39063-0.48438-0.78125-0.70313-1.1953 0.92188-1 2.4844-1.9375 5.1094-2.375zm10.859 3.4688c1.0352 0.47266 2.1367 0.78125 3.2656 0.92188 0.13281 3.6016-2.2891 6.3984-4.4609 8.1562-1.3711-0.19922-2.7188-0.53516-4.0234-1.0078 1.6641-0.98438 6.2109-4.0781 5.2109-8.0625zm1.0078-47.531c-2.0391 2.1719-4.0469 4.3906-6 6.6328l-9.2188-9.2188h15.625c-0.25781 0.71484-0.39063 1.4727-0.39063 2.2344-0.039062 0.14062-0.023437 0.25-0.023437 0.35938zm3.125-0.32031c0-1.668 1.1758-3.1016 2.8086-3.4258 1.6367-0.32422 3.2734 0.54688 3.9102 2.0859 0.63672 1.5391 0.097656 3.3164-1.2852 4.2422-1.3867 0.92578-3.2305 0.74609-4.4102-0.43359-0.65625-0.64062-1.0352-1.5195-1.0469-2.4375zm5.3438-7.1875c-0.35156 0.1875-0.69531 0.39844-1.0391 0.625-0.25781-0.035156-0.51953-0.050781-0.78125-0.054688-1.4062-0.003906-2.7734 0.44531-3.9062 1.2812h-21.047l-3.0938-3.0625 0.17188-0.16406h32.5c-0.96875 0.41016-1.9102 0.87109-2.8281 1.3828zm-32.047 0.96875l0.78125 0.78125h-1.5625c0.28906-0.21875 0.53906-0.48438 0.78125-0.78125zm-12.664 32.031c-0.007812-10.129 3.2852-19.984 9.375-28.078h7.2266l11.586 11.602-0.92188 1.0781c-0.66406 0.78125-1.3359 1.5625-2.0156 2.3438-2.7188 3.0547-5.2461 6.2734-7.5781 9.6328-2.6523 4.0273-4.0977 8.7305-4.1562 13.555-0.0625 4.8203 1.2578 9.5625 3.8047 13.656 4.3125 6.6328 11.691 10.629 19.602 10.617 4.0391 0.011719 8.0078-1.0703 11.484-3.125 3.5312-2.0938 6.4062-5.1172 9.1953-8.0391 1.4062-1.4766 2.7344-2.8672 4.1328-4.1484 0.375-0.32422 0.77734-0.60547 1.2109-0.84375l15.961 15.961c-8.9453 8.3711-20.812 12.91-33.062 12.641-12.246-0.26953-23.902-5.3242-32.473-14.082-8.5664-8.7539-13.367-20.52-13.371-32.77zm81.086 32.031l-15.125-15.156c2.0312-0.83594 4.4141-1.6484 6.5312-2.3438 4.5156-1.5625 7.125-2.4688 8.2109-3.5625 2.4883-2.4844 2.5977-6.4805 0.24219-9.0938-0.085937 0.074219-0.17969 0.14062-0.28125 0.19531-0.11719 0.0625-11.781 6.4219-15.156 9.7891-0.61719 0.61328-1.6172 0.61328-2.2305-0.003906-0.61328-0.61719-0.61328-1.6172 0.003906-2.2305 3.5391-3.5469 14.438-9.5469 15.75-10.266 0.14062-3.1719-2.0117-5.9922-5.1094-6.6875-0.023437 0.050781-0.050781 0.10156-0.078125 0.14844-0.21094 0.3125-5.1562 7.7656-8.7969 11.414-0.60938 0.60938-1.6016 0.60938-2.2109 0-0.60938-0.60938-0.60938-1.6016 0-2.2109 2.7891-2.8047 6.6016-8.2734 7.9297-10.195-1.1016-1.6406-2.8828-2.6953-4.8477-2.8828-1.9688-0.19141-3.9141 0.51172-5.3086 1.9141-1.1484 1.1484-2.0078 3.9062-3.3281 8.2812-0.67969 2.2656-1.4609 4.875-2.2578 6.8125l-6.7422-6.7344c0.98438-1.75 1.3359-3.9062 1.6797-6.25 0.050781-0.039062 0.10156-0.082031 0.14844-0.125l10.938-10.938c4.3828-4.3945 4.3828-11.504 0-15.898-2.0039-2.1641-4.793-3.4297-7.7422-3.5078h-34.555c12.625-9.3906 29.117-11.824 43.918-6.4727 14.797 5.3477 25.922 17.766 29.621 33.059 3.7031 15.293-0.51953 31.422-11.234 42.945zm-25.414-63.523l-0.046875 0.046876 0.046875-0.046876c-0.27734-0.29297-0.53906-0.60156-0.78125-0.92187-0.52344-0.72656-1.1406-1.3867-1.8281-1.9609h0.24219c2.1211 0.066406 4.1211 0.99219 5.5469 2.5625 3.1641 3.1719 3.1641 8.3047 0 11.477l-7.7578 7.7578c0.61328-2.082 1.7266-3.9844 3.2422-5.5391 7.2734-7.2656 1.3984-13.312 1.3359-13.375z"/>
</g></svg>
