<?xml version="1.0" encoding="UTF-8"?>
<svg width="100pt" height="100pt" version="1.1" viewBox="0 0 100 100" xmlns="http://www.w3.org/2000/svg"><g fill="#1C1C1C" stroke="#1C1C1C" stroke-width="2.5" fill-rule="evenodd">
 <path d="m50 0c-13.262 0-25.98 5.2695-35.355 14.645s-14.645 22.094-14.645 35.355 5.2695 25.98 14.645 35.355 22.094 14.645 35.355 14.645 25.98-5.2695 35.355-14.645 14.645-22.094 14.645-35.355c-0.015625-13.258-5.2852-25.965-14.66-35.34s-22.082-14.645-35.34-14.66zm-43.75 50c-0.007812-10.52 3.7969-20.688 10.703-28.625l22.031 22.031c-0.74219 0.72656-0.78125 2.4141-0.54688 6.5312 0.0625 1.2266 0.16406 2.7188 0.30469 4.1406-0.39453-0.5625-1.0742-0.84766-1.75-0.74219-0.58203 0.10156-1.0625 0.51172-1.2578 1.0703-0.17188 0.46875-0.45312 1.25 1.7188 7.1328 0.19531 0.52344 0.47656 1.2812 0.78125 2.1094-0.40234-0.27734-0.76562-0.60156-1.0859-0.96875-0.375-0.56641-1.043-0.87109-1.7188-0.78125l-0.91406 0.1875-0.30469 0.84375c-0.22656 0.61719-0.39844 1.1016 2.5625 7.1641 0.64844 1.3359 2.8672 5.7969 4 7.1406 1.0664 1.2695 2.5898 2.0664 4.2422 2.2109h0.55469c0.99219 0.027344 1.9766-0.18359 2.8672-0.61719v14.883c-11.32-0.41797-22.039-5.2031-29.902-13.352-7.8672-8.1523-12.27-19.031-12.285-30.359zm45.312 28.828c0.87891 0.45312 1.8477 0.6875 2.8359 0.6875h0.55469c1.6523-0.14453 3.1758-0.94141 4.2422-2.2109 1.125-1.3438 3.3438-5.8047 4-7.1406 0.30469-0.63281 0.57813-1.1875 0.78125-1.7031l14.617 14.617c-7.5273 6.5352-17.07 10.285-27.031 10.633zm31.484-0.20312l-19.617-19.617c1.1875-3.5859 0.96875-4.2031 0.82812-4.5938-0.19531-0.55859-0.67578-0.96875-1.2578-1.0703-0.67578-0.10547-1.3555 0.17969-1.75 0.74219 0.14062-1.4219 0.24219-2.9141 0.30469-4.1406 0.26562-5.1562 0.17187-6.5078-1.25-6.9297-0.27734-0.074219-0.57422-0.074219-0.85156 0-0.1875-1.2891-0.41406-2.5625-0.61719-3.6094-0.22656-1.4062-0.57031-2.7969-1.0234-4.1484v-14.945c0-0.86328-0.69922-1.5625-1.5625-1.5625s-1.5625 0.69922-1.5625 1.5625v11.766c-0.10156-0.3125-0.19531-0.61719-0.30469-0.92188-0.88281-2.5234-1.7891-4.0938-2.8203-4.8516v-12.242c0-0.86328-0.69922-1.5625-1.5625-1.5625s-1.5625 0.69922-1.5625 1.5625v12.297c-1.3672 1.0391-2.3906 3.3281-3.125 5.6719v-11.719c0-0.86328-0.69922-1.5625-1.5625-1.5625s-1.5625 0.69922-1.5625 1.5625v14.945c-0.23438 0.63281-0.42578 1.2852-0.57031 1.9453l-20.242-20.25c11.27-9.5859 26.621-12.832 40.801-8.6211 14.184 4.2109 25.281 15.309 29.492 29.492 4.2109 14.18 0.96484 29.531-8.6211 40.801z"/>
</g></svg>
