<?xml version="1.0" encoding="UTF-8"?>
<svg width="100pt" height="100pt" version="1.1" viewBox="0 0 100 100" xmlns="http://www.w3.org/2000/svg"><g fill="#1C1C1C" stroke="#1C1C1C" stroke-width="2.5" fill-rule="evenodd">
 <path d="m96.328 10l-6.3281-6.3281-9.2969 6.9141c-13.539-10.543-31.535-13.422-47.688-7.625-16.152 5.793-28.211 19.457-31.961 36.203-3.75 16.746 1.3359 34.242 13.477 46.371s29.645 17.199 46.387 13.434c16.742-3.7617 30.391-15.836 36.172-31.992s2.8867-34.148-7.668-47.68zm-6.625-2.1875l2.4844 2.4844-4.8516 6.5234c-1.3125-1.4766-2.7109-2.875-4.1875-4.1875zm-10.438 28.391l-15.469-15.469 3.3125-3.3125c0.29297-0.29297 0.69141-0.45703 1.1055-0.45703 0.41406 0 0.8125 0.16406 1.1055 0.45703l13.281 13.281c0.29297 0.29297 0.45703 0.69141 0.45703 1.1055 0 0.41406-0.16406 0.8125-0.45703 1.1055zm-1.1406-14.328l-3.125-3.125 5.5938-4.1562c1.7305 1.4961 3.3477 3.1133 4.8438 4.8438l-4.1406 5.5625zm0-9.375l-5.3203 3.9609-1.2578-1.2578c-1.832-1.8281-4.793-1.8281-6.625 0l-4.2188 4.2188-26.992 12.078-15.742-15.711c8.0312-7.5508 18.473-12.02 29.477-12.621 11.008-0.60156 21.875 2.7031 30.68 9.332zm-75 37.5c-0.015625-11.902 4.5156-23.359 12.664-32.031l14.844 14.844-0.78125 0.34375-0.15625 0.078125c-8.0312 4.7656-13.656 12.723-15.469 21.883l-1.8438 9.2188 23.281 23.281 9.2188-1.8438c9.1484-1.832 17.09-7.4688 21.828-15.508l0.41406-0.92969 14.844 14.844c-8.9453 8.3438-20.797 12.855-33.023 12.582-12.23-0.27734-23.867-5.3203-32.426-14.059-8.5625-8.7344-13.367-20.473-13.395-32.703zm93.75 0c0.015625 11.902-4.5156 23.359-12.664 32.031l-15.719-15.75 12.078-26.969 4.2188-4.2188c0.87891-0.87891 1.375-2.0742 1.375-3.3164 0-1.2422-0.49609-2.4375-1.375-3.3164l-1.2578-1.2578 3.9688-5.3281c6.1016 8.1055 9.3906 17.98 9.375 28.125z"/>
</g></svg>
