<?xml version="1.0" encoding="UTF-8"?>
<svg width="100pt" height="100pt" version="1.1" viewBox="0 0 100 100" xmlns="http://www.w3.org/2000/svg"><g fill="#1C1C1C" stroke="#1C1C1C" stroke-width="2.5" fill-rule="evenodd">
 <path d="m50 0c-13.262 0-25.98 5.2695-35.355 14.645s-14.645 22.094-14.645 35.355 5.2695 25.98 14.645 35.355 22.094 14.645 35.355 14.645 25.98-5.2695 35.355-14.645 14.645-22.094 14.645-35.355c-0.015625-13.258-5.2852-25.965-14.66-35.34s-22.082-14.645-35.34-14.66zm-46.875 50c-0.015625-11.902 4.5156-23.359 12.664-32.031l24.789 24.82v0.22656c-0.27734-0.070313-0.56641-0.070313-0.84375 0-1.4219 0.41406-1.5156 1.7656-1.25 6.9219 0.0625 1.2266 0.16406 2.7266 0.30469 4.1406-0.39453-0.55859-1.0742-0.84766-1.75-0.74219-0.58203 0.10547-1.0625 0.51172-1.2578 1.0703-0.17188 0.46875-0.45312 1.25 1.7188 7.125 0.19531 0.52344 0.47656 1.2812 0.78125 2.1094-0.40234-0.27734-0.76562-0.60156-1.0859-0.96875-0.375-0.56641-1.043-0.87109-1.7188-0.78125l-0.91406 0.1875-0.30469 0.84375c-0.22656 0.61719-0.39844 1.1016 2.5625 7.1641 0.64844 1.3359 2.8672 5.7969 4 7.1406 1.0664 1.2695 2.5898 2.0664 4.2422 2.2109h0.55469c0.97656 0.023438 1.9414-0.1875 2.8203-0.60938v18.008c-12.148-0.41797-23.66-5.5312-32.113-14.27-8.4531-8.7344-13.184-20.41-13.199-32.566zm48.438 28.828c0.87891 0.45312 1.8477 0.6875 2.8359 0.6875h0.55469c1.6523-0.14453 3.1758-0.94141 4.2422-2.2109 1.125-1.3438 3.3438-5.8047 4-7.1406 0.65625-1.3359 1.1328-2.3438 1.5156-3.2188l17.32 17.266c-8.2812 7.7734-19.113 12.262-30.469 12.625zm32.648 3.2031l-18.352-18.383c0.023437-0.23047-0.011719-0.46484-0.10156-0.67969l-0.33594-0.875-0.89062-0.15625c-0.13281-0.015625-0.26562-0.015625-0.39844 0l-1.2734-1.2734c1.8203-5.0625 1.5625-5.7891 1.3984-6.25-0.19531-0.55859-0.67578-0.96484-1.2578-1.0703-0.67578-0.10547-1.3555 0.18359-1.75 0.74219 0.14062-1.4219 0.24219-2.9141 0.30469-4.1406 0.26562-5.1562 0.17187-6.5078-1.25-6.9297-0.27734-0.074219-0.57422-0.074219-0.85156 0-0.1875-1.2891-0.41406-2.5625-0.61719-3.6094-0.22656-1.4102-0.57031-2.7969-1.0234-4.1484v-14.945c0-0.86328-0.69922-1.5625-1.5625-1.5625s-1.5625 0.69922-1.5625 1.5625v11.766c-0.09375-0.3125-0.19531-0.61719-0.30469-0.91406-0.88281-2.5234-1.7891-4.0938-2.8203-4.8516v-12.25c0-0.86328-0.69922-1.5625-1.5625-1.5625s-1.5625 0.69922-1.5625 1.5625v12.297c-1.3672 1.0391-2.3906 3.3281-3.125 5.6719v-11.719c0-0.86328-0.69922-1.5625-1.5625-1.5625s-1.5625 0.69922-1.5625 1.5625v14.945c-0.41797 1.2266-0.73438 2.4883-0.95312 3.7656l-23.266-23.234c11.973-11.086 28.852-15.148 44.559-10.723 15.707 4.4258 27.98 16.699 32.406 32.406 4.4258 15.707 0.36328 32.586-10.723 44.559z"/>
</g></svg>
