<?xml version="1.0" encoding="UTF-8"?>
<svg width="100pt" height="100pt" version="1.1" viewBox="0 0 100 100" xmlns="http://www.w3.org/2000/svg"><g fill="#1C1C1C" stroke="#1C1C1C" stroke-width="2.5" fill-rule="evenodd">
 <path d="m50 0c-13.262 0-25.98 5.2695-35.355 14.645s-14.645 22.094-14.645 35.355 5.2695 25.98 14.645 35.355 22.094 14.645 35.355 14.645 25.98-5.2695 35.355-14.645 14.645-22.094 14.645-35.355c-0.015625-13.258-5.2852-25.965-14.66-35.34s-22.082-14.645-35.34-14.66zm-43.75 50c-0.007812-10.52 3.7969-20.688 10.703-28.625l26.93 26.93c-1.0742 1.1133-1.9414 2.4141-2.5547 3.8359-0.76172 1.8672-2.4414 3.2031-4.4297 3.5234-2.7891 0.375-5.3828 1.6523-7.375 3.6406-3.4062 3.3828-12.5 12.367-6.5391 18.344 2.5625 2.5859 7.5469 3.9062 12.5 3.9062s9.7734-1.2578 12.312-3.7812c0.96484-0.95703 1.7773-2.0586 2.3984-3.2656 1.1016-2.2891 3.1875-3.9492 5.6641-4.5078 2.3984-0.48828 4.6094-1.6484 6.375-3.3438l16.406 16.406c-8.4961 7.3594-19.5 11.164-30.727 10.629-11.227-0.53906-21.82-5.375-29.574-13.508-7.7578-8.1367-12.086-18.941-12.09-30.184zm43.25 11.008c0.98828 1 2.332 1.5625 3.7344 1.5625 2.6367 0 4.8711-1.9414 5.2422-4.5547 0.12109-0.86328 0.91797-1.4648 1.7812-1.3438 0.86328 0.12109 1.4648 0.91797 1.3438 1.7812-0.58594 4.1523-4.1406 7.2422-8.3359 7.2422-3.4023-0.015624-6.4609-2.082-7.75-5.2344-1.2891-3.1484-0.55469-6.7656 1.8594-9.1641 0.61328-0.60938 1.6016-0.60547 2.2109 0.007813 0.60937 0.61328 0.60547 1.6016-0.007813 2.2109-1.0039 0.98438-1.5781 2.3242-1.5898 3.7305-0.015625 1.4062 0.52734 2.7578 1.5117 3.7617zm15.109-12.93c0.86328 0 1.5625 0.69922 1.5625 1.5625s-0.69922 1.5625-1.5625 1.5625c-3.4023-0.015625-6.4609-2.082-7.75-5.2344-1.2891-3.1484-0.55469-6.7656 1.8594-9.1641 1.5742-1.5781 3.7188-2.4531 5.9453-2.4297 0.86328 0 1.5625 0.69922 1.5625 1.5625s-0.69922 1.5625-1.5625 1.5625c-2.9219 0-5.293 2.3711-5.293 5.293s2.3711 5.293 5.293 5.293zm-17.523 20.484c-0.015626 4.6328-3.7773 8.3828-8.4141 8.3828-0.86328 0-1.5625-0.69922-1.5625-1.5625 0-0.86328 0.69922-1.5625 1.5625-1.5625 2.9219 0 5.293-2.3711 5.293-5.293s-2.3711-5.293-5.293-5.293c-2.9141 0-5.2812 2.3594-5.2891 5.2734 0 0.41406-0.16406 0.8125-0.45703 1.1055s-0.69141 0.45703-1.1055 0.45703c-0.86328 0-1.5625-0.69922-1.5625-1.5625 0.007813-4.6367 3.7695-8.3945 8.4062-8.3984 2.2383 0.003906 4.3828 0.89453 5.9648 2.4805 1.5781 1.5859 2.4648 3.7344 2.457 5.9727zm35.938 10.062l-17.398-17.414c0.125-0.39844 0.24219-0.78125 0.32812-1.2188 0.57812-2.4648 2.2461-4.5312 4.5312-5.6172 1.2109-0.60547 2.3164-1.3945 3.2812-2.3438 2.3906-2.3438 3.8359-7.0312 3.8594-12.398 0-4.4297-0.92969-8.3594-2.5859-10.938 0.38281-0.35547 0.73828-0.73828 1.0625-1.1484 0.30859-0.40234 0.58984-0.82812 0.83594-1.2734 0.26562-0.43359 0.47266-0.89844 0.61719-1.3828 0.30859-1.0469 0.17578-2.1758-0.36719-3.125-0.39453-0.73047-1.2891-1.0234-2.0391-0.67188l-0.14844 0.078125c-0.45312 0.22266-0.86719 0.51172-1.2344 0.85938-0.29688 0.26172-0.55859 0.55859-0.78125 0.88281-0.36719 0.61719-0.63281 1.2578-0.96094 1.875l-0.44531 0.82813c-5.7578-2.3125-13.102 4.9766-16.109 7.9766-2.0039 1.9766-3.3047 4.5547-3.7031 7.3438-0.25391 1.6133-1.1953 3.0391-2.5781 3.9062l-27.812-27.891c11.27-9.5859 26.621-12.832 40.801-8.6211 14.184 4.2109 25.281 15.309 29.492 29.492 4.2109 14.18 0.96484 29.531-8.6211 40.801z"/>
</g></svg>
