<?xml version="1.0" encoding="UTF-8"?>
<svg width="100pt" height="100pt" version="1.1" viewBox="0 0 100 100" xmlns="http://www.w3.org/2000/svg"><g fill="#1C1C1C" stroke="#1C1C1C" stroke-width="2.5" fill-rule="evenodd">
 <g>
  <path d="m39.062 52.25c-3.4062-2.4766-7.2734-3.4453-10.328-2.6016s-6.3047 3.7891-8.4219 7.6641c-2.3398 4.0352-3.0078 8.8242-1.8672 13.344 2.3438 8.375 11 13.055 17.094 13.055 0.85156 0.007812 1.6992-0.097657 2.5234-0.3125 6.0234-1.6641 10.992-10.938 8.3672-20.477-1.1797-4.2852-3.7773-8.0469-7.3672-10.672z"/>
  <path d="m50 0c-13.262 0-25.98 5.2695-35.355 14.645s-14.645 22.094-14.645 35.355 5.2695 25.98 14.645 35.355 22.094 14.645 35.355 14.645 25.98-5.2695 35.355-14.645 14.645-22.094 14.645-35.355c-0.015625-13.258-5.2852-25.965-14.66-35.34s-22.082-14.645-35.34-14.66zm-43.75 50c-0.007812-10.52 3.7969-20.688 10.703-28.625l8.1953 8.1953c-0.11328 0.81641-0.17969 1.6367-0.19531 2.4609-0.0625 4.4375 1.2969 8.5938 3.5625 10.867 1.8984 1.8984 4.9375 2.9531 8.3672 2.9531 0.64844 0 1.3008-0.035156 1.9453-0.10937 0.71484-0.085938 1.4258-0.21094 2.125-0.375l7.7109 7.7109c-0.38281 1.0039-0.625 2.0547-0.71094 3.125-0.25 3.6719 1.7578 7.8125 5.375 11.156 3.8516 3.4883 8.7695 5.5742 13.953 5.9219 0.51953 0.035156 1.0586 0.054688 1.6094 0.054688l9.7031 9.7031c-8.4961 7.3359-19.488 11.129-30.699 10.586-11.215-0.53906-21.789-5.3711-29.543-13.488-7.75-8.1211-12.082-18.91-12.102-30.137zm70.828 7.6562c0.23438-3.4453 1.125-6.1875 1.9844-6.125s1.3672 2.8984 1.1328 6.3438c-0.23437 3.4453-1.125 6.1875-1.9844 6.125-0.85938-0.0625-1.3672-2.8984-1.1328-6.3438zm5.9609 20.969l-6.5625-6.5625c6.9922-2.4141 11.938-7.8906 12.297-13.078 0.25781-3.6953-1.7344-8.3828-5.1797-12.227-3.9062-4.3125-8.8438-6.8906-13.992-7.2422-7.2656-0.5-13.711 3.3359-17.641 8.0234l-4.7891-4.7891c5.0508-3.1758 8.3906-8.4727 9.0781-14.398 0.47656-4.2031-0.58594-8.0547-2.8438-10.312-2.2578-2.2578-6.4141-3.625-10.867-3.5625-4.6797-0.042968-9.1953 1.7422-12.578 4.9766-1.0273 1.0312-1.9062 2.1953-2.6172 3.4609l-5.9688-5.9609c11.27-9.5859 26.621-12.832 40.801-8.6211 14.184 4.2109 25.281 15.309 29.492 29.492 4.2109 14.18 0.96484 29.531-8.6211 40.801z"/>
 </g>
</g></svg>
