<?xml version="1.0" encoding="UTF-8"?>
<svg width="100pt" height="100pt" version="1.1" viewBox="0 0 100 100" xmlns="http://www.w3.org/2000/svg"><g fill="#1C1C1C" stroke="#1C1C1C" stroke-width="2.5" fill-rule="evenodd">
 <path d="m50 0c-13.008 0.0078125-25.5 5.0859-34.824 14.156s-14.75 21.414-15.121 34.418c-0.37109 13 4.3398 25.637 13.133 35.223l-6.6094 6.6094c-0.60938 0.60938-0.60938 1.6016 0 2.2109 0.60938 0.60937 1.6016 0.60937 2.2109 0l6.5938-6.5938c11.973 11.527 28.891 16.348 45.145 12.867 16.25-3.4805 29.711-14.805 35.914-30.223 6.207-15.422 4.3438-32.914-4.9688-46.68-9.3086-13.766-24.852-22.008-41.473-21.988zm-46.875 50c-0.015625-11.902 4.5156-23.359 12.664-32.031l18.586 18.641c-1.0117 1.0547-1.6016 2.4453-1.6562 3.9062-1.9219 0-3.9609 1.0391-5.8906 3.0781-0.87891 0.90234-1.6016 1.9414-2.1406 3.0781-1.457 0.1875-2.8555 0.67188-4.1172 1.4219-4.2656 2.3984-5.6641 5.8672-3.75 9.2734 1.2656 2.0391 3.0234 3.7227 5.1094 4.9062 1.2344 0.75781 2.6211 1.2383 4.0625 1.3984 0.35156 2.3281 0.44531 4.6836 0.27344 7.0312l-10.867 10.883c-7.9023-8.6211-12.281-19.891-12.273-31.586zm60.336-16.477l-2.4609 2.4609-0.0625-0.22656c0.71484-0.86719 1.2852-1.8477 1.6875-2.8984 0.25391 0.25 0.53516 0.47266 0.83594 0.66406zm-7.5469 14.68c-0.089843 1.0352 0.074219 2.0781 0.47656 3.0391-0.66797 0.007812-1.332 0.082031-1.9844 0.22656-0.38281-0.1875-0.78125-0.33984-1.1875-0.46094l-1.4141-1.4141 0.73437-0.73438c1.0195-0.58984 2.207-0.82031 3.375-0.65625zm6.0078-4.0625h-0.046875c-1.543-0.070313-3.0664 0.36328-4.3438 1.2344-0.40234-0.12891-0.81641-0.22266-1.2344-0.28125l4.0781-4.0781c0.45312-0.39844 0.98438-0.69141 1.5625-0.85938-0.26562 0.53906-0.40234 1.1289-0.40625 1.7266 0.011719 0.8125 0.26172 1.6016 0.71875 2.2734zm3.0547-6.9375c-0.21094-0.070313-0.41406-0.125-0.61719-0.16406l1.3047-1.3047c0.19141 0.30078 0.41016 0.58203 0.65625 0.83594-0.46094 0.18359-0.91016 0.39453-1.3438 0.63281zm-7.6641 0.47656c0.29297-0.003907 0.58984-0.039063 0.875-0.10938l0.25781 0.96875-8.8516 8.8516-1.4219-1.4219c-0.11328-0.40625-0.26562-0.80469-0.44531-1.1875 0.13672-0.64844 0.21094-1.3086 0.21875-1.9688 0.78125 0.31641 1.6172 0.48438 2.4609 0.5 0.77344 0.011719 1.5391-0.1875 2.2109-0.57031 1.8828-1.1016 2.5-3.4297 2.4375-5.7734 0.66797 0.45312 1.4531 0.69922 2.2578 0.71094zm-27.828 29.82c-0.023437-1.4883-0.15625-2.9766-0.40625-4.4453 2.0625-1.1953 2.8672-3.7422 2.9141-6.3984 0.96094 0.25781 1.9492 0.39062 2.9453 0.40625 1.625 0.10156 3.2188-0.47656 4.3984-1.5938 1.4453-1.5234 1.7812-3.9688 0.97656-6.9062 0.81641 0.28125 1.668 0.42969 2.5312 0.44531 0.89453 0.011719 1.7734-0.21875 2.5469-0.67187-0.054687 1.5586-0.45703 3.082-1.1797 4.4609zm16.938-12.5c1.3789-0.72266 2.9062-1.1211 4.4609-1.1719-0.82422 1.5742-0.91016 3.4336-0.23437 5.0781-2.4609-0.67969-5.0078-0.64062-6.7344 0.85938-0.67578-0.11719-1.3555-0.1875-2.0391-0.21094zm-7.9062 7.8828c1.2422-0.22266 2.5078-0.28906 3.7656-0.20312-0.25 1.5039-0.16406 3.0391 0.24219 4.5078-3.0703 0.070312-5.3281 1.1094-6.3828 2.9297-1.4648-0.25-2.9492-0.39063-4.4375-0.41406zm-20.93 20.93l10.938-10.938c2.3477-0.17188 4.7031-0.078125 7.0312 0.27344 0.16016 1.4375 0.63281 2.8203 1.3906 4.0547 1.1836 2.0859 2.8672 3.8438 4.9062 5.1094 0.91797 0.53906 1.9609 0.82812 3.0234 0.84375 0.88281-0.003906 1.75-0.22266 2.5312-0.63281 1.5977-0.93359 2.8906-2.3086 3.7188-3.9609 0.75-1.2617 1.2344-2.6602 1.4219-4.1172 1.1328-0.53906 2.1719-1.2617 3.0703-2.1406 2.0312-1.9219 3.0625-3.9609 3.0781-5.8828 1.4609-0.058594 2.8516-0.65234 3.9062-1.6641l19.43 19.453c-8.7383 8.207-20.297 12.742-32.285 12.668-11.988-0.070312-23.488-4.7461-32.129-13.059zm66.625-1.7812l-19.609-19.609c0.96875-1.3789 1.5234-3.0039 1.6016-4.6875-0.003906-0.33984-0.035156-0.67969-0.10156-1.0156 1.1055-0.75 2.0117-1.7539 2.6484-2.9297 1.2891-2.1953 1.5625-4.2188 0.9375-5.8438h0.14062c3.125 0 4.9453-2.2656 4.9453-6.0703 0.019531-1.043-0.15625-2.082-0.51563-3.0625 1.4922-0.64062 2.6953-2.1953 2.6953-5.1016 0.027344-1.1523-0.24219-2.293-0.78125-3.3125 0.48438-0.29297 0.9375-0.64453 1.3438-1.0391 1.0508-0.98047 1.5156-2.4375 1.2266-3.8438-0.3125-1.2305-0.97656-2.3438-1.9141-3.2031-2.8516-2.8516-5.4688-2.2266-7.0312-0.6875-0.39844 0.41016-0.74609 0.86328-1.0391 1.3516-1.0195-0.53906-2.1602-0.80859-3.3125-0.78125-2.9062 0-4.4609 1.2109-5.1016 2.6953-0.98047-0.35938-2.0195-0.53516-3.0625-0.51562-3.7969 0-6.0703 1.8516-6.0703 4.9453v0.15625c-0.5-0.19922-1.0273-0.3125-1.5625-0.33594-1.5117 0.023437-2.9883 0.48438-4.2422 1.3281-1.1758 0.63672-2.1797 1.5508-2.9297 2.6562-1.6797-0.30469-3.625 0.1875-5.6719 1.5l-18.836-18.836c11.973-11.086 28.852-15.148 44.559-10.723 15.707 4.4258 27.98 16.699 32.406 32.406 4.4258 15.707 0.36328 32.586-10.723 44.559z"/>
</g></svg>
