<?xml version="1.0" encoding="UTF-8"?>
<svg width="100pt" height="100pt" version="1.1" viewBox="0 0 100 100" xmlns="http://www.w3.org/2000/svg"><g fill="#1C1C1C" stroke="#1C1C1C" stroke-width="2.5" fill-rule="evenodd">
 <path d="m50 0c-13.262 0-25.98 5.2695-35.355 14.645s-14.645 22.094-14.645 35.355 5.2695 25.98 14.645 35.355 22.094 14.645 35.355 14.645 25.98-5.2695 35.355-14.645 14.645-22.094 14.645-35.355c-0.015625-13.258-5.2852-25.965-14.66-35.34s-22.082-14.645-35.34-14.66zm-46.875 50c-0.015625-11.902 4.5156-23.359 12.664-32.031l10.25 10.281c-5.1602 5.457-8.0469 12.676-8.0703 20.188 0 3.2422 1.7969 9.375 8.5938 9.375h0.78125c0.49219 0 0.95312-0.23047 1.25-0.625s0.38672-0.90234 0.25-1.375v-0.10156c-1.5625-5.25-1.0156-7.5-0.29688-8.4609 0.1875-0.25 0.78125-1.0156 2.6562-1.0156 7.3828 0 9.375 6.1094 9.375 9.375 0 12.633-1.2656 18.703-2.3438 21.57-0.40234 1.0859-0.24609 2.3008 0.41797 3.2539 0.66406 0.94922 1.75 1.5156 2.9102 1.5117h16.93c1.1602 0.003907 2.2461-0.5625 2.9102-1.5117 0.66406-0.95312 0.82031-2.168 0.41797-3.2539-0.86719-2.3438-1.875-6.8438-2.2109-15.312l22.422 22.344c-8.9453 8.3711-20.812 12.91-33.062 12.641-12.246-0.26953-23.902-5.3242-32.473-14.082-8.5664-8.7539-13.367-20.52-13.371-32.77zm81.086 32.031l-24.711-24.742v-1.7266c0-3.2266 1.9531-9.375 9.375-9.375 1.8906 0 2.4688 0.78125 2.6562 1.0156 0.71875 0.96094 1.25 3.2109-0.29688 8.4609v0.10156c-0.15234 0.46484-0.078125 0.97656 0.20312 1.3789 0.27734 0.39844 0.73047 0.64844 1.2188 0.66797h0.78125c6.7969 0 8.5938-6.0469 8.5938-9.2422 0-16.875-14.367-30.602-32.031-30.602-7.9844-0.03125-15.707 2.8477-21.719 8.1016l-10.312-10.281c11.973-11.086 28.852-15.148 44.559-10.723 15.707 4.4258 27.98 16.699 32.406 32.406 4.4258 15.707 0.36328 32.586-10.723 44.559z"/>
</g></svg>
