<?xml version="1.0" encoding="UTF-8"?>
<svg width="100pt" height="100pt" version="1.1" viewBox="0 0 100 100" xmlns="http://www.w3.org/2000/svg"><g fill="#1C1C1C" stroke="#1C1C1C" stroke-width="2.5" fill-rule="evenodd">
 <g>
  <path d="m50 0c-13.262 0-25.98 5.2695-35.355 14.645s-14.645 22.094-14.645 35.355 5.2695 25.98 14.645 35.355 22.094 14.645 35.355 14.645 25.98-5.2695 35.355-14.645 14.645-22.094 14.645-35.355c-0.015625-13.258-5.2852-25.965-14.66-35.34s-22.082-14.645-35.34-14.66zm-46.875 50c-0.015625-11.902 4.5156-23.359 12.664-32.031l24.531 24.531c-0.25 0.21875-0.5 0.42969-0.73437 0.66406-1.1758 1.1719-2.1172 2.5625-2.7656 4.0938-0.75391 1.8672-2.4258 3.2109-4.4141 3.5391-2.7891 0.38672-5.375 1.6758-7.3594 3.6719-3.3984 3.3984-12.414 12.414-6.4609 18.367 2.6328 2.6328 7.5391 3.8125 12.344 3.8125 1.3086-0.003907 2.6133-0.097657 3.9062-0.28125-0.72656 4.0547-0.24219 8.0703 3.75 9.875 1.4648 0.60937 3.0391 0.90234 4.625 0.85937 2.8594-0.046874 5.6875-0.60156 8.3516-1.6328 5.0469-1.9062 8.8906-4.8672 10.273-7.9375 0.55859-1.2383 0.92187-2.5547 1.0703-3.9062 0.19531-2.1875 1.2305-4.2148 2.8906-5.6562l16.234 16.242c-8.9453 8.3711-20.812 12.91-33.062 12.641-12.246-0.26953-23.902-5.3242-32.473-14.082-8.5664-8.7539-13.367-20.52-13.371-32.77zm66.234 4.9453c0.60156 3.8672-1.1445 7.7266-4.4453 9.8281-2.9141 1.9062-4.7969 5.0391-5.1172 8.5078-0.10547 1.0234-0.36719 2.0195-0.78125 2.9609-1.0234 2.2578-4.375 4.7344-8.5312 6.3047s-8.3125 1.9219-10.57 0.89844c-3.2422-1.4688-2.875-6.4844 1.125-15.328 0.875-1.9492 2.3633-3.5586 4.2422-4.5781 2.707-1.5391 4.4141-4.3789 4.5078-7.4922 0.10547-2.543 1.1914-4.9453 3.0312-6.7031 2.2773-2.125 3.2852-5.2852 2.6484-8.3359-0.47266-2.0859-0.24609-4.2656 0.64062-6.2109 1.1406-2.5234 2.9062-6.1719 5.0078-8.6328 1.7891-2.0938 3.2031-2.6719 4.3047-2.6719 0.50781 0.007812 1.0117 0.125 1.4688 0.34375 4.9141 2.2266 9.4219 14.188 7.2031 19.102-0.42188 0.94141-0.99219 1.8086-1.6875 2.5703-2.3984 2.5195-3.5195 5.9922-3.0469 9.4375zm-34.203 13.023c-1.5781 0-3.0039-0.95312-3.6094-2.4102-0.60547-1.4609-0.26953-3.1406 0.84766-4.2578 1.1172-1.1172 2.7969-1.4531 4.2578-0.84766 1.457 0.60547 2.4102 2.0312 2.4102 3.6094 0 1.0352-0.41016 2.0312-1.1445 2.7617-0.73047 0.73438-1.7266 1.1445-2.7617 1.1445zm12.625-16.867c-0.6875 1.5117-1.0742 3.1445-1.1406 4.8047-0.015625 0.31641-0.054687 0.62891-0.11719 0.9375-1.0625-0.23047-1.9766-0.89453-2.5312-1.8281-0.55078-0.9375-0.6875-2.0586-0.37891-3.1016 0.30859-1.0391 1.0391-1.9062 2.0117-2.3867 0.97266-0.48047 2.1016-0.53906 3.1172-0.15234-0.36328 0.55078-0.68359 1.1289-0.96094 1.7266zm5.4688-17.594c-1.168 2.5625-1.4648 5.4336-0.84375 8.1797 0.37109 1.875-0.21484 3.8086-1.5625 5.1641-1.7188-0.87891-3.7227-1.0117-5.543-0.37109-1.8203 0.64453-3.2969 2.0078-4.082 3.7695-0.78516 1.7656-0.8125 3.7734-0.070312 5.5586 0.73828 1.7812 2.1797 3.1836 3.9844 3.8711-0.39453 0.44141-0.86328 0.81641-1.3828 1.1016-0.66016 0.36328-1.2891 0.78125-1.875 1.25-0.80078-2.6562-3.0859-4.5898-5.8359-4.9453-2.75-0.35547-5.4492 0.94141-6.8945 3.3047-1.4453 2.3672-1.3672 5.3594 0.19922 7.6484 1.5703 2.2852 4.3359 3.4375 7.0625 2.9375-0.25781 0.67969-0.50781 1.3984-0.74219 2.1406-5.6094 1.1172-12.398 0-14.844-2.4453-2.4453-2.4453-0.40625-7.0781 6.4609-13.945 1.4883-1.5156 3.4297-2.5078 5.5312-2.8203 3.0742-0.48438 5.6719-2.5352 6.8594-5.4141 0.99609-2.3438 2.8594-4.207 5.2031-5.2031 2.8789-1.1836 4.9297-3.7852 5.4141-6.8594 0.3125-2.1133 1.3086-4.0664 2.8359-5.5625 0.60938-0.60938 1.6094-1.6094 2.8125-2.6797-1.0625 1.8125-1.9609 3.6875-2.7031 5.3203zm30.961 48.523l-15.898-15.93c3.2617-2.9297 4.8203-7.3086 4.1406-11.641-0.33984-2.5117 0.48047-5.0391 2.2344-6.8672 0.91406-1.0039 1.668-2.1445 2.2266-3.3828 2.7266-6.0312-1.375-18.016-7.1406-22.266 0.21875-0.46875 0.39844-0.94922 0.53906-1.4453 0.14453-0.48828 0.25391-0.98828 0.32812-1.4922 0.089844-0.49609 0.11719-1.0039 0.078125-1.5078-0.082031-1.0938-0.60938-2.1055-1.4609-2.7969-0.625-0.48438-1.5156-0.42578-2.0703 0.14062l-0.13281 0.14062c-0.33984 0.37109-0.625 0.78906-0.84375 1.2422-0.17578 0.34766-0.30469 0.71484-0.39063 1.0938-0.125 0.71094-0.14062 1.3984-0.22656 2.0938 0 0.29688-0.085938 0.59375-0.125 0.89063-0.10156-0.027344-0.20703-0.046876-0.3125-0.054688-4.8203-0.36719-10.156 4.2969-14.227 8.4062-1.9961 1.9844-3.2852 4.5703-3.6719 7.3594-0.32812 1.9883-1.6719 3.6602-3.5391 4.4141-0.24219 0.10156-0.46875 0.22656-0.70312 0.33594l-25-25c11.992-10.996 28.828-14.984 44.48-10.543 15.648 4.4453 27.879 16.684 32.305 32.34s0.41797 32.488-10.59 44.469z"/>
  <path d="m65.953 53.414c-0.40234 0.09375-0.75391 0.34375-0.97266 0.69531-0.22266 0.35156-0.29297 0.77734-0.19922 1.1797 0.26172 1.125 0.14453 2.3086-0.33594 3.3594-0.54687 1.3281-1.6094 2.3789-2.9414 2.9062-1.3359 0.53125-2.8281 0.49609-4.1367-0.09375-1.3086-0.58984-2.3242-1.6875-2.8086-3.043-0.48438-1.3516-0.39844-2.8398 0.23828-4.1289 0.19141-0.37891 0.21875-0.82031 0.078125-1.2227s-0.44141-0.73047-0.82812-0.90625c-0.38672-0.17578-0.83203-0.18359-1.2266-0.027344-0.39453 0.16016-0.70703 0.47266-0.86719 0.86719-1.7109 4.1953 0.19922 8.9883 4.3242 10.855 4.1289 1.8672 8.9922 0.13672 11.012-3.918 0.76563-1.6719 0.95313-3.5508 0.53906-5.3438-0.089844-0.40625-0.33984-0.75781-0.69141-0.98047-0.35156-0.21875-0.77734-0.29297-1.1836-0.19922z"/>
  <path d="m47.031 64.297c-2.0898 0.78516-3.7812 2.3711-4.6992 4.4062-0.92188 2.0312-0.99609 4.3477-0.20703 6.4375 0.13281 0.40234 0.42578 0.73438 0.8125 0.91797 0.38281 0.18359 0.82422 0.19922 1.2227 0.050781 0.39453-0.15234 0.71484-0.45703 0.88281-0.84766s0.16797-0.83203 0.003906-1.2227c-0.75781-2.0039-0.23047-4.2695 1.332-5.7344 1.5625-1.4648 3.8555-1.8477 5.8086-0.96484 1.9492 0.88672 3.1797 2.8594 3.1094 5s-1.4258 4.0312-3.4297 4.7852c-0.40234 0.13281-0.73438 0.42578-0.91797 0.8125-0.18359 0.38281-0.19922 0.82422-0.050781 1.2227 0.15234 0.39453 0.45703 0.71484 0.84766 0.88281s0.83203 0.16797 1.2227 0.003906c4.1758-1.7539 6.2148-6.4961 4.6172-10.734-1.5977-4.2383-6.2617-6.4531-10.555-5.0156z"/>
  <path d="m66.938 43.812c-1.3125 0.49609-2.7695 0.44922-4.0508-0.12891-1.2773-0.58203-2.2734-1.6445-2.7695-2.957-1.0312-2.7344 0.35156-5.7891 3.0859-6.8203 0.77344-0.32812 1.1484-1.207 0.85547-1.9922-0.29688-0.78516-1.1602-1.1953-1.957-0.92969-2.1406 0.75-3.8867 2.332-4.8438 4.3867-0.95703 2.0547-1.0469 4.4102-0.25 6.5312 0.80078 2.1211 2.4219 3.8281 4.4961 4.7422 2.0781 0.91016 4.4336 0.94531 6.5352 0.097657 0.77344-0.32813 1.1484-1.207 0.85547-1.9922-0.29688-0.78516-1.1602-1.1953-1.957-0.92969z"/>
 </g>
</g></svg>
