<?xml version="1.0" encoding="UTF-8"?>
<svg width="100pt" height="100pt" version="1.1" viewBox="0 0 100 100" xmlns="http://www.w3.org/2000/svg"><g fill="#1C1C1C" stroke="#1C1C1C" stroke-width="2.5" fill-rule="evenodd">
 <path d="m50 0c-13.262 0-25.98 5.2695-35.355 14.645s-14.645 22.094-14.645 35.355 5.2695 25.98 14.645 35.355 22.094 14.645 35.355 14.645 25.98-5.2695 35.355-14.645 14.645-22.094 14.645-35.355c-0.015625-13.258-5.2852-25.965-14.66-35.34s-22.082-14.645-35.34-14.66zm-46.875 50c-0.015625-11.902 4.5156-23.359 12.664-32.031l20.062 20.086c-2.2188 4.8359-5.2656 12.234-5.4688 12.633l-0.64062 1.5625 5.5469 1.8516c-1.1406 2.5625-2.043 5.2305-2.6875 7.9609-4.2969-0.71094-11.758-1.2109-15.812 2.8516-0.48828 0.52344-0.80078 1.1836-0.89844 1.8906-0.13281 0.9375 0.039063 2.3906 1.6328 3.9844 2.0078 1.9609 6.4609 2.6484 8.8516 2.8984 0.23438 2.3906 0.9375 6.8359 2.9141 8.8203 0.88281 1.0078 2.1367 1.6133 3.4766 1.6719 0.16797 0.011718 0.33984 0.011718 0.50781 0 0.71094-0.10938 1.3672-0.4375 1.8828-0.9375 3.9922-3.9922 3.5781-11.266 2.8828-15.586 6.7539-0.17578 13.324-2.2148 18.992-5.8906 0.10938 0.85547 0.58984 1.6172 1.3125 2.0859 0.34375 0.1875 0.73047 0.28906 1.125 0.28906 0.66797-0.03125 1.3125-0.25 1.8594-0.63281l20.703 20.703c-8.9453 8.3711-20.812 12.91-33.062 12.641-12.246-0.26953-23.902-5.3242-32.473-14.082-8.5664-8.7539-13.367-20.52-13.371-32.77zm37.812-20.25h9.1875c-2.7812 3.3398-5.3242 6.8711-7.6016 10.57l-2.9141-2.9141c0.21875-0.44531 0.41406-0.82812 0.57812-1.125 1.0234-2.0156 1.293-4.3359 0.75-6.5312zm-7.9375 51.242c-0.29688 0.20312-0.875-0.070313-1.5-0.69531-1.2188-1.2188-1.9688-5.4688-2.1094-8.1484l-0.078125-1.4062-1.4062-0.070313c-2.6406-0.14062-6.9219-0.88281-8.1484-2.1094-0.61719-0.625-0.89062-1.2031-0.69531-1.5 3.2812-3.2188 10.273-2.4297 13.531-1.8516 0.36328 1.0508 1.1875 1.875 2.2344 2.2422 0.60156 3.2578 1.3828 10.258-1.8281 13.539zm29.945-50.625c-1.1172-1.1172-1.4531-2.7969-0.84766-4.2578 0.60547-1.4609 2.0312-2.4102 3.6094-2.4102s3.0039 0.94922 3.6094 2.4102c0.60547 1.4609 0.26953 3.1406-0.84766 4.2578-1.5234 1.5234-4 1.5234-5.5234 0zm-2.7891 27.547l0.039062-0.29687c0.29688-1.9922 0.78125-4.0234 1-4.8125l3.2344-3.6953c0.10156 0.41016 0.17969 0.82422 0.22656 1.2422v0.10938c0 0.19531 0 0.40625 0.039062 0.61719 0.039063 0.21094 0 0.27344 0 0.40625v0.21875c-0.070312 2.0625-0.85156 4.6875-3.2891 7.4688zm-19.258-14.844c-1.625 2.8047-3.0547 5.5625-4.2656 8.1406l-2.6562-0.88281c0.9375-2.2578 2.7422-6.5312 4.2656-9.9141zm43.312 38.961l-20.617-20.641c2.2461-2.3555 3.6875-5.3672 4.1094-8.5938 4.0469-4.5547 15.625-18.977 11.078-30.625-0.16016-0.41016-0.48047-0.73047-0.89062-0.89062-4.0117-1.6211-8.3984-2.0703-12.656-1.293-4.2539 0.77734-8.2031 2.7461-11.383 5.6758-0.3125 0.3125-0.625 0.64063-0.9375 0.96875h-16.516l1.0078 2.2109s1.4688 3.3906 0.054688 5.9297l-0.17188 0.32031-19.32-19.305c11.973-11.086 28.852-15.148 44.559-10.723 15.707 4.4258 27.98 16.699 32.406 32.406 4.4258 15.707 0.36328 32.586-10.723 44.559z"/>
</g></svg>
