<?xml version="1.0" encoding="UTF-8"?>
<svg width="100pt" height="100pt" version="1.1" viewBox="0 0 100 100" xmlns="http://www.w3.org/2000/svg"><g fill="#1C1C1C" stroke="#1C1C1C" stroke-width="2.5" fill-rule="evenodd">
 <path d="m96.328 10l-6.3281-6.3281-9.2812 6.8984c-13.512-10.527-31.473-13.406-47.602-7.625-16.125 5.7773-28.168 19.41-31.918 36.125-3.7461 16.715 1.3203 34.184 13.434 46.297 12.113 12.113 29.582 17.18 46.297 13.434 16.715-3.75 30.348-15.793 36.125-31.918 5.7812-16.129 2.9023-34.09-7.625-47.602zm-4.1172 0.29688l-10.938 14.688-6.25-6.25 14.688-10.938zm-12.945 25.906l-15.469-15.469 3.3125-3.3125c0.29297-0.29297 0.69141-0.45703 1.1055-0.45703 0.41406 0 0.8125 0.16406 1.1055 0.45703l13.281 13.281c0.29297 0.29297 0.45703 0.69141 0.45703 1.1055 0 0.41406-0.16406 0.8125-0.45703 1.1055zm-1.1406-23.703l-5.3359 3.9688-1.2578-1.2578c-1.832-1.8281-4.793-1.8281-6.625 0l-4.2188 4.2188-26.977 12.07-15.742-15.711c8.0352-7.543 18.473-12.012 29.477-12.613 11.008-0.60156 21.871 2.6992 30.68 9.3242zm-75 37.5c-0.015625-11.902 4.5156-23.359 12.664-32.031l14.844 14.844-0.78125 0.34375-0.15625 0.078125c-8.0312 4.7656-13.656 12.723-15.469 21.883l-1.8438 9.2188 23.281 23.281 9.2188-1.8438c9.1484-1.832 17.09-7.4688 21.828-15.508l0.41406-0.92969 14.844 14.844c-8.9453 8.3438-20.797 12.855-33.023 12.582-12.23-0.27734-23.867-5.3203-32.426-14.059-8.5625-8.7344-13.367-20.473-13.395-32.703zm93.75 0c0.015625 11.902-4.5156 23.359-12.664 32.031l-15.719-15.75 12.078-26.969 4.2188-4.2188c0.87891-0.87891 1.375-2.0742 1.375-3.3164 0-1.2422-0.49609-2.4375-1.375-3.3164l-1.2578-1.2578 3.9688-5.3281c6.0781 8.1172 9.3672 17.984 9.375 28.125z"/>
</g></svg>
