<?xml version="1.0" encoding="UTF-8"?>
<svg width="100pt" height="100pt" version="1.1" viewBox="0 0 100 100" xmlns="http://www.w3.org/2000/svg"><g fill="#1C1C1C" stroke="#1C1C1C" stroke-width="2.5" fill-rule="evenodd">
 <g>
  <path d="m54.688 10.938h-9.375c-1.7266 0-3.125 1.3984-3.125 3.125s1.3984 3.125 3.125 3.125h9.375c1.7266 0 3.125-1.3984 3.125-3.125s-1.3984-3.125-3.125-3.125z"/>
  <path d="m50 0c-13.262 0-25.98 5.2695-35.355 14.645s-14.645 22.094-14.645 35.355 5.2695 25.98 14.645 35.355 22.094 14.645 35.355 14.645 25.98-5.2695 35.355-14.645 14.645-22.094 14.645-35.355c-0.015625-13.258-5.2852-25.965-14.66-35.34s-22.082-14.645-35.34-14.66zm-43.75 50c-0.007812-10.52 3.7969-20.688 10.703-28.625l18.617 18.617c-1.3359 3.6094-1.9766 8.6094-1.9766 15.273v24.422c0 2.0703 0.82422 4.0586 2.2891 5.5234 1.4648 1.4648 3.4531 2.2891 5.5234 2.2891h17.188c2.0703 0 4.0586-0.82422 5.5234-2.2891 1.4648-1.4648 2.2891-3.4531 2.2891-5.5234v-8.8594l12.219 12.219c-8.4961 7.3516-19.496 11.152-30.715 10.613-11.223-0.53516-21.809-5.3711-29.562-13.496-7.7578-8.1289-12.086-18.93-12.098-30.164zm30.469 11.195c0.39844-1.0352 1.2188-1.8555 2.2578-2.25 1.5625-0.57031 4.5312-0.49219 9.7969 3.0469 0.097656 0.125 0.21484 0.23047 0.34375 0.32031 3.9609 2.7266 7.4141 4.0938 10.258 4.0938 0.76562 0.003906 1.5234-0.10547 2.2578-0.32031l1.6484 1.6172v11.984c0 2.5898-2.0977 4.6875-4.6875 4.6875h-17.188c-2.5898 0-4.6875-2.0977-4.6875-4.6875zm46.328 17.43l-16.641-16.641v-6.7188c0-10.398-1.5625-16.781-4.8906-20.078-0.45312-0.53125-5.2656-6.3984-5.9688-13.312 0.86328-0.023438 1.5469-0.73828 1.5234-1.6016-0.023437-0.86328-0.73828-1.5469-1.6016-1.5234h-10.938c-0.86328-0.023438-1.5781 0.66016-1.6016 1.5234-0.023438 0.86328 0.66016 1.5781 1.5234 1.6016-0.5625 5.8516-4.1094 10.938-5.4688 12.695l-17.609-17.617c11.27-9.5859 26.621-12.832 40.801-8.6211 14.184 4.2109 25.281 15.309 29.492 29.492 4.2109 14.18 0.96484 29.531-8.6211 40.801z"/>
 </g>
</g></svg>
