<?xml version="1.0" encoding="UTF-8"?>
<svg width="100pt" height="100pt" version="1.1" viewBox="0 0 100 100" xmlns="http://www.w3.org/2000/svg"><g fill="#1C1C1C" stroke="#1C1C1C" stroke-width="2.5" fill-rule="evenodd">
 <path d="m50 0c-13.262 0-25.98 5.2695-35.355 14.645s-14.645 22.094-14.645 35.355 5.2695 25.98 14.645 35.355 22.094 14.645 35.355 14.645 25.98-5.2695 35.355-14.645 14.645-22.094 14.645-35.355c-0.015625-13.258-5.2852-25.965-14.66-35.34s-22.082-14.645-35.34-14.66zm-43.75 50c-0.007812-10.52 3.7969-20.688 10.703-28.625l8.0469 8.0469c-4.5234 5.3047-7.0156 12.043-7.0312 19.016 0 3.2422 1.7969 9.375 8.5938 9.375h0.78125c0.49219 0 0.95312-0.23047 1.25-0.625s0.38672-0.90234 0.25-1.375v-0.10156c-1.5625-5.25-1.0156-7.5-0.29688-8.4609 0.1875-0.25 0.78125-1.0156 2.6562-1.0156 7.3828 0 9.375 6.1094 9.375 9.375 0 12.633-1.2656 18.703-2.3438 21.57-0.40234 1.0859-0.24609 2.3008 0.41797 3.2539 0.66406 0.94922 1.75 1.5156 2.9102 1.5117h16.93c1.1602 0.003907 2.2461-0.5625 2.9102-1.5117 0.66406-0.95312 0.82031-2.168 0.41797-3.2539-0.78906-2.1797-1.6641-6.0859-2.0938-13.039l18.898 18.898c-8.4961 7.3516-19.492 11.152-30.715 10.613-11.219-0.53516-21.805-5.3672-29.559-13.492-7.7578-8.1289-12.09-18.926-12.102-30.16zm76.797 28.625l-23.539-23.539c0.17969-3.3125 2.2812-8.8594 9.3203-8.8594 1.8906 0 2.4688 0.78125 2.6562 1.0156 0.71875 0.96094 1.25 3.2109-0.29688 8.4609v0.10156c-0.14062 0.46875-0.050781 0.97266 0.23828 1.3672 0.28516 0.39453 0.74219 0.63281 1.2305 0.64062h0.78125c6.7969 0 8.5938-6.0469 8.5938-9.2422 0-16.875-14.367-30.602-32.031-30.602-7.4453-0.027344-14.676 2.4766-20.516 7.0938l-8.1094-8.1094c11.27-9.5859 26.621-12.832 40.801-8.6211 14.184 4.2109 25.281 15.309 29.492 29.492 4.2109 14.18 0.96484 29.531-8.6211 40.801z"/>
</g></svg>
