<?xml version="1.0" encoding="UTF-8"?>
<svg width="100pt" height="100pt" version="1.1" viewBox="0 0 100 100" xmlns="http://www.w3.org/2000/svg"><g fill="#1C1C1C" stroke="#1C1C1C" stroke-width="2.5" fill-rule="evenodd">
 <path d="m50 0c-13.262 0-25.98 5.2695-35.355 14.645s-14.645 22.094-14.645 35.355 5.2695 25.98 14.645 35.355 22.094 14.645 35.355 14.645 25.98-5.2695 35.355-14.645 14.645-22.094 14.645-35.355c-0.015625-13.258-5.2852-25.965-14.66-35.34s-22.082-14.645-35.34-14.66zm-43.75 50c-0.007812-10.52 3.7969-20.688 10.703-28.625l26.93 26.93c-1.0742 1.1133-1.9414 2.4141-2.5547 3.8359-0.76172 1.8672-2.4414 3.2031-4.4297 3.5234-2.7891 0.375-5.3828 1.6523-7.375 3.6406-3.4062 3.3828-12.5 12.367-6.5391 18.344 2.3438 2.3906 7.0312 3.8359 12.398 3.8594h0.125c5.3359 0 9.9297-1.3984 12.305-3.75 0.96484-0.95703 1.7773-2.0586 2.3984-3.2656 1.1016-2.2773 3.1797-3.9336 5.6484-4.4922 2.3984-0.48828 4.6094-1.6484 6.375-3.3438l16.406 16.406c-8.4961 7.3594-19.5 11.164-30.727 10.629-11.227-0.53906-21.82-5.375-29.574-13.508-7.7578-8.1367-12.086-18.941-12.09-30.184zm38.281 17.969c0 2.2109-1.332 4.207-3.375 5.0508-2.043 0.84766-4.3984 0.37891-5.9609-1.1836s-2.0312-3.918-1.1836-5.9609c0.84375-2.043 2.8398-3.375 5.0508-3.375 3.0195 0 5.4688 2.4492 5.4688 5.4688zm3.125-10.938c0-2.2109 1.332-4.207 3.375-5.0508 2.043-0.84766 4.3984-0.37891 5.9609 1.1836s2.0312 3.918 1.1836 5.9609c-0.84375 2.043-2.8398 3.375-5.0508 3.375-3.0195 0-5.4688-2.4492-5.4688-5.4688zm11.719-14.844c0-2.2109 1.332-4.207 3.375-5.0508 2.043-0.84766 4.3984-0.37891 5.9609 1.1836s2.0312 3.918 1.1836 5.9609c-0.84375 2.043-2.8398 3.375-5.0508 3.375-3.0195 0-5.4688-2.4492-5.4688-5.4688zm23.672 36.438l-17.422-17.414c0.125-0.39844 0.24219-0.78125 0.32812-1.2188 0.57812-2.4648 2.2461-4.5312 4.5312-5.6172 1.2109-0.60547 2.3164-1.3945 3.2812-2.3438 4.6875-4.6875 5.1406-17.312 1.2734-23.344 0.38281-0.35547 0.73828-0.73828 1.0625-1.1484 0.30859-0.40234 0.58984-0.82812 0.83594-1.2734 0.26562-0.43359 0.47266-0.89844 0.61719-1.3828 0.30859-1.0469 0.17578-2.1758-0.36719-3.125-0.39844-0.72656-1.2891-1.0195-2.0391-0.66406l-0.14844 0.078125c-0.45312 0.22266-0.86719 0.51172-1.2344 0.85938-0.29688 0.26172-0.55859 0.55859-0.78125 0.88281-0.36719 0.61719-0.63281 1.2578-0.96094 1.875l-0.44531 0.82813c-5.7578-2.3125-13.102 4.9766-16.109 7.9766-2.0039 1.9766-3.3047 4.5547-3.7031 7.3438-0.25391 1.6133-1.1953 3.0391-2.5781 3.9062l-27.812-27.891c11.27-9.5859 26.621-12.832 40.801-8.6211 14.184 4.2109 25.281 15.309 29.492 29.492 4.2109 14.18 0.96484 29.531-8.6211 40.801z"/>
</g></svg>
