<?xml version="1.0" encoding="UTF-8"?>
<svg width="100pt" height="100pt" version="1.1" viewBox="0 0 100 100" xmlns="http://www.w3.org/2000/svg"><g fill="#1C1C1C" stroke="#1C1C1C" stroke-width="2.5" fill-rule="evenodd">
 <path d="m50 0c-13.262 0-25.98 5.2695-35.355 14.645s-14.645 22.094-14.645 35.355 5.2695 25.98 14.645 35.355 22.094 14.645 35.355 14.645 25.98-5.2695 35.355-14.645 14.645-22.094 14.645-35.355c-0.015625-13.258-5.2852-25.965-14.66-35.34s-22.082-14.645-35.34-14.66zm-46.875 50c-0.015625-11.902 4.5156-23.359 12.664-32.031l10.25 10.281c-5.1602 5.457-8.0469 12.676-8.0703 20.188 0 3.2422 1.7969 9.375 8.5938 9.375h14.062c-0.10156 11.828-1.3125 16.492-2.2422 18.992-0.46094 1.2891-0.28125 2.7188 0.48438 3.8516 0.57031 0.84375 1.5195 1.3594 2.5391 1.375h17.188c1.0234-0.015625 1.9727-0.52734 2.5469-1.375 0.76172-1.1328 0.94141-2.5625 0.48438-3.8516-0.78125-2.2031-1.8594-6.1016-2.1641-15.133l22.57 22.539c-8.9453 8.3711-20.812 12.91-33.062 12.641-12.246-0.26953-23.902-5.3242-32.473-14.082-8.5664-8.7539-13.367-20.52-13.371-32.77zm81.086 32.031l-24.219-24.219h13.445c6.7969 0 8.5938-6.0469 8.5938-9.2422 0-16.875-14.367-30.602-32.031-30.602-7.9844-0.03125-15.707 2.8477-21.719 8.1016l-10.312-10.281c11.973-11.086 28.852-15.148 44.559-10.723 15.707 4.4258 27.98 16.699 32.406 32.406 4.4258 15.707 0.36328 32.586-10.723 44.559z"/>
</g></svg>
