<?xml version="1.0" encoding="UTF-8"?>
<svg width="100pt" height="100pt" version="1.1" viewBox="0 0 100 100" xmlns="http://www.w3.org/2000/svg"><g fill="#1C1C1C" stroke="#1C1C1C" stroke-width="2.5" fill-rule="evenodd">
 <path d="m50 0c-13.262 0-25.98 5.2695-35.355 14.645s-14.645 22.094-14.645 35.355 5.2695 25.98 14.645 35.355 22.094 14.645 35.355 14.645 25.98-5.2695 35.355-14.645 14.645-22.094 14.645-35.355c-0.015625-13.258-5.2852-25.965-14.66-35.34s-22.082-14.645-35.34-14.66zm-46.875 50c-0.015625-11.902 4.5156-23.359 12.664-32.031l29.234 29.266c-0.31641 0.26172-0.62109 0.53516-0.91406 0.82031-1.1836 1.168-2.125 2.5586-2.7812 4.0859-0.76172 1.8672-2.4414 3.2031-4.4297 3.5234-2.7891 0.375-5.3828 1.6523-7.375 3.6406-3.4062 3.3828-12.5 12.367-6.5391 18.344 2.5625 2.5859 7.5469 3.9062 12.5 3.9062s9.7734-1.2578 12.312-3.7812c0.96484-0.95703 1.7773-2.0586 2.3984-3.2656 1.1016-2.2891 3.1875-3.9492 5.6641-4.5078 2.4766-0.50391 4.75-1.7188 6.5391-3.5 0.3125-0.31641 0.60547-0.64844 0.88281-0.99219l18.75 18.703c-8.9453 8.3711-20.812 12.91-33.062 12.641-12.246-0.26953-23.902-5.3242-32.473-14.082-8.5664-8.7539-13.367-20.52-13.371-32.77zm45.539 0.86719l1.3359 1.3125c0.078125 0.49219-0.085938 0.99219-0.4375 1.3438-1.5273 1.5039-1.9922 3.7852-1.1797 5.7695 0.80859 1.9844 2.7383 3.2812 4.8828 3.2852 1.4023-0.003906 2.7422-0.56641 3.7266-1.5625 0.30469-0.3125 0.56641-0.66797 0.78125-1.0469l2.2578 2.2578c-1.5781 2.168-4.0977 3.4531-6.7812 3.4453-3.4023-0.015625-6.4609-2.082-7.75-5.2344-1.2891-3.1484-0.55469-6.7656 1.8594-9.1641 0.34766-0.32813 0.83203-0.47656 1.3047-0.40625zm15.945-2.7891c0.86328 0 1.5625 0.69922 1.5625 1.5625s-0.69922 1.5625-1.5625 1.5625c-3.4023-0.015625-6.4609-2.082-7.75-5.2344-1.2891-3.1484-0.55469-6.7656 1.8594-9.1641 1.5742-1.5781 3.7188-2.4531 5.9453-2.4297 0.86328 0 1.5625 0.69922 1.5625 1.5625s-0.69922 1.5625-1.5625 1.5625c-2.9219 0-5.293 2.3711-5.293 5.293s2.3711 5.293 5.293 5.293zm-17.523 20.484c-0.015626 4.6328-3.7773 8.3828-8.4141 8.3828-0.86328 0-1.5625-0.69922-1.5625-1.5625 0-0.86328 0.69922-1.5625 1.5625-1.5625 2.9219 0 5.293-2.3711 5.293-5.293s-2.3711-5.293-5.293-5.293c-2.9141 0-5.2812 2.3594-5.2891 5.2734 0 0.41406-0.16406 0.8125-0.45703 1.1055s-0.69141 0.45703-1.1055 0.45703c-0.86328 0-1.5625-0.69922-1.5625-1.5625 0.007813-4.6367 3.7695-8.3945 8.4062-8.3984 2.2383 0.003906 4.3828 0.89453 5.9648 2.4805 1.5781 1.5859 2.4648 3.7344 2.457 5.9727zm37.125 13.469l-19.203-19.234c0.42188-0.89844 0.73828-1.8398 0.94531-2.8125 0.57812-2.4648 2.2461-4.5312 4.5312-5.6172 1.2109-0.60547 2.3164-1.3945 3.2812-2.3438 2.3906-2.3438 3.8359-7.0312 3.8594-12.398 0-4.4297-0.92969-8.3594-2.5859-10.938 0.38281-0.35547 0.73828-0.73828 1.0625-1.1484 0.30859-0.40234 0.58984-0.82812 0.83594-1.2734 0.26562-0.43359 0.47266-0.89844 0.61719-1.3828 0.30859-1.0469 0.17578-2.1758-0.36719-3.125-0.39844-0.72656-1.2891-1.0195-2.0391-0.66406l-0.14844 0.078125c-0.45312 0.22266-0.86719 0.51172-1.2344 0.85938-0.29688 0.26172-0.55859 0.55859-0.78125 0.88281-0.36719 0.61719-0.63281 1.2578-0.96094 1.875l-0.44531 0.82813c-5.7578-2.3125-13.102 4.9766-16.109 7.9766-2.0039 1.9766-3.3047 4.5547-3.7031 7.3438-0.34375 1.9727-1.6875 3.6289-3.5469 4.375-0.16406 0.070312-0.3125 0.14844-0.47656 0.22656l-29.773-29.75c11.973-11.086 28.852-15.148 44.559-10.723 15.707 4.4258 27.98 16.699 32.406 32.406 4.4258 15.707 0.36328 32.586-10.723 44.559z"/>
</g></svg>
