<?xml version="1.0" encoding="UTF-8"?>
<svg width="100pt" height="100pt" version="1.1" viewBox="0 0 100 100" xmlns="http://www.w3.org/2000/svg"><g fill="#1C1C1C" stroke="#1C1C1C" stroke-width="2.5" fill-rule="evenodd">
 <path d="m50 0c-13.262 0-25.98 5.2695-35.355 14.645s-14.645 22.094-14.645 35.355 5.2695 25.98 14.645 35.355 22.094 14.645 35.355 14.645 25.98-5.2695 35.355-14.645 14.645-22.094 14.645-35.355c-0.015625-13.258-5.2852-25.965-14.66-35.34s-22.082-14.645-35.34-14.66zm-46.875 50c-0.015625-11.902 4.5156-23.359 12.664-32.031l18.875 18.906c-0.91406 1.1289-1.7617 2.3047-2.5469 3.5234-4.3906 6.8047-7.1172 15.281-7.1172 22.102 0.003906 7.4844 3.3594 14.578 9.1484 19.324 5.7891 4.7461 13.398 6.6484 20.742 5.1875 7.3398-1.4648 13.641-6.1406 17.164-12.746l9.9766 9.9453c-8.9453 8.3711-20.812 12.91-33.062 12.641-12.246-0.26953-23.902-5.3242-32.473-14.082-8.5664-8.7539-13.367-20.52-13.371-32.77zm51.562 21.875c-3.4805 2.1289-7.9844 1.4922-10.734-1.5234-0.44141-0.65625-0.32422-1.5352 0.27344-2.0508 0.59766-0.51953 1.4844-0.50781 2.0703 0.019531 0.27344 0.3125 2.8594 3.0391 6.8438 0.82031 5.1719-2.8672 9.375 0.60156 10.852 2.8438 0.46484 0.71484 0.26562 1.6719-0.44141 2.1445-0.70703 0.47656-1.6641 0.29688-2.1523-0.40234-0.28125-0.42187-2.875-3.9922-6.7109-1.8516zm3.125 5.4688c0 1.2656-0.76172 2.4023-1.9297 2.8867-1.168 0.48438-2.5117 0.21484-3.4062-0.67578-0.89062-0.89453-1.1602-2.2383-0.67578-3.4062 0.48438-1.168 1.6211-1.9297 2.8867-1.9297 0.82812 0 1.625 0.32812 2.2109 0.91406 0.58594 0.58594 0.91406 1.3828 0.91406 2.2109zm-15.625-27.344c0 1.2656-0.76172 2.4023-1.9297 2.8867-1.168 0.48438-2.5117 0.21484-3.4062-0.67578-0.89062-0.89453-1.1602-2.2383-0.67578-3.4062 0.48438-1.168 1.6211-1.9297 2.8867-1.9297 0.82812 0 1.625 0.32812 2.2109 0.91406 0.58594 0.58594 0.91406 1.3828 0.91406 2.2109zm-0.78125 6.4531c2.4219 1.3594 4.6875 1.875 6.1172 1.3594 0.39062-0.15234 0.82422-0.14062 1.207 0.027344 0.38281 0.17188 0.68359 0.49219 0.82812 0.88281 0.14453 0.39453 0.12891 0.83203-0.050782 1.2109-0.17969 0.37891-0.50391 0.67188-0.89844 0.80859-0.77734 0.28125-1.6016 0.42187-2.4297 0.41406-2.2461-0.10547-4.4297-0.78906-6.3359-1.9844-3.125-1.7969-5.2578-0.15625-5.2812-0.13281-0.32031 0.27344-0.74219 0.40625-1.1602 0.36719-0.42188-0.039062-0.80859-0.25-1.0742-0.57812-0.26562-0.33203-0.38281-0.75391-0.33203-1.1719 0.054687-0.42188 0.27344-0.80078 0.61328-1.0547 0.16406-0.13281 3.8281-2.9844 8.7969-0.14844zm-7.2422 6.3359c1.5195-0.62109 3.2227-0.62109 4.7422 0 0.79297 0.33984 1.1641 1.2578 0.82422 2.0508-0.33984 0.79297-1.2578 1.1641-2.0508 0.82422-0.69531-0.28906-1.4727-0.31641-2.1875-0.078124-0.16406 0.078124-0.66406 0.32031-0.97656 1.4141-0.23828 0.83203-1.1016 1.3125-1.9336 1.0742s-1.3125-1.1016-1.0742-1.9336c0.34375-1.4531 1.3125-2.6797 2.6484-3.3516zm24.766-16.898c-0.078126 0-1.2266 0.10156-2.7891 0.10156-1.1758 0.003906-2.3516-0.054688-3.5234-0.17969-0.86328-0.097656-1.4844-0.875-1.3867-1.7383 0.097656-0.86328 0.875-1.4844 1.7383-1.3867 1.8945 0.18359 3.7969 0.20703 5.6953 0.070312 0.86328-0.070312 1.6211 0.57031 1.6914 1.4336 0.070312 0.86328-0.57031 1.6211-1.4336 1.6914zm3.5 1.1484c0.76953 0.38672 1.0781 1.3242 0.69531 2.0938-0.46094 0.89844-1.0391 1.7305-1.7109 2.4844-0.27734 0.31641-0.67187 0.51172-1.0938 0.53516-0.42187 0.019531-0.83203-0.12891-1.1445-0.41406-0.30859-0.28516-0.48828-0.68359-0.5-1.1055-0.011719-0.42187 0.14844-0.83203 0.44141-1.1328 0.47656-0.53906 0.88281-1.1289 1.2188-1.7656 0.38672-0.76562 1.3164-1.0742 2.0859-0.69531zm-7.3516-5.875c-0.40234 0.10156-0.82812 0.039063-1.1875-0.17578-0.35547-0.21484-0.60938-0.5625-0.71094-0.96484 0-0.078126 0-0.14063-0.054688-0.19531-0.73047 0.41016-1.6523 0.16797-2.0938-0.54297-0.4375-0.71094-0.23828-1.6445 0.45312-2.1133 0.82812-0.55859 1.8672-0.69531 2.8125-0.375 1.0195 0.44141 1.7383 1.375 1.9141 2.4688 0.10156 0.40234 0.039062 0.82812-0.17578 1.1875-0.21484 0.35547-0.5625 0.60938-0.96484 0.71094zm9.7656 14.305c0-0.63281 0.37891-1.2031 0.96484-1.4453 0.58203-0.23828 1.2539-0.10547 1.7031 0.33984 0.44531 0.44922 0.57812 1.1211 0.33984 1.7031-0.24219 0.58594-0.8125 0.96484-1.4453 0.96484-0.86328 0-1.5625-0.69922-1.5625-1.5625zm19.367 26.562l-10.773-10.812c1.0391-2.7891 1.5664-5.7422 1.5625-8.7188 0-6.8203-2.7266-15.297-7.1172-22.109-1.7266-2.7383-3.832-5.2227-6.25-7.375-0.21875-5.1172 0.21875-11.484 2.75-15.82 0.47656-0.71875 0.63672-1.6016 0.44141-2.4414-0.19531-0.83984-0.73047-1.5625-1.4766-1.9961-0.74609-0.42969-1.6406-0.53516-2.4648-0.28906-0.82812 0.25-1.5156 0.82812-1.8984 1.6016-2.625 4.5-3.4922 10.156-3.6328 15.102-0.59375-0.22656-1.1992-0.42188-1.8125-0.57812l-0.41406-15.406c-0.050781-1.7266-1.4922-3.082-3.2188-3.0312s-3.082 1.4922-3.0312 3.2188l0.44531 15.016c-0.52734 0.10156-1.0469 0.22656-1.5625 0.38281-1.0703-4.9375-2.6133-9.7578-4.6094-14.398-0.69141-1.582-2.5352-2.3008-4.1172-1.6094s-2.3008 2.5352-1.6094 4.1172c2.0391 4.7734 3.5703 9.75 4.5703 14.844-1.1641 0.84375-2.2617 1.7812-3.2734 2.8047l-18.75-18.75c11.969-11.117 28.863-15.199 44.59-10.777 15.723 4.4258 28.012 16.715 32.434 32.441 4.4219 15.723 0.33594 32.617-10.781 44.586z"/>
</g></svg>
