<?xml version="1.0" encoding="UTF-8"?>
<svg width="100pt" height="100pt" version="1.1" viewBox="0 0 100 100" xmlns="http://www.w3.org/2000/svg"><g fill="#1C1C1C" stroke="#1C1C1C" stroke-width="2.5" fill-rule="evenodd">
 <path d="m50 0c-13.262 0-25.98 5.2695-35.355 14.645s-14.645 22.094-14.645 35.355 5.2695 25.98 14.645 35.355 22.094 14.645 35.355 14.645 25.98-5.2695 35.355-14.645 14.645-22.094 14.645-35.355c-0.015625-13.258-5.2852-25.965-14.66-35.34s-22.082-14.645-35.34-14.66zm-43.75 50c-0.007812-10.52 3.7969-20.688 10.703-28.625l10.156 10.156c-4.3438 6.0469-6.7969 14.195-6.7969 23.711 0 9.7266 2.5234 17.242 7.5938 22.328 5.0703 5.0859 12.461 7.5859 22.094 7.5859 10.047 0 17.641-2.7578 22.656-8.1094l5.9922 5.9922c-8.4961 7.3594-19.496 11.168-30.723 10.637-11.227-0.53516-21.816-5.3672-29.578-13.5-7.7578-8.1289-12.09-18.938-12.098-30.176zm40.781-12.148c0.42969 0.75 0.17578 1.707-0.57422 2.1367-0.75 0.42969-1.707 0.17578-2.1367-0.57422-2.4375-4.2734-0.78125-11.648-0.70312-11.961 0.19531-0.83984 1.0352-1.3672 1.875-1.1719 0.83984 0.19531 1.3672 1.0352 1.1719 1.875-0.42187 1.7734-1.1562 7 0.36719 9.6953zm-6.2891 32.719c-0.59375-0.60937-0.59375-1.5781 0-2.1875 0.29297-0.29687 0.69531-0.46484 1.1133-0.46484s0.82031 0.16797 1.1133 0.46484c0.29688 0.29688 2.8203 3.0781 0.34375 9.2734-0.34766 0.75391-1.2266 1.1016-1.9961 0.79688-0.77344-0.30859-1.168-1.168-0.90234-1.9531 1.7109-4.2188 0.34375-5.9141 0.32813-5.9297zm3.1953-6.8906c0.22656 0.83203-0.26562 1.6914-1.0977 1.918-0.83203 0.22656-1.6914-0.26562-1.918-1.0977-1.7578-6.4609 2.625-15.359 2.8281-15.734 0.0625-0.11719 0.14062-0.23047 0.23438-0.32812l2.2891 2.2891c-0.85938 1.875-3.5703 8.4375-2.3359 12.953zm-6.0625-30.227c0.30859-0.48047 0.85547-0.75391 1.4258-0.71094 0.57031 0.039062 1.0703 0.38672 1.3086 0.90625 0.38672 1.0156 0.60156 2.0898 0.64062 3.1797zm2.1328 10.938c-0.44922 1.2383-0.98437 2.4414-1.6016 3.6016-0.41406 0.74609-1.3477 1.0234-2.1016 0.62109-0.75-0.40234-1.043-1.332-0.65625-2.0898 0.77734-1.4531 1.3945-2.9844 1.8516-4.5703zm-0.94531 9.0078c-0.085938 0.0625-4.0469 3.25-3.2344 6.5234 0.21484 0.83594-0.28906 1.6914-1.125 1.9062s-1.6914-0.28906-1.9062-1.125c-1.3125-5.2578 4.1094-9.5625 4.3438-9.7422 0.67578-0.41406 1.5547-0.25781 2.0469 0.36328 0.48828 0.62109 0.4375 1.5156-0.125 2.0742zm0.054688 19.461c-0.9375 0.87891-2.168 1.3828-3.4531 1.4141-0.28906 0.011718-0.58203-0.007813-0.86719-0.054688-2.8047-0.5625-4.4062-3.6328-4.5781-3.9844-0.38672-0.77344-0.074219-1.7109 0.69922-2.0977 0.77344-0.38672 1.7109-0.074219 2.0977 0.69922 0.27344 0.53125 1.2969 2.1016 2.4141 2.3438 0.1875 0 0.78125 0.14844 1.6641-0.63281 0.30078-0.32422 0.72656-0.50781 1.1719-0.5 0.44141 0.003906 0.86328 0.19922 1.1523 0.53516 0.29297 0.33594 0.42969 0.77734 0.375 1.2188-0.054688 0.44141-0.29688 0.83594-0.66016 1.0898zm-7.4453-33.258c0.65234-0.47266 1.5625-0.37109 2.0938 0.23828 0.52734 0.60938 0.50781 1.5195-0.046875 2.1055-0.14062 0.125-3.0078 2.7656-1.6797 7.625 0.22656 0.83203-0.26562 1.6914-1.0977 1.918-0.83203 0.22656-1.6914-0.26562-1.918-1.0977-1.8594-6.8125 2.4688-10.625 2.6484-10.789zm-2.2969 17.117c-0.16016 2.3086 0.50391 4.6016 1.875 6.4688 0.5 0.70312 0.33594 1.6797-0.36719 2.1797-0.70312 0.5-1.6797 0.33594-2.1797-0.36719-1.8359-2.5273-2.6953-5.6367-2.4219-8.75 0.11719-0.86328 0.91406-1.4648 1.7773-1.3477 0.86328 0.11719 1.4648 0.91406 1.3477 1.7773zm20.625 25.312h-1.5625v-29.172l3.125 3.125v26.047h-1.5625zm3.3438-53.906c-0.19531-0.83984 0.33203-1.6797 1.1719-1.875s1.6797 0.33203 1.875 1.1719c0.070313 0.3125 1.7344 7.6875-0.70312 11.961-0.42969 0.75-1.3867 1.0039-2.1367 0.57422-0.75-0.42969-1.0039-1.3867-0.57422-2.1367 1.5156-2.6641 0.78125-7.8906 0.36719-9.6953zm0.82812 19.93c0.77344-0.38281 1.7109-0.070313 2.0938 0.70312 0.78516 1.6367 1.4453 3.3281 1.9766 5.0625l-4.8594-4.8594c0.13281-0.39063 0.41797-0.71484 0.78906-0.89844zm10.156-1.5078c0.20312 0.36719 0.25 0.80078 0.13281 1.1992-0.12109 0.40234-0.39453 0.74219-0.76563 0.9375-0.36719 0.19922-0.80078 0.23828-1.2031 0.11328-0.39844-0.12891-0.73047-0.40625-0.92188-0.78125-4.6328-8.7031-2.3438-14.148-2.2109-14.375 0.37109-0.74219 1.2617-1.0625 2.0234-0.73047 0.76172 0.33203 1.1289 1.2031 0.83594 1.9805-0.054688 0.26562-1.7031 4.4531 2.1406 11.664zm-3.3906 6.8516c-0.64062-0.54297-0.73828-1.4922-0.22266-2.1523 0.51953-0.66016 1.4648-0.79688 2.1445-0.30859 0.23438 0.17969 5.6562 4.4766 4.3438 9.7422-0.12891 0.51562-0.50781 0.92969-1.0078 1.1016l-2-2c0.64844-3.2422-3.2578-6.3516-3.2578-6.3828zm10.344 11.602c-0.28516 0.39453-0.73438 0.63281-1.2188 0.64844l-1.6094-1.5859c0.007813-0.31641 0.11328-0.62109 0.29688-0.875 1.3594-1.8711 2.0273-4.1523 1.8906-6.4609-0.12109-0.86328 0.48047-1.6602 1.3438-1.7812 0.86328-0.12109 1.6602 0.48047 1.7812 1.3438 0.24609 3.1094-0.63672 6.1992-2.4844 8.7109zm-11.719 11.523c0.17969 0.39062 0.19141 0.83594 0.03125 1.2344-0.15625 0.39844-0.47266 0.71484-0.87109 0.87109-0.39844 0.16016-0.84375 0.14844-1.2344-0.03125-0.38672-0.17969-0.6875-0.51172-0.82422-0.91797-2.4766-6.1953 0.046876-8.9766 0.34375-9.2734 0.60156-0.62109 1.5898-0.64062 2.2109-0.039062 0.62109 0.60156 0.64062 1.5898 0.039062 2.2109-0.078124 0.10156-1.3438 1.8125 0.30469 5.9375zm1.1484-5.8594c0.5625-0.65234 1.5508-0.72656 2.2031-0.16406 0.91406 0.78125 1.4766 0.67188 1.6641 0.63281 0.50781-0.14062 0.96484-0.42578 1.3125-0.82031l2.2109 2.2109c-0.77734 0.83984-1.7852 1.4297-2.8984 1.6953-0.28516 0.058594-0.57422 0.085938-0.86719 0.085938-1.2852-0.03125-2.5156-0.53516-3.4531-1.4141-0.32031-0.26953-0.52344-0.66016-0.55469-1.0781s0.10547-0.83203 0.38281-1.1484zm10.266-20.25c-0.085937 0.42578-0.34375 0.79297-0.71094 1.0234-0.36719 0.22656-0.81641 0.28906-1.2305 0.17578-0.41797-0.11328-0.76953-0.39453-0.97266-0.77734-0.20312-0.38281-0.23438-0.83203-0.09375-1.2422 1.3281-4.875-1.5625-7.5156-1.6875-7.625-0.55469-0.58594-0.57422-1.4961-0.046875-2.1055 0.53125-0.60938 1.4414-0.71094 2.0938-0.23828 0.17969 0.14062 4.5078 3.9531 2.6484 10.789zm-11.719 13.281c-0.054687 0.27344-0.10937 0.54688-0.1875 0.78125-0.22656 0.83203-1.0859 1.3242-1.918 1.0977-0.83203-0.22656-1.3242-1.0859-1.0977-1.918 0.23828-0.94531 0.33984-1.918 0.30469-2.8906zm-10.625-44.992c0.30469-0.45703 0.82031-0.73438 1.3711-0.73438 0.55078 0 1.0664 0.27734 1.3711 0.73438 0.074219 0.11328 0.13672 0.23047 0.19531 0.35156v28.125l-3.125-3.125v-25c0.054688-0.12109 0.11719-0.23828 0.1875-0.35156zm34.414 59.922l-6.7812-6.75c2.2656-4.4219 3.4219-9.9062 3.4219-16.406 0-16.742-7.3594-29.281-19.68-33.594-2.4922-0.89844-5.0391-2.4219-5.25-3.125-0.16406-0.61328-0.42969-1.1914-0.78125-1.7188-0.88281-1.3516-2.3867-2.168-4-2.168-1.6133 0-3.1172 0.81641-4 2.168-0.35156 0.52734-0.61719 1.1055-0.78125 1.7188-0.21094 0.71094-2.7656 2.2344-5.2344 3.125-3.1758 1.1016-6.1094 2.8125-8.6328 5.0312l-9.9531-9.9531c11.27-9.5859 26.621-12.832 40.801-8.6211 14.184 4.2109 25.281 15.309 29.492 29.492 4.2109 14.18 0.96484 29.531-8.6211 40.801z"/>
</g></svg>
