<?xml version="1.0" encoding="UTF-8"?>
<svg width="100pt" height="100pt" version="1.1" viewBox="0 0 100 100" xmlns="http://www.w3.org/2000/svg"><g fill="#1C1C1C" stroke="#1C1C1C" stroke-width="2.5" fill-rule="evenodd">
 <path d="m94.43 23.773c-0.050782-0.41016-0.26172-0.78516-0.58984-1.0391-0.32812-0.25781-0.74219-0.37109-1.1523-0.32031-0.30469 0-0.61719 0.085938-0.92188 0.14063-0.375-0.5625-0.78125-1.1172-1.1562-1.6719 1.5273-0.90234 3.2578-1.3945 5.0312-1.4297 0.86328 0 1.5625-0.69922 1.5625-1.5625s-0.69922-1.5625-1.5625-1.5625c-2.1484 0.027344-4.2539 0.57422-6.1406 1.6016 0.8125-1.6406 1.5117-3.3359 2.0938-5.0703 0.23828-0.80469-0.20703-1.6562-1.0039-1.9219s-1.6602 0.14453-1.957 0.92969c-0.50391 1.4961-1.1016 2.957-1.7891 4.375-12.082-12.527-29.805-17.871-46.793-14.109-16.992 3.7617-30.805 16.086-36.473 32.539-5.6641 16.453-2.3672 34.668 8.7031 48.094l-0.78125 0.28906c-0.42969 0.11328-0.79297 0.41016-0.99219 0.80859-0.20312 0.39844-0.22266 0.86328-0.054687 1.2812 0.16406 0.41406 0.5 0.73828 0.91797 0.89062 0.42188 0.15234 0.88672 0.11719 1.2773-0.097656l1.9219-0.72656c1.1758 1.1836 2.4102 2.3086 3.7031 3.375l-2.2656 2.2656c-0.60937 0.60938-0.60937 1.6016 0 2.2109 0.60938 0.60938 1.6016 0.60938 2.2109 0l2.5625-2.5625 0.23438 0.17188c-0.78125 1.8906-1.2578 2.9922-1.2891 3.0625-0.33984 0.79297 0.027344 1.7148 0.82031 2.0547 0.79297 0.33984 1.7148-0.027343 2.0547-0.82031 0.10156-0.24219 0.48438-1.125 1.0703-2.5234 12.668 7.8086 28.152 9.5703 42.246 4.8047 14.098-4.7656 25.34-15.559 30.672-29.453 5.332-13.891 4.1992-29.434-3.0898-42.406 0.63281-0.27344 1.0117-0.93359 0.92969-1.6172zm-5.8828-0.39844c-0.71094 0.23438-1.4141 0.50781-2.0938 0.78125 0.47656-0.49219 1.0156-1 1.5625-1.4922zm-55.297 55.594c0 0.039062 0.039062 0.078125 0.054688 0.11719h-1.1016l0.09375-0.09375 0.89844-0.29688c0.011719 0.09375 0.027344 0.18359 0.054688 0.27344zm14.68-4.8281h-0.15625zm8.8438-5.6406l-1.6797 0.42969c1.0156-1.9375 1.7578-4 1.5625-5.7109v-0.0625c0.71875-0.085938 1.4453-0.14844 2.1875-0.1875-0.23828 1.9805-0.94922 3.8789-2.0703 5.5312zm-3.1953-4.8203c0.054687 1.5625-1.2969 4.1484-2.8359 6.4219l-0.32813 0.09375c0.22656-0.51562 0.375-1.0664 0.44531-1.625 0.09375-0.86328-0.52734-1.6406-1.3906-1.7344s-1.6406 0.52734-1.7344 1.3906c-0.13281 1.1562-1.0703 2.3438-2.4531 3.4453-2.7656 0.78125-5.4688 1.6562-8.1328 2.4922l2.4375-2.4375c0.11328-0.066406 0.21875-0.14844 0.3125-0.24219 0.054687-0.054687 0.32812-0.33594 0.74219-0.78125l3.8906-3.8828c2.8789-1.4062 5.918-2.457 9.0469-3.1406zm-11.469-2.4688h-0.046875c-1.5039 0.054687-2.9805 0.42969-4.3281 1.1016 1.0469-1.0781 2.1914-2.0625 3.4141-2.9375 0.65625-0.51562 0.79297-1.4531 0.3125-2.1328-0.48438-0.67969-1.4141-0.86328-2.1172-0.41406-0.8125 0.58203-1.5977 1.2109-2.3438 1.875 2.125-2.6562 4.9297-5.5312 7.4062-6.8672-0.011719 0.11719-0.011719 0.23437 0 0.35156 0.12109 3.1367-0.45703 6.2578-1.6953 9.1406-0.19141-0.078125-0.39453-0.11719-0.60156-0.11719zm4.5234-1.6484c0.6875-2.4375 0.97656-4.9688 0.85156-7.5-0.023437-0.35938-0.16797-0.70312-0.41406-0.96875 0.46094-0.042969 0.87891-0.28516 1.1406-0.66406l2.1016 2.1016c-0.90625 2.4961-2.1445 4.8633-3.6797 7.0312zm-7.3516-7.8125l0.38281-1.125c1.3203-2.1641 2.8594-3.9062 4.4453-4.2812l1.75 1.75c-2.25 0.34375-4.5391 1.8203-6.5781 3.6172zm-7.9375 21.688c1.4688-2.7344 5.2969-8.1875 9.8438-9-0.83984 1.4688-1.8125 2.8633-2.9062 4.1562l-7.6953 7.6953-0.4375 0.14844zm31.859-6.4609l-2.3438 0.53125c0.46875-1.1055 0.80469-2.2617 1.0078-3.4453l1.8906 1.8906c-0.17969 0.36719-0.36719 0.69531-0.5625 1.0156zm-5.4688-7.0312c-2.625 0.21875-5.2227 0.71094-7.75 1.4609l1.5625-1.5625c1.3047-0.79297 2.6719-1.4727 4.0938-2.0312zm26.641-39.258c0.10547-0.77734 0.16016-1.5586 0.15625-2.3438 0.25781 0.28125 0.5 0.57031 0.78125 0.85156-0.35156 0.54688-0.65625 1.0469-0.9375 1.4922zm-2.1875-4.6875c-0.52734 0.30078-0.83203 0.87891-0.78125 1.4844 0.085938 1.1797 0.015625 2.3672-0.20312 3.5312-0.44531-1.7969-1.3594-3.4375-2.6562-4.7578-0.60938-0.60937-1.6016-0.60937-2.2109 0-0.60938 0.60938-0.60938 1.6016 0 2.2109 2.9062 2.9141 2.2578 7.8828 1.8359 9.8984-0.5 0.78125-0.875 1.2734-0.97656 1.3984l-0.50781 0.50781c0.41406-3.9141-0.62891-7.8398-2.9297-11.031-0.49219-0.71094-1.4648-0.88672-2.1758-0.39453-0.71094 0.49219-0.88672 1.4648-0.39453 2.1758 4.3516 6.25 1.6641 11.977 1.5625 12.227-0.16406 0.33984-0.20312 0.73047-0.10156 1.0938l-0.53125 0.53125c0.35156-3.125 0.4375-7.25-1.0859-9.5312-0.48047-0.71875-1.4492-0.91406-2.168-0.43359-0.71875 0.48047-0.91406 1.4492-0.43359 2.168 1.0078 1.5078 0.89062 5.2344 0.46875 8.3672-0.011719-0.90234-0.19531-1.7969-0.53906-2.6328-0.14453-0.39844-0.44531-0.71875-0.83203-0.89062-0.38672-0.17188-0.82422-0.17969-1.2188-0.023437-0.39062 0.16016-0.70312 0.46875-0.86328 0.85937-0.16016 0.39063-0.15234 0.83203 0.015626 1.2188 1 2.5-0.89063 6.1953-2.8672 9.0156 1.0781-3.5938 1.6641-7.6484 0.16406-10.359-0.41797-0.75391-1.3711-1.0273-2.125-0.60937-0.75391 0.41797-1.0273 1.3711-0.60937 2.125 1.375 2.4766-0.19531 8-2.0078 12.258 0.20312-0.92188 0.375-1.8828 0.5-2.8828 0.10938-0.86328-0.50391-1.6484-1.3672-1.7578-0.86328-0.10938-1.6484 0.50391-1.7578 1.3672-0.20703 1.6289-0.54688 3.2344-1.0234 4.8047 0.058593-1.6445-0.28516-3.2773-1-4.7578-0.44531-0.61328-1.2695-0.82031-1.9492-0.48438-0.68359 0.33203-1.0273 1.1055-0.81641 1.8359 0.61719 1.3867 0.82031 2.9219 0.57813 4.4219l-6.8359-6.8359c1.8359-1.0781 3.6484-1.8516 4.8516-1.7344 0.86328 0.082032 1.6289-0.55078 1.7109-1.4141s-0.55078-1.6289-1.4141-1.7109c-1.8672-0.17969-4.1328 0.71094-6.1953 1.8516l0.45312-1.6094c2.7109-2.0195 6.1055-2.8945 9.4531-2.4375 0.86328 0.097656 1.6406-0.52344 1.7383-1.3867s-0.52344-1.6406-1.3867-1.7383c-2.9219-0.37109-5.8945 0.054688-8.5938 1.2344 0.20703-0.79297 0.41016-1.5742 0.60156-2.3438 1.9766-1.2188 4.75-2.3438 7.4766-1.5625 0.72266 0.039063 1.3789-0.42188 1.5859-1.1133 0.20703-0.69531-0.089844-1.4414-0.71875-1.8008-1.7812-0.51953-3.6719-0.55469-5.4688-0.09375 0.92188-0.74609 1.9336-1.3672 3.0156-1.8516 0.76562-0.36328 1.1016-1.2656 0.76172-2.043-0.33984-0.77344-1.2344-1.1367-2.0195-0.81641-1.0625 0.47656-2.0703 1.0625-3.0078 1.75 1.6016-2.8594 3.5391-5.5195 5.7656-7.9219 0.59375-0.62891 0.56641-1.6172-0.0625-2.2109s-1.6172-0.56641-2.2109 0.0625c-1.2539 1.3359-2.4141 2.75-3.4766 4.2422 0.015625-2.1484-0.49609-4.2656-1.4844-6.1719-0.41016-0.75781-1.3594-1.043-2.1172-0.63281-0.75781 0.41016-1.043 1.3594-0.63281 2.1172 1.7812 3.3203 1.1172 7.375 0.17969 10.328-0.17188-2.1602-0.64063-4.2891-1.3984-6.3203-0.14062-0.39844-0.4375-0.72266-0.82031-0.89844-0.38281-0.17578-0.82031-0.19141-1.2148-0.039063-0.39453 0.15234-0.71094 0.45703-0.875 0.84375-0.16797 0.39063-0.16797 0.82813-0.003906 1.2188 1.6562 4.3047 1.4453 9.375 0.92969 13.062-0.70703-2.3633-1.6523-4.6445-2.8281-6.8125-0.40625-0.76172-1.3555-1.0469-2.1172-0.64062-0.76172 0.40625-1.0469 1.3555-0.64062 2.1172 1.6758 3.0312 2.8164 6.3281 3.3672 9.75l-1.2188-1.2188c-1.0859-2.1836-2.6992-4.0586-4.6875-5.4688-0.3125-0.21875-0.69141-0.31641-1.0703-0.27344l-12.602-12.641c8.6992-8.168 20.195-12.695 32.125-12.664 11.934 0.035156 23.402 4.6289 32.055 12.844zm-79.062 34c-0.015625-11.902 4.5156-23.359 12.664-32.031l17.969 17.969c0.98828 2.2461 1.5469 4.6562 1.6406 7.1094-0.625-1.9727-1.4922-3.8594-2.5859-5.6172-0.23828-0.34766-0.60938-0.58203-1.0273-0.65234-0.41797-0.070313-0.84375 0.03125-1.1836 0.28125-0.33984 0.25-0.56641 0.62891-0.625 1.0469-0.054687 0.41797 0.058594 0.84375 0.32031 1.1758 1.5625 2.1406 3.7578 9.5703 4.7734 13.398-0.62891 1.418-1.1797 2.8711-1.6484 4.3516-0.48438-4.2266-2-9.375-6.0703-13.203-0.63281-0.51953-1.5625-0.45703-2.125 0.13672s-0.57031 1.5234-0.015624 2.1289c4.4766 4.1953 5.2578 10.547 5.2578 14.523-1.3516-2.9883-3.543-5.5234-6.3047-7.2891-0.73047-0.42578-1.668-0.19531-2.1133 0.51953-0.44922 0.71875-0.24609 1.6602 0.45703 2.1289 6.7188 4.2109 6.9688 13.281 6.9688 13.383-0.0625 0.17188-0.10156 0.29688-0.10937 0.32812-0.003907 0.066406-0.003907 0.12891 0 0.19531l-0.9375 2.4375-0.14063 0.27344c-0.0625 0.13281-0.10937 0.27734-0.13281 0.42188-0.63281 1.6406-1.2578 3.2188-1.8516 4.7266-4.4844 1.5625-8.25 2.8906-10.859 3.8516-7.9219-8.6172-12.316-19.891-12.32-31.594zm14.703 34.047l3.625-1.3047c0.11328 0.035156 0.23047 0.054687 0.35156 0.0625 0 0 0.82812 0.046874 2.0625 0.21875l-3.375 3.375c-0.91406-0.75-1.7969-1.5391-2.6641-2.3516zm7.0312 5.4688c0.625-1.5078 1.3594-3.2891 2.1641-5.2891l0.50781-0.50781c3.6719 0.94531 8.1562 2.8047 10.43 6.4375 0.20312 0.37891 0.55469 0.65625 0.96875 0.76562 0.41406 0.11328 0.85547 0.050781 1.2188-0.17188 0.36719-0.22266 0.625-0.58984 0.71484-1.0078 0.089844-0.41797 0.003907-0.85547-0.23828-1.2109-1.9141-2.8359-4.6367-5.0273-7.8125-6.2969 3.9062-0.070313 10.68 0.57812 15.109 5.2656 0.59375 0.62891 1.582 0.65625 2.2109 0.0625 0.30078-0.28516 0.47656-0.67969 0.48828-1.0938 0.011718-0.41406-0.14062-0.81641-0.42578-1.1172-3.7656-3.9844-8.75-5.5156-12.922-6.0312 1.7578-0.63281 3.4766-1.3672 5.1484-2.2031 2.8906 1.0078 9.9219 3.6016 12.266 5.3125 0.69531 0.48047 1.6445 0.32031 2.1445-0.35938 0.50391-0.67969 0.37109-1.6367-0.29297-2.1562-1.5156-1.0117-3.1211-1.8711-4.8047-2.5703 3.6562 0.32031 8.25 1.5625 10.984 5.4688 0.5 0.70703 1.4727 0.875 2.1797 0.375 0.70703-0.5 0.875-1.4727 0.375-2.1797-2.293-3.1211-5.6445-5.3008-9.4297-6.1328 4.3867 0.22656 8.6641 1.4609 12.5 3.6094 0.76172 0.40625 1.7109 0.12109 2.1172-0.64062s0.12109-1.7109-0.64063-2.1172c-2.1836-1.1797-4.4844-2.1289-6.8672-2.8281 2.4688-0.35156 4.9688-0.43359 7.4531-0.24219l11.625 11.555c-7.5703 7.1094-17.297 11.496-27.637 12.465-10.344 0.96484-20.715-1.5391-29.473-7.1211zm59.352-7.4844l-8.1797-8.2109c0.79688 0.28125 1.6719-0.12109 1.9766-0.91016 0.30469-0.78906-0.070312-1.6758-0.85156-2.0039-1.7227-0.64844-3.5234-1.082-5.3516-1.2969l-0.3125-0.3125c2.8672-0.82812 6.5781-1.2734 9.6719 0.38281 0.76172 0.40625 1.7109 0.12109 2.1172-0.64063 0.40625-0.76172 0.12109-1.7109-0.64062-2.1172-1.9062-0.98828-4.0234-1.5-6.1719-1.4844 1.4922-1.0625 2.9062-2.2227 4.2422-3.4766 0.62891-0.59375 0.65625-1.582 0.0625-2.2109s-1.582-0.65625-2.2109-0.0625c-2.3945 2.2305-5.043 4.1719-7.8906 5.7812 0.68359-0.92578 1.2734-1.9219 1.75-2.9688 0.35938-0.79688 0-1.7344-0.79688-2.0938s-1.7344 0-2.0938 0.79688c-0.48438 1.082-1.1055 2.0938-1.8516 3.0156 0.46094-1.7969 0.42969-3.6875-0.09375-5.4688-0.25-0.82812-1.1211-1.293-1.9492-1.043s-1.293 1.1211-1.043 1.9492c0.29688 0.95703 0.38281 1.9688 0.25 2.9609l-0.39062-0.39063c0.22656-0.45703 0.21875-0.99219-0.023437-1.4414-0.24219-0.44922-0.6875-0.75-1.1953-0.80859-0.375-0.039062-0.78125-0.070312-1.1328-0.10156 0-0.23438 0-0.46875-0.0625-0.70312-0.039062-0.46875-0.29297-0.89844-0.68359-1.1602-0.39062-0.26562-0.87891-0.33594-1.332-0.19922l-0.92969-0.92969c2.7539-0.64062 5.6484-0.27734 8.1562 1.0312 0.75 0.42969 1.707 0.17578 2.1367-0.57422 0.42969-0.75 0.17578-1.707-0.57422-2.1367-3.5625-2.0312-7.4844-2.0078-10.875-1.2734 3.0703-1.8906 10.031-5.3281 16.766-3.0703 0.80469 0.23828 1.6562-0.20703 1.9219-1.0039s-0.14453-1.6602-0.92969-1.957c-4.0547-1.2578-8.4062-1.2031-12.43 0.15625l3.3594-3.3594c2.6641-0.63281 8.8984-1.9062 11.672-1.5078 0.86328 0.12109 1.6641-0.47656 1.7852-1.3398 0.12109-0.86328-0.47656-1.6641-1.3398-1.7852-1.9883-0.16797-3.9922-0.082031-5.9609 0.25 3.4062-1.5625 8.2969-2.8594 12.773-0.61719 0.77344 0.38672 1.7109 0.074219 2.0977-0.69922 0.38672-0.77344 0.074218-1.7109-0.69922-2.0977-3.4844-1.6641-7.4531-2.0039-11.172-0.96094 2.0547-1.2188 5.9375-2.7109 12.68-2.7109 0.86328 0 1.5625-0.69922 1.5625-1.5625 0-0.86328-0.69922-1.5625-1.5625-1.5625-2.4219-0.015624-4.8398 0.19922-7.2188 0.64063 2.7383-2.0586 5.8047-3.6445 9.0703-4.6875 5.1875 8.7188 7.3945 18.883 6.2969 28.969-1.1016 10.082-5.4492 19.535-12.391 26.93z"/>
</g></svg>
