<?xml version="1.0" encoding="UTF-8"?>
<svg width="100pt" height="100pt" version="1.1" viewBox="0 0 100 100" xmlns="http://www.w3.org/2000/svg"><g fill="#1C1C1C" stroke="#1C1C1C" stroke-width="2.5" fill-rule="evenodd">
 <path d="m50 0c-13.262 0-25.98 5.2695-35.355 14.645s-14.645 22.094-14.645 35.355 5.2695 25.98 14.645 35.355 22.094 14.645 35.355 14.645 25.98-5.2695 35.355-14.645 14.645-22.094 14.645-35.355c-0.015625-13.258-5.2852-25.965-14.66-35.34s-22.082-14.645-35.34-14.66zm-43.75 50c-0.007812-10.52 3.7969-20.688 10.703-28.625l13.211 13.211 0.14063-0.14063c-3.4531 8.1602-5.2578 16.922-5.3047 25.781 0 0.41406 0.078125 2.9688 0.10156 3.2109 1.0703 12.344 12.398 20.938 24.898 20.938 7.8945 0.078125 15.398-3.4453 20.383-9.5703l8.2344 8.2344c-8.4961 7.3477-19.492 11.145-30.711 10.605-11.219-0.53516-21.801-5.3672-29.555-13.492-7.7539-8.125-12.086-18.922-12.102-30.152zm28.906 7.8125c0-3.9375 1.5625-7.7109 4.3477-10.496s6.5586-4.3477 10.496-4.3477 7.7109 1.5625 10.496 4.3477 4.3477 6.5586 4.3477 10.496-1.5625 7.7109-4.3477 10.496-6.5586 4.3477-10.496 4.3477-7.7109-1.5625-10.496-4.3477-4.3477-6.5586-4.3477-10.496zm47.891 20.812l-9.4609-9.4609c0.70703-1.8477 1.1484-3.7812 1.3203-5.75 0-0.24219 0.10156-2.7969 0.10156-3.2109-0.007812-21.484-11.727-44.578-25.008-44.578-6.3438 0-12.328 5.2656-16.852 13.109l-11.773-11.781c11.27-9.5859 26.621-12.832 40.801-8.6211 14.184 4.2109 25.281 15.309 29.492 29.492 4.2109 14.18 0.96484 29.531-8.6211 40.801z"/>
</g></svg>
