<?xml version="1.0" encoding="UTF-8"?>
<svg width="100pt" height="100pt" version="1.1" viewBox="0 0 100 100" xmlns="http://www.w3.org/2000/svg"><g fill="#1C1C1C" stroke="#1C1C1C" stroke-width="2.5" fill-rule="evenodd">
 <path d="m50 0c-13.262 0-25.98 5.2695-35.355 14.645s-14.645 22.094-14.645 35.355 5.2695 25.98 14.645 35.355 22.094 14.645 35.355 14.645 25.98-5.2695 35.355-14.645 14.645-22.094 14.645-35.355c-0.015625-13.258-5.2852-25.965-14.66-35.34s-22.082-14.645-35.34-14.66zm-46.875 50c-0.015625-11.902 4.5156-23.359 12.664-32.031l12.289 12.32c-4.9609 6.1328-7.7656 14.758-7.7656 24.953 0 9.7266 2.5234 17.242 7.5938 22.328 5.0703 5.0859 12.461 7.5859 22.094 7.5859 10.766 0 18.711-3.1641 23.656-9.2969l8.375 8.3516c-8.9453 8.3711-20.812 12.91-33.062 12.641-12.246-0.26953-23.902-5.3242-32.473-14.082-8.5664-8.7539-13.367-20.52-13.371-32.77zm34.625-15.094c-0.33594-0.79297 0.03125-1.707 0.82031-2.0469 0.77734-0.33594 1.6836 0.011719 2.0391 0.78125 0.60938 1.7148 0.81641 3.5508 0.60938 5.3594l-3.2266-3.2188c-0.054688-0.29688-0.13672-0.58984-0.24219-0.875zm9.2812 2.9453c0.42969 0.75 0.17578 1.707-0.57422 2.1367-0.75 0.42969-1.707 0.17578-2.1367-0.57422-2.4375-4.2734-0.78125-11.648-0.70312-11.961 0.19531-0.83984 1.0352-1.3672 1.875-1.1719 0.83984 0.19531 1.3672 1.0352 1.1719 1.875-0.42187 1.7734-1.1562 7 0.36719 9.6953zm-0.5 12.305c-0.039062 0.078125-4.0391 8.2188-2.5938 13.523 0.22656 0.83203-0.26562 1.6914-1.0977 1.918-0.83203 0.22656-1.6914-0.26562-1.918-1.0977-1.7578-6.4609 2.625-15.359 2.8281-15.734 0.38281-0.77344 1.3203-1.0859 2.0938-0.70312l0.0625 0.039062 0.60156 0.60156c0.24609 0.44922 0.25391 0.99609 0.023438 1.4531zm-5.7891 20.414c-0.59375-0.60937-0.59375-1.5781 0-2.1875 0.29297-0.29687 0.69531-0.46484 1.1133-0.46484s0.82031 0.16797 1.1133 0.46484c0.29688 0.29688 2.8203 3.0781 0.34375 9.2734-0.34766 0.75391-1.2266 1.1016-1.9961 0.79688-0.77344-0.30859-1.168-1.168-0.90234-1.9531 1.7109-4.2188 0.34375-5.9141 0.32813-5.9297zm-0.20313-27.82c-0.51953 1.832-1.2383 3.5977-2.1406 5.2734-0.41406 0.74609-1.3477 1.0234-2.1016 0.62109-0.75-0.40234-1.043-1.332-0.65625-2.0898 1.1172-1.9961 1.9102-4.1602 2.3438-6.4062zm-1.4766 10.648c-0.085938 0.0625-4.0469 3.25-3.2344 6.5234 0.21484 0.83594-0.28906 1.6914-1.125 1.9062s-1.6914-0.28906-1.9062-1.125c-1.3125-5.2578 4.1094-9.5625 4.3438-9.7422 0.67578-0.41406 1.5547-0.25781 2.0469 0.36328 0.48828 0.62109 0.4375 1.5156-0.125 2.0742zm0.054688 19.461c-0.9375 0.87891-2.168 1.3828-3.4531 1.4141-0.28906 0.011718-0.58203-0.007813-0.86719-0.054688-2.8047-0.5625-4.4062-3.6328-4.5781-3.9844-0.38672-0.77344-0.074219-1.7109 0.69922-2.0977 0.77344-0.38672 1.7109-0.074219 2.0977 0.69922 0.27344 0.53125 1.2969 2.1016 2.4141 2.3438 0.1875 0 0.78125 0.14844 1.6641-0.63281 0.30078-0.32422 0.72656-0.50781 1.1719-0.5 0.44141 0.003906 0.86328 0.19922 1.1523 0.53516 0.29297 0.33594 0.42969 0.77734 0.375 1.2188-0.054688 0.44141-0.29688 0.83594-0.66016 1.0898zm-7.4453-33.258c0.65234-0.47266 1.5625-0.37109 2.0938 0.23828 0.52734 0.60938 0.50781 1.5195-0.046875 2.1055-0.14062 0.125-3.0078 2.7656-1.6797 7.625 0.22656 0.83203-0.26562 1.6914-1.0977 1.918-0.83203 0.22656-1.6914-0.26562-1.918-1.0977-1.8594-6.8125 2.4688-10.625 2.6484-10.789zm-2.2969 17.117c-0.16016 2.3086 0.50391 4.6016 1.875 6.4688 0.5 0.70312 0.33594 1.6797-0.36719 2.1797-0.70312 0.5-1.6797 0.33594-2.1797-0.36719-1.8359-2.5273-2.6953-5.6367-2.4219-8.75 0.11719-0.86328 0.91406-1.4648 1.7773-1.3477 0.86328 0.11719 1.4648 0.91406 1.3477 1.7773zm20.625 25.312h-1.5625v-31.383l3.125 3.125v28.258h-1.5625zm3.3438-53.906c-0.19531-0.83984 0.33203-1.6797 1.1719-1.875s1.6797 0.33203 1.875 1.1719c0.070313 0.3125 1.7344 7.6875-0.70312 11.961-0.42969 0.75-1.3867 1.0039-2.1367 0.57422-0.75-0.42969-1.0039-1.3867-0.57422-2.1367 1.5156-2.6641 0.78125-7.8906 0.36719-9.6953zm0.125 22.023c-0.27344-0.74609 0.058594-1.582 0.77344-1.9375 0.71094-0.35547 1.5781-0.11328 2.0078 0.55469 1.2266 2.5664 2.1523 5.2656 2.75 8.0469l-4.6875-4.6875c-0.46094-1.1953-0.82812-1.9453-0.84375-1.9688zm10.891-3.6016c0.20312 0.36719 0.25 0.80078 0.13281 1.1992-0.12109 0.40234-0.39453 0.74219-0.76563 0.9375-0.36719 0.19922-0.80078 0.23828-1.2031 0.11328-0.39844-0.12891-0.73047-0.40625-0.92188-0.78125-4.6328-8.7031-2.3438-14.148-2.2109-14.375 0.37109-0.74219 1.2617-1.0625 2.0234-0.73047 0.76172 0.33203 1.1289 1.2031 0.83594 1.9805-0.085938 0.26562-1.7344 4.4531 2.1094 11.664zm-4.7969 29.969c0.17969 0.39062 0.19141 0.83594 0.03125 1.2344-0.15625 0.39844-0.47266 0.71484-0.87109 0.87109-0.39844 0.16016-0.84375 0.14844-1.2344-0.03125-0.38672-0.17969-0.6875-0.51172-0.82422-0.91797-2.4766-6.1953 0.046876-8.9766 0.34375-9.2734 0.60156-0.62109 1.5898-0.64063 2.2109-0.039063s0.64062 1.5898 0.039062 2.2109c-0.078124 0.10938-1.3438 1.8203 0.30469 5.9453zm1.1484-5.8594c0.5625-0.65234 1.5508-0.72656 2.2031-0.16406 0.91406 0.78125 1.4766 0.67187 1.6641 0.63281 0.97656-0.19531 1.875-1.4062 2.2734-2.0703l2.2578 2.2578c-0.89844 1.4102-2.293 2.4375-3.9062 2.875-0.28516 0.058594-0.57422 0.085938-0.86719 0.085938-1.2852-0.03125-2.5156-0.53516-3.4531-1.4141-0.65234-0.55859-0.72656-1.5391-0.17187-2.1953zm9.2969-5.0312c-0.57031-0.011719-1.0898-0.33594-1.3516-0.84375s-0.22656-1.1211 0.09375-1.5938c1.3594-1.8711 2.0273-4.1523 1.8906-6.4609-0.12109-0.86328 0.48047-1.6602 1.3438-1.7812 0.86328-0.12109 1.6602 0.48047 1.7812 1.3438 0.24609 3.1094-0.63672 6.1992-2.4844 8.7109-0.30078 0.39844-0.77344 0.63281-1.2734 0.625zm0.96875-15.242c-0.070312 0.4375-0.32031 0.82422-0.6875 1.0625-0.37109 0.24219-0.82422 0.31641-1.2539 0.20313-0.42578-0.10938-0.78516-0.39844-0.98828-0.78906s-0.23047-0.85156-0.078125-1.2656c1.3281-4.875-1.5625-7.5156-1.6875-7.625-0.55469-0.58594-0.57422-1.4961-0.046875-2.1055 0.53125-0.60938 1.4414-0.71094 2.0938-0.23828 0.17969 0.14062 4.5078 3.9531 2.6484 10.789zm-3.7891 10.297c-0.21484 0.83594-1.0703 1.3398-1.9062 1.125-0.83594-0.21484-1.3398-1.0703-1.125-1.9062 0.78125-3.2812-3.1953-6.4844-3.2344-6.5234-0.64062-0.54297-0.73828-1.4922-0.22266-2.1523 0.51953-0.66016 1.4648-0.79688 2.1445-0.30859 0.25 0.20313 5.6719 4.5 4.3438 9.7656zm-7.7031 1.0391c-0.023437 0.94922-0.16016 1.8945-0.39844 2.8125-0.22656 0.83203-1.0859 1.3242-1.918 1.0977-0.83203-0.22656-1.3242-1.0859-1.0977-1.918 0.39844-1.7578 0.42188-3.5781 0.070313-5.3438zm-10.852-42.969c0.30469-0.45703 0.82031-0.73438 1.3711-0.73438 0.55078 0 1.0664 0.27734 1.3711 0.73438 0.070312 0.10938 0.13672 0.22656 0.19531 0.34375v30.258l-3.125-3.125v-27.172c0.054688-0.12109 0.11719-0.23828 0.1875-0.35156zm35.578 63.281l-8.7344-8.7578c2.7812-4.6406 4.2109-10.609 4.2109-17.852 0-16.742-7.3594-29.281-19.68-33.594-2.4922-0.90625-5.0391-2.4219-5.25-3.125-0.16406-0.61328-0.42969-1.1914-0.78125-1.7188-0.88281-1.3516-2.3867-2.168-4-2.168-1.6133 0-3.1172 0.81641-4 2.168-0.35156 0.52344-0.61719 1.1016-0.78125 1.7109-0.21094 0.71094-2.7656 2.2344-5.2344 3.125-3.6797 1.2891-7.0234 3.3906-9.7812 6.1484l-12.211-12.18c11.973-11.086 28.852-15.148 44.559-10.723 15.707 4.4258 27.98 16.699 32.406 32.406 4.4258 15.707 0.36328 32.586-10.723 44.559z"/>
</g></svg>
