<?xml version="1.0" encoding="UTF-8"?>
<svg width="100pt" height="100pt" version="1.1" viewBox="0 0 100 100" xmlns="http://www.w3.org/2000/svg"><g fill="#1C1C1C" stroke="#1C1C1C" stroke-width="2.5" fill-rule="evenodd">
 <path d="m50 0c-13.262 0-25.98 5.2695-35.355 14.645s-14.645 22.094-14.645 35.355 5.2695 25.98 14.645 35.355 22.094 14.645 35.355 14.645 25.98-5.2695 35.355-14.645 14.645-22.094 14.645-35.355c-0.015625-13.258-5.2852-25.965-14.66-35.34s-22.082-14.645-35.34-14.66zm-46.875 50c-0.015625-11.902 4.5156-23.359 12.664-32.031l22.492 22.539c-1.4844 1.2969-3.6016 2.9375-5.2031 3.4766-0.5625 0.1875-1.1016 0.35156-1.625 0.50781-2.4062 0.73437-4.6875 1.4297-6.9453 3.7031-3.4492 3.6406-5.3281 8.4922-5.2344 13.504 0.09375 5.0156 2.1523 9.793 5.7344 13.305 3.582 3.5078 8.3984 5.4727 13.414 5.4648h0.11719c6.8359-0.5 16.477-6.8125 24.859-14.844l18.633 18.586c-8.9453 8.3711-20.812 12.91-33.062 12.641-12.246-0.26953-23.902-5.3242-32.473-14.082-8.5664-8.7539-13.367-20.52-13.371-32.77zm44.375-16.461c0.16406-0.48437 0.29688-0.9375 0.4375-1.3906 0.67578-0.097657 1.3594 0.10547 1.875 0.55469 1.75 1.7109-0.59375 6.8125-5.1797 11.383-4.5859 4.5703-9.6719 6.8906-11.383 5.1719-0.44922-0.51562-0.65234-1.1992-0.55469-1.875 0.45313-0.14062 0.90625-0.28125 1.3906-0.4375 3.3594-1.1172 7.4062-5.1016 7.8516-5.5547s4.4375-4.4922 5.5625-7.8516zm36.719 48.438l-18.594-18.578c8.2812-8.5 14.844-18.422 15.383-25.406v-0.11719c0-5.0156-1.9727-9.8281-5.4883-13.402-3.5195-3.5781-8.2969-5.6289-13.312-5.7148-5.0117-0.082031-9.8594 1.8047-13.496 5.2578-2.2422 2.2422-2.9375 4.5156-3.6719 6.9141-0.15625 0.52344-0.32031 1.0625-0.50781 1.625-0.60938 1.8203-2.6562 4.3125-3.9922 5.7812l-22.57-22.547c11.973-11.086 28.852-15.148 44.559-10.723 15.707 4.4258 27.98 16.699 32.406 32.406 4.4258 15.707 0.36328 32.586-10.723 44.559z"/>
</g></svg>
