<?xml version="1.0" encoding="UTF-8"?>
<svg width="100pt" height="100pt" version="1.1" viewBox="0 0 100 100" xmlns="http://www.w3.org/2000/svg"><g fill="#1C1C1C" stroke="#1C1C1C" stroke-width="2.5" fill-rule="evenodd">
 <path d="m96.059 48.941-12.75-12.738v-18.02c0-0.82812-0.67188-1.5-1.5-1.5h-18.012l-12.738-12.738c-0.58984-0.58984-1.5391-0.58984-2.1289 0l-12.738 12.738h-18.012c-0.82813 0-1.5 0.67188-1.5 1.5v18.02l-12.75 12.738c-0.57813 0.57812-0.57813 1.5312 0 2.1211l12.75 12.738v18.02c0 0.82813 0.67187 1.5 1.5 1.5h18.012l12.738 12.738c0.30078 0.28906 0.67969 0.44141 1.0703 0.44141s0.76172-0.14844 1.0586-0.44141l12.738-12.738h18.012c0.82812 0 1.5-0.67187 1.5-1.5v-18.02l12.75-12.738c0.28125-0.28125 0.44141-0.66016 0.44141-1.0586 0-0.39844-0.16016-0.78125-0.44141-1.0586zm-18.418 2.7695c-0.17188 0.48047-0.57031 0.85156-1.0586 0.96875-4.5898 1.1094-9.2812 2.0195-13.949 2.6992-1.5586 0.23047-3.1719 0.42969-4.7812 0.42969-1.1484 0-2.3086-0.10938-3.4492-0.37891-0.058594 0.12109-0.12891 0.23047-0.21094 0.35156-0.050781 0.070312-0.078125 0.14062-0.12891 0.19922-0.019531 0.03125-0.050781 0.050781-0.070312 0.078125-0.03125 0.03125-0.058594 0.070312-0.10156 0.10156-0.67969 0.76953-1.5586 1.1484-2.4414 1.4414-2.5586 0.82813-5.25 1.25-7.9414 1.25-1.2695 0-2.5312-0.089843-3.7891-0.28125-0.82031-0.12109-1.3789-0.89062-1.2617-1.7109 0.12891-0.80859 0.89062-1.3789 1.7109-1.2617 3.25 0.48828 6.6016 0.25 9.75-0.67969-5.4492-4.2188-8.4414-11.738-8.7695-16.07-0.070313-0.82031 0.55078-1.5508 1.3789-1.6094 0.82031-0.058593 1.5508 0.55078 1.6094 1.3789 0.28906 3.8281 3.1602 10.488 7.7188 14 0-0.089844-0.011719-0.17969-0.019531-0.25l-1.1914-15.32c-0.070312-0.82812 0.55078-1.5508 1.3711-1.6094 0.82031-0.070312 1.5508 0.55078 1.6211 1.3789l1.1914 15.309c0.011719 0.10156 0.019531 0.21094 0.03125 0.30859 2.2891 0.60938 4.8711 0.32812 7.3281-0.03125 3.7617-0.55078 7.5391-1.2383 11.25-2.0781-1.7305-1.7695-3.7617-3.25-5.9805-4.3398-0.76172-0.37891-1.6602-0.76953-2.5-0.76953h-0.03125c-1.3711 0.011718-2.6719 1.0117-4.1016 2.2109-0.64062 0.53906-1.5898 0.44922-2.1211-0.17969-0.53125-0.64062-0.44922-1.5781 0.19141-2.1094 1.3711-1.1484 3.4414-2.8906 5.9883-2.9219 1.5117 0.011718 2.8086 0.53906 3.9102 1.0781 3.3281 1.6484 6.3008 4.0703 8.6016 6.9883 0.32031 0.39844 0.41016 0.94141 0.23828 1.4219zm-19.852 14.539c-5.1484-0.12891-10.359 0.039062-15.488 0.51172h-0.14062c-0.76953 0-1.4219-0.58984-1.4883-1.3711-0.078125-0.82031 0.53125-1.5508 1.3516-1.6289 5.25-0.48047 10.578-0.64844 15.852-0.51953 0.82812 0.03125 1.4805 0.71094 1.4609 1.5391-0.019532 0.82812-0.75 1.5117-1.5391 1.4609zm-22.258-10.27c-0.69141 0.89844-1.6602 1.3086-2.6094 1.6211-2.5508 0.82813-5.2383 1.25-7.9297 1.25-1.2695 0-2.5391-0.089843-3.7891-0.28125-0.82031-0.12109-1.3906-0.89062-1.2617-1.7109 0.12109-0.80859 0.87891-1.3789 1.6992-1.2617 3.4609 0.53125 7.0312 0.23047 10.359-0.85156 0.46094-0.14844 0.96094-0.33984 1.1484-0.58984 0.28125-0.35938 0.21094-1.2617 0.17187-1.7891l-1.1992-15.32c-0.058594-0.82812 0.55078-1.5508 1.3789-1.6094 0.83984-0.058594 1.5508 0.55078 1.6094 1.3789l1.1992 15.309c0.070312 0.96875 0.19922 2.5781-0.78125 3.8516z"/>
</g></svg>
