<?xml version="1.0" encoding="UTF-8"?>
<svg width="100pt" height="100pt" version="1.1" viewBox="0 0 100 100" xmlns="http://www.w3.org/2000/svg"><g fill="#1C1C1C" stroke="#1C1C1C" stroke-width="2.5" fill-rule="evenodd">
 <path d="m68.719 68.508h-37.438c-0.51953-0.003906-1.0039-0.28125-1.2656-0.73437-0.26172-0.45313-0.26172-1.0117 0-1.4648l18.715-32.422c0.26172-0.45312 0.74609-0.73438 1.2695-0.73438s1.0078 0.28125 1.2695 0.73438l18.719 32.422h-0.003906c0.26172 0.45312 0.26172 1.0117 0.003906 1.4648-0.26172 0.45312-0.74609 0.73047-1.2695 0.73437zm-34.898-2.9297h32.359l-16.18-28.023z"/>
 <path d="m50 78.711c-0.52344 0-1.0078-0.27734-1.2695-0.73438l-18.715-32.422c-0.26172-0.44922-0.26172-1.0078 0-1.4609s0.74609-0.73438 1.2656-0.73438h37.438c0.51953 0 1.0039 0.28125 1.2656 0.73438s0.26172 1.0117 0 1.4609l-18.719 32.422c-0.25781 0.45703-0.74219 0.73438-1.2656 0.73438zm-16.18-32.422 16.18 28.023 16.18-28.023z"/>
 <path d="m50 84.445c-15.723 0-28.516-12.789-28.516-28.516 0-15.723 12.789-28.516 28.516-28.516s28.516 12.789 28.516 28.516c0 15.727-12.797 28.516-28.516 28.516zm0-54.102c-14.105 0-25.586 11.477-25.586 25.586 0 14.109 11.477 25.586 25.586 25.586s25.586-11.477 25.586-25.586c0-14.109-11.48-25.578-25.586-25.578z"/>
 <path d="m50 96.387c-22.305 0-40.453-18.148-40.453-40.453-0.023437-10.68 4.1992-20.926 11.742-28.488 0.26953-0.28906 0.64844-0.46094 1.043-0.46875 0.39844-0.007812 0.78125 0.14453 1.0625 0.42578 0.28516 0.28125 0.44141 0.66406 0.43359 1.0586-0.003906 0.39844-0.17188 0.77734-0.46094 1.0469v0.003907c-6.9922 7.0117-10.914 16.516-10.891 26.422 0 20.691 16.836 37.523 37.523 37.523s37.523-16.832 37.523-37.523c-0.003907-7.2578-2.1133-14.363-6.0664-20.449-3.957-6.0859-9.5898-10.898-16.223-13.852-0.72266-0.33984-1.0391-1.1914-0.71484-1.9219 0.32422-0.72656 1.1719-1.0625 1.9062-0.75391 7.1484 3.1836 13.223 8.3711 17.488 14.934 4.2617 6.5586 6.5352 14.219 6.5391 22.043 0 22.309-18.148 40.453-40.453 40.453z"/>
 <path d="m26 30.359c-8.5391 0-15.492-6-15.492-13.367 0-7.3672 6.9531-13.379 15.492-13.379 6.0234 0 11.547 3.0469 14.062 7.7656v-0.003906c0.054688 0.10938 0.15625 0.17969 0.27344 0.19531 2.082 0.44531 4.2109 0.65625 6.3438 0.64063h38.039c1.2812-0.027344 2.5195 0.46484 3.4375 1.3633 0.91797 0.89844 1.4336 2.1289 1.4336 3.4102 0 1.2852-0.51562 2.5117-1.4336 3.4102-0.91797 0.89844-2.1562 1.3906-3.4375 1.3633h-38.039c-2.1289-0.015624-4.25 0.19531-6.332 0.63281-0.11719 0.015625-0.21875 0.089844-0.26953 0.19531-2.5312 4.7266-8.0469 7.7734-14.078 7.7734zm0-23.812c-6.9258-0.003906-12.562 4.6797-12.562 10.445 0 5.7656 5.6367 10.441 12.562 10.441 4.957 0 9.4688-2.4375 11.484-6.2148h0.003906c0.45312-0.86328 1.2656-1.4805 2.2188-1.6875 2.293-0.48438 4.6289-0.71875 6.9727-0.70312h38.039c0.49609 0.019531 0.98438-0.16797 1.3398-0.51562 0.35938-0.34766 0.5625-0.82812 0.5625-1.3281s-0.20312-0.97656-0.5625-1.3242c-0.35547-0.34766-0.84375-0.53516-1.3398-0.51953h-38.039c-2.3398 0.019531-4.6758-0.21484-6.9688-0.69922-0.94922-0.20312-1.7617-0.82031-2.2188-1.6836-2.0234-3.7734-6.5312-6.2148-11.492-6.2148z"/>
</g></svg>
