<?xml version="1.0" encoding="UTF-8"?>
<svg width="100pt" height="100pt" version="1.1" viewBox="0 0 100 100" xmlns="http://www.w3.org/2000/svg"><g fill="#1C1C1C" stroke="#1C1C1C" stroke-width="2.5" fill-rule="evenodd">
 <path d="m89.578 44.73c-0.26172-0.19141-0.60156-0.23828-0.89844-0.14062l-35.68 11.871c-1.2383-5.1094-5.8516-8.9219-11.328-8.9219-1.4492 0-2.8398 0.28125-4.1289 0.76953-4.8281-2.3516-10.789-2.4102-15.68-0.12891-4.5898 2.1406-7.8008 6.0703-9.1406 11.078l-1.7227 0.003907c-0.32031 0-0.62109 0.14844-0.80859 0.42188-0.19141 0.26172-0.23828 0.60156-0.14062 0.89844l2.5117 7.5c1.8281 5.4609 6.9297 9.1289 12.691 9.1289h17.848c4 0 7.9219-1.1016 11.32-3.1914l32.688-20.02c1.7812-1.0781 2.8906-3.0586 2.8906-5.1602v-3.3008c0-0.32031-0.14844-0.61719-0.42188-0.80859zm-47.906 4.8086c5.3281 0 9.6719 4.3398 9.6719 9.6719 0 5.3281-4.3398 9.6719-9.6719 9.6719-5.3281 0-9.6719-4.3398-9.6719-9.6719 0-5.332 4.3281-9.6719 9.6719-9.6719zm-18.961 0.44922c3.8789-1.8086 8.5117-1.9609 12.512-0.5-3.1523 2.1016-5.2227 5.6719-5.2227 9.7227v0.050781h-15.199c1.2578-4.1914 4.0195-7.4609 7.9102-9.2734zm65.289-1.1484c0 1.3984-0.73828 2.7188-1.9297 3.4492l-32.691 20.031c-3.0898 1.8906-6.6406 2.8906-10.281 2.8906h-17.848c-4.8984 0-9.2383-3.1211-10.789-7.7695l-2.0703-6.1797h17.801c0.96875 5.4609 5.75 9.6211 11.48 9.6211 6.4414 0 11.672-5.2383 11.672-11.672 0-0.25-0.019531-0.5-0.039062-0.75l34.695-11.531z"/>
 <path d="m53.25 31.238c-0.011719-0.03125-0.03125-0.058593-0.050781-0.089843-0.058594-0.10156-0.12109-0.17969-0.21094-0.25-0.019531-0.011719-0.019531-0.039063-0.039062-0.050782-0.011719-0.011718-0.019531-0.011718-0.03125-0.011718-0.10156-0.070313-0.21094-0.12891-0.33984-0.16016l-10.16-2.5117c-0.16016-0.039062-0.32031-0.039062-0.48047 0l-4.6484 1.1484v-3.0195-0.011719c0-0.14062-0.039062-0.26953-0.10156-0.39062-0.019531-0.03125-0.039062-0.058594-0.050781-0.10156-0.050781-0.089843-0.12109-0.17187-0.19922-0.23828-0.019531-0.019531-0.03125-0.039062-0.050781-0.058593-0.011719-0.011719-0.019531-0.011719-0.03125-0.011719-0.10156-0.070313-0.21094-0.12891-0.32812-0.16016l-0.050782-0.011718h-0.019531l-10.102-2.4883c-0.16016-0.039062-0.32031-0.039062-0.48047 0l-10.16 2.5117c-0.12891 0.03125-0.23828 0.089844-0.33984 0.16016-0.011719 0.011718-0.019531 0.011718-0.03125 0.011718-0.019531 0.011719-0.019531 0.039063-0.039062 0.050782-0.078126 0.070312-0.14844 0.16016-0.21094 0.25-0.019531 0.03125-0.039062 0.058593-0.050781 0.089843-0.050781 0.12109-0.089844 0.25-0.089844 0.39062v0.011719 0.011719 10.16c0 0.44922 0.30078 0.83984 0.73047 0.96094l10.109 2.8281c0.011719 0 0.019531 0.011719 0.03125 0.011719l0.019531 0.011719c0.03125 0.011719 0.058594 0.011719 0.10156 0.011719 0.058594 0.011719 0.12109 0.03125 0.17969 0.03125 0.089844 0 0.17969-0.011719 0.26953-0.039063l4.6211-1.2891v2.8281c0 0.44922 0.30078 0.83984 0.73047 0.96094l10.16 2.8398c0.089844 0.019531 0.17969 0.039062 0.26953 0.039062 0.089844 0 0.17969-0.011718 0.26953-0.039062l10.16-2.8398c0.42969-0.12109 0.73047-0.51172 0.73047-0.96094l0.003906-10.184v-0.011719-0.011718c0-0.12891-0.039063-0.25781-0.089844-0.37891zm-28.121 6.7422-8.1602-2.2812v-8.0781l8.1602 2.2812zm1-9.8789-6.2305-1.7383 6.2305-1.5391 6.2305 1.5391zm5.3125 2.7266c-0.011718 0.011719-0.019531 0.011719-0.03125 0.011719-0.019531 0.011718-0.019531 0.039062-0.039062 0.050781-0.078125 0.070313-0.14844 0.16016-0.21094 0.25-0.019531 0.03125-0.039062 0.058594-0.050781 0.089844-0.050781 0.12109-0.089844 0.25-0.089844 0.39062v0.011718 0.011719 5.2617l-3.8906 1.0898v-8.0898l8.1602-2.2812v2.1914l-3.5117 0.87109c-0.12891 0.011719-0.23828 0.074219-0.33594 0.14062zm9.7383 12.5-8.1602-2.2812v-8.0781l8.1602 2.2812zm1-9.8789-3.8789-1.0898-2.3516-0.66016 6.2305-1.5391 6.2305 1.5391-1.3281 0.37109zm9.1602 7.6016-8.1602 2.2812v-8.0781l8.1602-2.2812z"/>
 <path d="m36.129 64.75c0.19922 0.19922 0.44922 0.28906 0.71094 0.28906 0.26172 0 0.51172-0.10156 0.71094-0.28906l4.1211-4.1211 4.1211 4.1211c0.19922 0.19922 0.44922 0.28906 0.71094 0.28906 0.26172 0 0.51172-0.10156 0.71094-0.28906 0.39062-0.39062 0.39062-1.0195 0-1.4102l-4.1211-4.1211 4.1211-4.1211c0.39062-0.39062 0.39062-1.0195 0-1.4102s-1.0195-0.39062-1.4102 0l-4.1211 4.1211-4.1211-4.1211c-0.39062-0.39062-1.0195-0.39062-1.4102 0s-0.39062 1.0195 0 1.4102l4.1211 4.1211-4.1211 4.1211c-0.41406 0.39062-0.41406 1.0195-0.023438 1.4102z"/>
</g></svg>
