<?xml version="1.0" encoding="UTF-8"?>
<svg xmlns="http://www.w3.org/2000/svg" version="1.1" viewBox="95.40318 -0.64142 8.51444 8.51444" width="100" height="100"><defs><clipPath id="c"><rect x="93.333331" y="0.000000" width="13.333333" height="12.965334" /></clipPath></defs><g fill="#1C1C1C" stroke="none" stroke-width="2.5" clip-path="url(#c)"><path id="path38" d="m 735.867,966.547 v -9.965 l -0.894,-0.902 c -3.11,0 -5.625,-2.52 -5.625,-5.617 V 921.48 l 1.211,-1.214 h 17.632 l 1.223,1.214 v 28.583 c 0,3.097 -2.519,5.617 -5.625,5.617 l -0.898,0.902 v 9.965 z m 12.324,-48.086 h -17.632 c -1.664,0 -3.02,1.355 -3.02,3.019 v 28.583 c 0,3.789 2.859,6.925 6.524,7.363 v 10.027 l 0.91,0.899 h 8.816 l 0.899,-0.899 v -10.027 c 3.671,-0.438 6.523,-3.574 6.523,-7.363 V 921.48 c 0,-1.664 -1.348,-3.019 -3.02,-3.019" transform="matrix(0.13333333,0,0,-0.13333333,0,129.65333)" />
      <path id="path39" d="m 734.758,968.352 h 9.234 v 1.945 h -9.234 z m 9.375,-1.805 h -9.516 c -0.918,0 -1.656,0.75 -1.656,1.66 v 2.238 c 0,0.914 0.738,1.657 1.656,1.657 h 9.516 c 0.918,0 1.66,-0.743 1.66,-1.657 v -2.238 c 0,-0.91 -0.742,-1.66 -1.66,-1.66" transform="matrix(0.13333333,0,0,-0.13333333,0,129.65333)" />
      <path id="path40" d="m 729.348,927.289 h 20.066 v 19.27 h -20.066 z m 20.965,-1.801 h -21.868 l -0.906,0.899 v 21.07 l 0.906,0.902 h 21.868 l 0.898,-0.902 v -21.07 l -0.898,-0.899" transform="matrix(0.13333333,0,0,-0.13333333,0,129.65333)" />
      <path id="path41" d="M 733.75,931.535 H 745 v 10.774 h -11.25 z m 12.156,-1.805 h -13.054 l -0.899,0.907 v 12.578 l 0.899,0.898 h 13.054 l 0.903,-0.898 v -12.578 l -0.903,-0.907" transform="matrix(0.13333333,0,0,-0.13333333,0,129.65333)" />
      <path id="path42" d="m 763.809,935.367 0.664,-0.109 c 1.289,0 2.336,1.047 2.336,2.336 0,0.965 -0.625,1.844 -1.543,2.176 l -0.586,0.847 v 0.09 l -1.36,1.32 -0.625,0.297 -0.234,0.656 0.019,0.157 c 0,1.121 -0.925,2.054 -2.082,2.054 -1.121,0 -2.031,-0.882 -2.07,-2.015 l -0.359,-0.696 -0.762,-0.144 -0.422,0.062 -1.648,-1.507 h 7.761 l 0.911,-0.907 z m 0.664,-1.91 -2.012,0.539 -0.457,0.785 v 4.305 h -7.649 l -0.859,0.633 -0.168,1.023 c 0,1.871 1.496,3.399 3.352,3.457 0.468,1.625 1.953,2.793 3.718,2.793 1.946,0 3.567,-1.441 3.84,-3.308 1.121,-0.36 1.961,-1.301 2.188,-2.461 1.316,-0.711 2.179,-2.106 2.179,-3.629 0,-2.281 -1.859,-4.137 -4.132,-4.137" transform="matrix(0.13333333,0,0,-0.13333333,0,129.65333)" />
      <path id="path43" d="m 764.609,923.359 h -1.894 l -0.899,0.899 0.899,0.902 h 1.894 l 0.879,0.879 v 8.953 l 0.899,0.903 0.898,-0.903 v -8.953 c 0,-1.476 -1.199,-2.68 -2.676,-2.68" transform="matrix(0.13333333,0,0,-0.13333333,0,129.65333)" />
      <path id="path44" d="m 766.711,918.461 h -39.504 l -0.906,0.906 0.906,0.899 h 39.504 l 0.894,-0.899 -0.894,-0.906" transform="matrix(0.13333333,0,0,-0.13333333,0,129.65333)" />
      <path id="path45" d="m 750.957,920.266 h 5.496 c 3.059,0 5.551,2.488 5.551,5.547 v 13.273 H 751.211 V 921.48 Z m 5.496,-1.805 h -8.262 l -0.894,0.906 0.894,0.899 1.223,1.214 v 18.504 l 0.899,0.907 h 12.585 l 0.911,-0.907 v -14.171 c 0,-4.055 -3.301,-7.352 -7.356,-7.352" transform="matrix(0.13333333,0,0,-0.13333333,0,129.65333)" />
      <path id="path46" d="m 759.211,959.27 c -1.606,-0.059 -2.895,-1.348 -2.949,-2.95 z m -3.469,-5.645 -0.156,0.008 -0.664,0.504 -0.457,2.07 c 0,2.68 2.176,4.863 4.859,4.863 l 2.071,-0.465 0.5,-0.66 -0.247,-0.789 -5.269,-5.269 z m 6.641,2.469 -2.949,-2.949 c 1.601,0.058 2.89,1.347 2.949,2.949 z m -3.059,-4.75 -2.066,0.465 -0.512,0.656 0.258,0.793 5.269,5.273 0.793,0.25 0.657,-0.504 0.465,-2.07 c 0,-2.68 -2.176,-4.863 -4.864,-4.863 z m 0,10.613 c -3.172,0 -5.75,-2.582 -5.75,-5.75 0,-3.168 2.578,-5.754 5.75,-5.754 3.176,0 5.754,2.586 5.754,5.754 0,3.168 -2.578,5.75 -5.754,5.75 z m 0,-13.301 c -4.168,0 -7.547,3.387 -7.547,7.551 0,4.164 3.379,7.555 7.547,7.555 4.16,0 7.551,-3.391 7.551,-7.555 0,-4.164 -3.391,-7.551 -7.551,-7.551" transform="matrix(0.13333333,0,0,-0.13333333,0,129.65333)" />
      <path id="path47" d="m 739.375,938.734 c -0.996,0 -1.809,-0.812 -1.809,-1.808 0,-1.004 0.813,-1.817 1.809,-1.817 1.008,0 1.816,0.813 1.816,1.817 0,0.996 -0.808,1.808 -1.816,1.808 z m 0,-5.421 c -1.992,0 -3.613,1.621 -3.613,3.613 0,1.992 1.621,3.613 3.613,3.613 1.992,0 3.613,-1.621 3.613,-3.613 0,-1.992 -1.621,-3.613 -3.613,-3.613" transform="matrix(0.13333333,0,0,-0.13333333,0,129.65333)" />
      </g></svg>