<?xml version="1.0" encoding="UTF-8"?>
<svg width="100pt" height="100pt" version="1.1" viewBox="0 0 100 100" xmlns="http://www.w3.org/2000/svg"><g fill="#1C1C1C" stroke="#1C1C1C" stroke-width="2.5" fill-rule="evenodd">
 <path d="m76.059 24.027c-0.10156-0.39844-0.40625-0.71875-0.79688-0.84375-5.7188-1.7812-10.738-2.0898-14.918-0.91016-4.2266 1.1953-7.4922 4.25-8.5156 7.9727-0.78906 2.8672-0.078125 5.7383 1.9492 7.875 0.84375 0.89062 1.9297 1.5664 2.9688 2.0312-6.8789 7.7383-10.887 14.824-13.215 20.508-1.5859-3.1133-3.5078-5.9453-5.3789-8.4766 0.69531-0.20703 1.3984-0.5 2.0156-0.93359 1.9219-1.3398 2.9297-3.4609 2.7773-5.8164-0.19922-3.0273-2.2188-5.8906-5.2734-7.4727-2.9805-1.543-6.8203-2.0938-11.402-1.6367-0.41016 0.039062-0.77344 0.29297-0.95312 0.66406-2.0078 4.1484-2.8125 7.9375-2.3906 11.266 0.43359 3.4102 2.4219 6.293 5.1953 7.5234 0.88672 0.39453 1.8047 0.58984 2.7109 0.58984 1.3008 0 2.5781-0.40234 3.707-1.1914 0.65234-0.45703 1.1992-1.0547 1.6445-1.6719 2.2227 3 4.5234 6.4648 6.1875 10.254-1.957 5.7969-2.0703 9.625-2.0703 10.414 0 1.4453 0.41016 2.6094 1.1875 3.3594 0.60156 0.58203 1.3945 0.89062 2.2969 0.89062h0.13672c2.1953-0.074219 3.2188-2.2422 3.2422-3.7617 0.058594-3.8789-0.84375-7.5781-2.25-11.012 2.0391-5.6758 5.9414-13.223 13.387-21.66 0.40234 0.94531 0.95312 1.9062 1.6953 2.6914 1.5938 1.6797 3.6758 2.5703 5.9062 2.5703 0.60938 0 1.2344-0.066406 1.8594-0.20312 3.7734-0.82422 7-3.918 8.418-8.0781 1.3867-4.1055 1.3516-9.1328-0.12109-14.941zm-41.012 25.898c-0.26562 0.1875-1.1797-0.085937-1.875-1.0781-0.69531-0.99609-0.63281-1.9453-0.36719-2.1328 0.050781-0.035156 0.125-0.054688 0.21875-0.054688 0.39062 0 1.0938 0.32812 1.6562 1.1328 0.69531 0.99609 0.63281 1.9453 0.36719 2.1328zm-1.875 3.3086c-1.2383 0.86328-2.6914 1-4.0898 0.37891-1.9844-0.88281-3.4766-3.0977-3.8008-5.6484-0.34375-2.707 0.28906-5.8438 1.8867-9.3242 3.8203-0.29688 6.9805 0.1875 9.4062 1.4414 2.2812 1.1836 3.8516 3.3477 3.9922 5.5156 0.10156 1.5273-0.52344 2.8438-1.7656 3.7109-0.33594 0.23438-0.77344 0.43359-1.2422 0.58594 0.15625-1.0703-0.13672-2.3242-0.92578-3.457-1.3906-1.9922-3.6719-2.7227-5.1875-1.6641-1.5156 1.0586-1.6133 3.4492-0.22266 5.4414 0.78906 1.1289 1.8633 1.8438 2.9219 2.0703-0.30469 0.37891-0.64062 0.71875-0.97266 0.94922zm10.66 22.816c-0.42188 0.019531-0.59375-0.11719-0.69531-0.21875-0.29297-0.28516-0.46094-0.88672-0.46094-1.6484 0-0.59375 0.070313-3.0039 1.0469-6.7422 0.69141 2.3125 1.0898 4.7188 1.0547 7.1914-0.003906 0.011719-0.12109 1.3906-0.94531 1.418zm19.457-42.066c0.24219-0.042969 0.84766-0.10156 1.168 0.23438 0.32031 0.33594 0.22656 0.9375 0.17188 1.1797-0.15234 0.67969-0.60156 1.4102-1.2227 2.0039-1.2266 1.1641-2.7188 1.4219-3.2344 0.87891s-0.17578-2.0195 1.0508-3.1836c0.625-0.58984 1.3789-0.99609 2.0664-1.1133zm10.625 4.2227c-1.1328 3.3242-3.7539 5.8828-6.6758 6.5234-2.1055 0.46094-4.0664-0.13672-5.5273-1.6797-0.51563-0.54688-0.96875-1.3281-1.3086-2.1641 0.18359 0.027343 0.37109 0.050781 0.5625 0.050781 1.3359 0 2.8281-0.61719 4.0781-1.8047 0.97266-0.92187 1.6484-2.0586 1.9102-3.207 0.29297-1.2969 0.011719-2.5156-0.76562-3.3359-0.78125-0.82422-1.9844-1.168-3.293-0.94531-1.1562 0.19531-2.332 0.8125-3.3047 1.7344-1.4336 1.3594-2.1211 3.0703-1.9922 4.543-0.82031-0.38281-1.5781-0.87891-2.0977-1.4297-1.4609-1.543-1.9531-3.5352-1.3828-5.6094 0.79297-2.8828 3.4922-5.3594 6.8711-6.3125 1.4531-0.41016 3.0312-0.61328 4.7305-0.61328 2.4844 0 5.2266 0.4375 8.1953 1.3125 1.1992 5.0664 1.1992 9.418 0 12.938z"/>
</g></svg>
