<?xml version="1.0" encoding="UTF-8"?>
<svg width="100pt" height="100pt" version="1.1" viewBox="0 0 100 100" xmlns="http://www.w3.org/2000/svg"><g fill="#1C1C1C" stroke="#1C1C1C" stroke-width="2.5" fill-rule="evenodd">
 <path d="m44.062 93.051c-0.11719-0.050781-0.22656-0.11328-0.32812-0.19141v0.03125c-1.4688-1.1758-2.4531-2.8398-3.082-4.6016-1.1328-3.1797-1.1055-6.6641-1.1289-7.582-0.039063-1.4883 0.066406-2.6172 0.26953-3.5938 0.66016-3.1992 2.5391-4.5508 4.2734-12.395 0.52734-2.375 2.0664-4.0078 2.957-6.5078 0.25781-0.73047 0.44922-1.5547 0.50781-2.5195 0.21484-3.3867 0.65625-5.3945 1.4414-6.9102 1.2344-2.3906 3.4023-3.5586 7.4414-7.0312 0.61719-0.53125 1.3477-0.94141 2.1484-1.2656 1.2461-0.50781 2.6836-0.80469 4.0742-1.1523 1.1602-0.29297 2.293-0.60547 3.1562-1.2539 2.2578-1.6914 3.5469-2.6445 4.8633-2.9844 1.457-0.37109 3.0156-0.09375 5.9141 1.082 1.5547 0.62891 3.6875 0.42578 5.8867 0.34766 2.4688-0.089844 5.0039-0.082032 7.1289 0.73047 2 0.76562 3.6875 2.1836 4.7109 4.8086 0.48438 1.2383 0.51172 5.0234 0.19531 9.5742-0.60938 8.8477-2.2188 20.781-2.2422 20.902-0.42188 2.293-1.3828 3.4531-2.457 4.1523-0.80469 0.52344-1.707 0.76953-2.5938 0.96484-0.39453 0.085938-0.77734 0.16406-1.1289 0.28906-0.27344 0.09375-0.52734 0.21094-0.67578 0.5-1.8438 3.6719-3.8477 5.5117-5.7148 6.4336-2.3281 1.1523-4.5117 0.91406-6.1797 0.69141-0.45312-0.058593-1.0781-0.085937-1.2422-0.09375-1.6836 1.4023-3.0938 1.6211-4.3633 1.5938-0.79297-0.015624-1.5078-0.21875-2.2227-0.066406-0.4375 0.09375-0.83594 0.40234-1.3047 1.0352-1.832 2.4766-2.9375 3.6523-4.5547 4.0469-1.1289 0.26953-2.5742 0.14844-4.8711-0.37891-0.54688 0.74219-1.6523 1.8672-3.6367 2.3398-1.3125 0.3125-3.0547 0.34375-5.3359-0.32422-0.30469 0.16406-0.66797 0.21094-1.0234 0.10938-0.41406-0.11719-0.72656-0.41406-0.88281-0.78125zm3.3359-1.7852c1.3477 0.30859 2.4141 0.29688 3.2539 0.089844 1.9805-0.48047 2.5273-2.0625 2.582-2.1289 0.34375-0.41016 0.89062-0.58984 1.4062-0.46094 2.2227 0.53516 3.5117 0.81641 4.4961 0.57031 0.42578-0.10156 0.75391-0.34375 1.1094-0.69922 0.53906-0.53906 1.0898-1.2969 1.8164-2.2891 1.0312-1.4141 2.0352-1.9414 3-2.1523 0.76172-0.16797 1.5234-0.10156 2.332-0.042968 0.87891 0.066406 1.8516 0.078125 3.0664-0.97656 0.58203-0.50391 1.4453-0.70703 2.5859-0.60547 1.3008 0.11719 3.2383 0.69531 5.3125-0.34375 1.4531-0.73047 2.9258-2.25 4.3516-5.1211 0.58594-1.1719 1.5117-1.7461 2.6289-2.0898 0.87891-0.26953 1.9375-0.29297 2.7969-0.85938 0.54297-0.35156 0.91406-1.0039 1.1211-2.1602 0.023438-0.12109 1.5586-11.863 2.1406-20.57 0.15625-2.3633 0.24219-4.5039 0.20703-6.1094-0.023438-0.98047-0.0625-1.7266-0.21484-2.1211-0.42188-1.0781-1.0195-1.8359-1.7344-2.3672-2.3672 2.2695-4.5039 4.3203-6.4297 6.1797 0.55078 0.03125 1.1875 0.03125 1.9219-0.003906 0.77344-0.058594 1.4492 0.52344 1.5078 1.2969 0.054688 0.77734-0.52344 1.4492-1.3008 1.5078-2.0977 0.21484-3.6445 0.11328-4.8086-0.21094-3.3516 3.2422-5.9648 5.7969-8.0273 7.8359 0.41016-0.015625 0.84766-0.066406 1.2617-0.13672 1.0039-0.16406 1.8906-0.40625 2.0742-0.45703 0.74219-0.22656 1.5312 0.19141 1.7617 0.93359 0.22656 0.74219-0.19141 1.5312-0.93359 1.7578-0.32422 0.10938-2.5469 0.83594-4.2891 0.92578-0.97266 0.046875-1.8203-0.15625-2.4062-0.51172-3.3906 3.3945-4.6367 4.7734-5.5703 5.8398 0.37109 0.046875 0.76562 0.0625 1.1641 0.058594 1.4258-0.011719 2.8672-0.23828 3.4102-0.27734 0.77344-0.078125 1.4609 0.48438 1.543 1.2578 0.078125 0.76953-0.48438 1.4648-1.2578 1.543-0.78125 0.097656-3.2852 0.63672-5.2148 0.46875-0.64844-0.058594-1.2344-0.20313-1.7383-0.42578-1.4258 1.918-3.2383 4.5273-5.1289 7.3398 0.20703 0.023438 0.42188 0.035156 0.64063 0.03125 1.0664 0 2.1797-0.19141 2.832-0.24609 0.77344-0.085937 1.4727 0.46484 1.5586 1.2383 0.089844 0.77344-0.46484 1.4688-1.2344 1.5586-1.0195 0.14844-3.0078 0.60547-4.5312 0.39844-0.38281-0.050781-0.73828-0.14453-1.0625-0.27734-0.17578 0.26172-0.34766 0.52344-0.51953 0.78906-3.1055 4.7344-6.0938 9.457-7.4805 12.023zm39.305-51.535c-2-0.28125-4.207-0.074219-6.2305-0.035157-1.9062 0.039063-3.6719-0.082031-5.0703-0.65234-1.9727-0.80469-2.9883-1.207-3.9844-0.95312-1.043 0.26172-1.9961 1.1211-3.7852 2.4531-0.63672 0.47656-1.3672 0.84375-2.1602 1.1367-1.2617 0.46875-2.6836 0.75-4.043 1.0938-1.1406 0.28906-2.2383 0.60547-3.0391 1.2891-1.9219 1.6406-3.4102 2.7227-4.5664 3.6758-0.97266 0.80078-1.6836 1.4805-2.1797 2.4297-0.65234 1.2461-0.94922 2.918-1.1328 5.7148-0.085938 1.2812-0.33984 2.3633-0.6875 3.3281-0.45703 1.2734-1.0742 2.3281-1.6602 3.3555-0.50391 0.89062-0.99219 1.7539-1.2266 2.793-1.7656 7.8203-3.6484 9.1562-4.3242 12.344-0.16797 0.79688-0.25 1.7227-0.22656 2.9375 0.019531 0.8125-0.054688 3.8906 0.9375 6.6992 0.35938 1.0234 0.85938 2.0117 1.5898 2.8086 1.4414-2.7852 4.3555-7.6719 7.4609-12.527 0.33594-0.52734 0.67188-1.0508 1.0117-1.5742-0.16797-0.57812-0.31641-1.2773-0.40625-2.0234-0.21484-1.7734-0.18359-3.7773 0.050781-4.582 0.17969-0.73047 0.92188-1.1797 1.6484-1 0.73437 0.17969 1.1797 0.91797 1 1.6523-0.089844 0.4375 0 1.3203 0.12891 2.2734 1.7031-2.5469 3.3008-4.8359 4.5508-6.5039-0.089844-0.38672-0.14844-0.8125-0.16797-1.2617-0.097656-2.1523 0.47266-4.9297 0.55469-5.3438 0.125-0.74219 0.82812-1.2422 1.5703-1.1211 0.74219 0.125 1.2461 0.82812 1.1211 1.5703-0.03125 0.24609-0.17188 1.418-0.21484 2.7383 0.98828-1.0742 2.4648-2.6133 5.125-5.2344-0.070312-0.29297-0.12109-0.60547-0.15625-0.92969-0.23438-2.1758 0.21094-4.9922 0.35547-6.6172 0.046875-0.75 0.69141-1.3242 1.4453-1.2773 0.75 0.042969 1.3242 0.69141 1.2773 1.4414-0.03125 1.1562-0.16406 2.9531-0.10547 4.6367 1.8281-1.7695 4.0547-3.8984 6.7812-6.4805-0.41016-0.48438-0.72656-1.0508-0.97656-1.6914-0.375-0.96875-0.60156-2.1406-0.9375-3.4727-0.21875-0.72266 0.1875-1.4844 0.90625-1.7031 0.72266-0.21484 1.4844 0.19141 1.7031 0.91016 0.34766 0.98047 0.625 1.8633 0.92969 2.6367 0.17969 0.45313 0.36719 0.85156 0.63281 1.1836 1.9375-1.832 4.0938-3.8594 6.5-6.1172zm-70.676-14.863c-2.0039-0.69922-4.5703-1.7578-6.7695-3.2148-2.4297-1.6016-4.375-3.7031-4.9961-6.1602-0.19922-0.82813 0.035156-3.4336 2.5703-4.4141 1.3398-0.51562 3.5508-0.59375 7.0117 0.98828-0.12891-2.543 0.21875-4.6055 0.66016-5.6094 0.35938-0.8125 0.89062-1.2148 1.3047-1.3789 0.51172-0.19531 1.4219-0.20312 2.3945 0.5625 0.91406 0.71875 2.1914 2.3281 3.2031 4.4609 1.0859-1.6719 2.6641-3.4688 4.0273-4.2305 0.88281-0.49609 1.7461-0.60547 2.4688-0.41406 0.91797 0.23828 1.8359 0.99609 2.2461 2.8047 0.53906 2.5039 0.070312 5.0586-0.90625 7.3789-1.1836 2.8008-3.082 5.2422-4.4648 6.7969 8.168 0.50781 13.309 6.9961 15.762 15.918 3.3086 12.027 1.6484 28.473-3.418 38.922h0.039062c-0.19531 0.39062-0.56641 0.66797-1.0039 0.75-0.44141 0.082031-0.89453-0.042969-1.2227-0.33984v0.03125c-4.9766-4.5781-13.715-11.07-19.32-21.391-2.832-5.2188-4.8672-11.406-5.2422-18.805-0.19922-4.043 0.86328-7.043 2.3438-9.25 0.98438-1.4609 2.1602-2.5742 3.3125-3.4062zm-1.7812-9.543c-0.019532-0.011719-0.042969-0.019531-0.0625-0.03125-2.0352-1.0156-3.5781-1.4805-4.7461-1.582-1.3125-0.11719-1.9297 0.3125-2.1133 0.83594-0.027344 0.082031-0.042969 0.20312-0.050781 0.25781 0.47266 1.7422 1.9844 3.125 3.6953 4.2891 1.8516 1.2578 3.9844 2.2344 5.7344 2.9141-1.2539-2.1758-2.0273-4.5-2.457-6.6836zm8.3984-1.6484c0.035157 0.15234 0.066407 0.30859 0.097657 0.46484 0.39453 2.0586 0.41406 4.3047-0.25 6.543 1.1953-1.4102 2.875-3.6602 3.9102-6.2148 0.70703-1.7578 1.1289-3.668 0.71484-5.5469-0.03125-0.14844-0.050782-0.35156-0.085938-0.48438 0.066406 0.023438 0.13281 0.027344 0.13672-0.015625 0.003906-0.054687-0.058594-0.023437-0.13672 0.015625-0.023438-0.10156-0.0625-0.16406-0.11719-0.11719-0.042968 0.039063 0.035157 0.09375 0.11719 0.12109-0.054688 0.027344-0.11719 0.066406-0.16016 0.09375-0.23047 0.12109-0.47266 0.28516-0.71094 0.48047-0.25 0.20312-0.49609 0.43359-0.74219 0.68359-0.89062 0.90625-1.7383 2.0312-2.2773 2.957-0.16797 0.28906-0.44922 0.62891-0.53906 0.83594 0.015626 0.058593 0.027344 0.11719 0.039063 0.17578 0.003906-0.019531 0.003906-0.039063 0.003906-0.058594 0 0.019531 0.019531 0.070313 0 0.066406zm-5.4492-5.7812c0.16406-0.066406 0.31641-0.15234 0.19141-0.23047-0.09375-0.058593-0.15234 0.050782-0.19141 0.23047zm-0.14453 0.98438c-0.30859 1.8594-0.26562 4.8281 0.58594 7.9102 0.38672 1.4062 0.94141 2.8398 1.7148 4.2031 0.60547-1.5312 0.77344-3.0781 0.67578-4.5508-0.21484-3.1875-1.6992-6.0195-2.9766-7.5625zm19.652 27.488c-2.707-7.1367-7.6367-11.914-15.5-10.633-0.63672 0.10156-3.8281 1.1836-5.9141 4.2734-1.0117 1.4961-1.7461 3.4609-1.8477 6.0039l8.3984-1.9297c0.74609-0.21484 1.5273 0.21094 1.7461 0.95703 0.21875 0.74609-0.21094 1.5273-0.95703 1.7461-2.4727 0.80078-3.6992 1.1992-4.9648 1.4609-1.0781 0.22266-2.1836 0.33203-4.1211 0.61328 0.28906 3.6406 1.0156 6.9531 2.0508 9.9844 0.50781-0.20703 1.0742-0.41406 1.6641-0.60547 0.63672-0.20703 1.3047-0.37891 1.9414-0.53516 1.1797-0.28906 2.2695-0.48438 2.9141-0.625 0.75391-0.19141 1.5195 0.25781 1.7148 1.0117 0.19531 0.75-0.25391 1.5195-1.0078 1.7148-0.82031 0.24609-2.3516 0.74609-3.9102 1.1914-0.66016 0.1875-1.3281 0.34766-1.9336 0.51172-0.10937 0.03125-0.21875 0.0625-0.32422 0.089844 1.1289 2.6406 2.4883 5.0469 3.9727 7.2461 4.6875 6.9297 10.645 11.82 14.805 15.523 2.5703-6.2383 3.9648-14.258 3.9062-22.02-0.77344 0.18359-1.5391 0.39844-2.3242 0.51953-0.86328 0.13672-1.7383 0.15625-2.6094 0.23437-0.76953 0.10938-1.4844-0.42187-1.5977-1.1875-0.11328-0.76953 0.41797-1.4844 1.1875-1.5977 0.85547-0.17969 1.6992-0.41406 2.5625-0.53516 0.87109-0.12109 1.7422-0.125 2.6172-0.1875 0.027344-0.003906 0.054687-0.007812 0.078125-0.007812-0.19531-3.6602-0.73047-7.207-1.6328-10.418-0.007813-0.027344-0.015626-0.050781-0.019532-0.074219-0.19922 0.070312-0.41797 0.09375-0.64062 0.066406-0.015625 0 0.011719 0.046875-0.015625 0.050782-0.050781 0.015624-0.10547 0.042968-0.18359 0.0625-0.26172 0.070312-0.66016 0.22656-1.3594 0.35937-0.51172 0.09375-1.1758 0.125-2.0391 0.21875-0.76562 0.13672-1.5-0.37109-1.6367-1.1328-0.14062-0.76562 0.36719-1.5 1.1328-1.6367 0.55469-0.15234 1.0156-0.30078 1.4219-0.39453 0.37891-0.085938 0.69531-0.14844 0.96484-0.18359 0.74609-0.097656 1.1797-0.13281 1.4609-0.13672z" fill-rule="evenodd"/>
</g></svg>
