<?xml version="1.0" encoding="UTF-8"?>
<svg width="100pt" height="100pt" version="1.1" viewBox="0 0 100 100" xmlns="http://www.w3.org/2000/svg">
 <path d="m50 0c-13.262 0-25.98 5.2695-35.355 14.645s-14.645 22.094-14.645 35.355 5.2695 25.98 14.645 35.355 22.094 14.645 35.355 14.645 25.98-5.2695 35.355-14.645 14.645-22.094 14.645-35.355c-0.015625-13.258-5.2852-25.965-14.66-35.34s-22.082-14.645-35.34-14.66zm-46.875 50c-0.015625-11.902 4.5156-23.359 12.664-32.031l12.289 12.32c-4.9609 6.1328-7.7656 14.758-7.7656 24.953 0 9.7266 2.5234 17.242 7.5938 22.328 5.0703 5.0859 12.461 7.5859 22.094 7.5859 10.766 0 18.711-3.1641 23.656-9.2969l8.375 8.3516c-8.9453 8.3711-20.812 12.91-33.062 12.641-12.246-0.26953-23.902-5.3242-32.473-14.082-8.5664-8.7539-13.367-20.52-13.371-32.77zm50.219-21.875c-0.19531-0.83984 0.33203-1.6797 1.1719-1.875s1.6797 0.33203 1.875 1.1719c0.070313 0.3125 1.7344 7.6875-0.70312 11.961-0.42969 0.75-1.3867 1.0039-2.1367 0.57422-0.75-0.42969-1.0039-1.3867-0.57422-2.1367 1.5156-2.6641 0.78125-7.8906 0.36719-9.6953zm11.016 18.422c0.20312 0.36719 0.25 0.80078 0.13281 1.1992-0.12109 0.40234-0.39453 0.74219-0.76563 0.9375-0.36719 0.19922-0.80078 0.23828-1.2031 0.11328-0.39844-0.12891-0.73047-0.40625-0.92188-0.78125-4.6328-8.7031-2.3438-14.148-2.2109-14.375 0.37109-0.74219 1.2617-1.0625 2.0234-0.73047 0.76172 0.33203 1.1289 1.2031 0.83594 1.9805-0.085938 0.26562-1.7344 4.4531 2.1094 11.664zm4.7422 18.805c-0.6875-0.50391-0.84375-1.4688-0.35156-2.1641 1.3594-1.8711 2.0273-4.1523 1.8906-6.4609-0.12109-0.86328 0.48047-1.6602 1.3438-1.7812 0.86328-0.12109 1.6602 0.48047 1.7812 1.3438 0.24609 3.1094-0.63672 6.1992-2.4844 8.7109-0.24219 0.33594-0.60547 0.56641-1.0156 0.63672-0.40625 0.066406-0.82812-0.027344-1.1641-0.26953zm0.67969 4.8438c-0.17188 0.35156-1.7812 3.4141-4.5859 3.9844-0.28516 0.058593-0.57422 0.085937-0.86719 0.085937-1.2852-0.03125-2.5156-0.53516-3.4531-1.4141-0.36328-0.25391-0.60547-0.64844-0.66016-1.0898-0.054688-0.44141 0.082031-0.88281 0.375-1.2188 0.28906-0.33594 0.71094-0.53125 1.1523-0.53516 0.44531-0.007812 0.87109 0.17578 1.1719 0.5 0.91406 0.78125 1.4766 0.67188 1.6641 0.63281 1.1172-0.21875 2.1406-1.7891 2.4141-2.3438 0.38672-0.77344 1.3242-1.0859 2.0977-0.69922 0.77344 0.38672 1.0859 1.3242 0.69922 2.0977zm1.1875-19.797c-0.066406 0.4375-0.31641 0.82812-0.69141 1.0703-0.37109 0.24609-0.82812 0.31641-1.2578 0.20312-0.42969-0.11719-0.78906-0.40625-0.98828-0.80469-0.20312-0.39453-0.22266-0.85938-0.0625-1.2734 1.3281-4.875-1.5625-7.5156-1.6875-7.625-0.55469-0.58594-0.57422-1.4961-0.046875-2.1055 0.53125-0.60938 1.4414-0.71094 2.0938-0.23828 0.17969 0.14062 4.5078 3.9531 2.6484 10.789zm-3.7812 10.281c-0.21484 0.83594-1.0703 1.3398-1.9062 1.125-0.83594-0.21484-1.3398-1.0703-1.125-1.9062 0.78125-3.2812-3.1953-6.4844-3.2344-6.5234-0.64062-0.54297-0.73828-1.4922-0.22266-2.1523 0.51953-0.66016 1.4648-0.79688 2.1445-0.30859 0.25 0.20313 5.6719 4.5 4.3438 9.7656zm-7.625 15.836c0.17969 0.39062 0.19141 0.83594 0.03125 1.2344-0.15625 0.39844-0.47266 0.71484-0.87109 0.87109-0.39844 0.16016-0.84375 0.14844-1.2344-0.03125-0.38672-0.17969-0.6875-0.51172-0.82422-0.91797-2.4766-6.1953 0.046876-8.9766 0.34375-9.2734 0.60156-0.62109 1.5898-0.64063 2.2109-0.039063s0.64062 1.5898 0.039062 2.2109c-0.078124 0.10938-1.3438 1.8203 0.30469 5.9453zm-0.48438-12.016c-0.22656 0.83203-1.0859 1.3242-1.918 1.0977-0.83203-0.22656-1.3242-1.0859-1.0977-1.918 1.4453-5.3047-2.5547-13.445-2.5938-13.523-0.28516-0.75 0.042969-1.5938 0.76172-1.9531s1.5898-0.11719 2.0195 0.5625c0.20312 0.375 4.5859 9.2734 2.8281 15.734zm-10.445-45.797c0.30469-0.45703 0.82031-0.73438 1.3711-0.73438 0.55078 0 1.0664 0.27734 1.3711 0.73438 0.070312 0.10938 0.13672 0.22656 0.19531 0.34375v62.984h-1.5625-1.5625v-62.977c0.054688-0.12109 0.11719-0.23828 0.1875-0.35156zm-10.883 16.203c-0.33594-0.79297 0.03125-1.707 0.82031-2.0469 0.77734-0.33594 1.6836 0.011719 2.0391 0.78125 0.10156 0.22656 2.4219 5.6719-2.2109 14.375-0.41406 0.74609-1.3477 1.0234-2.1016 0.62109-0.75-0.40234-1.043-1.332-0.65625-2.0898 3.8594-7.2344 2.1797-11.469 2.1094-11.641zm9.2812 2.9453c0.42969 0.75 0.17578 1.707-0.57422 2.1367-0.75 0.42969-1.707 0.17578-2.1367-0.57422-2.4375-4.2734-0.78125-11.648-0.70312-11.961 0.19531-0.83984 1.0352-1.3672 1.875-1.1719 0.83984 0.19531 1.3672 1.0352 1.1719 1.875-0.42187 1.7734-1.1562 7 0.36719 9.6953zm-3.2812 10.914c0.38672-0.77344 1.3242-1.0859 2.0977-0.69922 0.77344 0.38672 1.0859 1.3242 0.69922 2.0977-0.039063 0.078126-4.0391 8.2188-2.5938 13.523 0.22656 0.83203-0.26562 1.6914-1.0977 1.918-0.83203 0.22656-1.6914-0.26562-1.918-1.0977-1.7734-6.4688 2.6094-15.367 2.8125-15.742zm-3.0078 21.805c-0.59375-0.60937-0.59375-1.5781 0-2.1875 0.29297-0.29687 0.69531-0.46484 1.1133-0.46484s0.82031 0.16797 1.1133 0.46484c0.29688 0.29688 2.8203 3.0781 0.34375 9.2734-0.34766 0.75391-1.2266 1.1016-1.9961 0.79688-0.77344-0.30859-1.168-1.168-0.90234-1.9531 1.7109-4.2188 0.34375-5.9141 0.32813-5.9297zm-3.6016-19.633c0.67969-0.48828 1.625-0.35156 2.1445 0.30859 0.51562 0.66016 0.41797 1.6094-0.22266 2.1523-0.085938 0.0625-4.0469 3.25-3.2344 6.5234 0.21484 0.83594-0.28906 1.6914-1.125 1.9062s-1.6914-0.28906-1.9062-1.125c-1.3125-5.2891 4.1094-9.5859 4.3438-9.7656zm1.9766 21.93c-0.9375 0.87891-2.168 1.3828-3.4531 1.4141-0.28906 0.007812-0.58203-0.011719-0.86719-0.0625-2.8047-0.5625-4.4062-3.6328-4.5781-3.9844-0.38672-0.77344-0.074219-1.7109 0.69922-2.0977 0.77344-0.38672 1.7109-0.074219 2.0977 0.69922 0.27344 0.53125 1.2969 2.1016 2.4141 2.3438 0.1875 0 0.78125 0.14844 1.6641-0.63281 0.30078-0.32422 0.72656-0.50781 1.1719-0.5 0.44141 0.003906 0.86328 0.19922 1.1523 0.53516 0.29297 0.33594 0.42969 0.77734 0.375 1.2188-0.054688 0.44141-0.29688 0.83594-0.66016 1.0898zm-5.3984-30.898c-0.14062 0.125-3.0078 2.7656-1.6797 7.625 0.22656 0.83203-0.26562 1.6914-1.0977 1.918-0.83203 0.22656-1.6914-0.26562-1.918-1.0977-1.8594-6.8359 2.4688-10.648 2.6562-10.805 0.65234-0.47266 1.5625-0.37109 2.0938 0.23828 0.52734 0.60938 0.50781 1.5195-0.046876 2.1055zm-4.3438 14.75c-0.16016 2.3086 0.50391 4.6016 1.875 6.4688 0.5 0.70312 0.33594 1.6797-0.36719 2.1797-0.70312 0.5-1.6797 0.33594-2.1797-0.36719-1.8359-2.5273-2.6953-5.6367-2.4219-8.75 0.11719-0.86328 0.91406-1.4648 1.7773-1.3477 0.86328 0.11719 1.4648 0.91406 1.3477 1.7773zm54.836 25.312l-8.7344-8.7578c2.7812-4.6406 4.2109-10.609 4.2109-17.852 0-16.742-7.3594-29.281-19.68-33.594-2.4922-0.90625-5.0391-2.4219-5.25-3.125-0.16406-0.61328-0.42969-1.1914-0.78125-1.7188-0.88281-1.3516-2.3867-2.168-4-2.168-1.6133 0-3.1172 0.81641-4 2.168-0.35156 0.52344-0.61719 1.1016-0.78125 1.7109-0.21094 0.71094-2.7656 2.2344-5.2344 3.125-3.6797 1.2891-7.0234 3.3906-9.7812 6.1484l-12.211-12.18c11.973-11.086 28.852-15.148 44.559-10.723 15.707 4.4258 27.98 16.699 32.406 32.406 4.4258 15.707 0.36328 32.586-10.723 44.559z"/>
</svg>
