<?xml version="1.0" encoding="UTF-8"?>
<svg width="100pt" height="100pt" version="1.1" viewBox="0 0 100 100" xmlns="http://www.w3.org/2000/svg">
 <path d="m50 0c-13.262 0-25.98 5.2695-35.355 14.645s-14.645 22.094-14.645 35.355 5.2695 25.98 14.645 35.355 22.094 14.645 35.355 14.645 25.98-5.2695 35.355-14.645 14.645-22.094 14.645-35.355c-0.015625-13.258-5.2852-25.965-14.66-35.34s-22.082-14.645-35.34-14.66zm-46.875 50c-0.015625-11.902 4.5156-23.359 12.664-32.031l15.109 15.133c-3.8359 8.5234-5.8477 17.754-5.8984 27.102 0 0.41406 0.078125 2.9688 0.10156 3.2109 1.0703 12.367 12.398 20.961 24.898 20.961 8.6953 0 16.812-4.1641 21.312-10.852l10.719 10.688c-8.9453 8.3711-20.812 12.91-33.062 12.641-12.246-0.26953-23.902-5.3242-32.473-14.082-8.5664-8.7539-13.367-20.52-13.371-32.77zm32.031 7.8125c0-3.9375 1.5625-7.7109 4.3477-10.496s6.5586-4.3477 10.496-4.3477 7.7109 1.5625 10.496 4.3477 4.3477 6.5586 4.3477 10.496-1.5625 7.7109-4.3477 10.496-6.5586 4.3477-10.496 4.3477-7.7109-1.5625-10.496-4.3477-4.3477-6.5586-4.3477-10.496zm49.055 24.219l-11.289-11.32c1.0898-2.293 1.7617-4.7656 1.9766-7.2969 0-0.24219 0.10156-2.7969 0.10156-3.2109 0-21.484-11.719-44.578-25-44.578-6.7266 0-13.039 5.9062-17.641 14.523l-14.391-14.359c11.973-11.086 28.852-15.148 44.559-10.723 15.707 4.4258 27.98 16.699 32.406 32.406 4.4258 15.707 0.36328 32.586-10.723 44.559z"/>
</svg>
