<?xml version="1.0" encoding="UTF-8"?>
<svg width="100pt" height="100pt" version="1.1" viewBox="0 0 100 100" xmlns="http://www.w3.org/2000/svg">
 <g>
  <path d="m39.75 64.625c-0.78125 0.78125-1.4219 1.3516-1.8906 1.7734 0.59375 2.1914 1.6602 4.2305 3.125 5.9688 1.1133-1.0625 2.1328-2.2188 3.0547-3.4531-1.6523-1.1914-3.0977-2.6367-4.2891-4.2891z"/>
  <path d="m44.984 67.633c1.1445-1.6484 2.1875-3.3672 3.125-5.1406-1.2852-0.86328-2.5195-1.8086-3.6875-2.8281-1.2188 1.4453-2.4297 2.7422-3.5 3.8359 1.1133 1.5977 2.4844 2.9922 4.0625 4.1328z"/>
  <path d="m51.055 56.047l-2.5703-1.9219c-0.96094 1.5-2.0039 2.9453-3.125 4.3281 1.0859 0.94141 2.2227 1.8203 3.4141 2.625 0.76562-1.5156 1.5234-3.1797 2.2812-5.0312z"/>
  <path d="m66.148 32.961c-1.5234-1.4258-3.3125-2.5352-5.2656-3.2734-0.92969 1.1016-1.9688 2.4141-3.0078 3.9062 1.5742 1.1484 3.0391 2.4336 4.3828 3.8438 1.3828-1.7266 2.7031-3.2109 3.8906-4.4766z"/>
  <path d="m42.078 73.523c1.6562 1.582 3.5977 2.8359 5.7188 3.6953 1.5078-1.2227 2.7422-2.75 3.6172-4.4844-2.1211-0.74609-4.1523-1.7266-6.0547-2.9219-0.98438 1.3281-2.082 2.5703-3.2812 3.7109z"/>
  <path d="m58.297 42.711c1-1.4531 2-2.8203 2.9844-4.0781-1.2969-1.3945-2.7188-2.6641-4.25-3.7969-1.0352 1.5469-1.9609 3.1641-2.7734 4.8359 1.4375 0.88672 2.7891 1.9023 4.0391 3.0391z"/>
  <path d="m53.586 41.086c-0.625 1.457-1.1055 2.9766-1.4297 4.5312-0.085938 0.42187-0.19531 0.84375-0.3125 1.2656l2.5781 2.0391c0.95312-1.7344 1.9531-3.375 2.9609-4.9141-1.1719-1.0898-2.4453-2.0664-3.7969-2.9219z"/>
  <path d="m46.281 68.516c1.832 1.1367 3.7852 2.0703 5.8203 2.7812 0.75391-1.7656 1.3477-3.5938 1.7656-5.4688-1.2578-0.625-2.8203-1.4688-4.4766-2.5-0.93359 1.7891-1.9727 3.5195-3.1094 5.1875z"/>
  <path d="m66.477 42.188c1.2148-1.1523 2.4961-2.2344 3.8359-3.2344-0.75-1.7734-1.7734-3.418-3.0391-4.8672-1.1875 1.2656-2.5078 2.7578-3.9062 4.4609 1.1328 1.2422 2.2031 2.5078 3.1094 3.6406z"/>
  <path d="m59.461 43.75c1.0391 0.97656 2.0234 1.9844 2.8984 2.9141 0.94141-1.1836 1.9414-2.3164 3-3.3984-0.875-1.0781-1.8984-2.2969-2.9922-3.5-0.96094 1.2578-1.9375 2.5859-2.9062 3.9844z"/>
  <path d="m58.594 45.086c-0.98438 1.5156-1.9531 3.125-2.8828 4.8203l2.9219 2.3438c0.83203-1.4805 1.7578-2.9062 2.7656-4.2734-0.85156-0.9375-1.8047-1.9219-2.8047-2.8906z"/>
  <path d="m50 0c-13.262 0-25.98 5.2695-35.355 14.645s-14.645 22.094-14.645 35.355 5.2695 25.98 14.645 35.355 22.094 14.645 35.355 14.645 25.98-5.2695 35.355-14.645 14.645-22.094 14.645-35.355c-0.015625-13.258-5.2852-25.965-14.66-35.34s-22.082-14.645-35.34-14.66zm-43.75 50c-0.007812-10.52 3.7969-20.688 10.703-28.625l16.852 16.852c-3.043 0.69141-5.9297 1.9375-8.5234 3.6719-9.375 6.25-13.117 17.281-8.2734 24.578 2.4453 3.6797 6.6797 5.8516 11.719 6.0781 0.39844 4.7812 2.5312 8.9531 6.3047 11.336 2.0938 1.3047 4.5156 1.9844 6.9844 1.9609 6.25 0 13.07-3.9844 17.383-10.82 1.5469-2.4102 2.6758-5.0625 3.3438-7.8438l15.883 15.883c-8.5 7.3516-19.5 11.152-30.723 10.613-11.227-0.53906-21.812-5.375-29.566-13.508-7.7539-8.1328-12.082-18.938-12.086-30.176zm13.367 14.742c-3.9062-5.8594-0.57813-14.945 7.3984-20.25 2.8398-1.9219 6.0977-3.1406 9.5-3.5625l3.7891 3.7891c-0.33594 0-0.67188 0-1.0234 0.0625-3.2617 0.46094-6.3711 1.6797-9.0781 3.5547-2.7812 1.7812-5.1055 4.1875-6.7891 7.0312-1.5625 2.8516-1.7422 5.4688-0.44531 7.4453 1.1172 1.6719 3.125 2.5469 5.6719 2.5469h0.78125c-0.34766 1.3477-0.57422 2.7227-0.67188 4.1094-4-0.27344-7.2812-1.9375-9.1328-4.7266zm38.281-35.938c-0.42969-0.085938-0.71484-0.50391-0.62891-0.93359 0.085938-0.42969 0.50391-0.71484 0.93359-0.62891 0.73438 0.14844 1.457 0.33594 2.1719 0.5625 1.5156-1.7266 2.625-2.7969 2.7656-2.9219 0.3125-0.29687 0.80859-0.28516 1.1055 0.027344s0.28516 0.80859-0.027344 1.1055c0 0-0.94531 0.90625-2.2578 2.3438 1.9414 0.83984 3.7148 2.0273 5.2266 3.5078 1.3203-1.3711 2.7109-2.6758 4.1641-3.9062 0.33594-0.25391 0.81641-0.19141 1.0781 0.13672 0.26562 0.32812 0.21875 0.80859-0.10156 1.082-1.418 1.1992-2.7734 2.4688-4.0625 3.8047 1.3281 1.5156 2.4219 3.2227 3.2422 5.0625 0.90625-0.61719 1.4609-0.9375 1.4922-0.95312 0.37891-0.21484 0.85938-0.085938 1.0742 0.29297 0.21484 0.37891 0.085937 0.85938-0.29297 1.0742 0 0-0.64844 0.36719-1.6406 1.0625 0.46484 1.2266 0.80078 2.4961 1.0078 3.7891 0.050781 0.42578-0.25391 0.8125-0.67969 0.86719h-0.09375c-0.39844 0.003906-0.73438-0.29297-0.78125-0.6875-0.15234-1.0352-0.40234-2.0508-0.74219-3.0391-1.1875 0.91406-2.3242 1.8906-3.4062 2.9297 1.1406 1.4531 1.875 2.4922 1.9766 2.6328 0.25 0.35156 0.16797 0.83984-0.18359 1.0898-0.35156 0.25-0.83984 0.16797-1.0898-0.18359 0 0-0.71875-1.0078-1.8203-2.4219-1.0273 1.0586-1.9961 2.1758-2.9062 3.3359 1.3672 1.5156 2.2812 2.6406 2.3906 2.7812 0.27344 0.33594 0.21875 0.82812-0.11719 1.1016-0.33594 0.27344-0.82812 0.21875-1.1016-0.11719 0 0-0.85156-1.0547-2.0938-2.4766-0.94531 1.3047-1.8125 2.668-2.5938 4.0781l1.7266 1.3672c0.33984 0.26563 0.39453 0.75781 0.12891 1.0977-0.26562 0.33984-0.75781 0.39453-1.0977 0.12891l-1.5312-1.1875v0.070313l-8.6719-8.6406c0.0625-0.24219 0.11719-0.49219 0.17187-0.73437 0.35547-1.6914 0.87891-3.3438 1.5625-4.9297-0.30469-0.125-0.62109-0.22266-0.94531-0.28906-0.42969-0.085938-0.71484-0.50391-0.62891-0.93359 0.085937-0.42969 0.50391-0.71484 0.93359-0.62891 0.4375 0.09375 0.86328 0.23047 1.2734 0.40625 0.83203-1.7148 1.7773-3.375 2.8359-4.9609-0.44531-0.24219-0.91406-0.4375-1.3984-0.57812-0.33594-0.16797-0.50391-0.55078-0.40234-0.91406 0.10547-0.35937 0.44922-0.59766 0.82422-0.5625 0.65234 0.18359 1.2773 0.44922 1.8672 0.78125 0.92969-1.3203 1.8594-2.5156 2.7266-3.5547-0.46094-0.10156-0.91406-0.23438-1.3906-0.3125zm-0.57813 36.883c0.41406 0.16016 0.61719 0.62891 0.45703 1.043-0.16016 0.41406-0.62891 0.61719-1.043 0.45703-0.09375 0-0.61719-0.25-1.4297-0.625-0.42188 1.7969-0.99219 3.5508-1.7109 5.25 1.2188 0.36719 2.0156 0.53125 2.0469 0.53125 0.42969 0.039062 0.74609 0.42578 0.70703 0.85547-0.039062 0.42969-0.42578 0.74609-0.85547 0.70703h-0.14844c-0.14062 0-1.0625-0.21094-2.4375-0.63281-0.85547 1.7227-2.0078 3.2773-3.4062 4.5938l0.52344 0.14062c0.42969 0.046876 0.74609 0.43359 0.69922 0.86328-0.046875 0.42969-0.43359 0.74609-0.86328 0.69922h-0.16406c-0.5625-0.14062-1.1133-0.3125-1.6562-0.51562l-0.32812 0.21875c-1.5938 1.0039-3.4375 1.5469-5.3203 1.5625-0.65625 0.007812-1.3125-0.066407-1.9531-0.22656-0.39453-0.13672-0.60938-0.55469-0.49609-0.95312 0.11328-0.39844 0.51953-0.64062 0.92578-0.54688 1.832 0.37891 3.7422 0.10547 5.3906-0.78125-1.9648-0.92969-3.7617-2.1719-5.3281-3.6797-0.91797 0.8125-1.9766 1.4453-3.125 1.875-0.074219 0.011718-0.14453 0.011718-0.21875 0-0.20703 0.027343-0.41797-0.027344-0.58203-0.15234-0.16797-0.12891-0.27734-0.31641-0.30469-0.52344-0.058594-0.42969 0.24609-0.82812 0.67578-0.88672 0.90625-0.38281 1.7461-0.91016 2.4844-1.5625-1.5312-1.7812-2.6719-3.8555-3.3594-6.1016-0.20312-0.015625-0.39062-0.10938-0.52344-0.25781-0.13281-0.16016-0.19922-0.36328-0.17969-0.57031 0.015625-0.20703 0.11328-0.39844 0.27344-0.53125l0.0625-0.054688c-0.13281-0.60156-0.25-1.2266-0.33594-1.875-0.054687-0.42969 0.25391-0.82422 0.68359-0.87891 0.42969-0.054687 0.82422 0.25391 0.87891 0.68359 0 0.28906 0.085937 0.57031 0.13281 0.85156 0.40625-0.38281 0.89062-0.84375 1.4297-1.375-0.39844-0.69922-0.74219-1.4336-1.0234-2.1875-0.070313-0.19531-0.0625-0.41016 0.023437-0.59766 0.089844-0.1875 0.24609-0.33594 0.44141-0.40625 0.40625-0.14844 0.85547 0.058594 1.0039 0.46484 0.19922 0.53516 0.43359 1.0586 0.70312 1.5625 0.99219-1.0234 2.0781-2.2109 3.1797-3.5156-0.77734-0.75391-1.5-1.5664-2.1641-2.4219-0.14063-0.16406-0.21094-0.375-0.19141-0.58984 0.023438-0.21484 0.13281-0.41016 0.30078-0.54297 0.17188-0.13281 0.39063-0.1875 0.60156-0.15234 0.21484 0.03125 0.40234 0.15234 0.52344 0.33203 0.58984 0.76172 1.2344 1.4805 1.9219 2.1562 1.0742-1.3398 2.0781-2.7383 3-4.1875l-1.625-1.2109c-0.34375-0.25781-0.41406-0.75-0.15625-1.0938 0.17187-0.22266 0.44922-0.33594 0.72656-0.29688l7.1641 7.1641-1.0078-0.73438c-0.78125 1.8047-1.4922 3.4375-2.2344 4.9297 1.4922 0.9375 2.9141 1.7188 4.0938 2.3438 0.29688-1.5078 0.67969-2.9961 1.1484-4.4609l1.2578 1.2578c-0.33594 1.125-0.63281 2.2891-0.875 3.5078 0 0.14844-0.0625 0.28906-0.09375 0.42969 1.0156 0.40625 1.6484 0.66406 1.6719 0.67188zm-14.352-17.367c-0.59766 0.56641-1.2578 1.0625-1.9688 1.4766-3.4414 2.0352-6.3398 4.875-8.4453 8.2734-0.78516 1.2422-1.4648 2.5508-2.0312 3.9062-2.3438 0.4375-4.2578 0.09375-4.9609-0.96094-0.5625-0.85938-0.39062-2.4219 0.57812-4.1719 1.4453-2.3906 3.4258-4.4141 5.7891-5.9062 2.2891-1.5977 4.9219-2.6445 7.6875-3.0469 1.1367-0.19531 2.3008-0.046875 3.3516 0.42969zm7.0312-17.969c-2.1562 3.3594-3.4688 7.1953-3.8281 11.172v0.20312l-3.2031-3.1484c1.7578-1.2109 3.2109-2.8164 4.2344-4.6875 0.96875-1.7422 2.1836-3.3359 3.6094-4.7266-0.25 0.39844-0.53125 0.78906-0.8125 1.2031zm33.023 48.258l-18.672-18.672c0.91406-1.8242 2.3398-3.3398 4.1016-4.3672 3.4414-2.0312 6.3438-4.8633 8.4531-8.2578 2.8125-4.3047 4.1562-9.4023 3.8281-14.531-0.42188-4.9688-2.6719-8.9766-6.3359-11.281-2.3867-1.4922-5.1875-2.1836-7.9922-1.9688-4.9297-0.050781-9.7539 1.4141-13.82 4.2031-3.3398 2.1758-6.1055 5.1211-8.0625 8.5938-0.89063 1.6094-2.1875 2.957-3.7656 3.9062l-19.383-19.281c11.27-9.5859 26.621-12.832 40.801-8.6211 14.184 4.2109 25.281 15.309 29.492 29.492 4.2109 14.18 0.96484 29.531-8.6211 40.801z"/>
 </g>
</svg>
