<?xml version="1.0" encoding="UTF-8"?>
<svg width="100pt" height="100pt" version="1.1" viewBox="0 0 100 100" xmlns="http://www.w3.org/2000/svg">
 <g>
  <path d="m50 0c-13.262 0-25.98 5.2695-35.355 14.645s-14.645 22.094-14.645 35.355 5.2695 25.98 14.645 35.355 22.094 14.645 35.355 14.645 25.98-5.2695 35.355-14.645 14.645-22.094 14.645-35.355c-0.015625-13.258-5.2852-25.965-14.66-35.34s-22.082-14.645-35.34-14.66zm-43.75 50c-0.007812-10.52 3.7969-20.688 10.703-28.625l22.25 22.25c-0.98438 1.082-1.7773 2.3242-2.3438 3.6719-0.75391 1.8672-2.4258 3.2109-4.4141 3.5391-2.7891 0.38672-5.375 1.6758-7.3594 3.6719-3.3984 3.3984-12.414 12.414-6.4609 18.367 2.6328 2.6328 7.5391 3.8125 12.344 3.8125 1.3086-0.003906 2.6133-0.097656 3.9062-0.28125-0.039062 0.23438-0.09375 0.47656-0.125 0.71094-0.83594 5.7578 1.6406 8.1641 3.8594 9.1641 1.4648 0.60938 3.0391 0.90234 4.625 0.85938 2.8516-0.0625 5.6719-0.62891 8.3281-1.6719 5.0469-1.9062 8.8906-4.8672 10.273-7.9375 0.55859-1.2383 0.92187-2.5547 1.0703-3.9062 0.16797-1.6367 0.79297-3.1953 1.8047-4.4922l13.914 13.914c-8.4961 7.3516-19.496 11.152-30.715 10.613-11.223-0.53516-21.809-5.3711-29.562-13.496-7.7578-8.1289-12.086-18.93-12.098-30.164zm63.109 4.9453c0.60156 3.8672-1.1445 7.7266-4.4453 9.8281-2.9141 1.9062-4.7969 5.0391-5.1172 8.5078-0.10547 1.0234-0.36719 2.0195-0.78125 2.9609-2.2266 4.9141-14.188 9.4219-19.102 7.2031-3.2422-1.4688-2.875-6.4844 1.125-15.328 0.875-1.9492 2.3672-3.5586 4.2422-4.5781 2.707-1.5391 4.418-4.3789 4.5078-7.4922 0.10547-2.543 1.1914-4.9453 3.0312-6.7031 2.2773-2.125 3.2812-5.2852 2.6484-8.3359-0.47266-2.0859-0.24609-4.2656 0.64062-6.2109 3.4219-7.5703 6.5-11.289 9.375-11.289 0.49219 0.003907 0.98047 0.11328 1.4297 0.32031 2.2578 1.0234 4.7344 4.375 6.3047 8.5312s1.9219 8.3047 0.89844 10.57c-0.42578 0.9375-0.99219 1.8008-1.6875 2.5625-2.4141 2.5156-3.543 6-3.0703 9.4531zm-34.203 13.023c-1.5781 0-3.0039-0.95312-3.6094-2.4102-0.60547-1.4609-0.26953-3.1406 0.84766-4.2578 1.1172-1.1172 2.7969-1.4531 4.2578-0.84766 1.457 0.60547 2.4102 2.0312 2.4102 3.6094 0 1.0352-0.41016 2.0312-1.1445 2.7617-0.73047 0.73438-1.7266 1.1445-2.7617 1.1445zm12.625-16.867c-0.6875 1.5117-1.0742 3.1445-1.1406 4.8047-0.015625 0.31641-0.054687 0.62891-0.11719 0.9375-1.0625-0.23047-1.9766-0.89453-2.5312-1.8281-0.55078-0.9375-0.6875-2.0586-0.37891-3.1016 0.30859-1.0391 1.0391-1.9062 2.0117-2.3867 0.97266-0.48047 2.1016-0.53906 3.1172-0.15234-0.36328 0.55078-0.68359 1.1289-0.96094 1.7266zm5.4688-17.594c-1.168 2.5625-1.4648 5.4336-0.84375 8.1797 0.37109 1.875-0.21484 3.8086-1.5625 5.1641-1.7188-0.87891-3.7227-1.0117-5.543-0.37109-1.8203 0.64453-3.2969 2.0078-4.082 3.7695-0.78516 1.7656-0.8125 3.7734-0.070312 5.5586 0.73828 1.7812 2.1797 3.1836 3.9844 3.8711-0.39453 0.44141-0.86328 0.81641-1.3828 1.1016-0.66016 0.36328-1.2891 0.78125-1.875 1.25-0.79688-2.6562-3.082-4.5977-5.832-4.9531s-5.4531 0.9375-6.8984 3.3047c-1.4492 2.3672-1.3711 5.3594 0.19922 7.6484 1.5664 2.2852 4.3359 3.4375 7.0625 2.9375-0.26562 0.70312-0.51562 1.4141-0.78125 2.1328-5.6094 1.125-12.414 0.046876-14.898-2.4375-0.90625-0.90625-1.8828-2.5469 0.14844-6.25 1.5625-2.8359 4.3516-5.7656 6.3125-7.7266 1.5195-1.5195 3.4961-2.5 5.625-2.7812 3.0742-0.48438 5.6719-2.5352 6.8594-5.4141 0.99609-2.3398 2.8633-4.207 5.2031-5.2031 2.8789-1.1836 4.9297-3.7852 5.4141-6.8594 0.3125-2.1133 1.3086-4.0703 2.8359-5.5625 0.60156-0.60156 1.5625-1.5625 2.7656-2.6406-1.2031 2.0078-2.0625 3.9688-2.6562 5.2812zm29.805 45.117l-13.641-13.633c2.5156-2.8906 3.6289-6.7461 3.0391-10.531-0.33984-2.5117 0.48438-5.0391 2.2344-6.8672 0.91406-1.0039 1.668-2.1445 2.2266-3.3828 1.3906-3.0703 1.0859-7.9141-0.78125-12.961-1.5625-4.1484-3.8516-7.4844-6.3203-9.3125 0.20312-0.46484 0.37109-0.94531 0.5-1.4375 0.14453-0.48828 0.25391-0.98828 0.32812-1.4922 0.089844-0.49609 0.11719-1.0039 0.078125-1.5078-0.082031-1.0938-0.60938-2.1055-1.4609-2.7969-0.625-0.48438-1.5156-0.42578-2.0703 0.14062l-0.13281 0.14062c-0.33984 0.37109-0.625 0.78906-0.84375 1.2422-0.17578 0.34766-0.30469 0.71484-0.39063 1.0938-0.125 0.71094-0.14062 1.3984-0.22656 2.0938 0 0.29688-0.085938 0.60156-0.125 0.89063-0.10156-0.027344-0.20703-0.046876-0.3125-0.054688-4.7891-0.36719-10.156 4.2969-14.227 8.4062-1.9961 1.9844-3.2852 4.5703-3.6719 7.3594-0.27344 1.6875-1.293 3.1641-2.7734 4.0156l-23.109-23.078c11.27-9.5859 26.621-12.832 40.801-8.6211 14.184 4.2109 25.281 15.309 29.492 29.492 4.2109 14.18 0.96484 29.531-8.6211 40.801z"/>
  <path d="m65.953 53.414c-0.40234 0.09375-0.75391 0.34375-0.97266 0.69531-0.22266 0.35156-0.29297 0.77734-0.19922 1.1797 0.38281 1.6641-0.0625 3.4102-1.1914 4.6875-1.1289 1.2812-2.8047 1.9375-4.5039 1.7656-1.6992-0.16797-3.2109-1.1484-4.0586-2.6289-0.85156-1.4805-0.9375-3.2773-0.23047-4.832 0.19141-0.37891 0.21875-0.82031 0.078125-1.2227s-0.44141-0.73047-0.82812-0.90625c-0.38672-0.17578-0.83203-0.18359-1.2266-0.027344-0.39453 0.16016-0.70703 0.47266-0.86719 0.86719-1.1094 2.4688-0.96484 5.3242 0.39453 7.668s3.7617 3.8906 6.457 4.1523c2.6953 0.26562 5.3516-0.78125 7.1406-2.8164 1.7891-2.0312 2.4883-4.8008 1.8828-7.4414-0.20703-0.82813-1.043-1.3359-1.875-1.1406z"/>
  <path d="m53.469 64.5c-3.1016-1.4062-6.7461-0.80469-9.2305 1.5273-2.4844 2.3281-3.3203 5.9258-2.1133 9.1133 0.32812 0.77344 1.207 1.1484 1.9922 0.85547 0.78516-0.29688 1.1953-1.1602 0.92969-1.957-0.75391-2-0.22656-4.2578 1.3359-5.7227 1.5586-1.4609 3.8477-1.8398 5.7969-0.95703 1.9453 0.87891 3.1719 2.8477 3.1055 4.9844-0.070312 2.1406-1.418 4.0234-3.418 4.7812-0.40234 0.13281-0.73438 0.42578-0.91797 0.8125-0.18359 0.38281-0.19922 0.82422-0.050781 1.2227 0.15234 0.39453 0.45703 0.71484 0.84766 0.88281s0.83203 0.16797 1.2227 0.003906c3.1836-1.2031 5.3281-4.207 5.4375-7.6055 0.10938-3.4023-1.8398-6.5352-4.9375-7.9414z"/>
  <path d="m66.938 43.812c-1.3125 0.49609-2.7695 0.44922-4.0508-0.12891-1.2773-0.58203-2.2734-1.6445-2.7695-2.957-1.0312-2.7344 0.35156-5.7891 3.0859-6.8203 0.40234-0.13281 0.73438-0.42578 0.91797-0.8125 0.18359-0.38281 0.19922-0.82422 0.050781-1.2227-0.15234-0.39453-0.45703-0.71484-0.84766-0.88281s-0.83203-0.16797-1.2227-0.003906c-2.1406 0.75-3.8867 2.332-4.8438 4.3867-0.95703 2.0547-1.0469 4.4102-0.25 6.5312 0.80078 2.1211 2.4219 3.8281 4.4961 4.7422 2.0781 0.91016 4.4336 0.94531 6.5352 0.097657 0.40234-0.13281 0.73438-0.42578 0.91797-0.8125 0.18359-0.38281 0.19922-0.82422 0.050781-1.2227-0.15234-0.39453-0.45703-0.71484-0.84766-0.88281s-0.83203-0.16797-1.2227-0.003907z"/>
 </g>
</svg>
