<?xml version="1.0" encoding="UTF-8"?>
<svg width="100pt" height="100pt" version="1.1" viewBox="0 0 100 100" xmlns="http://www.w3.org/2000/svg">
 <path d="m50 0c-13.262 0-25.98 5.2695-35.355 14.645s-14.645 22.094-14.645 35.355 5.2695 25.98 14.645 35.355 22.094 14.645 35.355 14.645 25.98-5.2695 35.355-14.645 14.645-22.094 14.645-35.355c-0.015625-13.258-5.2852-25.965-14.66-35.34s-22.082-14.645-35.34-14.66zm-43.75 50c-0.007812-10.52 3.7969-20.688 10.703-28.625l20.141 20.141c-1.1953 1.0273-2.5469 1.8594-4 2.4688-0.5625 0.1875-1.1016 0.35156-1.625 0.50781-2.4062 0.73437-4.6875 1.4297-6.9453 3.7031-3.4453 3.6406-5.3242 8.4883-5.2344 13.5 0.09375 5.0117 2.1484 9.7891 5.7266 13.301 3.5781 3.5078 8.3945 5.4766 13.406 5.4727h0.11719c6.5234-0.47656 15.625-6.25 23.719-13.781l16.406 16.406c-8.5 7.3711-19.512 11.184-30.746 10.648-11.238-0.53516-21.836-5.3789-29.598-13.523-7.7578-8.1484-12.082-18.969-12.07-30.219zm41.25-16.461c0.16406-0.48437 0.29688-0.9375 0.4375-1.3906 0.67578-0.097657 1.3594 0.10547 1.875 0.55469 1.75 1.7109-0.59375 6.8125-5.1797 11.383-4.5859 4.5703-9.6719 6.8906-11.383 5.1719-0.44922-0.51562-0.65234-1.1992-0.55469-1.875 0.45313-0.14062 0.90625-0.28125 1.3906-0.4375 3.3594-1.1172 7.4062-5.1016 7.8516-5.5547s4.4375-4.4922 5.5625-7.8516zm35.547 45.086l-16.352-16.352c7.8125-8.2422 13.828-17.609 14.312-24.281v-0.11719c0-5.0156-1.9727-9.8281-5.4883-13.402-3.5195-3.5781-8.2969-5.6289-13.312-5.7148-5.0117-0.082031-9.8594 1.8047-13.496 5.2578-2.2422 2.2422-2.9375 4.5156-3.6719 6.9141-0.15625 0.52344-0.32031 1.0625-0.50781 1.625-0.73047 1.6836-1.7305 3.2383-2.9609 4.6016l-20.195-20.203c11.27-9.5859 26.621-12.832 40.801-8.6211 14.184 4.2109 25.281 15.309 29.492 29.492 4.2109 14.18 0.96484 29.531-8.6211 40.801z"/>
</svg>
