<?xml version="1.0" encoding="UTF-8"?>
<svg width="100pt" height="100pt" version="1.1" viewBox="0 0 100 100" xmlns="http://www.w3.org/2000/svg">
 <path d="m50 0c-13.262 0-25.98 5.2695-35.355 14.645s-14.645 22.094-14.645 35.355 5.2695 25.98 14.645 35.355 22.094 14.645 35.355 14.645 25.98-5.2695 35.355-14.645 14.645-22.094 14.645-35.355c-0.015625-13.258-5.2852-25.965-14.66-35.34s-22.082-14.645-35.34-14.66zm-43.75 50c-0.007812-10.52 3.7969-20.688 10.703-28.625l18.203 18.203c-2.1172 4.7266-4.5938 10.75-4.7422 11.109l-0.64062 1.5625 5.5469 1.8516c-1.1406 2.5625-2.043 5.2305-2.6875 7.9609-4.2969-0.71094-11.758-1.2109-15.812 2.8516-0.48828 0.52344-0.80078 1.1836-0.89844 1.8906-0.13281 0.9375 0.039063 2.3906 1.6328 3.9844 1.9766 1.9609 6.4297 2.6484 8.8203 2.8984 0.23438 2.3906 0.9375 6.8359 2.9141 8.8203 0.88281 1.0078 2.1367 1.6133 3.4766 1.6719 0.16797 0.011718 0.33984 0.011718 0.50781 0 0.71094-0.10938 1.3672-0.4375 1.8828-0.9375 3.9922-3.9922 3.5781-11.266 2.8828-15.586 6.7539-0.17578 13.324-2.2148 18.992-5.8906 0.10938 0.85547 0.58984 1.6172 1.3125 2.0859 0.34375 0.1875 0.73047 0.28906 1.125 0.28906 0.082031 0.003906 0.16797 0.003906 0.25 0l18.938 18.938c-8.4961 7.3672-19.504 11.176-30.738 10.641s-21.828-5.375-29.59-13.516c-7.7578-8.1406-12.082-18.957-12.078-30.203zm34.688-20.25h9.1875c-2.4414 2.9219-4.6914 6-6.7422 9.2109l-3.0234-3.0234c0.875-1.9414 1.0781-4.1172 0.57812-6.1875zm-7.9375 51.242c-0.29688 0.20312-0.875-0.070313-1.5-0.69531-1.2188-1.2188-1.9688-5.4688-2.1094-8.1484l-0.078125-1.4062-1.4062-0.070313c-2.6406-0.14062-6.9219-0.88281-8.1406-2.1094-0.625-0.625-0.89062-1.2031-0.69531-1.5 3.2812-3.2109 10.273-2.4297 13.531-1.8516 0.36328 1.0508 1.1914 1.8789 2.2422 2.2422 0.58594 3.2578 1.3672 10.258-1.8438 13.539zm29.945-50.625c-1.1172-1.1172-1.4531-2.7969-0.84766-4.2578 0.60547-1.4609 2.0312-2.4102 3.6094-2.4102s3.0039 0.94922 3.6094 2.4102c0.60547 1.4609 0.26953 3.1406-0.84766 4.2578-1.5234 1.5234-4 1.5234-5.5234 0zm-2.5 25.656c0.26563-1.3984 0.57031-2.6406 0.71875-3.2188l3.2344-3.6953c0.23437 0.92188 0.32812 1.8711 0.27344 2.8203-0.17578 2.1836-0.97266 4.2695-2.3047 6.0078zm-20.375-11.539c-1.2969 2.3438-2.4609 4.5859-3.4609 6.7344l-2.6562-0.88281c0.78125-1.9219 2.2344-5.3281 3.5781-8.3906zm42.969 34.141l-18.445-18.469c1.7031-2.125 2.7852-4.6797 3.125-7.3828 4.0469-4.5547 15.625-18.977 11.078-30.625-0.16016-0.41016-0.48047-0.73047-0.89062-0.89063-4.0117-1.6211-8.3984-2.0703-12.656-1.293-4.2539 0.77734-8.2031 2.7461-11.383 5.6758-0.3125 0.3125-0.625 0.64062-0.9375 0.96875h-16.531l1.0078 2.2109c0.60938 1.4844 0.78906 3.1055 0.52344 4.6875l-16.555-16.555c11.27-9.5859 26.621-12.832 40.801-8.6211 14.184 4.2109 25.281 15.309 29.492 29.492 4.2109 14.18 0.96484 29.531-8.6211 40.801z"/>
</svg>
