<?xml version="1.0" encoding="UTF-8"?>
<svg width="100pt" height="100pt" version="1.1" viewBox="0 0 100 100" xmlns="http://www.w3.org/2000/svg">
 <path d="m50 0c-27.578 0-50 22.422-50 50s22.422 50 50 50 50-22.422 50-50-22.422-50-50-50zm-43.75 50c0-10.547 3.8281-20.703 10.703-28.594l13.281 13.281c-3.4375 8.125-5.1562 16.797-5.2344 25.547 0 0.39062 0.078125 2.9688 0.078125 3.2031 1.0938 12.344 12.422 20.938 24.922 20.938 7.8906 0.078125 15.391-3.4375 20.391-9.5312l8.2031 8.2031c-18.281 15.781-45.938 13.828-61.719-4.4531-6.7969-7.9688-10.625-18.125-10.625-28.594zm58.359 10.234l-17.031-17.031c8.0469-1.4062 15.625 4.0625 17.031 12.031 0.3125 1.6406 0.3125 3.3594 0 5zm-2.5781 6.25c-4.7656 6.7188-13.984 8.2812-20.703 3.5156s-8.2812-13.984-3.5156-20.703c0.9375-1.3281 2.1875-2.5781 3.5156-3.5156zm21.016 12.109l-9.4531-9.4531c0.70312-1.875 1.1719-3.75 1.3281-5.7812 0-0.23438 0.078125-2.8125 0.078125-3.2031 0-21.406-11.719-44.531-25-44.531-6.3281 0-12.344 5.2344-16.875 13.125l-11.719-11.797c18.438-15.625 46.016-13.438 61.641 5 13.906 16.328 13.906 40.312 0 56.641z"/>
</svg>
