<?xml version="1.0" encoding="UTF-8"?>
<svg width="100pt" height="100pt" version="1.1" viewBox="0 0 100 100" xmlns="http://www.w3.org/2000/svg">
 <g>
  <path d="m44.133 76.055c0.39063-0.14453 0.70313-0.44141 0.875-0.81641 0.17188-0.37891 0.1875-0.8125 0.039063-1.1992-0.75781-2.0039-0.23047-4.2695 1.332-5.7344 1.5625-1.4648 3.8555-1.8477 5.8086-0.96484 1.9492 0.88672 3.1797 2.8594 3.1094 5s-1.4258 4.0312-3.4297 4.7852c-0.40234 0.13281-0.73438 0.42578-0.91797 0.8125-0.18359 0.38281-0.19922 0.82422-0.050781 1.2227 0.15234 0.39453 0.45703 0.71484 0.84766 0.88281s0.83203 0.16797 1.2227 0.003906c3.1875-1.1992 5.3398-4.2031 5.4531-7.6094 0.10938-3.4062-1.8438-6.543-4.9453-7.9453-3.1055-1.4062-6.75-0.80078-9.2344 1.5312-2.4844 2.332-3.3203 5.9297-2.1172 9.1172 0.30469 0.80469 1.1992 1.2148 2.0078 0.91406z"/>
  <path d="m66.938 43.812c-1.3125 0.49609-2.7695 0.44922-4.0508-0.12891-1.2773-0.58203-2.2734-1.6445-2.7695-2.957-1.0312-2.7344 0.35156-5.7891 3.0859-6.8203 0.77344-0.32812 1.1484-1.207 0.85547-1.9922-0.29688-0.78516-1.1602-1.1953-1.957-0.92969-2.1406 0.75-3.8867 2.332-4.8438 4.3867-0.95703 2.0547-1.0469 4.4102-0.25 6.5312 0.80078 2.1211 2.4219 3.8281 4.4961 4.7422 2.0781 0.91016 4.4336 0.94531 6.5352 0.097657 0.77344-0.32813 1.1484-1.207 0.85547-1.9922-0.29688-0.78516-1.1602-1.1953-1.957-0.92969z"/>
  <path d="m50 0c-13.262 0-25.98 5.2695-35.355 14.645s-14.645 22.094-14.645 35.355 5.2695 25.98 14.645 35.355 22.094 14.645 35.355 14.645 25.98-5.2695 35.355-14.645 14.645-22.094 14.645-35.355c-0.015625-13.258-5.2852-25.965-14.66-35.34s-22.082-14.645-35.34-14.66zm-43.75 50c-0.007812-10.52 3.7969-20.688 10.703-28.625l22.25 22.25c-0.98438 1.082-1.7773 2.3242-2.3438 3.6719-0.75391 1.8672-2.4258 3.2109-4.4141 3.5391-2.7891 0.38672-5.375 1.6758-7.3594 3.6719-3.3984 3.3984-12.414 12.414-6.4609 18.367 2.6328 2.6328 7.5391 3.8125 12.344 3.8125 1.3086-0.003906 2.6133-0.097656 3.9062-0.28125-0.72656 4.0547-0.24219 8.0703 3.75 9.875 1.4648 0.60938 3.0391 0.90234 4.625 0.85938 2.8477-0.0625 5.6602-0.62891 8.3125-1.6719 5.0469-1.9062 8.8906-4.8672 10.273-7.9375 0.55859-1.2383 0.92187-2.5547 1.0703-3.9062 0.16797-1.6367 0.79297-3.1953 1.8047-4.4922l13.914 13.914c-8.4961 7.3516-19.496 11.152-30.715 10.613-11.223-0.53516-21.809-5.3711-29.562-13.496-7.7578-8.1289-12.086-18.93-12.098-30.164zm63.109 4.9453c0.43359 2.7969-0.35938 5.6406-2.1719 7.8125l-1.0312-1.0391c1.6445-1.9922 2.2617-4.6367 1.6719-7.1484-0.19141-0.83984-1.0312-1.3672-1.8711-1.1758-0.83984 0.19141-1.3672 1.0312-1.1758 1.8711 0.33594 1.4688 0.027344 3.0078-0.84375 4.2344l-10.68-10.664c1.9492-2.0977 2.7617-5.0078 2.1875-7.8125-0.47266-2.0859-0.24609-4.2656 0.64063-6.2109 1.1406-2.5234 2.9062-6.1719 5.0078-8.6328 1.7891-2.0938 3.2031-2.6719 4.3047-2.6719 0.50781 0.007813 1.0117 0.125 1.4688 0.34375 4.9141 2.2266 9.4219 14.188 7.2031 19.102-0.42187 0.94141-0.99219 1.8086-1.6875 2.5703-2.3867 2.5195-3.5 5.9844-3.0234 9.4219zm-27.953-9.1094l1.8359 1.8203c-1.9492 1.5781-2.9141 4.0742-2.5234 6.5547 0.38672 2.4805 2.0664 4.5625 4.4062 5.4688-0.39453 0.44141-0.85938 0.81641-1.375 1.1016-0.66016 0.36328-1.2891 0.78125-1.875 1.25-0.80078-2.6562-3.0859-4.5898-5.8359-4.9453-2.75-0.35547-5.4492 0.94141-6.8945 3.3047-1.4453 2.3672-1.3672 5.3594 0.19922 7.6484 1.5703 2.2852 4.3359 3.4375 7.0625 2.9375-0.25781 0.67969-0.50781 1.3984-0.74219 2.1406-5.6094 1.1172-12.398 0-14.844-2.4453-2.4453-2.4453-0.40625-7.0781 6.4609-13.945 1.4883-1.5156 3.4297-2.5078 5.5312-2.8203 3.0742-0.48438 5.6719-2.5352 6.8594-5.4141 0.42969-0.97266 1.0156-1.8711 1.7344-2.6562zm5.2266 10.078c-0.015624 0.31641-0.054687 0.62891-0.11719 0.9375-1.4336-0.44141-2.4922-1.6641-2.7148-3.1484-0.22656-1.4844 0.42188-2.9648 1.6602-3.8125l2 2c-0.48828 1.2891-0.76563 2.6484-0.82031 4.0234zm-11.477 12.055c-1.5781 0-3.0039-0.95312-3.6094-2.4102-0.60547-1.4609-0.26953-3.1406 0.84766-4.2578 1.1172-1.1172 2.7969-1.4531 4.2578-0.84766 1.457 0.60547 2.4102 2.0312 2.4102 3.6094 0 1.0352-0.41016 2.0312-1.1445 2.7617-0.73047 0.73438-1.7266 1.1445-2.7617 1.1445zm5.8594 0.14062c0.875-1.9492 2.3633-3.5586 4.2422-4.5781 2.707-1.5391 4.4141-4.3789 4.5078-7.4922 0.027344-0.55078 0.097656-1.1016 0.21875-1.6406l1.2656 1.2656c-0.21875 2.3516 0.5625 4.6836 2.1523 6.4297s3.8398 2.7461 6.1992 2.75c0.26563 0 0.53125 0 0.78125-0.054688l2.1172 2.125c-1.5117 1.8086-2.4492 4.0234-2.6953 6.3672-0.10547 1.0234-0.36719 2.0195-0.78125 2.9609-1.0234 2.2578-4.375 4.7344-8.5312 6.3047s-8.3125 1.9219-10.57 0.89844c-3.2812-1.4766-2.9141-6.4922 1.0938-15.336zm12.219-34.602c-1.168 2.5625-1.4648 5.4336-0.84375 8.1797 0.35547 1.7656-0.14062 3.5938-1.3438 4.9375l-4.3438-4.3438c1.9492-1.3711 3.2578-3.4805 3.6172-5.8359 0.30078-2.1172 1.2852-4.0742 2.8047-5.5781 0.60938-0.60938 1.6094-1.6016 2.8125-2.6797-1.0625 1.8125-1.9609 3.6875-2.7031 5.3203zm29.805 45.117l-13.625-13.633c2.5156-2.8906 3.6289-6.7461 3.0391-10.531-0.33984-2.5117 0.48047-5.0391 2.2344-6.8672 0.91406-1.0039 1.668-2.1445 2.2266-3.3828 2.7266-6.0312-1.375-18.016-7.1406-22.266 0.21875-0.46875 0.39844-0.94922 0.53906-1.4453 0.14453-0.48828 0.25391-0.98828 0.32812-1.4922 0.089844-0.49609 0.11719-1.0039 0.078125-1.5078-0.082031-1.0938-0.60938-2.1055-1.4609-2.7969-0.625-0.48438-1.5156-0.42578-2.0703 0.14062l-0.13281 0.14062c-0.33984 0.37109-0.625 0.78906-0.84375 1.2422-0.17578 0.34766-0.30469 0.71484-0.39063 1.0938-0.125 0.71094-0.14062 1.3984-0.22656 2.0938 0 0.29688-0.085938 0.59375-0.125 0.89063-0.10156-0.027344-0.20703-0.046876-0.3125-0.054688-4.8203-0.36719-10.156 4.2969-14.227 8.4062-1.9961 1.9844-3.2852 4.5703-3.6719 7.3594-0.27344 1.6875-1.293 3.1641-2.7734 4.0156l-23.109-23.078c11.27-9.5859 26.621-12.832 40.801-8.6211 14.184 4.2109 25.281 15.309 29.492 29.492 4.2109 14.18 0.96484 29.531-8.6211 40.801z"/>
 </g>
</svg>
