<?xml version="1.0" encoding="UTF-8"?>
<svg width="100pt" height="100pt" version="1.1" viewBox="0 0 100 100" xmlns="http://www.w3.org/2000/svg">
 <g>
  <path d="m17.969 52.344c-3.0391 3.0391-2.0391 13.43 5.5234 20.992 5.0078 5.0078 10.938 7.3984 15.477 7.3984 2.3438 0 4.2734-0.63281 5.5156-1.875 3.6484-3.6484 2.0625-13.406-5.5234-20.992-7.5859-7.5859-17.93-8.5469-20.992-5.5234z"/>
  <path d="m50 0c-13.262 0-25.98 5.2695-35.355 14.645s-14.645 22.094-14.645 35.355 5.2695 25.98 14.645 35.355 22.094 14.645 35.355 14.645 25.98-5.2695 35.355-14.645 14.645-22.094 14.645-35.355c-0.015625-13.258-5.2852-25.965-14.66-35.34s-22.082-14.645-35.34-14.66zm-43.75 50c-0.007812-10.52 3.7969-20.688 10.703-28.625l22.891 22.922c1.7969 7.1484 6.1562 11.953 10.156 11.953 0.53125-0.007812 1.0547-0.089844 1.5625-0.25l6.0156 6.0156c-4.5312 6.6797-5.1016 13.852-2.1094 16.891 1.2422 1.2422 3.1875 1.875 5.5156 1.875 3.3203 0 7.4219-1.3047 11.352-3.9844l6.25 6.25c-8.4961 7.3359-19.488 11.121-30.699 10.578-11.211-0.54297-21.785-5.3711-29.535-13.492-7.75-8.1211-12.082-18.906-12.102-30.133zm76.797 28.625l-5.9375-5.9688c6.9766-7.4922 7.8594-17.367 4.8984-20.312-2.9609-2.9453-12.828-2.0547-20.289 4.9219l-5.1328-5.1328c2.5078-3.3672 4.3516-8.5703 4.3516-14.633 0-10.695-6.6328-18.75-10.938-18.75-3.9062 0-9.8047 6.7188-10.789 16.039l-17.836-17.836c11.27-9.5859 26.621-12.832 40.801-8.6211 14.184 4.2109 25.281 15.309 29.492 29.492 4.2109 14.18 0.96484 29.531-8.6211 40.801z"/>
 </g>
</svg>
