<?xml version="1.0" encoding="UTF-8"?>
<svg width="100pt" height="100pt" version="1.1" viewBox="0 0 100 100" xmlns="http://www.w3.org/2000/svg">
 <path d="m50 0c-13.262 0-25.98 5.2695-35.355 14.645s-14.645 22.094-14.645 35.355 5.2695 25.98 14.645 35.355 22.094 14.645 35.355 14.645 25.98-5.2695 35.355-14.645 14.645-22.094 14.645-35.355c-0.015625-13.258-5.2852-25.965-14.66-35.34s-22.082-14.645-35.34-14.66zm-43.75 50c-0.007812-10.52 3.7969-20.688 10.703-28.625l8.0469 8.0469c-4.5234 5.3047-7.0156 12.043-7.0312 19.016 0 3.2422 1.7969 9.375 8.5938 9.375h14.062c-0.10156 11.828-1.3125 16.492-2.2422 18.992-0.46094 1.2891-0.28125 2.7188 0.48438 3.8516 0.57031 0.84375 1.5195 1.3594 2.5391 1.375h17.188c1.0234-0.015625 1.9727-0.52734 2.5469-1.375 0.76172-1.1328 0.94141-2.5625 0.48438-3.8516-0.78125-2.0078-1.6719-5.4141-2.0625-12.82l19.062 19.062c-8.4961 7.3516-19.496 11.152-30.715 10.613-11.223-0.53516-21.809-5.3711-29.562-13.496-7.7578-8.1289-12.086-18.93-12.098-30.164zm76.797 28.625l-20.812-20.812h11.203c6.7969 0 8.5938-6.0469 8.5938-9.2422 0-16.875-14.367-30.602-32.031-30.602-7.4453-0.027344-14.676 2.4766-20.516 7.0938l-8.1094-8.1094c11.27-9.5859 26.621-12.832 40.801-8.6211 14.184 4.2109 25.281 15.309 29.492 29.492 4.2109 14.18 0.96484 29.531-8.6211 40.801z"/>
</svg>
