<?xml version="1.0" encoding="UTF-8"?>
<svg width="100pt" height="100pt" version="1.1" viewBox="0 0 100 100" xmlns="http://www.w3.org/2000/svg">
 <path d="m50 0c-13.262 0-25.98 5.2695-35.355 14.645s-14.645 22.094-14.645 35.355 5.2695 25.98 14.645 35.355 22.094 14.645 35.355 14.645 25.98-5.2695 35.355-14.645 14.645-22.094 14.645-35.355c-0.015625-13.258-5.2852-25.965-14.66-35.34s-22.082-14.645-35.34-14.66zm-46.875 50c-0.015625-11.902 4.5156-23.359 12.664-32.031l20.062 20.086c-2.2188 4.8359-5.2656 12.234-5.4688 12.633l-0.64062 1.5625 5.5469 1.8516c-1.1406 2.5625-2.043 5.2305-2.6875 7.9609-4.2969-0.71094-11.758-1.2109-15.812 2.8516-0.48828 0.52344-0.80078 1.1836-0.89844 1.8906-0.13281 0.9375 0.039063 2.3906 1.6328 3.9844 2.0078 1.9609 6.4609 2.6484 8.8516 2.8984 0.23438 2.3906 0.9375 6.8359 2.9141 8.8203 0.88281 1.0078 2.1367 1.6133 3.4766 1.6719 0.16797 0.011718 0.33984 0.011718 0.50781 0 0.71094-0.10938 1.3672-0.4375 1.8828-0.9375 3.9922-3.9922 3.5781-11.266 2.8828-15.586 6.7539-0.17578 13.324-2.2148 18.992-5.8906 0.10938 0.85547 0.58984 1.6172 1.3125 2.0859 0.34375 0.1875 0.73047 0.28906 1.125 0.28906 0.66797-0.03125 1.3125-0.25 1.8594-0.63281l20.703 20.703c-8.9453 8.3711-20.812 12.91-33.062 12.641-12.246-0.26953-23.902-5.3242-32.473-14.082-8.5664-8.7539-13.367-20.52-13.371-32.77zm37.812-20.25h9.1875c-5.3867 6.5625-9.9297 13.773-13.516 21.469l-2.6562-0.88281c1.4297-3.4297 4.8594-11.555 6.25-14.062 1.0195-2.0156 1.2773-4.332 0.73438-6.5234zm20.211 29.688c-0.375 0.42578-0.78516 0.82422-1.2188 1.1875-0.019532-0.51953 0-1.043 0.054687-1.5625v-0.30469-0.21094c0-0.16797 0.019531-0.33203 0.0625-0.5l0.0625-0.42188c0.29688-1.9922 0.78125-4.0312 1-4.8281l3.2344-3.6953c0.23438 0.92188 0.32812 1.8711 0.27344 2.8203-0.078126 2.1016-0.92188 4.7031-3.4688 7.5156zm-28.125 21.547c-0.29688 0.20312-0.875-0.070313-1.5-0.69531-1.2188-1.2188-1.9688-5.4688-2.1094-8.1484l-0.078124-1.4062-1.4062-0.070313c-2.6406-0.14062-6.9219-0.88281-8.1406-2.1094-0.625-0.625-0.89062-1.2031-0.69531-1.5 3.2812-3.2109 10.273-2.4297 13.531-1.8516 0.36328 1.0508 1.1914 1.8789 2.2422 2.2422 0.5625 3.2656 1.3438 10.266-1.8672 13.547zm29.945-50.625c-1.1172-1.1172-1.4531-2.7969-0.84766-4.2578 0.60547-1.4609 2.0312-2.4102 3.6094-2.4102s3.0039 0.94922 3.6094 2.4102c0.60547 1.4609 0.26953 3.1406-0.84766 4.2578-0.73047 0.74219-1.7305 1.1562-2.7734 1.1602-1.0391 0-2.0391-0.41406-2.7734-1.1523zm21.242 51.672l-20.617-20.648c2.2461-2.3555 3.6875-5.3672 4.1094-8.5938 4.0469-4.5547 15.625-18.977 11.078-30.625-0.16016-0.41016-0.48047-0.73047-0.89062-0.89062-4.0117-1.6211-8.3984-2.0703-12.656-1.293-4.2539 0.77734-8.2031 2.7461-11.383 5.6758-0.3125 0.3125-0.625 0.64062-0.9375 0.96875h-16.516l1.0078 2.2109s1.4688 3.3906 0.054688 5.9297l-0.17188 0.32031-19.32-19.297c11.973-11.086 28.852-15.148 44.559-10.723 15.707 4.4258 27.98 16.699 32.406 32.406 4.4258 15.707 0.36328 32.586-10.723 44.559z"/>
</svg>
