<?xml version="1.0" encoding="UTF-8"?>
<svg width="100pt" height="100pt" version="1.1" viewBox="0 0 100 100" xmlns="http://www.w3.org/2000/svg">
 <path d="m50 0c-13.262 0-25.98 5.2695-35.355 14.645s-14.645 22.094-14.645 35.355 5.2695 25.98 14.645 35.355 22.094 14.645 35.355 14.645 25.98-5.2695 35.355-14.645 14.645-22.094 14.645-35.355c-0.015625-13.258-5.2852-25.965-14.66-35.34s-22.082-14.645-35.34-14.66zm-46.875 50c-0.015625-11.902 4.5156-23.359 12.664-32.031l29.234 29.266c-0.31641 0.26172-0.62109 0.53516-0.91406 0.82031-1.1836 1.168-2.1289 2.5586-2.7812 4.0859-0.76172 1.8672-2.4414 3.2031-4.4297 3.5234-2.7891 0.375-5.3828 1.6523-7.375 3.6406-3.4062 3.3828-12.5 12.367-6.5391 18.344 2.3438 2.3906 7.0312 3.8359 12.398 3.8594h0.125c5.3359 0 9.9297-1.3984 12.305-3.75 0.96484-0.95703 1.7773-2.0586 2.3984-3.2656 1.1016-2.2773 3.1797-3.9336 5.6484-4.4922 2.4766-0.50391 4.75-1.7188 6.5391-3.5 0.3125-0.31641 0.60547-0.64844 0.88281-0.99219l18.75 18.703c-8.9453 8.3711-20.812 12.91-33.062 12.641-12.246-0.26953-23.902-5.3242-32.473-14.082-8.5664-8.7539-13.367-20.52-13.371-32.77zm41.406 17.969c0 2.2109-1.332 4.207-3.375 5.0508-2.043 0.84766-4.3984 0.37891-5.9609-1.1836s-2.0312-3.918-1.1836-5.9609c0.84375-2.043 2.8398-3.375 5.0508-3.375 3.0195 0 5.4688 2.4492 5.4688 5.4688zm3.125-10.938c0-2.2109 1.332-4.207 3.375-5.0508 2.043-0.84766 4.3984-0.37891 5.9609 1.1836s2.0312 3.918 1.1836 5.9609c-0.84375 2.043-2.8398 3.375-5.0508 3.375-3.0195 0-5.4688-2.4492-5.4688-5.4688zm11.719-14.844c0-2.2109 1.332-4.207 3.375-5.0508 2.043-0.84766 4.3984-0.37891 5.9609 1.1836s2.0312 3.918 1.1836 5.9609c-0.84375 2.043-2.8398 3.375-5.0508 3.375-3.0195 0-5.4688-2.4492-5.4688-5.4688zm24.836 39.844l-19.203-19.234c0.42188-0.89844 0.73828-1.8398 0.94531-2.8125 0.57812-2.4648 2.2461-4.5312 4.5312-5.6172 1.2109-0.60547 2.3164-1.3945 3.2812-2.3438 4.6875-4.6875 5.1406-17.312 1.2734-23.344 0.38281-0.35547 0.73828-0.73828 1.0625-1.1484 0.30859-0.40234 0.58984-0.82812 0.83594-1.2734 0.26562-0.43359 0.47266-0.89844 0.61719-1.3828 0.30859-1.0469 0.17578-2.1758-0.36719-3.125-0.39844-0.72266-1.293-1.0117-2.0391-0.65625l-0.14844 0.078125c-0.45312 0.22266-0.86719 0.51172-1.2344 0.85938-0.29688 0.26172-0.55859 0.55859-0.78125 0.88281-0.36719 0.61719-0.63281 1.2578-0.96094 1.875l-0.44531 0.82813c-5.7578-2.3125-13.102 4.9766-16.109 7.9766-2.0039 1.9766-3.3047 4.5547-3.7031 7.3438-0.34375 1.9727-1.6875 3.6289-3.5469 4.375-0.16406 0.070312-0.3125 0.14844-0.47656 0.22656l-29.773-29.75c11.973-11.086 28.852-15.148 44.559-10.723 15.707 4.4258 27.98 16.699 32.406 32.406 4.4258 15.707 0.36328 32.586-10.723 44.559z"/>
</svg>
