<?xml version="1.0" encoding="UTF-8"?>
<svg width="100pt" height="100pt" version="1.1" viewBox="0 0 100 100" xmlns="http://www.w3.org/2000/svg">
 <path d="m50 0c-13.262 0-25.98 5.2695-35.355 14.645s-14.645 22.094-14.645 35.355 5.2695 25.98 14.645 35.355 22.094 14.645 35.355 14.645 25.98-5.2695 35.355-14.645 14.645-22.094 14.645-35.355c-0.015625-13.258-5.2852-25.965-14.66-35.34s-22.082-14.645-35.34-14.66zm-43.75 50c-0.007812-10.52 3.7969-20.688 10.703-28.625l8.8281 8.8125c-0.46094 0.40625-0.72656 0.67969-0.78125 0.73438-1.8086 1.8086-3.3594 3.8555-4.6094 6.0859l-0.24219 0.42969-0.14844 0.26562c-2.2656 3.9922-3.5 8.4883-3.5938 13.078 0 8.1016 4.625 15.625 8.5938 19.531 4.125 4.2695 9.8047 6.6875 15.742 6.7031 4.7305-0.015625 9.3398-1.4766 13.219-4.1875 2.582-2.6328 4.2266-6.0391 4.6875-9.6953l2.6328 2.6328c-0.5 2.0508-1.3164 4.0078-2.4219 5.8047 2.6055-0.23828 5.0352-0.55078 7.2969-0.92969l12.414 12.414c-8.5 7.3281-19.488 11.109-30.695 10.566-11.211-0.54688-21.781-5.3789-29.527-13.496s-12.078-18.902-12.098-30.125zm42.148-6.0234c3.2539 0.43359 6.2734 1.9258 8.5938 4.25 2.3945 2.4453 4 5.5586 4.6016 8.9297zm-5.4297 3.4453c-1.9219 0.55859-3.6719 1.5898-5.0859 3.0078-3.5938 3.6016-3.5938 9.4297 0 13.031 1.3203 1.332 3.1172 2.0781 4.9922 2.0781s3.6719-0.74609 4.9922-2.0781c2.0781-2.0859 2.0781-5.4609 0-7.5469-0.74219-0.74219-1.7461-1.1602-2.7969-1.1602-1.0508 0-2.0547 0.41797-2.7969 1.1602-1.1133 1.1133-1.1133 2.918 0 4.0312 0.76953 0.76953 2.0195 0.76953 2.7891 0 0.60938-0.60937 1.6016-0.60937 2.2109 0 0.60937 0.60938 0.60937 1.6016 0 2.2109-1.9922 1.9844-5.2109 1.9844-7.2031 0-1.1211-1.1211-1.75-2.6406-1.75-4.2266 0-1.5859 0.62891-3.1055 1.75-4.2266 2-1.9922 4.9922-2.6055 7.6172-1.5625l4.1797 4.1094c1.3984 3.1875 0.70312 6.9062-1.75 9.375-1.9062 1.918-4.5 2.9961-7.2031 2.9961-2.7031 0-5.2969-1.0781-7.2031-2.9961-4.8125-4.8203-4.8125-12.633 0-17.453 1.3867-1.3906 3.0312-2.4922 4.8438-3.25zm40.039 31.203l-9.5703-9.6094c1.832-0.51953 3.6211-1.1836 5.3516-1.9766 2.582-1.3398 4.1484-4.0547 4.0234-6.9609-1.2266-24.484-13.922-37.422-36.719-37.422-5.2891-0.003906-10.492 1.3398-15.117 3.9062l-9.6016-9.6094c11.27-9.5859 26.621-12.832 40.801-8.6211 14.184 4.2109 25.281 15.309 29.492 29.492 4.2109 14.18 0.96484 29.531-8.6211 40.801z"/>
</svg>
