<?xml version="1.0" encoding="UTF-8"?>
<svg width="100pt" height="100pt" version="1.1" viewBox="0 0 100 100" xmlns="http://www.w3.org/2000/svg">
 <path d="m50 0c-13.262 0-25.98 5.2695-35.355 14.645s-14.645 22.094-14.645 35.355 5.2695 25.98 14.645 35.355 22.094 14.645 35.355 14.645 25.98-5.2695 35.355-14.645 14.645-22.094 14.645-35.355c-0.015625-13.258-5.2852-25.965-14.66-35.34s-22.082-14.645-35.34-14.66zm-46.875 50c-0.015625-11.902 4.5156-23.359 12.664-32.031l15.109 15.133c-3.8359 8.5234-5.8477 17.754-5.8984 27.102 0 0.41406 0.078125 2.9688 0.10156 3.2109 1.0703 12.367 12.398 20.961 24.898 20.961 8.6953 0 16.812-4.1641 21.312-10.852l10.719 10.688c-8.9453 8.3711-20.812 12.91-33.062 12.641-12.246-0.26953-23.902-5.3242-32.473-14.082-8.5664-8.7539-13.367-20.52-13.371-32.77zm61.102 12.023l-18.438-18.438c3.4297-1.0117 7.1094-0.75 10.359 0.73047 3.2539 1.4844 5.8633 4.0938 7.3477 7.3477 1.4805 3.25 1.7422 6.9297 0.73047 10.359zm-1.3203 3.125c-2.2891 4.0312-6.3281 6.7656-10.926 7.3828-4.5938 0.62109-9.2148-0.94141-12.492-4.2227-3.2734-3.2812-4.8281-7.9062-4.1992-12.5 0.62891-4.5938 3.3672-8.6289 7.4062-10.91zm21.305 16.883l-11.289-11.32c1.0898-2.293 1.7617-4.7656 1.9766-7.2969 0-0.24219 0.10156-2.7969 0.10156-3.2109 0-21.484-11.719-44.578-25-44.578-6.7266 0-13.039 5.9062-17.641 14.523l-14.391-14.359c11.973-11.086 28.852-15.148 44.559-10.723 15.707 4.4258 27.98 16.699 32.406 32.406 4.4258 15.707 0.36328 32.586-10.723 44.559z"/>
</svg>
