<?xml version="1.0" encoding="UTF-8"?>
<svg width="100pt" height="100pt" version="1.1" viewBox="0 0 100 100" xmlns="http://www.w3.org/2000/svg">
 <g>
  <path d="m17.969 52.344c-3.0391 3.0391-2.0391 13.43 5.5234 20.992 5.0078 5.0078 10.938 7.3984 15.477 7.3984 2.3438 0 4.2734-0.63281 5.5156-1.875 3.6484-3.6484 2.0625-13.406-5.5234-20.992-7.5859-7.5859-17.93-8.5469-20.992-5.5234z"/>
  <path d="m50 0c-13.262 0-25.98 5.2695-35.355 14.645s-14.645 22.094-14.645 35.355 5.2695 25.98 14.645 35.355 22.094 14.645 35.355 14.645 25.98-5.2695 35.355-14.645 14.645-22.094 14.645-35.355c-0.015625-13.258-5.2852-25.965-14.66-35.34s-22.082-14.645-35.34-14.66zm-46.875 50c-0.015625-11.902 4.5156-23.359 12.664-32.031l23.555 23.586c1.2188 8.6328 6.1719 14.695 10.656 14.695 1.1055-0.027344 2.1836-0.34375 3.125-0.92188l5.4062 5.4062c-5.3984 7.0312-6.25 14.945-3.0312 18.148 1.2422 1.2422 3.1875 1.875 5.5156 1.875 3.6875 0 8.3281-1.5625 12.633-4.9062l8.3828 8.3594c-8.9453 8.3711-20.812 12.91-33.062 12.641-12.246-0.26953-23.902-5.3242-32.473-14.082-8.5664-8.7539-13.367-20.52-13.371-32.77zm81.086 32.031l-8.1953-8.2266 0.46875-0.44531c7.5625-7.5625 8.5938-17.969 5.5234-20.992-3.0703-3.0234-13.43-2.0391-20.992 5.5234-0.15625 0.15625-0.28906 0.3125-0.44531 0.47656l-5.0234-5.0312c3.0469-3.2578 5.3906-8.9922 5.3906-15.836 0-10.695-6.6328-18.75-10.938-18.75s-10.672 7.7344-10.938 18.117l-21.094-21.094c11.965-11.148 28.875-15.254 44.621-10.832 15.746 4.418 28.047 16.727 32.465 32.473 4.4141 15.746 0.30469 32.652-10.844 44.617z"/>
 </g>
</svg>
