<?xml version="1.0" encoding="UTF-8"?>
<svg width="100pt" height="100pt" version="1.1" viewBox="0 0 100 100" xmlns="http://www.w3.org/2000/svg">
 <path d="m96.328 10l-6.3281-6.3281-9.2812 6.8984c-13.523-10.539-31.504-13.422-47.645-7.6406-16.141 5.7852-28.199 19.43-31.953 36.16-3.7539 16.73 1.3203 34.219 13.445 46.344s29.613 17.199 46.344 13.445c16.73-3.7539 30.375-15.812 36.16-31.953 5.7812-16.141 2.8984-34.121-7.6406-47.645zm-4.1172 0.29688l-10.938 14.688-6.25-6.25 14.688-10.938zm-12.945 25.906l-15.469-15.469 3.3125-3.3125c0.29297-0.29297 0.69141-0.45703 1.1055-0.45703 0.41406 0 0.8125 0.16406 1.1055 0.45703l13.281 13.281c0.29297 0.29297 0.45703 0.69141 0.45703 1.1055 0 0.41406-0.16406 0.8125-0.45703 1.1055zm-3.7656-21.75l-2.7188 2.0156-1.2578-1.2578c-1.832-1.8281-4.793-1.8281-6.625 0l-4.2188 4.2188-25.445 11.383-13.859-13.859c7.4219-6.4492 16.805-10.203 26.629-10.656 9.8203-0.45312 19.508 2.4219 27.496 8.1562zm-69.25 35.547c-0.007812-10.52 3.7969-20.688 10.703-28.625l12.25 12.219c-7.7656 4.7812-13.191 12.578-14.977 21.523l-1.8438 9.2188 23.281 23.281 9.2188-1.8438c8.9453-1.7852 16.742-7.2109 21.523-14.977l12.25 12.25c-8.4961 7.3633-19.5 11.176-30.73 10.641-11.227-0.53125-21.82-5.3672-29.582-13.5-7.7617-8.1367-12.09-18.945-12.094-30.188zm87.5 0c0.007812 10.52-3.7969 20.688-10.703 28.625l-13.867-13.867 11.391-25.445 4.2188-4.2188c0.87891-0.87891 1.375-2.0742 1.375-3.3164 0-1.2422-0.49609-2.4375-1.375-3.3164l-1.2578-1.2578 2.0156-2.7109c5.3281 7.4375 8.1953 16.359 8.2031 25.508z"/>
</svg>
