<?xml version="1.0" encoding="UTF-8"?>
<svg width="100pt" height="100pt" version="1.1" viewBox="0 0 100 100" xmlns="http://www.w3.org/2000/svg">
 <path d="m50 0c-13.262 0-25.98 5.2695-35.355 14.645s-14.645 22.094-14.645 35.355 5.2695 25.98 14.645 35.355 22.094 14.645 35.355 14.645 25.98-5.2695 35.355-14.645 14.645-22.094 14.645-35.355c-0.015625-13.258-5.2852-25.965-14.66-35.34s-22.082-14.645-35.34-14.66zm-43.75 50c-0.007812-10.52 3.7969-20.688 10.703-28.625l16.695 16.695c-15.797 19.625-15.422 30.352-12.102 35.938l-0.27344 0.27344c-1.2227 1.2227-1.2227 3.1992 0 4.4219 1.2227 1.2227 3.1992 1.2227 4.4219 0l0.25-0.25c2.2422 1.3906 4.8398 2.1055 7.4766 2.0625 5.3828 0 11.914-2.5 19.531-7.4922 3.1211-2.0508 6.1367-4.2578 9.0312-6.6172l16.641 16.641c-8.4961 7.3516-19.496 11.152-30.715 10.613-11.223-0.53516-21.809-5.3711-29.562-13.496-7.7578-8.1289-12.086-18.93-12.098-30.164zm16.773 14.172c1.5273 1.3594 3.2773 2.4453 5.1719 3.2188l-4.3438 4.3438c-1.0625-2.3711-1.3516-5.0156-0.82812-7.5625zm28.125 1.1797c-2.2656-0.97656-4.6875-4.5391-5.5312-6.5547l2.8203-2.8438c1.3359 2.5859 3.6719 5.3203 6.3672 6.4766 0.42578 0.18359 0.86328 0.32812 1.3125 0.4375-2.4141 3.5391-4.3125 2.7578-4.9609 2.4844zm-8.4844-27.023c0.11719 0.48828 0.27734 0.96094 0.47656 1.4219 1.1914 2.4492 3.0781 4.4922 5.4219 5.875-0.078125 0.625-0.17188 1.1875-0.28125 1.6875l-1.8906 1.9062c-1.9141-0.78125-4.8906-2.7812-5.9531-5.2578-0.34375-0.8125-1.3281-3.1562 2.2266-5.6328zm9.375 4.8125c0.070313 0.070313 0.14844 0.125 0.21875 0.1875l-0.49219 0.49219c-1.9375-0.91406-4.6875-2.8984-5.75-5.3125-0.35156-0.78125-1.3828-3.2578 2.2578-5.7656-0.085938 3.8125 1.2539 7.5234 3.7578 10.398zm9.4531 10.859c-2.4141-1.0391-4.3984-3.8203-5.3125-5.75l0.48437-0.48438 0.19531 0.21094c2.7188 2.3633 6.1797 3.6992 9.7812 3.7734h0.60938c-2.5 3.6328-4.9453 2.5938-5.7578 2.2422zm6.25-5.4688c-3.6875 0.51562-7.8125-1.7656-8.7656-2.8906 1.2266-1.5625 6.8281-5.7578 10.938-6.3438 0.78125-0.10938 1.8047-0.13281 2.3438 0.375 0.29688 0.29688 0.78125 1.1172 0.44531 3.2578-0.51562 3.3906-2.125 5.2188-4.9688 5.625zm-7.0312-18.461c-0.57813 4.1094-4.7812 9.7188-6.3438 10.938-1.125-0.99219-3.4062-5.0859-2.8906-8.7656 0.375-2.8203 2.2031-4.4297 5.5547-4.8984 0.42969-0.0625 0.86328-0.097656 1.2969-0.10156 0.69922-0.082032 1.4023 0.11719 1.9609 0.54687 0.52344 0.5 0.5 1.5312 0.39063 2.3047zm-8.0156 21.648c0.5-0.10156 1.0625-0.19531 1.6875-0.27344 1.3828 2.3438 3.4258 4.2305 5.875 5.4219 0.46094 0.19922 0.93359 0.35547 1.4219 0.46875-2.4766 3.5547-4.8203 2.5703-5.6094 2.2266-2.4766-1.0625-4.4609-4.0391-5.2578-5.9531zm-15.57-7.8672c0.10938 0.44922 0.25391 0.88672 0.4375 1.3125 1.2578 2.9219 4.125 5.1328 6.4844 6.3594l-2.8438 2.8516c-2.0156-0.85156-5.5859-3.2656-6.5547-5.5391-0.27344-0.64063-1.0547-2.5391 2.4766-4.9844zm-5.3828 6.1484v0.085938c1.1328 2.6406 4.3828 5.2266 7.0938 6.6328l-3.9688 3.9688c-1.8516-1.0859-4.0859-2.9219-5-5.0625-0.32031-0.82812-1.3438-3.2109 1.875-5.625zm11.547 11.125c1.4062 2.7109 4 5.9609 6.6328 7.0938h0.085937c-2.4219 3.2188-4.8125 2.1953-5.625 1.8438-2.1328-0.92188-3.9766-3.125-5.0625-5zm-16.883-6.4375c0.11328 0.73828 0.32031 1.457 0.61719 2.1406 1.2422 2.5312 3.1875 4.6484 5.6016 6.1016l-1.9688 1.9922c-1.5625-0.35156-5.2891-2.2109-6.7188-4.4219 0.67188-2 1.4961-3.9414 2.4688-5.8125zm6.2031 17.094c0.78516 1.9648 1.9102 3.7734 3.3281 5.3438-2.6055 0.50781-5.3086 0.17578-7.7109-0.95312zm7.1172 4.3906c-2.3438-1.3125-4.2812-5.2109-4.6484-6.8672l1.9609-1.9609c1.4531 2.4141 3.5703 4.3594 6.1016 5.6016 0.81641 0.35938 1.6836 0.58203 2.5703 0.66406-1.9219 1.0273-3.9219 1.8945-5.9844 2.5938zm43.312 2.4219l-16.273-16.25c4.5234-3.9922 8.1562-7.6172 10.086-9.5469 6.7422-6.7031 3.9609-19.852 0.96094-23.836-0.25-0.32813-0.10938-1.125 0.5-1.7344 1.7578-1.7578 1.9453-4.4297 0.41406-5.9531-1.5312-1.5234-4.1953-1.3438-5.9531 0.42187-0.60938 0.60938-1.3984 0.78125-1.7266 0.5-3.9922-3.0078-17.141-5.7891-23.852 0.95313-3.5859 3.5859-6.7422 6.9531-9.5078 10.156l-16.312-16.352c11.27-9.5859 26.621-12.832 40.801-8.6211 14.184 4.2109 25.281 15.309 29.492 29.492 4.2109 14.18 0.96484 29.531-8.6211 40.801z"/>
</svg>
