<?xml version="1.0" encoding="UTF-8"?>
<svg width="100pt" height="100pt" version="1.1" viewBox="0 0 100 100" xmlns="http://www.w3.org/2000/svg">
 <g>
  <path d="m54.688 10.938h-9.375c-1.7266 0-3.125 1.3984-3.125 3.125s1.3984 3.125 3.125 3.125h9.375c1.7266 0 3.125-1.3984 3.125-3.125s-1.3984-3.125-3.125-3.125z"/>
  <path d="m50 0c-13.262 0-25.98 5.2695-35.355 14.645s-14.645 22.094-14.645 35.355 5.2695 25.98 14.645 35.355 22.094 14.645 35.355 14.645 25.98-5.2695 35.355-14.645 14.645-22.094 14.645-35.355c-0.015625-13.258-5.2852-25.965-14.66-35.34s-22.082-14.645-35.34-14.66zm-46.875 50c-0.015625-11.902 4.5156-23.359 12.664-32.031l20.438 20.469c-1.7812 3.6719-2.6328 9.1562-2.6328 16.828v24.422c0 2.0703 0.82422 4.0586 2.2891 5.5234 1.4648 1.4648 3.4531 2.2891 5.5234 2.2891h17.188c2.0703 0 4.0586-0.82422 5.5234-2.2891 1.4648-1.4648 2.2891-3.4531 2.2891-5.5234v-11.07l15.625 15.625c-8.9492 8.375-20.82 12.91-33.07 12.641-12.254-0.27344-23.91-5.332-32.48-14.094-8.5664-8.7656-13.359-20.535-13.355-32.789zm33.594 11.195c0.39844-1.0352 1.2188-1.8555 2.2578-2.25 1.5625-0.57812 4.5234-0.5 9.7969 3.0469 0.097656 0.125 0.21484 0.23047 0.34375 0.32031 3.9609 2.7266 7.4141 4.0938 10.258 4.0938 0.91406 0.007812 1.8242-0.14453 2.6875-0.45312 0.38672-0.14062 0.76172-0.31641 1.1172-0.52344l0.070312 0.070312v14.188c0 2.5898-2.0977 4.6875-4.6875 4.6875h-17.156c-2.5898 0-4.6875-2.0977-4.6875-4.6875zm47.492 20.836l-17.805-17.836v-8.9297c0-10.398-1.5625-16.789-4.8906-20.078-0.45312-0.52344-5.2656-6.375-5.9688-13.312 0.86328-0.023438 1.5469-0.73828 1.5234-1.6016-0.023437-0.86328-0.73828-1.5469-1.6016-1.5234h-10.938c-0.86328-0.023438-1.5781 0.66016-1.6016 1.5234-0.023438 0.86328 0.66016 1.5781 1.5234 1.6016-0.70312 6.9141-5.5234 12.789-5.9688 13.281-0.17969 0.17969-0.35156 0.36719-0.52344 0.5625l-19.992-19.93c11.973-11.086 28.852-15.148 44.559-10.723 15.707 4.4258 27.98 16.699 32.406 32.406 4.4258 15.707 0.36328 32.586-10.723 44.559z"/>
 </g>
</svg>
