<?xml version="1.0" encoding="UTF-8"?>
<svg width="100pt" height="100pt" version="1.1" viewBox="0 0 100 100" xmlns="http://www.w3.org/2000/svg"><g fill="#1C1C1C" stroke="#1C1C1C" stroke-width="2.5" fill-rule="evenodd">
 <g>
  <path d="m45.656 27.672c1.6133 0 2.9258-1.3125 2.9258-2.9258 0-1.6133-1.3125-2.9258-2.9258-2.9258s-2.9258 1.3125-2.9258 2.9258c0 1.6133 1.3125 2.9258 2.9258 2.9258zm0-4.6797c0.96875 0 1.7539 0.78516 1.7539 1.7539s-0.78516 1.7539-1.7539 1.7539-1.7539-0.78516-1.7539-1.7539c0-0.96484 0.78906-1.7539 1.7539-1.7539z"/>
  <path d="m45.656 36.07c1.6133 0 2.9258-1.3125 2.9258-2.9258s-1.3125-2.9258-2.9258-2.9258-2.9258 1.3125-2.9258 2.9258c0 1.6172 1.3125 2.9258 2.9258 2.9258zm0-4.6758c0.96875 0 1.7539 0.78516 1.7539 1.7539s-0.78516 1.7539-1.7539 1.7539-1.7539-0.78516-1.7539-1.7539c0-0.96484 0.78906-1.7539 1.7539-1.7539z"/>
  <path d="m45.656 44.477c1.6133 0 2.9258-1.3125 2.9258-2.9258s-1.3125-2.9258-2.9258-2.9258-2.9258 1.3125-2.9258 2.9258 1.3125 2.9258 2.9258 2.9258zm0-4.6797c0.96875 0 1.7539 0.78516 1.7539 1.7539s-0.78516 1.7539-1.7539 1.7539-1.7539-0.78516-1.7539-1.7539c0-0.96484 0.78906-1.7539 1.7539-1.7539z"/>
  <path d="m51.422 28.949c0 1.6133 1.3125 2.9258 2.9258 2.9258 1.6133 0 2.9258-1.3125 2.9258-2.9258s-1.3125-2.9258-2.9258-2.9258c-1.6172 0.003906-2.9258 1.3125-2.9258 2.9258zm2.9219-1.7539c0.96875 0 1.7539 0.78516 1.7539 1.7539s-0.78516 1.7539-1.7539 1.7539-1.7539-0.78516-1.7539-1.7539 0.78516-1.7539 1.7539-1.7539z"/>
  <path d="m54.344 34.43c-1.6133 0-2.9258 1.3125-2.9258 2.9258s1.3125 2.9258 2.9258 2.9258 2.9258-1.3125 2.9258-2.9258c0-1.6172-1.3125-2.9258-2.9258-2.9258zm0 4.6758c-0.96875 0-1.7539-0.78516-1.7539-1.7539s0.78516-1.7539 1.7539-1.7539 1.7539 0.78516 1.7539 1.7539c0 0.96484-0.78906 1.7539-1.7539 1.7539z"/>
  <path d="m54.344 42.828c-1.6133 0-2.9258 1.3125-2.9258 2.9258 0 1.6133 1.3125 2.9258 2.9258 2.9258s2.9258-1.3125 2.9258-2.9258c0-1.6133-1.3125-2.9258-2.9258-2.9258zm0 4.6797c-0.96875 0-1.7539-0.78516-1.7539-1.7539s0.78516-1.7539 1.7539-1.7539 1.7539 0.78516 1.7539 1.7539-0.78906 1.7539-1.7539 1.7539z"/>
  <path d="m52.926 18.984c0-1.6133-1.3125-2.9258-2.9258-2.9258s-2.9258 1.3125-2.9258 2.9258c0 1.4102 1.0078 2.5938 2.3398 2.8633v61.508c0 0.32031 0.26172 0.58594 0.58594 0.58594 0.32031 0 0.58594-0.26172 0.58594-0.58594l-0.003907-61.508c1.332-0.27344 2.3438-1.4531 2.3438-2.8633zm-4.6797 0c0-0.96875 0.78516-1.7539 1.7539-1.7539s1.7539 0.78516 1.7539 1.7539-0.78516 1.7539-1.7539 1.7539c-0.96875-0.003906-1.7539-0.78906-1.7539-1.7539z"/>
  <path d="m23.043 42.629c0.19141 0.19141 0.25781 0.46094 0.17578 0.71875-0.082031 0.25781-0.28906 0.44141-0.55469 0.48828l-0.48828 0.085937c-1.1914 0.21094-1.9922 1.3516-1.7812 2.543 0.1875 1.0625 1.1172 1.8164 2.1602 1.8164 0.125 0 0.25391-0.011719 0.38281-0.035156l4.5039-0.79297c0.22656-0.039063 0.46484 0.035156 0.62891 0.19922 0.19141 0.19141 0.25781 0.46094 0.17578 0.72266-0.085938 0.26172-0.29297 0.44141-0.5625 0.48438l-2.3633 0.39453c-0.59375 0.097656-1.1055 0.42578-1.4453 0.91406-0.34375 0.49219-0.46484 1.0898-0.35156 1.6758 0.11328 0.57031 0.44922 1.0625 0.94922 1.3906 0.48438 0.3125 1.0625 0.4375 1.6328 0.33984l0.72266-0.12109c3.9453-0.65625 7.9961 0.13672 11.406 2.2305l0.44922 0.27344c0.09375 0.058594 0.19922 0.085938 0.30469 0.085938 0.15234 0 0.30078-0.058594 0.41406-0.17188 0.19141-0.19141 0.22656-0.48828 0.085937-0.71875l-0.27734-0.44922c-2.0977-3.4062-2.8867-7.457-2.2305-11.406l0.12109-0.73438c0.1875-1.1211-0.46875-2.2031-1.5234-2.5195-0.60938-0.18359-1.2656-0.09375-1.7969 0.23828-0.53516 0.33594-0.90234 0.88281-1.0078 1.5039l-0.39063 2.3633c-0.042968 0.26953-0.22656 0.47656-0.48437 0.5625-0.26172 0.085937-0.53125 0.019531-0.72266-0.17578-0.16406-0.16406-0.23828-0.39844-0.19922-0.62891l0.79297-4.5039c0.21094-1.1914-0.58984-2.3359-1.7812-2.5469-1.1914-0.21094-2.3359 0.58984-2.543 1.7812l-0.085937 0.48828c-0.046875 0.26562-0.23047 0.47266-0.48828 0.55469-0.25781 0.082031-0.52734 0.015624-0.71875-0.17578l-3.3906-3.3711c-0.40625-0.40625-0.94922-0.64844-1.5273-0.67187-0.59375-0.027344-1.1562 0.17969-1.5781 0.57812-0.4375 0.41016-0.68359 0.96875-0.69141 1.5664-0.007813 0.60156 0.21875 1.1602 0.64453 1.5859zm-2.5859-5.7383c0.39844-0.375 1.0625-0.34766 1.4766 0.070313l3.3906 3.3906c0.49609 0.49609 1.2266 0.67578 1.8984 0.46484 0.67188-0.21094 1.1641-0.77344 1.2891-1.4688l0.085937-0.48828c0.097656-0.55859 0.63281-0.93359 1.1914-0.83594 0.55859 0.097656 0.93359 0.63281 0.83594 1.1914l-0.79297 4.5039c-0.10547 0.60547 0.089844 1.2227 0.52344 1.6562 0.5 0.5 1.2305 0.67969 1.9062 0.46094 0.67578-0.21484 1.1641-0.78516 1.2812-1.4844l0.39062-2.3633c0.046875-0.29297 0.21875-0.54688 0.46875-0.70312 0.25391-0.15625 0.55469-0.19922 0.84375-0.10938 0.48047 0.14453 0.79297 0.67578 0.70312 1.2031l-0.12109 0.73438c-0.61328 3.6914-0.042969 7.4648 1.6055 10.793-2.4531-1.2148-5.1523-1.8477-7.8828-1.8477-0.96875 0-1.9453 0.078125-2.9102 0.23828l-0.72266 0.12109c-0.57812 0.097656-1.1367-0.26562-1.2422-0.80078-0.054687-0.27734 0.003907-0.55469 0.16406-0.78516s0.39844-0.38281 0.67578-0.42969l2.3633-0.39453c0.69922-0.11719 1.2695-0.60937 1.4844-1.2812 0.21484-0.67578 0.039063-1.4023-0.46094-1.9062-0.43359-0.43359-1.0547-0.62891-1.6562-0.52344l-4.5039 0.79297c-0.55859 0.097656-1.0938-0.27734-1.1914-0.83594-0.097656-0.55859 0.27734-1.0938 0.83594-1.1914l0.48828-0.085938c0.69531-0.12109 1.2578-0.61719 1.4688-1.2891s0.035156-1.3984-0.46484-1.8984l-3.4375-3.4375c-0.19922-0.19922-0.30469-0.46094-0.30078-0.74219-0.003906-0.26562 0.10938-0.52734 0.31641-0.71875z"/>
  <path d="m61.012 56.051c0.10547 0 0.21094-0.027343 0.30469-0.085937l0.44922-0.27344c3.4062-2.0977 7.457-2.8867 11.406-2.2305l0.72266 0.12109c0.57031 0.09375 1.1484-0.027343 1.6328-0.33984 0.5-0.32422 0.83594-0.81641 0.94922-1.3906 0.11719-0.58984-0.007812-1.1836-0.35156-1.6758-0.34375-0.49219-0.85547-0.81641-1.4453-0.91406l-2.3633-0.39453c-0.26953-0.042969-0.47656-0.22656-0.5625-0.48438-0.085937-0.26172-0.019531-0.53125 0.17578-0.72266l0.003906-0.003906c0.16406-0.16406 0.39844-0.23438 0.625-0.19531l4.5039 0.79297c0.12891 0.023438 0.25781 0.035156 0.38281 0.035156 1.0469 0 1.9766-0.75391 2.1602-1.8164 0.21094-1.1914-0.58984-2.3359-1.7812-2.543l-0.48828-0.085938c-0.26563-0.046875-0.47266-0.23047-0.55469-0.48828-0.082031-0.25781-0.015625-0.52734 0.17578-0.71875l3.4375-3.4375c0.42578-0.42578 0.65234-0.98828 0.64453-1.5859-0.007812-0.60156-0.25391-1.1562-0.69141-1.5664-0.42578-0.39844-0.98438-0.60547-1.5781-0.57812-0.57422 0.027344-1.1172 0.26562-1.5273 0.67188l-3.3906 3.3906c-0.19141 0.19141-0.46094 0.25781-0.71875 0.17578-0.25781-0.082031-0.44141-0.28906-0.48828-0.55469l-0.085937-0.48828c-0.21094-1.1914-1.3516-1.9922-2.5469-1.7812-1.1914 0.21094-1.9922 1.3516-1.7812 2.5469l0.79297 4.5039c0.039062 0.22656-0.035157 0.46484-0.19922 0.62891-0.19141 0.19141-0.46094 0.25781-0.72266 0.17578-0.26172-0.085937-0.44141-0.29297-0.48437-0.5625l-0.39844-2.375c-0.10547-0.62109-0.46875-1.1719-1.0078-1.5039-0.53516-0.33594-1.1914-0.42188-1.7969-0.23828-1.0547 0.3125-1.707 1.3984-1.5234 2.5195l0.12109 0.73438c0.65625 3.9453-0.13672 7.9961-2.2305 11.406l-0.27734 0.44922c-0.14062 0.23047-0.10547 0.52734 0.085938 0.71875 0.12109 0.10547 0.27344 0.16406 0.42188 0.16406zm3.1641-12.934-0.12109-0.73438c-0.089844-0.53125 0.21875-1.0586 0.70312-1.2031 0.29297-0.089844 0.58984-0.046876 0.84375 0.10937 0.25 0.15625 0.42188 0.41016 0.46875 0.70313l0.39063 2.3633c0.11719 0.69922 0.60937 1.2695 1.2812 1.4844 0.67578 0.21484 1.4023 0.039062 1.9062-0.46094 0.43359-0.43359 0.62891-1.0547 0.52344-1.6562l-0.79297-4.5039c-0.097656-0.55859 0.27734-1.0938 0.83594-1.1914s1.0938 0.27734 1.1914 0.83594l0.085938 0.48828c0.12109 0.69531 0.61719 1.2578 1.2891 1.4688 0.1875 0.058594 0.37891 0.089844 0.56641 0.089844 0.48828 0 0.96875-0.19141 1.3281-0.55078l3.3906-3.3906c0.41406-0.41406 1.0781-0.44531 1.4766-0.070312 0.20312 0.19141 0.32031 0.45312 0.32422 0.73437 0.003906 0.28125-0.10156 0.54297-0.30078 0.74219l-3.4375 3.4375c-0.49609 0.49609-0.67578 1.2266-0.46484 1.8984 0.21094 0.67187 0.77344 1.1641 1.4688 1.2891l0.48828 0.085938c0.55859 0.097656 0.93359 0.63281 0.83594 1.1914-0.097656 0.55859-0.63281 0.93359-1.1914 0.83594l-4.5039-0.79297c-0.60547-0.10547-1.2227 0.089844-1.6562 0.52344l-0.003907 0.003906c-0.5 0.5-0.67578 1.2305-0.46094 1.9023 0.21484 0.67578 0.78516 1.1641 1.4844 1.2812l2.3633 0.39453c0.27734 0.046875 0.51562 0.19922 0.67578 0.42969 0.16016 0.23047 0.21875 0.50781 0.16406 0.78516-0.10547 0.53906-0.66406 0.89844-1.2422 0.80078l-0.72266-0.12109c-3.6914-0.61328-7.4648-0.042968-10.793 1.6055 1.6484-3.3438 2.2188-7.1211 1.6055-10.809z"/>
  <path d="m48.367 76.953-0.53125-0.38672c-4.0742-2.9688-6.9375-7.3086-8.0625-12.223l-0.20703-0.90625c-0.30078-1.3125-1.5039-2.2031-2.8008-2.0742-0.74609 0.074219-1.4297 0.46484-1.8633 1.0703-0.4375 0.60547-0.58984 1.3711-0.42578 2.1016l0.66797 2.9219c0.089844 0.38672-0.039062 0.76953-0.34375 1.0273-0.30469 0.25781-0.70312 0.31641-1.0703 0.16406-0.3125-0.12891-0.54297-0.40625-0.61328-0.73438l-1.2227-5.5898c-0.30469-1.4023-1.6953-2.293-3.0977-1.9844-1.3984 0.30469-2.293 1.6953-1.9844 3.0977l0.13281 0.60547c0.085938 0.38672-0.046874 0.76562-0.35156 1.0195s-0.70312 0.3125-1.0664 0.16016l-5.5352-2.3125c-0.63281-0.26562-1.3359-0.28125-1.9805-0.050781-0.66406 0.23828-1.1836 0.71484-1.4688 1.3438-0.29297 0.64844-0.3125 1.3672-0.050781 2.0273 0.26172 0.66016 0.76562 1.1758 1.418 1.4492l5.6133 2.3438c0.36328 0.15234 0.60156 0.47656 0.63281 0.87109 0.035156 0.39453-0.14453 0.75391-0.48047 0.96484l-0.52344 0.32812c-1.2109 0.76953-1.5742 2.3789-0.80859 3.5898 0.49219 0.78125 1.3398 1.2109 2.2031 1.2109 0.47656 0 0.95703-0.12891 1.3867-0.40234l4.8359-3.0586c0.28516-0.17969 0.64062-0.21094 0.95312-0.082032 0.003906 0 0.003906 0.003907 0.003906 0.003907 0.36719 0.15234 0.60547 0.48047 0.63672 0.875s-0.15234 0.75781-0.48828 0.96484l-2.5469 1.5781c-0.60547 0.375-1.0195 0.96094-1.1719 1.6523-0.15234 0.69141-0.019531 1.3984 0.37109 1.9922 0.37891 0.57422 0.96875 0.96094 1.6641 1.0938 0.17188 0.03125 0.33984 0.046875 0.50781 0.046875 0.50391 0 1.0039-0.14062 1.4414-0.41016l0.78125-0.48047c4.2852-2.6523 9.3828-3.6719 14.359-2.8633l0.64844 0.10547c0.26953 0.042969 0.53125-0.10156 0.63281-0.35156 0.10547-0.25 0.027344-0.53906-0.19531-0.69922zm-16.062 2.8125-0.78125 0.48047c-0.69141 0.42969-1.5977 0.25781-2.0195-0.38281-0.21484-0.32422-0.28906-0.71484-0.20703-1.0977 0.085937-0.38281 0.3125-0.70703 0.64453-0.91016l2.5469-1.5781c0.70703-0.4375 1.1055-1.2227 1.0391-2.0508-0.066406-0.82812-0.58203-1.5391-1.3477-1.8594-0.003907 0-0.003907-0.003907-0.003907-0.003907-0.66406-0.27734-1.4258-0.21484-2.0312 0.17188l-4.8359 3.0586c-0.66797 0.42188-1.5547 0.22266-1.9766-0.44531-0.42188-0.66797-0.22266-1.5547 0.44531-1.9766l0.52344-0.32812c0.69922-0.44141 1.0898-1.2266 1.0195-2.0508-0.070312-0.82422-0.58594-1.5352-1.3516-1.8516l-5.6094-2.3438c-0.35938-0.14844-0.63672-0.43359-0.78125-0.79688s-0.13281-0.76172 0.027344-1.1172c0.31641-0.69922 1.1836-1.0117 1.9336-0.69531l5.5352 2.3125c0.76172 0.31641 1.6289 0.1875 2.2656-0.34375 0.63281-0.53125 0.92188-1.3594 0.74219-2.168l-0.13281-0.60547c-0.16797-0.77344 0.32031-1.5352 1.0938-1.707 0.77344-0.16797 1.5352 0.32031 1.707 1.0938l1.2227 5.5898c0.15234 0.70312 0.64062 1.2891 1.3047 1.5664 0.76562 0.32031 1.6367 0.1875 2.2734-0.35156 0.63672-0.53516 0.91406-1.3711 0.73047-2.1836l-0.66797-2.918c-0.09375-0.40234-0.007812-0.82031 0.23438-1.1562 0.24219-0.33984 0.60938-0.54688 1.0312-0.58984 0.71094-0.070313 1.375 0.43359 1.543 1.1758l0.20703 0.90625c1.0703 4.6797 3.6367 8.8672 7.2852 11.941-4.7461-0.43359-9.5273 0.6875-13.609 3.2148z"/>
  <path d="m83.453 64.199c-0.28516-0.625-0.80469-1.1055-1.4688-1.3438-0.64453-0.23047-1.3477-0.21484-1.9805 0.050781l-5.5352 2.3125c-0.36328 0.15234-0.76172 0.09375-1.0664-0.16016-0.30469-0.25391-0.43359-0.63281-0.35156-1.0195l0.13281-0.60547c0.30469-1.4023-0.58594-2.7891-1.9844-3.0977-1.4023-0.30469-2.7891 0.58594-3.0977 1.9844l-1.2227 5.5898c-0.070312 0.32812-0.30078 0.60547-0.61328 0.73438-0.36719 0.15234-0.76562 0.09375-1.0703-0.16406-0.30469-0.25781-0.43359-0.64062-0.34375-1.0273l0.66797-2.9219c0.16406-0.72656 0.011719-1.4922-0.42578-2.1016-0.4375-0.60547-1.1133-0.99609-1.8633-1.0703-1.2969-0.12891-2.5 0.76172-2.8008 2.0742l-0.20703 0.90625c-1.125 4.9141-3.9883 9.2539-8.0625 12.223l-0.53125 0.38672c-0.21875 0.16016-0.30078 0.44922-0.19531 0.69922 0.10547 0.25 0.36719 0.39453 0.63281 0.35156l0.64844-0.10547c4.9766-0.80859 10.074 0.20703 14.359 2.8633l0.78125 0.48047c0.4375 0.26953 0.93359 0.41016 1.4414 0.41016 0.17188 0 0.33984-0.015626 0.50781-0.046876 0.69141-0.13281 1.2852-0.51953 1.6641-1.0938 0.39062-0.59375 0.52344-1.3008 0.37109-1.9922-0.15234-0.69531-0.56641-1.2812-1.1719-1.6523l-2.5469-1.5781c-0.33984-0.21094-0.51953-0.57031-0.48828-0.96484 0.03125-0.39453 0.26953-0.72266 0.63672-0.875 0 0 0.003907 0 0.003907-0.003906 0.3125-0.12891 0.66797-0.10156 0.95312 0.082032l4.8359 3.0586c0.42969 0.27344 0.91016 0.40234 1.3867 0.40234 0.86328 0 1.707-0.42969 2.2031-1.2109 0.76562-1.2109 0.40234-2.8203-0.80859-3.5898l-0.52344-0.32812c-0.33594-0.21094-0.51172-0.57031-0.48047-0.96484 0.035156-0.39453 0.26953-0.71875 0.63281-0.87109l5.6133-2.3438c0.65234-0.27344 1.1562-0.78906 1.418-1.4492 0.26172-0.66016 0.24219-1.3789-0.050781-2.0273zm-1.0352 1.5977c-0.14453 0.36328-0.42188 0.64453-0.78125 0.79688l-5.6133 2.3477c-0.76172 0.31641-1.2812 1.0273-1.3516 1.8516s0.32031 1.6094 1.0195 2.0508l0.52344 0.32812c0.66797 0.42188 0.86719 1.3086 0.44531 1.9766-0.42188 0.66797-1.3086 0.86719-1.9766 0.44531l-4.8359-3.0586c-0.60938-0.38281-1.3672-0.44922-2.0312-0.17188-0.003906 0-0.003906 0.003907-0.003906 0.003907-0.76562 0.32031-1.2812 1.0352-1.3477 1.8594-0.066406 0.82813 0.33203 1.6133 1.0391 2.0508l2.5469 1.5781c0.33203 0.20703 0.5625 0.53125 0.64453 0.91016 0.085938 0.38281 0.011719 0.77344-0.20703 1.0977-0.42188 0.63672-1.3281 0.80859-2.0195 0.38281l-0.78125-0.48047c-3.5117-2.1758-7.5352-3.3086-11.621-3.3086-0.66406 0-1.3281 0.03125-1.9922 0.089844 3.6484-3.0742 6.2109-7.2656 7.2852-11.941l0.20703-0.90625c0.17188-0.73828 0.83594-1.2422 1.543-1.1758 0.42188 0.042968 0.78516 0.25391 1.0312 0.58984 0.23828 0.33594 0.32422 0.75781 0.23438 1.1562l-0.66797 2.9219c-0.1875 0.80859 0.09375 1.6445 0.73047 2.1836 0.63672 0.53516 1.5078 0.67188 2.2734 0.35156 0.66406-0.27734 1.1523-0.86328 1.3047-1.5664l1.2227-5.5898c0.16797-0.77344 0.93359-1.2617 1.707-1.0938 0.77344 0.16797 1.2617 0.93359 1.0938 1.707l-0.13281 0.60547c-0.17578 0.80859 0.10938 1.6367 0.74219 2.168 0.63281 0.53125 1.5039 0.66016 2.2656 0.34375l5.5352-2.3125c0.75-0.3125 1.6172 0 1.9336 0.69531 0.16797 0.35547 0.17578 0.75 0.035157 1.1133z"/>
 </g>
</g></svg>
