<?xml version="1.0" encoding="UTF-8"?>
<svg width="100pt" height="100pt" version="1.1" viewBox="0 0 100 100" xmlns="http://www.w3.org/2000/svg"><g fill="#1C1C1C" stroke="#1C1C1C" stroke-width="2.5" fill-rule="evenodd">
 <g>
  <path d="m34.59 46.094c-4.0664-0.50391-7.5273-3.1914-9.0234-7.0156-0.125-0.31641-0.48438-0.47656-0.80078-0.35156s-0.47656 0.48438-0.35156 0.80078c0.80469 2.0586 2.1562 3.8711 3.9023 5.2422 1.7734 1.3906 3.8906 2.2734 6.1211 2.5469 0.027344 0.003906 0.050781 0.003906 0.074219 0.003906 0.30859 0 0.57422-0.23047 0.61328-0.54297 0.046875-0.33594-0.19531-0.64453-0.53516-0.68359z"/>
  <path d="m44.812 46.781c0.039062 0.3125 0.30469 0.54297 0.61328 0.54297 0.027344 0 0.050781-0.003907 0.074219-0.003907 2.2305-0.27344 4.3477-1.1562 6.1211-2.5469 1.7461-1.3711 3.0977-3.1836 3.9023-5.2422 0.125-0.31641-0.03125-0.67969-0.35156-0.80078-0.31641-0.125-0.67969 0.03125-0.80078 0.35156-1.4961 3.8242-4.9531 6.5156-9.0234 7.0156-0.33594 0.035156-0.57422 0.34375-0.53516 0.68359z"/>
  <path d="m34.723 39.027c-2.6992-0.97266-4.5156-3.5547-4.5156-6.4258 0-0.34375-0.27734-0.62109-0.62109-0.62109s-0.62109 0.27734-0.62109 0.62109c0 1.6953 0.51953 3.3125 1.5039 4.6875 0.96094 1.3438 2.2852 2.3477 3.8359 2.9023 0.070312 0.023438 0.14062 0.035156 0.21094 0.035156 0.25391 0 0.49219-0.15625 0.58203-0.41016 0.11328-0.32031-0.050781-0.67578-0.375-0.78906z"/>
  <path d="m45.43 40.227c0.070312 0 0.14062-0.011718 0.21094-0.035156 1.5469-0.55469 2.8711-1.5586 3.8359-2.9023 0.98047-1.3711 1.5039-2.9922 1.5039-4.6875 0-0.34375-0.27734-0.62109-0.62109-0.62109s-0.62109 0.27734-0.62109 0.62109c0 2.8711-1.8125 5.4531-4.5156 6.4258-0.32031 0.11719-0.48828 0.46875-0.375 0.79297 0.089844 0.25 0.32812 0.40625 0.58203 0.40625z"/>
  <path d="m81.727 58.492c-0.078124-0.19922-0.25781-0.34375-0.47266-0.37891-6.9492-1.1719-14.25-1.7578-21.836-1.7578-5.9062 0-11.988 0.35547-18.211 1.0664h-0.003906l-0.61719 0.074219v-2.7227h0.625c1.2656 0.26953 3.3789 0.62109 5.8008 0.62109 0.96484 0 1.9766-0.054687 3.0039-0.19531 2.125-0.28906 4.0117-0.89453 5.6055-1.8086 1.9297-1.1055 3.4492-2.668 4.5117-4.6406 0.82031-1.5234 1.3242-3.1289 1.5-4.7773 0.16406-1.5312 0.046876-3.1172-0.35156-4.7109-0.36719-1.4688-0.97266-2.9609-1.8008-4.4258-0.76953-1.3594-1.7266-2.6992-2.8516-3.9805-0.011718-0.015625-0.023437-0.027344-0.035156-0.039063-1.082-1.2383-2.3125-2.4141-3.6562-3.4922-4.5-3.625-9.168-7.3711-12.438-12.727-0.11328-0.18359-0.3125-0.29688-0.52734-0.29688s-0.41406 0.11328-0.52734 0.29688c-3.2773 5.3672-7.9414 9.1094-12.449 12.727-1.6445 1.3203-3.1211 2.7852-4.3789 4.3516-1.3672 1.6992-2.4375 3.457-3.1758 5.2344-0.81641 1.9609-1.2227 3.918-1.207 5.8203 0.019531 2.0938 0.54688 4.1172 1.5703 6.0234 1.3203 2.4492 3.3242 4.2539 5.9609 5.3633 2.0625 0.87109 4.4844 1.3086 7.2109 1.3086 0.20313 0 0.41016-0.003906 0.62109-0.007812 2.3398-0.054688 4.3086-0.41797 5.3164-0.64062h0.44141v2.875l-0.58594 0.070312h-0.007812c-2.2773 0.30469-4.9102 0.78906-7.1797 2.0547-0.80469 0.44922-1.5352 1.0234-2.1172 1.6719-0.66016 0.73438-1.1016 1.5195-1.3164 2.3398-0.30469 1.1641-0.11328 2.3477 0.55078 3.4258 0.71875 1.168 1.875 1.9648 3.4375 2.3711 1.1523 0.29687 2.5469 0.37891 4.0391 0.23047 0.82031-0.078125 1.7109-0.22656 2.8008-0.46875 0.003907 0 0.003907 0 0.003907-0.003906l0.37109-0.085938v3.3164c-0.26953 0.11328-0.53125 0.23828-0.79297 0.37109-0.95703 0.49219-1.7227 1.0586-2.3438 1.7344-1.0781 1.1758-1.5742 2.7344-1.3984 4.3945 0.16406 1.543 0.91406 3.043 2.0625 4.1172 1.7812 1.6641 4.1641 2.5078 7.1016 2.5078 0.29688 0 0.59766-0.007813 0.90234-0.027344 2.3672-0.13281 5.0352-0.76172 8.1445-1.918 5.1914-1.9336 10.723-5.5859 16.441-10.855 4.0195-3.7031 8.0039-8.2227 12.176-13.809 0.13281-0.17188 0.16406-0.39844 0.082031-0.59766zm-42.883-4.957c-0.046875 0-0.089844 0.007813-0.13672 0.015625-0.93359 0.20703-3.1328 0.62891-5.7266 0.62891-2.1406 0-4.5469-0.28516-6.7344-1.207-2.3711-0.99609-4.1719-2.6172-5.3555-4.8086-3.9766-7.3828 0.94531-15.109 6.875-19.871 2.1992-1.7656 4.6914-3.7656 6.9219-5.9219 2.1641-2.0938 3.8594-4.1133 5.2812-6.2891 1.4219 2.1758 3.1211 4.1953 5.2852 6.2891 2.2227 2.1484 4.7188 4.1523 6.9219 5.9219 1.3008 1.043 2.4883 2.1797 3.5312 3.3789 0.011719 0.015625 0.023438 0.027344 0.039063 0.039063 2.8242 3.2383 6.9688 9.6523 3.3047 16.453-4.1133 7.6367-14.539 6.0547-17.637 5.3867-0.042968-0.011719-0.085937-0.015625-0.12891-0.015625h-0.69141l-0.003906-0.63672c1.8828-0.29688 3.3242-1.9297 3.3242-3.8945v-14.148c0-1.0664-0.42187-2.0664-1.1797-2.8125-0.76172-0.74609-1.7695-1.1484-2.8359-1.1289-2.1328 0.039063-3.8711 1.8555-3.8711 4.0508v14.043c0 1.9609 1.4414 3.5938 3.3203 3.8945v0.63672zm1.1289-1.8242c-1.4922 0-2.7031-1.2109-2.7031-2.7031v-14.043c0-1.5234 1.1914-2.7852 2.6523-2.8125h0.050781c0.71484 0 1.3867 0.27344 1.8945 0.77734 0.52344 0.51172 0.80859 1.1992 0.80859 1.9297v14.148c0 1.4883-1.2109 2.7031-2.7031 2.7031zm-1.2656 16.422c-1.0352 0.23047-1.8789 0.37109-2.6523 0.44531-1.7812 0.17969-4.9688 0.14844-6.3008-2.0195-0.48828-0.79297-0.625-1.625-0.40625-2.4648 0.31641-1.2188 1.3789-2.4297 2.8359-3.2383 2.0859-1.1641 4.5742-1.6172 6.7383-1.9062l0.42969-0.050781v9.0898zm1.8828 0.83594 0.82812-0.19141c0.25391-0.058594 0.48047-0.10938 0.69922-0.15234h0.003906c0.59766-0.12109 1.1758-0.22266 1.6758-0.09375 0.54688 0.14062 0.91406 0.65625 0.91406 1.2773 0 0.69141-1.0117 1.2305-1.6094 1.4414-0.39062 0.13672-0.78125 0.26172-1.1953 0.39844-0.26953 0.089843-0.55078 0.17969-0.82422 0.27344 0 0-0.003906 0-0.003906 0.003906-0.16016 0.054688-0.32422 0.11328-0.49219 0.17188zm28.043 3.0234c-5.6016 5.1602-10.992 8.7305-16.035 10.605-2.9961 1.1133-5.543 1.7148-7.7852 1.8438-2.9961 0.16797-5.3828-0.55469-7.0898-2.1484-1.7617-1.6484-2.4883-4.707-0.59766-6.7734 0.51953-0.56641 1.1719-1.0469 1.9922-1.4727 0.33984-0.17578 0.6875-0.32812 1.0625-0.47656 0.011718-0.003906 0.019531-0.007812 0.027343-0.011718 0.39062-0.15625 0.80859-0.30469 1.2656-0.46094 0.26953-0.089844 0.54688-0.17969 0.8125-0.26953 0.39844-0.12891 0.8125-0.26562 1.2148-0.40625 0.3125-0.10938 0.91406-0.35547 1.4492-0.78125 0.64844-0.51953 0.99219-1.1484 0.99219-1.8281 0-0.55469-0.17188-1.1016-0.48438-1.5391-0.33594-0.46875-0.80469-0.79297-1.3594-0.9375-0.75781-0.19531-1.5195-0.070313-2.2344 0.078124-0.22656 0.046876-0.46875 0.097657-0.73047 0.15625l-0.55078 0.12891v-8.957l0.76562-0.09375c6.1758-0.70703 12.207-1.0586 18.066-1.0586 7.1484 0 14.043 0.52734 20.621 1.5742-3.8984 5.1523-7.6367 9.3594-11.402 12.828z"/>
 </g>
</g></svg>
