<?xml version="1.0" encoding="UTF-8"?>
<svg width="100pt" height="100pt" version="1.1" viewBox="0 0 100 100" xmlns="http://www.w3.org/2000/svg"><g fill="#1C1C1C" stroke="#1C1C1C" stroke-width="2.5" fill-rule="evenodd">
 <g>
  <path d="m43.469 48.656v-13.391c0-0.69141-0.27344-1.3398-0.76562-1.8281-0.48438-0.47266-1.1172-0.73438-1.793-0.73438h-0.046875c-1.3828 0.023437-2.5117 1.2188-2.5117 2.6602v13.293c0 1.4102 1.1484 2.5586 2.5586 2.5586s2.5586-1.1484 2.5586-2.5586z"/>
  <path d="m40.324 52.336c-1.7773-0.28125-3.1445-1.8242-3.1445-3.6797v-13.293c0-2.0781 1.6445-3.7969 3.6602-3.832 1.0625-0.019531 2.0586 0.40234 2.7891 1.1797 0.67578 0.71875 1.0078 1.6914 1.0078 2.6758v13.27c0 1.8594-1.3672 3.3984-3.1445 3.6797v0.21875c0 0.21484 0.17578 0.39062 0.39062 0.39062h0.26563c0.042968 0.003907 0.078124 0.007813 0.12109 0.011719 2.9297 0.63281 12.801 2.1289 16.695-5.1016 3.4648-6.4375-0.45703-12.504-3.1289-15.574-0.011719-0.011719-0.023438-0.023438-0.035157-0.035156-0.98828-1.1328-2.1094-2.2109-3.3438-3.1992-3.9883-3.2031-8.1016-6.5039-11.227-11.074-0.15625-0.23047-0.48828-0.23047-0.64453 0-3.1289 4.5781-7.2383 7.875-11.227 11.074-5.6133 4.5078-10.27 11.82-6.5078 18.809 1.1172 2.0781 2.8242 3.6094 5.0664 4.5508 4.5781 1.9297 10.184 0.90625 11.793 0.54688 0.03125-0.003906 0.054687-0.007813 0.085937-0.007813h0.13672c0.21484 0 0.38672-0.17578 0.38672-0.39062zm14.215-13.078c0.11719-0.30078 0.45703-0.44922 0.75781-0.33203 0.30078 0.11719 0.44922 0.45703 0.33203 0.75781-1.5742 4.0234-5.207 6.8477-9.4844 7.375-0.023437 0.003906-0.046875 0.003906-0.074219 0.003906-0.29297 0-0.54297-0.21875-0.58203-0.51562-0.039062-0.32031 0.1875-0.61328 0.51172-0.65234 3.8516-0.47266 7.1211-3.0156 8.5391-6.6367zm-8.6641-0.046874c2.5547-0.91797 4.2734-3.3633 4.2734-6.082 0-0.32422 0.26172-0.58594 0.58594-0.58594s0.58594 0.26172 0.58594 0.58594c0 3.2109-2.0273 6.0977-5.0469 7.1836-0.066407 0.023438-0.13281 0.035156-0.19922 0.035156-0.23828 0-0.46484-0.14844-0.55078-0.38672-0.11328-0.30469 0.046874-0.64063 0.35156-0.75zm-9.5508 7.3398c-0.035157 0.29688-0.28906 0.51562-0.58203 0.51562-0.023438 0-0.046876 0-0.074219-0.003906-4.2773-0.52734-7.9141-3.3516-9.4844-7.375-0.11719-0.30078 0.03125-0.64062 0.33203-0.75781 0.30078-0.11719 0.64062 0.03125 0.75781 0.33203 1.418 3.6211 4.6875 6.1641 8.5391 6.6367 0.32422 0.039062 0.55469 0.33203 0.51172 0.65234zm-0.027344-6.5898c-0.085937 0.23828-0.3125 0.38672-0.55078 0.38672-0.066406 0-0.13281-0.011718-0.19922-0.035156-3.0195-1.0859-5.0469-3.9727-5.0469-7.1836 0-0.32422 0.26172-0.58594 0.58594-0.58594 0.32422 0 0.58594 0.26172 0.58594 0.58594 0 2.7188 1.7188 5.1602 4.2734 6.082 0.30078 0.10937 0.46094 0.44531 0.35156 0.75z"/>
  <path d="m40.152 58.195c-0.039063-0.035156-0.082032-0.0625-0.13672-0.085937-0.20703-0.078125-0.40625-0.003906-0.61328 0.023437-0.21875 0.03125-0.43359 0.066407-0.65234 0.10156-0.44531 0.074219-0.89453 0.15625-1.3359 0.25-0.90625 0.19922-1.8047 0.45312-2.668 0.80469-0.41406 0.16797-0.82031 0.35938-1.2109 0.57813-1.3789 0.76953-2.3828 1.9141-2.6836 3.0664-0.20703 0.79688-0.078124 1.5781 0.38281 2.332 1.2617 2.0508 4.2773 2.0781 5.9648 1.9102 0.73047-0.070312 1.5273-0.20312 2.5078-0.42188l0.30469-0.070312c0.17578-0.039063 0.30469-0.19922 0.30469-0.37891v-1.957-3.7852-1.2656c0.007813-0.32031 0.097656-0.85938-0.16406-1.1016z"/>
  <path d="m42.215 57.781-0.37891 0.046875c-0.19531 0.023437-0.34375 0.19141-0.34375 0.38672v8.1289l0.52344-0.12109c0.23438-0.054687 0.46094-0.10547 0.69531-0.14844 0.42578-0.085938 0.87109-0.16797 1.3242-0.16797 0.26172 0 0.52734 0.027344 0.78906 0.09375 1.0273 0.26562 1.7422 1.2305 1.7422 2.3438 0 1.543-1.7656 2.2812-2.3086 2.4688-0.37891 0.13281-0.76172 0.25781-1.1484 0.38281-0.25781 0.085938-0.51562 0.16797-0.77344 0.25391-0.85547 0.29297-1.5625 0.55469-2.2266 0.89844-0.78125 0.40234-1.3984 0.85547-1.8867 1.3945-1.793 1.9531-1.1016 4.8477 0.56641 6.4102 2.8047 2.6211 7.543 2.7188 14.074 0.28906 4.7695-1.7734 9.875-5.1523 15.172-10.035 3.4336-3.1641 6.8438-6.9727 10.395-11.605 0.17969-0.23828 0.042968-0.58594-0.25-0.63281-11.152-1.7109-23.238-1.8438-35.965-0.38672z"/>
  <path d="m41.105 54.113h-0.39062c-0.21484 0-0.39062 0.17578-0.39062 0.39062v1.8867c0 0.23438 0.20703 0.41797 0.4375 0.38672l0.39062-0.046875c0.19531-0.023438 0.34375-0.19141 0.34375-0.38672v-1.8398c0-0.21484-0.17578-0.39062-0.39062-0.39062z"/>
  <path d="m41.016 67.66-0.39062 0.089844c-0.17578 0.039062-0.30469 0.19922-0.30469 0.37891v2.2539c0 0.27734 0.28125 0.46094 0.53906 0.35938 0.125-0.050782 0.25391-0.097657 0.37891-0.14453 0.15234-0.054687 0.25391-0.19922 0.25391-0.36328v-2.1953c0.003906-0.25-0.23047-0.4375-0.47656-0.37891z"/>
 </g>
</g></svg>
