<?xml version="1.0" encoding="UTF-8"?>
<svg width="100pt" height="100pt" version="1.1" viewBox="0 0 100 100" xmlns="http://www.w3.org/2000/svg"><g fill="#1C1C1C" stroke="#1C1C1C" stroke-width="2.5" fill-rule="evenodd">
 <path d="m79.914 29.906v-1.5312c0-1.7266-1.3438-3.1445-3.043-3.2617-0.33594-1.3594-0.87891-2.6562-1.6133-3.8594-0.80469-1.3164-1.8203-2.4844-3.0195-3.4688-1.207-0.99219-2.5586-1.7656-4.0195-2.2969-1.5117-0.55078-3.1016-0.82812-4.7227-0.82812h-26.055c-0.33984 0-0.61328 0.27344-0.61328 0.61328 0 0.015624 0 0.03125 0.003906 0.046874v11.789c-0.71484 0.10938-1.3945 0.40234-1.9531 0.86328-0.85547 0.69141-2.1914 1.4727-3.7266 1.293-3.4961-0.42188-6.6133 0.21094-9.0156 1.8242-1.2344 0.83203-2.2656 1.9102-3.0586 3.2148-0.81641 1.3398-1.3789 2.9023-1.6758 4.6523-0.625 3.7031 0.078125 7.457 2.0938 11.152 0.86719 1.5898 1.9766 3.1641 3.3008 4.6914 1.1953 1.375 2.5664 2.707 4.0781 3.9688 2.4336 2.0273 4.2266 3.2227 5.5352 4.0977 2.5273 1.6875 3.3789 2.2578 4.4414 5.7305 0.078126 0.25781 0.31641 0.43359 0.58984 0.43359h0.007813c0.26953 0 0.50781-0.17578 0.58984-0.43359 1.0625-3.4727 1.9141-4.043 4.4414-5.7305 1.3086-0.875 3.1016-2.0703 5.5352-4.0977 1.5117-1.2578 2.8828-2.5938 4.0781-3.9688 1.3242-1.5234 2.4375-3.1016 3.3008-4.6914 2.0156-3.6992 2.7188-7.4531 2.0938-11.152-0.29688-1.7539-0.85938-3.3164-1.6758-4.6523-0.79297-1.3008-1.8242-2.3828-3.0586-3.2148-2.3984-1.6133-5.5156-2.2422-9.0117-1.8242-1.5352 0.18359-2.875-0.60156-3.7266-1.2891-0.55859-0.45703-1.2383-0.75781-1.9609-0.86328v-11.227h23.934c3.5078 1.2344 5.8555 4.5508 5.8555 8.2812v7.1289c-0.625 0.11719-1.2031 0.41406-1.668 0.87109-0.60547 0.58984-0.95312 1.375-0.98047 2.2188-0.007812 0.050781-0.007812 0.097656-0.007812 0.125v2.0156c-1.7891 1.1211-2.8867 3.0859-2.8867 5.2188v37.434c0 1.6445 0.64062 3.1914 1.8047 4.3555 1.1641 1.1641 2.7109 1.8047 4.3594 1.8047 1.6445 0 3.1914-0.64062 4.3555-1.8047 1.1602-1.1641 1.8008-2.7109 1.8008-4.3555v-0.78906c0.65234 0.23047 1.3477 0.35156 2.0469 0.35156 1.6445 0 3.1914-0.64063 4.3555-1.8047 1.1602-1.1641 1.8008-2.7109 1.8008-4.3555v-37.441c-0.003907-2.1445-1.1055-4.1133-2.9102-5.2344zm-1.2266-1.5312v0.94531c-0.64844-0.22656-1.3359-0.34375-2.0234-0.34375-0.71484 0-1.4062 0.11719-2.0625 0.35547v-0.95312c0-1.0586 0.79297-1.9336 1.8438-2.0352 0.066407-0.007812 0.13281-0.011719 0.19922-0.011719 1.125 0 2.043 0.91797 2.043 2.043zm-39.449 0.55078c0.003907 0 0.003907 0.003907 0.003907 0.003907 0.92969 0.75391 2.3477 1.5938 4.043 1.5938 0.19922 0 0.39844-0.011719 0.60547-0.035157 6.7031-0.80469 11.34 2.4414 12.391 8.6797 1.4336 8.4883-5.0547 15.336-9.0508 18.66-2.3828 1.9844-4.1445 3.1602-5.4336 4.0195-1.3086 0.875-2.2539 1.5078-3.0195 2.4102-0.51953 0.61328-0.9375 1.3281-1.332 2.3047-0.39453-0.97266-0.8125-1.6914-1.332-2.3047-0.76562-0.90625-1.7109-1.5391-3.0195-2.4102-1.2852-0.85938-3.0469-2.0352-5.4336-4.0195-3.9961-3.3242-10.484-10.172-9.0508-18.66 0.94922-5.6133 4.793-8.8008 10.434-8.8008 0.63281 0 1.2852 0.039062 1.9609 0.12109 0.20703 0.023438 0.40625 0.035157 0.60547 0.035157 1.6953 0 3.1133-0.84375 4.043-1.5938 0.003906 0 0.003906-0.003907 0.003906-0.003907 0.33984-0.27734 0.74219-0.46875 1.1758-0.5625v6.2617c-1.8438 0.14062-4.2695 1.0664-7.2227 2.7539-2.4219 1.3828-4.2773 2.7578-4.3555 2.8164-0.27344 0.20313-0.32812 0.58984-0.125 0.85938 0.12109 0.16016 0.30469 0.24609 0.49219 0.24609 0.12891 0 0.25781-0.039062 0.36719-0.12109 0.070313-0.050782 6.7031-4.9531 10.844-5.3242v6.5625c-0.60156 0.039062-1.3359 0.24609-2.2148 0.62109-0.94531 0.40234-2.0703 1.0039-3.3438 1.7812-2.1445 1.3164-3.9492 2.6836-4.0234 2.7383-0.26953 0.20312-0.32422 0.58984-0.11719 0.85938 0.12109 0.16016 0.30469 0.24219 0.48828 0.24219 0.12891 0 0.26172-0.039062 0.37109-0.125 0.019531-0.015625 1.8398-1.3906 3.9336-2.6758 2.7734-1.7031 4.2031-2.1367 4.9062-2.2109v5.6133c-0.34375 0.13281-0.73828 0.39062-1.2266 0.78906-0.5625 0.46094-1.2461 1.1133-2.0312 1.9414-1.3203 1.3906-2.5039 2.832-2.5156 2.8477-0.21484 0.26172-0.17578 0.64844 0.085937 0.86328 0.11328 0.09375 0.25391 0.14062 0.39062 0.14062 0.17969 0 0.35547-0.074219 0.47656-0.22266 0.011719-0.015625 1.0938-1.332 2.3359-2.6484 0.72266-0.76562 1.3516-1.3789 1.8711-1.8242 0.25391-0.21484 0.45312-0.36719 0.61328-0.48047v10.93c0 0.33984 0.27344 0.61328 0.61328 0.61328 0.33984 0 0.61328-0.27344 0.61328-0.61328v-10.965c0.16797 0.11328 0.38672 0.27734 0.66016 0.51172 0.51953 0.44531 1.1484 1.0547 1.8711 1.8203 1.2422 1.3164 2.3281 2.6406 2.3398 2.6562 0.12109 0.14844 0.29687 0.22266 0.47656 0.22266 0.13672 0 0.27344-0.046875 0.39062-0.14062 0.26172-0.21484 0.30078-0.60156 0.085937-0.86328-0.011718-0.015625-1.1953-1.4531-2.5156-2.8477-0.78516-0.82813-1.4688-1.4805-2.0312-1.9414-0.51172-0.41406-0.92188-0.67969-1.2734-0.80859v-5.6016c0.6875 0.058594 2.1172 0.47266 4.957 2.2148 2.0938 1.2852 3.9141 2.6602 3.9336 2.6758 0.10938 0.085938 0.24219 0.125 0.37109 0.125 0.1875 0 0.37109-0.085938 0.48828-0.24219 0.20312-0.26953 0.15234-0.65625-0.11719-0.85937-0.074218-0.058594-1.8789-1.4219-4.0234-2.7383-1.2695-0.78125-2.3945-1.3789-3.3438-1.7812-0.90625-0.38281-1.6523-0.58984-2.2656-0.625v-6.5625c4.1328 0.33984 10.816 5.2734 10.891 5.3281 0.10938 0.082031 0.23828 0.12109 0.36719 0.12109 0.1875 0 0.37109-0.085937 0.49219-0.24609 0.20312-0.27344 0.14453-0.65625-0.125-0.85938-0.078125-0.058594-1.9336-1.4336-4.3555-2.8164-2.9805-1.7031-5.4219-2.6289-7.2734-2.7578v-6.2617c0.42969 0.097656 0.83984 0.28906 1.1797 0.57031zm27.926-10.641c-0.60156-0.82422-1.3203-1.5547-2.1445-2.1602-0.078125-0.058594-0.15625-0.11328-0.23438-0.16797 5.1602 0.53516 9.5391 4.2539 10.859 9.3047-0.53906 0.17188-1.0273 0.48438-1.4141 0.91016-0.55078 0.60547-0.85547 1.3867-0.85547 2.207v1.5547c-1.0156 0.64062-1.8047 1.5547-2.2969 2.6172-0.48047-0.63672-1.1875-1.0977-2.0039-1.25v-7.1289c0-2.1367-0.66016-4.168-1.9102-5.8867zm-0.74219 16.16c0.027344-1.1094 0.92578-1.9805 2.0391-1.9805 1.125 0 2.043 0.91406 2.043 2.043v1.4219c-0.65234-0.23047-1.3438-0.34766-2.043-0.34766-0.625 0-1.2383 0.09375-1.8242 0.27344-0.074219 0.023437-0.14844 0.046875-0.21875 0.074219v-1.418-0.007813c0.003906-0.019531 0.003906-0.039062 0.003906-0.058594zm2.0391 49.668c-2.7188 0-4.9336-2.2109-4.9336-4.9336v-37.441c0-1.8008 0.97656-3.4531 2.5508-4.3164 0.015625-0.007813 0.027344-0.015625 0.039063-0.019531 0.28516-0.15625 0.58594-0.28516 0.88281-0.375 0.46875-0.14453 0.95703-0.21875 1.4609-0.21875 0.8125 0 1.6172 0.20312 2.3281 0.58594 0.023438 0.015625 0.046876 0.027344 0.070313 0.039063 1.5625 0.86719 2.5312 2.5156 2.5312 4.3086v35.66c-0.003906 0.027344-0.003906 0.054687 0 0.078125v1.6953c0 2.7227-2.2109 4.9375-4.9297 4.9375zm13.133-11.539c0 2.7188-2.2109 4.9336-4.9297 4.9336-0.71875 0-1.4062-0.14844-2.0469-0.44531l0.003906-35.324c0-2.1328-1.0977-4.1016-2.8867-5.2188v-1.3828c0.003906-1.793 0.97656-3.4453 2.5469-4.3164 0.003906-0.003906 0.003906-0.003906 0.007812-0.003906 0.73438-0.40625 1.5352-0.60938 2.3789-0.60938 0.82812 0 1.6172 0.19922 2.3438 0.59375 0.003906 0.003907 0.003906 0.003907 0.007812 0.003907 1.5938 0.86328 2.582 2.5273 2.582 4.3398z"/>
</g></svg>
