<?xml version="1.0" encoding="UTF-8"?>
<svg width="100pt" height="100pt" version="1.1" viewBox="0 0 100 100" xmlns="http://www.w3.org/2000/svg"><g fill="#1C1C1C" stroke="#1C1C1C" stroke-width="2.5" fill-rule="evenodd">
 <g>
  <path d="m79.496 62.098c-0.32422-1.7266-0.99219-3.3398-1.9805-4.7891-0.082031-0.12109-0.12109-0.26953-0.10547-0.41797 0.13672-1.0703 0.40625-2.1211 0.79297-3.1211 0.125-0.32422-0.1875-0.63281-0.50781-0.50781-1 0.38672-2.0469 0.65625-3.1172 0.79297-0.14844 0.019531-0.29297-0.019532-0.41797-0.10547-1.4531-0.99219-3.0625-1.6602-4.793-1.9844-0.14453-0.027344-0.27734-0.10547-0.36719-0.22266-0.66016-0.85547-1.2109-1.7852-1.6445-2.7656-0.14062-0.31641-0.57812-0.31641-0.71875 0-0.43359 0.98047-0.98438 1.9141-1.6445 2.7656-0.089844 0.11719-0.22266 0.19531-0.36719 0.22266-1.7266 0.32422-3.3398 0.99219-4.793 1.9844-0.12109 0.082031-0.26953 0.12109-0.41797 0.10547-1.3945-0.17969-2.75-0.57813-4.0117-1.1797 0.59766 1.2617 1 2.6172 1.1758 4.0117 0.019531 0.14844-0.019531 0.29297-0.10547 0.41797-0.99219 1.4531-1.6562 3.0625-1.9844 4.793-0.027343 0.14453-0.10547 0.27734-0.22266 0.36719-1.1133 0.85938-2.3555 1.5352-3.668 2.0039 1.3164 0.46875 2.5586 1.1445 3.668 2.0039 0.11719 0.089844 0.19531 0.22266 0.22266 0.36719 0.32812 1.7305 0.99609 3.3438 1.9844 4.7969 0.082032 0.12109 0.12109 0.26953 0.10547 0.41797-0.13672 1.0703-0.40625 2.1172-0.79297 3.1133-0.125 0.32031 0.18359 0.63281 0.50781 0.50781 1-0.38672 2.0469-0.65625 3.1172-0.79297 0.023438-0.003906 0.050782-0.003906 0.074219-0.003906 0.11719 0 0.23438 0.035156 0.33203 0.10156 1.4531 0.99219 3.0703 1.6641 4.8008 1.9883 0.14453 0.027344 0.27734 0.10547 0.36719 0.22266 0.66016 0.85156 1.2109 1.7852 1.6445 2.7656 0.14062 0.31641 0.57812 0.31641 0.71875 0 0.43359-0.98047 0.98438-1.9102 1.6445-2.7656 0.089843-0.11719 0.22266-0.19531 0.36719-0.22266 1.7266-0.32422 3.3398-0.99219 4.793-1.9844 0.12109-0.082031 0.26953-0.12109 0.41797-0.10547 1.0703 0.13672 2.1172 0.40625 3.1172 0.79297 0.32422 0.125 0.63281-0.1875 0.50781-0.50781-0.38672-1-0.65625-2.0469-0.79297-3.1172-0.019532-0.14844 0.019531-0.29297 0.10547-0.41797 0.99219-1.4531 1.6562-3.0625 1.9844-4.793 0.027343-0.14453 0.10547-0.27734 0.22266-0.36719 0.85547-0.66016 1.7852-1.2109 2.7656-1.6445 0.31641-0.14062 0.31641-0.57812 0-0.71875-0.98047-0.43359-1.9102-0.98438-2.7656-1.6445-0.11719-0.085938-0.19141-0.21875-0.21875-0.36328zm-23.262-2.0859c0.10938-0.26562 0.39844-0.41406 0.67969-0.34766 1.0977 0.25781 2.2539 0.23438 3.3516-0.0625 0.3125-0.085937 0.63672 0.10156 0.72266 0.41406 0.085938 0.3125-0.10156 0.63672-0.41406 0.72266-0.625 0.16797-1.2695 0.26172-1.9141 0.27734 0.44531 0.46875 0.83203 0.98828 1.1562 1.5508 0.16016 0.28125 0.0625 0.64453-0.21875 0.80469-0.09375 0.054687-0.19141 0.078125-0.29297 0.078125-0.20313 0-0.40234-0.10547-0.51172-0.29688-0.5625-0.98438-1.3672-1.8203-2.3242-2.418-0.24609-0.14844-0.34766-0.45703-0.23438-0.72266zm4.7539 8.9141c-0.070312 0.26172-0.30859 0.43359-0.57031 0.43359-0.050781 0-0.10156-0.007813-0.15625-0.019531-1.0938-0.29688-2.2539-0.32031-3.3516-0.066406-0.28125 0.066406-0.56641-0.082032-0.67969-0.34766-0.10938-0.26562-0.011719-0.57422 0.23438-0.72656 0.95703-0.59375 1.7617-1.4297 2.3242-2.4141 0.16406-0.28125 0.52344-0.37891 0.80469-0.21875s0.37891 0.52344 0.21875 0.80469c-0.32422 0.5625-0.71094 1.0859-1.1562 1.5508 0.64453 0.015625 1.2891 0.10938 1.9141 0.28125 0.31641 0.082031 0.50391 0.40625 0.41797 0.72266zm4.6875 3.7461c-0.98438 0.5625-1.8203 1.3672-2.4141 2.3242-0.10938 0.17578-0.30078 0.27734-0.5 0.27734-0.074219 0-0.15234-0.015626-0.22656-0.046876-0.26562-0.10937-0.41406-0.39844-0.34766-0.67969 0.25781-1.0977 0.23438-2.2539-0.0625-3.3477-0.085938-0.31641 0.10156-0.63672 0.41406-0.72266 0.31641-0.085937 0.63672 0.10156 0.72266 0.41406 0.16797 0.625 0.26172 1.2695 0.27734 1.9102 0.46875-0.44531 0.98828-0.83203 1.5508-1.1562 0.28125-0.16016 0.64453-0.0625 0.80469 0.21875 0.16406 0.28516 0.066407 0.64453-0.21875 0.80859zm0.22266-15.602c-0.16016 0.28125-0.52344 0.38281-0.80469 0.21875-0.5625-0.32422-1.0859-0.71094-1.5508-1.1562-0.015625 0.64453-0.10938 1.2891-0.28125 1.9141-0.070313 0.26172-0.30859 0.43359-0.57031 0.43359-0.050781 0-0.10156-0.007813-0.15625-0.019531-0.3125-0.085938-0.5-0.41016-0.41406-0.72266 0.29688-1.0977 0.32031-2.2539 0.066406-3.3516-0.066406-0.28125 0.082031-0.56641 0.34766-0.67969 0.26562-0.10938 0.57422-0.011719 0.72656 0.23438 0.59375 0.95703 1.4297 1.7617 2.4141 2.3242 0.28516 0.16406 0.38281 0.52344 0.22266 0.80469zm5.9648 14.129c-0.29688 1.0938-0.32031 2.2539-0.0625 3.3516 0.066407 0.28125-0.082031 0.56641-0.34766 0.67969-0.074219 0.03125-0.14844 0.042969-0.22656 0.042969-0.19922 0-0.39062-0.10156-0.5-0.27734-0.59375-0.95703-1.4297-1.7617-2.418-2.3242-0.28125-0.16016-0.37891-0.52344-0.21875-0.80469s0.52344-0.38281 0.80469-0.21875c0.5625 0.32031 1.0859 0.71094 1.5508 1.1562 0.015626-0.64453 0.10938-1.2891 0.28125-1.9141 0.085938-0.3125 0.41016-0.5 0.72266-0.41406 0.3125 0.082032 0.5 0.40625 0.41406 0.72266zm-0.41406-12.734c-0.050781 0.015625-0.10547 0.019531-0.15625 0.019531-0.25781 0-0.49609-0.17188-0.57031-0.43359-0.17188-0.625-0.26562-1.2695-0.28125-1.9141-0.46875 0.44531-0.98828 0.83203-1.5508 1.1562-0.28125 0.16406-0.64453 0.0625-0.80469-0.21875-0.16016-0.28125-0.0625-0.64453 0.21875-0.80469 0.98437-0.5625 1.8203-1.3672 2.4141-2.3242 0.15234-0.24609 0.46094-0.34375 0.72656-0.23437 0.26563 0.10937 0.41406 0.39844 0.34766 0.67969-0.25391 1.0977-0.23047 2.2578 0.066406 3.3516 0.089844 0.3125-0.097656 0.63672-0.41016 0.72266zm1.5469 1.5469c0.085937-0.3125 0.41016-0.5 0.72266-0.41406 1.0977 0.29688 2.2539 0.32031 3.3516 0.0625 0.28125-0.066406 0.57031 0.082032 0.67969 0.34766 0.10938 0.26563 0.011719 0.57422-0.23438 0.72656-0.95703 0.59766-1.7617 1.4336-2.3242 2.418-0.10938 0.19141-0.30859 0.29688-0.51172 0.29688-0.097657 0-0.19922-0.023438-0.29297-0.078125-0.28125-0.16016-0.37891-0.52344-0.21875-0.80469 0.32422-0.5625 0.71094-1.0859 1.1562-1.5508-0.64453-0.015625-1.2891-0.10938-1.9141-0.28125-0.3125-0.082031-0.5-0.40625-0.41406-0.72266zm4.7539 8.9141c-0.10938 0.26562-0.39844 0.41406-0.67969 0.34766-1.0977-0.25391-2.2578-0.23438-3.3516 0.066406-0.050781 0.015625-0.10547 0.019531-0.15625 0.019531-0.25781 0-0.49609-0.17188-0.57031-0.43359-0.085938-0.3125 0.10156-0.63672 0.41406-0.72266 0.625-0.17188 1.2695-0.26172 1.9141-0.28125-0.44531-0.46875-0.83203-0.98828-1.1562-1.5508-0.16016-0.28125-0.0625-0.64453 0.21875-0.80469 0.28516-0.16016 0.64453-0.0625 0.80469 0.21875 0.5625 0.98438 1.3672 1.8203 2.3242 2.4141 0.25 0.15234 0.35156 0.45703 0.23828 0.72656z"/>
  <path d="m48.16 65.051c-0.28516-0.046875-0.49219-0.29297-0.49219-0.58203s0.21094-0.53516 0.49219-0.58203c1.8789-0.30859 3.6758-1.0781 5.2148-2.2227 0.35547-1.7383 1.0273-3.3633 2.0039-4.8438-0.27734-1.8945-1.0078-3.7109-2.1133-5.2578-0.16797-0.23438-0.14062-0.55469 0.0625-0.76172 0.20312-0.20312 0.52734-0.23047 0.76172-0.0625 1.5469 1.1094 3.3594 1.8398 5.2578 2.1172 1.4805-0.97656 3.1055-1.6484 4.8438-2.0039 0.15234-0.03125 0.44922-0.64453 0.53516-0.78125 0.17969-0.28906 0.35156-0.58203 0.50781-0.88672 1.9805-3.8242 2.6406-8.1094 2.9297-12.363 0.019532-0.28125-0.25781-0.48828-0.52344-0.38672-1.6445 0.625-4.6094 1.9141-7.957 4.1211-4.9766 3.2812-6.8164 8.7539-6.832 8.8125-0.085937 0.26562-0.35156 0.4375-0.62891 0.40234-0.085937-0.011719-0.85938-0.11719-1.3477-0.83984-0.41016-0.60547-0.47656-1.4219-0.20312-2.4258 0.66406-2.4414 2.7422-10.816 1.543-15.996-1.5898-6.8359-5.1133-11.336-6.5938-12.992-0.15625-0.17188-0.42578-0.17188-0.57812 0-1.4844 1.6602-5.0117 6.168-6.5938 12.992-1.2031 5.1797 0.875 13.555 1.5391 15.996 0.27344 1.0039 0.20703 1.8203-0.20312 2.4258-0.48828 0.72266-1.2656 0.83203-1.3516 0.83984-0.27734 0.035157-0.53906-0.13672-0.62891-0.40234-0.019532-0.054688-1.8555-5.5273-6.8281-8.8086-3.3516-2.207-6.3164-3.4961-7.957-4.1211-0.26562-0.10156-0.54297 0.10547-0.52344 0.38672 0.21484 3.125 0.91016 10.441 2.8516 13.227 2.4961 3.5703 6.9453 5.6484 6.9922 5.668 0.17969 0.082031 0.30859 0.25 0.33594 0.44922 0.24219 1.6055 0.03125 1.8008-0.14062 1.9609-0.15625 0.14453-0.37109 0.19922-0.57812 0.15234-0.33984-0.085938-0.91016-0.26172-1.5703-0.46484-0.85156-0.26562-1.9102-0.59375-2.3398-0.67188-3.4844-0.64453-6.3555-0.28906-8.543 1.0469-0.64453 0.39453-1.1875 0.92578-1.7617 1.4844-0.10938 0.10547-0.21875 0.21484-0.33203 0.32031-0.12891 0.125-0.16016 0.32031-0.066406 0.47266 0.76953 1.2734 2.832 4.1133 6.5742 5.3359 4.0547 1.3281 8.1211 1.3359 10.879 0.027343 0.035156-0.015625 0.074219-0.03125 0.10938-0.039062 0.015625-0.003907 0.03125-0.003907 0.046875-0.007813 0.019531-0.003906 0.042969-0.007812 0.0625-0.007812s0.042969 0 0.0625 0.003906c0.015625 0 0.035156 0 0.050781 0.003906 0.019532 0.003906 0.039063 0.007813 0.058594 0.015625 0.015625 0.003907 0.035156 0.007813 0.050781 0.011719 0.023438 0.007812 0.046875 0.019531 0.070313 0.03125 0.011718 0.003906 0.023437 0.007812 0.035156 0.015625 0.097656 0.058594 0.17969 0.14453 0.23828 0.26172 0.03125 0.070312 0.046875 0.14062 0.054688 0.21484 0.003906 0.074218-0.007813 0.14844-0.03125 0.22266-0.027344 0.074218-0.066407 0.14062-0.11719 0.19922-1.0156 1.1328-1.7891 2.2812-2.293 3.4219-0.78906 1.7812-0.34375 3.5273 0.32422 5.625 0.058594 0.18359 0.375 1.1172 0.63281 1.8086 0.074218 0.20703 0.30469 0.30859 0.50781 0.22656 1.1445-0.45703 3.2344-1.4062 4.8281-2.8047 1.6523-1.457 2.9844-5.0273 3.625-6.7461 0.26172-0.70312 0.35547-0.94922 0.45703-1.0977 0.003907-0.003906 0.007813-0.011718 0.011719-0.019531 0.003907-0.003906 0.007813-0.011719 0.011719-0.015625 0.019531-0.023438 0.039062-0.050781 0.0625-0.070312 0.007812-0.007813 0.019531-0.015626 0.03125-0.023438 0.019531-0.015625 0.039062-0.03125 0.058594-0.046875 0.011718-0.007813 0.027344-0.015625 0.039062-0.019531 0.019532-0.011719 0.042969-0.023438 0.0625-0.03125 0.015625-0.003906 0.027344-0.007813 0.042969-0.011719 0.023437-0.007813 0.042969-0.015625 0.066406-0.019531 0.019531-0.003906 0.039063-0.003906 0.054688-0.003906s0.035156-0.003907 0.058593-0.003907c0.023438 0 0.042969 0.003907 0.066407 0.007813 0.015625 0.003906 0.035156 0.003906 0.050781 0.003906 0.015625 0.003906 0.027344 0.007812 0.042969 0.011719 0.023437 0.007812 0.046875 0.011719 0.066406 0.019531 0.011719 0.003906 0.019531 0.011719 0.03125 0.015625 0.023437 0.011719 0.050781 0.023437 0.074219 0.042969 0.011718 0.007812 0.023437 0.019531 0.035156 0.03125 0.015625 0.011718 0.03125 0.023437 0.046875 0.039062s0.027344 0.035156 0.042969 0.050782c0.007812 0.011718 0.019531 0.023437 0.027344 0.035156 0.011718 0.019531 0.023437 0.042968 0.035156 0.0625 0.007812 0.011718 0.011718 0.023437 0.019531 0.035156 0.011719 0.027344 0.019531 0.054688 0.023437 0.078125 0.003907 0.007813 0.007813 0.019531 0.007813 0.027344 0.007813 0.039062 0.011719 0.082031 0.011719 0.12109v14.426c0 0.375 0.30469 0.67969 0.68359 0.67969 0.375 0 0.67969-0.30469 0.67969-0.67969v-14.332c-0.042969-0.21875 0.046875-0.45312 0.24609-0.59375 0.20312-0.14453 0.47266-0.13281 0.66797 0 0.011718 0.007813 0.023437 0.019532 0.035156 0.027344 0.015625 0.011719 0.035156 0.027344 0.050781 0.042969 0.019531 0.019531 0.035156 0.039063 0.050781 0.058594 0.007813 0.007812 0.015625 0.015625 0.027344 0.03125 0.10547 0.16016 0.19922 0.40625 0.46484 1.1133 0.64062 1.7188 1.9688 5.2891 3.625 6.7461 0.51562 0.45312 1.125 0.89062 1.8086 1.3086 0.38672 0.23437 0.89844 0.097656 1.1133-0.30078 0.64844-1.2148 1.0859-2.543 1.2891-3.918-0.97656-1.4805-1.6523-3.1094-2.0078-4.8477-1.5508-1.1406-3.3477-1.9102-5.2266-2.2188z"/>
 </g>
</g></svg>
