<?xml version="1.0" encoding="UTF-8"?>
<svg width="100pt" height="100pt" version="1.1" viewBox="0 0 100 100" xmlns="http://www.w3.org/2000/svg"><g fill="#1C1C1C" stroke="#1C1C1C" stroke-width="2.5" fill-rule="evenodd">
 <g>
  <path d="m83.246 31.988-5.4414-2.5039 5.4414-2.5078c0.29297-0.13281 0.42188-0.48047 0.28516-0.77344-0.13281-0.29297-0.48047-0.42188-0.77344-0.28516l-6.4688 2.9805h-4.5195l8.3516-8.5c0.22656-0.23047 0.22266-0.59766-0.007813-0.82422-0.23047-0.22656-0.59766-0.22266-0.82422 0.007812l-7.1602 7.2852 2.8438-6.6484c0.125-0.29688-0.011718-0.63672-0.30469-0.76562-0.29688-0.125-0.63672 0.011719-0.76562 0.30469l-3.9062 9.1367h-10.664l10.98-11.496c0.22266-0.23047 0.21484-0.60156-0.019531-0.82422-0.23047-0.22266-0.60156-0.21484-0.82422 0.019531l-9.7617 10.227 3.9883-9.5977c0.125-0.29688-0.019531-0.63672-0.3125-0.76172-0.29687-0.125-0.63672 0.019531-0.76172 0.3125l-5.043 12.125h-10.66l10.98-11.496c0.22266-0.23047 0.21484-0.60156-0.019532-0.82422-0.23047-0.22266-0.60156-0.21484-0.82422 0.019531l-9.7617 10.223 3.9883-9.5977c0.125-0.29688-0.019531-0.63672-0.3125-0.76172-0.29688-0.125-0.63672 0.019531-0.76172 0.3125l-5.0391 12.125h-10.66l10.98-11.496c0.22266-0.23047 0.21484-0.60156-0.019531-0.82422-0.23047-0.22266-0.60156-0.21484-0.82422 0.019531l-9.7617 10.223 3.9883-9.6016c0.125-0.29688-0.019532-0.63672-0.3125-0.76172-0.29688-0.125-0.63672 0.019531-0.76172 0.3125l-5.0391 12.125h-14.828c-0.32031 0-0.58203 0.26172-0.58203 0.58203 0 0.32031 0.26172 0.58203 0.58203 0.58203h27.242l5.0391 12.125c0.09375 0.22266 0.30859 0.35938 0.53906 0.35938 0.074219 0 0.14844-0.015625 0.22266-0.042969 0.29688-0.125 0.4375-0.46484 0.3125-0.76172l-3.9883-9.5977 9.7617 10.223c0.22266 0.23047 0.58984 0.24219 0.82422 0.019531 0.23047-0.22266 0.24219-0.58984 0.019532-0.82422l-10.98-11.496h10.66l5.0391 12.125c0.09375 0.22266 0.30859 0.35938 0.53906 0.35938 0.074219 0 0.14844-0.015625 0.22266-0.042969 0.29688-0.125 0.4375-0.46484 0.3125-0.76172l-3.9883-9.5977 9.7617 10.223c0.22266 0.23047 0.58984 0.24219 0.82422 0.019531 0.23047-0.22266 0.24219-0.58984 0.019531-0.82422l-10.98-11.496 10.668-0.011718 3.9062 9.1367c0.09375 0.22266 0.30859 0.35547 0.53516 0.35547 0.074219 0 0.15234-0.015625 0.22656-0.046875 0.29688-0.125 0.43359-0.46875 0.30469-0.76562l-2.8438-6.6484 7.1602 7.2852c0.22656 0.23047 0.59375 0.23047 0.82422 0.007812 0.23047-0.22656 0.23047-0.59375 0.007813-0.82422l-8.3516-8.5h4.5117l6.4805 2.9805c0.078125 0.035156 0.16016 0.054688 0.24219 0.054688 0.21875 0 0.43359-0.125 0.53125-0.33984 0.12891-0.28125 0.003906-0.625-0.28906-0.76172z"/>
  <path d="m32.656 54.137c0.10938 0.14453 0.28125 0.22656 0.46094 0.22656 0.17969 0 0.35156-0.085937 0.46094-0.22656l5.1289-6.6992c0.19531-0.25781 0.14453-0.62109-0.10938-0.81641-0.25781-0.19531-0.62109-0.14453-0.81641 0.10938l-4.6641 6.0977-4.6641-6.0977c-0.19531-0.25781-0.55859-0.30469-0.81641-0.10938-0.25781 0.19531-0.30469 0.55859-0.10938 0.81641z"/>
  <path d="m41.066 59.004-0.94531-1.2383-3.4648-4.5352c-0.19531-0.25781-0.55859-0.30469-0.81641-0.10938-0.25781 0.19531-0.30469 0.55859-0.10938 0.81641l3.4648 4.5352 1.4062 1.8438c0.10938 0.14453 0.28125 0.22656 0.46094 0.22656 0.18359 0 0.35156-0.085938 0.46094-0.22656l1.4922-1.9492 3.5195-4.6055c0.19531-0.25781 0.14453-0.62109-0.10938-0.81641-0.25781-0.19531-0.62109-0.14453-0.81641 0.10938l-3.5195 4.6016z"/>
  <path d="m25.008 60.535c0.18359 0 0.35156-0.085937 0.46094-0.22656l1.4883-1.9453 3.5195-4.6016c0.19531-0.25781 0.14453-0.62109-0.10937-0.81641-0.25781-0.19531-0.62109-0.14453-0.81641 0.10938l-3.5195 4.6016-1.0234 1.3398-0.94531-1.2344-3.6016-4.7031c-0.19531-0.25781-0.55859-0.30469-0.81641-0.10938-0.25781 0.19531-0.30469 0.5625-0.10938 0.81641l3.6016 4.7031 1.4062 1.8398c0.11328 0.14453 0.28125 0.22656 0.46484 0.22656z"/>
  <path d="m31.727 63.887-3.2812-4.2891c-0.19531-0.25781-0.55859-0.30469-0.81641-0.10938-0.25781 0.19531-0.30469 0.55859-0.10938 0.81641l3.2812 4.2891 1.8516 2.4219c0.10938 0.14453 0.28125 0.22656 0.46094 0.22656 0.18359 0 0.35156-0.085938 0.46094-0.22656l5.1328-6.7109c0.19531-0.25781 0.14453-0.62109-0.10938-0.81641-0.25781-0.19531-0.62109-0.14453-0.81641 0.10938l-4.6719 6.1055z"/>
  <path d="m40.121 70.227-3.3281-4.3555c-0.19531-0.25781-0.55859-0.30469-0.81641-0.10938-0.25781 0.19531-0.30469 0.55859-0.10937 0.81641l3.3281 4.3555 1.4062 1.8438c0.11328 0.14844 0.28906 0.22656 0.46484 0.22656 0.125 0 0.24609-0.039062 0.35156-0.12109 0.25781-0.19531 0.30469-0.55859 0.10938-0.81641z"/>
  <path d="m30.102 65.766c-0.25781-0.19531-0.62109-0.14453-0.81641 0.10938l-3.2539 4.2461-1.4883 1.9453c-0.19531 0.25781-0.14453 0.62109 0.10938 0.81641 0.10547 0.078126 0.23047 0.12109 0.35547 0.12109 0.17578 0 0.34766-0.078125 0.46094-0.22656l1.4883-1.9453 3.25-4.2461c0.19531-0.26172 0.14844-0.625-0.10547-0.82031z"/>
  <path d="m38.605 71.953c-0.25781-0.19531-0.62109-0.14453-0.81641 0.10938l-4.6719 6.1055-4.6719-6.1055c-0.19531-0.25781-0.55859-0.30469-0.81641-0.10938-0.25781 0.19531-0.30469 0.55859-0.10938 0.81641l5.1328 6.7109c0.10938 0.14453 0.28125 0.22656 0.46094 0.22656 0.17969 0 0.35156-0.085937 0.46094-0.22656l5.1328-6.7109c0.20312-0.25391 0.15234-0.62109-0.10156-0.81641z"/>
  <path d="m44.809 38.566c-1.5273-1.5273-3.3047-2.7266-5.2891-3.5625-2.0508-0.86719-4.2305-1.3086-6.4727-1.3086s-4.4258 0.44141-6.4727 1.3086c-1.9805 0.83984-3.7617 2.0391-5.2891 3.5625-1.5273 1.5273-2.7266 3.3047-3.5625 5.2891-0.86719 2.0508-1.3086 4.2305-1.3086 6.4727 0 0.92578 0.074219 2.0078 0.22266 3.207-0.007813 0.078125 0.003906 0.16016 0.03125 0.23438 0.21484 1.668 0.55859 3.5469 1.0234 5.5352 0.33594 1.4414 0.72266 2.8867 1.1445 4.3125 0.007812 0.089843 0.03125 0.17578 0.074218 0.25391 0.66016 2.1914 1.4219 4.3281 2.2461 6.3398 0.76172 1.8516 1.5703 3.5547 2.4023 5.0703 0.90234 1.6367 1.8398 3.0586 2.7852 4.2266 2.1914 2.7031 4.4453 4.0742 6.6992 4.0742 2.2578 0 4.5117-1.3711 6.6992-4.0742 0.94531-1.1641 1.8828-2.5898 2.7852-4.2266 0.83594-1.5156 1.6406-3.2188 2.4023-5.0703 1.3945-3.3906 2.5938-7.1602 3.4688-10.902 0.82422-3.5273 1.2773-6.7148 1.2773-8.9766 0-2.2461-0.44141-4.4258-1.3086-6.4727-0.82813-1.9883-2.0273-3.7656-3.5586-5.293zm3.6445 13.324-0.51172-0.67188-3.4414-4.5c-0.19531-0.25781-0.55859-0.30469-0.81641-0.10938-0.25781 0.19531-0.30469 0.55859-0.10938 0.81641l3.4414 4.5 1.2617 1.6562c-0.30859 2.4297-0.91406 5.418-1.8086 8.5938l-1.9648-2.5742c-0.19531-0.25781-0.55859-0.30469-0.81641-0.10937-0.25781 0.19531-0.30469 0.55859-0.10938 0.81641l2.4844 3.2539c-0.62109 2.0469-1.3555 4.1445-2.2031 6.2031-1.5391 3.7422-3.2773 6.8594-5.0156 9.0078-1.957 2.4141-3.9062 3.6406-5.7969 3.6406-1.8867 0-3.8398-1.2266-5.7969-3.6406-1.7422-2.1484-3.4766-5.2656-5.0156-9.0078-0.82812-2.0156-1.5508-4.0742-2.1641-6.0781l2.5742-3.3711c0.19531-0.25781 0.14453-0.62109-0.10938-0.81641-0.25781-0.19531-0.62109-0.14453-0.81641 0.10938l-2.0547 2.6914c-0.89453-3.1562-1.5078-6.1367-1.8281-8.5703l1.2969-1.6953 3.5156-4.5938c0.19531-0.25781 0.14453-0.62109-0.10938-0.81641-0.25781-0.19531-0.62109-0.14453-0.81641 0.10938l-3.5156 4.5938-0.55078 0.72266c-0.050781-0.62891-0.078125-1.207-0.078125-1.7188 0-3.0781 0.90625-5.9531 2.4648-8.3672l2.9375 3.8359 1.5664 2.0469c0.10938 0.14453 0.28125 0.22656 0.46094 0.22656 0.17969 0 0.35156-0.085938 0.46094-0.22656l1.6445-2.1523 3.8555-5.0391c0.19531-0.25781 0.14453-0.62109-0.10938-0.81641-0.25781-0.19531-0.62109-0.14453-0.81641 0.10938l-3.8594 5.0391-1.1836 1.5469-1.1055-1.4453-3.1562-4.125c2.8281-3.707 7.293-6.1016 12.305-6.1016 5.0078 0 9.4648 2.3906 12.293 6.0898l-3.0898 4.0391-1.1875 1.5508-1.1055-1.4453-3.9336-5.1445c-0.19531-0.25781-0.55859-0.30469-0.81641-0.10938s-0.30469 0.55859-0.10938 0.81641l3.9336 5.1445 1.5664 2.0508c0.10938 0.14453 0.28125 0.22656 0.46094 0.23047 0.18359 0 0.35156-0.085938 0.46094-0.22656l1.6484-2.1562 2.8672-3.75c1.5625 2.4141 2.4727 5.2969 2.4727 8.3828 0.015625 0.46094-0.007812 0.98437-0.050781 1.5547z"/>
  <path d="m62.824 63.043c0.10938-0.09375 0.21484-0.19141 0.31641-0.29688l3.5898-3.5898c0.10547-0.10547 0.20312-0.21094 0.29688-0.32031 0.30078 0.0625 0.60547 0.09375 0.90625 0.09375 1.1602 0 2.2969-0.45703 3.1484-1.3086 0.84375-0.84375 1.3047-1.9609 1.3047-3.1484 0-1.1914-0.46484-2.3086-1.3047-3.1523-0.68359-0.68359-1.5469-1.1172-2.5039-1.2578-0.80078-0.11719-1.6055-0.019531-2.3438 0.28516-1.0781-0.86719-2.4219-1.3242-3.8203-1.2969-1.5352 0.03125-2.9766 0.64453-4.0625 1.7305l-3.5898 3.5898c-1.0859 1.0859-1.6992 2.5273-1.7305 4.0625-0.03125 1.3984 0.42969 2.7383 1.2969 3.8203-0.30469 0.73828-0.40234 1.543-0.28516 2.3438 0.14062 0.95312 0.57422 1.8203 1.2578 2.5039 0.84375 0.84375 1.9609 1.3047 3.1523 1.3047h0.003906c1.1914 0 2.3086-0.46484 3.1484-1.3047 1.0781-1.0742 1.5234-2.5977 1.2188-4.0586zm7.4375-10.898c1.2852 1.2852 1.2852 3.3711 0 4.6562-0.66797 0.66797-1.5742 1.0078-2.4922 0.96094 0.51562-0.96875 0.75781-2.0703 0.68359-3.1836-0.078125-1.2148-0.53125-2.3711-1.2891-3.3125 1.0977-0.26172 2.2734 0.050781 3.0977 0.87891zm-14.668 3.0547 3.5898-3.5898c1.8047-1.8047 4.6875-1.8672 6.5664-0.14844 0.011719 0.011718 0.023438 0.019531 0.03125 0.027343 0.035156 0.027344 0.078125 0.070313 0.125 0.12109 1.668 1.668 1.8594 4.3398 0.44531 6.2227-0.003906 0.003907-0.003906 0.007813-0.007812 0.007813-0.12891 0.17188-0.27734 0.33984-0.43359 0.49609l-3.5898 3.5898c-0.15625 0.15625-0.32422 0.30469-0.5 0.43359h-0.003906c-1.8789 1.4219-4.5547 1.2305-6.2266-0.4375-0.046875-0.046875-0.089844-0.089844-0.12109-0.125-0.007812-0.011719-0.015625-0.019531-0.027344-0.03125-1.7188-1.8789-1.6562-4.7617 0.15234-6.5664zm5.1914 11.078c-1.2852 1.2852-3.375 1.2852-4.6562 0-0.82422-0.82422-1.1406-1.9961-0.875-3.0977 0.94531 0.75781 2.1016 1.2109 3.3164 1.2891 1.1133 0.074219 2.2148-0.16797 3.1836-0.6875 0.042969 0.91797-0.29688 1.8242-0.96875 2.4961z"/>
  <path d="m77.684 69.145c-1.3398 0-2.5742 0.66406-3.3047 1.7578-0.11328-0.007813-0.22656-0.011719-0.34375-0.011719h-4.4531c-0.11719 0-0.23047 0.003906-0.34766 0.011719-0.73047-1.0938-1.9648-1.7578-3.3008-1.7578-1.0625 0-2.0625 0.41406-2.8125 1.1641-0.75391 0.75391-1.1641 1.7539-1.1641 2.8164 0 0.86328 0.27344 1.6836 0.78516 2.375 0.42578 0.56641 0.97656 1.0078 1.6211 1.2852 0.14062 1.207 0.69531 2.3203 1.582 3.1758 0.98438 0.94531 2.2773 1.4648 3.6406 1.4648h4.4531c1.3633 0 2.6562-0.51953 3.6406-1.4648 0.88672-0.85156 1.4414-1.9648 1.582-3.1758 0.64062-0.27734 1.1953-0.71484 1.6211-1.2852 0.51563-0.69141 0.78516-1.5117 0.78516-2.375 0-1.0625-0.41406-2.0625-1.1641-2.8164-0.75781-0.75-1.7578-1.1641-2.8203-1.1641zm-14.562 3.9805c0-1.5508 1.2617-2.8164 2.8164-2.8164 0.76953 0 1.4883 0.3125 2.0117 0.84375-0.89062 0.29297-1.6953 0.82031-2.3203 1.5352-0.6875 0.78516-1.1211 1.7539-1.2578 2.7773-0.77344-0.51172-1.25-1.3789-1.25-2.3398zm10.914 7.1289h-4.4531c-2.1992 0-3.9922-1.7148-4.0898-3.9062 0-0.015625-0.003907-0.027344-0.003907-0.042968-0.003906-0.035157-0.003906-0.085938-0.003906-0.14453 0-2.0312 1.5117-3.7773 3.5195-4.0586 0.003906 0 0.007813 0 0.007813-0.003906 0.18359-0.027344 0.375-0.039062 0.57031-0.039062h4.4531c0.19141 0 0.38281 0.015625 0.56641 0.039062h0.003907c2.0117 0.28125 3.5273 2.0273 3.5273 4.0625 0 0.058594 0 0.10938-0.003906 0.14453v0.003906c0 0.007812-0.003906 0.019531-0.003906 0.027344v0.007812 0.003906c-0.09375 2.1875-1.8906 3.9062-4.0898 3.9062zm5.2188-4.7891c-0.13672-1.0273-0.57031-1.9922-1.2617-2.7812-0.62891-0.71484-1.4336-1.2422-2.3203-1.5352 0.52344-0.53125 1.2422-0.84375 2.0156-0.84375 1.5508 0 2.8164 1.2617 2.8164 2.8164-0.003906 0.96484-0.48438 1.832-1.25 2.3438z"/>
 </g>
</g></svg>
