<?xml version="1.0" encoding="UTF-8"?>
<svg width="100pt" height="100pt" version="1.1" viewBox="0 0 100 100" xmlns="http://www.w3.org/2000/svg"><g fill="#1C1C1C" stroke="#1C1C1C" stroke-width="2.5" fill-rule="evenodd">
 <path d="m67.25 38.469c3.3125-3.9375 4.25-6.7812 2.9062-8.6875-0.84375-1-2.0664-1.5977-3.375-1.6562 1.7812-2.2812 1.5-3.3125-0.375-8.625-0.14844-0.34375-0.42969-0.61328-0.78125-0.75-0.30078-0.125-0.63672-0.125-0.9375 0l-3.75 1.7812c-1.4375-2.6562-3.7188-6.0625-6.25-5.75s-3.125 3.5-3.5312 5.8438v0.5625c-1.5898 0.58984-2.9414 1.6875-3.8438 3.125 0.019531-2.1992-0.56641-4.3594-1.6875-6.25-0.15625-0.36328-0.48438-0.62109-0.875-0.6875-0.38281-0.089844-0.78906 0.027344-1.0625 0.3125-1.0078 0.82422-1.7734 1.9023-2.2188 3.125-2.875-2.375-6.25-4.3125-8-2.4688-1.0898 1.5117-1.2227 3.5117-0.34375 5.1562-1.2852 0.09375-2.4961 0.62109-3.4375 1.5-0.34766 0.41797-0.49609 0.96484-0.40625 1.5 0.25 1.8125 2.5 2.8125 5.4062 3.5312-1.2188 0.5625-2.4062 1.1875-3.5 1.8125-0.39453 0.21875-0.625 0.64453-0.59375 1.0938 0.027344 0.44531 0.30859 0.83203 0.71875 1 1.8398 0.75781 3.7148 1.4141 5.625 1.9688 0.8125 0.25 1.5938 0.46875 2.5312 0.8125l-0.3125 0.8125c-3.75 10.375-11.594 31.969-4.9688 42.188 2.2188 3.3242 5.9414 5.3359 9.9375 5.375 0.82422 0.046875 1.6445 0.046875 2.4688 0 4.1211 0.25781 8.1758-1.1211 11.281-3.8438 5.5625-5.2812 5.3438-14.938 5.0938-25.188v-11.312c1.9805 0.050781 3.9336-0.46875 5.625-1.5l1.4062-0.71875c0.35547-0.19141 0.59766-0.53906 0.65625-0.9375 0.03125-0.41797-0.15625-0.82031-0.5-1.0625zm-17.875 1.5938c-0.15625-0.75-0.34375-1.5312-0.5625-2.5l-0.28125-1.2188 1.25-2.25v1.4375c-0.1875 1.4375-0.28125 2.9062-0.40625 4.5312zm11.25 16.188c0.21875 9.7188 0.4375 18.906-4.3438 23.469-3.375 2.7031-7.7383 3.8398-12 3.125-3.2617-0.007812-6.3086-1.6367-8.125-4.3438-6-9.375 1.875-30.875 5.2188-40.094l0.25-0.75c0.34375 0.15625 0.625 0.25 0.96875 0.4375 0.60547 4.7148 0.21094 9.5078-1.1562 14.062-2.0664 7.1914-2.4219 14.77-1.0312 22.125 0.11719 0.52344 0.58984 0.88672 1.125 0.875h0.28125c0.625-0.15625 1.0117-0.77734 0.875-1.4062-1.3047-7.0586-0.94141-14.324 1.0625-21.219 1.5547-5.0586 1.8984-10.41 1-15.625-0.085938-0.32422-0.31641-0.58594-0.625-0.71875-2.125-1.0664-4.3398-1.9336-6.625-2.5938-0.84375-0.25-1.75-0.53125-3.125-0.96875 1.375-0.6875 2.8125-1.375 4.2812-1.9688 0.47266-0.20312 0.76172-0.69141 0.71094-1.2031-0.050782-0.51562-0.42578-0.9375-0.92969-1.0469h-0.5625c-2.207-0.20312-4.3438-0.89844-6.25-2.0312 1.0078-0.33594 2.0625-0.51562 3.125-0.53125 0.40234-0.027344 0.76562-0.25391 0.96484-0.60938 0.19531-0.35547 0.19531-0.78516 0.003906-1.1406-0.8125-1.5-1.3438-3.3438-0.71875-4s2.6562 0.6875 6.0312 3.75c0.30078 0.25781 0.71094 0.34766 1.0938 0.25 0.37891-0.097656 0.6875-0.37891 0.8125-0.75l0.28125-0.8125c0.14844-0.66797 0.4375-1.2969 0.84375-1.8438 0.6875 2.4297 1.1289 4.9219 1.3125 7.4375 0.0625 0.47656 0.42969 0.85938 0.90625 0.9375 0.50391 0.10156 1.0195-0.10547 1.3125-0.53125 0.80469-1.5938 1.8594-3.0508 3.125-4.3125-0.21875 1.5312-0.375 2.9062-0.53125 4.1875l-3.9062 7.2188c-0.14062 0.29688-0.14062 0.64062 0 0.9375l0.34375 1.5c0.98828 3.7539 1.6055 7.5938 1.8438 11.469-0.6875 5.0312-1.7188 11.438-3.4688 20.281-0.11328 0.63672 0.30078 1.25 0.9375 1.375h0.21875c0.56641-0.003906 1.0508-0.41016 1.1562-0.96875 1.6562-8.5312 2.7188-14.812 3.375-19.781 0.046875-0.19531 0.046875-0.39844 0-0.59375v-0.25c0.8125-6.25 1.0938-10.219 1.3125-13.969 0.15625-2.25 0.28125-4.375 0.53125-6.75v-0.28125c0.15625-1.7188 0.40625-3.5938 0.75-5.75 0.03125-0.15625 0.03125-0.3125 0-0.46875l0.1875-1.1875c0.625-3.75 1.5312-3.9375 1.5312-3.9375 0.8125 0 2.6562 2.0938 4.3125 5.5 0.12891 0.28516 0.36719 0.50781 0.66406 0.61328 0.29297 0.10547 0.61719 0.085938 0.89844-0.050781l3.5938-1.7188c1.375 3.9062 1.25 4.0625-0.28125 5.875l-0.71875 0.875h-0.28125c-5.2812 2.25-5.9688 6.5-7.4688 15.812-1.6172 10.559-3.9336 21-6.9375 31.25-0.17969 0.62891 0.18359 1.2891 0.8125 1.4688h0.40625c0.52344 0.003906 0.98438-0.33984 1.125-0.84375 3.0117-10.316 5.3516-20.816 7-31.438l2.5 0.3125c-0.15625 3.5625-0.09375 7.5 0 11.344zm-2.0312-14.125c1.1875-7.0938 1.9688-9.9688 5.5312-11.531 0.20312 0.078125 0.42188 0.078125 0.625 0 1.0625 0 3.125 0 3.5312 0.75 0 0.25 0.75 1.8125-3.625 6.6875-0.21094 0.25-0.3125 0.57812-0.28125 0.90625 0.023438 0.33594 0.19531 0.64844 0.46875 0.84375l2.4688 1.7812c-2.2188 1-3.1562 1.3438-8.7188 0.53125z"/>
</g></svg>
