<?xml version="1.0" encoding="UTF-8"?>
<svg xmlns="http://www.w3.org/2000/svg" version="1.1" viewBox="65.81850 51.58883 14.50460 14.50460" width="100" height="100"><defs><clipPath id="c"><rect x="66.666665" y="51.861336" width="13.333333" height="12.965334" /></clipPath></defs><g fill="#1C1C1C" stroke="none" stroke-width="2.5" clip-path="url(#c)"><path id="path534" d="m 529.988,551 -0.468,0.191 v 0.918 l 4.503,4.504 -1.816,1.825 -4.504,-4.5 h -0.926 v 0.917 l 4.969,4.961 h 0.922 l 2.742,-2.746 v -0.918 l -4.961,-4.961 -0.461,-0.191" transform="matrix(0.13333333,0,0,-0.13333333,0,129.65333)" />
      <path id="path535" d="m 535.77,567.848 -0.465,0.195 0.008,0.918 c 3.261,3.191 4.714,7.371 4.726,7.41 l 0.82,0.41 0.411,-0.824 c -0.059,-0.184 -1.551,-4.512 -5.047,-7.926 l -0.453,-0.183" transform="matrix(0.13333333,0,0,-0.13333333,0,129.65333)" />
      <path id="path1205" d="m 535.867,492.996 v -1.59 l 0.988,-0.992 h 15.379 l 0.989,0.992 v 1.59 z m 16.367,-3.973 h -15.379 c -1.308,0 -2.382,1.071 -2.382,2.383 v 2.289 l 0.703,0.696 h 18.742 l 0.691,-0.696 v -2.289 c 0,-1.312 -1.062,-2.383 -2.375,-2.383" transform="matrix(0.13333333,0,0,-0.13333333,0,129.65333)" />
      <path id="path1206" d="m 537.766,486.785 h 13.55 v 2.238 h -13.55 z m 14.254,-1.383 h -14.95 l -0.691,0.692 v 3.625 l 0.691,0.695 h 14.95 l 0.695,-0.695 v -3.625 l -0.695,-0.692" transform="matrix(0.13333333,0,0,-0.13333333,0,129.65333)" />
      <path id="path1208" d="m 537.051,494.391 h 14.992 c -0.676,1.539 -3.52,2.972 -7.5,2.972 -3.977,0 -6.816,-1.433 -7.492,-2.972 z m 15.84,-1.395 h -16.692 l -0.703,0.699 c 0,2.836 3.977,5.059 9.047,5.059 5.074,0 9.043,-2.223 9.043,-5.059 l -0.695,-0.699" transform="matrix(0.13333333,0,0,-0.13333333,0,129.65333)" />
      <path id="path1209" d="m 544.543,498.754 1.656,-0.086 v 3.473 l -0.269,0.277 h -2.766 l -0.273,-0.277 v -3.473 z m 2.352,-1.57 -0.098,0.007 c -1.484,0.227 -3.027,0.227 -4.5,0 l -0.559,0.157 -0.246,0.535 v 4.258 c 0,0.918 0.754,1.668 1.672,1.668 h 2.766 c 0.918,0 1.668,-0.75 1.668,-1.668 v -4.258 l -0.243,-0.535 -0.46,-0.164" transform="matrix(0.13333333,0,0,-0.13333333,0,129.65333)" />
      <path id="path1211" d="m 550.984,499.801 h -1.394 l -0.695,0.691 0.695,0.699 h 1.394 l 0.696,-0.699 -0.696,-0.691" transform="matrix(0.13333333,0,0,-0.13333333,0,129.65333)" />
      <path id="path1212" d="m 560.715,499.801 h -3.242 l -0.696,0.691 0.696,0.699 h 3.242 l 0.691,-0.699 -0.691,-0.691" transform="matrix(0.13333333,0,0,-0.13333333,0,129.65333)" />
      <path id="path1213" d="m 568.594,499.801 h -1.399 l -0.691,0.691 0.691,0.699 h 1.399 l 0.691,-0.699 -0.691,-0.691" transform="matrix(0.13333333,0,0,-0.13333333,0,129.65333)" />
      <path id="path1214" d="m 558.84,496.742 -0.235,0.039 -1.308,0.481 -0.422,0.894 0.898,0.414 1.297,-0.48 0.422,-0.887 -0.652,-0.461" transform="matrix(0.13333333,0,0,-0.13333333,0,129.65333)" />
      <path id="path1215" d="m 564.27,494.766 -0.247,0.043 -1.308,0.48 -0.41,0.887 0.886,0.418 1.313,-0.477 0.418,-0.89 -0.652,-0.461" transform="matrix(0.13333333,0,0,-0.13333333,0,129.65333)" />
      <path id="path1216" d="m 554.656,496.266 -0.445,0.16 -1.066,0.894 -0.086,0.981 0.972,0.09 1.067,-0.895 0.09,-0.98 -0.532,-0.25" transform="matrix(0.13333333,0,0,-0.13333333,0,129.65333)" />
      <path id="path1217" d="m 559.824,491.926 -0.437,0.16 -1.731,1.449 -0.09,0.977 0.989,0.09 1.718,-1.446 0.086,-0.984 -0.535,-0.246" transform="matrix(0.13333333,0,0,-0.13333333,0,129.65333)" />
      <path id="path1218" d="m 564.348,488.137 -0.453,0.164 -1.063,0.89 -0.09,0.981 0.981,0.086 1.074,-0.895 0.074,-0.984 -0.523,-0.242" transform="matrix(0.13333333,0,0,-0.13333333,0,129.65333)" />
      <path id="path1219" d="m 557.527,502.379 -0.652,0.457 0.422,0.894 1.308,0.473 0.887,-0.414 -0.422,-0.894 -1.297,-0.473 -0.246,-0.043" transform="matrix(0.13333333,0,0,-0.13333333,0,129.65333)" />
      <path id="path1220" d="m 562.961,504.352 -0.656,0.457 0.41,0.894 1.308,0.481 0.899,-0.422 -0.418,-0.891 -1.313,-0.476 -0.23,-0.043" transform="matrix(0.13333333,0,0,-0.13333333,0,129.65333)" />
      <path id="path1221" d="m 553.586,502.441 -0.527,0.247 0.086,0.98 1.066,0.898 0.977,-0.089 -0.09,-0.981 -1.067,-0.894 -0.445,-0.161" transform="matrix(0.13333333,0,0,-0.13333333,0,129.65333)" />
      <path id="path1222" d="m 558.105,506.227 -0.539,0.25 0.09,0.98 1.731,1.449 0.972,-0.086 -0.086,-0.984 -1.718,-1.445 -0.45,-0.164" transform="matrix(0.13333333,0,0,-0.13333333,0,129.65333)" />
      <path id="path1223" d="m 563.281,510.566 -0.539,0.25 0.09,0.981 1.063,0.898 0.976,-0.086 -0.074,-0.984 -1.074,-0.891 -0.442,-0.168" transform="matrix(0.13333333,0,0,-0.13333333,0,129.65333)" />
      </g></svg>