<?xml version="1.0" encoding="UTF-8"?>
<svg width="100pt" height="100pt" version="1.1" viewBox="0 0 100 100" xmlns="http://www.w3.org/2000/svg"><g fill="#1C1C1C" stroke="#1C1C1C" stroke-width="2.5" fill-rule="evenodd">
 <g>
  <path d="m65.262 36.957c-0.89844-0.89844-1.9453-1.6055-3.1133-2.0977-1.207-0.51172-2.4883-0.76953-3.8086-0.76953-1.3203 0-2.6055 0.25781-3.8086 0.76953-1.1641 0.49219-2.2109 1.1992-3.1133 2.0977-0.89844 0.89844-1.6055 1.9453-2.0977 3.1133-0.51172 1.207-0.76953 2.4883-0.76953 3.8086 0 1.3203 0.25781 2.6055 0.76953 3.8086 0.49219 1.1641 1.1992 2.2109 2.0977 3.1133 0.89844 0.89844 1.9453 1.6055 3.1133 2.0977 1.207 0.51172 2.4883 0.76953 3.8086 0.76953 1.3203 0 2.6055-0.25781 3.8086-0.76953 1.1641-0.49219 2.2109-1.1992 3.1133-2.0977 0.89844-0.89844 1.6055-1.9453 2.0977-3.1133 0.51172-1.207 0.76953-2.4883 0.76953-3.8086 0-1.3203-0.25781-2.6055-0.76953-3.8086-0.49609-1.168-1.1992-2.2109-2.0977-3.1133zm-6.9219 15.547c-4.7578 0-8.625-3.8672-8.625-8.625 0-4.7578 3.8672-8.625 8.625-8.625 4.7578 0 8.625 3.8672 8.625 8.625-0.003906 4.7578-3.8711 8.625-8.625 8.625z"/>
  <path d="m58.34 37.98c-0.32031 0-0.58203 0.26172-0.58203 0.58203s0.26172 0.58203 0.58203 0.58203c2.6094 0 4.7344 2.125 4.7344 4.7344 0 0.32031 0.26172 0.58203 0.58203 0.58203s0.58203-0.26172 0.58203-0.58203c0-3.25-2.6445-5.8984-5.8984-5.8984z"/>
  <path d="m80.676 54.508c-0.48828-1.4531-0.95312-2.8242-1.0898-4.2852-0.23828-2.5898 0.72656-4.8164 1.75-7.1758 0.98437-2.2656 2-4.6094 1.8555-7.2969-0.11719-2.2109-0.83984-4.4258-2.0859-6.4023-1.2109-1.9219-2.8711-3.5508-4.7969-4.7148-3.1797-1.9258-6.7344-1.9844-10.176-2.0391-0.41016-0.007812-0.83594-0.015625-1.2539-0.023438-3.7266-0.09375-6.9531-0.58594-10.586-2.6953-0.375-0.21875-0.75391-0.44531-1.1211-0.66406-1.1562-0.69531-2.3516-1.4141-3.6406-1.9414-1.7422-0.71875-3.6016-0.98047-5.5234-0.78125-1.7656 0.18359-3.5273 0.74219-5.2344 1.6719-1.5938 0.86328-3.1172 2.0469-4.4023 3.4219-1.2773 1.3672-2.332 2.9336-3.0508 4.5273-2.4727 5.4688-1.6797 11.836-0.48828 16.41-1.5234 0.39062-3.0312 1.2617-4.5078 2.6094-1.7891 1.6328-3.4688 3.8906-4.9805 6.7109-1.3594 2.5312-2.5117 5.3867-3.3242 8.2578-0.80078 2.8164-1.2227 5.4492-1.2227 7.6055 0 2.1445 0.42188 4.2227 1.2461 6.1797 0.80078 1.8906 1.9453 3.5898 3.4023 5.0469 1.457 1.457 3.1562 2.6055 5.0469 3.4023 1.957 0.82812 4.0391 1.2461 6.1797 1.2461 2.7539 0 5.457-0.71484 7.8359-2.0664 0.53516 0.30078 1.0859 0.57422 1.6562 0.81641 1.957 0.82812 4.0391 1.2461 6.1797 1.2461 2.1445 0 4.2227-0.42188 6.1797-1.2461 1.8906-0.80078 3.5898-1.9453 5.0469-3.4023 1.457-1.457 2.6055-3.1562 3.4023-5.0469 0.050782-0.12109 0.10156-0.24609 0.15234-0.37109 1.375 0.38672 2.793 0.58203 4.2305 0.58203 0.14453 0 0.29297-0.003906 0.4375-0.007813 1.7617-0.046875 3.4688-0.38672 5.082-1.0078 1.6562-0.63672 3.1445-1.543 4.4258-2.6953 1.3477-1.2148 2.4258-2.6719 3.2031-4.3281 0.59375-1.2617 1.0117-2.6641 1.2109-4.0703 0.21094-1.4922 0.17969-2.9258-0.097656-4.2617-0.23047-1.1016-0.58984-2.1758-0.94141-3.2109zm-48 27.906c-8.1133 0-14.715-6.6016-14.715-14.715 0-4.2461 1.7734-10.398 4.4102-15.309 1.4336-2.6641 3.0703-4.8789 4.7422-6.4023 1.8516-1.6875 3.7188-2.5391 5.5625-2.5391 0.20703 0 0.40234 0.011719 0.60938 0.03125 3.207 0.32812 6.5352 3.2812 9.3672 8.3203 2.375 4.2227 4.1172 9.4414 4.6055 13.746l-0.96484 0.35547c-1.3086-0.68359-7.9023-4.1289-11.816-6.0234-0.15625-0.074218-0.33594-0.078125-0.49219-0.007812-0.15625 0.070312-0.27344 0.20703-0.32031 0.375-0.77734 2.7578-1.1875 5.3359-1.1875 7.457 0 2.1445 0.42188 4.2227 1.2461 6.1797 0.80078 1.8906 1.9453 3.5898 3.4023 5.0469 0.69922 0.69922 1.4531 1.3242 2.2539 1.875-2.0703 1.0547-4.3672 1.6094-6.7031 1.6094zm15.668 0c-8.1133 0-14.711-6.6016-14.711-14.715 0-1.8477 0.32813-4.0703 0.95703-6.4688 4.3906 2.1523 11.309 5.7812 11.383 5.8203 0.14453 0.074219 0.31641 0.089844 0.46875 0.03125l1.5977-0.58594c0.023438-0.007813 0.046876-0.015625 0.070313-0.027344l4.8711-1.7852 3.4531 2.332c0.17578 0.11719 0.39844 0.13281 0.58984 0.039063l5.7109-2.8672c0.21484 1.2891 0.32031 2.4648 0.32031 3.5117 0.003906 8.1133-6.5977 14.715-14.711 14.715zm31.105-16.855c-2.707 5.7617-9.4766 8.6367-15.938 6.8516 0.47266-1.5195 0.71094-3.0977 0.71094-4.7109 0-1.3203-0.16016-2.8281-0.48047-4.4883-0.035157-0.17969-0.14844-0.33203-0.3125-0.41016-0.16406-0.078125-0.35547-0.078125-0.51953 0.003907l-6.1016 3.0625-3.418-2.3086c-0.15234-0.10547-0.35156-0.12891-0.52734-0.0625l-4.4883 1.6445c-0.24609-1.9883-0.75781-4.207-1.4844-6.4609-0.84766-2.625-1.9648-5.1992-3.2266-7.4453-1.4062-2.4961-2.9414-4.5273-4.5664-6.0273-1.8555-1.7148-3.7734-2.6836-5.6953-2.8789-0.24219-0.027344-0.48047-0.039063-0.72656-0.039063-0.22656 0-0.45703 0.011719-0.6875 0.03125-1.1562-4.3945-1.9492-10.531 0.39844-15.73 2.7188-6.0312 10.25-10.898 16.711-8.2383 1.207 0.49219 2.3633 1.1914 3.4805 1.8633 0.37109 0.22266 0.75391 0.45312 1.1367 0.67578 3.8477 2.2305 7.2344 2.7539 11.141 2.8516 0.42188 0.011718 0.84766 0.019531 1.2617 0.023437 3.4375 0.054687 6.6797 0.10938 9.5898 1.8711 3.6875 2.2266 6.1094 6.1289 6.3242 10.184 0.12891 2.4141-0.78906 4.5312-1.7617 6.7734-1.0352 2.3906-2.1094 4.8594-1.8398 7.7461 0.14844 1.5977 0.65625 3.0977 1.1445 4.5508 0.33984 1.0039 0.69141 2.043 0.90625 3.0781 0.48438 2.3477 0.10156 5.1875-1.0312 7.5898z"/>
 </g>
</g></svg>
