<?xml version="1.0" encoding="UTF-8"?>
<svg width="100pt" height="100pt" version="1.1" viewBox="0 0 100 100" xmlns="http://www.w3.org/2000/svg"><g fill="#1C1C1C" stroke="#1C1C1C" stroke-width="2.5" fill-rule="evenodd">
 <path d="m83.207 33.66c-1-1.0273-2.2656-2.0547-3.7617-3.0547-1.1875-0.79297-2.5273-1.5703-3.9766-2.3125-1.8672-0.95312-3.418-1.5938-4.0938-1.8594-0.066406-1.3945-0.30469-2.7188-0.71484-3.9336-0.35938-1.0664-0.85156-2.0547-1.457-2.9375-1.0469-1.5195-2.0859-2.2031-2.1289-2.2305-0.13281-0.085937-0.29688-0.11328-0.45312-0.074219-2.5312 0.63281-6.6836 3.9023-7.7148 4.7422l-3.3828-0.91797c-0.20703-0.054687-0.42969 0.007813-0.57031 0.16406-0.089844 0.09375-2.125 2.375-0.5 6.8516 0.62891 1.7305 1.7734 3.3008 3.3906 4.6719 0.10156 0.085938 0.20312 0.16797 0.30078 0.24609-2.0586-0.26172-4.1484-0.32422-6.2422-0.19141-2.4297 0.15625-4.8633 0.58203-7.2383 1.2656-3.0469 0.875-5.1875 1.9336-6.1055 2.4336-1.8281-2.9414-2.9727-5.0586-3.3164-5.707 0.15625-0.50781 0.30078-1.0273 0.43359-1.5664 0.79688-3.25 1.1836-7.1094 1.1836-11.797 0-0.31641-0.25781-0.57422-0.57422-0.57422s-0.57422 0.25781-0.57422 0.57422c0 4.5938-0.375 8.3633-1.1484 11.523-0.14453 0.58594-0.30078 1.1523-0.47266 1.6953-0.007813 0.019531-0.011719 0.039063-0.019532 0.054687-1.1328 3.5586-2.8633 6.1289-5.1484 7.6602-1.5859 1.0586-3.5938 1.4766-5.375 1.1172-1.5273-0.3125-2.7773-1.1484-3.6094-2.4219-1.5781-2.4141-1.0195-5.5703 1.2695-7.1836 1.8555-1.3086 4.4297-0.86328 5.7344 0.99219 1.0117 1.4336 0.66406 3.418-0.76562 4.4297-1.0938 0.77344-2.6133 0.50781-3.3828-0.58594-0.28125-0.39844-0.39062-0.88281-0.30469-1.3633 0.085938-0.48047 0.34766-0.89844 0.74609-1.1836 0.60547-0.42969 1.4492-0.28125 1.875 0.32422 0.18359 0.26172 0.54297 0.32031 0.80078 0.13672 0.26172-0.18359 0.32031-0.54297 0.13672-0.80078-0.79297-1.125-2.3516-1.3945-3.4766-0.60156-0.64844 0.45703-1.082 1.1406-1.2188 1.9258-0.13672 0.78516 0.042969 1.5703 0.5 2.2227 0.69531 0.98438 1.8047 1.5156 2.9297 1.5156 0.71094 0 1.4297-0.21094 2.0547-0.65234 1.9492-1.375 2.418-4.0781 1.043-6.0273-0.80859-1.1484-2.0195-1.9141-3.4023-2.1523-1.3867-0.23828-2.7812 0.074219-3.9297 0.88281-1.375 0.96875-2.2891 2.4102-2.5703 4.0547-0.27734 1.6172 0.078126 3.2852 1.0039 4.6953 0.51172 0.78516 1.1602 1.4336 1.9297 1.9375 0.72266 0.47266 1.5352 0.80078 2.4102 0.98047 0.49609 0.10156 1.0156 0.15234 1.5391 0.15234 0.55469 0 1.1211-0.058594 1.6758-0.17188 1.0742-0.22266 2.1211-0.66016 3.0273-1.2656 1.5508-1.0391 2.8711-2.5078 3.9297-4.3633 0.46094-0.8125 0.87891-1.707 1.2461-2.6836 0.39062 0.71094 0.96094 1.7188 1.6914 2.9453 0.40625 0.67969 0.88672 1.4688 1.4375 2.3477 0.003906 0.003906 0.003906 0.007812 0.007812 0.011718 0.003906 0.007813 0.007812 0.011719 0.011719 0.015626 1.0547 1.6758 2.3633 3.668 3.8867 5.8203-0.93359 0.5625-2.8516 1.8633-4.6914 3.9531-1.4766 1.6758-2.5938 3.5117-3.3203 5.4609-0.65234 1.75-0.99219 3.5898-1.0117 5.4961-0.17969-0.24219-0.375-0.49219-0.59375-0.75391-1.3711-1.6211-2.9414-2.7617-4.6758-3.3906-4.4805-1.6289-6.7539 0.41016-6.8477 0.5-0.15625 0.14453-0.21875 0.36719-0.16406 0.57031l0.91406 3.3828c-0.83594 1.0352-4.1055 5.1875-4.7383 7.7188-0.039062 0.15234-0.011719 0.31641 0.074219 0.44922 0.027344 0.042969 0.71094 1.082 2.2266 2.1289 0.87891 0.60938 1.8711 1.0977 2.9375 1.457 1.2148 0.40625 2.5352 0.64844 3.9336 0.71484 0.26562 0.67578 0.90234 2.2266 1.8594 4.0977 0.73828 1.4492 1.5195 2.7891 2.3125 3.9766 1 1.4961 2.0273 2.7617 3.0586 3.7617 0.11328 0.10937 0.25781 0.16016 0.39844 0.16016 0.14453 0 0.28906-0.054688 0.39844-0.16016 1.0273-1 2.0547-2.2656 3.0547-3.7617 0.79297-1.1875 1.5703-2.5273 2.3125-3.9766 0.95312-1.8672 1.5938-3.418 1.8594-4.0938 1.3945-0.066406 2.7188-0.30469 3.9336-0.71484 1.0664-0.35937 2.0547-0.85156 2.9375-1.457 1.5195-1.0469 2.2031-2.0859 2.2305-2.1289 0.085937-0.13281 0.11328-0.29688 0.074219-0.45312-0.63281-2.5312-3.9023-6.6836-4.7422-7.7148l0.91797-3.3828c0.054687-0.20703-0.007813-0.42969-0.16406-0.57031-0.09375-0.089843-2.375-2.125-6.8516-0.5-1.7305 0.62891-3.3008 1.7734-4.6719 3.3906-0.32031 0.37891-0.60156 0.75-0.83594 1.0898-0.046876-3.8789 1.3008-7.4023 4.0234-10.504 1.7891-2.0391 3.6992-3.3047 4.5273-3.8047 0.16406 0.23047 0.33594 0.46094 0.50781 0.69531 3.2617 4.4414 6.6719 8.4414 10.133 11.891 3.4414 3.4258 6.9375 6.3125 10.438 8.6172-2.1055-0.17578-4.0195 0.13281-5.6836 0.90625-4.3164 2.0156-4.4844 5.0664-4.4883 5.1953-0.007813 0.21484 0.10156 0.41406 0.28906 0.51953l3.0391 1.7422c0.14062 1.3203 0.76562 6.5703 2.1055 8.8047 0.082032 0.13672 0.21484 0.23047 0.37109 0.26562 0.03125 0.007813 0.48828 0.10156 1.2461 0.10156 0.49219 0 1.1172-0.039063 1.832-0.17188 1.0508-0.19531 2.0977-0.54687 3.1055-1.0469 1.1484-0.57031 2.2539-1.3359 3.2852-2.2773 0.66406 0.28906 2.2148 0.9375 4.2109 1.582 1.5508 0.50391 3.0469 0.89844 4.4492 1.1758 1.7656 0.35156 3.3867 0.51953 4.8203 0.49609 0.30859-0.003906 0.5625-0.25781 0.56641-0.56641 0.019531-1.4336-0.14844-3.0547-0.5-4.8203-0.28125-1.4023-0.67578-2.8984-1.1797-4.4453-0.64453-1.9961-1.293-3.543-1.582-4.207 0.94141-1.0352 1.707-2.1367 2.2773-3.2852 0.50391-1.0117 0.85547-2.0547 1.0469-3.1094 0.33594-1.8125 0.082031-3.0312 0.070313-3.082-0.035156-0.15625-0.12891-0.28906-0.26562-0.37109-2.2344-1.3438-7.4844-1.9648-8.8086-2.1055l-1.7422-3.043c-0.10547-0.1875-0.30859-0.29688-0.52344-0.28906-0.12891 0.007813-3.1836 0.17578-5.1992 4.4922-0.77734 1.668-1.082 3.5898-0.90234 5.7031 0.058593 0.67969 0.15625 1.2891 0.26562 1.793-9.2461-5.6406-16.883-14.539-21.738-21.145-0.27734-0.375-0.54688-0.74609-0.80859-1.1133-0.003907-0.007812-0.007813-0.011719-0.011719-0.015625-1.4922-2.082-2.7969-4.043-3.8945-5.7734 0.89844-0.48047 2.9492-1.4805 5.8086-2.3008 3.3242-0.95312 8.3906-1.8281 14.211-0.86328-0.41016 0.27344-0.87109 0.60938-1.3516 1.0117-1.6211 1.3711-2.7617 2.9414-3.3906 4.6758-1.6289 4.4805 0.41016 6.7539 0.5 6.8477 0.14453 0.15625 0.36719 0.21875 0.57031 0.16406l3.3828-0.91406c1.0352 0.83594 5.1875 4.1055 7.7188 4.7383 0.046875 0.011719 0.09375 0.019532 0.14062 0.019532 0.10938 0 0.21875-0.03125 0.3125-0.09375 0.042969-0.027344 1.082-0.71094 2.1289-2.2266 0.60937-0.87891 1.0977-1.8711 1.457-2.9375 0.40625-1.2148 0.64844-2.5352 0.71484-3.9336 0.67578-0.26563 2.2266-0.90234 4.0977-1.8594 1.4492-0.73828 2.7891-1.5195 3.9766-2.3125 1.4961-1 2.7617-2.0273 3.7617-3.0586 0.20703-0.21094 0.20703-0.56641-0.011719-0.78906zm-43.41 21.617c1.5742-0.57031 3.0547-0.70703 4.2891-0.38672 0.51953 0.13281 0.89062 0.32031 1.1211 0.46094l-0.89062 3.2812c-0.050781 0.17969-0.007812 0.375 0.11328 0.51953 0.039062 0.046875 3.8008 4.5977 4.6289 7.2383-0.60547 0.76172-3.1211 3.4648-8.4023 3.5898-0.23438 0.007812-0.44531 0.15234-0.52734 0.375-0.007812 0.019531-0.71094 1.9258-1.9414 4.3281-1.0586 2.0742-2.7188 4.918-4.7422 7.0352-2.0234-2.1094-3.6836-4.9492-4.7383-7.0195-1.2305-2.4062-1.9414-4.3242-1.9492-4.3477-0.082031-0.22266-0.28906-0.37109-0.52734-0.375-3.1836-0.074218-5.3359-1.1016-6.5781-1.9453-0.97656-0.66406-1.5625-1.3242-1.8164-1.6445 0.82422-2.6406 4.5859-7.1914 4.625-7.2383 0.12109-0.14453 0.16016-0.33594 0.11328-0.51563l-0.88672-3.2852c0.23047-0.14062 0.60547-0.32812 1.1211-0.46094 1.2305-0.31641 2.7148-0.18359 4.2852 0.38672 2.7734 1.0078 4.5391 3.3359 5.3594 4.6641-0.99219 0.12109-2.1133 0.65234-3.3477 1.5859-1.2266 0.92578-2.1133 1.9102-2.1523 1.9531-0.21094 0.23438-0.19141 0.59766 0.042969 0.80859 0.10938 0.097656 0.24609 0.14453 0.38281 0.14453 0.15625 0 0.3125-0.0625 0.42969-0.19141 0.007812-0.011719 0.86328-0.95312 2.0039-1.8125 1.1914-0.89453 2.2383-1.3633 3.0664-1.3672v8.0234c0 0.31641 0.25781 0.57422 0.57422 0.57422s0.57422-0.25781 0.57422-0.57422v-8.0234c0.82422 0.007812 1.875 0.47266 3.0664 1.3672 1.1406 0.85938 1.9922 1.8008 2.0039 1.8125 0.11328 0.125 0.26953 0.19141 0.42969 0.19141 0.13672 0 0.27344-0.046876 0.38281-0.14453 0.23438-0.21094 0.25781-0.57422 0.042969-0.8125-0.039063-0.042968-0.92578-1.0273-2.1523-1.9531-1.2344-0.92969-2.3555-1.4609-3.3477-1.5859 0.79297-1.2891 2.5664-3.6445 5.3438-4.6562zm27.516 3.2617c0.70703-1.5156 1.6602-2.6602 2.7617-3.3047 0.46094-0.27344 0.85938-0.40234 1.1211-0.46484l1.6914 2.9531c0.09375 0.16016 0.26172 0.26953 0.44531 0.28516 0.0625 0.007813 5.9375 0.55859 8.3906 1.8477 0.10938 0.96484 0.24219 4.6562-3.4023 8.4805-0.16016 0.17187-0.20312 0.42578-0.10547 0.63672 0.007812 0.019532 0.85938 1.8672 1.6914 4.4336 0.71875 2.2148 1.5547 5.3984 1.6211 8.3281-2.9258-0.0625-6.1016-0.89453-8.3125-1.6133-2.5703-0.83203-4.4336-1.6875-4.4492-1.6953-0.21484-0.097656-0.46484-0.054687-0.63672 0.10547-2.3047 2.1992-4.5508 2.9922-6.0312 3.2773-1.1602 0.21875-2.043 0.17188-2.4492 0.125-1.2852-2.4531-1.8438-8.3281-1.8477-8.3906-0.019531-0.1875-0.125-0.35156-0.28516-0.44531l-2.9531-1.6953c0.058594-0.24609 0.18359-0.61719 0.42969-1.0547 0.44531-0.78516 1.3867-1.9062 3.3438-2.8203 2.6758-1.2461 5.5664-0.85156 7.0898-0.48828-0.61328 0.78906-1.0312 1.9531-1.2461 3.4844-0.21484 1.5195-0.14453 2.8477-0.14063 2.9023 0.015626 0.30469 0.26953 0.54297 0.57031 0.54297h0.03125c0.31641-0.019531 0.55859-0.28906 0.54297-0.60547 0-0.011719-0.066406-1.2852 0.13281-2.6953 0.21094-1.4766 0.62109-2.5469 1.1992-3.1367l5.6758 5.6758c0.11328 0.11328 0.26172 0.16797 0.40625 0.16797 0.14844 0 0.29297-0.054688 0.40625-0.16797 0.22266-0.22266 0.22266-0.58984 0-0.8125l-5.6836-5.6719c0.58984-0.57812 1.6562-0.98828 3.1367-1.1992 1.4062-0.19922 2.6719-0.13672 2.6953-0.13281 0.31641 0.019531 0.58984-0.22656 0.60547-0.54297 0.015626-0.31641-0.22656-0.58984-0.54297-0.60547-0.054688-0.003907-1.3789-0.070313-2.9023 0.14062-1.5312 0.21484-2.6992 0.63281-3.4883 1.2461-0.34766-1.4922-0.75781-4.4102 0.48828-7.0898zm7.6484-19.738c-2.4062 1.2305-4.3242 1.9414-4.3477 1.9492-0.22266 0.082031-0.37109 0.28906-0.375 0.52734-0.074219 3.1836-1.1016 5.3359-1.9453 6.5781-0.66406 0.97656-1.3242 1.5625-1.6445 1.8164-2.6406-0.82422-7.1914-4.5859-7.2383-4.625-0.10547-0.085937-0.23438-0.13281-0.36719-0.13281-0.050781 0-0.10156 0.007813-0.14844 0.019532l-3.2852 0.88672c-0.13281-0.21484-0.30859-0.56641-0.44141-1.0508-0.23828-0.86719-0.37109-2.3281 0.36719-4.3594 1.0078-2.7734 3.3359-4.5352 4.6641-5.3555 0.125 0.99219 0.65234 2.1133 1.5859 3.3477 0.92578 1.2266 1.9102 2.1133 1.9531 2.1523 0.10938 0.097656 0.24609 0.14453 0.38281 0.14453 0.15625 0 0.3125-0.0625 0.42969-0.19141 0.21094-0.23437 0.19141-0.60156-0.042969-0.80859-0.011718-0.007813-0.95312-0.86328-1.8125-2.0039-0.89453-1.1914-1.3633-2.2383-1.3672-3.0664h8.0234c0.31641 0 0.57422-0.25781 0.57422-0.57422 0-0.31641-0.25781-0.57422-0.57422-0.57422l-8.0312 0.007812c0.007813-0.82422 0.47266-1.875 1.3672-3.0664 0.85938-1.1406 1.8008-1.9922 1.8125-2.0039 0.23438-0.21094 0.25781-0.57422 0.042969-0.80859-0.21094-0.23438-0.57422-0.25781-0.8125-0.042969-0.042969 0.039063-1.0273 0.92578-1.9531 2.1523-0.92969 1.2344-1.4609 2.3555-1.5859 3.3477-1.2969-0.80469-3.6523-2.5742-4.6641-5.3516-0.57031-1.5742-0.70703-3.0547-0.38672-4.2891 0.13281-0.51953 0.32031-0.89062 0.46094-1.1211l3.2812 0.89062c0.17969 0.050782 0.375 0.007813 0.51953-0.11328 0.046875-0.039062 4.5977-3.8008 7.2383-4.6289 0.76172 0.60547 3.4648 3.1211 3.5898 8.4023 0.007812 0.23438 0.15234 0.44531 0.375 0.52734 0.019531 0.007813 1.9258 0.71094 4.3281 1.9414 2.0742 1.0586 4.918 2.7188 7.0352 4.7422-2.0977 2.0195-4.9375 3.6758-7.0078 4.7344z"/>
</g></svg>
