<?xml version="1.0" encoding="UTF-8"?>
<svg xmlns="http://www.w3.org/2000/svg" version="1.1" viewBox="118.62921 38.42321 14.57651 14.57651" width="100" height="100"><defs><clipPath id="c"><rect x="119.999997" y="38.896002" width="13.333333" height="12.965334" /></clipPath></defs><g fill="#1C1C1C" stroke="none" stroke-width="2.5" clip-path="url(#c)"><path id="path388" d="m 949.578,657.738 h 7.68 l 3.847,6.653 -3.847,6.648 h -7.68 l -3.836,-6.648 z m 8.059,-1.297 h -8.438 l -0.554,0.321 -4.219,7.304 v 0.653 l 4.219,7.297 0.554,0.328 h 8.438 l 0.566,-0.328 4.207,-7.297 v -0.653 l -4.207,-7.304 -0.566,-0.321" transform="matrix(0.13333333,0,0,-0.13333333,0,129.65333)" />
      <path id="path389" d="m 965.066,664.445 -0.562,0.321 -0.656,1.129 0.246,0.886 0.886,-0.238 0.645,-1.121 -0.234,-0.891 -0.325,-0.086" transform="matrix(0.13333333,0,0,-0.13333333,0,129.65333)" />
      <path id="path390" d="m 962.781,668.398 -0.562,0.325 -0.813,1.414 0.235,0.89 0.886,-0.242 0.825,-1.41 -0.247,-0.887 -0.324,-0.09" transform="matrix(0.13333333,0,0,-0.13333333,0,129.65333)" />
      <path id="path391" d="m 960.332,672.641 -0.566,0.324 -0.645,1.129 0.234,0.886 0.887,-0.238 0.656,-1.125 -0.246,-0.89 -0.32,-0.086" transform="matrix(0.13333333,0,0,-0.13333333,0,129.65333)" />
      <path id="path392" d="m 959.441,653.301 h -12.046 l -0.571,0.328 -6.023,10.437 v 0.653 l 6.023,10.433 0.571,0.328 h 12.046 l 0.571,-0.328 0.23,-0.41 -0.23,-0.89 -0.891,0.242 -0.051,0.082 h -11.297 l -5.656,-9.785 5.656,-9.786 h 11.297 l 5.649,9.786 -0.215,0.375 0.23,0.894 0.891,-0.238 0.41,-0.703 v -0.653 l -6.023,-10.437 -0.571,-0.328" transform="matrix(0.13333333,0,0,-0.13333333,0,129.65333)" />
      <path id="path397" d="m 931.504,647.301 h 7.676 l 3.847,6.652 -3.847,6.652 h -1.875 c -0.098,-1.23 -1.121,-2.203 -2.371,-2.203 -1.25,0 -2.289,0.973 -2.375,2.203 h -1.055 l -3.848,-6.652 z M 939.563,646 h -8.442 l -0.555,0.328 -4.218,7.301 v 0.648 l 4.218,7.305 0.555,0.328 h 2.082 l 0.645,-0.656 v -0.469 l 1.086,-1.078 1.074,1.078 v 0.469 l 0.652,0.656 h 2.903 l 0.554,-0.328 4.219,-7.305 v -0.648 l -4.219,-7.301 -0.554,-0.328" transform="matrix(0.13333333,0,0,-0.13333333,0,129.65333)" />
      <path id="path398" d="m 929.688,644.164 h 11.308 l 5.645,9.789 -5.645,9.785 h -3.691 v -2.953 c 0,-1.312 -1.067,-2.383 -2.371,-2.383 -1.321,0 -2.383,1.071 -2.383,2.383 v 2.953 h -2.863 l -5.645,-9.785 z m 11.679,-1.297 h -12.051 l -0.566,0.328 -6.023,10.434 v 0.648 l 6.023,10.442 0.566,0.324 h 3.887 l 0.645,-0.652 v -3.606 l 1.086,-1.078 1.074,1.078 v 3.606 l 0.652,0.652 h 4.707 l 0.567,-0.324 6.027,-10.442 v -0.648 l -6.027,-10.434 -0.567,-0.328" transform="matrix(0.13333333,0,0,-0.13333333,0,129.65333)" />
      <path id="path399" d="m 945.984,650.219 v -3.879 l 1.438,-1.438 1.433,1.438 v 4.34 l 0.657,0.648 0.644,-0.648 c 0,-1.211 0.989,-2.2 2.199,-2.2 1.208,0 2.196,0.989 2.196,2.2 v 2.621 h -6.778 z m 1.438,-6.614 c -1.504,0 -2.734,1.223 -2.734,2.735 v 4.055 l 0.085,0.324 2.051,3.558 0.571,0.328 h 7.808 l 0.649,-0.652 v -3.273 c 0,-1.93 -1.567,-3.496 -3.497,-3.496 l -2.199,0.777 v -1.621 c 0,-1.512 -1.218,-2.735 -2.734,-2.735" transform="matrix(0.13333333,0,0,-0.13333333,0,129.65333)" />
      <path id="path400" d="m 952.988,667.93 v -2.926 l 1.25,-1.242 1.25,1.242 v 6.035 h -5.633 v -3.109 l 0.915,-0.918 0.918,0.918 0.656,0.648 z m 1.25,-5.473 c -1.406,0 -2.55,1.141 -2.55,2.547 v 0.902 l -0.918,-0.191 c -1.219,0 -2.215,0.996 -2.215,2.215 v 3.765 l 0.644,0.649 h 6.934 l 0.652,-0.649 v -6.691 c 0,-1.406 -1.14,-2.547 -2.547,-2.547" transform="matrix(0.13333333,0,0,-0.13333333,0,129.65333)" />
      <path id="path1375" d="m 944.883,583.648 -0.528,0.25 c -1.496,1.778 -4.101,2.211 -6.085,1.008 l -0.957,0.235 0.238,0.953 c 2.566,1.558 5.945,0.996 7.871,-1.305 l -0.09,-0.98 -0.449,-0.161" transform="matrix(0.13333333,0,0,-0.13333333,0,129.65333)" />
      <path id="path1377" d="m 948.43,587.676 -0.617,0.383 0.292,0.933 10.45,5.403 0.937,-0.301 -0.304,-0.938 -10.438,-5.402 -0.32,-0.078" transform="matrix(0.13333333,0,0,-0.13333333,0,129.65333)" />
      <path id="path1379" d="m 957.793,586.93 -0.559,0.277 0.149,0.977 6.406,4.789 0.977,-0.141 -0.137,-0.973 -6.414,-4.789 -0.422,-0.14" transform="matrix(0.13333333,0,0,-0.13333333,0,129.65333)" />
      </g></svg>