<?xml version="1.0" encoding="UTF-8"?>
<svg width="100pt" height="100pt" version="1.1" viewBox="0 0 100 100" xmlns="http://www.w3.org/2000/svg"><g fill="#1C1C1C" stroke="#1C1C1C" stroke-width="2.5" fill-rule="evenodd">
 <g>
  <path d="m40.48 63.98c0.20703 0.23047 0.1875 0.58984-0.042969 0.79688-0.10938 0.097656-0.24219 0.14453-0.375 0.14453-0.15625 0-0.30859-0.0625-0.42188-0.1875-0.79297-0.88281-3.0117-2.9336-4.7617-3.1094-0.058594 0.085938-0.12891 0.16406-0.21484 0.22656v7.6367c0 0.3125-0.25391 0.5625-0.5625 0.5625-0.3125 0-0.5625-0.25391-0.5625-0.5625v-7.6367c-0.082031-0.0625-0.15625-0.14062-0.21484-0.22656-1.7539 0.17188-3.9688 2.2266-4.7617 3.1094-0.10938 0.125-0.26562 0.1875-0.42188 0.1875-0.13281 0-0.26953-0.046875-0.375-0.14453-0.23047-0.20703-0.25-0.5625-0.042969-0.79688 0.32422-0.35938 2.8867-3.1328 5.3633-3.4648 0.007812-0.015625 0.007812-0.019531 0.015624-0.035156-0.8125-1.3125-2.5352-3.5703-5.2422-4.5547-2.25-0.81641-3.8008-0.57031-4.6836-0.23438-0.36328 0.13672-0.57031 0.52734-0.46484 0.90234l0.71094 2.6289c0.046875 0.17578 0.007813 0.36719-0.10938 0.50781-0.035156 0.042969-3.3477 4.0508-4.3906 6.6797-0.10547 0.26562-0.050781 0.56641 0.14062 0.77734 0.91797 1.0078 3.3555 3.0664 7.9531 3.1758 0.23047 0.003907 0.4375 0.15234 0.51562 0.36719 0.023438 0.070312 2.375 6.3828 5.9961 10.535 0.30078 0.34375 0.83984 0.34375 1.1406 0 3.6172-4.1562 5.9688-10.465 5.9922-10.535 0.078125-0.21875 0.28516-0.36328 0.51562-0.36719 4.5625-0.10547 7.0234-2.1719 7.9531-3.1797 0.19531-0.21094 0.25-0.51172 0.14453-0.78125-1.043-2.6289-4.3555-6.6289-4.3906-6.6758-0.11719-0.14062-0.16016-0.33203-0.10937-0.50781l0.71484-2.6289c0.10156-0.375-0.10156-0.76562-0.46484-0.90234-0.88281-0.33594-2.4297-0.58594-4.6875 0.23438-2.7266 0.99219-4.4688 3.3086-5.2578 4.582 2.4961 0.31641 5.0781 3.1133 5.4023 3.4766z"/>
  <path d="m73.152 64.727c0.3125 0.015626 0.55078 0.28125 0.53125 0.59375-0.015625 0.3125-0.27734 0.55078-0.59375 0.53125-1.1836-0.0625-4.207 0.054688-5.5664 1.168 0.019531 0.10156 0.027343 0.20703 0.011718 0.3125l5.3672 5.3672c0.21094 0.21094 0.25391 0.5625 0.0625 0.79297-0.11328 0.13281-0.27344 0.19922-0.42969 0.19922-0.14453 0-0.28906-0.054687-0.39844-0.16406l-5.4023-5.4023c-0.042969 0.007812-0.085937 0.015625-0.12891 0.015625-0.0625 0-0.12109-0.011719-0.18359-0.023437-1.1172 1.3594-1.2344 4.3789-1.168 5.5625 0.015625 0.3125-0.22266 0.57812-0.53125 0.59375h-0.03125c-0.29688 0-0.54688-0.23438-0.5625-0.53125-0.027344-0.46484-0.16797-3.9805 1.1797-6.0117-0.058594-0.14062-0.082032-0.19141-0.14062-0.32812-1.5547-0.32812-4.1836-0.58984-6.6328 0.55078-2.1836 1.0195-3.1016 2.3008-3.4844 3.1602-0.15625 0.35156-0.015625 0.76172 0.31641 0.95312l2.3633 1.3555c0.16016 0.089844 0.26172 0.25391 0.28125 0.4375 0.003906 0.058594 0.49609 5.2344 1.6211 7.8281 0.11328 0.26172 0.36328 0.4375 0.64844 0.44922 1.3633 0.0625 4.5391-0.20312 7.8711-3.3789 0.16797-0.16016 0.41797-0.19922 0.625-0.10547 0.066406 0.03125 6.1914 2.832 11.688 3.207 0.45703 0.03125 0.83594-0.34766 0.80469-0.80469-0.37891-5.4961-3.1797-11.621-3.2109-11.688-0.097656-0.21094-0.054688-0.45703 0.10547-0.625 3.1484-3.3008 3.4297-6.5 3.375-7.8711-0.011718-0.28516-0.1875-0.53906-0.44922-0.65234-2.5977-1.1211-7.7656-1.6094-7.8242-1.6133-0.18359-0.015625-0.34766-0.12109-0.4375-0.28125l-1.3555-2.3633c-0.19141-0.33203-0.60156-0.47266-0.95312-0.31641-0.86328 0.38281-2.1406 1.3008-3.1641 3.4883-1.2266 2.6289-0.82031 5.4961-0.47656 6.957 1.9766-1.543 5.7852-1.3906 6.2734-1.3633z"/>
  <path d="m66.734 68.129-0.16406-0.16406c-0.050781 0.050781-0.097656 0.10156-0.14453 0.16016 0.058594 0.011719 0.12109 0.023438 0.18359 0.023438 0.039063-0.003907 0.082031-0.015626 0.125-0.019532z"/>
  <path d="m65.492 67.477c-0.13672-0.03125-0.28125-0.0625-0.4375-0.097656 0.11719 0.070313 0.23437 0.14062 0.35156 0.21094 0.027344-0.035156 0.058594-0.074219 0.085938-0.11328z"/>
  <path d="m67.523 67.02c-0.054688 0.046875-0.10938 0.09375-0.15625 0.14453l0.16797 0.16797c0.015625-0.10156 0.011719-0.20703-0.011718-0.3125z"/>
  <path d="m33.539 61.855v-0.23828c-0.070312 0-0.14062 0.003906-0.21484 0.011718 0.058593 0.085938 0.12891 0.16406 0.21484 0.22656z"/>
  <path d="m33.121 60.512c-0.007813-0.011719-0.011719-0.019531-0.019532-0.03125 0 0.011719 0.003907 0.023437 0.003907 0.03125 0.007812 0.003906 0.011719 0 0.015625 0z"/>
  <path d="m34.879 61.625c-0.074218-0.007812-0.14453-0.007812-0.21484-0.011719v0.23828c0.085938-0.0625 0.16016-0.13672 0.21484-0.22656z"/>
  <path d="m57.586 33.613c-9.0156-0.92188-15.988 2.1836-18.316 3.4023-1.5742-2.5391-2.5938-4.4023-2.9883-5.1328 1.0352-3.4727 1.5508-7.8047 1.5547-13.035 0-0.49219-0.35547-0.94141-0.84375-0.99219-0.5625-0.054688-1.0352 0.38281-1.0352 0.93359 0 10.543-2.1875 17.355-6.5 20.242-1.4727 0.98828-3.3398 1.375-4.9922 1.0391-0.97656-0.19922-2.3438-0.74609-3.3008-2.2109-1.4375-2.1992-0.93359-5.0742 1.1484-6.5391 1.6523-1.1641 3.9414-0.76953 5.1055 0.88281 0.87109 1.2383 0.57422 2.9531-0.66016 3.8242-0.28906 0.20312-0.625 0.33594-0.97656 0.36328-0.73438 0.054687-1.3984-0.26172-1.8047-0.82812-0.15234-0.21484-0.25391-0.46875-0.26953-0.73047-0.03125-0.51562 0.19531-0.98047 0.59766-1.2656 0.20703-0.14453 0.45703-0.20312 0.70703-0.16016 0.23438 0.039062 0.44141 0.16797 0.58594 0.35547 0.26562 0.34766 0.71094 0.53125 1.1172 0.375 0.59766-0.23047 0.78516-0.9375 0.44141-1.4258-0.58594-0.83203-1.5625-1.2891-2.6367-1.1836-0.36328 0.035156-0.71484 0.15234-1.0312 0.33203-1.7109 0.97656-2.1719 3.1953-1.0664 4.7656 0.71094 1.0078 1.8398 1.6172 3.1055 1.6484 0.88672 0.023437 1.7617-0.28516 2.4688-0.82813 1.1211-0.86328 1.7852-2.1758 1.8047-3.6406 0.011719-0.99219-0.32031-1.9648-0.90625-2.7656-1.7773-2.4297-5.1953-3-7.668-1.2578-2.9141 2.0547-3.6328 6.0547-1.6367 9.1055 1.0391 1.5938 2.5977 2.6406 4.5 3.0273 0.52734 0.10547 1.0625 0.16016 1.6016 0.16016 1.6758 0 3.3672-0.51172 4.8125-1.4805 2.1016-1.4062 3.7422-3.5117 4.9336-6.3398 1.168 2.0898 3.3164 5.7227 6.293 9.957-2.3477 1.5273-8.2852 6.1719-8.6602 14.121-0.003906 0.089844 0.027344 0.18359 0.082032 0.25391 0.39062 0.5 0.71094 0.96875 0.94922 1.3555 0.19922-0.32812 0.45313-0.71094 0.76172-1.1211 0.046875-0.058593 0.070313-0.13672 0.074219-0.21094 0.23047-7.4336 5.8438-11.609 7.8789-12.883 4.8984 6.7305 11.738 14.625 19.996 20.207 0.058594 0.039062 0.12891 0.0625 0.19922 0.0625 1.1094 0.039062 2.082 0.21484 2.7773 0.37891-0.050781-0.21094-0.10156-0.45312-0.15234-0.71094-0.019531-0.10156-0.078125-0.19531-0.16797-0.25-11.32-7.0664-20.27-19.141-25.188-26.809 2.375-1.1992 9.4844-4.2422 18.359-2.9805 0.1875 0.027344 0.375-0.015625 0.53125-0.12109 0.23047-0.16016 0.44531-0.29688 0.64062-0.41797-0.5-0.30469-1.1406-0.73828-1.8008-1.3047-0.125-0.085938-0.27344-0.15234-0.42578-0.16797z"/>
  <path d="m81.129 34.531c-4.1562-3.6211-10.465-5.9688-10.535-5.9922-0.21875-0.078124-0.36328-0.28516-0.36719-0.51562-0.10547-4.5625-2.1719-7.0195-3.1797-7.9531-0.21094-0.19531-0.51172-0.25-0.78125-0.14453-2.6289 1.043-6.6289 4.3555-6.6758 4.3906-0.14062 0.11719-0.33203 0.16016-0.50781 0.10938l-2.6289-0.71484c-0.37891-0.10156-0.76562 0.10156-0.90234 0.46484-0.33594 0.88281-0.58203 2.4297 0.23438 4.6875 0.94141 2.582 3.0586 4.2734 4.3633 5.1172 0.074218 0.046875 0.14844 0.097656 0.21875 0.14062-0.03125-0.019532 0.03125-0.23828 0.039062-0.26953 0.03125-0.125 0.0625-0.25781 0.097656-0.38281 0.078125-0.27734 0.17969-0.54688 0.29688-0.80859 0.24219-0.53516 0.54688-1.043 0.88672-1.5195 0.3125-0.44141 0.65234-0.86328 1.0156-1.2656 0.26562-0.30078 0.54297-0.58984 0.83203-0.86719 0.10156-0.097656 0.19922-0.19141 0.30469-0.28516 0.23047-0.20703 0.58984-0.1875 0.79688 0.042969s0.1875 0.58984-0.042969 0.79688c-0.88281 0.79297-2.9336 3.0078-3.1094 4.7578-0.007813 0.074219-0.011719 0.14453-0.011719 0.21875h7.8711c0.3125 0 0.5625 0.25391 0.5625 0.5625 0 0.3125-0.25391 0.5625-0.5625 0.5625h-7.8672c0 0.070313 0.003907 0.14453 0.011719 0.21875 0.17188 1.75 2.2266 3.9688 3.1094 4.7578 0.23047 0.20703 0.25 0.5625 0.042969 0.79688-0.10938 0.125-0.26562 0.1875-0.42188 0.1875-0.13281 0-0.26953-0.046875-0.375-0.14453-0.36328-0.32422-3.1602-2.9102-3.4688-5.3984-1.3047 0.80469-3.5898 2.5312-4.582 5.2578-0.81641 2.2539-0.57031 3.8008-0.23438 4.6836 0.13672 0.36328 0.52734 0.57031 0.90234 0.46484l2.6289-0.71094c0.046875-0.011719 0.097656-0.019532 0.14844-0.019532 0.12891 0 0.25781 0.046876 0.35938 0.12891 0.042969 0.035156 4.0508 3.3477 6.6797 4.3906 0.26562 0.10547 0.56641 0.050781 0.77734-0.14062 1.0078-0.91797 3.0664-3.3555 3.1758-7.9531 0.003906-0.23047 0.15234-0.4375 0.36719-0.51562 0.070313-0.023438 6.3828-2.375 10.535-5.9961 0.34375-0.30469 0.34375-0.83984-0.003906-1.1406z"/>
 </g>
</g></svg>
