<?xml version="1.0" encoding="UTF-8"?>
<svg width="100pt" height="100pt" version="1.1" viewBox="0 0 100 100" xmlns="http://www.w3.org/2000/svg"><g fill="#1C1C1C" stroke="#1C1C1C" stroke-width="2.5" fill-rule="evenodd">
 <path d="m91.641 9.207c-1.4023-3.0898-5.9844-1.4609-8.0547-0.13281-1.6055 1.0273-2.9766 2.2852-3.6445 3.8281-0.28906-1.0469-1.3828-1.707-2.3672-2.1211-0.070313-0.03125-0.14844-0.042969-0.21875-0.0625-0.0625-0.023438-0.11328-0.054688-0.17969-0.074219-2.7617-0.83984-5.5195 0.058594-7.3125 2.3242-1.6836 2.1328-2.4844 5.6484 0.47656 7.0156 0.23047 0.10547 0.46875 0.16016 0.70312 0.22656-1.5234 0.98047-3.0352 1.9766-4.543 2.9805-0.3125-1.1328-0.80469-2.2227-1.3945-3.1055-2.1914-3.293-5.0156-7.7969-9.1445-3.9688-0.67578 0.625-0.57813 1.6992-1.2227 2.3477-0.69531 0.69922-1.0664 1.4961-1.4766 2.3828-1.0195 2.2344-0.8125 4.9648 0.15625 7.168 0.42188 0.95703 1.2344 2.125 2.2227 2.9922-2.1289 1.9844-4 4.1719-5.7617 6.4727-0.80078-3.0352-3.3789-5.6406-6.1875-6.9688-3.3008-1.5586-8.3672-1.9141-8.7852 2.9062-0.17188 1.9922 0.21875 4.2422 0.97266 6.4141-2.2227-0.63672-4.5234-1.0195-6.6992-0.48047-3.8516 0.95313-3.5391 5.3672-2.9531 8.3125 1.1797 5.9609 7.3281 8.0156 12.773 7.1953-2.293 4.75-4.3516 9.6289-7.1445 14.117-0.0625 0.10156-0.13281 0.19922-0.19922 0.30078-0.054688 0.027344-0.10938 0.058594-0.16016 0.089844-0.34375-1.6484-1.0156-3.2734-1.8711-4.7852-1.0742-1.8906-3.125-3.3867-4.6641-4.8789-1.625-1.5742-3.625-2.2812-5.5938-0.88281-2.4062 1.707-3.0195 5.6914-2.5703 9.0703-0.48828-0.15234-0.99609-0.25391-1.4531-0.29688-4.2969-0.40625-8.3242 3.2266-7.2422 7.625 0.97656 3.9453 8.3008 5.2266 11.863 5.7148-2.9219 2.1797-5.9414 4.2188-8.7695 6.2812-1.5703 1.1445-0.19922 4.875 1.7344 3.4648 3.7852-2.7617 7.8984-5.4492 11.633-8.4922 0.21484 1.2969 0.62891 2.5664 1.1094 3.5664 1.8477 3.8516 6.0625 7.0703 10.406 6.7969 1.9141-0.12109 4.0039-1.3047 4.7109-3.1562 0.80859-2.1094 0.18359-3.9922-0.87891-5.9102-0.46875-0.84766-1.0039-1.6133-1.5742-2.3398 2.1055-0.41797 4.2109-0.83594 6.3125-1.2539 2.0898-0.41406 3.3203-0.95312 3.9102-3.1523 1.5703-5.8594-5.4805-7.1758-9.4688-8.1094-0.96484-0.22656-1.9844-0.34766-3-0.35156 1.6367-2.9531 3.0703-6.0117 4.5391-9.0781 2.168 3.8984 7.0859 5.6289 11.391 4.7383 1.8633-0.38281 3.5195-1.9766 4.9883-3.0859 1.6172-1.2227 2.2227-3.0469 1.2188-4.8633-0.082031-0.14844-0.19141-0.28516-0.29687-0.42578 1.6758-0.3125 3.2539-0.92969 4.5742-2.1914 2.5586-2.4414 0.74609-6.543-1.2031-8.5898-2.2227-2.3359-5.8398-4.8633-9.293-4.5273 1.8281-2.2969 3.7969-4.4336 5.9062-6.3398 0.38672 0.55469 0.89453 1.0469 1.5195 1.5273 2.0508 1.5703 3.2305 3.6758 5.6836 4.793 4.9219 2.2422 9.4688 0.22266 11.016-4.9727 0.44922-1.5078 0.49609-3.3555-0.53125-4.6641-1.2227-1.5586-4.1992-1.957-5.8984-2.8945-0.71484-0.39453-1.4961-0.71094-2.3164-0.94141 1.9375-1.2812 3.9336-2.5117 5.9375-3.6836 0.16016 3.2422 3.5664 5.582 6.6445 5.543 3.2969-0.046875 6.0977-3.9141 6.8047-6.8047 0.078124-0.32812 0.10156-0.61719 0.070312-0.86719-0.003906-0.039063 0.007812-0.078125 0.007812-0.12109-0.066406-1.2188-0.74219-2.0977-1.6953-2.7305 1.2031-0.3125 2.3555-0.85547 3.2227-1.4219 2.4844-1.6055 4.6562-4.4102 3.2617-7.4688zm-52.484 23.508c1.543 0.30078 2.8984 0.96875 4.0352 1.9141-0.3125 0.070313-0.61328 0.19922-0.88672 0.42578-0.91406 0.75-0.71875 2.0859 0.64062 1.8984 0.20313 0.011719 1.5273-0.03125 2.1797-0.10156 0.078125 0.12891 0.17188 0.25391 0.24609 0.38672 0.72266 1.2656 0.87891 2.5039 0.64453 3.918-0.10938 0.67188-1.3242 3.7578-2.3516 3.5586-1.3945-1.2891-2.3945-2.8164-3.1172-4.5781-0.27734-0.68359-2.3789-7.6172-1.3906-7.4219zm-8.9414 14.742c-0.46484-1.0234-0.54688-2.2773-0.67188-3.3828-0.21094-1.8594 1.8906-1.2852 3.0312-1.0703 1.8945 0.35547 3.6953 0.98047 5.5195 1.5977 0.066406 0.019532 0.12891 0.027344 0.19531 0.039063 0.59766 0.86328 1.2578 1.6289 1.9609 2.293 0.09375 0.23438 0.30469 0.44922 0.68359 0.60547 0.62109 0.25391 1.2266 0.36328 1.8164 0.375-0.63281 1.0273-1.2344 2.0742-1.8047 3.1367-0.007812 0.007813-0.011718 0.011719-0.019531 0.019531-3.7031 1.207-9.0117 0.13281-10.711-3.6133zm-9.4492 15.555c1.1055-2.5195 5.3125 2.5742 6.0312 3.2734 2.0312 1.9727 2.5039 5.6055 0.78516 7.8594-1.1719 0.73047-2.3203 0.25781-3.3633-0.57812-0.10547-0.089844-0.21094-0.17969-0.31641-0.26562-0.27734-0.24609-0.54688-0.50781-0.80469-0.77344 0.09375 0 0.19141 0.003906 0.28516-0.011719 0.72266-0.10938 1.3828-0.31641 1.7578-0.99609 0.5-0.90234-0.089844-2.0977-1.2031-1.6016-0.23828 0.050781-1.9492 0.65625-1.9141 0.83203-0.13281 0.11719-0.21875 0.23047-0.28906 0.33984-0.015625-0.015625-0.035156-0.035156-0.050781-0.050782-0.40625-0.39453-0.71094-0.81641-0.97266-1.2461 0.16016 0.007812 0.31641 0.003906 0.46875-0.019531 0.71875-0.10547 1.3828-0.32031 1.7539-0.99609 0.49609-0.90234-0.085938-2.1016-1.2031-1.6016-0.19141 0.039063-1.3203 0.4375-1.7461 0.68359-0.27734-1.5469 0.066406-3.2109 0.78125-4.8477zm2.1367 15.051c-1.2969 0.042969-2.5625-0.20312-3.8203-0.46484-2.168-0.44531-5.8398-1.0117-7.0117-3.1836-0.82031-1.5195 0.88281-3.125 2.0469-3.6992 1.3203-0.65234 2.4648 1.8047 3.2266 2.3945 1.8047 1.3984 3.7422 2.2539 5.3828 3.9297 0.44531 0.56641 0.76563 0.84766 0.9375 0.98438-0.03125 0.027343-0.066406 0.054687-0.097656 0.078124-0.14844-0.027343-0.35547-0.050781-0.66406-0.039062zm13.078 10.984c-2.082 1.5938-4.7461-1.4688-5.8906-2.8359-0.90234-1.0781-3.3047-6.8633-0.66016-7.3125 0.48047 0.089843 0.92969 0.19922 1.3438 0.34375 0.87891 1.1523 2.0234 2.0117 3.4219 2.2969 0.13281 0.13281 0.26563 0.26172 0.40234 0.40625 1.6758 1.75 3.9102 5.168 1.3828 7.1016zm2.543-16.418c0.98047 0.23047 1.9688 0.45703 2.9492 0.6875 0.625 0.14453 1.25 0.28516 1.875 0.42969 1.2344 0.10156 1.832 0.73047 1.7852 1.8906-2.1055 0.41797-4.2109 0.83984-6.3125 1.2578-2.8945 0.57812-5.9883 1.1367-6.8594-2.2383 0.50391-0.66016 0.98437-1.332 1.4453-2.0117 1.6367-0.55469 4.0312-0.27344 5.1172-0.015625zm15.148-13.227c-0.59375 0.4375-1.2734 1.043-1.9961 1.3516 0.070313-0.25781 0.11328-0.51953 0.09375-0.80469-0.089843-1.2891-1.3125-1.8906-1.9375-0.50781-0.29297 0.4375-0.53906 0.90625-0.78906 1.3711-0.55859-0.14062-1.1055-0.35156-1.6289-0.59766 0.56641-0.35547 1.0195-0.82422 1.1719-1.5156 0.25391-1.1445-0.70313-2.1016-1.6719-1.1016-0.13281 0.09375-0.97656 0.79297-1.4883 1.2695-0.95312-1.1914-2.1445-3.6367-2.0273-5.2109 0.066406-0.12891 0.14062-0.25781 0.20703-0.38281 0.30469-0.26953 0.50391-0.58984 0.60547-0.92188 0.019531-0.007812 0.03125-0.015624 0.050781-0.023437 1.8047 0.60547 3.3203 2.0742 5.1367 2.7812 1.582 0.62109 7.2188 2.1172 4.2734 4.293zm1.4297-14.375c1.4062 0.5625 7.9766 4.5039 4 6.1016-2.2031 0.88672-4.707 0.64453-7.0273 0.64453-0.26172 0-0.48828 0.066406-0.69141 0.17969-0.85156-0.30859-1.6602-0.64062-2.4258-1.2578-0.88672-0.71484-1.8164-1.1797-2.8867-1.4844 2.2344-3.1562 4.7227-5.9102 9.0312-4.1836zm17.52-30.523c0.75-0.80078 1.7031-0.69141 2.6758-0.41797 0.40234 0.17187 0.77734 0.34375 1.1094 0.64453-0.011719-0.011719-0.55469 1.0547-0.67578 1.2188-0.58594 0.78125-2.0078 0.88281-2.8906 0.78125-1.2891-0.14062-0.8125-1.5898-0.21875-2.2266zm-15.762 7.3086c0.28125-1.1055 1.0508-1.5781 1.5664-2.4844 0.21484-0.33203 0.39453-0.67969 0.55078-1.0391 0.17188-0.89062 0.21484-0.85156 0.13281 0.11328 0.75781 0.69141 1.2734 1.8555 1.8281 2.707 0.54688 0.83594 1.7969 2.9453 2.0078 4.4453-0.6875 0.45312-1.3711 0.90234-2.0586 1.3477-0.082031 0.054687-0.15234 0.11328-0.23047 0.16406-0.73438 0.32031-1.418 0.75781-2.0156 1.3164-0.78125-0.77734-1.5547-2.2461-1.6719-2.5156-0.55469-1.2539-0.4375-2.7734-0.10938-4.0547zm14.133 10.941c0.73437 0.35156 2.4922 0.3125 2.1602 1.4219-0.72656 2.4492-2.582 3.0859-4.5391 2.8359 0.097657-0.12109 0.17969-0.24219 0.23438-0.35547 0.33203-0.65625 0.32422-1.3047-0.011718-1.957-0.44922-0.87891-1.6875-0.74609-1.8984 0.24609-0.18359 0.41016-0.34766 0.97656-0.41797 1.4961-0.73438-0.29688-1.4297-0.67188-2.0273-1.0859-0.41016-0.28125-2.8984-2.4258-3.8945-3.5781 0.63281-0.28906 1.1992-0.6875 1.8047-1.1016 1.707-0.48047 3.7227-0.18359 5.2891 0.39844 1.1445 0.42188 2.2031 1.1523 3.3008 1.6797zm10.129-8.1484c-1.3086 0.73828-3.6172-0.89844-4.2227-1.9805-1.6133-2.875 5.5078-2.5781 6.543-0.68359-0.43359 1.1484-1.2227 2.043-2.3203 2.6641zm5.4062-10.508c-0.46094 0.35938-2.3633 1.3711-2.8828 1.125-0.30469-1.2188-0.035156-2.0156 0.97656-2.9062 0.26172-0.23047 2.9531-2.2344 3.2422-1.6016 0.625 1.375-0.3125 2.5781-1.3359 3.3828z"/>
</g></svg>
