<?xml version="1.0" encoding="UTF-8"?>
<svg width="100pt" height="100pt" version="1.1" viewBox="0 0 100 100" xmlns="http://www.w3.org/2000/svg"><g fill="#1C1C1C" stroke="#1C1C1C" stroke-width="2.5" fill-rule="evenodd">
 <path d="m67.047 38.969-4.1094-10.27c-0.72266-1.8086-1.0898-3.7148-1.0898-5.6602v-3.9805c1.0078-0.58594 1.6914-1.668 1.6914-2.9141v-3.3867c0-1.8672-1.5195-3.3867-3.3867-3.3867h-20.312c-1.8672 0-3.3867 1.5195-3.3867 3.3867v3.3867c0 1.2461 0.6875 2.3281 1.6914 2.9141v3.9805c0 1.9453-0.36719 3.8516-1.0898 5.6602l-4.1055 10.27c-1.043 2.6094-1.5742 5.3594-1.5742 8.1719v35.02c0 4.668 3.7969 8.4648 8.4648 8.4648h20.312c4.668 0 8.4648-3.7969 8.4648-8.4648v-35.02c0-2.8125-0.52734-5.5625-1.5742-8.1719zm-27.203-26.207h20.312l0.003906 3.3867h-20.316zm25.391 69.402c0 2.8008-2.2773 5.0781-5.0781 5.0781h-20.312c-2.8008 0-5.0781-2.2773-5.0781-5.0781v-35.02c0-2.3789 0.44922-4.7031 1.332-6.9141l4.1055-10.27c0.88281-2.207 1.332-4.5352 1.332-6.9141v-3.5117h16.926v3.5117c0 2.375 0.44922 4.7031 1.332 6.9141l4.1094 10.27c0.88281 2.207 1.332 4.5312 1.332 6.9141zm-27.082-28.777h3.3867v27.082h-3.3867zm0-6.7695h3.3867v3.3867h-3.3867z"/>
</g></svg>
