<?xml version="1.0" encoding="UTF-8"?>
<svg width="100pt" height="100pt" version="1.1" viewBox="0 0 100 100" xmlns="http://www.w3.org/2000/svg"><g fill="#1C1C1C" stroke="#1C1C1C" stroke-width="2.5" fill-rule="evenodd">
 <g>
  <path d="m42.172 73.262c-1.3906 1.625-3.4336 2.5781-5.6016 2.5781-2.125 0-4.1445-0.92578-5.5312-2.5039-1.3945 1.5742-3.4141 2.4961-5.5352 2.4961-0.38672 0-0.69531 0.32422-0.63672 0.69922 0.19922 1.2656 0.78125 2.4336 1.6914 3.3672 1.1875 1.2266 2.7812 1.9023 4.4844 1.9023 1.7617 0 3.4336-0.74609 4.6094-2.0273 0.17969-0.19531 0.23047-0.48438 0.10156-0.71484-0.26172-0.47656-0.46875-0.97656-0.62109-1.5039-0.09375-0.33203 0.12891-0.67578 0.48438-0.71484 0.28125-0.03125 0.53125 0.17188 0.60937 0.44531 0.19141 0.65234 0.48438 1.2656 0.875 1.8242 1.1602 1.6875 3.082 2.6914 5.1367 2.6914 2.0078 0 3.9062-0.97266 5.0742-2.6016 0.57422-0.79688 0.94531-1.7031 1.0977-2.6641 0.058594-0.37891-0.25-0.70312-0.63281-0.70312-2.168 0.003907-4.2109-0.94922-5.6055-2.5703z"/>
  <path d="m55.16 44.613c0 1.9336-0.74609 3.7617-2.0977 5.1406-0.34375 0.35547-0.72266 0.66797-1.125 0.94531 2.0078 1.3633 3.2188 3.6211 3.2188 6.1016 0 0.30078-0.023438 0.59375-0.058594 0.88672-0.027344 0.20312 0.039063 0.40625 0.19141 0.54297 3.8633 3.5508 9.6523 6.8672 15.668 8.9648 1.0312 0.35938 2.3828 0.89063 3.6914 1.5781 0.43359 0.23047 0.96094-0.011719 1.082-0.48828 0.35547-1.4492 0.85938-2.8008 1.2734-3.8008 3.6641-8.8203 7.2227-25.27-2.6875-30.961-1.5156-0.87109-6.7539-3.457-10.516-0.14844-1.0938 0.96875-1.7852 1.9336-2.043 2.8359 0.019532 0.074218 0.035157 0.13672 0.054688 0.21094 0.13281 0.16016 0.21094 0.36719 0.21094 0.59375 0 0.16406-0.046876 0.32031-0.12109 0.45312l0.37891 0.84766c6.4258-1.5156 11.574 4.1133 11.797 4.3594 0.20703 0.23047 0.1875 0.58594-0.042969 0.79688-0.10938 0.097656-0.24219 0.14453-0.375 0.14453-0.15625 0-0.30859-0.0625-0.41797-0.1875-0.050782-0.054688-4.8008-5.2383-10.488-4.0625l5.1016 11.398c3.043-0.5 6.1875 3.0117 6.3281 3.168 0.20703 0.23438 0.18359 0.58984-0.050782 0.79688-0.10547 0.09375-0.24219 0.14062-0.375 0.14062-0.15625 0-0.3125-0.0625-0.42187-0.19141-0.027344-0.03125-2.6484-2.9531-5-2.8359l3.8047 8.4961c0.12109 0.26953 0.042969 0.60156-0.21094 0.75391-0.089844 0.054688-0.19141 0.078125-0.28516 0.078125-0.21484 0-0.42188-0.125-0.51562-0.33203l-3.8203-8.5312c-1.6523 1.6758-1.2188 5.5742-1.2148 5.6172 0.035156 0.30859-0.18359 0.58984-0.49219 0.625-0.023437 0.003907-0.042968 0.003907-0.066406 0.003907-0.28125 0-0.52344-0.21094-0.55859-0.49609-0.023437-0.21094-0.54687-4.8945 1.8516-6.832l-5.1016-11.398c-4.6641 3.457-3.9648 10.457-3.957 10.527 0.035157 0.30859-0.19141 0.58594-0.5 0.62109-0.019531 0.003907-0.042969 0.003907-0.0625 0.003907-0.28516 0-0.52734-0.21484-0.55859-0.5-0.035157-0.32812-0.80469-7.918 4.6055-11.703l-0.38281-0.85156c-0.28125-0.066406-0.51562-0.25-0.63672-0.50391-0.007813-0.019531-0.019531-0.039063-0.027344-0.058594-0.050781-0.125-0.10547-0.24609-0.15625-0.37109-1.0391-0.51172-2.4297-0.49609-3.5039-0.36719-1.6758 0.20703-3.1016 1.1094-3.9062 2.4336 1.6055 1.4023 2.5195 3.3984 2.5195 5.5547z"/>
  <path d="m19.246 68.449c0 1.6406 0.62891 3.1836 1.7695 4.3555 1.1914 1.2266 2.7852 1.9023 4.4883 1.9023 1.875 0 3.6602-0.85156 4.8438-2.293-0.75391-1.1836-1.1562-2.543-1.1562-3.9648 0-0.3125 0.25391-0.5625 0.5625-0.5625 0.3125 0 0.5625 0.25391 0.5625 0.5625 0 1.3242 0.40625 2.5898 1.1797 3.6602 1.168 1.6328 3.0625 2.6055 5.0742 2.6055 2.0508 0 3.9727-1.0039 5.1367-2.6875 0.73828-1.0547 1.125-2.2891 1.125-3.5742 0-0.3125 0.25391-0.5625 0.5625-0.5625 0.3125 0 0.5625 0.25391 0.5625 0.5625 0 1.3789-0.38281 2.707-1.1055 3.8711 1.1797 1.5 2.9922 2.3828 4.9141 2.3828 1.707 0 3.3008-0.67578 4.4844-1.8984 1.1445-1.168 1.7734-2.7148 1.7734-4.3555 0-1.9609-0.89453-3.7617-2.4219-4.9453-0.18359-0.14453-0.4375-0.15234-0.64844-0.050781-0.98828 0.47656-2.0742 0.73047-3.1875 0.73047-1.3594 0-2.6914-0.37109-3.8477-1.0781-0.65625-0.40234-1.2539-0.91406-1.7539-1.4922-1.3867 1.625-3.4297 2.5781-5.6016 2.5781-2.125 0-4.1445-0.92578-5.5312-2.5039-1.3945 1.5742-3.4141 2.5-5.5352 2.5-1.125 0-2.207-0.25-3.1914-0.72266-0.21094-0.10156-0.46484-0.09375-0.64844 0.050781-1.5156 1.1758-2.4102 2.9727-2.4102 4.9297z"/>
  <path d="m25.504 63.055c1.875 0 3.6602-0.85156 4.8438-2.2969-0.75391-1.1836-1.1562-2.543-1.1562-3.9609 0-0.3125 0.25391-0.5625 0.5625-0.5625 0.3125 0 0.5625 0.25391 0.5625 0.5625 0 1.3203 0.40625 2.5859 1.1797 3.6562 1.168 1.6328 3.0625 2.6055 5.0742 2.6055 2.0547 0 3.9727-1.0039 5.1367-2.6875 0.73828-1.0547 1.125-2.2891 1.125-3.5703 0-0.3125 0.25391-0.5625 0.5625-0.5625 0.3125 0 0.5625 0.25391 0.5625 0.5625 0 1.375-0.38281 2.6992-1.1016 3.8633 0.45703 0.58203 1.0156 1.0898 1.6523 1.4805 0.97656 0.59766 2.1055 0.91406 3.2578 0.91406 1.1562 0 2.2812-0.31641 3.2539-0.91797 0.46094-0.28125 0.875-0.60938 1.2305-0.98438 0.87891-0.91016 1.3711-2.0742 1.7031-3.2812 0.14844-0.53516 0.097656-1.1172 0.046875-1.6719-0.054688-0.56641-0.18359-1.1289-0.38672-1.6602-0.52344-1.3594-1.5273-2.5039-2.7969-3.2109-0.94531 0.42969-1.9922 0.66016-3.043 0.66016-2.1641 0-4.207-0.95313-5.6016-2.5742-1.3867 1.625-3.4297 2.5781-5.5977 2.5781-2.1289 0-4.1445-0.92578-5.5352-2.5039-1.3906 1.5742-3.4102 2.5-5.5352 2.5-0.94141 0-1.8789-0.1875-2.75-0.53906-0.18359-0.074219-0.39062-0.070313-0.55859 0.035156-2.1914 1.3633-3.3594 3.9414-2.8086 6.625 0.16797 0.82422 0.51562 1.6094 1.0078 2.2891 1.2227 1.7031 3.0898 2.6523 5.1094 2.6523z"/>
  <path d="m25.5 50.867c1.8789 0 3.6641-0.85156 4.8438-2.293-0.75391-1.1836-1.1562-2.543-1.1562-3.9609 0-0.3125 0.25391-0.5625 0.5625-0.5625 0.3125 0 0.5625 0.25391 0.5625 0.5625 0 1.3203 0.40625 2.5859 1.1797 3.6562 1.168 1.6328 3.0664 2.6055 5.0781 2.6055 2.0508 0 3.9688-1.0039 5.1328-2.6875 0.73828-1.0547 1.125-2.2891 1.125-3.5703 0-0.3125 0.25391-0.5625 0.5625-0.5625 0.3125 0 0.5625 0.25391 0.5625 0.5625 0 1.3789-0.38281 2.707-1.1055 3.8672 1.1797 1.5 2.9922 2.3867 4.918 2.3867 0.97656 0 1.9492-0.23047 2.8086-0.66797 0.62109-0.3125 1.1836-0.72656 1.6719-1.2305 1.1484-1.1719 1.7773-2.7188 1.7773-4.3555 0-1.9648-0.89453-3.7773-2.4609-4.9727-0.82812-0.63281-1.8047-1.0547-2.8281-1.2109-0.30859-0.050782-0.63281-0.074219-0.96875-0.074219-2.0469 0-3.9688 1.0039-5.1367 2.6836-0.007812 0.011719-0.015625 0.019531-0.023437 0.027343-0.011719 0.015626-0.027344 0.03125-0.039063 0.046876-0.015625 0.015624-0.027344 0.023437-0.042968 0.039062-0.011719 0.007812-0.019532 0.019531-0.03125 0.027344-0.050782 0.03125-0.09375 0.054687-0.14063 0.070312-0.011718 0.003906-0.023437 0.007813-0.035156 0.011719-0.042968 0.011719-0.085937 0.019531-0.12891 0.019531-0.058594 0-0.097656-0.003906-0.14062-0.011718-0.011719-0.003907-0.019531-0.007813-0.03125-0.011719-0.027344-0.007813-0.058594-0.019531-0.085937-0.03125-0.015626-0.007813-0.027344-0.015625-0.042969-0.023438-0.011719-0.007812-0.027344-0.011719-0.039063-0.023437-0.007812-0.007813-0.015625-0.015625-0.027344-0.023438-0.011718-0.011718-0.023437-0.019531-0.035156-0.03125-0.023437-0.019531-0.042968-0.042968-0.0625-0.066406-0.003906-0.007812-0.011718-0.011719-0.015625-0.019531-1.168-1.6797-3.0898-2.6836-5.1328-2.6836-2.0117 0-3.9102 0.97266-5.0742 2.6016-0.007812 0.007812-0.015625 0.015624-0.023438 0.023437-0.011718 0.015625-0.023437 0.03125-0.039062 0.042969-0.015625 0.015625-0.03125 0.027344-0.046875 0.039062-0.007813 0.007813-0.015625 0.015625-0.023437 0.019532-0.003907 0.003906-0.011719 0.007812-0.015626 0.007812-0.015624 0.011719-0.035156 0.019531-0.050781 0.03125-0.015625 0.007812-0.03125 0.015625-0.046875 0.023438-0.015625 0.007812-0.03125 0.011718-0.046875 0.015624-0.019531 0.007813-0.039062 0.011719-0.058593 0.015626-0.015626 0.003906-0.03125 0.003906-0.046876 0.007812-0.019531 0.003906-0.039062 0.003906-0.058593 0.003906-0.015625 0-0.035157 0-0.050781-0.003906-0.019532 0-0.039063-0.003906-0.054688-0.007812-0.015625-0.003907-0.035156-0.007813-0.050781-0.011719-0.019531-0.003907-0.035157-0.011719-0.054688-0.019531-0.015625-0.007813-0.03125-0.015626-0.046875-0.023438-0.019531-0.007812-0.035156-0.019531-0.054687-0.03125-0.003907-0.003906-0.011719-0.003906-0.015625-0.007812-0.007813-0.007813-0.015625-0.015626-0.023438-0.023438-0.015625-0.011719-0.03125-0.023438-0.042968-0.039062-0.015626-0.015626-0.027344-0.03125-0.039063-0.046876-0.007813-0.007812-0.015625-0.015624-0.019531-0.023437-1.1719-1.6289-3.0703-2.6016-5.0781-2.6016-0.32422 0-0.64844 0.023438-0.96094 0.074219-3.0195 0.46484-5.2969 3.125-5.2969 6.1875 0 1.6367 0.62891 3.1836 1.7695 4.3555 0.49219 0.50391 1.0547 0.91797 1.6797 1.2305 0.85547 0.4375 1.8281 0.66797 2.7969 0.66797z"/>
  <path d="m25.5 37.227c2.125 0 4.1445 0.92578 5.5352 2.5039 1.3867-1.5781 3.4062-2.5039 5.5352-2.5039 2.1641 0 4.2031 0.95313 5.5977 2.5742 1.3945-1.6211 3.4375-2.5742 5.6016-2.5742 0.21094 0 0.41406 0.007813 0.61328 0.027344 0.070313-0.38281 0.10938-0.76953 0.10938-1.1562 0-1.3203-0.40625-2.5859-1.1797-3.6562-1.1719-1.6328-3.0703-2.6055-5.0781-2.6055-2.0469 0-3.9648 1.0039-5.1328 2.6836-0.58594 0.84375-0.96094 1.8203-1.082 2.8359-0.035156 0.30859-0.32031 0.52734-0.625 0.49219-0.30859-0.035156-0.53125-0.31641-0.49219-0.625 0.125-1.0625 0.48828-2.0898 1.0508-3.0039-1.1797-1.4961-2.9922-2.3828-4.9141-2.3828-3.4531 0-6.2578 2.8086-6.2578 6.2578 0 0.19141 0.007812 0.38281 0.027344 0.57422 0.03125 0.32422 0.30859 0.5625 0.63281 0.55859h0.058594z"/>
  <path d="m35.602 18.816v11.176c0 0.18359 0.085938 0.35547 0.22656 0.47656 0.28906 0.24609 0.5625 0.51953 0.8125 0.8125 0.25-0.28906 0.51953-0.55859 0.80469-0.80469 0.14063-0.12109 0.22656-0.29297 0.22656-0.47656l0.003906-11.184c0-0.34375-0.27734-0.62109-0.62109-0.62109h-0.83203c-0.34375 0-0.62109 0.27734-0.62109 0.62109z"/>
  <path d="m61.922 36.602c-0.054687-0.13281-0.11328-0.26172-0.16797-0.39453-0.070312 0.23828-0.10547 0.47266-0.10938 0.69922l0.25 0.5625c0.074219-0.13672 0.12109-0.28906 0.12109-0.45312 0.003906-0.14844-0.03125-0.28906-0.09375-0.41406z"/>
  <path d="m60.23 37.422c0.12109 0.25391 0.35547 0.4375 0.63672 0.50391l-0.25391-0.56641c-0.17188-0.14453-0.35938-0.26953-0.56641-0.36719 0.050781 0.125 0.10547 0.24609 0.15625 0.37109 0.011719 0.019531 0.019531 0.039063 0.027344 0.058594z"/>
  <path d="m38.887 18.961v0.64453c0 0.3125 0.23438 0.57031 0.54297 0.61328 9.1484 1.2031 15.68 6.1641 19.883 15.109 0.078125 0.16797 0.22656 0.28516 0.40625 0.33594 0.32812 0.09375 0.63672 0.21094 0.91406 0.35547 0.078126-0.31641 0.19922-0.63281 0.35938-0.94922 0.085937-0.17578 0.097656-0.38281 0.015624-0.55859-4.4766-9.4727-11.672-14.902-21.422-16.172-0.37109-0.046875-0.69922 0.24609-0.69922 0.62109z"/>
 </g>
</g></svg>
