<?xml version="1.0" encoding="UTF-8"?>
<svg width="100pt" height="100pt" version="1.1" viewBox="0 0 100 100" xmlns="http://www.w3.org/2000/svg"><g fill="#1C1C1C" stroke="#1C1C1C" stroke-width="2.5" fill-rule="evenodd">
 <path d="m69.676 87.5h-39.355c-3.043 0-5.5156-2.4766-5.5156-5.5156v-10.598h13.207c0.058593 0.0625 0.12109 0.125 0.18359 0.18359 1.5352 1.5352 3.3203 2.7383 5.3086 3.5781 2.0586 0.875 4.2422 1.3125 6.5 1.3125 2.2578 0 4.4375-0.44141 6.5-1.3125 1.9883-0.83984 3.7734-2.0469 5.3086-3.5781 0.0625-0.0625 0.12109-0.125 0.18359-0.1875h9.1055v10.598c0 0.79688-0.62109 1.4141-1.4141 1.4141h-39.355c-0.42969 0-0.78125 0.35156-0.78125 0.78125 0 0.42969 0.35156 0.78125 0.78125 0.78125h39.355c0.80078 0 1.5469-0.30859 2.1094-0.86719 0.5625-0.5625 0.87109-1.3086 0.87109-2.1094v-10.598h2.5391v10.594c0 3.043-2.4766 5.5195-5.5156 5.5195zm-19.676-14.113c-7.5078 0-13.621-6.1133-13.621-13.625 0-3.6328 1.4219-7.0391 3.9922-9.6055 2.5742-2.5586 5.9961-3.9688 9.6289-3.9688s7.0547 1.4102 9.6289 3.9688c2.5781 2.5625 3.9922 5.9766 3.9922 9.6055 0 7.5078-6.1133 13.625-13.625 13.625zm0-25.637c-6.6484 0-12.059 5.3906-12.059 12.012 0 6.6523 5.4102 12.062 12.059 12.062 6.6523 0 12.062-5.4102 12.062-12.062 0-6.6211-5.4102-12.012-12.062-12.012zm-13.332 22.07h-11.863v-20.07h11.84c-2.168 2.8672-3.3438 6.3438-3.3438 10.008 0 2.25 0.44531 4.4375 1.3125 6.5 0.53906 1.2734 1.2266 2.4648 2.0547 3.5586zm1.3164-21.629h-13.184v-10.645c0-1.4609 0.57812-2.8438 1.625-3.8906 1.0508-1.0508 2.4336-1.625 3.8906-1.625h39.355c1.4609 0 2.8438 0.57812 3.8906 1.625 1.0508 1.0508 1.625 2.4336 1.625 3.8906v10.645h-13.184c-0.066406-0.070312-0.13672-0.14062-0.20703-0.21094-3.1562-3.1406-7.3438-4.8672-11.809-4.8672-4.4609 0-8.6523 1.7305-11.805 4.8672-0.070313 0.070312-0.13672 0.14062-0.20703 0.21094zm25.367 1.5625h11.84v20.07h-11.863c0.82812-1.0938 1.5156-2.2852 2.0547-3.5586 0.875-2.0586 1.3125-4.2422 1.3125-6.5 0-3.6602-1.1758-7.1406-3.3438-10.012zm-13.355-5.0781c-8.3438 0-15.137 6.7656-15.137 15.09 0 8.3438 6.793 15.137 15.137 15.137s15.137-6.793 15.137-15.137c0-8.3203-6.793-15.09-15.137-15.09z" fill-rule="evenodd"/>
 <path d="m64.355 35.156c-1.293 0-2.3438-1.0508-2.3438-2.3438v-6.4922c0-1.293 1.0508-2.3438 2.3438-2.3438s2.3438 1.0508 2.3438 2.3438v6.4961c0 1.293-1.0508 2.3438-2.3438 2.3438zm-28.711 0c-1.293 0-2.3438-1.0508-2.3438-2.3438v-6.4922c0-1.293 1.0508-2.3438 2.3438-2.3438s2.3438 1.0508 2.3438 2.3438v6.4961c0 1.293-1.0508 2.3438-2.3438 2.3438z" fill-rule="evenodd"/>
 <path d="m71.043 27.102h-42.09c-1.8828 0-3.418-1.5156-3.418-3.3711 0-1.0391 0.14453-2.0586 0.41797-3.0352 0.039063 0.007813 0.078125 0.007813 0.11719 0.007813h7.082c0.42969 0 0.78125-0.35156 0.78125-0.78125s-0.35156-0.78125-0.78125-0.78125h-6.6328c0.55469-1.2305 1.3398-2.3633 2.3242-3.3477 2.1289-2.125 4.9414-3.293 7.9219-3.293h26.465c2.9805 0 5.793 1.168 7.918 3.2891 0.98828 0.98438 1.7695 2.1211 2.3242 3.3516h-6.0469c-0.42969 0-0.78125 0.35156-0.78125 0.78125s0.35156 0.78125 0.78125 0.78125h6.6172c0.27344 0.97266 0.41406 1.9922 0.41406 3.0273 0 1.8555-1.5352 3.3711-3.418 3.3711z" fill-rule="evenodd"/>
</g></svg>
