<?xml version="1.0" encoding="UTF-8"?>
<svg width="100pt" height="100pt" version="1.1" viewBox="0 0 100 100" xmlns="http://www.w3.org/2000/svg"><g fill="#1C1C1C" stroke="#1C1C1C" stroke-width="2.5" fill-rule="evenodd">
 <path d="m96.328 10l-6.3281-6.3281-9.2969 6.9141c-13.539-10.543-31.535-13.422-47.688-7.625-16.152 5.793-28.211 19.457-31.961 36.203-3.75 16.746 1.3359 34.242 13.477 46.371s29.645 17.199 46.387 13.434c16.742-3.7617 30.391-15.836 36.172-31.992s2.8867-34.148-7.668-47.68zm-6.625-2.1875l2.4844 2.4844-4.8516 6.5234c-1.3125-1.4766-2.7109-2.875-4.1875-4.1875zm-10.438 28.391l-15.469-15.469 3.3125-3.3125c0.29297-0.29297 0.69141-0.45703 1.1055-0.45703 0.41406 0 0.8125 0.16406 1.1055 0.45703l13.281 13.281c0.29297 0.29297 0.45703 0.69141 0.45703 1.1055 0 0.41406-0.16406 0.8125-0.45703 1.1055zm-1.1406-14.328l-3.125-3.125 3.0234-2.25c1.9805 1.6602 3.8086 3.4883 5.4688 5.4688l-2.1953 3.0312zm-2.6797-7.375l-2.6953 2-1.2578-1.2578c-1.832-1.8281-4.793-1.8281-6.625 0l-4.2188 4.2188-25.414 11.352-13.859-13.859c7.418-6.4531 16.797-10.211 26.617-10.664 9.8203-0.44922 19.504 2.4297 27.484 8.1719zm-69.195 35.5c-0.007812-10.52 3.7969-20.688 10.703-28.625l12.25 12.219c-7.7656 4.7812-13.191 12.578-14.977 21.523l-1.8438 9.2188 23.281 23.281 9.2188-1.8438c8.9453-1.7852 16.742-7.2109 21.523-14.977l12.242 12.242c-8.4961 7.3594-19.496 11.168-30.723 10.637-11.227-0.53516-21.816-5.3672-29.578-13.5-7.7578-8.1289-12.09-18.938-12.098-30.176zm87.5 0c0.007812 10.52-3.7969 20.688-10.703 28.625l-13.867-13.867 11.391-25.438 4.2188-4.2188c0.87891-0.87891 1.375-2.0742 1.375-3.3164 0-1.2422-0.49609-2.4375-1.375-3.3164l-1.2578-1.2578 2-2.6953c5.3516 7.418 8.2266 16.336 8.2188 25.484z"/>
</g></svg>
