<?xml version="1.0" encoding="UTF-8"?>
<svg width="100pt" height="100pt" version="1.1" viewBox="0 0 100 100" xmlns="http://www.w3.org/2000/svg"><g fill="#1C1C1C" stroke="#1C1C1C" stroke-width="2.5" fill-rule="evenodd">
 <g>
  <path d="m67.816 56.969c-0.22266-0.054688-0.39062-0.23047-0.44141-0.44922-0.050781-0.22266 0.027344-0.45312 0.20703-0.59766 2.125-1.7422 2.9883-4.6055 3.3242-6.2617 0.054688-0.26562-0.16016-0.50781-0.42969-0.48047l-4.7578 0.44922c-0.26562 0.027344-0.51562-0.12891-0.61328-0.375-0.097657-0.24609-0.023438-0.53125 0.1875-0.69531 1.6367-1.2812 2.0508-4.2031 2.1484-5.8867 0.015625-0.26562-0.22656-0.47266-0.48438-0.41797l-4.75 1.0391c-0.23828 0.050781-0.48047-0.042969-0.62109-0.24219-0.14063-0.19922-0.14453-0.46094-0.015626-0.66406 1.8789-2.9883 1.1016-6.4492 0.59375-7.9961-0.066406-0.20312-0.28125-0.3125-0.48437-0.25781l-3.7305 1.0117c-0.23828 0.066407-0.49609-0.023437-0.64062-0.22266-0.14844-0.19922-0.15625-0.46875-0.023438-0.67969 1.2695-1.9883 0.72656-4.6016 0.25-6.0664-0.082031-0.25-0.375-0.35547-0.59766-0.21484l-1.5781 1c-0.20703 0.13281-0.47266 0.125-0.67188-0.019532-0.19922-0.14453-0.29297-0.39062-0.23438-0.62891 0.48047-1.9727-0.11719-4.6992-0.95312-6.3711-0.68359-1.3711-1.5508-2.5391-2.4727-3.7773-0.23047-0.3125-0.46875-0.62891-0.69922-0.94922-0.16016-0.22266-0.48828-0.22266-0.64844 0-0.23438 0.32031-0.46875 0.63672-0.69922 0.94922-0.87891 1.1836-1.7891 2.4062-2.4688 3.7734-0.83594 1.6719-1.4297 4.3984-0.95312 6.3711 0.058594 0.23828-0.035156 0.48828-0.23438 0.62891-0.19922 0.14453-0.46484 0.15234-0.67188 0.019531l-1.5781-1c-0.22266-0.14062-0.51562-0.035156-0.59766 0.21484-0.47266 1.4648-1.0195 4.082 0.24609 6.0625 0.13281 0.21094 0.125 0.48047-0.023437 0.67969-0.14844 0.19922-0.40234 0.28906-0.64062 0.22266l-3.7305-1.0117c-0.20312-0.054688-0.41797 0.054688-0.48438 0.25781-0.50391 1.5391-1.2891 5.0039 0.59375 7.9961 0.12891 0.20703 0.12109 0.46875-0.015625 0.66406-0.14062 0.19922-0.38281 0.29297-0.62109 0.24219l-4.7461-1.0391c-0.26172-0.058594-0.5 0.15234-0.48438 0.41797 0.10156 1.6836 0.51563 4.6055 2.1484 5.8828 0.21094 0.16406 0.28516 0.44922 0.1875 0.69531-0.097656 0.24609-0.34766 0.40234-0.61328 0.375l-4.7578-0.44922c-0.26953-0.023438-0.48438 0.21484-0.42969 0.48047 0.33594 1.6562 1.1992 4.5195 3.3242 6.2617 0.17578 0.14453 0.25391 0.375 0.20703 0.59766-0.050781 0.22266-0.22266 0.39844-0.44141 0.44922l-4.8164 1.1797c-0.25 0.0625-0.37891 0.33984-0.26172 0.57031 0.83203 1.625 2.6797 4.6445 5.5 6.0352 0.19531 0.097656 0.32422 0.29297 0.33594 0.51562 0.007813 0.21875-0.10156 0.42578-0.28906 0.53906l-3.8945 2.3398c-0.24219 0.14453-0.26172 0.48438-0.042969 0.65625 1.6016 1.2734 4.8906 3.3594 8.2266 2.3086 0.27734-0.089843 0.57812 0.035157 0.71094 0.29297 0.13672 0.25781 0.066407 0.57422-0.16016 0.75391l-3.7109 2.9062c-0.21094 0.16406-0.20703 0.48828 0.011719 0.64062 4.6523 3.2695 10.266 3.6836 14.668 1.1016 0.24219-0.14062 0.25391-0.48047 0.035156-0.65625-8.1836-6.5273-11.121-20.301-11.246-20.91-0.066407-0.32422 0.14062-0.64453 0.46484-0.71094 0.32422-0.066406 0.64453 0.14062 0.71094 0.46484 0.03125 0.14062 2.8438 13.336 10.309 19.785 0.26172 0.22656 0.66406 0.039063 0.66406-0.30469v-12.664c-6.9648-8.4609-7.3984-19.5-7.4141-19.969-0.011719-0.33203 0.25-0.60938 0.58203-0.62109 0.32422-0.007813 0.60938 0.25 0.62109 0.58203 0.003906 0.10547 0.40234 10.062 6.2109 18.043l-0.011718-28.898c0-0.33203 0.26953-0.60156 0.60156-0.60156s0.60156 0.26953 0.60156 0.60156v28.969c5.8555-8 6.25-17.992 6.2539-18.098 0.011719-0.33203 0.28906-0.60156 0.62109-0.58203 0.33203 0.011719 0.59375 0.28906 0.58203 0.62109-0.015625 0.46875-0.45312 11.547-7.4531 20.02v12.617c0 0.34375 0.40625 0.52734 0.66406 0.30469 7.4688-6.457 10.277-19.645 10.309-19.785 0.066406-0.32422 0.38281-0.53516 0.71094-0.46484 0.32422 0.066407 0.53516 0.38672 0.46484 0.71094-0.125 0.60938-3.0625 14.383-11.246 20.91-0.21875 0.17578-0.20703 0.51562 0.035157 0.65625 4.4023 2.5781 10.02 2.168 14.668-1.1016 0.21875-0.15234 0.22266-0.47656 0.011718-0.64062l-3.7109-2.9062c-0.23047-0.17969-0.29688-0.49609-0.16016-0.75391 0.13672-0.25781 0.43359-0.38281 0.71484-0.29297 3.3359 1.0547 6.6211-1.0312 8.2266-2.3086 0.21875-0.17578 0.19531-0.51172-0.042969-0.65625l-3.8945-2.3398c-0.1875-0.11328-0.30078-0.32031-0.28906-0.53906 0.007813-0.21875 0.13672-0.41797 0.33594-0.51562 2.8281-1.3945 4.6758-4.4141 5.5039-6.0352 0.11719-0.23047-0.011719-0.50781-0.26172-0.57031z"/>
  <path d="m49.664 76.039c-0.16797 0.14844-0.26562 0.36719-0.26562 0.59375v5.7227c0 0.33203 0.26953 0.60156 0.60156 0.60156s0.60156-0.26953 0.60156-0.60156v-5.7266c0-0.22656-0.09375-0.44141-0.25781-0.58984-0.17969-0.15625-0.50391-0.15625-0.67969 0z"/>
 </g>
</g></svg>
