<?xml version="1.0" encoding="UTF-8"?>
<svg width="100pt" height="100pt" version="1.1" viewBox="0 0 100 100" xmlns="http://www.w3.org/2000/svg"><g fill="#1C1C1C" stroke="#1C1C1C" stroke-width="2.5" fill-rule="evenodd">
 <path d="m83.566 54.289c-0.44141-1.0273-1.0898-2.0703-1.9258-3.0977-0.90625-1.1133-1.8281-1.9648-2.3906-2.4414 0.83984-0.91406 2.4883-2.9922 2.6914-5.3555 0.125-1.4844-0.47656-3.1992-1.6953-4.8281-1.0703-1.4297-2.5078-2.6367-3.8438-3.2344-0.63672-0.28516-0.78125-0.53125-0.83984-0.75391-0.09375-0.35938-0.011719-0.92188 0.09375-1.6328 0.16797-1.1562 0.39453-2.7422 0.16016-5.0117-0.16016-1.5508-0.59766-2.9844-1.2969-4.2578-0.6875-1.2539-1.6172-2.3047-2.6953-3.043-0.87109-0.60156-1.8281-0.99219-2.8398-1.1719-1.0586-0.1875-2.1523-0.12891-3.2578 0.17187-2.1719 0.58984-3.7109 1.7031-4.5742 3.3086-1.6992 3.1562-0.30469 7.3633 0.36328 9.3828 0.039063 0.11328 0.074219 0.22266 0.10547 0.32031 0.24609 0.75391-0.011719 1.5039-0.26953 1.9961-0.28516 0.54297-0.72266 1.082-1.2695 1.5586-1.3555-2.6484-2.6797-4.9062-2.6953-4.9297-0.10938-0.18359-0.30469-0.29688-0.51953-0.29688-0.21094 0-0.41016 0.11328-0.51953 0.29688-0.015625 0.023438-1.3438 2.2812-2.6953 4.9297-0.54688-0.47656-0.98438-1.0195-1.2695-1.5586-0.25781-0.49609-0.51562-1.2422-0.26953-2 0.035157-0.10156 0.070313-0.21094 0.10938-0.32812 0.66406-2.0195 2.0547-6.2227 0.35938-9.375-0.86328-1.6055-2.3984-2.7148-4.5703-3.3047-1.1055-0.29687-2.1992-0.35547-3.2617-0.16797-1.0117 0.17969-1.9688 0.57031-2.8438 1.1719-1.0742 0.73828-2.0078 1.793-2.6953 3.043-0.69922 1.2734-1.1328 2.707-1.293 4.2578-0.23438 2.2656-0.007813 3.8516 0.15625 5.0117 0.10156 0.71094 0.18359 1.2734 0.089843 1.6289-0.058593 0.22266-0.19922 0.46875-0.83984 0.75391-1.3359 0.59766-2.7734 1.8086-3.8398 3.2344-1.2188 1.6289-1.8203 3.3438-1.6953 4.8281 0.066407 0.81641 0.31641 1.6641 0.73438 2.5312-0.5625-0.03125-1.1328-0.046875-1.7109-0.046875-2.4805 0-4.8086 0.29688-6.918 0.88281-2.1719 0.60938-4.0938 1.5195-5.6953 2.707-1.6914 1.2578-3.0078 2.8125-3.9023 4.625-0.94922 1.9102-1.4297 4.1055-1.4297 6.5195 0 2.3359 0.78906 4.8164 2.3516 7.3711 1.2852 2.1055 3.125 4.2852 5.3242 6.3008 1.8555 1.7031 3.957 3.2812 5.918 4.4453 1.0977 0.65234 3.125 1.7422 4.375 1.7422s3.2773-1.0938 4.375-1.7422c0.82422-0.48828 1.6758-1.0508 2.5195-1.6641 0.54688 0.73828 1.1797 1.3281 1.8867 1.7656 2.1914 1.3477 4.707 1.8945 7.0781 1.543 2.3438-0.34766 4.375-1.5312 5.7188-3.332 1.4062-1.8789 2.2695-3.8008 2.6367-5.875 0.39844-2.2539 0.22656-4.7344-0.52344-7.5898-0.58594-2.2305-0.50391-4.0781 0.24219-5.4922 0.625-1.1836 1.5664-1.75 2.1055-1.9922 0.53906 0.24219 1.4805 0.80859 2.1055 1.9922 0.74609 1.4102 0.82812 3.2617 0.24219 5.4922-0.74609 2.8516-0.91797 5.3359-0.51953 7.5898 0.36719 2.0703 1.2266 3.9922 2.6289 5.875 1.4102 1.8867 3.6133 3.1641 6.0469 3.5117 0.4375 0.0625 0.875 0.09375 1.3086 0.09375 1.9727 0 3.8867-0.63672 5.5039-1.8477 1.5234-1.1445 2.6953-2.5625 3.4844-4.2109 0.62891-1.3164 1.0156-2.7812 1.1445-4.3516 0.16016-1.9102-0.09375-3.4961-0.26172-4.2734 0.53516-0.26953 1.4531-0.78906 2.3984-1.6094 0.85547-0.74219 1.5547-1.5742 2.0898-2.4844 0.67188-1.1406 1.0703-2.3945 1.1953-3.7266 0.11719-1.2461-0.11328-2.5391-0.67578-3.8555zm-26.691-21.504c0.6875 1.207 1.5977 2.8789 2.457 4.5977 0.007813 0.015626 0.015625 0.03125 0.023438 0.042969 1.3438 2.6914 2.5469 5.4922 2.5469 6.8164 0 2.7695-2.2539 5.0234-5.0234 5.0234-2.7695 0-5.0234-2.2539-5.0234-5.0234 0-1.3242 1.2031-4.125 2.543-6.8164 0.007812-0.015625 0.015624-0.03125 0.023437-0.046875 0.85547-1.7188 1.7656-3.3867 2.4531-4.5938zm-26.043 14.297c3.2891 0 6.6641 0.58594 9.5195 1.9453-2.7461 2.0156-6.0938 3.1172-9.5195 3.1172-3.4297 0-6.7734-1.1016-9.5195-3.1172 2.8516-1.3594 6.2344-1.9453 9.5195-1.9453zm0 32.184c-1.2578 0-5.3555-2.0938-9.4766-5.875-2.7188-2.4961-7.2852-7.4766-7.2852-12.785 0-5.3594 2.5-8.8633 6.0703-10.957 1.4297 1.125 3.0195 2.0156 4.7227 2.6406 1.9102 0.70313 3.918 1.0586 5.9688 1.0586s4.0586-0.35547 5.9688-1.0586c1.707-0.62891 3.293-1.5156 4.7227-2.6406 3.5703 2.0977 6.0703 5.6016 6.0703 10.957 0 5.3047-4.5625 10.285-7.2852 12.785-0.92969 0.85547-1.8594 1.6211-2.7539 2.2969-0.003907 0.003906-0.003907 0.003906-0.007813 0.003906-0.03125 0.019532-0.0625 0.042969-0.089844 0.066406-3.0273 2.2812-5.6602 3.5078-6.625 3.5078zm52.215-21.238c-0.19141 2.0859-1.1484 3.8984-2.8438 5.3828-1.293 1.1328-2.5508 1.6406-2.5625 1.6445-0.003906 0-0.003906 0.003906-0.007813 0.003906-0.003906 0.003906-0.007812 0.003906-0.011718 0.003906-0.007813 0.003906-0.60547 0.25391-1.6211 0.375-0.93359 0.11328-2.418 0.13281-4.1992-0.39844-0.31641-0.097656-0.65234 0.085938-0.75 0.40234-0.097656 0.31641 0.085938 0.65234 0.40234 0.75 1.293 0.38672 2.457 0.51953 3.4336 0.51953 1.1094 0 1.9766-0.16797 2.5312-0.31641 0.14453 0.75 0.33594 2.1211 0.19922 3.7344-0.27344 3.2422-1.6719 5.8359-4.1523 7.6992-1.7109 1.2852-3.8125 1.8242-5.9141 1.5273-2.1172-0.30078-4.0312-1.4102-5.2539-3.043-2.6836-3.5938-3.2578-7.3125-1.9102-12.438 0.66406-2.5312 0.55078-4.6719-0.34375-6.3594-0.35547-0.67578-0.82812-1.2578-1.4062-1.7344-0.46875-0.38672-1.0078-0.70312-1.5508-0.90625-0.13672-0.050781-0.28906-0.050781-0.42578 0-0.54297 0.20703-1.0781 0.51953-1.5469 0.90625-0.57812 0.47656-1.0508 1.0625-1.4062 1.7344-0.89062 1.6875-1.0078 3.8281-0.34375 6.3594 1.3477 5.1289 0.77734 8.8477-1.9102 12.438-2.4414 3.2695-7.2617 3.9062-11.207 1.4844-0.57422-0.35156-1.0977-0.84375-1.5508-1.4609 0.83594-0.64844 1.6562-1.3438 2.4375-2.0547 2.1953-2.0156 4.0391-4.1953 5.3242-6.3008 1.5586-2.5547 2.3516-5.0352 2.3516-7.3711 0-2.4141-0.48047-4.6094-1.4258-6.5195-0.89844-1.8125-2.2109-3.3672-3.9023-4.625-1.6016-1.1875-3.5234-2.0977-5.7188-2.707-1.1953-0.32812-2.457-0.57031-3.7812-0.71484-0.56641-0.96484-0.89062-1.8867-0.96484-2.7539-0.10156-1.1875 0.41406-2.6094 1.457-4.0039 0.9375-1.2539 2.2266-2.3477 3.3672-2.8594 0.85547-0.38281 1.3359-0.875 1.5117-1.5508 0.15234-0.59375 0.058594-1.2617-0.0625-2.1055-0.15625-1.0977-0.375-2.5977-0.15234-4.7148 0.28516-2.7695 1.5508-5.1133 3.4688-6.4336 1.5117-1.0391 3.2773-1.3242 5.1055-0.83594 1.8398 0.49609 3.125 1.4102 3.8242 2.7109 1.4531 2.6992 0.17578 6.5664-0.44141 8.4297-0.039062 0.12109-0.074219 0.23047-0.10938 0.33594-0.53125 1.625 0.29688 3.5625 2.1289 5.043-0.63281 1.2852-1.1484 2.4336-1.5391 3.418-0.62109 1.5664-0.92188 2.7148-0.92188 3.5117 0 1.6641 0.64844 3.2266 1.8242 4.4023 1.1758 1.1758 2.7383 1.8242 4.4023 1.8242 1.6641 0 3.2266-0.64844 4.4023-1.8242s1.8242-2.7383 1.8242-4.4023c0-0.79688-0.30078-1.9453-0.92188-3.5117-0.39062-0.98438-0.90625-2.1328-1.5391-3.418 1.8281-1.4766 2.6602-3.4141 2.1289-5.0391-0.03125-0.10156-0.070313-0.21094-0.10938-0.32422-0.61719-1.8594-1.8984-5.7305-0.44922-8.4336 0.69922-1.3008 1.9883-2.2148 3.8281-2.7148 1.8281-0.49219 3.5898-0.20703 5.1016 0.82812 1.918 1.3164 3.1875 3.6602 3.4727 6.4336 0.21875 2.1172 0.003906 3.6172-0.15625 4.7148-0.12109 0.84766-0.21875 1.5117-0.0625 2.1055 0.17969 0.68359 0.64453 1.1641 1.5117 1.5508 1.1562 0.51953 2.418 1.5859 3.3711 2.8594 1.043 1.3945 1.5586 2.8164 1.4609 4.0039-0.20703 2.4688-2.4336 4.7188-2.7539 5.0312-0.32422 0.19531-2.3984 1.3789-4.4414 0.95313-0.32422-0.066407-0.64453 0.14062-0.71094 0.46484-0.066407 0.32422 0.14062 0.64453 0.46484 0.71094 0.39453 0.082031 0.78906 0.11719 1.1758 0.11719 1.6758 0 3.1562-0.67969 3.832-1.043 0.48438 0.40234 1.4727 1.2734 2.418 2.4414 1.1758 1.4648 2.5391 3.6953 2.3203 6.0625z"/>
</g></svg>
