<?xml version="1.0" encoding="UTF-8"?>
<svg width="100pt" height="100pt" version="1.1" viewBox="0 0 100 100" xmlns="http://www.w3.org/2000/svg"><g fill="#1C1C1C" stroke="#1C1C1C" stroke-width="2.5" fill-rule="evenodd">
 <g>
  <path d="m32.297 60.453c0.33594 0 0.60547-0.26953 0.60547-0.60547v-7.5195h1.2148v7.5195c0 0.33594 0.26953 0.60547 0.60547 0.60547 0.33594 0 0.60547-0.26953 0.60547-0.60547v-7.5195c1.3828-0.070313 2.4883-1.2188 2.4883-2.6211v-14.801c0-1.1875-0.49609-2.3281-1.3633-3.1406-0.87891-0.82031-2.0234-1.2305-3.2266-1.1523-1.1016 0.070313-2.125 0.57422-2.875 1.4219-0.73437 0.82422-1.1406 1.8906-1.1406 3.0039v14.676c0 1.4023 1.1055 2.5508 2.4844 2.6211v7.5234c-0.003906 0.32422 0.26953 0.59375 0.60156 0.59375zm-1.8828-10.746v-14.676c0-1.6992 1.2695-3.1094 2.8867-3.2148 0.070313-0.003906 0.14062-0.007812 0.20703-0.007812 0.78906 0 1.5352 0.29297 2.1133 0.83594 0.63281 0.59375 0.97656 1.3945 0.97656 2.2578v14.801c0 0.78125-0.63281 1.4141-1.4141 1.4141h-0.46484-0.003906-0.003906-2.4102-0.003906-0.003906-0.46484c-0.77734 0.003906-1.4141-0.63281-1.4141-1.4102z"/>
  <path d="m63.715 60.828c2.9648-3.5703 5.7656-7.457 8.3281-11.555 2.4492-3.9219 4.7539-8.1445 6.8398-12.555 1.9883-4.2031 3.8398-8.6953 5.5039-13.355 0.078125-0.21875 0.023437-0.46484-0.14062-0.63281-0.16406-0.16406-0.41016-0.21875-0.62891-0.14062-6.4258 2.293-12.504 4.9297-18.062 7.8438-5.6992 2.9844-11.023 6.3477-15.844 10-0.035157-0.0625-0.066407-0.12891-0.10547-0.19531-1.5938-2.9297-3.9492-5.5352-6.2266-8.0586-0.875-0.96484-1.6992-1.8789-2.457-2.7852-3.0586-3.6523-5.2891-8.1758-6.8281-13.824-0.070312-0.26562-0.30859-0.44531-0.58594-0.44531-0.27344 0-0.51172 0.18359-0.58594 0.44531-1.5352 5.6523-3.7695 10.176-6.8281 13.824-0.75781 0.90625-1.5859 1.8164-2.457 2.7852-2.2773 2.5234-4.6367 5.1289-6.2266 8.0586-1.8555 3.4102-2.2969 6.6484-1.3516 9.8945 0.62891 2.1602 1.793 3.9375 3.5664 5.4258 1.5352 1.2891 3.3398 2.2266 5.207 3.1445 1.4492 1.3047 2.6055 2.7383 3.5234 4.2695-2.2148 3.707-3.668 7.4727-4.3164 11.195-0.16406 0.94141-0.35937 2.3672-0.36719 3.8281-0.007813 1.8906 0.3125 3.3047 0.94922 4.2031 0.11719 0.16406 0.30469 0.25391 0.49219 0.25391 0.12109 0 0.24219-0.035156 0.35156-0.11328 0.27344-0.19531 0.33594-0.57031 0.14062-0.84375-1.207-1.6914-0.59375-5.875-0.37891-7.1172 0.58984-3.3711 1.8672-6.7891 3.8047-10.172 3.043 6.0508 2.8242 13.383 2.625 20.047-0.011719 0.33594 0.25391 0.61328 0.58594 0.62109h0.019531c0.32422 0 0.59375-0.26172 0.60547-0.58594 0.125-4.1914 0.28125-9.4062-0.62891-14.148-0.47656-2.4922-1.1992-4.6602-2.2031-6.625-0.58594-1.1484-1.2773-2.2266-2.0664-3.2305 0.64062 0.34766 1.2695 0.71484 1.8633 1.1094 0.73828 0.48828 1.6641 1.2695 1.8711 2.2148 0.0625 0.28125 0.3125 0.47656 0.58984 0.47656 0.042969 0 0.085937-0.003907 0.12891-0.015626 0.32422-0.070312 0.53125-0.39453 0.46094-0.71875-0.29297-1.3398-1.4609-2.3516-2.3828-2.9648-1.4336-0.95312-3.0039-1.7227-4.5195-2.4648-0.16406-0.082031-0.33203-0.16016-0.49609-0.24219-0.015625-0.007813-0.027344-0.015626-0.042969-0.023438-3.9258-1.9297-7.0273-3.7305-8.2227-7.8633-1.918-6.5898 2.9883-12.02 7.3164-16.805 0.88281-0.97656 1.7148-1.8984 2.4883-2.8203 1.6992-2.0312 3.1172-4.25 4.3359-6.793 0.81641-1.7031 1.5273-3.5156 2.1484-5.5 0.625 1.9844 1.3359 3.7969 2.1484 5.5 1.2188 2.5391 2.6367 4.7617 4.3359 6.793 0.77344 0.92188 1.6055 1.8438 2.4883 2.8203 4.3281 4.7891 9.2305 10.215 7.3164 16.805-1.1953 4.1172-4.2891 5.9258-8.207 7.8555-0.015625 0.007812-0.03125 0.015624-0.042969 0.023437-0.17188 0.085937-0.33984 0.16797-0.51172 0.25391-1.5156 0.74219-3.082 1.5117-4.5156 2.4648-0.92578 0.61328-2.0938 1.625-2.3867 2.9648-0.070312 0.32422 0.13672 0.64844 0.46094 0.71875 0.32422 0.070312 0.64844-0.13672 0.71875-0.46094 0.20703-0.94531 1.1328-1.7227 1.8711-2.2148 0.59766-0.39453 1.2227-0.76172 1.8633-1.1094-0.78906 1.0039-1.4805 2.0859-2.0664 3.2344-1.0039 1.9648-1.7227 4.1328-2.2031 6.625-0.90625 4.7422-0.75391 9.957-0.625 14.145 0.011718 0.32812 0.27734 0.58594 0.60547 0.58594h0.019532c0.33594-0.011718 0.59766-0.28906 0.58594-0.62109-0.26562-8.8633-0.56641-18.902 6.8125-25.547 1.875-0.92578 3.6836-1.8633 5.2148-3.1523 1.7734-1.4883 2.9414-3.2656 3.5664-5.4258 0.82422-2.832 0.59375-5.6562-0.70703-8.5938 9.1445-6.9688 20.094-12.809 32.559-17.375-7.0039 19.098-16.988 34.555-29.699 45.961-1.9141 0.042969-3.8203 0.19141-5.6992 0.44531-3.4805 0.46875-6.4531 1.5547-8.832 3.2266-1.0156 0.71094-2.7578 2.1172-2.9883 3.5117-0.011719 0.066406-0.011719 0.13281 0 0.19922 0.10938 0.65234 0.55859 1.375 1.332 2.1406 0.57812 0.57422 1.2188 1.0586 1.6562 1.3672 2.3867 1.6758 5.3594 2.7617 8.832 3.2227 2.2734 0.30469 4.5938 0.46094 6.9141 0.46094 0.67578 0 1.3555-0.015625 2.0312-0.039063 2.8672-0.10938 5.8086-0.46094 8.7344-1.0391 2.7891-0.55078 5.6484-1.3242 8.4961-2.3008 2.6992-0.92578 5.4688-2.0586 8.2305-3.3711 0.21094-0.10156 0.34766-0.3125 0.34766-0.54688s-0.13281-0.44531-0.34766-0.54688c-2.7656-1.3086-5.5352-2.4414-8.2305-3.3672-2.8516-0.97656-5.7109-1.75-8.4961-2.3008-2.9297-0.57812-5.8672-0.92969-8.7344-1.0391-0.48047-0.019532-0.96094-0.03125-1.4414-0.035157 3.1016-2.8633 6.0547-5.9805 8.8008-9.2852zm16.414 16.574c-8.9453 4.0781-17.43 6.0938-25.734 6.0938-2.2852 0-4.5586-0.15234-6.8242-0.45703-3.2812-0.44141-6.0703-1.4531-8.2969-3.0156-1.3555-0.95313-2.2852-1.9453-2.4688-2.6211 0.18359-0.67578 1.1328-1.6875 2.4688-2.6211 2.2188-1.5586 5.0117-2.5742 8.2969-3.0195 1.8828-0.25391 3.7695-0.39844 5.668-0.44531 0.035157 0.007813 0.066407 0.007813 0.10156 0.007813 0.042968 0 0.082031-0.003907 0.125-0.015625 0.30859-0.007813 0.61719-0.007813 0.92969-0.007813 8.2969 0.011719 16.789 2.0234 25.734 6.1016z"/>
 </g>
</g></svg>
