<?xml version="1.0" encoding="UTF-8"?>
<svg width="100pt" height="100pt" version="1.1" viewBox="0 0 100 100" xmlns="http://www.w3.org/2000/svg"><g fill="#1C1C1C" stroke="#1C1C1C" stroke-width="2.5" fill-rule="evenodd">
 <g>
  <path d="m84.703 79.867c-1.9297-1.5117-4.0742-2.6836-6.3789-3.4922-2.3789-0.83594-4.8789-1.2578-7.4297-1.2578-2.3359 0-4.6406 0.35937-6.8516 1.0664-3.6016 1.1562-7.3906 1.8828-11.043 2.125 4.0859-5.2578 10.266-10.836 14.855-14.977 0.50781-0.45703 0.98828-0.89062 1.4531-1.3125 2.8828-2.6172 5.3398-5.6641 7.293-9.0547 2.1367-3.7031 3.6172-7.6914 4.4023-11.855 0.75781-4.0234 0.85156-8.1289 0.27344-12.203-0.027344-0.1875-0.13672-0.34766-0.29688-0.44141-0.16016-0.09375-0.35938-0.10938-0.53125-0.039063-3.8125 1.5391-7.3203 3.6719-10.43 6.3398-3.2109 2.7617-5.9258 6.0352-8.0625 9.7383-1.9648 3.4062-3.3789 7.0586-4.1992 10.859-1.2969 5.9883-3.3125 11.633-6.1562 17.246-0.15234 0.30078-0.03125 0.66406 0.26953 0.81641 0.30078 0.15234 0.66406 0.03125 0.81641-0.26953 2.8906-5.7109 4.9375-11.445 6.2617-17.539 0.79297-3.6758 2.1602-7.2109 4.0625-10.508 3.9766-6.8867 9.8984-12.148 17.16-15.258 0.94141 7.8516-0.65234 15.613-4.625 22.496-1.8945 3.2812-4.2695 6.2266-7.0586 8.7617-0.46484 0.42188-0.94531 0.85547-1.4531 1.3125-2.543 2.2969-5.4258 4.8945-8.2266 7.668-3.2695 3.2305-5.7422 6.0195-7.5703 8.5312-0.47266 0.64453-0.90234 1.2773-1.2852 1.8867-0.375-0.59766-0.78906-1.2148-1.2383-1.8438-0.015625-0.027343-0.03125-0.046874-0.050782-0.070312-2.0078-2.7969-4.7344-5.9258-8.3438-9.5586-3.0195-3.043-6.1484-5.9219-8.8125-8.3398-2.7852-2.5273-5.1602-5.4727-7.0586-8.7656-3.9727-6.8867-5.5703-14.648-4.6289-22.496 7.2656 3.1094 13.191 8.375 17.164 15.262 1.8945 3.2812 3.2656 6.8164 4.0625 10.508 1.3242 6.125 3.4609 12.336 6.1797 17.953 0.14453 0.30078 0.51172 0.42969 0.8125 0.28516 0.30078-0.14453 0.42969-0.51172 0.28516-0.8125-2.6758-5.5312-4.7773-11.645-6.0859-17.68-0.82812-3.8164-2.2383-7.4688-4.1992-10.859-2.1367-3.7031-4.8516-6.9805-8.0625-9.7422-3.1055-2.6719-6.6172-4.8008-10.43-6.3438-0.17578-0.070312-0.37109-0.054687-0.53125 0.039063s-0.27344 0.25781-0.29688 0.44141c-0.57422 4.0703-0.48047 8.1797 0.27734 12.203 0.78516 4.1641 2.2656 8.1523 4.4023 11.855 1.9609 3.3984 4.4141 6.4492 7.293 9.0586 3.7891 3.4375 11.457 10.395 16.254 16.719-3.5977-0.22656-7.2891-0.94141-10.992-2.1328-2.2109-0.70703-4.5156-1.0664-6.8555-1.0664-2.5469 0-5.0469 0.42578-7.4258 1.2578-2.3047 0.80859-4.4492 1.9805-6.375 3.4922-0.14844 0.11719-0.23438 0.29297-0.23438 0.48047s0.085938 0.36328 0.23438 0.48047c1.9297 1.5117 4.0742 2.6875 6.375 3.4922 2.3828 0.83594 4.8789 1.2617 7.4258 1.2617 2.3398 0 4.6406-0.35938 6.8477-1.0664 4.5781-1.4688 9.1328-2.2148 13.535-2.2148h0.46875 0.003906 0.003906 0.5625c4.3984 0 8.9531 0.74609 13.535 2.2148 2.207 0.70703 4.5078 1.0664 6.8438 1.0664 2.5469 0 5.0469-0.42578 7.4297-1.2617 2.3008-0.80859 4.4492-1.9844 6.375-3.4922 0.14844-0.11719 0.23438-0.29297 0.23438-0.48047-0.003906-0.19531-0.085938-0.37109-0.23438-0.48437zm-49.129 3.4883c-2.0859 0.66797-4.2656 1.0078-6.4766 1.0078-4.5156 0-8.793-1.3867-12.414-4.0156 3.6211-2.6289 7.8984-4.0117 12.414-4.0117 2.2109 0 4.3945 0.33984 6.4844 1.0078 4.1445 1.332 8.2773 2.0859 12.289 2.2383 0.36328 0.51172 0.69922 1.0156 1.0078 1.5039-4.3398 0.0625-8.8125 0.82422-13.305 2.2695zm35.32 1.0078c-2.207 0-4.3867-0.33984-6.4727-1.0078-4.5234-1.4531-9.0273-2.2148-13.391-2.2734 0.30859-0.48828 0.64844-0.98828 1.0195-1.5039 4.0664-0.17188 8.3359-0.94141 12.367-2.2383 2.0898-0.66797 4.2695-1.0078 6.4805-1.0078 4.5234 0 8.7969 1.3828 12.422 4.0117-3.6289 2.6328-7.9062 4.0195-12.426 4.0195z"/>
  <path d="m37.914 34.762c0.98438 1.2891 1.7773 1.9062 2.4492 1.9062 0.089844 0 0.17578-0.011719 0.25781-0.03125 0.16406 0.003906 0.625 0.019531 1.2305 0.15234 0.66406 0.14844 1.6484 0.47656 2.6328 1.1914 0.16406 1.1758 0.70312 2.2617 1.5547 3.1172 0.89063 0.89062 2.0391 1.4414 3.2773 1.5742v35.133c0 0.33594 0.27344 0.60937 0.60938 0.60937 0.33594 0 0.60938-0.27344 0.60938-0.60937l-0.003906-35.129c1.2344-0.13672 2.3828-0.68359 3.2734-1.5742 0.78906-0.78906 1.3086-1.7773 1.5117-2.8516 0.98438-0.71484 1.9727-1.043 2.6367-1.1953 0.60938-0.13672 1.0664-0.15234 1.2305-0.15234 0.085937 0.023437 0.17188 0.03125 0.25781 0.03125 0.67578 0 1.4648-0.62109 2.4492-1.9062 0.8125-1.0625 1.5234-2.2852 1.7383-2.8555 0.24609-0.64844 0.22656-1.3555-0.058594-1.9883-0.28516-0.63281-0.79687-1.1172-1.4453-1.3672-1.3398-0.51172-2.8438 0.16406-3.3555 1.5039-0.21484 0.56641-0.5 1.9531-0.60156 3.2891-0.066407 0.91016-0.042969 1.625 0.085937 2.1523-0.73047 0.10938-1.7656 0.37109-2.8555 0.98828-0.089844-1.9727-0.63672-7.0742-1.4258-11.738-0.50391-2.9688-1.0312-5.3516-1.5703-7.0742-0.32422-1.0352-0.64062-1.8125-0.97266-2.3711-0.19922-0.33594-0.39453-0.58594-0.60938-0.77344-0.28125-0.24609-0.58594-0.37109-0.89844-0.37109-0.31641 0-0.61719 0.125-0.89844 0.37109-0.21094 0.1875-0.41016 0.4375-0.60938 0.77344-0.33203 0.5625-0.64844 1.3398-0.97266 2.3711-0.53906 1.7227-1.0664 4.1055-1.5703 7.0742-0.76172 4.4883-1.2969 9.3867-1.4141 11.504-1.1094-0.63672-2.1641-0.90625-2.9062-1.0195 0.125-0.52734 0.15234-1.2383 0.085938-2.1523-0.10156-1.3359-0.38281-2.7188-0.60156-3.2891-0.24609-0.64844-0.73047-1.1602-1.3672-1.4453-0.63281-0.28516-1.3398-0.30469-1.9883-0.058594-0.64844 0.24609-1.1602 0.73047-1.4453 1.3672-0.28516 0.63281-0.30469 1.3398-0.058594 1.9883 0.21875 0.56641 0.92578 1.793 1.7383 2.8555zm21.496-1.3047c0.10547-1.125 0.34375-2.2812 0.50781-2.707 0.21094-0.55078 0.73438-0.89062 1.293-0.89062 0.16406 0 0.32812 0.03125 0.48828 0.089844 0.34375 0.13281 0.61719 0.39062 0.76953 0.72656 0.14844 0.33594 0.16016 0.71094 0.03125 1.0547-0.16016 0.42578-0.75391 1.4453-1.4258 2.3555-0.83203 1.125-1.3555 1.5117-1.5625 1.6016-0.097657-0.19922-0.23047-0.83594-0.10156-2.2305zm-12.379-8c0.48047-2.875 0.98438-5.1953 1.4922-6.8984 0.78125-2.5977 1.332-2.8906 1.3984-2.918 0.066406 0.027344 0.62109 0.32031 1.3984 2.918 0.51172 1.7031 1.0156 4.0234 1.4922 6.8984 0.89453 5.3398 1.3789 10.57 1.3789 11.762 0 2.3438-1.8984 4.2539-4.2383 4.2734-0.011719 0-0.023437-0.003907-0.035156-0.003907s-0.023438 0-0.035157 0.003907c-2.3438-0.019532-4.2383-1.9297-4.2383-4.2734 0.003907-1.1914 0.49219-6.4219 1.3867-11.762zm-9.6875 4.957c0.14844-0.33594 0.42578-0.59375 0.76953-0.72656 0.16016-0.0625 0.32812-0.089844 0.48828-0.089844 0.55469 0 1.082 0.33984 1.293 0.89062 0.16016 0.42578 0.39844 1.5781 0.50781 2.707 0.12891 1.3945-0.007813 2.0312-0.10156 2.2344-0.20703-0.089844-0.73047-0.47266-1.5625-1.6016-0.67188-0.91016-1.2617-1.9336-1.4258-2.3555-0.12891-0.34375-0.11719-0.71875 0.03125-1.0586z"/>
  <path d="m49.348 34.766v3.1055c0 0.33594 0.27344 0.60938 0.60938 0.60938 0.33594 0 0.60938-0.27344 0.60938-0.60938v-3.1055c0.49609-0.33594 0.91797-1.1172 1.2969-2.3906 0.35938-1.207 0.57031-2.5234 0.57031-3.0977 0-1.3672-1.1133-2.4766-2.4766-2.4766-1.3672 0-2.4766 1.1133-2.4766 2.4766 0 0.57422 0.21484 1.8906 0.57031 3.0977 0.37891 1.2734 0.79688 2.0547 1.2969 2.3906zm0.60547-6.7461c0.69531 0 1.2617 0.56641 1.2617 1.2617 0 0.41797-0.17578 1.4961-0.45312 2.5117-0.33594 1.207-0.64844 1.7305-0.80469 1.9023-0.15625-0.17187-0.47266-0.69922-0.80469-1.9023-0.28125-1.0117-0.45312-2.0938-0.45312-2.5117-0.003907-0.69531 0.5625-1.2617 1.2539-1.2617z"/>
 </g>
</g></svg>
