<?xml version="1.0" encoding="UTF-8"?>
<svg width="100pt" height="100pt" version="1.1" viewBox="0 0 100 100" xmlns="http://www.w3.org/2000/svg"><g fill="#1C1C1C" stroke="#1C1C1C" stroke-width="2.5" fill-rule="evenodd">
 <g>
  <path d="m44.246 57 0.14844-0.90234c0.12109-0.73828-0.29297-1.4492-0.96875-1.6523-0.45703-0.13672-0.92969-0.046874-1.3047 0.25391-0.28125 0.22656-0.45312 0.5625-0.51172 0.91797l-0.45703 2.7539c-0.13281 0.80078-0.66797 1.5078-1.4336 1.7773-0.81641 0.28516-1.7148 0.058593-2.3008-0.58203-0.46875-0.51172-0.63672-1.2344-0.51562-1.9219l0.95703-5.4336c0.15234-0.86328-0.51953-1.6875-1.4453-1.6602-0.67578 0.019531-1.2305 0.54297-1.3477 1.207l-0.085937 0.47656c-0.125 0.70703-0.55469 1.3438-1.1992 1.6523-0.84375 0.40234-1.8203 0.22656-2.4609-0.41797l-4.1641-4.1562c-0.56641-0.56641-1.4766-0.60938-2.0273-0.089844-0.32422 0.30469-0.48438 0.73828-0.4375 1.1914 0.035156 0.33594 0.20703 0.64063 0.44531 0.87891l4.1211 4.1211c0.52734 0.52734 0.79688 1.2773 0.64844 2.0039-0.17969 0.88672-0.87109 1.5508-1.7422 1.7031l-0.55859 0.097656c-0.66406 0.11719-1.1914 0.67188-1.207 1.3477-0.027344 0.92578 0.79687 1.5977 1.6602 1.4453l5.5273-0.97266c0.6875-0.12109 1.3945 0.097657 1.8906 0.58984 0.35938 0.35547 0.59766 0.80859 0.63672 1.2969 0.097657 1.2109-0.71484 2.1836-1.8008 2.3633l-2.8477 0.47266c-0.33203 0.054687-0.64844 0.20703-0.87109 0.45703-0.30469 0.33984-0.42188 0.78516-0.33594 1.2227 0.14453 0.74219 0.91016 1.2383 1.7031 1.1055l0.88672-0.14844c1.1797-0.19531 2.3672-0.29297 3.5469-0.29297 3.1211 0 6.2109 0.67578 9.0508 1.9844 0.31641 0.14453 0.64063-0.17578 0.49609-0.49219-1.8086-3.9141-2.4062-8.3047-1.6953-12.598z"/>
  <path d="m72.895 59.137-4.1602 4.1602c-0.64453 0.64453-1.6172 0.82031-2.4609 0.41797-0.64844-0.30859-1.0781-0.94922-1.2031-1.6562l-0.082031-0.47266c-0.11719-0.66406-0.67188-1.1914-1.3477-1.2109-0.92578-0.027344-1.5977 0.79688-1.4453 1.6602l0.95703 5.4375c0.12109 0.68359-0.046875 1.4062-0.51562 1.918-0.58203 0.63672-1.4766 0.86328-2.293 0.58594-0.77344-0.26562-1.3086-0.97266-1.4414-1.7773l-0.45703-2.7461c-0.0625-0.375-0.24609-0.72656-0.55078-0.95312-0.25391-0.19141-0.54688-0.28906-0.85156-0.28906-0.14062 0-0.28125 0.019531-0.41797 0.0625-0.67578 0.20312-1.0938 0.91016-0.96875 1.6523l0.14844 0.90234c0.71484 4.293 0.11328 8.6836-1.6914 12.602-0.14453 0.31641 0.17969 0.64062 0.49219 0.49219 3.918-1.8047 8.3047-2.4062 12.602-1.6914l0.88672 0.14844c0.79297 0.13281 1.5547-0.36719 1.7031-1.1055 0.085937-0.4375-0.035156-0.88281-0.33594-1.2227-0.22266-0.25-0.53906-0.40234-0.87109-0.45703l-2.7578-0.45703c-0.80469-0.13281-1.5078-0.66797-1.7734-1.4375-0.28125-0.81641-0.054688-1.7109 0.58594-2.2969 0.51172-0.46875 1.2344-0.63672 1.9219-0.51562l5.4336 0.95703c0.86328 0.15234 1.6875-0.51953 1.6602-1.4492-0.019531-0.67578-0.54688-1.2305-1.2109-1.3477l-0.46875-0.082031c-0.70703-0.125-1.3477-0.55469-1.6562-1.2031-0.40234-0.84375-0.22656-1.8203 0.41797-2.4609l4.1836-4.1836c0.23828-0.23828 0.40625-0.54297 0.44141-0.87891 0.046874-0.45312-0.11328-0.88281-0.4375-1.1914-0.55469-0.51953-1.4648-0.48047-2.0352 0.089844z"/>
  <path d="m84.172 24.238c-0.074219-0.027343-0.14844-0.042969-0.22656-0.042969-0.26172 0-0.50391 0.16406-0.59766 0.41016-0.59375 1.5547-1.875 2.793-3.457 3.3516 0.69141-0.87891 1.1953-1.8984 1.4727-2.9609 0.042969-0.16406 0.019531-0.33594-0.066406-0.48438-0.085937-0.14844-0.22656-0.25-0.39062-0.29297-0.050781-0.011719-0.10547-0.019531-0.16016-0.019531-0.28906 0-0.54688 0.19531-0.61719 0.48047-0.33984 1.3125-1.0898 2.5234-2.1172 3.4219-1.0273-0.89453-1.7773-2.1094-2.1172-3.4219-0.074219-0.28125-0.32812-0.48047-0.61719-0.48047-0.054688 0-0.10938 0.007812-0.16016 0.019531-0.33984 0.089844-0.54688 0.4375-0.45703 0.77734 0.27344 1.0625 0.78125 2.082 1.4727 2.9648-1.582-0.55859-2.8633-1.7969-3.4609-3.3516-0.09375-0.24609-0.33203-0.41016-0.59766-0.41016-0.078125 0-0.15625 0.015625-0.22656 0.042969-0.32812 0.125-0.49609 0.49609-0.36719 0.82422 0.90234 2.3594 3.1016 4.0898 5.6172 4.4336-4.2383 10.207-13.883 17.359-24.652 18.305 6.8242-4.7891 12.043-14.289 12.207-22.262 2.6445-0.24609 4.957-1.9922 5.9023-4.4688 0.125-0.32812-0.039063-0.69922-0.36719-0.82422-0.074219-0.027344-0.14844-0.042969-0.22656-0.042969-0.26172 0-0.50391 0.16406-0.59766 0.41016-0.59375 1.5547-1.875 2.793-3.4609 3.3516 0.69141-0.87891 1.1953-1.8984 1.4727-2.9648 0.042969-0.16406 0.019531-0.33594-0.066406-0.48438-0.085938-0.14844-0.22656-0.25-0.39062-0.29297-0.050781-0.011718-0.10547-0.019531-0.16016-0.019531-0.28906 0-0.54687 0.19531-0.61719 0.48047-0.33984 1.3125-1.0898 2.5273-2.1172 3.4219-1.0273-0.89453-1.7773-2.1094-2.1172-3.4219-0.074219-0.28125-0.32812-0.48047-0.61719-0.48047-0.054687 0-0.10937 0.007813-0.16016 0.019531-0.33984 0.089844-0.54688 0.4375-0.45703 0.77734 0.27734 1.0625 0.78125 2.082 1.4727 2.9648-1.582-0.55859-2.8633-1.7969-3.4609-3.3516-0.09375-0.24609-0.33594-0.41016-0.59766-0.41016-0.078126 0-0.15234 0.015625-0.22656 0.042969-0.32812 0.125-0.49609 0.49609-0.36719 0.82422 0.94531 2.4727 3.2539 4.2188 5.8945 4.4688-0.17188 8.1016-5.7383 17.684-12.719 21.914v-24.707c2.6406-0.24609 4.9492-1.9922 5.8945-4.4688 0.125-0.32812-0.039062-0.69922-0.37109-0.82422-0.074218-0.027343-0.14844-0.042969-0.22656-0.042969-0.26172 0-0.50391 0.16406-0.59766 0.41016-0.59375 1.5547-1.875 2.793-3.4609 3.3516 0.69141-0.87891 1.1953-1.8984 1.4727-2.9648 0.042969-0.16406 0.019532-0.33594-0.066406-0.48438-0.085938-0.14844-0.22656-0.25-0.39062-0.29297-0.050781-0.011719-0.10547-0.019532-0.16016-0.019532-0.29297 0-0.54688 0.19531-0.61719 0.48047-0.33984 1.3125-1.0898 2.5273-2.1172 3.4219-1.0273-0.89453-1.7773-2.1094-2.1172-3.4219-0.074218-0.28125-0.32812-0.48047-0.61719-0.48047-0.054688 0-0.10938 0.007813-0.16016 0.019532-0.33984 0.089844-0.54687 0.4375-0.45703 0.77734 0.27734 1.0625 0.78125 2.082 1.4727 2.9648-1.582-0.55859-2.8633-1.7969-3.4609-3.3516-0.09375-0.24609-0.33594-0.41016-0.59766-0.41016-0.078125 0-0.15234 0.015626-0.22656 0.042969-0.32812 0.125-0.49609 0.49609-0.36719 0.82422 0.94531 2.4727 3.2578 4.2227 5.9023 4.4688v24.699c-6.4648-4.0156-11.891-13.391-12.672-21.91 2.6211-0.26562 4.9102-2.0078 5.8438-4.4609 0.0625-0.16016 0.054688-0.33203-0.015624-0.48828-0.070313-0.15625-0.19531-0.27344-0.35547-0.33594-0.074219-0.027344-0.14844-0.042968-0.22656-0.042968-0.26172 0-0.50391 0.16406-0.59766 0.41016-0.59375 1.5547-1.875 2.793-3.4609 3.3516 0.69141-0.87891 1.1953-1.8984 1.4727-2.9648 0.042969-0.16406 0.019531-0.33594-0.066407-0.48437-0.085937-0.14844-0.22656-0.25-0.39062-0.29297-0.050782-0.011719-0.10547-0.019531-0.16016-0.019531-0.28906 0-0.54688 0.19531-0.61719 0.48047-0.33984 1.3125-1.0898 2.5273-2.1172 3.4219-1.0273-0.89453-1.7773-2.1094-2.1172-3.4219-0.074219-0.28125-0.32812-0.48047-0.61719-0.48047-0.054687 0-0.10938 0.007812-0.16016 0.019531-0.33984 0.089843-0.54688 0.4375-0.45703 0.77734 0.27734 1.0625 0.78125 2.082 1.4727 2.9648-1.582-0.55859-2.8633-1.7969-3.4609-3.3516-0.09375-0.24609-0.33594-0.41016-0.59766-0.41016-0.078125 0-0.15234 0.015624-0.22656 0.042968-0.32812 0.125-0.49609 0.49609-0.36719 0.82422 0.95312 2.4922 3.2812 4.2422 5.9492 4.4727 0.73438 8.3594 5.8438 17.66 12.207 22.262-10.785-0.92188-20.453-8.082-24.703-18.309 2.5195-0.33984 4.7148-2.0703 5.6172-4.4336 0.0625-0.16016 0.054687-0.33203-0.015625-0.48828-0.070313-0.15625-0.19531-0.27344-0.35547-0.33594-0.074219-0.027344-0.14844-0.042969-0.22656-0.042969-0.26172 0-0.50391 0.16406-0.59766 0.41016-0.59375 1.5547-1.875 2.793-3.4609 3.3516 0.69141-0.87891 1.1953-1.8984 1.4727-2.9648 0.042969-0.16406 0.019531-0.33594-0.066406-0.48438-0.085938-0.14844-0.22656-0.25-0.39062-0.29297-0.050782-0.011718-0.10547-0.019531-0.16016-0.019531-0.29297 0-0.54688 0.19531-0.61719 0.48047-0.33984 1.3125-1.0898 2.5234-2.1172 3.4219-1.0273-0.89453-1.7773-2.1094-2.1172-3.4219-0.074219-0.28125-0.32812-0.48047-0.61719-0.48047-0.054688 0-0.10938 0.007813-0.16016 0.019531-0.33984 0.089844-0.54688 0.4375-0.45703 0.77734 0.27734 1.0625 0.78125 2.082 1.4727 2.9648-1.582-0.55859-2.8633-1.7969-3.4609-3.3516-0.09375-0.24609-0.33594-0.41016-0.59766-0.41016-0.078124 0-0.15625 0.015625-0.22656 0.042969-0.32812 0.125-0.49609 0.49609-0.36719 0.82422 0.97656 2.5508 3.3633 4.3047 6.0977 4.4805 4.5664 11.477 15.73 19.355 27.809 19.629v32.781c0 0.35156 0.28516 0.64062 0.64063 0.64062 0.35156 0 0.64062-0.28516 0.64062-0.64062v-32.781c12.078-0.26563 23.238-8.1406 27.805-19.629 2.7344-0.17578 5.1211-1.9297 6.0977-4.4805 0.070313-0.33594-0.097656-0.70703-0.42578-0.83203z"/>
 </g>
</g></svg>
