<?xml version="1.0" encoding="UTF-8"?>
<svg width="100pt" height="100pt" version="1.1" viewBox="0 0 100 100" xmlns="http://www.w3.org/2000/svg"><g fill="#1C1C1C" stroke="#1C1C1C" stroke-width="2.5" fill-rule="evenodd">
 <g>
  <path d="m60.984 67.078c-0.97266-0.97266-2.1875-1.668-3.5156-2.0117-1.1641-0.30078-2.3906-0.32422-3.5664-0.070312l-3.2812-3.3242-0.007813-17.402 6.1094 6.0508c-0.30469 0.21484-0.58984 0.46094-0.85938 0.72656-0.61328 0.61328-1.0977 1.3281-1.4375 2.1211-0.35156 0.82422-0.52734 1.6953-0.52734 2.5938 0 0.89453 0.17969 1.7695 0.52734 2.5938 0.33984 0.79297 0.82031 1.5078 1.4375 2.1211 0.61328 0.61328 1.3281 1.0977 2.1211 1.4375 0.82422 0.35156 1.6953 0.52734 2.5938 0.52734 0.34766 0 0.62891-0.28125 0.62891-0.62891v-4.957l4.293 2.4805c0.30078 0.17578 0.6875 0.070312 0.85938-0.23047 0.58594-1.0156 0.89453-2.168 0.89453-3.3398 0-0.89453-0.17969-1.7695-0.52734-2.5938-0.33984-0.79297-0.82031-1.5078-1.4375-2.1211-0.61328-0.61328-1.3281-1.0977-2.1211-1.4375-0.82422-0.35156-1.6953-0.52734-2.5938-0.52734-0.89453 0-1.7695 0.17969-2.5938 0.52734-0.042969 0.019531-0.089844 0.039063-0.13281 0.058594l-7.2383-7.1758-0.007813-14.598 6.3164 6.2188c-0.55469 0.60547-0.99609 1.2891-1.3203 2.043-0.375 0.88281-0.56641 1.8125-0.56641 2.7734 0 0.96094 0.19141 1.8906 0.56641 2.7734 0.36328 0.85156 0.87891 1.6133 1.5352 2.2734 0.65625 0.65625 1.4219 1.1758 2.2734 1.5352 0.88281 0.375 1.8125 0.56641 2.7734 0.56641 0.34766 0 0.62891-0.28125 0.62891-0.62891v-5.8867h5.8867c0.34766 0 0.62891-0.28125 0.62891-0.62891 0-0.95703-0.19141-1.8906-0.56641-2.7734-0.36328-0.85156-0.87891-1.6133-1.5352-2.2734-0.65625-0.65625-1.4219-1.1758-2.2734-1.5352-0.88281-0.375-1.8125-0.56641-2.7734-0.56641-0.96094 0-1.8906 0.19141-2.7734 0.56641-0.55859 0.23828-1.0781 0.54297-1.5586 0.91016l-7.2422-7.1367v-0.10547c0-1.6602-0.32422-3.2734-0.96484-4.7891-0.62109-1.4648-1.5078-2.7812-2.6328-3.9102-1.1289-1.1289-2.4453-2.0156-3.9062-2.6367-1.5156-0.64062-3.1289-0.96875-4.7891-0.96875-0.34766 0-0.62891 0.28125-0.62891 0.62891s0.28125 0.62891 0.62891 0.62891c6.0859 0 11.039 4.957 11.039 11.047v0.11328l-7.0898 7.2031c-0.50781-0.40234-1.0586-0.73438-1.6562-0.98828-0.88281-0.375-1.8125-0.56641-2.7734-0.56641s-1.8906 0.19141-2.7734 0.56641c-0.85156 0.36328-1.6133 0.87891-2.2734 1.5352-0.65625 0.65625-1.1758 1.4219-1.5352 2.2734-0.375 0.88281-0.56641 1.8125-0.56641 2.7734 0 0.34766 0.28125 0.62891 0.62891 0.62891h5.8867v5.8867c0 0.34766 0.28125 0.62891 0.62891 0.62891 0.95703 0 1.8906-0.19141 2.7734-0.56641 0.85156-0.36328 1.6133-0.87891 2.2734-1.5352 0.65625-0.65625 1.1758-1.4219 1.5352-2.2734 0.375-0.88281 0.56641-1.8125 0.56641-2.7734 0-0.96094-0.19141-1.8906-0.56641-2.7734-0.30469-0.71484-0.71875-1.3711-1.2383-1.9531l6.1758-6.2773 0.011719 14.559-7.1406 7.2148c-0.066406-0.03125-0.13281-0.058594-0.19922-0.089844-0.82422-0.35156-1.6953-0.52734-2.5938-0.52734-0.89453 0-1.7695 0.17969-2.5938 0.52734-0.79297 0.33984-1.5078 0.82031-2.1211 1.4375-0.61328 0.61328-1.0977 1.3281-1.4375 2.1211-0.35156 0.82422-0.52734 1.6953-0.52734 2.5938 0 1.1719 0.30859 2.3242 0.89453 3.3398 0.17578 0.30078 0.55859 0.40234 0.85938 0.23047l4.293-2.4805v4.957c0 0.34766 0.28125 0.62891 0.62891 0.62891 0.89453 0 1.7695-0.17969 2.5938-0.52734 0.79297-0.33984 1.5078-0.82031 2.1211-1.4375 0.61328-0.61328 1.0977-1.3281 1.4375-2.1211 0.35156-0.82422 0.52734-1.6953 0.52734-2.5938 0-0.89453-0.17969-1.7695-0.52734-2.5938-0.33984-0.79297-0.82031-1.5078-1.4375-2.1211-0.25391-0.25391-0.52344-0.48047-0.80469-0.6875l6.0195-6.0742 0.007813 17.395-3.2461 3.3242c-1.1797-0.25781-2.4102-0.23438-3.5859 0.066406-1.3242 0.34375-2.5391 1.0391-3.5156 2.0117-0.97266 0.97266-1.668 2.1875-2.0117 3.5117-0.33203 1.2852-0.32422 2.6445 0.019531 3.9258 0.058594 0.21484 0.22656 0.38672 0.44531 0.44531 0.65234 0.17578 1.3242 0.26172 1.9961 0.26172 0.64844 0 1.2969-0.082031 1.9297-0.24219 1.3242-0.34375 2.5391-1.0391 3.5117-2.0117 0.97266-0.97266 1.668-2.1875 2.0117-3.5156 0.30078-1.1602 0.32422-2.3828 0.074219-3.5547l2.3711-2.4258 0.007812 10.387c-0.94141 0.60938-1.7305 1.4375-2.3047 2.4023-0.65234 1.1094-0.99609 2.375-0.99609 3.668 0 1.293 0.34375 2.5625 0.99609 3.668 0.63281 1.0742 1.5391 1.9727 2.6211 2.5938 0.097656 0.054688 0.20703 0.085938 0.3125 0.085938 0.10937 0 0.21875-0.027344 0.3125-0.085938 1.0781-0.62109 1.9844-1.5195 2.6211-2.5938 0.65234-1.1055 0.99609-2.375 0.99609-3.668 0-1.293-0.34375-2.5586-0.99609-3.668-0.57031-0.96875-1.3633-1.793-2.3047-2.4062l-0.007813-10.398 2.3906 2.4219c-0.25391 1.1797-0.23047 2.4023 0.070313 3.5703 0.34375 1.3242 1.0391 2.5391 2.0117 3.5156 0.97266 0.97266 2.1875 1.668 3.5117 2.0117 0.63281 0.16016 1.2812 0.24219 1.9297 0.24219 0.67188 0 1.3438-0.089844 1.9961-0.26172 0.21484-0.058593 0.38672-0.22656 0.44531-0.44531 0.34375-1.2812 0.35156-2.6406 0.019531-3.9258-0.33594-1.3203-1.0312-2.5352-2.0039-3.5078zm5.0078-11.32c0 0.73828-0.15234 1.4688-0.44531 2.1445l-4.6602-2.6914c-0.19531-0.11328-0.43359-0.11328-0.62891 0-0.19531 0.11328-0.3125 0.32031-0.3125 0.54297v5.3867c-2.6914-0.3125-4.7891-2.6094-4.7891-5.3828 0-2.0312 1.1211-3.8008 2.7773-4.7305 0.0625-0.023438 0.125-0.054688 0.17969-0.097656 0.73828-0.37891 1.5742-0.59375 2.4609-0.59375 2.9883 0.003906 5.418 2.4336 5.418 5.4219zm-21.148 0c0 2.7773-2.0977 5.0703-4.7891 5.3828v-5.3828c0-0.22266-0.12109-0.43359-0.3125-0.54297-0.097657-0.054688-0.20703-0.085938-0.3125-0.085938-0.10938 0-0.21875 0.027344-0.3125 0.085938l-4.6602 2.6914c-0.29297-0.67578-0.44531-1.4062-0.44531-2.1445 0-2.9883 2.4297-5.418 5.418-5.418 0.91406 0 1.7734 0.22656 2.5312 0.62891 0.050781 0.039063 0.10937 0.070313 0.16406 0.09375 1.6211 0.92578 2.7188 2.6836 2.7188 4.6914zm17.336-22.711c3.0352 0 5.5391 2.3086 5.8555 5.2617h-5.8555c-0.34766 0-0.62891 0.28125-0.62891 0.62891v5.8555c-2.9531-0.3125-5.2617-2.8203-5.2617-5.8555 0-1.6914 0.71484-3.2188 1.8633-4.293 0.039062-0.023437 0.074218-0.054687 0.10938-0.089843 0.015625-0.015626 0.03125-0.035157 0.042969-0.050782 1.0352-0.90625 2.3906-1.457 3.875-1.457zm-23.727 11.742v-5.8555c0-0.34766-0.28125-0.62891-0.62891-0.62891h-5.8555c0.3125-2.9531 2.8203-5.2617 5.8555-5.2617 1.5195 0 2.9023 0.57812 3.9492 1.5234 0.023437 0.03125 0.046874 0.058594 0.070312 0.085938 0.035156 0.03125 0.070312 0.0625 0.10938 0.085937 1.0859 1.0664 1.7617 2.5547 1.7617 4.1953-0.003906 3.0352-2.3125 5.543-5.2617 5.8555zm5.5664 27.289c-1.5352 1.5352-3.7539 2.1914-5.8633 1.7539-0.4375-2.1133 0.21484-4.3281 1.7539-5.8633 1.5352-1.5352 3.7539-2.1914 5.8672-1.7539 0.42969 2.1094-0.22656 4.3281-1.7578 5.8633zm8.6562 7.8555c0 2.0039-1.0156 3.8789-2.6719 4.9766-1.6562-1.1016-2.6719-2.9727-2.6719-4.9766s1.0156-3.8789 2.6719-4.9805c1.6523 1.1016 2.6719 2.9766 2.6719 4.9805zm9.1719-6.1055c-2.1133 0.4375-4.3281-0.21484-5.8633-1.7539-1.5352-1.5352-2.1914-3.7539-1.7539-5.8672 2.1133-0.4375 4.332 0.21875 5.8672 1.7539 1.5312 1.543 2.1875 3.7578 1.75 5.8672z"/>
  <path d="m22.266 36.926c-0.58594 0.76172-0.89453 1.6758-0.89453 2.6367 0 2.3945 1.9492 4.3438 4.3438 4.3438 0.19531 0 0.39453-0.015625 0.58984-0.042969 0.078124 2.3242 1.9961 4.1914 4.3398 4.1914 2.3945 0 4.3438-1.9492 4.3438-4.3438 0-0.34766-0.28125-0.62891-0.62891-0.62891s-0.62891 0.28125-0.62891 0.62891c0 1.6992-1.3828 3.0859-3.0859 3.0859-1.6992 0-3.0859-1.3828-3.0859-3.0859 0-0.17969 0.019531-0.35938 0.050781-0.55469 0.039063-0.22266-0.042969-0.44922-0.21484-0.59375s-0.41016-0.1875-0.62109-0.10938c-0.34766 0.12891-0.70313 0.19141-1.0625 0.19141-1.6992 0-3.0859-1.3828-3.0859-3.0859 0-1.3711 0.92188-2.5898 2.2383-2.9648 0.24219-0.070312 0.42188-0.27734 0.45312-0.52734s-0.089844-0.49609-0.30859-0.62109c-0.95312-0.55078-1.5469-1.5742-1.5469-2.6719 0-1.6992 1.3828-3.0859 3.0859-3.0859 1.6992 0 3.0859 1.3828 3.0859 3.0859 0 0.34766 0.28125 0.62891 0.62891 0.62891 0.34766 0 0.62891-0.28125 0.62891-0.62891 0-2.3945-1.9492-4.3438-4.3438-4.3438s-4.3438 1.9492-4.3438 4.3438c0 0.77734 0.20703 1.5391 0.60156 2.2031 0.1875 0.3125 0.41016 0.60547 0.67187 0.86328-0.46484 0.28516-0.87891 0.65234-1.2109 1.0859z"/>
  <path d="m23.359 55.473c0.58984 1.7344 2.2344 2.9414 4.1094 2.9414 2.3945 0 4.3438-1.9492 4.3438-4.3438 0-0.34766-0.28125-0.62891-0.62891-0.62891s-0.62891 0.28125-0.62891 0.62891c0 1.6992-1.3828 3.0859-3.0859 3.0859-1.4688 0-2.7383-1.043-3.0234-2.4844-0.066406-0.33594-0.38281-0.55469-0.71875-0.5-0.1875 0.03125-0.35156 0.046875-0.50781 0.046875-1.6992 0-3.0859-1.3828-3.0859-3.0859 0-1.6992 1.3828-3.0859 3.0859-3.0859 0.34766 0 0.62891-0.28125 0.62891-0.62891 0-0.34766-0.28125-0.62891-0.62891-0.62891-2.3945 0-4.3438 1.9492-4.3438 4.3438 0 2.3945 1.9492 4.3438 4.3438 4.3438 0.042969 0 0.089844 0 0.14062-0.003906z"/>
  <path d="m35.199 66.832c-0.34766 0-0.62891 0.28125-0.62891 0.62891 0 1.6992-1.3828 3.0859-3.0859 3.0859-1.5508 0-2.8633-1.1602-3.0547-2.6992-0.023438-0.19141-0.13281-0.35938-0.29688-0.45703-0.16016-0.10156-0.36328-0.12109-0.54297-0.054687-0.34375 0.125-0.69531 0.1875-1.043 0.1875-1.6992 0-3.0859-1.3828-3.0859-3.0859 0-1.6992 1.3828-3.0859 3.0859-3.0859 0.34766 0 0.62891-0.28125 0.62891-0.62891s-0.28125-0.62891-0.62891-0.62891c-2.3945 0-4.3438 1.9492-4.3438 4.3438s1.9492 4.3438 4.3438 4.3438c0.26172 0 0.52344-0.023438 0.78125-0.070312 0.53906 1.8086 2.2148 3.0977 4.1562 3.0977 2.3945 0 4.3438-1.9492 4.3438-4.3438 0-0.35156-0.28125-0.63281-0.62891-0.63281z"/>
  <path d="m69.738 33.41c0.34766 0 0.62891-0.28125 0.62891-0.62891 0-1.6992 1.3828-3.0859 3.0859-3.0859 1.6992 0 3.0859 1.3828 3.0859 3.0859 0 1.0977-0.59375 2.1172-1.5469 2.6719-0.21875 0.125-0.33984 0.37109-0.30859 0.62109s0.21094 0.45703 0.45312 0.52734c1.3164 0.375 2.2383 1.5938 2.2383 2.9648 0 1.6992-1.3828 3.0859-3.0859 3.0859-0.35937 0-0.71484-0.0625-1.0625-0.19141-0.21094-0.078126-0.44922-0.035157-0.62109 0.10937-0.17188 0.14453-0.25391 0.37109-0.21484 0.59375 0.035156 0.19531 0.050781 0.375 0.050781 0.55469 0 1.6992-1.3828 3.0859-3.0859 3.0859-1.6992 0-3.0859-1.3828-3.0859-3.0859 0-0.34766-0.28125-0.62891-0.62891-0.62891s-0.62891 0.28125-0.62891 0.62891c0 2.3945 1.9492 4.3438 4.3438 4.3438 2.3438 0 4.2578-1.8672 4.3398-4.1914 0.19531 0.027344 0.39063 0.042968 0.58984 0.042968 2.3945 0 4.3438-1.9492 4.3438-4.3438 0-0.96484-0.30859-1.875-0.89453-2.6367-0.33203-0.43359-0.74609-0.80078-1.2109-1.0781 0.25781-0.25781 0.48047-0.54688 0.67187-0.86328 0.39453-0.66406 0.60156-1.4258 0.60156-2.2031 0-2.3945-1.9492-4.3438-4.3438-4.3438s-4.3438 1.9492-4.3438 4.3438c0 0.33984 0.28125 0.62109 0.62891 0.62109z"/>
  <path d="m76.785 46.793c-0.34766 0-0.62891 0.28125-0.62891 0.62891s0.28125 0.62891 0.62891 0.62891c1.6992 0 3.0859 1.3828 3.0859 3.0859 0 1.6992-1.3828 3.0859-3.0859 3.0859-0.15625 0-0.32031-0.015625-0.50781-0.046875-0.33594-0.054687-0.65234 0.16406-0.71875 0.5-0.28516 1.4414-1.5547 2.4844-3.0234 2.4844-1.6992 0-3.0859-1.3828-3.0859-3.0859 0-0.34766-0.28125-0.62891-0.62891-0.62891-0.34766 0-0.62891 0.28125-0.62891 0.62891 0 2.3945 1.9492 4.3438 4.3438 4.3438 1.875 0 3.5195-1.207 4.1094-2.9414 0.046875 0.003907 0.097657 0.003907 0.14453 0.003907 2.3945 0 4.3438-1.9492 4.3438-4.3438-0.007812-2.3945-1.9531-4.3438-4.3477-4.3438z"/>
  <path d="m73.449 60.094c-0.34766 0-0.62891 0.28125-0.62891 0.62891s0.28125 0.62891 0.62891 0.62891c1.6992 0 3.0859 1.3828 3.0859 3.0859 0 1.6992-1.3828 3.0859-3.0859 3.0859-0.35156 0-0.70312-0.0625-1.043-0.1875-0.17969-0.0625-0.37891-0.042969-0.54297 0.054687-0.16016 0.10156-0.27344 0.26953-0.29688 0.45703-0.19141 1.5391-1.5078 2.6992-3.0547 2.6992-1.6992 0-3.0859-1.3828-3.0859-3.0859 0-0.34766-0.28125-0.62891-0.62891-0.62891s-0.62891 0.28125-0.62891 0.62891c0 2.3945 1.9492 4.3438 4.3438 4.3438 1.9414 0 3.6172-1.2891 4.1562-3.0977 0.25781 0.046875 0.51953 0.070313 0.78125 0.070313 2.3945 0 4.3438-1.9492 4.3438-4.3438 0-2.3906-1.9492-4.3398-4.3438-4.3398z"/>
 </g>
</g></svg>
