<?xml version="1.0" encoding="UTF-8"?>
<svg width="100pt" height="100pt" version="1.1" viewBox="0 0 100 100" xmlns="http://www.w3.org/2000/svg"><g fill="#1C1C1C" stroke="#1C1C1C" stroke-width="2.5" fill-rule="evenodd">
 <g>
  <path d="m52.516 78.41c4.0938-7.1836 9.6992-17.707 12.082-23.836 3.3438-8.5977 5.8477-17.492 7.4648-26.508 0.078125-0.42578-0.48828-0.64844-0.72266-0.28125-4.9023 7.75-9.0664 16-12.406 24.586-3.0742 7.9023-5.3594 16.445-7.1406 26.742 0.23438-0.22656 0.47266-0.46094 0.72266-0.70312z"/>
  <path d="m48.145 79.199c-1.7852-10.332-4.0742-18.902-7.1562-26.824-3.3398-8.5859-7.5039-16.836-12.406-24.586-0.23047-0.36719-0.79688-0.14844-0.72266 0.28125 1.6172 9.0156 4.1211 17.91 7.4648 26.508 2.6445 6.793 8.5898 18.031 11.75 23.582 0.37891 0.35938 0.73828 0.70703 1.0703 1.0391z"/>
  <path d="m67.785 75.543c3.0508 1.8594 6.1875 3.6133 9.3828 5.2422 0.38672 0.19531 0.76172-0.28125 0.47656-0.60938-2.1641-2.5039-4.4258-4.9375-6.7578-7.2812-0.26562-0.26953-0.6875-0.30859-1-0.09375-0.69141 0.47266-1.4023 0.94141-2.1211 1.4102-0.48047 0.31641-0.47266 1.0312 0.019531 1.332z"/>
  <path d="m29.113 72.898c-2.332 2.3398-4.5938 4.7773-6.7578 7.2812-0.28516 0.32812 0.089843 0.80469 0.47656 0.60937 3.1914-1.6289 6.3281-3.3828 9.3828-5.2422 0.49219-0.30078 0.5-1.0156 0.019531-1.3281-0.71875-0.46875-1.4297-0.94141-2.1211-1.4102-0.31641-0.21875-0.73438-0.17969-1 0.089844z"/>
  <path d="m49.93 46.902c0.30469 0 0.57031 0.14062 0.75 0.35547 2.0781-0.26562 3.6875-2.043 3.6875-4.1914v-21.586c0-2.332-1.8984-4.2266-4.2266-4.2266-2.332 0-4.2266 1.8984-4.2266 4.2266v21.586c0 2.0195 1.4219 3.707 3.3164 4.125 0.17578-0.17578 0.42578-0.28906 0.69922-0.28906zm3.7109-10.273-1.4102 1.4102c-0.11328 0.11328-0.26562 0.17188-0.41797 0.17188s-0.30078-0.058594-0.41797-0.17188l-1.4102-1.4102c-0.23047-0.23047-0.23047-0.60156 0-0.83203s0.60156-0.23047 0.83203 0l0.99219 0.99219 0.99219-0.99219c0.23047-0.23047 0.60156-0.23047 0.83203 0 0.23828 0.23047 0.23828 0.60156 0.007813 0.83203zm-1.8281-9.125 0.99219-0.99219c0.23047-0.23047 0.60156-0.23047 0.83203 0s0.23047 0.60547 0 0.83203l-1.4102 1.4102c-0.11328 0.11328-0.26562 0.17188-0.41797 0.17188s-0.30078-0.058593-0.41797-0.17188l-1.4102-1.4102c-0.23047-0.23047-0.23047-0.60156 0-0.83203s0.60156-0.23047 0.83203 0zm-5.1719-5.6328c0.23047-0.23047 0.60156-0.23047 0.83203 0l0.99219 0.99219 0.99219-0.99219c0.23047-0.23047 0.60156-0.23047 0.83203 0 0.23047 0.23047 0.23047 0.60547 0 0.83203l-1.4102 1.4102c-0.11328 0.11328-0.26562 0.17188-0.41797 0.17188-0.15234 0-0.30078-0.058594-0.41797-0.17188l-1.4102-1.4102c-0.22266-0.22656-0.22266-0.60156 0.007813-0.83203zm0 9.2852c0.23047-0.23047 0.60156-0.23047 0.83203 0l0.99219 0.99219 0.99219-0.99219c0.23047-0.23047 0.60156-0.23047 0.83203 0 0.23047 0.23047 0.23047 0.60547 0 0.83203l-1.4102 1.4102c-0.11328 0.11328-0.26562 0.17187-0.41797 0.17187-0.15234 0-0.30078-0.058593-0.41797-0.17187l-1.4102-1.4102c-0.22266-0.23047-0.22266-0.60156 0.007813-0.83203zm1.4102 11.523-1.4102-1.4102c-0.23047-0.23047-0.23047-0.60156 0-0.83203s0.60156-0.23047 0.83203 0l0.99219 0.99219 0.99219-0.99219c0.23047-0.23047 0.60156-0.23047 0.83203 0 0.23047 0.23047 0.23047 0.60547 0 0.83203l-1.4102 1.4102c-0.11328 0.11328-0.26562 0.17187-0.41797 0.17187-0.14453 0-0.29297-0.054687-0.41016-0.17187z"/>
  <path d="m49.93 46.902c-0.27344 0-0.51953 0.11328-0.69922 0.29297 0.29297 0.066407 0.59766 0.10156 0.91016 0.10156 0.18359 0 0.36328-0.015625 0.53906-0.039063-0.17969-0.21484-0.44922-0.35547-0.75-0.35547z"/>
  <path d="m50.383 80.414c0.17188-1.0312 0.34766-2.0391 0.53125-3.0391l-0.003906-28.16c0-0.41797-0.34375-0.73828-0.76172-0.73828-0.14063 0-0.26953-0.003906-0.39844-0.015624-0.43359-0.03125-0.80469 0.30078-0.80469 0.73437v27.785c0.20703 1.1211 0.40625 2.2695 0.59766 3.4336z"/>
  <path d="m67.277 72.262h-6.1562c-0.19141 0-0.375 0.074219-0.51172 0.20703-0.83594 0.80859-1.9453 1.8281-3.1094 2.8984-1.3945 1.2812-2.7891 2.5586-4.1484 3.875-0.50781 0.49219-1.0078 1.1992-1.5781 1.5938-0.12109 0.085937-0.25781 0.15234-0.40234 0.21094-0.66797 0.26172-1.5352 0.25781-2.1719 0.13672-1.0156-0.19141-1.4805-0.75391-2.1797-1.4453-1.5156-1.4961-3.0898-2.9336-4.6562-4.375-1.168-1.0742-2.2734-2.0938-3.1094-2.8984-0.13672-0.13281-0.32031-0.20703-0.51172-0.20703h-6.0156c-0.39062 0-0.54297 0.50781-0.21484 0.72266 0.71875 0.47266 1.4531 0.94531 2.1953 1.4102 4.6797 2.9531 9.8867 5.8047 15.102 8.2734 0.21484 0.10156 0.46484 0.10156 0.67578 0 4.6523-2.2109 9.5078-4.9219 14.82-8.2734 0.74219-0.46875 1.4766-0.9375 2.1953-1.4102 0.32031-0.21094 0.16797-0.71875-0.22266-0.71875z"/>
 </g>
</g></svg>
