<?xml version="1.0" encoding="UTF-8"?>
<svg width="100pt" height="100pt" version="1.1" viewBox="0 0 100 100" xmlns="http://www.w3.org/2000/svg"><g fill="#1C1C1C" stroke="#1C1C1C" stroke-width="2.5" fill-rule="evenodd">
 <g>
  <path d="m84.891 64.16c-1.8867-0.30859-3.6953-1.0781-5.2383-2.2305-0.35547-1.7422-1.0312-3.3789-2.0117-4.8633 0.27734-1.9062 1.0117-3.7305 2.125-5.2852 0.16797-0.23438 0.14062-0.55859-0.0625-0.76562-0.20703-0.20312-0.52734-0.23047-0.76562-0.0625-1.5547 1.1133-3.375 1.8477-5.2812 2.125-1.4844-0.98047-3.1211-1.6562-4.8672-2.0156-1.1484-1.5469-1.9219-3.3516-2.2305-5.2383-0.046875-0.28516-0.29297-0.49609-0.58594-0.49609-0.28906 0-0.53516 0.21094-0.58594 0.49609-0.3125 1.8867-1.0859 3.6953-2.2344 5.2383-1.7422 0.35547-3.3789 1.0352-4.8633 2.0156-1.9062-0.28125-3.7266-1.0117-5.2812-2.125-0.23437-0.16797-0.55859-0.14062-0.76562 0.0625-0.20703 0.20312-0.23047 0.52734-0.0625 0.76562 1.1133 1.5547 1.8477 3.3789 2.125 5.2812-0.98047 1.4844-1.6562 3.1211-2.0156 4.8633-1.5469 1.1484-3.3516 1.9219-5.2383 2.2305-0.28516 0.046875-0.49609 0.29297-0.49609 0.58594 0 0.28906 0.21094 0.53906 0.49609 0.58594 1.8867 0.3125 3.6953 1.0859 5.2383 2.2344 0.35938 1.7461 1.0352 3.3828 2.0156 4.8672-0.28125 1.9023-1.0117 3.7227-2.125 5.2773-0.16797 0.23438-0.14063 0.55859 0.0625 0.76562 0.20312 0.20703 0.52734 0.23047 0.76562 0.0625 1.5547-1.1133 3.375-1.8438 5.2812-2.125 1.4844 0.98047 3.1211 1.6562 4.8633 2.0156 1.1484 1.543 1.9219 3.3516 2.2344 5.2383 0.046875 0.28516 0.29297 0.49609 0.58594 0.49609 0.28906 0 0.53906-0.21094 0.58594-0.49609 0.30859-1.8867 1.0781-3.6953 2.2305-5.2383 1.7422-0.35547 3.3789-1.0352 4.8633-2.0156 1.9023 0.28125 3.7266 1.0117 5.2812 2.125 0.23438 0.16797 0.55859 0.14062 0.76562-0.0625 0.20312-0.20703 0.23047-0.52734 0.0625-0.76562-1.1133-1.5547-1.8477-3.375-2.125-5.2812 0.98047-1.4844 1.6562-3.1211 2.0156-4.8672 1.543-1.1484 3.3516-1.9219 5.2383-2.2344 0.28516-0.046875 0.49609-0.29297 0.49609-0.58594 0-0.28516-0.20703-0.53125-0.49609-0.57812zm-6.1367 2.6016c-0.11328 0.089843-0.19531 0.21484-0.21875 0.35938-0.32812 1.7422-1 3.3711-2 4.832-0.082031 0.12109-0.11719 0.26562-0.097656 0.41016 0.17969 1.3984 0.58203 2.7617 1.1836 4.0273-1.2656-0.60156-2.6289-1.0039-4.0273-1.1836-0.14453-0.019531-0.28906 0.015625-0.41016 0.097657-1.4648 1-3.0898 1.6758-4.832 2-0.14062 0.027343-0.26953 0.10547-0.35937 0.21875-0.86328 1.1172-1.543 2.3672-2.0117 3.6875-0.46875-1.3203-1.1484-2.5703-2.0156-3.6875-0.089844-0.11328-0.21484-0.19531-0.35938-0.21875-1.7422-0.32813-3.3711-1-4.832-2-0.097657-0.066407-0.21484-0.10547-0.33594-0.10547-0.027344 0-0.050781 0.003906-0.074219 0.003906-1.3984 0.17969-2.7617 0.58203-4.0273 1.1836 0.60156-1.2656 1.0039-2.625 1.1836-4.0234 0.019531-0.14453-0.015625-0.28906-0.097656-0.41016-1.0039-1.4648-1.6758-3.0898-2.0039-4.8359-0.027344-0.14063-0.10547-0.26953-0.21875-0.35938-1.1172-0.86328-2.3672-1.543-3.6875-2.0156 1.3203-0.46875 2.5703-1.1484 3.6875-2.0117 0.11328-0.089844 0.19531-0.21484 0.21875-0.35938 0.32812-1.7422 1-3.3711 2-4.832 0.082031-0.12109 0.11719-0.26562 0.097656-0.41016-0.17969-1.3984-0.58203-2.7617-1.1836-4.0273 1.2656 0.60156 2.6289 1.0039 4.0273 1.1836 0.14453 0.019532 0.28906-0.015625 0.41016-0.097656 1.4648-1 3.0898-1.6758 4.832-2 0.14063-0.027344 0.26953-0.10547 0.35938-0.21875 0.86328-1.1172 1.543-2.3672 2.0156-3.6875 0.46875 1.3203 1.1484 2.5703 2.0117 3.6875 0.089844 0.11328 0.21484 0.19531 0.35938 0.21875 1.7422 0.32812 3.3711 1 4.832 2.0039 0.12109 0.082032 0.26562 0.11719 0.41016 0.097656 1.3984-0.17969 2.7656-0.58203 4.0312-1.1836-0.60156 1.2695-1.0039 2.6328-1.1836 4.0312-0.019531 0.14453 0.015625 0.28906 0.097656 0.41016 1 1.4609 1.6719 3.0898 1.9961 4.8281 0.027344 0.14062 0.10547 0.26953 0.21875 0.35938 1.1172 0.86328 2.3672 1.543 3.6875 2.0117-1.3203 0.46875-2.5664 1.1484-3.6836 2.0156z"/>
  <path d="m64.062 71.957c-0.5625 0.32422-1.0898 0.71484-1.5547 1.1602-0.015624-0.64453-0.10937-1.293-0.28125-1.9219-0.085937-0.31641-0.41016-0.50391-0.72656-0.41406-0.31641 0.085938-0.50391 0.41016-0.41406 0.72656 0.29687 1.1016 0.32031 2.2656 0.0625 3.3633-0.066407 0.28125 0.082031 0.57031 0.35156 0.68359 0.074219 0.03125 0.14844 0.046874 0.22656 0.046874 0.19922 0 0.39063-0.10156 0.50391-0.28125 0.59766-0.96094 1.4375-1.7695 2.4258-2.3359 0.28516-0.16016 0.38281-0.52344 0.21875-0.80859-0.16406-0.28516-0.52734-0.38281-0.8125-0.21875z"/>
  <path d="m59.527 68.492c-0.62891-0.17188-1.2773-0.26563-1.9258-0.28125 0.44531-0.46875 0.83984-0.99219 1.1602-1.5586 0.16016-0.28516 0.0625-0.64453-0.21875-0.80859-0.28516-0.16016-0.64453-0.0625-0.80859 0.21875-0.56641 0.98828-1.375 1.8281-2.3359 2.4258-0.24609 0.15234-0.34766 0.46094-0.23438 0.73047 0.10938 0.26953 0.39844 0.41406 0.68359 0.35156 1.1016-0.25781 2.2695-0.23437 3.3672 0.066407 0.050781 0.015625 0.10547 0.019531 0.15625 0.019531 0.26172 0 0.5-0.17578 0.57031-0.4375 0.085938-0.3125-0.097656-0.64062-0.41406-0.72656z"/>
  <path d="m55.402 60.996c0.96094 0.59766 1.7695 1.4375 2.3359 2.4258 0.10938 0.19141 0.30859 0.29688 0.51562 0.29688 0.10156 0 0.20312-0.027344 0.29297-0.078125 0.28516-0.16016 0.38281-0.52344 0.21875-0.80859-0.32422-0.56641-0.71484-1.0898-1.1602-1.5586 0.64844-0.015626 1.293-0.10938 1.9219-0.28125 0.31641-0.085938 0.50391-0.41016 0.41406-0.72656-0.085937-0.31641-0.41016-0.50391-0.72656-0.41406-1.1016 0.29688-2.2656 0.32031-3.3672 0.0625-0.28125-0.066406-0.57031 0.082032-0.68359 0.35156-0.10937 0.26953-0.007812 0.58203 0.23828 0.73047z"/>
  <path d="m64.652 56.508c-0.98828-0.56641-1.8281-1.375-2.4258-2.3359-0.15234-0.24609-0.46094-0.34766-0.73047-0.23438-0.26953 0.10938-0.41406 0.39844-0.35156 0.68359 0.25781 1.1016 0.23438 2.2695-0.066406 3.3672-0.085937 0.31641 0.10156 0.64062 0.41406 0.72656 0.050781 0.015625 0.10547 0.019531 0.15625 0.019531 0.26172 0 0.5-0.17578 0.57031-0.4375 0.17188-0.62891 0.26562-1.2773 0.28125-1.9258 0.46875 0.44531 0.99219 0.83984 1.5586 1.1602 0.28516 0.16016 0.64453 0.0625 0.80859-0.21875 0.16797-0.28125 0.070312-0.64062-0.21484-0.80469z"/>
  <path d="m70.801 54.621c0.066407-0.28125-0.082031-0.57031-0.35156-0.68359-0.26953-0.10938-0.57422-0.011719-0.73047 0.23438-0.59766 0.96094-1.4375 1.7695-2.4258 2.3359-0.28516 0.16016-0.38281 0.52344-0.21875 0.80859 0.16016 0.28516 0.52344 0.38281 0.80859 0.21875 0.56641-0.32422 1.0898-0.71484 1.5586-1.1602 0.015625 0.64844 0.10938 1.2969 0.28125 1.9258 0.070313 0.26562 0.30859 0.4375 0.57031 0.4375 0.050781 0 0.10547-0.007812 0.15625-0.019531 0.31641-0.085938 0.50391-0.41016 0.41406-0.72656-0.29688-1.1055-0.32031-2.2695-0.0625-3.3711z"/>
  <path d="m72.422 60.996c0.62891 0.17188 1.2773 0.26562 1.9219 0.28125-0.44531 0.46875-0.83984 0.99219-1.1602 1.5586-0.16016 0.28516-0.0625 0.64453 0.21875 0.80859 0.09375 0.054688 0.19531 0.078125 0.29297 0.078125 0.20703 0 0.40625-0.10938 0.51563-0.29688 0.56641-0.98828 1.375-1.8281 2.3359-2.4297 0.24609-0.15234 0.34766-0.46094 0.23438-0.73047s-0.39844-0.41406-0.68359-0.35156c-1.1016 0.25781-2.2656 0.23438-3.3672-0.0625-0.31641-0.085937-0.64062 0.10156-0.72656 0.41406-0.082031 0.32031 0.10156 0.64453 0.41797 0.73047z"/>
  <path d="m76.547 68.492c-0.96094-0.59766-1.7695-1.4375-2.3359-2.4258-0.16016-0.28516-0.52344-0.38281-0.80859-0.21875-0.28516 0.16016-0.38281 0.52344-0.21875 0.80859 0.32422 0.56641 0.71484 1.0898 1.1602 1.5586-0.64844 0.015625-1.293 0.10938-1.9219 0.28125-0.31641 0.085937-0.50391 0.41016-0.41406 0.72656 0.070313 0.26562 0.30859 0.4375 0.57031 0.4375 0.050781 0 0.10547-0.007812 0.15625-0.019531 1.1016-0.29688 2.2656-0.32031 3.3672-0.066406 0.28125 0.066406 0.57031-0.082031 0.68359-0.35156 0.10547-0.26953 0.007813-0.57812-0.23828-0.73047z"/>
  <path d="m70.449 70.777c-0.31641-0.085938-0.64062 0.10156-0.72656 0.41406-0.17188 0.62891-0.26562 1.2773-0.28125 1.9258-0.46875-0.44531-0.99219-0.83984-1.5586-1.1602-0.28516-0.16016-0.64453-0.0625-0.80859 0.21875-0.16016 0.28516-0.0625 0.64453 0.21875 0.80859 0.98828 0.56641 1.8281 1.375 2.4297 2.3359 0.11328 0.17969 0.30469 0.28125 0.50391 0.28125 0.074219 0 0.15234-0.015624 0.22656-0.046874 0.26953-0.11328 0.41406-0.39844 0.35156-0.68359-0.25781-1.1016-0.23438-2.2656 0.0625-3.3672 0.085937-0.3125-0.10156-0.64062-0.41797-0.72656z"/>
  <path d="m41.711 20.434c1.0469-1.5586 1.9883-2.6328 2.4961-3.1719 0.5 0.53125 1.4297 1.5898 2.4727 3.1367 1.4375 2.1328 3.375 5.6406 4.4453 10.23 1.2031 5.2031-0.88281 13.613-1.5508 16.066-0.27734 1.0117-0.20703 1.8281 0.20312 2.4375 0.49219 0.72656 1.2656 0.83594 1.3516 0.84375 0.28125 0.03125 0.54297-0.13672 0.62891-0.40625 0.003907-0.015624 0.45703-1.3828 1.5273-3.1602 0.98828-1.6406 2.7188-3.9648 5.3359-5.6875 2.6641-1.7578 5.0664-2.918 6.6094-3.582 0.80859-0.34766 1.4727-0.60156 1.9453-0.76562-0.078125 1.3516-0.28906 4.1133-0.74219 6.8945-0.050782 0.32031 0.16406 0.62891 0.48828 0.67969s0.62891-0.16406 0.67969-0.48828c0.64453-3.9531 0.80078-7.8594 0.80078-7.8984 0.007812-0.19141-0.078125-0.37109-0.22656-0.48828-0.14844-0.11719-0.34766-0.15625-0.52734-0.10547-0.046876 0.011719-1.125 0.32422-2.8633 1.0703-1.5977 0.68359-4.0742 1.8789-6.8203 3.6914-1.2383 0.81641-2.3945 1.8203-3.4375 2.9883-0.82812 0.92969-1.5938 1.9648-2.2617 3.0742-0.71094 1.1797-1.1641 2.1875-1.4102 2.793-0.039063-0.039063-0.078125-0.082032-0.11328-0.13672-0.19922-0.30469-0.21094-0.80469-0.035157-1.4492 0.36719-1.3516 1.0508-4.0664 1.5039-7.0859 0.59375-3.9531 0.61328-7.168 0.058593-9.5586-0.48828-2.1055-1.1953-4.168-2.0977-6.1328-0.72266-1.5703-1.5664-3.0859-2.5195-4.4922-1.625-2.4102-2.9805-3.6875-3.0391-3.7383-0.10938-0.10156-0.25391-0.16016-0.40234-0.16016h-0.027344c-0.14844 0-0.29297 0.054688-0.40234 0.15625-0.054688 0.054688-1.4102 1.3242-3.0391 3.7383-0.94922 1.4102-1.7969 2.9258-2.5195 4.4922-0.89844 1.9648-1.6055 4.0273-2.0938 6.1328-0.55469 2.3906-0.53516 5.6094 0.054688 9.5586 0.45312 3.0234 1.1367 5.7383 1.5039 7.0898 0.17578 0.64062 0.16406 1.1445-0.035156 1.4492-0.035156 0.054687-0.074219 0.097656-0.11719 0.13672-0.24609-0.60938-0.69922-1.6172-1.4102-2.793-0.66797-1.1094-1.4297-2.1445-2.2617-3.0742-1.043-1.168-2.1992-2.1758-3.4375-2.9883-2.7461-1.8125-5.2266-3.0078-6.8203-3.6914-1.7383-0.74609-2.8164-1.0586-2.8633-1.0703-0.18359-0.050781-0.37891-0.015625-0.52734 0.10156-0.14844 0.11719-0.23438 0.29688-0.22656 0.48828 0.003907 0.027344 0.11328 2.8867 0.54688 6.1719 0.58984 4.4648 1.4688 7.5625 2.6172 9.2031 1.4102 2.0156 3.3711 3.5625 4.7695 4.5078 1.0781 0.72656 1.9844 1.2148 2.4297 1.4375 0.011719 0.10547 0.023438 0.20703 0.03125 0.30078-0.25781-0.078126-0.54687-0.16797-0.84766-0.26172-0.97656-0.30469-1.9883-0.61719-2.4883-0.70703-1.7227-0.31641-3.3281-0.41016-4.7773-0.27344-1.7383 0.16406-3.3008 0.66016-4.6406 1.4805-0.76172 0.46875-1.3789 1.0703-1.9766 1.6484-0.28906 0.28125-0.5625 0.55078-0.85547 0.80469-0.19531 0.17188-0.25781 0.45312-0.14844 0.69141 0.023437 0.050781 0.57031 1.2461 1.7891 2.6602 0.71094 0.82812 1.5117 1.5625 2.3711 2.1875 1.0781 0.78125 2.2578 1.3828 3.5078 1.7891 2.1406 0.69922 4.3398 1.0703 6.3594 1.0703h0.078125c1.1953-0.007812 2.332-0.14062 3.3711-0.39844-0.48828 0.70312-0.89062 1.4102-1.207 2.1172-0.45312 1.0195-0.60938 2.1133-0.47656 3.3438 0.11328 1.0703 0.4375 2.1406 0.75391 3.1445 0.035157 0.10938 0.26563 0.79297 0.50391 1.457 0.14062 0.39062 0.25781 0.70312 0.35156 0.92969 0.058594 0.14453 0.10547 0.25391 0.14453 0.33594 0.054688 0.10938 0.21875 0.44141 0.60547 0.44141 0.089844 0 0.14453 0 0.79297-0.24609 0.34375-0.12891 0.87891-0.34375 1.5039-0.63281 1.6094-0.74609 2.957-1.5977 4.0117-2.5234 0.83594-0.73438 1.6406-1.9141 2.4609-3.6094 0.28125-0.57812 0.53516-1.1641 0.76172-1.7109v12.641c0 0.32812 0.26562 0.59375 0.59375 0.59375 0.32422 0 0.59375-0.26562 0.59375-0.59375v-15.754c0.003907-0.046876-0.003906-0.089844-0.011719-0.13281v-0.003906c-0.003906-0.007813-0.003906-0.019531-0.007812-0.027344 0-0.003906 0-0.003906-0.003906-0.007813-0.003906-0.007812-0.003906-0.015624-0.007813-0.023437 0-0.003906-0.003906-0.003906-0.003906-0.007813-0.003906-0.007812-0.003906-0.015624-0.007813-0.019531 0-0.003906-0.003906-0.003906-0.003906-0.007812-0.003906-0.007813-0.007812-0.015625-0.007812-0.019531 0-0.003907-0.003906-0.003907-0.003906-0.007813-0.003907-0.007813-0.007813-0.015625-0.011719-0.019531 0-0.003906-0.003907-0.003906-0.003907-0.003906-0.003906-0.007813-0.007812-0.015626-0.011718-0.023438 0 0 0-0.003906-0.003906-0.003906-0.003907-0.007813-0.007813-0.015625-0.015626-0.023438-0.015624-0.023437-0.03125-0.046875-0.050781-0.070312-0.007812-0.007813-0.011719-0.015625-0.019531-0.019532l-0.003906-0.003906c-0.007813-0.007812-0.011719-0.011718-0.015625-0.015625-0.003907-0.003906-0.003907-0.003906-0.007813-0.007812-0.003906-0.003907-0.011718-0.007813-0.015625-0.015625-0.003906-0.003906-0.007812-0.007813-0.011719-0.007813-0.003906-0.003906-0.007812-0.007812-0.011718-0.007812-0.003906-0.003907-0.011719-0.007813-0.015625-0.011719-0.003907-0.003906-0.003907-0.003906-0.007813-0.003906-0.007812-0.007813-0.015625-0.011719-0.019531-0.015625l-0.003906-0.003907c-0.097657-0.066406-0.21484-0.10937-0.33984-0.10937-0.21484 0-0.40625 0.11719-0.50781 0.28906-0.097656 0.15234-0.19531 0.40625-0.44531 1.0859-0.64062 1.7227-1.9805 5.3125-3.6406 6.7773-1.793 1.5742-4.207 2.5859-5.2188 2.9609-0.26562-0.67969-0.71094-1.9727-0.77734-2.1875 0-0.003907 0-0.003907-0.003906-0.003907-0.66797-2.1094-1.1172-3.8633-0.32422-5.6523 0.50781-1.1445 1.2812-2.3008 2.3047-3.4375 0.1875-0.21094 0.20312-0.52344 0.035156-0.75-0.16797-0.22656-0.47266-0.30078-0.72656-0.17969-2.7656 1.3164-6.8516 1.3047-10.926-0.027343-2.5508-0.83594-4.3008-2.4141-5.3203-3.5938-0.72266-0.83984-1.1953-1.5977-1.4375-2.0312 0.19141-0.17969 0.375-0.35938 0.55469-0.53516 0.57422-0.5625 1.1211-1.0938 1.7695-1.4883 2.1992-1.3477 5.0859-1.6992 8.582-1.0508 0.43359 0.078125 1.4961 0.41016 2.3516 0.67578 0.66016 0.20703 1.2344 0.38281 1.5703 0.46875 0.003906 0 0.003906 0.003906 0.007812 0.003906 0.20703 0.050782 0.42578-0.007812 0.57812-0.15234 0.26172-0.24219 0.28125-0.61719 0.22656-1.2617-0.03125-0.35938-0.082031-0.69141-0.085938-0.70703-0.03125-0.19922-0.15625-0.36719-0.33984-0.44922-0.042969-0.019532-4.5156-2.1094-7.0234-5.6953-2.0898-2.9922-2.7422-11.203-2.9023-13.883 1.4609 0.51953 4.7578 1.8438 8.5586 4.3477 2.6055 1.7188 4.3281 4.0273 5.3164 5.6562 1.0781 1.7852 1.5391 3.1797 1.543 3.1914 0.089844 0.26953 0.35156 0.4375 0.62891 0.40625 0.085938-0.011719 0.86328-0.11719 1.3555-0.84375 0.41016-0.60938 0.48047-1.4258 0.20703-2.4375-0.66797-2.4531-2.7539-10.867-1.5469-16.066 1.1016-4.5508 3.0273-8.0469 4.457-10.176z"/>
  <path d="m50.078 75.355c-1.668-1.4688-3.0039-5.0625-3.6445-6.793-0.26953-0.71875-0.35938-0.95703-0.46094-1.1055-0.070312-0.10547-0.17188-0.17969-0.28125-0.21875-0.003906 0-0.003906-0.003906-0.007812-0.003906-0.007813-0.003906-0.011719-0.003906-0.019532-0.007813-0.003906-0.003906-0.007812-0.003906-0.011718-0.003906-0.003906-0.003906-0.007813-0.003906-0.011719-0.003906-0.007813-0.003906-0.011719-0.003906-0.019531-0.003906-0.003906 0-0.003906-0.003906-0.007813-0.003906-0.007812-0.003907-0.015625-0.003907-0.023437-0.003907h-0.003906c-0.035157-0.007812-0.070313-0.011719-0.10547-0.011719-0.32812 0-0.59375 0.26563-0.59375 0.59375v15.77c0 0.32812 0.26562 0.59375 0.59375 0.59375 0.32422 0 0.59375-0.26562 0.59375-0.59375v-12.641c0.76562 1.8633 1.8711 4.1289 3.2188 5.3164 0.11328 0.10156 0.25391 0.14844 0.39062 0.14844 0.16406 0 0.32812-0.066406 0.44531-0.19922 0.22266-0.23828 0.19531-0.61328-0.050781-0.82812z"/>
 </g>
</g></svg>
