<?xml version="1.0" encoding="UTF-8"?>
<svg width="100pt" height="100pt" version="1.1" viewBox="0 0 100 100" xmlns="http://www.w3.org/2000/svg"><g fill="#1C1C1C" stroke="#1C1C1C" stroke-width="2.5" fill-rule="evenodd">
 <g>
  <path d="m47.062 51.852c0-0.015624 0.003906-0.027343 0.003906-0.039062 0.09375-0.48047 0.023438-0.97656-0.28125-1.3555-1.0703-1.3242-2.7773-0.90234-3.3281 0.29297-0.10156 0.21875-0.32812 0.35547-0.56641 0.34375-0.24219-0.011719-0.45312-0.17188-0.53125-0.39844l-0.28516-0.83594c-0.32031-0.9375-1.293-1.543-2.2578-1.3164-1.1055 0.26172-1.7227 1.4141-1.3633 2.4609l0.31641 0.92188c0.078125 0.23047 0.007813 0.48438-0.17578 0.64062s-0.44531 0.1875-0.66016 0.074219c-0.27734-0.14453-0.57812-0.21484-0.87891-0.21484-0.51172 0-1.0195 0.20312-1.3867 0.58984-0.34766 0.36719-0.53516 0.84766-0.51953 1.3555 0.015624 0.50781 0.22266 0.97656 0.59375 1.3281l9.2812 9.7305c0.23437 0.24219 0.64453 0.10156 0.67969-0.23047z"/>
  <path d="m35.414 22.824c0.082032-0.082031 0.17969-0.14062 0.28125-0.17578 0.070313-0.18359 0.11328-0.38281 0.11328-0.59375 0-0.92578-0.75-1.6758-1.6758-1.6758-0.92578 0-1.6758 0.75391-1.6758 1.6758 0 0.92578 0.75391 1.6758 1.6758 1.6758 0.39844 0 0.76172-0.14453 1.0508-0.37891 0.007812-0.19141 0.082031-0.38281 0.23047-0.52734z"/>
  <path d="m34.938 34.594c-0.95312-0.80078-2.4727-0.50391-2.9961 0.75781-0.24219 0.58594-0.12109 1.2422 0.21094 1.7812 0.12109 0.19922 0.11719 0.44922-0.015625 0.64453-0.13672 0.19922-0.38281 0.29688-0.61719 0.24609l-0.94922-0.21094c-0.13672-0.03125-0.27734-0.046875-0.41406-0.046875-0.35547 0-0.70703 0.10156-1.0156 0.29688-0.42578 0.27344-0.72266 0.69531-0.83203 1.1914-0.12891 0.57422 0.015625 1.1641 0.39844 1.6289 0.28125 0.33984 0.68359 0.55469 1.1172 0.64844l0.87891 0.19531c0.23828 0.050782 0.41797 0.24219 0.45703 0.48438 0.039063 0.23047-0.0625 0.46094-0.25781 0.58984-0.52734 0.35156-0.91797 0.89062-0.94531 1.5273-0.0625 1.3672 1.1875 2.2734 2.3906 1.9531l13.141-2.8477c0.32812-0.070313 0.42188-0.49609 0.15625-0.69922l-10.684-8.1172-0.023438-0.023438z"/>
  <path d="m62.18 32.043c1.0234-0.77734 1.0586-2.3242-0.066407-3.1094-0.51953-0.36328-1.1797-0.375-1.7812-0.17969-0.21875 0.070313-0.46094 0.011719-0.61719-0.15625-0.16406-0.17578-0.20703-0.4375-0.10156-0.65625l0.38281-0.8125c0.1875-0.39844 0.26562-0.85156 0.16797-1.2812-0.13281-0.58594-0.51562-1.0625-1.0469-1.3125-0.53516-0.25-1.1445-0.24609-1.6797 0.027344-0.39453 0.19922-0.69141 0.55078-0.87891 0.94922l-0.38281 0.8125c-0.10156 0.21875-0.32812 0.35156-0.57031 0.33984-0.24219-0.015624-0.44922-0.17578-0.52734-0.40625-0.25781-0.77734-0.99609-1.3047-1.8086-1.3047h-0.074219c-1.043 0.042969-1.8594 0.92969-1.8164 1.9766v0.027343l-0.11719 13.418c-0.003907 0.33594 0.39062 0.52344 0.64844 0.30469z"/>
  <path d="m79.418 48.973c0 2.2344-3.3516 2.2344-3.3516 0 0-2.2383 3.3516-2.2383 3.3516 0"/>
  <path d="m75.336 36.238c0.42578-0.32422 0.6875-0.76953 0.75781-1.2734 0.13281-0.94922-0.45312-1.8906-1.5938-2.1914-0.31641-0.085938-0.64062 0.003906-0.9375 0.14453-0.23828 0.11328-0.51562 0.058593-0.69141-0.12891-0.16406-0.17578-0.20703-0.4375-0.10156-0.65625l0.37891-0.80469c0.42187-0.89844 0.14453-2.0078-0.70703-2.5117-0.97656-0.58203-2.2227-0.18359-2.6914 0.82031l-0.41406 0.88281c-0.10156 0.21875-0.33203 0.35547-0.57031 0.33984-0.24219-0.015625-0.44922-0.17578-0.52734-0.40625-0.25781-0.77734-0.99609-1.3047-1.8086-1.3047h-0.074219c-1.043 0.042968-1.8594 0.92969-1.8164 1.9766v0.03125l-0.11719 13.418c-0.003906 0.33594 0.39062 0.52344 0.64844 0.30469z"/>
  <path d="m67.926 63.207c0.019531 0.019531 0.039063 0.042969 0.050781 0.066407 0.18359 0.30469 0.45313 0.56641 0.80469 0.62109 1.957 0.3125 2.9219-1.3828 2.3477-2.668-0.097656-0.22266-0.054687-0.48047 0.11328-0.65234 0.16797-0.17188 0.42578-0.22656 0.64844-0.13672l0.81641 0.33594c0.50391 0.20703 1.0742 0.23437 1.5703 0.015624 0.46484-0.20703 0.82422-0.58203 1.0078-1.0625 0.36328-0.95312-0.18359-2.0742-1.1289-2.4648l-0.82422-0.33984c-0.22266-0.09375-0.37109-0.3125-0.36719-0.55469 0.003906-0.23438 0.14453-0.44531 0.35547-0.53906 0.58203-0.25 1.0547-0.72656 1.1914-1.3438 0.29297-1.332-0.79297-2.4414-2.0234-2.3281l-13.438 0.5625c-0.33594 0.015625-0.5 0.41797-0.27344 0.66406z"/>
  <path d="m28.039 56.777c0-0.92578-0.75-1.6758-1.6758-1.6758s-1.6758 0.75-1.6758 1.6758c0 0.92578 0.75391 1.6758 1.6758 1.6758 0.92188 0.003906 1.6758-0.75 1.6758-1.6758z"/>
  <path d="m80.012 41.234c-0.87891 0-1.5938 0.68359-1.6641 1.5469 0.082032 0.097656 0.14062 0.21094 0.16797 0.34375 0.03125 0.15625 0.015625 0.3125-0.042969 0.45312 0.25781 0.59375 0.84766 1.0117 1.5352 1.0117 0.92578 0 1.6758-0.75 1.6758-1.6758 0.003906-0.92578-0.75-1.6797-1.6719-1.6797z"/>
  <path d="m21.434 60.57c0.023437-0.17578 0.10547-0.32812 0.21875-0.44531-0.066406-0.86719-0.78125-1.5547-1.6641-1.5547-0.92578 0-1.6758 0.75-1.6758 1.6758 0 0.92578 0.75391 1.6758 1.6758 1.6758 0.66016 0 1.2305-0.39062 1.5039-0.94922-0.054688-0.12109-0.078126-0.26172-0.058594-0.40234z"/>
  <path d="m35 30.457c0.92578 0 1.6758-0.75 1.6758-1.6758s-0.75-1.6758-1.6758-1.6758-1.6758 0.75391-1.6758 1.6758 0.75391 1.6758 1.6758 1.6758z"/>
  <path d="m19.898 68.168c-1.4688 0.24609-2.2656 2.1211-0.83984 3.4609 0.23438 0.21875 0.55859 0.29297 0.87891 0.29688 0.26953 0.003907 0.49609 0.18359 0.56641 0.4375 0.0625 0.23438-0.019531 0.48047-0.21484 0.62891l-0.77734 0.58594c-0.59375 0.44922-0.90625 1.207-0.71875 1.9297 0.37109 1.4375 1.9648 1.8867 3.0039 1.1055l0.77734-0.58594c0.10547-0.078125 0.23047-0.12109 0.35547-0.12109 0.10547 0 0.21094 0.027344 0.30469 0.085938 0.23047 0.14062 0.33984 0.42187 0.25781 0.68359-0.09375 0.29688-0.082032 0.62109 0.054687 0.90234 0.52734 1.0625 1.5703 1.4453 2.4766 1.1211 0.47656-0.17188 0.85937-0.51562 1.0781-0.97656l6.3555-11.852c0.16016-0.29688-0.10156-0.64453-0.43359-0.57031l-13.105 2.8672c0-0.003907-0.007813 0-0.019531 0z"/>
  <path d="m44.977 25.148c0-0.92578-0.75391-1.6758-1.6758-1.6758-0.92578 0-1.6758 0.75-1.6758 1.6758 0 0.92578 0.75 1.6758 1.6758 1.6758 0.92188 0 1.6758-0.75 1.6758-1.6758z"/>
  <path d="m35.18 23.352c0.22656-0.18359 0.40625-0.42578 0.51172-0.70312-0.10156 0.039062-0.19922 0.09375-0.28125 0.17578-0.14453 0.14453-0.21875 0.33594-0.23047 0.52734z"/>
  <path d="m78.516 43.125c-0.027344-0.13281-0.085937-0.24609-0.16797-0.34375-0.003906 0.042969-0.011718 0.085938-0.011718 0.12891 0 0.23828 0.050781 0.46094 0.14062 0.66406 0.054688-0.13672 0.070313-0.29297 0.039063-0.44922z"/>
  <path d="m77.277 43.746c-0.058594-0.1875-0.074219-0.37891-0.125-0.56641-0.035156-0.12891-0.027344-0.29297-0.125-0.39063-0.050782-0.046874-0.11719-0.074218-0.1875-0.082031-0.29688-0.039062-0.65625 0.10547-0.94531 0.17188-1.3555 0.3125-2.7031 0.66406-4.0391 1.0586-3.3867 1-6.7148 2.2891-9.8984 3.8242-0.38281 0.18359-0.76172 0.37109-1.1367 0.5625-0.74609 0.37891-1.4844 0.76953-2.2188 1.1758-1.0039 0.55469-1.9883 1.1406-2.9609 1.7461-0.74609 0.46484-1.4805 0.94922-2.2109 1.4414-0.33984-1.3242-0.72266-2.6406-1.1445-3.9414-0.30078-0.92969-0.62109-1.8516-0.96484-2.7656-0.47266-1.2656-1-2.4922-1.5508-3.7266-1.5391-3.4648-3.3633-6.7773-5.4844-9.9258-2.1133-3.1367-4.4961-6.0898-7.1094-8.8242-0.18359-0.19141-0.48828-0.14453-0.62891 0.078125-0.125 0.19531-0.26953 0.37109-0.43359 0.53125-0.15625 0.14844-0.16016 0.39453-0.011719 0.55078 2.6016 2.7305 4.9688 5.6836 7.0586 8.8203 2.1055 3.1602 3.8984 6.5 5.4492 9.957 0.81641 1.6328 1.3867 3.4375 1.9688 5.168 0.60938 1.8125 1.1367 3.6523 1.5781 5.5117 0.003906 0.027344 0.011719 0.054687 0.019531 0.082031 1.1562 4.8633 1.75 9.8945 1.75 15.016 0 1.3789-0.007812 2.5234-0.046875 3.5977-0.51562-0.39062-1.0391-0.77734-1.5664-1.1523-0.93359-0.66797-1.8867-1.3086-2.8555-1.9297-2.4727-1.5781-5.1016-2.9883-7.7383-4.2344-2.8906-1.3672-5.9141-2.4922-8.9805-3.4023-1.5508-0.46094-3.1172-0.86719-4.6953-1.2109-0.79297-0.17188-1.5859-0.33203-2.3867-0.47656-0.78125-0.14062-1.5859-0.21094-2.3594-0.38281-0.035156-0.007813-0.066406-0.011719-0.10156-0.015625-0.17578 0.003906-0.31641 0.12109-0.34766 0.28125 0 0.046875-0.003906 0.078125-0.003906 0.10938-0.011719 0.20312-0.042969 0.39062-0.089844 0.57422-0.039062 0.14453-0.082031 0.29688 0.003906 0.43359 0.125 0.19531 0.41406 0.19141 0.61719 0.21875 0.76953 0.11328 1.5352 0.24219 2.3008 0.38672 0.76172 0.14062 1.5234 0.29688 2.2773 0.46484s1.5078 0.35156 2.2539 0.54688c0.375 0.097656 0.74609 0.19922 1.1172 0.30469 2.957 0.78906 5.7812 1.8867 8.5703 3.1055 1.8047 0.78906 3.6914 1.5898 5.3633 2.6328 0.03125 0.019532 0.058594 0.03125 0.085938 0.046876 2.9531 1.6484 5.7812 3.5352 8.4102 5.6055-0.10156 1.2148-0.26562 2.4531-0.52734 3.9688-0.074218 0.42969 0.21484 0.83594 0.64453 0.91016 0.042968 0.007813 0.089844 0.011719 0.13281 0.011719 0.37891 0 0.71094-0.26953 0.77734-0.65625 0.64844-3.7148 0.71484-5.8242 0.71484-9.7461 0-5.0742-0.57031-10.062-1.6758-14.891-0.023437-0.10547 1.293-0.87109 1.4492-0.97656 0.53125-0.34375 1.0664-0.68359 1.6016-1.0195 0.99219-0.61719 1.9766-1.2891 3.0352-1.7617 1.0781-0.48438 2.1055-1.1016 3.1758-1.6094 1.0703-0.50781 2.1562-0.98047 3.2539-1.4297 3.4453-1.3984 7.0117-2.4961 10.641-3.2852 0.24219-0.035156 0.37109-0.26953 0.30078-0.49219z"/>
  <path d="m21.434 60.57c-0.019532 0.14453 0.003906 0.28125 0.058594 0.40625 0.10937-0.22266 0.17187-0.46484 0.17187-0.73047 0-0.042969-0.007812-0.082032-0.011718-0.125-0.11328 0.12109-0.19531 0.27344-0.21875 0.44922z"/>
  <path d="m23.547 60.363c0 0.19922-0.15625 0.35547-0.35156 0.35547-0.17578 0-0.32812-0.12891-0.35156-0.30469-0.003906-0.023437-0.003906-0.039062-0.003906-0.050781 0-0.019531 0-0.039062 0.007812-0.058593 0.03125-0.16797 0.16797-0.28906 0.33984-0.29297 0.042969 0.003906 0.074219 0.007812 0.10938 0.015625 0.14062 0.046875 0.25 0.17969 0.25 0.33594z"/>
 </g>
</g></svg>
