<?xml version="1.0" encoding="UTF-8"?>
<svg width="100pt" height="100pt" version="1.1" viewBox="0 0 100 100" xmlns="http://www.w3.org/2000/svg"><g fill="#1C1C1C" stroke="#1C1C1C" stroke-width="2.5" fill-rule="evenodd">
 <g>
  <path d="m42.793 27.086c1.6953 0 3.0742-1.3789 3.0742-3.0742 0-1.6953-1.3789-3.0742-3.0742-3.0742-1.6953 0-3.0742 1.3789-3.0742 3.0742-0.003906 1.6914 1.3789 3.0742 3.0742 3.0742zm0-4.8828c0.99219 0 1.8047 0.80859 1.8047 1.8047 0 0.99219-0.80859 1.8047-1.8047 1.8047-0.99219 0-1.8047-0.80859-1.8047-1.8047 0-0.99609 0.80859-1.8047 1.8047-1.8047z"/>
  <path d="m82.285 40.039c-1.6562 0-3.0117 1.3164-3.0742 2.957-3.6719 0.77344-7.2891 1.8398-10.793 3.1836l9.6445-8.1094c0.69922-0.53516 1.1484-1.3086 1.2695-2.1797 0.12109-0.87891-0.10938-1.75-0.64453-2.4531-0.61719-0.80859-1.5586-1.2734-2.5352-1.3086 0.32031-0.76562 0.34375-1.6133 0.058594-2.3945-0.30078-0.83203-0.90625-1.4961-1.707-1.875-0.80078-0.37891-1.7031-0.42188-2.5352-0.12109-0.78516 0.28125-1.4258 0.83984-1.8125 1.5703-0.64844-0.73047-1.6094-1.1602-2.625-1.1211-1.8203 0.074219-3.2383 1.6172-3.1758 3.4336l-0.14062 16.324c-3.7227 1.7031-7.3008 3.7305-10.668 6.043-0.85547-3.375-1.957-6.6914-3.2969-9.8984-0.054688-0.12891-0.10938-0.26172-0.16406-0.38672l12.402-10.426c0.69922-0.53516 1.1484-1.3086 1.2695-2.1797 0.12109-0.87891-0.10937-1.75-0.64453-2.4531-0.61719-0.80859-1.5586-1.2734-2.5352-1.3086 0.67969-1.625-0.039063-3.5156-1.6484-4.2734-0.80078-0.37891-1.7031-0.42188-2.5352-0.12109-0.78516 0.28125-1.4258 0.83984-1.8125 1.5703-0.64844-0.73047-1.6094-1.1602-2.625-1.1211-1.8203 0.074219-3.2383 1.6172-3.1758 3.4336l-0.12109 13.746c-1.4102-2.918-3.0273-5.7461-4.8203-8.4414-2.3945-3.5977-5.1367-6.9922-8.1484-10.105 0.19531-0.40234 0.30469-0.85938 0.30469-1.3398 0-1.6953-1.3789-3.0742-3.0742-3.0742s-3.0742 1.3789-3.0742 3.0742c0 1.6953 1.3789 3.0742 3.0742 3.0742 0.75391 0 1.4453-0.27344 1.9805-0.72266 5.3398 5.5391 9.6602 11.809 12.867 18.582l-11.43-8.6836c-1.3984-1.1641-3.4844-0.98047-4.6562 0.41016-0.65234 0.77734-0.89844 1.8008-0.71875 2.7617-0.81641-0.14453-1.6484 0.023437-2.3516 0.46875-0.74609 0.47656-1.2617 1.2148-1.4531 2.0781-0.19141 0.86328-0.035156 1.75 0.44141 2.4961 0.44922 0.70312 1.1289 1.2031 1.9336 1.4219-0.57031 0.79297-0.78125 1.8242-0.51953 2.8047 0.23047 0.85547 0.78125 1.5703 1.5469 2.0117 0.51172 0.29297 1.0742 0.44141 1.6484 0.44141 0.28516 0 0.57031-0.035156 0.85156-0.11328l15.898-3.4453c1.4766 3.4922 2.6641 7.1016 3.5508 10.805 0.003906 0.070312 0.019531 0.13672 0.046875 0.20312 1.2344 5.2305 1.8711 10.637 1.8711 16.141 0 1.6602-0.011719 3.0117-0.070313 4.2852-2.6133-2.0078-5.3906-3.8477-8.2773-5.4844l1.6484-16.191c0.26562-1.8008-0.97656-3.4844-2.7773-3.7617-1.0039-0.15234-2.0039 0.17188-2.7305 0.82422-0.30469-0.77344-0.875-1.3945-1.6289-1.7617-0.79688-0.38672-1.6953-0.44531-2.5352-0.15625-1.6836 0.57422-2.6016 2.375-2.1094 4.0664-0.97266-0.070312-1.9648 0.28516-2.6641 1.0234-1.2539 1.3203-1.2031 3.4141 0.11328 4.6758l8.832 9.2617c-2.8906-1.4062-5.8828-2.625-8.9336-3.6289-4.0664-1.3398-8.2773-2.3164-12.52-2.9023-0.050782-1.6523-1.4102-2.9844-3.0742-2.9844-1.6953 0-3.0742 1.3789-3.0742 3.0742 0 1.6953 1.3789 3.0742 3.0742 3.0742 1.2852 0 2.3906-0.79297 2.8516-1.9141 3.7344 0.51562 7.3945 1.3203 10.965 2.4102l-14.137 3.0898c-1.793 0.30859-3.0078 2.0156-2.7109 3.8125 0.16797 1.0039 0.78906 1.8516 1.6367 2.3398-0.64062 0.53125-1.0508 1.2695-1.1641 2.0977-0.12109 0.875 0.10547 1.75 0.64062 2.457 0.64844 0.86328 1.6445 1.3164 2.6484 1.3164 0.64844 0 1.3008-0.19141 1.8711-0.57812 0.23437 0.94922 0.88281 1.7773 1.8008 2.2148 0.45703 0.21484 0.9375 0.32031 1.4141 0.32031 1.2344 0 2.4258-0.69531 2.9922-1.8828l7.6758-14.305c3.7031 1.3008 7.2969 2.9141 10.766 4.8398 0.089844 0.089844 0.19922 0.14844 0.31641 0.17578 3.1562 1.7734 6.1836 3.7969 8.9961 6.0195-0.10938 1.3516-0.28906 2.7188-0.58203 4.4062-0.058594 0.34766 0.17188 0.67578 0.51953 0.73438 0.035156 0.007812 0.074219 0.011719 0.10938 0.011719 0.30469 0 0.57031-0.21875 0.625-0.52734 0.69531-3.9844 0.76562-6.2422 0.76562-10.449 0-4.7617-0.47266-9.5195-1.4102-14.145-0.13281-0.65625-0.27734-1.3125-0.42969-1.9688 0.93359-0.65234 1.8828-1.2773 2.8438-1.8828l11.055 11.879c0.65234 0.76953 1.5898 1.1641 2.5312 1.1641 0.75391 0 1.5117-0.25391 2.1289-0.77734 0.77734-0.65625 1.1914-1.6211 1.1797-2.5977 0.78125 0.28125 1.625 0.26172 2.3984-0.0625 0.81641-0.34375 1.4531-0.98047 1.7891-1.8008 0.33594-0.81641 0.33594-1.7188-0.007812-2.5352-0.32031-0.76953-0.90625-1.3789-1.6602-1.7305 0.69922-0.6875 1.0781-1.6641 0.98828-2.6758-0.16406-1.8125-1.7734-3.1562-3.5898-2.9961l-14.242 0.59766c1.8789-1.0703 3.8047-2.0508 5.7734-2.9414 0.039063-0.015625 0.078125-0.03125 0.11719-0.054688 4.543-2.043 9.3047-3.5977 14.258-4.6406 0.45312 1.1367 1.5625 1.9414 2.8594 1.9414 1.6953 0 3.0742-1.3789 3.0742-3.0742 0.003906-1.6992-1.375-3.082-3.0742-3.082zm-32.227-13.258c-0.046875-1.125 0.83203-2.0781 1.9531-2.125 0.027343-0.003906 0.054687-0.003906 0.082031-0.003906 0.875 0 1.6719 0.56641 1.9492 1.4062 0.082031 0.24609 0.30469 0.42188 0.56641 0.4375s0.50391-0.12891 0.61328-0.36328l0.44531-0.94922c0.48047-1.0195 1.6992-1.457 2.7188-0.97656s1.457 1.6992 0.97656 2.7148l-0.44531 0.94922c-0.10938 0.23438-0.066407 0.51562 0.10938 0.70703 0.17969 0.19141 0.45312 0.25391 0.69531 0.16016 0.84766-0.32812 1.8242-0.054687 2.375 0.67188 0.32812 0.43359 0.46875 0.96875 0.39453 1.5117-0.074219 0.53906-0.35547 1.0195-0.78906 1.3516-0.007813 0.007812-0.015625 0.011718-0.023437 0.019531l-11.758 9.8828 0.13281-15.355c0.007812-0.019531 0.007812-0.03125 0.003906-0.039062zm-17.129-4.3008c-0.99219 0-1.8047-0.80859-1.8047-1.8047 0-0.99219 0.80859-1.8047 1.8047-1.8047 0.99219 0 1.8047 0.80859 1.8047 1.8047-0.003906 0.99609-0.80859 1.8047-1.8047 1.8047zm-0.14453 23.996c-0.011718 0.003907-0.019531 0.003907-0.03125 0.007813-0.52734 0.14062-1.0781 0.070313-1.5508-0.20312s-0.80859-0.71094-0.95312-1.2383c-0.23438-0.87891 0.14453-1.8203 0.92578-2.2891 0.22266-0.13281 0.34375-0.39062 0.30078-0.64844-0.042968-0.25781-0.23437-0.46094-0.48828-0.51953l-1.0273-0.22656c-0.53125-0.11719-0.98438-0.4375-1.2812-0.89453-0.29297-0.46094-0.38672-1.0078-0.26953-1.5391 0.11719-0.53516 0.4375-0.98828 0.89453-1.2812 0.33203-0.21094 0.70703-0.32031 1.0938-0.32031 0.14844 0 0.29687 0.015625 0.44531 0.050781l1.0234 0.22656c0.25391 0.054688 0.51953-0.046874 0.66406-0.26172s0.14844-0.49609 0.003906-0.71484c-0.50781-0.75391-0.45312-1.7695 0.12891-2.4648 0.72656-0.85938 2.0156-0.96875 2.8789-0.24609 0.007812 0.007813 0.015625 0.015626 0.023437 0.019532l12.227 9.2891zm-7.3984 33.453c-0.003907 0.011718-0.011719 0.019531-0.015625 0.027343-0.48438 1.0195-1.7031 1.4531-2.7188 0.97266-0.82031-0.39063-1.293-1.2891-1.1445-2.1875 0.042969-0.25781-0.074218-0.51563-0.29687-0.64844-0.10156-0.0625-0.21484-0.09375-0.32813-0.09375-0.13672 0-0.26953 0.042969-0.38281 0.12891l-0.83594 0.63281c-0.89844 0.67969-2.1797 0.5-2.8594-0.39844-0.32813-0.4375-0.46875-0.97266-0.39453-1.5156 0.074219-0.53906 0.35547-1.0195 0.79297-1.3477l0.83594-0.63281c0.20703-0.15625 0.30078-0.42578 0.23047-0.67578-0.066406-0.25391-0.28516-0.4375-0.54297-0.46484-0.90234-0.10156-1.6406-0.80078-1.7891-1.6992-0.18359-1.1094 0.57031-2.1641 1.6797-2.3516 0.011718-0.003906 0.019531-0.003906 0.03125-0.007812l15.004-3.2812zm8.9102-21.902c-0.81641-0.77734-0.85156-2.0703-0.078125-2.8867 0.39453-0.41406 0.94141-0.63672 1.4883-0.63672 0.32031 0 0.64453 0.074219 0.94531 0.23047 0.23047 0.12109 0.51172 0.089844 0.71094-0.082031s0.27344-0.44141 0.1875-0.69141l-0.33984-0.99219c-0.36328-1.0625 0.20312-2.2266 1.2695-2.5938 1.0664-0.36719 2.2305 0.20312 2.5977 1.2695l0.33984 0.99219c0.085937 0.24609 0.30859 0.41406 0.57031 0.42969 0.26172 0.011719 0.50391-0.13281 0.60938-0.37109 0.37891-0.82422 1.2734-1.3086 2.1719-1.1719 1.1133 0.17187 1.8789 1.2148 1.7109 2.3281-0.003907 0.011719-0.003907 0.019532-0.003907 0.03125l-1.5547 15.277-10.602-11.109c-0.007812-0.007812-0.015624-0.015625-0.023437-0.023437zm-16.582 5.5391c-0.99219 0-1.8047-0.80859-1.8047-1.8047 0-0.99219 0.80859-1.8047 1.8047-1.8047 0.99219 0 1.8047 0.80859 1.8047 1.8047 0 0.11328-0.011719 0.21875-0.03125 0.32422-0.003906 0.011718-0.003906 0.023437-0.007812 0.039062-0.16797 0.82422-0.89453 1.4414-1.7656 1.4414zm55.879-11.004c0.011719 0 0.019531-0.003906 0.03125-0.003906 1.1211-0.10156 2.1172 0.72656 2.2227 1.8438 0.082032 0.90625-0.45312 1.7695-1.3008 2.0977-0.24219 0.09375-0.40234 0.32422-0.40625 0.58984-0.003906 0.26172 0.15234 0.49609 0.39453 0.59766l0.96875 0.39844c0.50391 0.20703 0.89844 0.59766 1.1094 1.1016 0.21094 0.50391 0.21094 1.0586 0.003907 1.5625-0.20703 0.50781-0.60156 0.89844-1.1016 1.1094-0.50391 0.21094-1.0586 0.21094-1.5625 0.007813l-0.96875-0.39844c-0.23828-0.097656-0.51953-0.042969-0.69922 0.14453-0.18359 0.1875-0.23047 0.46484-0.125 0.70312 0.37109 0.82812 0.14453 1.8203-0.55078 2.4062-0.86328 0.72266-2.1523 0.61328-2.8789-0.25-0.007813-0.007812-0.015625-0.015625-0.019531-0.023437l-10.461-11.238zm-7.9609-20.984c-0.046874-1.125 0.83203-2.0781 1.9531-2.125 0.027343-0.003906 0.054687-0.003906 0.082031-0.003906 0.875 0 1.6719 0.56641 1.9492 1.4062 0.082031 0.24609 0.30469 0.42188 0.56641 0.4375 0.26172 0.015625 0.50391-0.12891 0.61328-0.36328l0.44531-0.94922c0.23047-0.49219 0.64453-0.86719 1.1562-1.0508 0.51562-0.18359 1.0664-0.15625 1.5625 0.074218 0.49219 0.23047 0.86719 0.64062 1.0508 1.1562 0.18359 0.51562 0.15625 1.0664-0.074219 1.5586l-0.44531 0.94922c-0.10938 0.23438-0.066407 0.51562 0.10937 0.70703 0.17969 0.19141 0.45313 0.25391 0.69531 0.16016 0.84766-0.32812 1.8242-0.054687 2.375 0.67188 0.32812 0.43359 0.46875 0.96875 0.39453 1.5117-0.074218 0.53906-0.35547 1.0195-0.78906 1.3516-0.007813 0.007813-0.015625 0.011719-0.023438 0.019532l-11.754 9.8789 0.13281-15.355v-0.035156zm16.652 13.344c-0.99219 0-1.8047-0.80859-1.8047-1.8047 0-0.99219 0.80859-1.8047 1.8047-1.8047 0.99219 0 1.8047 0.80859 1.8047 1.8047 0 0.99219-0.80859 1.8047-1.8047 1.8047z"/>
  <path d="m79.848 46.559c-1.6953 0-3.0742 1.3789-3.0742 3.0742 0 1.6953 1.3789 3.0742 3.0742 3.0742 1.6953 0 3.0742-1.3789 3.0742-3.0742 0-1.6953-1.3789-3.0742-3.0742-3.0742zm0 4.8789c-0.99219 0-1.8047-0.80859-1.8047-1.8047 0-0.99219 0.80859-1.8047 1.8047-1.8047 0.99219 0 1.8047 0.80859 1.8047 1.8047-0.003906 0.99609-0.8125 1.8047-1.8047 1.8047z"/>
  <path d="m24.566 61.113c1.6953 0 3.0742-1.3789 3.0742-3.0742 0-1.6953-1.3789-3.0742-3.0742-3.0742-1.6953 0-3.0742 1.3789-3.0742 3.0742 0 1.6914 1.3789 3.0742 3.0742 3.0742zm0-4.8828c0.99219 0 1.8047 0.80859 1.8047 1.8047 0 0.99219-0.80859 1.8047-1.8047 1.8047-0.99219 0-1.8047-0.80859-1.8047-1.8047 0.003906-0.99219 0.8125-1.8047 1.8047-1.8047z"/>
  <path d="m33.863 30.988c1.6953 0 3.0742-1.3789 3.0742-3.0742 0-1.6953-1.3789-3.0742-3.0742-3.0742-1.6953 0-3.0742 1.3789-3.0742 3.0742 0 1.6953 1.3789 3.0742 3.0742 3.0742zm0-4.8789c0.99219 0 1.8047 0.80859 1.8047 1.8047 0 0.99219-0.80859 1.8047-1.8047 1.8047-0.99219 0-1.8047-0.80859-1.8047-1.8047 0-0.99609 0.8125-1.8047 1.8047-1.8047z"/>
 </g>
</g></svg>
