<?xml version="1.0" encoding="UTF-8"?>
<svg width="100pt" height="100pt" version="1.1" viewBox="0 0 100 100" xmlns="http://www.w3.org/2000/svg"><g fill="#1C1C1C" stroke="#1C1C1C" stroke-width="2.5" fill-rule="evenodd">
 <g>
  <path d="m50.016 64.469c-1.0352 0-1.875 0.83984-1.8789 1.875 0 1.0391 0.84375 1.8828 1.8789 1.8828s1.8789-0.84375 1.8789-1.8789c-0.003906-1.0352-0.84375-1.8789-1.8789-1.8789z"/>
  <path d="m60.352 79.633c0.58594 0.38672 1.4609 0.87109 2.3008 0.98828 0.44531 0.066406 0.87891-0.082032 1.1953-0.39453 0.3125-0.3125 0.45703-0.75 0.39453-1.1953-0.12109-0.83984-0.60547-1.7109-0.98828-2.2969-0.75-1.1406-1.8008-2.207-3.207-3.2578-1.3906-1.0391-2.9844-1.7734-4.6641-2.1641-0.26562-0.0625-0.50781 0.17969-0.44531 0.44531 0.39062 1.6836 1.1289 3.2734 2.1641 4.668 1.043 1.4102 2.1094 2.457 3.25 3.207z"/>
  <path d="m73.574 70.035c1.1562-0.23828 2.7734-0.70703 3.9297-1.5703 0.67578-0.50781 1.0625-1.2773 1.0625-2.1133 0-0.83594-0.38672-1.6055-1.0625-2.1133-1.1562-0.86719-2.7773-1.332-3.9297-1.5703-2.2227-0.46094-4.6992-0.47656-7.5703-0.058594-3.1523 0.46094-6.1602 1.6406-8.7773 3.4336-0.21484 0.14844-0.21484 0.47266 0 0.62109 2.6172 1.7969 5.625 2.9766 8.7773 3.4336 2.8711 0.41406 5.3477 0.39453 7.5703-0.0625z"/>
  <path d="m77.805 34.254c-0.20703 0-0.41797 0.015625-0.63281 0.046875-2.2266 0.31641-4.5117 1.5781-6.0352 2.582-2.9102 1.9141-5.6172 4.5781-8.2773 8.1445-3.0625 4.1055-5.0938 8.9023-5.918 13.945-0.042968 0.25391 0.17969 0.47656 0.43359 0.43359 5.0391-0.82422 9.8359-2.8555 13.941-5.918 3.5664-2.6602 6.2305-5.3672 8.1445-8.2773 1-1.5195 2.2617-3.8008 2.582-6.0312 0.19531-1.3633-0.24609-2.6992-1.2109-3.6641-0.80859-0.82031-1.8906-1.2617-3.0273-1.2617z"/>
  <path d="m30.254 62.305c-1.3203 0-2.5508 0.12109-3.7109 0.35937-1.1523 0.23828-2.7734 0.70313-3.9297 1.5703-0.67578 0.50781-1.0625 1.2773-1.0625 2.1133 0 0.83594 0.38672 1.6055 1.0625 2.1133 1.1562 0.86719 2.7734 1.332 3.9297 1.5703 2.2227 0.45703 4.6992 0.47656 7.5703 0.058594 3.1484-0.46094 6.1602-1.6406 8.7773-3.4336 0.21484-0.14844 0.21484-0.47266 0-0.62109-2.6133-1.793-5.625-2.9727-8.7773-3.4336-1.3711-0.19922-2.6523-0.29687-3.8594-0.29687z"/>
  <path d="m28.859 36.879c-1.5234-1-3.8086-2.2617-6.0352-2.582-0.21094-0.03125-0.42188-0.046875-0.63281-0.046875-1.1367 0-2.2188 0.44141-3.0352 1.2578-0.96484 0.96484-1.4062 2.3008-1.2109 3.6641 0.32031 2.2305 1.5781 4.5117 2.582 6.0312 1.9141 2.9102 4.5781 5.6172 8.1445 8.2773 4.1094 3.0625 8.9062 5.0938 13.941 5.918 0.25391 0.042968 0.47656-0.17969 0.43359-0.43359-0.82422-5.043-2.8555-9.8398-5.918-13.945-2.6484-3.5625-5.3555-6.2266-8.2695-8.1406z"/>
  <path d="m36.629 76.738c-0.38672 0.58594-0.87109 1.4609-0.98828 2.2969-0.0625 0.44531 0.082031 0.87891 0.39453 1.1953 0.3125 0.3125 0.75 0.46094 1.1953 0.39453 0.83594-0.12109 1.7109-0.60547 2.3008-0.98828 1.1406-0.75 2.207-1.8008 3.2578-3.207 1.0352-1.3906 1.7734-2.9844 2.1641-4.668 0.0625-0.26562-0.17969-0.50781-0.44531-0.44531-1.6797 0.39062-3.2734 1.1289-4.6641 2.1641-1.4141 1.0508-2.4648 2.1172-3.2148 3.2578z"/>
  <path d="m56.824 39.934c0.72656-4.9883 0.69141-9.2969-0.10547-13.164-0.41797-2.0273-1.2422-4.875-2.7773-6.9219-0.94922-1.2656-2.3945-1.9922-3.9609-1.9922-1.5664 0-3.0117 0.72656-3.9609 1.9922-1.5391 2.0508-2.3594 4.8945-2.7734 6.9219-0.80078 3.8672-0.83203 8.1758-0.10547 13.164 0.84766 5.8047 3.0977 11.332 6.5312 16.062 0.14844 0.20703 0.46484 0.20703 0.61328 0 3.4414-4.7344 5.6953-10.262 6.5391-16.062z"/>
  <path d="m56.172 60.008c-0.13281-0.15625-0.23047-0.44531-0.46094-0.47266-0.21094-0.027344-0.33203 0.09375-0.46484 0.22266-0.44141 0.44141-0.88672 0.88672-1.3281 1.3281-0.50391 0.50391-1.0078 1.0078-1.5117 1.5117l-0.72266 0.72266c-0.16797 0.16797-0.13281 0.4375 0.058594 0.57422 0.26953 0.19141 0.50781 0.42578 0.70312 0.69531 0.13672 0.1875 0.40625 0.21875 0.57031 0.054687 0.26953-0.26953 0.53906-0.53906 0.80859-0.80859 0.54688-0.54688 1.0898-1.0898 1.6367-1.6367 0.24219-0.24219 0.48437-0.48438 0.73047-0.73047 0.097656-0.097656 0.19531-0.19531 0.29297-0.29297 0.12109-0.12109 0.32812-0.27344 0.34766-0.44922 0.019531-0.16406-0.09375-0.29297-0.22656-0.37109-0.16016-0.09375-0.30859-0.20312-0.43359-0.34766z"/>
  <path d="m50.016 69.352c-0.17578 0-0.35156-0.015624-0.51953-0.046874-0.23438-0.042969-0.44922 0.125-0.44922 0.36328v11.48c0 0.49219 0.35547 0.94141 0.84375 0.98828 0.5625 0.054687 1.0352-0.38281 1.0352-0.93359v-11.52c0-0.23438-0.21094-0.40234-0.44531-0.36328-0.15234 0.019532-0.30859 0.03125-0.46484 0.03125z"/>
  <path d="m47.559 68.074c-0.13672-0.19141-0.40625-0.22656-0.57422-0.058594l-1.5156 1.5156c-0.14062 0.14062-0.4375 0.35938-0.39453 0.58203 0.027343 0.14062 0.1875 0.21875 0.29688 0.28906 0.14453 0.097656 0.27734 0.20703 0.38672 0.34375 0.15625 0.19922 0.21484 0.48828 0.52734 0.46875 0.24609-0.011719 0.45703-0.30469 0.62109-0.46484l1.3984-1.3984c0.16406-0.16406 0.13281-0.43359-0.054688-0.57031-0.26562-0.19531-0.5-0.43359-0.69141-0.70703z"/>
  <path d="m52.43 68.074c0.13672-0.19141 0.40625-0.22656 0.57422-0.058594l0.039063 0.039063c0.30469 0.30469 0.60938 0.60937 0.91406 0.91406l0.5625 0.5625c0.14062 0.14062 0.4375 0.35938 0.39453 0.58203-0.027343 0.14062-0.1875 0.21875-0.29687 0.28906-0.14453 0.097656-0.27734 0.20703-0.38672 0.34375-0.15625 0.19922-0.21484 0.48828-0.52734 0.46875-0.24609-0.011719-0.45703-0.30469-0.62109-0.46484-0.19922-0.19922-0.39844-0.39844-0.59766-0.59766-0.26562-0.26562-0.53125-0.53125-0.80078-0.80078-0.16406-0.16406-0.13281-0.43359 0.054687-0.57031 0.26562-0.19531 0.5-0.43359 0.69141-0.70703z"/>
  <path d="m47.012 66.48c-0.003907-0.011719-0.003907-0.23047-0.003907-0.23047 0.007813-0.15234 0.023438-0.28516 0.046876-0.41797 0.039062-0.22266-0.14063-0.42578-0.36719-0.42578h-1.0703-0.79297c-0.21875 0-0.54688-0.050781-0.69531 0.15234-0.085937 0.11719-0.050781 0.22266-0.011718 0.34766 0.042968 0.14453 0.066406 0.29297 0.066406 0.44141 0 0.22656-0.1875 0.60547-0.039063 0.8125 0.13281 0.1875 0.5 0.12891 0.70312 0.12891h0.79688 1.0508c0.23438 0 0.40234-0.21094 0.36328-0.44141-0.027344-0.12109-0.042969-0.24219-0.046875-0.36719z"/>
  <path d="m52.969 66.48c0.003906-0.011719 0.003906-0.23047 0.003906-0.23047-0.007812-0.15234-0.023437-0.28516-0.046875-0.41797-0.039062-0.22266 0.14062-0.42578 0.36719-0.42578h1.0703 0.79297c0.21875 0 0.54688-0.050781 0.69531 0.15234 0.085938 0.11719 0.050782 0.22266 0.011719 0.34766-0.042969 0.14453-0.066406 0.29297-0.066406 0.44141 0 0.22656 0.1875 0.60547 0.039063 0.8125-0.13281 0.1875-0.5 0.12891-0.70313 0.12891h-0.79687-1.0508c-0.23438 0-0.40234-0.21094-0.36328-0.44141 0.03125-0.12109 0.042969-0.24219 0.046875-0.36719z"/>
  <path d="m47.559 64.621c0.19141-0.27344 0.42578-0.51172 0.69531-0.70703 0.1875-0.13672 0.21875-0.40625 0.054688-0.57031-0.11328-0.11328-0.23047-0.23047-0.34375-0.34375l-2.793-2.793c-0.125-0.125-0.24609-0.24609-0.37109-0.37109-0.14844-0.14844-0.28125-0.30469-0.51562-0.26563-0.24219 0.042969-0.31641 0.26563-0.46094 0.43359-0.10938 0.12891-0.24219 0.22266-0.38281 0.32031-0.10156 0.070312-0.21875 0.15625-0.25391 0.28125-0.027344 0.10156-0.003906 0.1875 0.039062 0.28125 0.054688 0.125 0.19141 0.22656 0.28906 0.32422l0.37891 0.37891c0.32031 0.32031 0.64062 0.64062 0.96094 0.96094 0.33594 0.33594 0.67188 0.67188 1.0078 1.0078l0.79688 0.79688c0.10938 0.10938 0.21484 0.21484 0.32422 0.32422 0.16797 0.16797 0.44141 0.13281 0.57422-0.058594z"/>
  <path d="m50.016 63.344c0.16016 0 0.31641 0.011719 0.46484 0.035156 0.23047 0.035156 0.44531-0.12891 0.44531-0.36328v-0.046875-0.98047-1.7148-1.75-0.67188c0-0.20703 0.042969-0.5-0.16406-0.62891-0.11328-0.070312-0.22656-0.042968-0.34375-0.007812-0.14062 0.039062-0.28516 0.066406-0.43359 0.066406-0.13672 0-0.28125-0.015625-0.41016-0.058594-0.10938-0.039062-0.20703-0.0625-0.31641-0.003906-0.15625 0.078125-0.21094 0.24219-0.21094 0.40234v1.3281 1.8047 1.5898 0.68359c0 0.23828 0.21484 0.40625 0.44922 0.36328 0.16797-0.03125 0.33984-0.046875 0.51953-0.046875z"/>
 </g>
</g></svg>
