<?xml version="1.0" encoding="UTF-8"?>
<svg width="100pt" height="100pt" version="1.1" viewBox="0 0 100 100" xmlns="http://www.w3.org/2000/svg"><g fill="#1C1C1C" stroke="#1C1C1C" stroke-width="2.5" fill-rule="evenodd">
 <g>
  <path d="m49.207 33.098c0 2.3047-3.4531 2.3047-3.4531 0 0-2.3008 3.4531-2.3008 3.4531 0"/>
  <path d="m62.68 58.07c0.0625 0.29297 0.11719 0.59375 0.15625 0.89453 0.03125 0.23047 0.16406 0.4375 0.36719 0.55469l12.035 6.9492c0.41016 0.23828 0.92969 0.039062 1.0898-0.40625 0.85156-2.4102 1.3359-4.9961 1.3789-7.6953-0.29297-0.29297-0.46094-0.46094-0.75391-0.75391h-13.906c-0.24609-0.003906-0.41797 0.21875-0.36719 0.45703z"/>
  <path d="m67.328 38.004c-2.4297-1.5664-5.1758-2.6562-8.0742-3.168-0.46484-0.082032-0.89062 0.26953-0.89062 0.74219v15.09c0 0.21484 0.09375 0.41406 0.25 0.55859 0.30078 0.27344 0.58594 0.55469 0.85547 0.83984 0.17188 0.17969 0.46875 0.14062 0.59375-0.074218l7.4961-12.984c0.19531-0.33594 0.09375-0.79297-0.23047-1.0039z"/>
  <path d="m50.266 73.383c-0.69531 1.2383-0.76172 2.7422-0.17969 4.0273 0.074218 0.16406 0.066406 0.35156-0.019532 0.50781-0.085937 0.15625-0.24219 0.26172-0.42188 0.28516-1.3984 0.17969-2.6484 1.0234-3.3398 2.2578-0.074219 0.13281-0.14453 0.27344-0.20313 0.42187-0.20703 0.49609 0.15625 1.0469 0.69531 1.0469h7.7891c9.1602-0.30469 16.922-5.6523 20.688-13.348 0.17187-0.35156 0.035156-0.77734-0.30469-0.97266l-12.008-6.9336c0 0.0625 0.003906 0.12109 0.003906 0.18359-0.058594 6.4297-2.832 12.523-7.6133 16.719-0.125 0.10938-0.28906 0.15625-0.45312 0.13281-0.16406-0.023438-0.30859-0.11719-0.39453-0.25781l-3.2852-5.2422c-0.38672 0.33594-0.70703 0.73437-0.95312 1.1719z"/>
  <path d="m32.633 80.754c3.9102 1.625 8.3125 1.5469 12.156-0.19141 0.17578-0.078125 0.3125-0.21875 0.39453-0.39062 0.042968-0.089844 0.085937-0.17578 0.13281-0.25781 0.75-1.3398 2.0273-2.3125 3.4922-2.6953-0.44531-1.4492-0.28125-3.043 0.47266-4.3828 0.42578-0.76563 1.0352-1.4258 1.7578-1.9102 0.12891-0.085937 0.28125-0.11328 0.42969-0.082031s0.27734 0.12109 0.35938 0.25l0.40234 0.64453c0.16797 0.26953 0.57812 0.22266 0.67969-0.082031 0.91016-2.75 0.80859-5.6992-0.30469-8.3984-1.2344-2.9883-3.5547-5.3164-6.543-6.5586-2.5391-1.0547-5.4141-0.96875-7.8789 0.23828-2.0898 1.0195-3.7344 2.7695-4.6289 4.9219-1.5938 3.8398 0.23047 8.2617 4.0664 9.8594 1.4609 0.60938 3.0703 0.61328 4.5312 0.007812 1.4609-0.60156 2.6016-1.7383 3.207-3.1992 0.98047-2.3555-0.13672-5.0703-2.4922-6.0469-1.8281-0.75781-3.9336 0.10938-4.6914 1.9336-0.58203 1.4062 0.085938 3.0195 1.4883 3.6055 0.33203 0.13672 0.46094 0.55078 0.23438 0.86328-0.15234 0.20703-0.43359 0.27734-0.67188 0.17578-1.9688-0.82422-2.9062-3.0977-2.0898-5.0742 1-2.3984 3.7656-3.5391 6.168-2.543 2.9258 1.2188 4.3164 4.5938 3.1016 7.5234-0.72266 1.7383-2.0781 3.0898-3.8203 3.8086-1.7422 0.71875-3.6562 0.71484-5.3945-0.011719-4.4141-1.8359-6.5117-6.918-4.6758-11.332 0.78906-1.8984 2.1016-3.5117 3.7695-4.668 0.375-0.26172 0.42969-0.79688 0.11328-1.1289l-7.4922-7.8867c-0.36328-0.38281-0.96875-0.39062-1.3398-0.019532-2.2695 2.2422-4.0508 4.8945-5.3047 7.8984-4.0703 9.7812 0.58203 21.055 10.371 25.129z"/>
  <path d="m60.828 53.758c0.078125 0.11328 0.15234 0.22656 0.22266 0.33984 0.10938 0.17188 0.33203 0.23047 0.50781 0.12891l12.754-7.3633c0.35547-0.20703 0.47656-0.65625 0.28125-1.0156-1.2891-2.3984-3.0195-4.4961-5.0664-6.2148-0.35938-0.30078-0.90625-0.20703-1.1406 0.19922l-7.5859 13.141c-0.14062 0.23828-0.13281 0.54688 0.027344 0.78516z"/>
  <path d="m62.742 56.48h14.098c0.44922 0 0.79297-0.39062 0.75-0.83594-0.24609-2.4453-0.86328-4.9219-1.8359-7.3164-0.17188-0.42578-0.67969-0.60547-1.0781-0.375l-12.316 7.1133c-0.32812 0.1875-0.46094 0.58984-0.31641 0.9375 0.11719 0.29688 0.39453 0.47656 0.69922 0.47656z"/>
  <path d="m31.039 33.773c0.10156-0.11719 0.17188-0.25781 0.20313-0.40625 0.125-0.61328-0.35547-0.83203-0.69141-1.2148-0.37891-0.4375-0.70703-0.92188-0.97266-1.4336-0.53906-1.043-0.81641-2.2148-0.81641-3.3867 0-4.0664 3.3125-7.375 7.3789-7.375h42.129c0.51953 0 0.94141-0.42188 0.94141-0.94141s-0.42188-0.94141-0.94141-0.94141l-42.129-0.003907c-5.1055 0-9.2617 4.1523-9.2617 9.2578 0 1.4141 0.32031 2.8281 0.94531 4.0977 0.42188 0.85938 1.4805 2.9375 2.7188 2.6523 0.19531-0.042969 0.36719-0.15625 0.49609-0.30469z"/>
  <path d="m56.512 34.531c-0.34375-0.015625-0.6875-0.027344-1.0352-0.027344h-4.9805c-0.32031 0-0.61328 0.16016-0.81641 0.40625-0.52344 0.63672-1.3164 1.043-2.1992 1.043-0.88672 0-1.6758-0.40625-2.1992-1.043-0.20312-0.24609-0.49609-0.40625-0.81641-0.40625h-11.191c-0.375 0-0.63281 0.375-0.5 0.72656 1.9062 5.1289 6.4023 9.0273 11.816 10.113 0.007812 0 0.019531 0.003906 0.027344 0.007812 0.27344 0.042969 0.53906 0.089844 0.80469 0.14063 0.007813 0 0.019531 0.003906 0.027344 0.003906 4.5742 0.83984 8.3477 2.2734 11.203 4.1992 0.24609 0.16797 0.58203-0.015624 0.58203-0.31641v-14.094c-0.003906-0.40234-0.32031-0.73438-0.72266-0.75391z"/>
  <path d="m34.504 33.102c0.22656-0.28125 0.22266-0.74609 0.28125-1.0781 0.066406-0.41016 0.17188-0.8125 0.30859-1.2031 0.26562-0.76562 0.66406-1.4883 1.1641-2.125 1.0039-1.2773 2.4258-2.2109 4-2.6094 0.58984-0.14844 1.1992-0.22266 1.8086-0.22266h36.152c0.49219 0 0.94141-0.35547 0.98828-0.84375 0.054688-0.5625-0.38281-1.0352-0.93359-1.0352h-36.207c-1.6914 0-3.3672 0.46875-4.8125 1.3516-1.3867 0.84766-2.543 2.0586-3.3203 3.4844-0.39453 0.72266-0.69141 1.5-0.88281 2.3047-0.089843 0.375-0.21875 0.83203-0.15625 1.2188 0.097657 0.62109 1.0078 1.3711 1.5664 0.80859 0.015624-0.019532 0.03125-0.035156 0.042968-0.050782z"/>
 </g>
</g></svg>
