<?xml version="1.0" encoding="UTF-8"?>
<svg width="100pt" height="100pt" version="1.1" viewBox="0 0 100 100" xmlns="http://www.w3.org/2000/svg"><g fill="#1C1C1C" stroke="#1C1C1C" stroke-width="2.5" fill-rule="evenodd">
 <path d="m88.125 64.484c-3.7617-2.375-8.7148-1.4805-11.406 2.0625l-0.64062 0.82812c-2.5312 3.2383-5.9609 5.6562-9.8594 6.9531l-1.2969 0.40625c-2.4023 0.80469-4.3867 2.5352-5.5 4.8125-1.2227 2.4648-1.418 5.3125-0.54688 7.9219 1.1641 3.7109 4.5781 6.2578 8.4688 6.3125 0.42188 0 0.84766-0.03125 1.2656-0.09375l2.9531-0.4375c4.8594-0.90625 9.3164-3.3047 12.75-6.8594 2.3164-2.293 4.3047-4.8945 5.9062-7.7344l0.75-1.2812c2.5859-4.375 1.3438-10.008-2.8438-12.891zm-9.9062 11.562c-1.1406 1.5508-2.7539 2.6875-4.5938 3.25-0.79688 0.32812-1.7109-0.054687-2.0391-0.85156-0.32813-0.79687 0.054687-1.7109 0.85156-2.0391 1.2422-0.33203 2.3438-1.0508 3.1562-2.0469 0.21094-0.37109 0.57031-0.64062 0.98438-0.74219 0.41797-0.10156 0.85547-0.03125 1.2188 0.20312 0.35938 0.23047 0.60938 0.60156 0.6875 1.0234 0.082031 0.41797-0.015625 0.85547-0.26562 1.2031z"/>
 <path d="m72.719 65.031-1.0156 0.09375c-3.9648 0.41016-7.9609-0.36328-11.484-2.2188l-1.1562-0.625c-2.1875-1.1562-4.7539-1.3828-7.1094-0.625-2.5625 0.80078-4.6992 2.5859-5.9375 4.9688-2.0703 3.7305-1.1367 8.4102 2.2031 11.062l2.2969 1.7812c1.6953 1.2695 3.5859 2.2617 5.5938 2.9375 0.1875-1.3594 0.60156-2.6797 1.2188-3.9062 1.3828-2.8477 3.8633-5.0078 6.875-5.9844l0.13281-0.042969c-0.91016-0.23438-1.8008-0.55078-2.6562-0.94922-0.77344-0.35547-1.1211-1.2734-0.77344-2.0547s1.2578-1.1367 2.043-0.80078c1.0547 0.64062 2.2852 0.92969 3.5156 0.82812 0.40625-0.082032 0.82812 0.003906 1.1719 0.23438s0.58594 0.58594 0.66406 0.99609c0.003907 0.054688 0.003907 0.10938 0 0.16406 2.3008-1.2266 4.3203-2.918 5.9336-4.9688l0.65625-0.82812v-0.015625c-0.71875-0.10156-1.4492-0.11719-2.1719-0.046875z"/>
 <path d="m37.094 52.344c-1.6328-1.0273-3.7812-0.61719-4.9219 0.9375l-0.48438 0.625c-2.2305 2.8594-5.2578 4.9922-8.7031 6.125l-0.96875 0.3125c-1.1016 0.37109-2.0078 1.1719-2.5156 2.2188-0.59375 1.1914-0.6875 2.5664-0.26562 3.8281 0.55469 1.8672 2.3789 3.0625 4.3125 2.8281l2.2031-0.3125c3.0742-0.60938 5.8906-2.1484 8.0625-4.4062 1.5547-1.543 2.8906-3.293 3.9688-5.2031l0.54688-0.95312c1.2266-2.0156 0.6875-4.6328-1.2344-6zm-5.625 6.5938c-0.88672 1.2305-2.1562 2.1367-3.6094 2.5781-0.19141 0.074219-0.39062 0.10938-0.59375 0.10938-0.73828-0.007812-1.3711-0.53516-1.5156-1.2578-0.14062-0.72656 0.24219-1.4531 0.92188-1.7422 1.2031-0.5 1.8125-0.8125 2.1719-1.375 0.21094-0.37109 0.57031-0.64062 0.98438-0.74219 0.41797-0.10156 0.85547-0.03125 1.2188 0.20313 0.35938 0.23047 0.60938 0.60156 0.6875 1.0234 0.082031 0.41797-0.015625 0.85547-0.26562 1.2031zm38.703-31.938c-1.7305-1.0273-3.957-0.53516-5.0938 1.125l-0.48438 0.65625c-2.1953 3.0078-5.2422 5.2891-8.75 6.5469l-0.98438 0.35938c-1.1406 0.41406-2.0586 1.2773-2.5469 2.3906-0.58203 1.25-0.63672 2.6797-0.15625 3.9688 0.625 1.9375 2.5664 3.1367 4.5781 2.8281l2.25-0.39062c3.1562-0.71875 6.0156-2.3945 8.1875-4.7969 1.5625-1.6328 2.8906-3.4805 3.9375-5.4844l0.54688-1c1.2031-2.1367 0.55859-4.8438-1.4844-6.2031zm-5.3281 6.8594c-1 1.332-2.3789 2.3281-3.9531 2.8594-0.19922 0.082031-0.41016 0.12109-0.625 0.125-0.61719 0-1.1797-0.36328-1.4375-0.92188-0.16797-0.38281-0.17578-0.8125-0.023437-1.1992 0.15234-0.38672 0.45312-0.69922 0.83594-0.86328 0.95703-0.32422 1.8203-0.875 2.5156-1.6094 0.44531-0.74219 1.4062-0.98438 2.1484-0.53906 0.74219 0.44531 0.98437 1.4062 0.53906 2.1484zm5.3281-6.8594c-1.7305-1.0273-3.957-0.53516-5.0938 1.125l-0.48438 0.65625c-2.1953 3.0078-5.2422 5.2891-8.75 6.5469l-0.98438 0.35938c-1.1406 0.41406-2.0586 1.2773-2.5469 2.3906-0.58203 1.25-0.63672 2.6797-0.15625 3.9688 0.625 1.9375 2.5664 3.1367 4.5781 2.8281l2.25-0.39062c3.1562-0.71875 6.0156-2.3945 8.1875-4.7969 1.5625-1.6328 2.8906-3.4805 3.9375-5.4844l0.54688-1c1.2031-2.1367 0.55859-4.8438-1.4844-6.2031zm-5.3281 6.8594c-1 1.332-2.3789 2.3281-3.9531 2.8594-0.19922 0.082031-0.41016 0.12109-0.625 0.125-0.61719 0-1.1797-0.36328-1.4375-0.92188-0.16797-0.38281-0.17578-0.8125-0.023437-1.1992 0.15234-0.38672 0.45312-0.69922 0.83594-0.86328 0.95703-0.32422 1.8203-0.875 2.5156-1.6094 0.44531-0.74219 1.4062-0.98438 2.1484-0.53906 0.74219 0.44531 0.98437 1.4062 0.53906 2.1484zm-27.75 18.484c-1.6328-1.0273-3.7812-0.61719-4.9219 0.9375l-0.48438 0.625c-2.2305 2.8594-5.2578 4.9922-8.7031 6.125l-0.96875 0.3125c-1.1016 0.37109-2.0078 1.1719-2.5156 2.2188-0.59375 1.1914-0.6875 2.5664-0.26562 3.8281 0.55469 1.8672 2.3789 3.0625 4.3125 2.8281l2.2031-0.3125c3.0742-0.60938 5.8906-2.1484 8.0625-4.4062 1.5547-1.543 2.8906-3.293 3.9688-5.2031l0.54688-0.95312c1.2266-2.0156 0.6875-4.6328-1.2344-6zm-5.625 6.5938c-0.88672 1.2305-2.1562 2.1367-3.6094 2.5781-0.19141 0.074219-0.39062 0.10938-0.59375 0.10938-0.73828-0.007812-1.3711-0.53516-1.5156-1.2578-0.14062-0.72656 0.24219-1.4531 0.92188-1.7422 1.2031-0.5 1.8125-0.8125 2.1719-1.375 0.21094-0.37109 0.57031-0.64062 0.98438-0.74219 0.41797-0.10156 0.85547-0.03125 1.2188 0.20313 0.35938 0.23047 0.60938 0.60156 0.6875 1.0234 0.082031 0.41797-0.015625 0.85547-0.26562 1.2031zm48.297-43.984c-1.7227-0.77734-3.6367-1.0234-5.5-0.70312-13.328 2.2344-22.984 11.031-28.734 18.031-5.6641 6.707-12.52 12.312-20.219 16.531-12.578 7.0938-16.609 14.422-17.25 15.688-5.9688 7.9531 1.2812 20.25 1.6094 20.781 0.28125 0.46484 0.78516 0.74609 1.3281 0.75 0.13672 0 0.27344-0.015625 0.40625-0.046875 0.67969-0.17969 1.1562-0.79688 1.1562-1.5 0.18359-1.9688 1.3711-3.6992 3.1406-4.5781 1.9688-1.2227 4.2305-1.8984 6.5469-1.9531 7.5938-0.28125 15.328-4.4688 22.406-12.109 5.3164-5.7305 11.652-10.422 18.688-13.828 10.906-5.0352 18.91-14.789 21.719-26.469 0.99609-4.3438-1.2227-8.7852-5.2969-10.594zm-38.734 44.953-0.54688 0.96875c-1.2227 2.1562-2.7344 4.1328-4.5 5.875-2.6328 2.7188-6.0469 4.5508-9.7656 5.25l-2.2188 0.3125c-0.33203 0.046875-0.66406 0.074219-1 0.078125-3.082-0.042969-5.793-2.0586-6.7188-5-0.6875-2.0547-0.53125-4.2969 0.4375-6.2344 0.88281-1.7969 2.4453-3.1641 4.3438-3.7969l0.96875-0.3125c2.8516-0.9375 5.3594-2.707 7.2031-5.0781l0.48438-0.625c2.1484-2.8008 6.0742-3.5039 9.0625-1.625 3.3164 2.2734 4.3008 6.7305 2.25 10.188zm33.375-25.219-0.54688 1c-1.1914 2.2578-2.6914 4.3398-4.4531 6.1875-2.6211 2.8672-6.0664 4.8555-9.8594 5.6875l-2.2812 0.39062c-0.40625 0.074219-0.82031 0.10938-1.2344 0.10938-3.0742-0.042969-5.7969-2.0039-6.8125-4.9062-0.76562-2.0859-0.67188-4.3906 0.26562-6.4062 0.83984-1.8672 2.4023-3.3164 4.3281-4.0156l0.98438-0.34375c2.918-1.0664 5.457-2.9688 7.2969-5.4688l0.46875-0.65625c2.1133-2.9414 6.1172-3.7812 9.2344-1.9375 3.4492 2.2344 4.5898 6.7578 2.6094 10.359zm-4.2344-7.6875c-1.7305-1.0273-3.957-0.53516-5.0938 1.125l-0.48438 0.65625c-2.1953 3.0078-5.2422 5.2891-8.75 6.5469l-0.98438 0.35938c-1.1406 0.41406-2.0586 1.2773-2.5469 2.3906-0.58203 1.25-0.63672 2.6797-0.15625 3.9688 0.625 1.9375 2.5664 3.1367 4.5781 2.8281l2.25-0.39062c3.1562-0.71875 6.0156-2.3945 8.1875-4.7969 1.5625-1.6328 2.8906-3.4805 3.9375-5.4844l0.54688-1c1.2031-2.1367 0.55859-4.8438-1.4844-6.2031zm-5.3281 6.8594c-1 1.332-2.3789 2.3281-3.9531 2.8594-0.19922 0.082031-0.41016 0.12109-0.625 0.125-0.61719 0-1.1797-0.36328-1.4375-0.92188-0.16797-0.38281-0.17578-0.8125-0.023437-1.1992 0.15234-0.38672 0.45312-0.69922 0.83594-0.86328 0.95703-0.32422 1.8203-0.875 2.5156-1.6094 0.44531-0.74219 1.4062-0.98438 2.1484-0.53906 0.74219 0.44531 0.98437 1.4062 0.53906 2.1484zm-27.75 18.484c-1.6328-1.0273-3.7812-0.61719-4.9219 0.9375l-0.48438 0.625c-2.2305 2.8594-5.2578 4.9922-8.7031 6.125l-0.96875 0.3125c-1.1016 0.37109-2.0078 1.1719-2.5156 2.2188-0.59375 1.1914-0.6875 2.5664-0.26562 3.8281 0.55469 1.8672 2.3789 3.0625 4.3125 2.8281l2.2031-0.3125c3.0742-0.60938 5.8906-2.1484 8.0625-4.4062 1.5547-1.543 2.8906-3.293 3.9688-5.2031l0.54688-0.95312c1.2266-2.0156 0.6875-4.6328-1.2344-6zm-5.625 6.5938c-0.88672 1.2305-2.1562 2.1367-3.6094 2.5781-0.19141 0.074219-0.39062 0.10938-0.59375 0.10938-0.73828-0.007812-1.3711-0.53516-1.5156-1.2578-0.14062-0.72656 0.24219-1.4531 0.92188-1.7422 1.2031-0.5 1.8125-0.8125 2.1719-1.375 0.21094-0.37109 0.57031-0.64062 0.98438-0.74219 0.41797-0.10156 0.85547-0.03125 1.2188 0.20313 0.35938 0.23047 0.60938 0.60156 0.6875 1.0234 0.082031 0.41797-0.015625 0.85547-0.26562 1.2031zm5.625-6.5938c-1.6328-1.0273-3.7812-0.61719-4.9219 0.9375l-0.48438 0.625c-2.2305 2.8594-5.2578 4.9922-8.7031 6.125l-0.96875 0.3125c-1.1016 0.37109-2.0078 1.1719-2.5156 2.2188-0.59375 1.1914-0.6875 2.5664-0.26562 3.8281 0.55469 1.8672 2.3789 3.0625 4.3125 2.8281l2.2031-0.3125c3.0742-0.60938 5.8906-2.1484 8.0625-4.4062 1.5547-1.543 2.8906-3.293 3.9688-5.2031l0.54688-0.95312c1.2266-2.0156 0.6875-4.6328-1.2344-6zm-5.625 6.5938c-0.88672 1.2305-2.1562 2.1367-3.6094 2.5781-0.19141 0.074219-0.39062 0.10938-0.59375 0.10938-0.73828-0.007812-1.3711-0.53516-1.5156-1.2578-0.14062-0.72656 0.24219-1.4531 0.92188-1.7422 1.2031-0.5 1.8125-0.8125 2.1719-1.375 0.21094-0.37109 0.57031-0.64062 0.98438-0.74219 0.41797-0.10156 0.85547-0.03125 1.2188 0.20313 0.35938 0.23047 0.60938 0.60156 0.6875 1.0234 0.082031 0.41797-0.015625 0.85547-0.26562 1.2031zm5.625-6.5938c-1.6328-1.0273-3.7812-0.61719-4.9219 0.9375l-0.48438 0.625c-2.2305 2.8594-5.2578 4.9922-8.7031 6.125l-0.96875 0.3125c-1.1016 0.37109-2.0078 1.1719-2.5156 2.2188-0.59375 1.1914-0.6875 2.5664-0.26562 3.8281 0.55469 1.8672 2.3789 3.0625 4.3125 2.8281l2.2031-0.3125c3.0742-0.60938 5.8906-2.1484 8.0625-4.4062 1.5547-1.543 2.8906-3.293 3.9688-5.2031l0.54688-0.95312c1.2266-2.0156 0.6875-4.6328-1.2344-6zm-5.625 6.5938c-0.88672 1.2305-2.1562 2.1367-3.6094 2.5781-0.19141 0.074219-0.39062 0.10938-0.59375 0.10938-0.73828-0.007812-1.3711-0.53516-1.5156-1.2578-0.14062-0.72656 0.24219-1.4531 0.92188-1.7422 1.2031-0.5 1.8125-0.8125 2.1719-1.375 0.21094-0.37109 0.57031-0.64062 0.98438-0.74219 0.41797-0.10156 0.85547-0.03125 1.2188 0.20313 0.35938 0.23047 0.60938 0.60156 0.6875 1.0234 0.082031 0.41797-0.015625 0.85547-0.26562 1.2031z"/>
 <path d="m93.375 11.422-3.8125 4.4844c-0.98828 1.1523-1.8516 2.4023-2.5781 3.7344-1.0586-3.0391-3.3164-5.5078-6.25-6.8281-0.1875-0.09375-0.39062-0.17188-0.57812-0.25 2.6953-1.1758 5.1562-2.8281 7.2656-4.875l1.0156-1c0.61328-0.57812 1.5742-0.57812 2.1875 0l2.6562 2.5938c0.58203 0.58203 0.62109 1.5117 0.09375 2.1406z"/>
</g></svg>
