<?xml version="1.0" encoding="UTF-8"?>
<svg width="100pt" height="100pt" version="1.1" viewBox="0 0 100 100" xmlns="http://www.w3.org/2000/svg"><g fill="#1C1C1C" stroke="#1C1C1C" stroke-width="2.5" fill-rule="evenodd">
 <g>
  <path d="m30.949 52.008c3.2109 0 6.3398-1.0312 8.9141-2.918-2.6719-1.2734-5.8359-1.8203-8.9141-1.8203-2.8438 0-5.7578 0.46875-8.293 1.543-0.28125 0.11719-0.31641 0.49609-0.0625 0.66797 2.4609 1.6367 5.375 2.5273 8.3555 2.5273z"/>
  <path d="m37.238 74.062c0.035157-0.019531 0.070313-0.039062 0.10547-0.050781 4.4102-3.3398 9.3047-8.7031 9.3047-14.078 0-5.0195-2.3438-8.3008-5.6914-10.262-2.8438 2.2344-6.3789 3.4648-10.008 3.4648-3.457 0-6.832-1.1172-9.6016-3.1523-0.25-0.18359-0.58594-0.21094-0.84766-0.042969-3.1094 1.9883-5.25 5.1992-5.25 9.9961 0 8.75 12.973 17.473 15.699 17.473 1.0195 0 3.4688-1.2188 6.1367-3.1992 0.039062-0.058594 0.089843-0.10938 0.15234-0.14844z"/>
  <path d="m55.336 49.312c2.5938 0 4.7031-2.1094 4.7031-4.7031 0-1.9102-2.6758-7.1055-4.3789-10.148-0.14453-0.25781-0.51172-0.25781-0.65625 0-1.6992 3.043-4.3789 8.2383-4.3789 10.148 0.007812 2.5898 2.1172 4.7031 4.7109 4.7031z"/>
  <path d="m75.793 49.891c-0.22266-0.19922-0.54297-0.24219-0.8125-0.11328-0.72656 0.33984-1.8828 0.76172-3.1602 0.76172-0.35937 0-0.72656-0.035156-1.0977-0.10937-0.30469-0.0625-0.5-0.36328-0.4375-0.66797 0.0625-0.30469 0.36328-0.5 0.66797-0.4375 1.9219 0.40234 3.8672-0.71484 4.1602-0.89062 0.29688-0.28906 2.3828-2.3945 2.5781-4.7109 0.19922-2.3516-2.3125-5.4375-4.5234-6.4258-1.7383-0.77734-1.5703-1.9453-1.3555-3.4258 0.14844-1.0273 0.35156-2.4336 0.14453-4.4141-0.26953-2.5938-1.457-4.793-3.2539-6.0234-1.4141-0.97266-3.0664-1.2383-4.7773-0.77734-1.7227 0.46875-2.9297 1.3242-3.5859 2.543-1.3594 2.5312-0.16016 6.1562 0.41797 7.8984l0.10156 0.30469c0.45703 1.3945-0.16016 3.0352-1.582 4.3633-0.23828 0.22266-0.30078 0.57812-0.16016 0.87109 1.1016 2.3008 2.0547 4.668 2.0547 5.9727 0 3.2148-2.6172 5.832-5.832 5.832s-5.832-2.6172-5.832-5.832c0-1.3047 0.95313-3.6719 2.0547-5.9727 0.14062-0.29688 0.078125-0.64844-0.16016-0.87109-1.4258-1.3281-2.0391-2.9688-1.582-4.3633l0.10156-0.3125c0.57422-1.7422 1.7734-5.3672 0.41406-7.8945-0.65625-1.2188-1.8594-2.0703-3.582-2.5391-1.7109-0.46094-3.3633-0.19141-4.7812 0.78125-1.7969 1.2344-2.9805 3.4297-3.25 6.0234-0.20703 1.9844-0.003906 3.3906 0.14453 4.4141 0.21094 1.4805 0.37891 2.6484-1.3555 3.4219-2.2109 0.98828-4.7227 4.0781-4.5195 6.4258 0.058593 0.70703 0.30078 1.457 0.71484 2.2383 0.11328 0.21094 0.33203 0.35156 0.57031 0.37891 8.4141 1.0234 13.504 6.0391 13.504 13.598 0 5.2812-4.4258 10.664-8.8516 14.273-0.34375 0.27734-0.36328 0.79687-0.054688 1.1094 0.27734 0.28125 0.57422 0.51953 0.89062 0.71484 3.6953 2.2695 8.207 1.6719 10.496-1.3906 2.5195-3.3633 3.0547-6.8438 1.793-11.648-1.6484-6.293 2.2852-8.1289 3.0898-8.4336 0.12891-0.046875 0.26953-0.046875 0.39844 0 0.80469 0.30469 4.7461 2.1367 3.0898 8.4336-1.2578 4.7969-0.72266 8.2812 1.793 11.648 1.1445 1.5273 2.9375 2.5664 4.918 2.8477 1.9688 0.28125 3.9375-0.22656 5.543-1.4297 4.1133-3.0859 4.1367-7.6445 3.8398-9.9102-0.054687-0.42578-0.44922-0.71484-0.87109-0.64062-0.44922 0.078125-1 0.13672-1.6367 0.13672-0.90625 0-1.9844-0.12109-3.1875-0.47656-0.26953-0.078125-0.46094-0.33984-0.42578-0.61719 0.046875-0.35547 0.39453-0.56641 0.72266-0.46875 3.1953 0.95703 5.4297 0.03125 5.4531 0.023437 0.0625-0.023437 4.6562-1.9062 5.082-6.5898 0.29297-3.3477-2.6953-6.4062-4.0703-7.6289z"/>
 </g>
</g></svg>
