<?xml version="1.0" encoding="UTF-8"?>
<svg width="100pt" height="100pt" version="1.1" viewBox="0 0 100 100" xmlns="http://www.w3.org/2000/svg"><g fill="#1C1C1C" stroke="#1C1C1C" stroke-width="2.5" fill-rule="evenodd">
 <path d="m33.539 81.492h-10.043c-0.82812 0-1.5-0.67188-1.5-1.5v-3.8828c0-6.4375 5.2383-11.68 11.68-11.68h10.043c0.82812 0 1.5 0.67187 1.5 1.5v3.8828c0 6.4414-5.2383 11.68-11.68 11.68zm-8.543-3h8.5469c4.7852 0 8.6797-3.8945 8.6797-8.6797v-2.3828h-8.543c-4.7852 0-8.6797 3.8945-8.6797 8.6797z"/>
 <path d="m23.496 81.492h-10.047c-6.4375 0-11.68-5.2383-11.68-11.68v-3.8828c0-0.82813 0.67188-1.5 1.5-1.5h10.043c6.4414 0 11.68 5.2383 11.68 11.68v3.8828c0.003906 0.82812-0.66797 1.5-1.4961 1.5zm-18.723-14.059v2.3828c0 4.7852 3.8945 8.6797 8.6797 8.6797h8.5469v-2.3828c0-4.7852-3.8945-8.6797-8.6797-8.6797z"/>
 <path d="m33.539 67.438h-10.043c-0.82812 0-1.5-0.67188-1.5-1.5v-3.8828c0-6.4414 5.2383-11.68 11.68-11.68h10.043c0.82812 0 1.5 0.67188 1.5 1.5v3.8828c0 6.4375-5.2383 11.68-11.68 11.68zm-8.543-3h8.5469c4.7852 0 8.6797-3.8945 8.6797-8.6797v-2.3828h-8.543c-4.7852 0-8.6797 3.8945-8.6797 8.6797z"/>
 <path d="m23.496 67.438h-10.047c-6.4375 0-11.68-5.2383-11.68-11.68v-3.8828c0-0.82812 0.67188-1.5 1.5-1.5h10.043c6.4414 0 11.68 5.2383 11.68 11.68v3.8828c0.003906 0.82812-0.66797 1.5-1.4961 1.5zm-18.723-14.062v2.3828c0 4.7852 3.8945 8.6797 8.6797 8.6797h8.5469v-2.3828c0-4.7852-3.8945-8.6797-8.6797-8.6797z"/>
 <path d="m33.539 53.375h-10.043c-0.82812 0-1.5-0.67188-1.5-1.5v-3.8789c0-6.4414 5.2383-11.68 11.68-11.68h10.043c0.82812 0 1.5 0.67188 1.5 1.5v3.8828c0 6.4375-5.2383 11.676-11.68 11.676zm-8.543-3h8.5469c4.7852 0 8.6797-3.8945 8.6797-8.6797v-2.3828h-8.543c-4.7852 0-8.6797 3.8945-8.6797 8.6797z"/>
 <path d="m23.496 53.375h-10.047c-6.4375 0-11.68-5.2383-11.68-11.68v-3.8828c0-0.82812 0.67188-1.5 1.5-1.5h10.043c6.4414 0 11.68 5.2383 11.68 11.68v3.8789c0.003906 0.83203-0.66797 1.5039-1.4961 1.5039zm-18.723-14.059v2.3828c0 4.7852 3.8945 8.6797 8.6797 8.6797h8.5469v-2.3789c0-4.7852-3.8945-8.6797-8.6797-8.6797z"/>
 <path d="m33.539 39.316h-10.043c-0.82812 0-1.5-0.67188-1.5-1.5v-3.8828c0-6.4375 5.2383-11.68 11.68-11.68h10.043c0.82812 0 1.5 0.67188 1.5 1.5v3.8828c0 6.4414-5.2383 11.68-11.68 11.68zm-8.543-3h8.5469c4.7852 0 8.6797-3.8945 8.6797-8.6797v-2.3828h-8.543c-4.7852 0-8.6797 3.8945-8.6797 8.6797z"/>
 <path d="m23.496 39.316h-10.047c-6.4375 0-11.68-5.2383-11.68-11.68v-3.8828c0-0.82812 0.67188-1.5 1.5-1.5h10.043c6.4414 0 11.68 5.2383 11.68 11.68v3.8828c0.003906 0.82812-0.66797 1.5-1.4961 1.5zm-18.723-14.059v2.3828c0 4.7852 3.8945 8.6797 8.6797 8.6797h8.5469v-2.3828c0-4.7852-3.8945-8.6797-8.6797-8.6797z"/>
 <path d="m23.496 28.312c-4.7422 0-8.5977-3.8555-8.5977-8.5977 0-4.2812 6.625-13.609 7.3789-14.66 0.5625-0.78125 1.8711-0.78516 2.4336 0 0.75781 1.0508 7.3828 10.379 7.3828 14.66 0 4.7383-3.8594 8.5977-8.5977 8.5977zm0-19.754c-2.5352 3.7656-5.5977 9.0156-5.5977 11.156 0 3.0859 2.5117 5.5977 5.5977 5.5977 3.0859 0 5.5977-2.5117 5.5977-5.5977 0-2.1445-3.0625-7.3945-5.5977-11.156z"/>
 <path d="m23.496 95.07c-0.82812 0-1.5-0.67187-1.5-1.5v-65.473c0-0.82812 0.67188-1.5 1.5-1.5s1.5 0.67188 1.5 1.5v65.477c0 0.82422-0.67188 1.4961-1.5 1.4961z"/>
 <path d="m3.2734 25.258c-0.82813 0-1.5-0.67187-1.5-1.5v-7.3867c0-0.82812 0.67187-1.5 1.5-1.5 0.82812 0 1.5 0.67188 1.5 1.5v7.3867c0 0.82813-0.67188 1.5-1.5 1.5z"/>
 <path d="m43.719 25.258c-0.82812 0-1.5-0.67187-1.5-1.5v-7.3867c0-0.82812 0.67188-1.5 1.5-1.5s1.5 0.67188 1.5 1.5v7.3867c0 0.82813-0.67188 1.5-1.5 1.5z"/>
 <path d="m86.215 81.492h-10.043c-0.82812 0-1.5-0.67188-1.5-1.5v-3.8828c0-6.4375 5.2383-11.68 11.68-11.68h10.047c0.82812 0 1.5 0.67187 1.5 1.5v3.8828c-0.003907 6.4414-5.2422 11.68-11.684 11.68zm-8.543-3h8.5469c4.7852 0 8.6797-3.8945 8.6797-8.6797v-2.3828l-8.5469 0.003906c-4.7852 0-8.6797 3.8945-8.6797 8.6797z"/>
 <path d="m76.172 81.492h-10.043c-6.4375 0-11.68-5.2383-11.68-11.68v-3.8828c0-0.82813 0.67188-1.5 1.5-1.5h10.043c6.4414 0 11.68 5.2383 11.68 11.68v3.8828c0 0.82812-0.67188 1.5-1.5 1.5zm-18.723-14.059v2.3828c0 4.7852 3.8945 8.6797 8.6797 8.6797h8.543v-2.3828c0-4.7852-3.8945-8.6797-8.6797-8.6797z"/>
 <path d="m86.215 67.438h-10.043c-0.82812 0-1.5-0.67188-1.5-1.5v-3.8828c0-6.4414 5.2383-11.68 11.68-11.68h10.047c0.82812 0 1.5 0.67188 1.5 1.5v3.8828c-0.003907 6.4375-5.2422 11.68-11.684 11.68zm-8.543-3h8.5469c4.7852 0 8.6797-3.8945 8.6797-8.6797v-2.3828h-8.5469c-4.7852 0-8.6797 3.8945-8.6797 8.6797z"/>
 <path d="m76.172 67.438h-10.043c-6.4375 0-11.68-5.2383-11.68-11.68v-3.8828c0-0.82812 0.67188-1.5 1.5-1.5h10.043c6.4414 0 11.68 5.2383 11.68 11.68v3.8828c0 0.82812-0.67188 1.5-1.5 1.5zm-18.723-14.062v2.3828c0 4.7852 3.8945 8.6797 8.6797 8.6797h8.543v-2.3828c0-4.7852-3.8945-8.6797-8.6797-8.6797z"/>
 <path d="m86.215 53.375h-10.043c-0.82812 0-1.5-0.67188-1.5-1.5v-3.8789c0-6.4414 5.2383-11.68 11.68-11.68h10.047c0.82812 0 1.5 0.67188 1.5 1.5v3.8828c-0.003907 6.4375-5.2422 11.676-11.684 11.676zm-8.543-3h8.5469c4.7852 0 8.6797-3.8945 8.6797-8.6797v-2.3828l-8.5469 0.003906c-4.7852 0-8.6797 3.8945-8.6797 8.6797z"/>
 <path d="m76.172 53.375h-10.043c-6.4375 0-11.68-5.2383-11.68-11.68v-3.8828c0-0.82812 0.67188-1.5 1.5-1.5h10.043c6.4414 0 11.68 5.2383 11.68 11.68v3.8789c0 0.83203-0.67188 1.5039-1.5 1.5039zm-18.723-14.059v2.3828c0 4.7852 3.8945 8.6797 8.6797 8.6797h8.543v-2.3789c0-4.7852-3.8945-8.6797-8.6797-8.6797z"/>
 <path d="m86.215 39.316h-10.043c-0.82812 0-1.5-0.67188-1.5-1.5v-3.8828c0-6.4375 5.2383-11.68 11.68-11.68h10.047c0.82812 0 1.5 0.67188 1.5 1.5v3.8828c-0.003907 6.4414-5.2422 11.68-11.684 11.68zm-8.543-3h8.5469c4.7852 0 8.6797-3.8945 8.6797-8.6797v-2.3828l-8.5469 0.003906c-4.7852 0-8.6797 3.8945-8.6797 8.6797z"/>
 <path d="m76.172 39.316h-10.043c-6.4375 0-11.68-5.2383-11.68-11.68v-3.8828c0-0.82812 0.67188-1.5 1.5-1.5h10.043c6.4414 0 11.68 5.2383 11.68 11.68v3.8828c0 0.82812-0.67188 1.5-1.5 1.5zm-18.723-14.059v2.3828c0 4.7852 3.8945 8.6797 8.6797 8.6797h8.543v-2.3828c0-4.7852-3.8945-8.6797-8.6797-8.6797z"/>
 <path d="m76.172 28.312c-4.7422 0-8.5977-3.8555-8.5977-8.5977 0-4.2812 6.625-13.609 7.3828-14.66 0.5625-0.78516 1.8711-0.78516 2.4375 0 0.75391 1.0508 7.3828 10.379 7.3828 14.66-0.007813 4.7383-3.8672 8.5977-8.6055 8.5977zm0-19.754c-2.5352 3.7656-5.5977 9.0156-5.5977 11.156 0 3.0859 2.5117 5.5977 5.5977 5.5977s5.5977-2.5117 5.5977-5.5977c0-2.1445-3.0625-7.3945-5.5977-11.156z"/>
 <path d="m76.172 95.07c-0.82812 0-1.5-0.67187-1.5-1.5v-65.473c0-0.82812 0.67188-1.5 1.5-1.5s1.5 0.67188 1.5 1.5v65.477c0 0.82422-0.67188 1.4961-1.5 1.4961z"/>
 <path d="m55.949 25.258c-0.82812 0-1.5-0.67187-1.5-1.5v-7.3867c0-0.82812 0.67188-1.5 1.5-1.5s1.5 0.67188 1.5 1.5v7.3867c0 0.82813-0.67188 1.5-1.5 1.5z"/>
 <path d="m96.395 25.258c-0.82812 0-1.5-0.67187-1.5-1.5v-7.3867c0-0.82812 0.67188-1.5 1.5-1.5s1.5 0.67188 1.5 1.5v7.3867c0 0.82813-0.67188 1.5-1.5 1.5z"/>
</g></svg>
