<?xml version="1.0" encoding="UTF-8"?>
<svg width="100pt" height="100pt" version="1.1" viewBox="0 0 100 100" xmlns="http://www.w3.org/2000/svg"><g fill="#1C1C1C" stroke="#1C1C1C" stroke-width="2.5" fill-rule="evenodd">
 <g>
  <path d="m85.512 23.281c-0.30078-0.11719-0.64062 0.035156-0.75781 0.33984-0.67188 1.7617-2.1367 3.0781-3.8906 3.6133 0.78906-0.94141 1.3633-2.0547 1.6758-3.2578 0.082032-0.3125-0.10937-0.63281-0.42187-0.71484s-0.63281 0.10938-0.71484 0.42188c-0.36719 1.4219-1.1719 2.7031-2.2773 3.6484-1.1094-0.94531-1.9102-2.2266-2.2773-3.6484-0.082031-0.3125-0.40234-0.50391-0.71484-0.42188s-0.50391 0.40234-0.42187 0.71484c0.3125 1.2031 0.88672 2.3164 1.6758 3.2578-1.7539-0.53516-3.2188-1.8555-3.8906-3.6133-0.11719-0.30078-0.45312-0.45312-0.75781-0.33984-0.30078 0.11719-0.45312 0.45312-0.33984 0.75781 0.51562 1.3477 1.4102 2.4961 2.5977 3.3281 0.98047 0.6875 2.1055 1.1133 3.2852 1.2539-4.4688 10.855-14.664 18.32-26.031 19.199 7.1133-4.8594 12.758-14.898 12.902-23.324 1.2734-0.10156 2.4883-0.53906 3.5391-1.2773 1.1875-0.82812 2.0859-1.9805 2.5977-3.3281 0.11719-0.30078-0.035156-0.64062-0.33984-0.75781-0.30078-0.11719-0.64062 0.035157-0.75781 0.33984-0.67188 1.7617-2.1367 3.0781-3.8906 3.6133 0.78516-0.94141 1.3633-2.0547 1.6758-3.2578 0.082032-0.3125-0.10937-0.63281-0.42187-0.71484s-0.63281 0.10938-0.71484 0.42188c-0.36719 1.4219-1.1719 2.7031-2.2773 3.6484-1.1094-0.94531-1.9102-2.2266-2.2773-3.6484-0.082031-0.3125-0.40234-0.50391-0.71484-0.42188s-0.50391 0.40234-0.42187 0.71484c0.3125 1.2031 0.88672 2.3164 1.6758 3.2578-1.7539-0.53516-3.2188-1.8555-3.8906-3.6133-0.11719-0.30078-0.45312-0.45312-0.75781-0.33984-0.30078 0.11719-0.45312 0.45313-0.33984 0.75781 0.51562 1.3477 1.4102 2.4961 2.5977 3.3281 1.0547 0.73828 2.2695 1.1758 3.543 1.2773-0.14844 8.4766-6.1016 18.652-13.391 23l0.007812-25.91c1.2734-0.10156 2.4844-0.53906 3.5391-1.2773 1.1875-0.82812 2.0859-1.9805 2.5977-3.3281 0.11719-0.30078-0.035157-0.64062-0.33984-0.75781-0.30078-0.11719-0.64062 0.035156-0.75781 0.33984-0.67187 1.7617-2.1367 3.0781-3.8906 3.6133 0.78906-0.94141 1.3633-2.0547 1.6758-3.2578 0.082031-0.3125-0.10938-0.63281-0.42188-0.71484s-0.63281 0.10938-0.71484 0.42188c-0.36719 1.4219-1.1719 2.7031-2.2773 3.6484-1.1094-0.94531-1.9102-2.2266-2.2773-3.6484-0.082031-0.3125-0.40234-0.50391-0.71484-0.42188s-0.50391 0.40234-0.42188 0.71484c0.3125 1.2031 0.88672 2.3164 1.6758 3.2578-1.7539-0.53516-3.2188-1.8555-3.8906-3.6133-0.11719-0.30078-0.45312-0.45312-0.75781-0.33984-0.30078 0.11719-0.45313 0.45312-0.33984 0.75781 0.51562 1.3477 1.4102 2.4961 2.5977 3.3281 1.0547 0.73828 2.2695 1.1758 3.543 1.2773v25.898c-6.7422-4.1133-12.555-14.082-13.348-22.996 1.2578-0.10938 2.457-0.54297 3.4961-1.2734 1.1875-0.82812 2.0859-1.9805 2.5977-3.3281 0.11719-0.30078-0.035156-0.64062-0.33984-0.75781-0.30078-0.11719-0.64062 0.035156-0.75781 0.33984-0.67188 1.7617-2.1367 3.0781-3.8906 3.6133 0.78906-0.94141 1.3633-2.0547 1.6758-3.2578 0.082032-0.3125-0.10937-0.63281-0.42187-0.71484s-0.63281 0.10938-0.71484 0.42188c-0.36719 1.4219-1.1719 2.7031-2.2773 3.6484-1.1094-0.94531-1.9102-2.2266-2.2773-3.6484-0.082031-0.3125-0.40234-0.50391-0.71484-0.42188s-0.50391 0.40234-0.42187 0.71484c0.3125 1.2031 0.88672 2.3164 1.6758 3.2578-1.7539-0.53516-3.2188-1.8555-3.8906-3.6133-0.11719-0.30078-0.45312-0.45312-0.75781-0.33984-0.30078 0.11719-0.45312 0.45312-0.33984 0.75781 0.51562 1.3477 1.4102 2.4961 2.5977 3.3281 1.0625 0.74609 2.293 1.1836 3.582 1.2812 0.39453 4.6406 2.0859 9.668 4.793 14.215 1.3594 2.2812 2.9062 4.3281 4.5977 6.0781 1.1406 1.1836 2.3125 2.1953 3.5078 3.0312-11.379-0.86719-21.598-8.3359-26.07-19.199 1.1797-0.13672 2.3047-0.5625 3.2852-1.2539 1.1875-0.82813 2.0859-1.9805 2.5977-3.3281 0.11719-0.30078-0.035156-0.64062-0.33984-0.75781-0.30078-0.11719-0.64062 0.035156-0.75781 0.33984-0.67188 1.7617-2.1367 3.0781-3.8906 3.6133 0.78516-0.94141 1.3633-2.0547 1.6758-3.2578 0.082032-0.3125-0.10937-0.63281-0.42187-0.71484s-0.63281 0.10938-0.71484 0.42188c-0.36719 1.4219-1.1719 2.7031-2.2773 3.6484-1.1094-0.94531-1.9102-2.2266-2.2773-3.6484-0.082031-0.3125-0.40234-0.50391-0.71484-0.42188s-0.50391 0.40234-0.42187 0.71484c0.3125 1.2031 0.88672 2.3164 1.6758 3.2578-1.7383-0.53125-3.2031-1.8555-3.875-3.6133-0.11719-0.30078-0.45312-0.45312-0.75781-0.33984-0.30078 0.11719-0.45312 0.45312-0.33984 0.75781 0.51563 1.3477 1.4102 2.4961 2.5977 3.3281 1.1016 0.77344 2.3789 1.2148 3.7188 1.2891 1.1211 2.8242 2.6367 5.4844 4.5117 7.9141 1.9453 2.5195 4.2344 4.7344 6.8047 6.582 2.6172 1.8828 5.4766 3.3477 8.4922 4.3516 2.957 0.98047 6.0273 1.5117 9.1406 1.5664v34.164c0 0.32422 0.26172 0.58594 0.58594 0.58594s0.58594-0.26172 0.58594-0.58594v-34.164c3.1094-0.058593 6.1797-0.58594 9.1328-1.5664 3.0156-1.0039 5.875-2.4648 8.4922-4.3516 2.5703-1.8477 4.8594-4.0625 6.8047-6.5859 1.875-2.4297 3.3906-5.0898 4.5117-7.9141 1.3398-0.074219 2.6172-0.51562 3.7188-1.2891 1.1875-0.82812 2.0859-1.9805 2.5977-3.3281 0.10547-0.30078-0.046875-0.64062-0.34766-0.75391z"/>
  <path d="m76.727 58.555c-0.51172-0.48047-1.1836-0.72656-1.8984-0.69531-0.69531 0.03125-1.3516 0.31641-1.8438 0.8125l-4.3281 4.3281c-0.28906 0.28906-0.69141 0.38672-1.0781 0.26562s-0.66016-0.43359-0.73047-0.83594l-0.10938-0.625c-0.25391-1.4375-1.6289-2.3984-3.0625-2.1445-1.4375 0.25391-2.3984 1.6289-2.1445 3.0625l1.0156 5.7461c0.058594 0.34375-0.050781 0.69531-0.29297 0.94141l-0.003906 0.003906c-0.28906 0.28906-0.69531 0.38672-1.082 0.26172-0.39062-0.125-0.66016-0.44141-0.72656-0.84375l-0.50391-3.0156c-0.125-0.74609-0.56641-1.4062-1.2109-1.8086-0.64453-0.40234-1.4336-0.50781-2.1641-0.28516-1.2695 0.37891-2.0547 1.6836-1.8281 3.0352l0.15625 0.9375c0.84375 5.0742-0.17578 10.285-2.8711 14.664l-0.35156 0.57031c-0.14062 0.23047-0.10938 0.53125 0.085937 0.72266 0.11328 0.11328 0.26562 0.17188 0.41406 0.17188 0.10547 0 0.21094-0.027344 0.30469-0.085938l0.57031-0.35156c4.3828-2.6953 9.5898-3.7148 14.664-2.8711l0.92188 0.15234c0.6875 0.11328 1.3867-0.03125 1.9727-0.41016 0.60156-0.39062 1.0078-0.98437 1.1406-1.6719 0.14062-0.70703-0.011719-1.4258-0.42188-2.0195-0.41016-0.59375-1.0273-0.98438-1.7383-1.1016l-3.0156-0.50391c-0.40234-0.066407-0.71875-0.33984-0.84375-0.72656-0.125-0.39062-0.027344-0.79297 0.26172-1.0859l0.003906-0.003907c0.24609-0.24609 0.59766-0.35547 0.94141-0.29688l5.7461 1.0117c0.15234 0.027344 0.30859 0.039063 0.46094 0.039063 1.2578 0 2.3789-0.90234 2.6055-2.1875 0.25391-1.4375-0.71094-2.8086-2.1445-3.0625l-0.62109-0.10938c-0.39844-0.070312-0.71094-0.34375-0.83594-0.73047-0.12109-0.38672-0.023437-0.78906 0.26562-1.0781l4.3867-4.3867c0.51172-0.51172 0.78516-1.1875 0.77344-1.9102-0.019531-0.71484-0.3125-1.3828-0.83984-1.8789zm-0.77344 2.9648-4.3867 4.3867c-0.59375 0.59375-0.80469 1.4609-0.55078 2.2617s0.92578 1.3867 1.75 1.5352l0.62109 0.10938c0.79688 0.14062 1.3359 0.90625 1.1953 1.7031s-0.90625 1.3359-1.7031 1.1953l-5.7461-1.0117c-0.71875-0.125-1.457 0.10547-1.9727 0.62109 0 0-0.003906 0.003907-0.003906 0.003907-0.59375 0.59766-0.80469 1.4648-0.54688 2.2695s0.9375 1.3867 1.7695 1.5273l3.0156 0.50391c0.39453 0.066406 0.73828 0.28516 0.96875 0.61328 0.22656 0.32812 0.3125 0.72656 0.23438 1.125-0.15234 0.77344-0.94531 1.2891-1.7695 1.1523l-0.92188-0.15234c-4.8398-0.80469-9.793-0.003906-14.113 2.2578 2.2617-4.3203 3.0625-9.2773 2.2578-14.113l-0.15625-0.9375c-0.12891-0.76953 0.30469-1.5078 1.0117-1.7148 0.41406-0.125 0.84766-0.066407 1.207 0.15625 0.35938 0.22266 0.60547 0.59375 0.67578 1.0078l0.50391 3.0156c0.13672 0.83203 0.72266 1.5117 1.5273 1.7695 0.22656 0.070312 0.45703 0.10937 0.6875 0.10937 0.58203 0 1.1484-0.22656 1.5781-0.65234 0.003906-0.003907 0.003906-0.003907 0.003906-0.003907 0.51562-0.51562 0.75-1.2578 0.62109-1.9766l-1.0156-5.7461c-0.14062-0.79688 0.39453-1.5625 1.1953-1.7031s1.5625 0.39453 1.7031 1.1953l0.10938 0.625c0.14453 0.82422 0.73438 1.4961 1.5352 1.75 0.22266 0.070312 0.45312 0.10547 0.67969 0.10547 0.58594 0 1.1523-0.23047 1.582-0.65625l4.3281-4.3281c0.58984-0.58984 1.5352-0.63281 2.1094-0.09375 0.29297 0.27734 0.45703 0.64844 0.46484 1.0508-0.011719 0.37891-0.16406 0.75391-0.44922 1.0391z"/>
  <path d="m48.043 72.137c-2.6953-4.3828-3.7148-9.5898-2.8711-14.664l0.15625-0.9375c0.22266-1.3516-0.5625-2.6523-1.8281-3.0352-0.73047-0.21875-1.5234-0.11328-2.1641 0.28516-0.64453 0.40234-1.0859 1.0625-1.2109 1.8086l-0.50391 3.0156c-0.066406 0.40234-0.33984 0.71875-0.72656 0.84375-0.39062 0.125-0.79297 0.027344-1.0859-0.26172-0.24609-0.24609-0.35938-0.59766-0.29688-0.94141l1.0156-5.7461c0.25391-1.4375-0.71094-2.8086-2.1445-3.0625-1.4375-0.25391-2.8086 0.71094-3.0625 2.1445l-0.10937 0.625c-0.070313 0.39844-0.34375 0.71094-0.73047 0.83594-0.38672 0.12109-0.78906 0.023437-1.0781-0.26562l-4.3281-4.3281c-0.49219-0.49219-1.1484-0.78125-1.8438-0.8125-0.71484-0.03125-1.3906 0.21484-1.8984 0.69531-0.52734 0.49609-0.82031 1.1641-0.83203 1.8867s0.26562 1.3984 0.77344 1.9102l4.3867 4.3867c0.28906 0.28906 0.38672 0.69141 0.26562 1.0781-0.12109 0.38672-0.43359 0.66016-0.83594 0.73047l-0.62109 0.10938c-1.4375 0.25391-2.3984 1.625-2.1445 3.0625 0.22656 1.2812 1.3438 2.1875 2.6055 2.1875 0.15234 0 0.30469-0.015625 0.46094-0.039062l5.7461-1.0117c0.34375-0.058594 0.69531 0.050781 0.94141 0.29688l0.003906 0.003906c0.28906 0.28906 0.38672 0.69531 0.26172 1.082-0.125 0.39062-0.44141 0.66016-0.84375 0.72656l-3.0156 0.50391c-0.71094 0.11719-1.3281 0.51172-1.7383 1.1016-0.41016 0.59375-0.55859 1.3086-0.42188 2.0195 0.13672 0.6875 0.53906 1.2812 1.1406 1.6719 0.58594 0.37891 1.2852 0.52734 1.9727 0.41016l0.92188-0.15234c5.0742-0.84375 10.285 0.17578 14.664 2.8711l0.57031 0.35156c0.09375 0.058593 0.20312 0.085937 0.30469 0.085937 0.15234 0 0.30078-0.058594 0.41406-0.17188 0.19141-0.19141 0.22656-0.48828 0.085938-0.72266zm-12.191-3.3008c-1.2305 0-2.4648 0.10156-3.6914 0.30469l-0.92188 0.15234c-0.82422 0.13672-1.6172-0.37891-1.7695-1.1523-0.078125-0.39453 0.007812-0.79297 0.23438-1.125 0.22656-0.32812 0.57031-0.54688 0.96875-0.61328l3.0156-0.50391c0.83203-0.13672 1.5117-0.72266 1.7695-1.5273 0.25781-0.80078 0.046875-1.6719-0.54688-2.2695l-0.003906-0.003906c-0.51562-0.51562-1.2539-0.75-1.9727-0.62109l-5.7461 1.0117c-0.79688 0.14062-1.5625-0.39453-1.7031-1.1953-0.14062-0.79688 0.39453-1.5625 1.1953-1.7031l0.62109-0.10938c0.82422-0.14453 1.4961-0.73438 1.75-1.5352 0.25391-0.80078 0.039063-1.6641-0.55078-2.2617l-4.3945-4.3828c-0.28516-0.28516-0.4375-0.66016-0.42969-1.0625 0.007813-0.40234 0.17188-0.77344 0.46484-1.0508 0.57031-0.53906 1.5195-0.49609 2.1094 0.09375l4.3281 4.3281c0.59375 0.59375 1.4609 0.80469 2.2617 0.55469 0.80078-0.25391 1.3867-0.92187 1.5352-1.75l0.10938-0.625c0.14062-0.79687 0.90625-1.3359 1.7031-1.1953s1.3359 0.90625 1.1953 1.7031l-1.0156 5.7461c-0.125 0.71875 0.10547 1.457 0.62109 1.9766 0.59766 0.59766 1.4648 0.80859 2.2695 0.55078 0.80469-0.25781 1.3906-0.9375 1.5273-1.7695l0.50391-3.0156c0.070313-0.41406 0.31641-0.78516 0.67578-1.0078 0.36328-0.22656 0.79297-0.28125 1.207-0.15625 0.70312 0.21094 1.1367 0.94922 1.0117 1.7148l-0.15625 0.9375c-0.80469 4.8398-0.003906 9.793 2.2578 14.113-3.2383-1.6797-6.8164-2.5508-10.434-2.5508z"/>
 </g>
</g></svg>
