<?xml version="1.0" encoding="UTF-8"?>
<svg width="100pt" height="100pt" version="1.1" viewBox="0 0 100 100" xmlns="http://www.w3.org/2000/svg">
 <g>
  <path d="m29.484 57.938c2.1914 1.8203 3.8086 2.9023 4.9883 3.6914 1.793 1.1953 2.8125 1.8789 3.6602 3.582 0.13672 0.27734 0.53516 0.27734 0.67188 0 0.84766-1.707 1.8672-2.3867 3.6602-3.582 1.1797-0.78906 2.8008-1.8711 4.9883-3.6914 3.668-3.0547 9.6289-9.3438 8.3125-17.137-0.96875-5.7305-5.2227-8.707-11.379-7.9688-1.8008 0.21484-3.3164-0.66016-4.2695-1.4297-0.28516-0.23438-0.62109-0.39062-0.97656-0.48438-0.046875 0.035156-0.066406 0.050781-0.11328 0.089843v5.6289c4.1484 0.30078 10.398 4.9102 10.676 5.1133 0.25 0.1875 0.30078 0.53906 0.11719 0.78906-0.10937 0.14844-0.28125 0.22656-0.45312 0.22656-0.11719 0-0.23438-0.035156-0.33594-0.11328-0.0625-0.046875-6.207-4.582-10.004-4.8945v6.0352c2.7852 0.17969 8.1875 4.2188 8.8438 4.7148 0.25 0.1875 0.29688 0.54297 0.10938 0.78906-0.10938 0.14453-0.28125 0.22266-0.44922 0.22266-0.11719 0-0.23828-0.039062-0.33984-0.11328-2.3281-1.7656-6.3867-4.375-8.1602-4.4922v5.1719c1.4648 0.57422 3.8984 3.3438 5.3438 5.1094 0.19922 0.24219 0.16406 0.59766-0.078125 0.79297-0.10547 0.085938-0.23047 0.12891-0.35547 0.12891-0.16406 0-0.32422-0.070313-0.4375-0.20703-1.5586-1.9023-3.5039-3.9375-4.4727-4.5898v10.078c0 0.3125-0.25391 0.5625-0.5625 0.5625-0.3125 0-0.5625-0.25391-0.5625-0.5625v-10.066c-0.95703 0.67578-2.8828 2.6914-4.4297 4.5781-0.11328 0.13672-0.27344 0.20703-0.4375 0.20703-0.125 0-0.25391-0.042969-0.35547-0.12891-0.24219-0.19922-0.27734-0.55078-0.078125-0.79297 1.4336-1.7461 3.832-4.4688 5.3008-5.0859v-5.1875c-1.7969 0.16016-5.8086 2.7383-8.1172 4.4883-0.10156 0.078125-0.22266 0.11328-0.33984 0.11328-0.17188 0-0.33984-0.078126-0.44922-0.22266-0.1875-0.25-0.14062-0.60156 0.10938-0.78906 0.65234-0.49219 6.0039-4.4883 8.7969-4.7109v-6.0312c-3.793 0.34766-9.8945 4.8398-9.957 4.8867-0.10156 0.074219-0.21875 0.11328-0.33594 0.11328-0.17188 0-0.34375-0.078125-0.45312-0.22656-0.1875-0.25-0.13281-0.60156 0.11719-0.78906 0.27344-0.20312 6.4844-4.7852 10.629-5.1133v-5.6328c-0.046875-0.035156-0.066406-0.050781-0.10938-0.085937-0.35547 0.09375-0.6875 0.25-0.96875 0.48047-0.95312 0.77344-2.4688 1.6484-4.2695 1.4336-0.62109-0.074219-1.2188-0.10938-1.8008-0.10938-5.1797 0-8.7109 2.9297-9.582 8.082-1.3203 7.7891 4.6406 14.074 8.3086 17.129z"/>
  <path d="m74.484 32.574c-0.80078 0-1.5625 0.20312-2.2578 0.60156-1.4375 0.82422-2.2734 2.4062-2.2734 4.0625v1.1328c1.6445 1.0273 2.6523 2.832 2.6523 4.793v31.914c0 0.32422 0.20312 0.61719 0.51172 0.71484 0.57031 0.18359 1.1758 0.25391 1.8086 0.19531 2.3438-0.22656 4.0859-2.2852 4.0859-4.6367v-34.117c0-1.6562-0.83594-3.2383-2.2734-4.0625-0.69531-0.39453-1.4531-0.59766-2.2539-0.59766z"/>
  <path d="m69.125 39.191c-0.66016-0.36328-1.4102-0.55469-2.168-0.55469-0.46094 0-0.91016 0.066406-1.3398 0.19922-0.28125 0.085937-0.55859 0.20703-0.82813 0.35547-1.457 0.79297-2.3633 2.3164-2.3633 3.9766v34.379c0 2.4961 2.0312 4.5312 4.5312 4.5312 2.4961 0 4.5273-2.0312 4.5273-4.5312l-0.003906-34.379c0-1.6602-0.90234-3.1836-2.3555-3.9766z"/>
  <path d="m39.406 29.355v-9.5547h21.527c3.043 1.0977 5.0781 3.9805 5.0781 7.2266v6.1641c0 0.23828 0.21484 0.40625 0.44922 0.36719 0.16016-0.027344 0.32422-0.039063 0.48828-0.039063 0.16797 0 0.32812 0.015625 0.48828 0.039063 0.23438 0.039062 0.45312-0.12891 0.45312-0.36719v-6.1641c0-2.6836-1.125-5.168-2.9844-6.9375 3.8555 0.89844 7.0273 3.8164 8.1758 7.6719 0.0625 0.20703 0.27344 0.32812 0.47656 0.26562 0.30078-0.09375 0.59375-0.10156 0.90234-0.14062 0.5-0.066407 0.46875-0.51172 0.34766-0.88672-0.13281-0.41797-0.28906-0.83203-0.46484-1.2344-0.34766-0.79688-0.77344-1.5547-1.2695-2.2656-0.98438-1.4062-2.25-2.6094-3.6953-3.5352-1.4609-0.92969-3.1016-1.5703-4.8086-1.8633-0.71875-0.12109-1.4492-0.18359-2.1758-0.18359l-23.93 0.003906c-0.51953 0-0.94141 0.42188-0.94141 0.94141v10.496c0 0.22656 0.19922 0.40234 0.42187 0.37109 0.17188-0.023438 0.34375-0.035157 0.51563-0.035157 0.17578 0 0.34766 0.011719 0.51562 0.035157 0.23438 0.027343 0.42969-0.14844 0.42969-0.375z"/>
  <path d="m39.137 30.914c-0.035157-0.007812-0.070313-0.019531-0.10547-0.027343v0.11719c0.039062-0.03125 0.074219-0.058594 0.10547-0.089844z"/>
  <path d="m37.902 31.004v-0.11328c-0.035156 0.007813-0.070313 0.019531-0.10547 0.027344 0.035156 0.027343 0.070313 0.058593 0.10547 0.085937z"/>
  <path d="m74.934 29.082c-0.14844-0.039062-0.30469-0.066406-0.46484-0.066406-0.0625 0-0.12109 0.003906-0.18359 0.007813-0.22656 0.019531-0.4375 0.085937-0.63281 0.17969-0.63281 0.30078-1.0586 0.94531-1.0586 1.6875v0.375c0 0.24219 0.23047 0.42578 0.46484 0.36328 0.46094-0.12109 0.9375-0.18359 1.4297-0.18359 0.47266 0 0.94141 0.0625 1.3945 0.17578 0.23438 0.058594 0.46484-0.12109 0.46484-0.36328v-0.36719c-0.003906-0.87109-0.60547-1.5977-1.4141-1.8086z"/>
  <path d="m67.594 34.77c-0.19922-0.074219-0.41406-0.12109-0.64062-0.12109s-0.44141 0.046874-0.64453 0.11719c-0.70312 0.25391-1.207 0.90625-1.2266 1.7031 0 0.015625 0 0.035156-0.003906 0.050781 0 0.28516-0.023437 0.65234 0.15625 0.89453 0.21484 0.28906 0.46875 0.22656 0.77734 0.17578 0.3125-0.050782 0.62891-0.074219 0.94531-0.074219 0.63672 0.003906 1.2734 0.11328 1.875 0.32031v-1.3125c-0.003906-0.80469-0.51953-1.4922-1.2383-1.7539z"/>
 </g>
</svg>
