<?xml version="1.0" encoding="UTF-8"?>
<svg width="100pt" height="100pt" version="1.1" viewBox="0 0 100 100" xmlns="http://www.w3.org/2000/svg">
 <g>
  <path d="m62.336 63.734-5.5273 2.7773c-0.18359 0.089843-0.39844 0.078125-0.57031-0.035157l-3.3438-2.2578-4.7656 1.7461c-0.007812 0.003906-0.011718 0.003906-0.019531 0.007812l-1.5469 0.56641c-0.14844 0.054688-0.31641 0.042969-0.45703-0.03125-0.070313-0.035156-6.7695-3.5508-11.023-5.6367-0.60938 2.3242-0.92969 4.4766-0.92969 6.2617 0 7.8555 6.3906 14.25 14.246 14.25 7.8555 0 14.25-6.3906 14.25-14.25 0-1.0117-0.10547-2.1523-0.3125-3.3984z"/>
  <path d="m33.223 81.383c2.0508 0 4.0703-0.44141 5.9141-1.2852 0.25781-0.11719 0.30859-0.47266 0.078125-0.64062-3.7539-2.8047-6.1914-7.2852-6.1914-12.324 0-2.0547 0.39844-4.5508 1.1484-7.2227 0.046875-0.16016 0.16016-0.29297 0.3125-0.36328 0.15234-0.066406 0.32812-0.066406 0.47656 0.007813 3.7891 1.8359 10.18 5.1719 11.445 5.832l0.92969-0.33984c-0.92578-8.2188-6.6445-20.668-13.527-21.371-0.19922-0.019531-0.39062-0.03125-0.58984-0.03125-7.7969 0-14.25 15.551-14.25 23.488 0.003906 7.8594 6.3945 14.25 14.254 14.25z"/>
  <path d="m58.074 52.418c4.6055 0 8.3516-3.7461 8.3516-8.3516 0-4.6055-3.7461-8.3516-8.3516-8.3516s-8.3516 3.7461-8.3516 8.3516c0 4.6055 3.7461 8.3516 8.3516 8.3516zm0-14.066c3.1484 0 5.7148 2.5625 5.7148 5.7148 0 0.3125-0.25391 0.5625-0.5625 0.5625-0.3125 0-0.5625-0.25391-0.5625-0.5625 0-2.5273-2.0586-4.5859-4.5859-4.5859-0.3125 0-0.5625-0.25391-0.5625-0.5625-0.003906-0.3125 0.25-0.56641 0.55859-0.56641z"/>
  <path d="m33.926 42.555c7.4609 0.76172 13.426 13.328 14.5 22.094l4.3477-1.5938c0.17187-0.0625 0.35937-0.039063 0.50781 0.0625l3.3086 2.2344 5.9102-2.9648c0.15625-0.078125 0.34375-0.078125 0.50391 0s0.26953 0.22656 0.30469 0.39844c0.30859 1.6055 0.46484 3.0703 0.46484 4.3477 0 1.3203-0.16797 2.6055-0.48438 3.832-0.10547 0.41406 0.15625 0.83203 0.57422 0.92188 6.0117 1.3047 12.145-1.4727 14.656-6.8242 1.0938-2.3281 1.4688-5.0781 0.99609-7.3594-0.21094-1.0039-0.55078-2.0117-0.87891-2.9844-0.47656-1.4062-0.96484-2.8594-1.1094-4.4062-0.25781-2.7969 0.77734-5.1875 1.7812-7.5039 0.94141-2.1719 1.832-4.2188 1.7031-6.5586-0.20703-3.9258-2.5508-7.7031-6.125-9.8594-2.8164-1.707-5.9609-1.7578-9.2852-1.8125-0.40625-0.007813-0.8125-0.011719-1.2188-0.023437-3.7812-0.09375-7.0625-0.59766-10.789-2.7617-0.37109-0.21484-0.73438-0.43359-1.1016-0.65625-1.082-0.65234-2.2031-1.3281-3.3711-1.8047-6.2578-2.5742-13.551 2.1406-16.184 7.9805-2.1719 4.8047-1.5664 10.434-0.53516 14.637 0.082031 0.33984 0.39844 0.57031 0.75 0.5625h0.066406c0.23828 0.007812 0.46875 0.019531 0.70703 0.042969zm24.148-7.9688c5.2266 0 9.4805 4.2539 9.4805 9.4805 0 5.2266-4.2539 9.4805-9.4805 9.4805-5.2266 0-9.4805-4.2539-9.4805-9.4805 0.003906-5.2266 4.2539-9.4805 9.4805-9.4805z"/>
 </g>
</svg>
