<?xml version="1.0" encoding="UTF-8"?>
<svg width="100pt" height="100pt" version="1.1" viewBox="0 0 100 100" xmlns="http://www.w3.org/2000/svg">
 <g>
  <path d="m47.016 26.086c0.33984-0.97656 0.69141-1.9883 0.32422-2.7695-0.21875-0.46094-0.45703-0.48828-0.55469-0.48828-0.45312 0.007813-1.0703 0.53125-1.3086 1.0977-0.44141 1.0391-0.73828 2.1328-0.88281 3.2539l-0.019531 0.16406c-0.042969 0.36719-0.089844 0.74609-0.23438 1.1328-0.39453 1.0586-1.3555 1.375-2.1289 1.6289-0.72266 0.23438-1.1719 0.40625-1.3438 0.875-0.23828 0.65625 0.35547 1.3594 0.98437 2.0234 1.0195 1.0781 2.0664 1.6289 3.1133 1.5977 0.046875 0 0.097656-0.003906 0.14844-0.007812 0.64062-0.046875 1.4961-0.35156 1.8516-0.91016 0.41406-0.64844 0.097656-1.7422-0.10938-2.4688-0.42578-1.4844-0.48438-2.8516-0.17578-4.0664 0.085937-0.35156 0.20703-0.69531 0.33594-1.0625z"/>
  <path d="m64.77 55.773c-0.95703 0.75781-1.8711 1.0664-2.7188 0.91016-0.62891-0.11328-1.1367-0.46875-1.5859-0.77734-0.085938-0.058594-0.17188-0.12109-0.25781-0.17969-0.62109-0.41406-1.2305-0.47656-1.8125-0.18359-0.62891 0.31641-1.1367 1.0156-1.3633 1.8711-0.13281 0.50391-0.19922 1.0273-0.26953 1.5781-0.082031 0.65625-0.16797 1.332-0.375 1.9961-0.050781 0.16797-0.10938 0.33203-0.17188 0.49609-0.10547 0.28516-0.19922 0.55469-0.25 0.82031-0.066406 0.37109-0.007813 0.70312 0.15234 0.88281 0.24219 0.27344 0.76172 0.24219 1.0977 0.042969 0.47266-0.28125 0.78516-0.83203 1-1.2812 0.066406-0.14062 0.13281-0.28125 0.19531-0.42188 0.21875-0.48438 0.44922-0.98047 0.79688-1.4336 0.64844-0.84766 1.6719-1.4102 2.7344-1.5078 0.39453-0.035157 0.76953-0.011719 1.1367 0.011718 0.33984 0.023438 0.65625 0.042969 0.96094 0.011719 1.7188-0.16406 2.8555-1.918 3.2656-2.6641 0.17578-0.32031 0.33984-0.66016 0.36328-0.99219 0.015625-0.26562-0.082031-0.51953-0.23828-0.61719-0.20703-0.12891-0.55469-0.054688-0.8125 0.058593-0.47266 0.20703-0.88672 0.5625-1.3242 0.9375-0.16797 0.14844-0.34375 0.29688-0.52344 0.44141z"/>
  <path d="m36.832 43.691c0.46875 0.29688 1.2539 0.79688 1.2695 1.6719 0.011719 0.75-0.52344 1.1992-0.95703 1.5586-0.16797 0.14062-0.32812 0.27344-0.44141 0.40625-0.22656 0.27344-0.30078 0.68359-0.18359 1.0234 0.11719 0.33594 0.43359 0.60938 0.78516 0.67969 0.34375 0.070312 0.74609-0.03125 1.168-0.13672 0.37109-0.09375 0.78516-0.19531 1.2188-0.19531 0.058594 0 0.12109 0 0.18359 0.007812 1.082 0.074219 1.875 0.79688 2.5742 1.4375 0.24609 0.22266 0.47656 0.43359 0.71484 0.61719 0.39453 0.30469 0.78125 0.44531 1.0547 0.39062 0.027344-0.003906 0.054688-0.011719 0.078125-0.023438 0.39453-0.14453 0.53125-0.78516 0.39062-1.2617-0.14062-0.46484-0.44922-0.89063-0.77734-1.3438-0.11719-0.16016-0.23438-0.32031-0.34375-0.48438-0.66797-0.98047-0.87891-1.8867-0.62891-2.6836 0.14062-0.44922 0.41406-0.80469 0.65234-1.1172 0.19922-0.25781 0.38281-0.5 0.46484-0.75 0.16797-0.52734-0.125-1.1719-0.39844-1.6172-0.55859-0.90234-2.2109-2.4688-2.7891-2.3633-0.11328 0.019532-0.19922 0.26953-0.24609 0.49219-0.039063 0.19922-0.042969 0.41797-0.046875 0.65234-0.007813 0.3125-0.011719 0.63672-0.09375 0.97266-0.15625 0.64453-0.58984 1.1055-1.1289 1.207-0.75 0.13672-1.3281-0.44922-1.5742-0.70312l-1.4414-1.4805c-0.35938-0.37109-0.74609-0.71094-1.0781-0.67969-0.20703 0.019531-0.41797 0.20312-0.51172 0.44531-0.10156 0.25391-0.10156 0.59375 0.003906 0.94922 0.23438 0.82812 0.91797 1.5898 2.082 2.3281z"/>
  <path d="m54.891 34.586c0.050781 0.003906 0.10156 0.007812 0.14844 0.007812 1.0508 0.027344 2.0938-0.51953 3.1133-1.5977 0.62891-0.66406 1.2227-1.3672 0.98438-2.0234-0.17188-0.46875-0.62109-0.63672-1.3438-0.875-0.77344-0.25391-1.7344-0.57031-2.1289-1.6289-0.14062-0.38281-0.1875-0.76172-0.23437-1.1328l-0.019532-0.16406c-0.14453-1.1211-0.44141-2.2148-0.88281-3.2539-0.24219-0.56641-0.85547-1.0898-1.293-1.0977-0.11719 0-0.35547 0.027344-0.57422 0.48438-0.37109 0.78125-0.019531 1.793 0.32422 2.7695 0.12891 0.36719 0.25 0.71484 0.33594 1.0586 0.30859 1.2148 0.25 2.582-0.17578 4.0664-0.20703 0.72656-0.52344 1.8203-0.10938 2.4688 0.35547 0.55859 1.207 0.85938 1.8477 0.91016 0.003907 0.007813 0.007813 0.007813 0.007813 0.007813z"/>
  <path d="m44.531 70.219c-0.34375-0.18359-0.70312-0.33203-1.0859-0.49219-0.30078-0.125-0.60937-0.25781-0.91406-0.40234-0.80859-0.39453-1.3789-0.96484-1.9297-1.5156-0.31641-0.31641-0.61719-0.61719-0.95703-0.88672-0.41406-0.32422-0.79297-0.47266-1.0586-0.41797-0.19922 0.042969-0.37891 0.21484-0.53906 0.51172-0.039063 0.070313-0.078125 0.14453-0.11328 0.21875-0.25781 0.49609-0.57422 1.1172-1.2227 1.4062-0.59375 0.26953-1.2344 0.14062-1.6641 0.023437-0.67188-0.1875-1.2969-0.46875-1.9023-0.73828-0.69141-0.3125-1.3438-0.60547-2.0352-0.75-0.078125-0.015625-0.14062-0.023437-0.1875-0.023437-0.066406 0-0.10156 0.011718-0.11328 0.015625 0.003906 0.019531 0.03125 0.19922 0.23438 0.39453 0.4375 0.42188 1.043 0.82812 1.7109 1.1406l0.070313 0.03125c1.3359 0.62891 3.1602 1.4883 3.1719 3.4766 0 0.22266-0.023438 0.43359-0.046875 0.63672-0.023438 0.21484-0.046875 0.42188-0.035157 0.60156 0.011719 0.17188 0.085938 0.3125 0.21484 0.42188 0.16406 0.14062 0.41016 0.20703 0.65625 0.18359 0.57422-0.054688 1.1211-0.51953 1.6328-0.98828l0.17188-0.15625c0.40625-0.375 0.82812-0.76172 1.3438-1.0586 1.2695-0.72656 2.3984-0.29687 3.3945 0.082032 0.15234 0.058594 0.30469 0.11328 0.45703 0.16797 0.54297 0.19141 1.2891 0.27734 1.6172-0.11719 0.15234-0.1875 0.20312-0.375 0.16016-0.59375-0.10156-0.46094-0.59375-0.94141-1.0312-1.1719z"/>
  <path d="m35.957 58.609c0.30469 0.027344 0.625 0.007813 0.96094-0.011719 0.23047-0.015625 0.46875-0.03125 0.71094-0.03125 0.14062 0 0.28125 0.003906 0.42578 0.019532 1.0625 0.097656 2.0859 0.66406 2.7344 1.5078 0.34766 0.45312 0.57422 0.95312 0.79297 1.4336 0.066407 0.14062 0.12891 0.28516 0.19531 0.42578 0.21875 0.44922 0.52734 1 1 1.2812 0.33594 0.19922 0.85547 0.22656 1.0977-0.042969 0.16406-0.18359 0.21875-0.51172 0.15234-0.88281-0.046875-0.26562-0.14453-0.53516-0.25-0.82031-0.058594-0.16406-0.11719-0.32812-0.17188-0.49609-0.20703-0.66406-0.29297-1.3398-0.375-1.9961-0.070313-0.55469-0.13672-1.0781-0.26953-1.582-0.22656-0.85156-0.73438-1.5508-1.3633-1.8711-0.57812-0.29297-1.1875-0.23047-1.8086 0.18359-0.085937 0.058594-0.17187 0.11719-0.25781 0.17969-0.44922 0.3125-0.95703 0.66797-1.5859 0.77734-0.84766 0.15234-1.7617-0.15625-2.7188-0.91016-0.17969-0.14063-0.35547-0.29297-0.52734-0.44141-0.4375-0.375-0.85156-0.73047-1.3242-0.9375-0.25781-0.11328-0.60547-0.1875-0.8125-0.058593-0.15625 0.097656-0.25781 0.35156-0.23828 0.61719 0.023437 0.33203 0.1875 0.67188 0.36328 0.99219 0.41406 0.74609 1.5508 2.5 3.2695 2.6641z"/>
  <path d="m69.121 67.145c-0.046875 0-0.12109 0.003907-0.21875 0.023438-0.6875 0.14844-1.3398 0.44141-2.0352 0.75-0.60547 0.27344-1.2344 0.55469-1.9023 0.73828-0.42969 0.11719-1.0664 0.24609-1.6641-0.023438-0.64844-0.28906-0.96484-0.91016-1.2227-1.4102-0.039063-0.074218-0.074219-0.14844-0.11328-0.21875-0.16016-0.29688-0.34375-0.46875-0.53906-0.51172-0.26953-0.054688-0.64453 0.09375-1.0586 0.41797-0.33984 0.26953-0.64063 0.56641-0.95703 0.88672-0.55078 0.55469-1.1211 1.125-1.9297 1.5156-0.30469 0.14844-0.61328 0.27734-0.91406 0.40234-0.38281 0.16016-0.74219 0.3125-1.0859 0.49219-0.4375 0.23047-0.93359 0.71094-1.0273 1.1758-0.042969 0.21875 0.007813 0.40625 0.16016 0.59375 0.32422 0.39453 1.0742 0.30859 1.6172 0.11719 0.15625-0.054688 0.30859-0.11328 0.45703-0.16797 0.60156-0.22656 1.25-0.47656 1.9531-0.47656 0.46094 0 0.94141 0.10547 1.4453 0.39453 0.51562 0.29297 0.93359 0.68359 1.3438 1.0586l0.17187 0.15625c0.51172 0.46875 1.0625 0.92969 1.6328 0.98828 0.24609 0.023437 0.49219-0.042969 0.65625-0.18359 0.12891-0.10938 0.20312-0.25 0.21484-0.42188 0.015625-0.18359-0.007813-0.38672-0.035157-0.60156-0.023437-0.20312-0.046874-0.41016-0.046874-0.63672 0.007812-1.9883 1.8359-2.8477 3.1719-3.4766l0.070313-0.03125c0.66797-0.3125 1.2773-0.71875 1.7109-1.1406 0.20313-0.19531 0.23047-0.37891 0.21875-0.41797-0.011718 0.011719-0.035156 0.007812-0.074218 0.007812z"/>
  <path d="m59.523 41.629c-0.082032-0.33984-0.089844-0.66406-0.09375-0.97266-0.003907-0.23438-0.007813-0.45703-0.046876-0.65234-0.042968-0.22266-0.13281-0.47266-0.24609-0.49219-0.019531-0.003907-0.039063-0.003907-0.058594-0.003907-0.625 0-2.1914 1.4961-2.7305 2.3672-0.27734 0.44531-0.56641 1.0898-0.39844 1.6172 0.078125 0.25 0.26562 0.49219 0.46484 0.75 0.24219 0.3125 0.51172 0.67187 0.65234 1.1172 0.25 0.80078 0.039063 1.7031-0.62891 2.6836-0.10938 0.16406-0.22656 0.32422-0.34375 0.48438-0.32812 0.44922-0.64062 0.875-0.77734 1.3438-0.14062 0.47656-0.007812 1.1211 0.39062 1.2617 0.027344 0.007813 0.050781 0.015626 0.078125 0.023438 0.27344 0.054688 0.65625-0.089844 1.0547-0.39062 0.23828-0.18359 0.46875-0.39453 0.71484-0.61719 0.69922-0.63672 1.4961-1.3594 2.5742-1.4375 0.5-0.035157 0.98047 0.082031 1.4023 0.1875 0.42578 0.10547 0.82422 0.20312 1.168 0.13672 0.35156-0.070312 0.66406-0.34375 0.78516-0.67969 0.11719-0.33594 0.046875-0.74609-0.18359-1.0234-0.10938-0.13281-0.26953-0.26562-0.44141-0.40625-0.43359-0.35938-0.96875-0.80859-0.95703-1.5586 0.015625-0.875 0.80078-1.375 1.2695-1.6719 1.1641-0.73828 1.8477-1.4961 2.0859-2.3203 0.10547-0.35547 0.10547-0.69531 0.003907-0.94922-0.097657-0.24219-0.30859-0.42578-0.51172-0.44531-0.33203-0.03125-0.71484 0.30859-1.0781 0.67969l-1.4414 1.4805c-0.24609 0.25391-0.82422 0.84375-1.5742 0.70312-0.53906-0.10547-0.97266-0.57031-1.1328-1.2148z"/>
  <path d="m49.031 77.094v5.1406c0 0.50781 0.36719 0.97266 0.87109 1.0234 0.58203 0.058594 1.0742-0.39844 1.0742-0.96875v-5.1914c0-0.17969-0.066406-0.35938-0.17969-0.49609-0.30469-0.37109-0.57422-0.72656-0.79297-1.0586-0.21875 0.33203-0.48828 0.6875-0.78906 1.0547-0.12109 0.13672-0.18359 0.3125-0.18359 0.49609z"/>
  <path d="m74.016 51.906c-0.66406-4.957-2.0977-9.8047-4.2617-14.41-2.0547-4.3867-4.6992-8.3945-7.8633-11.918-2.6406-2.9414-6.0078-5.6328-10.609-8.4727-0.78125-0.48438-1.7812-0.48438-2.5547 0-4.6016 2.8398-7.9727 5.5312-10.617 8.4766-6.5234 7.2617-10.828 16.609-12.121 26.328-0.94531 7.0977 0.03125 14.027 2.8281 20.031 1.7891 3.832 5.0117 8.3359 8.6914 9.4805 1.7461 0.54297 3.5039 0.30469 5.2227-0.70312 2.4023-1.4102 5.1875-4.1289 6.3008-5.8203 0.17188-0.26172 0.30469-0.5 0.39062-0.70313v-36.375c0-0.32422 0.26172-0.58203 0.58203-0.58203 0.32422 0 0.58203 0.26172 0.58203 0.58203v36.375c0.082031 0.20313 0.21484 0.44141 0.39062 0.70703 1.1094 1.6875 3.8867 4.4023 6.2891 5.8164 0.80078 0.46875 1.6172 0.77734 2.4219 0.91406 2.3398 0.38672 4.707-0.63281 7.0391-3.0273 0.78906-0.80859 1.5664-1.7773 2.3125-2.875 0.78125-1.1562 1.5234-2.4688 2.1406-3.7891 0.89062-1.9102 1.6055-3.9375 2.1211-6.0312 0.46875-1.8672 0.78516-3.8203 0.94141-5.8125 0.21484-2.6836 0.14062-5.4375-0.22656-8.1914zm-40.359-11.918c0.26172-0.65234 0.84375-1.1133 1.4883-1.1758 0.93359-0.082031 1.6406 0.63672 2.0195 1.0273l1.4414 1.4805c0.33594 0.34375 0.47266 0.37891 0.52344 0.37109 0.054688-0.011718 0.16016-0.13672 0.21094-0.33984 0.050781-0.21484 0.058594-0.45703 0.0625-0.71875 0.003906-0.27344 0.011718-0.55859 0.070312-0.85547 0.19922-1.0312 0.75391-1.3398 1.1797-1.418 1.6133-0.28906 3.7266 2.4727 3.9922 2.8984 0.58594 0.95313 0.76172 1.8203 0.51953 2.5859-0.14062 0.44141-0.41016 0.79297-0.64844 1.1055-0.19922 0.26172-0.38672 0.50391-0.46484 0.75781-0.17188 0.55078 0.16797 1.2188 0.48047 1.6836 0.10156 0.15234 0.21094 0.30078 0.32031 0.44922 0.375 0.51172 0.75781 1.0391 0.95703 1.6992 0.29688 0.99609-0.042969 2.3047-1.1094 2.6914-0.082031 0.03125-0.16406 0.050781-0.24609 0.070312-0.12109 0.023438-0.23828 0.035157-0.35547 0.035157-0.64844 0-1.2344-0.33594-1.6367-0.64453-0.27734-0.21484-0.53906-0.44922-0.79297-0.67969-0.61328-0.55859-1.1953-1.0898-1.8711-1.1367-0.31641-0.023438-0.66797 0.066406-1.0391 0.15625-0.50391 0.125-1.0781 0.26953-1.6797 0.14453-0.75-0.15234-1.3984-0.71484-1.6523-1.4375-0.25391-0.72266-0.10156-1.5664 0.38672-2.1562 0.17969-0.21484 0.38672-0.39062 0.58984-0.55859 0.32812-0.27344 0.54297-0.46484 0.53906-0.64453-0.003906-0.24609-0.45703-0.53516-0.72656-0.70703-1.4141-0.89844-2.2578-1.8711-2.582-2.9805-0.1875-0.60938-0.17578-1.1992 0.023438-1.7031zm-1.7109 13.359c0.51172-0.32031 1.207-0.32812 1.9062-0.023437 0.62891 0.27734 1.1289 0.70703 1.6133 1.1211 0.16406 0.14063 0.32422 0.28125 0.49219 0.41016 0.68359 0.53906 1.2852 0.76953 1.7891 0.67969 0.37891-0.066406 0.74219-0.32031 1.125-0.58984 0.09375-0.0625 0.18359-0.12891 0.27734-0.19141 0.96875-0.64844 2.0312-0.73828 2.9844-0.25391 0.92188 0.46484 1.6562 1.4414 1.9648 2.6133 0.15234 0.57812 0.22656 1.1641 0.29688 1.7344 0.078125 0.63281 0.15625 1.2266 0.33203 1.793 0.046876 0.14844 0.10156 0.29688 0.15234 0.44531 0.11719 0.32031 0.23438 0.64844 0.30078 1.0117 0.13281 0.73047-0.023438 1.4102-0.42969 1.8672-0.34766 0.39062-0.86328 0.58984-1.4102 0.58984-0.39062 0-0.79297-0.10547-1.1562-0.31641-0.74219-0.44141-1.168-1.1797-1.457-1.7773-0.070312-0.14844-0.14062-0.29688-0.20703-0.44922-0.20312-0.44141-0.39062-0.85938-0.66016-1.207-0.45703-0.59375-1.1719-0.98828-1.918-1.0586-0.30078-0.027344-0.61719-0.007813-0.95312 0.015625-0.36719 0.023437-0.75 0.050781-1.1484 0.011719-1.6016-0.15234-3.125-1.3438-4.1758-3.2656-0.22656-0.41797-0.46875-0.91797-0.50391-1.4766-0.042968-0.70703 0.25781-1.3516 0.78516-1.6836zm14.355 19.379c-0.71094 0.86328-1.9688 0.8125-2.9102 0.47656-0.16406-0.058594-0.32422-0.11719-0.48047-0.17969-1.0312-0.39063-1.6484-0.58984-2.4023-0.16016-0.39844 0.23047-0.75391 0.55469-1.1289 0.90234l-0.17578 0.16016c-0.65625 0.60156-1.3789 1.1953-2.3086 1.2852-0.070312 0.007812-0.14062 0.011718-0.21094 0.011718-0.48438 0-0.95312-0.16406-1.3086-0.46094-0.36719-0.30859-0.58984-0.74609-0.62891-1.2266-0.023438-0.29297 0.011718-0.57812 0.039062-0.82812 0.019532-0.17578 0.039063-0.34375 0.039063-0.49609-0.003907-1.1602-1.0859-1.7617-2.5-2.4258l-0.070313-0.03125c-0.55078-0.26172-1.3516-0.70703-2.0273-1.3594-0.55078-0.53516-0.72656-1.2578-0.4375-1.8008 0.26953-0.50781 0.85156-0.71875 1.5586-0.57031 0.80859 0.17187 1.5508 0.50781 2.2656 0.82812 0.59375 0.26563 1.1523 0.51563 1.7383 0.67969 0.40625 0.11328 0.67969 0.125 0.87109 0.039062 0.27344-0.125 0.46484-0.48828 0.66406-0.87891 0.042969-0.082031 0.082031-0.16016 0.125-0.23828 0.41016-0.76562 0.94922-1.0234 1.3281-1.1016 0.62109-0.12891 1.3164 0.089844 2.0195 0.64063 0.39844 0.3125 0.73828 0.65234 1.0664 0.98047 0.50391 0.50781 0.98047 0.98438 1.6133 1.293 0.27734 0.13281 0.55859 0.25391 0.85547 0.37891 0.39062 0.16406 0.78906 0.33203 1.1797 0.53906 0.63281 0.33594 1.4375 1.0547 1.625 1.9766 0.11328 0.56641-0.023438 1.1055-0.39844 1.5664zm1.6758-41.84c0.25 0.87109 0.66797 2.3281-0.03125 3.4219-0.61328 0.96094-1.8633 1.3789-2.7461 1.4414-0.074219 0.003906-0.14844 0.007812-0.21875 0.011719h-0.066407c-1.3633 0-2.6797-0.66016-3.9141-1.9609-0.60547-0.64062-1.7383-1.8359-1.2305-3.2227 0.375-1.0234 1.3164-1.3359 2.0742-1.582 0.74609-0.24219 1.2109-0.41797 1.3984-0.92578 0.09375-0.25391 0.12891-0.55078 0.16797-0.86719l0.019532-0.17188c0.15625-1.2266 0.48047-2.4219 0.96484-3.5625 0.36719-0.85938 1.3125-1.7852 2.3438-1.8086 0.41016-0.007812 1.168 0.12891 1.6523 1.1523 0.57422 1.2148 0.125 2.5117-0.27344 3.6562-0.12109 0.34375-0.23047 0.66797-0.30859 0.96094-0.25781 1.0273-0.20703 2.1562 0.16797 3.457zm20.082 22.461c0.52734 0.33203 0.82812 0.97656 0.78125 1.6836-0.035156 0.5625-0.27344 1.0625-0.50391 1.4805-1.0547 1.9219-2.5781 3.1133-4.1758 3.2656-0.39844 0.039062-0.77734 0.011718-1.1484-0.011719-0.33594-0.023437-0.65234-0.042969-0.95312-0.015625-0.74609 0.070312-1.4609 0.46484-1.918 1.0586-0.26562 0.34766-0.45703 0.76562-0.66016 1.207-0.066407 0.14844-0.13672 0.30078-0.20703 0.44922-0.28906 0.59766-0.71484 1.3398-1.457 1.7773-0.36328 0.21484-0.76562 0.31641-1.1562 0.31641-0.54297 0-1.0625-0.20312-1.4102-0.58984-0.40625-0.45312-0.5625-1.1367-0.42969-1.8672 0.066407-0.36328 0.18359-0.69141 0.30078-1.0117 0.054687-0.14844 0.10547-0.29688 0.15234-0.44531 0.17578-0.56641 0.25-1.1602 0.33203-1.793 0.070312-0.56641 0.14453-1.1523 0.29688-1.7344 0.30859-1.168 1.043-2.1445 1.9648-2.6133 0.95703-0.48438 2.0156-0.39453 2.9883 0.25391 0.09375 0.0625 0.18359 0.125 0.27734 0.19141 0.38672 0.26953 0.75 0.51953 1.125 0.58984 0.50391 0.089844 1.1055-0.13672 1.7891-0.67969 0.16797-0.13281 0.32812-0.27344 0.49219-0.41016 0.48438-0.41406 0.98438-0.84375 1.6133-1.1211 0.69922-0.3125 1.3945-0.30469 1.9062 0.019531zm-7.4609-12.715c0.003906 0.26172 0.007813 0.50391 0.0625 0.71875 0.050782 0.20313 0.15625 0.32813 0.21094 0.33984 0.054687 0.011719 0.1875-0.027344 0.52344-0.37109l1.4414-1.4805c0.37891-0.38672 1.082-1.1133 2.0195-1.0273 0.64453 0.058594 1.2305 0.51953 1.4883 1.1758 0.19922 0.50391 0.21094 1.0938 0.035156 1.707-0.32422 1.1094-1.168 2.082-2.582 2.9805-0.26953 0.17188-0.72266 0.45703-0.72656 0.70703-0.003906 0.17969 0.21094 0.37109 0.53906 0.64453 0.20312 0.16797 0.41016 0.34375 0.58984 0.55859 0.48828 0.58984 0.64062 1.4336 0.38672 2.1562-0.25391 0.72266-0.90234 1.2852-1.6523 1.4375-0.60156 0.12109-1.1758-0.019532-1.6797-0.14453-0.37109-0.09375-0.71875-0.17969-1.0391-0.15625-0.67578 0.046875-1.2578 0.57422-1.8711 1.1367-0.25391 0.23047-0.51562 0.46875-0.79297 0.67969-0.40234 0.30859-0.99219 0.64453-1.6367 0.64453-0.11719 0-0.23437-0.011719-0.35547-0.035156-0.082032-0.015626-0.16406-0.039063-0.24609-0.070313-1.0664-0.38672-1.4062-1.6992-1.1094-2.6914 0.19531-0.66016 0.58203-1.1875 0.95312-1.6992 0.10938-0.14844 0.21875-0.29688 0.32031-0.44922 0.3125-0.46484 0.65234-1.1328 0.48047-1.6836-0.078125-0.25-0.26562-0.49609-0.46484-0.75781-0.23828-0.3125-0.50781-0.66406-0.64844-1.1055-0.24219-0.76172-0.070312-1.6328 0.51953-2.5859 0.26562-0.42578 2.3789-3.1914 3.9922-2.8984 0.42969 0.078125 0.98047 0.38672 1.1797 1.418 0.050782 0.29297 0.054688 0.57812 0.0625 0.85156zm-8.543-6.3242c-0.69922-1.0938-0.28125-2.5508-0.03125-3.4219 0.375-1.3008 0.42969-2.4297 0.16797-3.457-0.074218-0.29688-0.1875-0.61719-0.30859-0.96094-0.39844-1.1445-0.85156-2.4414-0.27344-3.6562 0.48438-1.0234 1.2383-1.1602 1.6523-1.1523 1.0312 0.019532 1.9766 0.94531 2.3438 1.8086 0.48438 1.1367 0.80859 2.3359 0.96484 3.5625l0.019532 0.17188c0.039062 0.3125 0.074218 0.60938 0.16797 0.86719 0.1875 0.50391 0.65234 0.67969 1.3984 0.92578 0.75781 0.25 1.7031 0.55859 2.0742 1.582 0.50391 1.3867-0.625 2.582-1.2305 3.2227-1.2344 1.3008-2.5508 1.9609-3.9141 1.9609h-0.066407c-0.070312 0-0.14453-0.003907-0.21875-0.011719-0.88281-0.0625-2.1289-0.48047-2.7461-1.4414zm17.723 34.094c-0.67578 0.65234-1.4727 1.0977-2.0273 1.3594l-0.070312 0.03125c-1.4141 0.66406-2.4961 1.2656-2.5 2.4258 0 0.15234 0.019531 0.32031 0.039062 0.49609 0.027344 0.25 0.0625 0.53125 0.039062 0.82812-0.039062 0.48438-0.26172 0.91797-0.62891 1.2266-0.35547 0.29688-0.82422 0.46094-1.3086 0.46094-0.070312 0-0.14062-0.003907-0.21094-0.011719-0.92969-0.089844-1.6523-0.68359-2.3086-1.2852l-0.17578-0.16016c-0.375-0.34766-0.73047-0.67188-1.1289-0.90234-0.75391-0.42969-1.375-0.23047-2.4023 0.16016-0.15625 0.058594-0.31641 0.12109-0.48047 0.17969-0.94141 0.33203-2.1992 0.38281-2.9062-0.47656-0.37891-0.46094-0.51562-1.0039-0.40234-1.5664 0.1875-0.92188 0.99219-1.6406 1.625-1.9766 0.39062-0.20703 0.79297-0.375 1.1836-0.53906 0.30078-0.125 0.58203-0.24219 0.85547-0.37891 0.63281-0.30469 1.1094-0.78516 1.6133-1.293 0.32812-0.32812 0.66797-0.66797 1.0664-0.98047 0.70312-0.54688 1.3984-0.76953 2.0195-0.64062 0.37891 0.078125 0.91797 0.33594 1.3281 1.1016 0.042968 0.078124 0.082031 0.15625 0.125 0.23828 0.19922 0.38672 0.38672 0.75391 0.66406 0.87891 0.19141 0.085937 0.46875 0.074219 0.875-0.039063 0.58594-0.16016 1.1445-0.41406 1.7383-0.67969 0.71875-0.32031 1.457-0.65625 2.2656-0.82812 0.70703-0.15234 1.2891 0.0625 1.5586 0.57031 0.28125 0.54297 0.10547 1.2656-0.44531 1.8008z"/>
 </g>
</svg>
