<?xml version="1.0" encoding="UTF-8"?>
<svg width="100pt" height="100pt" version="1.1" viewBox="0 0 100 100" xmlns="http://www.w3.org/2000/svg">
 <g>
  <path d="m76.094 52.621c-0.35156-2.6094-0.91016-5.2305-1.6719-7.793-0.75781-2.5586-1.7188-5.0781-2.8555-7.5-2.1797-4.6523-4.9883-8.9062-8.3477-12.645-2.8125-3.1367-6.3906-5.9961-11.262-9.0039-1.1953-0.74219-2.7344-0.74219-3.9258 0-4.8672 3.0039-8.4492 5.8672-11.266 9.0078-3.457 3.8516-6.332 8.2461-8.543 13.062-2.1875 4.7734-3.6445 9.7773-4.3203 14.875-0.48828 3.6836-0.49219 7.3555-0.015625 10.914 0.50391 3.7148 1.5273 7.2539 3.0469 10.52 0.60156 1.2891 1.8984 3.7969 3.8164 6.0977 1.8945 2.2695 3.8906 3.7422 5.9297 4.375 2.1484 0.66797 4.2969 0.38672 6.3867-0.84375 2.1875-1.2852 4.7969-3.6445 6.3203-5.5742v6.1641c0 0.33594 0.26953 0.60547 0.60547 0.60547 0.33594 0 0.60547-0.26953 0.60547-0.60547v-6.1641c0.46094 0.58594 1.0312 1.2188 1.6875 1.875 1.5 1.5039 3.1836 2.8516 4.625 3.6992 0.96094 0.5625 1.9414 0.92969 2.9258 1.0977 0.39453 0.066406 0.79297 0.097656 1.1953 0.097656 1.125 0 2.2539-0.26172 3.3672-0.77734 1.2891-0.59766 2.5703-1.543 3.8047-2.8086 0.86719-0.89062 1.7188-1.9492 2.5312-3.1445 0.84766-1.25 1.6445-2.6641 2.3125-4.0938 0.95703-2.0508 1.7227-4.2305 2.2773-6.4766 0.5-1.9961 0.83984-4.0898 1.0078-6.2148 0.23047-2.8633 0.14844-5.8047-0.23828-8.7461zm-0.96484 8.6445c-0.16406 2.0625-0.49219 4.0898-0.97656 6.0195v0.003906c-0.53516 2.1719-1.2734 4.2734-2.1992 6.2539-0.64062 1.3711-1.4062 2.7305-2.2188 3.9297-0.77344 1.1367-1.5781 2.1406-2.3945 2.9805-2.0859 2.1406-4.1992 3.2188-6.2969 3.2188-0.33594 0-0.66797-0.027344-1.0039-0.082031-0.83594-0.14062-1.6797-0.46094-2.5117-0.94531-1.3555-0.79688-2.9531-2.0742-4.3828-3.5117-1.2734-1.2734-2.2305-2.5039-2.543-3.2383l0.003907-37.719c0-0.33594-0.26953-0.60547-0.60547-0.60547s-0.60547 0.26953-0.60547 0.60547v37.715c-0.3125 0.74219-1.2773 1.9688-2.5508 3.2422-1.4297 1.4336-3.0273 2.7109-4.3828 3.5078-1.7812 1.0469-3.6055 1.293-5.4141 0.73047-3.8125-1.1875-7.1523-5.8555-9.0117-9.8281-2.8945-6.2227-3.9062-13.402-2.9258-20.762 1.3438-10.07 5.8047-19.766 12.566-27.293 2.7383-3.0508 6.2344-5.8438 11-8.7852 0.003907 0 0.003907-0.003906 0.003907-0.003906 0.80078-0.50391 1.8438-0.5 2.6484 0.003906 4.7695 2.9453 8.2617 5.7344 10.996 8.7852 3.2812 3.6484 6.0234 7.8047 8.1484 12.352 2.2422 4.7734 3.7305 9.8008 4.4219 14.938 0.37891 2.8594 0.45703 5.7148 0.23438 8.4883z"/>
  <path d="m69.336 67.422c-0.83984 0.17969-1.6094 0.52344-2.3516 0.85938-0.61328 0.27734-1.1953 0.53516-1.8008 0.70312-0.42188 0.11719-0.70703 0.12891-0.90234 0.039063-0.28516-0.12891-0.48047-0.50781-0.6875-0.91016-0.042969-0.078125-0.085938-0.16406-0.12891-0.24609-0.42578-0.79297-0.98438-1.0586-1.3789-1.1406-0.64063-0.13281-1.3672 0.09375-2.0938 0.66406-0.41406 0.32422-0.76563 0.67578-1.1055 1.0156-0.52344 0.52734-1.0195 1.0195-1.6719 1.3398-0.28516 0.14062-0.57812 0.26172-0.89062 0.39062-0.40234 0.17188-0.82031 0.34375-1.2227 0.55859-0.65625 0.34766-1.4883 1.0938-1.6836 2.0508-0.11719 0.58594 0.027343 1.1445 0.41406 1.6211 0 0 0 0.003906 0.003907 0.003906 0.35156 0.42578 0.86719 0.67578 1.4961 0.72266 0.59766 0.042969 1.1523-0.10156 1.5156-0.22656 0.17188-0.058594 0.33984-0.125 0.5-0.1875 1.0664-0.40234 1.707-0.61328 2.4883-0.16406 0.41406 0.23828 0.78125 0.57422 1.1719 0.9375 0.058594 0.054687 0.12109 0.11328 0.18359 0.16797 0.68359 0.625 1.4297 1.2383 2.3906 1.3359 0.074219 0.007813 0.14453 0.011719 0.21875 0.011719 0.50391 0 0.98828-0.17188 1.3555-0.47656 0.38281-0.32031 0.61328-0.77344 0.65234-1.2734 0.023437-0.30469-0.011719-0.60156-0.039063-0.85938-0.023437-0.18359-0.042969-0.35547-0.039062-0.51562 0.003906-0.56641 0.24609-1.0312 0.76562-1.4688 0.51172-0.42969 1.2109-0.75781 1.8281-1.0469l0.070312-0.035156c0.57031-0.26953 1.4023-0.73047 2.1016-1.4062 0.57031-0.55469 0.75391-1.3047 0.45312-1.8672-0.27734-0.53516-0.88281-0.75391-1.6133-0.59766zm0.32031 1.5898c-0.45312 0.4375-1.0859 0.85938-1.7734 1.1836l-0.070312 0.035157c-0.68359 0.32031-1.457 0.6875-2.0898 1.2148-0.78906 0.66016-1.1953 1.4648-1.1992 2.3906-0.003907 0.23047 0.023437 0.44922 0.046874 0.65625 0.027344 0.22266 0.050782 0.4375 0.035157 0.625-0.015625 0.17969-0.089844 0.32422-0.22266 0.4375-0.17187 0.14453-0.42578 0.21484-0.67969 0.19141-0.59375-0.058594-1.1602-0.53516-1.6953-1.0234-0.058593-0.054687-0.11719-0.10938-0.17969-0.16406-0.42188-0.39062-0.85938-0.79297-1.3906-1.0977-0.52344-0.29688-1.0195-0.40625-1.4961-0.40625-0.72656 0-1.3984 0.25781-2.0234 0.49219-0.15625 0.058594-0.31641 0.12109-0.47266 0.17578-0.5625 0.19922-1.3398 0.28516-1.6758-0.12109-0.15625-0.19531-0.21094-0.39062-0.16406-0.61328 0.097656-0.48047 0.60938-0.97656 1.0625-1.2188 0.35547-0.1875 0.73047-0.34766 1.125-0.51172 0.3125-0.12891 0.63281-0.26562 0.94922-0.42187 0.83984-0.40625 1.4297-1 2.0039-1.5703 0.32812-0.32812 0.63672-0.64062 0.99219-0.91797 0.42969-0.33984 0.82031-0.48828 1.0977-0.43359 0.20703 0.042969 0.39453 0.22266 0.55859 0.53125 0.039063 0.070313 0.078125 0.14844 0.11719 0.22656 0.26562 0.51562 0.59766 1.1562 1.2656 1.4609 0.61719 0.27734 1.2812 0.14453 1.7227 0.023438 0.69531-0.19141 1.3438-0.48438 1.9727-0.76562 0.71875-0.32031 1.3945-0.625 2.1094-0.77734 0.16016-0.035156 0.25781-0.023437 0.29688-0.011719 0.011719 0.054688-0.03125 0.22266-0.22266 0.41016z"/>
  <path d="m65.07 55.414c-0.17578 0.14844-0.33984 0.29297-0.51172 0.42578-0.70703 0.55859-1.332 0.79688-1.8555 0.70312-0.39062-0.070313-0.76953-0.33203-1.168-0.60938-0.09375-0.0625-0.19141-0.13281-0.28906-0.19922-1.0078-0.67188-2.1055-0.76562-3.0977-0.26562-0.95313 0.48438-1.7148 1.4961-2.0352 2.707-0.16016 0.60156-0.23438 1.207-0.30859 1.7969-0.082032 0.65234-0.16016 1.2734-0.34375 1.8594-0.046876 0.15234-0.10156 0.30078-0.16016 0.46094-0.12109 0.32812-0.24219 0.67188-0.3125 1.0469-0.13672 0.75781 0.027344 1.4648 0.44531 1.9375 0.35938 0.40234 0.89453 0.61328 1.4609 0.61328 0.40234 0 0.82031-0.10938 1.1992-0.32812 0.76953-0.45703 1.2109-1.2227 1.5117-1.8438 0.074219-0.15625 0.14453-0.3125 0.21484-0.46484 0.21094-0.45703 0.40625-0.89062 0.68359-1.2539 0.47266-0.61719 1.2148-1.0273 1.9883-1.0977 0.3125-0.027344 0.64062-0.007813 0.98828 0.015625 0.38281 0.023437 0.77734 0.050781 1.1914 0.011719 0.92188-0.089844 1.793-0.48438 2.5977-1.1797 0.65234-0.5625 1.25-1.3242 1.7344-2.207 0.23438-0.43359 0.48438-0.95312 0.52344-1.5312 0.046875-0.73047-0.26172-1.3984-0.80859-1.7422-0.53125-0.33594-1.25-0.34375-1.9727-0.023437-0.65625 0.29297-1.1758 0.73828-1.6758 1.168zm3-0.11719c0.16406 0.10547 0.26563 0.36719 0.24609 0.64062-0.023437 0.34375-0.19531 0.69922-0.375 1.0312-0.42578 0.77344-1.6055 2.5938-3.3828 2.7617-0.3125 0.03125-0.64453 0.007812-0.99609-0.015625-0.37891-0.023438-0.76953-0.050782-1.1797-0.011719-1.1016 0.10156-2.1602 0.6875-2.8359 1.5625-0.35938 0.46875-0.59766 0.98438-0.82422 1.4883-0.070312 0.15234-0.13672 0.29688-0.20312 0.44141-0.22656 0.46484-0.54688 1.0391-1.0391 1.3281-0.34766 0.20703-0.88672 0.23437-1.1367-0.046876-0.16797-0.19141-0.22656-0.53125-0.15625-0.91406 0.050781-0.27734 0.14844-0.55469 0.25781-0.85156 0.058594-0.16406 0.12109-0.33984 0.17969-0.51563 0.21484-0.6875 0.30078-1.3906 0.38672-2.0664 0.070312-0.57422 0.14062-1.1172 0.27734-1.6367 0.23438-0.88281 0.76172-1.6094 1.4141-1.9375 0.24609-0.125 0.50391-0.1875 0.76172-0.1875 0.36719 0 0.73828 0.125 1.1172 0.37891 0.089844 0.058594 0.17578 0.12109 0.26953 0.18359 0.46484 0.32422 0.99219 0.69141 1.6445 0.80859 0.14453 0.027344 0.29297 0.039063 0.44531 0.039063 0.75391 0 1.5469-0.32812 2.375-0.98438 0.1875-0.14844 0.37109-0.30469 0.54688-0.45703 0.45312-0.39063 0.88281-0.75781 1.3711-0.97266 0.26172-0.12109 0.625-0.19922 0.83594-0.066406z"/>
  <path d="m59.688 38.742c-0.6875-0.125-1.5352 0.26562-2.5234 1.1602-0.70312 0.63672-1.3477 1.4102-1.6133 1.8438-0.60938 0.98828-0.78906 1.8867-0.53906 2.6797 0.14453 0.45703 0.42578 0.82422 0.67188 1.1445 0.20703 0.26953 0.40234 0.52344 0.48047 0.78516 0.17969 0.57031-0.17187 1.2656-0.49609 1.7422-0.10547 0.15234-0.21484 0.30469-0.33203 0.46484-0.38672 0.53125-0.78516 1.0781-0.98828 1.7617-0.30469 1.0312 0.046875 2.3906 1.1523 2.793 0.085938 0.03125 0.17188 0.054687 0.25781 0.070312 0.125 0.023438 0.24609 0.035156 0.36719 0.035156 0.67188 0 1.2812-0.34766 1.6992-0.66797 0.28906-0.21875 0.55859-0.46875 0.82031-0.70703 0.63672-0.57812 1.2383-1.1289 1.9414-1.1758 0.32812-0.023437 0.69141 0.066406 1.0742 0.16016 0.52344 0.12891 1.1172 0.27734 1.7422 0.15234 0.77734-0.15625 1.4492-0.74219 1.7148-1.4883 0.26562-0.74609 0.10937-1.625-0.39844-2.2344-0.1875-0.22266-0.40234-0.40234-0.61328-0.57812-0.33984-0.28516-0.5625-0.48047-0.55859-0.66797 0.003906-0.25781 0.47266-0.55469 0.75391-0.73047 1.4648-0.92969 2.3438-1.9414 2.6758-3.0898 0.1875-0.63672 0.17578-1.25-0.035156-1.7734-0.26953-0.67969-0.875-1.1523-1.543-1.2148-0.96875-0.089843-1.6992 0.66016-2.0938 1.0625l-1.4961 1.5352c-0.34766 0.35937-0.48828 0.39453-0.54297 0.38281s-0.16406-0.14062-0.21875-0.35156c-0.054687-0.21875-0.058594-0.47656-0.0625-0.74609-0.007813-0.28516-0.011719-0.57422-0.070313-0.88281-0.21094-1.0664-0.78516-1.3867-1.2266-1.4648zm1.3555 4.6367c0.078125 0.015625 0.16016 0.023438 0.23438 0.023438 0.66016 0 1.1641-0.51562 1.3945-0.75391l1.4961-1.5352c0.375-0.38281 0.76953-0.73438 1.1172-0.70312 0.21484 0.019532 0.43359 0.20703 0.53125 0.46094 0.10547 0.26562 0.10547 0.61719-0.003906 0.98438-0.24609 0.85547-0.95703 1.6406-2.1602 2.4062-0.48438 0.30859-1.3008 0.82422-1.3164 1.7305-0.015626 0.77734 0.54297 1.2422 0.99219 1.6172 0.17578 0.14453 0.33984 0.28516 0.45703 0.42188 0.23438 0.28516 0.3125 0.71094 0.19141 1.0586-0.125 0.34766-0.44922 0.63281-0.8125 0.70703-0.35937 0.070313-0.77344-0.03125-1.2109-0.14062s-0.93359-0.23047-1.4531-0.19531c-1.1211 0.078124-1.9453 0.82812-2.6719 1.4883-0.25391 0.23047-0.49219 0.44922-0.74219 0.64062-0.41016 0.31641-0.80859 0.46484-1.0938 0.40625-0.027344-0.007813-0.054688-0.015625-0.082032-0.023438-0.41016-0.14844-0.55078-0.8125-0.40234-1.3086 0.14453-0.48437 0.46484-0.92578 0.80859-1.3906 0.11719-0.16016 0.23828-0.32813 0.35547-0.5 0.69141-1.0195 0.91016-1.957 0.65234-2.7852-0.14453-0.46484-0.42969-0.83594-0.67578-1.1562-0.20313-0.26953-0.39844-0.51953-0.48047-0.77734-0.17578-0.54688 0.12891-1.2148 0.41406-1.6758 0.1875-0.30078 0.74219-0.99219 1.3945-1.582 0.82813-0.74609 1.3281-0.89844 1.4961-0.86719 0.11719 0.023437 0.20703 0.27734 0.25391 0.51172 0.039063 0.20312 0.042969 0.43359 0.050782 0.67578 0.007812 0.32422 0.011718 0.65625 0.10156 1.0117 0.15625 0.66797 0.60547 1.1484 1.1641 1.25z"/>
  <path d="m54.977 36.035c0.074219 0.007813 0.15234 0.011719 0.22656 0.011719h0.066406c1.4141 0 2.7773-0.68359 4.0586-2.0352 0.62891-0.66406 1.8008-1.9023 1.2773-3.3438-0.38672-1.0625-1.3672-1.3828-2.1523-1.6406-0.77344-0.25391-1.2539-0.43359-1.4492-0.95703-0.097656-0.26562-0.13672-0.57031-0.17578-0.89844-0.007813-0.058594-0.015625-0.12109-0.023437-0.17969-0.16016-1.2695-0.5-2.5117-1.0039-3.6914-0.37891-0.89062-1.3594-1.8516-2.4297-1.875-0.42578-0.007812-1.2109 0.13672-1.7109 1.1953-0.59766 1.2578-0.12891 2.6016 0.28516 3.7891 0.125 0.35547 0.23828 0.69141 0.31641 0.99609 0.27344 1.0625 0.21484 2.2344-0.17188 3.582-0.26172 0.90234-0.69531 2.4141 0.03125 3.5469 0.64453 1 1.9414 1.4336 2.8555 1.5zm-1.8281-2.1484c-0.42969-0.67188-0.10156-1.8086 0.11328-2.5586 0.44141-1.5391 0.50391-2.957 0.18359-4.2148-0.089843-0.35547-0.21484-0.71484-0.34766-1.0977-0.35547-1.0156-0.71875-2.0625-0.33594-2.8711 0.22656-0.47656 0.47266-0.50391 0.57422-0.50391h0.019531c0.45312 0.011719 1.0898 0.55078 1.3398 1.1367 0.45703 1.0742 0.76563 2.2109 0.91406 3.3711 0.007813 0.054687 0.015625 0.11328 0.023437 0.17187 0.046876 0.38281 0.09375 0.77734 0.24219 1.1719 0.40625 1.0977 1.4023 1.4258 2.207 1.6875 0.74609 0.24219 1.2148 0.42187 1.3906 0.90625 0.24609 0.67969-0.36719 1.4062-1.0195 2.0977-1.0547 1.1172-2.1445 1.6758-3.2266 1.6562-0.050781 0-0.10547-0.003906-0.15625-0.007813-0.67187-0.050781-1.5508-0.36719-1.9219-0.94531z"/>
  <path d="m44.895 70.695c-0.40234-0.21484-0.82031-0.38672-1.2227-0.55859-0.30859-0.12891-0.60547-0.25391-0.89062-0.39062-0.65234-0.31641-1.1484-0.8125-1.6719-1.3398-0.33984-0.33984-0.69141-0.69531-1.1055-1.0156-0.72656-0.56641-1.4492-0.79688-2.0938-0.66406-0.39453 0.082032-0.95312 0.34766-1.3789 1.1406-0.042969 0.082031-0.085938 0.16406-0.12891 0.24609-0.20703 0.40234-0.40234 0.78125-0.6875 0.91016-0.19922 0.089843-0.48438 0.074218-0.90234-0.039063-0.60547-0.16797-1.1875-0.42969-1.8008-0.70312-0.74219-0.33594-1.5117-0.67969-2.3516-0.85938-0.73047-0.15625-1.3359 0.0625-1.6172 0.58984-0.30078 0.5625-0.11719 1.3125 0.45312 1.8672 0.69922 0.67578 1.5273 1.1406 2.1016 1.4062l0.070313 0.035156c0.61719 0.28906 1.3164 0.62109 1.8242 1.0469 0.51953 0.43359 0.76172 0.90234 0.76562 1.4688 0 0.16016-0.019531 0.33203-0.039062 0.51562-0.03125 0.25781-0.0625 0.55078-0.039062 0.85938 0.039062 0.5 0.26953 0.95312 0.65234 1.2734 0.36719 0.30859 0.85547 0.47656 1.3555 0.47656 0.070312 0 0.14453-0.003907 0.21875-0.011719 0.96484-0.09375 1.7109-0.71094 2.3906-1.3359 0.058594-0.054687 0.12109-0.11328 0.18359-0.16797 0.38672-0.35937 0.75781-0.69922 1.1719-0.9375 0.78125-0.44922 1.4258-0.23828 2.4883 0.16406 0.16016 0.0625 0.32812 0.125 0.5 0.1875 0.36328 0.12891 0.91797 0.27344 1.5156 0.22656 0.62891-0.046876 1.1484-0.29688 1.4961-0.72266 0 0 0-0.003906 0.003906-0.003906 0.39062-0.47656 0.53516-1.0391 0.41406-1.6211-0.18359-0.95312-1.0195-1.6953-1.6758-2.043zm0.33203 2.9023c-0.33984 0.41016-1.1133 0.32031-1.6758 0.12109-0.15625-0.054688-0.32031-0.11719-0.47266-0.17578-1.0352-0.39062-2.2031-0.83594-3.5195-0.085938-0.53516 0.30469-0.96875 0.70703-1.3906 1.0977-0.058594 0.054687-0.11719 0.10937-0.17969 0.16406-0.53125 0.48438-1.1016 0.96484-1.6953 1.0234-0.25391 0.023437-0.50781-0.046876-0.67969-0.19141-0.13281-0.11328-0.21094-0.26172-0.22266-0.4375-0.015625-0.1875 0.011719-0.39844 0.035156-0.625 0.023438-0.21094 0.050781-0.42578 0.046875-0.65625-0.003906-0.92578-0.40625-1.7266-1.1992-2.3906-0.62891-0.52734-1.4062-0.89062-2.0898-1.2148l-0.070313-0.035156c-0.69141-0.32422-1.3203-0.74609-1.7734-1.1836-0.19141-0.18359-0.23047-0.35547-0.22656-0.41406 0.039063-0.011719 0.13281-0.023438 0.29688 0.011719 0.71484 0.15234 1.3906 0.45703 2.1094 0.77734 0.62891 0.28125 1.2773 0.57422 1.9727 0.76563 0.44531 0.12109 1.1055 0.25391 1.7227-0.023438 0.67188-0.30078 1.0039-0.94531 1.2656-1.4609 0.039062-0.078124 0.078125-0.15234 0.11719-0.22656 0.16406-0.30859 0.35547-0.48828 0.55859-0.53125 0.27734-0.058594 0.66797 0.097656 1.0977 0.43359 0.35547 0.27734 0.66406 0.58984 0.99219 0.91797 0.57031 0.57422 1.1602 1.1641 2.0039 1.5703 0.31641 0.15234 0.63672 0.28906 0.94922 0.42188 0.39453 0.16406 0.76953 0.32031 1.125 0.51172 0.45312 0.23828 0.96484 0.73828 1.0625 1.2188 0.050781 0.22656 0 0.42188-0.16016 0.61719z"/>
  <path d="m30.996 57.551c0.48047 0.87891 1.082 1.6406 1.7344 2.207 0.80469 0.69531 1.6797 1.0938 2.5977 1.1797 0.41016 0.039062 0.80859 0.015625 1.1914-0.011719 0.34766-0.023437 0.67578-0.042969 0.98828-0.015625 0.77344 0.070313 1.5156 0.48047 1.9883 1.0977 0.27734 0.35938 0.47266 0.79297 0.68359 1.2539 0.070312 0.15234 0.14062 0.30859 0.21484 0.46484 0.30078 0.61719 0.74219 1.3867 1.5117 1.8438 0.375 0.22266 0.79297 0.32813 1.1992 0.32813 0.5625 0 1.1016-0.21094 1.4609-0.61328 0.42188-0.47266 0.58203-1.1758 0.44531-1.9375-0.066407-0.375-0.19141-0.71875-0.3125-1.0469-0.058594-0.16016-0.11328-0.3125-0.16016-0.46094-0.18359-0.58594-0.26172-1.2031-0.34375-1.8594-0.074218-0.58984-0.14844-1.1953-0.30859-1.7969-0.32031-1.2109-1.082-2.2227-2.0352-2.707-0.99219-0.50391-2.0898-0.40625-3.0977 0.26563-0.097656 0.066406-0.19531 0.13281-0.28906 0.19922-0.39844 0.27734-0.77734 0.53906-1.168 0.60938-0.52344 0.09375-1.1484-0.14062-1.8555-0.70312-0.17188-0.13281-0.33594-0.27734-0.51172-0.42578-0.50391-0.42969-1.0195-0.875-1.6719-1.1602-0.72656-0.32031-1.4453-0.3125-1.9727 0.023437-0.54688 0.34375-0.85938 1.0117-0.80859 1.7422 0.035157 0.57031 0.28516 1.0898 0.51953 1.5234zm0.93359-2.2539c0.21484-0.13281 0.57422-0.054687 0.84375 0.0625 0.48828 0.21484 0.91797 0.58594 1.3711 0.97266 0.17578 0.15234 0.35938 0.30859 0.54688 0.45703 0.99219 0.78516 1.9414 1.1016 2.8203 0.94531 0.65234-0.11719 1.1797-0.48438 1.6445-0.80859 0.09375-0.0625 0.17969-0.125 0.26953-0.18359 0.64453-0.42969 1.2773-0.49219 1.875-0.19141 0.64844 0.32812 1.1797 1.0547 1.4141 1.9375 0.13672 0.52344 0.20703 1.0625 0.27734 1.6367 0.085937 0.67969 0.17578 1.3789 0.38672 2.0664 0.054688 0.17969 0.11719 0.34766 0.17969 0.51562 0.10938 0.29688 0.20703 0.57422 0.25781 0.85156 0.070313 0.38281 0.011719 0.72656-0.15625 0.91406-0.25 0.28125-0.78906 0.25391-1.1367 0.046875-0.49219-0.28906-0.8125-0.86328-1.0391-1.3281-0.070313-0.14453-0.13281-0.28906-0.20312-0.44141-0.22656-0.5-0.46484-1.0195-0.82422-1.4883-0.67578-0.87891-1.7344-1.4609-2.8359-1.5625-0.14844-0.015625-0.29688-0.019531-0.44141-0.019531-0.25 0-0.49609 0.015624-0.73438 0.03125-0.35156 0.023437-0.68359 0.042968-0.99609 0.015624-1.7812-0.17187-2.9609-1.9883-3.3828-2.7617-0.18359-0.33203-0.35547-0.6875-0.375-1.0312-0.027344-0.26953 0.074219-0.53516 0.23828-0.63672z"/>
  <path d="m35.699 45.289c0.28125 0.17969 0.75 0.47656 0.75391 0.73047 0.003906 0.18359-0.21875 0.38281-0.55859 0.66797-0.21094 0.17578-0.42578 0.35547-0.61328 0.57812-0.50781 0.60938-0.66406 1.4883-0.39844 2.2344 0.26563 0.74609 0.9375 1.332 1.7148 1.4883 0.625 0.125 1.2188-0.023437 1.7422-0.15234 0.38281-0.097657 0.74609-0.1875 1.0742-0.16016 0.70313 0.046875 1.3008 0.59766 1.9414 1.1758 0.26172 0.23828 0.53125 0.48438 0.82031 0.70703 0.41797 0.32031 1.0273 0.66797 1.6992 0.66797 0.12109 0 0.24219-0.011718 0.36719-0.035156 0.089843-0.019531 0.17578-0.042968 0.25781-0.070312 1.1055-0.39844 1.457-1.7617 1.1523-2.793-0.20312-0.68359-0.60547-1.2305-0.98828-1.7617-0.11719-0.16016-0.22656-0.3125-0.33203-0.46484-0.32422-0.48047-0.67578-1.1719-0.49609-1.7422 0.082031-0.26172 0.27734-0.51562 0.48047-0.78516 0.24609-0.32031 0.52734-0.6875 0.67188-1.1445 0.25391-0.78906 0.070313-1.6914-0.53906-2.6797-0.26953-0.43359-0.90625-1.207-1.6133-1.8438-0.98828-0.89453-1.8398-1.2852-2.5234-1.1602-0.44531 0.078125-1.0156 0.40234-1.2227 1.4688-0.058594 0.30859-0.066406 0.60156-0.070313 0.88281-0.007812 0.26953-0.011719 0.52344-0.0625 0.74609-0.050781 0.21094-0.16016 0.33984-0.21875 0.35156-0.054687 0.011719-0.19531-0.027343-0.54297-0.38281l-1.4922-1.5352c-0.39062-0.40234-1.125-1.1523-2.0938-1.0625-0.66797 0.0625-1.2734 0.53906-1.543 1.2148-0.20703 0.52344-0.21875 1.1328-0.035156 1.7734 0.32812 1.1445 1.2031 2.1562 2.668 3.0859zm-1.5156-4.4141c0.10156-0.25 0.31641-0.44141 0.53125-0.46094 0.34766-0.03125 0.74219 0.32031 1.1172 0.70313l1.4922 1.5352c0.22656 0.23438 0.73047 0.75391 1.3945 0.75391 0.074219 0 0.15625-0.007812 0.23438-0.023438 0.55859-0.10547 1.0078-0.58594 1.1719-1.2539 0.085938-0.35156 0.09375-0.6875 0.10156-1.0117 0.003907-0.24219 0.011719-0.47266 0.050782-0.67578 0.046875-0.23047 0.13672-0.48828 0.25391-0.51172 0.16406-0.03125 0.66797 0.11719 1.4961 0.86719 0.65234 0.58984 1.207 1.2812 1.3945 1.582 0.28516 0.46094 0.58984 1.1289 0.41406 1.6758-0.082032 0.25781-0.27734 0.51172-0.48047 0.77734-0.25 0.32422-0.53125 0.69531-0.67578 1.1562-0.25781 0.82812-0.039063 1.7656 0.65234 2.7852 0.11719 0.17187 0.23828 0.33984 0.35547 0.5 0.34375 0.46875 0.66406 0.90625 0.80859 1.3906 0.14844 0.49609 0.007812 1.1602-0.40234 1.3086-0.027344 0.011719-0.054688 0.019532-0.082031 0.023438-0.28516 0.054687-0.67969-0.09375-1.0938-0.40625-0.24609-0.19141-0.48828-0.40625-0.74219-0.64062-0.72656-0.66016-1.5508-1.4102-2.6719-1.4883-0.0625-0.003907-0.125-0.007813-0.1875-0.007813-0.44922 0-0.87891 0.10547-1.2656 0.20312-0.44141 0.10938-0.85547 0.21094-1.2109 0.14062-0.36328-0.074219-0.69141-0.35547-0.8125-0.70703-0.125-0.34766-0.046875-0.77344 0.19141-1.0586 0.11328-0.13672 0.28125-0.27734 0.45703-0.42188 0.44922-0.375 1.0078-0.83984 0.99219-1.6172-0.015625-0.90625-0.82812-1.4258-1.3164-1.7305-1.207-0.76562-1.9141-1.5508-2.1602-2.4062-0.11328-0.36719-0.11719-0.71484-0.007812-0.98047z"/>
  <path d="m48.047 26.414c0.41406-1.1875 0.88281-2.5312 0.28516-3.7891-0.50391-1.0586-1.2891-1.2031-1.7109-1.1953-1.0664 0.023437-2.0469 0.98047-2.4297 1.875-0.50391 1.1797-0.83984 2.4219-1.0039 3.6914-0.007812 0.058594-0.015625 0.11719-0.023438 0.17969-0.039062 0.32422-0.078124 0.63281-0.17578 0.89844-0.19531 0.52344-0.67578 0.70312-1.4492 0.95703-0.78516 0.25781-1.7656 0.57812-2.1523 1.6406-0.52344 1.4414 0.64844 2.6758 1.2773 3.3438 1.2773 1.3516 2.6445 2.0352 4.0586 2.0352h0.066406c0.074219-0.003906 0.14844-0.003906 0.22656-0.011719 0.91406-0.066406 2.2109-0.5 2.8477-1.4961 0.72266-1.1328 0.28906-2.6406 0.03125-3.5469-0.38672-1.3477-0.44531-2.5195-0.17188-3.582 0.085938-0.30859 0.20312-0.64453 0.32422-1zm-1.3086 4.9141c0.21484 0.75391 0.54297 1.8867 0.11328 2.5586-0.37109 0.57812-1.2539 0.89062-1.918 0.94141-0.050782 0.003906-0.10547 0.007813-0.15625 0.007813h-0.046875c-1.0703 0-2.1406-0.55859-3.1797-1.6562-0.65234-0.6875-1.2656-1.4141-1.0195-2.0977 0.17578-0.48438 0.64453-0.66016 1.3906-0.90625 0.80078-0.26172 1.7969-0.58984 2.207-1.6875 0.14844-0.39844 0.19531-0.79297 0.24219-1.1719 0.007812-0.058594 0.015625-0.11328 0.023437-0.17188 0.14844-1.1602 0.45703-2.293 0.91406-3.3711 0.25-0.58594 0.88672-1.1289 1.3398-1.1367h0.019531c0.10156 0 0.34766 0.027343 0.57422 0.50391 0.38281 0.80859 0.019531 1.8594-0.33594 2.8711-0.13281 0.37891-0.25781 0.73828-0.34766 1.0977-0.32422 1.2617-0.26172 2.6797 0.17969 4.2188z"/>
 </g>
</svg>
