<?xml version="1.0" encoding="UTF-8"?>
<svg width="100pt" height="100pt" version="1.1" viewBox="0 0 100 100" xmlns="http://www.w3.org/2000/svg">
 <g>
  <path d="m63.352 75.258c-3.6133 1.1602-7.4297 1.8633-11.086 2.0508-0.23047 0.011718-0.44141 0.12891-0.57422 0.31641-0.12891 0.17969-0.25 0.35938-0.36719 0.53906-0.16406 0.24609 0.003906 0.57422 0.30078 0.58203 3.8359 0.11719 7.7773 0.8125 11.734 2.082 1.9336 0.62109 3.9492 0.93359 5.9922 0.93359 4.1875 0 8.1484-1.2852 11.504-3.7188-3.3555-2.4336-7.3164-3.7148-11.504-3.7148-2.043-0.003906-4.0625 0.30859-6 0.92969z"/>
  <path d="m48.238 77.629c-0.13281-0.19141-0.34766-0.30859-0.58203-0.32031-3.6016-0.17188-7.3008-0.85938-11.012-2.0547-1.9336-0.62109-3.957-0.93359-6.0039-0.93359-4.1875 0-8.1445 1.2812-11.5 3.7148 3.3594 2.4375 7.3164 3.7188 11.5 3.7188 2.0469 0 4.0664-0.3125 6-0.93359 3.9336-1.2617 7.8477-1.957 11.66-2.0781 0.29297-0.007813 0.46484-0.33203 0.30078-0.57813-0.11719-0.17578-0.23828-0.35547-0.36328-0.53516z"/>
  <path d="m48.797 76.465c0.003906 0.003906 0.007813 0.011718 0.011719 0.015625 0.29688 0.41406 0.57422 0.82031 0.83594 1.2227 0.14844 0.22656 0.47656 0.23438 0.62891 0.003906 0.26953-0.41406 0.5625-0.83203 0.875-1.2617 3.8125-5.2305 10.066-10.879 14.637-15 0.46484-0.41797 0.91406-0.82422 1.3438-1.2148 2.582-2.3477 4.7852-5.0742 6.5352-8.1133 3.6797-6.3789 5.1562-13.566 4.2852-20.836-6.7266 2.8789-12.215 7.7539-15.898 14.133-1.7617 3.0547-3.0273 6.3281-3.7656 9.7344-1.0898 5.0312-2.7031 9.7617-4.9258 14.469-0.53906 1.1367-1.207 2.2344-1.9844 3.2656l-0.50391 0.66797v2.0898c0 0.49219-0.35547 0.94141-0.84375 0.98828-0.5625 0.054688-1.0352-0.38281-1.0352-0.93359v-2.3008l-0.13281-0.16797c-0.99609-1.2773-1.8164-2.6289-2.4336-4.0273-2.0586-4.6523-3.6445-9.5078-4.7109-14.441-0.74219-3.418-2.0078-6.6953-3.7656-9.7344-3.6836-6.3789-9.1719-11.254-15.902-14.137-0.87109 7.2695 0.60547 14.461 4.2891 20.84 1.7578 3.0469 3.957 5.7773 6.5352 8.1172 5.6797 5.1562 12.016 11.164 15.918 16.621 0.007813-0.007813 0.007813-0.003906 0.007813 0z"/>
  <path d="m51.125 30.738c0-0.64453-0.52344-1.168-1.168-1.168s-1.168 0.52344-1.168 1.168c0 0.98828 0.66797 3.6289 1.168 4.0977 0.5-0.46875 1.168-3.1094 1.168-4.0977z"/>
  <path d="m49.992 72.832 0.48437-0.64062c0.058594-0.078125 0.11719-0.16016 0.17578-0.24219 0.14062-0.19531 0.21875-0.42578 0.21875-0.66797v-27.762c0-0.22266-0.19141-0.39453-0.41406-0.37109-0.17188 0.019531-0.35156 0.03125-0.52734 0.03125-0.17969 0-0.35156-0.011719-0.52734-0.027344-0.22266-0.023438-0.41406 0.14844-0.41406 0.37109v27.605c0 0.23047 0.070313 0.45703 0.20312 0.64844 0.17578 0.25391 0.36328 0.50391 0.55469 0.75z"/>
  <path d="m49.93 76.625c0.51953 0 0.94141-0.42188 0.94141-0.94141v-2.1445l-0.42188 0.55859c-0.023438 0.027344-0.035157 0.039063-0.046875 0.050782-0.015625 0.015624-0.027344 0.027343-0.042969 0.042968-0.019531 0.015625-0.027344 0.019532-0.039063 0.027344-0.019531 0.011719-0.035156 0.023438-0.054687 0.035156-0.015625 0.007813-0.027344 0.011719-0.042969 0.019532-0.019531 0.007812-0.039062 0.015624-0.058594 0.023437-0.015624 0.003906-0.03125 0.007813-0.046874 0.011719-0.019532 0.003906-0.039063 0.007812-0.058594 0.007812-0.015625 0-0.03125 0-0.050782 0.003906h-0.058593c-0.015625 0-0.03125-0.003906-0.046875-0.007812-0.019532-0.003906-0.039063-0.007812-0.058594-0.011719-0.015625-0.003906-0.035156-0.011719-0.050781-0.019531s-0.035157-0.011719-0.050781-0.023438c-0.019532-0.007812-0.035157-0.019531-0.050782-0.03125-0.011718-0.007812-0.019531-0.011718-0.03125-0.019531-0.027344-0.023437-0.039062-0.035156-0.054687-0.050781-0.015625-0.011719-0.027344-0.027344-0.039063-0.042969-0.011718-0.011719-0.57422-0.73047-0.57422-0.73047v2.3008c0 0.51953 0.42187 0.94141 0.9375 0.94141z"/>
  <path d="m41.164 36.055c-0.015624-1.1367-0.25781-2.7461-0.52344-3.4453-0.19531-0.51172-0.67969-0.82422-1.1953-0.82422-0.15234 0-0.30469 0.027344-0.45312 0.082032-0.66016 0.25-0.99219 0.99219-0.73828 1.6523 0.28906 0.76172 1.3203 2.3125 2.1016 3.1367 0.058593 0.0625 0.11328 0.11719 0.16797 0.16797 0.23047 0.22266 0.60937 0.066406 0.63281-0.25 0.003906-0.15625 0.007812-0.33203 0.007812-0.51953z"/>
  <path d="m44.672 36.91c-0.71484-0.35938-1.3906-0.57031-1.957-0.69531-0.22266-0.046875-0.43359 0.11719-0.44922 0.34375-0.027344 0.40234-0.089844 0.73438-0.19531 0.99609-0.085937 0.21484 0.039063 0.45312 0.26563 0.5 0.37109 0.082031 0.73437 0.19531 1.082 0.34375 0.21484 0.089843 0.42578 0.19141 0.63281 0.30859 0.20703 0.11719 0.48438 0.36719 0.73047 0.19141 0.19922-0.14453 0.058594-0.59766 0.058594-0.80859 0-0.19531 0.011718-0.47266 0.03125-0.81641 0.015625-0.14844-0.066406-0.29297-0.19922-0.36328z"/>
  <path d="m60.836 32.113c-0.14844-0.054687-0.30078-0.085937-0.45703-0.085937-0.17969 0-0.35547 0.039062-0.52344 0.11328-0.3125 0.14062-0.55078 0.39453-0.67188 0.71094-0.26562 0.69531-0.50781 2.3047-0.52344 3.4453-0.003906 0.1875 0 0.36719 0.011719 0.52344 0.023437 0.32031 0.40234 0.47266 0.63281 0.25 0.054687-0.050781 0.10937-0.10937 0.16797-0.17187 0.77734-0.82813 1.8086-2.375 2.0977-3.1367 0.25781-0.65625-0.074218-1.3984-0.73437-1.6484z"/>
  <path d="m53.887 37.945c-0.03125-1.3281-0.48047-5.9922-1.2773-10.75-1.0312-6.1719-1.9219-8.1562-2.375-8.793-0.15234-0.21484-0.46484-0.21484-0.61719 0-0.44531 0.64062-1.3359 2.625-2.3672 8.793-0.75781 4.5391-1.2031 8.9922-1.2695 10.547-0.007813 0.14062-0.007813 0.25781-0.007813 0.34766 0 0.33203 0.046875 0.65234 0.12109 0.96094 0.375 1.5 1.6055 2.6602 3.1406 2.9336 0.22656 0.039063 0.45703 0.066406 0.69531 0.066406 0.23828 0 0.46875-0.023437 0.69531-0.066406 1.4609-0.26172 2.6484-1.3203 3.082-2.7148 0.11719-0.37109 0.17969-0.76953 0.17969-1.1797 0.003906-0.042969 0-0.09375 0-0.14453zm-3.3672-2.1367v2.8867c0 0.3125-0.25391 0.5625-0.5625 0.5625-0.3125 0-0.5625-0.25391-0.5625-0.5625v-2.8867c-1.2773-0.89844-1.7305-4.6953-1.7305-5.0703 0-1.2656 1.0312-2.293 2.293-2.293 1.2656 0 2.293 1.0312 2.293 2.293 0.003906 0.375-0.44922 4.168-1.7305 5.0703z"/>
  <path d="m55.02 39.234c0.1875 0.12891 0.41016-0.085937 0.56641-0.17969 0.21875-0.13281 0.44922-0.25391 0.68359-0.35547 0.39062-0.17578 0.79688-0.30859 1.2148-0.40234 0.22656-0.050781 0.35156-0.28516 0.26562-0.5-0.10156-0.26172-0.16406-0.59375-0.19141-0.99609-0.015625-0.22656-0.22656-0.39062-0.44922-0.34375-0.55078 0.12109-1.2109 0.32422-1.9062 0.66797-0.13281 0.066406-0.21484 0.21094-0.20703 0.35938 0.011718 0.24609 0.019531 0.44531 0.019531 0.60156 0 0.21484-0.011719 0.42969-0.039063 0.64062-0.019531 0.16016-0.12891 0.35938 0.019532 0.48828 0.007812 0.007812 0.015625 0.015625 0.023437 0.019531z"/>
 </g>
</svg>
