<?xml version="1.0" encoding="UTF-8"?>
<svg width="100pt" height="100pt" version="1.1" viewBox="0 0 100 100" xmlns="http://www.w3.org/2000/svg">
 <g>
  <path d="m25.059 61.184c2.2852 3.793 2.25 7.1562 1.9844 10.844-0.10938 1.4688-0.17969 5.0781 1.4531 6.8438 0.61719 0.66406 1.4062 0.99219 2.4102 0.99219 2.457 0 4.3086-2.418 4.9844-4.6758 0.92188-3.0664 0.53906-6.4258 0.054687-8.6992-0.46484-2.207-0.92969-4.0508-1.3359-5.6797-1.5156-6.0312-2.25-8.9688 0.93359-14.598 0.17578-0.30859 0.097656-0.69141-0.16406-0.93359-0.5625-0.51953-0.99609-1.1719-1.2422-1.9023-0.15625-0.46094-0.23438-0.94922-0.23438-1.4453 0-1.5195 0.75391-2.9375 2.0195-3.7891 0.75391-0.50391 1.6289-0.76953 2.5352-0.76953s1.7812 0.26562 2.5312 0.76953c0.0625 0.039063 0.11719 0.082031 0.17578 0.12109 1.1602 0.86719 1.8477 2.2344 1.8477 3.6641 0 0.44922-0.0625 0.88672-0.1875 1.3008-0.011719 0.046876-0.03125 0.10547-0.058594 0.16797-0.24219 0.71875-0.67188 1.3633-1.2266 1.875-0.26172 0.24219-0.33984 0.625-0.16406 0.93359 3.1875 5.6328 2.4531 8.5703 0.9375 14.605-0.41016 1.6289-0.87109 3.4727-1.3359 5.6719-0.48047 2.2773-0.86328 5.6328 0.054688 8.6992 0.67578 2.2539 2.5156 4.6758 4.9727 4.6758 1.0156-0.003907 1.8047-0.32812 2.4219-0.99609 1.6367-1.7656 1.5625-5.3711 1.457-6.8398-0.27344-3.6797-0.30859-7.0352 1.9766-10.844 1.6914-2.8008 3.125-5.7812 4.2617-8.8594 1.7812-4.8125 2.6367-8.7148 2.6875-12.27-0.26953-10.621-8.7695-19.348-19.355-19.883-0.16797-0.007812-0.34766-0.015624-0.52344-0.019531-0.14844-0.003906-0.27734-0.007812-0.41016-0.007812h-0.11719c-7.0625 0-13.766 3.6484-17.492 9.5234-4.7578 7.5039-2.5586 16.051-0.10938 22.656 1.1367 3.0742 2.5664 6.0547 4.2578 8.8672zm24.602 0.85938c-1.0156 3.3945-3.8867 6.1641-7.3203 7.0508-0.046875 0.011719-0.09375 0.019531-0.14062 0.019531-0.25 0-0.48047-0.16797-0.54688-0.42188-0.078125-0.30078 0.10547-0.60938 0.40625-0.6875 3.0586-0.78906 5.6172-3.2539 6.5234-6.2812 0.089844-0.29688 0.40234-0.46875 0.70312-0.37891 0.29297 0.089844 0.46484 0.40234 0.375 0.69922zm4.5547-13.297c-1.875 4.2266-4.9023 7.5312-8.75 9.5547-0.082032 0.042969-0.17188 0.066407-0.26172 0.066407-0.20312 0-0.39844-0.10938-0.5-0.30078-0.14453-0.27734-0.039063-0.61719 0.23828-0.76172 3.6211-1.9062 6.4727-5.0234 8.2461-9.0156 0.125-0.28516 0.46094-0.41406 0.74609-0.28516 0.27734 0.125 0.40625 0.45703 0.28125 0.74219zm1.1367-11.176c0.19922 0.23828 0.16797 0.59375-0.070312 0.79297s-0.59375 0.16797-0.79297-0.070312c-1.3398-1.5977-3.7578-2.2812-5.5391-2.2383-2.0039 0.039062-3.9531 0.88281-5.3555 2.3164-0.10938 0.11328-0.25781 0.16797-0.40234 0.16797-0.14062 0-0.28516-0.054687-0.39453-0.16016-0.22266-0.21875-0.22656-0.57422-0.007813-0.79688 1.6055-1.6406 3.8438-2.6094 6.1406-2.6523 2.5078-0.058594 5.0352 0.98437 6.4219 2.6406zm-16.621-1.6719c0.65234-6.0195 5.0352-10.449 10.66-10.77 0.31641-0.015625 0.57812 0.21875 0.59375 0.53125 0.019531 0.3125-0.21875 0.57812-0.53125 0.59375-5.0625 0.28906-9.0078 4.3047-9.6016 9.7656-0.03125 0.28906-0.27734 0.50391-0.55859 0.50391-0.019531 0-0.039063 0-0.0625-0.003907-0.30859-0.03125-0.53125-0.30859-0.5-0.62109zm-16.027 12.848c-0.125-0.28516 0.003906-0.61719 0.28516-0.74609 0.28516-0.12891 0.61719 0 0.74609 0.28516 1.7734 3.9922 4.6211 7.1094 8.2461 9.0156 0.27734 0.14453 0.38281 0.48438 0.23828 0.76172-0.10156 0.19141-0.29688 0.30078-0.5 0.30078-0.089844 0-0.17969-0.019531-0.26172-0.066406-3.8516-2.0195-6.875-5.3242-8.7539-9.5508zm12.16 19.258c0.30078 0.078125 0.48438 0.38672 0.40625 0.6875-0.066406 0.25391-0.29297 0.42188-0.54688 0.42188-0.046875 0-0.09375-0.007812-0.14062-0.019531-3.4336-0.88672-6.3047-3.6523-7.3203-7.0508-0.089844-0.29688 0.082031-0.61328 0.37891-0.70312s0.61328 0.082031 0.70312 0.37891c0.89844 3.0273 3.4609 5.4922 6.5195 6.2852zm-7.332-42.875c5.6211 0.32422 10.004 4.75 10.66 10.77 0.035156 0.30859-0.19141 0.58984-0.5 0.62109-0.019531 0.003907-0.042968 0.003907-0.0625 0.003907-0.28516 0-0.52734-0.21484-0.55859-0.50391-0.59375-5.4609-4.543-9.4766-9.6016-9.7656-0.3125-0.019531-0.54688-0.28516-0.53125-0.59375 0.015625-0.3125 0.28516-0.54688 0.59375-0.53125zm-6.1992 12.441c1.3867-1.6562 3.9062-2.6953 6.4258-2.6406 2.2969 0.046874 4.5312 1.0117 6.1406 2.6523 0.21875 0.22266 0.21484 0.57812-0.007813 0.79688-0.10938 0.10547-0.25391 0.16016-0.39453 0.16016-0.14453 0-0.29297-0.054687-0.40234-0.16797-1.4023-1.4297-3.3516-2.2773-5.3555-2.3164-1.7969-0.039063-4.1992 0.64062-5.5391 2.2383-0.19922 0.23828-0.55469 0.26953-0.79297 0.070312-0.24609-0.19922-0.27734-0.55469-0.074219-0.79297z"/>
  <path d="m41.707 43.016c0.007813-0.019531 0.015625-0.039063 0.023438-0.058594 0.003906-0.007812 0.015625-0.046875 0.019531-0.054687 0.09375-0.30859 0.14062-0.64062 0.14062-0.97656 0-1.0938-0.50391-2.0977-1.3867-2.7539-0.039062-0.027344-0.085937-0.0625-0.13672-0.09375-0.56641-0.37891-1.2266-0.57812-1.9062-0.57812-0.68359 0-1.3438 0.19922-1.9062 0.57812-0.95313 0.64062-1.5195 1.707-1.5195 2.8516 0 0.375 0.058594 0.73828 0.17578 1.0859 0.28125 0.84375 0.89453 1.5547 1.6797 1.9609 0.98438 0.50391 2.1602 0.50391 3.1445 0 0.78516-0.41406 1.3945-1.1289 1.6719-1.9609z"/>
  <path d="m71.414 69.309c-0.91797 0-1.6641 0.74609-1.6641 1.6641 0 0.91797 0.74609 1.6641 1.6641 1.6641 0.91797 0 1.6641-0.74609 1.6641-1.6641 0-0.91406-0.74609-1.6641-1.6641-1.6641z"/>
  <path d="m67.34 36.527-1.4609-3.0547c-0.125-0.26172-0.48438-0.28906-0.64844-0.054687l-2.125 3.043c-0.12109 0.17187-0.16406 0.38672-0.11719 0.59375l1.0352 4.6445c0.074218 0.33203 0.51562 0.40234 0.6875 0.10938 0.38672-0.66016 0.79687-1.3086 1.2305-1.9414 0.60156-0.875 1.0781-1.8047 1.4258-2.7656 0.074218-0.18359 0.058593-0.39453-0.027344-0.57422z"/>
  <path d="m71.301 63.73c-2.8242 0-5.5859 0.88672-7.8828 2.5117-0.26562 0.1875-0.375 0.53516-0.26953 0.84375 1.5625 4.6562 4.2539 8.9102 7.8906 12.336 0.14453 0.13672 0.375 0.13672 0.52344 0 3.6367-3.4258 6.3281-7.6797 7.8867-12.336 0.10156-0.30859-0.003907-0.65625-0.26953-0.84375-2.2969-1.625-5.0586-2.5117-7.8789-2.5117zm0.11328 10.039c-1.5391 0-2.793-1.2539-2.793-2.793 0-1.5391 1.2539-2.793 2.793-2.793 1.5391 0 2.793 1.2539 2.793 2.793 0 1.5391-1.2539 2.793-2.793 2.793z"/>
  <path d="m81.457 47.031c0.3125-2.1211 0.54297-4.7188 0.39453-7.2734-0.027343-0.43359-0.56641-0.62109-0.85547-0.29687l-2.1406 2.4102c-0.26562 0.29688-0.31641 0.72656-0.13672 1.082 0.67969 1.3555 1.2773 2.7461 1.8008 4.1641 0.17578 0.48047 0.86328 0.41406 0.9375-0.085938z"/>
  <path d="m73.656 33.633v-1.0859c0-2.0938 0.52734-4.1523 1.5312-5.9922l2.8555-5.2109c0.24219-0.44141-0.007813-1-0.5-1.0977-0.36719-0.070313-0.74609-0.10938-1.1328-0.10938-1.832 0-3.5742 0.875-4.6602 2.3438-0.22656 0.30469-0.67969 0.30469-0.90625 0-1.0859-1.4648-2.8281-2.3438-4.6562-2.3438-0.37109 0-0.73828 0.035156-1.0938 0.10156-0.5 0.09375-0.74609 0.66797-0.49219 1.1094l2.9336 5.1172c1.082 1.8867 1.6523 4.0273 1.6523 6.2031v0.61719c0 2.5391-0.79688 5.0352-2.3047 7.2227-3.4609 5.0195-5.2891 10.91-5.2891 17.031 0 2.3125 0.26953 4.5977 0.78906 6.8164 0.11719 0.50781 0.69531 0.74219 1.1406 0.46484 2.3242-1.4414 5.0273-2.2227 7.7852-2.2227 2.7539 0 5.457 0.78125 7.7852 2.2227 0.44141 0.27344 1.0195 0.039063 1.1406-0.46484 0.51953-2.2148 0.78906-4.5 0.78906-6.8164 0-6.0195-1.7695-11.828-5.1211-16.789-1.4766-2.1602-2.2461-4.6211-2.2461-7.1172z"/>
 </g>
</svg>
