<?xml version="1.0" encoding="UTF-8"?>
<svg width="100pt" height="100pt" version="1.1" viewBox="0 0 100 100" xmlns="http://www.w3.org/2000/svg">
 <g>
  <path d="m54.227 24.848c-3.9023-3.9961-9.1211-6.3555-14.691-6.6367h-0.003906c-0.19141-0.007813-0.37891-0.015626-0.56641-0.019532-0.14453-0.003906-0.29297-0.007812-0.44531-0.007812h-0.12109c-3.7188 0-7.4453 0.95312-10.777 2.7578-3.3555 1.8164-6.1797 4.4336-8.1641 7.5586-1.1641 1.8398-2.0078 3.8359-2.5039 5.9375-0.45312 1.9141-0.62891 3.9844-0.53125 6.1484 0.089844 1.9453 0.39453 3.9648 0.92969 6.168 0.45313 1.8672 1.0703 3.8438 1.8828 6.0352 1.1914 3.2148 2.6914 6.3438 4.4648 9.293 1.9844 3.2969 2.1875 6.1055 1.875 10.453-0.074219 1.0078-0.10938 2.5273 0.14453 4.0508 0.27734 1.6641 0.83203 2.9609 1.6523 3.8477 0.85156 0.92188 1.9688 1.3867 3.3203 1.3906h0.015625c3.1133 0 5.4062-2.9141 6.2188-5.6289 1.0156-3.3828 0.60547-7.0352 0.082031-9.5039-0.48047-2.2852-0.96094-4.1914-1.3828-5.875-1.5742-6.2695-2.2461-8.9531 1.1836-14.723 0.52734 0.19922 1.0781 0.29688 1.6484 0.29688 0.57031 0 1.1211-0.10156 1.6484-0.30078 3.4336 5.7773 2.7617 8.4609 1.1875 14.73-0.42188 1.6797-0.89844 3.5859-1.3789 5.8672-0.52344 2.4688-0.93359 6.1211 0.082032 9.5039 0.8125 2.7109 3.1016 5.6289 6.2148 5.6289h0.015624c1.3516-0.003906 2.4688-0.47266 3.3242-1.3906 0.82031-0.88672 1.3789-2.1797 1.6523-3.8477 0.25391-1.5273 0.21875-3.043 0.14453-4.0508-0.32031-4.3398-0.12109-7.1445 1.8672-10.453 1.7734-2.9375 3.2773-6.0664 4.4727-9.293 1.8711-5.0547 2.7695-9.1719 2.8281-12.949 0.003906-0.046876 0.003906-0.09375 0-0.13672-0.15625-5.582-2.3867-10.852-6.2891-14.852zm-17.383 19.988c-0.80859-0.41797-1.4375-1.1484-1.7227-2.0117v-0.003907c-0.12109-0.35547-0.18359-0.73047-0.18359-1.1133 0-1.1758 0.58594-2.2695 1.5625-2.9297 0.57812-0.38672 1.2578-0.59375 1.9609-0.59375 0.69922 0 1.375 0.20703 1.957 0.59375 0.050781 0.03125 0.097656 0.066406 0.14453 0.10156 0.90234 0.67578 1.418 1.7031 1.418 2.8242 0 0.34766-0.046875 0.68359-0.14453 1.0039-0.003907 0.007813-0.007813 0.019531-0.007813 0.027344-0.003906 0.007813-0.003906 0.015625-0.011719 0.03125-0.007812 0.019531-0.015625 0.039063-0.023437 0.058594-0.28516 0.85938-0.91016 1.5938-1.7188 2.0117-0.50781 0.26172-1.0508 0.39062-1.6172 0.39062-0.56641 0-1.1094-0.12891-1.6133-0.39062zm22.508-5.0508c-0.050781 3.6523-0.92969 7.6562-2.7578 12.602-1.1719 3.1602-2.6406 6.2227-4.3789 9.0977-1.0625 1.7695-1.6914 3.4922-1.9727 5.4297-0.28125 1.9062-0.19141 3.8711-0.058594 5.707 0.10938 1.5078 0.1875 5.2109-1.4922 7.0234-0.63281 0.68359-1.4453 1.0195-2.4766 1.0234h-0.011719c-2.5195 0-4.4102-2.4883-5.1055-4.8008-0.94531-3.1484-0.55078-6.5977-0.058594-8.9336 0.47656-2.2617 0.95313-4.1523 1.3711-5.8242 1.6055-6.3945 2.3594-9.4023-1.2852-15.555 0.8125-0.57031 1.4336-1.3906 1.7539-2.3281 0.027344-0.0625 0.046875-0.12109 0.0625-0.18359 0.125-0.42578 0.19141-0.87109 0.19141-1.3242 0-0.73828-0.17969-1.4805-0.51562-2.1367-0.32422-0.63281-0.80078-1.1953-1.375-1.6211-0.003907-0.003907-0.007813-0.003907-0.011719-0.007813-0.054688-0.039063-0.11328-0.082031-0.17969-0.125-0.77344-0.51562-1.6719-0.78906-2.6016-0.78906-0.93359 0-1.832 0.27344-2.6055 0.78906-1.2969 0.875-2.0742 2.3281-2.0742 3.8906 0 0.51172 0.082031 1.0117 0.24219 1.4844 0.19141 0.57422 0.49219 1.1016 0.88672 1.5625 0.26172 0.30078 0.55078 0.56641 0.875 0.79297-3.6406 6.1484-2.8867 9.1562-1.2812 15.547 0.42187 1.6719 0.89453 3.5664 1.375 5.832 0.49609 2.3359 0.88672 5.7812-0.058594 8.9336-0.69141 2.3125-2.5859 4.8008-5.1094 4.8008h-0.011719c-1.0312-0.003906-1.8438-0.33594-2.4766-1.0195-1.6797-1.8086-1.6016-5.5156-1.4922-7.0273 0.13281-1.8398 0.21484-3.8047-0.0625-5.7031-0.28516-1.9375-0.91016-3.6602-1.9766-5.4297-1.7344-2.8867-3.2031-5.9492-4.3711-9.0977-2.5156-6.7852-4.7734-15.559 0.11328-23.266 3.8281-6.0312 10.711-9.7812 17.965-9.7812h0.12109c0.14063 0 0.28125 0.003906 0.41406 0.007813h0.003906c0.17969 0.003906 0.35938 0.011719 0.54297 0.019531 10.867 0.55078 19.598 9.5117 19.871 20.398v0.007812c0.011718-0.007812 0.011718-0.003906 0.011718 0.003906z"/>
  <path d="m34.754 27.961c-0.97266-1.0234-2.0938-1.8438-3.3359-2.4375-1.3008-0.62109-2.7109-0.98047-4.1836-1.0625-0.32031-0.019532-0.59375 0.22656-0.61328 0.54297-0.019532 0.32031 0.22656 0.59375 0.54297 0.61328 5.1953 0.29687 9.25 4.4219 9.8594 10.027 0.03125 0.29688 0.28516 0.51562 0.57422 0.51562 0.019532 0 0.042969-0.003906 0.0625-0.003906 0.31641-0.035156 0.54688-0.32031 0.51562-0.63672-0.3125-2.875-1.5273-5.5586-3.4219-7.5586z"/>
  <path d="m31.531 58.59c0.20703 0 0.41016-0.11328 0.51172-0.30859 0.14844-0.28516 0.039062-0.63281-0.24219-0.78125-3.7188-1.957-6.6445-5.1562-8.4648-9.2578-0.12891-0.29297-0.47266-0.42578-0.76563-0.29297-0.29297 0.12891-0.42578 0.47266-0.29297 0.76562 0.93359 2.1055 2.1641 4.0117 3.6562 5.6602 1.543 1.707 3.3359 3.1055 5.3281 4.1484 0.085937 0.042968 0.17969 0.066406 0.26953 0.066406z"/>
  <path d="m28.062 62.035c-0.09375-0.30469-0.41406-0.48047-0.71875-0.39062-0.30469 0.09375-0.48047 0.41406-0.39062 0.71875 1.043 3.4883 3.9922 6.3281 7.5195 7.2383 0.046875 0.011719 0.097656 0.019532 0.14453 0.019532 0.25781 0 0.49219-0.17578 0.55859-0.43359 0.078125-0.30859-0.10547-0.625-0.41406-0.70703-3.1406-0.80469-5.7695-3.3398-6.6992-6.4453z"/>
  <path d="m49.742 25.617c0.32031-0.019532 0.5625-0.29297 0.54297-0.61328-0.019531-0.32031-0.29297-0.5625-0.61328-0.54297-1.4727 0.085937-2.8828 0.44141-4.1836 1.0625-1.2422 0.59375-2.3633 1.4102-3.3359 2.4375-1.8945 1.9961-3.1133 4.6836-3.4258 7.5586-0.035156 0.31641 0.19531 0.60547 0.51563 0.63672 0.023437 0.003906 0.042968 0.003906 0.0625 0.003906 0.29297 0 0.54297-0.21875 0.57422-0.51562 0.61328-5.6055 4.668-9.7305 9.8633-10.027z"/>
  <path d="m54.34 47.945c-0.29297-0.12891-0.63281 0.003907-0.76562 0.29297-1.8203 4.1016-4.7461 7.3008-8.4648 9.2578-0.28516 0.14844-0.39062 0.49609-0.24219 0.78125 0.10547 0.19922 0.30469 0.30859 0.51172 0.30859 0.089844 0 0.18359-0.023438 0.26953-0.066407 1.9883-1.0469 3.7812-2.4453 5.3281-4.1484 1.4922-1.6484 2.7227-3.5547 3.6562-5.6602 0.12891-0.29297-0.003906-0.63672-0.29297-0.76563z"/>
  <path d="m49.566 61.645c-0.30469-0.09375-0.62891 0.082031-0.71875 0.39062-0.92969 3.1094-3.5547 5.6367-6.6953 6.4492-0.30859 0.078125-0.49609 0.39453-0.41406 0.70703 0.066407 0.26172 0.30078 0.43359 0.55859 0.43359 0.046875 0 0.097656-0.007812 0.14453-0.019531 3.5234-0.91016 6.4766-3.75 7.5195-7.2383 0.085937-0.30859-0.089844-0.62891-0.39453-0.72266z"/>
  <path d="m27.461 34.523c-1.1797-0.023438-2.4453 0.20312-3.5664 0.63672-1.2422 0.48047-2.293 1.1992-3.0273 2.0742-0.20703 0.24609-0.17578 0.60938 0.070312 0.81641s0.60938 0.17578 0.81641-0.070312c1.375-1.6406 3.8477-2.3359 5.6875-2.2969 2.0547 0.042968 4.0586 0.90625 5.5 2.3789 0.11328 0.11719 0.26562 0.17578 0.41406 0.17578 0.14453 0 0.29297-0.054687 0.40625-0.16406 0.22656-0.22266 0.23047-0.58984 0.007812-0.81641-1.6523-1.6953-3.9531-2.6875-6.3086-2.7344z"/>
  <path d="m52.773 35.156c-1.125-0.43359-2.3906-0.66016-3.5664-0.63672-2.3594 0.046875-4.6523 1.0391-6.3047 2.7266-0.22266 0.22656-0.21875 0.59766 0.007812 0.81641 0.11328 0.10938 0.25781 0.16406 0.40625 0.16406 0.14844 0 0.30078-0.058593 0.41406-0.17578 1.4375-1.4688 3.4453-2.3359 5.5-2.3789 1.8398-0.035156 4.3125 0.66016 5.6875 2.2969 0.20703 0.24609 0.57031 0.27734 0.81641 0.070312 0.24609-0.20703 0.27734-0.57031 0.070313-0.81641-0.74219-0.86719-1.7891-1.5859-3.0312-2.0664z"/>
  <path d="m83.262 46.695c0.44922-3.1211 0.46094-5.8594 0.035156-8.1445-0.039063-0.21875-0.20312-0.39062-0.41406-0.45312-0.21094-0.058594-0.44141 0.007813-0.58984 0.17578l-3.1914 3.5938c-0.39062-0.68359-0.80859-1.3555-1.2539-2.0117-1.3711-2.0273-2.0938-4.3359-2.0938-6.6641v-1.1133c0-1.9492 0.49609-3.8867 1.4336-5.5977l3.6914-6.7422c0.074219-0.13672 0.09375-0.30078 0.046875-0.44922-0.046875-0.14844-0.14844-0.27344-0.28906-0.34766-0.99219-0.50781-2.0703-0.76562-3.2109-0.76562-1.1289 0-2.2539 0.26953-3.25 0.78125-0.75 0.38281-1.4336 0.90625-2 1.5273-0.57031-0.62109-1.25-1.1406-1.9961-1.5273-0.99609-0.51172-2.1211-0.78125-3.2461-0.78125s-2.2305 0.26562-3.207 0.76562c-0.14062 0.070313-0.24609 0.19922-0.28906 0.35156-0.042969 0.15234-0.027344 0.31641 0.050781 0.45312l3.8203 6.6641c1.0078 1.7617 1.543 3.7656 1.543 5.793v0.63281c0 0.62109-0.050781 1.2383-0.15234 1.8477l-1.7461-3.6562c-0.089844-0.1875-0.26953-0.30859-0.47656-0.32812-0.20703-0.015625-0.40234 0.074219-0.52344 0.24609l-3.4727 4.9766c-0.09375 0.13281-0.125 0.30078-0.089844 0.45703l1.7148 7.6914c-2.0117 4.2461-3.0586 8.8945-3.0586 13.672 0 2.3359 0.25391 4.668 0.75391 6.9297 0.16797 0.76562 0.36719 1.5273 0.59375 2.2773 0.003907 0.015625 0.011719 0.03125 0.015625 0.050781 0.42188 1.3945 0.9375 2.7578 1.543 4.0781 0.92578 2.0117 2.0625 3.9375 3.3867 5.7188 1.3125 1.7695 2.8125 3.4062 4.4609 4.8711 0.10938 0.097656 0.24609 0.14453 0.38281 0.14453 0.13672 0 0.27734-0.046875 0.38281-0.14453 1.6484-1.4648 3.1484-3.1055 4.4609-4.875 1.3203-1.7852 2.4609-3.707 3.3828-5.7188 0.94141-2.0508 1.6602-4.2031 2.1484-6.4062 0.49609-2.2617 0.75391-4.5938 0.75391-6.9297 0-2.4414-0.27344-4.8477-0.80859-7.1875 0.11328-0.44141 0.47656-1.9062 0.75781-3.8555zm-0.92969-6.7227c0.25391 2.3477 0.035157 4.793-0.21484 6.543-0.085938 0.59766-0.17969 1.1484-0.27344 1.6367-0.5625-1.793-1.2812-3.5312-2.1523-5.2031zm-18.762-3.5938 2.7578-3.9492 1.9258 4.0312c-0.36328 1.0938-0.89062 2.1523-1.5703 3.1406-0.63672 0.92578-1.2227 1.875-1.7539 2.8516zm8.6055 44.082c-4.0117-3.6914-6.9375-8.3438-8.5469-13.449 2.4414-1.8789 5.4609-2.9102 8.5469-2.9102 3.0859 0 6.1055 1.0312 8.5469 2.9102-1.6094 5.1016-4.5352 9.7578-8.5469 13.449zm8.8906-14.641c-1.1445-0.82812-2.3906-1.4922-3.7148-1.9727-1.6562-0.60156-3.3984-0.90625-5.1797-0.90625s-3.5234 0.30469-5.1797 0.90625c-1.3242 0.48047-2.5703 1.1445-3.7148 1.9727-0.70703-2.6094-1.0781-5.3242-1.0781-8.0742 0-4.6484 1.0273-9.1719 3.0039-13.293 0.019531-0.035156 0.039063-0.066406 0.050781-0.10547 0.68359-1.4141 1.4766-2.7812 2.3789-4.0898 1.5469-2.2461 2.3672-4.8086 2.3672-7.4141v-0.63281c0-2.2305-0.58594-4.4336-1.6953-6.3672l-3.5039-6.1172c0.66797-0.25781 1.3906-0.38672 2.1211-0.38672 1.8789 0 3.668 0.89844 4.7812 2.4023 0.10938 0.14844 0.28125 0.23437 0.46484 0.23437 0.18359 0 0.35547-0.089843 0.46484-0.23437 1.1133-1.5078 2.9023-2.4023 4.7852-2.4023 0.74609 0 1.4648 0.13281 2.1367 0.39453l-3.3945 6.1953c-1.0312 1.8789-1.5742 4.0078-1.5742 6.1523v1.1133c0 2.5625 0.79297 5.0938 2.293 7.3125 0.57031 0.84766 1.1016 1.7188 1.582 2.6133 0.007812 0.015625 0.015624 0.027344 0.023437 0.042968 2.3984 4.4609 3.6523 9.4492 3.6523 14.586 0.011719 2.75-0.35938 5.4648-1.0703 8.0703z"/>
  <path d="m72.293 68.672c-1.582 0-2.8672 1.2852-2.8672 2.8672 0 1.582 1.2852 2.8672 2.8672 2.8672s2.8672-1.2852 2.8672-2.8672c0-1.582-1.2852-2.8672-2.8672-2.8672zm0 4.5742c-0.94141 0-1.7109-0.76562-1.7109-1.7109 0-0.94531 0.76562-1.7109 1.7109-1.7109 0.94531 0 1.7109 0.76562 1.7109 1.7109 0 0.94531-0.76953 1.7109-1.7109 1.7109z"/>
 </g>
</svg>
