<?xml version="1.0" encoding="UTF-8"?>
<svg width="100pt" height="100pt" version="1.1" viewBox="0 0 100 100" xmlns="http://www.w3.org/2000/svg">
 <path d="m85.547 39.832c-0.53516-0.53906-1.25-0.83594-2.0117-0.83594h-0.019531l-11.211 0.10156h-0.003907c-0.66016 0.011719-1.2969 0.23438-1.793 0.63672-0.90234 0.73047-1.6758 1.7422-2.3555 3.1016-0.28516 0.5625-0.83594 0.90234-1.4688 0.90234h-0.007813c-0.62891 0-1.1758-0.33203-1.4648-0.89062-0.003907-0.003906-0.003907-0.007812-0.003907-0.007812-0.14453-0.27344-0.32422-0.51562-0.52734-0.71484-0.61719-0.61719-1.4688-0.92188-2.3438-0.84375-0.84375 0.074219-1.6055 0.51953-2.0859 1.2148-0.65234 0.9375-1.1875 2.0508-1.5938 3.3086-0.15234 0.47266-0.51172 0.84766-0.98047 1.0273-0.46875 0.17969-0.98828 0.13672-1.4219-0.11719l-0.007812-0.003906c0.03125-0.082032 0.066406-0.16016 0.10547-0.23828 0.74219-1.4531 1.2461-2.8945 1.4961-4.2812 0.17969-0.99219-0.089844-2.0078-0.73438-2.7812-0.67188-0.80469-1.6523-1.2695-2.6914-1.2695-0.35547 0-0.71094 0.054687-1.0586 0.16406h-0.003906c-0.80859 0.25781-1.6445 0.050781-2.2422-0.55078-0.59766-0.60156-0.79688-1.4453-0.53125-2.2461 0.58594-1.7734 0.79687-3.3242 0.64453-4.7422-0.078125-0.76172-0.42578-1.4883-0.97656-2.0508l-9.7969-9.9727c-0.64062-0.65234-1.4922-1.0117-2.4062-1.0117-0.91016 0-1.7695 0.35938-2.4062 1.0117l-9.7852 9.9609c-0.55078 0.5625-0.89453 1.293-0.97656 2.0508-0.15234 1.418 0.058594 2.9688 0.64063 4.7422 0.26562 0.80469 0.066406 1.6445-0.52734 2.2461-0.59766 0.60547-1.4375 0.80859-2.2461 0.55469h-0.003906c-0.34766-0.10938-0.70312-0.16406-1.0547-0.16406-1.0391 0-2.0195 0.46094-2.6914 1.2695-0.64844 0.77734-0.91406 1.7891-0.73438 2.7812 0.25 1.3867 0.75391 2.8281 1.4961 4.2852 0.30469 0.59375 0.32031 1.2852 0.046875 1.8945-0.27734 0.61719-0.80859 1.0703-1.4609 1.2422l-2.1289 0.55859c-0.98828 0.26172-1.8086 0.9375-2.2539 1.8555-0.44531 0.92188-0.46094 1.9883-0.046875 2.9258 0.87109 1.957 2.1094 3.8789 3.6797 5.7227 1.4727 1.7266 3.293 3.4414 5.4102 5.0977 3.707 2.8984 8.4258 5.7188 14.414 8.6172v7.2695c0 0.34766 0.28125 0.62891 0.62891 0.62891 0.34766 0 0.62891-0.28125 0.62891-0.62891v-7.2656c5.0859-2.4609 9.2578-4.8672 12.672-7.3125 0.41406 1.4375 0.89063 2.9375 1.4492 4.5469l-9.5859 9.5859c-0.24609 0.24609-0.24609 0.64453 0 0.89062 0.125 0.125 0.28516 0.18359 0.44531 0.18359s0.32031-0.0625 0.44531-0.18359l9.5625-9.5625c5.0938 1.7695 9.4023 2.8477 13.18 3.2969 1.3398 0.16016 2.6289 0.23828 3.8516 0.23828 0.71094 0 1.3984-0.027343 2.0625-0.082031 1.9258-0.15625 3.7109-0.54688 5.3086-1.1602 0.80078-0.30859 1.4219-0.95312 1.7031-1.7617s0.19922-1.6953-0.23438-2.4336l-0.89062-1.5195c-0.25391-0.4375-0.29688-0.95703-0.11719-1.4258 0.17969-0.46484 0.55078-0.82031 1.0273-0.97266 1.2539-0.40625 2.3672-0.94531 3.3086-1.5977 0.69531-0.48047 1.1367-1.2422 1.2109-2.0859 0.078125-0.875-0.23047-1.7266-0.84375-2.3438-0.21094-0.21094-0.45312-0.38672-0.71875-0.52734-0.5625-0.29297-0.89844-0.84375-0.89453-1.4766 0.003906-0.63281 0.34375-1.1797 0.90625-1.4609 1.3516-0.68359 2.3633-1.4531 3.0938-2.3594 0.39844-0.49609 0.625-1.1328 0.63672-1.793v-0.003906l0.10156-11.211c0.019531-0.76562-0.26953-1.4844-0.8125-2.0234zm-46.855 24.703c3.0156-1.4219 5.6875-3.5195 7.9648-6.2383 0.38281 0.070313 0.76172 0.10156 1.1328 0.10156 2.7305 0 5.0547-1.6523 5.1719-1.7344 0.28125-0.20312 0.34766-0.59766 0.14062-0.87891-0.20312-0.28125-0.59766-0.34766-0.87891-0.14453-0.027344 0.019531-2.2383 1.582-4.6406 1.4922 2.3984-3.2109 3.3672-5.9883 3.4102-6.1133 0.11328-0.32812-0.0625-0.6875-0.39063-0.80078-0.32812-0.11328-0.6875 0.0625-0.80078 0.39062-0.011719 0.03125-1.1289 3.2188-3.875 6.5977-2.0703 2.5547-4.5 4.543-7.2305 5.9297l-0.003906-20.723c2.3594-2.3906 4.0273-5.1406 5.0234-7.0508 1.1055-2.1211 1.625-3.6523 1.6445-3.7188 0.11328-0.32812-0.066406-0.6875-0.39453-0.79688-0.32812-0.11328-0.6875 0.066406-0.80078 0.39453-0.007812 0.015624-0.51953 1.5234-1.582 3.5625-0.82031 1.5703-2.1172 3.7344-3.8906 5.7578v-14.742c0-0.34766-0.28125-0.62891-0.62891-0.62891s-0.62891 0.28125-0.62891 0.62891v14.738c-1.7734-2.0195-3.0664-4.1836-3.8867-5.7539-1.0625-2.0391-1.5742-3.5469-1.582-3.5625-0.11328-0.32813-0.46875-0.50781-0.79688-0.39453-0.32812 0.11328-0.50781 0.46875-0.39453 0.79688 0.023437 0.0625 0.54297 1.5977 1.6445 3.7188 0.99219 1.9062 2.6602 4.6562 5.0195 7.0469v20.719c-2.7305-1.3867-5.1562-3.3789-7.2266-5.9297-2.7422-3.3789-3.8633-6.5625-3.875-6.5977-0.11328-0.32812-0.47266-0.50391-0.80078-0.39062-0.32812 0.11328-0.50391 0.47266-0.39062 0.80078 0.042969 0.125 1.0156 2.9023 3.4102 6.1133-2.3984 0.089844-4.6094-1.4688-4.6406-1.4922-0.28125-0.20312-0.67578-0.14062-0.87891 0.14063s-0.14062 0.67578 0.14062 0.87891c0.11328 0.082031 2.4414 1.7344 5.1719 1.7344 0.37109 0 0.75-0.03125 1.1328-0.10156 2.2695 2.7188 4.9453 4.8125 7.957 6.2383v8.4453c-12.301-6.0078-19.41-11.918-22.359-18.535-0.26562-0.59766-0.25391-1.2773 0.03125-1.8672 0.28125-0.58594 0.80469-1.0195 1.4336-1.1836l2.1289-0.55859c1.0234-0.26953 1.8594-0.97656 2.293-1.9453 0.42969-0.96094 0.40234-2.0508-0.074219-2.9844-0.6875-1.3438-1.1484-2.668-1.3789-3.9336-0.11719-0.63281 0.050781-1.2539 0.46094-1.7461 0.42578-0.51172 1.0664-0.8125 1.7227-0.8125 0.22266 0 0.45313 0.035156 0.67969 0.10547 0.64062 0.20313 1.3125 0.21875 1.9453 0.050782 0.59375-0.16016 1.1406-0.47656 1.5781-0.92188 0.4375-0.44141 0.75-0.98828 0.90234-1.5859 0.16016-0.63281 0.13672-1.3047-0.074219-1.9453-0.52734-1.6016-0.71875-2.9805-0.58594-4.2188 0.050781-0.47656 0.27344-0.94141 0.62109-1.3008l9.7969-9.9727c0.39844-0.40625 0.9375-0.63281 1.5078-0.63281 0.57031 0 1.1055 0.22266 1.5078 0.63281l9.7969 9.9727c0.35156 0.36328 0.57422 0.82422 0.625 1.3008 0.13281 1.2383-0.058594 2.6172-0.58984 4.2148-0.21094 0.63672-0.23438 1.3125-0.070312 1.9453 0.15234 0.59375 0.46484 1.1406 0.90234 1.5859 0.4375 0.44141 0.98438 0.76172 1.5742 0.91797 0.63281 0.17188 1.3047 0.15234 1.9414-0.050781 0.22656-0.070312 0.45312-0.10547 0.67969-0.10547 0.65234 0 1.2969 0.30469 1.7227 0.8125 0.41016 0.49219 0.57422 1.1172 0.46094 1.7461-0.22656 1.2656-0.69531 2.5898-1.3789 3.9336-0.48047 0.9375-0.50781 2.0234-0.078125 2.9844 0.43359 0.96875 1.2695 1.6797 2.293 1.9453l2.1289 0.55859c0.62891 0.16406 1.1523 0.59766 1.4336 1.1836 0.28516 0.58984 0.29297 1.2695 0.03125 1.8633-1.7227 3.8711-4.8711 7.5039-9.6484 11.051-0.035157 0.023438-0.070313 0.046875-0.10156 0.074219-3.375 2.4922-7.5508 4.9492-12.605 7.4258zm46.32-11.484c-0.007813 0.37891-0.13281 0.73828-0.35547 1.0195-0.61719 0.76172-1.4922 1.4258-2.6836 2.0234-0.98047 0.49219-1.5938 1.4844-1.6016 2.582-0.007813 1.1016 0.59766 2.0977 1.5742 2.6055 0.15234 0.078125 0.28906 0.17969 0.41016 0.29688 0.34375 0.34375 0.52344 0.84766 0.48047 1.3398-0.042969 0.47656-0.28125 0.89062-0.67188 1.1602-0.83984 0.57812-1.8438 1.0625-2.9805 1.4336-0.83984 0.26953-1.5039 0.89844-1.8164 1.7227-0.31641 0.82812-0.24219 1.7422 0.20703 2.5156l0.89062 1.5234c0.24219 0.41797 0.29297 0.92187 0.13281 1.3789-0.16016 0.46094-0.51562 0.82422-0.96875 1-5.3711 2.0625-12.68 1.3945-22.957-2.1094l4.5977-4.5977c2.4102 0.82813 4.6758 1.0469 6.3867 1.0469 0.60938 0 1.1484-0.027344 1.5977-0.0625 1.5234 2.1289 4.4141 2.6211 4.543 2.6406 0.035156 0.007813 0.066406 0.007813 0.10156 0.007813 0.30469 0 0.57031-0.21875 0.62109-0.53125 0.054688-0.34375-0.17969-0.66797-0.51953-0.72266-0.023438-0.003907-1.9531-0.33594-3.2383-1.5781 3.0664-0.47656 5.1016-1.4609 5.1992-1.5078 0.3125-0.15234 0.44141-0.53125 0.28906-0.84375s-0.53125-0.44141-0.84375-0.28906c-0.023438 0.011719-2.4453 1.1758-5.8945 1.5312-1.4375 0.15234-4.1758 0.23828-7.2383-0.69141l11.543-11.543c2.707-0.019532 5.2266-0.63281 6.8789-1.1562 1.8398-0.57812 3.0117-1.1562 3.0586-1.1836 0.3125-0.15234 0.44141-0.53516 0.28516-0.84766-0.15234-0.3125-0.53516-0.44141-0.84766-0.28516-0.039062 0.019531-3.6797 1.8008-8.0586 2.1484l6.6758-6.6758c0.24609-0.24609 0.24609-0.64453 0-0.89062-0.24609-0.24609-0.64453-0.24609-0.89062 0l-20.25 20.25c-0.003907 0.003906-0.007813 0.007812-0.011719 0.011719l-4.8555 4.8555c-0.52344-1.5352-0.96875-2.9688-1.3555-4.3516 0.22266-0.17188 0.44531-0.33984 0.66406-0.51172 2.1172-1.6523 3.9375-3.3711 5.4102-5.0977 1.5703-1.8438 2.8086-3.7656 3.6797-5.7227 0.41406-0.9375 0.39844-2.0039-0.046875-2.9258-0.44531-0.92188-1.2656-1.5977-2.2539-1.8555l-2.1289-0.55859c-0.65234-0.17188-1.1875-0.625-1.4609-1.2422-0.042969-0.10156-0.082032-0.20312-0.10938-0.30469 0.625 0.20312 1.3008 0.1875 1.9336-0.050782 0.82422-0.3125 1.457-0.97656 1.7305-1.8164 0.36719-1.1406 0.84766-2.1406 1.4297-2.9805 0.27344-0.39453 0.6875-0.63281 1.1602-0.67578 0.49219-0.042968 0.99219 0.13281 1.3398 0.48047 0.11328 0.11328 0.21875 0.25781 0.30469 0.41797 0.50391 0.96875 1.4883 1.5664 2.582 1.5664h0.011718c1.1016-0.003906 2.0938-0.61719 2.5898-1.5977 0 0 0-0.003906 0.003906-0.003906 0.59766-1.1914 1.2578-2.0703 2.0195-2.6836 0.27734-0.22266 0.63672-0.35156 1.0195-0.35547l11.207-0.10156c0.42969-0.003906 0.82812 0.16016 1.1289 0.46484 0.29688 0.30078 0.46094 0.69531 0.45703 1.1211z"/>
</svg>
