<?xml version="1.0" encoding="UTF-8"?>
<svg width="100pt" height="100pt" version="1.1" viewBox="0 0 100 100" xmlns="http://www.w3.org/2000/svg">
 <g>
  <path d="m56.246 47.875c-0.035156 0.070312-0.050782 0.15625-0.035156 0.25391 0.0625 0.40234 0.6875 0.62891 1.0234 0.71875l1.8867 0.49609c0.68359 0.17969 1.3164 0.54297 1.7617 1.0898 0.79688 0.97656 0.95703 2.2773 0.46484 3.3828-1.625 3.6484-4.5195 7.0586-8.8594 10.375-0.12891 0.097656-0.1875 0.26172-0.14062 0.41797 0.29297 1.0234 0.62109 2.082 0.98828 3.1953 0.089843 0.27734 0.44531 0.35937 0.64844 0.15625l22.914-22.914c0.23047-0.23047 0.60156-0.23047 0.82812 0 0.23047 0.23047 0.23047 0.60156 0 0.82812l-6.2109 6.2109c4.0703-0.32422 7.4609-1.9805 7.5-2 0.28906-0.14453 0.64062-0.027344 0.78516 0.26562 0.14453 0.28906 0.027344 0.64063-0.26562 0.78516-0.17969 0.089843-4.375 2.1445-9.25 2.1758l-10.738 10.738c2.8477 0.86719 5.3984 0.78906 6.7344 0.64844 3.207-0.33203 5.4648-1.4141 5.4844-1.4258 0.28906-0.14063 0.64062-0.019532 0.78516 0.26953 0.14062 0.29297 0.019531 0.64062-0.26953 0.78516-0.089844 0.042969-1.9844 0.95312-4.8359 1.3984 1.1992 1.1602 2.9883 1.4648 3.0117 1.4688 0.32031 0.050782 0.53906 0.35156 0.48438 0.67188-0.046875 0.28906-0.29688 0.49219-0.57812 0.49219-0.03125 0-0.0625-0.003906-0.09375-0.007813-0.12109-0.019531-2.8086-0.47656-4.2227-2.457-0.42188 0.035157-0.92188 0.0625-1.4922 0.0625-1.5938 0-3.6992-0.21094-5.9414-0.98047l-3.832 3.832c-0.20703 0.20703-0.12109 0.55859 0.15625 0.64844 9.2461 3.0781 15.867 3.6406 20.754 1.7617 0.42188-0.16406 0.75-0.50391 0.90234-0.92969 0.14844-0.42578 0.10547-0.89453-0.12109-1.2812l-0.83203-1.4141c-0.41797-0.71484-0.48828-1.5664-0.19141-2.3398 0.29297-0.76562 0.91016-1.3516 1.6914-1.6016 1.0586-0.34375 1.9922-0.79297 2.7734-1.332 0.36328-0.25391 0.58594-0.63672 0.625-1.082 0.039063-0.46094-0.125-0.92578-0.44531-1.2461-0.097656-0.097657-0.21094-0.18359-0.33594-0.25391-0.67969-0.38281-1.2305-0.97656-1.4219-1.7305-0.32813-1.293 0.27734-2.5547 1.4023-3.1211 1.1055-0.55859 1.9219-1.1758 2.4961-1.8828 0.20703-0.25781 0.32422-0.59375 0.33203-0.94922l0.09375-10.426c0.003906-0.39453-0.14844-0.76172-0.42578-1.043-0.27734-0.27734-0.64844-0.42969-1.0508-0.42969l-10.43 0.09375c-0.35156 0.003906-0.6875 0.125-0.94531 0.33203-0.70703 0.57422-1.3242 1.3906-1.8789 2.5-0.46484 0.91406-1.3867 1.4844-2.4219 1.4883-1.0156 0-1.9375-0.55859-2.4062-1.4609-0.078124-0.14453-0.17187-0.27734-0.28125-0.38281-0.32031-0.32031-0.78906-0.48828-1.2461-0.44531-0.44531 0.039062-0.82812 0.26172-1.082 0.62891-0.53906 0.77734-0.98828 1.7109-1.3281 2.7734-0.25391 0.78125-0.83984 1.3984-1.6094 1.6914-0.29297 0.10547-1.1172 0.125-1.3086 0.5z"/>
  <path d="m38.305 69.965v-7.2344c-2.8008-1.3242-5.2852-3.2734-7.3984-5.7969-0.35938 0.066406-0.71484 0.09375-1.0625 0.09375-2.5391 0-4.7031-1.5391-4.8125-1.6172-0.26172-0.19141-0.32031-0.55469-0.13281-0.82031 0.1875-0.26172 0.55469-0.32031 0.82031-0.13281 0.027344 0.019531 2.0859 1.4727 4.3242 1.3867-2.2305-2.9883-3.1367-5.5703-3.1758-5.6875-0.10547-0.30469 0.058593-0.64062 0.36328-0.74609 0.30469-0.10547 0.64062 0.058594 0.74609 0.36328 0.011719 0.03125 1.0508 2.9922 3.6055 6.1367 1.9219 2.3711 4.1836 4.2188 6.7227 5.5078v-19.277c-4.2422-4.3008-6.1211-9.7812-6.1992-10.016-0.10156-0.30859 0.0625-0.64062 0.36719-0.74219 0.30859-0.10156 0.64062 0.0625 0.74219 0.36719 0.015625 0.050781 1.6211 4.7148 5.0898 8.668v-13.715c0-0.32422 0.26172-0.58594 0.58594-0.58594s0.58594 0.26172 0.58594 0.58594v13.719c3.4727-3.9531 5.0742-8.6211 5.0938-8.6719 0.10156-0.30859 0.4375-0.47266 0.74219-0.36719 0.30859 0.10547 0.47266 0.4375 0.36719 0.74219-0.078126 0.23438-1.957 5.7188-6.2031 10.02v19.273c2.5391-1.2891 4.8008-3.1367 6.7305-5.5117 2.5547-3.1445 3.5938-6.1094 3.6055-6.1367 0.10547-0.30469 0.4375-0.46875 0.74609-0.36328 0.30469 0.10547 0.46875 0.4375 0.36328 0.74609-0.039063 0.11719-0.94531 2.7031-3.1758 5.6875 2.2461 0.085937 4.2969-1.3711 4.3203-1.3867 0.26172-0.19141 0.62891-0.12891 0.82031 0.13281 0.19141 0.26172 0.12891 0.62891-0.13281 0.82031-0.10547 0.078125-2.2695 1.6172-4.8125 1.6172-0.34766 0-0.70312-0.027344-1.0625-0.09375-2.1133 2.5273-4.6016 4.4766-7.4023 5.7969v7.2344c0 0.28906 0.30859 0.48047 0.56641 0.35156 4.4609-2.2148 8.1719-4.4141 11.188-6.6484 4.4883-3.3242 7.4336-6.7109 9.043-10.328 0.34375-0.77734 0.1875-1.7031-0.46094-2.3398-0.25781-0.25391-0.58984-0.41797-0.94141-0.50781l-1.8555-0.48828c-0.72656-0.19141-1.3945-0.59766-1.8477-1.1992-0.54297-0.73047-0.74219-1.6016-0.61328-2.4336 0.003906-0.023438 0.007812-0.046876 0.015624-0.070313 0.054688-0.3125 0.15234-0.61719 0.30078-0.91016 0.61328-1.1992 1.0352-2.3828 1.2578-3.5195 0.089844-0.45313 0.070313-0.92969-0.13281-1.3477-0.44922-0.92969-1.5273-1.3828-2.5078-1.0781-1.1602 0.36719-2.4141 0.058594-3.2734-0.80859-0.85938-0.86719-1.1562-2.125-0.77734-3.2852 0.49219-1.4883 0.67188-2.7695 0.54688-3.9258-0.046875-0.44531-0.25391-0.875-0.58203-1.2109l-9.0625-9.2266c-0.32422-0.33203-0.74219-0.57031-1.2031-0.625-0.625-0.078125-1.2227 0.13281-1.6523 0.57422l-9.1172 9.2812c-0.32813 0.33594-0.53125 0.76562-0.57813 1.2109-0.12109 1.125 0.046876 2.375 0.51172 3.8203 0.32812 1.0273 0.21094 2.168-0.42969 3.0312-0.84375 1.1367-2.2734 1.582-3.5859 1.1641-0.20703-0.066406-0.42188-0.097656-0.62891-0.097656-0.60938 0-1.207 0.28125-1.6016 0.75781-0.38281 0.46094-0.53516 1.0391-0.42969 1.625 0.21484 1.1797 0.64453 2.4102 1.2852 3.6602 0.51172 1.0039 0.46875 2.1953-0.14062 3.1797-0.44922 0.72656-1.1953 1.2188-2.0234 1.4375l-1.8398 0.48438c-0.34766 0.089844-0.67969 0.25781-0.94141 0.50781-0.65234 0.63281-0.80859 1.5625-0.46094 2.3398 2.6953 6.0586 9.1406 11.473 20.227 16.977 0.26562 0.13281 0.57422-0.054688 0.57422-0.34766z"/>
  <path d="m39.129 72.07c-0.023437 0.011719-0.046875 0.015626-0.070312 0.023438-0.015625 0.003906-0.03125 0.011719-0.046875 0.015625-0.035157 0.007813-0.070313 0.011719-0.10547 0.011719-0.0625 0-0.10156-0.003906-0.14453-0.011719-0.050781-0.011719-0.085938-0.027344-0.12109-0.042969-0.0625-0.027344-0.11719-0.054687-0.17188-0.082031-0.26172-0.125-0.5625 0.0625-0.5625 0.35156v6.2734c0 0.51172 0.36719 0.97656 0.87891 1.0273 0.58594 0.058593 1.0781-0.39844 1.0781-0.97266v-6.3281c0-0.28906-0.30078-0.47656-0.5625-0.35156-0.054687 0.027344-0.10547 0.050781-0.16016 0.078125 0 0.003906-0.003906 0.007812-0.011719 0.007812z"/>
  <path d="m53.5 70.492c-0.023438 0.13672-0.10938 0.27734-0.20312 0.37109-2.457 2.457-4.9102 4.9141-7.3672 7.3672-0.33984 0.33984-0.67969 0.68359-1.0195 1.0234-0.035156 0.035156-0.070312 0.070313-0.10547 0.10547-0.19141 0.19141-0.44141 0.28516-0.69141 0.28516s-0.5-0.09375-0.69141-0.28516c-0.38281-0.38281-0.38281-1 0-1.3867 0 0 8.5977-8.5938 8.6172-8.6133 0.20313-0.20312 0.53516-0.11719 0.64453 0.13672 0.085937 0.20312 0.17188 0.42578 0.36719 0.54688 0.19141 0.12891 0.5 0.12109 0.44922 0.44922z"/>
 </g>
</svg>
