<?xml version="1.0" encoding="UTF-8"?>
<svg width="100pt" height="100pt" version="1.1" viewBox="0 0 100 100" xmlns="http://www.w3.org/2000/svg">
 <path d="m81.246 37.816c-1.2031-2.8594-3.1133-5.0586-5.6797-6.5312-1.4062-0.80859-3.6016-1.8047-6.0586-1.9688-1.125-0.074218-2.1914 0.035156-3.1758 0.32812-1.0781 0.32031-2.0625 0.86719-2.9219 1.625-1.043 0.92188-1.7734 1.8438-2.1914 2.7578-1.7891-3.957-3.9648-7.1602-6.6211-9.7578-2.0312-1.9844-4.3516-3.5977-6.8945-4.793-2.9102-1.3711-6.1875-2.2305-9.7344-2.5547h-0.003906-0.003906-0.007813c-0.007813 0-0.011719 0-0.019531-0.003906h-0.015625-0.011719-3.2891c-0.32031 0-0.57813 0.26172-0.57813 0.57812v10.707c-1.0781-0.56641-2.3008-0.86719-3.5312-0.86719-1.0234 0-2.0195 0.19922-2.957 0.59766-0.90234 0.38281-1.7148 0.92969-2.4141 1.625-0.69922 0.69922-1.2461 1.5117-1.6289 2.4141-0.39453 0.9375-0.59766 1.9336-0.59766 2.957 0 0.46094 0.042969 0.92187 0.125 1.3711-1.5312 0.36719-2.9258 1.2109-3.9648 2.418-1.1914 1.3789-1.8516 3.1406-1.8516 4.9688 0 1.9844 0.76172 3.8633 2.1445 5.2852 0.35547 0.36719 0.74219 0.69141 1.1602 0.97656-0.85547 0.58594-1.5859 1.3438-2.1406 2.2266-0.76172 1.207-1.1602 2.6055-1.1602 4.0391 0 1.9844 0.76172 3.8633 2.1445 5.2852 0.24609 0.25391 0.50781 0.48438 0.78125 0.69922-0.77734 0.60547-1.4336 1.3594-1.9258 2.2148-0.65625 1.1445-1.0039 2.4492-1.0039 3.7773 0 1.9883 0.76172 3.8672 2.1445 5.2852 0.69922 0.72266 1.5195 1.2891 2.4375 1.6875 0.35938 0.15625 0.72656 0.28125 1.1055 0.37891 0.015625 1.9648 0.77734 3.8203 2.1523 5.2266 0.69531 0.71875 1.5156 1.2852 2.4336 1.6836 0.95312 0.41016 1.9648 0.62109 3.0078 0.62109 2.2227 0 4.3203-0.97656 5.7578-2.6406 1.4258 1.6719 3.5273 2.6445 5.7578 2.6445 1.2227 0 2.4375-0.29688 3.5156-0.86328 1.043-0.54688 1.957-1.3398 2.6445-2.2969 0.92578-1.2812 1.4219-2.7969 1.4297-4.3789 0.375-0.097656 0.74219-0.22266 1.1055-0.37891 0.91797-0.39453 1.7383-0.96484 2.4375-1.6875 1.3867-1.418 2.1484-3.293 2.1484-5.2852 0-1.3242-0.34766-2.6328-1.0039-3.7773-0.49219-0.85547-1.1484-1.6133-1.9258-2.2188 0.27734-0.21484 0.53906-0.44922 0.77734-0.69922 0.77734-0.79688 1.3555-1.7344 1.7188-2.7539 2.0977 1.8984 4.6445 3.6914 7.5898 5.3359 2.7461 1.5352 5.7578 2.8906 8.7031 3.918 1.4414 0.50391 3.5078 1.3359 5.1719 2.4688 0.097656 0.066406 0.21094 0.10156 0.32422 0.10156 0.078125 0 0.16016-0.015625 0.23438-0.050781 0.18359-0.082031 0.3125-0.25391 0.33984-0.45312 0.26953-2.0312 1.0156-4.1133 1.5977-5.5039 1.1016-2.6523 2.043-5.5625 2.7188-8.4102 0.79688-3.3594 1.2148-6.543 1.2344-9.4609 0.027344-3.3984-0.48828-6.3867-1.5312-8.8672zm-21.062-3.2656c-0.29688-0.097656-0.61719-0.17188-0.95312-0.22266-0.77734-0.11719-1.6641-0.11719-2.6406-0.003906h-0.003906c-2.0391 0.25391-3.793 1.3398-4.8125 2.9492-0.70313-0.44922-1.4766-0.77734-2.2852-0.96875 0.082031-0.45313 0.125-0.91406 0.125-1.375 0-1.6055-0.49219-3.1367-1.4297-4.4336-0.6875-0.95703-1.6016-1.7539-2.6445-2.2969-1.0742-0.5625-2.293-0.86328-3.5156-0.86328-1.2305 0-2.4531 0.30078-3.5352 0.87109l-0.003906-10.066c9.9688 1.1055 17.258 6.6211 21.699 16.41zm-22.859-16.473v10.883c-0.38281 0.30469-0.73828 0.64453-1.0586 1.0156-0.32031-0.375-0.67969-0.71484-1.0664-1.0234l-0.003907-10.875zm-6.8164 10.418c1.9766 0 3.8398 0.90625 5.0508 2.4492-0.57812 0.9375-0.94922 1.9961-1.0781 3.0898-0.039063 0.31641 0.19141 0.60547 0.50781 0.64453 0.31641 0.039062 0.60547-0.19141 0.64453-0.50781 0.125-1.0391 0.50781-2.043 1.1094-2.9062 0.003906-0.003906 0.003906-0.007813 0.007812-0.007813 0.40625-0.58594 0.90234-1.0898 1.4648-1.5039 0.027344-0.015625 0.050781-0.035156 0.074218-0.054687 1.0742-0.76953 2.3789-1.1992 3.7383-1.1992 2.0625 0 4.0156 1 5.2188 2.6797 0.79297 1.1016 1.2109 2.3984 1.2109 3.7578 0 0.39844-0.039062 0.79688-0.10938 1.1914-0.20703-0.019531-0.41797-0.027344-0.63281-0.027344-1.2461 0-2.4805 0.30859-3.5742 0.89063-0.82812 0.44141-1.5703 1.0391-2.1836 1.7539-0.61328-0.71094-1.3555-1.3086-2.1836-1.75-1.0898-0.58203-2.3242-0.89062-3.5703-0.89062-1.2227 0-2.4414 0.29688-3.5156 0.86328-0.82031 0.42969-1.5586 1.0117-2.1758 1.707-0.61328-0.69531-1.3555-1.2773-2.1758-1.707-1.0742-0.5625-2.293-0.86328-3.5156-0.86328-0.21094 0-0.42187 0.007812-0.62891 0.027343-0.074218-0.39062-0.11328-0.78906-0.11328-1.1875-0.007813-3.5625 2.8789-6.4492 6.4297-6.4492zm-10.309 19.668c-1.1719-1.207-1.8164-2.7969-1.8164-4.4766 0-3.1289 2.3125-5.8477 5.3867-6.3516 0.039063-0.003907 0.074219-0.007813 0.11328-0.019532 0.30469-0.042968 0.61719-0.066406 0.93359-0.066406 2.0664 0 4.0195 1 5.2227 2.6758 0.007813 0.007813 0.011719 0.015625 0.015626 0.023438l0.003906 0.003906c0.007812 0.007813 0.011718 0.011719 0.015625 0.019531 0.003906 0.003906 0.003906 0.003906 0.003906 0.007813 0.003906 0.003906 0.007813 0.011719 0.015625 0.015625l0.007812 0.007812c0.003907 0.003906 0.007813 0.007813 0.011719 0.011719 0.003907 0.003906 0.007813 0.007813 0.015625 0.011719 0.003906 0.003906 0.003906 0.003906 0.007813 0.007812 0.007812 0.007813 0.011719 0.011719 0.019531 0.015625 0.003906 0 0.003906 0.003907 0.003906 0.003907 0.007813 0.007812 0.015625 0.011718 0.023438 0.015624 0.007812 0.007813 0.015625 0.011719 0.023437 0.015626l0.003907 0.003906c0.007812 0.003906 0.015624 0.007812 0.019531 0.011718 0.003906 0.003907 0.003906 0.003907 0.007812 0.003907 0.007813 0.003906 0.011719 0.007812 0.019531 0.011719 0.003907 0.003906 0.007813 0.003906 0.011719 0.007812 0.003907 0.003906 0.007813 0.003906 0.015625 0.007812 0.003906 0.003907 0.011719 0.003907 0.015625 0.007813 0.003907 0.003906 0.007813 0.003906 0.007813 0.003906 0.007812 0.003907 0.011718 0.007813 0.019531 0.007813 0.003906 0 0.003906 0 0.003906 0.003906 0.050781 0.019531 0.10547 0.03125 0.16016 0.035156h0.003906c0.007812 0 0.015625 0 0.023437 0.003906h0.011719 0.019531 0.015625 0.011719c0.007813 0 0.015625-0.003906 0.023437-0.003906h0.007813c0.007813 0 0.015625-0.003906 0.023437-0.003906h0.003907c0.007812-0.003906 0.019531-0.003906 0.027343-0.003906h0.003907c0.007812-0.003906 0.015625-0.003906 0.027343-0.007813h0.003907c0.007812-0.003906 0.015625-0.003906 0.023437-0.007812 0.003906 0 0.003906 0 0.003906-0.003907 0.007813-0.003906 0.015626-0.003906 0.019532-0.007812 0.003906 0 0.007812-0.003906 0.007812-0.003906 0.007813-0.003906 0.011719-0.003906 0.015625-0.007813 0.003907-0.003906 0.007813-0.003906 0.011719-0.003906 0.003906-0.003906 0.007812-0.003906 0.011719-0.007813 0.007812-0.003906 0.011719-0.007812 0.015625-0.007812 0.003906-0.003906 0.003906-0.003906 0.007812-0.003906 0.007813-0.003906 0.015625-0.007813 0.019532-0.011719 0.003906 0 0.003906-0.003906 0.003906-0.003906 0.007812-0.003907 0.015625-0.007813 0.023437-0.015625h0.003907c0.007812-0.007813 0.015624-0.011719 0.023437-0.015625 0.007813-0.007813 0.015625-0.011719 0.023437-0.015625l0.003907-0.003906c0.007812-0.007813 0.011719-0.011719 0.019531-0.015626 0.003906-0.003906 0.003906-0.003906 0.007812-0.003906 0.003907-0.003906 0.011719-0.007812 0.015626-0.015625l0.007812-0.007812c0.003906-0.003907 0.007812-0.007813 0.011719-0.011719 0.003906-0.003906 0.007812-0.007812 0.011719-0.015625 0.003906-0.003906 0.003906-0.003906 0.007812-0.007813 0.007812-0.007812 0.011719-0.011718 0.015625-0.019531l0.003906-0.003906c0.007813-0.007813 0.011719-0.015625 0.015625-0.023437 1.1992-1.6758 3.1484-2.6758 5.2188-2.6758 2.1016 0 4.0742 1.0312 5.2773 2.7539 0.015625 0.019532 0.027344 0.039063 0.046875 0.058594 0.003906 0.003906 0.003906 0.003906 0.003906 0.007813 0.007813 0.007812 0.011719 0.011719 0.019531 0.019531 0.003907 0.003906 0.007813 0.007812 0.007813 0.007812 0.003906 0.003907 0.011719 0.007813 0.015625 0.015626 0.019531 0.015624 0.035156 0.03125 0.054688 0.042968 0.003906 0 0.003906 0.003906 0.003906 0.003906 0.007812 0.003907 0.011718 0.007813 0.019531 0.011719 0.003906 0.003907 0.007813 0.003907 0.007813 0.007813 0.007812 0.003906 0.011718 0.007812 0.019531 0.011718 0.003906 0.003907 0.007812 0.003907 0.011719 0.007813 0.003906 0.003906 0.011718 0.007813 0.015624 0.007813 0.007813 0.003906 0.015626 0.007812 0.019532 0.011718s0.007812 0.003906 0.007812 0.003906c0.03125 0.015626 0.0625 0.023438 0.097656 0.03125h0.003907c0.011719 0.003907 0.023437 0.003907 0.03125 0.007813h0.003906c0.023437 0.003906 0.042969 0.007813 0.066406 0.007813h0.03125 0.003907 0.007812c0.011719 0 0.019531 0 0.03125-0.003907h0.011719c0.011719 0 0.023437-0.003906 0.035156-0.003906 0.007813 0 0.011719-0.003906 0.015625-0.003906 0.007812-0.003907 0.015625-0.003907 0.023438-0.003907 0.007812-0.003906 0.015624-0.003906 0.023437-0.003906 0.007813-0.003906 0.015625-0.003906 0.023437-0.007812 0.007813-0.003906 0.011719-0.003906 0.015626-0.003906 0.011718-0.003907 0.023437-0.007813 0.03125-0.011719 0.003906-0.003907 0.007812-0.003907 0.007812-0.003907 0.011719-0.003906 0.019531-0.007812 0.03125-0.015624 0.003906-0.003907 0.003906-0.003907 0.007812-0.003907 0.011719-0.007812 0.023438-0.011719 0.035157-0.019531 0 0 0.003906 0 0.003906-0.003906 0.042969-0.023438 0.078125-0.054688 0.11328-0.089844 0.027344-0.027344 0.050782-0.054688 0.070313-0.085938 1.2031-1.7266 3.1758-2.7539 5.2812-2.7539 0.34766 0 0.67969 0.027344 0.98828 0.074219 0.007812 0.003906 0.015625 0.003906 0.023438 0.003906 1.043 0.16016 2.043 0.58984 2.8906 1.2383 0.003907 0.003907 0.003907 0.003907 0.007813 0.003907 1.6055 1.2266 2.5273 3.0898 2.5273 5.1094 0 1.6836-0.64844 3.2734-1.8242 4.4766l-0.003906 0.003906c-0.49609 0.51563-1.0664 0.9375-1.6953 1.2539-0.019531 0.007812-0.035156 0.015625-0.050781 0.027343-0.87891 0.44141-1.8672 0.67578-2.8633 0.67578-1.9766 0-3.8398-0.91016-5.0508-2.4492 0.74219-1.1953 1.1328-2.5625 1.1328-3.9805 0-0.32031-0.26172-0.57812-0.57812-0.57812-0.32031 0-0.57812 0.26172-0.57812 0.57812 0 1.3164-0.39844 2.5859-1.1523 3.6641-0.003906 0.003906-0.003906 0.007812-0.007812 0.011719-1.1953 1.7305-3.168 2.7617-5.2773 2.7617-2.0664 0-4.0195-1-5.2188-2.6797-0.79297-1.1016-1.2109-2.3984-1.2109-3.7578 0-0.32031-0.26172-0.57812-0.57812-0.57812-0.32031 0-0.57813 0.26172-0.57813 0.57812 0 1.457 0.41016 2.8594 1.1875 4.0742-1.2148 1.4805-3.0469 2.3555-4.9766 2.3555-0.98828 0-1.9766-0.23438-2.8594-0.67578-0.015625-0.011718-0.035156-0.019531-0.050781-0.027343-0.72266-0.31641-1.2969-0.73828-1.7969-1.2539zm27.035 31.078c-1.2031 1.6758-3.1523 2.6758-5.2188 2.6758-2.1133 0-4.0859-1.0312-5.2773-2.7617-0.003906-0.003906-0.003906-0.007812-0.007812-0.011719-0.40625-0.58594-0.71484-1.2266-0.91016-1.9102-0.089843-0.30859-0.40625-0.48438-0.71484-0.39844-0.30859 0.089843-0.48438 0.40625-0.39844 0.71484 0.19141 0.67578 0.47656 1.3164 0.84766 1.9102-1.2148 1.543-3.0742 2.4492-5.0508 2.4492-1.7539 0-3.3867-0.69531-4.6094-1.9531l-0.003906-0.003906c-1.1172-1.1406-1.7578-2.6289-1.8203-4.2148 0.24219 0.023438 0.48828 0.035157 0.73438 0.035157 1.2227 0 2.4375-0.29688 3.5156-0.85938 0.82031-0.42969 1.5586-1.0117 2.1758-1.7031 0.61328 0.69531 1.3516 1.2812 2.1719 1.707 1.0742 0.5625 2.2891 0.86328 3.5156 0.86328 2.2266 0 4.3281-0.97656 5.7617-2.6484 0.61328 0.71094 1.3555 1.3086 2.1836 1.75 1.0898 0.58203 2.3242 0.89063 3.5703 0.89063 0.24609 0 0.49609-0.011719 0.73828-0.035157-0.046875 1.2734-0.46094 2.4766-1.2031 3.5039zm6.9023-11.047c0 1.6875-0.64453 3.2773-1.8203 4.4766l-0.003906 0.003906c-0.92578 0.95703-2.0938 1.5859-3.3711 1.8359-0.023437 0.003906-0.050781 0.007812-0.070312 0.015625-0.38281 0.070312-0.77344 0.10547-1.168 0.10547-1.9727 0-3.832-0.90625-5.0469-2.4453 0.74219-1.1953 1.1328-2.5625 1.1328-3.9844 0-0.32031-0.26172-0.57812-0.57812-0.57812-0.32031 0-0.57813 0.26172-0.57813 0.57812 0 1.3203-0.39844 2.5898-1.1523 3.6641-0.003907 0.003906-0.003907 0.007812-0.007813 0.011718-1.1992 1.7305-3.1719 2.7617-5.2812 2.7617-2.0625 0-4.0156-1-5.2148-2.6758-0.79297-1.0977-1.2109-2.3984-1.2109-3.7617 0-0.32031-0.26172-0.57812-0.57812-0.57812-0.32031 0-0.57812 0.26172-0.57812 0.57812 0 1.4609 0.41016 2.8633 1.1875 4.0781-1.2188 1.4805-3.0508 2.3516-4.9766 2.3516-0.39453 0-0.78125-0.035156-1.1602-0.10547-0.027344-0.007813-0.054687-0.011719-0.085937-0.015625-1.2734-0.24609-2.4414-0.87891-3.3711-1.8359-1.1719-1.2031-1.8164-2.793-1.8164-4.4766 0-2.1445 1.0391-4.1094 2.8008-5.3125 0.20312 0.10938 0.41016 0.21094 0.625 0.30469 0.95312 0.41016 1.9609 0.62109 3.0078 0.62109 1.2227 0 2.4375-0.29688 3.5156-0.85938 0.82031-0.42969 1.5625-1.0117 2.1758-1.707 0.61328 0.69531 1.3516 1.2773 2.1719 1.707 1.0742 0.5625 2.2891 0.86328 3.5156 0.86328 2.2305 0 4.3281-0.97656 5.7578-2.6445 0.51562 0.59766 1.125 1.1211 1.8008 1.5352 1.1875 0.72656 2.5547 1.1094 3.9531 1.1094 1.2773 0 2.5273-0.32031 3.6328-0.92969 1.7539 1.1992 2.793 3.1602 2.793 5.3086zm-1.8203-7.5-0.003906 0.003907c-0.36719 0.38281-0.79297 0.72266-1.2656 1.0078 0 0-0.003906 0-0.003906 0.003907-0.99609 0.61719-2.1562 0.94141-3.3438 0.94141s-2.3438-0.32422-3.3477-0.9375c-0.64844-0.39844-1.2305-0.91797-1.6992-1.5117 0.74219-1.1953 1.1328-2.5625 1.1328-3.9805 0-0.32031-0.26172-0.57812-0.57812-0.57812-0.32031 0-0.57812 0.26172-0.57812 0.57812 0 1.3164-0.39844 2.5859-1.1523 3.6602-0.003906 0.003907-0.003906 0.007813-0.007812 0.011719-1.1953 1.7305-3.1719 2.7617-5.2812 2.7617-2.0625 0-4.0156-1-5.2148-2.6797-0.79297-1.1016-1.2109-2.3984-1.2109-3.7578 0-0.32031-0.26172-0.57812-0.57812-0.57812-0.32031 0-0.57812 0.26172-0.57812 0.57812 0 1.457 0.41016 2.8594 1.1875 4.0742-1.2188 1.4805-3.0508 2.3555-4.9766 2.3555-1.1758 0-2.2969-0.3125-3.2812-0.90234-0.039062-0.03125-0.078125-0.054688-0.12109-0.074219-0.43359-0.27344-0.83984-0.60156-1.207-0.97656-1.1719-1.207-1.8164-2.7969-1.8164-4.4766 0-2.3555 1.2578-4.4805 3.2969-5.6172 0.97656 0.44531 2.0547 0.67969 3.1328 0.67969 1.2227 0 2.4375-0.29688 3.5156-0.85938 0.82031-0.42969 1.5625-1.0117 2.1758-1.7031 0.61328 0.69531 1.3516 1.2773 2.1758 1.707 1.0742 0.5625 2.293 0.86328 3.5156 0.86328 2.2266 0 4.3242-0.97656 5.7578-2.6445 0.61328 0.71094 1.3555 1.3086 2.1836 1.7539 1.0938 0.58203 2.3281 0.89062 3.5742 0.89062 1.082 0 2.1602-0.23437 3.1367-0.67969 2.0391 1.1367 3.2969 3.2656 3.2969 5.6172 0 0.44922-0.046875 0.88672-0.13672 1.3164-0.003906 0.015625-0.007813 0.027343-0.007813 0.042969-0.26953 1.1602-0.84375 2.2344-1.6914 3.1094zm29.301-14.012c-0.058594 7.4805-2.7227 14.688-3.8672 17.438-0.52344 1.2578-1.1797 3.0547-1.5312 4.9102-1.6016-0.96094-3.3867-1.6719-4.6836-2.125-6.3164-2.2031-12.398-5.7148-16.348-9.4336 0.066406-0.41016 0.10547-0.82812 0.10547-1.2578 0-1.4336-0.40234-2.832-1.1602-4.0391-0.55469-0.88281-1.2891-1.6406-2.1445-2.2266 0.41406-0.28516 0.80078-0.60938 1.1523-0.97656 1.3906-1.4219 2.1523-3.2969 2.1523-5.2852 0-1.2031-0.27344-2.3555-0.8125-3.4219-0.4375-0.86719-1.0508-1.6523-1.7852-2.2969 0.82422-1.3594 2.2969-2.2812 4.0234-2.4961 1.3203-0.15625 3.1016-0.15234 4.1797 0.75l0.65234 1.4609c-1.2109 0.84766-2.2109 1.9531-2.9766 3.293-0.67578 1.1797-1.1719 2.543-1.4727 4.0469-0.51172 2.543-0.28906 4.6094-0.28125 4.6953 0.03125 0.29688 0.28516 0.51562 0.57422 0.51562 0.023438 0 0.042969-0.003906 0.0625-0.003906 0.31641-0.035157 0.54688-0.32031 0.51172-0.64062-0.003906-0.019532-0.21094-1.9688 0.26562-4.3398 0.57422-2.8711 1.8516-5.0508 3.8008-6.4844l5.2461 11.719c-2.4688 1.9883-1.9297 6.8086-1.9023 7.0234 0.035156 0.29297 0.28516 0.51172 0.57422 0.51172 0.023437 0 0.046875-0.003906 0.066406-0.003906 0.31641-0.039063 0.54688-0.32422 0.50781-0.64453-0.003906-0.011719-0.14453-1.2617 0.027344-2.6719 0.125-1.0195 0.44141-2.3047 1.2188-3.1055l3.9258 8.7695c0.097656 0.21484 0.30859 0.34375 0.53125 0.34375 0.078125 0 0.16016-0.015625 0.23438-0.050781 0.29297-0.12891 0.42578-0.47266 0.29297-0.76562l-3.918-8.7656c1.1172-0.050781 2.2852 0.57031 3.1289 1.1562 1.1602 0.80469 1.9961 1.7422 2.0117 1.7578 0.11328 0.12891 0.27344 0.19531 0.43359 0.19531 0.13672 0 0.27344-0.046875 0.38281-0.14453 0.23828-0.21094 0.26172-0.57812 0.050781-0.81641-0.14453-0.16016-3.3789-3.7773-6.5078-3.2617l-5.2461-11.719c2.3594-0.49219 4.8242 0 7.3398 1.4688 2.0781 1.2148 3.4141 2.6797 3.4414 2.7109 0.11328 0.12891 0.27344 0.19141 0.43359 0.19141 0.13672 0 0.27734-0.046874 0.38672-0.14844 0.23828-0.21484 0.25781-0.57812 0.042969-0.81641-0.058593-0.0625-1.4531-1.6055-3.6914-2.918-1.3242-0.77734-2.668-1.3125-4-1.5977-1.5117-0.32031-3-0.30859-4.4375 0.03125l-0.65234-1.4609c0.035157-1.1172 0.80078-2.3633 2.2188-3.6133 3.8672-3.3984 9.2539-0.74219 10.809 0.15234 4.4609 2.5586 6.6914 7.3984 6.6328 14.391z"/>
</svg>
