<?xml version="1.0" encoding="UTF-8"?>
<svg width="100pt" height="100pt" version="1.1" viewBox="0 0 100 100" xmlns="http://www.w3.org/2000/svg">
 <path d="m74.512 62.184c1.1484-1.75 1.7227-3.207 1.7461-3.2695 0.066407-0.17187 0.058594-0.36719-0.027343-0.53125-0.085938-0.16406-0.23828-0.28516-0.41797-0.32812l-5.2812-1.293c0.48828-0.53125 0.9375-1.1367 1.3359-1.8086 0.5-0.84766 0.92578-1.8008 1.2656-2.8438 0.54297-1.668 0.70703-3.0352 0.74219-3.4141v-0.003906c0.003906-0.019531 0.003906-0.042968 0.003906-0.0625 0-0.17578-0.066406-0.33984-0.19141-0.46094-0.13672-0.13672-0.32422-0.20312-0.51562-0.1875l-4.8359 0.45312c1.8086-2.7812 1.6602-7.1875 1.6523-7.4062-0.007812-0.19141-0.097656-0.36719-0.25-0.48438-0.14844-0.11719-0.34766-0.16016-0.53125-0.12109l-5.0664 1.1094c0.32031-0.74609 0.55078-1.5469 0.67969-2.3828 0.16406-1.0625 0.17188-2.1914 0.019532-3.3594-0.24609-1.9258-0.84375-3.3477-0.96094-3.6133-0.089844-0.24609-0.32422-0.42188-0.60547-0.42188h-0.003907c-0.054687 0-0.11328 0.007813-0.16797 0.023438l-3.5781 0.96875c0.18359-0.53125 0.30469-1.1016 0.36328-1.7031 0.085937-0.89062 0.027343-1.8633-0.16406-2.8789-0.32422-1.7109-0.92969-2.9727-0.95703-3.0273-0.078125-0.16406-0.22656-0.28906-0.40234-0.33984s-0.36719-0.023437-0.51953 0.074219l-1.6211 1.0273c0.042969-0.79297-0.007812-1.6562-0.15625-2.5508-0.21875-1.3203-0.63281-2.6367-1.1641-3.707-0.78125-1.5664-1.7891-2.9258-2.7656-4.2344-0.53516-0.72266-1.0938-1.4688-1.5938-2.2305-0.11719-0.18359-0.32031-0.28906-0.53906-0.28906-0.21484 0-0.42188 0.10938-0.53906 0.28906-0.5 0.76172-1.0547 1.5117-1.5938 2.2305-0.97656 1.3125-1.9844 2.668-2.7656 4.2344-0.53516 1.0703-0.94922 2.3867-1.1641 3.707-0.14844 0.89844-0.19922 1.7617-0.15625 2.5508l-1.6211-1.0273c-0.15234-0.097656-0.34375-0.125-0.51953-0.074219s-0.32031 0.17578-0.40234 0.33984c-0.027344 0.050781-0.62891 1.3125-0.95703 3.0273-0.19531 1.0156-0.25 1.9844-0.16406 2.8789 0.054687 0.60547 0.17969 1.1719 0.36328 1.7031l-3.5781-0.96875c-0.054688-0.015625-0.11328-0.023438-0.16797-0.023438h-0.003906c-0.27734 0-0.51562 0.17578-0.60547 0.42188-0.11719 0.26562-0.71484 1.6875-0.96094 3.6133-0.14844 1.1641-0.14062 2.2969 0.019531 3.3594 0.12891 0.83984 0.35547 1.6367 0.67969 2.3828l-5.0664-1.1094c-0.1875-0.039063-0.37891 0.003906-0.53125 0.12109-0.14844 0.11719-0.24219 0.29297-0.25 0.48438-0.007812 0.21875-0.15625 4.625 1.6523 7.4062l-4.8359-0.45312c-0.19141-0.019531-0.37891 0.050781-0.51563 0.1875-0.125 0.125-0.19141 0.28906-0.19141 0.46094 0 0.019532 0.003906 0.042969 0.003906 0.0625 0.027344 0.26953 0.18359 1.7031 0.74219 3.4141 0.33984 1.043 0.76562 2 1.2656 2.8477 0.39844 0.67578 0.84766 1.2812 1.3359 1.8125l-5.2812 1.293c-0.17969 0.042968-0.33203 0.16406-0.41797 0.32812-0.085938 0.16406-0.097656 0.35938-0.027344 0.53125 0.023438 0.0625 0.59766 1.5195 1.7461 3.2695 0.67578 1.0312 1.4102 1.9531 2.1914 2.7344 0.68359 0.6875 1.3945 1.2734 2.1367 1.7422l-4.4805 2.6914c-0.16797 0.10156-0.28125 0.27344-0.30469 0.46875-0.027343 0.19531 0.039063 0.39062 0.17578 0.53125 0.054687 0.054687 1.3672 1.4023 3.3828 2.5469 1.1953 0.67969 2.3906 1.1406 3.5586 1.3828 0.59766 0.12109 1.1875 0.1875 1.7656 0.19141l-3.1641 2.4766c-0.15234 0.12109-0.24219 0.30469-0.24609 0.5-0.003907 0.19531 0.085937 0.37891 0.23438 0.50391 1.3984 1.1484 2.9375 2.0859 4.5703 2.7734 1.6484 0.69531 3.3555 1.125 5.0625 1.2773 3.2383 0.28516 6.3242-0.44922 8.9883-2.1211v6.5938c0 0.35547 0.28906 0.64453 0.64453 0.64453s0.64453-0.28906 0.64453-0.64453v-6.5938c2.293 1.4375 4.8906 2.1797 7.6328 2.1797 0.44922 0 0.90234-0.019531 1.3555-0.058594 1.7109-0.14844 3.4102-0.57812 5.0625-1.2773 1.6328-0.69141 3.1719-1.625 4.5703-2.7734 0.14844-0.125 0.23828-0.30859 0.23438-0.50391-0.003907-0.19531-0.09375-0.37891-0.24609-0.5l-3.1641-2.4766c0.57813-0.003906 1.1641-0.066406 1.7656-0.19141 1.1641-0.23828 2.3633-0.70703 3.5586-1.3828 2.0156-1.1406 3.3281-2.4883 3.3828-2.5469 0.13672-0.14062 0.20312-0.33594 0.17578-0.53125-0.027344-0.19531-0.13672-0.36719-0.30469-0.46875l-4.4805-2.6914c0.73828-0.47266 1.4531-1.0547 2.1367-1.7422 0.76172-0.78906 1.5-1.707 2.1758-2.7383zm-5.8867 3.8828c-0.21094 0.10547-0.34766 0.31641-0.35938 0.55078-0.011719 0.23437 0.10938 0.45703 0.3125 0.57812l4.6914 2.8164c-0.53906 0.46484-1.4062 1.1484-2.4883 1.7656-2.4375 1.3828-4.7227 1.75-6.793 1.0977-0.29688-0.09375-0.61719 0.039062-0.76562 0.3125-0.14453 0.27734-0.070312 0.61719 0.17188 0.80469l4.4219 3.4609c-5.2539 3.9492-11.773 4.4102-16.699 1.1992 1.9766-1.4766 3.8242-3.4648 5.5078-5.9297 1.5039-2.2031 2.8789-4.7891 4.0898-7.6875 2.0547-4.9219 2.9062-8.9844 2.9453-9.1562 0.070313-0.34766-0.15234-0.6875-0.5-0.76172-0.34766-0.070313-0.6875 0.15234-0.76172 0.5-0.007813 0.039062-0.87109 4.1328-2.8789 8.9453-1.707 4.0898-4.5977 9.4922-8.8711 12.832v-14.422c1.7109-2.0664 3.1914-4.4609 4.3984-7.1133 0.98828-2.168 1.8047-4.5156 2.4219-6.9766 1.0469-4.1914 1.1562-7.2227 1.1602-7.3516 0.011719-0.35547-0.26953-0.65234-0.62109-0.66406h-0.023437c-0.34766 0-0.63281 0.27344-0.64062 0.625 0 0.03125-0.10938 3.0234-1.1211 7.0781-0.83984 3.3594-2.4727 8.0703-5.5703 12.305l-0.003906-31.02c0-0.35547-0.28906-0.64453-0.64453-0.64453-0.35547 0-0.64453 0.28906-0.64453 0.64453v30.965c-3.0664-4.2109-4.6875-8.8867-5.5234-12.223-1.0195-4.0586-1.1289-7.0742-1.1289-7.1055-0.011719-0.35547-0.30859-0.63281-0.66406-0.62109-0.35547 0.011718-0.63281 0.30859-0.62109 0.66406 0.003906 0.125 0.11328 3.1562 1.1562 7.3438 0.61328 2.457 1.4258 4.8008 2.4141 6.9688 1.2031 2.6367 2.6719 5.0195 4.3672 7.0781v14.473c-4.2734-3.3398-7.1602-8.7422-8.8711-12.836-2.0117-4.8125-2.8711-8.9023-2.8789-8.9453-0.070313-0.34766-0.41016-0.57031-0.76172-0.5-0.34766 0.070312-0.57031 0.41016-0.5 0.76172 0.035156 0.17188 0.88672 4.2344 2.9453 9.1562 1.2109 2.8984 2.5859 5.4844 4.0898 7.6875 1.6836 2.4648 3.5312 4.4531 5.5078 5.9297-4.9297 3.2109-11.449 2.7461-16.699-1.1992l4.4219-3.4609c0.24609-0.19141 0.31641-0.53125 0.17188-0.80469-0.14453-0.27734-0.46484-0.40625-0.76562-0.3125-2.0625 0.64844-4.3398 0.28906-6.7656-1.0781-1.0938-0.61719-1.9727-1.3086-2.5195-1.7812l4.6914-2.8164c0.20312-0.12109 0.32031-0.34375 0.3125-0.57812-0.011719-0.23438-0.14844-0.44531-0.35938-0.55078-2.1875-1.0781-3.8125-3.0781-4.793-4.5664-0.62109-0.94531-1.0703-1.8125-1.3398-2.3789l5.6797-1.3906c0.23438-0.058594 0.42188-0.24219 0.47266-0.48047 0.054687-0.23828-0.03125-0.48438-0.21875-0.64062-2.543-2.0859-3.3984-5.6719-3.6641-7.2734l5.6562 0.53125c0.28516 0.027344 0.55078-0.13672 0.65625-0.40234s0.023437-0.56641-0.20312-0.74609c-1.9492-1.5273-2.2773-5.2461-2.3242-6.8672l5.6289 1.2344c0.25391 0.054687 0.51562-0.046875 0.66406-0.25781 0.14844-0.21094 0.15625-0.49219 0.019531-0.71094-1.0859-1.7227-1.4805-3.7969-1.1797-6.1602 0.15625-1.2188 0.46875-2.2188 0.67578-2.7852l4.3789 1.1875c0.25781 0.070313 0.53125-0.027343 0.6875-0.23828 0.15625-0.21484 0.16406-0.50391 0.023438-0.72656-1.0195-1.5938-0.92578-3.5703-0.66406-4.9531 0.15625-0.83984 0.39453-1.5703 0.57812-2.0625l2.1484 1.3594c0.22266 0.14062 0.50781 0.13281 0.71875-0.019532 0.21484-0.15234 0.3125-0.42188 0.25-0.67578-0.51172-2.1133 0.125-5.0312 1.0195-6.8203 0.73047-1.4648 1.7031-2.7773 2.6445-4.043 0.36328-0.48828 0.73438-0.98828 1.0977-1.5039 0.36328 0.51562 0.73437 1.0156 1.0977 1.5039 0.94141 1.2656 1.9141 2.5742 2.6445 4.043 0.89453 1.793 1.5312 4.7109 1.0195 6.8203-0.0625 0.25391 0.039063 0.52344 0.25 0.67578 0.21484 0.15234 0.49609 0.16016 0.71875 0.019532l2.1484-1.3594c0.18359 0.49219 0.42188 1.2227 0.57812 2.0625 0.25781 1.3789 0.35547 3.3594-0.66406 4.9531-0.14453 0.22266-0.13281 0.51562 0.023438 0.72656 0.15625 0.21484 0.42969 0.30859 0.6875 0.23828l4.3789-1.1875c0.20703 0.5625 0.51953 1.5625 0.67578 2.7852 0.30469 2.3633-0.09375 4.4336-1.1797 6.1602-0.13672 0.21875-0.13281 0.5 0.019531 0.71094 0.14844 0.21094 0.41016 0.3125 0.66406 0.25781l5.6289-1.2344c-0.015625 0.57812-0.070313 1.4336-0.22266 2.3594-0.24609 1.5039-0.8125 3.5039-2.1016 4.5117-0.22656 0.17578-0.30859 0.48047-0.20312 0.74609s0.375 0.42969 0.65625 0.40234l5.6562-0.53125c-0.26562 1.6055-1.1211 5.1875-3.6641 7.2734-0.1875 0.15234-0.27344 0.40234-0.21875 0.64062 0.054687 0.23828 0.23828 0.42578 0.47266 0.48047l5.6797 1.3906c-0.71484 1.5312-2.7734 5.293-6.1133 6.9375z"/>
</svg>
