<?xml version="1.0" encoding="UTF-8"?>
<svg width="100pt" height="100pt" version="1.1" viewBox="0 0 100 100" xmlns="http://www.w3.org/2000/svg">
 <g>
  <path d="m56.309 47.527c1.5-0.69922 3.0938-1.8164 4.8047-3.3516 4.9375-4.4414 7.2891-8.5508 7.1875-12.559-0.023437-0.87109-0.16797-1.7188-0.3125-2.5391-0.15234-0.87109-0.30469-1.7695-0.32031-2.7148-0.003907-0.33594-0.26172-0.59375-0.59766-0.59766-0.94531-0.011719-1.8438-0.16797-2.7109-0.31641-0.82031-0.14062-1.668-0.28906-2.5391-0.30859-0.082031-0.003906-0.16016-0.003906-0.24219-0.003906-3.9297 0-7.9609 2.3555-12.316 7.1914-2.7266 3.0312-6.5859 8.8359-1.7852 13.629 2.5742 2.5703 5.4102 3.1172 8.7148 1.6211 0.039063-0.023437 0.078125-0.039063 0.11719-0.050781z"/>
  <path d="m75.723 35.375c-1.3516-1.418-3.1641-2.4453-5.3984-3.082-0.45312-0.12891-0.90625 0.19141-0.94922 0.66016-0.38672 3.9102-2.8516 7.8711-7.5039 12.059-1.0352 0.92969-2.0391 1.7148-3.0156 2.3594-0.28516 0.1875-0.19141 0.62891 0.14453 0.67969 0.84375 0.13281 1.7578 0.22656 2.7617 0.28125 6.6289 0.35156 11.199-0.89062 13.961-3.7969 0.60156-0.63281 1.0977-1.3359 1.5781-2.0156 0.50781-0.72266 1.0352-1.4648 1.6914-2.1406 0.23047-0.23438 0.23047-0.60938 0-0.84375-0.65625-0.67578-1.1797-1.418-1.6875-2.1406-0.48438-0.68359-0.98047-1.3867-1.582-2.0195z"/>
  <path d="m30.086 81.363c2.9805 0.20703 5.8906-0.72656 8.1641-2.5781 0.32031-0.26172 0.37109-0.73828 0.10547-1.0586-1.9883-2.3984-2.9609-5.4141-2.75-8.5664 0.23828-3.6172 2.0859-6.8203 4.832-8.8906 0.1875-0.14062 0.30078-0.35938 0.30078-0.59766 0.019531-1.8828 0.37109-3.7344 1.0508-5.5156 0.50781-1.332 0.76563-2.7266 0.76563-4.1562 0-1.3945-0.24219-2.75-0.72266-4.0352-1.4297-3.8594-1.4531-7.9375-0.070312-11.484 0.62109-1.5859 0.87891-3.2656 0.76953-4.9844-0.37109-5.7891-5.0078-10.453-10.789-10.852-3.5547-0.24609-6.9219 1.0742-9.3711 3.7031-1.7852 1.918-2.8711 4.4102-3.0625 7.0234-0.12891 1.7344 0.12109 3.4336 0.73047 5.0391 1.4102 3.6914 1.4102 7.7539 0 11.445-0.50781 1.332-0.76562 2.7266-0.76562 4.1523 0 1.3945 0.24219 2.7539 0.71875 4.043 1.4297 3.8555 1.457 7.9336 0.074218 11.484-0.62109 1.5859-0.87891 3.2656-0.76953 4.9844 0.36328 5.7812 5.0039 10.445 10.789 10.844zm8.9766-28.418c-0.16797 0.69922-0.42578 1.3711-0.76562 2-0.10156 0.1875-0.29688 0.29688-0.49609 0.29688-0.089843 0-0.18359-0.023438-0.26562-0.066407-0.27344-0.14844-0.375-0.48828-0.23047-0.76562 0.29297-0.54297 0.51562-1.125 0.66406-1.7305 0.45703-1.8867 0.15625-3.8359-0.85547-5.4922-0.16016-0.26562-0.078125-0.61328 0.1875-0.77344 0.26562-0.16406 0.61328-0.078124 0.77344 0.1875 1.168 1.9102 1.5156 4.1641 0.98828 6.3438zm-2.6328-27.863c0.21875-0.21875 0.57812-0.21875 0.79687 0 1.5859 1.5859 2.457 3.6914 2.457 5.9336 0 0.71875-0.089844 1.4336-0.27344 2.125-0.066406 0.25391-0.29297 0.42188-0.54688 0.42188-0.046875 0-0.09375-0.007812-0.14453-0.019531-0.30078-0.078125-0.48047-0.38672-0.40234-0.6875 0.15625-0.59766 0.23438-1.2148 0.23438-1.8398 0-1.9414-0.75391-3.7617-2.1289-5.1367-0.21094-0.21875-0.21094-0.57812 0.007813-0.79688zm-6.082 0.39844c0-0.3125 0.25391-0.5625 0.5625-0.5625 0.3125 0 0.5625 0.25391 0.5625 0.5625v5.8828c0 0.3125-0.25391 0.5625-0.5625 0.5625-0.3125 0-0.5625-0.25391-0.5625-0.5625zm0 22.363c0-0.3125 0.25391-0.5625 0.5625-0.5625 0.3125 0 0.5625 0.25391 0.5625 0.5625v5.8828c0 0.3125-0.25391 0.5625-0.5625 0.5625-0.3125 0-0.5625-0.25391-0.5625-0.5625zm0 22.363c0-0.3125 0.25391-0.5625 0.5625-0.5625 0.3125 0 0.5625 0.25391 0.5625 0.5625v5.8828c0 0.3125-0.25391 0.5625-0.5625 0.5625-0.3125 0-0.5625-0.25391-0.5625-0.5625zm-5.7539-45.125c0.21875-0.21875 0.57812-0.21875 0.79688 0s0.21875 0.57812 0 0.79688c-1.3711 1.3711-2.1289 3.1953-2.1289 5.1367 0 0.62109 0.078125 1.2422 0.23438 1.8398 0.078125 0.30078-0.10156 0.60938-0.40234 0.6875-0.046875 0.011719-0.09375 0.019531-0.14453 0.019531-0.25 0-0.48047-0.16797-0.54688-0.42188-0.17969-0.69141-0.27344-1.4062-0.27344-2.125 0.007813-2.2422 0.88281-4.3477 2.4648-5.9336zm-0.73828 27.598c0.14844 0.60547 0.37109 1.1875 0.66406 1.7344 0.14844 0.27344 0.042969 0.61719-0.23047 0.76563-0.085937 0.046874-0.17578 0.066406-0.26562 0.066406-0.19922 0-0.39453-0.10938-0.49609-0.29688-0.33594-0.62891-0.59375-1.3008-0.76562-2-0.52734-2.1758-0.17969-4.4297 0.98828-6.3438 0.16406-0.26562 0.50781-0.35156 0.77344-0.1875 0.26562 0.16016 0.35156 0.50781 0.1875 0.77344-1.0078 1.6523-1.3125 3.6016-0.85547 5.4883zm-1.4453 15.75c0.078125-0.30078 0.38672-0.48438 0.6875-0.40234 0.30078 0.078125 0.48047 0.38672 0.40234 0.6875-0.15625 0.59766-0.23438 1.2148-0.23438 1.8398 0 1.9414 0.75391 3.7617 2.1289 5.1367 0.21875 0.21875 0.21875 0.57812 0 0.79688-0.10938 0.10938-0.25391 0.16406-0.39844 0.16406-0.14453 0-0.28906-0.054688-0.39844-0.16406-1.5859-1.5859-2.457-3.6914-2.457-5.9336-0.003906-0.71875 0.089844-1.4336 0.26953-2.125z"/>
  <path d="m36.73 69.23c-0.20312 3.0938 0.84375 6.043 2.9531 8.293 2.082 2.2227 5.0195 3.4961 8.0625 3.4961 1.5352 0 3.0195-0.30859 4.4141-0.91797 4.1211-1.8008 8.9688-1.8242 13.645-0.0625 1.2422 0.46875 2.5508 0.70313 3.8906 0.70313 3.0859 0 5.9492-1.2422 8.0586-3.4961s3.1602-5.1953 2.957-8.2891c-0.35938-5.4922-4.7734-9.9062-10.266-10.27-1.7539-0.11719-3.457 0.16797-5.0547 0.84375-4.2422 1.7969-9.1367 1.832-13.785 0.097656-1.2344-0.46094-2.5273-0.69531-3.8516-0.69531-0.28125 0-0.56641 0.011718-0.85156 0.03125-5.4414 0.41406-9.8125 4.8242-10.172 10.266zm30.289-7.8867c0.69141-0.17969 1.4062-0.27344 2.125-0.27344 2.2422 0 4.3477 0.87109 5.9336 2.457 0.21875 0.21875 0.21875 0.57812 0 0.79688-0.10938 0.10938-0.25391 0.16406-0.39844 0.16406-0.14453 0-0.28906-0.054687-0.39844-0.16406-1.3711-1.3711-3.1953-2.1289-5.1367-2.1289-0.625 0-1.2422 0.078126-1.8398 0.23438-0.30078 0.078124-0.60938-0.10156-0.6875-0.40234-0.078126-0.29688 0.10156-0.60547 0.40234-0.68359zm8.2227 8.5039c0 0.3125-0.25391 0.5625-0.5625 0.5625h-5.8828c-0.3125 0-0.5625-0.25391-0.5625-0.5625 0-0.3125 0.25391-0.5625 0.5625-0.5625h5.8828c0.3125-0.003906 0.5625 0.25 0.5625 0.5625zm-8.625 7.8125c0.078124-0.30078 0.38672-0.48438 0.6875-0.40234 0.59766 0.15625 1.2148 0.23438 1.8398 0.23438 1.9414 0 3.7617-0.75391 5.1367-2.1289 0.21875-0.21875 0.57812-0.21875 0.79688 0s0.21875 0.57812 0 0.79688c-1.5859 1.5859-3.6914 2.457-5.9336 2.457-0.71875 0-1.4336-0.089844-2.125-0.26953-0.30078-0.078125-0.48047-0.38672-0.40234-0.6875zm-23.848-14.035c1.5859-1.5859 3.6914-2.457 5.9336-2.457 0.71875 0 1.4336 0.089843 2.125 0.27344 0.30078 0.078125 0.48047 0.38672 0.40234 0.6875-0.078125 0.30078-0.38672 0.48047-0.6875 0.40234-0.59766-0.15625-1.2148-0.23438-1.8398-0.23438-1.9414 0-3.7656 0.75391-5.1367 2.1289-0.10938 0.10938-0.25391 0.16406-0.39844 0.16406s-0.28906-0.054688-0.39844-0.16406c-0.21875-0.22266-0.21875-0.58203 0-0.80078zm0.39844 5.75h5.8828c0.3125 0 0.5625 0.25391 0.5625 0.5625 0 0.3125-0.25391 0.5625-0.5625 0.5625h-5.8828c-0.3125 0-0.5625-0.25391-0.5625-0.5625s0.25-0.5625 0.5625-0.5625zm-0.39844 6.0859c0.21875-0.21875 0.57812-0.21875 0.79688 0 1.3711 1.3711 3.1953 2.1289 5.1367 2.1289 0.625 0 1.2422-0.078125 1.8398-0.23438 0.30078-0.078125 0.60938 0.10156 0.6875 0.40234 0.078125 0.30078-0.10156 0.60938-0.40234 0.6875-0.69141 0.17969-1.4062 0.26953-2.125 0.26953-2.2422 0-4.3477-0.87109-5.9336-2.457-0.21875-0.22266-0.21875-0.57812 0-0.79687z"/>
 </g>
</svg>
