<?xml version="1.0" encoding="UTF-8"?>
<svg width="100pt" height="100pt" version="1.1" viewBox="0 0 100 100" xmlns="http://www.w3.org/2000/svg">
 <g>
  <path d="m46.672 46.742c1.8516 1.8477 3.8867 2.7773 6.082 2.7773 0.60156 0 1.2148-0.070312 1.8438-0.21094 0.63672-0.14453 1.2891-0.35938 1.9492-0.64844 1.4688 0.42578 3.1719 0.6875 5.1953 0.79688 0.78125 0.042969 1.5273 0.0625 2.2461 0.0625 2.1133 0 3.9688-0.17969 5.625-0.53906 1.3906-0.30078 2.6562-0.73828 3.7734-1.3008 1.2461-0.62891 2.3438-1.4297 3.25-2.3828 0.66016-0.69531 1.1836-1.4375 1.6875-2.1523 0.50781-0.71875 0.98438-1.3984 1.5859-2.0117 0.66406-0.67969 0.66406-1.7461 0-2.4258-0.59766-0.61328-1.0742-1.293-1.582-2.0117s-1.0312-1.457-1.6914-2.1523c-0.97266-1.0195-2.1523-1.8633-3.5156-2.5117-1.0859-0.51562-2.3164-0.92188-3.6562-1.2031-0.058594-0.69922-0.17578-1.3672-0.28906-2.0195-0.14844-0.86719-0.29297-1.6875-0.30469-2.5469-0.011719-0.94922-0.76562-1.7031-1.7148-1.7148-0.85938-0.011719-1.6797-0.15234-2.5469-0.30078-0.86328-0.14844-1.7539-0.30078-2.7109-0.32422-1.3164-0.03125-2.6562 0.17578-3.9844 0.61328-1.1836 0.39062-2.3906 0.98047-3.5898 1.75-1.9141 1.2305-3.8438 2.9414-5.9023 5.2266-1.4609 1.625-3.3555 4.1523-4.0781 6.9688-0.375 1.457-0.40234 2.8594-0.082031 4.1719 0.35938 1.4727 1.1719 2.8516 2.4102 4.0898zm29.145-11.422c0.60547 0.63672 1.1055 1.3438 1.5859 2.0273 0.51172 0.72266 1.0352 1.4688 1.6953 2.1484 0.23438 0.24219 0.23438 0.60547 0 0.84766-0.66016 0.67969-1.1875 1.4258-1.6992 2.1484-0.48047 0.68359-0.98047 1.3906-1.5859 2.0234-2.7734 2.9141-7.3594 4.1602-14.016 3.8086-1.3945-0.074219-2.6289-0.22266-3.7266-0.45312 1.2227-0.71875 2.4922-1.6758 3.8359-2.8789 2.2891-2.0586 3.9961-3.9883 5.2266-5.9023 0.76953-1.1953 1.3594-2.4023 1.75-3.5898 0.38672-1.168 0.59375-2.3477 0.61328-3.5117 2.668 0.60547 4.7891 1.7227 6.3203 3.332zm-30.379 3.4336c0.66406-2.5938 2.4492-4.9609 3.8242-6.4922 4.3711-4.8555 8.4141-7.2188 12.359-7.2188 0.082031 0 0.16016 0.003906 0.24219 0.003906 0.875 0.023437 1.7266 0.16797 2.5469 0.30859 0.87109 0.14844 1.7773 0.30469 2.7227 0.32031 0.33984 0.003907 0.59375 0.26172 0.60156 0.60156 0.011719 0.94922 0.17188 1.8516 0.32031 2.7227 0.12891 0.73438 0.25781 1.4922 0.30078 2.2695-0.003907 0.039063 0 0.078125 0.007812 0.11719 0.003907 0.054687 0.003907 0.10938 0.007813 0.16406 0.10156 4.0234-2.2617 8.1445-7.2148 12.605-1.7344 1.5625-3.3359 2.6758-4.8359 3.3711-0.035156 0.011718-0.066406 0.027344-0.097656 0.042968-0.64062 0.28906-1.2656 0.50391-1.875 0.63672-2.5312 0.57031-4.7812-0.17188-6.875-2.2617-2.0508-2.0508-2.7344-4.4727-2.0352-7.1914z"/>
  <path d="m24.5 24.988c-0.77344 0.77344-1.3789 1.6758-1.8047 2.6758-0.44141 1.0391-0.66016 2.1406-0.66016 3.2773 0 0.72266 0.09375 1.4414 0.27344 2.1328 0.066406 0.25391 0.29688 0.42578 0.54688 0.42578 0.046875 0 0.097656-0.007812 0.14453-0.019531 0.30078-0.078125 0.48438-0.38672 0.40234-0.69141-0.15625-0.60156-0.23438-1.2188-0.23438-1.8477 0-1.9492 0.75781-3.7773 2.1367-5.1523 0.22266-0.22266 0.22266-0.57812 0-0.80078-0.22656-0.21875-0.58203-0.21875-0.80469 0z"/>
  <path d="m38.516 30.945c0 0.625-0.078125 1.2461-0.23438 1.8477-0.078125 0.30078 0.10156 0.61328 0.40234 0.69141 0.046875 0.011719 0.097656 0.019531 0.14453 0.019531 0.25391 0 0.48047-0.16797 0.54688-0.42578 0.17969-0.69141 0.27344-1.4102 0.27344-2.1328 0-1.1367-0.22266-2.2383-0.66016-3.2773-0.42578-1.0039-1.0312-1.9023-1.8047-2.6758-0.22266-0.22266-0.57812-0.22266-0.80078 0-0.22266 0.22266-0.22266 0.57812 0 0.80078 1.375 1.3711 2.1328 3.2031 2.1328 5.1523z"/>
  <path d="m30.84 24.824c-0.3125 0-0.56641 0.25391-0.56641 0.56641v5.9023c0 0.3125 0.25391 0.56641 0.56641 0.56641s0.56641-0.25391 0.56641-0.56641v-5.9023c0-0.31641-0.25391-0.56641-0.56641-0.56641z"/>
  <path d="m23.164 70.633c0-0.625 0.078126-1.2461 0.23438-1.8477 0.078124-0.30078-0.10156-0.61328-0.40234-0.69141-0.30078-0.078125-0.61328 0.10156-0.69141 0.40234-0.17969 0.69141-0.27344 1.4102-0.27344 2.1328 0 1.1367 0.22266 2.2383 0.66016 3.2773 0.42578 1.0039 1.0312 1.9023 1.8047 2.6758 0.10938 0.10938 0.25781 0.16406 0.39844 0.16406 0.14453 0 0.28906-0.054688 0.39844-0.16406 0.22266-0.22266 0.22266-0.57812 0-0.80078-1.3672-1.375-2.1289-3.2031-2.1289-5.1484z"/>
  <path d="m30.84 69.715c-0.3125 0-0.56641 0.25391-0.56641 0.56641v5.9023c0 0.3125 0.25391 0.56641 0.56641 0.56641s0.56641-0.25391 0.56641-0.56641v-5.9023c0-0.3125-0.25391-0.56641-0.56641-0.56641z"/>
  <path d="m24.43 46.398c-0.26563-0.16016-0.61719-0.078126-0.77734 0.1875-0.56641 0.93359-0.94531 1.9531-1.1211 3.0273-0.18359 1.1133-0.13672 2.2383 0.12891 3.3438 0.17188 0.70312 0.42969 1.3789 0.76953 2.0078 0.10156 0.19141 0.29687 0.29688 0.49609 0.29688 0.089844 0 0.18359-0.023438 0.26953-0.066407 0.27734-0.14844 0.37891-0.49219 0.23047-0.76562-0.29297-0.54688-0.51953-1.1289-0.66406-1.7383-0.46094-1.8906-0.15234-3.8516 0.85938-5.5117 0.16016-0.27344 0.074218-0.62109-0.19141-0.78125z"/>
  <path d="m38.031 46.586c-0.16016-0.26563-0.51172-0.35156-0.77734-0.1875-0.26562 0.16016-0.35156 0.51172-0.1875 0.77734 1.0117 1.6602 1.3164 3.6211 0.85938 5.5117-0.14844 0.60938-0.37109 1.1953-0.66406 1.7383-0.14844 0.27734-0.046875 0.61719 0.23047 0.76562 0.085937 0.046875 0.17969 0.066406 0.26953 0.066406 0.20312 0 0.39453-0.10937 0.49609-0.29687 0.33984-0.62891 0.59766-1.3047 0.76953-2.0078 0.26953-1.1055 0.3125-2.2266 0.12891-3.3438-0.17969-1.0703-0.55469-2.0898-1.125-3.0234z"/>
  <path d="m30.84 47.27c-0.3125 0-0.56641 0.25391-0.56641 0.56641v5.9023c0 0.3125 0.25391 0.56641 0.56641 0.56641s0.56641-0.25391 0.56641-0.56641v-5.9023c0-0.3125-0.25391-0.56641-0.56641-0.56641z"/>
  <path d="m81.949 68.961c-0.19141-2.9297-1.457-5.6992-3.5586-7.8008-2.1016-2.1016-4.8711-3.3672-7.8008-3.5586-1.9414-0.12891-3.8203 0.1875-5.5898 0.9375-3.9883 1.6914-8.6055 1.7188-12.996 0.078126-1.6562-0.62109-3.4062-0.86719-5.1992-0.73047-1.75 0.12891-3.4453 0.64453-4.9648 1.4883 0.054687-1.6367 0.38281-3.2461 0.97656-4.7969 0.55859-1.4648 0.84375-3.0039 0.84375-4.5742 0-1.5352-0.26953-3.0312-0.79688-4.4453-1.3398-3.6133-1.3633-7.4219-0.074219-10.723 0.68359-1.7461 0.96875-3.5938 0.84766-5.4883-0.19531-3.0742-1.5156-5.9805-3.7109-8.1914-2.1992-2.2109-5.1016-3.543-8.1719-3.7578-1.8203-0.125-3.6016 0.12109-5.2891 0.73828-1.625 0.58984-3.0898 1.4883-4.3594 2.6758-1.2734 1.1875-2.2734 2.5938-2.9766 4.1758-0.72656 1.6406-1.0977 3.3867-1.0977 5.1953 0 1.5703 0.28516 3.1094 0.84375 4.5742 1.3164 3.4453 1.3164 7.2344 0 10.68-0.55859 1.4648-0.84375 3.0039-0.84375 4.5703 0 1.5312 0.26953 3.0312 0.79297 4.4492 1.3398 3.6094 1.3672 7.4141 0.078125 10.723-0.68359 1.7461-0.96875 3.5938-0.84766 5.4883 0.19531 3.0703 1.5117 5.9805 3.7109 8.1953 2.1992 2.2109 5.1016 3.543 8.1719 3.7578 0.30859 0.023437 0.61328 0.03125 0.91797 0.03125 1.6016 0 3.1641-0.29297 4.6523-0.875 1.5078-0.58984 2.9141-1.4805 4.1016-2.5938 0.94922 0.84766 2.0156 1.5391 3.1875 2.0586 1.5586 0.69141 3.2227 1.043 4.9414 1.043 1.6992 0 3.3398-0.34375 4.8828-1.0156 3.8672-1.6914 8.4258-1.7031 12.844-0.039062 1.375 0.51953 2.8203 0.78125 4.3047 0.78125 1.7188 0 3.3828-0.35156 4.9414-1.043 1.5078-0.66797 2.8438-1.6172 3.9727-2.8242s1.9883-2.5977 2.5547-4.1406c0.58203-1.625 0.82422-3.3125 0.71094-5.043zm-51.938 12.516c-5.8047-0.39844-10.461-5.082-10.828-10.891-0.10938-1.7266 0.14844-3.4102 0.77344-5.0039 1.3906-3.5625 1.3633-7.6562-0.074219-11.527-0.48047-1.293-0.72266-2.6562-0.72266-4.0547 0-1.4297 0.25781-2.832 0.76953-4.1641 1.4141-3.7031 1.4141-7.7852 0-11.484-0.51172-1.3359-0.76953-2.7383-0.76953-4.1719 0-3.2266 1.3555-6.3398 3.7109-8.543 2.3906-2.2305 5.5195-3.3398 8.8008-3.1133 5.8047 0.39844 10.457 5.082 10.828 10.891 0.10938 1.7266-0.14844 3.4102-0.77344 5.0039-1.3867 3.5625-1.3633 7.6562 0.070313 11.527 0.48047 1.2891 0.72656 2.6523 0.72656 4.0508 0 1.4336-0.25781 2.8359-0.76953 4.1719-0.72656 1.9062-1.0859 3.8984-1.0586 5.9219-0.57422 0.40625-1.1211 0.87109-1.625 1.3789-2.0781 2.0977-3.3281 4.8516-3.5234 7.7617-0.11328 1.7305 0.125 3.4258 0.71484 5.0312 0.5625 1.5352 1.4141 2.9219 2.5312 4.1211-2.3555 2.1953-5.5234 3.3203-8.7812 3.0938zm47.84-4.1211c-2.1172 2.2617-4.9922 3.5078-8.0898 3.5078-1.3438 0-2.6562-0.23828-3.9023-0.70703-2.2656-0.85156-4.5703-1.293-6.8633-1.3086h-0.12109c-2.375 0-4.6289 0.46094-6.7109 1.3711-1.3984 0.61328-2.8906 0.92188-4.4297 0.92188-3.0547 0-6.0039-1.2812-8.0938-3.5117-2.1172-2.2617-3.1719-5.2188-2.9648-8.3242 0.22656-3.457 2.0703-6.4961 4.7773-8.3672 0.09375-0.03125 0.17578-0.089844 0.23828-0.16016 1.5195-0.99219 3.2891-1.6211 5.1914-1.7656 0.28516-0.023438 0.57031-0.03125 0.85547-0.03125 1.3281 0 2.625 0.23438 3.8672 0.69531 2.2656 0.84766 4.5977 1.2734 6.9336 1.2773h0.011719c2.4219 0 4.7383-0.46094 6.8906-1.375 1.6016-0.67969 3.3086-0.96484 5.0703-0.84766 5.5117 0.36328 9.9414 4.793 10.301 10.305 0.21094 3.1016-0.84375 6.0586-2.9609 8.3203z"/>
  <path d="m72.492 61.777c-1.0391-0.44141-2.1406-0.66016-3.2773-0.66016-0.72266 0-1.4414 0.09375-2.1328 0.27344-0.30078 0.078125-0.48438 0.38672-0.40234 0.69141 0.078124 0.30078 0.38672 0.48438 0.69141 0.40234 0.60156-0.15625 1.2188-0.23438 1.8477-0.23438 1.9492 0 3.7773 0.75781 5.1523 2.1367 0.10938 0.10938 0.25781 0.16406 0.39844 0.16406 0.14453 0 0.28906-0.054687 0.39844-0.16406 0.22266-0.22266 0.22266-0.57812 0-0.80078-0.76953-0.77734-1.6719-1.3867-2.6758-1.8086z"/>
  <path d="m74.371 75.461c-1.375 1.375-3.207 2.1367-5.1523 2.1367-0.625 0-1.2461-0.078125-1.8477-0.23438-0.30078-0.078125-0.61328 0.10156-0.69141 0.40234-0.078126 0.30078 0.10156 0.61328 0.40234 0.69141 0.69141 0.17969 1.4102 0.27344 2.1328 0.27344 1.1367 0 2.2383-0.22266 3.2773-0.66016 1.0039-0.42578 1.9023-1.0312 2.6758-1.8047 0.22266-0.22266 0.22266-0.57812 0-0.80078-0.21875-0.22656-0.57422-0.22656-0.79688-0.003906z"/>
  <path d="m74.77 69.355h-5.9023c-0.3125 0-0.56641 0.25391-0.56641 0.56641s0.25391 0.56641 0.56641 0.56641h5.9023c0.3125 0 0.56641-0.25391 0.56641-0.56641s-0.25-0.56641-0.56641-0.56641z"/>
  <path d="m50.828 61.48c-0.69141-0.17969-1.4102-0.27344-2.1328-0.27344-1.1367 0-2.2383 0.22266-3.2773 0.66016-1.0039 0.42578-1.9023 1.0312-2.6758 1.8047-0.22266 0.22266-0.22266 0.57812 0 0.80078 0.10937 0.10938 0.25781 0.16406 0.39844 0.16406 0.14453 0 0.28906-0.054688 0.39844-0.16406 1.375-1.375 3.207-2.1367 5.1523-2.1367 0.625 0 1.2461 0.078124 1.8477 0.23437 0.30078 0.078126 0.61328-0.10156 0.69141-0.40234 0.082031-0.30078-0.097657-0.60938-0.40234-0.6875z"/>
  <path d="m50.543 77.453c-0.60156 0.15625-1.2188 0.23438-1.8477 0.23438-1.9492 0-3.7773-0.75781-5.1523-2.1367-0.22266-0.22266-0.57812-0.22266-0.80078 0-0.22266 0.22266-0.22266 0.57812 0 0.80078 0.77344 0.77344 1.6758 1.3789 2.6758 1.8047 1.0391 0.44141 2.1406 0.66016 3.2773 0.66016 0.72266 0 1.4414-0.09375 2.1328-0.27344 0.30078-0.078125 0.48438-0.38672 0.40234-0.69141-0.074219-0.29687-0.38281-0.47656-0.6875-0.39844z"/>
  <path d="m43.141 70.578h5.9023c0.3125 0 0.56641-0.25391 0.56641-0.56641s-0.25391-0.56641-0.56641-0.56641h-5.9023c-0.3125 0-0.56641 0.25391-0.56641 0.56641s0.25391 0.56641 0.56641 0.56641z"/>
 </g>
</svg>
