<?xml version="1.0" encoding="UTF-8"?>
<svg width="100pt" height="100pt" version="1.1" viewBox="0 0 100 100" xmlns="http://www.w3.org/2000/svg">
 <g>
  <path d="m66.398 70.629c-0.58594-0.35547-1.3047-0.49219-2.0352-0.32812-1.0586 0.23828-1.8906 1.1211-2.0703 2.1875-0.14453 0.86719 0.12109 1.6914 0.66016 2.2891 0.19922 0.21875 0.5625 0.11719 0.63672-0.17188 0.38281-1.457 1.3984-2.6758 2.75-3.3203 0.26953-0.12891 0.3125-0.50391 0.058594-0.65625z"/>
  <path d="m76.789 76.035c0.003907-0.046875 0.003907-0.09375 0.003907-0.14062 0-1.9727-1.4688-3.6641-3.4141-3.9336-0.17969-0.027344-0.36719-0.039063-0.55078-0.039063h-4.3125c-0.1875 0-0.375 0.011719-0.55469 0.039063-1.9453 0.27344-3.4141 1.9648-3.4141 3.9336 0 0.046875 0 0.09375 0.003906 0.14062 0.003907 0.023438 0.003907 0.03125 0.003907 0.039063 0.089843 2.125 1.832 3.7891 3.9609 3.7891h4.3125c2.1289 0 3.8711-1.6641 3.9609-3.7891 0-0.007813 0.003907-0.015625 0.003907-0.023438-0.003907-0.003906-0.003907-0.011719-0.003907-0.015625z"/>
  <path d="m22.168 47.398c0.1875-0.24609 0.54297-0.29297 0.78906-0.10547 0.24609 0.1875 0.29297 0.54297 0.10547 0.78906l-4.4688 5.8438c-0.12109 0.16016-0.17578 0.35938-0.14844 0.55859 0.29297 2.1094 0.80469 4.6055 1.5234 7.2617 0.082031 0.30078 0.47266 0.375 0.66406 0.12891l1.5312-2.0039c0.1875-0.24609 0.54297-0.29297 0.78906-0.10547s0.29297 0.54297 0.10547 0.78906l-2.2578 2.9531c-0.14844 0.19531-0.19531 0.44922-0.12109 0.67969 0.56641 1.8242 1.2305 3.6875 1.9805 5.5195 3.2031 7.7852 7.0195 12.25 10.469 12.25 3.4492 0 7.2656-4.4648 10.469-12.25 0.76953-1.8711 1.4414-3.7734 2.0195-5.6367 0.070312-0.23437 0.023437-0.48437-0.12109-0.67969l-2.1719-2.8438c-0.1875-0.24609-0.14062-0.60156 0.10547-0.78906 0.24609-0.1875 0.60156-0.14062 0.78906 0.10547l1.4453 1.8906c0.1875 0.24609 0.58203 0.17188 0.66406-0.12891 0.71875-2.668 1.2266-5.1758 1.5117-7.2812 0.027344-0.19922-0.027344-0.39453-0.14844-0.55469l-4.3633-5.7109c-0.1875-0.24609-0.14062-0.60156 0.10547-0.78906s0.60156-0.14062 0.78906 0.10547l3.207 4.1953c0.21484 0.28125 0.66406 0.13672 0.67578-0.21875 0.003906-0.16797 0.007812-0.32812 0.007812-0.48438 0-2.793-0.77344-5.4102-2.1094-7.6523-0.13672-0.22656-0.46094-0.23828-0.61719-0.03125l-4.0391 5.2812c-0.10547 0.14062-0.27344 0.22266-0.44922 0.22266-0.17578 0-0.33984-0.082031-0.44922-0.22266l-5.3281-6.9727c-0.1875-0.24609-0.14062-0.60156 0.10547-0.78906 0.24609-0.1875 0.60156-0.14062 0.78906 0.10547l4.8789 6.3867 3.7812-4.9453c0.21484-0.28125 0.20312-0.67188-0.027343-0.94531-2.75-3.3086-6.8906-5.418-11.52-5.418-4.6328 0-8.7812 2.1172-11.531 5.4297-0.22656 0.27344-0.24219 0.66406-0.023437 0.94531l3.7695 4.9258 4.8789-6.3789c0.1875-0.24609 0.54297-0.29297 0.78906-0.10547 0.24609 0.1875 0.29297 0.54297 0.10547 0.78906l-5.3281 6.9648c-0.10547 0.14063-0.27344 0.22266-0.44922 0.22266-0.17578 0-0.33984-0.082031-0.44922-0.22266l-4.0234-5.2617c-0.16016-0.21094-0.48438-0.19531-0.62109 0.03125-1.332 2.2383-2.1016 4.8477-2.1016 7.6367 0 0.20313 0.003907 0.42188 0.011719 0.64453 0.011719 0.35156 0.46094 0.5 0.67578 0.21875zm3.1797 25.438c-0.12109 0-0.23828-0.039063-0.34375-0.11719-0.24609-0.1875-0.29297-0.54297-0.10547-0.78906l4.5898-5.9961c0.1875-0.24609 0.54297-0.29297 0.78906-0.10547s0.29297 0.54297 0.10547 0.78906l-4.5898 5.9961c-0.10938 0.14844-0.27734 0.22266-0.44531 0.22266zm2.5391-13.082c0.24609-0.1875 0.60156-0.14062 0.78906 0.10547l4.5234 5.9141 4.5234-5.9141c0.1875-0.24609 0.54297-0.29297 0.78906-0.10547 0.24609 0.1875 0.29297 0.54297 0.10547 0.78906l-4.9727 6.4961c-0.10547 0.14063-0.27344 0.22266-0.44922 0.22266-0.17578 0-0.33984-0.082031-0.44922-0.22266l-4.9648-6.4922c-0.19141-0.25-0.14453-0.60156 0.10547-0.79297zm10.734 12.863-4.9727 6.4961c-0.10547 0.14062-0.27344 0.22266-0.44922 0.22266s-0.33984-0.082032-0.44922-0.22266l-4.9727-6.4961c-0.1875-0.24609-0.14062-0.60156 0.10547-0.78906 0.24609-0.1875 0.60156-0.14062 0.78906 0.10547l4.5234 5.9141 4.5234-5.9141c0.1875-0.24609 0.54297-0.29297 0.78906-0.10547 0.25391 0.1875 0.30078 0.53906 0.11328 0.78906zm2.6172 0.11328c-0.10156 0.078125-0.22266 0.11719-0.34375 0.11719-0.16797 0-0.33594-0.078125-0.44922-0.22266l-4.582-6.0039c-0.1875-0.24609-0.14062-0.60156 0.10547-0.78906s0.60156-0.14062 0.78906 0.10547l4.5859 6.0039c0.19141 0.24609 0.14453 0.59766-0.10547 0.78906zm-0.33984-13.449 4.4023-5.7578c0.1875-0.24609 0.54297-0.29297 0.78906-0.10547s0.29297 0.54297 0.10547 0.78906l-4.8516 6.3438c-0.10547 0.14062-0.27344 0.22266-0.44922 0.22266s-0.33984-0.082032-0.44922-0.22266l-4.7188-6.1797c-0.1875-0.24609-0.14062-0.60156 0.10547-0.78906 0.24609-0.1875 0.60156-0.14062 0.78906 0.10547zm-13.008-11.988c0.24609-0.1875 0.60156-0.14062 0.78906 0.10547l4.5195 5.9023 4.5195-5.9023c0.1875-0.24609 0.54297-0.29297 0.78906-0.10547 0.24609 0.1875 0.29297 0.54297 0.10547 0.78906l-4.9648 6.4883c-0.10547 0.14063-0.27344 0.22266-0.44922 0.22266s-0.33984-0.082031-0.44922-0.22266l-4.9648-6.4883c-0.1875-0.24609-0.14062-0.60156 0.10547-0.78906zm-2.543 11.98 4.3984-5.75c0.1875-0.24609 0.54297-0.29297 0.78906-0.10547s0.29297 0.54297 0.10547 0.78906l-4.8477 6.3359c-0.10547 0.14062-0.27344 0.22266-0.44922 0.22266s-0.33984-0.082031-0.44922-0.22266l-4.8516-6.3359c-0.1875-0.24609-0.14062-0.60156 0.10547-0.78906 0.24609-0.1875 0.60156-0.14062 0.78906 0.10547z"/>
  <path d="m64.953 52.121c-0.042969-0.042969-0.082031-0.082032-0.12109-0.11719-0.019531-0.015625-0.023437-0.019531-0.027343-0.023437-1.8203-1.668-4.6133-1.6094-6.3594 0.14062l-3.4766 3.4766c-1.7461 1.75-1.8086 4.543-0.14062 6.3594 0.011719 0.019531 0.019531 0.023438 0.023437 0.027344 0.035157 0.042969 0.070313 0.078125 0.11328 0.11719 1.6211 1.6211 4.2148 1.8047 6.0352 0.42969 0.17188-0.12891 0.33203-0.26953 0.48438-0.42188l3.4766-3.4766c0.15625-0.15625 0.29687-0.31641 0.42187-0.48828 1.3711-1.8164 1.1875-4.4102-0.42969-6.0234z"/>
  <path d="m66.523 52.293c0.99219 1.5625 1.168 3.5273 0.48437 5.2305-0.10937 0.27344 0.11328 0.5625 0.40234 0.51562 0.65234-0.10156 1.2695-0.40625 1.7578-0.89453 0.60156-0.60156 0.93359-1.4023 0.93359-2.2539s-0.33203-1.6523-0.93359-2.2539c-0.63672-0.63672-1.4883-0.95312-2.3438-0.92578-0.28906 0.011718-0.45703 0.33594-0.30078 0.58203z"/>
  <path d="m76.965 70.297c-0.72266-0.16016-1.4336-0.027344-2.0156 0.32031-0.25781 0.15625-0.22266 0.53516 0.050781 0.66406 1.3516 0.64062 2.3672 1.8633 2.75 3.3164 0.078125 0.28906 0.44141 0.39844 0.64062 0.17188 0.53516-0.60156 0.80078-1.4336 0.64844-2.3086-0.18359-1.0586-1.0195-1.9297-2.0742-2.1641z"/>
  <path d="m54.551 63.984c-0.027343 1.0234 0.44141 2.043 1.3516 2.6953 1.0742 0.76953 2.5664 0.77734 3.6484 0.019531 0.74609-0.51953 1.207-1.293 1.3438-2.1211 0.046875-0.29297-0.24219-0.51562-0.51562-0.40625-1.7109 0.6875-3.6797 0.51172-5.2461-0.48828-0.25-0.16016-0.57422 0.007812-0.58203 0.30078z"/>
  <path d="m18.492 31.262h26.383l4.8789 11.738c0.089844 0.21484 0.30078 0.34766 0.51953 0.34766 0.070312 0 0.14453-0.015625 0.21484-0.042968 0.28906-0.12109 0.42578-0.44922 0.30469-0.73828l-3.8633-9.293 9.4531 9.8984c0.21484 0.22656 0.57031 0.23438 0.79688 0.019531 0.22656-0.21484 0.23437-0.57031 0.019531-0.79688l-10.633-11.133h10.324l4.8789 11.738c0.089844 0.21484 0.30078 0.34766 0.51953 0.34766 0.070313 0 0.14453-0.015625 0.21484-0.042968 0.28906-0.12109 0.42578-0.44922 0.30469-0.73828l-3.8633-9.293 9.4531 9.8984c0.21484 0.22656 0.57422 0.23438 0.79687 0.019531 0.22656-0.21484 0.23438-0.57031 0.019532-0.79688l-10.633-11.133h10.328l3.7852 8.8477c0.089844 0.21484 0.30078 0.34375 0.51953 0.34375 0.074218 0 0.14844-0.015625 0.22266-0.046875 0.28516-0.12109 0.41797-0.45312 0.29688-0.73828l-2.7539-6.4375 6.9336 7.0547c0.21875 0.22266 0.57422 0.22656 0.79688 0.007813 0.22266-0.21875 0.22656-0.57422 0.007812-0.79688l-8.0898-8.2305h4.3672l6.2734 2.8867c0.078125 0.035156 0.15625 0.050781 0.23438 0.050781 0.21484 0 0.41797-0.12109 0.51172-0.32812 0.12891-0.28125 0.007813-0.61719-0.27734-0.74609l-5.2695-2.4258 5.2695-2.4258c0.28125-0.12891 0.40625-0.46484 0.27734-0.74609s-0.46484-0.40625-0.74609-0.27734l-6.2656 2.8867h-4.375l8.0898-8.2305c0.21875-0.22266 0.21484-0.57812-0.007812-0.79688-0.22266-0.21875-0.57813-0.21484-0.79688 0.007813l-6.9336 7.0547 2.7539-6.4375c0.12109-0.28516-0.011719-0.61719-0.29688-0.73828s-0.61719 0.011719-0.73828 0.29688l-3.7852 8.8477-10.328-0.011719 10.633-11.133c0.21484-0.22656 0.20703-0.58203-0.019531-0.79688-0.22656-0.21484-0.58203-0.20703-0.79688 0.019531l-9.4531 9.8984 3.8633-9.293c0.12109-0.28906-0.015625-0.61719-0.30469-0.73828-0.28906-0.12109-0.61719 0.015625-0.73828 0.30469l-4.8789 11.738h-10.324l10.633-11.133c0.21484-0.22656 0.20703-0.58203-0.019531-0.79688-0.22656-0.21484-0.58203-0.20703-0.79688 0.019531l-9.4531 9.8984 3.8633-9.293c0.12109-0.28906-0.015625-0.61719-0.30469-0.73828-0.28516-0.12109-0.61719 0.015625-0.73828 0.30469l-4.8789 11.738h-10.324l10.633-11.133c0.21484-0.22656 0.20703-0.58203-0.019532-0.79688-0.22656-0.21484-0.58203-0.20703-0.79688 0.019531l-9.4531 9.8984 3.8633-9.293c0.12109-0.28906-0.015626-0.61719-0.30469-0.73828-0.28516-0.12109-0.61719 0.015625-0.73828 0.30469l-4.8789 11.738h-14.363c-0.3125 0-0.5625 0.25391-0.5625 0.5625 0 0.3125 0.25391 0.56641 0.56641 0.56641z"/>
 </g>
</svg>
