<?xml version="1.0" encoding="UTF-8"?>
<svg width="100pt" height="100pt" version="1.1" viewBox="0 0 100 100" xmlns="http://www.w3.org/2000/svg">
 <g>
  <path d="m45.496 66.629c-0.26562-0.085937-0.58984-0.066406-0.83984-0.066406-1.6523-0.003906-3.2773 0.66016-4.4453 1.8281-1.3359 1.3398-1.9844 3.2109-1.7969 5.0625 0.039063 0.37891 0.34375 0.68359 0.72266 0.72266 1.8516 0.19141 3.7227-0.45703 5.0625-1.7969 0.27344-0.27344 0.51953-0.57031 0.73828-0.89062 0.46484-0.68359 0.79297-1.457 0.96094-2.2656 0.082031-0.40234 0.12891-0.81641 0.12891-1.2305 0.003906-0.35156 0.035156-0.875-0.20312-1.1602-0.085938-0.10156-0.19922-0.16406-0.32812-0.20312z"/>
  <path d="m33.988 48.035c-0.74219 0.64453-1.707 1.043-2.7617 1.043-1.8125 0-3.3594-1.1523-3.9492-2.7617-0.17188-0.46484-0.72266-0.67969-1.1484-0.43359-0.89062 0.51953-1.4922 1.4805-1.4922 2.5859 0 0.33594-0.27344 0.60938-0.60938 0.60938-1.6406 0-2.9766 1.3281-2.9883 2.9648-0.011718 1.2773 0.875 2.3906 2.0742 2.832 0.47656 0.17578 0.85156 0.23047 1.4062 0.13672 0.32031-0.054688 0.63672 0.14844 0.69922 0.46875 0.26953 1.4062 1.5039 2.4258 2.9375 2.4258 0.30078 0 0.58984-0.046875 0.86328-0.12891 0.019531-0.007813 0.035157-0.011719 0.054688-0.015625 1.2031-0.38672 2.0742-1.5156 2.0742-2.8438 0-0.33594 0.27344-0.60938 0.60937-0.60938 0.33594 0 0.60938 0.27344 0.60938 0.60938 0 0.62891 0.37891 1.168 0.92187 1.4102 0.082032-2.4258 1.5039-4.5117 3.5469-5.5469-0.14453-0.37891-0.50781-0.64844-0.9375-0.64844-0.33594 0-0.60938-0.27344-0.60938-0.60937-0.011718-0.76172-0.57422-1.3828-1.3008-1.4883z"/>
  <path d="m27.477 43.648c0.20313-0.074219 0.4375-0.035157 0.60156 0.10547 0.16797 0.14062 0.24609 0.35938 0.20703 0.57422-0.046875 0.25781-0.0625 0.49219-0.042968 0.72266 0.097656 1.3867 1.1562 2.5664 2.5312 2.7695 1 0.14844 1.9297-0.20312 2.5664-0.84375 0.54297-0.55078 0.875-1.293 0.875-2.1133 0-0.33594 0.27344-0.60938 0.60938-0.60938 0.32422 0 0.59375 0.25391 0.60938 0.57812 0.023437 0.47656 0.375 0.87891 0.84766 0.87891 0.71484-0.003907 1.2969-0.58594 1.2969-1.3008v-3.5664h-5.7109c-0.33594 0-0.60938-0.27344-0.60938-0.60938 0-1.3242 0.375-2.5625 1.0234-3.6172 0.14062-0.23047 0.17578-0.51563 0.066406-0.76563-0.25391-0.58203-0.83594-0.98437-1.5117-0.97656-0.33203 0.003906-0.58984-0.27734-0.58984-0.60938 0-1.7969-1.5977-3.2305-3.4453-2.957-0.96094 0.14453-1.8125 0.76953-2.2305 1.6445-0.71094 1.4883-0.10547 3.1484 1.1992 3.8984 0.21094 0.12109 0.33203 0.35938 0.30078 0.60156-0.03125 0.25-0.21094 0.45312-0.45312 0.51562-0.65625 0.16797-1.2695 0.49609-1.6211 1.0703-1.4375 2.3438 0.22656 4.7891 2.4531 4.7891 0.34375 0.003906 0.6875-0.058594 1.0273-0.17969z"/>
  <path d="m72.734 61.98c-0.33984 0-0.61328-0.27344-0.61328-0.61328 0-1.0742-0.64062-2.0391-1.6289-2.457-0.019532-0.007812-0.039063-0.019531-0.058594-0.03125-1.0156-0.36328-1.8555-1.1094-2.3398-2.0625-0.38672 0.40625-0.89062 0.69531-1.4609 0.80859-0.12891 0.75781-0.38672 1.4961-0.77344 2.1641-0.16797 0.28906-0.54297 0.39063-0.83203 0.22266l-4.1641-2.4023v4.8086c0 0.33203-0.26953 0.60938-0.60547 0.60938-0.42578 0-0.84375-0.042969-1.2461-0.12109-1.4609 0.027344-2.668 1.0859-2.9336 2.4766 1.7031 0.16406 3.332 0.90625 4.5703 2.1484 0.47656 0.47656 0.87891 1.0117 1.2031 1.582 0.25391 0.44922 0.85938 0.57031 1.2422 0.22656 0.39453-0.35547 0.64062-0.86719 0.64062-1.4375 0-0.33984 0.27344-0.61328 0.61328-0.61328s0.61328 0.27344 0.61328 0.61328v0.035156c0.027343 2.3047 2.6758 3.9922 5.0977 2.207 0.57031-0.41797 0.82812-1.1055 0.84766-1.8125 0.007812-0.20703 0.11719-0.39453 0.28906-0.5 0.15625-0.097656 0.35156-0.11719 0.52734-0.054687 0.875 0.31641 1.8125 0.21875 2.6367-0.3125 0.68359-0.4375 1.1758-1.1523 1.3164-1.9492 0.33594-1.8828-1.1016-3.5234-2.9219-3.5352 0-0.003907-0.007812 0-0.019531 0z"/>
  <path d="m73.875 45.883c-0.42578-0.25-0.97656-0.03125-1.1484 0.43359-0.58984 1.6094-2.1367 2.7617-3.9492 2.7617-1.0586 0-2.0273-0.39453-2.7656-1.043-0.74219 0.089844-1.3203 0.71875-1.3203 1.4844 0 0.33594-0.27344 0.60938-0.60938 0.60938-0.42578 0-0.78516 0.26562-0.93359 0.63672 2.0586 1.0312 3.4922 3.125 3.5742 5.5625 0.53906-0.23828 0.92188-0.78125 0.92188-1.4062 0-0.33594 0.27344-0.60938 0.60938-0.60938 0.35156 0 0.63281 0.29297 0.60938 0.64844-0.050781 0.79687 0.17969 1.5938 0.79688 2.1055 2.1406 1.7695 4.7227 0.53125 5.1289-1.5742 0.0625-0.32031 0.375-0.52734 0.69922-0.47266 0.51172 0.085938 0.86719 0.046875 1.2891-0.097656 1.2773-0.42969 2.2227-1.5781 2.1914-2.9219-0.039062-1.6133-1.3633-2.918-2.9883-2.918-0.33203 0.027344-0.61719-0.22266-0.60938-0.55469 0.011718-1.1328-0.59375-2.1172-1.4961-2.6445z"/>
  <path d="m68.742 40.234c0 0.33594-0.27344 0.60938-0.60938 0.60938h-5.7109v3.1562c0 0.42578 0.125 0.84766 0.38672 1.1836 0.75 0.96484 1.75 0.44141 1.7578-0.3125l-0.003906-0.039063c-0.019531-0.33984 0.27344-0.61719 0.61328-0.58203 0.33594 0 0.60938 0.27344 0.60938 0.60938 0.007813 2.25 2.4922 3.9219 4.8555 2.4102 0.80078-0.51172 1.2188-1.4609 1.125-2.4062 0-0.17969-0.015625-0.35156-0.050781-0.54297-0.039063-0.21484 0.039062-0.43359 0.20703-0.57422s0.39844-0.17969 0.60156-0.10547c0.82812 0.30469 1.7109 0.23828 2.5117-0.21875 0.64453-0.36719 1.1445-0.96875 1.3672-1.6797 0.51953-1.6641-0.46484-3.3359-2.0312-3.7812-0.23438-0.066407-0.41016-0.26953-0.4375-0.51172-0.03125-0.24219 0.089844-0.48047 0.30078-0.60156 1.3047-0.75391 1.9141-2.4219 1.1914-3.9102-0.40234-0.83203-1.1914-1.4414-2.0977-1.6133-1.8984-0.35938-3.5664 1.0898-3.5703 2.9219 0 0.34766-0.27344 0.62109-0.60937 0.62109-0.66406 0-1.2305 0.39844-1.4883 0.96875-0.11328 0.25-0.082031 0.54297 0.0625 0.77734 0.64453 1.0586 1.0195 2.2969 1.0195 3.6211z"/>
  <path d="m34.137 59.789c-0.38672-0.67187-0.64453-1.4062-0.77344-2.1641-0.57031-0.11328-1.0742-0.40234-1.4609-0.80859-0.49219 0.96875-1.3477 1.7227-2.3867 2.0781-0.007813 0.003907-0.015625 0.007813-0.023437 0.011719-0.98047 0.41406-1.6133 1.3633-1.625 2.4258 0 0.011719 0.003906 0.023438 0.003906 0.03125 0 0.25391-0.15625 0.47266-0.37891 0.5625-0.074219 0.03125-0.15625 0.050781-0.24219 0.050781-0.007812 0-0.011719 0-0.019531-0.003906-1.8125 0.019532-3.2461 1.6602-2.9102 3.5391 0.14453 0.79688 0.63281 1.5117 1.3164 1.9492 0.82812 0.53125 1.7656 0.62891 2.6367 0.3125 0.17578-0.0625 0.36719-0.042969 0.52734 0.054687 0.17578 0.10547 0.28516 0.29297 0.28906 0.5 0.023437 0.70703 0.27734 1.3906 0.84766 1.8125 2.4258 1.7852 5.0703 0.097656 5.0977-2.207v-0.035156c0-0.33984 0.27344-0.61328 0.61328-0.61328 0.33984 0 0.61328 0.27344 0.61328 0.61328 0 0.57031 0.25 1.082 0.64062 1.4375 0.38281 0.34375 0.98828 0.22656 1.2422-0.22656 0.32422-0.57422 0.72656-1.1055 1.2031-1.582 1.2383-1.2344 2.8555-1.9766 4.5508-2.1445-0.26172-1.3867-1.4648-2.4414-2.918-2.4766-0.40234 0.078125-0.81641 0.12109-1.2422 0.12109-0.33203 0-0.60547-0.27734-0.60547-0.60938v-4.8086l-4.1641 2.4023c-0.28906 0.16797-0.66406 0.066406-0.83203-0.22266z"/>
  <path d="m42.094 36.062c-0.37891-0.35547-0.80859-0.65234-1.3125-0.91016-0.80078-0.41016-1.6914-0.62891-2.5938-0.62891-1.8398 0-3.4766 0.875-4.5234 2.2266-0.03125 0.078125-0.082031 0.14844-0.14453 0.20312-0.54297 0.77344-0.90625 1.6797-1.0117 2.668h5.6797c0.33594 0 0.60938 0.27344 0.60938 0.60938v5.6797c2.8633-0.30469 5.1016-2.7344 5.1016-5.6797 0-1.0859-0.31641-2.1602-0.90234-3.0703-0.26562-0.41797-0.5625-0.78125-0.90234-1.0977z"/>
  <path d="m42.027 51.797c-0.67969-0.33594-1.4258-0.5-2.2812-0.5-0.69922 0-1.3672 0.14062-1.9805 0.39062-0.023437 0.011719-0.046875 0.019531-0.070313 0.027344-1.8828 0.80078-3.2031 2.668-3.2031 4.8359 0 0.71875 0.14844 1.4258 0.42969 2.082l4.5195-2.6094c0.09375-0.054688 0.19922-0.082032 0.30469-0.082032 0.10547 0 0.21094 0.027344 0.30469 0.082032 0.1875 0.10937 0.30469 0.30859 0.30469 0.52734v5.2188c0.12891-0.015625 0.25-0.039062 0.375-0.0625 0.042969-0.011719 0.085937-0.019531 0.13281-0.023437 2.3633-0.51562 4.1367-2.6211 4.1367-5.1328 0-1.4375-0.60547-2.8281-1.6484-3.8125-0.42187-0.39844-0.85937-0.71094-1.3242-0.94141z"/>
  <path d="m55 56.551c0 2.5195 1.7812 4.6289 4.1484 5.1367 0.027343 0.003906 0.050781 0.007812 0.078124 0.015625 0.13672 0.027344 0.27734 0.050781 0.41797 0.070313v-5.2188c0-0.21875 0.11719-0.41797 0.30469-0.52734s0.42188-0.10938 0.60938 0l4.5195 2.6094c0.28125-0.65625 0.42969-1.3633 0.42969-2.082 0-2.1523-1.3008-4.0039-3.1602-4.8164-0.082031-0.015625-0.15625-0.042969-0.22266-0.085937-0.58203-0.22266-1.2148-0.35156-1.875-0.35156-2.8438-0.007812-5.25 2.3906-5.25 5.25z"/>
  <path d="m55.801 72.375c1.3359 1.3359 3.207 1.9844 5.0586 1.7969 0.38281-0.039063 0.68359-0.34766 0.72266-0.73047 0.09375-0.9375-0.027343-1.8789-0.33984-2.7539-0.003907-0.011719-0.007813-0.023438-0.011719-0.035156-0.30859-0.83984-0.79297-1.6133-1.4453-2.2656-0.39844-0.39844-0.85547-0.74609-1.3477-1.0195-0.71484-0.40234-1.5078-0.66016-2.3242-0.76172-0.51172-0.0625-1.9805-0.26172-2.1016 0.5-0.042969 0.27344-0.046875 0.56641-0.046875 0.84375 0.011718 1.6484 0.67188 3.2617 1.8359 4.4258z"/>
  <path d="m61.199 45.914v-5.6797c0-0.33594 0.27344-0.60938 0.60938-0.60938h5.6797c-0.10547-0.98828-0.46875-1.8984-1.0117-2.6719-0.058593-0.054687-0.10547-0.125-0.14062-0.19922-1.0469-1.3555-2.6836-2.2305-4.5273-2.2305-0.41406 0-0.83203 0.046874-1.2344 0.13672-2.5898 0.57422-4.4727 2.9297-4.4727 5.5742 0 2.9414 2.2344 5.375 5.0977 5.6797z"/>
  <path d="m47.41 79.996c0 1.7266 0.77734 3.3555 2.0781 4.4453 0.29297 0.24609 0.73047 0.24609 1.0234 0 1.3008-1.0898 2.0781-2.7188 2.0781-4.4453 0-0.26172-0.019532-0.52344-0.054688-0.78125-0.12109-0.87891-0.44922-1.7266-0.94922-2.457-0.25-0.36719-0.53906-0.70703-0.86719-1.0078-0.26953-0.25-0.68359-0.58594-1.0625-0.32812-0.70703 0.48047-1.2812 1.2734-1.6562 2.0312-0.38281 0.78516-0.58984 1.6602-0.58984 2.543z"/>
  <path d="m58.027 50.48c-0.58984 0.21484-1.1133 0.49609-1.6211 0.875-0.074219 0.054687-0.13672 0.11719-0.20703 0.17578-0.011719-0.007812-5.1992-5.1484-5.1992-5.1484l0.007812 15.738 2.7617 2.793c0.19922 0.20313 0.14062 0.55859-0.125 0.66016-0.1875 0.070312-0.36719 0.16797-0.5 0.31641-0.074219 0.078125-0.13281 0.17188-0.17969 0.26953-0.042969 0.09375-0.070313 0.20312-0.13672 0.28516-0.019531 0.027344-0.042969 0.046876-0.078125 0.0625-0.0625 0.027344-0.12891 0.019532-0.19141-0.003906-0.18359-0.074218-0.30859-0.23047-0.44531-0.37109-0.37109-0.37109-0.73438-0.74609-1.1016-1.1133l0.003906 8.5859c0 0.30078-0.32031 0.51172-0.58594 0.36719-0.125-0.074218-0.25781-0.12109-0.39453-0.12891-0.16406-0.007812-0.3125 0.039062-0.45703 0.11719-0.26953 0.14453-0.59766-0.046876-0.59766-0.35938l-0.003907-8.5664-1.3125 1.3438c-0.20703 0.21094-0.55078 0.13672-0.66797-0.13281-0.09375-0.20312-0.22266-0.38672-0.41797-0.53516-0.074219-0.058594-0.14453-0.10156-0.22266-0.13281-0.25391-0.11719-0.30469-0.45312-0.10938-0.64844l2.7305-2.7969-0.007812-15.715-5.1016 5.1484c-0.078126-0.042968-0.13672-0.10547-0.20703-0.15625-0.46484-0.35938-1.0117-0.78906-1.582-0.82422-0.019531-0.054688-0.007813-0.019532-0.027344-0.074219l6.918-6.9844-0.007812-12.965-5.0391 5.1211-0.03125 0.03125c-0.058594 0.054687-0.13672 0.085937-0.22266 0.085937-0.09375 0-0.17969-0.035156-0.23828-0.097656-0.28516-0.32812-0.59766-0.625-0.94141-0.89453-0.019531-0.011719-0.035156-0.027344-0.054687-0.039063-0.0625-0.0625-0.097656-0.14453-0.097656-0.23828 0-0.070312 0.019531-0.13281 0.058593-0.1875 0.007813-0.011719 0.015625-0.019531 0.027344-0.03125 0.007813-0.007812 0.019531-0.019531 0.027344-0.027344l6.5078-6.6133c-0.027343-5.6562-4.6367-10.25-10.301-10.25-0.59375 0-1.0742-0.51562-1.0078-1.125 0.054687-0.53516 0.55078-0.91016 1.0898-0.90625 6.7383 0.039063 12.215 5.5234 12.25 12.27l6.668 6.5664c0.0625 0.0625 0.10156 0.14453 0.10156 0.23828 0 0.11328-0.058593 0.21484-0.14453 0.27734-0.35938 0.27344-0.66797 0.55859-0.95703 0.88672-0.0625 0.0625-0.14453 0.097656-0.23828 0.097656-0.074219 0-0.13672-0.019531-0.19141-0.058593-0.011718-0.007813-0.019531-0.015625-0.027343-0.023438-0.011719-0.011719-0.023438-0.027343-0.039063-0.039062-1.1484-1.1367-5.1602-5.0859-5.1602-5.0859l0.007812 13.008z"/>
 </g>
</svg>
