<?xml version="1.0" encoding="UTF-8"?>
<svg width="100pt" height="100pt" version="1.1" viewBox="0 0 100 100" xmlns="http://www.w3.org/2000/svg">
 <g>
  <path d="m57.676 45.879c0 2.8281-4.2422 2.8281-4.2422 0s4.2422-2.8281 4.2422 0"/>
  <path d="m57.676 37.414c0 2.8281-4.2422 2.8281-4.2422 0 0-2.8281 4.2422-2.8281 4.2422 0"/>
  <path d="m46.566 33.18c0 2.8281-4.2422 2.8281-4.2422 0 0-2.8242 4.2422-2.8242 4.2422 0"/>
  <path d="m38.551 64.516-0.21094-0.91406c-0.17188-0.74609-0.83984-1.2578-1.5547-1.1836-0.48047 0.046875-0.89453 0.31641-1.1328 0.74219-0.17969 0.32031-0.21094 0.70703-0.12891 1.0664l0.64062 2.8008c0.1875 0.81641-0.046874 1.6992-0.67578 2.2578-0.73047 0.64453-1.7891 0.74609-2.6445 0.22266-0.53516-0.32812-0.88281-0.88672-1.0195-1.4961l-1.207-5.5078c-0.14844-0.67188-0.73438-1.1875-1.4258-1.1758-0.94531 0.011719-1.5938 0.87891-1.4062 1.7539l0.12109 0.54688c0.14453 0.66406 0.019531 1.375-0.40625 1.9102-0.64062 0.80469-1.6992 1.0625-2.6094 0.68359l-5.5703-2.332c-0.75391-0.31641-1.6289 0-1.9492 0.70312-0.19922 0.44141-0.17188 0.94141 0.09375 1.3672 0.16406 0.26562 0.42188 0.46094 0.71094 0.58203l5.5273 2.3086c0.68359 0.28516 1.2305 0.86328 1.3945 1.5859 0.21484 0.94141-0.1875 1.8828-0.97656 2.3828l-0.49219 0.3125c-0.58203 0.36719-0.86328 1.0977-0.61719 1.7422 0.33594 0.88672 1.3711 1.1992 2.1289 0.71875l4.8711-3.082c0.35938-0.22656 0.77344-0.34375 1.1914-0.34375 0.28906 0 0.58203 0.054687 0.85547 0.17188 0.011718 0.003906 0.023437 0.011718 0.035156 0.015625 0.875 0.36328 1.4453 1.3047 1.3125 2.3359-0.085938 0.67969-0.51172 1.2695-1.0938 1.6289l-2.4648 1.5273c-0.26562 0.16406-0.49219 0.39844-0.60938 0.6875-0.19141 0.46094-0.14062 0.96094 0.125 1.3633 0.42578 0.64453 1.3398 0.81641 2.0352 0.38281l0.78516-0.48828c3.7891-2.3477 8.1758-3.4922 12.59-3.3164 0.36328 0.015626 0.54687-0.42578 0.28125-0.67578-3.2383-3.0156-5.5078-6.9375-6.5039-11.285z"/>
  <path d="m27.535 51.184-2.5391 0.42188c-0.30469 0.050781-0.57422 0.21875-0.75 0.47656-0.17578 0.25391-0.24219 0.5625-0.17969 0.87109 0.11719 0.59766 0.73828 0.99609 1.3789 0.89062l0.80078-0.13281c1.0742-0.17969 2.1523-0.26563 3.2266-0.26563 2.6758 0 5.3242 0.54688 7.7812 1.6055 0.32422 0.14062 0.65234-0.1875 0.51172-0.51172-1.4844-3.4453-1.9609-7.2695-1.3398-11.008l0.13672-0.8125c0.097656-0.58984-0.24609-1.1758-0.78125-1.3359-0.39062-0.11719-0.79688-0.027343-1.1094 0.25391-0.19531 0.17578-0.3125 0.42578-0.35547 0.68359l-0.41406 2.4922c-0.11719 0.70312-0.54297 1.3359-1.1875 1.6367-0.91406 0.42578-1.9805 0.14844-2.5781-0.66797-0.34375-0.47266-0.44922-1.082-0.34766-1.6602l0.85938-4.8633c0.09375-0.54297-0.17969-1.1055-0.69141-1.3047-0.69141-0.26953-1.4219 0.16797-1.543 0.86328l-0.082031 0.46094c-0.12109 0.68359-0.53516 1.3008-1.1602 1.5977-0.81641 0.38672-1.7578 0.21875-2.3828-0.40625l-3.7578-3.7578c-0.46094-0.46094-1.1953-0.49609-1.6367-0.078126-0.22656 0.21484-0.35547 0.50391-0.35938 0.8125-0.003906 0.3125 0.11328 0.60156 0.33203 0.82422l3.75 3.75c0.49219 0.49219 0.75781 1.1875 0.64453 1.8711-0.14844 0.89062-0.83203 1.5664-1.6992 1.7188l-0.48438 0.085937c-0.57812 0.10156-1.0273 0.60547-0.99609 1.1914 0.019531 0.35547 0.19922 0.67188 0.48438 0.875 0.25 0.17578 0.55078 0.24219 0.85156 0.1875l4.9883-0.87891c0.66797-0.12109 1.3555 0.097657 1.8359 0.57813 0.625 0.625 0.79297 1.5703 0.40234 2.3867-0.29297 0.61719-0.91797 1.0312-1.6094 1.1484z"/>
  <path d="m46.566 24.715c0 2.8281-4.2422 2.8281-4.2422 0 0-2.8242 4.2422-2.8242 4.2422 0"/>
  <path d="m57.676 28.949c0 2.8281-4.2422 2.8281-4.2422 0s4.2422-2.8281 4.2422 0"/>
  <path d="m46.566 41.645c0 2.8281-4.2422 2.8281-4.2422 0 0-2.8242 4.2422-2.8242 4.2422 0"/>
  <path d="m80.629 38.258c0.21875-0.21875 0.33984-0.51172 0.33203-0.82422-0.003907-0.30859-0.13281-0.59766-0.35938-0.8125-0.44141-0.41797-1.1797-0.38281-1.6367 0.078125l-3.6992 3.6992c-0.49219 0.49219-1.1836 0.75781-1.8711 0.64453-0.89062-0.14844-1.5664-0.83203-1.7188-1.6992l-0.085937-0.49609c-0.097656-0.54297-0.54688-0.97656-1.0977-0.98828-0.74219-0.011719-1.2734 0.64453-1.1523 1.3359l0.86719 4.9102c0.10156 0.57812 0 1.1875-0.34766 1.6602-0.59766 0.82031-1.6641 1.0938-2.5781 0.66797-0.64453-0.30078-1.0703-0.9375-1.1875-1.6367l-0.41406-2.4961c-0.042969-0.25781-0.16016-0.50391-0.35547-0.67969-0.3125-0.28125-0.71484-0.36719-1.1055-0.25-0.53516 0.16016-0.87891 0.74609-0.78125 1.3359l0.13672 0.8125c0.62109 3.7422 0.14844 7.5625-1.3359 11.008-0.14062 0.32812 0.1875 0.65234 0.51172 0.51172 3.4453-1.4844 7.2656-1.9609 11.008-1.3359l0.80078 0.13281c0.64453 0.10547 1.2617-0.29297 1.3789-0.89063 0.058594-0.30469-0.003906-0.61328-0.17969-0.87109-0.17578-0.25391-0.44141-0.42578-0.75-0.47656l-2.5391-0.42188c-0.69141-0.11328-1.3125-0.53125-1.6172-1.1602-0.39062-0.81641-0.22266-1.7617 0.40234-2.3867 0.48047-0.48047 1.168-0.69922 1.8359-0.57812l4.9883 0.87891c0.69141 0.11719 1.3477-0.41016 1.3359-1.1484-0.007812-0.55078-0.44141-1.0078-0.98437-1.1016l-0.41406-0.074219c-0.68359-0.12109-1.3008-0.53516-1.6016-1.1602-0.39062-0.81641-0.21875-1.7617 0.40234-2.3828z"/>
  <path d="m80.68 63.891-5.5742 2.3281c-0.84375 0.35156-1.8125 0.16016-2.4609-0.51172-0.53125-0.55078-0.71484-1.3555-0.55078-2.1016l0.10547-0.48828c0.14844-0.67188-0.17578-1.3867-0.80469-1.6641-0.86719-0.38281-1.8164 0.13281-2.0078 1.0078l-1.2109 5.5352c-0.15234 0.69922-0.59375 1.3242-1.2422 1.6289-0.80859 0.38281-1.75 0.24609-2.418-0.33984-0.63281-0.55469-0.86719-1.4375-0.67969-2.2578l0.64062-2.8008c0.082032-0.35937 0.050782-0.74219-0.12891-1.0664-0.23828-0.42969-0.64844-0.69531-1.1328-0.74219-0.71875-0.074219-1.3867 0.4375-1.5547 1.1836l-0.21094 0.91406c-0.99609 4.3438-3.2656 8.2695-6.4961 11.281-0.26562 0.25-0.082031 0.69141 0.28125 0.67578 0.29297-0.011718 0.58594-0.015625 0.88281-0.015625 4.1133 0 8.168 1.1406 11.707 3.332l0.78516 0.48438c0.69922 0.43359 1.6094 0.25781 2.0352-0.38281 0.26562-0.40234 0.31641-0.90234 0.125-1.3633-0.11719-0.28906-0.34375-0.51953-0.60938-0.68359l-2.4453-1.5156c-0.71484-0.44141-1.1797-1.2305-1.1289-2.0703 0.050781-0.89062 0.61719-1.6523 1.457-1.9609 0.67188-0.24609 1.4258-0.125 2.0352 0.25781l4.7539 3.0078c0.58203 0.36719 1.3594 0.30859 1.8359-0.1875 0.65625-0.68359 0.49609-1.7539-0.25781-2.2305l-0.45312-0.28516c-0.64844-0.41016-1.0938-1.1055-1.1094-1.8711-0.019531-0.92969 0.52344-1.7578 1.3672-2.1094l5.6094-2.3438c0.28906-0.12109 0.54688-0.31641 0.71094-0.58203 0.26172-0.42578 0.29297-0.92578 0.09375-1.3672-0.31641-0.69531-1.1914-1.0078-1.9492-0.69531z"/>
  <path d="m50 21.5c-0.17188 0-0.33984-0.015625-0.50391-0.046875-0.24609-0.042969-0.47656 0.13281-0.47656 0.38281v61.512c0 0.51172 0.37109 0.98047 0.87891 1.0312 0.58594 0.058594 1.082-0.40234 1.082-0.97656v-61.562c0-0.25-0.23047-0.42578-0.47656-0.38281-0.16406 0.027344-0.33203 0.042969-0.50391 0.042969z"/>
  <path d="m50 15.609c-1.168 0-2.1211 0.94922-2.1211 2.1211 0 0.88672 0.55078 1.6484 1.3242 1.9609 0.24609 0.10156 0.51172 0.15625 0.79297 0.15625s0.54688-0.058594 0.79297-0.15625c0.77734-0.31641 1.3281-1.0742 1.3281-1.9648 0.003906-1.1641-0.94922-2.1172-2.1172-2.1172z"/>
 </g>
</svg>
