<?xml version="1.0" encoding="UTF-8"?>
<svg width="100pt" height="100pt" version="1.1" viewBox="0 0 100 100" xmlns="http://www.w3.org/2000/svg">
 <g>
  <path d="m33.496 55.16c2.6836 6.8945 5.8906 13.629 9.5312 20.016 0.16797 0.29688 0.54688 0.39844 0.84375 0.23047s0.39844-0.54688 0.23047-0.84375c-3.6133-6.332-6.793-13.012-9.4531-19.852-3.7461-9.6328-6.4883-19.629-8.1562-29.746 5.6094 8.6055 10.34 17.82 14.082 27.445 3.4219 8.7969 5.9062 18.348 7.8242 30.059 0.050781 0.30078 0.3125 0.51953 0.60937 0.51953 0.035157 0 0.066407-0.003906 0.10156-0.007812 0.33594-0.054688 0.5625-0.37109 0.51172-0.70703-0.90625-5.5508-1.9258-10.527-3.1094-15.211-1.3633-5.3945-2.9297-10.332-4.7812-15.098-4.1172-10.582-9.4219-20.684-15.762-30.02-0.16016-0.23828-0.46484-0.33203-0.73438-0.22656s-0.42969 0.37891-0.38672 0.66406c1.6133 11.152 4.5234 22.18 8.6484 32.777z"/>
  <path d="m82.992 84.441c-3.4531-4.2734-7.1875-8.4023-11.109-12.277l-0.003906-0.003906c-0.007812-0.007812-0.015625-0.011718-0.019531-0.019531 0 0-0.003906 0-0.003906-0.003906-0.007813-0.007813-0.015625-0.011719-0.023438-0.019531-0.007812-0.007813-0.015625-0.011719-0.023437-0.019532-0.007813-0.007812-0.015625-0.011718-0.023438-0.015625-0.007812-0.007812-0.015625-0.011719-0.023437-0.015625 0 0-0.003907 0-0.003907-0.003906-0.007812-0.003906-0.015624-0.007812-0.023437-0.011719-0.003906 0-0.003906-0.003906-0.003906-0.003906-0.007813-0.003906-0.015625-0.007813-0.023438-0.011719-0.003906 0-0.003906-0.003906-0.007812-0.003906-0.007813-0.003906-0.015625-0.007812-0.019531-0.007812-0.003907-0.003907-0.007813-0.003907-0.007813-0.003907-0.007813-0.003906-0.011719-0.003906-0.019531-0.007812-0.003906-0.003907-0.007813-0.003907-0.011719-0.003907-0.007813-0.003906-0.011719-0.003906-0.015625-0.007812s-0.007812-0.003906-0.011719-0.003906c-0.007812-0.003906-0.011719-0.003906-0.015625-0.003906-0.003906-0.003907-0.011718-0.003907-0.015625-0.003907-0.003906-0.003906-0.011719-0.003906-0.015625-0.003906-0.003906-0.003906-0.011718-0.003906-0.015625-0.003906-0.003906 0-0.011719-0.003907-0.015625-0.003907-0.007812 0-0.011718-0.003906-0.015625-0.003906-0.007812 0-0.011719-0.003906-0.015625-0.003906s-0.011718-0.003906-0.015625-0.003906c-0.007812 0-0.011719 0-0.015625-0.003906h-0.011718-0.019532-0.007812-10.227-0.011719-0.019531-0.015625c-0.007812 0-0.011718 0-0.015625 0.003906-0.007812 0-0.011719 0.003906-0.015625 0.003906s-0.007812 0.003906-0.011718 0.003906c-0.007813 0-0.011719 0.003906-0.019532 0.003906-0.003906 0-0.007812 0.003907-0.011718 0.003907-0.007813 0.003906-0.011719 0.003906-0.019532 0.003906-0.003906 0-0.007812 0.003906-0.011718 0.003906-0.007813 0.003907-0.011719 0.003907-0.019532 0.003907-0.003906 0.003906-0.007812 0.003906-0.011718 0.003906-0.007813 0.003906-0.011719 0.003906-0.019532 0.007812-0.003906 0.003906-0.007812 0.003906-0.011718 0.003906-0.007813 0.003907-0.011719 0.003907-0.015626 0.007813-0.003906 0.003906-0.007812 0.003906-0.015624 0.007813-0.003907 0.003906-0.011719 0.003906-0.015626 0.007812-0.003906 0.003906-0.011718 0.003906-0.015624 0.007812-0.003907 0.003907-0.007813 0.003907-0.011719 0.007813-0.007813 0.003906-0.011719 0.007813-0.015625 0.007813-0.003906 0.003906-0.007813 0.003906-0.011719 0.007812-0.007813 0.003906-0.011719 0.007812-0.015625 0.007812-0.003906 0.003907-0.007812 0.003907-0.011719 0.007813-0.007812 0.003906-0.011719 0.007813-0.015625 0.011719s-0.007812 0.003906-0.011718 0.007812c-0.003907 0.003906-0.011719 0.007813-0.015626 0.011719-0.003906 0.003906-0.007812 0.007813-0.011718 0.007813-0.003906 0.003906-0.007813 0.007812-0.011719 0.011718l-0.011719 0.011719c-0.003906 0.003906-0.007812 0.007813-0.011718 0.011719-0.003907 0.003906-0.011719 0.007812-0.015626 0.011718-0.003906 0.003907-0.003906 0.003907-0.007812 0.007813-1.7188 1.6992-3.4219 3.4609-5.0547 5.2383-0.66016 0.71875-1.3242 1.457-1.9688 2.1875-0.22656 0.25781-0.20312 0.64453 0.054688 0.87109 0.11719 0.10547 0.26172 0.15234 0.40625 0.15234 0.17188 0 0.33984-0.070313 0.46094-0.20703 0.64062-0.72656 1.2969-1.457 1.9531-2.1719 1.5625-1.7031 3.1875-3.3906 4.8359-5.0195h7.9727c-1.1133 0.74609-2.2656 1.4922-3.4336 2.2266-0.003906 0.003906-0.007812 0.003906-0.011718 0.007812-5.6914 3.5938-10.883 6.4805-15.859 8.8242-5.5742-2.6211-11.152-5.6719-16.152-8.8242-0.003906-0.003906-0.007813-0.003906-0.011719-0.007812-1.1719-0.73438-2.3203-1.4805-3.4336-2.2266h7.9727c2.3359 2.3125 4.6172 4.7266 6.7852 7.1875 0.12109 0.13672 0.29297 0.20703 0.46094 0.20703 0.14453 0 0.28906-0.050782 0.40625-0.15234 0.25781-0.22656 0.28125-0.61719 0.054688-0.87109-2.2422-2.543-4.6094-5.043-7.0234-7.4297-0.003906-0.003906-0.007812-0.003906-0.007812-0.007812-0.003906-0.003906-0.007812-0.007812-0.015625-0.011719-0.003906-0.003906-0.007813-0.007812-0.011719-0.011719l-0.011718-0.011718c-0.003907-0.003906-0.011719-0.007813-0.015626-0.011719-0.003906-0.003906-0.007812-0.007813-0.011718-0.007813-0.007813-0.003906-0.011719-0.007812-0.015625-0.011718-0.003907-0.003906-0.007813-0.003906-0.011719-0.007813-0.007812-0.003906-0.011719-0.007812-0.015625-0.011719-0.003906-0.003906-0.007813-0.003906-0.007813-0.007812-0.007812-0.003906-0.011718-0.007812-0.015624-0.011719-0.003907-0.003906-0.007813-0.003906-0.011719-0.007812-0.007813-0.003907-0.011719-0.007813-0.015625-0.007813-0.003906-0.003906-0.007813-0.003906-0.011719-0.007812-0.007813-0.003906-0.011719-0.003906-0.015625-0.007813-0.003906-0.003906-0.007812-0.003906-0.011719-0.007812-0.003906-0.003907-0.011719-0.003907-0.015625-0.007813s-0.011718-0.003906-0.015625-0.007812c-0.003906-0.003906-0.011719-0.003906-0.015625-0.003906-0.007812-0.003907-0.011718-0.003907-0.015625-0.003907-0.003906-0.003906-0.007812-0.003906-0.011719-0.003906-0.007812-0.003906-0.011718-0.003906-0.015624-0.003906-0.003907-0.003907-0.007813-0.003907-0.011719-0.003907-0.007813-0.003906-0.011719-0.003906-0.015625-0.003906s-0.007813-0.003906-0.015625-0.003906c-0.007813 0-0.011719-0.003906-0.015625-0.003906s-0.011719-0.003906-0.015625-0.003906c-0.007813 0-0.011719-0.003907-0.015625-0.003907-0.007813 0-0.011719 0-0.015625-0.003906h-0.015625-0.019532-0.011718-10.227-0.007812-0.019531-0.015626c-0.007812 0-0.011718 0-0.015624 0.003906-0.007813 0-0.011719 0.003907-0.015626 0.003907-0.003906 0-0.011718 0.003906-0.015624 0.003906-0.007813 0-0.011719 0.003906-0.015626 0.003906-0.003906 0-0.007812 0.003906-0.015624 0.003906-0.007813 0.003906-0.011719 0.003906-0.015626 0.003906-0.003906 0-0.007812 0.003907-0.015624 0.003907-0.007813 0.003906-0.011719 0.003906-0.015626 0.003906-0.003906 0.003906-0.011718 0.003906-0.015624 0.003906-0.003907 0.003907-0.007813 0.003907-0.015626 0.003907-0.007812 0.003906-0.011718 0.003906-0.015624 0.007812-0.003907 0.003906-0.007813 0.003906-0.011719 0.003906-0.007813 0.003906-0.011719 0.003906-0.019531 0.007813-0.003907 0.003906-0.007813 0.003906-0.011719 0.003906-0.007813 0.003906-0.011719 0.007813-0.019531 0.007813-0.003907 0.003906-0.003907 0.003906-0.007813 0.003906-0.007813 0.003906-0.015625 0.007812-0.019531 0.011718-0.003906 0-0.003906 0.003907-0.003906 0.003907-0.007813 0.003906-0.015626 0.007812-0.023438 0.011719-0.003906 0-0.003906 0.003906-0.003906 0.003906-0.007813 0.003906-0.015625 0.011718-0.023438 0.015625 0 0-0.003906 0-0.003906 0.003906-0.007812 0.007813-0.015625 0.011719-0.023438 0.015625 0 0-0.003906 0-0.003906 0.003906-0.007812 0.007813-0.015625 0.011719-0.023437 0.015625l-0.003907 0.003907c-0.007812 0.007812-0.015624 0.011718-0.019531 0.019531-0.003906 0-0.003906 0.003906-0.003906 0.003906l-0.023437 0.023437c-3.9219 3.8711-7.6562 8.0039-11.109 12.277-0.17969 0.22266-0.18359 0.54297-0.007812 0.76953 0.12109 0.15234 0.30078 0.23437 0.48438 0.23437 0.089844 0 0.17969-0.019531 0.26172-0.058593 5.457-2.5625 10.809-5.4844 15.91-8.6836 5.0391 3.1562 10.641 6.2031 16.223 8.8164 0.082032 0.039063 0.17188 0.058594 0.26172 0.058594s0.17969-0.019531 0.26172-0.058594c5.0078-2.3438 10.223-5.2305 15.934-8.8164 5.1016 3.1992 10.453 6.1211 15.91 8.6836 0.085937 0.039062 0.17578 0.058593 0.26172 0.058593 0.18359 0 0.36719-0.085937 0.48438-0.23437 0.27734-0.22656 0.27734-0.54688 0.09375-0.76953zm-54.371-11.039c1.2461 0.85938 2.5508 1.7188 3.8828 2.5703-4.1172 2.5586-8.3945 4.9336-12.758 7.0859 2.8047-3.3438 5.7812-6.5781 8.875-9.6562zm38.875 2.5703c1.332-0.85156 2.6328-1.7109 3.8828-2.5703 3.0938 3.0742 6.0664 6.3125 8.875 9.6523-4.3633-2.1484-8.6406-4.5234-12.758-7.082z"/>
  <path d="m50.312 82.27c-0.054688 0.33594 0.17578 0.65234 0.51172 0.70703 0.035156 0.007813 0.066406 0.007813 0.10156 0.007813 0.29688 0 0.55859-0.21484 0.60938-0.51953 1.9141-11.711 4.4023-21.266 7.8242-30.059 3.7422-9.6211 8.4727-18.84 14.082-27.445-1.6719 10.121-4.4102 20.113-8.1562 29.746-2.6602 6.8398-5.8438 13.52-9.4531 19.852-0.16797 0.29688-0.066406 0.67188 0.23047 0.84375 0.29688 0.16797 0.67188 0.066406 0.84375-0.23047 3.6406-6.3828 6.8477-13.117 9.5312-20.016 4.1211-10.598 7.0352-21.625 8.6562-32.785 0.042969-0.28516-0.12109-0.55859-0.38672-0.66406-0.26953-0.10547-0.57031-0.011719-0.73438 0.22656-6.3438 9.3398-11.645 19.438-15.762 30.02-1.8555 4.7656-3.418 9.7031-4.7812 15.098-1.1914 4.6914-2.207 9.668-3.1172 15.219z"/>
  <path d="m49.309 48.266v26.602c0 0.33984 0.27734 0.61719 0.61719 0.61719 0.34375 0 0.61719-0.27734 0.61719-0.61719v-26.555c1.3633-0.09375 2.6328-0.66797 3.6055-1.6445 1.0664-1.0664 1.6562-2.4883 1.6562-4.0039l0.003906-22.586c0-1.5117-0.58984-2.9336-1.6562-4.0039-1.0664-1.0664-2.4883-1.6562-4.0039-1.6562-1.5117 0-2.9336 0.58984-4.0039 1.6562-1.0703 1.0703-1.6562 2.4883-1.6562 4.0039v22.59c0 1.5117 0.58984 2.9336 1.6562 4.0039 0.87109 0.86719 1.9688 1.418 3.1641 1.5938zm-3.5859-28.188c0-2.4414 1.9844-4.4258 4.4258-4.4258 2.4414 0 4.4258 1.9844 4.4258 4.4258v22.59c0 2.4414-1.9844 4.4258-4.4258 4.4258-2.4414 0-4.4258-1.9844-4.4258-4.4258z"/>
  <path d="m47.961 22.832c0.12109 0.12109 0.27734 0.17969 0.4375 0.17969 0.15625 0 0.31641-0.058594 0.4375-0.17969l1.4727-1.4727c0.23828-0.23828 0.23828-0.63281 0-0.87109-0.23828-0.23828-0.63281-0.23828-0.87109 0l-1.0391 1.0391-1.0391-1.0391c-0.24219-0.23828-0.63281-0.23828-0.87109 0-0.23828 0.24219-0.23828 0.63281 0 0.87109z"/>
  <path d="m49.984 25.344c-0.23828 0.24219-0.23828 0.63281 0 0.87109l1.4766 1.4727c0.12109 0.12109 0.27734 0.17969 0.4375 0.17969 0.15625 0 0.31641-0.058594 0.4375-0.17969l1.4727-1.4727c0.23828-0.23828 0.23828-0.63281 0-0.87109-0.23828-0.23828-0.63281-0.23828-0.87109 0l-1.0391 1.0391-1.0391-1.0391c-0.24219-0.24219-0.63281-0.24219-0.875 0z"/>
  <path d="m47.961 32.547c0.12109 0.12109 0.27734 0.17969 0.4375 0.17969 0.15625 0 0.31641-0.058593 0.4375-0.17969l1.4727-1.4727c0.23828-0.23828 0.23828-0.63281 0-0.87109-0.23828-0.23828-0.63281-0.23828-0.87109 0l-1.0391 1.0391-1.0391-1.0391c-0.24219-0.23828-0.63281-0.23828-0.87109 0-0.23828 0.24219-0.23828 0.63281 0 0.87109z"/>
  <path d="m52.938 35.059-1.0391 1.0391-1.0391-1.0391c-0.24219-0.23828-0.63281-0.23828-0.87109 0-0.23828 0.24219-0.23828 0.63281 0 0.87109l1.4766 1.4727c0.12109 0.12109 0.27734 0.17969 0.4375 0.17969 0.15625 0 0.31641-0.058593 0.4375-0.17969l1.4727-1.4727c0.23828-0.23828 0.23828-0.63281 0-0.87109-0.24609-0.24219-0.63281-0.24219-0.875 0z"/>
  <path d="m48.395 42.445c0.15625 0 0.31641-0.058593 0.4375-0.17969l1.4727-1.4727c0.23828-0.23828 0.23828-0.63281 0-0.87109-0.23828-0.23828-0.63281-0.23828-0.87109 0l-1.0391 1.0391-1.0391-1.0391c-0.24219-0.23828-0.63281-0.23828-0.87109 0-0.23828 0.24219-0.23828 0.63281 0 0.87109l1.4766 1.4727c0.12109 0.11719 0.27734 0.17969 0.43359 0.17969z"/>
 </g>
</svg>
