<?xml version="1.0" encoding="UTF-8"?>
<svg width="100pt" height="100pt" version="1.1" viewBox="0 0 100 100" xmlns="http://www.w3.org/2000/svg">
 <path d="m83.582 34.57c-1.293-1.293-3.082-1.8867-4.9062-1.625-2.582 0.36719-5.1758 1.793-6.8945 2.9258-1.6875 1.1094-3.3516 2.4805-4.9414 4.082-1.4023 1.4062-2.7969 3.0391-4.1445 4.8516-3.5938 4.8164-5.8945 10.508-6.668 16.461l-4.5312 4.5312c-0.27734-0.17578-0.58203-0.30078-0.91016-0.36719v-6.6367c4.1523-5.3789 6.8672-11.773 7.8477-18.504 0.36719-2.5234 0.55859-4.9414 0.5625-7.1875 0.007812-2.5469-0.22656-4.9688-0.6875-7.2031-0.46875-2.2734-1.3984-5.4727-3.1602-7.8203-1.2383-1.6484-3.1211-2.5938-5.1641-2.5938s-3.9258 0.94531-5.1602 2.5938c-1.7656 2.3555-2.6914 5.5547-3.1602 7.8203-0.46094 2.2305-0.69141 4.6562-0.6875 7.2031 0.003907 2.2422 0.19531 4.6602 0.5625 7.1875 0.98047 6.7383 3.6953 13.137 7.8516 18.516v6.6406c-0.32031 0.074219-0.62109 0.20703-0.89062 0.37891l-4.5195-4.5234c-0.76953-5.9688-3.0742-11.672-6.6758-16.5-1.3516-1.8086-2.7422-3.4414-4.1445-4.8516-1.5938-1.5977-3.2539-2.9727-4.9414-4.082-1.7188-1.1289-4.3125-2.5547-6.8945-2.9258-1.8242-0.26172-3.6133 0.33203-4.9062 1.625-1.293 1.293-1.8867 3.082-1.625 4.9062 0.37109 2.5898 1.793 5.1758 2.9258 6.8906 1.1094 1.6875 2.4805 3.3516 4.082 4.9414 1.4062 1.4023 3.0391 2.7969 4.8516 4.1445 4.8242 3.5977 10.516 5.8984 16.465 6.6719l4.5391 4.5391c-0.16797 0.26562-0.29297 0.5625-0.35938 0.87891l-3.1758 0.007813c-3.1445-2.4102-6.8789-3.9844-10.809-4.5586-3.1914-0.46484-5.957-0.44141-8.4531 0.074219-1.3438 0.27734-3.2422 0.82812-4.6484 1.8828-1.0234 0.76563-1.6094 1.9336-1.6094 3.2031 0 1.2695 0.58594 2.4375 1.6094 3.2031 1.4023 1.0508 3.3008 1.6055 4.6484 1.8828 1.3125 0.26953 2.6992 0.40625 4.1797 0.40625 1.3398 0 2.7578-0.10938 4.2734-0.33203 3.9297-0.57422 7.6641-2.1484 10.812-4.5625h3.1719c0.070313 0.31641 0.19531 0.61719 0.36328 0.88281l-2.375 2.3789c-2.4531 0.32422-4.793 1.2773-6.7812 2.7578-1.6094 1.1992-2.8164 2.4297-3.6914 3.7578-0.47656 0.72266-1.0781 1.8164-1.2344 2.9297-0.12109 0.84766 0.15234 1.6797 0.75781 2.2852 0.51172 0.51172 1.1836 0.78516 1.8906 0.78516 0.12891 0 0.26172-0.011719 0.39063-0.027344 1.1094-0.15625 2.2031-0.76172 2.9297-1.2344 1.3281-0.875 2.5586-2.082 3.7617-3.6914 1.4492-1.9414 2.3906-4.2227 2.7344-6.6172l2.4648-2.4648c0.26953 0.17578 0.56641 0.30469 0.89063 0.37891l-0.007813 13.055c0 0.32812 0.26953 0.59766 0.59766 0.59766s0.59766-0.26953 0.59766-0.59766v-13.043c0.32812-0.066406 0.63672-0.19531 0.91016-0.36719l2.332 2.332c0.33203 2.4336 1.2773 4.7539 2.7461 6.7227 1.1992 1.6094 2.4297 2.8164 3.7617 3.6914 0.72266 0.47656 1.8203 1.0781 2.9297 1.2344 0.13281 0.019531 0.26172 0.027343 0.39062 0.027343 0.70703 0 1.3828-0.27734 1.8906-0.78516 0.60156-0.60156 0.87891-1.4336 0.75781-2.2852-0.15625-1.1094-0.76172-2.207-1.2344-2.9297-0.875-1.3281-2.082-2.5586-3.6914-3.7617-1.9609-1.4609-4.2656-2.4062-6.6797-2.7422l-2.3516-2.3516c0.18359-0.27734 0.3125-0.58984 0.38672-0.92187h3.2656c3.1484 2.4141 6.8828 3.9883 10.812 4.5625 1.5156 0.21875 2.9336 0.33203 4.2734 0.33203 1.4805 0 2.8672-0.13672 4.1797-0.40625 1.3477-0.27734 3.2422-0.83203 4.6484-1.8828 1.0234-0.76562 1.6094-1.9336 1.6094-3.2031s-0.58594-2.4375-1.6094-3.2031c-1.4062-1.0547-3.3047-1.6055-4.6484-1.8828-2.4961-0.51562-5.2617-0.53906-8.4531-0.074219-3.9336 0.57422-7.6641 2.1484-10.809 4.5586l-3.2656 0.007812c-0.074219-0.33203-0.20703-0.64062-0.38672-0.91797l4.4961-4.4961c5.9688-0.76562 11.672-3.0703 16.508-6.6797 1.8086-1.3516 3.4414-2.7422 4.8516-4.1445 1.5977-1.5938 2.9727-3.2539 4.082-4.9414 1.1289-1.7148 2.5547-4.3047 2.9258-6.8945 0.25391-1.8242-0.33984-3.6094-1.6328-4.9062zm-33.562 35.168c-0.011719 0-0.023437-0.003906-0.035156-0.003906h-0.011719c-0.42188-0.011719-0.79688-0.1875-1.0742-0.46094-0.007813-0.007813-0.015626-0.015626-0.019532-0.023438-0.27734-0.28516-0.44531-0.67188-0.44922-1.0977v-0.011719-0.007813c0.007812-0.85547 0.69141-1.5508 1.5391-1.5742h0.019531c0.015625 0 0.027344 0 0.039063-0.003906 0.87109 0.003906 1.5781 0.71484 1.5781 1.5898-0.003907 0.87891-0.71094 1.5898-1.5859 1.5938zm-7.1875-43.602c0.44141-2.1484 1.3125-5.1719 2.9453-7.3477 1.0078-1.3438 2.5391-2.1133 4.2031-2.1133 1.6641 0 3.1953 0.76953 4.2031 2.1133 1.6289 2.1719 2.5039 5.1953 2.9492 7.3477 0.84766 4.1055 0.88281 8.6797 0.11328 13.973-0.92578 6.3398-3.4336 12.371-7.2656 17.492-3.8281-5.1172-6.3359-11.148-7.2617-17.492-0.77344-5.2969-0.73438-9.8672 0.11328-13.973zm-15.469 28.359c-3.7852-2.8203-6.6133-5.6953-8.6484-8.7852-1.0625-1.6133-2.4023-4.0352-2.7383-6.4023-0.20703-1.4492 0.26172-2.8672 1.2852-3.8906 0.86719-0.86719 2.0117-1.3359 3.2188-1.3359 0.22266 0 0.44531 0.015625 0.67188 0.046875 2.3633 0.33984 4.7891 1.6758 6.4062 2.7383 3.0898 2.0312 5.9648 4.8594 8.7852 8.6445 3.3594 4.5078 5.5508 9.7969 6.3672 15.352-5.5469-0.80859-10.836-3.0039-15.348-6.3672zm5.7734 17.629c-3.0508 0.44531-5.6797 0.42578-8.0391-0.0625-1.2266-0.25391-2.9453-0.75-4.1719-1.668-0.71875-0.53906-1.1289-1.3555-1.1289-2.2422 0-0.88672 0.41016-1.707 1.1289-2.2422 1.2266-0.92188 2.9453-1.4141 4.1719-1.668 1.2305-0.25391 2.5391-0.38281 3.9375-0.38281 1.2812 0 2.6406 0.10547 4.1016 0.31641 3.5352 0.51562 6.9023 1.8828 9.7852 3.9727-2.8867 2.0938-6.25 3.4648-9.7852 3.9766zm9.2031 6.7266c-1.1133 1.4922-2.2461 2.6094-3.457 3.4062-0.62109 0.41016-1.5508 0.92578-2.4414 1.0508-0.47266 0.066406-0.93359-0.085938-1.2695-0.41797-0.33594-0.33594-0.48438-0.79688-0.41797-1.2695 0.12891-0.89062 0.64062-1.8164 1.0508-2.4414 0.79687-1.2109 1.9102-2.3438 3.4062-3.457 1.6406-1.2227 3.5469-2.0547 5.5508-2.4258-0.37109 2.0078-1.1992 3.9141-2.4219 5.5547zm18.32-3.1289c1.4922 1.1133 2.6094 2.2461 3.4062 3.457 0.41016 0.62109 0.92578 1.5469 1.0508 2.4414 0.066406 0.47266-0.085938 0.93359-0.41797 1.2695-0.33594 0.33594-0.79688 0.48438-1.2695 0.41797-0.88672-0.125-1.8164-0.64062-2.4414-1.0508-1.2109-0.79687-2.3438-1.9102-3.457-3.4062-1.2227-1.6406-2.0508-3.543-2.4219-5.5508 2.0039 0.37109 3.9102 1.1992 5.5508 2.4219zm6.3281-11.547c3.0508-0.44531 5.6797-0.42578 8.0391 0.0625 1.2227 0.25391 2.9414 0.74609 4.1719 1.668 0.71875 0.53906 1.1289 1.3555 1.1289 2.2422 0 0.88672-0.41016 1.707-1.1289 2.2422-1.2266 0.92188-2.9453 1.4141-4.1719 1.668-2.3594 0.48828-4.9883 0.50781-8.0391 0.0625-3.5352-0.51562-6.8984-1.8867-9.7852-3.9766 2.8828-2.082 6.25-3.4531 9.7852-3.9688zm17.035-24.867c-0.33984 2.3672-1.6758 4.7891-2.7383 6.4023-2.0312 3.0898-4.8594 5.9648-8.6445 8.7852-4.5117 3.3633-9.8008 5.5547-15.348 6.3672 0.8125-5.5508 3.0078-10.844 6.3672-15.352 2.8203-3.7852 5.6953-6.6133 8.7852-8.6445 1.6172-1.0625 4.043-2.4023 6.4062-2.7383 0.22266-0.03125 0.44922-0.046875 0.67188-0.046875 1.207 0 2.3555 0.46875 3.2188 1.3359 1.0195 1.0273 1.4844 2.4453 1.2812 3.8906z"/>
</svg>
