<?xml version="1.0" encoding="UTF-8"?>
<svg width="100pt" height="100pt" version="1.1" viewBox="0 0 100 100" xmlns="http://www.w3.org/2000/svg">
 <g>
  <path d="m58.055 29.422c-2.9492-1.793-4.8086-4.8242-4.9688-8.1094l-0.17969-3.6445c-0.015625-0.3125-0.28125-0.55469-0.59766-0.54297-0.3125 0.015625-0.55859 0.28125-0.54297 0.59766l0.17969 3.6445c0.089844 1.8242 0.65234 3.625 1.6289 5.1992 0.95312 1.5391 2.2969 2.8672 3.8867 3.8281 2.6719 1.6211 4.2656 4.457 4.2656 7.5742v28.793c0 3.9492-2.6484 7.4531-6.4453 8.5273-0.87891 0.24609-1.6523 0.75391-2.2344 1.457s-0.93359 1.5586-1.0117 2.4688c-0.125 1.4375-1.3086 2.5234-2.75 2.5234s-2.625-1.0859-2.75-2.5234c-0.078125-0.91016-0.42969-1.7656-1.0117-2.4688-0.58203-0.70312-1.3555-1.207-2.2344-1.457-3.7969-1.0703-6.4453-4.5781-6.4453-8.5273v-28.789c0-3.1211 1.5938-5.9531 4.2656-7.5742 1.0469-0.63672 1.9844-1.4258 2.7773-2.332 0.03125-0.03125 0.058593-0.0625 0.082031-0.097656 0.37891-0.44141 0.72266-0.91016 1.0273-1.4023 0.97656-1.5742 1.5391-3.375 1.6289-5.1992l0.17969-3.6445c0.015624-0.3125-0.22656-0.58203-0.54297-0.59766-0.3125-0.015625-0.58203 0.22656-0.59766 0.54297l-0.17969 3.6445c-0.097656 1.9688-0.80078 3.8477-1.9844 5.4219-1.2734-1.4883-2.9766-2.582-4.8672-3.1172-0.65234-0.18359-1.2305-0.55859-1.6641-1.0859s-0.69531-1.1641-0.75391-1.8477c-0.089844-0.97266-0.53125-1.8711-1.25-2.5352-0.71875-0.66406-1.6562-1.0273-2.6367-1.0273s-1.918 0.36719-2.6367 1.0273c-0.71875 0.66016-1.1602 1.5625-1.25 2.5352-0.12109 1.3789-1.0938 2.5547-2.4219 2.9297-1.0391 0.29297-2.0156 0.75391-2.9062 1.3633-0.87891 0.60156-1.6523 1.3359-2.3047 2.1797-0.65625 0.85547-1.1641 1.8008-1.5195 2.8164-0.36328 1.0469-0.54687 2.1484-0.54687 3.2656v28.793c0 1.7461 0.45703 3.4688 1.3242 4.9766 0.83984 1.4609 2.0469 2.6992 3.4883 3.5742 2.9531 1.793 4.8086 4.8242 4.9648 8.1133l0.17969 3.6484c0.015625 0.30469 0.26562 0.54297 0.57031 0.54297h0.027344c0.3125-0.015625 0.55469-0.28125 0.54297-0.59766l-0.17969-3.6445c-0.089844-1.8242-0.64844-3.6211-1.625-5.1992-0.95312-1.5391-2.2969-2.8672-3.8867-3.832-2.6719-1.6211-4.2656-4.457-4.2656-7.5742v-28.805c0-3.9453 2.6523-7.4531 6.4453-8.5234 0.87891-0.24609 1.6523-0.75391 2.2344-1.457s0.93359-1.5586 1.0117-2.4688c0.0625-0.69141 0.37891-1.3281 0.88672-1.7969 0.50781-0.46875 1.1719-0.72656 1.8633-0.72656 0.69141 0 1.3555 0.25781 1.8633 0.72656 0.51172 0.46875 0.82422 1.1094 0.88672 1.793 0.078125 0.91016 0.42969 1.7656 1.0117 2.4688 0.58594 0.70703 1.3555 1.2109 2.2344 1.457 1.7305 0.48828 3.2891 1.5156 4.4297 2.9023-0.64844 0.6875-1.3984 1.2969-2.2344 1.8047-1.4414 0.875-2.6484 2.1133-3.4883 3.5742-0.86719 1.5078-1.3242 3.2266-1.3242 4.9766v28.793c0 1.1211 0.18359 2.2188 0.54688 3.2695 0.28125 0.8125 0.66406 1.5859 1.1445 2.3008-0.66797 0.83594-1.207 1.75-1.6094 2.7266-0.46875 1.1445-0.73828 2.3477-0.79688 3.5742l-0.17969 3.6484c-0.015625 0.3125 0.22656 0.58203 0.54297 0.59766h0.027344c0.30078 0 0.55469-0.23828 0.57031-0.54297l0.17969-3.6484c0.09375-1.9648 0.77734-3.8242 1.9805-5.418 0.57422 0.66797 1.2305 1.2578 1.9609 1.7578 0.89453 0.60937 1.8711 1.0664 2.9102 1.3594 1.3281 0.375 2.3008 1.5508 2.4219 2.9297 0.085937 0.97656 0.52734 1.875 1.25 2.5391 0.72266 0.66016 1.6562 1.0273 2.6367 1.0273 0.97656 0 1.9141-0.36328 2.6367-1.0273 0.72266-0.66016 1.1641-1.5625 1.25-2.5391 0.12109-1.375 1.0938-2.5508 2.4219-2.9297 1.0391-0.29297 2.0156-0.75 2.9102-1.3594 0.87891-0.60156 1.6523-1.3359 2.3047-2.1797 0.65625-0.85547 1.1641-1.8008 1.5195-2.8164 0.36328-1.0508 0.54688-2.1484 0.54688-3.2695l-0.003906-28.785c0-1.7461-0.45703-3.4688-1.3242-4.9766-0.84766-1.4648-2.0547-2.6992-3.4961-3.5742z"/>
  <path d="m45.703 28.773c-0.26562 0.17187-0.33984 0.52344-0.17188 0.78906 0.87109 1.3438 1.3438 2.8984 1.3672 4.4922l0.65625 37.867c0.007812 0.45312 0.19141 0.87891 0.51953 1.1992 0.32422 0.32031 0.75781 0.49609 1.2109 0.49609 0.46094 0 0.89062-0.17578 1.2109-0.49609 0.32031-0.31641 0.50391-0.73828 0.51562-1.1953v-0.003906l0.65625-37.867c0.019531-1.1055 0.24609-2.1836 0.67969-3.1992 0.19531-0.45703 0.42578-0.89062 0.6875-1.2891 0.17188-0.26562 0.097656-0.61719-0.16406-0.78906-0.26562-0.17188-0.61719-0.097656-0.78906 0.16406-0.29688 0.45703-0.5625 0.95312-0.78125 1.4688-0.49219 1.1523-0.75 2.375-0.77344 3.625l-0.65625 37.863c-0.003906 0.15625-0.066406 0.30078-0.17578 0.40625l-0.003906 0.003906c-0.10547 0.10547-0.25391 0.16406-0.40625 0.16406-0.31641 0-0.58203-0.25781-0.58984-0.57422l-0.65625-37.867c-0.027343-1.8086-0.5625-3.5703-1.5508-5.0938-0.16797-0.25781-0.51953-0.33594-0.78516-0.16406z"/>
  <path d="m57.199 37.031c-0.46094-0.45312-1.0703-0.70312-1.7148-0.70312h-0.015625c-0.65234 0.003906-1.2656 0.26172-1.7227 0.72656-0.45703 0.46484-0.70703 1.0781-0.70312 1.7305 0.003906 0.65234 0.26172 1.2656 0.72656 1.7227 0.042969 0.042969 0.089844 0.074219 0.13672 0.10156 0.027344 0.050781 0.058594 0.097656 0.10156 0.13672l2.5352 2.5039c0.47656 0.46875 1.0977 0.70312 1.7148 0.70312 0.62891 0 1.2617-0.24219 1.7383-0.72656 0.94531-0.95703 0.9375-2.5078-0.023438-3.4531zm1.9844 5.3945c-0.50391 0.51172-1.3281 0.51562-1.8438 0.011719l-2.5352-2.5039c-0.042969-0.042969-0.089844-0.074219-0.13672-0.10156-0.027344-0.050781-0.058594-0.097656-0.10156-0.13672-0.51172-0.50391-0.51562-1.3281-0.011718-1.8438 0.24219-0.24609 0.57031-0.38672 0.91797-0.38672h0.007813c0.34375 0 0.67188 0.13281 0.91406 0.375l2.7734 2.7383c0.51562 0.50781 0.51953 1.332 0.015625 1.8477z"/>
  <path d="m57.199 46.023c-0.46094-0.45313-1.0703-0.70313-1.7148-0.70313h-0.015625c-0.65234 0.003907-1.2656 0.26172-1.7227 0.72656-0.45703 0.46484-0.70703 1.0781-0.70312 1.7305 0.003906 0.65234 0.26172 1.2656 0.72656 1.7227 0.042969 0.042969 0.089844 0.074219 0.13672 0.10156 0.027344 0.050782 0.058594 0.097657 0.10156 0.13672l2.5352 2.5039c0.47656 0.46875 1.0977 0.70312 1.7148 0.70312 0.62891 0 1.2617-0.24219 1.7383-0.72656 0.94531-0.95703 0.9375-2.5078-0.023438-3.4531zm1.9844 5.3906c-0.50391 0.51172-1.3281 0.51563-1.8438 0.011719l-2.5352-2.5039c-0.042969-0.042969-0.089844-0.074219-0.13672-0.10156-0.027344-0.050781-0.058594-0.097656-0.10156-0.13672-0.24609-0.24219-0.38672-0.57031-0.38672-0.91797-0.003907-0.34766 0.13281-0.67578 0.375-0.92578 0.24219-0.24609 0.57031-0.38672 0.91797-0.38672 0.34766-0.003906 0.67578 0.13281 0.92578 0.375l2.7734 2.7383c0.51172 0.51172 0.51562 1.3359 0.011719 1.8477z"/>
  <path d="m60.699 59.477c-0.003907-0.65234-0.26172-1.2656-0.72656-1.7227l-2.7734-2.7383c-0.46094-0.45312-1.0703-0.70312-1.7148-0.70312h-0.015625c-0.65234 0.003906-1.2656 0.26172-1.7227 0.72656-0.45703 0.46484-0.70703 1.0781-0.70312 1.7305 0.003906 0.65234 0.26172 1.2656 0.72656 1.7227 0.042969 0.042968 0.089844 0.074218 0.13672 0.10156 0.027344 0.050781 0.058594 0.097656 0.10156 0.13672l2.5352 2.5039c0.47656 0.46875 1.0977 0.70312 1.7148 0.70312 0.62891 0 1.2617-0.24219 1.7383-0.72656 0.45703-0.46875 0.70703-1.082 0.70312-1.7344zm-1.5156 0.92969c-0.50391 0.51172-1.3281 0.51562-1.8438 0.011719l-2.5352-2.5039c-0.042969-0.042968-0.089844-0.074218-0.13672-0.10156-0.027344-0.050781-0.058594-0.097656-0.10156-0.13672-0.24609-0.24219-0.38672-0.57031-0.38672-0.91797-0.003907-0.34766 0.13281-0.67578 0.375-0.92578 0.24219-0.24609 0.57031-0.38672 0.91797-0.38672 0.34766-0.003906 0.67578 0.13281 0.92578 0.375l2.7734 2.7383c0.24609 0.24219 0.38672 0.57031 0.38672 0.91797 0 0.35547-0.12891 0.68359-0.375 0.92969z"/>
  <path d="m52.996 64.031c-0.45703 0.46484-0.70703 1.0781-0.70312 1.7305 0.003906 0.65234 0.26172 1.2656 0.72656 1.7227 0.042969 0.042969 0.089844 0.074219 0.13672 0.10156 0.027344 0.050781 0.058594 0.097656 0.10156 0.13672l2.5352 2.5039c0.47656 0.46875 1.0977 0.70313 1.7148 0.70313 0.62891 0 1.2617-0.24219 1.7383-0.72656 0.94531-0.95703 0.9375-2.5078-0.023438-3.4531l-2.7734-2.7383c-0.95703-0.95312-2.5078-0.94141-3.4531 0.019531zm5.4414 5.3672c-0.50391 0.51172-1.3281 0.51562-1.8438 0.011718l-2.5352-2.5c-0.042969-0.042968-0.089844-0.074218-0.13672-0.10156-0.027344-0.050782-0.058594-0.097656-0.10156-0.13672-0.24609-0.24219-0.38672-0.57031-0.38672-0.91797-0.003906-0.34766 0.13281-0.67578 0.375-0.92578 0.50391-0.51172 1.3281-0.51562 1.8438-0.011719l2.7734 2.7383c0.51172 0.50781 0.51562 1.332 0.011719 1.8438z"/>
  <path d="m42.02 43.246 2.5352-2.5039c0.042968-0.042969 0.074218-0.089844 0.10156-0.13672 0.050781-0.027344 0.097656-0.058594 0.13672-0.10156 0.95703-0.94531 0.96875-2.4961 0.023437-3.4531-0.94531-0.95703-2.4961-0.96875-3.4531-0.023437l-2.7734 2.7383c-0.46484 0.45703-0.72266 1.0703-0.72656 1.7227-0.003906 0.65234 0.24609 1.2695 0.70312 1.7305 0.47656 0.48438 1.1094 0.72656 1.7383 0.72656 0.61719 0.003907 1.2383-0.23047 1.7148-0.69922zm-2.6445-0.82031c-0.24219-0.24609-0.37891-0.57422-0.375-0.92578 0.003906-0.34766 0.14062-0.67578 0.38672-0.91797l2.7734-2.7383c0.25391-0.25 0.58594-0.375 0.91406-0.375 0.33594 0 0.67188 0.12891 0.92578 0.38672 0.50391 0.51172 0.49609 1.3398-0.011719 1.8438-0.042969 0.042969-0.074219 0.089843-0.10156 0.13672-0.050781 0.027343-0.097657 0.058593-0.13672 0.10156l-2.5352 2.5039c-0.24609 0.24219-0.57422 0.37891-0.92578 0.375-0.34375-0.007812-0.66797-0.14453-0.91406-0.39062z"/>
  <path d="m38.562 52.215c0.45703 0.46484 1.0703 0.72266 1.7227 0.72656h0.015625c0.64453 0 1.2539-0.25 1.7148-0.70312l2.5352-2.5039c0.042969-0.042969 0.074219-0.089844 0.10156-0.13672 0.050781-0.027344 0.097656-0.058594 0.13672-0.10156 0.95703-0.94531 0.96875-2.4961 0.023438-3.4531-0.45703-0.46484-1.0703-0.72266-1.7227-0.72656h-0.015625c-0.64453 0-1.2539 0.25-1.7148 0.70312l-2.7734 2.7383c-0.46484 0.45703-0.72266 1.0703-0.72656 1.7227-0.003906 0.65625 0.24609 1.2734 0.70312 1.7344zm0.82422-2.6406 2.7734-2.7383c0.24609-0.24219 0.57031-0.375 0.91406-0.375h0.007812c0.34766 0.003906 0.67578 0.14062 0.91797 0.38672s0.37891 0.57422 0.375 0.92578c-0.003906 0.34766-0.14062 0.67578-0.38672 0.91797-0.042969 0.042969-0.074219 0.089844-0.10156 0.13672-0.050781 0.027344-0.097657 0.058594-0.13672 0.10156l-2.5352 2.5039c-0.24609 0.24219-0.57422 0.37891-0.92578 0.375-0.34766-0.003906-0.67578-0.14062-0.91797-0.38672-0.24219-0.24609-0.37891-0.57422-0.375-0.92578 0.007812-0.35156 0.14453-0.67969 0.39062-0.92188z"/>
  <path d="m38.562 61.207c0.45703 0.46484 1.0703 0.72266 1.7227 0.72656h0.015625c0.64453 0 1.2539-0.25 1.7148-0.70312l2.5352-2.5039c0.042969-0.042968 0.074219-0.089843 0.10156-0.13672 0.050781-0.027344 0.097656-0.058594 0.13672-0.10156 0.46484-0.45703 0.72266-1.0703 0.72656-1.7227s-0.24609-1.2695-0.70312-1.7305c-0.45703-0.46484-1.0703-0.72266-1.7227-0.72656h-0.015625c-0.64453 0-1.2539 0.25-1.7148 0.70312l-2.7734 2.7383c-0.46484 0.45703-0.72266 1.0703-0.72656 1.7227-0.003906 0.65625 0.24609 1.2695 0.70312 1.7344zm0.82422-2.6406 2.7734-2.7383c0.24609-0.24219 0.57031-0.375 0.91406-0.375h0.007812c0.34766 0.003906 0.67578 0.14062 0.91797 0.38672s0.37891 0.57422 0.375 0.92578c-0.003906 0.34766-0.14062 0.67578-0.38672 0.91797-0.042969 0.042968-0.074219 0.089844-0.10156 0.13672-0.050781 0.027344-0.097657 0.058594-0.13672 0.10156l-2.5352 2.5c-0.24609 0.24219-0.57031 0.375-0.91406 0.375h-0.007812c-0.34766-0.003906-0.67578-0.14062-0.91797-0.38672s-0.37891-0.57422-0.375-0.92578c0-0.34766 0.14062-0.67578 0.38672-0.91797z"/>
  <path d="m41.047 70.926c0.62109 0 1.2383-0.23438 1.7148-0.70312l2.5352-2.5039c0.042969-0.042969 0.074219-0.089844 0.10156-0.13672 0.050781-0.027343 0.097656-0.058593 0.13672-0.10156 0.95703-0.94531 0.96875-2.4961 0.023438-3.4531-0.94531-0.95703-2.4961-0.96875-3.4531-0.023438l-2.7734 2.7383c-0.46484 0.45703-0.72266 1.0703-0.72656 1.7227-0.003907 0.65234 0.24609 1.2695 0.70312 1.7305 0.48047 0.48828 1.1094 0.73047 1.7383 0.73047zm-0.91406-3.3711 2.7734-2.7383c0.25391-0.25 0.58594-0.375 0.91406-0.375 0.33594 0 0.67188 0.12891 0.92578 0.38672 0.50391 0.51172 0.49609 1.3398-0.011719 1.8438-0.042969 0.042969-0.074219 0.089844-0.10156 0.13672-0.050781 0.027344-0.097656 0.058594-0.13672 0.10156l-2.5352 2.5039c-0.51172 0.50391-1.3398 0.49609-1.8438-0.011718-0.5-0.51562-0.49609-1.3398 0.015624-1.8477z"/>
  <path d="m76.641 48.305-0.37109-0.37109c-0.003906-0.003906-0.011719-0.007813-0.015625-0.015625-0.85938-0.80469-1.9141-1.1836-3.0508-1.0977-1.1797 0.089844-2.3867 0.69531-3.4883 1.7539-1.043 0.99609-1.8164 2.0898-2.3086 3.25-0.39062 0.92578-0.60156 1.8789-0.64844 2.9141-0.14453 0.21094-0.40625 0.61328-0.61328 1.0859-0.57422 1.3047-0.26172 2.0586 0.10547 2.4648 0.011719 0.015626 0.027344 0.027344 0.039062 0.039063 0.24219 0.21875 0.61328 0.42188 1.1523 0.42188 0.35938 0 0.78906-0.089844 1.3086-0.31641 0.46875-0.20703 0.875-0.46875 1.0859-0.61328 1.0352-0.046874 1.9883-0.25781 2.9141-0.64844 1.1602-0.48828 2.2539-1.2656 3.25-2.3086 1.0547-1.1055 1.6641-2.3125 1.7539-3.4883 0.085938-1.1367-0.29297-2.1914-1.0977-3.0508-0.007812-0.011719-0.011719-0.015625-0.015625-0.019531zm-1.4648 5.7656c-1.6289 1.7031-3.4414 2.5547-5.5469 2.6094-0.12109 0.003906-0.23438 0.042968-0.33203 0.11719-0.003906 0.003906-0.44922 0.34375-1.0039 0.58594-0.32812 0.14453-0.91797 0.34766-1.2188 0.11328-0.37891-0.48047 0.31641-1.7188 0.69922-2.2188 0.074218-0.097656 0.11328-0.21094 0.11719-0.33203 0.054687-2.1055 0.90625-3.918 2.6094-5.5469 1.75-1.6758 3.6094-1.918 4.9688-0.65234l0.35938 0.35938c1.2656 1.3594 1.0195 3.2148-0.65234 4.9648z"/>
  <path d="m66.949 33.023 0.37109 0.37109c0.003907 0.003907 0.011719 0.007813 0.015626 0.015625 0.78125 0.73047 1.7188 1.1094 2.7344 1.1094 0.10547 0 0.20703-0.003906 0.3125-0.011719 1.1797-0.089843 2.3867-0.69531 3.4883-1.7539 1.043-0.99609 1.8164-2.0898 2.3086-3.25 0.39062-0.92578 0.60156-1.8789 0.64844-2.9141 0.14453-0.21094 0.40625-0.61328 0.61328-1.0859 0.57422-1.3047 0.26172-2.0586-0.10547-2.4648-0.011719-0.015624-0.027344-0.027343-0.039063-0.039062-0.40234-0.36328-1.1562-0.67969-2.4648-0.10547-0.46875 0.20703-0.875 0.46875-1.0859 0.61328-1.0352 0.046876-1.9883 0.25781-2.9141 0.64844-1.1602 0.48828-2.2539 1.2656-3.25 2.3086-1.0547 1.1055-1.6641 2.3125-1.7539 3.4883-0.085937 1.1367 0.29297 2.1914 1.0977 3.0508 0.015625 0.007813 0.019531 0.015625 0.023438 0.019532zm1.4648-5.7656c1.6289-1.7031 3.4414-2.5547 5.5469-2.6094 0.12109-0.003907 0.23437-0.042969 0.33203-0.11719 0.003906-0.003906 0.44922-0.34375 1.0039-0.58594 0.32812-0.14453 0.91797-0.34766 1.2188-0.11328 0.37891 0.48047-0.31641 1.7188-0.69922 2.2188-0.074218 0.097657-0.11328 0.21094-0.11719 0.33203-0.054688 2.1055-0.90625 3.918-2.6094 5.5469-1.75 1.6758-3.6094 1.918-4.9688 0.65234l-0.35938-0.35938c-1.2656-1.3594-1.0234-3.2148 0.65234-4.9648z"/>
  <path d="m81.258 74.789c-0.027343-0.54297-0.33984-1.2969-1.6641-1.8164-0.47656-0.1875-0.94922-0.28516-1.1992-0.33203-0.90234-0.82422-1.8984-1.4141-3.0195-1.7891 0.32422-0.48047 0.59766-0.98047 0.8125-1.4922 0.39062-0.92578 0.60156-1.8789 0.64844-2.9141 0.14453-0.21094 0.40625-0.61328 0.61328-1.0859 0.57422-1.3047 0.26172-2.0586-0.10547-2.4648-0.011719-0.015625-0.027344-0.027343-0.039062-0.039062-0.40234-0.36328-1.1562-0.67969-2.4648-0.10547-0.46875 0.20703-0.875 0.46875-1.0859 0.61328-1.0352 0.046875-1.9883 0.25781-2.9141 0.64844-1.1602 0.48828-2.2539 1.2656-3.25 2.3086-1.0547 1.1055-1.6641 2.3125-1.7539 3.4883-0.085938 1.1367 0.29297 2.1914 1.0977 3.0508 0.003906 0.003906 0.007812 0.011719 0.015625 0.015625l0.20703 0.20703c-0.18359 0.44531-0.28516 0.92969-0.30078 1.4453v0.019531 0.52734 0.019531c0.039062 1.1797 0.51562 2.1914 1.3789 2.9336 0.89453 0.76953 2.1797 1.1953 3.707 1.2305 0.09375 0.003907 0.18359 0.003907 0.27344 0.003907 1.3398 0 2.5664-0.22266 3.6602-0.67188 0.92969-0.37891 1.7539-0.90234 2.5195-1.6055 0.25391-0.046875 0.72266-0.14453 1.1992-0.33203 1.3281-0.51562 1.6406-1.2734 1.668-1.8125 0-0.015625 0-0.035156-0.003907-0.050782zm-12.844-7.6797c1.6289-1.7031 3.4414-2.5547 5.5469-2.6094 0.12109-0.003906 0.23437-0.042969 0.33203-0.11719 0.003906-0.003906 0.44922-0.34375 1.0039-0.58594 0.32812-0.14453 0.91797-0.34766 1.2188-0.11328 0.37891 0.48047-0.31641 1.7188-0.69922 2.2188-0.074218 0.097656-0.11328 0.21094-0.11719 0.33203-0.054688 2.1055-0.90625 3.918-2.6094 5.5469-1.75 1.6758-3.6094 1.918-4.9688 0.65234l-0.35938-0.35938c-1.2656-1.3555-1.0234-3.2109 0.65234-4.9648zm9.6406 8.7773c-0.12109 0.015625-0.23047 0.066406-0.31641 0.15234-1.5273 1.4531-3.4141 2.1328-5.7695 2.0781-2.4219-0.054688-3.9023-1.1953-3.9727-3.0508v-0.50781c0.011718-0.25391 0.046875-0.49219 0.10938-0.72266 0.60156 0.35156 1.2656 0.53516 1.9688 0.53516 0.10547 0 0.20703-0.003906 0.3125-0.011719 1.1797-0.089844 2.3867-0.69531 3.4883-1.7539 0.26953-0.25781 0.51953-0.52344 0.75391-0.79297 1.1758 0.32422 2.1953 0.90625 3.1094 1.7695 0.089844 0.082031 0.19922 0.13672 0.31641 0.15234 0.007812 0 0.5625 0.074219 1.1211 0.29297 0.33594 0.12891 0.89453 0.40234 0.94141 0.78125-0.074219 0.61328-1.4375 0.99609-2.0625 1.0781z"/>
 </g>
</svg>
