<?xml version="1.0" encoding="UTF-8"?>
<svg width="100pt" height="100pt" version="1.1" viewBox="0 0 100 100" xmlns="http://www.w3.org/2000/svg">
 <g>
  <path d="m77.746 73.477c-0.11719-0.015624-0.22656-0.070312-0.3125-0.15234-0.82031-0.77734-1.7305-1.3203-2.7617-1.6523-0.19141-0.0625-0.39844 0.003906-0.53125 0.15234-0.16406 0.17969-0.33984 0.35938-0.52344 0.53516-1.207 1.1523-2.5312 1.7383-3.7812 1.7383-0.46484 0-0.92188-0.085937-1.3555-0.25-0.31641-0.12109-0.66797 0.10547-0.67969 0.44141v0.51172c0.0625 1.8242 1.5312 2.9531 3.9297 3.0078 2.3242 0.050781 4.1914-0.62109 5.7031-2.0547 0.085937-0.082031 0.19531-0.13672 0.31641-0.15234 0.61719-0.082031 1.9727-0.46094 2.043-1.0625-0.078125-0.60156-1.4336-0.98047-2.0469-1.0625z"/>
  <path d="m67.93 72.195c1.332 1.2461 3.1719 1.0078 4.9062-0.65234 1.6836-1.6094 2.5273-3.4062 2.582-5.4844 0.003906-0.11719 0.042969-0.23438 0.11719-0.32812 0.37891-0.49609 1.0664-1.7227 0.69141-2.1953-0.097656-0.074218-0.22266-0.10938-0.37109-0.10938-0.57422 0-1.4336 0.49609-1.8281 0.80078-0.09375 0.070313-0.21094 0.11328-0.32812 0.11719-2.082 0.054688-3.875 0.89844-5.4844 2.582-1.6602 1.7344-1.8984 3.5742-0.63672 4.918z"/>
  <path d="m69.086 56.723c0.09375-0.070312 0.21094-0.11328 0.32812-0.11719 2.082-0.054688 3.875-0.89844 5.4844-2.582 1.6602-1.7344 1.8984-3.5742 0.64062-4.918l-0.35547-0.35547c-1.332-1.2461-3.1719-1.0078-4.9062 0.65234-1.6836 1.6094-2.5273 3.4062-2.582 5.4844-0.003906 0.11719-0.042968 0.23438-0.11719 0.32812-0.37891 0.49609-1.0664 1.7227-0.69141 2.1953 0.47656 0.37891 1.7031-0.30859 2.1992-0.6875z"/>
  <path d="m67.93 32.777c1.332 1.2461 3.1719 1.0078 4.9062-0.65234 1.6836-1.6094 2.5273-3.4062 2.582-5.4844 0.003906-0.11719 0.042969-0.23438 0.11719-0.32812 0.37891-0.49609 1.0664-1.7227 0.69141-2.1953-0.097656-0.074219-0.22266-0.10938-0.37109-0.10938-0.57422 0-1.4336 0.49609-1.8281 0.80078-0.09375 0.070312-0.21094 0.11328-0.32812 0.11719-2.082 0.054688-3.875 0.89844-5.4844 2.582-1.6602 1.7344-1.8984 3.5742-0.63672 4.918z"/>
  <path d="m40.402 42.891c0.33203 0.003906 0.66797-0.12891 0.91406-0.37109l2.5078-2.4727c0.042969-0.039063 0.085937-0.074219 0.13672-0.097656 0.027343-0.046875 0.058593-0.09375 0.10156-0.13672 0.24609-0.24219 0.38281-0.5625 0.38281-0.91016 0.003907-0.34375-0.12891-0.66797-0.37109-0.91406-0.25-0.25391-0.58594-0.38281-0.91797-0.38281-0.32812 0-0.65234 0.125-0.90625 0.37109l-2.7422 2.707c-0.50391 0.5-0.51172 1.3164-0.011718 1.8203 0.23828 0.24609 0.55859 0.38281 0.90625 0.38672z"/>
  <path d="m35.859 38.105c0-3.4844 1.7812-6.6445 4.7617-8.457 0.67969-0.41406 1.3008-0.89453 1.8555-1.4297 0.20703-0.19922 0.21484-0.51953 0.023438-0.73047-1.0898-1.1836-2.4961-2.0586-4.0469-2.4961-0.86719-0.24219-1.6328-0.74219-2.2109-1.4414-0.57422-0.69922-0.92188-1.543-1-2.4453-0.0625-0.67969-0.37109-1.3125-0.87891-1.7734-0.50391-0.46484-1.1602-0.71875-1.8438-0.71875-0.6875 0-1.3398 0.25391-1.8438 0.71875-0.50391 0.46484-0.81641 1.0938-0.87891 1.7773-0.15625 1.8242-1.4492 3.3867-3.2109 3.8828-3.7539 1.0625-6.375 4.5273-6.375 8.4297v28.477c0 3.0859 1.5781 5.8867 4.2188 7.4922 3.2383 1.9688 5.2773 5.3086 5.4531 8.9297l0.12891 2.5859c0.011719 0.27344 0.23828 0.48438 0.51172 0.48438h3.9961c0.27344 0 0.49609-0.21484 0.51172-0.48438l0.12891-2.5859c0.10156-2.1641 0.85547-4.2031 2.1719-5.9531 0.12891-0.17188 0.14062-0.40234 0.027344-0.58594-0.94922-1.5273-1.4961-3.3203-1.4961-5.2031z"/>
  <path d="m51.293 18.609h-3.9922c-0.27344 0-0.49609 0.21484-0.51172 0.48438l-0.125 2.582c-0.11719 2.3945-1.0508 4.6641-2.6055 6.4961-0.027344 0.046875-0.066406 0.089844-0.10938 0.12891-0.77344 0.88672-1.6953 1.668-2.7422 2.3047-2.6406 1.6055-4.2188 4.4062-4.2188 7.4922v28.477c0 3.9141 2.6328 7.3906 6.4023 8.4414 1.7891 0.5 2.9883 2.0938 3.1914 3.9414 0.15234 1.3594 1.2617 2.3867 2.6289 2.4258 1.4492 0.042969 2.6641-1.1094 2.8086-2.5508 0.17969-1.8008 1.4609-3.332 3.207-3.8242 3.7539-1.0586 6.375-4.5273 6.375-8.4336v-28.469c0-3.0859-1.5781-5.8867-4.2188-7.4922-3.2383-1.9688-5.2773-5.3047-5.4531-8.9297l-0.125-2.582c-0.015626-0.27734-0.24219-0.49219-0.51172-0.49219zm-12.582 21.273 2.7422-2.707c0.94922-0.9375 2.4805-0.92578 3.418 0.023438 0.45312 0.46094 0.69922 1.0664 0.69531 1.7109-0.003906 0.64453-0.25781 1.25-0.71875 1.7031-0.042968 0.039063-0.085937 0.074219-0.13672 0.097657-0.027344 0.046874-0.058594 0.09375-0.10156 0.13672l-2.5078 2.4727c-0.46875 0.46484-1.082 0.69531-1.6953 0.69531-0.625 0-1.2461-0.23828-1.7188-0.71875-0.45312-0.46094-0.69922-1.0664-0.69531-1.7109 0.003906-0.64453 0.26172-1.25 0.71875-1.7031zm0 8.8945 2.7422-2.707c0.46094-0.45312 1.0742-0.70703 1.7109-0.69531 0.64453 0.003906 1.25 0.25781 1.7031 0.71875 0.45312 0.46094 0.69922 1.0664 0.69531 1.7109-0.003906 0.64453-0.25781 1.25-0.71875 1.7031-0.042969 0.039063-0.085938 0.074219-0.13672 0.097657-0.027343 0.046875-0.058593 0.09375-0.10156 0.13672l-2.5 2.4727c-0.46875 0.46484-1.082 0.69531-1.6953 0.69531-0.625 0-1.2461-0.23828-1.7188-0.71875-0.9375-0.94922-0.92578-2.4805 0.019532-3.4141zm0 8.8906 2.7422-2.707c0.94922-0.9375 2.4805-0.92578 3.418 0.023437 0.45312 0.46094 0.69922 1.0664 0.69531 1.7109-0.003906 0.64453-0.25781 1.25-0.71875 1.7031-0.042968 0.039062-0.085937 0.074218-0.13672 0.097656-0.027344 0.046875-0.058594 0.09375-0.10156 0.13672l-2.5078 2.4727c-0.46875 0.46484-1.082 0.69531-1.6953 0.69531-0.625 0-1.2461-0.23828-1.7188-0.71875-0.93359-0.94531-0.92188-2.4766 0.023438-3.4141zm6.8789 9.625c-0.042969 0.039062-0.085938 0.074219-0.13672 0.097656-0.027344 0.046875-0.058594 0.09375-0.10156 0.13672l-2.5078 2.4727c-0.46875 0.46484-1.082 0.69531-1.6953 0.69531-0.625 0-1.2461-0.23828-1.7188-0.71875-0.45313-0.46094-0.69922-1.0664-0.69531-1.7109s0.25781-1.25 0.71875-1.7031l2.7422-2.707c0.94922-0.9375 2.4805-0.92578 3.418 0.023437 0.45312 0.46094 0.69922 1.0664 0.69531 1.7109-0.003906 0.64453-0.26172 1.25-0.71875 1.7031zm13.559 2.6836c-0.47266 0.47656-1.0938 0.71875-1.7188 0.71875-0.61328 0-1.2266-0.23047-1.6953-0.69531l-2.5078-2.4727c-0.042968-0.039063-0.074218-0.085938-0.10156-0.13672-0.050781-0.023437-0.09375-0.058594-0.13672-0.097656-0.46094-0.45312-0.71484-1.0586-0.71875-1.7031-0.003906-0.64453 0.24219-1.2539 0.69531-1.7109 0.93359-0.94922 2.4688-0.95703 3.418-0.023437l2.7422 2.707c0.46094 0.45312 0.71484 1.0586 0.71875 1.7031s-0.24219 1.2539-0.69531 1.7109zm0.73828-8.8906c-0.47266 0.47656-1.0938 0.71875-1.7188 0.71875-0.61328 0-1.2266-0.23047-1.6953-0.69531l-2.5078-2.4727c-0.042969-0.039063-0.074219-0.085938-0.10156-0.13672-0.046875-0.023438-0.09375-0.058594-0.13672-0.097656-0.46094-0.45312-0.71484-1.0586-0.71875-1.7031-0.003906-0.64453 0.24219-1.2539 0.69531-1.7109 0.9375-0.94922 2.4688-0.95703 3.418-0.023437l2.7422 2.707c0.94922 0.93359 0.95703 2.4648 0.023438 3.4141zm0-8.8945c-0.47266 0.47656-1.0938 0.71875-1.7188 0.71875-0.61328 0-1.2266-0.23047-1.6953-0.69531l-2.5078-2.4727c-0.042969-0.039063-0.074219-0.085938-0.10156-0.13672-0.046875-0.023438-0.09375-0.058594-0.13672-0.097657-0.46094-0.45312-0.71484-1.0586-0.71875-1.7031-0.003906-0.64453 0.24219-1.2539 0.69531-1.7109 0.45312-0.46094 1.0586-0.71484 1.7031-0.71875 0.65625-0.011719 1.2539 0.24219 1.7109 0.69531l2.7422 2.707c0.46094 0.45312 0.71484 1.0586 0.71875 1.7031 0.007813 0.64453-0.23828 1.2539-0.69141 1.7109zm-2.7656-15.016 2.7422 2.707c0.46094 0.45313 0.71484 1.0586 0.71875 1.7031 0.003907 0.64453-0.24219 1.2539-0.69531 1.7109-0.47266 0.47656-1.0938 0.71875-1.7188 0.71875-0.61328 0-1.2266-0.23047-1.6953-0.69531l-2.5078-2.4727c-0.042969-0.039062-0.074219-0.085937-0.10156-0.13672-0.046875-0.023438-0.09375-0.058594-0.13672-0.097657-0.46094-0.45312-0.71484-1.0586-0.71875-1.7031-0.003906-0.64453 0.24219-1.2539 0.69531-1.7109 0.9375-0.94922 2.4688-0.96094 3.418-0.023438zm-4.2812-8.168c0.26172 0.17188 0.33203 0.51953 0.16406 0.78125-0.25781 0.39453-0.48828 0.82422-0.67578 1.2773-0.42969 1.0078-0.65625 2.0742-0.67188 3.1641l-0.64844 37.453c-0.011718 0.45312-0.19141 0.875-0.51172 1.1875-0.3125 0.3125-0.74219 0.48828-1.1992 0.48828-0.92578 0-1.6914-0.75-1.7109-1.6758l-0.64844-37.453c-0.023438-1.5781-0.49219-3.1172-1.3516-4.4453-0.16797-0.26172-0.09375-0.60938 0.16797-0.78125 0.26172-0.16797 0.60938-0.09375 0.78125 0.16797 0.97266 1.5078 1.5039 3.25 1.5312 5.0391l0.64844 37.449c0.003906 0.3125 0.26562 0.57031 0.58203 0.57031 0.15625 0 0.29688-0.058594 0.40234-0.16406 0.11328-0.11328 0.17578-0.25391 0.17969-0.41016l0.64844-37.445c0.019531-1.2383 0.27734-2.4453 0.76172-3.5859 0.21875-0.51172 0.47656-1.0039 0.77344-1.4531 0.16797-0.26172 0.51562-0.33203 0.77734-0.16406z"/>
  <path d="m56.328 46.871c-0.24609-0.24219-0.55469-0.36719-0.91406-0.37109-0.34375 0.003906-0.66797 0.13672-0.91016 0.38281-0.24219 0.24609-0.375 0.57031-0.37109 0.91406 0.003907 0.34375 0.13672 0.66797 0.38281 0.90625 0.042969 0.039063 0.074219 0.085937 0.10156 0.13672 0.046874 0.023437 0.09375 0.058594 0.13672 0.097656l2.5078 2.4727c0.50391 0.5 1.3203 0.49219 1.8203-0.011718 0.24219-0.24609 0.375-0.57031 0.37109-0.91406s-0.13672-0.66797-0.38281-0.91016z"/>
  <path d="m54.621 39.945c0.046875 0.023438 0.09375 0.058594 0.13672 0.097657l2.5078 2.4727c0.24609 0.24219 0.57031 0.37891 0.91406 0.37109 0.34375-0.003907 0.66797-0.13672 0.90625-0.38281 0.24219-0.24609 0.375-0.57031 0.37109-0.91406-0.003906-0.34375-0.13672-0.66797-0.38281-0.90625l-2.7422-2.707c-0.50391-0.5-1.3242-0.49219-1.8203 0.011719-0.24219 0.24609-0.375 0.57031-0.37109 0.91406s0.13672 0.66797 0.38281 0.91016c0.035156 0.039062 0.070312 0.085938 0.097656 0.13281z"/>
  <path d="m56.328 55.762c-0.50391-0.5-1.3242-0.49219-1.8203 0.011719-0.24219 0.24609-0.375 0.57031-0.37109 0.91406 0.003906 0.34375 0.13672 0.66797 0.38281 0.90625 0.042969 0.039062 0.074219 0.085938 0.10156 0.13672 0.046875 0.023437 0.09375 0.058593 0.13672 0.097656l2.5078 2.4727c0.50391 0.5 1.3203 0.49219 1.8203-0.011719 0.5-0.50391 0.49219-1.3242-0.011719-1.8203z"/>
  <path d="m43.82 57.832c0.042969-0.039062 0.085938-0.074219 0.13672-0.097656 0.027344-0.046875 0.058594-0.09375 0.10156-0.13672 0.24609-0.24219 0.38281-0.5625 0.38281-0.90625 0.003906-0.34375-0.12891-0.66797-0.37109-0.91406-0.25-0.25391-0.58594-0.38281-0.91797-0.38281-0.32812 0-0.65234 0.125-0.90625 0.37109l-2.7422 2.707c-0.50391 0.5-0.51172 1.3164-0.011718 1.8203 0.5 0.50391 1.3164 0.51172 1.8203 0.011719z"/>
  <path d="m41.312 51.41 2.5078-2.4727c0.042969-0.039062 0.085938-0.074219 0.13672-0.097656 0.027344-0.046875 0.058594-0.09375 0.10156-0.13672 0.24609-0.24219 0.38281-0.5625 0.38281-0.90625 0.003906-0.34375-0.12891-0.66797-0.37109-0.91406-0.24219-0.24609-0.5625-0.38281-0.91016-0.38281s-0.67188 0.13281-0.91406 0.37109l-2.7422 2.707c-0.50391 0.5-0.51172 1.3164-0.011718 1.8203 0.5 0.50781 1.3164 0.51172 1.8203 0.011718z"/>
  <path d="m43.891 64.285c-0.32812 0-0.65234 0.125-0.90625 0.37109l-2.7422 2.707c-0.24609 0.24219-0.38281 0.5625-0.38281 0.91016-0.003906 0.34375 0.12891 0.66797 0.37109 0.91406 0.5 0.50391 1.3164 0.51172 1.8203 0.011719l2.5078-2.4727c0.042968-0.039062 0.085937-0.074218 0.13672-0.097656 0.027344-0.046875 0.058594-0.09375 0.10156-0.13672 0.24609-0.24219 0.38281-0.5625 0.38281-0.90625 0.003906-0.34375-0.12891-0.66797-0.37109-0.91406-0.25391-0.25781-0.58594-0.38672-0.91797-0.38672z"/>
  <path d="m55.59 64.656c-0.50391-0.5-1.3242-0.49219-1.8203 0.011719-0.24219 0.24609-0.375 0.57031-0.37109 0.91406 0.003906 0.34375 0.13672 0.66797 0.38281 0.90625 0.042969 0.039063 0.074219 0.085938 0.10156 0.13672 0.050782 0.027344 0.09375 0.058594 0.13672 0.097656l2.5078 2.4727c0.50391 0.5 1.3242 0.49219 1.8203-0.011718 0.24219-0.24609 0.375-0.57031 0.37109-0.91406s-0.13672-0.66797-0.38281-0.90625z"/>
 </g>
</svg>
