<?xml version="1.0" encoding="UTF-8"?>
<svg width="100pt" height="100pt" version="1.1" viewBox="0 0 100 100" xmlns="http://www.w3.org/2000/svg">
 <path d="m42.117 22.496h39.746c0.34375 0 0.62109-0.27734 0.62109-0.62109s-0.27734-0.62109-0.62109-0.62109l-39.746 0.003906c-1.3164 0-2.5938 0.25781-3.7969 0.76953-1.1602 0.49219-2.2031 1.1953-3.1016 2.0898-0.89453 0.89453-1.5977 1.9375-2.0898 3.1016-0.50781 1.2031-0.76953 2.4805-0.76953 3.7969 0 0.050781 0 0.097656 0.003906 0.14844h-1.4375c-2.4023-1.5859-3.8281-4.2227-3.8281-7.1133 0-4.6953 3.8203-8.5117 8.5156-8.5117h46.25c0.34375 0 0.62109-0.27734 0.62109-0.62109s-0.27734-0.62109-0.62109-0.62109l-46.25-0.003906c-1.3164 0-2.5938 0.25781-3.7969 0.76562-1.1602 0.49219-2.2031 1.1953-3.1016 2.0898-0.89453 0.89453-1.6016 1.9375-2.0898 3.0977-0.50781 1.2031-0.76953 2.4805-0.76953 3.7969 0 1.6953 0.44141 3.3672 1.2773 4.8281 0.76953 1.3477 1.8594 2.5 3.1562 3.3477 0.92188 3.2539 2.707 6.2031 5.1875 8.5391 2.5586 2.4102 5.7188 4.0508 9.1445 4.7422 0.003906 0.003906 0.011718 0.003906 0.015625 0.003906 0.023437 0.007813 0.042969 0.011719 0.066406 0.015625 0.29297 0.042969 0.58984 0.10156 0.87891 0.15234 0.007813 0.003906 0.015625 0.003906 0.023438 0.003906h0.003906c5.2812 0.96875 9.7188 2.7539 12.84 5.1562 0.17578 0.13672 0.34766 0.27344 0.51172 0.41016 0.019531 0.019531 0.039062 0.035156 0.0625 0.050781 0.81641 0.6875 1.5312 1.4141 2.1406 2.1875 0.023438 0.039062 0.050782 0.070312 0.082032 0.10547 0.43359 0.5625 0.81641 1.1445 1.1406 1.75 0.011719 0.019531 0.019531 0.042968 0.03125 0.0625 0.003906 0.007812 0.007812 0.011718 0.011719 0.019531 0.74609 1.4219 1.1953 2.957 1.3398 4.6055 0 0.039062 0.003907 0.082031 0.011719 0.12109 0.03125 0.38672 0.042969 0.78125 0.039062 1.1797-0.054687 6.4609-2.7422 12.594-7.3984 16.945l-1.8867-3.0078c0.10547-0.22266 0.20312-0.44141 0.28906-0.65625 0.75391-1.8086 1.1289-3.7148 1.1172-5.6562-0.011718-1.8789-0.38281-3.7148-1.1016-5.457-0.71875-1.7422-1.7539-3.3086-3.0664-4.6445-1.3633-1.3867-2.9727-2.4727-4.7852-3.2227-1.5859-0.65625-3.2539-0.95703-4.9531-0.89453-1.4922 0.054687-2.9375 0.39062-4.3008 0.99219l-10.281-10.824c-0.22656-0.23828-0.60547-0.25781-0.85547-0.039063-1.5703 1.3711-2.9844 2.9258-4.207 4.6133-1.2578 1.7383-2.3164 3.6328-3.1484 5.6328-1.1562 2.7852-1.7344 5.7148-1.7188 8.707 0.019531 2.8906 0.58984 5.7148 1.6953 8.3945 1.1055 2.6836 2.6953 5.0898 4.7188 7.1484 2.0977 2.1328 4.5703 3.8047 7.3555 4.9648 2.2109 0.92188 4.5273 1.3828 6.8945 1.3828 0.24219 0 0.48828-0.003906 0.73438-0.015625 1.2578-0.050781 2.5156-0.23438 3.7344-0.54688 0.78906-0.20312 1.5703-0.46094 2.3242-0.76953-0.035157 0.22656-0.054688 0.45703-0.066407 0.6875-0.007812 0.16797 0.054688 0.33203 0.17188 0.45312 0.11719 0.12109 0.27734 0.19141 0.44531 0.19141h10.328 0.019531c3.6172-0.12109 7.1133-0.93359 10.391-2.4141 3.1758-1.4336 6.0195-3.4336 8.4531-5.9453 2.4375-2.5156 4.3516-5.4258 5.6836-8.6445 1.3789-3.3359 2.0781-6.875 2.0781-10.516 0-2.0938-0.25781-4.2539-0.76172-6.4219-0.52344-2.2539-1.3086-4.4648-2.3281-6.582-2.0391-4.2148-5.2383-7.7617-9.2539-10.242-3.9922-2.4688-8.5898-3.7773-13.301-3.7773h-8.1602v-0.78516c1.4336-0.28906 2.5156-1.5547 2.5156-3.0703 0-1.7266-1.4062-3.1328-3.1328-3.1328s-3.1328 1.4062-3.1328 3.1328c0 1.5156 1.082 2.7852 2.5156 3.0703v0.78516h-13.844c0-0.050781-0.003906-0.10156-0.003906-0.14844 0.003906-4.6953 3.8242-8.5156 8.5195-8.5156zm4.0508 4.8047c0-1.0469 0.85156-1.8945 1.8945-1.8945 1.0469 0 1.8945 0.85156 1.8945 1.8945 0 1.0469-0.85156 1.8945-1.8945 1.8945-1.043 0.003907-1.8945-0.84766-1.8945-1.8945zm32.562 19.395c1.4102 3.1992 2.2461 6.5508 2.4609 9.832h-16.93c-0.14453-0.40625-0.30859-0.80078-0.49609-1.1914zm-46.969 36.477c-10.746-4.4727-15.852-16.852-11.387-27.598 1.5117-3.625 3.7266-6.7852 6.5859-9.3945l9.6172 10.121c-2.2148 1.2852-3.957 3.2656-4.9453 5.6484-0.49219 1.1875-0.73828 2.4336-0.73047 3.7109 0.007812 1.2305 0.25 2.4336 0.72266 3.5742s1.1484 2.1641 2.0117 3.043c0.89062 0.90625 1.9453 1.6211 3.1328 2.1133 1.9062 0.79688 4.0117 0.80078 5.9219 0.011719 1.9102-0.78906 3.3984-2.2734 4.1953-4.1836 1.3359-3.2148-0.19141-6.9219-3.4023-8.2578-2.6367-1.0938-5.6719 0.15625-6.7695 2.793-0.89844 2.1758 0.13281 4.6758 2.3008 5.5742 0.31641 0.13281 0.67969-0.019531 0.80859-0.33594 0.13281-0.31641-0.019531-0.67969-0.33594-0.80859-1.5391-0.64062-2.2734-2.4141-1.6328-3.957 0.83594-2.0039 3.1445-2.957 5.1523-2.125 2.582 1.0742 3.8086 4.0547 2.7344 6.6406-0.66406 1.6055-1.918 2.8516-3.5234 3.5117s-3.3711 0.65625-4.9727-0.011718c-4.2148-1.7539-6.2188-6.6094-4.4648-10.824 0.97266-2.3398 2.7539-4.2422 5.0156-5.3711 0.050781-0.015625 0.097656-0.039063 0.14062-0.070313 2.6914-1.2891 5.8125-1.3711 8.5742-0.22656 3.2773 1.3633 5.8281 3.918 7.1836 7.1992 1.3359 3.2344 1.3477 6.7891 0.042969 10.031l-0.89453-1.4258c-0.089844-0.14063-0.23047-0.24219-0.39453-0.27734-0.16406-0.035156-0.33594-0.003906-0.47266 0.089844-0.79687 0.53125-1.4648 1.2578-1.9336 2.0977-0.47656 0.85156-0.75 1.8164-0.78516 2.7891-0.023437 0.68359 0.066407 1.3711 0.26563 2.0234-0.66016 0.17188-1.2969 0.45312-1.8633 0.82812-0.80859 0.53906-1.4883 1.2734-1.9688 2.1289-0.10547 0.1875-0.19922 0.37891-0.28125 0.57812-4.293 2.0586-9.2539 2.1875-13.648 0.35938zm24.086 1.2891h-9.6328c0.054687-0.32031 0.13672-0.63281 0.24609-0.93359 0.011718-0.019532 0.015624-0.042969 0.023437-0.0625 0.082031-0.21484 0.17969-0.42188 0.28516-0.61328 0.76172-1.3594 2.1328-2.2852 3.668-2.4805 0.19531-0.023438 0.36719-0.14062 0.46094-0.3125 0.097656-0.17188 0.10547-0.37891 0.023437-0.55859-0.63672-1.4102-0.5625-3.0625 0.19922-4.418 0 0 0-0.003906 0.003906-0.003906 0.26953-0.48047 0.62109-0.91797 1.0312-1.2812l1.1406 1.8164c0.007813 0.007813 0.011719 0.019531 0.015625 0.027344l2.4531 3.9102c0.097656 0.15234 0.25781 0.25781 0.43359 0.28516 0.17969 0.027343 0.36328-0.027344 0.49609-0.14844 1.2695-1.1172 2.4297-2.3672 3.4453-3.7227 1.0234-1.3633 1.9023-2.8398 2.6211-4.3828 0.72656-1.5703 1.293-3.2266 1.6797-4.9219 0.39453-1.7344 0.60156-3.5273 0.61719-5.3281v-0.19922l13.844 7.9883c-4.0078 8.8164-12.719 14.992-23.055 15.34zm23.535-16.484-14.41-8.3164c-0.066406-0.64453-0.17969-1.2773-0.33594-1.8945h16.605c0.003906 0.13672 0.003906 0.27734 0.003906 0.41406 0 3.4648-0.66016 6.7734-1.8633 9.7969zm-1.1758-22.41-15.023 8.6758c-0.23047-0.38672-0.48047-0.76563-0.75391-1.1328l9.0664-15.707c2.8008 2.1562 5.1172 4.9258 6.7109 8.1641zm-7.7109-8.8984-8.8984 15.41c-0.48047-0.54688-1.0117-1.0664-1.5938-1.5664v-17.902c3.8047 0.50781 7.4023 1.9258 10.492 4.0586zm-22.434-2.0117c0.34375 0 0.62109-0.27734 0.62109-0.62109v-1.6406h8.1602c0.64453 0 1.2891 0.027344 1.9258 0.078125v17.055c-3.2344-2.3555-7.6836-4.0977-12.902-5.0586-0.035157-0.011719-0.066407-0.015625-0.097657-0.019531-0.27344-0.050781-0.55859-0.10156-0.84375-0.14453-0.007812-0.003907-0.011719-0.003907-0.015625-0.003907-0.007812-0.003906-0.015625-0.003906-0.023437-0.007812-6.2227-1.2461-11.344-5.875-13.246-11.898h15.809v1.6406c-0.003907 0.34766 0.27344 0.62109 0.61328 0.62109z"/>
</svg>
