<?xml version="1.0" encoding="UTF-8"?>
<svg width="100pt" height="100pt" version="1.1" viewBox="0 0 100 100" xmlns="http://www.w3.org/2000/svg">
 <g>
  <path d="m27.426 56.008c0.011719 0.007813 0.027344 0.011719 0.039063 0.019532l0.46484 0.22656c1.4141 0.69141 2.875 1.4102 4.2109 2.3008 0.85156 0.5625 1.9258 1.4922 2.2148 2.7188 0.0625 0.26562-0.046875 0.55469-0.29297 0.67187-0.33984 0.16016-0.72266-0.039062-0.80078-0.38672-0.19141-0.87891-1.0547-1.6094-1.7461-2.0625-0.078125-0.050782-0.15234-0.10156-0.23047-0.15234-0.33984-0.21875-0.73438 0.18359-0.51562 0.52344 0.15625 0.24219 0.30469 0.48828 0.44531 0.73437 0.050781 0.058594 0.089844 0.125 0.11328 0.19531 3.2266 5.7578 3.2227 12.789 3.0547 18.887-0.007812 0.31641 0.24609 0.57812 0.5625 0.57812 0.32031 0 0.57422-0.25781 0.56641-0.57812-0.19531-6.9492-0.17188-15.113 4.6094-21.223-0.59766 0.32422-1.1875 0.66406-1.7461 1.0352-0.69141 0.45703-1.5547 1.1836-1.7461 2.0664-0.058594 0.26172-0.29297 0.44531-0.55078 0.44531-0.039063 0-0.082031-0.003906-0.12109-0.011718-0.30859-0.066406-0.49219-0.41406-0.41797-0.72266 0.29297-1.2227 1.3594-2.1484 2.2148-2.7148 1.3359-0.89062 2.7969-1.6055 4.2109-2.3008l0.49609-0.24609c3.6641-1.8047 6.5547-3.4883 7.6719-7.332 1.7891-6.1445-2.7852-11.203-6.8203-15.668-0.82031-0.91016-1.5977-1.7695-2.3203-2.6289-2.4062-2.875-4.2812-6.293-5.6914-10.391-0.11719-0.33594-0.59375-0.33594-0.70703 0-1.4102 4.0977-3.2852 7.5156-5.6914 10.391-0.71875 0.85938-1.4961 1.7188-2.3203 2.6289-4.0352 4.4648-8.6094 9.5234-6.8203 15.668 1.1133 3.8477 4.0039 5.5312 7.6641 7.3281zm3.5039-21.094c0-2.1758 1.6445-3.9883 3.7461-4.1211 1.1211-0.070313 2.1914 0.30859 3.0117 1.0742 0.80469 0.75781 1.2695 1.8242 1.2695 2.9297v13.801c0 1.3086-1.0312 2.375-2.3203 2.4414v7.0156c0 0.3125-0.25391 0.5625-0.5625 0.5625-0.3125 0-0.5625-0.25391-0.5625-0.5625v-7.0078h-1.1328v7.0078c0 0.3125-0.25391 0.5625-0.5625 0.5625-0.3125 0-0.5625-0.25391-0.5625-0.5625v-7.0156c-1.2891-0.066406-2.3203-1.1328-2.3203-2.4414z"/>
  <path d="m53.484 68.75c-0.019531 0-0.035156 0.011719-0.054687 0.011719-0.019532 0-0.039063-0.003907-0.054688-0.003907-1.7812 0.039063-3.5547 0.17188-5.3242 0.41016-3.0664 0.41406-5.668 1.3594-7.7344 2.8125-1.2461 0.87109-2.1289 1.8164-2.3008 2.4414 0.17188 0.62891 1.0391 1.5508 2.3008 2.4414 2.0742 1.457 4.6758 2.4023 7.7344 2.8125 9.543 1.2812 19.238-0.32422 29.586-4.9102 0.29688-0.13281 0.29688-0.55859 0-0.69141-8.3906-3.7188-16.355-5.4766-24.152-5.3242z"/>
  <path d="m33.375 49.914h0.43359 2.2578 0.44141c0.72656 0 1.3203-0.58984 1.3203-1.3203v-13.801c0-0.80469-0.32422-1.5547-0.91406-2.1055-0.53906-0.50781-1.2344-0.78125-1.9727-0.78125-0.066406 0-0.12891 0.003906-0.19531 0.007812-1.5117 0.097657-2.6914 1.4141-2.6914 2.9961v13.684c0.003906 0.73047 0.59375 1.3203 1.3203 1.3203z"/>
  <path d="m51.207 48.992c-1.332 4.5898-5.1172 6.4844-8.1836 7.9961-5.9219 5.332-6.543 13.004-6.4414 20.301 0.003907 0.38281 0.38281 0.64453 0.74609 0.52734 0.24219-0.078125 0.48438-0.16406 0.72656-0.25781 0.38672-0.14453 0.48828-0.64844 0.19141-0.93359-0.65625-0.62891-1.2422-1.375-1.3633-2.1133-0.011718-0.0625-0.011718-0.12109 0-0.18359 0.21484-1.3008 1.8398-2.6094 2.7891-3.2734 2.2188-1.5586 4.9883-2.5703 8.2344-3.0078 1.6953-0.22656 3.3945-0.35938 5.1016-0.41016 0.13281-0.003907 0.26172-0.054688 0.36328-0.14453 11.605-10.465 20.766-24.562 27.25-41.934 0.11328-0.30078-0.1875-0.60156-0.48828-0.48828-11.141 4.1523-20.957 9.4102-29.223 15.645-0.20703 0.15625-0.27734 0.43359-0.17969 0.67188 0.95312 2.332 1.2812 4.8477 0.47656 7.6055z"/>
  <path d="m31.094 62.793c-0.12891-0.28516-0.52734-0.30469-0.67578-0.03125-1.6055 2.9414-2.6836 5.9062-3.1953 8.8359-0.1875 1.0781-0.69531 4.5352 0.14453 6.2773 0.066406 0.13672 0.19531 0.23438 0.34375 0.27734 0.78125 0.21484 2.6328 0.62891 5.0312 0.51562 0.29687-0.015625 0.53906-0.25391 0.54687-0.55078 0.10547-5.1953-0.070312-10.637-2.1953-15.324z"/>
 </g>
</svg>
