<?xml version="1.0" encoding="UTF-8"?>
<svg width="100pt" height="100pt" version="1.1" viewBox="0 0 100 100" xmlns="http://www.w3.org/2000/svg">
 <g>
  <path d="m77.973 67.102c-0.015625-0.015624-0.03125-0.035156-0.046875-0.050781-0.27344-0.29688-0.73828-0.3125-1.043-0.046875l-10.086 8.8398c-0.30859 0.26953-0.34375 0.73828-0.078125 1.0547 0.039062 0.042968 0.074219 0.089843 0.11328 0.13281 2.7383 3.0703 7.4648 3.3438 10.535 0.60938 3.0703-2.7383 3.3398-7.4609 0.60547-10.535v-0.003907z"/>
  <path d="m44.773 21.484h-14.457c-0.41406 0-0.75 0.33594-0.75 0.75v3.5469c0 0.41406 0.33594 0.75 0.75 0.75h14.457c0.41406 0 0.75-0.33594 0.75-0.75v-3.5469c0-0.41406-0.33594-0.75-0.75-0.75z"/>
  <path d="m74.816 57.176c0.38281 0.12109 0.79688-0.082031 0.93359-0.46094 0.015625-0.042969 0.03125-0.089844 0.046875-0.13281 1.2891-3.9062-0.83594-8.1328-4.7422-9.4219-1.8906-0.625-3.9141-0.47656-5.6953 0.41797s-3.1055 2.4297-3.7305 4.3242c-0.042968 0.12891-0.082031 0.25781-0.11328 0.39062-0.097656 0.38281 0.13281 0.77344 0.50781 0.89062z"/>
  <path d="m27.707 79.527h19.574c2.8945-0.007813 5.5-1.6094 6.832-4.1328 0.12109-0.22656-0.011719-0.51172-0.26562-0.55078-3.4531-0.52344-6.3906-3.1367-7.1367-6.75-0.46484-2.2461-0.027344-4.5391 1.2305-6.457 0.35156-0.53516 0.75781-1.0234 1.2109-1.457 0.22266-0.21484 0.27734-0.55469 0.14844-0.83984l-6.9883-15.359c-0.035156-0.074219-0.050781-0.15234-0.050781-0.23438v-15.328c0-0.41406-0.33594-0.75-0.75-0.75h-8.0547c-0.41406 0-0.75 0.33594-0.75 0.75v15.328c0 0.082031-0.015625 0.16016-0.050781 0.23438l-11.988 26.352c-0.65234 1.4258-0.69531 3.0391-0.12109 4.4219 1.2031 2.8984 4.0156 4.7734 7.1602 4.7734z"/>
  <path d="m48.883 62.254c-1.0938 1.6641-1.4727 3.6562-1.0703 5.6094 0.83203 4.0273 4.7891 6.625 8.8164 5.793 0.12109-0.023438 0.23828-0.054688 0.35156-0.085938 0.375-0.10156 0.60156-0.48828 0.52344-0.86719l-2.6172-13.137c-0.078125-0.38672-0.44141-0.65625-0.83203-0.60156-0.15234 0.023437-0.30469 0.046875-0.45313 0.078125-1.9453 0.40625-3.625 1.5469-4.7188 3.2109z"/>
  <path d="m58.738 73.098c0.039063 0.1875 0.14453 0.35547 0.30078 0.46875 0.90625 0.64062 1.8984 1.1484 2.9688 1.5 0.98047 0.32422 1.9922 0.50781 3.0195 0.55859 0.19531 0.007812 0.38281-0.0625 0.53125-0.1875l11.086-9.7148c0.14453-0.12891 0.23828-0.30469 0.25781-0.5 0.1875-2.2148-0.29297-4.457-1.3672-6.4219-0.09375-0.16797-0.25-0.29297-0.4375-0.35156l-14.027-4.3828c-0.18359-0.058594-0.38281-0.046875-0.55859 0.039063-1.8672 0.92969-3.4219 2.3242-4.5352 4.0781-0.10156 0.16406-0.13672 0.35938-0.097656 0.54688z"/>
  <path d="m64.094 25.93c0.72266-0.76953 1.543-1.6406 1.543-2.8594 0-1.4336-1.1641-2.5977-2.5977-2.5977-1.4297 0-2.5977 1.1641-2.5977 2.5977 0 0.3125 0.25391 0.5625 0.5625 0.5625 0.3125 0 0.5625-0.25391 0.5625-0.5625 0-0.80859 0.66016-1.4688 1.4688-1.4688s1.4688 0.66016 1.4688 1.4688c0 0.77344-0.60156 1.4102-1.2383 2.0898-0.20312 0.21875-0.41797 0.44141-0.60547 0.67188-1.0586 1.2891-1.8867 2.8438-2.4727 4.6172-0.054688 0.17188-0.027344 0.35938 0.078125 0.50391s0.27344 0.23438 0.45312 0.23438c0.64844 0.003906 1.3555 0.003906 2.0117 0.003906 1.3086 0 2.4102-0.003906 2.4102-0.003906l-0.003906-1.1289s-1.8555 0.007812-3.6172 0.003906c0.51562-1.3359 1.1875-2.5156 2.0078-3.5195 0.17578-0.19531 0.36719-0.39844 0.56641-0.61328z"/>
  <path d="m69.129 25.832c-1.0586 1.293-1.8906 2.8438-2.4727 4.6172-0.054688 0.17188-0.027344 0.35938 0.078125 0.50391s0.27344 0.23438 0.45312 0.23438c0.56641 0.007812 1.2461 0.007812 1.9023 0.007812 1.3008 0 2.5078-0.007812 2.5273-0.007812 0.3125-0.003906 0.5625-0.25781 0.55859-0.56641-0.003906-0.3125-0.24219-0.55469-0.56641-0.55859-0.023437 0-1.9961 0.015625-3.6172 0.007812 0.51562-1.3359 1.1914-2.5195 2.0117-3.5234 0.16406-0.19922 0.35156-0.39844 0.55469-0.61328 0.72266-0.76953 1.543-1.6406 1.543-2.8594 0-1.4336-1.1641-2.5977-2.5977-2.5977-1.4297 0-2.5977 1.1641-2.5977 2.5977 0 0.3125 0.25391 0.5625 0.5625 0.5625 0.3125 0 0.5625-0.25391 0.5625-0.5625 0-0.80859 0.66016-1.4688 1.4688-1.4688s1.4688 0.66016 1.4688 1.4688c0 0.77344-0.60156 1.4102-1.2383 2.0859-0.20312 0.21484-0.41406 0.44141-0.60156 0.67188z"/>
  <path d="m73.09 23v5.7148c0 1.3945 1.1328 2.5273 2.5273 2.5273 1.3945 0 2.5273-1.1328 2.5273-2.5273v-5.7148c0-1.3945-1.1328-2.5273-2.5273-2.5273-1.3945 0-2.5273 1.1367-2.5273 2.5273zm3.9258 0v5.7148c0 0.76953-0.62891 1.3984-1.3984 1.3984-0.76953 0-1.3984-0.62891-1.3984-1.3984v-5.7148c0-0.76953 0.62891-1.3984 1.3984-1.3984 0.77344 0 1.3984 0.62891 1.3984 1.3984z"/>
  <path d="m56.98 22.121c0.3125 0 0.5625-0.25391 0.5625-0.5625 0-0.3125-0.25391-0.5625-0.5625-0.5625h-4.7461c-0.3125 0-0.5625 0.25391-0.5625 0.5625v9.2578c0 0.3125 0.25391 0.5625 0.5625 0.5625h4.7461c0.3125 0 0.5625-0.25391 0.5625-0.5625 0-0.3125-0.25391-0.5625-0.5625-0.5625h-4.1797v-4.0664h2.043c0.3125 0 0.5625-0.25391 0.5625-0.5625 0-0.3125-0.25391-0.5625-0.5625-0.5625h-2.043v-2.9375z"/>
 </g>
</svg>
