<?xml version="1.0" encoding="UTF-8"?>
<svg width="100pt" height="100pt" version="1.1" viewBox="0 0 100 100" xmlns="http://www.w3.org/2000/svg">
 <path d="m80.086 56.312c0.28906-1.7266 0.43359-3.4805 0.43359-5.2305 0-2.0195-0.19531-4.0508-0.57812-6.0312-0.38672-2-0.96875-3.9688-1.7344-5.8516-1.5273-3.7617-3.7383-7.1523-6.5859-10.09l6.5117-6.5117c0.20703-0.20703 0.20703-0.54688 0-0.75781-0.20703-0.20703-0.54687-0.20703-0.75781 0l-6.5117 6.5117c-2.9297-2.8359-6.3125-5.0391-10.066-6.5625-1.8828-0.76562-3.8516-1.3477-5.8516-1.7344-1.9805-0.38281-4.0117-0.57813-6.0312-0.57813-1.75 0-3.5078 0.14453-5.2305 0.43359-0.007813 0-0.011719 0.003906-0.015625 0.003906-0.26172 0.042969-0.52344 0.089844-0.78125 0.14063-2 0.38672-3.9688 0.96875-5.8516 1.7344-3.918 1.5898-7.4336 3.9258-10.449 6.9375l-0.007813 0.007813c-3.3242 3.3281-5.5117 7.082-6.4961 11.156-1.0547 4.3633-0.73047 9.1094 0.96484 14.098 0.097656 0.28125 0.39844 0.42969 0.67969 0.33594s0.42969-0.39844 0.33594-0.67969c-1.6641-4.9062-1.9688-9.4766-0.91406-13.68 0.14453 0.77344 0.36719 1.4805 0.65625 2.1211 0.007812 0.015624 0.015624 0.03125 0.023437 0.046874 0.097656 0.20703 0.19922 0.40625 0.30859 0.60156 0.87109 1.5234 2.2227 2.6445 4.0195 3.3359 0.0625 0.023438 0.12891 0.035157 0.19141 0.035157 0.21484 0 0.41797-0.12891 0.5-0.34375 0.10547-0.27734-0.03125-0.58594-0.30859-0.69141-1.2578-0.48047-2.2461-1.1875-2.9766-2.125 0.57812 0.15625 1.1602 0.23438 1.7422 0.23438 0.13281 0 0.26953-0.003907 0.39844-0.011719 1.2656-0.078125 2.5391-0.52734 3.793-1.3398 0.24609-0.16016 0.32031-0.49219 0.15625-0.73828-0.16016-0.24609-0.49219-0.32031-0.73828-0.15625-2.1133 1.3672-4.1445 1.5508-6.2109 0.55859-0.48828-1.1445-0.72266-2.5234-0.71484-4.1406 0.93359-2.3164 2.3086-4.5117 4.1289-6.5742-0.10156 0.86328-0.11328 1.6875-0.042969 2.4648 0.125 1.3203 0.5 2.5391 1.1211 3.6211 0.097657 0.17188 0.28125 0.26953 0.46484 0.26953 0.089844 0 0.18359-0.023437 0.26562-0.070312 0.25781-0.14453 0.34766-0.47266 0.19922-0.73047-1.0742-1.875-1.3008-4.2188-0.67969-6.9609 3.9023-3.8672 8.6016-6.4609 13.57-7.7852-3.0547 2.1328-5.2305 4.2422-6.6133 6.4023-0.97656 1.5273-1.5703 3.1133-1.7578 4.7109-0.19922 1.6914 0.050781 3.4492 0.73828 5.2227 0.082032 0.21094 0.28516 0.34375 0.49609 0.34375 0.0625 0 0.12891-0.011719 0.19531-0.035156 0.27734-0.10547 0.41016-0.41406 0.30469-0.69141-1.2227-3.1562-0.92188-6.0898 0.92188-8.9688 0.14453-0.22656 0.30078-0.45312 0.46484-0.67969 0.21094 1.2969 0.77734 2.4531 1.6719 3.3945 0.57031 0.60156 1.2578 1.0977 2.0391 1.4727 0.77344 0.37109 1.6211 0.61719 2.5234 0.73047 0.023438 0.003907 0.046875 0.003907 0.066406 0.003907 0.26562 0 0.49609-0.19922 0.53125-0.46875 0.039063-0.29297-0.17188-0.55859-0.46484-0.59766-3.2578-0.41016-5.4023-2.7109-5.3945-5.7539 1.6758-1.8945 4.043-3.7773 7.1758-5.7148 1.6523-0.27344 3.3242-0.40625 4.9961-0.40625 5.5742 0 11.152 1.5156 16.051 4.5469-1.3242-0.058594-2.5469 0.011719-3.6484 0.21094-1.7852 0.32422-3.3203 0.99219-4.5664 1.9922-0.23047 0.18359-0.26953 0.52344-0.082032 0.75391 0.10547 0.13281 0.26172 0.19922 0.41797 0.19922 0.11719 0 0.23438-0.039062 0.33594-0.11719 2.1758-1.7422 5.2461-2.3359 9.3828-1.8047 1.1484 0.83203 2.2539 1.7578 3.3008 2.7695l-5.5938 5.5938c-2.3086-0.69922-4.6016-1.1602-6.8594-1.3828-2.0312-0.71875-3.8359-1.5859-5.4062-2.5977-0.003907-0.007813-0.007813-0.015625-0.011719-0.023438-1.2383-2.2812-0.74219-4.4961 1.3281-5.9219 0.24219-0.16797 0.30469-0.5 0.13672-0.74219-0.16797-0.24219-0.5-0.30469-0.74219-0.13672-1.2148 0.83594-2.0195 1.9531-2.3203 3.2266-0.1875 0.79297-0.17969 1.625 0.027344 2.4609-1.6719-1.3281-3.0078-2.8594-3.9922-4.582-0.14453-0.25781-0.47266-0.34766-0.73047-0.19922s-0.34766 0.47266-0.19922 0.73047c1.1445 2.0039 2.7578 3.7852 4.793 5.293 1.1758 0.87109 2.4922 1.6523 3.9414 2.3398-0.97656 0.003906-1.9453 0.050782-2.9062 0.14844-2.043 0.20703-4.0391 0.625-5.9336 1.2539-0.90234 0.29688-1.7891 0.64453-2.6445 1.0391-0.007812 0.003907-0.015625 0.007813-0.023437 0.011719-0.90234 0.41406-1.7812 0.87891-2.6211 1.3867-1.5352 0.93359-2.9688 2.0312-4.2617 3.2656-1.2969 1.2344-2.4648 2.6211-3.4727 4.1172-2.0703 3.0664-3.4648 6.5664-4.1445 10.395-0.050782 0.28906 0.14062 0.56641 0.43359 0.62109 0.03125 0.007812 0.0625 0.007812 0.09375 0.007812 0.25391 0 0.48047-0.18359 0.52734-0.44141 1.2891-7.2305 5.2422-13.223 11.145-16.902-0.86719 1.0391-1.6406 2.0977-2.3125 3.1562-1.0508 1.668-1.8555 3.3672-2.3945 5.0508-1.2031 3.7578-0.78125 6.4492-0.42578 7.7188 0.066406 0.23438 0.28125 0.39062 0.51562 0.39062 0.046875 0 0.097656-0.007812 0.14453-0.019531 0.28516-0.078125 0.44922-0.375 0.37109-0.66016-0.32422-1.1523-0.70312-3.6133 0.41406-7.1055 0.078126-0.24219 0.16016-0.48438 0.25-0.72656 0.32422 1.0234 0.82813 1.8789 1.5078 2.5547 1.0273 1.0273 2.4688 1.6562 4.2773 1.8672 0.019531 0.003907 0.042969 0.003907 0.0625 0.003907 0.26953 0 0.5-0.19922 0.53125-0.47266 0.035156-0.29297-0.17578-0.55859-0.46875-0.59375-3.0938-0.35937-4.793-2.0195-5.1875-5.0703 1.2305-2.5859 3.0898-5.1367 5.5547-7.6133 1.8672-0.84766 3.8398-1.4609 5.8906-1.8438-0.50781 0.73438-0.88672 1.5156-1.1211 2.3047-0.34766 1.1836-0.35938 2.3711-0.035157 3.4375 0.27734 0.91797 0.78516 1.707 1.5039 2.3477 0.74609 0.66406 1.6914 1.1328 2.8047 1.3906 0.039063 0.011718 0.082031 0.015624 0.12109 0.015624 0.24219 0 0.46484-0.16797 0.51953-0.41406 0.066406-0.28906-0.11328-0.57422-0.39844-0.64062-1.8125-0.42188-3.0664-1.4883-3.5273-3.0117-0.54297-1.793 0.085937-3.9023 1.6836-5.6758 1.1797-0.14844 2.3789-0.22266 3.6016-0.22266 2.9531 0 6.0156 0.44141 9.1055 1.3242l-22.98 23c-6.4219 2.7695-11.047 2.8164-14.145 0.14844-0.22266-0.19141-0.5625-0.16797-0.75391 0.054687-0.19141 0.22266-0.16797 0.5625 0.054687 0.75391 0.87891 0.75781 1.875 1.3281 2.9648 1.6992 1.0391 0.35547 2.1914 0.53125 3.4258 0.53125h0.13281c1.2617-0.011719 2.6484-0.21094 4.125-0.58984 0.73438-0.1875 1.5039-0.42578 2.3008-0.70703l-9.3672 9.3672c-0.20703 0.20703-0.20703 0.54688 0 0.75781 0.10547 0.10547 0.24219 0.15625 0.37891 0.15625 0.13672 0 0.27344-0.050781 0.37891-0.15625l9.4102-9.4102c-0.29297 0.82031-0.53516 1.6133-0.73047 2.3672-0.37891 1.4766-0.57422 2.8633-0.58984 4.125-0.015624 1.2852 0.16406 2.4805 0.53125 3.5586 0.37109 1.0898 0.94141 2.0859 1.6992 2.9648 0.10547 0.12109 0.25781 0.1875 0.40625 0.1875 0.125 0 0.24609-0.042969 0.34766-0.12891 0.22266-0.19141 0.25-0.53125 0.054687-0.75391-2.6797-3.1094-2.6172-7.7617 0.17969-14.219l22.934-22.934c1.2539 4.3828 1.6133 8.7031 1.1016 12.746-1.7695 1.5859-3.875 2.207-5.6602 1.6602-1.5195-0.46484-2.5859-1.7148-3.0039-3.5234-0.066406-0.28906-0.35547-0.46875-0.64062-0.39844-0.28906 0.066406-0.46875 0.35547-0.39844 0.64062 0.25781 1.1094 0.72266 2.0508 1.3867 2.8008 0.64063 0.71875 1.4297 1.2266 2.3438 1.5078 0.51953 0.15625 1.0625 0.23828 1.625 0.23828 0.59375 0 1.1992-0.089844 1.8047-0.26562 0.78906-0.22656 1.5664-0.60547 2.3008-1.1094-0.38281 2.0586-1.0039 4.0352-1.8516 5.9062-2.4648 2.4492-5.0078 4.2969-7.5859 5.5234-3.0547-0.39453-4.7109-2.0938-5.0703-5.1875-0.035157-0.29297-0.30078-0.50391-0.59375-0.46875-0.29297 0.035156-0.50391 0.30078-0.46875 0.59375 0.21094 1.8086 0.83984 3.25 1.8672 4.2773 0.67969 0.67969 1.5352 1.1836 2.5547 1.5078-0.24219 0.089844-0.48438 0.17188-0.72656 0.25-3.4883 1.1172-5.9492 0.73828-7.1055 0.41406-0.28516-0.078125-0.57812 0.085938-0.66016 0.37109-0.078125 0.28516 0.085938 0.57812 0.37109 0.66016 0.63281 0.17969 1.6211 0.37109 2.9219 0.37109s2.9141-0.19531 4.7969-0.79688c1.6836-0.53906 3.3828-1.3438 5.0508-2.3945 1.0508-0.66016 2.0977-1.4258 3.125-2.2852-3.6797 5.8906-9.6562 9.8359-16.871 11.121-0.28906 0.050781-0.48438 0.32812-0.43359 0.62109 0.046875 0.26172 0.27344 0.44141 0.52734 0.44141 0.03125 0 0.0625-0.003906 0.09375-0.007812 3.8242-0.68359 7.3164-2.0742 10.383-4.1445 1.4922-1.0078 2.875-2.1758 4.1094-3.4688 1.2305-1.293 2.3281-2.7227 3.2617-4.2578 0.49219-0.80859 0.94141-1.6484 1.3438-2.5195 0.058594-0.070313 0.09375-0.15625 0.10938-0.24219 0.37109-0.82422 0.70312-1.6719 0.98828-2.5391 0.625-1.8945 1.0469-3.8906 1.2539-5.9414 0.09375-0.93359 0.14453-1.875 0.14844-2.8242 0.69141 1.4453 1.4766 2.7578 2.3594 3.9258 1.4961 1.9844 3.2773 3.5781 5.293 4.7305 0.085937 0.046875 0.17578 0.070312 0.26562 0.070312 0.1875 0 0.36719-0.097656 0.46484-0.26953 0.14453-0.25781 0.058594-0.58594-0.19922-0.73047-1.75-1-3.2969-2.3398-4.6289-4.0039 0.45312 0.11328 0.90625 0.17188 1.3516 0.17188 0.39062 0 0.78125-0.042969 1.1562-0.13281 1.2773-0.30469 2.3906-1.1094 3.2266-2.3203 0.16797-0.24219 0.10547-0.57422-0.13672-0.74219-0.24219-0.16797-0.57422-0.10547-0.74219 0.13672-1.4258 2.0703-3.6367 2.5664-5.9219 1.3281-0.03125-0.015625-0.058594-0.027343-0.089844-0.039062-0.99219-1.5352-1.8398-3.2891-2.5391-5.2578-0.21484-2.3047-0.68359-4.6445-1.3945-7.0039l5.5938-5.5938c1.0195 1.0547 1.9492 2.1641 2.7891 3.3203 0.53125 4.1406-0.0625 7.2109-1.8047 9.3828-0.18359 0.23047-0.14844 0.56641 0.082032 0.75391 0.097656 0.078125 0.21875 0.11719 0.33594 0.11719 0.15625 0 0.3125-0.066407 0.41797-0.19922 1-1.2461 1.6719-2.7812 1.9922-4.5664 0.19922-1.1016 0.26953-2.3242 0.21094-3.6484 3.9375 6.3672 5.3164 13.879 4.1367 21.047-1.9336 3.1289-3.8203 5.5-5.7109 7.1758-3.0391 0.011719-5.3398-2.1328-5.7539-5.3945-0.039062-0.29297-0.30469-0.5-0.59766-0.46484-0.29297 0.039062-0.5 0.30469-0.46484 0.59766 0.11328 0.90234 0.35938 1.75 0.73047 2.5234 0.375 0.78516 0.87109 1.4688 1.4727 2.0391 0.94531 0.89453 2.1016 1.4609 3.3945 1.6719-0.22656 0.16406-0.45312 0.32031-0.67969 0.46484-2.8789 1.8438-5.8125 2.1445-8.9688 0.92188-0.27734-0.10547-0.58594 0.03125-0.69141 0.30469-0.10547 0.27734 0.03125 0.58594 0.30469 0.69141 1.3789 0.53516 2.75 0.80469 4.0859 0.80469 0.38281 0 0.76172-0.023438 1.1367-0.066407 1.5977-0.1875 3.1836-0.77734 4.7109-1.7578 2.1602-1.3828 4.2695-3.5586 6.4023-6.6133-1.3203 4.9688-3.918 9.6641-7.7852 13.566-2.7422 0.625-5.0859 0.39453-6.9609-0.67969-0.25781-0.14453-0.58594-0.058594-0.73047 0.19922-0.14453 0.25781-0.058594 0.58594 0.19922 0.73047 1.082 0.62109 2.3008 0.99609 3.6211 1.1211 0.32422 0.03125 0.66016 0.046875 1 0.046875 0.47266 0 0.96484-0.03125 1.4648-0.089844-2.0625 1.8203-4.2578 3.1953-6.5742 4.1289-1.7148 0.011719-3.1562-0.25391-4.3398-0.80078-0.92969-1.9414-0.6875-3.8945 0.75781-6.1211 0.16016-0.24609 0.089844-0.57812-0.15625-0.73828-0.24609-0.16016-0.57812-0.089844-0.73828 0.15625-0.83984 1.293-1.3086 2.5117-1.4375 3.7188-0.074219 0.69141-0.03125 1.3789 0.125 2.0586-0.83984-0.71484-1.4805-1.6523-1.9297-2.8164-0.10547-0.27734-0.41406-0.41406-0.69141-0.30859-0.27734 0.10547-0.41406 0.41406-0.30859 0.69141 0.69141 1.7969 1.8125 3.1484 3.3359 4.0195 0.12891 0.074219 0.26172 0.14453 0.39844 0.21094 0.007812 0.003906 0.011718 0.007812 0.019531 0.007812 0.70312 0.34766 1.4922 0.60547 2.3594 0.76953-4.1992 1.0547-8.7695 0.75-13.68-0.91406-0.28125-0.097656-0.58594 0.054688-0.67969 0.33594s0.054687 0.58594 0.33594 0.67969c3.0781 1.0469 6.0664 1.5703 8.9258 1.5703 1.7734 0 3.5-0.20313 5.1719-0.60547 4.0742-0.98438 7.8281-3.1719 11.156-6.4961l0.003907-0.003906c3.0156-3.0156 5.3477-6.5312 6.9375-10.449 0.76562-1.8828 1.3477-3.8516 1.7344-5.8516 0.050781-0.26172 0.097656-0.51953 0.14062-0.78125 0.011719-0.011719 0.011719-0.015626 0.011719-0.023438z"/>
</svg>
