<?xml version="1.0" encoding="UTF-8"?>
<svg width="100pt" height="100pt" version="1.1" viewBox="0 0 100 100" xmlns="http://www.w3.org/2000/svg">
 <g>
  <path d="m72.703 28.551 6.0508-6.0508c0.33594-0.33594 0.39844-0.87891 0.10156-1.2461-0.34375-0.42188-0.96484-0.44531-1.3398-0.070312l-6.0859 6.0859c-0.28516 0.28516-0.28125 0.75 0.011718 1.0312 0.039063 0.039063 0.078125 0.078125 0.12109 0.11719 0.039062 0.039062 0.078125 0.078125 0.11719 0.12109 0.27344 0.29297 0.73828 0.30078 1.0234 0.011719z"/>
  <path d="m39.895 60.102c-0.46875 0.1875-1.3633 0.49609-1.7891 0.64453-0.15625 0.054687-0.29688 0.14062-0.41016 0.25781l-8.8125 8.8125c-0.35156 0.35156-0.35156 0.92578 0 1.2773 0.17578 0.17578 0.40625 0.26562 0.64063 0.26562 0.23047 0 0.46094-0.089844 0.64062-0.26562l8.8516-8.8516c0.11719-0.11719 0.20312-0.25391 0.25781-0.41016 0.13672-0.41016 0.4375-1.2656 0.62109-1.7305z"/>
  <path d="m67.211 57.48c0.29687-0.035157 0.57031 0.17188 0.60547 0.46875 0.41797 3.3008 2.7578 5.4609 5.8203 5.4609 1.9062-1.6836 3.8008-4.0508 5.7109-7.1211 0.050782-0.085937 0.089844-0.17969 0.10547-0.27734 1.0859-6.7852-0.085937-13.859-3.5156-20.008-0.17969-0.32031-0.66797-0.19922-0.67969 0.16406-0.066406 2.875-0.8125 5.1719-2.25 6.9648-0.10547 0.13281-0.26562 0.20313-0.42187 0.20313-0.12109 0-0.23828-0.039063-0.33984-0.12109-0.23438-0.1875-0.26953-0.52734-0.082032-0.76172 1.7422-2.168 2.3477-5.2188 1.8555-9.3164-0.015625-0.125-0.0625-0.24609-0.13672-0.34766-0.58984-0.78125-1.5977-1.9492-2.207-2.6406-0.27734-0.3125-0.75781-0.32813-1.0508-0.03125l-5.125 5.125c0.72266 2.3867 1.1914 4.7539 1.4141 7.082 0.70703 2.0039 1.5742 3.7891 2.582 5.3516 0.027344 0.011719 0.058594 0.019531 0.085937 0.035157 2.3164 1.2578 4.5586 0.75391 6-1.3438 0.16797-0.24609 0.50781-0.30859 0.75391-0.14063 0.24609 0.16797 0.30859 0.50781 0.14062 0.75391-1.1289 1.6445-2.7031 2.5-4.4297 2.5-0.45312 0-0.91406-0.0625-1.3789-0.17969 1.3438 1.6719 2.8945 3.0273 4.6523 4.0352 0.24609 0.14062 0.375 0.44141 0.26172 0.70312-0.089843 0.21094-0.29297 0.33203-0.5 0.33203-0.089843 0-0.18359-0.023438-0.26953-0.070313-3.2734-1.8711-5.875-4.8164-7.7578-8.7734-0.019532 4.082-0.83984 7.9727-2.4414 11.504-0.015625 0.050781-0.039062 0.097656-0.066406 0.14453-0.41016 0.89453-0.87109 1.7617-1.3867 2.6055-3.8789 6.3828-10.27 10.656-17.996 12.031-0.03125 0.003906-0.0625 0.007812-0.097656 0.007812-0.27734 0-0.51953-0.21484-0.53906-0.50781-0.019532-0.28125 0.20312-0.52734 0.48438-0.57422 7.293-1.3086 13.332-5.3047 17.055-11.262-4.8828 4.0586-9.5508 5.5508-13.145 5.5508-1.082 0-2.0703-0.13672-2.9336-0.375-0.25781-0.070313-0.44531-0.32031-0.41406-0.58984 0.039062-0.33984 0.37109-0.55078 0.6875-0.46094 2.0273 0.57031 4.793 0.49609 7.9453-0.67187-2.625-0.82422-4.1367-2.7891-4.4922-5.8672-0.035156-0.29688 0.17969-0.56641 0.47656-0.60156 0.29688-0.03125 0.56641 0.17969 0.60156 0.47656 0.36328 3.1367 2.0469 4.8555 5.1406 5.2578 2.4297-1.1641 5.0352-2.9688 7.6875-5.5977 0.85938-1.8945 1.4805-3.8984 1.8672-5.9844-1.3203 0.91016-2.7578 1.3945-4.1445 1.3945-0.56641 0-1.1211-0.078124-1.6562-0.24219-1.8945-0.57812-3.2734-2.1719-3.7852-4.3672-0.074219-0.32031 0.15625-0.64453 0.5-0.66406 0.27344-0.015625 0.50391 0.19141 0.56641 0.45703 0.42969 1.8164 1.5078 3.0703 3.0352 3.5352 1.8086 0.55078 3.9375-0.078124 5.7305-1.6797 0.52344-4.1016 0.15625-8.4766-1.1133-12.918l-22.863 22.859-0.38281 0.38281c-0.12891 0.29688-0.25 0.58984-0.36719 0.87891-0.28125 0.69531-0.53516 1.375-0.75 2.0234-1.7656 5.3281 0.042969 11.199 4.6055 14.668 1.8203 1.3828 3.9883 2.2109 6.2461 2.5781 2.6289 0.42969 5.1523 0.43359 7.5586 0.023438 0.36719-0.0625 0.41406-0.57422 0.058593-0.69922-0.33594-0.11719-0.65625-0.25-0.96094-0.40234-0.007813-0.003906-0.015625-0.007812-0.023437-0.011718-1.7383-0.875-2.9922-2.3008-3.75-4.2695-0.11719-0.30859 0.0625-0.65625 0.40234-0.72656 0.26562-0.054688 0.52734 0.11719 0.625 0.37109 0.45312 1.168 1.0977 2.1055 1.9414 2.8242-0.4375-1.8711 0-3.8047 1.3281-5.8594 0.16406-0.25 0.5-0.32422 0.75-0.16016s0.32422 0.5 0.16016 0.75c-1.4609 2.2617-1.7031 4.2383-0.76172 6.207 1.1562 0.53516 2.5586 0.80469 4.2109 0.8125 0.097656 0 0.19922-0.019531 0.28906-0.054687 1.9922-0.8125 3.8906-1.9453 5.6914-3.4023 0.26953-0.21875 0.10938-0.65625-0.23438-0.64453-0.125 0.003906-0.24609 0.007812-0.37109 0.007812-1.7539 0-3.3281-0.39453-4.7031-1.1797-0.26172-0.14844-0.35156-0.48047-0.20312-0.73828 0.14844-0.26172 0.48047-0.35156 0.73828-0.20313 1.8516 1.0586 4.1484 1.3047 6.832 0.73438 0.14062-0.03125 0.27344-0.10547 0.375-0.20703 3.3047-3.3828 5.6719-7.3438 7.1094-11.555 0.13281-0.38672-0.37891-0.66016-0.63281-0.33984-3.6172 4.6172-7.2578 6.8672-11.125 6.8672-1.3555 0-2.7344-0.27734-4.1523-0.82031-0.25-0.097656-0.41797-0.36328-0.35938-0.625 0.070312-0.33594 0.42188-0.51562 0.72656-0.39453 3.4102 1.3242 6.6172 0.87891 9.7695-1.4141-3.0273-0.5-5.2344-2.8906-5.668-6.3164-0.027344-0.30078 0.18359-0.57422 0.48047-0.61328z"/>
  <path d="m40.555 58.656 23.293-23.293c-4.4297-1.2656-8.7891-1.6328-12.879-1.1133-1.6133 1.7969-2.2539 3.9297-1.7031 5.7422 0.46484 1.5312 1.7188 2.6094 3.5352 3.043 0.27344 0.066406 0.48828 0.30859 0.46094 0.58594-0.027344 0.28906-0.26953 0.49219-0.53906 0.49219-0.039062 0-0.082031-0.003906-0.125-0.015625-2.1992-0.51172-3.793-1.8945-4.3711-3.793-0.5625-1.8516-0.125-3.9492 1.1641-5.8125-2.0781 0.38672-4.0781 1.0039-5.9688 1.8594-2.6484 2.6602-4.4609 5.2812-5.6289 7.7188 0.39844 3.0781 2.1055 4.7617 5.2109 5.1367 0.28906 0.035157 0.53516 0.26953 0.52344 0.55859-0.007813 0.30078-0.25391 0.52734-0.54297 0.52734-0.019531 0-0.042969 0-0.0625-0.003907-3.0781-0.35547-5.043-1.8672-5.8672-4.4922-1.168 3.1523-1.2422 5.918-0.67188 7.9453 0.082032 0.28906-0.085937 0.58594-0.375 0.66797-0.050781 0.015625-0.097656 0.019532-0.14844 0.019532-0.23828 0-0.45312-0.15625-0.52344-0.39453-0.71875-2.5625-0.50781-6.1914 1.4023-10.277 0.003907-0.003906 0.003907-0.011718 0.007813-0.015624 0.87891-1.8711 2.1172-3.8398 3.7891-5.8438-5.9844 3.7305-9.9922 9.8008-11.301 17.129-0.046875 0.26172-0.27734 0.44531-0.53125 0.44922-0.035156 0-0.070313-0.003906-0.10547-0.011718-0.29297-0.058594-0.47656-0.36719-0.42188-0.66016 1.3867-7.7227 5.6602-14.109 12.039-17.988 4.2305-2.5703 9.125-3.875 14.32-3.8867-4.0312-1.9023-7-4.5-8.8555-7.7422-0.16406-0.28516-0.039063-0.66016 0.28516-0.77734 0.25391-0.09375 0.53906 0.03125 0.67188 0.26953 0.99609 1.7344 2.3477 3.2734 4.0273 4.6094-0.54687-2.2305 0.27344-4.3438 2.332-5.7578 0.24609-0.16797 0.58594-0.10547 0.75391 0.14062s0.10547 0.58594-0.14062 0.75391c-2.1016 1.4453-2.6016 3.6875-1.3438 6 1.6055 1.0469 3.4375 1.9297 5.5117 2.6641 2.2773 0.22266 4.5977 0.6875 6.9336 1.3945l5.1211-5.1211c0.29688-0.29688 0.28125-0.77734-0.03125-1.0547-0.6875-0.60547-1.8477-1.6055-2.625-2.1875-0.10156-0.074219-0.22266-0.12109-0.34766-0.13672-4.0938-0.49219-7.1406 0.11719-9.3086 1.8555-0.10156 0.082031-0.21875 0.12109-0.33984 0.12109-0.16016 0-0.31641-0.070313-0.42188-0.20313-0.1875-0.23437-0.14844-0.57422 0.082032-0.76172 1.793-1.4375 4.0859-2.1836 6.957-2.25 0.36328-0.007813 0.48438-0.5 0.16406-0.67969-6.1523-3.4258-13.223-4.5977-20-3.5117-0.097657 0.015624-0.19531 0.050781-0.27734 0.10547-3.0703 1.9102-5.4375 3.8047-7.1172 5.7109-0.003906 3.0586 2.1445 5.3789 5.418 5.8125 0.28906 0.039062 0.53125 0.27344 0.51953 0.5625-0.011718 0.30078-0.25781 0.52344-0.54297 0.52344-0.023438 0-0.046876 0-0.070313-0.003906-3.4258-0.43359-5.8125-2.6406-6.3164-5.668-2.2812 3.1406-2.7305 6.3359-1.4258 9.7305 0.10156 0.25781 0.019531 0.57031-0.22266 0.70703-0.085937 0.046875-0.17578 0.070313-0.26562 0.070313-0.21875 0-0.42188-0.13281-0.50391-0.34766-2.125-5.4766-0.20703-10.414 6.0312-15.301 0.32031-0.25391 0.050781-0.76172-0.33984-0.63281-4.2109 1.4375-8.168 3.8047-11.551 7.1055-0.10547 0.10156-0.17578 0.23437-0.20703 0.375-0.57031 2.6836-0.32422 4.9805 0.73438 6.832 0.14844 0.26172 0.058593 0.58984-0.20312 0.73828-0.085938 0.046875-0.17578 0.070312-0.26953 0.070312-0.1875 0-0.37109-0.097656-0.47266-0.27344-0.83984-1.4688-1.2305-3.168-1.1719-5.0742 0.011719-0.34375-0.42969-0.50391-0.64453-0.23438-1.457 1.8008-2.5898 3.6992-3.4023 5.6914-0.039062 0.09375-0.058594 0.19141-0.054687 0.29297 0.007812 1.5625 0.25 2.8984 0.73047 4.0156 2.0898 1 4.1484 0.81641 6.2891-0.56641 0.25-0.16406 0.58594-0.089844 0.75 0.16016s0.089844 0.58594-0.16016 0.75c-1.4141 0.91406-2.8359 1.3711-4.2539 1.3711-0.58594 0-1.1719-0.082031-1.7578-0.23828 0.73438 0.9375 1.7227 1.6523 2.9805 2.1406 0.25 0.097656 0.41797 0.34766 0.37109 0.61328-0.050782 0.27344-0.28516 0.44922-0.53516 0.44922-0.066406 0-0.12891-0.011719-0.19531-0.035157-2.043-0.78516-3.5-2.1094-4.3633-3.9531-0.03125-0.046876-0.050782-0.097657-0.066407-0.15234-0.09375-0.20703-0.17578-0.42188-0.25391-0.64453-0.125-0.35156-0.63281-0.30469-0.69531 0.0625-0.41406 2.4102-0.41016 4.9336 0.019532 7.5664 0.36719 2.2539 1.1992 4.4258 2.5781 6.2461 3.4648 4.5625 9.3398 6.3672 14.664 4.6016 0.625-0.20703 1.2812-0.44922 1.9531-0.72266 0.30859-0.10938 0.60156-0.23047 0.89453-0.35547z"/>
 </g>
</svg>
