<?xml version="1.0" encoding="utf-8"?>
<!-- Generator: Adobe Illustrator 27.2.0, SVG Export Plug-In . SVG Version: 6.00 Build 0)  -->
<svg version="1.1" id="anise_star" xmlns="http://www.w3.org/2000/svg" xmlns:xlink="http://www.w3.org/1999/xlink" x="0px" y="0px"
	 viewBox="0 0 569.5946655 500" enable-background="new 0 0 569.5946655 500" xml:space="preserve">
<g id="outline">
	<path d="M193.8880768,271.7485046c0.4338989-0.5574646,0.725296-1.0831909,1.0198364-1.5456238
		c-0.3705292-0.2787781-0.7886658-0.5257874-1.1750336-0.7445374
		C192.9442291,270.3549194,192.8047943,271.3146362,193.8880768,271.7485046z"/>
	<path d="M174.0128937,297.8538513c-1.1117401,2.4420471,3.5569458,4.7003479,5.3211365,3.8040466
		C179.3023529,299.3393555,175.9925079,299.8016968,174.0128937,297.8538513z"/>
	<path d="M524.0153809,212.7310638c-16.4544678-8.0101166-29.1365662-18.373764-41.9896851-29.8173828
		c-2.8442688-2.5687103-4.608551-6.3093719-7.4844971-9.1251678c-3.3858948-3.2180176-7.5319214-6.8985443-11.2282715-10.1766815
		c-6.3252258-5.5365601-12.9291382-10.9812775-19.6566162-14.291275
		c-15.7290955-7.6395111-32.7694702-9.6191254-46.2877502-7.668045c2.5687866-3.2180023,13.3789368-18.497345,16.7172852-26.9732056
		c2.5054321-6.4329529,16.6730347-34.4893646,11.5228577-37.2417984
		c-3.0786743-1.7008286-11.2282104,5.0424347-14.3354187,6.4645615
		c-6.4645386,2.8474884-49.6293335,10.4871521-61.8014832,13.8572083
		c-11.6304932,3.3415222-23.6158447,7.3324356-34.2581177,15.6214142
		c-10.4840088,8.3205032-22.4248962,24.8986206-25.595459,37.8277283
		c-6.4645691-17.6296387-18.8678894-73.8627319-30.4667664-87.5362167
		c-24.5438538-28.9813538-90.1334686-36.5291214-100.1708832-41.2611618
		c-10.3762512-4.8555527-20.6922913-14.5382061-29.9726562-19.0548363c-2.6130753-1.203562-7.8550797-3.5854671-9.8821411-3.3383691
		c-5.9071503,0.5574052-8.3048172,7.3608851-9.5717545,12.6821003c-2.0588226,9.0301094-2.7999573,47.1682358,10.9653549,71.9464951
		c-14.645874-1.4538116-29.1839981,1.8845596-43.9375381,0.3072357c-41.3720589-4.4850235-51.9193497-1.66922-53.157753,1.6723785
		c-12.1088514,32.9404984,36.9028778,92.018013,48.9039841,101.8558578
		c10.6232758,8.78302,31.7812347,18.5891876,42.2208633,21.062912
		c-3.5252533,3.7121277-35.5852661,37.0865936-46.0723419,47.2316132
		c-13.315567,12.9006653-27.8062439,24.7782593-40.9380836,34.3658447
		c-10.021574,7.3608093-24.9746819,8.78302-27.4958572,19.732605
		c-2.0588264,9.0016479,70.9234238,29.1080017,108.9855728,32.8201294
		c17.8321991,1.66922,34.8757324-4.9822083,49.3031158-15.0639038c0.6207886,2.9391479-0.1995697,6.2776794-0.1995697,9.21698
		c0.107666,21.6837463-9.619278,50.170929-18.4372101,69.7484131c-4.8080292,10.9494019-15.7132339,21.3732605-15.387001,27.5908203
		c0.1393509,4.3931274,15.5738907,5.0107422,18.1552811,5.2293091
		c40.2286377,4.0510559,70.4008636-20.2616272,72.1650543-21.1896362
		c6.9428406-3.4935608,12.2006836-8.4441833,18.2787933-12.7739258
		c2.4135895,14.9403992,32.2310333,48.3148193,40.6435394,55.7389832
		c23.8027039,21.0628967,57.177124,43.1490173,81.4264221,36.6528015
		c22.5642395-6.1256409-0.3863525-54.5640564,2.4293518-68.6968079
		c19.4538879,13.6703186,60.3603821,29.0129395,106.9141541,18.3421631
		c8.7514038-1.9796143,23.584137-8.2921448,23.9389038-12.0644836c0.6207886-8.5074768-21.680603-18.8362732-30.5269775-28.6740417
		c-7.9057617-8.7514038-10.192627-14.0726318-12.7296448-23.755188
		c-3.6645813-14.2879639-6.4645386-29.1365662-8.6595764-42.5914612c-3.417572-19.732605-4.5957642-39.1295166-11.7857056-56.572113
		c4.2062683,2.4736328,46.1325684,5.7833862,83.0955811-13.8287659
		c15.143158-8.0101929,62.2037659-40.0860443,61.9408264-47.2315979
		C569.3908691,218.8251648,538.9558105,219.8450012,524.0153809,212.7310638z M295.2339783,177.6875153
		c4.3139038-9.9613495,8.2572937-21.0660553,15.9603271-31.2111359
		c5.5207214-7.3292847,14.0440063-14.4748383,21.5887146-18.9597778
		c20.6638489-12.4668503,46.8451538-21.3448334,65.7923279-31.1193161
		c-10.6866455,5.6632919-22.7955017,12.0327148-34.6730957,18.0033188
		c-3.8831787,1.8877106-8.3364563,3.0628204-11.9884033,5.2260818c-1.5298767,0.8678741-2.3502197,2.5054092-3.9117126,3.5601654
		c-4.5768433,3.3066864-10.31604,5.5649948-15.4186707,9.0616379c-4.9031067,3.4335785-10.379425,6.8669281-14.5856628,11.2885895
		c-2.5497131,2.6289215-4.1588135,6.4360962-6.5722961,9.7426147c-3.1230469,4.2380981-6.4645691,7.918457-8.8780823,12.5302277
		c-3.2307129,6.4930878-3.1705627,14.3513184-8.7830811,19.7326813
		C293.146698,182.913681,294.2584534,179.942688,295.2339783,177.6875153z M214.4568634,42.4222603
		c6.2618408,2.2584763,13.2838898,3.7439766,19.6566162,7.1773186c16.4259186,8.9382896,25.2089996,26.631134,31.5817413,40.3046188
		c7.4686279,16.1440582,13.0843201,38.5689468,18.7887573,56.508812
		c3.3731995,10.6423492,7.6396484,21.3131561,2.8790894,33.5011444c-1.3935852-4.4849548-2.1505737-9.0332642-3.0343018-13.857132
		c-0.756958-4.3615265-0.9407043-9.280365-1.884552-13.8286743c-1.7642822-8.3206635-6.078186-15.8653564-7.6396484-24.9303131
		c-1.0230713-6.619751-3.7596741-14.164444-6.7591858-21.6805191c-6.4043579-16.083847-13.6259613-36.1902847-31.1477814-49.9557495
		c-2.4578857-1.9794502-5.5523834-3.6485939-8.2731323-5.0708046c-18.4656677-9.5907478-35.803833-13.4265442-53.990799-19.0547543
		C187.9175568,34.3519287,201.3250275,37.506649,214.4568634,42.4222603z M120.2248306,5.1204047
		c4.1302643-2.1634209,13.3916245,5.2895303,19.0675278,9.0333443
		C133.5879211,13.5645771,125.9482574,4.9366779,120.2248306,5.1204047z M109.3988342,92.0390015
		c-21.2973099-0.0632858-44.7738037-0.497261-68.2185287-6.4962387c27.0491867,3.5569305,53.2939529,2.999527,79.3390732,1.8242569
		c1.7610474,0.6811523,33.143219-1.330307,64.645752,25.6715927c3.309906,2.8474121,6.1098633,6.8383179,9.5116119,10.2400589
		c15.8684235,15.8051453,30.6219635,35.2304993,55.9861603,47.6940308
		c6.927063,3.4332733,18.5575867,4.0542145,22.114502,12.0327911
		c-36.3739166-10.5155945-60.4711914-37.3937531-85.2937469-58.7671204
		c-7.0061951-5.878624-14.6141815-14.756691-23.5081024-19.3969116
		C145.2469635,95.1937256,126.2713318,91.9757156,109.3988342,92.0390015z M145.3103333,204.999649
		c-3.2338562,0.9882355-6.8985443,3.0913544-10.4237976,4.6686707
		c-27.8854523,11.5703583-53.3731613,45.9013824-78.5504761,68.636673
		c-12.5743561,11.3517761-23.9261513,19.8592529-36.6082535,28.2084351
		c-3.8198738,2.6289368-8.8147774,7.0220642-13.8698997,4.6718445c3.9876785-4.4248047,9.7269478-6.4645691,14.6585617-9.495697
		c9.99296-6.0940247,18.8077393-14.6300354,28.6138992-22.393219c20.6004715-16.178894,40.7353592-40.5200195,60.3919754-59.5748596
		c24.7750397-24.1575623,53.2781067-24.1892548,85.1227112-20.8158875
		c23.4321289,2.4103699,47.0162811,1.3588409,68.4371033-5.4446411c5.3496704-1.66922,10.236908-5.1976166,16.5462646-4.6085358
		c4.1745605,0.3706055-6.5564575,5.7234344-7.7315063,6.1858673c-9.8979797,4.8238525-22.3013611,7.2057648-31.8762665,8.2889709
		c-15.7291718,1.7009125-29.4754791,2.0112915-44.8497925,0.8045044
		C178.7480927,204.5023804,160.8842163,200.8851471,145.3103333,204.999649z M161.3783264,336.0553589
		c1.2700806-8.631073,0.0632935-16.2390442,1.1307373-23.9736938c1.66922-12.2799683,4.2822266-25.9818115,15.3236237-40.8272705
		c12.3274231-16.7965088,30.004425-26.5709076,46.3828125-33.437912
		c7.9658966-3.2463837,16.0996857-7.9183807,24.1257172-12.4349213c8.5360718-4.7955017,16.5019836-9.8663025,22.9222412-17.6009521
		c4.4532471-5.5365448,7.7156372-15.4630585,14.9530334-12.6188049c0.2629395,0.2787781,0.1710205,0.5574799,0.43396,0.8045044
		c-13.2838745,12.279892-24.1890869,25.5193939-37.5204926,34.2707977
		c-13.1129303,8.6310577-28.1166229,12.9608917-40.8747864,20.2616272
		c-12.7897644,8.9382782-30.8246918,23.0425262-38.9109497,43.3325958
		c-6.8351593,17.0752258-4.1619415,35.8196716-7.2848969,53.6360474c-1.4380493,8.1052246-1.2384796,14.4461365-5.321228,22.9190063
		C157.6503601,358.7590332,159.6774139,347.9931641,161.3783264,336.0553589z M244.0431519,282.9451294
		c-3.1388855-2.8760986-3.9148407-7.8582458-9.3120422-8.9699707c1.8719482,4.2981262,7.6112213,7.7030334,8.2889709,12.2481995
		c-2.1474152,2.2583008-0.6176147,3.7754822-2.5338593,6.0623474c-3.5569305-2.597229-4.3455963-7.4844666-9.4799347-8.5677795
		c0.8964081,4.1461182,6.5406189,7.20578,8.365036,11.164917c-0.848877,2.660614-2.1189575,5.2610168-3.2306976,7.8899231
		c-3.6963654-3.0311279-5.6759033-8.0735474-10.4079437-9.7744751c0.3547668,4.7320557,8.0545654,7.5762939,8.9382935,12.1562195
		c-1.6090088,1.8245239-1.9036407,4.4851074-3.1388855,5.1027527c-3.5569305-2.4422302-5.1501007-7.3007507-10.1165466-8.3807983
		c0.1868744,4.3898621,7.0537262,7.1739197,9.6034393,10.9178162c-1.5140381,2.0398254-1.7293701,3.7723389-2.9519958,5.7519531
		c-3.2623901-1.2067871-6.6197662-7.1455688-10.8735352-7.2976074c-0.6176147,4.3297729,8.8147888,6.1224976,9.1251678,10.1735535
		c-1.2225494,1.4537964-2.1348114,4.1777649-3.6329041,4.7952271c-2.552948-2.1948547-5.8153381-4.1459351-9.2329254-6.2775879
		c-2.2899933,4.0827332,5.3496704,5.7836609,8.4441833,8.4727173c-0.8836365,2.2298584-2.0429077,4.3929443-2.8632507,6.5279236
		c-2.9678497-0.8363647-6.5247803-3.8356323-9.7744751-5.4447327c-1.8244324,3.8040466,4.7795715,5.6316223,8.0419617,8.2605286
		c-1.1434326,1.6690674-2.2584076,3.6487732-3.3701477,5.5048523c-3.0944977-0.2471008-6.2935181-2.1664734-9.2962036-4.5768433
		c-1.9953766,3.6804504,4.0542908,6.4328918,7.0854187,7.0505981c-1.0516052,6.8066101-6.8224792,8.2602539-12.1562958,5.6600342
		c-1.4221344,2.6922302,2.9076233,4.7636414,5.0107422,4.1460266c-2.1664886,4.545166-9.4038696,2.9678345-12.7137756,0.3389282
		c-7.7631836-5.8438721-1.7325287-19.1752014-3.4651184-26.1655579c3.0787354-4.7637939,2.6162262-10.857666,5.1343384-16.5811157
		c1.9352417-4.0827942,4.8587036-7.6396484,7.022049-12.1246033c10.3160248-21.4968872,25.9818115-43.9217834,43.2597656-44.4474792
		c6.1066437,4.887146,5.3812714,11.4119263,2.9994507,18.2787781c-1.5931702-3.0913696-3.1261902-6.2776794-7.1772461-8.8464661
		C239.4948425,272.0872803,249.6873627,275.213623,244.0431519,282.9451294z M180.4774628,343.4161377
		c-3.6329193-1.2986145-14.7060089-5.229126-12.7739258-9.5588989c3.9433746,1.9795532,9.69841,4.1777344,12.8974304,7.5477905
		C180.2462769,342.0542297,180.0467072,342.735321,180.4774628,343.4161377z M177.430481,362.3760986
		c-5.1469421-2.7207642-15.2793427-5.04245-12.8182983-11.1965942c3.6487579,1.66922,8.8749084,6.1541443,13.3472443,7.6713562
		C178.1589966,359.9625854,176.6576691,361.4480896,177.430481,362.3760986z M174.8490906,370.1075745
		c-1.437973,1.6407166-0.0602264,2.5687866-1.330307,4.0542908c-3.8197937-1.5457153-8.3649597-3.6805115-11.3676453-6.4329529
		c1.0832062-2.9393005,0.7285309-7.1773071,2.2900085-9.0015869c3.9116974,4.0193787,14.0124054,3.3700562,11.3201141,9.2170105
		c-3.6487579-1.7642212-7.3767395-3.588623-11.2599792-5.9071655
		C163.5605774,367.0163269,171.3238373,366.9846191,174.8490906,370.1075745z M159.3068848,375.8310242
		c3.0786591,0.0633545,8.5993652,3.3415833,11.2440491,5.7834778c-0.4972687,0.7444458-1.0832062,1.5774841-1.5012512,2.4136658
		C166.1419678,382.3874817,158.6891785,379.3278198,159.3068848,375.8310242z M168.0614471,385.6370239
		c-0.5289459,1.8878479-0.7760468,1.7928772-1.9796143,3.1864624c-3.3731995-2.7840271-10.6897888-4.5166931-7.7504883-8.6911621
		C161.7330933,382.5743408,164.7959137,383.5941772,168.0614471,385.6370239z M160.0036469,371.9351501
		c0.4782715-0.6809082,0.9122467-1.2986145,1.2986145-2.0429077c3.107193,2.875946,10.4237823,4.5166321,10.3446503,8.0735779
		C168.5872498,378.2762146,161.5652008,373.8197937,160.0036469,371.9351501z M165.552887,347.9012451
		c0.9154053-1.0515137-0.1362-1.7325134,0.6524658-2.8473816c2.999527,4.5166321,13.6386414,5.0740967,12.7264709,10.5187378
		C174.6938934,356.2219238,168.9102478,350.6536865,165.552887,347.9012451z M166.6519318,343.6000366
		c-0.446579-1.235321-0.3230743-2.6891479,0.3420715-4.2063904c4.4691925,2.9996033,8.6437378,4.4533997,13.2205963,7.7348022
		c-0.9122467,1.1434326-0.0443726,1.884552-1.2194824,2.9361572
		C174.9884338,348.5822449,170.4718018,344.8701172,166.6519318,343.6000366z M180.4647675,337.9399719
		c-4.2093964-2.473877-8.1812286-4.266449-12.5300598-7.2057495c0.3896027-1.2986145,0.2344055-2.5687256-0.4941101-3.5252686
		C170.0252228,330.2083435,182.9226532,333.4866333,180.4647675,337.9399719z M167.5483398,325.0741577
		c1.3017731-1.4223022-0.0443726-2.2266235,1.1750336-3.6805115c3.2339325,2.381897,6.2016907,3.1230164,9.2645874,4.6085205
		c0.202652-3.680603-6.4646301-3.8356323-9.4007111-6.8668518c0.2628632-1.5170898-0.2344055-2.9076233,0.5257263-4.6084595
		c3.2306976,1.884552,6.5881348,4.6084595,9.1378479,3.9877014c-0.7569733-3.2465515-6.3410492-3.3700562-9.2772064-6.3410645
		c1.0800476-1.9162292-0.0949707-3.2782288,1.7610474-5.4414978c2.4895782,1.2669373,5.4921722,3.9876709,7.7505646,4.2062378
		c0.7728271-2.8157959-5.35289-4.0827332-7.4876251-6.3093567c2.3501434-14.0758667,15.0480804-31.9840393,25.734726-40.9855957
		c2.7365875,1.3302917,5.8152466,4.3297424,8.1971588,4.5481567c0.5890961-2.5368652-4.2220917-3.7119751-6.3093719-5.6314697
		c0.7569885-1.6374512,1.9953766-1.4822388,3.0153046-2.4103394c2.970993,1.1434326,6.2333832,4.2981567,9.821991,5.4732666
		c0.5859375-3.0629272-4.8713837-4.8555603-7.734726-6.9586792c3.914856-2.7841187,7.6713562-6.2175446,11.940979-7.9501495
		c2.4894867,2.7841187,7.6396637,5.0108337,11.3042603,7.4844818c-4.142868,4.8872375-9.8979797-4.5135651-14.8295898-5.2577667
		c0.1077423,4.2695465,7.0188904,6.3093719,10.9020538,8.878067c-3.4808655,3.2465515-9.5590668-4.3614502-14.3227997-6.0623474
		c-1.9637604,4.608551,6.8541718,5.5682373,10.7658691,9.3088989
		c-16.3942261,18.4055176-32.7409363,47.0479431-38.2014923,67.9588013
		C176.8445435,330.7025146,172.3119812,328.1052856,167.5483398,325.0741577z M243.6408691,247.1888275
		c-0.4814301,1.3302917-1.5614929,0.0316772-2.0587463,1.4854889c-3.1831818-1.9193878-4.5610199-4.3330688-8.1496277-6.2491455
		c2.6130676-2.1664886,5.5523834-2.7525024,8.3523407-4.7003632c1.7325134,1.8243408,4.3455963,3.5252533,6.5722198,5.194397
		c-0.5257111,1.8877869-1.9035492,0.5574951-2.4894867,2.3502197c-2.999527-1.4221191-5.8469238-4.4533386-7.9342041-4.9474487
		C236.2007599,243.5083771,242.2187347,244.7436218,243.6408691,247.1888275z M239.4346161,249.4471436
		c-0.3863678,0.7095184-0.7886505,1.3302917-1.1750336,2.1031189c-3.4207306-1.1434326-6.1098633-4.8270264-10.1165466-6.8066406
		C231.6397552,241.0948639,235.6148224,247.4042358,239.4346161,249.4471436z M235.1175537,252.848877
		c-3.214859,2.4737244-8.7672424-4.6401367-12.6662598-5.0424347
		C225.7168427,243.2296753,231.8868561,250.4670563,235.1175537,252.848877z M230.9429932,255.1674042
		c-3.0944977,4.3013153-11.1965942-4.3297424-12.7898407-5.7519531
		C220.88974,247.4992065,226.2426453,253.0040741,230.9429932,255.1674042z M243.9481049,236.9202271
		c2.042984-2.0112152,5.9102936,1.4823456,7.2089233,3.4017487
		C249.0380554,242.7038727,246.0069275,237.7530975,243.9481049,236.9202271z M248.5122528,234.7855072
		c1.1118317-3.2782288,5.4891052,0.9881439,5.9989777,2.6890564
		C252.5031738,239.4858551,251.0937347,235.5583191,248.5122528,234.7855072z M252.1611023,231.5990906
		c1.9637604-1.4538116,3.8673096-0.5258026,5.4604797,1.7009125c-0.3546753,0.5573273-0.6493225,1.0198364-0.9755554,1.6090088
		C254.8058624,235.064209,253.0448151,232.7139893,252.1611023,231.5990906z M256.3831787,229.2489624
		c1.53302-3.1547241,7.1455688,0.4022064,2.8316345,2.3184509
		C257.621582,231.0100098,258.0397034,229.9584045,256.3831787,229.2489624z M263.3735352,223.1549225
		c0.8361816-0.4338989-1.1434326,3.8958588-1.8085632,3.8357239
		C259.2148132,225.1345367,262.5246582,224.5452881,263.3735352,223.1549225z M157.5426025,385.6973877
		c2.3977509,1.1749573,5.2293243,3.8988647,7.3926544,4.0541992c0.8361969,1.0515137-0.820343,3.895874-1.5773163,4.4215698
		c-2.5370941-1.8560181-4.7003632-2.5053101-6.9903564-3.7405701
		C156.2756805,389.0389099,156.7380981,386.223114,157.5426025,385.6973877z M154.4513397,392.5641479
		c2.5813904-0.4307251,5.8152466,2.1981812,8.7228699,3.7121277c-0.6207733,0.8964233-1.2543182,1.8244324-1.7958832,2.7524414
		C158.3946381,397.0206604,154.0173645,395.3165894,154.4513397,392.5641479z M153.3363647,396.8337708
		c2.2267151,0.0918274,4.8713989,2.597229,7.0822601,3.7723389c-0.9407043,1.425293-1.8244171,2.8791199-2.7365875,4.3931274
		c-1.7642822-1.1434021-3.6963654-2.3502197-5.4574127-3.4334106
		C152.7789459,399.8648987,151.8983917,398.6582031,153.3363647,396.8337708z M151.1857147,403.1431274
		c1.8561096,1.1148987,3.7913361,2.3502197,5.5840759,3.4334412c-1.1148987,4.1776428-5.5523834-0.0918274-6.7907867-1.4538269
		C150.4287415,404.505127,150.8943176,403.8875122,151.1857147,403.1431274z M149.5799408,407.5679626
		c1.545639,1.0198975,3.1387939,2.0081482,4.7003632,2.9076233c-0.6493073,1.2986145-1.8561096,0.7727966-2.5687866,2.318512
		c-1.466507-1.2669373-2.6890564-1.361969-4.0827332-2.0398865
		C148.186264,409.6996155,148.9273987,408.6195374,149.5799408,407.5679626z M146.3460083,412.7022095
		c1.4696503,0.0602112,3.0786591,1.2986145,4.5167084,1.7008972c-0.8837128,1.7325134-1.8719482,2.4737244-2.999527,3.0628357
		c-1.1148987-0.6493225-2.1664886-1.3303223-3.0786591-1.8560181
		C145.2469635,414.6183777,145.7886047,413.6303101,146.3460083,412.7022095z M146.4537506,418.7962341
		c-2.3502197,2.5655518-5.257843,2.7207642-7.4527893,5.7835693
		C138.7380219,421.8876038,142.820755,414.4949341,146.4537506,418.7962341z M136.4321747,432.3746643
		c0.7443695,0.0919189,1.3619995,0,1.947937-0.4338989c13.4264679-6.9586792,30.3432617-14.9087219,42.8100281-29.5070801
		c12.9291077-15.1272888,24.2967529-33.4694519,33.5295868-51.5931091c1.9036255-1.361908,3.6488342-3.5285645,3.6488342-6.0021362
		c10.2844391-14.3513184,20.2932434-29.7573242,25.8297882-45.3439026c0.5859375-1.7958679,0.0443726-3.7121277,0.6334686-5.5681458
		c1.6533813-5.1343384,4.3614349-10.1450806,5.8310852-15.6816406c2.8760223-10.1166077,5.8153381-20.4769592,9.695343-30.6219482
		c3.8673401-10.5789795,7.8106384-21.560257,12.5743713-31.1478577c3.9275208-7.7664795,9.5115967-15.6214905,16.3309326-18.3738403
		c0.5890808,4.4533539-4.9347839,8.906601-7.313446,13.5468292c-0.6809998,2.4133453-2.552948,0.0316772-3.373291,1.1751099
		c-0.1868896,1.1148834,1.4380493,1.9510803,1.2827759,3.0311279c-8.396637,12.0011139-13.0367737,28.674118-17.6294861,43.798172
		c-5.3971863,17.4458313-9.5115204,35.3858032-19.4728699,52.7080383c-0.1837311,3.4334106-3.2940826,8.7545471-6.385437,14.0725403
		c-4.1745605,7.0220337-9.3721771,16.7648315-13.1920471,18.7444458c0.4466553,4.950592-5.7835693,10.5187683-10.0848694,16.2105103
		c-8.3649597,11.4119873-17.4140625,28.2686462-25.4401855,38.508728
		c-3.8831635,5.1026306-9.3721771,8.4758606-11.7540894,12.9607849c-3.4017334,1.5140381-6.5246887,4.0510559-9.5273743,7.2976074
		c-8.3649597,4.7954102-17.677002,9.929657-27.141098,12.2196655
		C138.6747284,432.4982605,136.5240784,433.6732788,136.4321747,432.3746643z M260.7287903,422.5367432
		c3.3257446-0.7726746,8.2921143-5.7201233,10.642334-1.14328c-2.9393005,2.5655518-6.2650757,3.3099365-9.7301025,3.3700562
		C262.0907593,423.8670349,260.9917297,423.281189,260.7287903,422.5367432z M220.9531097,395.8424072
		c-1.0072174,1.3017578-1.8877106,3.5885925-3.1546478,4.0541992c-6.4646301-4.2379456-12.6378021-6.8668518-19.102356-10.7024841
		c2.3058472-3.6804504,4.6559753-7.4845581,6.8510132-11.1047974c1.3017578,0.8045044,2.6763611,1.66922,4.0066681,2.4451904
		c-0.8804779,0.8330383-1.7166748,1.4506531-2.4135132,2.9361572c2.2266388,1.6090088,3.3732147-1.1751099,4.9980621-1.9796143
		c4.4850159,2.723999,8.7514038,4.5800171,13.2998047,7.7632751c-0.8837128,1.6088257-1.732605,2.9391479-2.8158112,3.7121277
		c-6.5564575-3.5252686-13.3630829-7.8867798-19.6249237-9.8979797
		C203.7226868,389.2543335,215.0428009,390.4325867,220.9531097,395.8424072z M241.9241943,321.083252
		c0.5574799-0.1236877,1.266922,0.0918884,2.15065,0.8045044c-1.1782684,0.9882202-1.6407013,4.545166-3.2655487,3.4936523
		C239.2794189,324.393158,242.1870422,322.2898865,241.9241943,321.083252z M255.9967346,286.6254883
		c0.541626-0.864563,1.561554-0.2786255,2.5687866,0.370697c-0.6493225,1.4221191,0.1393433,2.4768677-0.8520508,3.8356323
		c-0.649292-0.3388367-1.2986145-0.7411499-1.979599-1.1433411
		C255.9524384,288.6368713,256.8329163,287.4300537,255.9967346,286.6254883z M257.8528442,281.120697
		c0.4941101-0.8677979,1.4379578-0.3103943,2.4451904,0.4022827c-0.4180603,1.298645-0.2945557,2.4418945-0.7886658,3.8641968
		c-0.8361816-0.4624329-1.6565247-0.9882507-2.4451904-1.4823608
		C257.7451782,282.9451294,258.7966919,281.7067261,257.8528442,281.120697z M267.7032776,249.9729309
		c1.5488892,1.6692352,3.7596741,3.4334259,6.2175598,4.8555603c-0.2913818,1.0832825,0.1551819,2.0714417-0.928009,3.3416138
		c-2.9076233-1.3619995-3.7406616-3.1865082-6.493103-4.6402283
		C268.0453796,252.1362762,266.0499878,250.4068298,267.7032776,249.9729309z M283.9138794,215.6387634
		c-0.7602234-0.9913788-0.4022827-2.9994507,0.9438477-3.3415222
		C284.5631714,213.4723511,285.3835449,215.2999268,283.9138794,215.6387634z M283.866333,372.7080688
		c0.7253113,0.4021912,0.5258179,1.0197449,1.406311,1.3904419c-2.4737549,3.0944824-5.5207214,3.7121277-8.6120605,4.0224915
		C275.2225952,373.8830872,281.6238708,374.9030151,283.866333,372.7080688z M261.9039001,400.2672119
		c2.8632202,0,7.0853271-4.3297729,8.7862244-0.0317078c-2.8474731,1.7642212-5.7234192,3.3099365-9.0491028,3.1261902
		C261.8279114,402.338623,261.2102051,401.4104614,261.9039001,400.2672119z M216.8386841,374.038269
		c1.4063721-2.2583008,3.6646881-0.5890808,5.875473,0.9881592c-0.3547668,0.7728882-0.9121704,1.5774841-1.3904419,2.3819885
		C219.1889038,376.4486389,218.9260559,375.0264282,216.8386841,374.038269z M219.5911255,380.1323242
		c-1.2827759,2.0714111-3.5727844,0.0285339-5.6917419-1.3303223c-0.2628632-0.9913635,0.9913788-1.4252625,1.8402557-2.1664734
		C217.1934509,377.7789307,218.6631165,378.9538879,219.5911255,380.1323242z M220.7187042,369.3347778
		c0.9597778-1.3587646,1.8434143-2.875946,2.660614-4.2980652c1.9510803,0.772644,2.5370941,1.9162292,3.7438049,2.8442383
		c-0.1551971,0.8045044-1.7325134,3.4049072-2.3818207,3.9592285
		C223.4109955,371.1305847,222.0965424,370.2026367,220.7187042,369.3347778z M224.9407959,362.6547852
		c0.5891724-1.5456238,1.6565247-2.9994507,2.7714996-5.4129333c1.6374664,0.864624,3.2939911,1.8560181,4.0510559,2.9994507
		c-0.4941254,1.7641907-1.0357666,3.3415833-2.4452057,5.1343079
		C227.8484955,364.4474487,226.3819885,363.5828857,224.9407959,362.6547852z M228.7923431,354.5812378
		c0.6207886-1.5773315,1.7958984-1.019928,2.5053406-2.163269c1.3144531,0.8963318,3.4334259,1.5454712,3.6963654,2.7524414
		c-0.5543365,0.8963318-1.1117401,1.7926331-1.7009125,2.7839355
		C231.8234863,356.8395386,229.2420959,355.9115295,228.7923431,354.5812378z M233.2330017,349.1998901
		c1.3143768,1.0832825,4.9029999,1.66922,2.6129913,3.7121277
		C234.9940491,351.6736145,232.0578918,350.9007874,233.2330017,349.1998901z M234.3447418,346.5393372
		c-0.1394348-1.1751099,1.6248474-3.8356934,2.7080536-4.3298035c3.2306976,1.6089783,3.4017334,3.8355408,1.2352448,6.8034668
		C236.758255,347.4673767,234.702652,347.9012451,234.3447418,346.5393372z M238.1360016,339.5805969
		c0.6778412-1.0831909,1.3905182-2.7239075,2.3185272-2.9709167c0.8520355,0.7442932,1.0674438,1.5170288,2.5371094,2.1031189
		c-1.0357666,1.2067261-0.820343,2.0111389-1.3936768,3.0311279
		C240.6414185,341.9624939,238.3514099,340.5688171,238.1360016,339.5805969z M243.5775757,329.7745056
		c1.5487823,0.5258179,1.1751099,1.6090088,2.5211792,2.0714417c-1.3144684,1.7325134-1.6375427,3.1261902-2.3818359,4.608551
		C240.2233582,335.1273499,241.7214661,332.5586243,243.5775757,329.7745056z M244.3376923,327.5477295
		c-0.1710358-1.1749573,1.466507-2.7839661,2.0872803-4.2061768c0.7887421,0.5574951,1.6217041,0.9281006,2.3819122,1.4538879
		c-1.114975,1.6090088,0.0284576,2.7522888-1.6248474,4.5166321
		C246.2223358,328.6912231,245.2783966,328.0736084,244.3376923,327.5477295z M247.6317749,321.36203
		c-0.1710358-0.9281006,0.9407043-2.2267151,1.6375427-3.4017334c1.9796143,1.0515137,2.3058319,2.6573792,1.0673523,4.5134583
		C249.5163269,322.59729,248.6041565,322.0113525,247.6317749,321.36203z M263.2974854,277.3451233
		c0.43396,0.2788696,0.8805542,0.5258789,1.2511597,0.776123c0.0316772,1.2035828,0.1552124,2.3786926-0.8171997,3.8641663
		C261.7359924,280.8420105,263.4685974,278.8623962,263.2974854,277.3451233z M266.0183105,280.1610107
		c3.7438049,0.1868591,4.4690857,3.8989258,3.8514709,6.1541748c-0.649292,0.5257874-1.0831909-0.3389282-0.649292-0.8963318
		c-1.2226562-0.8964233-2.3185425-0.5258179-3.7279968-1.8244324
		C266.3128357,282.2958069,265.8504333,281.2442932,266.0183105,280.1610107z M275.2828369,246.4476929
		c-1.1751099,0.3072357-0.8203735-1.0230713-2.4136047-1.5171814c1.3778381-1.4855042,0.4181213-2.2900085,1.1751099-3.6804504
		c1.2701721-0.2787781,0.9438477,1.0198364,2.4768677,1.5773163
		C274.8330078,244.281189,276.5497437,244.9938812,275.2828369,246.4476929z M275.0198975,249.4471436
		c-0.2312012,1.266922-0.1552124,2.1950226-0.9121704,3.3384399c-1.298645-0.6778412-1.2384949-1.7009125-2.8442688-2.3502197
		c0.0759888-1.0832062,0.6619263-1.330307,1.2193909-2.9994507
		C274.1077271,247.9300385,273.657959,248.9815521,275.0198975,249.4471436z M276.1348572,384.3987732
		c-2.5212708,1.9795227-5.4130554,3.1546326-8.3206787,2.9393005
		C269.499176,383.625885,275.6850281,380.5345154,276.1348572,384.3987732z M268.2290955,299.5864563
		c-2.0238953-1.4222107-1.3271484-3.5253296-0.9723816-5.5999146
		C270.2878418,295.2566223,268.6629944,297.5149231,268.2290955,299.5864563z M268.6629944,288.2947998
		c1.4696655,1.2067871,0.7443542,3.0026855,0.3864441,4.6401978
		C266.7626038,291.8832397,268.400116,289.9988403,268.6629944,288.2947998z M268.6186829,302.5256042
		c-0.9755249,1.4222717-0.513092,2.3502808-1.1782532,3.680603c-2.704895-1.1751099-1.1592712-3.6203003-0.9723816-5.5365601
		C267.9060059,301.1003113,267.6114807,301.9365845,268.6186829,302.5256042z M267.0856628,313.0095215
		c-1.0990295,0.2788696-1.469635-1.3302307-3.202179-1.8875427c0.9280396-1.235321,0.2343445-2.1316528,1.5487976-3.4019165
		C268.2290955,308.9586182,267.2250061,311.0617676,267.0856628,313.0095215z M266.2367859,319.6609497
		c-1.3935852,0.3074036-2.8917847-1.3302002-3.5885315-2.1663208c1.3143616-1.4855042-0.3864441-2.163269,1.1117249-3.7121277
		c1.1465759,0.712677,2.182251,1.2986145,3.265564,1.9796143
		C265.6793823,317.339447,266.9938354,318.2073059,266.2367859,319.6609497z M265.6793823,325.8152771
		c-1.0990601,0.6493225-2.8316345-1.4537964-4.2062378-1.9479065c0.1678772-1.1148987-0.2027283-1.947937,0.9121704-3.3415222
		c1.2067871,0.8677979,2.3502197,1.5456238,3.5569153,2.2900085
		C265.7236938,323.8990479,264.8115234,325.105835,265.6793823,325.8152771z M264.7671204,296.3683472
		c-2.4767761-1.1433411-1.6564331-3.0311279-0.8360901-4.9790649c0.5732422,0.3103943,1.0990601,0.7411499,1.5931702,0.9882507
		C265.8187256,293.5843201,265.1694336,295.009613,264.7671204,296.3683472z M264.7671204,299.0289612
		c-1.0990295,1.66922-0.0315857,2.7524414-1.0673523,4.3297424c-0.7886658-0.5574036-1.53302-1.0198364-2.3818359-1.4537964
		c0.6176453-1.4538269-0.3262024-3.7406616,1.7166748-4.4532776
		C264.0545349,297.8538513,263.4685974,298.6267395,264.7671204,299.0289612z M263.0029297,306.2347412
		c-0.3230591,1.3017578-0.4180603,2.5686951-0.6809998,3.8989868c-1.3302002-0.6809692-1.3460693-1.7641907-2.9076233-2.4136658
		c0.3864441-1.0831299,0-2.1948547,0.4656677-3.4649353C261.4414673,303.8845215,261.8279114,305.5252075,263.0029297,306.2347412z
		 M261.6726379,311.9264832c-1.1750488,1.5170898,0.2312622,3.5569153-1.4062805,4.1143188
		c-1.5330505-0.8329468-2.8474121-1.7927246-3.6804504-2.8759155c0.4465942-1.0832214,0.5099487-2.0714417,1.5297852-3.4651184
		C259.2306824,310.5359497,260.4975891,311.2169495,261.6726379,311.9264832z M258.9360352,321.7325439
		c-1.469635-0.8362427-2.9076233-1.7927246-4.3139038-2.7207336c0.1995697-0.9596863,0.3230743-2.7524414,1.3746033-3.0026855
		C258.3311157,317.6182251,261.1785889,319.1037292,258.9360352,321.7325439z M260.7003174,326.1256714
		c1.3904419,0.8964233,2.8601074,1.6375427,4.3297729,2.6889954c0.1678772,1.1150513-1.0674744,2.6922913-0.883728,3.807251
		c-1.3303223,0.4624329-3.2940674-1.7641907-4.8872375-2.4769592
		C259.5220642,328.8146667,259.6772461,327.5794067,260.7003174,326.1256714z M266.3128357,391.4841003
		c0.9121704,1.2035828,1.2068176,2.5054321,1.9162598,3.9275513c-1.6217041,0.9882202-3.3542175,2.0712585-5.3813477,1.5773315
		C264.440918,396.2446899,264.4725952,393.3686523,266.3128357,391.4841003z M267.1173401,287.3667908
		c-1.3936462,1.2383728,0.199585,1.6723633-0.7727966,2.8157959c-2.489563,0.2786865-1.4095154-2.6289368-1.9352417-3.895874
		C265.6793823,285.0482483,265.4608154,286.812439,267.1173401,287.3667908z M261.9355774,287.4934387
		c-1.4379883-0.8996277-0.3706055-2.3818359,0.2628479-3.7121277
		C264.1463623,284.4908447,263.1739807,287.0595398,261.9355774,287.4934387z M261.9672546,290.2141724
		c-1.3144531,1.298645,0.1868896,2.660614-1.3144531,3.1230469c-2.0271606-0.928009-0.912262-2.597229-0.2629395-4.0828247
		C260.8522949,289.5332642,261.4414673,289.9038086,261.9672546,290.2141724z M259.7405396,294.8544006
		c1.3144531,1.3904419,0.2312622,3.309845-0.5257263,5.1944885c-0.8045044-0.4023132-1.2986145-0.9281006-1.9796143-1.2669373
		c0.1552124-1.3303223,1.1751099-2.9711609,1.6217041-4.4248047
		C259.1229248,294.4204407,259.4460144,294.6358337,259.7405396,294.8544006z M258.7333069,302.4622192
		c-0.6176147,0.9915466-1.2827759,2.1349792-1.9320679,3.2181702c-2.4419708-1.0515137-1.3904419-2.8157959-0.4497375-4.7637329
		C257.2035217,301.5343628,258.0397034,302.0285034,258.7333069,302.4622192z M256.0600891,307.9672546
		c-0.2945251,1.1751099-0.3705902,2.4450378-1.469635,3.9908142c-0.7285309-0.4021912-1.2542419-0.8045044-1.9035645-1.2669067
		c0.2311859-1.0832214,0.7284546-1.8243408,1.7008362-3.7121277
		C254.9452057,307.2577209,255.5026093,307.5649719,256.0600891,307.9672546z M253.5072479,314.6186829
		c-1.0357666,1.0197449-0.4498291,1.7325134-1.0040741,2.5686951c-1.0230713-0.6207581-1.840271-1.1465759-2.8790894-1.7039795
		c0.5890808-0.8330383,1.0673523-1.5457153,1.5329437-2.381897
		C251.8380127,313.6273193,252.6868896,314.0612793,253.5072479,314.6186829z M250.7389679,327.053772
		c1.3904419,0.215332,3.5569305,2.6288452,5.289444,3.8641663c-0.338913,1.425293-0.9121704,2.9076233-0.9913788,4.2379456
		c-2.4737244-1.0517883-2.9076233-2.5972595-5.3496704-3.8357239
		C250.1497955,329.929718,249.7190552,328.6627808,250.7389679,327.053772z M251.9773712,324.0827637
		c0.7095184-0.928009,1.1751099-1.884552,1.7610474-2.8443298c2.1823273,1.235321,4.0067596,2.5656433,4.7035065,4.0194397
		c-0.234314,0.8995056-1.9352417,2.0112305-1.0831909,2.6004028
		C255.4710083,327.9501038,253.5705261,325.1659851,251.9773712,324.0827637z M258.5655212,333.0242004
		c0.9881592,0.0285339,2.7524109,2.0714417,4.7636414,3.0311584c-0.5732422,1.4823303,0.2312622,2.7809448-1.2384033,4.5768433
		c-2.2741394-1.2385559-3.9116821-2.7239075-5.1184998-4.1777039
		C256.6460266,335.4344177,257.8845215,334.2277832,258.5655212,333.0242004z M269.3122864,390.0588379
		c3.0026855-0.0285339,5.5523987-1.9796143,8.2605286-2.5655518c0.5257263,1.1750183,1.1750488,2.4419556,2.1474304,3.4935608
		c-2.704895,1.7641907-5.6759033,2.6289062-8.675354,3.4048767
		C269.9932861,393.0614319,268.7865906,391.7312012,269.3122864,390.0588379z M282.4758911,396.4948425
		c-2.6922913,1.4538269-5.6157532,1.5773315-8.1369934,3.2782593c-1.5931702-0.9598694-1.4981079-2.1665039-2.4419861-3.2497253
		C275.3746338,397.08078,280.8035278,391.1420288,282.4758911,396.4948425z M285.6305542,402.8041382
		c-2.2424927,1.4538879-4.6718445,1.5458069-6.8224792,2.9077148c-1.2067871-1.0230103-1.4379578-2.3818359-2.7366028-3.309845
		C279.1026306,401.5975037,285.0414429,397.0206604,285.6305542,402.8041382z M305.3948364,445.1486816
		c-1.8085022-0.6493225-1.0198364-2.1950378-2.4293518-3.1864319c1.9036255-1.7641907,6.3727417-2.9076233,6.6672668,0.8362122
		C308.4861755,444.5911865,306.538269,443.3843994,305.3948364,445.1486816z M312.5087891,447.964386
		c-0.8520508,2.2867737-2.5813904,1.2986145-3.8515625,2.5655518c-1.5298157-0.928009-1.4379883-2.1949463-2.4262085-3.1863098
		C308.1631165,446.8494873,311.688446,444.2807922,312.5087891,447.964386z M301.5750427,438.9945068
		c-1.2827759-1.0832825-1.5457153-2.5687866-2.5845642-3.7755127c1.7642212-0.5860291,3.4176025-1.7008972,5.2894592-1.6090088
		c1.3302917,0.8677063,1.4095154,2.0112305,2.1189575,2.8157349
		C305.1002808,438.7759399,303.1998901,438.0031128,301.5750427,438.9945068z M301.8695679,430.4234924
		c-1.2066956,1.1783447-2.8790894,1.2701721-4.2854309,1.7642822c-1.3302307-0.649292-1.1433411-1.577301-1.8877258-2.3184509
		C297.7077026,428.1051331,302.3161621,426.3124084,301.8695679,430.4234924z M293.9036865,426.4959717
		c-1.1148987-0.8044434-1.2225647-1.855957-2.0714417-2.8441772c1.4062805-1.3936768,3.1072083-1.2067871,4.6686707-2.074585
		c1.9352417,0.6207581,1.4696655,1.8275757,2.6130981,2.723877
		C297.6158142,426.1255188,295.7597961,426.2807007,293.9036865,426.4959717z M287.9173889,418.5175476
		c2.0270691-1.0516052,6.2333984-3.373291,7.1614075,0C292.8837585,419.9997864,289.3870544,421.9794006,287.9173889,418.5175476z
		 M286.6821594,416.1039429c-1.4095154-0.5574036-1.6407166-1.4222107-2.552948-2.1031189
		c2.1189575-2.2583313,6.5722961-4.3012085,7.9944153-0.5574036
		C290.5304871,414.9890442,288.4146729,414.6817322,286.6821594,416.1039429z M282.1337585,411.0615234
		c-0.5732422-0.928009-1.0673828-1.7610474-1.7166748-2.6605225c2.4737244-0.9565735,6.9745178-4.5134888,8.4124756-0.3391113
		C286.8373413,409.9181824,284.3287659,409.8547974,282.1337585,411.0615234z M282.4442139,416.7849426
		c-2.4293518,2.7841187-5.4922485,2.5655518-8.1053162,4.266449c-1.6374817-0.8647156-1.5614929-2.1633301-2.489502-3.1547241
		C275.1592407,417.4659424,280.0781555,412.0528259,282.4442139,416.7849426z M286.1848755,421.3014832
		c-3.2307739,1.9164124-7.5763855,5.62854-11.0256348,1.9480286
		C278.7478638,422.8789673,282.9224854,417.9600525,286.1848755,421.3014832z M291.1512451,427.5476379
		c-3.0311279,1.947937-6.4328613,2.6289368-9.6351318,3.9592285c-1.1307068-0.9566956-1.7641907-2.0112915-2.3818054-3.0628967
		C283.0143127,427.1453552,288.5381775,421.8876038,291.1512451,427.5476379z M294.1507874,433.2710571
		c-2.597229,1.8244324-5.4447327,2.6289368-8.2573853,3.7121277c-1.3017578-0.7443542-1.5329285-1.7325134-2.2741394-2.5688477
		C286.9735413,433.9203796,292.5258484,428.1684265,294.1507874,433.2710571z M298.296814,440.7555542
		c-2.7080688,0-5.0899658,1.6088257-7.5953064,2.5686951c-0.7886658-1.0516052-1.0198975-2.1347961-2.6891479-2.8157959
		C291.2430725,438.034729,298.6990967,433.6099854,298.296814,440.7555542z M302.1926575,445.889801
		c-2.2266235,1.2700806-4.4849548,1.9510803-6.7876282,2.9393005c-0.4338989-1.1435852-2.0588379-2.1031189-2.7555847-3.4017334
		C295.7597961,445.0249939,300.7229919,440.6003418,302.1926575,445.889801z M303.7256775,449.0158386
		c1.23526,0.5860901,1.0515442,1.5457764,1.8243408,2.2267761c-1.6723022,1.6090088-3.8197937,0.956543-5.4763184,2.660614
		c-1.1434326-0.712677-1.2225647-1.732605-2.3185425-2.4768677
		C299.4877625,449.7571106,301.5750427,449.4182129,303.7256775,449.0158386z M306.7251282,453.6245117
		c1.3144531,0.7411499,1.6375427,1.7008362,2.3502197,2.4736633c-1.1751099,2.4420471-2.9709778,1.5773926-4.5926819,2.7207336
		c-1.3461609-0.7094421-1.3778381-1.8243408-2.5528564-2.6890564
		C303.3677673,454.6126709,305.4550476,455.2619934,306.7251282,453.6245117z M310.4214172,459.1895142
		c1.8244324,0.991394,1.3588257,2.5085754,2.8760376,3.4334412c-0.8203735,1.640686-1.9320984,1.3017578-2.9076538,1.9796143
		c-1.3144531-0.8647156-1.9036255-1.947937-3.7881775-2.7809753
		C307.6057129,459.7470093,309.4300232,461.1089172,310.4214172,459.1895142z M312.4010315,456.098175
		c-1.6849976-0.928009-1.4696655-2.1949463-2.4135132-3.1548157c1.3461609-0.8360291,2.8475037-1.1148071,4.2854614-1.7324219
		c0.1837158,0.9281006,1.2669373,1.7007446,1.035675,2.7524414
		C314.5960693,456.0063477,313.1580811,454.4290161,312.4010315,456.098175z M316.9177551,456.6842041
		c1.1433411,1.1781616,2.0555725,2.4451904,1.992218,3.959137c-0.7252808,1.1465759-1.8085938,0.6809998-2.7207642,1.640686
		c-1.0040588-1.0831909-1.2384644-2.4420471-2.8284912-3.4651184
		C314.1779175,456.8108521,316.0340271,458.3881836,316.9177551,456.6842041z M316.8226929,450.561615
		c1.7483521-2.1347961,5.2894592-3.1229553,6.4962463,0.1552124c-1.2510986,1.4823303-2.8442688,1.3588257-4.1903992,2.4103394
		C317.5669861,452.509552,318.1529846,451.2426147,316.8226929,450.561615z M316.0974121,447.3753052
		c-1.1149902-0.5891724-1.0072327-1.7927246-1.6407166-2.597229c1.7008362-2.0746155,4.5799255-2.1348267,5.6315308,0.649292
		C318.8023071,446.5391235,317.4719849,447.0649109,316.0974121,447.3753052z M312.6006165,441.3731689
		c-1.1434326-0.6493225-0.6176453-1.8529358-1.4981995-2.597229c1.732605-1.947937,4.8999329-1.9162598,5.8754578,0.9279175
		C315.647583,440.9107361,314.2729797,441.4998169,312.6006165,441.3731689z M310.0509033,435.9918213
		c-1.2068176-1.1751099-2.0429993-2.4737244-2.6289368-3.8356323c2.4737244-2.0715332,5.8279419-1.1117554,5.6125183,2.3532104
		C312.2141418,435.4660034,311.0074463,435.3742065,310.0509033,435.9918213z M306.0441284,429.1248779
		c-1.9320679-0.5541687-1.0515137-1.8243408-2.3501282-2.5339355c1.23526-1.6088562,2.9994507-0.9278564,4.1428833-2.3215332
		c1.2067871,0.8361816,1.3302917,2.0112915,2.1506348,2.9393005
		C308.8757935,428.7860413,307.3744507,428.6942139,306.0441284,429.1248779z M302.3478394,423.5282898
		c-1.469635-0.8045044-0.6809692-2.0746765-2.1189575-2.9076233c2.4451904-2.3502197,6.2650757-2.8475037,6.4328918,1.2986145
		C305.3473816,422.9391174,303.8491821,423.3730774,302.3478394,423.5282898z M298.8985901,417.6813354
		c-1.6090088-0.7728882-0.9882202-1.9162292-2.3184509-2.597229c2.0872803-0.4023743,4.9949036-3.2180786,6.7559509-0.1551819
		C302.1926575,417.2189026,300.3682556,416.3827209,298.8985901,417.6813354z M295.3733521,412.6705933
		c-0.8203735-0.9913635-0.9280396-2.1347961-2.0271606-2.9076843c2.1506653-0.9597168,5.9388428-3.2180176,7.2374573,0.649292
		C299.0221863,411.8660278,297.0267334,411.403595,295.3733521,412.6705933z M291.4743347,406.453064
		c0.0792236-0.712677-0.3230896-1.1751099-1.0357666-1.7927246c1.9194641-1.425293,6.0306702-3.6203308,6.9903564,0.0285034
		C295.6678772,405.8354492,293.8276978,407.0104675,291.4743347,406.453064z M294.1507874,399.4024658
		c-1.8244324,1.2036438-3.5570068,2.3185425-5.9071655,1.7293701c0.0601501-0.8963318-0.9121704-1.6057739-1.2067871-2.4419556
		c1.7642822-1.1752625,3.8198853-1.7927246,5.8469238-2.3185425
		C293.9353638,397.2043762,294.381958,398.1957703,294.1507874,399.4024658z M290.964386,393.9895325
		c-1.840271-0.5258179-3.2307129,0.9278259-4.7478943,1.5139465c-1.6248474-0.7127686-1.0673828-1.9797058-2.0239258-2.8442688
		C286.41922,391.8831787,292.2344666,388.9154053,290.964386,393.9895325z M288.5667114,388.1741943
		c-1.9796143,0.4941101-3.7406616,1.5457153-5.6442261,2.0715027c-1.6533813-0.9913635-1.66922-2.3502197-2.1506348-3.5885925
		C283.324707,385.0796814,289.9128418,382.2955627,288.5667114,388.1741943z M279.3655701,383.5941772
		c-1.0516052-0.5544128-0.8805847-1.3302002-1.5932617-2.0714111c2.2425537-2.1664124,5.1817932-1.1752014,7.3165894-3.5569458
		c1.3588562,0.7412109,1.1751099,1.8561096,1.4222107,2.9678345
		C284.2369385,382.2354431,281.7790527,383.1317749,279.3655701,383.5941772z M282.1812744,221.0834808
		c-2.2583008-0.8044891-0.5574036-3.6519775,0.4181519-4.1144104
		C284.4839783,217.8052521,282.0419312,219.7531891,282.1812744,221.0834808z M280.341095,227.6399536
		c-0.9755249-0.6493073-1.9194641-1.2068024-2.76828-1.7327576c-0.1710205-1.2065582,1.3460693-2.8156433,1.3746033-4.0508881
		C281.5921936,223.2466736,281.8550415,225.2263641,280.341095,227.6399536z M279.4890747,229.7746735
		c-0.3864441,1.6375427-0.5099792,3.1547241-1.3303223,4.7954254c-1.5298767-0.9280243-1.66922-2.1064453-3.588623-2.8158112
		c1.1148987-1.3935852,0.2628784-2.1980896,1.5647278-3.4651031
		C277.0470276,228.0104828,278.3614807,229.2489624,279.4890747,229.7746735z M277.6646423,236.4228821
		c-0.2311707,1.1466522-0.0918274,2.2900848-1.1434326,3.6203918c-2.5686951-0.4941254-0.3863525-2.1348114-1.4379578-3.0628204
		c-1.3936768-1.5773315-1.6565247,1.640686-2.9393005,0.4022064c0.3706055-1.0832062,0.5257874-2.1031189,1.5456238-3.4017334
		C275.083252,235.4664154,275.6691895,235.064209,277.6646423,236.4228821z M270.9688416,243.6635742
		c-1.7958984-0.9913788,0.2946167-3.0026855,0.5859985-4.4851074
		C273.1638489,240.2301483,271.5707092,242.1147003,270.9688416,243.6635742z M269.0811157,248.6426392
		c-1.3778381-0.4655914-0.2945251-3.3415222,0.9121704-3.3415222
		C271.0765686,245.8585205,270.1326599,248.5793457,269.0811157,248.6426392z M273.1036377,259.8392334
		c-0.4972534,1.4538269-0.1108093,2.7524414-1.0230713,4.2979736c-3.1704712-1.5455322-4.3455811-3.4934692-7.269043-5.0708008
		c0.8361816-1.2383728,0.2786865-2.0428772,1.469635-3.3731995
		C268.9259338,257.0235291,270.2562256,259.4687195,273.1036377,259.8392334z M271.7891846,265.5911865
		c-0.5257263,1.2066345,0.5543213,2.1062927-0.6207886,3.4967346c-2.2868347-1.947937-4.4375-3.9274597-7.4686279-5.6917419
		c0.1837158-0.8362122,0.2312622-1.8878784,0.7728271-2.8442688
		C266.081604,262.3129578,269.1128235,263.8902893,271.7891846,265.5911865z M270.9846802,273.8516541
		c-2.9551697-0.7442932-6.0496521-4.3616028-8.6943359-6.4044495c0.4655762-0.6176758,0.9153137-1.3904114,1.3017578-1.9796753
		C267.4562683,267.9128723,272.2516174,270.2028809,270.9846802,273.8516541z M270.3955994,280.1293335
		c-2.3660889-0.0603027-3.8198853-3.1863403-6.0465088-4.2980652c0.2312317-1.4221497,0.6176147-2.8475037-0.2628784-4.0827637
		c-1.9194641-0.0633545-0.2629395,1.7927551-1.0516052,2.6890869c-2.9994507-1.0516968-1.7641907-3.0311584-1.5614624-4.7319641
		C264.6721497,271.7802124,272.3149719,275.6443787,270.3955994,280.1293335z M262.059082,275.9864502
		c-0.4782715,1.3302917-0.5859375,2.660614-0.820343,3.8958435c-0.7094421-0.4022827-1.2669373-0.8361816-2.0239258-1.2669373
		c0.1994934-1.0198975,0.7569885-3.1547241,1.5456543-3.3732605
		C261.1785889,275.4891663,261.6124878,275.7077332,262.059082,275.9864502z M256.7094116,292.4408875
		c-0.4655762,1.6691589-0.4180603,3.0945129-1.2384033,4.6718445c-0.6493073-0.278717-1.3144531-0.7443848-2.0239868-1.2068787
		c1.437973-1.4537354,0.9407043-2.660614,2.1474915-4.2061768
		C255.9524384,291.978302,256.4465637,292.2254944,256.7094116,292.4408875z M253.4755554,298.6267395
		c1.5013428,1.0515442-0.1995697,2.8157349-0.3864441,4.1745605c-0.6968384-0.4307251-1.3460693-0.7727966-1.9320831-1.2036438
		C251.8665466,300.4510803,252.5317078,298.8737793,253.4755554,298.6267395z M252.2403107,305.0594482
		c0.2913971,1.2702637-1.5013428,3.1263733-2.1981812,4.6403198c-2.9994507-1.2067261-1.0673676-3.7121277,0.2344055-5.9072266
		C250.9859924,304.163208,251.6828156,304.6288757,252.2403107,305.0594482z M249.1299591,311.866272
		c-0.9439392,1.0831909-0.0602112,1.577301-1.0674438,2.7207336c-0.554245-0.4941101-1.2827759-0.9596863-1.9954529-1.2986145
		c0.9122467-1.1148987,0.1868744-1.8877258,1.3619843-3.0311279
		C247.6317749,310.8748779,248.1860199,311.4006653,249.1299591,311.866272z M247.074295,316.040802
		c-0.202652,1.2384949-1.1465912,4.5483398-2.9709167,3.0945129c-1.9320831-0.8679504,0.3863678-2.7239075,1.0515137-4.3012085
		C245.7440643,315.2680054,246.3933716,315.73349,247.074295,316.040802z M240.8092957,328.1369629
		c0.5890961,0.9565735-2.1633301,2.9361572-1.4062805,3.9877014c-1.7325897,0.4656677-1.7009125-0.278717-2.999527-1.3303223
		c0.9121704-1.2035522,1.6216888-3.4017334,2.7967987-3.6804199
		C239.7893829,327.3926086,240.2518158,327.7632141,240.8092957,328.1369629z M237.6387329,334.8770752
		c-0.6493073,1.0516052-1.2352448,2.1348267-1.9162445,3.1862488c-1.5171814-0.2469177-1.0515137-0.8043213-2.7524261-1.6373596
		c0.6809998-1.2384949,1.4696503-2.3818359,2.1633453-3.5887756
		C236.5872192,333.3948364,236.8500671,334.2594604,237.6387329,334.8770752z M233.8506317,340.2615967
		c-0.1995697,2.2583008-2.9995422,5.1660156-4.2696228,7.6998901c-0.928009-0.5544128-1.8687134-1.1434326-2.7524261-1.66922
		c1.545639-2.4737549,3.0469666-5.0741272,4.6401367-7.5794678
		C232.1972351,339.210083,233.0302734,339.7960205,233.8506317,340.2615967z M228.4375916,350.004303
		c-0.725296,1.0516663-1.4062958,2.1634216-2.1189728,3.0914307c-0.820343-0.4942017-1.8085785-1.1434326-2.6605988-1.7008362
		c0.7285156-0.956543,1.2827759-2.0715027,1.935318-3.1864014
		C226.5055084,348.7659912,227.47789,349.3867493,228.4375916,350.004303z M225.2037354,355.1704102
		c-1.466507,1.9479065-2.6130829,5.1342468-4.3455963,6.0305786c-1.5298767-0.6177063-2.1189728-1.5456543-2.9361572-2.2900085
		c1.4696503-2.2869263,3.2940674-2.5053406,4.5293121-5.5048523
		C223.3634644,353.9951172,224.3231659,354.5812378,225.2037354,355.1704102z M220.3038025,363.0570984
		c-1.7325134,1.8876953-0.820343,3.1547241-1.8877106,4.9189148c-2.0872803-1.0230713-2.4293518-2.1349792-4.1461029-3.1547241
		c0.8045044-1.2700806,1.6248474-2.6605225,2.4135132-3.9908447
		C217.8269196,361.6032715,219.0970917,362.3760986,220.3038025,363.0570984z M216.3889465,371.162262
		c-0.6651459,1.2035522-1.5456238,1.5458069-2.4103546,2.1950989c-1.2225494-0.649292-2.4293518-1.4855042-3.5727692-2.2267761
		c0.4624176-0.8044434,1.7009125-3.6201477,2.6130676-4.3296814
		C214.3016663,368.2546997,215.1061707,369.7685852,216.3889465,371.162262z M212.9270782,374.9663696
		c-0.5258026,0.956543-1.0832977,1.8560181-1.6407013,2.7839661c-1.3619843-0.8043518-2.7081299-1.6722107-3.9750671-2.4767151
		C208.4262085,371.9035645,210.6053925,373.3256836,212.9270782,374.9663696z M220.4273071,382.2955627
		c2.0239868-3.0628052,5.9546814,1.4222107,7.5161591,2.9393311
		C226.2710876,387.7086182,222.7933655,382.9764709,220.4273071,382.2955627z M223.6738586,378.8305359
		c1.7642822-2.8443298,4.5926971-0.4307251,7.408493,1.3017883c-0.4339752,0.8013306-0.9438629,1.605835-1.4063721,2.3818054
		C227.6806183,381.2757263,225.7168427,380.037262,223.6738586,378.8305359z M227.3860626,372.9550781
		c0.1393585-1.5773315,1.2669373-1.640686,2.1949463-3.588623c1.9796143,1.1751099,3.9433899,2.3502197,6.0021362,3.6488342
		c0.1235046,1.0229797-1.8244324,2.1061096-2.4737396,4.022522
		C231.2692261,375.6156921,228.1113586,374.5323792,227.3860626,372.9550781z M231.4085846,367.1396484
		c-0.0316925-1.5169983,1.884552-3.5884399,2.8284149-5.2894287c1.8085632,1.4855652,3.5727692,2.8475647,6.078186,4.2696838
		c-1.66922,1.9796143-1.66922,2.660614-3.3257599,4.4216614
		C235.1334076,369.521637,233.3248291,368.3782349,231.4085846,367.1396484z M235.8776855,360.1177673
		c0.1995697-1.2352295,0.0602112-2.318512,1.0801392-3.7723389c2.4134979,1.3905334,3.4207306,3.1230469,6.1414795,4.329834
		c-0.6334686,1.1148987-1.2543335,2.1949463-1.9036407,3.2781677
		C239.46315,362.5629883,238.0727081,361.1693726,235.8776855,360.1177673z M238.1645355,354.4577332
		c0.4181366-0.5859375,0.712677-1.0516052,1.0072174-1.66922c1.8244324,1.6375122,6.1383362,2.6289062,5.875473,4.7320251
		C242.8965759,359.8707581,240.5463562,355.2620544,238.1645355,354.4577332z M245.5128021,362.2208862
		c1.437973,0.6809998,2.0872803,1.5172119,2.8442535,2.3502197c-0.820343,1.1781921-0.310379,2.0746155-1.4379578,3.37323
		c-1.2067261-0.6493225-2.1348114-1.3303223-3.2338562-1.947937
		C243.4223785,364.8815002,244.815979,363.4277039,245.5128021,362.2208862z M246.5485687,360.5832825
		c-0.294632-0.6809082,0.2628632-1.6723022,1.1117401-2.6003113c0.851944,0.5891724,1.7325134,1.1465759,2.6763611,1.7008972
		c-0.4782715,0.7759705-0.9755402,1.6407166-1.5013275,2.4452209
		C248.0942078,361.6349487,247.2137146,361.1376953,246.5485687,360.5832825z M246.8431091,353.7165833
		c-1.9510803-0.0316772-4.4089661-2.3819885-6.5912933-3.4651184c-0.1678925-1.1751099,1.3778229-3.6488342,2.4451904-3.9909058
		c2.2900085,1.1751099,3.2022552,3.1864319,5.5207062,3.4651184
		C246.7797394,351.2712402,248.0942078,352.1994019,246.8431091,353.7165833z M243.4540558,343.4161377
		c0.4940491-0.9912109,1.0832062-1.8242493,1.6248627-2.8156128c2.6921997,2.0112915,7.9658966,3.3415833,4.6084442,6.7114868
		C247.9548492,347.1284485,246.0987549,344.404541,243.4540558,343.4161377z M245.8041992,337.7846985
		c1.6248474-1.605835,1.0674438-3.8641663,2.6764526-4.3614197c1.2700806,1.5805359,4.2062378,2.7841187,5.4129639,4.4850159
		c-1.2384033,1.425293-1.361908,2.7239075-1.979538,4.1775513
		C249.7792664,340.6005249,246.9190979,339.3619385,245.8041992,337.7846985z M256.3229675,339.2702026
		c2.381897,1.1149902,2.8601685,2.723999,5.3180542,3.8990173c-0.5543213,1.4822693-0.2312622,2.7524414-1.0516052,4.266449
		c-1.9479065-0.2153931-5.4414825-2.689209-6.7559509-4.2062378
		C254.6822662,341.9308167,255.5026093,340.6005249,256.3229675,339.2702026z M261.5015869,407.2258911
		c0.9597778,1.361969,1.9036255,2.9393005,2.723999,4.3614197c-1.3461609,1.5171814-3.1388855,1.9796143-4.8112793,2.4451904
		c-0.3546753-1.9796753-0.0918274-4.2062378,0.8520508-6.619751
		C260.8522949,407.9986267,261.2704163,407.5964966,261.5015869,407.2258911z M263.8834839,406.9788513
		c3.7279968-1.9479065,9.1567993-6.2777405,11.6938782-0.43396c-2.9393005,1.8877869-5.9388428,3.2813721-9.2011414,4.1776123
		C264.6721497,409.6996155,264.6436157,408.2172546,263.8834839,406.9788513z M276.6288757,409.3605347
		c1.5932617,0.6177673,1.9163513,1.5774841,2.2741699,2.473877c-2.6003723,2.353302-5.770874,2.1664124-8.5233154,3.959137
		c-1.2669067-0.5542297-1.6533813-1.577301-2.2108459-2.3818054
		C270.8136292,411.6506958,273.9208374,411.5556335,276.6288757,409.3605347z M274.4941711,426.0019226
		c-2.8918762,1.9163208-6.0306702,2.5371094-8.9382935,3.8357239c-1.2067871-0.6177979-0.6809998-1.640686-1.7958984-2.1347961
		C266.901947,426.0019226,272.2199097,422.3817139,274.4941711,426.0019226z M278.7478638,432.4665833
		c-2.3216248,1.640686-4.8713989,2.1031189-7.2532349,3.8039246c-1.947937-0.9882202-2.8632507-2.1949463-3.8831482-3.4650269
		C271.168396,431.9407654,276.8126221,426.6196289,278.7478638,432.4665833z M282.6595459,437.6926575
		c-2.4135132,2.3216858-5.3813477,2.381897-8.0577087,3.2813721c-0.9882507-0.5890808-0.848877-1.3935852-1.5298767-2.074585
		C276.1348572,437.756012,280.4170837,433.3628845,282.6595459,437.6926575z M287.8255005,444.1287537
		c-1.9320984,1.7008362-4.2853699,1.7008362-6.3409729,2.7207336c-1.9163208-0.864624-2.4737244-1.9796143-3.788208-2.9393005
		C280.6799316,442.3960876,285.4119873,439.3935547,287.8255005,444.1287537z M292.6494446,449.8490295
		c-1.6533813,1.640686-3.5854797,1.7640381-5.5048523,2.7239075c-1.2827759-0.9915466-1.9320984-2.0746155-3.6044617-2.8790894
		C286.2164917,448.0879822,290.4702454,445.3640137,292.6494446,449.8490295z M295.2941284,452.6647339
		c1.0516052,0.5258179,0.8520203,1.3619995,1.5773926,2.011322c-1.3429871,1.7927246-3.1990051,1.7325134-4.9316101,2.4103394
		c-0.7886658-0.649292-1.0198364-1.4221191-2.4135132-2.0397339
		C291.1829224,453.1588745,293.146698,452.8516235,295.2941284,452.6647339z M301.3723145,459.6867981
		c-1.019928,1.8561096-2.8126526,1.2352295-4.1745605,2.381897c-1.3144531-0.5891724-0.912262-1.6723633-2.552948-2.2267151
		C296.5801392,457.8623657,299.2533569,456.7157898,301.3723145,459.6867981z M307.5740051,465.6572266
		c-1.0357361,1.019928-2.2868347,1.3588562-3.3542175,1.7609863c-0.6334534-0.1835632-3.6646729-2.0396729-4.4406433-3.2463989
		C302.3161621,461.8215942,305.1921997,462.5311279,307.5740051,465.6572266z M317.5353699,469.0590515
		c-2.4136047,2.163269-5.2293091,2.7524414-8.0736389,3.1863403c-1.3904419-0.6493225-1.2384033-1.640686-2.9393311-2.3216858
		C310.0635986,467.6653748,315.1534729,463.4906616,317.5353699,469.0590515z M321.5864258,474.9661255
		c-2.1633606,2.3818359-4.7637329,2.6289368-8.1021118-0.1868591
		C316.0974121,472.7710266,320.1484375,470.4178162,321.5864258,474.9661255z M317.59552,465.2550354
		c2.1506348-3.8071899,5.8469238,0.5859375,4.2093811,3.1547241
		C319.4991455,468.6250916,319.2995605,466.2115784,317.59552,465.2550354z M319.9172058,456.2850647
		c2.6130676-3.6519165,5.1659241-1.2384033,5.4890137,1.7293396c-0.6176453,1.6090088-2.055603,0.1867981-2.6732178,1.732605
		C320.8293762,458.8506165,321.5261841,457.3049622,319.9172058,456.2850647z M333.3087463,465.6572266
		c1.3018494,1.2036438,1.0072327,2.6574707,1.8877869,3.9275513c-3.2307129,2.1347961-6.6958313,2.8126526-9.9898987,4.8238525
		c-1.3777466-1.0515137-2.4451904-2.1632385-2.9076233-3.4935608
		C325.9953918,469.0875244,329.9070129,468.3463745,333.3087463,465.6572266z M332.196991,463.8930359
		c-2.6129761,0.6176147-4.9029846,2.1031189-7.4084167,3.0913391c-0.7886353-1.3271484-1.0198975-2.9076233-1.7325134-4.2663574
		c1.2067261-1.1751099,2.5053406-1.9195557,4.2379456-0.6809998c0.1710205-2.0429993,1.7641907-2.1348267,2.9994507-3.1547241
		C331.9943542,460.3044128,332.78302,462.0686951,332.196991,463.8930359z M329.5206299,456.7791748
		c-0.5257874,0.0600586-1.0516052,0.2471008-1.5457153,0.649292c-1.361908-1.3302917-2.3501282-4.2695923,0.0158386-5.4130249
		C329.1183472,453.4059753,330.1699524,454.8597717,329.5206299,456.7791748z M327.1071167,449.8204956
		c-2.1031189,0.8647156-1.3429871-1.5488586-2.5497742-2.6922913
		C325.9320068,445.8295898,327.9749146,448.6137085,327.1071167,449.8204956z M323.6737061,444.9332581
		c-1.4063721-0.8995667-1.1434326-2.2297974-2.4420471-3.1863403c0.5732422-1.2986145,1.6533813-0.3420715,2.4135132-1.1465759
		c1.5298767,0.5574036,0.0602112,1.9194031,1.6216736,2.5687256
		C324.820282,444.2522583,324.1234436,443.6313171,323.6737061,444.9332581z M322.267334,437.4773254
		c-0.649231,1.2986145-1.7008362,0.4655762-2.5053406,1.1434021c-0.8963928-0.8330383-0.7253723-1.884613-1.4062805-2.9361572
		C319.977417,433.2077026,322.6854553,435.1873169,322.267334,437.4773254z M316.3919373,432.805481
		c-1.1465759-0.8330383-0.820343-1.9163208-1.640686-2.7208252c0.9882202-1.3302002,2.3501282-0.6809082,3.2465515-1.7927246
		c1.4696655,0.8045959,0.7442932,2.1315613,2.0112,2.8126526
		C318.9416504,432.2194824,317.7348633,432.805481,316.3919373,432.805481z M314.5041504,421.6405029
		c1.3619995,0.9913025,1.0040894,2.289917,2.3502197,3.246521
		C313.6236572,429.7458191,308.7205811,421.8876038,314.5041504,421.6405029z M310.1268616,420.7124939
		c-1.5297852-1.019928-1.1434021-2.5054321-2.1347961-3.588623c2.1665039-1.9796143,4.3772888,0.0316772,5.6315918,2.4135132
		C312.5720825,420.5572815,311.2260132,419.8477478,310.1268616,420.7124939z M306.6016235,414.0325012
		c-1.0516052-0.4338989-0.9438477-1.3302917-1.6090088-1.9193726c1.5456543-1.5456543,3.959137-1.7325439,4.5768433,0.649292
		C308.6255188,413.7538147,307.6975098,414.2162476,306.6016235,414.0325012z M303.598938,409.021759
		c-1.3746033-0.5257874-0.107666-1.5488586-1.4379578-2.0112915c1.8275757-1.7958984,3.480957-1.361908,4.8270874,0.8361816
		C305.9364624,408.1855774,304.8691101,409.2688599,303.598938,409.021759z M300.9858704,403.5137329
		c-1.0198364-0.5257874-0.8488159-1.3588257-1.5773315-1.9795837c1.8719482-2.875946,3.9592285-0.8963318,4.7320557,1.269989
		C303.1682129,403.3902283,302.1166687,403.6087341,300.9858704,403.5137329z M296.4692383,395.8138733
		c1.4696655-2.3818359,4.1460876-1.2384033,4.9347534,0.9280701
		C299.8108215,399.1523132,296.5801392,398.5029907,296.4692383,395.8138733z M294.4453125,391.8831787
		c0.107666-0.8012695-0.2945251-1.2669373-1.0072021-1.7293701c0.820343-2.4451904,2.353363-1.0515137,3.3573608-2.8474121
		c1.7641907,1.1465759,0.6334534,2.9393005,2.4293518,4.0827332
		C297.4923096,391.3574524,296.2539062,392.6592102,294.4453125,391.8831787z M292.1236267,386.0710754
		c-1.4664917-0.8045044-0.7095032-2.074585-2.0555725-2.9393005c1.577301-1.0515442,3.2781372-1.1466064,4.8713989-1.7958984
		c1.0039673,0.8045044,0.9121704,2.0112915,1.5614624,3.0025024
		C295.202301,385.5453491,293.6091309,386.0394592,292.1236267,386.0710754z M289.2635498,379.9454346
		c-0.6493225-0.7728271-0.7570496-1.66922-1.2511902-2.4451904c2.2868652-1.9796143,6.7718811-4.2062378,6.8953857,0.4972534
		C293.2068481,379.3879395,291.0878906,379.0806274,289.2635498,379.9454346z M287.3630676,374.3771973
		c-0.5257263-0.7094421-0.7442932-1.2352295-1.1465759-1.8560181c1.8085632-2.1031189,4.4089661-1.2669373,6.3093567-3.2465515
		c1.0832825,0.8329468,0.883728,1.8876343,1.0389099,2.8442688
		C291.677063,373.7594299,289.3553772,373.3573608,287.3630676,374.3771973z M285.921936,368.5936279
		c0.1109009-2.5054016,3.4651184-3.525238,4.9030762-5.2895203c1.53302,0.5574951,1.3461609,1.5457153,1.8561096,2.2900085
		C290.6698303,367.6339417,288.1201172,367.510437,285.921936,368.5936279z M166.5284271,423.5282898
		c2.1823273-2.4451904,4.2062378-5.1058044,7.6713562-1.8244324c-0.9438629,2.1031189-2.5371094,1.5140381-3.6804504,3.1831665
		C169.2966919,424.6114807,167.8745728,423.9304199,166.5284271,423.5282898z M163.0633087,429.1564941
		c-0.8488007-0.6174622-1.8243408-1.2066345-2.6732178-1.7323608c0.9723969-1.3588257,2.258316-1.947937,3.3700562-2.9076233
		c0.9438629,0.2184753,2.3058472,2.1031189,2.970993,1.3302307
		C167.9980774,427.3322449,164.2098846,428.0734558,163.0633087,429.1564941z M174.1364136,418.4224854
		c-0.8804932-1.884552,3.4651031-2.8442688,4.5800018-4.9157715c1.1275787,0.8045654,2.8284912,1.3588257,2.999527,2.381897
		c-0.9597778,1.2669373-2.1665039,1.2986145-3.0153809,3.1230469
		C177.3069763,419.4455566,175.6377411,418.238739,174.1364136,418.4224854z M180.50914,411.3719788
		c1.3619843-0.8361816,2.4737244-2.1665039,3.7881927-3.1864014c1.0990448,0.6176147,2.0587463,1.3302917,3.1577911,1.9796143
		c-1.0072174,2.3818054-2.3818207,2.2900085-3.7121277,3.154541
		C182.7516174,412.7022095,181.6525726,412.1131287,180.50914,411.3719788z M185.766983,405.7720642
		c1.7958832-2.3818359,5.2134705-5.2261658,7.3482819-1.5140381c-0.8837128,1.8561096-2.0588226,2.6289368-3.1705627,3.6488342
		C188.6904602,407.6281738,187.2207947,406.7632751,185.766983,405.7720642z M190.3912811,411.4954834
		c1.7642059,1.2986145,2.7239838,0.6809998,3.6678314,2.1949463c-1.0547485,1.0516052-1.9352264,2.3502197-3.0470581,3.0945129
		c-1.0990448-0.6493225-2.1188812-1.4221191-3.2021637-1.9796143
		C188.6904602,413.4434204,189.8053436,413.2880554,190.3912811,411.4954834z M193.0360565,409.2054749
		c0.9913788-1.7325745,2.1664886-2.8126221,3.5569305-3.246521c0.9596863,0.5859375,1.9352264,1.1117249,2.7841187,1.6375427
		c-0.8203583,1.8560181-1.9004059,2.4768677-2.8443451,3.7754822
		C195.2341461,410.6274414,194.1192474,409.9497681,193.0360565,409.2054749z M194.5849152,401.9680176
		c-1.1466522-0.864624-3.0787354-1.4854126-3.2022552-2.5655518c0.8330383-1.1782532,1.4221344-3.0944824,2.5054169-3.3415222
		c1.5773315,1.6691589,2.7049103,1.2669373,3.7881165,2.875946
		C196.7957001,400.761322,195.588913,400.7296448,194.5849152,401.9680176z M137.8543854,435.4343262
		c3.9591522-0.864624,7.8739929-2.3186035,11.5988159-3.7722473c0.4972687,1.4536438,2.7081299,3.1229553,4.5800018,3.3731995
		C149.1618042,436.1470032,142.3108063,436.9198303,137.8543854,435.4343262z M150.1056671,431.4751892
		c3.0755005-0.5258179,5.8437805-2.2870178,8.5519104-4.0510559c1.6691437,0.6809998,0.9881592,2.0429077,2.0872803,2.9710083
		c-0.5099487,0.9564514-1.2986145,0.4021912-1.5931549,1.6691284c2.5053253,2.2900085,3.5885315-1.6091614,6.2016144,0.6493225
		C160.7765503,434.1990967,156.1204834,435.9316101,150.1056671,431.4751892z M166.5601044,430.6104736
		c0-1.2669373,2.163269-2.0714417,3.4017487-2.8158875c1.8877106,1.2068787,3.6203003,2.0430603,5.2261505,2.1032104
		C174.0002136,431.351593,169.9301605,433.5497742,166.5601044,430.6104736z M179.1946869,429.7458191
		c-1.9637756-1.3936768-4.0193634-2.4135742-5.8152618-3.0026855c1.3144684-2.0714417,3.1103516-2.2266235,4.5483246-3.8958435
		c2.76828,1.8244019,5.3813477,2.6890564,8.057724,3.8673096
		C183.7715302,428.3521423,181.4213104,428.5991516,179.1946869,429.7458191z M190.8252563,425.9100952
		c-3.5570068-2.5053101-6.5722961-3.0026855-10.0215759-5.0107422c1.127594-2.1664734,2.6447754-2.5686951,3.8515625-3.7121277
		c4.0510559,2.0397644,7.7314911,3.0311279,11.8775177,5.6600647
		C194.7368774,424.2377319,192.6495972,424.6114807,190.8252563,425.9100952z M200.6757202,421.5169983
		c-2.2108765-1.1751099-4.3455963-1.7008362-6.6166077-3.4651184c0.8013611-1.7610474,1.8845673-2.5655518,3.0311432-3.1229553
		c2.7809601,2.0112,5.257843,2.7207336,7.9944305,3.8958435
		C203.7543793,420.5256042,202.0218658,420.5572815,200.6757202,421.5169983z M199.177536,412.3918152
		c-1.5013428-0.4624329,1.9954529-2.1031189,2.5212555-3.2180176c3.7089691,1.8877258,7.6079712,4.2093201,11.1965942,5.7234192
		C209.9243927,419.7242432,202.8105316,415.3628235,199.177536,412.3918152z M215.3374329,413.6587524
		c-6.6482849-3.3383789-11.9092865-7.3894348-17.860733-9.9264526c-0.3262329-1.0515747,1.0515137-2.5370789,1.7293701-3.8356934
		c5.3528137,3.0628052,11.1680603,7.6998901,15.8082886,8.133606c-4.4691925-4.1142578-15.3110352-9.340332-20.1380463-13.6099548
		c-0.2629395-1.0516052,1.3302155-2.7207336,2.0429077-4.1745605c2.7524261,3.5569458,11.8300629,8.3205872,17.7086792,12.0644226
		c1.437973,0.8647156-0.6207733,2.3787231,0.1837311,3.4302673c1.0515137-0.4624329,2.0270538-1.2035828,2.875946-2.0714417
		c2.2899933,1.8244019,3.9592133,1.4855042,6.2333832,3.2496948
		C221.0924683,409.5158691,218.4160919,412.4552002,215.3374329,413.6587524z M226.5973206,405.2462769
		c-2.3058472-1.3587646-4.5324707-2.7207642-6.7907867-4.1428833c1.8719482-6.4645691,6.3727417-2.1031189,10.2559052,0.3070679
		C228.9633789,403.1748352,227.5254211,403.3300171,226.5973206,405.2462769z M231.5606232,399.0002747
		c-2.0872803-1.5173645-5.5048676-2.6922913-6.4930878-4.4565125c2.28685-6.4930725,6.5722198-1.7927246,10.3128815,0.8362122
		C234.0501099,396.2762756,233.0619659,398.9685974,231.5606232,399.0002747z M229.6127014,388.0506897
		c1.5931549-3.2814026,8.3839417,1.8529358,9.0015717,3.8641663
		C236.7899323,394.8856812,231.3452148,389.317627,229.6127014,388.0506897z M240.7016296,389.2859192
		c-2.6289215-1.8876953-6.7433319-3.4650269-8.4441681-5.6917419c2.2107849-4.6402893,7.0536499,2.1348267,10.6105804,3.2181091
		C242.2187347,388.2659302,241.3983917,388.605011,240.7016296,389.2859192z M243.9038086,384.2434082
		c-2.0113068-2.8124695-6.5564728-3.4016418-8.4758606-5.7834778c0.8361816-1.1751099,1.5013428-2.4135132,2.2424774-3.617157
		c3.2338409,2.1633606,6.3093567,3.9877625,9.3405762,5.2895508
		C247.1059723,381.8331299,244.9870148,383.2236633,243.9038086,384.2434082z M248.1575775,378.1210022
		c-3.6361542-2.3818054-4.9347687-3.2496948-8.6310577-5.3528137c-0.2471008-1.4221191,1.7008362-3.3383789,2.5528564-5.0709534
		c1.4696655,0.9597778,2.9076385,1.7927246,4.3455963,2.660614c-0.8836365,1.2986145-1.6089935,2.7207336-2.4894867,4.0510254
		c1.7610474,0.6175537,2.9836121-1.0515137,4.0510559-2.9393005c1.1434174,0.5891724,2.1632538,1.3302917,3.2021637,1.8877869
		C250.9542999,374.7478027,249.7190552,377.5319214,248.1575775,378.1210022z M252.4239502,371.3777466
		c-0.8804779,0.2470093-2.0112152-0.6809998-3.0311279-1.3302917c-0.2628632-1.4221191-0.5859375-2.7841187,0.6207733-4.5483093
		c1.2353363,0.7442627,2.3786774,1.4854736,3.617157,2.2583008
		C252.8262482,369.0560608,253.7099609,369.8922424,252.4239502,371.3777466z M254.5587616,366.1801147
		c-1.3144531-0.8330383-2.6763763-1.7009888-3.9908295-2.5655518c1.7325134-1.3936768,0.1235046-2.9709778,1.6723785-3.2782288
		c1.1750336,0.7411499,2.5813904,1.6058655,3.8197784,2.3501587
		C254.8849945,363.9851074,255.7338715,364.8815002,254.5587616,366.1801147z M256.3229675,360.611908
		c-2.692215-1.9162598-5.6600647-3.7723694-7.9025269-5.9071655c0.848877-1.2669373,1.5614777-3.0628357,2.6447601-3.309845
		c2.5813904,2.0429077,3.5854645,2.2900085,7.0821686,4.3614502
		C258.0080261,357.2418518,257.4189453,360.0860901,256.3229675,360.611908z M251.7145081,348.5188904
		c0.4941101-0.8646545,1.0040741-1.5773315,1.4981079-2.3818359c2.3216858,1.4538269,4.7035828,2.9076233,7.224762,4.4533386
		c-1.2859192,1.2700806-0.4972534,2.1348267-1.704071,3.3413696
		C255.8573761,352.2310791,253.2443085,350.4667969,251.7145081,348.5188904z M259.2306824,417.1555481
		c2.597229-0.7728271,6.8509216-5.0424194,8.5834961-0.6176147c-2.4293518,2.0712585-5.4288635,1.9162292-7.874054,3.7723389
		C258.5021362,419.6609497,259.6170349,418.2704468,259.2306824,417.1555481z M260.003479,426.4959717
		c0.8804932,1.6091614,2.875946,3.1864929,1.6375427,5.3211365
		C259.7405396,430.3951416,259.8007507,428.4439697,260.003479,426.4959717z M261.5332642,435.6212158
		c1.7009277-2.8157349,5.4922791-0.5859375,5.9071655,1.947937
		C264.2255859,439.7354736,262.3219299,439.2098389,261.5332642,435.6212158z M271.4312744,441.6835632
		c-2.0872803,1.2067871-4.2379456,2.2266235-6.8509521,1.3619995
		C264.9065552,440.4767761,269.8697815,439.2415161,271.4312744,441.6835632z M270.0249939,451.1792603
		c-2.5845642-0.8331299-1.7958984-2.4419861-4.0066833-3.5253296c3.417572-2.6289368,8.4916077-4.7319641,11.5228271,0.09198
		C275.2511292,449.912323,272.5145569,450.0675049,270.0249939,451.1792603z M272.188324,453.7163391
		c3.588623-1.1148682,8.4916077-5.4763184,11.5228271-0.0316772c-1.9003906,1.4538269-4.3139954,0.991394-6.0465088,2.8475037
		c2.2266235,2.533844,5.8754883-0.7127075,8.6310425-0.7729187c1.4665222,0.8330383,1.9162598,1.7610474,2.6447754,2.8126526
		c-2.7555847,1.3302917-5.7234192,2.3818359-8.8464661,2.7841187
		C276.4895325,458.9741821,274.4624634,456.2533569,272.188324,453.7163391z M282.0102539,463.5509644
		c4.0827332,0.1551819,8.0578003-4.760498,11.9536438-0.8013611c-2.3787537,2.6289368-5.4257202,2.5339661-8.1654663,3.7406616
		C284.065918,465.5622559,283.8980408,464.387146,282.0102539,463.5509644z M289.0924988,469.0590515
		c3.2338562-2.9394531,8.7862549-5.3813477,11.2598877,0.3388367c-2.2107849,0.8678894-4.3614197,1.7009277-6.5246887,2.5371094
		C292.2946777,471.006897,290.657135,470.0788269,289.0924988,469.0590515z M296.8271484,473.2019348
		c3.0755005-0.1552124,5.8913269-3.9876709,9.1853943,0.3103943c-1.4981995,2.0429688-3.5253296,1.8876038-5.457428,2.6605835
		C299.224823,475.1530151,297.0584106,474.4403381,296.8271484,473.2019348z M304.5428772,478.5864258
		c1.0071411-1.7040405,5.9387512-4.3329773,8.4441833-0.2786865
		C310.8078613,481.3071899,307.7450562,479.9451904,304.5428772,478.5864258z M312.4770813,482.4822998
		c2.4452209-1.4538269,5.0266113-2.7207642,7.5003357,0.1868591
		C318.3557129,485.9789124,315.2136841,483.0713806,312.4770813,482.4822998z M325.9953918,479.2357483
		c2.0872803-4.022522,8.9382629-8.3206787,11.9091797-4.1777954c-5.6156616,2.3216858-10.2242126,8.1370239-17.3063965,4.1144104
		C322.1438293,478.3678589,323.7369995,477.2244568,325.9953918,479.2357483z M321.2316589,486.1627197
		c1.5013428-1.3904419,3.2180176-1.7325134,5.3813477,0.0919189
		C325.3302307,488.0188293,323.3189392,487.7400513,321.2316589,486.1627197z M338.2276611,477.9971924
		c1.66922,0.712738,0.9596863,1.7643433,2.2900085,2.4737854c-3.1261902,2.2266541-6.7591248,3.0311584-10.0214844,4.7637329
		c-1.3778381-0.5574646-1.0072327-1.577301-2.5054321-2.0397339
		C331.3133545,481.1203003,334.9969482,480.5026855,338.2276611,477.9971924z M328.7952576,489.162262
		c4.3741455-1.9164124,8.7198181-4.6687622,13.3314209-5.9672852c0.414978,0.4307251,0.5099487,0.9881287,0.1235962,1.6057739
		C337.5150757,485.1428223,333.8662109,490.6793518,328.7952576,489.162262z M335.877533,490.7395935
		c3.0469666-0.6176453,6.4962463-6.2776794,9.4324036-2.8442688
		C342.3103943,489.5043335,339.8683472,493.3716431,335.877533,490.7395935z M343.6882324,492.3486023
		c0.8804932-1.5140381,2.4736328-0.1552124,3.1990051-2.4421387c1.1465759,0.6810913,2.3533936,1.4855957,3.4651184,2.2583923
		C348.7749634,494.5467529,345.914856,492.1015625,343.6882324,492.3486023z M365.8184814,352.601532
		c-2.4134827,17.7246094-4.5609131,36.2219543-8.4124756,54.5325317
		c-1.2225647,5.6600342-2.0270691,12.3716125-2.4610291,18.2502441
		c-1.6849976,18.4023743-1.4981079,35.1355286,2.6447449,52.5211182c1.0230713,4.8555603,3.8515015,10.236908,0.8520508,15.3711853
		c-20.0430603-13.7938538-21.5444031-32.322876-29.0604858-49.673645
		c-4.6686707-11.1363831-10.7944031-21.0028687-16.2548828-31.4581604c-0.5543213-1.2384949-1.8244324-1.9796143-1.235321-4.0829163
		c-23.8343506-32.5697937-16.2232056-75.0376892-15.35849-113.4863586
		c0.4656067-20.723877-7.9944153-40.6433716-8.2572937-62.0485077c-0.1551819-6.9902802-0.2629395-14.9086456,0.9882507-21.2496948
		c0.649292-2.9994507,1.7008362-7.3608856,5.2894287-9.3404999c3.1547241,8.6911926-1.5013428,17.8765717-2.0271301,27.2202301
		c-1.3746033,21.9909821,7.2406006,42.3729095,7.9026184,64.3987274c0.0316772,4.2062378,0.7759705,9.0617981-1.3746948,12.9576416
		c1.6091003,9.6509705,0.4339905,19.2417297-0.0632935,28.490387c-0.4308167,9.3690491-1.2827759,18.9913025-0.0602112,28.4238892
		c1.3905334,10.2684326,6.4645691,21.0026855,11.057251,30.9640198
		c9.3405762,20.2900085,18.7444458,40.1176758,27.7618713,60.3445435c2.381897,5.0424194,4.5610046,10.3002014,7.0822754,15.2507935
		c2.3501282,4.5134888,4.5925903,10.8545532,10.2242126,12.8658447c2.9994507-2.7841187-0.7886658-5.9989929-1.8117371-8.6912842
		c-2.76828-7.7948608-3.588623-22.3615112-3.6805115-31.3631592c-0.0316162-5.257782,1.2986145-10.7658691,1.9353027-16.3024902
		c0.6176147-5.5966187,0.5384216-11.1965332,1.2035522-16.2072754c1.5013428-11.5071411,4.9664612-22.6402283,6.6514587-33.6847839
		c1.3778381-10.9812622,2.0271301-22.0226746,2.3502197-32.4464722c0.3705139-10.7626038-0.1837463-21.0312195-2.3502197-31.610199
		c-2.1189575-10.021637-3.788147-20.2615356-9.0015869-29.6654968c-5.4573975-9.7743835-12.7739868-18.8963928-20.445343-27.4039459
		c-7.4686584-8.2287598-15.1082458-16.7648315-19.3303223-27.2202301
		c-3.0628967-7.8867645-2.5846252-15.1558228-6.0021973-24.0022888c4.3772583,5.7551117,5.8469238,12.6820984,7.9025879,19.1467438
		c7.639679,22.9506073,32.322876,44.7894135,44.9891357,66.6252899
		C367.4877319,307.4731445,368.7261963,330.9812317,365.8184814,352.601532z M348.2966919,286.0998535
		c2.0872803,1.3302002,2.1506348,3.2465515,2.9076233,4.950531c-1.640686,1.1117249-5.0740356,0.7412109-5.2894592,3.3700562
		c2.2741699,1.6090698,3.588623-0.8045044,5.3496704-1.6090088c1.6248474,1.2701416,1.6248474,3.2180786,1.8244324,4.8872375
		c-0.7886658,1.2701416-2.0872803,0.8963928-2.7049866,2.7239685c1.7325745,1.6058655,2.5054016-0.7443542,4.1746216,0.3990479
		c-0.0918884,1.3017883,0.1235046,2.4451904,0.4655762,3.5600891c-1.1148682,0.2471008-2.489563,0.0602112-3.2782288,1.884552
		c0.7253723,1.8877869,2.6733093-0.5859375,4.2823181,0.991394c2.4135132,11.7224121,4.1460266,23.6316833,2.9076233,36.2187195
		c-0.7570496,2.2584229-2.2868347,0.991394-3.20224,2.4136047c0.6208496,1.8243408,2.5054016,0.215332,3.1420288,1.9795227
		c-1.2542419,1.7009277,0.3864441,2.597229-0.4022217,4.1461182c-0.6208496,2.0080566-2.0271301,0.5257874-2.8316345,2.0397339
		c-0.1393738,1.6090088,2.0112915,0.7443848,2.76828,1.7009277c-0.4941406,1.640686,0.5574646,2.875946-0.5258179,4.6084595
		c-2.9994507-0.0284729-5.8152466,0.2184753-8.6152039,1.2986145c2.5054016,3.6836548,5.8469238-0.8963318,8.9858093,0.5574646
		c-0.8171997,1.3303223-0.2913818,2.1981812-1.5457153,3.4651184c-2.055603,0.6493225-4.3772888,0.3103943-6.4328613,1.4853516
		c1.4981689,2.8444214,4.545166-0.0317078,6.6355896,0.8330994c0.2913818,0.8362122-0.2945557,1.8877869-0.0632935,2.723999
		c-5.4890137,2.3818054-11.9251099,1.4537964-17.4775085,3.3700562c5.0582581,3.5567627,11.1364441-0.5574951,16.3340759-0.7728271
		c1.7610474,0.4941101-0.649292,2.0429077,0.7094421,2.5053406c-6.1066284,2.3502197-14.582489,2.7239685-20.1348877,2.4737244
		c6.9903564-21.9909973,6.4645691-42.125885,3.0628357-61.7064514
		c-0.4814453-11.1364746-3.1419678-21.5285645-11.1047058-30.9324341c6.727417,1.2701721,15.5422058-10.0500183,19.624939-1.5773315
		c-2.2583313,2.6002502-5.3813477,2.011322-7.639679,4.5166321
		C342.0475464,289.9354858,346.1618652,288.4183044,348.2966919,286.0998535z M353.2916565,394.2365417
		c-6.3410339,2.7207336-13.3313904,2.8442383-20.1507263,3.3383789c0.8804932-0.7728271-0.2344055-1.2035828,0.1994934-2.0397644
		c6.3885803-1.9480896,12.9608765-3.2180176,19.624939-4.2696228
		C353.6146545,392.1334229,353.0604248,393.3085327,353.2916565,394.2365417z M350.3079834,407.102356
		c-5.8786316-0.3707581-11.120636,2.0429077-16.9358826,1.6090088c0.1837463-0.6494751,0.0602417-1.2669373-0.4021912-1.8877869
		c5.8469238-2.5053406,11.8617554-3.8641663,18.4181213-3.4017334
		C350.1528015,404.8440552,351.7744751,405.5883484,350.3079834,407.102356z M349.3641357,419.1351624
		c-3.4651184-1.947937-12.7897644,3.8039551-14.9087524-1.5773926c4.3898926-1.9478455,10.730957-3.4333496,14.7218628-2.3818359
		C350.4758606,416.1958618,348.512085,417.9917297,349.3641357,419.1351624z M346.7795715,436.7646484
		c-3.3257446-1.8244324-8.3808594,2.9075317-9.0934753-1.23526
		C340.422699,433.0239868,349.7189026,429.8059692,346.7795715,436.7646484z M337.5783691,432.156189
		c-1.4696655-1.019928-0.6493225-2.6289368-1.5013428-3.6488342c4.3773499,1.1434021,7.6713562-2.660614,11.8491211-2.4420471
		c0.7886658,1.4221191,0.8804932,3.1831665-0.4497986,5.0709534
		C343.9796143,430.6104736,340.7806091,431.5068665,337.5783691,432.156189z M347.8944702,442.9219666
		c-3.8515625-1.7008362-8.5835266,2.7208252-9.3722534-2.5370178
		C342.5131226,438.7157288,348.1256409,436.2705078,347.8944702,442.9219666z M346.7193604,443.8183594
		c0.2945557,1.8877258,0.1678772,3.8038635,0.4307556,5.7835693c-1.2827759-0.9596863-2.8442688,0.2185669-4.760498,0.3706055
		c-1.8719482-0.8647156-0.820343-2.5338745-2.1031189-3.5856323
		C342.2502747,444.7780762,344.4293518,444.2522583,346.7193604,443.8183594z M347.4130554,450.8404236
		c0.6524658,1.5456238-0.4941101,3.6804199,0.5415649,5.2260742c-0.8045044,0.712677-2.1474304-0.5859375-2.9360962,0.43396
		c-0.8836975-1.4221191-1.3302917-2.9995117-2.353363-4.2062378
		C344.245636,451.4580383,345.7438354,450.9005432,347.4130554,450.8404236z M347.6315308,457.5836792
		c0.3389282,0.9882202,1.5773926,2.8443298,0.171051,3.3383484c-1.1148987-0.8329468-1.1782837-1.7610474-2.2900085-2.5655518
		C346.0700684,457.5836792,347.0741272,458.2932129,347.6315308,457.5836792z M347.970459,462.1603699
		c1.3936768,0.7128296,0.7728271,1.8878479,0.4181213,3.0312805
		C348.0655212,464.171814,347.3686829,463.3039551,347.970459,462.1603699z M336.3399658,427.0535278
		c-0.5859375-1.2669373-0.9724121-2.5370178-0.8805847-3.8673096c3.6963806-1.5140381,12.4667664-5.1343384,13.4866028,0.1551819
		C345.1261902,425.878418,340.1597595,424.3613281,336.3399658,427.0535278z M349.4242554,413.7221069
		c-4.4690857-2.1347961-10.344574,1.5457153-15.8684082,0.1235352c3.2021484-5.4446411,10.8735046-3.4334412,15.9761658-5.5365601
		C350.8622437,409.8547974,349.7948608,411.8058777,349.4242554,413.7221069z M332.9382019,402.4938354
		c3.8515015-4.7003479,12.868988-3.1863403,18.6525574-5.473175c0.3864441,0.1520386,0.7886658,0.4939575,1.1434326,0.7411194
		C350.5075378,403.5454407,337.0209351,402.7407837,332.9382019,402.4938354z M308.334137,382.8530579
		c-0.3262329-1.6090088-1.6090088-2.9710083-0.8836365-4.8555603c5.2451477,2.2866821,9.3563538,0.278717,13.7811584-0.8678589
		c-3.5727844-4.1428833-10.0373535,2.660614-15.6816406-1.4221497c-0.234314-1.2669067-0.3262329-2.597229-0.8836365-3.8039246
		c4.3170776-1.732605,9.7903137,0.9881287,13.5784302-2.5371094c-3.8800049-2.5370178-8.9382935,2.1950378-13.933197-0.4022217
		c-1.1434021-1.5140076-0.3547668-3.3701172-1.469635-4.8239441c4.3772583-0.5257263,8.7545471-0.9281616,12.634552-3.6203918
		c-3.461853-2.8441467-7.9944153,2.4136963-12.1689758,1.1752014c-1.2859192-1.4855042-0.4972839-3.5569458-0.5258179-5.2577515
		c4.1144409-1.8561096,8.4885559-2.660614,12.8500061-4.1746521c-2.7967224-3.5570068-8.675354,1.8846436-12.8815918,1.4538879
		c-3.4017334-8.1370239,8.4758606-6.9302063,12.7897644-9.065094c-2.7366028-3.24646-9.0459595,0.6493835-12.9291992,1.2385559
		c-1.5614929-1.5171814-0.4940491-3.9275513-0.7728271-5.8754578c4.4058228-2.4135132,9.3564148-2.7555847,14.0567932-3.9592285
		c-4.2981567-3.7121277-9.2329102,1.3271484-13.8096924,0.8330383c0.6334839-1.9796143,0-3.5252686,0.171051-5.3498535
		c4.1111755-2.1663208,8.8463745-1.4219666,13.1286621-2.8757629c-3.6329956-3.2181091-8.6595764,0.3072205-12.8372803-0.2787781
		c0.1551819-1.3302307,0.5574036-2.6004028,0.0316772-3.8070984c4.1143494-2.3186951,8.4916382-3.3067932,13.0684814-3.4017639
		c-2.5211792-4.4216309-8.4884644-0.0918884-12.0612488,0.2185059c-1.5646973-1.6723022-0.3579102-3.9908447-0.1235962-6.0939636
		c3.6963806-3.0311279,8.4568787-1.640686,12.463623-3.309906c-3.8515625-3.4650269-8.7672424,1.1434021-13.2078857,0.1235657
		c-0.9281006-8.1053162,8.260437-6.4963074,13.2236633-7.3008118c-1.1148987-4.1428833-8.5993958-0.3705444-11.8617554-0.1235046
		c-3.588562-7.6713562,7.6998596-6.4645691,12.0771484-7.3609009c-3.4618835-2.9076843-8.3807983-0.2787781-12.1689758,0.2470398
		c-0.4656067-1.6090088-0.5258179-3.3415222-0.2344055-5.1342773c4.237915-0.8045044,8.7862244-0.589325,12.7771301-1.9162292
		c-3.54422-2.6922913-8.7545471-0.1552734-12.7137756,0.3071594c-0.8804932-1.6691589-1.0072327-3.6804504,0.9121704-5.9989014
		c9.5717468-1.5488586,16.2391052-0.8997192,23.4131165,8.9698792c8.6469116,11.9695129,10.4554749,38.8793335,8.9572754,56.4803772
		c-0.8994751,10.8545227,0,22.6719055-7.4242554,32.7250061c-4.5007629,5.9072266-17.369751,11.6306458-20.1063538,2.2583923
		c3.588623-0.5257263,11.1047058,1.9162292,11.3518066-3.3731995
		C316.9177551,383.1317749,312.8951416,384.3987732,308.334137,382.8530579z M333.9580383,392.7193604
		c-0.8487854-1.1117554,0.063385-2.6890564-0.2311707-3.959137c6.9301453-0.8362122,13.6418152-2.5054321,20.337616-3.895874
		c1.1148987,1.3303223,0.0791321,2.9994507-0.5099487,4.5768433
		C346.9822083,390.5845642,340.422699,391.607605,333.9580383,392.7193604z M333.9897461,385.6973877
		c1.53302-8.1337891,15.900177-4.7637329,21.3289795-7.1139526c1.1592712,1.0832825-0.5574036,3.0310669-0.6049194,4.4850464
		C347.7709656,383.9647827,341.1986694,385.944397,333.9897461,385.6973877z M328.0509644,285.0482483
		c-1.3461304,0.5257874-1.469635-2.0112915-2.5813904-2.7207642c5.5808411-2.5054016,11.3201294-4.2695923,17.0720825-6.4962158
		c1.3017578,0.649292,1.2384033,1.57724,1.9035339,2.289978
		C339.4344482,281.3042603,331.8106384,280.9655151,328.0509644,285.0482483z M331.7314148,277.4085083
		c-2.6130676,0.7728882-6.2935181,3.4335022-9.5273743,1.2385559c3.8514709-3.5601807,11.0603943-4.7954102,16.3181763-6.8985596
		c0.9597778,0.5574951,2.0271301,1.1117554,2.2583923,1.8561096
		C338.2593384,276.1414795,334.7467957,276.4172058,331.7314148,277.4085083z M319.562439,275.9547729
		c-1.2859497-0.6809998-0.6809998-1.7325134-1.8718872-2.3501587c5.8912354-2.4135742,11.98526-4.5166931,18.1235962-6.1858521
		c1.53302,0.4941101,1.0832214,1.4538269,2.4610291,2.0712891
		C332.1020203,272.0272217,325.9161682,274.3457642,319.562439,275.9547729z M316.0023499,271.0041504
		c0.3895874-0.8963318-0.5258179-1.4537964-0.848877-2.1315613c5.4130249-2.3216858,10.9020386-4.3614502,16.3942261-6.3410645
		c1.8561096,0.8646545,2.381897,1.947937,3.1547241,2.9993591
		C328.5007019,267.6974792,322.4985962,270.2947083,316.0023499,271.0041504z M321.8049011,264.137207
		c-2.6446838,0.8363647-6.2966614,3.1864929-8.6468201,0.7761536c4.9632263-2.8474121,10.2242126-3.6203003,15.3109436-6.0022888
		c0.9439392,0.6177673,2.2900085,1.2669373,2.4136047,2.1032715
		C328.4373474,262.7785339,324.820282,263.3961792,321.8049011,264.137207z M319.0366211,259.7791138
		c-2.5211792,0.7094421-5.9102173,3.5569153-8.260437,0.8963013c4.7637329-2.3216858,9.5274658-3.9908142,14.1992798-6.002121
		c1.4062805,0.5891724,0.9882202,1.4854889,2.4578857,2.0714264
		C325.5012817,258.879364,321.8809509,259.0030518,319.0366211,259.7791138z M310.282074,258.170105
		c-1.0990601-0.5892639-0.9121704-1.3936768-1.6248474-2.0746765c4.329834-1.947937,8.7070923-2.6890717,12.6662598-5.3813629
		c1.4379578,0.6493073,0.9438477,1.6089325,2.5370789,2.1981812
		C319.4674683,255.1674042,314.6878662,256.0036011,310.282074,258.170105z M307.7450562,253.3113098
		c-0.0316772-0.5542603-0.4023132-1.0200043-0.6968384-1.545639c3.9592285-2.3818207,10.2844238-6.7717896,13.5942688-2.5370178
		C316.2367554,250.0964508,312.5087891,253.8085785,307.7450562,253.3113098z M305.8731079,248.27211
		c3.6361389-1.732605,8.0736389-6.2492218,11.8174438-3.0026855
		C313.8389893,246.4762268,310.0951843,248.487442,305.8731079,248.27211z M305.4550476,245.3327942
		c-1.1751099-0.6809845-0.9723816-1.7642822-1.5614624-2.6605988c3.2655334-0.8964996,7.6712646-4.4849548,10.7657776-1.4855042
		C312.014679,244.0341797,308.5178528,243.4450073,305.4550476,245.3327942z M303.5863342,239.7043457
		c1.1908875-2.258316,7.5160828-6.2491455,9.3088074-1.8878632
		C309.8640137,238.7129669,306.8644714,240.0432739,303.5863342,239.7043457z M302.3161621,234.6302338
		c1.7009277-2.0715179,4.1144409-1.3302307,5.9071655-3.4651947c1.6090088,0.6494751,1.640686,1.6725311,2.3818054,2.4136658
		C307.8368835,233.733902,304.5744934,237.0438232,302.3161621,234.6302338z M302.6107178,231.5357208
		c-1.5297852-0.4940338,0.2312622-1.6692963-0.8804932-2.2266235c1.8561096-1.2986145,3.5569458-2.039917,5.4890137-2.6573792
		c0.712677,0.7728271,0.7411499,1.6691437,1.2986145,2.4420471
		C306.6617737,230.4842072,304.6378479,231.1650391,302.6107178,231.5357208z M302.4080811,226.5249786
		c-1.3588562-0.6493835-0.3864441-1.8243408-1.2353516-2.4103546c1.4696655-1.2700806,2.9995422-1.7008362,4.4058228-2.8474121
		C308.6255188,224.7006378,304.9926147,224.9476624,302.4080811,226.5249786z M305.3473816,218.9486847
		c-1.2067871,0.9596863-2.6289062,1.266922-3.8800049,1.9796143c-1.8877869-2.6289215,1.7325134-2.8474884,3.2622986-3.4651184
		C304.7613525,217.9888153,305.5500183,218.3911896,305.3473816,218.9486847z M304.5744934,215.7939606
		c-0.8488159,0.5860138-2.1505737-0.4656677-2.7049255,1.0516052c-1.3777466-0.4338989-0.3737488-1.330307-1.1148682-1.8561096
		C301.9614868,212.4841156,304.8057251,213.4723511,304.5744934,215.7939606z M300.9858704,211.9583282
		c-0.7886658-1.1434326,1.1307983-1.6407013,1.5013428-2.3818359
		C304.2514038,210.5963287,301.5274963,211.8031311,300.9858704,211.9583282z M301.8695679,206.9475708
		c-1.6089783-1.05159-1.1465759-2.4737244-0.928009-3.8356323
		C301.9614868,204.1634521,302.3478394,205.4620819,301.8695679,206.9475708z M414.0700073,304.7207031
		c-9.3848572-14.5983276-19.6724548-28.3319702-36.560791-41.2009583c-1.4981079-1.2067871-3.4935608-1.8244019-5.086731-3.1546936
		c-1.4696655-1.2384033-2.5813904-3.4935913-4.2854614-4.7003784c-4.1428528-3.3416748-9.3088989-6.0022888-13.933197-9.2486725
		c-2.1950073-1.640686-3.8514709-3.7438049-6.0465088-5.4130402c-4.3772583-3.1864777-9.3120422-5.1342468-13.7494507-8.0134277
		c-14.9403992-9.21698-23.6000061-22.4850311-29.0921631-34.2391052c0.4655762-0.4942017,1.3460693-0.61763,0.9913635,0.0602112
		c7.9659119,12.9006653,20.8000488,24.8067169,38.6797791,35.8829651
		c30.7929993,18.9913788,55.7676086,39.6521606,70.3058167,63.7177429
		c10.208374,16.8566589,13.1476746,34.1472778,16.1313477,52.6129456
		C425.0513,335.7766418,423.3820496,319.2589111,414.0700073,304.7207031z M427.6960449,306.4848328
		c-2.4578857-2.1347351-2.9076843-5.663147-4.0194397-8.5073853c-7.7029419-19.1150513-19.6280823-39.4051514-44.8972168-55.0582428
		c-8.3206787-5.0710449-18.2503357-10.7309418-27.9772949-15.0639191
		c-9.0174866-4.0193634-18.2503357-7.7631836-25.7664795-13.1445312
		c-7.7029724-5.5365448-10.7341919-13.0527039-16.6729431-19.1151428
		c6.2966919,0.8964996,7.8265381,7.2375488,11.2916565,10.8578491c7.9025269,8.1020966,20.5371094,13.4549103,32.6174316,19.0516815
		c14.3354797,6.5279236,30.8215332,10.1164703,45.6859741,22.703598c2.8600769,2.3818207,5.3179626,6.7114868,8.0862427,9.9613647
		c8.4283447,9.7743835,13.0368652,17.6928406,17.3063965,28.7025452
		C425.9634705,293.4607239,428.1457825,300.5461426,427.6960449,306.4848328z M479.0895386,187.6138763
		c-6.3727417-7.2056122-13.3314209-13.2678833-22.7352905-18.928009
		c-6.3885803-3.8673248-11.6780396-8.941452-17.7529907-12.0644073c-15.079834-7.6713562-29.2315979-6.3093567-42.7023621-6.1541595
		c-6.1383362,1.2352448-11.6621704,4.4532471-17.8924255,4.8872375c-6.2808228,5.1025696-13.8887939,6.217453-21.2339172,10.547287
		c-10.5029297,6.0622711-21.1421204,11.5354462-32.5730591,16.5175781
		c-9.4482422,4.0512085-15.7734375,11.3202667-26.4443359,8.9067535c1.6533813-2.5370178,4.4691772-1.8876953,6.7877197-2.9393005
		c12.2354431-5.7835693,24.6071472-14.1042328,37.8467407-20.4135895
		c6.3251953-3.1864166,25.6239014-11.5355225,28.7785339-12.9893341c3.2339478-1.4253693,12.0169678-5.1659546,13.2237549-5.5080261
		c4.3171387-1.2067871,8.3681946-4.0828857,12.3431702-4.9474487c3.3700562-0.7442932,8.2731323-1.330307,11.2726746-1.2986145
		c8.9698792,0.0602112,17.1670532,2.381897,27.2360535,6.4012604c4.0352173,1.5773163,8.9066162,3.1229553,13.8730774,5.8469391
		c10.8101501,9.8059998,23.042511,21.0312195,32.5097351,29.8491516
		C482.1808777,186.5023041,479.4442749,185.4190063,479.0895386,187.6138763z M496.2850952,204.286972
		c-2.0238953-1.5773315-3.9116821-4.4532623-6.4011841-6.619751c-3.2338562-2.9678497-9.6984863-5.5966949-7.2374573-9.4324036
		c8.8781433,4.9157715,16.9802551,13.9489441,26.631134,19.7642822
		c13.3314209,7.8265381,28.0533447,12.216507,41.1535034,14.9404907c0.3262329,0.0918274,0.5891724,0.3070831,0.7127075,0.4940338
		C536.8051147,223.2783508,512.6477051,216.8138733,496.2850952,204.286972z"/>
</g>
</svg>
