<?xml version="1.0" encoding="UTF-8"?>
<svg id="bean" xmlns="http://www.w3.org/2000/svg" version="1.1" viewBox="0 0 1100.5983546 1000">
  <!-- Generator: Adobe Illustrator 30.0.0, SVG Export Plug-In . SVG Version: 2.1.1 Build 123)  -->
  <g id="outline">
    <path d="M501.3925294,623.90696c12.8374261-5.3071452,18.939224-8.0411291,20.6893521-8.6844194-2.5826215,1.0122362-13.206372,5.543649-20.6893521,8.6844194Z"/>
    <path d="M495.385333,626.4044401c-1.0122362.5486888-1.0122362.4635474,0,0h0Z"/>
    <path d="M82.8943319,956.1664132c53.0241511,42.9585495,157.6912712,56.9122735,227.4409708,30.3008664,138.9507104-52.9295496,219.5133635-198.1618008,367.1390331-315.486604,111.4122083-88.3199777,211.7465788-107.3065024,287.5034749-169.6678234,164.8147655-135.5261354,194.746686-328.7497369,3.8786623-452.6871863C711.6538644-118.6771196,291.6798832,177.595916,128.5301044,453.6904478c-89.0578695,150.6812987-213.4115656,366.4862826-45.6357725,502.4759655ZM756.9301512,564.601268c-10.5386092,18.8919232-98.6693838,97.1841399-100.7033164,63.1843542-27.349299,11.7778891-14.3226699,80.6572547-48.407597,54.7837394-19.7717174,21.6637477-20.5096092-11.9197913-2.9610275-17.6431832,4.6260143,6.6977875.3689459,11.5035446,2.9610275,17.6431832,18.2864735-10.3494061,14.5970143-24.1517677.5486888-39.6285761,41.1138199-32.892948,103.106195-110.6743165,148.5622246-78.3395175ZM854.2088926,415.7173982c50.1577251,12.9793283-5.543649-66.8832736,60.3273883-24.5680144,13.206372-11.087298,24.1990684-9.3844706,33.2524338,5.4017467-10.8980949,7.6248824-21.4272439,15.5619498-32.145596,23.1395314-4.9003587-10.2075038,2.7718245-18.4283758-1.1068378-28.5412781-3.8786623,24.4355722-58.3880572,75.9839397-60.3273883,24.5680144ZM585.2756958,610.9276316c1.1068378-7.2086357-.8324934,4.6638549,0,0h0ZM546.8390989,638.8256194c-.8230332,4.6165541,1.1162979-7.161335,0,0h0ZM641.6298204,540.6670839c6.4707439-4.3895105,10.718352,4.1151661,15.7038521,8.1357306-6.2815408,4.4273511-10.6237505-4.2097676-15.7038521-8.1357306ZM612.4357918,581.4119579c-30.5752108,10.718352,19.9514603-25.9113559,0,0h0ZM677.8432817,455.5351774c-4.8057571-6.1869393-.5486888-11.3143416-2.9515674-17.2742373-4.2570683,3.2353719-8.599278,6.1869393-12.7522847,9.2425684,7.5775816,18.2391728-13.8591225,31.8239508-24.3882715,47.0642555-15.1551633-19.2135684,5.3544459-32.9307886,24.3882715-47.0642555-5.1747031-3.8881224-10.8980949-3.5191765-17.5485817,2.8096651-10.5386092-16.574186,20.4150077-17.5958824,25.6748521-18.4756766,1.4852438,1.9866319,2.9610275,4.1624668,4.6260143,6.4234431,17.7377847-8.8641623,29.3737715,6.603186,2.9515674,17.2742373ZM748.1511302,404.5827995c4.3422097-3.1407704,8.5898179-6.2815408,12.8374261-9.3750105,3.1407704,4.3895105,6.2815408,8.4573758,9.2425684,12.7995855-4.2476082,3.1407704-8.3154735,6.2815408-12.8468862,9.280409-3.0461689-4.2003074-5.9977363-8.5425171-9.2331082-12.7049839ZM554.511282,555.131656c-.9270949,4.6165541,1.0122362-7.2086357,0,0h0ZM676.0931536,466.6224753c4.1530067-3.1407704,8.5898179-6.1869393,12.648223-9.1479668,2.9610275,4.2097676,6.1963995,8.6371186,9.3371699,12.7995855-4.2476082,3.1407704-8.410075,6.0923378-12.8468862,9.2331082-2.9515674-4.3800503-6.0923378-8.5425171-9.1385067-12.8847268ZM589.4287025,549.3515033c1.0216964-7.3410778-.7378918,4.5314127,0,0h0ZM603.9405754,528.8891948c-30.8590153,11.0399972,19.7622572-25.8167544,0,0h0ZM549.2419775,588.2894883c-4.4273511,3.1029298-8.6844194,6.1490987-12.7428245,9.2425684-13.1212306-11.5981462,0-18.7973217,9.7912572-26.79115,2.5826215,6.0923378-1.8447296,11.1345987,2.9515674,17.5485817ZM632.3872521,527.782357c-.7378918,4.6165541,1.1162979-7.3032372,0,0h0ZM497.9679544,625.4300444c1.2014393-.6905911,2.3177372-1.059537,3.424575-1.5230844,7.4829801-3.1407704,18.1067306-7.6721831,20.6893521-8.6844194-1.7501281.6432903-7.851926,3.3772742-20.6893521,8.6844194-2.4028786,1.1541385-4.8057571,1.9393311-6.0071964,2.4974801-1.0122362.4635474-1.0122362.5486888,0,0,.558149-.0946015,1.2014393-.4635474,2.5826215-.9743956ZM598.5766693,562.0091864c-30.6698123,11.087298,19.7717174-25.8167544,0,0h0ZM680.1515587,512.7690961c-4.3422097,2.9988681-8.5898179,6.1017979-12.8374261,9.1952676-2.866426-6.1963995-6.9342913-4.1151661-10.9926964-1.7595882-11.7305883-10.4818482,22.4489403-30.6225115,23.8301225-7.4356794ZM713.8770001,478.4949659c-30.6698123,10.7656528,19.8568587-25.7789138,0,0h0ZM532.8002335,619.612051c-.7378918,4.6165541,1.1068378-7.1140342,0,0h0ZM695.7702694,520.8480657c-30.6792724,10.9548558,19.7717174-25.7694536,0,0h0ZM1005.3442786,354.6048173c-.8324934,4.5787135,1.0216964-7.2464763,0,0h0ZM1010.6135831,321.5321264c41.7571103-22.1745959-28.2669337,15.013261,0,0h0ZM1030.5650434,267.9971271c4.2570683,8.1735712-7.851926,13.8591225-14.5970143,20.3204062-10.339946-9.2331082-3.9732638-15.6092506,3.5097163-22.117835,2.7718245,6.2815408,6.8396898,4.2949089,11.087298,1.7974289ZM971.6282974,281.2981006c-3.1407704.8797941-20.9731567-5.3071452-20.3298663-14.5970143,1.7595882-20.5096092,51.1888817,6.1490987,20.3298663,14.5970143ZM983.3588857,243.4669534c9.8858587-2.866426,19.128427-1.4284829,26.6965485,9.9804602-9.7912572,2.9515674-19.0243654,1.3811822-26.6965485-9.9804602ZM930.4198759,291.8367098c12.7522847,2.1663748,23.6503796,17.321538,34.1889888,33.7159812-32.334799,9.0533653-29.9319205-15.9781965-51.7375705-30.9914575,2.119074-8.968224,9.6115143-17.4161396,21.058298-25.0410219,10.1696632,9.2425684,3.6989194,15.7511528-3.5097163,22.3164982ZM982.7155953,283.190131c4.4273511-3.3205133,8.4952164-6.2815408,12.7428245-9.4223112,3.1407704,4.2570683,6.2815408,8.5046765,9.4223112,12.8468862-4.3422097,3.0461689-8.5898179,6.3288416-12.9320276,9.280409-2.9515674-4.2949089-6.0923378-8.7317202-9.2331082-12.7049839ZM1035.7397465,234.9244362c7.3032372-6.3761423,10.6237505,6.2815408,0,0-7.9465276,6.2815408-2.7718245,14.4078113-14.5970143,20.2352648-4.6165541-6.3288416-9.3277097-12.894187-13.8591225-19.2230286,10.3494061-6.6504868,21.6259071-17.0377335,28.4561368-1.0122362ZM1041.1036526,201.7098431c-22.1745959,19.9136196-41.5773674,22.1745959-57.1014766,2.2231357,31.4171643-.2838046,31.7861102-26.5641064,57.1014766-2.2231357ZM971.1647499,213.166087c4.7111556,6.4707439,9.3277097,12.8847268,13.953724,19.2608692-9.3371699,10.6237505-23.2814337,2.4501793-19.2230286,13.8591225-6.0923378,2.3555778-11.3616424.2270436-15.883595-8.0411291-8.5046765,6.792389-16.0822581,7.3032372-23.6503796,7.4451395-11.6454469-10.4440076,22.3543388-30.5373702,23.6503796-7.4451395,13.3009735-7.3410778,8.9587638-17.4066794,21.1528995-25.0788626ZM929.3130382,263.380573c-8.4952164,6.0923378-17.1796358,12.2887373-25.8640552,18.5229773-5.9125949-8.6371186-12.2887373-17.1417952-18.3905352-25.7789138,16.1673995-7.5775816,30.9536169-4.9855,44.2545904,7.2559365ZM955.4608979,204.945215c-1.5703852-1.9866319-3.2353719-4.1624668-4.7111556-6.1396386-10.9926964,10.0656016-19.3081699,3.0461689-30.3008664,11.9576319,43.422097,8.8263217-36.7716102,32.3820998,0,0-23.4706367-14.8713587,24.482873-30.3008664,30.3008664-11.9576319,3.3205133-23.612539,21.2475011-14.5118729,36.7716102-17.0944944,8.1262704,23.0070893-22.363799,3.6516186-32.0604546,23.2341329ZM887.376185,205.6358061c-8.5046765-10.6710513-13.1212306-20.8312544-12.1941357-30.3008664,10.339946-5.1747031,18.381075,2.7718245,28.4466766-1.1541385,1.4852438,2.2609763,3.1407704,4.2476082,4.6260143,6.5085845,8.4952164-6.7356281,16.2525409-7.104574,23.924724-7.6154222,5.4490475,11.1345987-10.8129536,14.5970143-19.3081699,14.0861661-1.4757837-2.3082771-3.1407704-4.484112-4.6165541-6.4707439-7.0288928,8.2303321-5.543649,17.9742885-20.8785551,24.9464204ZM825.4784115,201.6152416c-8.7790209-11.087298-1.6649867-19.3933113-11.9197913-30.3954679,17.9175276-17.690484,30.9441567-4.796297,49.4198333-26.1383996-9.4223112,30.3954679,26.3370627,100.6938563-32.6091434,62.7775677,9.1479668-9.3844706,15.2497648-1.9866319,23.8395827-7.5302809-6.9342913-15.7984536-18.0215893-5.4585076-28.7304812,1.2865807ZM915.3687743,136.4442555c-3.1407704-4.1624668-6.1017979-8.6371186-9.3371699-12.894187,24.0193255-9.1385067,48.0386511-16.7160883,67.9995715-.4540873-21.9853929,20.3204062-39.1744888,9.1385067-58.6624016,13.3482743,25.4005077,22.2597373-18.3905352,15.2403046,0,0ZM907.2330437,152.2900098c-15.4295077,13.9442638-27.4344404,6.2815408-37.9635894-11.6454469,15.7038521-14.5024128,27.6141832-6.5558852,37.9635894,11.6454469ZM906.0316045,231.0930747c-16.630947,20.4623085-27.160096,4.3422097-41.4827659,10.5764498-6.1869393-14.5970143,36.6770087-44.0653873,41.4827659-10.5764498ZM1008.3999076,156.9538647c3.1407704,4.2476082,6.0923378,8.3533141,9.4223112,12.6955238-9.2425684,9.469612-15.5241092,1.9866319-24.0193255,7.5302809-6.0071964-16.0254972.2743444-20.9258559,14.5970143-20.2258047ZM1030.5650434,160.3689795c-15.3349061,1.24874-26.79115-22.1272952-40.7354139-29.0521263,18.6554194-22.9597885,27.0654944,18.7027202,40.7354139,29.0521263ZM988.0700413,142.1676474c-.7378918,4.7111556,1.1068378-7.1140342,0,0h0ZM973.473027,162.582655c-17.9175276,17.6053426-29.468373-4.8908985-45.9101169,4.1151661-3.055629-24.0193255,37.0459546-22.865187,45.9101169-4.1151661ZM991.5797576,120.3241567c-10.1602031,4.1530067-16.9052914-12.4306395-24.9464204-21.1150589,16.0822581-8.8641623,26.9803531,6.3761423,24.9464204,21.1150589ZM957.3056275,86.4189725c-18.750021,10.6710513-36.1188598,13.7645209-52.3808608,8.6844194-1.6649867-21.2948018,42.1260562-29.7994783,52.3808608-8.6844194ZM238.0975831,334.9750022c-.558149,26.3276026-49.3346919,44.9451814-34.3687317,73.8648656,21.8907914-26.7060087,32.9780893-55.0675439,58.1988542-81.3951465,47.8589082,23.1868322,75.2082072-3.8313615,118.7154456,1.9393311-24.8518189-21.3421026-54.2255904-15.7984536-81.9438353-18.750021,21.80565,24.0666263-16.3566025,11.3616424-25.7789138,18.6175788-10.4345475-16.7728492,20.4244678-17.6053426,25.7789138-18.6175788-9.9804602-22.2218967,17.9269878-3.8313615,25.4099679-18.5702781-6.1017979-7.9938283-14.5118729-2.9988681-20.2352648-14.5970143,29.9319205-5.0801015,34.5484746-35.8445154,68.5482603-40.1867251-38.436597-16.8106898-73.7229634,48.1805534-106.9848573,68.0374121,61.1598817-83.0033723,155.0235084-159.6873632,238.6323304-183.2431413,21.8907914-.4635474-50.4415297,51.9173133-64.0263077,46.7520704,7.6721831,23.735521,22.363799.7851926,34.9268806-5.9125949,17.7377847,17.8229261,4.8057571,31.1333597,26.2330011,49.5617355,7.1140342-9.1479668,5.1747031-15.6565513,19.0338255-14.1334669-10.718352-15.1551633-24.6626159-10.9548558-34.2741302-33.6308398,1.9393311-14.9186595,23.0922307-26.601947,40.1867251-38.8906843-10.1602031-31.275262-29.0048256-8.1830313-46.0047184,3.8313615-14.3226699-10.4440076,67.8103685-58.6151009,87.9510317-53.9039452,4.4273511,25.6370115-31.1333597,9.5547534-44.9073408,32.3820998,7.2086357,26.5073455,24.3977316-10.0750617,31.4171643,16.3944432-4.0678653,5.1747031-3.5097163,10.718352,2.866426,17.4161396-2.5920816,20.2731054-19.9609204,6.6977875-38.3419954,28.0398901,13.4901765,10.1129023,33.6213797-21.80565,44.0653873,6.8775304-2.3082771,14.4172714-17.3688388,25.4572686-31.9658531,23.3287345,2.3082771,6.1396386.2743444,11.3616424-8.1262704,15.7511528,28.1723322,1.8447296,57.3663608-4.2003074,82.1235782,18.7973217,9.6115143-8.0316689-6.8302296-20.0933625,9.8858587-26.9235922-15.0605617-11.8251898-37.0459546,19.3933113-48.7765429-13.3104337,8.410075-6.3666822,17.0944944-12.5157809,25.5897108-18.7027202-10.8980949-3.4151148-21.058298-11.087298-29.7427174-27.4439005,6.3666822-4.5219526,12.7428245-9.2331082,19.3933113-13.8969631-5.1747031-3.925963-10.9926964-3.6043179-17.6431832,2.9515674-5.543649-8.5425171,1.7595882-14.9186595-7.4829801-23.8774233,23.3760352-11.5981462,26.6114072-26.0532582,40.1867251-38.937985-1.7501281-2.2231357-3.2353719-4.3422097-4.7111556-6.4234431-7.2086357,6.2815408-10.529149-6.5558852,0,0,5.9125949-2.2136755,12.9320276-9.0533653,17.4634403-2.9137268,35.012022-42.0787554,56.0797802,3.1880712,88.963268-25.6370115-2.5826215-3.4624156,0-10.9453957,6.4707439-4.6165541,4.0584051-2.3555778,8.3154735-4.484112,10.8980949,1.9393311,3.6043179-2.7718245,11.087298-.1797429,4.7111556,6.2342401,38.5217383-21.3421026,108.1862966-12.2414365,158.3440217,2.4028786,3.9732638-2.3555778,8.2303321-4.4368112,10.9926964,1.806889,7.3032372-6.4234431,10.718352,6.4612837,0,0-4.2476082,2.4880199-8.3060133,4.4746518-10.9926964-1.806889-14.3132097,25.0883227,24.672076,6.2815408,29.657576,27.3019982-33.4416368,3.6043179-35.6553123,17.4634403-69.6550981,11.7305883-11.4562439-13.0266291,20.4150077-19.3554707,27.2546975-29.468373-6.5653454-6.5180446-14.4172714-4.9381993-22.2691975-3.6989194-7.9465276,26.2424612-48.218394,7.4829801-60.4219899,24.3504309-11.1724393-12.9793283,20.6042107-19.4027714,27.349299-29.7048768-8.220872-7.6248824-19.4027714,3.0461689-28.4561368,1.2960408-2.8569659,24.6153151-74.2716522,36.9986539-68.1793144.4162467-56.5338675,19.3554707-55.0580838,27.0654944-98.8491267,52.4660022,34.3687317,9.5169128,77.9705715-39.997522,111.2324654-22.117835-1.8447296,23.2341329-43.422097,1.617686-40.3759281,39.0325865,13.6793796,15.2403046,4.7111556-16.9998929,25.5897108-18.8067819,21.994853,38.6636406-30.1116633,30.3481671-43.6018399,61.1598817,4.9855,4.0205645,10.8980949,3.5097163,17.5485817-2.8191253,4.6260143,6.4234431,9.2425684,12.6576832,13.8591225,19.0338255,5.3639061-30.026522,33.0726909,1.1068378,48.7860031,13.4901765,6.2815408-6.3761423,4.796297-14.3226699,3.6894592-22.0799944,15.1551633-12.6103824,26.9803531-4.2949089,41.1138199-10.3967069-12.4684801-27.5290419-34.4633332,3.7935209-48.7765429-13.4428758-14.2280684,6.1490987-29.1940286,17.6431832-39.6380362-.4635474,13.395575-13.0266291,25.4951092-16.9052914,36.7716102-16.9904327,1.4757837,2.1663748,3.1407704,4.2476082,4.6165541,6.3288416,28.2669337-41.1611207,65.4074899-50.2617868,97.373343-41.1611207-8.8641623,35.8445154-44.4343332,17.4161396-55.9851786,30.7644138,17.1890959,22.2597373,40.9246169,3.2353719,61.7180307,4.0678653-35.4755694-12.7995855,47.6697052-44.1221482,58.7570031-13.2631329-31.9658531,23.4706367-38.8055429-5.8179934-58.7570031,13.2631329-2.2231357,41.9368531-45.8249756,4.8908985-65.9656388,57.6407052,26.4222041-5.9977363,28.0871908-.7851926,29.7427174,27.349299-4.2476082,3.1407704-8.5898179,6.0923378-12.7428245,9.3277097,28.4561368,2.0812334-1.4757837,96.1719037,59.1259491,54.7364386-13.8591225-7.3883786-31.7861102,10.4913084-42.4950021-18.0594299,63.3735572-41.5679072,53.951246,26.5641064,98.9437282,55.199986-6.3761423,4.6165541-12.6576832,9.3371699-19.128427,14.0861661,6.2815408,12.4306395,44.4343332-2.0717733,31.4077041,16.262001,6.5653454,6.6977875,15.1551633-.5108482,23.8395827-7.5302809,6.6504868,8.5519773,7.2086357,16.1200988,7.4829801,23.8868834,3.9732638-5.1747031,12.6576832-9.6115143,8.220872-15.8930551,20.6988122-5.0328008,15.5241092,32.2401975-.5486888,39.7704784-6.7450883-8.6844194-7.2086357-16.3944432-7.6721831-23.8774233-13.395575,12.7901253-25.3153663,16.8579906-36.5824072,16.6687876-2.1285342-5.8179934-.0946015-11.1251386,8.220872-15.6092506-4.9855-3.925963-10.718352-3.4624156-17.4634403,2.8191253-7.662723-10.6237505-15.6092506-21.2475011-23.3665751-31.8712516,2.3082771-1.7122875,4.2476082-3.1407704,6.4612837-4.6260143-32.5145419.558149-29.7427174-51.1321207-55.2472868-8.6844194,4.9949602,3.8881224,10.718352,3.3772742,17.5580418-3.0934697,17.3688388,30.7171131,31.7766501,25.5897108,36.9513531,51.2267223-48.8711445.2838046-86.6549909-55.010783-129.518939-3.4624156-10.3494061-11.2197401-3.1407704-19.3554707-12.1941357-30.3954679-11.9197913,11.3616424-.558149,26.4222041-.747352,39.6380362-41.2935628-14.9186595-22.3543388,9.6493549-62.2667195,35.5228702-7.5681215-11.5981462-15.883595-19.0811263-24.9369603-21.0204574-132.8489124,84.7156598-162.3267456,185.8257628-303.39653,269.1129397-6.8302296,14.0010247-9.4223112,28.8250827-6.8302296,44.2545904,17.3688388,9.6493549,36.3080628,9.1952676,56.9028134-2.3082771,30.8590153,48.218394-46.5628674,79.4463552-80.9221389,117.4194048-.2838046,41.9368531-58.0191113,72.7958685-97.7422889,80.742396-4.6260143-6.2815408-10.718352-3.7840607-15.6187107-8.0411291-4.3422097,2.4028786-8.4006148,4.3422097-11.1724393-1.8447296-4.1624668,3.0461689-8.599278,6.2815408-12.7522847,9.3277097,10.3494061,6.5653454,21.2475011,8.3154735,33.1672924,5.3639061-6.9342913,24.7572174-27.4439005,16.7160883-55.8905771,30.8590153,27.5290419,3.6894592-2.4028786,23.4611766-11.6454469,37.5946434-3.1407704-4.1530067-6.2815408-8.4006148-9.3277097-12.7428245-4.2476082,3.0461689-8.410075,6.0923378-12.8468862,9.3277097-11.6359868-12.0143928-45.8155154-24.9464204-10.529149-41.4827659-2.7718245-4.0678653-6.0923378-8.3154735-9.0533653-12.5630817-6.8396898,6.3761423-19.0338255,11.9197913-14.5970143,20.2352648-43.9707858-20.3298663-60.2327868-65.7764358-79.0774093-108.8295869,10.8980949-10.1602031,19.3933113-3.055629,30.3008664-12.1089944-6.6504868-6.1869393-14.4172714-4.8908985-22.0799944-3.5948577-2.4974801-34.2741302,8.410075-66.5710886,15.7038521-99.4545764,4.1530067-3.1407704,8.410075-6.1017979,12.6576832-9.2425684-2.9610275-4.3895105-6.1869393-8.7317202-9.2425684-12.8847268,17.9269878-11.9670921,5.1747031-19.9514603,25.6843123-18.5229773-3.1407704-4.3422097-6.2815408-8.4952164-9.4223112-12.8374261-5.1747031-33.9997857,43.0531511-37.7460059,32.7037449-62.7775677-33.9051842-24.5301737,75.8514975-194.6520845,136.9167777-255.9065677-.189203-29.7427174,46.2790628-22.3070381,0,0ZM727.452318,106.5596358c-2.8569659-24.7666775,37.878448-28.5507383,49.5238949-26.100559,2.8569659,24.7572174-38.067651,28.5412781-49.5238949,26.100559Z"/>
    <path d="M71.3434865,886.3221121c11.1724393-9.5169128,18.381075-19.6771158,16.3471424-31.5023057-15.883595,8.8736224-22.9976291,19.128427-16.3471424,31.5023057Z"/>
    <path d="M127.6030095,923.4626683c-5.9125949,35.570171,20.8785551-11.3616424,31.5969072,16.4417439,4.2476082-3.1407704,8.4952164-6.1869393,12.7522847-9.1385067-13.395575-10.6237505-28.0871908-13.1212306-44.3491919-7.3032372Z"/>
    <path d="M67.3702227,840.4119952c-.7378918,4.6165541.9270949-7.3032372,0,0h0Z"/>
    <path d="M159.1999167,939.9044122c-8.3154735,4.3422097-10.4440076,9.7061158-8.220872,15.7133122,8.220872-4.3422097,10.4345475-9.7061158,8.220872-15.7133122Z"/>
    <path d="M126.6759146,895.101133c-8.220872,4.3422097-10.529149,9.6115143-8.1262704,15.7984536,8.1262704-4.4368112,10.1602031-9.7912572,8.1262704-15.7984536Z"/>
    <path d="M79.0062095,802.5335472c-6.5558852-6.6504868-15.7038521,3.0461689-23.8301225,7.662723,6.4612837,6.5653454,15.514649-3.0461689,23.8301225-7.662723Z"/>
    <path d="M123.6297457,877.7322943c-6.0071964,4.5314127.8324934,11.3616424,3.0461689,17.3688388,5.9125949-4.7111556-.8230332-11.4562439-3.0461689-17.3688388Z"/>
    <path d="M100.4429136,845.5866983c19.9514603-25.6843123-30.6698123,10.8980949,0,0h0Z"/>
    <path d="M49.2634921,775.1842482c19.3081699-14.3132097,34.7376776-4.4273511,52.4754623-8.5898179-9.0533653-30.3481671-54.2350506-12.4684801-52.4754623,8.5898179Z"/>
    <path d="M150.5154973,887.5235514c-10.8980949-6.3761423-7.3032372,6.2815408,0,0h0Z"/>
    <path d="M150.5154973,887.5235514c2.7718245,6.2815408,6.7450883,4.2476082,11.087298,1.7595882-2.866426-6.2815408-6.9342913-4.2476082-11.087298-1.7595882Z"/>
    <path d="M161.6027953,889.2831397c2.677223,6.2815408,6.9248312,4.1530067,10.8980949,1.7501281-2.7718245-6.2815408-6.8302296-4.2476082-10.8980949-1.7501281Z"/>
    <path d="M158.7363693,871.9143009c-10.8034934-6.4707439-7.2937771,6.1869393,0,0h0Z"/>
    <path d="M172.5008902,891.0332678c2.9610275,6.2815408,6.9342913,4.2570683,11.087298,1.6649867-2.7718245-6.1869393-6.8396898-4.0678653-11.087298-1.6649867Z"/>
    <path d="M158.7363693,871.9143009c15.0605617,11.6359868,33.5362383,1.5703852,48.6914016,13.3009735,4.2476082-2.4028786,8.4952164-4.4368112,11.1724393,1.8447296,4.9003587-22.5340817-41.0192184-25.2207648-59.8638409-15.1457031Z"/>
    <path d="M183.5881882,892.6982545c2.9610275,6.4707439,6.8396898,4.3422097,11.087298,1.8447296-2.7718245-6.1869393-6.8396898-4.2476082-11.087298-1.8447296Z"/>
    <path d="M94.7195217,703.03167c12.0049327-11.588686-22.7327449-17.3688388-33.2618939-5.1274023,10.3494061,6.6126461,21.4367041,8.220872,33.2618939,5.1274023Z"/>
    <path d="M130.7437799,725.8495563c-5.0801015-3.925963-9.2331082-12.4684801-15.7038521-8.1262704,5.1747031,3.925963,9.4223112,12.4684801,15.7038521,8.1262704Z"/>
    <path d="M88.9866697,668.1142496c-2.7718245-6.1017979-6.8396898-4.0205645-11.087298-1.617686,2.7718245,6.2815408,7.0194327,4.0678653,11.087298,1.617686Z"/>
    <path d="M233.1026229,866.6449963c18.4851367-19.6771158,65.4074899-34.9174205,65.8710373-57.4609623-18.8446225,19.6771158-65.5872328,34.7376776-65.8710373,57.4609623Z"/>
    <path d="M99.8847646,669.9589792c-2.7718245-6.1869393-6.7450883-4.2003074-10.8980949-1.8447296,2.7718245,6.5558852,6.6504868,4.4368112,10.8980949,1.8447296Z"/>
    <path d="M110.9720626,671.8510096c-2.7718245-6.4612837-6.8302296-4.2949089-11.087298-1.8920304,2.866426,6.3288416,7.0288928,4.2476082,11.087298,1.8920304Z"/>
    <path d="M110.9720626,671.8510096c10.9075551,6.3288416,7.3978387-6.2815408,0,0h0Z"/>
    <path d="M114.4817789,649.5439715c11.276501-7.5302809,13.1212306-16.630947,9.9804602-26.5641064-11.087298,7.6248824-13.1212306,16.6782477-9.9804602,26.5641064Z"/>
    <path d="M124.4622391,622.9798651c8.1262704-4.4746518,10.3494061-9.6966556,8.220872-15.9308957-8.4006148,4.5219526-10.529149,9.7439564-8.220872,15.9308957Z"/>
    <path d="M101.1808054,590.8815699c2.2136755-1.4757837,4.2476082-3.0461689,6.2815408-4.7111556-6.3761423-6.3288416-8.8641623,1.2014393-6.2815408,4.7111556Z"/>
    <path d="M120.3943738,576.8805451c12.5630817,11.5035446,7.9465276,20.2352648,12.2887373,30.1684242,13.5847781-14.6916158,17.2742373-31.086059,24.482873-47.0737156-13.4901765,12.7522847-25.5897108,16.82015-36.7716102,16.9052914Z"/>
    <path d="M298.9736603,809.1840339c6.3761423-10.8129536-6.3761423-7.2937771,0,0h0Z"/>
    <path d="M125.5690769,543.7132528c-30.8495552,13.3104337,12.7522847,20.1406633,0,0h0Z"/>
    <path d="M125.5690769,543.7132528c6.5653454-10.6615911-6.0923378-7.2464763,0,0h0Z"/>
    <path d="M146.636835,518.6343902c1.1068378-7.0194327-.8324934,4.7584564,0,0h0Z"/>
    <path d="M249.1848811,444.4951802c-18.2959337,6.2342401-32.7037449-8.9587638-50.7253342-2.4880199,11.1818995,15.6565513,52.2011179,24.6626159,50.7253342,2.4880199Z"/>
    <path d="M328.1676889,553.1828648c6.9342913,35.570171,15.3349061,42.4098607,46.4682659,64.16821,78.8030649-36.4972658,162.7808329-116.6815129,148.3730216-186.2514696-79.7301598-45.039783-148.9217104,96.4084075-194.8412875,122.0832596Z"/>
    <path d="M233.9351163,396.5511306c-10.6237505-6.3761423-7.1140342,6.3288416,0,0h0Z"/>
    <path d="M233.9351163,396.5511306c2.6866831,6.2815408,6.9342913,4.2949089,10.9926964,1.7122875-2.5826215-6.1963995-6.8302296-3.9732638-10.9926964-1.7122875Z"/>
    <path d="M244.9278128,398.2634181c2.7718245,6.3666822,7.0288928,4.3800503,11.087298,1.9393311-2.677223-6.3288416-6.9248312-4.2097676-11.087298-1.9393311Z"/>
    <path d="M290.9419914,394.4225964c-12.7522847,9.0060646-20.8785551-11.6832875-34.9268806,5.7801528,7.5775816,5.9504355,41.6719689,15.7038521,34.9268806-5.7801528Z"/>
    <path d="M308.859519,459.6503434c37.1405562-28.966985,82.0384368-83.9304672,9.9804602-26.8857516,7.5775816,10.6237505-15.0605617,16.3944432-9.9804602,26.8857516Z"/>
    <path d="M294.4517077,372.2101599c-1.4757837-2.1758349-3.1407704-4.2570683-4.8057571-6.4234431-12.6576832,9.2331082-20.6042107-11.5035446-34.6430761,5.9125949,10.2548046,18.1540314,25.4005077,6.6977875,39.4488332.5108482Z"/>
    <path d="M280.5925852,352.9871313c-10.718352-6.4612837-7.3883786,6.3761423,0,0h0Z"/>
    <path d="M294.4517077,372.2101599c2.7718245,6.2815408,6.8302296,4.2949089,10.8980949,1.8447296-1.2960408-2.2136755-2.9515674-4.2949089-4.4368112-6.4707439-2.2136755,1.4852438-4.4273511,3.2826727-6.4612837,4.6260143Z"/>
    <path d="M300.9129914,367.5841456c3.3299735-2.5353207,10.9075551-.1324421,4.4368112,6.4707439,3.0461689,13.6226187,37.878448-11.5508454,25.9586567-18.6648796-18.2013322,6.5180446-32.7983465-8.8168615-50.7158741-2.4028786,2.9515674,4.3895105,6.0923378,8.5519773,9.0533653,12.7995855,4.7111556-5.0801015,7.9465276-1.8447296,11.2670409,1.7974289Z"/>
    <path d="M324.1092837,292.0637534c10.7088919,6.3761423,7.1991756-6.3761423,0,0h0Z"/>
    <path d="M352.7451634,290.8623141c-10.8129536-6.4707439-7.3032372,6.3288416,0,0h0Z"/>
    <path d="M373.71832,265.8212922c6.6504868,22.4584005-23.8395827,3.0083283-20.9731567,25.0410219,17.9175276-4.9003587,59.9584424,23.423336,63.3735572-6.9248312-30.2062649,15.0511016-15.0605617-33.7727421-42.4004006-18.1161908Z"/>
    <path d="M363.1797109,224.4804286c.3689459.5108482,5.543649-4.796297,6.4707439-4.4273511,56.817672,4.9855-34.1795286-22.3164982-6.4707439,4.4273511Z"/>
    <path d="M399.2134293,247.2131735c-.7378918,4.7111556,1.1068378-7.3032372,0,0h0Z"/>
    <path d="M489.1983937,357.7928885c-2.5920816,1.3906423,11.8251898-26.4222041,10.1602031-26.79115-16.9998929-2.5826215-29.9319205,36.629708-10.1602031,26.79115Z"/>
    <path d="M425.9099778,257.1841735c-19.1189669-29.0048256-26.3276026,16.4039033,0,0h0Z"/>
    <path d="M434.7836002,201.9463469c-23.0070893,15.1457031,13.206372,39.7231776-8.8736224,55.2378266,6.3761423,8.5046765,12.5630817,16.9147515,18.7594811,25.5045694,6.2815408-4.6638549,12.7428245-9.3371699,19.2135684-14.0483255,6.2815408-16.9525921-24.7572174-2.0717733-23.4706367-31.8712516,6.4707439-4.6165541,12.8468862-9.2331082,19.3081699-13.9064232-12.9320276-10.4818482-28.5412781,1.4852438-24.9369603-20.9163957Z"/>
    <path d="M410.849416,209.3820262c1.2960408-7.3032372-.5486888,4.7111556,0,0h0Z"/>
    <path d="M459.7205605,222.8627426c4.4368112,8.1830313,9.7061158,10.3494061,15.7984536,8.1357306-4.4273511-8.220872-9.7912572-10.4440076-15.7984536-8.1357306Z"/>
    <path d="M475.5190141,230.9984732c2.5920816,6.4234431,6.8396898,4.2949089,11.087298,1.7974289-2.8569659-6.3288416-7.0194327-4.2476082-11.087298-1.7974289Z"/>
    <path d="M535.3923151,246.1063357c-10.718352-15.1551633-24.7666775-10.8129536-34.1889888-33.6308398-2.5826215,7.0194327-5.7233919,14.0861661-14.5970143,20.3204062,13.8591225,18.3905352,31.9658531,13.0266291,48.7860031,13.3104337Z"/>
    <path d="M531.2298483,200.1867586c-2.4974801-6.3288416-6.7450883-4.3422097-10.9926964-1.8447296,2.866426,6.4612837,6.9248312,4.3895105,10.9926964,1.8447296Z"/>
    <path d="M631.8385632,244.3467475c-.558149,4.8057571,1.2960408-7.161335,0,0h0Z"/>
    <path d="M676.7364439,211.8227454c-6.2815408-7.851926-14.5970143-2.9515674-20.3204062-14.5497135,24.5680144-9.1385067-6.4707439-27.4344404,11.6359868-37.7365457-20.7839536-25.1734641-11.087298-31.4077041,11.6359868-37.8311472-9.2331082-12.5630817-23.4611766,4.5787135-31.587447-16.262001,1.9393311,15.3349061-5.543649,29.4305324-29.0142857,40.6975733-20.1406633-16.3471424-4.2476082-27.1127952-10.3494061-41.2462621-23.4611766,18.7973217-1.1068378,45.1722251.6527505,67.9901113-6.1869393,2.6393824-11.1818995-1.7974289-17.4634403,2.9137268,28.2669337,11.4089431,52.7498067,48.6346407,84.8102613,36.0242582ZM615.7657653,168.2682063c8.5898179-6.6977875,16.2525409-7.3032372,23.6503796-7.6248824-4.7111556-8.3533141-9.0533653-16.5363454,3.5948577-21.9380921,3.055629,4.0678653,6.291001,8.410075,9.3371699,12.6103824-4.2476082,3.2353719-8.5046765,6.3761423-12.9320276,9.3277097,6.2815408,8.6371186,12.4684801,17.1417952,18.8446225,25.731613-17.3688388,13.8591225-30.1211235-2.2609763-42.4950021-18.1067306Z"/>
    <path d="M671.6563424,245.1319401c-10.8129536-6.5558852-7.3032372,6.1396386,0,0h0Z"/>
    <path d="M671.6563424,245.1319401c14.3226699,15.3822069,32.4294005,9.3750105,50.4415297,2.2136755-15.2403046-10.9926964-33.1672924-5.0328008-50.4415297-2.2136755Z"/>
    <path d="M754.1583267,331.7396303c6.2815408-10.6237505-6.291001-7.2937771,0,0h0Z"/>
    <path d="M700.5665664,204.3870661c-7.5681215.3311053-15.3349061.7851926-23.8301225,7.4356794,10.1602031,6.6599469,21.2475011,8.4573758,33.1672924,5.4585076,5.4490475-12.336038,2.119074-26.100559-10.4440076-41.5300666-5.9977363,8.6844194-7.1991756,17.7850855,1.1068378,28.6358796Z"/>
    <path d="M722.097872,247.3456156c10.529149,28.7777819,30.7644138-2.9515674,44.3397317,6.9342913-13.5753179-18.8067819-.0851414-33.1199916-18.191872-65.038544-6.4707439,8.4006148-1.8541898,18.6554194-9.8007173,26.7438493,17.3688388,17.7850855.558149,34.5484746-16.3471424,31.3604034Z"/>
    <path d="M613.9115755,71.6327552c-1.3811822-2.2136755-3.0461689-4.1530067-4.5219526-6.3761423-4.2476082,3.1407704-8.5898179,6.2342401-12.7522847,9.3371699,4.5314127,5.9977363,11.3616424-.6527505,17.2742373-2.9610275Z"/>
    <path d="M720.8964328,218.8043375c4.8908985,6.1396386,11.5508454-.6054497,17.5485817-2.8191253-4.7111556-6.2342401-11.4562439.8797941-17.5485817,2.8191253Z"/>
    <path d="M613.9115755,71.6327552c26.3370627,22.0326937,33.8200429-24.482873,0,0h0Z"/>
    <path d="M823.9080262,320.198245c4.7111556,6.045037,11.3616424-.6054497,17.4539802-2.7339839-4.7111556-6.2342401-11.3616424.6054497-17.4539802,2.7339839Z"/>
    <path d="M777.9884492,216.5812018c-10.8129536-6.2342401-7.2086357,6.2815408,0,0h0Z"/>
    <path d="M777.9884492,216.5812018c5.543649,12.6576832,13.7645209,8.5046765,22.1745959,3.6043179-7.0194327-3.6894592-14.0483255-7.5775816-22.1745959-3.6043179Z"/>
    <path d="M746.0225961,132.1966473c-6.3761423,2.9515674-4.1530067,6.8775304-1.7501281,11.1251386,6.1869393-2.7718245,4.1530067-6.7450883,1.7501281-11.1251386Z"/>
    <path d="M709.2509858,41.5589324c-1.2865807-2.3934184-2.9515674-4.1530067-4.4273511-6.5558852-2.1285342,1.6649867-4.2570683,3.2353719-6.4707439,4.6165541,2.7718245,6.3761423,6.8396898,4.4368112,10.8980949,1.9393311Z"/>
    <path d="M714.056743,47.8026327c2.2231357-1.4852438,4.2476082-3.055629,6.3761423-4.6260143-1.4757837-2.1663748-3.2353719-4.2476082-4.7111556-6.2342401-2.2136755,1.4757837-4.2476082,3.0461689-6.4707439,4.6165541,1.8541898,2.0339326,3.1407704,4.1624668,4.8057571,6.2437002Z"/>
    <path d="M787.4107604,121.7999404c-10.718352-6.5180446-7.2937771,6.1869393,0,0h0Z"/>
    <path d="M771.1487594,45.4848954c-10.8980949-6.413983-7.2937771,6.291001,0,0h0Z"/>
    <path d="M771.1487594,45.4848954c2.7718245,6.3761423,6.8396898,4.3895105,11.087298,1.9014905-2.8569659-6.3761423-6.9248312-4.3895105-11.087298-1.9014905Z"/>
    <path d="M821.7794921,48.0769771c-2.7718245-6.3761423-6.9248312-4.2476082-11.087298-1.9866319,2.7718245,6.4707439,6.8396898,4.2949089,11.087298,1.9866319Z"/>
    <path d="M832.86679,49.694663c-2.866426-6.2342401-7.1140342-4.1624668-11.087298-1.617686,2.7718245,6.0923378,6.8396898,4.1057059,11.087298,1.617686Z"/>
    <path d="M832.86679,49.694663c2.5826215,6.2342401,6.8396898,4.2949089,10.8980949,1.7501281-2.7718245-6.1869393-6.8302296-4.1057059-10.8980949-1.7501281Z"/>
  </g>
</svg>