<?xml version="1.0" encoding="UTF-8"?>
<svg id="bean" xmlns="http://www.w3.org/2000/svg" version="1.1" viewBox="0 0 1147.9668896 1000">
  <!-- Generator: Adobe Illustrator 30.0.0, SVG Export Plug-In . SVG Version: 2.1.1 Build 123)  -->
  <g id="beans">
    <g id="outline">
      <path d="M146.0558346,281.2282197c-1.6943029-3.1822484-5.5173454-10.1766784-11.6646239-21.7435541,3.6058242,6.7880726,9.1231696,17.1819694,11.6646239,21.7435541Z"/>
      <path d="M131.5239288,254.2931476q-.6299331-1.4879455,0,0h0Z"/>
      <path d="M5.6350497,235.5146236c-71.4865501,339.6208481,555.3403647,783.278412,851.2568862,763.8699548,60.6690776-3.9207907,163.8695029-46.0285627,204.8151568-83.1511741,140.9529698-127.0618581,94.5008314-294.9607609-33.940363-465.7269455C874.2911236,246.3320961,598.5216015,58.4925512,400.1904117,10.3461099,234.6266058-29.8501408,51.8699697,47.4687213,5.6350497,235.5146236ZM876.6262205,402.1427992c-5.3001271-.4235757,8.2760181.3149666,0,0h0ZM802.2723886,358.5470818c-15.9112422-33.8317538,31.3989086,20.0492512,0,0h0ZM483.0266192,118.8466623c-5.310988-.4235757,8.5909847.5321849,0,0h0ZM446.3275835,90.5322539c8.3737664.6299331-5.310988-.3258275,0,0h0ZM590.2564443,254.6081142c5.5064845,12.5117754-6.6903244,4.5615848-13.6847544,11.9904514-5.9409211-10.1875394,7.4180057-18.8871332,13.6847544-11.9904514ZM486.5238342,164.0280735c-2.8672819-39.0232717,47.407899,20.6900453,0,0h0ZM510.6024853,191.3975822c-5.310988-.4235757,8.3737664.5321849,0,0h0ZM437.0958048,135.1814802c-9.970321-31.4966568,40.1962507,11.4582665,0,0h0ZM610.7184104,333.1977035c-11.0238299,5.9409211-20.6791844-12.0881997-30.7581145-21.3091175,26.0987815-26.6309664,16.1284605,11.1324391,30.7581145,21.3091175ZM736.411793,476.4966312c-9.7639636-31.2902994,40.4026081,11.7732331,0,0h0ZM526.828694,237.534754c8.4823755.5321849-5.2023788-.4235757,0,0h0ZM538.0697422,264.0462503c-5.5173454-.4235757,8.3737664.5321849,0,0h0ZM643.279437,425.3742989c-3.497215-6.5817152.9557606-12.8376029-5.1915179-19.7342846,11.1324391-4.2357573,21.7435541-3.3886058,31.605266,8.4932364-9.2209178,11.6646239-17.2905785,3.9207907-26.4137481,11.2410482ZM740.8647686,509.0576578c-5.5173454-.2172183,8.3737664.6299331,0,0h0ZM590.4628017,544.3773571c6.2558877-33.940363,9.0145604-28.108051-23.2206387-40.3048598,31.605266-21.7435541,60.6582167-7.4288666,89.8306375,6.0495303-22.3843482,15.9003812-42.9549234.0977482-66.6099988,34.2553295ZM702.3628209,603.0263044c5.832312,12.5226363-6.3644969,4.6701939-13.5761452,11.9904514-5.7237028-10.0789302,7.5266149-18.778524,13.5761452-11.9904514ZM634.7970615,553.598275c5.7345637,6.7880726-3.3886058,12.6312455-7.6352241,18.6699149-5.5173454-6.6794634,3.8230425-12.5117754,7.6352241-18.6699149ZM494.582634,338.5086915c-23.3292479-16.9756119-16.4434271-9.1231696-30.0195722-34.2661905,21.6458059-30.7581145,63.3191412,16.6606454,30.0195722,34.2661905ZM447.3810924,271.0515412c-5.3001271-.6407941,8.4932364.4235757,0,0h0ZM420.1310537,294.912974c-21.3199784-14.3146875,1.4770846-25.772954-10.2961485-39.3490992,16.2262087-10.6111151,29.9109631,31.0730811,10.2961485,39.3490992ZM506.4644762,351.9762275c22.5907056,14.4232967,5.832312,26.1965298,23.2206387,40.1962507-15.4768055,3.1822484-29.3787782-13.3589269-43.8020748-22.1671299,6.7880726-5.9409211,13.7933635-12.0881997,20.5814361-18.0291208ZM546.6607269,425.482908c18.6699149-21.9607725,34.3639387.3149666,51.3395507,3.497215,2.2264878-2.0201304,4.659333-4.1380091,6.8858208-6.0495303-31.3880477-22.6993148,19.3107089-19.299848,0,0,3.2908576,3.6058242,1.2815881,12.4140272-6.8858208,6.0495303-18.0399817,11.4582665-35.8518842,23.6550754-51.3395507-3.497215ZM583.4683717,453.5800981c3.2799967,36.0691025-48.580878.3258275,0,0h0ZM594.4922016,480.1024554c8.5909847.5321849-5.0829088-.3149666,0,0h0ZM705.8600359,551.903972c-11.0238299,4.3552274-21.7435541,3.497215-31.605266-8.5909847,10.9260816-4.3443665,21.634945-3.6058242,31.605266,8.5909847ZM634.7970615,456.9795649c3.1822484,36.1668508-48.570017.3149666,0,0h0ZM714.2446631,520.0814877c5.7237028,12.6312455-6.473106,4.6701939-13.5761452,11.9904514-5.7345637-10.0789302,7.5266149-18.5613057,13.5761452-11.9904514ZM738.2147051,547.4509964c4.659333-4.0293999,9.2209178-8.0587998,13.7825026-11.9795905,3.9316516,4.5507239,8.0587998,9.1123087,11.9904514,13.5761452-4.5615848,4.0293999-9.1231696,8.0587998-13.7933635,12.0881997-3.9207907-4.4529756-7.9501906-9.1231696-11.9795905-13.6847544ZM440.5930198,180.3628914c11.6754849-16.0089904,21.4285876-1.5856938,31.5075178,8.4823755-6.7880726,3.5080759-12.8376029-.8471515-19.6256755,5.0937697-3.9207907-4.4529756-7.9501906-9.0145604-11.8818423-13.5761452ZM470.5039828,214.5204727c8.2760181.6299331-5.5173454-.4235757,0,0h0ZM541.5669572,309.3362707c29.5959965,45.3986295-20.1469995-30.8667237,0,0h0ZM685.1808515,473.0971644c29.6937448,45.5072387-20.0492512-30.6495054,0,0h0ZM570.6307689,356.320594c5.9409211,6.7880726,1.5965547,13.0548212,5.2023788,19.7342846-4.6701939,4.0293999-9.0254213,7.9501906-13.6847544,11.9795905,7.7438332,7.4288666-6.3644969,12.6203846,0,0-4.1380091-3.9207907-8.1674089-7.4180057-12.9462121-.9557606-6.0386694-6.8858208-1.5856938-13.0439603-5.1915179-19.7234237,4.6701939-4.0293999,9.0145604-7.8524424,13.7825026-11.9904514,4.0293999,3.8230425,8.0696607,7.3202575,12.8376029.9557606ZM420.0224446,198.3920122c-5.4087362-.521324,8.3737664.5321849,0,0h0ZM533.7253758,328.0061856c8.4823755.7385423-5.2023788-.2172183,0,0h0ZM462.7601496,259.2783081c-.3149666-.7494032-.521324-.9557606-.521324-.9557606,0,0,.2063574.2063574.521324.9557606,4.0293999,6.0386694,26.5223572,40.5112172,4.3552274,6.5708543-2.335097-3.6058242-3.7144333-5.6150937-4.3552274-6.5708543ZM430.3077322,237.6433632c-15.6940238-33.940363,31.605266,19.9406421,0,0h0ZM411.3228507,229.8995299c-7.6352241-7.4288666,6.3644969-12.8376029,0,0,8.1674089,7.7438332-5.9409211,12.9353511,0,0ZM362.7419728,188.2153337c29.7046057,45.3986295-20.1469995-30.8667237,0,0h0ZM384.0619512,253.8695719c-15.3790573-11.5668757-11.0238299-22.1671299-17.0733602-33.2018207,20.1469995-16.2262087,38.7083052,17.6055451,17.0733602,33.2018207ZM336.2304764,199.3477728c-15.6940238-34.0489721,31.605266,19.9406421,0,0h0ZM360.2005184,226.6086723c-6.8966818,3.9207907-4.0293999,8.2760181-.8471515,12.8376029-9.0145604,5.9409211-16.6497845-7.4288666-24.7085842-14.4232967,9.2209178-12.6312455,17.4969359-6.0495303,25.5557357,1.5856938ZM395.3029994,280.4896774c8.4932364.4235757-5.3001271-.6407941,0,0h0ZM266.9704141,175.48634c-15.6940238-33.940363,31.605266,19.9406421,0,0h0ZM314.1719557,242.9434902c-15.802633-34.0489721,31.605266,19.9406421,0,0h0ZM146.3816621,281.7604046q-.1086092-.2063574-.3258275-.5321849c-2.5414544-4.5615848-8.0587998-14.9554815-11.6646239-21.7435541-.5321849-.8471515-.9557606-1.6943029-1.4879455-2.6500635-.7385423-1.2707272-.9557606-1.9115212-1.3793364-2.5414544q-.6299331-1.4879455,0,0c.6407941,1.2707272,1.7051638,2.8672819,2.8672819,5.1915179,6.1472785,11.5668757,9.970321,18.5613057,11.6646239,21.7435541q.2172183.3258275.3258275.5321849c.7385423,1.3793364,1.0535089,2.1178786,1.2707272,2.335097-.2172183-.2172183-.5321849-.9557606-1.2707272-2.335097ZM242.5767965,450.7236772c18.9848814-29.5959965,33.5167872,11.2410482,51.2309415,3.2908576,5.832312,30.8558628-39.8812841,27.9994418-51.2309415-3.2908576ZM305.0487862,480.5260311c5.5173454,6.6794634-3.9207907,12.7289937-7.7438332,18.7676631-5.6259546-6.7880726,3.7144333-12.7181328,7.7438332-18.7676631ZM75.6336543,246.5493144c43.3784991-1.2707272-.5321849,41.1520113,0,0h0ZM117.5242079,294.3807891c5.6259546,6.8966818-3.6058242,12.7289937-7.6352241,18.8871332-5.6150937-7.0052909,3.8230425-12.7289937,7.6352241-18.8871332ZM163.878598,374.7841514c16.4434271-22.5907056-19.4084572-8.9168122-24.0786511-27.3695087,11.9904514-28.8465933,60.2455019,26.0879206,30.0195722,34.1575813-2.0201304-2.335097-4.0293999-4.6701939-5.9409211-6.7880726-7.6352241,7.8415815-13.0439603-6.3644969,0,0ZM175.0110371,401.0784294c4.5615848-3.9207907,9.1231696-7.9501906,13.5761452-11.8709814,3.9316516,4.4529756,7.9610515,9.1231696,12.0990606,13.6738934,8.9059512-6.6794634,17.7032933-12.1968088,25.5557357,1.5965547-4.5615848,3.9207907-9.1231696,7.9501906-13.6847544,11.9795905,8.0587998,8.3846273,16.9756119,1.9115212,24.9258026,14.5319058-11.1324391,4.7788031-21.8521633,3.2908576-31.8116234-8.4823755,2.4328452-2.1178786,4.5507239-4.0293999,6.8858208-6.0495303-4.0293999-4.5507239-7.9501906-9.1123087-11.8709814-13.5761452-9.1231696,6.5817152-18.0399817,11.9904514-25.6752058-1.8029121ZM222.951121,455.7088377c-5.4087362-.3258275,8.2760181.6299331,0,0h0ZM221.9953604,468.752798c4.5615848-4.1380091,9.1231696-8.0587998,13.6847544-12.0881997,4.0293999,4.5615848,7.8524424,9.0145604,11.8818423,13.5761452-4.5615848,4.0293999-9.1231696,7.9501906-13.6847544,12.0881997-4.0293999-4.5615848-7.9501906-9.0145604-11.8818423-13.5761452ZM53.4665244,290.1450318c-7.8524424-7.7438332,6.2558877-12.7289937,0,0,8.0587998,7.6352241-6.2558877,12.9353511,0,0ZM151.7903983,457.6203589c-19.9406421-30.9753329,29.8023539,45.4963778,0,0h0ZM253.6114873,573.6475262c-6.473106,3.6058242-12.5226363-.7385423-19.5170663,5.3001271-4.0293999-4.659333-7.9610515-9.1123087-11.9904514-13.6738934,11.8818423-16.1284605,21.5371967-1.7051638,31.5075178,8.3737664ZM225.5034363,513.8256c5.7237028,6.8966818-3.7144333,12.7289937-7.7438332,18.9848814-5.5173454-6.99443,3.9207907-12.6203846,7.7438332-18.9848814ZM274.1820625,555.6184054c5.7237028,6.7880726-3.6058242,12.8376029-7.6352241,18.9848814-5.7237028-6.7880726,3.6058242-12.7289937,7.6352241-18.9848814ZM311.1960647,583.9328138c5.4087362,6.6903243-3.9207907,12.5226363-7.7438332,18.6699149-5.7237028-6.7880726,3.5080759-12.6203846,7.7438332-18.6699149ZM179.2576553,433.5417078c8.4823755.7385423-5.3001271-.3258275,0,0h0ZM183.6020218,466.1027344c-15.802633-33.940363,31.5075178,20.0383903,0,0h0ZM214.4687455,487.4227128c5.5173454,6.6794634-3.8230425,12.6203846-7.8524424,18.7676631-5.6150937-6.6794634,3.8230425-12.5117754,7.8524424-18.7676631ZM62.9046605,342.320873c5.7237028,12.5226363-6.5708543,4.5615848-13.6847544,11.9904514-5.832312-10.0789302,7.6352241-18.8762723,13.6847544-11.9904514ZM58.5602941,406.4980266c16.323957-18.0399817,30.8558628-10.1875394,44.6492263,9.329527-6.8966818,6.0495303-13.5761452,11.8818423-20.5814361,18.0291208-8.0587998-9.2317787-16.1175996-18.3440874-24.0677902-27.3586478ZM99.8100536,467.0584951c-9.8617119-31.3989086,40.5220782,11.7732331,0,0h0ZM501.05574,827.9884606c-64.4921201,3.3994668-123.7818614-75.2009834-185.613057-115.0822676,36.8076448-25.13216,154.007791,58.6598081,185.613057,115.0822676ZM353.0974792,631.7751494c-7.7438332,7.8415815-13.0439603-6.473106,0,0,7.6352241-8.0587998,12.7289937,6.1472785,0,0ZM349.3830459,586.3765199c-13.2611786,8.9059512-25.772954,1.8029121-37.6547963-15.2704481,14.640515-24.9258026,25.6643449,4.5615848,37.6547963,15.2704481ZM281.9258957,537.0570997c4.4529756-3.3994668,8.9059512-6.1472785,12.8376029.5321849,2.2264878-25.6643449-5.310988-18.9848814,20.461966-17.9313726-3.3886058-3.6058242-1.2707272-12.5117754,6.7880726-5.9300602,22.8079239-31.2902994,19.4193181,19.299848,0,0-2.2264878,2.0092695-4.4529756,3.9207907-6.7880726,5.9300602,16.1284605,20.1578604-17.6055451,38.8277752-33.2995689,17.3991877ZM351.185958,560.8099233c12.7289937,1.5965547,26.9350721-20.0383903,38.3933386,2.335097-9.7531027,1.2815881-19.1912388,2.6500635-13.5761452,11.9904514-9.0145604,5.9409211-16.6497845-7.4288666-24.8171934-14.3255484ZM300.5958105,447.9650045c-9.8617119-31.3989086,40.4026081,11.8818423,0,0h0ZM391.3822087,537.795642c-9.8617119-31.605266,40.3048598,11.5668757,0,0h0ZM360.515485,516.3779153c-5.4087362-.5321849,8.2760181.4235757,0,0h0ZM434.9779261,559.9627718c3.9207907,4.3552274,7.9501906,9.0145604,11.8818423,13.4783969-9.1231696,7.9501906-18.13773,15.802633-27.2608995,23.8614328-3.9316516-4.4529756-8.0587998-9.0145604-11.8818423-13.467536,9.2317787-8.0696607,18.2463391-15.9112422,27.2608995-23.8722937ZM505.9322913,654.4744642c8.3737664.7385423-5.3001271-.2172183,0,0h0ZM444.3074531,611.8345074c-5.6150937-9.970321,7.7438332-18.778524,13.6847544-11.9904514,5.832312,12.7289937-6.5817152,4.6701939-13.6847544,11.9904514ZM534.2466997,714.3941386c-11.0238299,4.3552274-21.7435541,3.3994668-31.605266-8.6995938,10.8174725-4.3443665,21.634945-3.3886058,31.605266,8.6995938ZM471.77471,684.3745664c-15.6940238-33.7231447,31.6161269,20.2664695,0,0h0ZM538.6019271,746.7488078c8.2760181.7385423-5.4087362-.2172183,0,0h0ZM646.4616854,869.6726568c-9.970321-31.1816903,40.0985024,11.8818423,0,0h0ZM583.7833383,743.3493411c-1.6943029,16.0198513-8.2760181,12.1968088-20.4728269,17.9313726-1.5856938-10.8283334,9.6553545-20.6900453-4.3443665-32.4632784,17.7141542-6.99443,34.2553295,2.335097,50.4815383,16.1284605-9.329527,12.7181328-17.6055451,6.1472785-25.6643449-1.5965547ZM555.6752873,683.6360241c-5.3001271-.4235757,8.2760181.3149666,0,0h0ZM646.255328,773.3689133c-5.3001271-.5321849,8.2760181.3149666,0,0h0ZM592.374323,711.8526842c8.2760181.4235757-5.3001271-.4235757,0,0h0ZM520.4641971,629.8636282c8.2760181.4235757-5.3001271-.4235757,0,0h0ZM478.4650344,581.9235443c-7.5374758,8.0587998-12.7289937-6.1581395,0,0,6.8858208-6.0495303,13.0439603-1.5965547,19.7234237-5.2023788-9.7531027-14.0974692-20.9941509-8.2651572-30.7581145-21.3199784,29.9109631-31.4966568,55.2603414,6.473106,85.3776619-26.5114963-10.2852876-6.1472785-20.9941509-6.2558877-32.4524175,4.3443665-3.0736393-6.5708543-11.6646239-13.6738934-5.3001271-19.7234237-30.7581145-2.1178786-37.6547963-2.4437061-59.5069596,28.4230176-16.5411753-10.9260816-34.2553295-4.8765514-49.742996-29.0638116,16.7583936-25.3493783,29.1724208,14.2169392,45.1814112-3.497215-3.9207907-4.5615848-7.9501906-9.1231696-11.7732331-13.467536,28.108051-11.4582665,15.9112422-13.1525695,41.0542631-36.0582416-39.251351,8.7973421-80.7183288,51.9694838-117.3087554,17.9205117,18.2463391-14.4232967,35.102481-8.3737664,52.1867021-9.329527,8.4823755-16.4434271-13.1525695-24.610836,14.5319058-24.7194452-36.2754599-23.6442145-42.9657843,23.1228905-85.2799136,26.5223572-11.0346908-11.4582665-17.2905785-22.8079239-17.2905785-33.3104298,9.0145604-5.832312,16.9756119,4.1380091,24.8171934,14.4232967,6.7880726-5.9409211,3.1822484-12.7289937,7.7438332-18.7676631-36.6990357-29.7046057-78.2746227,13.3589269-113.8006794-33.2018207,32.767384,10.2852876,6.3644969-37.2312206-11.1433-26.4028872,7.9610515,7.4180057-6.1472785,12.826742,0,0-11.5560148-18.9848814-25.5557357-4.0402608-36.6990357-28.2166602,16.6606454-25.2407691,29.5959965,5.3001271,45.1922721-3.497215-13.2611786-25.2516301-29.3896391-9.8725728-42.748566-35.1133419-1.4879455,31.8224843-27.1522904-.3149666-44.3342597-9.2209178,16.1175996-17.9313726,30.0195722-1.2815881,44.3342597,9.2209178,8.808203-28.5316267-9.2317787-23.3292479-29.1724208-46.8757141,43.38936,11.1324391-3.497215-9.0145604,21.4285876-30.7581145-10.3938968-7.3202575-21.3199784-4.5615848-30.7581145-21.4285876,18.3549483-28.108051,89.2007044.4235757,62.3633805,30.0195722,12.5226363,6.2558877,25.4579875,7.2116483,38.3933386,2.4328452-8.2651572-15.5854147-45.3877686-32.9846024-16.2262087-46.1371718-10.3938968-5.1915179-20.8964027-9.2209178-31.605266-8.4823755-9.970321-23.7528236,30.5517571-21.2113692,38.3933386,2.5414544-2.2264878,1.9115212-4.4529756,3.8230425-6.7880726,5.9409211,15.7048848,33.0932115,45.2900204,3.1822484,42.748566,34.8961236-9.0145604,8.5909847-17.7141542,9.970321-26.5223572,11.2410482,23.9700419,28.6402359,47.8423357,56.7482869,73.6152897,56.216102-3.0736393-6.473106-11.5668757-13.5761452-5.0937697-19.5170663-8.0587998-7.6352241,6.1472785-12.9353511,0,0,3.1822484,6.6903244,11.5560148,13.5761452,5.0937697,19.5170663,1.0535089,17.0733602,7.3202575,24.1872603,24.0786511,27.467257,21.5263358-20.0383903-30.9753329-45.1814112,4.1271481-64.0576835,10.6111151,24.2850085,13.2611786,47.9400839,27.4781179,72.5509199,16.4325661-14.2169392,64.1662926-7.6352241,56.4224594,23.0142813,23.2314997.9557606,38.6105569,29.6937448,29.0638116,46.9843233,13.6847544,19.299848,28.2057992,27.1522904,44.4428689,9.329527,12.9353511,9.4489971,5.3001271,26.2073907,17.9205117,20.3642178,3.497215,13.1525695-3.497215,25.6752058-15.3790573,37.7634055,26.3051389,14.640515,25.8815632,20.4728269-1.5965547,25.6643449,15.8134939,20.1578604,34.7983754-7.1030392,49.6452477,28.9552025-6.7880726,6.0495303-12.9462121,1.5965547-19.7342846,5.0937697,25.4579875,32.7782449-41.0434021,45.3986295-54.6195473,47.8314747,7.6352241,10.0789302-11.1324391,22.4929574-19.7234237,5.2023788ZM599.9009379,596.2382318c-5.832312-9.970321,7.5374758-18.6699149,13.5761452-11.9795905,5.832312,12.826742-6.5708543,4.7679422-13.5761452,11.9795905ZM617.9300587,616.8196679c-9.9594601-31.2902994,40.2071116,11.7732331,0,0h0ZM546.0199328,631.3515737c-7.9501906-20.0492512,26.2073907-62.4719897,46.886575-29.0638116-9.7639636,24.9258026-29.2810299,12.9353511-46.886575,29.0638116ZM608.4919226,661.2625368c8.3846273.521324-5.4087362-.3258275,0,0h0ZM575.3009628,678.4445061c-15.9112422-33.940363,31.4966568,20.1469995,0,0h0ZM600.009547,692.8678028c4.5615848-3.9316516,9.1231696-8.0587998,13.5761452-11.9904514,8.0587998,9.1231696,16.0198513,18.3549483,23.9700419,27.3695087,22.9165331-31.2902994,19.5170663,19.299848,0,0-4.4529756,3.9207907-9.0145604,7.9501906-13.5761452,11.9795905-7.9501906-9.1231696-16.0089904-18.2354782-23.9700419-27.3586478ZM662.4815368,722.7787659c8.3846273.6299331-5.4087362-.3258275,0,0h0ZM679.4571487,756.0783348c-5.4087362-6.7880726,3.8121816-12.6203846,7.8415815-18.6699149,5.7345637,6.6794634-3.8121816,12.4140272-7.8415815,18.6699149ZM640.8465918,657.0159186c5.7237028,6.7880726-3.6058242,12.5117754-7.5266149,18.8762723-5.5173454-6.99443,3.7035724-12.7289937,7.5266149-18.8762723ZM723.9977658,765.4078618c-16.5411753,5.6259546-11.7732331-11.5560148-18.0291208-20.461966,16.6497845-5.7345637,11.9795905,11.4474056,18.0291208,20.461966ZM773.7407618,794.4716734c-15.802633-33.940363,31.5075178,20.0492512,0,0h0ZM708.5100994,706.443948c-4.4529756,3.9207907-9.0145604,7.9501906-13.6738934,11.9795905-4.0402608-4.4529756-7.9610515-9.0145604-11.9904514-13.5761452,4.6701939-4.1380091,9.2317787-8.1674089,13.6847544-11.9795905,4.0293999,4.4529756,8.0587998,9.0145604,11.9795905,13.5761452ZM751.3672745,741.4378198c-15.5962756-33.8317538,31.605266,20.0492512,0,0h0ZM686.2452213,653.5187036c-16.2370696,17.8119025-30.0195722,1.162118-44.4428689-9.4381361,19.5170663-26.2073907,46.3435292-8.808203,44.4428689,9.4381361ZM644.3438068,605.7849771c11.1433-51.9694838,57.7040475,10.2852876,0,0h0ZM766.7463318,703.8916327c-5.310988-.5321849,8.3737664.4235757,0,0h0ZM893.276005,834.4615667c8.3846273.5321849-5.3001271-.3149666,0,0h0ZM737.573911,656.9073094c-6.3644969-41.6841962,29.8023539,13.8911118,0,0h0ZM655.3784976,535.4714059c8.4823755.8471515-5.5173454-.1086092,0,0h0ZM985.6589578,898.410641c-5.7237028-6.7880726,3.7144333-12.5117754,7.7438332-18.659054,5.5173454,6.6794634-3.7144333,12.5117754-7.7438332,18.659054ZM735.770999,586.0615533c-7.6352241,7.8415815-12.8376029-6.3644969,0,0,11.2410482-7.0052909,21.4285876.9557606,32.4524175-4.4529756,12.1968088,19.4084572-25.9793114,23.6442145-32.4524175,4.4529756ZM947.8955523,786.5214828c8.4932364.5321849-5.1915179-.3258275,0,0h0ZM829.0011032,637.0752765c-5.4087362-.3149666,8.3846273.5321849,0,0h0ZM805.8782127,596.987635c-5.832312-10.0789302,7.6352241-18.8871332,13.6847544-11.9904514,5.6259546,12.5117754-6.6794634,4.5615848-13.6847544,11.9904514ZM861.4535207,632.8286583c-15.6940238-34.0381112,31.7138752,20.0492512,0,0h0ZM1011.9640967,790.7572401c-3.9316516-4.4529756-7.9610515-9.1123087-11.8818423-13.5761452,7.0052909-4.0293999,4.1380091-8.3737664.8471515-12.826742,10.8174725-14.4232967,37.2312206,22.275739,11.0346908,26.4028872ZM798.0366313,519.136588c8.4823755.6299331-5.2023788-.3258275,0,0h0ZM966.6740764,697.5271358c-5.4087362-.3149666,8.3737664.6407941,0,0h0ZM792.9428616,499.5109125c8.3737664.5321849-5.4087362-.3149666,0,0h0ZM721.130484,417.6304656c-15.802633-33.940363,31.5075178,20.0492512,0,0h0ZM666.4023275,369.0495877c-5.9300602-10.1766784,7.4288666-18.8762723,13.5761452-11.9795905,5.6259546,12.5117754-6.6794634,4.4529756-13.5761452,11.9795905ZM854.4590907,542.2594785c8.4823755.521324-5.4087362-.3258275,0,0h0ZM755.2880653,387.7195026c-5.4087362-.4235757,8.3737664.5321849,0,0h0ZM737.2589445,367.1380664c-15.6940238-33.940363,31.605266,19.9406421,0,0h0ZM617.506483,230.6380722c7.646085-7.8524424,12.8376029,6.1581395,0,0-7.6352241,7.7438332-13.0439603-6.3644969,0,0ZM586.6506202,209.2094847c8.3737664.6407941-5.4087362-.3149666,0,0h0ZM773.2085769,408.1923295c5.6259546,6.7880726-3.7035724,12.6203846-7.7438332,18.6699149-5.4087362-6.6903244,3.7144333-12.5226363,7.7438332-18.6699149ZM663.6436548,310.715607c-13.0439603,3.8230425-25.4471265-3.3886058-37.6439354-15.2704481,13.467536-8.9059512,26.0879206-1.8029121,37.6439354,15.2704481Z"/>
      <path d="M224.3304573,237.1111783c-9.970321-12.0881997-20.5705752-13.3697878-31.605266-8.5909847,9.8617119,11.9795905,20.4728269,13.2503177,31.605266,8.5909847Z"/>
      <path d="M214.8923212,281.445438c31.605266,20.0492512-15.6940238-33.940363,0,0h0Z"/>
      <path d="M226.1333694,307.9569343c-5.3001271-.4235757,8.4932364.5321849,0,0h0Z"/>
      <path d="M238.1238208,321.6416887c7.1030392-7.5266149,19.299848.6407941,13.6847544-11.9904514-6.1581395-6.7880726-19.7342846,1.9115212-13.6847544,11.9904514Z"/>
      <path d="M268.8819354,343.0702763c-7.7438332-14.1083301-16.5520362-8.1674089-25.6643449-1.8029121,8.2651572,3.3886058,16.8561419,7.1030392,25.6643449,1.8029121Z"/>
      <path d="M268.8819354,343.0702763c12.9353511,6.0386694,7.6352241-8.0696607,0,0h0Z"/>
      <path d="M273.1176927,375.4140846c-12.7181328-6.2558877-7.4180057,7.8524424,0,0h0Z"/>
      <path d="M273.1176927,375.4140846c6.0495303,8.9059512,12.305418,10.9260816,18.9848814,7.7438332-5.9300602-9.0145604-12.2945571-11.0346908-18.9848814-7.7438332Z"/>
      <path d="M292.1025741,383.1579178c1.9115212,2.2264878,3.8230425,4.4529756,5.9409211,6.7880726,9.6553545-.1086092,27.9016936-5.832312,20.4728269-18.0291208-8.5909847,1.162118-17.2905785,2.6500635-26.4137481,11.2410482Z"/>
      <path d="M397.1059115,351.3354334c6.473106-6.0386694-2.0092695-13.0439603-5.0829088-19.6148146-6.5817152,6.0386694,1.9006603,12.9353511,5.0829088,19.6148146Z"/>
      <path d="M421.0759534,378.7049422c-8.0587998-9.2317787-16.0089904-18.2463391-23.9700419-27.3695087-16.964751,18.5613057,6.7880726,31.6161269,23.9700419,27.3695087Z"/>
      <path d="M448.4454621,354.7349002c-8.5909847-2.335097-16.8670028-4.9851605-24.9258026-14.5319058-15.5854147,8.9059512,17.3991877,39.772675,24.9258026,14.5319058Z"/>
      <path d="M366.4564061,426.645026c31.605266,19.8320329-15.6940238-34.0489721,0,0h0Z"/>
      <path d="M421.0759534,378.7049422c4.0402608,4.5615848,7.9610515,9.0145604,12.0990606,13.6847544,6.99443-9.2317787-5.0937697-19.7342846-12.0990606-13.6847544Z"/>
      <path d="M457.8835983,406.8129932c-41.2606205-.5321849,1.3793364,43.3784991,0,0h0Z"/>
      <path d="M520.2469788,436.5067379c-26.3051389-17.2905785-15.6940238,7.8524424-39.9790324,23.3401088,11.7732331,15.802633,26.8264629-18.13773,39.9790324-23.3401088Z"/>
      <path d="M450.9869165,509.3726244c13.0548212,6.3644969,7.8524424-7.8415815,0,0h0Z"/>
      <path d="M484.4059555,492.190655c-5.4087362-.3149666,8.4823755.6407941,0,0h0Z"/>
      <path d="M504.1293792,487.0968854c-5.5173454-.3149666,8.2760181.5321849,0,0h0Z"/>
    </g>
  </g>
</svg>