<?xml version="1.0" encoding="UTF-8"?>
<svg id="bean" xmlns="http://www.w3.org/2000/svg" version="1.1" viewBox="0 0 1000 1065.6169117">
  <!-- Generator: Adobe Illustrator 30.0.0, SVG Export Plug-In . SVG Version: 2.1.1 Build 123)  -->
  <g id="beans">
    <g id="outline">
      <path d="M975.9209759,571.7587425c21.9095388-70.0988922,34.6464834-253.475999,12.5790829-327.878699C949.2257358,111.301162,792.7100393-40.6282374,650.7176169,9.9622752c-89.2500059,31.8049733-221.6627172,247.8760638-307.8302663,341.1058456-198.7063063,215.1737715-488.6151182,397.3295275-257.53886,612.503299,273.6822934,254.7721264,768.8611338-1.7863295,890.5724853-391.8126774ZM168.9237848,959.1097504c15.9855717,11.5239023,1.3792125,26.2881231,4.3785844,39.1081529-16.5505503-1.1299573-35.1283769-19.5499222-52.0860442-23.7706449,13.6259551-24.9919957,33.5913027,4.8687864,47.7074599-15.337508ZM141.8214277,937.532552c5.6830203,5.3506799,14.7725294-1.3044359,10.8758386,8.6740836-4.5447545,5.3589884-15.0965612-.8890105-10.8758386-8.6740836ZM66.770664,886.4933799c12.4129128,29.0465482,23.7706449,59.555394,59.7963408,47.7074599-7.1370094,9.006424-14.3571039,18.1790182-21.7433686,27.1854421-21.9843154-23.8537299-61.823617-45.7632687-38.0529722-74.892902ZM110.3404863,876.672722c3.572659,2.8415102,7.2200945,5.7661054,10.7096684,8.6823921-2.7584251,3.6557441-5.7577969,7.3031796-8.599307,10.8758386-3.7305206-2.8415102-7.3031796-5.840882-10.86753-8.599307,2.9162867-3.6557441,5.840882-7.2200945,8.7571687-10.9589236ZM98.3346905,902.7198984c-3.165542-4.4616694-10.5518067-8.599307-6.4889457-14.0330721,3.165542,4.6195311,10.5434982,8.6823921,6.4889457,14.0330721ZM90.5413089,789.9401943c-6.4889457,10.5434982-27.0940485,22.7985493-6.4058606,30.4257607-2.9993718,3.572659-5.7577969,7.2200945-8.6823921,10.8758386-5.5168501-4.3868929-10.0616047-.8142339-15.2544229-3.2486271.9720956-15.5784548-.8142339-61.5826703,30.3426756-38.0529722ZM112.292986,762.7547522c4.8687864-8.7571687-1.7032444-16.3012951,2.1103613-24.9089106,15.0882527,4.1376376,13.1440616,33.4334411-2.1103613,24.9089106ZM121.8643886,717.2407387c22.3914323-11.764849-3.2486271,31.9711434,0,0h0ZM108.9612738,733.3841721c-12.3298277-7.2200945-22.3083472,6.2479989-34.6464834-.9720956,9.903743-14.1992422,19.9653476-27.2602187,32.4613455-18.4199649-5.6830203,7.2200945,5.5168501,12.4959979,2.1851379,19.3920605ZM51.433156,794.4018638c5.3589884,9.496626-5.7577969,6.0070522,0,0-5.1097332-9.8206579,5.8491905-6.1649138,0,0ZM81.9420018,756.3488916c-4.5447545,7.0622328-.3240319,19.9570391-13.0609765,16.2265185,4.3785844-7.0622328.2409468-20.0401242,13.0609765-16.2265185ZM51.5162411,749.7768608c3.6557441,2.9162867,7.2200945,5.7577969,10.7927535,8.7654772-5.1928183,7.0539243.9720956,12.9778914-7.4610413,20.5220178-3.7388291-2.8415101-7.3031796-5.6747118-10.9589236-8.6823921,5.2759033-7.0539243-.8890105-12.9778914,7.6272115-20.6051028ZM112.2099009,673.7540015c-1.8694146-1.5453827-3.6557441-2.9245952-5.433765-4.3868929,8.9233389-8.5162219,16.2265185-31.5640265,28.2323143-12.9778914-6.8129776,13.2188382-15.2544229,11.3577321-22.7985493,17.3647843,3.572659,2.9162867,7.2200945,5.7577969,10.7927535,8.7571687-8.4414454,13.3933168-17.5309544,19.2341988-28.2406228,13.0609765,5.840882-7.2200945,11.6069874-14.440189,17.4478693-21.8181452ZM31.9663189,751.9703072c6.4058606-.7311488-4.1376376.4818935,0,0h0ZM62.3089946,713.9921116c-4.3785844,6.8960626-.1661702,20.0401242-13.1440616,16.3096036,4.4616694-6.9791477.1578617-20.0401242,13.1440616-16.3096036ZM89.4113516,691.1104773c-2.9245952,3.6557441-5.7661054,7.2200945-8.6823921,10.9589236-3.6557441-2.9245952-7.2200945-5.840882-10.8758386-8.6823921,2.8415102-3.6557441,5.7661054-7.3031796,8.6823921-10.8758386,3.572659,2.9245952,7.1370094,5.840882,10.8758386,8.599307ZM278.9450637,442.345403c14.440189,12.0057958,16.2265185,33.350356-.9720956,34.7295685-15.6615399-9.8206579-5.0266481-22.5576025.9720956-34.7295685ZM301.8266981,424.8975337c16.0686568,8.6823921,15.4205931,43.8190776-5.3506799,40.2464186,2.67534-13.4680934-.490202-26.3712082,5.3506799-40.2464186ZM377.7747808,396.7483045c-10.3856365-7.2200945-6.1649138-15.9024866-17.3647843-22.7985493-11.0337002,13.0609765,21.7433686,46.4030239-9.8206579,45.5140135,2.3513081,16.1434334-17.2816992,31.9711434-31.3978563,28.2323143.490202-13.4680934-5.1928183-51.6789273,23.8537299-52.0860442-3.0824569,8.6823921-2.0272762,16.7167205,7.5441264,23.8537299-17.8466778-35.8595258,48.1145768-122.683447,88.8511975-133.5509771,16.3843802,32.6939837-36.515898,73.3475193-61.6657554,110.8355129ZM662.7317212,72.924158c22.7154642,15.5784548-21.2614751,68.071616-25.9640913,32.453037-19.4751456,18.3368798-12.662168-29.287495,3.2403186-15.0882527,7.0622328-10.3025514,15.744625-6.0901373,22.7237727-17.3647843-5.1928183-2.5174783-9.7375728.9720956-15.2544229-3.2486271,12.6538595-10.3025514,32.943239-19.3089754,30.3426756-38.2108339,16.2265185,12.7369446-1.6201593,39.9971633-15.0882527,41.459461ZM351.8937746,562.8354036c12.7369446-26.7783252,17.115529,11.8479341,0,0-9.6627962,5.1928183-6.1732223-5.840882,0,0ZM538.104083,284.6914407c11.3577321,12.0141043,19.1428052,24.2608469,14.2740188,37.9781956-19.1428052-11.1167853-16.7914971-24.5101022-14.2740188-37.9781956ZM585.894628,269.4370178c-13.3933168,16.3096036-5.4420735,30.3509841-9.6627962,45.6801836-33.1011007-37.886802-5.3506799-51.9281826-5.5168501-93.4707286,22.075709,24.2608469,49.0118958-33.5082176,89.9811548-34.8043451-10.2194663-3.6474355-20.0401242-2.8415102-30.4257607-6.4889457,21.7516771-20.6134114,29.9438672,6.7298925,41.2185142-29.2958035,12.2550511,20.6964964,18.1790182-14.2740188,30.5088458,6.4141691-5.840882,7.2200945-11.681764,14.440189-17.3647843,21.7433686,5.6830203,9.1725942,7.1453179,18.9018585,12.9861999,28.2323143,8.4331368-12.6538595,18.3368798-13.7090402,29.3705801-3.2403186-7.9512433,17.5226459-19.6330073,1.5370742-29.3705801,3.2403186-18.5778266,29.0548567,27.2602187,16.7167205,38.0529722,30.3509841-21.668592,12.9031148-45.3561518,7.0539243-67.2656906,17.4395608.3240319-11.5986789,4.1376376-23.5296981,1.1382658-34.72126-20.9374432,1.7863295-9.7375728,17.6888161-26.1302615,32.5361221,5.1928183,9.5714026-5.840882,6.1649138,0,0-14.440189-6.5720308.5732871-16.5505503-7.6272115-23.7789534-12.4129128,6.6551159-24.9836872,12.5790829-36.8316213,23.7789534,30.3426756,20.281071,59.7132557,33.3420475,84.6221663,5.433765,18.9932521,11.0337002,20.4472412,23.936815,4.4616694,39.0250678,14.3654124,10.6348918,24.5848788-15.0051676,39.1164614-4.3785844-5.8491905,19.3089754-21.2614751,28.7225163-40.0885569,39.1081529,14.9303911,4.2207227,13.069285,33.5913027-2.268223,24.9919957.8142339-8.3583603-7.9512433-15.6615399,2.268223-24.9919957-23.6875598-10.9506151-16.2265185,13.3102318-31.5640265,28.2323143-20.4389327-20.771273-34.1562814,19.4751456-54.2794907,1.2213509,10.2277748-19.2341988,29.3705801-39.5983549,8.599307-55.3346713-12.6538595,11.274647.6563722,19.7160924-16.2265185,31.3978563-12.6538595-21.5855069,13.4680934-47.6243748-7.701988-68.3208712ZM538.3450298,418.2507263c-9.006424-7.3031796-18.0959331-14.4484975-27.1854421-21.7516771,26.4542933-6.0818287,26.6204635-16.8745822,44.4671413-44.625003,15.5784548,21.9095388,25.3160276-9.7375728,39.0250678-4.2954993-28.6394312,26.5290699,5.9239671,22.8816344,4.4616694,39.1081529-21.4193367-.2492553-42.6725033,2.5091698-60.7684364,31.5640265ZM723.7411043,219.3782498c7.1453179-9.5714026,15.2544229-10.7096684,23.8537299-7.7102965-7.1370094,9.6544877-15.2461144,10.6348918-23.8537299,7.7102965ZM655.1792863,137.9964021c-9.6544877,5.3589884-6.1649138-5.7577969,0,0,14.0413806-15.4122846,18.4199649,23.2887513,0,0ZM677.9861441,76.0897c2.9162867-3.572659,5.6747118-7.3031796,8.599307-10.7927535,5.433765,4.3785844,10.0616047.8142339,15.2544229,3.2486271-7.3862647,8.0343284-14.3654124,19.4668371-23.8537299,7.5441264ZM239.1057621,659.4716742c-20.5220178,17.1986141-14.0330721,31.2399946-29.2044099,47.7074599-29.4536652-21.4193367,5.1097332-53.7975971,29.2044099-47.7074599ZM212.0864901,726.8121414c-8.7571687,9.5797111-18.0876246,15.2544229-28.2323143,12.9861999,2.1934464-5.1180417.4818935-9.9785196-6.4889457-14.0413806,9.1642857-21.3362517,23.8537299,6.5720308,34.72126,1.0551807ZM210.7903627,627.9907328c3.4064888-21.9926239,35.4607173,3.7305206,26.2050381,11.9227107-8.7571687-4.1376376-16.6336354-.4818935-26.2050381-11.9227107ZM179.4755915,656.2230471c23.3635279-16.3926887-10.8758386,26.612155,0,0h0ZM313.8324939,487.8594165c-4.0545525.490202,6.331084-.6480637,0,0h0ZM689.8257697,50.0425236c7.3031796-9.006424,14.4484975-18.0959331,21.668592-27.1771336,23.3635279,4.943563-11.6069874,48.8457256-21.668592,27.1771336ZM724.6384233,41.2770464c2.268223-3.8883823,19.3920605-32.9349305,3.2403186-5.3506799-1.7032444,2.8415102-2.67534,4.6278396-3.2403186,5.3506799ZM753.8428332,47.8490772c4.3868929-7.1370094.0830851-20.1149008,13.069285-16.3843802-4.3868929,7.2200945-.1661702,20.1232093-13.069285,16.3843802ZM722.4449769,76.0897c22.2335706-11.6069874-3.4064888,31.8880584,0,0h0ZM809.2605896,56.4566927c-11.1915619-12.5790829-16.708412,27.0940485-29.3705801,3.3234037,9.496626-9.4135409,3.4064888-16.9576673,12.0057958-26.1302615,7.3031796,7.4693498,21.5855069,14.1244657,17.3647843,22.8068578ZM770.2355219,105.3024184c24.2608469,12.1636575,11.8479341,28.3984845,9.8206579,43.4036521-9.903743-.407117-20.3641561-4.4616694-31.4809414-16.3096036-7.1453179,9.6544877-15.2544229,10.9589236-23.8537299,7.7102965,9.3304558-7.6272115,3.8883823-13.6342636-2.2765315-19.4751456-1.2961274,1.7032444-2.7584251,3.4895739-4.2954993,5.3589884-20.0484327-17.5309544-5.5251586,2.9162867-18.4199649,11.9227107-10.5518067-15.2544229-41.949663,1.4622976-36.9230149-20.5220178,13.2271467,14.2740188,21.2614751-16.1517419,33.5913027-8.7654772,4.5447545-3.572659,9.8206579-1.0551807,14.0413806-6.5720308,10.0616047,5.5168501,5.3506799,12.6538595,12.0057958,18.5778266,18.50305-13.7921253,13.7173487-7.6272115,12.0057958-26.121953,8.2004986-.407117,16.8828907,3.8883823,25.9640913,11.9227107-6.3227755,8.9233389-19.0597201,18.5861351-11.8396256,25.9640913,17.1986141-13.6259551,12.0057958-7.3779562,21.6602835-27.0940485ZM831.0122667,73.7383919c-5.5251586-4.2207227-10.8758386-8.599307-16.3096036-12.9861999,2.8332016-3.5643505,5.7577969-7.2200945,8.599307-10.86753,5.433765,4.2954993,10.86753,8.599307,16.3843802,12.9778914-2.9993718,3.6557441-5.840882,7.3031796-8.6740836,10.8758386ZM858.1894004,184.5739047c.407117,8.109105-3.8136057,16.708412-11.9310192,25.8810062,13.7173487,6.8129776,4.2207227,16.0603483-1.9441912,24.9919957-5.5168501-4.3868929-11.0337002-8.5245305-16.3926887-12.9861999,5.5168501-10.0616047,12.4959979-5.1928183,18.3368798-12.0057958-3.5643505-2.9245952-7.1370094-5.6830203-10.784445-8.599307-1.3792125,1.7032444-2.8415102,3.5643505-4.4616694,5.433765-12.4959979-8.5162219-13.5511785-18.3368798-3.165542-29.287495-12.4129128.8059254-10.3108599-4.6278396-16.3096036-13.069285-15.0965612,24.343932-15.2544229-10.86753-12.0141043-18.3368798-23.6875598-10.3856365,8.9316474-32.943239,17.3647843-21.8264537-.4818935,6.5720308-1.2961274,13.3933168-7.5441264,20.6964964,4.7857013,6.0818287-4.8687864,13.7090402,2.1934464,19.4668371,10.5434982-20.0401242,25.4738892,8.2004986,22.7154642-17.3647843,20.771273,7.4693498,0,19.8822625-6.4058606,30.4340692,14.440189,6.5720308-.490202,16.5505503,7.6272115,23.8537299,7.3031796-8.2752752,13.8752104-22.8068578,22.7154642-17.2816992ZM801.7995483,210.6127726c30.5088458-10.4604131-6.4141691,24.2608469,0,0h0ZM913.6071568,193.0070416c-20.4472412-5.6747118-37.1639617-24.4187086-15.2544229-47.7074599,14.6063592,15.0134761,19.3089754,30.7497926,15.2544229,47.7074599ZM859.4024427,283.1543665c-18.9849435-10.8758386-20.4389327-24.0199001-4.3785844-39.0250678-1.7863295-1.3792125-3.572659-2.8415101-5.3506799-4.3038078,5.7577969-7.2200945,11.5986789-14.5232741,17.2816992-21.8264537,15.7363164,11.1167853,12.0888809,23.3635279-2.1934464,25.0750808,19.0680286,11.0337002,8.1174135,25.4738892-5.3589884,40.0802484ZM925.4550909,211.5100916c-5.6830203,6.1649138-11.764849,11.5155938-19.3920605,2.1851379,5.9987437-5.7577969,11.274647-16.1434334,18.4199649-12.0057958-2.3596166,3.4895739-4.3868929,7.1370094.9720956,9.8206579ZM874.6568656,286.3946851c15.5784548,9.8206579,11.8479341,21.8264537-1.1299573,34.7295685-15.5036782-9.7375728-11.6900725-21.7433686,1.1299573-34.7295685ZM935.5166956,299.2977999c-2.7584251-18.012848-24.1860703-59.555394-2.2765315-63.9339784.0830851,21.4193367,17.2069226,40.8944823,2.2765315,63.9339784ZM943.143907,323.234615c-3.4147973-4.6278396-10.7096684-8.6823921-6.6551159-14.1161571,3.2403186,4.6195311,10.5434982,8.6823921,6.6551159,14.1161571ZM942.0056413,357.9641835c6.4889457-.7311488-4.0545525.4818935,0,0h0ZM912.7929229,450.3797314c-.3240319-8.2752752,4.062861-17.0407524,11.9310192-26.2133466-20.8543581-14.1161571,6.5720308-33.6660793,4.2954993-49.8925978,17.2069226,14.6811358,13.2271467,46.5691941-4.2954993,49.8925978,1.9441912,1.5453827,3.6474355,2.9245952,5.433765,4.3868929-1.0551807,4.6195311-3.0824569,31.6388031-17.3647843,21.8264537ZM949.6328527,426.3598313c-4.0545525.490202,6.4889457-.6480637,0,0h0ZM930.3238773,473.0121105c-3.4147973-4.5447545-10.7096684-8.6823921-6.6551159-14.0330721,3.2403186,4.6278396,10.7096684,8.7654772,6.6551159,14.0330721ZM947.5224914,451.2687419c1.4622976-28.6394312,7.7850731,27.6673357,0,0h0ZM911.7377422,529.5681327c21.9926239-36.515898,27.9165909,16.1434334,0,0h0ZM890.4014906,645.5964638c6.8129776-21.9926239,14.440189-31.7301967-13.2271467-28.1575377,12.2550511-22.7154642,28.4815696-11.4408172,41.3015993-29.4536652-5.6830203-5.840882,3.2403186-13.4680934,7.4610413-20.5220178-3.5643505-5.4420735-1.9441912-34.7295685,11.9310192-26.0471764.407117,8.2752752-3.9797759,16.9576673-11.9310192,26.0471764,5.6830203,5.9987437-3.2403186,13.4680934-7.4610413,20.5220178-2.9245952,15.5784548-7.3031796,56.5560222-28.0744526,57.6112029ZM828.5778735,712.0479205c23.3635279-16.6336354-10.9589236,26.3712082,0,0h0ZM827.5226929,791.1532367c-8.2752752-21.5024218-38.2191424-37.2387383-5.5168501-48.8457256,9.6544877-5.1928183,6.0818287,5.7661054,0,0-1.4622976,6.8212861-3.0076803,13.4764019,2.1851379,19.6413158,39.9223868-29.3705801,19.6330073-77.8922738,63.9422869-91.3603673-9.2556793,38.9419827-40.7366207,80.4014436-60.6105747,120.5647772ZM717.0112119,907.5055997c-14.3654124-24.3356235-22.3166557,6.4972542-35.8678343-10.7927535-9.6544877,5.1928183-6.2479989-5.840882,0,0,28.3237079-10.784445,30.9159628-38.377004,66.1274248-27.3433038-1.778021-26.8531018,40.8197058-77.7261037,71.5694983-67.3404672-32.6192072,47.3003429-68.0799245,68.968935-101.8290889,105.4765244ZM628.0021527,952.1306026c5.5999352-29.6946119,50.4658849-35.3693237,74.8098169-38.2108339-24.343932,17.5226459-47.8736301,42.6725033-74.8098169,38.2108339ZM636.6014597,896.7128462c-16.2265185,17.2069226-30.9159628,47.3917365-48.7626406,50.0670765,11.274647,11.764849,21.5024218,15.6615399,31.4809414,16.1434334-19.7160924,15.337508-42.1075247,5.5168501-62.9618828,12.0141043,34.1562814-25.8893147,24.4187086-83.0850921,80.243582-78.2246142ZM519.601033,998.7911904c-65.5624462,33.5913027-133.7171472,42.5977267-203.0101141,42.5146416-5.840882,5.5168501-7.7850731-1.2961274-5.3506799-4.1376376-25.4738892,8.0343284-52.4931612,2.5091698-81.4649328-20.5303263-1.3792125,1.7863295-2.9162867,3.572659-4.3785844,5.433765-20.6134114-15.7363164-20.2893795-6.2479989-32.5361221-26.0388679,7.0539243-10.3856365,15.8194015-6.1732223,22.7154642-17.3647843,9.9785196,5.3506799,5.2759033,12.4959979,12.0141043,18.2537947,19.7160924-2.1934464,6.0818287-12.4129128,11.9227107-25.9640913-12.3298277-7.2200945-22.3914323,6.2479989-34.7295685-1.0551807,3.9797759-5.3506799-3.3234037-9.5714026-6.4889457-14.0330721,6.0070522-14.6063592,29.2127184-5.1180417,7.5441264-20.6134114-1.3792125,1.7863295-2.9993718,3.572659-4.2954993,5.433765-12.4959979-7.2948711-22.4745174,6.2479989-34.7295685-1.1299573,9.2473708-7.5524349,3.8966908-13.5511785-2.1934464-19.5582307,2.8415102-3.4895739,5.7661054-7.1370094,8.6823921-10.86753-26.9361869-17.8549863-40.8944823-17.6888161-34.8874302-45.4392369-25.6400594,3.0824569-91.3603673,30.2595905-91.1941971-19.4751456,9.5714026,11.764849,16.5505503.490202,23.8537299-7.5441264,10.3025514,7.0539243,6.1649138,15.7363164,17.3647843,22.7154642,12.4876893-6.6551159,24.9836872-12.6538595,36.9147064-24.0115916,20.6881879,22.7154642,37.886802,14.3571039,55.4177564,8.6823921-3.6557441-4.469978-.9720956-9.7375728-6.6551159-14.0413806-2.7584251,3.572659-5.6830203,7.2200945-8.599307,10.7927535-6.6551159-.6480637-13.3102318-1.2961274-20.5303263-7.5441264,6.2479989-28.0744526-26.3712082-21.0953049-34.8043451-45.522322,7.7850731-18.9849435,18.8187734-8.0343284,27.0940485-22.8816344-1.8611061-1.3792125-3.6474355-2.7584251-5.5168501-4.3785844,12.7452531-11.1167853-.4818935-19.7160924,16.2265185-31.3978563-15.5784548-9.7375728-4.8604779-22.5576025,1.0551807-34.8957387-1.7032444-1.3792125-3.5643505-2.7584251-5.433765-4.1376376,7.2200945-9.5714026,15.337508-10.784445,23.8537299-7.6272115,18.0959331-24.8258255,22.7237727,15.5036782,0,0-5.3506799,9.9868281-12.4959979,5.1928183-18.4199649,11.764849,4.1376376,11.2829555,17.6140395,21.2614751-1.0551807,34.8957387,14.9303911,12.0057958,20.9374432,32.6939837-.9720956,34.72126,14.9303911,21.3445602,23.5296981,43.4950457,27.102357,66.2105099,11.274647-2.8415101,21.4193367-16.1434334,33.6743878-8.7654772-11.3577321,11.1998704-14.9303911,21.5024218-6.4889457,30.3509841,15.4953697-9.5797111,33.8322495,7.0539243,47.7822365-15.2544229-61.0093831-24.1777618,13.9582955-79.5955182-34.8043451-90.0642398.3240319-11.5239023,10.9506151-24.2608469,1.0551807-34.7295685,28.0744526-16.6336354,41.5425461-19.1428052,64.0170635-2.1103613-6.5720308,7.228403-13.2271467,14.6063592-7.6272115,20.5303263,32.3782604-5.433765,8.9233389,20.6134114,41.3015993,15.2544229,0,17.9297629-24.1777618,38.8672061-18.3368798,56.389852,13.1440616,0,24.8258255-13.7921253,37.9698871-14.1161571,5.433765,21.0122198-33.9153346,19.1511137-15.2544229,41.3015993,20.2062944.3240319,24.4270171-64.8312974,48.8457256-50.0670765-11.5239023,12.8200297-22.0674005,25.6400594-10.8758386,35.7847492,26.9444954-22.4745174,38.3853126,27.3433038,69.5422221,2.1103613-1.8694146-20.5303263-22.6406876-15.5784548-36.9230149-20.5303263-7.7102965-12.4129128,25.4821977-29.3705801,15.0965612-41.2185142-8.2752752,13.4680934-17.5309544,19.3089754-28.2406228,13.0609765-3.2403186-16.2265185,30.8328777-36.5075895,4.3868929-49.9756829-.897319,34.8043451-43.4950457,26.2050381-43.4119606,54.1964056-9.3304558-49.2528426,40.1633335-61.7405319,70.5060092-77.0780399-25.7979211,3.3234037-11.1167853-19.6330073-28.3153994-31.4809414-6.4058606,7.9512433,9.1725942,35.618579-12.9778914,16.3096036-5.7661054-26.3712082,32.3699519-32.0542285,43.4036521-54.2877992-28.7225163-1.6201593-20.1232093-44.1348009,4.2207227-49.8925978-8.7654772-12.171966-8.4414454-25.4821977-14.1161571-37.9781956,16.2265185-16.3843802,34.3224515-17.115529,52.0860442-20.6881879.5732871,23.7706449-.8059254,29.287495-9.7375728,45.5970985,17.7719012,11.1998704,48.9288107,8.6076155,47.7157684-15.2544229,22.8733259,7.228403-9.903743,20.8543581,13.1440616,28.3237079,24.1777618-21.17839,55.6587032-27.6673357,34.72126.8059254,28.1575377-16.3096036,64.5903506-29.2044099,56.3150754-70.5890943-15.337508,0-22.8816344-21.0953049-45.6054071-9.5714026,1.6284678-11.764849,5.5168501-23.6958683-8.7571687-33.6743878-2.7584251,13.5511785.4818935,26.2881231-5.4420735,40.0802484-28.9634631-2.7584251-8.7571687-25.714836-32.5361221-26.0388679,2.2765315,32.6939837-32.7770688.8890105-47.7074599,15.4122846-6.7298925-25.8810062,46.4113325-10.2194663,24.8258255-42.4315565-9.8123494,15.4122846-20.5220178,21.8264537-33.5913027,8.6823921,20.2893795-24.5848788,43.1710139-27.2685272,63.9422869-46.7353643,12.0057958,27.0109634,31.4809414,7.701988,43.4867372,34.6381749,18.50305-17.2816992,58.4171283-9.006424,66.2105099,17.3647843,24.5017937-45.1899816,94.1187923-66.6924034,117.1582884-102.1531207-6.8129776-.7311488-13.3850083-1.3792125-20.6051028-7.6272115,31.9711434-8.0260199,12.9861999-66.0443397,53.0664483-55.4177564-4.5447545-23.8537299-2.5174783-52.4931612-33.6743878-35.7764407-11.0337002-31.1569095,56.7138839-15.5784548,30.3426756-37.9698871,9.2556793-5.5251586,15.9855717-33.1924943,27.019272-22.8816344,3.572659,18.5778266-8.599307,20.6051028-6.4889457,30.4257607,7.7933816,3.4895739,36.6737597-17.9297629,30.4257607,6.4058606-10.6265833,20.5303263-51.0308636,14.1992422-40.1633335,39.1081529,9.9785196-14.2740188,21.9095388-10.2194663,33.7574729-8.599307,4.0545525-7.1370094,8.8402538-8.8402538,14.1161571-6.5720308-6.0070522,12.2550511.7311488,22.9647195-10.7927535,35.8595258,11.1998704,11.6069874,18.4199649-10.86753,29.2127184-3.3234037-4.1376376,20.1232093,15.1713378,29.6946119,4.3785844,39.0250678,12.2550511,6.2479989,21.17839-17.6888161,34.8043451,1.0551807-12.4876893,28.5646547-33.3420475,32.1373136-23.8537299,52.2522144,8.2752752-14.7642209,22.3166557,22.7237727,29.3788886-3.3234037,7.1370094-10.7927535-15.744625-18.012848-13.1440616-28.2323143,23.6875598-4.7940098,13.949987-34.0815048,35.6933556-33.7574729-1.1299573,15.0134761-24.1777618,32.453037-19.4668371,46.8184494,8.3583603,0,16.2265185-3.4064888,23.8537299-7.6272115-16.0686568-11.681764,1.2961274-44.1431094,16.3096036-31.4809414-5.5999352,25.9640913-2.2765315,32.5361221-17.2816992,66.1274248-20.0484327,11.8479341-42.0327481,7.4610413-62.8040211,11.9227107,10.2194663,7.2200945,6.0070522,15.82771,17.3647843,22.7237727,9.7375728-15.337508,20.4472412-21.668592,33.5913027-8.599307-43.4950457,22.1504856,22.7154642,23.8537299,10.86753,53.1412249-5.3506799-4.0545525-9.5714026,3.3234037-14.1161571,6.5720308,10.9589236,8.5162219,18.8270819-9.3304558,30.5088458,6.4889457,7.1370094-9.5714026,15.1713378-10.86753,23.7706449-7.6272115-6.8960626,12.3381362-14.5980507,16.0686568-23.7706449,7.6272115-26.1302615,17.605731-55.1768097,8.6823921-80.243582,33.840558,15.9855717,5.0266481,41.949663-16.234827,45.5140135,9.5714026-9.4052324,20.0401242-23.2056662-1.4622976-32.6108987,18.4199649,6.6468074.7311488,13.3019232,1.4539891,20.6881879,7.6272115-21.9926239,39.1829294-49.2528426,31.0738244-73.7546363,47.8653216,18.012848,7.8764667,2.268223,19.6413158,12.9778914,28.2406228,19.9653476-12.0888809,2.0272762-19.9653476,6.4972542-30.5088458,10.7096684,7.6272115,18.1707096-14.847306,29.4536652-3.2486271,1.3792125,13.3102318-20.0484327,46.1703857-35.9509194,33.7574729-2.7584251,3.572659-5.7577969,7.2200945-8.599307,10.86753,8.599307,3.7388291,16.2265185-2.7584251,24.9919957,2.1103613-7.6272115,9.0895091-7.3031796,17.3647843-2.1103613,24.9919957,14.2823273-18.8187734,28.4815696-39.2660145,45.4392369-34.8874302,1.0551807,22.1504856-28.1575377,42.0327481-45.4392369,34.8874302-16.7167205,17.9297629-9.4135409-29.777697-26.121953-11.8479341,8.5162219,8.8485623,5.0266481,19.1511137-6.4972542,30.3509841,8.2752752.8059254,15.5784548-7.9512433,25.0750808,2.1103613-12.8200297,18.2537947-27.9913675,16.2265185-43.4867372,9.8123494,2.9993718-3.5643505,5.840882-7.3031796,8.7571687-10.7927535-8.6823921-2.9162867-16.6336354-2.0272762-23.936815,7.6272115,20.2893795,12.4959979,29.6198353,26.2881231,9.8206579,43.2457904-14.1992422-2.7584251-5.1097332-30.7497926-21.6602835-17.2816992-2.5174783,24.5848788-4.2207227,29.1296333-27.102357,22.8068578-.9720956,16.6253269,6.0818287,32.2868668-4.3868929,49.9756829-55.4094479-8.9233389-101.7460038,63.2859147-156.1085796,61.9897872,4.3038078,19.3089754,25.6400594,36.7568447,6.4972542,58.5832984-21.2614751-9.0895091,6.8129776-23.6958683-8.6823921-33.5082176-5.7661054,7.2200945-11.6069874,14.440189-17.2816992,21.7433686-24.9919957-10.5518067,7.6272115-27.3433038-14.2823273-38.0529722-17.3647843,13.5511785,6.6551159,22.3083472-10.7096684,35.8595258-13.5511785-17.3647843-22.3914323,6.5720308-35.8678343-10.7927535-1.2130423-16.3096036-7.6272115-32.04592-15.2461144-47.7074599-34.7295685,35.2945471-27.102357-44.8659497-55.4177564-8.6823921,19.7908689,9.4135409,15.3291995,21.4193367,28.3153994,31.4809414-7.3862647,8.2004986-13.9582955,22.7985493-22.7237727,17.2816992,8.5245305-15.0882527-20.771273-16.9576673-24.9836872-1.9441912-3.572659-2.9993718-7.3031796-5.840882-10.8758386-8.9233389-7.6272115,5.7577969-16.3926887,1.1382658-23.8537299,7.8681582,13.2271467,27.2602187,38.784121,24.343932,35.8595258,55.2515863-27.9082824,15.744625-55.8165649,30.184814-83.5669856,48.9288107,3.6474355,4.5447545,1.1299573,9.7375728,6.5720308,14.1161571,46.486109-11.9227107,89.4078676-55.0937246,138.8268804-40.3211952.4818935,17.9297629-6.0070522,6.4889457-17.2069226,21.6602835,31.9711434,27.019272,37.8120254-7.701988,57.4450327-16.3096036-9.4883175,19.1511137,15.6615399,4.062861,21.7516771,17.3647843-3.0076803,3.4895739-5.840882,7.3031796-8.7654772,10.7096684,1.8694146,1.5453827,3.572659,3.0824569,5.5168501,4.3868929,9.6544877-5.1180417,6.0818287,5.840882,0,0ZM530.3937865,963.0895263c7.2200945-9.6544877,15.2544229-10.6348918,23.936815-7.7102965-7.3031796,9.7375728-15.4205931,10.5518067-23.936815,7.7102965ZM466.2105528,876.3486901c1.4622976-28.8056014,7.7933816,27.5925591,0,0h0ZM834.9837341,681.5390747c-4.0545525.490202,6.4141691-.5649786,0,0h0ZM378.0157276,574.6833377c-17.4478693,13.4680934,13.3102318,21.5024218-10.8758386,35.7764407-21.3362517-6.3227755-5.1097332-41.459461,10.8758386-35.7764407ZM307.5097184,651.7613777c30.3426756-10.3025514-6.4972542,24.343932,0,0h0ZM328.1979063,703.8557304c21.0122198-35.7847492-14.2823273,24.2525384,0,0h0ZM213.1416708,781.091632c-3.9714674.407117,6.4972542-.8059254,0,0h0ZM219.8798717,839.7580156c-3.2486271-4.6278396-10.7096684-8.7654772-6.5720308-14.1992422,3.165542,4.6278396,10.6265833,8.7654772,6.5720308,14.1992422ZM100.4450518,833.3438465c-4.0545525.490202,6.4058606-.8059254,0,0h0ZM113.4229432,817.117328c23.3718364-16.4674653-10.86753,26.4542933,0,0h0Z"/>
      <path d="M727.8787419,35.9263665c-1.7032444,2.8415102-2.67534,4.6278396-3.2403186,5.3506799,2.268223-3.8883823,19.3920605-32.9349305,3.2403186-5.3506799Z"/>
      <path d="M255.7393975,983.9355759c9.1725942,8.0343284,18.012848,12.3381362,26.1302615,11.9310192-16.1517419,18.0959331-35.618579,5.3589884-52.0943528,20.771273-10.7927535-5.3506799-6.8129776-12.4959979-2.1851379-19.7160924,12.0057958,18.5778266,19.3089754-4.3038078,28.1492292-12.9861999Z"/>
      <path d="M316.590919,1041.305832c-1.778021-1.3792125-3.5643505-2.7584251-5.3506799-4.1376376,6.0070522-5.3589884,7.9512433,1.2130423,5.3506799,4.1376376Z"/>
      <path d="M253.6290362,964.4687388c-4.1376376,7.0539243-8.9233389,8.6823921-14.1161571,6.4889457,4.0545525-6.9791477,8.9233389-8.7654772,14.1161571-6.4889457Z"/>
      <path d="M182.9568568,908.1536634c-2.67534,5.4420735-6.0818287,3.4147973-9.6544877.9804041,2.6005634-5.2759033,6.0901373-3.2486271,9.6544877-.9804041Z"/>
      <path d="M192.7775147,907.0237061c26.0471764-17.2069226,20.8543581,13.949987,13.0609765,28.2323143-22.0674005-7.4610413-6.4058606-19.0680286-13.0609765-28.2323143Z"/>
      <path d="M302.4747618,1003.4938066c-5.9987436,5.6830203-13.4680934-3.4064888-20.6051028-7.6272115,12.0057958-8.9233389,17.6888161-4.7026162,20.6051028,7.6272115Z"/>
      <path d="M182.9568568,908.1536634c2.7667336-5.5168501,6.1732223-3.4895739,9.8206579-1.1299573-2.7584251,5.3506799-6.1649138,3.4895739-9.8206579,1.1299573Z"/>
      <path d="M230.7474018,937.3663818c-9.5714026,5.2759033-5.9987436-5.7577969,0,0h0Z"/>
      <path d="M263.449694,963.3304731c-2.67534,5.433765-6.2479989,3.4064888-9.8206579,1.1382658,2.7584251-5.4420735,6.1732223-3.4895739,9.8206579-1.1382658Z"/>
      <path d="M230.7474018,937.3663818c-2.1020528-19.9570391,10.8758386-9.006424,23.936815-7.7102965-7.2200945,9.5797111-15.2544229,10.9589236-23.936815,7.7102965Z"/>
      <path d="M273.1041818,962.1922073c-2.5922549,5.5168501-6.1649138,3.4895739-9.6544877,1.1382658,2.5922549-5.3589884,6.0818287-3.3234037,9.6544877-1.1382658Z"/>
      <path d="M282.9996162,961.1370266c-2.7584251,5.5168501-6.3227755,3.4895739-9.8954345,1.0551807,2.7584251-5.3506799,6.2479989-3.3234037,9.8954345-1.0551807Z"/>
      <path d="M358.9476989,1021.9137715c6.331084-.897319-4.0545525.407117,0,0h0Z"/>
      <path d="M162.2686689,856.0676191c6.4141691-.7311488-4.0545525.407117,0,0h0Z"/>
      <path d="M282.9996162,961.1370266c9.496626-5.1928183,6.0070522,5.7661054,0,0h0Z"/>
      <path d="M216.6312446,899.3134096c9.4135409-14.1161571-6.331084-37.3218234,21.7433686-27.1854421-8.599307,9.2556793-4.8687864,17.2069226,7.5524349,23.936815-7.9512433,17.605731-19.5582307,1.5453827-29.2958035,3.2486271Z"/>
      <path d="M254.6842168,929.6560852c1.3792125-1.7863295,2.8415101-3.4895739,4.3038078-5.433765,3.8966908,4.7026162,6.8129776,2.1103613,9.7375728-1.0551807,3.6474355,2.9245952,7.2200945,5.840882,10.86753,8.6823921-6.6468074,13.7090402-15.9772632,4.0545525-24.9089106-2.1934464Z"/>
      <path d="M320.8116416,946.9377844c5.4420735,4.3038078,10.8758386,8.7654772,16.3926887,13.069285-2.9245952,3.5643505-5.840882,7.3031796-8.6823921,10.86753-5.433765-4.3785844-10.8758386-8.6823921-16.3096036-12.9031148,2.9245952-3.7305206,5.7577969-7.3779562,8.599307-11.0337002Z"/>
      <path d="M343.6101909,929.5813086c1.3792125-28.6477398,7.8764667,27.6673357,0,0h0Z"/>
      <path d="M137.2766732,764.8651135c2.6005634-5.3506799,6.1732223-3.4064888,9.7375728-1.0551807-2.7584251,5.4420735-6.1649138,3.4147973-9.7375728,1.0551807Z"/>
      <path d="M443.6529503,982.6394485c-22.3914323,32.6192072-27.019272-8.3583603,0,0h0Z"/>
      <path d="M256.6367165,815.8212005c5.433765,4.3038078,9.9785196.7311488,15.1713378,3.165542-4.3038078,5.5168501-.6480637,9.9785196-3.2486271,15.2544229-5.3506799-4.4616694-9.8954345-.8142339-15.0882527-3.3234037,4.3785844-5.3589884.8059254-9.903743,3.165542-15.0965612Z"/>
      <path d="M301.1786344,860.2052567c7.9512433-17.605731,19.6330073-1.5453827,29.3705801-3.3234037-8.5162219,12.6538595-18.2537947,13.7090402-29.3705801,3.3234037Z"/>
      <path d="M234.9681245,798.5395014c28.8056014-19.8822625,4.5447545-33.5913027,23.8537299-52.2522144,29.0465482,11.5239023,4.8687864,29.0465482,9.7375728,43.4867372-9.8954345,14.2823273-21.9095388,10.3108599-33.5913027,8.7654772Z"/>
      <path d="M494.6090373,996.7556056c-4.1376376.407117,6.331084-.7228403,0,0h0Z"/>
      <path d="M302.3169001,825.4756882c3.6474355,2.9245952,7.1370094,5.7661054,10.86753,8.6823921-2.9162867,3.6557441-5.840882,7.3031796-8.7571687,10.8758386-3.572659-3.0076803-7.1453179-5.7661054-10.7096684-8.8485623,2.7584251-3.4064888,5.6747118-7.0539243,8.599307-10.7096684Z"/>
      <path d="M514.0841829,994.4042975c-9.5714026,5.4420735-6.0070522-5.6747118,0,0h0Z"/>
      <path d="M323.9771836,842.7573874c8.4414454-13.4680934,17.605731-19.3089754,28.2406228-13.0609765-8.3583603,13.7090402-17.5309544,19.3920605-28.2406228,13.0609765Z"/>
      <path d="M268.5594272,789.7740242c9.7375728-5.2675948,6.1649138,5.7661054,0,0h0Z"/>
      <path d="M384.7539285,855.7435873c10.86753,5.433765,6.8960626,12.4129128,2.268223,19.3920605-10.8758386-5.2759033-6.9791477-12.2550511-2.268223-19.3920605Z"/>
      <path d="M498.6718983,813.3037222c-4.3038078,7.0622328-.1661702,20.0401242-12.9861999,16.3096036,4.2207227-7.0539243.1661702-20.1232093,12.9861999-16.3096036Z"/>
      <path d="M428.0744955,756.9138702c-5.433765-4.3785844-10.0616047-.7311488-15.1713378-3.2403186,4.3038078-5.4420735.8142339-9.903743,3.165542-15.1796463,5.5168501,4.3868929,10.0616047.7311488,15.2544229,3.3317122-4.3785844,5.3506799-.8142339,9.8954345-3.2486271,15.0882527Z"/>
      <path d="M415.0135191,728.764641c-3.6474355-2.9245952-7.2200945-5.6830203-10.9506151-8.6823921,2.9162867-3.572659,5.9239671-7.3031796,8.7571687-10.9589236,3.7388291,3.0076803,7.3031796,5.840882,10.8758386,8.6823921-2.9162867,3.7305206-5.840882,7.3862647-8.6823921,10.9589236Z"/>
      <path d="M632.2228754,813.1458606c2.9993718,2.7584251,5.840882,5.9239671,1.0551807,9.8123494-15.1713378-3.3234037-27.7504208,17.1238375-44.4671413,0,13.5511785-11.3577321,28.0744526-14.1161571,42.2736949-19.6330073-2.3513081,3.572659-4.3785844,7.0622328,1.1382658,9.8206579Z"/>
      <path d="M491.0446869,700.3661565c1.2130423,12.8948063-9.0895091,25.9640913-22.8816344,17.4395608-1.3044359-12.7369446,9.006424-25.9640913,22.8816344-17.4395608Z"/>
      <path d="M509.3815667,732.9022786c31.555718-1.8694146.4818935,33.2672709,0,0h0Z"/>
      <path d="M552.8683039,767.6235386c8.9233389,4.9518715,16.3096036-1.6201593,24.9919957,2.1103613-4.2207227,15.0134761-33.5082176,13.1440616-24.9919957-2.1103613Z"/>
      <path d="M540.8625081,704.7447409c-2.9245952,8.1921901-10.3856365,29.8607821-4.2207227,49.9839914,3.8136057,4.6195311,6.8129776,1.9441912,9.6544877-1.2213509,2.8415102-5.3506799,6.2479989-3.4064888,9.8206579-1.0551807-7.1453179-15.9855717,5.1928183-59.6384791,22.7154642-61.9067021-37.3218234-37.1639617,23.3635279-66.9416587,34.7295685-87.9538785-35.5438024,14.440189-47.0593962,12.2550511-84.7135599,39.1912379-3.8883823-29.3705801-30.8328777-16.0686568-44.4588328.0830851-9.4135409-8.9316474,11.3577321-21.0953049,6.4058606-30.4257607-23.936815-22.3166557-40.8113972,17.5226459-65.0722441-7.5524349-22.3083472,33.9984197,16.7167205,19.6413158,32.6192072,26.0471764,6.8129776,18.9018585,3.8136057,39.1081529-3.3234037,59.7963408,37.479685-12.7369446,52.9833632,22.5576025,85.8435172,15.0134761ZM547.3514538,674.3189802c-4.0545525.4818935,6.4889457-.6480637,0,0h0Z"/>
      <path d="M635.463194,797.9745227c9.4135409-9.3304558,3.3317122-17.0407524,11.8479341-26.1302615,22.2335706,13.9582955,3.7305206,29.6198353-11.8479341,26.1302615Z"/>
      <path d="M594.1699032,738.2529585c3.5643505,2.9245952,7.2200945,5.7661054,10.784445,8.599307-2.8332016,3.6557441-5.7577969,7.3031796-8.599307,10.9589236-3.7305206-2.8415102-7.3031796-5.840882-10.9506151-8.599307,2.9993718-3.7388291,5.9239671-7.228403,8.7654772-10.9589236Z"/>
      <path d="M677.8199739,778.4162921c-4.1376376.407117,6.331084-.7311488,0,0h0Z"/>
      <path d="M440.8945253,562.6692334c-4.3785844,5.4420735-8.6823921,10.8758386-12.9778914,16.3096036-22.0674005-12.8200297-4.3785844-34.8874302,12.9778914-16.3096036Z"/>
      <path d="M672.3031238,774.0377077c-9.5714026-7.2200945-10.5518067-15.4205931-7.6272115-23.936815,9.5714026,7.1370094,10.6265833,15.4122846,7.6272115,23.936815Z"/>
      <path d="M611.4516023,716.5095899c-3.6557441-2.8415102-7.3031796-5.840882-10.7927535-8.5162219,2.8415102-3.6557441,5.6830203-7.3031796,8.599307-11.0420087,3.6557441,2.8415102,7.2200945,5.9239671,10.9506151,8.6823921-2.9162867,3.6557441-5.840882,7.3031796-8.7571687,10.8758386Z"/>
      <path d="M701.5906188,770.7059955c6.4141691-.7228403-4.0545525.490202,0,0h0Z"/>
      <path d="M497.2926858,581.0891983c3.6474355,2.7584251,7.2948711,5.7661054,10.9506151,8.599307-5.3589884,7.2200945.8890105,13.069285-7.6272115,20.6134114-3.572659-2.9245952-7.2200945-5.6830203-10.8758386-8.599307,5.2759033-7.3031796-.9720956-13.069285,7.5524349-20.6134114Z"/>
      <path d="M720.0105837,714.3161435c6.331084-.7311488-4.0545525.3240319,0,0h0Z"/>
      <path d="M638.4708743,649.2438994c17.4395608-13.4680934-6.4972542-22.3914323,10.9506151-35.8595258,9.0895091,15.4122846,10.7096684,31.8049733,5.3589884,48.8457256-5.3589884-4.3038078-10.8758386-8.6823921-16.3096036-12.9861999Z"/>
      <path d="M734.1267408,707.7441127c6.331084-.7311488-4.2124142.407117,0,0h0Z"/>
      <path d="M719.852722,669.8573107c-4.062861.2409468,6.4889457-.8142339,0,0h0Z"/>
      <path d="M616.6444206,587.4202823c4.2207227-8.7654772.6480637-16.5505503,12.0057958-26.1302615,22.0674005,3.4147973-3.7305206,35.4607173-12.0057958,26.1302615Z"/>
      <path d="M724.2313064,619.7902342c1.1382658,7.0622328-11.681764,43.5781308-27.102357,22.8068578,8.4414454-14.0413806,7.0622328-32.6192072,27.102357-22.8068578Z"/>
      <path d="M743.7812285,662.2300993c6.4141691-.897319-4.1376376.407117,0,0h0Z"/>
      <path d="M688.3717806,609.0057893c2.8332016-3.572659,5.840882-7.228403,8.7571687-10.9589236,5.2759033,4.4616694,9.903743.897319,15.0965612,3.4064888-7.3031796,8.0343284-14.2823273,19.3920605-23.8537299,7.5524349Z"/>
      <path d="M763.3394592,659.9535677c-9.6544877,5.1928183-6.1649138-5.840882,0,0h0Z"/>
      <path d="M801.3093463,690.3045519c-2.67534,5.433765-6.1649138,3.4064888-9.6544877,1.1299573,2.5174783-5.3506799,6.0901373-3.4064888,9.6544877-1.1299573Z"/>
      <path d="M616.7275057,542.953141c-3.6557441-2.9993718-7.228403-5.840882-10.9589236-8.7571687,4.3785844-5.3589884,8.7654772-10.7927535,13.0609765-16.2265185,3.572659,2.8332016,7.228403,5.840882,10.7927535,8.6740836-4.2207227,5.3589884-8.6823921,10.8758386-12.8948063,16.3096036Z"/>
      <path d="M740.5409099,632.8595192c-9.7375728,5.1928183-6.0901373-5.840882,0,0h0Z"/>
      <path d="M763.3394592,659.9535677c9.5714026-5.2675948,6.1649138,5.840882,0,0h0Z"/>
      <path d="M740.5409099,632.8595192c9.6544877-5.2759033,6.0818287,5.7577969,0,0h0Z"/>
      <path d="M618.8295585,517.9694538c-5.2675948-2.6005634-9.7292643,1.0468722-15.1713378-3.2486271,10.3856365-22.6406876,23.5296981-12.0057958,15.1713378,3.2486271Z"/>
      <path d="M758.9608749,620.7706383c-4.2207227.4818935,6.3227755-.5732871,0,0h0Z"/>
      <path d="M773.077032,614.4395543c6.9791477,3.9714674,12.7369446-3.9797759,18.4199649-12.0888809,18.0876246,11.1915619-6.5720308,27.0940485,4.3785844,39.1081529-15.0134761,2.1103613-25.3991127-13.7921253-22.7985493-27.019272Z"/>
      <path d="M811.0469191,644.6991448c-2.7584251,3.572659-5.840882,7.228403-8.599307,10.7927535-5.840882-6.7298925,3.0824569-15.0882527,8.599307-10.7927535Z"/>
      <path d="M774.0491276,579.6269007c-6.8129776,12.3381362-14.6894443,16.0686568-23.8537299,7.5524349,7.1370094-9.4135409,15.2544229-10.7927535,23.8537299-7.5524349Z"/>
      <path d="M664.2687954,438.6896589c-5.9239671,13.7173487,1.1382658,26.2133466-15.0051676,41.2185142-23.8620385-7.701988-.6563722-45.4309284,15.0051676-41.2185142Z"/>
      <path d="M774.0491276,579.6269007c9.6544877-5.2675948,6.1649138,5.6830203,0,0h0Z"/>
      <path d="M760.9881511,551.3945864c-1.5453827,1.8694146-2.8415101,3.6474355-4.3038078,5.433765-5.3506799-5.9987437,1.2961274-7.8681582,4.3038078-5.433765Z"/>
      <path d="M760.9881511,551.3945864c-2.5174783-17.8466778,15.3291995-10.3025514,26.0471764-32.6192072-14.1992422-13.1440616,20.281071-35.4524088,3.2403186-59.7132557,32.7022923-12.4129128,21.3445602-39.1912379,32.453037-62.9618828,41.3015993,41.5425461-29.1213248,95.5727814-4.2124142,138.9847421-19.2341988,4.3785844-36.1918661,29.3705801-57.5281178,16.3096036Z"/>
      <path d="M742.5681862,518.9415494c-9.7375728,5.1928183-6.1649138-5.7661054,0,0h0Z"/>
      <path d="M798.0690277,571.9996892c2.5922549-16.0603483,29.0465482-19.1428052,19.3920605-2.268223-7.2200945-5.5999352-12.5790829,5.6830203-19.3920605,2.268223Z"/>
      <path d="M697.9431832,474.391323c6.4058606-.7311488-4.0545525.490202,0,0h0Z"/>
      <path d="M742.5681862,518.9415494c9.5714026-5.3589884,6.0818287,5.7577969,0,0h0Z"/>
      <path d="M835.8727446,557.800447c-9.6544877,5.1928183-6.0818287-5.6747118,0,0h0Z"/>
      <path d="M737.0513361,470.0127387c-9.6544877,5.1928183-6.1649138-5.7577969,0,0h0Z"/>
      <path d="M835.8727446,557.800447c7.3031796-9.5714026,15.337508-10.784445,23.8620385-7.701988-7.1453179,9.5714026-15.2544229,10.9506151-23.8620385,7.701988Z"/>
      <path d="M737.0513361,470.0127387c9.5714026-5.2759033,6.0818287,5.840882,0,0h0Z"/>
      <path d="M818.5162689,535.0849828c5.6747118-8.0343284,11.3577321-16.1434334,18.4116564-12.0888809-5.7577969,8.1921901-11.4408172,16.1434334-18.4116564,12.0888809Z"/>
      <path d="M776.0764038,465.5510692c-31.3978563,1.9441912-.407117-33.1011007,0,0h0Z"/>
      <path d="M836.9279253,522.9961019c2.6836485-5.3589884,6.2479989-3.3234037,9.903743-.8890105-2.8415102,5.2675948-6.2479989,3.4064888-9.903743.8890105Z"/>
      <path d="M829.3007138,499.2254571c7.228403-9.496626,15.337508-10.8758386,23.7789534-7.7102965-7.1453179,9.5714026-15.2544229,10.9506151-23.7789534,7.7102965Z"/>
      <path d="M729.4241246,401.6918674c-4.2207227.490202,6.331084-.6480637,0,0h0Z"/>
      <path d="M853.0796672,491.5151605c2.7584251-5.3589884,6.3227755-3.3234037,9.8954345-.897319-2.7584251,5.2759033-6.2479989,3.2486271-9.8954345.897319Z"/>
      <path d="M783.6205302,400.5619102c20.1232093,2.1103613,1.3044359,31.1569095-7.6272115,20.5220178,2.3596166-3.4895739,4.3868929-6.9708392-.9720956-9.8123494,2.7584251-3.4895739,5.6830203-7.1453179,8.599307-10.7096684Z"/>
      <path d="M862.9751017,490.6178415c7.2200945-9.5714026,15.2544229-10.9506151,23.8537299-7.7850731-6.8129776,12.4129128-14.6063592,16.0686568-23.8537299,7.7850731Z"/>
      <path d="M768.3661073,397.3132831c-9.5714026,5.1928183-5.9987437-5.7577969,0,0h0Z"/>
      <path d="M664.1109337,305.1386819c-9.6544877,5.2759033-6.0901373-5.840882,0,0h0Z"/>
      <path d="M768.3661073,397.3132831c4.2207227-7.1370094,8.9316474-8.7654772,14.1244657-6.5720308-4.062861,7.0622328-8.8485623,8.7654772-14.1244657,6.5720308Z"/>
      <path d="M664.1109337,305.1386819c2.67534-5.3506799,6.2479989-3.4064888,9.8123494-1.0551807-2.7584251,5.4420735-6.1649138,3.3317122-9.8123494,1.0551807Z"/>
      <path d="M754.3330352,359.343396c-5.433765,10.7927535-12.4129128,6.8129776-19.5582307,2.1851379,6.1732223-3.0824569,12.4959979-5.9987437,19.5582307-2.1851379Z"/>
      <path d="M886.8288316,482.8327684c2.6005634-5.3589884,6.2479989-3.4064888,9.7375728-1.0551807-2.7584251,5.433765-6.1649138,3.4064888-9.7375728,1.0551807Z"/>
      <path d="M673.9232831,304.0835012c4.062861-6.9791477,8.9233389-8.7571687,14.1161571-6.5720308-4.2124142,7.0622328-8.9233389,8.7654772-14.1161571,6.5720308Z"/>
      <path d="M782.4905729,390.7412523c4.5447545-3.572659,9.8123494-1.0551807,14.1161571-6.4889457,2.67534-13.5511785,1.2961274-26.5373784-4.3785844-39.0333763-4.2207227,6.9043712-8.9316474,8.6076155-14.1244657,6.4972542,8.9316474-26.8614103,45.3561518-32.1290051,43.4950457-9.903743-39.274323,4.7940098,11.1915619,41.3846844-22.7237727,61.9897872-5.433765-4.3785844-10.86753-8.7571687-16.3843802-13.0609765Z"/>
      <path d="M866.2237288,430.6636391c7.3031796,27.5011655-35.8678343,14.1161571,0,0h0Z"/>
      <path d="M884.7184703,463.3576228c23.3718364-16.5505503-10.9506151,26.4542933,0,0h0Z"/>
      <path d="M755.3051308,324.6138275c-6.0818287-7.5441264,6.331084-17.1986141,11.9310192-26.1302615,3.5643505,2.8415101,7.2200945,5.8491905,10.86753,8.6823921-7.1370094,10.3108599-15.8194015,6.2479989-22.7985493,17.4478693Z"/>
      <path d="M830.2811179,375.4868294c30.3426756-10.4687216-6.4141691,24.343932,0,0h0Z"/>
      <path d="M837.8252443,354.8817265c6.4889457-.5732871-4.0545525.3988084,0,0h0Z"/>
      <path d="M787.8412529,306.0360009c-2.5922549,5.433765-6.1649138,3.4895739-9.7375728,1.1299573,2.6005634-5.433765,6.1732223-3.4064888,9.7375728-1.1299573Z"/>
      <path d="M787.8412529,306.0360009c6.8212861-12.4129128,14.7725294-16.0686568,23.936815-7.5524349-7.2200945,9.496626-15.337508,10.7927535-23.936815,7.5524349Z"/>
      <path d="M670.4337092,185.7869471c-2.67534,5.3589884-6.1649138,3.4064888-9.7375728,1.0551807,2.6836485-5.5168501,6.1732223-3.4064888,9.7375728-1.0551807Z"/>
      <path d="M670.4337092,185.7869471c4.3038078-7.0622328,8.9316474-8.6823921,14.1992422-6.5720308-4.2124142,7.1370094-9.006424,8.6823921-14.1992422,6.5720308Z"/>
      <path d="M808.4546642,269.1960711c5.1928183,9.5714026-5.7661054,6.0901373,0,0h0Z"/>
      <path d="M636.7676299,105.3771949c-5.1928183-4.2207227.9720956-9.8954345,3.2403186-15.0882527,5.1928183,4.3785844-1.2130423,10.0616047-3.2403186,15.0882527Z"/>
      <path d="M696.3978005,108.625822c5.1928183,9.6544877-5.7577969,6.1649138,0,0h0Z"/>
      <path d="M855.0238584,244.1292988c2.7584251-5.4420735,6.2479989-3.3317122,9.7375728-1.0551807-2.5922549,5.3506799-6.1649138,3.4064888-9.7375728,1.0551807Z"/>
      <path d="M799.5230168,146.5957091c2.7584251-5.5168501,6.331084-3.5643505,9.8206579-1.1299573-2.67534,5.2675948-6.2479989,3.4064888-9.8206579,1.1299573Z"/>
    </g>
  </g>
</svg>