<?xml version="1.0" encoding="UTF-8"?>
<svg id="bilberry" xmlns="http://www.w3.org/2000/svg" version="1.1" viewBox="0 0 1022.4581427 1000">
  <!-- Generator: Adobe Illustrator 30.0.0, SVG Export Plug-In . SVG Version: 2.1.1 Build 123)  -->
  <g id="outline">
    <path d="M483.1092233,296.1934064c2.3351351-2.2940613,4.4530567-4.9564282,6.3111628-8.0489767-2.1615638,2.7292524-4.2580677,5.4081974-6.3111628,8.0489767Z"/>
    <path d="M1022.4581427,0c-70.1652813,59.3535138-126.6489366,128.2507719-200.8567277,184.7901899-35.7857347-29.0290222-55.8906644-83.1105508-87.2295619-105.3800797-31.2210465,3.2942452-34.7058868,25.9405492-53.7228387,37.7568096-54.2637815-41.7648048-152.5449945-56.5623005-226.1930147-48.4490916C259.67157,90.1709758,87.9767864,251.6930237,110.8826089,448.0963762c12.2293756,104.7900181,59.3132042,173.1203093,107.1925907,262.9984407C164.5102031,812.8395798,49.9624962,867.7205295,0,976.7613982c11.1596104,6.8862595,27.1030754,24.1911667,43.7640476,23.1975419,69.3452065-81.5955541,127.5139909-170.9927932,224.4707387-233.2944923,105.9927478,137.7049392,383.5929947,179.181442,533.8996482,34.0437816,70.5436271-68.1188514,110.7925437-143.4937749,133.6738068-245.3743891,9.8669642-43.923779,12.4307327-116.395242-11.7057114-179.2359948,18.2363376-11.7363204,21.5995062-41.163493,21.5995062-41.163493,0,0-83.7782174-101.9577734-101.097389-134.0908915,77.6271257-61.7373007,129.6019616-121.054262,177.8534956-200.843461ZM133.4330529,847.0215476c-26.0153524,47.9911241-69.4051933,83.8359966-93.1405577,133.4045665-7.5078428-2.3056087-9.007726-13.2373498-18.3990196-12.8474566,40.3724564-50.5073023,84.960251-98.0605183,131.5102052-144.2565799,10.9073728,6.7515544-12.4920993,18.4517468-19.970628,23.6994699ZM831.223677,352.3052325c12.1558886.4953478-2.2510134,9.0144336,2.7779466,15.6303915-3.2950306-.1850974-4.5906698-3.23394-8.4986869-2.5224188-.4633378-2.6071349-.9249775-5.2044842-1.3884002-7.812086,4.6588502-.1713637,6.7938381-2.0919613,7.1091405-5.2958866ZM829.8352768,344.49338c1.7863171-16.2384534,7.2733932,14.6347077,0,0h0ZM827.5861737,377.1344545c7.9919192.4079147,11.8956909,26.1514796-4.3499159,20.9147307-2.3311232-9.6120732,3.9873203-13.1777026,4.3499159-20.9147307ZM799.3730871,422.440202c-1.0076345,6.1391835-4.0360569,10.8746836-5.0273044,17.010959-8.5157533.2424733-4.1499173-18.3631463,5.0273044-17.010959ZM754.6749558,510.9762287c-.1952438-4.6879733,6.5327914-4.5708653,11.0182614-5.9911056.1772859,4.689629-6.5356358,4.5547117-11.0182614,5.9911056ZM763.1689304,513.4823242c-.843212,5.1178153-3.5632095,8.9137975-10.3231698,9.9018185-3.310611-8.0193017,4.2573247-8.4289995,10.3231698-9.9018185ZM756.4832639,498.5549207c-8.7826586-2.0048042-2.6191704-22.0299,8.2590792-21.6095464-2.284764,7.5296215-7.414254,13.0818213-8.2590792,21.6095464ZM767.087476,331.4694653c.5643348,3.8183128-4.2435273,3.8869177-7.1252304,5.30079-.5628489-3.81861,4.2455226-3.885729,7.1252304-5.30079ZM763.3539429,469.1335642c-.5789812-3.8154472,4.2304941-3.8748397,7.109098-5.2961626.5646319,3.8183128-4.2437821,3.8854743-7.109098,5.2961626ZM766.1380877,303.4395232c8.3536657-2.1662974,4.2259091,13.5362651,7.3810553,18.8297955-15.4930331,1.1131952-12.8336167-11.5076657-7.3810553-18.8297955ZM772.036114,427.2987748c3.8927338-.6918439,7.8036378-1.3869355,11.7130558-2.0817512-3.578323,6.6196938-.2834622,18.0531719-12.8468622,18.4007177-1.7374956-6.9220478,3.3199933-9.091975,1.1338064-16.3189665ZM770.9099492,262.2914833c-6.9842422,14.2090898-18.2242384-10.9276231,0,0h0ZM757.3691841,276.7893208c6.9203921-1.7469415,9.0834418,3.3199508,16.3187542,1.1325752-2.4200634,4.0127924-2.6299536,9.5669238-1.1343583,16.3188179-12.4599832,3.5088903-22.6563867-6.8189494-15.1843959-17.4513931ZM753.891476,438.5824769c-2.6073259.4634015-5.2129537.9265058-7.8200248,1.3898436,1.5074399-3.5149187,2.9576949-7.0682365,1.8259263-12.4160014,8.5109985.7404532,9.3638898,4.6232954,5.9940986,11.0261577ZM734.6123947,466.1829378c-1.2208361-11.1202135,3.8457802-17.8482912,16.7565775-19.0935381-3.1030133,8.0931072-1.2646906,19.635988-16.7565775,19.0935381ZM746.1600941,508.456718c11.4329899-11.7712172-7.113683,14.7727029,0,0h0ZM735.1418752,514.4478448c-11.4493345,4.9526923-12.6892747-4.6971645-24.1385668.2572684-1.3297294-7.7652386,9.7809533-6.8707215,5.0433094-17.0135274,10.4546483-5.1939769,11.0855927,3.7026694,20.2263892.4292901,1.7372833,6.9138967-3.320248,9.0920174-1.1311318,16.326969ZM624.7346396,618.6863067c8.0687813-9.4841819,2.8296338-6.8641624,4.3325099-20.9201223,2.605373-.4630406,5.2124654-.9263997,7.818072-1.3894828-.1403089,3.4517266,2.1659153,3.4196317,4.5895448,3.2187204-.3314347,7.7315092-9.9036652,9.0398421-4.3349298,20.9036079-2.6071136.4633378-5.2129537.9264846-7.8200673,1.3898436.1256624-3.448861-2.1803071-3.4168085-4.5851297-3.2025668ZM644.7778207,663.4743546c-.1063036,12.8723768,9.4736959,10.7770404,3.4686868,19.5166511-6.9191822,1.7551987-9.0952439-3.3009316-16.3158037-1.115891-1.2915-10.0354198,2.9829335-16.1557964,12.8471169-18.4007602ZM647.9049688,590.3854898c-10.4739859,5.1892221-11.1017887-3.699825-20.2273657-.437611,5.9824663-9.5081257,6.987214-22.4913911,23.8631283-24.3912714,3.0671613,11.2592276-6.6835863,13.5831762-3.6357626,24.8288824ZM577.5914186,602.882259c8.3928927-2.2287466,12.9968718.9859407,13.7962929,9.6310499-3.1943521,1.3063587-3.9424681-.8725898-4.5863608-3.200805-3.5237065,3.2320083-2.4403137,9.696301-10.3422951,9.8882546,2.4166459-4.0204128,2.6441756-9.5694498,1.132363-16.3184995ZM579.4205925,590.4741965c-.9798911-7.449639,16.8857211-2.0339061,13.7947646,9.6312409-8.7998523,2.7929327-6.3444888-10.5136375-13.7947646-9.6312409ZM581.2451178,578.0502139c6.2879407-14.2515009,11.4252846-26.1160097,32.3799853-21.872079,9.3280803,27.9525493-14.8024628,25.6668513-32.3799853,21.872079ZM550.862571,543.1668289c-12.7190134-.528037-6.9389443-9.5232604-7.3824988-18.837989-5.5866933,18.4702141-24.9996092,14.3133557-42.2638248,11.5444092-5.5704336-11.8719594,4.0017757-13.1802922,4.3481965-20.9228818-10.9837891-.8264428-6.1149425,9.4158317-9.6460148,13.8058662-11.671324-8.3768241,4.1051713-26.6182137,5.4810901-37.2398954-10.4874225,4.0934117-8.2678246,17.0444761-11.4751887,26.2137377-9.6574772,2.396438-13.2871265-3.8284804-17.7053501-8.9444914,3.9199041-17.7895567,13.5673835-31.5872081,28.9082844-41.3969237,11.2048446,7.5092438-4.5419332,8.3000469-.4228159,20.2167735,4.9296613-16.632507,15.6826518-5.3927868,24.1211396-.2525985-4.5740068,8.2150974-14.5755487,12.6320261-16.0629505,22.9964395,14.7761204-1.0849211,7.4084379-17.6388042,25.2710996-16.5761924,1.011986,6.7155751,4.6899474,9.6027122,9.8856649,10.3277972.1770312,4.6895016-6.5342136,4.5627142-11.0182402,5.9909358,9.575648,20.5785625,37.2674478,15.2238777,59.5304601,17.6199124-1.3655177,11.9648689-5.0504415,5.4390187-14.9273611,6.6859213,1.4420402,7.7452854,11.5476569,3.0800035,10.5955941,14.2340525-9.5013119-2.7217594-20.7139892-2.9921035-29.4172173-6.8547165.4529791-5.3772276,5.771451-7.3718642,5.7186389-13.1094585-9.8899952,1.07798-11.1541551,8.1726863-13.5387061,14.4993021ZM536.625568,553.7457599c3.013309,2.1053554-1.9280694-1.3443971,0,0h0ZM532.7161712,554.4405756c-8.390855,2.2301688-12.9962774-.9839454-13.7944886-9.6310711,4.3791876,3.5178267,14.6319906-1.3380079,13.7944886,9.6310711ZM496.9562057,625.2806345c-.1773284-4.6911998,6.5324942-4.5723936,11.0179642-5.9926552.1937367,4.6882917-6.5351476,4.5561339-11.0179642,5.9926552ZM499.5644868,685.2503825c3.3875581-13.9643028,12.4173386,13.4991182,0,0h0ZM481.3325219,628.0574136c-4.6894592.1770312-4.5547117-6.5356358-5.9937802-11.0344362,6.3889801-2.6112104,7.9165217,1.7408918,9.2096137,6.4284619-3.4514931-.1403514-3.4165114,2.1820477-3.2158335,4.6059743ZM473.2566933,605.3082022c2.6057763-18.2676471,17.3278746-4.2597658,24.1373144-.2554641-3.43379,12.3155139-19.4754712,2.3131017-24.1373144.2554641ZM327.8851139,490.1202961c4.2216638-6.503923,21.1309678-9.5092083,27.3352113-4.8582757.2917619,11.5979006-5.0677626,19.2643286-16.0629505,22.996482.7733759-12.5394562-12.0451273-5.5973067-11.2722608-18.1382063ZM317.9019969,592.6193733c-2.6071136.463359-5.2127202.9264633-7.8198126,1.3898224-2.218303-6.1131383,2.4929985-7.3767888,1.8271999-12.4075107,2.6073471-.4634015,5.1982647-.9238949,7.8038713-1.386978,2.234499,6.1117798-2.4914702,7.3780624-1.8112586,12.4046663ZM309.4787499,658.6009018c8.4918944.7371631,9.3462504,4.617925,5.9747185,11.021127-2.5891558.460175-5.1965241.9235765-7.8036165,1.3869355,1.5076946-3.5149823,2.9415413-7.0653709,1.828898-12.4080625ZM304.3468188,607.130053c-.5628489-3.8185887,4.2450132-3.8872149,7.1252092-5.3008112.564356,3.8183128-4.2440368,3.8854743-7.1252092,5.3008112ZM316.5212171,403.4913031c-5.6027407-5.0467693-12.98248-7.5477279-15.1993608-17.4402491,9.1229448-3.2784525,9.7538892,5.6182575,20.2264529.4295873,4.7388539,10.1510844-6.3583498,9.245678-5.0270921,17.0106618ZM315.6429173,443.9391145c1.509138-3.5067676,2.9415413-7.0653709,1.8288343-12.4098668,5.1017254.8478819,8.8973892,3.5764126,9.8842003,10.3281156-3.8929886.6918864-7.8021519,1.3866596-11.7130346,2.0817512ZM312.3560378,380.0557667c-.8809107-7.4505305,12.4244072-5.0037002,9.6312834-13.7947858,4.4154217.2073643,4.0341253,7.2912874,9.1922715,6.4248745,2.1713069,8.3442835-13.5295999,4.2244445-18.8235548,7.3699113ZM361.7303616,363.2216479c15.5771972-4.3331043,10.4302163,24.8304319-4.3320217,20.9200162-5.0450287-11.5053519,9.3935649-9.4158105,4.3320217-20.9200162ZM362.3529213,298.645034c1.7719466-16.2341231,7.2573458,14.629592,0,0h0ZM428.9229194,242.4892261c-1.2479851,9.3937347.0652511,20.5715152-2.9438975,28.7303829-6.5165105,1.1581747-13.0327662,2.316307-19.5331019,3.4715948-3.0932914-12.4264662,3.9759852-17.7573982-1.6424421-31.9412069,11.4316951-4.9579778,12.6715928,4.7003485,24.1194415-.2607708ZM415.1281124,232.8563719c-6.9851762,14.2026156-18.223644-10.9343732,0,0h0ZM405.5675778,315.1387604c18.142112,1.7939587,45.1020979-9.0568659,53.5574822,6.598467-14.6955223,12.8919479-26.0199586,33.3992309-55.8059909,26.035815.1366579-11.3129526,2.1283227-21.324004,2.2485087-32.634282ZM428.1332626,351.4198854c-2.5049492,9.7011194-14.060736,23.3795189-25.2532478,16.5812868,8.6542791-5.3676543,9.0166837-16.514465,25.2532478-16.5812868ZM430.0479167,407.488515c21.0936936,4.2022837,21.3624244,27.3954741,11.5474234,42.2720395-15.5554186,5.9294843-21.1233686-2.4257097-35.8500731,2.3474466-4.2971249-23.5348352,26.8403093-22.3213647,24.3026497-44.6194861ZM444.4429105,533.8720109c13.59916-4.7622458,13.9436491,9.4486695,15.8959383,21.3493912-6.9218355,1.7387055-9.099935-3.3172763-16.3187542-1.1325752-3.2766907-9.123242,5.6117833-9.7527429.4228159-20.216816ZM417.5455436,518.5026662c-7.0100115-16.2884636,4.8820921-19.3944062,6.8544618-29.4187031,10.2437392-.8534221-4.1626321,7.6670648,2.7768216,15.6239173,3.1467192-3.5106733,4.649659-8.1563629,5.736342-13.1125364,10.2294112,3.3142833,18.1596666,9.9213259,20.4838699,24.5678356-7.7256294-3.7086766-22.867211,8.1474052-35.8514953,2.3394866ZM424.9262594,537.3406977c-13.631085-1.5126192,2.9825302-8.4979865,1.811301-12.413157,11.7057963.1808945-4.9089227,7.1600423-1.811301,12.413157ZM372.8373508,425.7153643c13.7675519-5.0125518,16.7914106,5.3613712,19.1116657,16.7531387-9.1383979,10.1160178-11.3022755-7.1326173-23.4437299,4.166644.3464632-7.7423986,9.902243-9.0478021,4.3320642-20.9197827ZM398.0200197,340.6562391c-5.6999805-1.6345245-8.7627267-7.0585147-10.5807141-14.2369393,3.1572901-2.3473405,6.3670953-4.6721806,6.4154923-9.1988305,7.5640301-.8925854-2.2680373,13.8965894,4.1652218,23.4357698ZM375.0153654,324.5950079c-.6936482-3.9029227-1.3884214-7.812086-2.0817512-11.7130346,5.2129749-.9264846,10.4271597-1.8532026,15.6236838-2.7767792,3.0219058,10.0869371-6.3643358,11.5168144-13.5419326,14.4898138ZM392.4593504,490.7281033c.0967516-5.0840435,7.0719088-5.3146935,7.8198126-1.3898012-.7232383,5.9894924-3.5047298.2117157-7.8198126,1.3898012ZM410.4202283,523.8014396c-3.5160224,4.3806735,1.3530576,14.6229056-9.6295853,13.8029369-2.2301475-8.3993032.9857072-12.995025,9.6295853-13.8029369ZM390.3773445,479.0135828c-12.6507906-1.7105163,2.6288074-11.2222081,1.1323842-16.3169075,9.4116925-.5496458-2.6276187,11.2304654-1.1323842,16.3169075ZM381.6081861,452.3649299c3.0233705,10.0951306-6.3628712,11.5250504-13.5407015,14.4981134-.9264633-5.2126989-1.8518017-10.4192209-2.7768004-15.6236838,4.0192029,2.4083887,9.5667753,2.6277036,16.3175018,1.1255704ZM380.7460823,492.809897c-1.0062548,6.1456152-4.0358871,10.8728581-5.0435428,17.0120416-4.7732412,2.8413085-5.1614788-19.0763232,5.0435428-17.0120416ZM361.1243162,427.7971155c-.5643348-3.8183128,4.2466689-3.8792548,7.1263766-5.2927875.5628489,3.8185887-4.2464142,3.8792336-7.1263766,5.2927875ZM358.2528657,525.0145068c7.0199244-16.9621374,8.0066293,11.9310335,0,0h0ZM364.0799309,580.3964718c13.8481924-1.9693767,2.07256,5.4839133,10.5789311,14.2370455-3.9091633.6947732-7.8021307,1.3866808-11.7130346,2.0817512-1.7389814-6.9217931,3.3185074-9.1001473,1.1341036-16.3187967ZM372.6626333,651.3871982c11.418301-11.7686063-7.1102655,14.790597,0,0h0ZM374.570219,526.1406503c-.5643348-3.8183128,4.2449283-3.8789577,7.1248908-5.2925116.5643348,3.8182916-4.2449283,3.8789577-7.1248908,5.2925116ZM380.3070279,513.0380268c.8459078-5.1113836,3.582441-8.9084696,10.3261203-9.8938585-.8476696,5.1014495-3.566245,8.905604-10.3261203,9.8938585ZM387.9435474,556.0051579c3.3887255-13.9563215,12.4171051,13.4991395,0,0h0ZM385.5100475,632.9881787c3.3899142-13.9495926,12.4199708,13.5153355,0,0h0ZM391.2316156,619.8864679c6.9015852-12.7351033,14.6859491-5.0024266,29.8727436-13.3745383,5.7835078,28.7623079-18.0631485,27.7053849-29.8727436,13.3745383ZM403.2245039,460.6146057c5.8559336-11.2315055,26.6060508-2.507454,35.8483749-2.3468947-6.4632737,27.6515963-19.427244,9.2331117-35.8483749,2.3468947ZM387.0890215,415.1235698c-.271087-8.166573,9.1925899-9.5277605,8.9362342-17.705435-7.9981598,2.6925301-21.3405609,15.2546141-20.9209714-4.3387718,15.9837959,4.880585,40.2903937-2.1779085,53.5552322,6.5972995-6.5395627,21.5910367-22.1860229,20.6430494-41.570495,15.4469073ZM405.6565391,383.623349c-6.5165105,1.1581959-13.0165702,2.3134413-19.5330807,3.4716161-9.1671177-11.273025-11.0833426-18.3597713-10.1411078-34.463371,3.8929673-.6919076,7.8038713-1.386978,11.7130346-2.0817512,2.67211,15.7717193,14.3228016,18.6857295,17.9611539,33.0735062ZM399.591437,304.1096734c-11.4476364,4.9608221-12.6889775-4.6954664-24.1353191.2653346-1.3884214-7.8120436-2.7768216-15.6238749-4.1652218-23.4357274,12.2803411-4.5181168,18.6390306-.5660117,28.0286048-.955544,1.7315096,9.1847147-4.6778482,12.6927771.2719361,24.1259369ZM370.3403192,252.9010813c5.6024223,5.0450287,12.9824588,7.5461783,15.1846507,17.4513294-14.473639,7.6711191-13.2558171-7.1550328-15.1846507-17.4513294ZM366.1750974,229.4653114c-.5642923-3.8180581,4.244992-3.8772171,7.108907-5.2958442.5792147,3.8154047-4.2289021,3.8825238-7.108907,5.2958442ZM351.0554006,461.8279912c.6507277,5.5976463,1.3297294,11.1666152,5.9926552,11.017943-1.2850471,12.0492029-10.7405941-3.3292269-19.5331019,3.4716161,2.3859732-6.3186558,3.6487322-13.4197938,13.5404467-14.489559ZM343.1645633,394.7300198c6.1132019-2.226539,7.3785718,2.4929349,12.4063856,1.8209804-2.3874378,6.3088703-.4093581,15.6814419-13.540468,14.4980285-3.1039048-7.8765093.8479668-10.8250342,1.1340823-16.3190089ZM341.9432178,342.5638884c-3.3633596-13.7565989,1.9964833-21.4228146,16.0615283-23.004442-6.2027577,7.0794018-2.260523,21.2319223-16.0615283,23.004442ZM340.9051653,246.047978c-4.6891408.178793-4.5558792-6.543617-5.9761832-11.0293205,3.8929673-.6918864,7.8038713-1.386978,11.7132681-2.0817937-.4723167,5.3724516-5.7907886,7.3670881-5.7370849,13.1111142ZM335.5280439,351.7629099c-.7249152,5.9815748-3.5047298.2132653-7.8200673,1.3898436.0969851-5.084086,7.0706988-5.3229507,7.8200673-1.3898436ZM360.4233236,605.2121724c.5631036,3.8185251-4.2450132,3.8871936-7.1087796,5.2978819-.5790237-3.8157019,4.2290931-3.8828209,7.1087796-5.2978819ZM375.0018652,687.2387359c16.2817347,11.9108468-5.6062856,31.5573209-19.955939,23.6968803-2.9746763-14.6215895,17.9525783-12.5521923,19.955939-23.6968803ZM377.6174483,565.8905257c8.0739182,1.9748745,13.6137852,15.254232,8.0608425,22.7500817-8.7018483,1.0380737-4.5993304-16.2818621-8.0608425-22.7500817ZM387.5946643,644.7173881c2.6056065-.4630831,5.2127202-.9264421,7.8036378-1.3869143,3.3077242,8.0031057-4.2570488,8.4291905-10.3276062,9.8856225.1846304-3.2962618,3.2349376-4.5924104,2.5239684-8.4987082ZM407.3803647,665.3669329c.2827617,7.0329364-5.1395091,10.0951306-14.2323331,10.5965917-.2859457-7.0493235,5.1383204-10.1118786,14.2323331-10.5965917ZM417.1003547,720.0567992c8.1912173,3.7401983-7.9286846,19.312577-20.665762,19.7882688,2.7024855-9.5143027,17.9630218-10.2738812,20.665762-19.7882688ZM416.8443175,695.9177655c-2.7943337-8.7993428,10.5121941-6.3442553,9.6315381-13.7948283,13.5696335-.6740559,13.6189433,23.8609844-4.348706,20.922988-.1715759-4.6588077-2.0947844-6.8082299-5.2828322-7.1281597ZM426.8262246,593.4104311c-5.0774208-13.803043-1.0595127-21.2728687,2.9600298-28.7247578,9.5290128,1.0279697,12.7497285,11.1280462,22.2931968,12.15349,8.0820905-4.1580259-9.6979991-11.6704749-14.4893043-13.540468.8081666-8.554853,15.7497708,3.0047334,24.1385456-.2572896-2.0476398,16.8086255-13.2771075,27.2307969-34.9024679,30.3690254ZM449.9254865,496.6303537c11.5283405-17.328384,5.9126303-10.9126158-14.5074744-13.5372627,3.1651865-19.4667895,21.6407498-28.2354596,28.2150183-45.3063842,11.5073473,3.1277849,14.8088308,18.0102301,27.6072111,19.2679372-5.8526646,18.7222183-14.4940803,35.5056476-41.3147549,39.5757098ZM448.7041622,444.4729464c.4711705-5.3789257,5.791107-7.3653475,5.7368514-13.1111142,10.0099264-.1402665,2.9136918,15.0993191-5.7368514,13.1111142ZM483.3270523,571.2855413c9.1396715-3.2795987,9.7705946,5.6255807,20.2281723.4393091,1.809051,10.3679582,5.4408442,22.0353765.9473293,28.0300482-10.9191749,2.5804104-11.1755729-10.1132371-21.5983599-8.2440931-3.2769454-9.1231996,5.6118046-9.7527429.4228584-20.2252642ZM481.9372087,563.4654952c-1.4335283-12.4022464,3.9260174-20.0686744,16.0629293-22.9965244,1.3884426,7.8121285,2.7782863,15.6321533,4.165243,23.4358123-9.1249402,3.2772638-9.7556298-5.6280218-20.2281723-.4392879ZM465.1100735,514.0814284c7.5095622,2.3137597,9.0077472,13.2288166,18.3990196,12.8473717-3.3189956,10.656621-19.6617361-.7679843-18.3990196-12.8473717ZM477.7737487,540.0396808c-.9941767,6.1283154-4.0208586,10.8634971-5.0268374,17.0106194-8.355385,2.1565756-4.2276285-13.5459869-7.3824988-18.8380103,6.1132444-2.2263267,7.3797181,2.499409,12.4093362,1.8273909ZM475.1728545,661.3852801c-.8476484,5.1017042-3.5824198,8.9000001-10.3260991,9.885389.8478394-5.1019801,3.5635492-8.9135853,10.3260991-9.885389ZM608.7665516,528.8414164c2.7384648,12.187007-7.6445644,15.1960494-16.7563015,19.0952787,3.1030133-8.0931496,1.2646269-19.6377711,16.7563015-19.0952787ZM604.160832,525.62709c-6.3712982-23.4934217,15.3751821-23.0874386,29.1658712-17.2666566,1.7372621,6.9208166-3.320248,9.0904467-1.1340823,16.3174806-9.3913573.3896385-15.7500043-3.5622756-28.0317888.949176ZM618.564932,470.6925851c9.3700456,2.9079181,15.3060678,10.756217,26.218726,11.455554-2.4177497,4.012665-2.6276824,9.5667965-1.1323205,16.3186693,5.1509078-22.8599514,22.2214079-7.1627381,42.2652894-11.5377015,3.2787497,9.1246642-5.6115074,9.7529552-.4228371,20.2167311-24.9924346-1.7798642-46.1266713-9.0742931-70.5675497-11.632288-6.7723991-13.8474707,7.716226-12.8565416,3.6386919-24.8209648ZM663.3512606,450.6397034c12.456311,3.3936289,18.1707045,16.4454992,34.7338637,13.9766143,1.7372833,6.922345-3.3199508,9.0921448-1.1340611,16.3190089,3.1322638-3.5081473,4.6502321-8.154686,5.7206979-13.1079726,13.9129128,22.8415478-28.4862538,12.7772597-46.1750683,12.2390338-4.7854042-14.7494383,7.1064447-17.8553385,6.8545679-29.4266844ZM700.0799306,407.8546555c9.3494556-.3421118,16.9649394,1.8218507,24.8142147,3.6483925-.3461236,7.7341201-6.6645671,11.299983-4.3320005,20.9115467-13.0020723,5.5393788-16.054014-3.1486933-28.0303242.9558412-2.2899009-11.8640206,5.5313976-16.6570239,7.54811-25.5157805ZM676.1969341,432.2410023c-.4669039-15.9183962,2.9939077-32.8808521,19.2789963-27.60252-5.7234361,9.6837347.0326468,27.4005898-19.2789963,27.60252ZM711.4500044,313.1592161c10.1319166,4.2397277,7.6574278,8.4925736,7.3792723,18.8300927-13.7452638-1.2388789-3.2290578-6.9189062-7.3792723-18.8300927ZM724.2953807,294.7590078c-.2156215,4.4066126-7.284516,4.0244459-6.4137517,9.1985121-4.6911998.1773284-4.5724148-6.5324942-5.9940986-11.026179,6.1134779-2.2263267,7.3797393,2.499409,12.4078503,1.8276668ZM721.5185379,279.1350693c3.3905086-13.956364,12.4338743,13.4979295,0,0h0ZM733.5749154,369.6602774c5.0861874,20.5890273-15.0108035,13.414381-2.249103,32.6410745-11.9538947,4.0502152-16.2625882-2.8481223-24.8306442-3.6454633-1.1168674-12.1883443,5.3647675-19.0787855,6.8694054-29.4298472,9.1247067-3.2684759,9.755651,5.6282128,20.2103418.4342359ZM735.0517039,445.9550203c-5.0177523,5.6229911-1.7072262,17.0521177-12.8468622,18.4007177-9.3699182-5.3105543.6552278-28.1371373,12.8468622-18.4007177ZM710.9308402,446.2178501c1.7716282-16.2358637,7.2573033,14.6293585,0,0h0ZM711.1865378,470.3463978c3.9092058-.6947732,7.8036378-1.3869355,11.7130558-2.0817512,5.0453471,11.5070501-9.3776023,9.4132421-4.3322552,20.9203134-3.1943308,1.3063587-3.9573481-.8699577-4.6039578-3.2146661-2.6071136.463359-5.2129537.9264846-7.8200673,1.3898436-1.3311728-7.7731561,9.7823967-6.862443,5.0432244-17.0137397ZM711.4428722,494.4768984c1.2880825,10.0175468-2.9981531,16.1567091-12.8473717,18.3992743-1.2899929-10.0254644,2.9976861-16.1566242,12.8473717-18.3992743ZM699.9853442,520.6961763c.5005271,16.9297454-6.1302046,15.8771951-21.3607687,15.8792541-5.5868419-18.9755809,10.2963816-24.9969771,21.3607687-15.8792541ZM699.0343002,492.656576c-1.0074647,6.1388863-4.0355475,10.8660655-5.0430122,17.0049943-9.9395172-.7582837-5.573745-19.3642005,5.0430122-17.0049943ZM630.6371447,561.2216565c7.454691,1.6265008,1.8192186,7.0048746,2.0817512,11.7130346-7.4691889-1.6241659-1.8337165-7.0025397-2.0817512-11.7130346ZM650.8485691,561.662133c.4711705-5.3789257,5.7896424-7.3735411,5.7354292-13.119053,10.0101811-.138823,2.915114,15.1072791-5.7354292,13.119053ZM629.9420531,557.3107737c.3481189-7.7345234,6.665119-11.2998344,4.3322764-20.9200799,13.0005864-5.5391029,16.0540565,3.148948,28.0317888-.9476264-6.0105281,12.1188267-15.3905927,27.1479488-32.3640653,21.8677063ZM636.7983192,527.8935352c-2.3340738-9.6197785,3.9843698-13.1856414,4.3305146-20.9197615,11.6504157,2.9125243,21.8799966,7.8822617,37.2387704,5.4645969-2.2833206,7.5377938-7.3965933,13.0871067-8.2414186,21.6148319-10.0070608-3.6324512-23.3372777-2.5258788-33.3278665-6.1596673ZM691.7407628,542.2946848c-1.5504241,14.5225667-10.4806724,27.6521057-28.4690814,21.1769874,1.5371149-14.5050546,10.4817974-27.6371833,28.4690814-21.1769874ZM693.3836719,574.2355309c1.3898224,7.8200248,2.7797084,15.6401133,4.1666228,23.4437511-9.1234118,3.2769879-9.7543562-5.6282128-20.2283421-.4390119,3.5459946-8.9256208,2.71208-20.9107613,16.0617193-23.0047392ZM698.0613927,645.9372265c.4633803,2.6070924.9267605,5.2144395,1.3898436,7.8200461-2.5908964.4604934-5.19801.9238525-7.8036165,1.3869355-.4631043-2.6056065-.9265058-5.2129537-1.3898648-7.8200673,2.6056065-.4630831,5.2127414-.9264421,7.8036378-1.3869143ZM695.2123789,561.8277655c-6.7364834.4753309-1.4878264-18.8850912,8.9364677-17.7057322.2710233,8.166573-9.207576,9.5389045-8.9364677,17.7057322ZM699.5446341,540.9077068c-.9721433-15.6154266,13.946918-22.1689141,29.1641306-17.2663594-1.1326601,18.6289054-9.9062337,16.4021329-29.1641306,17.2663594ZM727.8482741,564.0942108c18.1630204-6.6546755-14.0881609,28.3924528.6919076,3.8929886.1895126-.3123306-.9535912-3.7976804-.6919076-3.8929886ZM723.1553761,492.3952321c-5.0450075-11.5068803,9.3935649-9.4173813,4.3485149-20.9227332,13.582412-4.7510805,13.9257337,9.4518748,15.8794027,21.3605352-9.1246218,3.2687306-9.7556085-5.6279793-20.2279176-.437802ZM749.2945654,254.0483666c10.0084618-.1384622,2.9281472,15.0967506-5.7215894,13.1017107.4559084-5.3695223,5.772661-7.3638404,5.7215894-13.1017107ZM744.962565,274.9683828c9.8158501-1.136672,3.4941377,13.0201575,2.7768004,15.6239385-12.1559735-.495836,2.2504615-9.0161318-2.7768004-15.6239385ZM743.3894495,311.5070521c11.7004896,1.9949762,1.8681675,16.7841935,4.1649034,23.434008-8.9848647-.0904472-6.73504-20.1819616-4.1649034-23.434008ZM741.483371,436.7533241c-3.9109039.6950916-7.8200673,1.3898648-11.7309712,2.0849352-9.7217306-6.7321744,1.8885877-16.0416813,3.6551639-24.8238729,8.7168556-1.048963,4.5983964,16.2753243,8.0758073,22.7389376ZM736.7903881,365.0625815c-4.0186085-2.4167096-9.5665205-2.636258-16.3168863-1.1323842-3.104202-7.8680398.8476271-10.8167769,1.1323205-16.3187118,7.4846844,2.3515858,14.864169,4.8510161,15.1845658,17.451096ZM734.1087261,236.5975042c-1.2484734,9.3953055.0665671,20.5730647-2.9588411,28.7343098-5.19801.9238312-10.4109637,1.850337-15.6237051,2.7767792,2.7352384-12.9297315-.5515987-30.0445743,18.5825462-31.511089ZM711.3612765,244.6747762c10.2386023.9671338-5.3956736,11.7055416-.4227947,20.216816-12.68902-2.6639801.0992139-15.3962178.4227947-20.216816ZM716.3082588,340.4944274c2.1568515,8.3568709-13.544586,4.2355885-18.8380315,7.3824988,2.1498042,5.0859539,10.367279,1.5017511,16.3155278,1.1244242-2.8080462,18.3290137-20.7353221.7590266-35.1388491,6.2452112-.6933086-3.9009486-1.3884002-7.8118525-2.0817512-11.7130346,10.6695057-12.8474778,27.4987423-3.1160253,39.7431041-3.0390995ZM701.8186998,326.9539807c.2318812,8.500937-18.3648657,4.1402591-17.012084-5.0350309,10.1428909-4.7374105,9.2471214,6.3663099,17.012084,5.0350309ZM667.4515709,224.2701882c-6.9849852,14.202276-18.2398401-10.9315501,0,0h0ZM667.7075657,248.3989483c10.8794171,4.0265049,18.8311116,12.238206,24.392545,23.8731473-5.9945868-4.4829865-17.6623023-.8529338-28.031428.949643-5.4996636-12.9505974,1.4081411-17.2609678,3.638883-24.8227903ZM690.2726774,284.6883941c-2.4180044,4.0126863-2.6279371,9.5667753-1.1325752,16.318733-14.5651051,1.2606151-22.2410851-7.3360122-27.5939231-19.2784656,12.0424315-2.5432635,19.5079057,1.4587245,28.7264984,2.9597326ZM688.7956342,208.3936936c5.1180912.8447191,8.9152197,3.571488,9.9017973,10.3231698-12.9508521,5.8189565-14.4648723-3.6260408-9.9017973-10.3231698ZM678.0319878,238.5069365c10.4722241-5.1904321,11.1031897,3.7062779,20.2278751.4375473,6.0882605,17.1005147-23.4966058,19.2674702-20.2278751-.4375473ZM663.0305454,176.7053612c3.3892562-13.9561517,12.418867,13.5090948,0,0h0ZM656.6008736,185.9066965c9.6018843-2.3290855,13.1839008,3.9862377,20.9210139,4.3405761,1.3281374,10.0607645-11.7032491,10.0800596-22.0553297,11.9784965-1.7372408-6.9221115,3.3199721-9.0919962,1.1343158-16.3190726ZM653.9108058,238.7680045c14.5450883.0139672,4.5033854,17.4977736.2563132,24.1305006-4.6856384,11.9234343.2369544-17.3884558-.2563132-24.1305006ZM651.9001218,295.5342729c10.7958686,7.4175654,25.9405705,8.5957145,28.9975854,27.0793864-8.8637024,12.1253433-17.7761202-3.3328779-28.7255856-2.9531948-4.9515673-11.433096,1.4595311-14.9414769-.2719998-24.1261916ZM629.9584614,194.6746874c-.2170224,4.4087352-7.3024102,4.0278846-6.4314124,9.2016961-9.2388854.5104612-10.8348197-8.8375298-6.6873435-14.9353423,5.378862.4693874,7.3732439,5.7879018,13.1187558,5.7336462ZM640.0258911,160.6441301c1.1602762,16.8530106-13.5928981,11.7942694-22.7469189,8.0771871-1.0409817-8.7182354,16.2820956-4.6080546,22.7469189-8.0771871ZM616.4168047,209.1660507c14.5462345.0203777,4.5045741,17.5044813.2558037,24.1290572-4.6854049,11.9233706.238419-17.3802622-.2558037-24.1290572ZM642.1815964,240.8526425c8.0599509,5.3065425-1.1386036,13.7040626,4.8585304,27.3367184-13.0766419.7746708-19.2417221-8.3609252-30.1134976-10.7651535,1.1692763-10.5850231,10.0642882-15.788913,25.2549672-16.571565ZM625.1709982,235.8173145c1.0823952-11.8976013,24.494858-23.6169827,24.1361257-.2637213-9.1864129,1.7233373-12.7010556-4.6781666-24.1361257.2637213ZM646.8823694,131.2252996c-5.3806026-.469069-7.3749845-5.7875834-13.1031542-5.7282334-.1387169-10.0099476,15.0882175-2.9284232,13.1031542,5.7282334ZM613.1137504,145.2855898c8.4384454-9.623854,27.14797-2.5955026,30.1297148,10.7625213-7.6453498-7.0357171-30.6037085,7.8818159-30.1297148-10.7625213ZM602.0943428,151.2700302c-8.7981541,2.8010626-6.34451-10.51368-13.7950618-9.6327905-.8517239-10.2342933,7.6603147,4.1720568,15.622198-2.7765244-1.5074611,3.5062157-2.9577161,7.0682578-1.8271362,12.4093149ZM602.5333547,131.0503698c-3.5129446-1.5077795-7.0653072-2.9498197-12.424301-1.8262659-.701863-10.9574255,12.1088076-10.6521634,12.424301,1.8262659ZM602.9562131,110.8251268c-9.6558003.2889599-22.2227452.8823966-33.7522107,14.0558113-2.336154-17.2901759,24.5848595-23.8461469,33.7522107-14.0558113ZM569.0207729,169.2396535c25.7087954-10.3246132,23.9179358,30.1459321,37.9332465,9.373548,3.2608343,9.1278695-5.6281704,9.755927-.4392879,20.2281298-15.0228178,1.9077979-26.6867549-.9869172-30.8068274-14.6747626,3.4970033,1.5106239,7.0653497,2.9500108,12.406704,1.8211715.3616192-15.2145167-21.2192499.9927121-19.0938352-16.7480868ZM567.4649785,205.781613c.4973643-4.9569377,9.8163808-5.0065234,11.7145205-2.0820059,5.0447315,7.8187512-12.6965555,11.5862259-11.7145205,2.0820059ZM561.63976,150.4013885c-11.4345607,4.941803-14.9330074-1.4610806-24.1211608.2610892-5.1397001-19.4161424,25.7260528-25.7296401,24.1211608-.2610892ZM560.0842203,186.943348c-6.9849215,14.2025307-18.2397764-10.9312953,0,0h0ZM527.8713957,164.461615c2.6073471-.4634015,5.2129537-.9264846,7.8203008-1.3898861.1712788,4.6586379,2.0931075,6.8002911,5.2970329,7.1156147.8522546,10.2357367-7.6762347-4.1676841-15.6221767,2.7765244.1689014-3.2921862,3.2175105-4.587783,2.5048431-8.502253ZM553.3095712,103.5313347c-10.0802082-.2581387-23.5319059,4.313512-25.510686-7.5570252,10.0807389.2581175,23.5319271-4.3134907,25.510686,7.5570252ZM532.6588589,123.3190304c8.2472984,5.4445589,1.5227656,15.574841-8.952685,17.7068148-2.9116752-10.0158487-1.5551364-17.0530517,8.952685-17.7068148ZM543.0722,181.9100364c-3.2382915,12.0355541-17.9053063.0745272-24.1370597.2554853,3.2382915-12.0355116,17.9070044-.0750366,24.1370597-.2554853ZM532.7310723,191.8048076c-9.7992083,26.1310807,24.1359134-15.5850511,30.8247428,14.6715785-23.2648944,9.5947097-32.7822325,9.5485627-47.1416927-15.8042175,6.9203497-1.7384508,9.0983855,3.3172975,16.3169499,1.1326389ZM503.1458452,229.29762c-7.5112391-2.3131866-9.0079382-13.2284982-18.4005054-12.8471382-.6232815-9.3159174,16.7488721-5.2966508,19.5166511-3.4686868-2.4180044,4.0127075-2.6279371,9.5668389-1.1161457,16.3158249ZM475.2826606,185.8996916c14.3321626-2.5641931,17.4017225,11.014759,26.8962206,15.3613635-4.7853193,8.1301479-30.3299894,4.5291334-26.8962206-15.3613635ZM475.0268569,161.7691061c2.2979458-9.2125855,22.6306811-3.4800006,28.0303242-.9558624,1.0764092,19.4330602-21.8813764,2.3392955-28.0303242.9558624ZM498.8919592,137.3774739c-1.6694425,9.7909511-17.7117182-.2046897-24.1372932.2657379,1.1727575-16.195172,15.8758366-2.1903261,24.1372932-.2657379ZM473.7106914,222.4445167c9.5922049,2.5916181,16.2979944,9.3189528,19.7874198,20.6592879-10.4560705,5.1860169-11.085338-3.711245-20.2117428-.4422172,2.4695642-5.1112987,3.2881531-11.3879679.424323-20.2170707ZM439.5194899,256.7215592c-7.3054032,2.896859-8.8679477-16.7772523,1.8112586-12.4046663.4619581,2.5991324.9249987,5.2044842,1.3884002,7.8118313-3.4503256-.1338772-3.4020559,2.1694814-3.1996588,4.592835ZM440.6359328,240.4074748c-11.8367654-8.6762064-1.2926675-21.0198032-6.2483952-35.1567645,12.0427499-2.5415017,19.5246536,1.457557,28.7415906,2.9506264,4.5872099,19.1701879-2.9143286,29.9067277-22.4931954,32.2061381ZM470.5098439,227.0394107c-3.531051,4.3900345,1.3365857,14.6240306-9.6459935,13.8058662-2.213718-8.4022325.9858771-12.9968505,9.6459935-13.8058662ZM468.8509935,195.1013241c-12.4817194-3.3487343-19.0199449-15.2284415-31.5016855-18.5772182,5.0947418-13.218373,19.3638184,1.2072298,31.2458818-5.5533248,2.219704,9.5327488,3.9336378,18.7138974.2558037,24.1305431ZM468.7787164,126.6138275c-3.5053666,18.8373735-25.5270519,3.6017998-35.8506462,2.3457485,4.3659845-19.5325288,25.3667474-11.9760767,35.8506462-2.3457485ZM433.1844046,153.0900766c11.9402883-4.0326607,12.1831862,8.6803244,21.6145772,8.241461,1.7618214,3.3669044-25.8208728,8.0408469-21.6145772-8.241461ZM508.9532332,284.6728561c-19.7754266-9.2396708-46.4918141-8.5494614-73.7821945-7.0283514-2.6806431-19.7877382,14.2173682-33.5713799,30.9920946-29.6824669,4.0962985,11.9862655-4.5920496,15.0379949.9476477,28.0317888,7.837452-4.7961025,3.2643792-18.2555054,7.5639876-25.5203867,19.9736422-2.4753591,36.1675405.4588802,52.8474682,2.6989406,9.9448664-5.3904943-9.9097998-7.9695037-13.7977363-9.6392222-.3895748-9.3911026,3.5623605-15.7582403-.9476477-28.0318525,10.9999215,2.2104491,15.9125589,13.1499167,26.8959871,15.3614696.7437646-10.116506-.8232376-14.7889838,21.3624669-15.8797635,3.5409214,23.0615844-7.397591,54.0421104,4.6909451,71.6908488,2.4804323-22.2040444,2.9737848-45.8113902,3.8207539-69.1776636,22.1051277-7.1754954,31.9948257,3.1749933,36.1073414,21.7898041-10.0295187,4.5544357-8.9849284-6.7321532-13.8141659-9.6363141-8.6937184,23.6796654,25.2384952,40.6179439,18.4894456,81.3314932,4.3557108-10.6441184,1.3144886-26.4593738.8783423-40.4475567,29.2167093-3.9637798,36.323345,26.0642588,33.8393678,54.4272913,6.5567989,8.572365,18.2500501,9.7896775,30.1294177,10.7607595-.0830816,14.6647435-9.5970871,14.1749784-18.8394537,7.3743052,7.1629079,29.9761604,27.5479672,14.9666093,52.4231451,22.9159688-5.7528352,10.8102391-3.697575,27.077858-18.5837773,31.51128-9.2500507-6.5707024.3717443-7.9685273,1.1343158-16.3190089-7.1586838,2.9868604-5.0905814,12.4137513-18.1448927,11.2837233,2.523374,6.0840788,6.764715,19.2434202-2.2505252,32.6331145-6.1471435-1.0062335-10.8811577-4.0262077-17.012084-5.0350734,7.7930032,19.862987,28.567234,21.1552088,51.7297517,19.0145533,8.2766125,32.7296326-45.4163813,10.4155911-36.54491-1.5634998-14.0187494,6.180045-12.331349,23.3256242-17.8891739,35.4122923-12.5666477.0461045-20.9800667-5.8692215-26.8976216-15.3693447-16.3505307,4.685511-5.5377231,42.2765184-26.3876698,32.8983005,10.0401321,12.6693428,1.0349958,14.5803035.9511501,28.0399187-30.860807,7.1737335-21.4745654-8.2830655-11.9866901-22.0524004-10.8010691,5.0021082-6.8321312,20.3150322-24.5587294,20.4889855-2.3502273-3.1734862-4.6739-6.3752464-9.1905733-6.4254264-.0419441-10.2875513,2.2747662-18.93075,7.5466453-25.5239952-2.675018-8.0413351-12.8431688,6.5202039-9.6298612,13.8027671-22.7479802-3.3589232-32.3617728-25.5307241-50.6133088-35.3286376,5.5268975-14.386397,19.9968218-22.5407009,25.6925145-36.7994613-13.7191124,6.3805318-16.3002445,20.5457035-27.0808935,28.98763-13.6484485-.0423474-16.9871426-14.8596264-27.5910363-19.270824,8.6467648-35.0169862,43.8933185-51.4620609,57.8005425-82.7989206-23.3121876,23.6299735-46.0598919,47.6586493-63.0995707,75.6821597-19.4789949-9.3260001,6.2539354-27.2702362,8.6822135-41.8345347-9.199807-5.08727-14.3491228,21.7567753-18.5839471,31.5031289-6.7910574-3.3344275-11.5947803-9.5153216-18.4005267-12.8471382,13.2286468-29.5338159,43.0937488-47.4671415,59.2053935-74.9885115-27.1289933,17.5528571-32.2857385,50.4402257-69.7860439,60.7518057-3.0063466-7.1382848-10.1679809-8.3166038-11.2901975-18.1350223,27.0453599-23.4705393,44.0117002-47.8027366,67.1282832-77.5364025-17.6989609,17.3877128-48.0408372,13.3357783-75.0188233,10.4401929-4.3794211-15.6008226,14.487776-14.9784539,15.3678589-26.9073859,12.0494364,1.2850046-3.3389276,10.733844,3.4701302,19.5248659,4.7874419-3.4984891,5.7950977-9.6376302,5.0271133-17.0091123,27.4747136-1.7685715,50.1895164,3.2532563,76.9977309,2.430889ZM405.6624402,202.2974094c10.4740496-5.1889462,11.1032534,3.708061,20.2281723.4392454,1.6816479,14.4399945-2.7082804,15.9339342,4.8596766,27.3431926-11.3853358-4.9353288-22.301454-10.5368172-25.0878489-27.782438ZM427.373302,97.7054795c.5645895,3.8182703-4.2435273,3.8853894-7.1232351,5.3004504-.5645682-3.8182703,4.2435273-3.8869177,7.1232351-5.3004504ZM414.7836232,140.2429172c11.4565092-1.3141702,12.709143,16.8907731-1.132554,16.3187967-1.7387692-6.922069,3.3202268-9.091975,1.132554-16.3187967ZM406.965063,141.6325061c1.7852345-16.2446304,7.2723106,14.6285519,0,0h0ZM403.3266683,166.4552752c12.6367809,4.2211331,27.4537628,10.7444361,21.175544,28.4695908-10.4725425,5.1886915-11.101534-3.7084218-20.2281723-.4392879-5.5376807-12.9926264,3.1504127-16.0443134-.9473717-28.030303ZM400.892574,243.4450885c-2.4180044,4.0126863-2.6279371,9.5667753-1.1323205,16.3187118-13.9761685,5.3113397-9.708188-15.5066394-19.0952999-16.7563015,1.6752799-11.2422674,14.3913216,1.5488321,20.2276204.4375897ZM378.5818014,231.2864829c-3.13912-7.1483676,9.0610264-18.9482833-6.6862397-14.9291016,1.5073974-3.5064492,2.958268-7.0665596,1.8276881-12.4075956,12.3798946,3.5127535,23.0067345,9.5182933,25.0861083,27.7740535-10.4722029,5.1891372-11.1029562-3.7078699-20.2275567-.4373562ZM395.7785583,191.9710556c-6.1149213,2.2183667-7.3800365-2.5011496-12.4257232-1.8242281.2155578-4.4168863,7.3026861-4.0276724,6.4316671-9.2016961,4.6908814-.179069,4.5561976,6.5353811,5.9940561,11.0259243ZM388.8368545,152.9133426c.5628064,3.8183128-4.2467538,3.8774718-7.1267375,5.2907922-.5643135-3.8180581,4.2452467-3.8772171,7.1267375-5.2907922ZM392.3070059,172.4382085c-15.8469469-1.3404702-15.7229614,4.892939-28.046499.9602776-.0667157-5.8172796,30.5382451-14.7974957,28.046499-.9602776ZM364.603489,266.0121742c-.7234506,5.9810653-3.5029892.2129044-7.8038925,1.386978.0793456-5.0894351,7.0559675-5.3205733,7.8038925-1.386978ZM358.1879967,275.2110048c3.2950943.1766067,4.5909458,3.2251733,8.4972435,2.5142041.4633378,2.6071136.9264421,5.2127202,1.388379,7.8118525-6.0813406-4.148856-15.4422162-2.5675894-14.9274035,6.6856666-13.907224-3.5286948,4.6832185-12.210123,5.041781-17.0117232ZM335.7911496,194.5739876c7.873304-3.1118224,10.8218501.8400492,16.3158037,1.1261435,2.4823852,6.674098-20.645915,10.8584026-16.3158037-1.1261435ZM332.3195548,175.0408857c6.1146454-2.2183667,7.3800365,2.5011496,12.4242798,1.8262871,2.8886017,7.3066131-16.7874836,8.8682024-12.4242798-1.8262871ZM321.8985933,297.7763499c-.5628489-3.8185675,4.2452892-3.8856865,7.1252941-5.299007.5643348,3.8183128-4.2437821,3.8854318-7.1252941,5.299007ZM319.561378,261.9260009c-.463359-2.6071136-.9252959-5.206246-1.3884002-7.8118525,3.4500709.1323913,3.4147708-2.1817293,3.2155364-4.5975049,7.3054032-2.8967953,8.8668015,16.7708418-1.8271362,12.4093574ZM318.3398202,209.758617c7.3054456-2.8966467,8.8682449,16.7789929-1.8110038,12.4148551-.4634015-2.6073047-.9252959-5.2061823-1.388379-7.8117888,3.4485426.1239006,3.4003154-2.1792245,3.1993828-4.6030663ZM323.2869935,305.5882024c-.4942864,11.0477666-8.006502,17.2114458-20.6492264,19.7874198,4.3317882-8.3785222,5.6474018-18.8670485,20.6492264-19.7874198ZM308.1024065,288.1371065c-6.4617454,13.4528439-25.8166274-.0606449,0,0h0ZM302.111492,277.1188451c-.5643348-3.8183128,4.2437821-3.8854318,7.1249757-5.3007476.5628489,3.8185675-4.2464779,3.8789789-7.1249757,5.3007476ZM304.0334481,151.8679457c.5643348,3.8182491-4.2449283,3.8789577-7.1264191,5.2925328-.5628064-3.8183128,4.2464779-3.8789789,7.1264191-5.2925328ZM304.5435485,200.1275884c.1788143,4.6909451-6.5353811,4.5562188-11.0194076,5.9844404-.1773284-4.6911998,6.5353598-4.5562188,11.0194076-5.9844404ZM290.8360259,258.9727424c7.0037072-16.9608214,7.990688,11.9338566,0,0h0ZM267.4810026,331.6240174c-1.6143591-10.5671927,5.5957359-20.3672076,13.5404467-14.4995781,3.0231158,10.0951943-6.3626589,11.5262603-13.5404467,14.4995781ZM266.1650918,392.2994492c9.2887471-16.5543501,15.2669256,9.5172957,0,0h0ZM284.1409771,425.361875c-3.3076818-8.0028722,4.2573247-8.4289995,10.326375-9.8939009-.8461625,5.1114473-3.5812735,8.9164721-10.326375,9.8939009ZM280.3205204,494.5412792c7.0040043-16.9593143,7.9904121,11.9336656,0,0h0ZM290.0466237,367.9048876c-14.9726802-.5774529-6.0988739-15.4998893-4.1652218-23.4357698,11.2868861,1.699436-3.2957735,13.1860235,4.1652218,23.4357698ZM281.6275159,252.5505c.5646319,3.8185251-4.2447373,3.8771322-7.1088221,5.2962899-.57896-3.8154047,4.2291144-3.8827785,7.1088221-5.2962899ZM275.9071153,265.6586849c-.4705974,5.3720907-5.789048,7.3667697-5.7365755,13.102581-10.009884.1405212-2.9295694-15.0946916,5.7365755-13.102581ZM239.8735156,312.3546368c-6.0142852-11.0559813,7.4804178-8.4696912,14.2355384-10.5886741.2812334,7.0329364-5.1412496,10.0954278-14.2355384,10.5886741ZM249.8402243,572.4915824c11.4347305-11.7715356-7.1102443,14.7820639,0,0h0ZM194.3921167,328.4966146c-1.6991176-12.6018417,5.7984303-18.76291,20.6672054-19.7903703.9252959,5.2062248,1.850337,10.4109637,2.7767792,15.6236838-7.8200461,1.3898436-15.6239385,2.7768216-23.4439846,4.1666864ZM207.3279827,378.5807401c-.4635076,9.567879-18.0612593,5.6693503-8.514883-2.5195532,3.2938631.1768189,4.5892052,3.2254705,8.514883,2.5195532ZM211.3157276,265.046972c.1701537,4.6508902,2.1095795,6.7976377,5.2975848,7.117334-5.498305,1.8049542-7.4653044,8.6385501-22.037669,11.9753337-1.2208786-11.1119988,3.8290535-17.8471025,16.7400843-19.0926678ZM228.7595427,431.1806193c-10.0189902,1.2885919-16.1581525-2.9976649-18.4007602-12.8470957,9.3136885-.2702804,18.7584099-.7266558,18.4007602,12.8470957ZM227.209904,286.3966392c1.6263522-5.6982612,7.0522952-8.7528987,14.2355384-10.5871458,6.0128418,11.046217-7.4798659,8.469861-14.2355384,10.5871458ZM243.4401851,219.0460693c4.658362-.171491,6.7921188-2.1001336,7.1250393-5.2989857,10.0962769-1.4014547,8.2877141,14.2582298,18.3987224,12.8456735-3.9138332,9.9830958-25.494766,4.235822-25.5237617-7.5466878ZM266.3556657,166.6229454c15.2399464,7.7023012-18.4129868,13.0035582,0,0h0ZM258.1130373,188.2295625c-11.4044824,11.4793067-13.7069495,13.7420161-33.7683431,14.0605025,6.4984253-10.3939398,19.0200085-18.6282686,33.7683431-14.0605025ZM226.4278676,214.0110596c.0890463,14.8876246-19.8135711,15.8176328-36.9844313,18.6562243,10.816501-11.1028076,16.8719025-22.3276478,36.9844313-18.6562243ZM202.5627864,238.3942012c-2.4937203,14.8463597-10.9204272,12.54973-25.9647478,12.673291-1.429007-11.2714755,15.0227966-10.0318324,25.9647478-12.673291ZM174.6919177,376.3222548c-.6948157-3.9093968-1.3895464-7.8183055-2.0831946-11.7212494,5.1982647-.9238737,10.4109637-1.850337,15.6239173-2.7768216-2.3859307,6.3188681-3.6486473,13.4215769-13.5407227,14.498071ZM170.176709,441.5925169c-4.7356911-15.8497913-5.1093246-28.6538179,10.7621817-30.1214576,11.8052649,9.9612534,2.0721567,26.7825725-10.7621817,30.1214576ZM180.8519247,342.9861099c-.4616397-2.5973918-.9250412-5.2047389-1.3884002-7.8118313,2.605373-.4630619,5.2127202-.9264633,7.8183267-1.3895464.463359,2.6070924.9267605,5.2144395,1.388379,7.8118313-2.6056065.4631043-5.2129537.9265058-7.8183055,1.3895464ZM165.6669981,325.5433136c4.6548171-10.4337824,10.9585505-19.7121284,14.6731069-30.816528,5.1046335.8555235,8.8990874,3.5758819,9.8870871,10.3357997-12.1864764,4.0260591-11.1211475,17.3132281-24.560194,20.4807283ZM182.5903754,262.0937136c-4.1924557,9.6147902-7.0945577,20.1317815-24.5598968,20.4824689.7892111-11.9865415,9.2490106-18.6291177,24.5598968-20.4824689ZM152.9886976,299.5879269c3.0135425,2.1053129-1.9281119-1.3446518,0,0h0ZM134.3248529,443.9300082c-4.6877398.1867318-4.5544782-6.5356782-5.9908933-11.0182614,6.3875154-2.6194252,7.9150783,1.7329106,9.2084462,6.4219877-3.4500284-.1321366-3.4167873,2.1805618-3.2175529,4.5962737ZM134.2364434,375.4471178c-11.1743206-9.1886417,2.9061138-19.3552641-.9476477-28.0318525,18.547989,2.7943549-4.0262926,14.5278521.9476477,28.0318525ZM153.683768,303.4988308c-2.9097436,9.3698333-10.7589128,15.298044-11.4590139,26.2108509-7.4625873-3.2402443-3.4345754-27.260854,11.4590139-26.2108509ZM146.6456947,377.2739993c9.3913148-.3811902,10.9056959,10.5310222,18.3990408,12.8474141-2.368355,6.3224554-3.6324937,13.4171617-13.5389821,14.4977738-6.4891916-4.2240412-9.4962599-21.1433218-4.8600587-27.3451879ZM152.032262,452.8759218c20.2296369,4.1424243-1.4764276,19.1815442-2.9603694,28.7330362-10.9283024-4.5733276,3.6045381-20.0351573,2.9603694-28.7330362ZM173.5522315,573.9586914c-6.0059856-1.136863-.9442726-23.2038462-1.6441402-31.9406338,22.7184114,3.7489013,7.6775932,20.6876044,1.6441402,31.9406338ZM163.1389329,515.3678977c-8.9972612-8.7378489,8.8828277-27.8769184,8.680388-41.8347257,5.3804116.4708733,7.3738807,5.7813639,13.1029631,5.7300801-4.4492996,13.9886499-17.3195962,22.1133849-21.7833512,36.1046456ZM200.9838124,456.25881c-.4709158,5.378862-5.7910858,7.3653263-5.7207403,13.1077179-4.4154004-.2071095-4.0344013-7.2927732-9.2082128-6.4220301.265377-5.5151803,9.1982362-4.9788861,14.9289531-6.6856878ZM189.7822791,506.6081852c10.1189258-4.6843648.4745243,18.9090138,10.5948511,14.2326303-4.5913915,14.4738937-19.6993075-7.3360122-10.5948511-14.2326303ZM193.5951578,618.746803c-7.6124483-20.1419067,1.8444572-28.371884,4.7712884-41.1397615,8.2803909-3.6926291,6.8889765,6.4734414,13.1176096,5.7272569.5450609,16.3480047-5.2182179,28.290161-17.888898,35.4125045ZM205.8437649,483.603446c.8462262-5.1096642,3.5809551-8.9081724,10.3244009-9.8935188-.8461837,5.1099189-3.565969,8.9058163-10.3244009,9.8935188ZM223.9805703,653.6463415c-16.2013914-5.9244323-3.9607656-26.1682275-3.0322645-39.7609982,17.3650002-.1682433,7.3011578,26.9680732,3.0322645,39.7609982ZM221.8104308,573.440355c-1.1567101-6.5082533-2.3134201-13.0165277-3.4715524-19.5328047,15.2144106,5.2638979,8.6292952,3.7211791,23.4419893-4.1663256-5.107393,8.9897044-7.2617185,20.022018-19.9704369,23.6991303ZM245.8526281,686.0248198c-5.3323117-21.9725029,2.2901131-34.903041,7.2909265-49.6613096,9.3921851-.3748859,10.8906673,10.540362,18.3987224,12.8456735-6.3071084,13.860419-7.7358183,31.0995869-25.6896489,36.8156361ZM270.5062198,552.6944408c6.7406439-4.4113461,13.1443765-9.0666515,22.0374355-11.9752488-3.5869835,11.1790754-6.0330921,23.1562346-19.2594464,27.605704-.9264846-5.2129537-1.8515257-10.4176926-2.7779891-15.6304552ZM289.5037068,682.2841969c-2.6056065.4630831-5.2129749.9264633-7.8021307,1.3866596-2.2345627-6.1120345,2.4912155-7.3780411,1.8112161-12.404921,8.5106801.7489864,9.3624252,4.6151018,5.9909146,11.0182614ZM298.6249323,620.2300019c-7.8747687,3.1036076-10.823612-.8485187-16.3172683-1.1343795-2.4661891-6.677006,20.6474009-10.8501666,16.3172683,1.1343795ZM295.5053621,511.9923327c6.1132656-2.2262843,7.3783808,2.4932108,12.4061521,1.8194733,2.9051162,7.3057428-16.7692923,8.8665255-12.4061521-1.8194733ZM304.2669637,719.9605146c-1.3315125-7.7649626,9.7642478-6.8677497,5.0267949-17.0108741,2.6076018-.4634652,5.2129537-.9264633,7.8200461-1.3898436-.1402877,3.4517266,2.1805618,3.4167873,4.5880589,3.2189963-2.3448145,7.466302-4.8377494,14.8448526-17.4348999,15.1817214ZM325.8653661,728.20482c15.2560787,7.6991596-18.395411,13.0084403,0,0h0ZM367.965299,761.0223739c-14.1206379.6243216-36.4865364,13.0591723-37.2385157-5.4646182,18.9390497-7.4657077,30.9124305-8.7241152,36.9812898-18.6723778,5.1019377.8475847,8.9166844,3.5794692,9.9046841,10.3393446-10.9854448-.8343392-6.1147091,9.4157681-9.6474582,13.7976514ZM413.7174241,769.0080948c-.6532961,15.5098447-17.1804972,19.9396157-36.2896581,22.5653664-6.5989552-21.9117094,23.9582242-34.014616,36.2896581-22.5653664ZM404.3433666,806.9398979c-.356079-9.3803618,16.3613988-6.8264849,17.4320343-15.1978962,11.5297203-5.0493802,7.1621013,12.6299247,20.9229243,4.34843-.1561016,17.5703267-27.770827,17.8228403-38.3549586,10.8494662ZM438.8837059,683.9521536c-.5628277-3.8185887,4.2450344-3.8872149,7.1249757-5.3007688.564356,3.8182916-4.2437821,3.885453-7.1249757,5.3007688ZM448.7855244,694.2753234c3.3875581-13.9643452,12.4171051,13.4991182,0,0h0ZM458.0720851,587.8571275c9.4293532-.5443179-2.6261753,11.2384254-1.1340611,16.3190089-12.6473306-1.7027049,2.6457463-11.2252223,1.1340611-16.3190089ZM462.8372177,728.0433693c-12.5412605-3.5898704,1.8598254-16.5619705,13.5375811-14.5056914,3.6042197,10.4921773-13.9050801,6.2589661-13.5375811,14.5056914ZM470.4725909,771.0040475c-7.4544363-1.6265645-1.8189639-7.0049171-2.0817512-11.7130134,7.4691252,1.6223616,1.8339712,7.0024548,2.0817512,11.7130134ZM466.3948871,816.0446514c7.8745139-3.1035652,10.8232936.848264,16.3172683,1.1344007,2.465892,6.6767513-20.6447263,10.8666174-16.3172683-1.1344007ZM481.5868822,652.1782561c-8.5394211-12.8117531,12.8525085-4.7105161,9.6474582-13.7976514,8.4626227-.2584783-1.6901599,14.2854425-9.6474582,13.7976514ZM494.698336,839.2314525c1.9374729-9.1166405,19.683727-15.8112223,20.2116791.4404129-5.1138671-2.4839559-11.3761234-3.3069176-20.2116791-.4404129ZM504.9327992,760.845003c-.3338545-9.3506443,1.8380255-16.9677413,3.6565861-24.8156581,18.8731618,1.7613544,11.7170465,20.2634512-3.6565861,24.8156581ZM512.5076549,554.0164861c7.428391,2.3195122,16.5852987,6.0527269,10.5806504,14.2367483-5.7034405-1.643928-8.7656772-7.0664535-10.5806504-14.2367483ZM540.7922544,577.1897445c7.0480499,4.5998398,6.9873201,19.3831136,9.4639528,30.5507902-3.8254025,5.3204672-13.0269076,6.873672-22.7489567,8.0758498.7810812-17.1895822,24.9027515-25.6570234-4.1663256-23.4420105,6.0676493-4.8829836,3.8409193-15.5693858,17.4513294-15.1846294ZM545.2129404,624.7541046c23.7949904,1.1318323-10.8665962,20.9650169,0,0h0ZM531.9444085,663.37807c-16.8714567-15.872037,16.9106413-19.2369885,0,0h0ZM542.5251226,677.6150305c.8476484-5.101683,3.5794905-8.9164297,10.3229363-9.901776-.8447615,5.117879-3.5645681,8.9137763-10.3229363,9.901776ZM553.8150441,695.7585647c-3.7009288-8.2791597,6.4651629-6.8874906,5.719212-13.1164421,10.0096717-.140224,2.9310341,15.1029276-5.719212,13.1164421ZM561.4591627,557.399162c-15.7878941-3.0298022-5.5958845,12.0618116-18.1461027,11.2754873-16.0433157-16.0025391,27.1074906-25.1474112,37.6627538-14.7441529.2917406,11.6063701-5.0695032,19.2645833-16.0450563,23.0017674-8.6487602-6.1354688-2.1750853-9.7456107-3.4715948-19.5331019ZM568.9124527,644.7250085c-3.1056454-7.8762121.8461837-10.8249917,1.1323205-16.3187118,3.5149399,1.5074399,7.0653709,2.9415413,12.4051969,1.8127232-2.3830651,6.3248328-3.6472251,13.4195179-13.5375174,14.5059886ZM579.5092992,658.9588275c3.5866651-11.1808159,6.0312879-23.1576992,19.2594252-27.6072323-7.5739642,8.3956522-5.0405286,23.8494158-19.2594252,27.6072323ZM607.7049374,613.6474549c.4709158-5.3804328,5.7893664-7.3750482,5.7382948-13.1044278,10.0099264-.1387381,2.9266826,15.0885359-5.7382948,13.1044278ZM610.755181,653.4055239c-.463359-2.6071136-.9268242-5.2146942-1.3898648-7.8200673,2.6056065-.4630831,5.1965241-.9235765,7.8038713-1.386978.4630619,2.605373.9265058,5.2129537,1.3898648,7.8200673-2.6073471.4634015-5.1982647.9238737-7.8038713,1.386978ZM604.4183126,549.7640647c3.8331078-7.5833676,5.342352-16.8031914,16.7563227-19.0937503,11.1869929,7.5041918-4.5422304,8.298561-.4373138,20.2278114-7.8765093,3.103926-10.8252889-.8479031-16.3190089-1.1340611ZM622.2832031,695.6725539c1.0414487-14.8099346,11.1152465-4.4351201,22.7494661-8.0759347,1.0401327,8.7163886-16.2650081,4.6117692-22.7494661,8.0759347ZM644.5930841,707.8246217c3.406365-13.9525219,12.4362092,13.5127034,0,0h0ZM648.1533432,795.8405503c-.1773072-4.6896715,6.5325579-4.5706318,11.0180067-5.9908721.1932485,4.6868271-6.5356358,4.5547117-11.0180067,5.9908721ZM657.0969643,596.8188975c5.5903018-6.3709161-2.6149888-22.3748137,2.9586288-28.7427368,6.1309263,1.0088444,10.8663839,4.0370334,17.0137609,5.0429697-.3188685,12.3194408-5.1300631,21.5033065-19.9723898,23.6997671ZM674.8026328,605.7551105c3.5149187,1.5058903,7.0653709,2.9415413,12.4240038,1.8245253,5.9339844,16.6861895-9.8082509,18.2382056-10.7636676,30.1132429-10.1598935-4.0300922-1.6538833-23.6923165-1.6603363-31.9377682ZM677.2285336,710.089857c-3.0052004-10.0898876,3.1417521-13.7896702,13.5393217-14.506031,3.0262361,10.102836-6.3626164,11.5264726-13.5393217,14.506031ZM699.0254699,673.9660861c-2.6056278.4631043-5.2126989.9264633-7.8200673,1.3898648.1256624-3.4488822-2.177399-3.4004215-4.6010073-3.1979606-2.8886442-7.3068678,16.7871652-8.8699643,12.4210746,1.8080958ZM705.0979377,572.1535674c-9.762019-6.4949016-1.6500837-15.6425969-.2540419-24.1206302,6.1146666-2.2183242,7.3779987,2.4911943,12.4075531,1.8274546-.7846261,9.6973835-2.0122972,19.1142129-12.1535112,22.2931756ZM718.9118064,581.7981599c2.5894105-.4602175,5.1964817-.9235765,7.8041048-1.3870205.4633803,2.6073471.9239161,5.1982647,1.3869992,7.8038713-2.6076231.4634439-5.2147367.926803-7.8041472,1.3870205-.4630831-2.6056065-.9235765-5.1965241-1.3869568-7.8038713ZM723.0755635,605.225715c-2.4823427-6.6738857,20.6313959-10.8475982,16.3170136,1.1328724-6.9203497,1.738472-9.0982157-3.3175734-16.3170136-1.1328724ZM729.5794441,664.5200486c1.6277956-5.7005537,7.0502575-8.7630451,14.2340737-10.5969101,6.012863,11.0477666-7.4784437,8.4778423-14.2340737,10.5969101ZM746.2484823,576.9396083c-2.9130762-10.0238087-1.5563888-17.0530304,8.9365526-17.7039279-.3094862,7.7612267,1.5744316,17.0665307-8.9365526,17.7039279ZM741.3873835,549.5882222c-5.5690114-11.865273,4.0034526-13.1720987,4.3334015-20.903332,11.2203826-3.0114623,14.7837195,4.9459634,21.6148743,8.2414186-5.6303567,1.5243576-8.7554459,10.7865925-25.9482758,12.6619134ZM777.1504481,478.7730199c-6.4464409,20.5500125-23.1621781,8.879389,0,0h0ZM770.2008479,621.032883c-2.1727716-8.3522859,13.5462416-4.2274162,18.8383287-7.3807582,2.1580827,8.3551091-13.5445435,4.227119-18.8383287,7.3807582ZM786.431129,553.6823131c-1.4166318-12.1265744,19.5857655-11.9407129,20.2249883.4213725-8.835301,2.8664835-15.1142203,2.0467483-20.2249883-.4213725ZM790.0845523,528.8487396c-3.1053482-7.8744715.8300514-10.820343,1.1161882-16.3140419,9.9134932.5163623,20.7018263-.2206947,22.3096263,12.1505819-7.80385,1.386978-15.6221767,2.7765244-23.4258145,4.16346ZM799.8177878,220.8946445c.4711493-5.3789257,5.7912981-7.3654112,5.7206979-13.1079726,7.4678304-.8773022,5.0128277,12.4294804,13.8123404,9.6363778.976983,8.8118242-10.7552618-3.3181678-19.5330382,3.4715948ZM820.2850159,608.0988212c.3839497-1.166156,7.1103717-8.7080041,11.0199595-5.9929948,3.1819344,2.2233125-13.4885898,13.4982267-11.0199595,5.9929948ZM829.406199,546.0443927c-.5789812-3.8154472,4.2288809-3.884328,7.1088433-5.2978819.5642923,3.8183128-4.2432302,3.88713-7.1088433,5.2978819ZM828.1038945,244.0678393c-12.6493684-1.7040846,2.645152-11.2184298,1.1325752-16.318733,5.7028674,1.6421874,8.763979,7.0582812,10.5969101,14.2340737-6.5453152,2.016203-11.3083039-4.8602073-11.7294854,2.0846593ZM844.3350671,539.3566459c5.7260045.95011,15.7286926,33.520648,1.6442252,31.942438.6881717-9.7791278,2.4433704-18.8145759-1.6442252-31.942438ZM865.6791728,523.4804061c1.7883973-16.2370312,7.2740725,14.628191,0,0h0ZM859.7816985,399.6125789c7.019606-16.9636445,7.9900937,11.9336868,0,0h0ZM858.2258616,436.1545808c6.6756475-2.4723661,10.8493388,20.641139-1.1323205,16.3187118-1.7389814-6.9217931,3.3188046-9.0899372,1.1323205-16.3187118ZM854.4054686,505.333985c1.7704395-16.2338472,7.2560722,14.6313751,0,0h0ZM852.2274328,606.4543626c-8.356595,2.1585921-4.2432726-13.5414019-7.382244-18.837798,7.4195182,2.3546425,12.524088,11.8901295,7.382244,18.837798ZM849.0253754,248.4080758c-.1241766,3.4570969,2.1800311,3.4153227,4.6041276,3.214093-.2160885,4.4154429-7.3011578,4.0276724-6.4318794,9.2019933-4.5645185.0489914-2.8574196-3.5332586-.6936057-3.9026892.1406061-3.460005-2.1638139-3.4179548-4.5875283-3.2175529-.564547-3.8180156,4.2450132-3.8771746,7.1088858-5.2958442Z"/>
    <path d="M627.5175746,452.9839873c-.0284439-4.8635823,3.894623-3.1766914,7.8036165-1.3869355-18.4529143-11.2057149-41.7379954-41.3904496-59.1090452-37.844646,16.660123,12.746587,42.9054674,30.0670534,51.3054286,39.2315815Z"/>
  </g>
</svg>