<?xml version="1.0" encoding="UTF-8"?>
<svg id="bilberry" xmlns="http://www.w3.org/2000/svg" version="1.1" viewBox="0 0 1001.5539948 1000">
  <!-- Generator: Adobe Illustrator 30.0.0, SVG Export Plug-In . SVG Version: 2.1.1 Build 123)  -->
  <g id="outline">
    <path d="M505.4619999,609.5837732c-2.1213753-1.8894133-3.7655638-5.815083-6.7110958-4.0863465,2.1150929,1.8933478,3.7603179,5.8202019,6.7110958,4.0863465Z"/>
    <path d="M622.499989,287.519816c-17.7389136,7.0140044-31.1293125-4.9376634-48.7443128,1.5770494,10.5529156,17.1711928,40.7883728,6.8537293,48.7443128-1.5770494Z"/>
    <path d="M504.3964682,663.6676744c.5014914-.1540349,1.0057537-.3200212,1.5157062-.5109678-.5410049.1574617-1.0441038.3286939-1.5157062.5109678Z"/>
    <path d="M1001.5539717,0c-59.1332094,74.5469613-145.6448263,164.8518523-223.2637078,218.7890799-32.4778479-35.9239194-183.3422203-131.1563416-272.9622249-131.257156-112.5814469-.1267478-197.1150624,63.4277209-219.406933,79.6206163-97.8462566,71.094819-151.4091002,192.1920791-143.5101036,293.0774055,6.6338668,84.7992317,52.2287767,218.894421,120.6674768,284.8346754C212.8811148,824.6106948,87.8677885,939.7944689,0,959.8289091c.6577896,18.1017905,3.8574729,21.1189882,8.618214,40.1710909,131.3806885-30.6885721,222.5509631-143.3752543,291.3623973-215.9339551,154.443474,150.6913423,537.9476532,80.5590829,609.2259307-158.4195086,34.8167166-116.7215639-2.6858175-261.8951474-104.4443117-377.8711163,46.0690929-33.015426,196.8598535-205.4256085,196.7917414-247.77542ZM22.7379838,982.8630748c-3.7295406-5.0970712-.3036489-8.5618206-4.4998633-13.7699865,41.090943-16.3177183,92.2086671-38.7583778,143.4991253-81.7262539-33.0267005,52.6219444-74.7481882,64.4800109-138.999262,95.4962404ZM789.2386317,315.5184669c-7.4532006,2.8885885-10.3952635-13.8977284-16.026063-18.948623-2.0506402,2.0790908-1.0900478,4.8485677-4.0800853,6.7071614,4.3524915,9.6132221,26.9493435,36.5620369,17.5417904,34.5732475-8.0845281-12.8870038-16.16821-25.7726961-24.251892-38.6583884,14.2156767-11.3801817,25.1844781,3.6579594,26.8162499,16.3266024ZM626.8742891,235.050722c-9.0733595,3.7874359-2.1812378-13.2338468,5.1884303-11.5513716.7427394.1764146-6.4160772,12.0692776-5.1884303,11.5513716ZM691.7631208,318.6640412c-11.8100707,4.0869811-8.6567545,11.6017576-18.9577822,16.0249207-9.6075532-21.0534145-30.1756794,5.7612701-39.4616672-16.6729378,8.4505144-6.2302496,16.993509,4.6319839,19.7088135-8.2167756-26.2368738-4.0442101-54.2977564-.1658805-79.6502303-8.0543218-2.7666848,2.7649291,1.6979167,7.1816406-2.2186572,9.6714136,13.5672366,11.18437,33.0727713-3.5489588,46.5256768,8.1112653-9.6841264,17.4225942-37.8516828-8.2745017-47.9745613,9.3905886,13.5048569,11.4065805,31.2661713,4.2940039,47.629199,3.2698472,7.9589014,7.7548823-4.5788268,10.83061,3.3738768,18.5890883-9.0564161-1.197483-18.8269096.6829192-26.0525269-8.5092346-12.9557716,23.9937217,28.6728552,17.1338368,26.4642456,28.9740292-7.9134228,8.6059031-10.2259563-7.2425819-17.4885275-1.4553995-1.1075412,18.3651221,23.6467729,19.7652281,29.7873556,14.4626994.1307034,5.9717831,4.8672668,12.9991138-6.2991655,16.3783211,6.874438,14.5061262,20.8376767-1.9940141,27.9342617,11.4953166-8.4171352,7.3213127-14.2956978-5.3299639-16.7374962,6.3527668,18.0651326,14.9060417,29.329841,28.5881169,48.5518221,29.6202483,1.1042202-.1243998,2.1765419-.1093601,3.2148498.0563511-1.0973244.0207721-2.1671923-.0001058-3.2148498-.0563511-3.2500904.3661132-6.7786579,1.9507777-10.5473735,4.540794,14.8737624,18.5075018,31.3800793,3.0777795,42.4517259,14.814323-16.7862112,13.987501-24.1975715-12.9451741-42.040134,5.6502601-68.1885256-38.0736394-150.9437167-128.5552412-129.4784778-212.9906019,49.8512617-28.4920831,104.2398061,9.0327038,144.4796225,58.5533891ZM678.2353131,244.2587404c-.9861239,6.5720371-6.6869181,12.0527149-14.1055973,17.1451748-6.8164157-9.0101337,6.2387953-18.9872481,14.1055973-17.1451748ZM668.5087541,208.9318598c4.466061-.997483,8.4885683-.0297409,11.5411971,5.1861035-4.4713069,1.0026231-8.4938142.034881-11.5411971-5.1861035ZM685.7049495,256.16567c2.9370285-1.7423588,4.5811959,2.1832896,6.7031635,4.0736548-2.945405,1.7289268-4.5960029-2.1929988-6.7031635-4.0736548ZM688.5978955,432.5267152c-5.468388,5.3694774-8.3280606-.6945533-11.5413029-5.186315,4.472428-1.0012059,8.4927989-.0339714,11.5413029,5.186315ZM676.6510505,406.8719885c8.6729787-4.9350828,13.6715623,9.0936028,4.4850351,13.7602985-5.159874-5.4290014-2.9029725-9.1551576-4.4850351-13.7602985ZM658.7517984,384.950906c6.893687-3.025955,9.4899223,13.690748,1.514014,15.6243919-7.2514872-6.7480709,2.1527661-9.6969028-1.514014-15.6243919ZM666.9767178,404.6617713c1.3918775,4.5553895-2.3026551,7.952344-.3532946,12.6482306-8.1627512,3.4356854-7.4079759-11.4208163.3532946-12.6482306ZM663.2944539,431.8250123c1.2680277-15.0593574,16.7822133,10.7853006,0,0h0ZM643.8280307,361.1618803c5.1658391,5.4270977,2.9089164,9.1532538,4.4908099,13.7585216-8.6649407,4.9474572-13.6712873-9.0935393-4.4908099-13.7585216ZM642.6725995,332.8867195c2.8571343,8.2893086,7.0465163,16.8910023-2.5784457,22.3231979-2.5623907-8.2240733-4.6853525-16.3506321,2.5784457-22.3231979ZM650.5916278,398.3652499c-24.4966303-1.4600743,4.8082081-30.7028926,0,0h0ZM633.3958978,351.1326877c-11.6126937,4.2669071-7.6010801-7.7099326-9.3288223-14.8705049,10.296374-2.9527662,4.225786,10.68529,9.3288223,14.8705049ZM622.5523634,320.6366698c1.9849818-1.2452673,3.9623909-2.4857751,5.9472035-3.7309155,1.2452673,1.985003,2.4896884,3.9686733,3.7348288,5.9534648-1.9847915,1.2451403-3.9622006,2.4856482-5.9472035,3.7309155-1.2451403-1.9848126-2.4895827-3.9684618-3.7348288-5.9534648ZM625.2297198,364.5349321c4.6187633-1.5990695,7.1434808,5.9043479,10.4311176,10.0301022-7.4063048,3.4996727-11.8099015-3.6520154-10.4311176-10.0301022ZM708.7171162,444.7755591c5.0276899-4.8064313,12.8381619,10.8145338,2.623882,10.7821488-3.8534539-4.2765951-.4033845-6.8796839-2.623882-10.7821488ZM709.414652,419.4675697c-.5629192-6.8641154-.5247172-15.6216631,8.1674472-13.4027733.5512428,5.2190596-2.8895616,9.5185844-8.1674472,13.4027733ZM710.9303371,435.0925115c-12.5722285,1.8506825,6.9590705-14.6687492,0,0h0ZM697.9267178,447.3971989c-3.9510953,13.793593,2.4400216-14.1435243,0,0h0ZM709.551384,274.3553505c4.0560134.7929985,6.8750937,7.0343745,11.541324,5.186315-3.737494,10.1680821-13.8207533,18.9730545-23.7939755,14.926856-2.7975044-8.2767862,7.0817992-13.6664857,12.2526515-20.113171ZM780.9495134,474.0414552c-4.8261034,43.0403457-60.9146163,14.7923875-85.9413789,8.3363949,20.9423198-13.4918267,56.6818499,4.4369124,85.9413789-8.3363949ZM725.4558605,438.4238923c-4.1728193-16.9587549,12.2479132-13.1985638,0,0h0ZM726.2054323,446.232672c13.9678078,1.0172609-2.9225177,18.5766293,0,0h0ZM733.3143917,470.7734906c-3.2582554,2.6689375-2.5263251-.5733264-4.8302494-1.0999473-22.8807231-5.2397259,17.2659574-9.0445071,4.8302494,1.0999473ZM748.9426968,469.2657378c-5.4733378,5.3725657-8.3268549-.6950821-11.541324-5.1862938,4.4734857-1.0021366,8.4875318-.0309677,11.541324,5.1862938ZM738.8641335,446.5862628c13.9593889,1.0067268-2.9228984,18.5784907,0,0h0ZM750.0530936,464.4218449c6.4668017-2.2698259,11.4881458,1.7300056,18.5992628-3.3715712,5.6374415-11.2099649-15.9064649,3.7556432-18.247322-9.2758556,1.1936544-3.9706194,4.7108205-7.4081874,10.026612-10.4392191-5.3594509-9.9413449-15.1453013-.5823375-22.3318071-2.5643368-5.2767434-19.2170313,12.5322919-5.8400856,17.0908966-19.000807-9.0761729-4.8456063-21.6484859,5.5538666-30.1468057-1.8108306-4.6079331-6.1482189-3.4977055-10.9920061,3.3216293-14.5275752-2.964781-9.270102-9.7528097-1.8915921-14.5182891-3.3203179,1.4771869-19.1875865-17.0825201-42.9542325,5.4831104-57.3125427,36.681085,32.8692176,58.1947005,84.2045833,65.7063675,124.546864-13.2154861,5.8128196-25.9934893,9.7143538-34.9836548-2.923808ZM729.6044386,253.4788372c11.2413768-2.1449184,6.6746495,17.8012722,0,0h0ZM774.4264452,357.9601452c11.663122-2.6287471,2.4680279,10.2895628-5.1823594,11.5475641-2.0155688-4.7045592,8.2221907-6.6084411,5.1823594-11.5475641ZM766.9646142,346.0657169c.7438605.1756954-6.4147658,12.0684526-5.1824017,11.5475852-9.0793881,3.7912222-2.1872875-13.2300604,5.1824017-11.5475852ZM677.373589,170.2209066c-6.6595463,1.1424433-3.8214708-5.1392288-5.5939724-8.917019,6.6598425-1.1444952,3.8147653,5.1259871,5.5939724,8.917019ZM655.3864673,154.9949707c-2.9369862,1.74238-4.5812805-2.18348-6.6970503-4.078245,2.9454897-1.7284191,4.5898474,2.1971024,6.6970503,4.078245ZM631.951667,157.2698944c-8.7324816,1.0770811-12.8586167-17.9848576-19.7617167-24.9013051,17.4204577.1494659,21.6954241,8.6977275,19.7617167,24.9013051ZM599.1870924,144.6749267c-11.3198962,4.9757174-16.552282-16.6967347-24.5959217-25.9987775,16.0312454-4.8307359,17.0293207,12.8885479,24.5959217,25.9987775ZM748.2037014,250.1072872c-15.3936779,10.3477543-48.3197543-43.8440476-56.2591317-43.4512607-17.4799183.8841038,20.9821294,31.0822263,33.932909,40.8818684-13.5934872-4.7087263-46.2709544-16.0773375-39.8801125-37.1509529-4.1838399-7.6762572-10.4532646-6.2727456-15.2762374-11.1394625-5.5710639,2.9735383-3.9891704,7.5788061-10.0265908,10.4392191-13.2517632-22.0374231-60.530904-37.9880762-98.2404397-4.6712858,52.7346467-65.0179698,135.7932118-9.2767652,185.7496031,45.0918744ZM567.1814815,139.8981728c-10.5471409,1.559408-16.9852805-14.8051849-24.605102-26.0104539,15.8466658-10.5141001,19.1541016,16.6498177,24.605102,26.0104539ZM533.3068909,132.1312757c-10.297199,2.9514548-4.2326607-10.682794-9.3288223-14.8704837,7.4350515-3.6024966,9.9102079,11.9936773,9.3288223,14.8704837ZM549.4513674,217.3219405c-93.6214225,131.6926294,113.9019548,331.3692153,237.9095273,306.5699302-105.5357979,63.205595-278.2743993-107.7921282-285.7860029-230.9591718-1.6544477-27.2045948,11.1909273-62.6473295,47.8764756-75.6107584ZM764.6054387,712.2132564c-16.2352645-.1178213,7.1378119-10.5142271,0,0h0ZM742.168206,643.4140697c.5864411,14.2670569-25.399137-6.2567541-7.4619579-11.8946186,6.3203818,3.7582873-2.6736335,15.5217372,7.4619579,11.8946186ZM747.8146585,685.4481541c3.4974094,7.4161409-3.6542788,11.8197376-10.0276273,10.4379922-1.6069384-4.6069601,5.8996097-7.1405195,10.0276273-10.4379922ZM742.1088511,610.3000081c5.6821162-2.5683135,9.9934443.8634586,13.4092461,8.1633858-8.3837137,7.1986263-15.3204891-.8089266-13.4092461-8.1633858ZM719.5943259,719.7272926c10.8010595,2.784432,9.5306203,17.1545666-2.5643156,22.3318071-2.8642205-8.2867068-7.0548928-16.8878717,2.5643156-22.3318071ZM718.4328662,691.4538663c2.9446858-1.7300902,4.5888955,2.1955794,6.7048134,4.0902387-2.945532,1.7287364-4.5896993-2.1969332-6.7048134-4.0902387ZM713.5875983,690.3442734c-9.7043274,2.4291913-5.7680391-14.7596429,2.2211321-9.6708425,1.2939611,3.6894982-4.6430468,5.7272775-2.2211321,9.6708425ZM706.0211877,612.216349c5.9746176-.1396087,12.2137303-1.4567533,16.3799499,6.2997155-2.9709154,1.8637972-5.9471612,3.7309155-8.9181189,5.5947127-2.4818619-3.9561509-4.9714234-7.9246338-7.461831-11.8944282ZM693.6463152,777.4513849c-4.2012064,1.6065576-6.7131476-4.0348605-3.7269599-5.9409846,5.1396307-1.4044635,1.3291171,2.7902702,3.7269599,5.9409846ZM700.2913084,748.4107454c10.134576-3.6261878,1.1494449,8.1485365,7.4696575,11.9069296-3.3769651-.0742887-6.7791445-.080973-10.7859987,2.6173246-11.2617259-7.6717517,8.966982-8.1374102,3.3163411-14.5242542ZM719.3717135,587.2671327c2.9447282-1.7300479,4.5951568,2.1916873,6.7122169,4.0856273-2.945532,1.7287364-4.5974413-2.1923642-6.7122169-4.0856273ZM624.3824642,746.3060385c-.1410471-5.9634489-1.4596512-12.2188069,6.3004982-16.3791461,5.820625,7.2746284-1.3945217,11.5661151-6.3004982,16.3791461ZM626.6558437,769.7518384c-3.7231524-5.1007941-.2895611-8.5532748-4.4844217-13.7622868,8.9550094-4.8753049,16.0282629,9.638669,4.4844217,13.7622868ZM619.4948695,712.092643c-.9345533-12.0941321-5.7564896-25.0871327,7.7478596-33.8800903,2.9723538,5.5720581,7.5807734,3.9948182,10.4380134,10.0276061-12.1427625,6.5539937-4.3056168,17.6897333-18.185873,23.8524842ZM613.7107755,815.1697625c-9.2258926,3.2082925-15.1934452-7.7849617-25.3016013-.7012587-1.4053731-4.5659659,2.2942151-7.9658184.3453623-12.6604781,9.1903347-3.0338239,16.6510657,1.4248125,25.3016225.701301,1.3989849,4.5696888-2.2953573,7.9665376-.3453835,12.6604358ZM580.0776021,728.5238673c-37.1403553,18.2578561-27.0915752-34.5838239-1.9262193-36.0899479,10.853582,14.3697962-10.9536772,21.2562278,1.9262193,36.0899479ZM552.5489037,737.4974067c7.5107363.6164782,12.5737515,11.857855,21.2233775,7.4089066-1.2990589,6.7337082-8.2848031,16.1578028-15.9739213,14.1699442-10.1439044-9.1155171,2.0732314-13.1039261-5.2494562-21.5788508ZM516.0058197,685.8438813c-6.2033855,2.4359602-27.0039813-16.2259361-11.6093515-22.1762068-10.4490975,3.2093078-19.0763861-1.5345746-26.4046581-11.9975906-1.1495507,10.6522916,6.2051412,8.3334123,13.0559303,20.8116376-32.439942,26.4389257-46.8965494,36.5870395-72.8182672,62.2746166-3.0844003-10.8973472-2.8662723-21.0332347-3.0363411-31.2620677,6.9384676-4.3527876,13.8782678-8.7063791,20.8116376-13.0559091-18.5792311-4.6334857-29.8393493,27.1159009-47.2243549,17.1974223,3.5093819,8.7261358-19.8880203,27.1476302-25.6550229,11.9467815-3.1812591,2.6708413.8892651,6.9961302,2.6309893,10.7935291-25.3473126,6.4426875-38.5398267-4.3864629-56.2121301-10.3295205,14.3429321-6.2836605,39.9238143-26.8171806,62.4461026-39.1747713-19.1042232,5.4426873-55.2205064,26.3956258-65.0641464,28.3905918-3.9214814-6.1575473-19.4887606-15.0062003-31.6614332-17.4361531,21.2716059-24.135911,54.2225158-32.1941884,72.4737087-49.612827-37.6025235,19.6595485-76.020933,42.8683732-101.5553847,9.8526088,8.1525979-7.2554428,11.7078603-14.4775276,25.6476828-11.958056,1.0576416-15.5021073,25.3172756-18.4793685,49.7957356-39.5180395-21.884615,3.9666638-52.1109131,32.6568009-66.1809525,33.2213488-13.5015359-11.4429845-27.5652929-20.459866-40.9754485-32.2969489,17.5404154,4.9122166,34.5607885,12.1413876,53.2218387,12.1877123-9.4045283-10.8103879-23.7866566.1010894-31.6550662-17.4398972,26.2118289-17.859654,36.1778803-31.2444685,58.7198196-45.1146348-18.3177397,1.3732842-36.7820686,21.8262755-44.6057823,27.9829132-12.1336245-6.3342581-25.4660434-7.4286845-36.4983245-18.5496594,9.2505568-17.1176126,26.1990949-14.2772525,38.305411-11.6035556-4.1653101-7.7570822-10.4106628-6.4360244-16.3855977-6.2964791,19.9413889-30.2476413,79.3916158-64.9804658,118.1908608-82.4246358,2.5287789-10.454428,1.3624117-21.762394,14.4586381-29.7937861,4.6127771,10.7657765,4.8751991,17.6493737,13.0560572,20.811828,1.4989955,7.9794196-.716383,15.1189872-12.2398752,20.1225841,12.0055018,13.2087384,19.9191573-21.8027959,27.1629237,3.6653206,1.9040934-8.8988275-11.8859883-21.3937212,3.6822851-27.1632621,9.8305887,12.4305468,12.4674373,23.2198876,17.5461902,34.5689112-3.3001804,4.3476263-17.5504207,6.1717832-13.003154,12.3062527,10.2152741,12.3582887,24.5510565-17.9812405,26.0590843,8.5053848,8.8273944-5.6050988-4.9850246-16.4148732-2.2700374-23.4291314,9.014597,1.2411213,3.6133904-2.6379275,11.8934764-7.4612387,5.0172404,8.7904827,13.841483,18.4472374,11.9529158,25.6509192-4.3816612,2.3951141-8.7323124,4.7874149-7.0563523,8.5742796-3.7883454,1.7030569-5.9119206-3.8452254-8.5727778-7.0657442-9.7647399,12.8026251,14.6334663,19.7374756,19.4163333,37.561762,5.3203182-6.4231423-9.3065695-17.4142388-11.9466757-25.6548325,4.5476475-3.2070867,12.233487-5.6856488,10.0265908-10.4392191,8.7266223-1.0733793,12.8587647,17.9842442,19.760786,24.9019185-8.1174419,10.0148933-17.4467084,19.7628378-22.2731714,30.5485826,10.0922703,2.4192283,17.9343447-20.1033561,29.7351082-18.653964,3.8494137,13.3663904,19.5088981,13.6261472,10.0850784,22.6735099,10.9141425-3.2037657,17.4264228,12.8604993,26.8170537,16.3279351,3.970429-.5518563-9.5092983-16.5290562-14.1727152-15.9809017,4.5443054-19.0708017,22.4681794-2.2575149,29.0371493,6.6558657-16.325291,7.2906623-10.8873419,19.5759949-28.970814,26.4693858-4.7549876-12.6467076-12.5489392-11.9391665-17.9070363-21.9331185,9.3840735,25.8985131,41.174264,49.9117377,60.3980642,69.8568918-1.8851193,4.6548078-5.5136974,8.9218841-12.9975485,12.3009011-19.1612513-12.6976648-36.5648925-33.0747174-54.0454877-53.1171534,7.8100066,25.3492798,38.8421007,45.2367501,56.6634469,63.9016925-3.7574623,1.6836597-4.8837449,3.9752519-4.079493,6.7081132-11.4177069-2.1957698-23.6083171-4.1427823-15.9734982,14.1681039ZM452.4494473,729.862757c3.5521529,10.4346078,9.837146,8.9212495,14.1648041,15.9686965-11.7957291,4.0434063-9.0697213,13.4284105-17.8403203,11.1918792,3.6695934-8.4902817-5.9540359-20.0406168,3.6755162-27.1605757ZM473.3204185,749.9208884c.5618827,6.8629097.5308726,15.6175595-8.1681452,13.4016733-8.6035128-7.0620847,3.3229408-9.4196949,8.1681452-13.4016733ZM470.6938078,739.1230442c-9.0218524-1.371042-16.655254-8.8242849-23.8462018-18.1898286,6.1111803-7.9311277,11.8404039-15.95922,23.0368521-22.7311725,11.6629316,7.2351572,9.0584468,30.0810204.8093497,40.9210011ZM440.9588901,757.7768813c-7.3138246-1.4309468-13.5149045-7.6742477-19.0024358-17.079601,10.2931165-4.4353683,7.1398003-11.9501237,18.9439271-16.033128,4.7895936,12.1376647-2.1700903,21.5783855.0585087,33.112729ZM438.7465153,767.4612404c-10.7093408,8.489901-8.5394197,9.8929261-19.7076924,8.2160987-9.5358662-12.3632385-6.8559715-21.9352337,1.8083768-30.1368639,4.8096042,12.3430164,13.0894575,9.5781719,17.8993156,21.9207652ZM416.473217,798.0096538c1.6066846,4.2013756-4.0337394,6.7123861-5.9472035,3.7308943-1.3971023-5.1443266,2.7976314-1.3337707,5.9472035-3.7308943ZM408.1954578,745.1811732c-3.9697944,2.4904076-7.9323969,4.9762885-11.8946186,7.4619156-5.9242316-11.204994-14.4808063-10.8790711-20.8702521-20.0569468-.2320889-7.6276269,27.4351183-8.6798534,27.8681168-21.6300407,9.7706838-2.353295,3.5125125,12.33134,6.3526822,16.7378135-3.7815342,1.7143525-5.9058709-3.8490541-8.5660935-7.054639-5.8969867,6.2962676,11.9449201,18.0192521,7.1101651,24.5418973ZM378.4540884,763.8390293c-2.5615446-8.2227407-4.6853525-16.3506321,2.570598-22.3356992,3.2023274,4.5678273,5.6862199,12.248717,10.4406364,10.0431535,4.5396729,6.1215452-9.7025929,7.9584149-13.0112344,12.2925457ZM337.125303,744.1898668c-4.4723223,1.0014174-8.4954219.0184453-11.5411971-5.1861246,4.4650246-.9986675,8.487553-.0309677,11.5411971,5.1861246ZM200.6490451,572.8859563c16.9192414-7.1917939,28.4351608,9.2577276,44.6581567,5.1339406,1.9909469,8.0920796-15.9504839,11.6259776-21.9200672,17.9004367-8.4416513-3.9280387-16.4616844-9.655422-22.7380895-23.0343772ZM222.8697786,509.2208371c6.6399377,14.0106422,5.1942685,10.349235,10.0798536,22.6786501-12.3091084,9.2726615-20.2492472-.5330302-29.0374454-6.6538351,13.3549044,3.1040724,10.750483-10.4548934,18.9575918-16.024815ZM215.7009566,451.5491404c-12.5722919,1.8509998,6.9592185-14.6685588,0,0h0ZM294.4738732,385.5579923c4.7858073,10.436152-12.1811337,15.8863697-13.3556659,24.9524315-4.6118464,1.6121843-7.1375792-5.89246-10.4320483-10.0295099,5.838753-9.6836399,12.330515-19.3035887,23.7877142-14.9229216ZM275.0602475,348.0119468c13.9677231,1.0170705-2.9175045,18.5732237,0,0h0ZM290.746871,379.6170288c-13.9115835,3.9217563,9.5863157-10.8193567,0,0h0ZM330.561727,383.6415245c-2.1302383-2.1873298-.5989636-3.5364998,1.1081758-4.8440833,1.9851722-1.2453942,3.9637236-2.4866001,5.9473939-3.7310424,2.0976841,8.1270876,6.8852259,16.8596115,7.1163629,24.5551813-6.9225184.5493814-13.8008696.9519409-18.2520179-9.2728942,3.9684618-2.4895615,7.9320161-4.9760347,11.8944071-7.4618098-1.8933054-2.8420312-5.0859237-.0293601-7.8143218.7546485ZM359.1417001,336.710369c-7.9205936,1.1910949-14.5804784-3.0948498-20.1213783-12.2493305,8.1780024-.9812165,21.9409873,2.9632157,20.1213783,12.2493305ZM333.4263282,315.5439984c-4.2670763-4.3712964-1.2039769-7.0683671,2.2123748-9.6843591,1.0422424,2.8701221,2.923533,2.0784562,4.8452467,1.1095507,1.7011954,3.7879435-3.8500059,5.9043479-7.0576215,8.5748084ZM363.737005,416.7021964c2.2371236-8.7725663-7.1579705-6.0486948-11.1966597-17.847893,5.1501225-5.6069391,3.865934-12.693688,14.1153699-17.1325465,12.8404252,14.825957,7.8434492,25.5647003-2.9187102,34.9804396ZM367.3524048,356.4124347c2.9455531-1.7287153,4.5961087,2.1932103,6.712238,4.0856485-2.944707,1.7300479-4.5973144-2.1921738-6.712238-4.0856485ZM390.0380142,346.3297889c8.2618946-3.4128192,2.47247,10.2852265-5.1893399,11.5503774-2.0152515-4.7044958,8.222233-6.6084622,5.1893399-11.5503774ZM413.772656,298.2888924c1.6879114,3.763787,3.9705559,4.878774,6.6981714,4.077547-1.9669808,8.3165112-8.0804033,4.4283667-15.9739213,14.1699442-1.6252779-7.1593455,2.9599582-12.902128,9.2757499-18.2474912ZM413.6618997,232.0594999c-13.9114778,3.9219467,9.5862523-10.8190605,0,0h0ZM435.6244418,458.626709c-4.0730626,5.8599058-7.7710431,11.8057344-14.1148411,17.1337945,1.8899633-8.0489702-8.5804562-18.9315526-13.8119748-28.6163771,5.9462728-3.7303232,11.8934764-7.4612387,17.8407011-11.1921542-1.6977264,6.3930206,5.1590701,14.7547566,10.0861149,22.6747368ZM401.9324424,338.8679791c-5.7273833-5.2435969,10.9918369-21.9359953,14.864434-9.3250148-9.1689069-2.0209839-4.2706089,5.1399691-14.864434,9.3250148ZM416.8556179,362.6560741c6.8542582,9.2056282,5.4461564,16.5310234-2.5656059,22.3323147-7.622381-9.3817044-9.7311492-17.5015788,2.5656059-22.3323147ZM402.7486879,379.8020738c6.9551783,11.7722283-6.1007097,18.9682528-16.3267928,26.8163345-8.1645704-12.0597376,9.0789862-18.2912352,16.3267928-26.8163345ZM384.908008,390.9942068c-6.2661037,1.2324063-6.1461671-5.671561-.7647172-7.8164582-3.0756642-1.4098786-6.1329677-2.8814389-8.5641051-7.0540255,5.0112753.32844,10.4261467-1.0778003,16.7314254-6.3489593,9.5391661-.0997991-15.9867399,13.1146294-7.4026031,21.219443ZM375.6314332,409.2403654c11.8303352,9.962117,26.0644571,29.090391,10.4903244,43.1439735-6.2165637-9.9094253-12.4332332-19.8190621-18.6576446-29.7409886,5.2848026-3.8731894,8.7180343-8.1851733,8.1673203-13.4029848ZM390.1490031,412.5595621c7.9128728-4.8966904,16.4761318-12.6292353,21.5753395-5.2385625,6.1558339,10.7401816-8.025554,16.8380145-13.3556448,24.9524315-7.8487163-7.7392081-3.7580546-12.7504622-8.2196947-19.713869ZM415.1073997,425.9217643c8.249076-1.9549871-5.358626,12.0619798-11.1440103,15.2698281-.254257-5.9956858,6.867944-10.3115829,11.1440103-15.2698281ZM419.4199546,340.324267c-13.904455,3.9331366,9.5934442-10.8079976,0,0h0ZM400.7175506,277.4785874c-3.1185198-4.9571452-6.2244114-9.9219477-9.3288223-14.8705049,9.4691925-7.4580658,23.3276401,9.3261782,9.3288223,14.8705049ZM396.0550009,164.3604932c-2.5648233-5.6740147.8621683-9.9820641,8.1670241-13.400933,8.603682,7.0619367-3.321862,9.4184469-8.1670241,13.400933ZM378.1433956,353.7917468c-7.198309-8.3836291.8075305-15.3121972,8.1677645-13.4027098,2.5584351,5.6777376-.8684295,9.9859774-8.1677645,13.4027098ZM378.8414813,328.4821074c-1.2864307-3.6770604,4.6500484-5.7161088,2.2199898-9.6722597,9.0325557-3.8772719,6.0190597,9.2586372-2.2199898,9.6722597ZM376.0531149,218.3540719c-5.6892447-8.0474683,2.322856-14.9799497,8.1605514-13.4137728.5503967,5.217727-2.8825177,9.5297742-8.1605514,13.4137728ZM288.2347817,435.0654782c-10.3040314,2.940138-4.2333587-10.6982144-9.3289492-14.8706741,6.2852681-5.2070871,8.6931162,6.5190492,14.517591,3.3191756,2.0092864,4.7084937-8.2220638,6.6083353-5.1886418,11.5514985ZM285.6612646,457.3855877c6.267542,5.9998106,12.7939525,10.8927147,17.894387,21.9238747-10.9020219,6.8392608-21.8042343,13.6786274-32.7060658,20.5177613-16.3015998-19.0106008,1.0157167-30.3128555,14.8116789-42.4416359ZM294.5849256,451.7874482c5.0946598-3.7190488,8.5532748-.2895611,13.7614196-4.4857543,3.189403,5.8241787-8.5333489,8.2370188-3.3285252,14.5165757,10.4094148,7.5484941,14.2562901-30.2241616,23.7878835-14.9230485-3.0882924-13.1880509,5.1436074-7.9818311,4.4326819-19.3565554,11.8190395-1.1415338,5.7270237,14.600764,13.063778,20.8241389-16.5523666,14.4292991-17.1571261,18.9752756-39.7704562,29.0796665-9.3161306-9.769732-5.2812489-16.4828796-11.9467815-25.6550229ZM329.1057352,401.1291001c14.8756239-6.5658393,8.9044753,19.5032503,0,0h0ZM345.54339,440.5423485c-.2116129-16.6778241-14.7173372-21.591056,2.9173775-34.9796146,14.7586699,8.7153902,16.4249631,26.6905809-2.9173775,34.9796146ZM365.8971323,373.9011738c-7.1643798,1.6281758-12.9032491-2.950799-18.2445721-9.2601602,7.921482-3.2843157,3.0530518-9.486982,13.0028578-12.3063374,2.1894451,7.2940467-2.0533689,13.1086008,5.2417143,21.5664976ZM340.1829026,352.734084c-3.4896251-7.4041472,3.662063-11.8077439,10.0342058-10.4249833,1.6082922,4.6061139-5.8980867,7.1395464-10.0342058,10.4249833ZM358.840653,382.475263c-2.9709365,1.8637972-5.9472035,3.7309155-8.9232802,5.5979068-2.4895615-3.9684618-4.9714022-7.9246127-7.4612176-11.8934764,7.277061-5.830588,11.5644017,1.394289,16.3844977,6.2955695ZM346.0779221,315.8862301c7.6805513-.1477525,13.5492355,7.5697527,21.2222352,7.4095623.3837335,8.2575371-16.7091937-.3090852-21.2222352-7.4095623ZM322.3410805,363.9269363c2.9457223-1.7288422,4.5912435,2.1959813,6.7060403,4.0892445-2.944707,1.730069-4.5902282-2.1947545-6.7060403-4.0892445ZM326.8348729,377.7007514c-2.94568,1.728546-4.5898474-2.1971236-6.7049615-4.0904502,2.9448128-1.7298787,4.5890013,2.195791,6.7049615,4.0904502ZM322.4012391,397.0558049c9.6084416,12.3850259,12.2194627,23.1580579-1.8083768,30.1368428-4.4939405-11.2095841-13.5841377-23.4812943,1.8083768-30.1368428ZM315.7497943,426.0835835c-6.6333591.0967108-11.8210914-3.6450138-10.4317733-10.0315406,10.2690446-2.8334008,6.1326504,2.3584139,10.4317733,10.0315406ZM321.3437667,435.0006024c-8.0501547-1.880508-18.9336891,8.590525-28.6181117,13.8231012-6.0533062-9.877421,1.3171657-16.6765338,10.3798008-23.0871747,5.3079226,6.432513,13.7961314-.9489372,18.2383109,9.2640735ZM291.5564111,420.537903c-9.3179921-8.066252,6.3443268-10.4220642,11.1373261-15.2661475,1.333263,7.3409425-3.6978113,17.2085698-11.1373261,15.2661475ZM294.8794153,406.026404c-.9919621-4.4711377-.0271814-8.4983832,5.1964049-11.5386799.9925544,4.4691494.0205817,8.4853531-5.1964049,11.5386799ZM271.8495648,428.7687875c9.4805516-.1132311,11.9270459,19.4963544,2.2705028,23.4306967-15.6232285-3.8741202-3.7346807-15.817898-2.2705028-23.4306967ZM269.2763438,451.0889605c8.418489,9.5745548-3.1190063,14.5697539-12.2379502,20.1226898-10.4614084-13.5712344,1.8232684-24.6827117,12.2379502-20.1226898ZM248.8178105,451.496766c-1.2444212-1.9836704-2.4895827-3.968483-3.727108-5.9411538,1.9787417-1.2413328,3.9624121-2.485754,5.9472035-3.7308943,1.2375465,1.9726709,2.4826868,3.9574623,3.727108,5.9411327-1.9847915,1.2451403-3.9684618,2.4895827-5.9472035,3.7309155ZM245.143775,478.6736082c-6.5696468-14.8817159,19.4985966-8.9118788,0,0h0ZM251.8461346,482.746417c6.5026769,1.266272,11.0473419,11.0785,16.0271841,18.9479249-6.9396098,4.3534857-13.8780986,8.7062521-20.8116376,13.0559303-5.0925022-7.3774735-11.9841163-6.9821905-18.244699-9.2603294,1.4762985-9.003111,11.3742378-16.0724723,23.0291525-22.7435258ZM238.9019759,528.1653776c-10.1407315,3.6303126-1.1416184-8.1360352-7.4619579-11.8946186,4.5636391-1.3951985,7.9644434,2.3059126,12.6453961.3466315,2.0234588,4.7167644-8.2220638,6.6083142-5.1834382,11.5479871ZM228.7647346,472.3732793c-2.8112961-8.2853108,7.0758552-13.6624878,12.2388598-20.1216745,6.9846654,9.56254-1.407446,22.2964607-12.2388598,20.1216745ZM230.6240263,475.3370239c2.5671924,5.6912754-.8596723,9.9995152-8.1595995,13.4152958-3.8549134-4.2759394-.4034903-6.8798531-2.6231628-10.7810066,3.3755056.0736119,6.7706622.0691275,10.7827623-2.6342892ZM450.0245923,395.7201727c-5.0289591,4.7900378-12.8379715-10.8146607-2.617938-10.7840314,1.2444423,1.9836704,2.4818619,3.9561509,3.7270022,5.9409423-2.8707355,1.0413117-2.0778639,2.9215658-1.1090642,4.8430891ZM452.3034293,419.1612132c3.7269811,5.9409635,7.461831,11.8944282,11.1889178,17.8355821-10.430906,3.5580122-8.9313183,9.8345231-15.9746193,14.168802-7.3487691-8.4743959-1.2344793-13.8605417-10.0848034-22.6755617,4.9548184-3.1083453,9.9156865-6.220477,14.8705049-9.3288223ZM460.2986501,306.4002211c8.6043166,7.0633962-3.3231946,9.419293-8.166178,13.4022656-2.5657329-5.67503.8611318-9.9832698,8.166178-13.4022656ZM618.8589096,559.1512527c-3.685733,1.3003281-5.7255219-4.6372932-9.674375-2.2099422-1.7073932-3.7843052,3.8497521-5.9047287,7.0515295-8.5710009,3.853475,4.2765951.4032576,6.8794935,2.6228455,10.7809431ZM606.8950789,744.8499198c-6.6148716,2.9360978-10.8796211-4.3874783-17.4884218-1.455188,1.6864096-13.1980139,8.0515085-25.3182486,18.5391676-36.5007359.0879323,17.9862537-2.9094875,19.5800773-1.0507458,37.9559239ZM593.0751506,716.2229451c-14.3733076-6.3951359,7.5446232-26.4508136-4.8964577-34.2271026,7.5713392,4.0181075,16.6120388,1.6185302,23.0892265,10.3856178-7.4548505,7.6275423-20.470252,13.9883683-18.1927688,23.8414847ZM601.5347607,657.0415496c11.9970618,8.6953584-3.8564576,11.0023498-1.4627818,17.4931812-11.7153061,1.1612271-6.166643-14.6960786,1.4627818-17.4931812ZM598.910646,646.2611353c-12.5724188,1.8508094,6.9590281-14.6684319,0,0h0ZM607.4806528,653.3114802c-13.9034608,3.9343423,9.5944596-10.8067919,0,0h0ZM591.8612741,654.8326439c-13.9133392,3.9215237,9.5843908-10.8194836,0,0h0ZM611.1048099,593.0352564c-1.7084297-3.7855321,3.841291-5.918203,7.0567754-8.5761411,1.8678163,2.9773881,3.7270868,5.9411327,5.5949243,8.918542-5.5630258,5.7827826-7.7948823-3.017917-12.6516997-.3424009ZM609.6486912,610.5226417c-2.976267,1.8671182-5.9472035,3.7309155-8.9234706,5.5980337-2.4895827-3.968483-4.9792711-7.9371351-7.4611118-11.893286,7.2708844-5.826992,11.564296,1.3940986,16.3845824,6.2952523ZM589.4184181,532.0443418c4.472428-1.0012059,8.4955911-.018551,11.5414932,5.1861881-5.4736339,5.3725022-8.3268126-.6950821-11.5414932-5.1861881ZM590.2355943,572.9778442c1.8591648,2.9635753,3.726283,5.9398212,5.5939935,8.9170401-4.569583,1.3991753-7.9641896-2.3055319-12.65299-.3587732-1.7074778-3.7840091,3.8498579-5.9045383,7.0589964-8.5582669ZM584.6862121,597.1648604c-16.2363856-.1170809,7.1377061-10.5143751,0,0h0ZM567.7908311,504.1662408c7.9127036-8.6070242,10.2274158,7.2588272,17.4951272,1.4684297,1.7023377,9.3523654-14.6398756,5.8794087-17.4951272-1.4684297ZM576.826454,564.8141411c-7.0510853,4.3214814-5.5438402,10.6105994-15.9825516,14.1566179-2.8104923-9.9382143-9.0183199-5.06494-12.2969878-12.9912872,8.8935182-9.2207525,7.0791128-4.9626449,15.9796325-14.1722076,3.2718144,7.9293297,9.4803612,3.0571978,12.2999069,13.0068769ZM559.9052243,683.1573446c6.6289805,6.6171984,5.5199163,11.4602663-3.3208044,14.5289078,1.4290854-4.7763096-5.9594722-11.5559195,3.3208044-14.5289078ZM555.7672226,656.7527288c18.0981733-4.44017.8244528,21.8738271,20.1192207,12.248844,2.5594716,5.6789433-.8660604,9.9863581-8.166178,13.4022656-10.3479869-2.6647916-14.7555393-18.3468884-11.9530427-25.6511096ZM568.4246335,657.1071445c-7.2466221-10.9488966-8.6533066-6.3903342-11.1960675-17.8469411,6.2992078-5.2673515,11.7204462-6.6773147,16.7315523-6.3487689,5.2912542,9.6975373,3.448504,17.7670681-5.5354848,24.1957101ZM561.2497407,599.4392342c5.6821162-2.5683135,9.9932539.8635856,13.4090345,8.1635128-5.2090754.5536754-9.5212285-2.8794294-13.4090345-8.1635128ZM548.6062483,599.0935123c-6.9202127-1.0043365-22.435604-12.8365754-13.063778-20.8241389,8.9532538-5.7514129,13.9564064,5.7966588,20.113171,12.2526303-4.3757173,2.3911374-8.732524,4.7875629-7.049393,8.5715086ZM536.3597523,619.2025585c-10.3605517,8.1347872-12.9039683-17.786846-21.9805431-15.2128846-4.4338241-7.807849,6.2545754-12.1528524,14.106803-17.1462113,4.3373249,3.2997785,6.167743,17.5461056,12.3051951,13.003577,4.4996306,7.8167332-8.9450676,11.530388-4.431455,19.3555189ZM555.4923415,491.1759054c-1.0916977.0596721-9.5150518-2.9525124-8.5724816-7.067796.7678901-3.3305981,15.5542279,6.5985204,8.5724816,7.067796ZM552.9802311,546.6243548c-4.384813,2.3791226-8.7270877,4.7822959-7.0593772,8.5584996-12.1045605.5129562-10.0886532-8.744433-16.0318166-18.944752,9.2410169-3.2502808,16.7817268.8541725,23.0911938,10.3862524ZM535.4306988,512.0387752c-3.1045167-4.9487475-6.2167964-9.909806-9.3289281-14.8706741,6.2819471-10.2794306,21.3245726,13.6851848,9.3289281,14.8706741ZM528.3751502,520.6139009c-11.1419585,5.5566165-12.5792089-2.9845378-15.276047-11.1395894,6.0005721-.257853,10.311731,6.8673306,15.276047,11.1395894ZM512.6934553,489.0057094c-4.5667485-13.9456819-22.021495-15.0525039-7.1088537-24.5427434,4.1831842,7.6613445,9.2789228,11.3781087,15.2761528,11.1397798.5515601,5.2191442-2.8816716,9.5311068-8.1672991,13.4029637ZM502.3671289,545.2089976c-8.8320903,6.0792607-18.0573695-10.2391556-17.1361425-14.1046454,1.985003-1.2452673,3.9686733-2.4897096,5.9472247-3.7309155,2.4549555,5.727066,17.6796011,9.5818102,11.1889178,17.8355609ZM507.0461355,446.9703348c-6.0005721.2578319-10.3103984-6.8681767-15.2759201-11.139399,2.9709577-1.8637972,5.9472247-3.7309155,8.9181824-5.5947127,5.2764472,6.3019577,6.6876162,11.7221807,6.3577377,16.7341118ZM496.7199571,503.1738133c-8.5170612,10.3849832-22.0148107-13.858363-23.4359426,2.2756217-3.7879435,1.7012166-5.9107995-3.8459446-8.570049-7.0500276,1.2623376-6.508917,11.0644968-11.0557396,18.9500614-16.0372528,6.9300699,12.8357716,11.1660093,9.1322067,13.0559303,20.8116587ZM482.6129637,520.3201304c-2.9445166,1.729921-4.5957914-2.1931257-6.7109054-4.0864735,2.945532-1.7287364,4.5959817,2.1930199,6.7109054,4.0864735ZM483.6053912,449.2492352c7.6798532-4.194501,7.1865903,9.5206573,7.4619579,11.8946186-7.6745016,4.1895724-7.1804137-9.5242533-7.4619579-11.8946186ZM485.0146141,398.6402578c2.9376843-1.7412377,4.5818728,2.1844107,6.6969869,4.0777585-2.944707,1.7300479-4.5890225-2.195791-6.6969869-4.0777585ZM487.2800613,422.0738525c-1.9847915,1.2451403-3.9622217,2.4856482-5.9472035,3.7309155-2.4896884-3.9686522-4.9722483-7.9259453-7.4619367-11.8946186,1.9849818-1.2452673,3.9623909-2.485754,5.9472035-3.7309155,2.4896884,3.9686733,4.9722483,7.9259664,7.4619367,11.8946186ZM475.2738192,363.3045988c15.1117741,3.875622,10.4021805,24.4832617,0,0h0ZM474.8682771,342.836187c-1.2197146-5.3710215-.2992914-10.2478706-1.5135909-15.624138,9.7664744-5.1152626,14.3047724,11.6472151,1.5135909,15.624138ZM475.0847763,475.3004506c-4.9470765,3.1206774-9.9096156,6.2166906-14.8644129,9.325036-10.5205094-10.8857977-7.4963313-18.6845933-4.1373883-26.406583,7.6170082.1282285,12.0717947,14.0440426,19.0018012,17.081547ZM542.769801,669.0538203c8.8451416,17.2980251,8.2465588,32.4447649-.3009414,45.7650844-7.3130843-5.1402653-14.3767343-11.3329263-20.8689406-20.0578352,5.7142051-11.762075,8.1683144-12.9146505,21.169882-25.7072492ZM543.9847986,730.4434023c.9894872,8.754946-1.6582552,24.3428069-15.2237784,21.9770741.222147-8.4339729,9.0490338-14.8987862,15.2237784-21.9770741ZM531.4449762,796.3318111c-2.0732526-7.2153582-2.0486307-15.9810498,8.1595783-13.4152958.5512428,5.2190384-2.8817985,9.5308742-8.1595783,13.4152958ZM538.8536501,775.1085394c-10.6125877,3.7913914-8.8573257-5.5042632-12.3051316-13.0038732,6.8667595-.5313169,14.224857,5.5939089,12.3051316,13.0038732ZM551.212235,821.2280184c-9.8217045,9.5162364-14.6017582-2.9969333-23.443473,2.2632262-4.021217-14.8785218,17.6591463-11.4150416,23.443473-2.2632262ZM550.5177663,635.1739203c-5.2089908.5533793-9.5210381-2.8795351-13.4083153-8.1623705-1.4158226-6.2617039,14.2523134-8.6216831,11.1435873-15.2701031,6.130239-4.5535915,7.961609,9.7077118,12.3000761,13.0067923-4.5556644,3.1946912-12.2475748,5.6770607-10.0353481,10.4256813ZM575.0703882,628.0673511c7.0595887-8.6104086,9.4297848,3.3255849,13.4091614,8.1637031-5.2228671.545172-9.527109-2.8757488-13.4091614-8.1637031ZM588.2974026,748.2378844c6.2775262-5.2193769,8.6929893,6.51888,14.5182891,3.3203602.5295189,6.8660403-5.6038931,14.2224033-13.0036828,12.3049836-7.2591445-6.7606992,2.1539718-9.6978969-1.5146063-15.6253437ZM624.1607191,613.8468939c4.8293609,4.8608575,11.0900495,3.4459445,15.2761739,11.1397798-5.2779068,3.8841678-8.7097,8.1954958-8.1672145,13.4010388-7.4042953,6.4336552-9.7416198-9.3334971-16.379273-6.2985944-5.6801067-8.0880394,1.9037973-13.132292,9.2703136-18.2422241ZM628.5409631,561.373802c2.9448339-1.7298575,4.5888955,2.1956006,6.6969234,4.0780758-2.9376208,1.7409204-4.5819997-2.1846223-6.6969234-4.0780758ZM624.6247064,667.4283308c-13.911372,3.9221371,9.5865484-10.8189971,0,0h0ZM630.2188057,676.3455613c-5.2169655-6.2875315,6.5191761-8.6929258,3.3293713-14.5152642,9.5960672-1.9054049,7.9419791,20.2922086-3.3293713,14.5152642ZM643.7912671,783.8553627c1.8678374,2.9773881,3.734723,5.9532533,5.6018412,8.9295414-1.9787417,1.2413328-3.9624121,2.485754-5.9472247,3.7309366-1.8671182-2.9762882-3.7340038-5.9521533-5.6018201-8.9295414,1.9847915-1.2451403,3.9684618-2.4896038,5.9472035-3.7309366ZM654.6599521,603.0084574c-6.1374521,4.5425285-7.967849-9.7037774-12.3050047-13.0036828,7.2774629-5.8295515,11.5646133,1.3954735,16.3851112,6.2965003-3.7644427,1.6864731-4.8845275,3.9744481-4.0801065,6.7071825ZM645.2536258,766.364043c-13.904455,3.9331154,9.5932539-10.8078707,0,0h0ZM646.8979836,636.8799597c1.4540669-12.74822,19.4673327-4.2201382,24.1996445,5.5417249-7.2692556,11.8102823-8.5583938,2.6046541-19.7076289,8.2157602-12.0022231-5.758478,5.9233431-16.6826892-4.4920156-13.7574851ZM665.6143696,699.7340581c-1.9254578-13.5115835-15.4463485-18.3332025,1.8015022-30.1478422-.0276468,10.1835448,12.003175,23.1244249-1.8015022,30.1478422ZM659.6671661,703.4649525c-3.7874147,1.7024646-5.9107995-3.8459234-8.5780871-7.0624232,3.7881128-1.7013223,5.9109687,3.8458388,8.5780871,7.0624232ZM659.3096621,716.1174348c-16.2441276-.129413,7.1371138-10.5152847,0,0h0ZM658.2580701,754.0741202c-.1435431-5.9808789-1.4598416-12.2186377,6.292587-16.3913301,13.5755708,4.5176528,6.1734119,23.3076295-6.292587,16.3913301ZM662.0436869,793.1280031c-13.903757,3.9342577,9.5939731-10.8067284,0,0h0ZM671.9592041,716.4593492c1.2146168,5.3763309.3078583,10.2615353,1.5147332,15.625513-12.8040635,4.4236919-11.6523129-11.035729-1.5147332-15.625513ZM663.2245861,610.0637309c4.3833112-2.3958756,8.7246763-4.8000643,7.0567754-8.5761411,6.6381185-3.0177689,9.7536981,9.3275108,16.3791884,6.3004982.2476574,5.9982453-3.4681338,11.0955069-11.1296053,15.2785007-4.670059-1.8929882-8.9227302-5.51503-12.3063585-13.0028578ZM663.5168971,564.2852991c3.789255-1.7020415,5.9120052,3.8449293,8.5729681,7.0656384-3.7885358,1.7031626-5.9058709-3.8490541-8.5729681-7.0656384ZM494.9473286,110.6180621c7.7375793-1.2954841,16.1221392,18.7359524,14.9228159,23.7875239-11.9934235-2.5075837-16.4009547-10.9724186-14.9228159-23.7875239ZM492.1352076,211.8326324c5.1523224-1.395262,1.336859,2.80256,3.7347018,5.9532744-4.2025602,1.6073826-6.7131265-4.0348817-3.7347018-5.9532744ZM487.4107224,276.9654408c-12.5753379,1.8352198,6.9513708-14.6810601,0,0h0ZM483.9222183,192.1298686c-5.9795674.1427182-12.2176224,1.4610473-16.3842651-6.2951888,7.2644327-5.8229518,12.3390819-2.0084403,16.3842651,6.2951888ZM468.5364516,114.7599983c-13.91262,3.9226659,9.5853004-10.8184683,0,0h0ZM480.2992669,252.4071712c-5.1712753-3.3656061-14.1306634,9.8092243-17.4936465-1.4521843,7.2559505-5.7156646,13.4785004-6.9378965,17.4936465,1.4521843ZM468.0466366,272.5203423c1.6160341,4.6184249-5.8931581,7.1364581-10.0269081,10.4391345-8.5140786-11.5710437,5.2125868-5.4799798,10.0269081-10.4391345ZM454.5850373,231.2401026c-5.5608894,5.7832691-7.7948823-3.017917-12.6495632-.3419144-3.4353047-8.1650992,11.4172203-7.4162678,12.6495632.3419144ZM442.116923,118.8901946c1.8669913,2.9760767,3.7348288,5.9534648,5.6018201,8.9295414-1.9787417,1.2413328-3.9623909,2.485754-5.9473939,3.7310213-1.8670125-2.9760767-3.7348288-5.9534648-5.6018412-8.9295414,1.985003-1.2452461,3.9686733-2.4896884,5.9474151-3.7310213ZM435.2830774,259.9244649c17.0453969-15.6849524,14.4990612,10.024814,0,0h0ZM435.6934846,280.3900845c1.0002752,4.4814815.0283025,8.4976641-5.1884514,11.5513716-1.8679432-2.9775785-3.7348288-5.9534648-5.6018412-8.9295414,3.3825706.0689159,6.7785099.0795347,10.7902927-2.6218302ZM425.2032237,237.2458149c-2.9448339,1.7298575-4.5952837-2.1918777-6.7031846-4.0741414,2.9376208-1.7409416,4.588261,2.1806878,6.7031846,4.0741414ZM412.7346018,124.8959492c4.8266957,8.2850781,8.7125345,2.8812062,7.4612176,11.8934764-5.9745542.1393126-12.2195896,1.4604339-16.3793788-6.2987636,2.9709365-1.8637972,5.9472035-3.7309155,8.9181612-5.5947127ZM398.9724631,129.3805613c-2.9367958,1.7422531-4.5888955-2.1956006-6.7030577-4.073951,2.945532-1.7287364,4.5959817,2.1930199,6.7030577,4.073951ZM387.5952639,223.5416983c-1.2887363-3.6946172,4.6575788-5.7205509,2.2202436-9.671879,9.0248984-3.8920155,6.0189328,9.258468-2.2202436,9.671879ZM371.4577678,138.3625406c7.1644433-1.6284931,12.8970514,2.9544162,18.2460316,9.2763844-8.7606784,8.5988592-11.3584366-9.7193248-20.4662753.3954945-1.2942572-3.6895617,4.6501965-5.7159185,2.2202436-9.671879ZM373.7234054,161.7960295c1.6148919,4.6191441-5.8931581,7.1364581-10.0276061,10.4380134-9.174322-8.7121326,6.5100593-11.1649728,10.0276061-10.4380134ZM366.1386553,295.0223239c-8.3017254,12.8119112,8.5543325,4.9690754,6.3514342,16.7383423-6.2843585,5.2081024-8.6921009-6.5178647-14.5188814-3.3355479-2.5657117-5.67503.8612587-9.9830794,8.1674472-13.4027944ZM352.5075795,154.3996031c-13.912197,3.9208045,9.5843908-10.8194836,0,0h0ZM350.7514502,217.6531093c1.2444212,1.9836704,2.4896884,3.9686522,3.727108,5.9411327-4.2726818,3.8597362-6.8796204.4030884-10.7833969,2.6328508-2.208398-7.2303767.6853729-9.2150624,7.0562889-8.5739835ZM347.069165,244.8163714c3.8548076,4.275749.4111053,6.8919948,2.6318355,10.7927253-2.7654367.9422106-4.8398527-1.1287786-7.8143429.7546485-.9973561-4.4658707-.0284294-8.4978544,5.1825075-11.5473737ZM334.1248159,290.2354378c-2.0156746-4.7047496,8.229975-6.5961301,5.1963626-11.5391876,8.2629099-3.4137288,2.4723431,10.2850361-5.1963626,11.5391876ZM335.7754349,160.7474201c-2.9446435,1.7297306-4.5950722-2.1920046-6.7103766-4.0852254,2.9450031-1.7299844,4.5954529,2.1917508,6.7103766,4.0852254ZM338.5050599,237.7623459c1.6147649,4.6189537-5.8995462,7.140181-10.0275427,10.4376961-3.4976209-7.4160563,3.6551037-11.8184473,10.0275427-10.4376961ZM325.9119536,270.5328644c12.8518055-1.166346,4.6805296,19.5406062-3.3285675,14.516068-5.2114234-6.2925658,6.5190915-8.6926086,3.3285675-14.516068ZM338.6689944,337.1098825c-.8965417,7.4410801-14.2051425,12.0297218-7.409372,21.2221083-2.757589.9547331-4.832005-1.1162561-7.8064952.7671709-1.2452461-1.985003-2.4896884-3.9686522-3.7348288-5.9534648,12.8142169-4.5148818,7.7683567-18.6327689,18.950696-16.0358145ZM305.2594065,382.9391235c4.3818939-2.3947334,8.732524-4.7875418,7.0562889-8.5739835,13.6643915-.7160234,2.1544372,27.3296503-7.0562889,8.5739835ZM312.6679535,361.7156826c13.3931064.7890641-6.7904612,15.2209016-12.2466864,20.1112673-12.427395-10.4818844,17.7629856-11.2107264,12.2466864-20.1112673ZM303.2280788,280.6157429c11.0959511,9.3282935-1.4637337,13.2447616-9.2763844,18.2460316-1.6243895-7.158309,2.9657118-12.9038837,9.2763844-18.2460316ZM303.2806436,313.7324698c.2274141,8.5750834-6.6080815,23.1987559-15.2175383,21.9731396-4.3236813-9.5121539,5.8398318-23.3750225,15.2175383-21.9731396ZM289.8722014,305.5699089c1.6307565,7.1545649-2.9605505,12.9011762-9.2702078,18.2424145-6.270715-8.8812918,2.0722373-19.931997,9.2702078-18.2424145ZM276.2991478,198.0591345c8.7878809-1.8371235-.7834798,13.104328-6.2997155,16.3799922-6.4241365-7.4189965,9.3367758-9.7523866,6.2997155-16.3799922ZM272.9063815,390.8090561c-15.062763-1.2574513,10.7854698-16.7823402,0,0h0ZM267.3646354,415.0086794c9.4735077,9.8054379-11.6919322,12.5956658-17.0908331,19.0005109,1.6033213-5.7780655,7.2826876-23.5216327,17.0908331-19.0005109ZM259.8949779,403.1017499c-13.903757,3.9342577,9.5930212-10.8061573,0,0h0ZM243.5769212,429.931601c-12.2614299-1.3471182,6.3947975-17.0460526,10.3706416-23.0988299,4.3416824,9.4852687-10.3589653,14.6101558-10.3706416,23.0988299ZM248.3014064,364.7987926c6.5446653,11.2386904.3591751,10.1947135-8.1648242,13.4182995-2.5672135-5.6912754.8596511-9.999494,8.1648242-13.4182995ZM234.8336304,323.52217c5.1535916-1.3957697,1.3369859,2.8027503,3.7349557,5.9536552-4.2015449,1.6064942-6.7121323-4.0357913-3.7349557-5.9536552ZM234.9443021,389.7518587c-12.5721015,1.8508729,6.9613761-14.6680723,0,0h0ZM227.250213,456.7476394c-10.1399065,1.5231309,2.8633532-12.6376119,1.4560341-17.4870892,14.419315-.5475199-2.1030781,12.8011656-1.4560341,17.4870892ZM223.1042789,430.3308185c-11.8064113-7.2626771-2.6063463-8.5501654-8.2126508-19.7026792,9.018066-5.4880813,21.8711407,15.6856293,8.2126508,19.7026792ZM210.6924312,351.0934703c13.9678289,1.0172397-2.914395,18.5887075,0,0h0ZM193.2575896,382.7540785c5.3763309-1.2145957,10.2593777-.2978107,15.6281148-1.507647,3.9145855,2.9728191-13.9351689,10.5637458-15.6281148,1.507647ZM193.1467276,316.5245168c11.1250786,1.8888422-8.5561939,18.2656826-3.6762143,27.1594335-8.7488751-1.3404762,3.1079857-19.5027849,3.6762143-27.1594335ZM189.2889585,455.6917746c-13.9113508,3.9221371,9.5854273-10.8182779,0,0h0ZM173.2569727,436.7471284c.766621-3.3469704,15.5527684,6.582275,8.570049,7.0500276-1.0891594.0776309-9.5139096-2.9511163-8.570049-7.0500276ZM174.4184748,465.0205969c-2.1284615-10.7717628,12.0442115-2.2772294,14.5171891,3.3194083-6.2842739,5.2078063-8.6918894-6.5179704-14.5171891-3.3194083ZM187.2400105,564.7224435c3.7815342-1.7143525,5.912111,3.8451196,8.5721009,7.0503238-3.7891492,1.7022319-5.9120052-3.8449081-8.5721009-7.0503238ZM199.1344388,557.2606125c-5.3232373-6.3883036-11.7003722-8.221958-16.0341011-18.9589033,12.791816-3.9620102,22.5187558,5.4823912,34.9848605,2.9227927,2.8913807,7.4601388-13.8942382,10.4033651-18.9507594,16.0361106ZM199.9428366,598.1822059c6.1379809-4.5412805,7.9685682,9.7049197,12.306147,13.0029847-10.6138992,3.7921952-8.8496049-5.4919734-12.306147-13.0029847ZM208.9203315,625.701576c19.2783322.9228981,23.584224,17.9999607,41.694941,7.0100488-1.7931679,14.2092039-20.5013467,8.7121115-28.6319879,13.8127575-4.3567009-6.9447288-8.7063791-13.8782678-13.062953-20.8228063ZM235.8030859,675.1532819c-3.1185198-4.9571241-6.2244114-9.9219266-9.3289492-14.8706741,18.8143236-.6229932,35.0009366,10.2477648,53.2234252,12.1872469.1373242,12.8135188-15.8254072,3.4528192-22.6789462,10.079769-7.0471508-14.3629004-13.8082731-22.0247737-21.2155298-7.3963418ZM244.0150386,694.8548188c7.1652894-1.6271605,12.9047933,2.9667694,18.2522929,9.2724712-8.3429734,6.7515612-12.2563744-5.8166906-18.2522929-9.2724712ZM293.1637725,713.7469214c-13.7185639,8.0329998-21.8658102-8.2868338-30.5432098-22.2675448,10.5511388,2.1157909,19.2145352,12.4466229,30.8965044,9.6193353-.0379059,4.2386892-4.9081129,7.3610166-.3532946,12.6482094ZM295.0841536,749.8410576c14.2693414,1.0798098.6542148,19.4009129,0,0h0ZM294.6798172,729.3716306c9.6899858,2.1829723,18.7165976,7.2442953,25.70708,21.1699666-10.6987432,2.2448232-18.5123881-8.1132959-25.70708-21.1699666ZM324.1217471,756.4950619c5.6801279-2.5689269,9.9919848.8640932,13.4092037,8.1634281-7.0671826,8.5982458-9.4296579-3.3254368-13.4092037-8.1634281ZM346.101021,771.7084754c5.9973569-.2380963,11.0932859,3.478541,15.2761528,11.1397586-6.7770926,3.643787-11.0869189-3.4821793-15.2761528-11.1397586ZM347.5563994,754.2199901c6.1379809-4.5413017,7.9685259,9.7051735,12.3061681,13.0029424-6.1374733,4.5425285-7.9678702-9.7037774-12.3061681-13.0029424ZM349.7696203,744.5369002c5.9415134-3.6599477,8.8739095,5.7458709,15.628432-1.5096777,2.9322903,6.6087795-4.3873937,10.8797903-1.4567321,17.4893737-6.8045067,3.7457436-9.1733067-11.8152109-14.1716999-15.979696ZM362.1268725,790.6572676c7.9409638-11.2372309,16.5166818,14.0030061,32.7647649,12.5948197-6.1427826,18.8599503-23.3428067-8.8105779-32.7647649-12.5948197ZM398.2209241,788.7371827c-8.282857,2.8013119-13.6569457-7.0809108-20.112198-12.2376753,7.9308739-4.9753155,15.8630804-9.9515194,23.7939543-14.9268772,8.7624552,11.3476487-6.9179705,17.0874275-3.6817563,27.1645525ZM407.1964518,816.2559181c2.9450243-1.7300056,4.5905455,2.1948179,6.7061672,4.0894349-2.9453416,1.7286095-4.5908628-2.1962563-6.7061672-4.0894349ZM422.8258992,814.747425c-1.0976416.06367-9.515348-2.9504394-8.5727778-7.0657653.7683978-3.3327557,15.5546721,6.5967224,8.5727778,7.0657653ZM422.0673374,806.926842c-.10367-10.6761731-19.3270683-17.9739005-6.0057123-29.3817924-3.1978006,15.275222,13.5691615,6.1069074,19.0031338,17.0807009-1.8773774,4.6671187-5.506167,8.934322-12.9974216,12.3010915ZM437.7489477,838.5353508c-1.3995349-4.5680812,2.2951247-7.964803.3531042-12.6481248,5.972037-.1551772,12.2111285-1.4723218,16.3845824,6.2952523-2.1432262,10.331382-9.8411862,5.66769-16.7376866,6.3528726ZM445.8550517,792.0039415c2.9448128-1.7298787,4.5903339,2.1949448,6.7059768,4.0895195-2.9453627,1.7286095-4.5908839-2.196214-6.7059768-4.0895195ZM449.9354331,785.2968013c-1.2373984-1.9724594-2.4826657-3.9574412-3.7270868-5.9411538,5.4670554-5.3686313,8.3267492.6954205,11.5413029,5.1863361-2.7641676.9416818-4.8320685-1.1159812-7.814216.7548177ZM451.3905365,767.8082315c8.761313-.9932524,24.3380052,1.6615127,21.9883697,15.225386-8.9067387,1.8097518-15.3776018-7.0133486-21.9883697-15.225386ZM460.3676929,795.3262054c12.4172628-4.7043054,13.6534767,13.8100922,3.3815342,18.6017165-5.0977481-7.1050673-1.1060816-12.1368609-3.3815342-18.6017165ZM460.4340494,828.451457c6.4855643-2.3991543,8.7938672,13.4535824,17.4881045,1.4572186,10.4589124,19.1189033-20.8841283,15.7482417-17.4881045-1.4572186ZM474.7295145,699.3117207c-5.7821057-11.515306,16.2914253-16.6451218,21.1558788-25.715668,4.9907359,4.1518569,7.3673836,19.7253127,14.1732229,15.978723.7340456,9.5039255-12.0573262,15.9106954-13.3559621,24.9544622-14.8727471,3.2923115-7.7655434-20.2525682-21.9731396-15.2175171ZM514.5431437,703.3372317c-1.2004444,9.0651311.6829404,18.8269096-8.5115403,26.0627014-2.4905345-3.970006-4.980096-7.9384889-7.4619367-11.8946186,10.4503243-3.5549028,5.529837-10.6189759,15.9734771-14.1680828ZM487.7854448,720.1233582c-13.9133392,3.9215237,9.5845812-10.8196317,0,0h0ZM491.5117067,726.0632006c9.6687906-5.1366693,14.3043493,11.6490342,20.8711616,20.0579621-14.9957085,7.451043-.9682075,5.7837768-3.3227716,14.5282732-3.9623909,2.4857963-7.9310643,4.9754847-11.8934764,7.461281-18.1552225-8.7274896-15.2148307-31.4972449-5.6549137-42.0475164ZM492.0815005,845.8791913c-3.6625495-5.9317197,5.7432902-8.8640946-1.5160447-15.6246668,8.7942691-5.0111907,13.115962,9.4439783,22.3324416,2.565754,3.7233428,5.1007095.2978742,8.5636397,4.4859236,13.7613561-10.102741,7.0784147-16.0778663-3.9100588-25.3023205-.7024433ZM515.4712877,810.4999785c13.9597908,1.0048865-2.9223273,18.5765024,0,0h0ZM521.2999084,740.5271692c.9867162-10.8044862-1.0318775-22.3012624-.0530936-33.1179749,7.3083037,1.4360235,13.5233021,7.6879971,19.0110027,17.0932657-12.8156764,4.5155375-7.7694778,18.6334458-18.9579091,16.0247092ZM524.4469423,838.0189255c9.056395,1.1974619,18.83334-.6870017,26.0598035,8.5065271,6.4551465-9.614724,19.2148948-10.1324607,28.2727494-1.1626443-19.1220974,3.8012064-48.2449368,10.9603403-54.3325528-7.3438828ZM571.6706414,820.8200226c3.6331894,10.1318261-8.1360141,1.1416607-11.8944071,7.4618733-3.5530836-11.6305467,5.0230997-6.7752523,11.8944071-7.4618733ZM561.2384027,810.790703c-5.0978327-7.1047289-1.1056586-12.1387223-3.3814284-18.6015473,4.5628141-1.39651,7.9634916,2.3043896,12.6518689.3594712-4.4891388,5.1246968-1.58862,22.0733617,10.4384999,10.0254697,3.6883771,16.8585116-10.802794.5211635-19.7089404,8.2166064ZM586.5944092,844.6090906c25.0126959-17.9686969,66.4476474-17.8265921,87.7492269-38.4744645-.5597886,3.6904924.4792809,11.0466862,5.5941205,8.9171882-22.0849112,14.8163748-64.6021262,22.7725475-93.3433474,29.5572763ZM698.2603403,646.0871321c1.1972503,7.91649-3.0847599,14.5826148-12.2397905,20.1222668-1.4045481-4.5646332,2.2962669-7.9655011.3453835-12.6604358-1.0426231-2.8699106-2.9157911-2.0661452-4.8353472-1.0967532-2.3622426-9.798394,10.4933492,4.4433217,16.7297543-6.3650778ZM695.3494989,681.0800941c7.0058605,9.0431745,1.9248655,20.8483166-9.2758979,18.2472797-6.7525342-8.3442002,5.8149983-12.2481671,9.2758979-18.2472797ZM690.5649397,713.0837378c5.7695621,5.5697524-3.0241782,7.7987956-.3533369,12.6482517-8.1690971,3.4394083-7.4155063-11.4160569.3533369-12.6482517ZM684.7816706,816.1622111c1.9033742-8.8999698,4.0766162-17.7330543,18.1935938-23.840131,1.8669913,2.9760343,3.7262407,5.9398001,5.5941205,8.9171882,15.7986277-5.7138455,2.3953045-18.1286123,18.1938053-23.8402579,9.6975585,23.9630712-24.5113949,23.4193165-41.9815195,38.7632006ZM714.2941029,665.0480872c-5.6749666-8.0912547,1.9022319-13.1487278,9.2764479-18.2460316,3.1043897,4.9485572,6.2166483,9.9096156,9.3210381,14.8581728-6.4581291,2.297113-10.7074793-5.1206566-18.597486,3.3878588ZM739.3030125,711.5106439c-13.9047723,3.9351884,9.5931481-10.8059669,0,0h0ZM745.016731,786.6709739c-16.2442756-.1296246,7.1299007-10.5264111,0,0h0ZM740.4723411,739.796635c-5.8143638-7.2785628-2.0122267-12.345174,6.292587-16.3914147,1.8669067,2.9759074,3.734025,5.9521533,5.6018201,8.9295414-3.9635332,2.4865155-7.9319738,4.976077-11.8944071,7.4618733ZM757.444528,654.5537226c-13.9134873,3.9216294,9.5843908-10.8194836,0,0h0ZM756.738108,679.8500992c-6.5683776-14.8658513,19.5023195-8.8954642,0,0h0ZM756.9099959,779.2098622c-2.0218724-10.2654697,6.6202867-25.5186082,17.0768088-19.0094162,7.410345,9.6491608-8.7059983,20.6195699-17.0768088,19.0094162ZM774.234589,681.3176827c-13.9129373,3.9225813,9.5849831-10.8185317,0,0h0ZM775.2256838,610.2476337c2.758414-.9534005,4.8327454,1.1174195,7.815041-.7535062,1.2365946,1.9711479,2.4818619,3.9561509,3.7270022,5.9409635-2.9699846,1.8631838-5.9472035,3.7308943-8.9172305,5.5940993-3.8545961-4.2758759-.4045268-6.8789647-2.6248127-10.7815566ZM787.9876955,676.8215847c-6.6594194,1.1423376-3.8222746-5.1408576-5.5948397-8.9183516,3.3771767.0741618,6.7795252.0807192,10.7862525-2.6177265,2.0155265,4.7045592-8.2221061,6.6086315-5.1914128,11.5360781ZM792.8260252,677.9336314c2.9446435-1.7297517,4.5950722,2.1919834,6.7108631,4.0864523-2.945532,1.7287364-4.5959606-2.1929988-6.7108631-4.0864523ZM794.1353856,349.74356c3.7954105.1657113,7.5726295.2582761,5.9472035-3.7309155,9.6626563-3.7342788-1.6473403,7.5082191,2.6236705,10.7822546-3.7803497,1.7136544-5.9107784-3.8459446-8.570874-7.0513391ZM805.4256255,645.1764603c-1.2452673-1.985003-2.4905345-3.970006-3.7348711-5.9534859,1.9848126-1.2451403,3.9685253-2.4895615,5.9472459-3.7308943,1.2442942,1.98348,2.4895615,3.9684618,3.7348288,5.9534648-1.9787206,1.2413328-3.9624332,2.485754-5.9472035,3.7309155ZM807.191337,370.5551976c2.9453204-1.7286095,4.5957491,2.1931257,6.7107785,4.0862619-2.9447282,1.730069-4.5951568-2.1916662-6.7107785-4.0862619ZM826.0715094,532.7566634c-13.9047723,3.9351672,9.5929789-10.80584,0,0h0ZM822.6719954,725.5092502c-1.6247068-7.1583724,2.9591121-12.9000551,9.2763633-18.2460528,6.7515612,8.3429734-5.814956,12.2481671-9.2763633,18.2460528ZM812.6624749,524.5931295c15.2652802-15.18968,18.2862855-28.5860017,21.8762173-51.0033296,14.0456925,11.4211971-2.336838,23.6219606,8.6177064,40.1698429-13.0466865-.1791645-14.1039897,4.9198739-30.4939237,10.8334868ZM829.9877872,426.7021135c-2.9376631,1.7412377-4.5892763-2.1797783-6.7043903-4.073126,2.945405-1.7289056,4.5960029,2.1930199,6.7043903,4.073126ZM828.4720175,411.0774889c10.7924714-17.7121976-7.7654587,12.7639577,0,0h0ZM838.6180584,466.8814962c-11.7514139-4.5140991-13.1072259-28.3662237-6.7631529-37.2031158,4.4994614,11.9311496-.9626231,18.747248,10.078521,22.679475,1.5631943,3.7413861-1.9422531,3.528779-2.9697731,1.8630781-2.8401486,3.6031524-3.7201064,7.644803-.345595,12.6605627ZM843.5143892,501.1084296c2.9370285-1.74238,4.5833535,2.1837761,6.6980868,4.0773566-2.9454897,1.7284191-4.5908839-2.196214-6.6980868-4.0773566ZM856.3825035,633.9149248c-6.9591974-19.8812937,20.7969575,1.9593446,0,0h0ZM853.5940524,523.7871854c4.1432477.4364041,7.900583,2.5805187,11.541324,5.186315,3.4148287,8.2780765-9.5035024-.9169965-11.541324-5.186315ZM861.167105,601.91126c13.9676808,1.0170705-2.9224754,18.576312,0,0h0ZM867.8186556,572.8836718c5.1403922-1.4033424,1.3299632,2.7915816,3.7269599,5.9409423-4.2004026,1.6078903-6.7111169-4.0345644-3.7269599-5.9409423ZM870.3841557,550.5511667c2.9454897-1.7287364,4.5896993,2.1969332,6.7033327,4.0740144-2.9371131,1.7421896-4.5952414-2.1918565-6.7033327-4.0740144ZM864.7299189,508.5047714c7.0673307-8.5980554,9.429679,3.3254157,13.409373,8.1635974-5.2162039.5562772-9.5273205-2.8756219-13.409373-8.1635974ZM888.7420647,626.0583185c-8.3986476,2.6719201-11.000023-14.0415677-1.5146274-15.6253226,9.7134231,7.3118574-8.1925344,8.3095519,1.5146274,15.6253226ZM894.2835992,601.8588221c-13.662107-.0622105-2.8497096-15.6976864-5.2494139-21.5788085,13.8278183.094807-3.5034168,14.2374641,5.2494139,21.5788085ZM899.069343,569.8544381c-5.036151,4.7945857-12.8456077-10.8272678-2.6255742-10.7966385,1.2443788,1.9836492,2.4895192,3.9684618,3.7348288,5.9534648-2.8770391,1.0452038-2.0793235,2.9221792-1.1092546,4.8431737ZM893.0700612,540.4685843c2.9367747-1.7422531,4.5811536,2.1832896,6.6968176,4.0778854-2.9455743,1.7287153-4.5898686-2.1971236-6.6968176-4.0778854ZM901.2283704,527.0538174c-16.0671841-6.7307468-2.4271183-25.4385871,0,0h0ZM891.8410816,479.0706046c-13.4412714-5.4621691,14.485206.9287997,0,0h0ZM895.1715529,464.5546423c-7.2789859,1.0577262-16.2306532-7.9958766-14.1740479-15.9800767,9.9757182-.4412904,11.6818211,6.9541841,14.1740479,15.9800767ZM877.6158016,429.972976c13.1862106.8340562,8.5245916,21.2095647,0,0h0ZM875.3508409,406.5406293c-6.8058393,3.7465897-9.1811755-11.8276911-14.1727364-15.9808805,6.8061355-3.7465263,9.1811755,11.8276911,14.1727364,15.9808805ZM860.7803043,370.103648c-4.4792816.9899314-8.4955276.0182549-11.5491506-5.1987952,4.48017-.9889161,8.4956968-.0183818,11.5491506,5.1987952ZM841.3646691,332.5430282c-4.4723011,1.0014174-8.4936239.0326388-11.5469507-5.1843478,4.4721319-1.0012905,8.5010274-.0203913,11.5469507,5.1843478ZM816.0035225,298.7278348c15.1186911,3.8866215,10.402117,24.4827752,0,0h0ZM859.4892623,486.9395007c-16.309511-25.634145-7.6135814-60.3952931-30.2586196-68.0414076,10.8734022,2.7234061,4.2001911-9.8350519,6.3004982-16.3791672-3.9020208-5.2233959-11.2133705,4.4878696-15.6294897,1.508472.1844527-4.5171028,8.7362045-5.9517303,11.1437354-15.2698915-13.2042751,3.0897731-7.9818522-5.1436074-19.3555189-4.4314762,9.1561729-9.0162892,9.3968075-18.7946515-3.0363622-31.2620465,19.4009552,7.2864528-15.809881-25.187651-19.7591149-24.8857789-1.8784562-5.3309792,6.8708208-.6843999,4.07907-6.7062729,49.5876128,44.4646929,60.4349547,110.4854338,66.5158018,165.467569Z"/>
  </g>
</svg>