<?xml version="1.0" encoding="UTF-8"?>
<svg id="bilberry" xmlns="http://www.w3.org/2000/svg" version="1.1" viewBox="0 0 1017.3798546 1000">
  <!-- Generator: Adobe Illustrator 30.0.0, SVG Export Plug-In . SVG Version: 2.1.1 Build 123)  -->
  <g id="outline">
    <path d="M661.8068372,374.7710696c29.8686866-4.7427018,51.6008129,24.8627108,76.4948955,41.1336935-7.1497006-34.7554197-56.0055153-62.6541548-76.4948955-41.1336935Z"/>
    <path d="M570.6571193,468.1455245c4.2696043-1.9699304,11.3244695,1.2812941,10.0985949-6.2259656-4.2781988,1.9559591-11.3318997-1.2962603-10.0985949,6.2259656Z"/>
    <path d="M459.0121999,550.913761c15.7213819-5.6647009,24.2700742,18.9061793,40.1911397,12.3997083-10.6859817-7.9161739-32.6654844-31.4492203-40.1911397-12.3997083Z"/>
    <path d="M470.7392119,622.6945536c12.0829834-11.8741762,17.4187029-8.6784135,22.7839737-23.3516313-11.5991535,6.8296946-24.1421522,13.4473855-22.7839737,23.3516313Z"/>
    <path d="M522.5410208,586.1060587c-13.1579894,5.3121799-8.7459414,29.4648529,5.7324193,24.3594269-.7047668-7.8305892,4.1192648-14.3600493-5.7324193-24.3594269Z"/>
    <path d="M699.2240835,495.7662944c-11.9737745-2.8870396-11.7051871,11.811877-26.9391616,16.6085164,11.309461,10.4635842,30.7055244-3.9345051,26.9391616-16.6085164Z"/>
    <path d="M510.1318078,626.2822956c-.6066502,2.6066824-4.2528388,1.7525287-1.2931697,5.4504322,11.337086,14.0952299,7.4072168-31.1740494,1.2931697-5.4504322Z"/>
    <path d="M680.5895611,525.8450161c2.1522557-2.3666515,6.5854934-4.1936725,4.6620282-7.5273911-2.151536,2.3683026-6.5857051,4.1938207-4.6620282,7.5273911Z"/>
    <path d="M716.3489448,508.450382c-3.7606049,4.8530114-19.8424037,6.8050967-14.7621049,13.7543093,3.750571-4.86639,19.8260192-6.7970738,14.7621049-13.7543093Z"/>
    <path d="M585.7852084,598.2307231c-8.0251711,5.5712415-15.9038343,10.5233855-22.2677346,9.0963455,5.6679609,10.0824009,28.2390629,1.7265125,22.2677346-9.0963455Z"/>
    <path d="M584.7753172,626.7466292c10.8641579-9.8933651,30.3746589-17.7235098,22.0073818-32.1563791-9.685574,10.1502463-25.9980684,18.7509498-22.0073818,32.1563791Z"/>
    <path d="M672.8374863,558.5176343c2.1537375-2.367604,6.5879067-4.1931221,4.6645261-7.5271794-2.1525521,2.3671383-6.5867212,4.1926564-4.6645261,7.5271794Z"/>
    <path d="M440.0549196,722.7742105c1.0085153.8834934,2.0739953,1.5272734,3.2032564,1.9021273-1.0315891-.7246018-2.1022131-1.3575858-3.2032564-1.9021273Z"/>
    <path d="M755.84967,856.2287968c.0118121-.0045301.0116851-.0044877,0,0h0Z"/>
    <path d="M743.2358411,861.0643441c.0051651-.0019899.0159188-.0060966.0305251-.0117274-.0159611.0061389-.0255294.0098222-.0305251.0117274Z"/>
    <path d="M1017.3798546,39.3639336c-16.9698647-21.4221542-43.2789847-3.4241086-56.7940463-39.3639336-92.7076223,62.9052357-214.0178997,123.890118-297.0733732,234.2883329-5.5426215-8.9901637-8.4600169-20.2496456-16.6086434-26.9393733-120.1708554-98.6540563-395.4246124-87.1948909-541.8814929,78.4591316-76.8711889,86.9338818-158.352056,275.146284-59.2579676,431.5670211,35.2066711,55.5736755,64.0801152,99.091908,110.2756274,141.169616,102.9313872,93.7668576,208.9758101,151.697955,323.2922515,139.9484408,95.9762474-9.8646182,214.5176696-46.5490281,298.9861271-133.2149999,62.1396303-63.7442539,150.8153084-243.5141033,91.4156592-409.5604861-25.4196148-71.0584982-85.9977632-158.6899494-160.334497-184.6669339,88.6942217-106.0046683,184.7690513-173.1415318,307.9803553-231.6868156ZM630.6071949,263.8603625c18.5547802-.7925742-7.9718474,11.1175463-3.8638019,16.3383836-18.5636076.7787723,7.9715299-11.1170594,3.8638019-16.3383836ZM582.4609522,321.4367163c1.5213674,5.8128389-3.1703604,1.4821208-6.7421836,4.1567121-1.774544-4.7503013,4.606397-7.5301642,6.7421836-4.1567121ZM573.3568166,299.1563228c2.0778692,3.3703403,4.1558865,6.7408923,6.2345601,10.1125238-5.1468107,1.5272734-8.9467257-2.6734271-14.2552858-.5162179-1.8845997-4.2854596,4.3906042-6.6203582,8.0207257-9.5963059ZM549.8400066,374.0753841c-24.487497-5.8556418-49.860689-7.933638-76.7138002-3.8219092.4067338-5.6596204-1.1273347-11.7664703-7.0124433-18.9188805,26.7947917-11.9993251,48.0510686-.5574544,67.40181,18.8683721,1.3728907-4.4601007,5.3739499-8.3075605,11.3914259-11.6764825,2.9634583,3.5815184,2.9386698,6.4530626.7850382,8.8208571,1.3771879,2.2338184,2.7621871,4.4802744,4.1479695,6.7280429ZM368.455288,411.5429059c7.0501658,13.1849158,2.4188321,23.5863701-13.2001996,31.3803588-3.4637997-5.6183205-6.9188568-11.2224791-10.3827836-16.8410113,3.370552-2.0780174,6.7421836-4.1566909,10.0985949-6.2259656-17.3087742,3.5800366-16.2450512-12.6393794-22.0427757-28.2402272,8.7949256-8.7705393,14.3839275-4.1217627,22.2750378-9.081591,5.5967708,11.8672329,16.9066128,25.0923268,1.0618179,31.872889,2.9806049,3.6097785,7.8958097-.9348908,12.1903083-2.8644527ZM374.1747733,435.9120916c15.3811176-.2359454,24.9326307,24.1524401,38.3835091,32.1049606-13.3402723,4.4985429-9.8581194,12.9988225-21.4997583,17.8871432-8.0981394-18.380753-20.1858434-19.9486702-28.2849142-38.3309262,5.7835627-9.483456,11.5940307-4.7834302,11.4011634-11.6611776ZM370.8731675,837.6324202c-3.1928838-8.4327729,15.7505946-11.6008258,21.490804-17.9011992,7.96954,14.3374201-11.2814337,22.311723-21.490804,17.9011992ZM380.2392859,882.9754299c-1.9234653-3.3337186,2.5185998-5.1469377,4.6495599-7.5197704,1.9361453,3.3259285-2.4970501,5.1529496-4.6495599,7.5197704ZM352.1352152,746.9317946c4.494288-2.7708027,8.974499-5.5329263,13.4687235-8.303729-1.424775,10.2028503.6048297,21.2249262-9.8143004,29.292625-8.9162006-8.8174066,9.0716206-11.2647529-3.6544231-20.9888961ZM344.3462224,719.2087379c1.2095113-9.2954787,8.8662426-17.060043,6.4438119-27.2149676,10.3767717-3.353109,18.7599465,1.7479351,28.5164142,1.0078379,3.6793386,18.6667834-22.7405145,14.3413574-34.9602261,26.2071297ZM349.3315165,795.1441257c6.2738491-15.099829-1.1785416,16.3094461,0,0h0ZM300.1787696,602.3538194c-8.9541347,1.3977427-16.2670242-4.1151581-26.4244467,2.3541408-5.0780762-6.9484929,10.9976049-8.8793037,14.7487263-13.7442754,3.3013306,6.3032523,8.5094244,4.5678702,11.6757204,11.3901346ZM293.1666226,583.43532c6.7753971-11.0034686,19.1097156,9.0028861,6.2345813,10.112545-2.0780174-3.370552-4.1559077-6.7408923-6.2345813-10.112545ZM305.1637038,678.2915146c.2332358,6.7577637-7.8302082,11.5604573-12.6840875,17.1248401-1.0516781-11.3986655.444668-14.8927787,12.6840875-17.1248401ZM284.3551009,584.2356631c-5.2753042-10.0611264-10.9124436-18.65205-20.4812515-10.6148128,5.8886649-11.0628889,17.9789092-20.6546436,32.8825474-29.577597,2.4082478,6.0232126,6.7658289,3.8284292,9.6049216,8.0346547,9.83911,14.7939213-6.46805,23.3720802-22.0062175,32.1577551ZM242.282685,437.8620811c-.3355014.3531137-.6879377.6914941-1.0637442,1.009108.3645448-.3785161.7187804-.7133612,1.0637442-1.009108,8.8217674-9.2850002,4.304088-30.1997427,17.5721753-29.0707779,3.3276644,6.5349428-10.1335443,9.0845123-9.3221723,15.032915,13.8570618,13.0914141,23.9893359-23.1109865,38.6154748-5.2169846-16.6134487,6.6116155-17.4502864,16.9416469-31.6035184,24.1355688-5.2608037-.8794926-8.3950504-10.7679042-15.2619594-4.8807212ZM234.7520763,466.0804835c-1.7627108-8.3496649,1.667071-19.9956857,12.6927031-17.1109112.2113898,6.754038-4.0219315,12.4643149-12.6927031,17.1109112ZM330.0197677,319.0495101c9.0717899,13.6406762-18.702389,7.0863429-26.9533234,16.6172378-1.9204805-6.4918858,22.0175215-21.2501168,26.9533234-16.6172378ZM335.6885329,283.0294772c4.1528382,7.6877645-13.4005394,10.2271731-18.1291852,15.8091259-1.1334525-8.1895666,9.1547074-18.2195964,18.1291852-15.8091259ZM349.2092677,335.1141835c11.9738804,18.0711197-19.9183356,30.1133747,3.1399199,35.2431023-16.0010194,6.8380562-25.7261575-12.7705401-45.3440257,9.3649541-5.8969418-7.1427361-7.439753-13.2637478-7.0248481-18.9106459,30.3396037-16.7376873,26.4024948-9.5638756,49.228954-25.6974105ZM343.2060383,287.6783385c.6571797-4.1483293-.4500871-12.4491582-6.2259656-10.0985949-2.9641357-5.8505402,16.2171298-5.1373271,23.5688214-14.530626,6.4993583,11.1229443-10.8382264,16.5911581-17.3428557,24.6292209ZM339.6043462,327.0795288c-5.9316372-11.0001875,4.072588-18.2080383,17.3560861-24.6394454,1.4261086,9.9207362-4.9014241,18.000988-17.3560861,24.6394454ZM397.6051307,579.4675167c-19.79234,24.9503065-45.216252,15.2448552-49.7218864,39.9593645-3.8618121-16.0197324-15.3254653-.0442424-19.1885687-16.0631704,16.4313139-17.9788245,29.4375454-20.0411347,45.3431578-9.3664994,6.9770705-7.5161929-11.7829395-5.1215565-13.7459689-14.7479854,15.5628925-13.1306395,28.2413703-14.0067874,37.3132661.2182908ZM385.1531995,559.2703269c3.3718433-2.0788006,6.7421836-4.1566909,10.1140268-6.2354915,4.1480965,6.7282334,8.3047874,13.4704382,12.4519525,20.1971686-8.2913242-1.3931491-15.7522246-6.2860422-22.5659793-13.9616771ZM305.807251,505.9360159c17.488898-4.3338934,17.234176-8.7331767,30.5811376,4.3880428-12.5988415,8.6753652-22.6425462,6.5852183-30.5811376-4.3880428ZM312.8198001,524.8545365c-10.0677099,6.9833576-22.449065-2.5175414-20.4814843-10.6146646,8.0813315-1.7679183,14.5164007,3.4555651,20.4814843,10.6146646ZM321.3034835,440.6128795c4.6556776,8.6850181-10.7914861,8.0167037-13.4689352,8.303856-4.6543863-8.6834305,10.7925657-8.014989,13.4689352-8.303856ZM318.6676096,391.1226201c1.9361453,3.3259074-2.5066395,5.1374542-4.6589587,7.5044655-1.9236135-3.3339303,2.519383-5.1456252,4.6589587-7.5044655ZM327.5304017,450.7129773c1.384978,2.246456,2.7708874,4.4944362,4.1558865,6.7409134-2.2462444,1.384851-4.4944362,2.7708874-6.7421836,4.1566909-1.3849991-2.2464772-2.7709085-4.4944574-4.1559077-6.7409134,2.2477473-1.3857824,4.4959392-2.77184,6.7422047-4.1566909ZM322.1846272,570.1983505c10.9318552-5.6436381,17.8770669,5.4677904,25.9309851,11.9063525-14.9651754,6.0311932-17.2394682,15.0727967-28.2333474,22.0578054-7.5807783-13.3104246,5.4687219-21.7138154,2.3023624-33.9641579ZM361.5858811,573.8000215c-7.8564784-7.4664466-24.4088133-14.7735359-23.3367921-22.7910228,13.1658429-7.0772404,19.9598684,12.8066326,32.6488247,7.7451103,8.0558868,7.6669981-17.3671785,7.3802269-9.3120326,15.0459125ZM356.8835055,520.930023c-11.2376782,3.0902795-5.8058956,10.1228753-14.7706358,13.740592-15.5095476-12.4891034,7.9288963-30.5139696,14.7706358-13.740592ZM346.2685234,541.4110839c1.178965-7.3822379,7.6429506-13.5230845,16.0415784-19.1924425,4.9365005,8.8329867-7.1551621,13.6385593-16.0415784,19.1924425ZM352.1674127,468.0684707c-1.8839011-4.2838296,4.3818403-6.6345411,8.0219958-9.5971103,1.8979783,4.2754469-4.390456,6.620591-8.0219958,9.5971103ZM373.9424054,473.2342696c1.7722367,5.2049397-6.712865,7.976568-11.4009306,11.6610294-2.7621871-4.4802532-5.5330956-8.9747106-8.303856-13.4689352,8.9960486-9.6128598,12.3783915,4.4327509,19.7047866,1.8079058ZM363.3275926,493.7155211c-12.627779,12.6457935-26.9101818-4.1726944-25.9307734-11.9064795,12.0843171-10.5526194,19.038335.5726323,25.9307734,11.9064795ZM336.3362926,449.9353693c-1.9234653-3.3337186,2.5122069-5.1601681,4.6643144-7.5270524-6.3104496-1.7079264-13.3794766-.1671686-17.1247131-12.6838758,3.370552-2.0780174,6.7421836-4.1566909,10.1127567-6.2347083,4.8486507,7.864586,9.6896384,15.7167037,14.5384161,23.5814802-3.810076-.1085315-7.6372985-.1502125-12.190774,2.8641563ZM318.9416585,414.1759856c-1.3771668-2.2337972-2.7621659-4.4802532-4.1480753-6.7282334,3.3716316-2.0786736,6.7421836-4.1566909,10.099865-6.22677,1.3859306,2.2479802,2.7709085,4.4944362,4.1480965,6.7282546-3.3576815,2.070058-6.7282334,4.1480753-10.0998862,6.2267489ZM305.4727233,422.4798416c-1.0558695,14.8531299-23.9592765,9.4187859,0,0h0ZM289.7010236,464.7501629c-1.9223222-3.3347135,2.5109791-5.1617557,4.6630443-7.5286189,1.9239522,3.3340149-2.5094338,5.1608243-4.6630443,7.5286189ZM307.3191983,463.1735454c2.66062,4.9594049,5.3312952,9.8755412,9.6049851,8.0346335-5.1269969,16.2844672-13.6977891,25.7862341-32.8898506,29.5625461,2.1009218,5.2484412.7494537,11.8291082-10.6146646,20.4814631,3.4868312-21.2126907-1.1316531-44.3491007,33.8995301-58.0786427ZM269.9975283,462.941495c-2.5665467,7.0664021-4.298436,14.3173522-5.1667304,21.7734897-9.5739095,8.0599512-16.8312949,6.3489765-21.7739343-5.1640631,8.989952-5.5424733,17.9646627-11.0755689,26.9406646-16.6094266ZM269.5558663,537.5905718c-3.0415493-12.4780534,10.0521509,3.8821551,14.2463315.5021831-1.6825664,8.2235634-8.7813777,15.1719928-19.4121304,21.2728096-9.3645519-14.3293125,22.4231123-18.6285317,5.1657989-21.7749927ZM269.6356084,658.3631663c-4.4903718,17.0090478-27.6689074,11.4987719,0,0h0ZM327.4019929,608.8120683c3.785351,8.256777,8.6147595,12.1637206,15.0328938,9.32213-6.6616793,14.7153222-13.9549878,18.286087-31.5893354,24.1271225-5.5649756-13.7788437-1.161141-25.1926872,16.5564416-33.4492525ZM316.55604,666.616514c1.0934649,5.055828-.0377436,9.5719409-5.9427295,12.9663075-1.0847435-5.0416662.0502543-9.5796462,5.9427295-12.9663075ZM317.6768336,758.8925293c7.445278-1.6968764,2.8568108,17.6405712-5.166307,21.7735321-5.0095745-8.8634696,10.1685148-12.9247959,5.166307-21.7735321ZM330.4127207,802.1561879c15.2771162,13.2171768-6.1203766,17.7103853-6.4578467,27.223308-13.1189544-1.4626668-2.0864001-21.3880092,6.4578467-27.223308ZM313.6994832,654.4385258c8.8998161-9.7973231,35.4634253,4.1782829,21.490931-17.9009663,4.4944362-2.7708874,8.9886608-5.5416689,13.4704382-8.3047662.9955389,15.5734133,1.4538818,31.0073042-10.3320212,43.5487999-7.1226259-10.5103033-27.0275195-3.6278777-24.6293479-17.3430674ZM377.2285581,689.6312679c-4.6554659-8.6851663,10.7926292-8.0153489,13.4691469-8.3040042,4.6629173,8.6977404-10.7927774,8.0151372-13.4691469,8.3040042ZM380.8689041,710.6285044c.2932065-18.2984918,11.8047643,8.1346764,0,0h0ZM365.5521391,678.2395033c3.8159185-9.4244803,18.6883966-25.7606412,31.6120705-24.1215975,5.2089829,20.8999032-16.4507467,15.0009504-31.6120705,24.1215975ZM358.0336177,673.5894778c-.8530318-12.6731857,4.5565026-23.8376416,5.6729143-36.0421541,8.4165154-7.1760344,10.9121049,10.6137755,18.4037422,7.2421651,4.9587487,12.676488-20.0208552,18.2630979-24.0766565,28.799989ZM364.2076779,623.2992775c8.4275866-15.2557359,23.1551231-29.0064888,44.2963485-41.2462682,8.7416018,7.5828317,18.3131616,11.6685866,26.7069631,20.7129843-15.4102244,12.6401203-28.6144884,25.7924153-40.9094967,39.1605667-11.4558208-.2378506-21.4480434-6.5386685-30.0938149-18.6272828ZM406.6581441,541.3604274c-15.4928032,3.1207623-16.4711532,15.4300383-32.3883872,15.314881-1.8603828-4.2423392-4.4322217-5.5304919-7.5198127-4.6492212,1.1512764-14.9122327,5.9120774-24.5222982,24.0764448-28.799862,3.1512239-3.0776418-1.8336257-8.0971021,2.5800099-10.8765416-5.1722342-6.4549889-15.3507194,8.1979282-20.9822491,3.633445,2.01231-8.1442446,11.4334244-14.5201264,19.4194336-21.2580551,5.6695909,8.3985009,11.8062461,14.8845441,19.1799742,16.0492203-.538953,10.4114882-11.999939,18.2345626-4.3654135,30.5861334ZM398.1981907,346.7226512c-12.7818019,5.4034378-23.4869623,2.0553881-36.5369917,8.5887221-16.311436-30.999366,25.5828036-32.3371591,36.5369917-8.5887221ZM452.0247991,253.1167175c1.5312531,5.8259846-3.1616389,1.4962826-6.7267516,4.1471651,12.5666652,2.2563841,33.1459062-6.8173956,51.5773157.7483741-2.9250372,1.3308498-51.9333719-1.171683-61.4072809,28.5538826-25.5729602,6.8603468-46.4039384-6.3758183-72.5650475,2.907425,3.301754-37.3435372,60.8170575-35.7364581,89.1217643-36.3568468ZM413.926643,244.0777389c1.8848325,4.2853326-4.3810571,6.6358112-8.0210644,9.5986133-1.8989944-4.2766111,4.3896516-6.6218823,8.0210644-9.5986133ZM422.7321952,243.3024171c4.857097-4.2996849,7.7559275-.3953874,12.1919172-2.8651512,5.3581793,5.7167757-12.3147798,14.381599-12.1919172,2.8651512ZM481.5580478,225.6232768c2.8417387,6.418346-1.0653107,11.2476063-9.3208387,15.0321106-.573479-5.8681737,3.3334434-10.6976456,9.3208387-15.0321106ZM525.6610633,282.097423c-26.1569812-6.9082725-60.3540363,20.0754702-83.4507763.3120254,41.7612372-28.2426404,77.4308236-16.2113296,99.7892869,3.5519882,2.5654036,11.0306491-13.9322527,3.8429932-18.9196002,7.0108133-1.4189536-4.1735411,5.2774634-6.4099844,2.5810895-10.8748269ZM473.8518031,318.6709517c11.4093557-3.6102654,20.7854022,1.2927463,30.5937965,4.3802315-2.1841568,16.2110967-19.5343369-5.7337529-29.8089488,4.4407738,12.7009166,3.0237888,25.4078238,6.0261127,38.113588,9.0294527-5.502761,10.5207395-29.9972648-2.4608306-44.0640864,3.9247464-5.0007049-8.8496888,10.1751618-12.9116925,5.1656508-21.7752044ZM519.1943258,309.3069078c-11.7381255,5.0989061-19.7656675-5.4963469-31.8735876,1.0601879-5.0640414-6.9574472,11.011555-8.8879193,14.7715037-13.7390467-3.9569862,15.5438619,12.6566106-2.0167977,17.1020839,12.6788589ZM510.6714382,333.1495664c-5.3635985-5.6938924,12.300618-14.3728563,12.1773955-2.8541224-2.2466889,1.385105-4.4944362,2.7708874-6.7409134,4.1558865-1.1355905-3.2521771-3.2622533-2.3767912-5.436482-1.3017641ZM394.552362,325.7477264c24.3282032-9.6462215,44.5045419-1.7366946,68.4231111-9.6569329.6163878,7.8092724-1.1071399,15.074596-5.1654391,21.7750774-18.2440461,4.1175502-35.1570942,2.7263909-54.1626178,10.1503945-4.9726988-7.8831932-.3117079-13.4811918-9.0950542-22.268539ZM367.3432159,319.2810948c14.228317-42.4711268,81.9840663-21.1566785,113.7515568-19.0125939-31.8988206,23.163527-76.2318543,10.7647501-113.7515568,19.0125939ZM545.0871227,260.8159977c-8.0952816,1.7765127-14.5225396-3.4343119-20.4950746-10.6059855,10.2671818-7.8249795,23.5294054-1.9870558,20.4950746,10.6059855ZM518.0959709,217.0360577c-1.2653541,15.7376394-20.9200769-3.4427158,0,0h0ZM515.008274,242.1812848c-3.5915735,13.7115275-17.0006862.4583006-27.7294285,7.8103943,1.9261325-13.007671,18.7417415-23.2803143,27.7294285-7.8103943ZM489.5804035,216.0262511c-10.7977308,9.1722774-15.6270757-6.8182212-26.4386085,2.3628834-.026863-10.6882891,22.090765-13.278714,26.4386085-2.3628834ZM468.8655775,242.7340609c1.2293886,9.4166479-18.725484,7.3852438-23.0666171.2842734,9.5996294-8.112534,14.4857697,3.5885252,23.0666171-.2842734ZM447.3240535,200.2459992c13.0517017-3.0912956-19.6033042,10.9334852-21.7740824-5.164296,7.8092724-.6163878,15.0746172,1.1071399,21.7740824,5.164296ZM420.3848919,216.8544944c13.8509441-12.8696516,15.642296,12.0292998,0,0h0ZM442.9446025,230.841087c-9.0311646,1.6715799-16.8563347-1.6355721-27.7254884,7.7884213-5.046662-14.1351327,21.9248877-20.8156309,27.7254884-7.7884213ZM413.8746317,183.6892825c1.9223222,3.3347347-2.511847,5.1602528-4.6632983,7.5281955-1.9236981-3.3335916,2.5111908-5.1613112,4.6632983-7.5281955ZM391.092161,207.0399824c5.3501776-14.4180513,11.165218.4733091,18.4032553,7.2442608-8.22803,6.3761358-15.2437333,7.6958933-19.6972082-1.7950988,6.5984698-2.7628856,4.9383421-7.4501256,1.2939529-5.449162ZM399.6796129,243.5777573c-12.3038356,15.4708725-14.1554758-13.1165624-26.4462927,2.3465836-.2109029-6.752281,4.0071982-12.4555299,12.6932747-17.1094929,3.6175051,8.9648672,10.6633313,3.5228602,13.753018,14.7629093ZM378.6316352,186.8288637c2.5845612,11.0016481-12.2860328-3.0547585-17.6181959,1.5766175-1.5398264-15.4102668,11.9860735,4.2581098,17.6181959-1.5766175ZM363.6367814,237.9037634c-5.7813612,4.1511659-9.6412046.2525416-15.5483073,4.9344471-4.7354198-5.287582,15.1682883-17.6341359,15.5483073-4.9344471ZM341.3604524,246.9861588c2.0778692,3.3703403,4.1565427,6.7419719,6.2345601,10.112545-5.7815093,4.1509331-9.6546678.2590404-15.5469314,4.9332828-2.8413789-6.4182402,1.0512759-11.238652,9.3123713-15.0458278ZM329.4010301,212.5269728c3.9108809,13.1524855-5.7197181,7.5929715-13.4702265,8.3046604-3.9973759-11.4530054,9.1880056-1.2010015,13.4702265-8.3046604ZM290.3446342,292.394643c5.7586261-4.1563734,9.6330758-.2652639,15.539734-4.9483761,5.4074599,10.1499711-10.9949588,17.9926688-15.539734,4.9483761ZM306.3864244,273.1997237c-5.7670088,4.1422963-9.6410141.2523934-15.5481168,4.9342989-5.4861225-9.8191903,10.3731095-15.3226922,15.5481168-4.9342989ZM296.8924052,385.9569482c-4.4802744,2.7621871-8.9742873,5.5328204-13.4702265,8.3046604-9.6104466-8.9954771,4.4350159-12.3780528,1.810192-19.7044479,5.2035637-1.7710724,7.976568,6.7128862,11.6600345,11.3997875ZM280.7915123,344.7485718c.292508-18.2962691,11.7906025,8.1433979,0,0h0ZM272.6672297,233.5677319c.2798491-18.2884579,11.7903696,8.143546,0,0h0ZM282.3539679,362.375468c1.7800267,5.2176197-6.7039107,7.9906028-11.3923361,11.6750007-1.7793282-5.2198212,6.7180937-7.9993242,11.3923361-11.6750007ZM267.8753109,399.1951454c1.9362723,3.326119-2.5118682,5.1602316-4.6503643,7.5184368-1.9234018-3.3340573,2.5105557-5.1594483,4.6503643-7.5184368ZM264.8644984,205.8507506c4.1765259,7.6944962-13.3996291,10.228676-18.1196593,15.824579-4.1763989-7.6942845,13.3910135-10.2426262,18.1196593-15.824579ZM250.3780724,242.6577269c-.0082769,13.0534164-6.8728151,8.6060168-18.1204425,15.8232877-5.6165846-9.2638951,10.9560086-17.7790774,18.1204425-15.8232877ZM236.002062,400.255418c-14.24413,1.8043706,1.9245025-12.551953-7.0126761-18.9187535,12.7300869-2.1743557,5.5410762,14.3244437,7.0126761,18.9187535ZM233.2422035,508.8434197c-6.3187689,6.4675207-8.7580287-3.4695999-14.2604933-.4934405-1.8849596-4.2855655,4.3809301-6.6360441,8.0335962-9.6066362,2.0789488,3.3720549,4.1480965,6.7282334,6.2268971,10.1000767ZM211.2116632,819.8771152c5.146599-1.5271041,8.9467257,2.6734271,14.2463738.5021619,1.7808311,5.2188687-6.7041859,7.9907721-11.3923785,11.675043.1098228-3.8108592.1376807-7.6292545-2.8539954-12.177205ZM211.4168294,443.2884869c2.53708-18.7354121,17.6426033,3.2495945,0,0h0ZM225.7475814,225.3156756c.8986502,16.3340229-40.7984461,35.232518-55.1710061,38.6653692,7.6072179-15.4490688,38.504149-25.3651267,55.1710061-38.6653692ZM181.0096978,341.2112323c-11.2843762-4.9001751-11.5737723,3.1268588-27.7234166,7.7889082-4.5789625-.9219145-7.6869813-7.9892268-12.9688266-5.9429624-1.4190806-4.1737528,5.2888521-6.4193833,2.586297-10.8976044,13.302952,22.6235579,36.4177489-20.3724024,38.1059461,9.0516586ZM182.5735718,358.8375569c1.9361453,3.3259074-2.5066395,5.1374753-4.6589587,7.5044866-1.9236135-3.3339303,2.5194254-5.1456676,4.6589587-7.5044866ZM143.1209417,294.8449951c2.2369513,5.3153552-9.3172189,7.370828-5.9431952,12.9689536-13.1600639,2.8559429-2.6818522-11.6212324,5.9431952-12.9689536ZM96.6406058,490.8275713c3.3431386,7.752985-13.8768968,3.656032-16.333155-3.8865582,4.0806533-8.379682,28.1058277-19.7482881,36.5457767-8.5749201-5.9059385,4.3790461-32.5058095,9.0529922-20.2126217,12.4614783ZM54.8779291,460.7866991c4.7787519.0806736,8.2626195,5.6090063,14.2694476.5074753,1.7580749,5.2136823-6.7168024,7.998541-11.3910448,11.6741963-4.3137197-4.8481427-.3954086-7.7559063-2.8784028-12.1816715ZM78.5129235,506.6357869c1.3859094,2.247959,2.7707815,4.4942245,4.1566909,6.7421836-3.3718433,2.0788218-6.7419719,4.1565639-10.112545,6.2345813-1.3859094-2.2479802-2.7707815-4.4942245-4.1566909-6.7422047,3.3705731-2.0780174,6.7407017-4.1557595,10.112545-6.2345601ZM80.462151,668.107462c18.7358566,2.5388582-3.2412752,17.6567228,0,0h0ZM95.2875289,435.8733953c1.9376482,3.3249971-2.4976852,5.1515101-4.6501526,7.5183097-1.9219623-3.33465,2.5118682-5.1602316,4.6501526-7.5183097ZM111.1185643,454.0062639c2.530179-18.7498067,17.6488269,3.2285952,0,0h0ZM102.5320014,417.4700342c-8.5293864-17.2087314,9.3438067-23.708005,24.083748-28.7851074-1.2509806,10.7927139-11.9524366,29.5689602-24.083748,28.7851074ZM125.053082,371.0581364c-1.3441014-4.7872617,7.2811577-8.2516753,10.0985737-6.2259656,7.5415106,5.3912235-7.5249355,15.4004022-10.0985737,6.2259656ZM129.1492942,317.3975747c-10.3971147,16.9987387-23.1021168,37.8624647-47.6438902,43.3299164,3.1045471-17.3849178,23.4959166-39.7706674,47.6438902-43.3299164ZM84.3596111,372.9045479c3.1129511,5.1722342-20.3987997,22.7701082-22.2892208,9.0903336,8.8007258-8.7933591,13.4892147-.2991972,22.2892208-9.0903336ZM61.0607108,410.5106606c-2.9148975,8.8885332-2.826582,18.4796105-17.3413316,24.6282683-1.2163911-9.9164178,4.4743472-26.850571,17.3413316-24.6282683ZM35.18324,458.991812c.2915554-18.2974545,11.8045526,8.1348246,0,0h0ZM60.6103272,485.1455544c-2.4167152,12.9504946-11.320384,36.084703-28.7471309,36.3136628,2.2541614-13.00077,6.8827008-37.1482355,28.7471309-36.3136628ZM21.2625453,541.9317261c12.3625785-3.0438355,1.6644037,11.3811379,4.9344259,15.5483285-12.3694372,3.0673115-1.6710507-11.3578101-4.9344259-15.5483285ZM28.827426,606.9932184c-1.3849991-2.2464772-2.7709085-4.4944362-4.1566909-6.7422047,6.3056655-3.3007379,4.5703045-8.5088317,11.3925478-11.6751277,4.1510389,5.7811706.2728847,9.6458828,4.9471483,15.5404961-4.8494763,4.3121533-7.7695601.4017169-12.1830052,2.8768363ZM40.5042684,618.3847077c-7.4569843,17.3239945,10.0966897,24.7513638,9.3640439,45.3425439-2.634625-.0393313-28.2287538-33.9775153-9.3640439-45.3425439ZM41.8485179,673.3250606c-2.8396219-13.2844507,9.3848103,6.6945542,11.6602673,11.3996605,2.8519208,13.276576-9.3848949-6.694787-11.6602673-11.3996605ZM60.6631641,545.5358526c11.0234306-2.5804968,3.8343987,13.9177099,7.0122528,18.9184148-16.4938036,4.3807184-4.7667705-10.5837796-7.0122528-18.9184148ZM67.537334,722.5400856c-8.0100144-18.3598808,8.0444769-13.2421558-1.0605266-31.8736723,18.7467373-3.2733457,10.480879,24.1175331,1.0605266,31.8736723ZM62.5607825,646.6164675c-6.8914223-14.0935576,4.1347179-23.9375152,5.6587525-36.0334115,5.2188898-1.7808311,7.9998323,6.715998,11.6756992,11.3901134-19.832645-.0832138-8.2423188,14.7273883-17.3344518,24.643298ZM90.3813419,759.5932952c.6864348-3.2427359-1.9706501-20.836101-10.3827836-16.8409901-1.1546846-8.1009759,18.0752475,2.9058161,14.761872-13.7541823,9.3562115,1.4934883,2.5674358,23.4559291-4.3790884,30.5951724ZM104.7131099,541.6198276c-16.2972742,2.1234452,3.8954067-10.0623966.506819-14.2705061,12.4648865-3.0316636-3.8811179,10.0532729-.506819,14.2705061ZM115.1911946,679.2235477c7.1741927.7784759,10.4598797-1.4370951,8.0204929-9.5961789,5.8909934-.5686102,10.7193858,3.336915,15.0460819,9.3122231-8.9434658,5.4012575-19.1592501,16.1613082-23.0665747.2839558ZM126.6340391,727.9379137c1.923677,3.3336339-2.5104922,5.1591308-4.6501102,7.5182886-1.9365263-3.3259709,2.4976429-5.1514678,4.6501102-7.5182886ZM121.7516032,772.7780417c7.5096941-1.2252819,4.2568397,5.8302607,6.2268971,10.1000979-7.5221413,1.2329873-4.261031-5.808711-6.2268971-10.1000979ZM136.5145548,759.0250448c-9.6416914-8.0312889,3.8206815-10.5818533,9.3222147-15.0326821,2.8273017,6.426623-1.0654589,11.2473946-9.3222147,15.0326821ZM146.7946495,655.0880213c1.6540523-5.3518287-6.6129491-13.0572267,3.8719095-16.3262117,5.1445033,6.9659147,3.8518205,12.4142723-3.8719095,16.3262117ZM147.9403586,468.4856195c3.3563902-2.0692747,6.7282334-4.1480753,10.0988066-6.2260927,5.7671782,6.1640051,3.1963978,10.339769,4.9334098,15.5471642-5.8911416.5683774-10.7116592-3.3244891-15.0322164-9.3210716ZM161.1017772,715.9928015c-1.9236558-3.3338879,2.5098148-5.1610783,4.6493905-7.5199397,1.9363146,3.3260979-2.4978969,5.1516795-4.6493905,7.5199397ZM166.5933612,777.6597789c-1.5412024-5.1382162,2.6593711-8.9383641.5022678-14.2466914,4.2838508-1.88388,6.620591,4.390456,9.5963271,8.0207046-3.3703403,2.0778692-6.7422047,4.1567121-10.0985949,6.2259868ZM171.7599434,755.8860775c-.1144799-6.7190039-1.5401439-13.7834797,7.2418264-18.4038268,2.0788006,3.3718221,4.1566909,6.7422047,6.2268971,10.1000555-4.4940129,2.7706757-8.9884491,5.5416054-13.4687235,8.3037713ZM169.5590422,292.4841862c-2.9331448-9.4812757,15.9201129-12.2743477,17.6260495-1.5639798-7.6829169,8.1219752-10.9050557-2.5040993-17.6260495,1.5639798ZM187.6998913,276.6660849c7.2599468-6.3853865,11.1107935,1.6414146,18.8967381-7.0162748,6.3775118,8.1326865-15.5444758,25.7339052-18.8967381,7.0162748ZM203.7945183,317.8608499c6.2714147-15.0997655-1.179473,16.3085571,0,0h0ZM208.1487971,566.1443062c4.9380881,8.7760432-7.6441572,15.7005309-14.7619779,13.754521-5.0789229-6.9503346,11.0015211-8.9012767,14.7619779-13.754521ZM195.8285981,727.1081886c-2.9588859-3.6966334.6867523-2.8438768,1.2939741-5.4491409,6.1132428-25.7249086,10.0454193,19.5447306-1.2939741,5.4491409ZM215.9121759,872.7479816c-10.8637346-6.6717132-21.6489547-14.0737861-16.6084952-26.9391405,5.7188926,11.7919361,16.6180422,15.8510186,30.5952994,4.3792789-1.4173448,8.2866671-6.3016434,15.76156-13.9868042,22.5598615ZM228.0382798,809.5032224c-1.3851262-2.2467101-2.7709085-4.4944362-4.1566909-6.7422047,2.2464772-1.3850203,4.4942245-2.7708027,6.7409134-4.1559077,1.3857824,2.2477685,2.7715648,4.495537,4.1566909,6.7422047-2.2466889,1.385105-4.4944362,2.7708874-6.7409134,4.1559077ZM260.3987668,454.9201978c3.2089931,8.4243054-15.7485201,11.6012916-21.4899996,17.9024693-8.4349744,1.5306392,15.7723983-22.0536564,21.4899996-17.9024693ZM238.3309486,705.5581125c-1.9362088-3.3260979,2.4979181-5.1515948,4.6494963-7.5199397,1.9222798,3.3347347-2.5111484,5.1618827-4.6494963,7.5199397ZM243.392598,563.0060375c-1.9232748-3.3338456,2.5107039-5.1592367,4.6495599-7.519728,1.9361453,3.3259074-2.5110003,5.1615017-4.6495599,7.519728ZM243.8949928,548.759579c-7.7540223,3.341424-3.6802065-13.8815327,3.8856479-16.3346791,12.6094258,8.7364155-10.190382,9.0825436-3.8856479,16.3346791ZM250.8685493,507.2795457c2.2322942-1.3762565,4.4802744-2.7621659,6.7267305-4.1471439,4.2995579,4.8568853.3954086,7.7559063,2.8560911,12.1776707-2.2464772,1.384978-4.4802744,2.7621659-6.7279794,4.1479271-4.2996214-4.8568641-.3940326-7.7564779-2.8548421-12.1784539ZM273.8968935,785.8836599c.974963,8.8530969-8.4449448,15.2279415-19.4214234,21.2572295,1.8717715-8.528328,5.7466446-24.174138,19.4214234-21.2572295ZM259.1774011,860.0111631c-1.0719788-5.0498161.0582772-9.5671144,5.9645967-12.962603,1.0714919,5.0519329-.0582772,9.5671144-5.9645967,12.962603ZM276.0686878,910.0178732c-1.3118827-6.0539283-.2403273-11.5558637-1.5618629-17.6254991,8.2854816-3.2179262,16.6678097,16.9744794,1.5618629,17.6254991ZM280.6896065,842.1163568c-3.4053532-5.863199-7.8890357-7.18302-12.975283-5.9567643-4.1634437-7.7022439,13.4122033-10.2361697,18.1322546-15.8320938,4.8780539,8.8323094,3.1545686,16.0973366-5.1569716,21.7888581ZM281.5443953,632.4327528c-4.6522906-8.6482906-9.4406107-16.7224882-17.1023167-12.6787319-.4115603-5.2691865,23.333892-10.3384142,28.5008129,1.0171097-1.394271,4.4537713-5.3748179,8.3060363-11.3984962,11.6616221ZM311.1660019,725.7258779c.3365387,14.1652769-9.1960074,8.1483513-21.4985517,17.888498-.4702608-13.6474078,9.9586492-11.302433,21.4985517-17.888498ZM291.9018401,928.1518002c6.6602398-4.1642058-1.3935301-11.8310557,9.3124136-15.0461454,6.0107443,6.2227268-.8554662,9.3772742-5.9421156,12.9683185,4.700301,4.4007016,12.3666641-3.652772,15.0321106,9.3207964-6.7416543.108976-13.782019,1.5390432-18.4024085-7.2429695ZM310.7684552,860.7510909c-3.1940269-8.4317568,15.7487318-11.6014186,21.4912062-17.9011568-2.8831869,7.7149027-12.8944824,19.975131-21.4912062,17.9011568ZM319.6187791,920.3491324c-9.9864647-12.6987997-7.0225196-31.8478465,9.8283987-29.3010078,2.3481501,11.1083168,1.5652923,21.4634118-9.8283987,29.3010078ZM355.930706,949.0973006c-9.2890858,2.8143677-18.4727518,5.1279706-25.145333-3.0879086,12.1293639-9.1605923,6.7152359-13.7082887,26.1552242-25.4279975,4.9251329,10.7495087,4.4018235,20.2066733-1.0098912,28.5159061ZM366.2109488,845.159896c1.9354679,3.3248701-2.5064702,5.1377082-4.6589799,7.504529-1.9234653-3.3337186,2.5195312-5.1454136,4.6589799-7.504529ZM361.8362635,875.7310209c-1.8994812-4.2745366,4.390456-6.6205698,8.0204929-9.5961577,1.8841128,4.2836815-4.3818615,6.6344988-8.0204929,9.5961577ZM370.4095325,912.2775385c4.4959392-2.7718188,8.989952-5.5424521,13.4702265-8.3046604,1.3849991,2.246456,2.7707815,4.4942245,4.1557595,6.7407229-4.4802744,2.7621659-8.9742873,5.5327993-13.4702265,8.3046181-1.384978-2.246456-2.7707604-4.4942245-4.1557595-6.7406806ZM395.3218836,952.6856353c-1.1079443,12.3719986-13.8773625,4.8492223-12.9525691-5.9512182,15.6204288,1.8103825,19.6315008-24.3188043,33.1650003-6.5101543-10.5013067,5.3589626-28.0405013,12.2779676-20.2124312,12.4613725ZM440.0549196,722.7742105c-2.0525727-1.7980624-3.8723752-4.5754697-5.5254749-8.0495362,5.7671994-4.1424021,9.6408659-.2526263,15.5480956-4.9342778-.1088914,3.8123834-.1507206,7.6393307,2.856705,12.177586-3.6999568,2.9087798-6.884098,3.6352867-9.6760693,2.7083553,3.709398,2.6055605,6.9117018,6.3975373,9.1823324,11.5523074-16.9489289,6.7428821-34.1002086,14.441485-50.0145002,16.8786279-8.4725699-23.3984352,18.9296341-39.5811236,37.6289113-30.3330626ZM407.3062002,708.2664254c1.9234864,3.3337186-2.5105557,5.1594695-4.6630231,7.526248-1.923677-3.3335916,2.5107039-5.1592578,4.6630231-7.526248ZM452.0709255,931.6378481c-4.3111795-15.7059288,12.0949861,10.9050557,0,0h0ZM401.9183848,767.3764879c7.2580839-6.3860216,11.1021355,1.6274857,18.9098415-7.0261182,3.9771175,5.1315269-17.8432395,20.3811027-18.9098415,7.0261182ZM433.3922242,901.3408145c-10.8438784,2.0707989-8.7714496-22.9405156,3.8655166-16.3394632,5.8167551,7.136195-7.4233262,9.7393423-3.8655166,16.3394632ZM426.5995111,845.1081176c-2.8361079-6.44106,1.0567374-11.2615352,9.3122443-15.0460184,9.6416491,8.0312465-3.8108381,10.5949778-9.3122443,15.0460184ZM439.5155432,790.6613745c-1.9234864-3.3337186,2.5109579-5.1593848,4.6495599-7.519728,1.9361453,3.3258862-2.4971136,5.1529072-4.6495599,7.519728ZM448.9845199,956.7822708c-1.8987827-4.2767382,4.3896727-6.6218823,8.020133-9.5977242,1.8846209,4.285502-4.3812688,6.6359806-8.020133,9.5977242ZM473.6217637,974.1376584c-2.1822516-12.7424071,14.3148966-5.5526978,18.9105612-7.0245094,2.8579116,9.8493344-12.8406506-.7067355-18.9105612,7.0245094ZM479.7437068,863.4593615c-10.4277669,1.0591506-1.7926644-26.2205082,10.6148128-20.4812726,3.7614093,8.5544501-12.6778004,12.3167485-10.6148128,20.4812726ZM474.5274207,824.8449664c.6628106-13.7413118,27.6755967-40.0775277,39.1297875-19.472842-4.6934636,10.9128458-25.5558348,9.0051723-39.1297875,19.472842ZM508.8654799,970.9997072c-12.7568652-1.4592798,14.1209921-7.2495741,18.9101167-7.0262876,3.6204052,6.6388172-14.1985328,5.0664969-18.9101167,7.0262876ZM518.5387549,760.5304722c-14.9052471,15.5449627-31.0730328,6.8662528-54.6693522,24.4211334-1.0798535-9.8492074-1.4853807-19.5276264,1.0230581-28.525813,18.9141599-2.9988734,34.7896705,6.861003,53.6462941,4.1046796-8.5203898-4.4660279-17.6022771-6.6206969-27.223308-6.4579102-.0466768-18.8810521,23.2122783-14.8955518,38.3403251-28.2696728-1.9984445,11.9736475-.1021809,24.8926432-11.1170171,34.727583ZM488.4613245,741.8951454c3.9930152,8.4116466-13.5992915,11.0701709-16.8405668,10.3825296-3.9945181-8.4107152,13.597725-11.0691548,16.8405668-10.3825296ZM474.7068035,727.1331676c10.9493193-9.7556845,19.338887-8.7836215,27.7255123-7.7884001.3250865,9.4821436-23.1205759,17.6197412-27.7255123,7.7884001ZM554.5690546,766.2124679c.2332358,6.7577848-7.8401574,11.5473539-12.6928302,17.1106783-10.4315349-9.1903977,7.2554379-11.6981168,12.6928302-17.1106783ZM575.0503061,776.8272595c4.8481427-4.3136986,7.7557793-.3955991,12.1816927-2.8783393,5.3598728,5.7156961-12.3133827,14.3809851-12.1816927,2.8783393ZM578.2317799,872.4457361c-8.9560399,3.631307-3.5228602,10.6633101-14.7480066,13.7455878-5.7809378-6.1570195-3.1890311-10.3268561-4.9469578-15.5403056,8.2275008-6.3775964,15.2437756-7.6959356,19.6949643,1.7947177ZM541.6064516,760.2479135c-2.5865511-35.2065864,36.3804286-22.6753998,41.709734-30.3491084-6.0111253,28.9906759-24.1576476,11.7352889-41.709734,30.3491084ZM543.9023152,726.3049666c9.7805364,14.4505451-12.6591297,9.1272305,0,0h0ZM542.6759325,792.1332285c11.224596-3.0801609,5.7825889-10.1260082,14.7485993-13.7444871-.7674682,4.6156054,1.0712802,9.8352785,4.9471059,15.5404749-8.2282417,6.3763263-15.2578951,7.7046994-19.6957052-1.7959879ZM550.0528147,954.8925907c-2.7912939-18.7595866,26.7997028-12.3243692,37.8381843-14.0234048,9.3668169,1.3921753-28.2325007,11.3544655-37.8381843,14.0234048ZM592.1666364,789.4971006c-.2118344-6.7538051,4.0073252-12.4553606,12.6924915-17.110763,2.0778692,3.370298,4.1480753,6.7282334,6.2259656,10.0985314-7.1509072,5.8841983-13.2653989,7.4405151-18.9184571,7.0122316ZM580.2213125,755.0295106c-.2931642-17.8984896,24.3897827-19.9147581,37.0377354-22.8344608-.7741363,19.7858412-21.8230243,25.2744404-37.0377354,22.8344608ZM685.0722276,616.0294027c2.382909,2.4831847.6444151,3.9886756-1.2926616,5.4483576-2.2477685,1.3857824-4.4942245,2.7707604-6.741993,4.1565639-9.485086-5.782843-4.7836419-11.5939037-11.6602462-11.3996605-4.6553177-8.6849334,10.7916343-8.016492,13.4689352-8.303856,1.8851924,4.2830464-4.390456,6.620591-8.0346547,9.6049216,4.4009979,1.6166897,9.2675573,1.321832,14.2606203.4936733ZM800.0220974,470.8010006c5.8178982,7.137571-7.4233262,9.7393211-3.8716555,16.3260635-6.4182402,2.8413789-11.2388001-1.0515087-15.0469921-9.3137472,7.2671864-6.3706108,11.11073,1.6414358,18.9186476-7.0123163ZM795.3207591,417.9321451c.2793834-18.2896645,11.7907083,8.1436307,0,0h0ZM790.8046886,606.6124161c-1.529475-5.1475304,2.6712255-8.9474455.5011459-14.2480462,9.2444623-3.8073664,8.2563536,12.9330093-.5011459,14.2480462ZM781.6468059,802.8248622c-2.8501427-6.4324232,1.0425121-11.2528138,9.3122443-15.0460607.5682504,5.8909299-3.3387144,10.720423-9.3122443,15.0460607ZM790.476448,523.1698744c.5000874-2.103462-12.3609909,2.6476649-12.1764006,2.8552867-4.2487109-4.7739043,15.2915743-15.9321579,12.1764006-2.8552867ZM781.9923201,607.4112139c-8.5306989,3.9541496-1.6858264-11.3851176-4.9335157-15.5468255,12.3683152-3.0686875,1.6699922,11.3560955,4.9335157,15.5468255ZM718.9715672,557.9508869c1.7450138,8.9648672,11.9862217,19.7464041,11.9584908,34.4576831-44.4346008,26.6956802-27.1638665-15.2884414-33.7318535-39.6241806,25.9171196-4.2163018,54.526337-19.7746007,79.8092872-21.3106591,1.4652917,29.5247601-20.9731043,46.5923815-58.0359245,26.4771566ZM718.2893873,669.9079165c9.9533147,8.6910723-4.6249196,28.9687875-24.0751535,28.7990999,6.3901283-32.6076094,48.2380298-40.5571027,48.6624182-71.8316608,9.9020866-1.3583479,16.5199045,11.1843121,23.3492393,22.783381-20.565312,12.1311632-24.6411177,22.4534892-47.936504,20.2491799ZM737.7628221,709.0391646c-2.8413789-6.4182825,1.0653319-11.2476486,9.3124559-15.04623,9.6492063,8.0440747-3.8249999,10.6037839-9.3124559,15.04623ZM732.0295983,684.6784041c-4.2976104-15.7122371,12.1084493,10.8985358,0,0h0ZM720.1358835,710.6015779c-.5682504-5.8908876,3.3332529-10.6974763,9.3221512-15.0328515,2.8415906,6.4180708-1.0651202,11.2474369-9.3221512,15.0328515ZM698.8124809,630.7998903c6.3781892,1.4185091,14.2559209-3.5312853,22.2893266-9.0901219.5580471,7.8064146.9521644,15.5631254-10.6151727,20.4811668-3.2996794-6.3039508-8.4992847-4.5548515-11.6741539-11.3910448ZM735.5802106,584.8902603c2.9456131-12.6138924,17.4171152-11.8728426,23.0753597-.2701116-7.7916601.4911966-18.0064495,11.2523904-23.0753597.2701116ZM707.9153252,653.0810881c-6.1206094,17.7104911-10.0821469,35.944842-34.6975659,49.2675232-7.5630602-11.3750837-2.8526617-19.8388051,11.9062678-25.9306464-3.3007379-6.3056655-8.5016132-4.5552113-11.6751277-11.3925478,5.9877552-4.3343803,9.8806428-9.1549191,9.3217701-15.0305864,10.4402564-7.6662784,15.1896051,8.6561653,25.1446556,3.0862574ZM669.0177998,635.2321331c2.7707815,4.4942245,5.5329474,8.974499,8.303856,13.4689352-9.9956731,14.8610258-16.1435688,20.5625813-32.3890223,15.3167438-1.1281391-11.7677616,17.9017072-18.7535112,24.0851663-28.785679ZM653.2364895,677.4867473c2.2619938,9.1594915-3.9169352,16.3151617-8.5360122,23.8531371-13.8530397,10.5641986-17.4192109-3.4999346-25.6466905,11.1602646,4.4095924,1.630661,9.2767445,1.3333689,14.2556457.5138894.3933976,17.9702935-20.3795363,13.1704788-32.3749451,15.3083822,1.8980629-18.7013729,24.7244585-32.4700346,29.2353851-50.5513787,9.1856771-6.4185366,14.0866778,5.2715362,23.0666171-.2842945ZM624.4264666,932.2813741c8.2057183-2.2412486,20.0368375-19.8607358,24.3465564-5.7245023-8.1854387,2.2462444-20.0368163,19.8607358-24.3465564,5.7245023ZM626.6341205,777.552073c2.2464772-1.3849356,4.4942245-2.7707604,6.7267516-4.1471439,6.003928,6.2073584-.8553815,9.3769355-5.9514298,12.9526961-1.036733-3.1235142,1.3152274-5.4429596-.7753218-8.8055522ZM625.0560848,759.934491c-12.8030763-23.65013,12.8674077-29.0366965,29.524866-27.5075179-5.4145937,9.8061081-15.3176541,28.77175-29.524866,27.5075179ZM641.6140716,726.4843071c-5.4852757-9.8173275,10.3731095-15.3203213,15.5469525-4.933304-5.7671994,4.1424021-9.6397228.2515679-15.5469525,4.933304ZM654.2983073,709.3596575c-6.4462463-6.3126511,3.4921657-8.7527153.5147149-14.2543544,9.2320152-3.7996822,8.2435466,12.9405877-.5147149,14.2543544ZM666.0250865,781.1405771c4.7626638,11.6823674,5.6854038,22.4418677,6.5102602,33.165212-3.0264561.0319223-15.7283888-26.554295-6.5102602-33.165212ZM673.140134,920.8368997c3.5662558.8474644-2.2813419-.5397151,0,0h0ZM672.2080798,730.8643904c11.7953231-9.3343866,19.9027131-3.1165709,29.7945965-4.4319041,2.4344757,12.0776701-9.3073331,20.792536-24.0850604,28.785933-2.3956313-8.2423823,2.4372065-14.7579982-5.709536-24.3540289ZM677.8042367,913.3099743c-1.9377753-3.3251665,2.4963939-5.1506634,4.6503643-7.5184156,1.9219623,3.33465-2.511847,5.1602316-4.6503643,7.5184156ZM700.99378,754.9495779c-1.049032,14.8296328-23.9678286,9.4047934,0,0h0ZM697.6753451,817.416221c-13.7560663-13.816037,5.5447384-19.7780088,4.3793213-30.5952571,6.2893657.756397,1.5825659,23.2129557-4.3793213,30.5952571ZM688.2623171,711.661787c-3.9928035-8.4117736,13.5938724-11.0475629,16.8266166-10.3739351,3.9945181,8.4107152-13.5852991,11.0614918-16.8266166,10.3739351ZM712.7641241,887.1051732c-9.3329472,3.7863883-2.6967549-11.6141197,5.9504984-12.9541779,2.2369302,5.3153552-9.3312113,7.3794224-5.9504984,12.9541779ZM717.1521245,856.5240567c-.5710446-7.7986881-.9525031-15.56321,10.600651-20.4725088,7.5407697,9.4390866-6.6533812,13.7456725-10.600651,20.4725088ZM732.9625417,874.6524375c-1.0416653,14.8443661-23.9589801,9.4185954,0,0h0ZM743.2358411,861.0643441c.0049958-.0019052.014564-.0055885.0305251-.0117274.3420849-.1311608,3.3338033-1.2780341,11.2074706-4.2964673.8921302-.3420002,1.3118192-.5028393,1.3758331-.5273526.0116851-.0044877.0118121-.0045301,0,0-.365582.1402209-11.8668307,4.5492206-12.5833037,4.8238199-.0146063.0056309-.02536.0097376-.0305251.0117274-.0046571.0018205-.0053345.0020745,0,0ZM736.0574359,849.521732c7.2393285-5.9579498,9.3618212-13.1282686,21.5043096-17.9109367,2.5310893,6.58996-13.2146366,32.1828188-21.5043096,17.9109367ZM732.8804074,753.8792926c-12.5186971-10.643835,4.7849543-14.2008401-.2839558-23.0665959,9.757505-.7389541,18.1267296,4.3707268,28.5031203,1.0175331,4.8691631,15.4741748-18.3008203,15.7445827-28.2191644,22.0490628ZM761.0617224,671.4330307c2.3832053-9.0157566,5.963877-17.7474727,17.3420513-24.630491,6.3711612,7.2686259-1.6414146,11.1107512,7.0107075,18.9193673-10.0081837,9.8398932-16.5236725,5.0072672-24.3527588,5.7111237ZM765.9937139,686.9807876c30.7990686-5.5044121-.4767596,30.4198963,0,0h0ZM777.2577894,833.4044969c1.1166869-15.0591429,13.8747164-27.3687787,26.655227-39.6750276.7755758,15.5212115-17.6402325,26.4776223-26.655227,39.6750276ZM801.9207954,571.8833302c-12.4657332,3.0336746,3.8820281-10.0523626.5146938-14.2543544,16.2887856-2.137734-3.9031967,10.045885-.5146938,14.2543544ZM860.33386,689.2388017c-9.8495038,2.8576787.7078786-12.8416455-7.0110462-18.9194732,11.2249559-3.080055,5.7928346-10.1127355,14.7629093-13.7529969,1.3933608,11.8308652-5.2463455,21.7668851-7.7518631,32.67247ZM861.5237903,563.012748c2.4138998,11.1240874,12.8382586,24.1376433-4.3803374,30.5935848-6.0829716-11.9836815-8.6883204-23.1425701,4.3803374-30.5935848ZM863.9377748,649.8382888c-11.4545084,3.9983285-1.2288806-9.1707955-8.303856-13.4689352,3.7973113.116131,7.6153255.1462963,12.1764852-2.8556254,5.8083723,7.1221179-7.4234532,9.7391094-3.8726292,16.3245605ZM875.0460493,615.096544c-7.2600314,6.3851536-11.1108994-1.6416475-18.9107729,7.0246364-1.920671-14.0017916,2.2928153-13.1196953,16.0551264-19.2011005-.1098228,3.8108592-.1514826,7.6380818,2.8556465,12.1764641ZM870.5618586,524.9131101c-6.1836072,1.8083292-9.4081804-8.8183169-17.6181748,1.5766175.1089337-3.8123834.1367916-7.6307786-2.8627168-12.1913456,9.172489-6.3173929,14.8012668,2.2594536,20.4808916,10.6147281ZM847.4425105,464.8073182c14.5414432,16.8676626,8.9250279,28.953525,18.185282,44.5575481-6.7539745-9.0547068-30.3121057-29.6294601-18.185282-44.5575481ZM838.3287856,721.3955408c2.2305796,14.9070676-7.5888224,39.0400961-21.2068482,40.9677104,7.3978391-13.5808113,5.6125203-29.3296701,21.2068482-40.9677104ZM822.1319142,559.4227833c-2.0780385-3.370552-4.1567121-6.7421836-6.2259868-10.0985737,7.6686281-8.1128727,10.9055638,2.5055388,17.6182171-1.5766386,1.779434,5.2200329-6.7181148,7.9993454-11.3922303,11.6752124ZM829.8683242,526.7598391c1.9376482,3.3249971-2.510344,5.1593213-4.6488401,7.5175265-1.9234229-3.3340784,2.5105557-5.1594483,4.6488401-7.5175265ZM810.3527639,427.2533437c8.0315005-9.6417761,10.604546,3.8262911,15.0468651,9.3135355-7.7545304.582645-17.6226625.4637621-15.0468651-9.3135355ZM819.6751267,412.2203229c-.4324749,8.7775885-16.4027151-18.9348416-25.9309639-11.9063525,8.900557-13.8451862-5.6837738-18.2056462-17.1105936-12.6926185-1.8209245-6.1761771,8.8181687-9.4084133-1.5767233-17.6183864,25.107928-2.278336,28.8626904,16.5107809,44.6182808,42.2173574ZM775.3409711,393.0693709c8.8270172,13.2435741-3.1419732,14.230328-12.6925761,17.1111229-.2331088-6.7581024,7.8396705-11.5452794,12.6925761-17.1111229ZM766.80498,416.9224656c-4.2975681-15.7122371,12.1077719,10.897435,0,0h0ZM765.4606458,361.9824726c-3.124869,1.0375375-5.4443144-1.3144441-8.8060603.7773963-1.3857824-2.2477685-2.7707604-4.4942245-4.1479483-6.7280217,6.2083745-6.0022345,9.37774.8566516,12.9540086,5.9506254ZM750.7126816,375.7280393c-1.9794351-14.1922033,16.4641464,7.9654756,0,0h0ZM754.8598678,382.4547697c-11.9004465,10.6658715-1.5260033,17.5270227-12.6841087,17.1248613-8.1097821,8.9328815,8.6963645,9.5981264,10.3740621,16.8268283-4.094307,31.6101441-40.7335008,55.5215796-81.8282017,78.3434239,41.7230702-2.5389217,77.5074752-46.0261209,94.7895346-72.378044-2.6001836,9.829076,7.4747236,19.8824971,15.8245578,18.1196593,6.7585469,14.7063467-3.3883336,28.5840691-18.6352845,30.0774304,11.2040413,7.5600754-22.3485141,33.5033595-39.624731,33.7342879-2.8007775,8.7056152,21.0573554,7.4978609,30.5949184,4.3792366-25.8130547,3.6215906,16.9901019-23.8829425,24.8615253-19.9789837-7.1641376,21.4171372-45.5456357,35.1711925-70.7193558,43.5998163,14.1626096.8559531,30.0667191-5.5837733,45.3416125-9.3655468-10.7434968,8.6471051-51.1755989,38.2452145-62.9685087,10.9279813-13.4138544,18.6708266,8.872064,32.1816121,1.3389151,54.9629186-13.2964745,7.5721839-21.7013471-5.4763426-33.9513509-2.3099619-7.4718446,3.1870201,6.6835676,9.3051951,9.5974702,8.0197096-1.5327561,4.3862646-13.4800275,8.4425104-21.490804,17.901178-10.2929651-2.5233204-1.7715804-7.3218861-10.3826566-16.8407784-15.1122761,10.7925233-22.0520899,23.5239651-34.1967799,35.0217632,9.0516374,6.2766645,25.2220057-17.4030804,34.4669126-11.9464035,6.3300517,9.1646778-2.2594536,14.8012456-10.5998678,20.4738001,14.3846261,10.8181585,5.7517039-10.8833579,22.2748473-9.081464-2.5329309,16.5967466-12.9256003,31.8535832-32.8896601,29.5627154-6.9774727,7.5161294,11.7899886,5.1364592,13.7389409,14.771292-15.4450256,15.4982647-23.1828751,32.8251169-34.6758045,49.2715664-12.3806142,3.6613664-24.5445464,6.5089689-33.9513297-2.3099619,24.1146753-23.982435,38.7837653-50.2164065,49.9398173-77.2726094-26.1011596,3.3652387-34.0588028,58.3103968-56.6818103,81.4291945-13.2472574-.7215112-25.7010092-4.7863515-39.4001319-3.6023907,10.5297361-23.3801031,36.0783736-43.1958979,36.4937866-68.9633342-26.5251247,13.9694883-24.0915592,73.8364347-56.9662107,58.3623446,12.8968321-6.5333975,21.5720068-14.0567242,28.2168782-22.0494015-9.1593222,2.7168651-41.2514334,24.6188483-51.7999249,36.5888125-6.1460964-10.0915457,1.6933836-16.8534796-2.3487428-26.4470125-9.4166267-11.8379144-16.3352083,14.0232778-28.514763-1.0085576,22.8403245-17.5808333,40.4996934-36.392029,59.0441011-54.9919831-28.436926,5.9593892-71.140209,85.3116248-92.2107948,61.5028572-17.5618451-19.8660279,42.3014603-56.7536355,64.2096036-76.7671028-23.9603138.1536418-32.770015,28.5632392-55.1800028,38.6537476-.2709795-18.1387746-12.6742018-6.3885618-21.2590076-19.4209366,22.1783819-7.9819448,34.6028575-46.2966135,57.2504417-35.2959815-9.9720912-9.3960931,11.5930146-31.0124906,26.154441-25.42931,10.2679438-14.783591-3.4429275-24.2951378-17.9025963-21.4902113-8.1181225,11.4924002,2.1476409,27.345959-19.9271841,35.5270793-6.0821037-14.7436035-17.2531643-8.046001-23.3505729-22.7822379,11.3894572-11.6172315,16.3414954,3.8058846,27.7309314-7.8113258-7.7903688-11.5934168-18.9306714-9.1111847-26.7210402-20.7045804,2.5359581-12.8166454,2.4604708-26.2538912,9.0507271-38.1074703-11.2817513,3.9676552-27.2781982-12.2858635-25.4279975-26.1552454,5.6180876-3.4636516,11.222458-6.9188568,16.8407784-10.3826566,4.4671287,1.3881109,8.3059728,5.3752201,11.6751277,11.3925478,9.9508379-9.9923708-3.949556-18.4616595,14.7626764-13.7528698-6.0722603-18.8358571-18.9543379-8.9650578-29.2933024-9.8159303-12.2186531-19.2061598-13.4453957-13.7421585-26.2049493-34.9600779,13.7661637-9.6024237,23.1628919-.7402877,35.2430176-3.1395812,3.1186666-21.8723048-24.0729096-19.2931416-39.3997086-3.6026235-6.3575286-18.6229644-16.7339616-24.4413283-18.172602-44.5653593,13.8128405-5.7544135,23.5831737,5.5828207,36.0216841,5.6680667,1.4899955-22.950105-29.2435139-13.7236995-40.9677104-21.2068482,30.7820066-4.5489454,63.1215367-15.6177616,92.7775422-15.369115,4.8409846,7.8521177,9.6897654,15.7168942,14.530626,23.5688002-28.8921148,12.7061452-54.8250685,12.9428527-85.7536255,34.2782579,52.4077394-11.0339726,96.5886131-41.2408279,136.8284406-19.2830654,3.2161692-2.1146391.0736668-5.7386429-.7848265-8.8210053,16.6343209,2.5660387,31.5602285,12.3901824,46.4029223,22.5094167-3.2433921,12.9290084-25.317074,2.275457-37.8296534,14.0371009,43.9918168-.3633805,62.6680202-15.866641,101.8598529,6.907574,5.6183205-3.4637997,11.2366409-6.9275995,16.8407784-10.3826566-3.0903642,21.9499513,44.2560011,17.0609321,57.5848212,48.1599599-2.4379474-26.4095017-32.3409695-41.200036-50.0577688-43.4956455,9.6326313-28.5763002,46.4341672,5.8088592,61.4501261,31.8206449,16.1649068-32.4892133-37.3856628-51.4054054-54.9921524-59.0443127-5.6824826-8.0513779-1.1391892-13.6894063-3.6545078-20.988515,33.8999535-13.6011755,58.6750262,11.2153877,85.8171737,26.1010114-4.6053598-14.954951-3.2377401-10.7109395,13.4704382-8.3047874ZM670.8505999,336.6489506c1.8848325,4.2853538-4.3958116,6.6431568-8.0348028,9.6047099-1.8852559-4.2826865,4.3906042-6.6203793,8.0348028-9.6047099ZM673.7047222,348.8263461c-2.1735725-12.7287956,14.3250152-5.5396367,18.919452-7.011025,2.4584809,11.5323242-15.3682471,9.9473028-18.919452,7.011025ZM731.0069001,373.9189904c-14.832808-2.1256679-26.9809273-15.5135061-42.2606896-15.756543,4.6278832-7.6769685,41.9623814,4.0465294,42.2606896,15.756543ZM734.5954041,334.5276646c1.3859517,2.2479802,2.7708027,4.4942245,4.1567121,6.7422047-2.246456,1.384978-4.4944362,2.7709085-6.7267516,4.1471651-1.3858671-2.2479802-2.7707604-4.4942245-4.1566698-6.7422047,2.2322731-1.3762565,4.4802956-2.7621659,6.7267093-4.1471651ZM717.4861653,321.8342629c4.6624304,8.699815-10.8067487,8.0237317-13.4704382,8.3047874-4.1909629-11.9207683,6.7611718-11.9784951,13.4704382-8.3047874ZM607.3742348,361.8463161c38.9157093-90.125559,115.051077-186.4409487,210.7627802-246.128851,2.8222424,35.3438437-49.1600501,43.8481665-57.4824498,72.6176304-57.4325342,37.2054755-109.1651641,125.3779331-153.2803304,173.5112206Z"/>
    <path d="M590.5854677,432.6174291c-8.7587696,1.3158201-9.74709,18.056344-.5162179,14.2552858,8.3761256-26.6282582,26.0885431,10.7516679,40.6938732-1.8466655-11.050844-22.0640078-30.3546334-9.3882184-43.0472307-24.5764899,7.9069656,1.781191,12.2637211-4.005166,5.9558541-12.9767648-12.9150795,17.362352-33.2800729,3.8388653-34.4662775,11.9445407,21.1348537,1.5515538-15.3330225,13.3490996-10.6060067,20.4950534,13.2500305.6635092,31.3233094-18.9144562,41.9860056-7.2949597Z"/>
    <path d="M475.0679402,531.7102262c15.7023937,10.8381205,44.9102596,28.5535651,55.2229962,21.7230661-19.7478012-1.5725319-34.1153654-25.8286983-55.2229962-21.7230661Z"/>
    <path d="M586.9816799,472.0181326c20.286352-4.7338533,35.3139325,12.7402479,59.6045402-8.8714925-16.8305963-1.9921151-50.542636,3.3231766-59.6045402,8.8714925Z"/>
  </g>
</svg>