<?xml version="1.0" encoding="UTF-8"?>
<svg id="bilberry" xmlns="http://www.w3.org/2000/svg" version="1.1" viewBox="0 0 1058.0417642 1000">
  <!-- Generator: Adobe Illustrator 30.0.0, SVG Export Plug-In . SVG Version: 2.1.1 Build 123)  -->
  <g id="outline">
    <path d="M481.0106002,255.6626872c12.073951.826269,15.0971679-7.3997616,19.2987657-14.4680242-12.6244926-1.3548933-20.7520911,1.7673429-19.2987657,14.4680242Z"/>
    <path d="M519.605979,361.8109537c-23.1442725.9813208-42.3262112,5.9283023-48.2544482,24.1274198,7.4015881,2.3561745,30.9600714-20.3579059,48.2544482-24.1274198Z"/>
    <path d="M558.2013577,371.4703493c-7.5769264.4523704-16.7255056-.647343-14.4680242,9.63937,8.2841506.2552452,12.3670296-3.7110678,14.4680242-9.63937Z"/>
    <path d="M505.1379548,410.065728c-21.4172419-2.1209549-11.9368375,26.6600415-38.5950526,19.2984395,5.5161788,15.1755745-7.5787529,11.7200128-9.6590695,19.2966131,45.9966406,31.1952909,108.0920566,46.2925241,164.0417585,67.5332535-11.7018788-23.6750494-51.318173-19.4353574-67.5532139-38.5953787,26.5417142-7.047976,42.5617569,21.5358953,57.8938834,9.6593304-13.5070551-12.2305031-43.5042658-7.9707854-48.2344878-28.9578351.4905299-12.2685975,17.9616802-11.3863611,24.1273546-4.8086285-3.5342291-17.5114624-35.3366161-21.811427-4.8307415-33.7867502-30.0153446-10.5216064-75.4634006-19.220033-82.0190202-38.5950526-13.1933638,16.8823186-60.3281383,21.7711801-53.0852549,43.4237067,16.4521265-5.0054276,38.9309221-42.6195507,57.9138438-14.467698Z"/>
    <path d="M746.3704707,477.5986553c-.8241164,12.0736249,7.4019142,15.1153019,14.4680242,19.2966131-3.4939822-14.7432297,4.9273472-17.5696476,4.8307415-28.9357222-13.1733382-3.5140078-9.7174504,9.5809891-19.2987657,9.6391091Z"/>
    <path d="M316.9687765,501.7260099c5.5180705-14.1543329,2.8463783-17.9235858-9.657504-24.1273546-2.3358879,9.6774644-10.483512,22.4388096,9.657504,24.1273546Z"/>
    <path d="M746.3704707,511.3854055c-.0784065,9.5787713-13.1733382,6.1232096-9.6593304,19.2966131,12.2104775,5.0657001,21.3993688-16.2752878,9.6593304-19.2966131Z"/>
    <path d="M345.9266117,569.2770712c-4.7323746-21.0051837-8.5596823-42.9132164-28.9578351-48.2544482,5.2624992,20.4765594,6.615566,44.8591591,28.9578351,48.2544482Z"/>
    <path d="M702.9446767,559.6198281c3.7510538,1.0594012,5.614611,4.0426321,4.8307415,9.657243,13.9372473-2.1387627,21.9861783-10.1679943,24.107068-24.1274198-16.2952482-1.8250715-20.5730998,8.3651011-28.9378095,14.4701767Z"/>
    <path d="M688.4566921,593.4044257c-3.3168826,19.0431943,20.3196811,15.7847579,19.318726,0h-19.318726Z"/>
    <path d="M649.8616395,607.8742763c-.804156,14.9181767,16.9806855,21.6927736,24.1270284,14.4680242.7079417-13.565436-11.8184449-13.9191133-24.1270284-14.4680242Z"/>
    <path d="M119.1617285,188.1316516C32.1541753,309.6594016-21.3575536,447.1742531,8.1848732,617.5114937c23.2414001,134.0076928,158.9256355,270.1977873,192.9980933,294.3177709,61.608017,43.6131348,152.5754254,78.251985,236.4021006,86.8298013,86.2624304,8.853087,387.9596763-21.690621,530.7195453-226.7445314,42.8569228-61.5578551,76.7983335-177.7240867,86.8316277-260.529129,20.8867911-172.346587-74.3255929-286.7679801-173.6814547-385.9762263C681.0123131-74.735257,269.3871762-21.6946194,119.1617285,188.1316516ZM876.6261313,434.172796h9.6593956c2.237521,10.3066734-6.9113843,9.1888913-14.4901371,9.6593956.9228747-3.9061056,4.8507671-4.810455,4.8307415-9.6593956ZM871.7953898,405.2370739c.1386791-4.6920624,5.9101683-3.7492273,9.6593956-4.8307415-.1365265,4.6920624-5.9083419,3.7510538-9.6593956,4.8307415ZM939.3489298,467.9595462c-17.3931351,28.6419913-37.7712623,6.6939725-53.0634029,14.467698-2.0827954-7.1263825,28.994103-22.3016308,48.2344878-24.1270936-.7860221,5.6146762,1.0593359,8.5999945,4.8289151,9.6593956ZM920.0501642,612.7028652c22.1048318,3.2006427-3.8657934,29.1912282,0,0h0ZM924.8805795,574.1078127c5.5746902-19.0835065,5.5746902,19.0613935,0,0h0ZM949.0079993,521.0226229c2.5911331,17.0812702-7.8139724,21.1441889-14.4879845,28.9578351-13.2920569-8.9920923-1.8072636-33.6096506,14.4879845-28.9578351ZM924.8805795,516.194034c-13.3098647-7.4803207,15.213734-13.2518099,19.2966131-19.2987657,13.2920569,7.4803207-15.2336944,13.2717051-19.2966131,19.2987657ZM905.58214,617.5114937h9.6391091v14.4901371h-14.467698c-1.3549585-7.7939468,4.5530572-8.3044371,4.8285889-14.4901371ZM891.0941555,511.3854055c17.9635066-16.8442243,24.4810319,13.15116,0,0h0ZM886.2855269,728.4905669c-3.5945669,13.7604086-30.9803579,19.6886456-43.4257941,9.6372174,7.6368076-10.0511673,33.7461119-1.6282724,43.4257941-9.6372174ZM881.4547854,694.7241032c-.5888969,12.2686627-7.0279504,18.7077162-19.2966131,19.2966131-3.3190352-16.1765947,8.0873515-17.6480541,19.2966131-19.2966131ZM876.6261313,636.8102594v-9.63937h9.6593956v9.63937h-9.6593956ZM881.4547854,535.4924735c.1390052-4.6918015,5.9101031-3.7310934,9.63937-4.810455-.116827,4.6920624-5.8901427,3.7310282-9.63937,4.810455ZM881.4547854,549.9804581c-2.1209549,5.9283023-6.1835474,9.8946152-14.4680242,9.63937,2.1009293-5.9304548,6.1638479-9.8946152,14.4680242-9.63937ZM862.1581724,656.1087641c7.0279504-15.9816221,11.9933919,18.8263697,0,0h0ZM847.6883218,419.7047719c-2.6698658-10.698445,9.2070253-6.8711373,9.6390439-14.467698,12.0155701,1.9619893.2955573,18.7074553-9.6390439,14.467698ZM823.5609672,467.9595462c.1186535-4.6920624,5.9101031-3.7492273,9.63937-4.8289151-.1368526,4.6920624-5.9082766,3.7492273-9.63937,4.8289151ZM823.5609672,694.7241032c5.5764514-19.0835065,5.5764514,19.0613283,0,0h0ZM828.3917087,279.7900418c.8825625-4.1028394-1.8856702-4.5533833-4.8307415-4.8285889-1.9238297-9.3638383,21.9685662-7.0482369,14.4701115,4.8285889h-9.63937ZM828.3917087,246.0254698c.7659964-5.6549231,8.795228-4.0647451,14.4680242-4.8308067-.7860221,5.6549231-8.7949671,4.0647451-14.4680242,4.8308067ZM842.8597329,328.04449c13.0746451,4.2597177-4.0647451,21.399434-9.6593956,9.6394352,1.1980803-5.2410385,9.6009495-3.2787883,9.6593956-9.6394352ZM847.6883218,376.2789778c-5.7112167,14.6650841-25.598553-5.2206867,0,0h0ZM847.6883218,530.6820186c-.1368526,4.6920624-5.9082766,3.7310282-9.657243,4.810455.1365265-4.6918015,5.9080157-3.7310934,9.657243-4.810455ZM847.6883218,646.469655c8.6178023-1.433365.2954921,18.7073901-9.657243,14.467698-2.6516666-10.6985103,9.2070253-6.8711373,9.657243-14.467698ZM852.4987767,328.04449c8.2060702-1.7850854,9.1085931,3.769253,9.6593956,9.6394352-4.1029046-.8826277-4.555275,1.8856702-4.8308067,4.8304153-5.6527053-.7860221-4.0625925-8.7946409-4.8285889-14.4698506ZM852.4987767,303.9171354c.1368526-4.6917363,5.9082766-3.7489012,9.6593956-4.8285889-.1386791,4.6920624-5.9101683,3.7492273-9.6593956,4.8285889ZM804.2643542,221.8981152c20.141016-12.0153092,53.1033237-11.2111532,77.1904313-19.2985047-11.9549714,26.3645494-45.8201934,23.4194781-77.1904313,19.2985047ZM731.8824862,805.6809982c-6.5374204-26.0308978,40.9312667-23.146099,53.0833633-14.4680242-4.7501824,17.7670337-31.941327,13.0931052-53.0833633,14.4680242ZM731.8824862,829.8083527c7.047976-15.9996909,12.0134175,18.8061483,0,0h0ZM702.9446767,786.3822325c4.1028394.8847151,4.5552098-1.8835176,4.8307415-4.8285889,7.1645421,9.050147-23.1863459,21.654614-38.6153391,24.1273546v-19.2987657c14.0559007-6.7121717,23.9305555-11.993131,33.7845976,0ZM698.1163487,762.2551389c-3.5342943,4.5171154-8.7752676,7.3032212-14.4682851,9.6593956-12.1318101-2.0806428,8.008945-10.4051055,14.4682851-9.6593956ZM702.9446767,800.8524093c9.1104196.5489108,3.3389956,15.9594439,14.4701115,14.4879845-13.5857226,8.9114679-31.7845139,13.2317843-48.2547091,19.2966131-.7660617-23.3029772,20.6136729-24.4207593,33.7845976-33.7845976ZM712.5840467,680.2361187c.2955573-.3336517-.3339778-4.7705342,0-4.8308067,23.1663855-4.082879-22.9093139,31.0185175,0,4.8308067ZM538.9044185,660.937353c5.3977863-19.4734517,35.2182236-6.6940378,43.4239676,0,10.4051055-7.1845025-5.2809593-13.623556,9.63937-19.2984395,18.0219527-5.162632,13.7623003,11.975258,28.9578351,9.6593304.6070308-8.6583754-5.9101031-10.1879547-4.8307415-19.2966131-20.5350055,6.8308904-20.4362472-2.7500987-43.4237067,4.8086285,28.6220309-21.2225954,72.3615815-27.345805,101.3175249-48.2344226,132.0607716-149.5541001,65.0202007-345.5557109-149.5519475-332.9131496-122.2870277,7.204789-177.1954625,93.1720534-217.1254479,192.9980933,25.9125052,31.90108,26.6582151,71.2240347,48.2547091,101.3196775,29.8382451,41.5785444,75.4031933,50.8640414,115.7855491,82.0211728-34.4522271-4.1431516-52.1805142-25.0117435-82.021238-33.7867502,18.3377966,47.6255653,98.1393214,33.7465033,135.1064277,62.7224724-61.6451982,21.1441236-134.8893421-28.9357222-178.5101088-57.8935573,6.418767-14.8800171,21.4375284,8.9917661,28.9357222-4.8289151-1.276552-21.2425558-30.310902-14.7050701-43.4237067-24.107068-34.335661-41.0296336-68.0836646-130.4121475-24.1273546-188.1694392v-33.7664637c55.9497019-90.6974864,245.4341136-185.9683165,347.3789559-86.8498269,37.0451867-12.0134175,56.3639127,33.0206885,82.0209119,48.2344226-1.0993872,6.9695695-14.409578,1.6886102-14.467698,9.6593956,2.0221966,10.8374503,25.5984878.1368526,28.9356569,9.6593956,18.7096079,44.6602075,9.679356,80.5272743,0,125.4248539,25.2670539,7.5584663,3.0840766-32.2931126,24.1274198-28.9359831,16.7272668,131.9624047-100.0413643,254.3456468-236.4021006,231.5731855ZM659.520709,849.1067922c-14.6267289,17.8251537-16.2550013-14.664758,0,0h0ZM698.1163487,868.4034053c-14.6853707,11.0524485-34.3153745,17.1397164-62.7227333,14.4680242,15.5273601-10.1880199,36.4744238-14.9987358,62.7227333-14.4680242ZM645.053011,781.5536436c-4.7320484,11.3660746-27.8585132,4.3180986-33.7867502,14.4679589-13.9390737-11.1508154,21.0838511-13.9771681,33.7867502-14.4679589ZM620.9255912,733.3194819c.1368526-4.6923886,5.9083419-3.7492273,9.6372827-4.8289151-.1165661,4.6920624-5.9083419,3.7292017-9.6372827,4.8289151ZM649.8616395,796.0216025c.7859568,21.6927736-28.7410757,13.0749713-43.4058989,19.3187913.5508025-20.3578407,25.8159648-15.9997561,43.4058989-19.3187913ZM616.0948497,699.5327317h-14.467698v-9.63937h14.467698v9.63937ZM654.6902285,829.8083527c-5.9283023,16.5686273-28.3468253,16.6670595-48.2344878,19.2984395-4.5152238-24.0104623,39.4014264-24.6780918,48.2344878-19.2984395ZM577.5000581,762.2551389c-10.600339,14.7432297-30.9000598-5.5742988,0,0h0ZM563.031773,733.3194819c11.9956097-18.8264349,7.0279504,15.9794043,0,0h0ZM427.9274979,492.0866399c-6.1453878,1.0796877-6.3221613,14.3895524,0,14.4679589-16.7857129,10.2083065-13.9393346-16.5885877,0-24.1273546-18.0019271-8.2057441-29.4867204,31.5093084-57.8938182,28.9581613,13.1533778-19.0232339,33.0588481-31.2737627,43.4239676-53.0852549-19.0213423,8.3045024-34.6693127,20.0042286-48.2344226,33.7864893-13.7019625-44.3283822,45.4077438-57.4614735,57.8938182-91.6803075-28.877537,12.9381187-47.9791774,35.6521338-67.5510613,57.8938182-11.7196866-23.9886755,46.5255911-45.8582877,57.8916656-77.1904313-21.6527875,8.893334-37.5740719,23.5381968-53.0633376,38.5950526-4.6717759-27.2670724,41.7756696-45.0159721,57.8938182-67.5328621-10.2079803-16.0379157-14.0174802,14.4698506-28.9578351,9.6390439,30.5480132-28.9556826,58.5230272-60.5030853,106.1482664-72.3615162-8.4994097,12.4073418-19.1397348,22.6737682-28.9356569,33.7664637,9.540677,1.5117715,38.9090048-33.8651567,57.8938182-24.1273546,11.3861002,1.3548933-5.5362044,12.8981326-4.8307415,19.2987657,12.0936505.8440768,11.6997262-10.7972033,19.2984395-14.4701767,9.1869996,2.062835,12.1121106,10.3851451,24.1273546,9.63937-1.7085706,6.3422521-8.5012362,7.5987133-9.6593956,14.4879845,8.7568727-5.7914496,36.9468198-10.658459,57.8938834,4.8308067,10.4634864-7.2451012,11.2495085-24.1473802,28.9559435-24.1274198,15.0971679,23.7534559-22.3400513,30.7230254-24.1273546,53.0630767,13.6841547,3.867946,30.1743755-30.8213923,53.0652293-33.7664637-9.3054574,19.6324173-26.7587998,31.1172106-38.5972052,48.2344878,11.4266733,9.5428295,21.5358953-23.2829516,43.4257941-19.2966131-4.5352494,19.5921052-22.4003239,25.8540591-28.9356569,43.4239676,21.1419711.2371112,21.8293-19.9639164,43.4036811-19.2966131-2.1790749,20.3178547-22.8106209,22.2235504-28.9359831,38.5950526,9.2457067,12.0337041,18.492718-16.5686273,33.7667246-14.467698-4.0647451,12.0134175-6.3224874,25.8541243-4.8307415,43.4237067-15.9797305,1.688545-20.9271033,14.4498902-28.9359831,24.1273546,7.5771873,17.6301811,7.2050499-11.2092615,19.296874-4.8285889-9.1467527,29.4461473-24.3829259,52.8078315-48.2547091,67.5329273-68.1599837-15.4511714-116.1192008-51.1011526-178.5079562-72.3618424-11.7400384,6.7124326,22.9089878,16.6851934,0,24.1273546,21.8293,28.0131736,65.548825,34.1585615,101.3174597,48.2344878-44.073137,7.0479108-85.7501136-29.9972759-125.4448795-43.4058337ZM466.5429022,569.2770712c-.1386791,4.6920624-5.9101683,3.7310934-9.6590695,4.8307415.1362003-4.6920624,5.9076896-3.7510538,9.6590695-4.8307415ZM437.5850671,559.6198281c-5.7114776,14.6648232-25.5991401-5.2228393,0,0h0ZM413.4576473,549.9804581c-.1365265,4.6920624-5.9082766,3.7292017-9.6372174,4.8086285.1165661-4.6920624,5.8879901-3.7292669,9.6372174-4.8086285ZM394.1610342,525.8533644c.1365917-4.6920624,5.9080157-3.7492273,9.6593956-4.8307415-.1386791,4.6920624-5.9104292,3.7510538-9.6593956,4.8307415ZM563.031773,303.9171354c-.1386791-4.6917363-5.9101031-3.7489012-9.6593956-4.8285889,8.2641902-7.8318454,17.5699085-14.6063771,33.7867502-14.467698-6.2037687,8.2641902-9.9929821,18.9626352-24.1273546,19.2962869ZM625.7542454,299.0885465c-2.8264179,10.0314678-10.1498604,15.5876327-14.4879845,24.1273546-14.8216362-1.2565264-21.6927736-10.4635516-33.7662027-14.4680242,8.2257697-10.3850799,33.1773059-21.2022436,48.2541873-9.6593304ZM558.2013577,540.3210625c8.1675845,9.5207166,33.571491,1.8054372,33.7663984,19.2987657-11.2092615-6.4790395-36.04234.6673034-33.7663984-19.2987657ZM567.8404015,559.6198281c-1.2362398,11.287668-21.1822832,2.7861057-24.107068,0,4.1028394-14.1543329,12.1318101,6.2819143,24.107068,0ZM466.5429022,487.2579857c44.5233548,5.3394054,102.3187409,39.1842756,149.5519475,57.8916656-45.425943-4.4746507-101.3577719-40.1449185-149.5519475-57.8916656ZM534.0739379,549.9804581c-11.3863611,15.5092261-19.4937383-16.9825772,0,0h0ZM514.7773248,540.3210625c-4.3783711,13.0949317-16.902279-4.9069954-24.1273546-4.8285889.4904647-9.1888913,17.9819667,3.8475943,24.1273546,4.8285889ZM519.605979,559.6198281c-.7841956,5.6527705-8.7949671,4.082879-14.4680242,4.8285889.7659964-5.6548579,8.7949671-4.0625925,14.4680242-4.8285889ZM548.5437885,632.0016309c-21.5359605,18.5708636-65.9630358-7.5203067,0,0h0ZM495.4785592,699.5327317c.1386791-4.6920624,5.9101683-3.7289408,9.6593956-4.8086285-.1365265,4.6717759-5.9101683,3.7289408-9.6593956,4.8086285ZM509.9465833,791.212974c-.7639091,5.6530967-8.7949671,4.0629186-14.4680242,4.8086285.7863482-5.6327449,8.7949671-4.0625925,14.4680242-4.8086285ZM500.3093659,742.9585258c-.1387443,4.6921277-5.9101683,3.7492273-9.6593956,4.8286541.1368526-4.6918015,5.9082766-3.7489664,9.6593956-4.8286541ZM495.4785592,810.5095871c-10.6000781,14.7254219-30.8997988-5.5742988,0,0h0ZM524.4367205,829.8083527c-8.6986875,6.0466948-37.7128162,16.6089395-48.2544482,4.8286541,11.7778718-24.9515362,25.4416748-3.2787883,48.2544482-4.8286541ZM423.1170429,849.1067922c-5.3193798-29.3498677,34.2569284.5489761,28.9378747-19.2984395,21.1419711-3.5139426-3.8879716,9.5809891,9.6571778,9.6391091-8.9314936,7.164803-22.9292743,9.2454458-38.5950526,9.6593304ZM447.224111,853.9357725c-.1165009,4.6917363-5.8879901,3.7288756-9.6390439,4.8083024.1383529-4.6918015,5.9101031-3.7289408,9.6390439-4.8083024ZM403.8204299,834.6370069c5.6527705.7659964,4.0625925,8.7949018,4.8083024,14.4697854-2.9247848,2.7682979-22.8708282,11.2877333-24.107068,0-7.7355659-18.9847482,20.828345-1.688545,19.2987657-14.4697854ZM370.0336797,824.9794377c1.2565264-26.7384481,43.2087085-20.9470637,48.2544482,0-11.9549714,4.1997713-37.4169979,9.4222844-48.2544482,0ZM336.2675422,723.6600863c-1.9041303-9.3638383,21.9679791-7.0482369,14.467698,4.8304806h-9.63937c.884389-4.1029046-1.8835828-4.555275-4.828328-4.8304806ZM321.7992571,660.937353c-.8241816-10.4632255,17.0994042-2.1790749,24.1273546-4.8285889-2.1409153,24.5194524-10.1901725,5.6530315-24.1273546,4.8285889ZM321.7992571,752.6179214c7.0279504-15.9997561,11.9955445,18.8061483,0,0h0ZM345.9266117,796.0216025c-4.2999646-3.7289408-10.9158568-5.1822662-19.318726-4.8086285-1.5299055-8.5212618,27.0340054-8.6178023,19.318726,4.8086285ZM345.9266117,767.0859456c3.1600043-6.4790395,10.3066734-8.9920923,19.2966131-9.6593956,4.8486145,14.5282967-10.7572173,8.5596823-19.2966131,9.6593956ZM355.5659817,689.8933617c-1.9059567-9.3639035,21.9661527-7.047976,14.467698,4.8307415h-9.63937c.8825625-4.1231912-1.8854092-4.5552098-4.828328-4.8307415ZM365.2232247,747.7871799c14.6269898-17.8451793,16.2349756,14.6447976,0,0h0ZM389.3302927,786.3822325c-.1165661,4.6920624-5.9082766,3.7513799-9.6372174,4.8307415.1368526-4.6917363,5.9082766-3.7510538,9.6372174-4.8307415ZM379.6930753,665.7659419c1.1962538-6.0648287,9.5787713-4.8667485,9.6372174,0-2.1390889,7.0101426-4.2194055-.4901386-9.6372174,0ZM432.756152,723.6600863c-10.6000781,14.7432297-30.8997988-5.5746249,0,0h0ZM423.1170429,796.0216025c-.7841304,5.6549231-8.7949671,4.0850316-14.4883107,4.8308067.7860221-5.6549231,8.7949671-4.0647451,14.4883107-4.8308067ZM408.6287322,709.1920621c.7257495-1.3145811,10.3851451-8.9317545,14.4883107-4.8289151,3.336843,3.3371691-19.0431943,13.2902304-14.4883107,4.8289151ZM427.9274979,858.7440749c-.1186535,4.6920624-5.8901427,3.7513799-9.63937,4.8307415.1368526-4.6920624,5.9086028-3.7492273,9.63937-4.8307415ZM268.7140022,728.4905669c4.3581498-13.0746451,10.7990298,11.0324229,19.2985047,9.6372174.9028491,4.1031656-1.8835828,4.5552098-4.8083676,4.8307415h-9.6593304c.4120582-6.8507856.8038299-13.6638029-4.8308067-14.4679589ZM215.6512516,694.7241032c18.0800727-.3939242,39.047162-3.6708208,33.7661375,19.2966131-19.5721448,1.8856702-33.6095854-1.7670167-33.7661375-19.2966131ZM249.4173891,723.6600863c-.1186535,4.6918015-5.8901427,3.7489012-9.63937,4.8304806.1371788-4.6918015,5.9083419-3.751119,9.63937-4.8304806ZM239.7780191,742.9585258c-7.204789,14.4879845-21.6340013-3.5542547-19.2984395-14.4679589,15.4892657-4.2415837,9.9930473,12.5038822,19.2984395,14.4679589ZM181.8842009,718.8311712c-15.115041,2.2374558-21.5356344-4.1813112-19.2962869-19.2984395h24.107068c.6269912,8.6581144-5.8901427,10.1901073-4.8107811,19.2984395ZM152.9285183,689.8933617c-6.6942987-2.9629444-.7257495-18.5709288-9.63937-19.2966131,2.0606171-10.7972033,23.7737425-1.9638158,33.7664637-4.8308067,4.8488755,6.4209196,4.5533833,17.9438724,14.4679589,19.2987657-3.5924143,10.8756098-27.0521394,1.8835176-38.5950526,4.8286541ZM109.5023981,588.5758368c26.6200555-2.4927662,41.2852049,6.9695042,43.4261202,28.9356569h-38.5950526c3.493656-14.7432297-4.9294998-17.5695824-4.8310677-28.9356569ZM128.8011638,414.876183c8.2057441-1.7669515,9.1085931,3.769253,9.6593304,9.657243,11.6797658-12.4455014-.884389-49.1370107,9.6372827-62.7224724,11.2894945,1.5901781,19.9457825,5.7917758,28.9578351,9.6593956-20.3578407,32.2347317-22.6759208,69.613831-57.8938834,77.1904313,3.7492926-10.7187316,10.1299-18.8261087,9.6394352-33.7845976ZM181.8842009,381.1097193c16.530533-5.4377723,14.2730515,35.1010704-4.8285889,24.1273546-1.9841023-11.6215806,8.8152536-10.483773,4.8285889-24.1273546ZM278.3733978,709.1920621c.9228747-3.9060404,4.8307415-4.8107159,4.8307415-9.6593304h9.6372827c2.2574814,10.3066734-6.8892713,9.1888913-14.4680242,9.6593304ZM292.841422,694.7241032c.1386791-4.6920624,5.9101031-3.7510538,9.6593304-4.8307415-.1367874,4.6920624-5.9082766,3.7310282-9.6593304,4.8307415ZM273.5448089,670.5967487v-9.6593956c10.2863868-2.2574814,9.1867387,6.8914239,9.6593304,14.4679589-3.9078668-.9025229-4.8107159-4.8285889-9.6593304-4.8085633ZM283.2041393,313.5565055c.607096,8.6584406-5.9104292,10.1901725-4.8307415,19.3187913-13.9975198-.8844542-11.6209936-22.9492999,4.8307415-19.3187913ZM278.3733978,270.1528244c5.614611-.7860221,8.5797079,1.0594012,9.6391091,4.8086285-5.5943244.7860221-8.5778815-1.0594012-9.6391091-4.8086285ZM268.7140022,395.5777435c-14.0155886-4.1816373-5.4178119-7.2250756-4.8086285-19.2987657,14.0178064,4.2015977,5.4178119,7.2247494,4.8086285,19.2987657ZM263.9053736,646.469655c7.0282765-15.9997561,11.9952836,18.8061483,0,0h0ZM254.2460432,308.7478769c.7075503-10.5619186,12.1520966-10.3669459,24.1273546-9.6593304-4.1028394,7.164803-12.1520966,10.3850799-24.1273546,9.6593304ZM259.0767847,356.9823647c9.1870649.4904647-3.8476595,17.9819667-4.8307415,24.1273546-19.9258221-5.9888357,1.8253976-14.0377668,4.8307415-24.1273546ZM234.9497563,463.1306312c.411732-14.3511319,28.7585574-12.9178321,24.1270284,4.8289151-13.645669,3.984186-12.5060348-6.8130174-24.1270284-4.8289151ZM259.0767847,496.8952684v9.6593304h-9.6593956v-9.6593304h9.6593956ZM244.6069341,429.3641675c10.2863868-2.2574814,9.1888913,6.8892713,9.6391091,14.4680242h-14.4680242c2.5511471-3.8879716,5.0257141-7.8321064,4.8289151-14.4680242ZM234.9497563,405.2370739c.1365265-4.6920624,5.9079505-3.7492273,9.6571778-4.8307415-.1368526,4.6920624-5.9082766,3.7510538-9.6571778,4.8307415ZM234.9497563,366.6417604c-11.1914537-6.8711373,5.6142848-26.1696421,9.6571778-33.7664637,6.458753,3.1600043,8.9718057,10.3066734,9.6391091,19.2966131-6.418767,4.8307415-17.9435462,4.5552098-19.2962869,14.4698506ZM201.1829665,467.9595462v-14.4680242h19.2966131c1.473612,12.7210331-10.0696274,12.4254757-19.2966131,14.4680242ZM210.8223365,627.1708894c-2.1412415,7.00799-4.2418446-.4904647-9.63937,0,1.1781199-6.0648287,9.5788365-4.8689011,9.63937,0ZM201.1829665,443.8321917c-.6288829-8.6581144,5.9082766-10.169886,4.8086285-19.2987657,10.0914142-2.0403958,12.7812404,3.2990096,19.318726,4.8307415-2.9069118,9.9530613-7.4803207,18.2574984-24.1273546,14.4680242ZM196.3524859,347.3432557c21.4372675,9.1083322,9.8762203,29.5648659,4.8304806,48.2344878-7.4803207-12.7210331,1.8454232-27.5226437-4.8304806-48.2344878ZM220.4795796,395.5777435c.1187187-4.6920624,5.9101683-3.7292669,9.6390439-4.8086285-.1165009,4.6899098-5.9079505,3.7289408-9.6390439,4.8086285ZM234.9497563,680.2361187c-2.5914593,11.3660746-22.83306,2.9429187-9.6394352-4.8308067,3.9057795.9228747,4.7904946,4.8489407,9.6394352,4.8308067ZM210.8223365,332.8752967c-6.1253622-5.7133692-2.0424832-18.2391036,4.8289151-24.1274198-4.3383851-13.0546195-11.6419324,10.1680595-14.4682851,14.4680242-43.7979315-5.7333296-52.5928985-46.8795293-19.2987657-72.3618424,31.5674284.5689365,43.072182,21.2404032,62.7227333,33.7667898-11.5228876,11.6794397,9.6993817,49.1370107-33.7845976,48.2544482ZM172.2251314,583.7469217c13.5651099-.7072894,13.9191133,11.8184449,14.4698506,24.1273546-15.0590736,2.1972089-15.4105331-10.3066734-14.4698506-24.1273546ZM186.694982,627.1708894v9.63937h-9.63937v-9.63937h9.63937ZM138.4604942,492.0866399h19.2966131c.9431612,13.8006556.5888969,26.3263899-14.4679589,24.1073942,3.9844469-13.6236212-6.8126912-12.4858135-4.8286541-24.1073942ZM138.4604942,521.0226229h-33.7663984c-.0203518-8.0289054,0-16.0781626,0-24.1273546,14.7431645,3.5160952,14.1721407-8.3223102,28.9356569-4.8086285-3.4736956,14.7434906,4.9273472,17.5699085,4.8307415,28.9359831ZM143.2891483,482.4272442c.1186535-4.6918015,5.8901427-3.7489012,9.63937-4.8285889-.1386791,4.6920624-5.9104292,3.7492273-9.63937,4.8285889ZM157.7571072,448.6607806c17.4331211-4.5733437,6.7342847,19.0032735,9.6391091,28.9378747-17.4330559,4.5733437-6.7143243-19.0029474-9.6391091-28.9378747ZM167.3962163,414.876183c14.5282967.2152592,14.0178064,34.2569284-4.8083024,28.9560087-3.4961348-14.7432297,4.927021-17.5899341,4.8083024-28.9560087ZM167.3962163,525.8533644c.4120582,7.6368728-2.3156014,18.393764,4.8289151,19.2962869-13.1333522,14.4701767-36.3960173-25.0680371-4.8289151-19.2962869ZM177.055612,506.5545988c.9231356-3.9057142,4.8285889-4.8086285,4.8285889-9.6593304,3.9060404.9228095,4.8107811,4.8507019,9.63937,4.8307415-.9228095,3.9060404-4.8285889,4.8086285-4.8285889,9.6593956-3.907932-.9228747-4.8107811-4.8507671-9.63937-4.8308067ZM138.4604942,463.1306312c-4.1028394.8825625-4.5552098-1.8854092-4.8307415-4.8304806-10.4635516-.804156-2.1790749,17.1194298-4.8285889,24.1270936-11.6213197-1.9819497-10.483512,8.8152536-24.107068,4.8307415-.6676295-15.7060252,22.6334561-51.5534578,33.7663984-24.1273546ZM148.0977768,554.7890866c-24.2239603-3.1600696-38.9290304,6.0669813-53.0627506,0v-24.107068c32.9801155-.5108165,50.9639086-10.2482925,53.0627506,24.107068ZM152.9285183,622.3423005c13.1912112,8.8733736-15.4692401,16.3133821-14.4680242,28.9559435-9.9346012-1.3349329-4.5552098-17.9819667-14.4697854-19.2966131-.804156-13.6638029,29.7416394,4.0044725,28.9378095-9.6593304ZM167.3962163,646.469655c7.1666294,2.1006684-1.8835176,6.1635218,0,14.467698h-28.9357222c1.7067441-12.76128,24.5776376-4.3581498,28.9357222-14.467698ZM181.8842009,641.6389135c4.5555359,9.9145756,24.8531041,4.1028394,24.1073942,19.2984395-7.204789-7.262909-27.5026833-1.433365-24.1073942-19.2984395ZM210.8223365,665.7659419c-2.5129875,7.146669-7.1266434,12.1524228-9.63937,19.2987657-6.4787134-3.1802909-8.9917661-10.3066734-9.6593956-19.2987657h19.2987657ZM210.8223365,641.6389135c10.6987712-2.6495792,6.8708112,9.2091779,14.4879845,9.6593304-1.9640767,12.015244-18.7095426.2752708-14.4879845-9.6593304ZM244.6069341,660.937353c8.4431814,4.4168569,16.745466,8.9720666,14.4698506,24.1273546-15.0772076,2.1993615-15.4308196-10.3066734-14.4698506-24.1273546ZM268.7140022,694.7241032c-.1165009,4.6717759-5.8879901,3.7289408-9.6372174,4.8086285.1368526-4.6920624,5.9082766-3.7289408,9.6372174-4.8086285ZM288.0125069,757.42655c22.8127082-22.8127734-2.0806428,26.7184877-4.8083676,4.8285889-.7278369-5.7311771,2.5127266-2.5126614,4.8083676-4.8285889ZM283.2041393,723.6600863c.5867443-10.6606116,20.4544464-2.0406568,28.9357222-4.8289151,2.0425484,10.0895878-3.2987486,12.779414-4.8285889,19.2966131-15.1374801,2.2977284-12.7409935-12.976213-24.1071332-14.467698ZM316.9687765,796.0216025c-.7260104,12.0155701-16.3336687,1.4133394-19.2969392,0,3.1803561-14.4476724,10.3067386,4.6136559,19.2969392,0ZM312.1398615,762.2551389c22.1251183,3.2203421-3.8676199,29.2130803,0,0h0ZM302.5007524,241.1946631c5.2609989-10.8171637,23.6750494-8.4812758,28.9378747-19.2965478,25.3835548,15.6057666-19.3568856,47.0947884-28.9378747,19.2965478ZM345.9266117,250.8540587c-6.4993261,7.9708507-12.3492218,16.6089395-24.1273546,19.2987657-.7076155-15.1755745,12.3670296-16.5889139,24.1273546-19.2987657ZM307.3112726,294.2598924c17.706435,21.2023088-13.3302165,18.335644,0,0h0ZM365.2232247,221.8981152c2.1006684-5.9301939,6.1653482-9.9146408,14.4698506-9.6391091-2.1209549,5.9283023-6.1857,9.8946152-14.4698506,9.6391091ZM432.756152,188.1316516c13.7422747,1.7469911-50.3932109,15.4308196,0,0h0ZM471.3515307,207.4282647c21.3206362-5.7514636,42.8750568-32.4899769,62.7224071-24.1274198-7.379736,21.5562471-36.1026125,21.7915319-62.7224071,24.1274198ZM572.671143,188.1316516c.8241816,10.4634864-17.0994042,2.1790097-24.1273546,4.8086285-.8059824-10.4435912,17.1175382-2.1790749,24.1273546-4.8086285ZM611.2662608,197.7710216c-.7860221,5.6527705-8.7949671,4.082879-14.467698,4.8285889.7841304-5.6548579,8.7946409-4.0628534,14.467698-4.8285889ZM606.4557406,183.3008449c.7657355-5.6527053,8.7949671-4.0625925,14.4698506-4.8285889-.7859568,5.6549231-8.7949018,4.0647451-14.4698506,4.8285889ZM688.4566921,164.004558c-13.7600825,32.116013-38.0261813-.9028491-28.9359831-33.7667898,17.9238467-2.9831657,30.310902-11.5047536,48.2547091-14.4879845-4.8488755,22.4969296-13.3501769,41.3433901-33.7867502,48.2547744,2.1009293,7.1644768,6.1835474-1.9038041,14.4680242,0ZM669.160079,197.7710216c3.3371691,19.0410417-20.3197463,15.8026309-19.2984395,0h19.2984395ZM717.4147882,255.6626872c3.0032565-16.920413,20.1607807-4.2778516,19.2963521,9.6593956-7.1445165-2.5127266-12.1520966-7.1463429-19.2963521-9.6593956ZM813.9037242,231.5556192c12.8778461,7.047976-2.0225228,26.4632425-14.4698506,24.107068-2.1390889-4.2778516-4.2396921-8.6181284-9.657504-9.6372174-2.317754-15.1956001,22.1251183-3.6123747,24.1273546-14.4698506ZM799.4338736,173.643667h14.4698506c1.2562002,15.7444457-5.7333296,23.2226138-19.2987657,24.1273546-1.5317319-11.1911276.7860221-18.5127436,4.8289151-24.1273546ZM770.4778649,742.9585258c-2.1009293,5.9283023-6.1631956,9.9124882-14.4679589,9.6593956,2.1006032-5.9482626,6.1834822-9.9146408,14.4679589-9.6593956ZM756.009906,651.2982439c21.2022436-17.706435,18.3359049,13.3302165,0,0h0ZM770.4778649,757.42655c13.663542,26.228023-26.1295908,10.8374503-38.5953787,24.1270936-5.124081-26.0308978,31.6077405-10.2079803,38.5953787-24.1270936ZM770.4778649,588.5758368c2.1206288-5.9485888,6.1835474-9.914967,14.4879845-9.6593956-2.1208897,5.9283023-6.1838083,9.9146408-14.4879845,9.6593956ZM804.2643542,390.7691149c.2936657-.3539382-.3336517-4.7726215,0-4.8307415,23.1644939-4.1032308-22.9112056,30.9984919,0,4.8307415ZM799.4338736,607.8742763c11.9952836-18.8282613,7.0276242,15.9797305,0,0h0ZM799.4338736,318.3873122c7.0276242-15.9816221,11.9952836,18.8261087,0,0h0ZM789.7763696,284.6208485v-14.4680242c14.0758611-7.1082485,14.0758611,21.5540945,0,14.4680242ZM770.4778649,255.6626872c-2.649514-10.698445,9.2270509-6.8689847,9.6590695-14.4680242,6.3406866,1.7088967,7.5771873,8.5016276,14.4680242,9.6593956-7.2247494,11.2092615-11.7981584,7.361602-24.1270936,4.8086285ZM780.1369344,274.9614529v19.2984395c-7.0679364-4.1812459-15.293967-7.204789-14.467698-19.2984395h14.467698ZM789.7763696,660.937353c20.0041634-.6673034,2.492701,31.0366515-14.4698506,24.1273546-9.0302518-21.8898988,19.1621739-6.557446,14.4698506-24.1273546ZM813.9037242,694.7241032v14.4679589c-8.2060702,1.7670167-9.0904592-3.7691877-9.63937-9.6593304-3.8879716,2.5529735-7.833998,5.0456745-14.4879845,4.8304153.7256843-10.5437846,12.1704915-10.3666198,24.1273546-9.6390439ZM756.009906,231.5556192c-6.4790395-3.1803561-8.9920923-10.3248726-9.6394352-19.2966131,8.0292316-.0199604,16.0781626,0,24.1073942,0,4.4565167-18.9248018-25.4420009-3.5140078-28.9359831-14.4879845,8.7546549-13.7622351,29.46676-15.5495383,48.2344878-19.2987657-1.7288571,27.2090176-20.1026607,37.7912227-33.7664637,53.0833633ZM736.7111403,622.3423005c-.1365265,4.6920624-5.9076896,3.7492273-9.6391091,4.8285889.1183925-4.6917363,5.8901427-3.7492273,9.6391091-4.8285889ZM751.1790992,752.6179214c-1.0793616,6.9495438-14.3895524,1.6685846-14.4679589,9.6372174-15.5092914-5.4377723,4.6539028-13.7604086,14.4679589-9.6372174ZM775.306519,738.1277843c.9225485-3.9057795,4.8507019-4.8083024,4.8304153-9.6372174,5.9286284,2.0987767,9.9128144,6.1635218,9.6394352,14.4679589-7.7936859,1.3549585-8.3045024-4.5552098-14.4698506-4.8307415ZM818.7326392,757.42655c-4.8692272,7.9908111-20.4950195,5.2428649-28.9562696,9.6593956,5.1622406-13.9191133,14.6447976-15.9997561,28.9562696-9.6593956ZM813.9037242,429.3641675c12.0134175-18.8279352,7.0279504,15.9797305,0,0h0ZM813.9037242,284.6208485c7.0279504-15.9997561,12.0134175,18.8058222,0,0h0ZM862.1581724,173.643667c10.7369308,7.9504989-13.4688955,21.5943414-24.1270936,24.1273546,2.1587884-13.9191133,20.7499385-11.4063867,24.1270936-24.1273546ZM823.5609672,192.9402801c-9.2070253-.4705043,3.8475943-17.9620063,4.8307415-24.1071332h19.2966131c.0199604,16.1181486-19.3950452,12.7813056-24.1273546,24.1071332ZM833.2003372,154.3451623c9.9930473,12.2302422-6.4971735-10.1701469-19.2966131-4.8086285.7838695-5.614611-1.0612276-8.5999292-4.8307415-9.6593304,7.2247494-13.0365508,20.1428424,8.3625571,24.1273546,14.4679589ZM813.9037242,159.1738165c-36.3579229,29.3498677-86.831693,3.278723-106.128306,24.1270284-9.2273118-10.0514282-1.1196737-20.3578407,0-28.9556826,35.7283877-5.2025528,85.514894-29.2895952,106.128306,4.8286541ZM799.4338736,115.7497836c-3.5140078,16.6470991-14.526405,3.2185157-24.1273546,0,3.5139426-16.6288999,14.5282315-3.2202769,24.1273546,0ZM707.7754182,144.7057923c3.4937213-10.9739768,4.2978773-24.6559789,9.63937-33.7664637,24.5773114-2.0606824,37.6141231,7.4019142,53.0630767,14.4698506-15.4692401,11.8765649-38.2032809,16.4499739-62.7024467,19.2966131ZM746.3704707,86.8119741c-9.2472722,13.5473021-25.1686218-6.6337652-38.5950526-4.8285889,11.130855-15.4508453,21.4956484,10.2663612,38.5950526,4.8285889ZM712.5840467,106.1107397c-16.4502348-3.0438296-48.8618052,31.2918966-48.2344226,0-15.9597701,8.1654319-12.4657879,35.7686999-24.1274198,48.2344226-11.7981584,4.3000298-20.9270381,11.2492475-38.5950526,9.6593956-5.8701823-62.5659202,69.6720162-115.0619522,110.9568949-57.8938182ZM326.6078856,77.154731c14.9603153.4905299,26.7787602-2.1793358,33.7864241-9.63937,13.0749713,8.049192-38.0261813,38.3982535-33.7864241,9.63937ZM283.2041393,96.4513441c14.6829572-6.0469557,18.7480284-3.6708208,28.9357222,4.8304806-3.8476595,10.8756098-32.3534504,15.9212843-28.9357222-4.8304806ZM263.9053736,120.5784377c7.0282765-15.9797957,11.9952836,18.8264349,0,0h0ZM220.4795796,135.0463967c11.9952836-18.8060831,7.0279504,15.9997561,0,0h0ZM321.7992571,115.7497836c9.8343426,6.2419935,12.190191,19.966069,24.1273546,24.1274198,15.0166088-9.2070253-7.5587272-20.9470637-4.8307415-33.7664637,13.6638029-.804156,20.1025955-8.8534132,33.7664637-9.6593956,16.4321008-.3336517,17.9837932,14.1943189,24.1273546,24.1270936,16.058137-9.1867387,3.7892134-13.1330913,4.8307415-33.7664637,17.9616802-3.1803561,31.5852362-15.9797305,43.4036811,0,.629209-8.656288-5.8879901-10.1880199-4.8086285-19.2966131-11.7980931,4.2800042-20.9270381,11.2295481-38.5950526,9.63937,6.5171991-12.76128,27.0318528-11.5450658,38.5950526-19.2987657,4.8286541,6.4390535,7.9505641,14.5663911,14.4683503,19.2987657,18.7092165-.4723308,13.663542-21.2225954,4.8282628-28.9378095,5.1241462-10.9540164,30.3312538-1.8454232,43.4258593-4.8289151,3.4558878,12.6022492,17.3727833,14.7816502,19.2987657,28.9359831,30.0153446-10.4032791,77.2104569-14.8016758,106.1261534,0-9.1467527,16.5885877-33.0004672,18.4743231-53.0628158,24.1273546,9.3432908,12.1318101,29.3877664-5.6530315,43.4255331-4.8086285-17.0994042,31.1350836-31.6276357,64.8612351-62.7242336,82.0009515-1.9822759-11.6235375,8.8149275-10.4835773,4.8304153-24.1071332-16.9425912,5.574364-24.2257867,20.7880981-43.4257941,24.1071332-11.9753232-12.1321362-27.6413624-29.7822777-14.4680242-53.0652293-13.3883364,12.3691822-22.8505416,28.6222918-28.9556826,48.2547091-33.9054689-8.9317545-31.3724557,7.833998-62.7246249,9.6391091,1.7085706-6.3403604,8.5013014-7.5766003,9.6593956-14.467698-23.4397646,11.935011-47.9995292,22.7521747-67.5510613,38.5950526-33.9054037-4.6920624-47.5493114-29.6435986-67.5534748-48.2544482-3.7104807,18.3153575,29.0946225,41.59857,48.2550353,53.0831023-31.7848401,38.6756117-71.3811739,13.7041151-106.1489187-4.8286541,19.2585187,16.1184748,38.0265075,32.7452221,53.0855159,53.0630767-20.0444755,60.4268314-52.7899585-14.8597958-96.5091573-14.4680242-2.8463783-28.4251666,32.4115051-26.0711447,9.657504-48.254383,52.4176254,3.7691877,69.0446989-68.9462667,125.4467712-77.1904965ZM172.2251314,164.004558c8.2663428-1.0212416,12.5057739,8.2257697,14.4698506,0,15.9594439,7.2429486-10.0133339,11.7981584-4.8107811,24.1270936-7.1644768-4.1029046-10.384819-12.1520966-9.6590695-24.1270936ZM177.055612,217.0676347c-3.966052,12.1318101-6.3222265,25.8558855-24.1270936,24.1270284,6.7724443-9.3053922,2.6292927-29.5245538,24.1270936-24.1270284ZM186.694982,356.9823647c-11.0343145-5.0457397-29.0946878-3.0634639-38.5972052-9.6391091-.0966057-11.3660746,8.3243975-14.2127138,4.8307415-28.9559435,27.5829162-2.317754,46.5074571,14.8216362,33.7664637,38.5950526ZM128.8011638,212.2590062h19.2966131c-6.2016814,8.2641902-9.9709343,18.9629614-24.107068,19.2966131-.6273826-8.656288,5.8898165-10.1880199,4.810455-19.2966131ZM123.9907088,313.5565055c9.5809239,8.0492572,6.1250361-.4323447,19.2984395,0,.7659964,15.2540462.156813,29.1328474-9.6593956,33.7867502-18.335644,3.8676199-6.1254274-22.8127082-9.6390439-33.7867502ZM109.5023981,448.6607806c-9.540677-16.1765295,2.9069118-51.6297117,9.6593304-67.5510613,24.8934162,16.8823186-7.8920528,46.5458776-9.6593304,67.5510613ZM109.5023981,250.8540587c16.1968161-11.6616319-11.6613057,16.1768557,0,0h0ZM114.3334658,313.5565055c-6.6764909,12.6426266-2.5127266,36.0845438-19.2984395,38.6154043.5885707-18.7277418-5.8502219-44.4652348,19.2984395-38.6154043ZM99.863289,371.4703493c13.5270155,7.6955799-6.7727052,21.7130601,0,38.5953787-9.9730217-4.1612855-5.1041206-33.589625,0-38.5953787ZM85.3753045,381.1097193v38.5950526c-22.4185231,4.3784364-13.3301512-36.5727907,0-38.5950526ZM85.3753045,429.3641675c6.5374856,9.9912209,13.5854616,61.6430456-9.6390439,57.8938182-5.476258-15.8629035.295166-20.3781272-4.8289151-48.2544482,3.8879064-4.1431516,13.2117587-2.8666648,14.4679589-9.63937ZM85.3753045,496.8952684c-2.1006032,5.9485236-6.1635218,9.9145756-14.4679589,9.6593304-2.2574814-10.3066734,6.8910977-9.1869996,14.4679589-9.6593304ZM75.7362606,530.6820186h14.4695244c-7.204789,14.6851097,1.5901781,18.747637-4.8304806,28.9378095-12.3089096-.5307769-9.5609635-16.1565691-9.6390439-28.9378095ZM80.5666759,564.448417c11.3076937,8.8933992,30.6827132-5.0257141,53.0630767,0-.3336517,41.7172887-46.4471846-17.3746098-43.4239676,19.2985047-6.4790395-3.18003-8.9917661-10.3064125-9.6391091-19.2985047ZM90.205785,588.5758368c9.657504,6.418767,10.7572173,21.4172419,14.4883107,33.7664637-17.2378224,1.0793616-21.7715062-25.0702549-14.4883107-33.7664637ZM95.0350263,632.0016309c15.9790782-15.6660392,26.050532,15.5071388,28.9556826,28.9357222-23.7334955,4.4168569-15.1153671-23.4797507-28.9556826-28.9357222ZM109.5023981,685.0647076c12.7209678,1.4533254,15.843204-6.6740121,14.4883107-19.2987657,13.016199,1.4336259,8.6380888,20.3000469,19.2984395,24.1274198-9.1689309,13.4688303-30.8997988-.9025881-38.5950526-4.8286541.9025229-5.4780845,4.8285889-2.6695396,4.8083024,0ZM157.7571072,723.6600863c-21.0054446,4.9088871-22.1832383-9.9730217-33.7663984-14.4680242,11.1307898-18.9447622,33.571491-4.6136559,33.7663984,14.4680242ZM148.0977768,762.2551389c-14.9584889-1.1177821-15.0368954-17.0972516-19.2966131-28.9356569,9.1085931,6.9695042,21.3972162,10.7768516,19.2966131,28.9356569ZM148.0977768,738.1277843c5.614611-12.8978065,25.6209269-.4301922,19.2984395,14.4901371-9.8340165-1.4332998-9.4622704-13.0568373-19.2984395-14.4901371ZM157.7571072,771.9145345c15.7445109-1.2764868,10.2283321,18.7095426,24.1270936,19.2984395-5.7311771,10.0314678-29.5648659-2.2193218-24.1270936-19.2984395ZM172.2251314,728.4905669h38.5972052c-3.9865995,13.623556,6.8105386,12.4839219,4.8289151,24.1273546-15.6663653-2.8082187-22.4390705,3.2768966-33.7670507,4.8086285-3.8476595-9.0102262-8.0692176-17.6683407-9.6590695-28.9359831ZM191.5235709,767.0859456c11.3279802-1.5320581,18.120711-7.6168472,33.7867502-4.8308067,3.8476595,9.0120527,8.048931,17.6683407,9.6394352,28.9578351-23.7556085,1.236566-39.0677747-5.968223-43.4261854-24.1270284ZM225.3103211,805.6809982c17.9417198-16.8438981,24.4788793,13.1533778,0,0h0ZM234.9497563,767.0859456c13.8584494-21.0857428,36.926468,0,48.254383,9.6390439-8.9335809,7.1645421-22.9314269,9.2454458-38.5972052,9.657243-6.6942987-2.9629444-.7257495-18.5706027-9.6571778-19.2962869ZM254.2460432,805.6809982c-1.4714594-18.9829218,34.9648048-18.8863813,38.5953787-4.8285889-3.5924143,10.8755446-27.0524655,1.8835176-38.5953787,4.8285889ZM268.7140022,824.9794377c1.2383924-10.0130077,21.2023088-1.3164728,24.1274198-9.6390439,15.7445109-1.276552,10.2282669,18.7077162,24.1273546,19.2966131,12.0534035-3.3371691-8.9521063-12.8778461-4.8289151-24.1274198,30.5461215-5.5543384,39.8918911-.6854373,53.0833633,19.2987657-26.8956525,6.8708112-56.1068411,11.4445463-86.8498269,14.4680242-9.9527352-8.4994097-4.2197317-14.9385285-9.6593956-19.2969392ZM302.5007524,853.9357725c23.950255-.0203518,61.0336012-22.4990822,77.192323,0-16.3936803,8.1073119-69.1814863,27.8178096-77.192323,0ZM360.3943097,892.5308251c7.00799-7.4600342,18.8061483-10.1299,33.7667246-9.6593956-4.3584107,19.0431943-18.3961775,10.0514934-33.7667246,9.6593956ZM355.5659817,868.4034053c16.0379157-3.7891481,24.8909375,1.5520837,43.4237067-4.8285889-34.884311,23.6950098-97.449905,17.5899341-43.4237067,4.8285889ZM408.6287322,969.7230828c-.8038299-10.4653781,17.119756-2.1990353,24.1274198-4.8304153.8241164,10.4632255-17.0994042,2.1790097-24.1274198,4.8304153ZM481.0106002,882.8714294c-10.6000781,14.7432297-30.8997988-5.574364,0,0h0ZM476.1822722,935.9566191c3.18003-14.4698506,10.3064125,4.6136559,19.2962869,0-.7257495,11.9934571-16.3333425,1.3930529-19.2962869,0ZM481.0106002,897.34128c4.3965051-5.3793914,8.9720666-1.5117715,24.1273546-4.810455,4.6136559,17.3746098-20.828345,8.5397219-24.1273546,4.810455ZM558.2013577,950.4246433c-10.6004043,14.7232041-30.900125-5.5746249,0,0h0ZM558.2013577,911.8292646c.1383529-4.6917363,5.9101031-3.7510538,9.6390439-4.8307415-.1165661,4.6920624-5.8879901,3.7513799-9.6390439,4.8307415ZM567.8404015,892.5308251c-20.5346793,2.8466392-31.90108-3.4736956-48.2344226-4.8286541,8.7568075-10.5418929,37.6140579-.983082,43.4257941-14.4679589,19.7086713-1.4533254-.8241164,6.6740121,4.8086285,19.2966131ZM567.8404015,858.7440749c-57.2062283,2.2977284-97.5279854,21.4777753-154.3827542,24.1273546,1.3549585-12.3470692,46.2925241-24.2842328,43.4261854-9.6372174,9.5203904-3.3389956,12.8572334-12.8796725,14.467698-24.1274198,33.3340537-3.6726473,70.1243213-3.8676199,101.3196123-9.6593304-3.7513799,4.2999646-5.182201,10.8958964-4.8307415,19.2966131ZM548.5437885,829.8083527v-14.4679589c5.7130431-5.5565562,17.0591573-5.4780845,28.9562696-4.8308067-10.8377764,5.2428649-8.952041,23.2048713-28.9562696,19.2987657ZM577.5000581,839.4474618c14.0756654-7.0882229,14.0756654,21.574381,0,14.4883107v-14.4883107ZM582.3283861,911.8292646c2.0222619-10.7387572,25.6007056-3.7892134,28.9378747,0-5.9483279,14.6447976-16.5886529-5.2425388-28.9378747,0ZM601.6271517,931.1258776c.7860221-5.6527705,8.7946409-4.082879,14.467698-4.8285889-.7838695,5.6530315-8.7949671,4.0628534-14.467698,4.8285889ZM591.9677561,887.7021709c-16.1949896,4.9473076-7.4984547-14.9987358-9.63937-24.1273546,30.2143615-7.9124046,34.2772149-6.4209196,62.7246249,0-7.2650616,29.3299073-66.5522588-7.6371338-53.0852549,24.1273546ZM635.3936154,921.4686346c1.1577681-8.4812758,8.3047633-10.9942633,19.2966131-9.63937-1.1580942,8.4794493-8.3026107,10.9924369-19.2966131,9.63937ZM659.520709,906.9985231c3.4158366-17.4911759,35.1597774-6.6540517,53.0633376-9.657243-9.4822308,11.4444811-31.9994469,9.8162087-53.0633376,9.657243ZM664.3496241,858.7440749c4.6133298-39.2021486,53.5354075-.9025881,86.8294751-9.6372827-13.8788011,18.2753715-58.1871577,6.1435614-86.8294751,9.6372827ZM722.2434423,882.8714294c8.4409636-7.6168472,25.6972461-6.4569265,38.5950526-9.6372174-.4120582,19.8473503-26.1295908,14.3493055-38.5950526,9.6372174ZM770.4778649,873.234212c5.5943244-19.0635461,5.5943244,19.0613283,0,0h0ZM746.3704707,820.1490223c14.6651494,3.0234779,41.5404501-6.163587,48.2344878,4.8304153-4.8486145,18.237538-50.9824339,21.5341341-48.2344878-4.8304153ZM794.6049585,853.9357725c5.5946506-19.0635461,5.5946506,19.0613283,0,0h0ZM813.9037242,786.3822325c-10.6022307,14.7435559-30.900125-5.574364,0,0h0ZM809.0729827,820.1490223c1.1980803-6.0651549,9.6009495-4.8689011,9.6596566,0-2.139415,7.0098164-4.2400182-.4905299-9.6596566,0ZM804.2643542,805.6809982c4.0628534-10.4051055,24.8730644-4.0625925,28.9359831-14.4680242,5.655184.7660617,4.0847055,8.7949671,4.8307415,14.4680242h-33.7667246ZM804.2643542,776.7249895c11.6012941-3.4555617,25.6391261-17.1977711,33.7667246-9.6390439-4.6539028,9.8162087-18.532704,10.4232395-33.7667246,9.6390439ZM833.2003372,718.8311712c-1.4717855-11.1108294,13.9390737-5.3593658,14.4879845-14.4680242,13.0165252,4.3181638-2.2574814,19.5924965-14.4879845,14.4680242ZM857.3273657,800.8524093c-11.7399732-3.0235431-2.5504948-24.3626393,9.6593956-19.2987657-.0784065,9.5990578-13.1733382,6.1456488-9.6593956,19.2987657ZM842.8597329,771.9145345c7.0860703-26.1093043,29.6835194-9.1286188,43.4257941-24.1273546,14.1924924,17.6682754-29.7619911,18.3156184-43.4257941,24.1273546ZM891.0941555,694.7241032c5.9482626-6.9314099,16.6086133-9.1485792,28.9560087-9.6593956-7.2632351,6.8511769-20.8083846,17.8654659-28.9560087,9.6593956ZM900.7535511,714.0207163c3.336843-9.540677,12.8574943-12.8778461,24.1270284-14.4879845.6876551,13.5651099-11.8184449,13.9190481-24.1270284,14.4879845ZM924.8805795,685.0647076c.1368526-4.6920624,5.9083419-3.7492273,9.6394352-4.8285889-.1387443,4.6920624-5.9101683,3.7492273-9.6394352,4.8285889ZM886.2855269,675.4053119c4.945155-19.1597604,33.5493781-14.6828919,43.4036811-28.9356569,5.6549231.7838695,4.0847707,8.7949671,4.8308067,14.467698-19.751136,1.1580942-27.170858,14.6447976-48.2344878,14.4679589ZM963.4759582,689.8933617c.1368526-4.6918015,5.9080157-3.7489664,9.6391091-4.8286541-.1183925,4.6920624-5.9101683,3.7492273-9.6391091,4.8286541ZM982.774463,545.1496514c5.5746249-19.0610021,5.5746249,19.0635461,0,0h0ZM1026.1984306,472.7881351c-2.0225228-2.0221966,3.1600043,3.1419356,0,0h0ZM1026.1984306,458.3001506c16.1768557-11.6615667-11.6616319,16.1965551,0,0h0ZM997.2424219,506.5545988c-5.1441066,4.4950025-1.4917459,17.7870593-14.4679589,14.4680242-.8844542-10.5216716,3.9441347-15.3505867,14.4679589-14.4680242ZM982.774463,487.2579857c.1371136-4.6917363,5.9082766-3.7510538,9.6372174-4.8307415-.1165661,4.6920624-5.9080157,3.7492273-9.6372174,4.8307415ZM992.4116804,390.7691149c-.1165661,4.6899098-5.9080157,3.7289408-9.6372174,4.8086285.1371136-4.6920624,5.9082766-3.7292669,9.6372174-4.8086285ZM982.774463,467.9595462c-.1387443,4.6918015-5.9101683,3.7289408-9.6593956,4.8285889.1368526-4.6920624,5.9082766-3.7492273,9.6593956-4.8285889ZM973.1150673,593.4044257c-4.9088871,6.3222265-4.7320484,17.7667076-9.6391091,24.107068-12.0736901-.5870052-15.1174545-9.2070253-19.2987657,4.8308067-6.4768869-3.1803561-8.9896135-10.3067386-9.6571778-19.2985047,15.8229174-.2755317,18.4521449-13.722249,38.5950526-9.63937ZM939.3489298,588.5758368c-6.6740121-10.2083065,1.5695654-37.7327766,24.1270284-33.7867502,9.2070253,12.7412544-6.8511117,32.4518173-24.1270284,33.7867502ZM944.1771926,467.9595462c.6091834-8.6584406-5.9079505-10.1880199-4.8282628-19.2987657,9.1869996-2.0806428,12.1114583-10.4029529,24.1270284-9.657243,1.2946859,17.3928089,1.1980803,33.3725394-19.2987657,28.9560087ZM891.0941555,439.0035375c13.3883364-22.0085522,46.0169924-24.736538,72.3818028-33.7664637-1.2967733,33.3141585-45.2715434,41.4015101-72.3818028,33.7664637ZM895.9227444,410.065728c13.2920569-14.1543329,51.8290547-28.4455184,62.7246249-28.9560087-9.6012757,17.8451793-45.9972929,34.2569284-62.7246249,28.9560087ZM949.0079993,303.9171354c11.9930658-18.8261087,7.0279504,15.9816221,0,0h0ZM949.0079993,356.9823647c-18.7880144,5.3593658-34.9064239,13.3483504-48.2544482,24.1273546-6.9495438-1.0796877-1.6888711-14.409578-9.6593956-14.4679589,14.5663911-16.3936803,46.3506441-5.6146762,38.5950526-33.7664637,17.5517746-3.0838156,18.9647878,9.9730217,19.3187913,24.107068ZM924.8805795,328.04449c-13.9771681-2.707634,7.3997616-7.5384407,4.8086285-14.4879845,15.9997561,4.7320484-5.3771736,9.540677-4.8086285,14.4879845ZM891.0941555,308.7478769c-9.1085931.5289504-3.3371691,15.9394835-14.4680242,14.4680242.9429003-12.7010074,27.3074498-31.8629205,53.0630767-24.1273546-4.4364911,8.9720666-38.3398074,41.8156556-38.5950526,9.6593304ZM910.392595,265.3220829c14.5261441-4.8689011,8.5597475,10.7387572,9.6575692,19.2987657-16.9226308,3.984186-29.0344152,12.7790878-48.2547744,14.467698,3.7510538-4.3000298,5.2025528-10.8956355,4.8307415-19.2985047,10.5216716-5.5543384,31.2134901-.960969,33.7664637-14.4679589ZM852.4987767,255.6626872c11.0324229-11.4645067,31.0566119-13.9774942,53.0833633-14.4680242-7.8923789,13.4286486-34.5706197,26.9940846-53.0833633,14.4680242ZM857.3273657,241.1946631c-3.9260008-7.3996964,28.6245096-19.4352921,43.4261854-24.1270284.4120582,22.9311008-31.1553702,13.8809537-43.4261854,24.1270284Z"/>
  </g>
</svg>