<?xml version="1.0" encoding="UTF-8"?>
<svg id="blackberry" xmlns="http://www.w3.org/2000/svg" version="1.1" viewBox="0 0 1000 1036.5100482">
  <!-- Generator: Adobe Illustrator 30.0.0, SVG Export Plug-In . SVG Version: 2.1.1 Build 123)  -->
  <g id="outline">
    <path d="M524.1989754,39.9180375c15.0065869-.9482027,18.851231-13.0649319,25.532763-22.3381894-19.741124.7021826-36.5853563.650285-44.6819117,19.157062,9.5194707-.0518976,10.8505788-8.2998566,19.1491487-9.5846215v12.7657489Z"/>
    <path d="M623.1418231,106.9460091c5.259689-5.3766944,6.935251-14.339017,12.7670356-19.1438088,8.5456623.79251,12.136373,13.4424973,19.1489128,6.3767947-1.3178334-14.0782639.871107-24.6629428,6.3836357-31.9095577-16.610393,3.2981757-12.9227068,32.3125358-31.9161629,15.9613947-.6489983,9.1045476-14.7990181,21.1174816-6.3834213,28.7151771Z"/>
    <path d="M118.8474236,359.0924476c-.9031248,8.3517113,1.1621622,13.7404151,9.5711538,12.7802673,6.4034726-6.3515751-1.0000788-15.1953696-3.187754-22.3514212h-15.9613947c-3.441666,11.4542632-8.0258504,21.7662869-9.5711538,35.11717,16.0970146,1.1954667,5.5842847-24.2080885,19.1491487-25.5460162Z"/>
    <path d="M466.7436374,355.9113202c.1013075-.2843643.3487001-.6421144.7309192-1.043141-.30819.2253255-.5603006.5658764-.7309192,1.043141Z"/>
    <path d="M469.938018,365.482474c13.7602734-.078361,24.5525425-3.1038601,28.7284089-12.7667997-15.7434679-7.3874246-28.0472641-1.1468932-31.1918702,2.1525049,3.1052326-2.2703896,11.9920678,7.3418963,2.4634614,10.6142948Z"/>
    <path d="M923.1671273,368.677069c-2.8699779,6.9873416-20.3115039,17.7274987-6.3836143,22.338168.3645267-3.895255.9550438-7.557743,6.3836143-6.3767733,7.811655,7.5205354-4.7663405,5.9353438-3.194402,15.9481415,15.4149477-.5454176,12.9092821-19.0122635,22.3435722-25.532763-12.0063503,6.7413-11.2988279-1.6223778-19.1491702-6.3767733Z"/>
    <path d="M616.7594955,394.2110973c-6.8115762-6.8583483-17.38431-1.1824494-19.150414,6.375508,8.4608677-.0386444,18.7927068,1.7793572,19.150414-6.375508Z"/>
    <path d="M610.3760957,406.9766317c18.3698704,6.7797514-20.2995804,5.7412426-15.9613947,19.1438088,20.2209834,1.0771746,28.889227-9.4156971,31.9161629-25.5338353-7.9222912-.4800739-13.2404829,1.6503638-15.9547681,6.3900264Z"/>
    <path d="M738.0471593,429.3147997c2.7277529-17.3377952-19.8897612-13.4676955-25.5391752-6.3767733,4.3567358,6.3383433,19.0069451,11.9742896,25.5391752,6.3767733Z"/>
    <path d="M93.3146606,419.7436459c-2.4802316.7141276-6.2981978.0903275-6.3833998,3.1943806,2.4748917-.714149,6.2930724-.0903489,6.3833998-3.1943806Z"/>
    <path d="M725.2801023,432.5091803c-13.3440206,2.6107046-20.6822498,11.2349639-28.7268863,19.1572121,13.4678885-2.4936563,22.6747301-9.2467298,28.7268863-19.1572121Z"/>
    <path d="M351.8447348,458.0431872c12.6698456.3630256,31.9879187-3.9749027,22.338168-15.9613733-8.0258504,4.739877-18.4149269,7.1163349-22.338168,15.9613733Z"/>
    <path d="M706.1243698,470.8089575c12.4877109-6.662746,31.0651501-7.2333618,35.1105006-22.3384039-18.5652583-1.4666851-38.1425619,12.8189331-35.1105006,22.3384039Z"/>
    <path d="M731.6637594,464.4319483c-2.6557826,17.5587887-27.7988206,12.6235238-31.9227895,28.7151771,11.6751066,2.1039099,12.2470092-6.895513,22.3449876-6.3767947-.3059811,8.1947962-12.4611617,4.5587932-12.7670141,12.7670356,26.0459269,7.5709747,32.3057162-16.2860333,31.915927-31.9227895-4.3898473.142225-7.0059132-1.4935989-9.5711109-3.1826286Z"/>
    <path d="M511.4319612,483.5759287h-9.5777804c2.3245603,8.7148441-6.3436832,6.4287137-6.3836143,12.7655559,11.9676845,2.3899255,15.5530767-3.5973373,15.9613947-12.7655559Z"/>
    <path d="M514.6209805,505.9141396c-15.2337995,9.2467298-33.7021252,15.2472671-44.6829626,28.7269291,8.4807475-3.2076123,16.2539726-3.3246821,22.3447946,3.1956459-5.4937213-.16871-8.1813286,2.4537466-9.5777804,6.3889542,29.4026054-.5187611,27.1164964-17.7142884,31.9159484-38.3115292Z"/>
    <path d="M856.1404425,528.264274c2.8565103-10.3119808-10.410436-4.4936424-12.767057-9.5846-3.2076123,10.6630613,4.4285346,10.467652,12.767057,9.5846Z"/>
    <path d="M827.4120121,537.8367146c4.8314912,4.739877,14.006508,5.1428552,22.3450305,6.3889542,2.7661828-10.1817222-21.6828005-20.103978-22.3450305-6.3889542Z"/>
    <path d="M613.5638497,560.1738103c-10.875777,2.0134109-32.2792099,10.1178582-25.5325486,19.1570406.7726517-5.6107696,5.4937213-7.273057,12.7667997-6.390005-2.0983985,6.7146221-8.4487083,14.1950548-3.1890193,19.1555394,12.2856536-.4798594,18.3645305-7.1679966,22.338168-15.9611803-14.4092717-.5573841-12.4996559-7.3371355-6.3833998-15.9613947Z"/>
    <path d="M961.4666686,563.3694776c-12.1498192,3.804713-26.1695804,5.7531876-25.5325271,22.338168,10.3758662-5.5721037,24.5324912-7.376895,25.5325271-22.338168Z"/>
    <path d="M945.5052953,582.5252315c-3.5907107,10.9357809,23.2212414,9.442375,15.9613733-3.1943806-9.0192812-2.6371895-8.2665092,4.4936639-15.9613733,3.1943806Z"/>
    <path d="M789.1124709,598.4733516c14.6822057-2.3379851,32.6887717-1.3498512,38.2995413-12.765706-10.2267358,6.8051855-33.3057951.7395402-38.2995413,12.765706Z"/>
    <path d="M383.7608977,598.4733516c-11.2922013-1.714185-16.4414686,2.7143067-19.1491487,9.5846429,7.9487761-1.6225922,19.2542091.1035807,19.1491487-9.5846429Z"/>
    <path d="M364.6117489,646.3575572c8.1428987-.3765361,16.422897-.5971007,15.9547681-9.5713683-.8764254-6.5721826-11.889302-3.0134897-12.7670141-9.5843856,7.6961293,1.3112283,6.9420706-5.8315915,15.9613947-3.1824141v-12.7657489c-15.2139412-.3243812-16.3564595,13.4279789-31.9161629,12.7657489.0785969,11.6244958,16.6170196,6.7797514,12.7670141,22.338168Z"/>
    <path d="M722.0859576,665.5013661c2.3179766-9.7535459-5.507146-9.3770312-3.1892552-19.1438088,6.0857395,1.3644126,5.7730674,9.1177793,15.9547681,6.3767733-1.6225493-7.9474894.1050818-19.2475825-9.5713683-19.1425221-.213938,14.1168868-4.9217758,3.9085082-15.9611588,9.5713683,1.8763327,9.8304272.8177082,22.5974199,12.7670141,22.3381894Z"/>
    <path d="M489.0884319,697.4239196q1.2209008-11.5326671,12.7657489-12.7667997c.4681074-7.9220767.5971007-15.4932659-6.3836143-15.9613947-4.766362,12.5714118-3.7596565-.5838904-12.7655344,0-2.2927355,7.6361254-9.2800772,30.4545818,6.3833998,28.7281944Z"/>
    <path d="M785.9180688,719.7610368c.5133998,13.325449,12.8761706,14.7936782,25.5391752,15.9614162.4215712-14.2591333-12.5980683-15.0651324-25.5391752-15.9614162Z"/>
    <path d="M594.414701,764.4506259c-.8896786-7.2731213.7726517-11.9994878,6.3833998-12.767057,1.5521231,3.766519,3.4019494,7.2346914,6.382349,9.572655,5.0920299-2.3512168-.7263085-15.6235673,9.5790457-12.7667997,2.6359242-9.012676-4.500269-8.2601185-3.1956459-15.9613733-10.6617961,8.8702794-14.4746154,15.3775472-31.9161629,22.3514212,8.3970252-.9481813,2.5135575,12.3760239,12.7670141,9.5711538Z"/>
    <path d="M715.7023862,821.906157c13.4997133-.3378488,19.0720101-8.5977529,22.3447731-19.1557753-15.3375732-1.5068306-14.3321759,13.3374584-22.3447731,19.1557753Z"/>
    <path d="M565.6929187,892.1152774c2.1372573,13.8442102-16.0583488,7.3501527-12.772161,22.3513783,10.037996.9601477,24.4088163-22.2994807,12.772161-22.3513783Z"/>
    <path d="M999.7662527,537.8367146c-.4681074-8.5324092-8.525997-16.0784216-9.5724406-25.5338353-4.388775-39.5072532,11.3517977-89.4167504-22.3434864-114.8974014-5.5911257-33.8845172,9.4837858-69.3518885-5.8939329-108.5437033-7.7365108-19.7169766-25.672865-33.7063928-40.5756567-55.5245558-10.5580224-15.4813209-21.1160019-68.0850734-34.1689673-81.151292-19.9869512-19.9869297-57.4965344-23.3282104-79.0157503-40.5756353-9.3385584-7.4939004-44.8467401-55.5245772-85.4223968-46.9823247-19.5203021,4.1094504-40.5756138-68.3379346-118.7809258-43.8524515-42.917073-44.9623087-107.1190724-2.8964629-140.4380777-3.1956673-40.422323-.3630256-47.9027558,21.5467516-76.6046797,31.9227895-41.7798946,15.0915745-90.7226603,28.1430602-118.0932832,57.4433716-9.9873851,10.7016843-12.0328138,26.8439913-19.1489343,38.3115292-40.4487865,19.4297387-79.7351963,56.0405076-82.9827397,102.1318455-36.520227,13.4811846-60.4038914,39.6108339-60.643285,89.3648957-41.0271226,19.1824532-59.6376733,75.7160305-41.49523,121.2889076-33.8763895,16.532032-42.8905881,73.5856572-35.110522,121.2876637-47.8124283,44.0128407-37.6561402,176.2881829,31.9159484,191.5099516,7.4221231,36.3899684,34.6172164,69.3779446,76.605945,60.6365083,14.1301615,40.7680637,65.7859472,72.3011068,121.2876637,51.0665983,10.6165037,45.663419,66.6369599,56.0657058,111.7096689,57.455531,11.5328602,38.3247609,66.0199794,61.0140309,111.7098619,44.6763789,15.4864463,33.1820988,75.1762101,52.2342505,108.5206282,38.3114648,40.9235419,29.8190511,103.7876136,4.364885,134.054442-19.1557324,91.6843306-7.2984696,126.477098-99.0410885,153.2038266-181.9253944,63.0729486-5.8834677,91.761405-77.3000427,76.5993399-140.4434176,24.0656276-33.6250294,47.519636-92.3132347,44.682984-143.6260247ZM907.205754,301.6503842c57.4753893,6.1427196,70.4816041,162.6780049,3.1943591,181.9255446,14.8256745-9.6497079,18.6955169-30.235261,35.1051821-38.2997343-9.6629825-10.1949539-15.8377627-.79251-6.3833998-19.1557539-14.1820161-1.4163101-16.8830911,8.6496505-25.5327416,12.7657274-.9746876,6.4938216,9.2202663-.6489983,9.5779734-3.1811274.1303015,6.6095617-13.2791273,27.0645988-28.7284303,28.7269077.1170483-17.9735189,17.7089485-18.4668245,19.1504569-35.1171486-14.9613373,2.0653084-12.3253702,21.7278355-28.7215678,22.3515927-4.9353293-13.494352,21.4869193-20.272881,25.5325271-35.1183924-16.9614521-8.9610358-20.1944985,32.0263487-41.4939433,19.1570406,6.8568686-16.5584955,26.7865609-20.0268608,31.915927-38.2995627-16.8828338-5.1174425-21.0454898,29.9610617-44.6816544,28.7149627.3696307-25.1562698,23.9022575-27.1564275,31.9161414-44.6763574-11.5328387-7.1295667-25.7800485,27.2600082-35.1118302,22.338168-4.1946524-17.7023005,23.1759919-27.9224526,38.3062322-28.7284089-3.1559721-21.2345514,3.0254133-33.1434544,12.7669713-41.4939218,10.1817436-2.7277958,9.8691145,5.0256139,15.9547681,6.3900264,4.5974375-1.7925889,7.7918396-4.9737377,9.5778019-9.5711538-28.7800705-43.3518759-49.0531445,27.778705-76.6057735,35.103681,6.4033011-31.8187799,24.3836181-67.0264704,54.2610003-63.8320898ZM904.0179572,474.0046033c4.4086763-9.4289288,14.7405368-12.9225138,19.1491702-22.3382109,4.4417449,5.6878868-8.6496505,21.0002832-19.1491702,22.3382109ZM904.0179572,687.8515005c-15.5398021,1.70224-14.9360748-12.7271045-25.5340283-15.9613947-2.5906318.6105469-3.1808915,3.1958603-6.3887183,3.1958603,5.4937213,11.5326457,16.6236033,17.4281013,25.5391752,25.5325486-1.3710392,6.0775903-6.8767269,8.0126401-6.3833998,15.9613733-14.3189227-1.6490557-13.0649748-18.8578361-22.344816-25.5325271-13.2140194,3.5055086-6.7598931,12.2722288-3.1945736,19.1423077-5.0521202-.2724836-12.1697204,1.5335514-12.7668426-3.1943591-11.4476581.2594449-2.5387343,20.8699388-9.5713683,25.5327416,11.4677737,3.4284128,16.1171089,13.6753072,22.3382109,22.3514212.9802205,7.3503672-9.2213386,3.5454611-9.5711538,9.5711538-12.3388378-7.8834538-16.7805827-23.6494177-22.3447731-38.2995413-14.4746154,10.8055008,9.8769205,30.7405116,12.765513,44.6897178-7.0962836,4.5974804-15.3895136,8.0126401-28.720324,6.3767947.4014984-5.727775-3.9099879-6.7278109-3.1958603-12.7669713h9.579303c4.3953802-20.3645167-32.4626527.5451817-31.9228323-15.9612017,8.5392502,8.1693621,16.8311935-1.9217538,28.7271436,0-4.987141-18.7275561-33.707465.7273808-44.6819117-19.1425221-.3309863-9.9105038,10.038189-9.1177579,6.3823705-22.3515927,11.6763505,1.0906208,14.7989966,10.7403501,28.728173,9.5845786,3.8382749-10.0007884,7.5912834-20.078737,9.5713683-31.922768,6.3449699-5.3115651,4.058861.2859513,12.767057,0v-22.338168c8.7081532-2.3247748,6.4286494,6.3381289,12.765513,6.3767733,5.9620431-5.6760919-2.5904603-8.1044473,0-19.1425221,4.4165252,3.2981543,15.188743,12.9344588,12.7669713-3.1956459,5.6295556,2.8832097,9.8838259,7.1427769,12.767057,12.7670141,16.1753971-10.2735294,22.7078416-.9868471,35.1105434,6.3767947-1.0201945,7.4926137-5.038867,11.9862561-3.1877969,22.3501344ZM884.8675861,726.1510847c-.8379955,9.8053791-6.9288389,14.3509191-9.5780163,22.3383395-15.6688169-5.5842632-14.051586-14.208694-15.9614162-28.7283874,2.5787083-2.7397194,8.7466689-1.8951187,9.5780163-6.375508,7.4153035,2.1556359,8.5458982,10.6096197,15.9614162,12.7655559ZM840.1790692,805.9447408c-.0850091,3.1040745-3.9032112,2.4802744-6.3833998,3.1956887.0903275-3.1040745,3.9084438-2.4815183,6.3833998-3.1956887ZM821.0286123,802.7503816c-1.3898252,3.9217828-4.0840377,6.5576641-9.5713683,6.3900479,1.3898252-3.9349931,4.0842951-6.5589508,9.5713683-6.3900479ZM798.6904443,764.4506259h9.572655v9.5713683c-6.9621649.5851128-10.156524-2.6104901-9.572655-9.5713683ZM798.6904443,789.9833675c4.6493351-10.5714471,7.9419565,12.454385,0,0h0ZM789.1124709,821.906157c-10.5780952-3.1172419,3.565491-6.311644,3.1889978-9.5846215,9.2467726,1.7928248-4.8965991,4.9871839-3.1889978,9.5846215ZM795.4960423,560.1738103c-6.6947423-11.5834924-25.2215707,8.4036518-31.9161414-3.1811274-3.2408954-14.9480627,23.9740134.5718811,25.53257-9.5846,1.9482601-12.584858-17.5267924-3.7530299-25.53257-6.3767947-.5904741-2.7142853,1.2407377-3.0135112,3.187754-3.1945736v-9.5724406c8.1243271,1.8444865,15.5716269,12.7802673,22.344816,6.3767947,2.6173526-15.3762605-19.2928535-6.2333044-19.1491702-19.1425221,42.9036268,14.4280577,55.4554162-52.5080852,98.9428692-28.7282159,7.5071321-1.013525,1.8964055-15.1302189,12.7670141-12.7657274,11.5446336,61.9357273-25.4689204,137.832906-95.7551152,127.664437.2793461-4.533595.5320143-9.0391824-3.1889978-9.572655,6.8901516-5.8819665,22.0921478-3.441666,28.728173-9.5711538-4.6424726-9.4673587-12.454385,4.1944594-22.3447731,0,5.3700678-6.3381289,18.3192381-5.0907431,22.3447731-12.7655344-7.1947174-11.9745041-20.3113324,4.1293301-35.1105434,3.1811488-7.6628248-5.8183384,20.1227855-3.0656017,19.1493417-12.7670356ZM702.9353291,694.2282738c-15.013192,7.2213953-19.129269,9.8186537-35.110522,3.1956459,5.2464358-5.3899261,17.317894-3.961671,22.3447946-9.5724191-8.9740317-6.6747124.5133569-11.9995093-9.577759-15.9613947.7207327-4.5974375,9.5260759-1.1158404,9.577759-6.3887397-1.8312547-8.8053432-10.0779485-11.1950328-9.577759-22.3381894,22.395384-3.142676,25.8505176-25.2215921,38.3048597-38.2997772,7.2732929-.8962837,11.9944268.7660251,12.767057,6.3902409,8.7147583-4.0522558,12.7204779-12.8189117,19.1491273-19.157255-6.3436832-11.350511-1.5704802-13.9729676-9.5780163-22.3366883-12.5128877.2460202-9.3118805,16.2206252-22.338168,15.9479485,1.3512237-6.662746-2.1876751-8.4420817-3.1943162-12.7667997-7.7333369,2.9096946-8.454284,12.831929-9.5780163,22.3513997-7.493879-1.0267782-7.1428198-9.883783-12.7667997-12.7670141,10.6762716-12.7403148,31.0529692-15.765771,54.2609574-15.9614162,39.1625419,48.0663618,6.4019715,146.0424352-76.5993399,150.0160726,9.039354-9.05265,33.4560836-2.7274956,31.9161414-22.3516142ZM658.2536533,786.7890084c-2.5720817-1.6890726-5.1825933-3.3248751-9.5777804-3.1824356,5.0187728-2.4282911,4.7661475-10.1298032,12.7655344-9.5845786.4095833,5.727775-3.9085082,6.7413214-3.187754,12.7670141ZM661.4414073,732.5280509c.0916142-3.1040316,3.9097734-2.4669784,6.3833998-3.1811488-.0837223,3.1025734-3.9031683,2.4670213-6.3833998,3.1811488ZM645.4866177,687.8515005c7.4221445-11.4158547,18.8644842-1.6742968,35.105225-6.3887612-7.7931263,6.0389459-20.8061392,6.8568686-35.105225,6.3887612ZM524.1989754,751.6835689c-1.5386769-15.3627928,19.8113787-7.8434798,22.338168-19.155518,1.4936203-6.8051855-4.5587717-6.0775903-9.5711538-6.3769663-.6436584-10.60992,15.7924703-12.558223,22.3435293-6.3900479,1.481418-9.9863343-2.7781707-14.2458801-12.7723755-12.7657274.9934737-10.7017272,10.6818688-12.7271259,19.1557753-15.9479485,1.6106258,7.9607211,6.0325337,13.1033618,9.5713683,19.1423077-12.7523027,12.2989067-55.5843667,55.7545778-22.3435293,63.8323257-8.1243056-30.8575599,32.9613197-41.2214168,28.7269291-67.0266849,6.5072677,1.7793572,6.2597464,9.6097982,12.7670141,3.1943591-4.5389134-11.4156403-8.2532989-23.6626495-19.150414-28.7269291.9881124-4.3249325,7.9940256-2.6504427,12.7670141-3.1958603-3.2462567,8.0790347,12.0913379,20.7796542,12.7667997,35.1186498,2.5840267-.6105898,3.1811274-3.2091135,6.382349-3.1958603,7.3382077-2.7527581-9.3505678-16.610393,0-22.338168,8.6110061,4.1560081,1.9813716,23.5458371,12.7667997,25.5340283,8.338501-5.4819693-4.500269-16.5333187,0-28.7284089,22.7212878,2.7661828-.1488516,38.5722608,6.3836143,44.6897822,10.8823821.232767,9.454127-11.8320431,9.5779949-22.3515927,39.0002441,58.3250939-80.3775894,126.7813636-111.7098833,67.0266849-.5785291-6.9606208,2.6105116-10.1550228,9.5711538-9.5713683,2.7995088-10.246637-8.2718706-6.6228149-9.5711538-12.767057ZM469.938018,735.722453c8.0006736-15.3630502,19.5920579-3.778271,0,0h0ZM469.938018,789.9833675c-5.8702359-4.8182381-9.4408953-21.5322546-3.1943806-28.7271436,15.0330718,4.3888179,6.7398417,18.0134714,3.1943806,28.7271436ZM479.5157984,716.5798879c-9.7533314,3.0134897-10.0059567,15.5197722-22.3435293,15.948163,1.122467-4.1812277,5.6161094-5.0123607,6.382349-9.5713683-3.9352075-4.5722179-10.9744253-6.038903-19.1493632-6.3767947-8.162757,5.0123607-15.7604311,22.610909-28.7281944,12.7670141,4.4936424-10.403788,23.2026484-6.5975523,25.5338353-19.1572336-15.5011792-9.9090027,14.9027917-18.2208258-6.3834213-22.338168,3.4869584-28.4409779,44.4290505-19.4150487,35.1105434-60.6496972h12.7670141c4.5587932,13.8960863-10.909296,14.6753432-3.1892337,22.3513997,11.7351105,1.0906422,9.6497293-11.6364408,12.7670141-19.1570406,3.9153278,5.6494139,6.2146899,12.9359386,12.7670141,15.9613947,7.5259396-.9868471,5.9340785-11.0914521,15.9547681-9.5713683,11.7468625,39.079034-8.1828083,69.2344328-28.7217823,86.1704937-8.7081746,2.3247533-6.4286708-6.3381074-12.7670141-6.3767947ZM453.9766232,754.8794721c-6.6680644,1.3498512-8.4474216-2.195567-12.7657274-3.1959032-1.013332-5.6359034,17.8831699-5.7010542,12.7657274,3.1959032ZM434.8274745,751.6835689c-.4800739,7.9357802-10.8055008.9364722-12.7670141,0,.4813606-7.9339788,10.8121274-.9346708,12.7670141,0ZM326.3121862,509.1085202c1.4783513-10.8111624,5.3212798-16.3956401,10.3028451-19.4710423-4.5703522,2.3979032-9.9918458,3.8424782-16.6864594,3.5096475,7.3836931-7.0909223-1.0838012-12.4411318,0-22.338168,6.8064507,1.493363,6.0790914-4.5590076,6.3836143-9.5713683,11.9025552-3.3897899,5.0520988,11.9610579,15.9545537,9.5713683,7.4941149-4.6361034-6.7011759-14.3242841-9.5711538-19.142565-.7660251-10.7401142,11.8506576-16.49461,19.1491487-9.5845786-1.3244815-11.6364837,11.967899-17.2606566,22.338168-25.5338138,64.5797793,33.1315094,11.4677523,127.2362392-44.6816758,134.054442,8.4089702-8.6097194,18.3564242-15.6886752,25.5325486-25.53257-1.0652296-13.8309141-22.3699928-7.415475-28.7215893-15.9613518ZM307.1564324,671.8901058c.0903275-3.1038386,3.9085082-2.480253,6.3833998-3.1943806-.0852021,3.1040316-3.9031683,2.480253-6.3833998,3.1943806ZM310.3508129,716.5798879c-3.9285809-1.4030355-6.5525387-4.0906429-6.3834213-9.5845786,3.9283665,1.4030355,6.5523457,4.0908573,6.3834213,9.5845786ZM303.9673916,662.3189519c-9.1818364-5.3382645,5.9285456-12.9227068,12.7668211-12.7657489,3.0722069,11.5715474-14.3441424,2.6743327-12.7668211,12.7657489ZM275.2402695,505.9141396c10.8958498-3.9870836,17.5385015-12.2470092,28.7271222-15.9481415-3.4286273,10.6485429-20.4353718,20.284826-28.7271222,15.9481415ZM300.7728181,528.264274c-.0837223,3.1040316-3.9031683,2.4682865-6.3833998,3.1956459.0916142-3.1172634,3.9097734-2.4815183,6.3833998-3.1956459ZM236.9407068,563.3694776c4.5974375-1.7793786,7.7851915-4.9737163,9.5777804-9.5711538,10.7734616,6.6227934,5.4552913,26.3504498,9.5713683,31.9093218-7.6030354,6.3635415-15.6303869-14.0131132-19.1491487-22.338168ZM256.0898555,627.2018034c-.0839368,3.1038172-3.9085082,2.4802316-6.3821346,3.1943591.0903489-3.1040316,3.9085082-2.4802316,6.3821346-3.1943591ZM227.3627119,569.7596971c10.7083538,4.2848084,26.0711466,20.6107298,19.1557753,31.9093433-10.4928717,2.3247319-4.8900154-6.3381289,0-6.3767947-5.9353652-8.1563449-30.7723578-9.9621655-19.1557753-25.5325486ZM169.9140005,726.1510847c-1.4162887-2.8445867-2.8061139-5.7145647-6.3833998-6.3900479.0251982-13.7923126,15.0516434-12.5968245,19.1489343-22.3371172,19.2608357,7.6231296,4.0522344,25.0913335-12.7655344,28.727165ZM179.4917809,735.722453v-6.3755509c2.7143067.583869,3.0068631-1.2475573,3.187754-3.1958174,6.1946171-1.2726054,4.6627813,14.5331181-3.187754,9.5713683ZM141.1855916,758.0606209c-1.2593307-6.1814283,14.5397662-4.6625883,9.5779949,3.195603h-6.3836143c.5853487-2.7142853-1.246099-3.0134897-3.1943806-3.195603ZM144.3799722,738.9180559c.2726981-4.5322868.5266316-9.0391824-3.1943806-9.5711538,2.9417338-5.585507,9.9807585-7.0524495,19.1557753-6.3902194-.5187397,3.7143641.7021611,5.6745907,3.1892337,6.3902194-2.7078946,6.8568686-7.863767,11.2854032-19.1506284,9.5711538ZM166.7249812,735.722453c13.4610689,4.1557507,1.3112283,20.1822747-12.772354,15.9611159,3.2210585-6.3633271,7.9739528-11.1815651,12.772354-15.9611159ZM102.8860289,572.9408459c2.558614-14.4547571,27.2149516-6.8319063,28.7284089-22.3384039,14.7656921,7.5844423-19.5335338,28.5849186-28.7284089,22.3384039ZM122.0364643,582.5252315c3.7011324-12.6100562,3.7011324,12.6113429,0,0h0ZM58.2041386,566.5638153c22.0257318-3.5067739,25.3836969-25.6881984,44.6818903-31.9227466,3.6372898,7.0005733,8.2413539,13.0397122,6.3833998,25.5327416-17.097072,6.5589508-33.3709029,25.3649109-51.0652901,6.390005ZM86.9312607,601.6690403c-5.5908898,6.1162346-3.7596565,19.6492954-15.9613947,19.1557539,3.3114074-8.4021506,2.5786868-20.8313159,15.9613947-19.1557539ZM112.4638093,474.0046033c5.1560869-.8963052,5.4939357,3.012203,9.572655,3.1943806-.3897464,8.1163923-4.6439952,12.3772678-12.7670356,12.7670141-1.3046017-7.6895242,5.8315915-6.9486972,3.1943806-15.9613947ZM131.6144378,493.1471255c3.4668857.79251,2.1622625,6.3503098,6.3833998,6.3902409-8.8903308,2.8046342-7.5724759,15.8309002-19.150414,15.9611803,1.2275274-10.4806907,9.3317603-14.0782639,12.7670141-22.3514212ZM125.2308235,429.3147997c4.6493351-10.5712327,7.9421495,12.4545994,0,0h0ZM141.1855916,515.4985466c1.279425,11.9093748-2.5453609,18.7275776-12.7670141,19.1425221-5.9285242-6.85689-.4734473-21.7011791,12.7670141-19.1425221ZM134.8021918,458.0431872c.0916142-3.1040102,3.9097949-2.4815397,6.3833998-3.1956244-.0837009,3.1037958-3.9031468,2.4802101-6.3833998,3.1956244ZM137.9978376,391.015237c.2979177,5.3766944,3.1811488,20.572064,3.187754,35.1052036-11.5580798-9.351833-11.0393401-26.0006774-3.187754-35.1052036ZM163.5306006,636.7861889c-7.3450488,7.545991-17.9032427,11.8826754-28.7284089,15.9481415,1.4282766-13.46791,16.4480952-13.3374155,28.7284089-15.9481415ZM160.3413669,378.2494881c-3.408576,2.9737731-.9934737,11.7789018-9.5777804,9.5713683-.5772424-6.9619075,2.6105116-10.1565026,9.5777804-9.5713683ZM157.1469863,445.2761945c.0903275-3.1038172,3.9085082-2.4802316,6.3836143-3.1943806-.0852021,3.1040531-3.9099879,2.480253-6.3836143,3.1943806ZM160.3413669,429.3147997c-.4602156-10.0260295,8.1828298-10.9610005,15.9547681-12.7667997-4.1041319,5.4682657-6.5975952,12.5594454-15.9547681,12.7667997ZM185.8753952,381.4440832c-.605207,12.1684123-17.8127008,7.7147009-19.150414,19.1425221-5.0975842-4.440694,11.8053652-26.6618352,19.150414-19.1425221ZM166.7249812,327.1831257c.7858835-4.0122818,6.3447555-3.2211014,6.3833998,0-1.4150234,4.6358889-2.8048487-.3245956-6.3833998,0ZM205.0245439,391.015237c-11.4290865-1.3379277-15.3576674-10.1817008-15.9613947-22.338168,12.6233094-7.6495931,27.422306,15.143472,15.9613947,22.338168ZM192.2575298,323.9885522c7.1242268,1.3898252,11.3771889,5.6494139,12.7670141,12.7657274-8.1230404-.3897249-12.3772892-4.6493565-12.7670141-12.7657274ZM214.5956978,355.9113202c8.9808942.5971007,13.59819,5.5458333,12.7670141,15.9613947-4.0456078-8.3250548-18.1956061-4.6757986-9.5711538,3.1811274-3.2795827,7.1308534-10.987657-7.856926-9.5792602-15.9613947,3.7143856.5200264,5.682504-.7009173,6.3833998-3.1811274ZM220.9793121,317.6117574c8.032477,3.2078268-2.5389702,14.1034621-9.5713683,12.7670356-2.7995088-10.2481382,8.2787116-6.6242946,9.5713683-12.7670356ZM246.5184872,352.7156743c-.3897464,8.117679-4.6493351,12.3772463-12.7723755,12.7667997-2.7407702-2.5718458-1.8963626-8.7399994-6.3833998-9.5711538,2.7010535-6.1175642,13.9998814-8.6362043,19.1557753-3.1956459ZM227.3627119,327.1831257c2.8699779-5.6494139,7.7080958-9.3253481,9.5779949-15.9613947,4.4351397.5851557-1.6559182,17.1955487-9.5779949,15.9613947ZM361.4173898,161.2056798c8.219973-2.4151023,11.0899509-10.1817008,9.5777804-22.3370957,7.5457765,4.1559652,6.1495391,17.2463526,9.5713468,25.5327416-17.6956739,1.4549545-27.1045299,11.1950328-41.4875097,15.9613518-.9161635-16.8709102,15.0317636-16.8843349,19.1491273-28.728366,7.2081636,1.7928033-3.8698423,4.9739307,3.1892552,9.5713683ZM438.0218551,132.491961c-4.4285131,8.3370642-16.4933662,9.0392253-25.5325486,12.7655773.1356199-5.4672578-2.3766509-8.271892-6.3836143-9.584407,7.818496-5.9992078,15.6103142-12.0383681,28.7217823-12.7657274-.2726981,4.5322868-.5266101,9.0391824,3.1943806,9.5845571ZM450.7888692,330.378793c10.4742786-.5067732,15.3111097,13.0249793,9.5711538,19.1425007,13.5516323.7792783,17.1889221-8.350446,31.9227895-6.3767733,3.6558614-10.0394757-5.0136474-7.7665985-6.3833998-12.7657274-6.0325337.3497938-2.2209797,10.5447478-9.5777804,9.5711538-12.4998489,1.8566459-8.1497183-13.1300826-15.9616092-15.9613947,8.4489227-12.8321649,26.7402176-15.8189981,41.4941577-22.338168,10.7602299.9481813,9.2600044,14.1433717,19.150414,15.9613733,7.1229615-.4800739-4.1440416-8.0525497,0-15.9613733,15.6622117,11.4544562,12.3174998,27.5074652,15.9613947,54.260936-6.0910364-1.3644126-5.7730459-9.1177793-15.9613947-6.3900264-5.6827185,5.8967208,14.9679425,12.5329604,9.5777804,28.7281944-10.422381.8433353-6.7665196-12.3905209-15.9613947-12.7670141-7.5257037.9868471-5.9351508,11.0780059-15.9545537,9.5713683-3.0587607,16.7274199-26.0978245,33.6502491-47.8775576,41.4941577.0386658-6.3370995,8.7081746-4.0509477,6.3833998-12.7657489-20.8313159,1.5068521-18.3378312,26.3504713-38.2995627,28.7269291,3.5708738-15.5716698,18.2594701-20.0388702,25.5325486-31.922575-.5197905-3.7397982-5.8181239-2.6878218-9.5777804-3.1811274,18.0452748-16.468168.1554782-38.8196106,0-51.0785433,9.9675268-9.0261866,10.4809052,10.7533674,19.1491487,12.765513,11.2215177-8.843816-12.6034296-21.0653696-3.187754-28.7136545ZM457.1722691,237.8182729c13.1486542-1.5455179,4.5389348,15.5716483,0,15.9478842-9.3635636-2.7010106,4.1494029-8.0258289,0-15.9478842ZM476.3216323,148.4399524c10.9742108,8.1815431,21.149092,17.1555962,25.5325486,31.9227251-8.7852704,1.8567103-13.3310248,7.9475322-22.3383824,9.5714112-1.720833-11.2855747,5.1627135-13.987915,9.5726336-19.1425221.5586708-5.2092712-20.878088-6.4553702-15.9613733,3.1811274-13.0847902,1.3896108,1.6623089-21.2345085-6.3834213-12.7670141-8.5392502-3.7130988,8.3118231-8.3372357,9.5779949-12.7657274ZM466.7436374,113.3347488c.5185252-3.7395837,5.8249649-2.6876073,9.5779949-3.1943806-.5135928,3.7410849-5.8185528,2.701075-9.5779949,3.1943806ZM552.9207577,145.2575383c-.5133784,3.7011324.7075224,5.6760919,3.1943806,6.3767733.9733795,7.3636204-9.2215745,3.5456756-9.5779949,9.5713683-8.0391036-5.7784073-15.2337995-12.4146469-15.9547681-25.5325486,3.9604057,11.9488984,15.4281366,6.8701003,22.3383824,9.584407ZM536.9659895,94.178995c.7846182-4.0123033,6.3434687-3.2210799,6.3821346,0-1.4150234,4.6493137-2.8048487-.3244026-6.3821346,0ZM543.3481241,84.6078411c1.3898252-3.9219543,4.0853244-6.5591653,9.5726336-6.3770092-1.3898038,3.9219543-4.0789123,6.5459336-9.5726336,6.3770092ZM613.5638497,215.4666373c-10.6551695.0266994-8.4540481-12.8174105-15.9547681-15.9613947,2.9351072-5.570817,9.974132-7.0390247,19.150414-6.3769877,2.5575418,11.0662539-4.7543955,12.2737085-3.1956459,22.3383824ZM597.6090815,138.8685841c11.7084112,14.0252726-8.8305413,12.1301539,0,0h0ZM603.9926958,225.0512373c-2.5774215,2.7407916-8.7468405,1.896384-9.5779949,6.3767947-12.1233557-2.9084722-2.3313799-12.8308782-3.1890407-22.338168,10.0326561-.4668421,10.9622658,8.1828083,12.7670356,15.9613733ZM594.414701,135.6731313h-6.3833998v-6.3769877h6.3833998v6.3769877ZM613.5638497,276.1178356c9.4037306-6.5457191-2.4484282-18.5853525-6.3833998-22.3516785,2.0785402-3.2462138,7.3448343-3.2981114,6.3833998-9.5711109,10.0074365-1.4934059,9.000731,8.0258718,12.7670141,12.7655344-2.5654551,13.3908142-11.2151055,20.7024942-12.7670141,35.1186498-7.9927603-10.1430778-17.0586421,2.4415657-35.1039169-3.1959246,11.1166503-11.4674735-14.4293445-20.3379674-3.1956459-31.9227251,12.7151166-1.0120453,8.6428094,14.7671718,19.150414,15.9613733,8.440795-11.7786659-15.046518-18.8830343-12.7670141-35.103681,13.0328926,10.3638569,17.5201229,29.2855785,31.9161629,38.2995627ZM664.6370531,426.1204406c24.8438551-10.4290291,43.194918-32.8058414,73.4101062-28.7149627,45.3189221,22.3633662,25.2666486,103.3393216,3.1877111,130.8587961-5.3952446,6.7278753-30.4159159,18.2607569-9.5711109,3.1956459-8.6229726-5.87-9.1564452-2.2207652-6.3836572-15.9613733-50.1754186,31.8576387-75.383543-30.6113681-41.4939004-70.2223522-14.5196934-4.0135686-23.3769127,22.753327-41.4939433,25.532763-.4096047-22.6627851,40.0137477-24.3118622,22.3447946-44.6885169ZM671.0191877,269.7275947c-6.6680858-1.8444865,4.5974375-12.0514068,3.1892552-19.1425221,11.0579117.6876427,18.5319323,8.0260648,15.9611588-9.5858867,7.9408842-.4933271,9.8771779,5.0138618,15.9547681,6.390198-.4615023,17.6237465-11.4609113,24.7014156-15.9547681,38.2996056,18.8567853.8046266,6.1109162,6.7280683,9.5713683,19.1557539,13.422639-2.5453823,12.0847114-19.8446832,19.1557324-28.7269077-5.9470743.441408-10.6683798,2.0904852-12.7723326,6.3767733-.8642874-9.8970791,3.0455289-38.286331,19.1557324-47.870931,23.3250365,16.3763393-2.675598,50.6757797-9.5777161,67.0267063,7.3050748,5.0123607,15.3642511-16.429545,19.1490844-25.5325486,6.9553024,53.7795968-46.1048056,75.1695835-63.8322828,114.8974014-1.298018-13.0649319,16.5719631-34.4414724,25.5340283-47.8707165-13.4877898,2.4934418-11.7282909,11.9224135-9.5792602-6.3902409-2.9735586,3.4032361-11.7722966,1.0000788-9.5711967,9.572655-8.6682006-2.8966773,3.2529047-11.1831092,3.1890836-15.9481415-4.5270113-.2859513-9.0394397-.533301-9.572655,3.1811274-13.8627818-21.3116257,5.4099989-39.4034367,6.3835714-63.8323257-.7927031-4.0135686-6.3502883-3.220844-6.3835714,0ZM699.74097,177.1670746c.3243812,9.8969933-3.8965631,15.2472671-6.3833998,22.338168-2.5639539-1.6875071-5.1813065-3.3246392-9.5713683-3.1811274-2.3179337-14.0263663,6.8568686-16.5584955,15.9547681-19.1570406ZM709.3189434,359.0924476c3.695578-12.6100562,3.695578,12.6233094,0,0h0ZM706.1243698,346.3269346c5.2983119,9.1162782-13.2735515,17.9216213,0,0h0ZM693.3575701,378.2494881c-9.7853492-3.1305166,3.6690717-8.5204427,3.1956459-12.7670141,9.7853492,3.130731-3.6691146,8.5193919-3.1956459,12.7670141ZM878.4839289,365.482474c-9.5579007,5.3382645-16.9029494,12.8962219-28.7268863,15.9616092,7.2333189-6.8570616,20.1492061-20.5855102,28.7268863-15.9616092ZM849.7570426,298.4560036c3.6942913-12.6113429,3.6942913,12.6100562,0,0h0ZM852.9447537,461.2375892c-12.064853,2.7277529-11.2921799-14.2858327-6.3835714-19.1557753h9.5792602c2.3112857,9.7654909-5.5069744,9.3889977-3.1956887,19.1557753ZM833.7956693,263.3508c-3.2144748-9.6097982,7.1107377-5.6626457,12.765513-6.3902194-2.0971332,4.2862666-6.8184386,5.9485969-12.765513,6.3902194ZM808.2630993,474.0046033c-9.5980462-.1435118-9.2734506-22.6628065,3.1941447-19.1570406-4.2410171,6.741107,1.5719814,9.4421391-3.1941447,19.1570406ZM798.6904443,474.0046033c10.1497044,2.8048487,10.8119344,12.8173891,6.3833998,22.3368813-9.1297243-.441408-5.8368885-13.3109306-6.3833998-22.3368813ZM798.6904443,429.3147997c-5.8954341-6.1040752,13.949292-13.5462925,15.9545537-22.338168,4.7864562,5.0003728-9.8889299,17.6104719-15.9545537,22.338168ZM817.8408583,451.6663925c6.7332151-2.8445653,9.4289288-9.7283048,19.1491273-9.5845786-4.3633409,12.6619323-4.3435255,29.7018098-22.3449876,28.7271436,3.6759342-3.7662831,3.6108263-11.2855962,3.1958603-19.142565ZM792.3014687,422.9380265c-1.7208116-11.3772104,24.9222376-21.8448624,28.7271436-38.2995627,3.9031683,13.546271-20.8699817,25.8703759-28.7271436,38.2995627ZM792.3014687,505.9141396c-17.2273306-3.0920652-13.0595706-23.9101494-3.1889978-31.9095363,9.4156756,8.701548-2.8565103,24.5978135,3.1889978,31.9095363ZM785.9180688,458.0431872c-15.1754898-7.8449595,8.9409631-16.4294807,0,0h0ZM776.3467006,419.7436459c-2.3962948-9.0526286,9.2335624-28.1046088,28.7271436-25.5325486-8.6629037,9.4274276-14.765928,21.4019532-28.7271436,25.5325486ZM773.1510547,505.9141396c4.6559831-10.5727339,7.9421709,12.4543421,0,0h0ZM763.5799009,403.7822512c6.1175642-6.6495142,12.233756-13.2989856,22.338168-15.9613947-3.8634088,8.8956921-11.4491593,14.0782639-22.338168,15.9613947ZM750.8128867,391.015237c12.4676381-3.4803318,15.4945526-16.4162704,28.7216107-19.1425221-5.480511,17.8180406-14.2337421,21.6494531-28.7216107,19.1425221ZM741.2348704,547.4080829c4.9872268-15.0650896,15.8125431-4.246357,0,0h0ZM655.0577715,655.9287111c8.4807475.0399311,18.2276668-1.2076691,22.3449876,3.1958603-.7660251,4.6106693-26.2667275,7.4153035-22.3449876-3.1958603ZM667.8248071,671.8901058c-.0837223,3.1040316-3.9031683,2.4815183-6.3833998,3.1958603.0916142-3.1040316,3.9097734-2.4817327,6.3833998-3.1958603ZM661.4414073,560.1738103c2.7142853-4.7264094,8.032477-6.8570616,15.9613518-6.3754865-2.5188759,6.2849446-11.1618998,11.4675164-15.9613518,6.3754865ZM683.7862019,585.7076456c4.7396626,2.7142853,4.6175103,10.2854959,6.3833998,15.9613947-9.8250659,2.3766509-6.1361359-8.7532311-15.9611588-6.3767947-.9749021-7.3636204,9.2200518-3.5454397,9.577759-9.5846ZM671.0191877,541.0312882c-10.0512492-1.5454965-7.2265422,9.7919758-19.1491487,6.3767947.520005-3.7011753-.707308-5.6758989-3.1941661-6.3767947,2.8883565-5.6241943,11.7468625-5.2731137,12.7655344-12.7670141,4.6757986,2.7662043,10.1178582,4.7795937,9.5777804,12.7670141ZM655.0577715,633.5918083c11.3056689-1.7274382,7.851822,11.2988279,19.1506713,9.5713683-1.3700098,7.1428198-15.7273625,1.2979966-22.3384039,3.1943806-1.3578074-6.674691,2.1823138-8.4542626,3.1877325-12.7657489ZM658.2536533,624.0193892c1.0451354-7.4674155,3.8314124-13.1952119,6.3833998-19.1559898,12.1233772,3.8316269,11.2469518,20.6626274,15.9547896,31.9227895-11.6499299-.0516831-14.3324118-9.0778482-22.3381894-12.7667997ZM677.4027591,608.0579945c2.5202055-7.3371569,11.1630364,5.4937213,15.954811,6.3767733-4.4353542,13.9093395-11.0395545-2.3380065-15.954811-6.3767733ZM690.1696017,556.9926829c-6.4352974,4.3381856,13.9866497-14.3642366,19.1493417-19.1559683,4.9617927,5.1680534-11.480984,16.0252373-19.1493417,19.1559683ZM616.7594955,633.5918083c-7.2664518-1.5587282-16.3056342-6.3381289-22.3447946,0,13.337437,1.0771532-1.811375,9.8054434-12.7670141,12.7657489,3.6240366-7.0125398,10.6765075-10.6098985,12.7670141-19.1557539-46.2350856-4.2343905-24.3184673-57.5339349-22.338168-79.7937205-12.0582264,4.9739307-23.6827222,10.3771101-31.9227895,19.1557324-4.6879795-18.5838299,36.7542807-18.5319323,41.4939433-38.2995413-4.3898687-7.2465935-15.9094972,5.1174425-19.1489343,9.5724406-5.117657-29.5461171,80.0527579-18.97467,60.6430706,6.3889542.4813606,5.8966994,10.8053078,1.9482601,12.7670356,6.3767733,4.9284453,38.9752604-10.5261762,57.5591331-19.1493632,82.9893663ZM632.7142637,703.8128738c-1.3379277-1.3498941,2.0907211,2.0787761,0,0h0ZM575.264287,659.1245714c6.6759777-7.156266,17.8191129-9.8453531,25.5338138-15.9613947,5.1614482,6.4154391-12.9876217,16.6620761-25.5338138,15.9613947ZM540.1537435,617.6304351c-3.7397982.5187183-2.6878218,5.8182955-3.187754,9.5713683-4.1959391-1.1305948-5.0204884-5.6110055-9.5792602-6.3770092,5.4618965-5.1825718,11.6178692-9.6629825,22.345009-9.5711538-1.3964518,3.9219329-4.0842736,6.5457191-9.5779949,6.3767947ZM540.1537435,639.9672949c3.7011324-12.6100347,3.7011324,12.6113644,0,0h0ZM489.0884319,572.9408459c-2.3764364-7.1949533-17.9030283-1.2463135-25.5338138-3.1811488-24.0459837-27.3253305-2.9419483-63.4440591,12.7670141-86.1837683-17.481693-13.1048201-21.7013506,28.4676987-31.9163773,22.3382109-11.8186184.8431209,2.0655229-9.9224488-9.5777804-12.7670141-12.3187651-.6103753-8.5778946,14.8310359-22.338168,12.7670141,4.2529621-18.0785793,24.253145-20.4165858,38.2995627-28.7151557-2.1039528-9.5592088-6.8250223,3.0521341-12.7670141,0,58.1177825-44.7534532,114.8203271-19.6238827,98.9441344,44.6765504-8.92237,36.1424256-33.2940216,66.6753899-67.0279716,82.9878651-3.7464033-6.8701003,28.2669066-19.3765758,19.150414-31.9225536ZM453.9766232,592.0963853c10.7083538-7.7132212-7.7147009,10.7017272,0,0h0ZM453.9766232,636.7861889c12.7016704,16.5200441-16.6304658,12.3241049,0,0h0ZM422.0604604,582.5252315c2.1304377-10.636362,8.208028-17.3377523,22.3447946-15.9614162-3.12389,9.1816434-14.4878472,21.4818368-22.3447946,15.9614162ZM438.0218551,665.5013661c-9.499398-.2727195-8.5392502-19.026782,3.1890407-15.948163,1.0186504,7.4020717-.5133998,12.2457439-3.1890407,15.948163ZM422.0604604,662.3189519c11.7987601,9.6762142-9.6950217,10.7533888,0,0h0ZM402.9113116,333.5599204c5.6812387,2.3380065.4602156,5.8048707,0,9.5846-5.6827185-2.3380065-.4614808-5.8050852,0-9.5846ZM399.7222924,327.1831257c3.6957925-12.6100562,3.6957925,12.6113429,0,0h0ZM390.1445119,288.8833057c2.5718672-2.7527366,8.7399994-1.8950544,9.5777804-6.3886968,8.9554601,5.129409,17.5265351,23.1947565,9.572655,35.1171486-6.6960505-9.2732361-14.0464391-17.8829555-19.1504354-28.7284518ZM374.1829028,295.2603577h12.7670356c1.5519086,7.2730784,6.3370566,16.3124753,0,22.3513997-5.30496-6.4034726-11.5779381-11.8320646-12.7670356-22.3513997ZM383.7608977,349.5212937c3.6957925-12.6100347,3.6957925,12.6098417,0,0h0ZM310.3508129,362.2883293c.6037059-2.5853134,3.2009857-3.1824141,3.1890193-6.3770092h6.3887397c1.4882805,6.804971-4.5641116,6.0775903-9.577759,6.3770092ZM319.9285719,442.0818139v6.3887397h-6.3887397v-6.3887397h6.3887397ZM326.3121862,212.2855099c-4.7279106-1.6623303-8.0459232-4.7279106-12.772354-6.3902409,1.1290722-4.194245,5.6227146-5.0136474,6.3887397-9.5711538,2.5654551,1.687743,5.1759667,3.3248107,9.572655,3.1811274.408318,5.7277964-3.9097949,6.7413214-3.1890407,12.7802673ZM319.9285719,308.0271574c-.2592519,10.389291-4.0840377,17.1955273-12.7721396,19.1559683-.4164243-7.8703936-.4802883-15.376239,3.1943806-19.1559683h9.577759ZM335.8833401,384.6384638c-.0837009,3.1040316-3.9084867,2.4682651-6.3821131,3.1823927.0903275-3.1040316,3.9085082-2.4682651,6.3821131-3.1823927ZM332.6955861,362.2883293c3.6945272-12.6115574,3.6945272,12.6098417,0,0h0ZM323.1178271,346.3269346c4.7661261-3.7410849,3.7594421-13.2605556,12.765513-12.7670141-.3897249,8.1296455-4.6427085,12.3772678-12.765513,12.7670141ZM316.7342128,333.5599204c-.9734009-7.3503886,9.221553-3.5457185,9.5779734-9.5713683,9.3251337,3.5708738-4.0641794,10.3773245-9.5779734,9.5713683ZM310.3508129,375.0538423c-2.8567462,8.6244737-12.9545316-1.4801527-9.5779949-9.5713683,7.3636204-.9733795,3.5454611,9.2215745,9.5779949,9.5713683ZM307.1564324,451.6663925c-.0852021,3.1040745-3.9033827,2.4668283-6.3836143,3.1811703.0905419-3.1040316,3.9099879-2.4669998,6.3836143-3.1811703ZM310.3508129,458.0431872c8.6242378,3.4671001-5.5257605,17.623725-9.5779949,9.5713897-.9733795-7.3506031,9.221553-3.5456756,9.5779949-9.5713897ZM342.2667399,435.7050406c-11.8572628,4.6877221-22.3765979,9.8703368-22.338168-9.5846,7.818496-6.8835679,23.6043398-2.3765008,22.338168,9.5846ZM342.2667399,416.548c12.0330282,2.4548189,15.2607133-3.8952764,25.532763-3.194595-3.3953228,7.1176216-24.4021897,22.1959215-25.532763,3.194595ZM358.2281346,371.8727149c-1.6623089,4.7144644-4.7276961,8.0391036-6.3833998,12.7657489-6.7665196-1.0120453-.6942693-15.1302403,6.3833998-12.7657489ZM348.6503756,346.3269346c6.6693511-15.5199652-1.6557037-9.5075043-9.5713683-12.7670141.5187183-3.7011538-.707308-5.6746121-3.1956673-6.3767947-1.2142742-10.7922691,5.5338883-13.6235812,9.5792816-19.1559683,12.8308567,6.3251116,13.0448591,25.2600435,25.5325486,31.9227895-.4480561,9.1297243-13.3122388,5.8315701-22.3447946,6.3769877ZM358.2281346,304.8447433c3.707759.5067732,5.6761133-.7141276,6.3836143-3.1943591,8.4089916,11.4942158,23.8384149,21.4034329,12.7670356,35.1038954-7.9688489-9.0513419-18.5268498-15.5184641-19.1506499-31.9095363ZM355.0337755,256.9605806c6.6428662,1.8711215,10.3185859,6.7145792,15.9613947,9.5726336-1.1303589,4.1944594-5.6173962,5.0256139-6.3834213,9.5846215-6.7731248-3.2078268-15.4678532-12.8840624-9.5779734-19.157255ZM351.8447348,209.089864c9.4874315-.6876641,11.2535569,11.3771889,6.3833998,15.9613733-8.2665307-4.1041105-10.0326347-6.6095617-6.3833998-15.9613733ZM364.6117489,202.7008884c3.6943128-12.6113215,3.6943128,12.6100562,0,0h0ZM370.9951702,276.1178356c12.8374833,2.3113071.1821561,14.9732609-6.3834213,6.3767733.7858835-3.4683654,6.3434687-2.1558504,6.3834213-6.3767733ZM377.3787845,362.2883293c7.9406483-12.442633,4.6493137,10.5844215,0,0h0ZM383.7608977,282.4946089c-2.0454287-12.9744114-20.5188797-22.520367-12.7657274-35.105225,16.117066,3.0269788,17.7208721,20.5721069,28.7271222,28.7284518-2.7076801,4.7396626-10.2788907,4.6106693-15.9613947,6.3767733ZM370.9951702,212.2855099c7.9408628-12.4556502,4.6493137,10.5714471,0,0h0ZM415.6770605,272.9219539c-4.5256817-.2724836-9.0381101-.53195-9.5713683,3.1958818-5.0454722-9.9489338-21.0002403-25.6895494-19.1557539-31.9227895,14.8508942-7.246808,24.8117944,14.7404939,28.7271222,28.7269077ZM393.3333382,193.1282548c7.9474894-12.454385,4.6561547,10.5727339,0,0h0ZM422.0604604,282.4946089c-.9868471,4.3368989-7.9874205,2.649156-12.765513,3.1943806-.8965196-5.1558939,3.0188296-5.4937427,3.1943591-9.5711538h6.3833998c-.520005,3.7011324.7008958,5.6746121,3.187754,6.3767733ZM422.0604604,391.015237c-1.3697525,8.8317852-10.0392612.1689244-6.3833998-6.3767733,3.4683654.7792569,2.1622625,6.3381289,6.3833998,6.3767733ZM428.4438602,509.1085202c7.7986377,8.0126187-17.4347064,10.0646739-19.1489128,19.1557539-12.572913-12.7922123,16.4346276-11.0647527,19.1489128-19.1557539ZM441.2108958,518.679674c-2.7728094,4.676013-4.7796151,10.1178582-12.7670356,9.5846-.9680396-8.4155968,6.6629604-8.2334406,12.7670356-9.5846ZM422.0604604,464.4319483c3.7011538-12.6100562,3.6958139,12.6115574,0,0h0ZM444.4052549,445.2761945c10.7083538-7.7147224-7.7144865,10.7017272,0,0h0ZM447.5930089,435.7050406c10.7085468-7.7147224-7.7132212,10.7014698,0,0h0ZM428.4438602,445.2761945c-.7273593-11.3639572,4.590811-16.6887969,15.9613947-15.9613947-5.604143,5.03906-6.6227934,14.6621114-15.9613947,15.9613947ZM469.938018,438.886168c-6.0775903,1.3763362-8.0192452,6.8835465-15.9613947,6.3900264,2.5067165-8.1296455,5.7995523-15.4813209,12.7670141-19.1557539,4.3313446.9868257,2.6491774,7.9993655,3.1943806,12.7657274ZM479.5157984,432.5091803c-.6289255-9.1429775-.4014984-17.4148695,9.5726336-15.9611803-4.8248647,9.2345917,4.6679067,14.5463713-9.5726336,15.9611803ZM498.6664268,426.1204406c-10.3572518-6.1175428-3.8514852-19.1305771,0-31.9093433,14.3960185,5.5974949,8.0126187,25.0390285,0,31.9093433ZM505.0498267,375.0538423c12.7204779-1.246099,19.5121957,14.0011681,12.7657489,22.3516356-7.7200622-3.9871051-10.3241617-13.0916312-12.7657489-22.3516356ZM501.8541808,225.0512373c-1.0654226-7.4541623-3.2729561-13.7538613-9.5713683-15.9613733,7.0842957-4.6228502,7.194696-16.2074149,22.338168-12.7657489,2.7463459,2.5707949,1.8965985,8.7402139,6.3836143,9.5711538-.5133784,3.7397982-5.8183169,2.6878218-9.5726336,3.194595.9881124,4.324718,7.9874205,2.6504427,12.7670141,3.1956459-4.246357,7.4539479-14.26042,9.1429775-22.3447946,12.7657274ZM521.0045948,225.0512373c-.3709389,8.1309322-.5985804,16.4162275-9.5726336,15.9479485-.6289255-9.1295313-.3948718-17.414891,9.5726336-15.9479485ZM492.2828125,189.9340887c9.2401461,1.7925889-4.8966205,4.9869695-3.1943806,9.5711538-10.5780523-3.1159981,3.5642686-6.2984122,3.1943806-9.5711538ZM495.4705665,231.428032c-7.9673477-9.0511489-18.5253486-15.5197508-19.1489343-31.9227895,10.8956353,6.1307745,14.9092039,19.143766,19.1489343,31.9227895ZM482.7050321,240.9991858h9.5777804c-3.2595099,4.1959391-3.1305166,11.7669353-6.3833998,15.9613947-10.0061712-2.2075335-4.1626346-8.5059457-3.1943806-15.9613947ZM492.2828125,256.9605806c7.9421495-12.4411318,4.6493351,10.5846789,0,0h0ZM521.0045948,196.3241151c.0452924-6.3515751,8.7066949-4.0654661,6.3821346-12.7670141,11.4942158,5.2730709,25.6045189,24.5207177,12.7670141,35.1051821-7.6162671-6.2078488-11.181801-16.4811852-19.1491487-22.338168ZM533.7701292,170.7915666h9.5779949c5.1306742,7.6361254,10.5007635,15.0251585,9.5726336,28.713676-8.5392502-7.4155179-14.9546893-16.9482204-19.1506284-28.713676ZM527.3867294,221.8568782c11.2016594,2.5186829,3.6891874,11.1563669,0,15.9613947-7.1163349-.4800739,4.1438271-8.0525712,0-15.9613947ZM543.3481241,256.9605806c-.9415761,6.5072677-8.6364187,6.2599609-9.5779949,12.7670141-5.3952875-.5719025,1.4869938-15.1686702,9.5779949-12.7670141ZM552.9207577,467.6145769c5.1558939-.8964982,5.4990826,3.0254562,9.5779949,3.1943806,1.2659573,6.1946171-14.5399592,4.6625239-9.5779949-3.1943806ZM546.5371434,461.2375892c-1.4867793-6.8182027,4.5643475-6.0775903,9.5779949-6.3900264-1.3964518,3.9351861-4.0842522,6.5589508-9.5779949,6.3900264ZM562.4987526,403.7822512c-.6761694.4027208-1.3709534.7868056-2.0790977,1.1575086-4.5081609,5.9939323-15.6478648,24.1569201-26.6495256,24.37504.8854324-16.1212907,15.482822-18.529509,26.6495256-24.37504,1.401856-1.863873,2.1635921-2.5530597,2.0790977-1.1575086ZM546.5371434,432.5091803c8.4993191,8.3636992-9.3383654,21.0004548-19.150414,12.7670141,5.3247969-5.3115651,15.364294-5.921919,19.150414-12.7670141ZM543.3481241,572.9408459c5.4937213,4.687765-4.4285131,20.935111-15.9613947,19.1555394-1.1875963-12.895793,10.9157081-12.4928363,15.9613947-19.1555394ZM540.1537435,598.4733516c-.3245956,8.1948177-11.889302,5.1307171-15.9547681,9.5846429-6.5004267-2.6493704,10.1046264-8.7534456,15.9547681-9.5846429ZM536.9659895,732.5280509c-.520005,3.7408705-5.8183384,2.7008176-9.5792602,3.194402.520005-3.7397982,5.8183384-2.6878647,9.5792602-3.194402ZM556.1151383,566.5638153c5.7079166-.9482027.2007492,12.3773107-6.3833998,9.5713897-1.7594988-7.0776691,6.0974486-4.5457544,6.3833998-9.5713897ZM559.3095188,646.3575572c-.0905634,3.1040316-3.9085082,2.4802316-6.3887612,3.1956459.0903489-3.1040316,3.9085082-2.4815183,6.3887612-3.1956459ZM578.4599328,461.2375892c.0837223-3.1038386,3.9018816-2.480253,6.3836143-3.194402-.0918287,3.1040531-3.9099879,2.4802744-6.3836143,3.194402ZM613.5638497,464.4319483c-11.4344263,7.7014692-9.0579899,29.2351821-28.7203026,28.7151771,9.8955565-9.2467726,15.1819234-23.1176608,28.7203026-28.7151771ZM581.6476868,496.3414846c3.2210585,9.5978532-7.1094939,5.6626671-12.7655344,6.3902409,2.0971332-4.2864811,6.8235426-5.9488114,12.7655344-6.3902409ZM565.6929187,486.7703308c1.3898252-3.9351861,4.0842522-6.5579,9.5713683-6.3902194-1.3898252,3.9351861-4.0842736,6.5591439-9.5713683,6.3902194ZM629.5252444,438.886168c-8.1614703-6.5576641-13.9479839,9.6881807-25.5325486,9.5843856,11.7468625,5.0523132-3.2729561,19.3900435-15.9613947,19.1440233,2.8832097-5.6242158,7.1427984-9.8838045,12.7667997-12.7670141-9.5393291-17.9735189-41.6175753,16.767351-19.150414-9.5713683-2.7010535-9.3503319-10.2720497,1.9097873-15.9547681,0-1.5186041-10.0260295,3.980457-13.0395192,9.5713683-15.9613947.9814858-3.8698423-9.2202877-10.9994519-9.5713683-3.1943591-.9667743-13.4160339,2.5003043-30.1951154,15.9547681-38.2995842-15.6301725-9.1429561-26.7335911,13.6101565-41.4939433,15.9613947,20.8061177-23.8836644,40.0336489-49.3391173,79.793506-54.2609574-2.4736264,10.987464,1.7795716,15.2472671,12.7670141,12.7670356,10.0779271,22.1944418,7.1496394,57.1174677-3.1890193,76.5978387ZM600.7981008,308.0271574c10.7136936,2.9218755,1.5841623,5.9353652,3.194595,15.9613947-6.9222123.5454176-1.4483494-11.3253128-3.194595-15.9613947ZM629.5252444,266.5332141c6.9420492,9.233498-4.9019819,26.8956744-9.5779949,35.11717-7.3183494-9.6111064,9.0712216-22.7279144,9.5779949-35.11717ZM648.6758729,327.1831257c6.6360466,3.7795148-1.4684007,19.5587534-12.7670141,15.9613947-.8446221-10.4292221,12.3838943-6.7665196,12.7670141-15.9613947ZM655.0577715,477.1989839c-2.6356883,8.0006522-11.1815651,10.0913733-15.9547681,15.9481415-4.8566894-3.0137042,7.6561982-15.5199652,15.9547681-15.9481415ZM658.2536533,435.7050406c3.6945058-12.6115574,3.6945058,12.6100562,0,0h0ZM655.0577715,368.677069c10.7083538-7.7134357-7.7131998,10.7017057,0,0h0ZM651.870039,359.0924476c-11.2016594-2.5054726-3.6876862-11.1551017,0-15.9479271,11.2016379,2.5199482,3.6825608,11.1563884,0,15.9479271ZM642.2922586,323.9885522c-9.6764287-8.8570692,6.7596786-18.5851381,9.5777804-25.5325486,5.6109626,11.2988279-4.0321616,14.8043365-9.5777804,25.5325486ZM645.4866177,256.9605806c-16.9680787-.9866327-4.4605309-10.6750278-3.1943591-19.1423077,7.0524709.3895105,1.3564993,13.5328248,3.1943591,19.1423077ZM632.7142637,205.895269c4.7597354-10.5193351,9.0127189,5.4287635,12.772354,6.3902409-5.4672364,11.2204454-6.4352974-8.0139054-12.772354-6.3902409ZM632.7142637,158.0245524c-.0849876,3.1040316-3.9031683,2.4669998-6.3833998,3.1811274.0903275-3.1040745,3.9085082-2.4669998,6.3833998-3.1811274ZM626.3308638,151.6343115c.0903275-3.1038172,3.9085082-2.4802316,6.3833998-3.1943591-.0849876,3.1040316-3.9031683,2.4802316-6.3833998,3.1943591ZM632.7142637,244.1950461c-6.5390711-1.155793-8.0457087-23.5325839-12.7670141-15.9613947-2.3632047-3.9738519-2.9084293-13.0781636,0-22.3383824,15.5265918.4416439,19.565573,25.7800485,12.7670141,38.2997772ZM584.8435471,218.6622831c-9.2602188-.5719025-7.6961293-15.1699569,3.187754-12.7670141-5.5656916,6.5072249,2.3764579,6.2599609-3.187754,12.7670141ZM578.4599328,148.4399524c.0837223-3.1038386,3.9018816-2.4683294,6.3836143-3.1824141-.0918287,3.1040316-3.9099879,2.4682651-6.3836143,3.1824141ZM578.4599328,234.6236779c-5.5975164-2.9229478-11.0912377-5.9351508-9.5777804-15.9613947,9.974132-1.454783,10.2015805,6.8183743,9.5777804,15.9613947ZM568.8821524,247.3893838c-4.3648636-5.6107267-16.72208-11.6231876-9.5726336-19.1557324,6.7665196,3.2076123,15.4612266,12.8825613,9.5726336,19.1557324ZM546.5371434,164.4013257c2.5774215-2.7407702,8.7468405-1.8963626,9.5779949-6.3767733,7.545798,9.935702,2.6105116,15.7405728,6.3836143,25.5325486-8.7534456-2.9483604-13.3442565-10.0645238-15.9616092-19.1557753ZM533.7701292,167.5957063c-12.3174783-3.6357886-12.0193676-19.8965808-22.338168-25.5325486,10.1244633-7.9739743,26.5860047,18.80596,22.338168,25.5325486ZM521.0045948,164.4013257c-2.2090132,6.3116654-8.514052,8.5061173-15.9547681,9.5713683-1.2674585-13.6235812-14.13014-15.6621903-15.9613947-28.7151557,17.7727911-12.0514068,23.4474033,11.6499084,31.9161629,19.1437874ZM482.7050321,100.5692144c-11.0329494-9.1948536,7.7399206-15.4548359,15.9613947-15.9613733,1.8564529,12.5062611-13.1300612,8.1561304-15.9613947,15.9613733ZM473.1270587,193.1282548c-1.4096835,4.6375831-2.7995088-.3244026-6.3834213,0,.79251-4.0120888,6.3500953-3.2196217,6.3834213,0ZM469.938018,205.895269c-.6238001,11.4158547,17.8445256,20.2476828,6.3836143,31.9230039-4.8769767,12.9344374,4.4936424-20.6758591-6.3836143-6.3902409-4.6228502-3.88331-4.2796615-12.7403362-12.7657489-12.7657489.3897464-8.1174646,4.6427085-12.3772678,12.7657489-12.7670141ZM438.0218551,381.4440832c-14.6033943,1.1942015-16.6037664-10.1949539-12.7657489-19.1557539,9.8891443.7525575,9.9542736,11.3240046,12.7657489,19.1557539ZM425.2561062,209.089864c7.9408842-12.4545994,4.6493351,10.572498,0,0h0ZM425.2561062,400.5866053c13.830957,1.3377132-3.3645703,18.5332405,0,0h0ZM422.0604604,164.4013257c.8578538-5.4685231,6.8117906-12.5462351-3.187754-12.7670141,5.4538116-5.1810706,11.6166039-9.6614813,22.3381894-9.5711538-10.4743,3.3500518-5.7730674,21.8834639-19.1504354,22.338168ZM409.2949474,180.3626775c-2.8580329-8.8450169-12.3574309-11.0527648-19.1504354-15.9613518.8762324-6.5721826,11.8903743-3.0002794,12.7667997-9.5711538,15.585116,1.5839478,11.9862776,16.1036198,6.3836357,25.5325057ZM402.9113116,151.6343115c-6.7146221,2.1039528-14.1886427,8.4555064-19.150414,3.1958603,5.3062252-6.4034726,8.5723617-14.8323226,19.150414-15.9615877v12.7657274ZM386.9499384,180.3626775c-8.5911478,1.896384-25.9555995-1.7792928-22.3381894,15.9614376-3.7410635-.520005-2.6944269-5.8183384-3.1943591-9.5843856-7.8902519,3.8179448-12.4744577,10.9342797-15.9547681,19.1555394-14.2990859-16.0517222,17.4667456-36.5853563,38.298276-38.2995627,7.818496,4.2478367-3.5057445,11.8707304,3.1890407,12.7669713ZM339.0790074,266.5332141c24.0978598-.441408,3.7079734,28.0394795,25.5327416,25.5460162-2.7142853,4.7264094-8.0326914,6.8568471-15.9613733,6.3767733-.3763002-12.8054655-19.7144247-18.6504818-9.5713683-31.9227895ZM345.4626217,301.6503842c-2.0401102,6.4673152-14.922886,2.1039528-15.9613947,9.5713468-10.7017272-5.4288064-10.5076046-20.7277352-3.1890407-28.7271222,12.7802673-.0132317,10.5778593,14.9613159,19.1504354,19.1557753ZM307.1564324,196.3241151c-8.701548-15.1953696,18.2472892-22.1173675,22.3447946-35.1184353,5.4405584,11.9358597-13.7538613,26.5977567-22.3447946,35.1184353ZM307.1564324,253.7661571c-18.5588676-4.5973947-13.5198075,5.5723611-31.9161629,12.767057-.1622978-21.9099917,40.0257356-46.0928606,31.9161629-12.767057ZM278.4346501,276.1178356c-.9802205-7.3636418,9.221553-3.5454611,9.5711538-9.5846215,12.2151844,2.7529511,3.2345047,16.6236247,0,22.3500916-5.6812387-2.3364625-.4600011-5.8048278,0-9.5843856-.5118987-3.7397553-5.8181239-2.6877789-9.5711538-3.1810845ZM278.4346501,298.4560036c3.6945058-12.6113429,3.6945058,12.6100562,0,0h0ZM294.3894182,470.8089575c11.2734152,1.8060351,1.6302911,15.013192-6.3836143,15.9613733-7.7065946-7.4155179,4.9871625-8.5458554,6.3836143-15.9613733ZM275.2402695,295.2603577c-4.7345372-2.7143067-6.8636882-8.0260863-6.3836143-15.9614376,10.7269254-3.2729132,4.9673042,9.9355305,6.3836143,15.9614376ZM284.8180499,387.8208564c-11.0126622,3.4671001-23.4552951-19.0267605-25.5325486-35.1051821,12.409307,7.8063151,17.1555962,23.2731175,25.5325486,35.1051821ZM275.2402695,419.7436459c-15.013192-14.6885964-33.0597535-29.897455-28.7217823-57.4553166,23.5458371,10.4409527,22.3648673,36.0520981,28.7217823,57.4553166ZM281.6236693,489.9659981c-.5133784,3.7395837-5.8183384,2.6878218-9.5726336,3.1811274.5133784-3.7395837,5.8183169-2.6878218,9.5726336-3.1811274ZM201.8301633,435.7050406c-12.1500551-2.7409846-17.2807293-12.5197287-19.1506284-25.5325915,2.5786868-2.7541949,8.7402139-1.8965556,9.5779949-6.390198,12.188485,2.7008391,15.3576674,14.4280577,19.150414,25.5325486-2.5786868,2.7409846-8.7399994,1.8965985-9.5777804,6.3902409ZM198.6409296,470.8089575c-10.0059567-2.2077479-4.1624202-8.5061602-3.1943806-15.9613947,11.4995771-3.0521555,5.6626671,13.7803462,3.1943806,15.9613947ZM173.1083811,445.2761945c4.766362-3.7408919,3.7596565-13.2603412,12.7670141-12.7670141-4.4818904,4.0270147-.1821561,16.8444038-12.7670141,12.7670141ZM185.8753952,569.7596971c-.7927031,3.4668857-6.3515751,2.1556359-6.3836143,6.375508-3.1038172-.0905419-2.4802316-3.9087012-3.1956459-6.375508,4.1957247-3.831391,5.020274-1.2475787,9.5792602,0ZM230.5570925,413.353405c-1.1290722,4.1944594-5.6161094,5.0258283-6.3833998,9.5846215-12.7138513-2.3113286-21.9219581-21.1307348-19.1491487-28.7269291,2.8379387-2.4817327,7.2079491-3.429914,12.7670141-3.1958603-1.227506,12.9359386,8.7133,14.6888108,12.7655344,22.338168ZM246.5184872,451.6663925c-8.9289966,9.7401211-12.0129555-9.3769883-3.1943806-12.7802244,11.1884062.8708925-5.7664408,14.1433932,3.1943806,12.7802244ZM240.1350874,410.1724492c-11.1751744-2.6625807-12.9865708-14.6768015-12.7723755-28.728366,6.2531413,6.5070533,18.851231,6.6879227,19.1557753,19.1425221-6.8115976-1.4801527-6.0842168,4.5587503-6.3833998,9.5858439ZM208.2122979,467.6145769c5.6173747.7792783,7.279705,5.4937213,6.3833998,12.7655344h-9.5711538c-.4096047-5.7265526,3.9031683-6.7265885,3.187754-12.7655344ZM205.0245439,442.0818139c2.9150345-5.5975164,5.9353652-11.0912377,15.9547681-9.5726336,1.1756298,9.6896604-10.3958961,6.6242946-15.9547681,9.5726336ZM214.5956978,461.2375892c.4615023-1.234154,6.7598931-5.6494139,9.5779949-3.194402,6.3063041,5.480511-14.0902304,15.2205892-9.5779949,3.194402ZM224.1736926,426.1204406c2.8379387-2.4683294,7.2079277-3.4284343,12.7670141-3.1824141v9.5711538c-5.656255-.726094-15.9814675,3.2210585-12.7670141-6.3887397ZM208.2122979,541.0312882c4.1957247,1.1303589,5.020274,5.6107696,9.5792602,6.3767947-.7726303,5.6226717-5.4937213,7.2732929-12.7670141,6.3902409-1.3511594-6.6761922,2.1876751-8.4555708,3.187754-12.7670356ZM224.1736926,528.264274c-.8896786-6.7013903-8.5260185,4.6241369-12.7657489-3.194402,11.3639572-16.6622477,26.4224416,9.5978746,28.7271436,22.3382109-8.4807475-.0264849-18.2342719,1.2076476-22.3435293-3.1824141-2.734358-10.1949754,5.0190087-9.8825178,6.3821346-15.9613947ZM230.5570925,512.3028793c14.526513,1.4417228,30.1180196,15.222069,22.3447946,28.7284089-12.4477584-3.5202415-25.43538-19.9098125-22.3447946-28.7284089ZM252.9018871,426.1204406c11.7989745,9.6883951-9.6948073,10.7536033,0,0h0ZM252.9018871,458.0431872c3.6945058-12.6113215,3.6945058,12.6100776,0,0h0ZM252.9018871,515.4985466c7.4941149,1.0122383,7.1430128,9.8705513,12.7670141,12.7657274-1.9882127,5.8315701-13.3387022-5.5191339-12.7670141-12.7657274ZM192.2575298,394.2110973v6.375508c-10.0964987-.5187183-10.6684012,8.4939792-22.3435293,6.3900264,2.6357098-7.9993869,11.181801-10.1031253,15.9613947-15.9613947,2.5840267.6105469,3.1811274,3.2078268,6.3821346,3.1958603ZM176.296135,464.4319483h6.3833998c1.4936203,6.8051855-4.5587717,6.0790914-9.5711538,6.3770092.6037273-2.5840267,3.2009857-3.1811274,3.187754-6.3770092ZM185.8753952,639.9672949c-7.0138051,9.7535459-20.4430707-3.6744116,0,0h0ZM176.296135,588.9020047c2.9351072-5.570817,9.9807585-7.0390462,19.150414-6.3767733-2.9351072,5.5723182-9.974132,7.0392392-19.150414,6.3767733ZM198.6409296,655.9287111c-.0903275,3.1040316-3.9085082,2.4817327-6.3833998,3.1958603.0849876-3.1040316,3.9031468-2.4802316,6.3833998-3.1958603ZM185.8753952,560.1738103c9.8238006,2.3777446,6.1294878-8.7534456,15.9547681-6.3754865,1.3697525,6.0775903,6.8769413,8.0126187,6.3821346,15.9613733-11.3959964,7.3636418-18.8433391,5.2848872-22.3369027-9.5858867ZM211.4079438,662.3189519c.8963052,8.3382866-1.1690033,13.7271619-9.5777804,12.7670141-5.7664408-5.4804895.9800275-12.5596598,9.5777804-12.7670141ZM205.0245439,588.9020047c7.5325448-16.1035983,22.3249363,1.6889868,28.7215678,6.3902409-6.8634737,18.8832702-24.4286746,4.2730563-28.7215678-6.3902409ZM252.9018871,550.602442c-3.0773537-13.7137157,15.6756579-5.5975164,15.9547681-15.9613733,6.3052318,2.2077265,8.5127653,8.5206572,9.5779949,15.9613733-6.505788-.9349496-6.2597678-8.6362043-12.7657489-9.5711538-.819188,12.5195143,11.5382215,11.8572842,9.5713683,25.5325271-13.5981686.8311759-12.727083-12.8054441-22.3383824-15.9613733ZM275.2402695,598.4733516c9.7400783,10.6631042-9.3637995,7.0789773-12.7670141,9.5846429-9.4408953-4.6228502,12.3973405-4.2598032,12.7670141-9.5846429ZM272.0510358,588.9020047c-2.3245603-8.7013336,6.3383433-6.4286708,6.3836143-12.7667997,7.7665985,2.0001791,1.6890082,16.1303191-6.3836143,12.7667997ZM307.1564324,643.1631766c-10.0979999-9.2866823,3.8632157-21.4937604,15.9613947-19.1437874,1.2725625,12.9743685-13.5849368,9.8184393-15.9613947,19.1437874ZM310.3508129,614.4347678c13.2603198-16.7274199,24.8382579-5.1560869,0,0h0ZM422.0604604,531.4599199c-5.0057555,7.7533668-13.5780958,11.9478262-25.5325486,12.7657489,4.3181129-8.4540481,17.8896035-7.6495716,25.5325486-12.7657489ZM434.8274745,531.4599199c4.6172959,10.0394971-12.4942946,25.7149406-28.7217823,25.532763,6.9036193-11.1817796,23.5071712-12.663219,28.7217823-25.532763ZM422.0604604,706.9953094c.5001466,8.9475682-9.0193241,10.4157545-12.765513,6.3902194,2.0971118-4.2862666,6.8235426-5.9486184,12.765513-6.3902194ZM418.8727064,758.0606209c-2.7142853,4.7409493-8.032477,6.8702933-15.9613947,6.390005,5.1492673-3.6625094,10.1031253-12.532746,15.9613947-6.390005ZM635.9088587,525.069872c5.5323871-4.0389598,8.3634848-10.7920118,19.1489128-9.5713254,4.6241369,12.0648316-8.7651762,6.1162346-6.3818987,15.9613733-8.7083891,2.3247748-6.4222801-6.3515965-12.7670141-6.3900479ZM865.7115963,451.6663925c6.6749269,2.895219,9.7336661,9.4156971,9.5779734,19.142565-6.0842383,1.3644126-5.7730245,9.1177579-15.9614162,6.3900264-1.0519335-11.7015916,3.545504-17.7407519,6.3834427-25.5325915ZM849.7570426,633.5918083c-10.6631042-1.1954882-3.5853922-16.9747267,6.3833998-15.9613733-1.364434,6.090822-9.1244059,5.7783858-6.3833998,15.9613733ZM814.644998,646.3575572c1.1239467,11.4942158,4.8833888,15.3775043,0,25.5325486-5.7265311.4029781-6.7332151-3.9085296-12.765513-3.1943806-4.1239688,12.6365411,10.5062964,6.5189769,6.3836143,19.1557753-5.6761348,5.9618072-8.1112884-2.5972799-19.1506284,0,4.1824715-30.9346771,27.0660786-43.1562736,44.6831985-60.6496972,10.2984917,8.4540267-2.7143282,20.4802353-6.3836572,25.5325271-6.62942-1.7793357-6.7598931-4.9737163-3.1877111-9.5711538-5.1559153-.8964982-5.5003693,3.0121815-9.579303,3.1943806ZM801.879485,697.4239196c-.7660251,13.3376514-11.8641253-3.6238222-15.9614162,6.3889542-2.7142853.5851557-3.0068846-1.246099-3.1889978-3.1943591v-6.3902409c9.7599151-2.31135,9.3902844,5.5071889,19.150414,3.1956459ZM884.8675861,624.0193892c-11.0714222-2.5707949-12.2724433,4.754181-22.344816,3.1824141-.4217856-7.8704365-.4802883-15.3775472,3.1888263-19.1438088h15.9615877c9.928861,13.4676955,21.3246644,25.480651,25.53257,44.676336-10.5646275-6.453869-23.8835143-10.1562881-22.338168-28.7149412ZM891.2509859,601.6690403c.520005-3.7024191-.7075224-5.6758989-3.194402-6.3767947.7912448-3.4683654,6.3436832-2.1690821,6.3821131-6.3902409,3.2475863,2.0787546,3.2996554,7.3384436,9.5792602,6.3902409-2.1039528,4.2850014-6.8250009,5.9353652-12.7669713,6.3767947ZM884.8675861,582.5252315v-12.7655344c10.7986384,3.6744545,5.0202525,6.3368636,19.1503711,3.1811488-2.7089239,6.8700789-7.8650108,11.298592-19.1503711,9.5843856ZM862.52277,263.3508c10.5778807,3.1172848-3.5642472,6.2984122-3.1946165,9.5711538-9.2467298-1.7913022,4.8968993-4.9737163,3.1946165-9.5711538ZM868.9061699,301.6503842c-.0905419,3.1040316-3.9087441,2.4802316-6.3833998,3.1943591.0849662-3.1040316,3.9097734-2.4802316,6.3833998-3.1943591ZM859.3281536,279.2989201c-.0836795,3.1038601-3.9031254,2.4815183-6.3833998,3.1956887.0916142-3.1040316,3.9098163-2.4682865,6.3833998-3.1956887ZM814.644998,161.2056798c9.708232-8.7002613-8.706652,9.7148801,0,0h0ZM836.9899856,173.972694c-15.0449739,1.9867115-19.5653371,14.481242-35.1105006,15.9613947,6.7146435-15.6237604,20.2980792-24.3902232,31.9161843-35.1039169,14.5063973,2.5188974,22.6040036,11.4410529,31.915927,19.1425221,3.9087012,14.5463713-8.7532311,12.532746-6.3834427,25.5325486,3.3513814,9.2347633,16.0585633-15.3630073,9.5780163-15.9481415,4.4936424-8.350253,8.4354551,10.4025227,9.577759,15.9481415-5.7664194,7.0137836-12.454385,13.0914168-15.9611588,22.3516356,15.6698891,2.8962484,12.1564672-13.3775825,25.5338138-12.7670141-2.3194349,7.0138051-14.9813672,10.5979106-6.3833998,19.1437874,12.1432569,4.7012327.628947-14.26042,12.765513-9.5713683,5.9353652,18.2859551,8.8185963,40.4673795,0,57.4555525-21.1294266-27.6113032-61.7535497-27.9224526-70.214396-73.4169472-13.6567356.1808909-12.5195357,15.1422068-28.7282588,12.7657489,1.42165-26.2334444,34.7088735-20.6107298,41.4939433-41.4939433ZM824.224301,250.5850726c7.9408413-12.4556502,4.6492922,10.5714471,0,0h0ZM801.879485,231.428032c-4.7861988-3.9604057,14.8122069-10.5327997,15.9613733-19.1425221,10.7335734,9.9090027-8.3970252,16.9482204-15.9613733,19.1425221ZM801.879485,247.3893838c1.0186504-7.4938575,9.8771779-7.1429914,12.765513-12.765706,5.8383897,1.986926-5.5123358,13.3376514-12.765513,12.765706ZM805.0738442,269.7275947c1.8513275,10.3638783-2.1757087,14.8575208-3.1943591,22.3516356,5.3700678,7.2079277,11.9409851-11.2601835,12.765513-19.1572765,34.0267423,19.2995015,17.9816466,68.1969963,12.7670141,105.3275343-9.7268036-.1567435-16.2473245,2.895412-19.1489128,9.5713683-5.7600287-7.194696-1.1824923-22.4551948-15.9616306-12.7670141-4.3246966-9.4156756-3.9937102-19.7528546,3.1945736-25.5325486-16.6304229,1.4549545-21.1373185,15.0396984-31.9161414,22.3514212-6.0256927-22.0402717,26.3705655-33.1701537,38.2995842-47.8841627,7.811655-6.7413214-4.7663834,3.3500518-3.1890407,9.5713683,12.8772.1170269,16.0784216-9.4543414,15.9545537-22.3381894-7.9472749-5.8315701-7.5842064,2.2474646-9.5711538-6.3769877-14.3960399,22.8317095-41.4287926,33.0398951-51.0719167,60.6377307-9.2279866-45.4158762,12.1686481-87.8325881,51.0719167-95.7548793ZM769.9633007,199.5052425c-9.0778268-4.2463355,2.4603732-14.1820376,3.187754-19.142565,6.6693511,1.8432426-4.5973947,12.0516642-3.187754,19.142565ZM769.9633007,225.0512373c10.7083538-7.7134571-7.7147224,10.7014698,0,0h0ZM785.9180688,256.9605806c3.7011538-12.6100991,3.7011538,12.6115359,0,0h0ZM763.5799009,94.178995c1.0199372,7.4022647-.5133998,12.2602409-3.1945736,15.9613733-17.6369353-14.8707525-19.5785903,11.0912591-31.9159699,19.1557753.7912448,4.0135686,6.3436832,3.2210585,6.3821131,0,6.5790665.8710855.7607067,14.13014,9.579303,12.7670141,5.7982441-3.7797293,2.5054512-16.6503241,6.3821131-22.3514212,13.7470631,2.0518622,10.3453282-13.0516787,25.5338138-9.5713683-3.7210121,11.181801-14.2922448,15.4932873-19.150414,25.532763,2.0587033,4.9218402,14.4946882-6.5192128,19.150414-9.5713683,6.954273,16.4162704-6.2343123,24.9486796-22.3447731,31.9227895,5.9806576,8.8318281,16.3643728-4.67582,22.3447731-6.3902409,5.7783858,21.7929648-21.6891483,37.8581547-41.49523,44.6898036-3.3833349-14.8575208,15.7538688-17.7674298,6.3833998-28.7284089-13.733767,13.9225712-19.5320112,35.7795931-44.6816544,38.2995627,7.6615381-12.5579442,21.0643188-19.3644164,28.7268863-31.922575-12.1882491-2.610726-12.357195,6.804971-15.9611588,12.7670356-6.0325123-9.143192,14.0062936-33.6369959,9.577759-41.4821913-11.8172888,8.4036303-16.5903202,23.8317669-31.9227466,28.7151557-10.5261976-11.7669353,5.1373008-24.507293,12.7670141-28.7151557-6.1175214-19.0906246,30.34416-70.4164748,63.8389309-51.0785433ZM696.553216,71.8408055c1.687743,16.5849804-4.2145108,25.5844461-6.3836143,38.2995627-4.5974375-.7141276-1.1171271-9.5195136-6.3833998-9.5711538-5.0456866,5.5840702-4.2728419,16.9999249-6.3834427,25.5325486-12.4545565,2.2342328-.1556498-11.1950328,0-15.9613947-16.1689421,6.1694404-10.4091279,34.2859942-28.7268863,38.2995842.0768813-19.0652334,13.1937107-25.1043723,15.9611803-41.4939433-18.9616527,11.4929505-34.6704007,18.896502-44.6898036,25.5459519-5.9417773-1.364627-15.1953696-15.974798-25.5325486-22.3515927,1.2275274-10.4676949,9.3373146-14.0650107,12.7657489-22.338168-6.188012-2.8567248-18.0706874,15.8575567-22.3369027,25.5325486,4.5508799-35.1556,77.9622513-91.6894346,111.7096689-41.4939433ZM588.0313011,27.1522887c-2.610726,30.2085187-18.9684723,45.6633975-28.7217823,60.6499116-3.7729097-6.0643371,9.9621655-21.8316092,9.5726336-35.1039169-10.3572518.2725051-2.2474646,19.0254953-15.9613947,15.948163-.8964982-5.1561083,3.0188296-5.4940001,3.1943806-9.5713683-20.7529549,12.2589756-40.5724399,12.1299823-67.0267063,22.3368813.8311759-11.4675164,16.1755901-19.791306,9.5779949-28.713676-10.0713005,16.5200655-18.0200766,35.1690033-38.3064038,41.4807116,4.9286598-15.2856971,19.1692215-21.2597281,22.345009-38.2995627-13.5716837,4.5202775-14.2471669,21.9232234-25.532763,28.7284089-4.7409279-12.285675,19.1692215-23.3117834,22.3435293-38.2997772-12.4276856-4.8831744-16.2857974,26.2082248-31.9227895,28.7284089,10.8772567-52.053231,92.6576887-80.8070954,140.4382922-47.8841842ZM447.5930089,129.2961436c-3.2462567-2.0772534-3.2979398-7.3369424-9.5711538-6.3887397,1.7793572-10.455707,12.3508043-4.8701571,9.5711538,6.3887397ZM386.9499384,138.8685841c-9.7467048-5.8965064,3.6879006-15.1699569,0-25.5338353-8.9422498,1.7022614-5.8967208,15.3775257-9.5711538,22.3383824-9.3584596-2.7010535,1.908329-10.2722427,0-15.9613947-11.2535569,1.5198908-10.4941584,15.0529301-12.7670356,25.5458017-13.2336418-3.662488-12.4357919,6.7146221-22.345009,6.3767733-1.3046017-7.688023,5.831806-6.9352296,3.1958818-15.9611803-17.305949,6.1040752-22.2544671,24.5589546-41.49523,28.7281944,13.0660041-48.1314696,91.6321972-86.0931835,140.4378633-57.4553166-14.1751965,22.4936462-45.8321075,10.5328028-57.4553166,31.922575ZM431.6384552,62.2694373c8.9872848,3.2210799-.883052,13.5584734,0,19.1425221-9.6950217-3.9349716,3.4615243-10.972967,0-19.1425221ZM418.8727064,62.2694373c12.454385-2.2474646.1556927,11.181801,0,15.9613947-9.3637781-2.7142853,4.1491885-8.0391036,0-15.9613947ZM406.1056922,65.4640323c7.1295667,2.3125939,1.5386769,18.1956061-6.3833998,15.9479271,3.25417-4.194438,3.12389-11.7654341,6.3833998-15.9479271ZM396.5279118,65.4640323c1.5320503,10.0392612-4.5457544,12.4676167-6.3833998,19.1438088-4.3315591-.9868471-2.6493704-7.9874205-3.1945736-12.7670356-23.6374513-4.8050063,2.3565781,22.8968388-22.3381894,19.1570406-.9802205-7.3648856,9.22136-3.5467264,9.5711538-9.5858867-15.7072468-2.6611224-17.3443789-2.7008391-31.9161629,6.3902409,12.3708771,5.4804895-3.6690931,16.2857759-9.5711538,22.338168-9.5591874-2.0904852,3.0521555-6.8184172,0-12.7670141-22.5722217,1.364627-6.6242946,21.4166861-25.5391537,25.5340497,3.2595099-4.1957461,3.1292298-11.7669353,6.3833998-15.9613947-12.5662649-1.9230834-16.5717272,4.7144644-22.338168,9.5846,14.3441209-23.05251,62.9426471-56.0270614,105.3262476-51.0665769ZM297.5850641,113.3347488c8.9808942,8.1563449-7.2664518,18.0785793-19.150414,15.9613947,3.2409168-8.4672799,14.7605667-8.6496719,19.150414-15.9613947ZM294.3894182,142.0631577c-5.6494139,11.4158547-20.2143569,41.4554919-25.532763,63.8321113-9.928861-16.416056,8.9356017-31.4160591,9.5779949-47.8707165-20.6878256,8.039318-11.8188329,45.6247531-31.9161629,54.2609574,3.5655339-16.1954484,3.2663295-18.6504818,9.5713683-28.7284089-4.6361034-1.7526578-16.4933662,3.7278317-15.9547681-3.1944235-8.8506356,9.2468155-17.6824422,18.4935667-25.5393896,28.7271865,4.3900618-31.8057626,44.0275736-55.9751853,79.7937205-67.0267063ZM214.5956978,212.2855099c2.2276062.3764932-1.1555571,22.0256889-9.5711538,22.338168-2.0454501-12.6884387,4.0522344-17.2339786,9.5711538-22.338168ZM236.9407068,234.6236779c-5.9740096,7.8569474-9.980973,17.6756011-15.9613947,25.532763,10.1110171,11.1682905,28.7401609-27.3253519,19.1557753-25.532763,13.9678422-13.6885175,40.1694618-15.1567467,67.021345-15.9613947-2.1372573,14.8829334-21.3902012,12.648722-28.7217823,22.3369027-3.7397982-.5052721-2.6944484-5.8181239-3.1943806-9.5711538-30.1887033-1.687743-31.0664154,31.5330431-57.4487114,41.4939218,15.4146904,12.0781062,26.3438447-7.5842279,35.110329-12.765513,8.9742676.5971007,13.5981686,5.5456188,12.7670141,15.9613947-20.8845002,2.0001148-34.215525,23.1174249-54.2609574,15.9613947-7.5724759,9.4408738-18.2340575,15.8044153-22.3447946,28.7136331-17.3644517-38.54554,18.7594023-73.3902049,47.8775576-86.1691856ZM192.2575298,250.5850726c-8.3504675,7.6096405-8.7015695,23.2079882-22.3435293,25.532763.9866327-7.5325448,11.0846325-5.9488328,9.5777804-15.9613947-14.9478483,3.142483-20.1624593,16.0132923-35.1118087,19.1424792,10.2468515-15.2858686,26.7348563-24.325051,47.8775576-28.7138475ZM163.5306006,317.6117574c-.0852021,3.1040531-3.9099879,2.4669998-6.3836143,3.181106.0903275-3.1040102,3.9085082-2.4669569,6.3836143-3.181106ZM150.7635865,311.221731c.0849876-3.1040316,3.9097734-2.4802316,6.3833998-3.1945736-.0905419,3.1040316-3.9085082,2.480446-6.3833998,3.1945736ZM137.9978376,282.4946089c9.1683902.66223,16.2140415-.8059991,19.1491487-6.3767733,4.8566894,8.1947748-18.2594701,15.675229-22.3447946,25.5325486-9.2920222-4.4804107,5.6626457-11.0009531,3.1956459-19.1557753ZM166.7249812,346.3269346c-6.0391603,10.8571839-11.1884276-5.4552913-19.1559898-3.1824141,1.8566674,10.9090815,10.6818688,14.8575208,9.5779949,28.7281944-15.8443679-1.1435906-31.8960901,14.1952907-41.4939433,28.7138904,11.7270042,5.6107481-2.6692287,5.8448233,3.1943806,9.5858439-8.8305413,8.1813501-26.2468906,7.7918396-22.345009,28.7137189-13.0382325.9746662.5400777-4.4153028-3.187754-12.7657274-9.8769634-.2859727-9.5126297,9.6497293-9.577759,19.1557539-37.9299105-47.6246964,34.272741-138.2356697,82.9880796-98.9492599ZM102.8860289,438.886168c3.7011538-12.6100562,3.6958139,12.6232879,0,0h0ZM99.6982749,486.7703308h-15.9613733c-1.3313225-10.9090815.9601477-18.1823529,12.765513-15.9613733-8.5191774,8.2347059,7.3450488,3.3645703,3.1958603,15.9613733ZM74.1589067,470.8089575c5.6946849,7.4155179-8.0258718,28.4157582,15.9616092,28.7284089-7.7347951,7.1560087-17.5015728,12.2854391-25.5340497,19.1423077.79251,3.4683654,6.3447555,2.1690821,6.3833998,6.390198,8.4939792-7.4673726,13.5714907-18.3512559,28.7284089-19.1557324-3.4164678,11.93438,7.9220767,9.1030464,6.3834213,19.1557324-11.357352,6.7278967-18.27401,17.896466-35.1118302,19.1557968-2.3245603-8.7135145,6.3449699-6.4286708,6.3836143-12.7657489-14.6302867-1.8709499-14.8775935,10.6485429-22.345009,15.948163,2.1039528,9.5579007,6.8250438-3.0521555,12.7670356,0-6.2864458,8.6097194-14.5196719,15.2724653-25.532763,19.1557324,2.5840267-39.9738166,4.8502773-80.2603053,31.9161629-95.7548578ZM35.859344,729.3469021c11.2922013,2.5321291,11.6951794,15.959915,22.3447946,19.1425221-5.6957572,4.4417449-21.0002618-8.6496505-22.3447946-19.1425221ZM23.0923084,691.0473608c16.1501775,10.4409741,25.2015408,27.9873675,38.2995842,41.4806901-18.1755548,3.2860162-37.2728059-26.2468692-38.2995842-41.4806901ZM77.3534803,735.722453c-28.8840801-16.2341571-41.9688703-48.9613802-60.6445717-67.0267278,2.954987-33.2207646,2.3896896-69.9498471,35.1118302-73.4034796v9.5711538c11.2988064,1.7276741,7.8436942-11.298592,19.1491273-9.5711538-.5971007,8.9740531-5.5522454,13.5969033-15.9613947,12.7657489,11.6433033,12.4810629-.9802205,30.5594277,19.1504354,31.9093004-6.1109162,6.8583697-16.6368779,7.0005948-25.5338353,3.1958818.0585241,13.7788664,15.902892,11.7654556,15.9613947,25.5325486-2.5774001,2.7410061-8.7402139,1.896384-9.5779949,6.3902409-3.1877325-5.468566-7.019145-21.3515353-12.7657274-6.3902409-8.4100639-2.2209797-6.7477336-14.5331181-15.9545537-15.9613947-7.1761243,13.2603412,25.2201124,29.1179408,19.1491273,41.4939433,15.8057235,7.1176002,35.6104756,25.299996,31.9161629,41.4941792ZM74.1589067,655.9287111c-.0850091,3.1040316-3.9031683,2.4817327-6.3833998,3.1958603.0903275-3.1040316,3.9084867-2.4802316,6.3833998-3.1958603ZM77.3534803,710.1896685c-14.0131132-4.4537113-21.7346551-25.5711929-9.5779734-38.2995627,4.194438,1.1303374,5.0256139,5.6242158,9.5779734,6.3767733,2.5253095,11.039576-3.5456541,13.4811632-6.3836143,19.1570406,5.1492673,5.4407729,16.4547003,2.9218755,19.1506499-3.1956459,10.8757556,8.0260863-10.9810518,10.0527503-12.7670356,15.9613947ZM83.7369016,722.9566826c-2.7995088-10.2468515,8.2784971-6.6108484,9.577759-12.7670141,5.3967886.5719025-1.4867793,15.1688847-9.577759,12.7670141ZM90.1205159,646.3575572c-7.3903197-7.0911367,1.0837797-12.4411318,0-22.338168,14.5448701-2.8567462,11.7267898,24.1307569,0,22.338168ZM106.0816962,662.3189519h-6.3834213v-6.3902409h6.3834213v6.3902409ZM90.1205159,582.5252315c.6103325-2.5840267,3.2009857-3.1811274,3.1941447-6.3900264,2.7143067.5851557,3.0068631-1.246099,3.187754-3.1943591,7.8385688,3.8698423,8.5326236,14.882719,19.1506284,15.9611588-9.9356806,11.7789018-15.7407872-7.4419814-25.5325271-6.3767733ZM179.4917809,671.8901058c-22.5455438,6.1826506-33.5265742,23.9234025-60.6443573,25.5338138-10.7136722-32.1566502,50.9096189-67.7286744,60.6443573-25.5338138ZM122.0364643,716.5798879c1.0186504-19.2343722,46.0396763-22.0270185,57.4553166-41.4939218,3.9219543,1.3896108,6.5525387,4.0773897,6.3836143,9.5711538-20.0988097,11.4542847-44.7735045,29.363961-63.8389309,31.922768ZM147.5689914,802.7503816c-9.3770312-2.0906996-21.7408528-11.7669353-15.9545537-19.1438088,9.3770312,2.0918148,21.7464071,11.7669353,15.9545537,19.1438088ZM144.3799722,783.6065728c4.7862203-7.6363185,15.9679999,5.0523347,15.9613947,12.7670141-7.4155179-2.1690607-8.5445901-10.6113353-15.9613947-12.7670141ZM163.5306006,805.9447408c.0903489-3.1039888,3.9085082-2.4801887,6.3833998-3.1943591-.0852021,3.1038601-3.9097734,2.4802316-6.3833998,3.1943591ZM153.9526272,770.8408025c7.3888186-5.7928828,17.0584276,6.5711747,19.1557539,15.9482059-12.064853.3630685-17.1622228-6.2467077-19.1557539-15.9482059ZM173.1083811,793.1790562c6.5070533-6.4167687,6.2531413,1.4017488,12.7670141,3.1945307,1.0120453,5.622736-17.8844567,5.6878868-12.7670141-3.1945307ZM185.8753952,786.7890084c.7846182-3.4683439,6.3434687-2.1558504,6.3821346-6.3767518,3.4617388.7924457,2.1624555,6.3381074,6.3833998,6.3767518-2.1037384,9.5579436-6.8250438-3.0521341-12.7655344,0ZM176.296135,777.2175972c-.9868471-7.532266-11.0846325-5.9351079-9.5711538-15.9613733,11.6817332-7.6109273,22.8966243-12.7283698,31.9159484,0-6.1160416,6.6494928-12.233563,13.2989856-22.3447946,15.9613733ZM205.0245439,770.8408025c10.987464,8.2467367-16.4162704,7.7015121,0,0h0ZM195.446549,751.6835689c7.8251226-6.1160202,14.4547571-15.3108953,25.532763-9.5711109-9.5194707,5.1041893-15.7474138,22.507071-25.532763,9.5711109ZM214.5956978,633.5918083c-.5319714-6.9232631,11.3253128-1.4549545,15.9613947-3.1956459.5385766,6.9219979-11.3186862,1.4415083-15.9613947,3.1956459ZM249.7077209,764.4506259c1.2659573-7.6493572-14.5399592,1.7663184-9.5726336-9.5711538,17.2474248-3.441666,54.7023655-32.5597998,35.1051821-41.4939433,55.9286062-4.3768515,84.163495,77.0791993,3.1943806,92.559212-1.0652296-7.4420243-3.2727631-13.7538398-9.5779949-15.9613733-9.1694624,5.3248183,3.486937,15.364294,6.3836143,19.157062-11.6432819,15.6237389-22.6693902-6.8581553-25.5325486-19.157062,15.245766-14.5850157,21.3831671-9.1297243,44.6816973-6.3767947-5.8117118-22.2465538,3.6823463-19.753069,12.7670141-31.9230039-12.8774359,3.1307525-38.7612794,20.7798687-54.2545453,31.9230039-11.8638894-3.181106-8.3436479-6.8183958-22.3447946-3.1943162,1.9802994-9.7283477,17.1690424-6.2465361,19.1506284-15.9616306ZM319.9285719,722.9566826c2.0853812,2.0907425-1.3430531-1.3379277,0,0h0ZM319.9285719,812.3215355c-8.5512167,2.0907425-12.1365875,9.1429775-19.1557539,12.767057-10.4157759.8430994-6.7663052-12.3773107-15.9547681-12.767057,8.1749165-8.8437731,18.9351463-15.1035195,31.9161629-19.1424792-2.304702,9.7534815,3.2663295,11.6234235,3.1943591,19.1424792ZM236.9407068,812.3215355c.4612878-1.2208794,6.7530735-5.6359463,9.5777804-3.181106,6.3182706,5.4924346-14.1487331,15.3762605-9.5777804,3.181106ZM249.7077209,825.0885925c1.3949506-3.923284,4.0840592-6.5457406,9.5777804-6.3767947-1.3964518,3.9217399-4.0853244,6.5576641-9.5777804,6.3767947ZM259.2855014,831.4773108c-.8963052-5.0775114,17.2407982-4.4669645,9.5711538,3.1958603,1.2275274-1.2341325-9.6110849-3.4164893-9.5711538-3.1958603ZM268.8566552,853.8156932c2.7010535-6.1162346,13.9998814-8.6363973,19.1491487-3.1811488-4.2529836,4.54554-14.1886642,8.4408593-19.1491487,3.1811488ZM275.2402695,815.5159375c9.3637995.2208005,9.4022294,9.7535244,15.9613947,12.7670141-5.4420596,16.7925492-26.5208754-3.9352075-15.9613947-12.7670141ZM291.2016642,847.4386841c-1.4936203-9.9474326,8.0258718-11.4158333,12.7657274-6.3887183-.7662396,5.6226931-5.4924346,7.2717917-12.7657274,6.3887183ZM303.9673916,834.6731711c8.0457302-7.9103033,15.3841523-16.5332758,28.7281944-19.1572336-9.5126297,6.4553702-10.3318391,21.5988208-28.7281944,19.1572336ZM319.9285719,713.3855288c.5133998-3.7143641-.7072865-5.6761348-3.1943591-6.3902194,2.7142853-9.3637995,8.0326914,4.1560081,15.9613733,0-.7726303,5.6229076-5.4937213,7.2852164-12.7670141,6.3902194ZM339.0790074,588.9020047c22.2798583-4.7915387,10.1951469-27.2986525,31.9161629-28.7281944,2.6425294-.1676377,24.2400849,8.55913,25.5327416,9.5858867,37.1957102,29.506186-10.7734616,117.559832-54.2611719,124.4685767-3.220844-15.9865929,14.305691-11.23372,15.9613947-22.338168-50.5331043-9.6230514-7.8768057-63.8321113-19.1491273-82.988101ZM361.4173898,821.906157c-9.4622547-17.0133497,20.4484106-22.0390064,35.110522-25.53257-6.4021859,13.8055658-29.3575488,11.0646026-35.110522,25.53257ZM361.4173898,837.85432h-6.3836143v-9.5713683h9.5779734c.8963052,5.1560869-3.0200949,5.4937213-3.1943591,9.5713683ZM345.4626217,748.4894242c2.7728094-4.676013,4.778307-10.11655,12.765513-9.5713683.9616489,8.4023865-4.4218865,10.4676949-12.765513,9.5713683ZM335.8833401,722.9566826c6.6693511-1.3512237,8.4555493,2.1942803,12.7670356,3.194402-2.480253,2.8445438-3.4284343,7.2080992-3.187754,12.7669713-5.5975164-2.9216182-11.0912591-5.9353652-9.5792816-15.9613733ZM355.0337755,761.2562239c6.9221909,5.0777259,5.0456866,28.2338165-9.5711538,22.3503489-1.4163101-12.051557,6.2917856-14.9867285,9.5711538-22.3503489ZM348.6503756,847.4386841c14.8775935.0518976,14.8775935,15.8962654,0,15.9614162v-15.9614162ZM367.7995029,882.5439091c-15.817883-.8312188-15.1874563-22.02704,3.1956673-19.1438088.4215497,7.8571619.4800739,15.3775043-3.1956673,19.1438088ZM370.9951702,888.9341285c3.9018816-9.6629825,12.1818584,2.2462207,15.9547681,3.1811488-3.8965417,9.6749061-12.1818799-2.2461779-15.9547681-3.1811488ZM380.5665171,869.7770665c2.6423364-9.0261008-4.4938569-8.272085-3.1877325-15.9613733,10.8304846-1.0519764,18.2912735,17.6756226,3.1877325,15.9613733ZM393.3333382,888.9341285c-5.9804217-6.0789199-.344261-8.0273516,0-15.9613733,12.8575561-3.1172848,12.8575561,19.0773714,0,15.9613733ZM415.6770605,879.3482204c-8.5193919-1.4536464-15.9282832-12.4146254-9.5713683-19.1424792,10.4676735-.5067947,15.3123964,13.0262875,9.5713683,19.1424792ZM406.1056922,841.0499658c-7.9739743,2.2075335,5.9221335,8.5193919,3.1892552,15.9613733-11.6567495,6.5576641-14.3323904-1.4295419-22.345009-6.3767947,11.1685479-14.3774254,30.9361568-20.1438877,44.6885169-31.9227466-6.6494928-7.4035944-13.4612834,3.5706379-19.1491487-6.3902623-11.0528077,6.0524135-19.4032752,31.5717303-28.7284089,28.7284303-7.4022862-2.2090346-3.1493026-12.8708093-12.7657274-19.1438088,20.5774039,2.4934847,19.3381245-16.8311935,31.9161414-22.3515927.4933271-7.9340646-5.0136474-9.8691145-6.3833998-15.9479914-9.760151-2.3247533-9.3904774,5.5069744-19.1491273,3.1824356,1.6623089-12.9611368,26.2786939-11.9743111,31.9161629-3.1824356,4.0573384-16.9095546,23.6361646.9746876,25.5325271-15.9613733,23.890098,5.7145647,14.0968355,38.195789,9.5777804,57.443393,14.8961866-14.4545426,23.5326053-15.5065619,31.9163773-35.105225,7.9220767,38.8063359-16.5401169,72.8196535-51.065526,79.793699-1.1303374-4.1946524-5.6239799-5.0125751-6.3833998-9.5713254,7.1494464-19.4549798,33.6822883-19.5200876,44.6819117-35.1171486-15.7593803,7.6495287-32.3511802,14.4679674-44.6819117,25.5459519-8.3970252.934971-2.5135575-12.3907354-12.7670141-9.5845786ZM428.4438602,895.3096365c-8.4153823.9748592-8.2265996-6.6614593-9.5711538-12.7657274,8.5911478.2208005,15.3375946,7.2985125,9.5711538,12.7657274ZM447.5930089,920.8437077c10.7085468-7.7147653-7.7132212,10.7134577,0,0h0ZM431.6384552,879.3482204c3.7024191-12.2470092,14.6952229-17.2207255,28.7215678-19.1424792-6.674691,8.3372357-13.6500661,29.3906603-28.7215678,19.1424792ZM469.938018,933.6092207c-3.5522807-30.1434752,11.8972153-41.298534,19.150414-60.6364654,5.9020607.4800739,1.960248,10.8052864,6.3821346,12.7654701,3.0719924,11.584822-14.3441424,2.6758553-12.7655344,12.767057,1.3896108,29.4544815,31.7337923,29.9744864,41.4939433,51.0653116-20.4219471,9.7148801-41.7213704-7.1680395-54.2609574-15.9613733ZM530.5823752,949.570594c-2.8832097-5.6226931-7.1425839-9.8824963-12.7667997-12.7657703,2.0719136-3.2475005,7.3382077-3.2993981,6.3833998-9.5723977-3.2276851-5.2851017-13.5582375-3.4671001-19.1491487-6.3887183.7207542-4.5974375,9.5260973-1.1039169,9.5711538-6.377052-4.54554-7.1560301-17.3125541-6.0908005-22.338168-12.7669713,7.1109951-9.9741534,14.747335,6.2731711,22.338168,6.3769663,6.188012-10.1430564-13.778845-16.8179833-12.7667997-31.9095363,10.2468515,2.5188759,13.9492706,11.5847792,22.3447946,15.948163,7.4088913-7.3504101-5.9086658-10.2854959-3.1943806-22.3382109,8.2985914-8.5977529,9.6298924,3.9098163,19.1491487,3.1956887.0717559-7.5205998-5.4937213-9.403752-3.187754-19.157062,6.0775903-1.3631044,8.0192452-6.8702933,15.9547681-6.3770092-2.4751061,2.8313765-3.4284128,7.208185-3.1890193,12.767057,9.8703368.2992044,9.5139164-9.6363046,9.5777804-19.1557753h12.7670141c.1355985,8.1680754-2.3766723,3.8952335-6.3836143,3.1943162-2.7395049,10.1817865,5.0204884,9.8705727,6.3836143,15.9614591,4.5068742-6.1294878,15.4998925-5.7796725,22.338168-9.5711967,1.896384-10.194911-5.9872628-9.883783,0-15.9613733-29.2868652-27.3772066-62.3972295,10.4157973-79.7937205,12.765513-8.1561304.351102-6.3315023,10.6884954-6.3833998,19.1438517h-15.9547681c16.1689635-39.2729851,76.5861081-64.8973409,121.2810372-38.2995842-4.5056089,63.5863056-24.3184888,111.8586706-82.9814744,121.2876423ZM600.7981008,997.4415035c14.6303081,2.1304592-2.5652192,19.325965,0,0h0ZM645.4866177,1019.7929676c-10.8373256-.8696487-25.8770025,2.4669784-31.922768-3.194402-2.259431-12.8972727,3.0587607-18.222091,15.9613947-15.9613733v15.9613733c6.9805006-.4681074,6.8515073-8.0391036,6.3836143-15.9613733,4.5320724.2726981,9.0391824.5319285,9.577759-3.1956887,7.8968785,3.0918936-4.4020282,12.2602624,0,22.3514641ZM629.5252444,933.6092207c.7924886-3.4671001,6.3449485-2.1691035,6.3836143-6.3767947,12.4876895,11.9742682,10.9088671,38.0268432,19.1489128,54.2609574-7.5190771-.0770743-9.3956028,5.4937213-19.1489128,3.1824356-2.9086438-10.9223347-7.8838612-19.7676518-9.5779949-31.9095792,8.7081746-.2857368,6.4286708,5.3117796,12.7721396,0-4.4285131-5.1558724-2.7008391-16.4547003-9.577759-19.1570191ZM648.6758729,1019.7929676c2.6741397-6.908809,8.265051-10.8839048,6.3818987-22.3514641,9.6830767-.1037951,7.9554027,11.208286,9.5792816,19.157062-9.0272374-2.6371681-8.2731573,4.4936424-15.9611803,3.194402ZM664.6370531,994.2603976c7.9408628-12.4558432,4.6493351,10.5712327,0,0h0ZM658.2536533,978.2990243c-1.7343006-26.052575-9.8904311-41.0525138-6.3836143-60.6512627,18.1490484,8.4556136,23.6310391,29.5728594,25.5327201,54.2610003-10.0514207-1.5320503-7.2267137,9.805422-19.1491058,6.3902623ZM686.9739558,904.8822915c17.1051783,11.480984,23.2094465,56.5203456-3.187754,60.6496757-5.7664194-15.2592551-3.1358564-49.5584809-15.9613947-47.8842056-3.6558614-10.0392184,5.0136259-7.7531094,6.3836357-12.7654701,6.62942.8177082.8761681,14.0263663,6.3833998,15.9614162,6.9804791-.4681503,6.8568257-8.0393609,6.3821131-15.9614162ZM671.0191877,1013.4029197c5.3967457-10.9477688,4.9937891-20.6239616,6.3835714-28.7271007,11.9491343-.2473069,10.8905099,12.5194499,12.7668426,22.3500916-5.9684767,2.5455967-11.6883598,5.3250328-19.150414,6.3770092ZM690.1696017,984.675819v-6.3767947c2.7144997.5836545,3.007099-1.2474286,3.1879684-3.1958603,6.1946386-1.2593522,4.6625883,14.5465858-3.1879684,9.572655ZM702.9353291,1000.6371923c-7.0909223-6.2729996,4.1825144-21.1694006,0-35.105225,14.5916208,5.7412426,8.7481272,28.2216356,0,35.105225ZM699.74097,914.4666557c.8962837-6.558908,8.525997-6.3767518,12.7670141-9.5843641.8245278-13.5849368-13.6368344-11.8974512-15.9547681-22.3383824-22.4167435,2.0520552-35.9564308,12.9865708-51.0665983,22.3383824-1.7594774-7.0657455,6.0908434-4.5338309,6.3834213-9.572655-16.5783538-7.3236893-6.266373,15.7924703-19.1557753,22.3381251-4.7343227-1.3897823,1.2593522-4.0773468,0-9.5711109-5.7211698-.4029996-6.7278538,3.9085296-12.7670141,3.1943591.1170269,31.0397589-3.1104438,48.2352647,9.5779949,76.5991254-31.5849406,2.8448012-50.5918643-20.2476828-38.2995842-51.0653116,16.247346,3.9606416,9.5978532,30.8310964,25.5338353,35.1039383.3179905-21.5973625-16.0397558-26.5074292-12.7667997-51.0650542,30.5064793-18.8713252,66.3576138-61.3653473,114.9040066-41.4954874.2859942,18.3513202-1.3178549,34.8459946-6.3887183,60.6512198-15.8578355-3.9099879.837781-20.5203809-12.7670141-25.5327845ZM718.8967024,978.2990243c3.6958354-12.6113644,3.6958354,12.6100347,0,0h0ZM718.8967024,952.7662398c3.6958354-12.6113215,3.6958354,12.6100347,0,0h0ZM677.4027591,857.0113391c-26.318625-2.2993621-55.3581834-27.0792889-35.1105006-60.6377521,8.2731573,11.2601835,2.8046342,27.0394435,19.1491487,35.1037239,8.7598363-9.4408953-17.8699597-23.3634236-6.3836357-35.1037239,12.0781062-.3764503,4.7477903,18.6622338,15.9614162,19.1423506,8.9490265-9.154944-7.8956132-19.6106724-3.1943806-35.103681,9.7214638,1.973394,6.2398666,17.1688279,15.9613947,19.1423077,7.8955918-2.7395049-.9415761-22.2079523,6.3833998-25.53257,6.0259072.3643123,2.2143531,10.5592662,9.5713683,9.5845786,4.5775792-3.9352075,6.0524135-10.9863703,6.3833998-19.1559469,13.3827079-2.4029428-4.3313446,12.1951116,9.5780163,12.7669713,4.5775363-3.9349502,6.0457655-10.9741465,6.3835714-19.1569762,9.6747345-.0903275,3.0906069,16.0651684,12.765513,15.9613733,3.7409134-.5187183,2.6957565-5.8183598,3.1956887-9.5713683,4.2796615,2.1039528,5.9421848,6.8183958,6.3836143,12.7669713,7.4406947-1.0651438,13.7457335-3.2727202,15.9545537-9.5723977-3.9550658-36.5973013-55.0203345-29.5582766-67.0277571-6.3889756-15.2660747-9.9354232-16.0718164,5.1042322-25.532763,9.5845786-4.9604846-26.0791671,114.6249178-76.6257604,111.7096903,3.1811917-1.5066591,41.3384651-57.0403934,86.9245524-102.1317383,82.9893449ZM769.9633007,828.2829517c3.6945058-12.6100347,3.6945058,12.6100347,0,0h0ZM782.729071,917.6477616c-17.6038667-12.1818584-18.5001504-41.0657241-22.3437438-67.0132172,10.740393,17.3378167,24.6815358,47.0915026,22.3437438,67.0132172ZM738.0471593,991.0645373c7.1748162-5.5840916,7.3503672-18.1808732,19.1491273-19.1557753.5067518,13.2737659-5.8768196,19.6625271-19.1491273,19.1557753ZM741.2348704,933.6092207c9.2867466,2.7793931,3.5907536,4.7795508,3.1959032,12.7669713-4.3315591-.9868257-2.6504212-7.9874205-3.1959032-12.7669713ZM763.5799009,955.9608563c5.798287,3.7662188,2.5067379,16.6368136,6.3833998,22.338168-12.136566,2.5585926-4.0588181-15.0915959-6.3833998-22.338168ZM763.5799009,943.1937993v-6.3889756c6.811619-1.493363,6.0775903,4.5577209,6.3833998,9.5713683-2.5852705-.5970793-3.1823927-3.1943162-6.3833998-3.1823927ZM738.0471593,853.8156932c9.9343939,23.0390424,26.9609967,39.0004586,35.1038954,63.8320684-29.6618573,20.092033-30.4293836-38.246357-35.1038954-63.8320684ZM776.3467006,968.727656v-19.157062c5.5845206,4.1957247,16.7979105,19.1689856,0,19.157062ZM798.6904443,952.7662398h-6.3889756v-6.3900479h6.3889756v6.3900479ZM792.3014687,933.6092207c4.6559402-10.5712756,7.9475322,12.4545565,0,0h0ZM811.457244,936.8048236c-4.3379497-.987855-2.6489201-7.9871631-3.1941447-12.7669713,7.3954452.8964982,7.3369424,8.519349,3.1941447,12.7669713ZM795.4960423,911.2710098c-14.7539187-15.0384116-17.6238966-41.9607211-22.3449876-67.0267278,9.2015231,8.8837471,18.6757014,17.4935093,25.5393896,28.7284732-2.1624555,7.4155179-10.60992,8.5446115-12.7723755,15.9613733,9.8573624.5187611,18.0452962-7.5460339,25.5391752,0,1.6693429-4.4467631-3.2890186-15.5371,2.4029428-15.959915-13.2436139-.2863802-22.6778182-18.3812578-24.7477159-38.3010424,6.0256927.3498153,2.2143531,10.5447692,9.5779734,9.5711109,10.7081393-2.9216182,1.5783721-5.9352794,3.1890407-15.9613304,18.3113463,5.090979,10.2015591,36.610726,31.9161843,38.2995842-1.4417228-15.5716698-17.7860229-16.2473674-15.954811-35.105225,5.4286134,1.1690247,6.0190876-2.4934847,6.3834427-6.3887183,8.0843531,7.3887542,8.0125972,10.8052435,22.3368813,6.3887183-1.1224456,4.195982-5.616088,5.0136474-6.3821131,9.572655,23.8086274-4.6714666,8.3037811-28.3838048,6.5321443-39.3102141-6.8295044-7.651759-11.7271329-11.5993619-.1500311-2.1851875-.0385157.6505638.0202443,1.3848499.1500311,2.1851875,5.3517107,5.9960982,11.8895594,14.2663389,12.6169401,20.1664052,4.9152565,39.7797369-41.5791239,70.5599651-63.8321113,89.3648528ZM859.3281536,786.7890084c5.0190516-2.428334,4.7730314-10.1178367,12.767057-9.5714112-10.7469981,10.7922906,22.3434864,7.5061028,22.3434864,0-.9868257-4.3379497-7.9927389-2.6503784-12.765513-3.195603,16.7991972-12.9478836,44.746848-28.3122205,35.110329-57.4421063,5.5844777-7.1814213,18.1823744-7.3636204,19.1506284-19.1559683-1.0201516-6.7795369-9.8771779,4.5577209-12.7670141,6.3889542-4.0069205-10.5447478,11.9290187-14.2471883-3.194402-25.5459948h12.7655559c36.4431098,50.7673939-27.0126798,162.9000922-73.4101276,108.5221293ZM923.1671273,652.7343305c8.9022758,8.5326451,15.7657924-2.9870048,25.5327416-3.1811274-1.0455428,9.4543414-24.7535061,21.8314162-25.5327416,3.1811274ZM952.2413412,645.9904999c-.1129737.1202008-.2292929.241967-.3526461.3670573.1233532-.1250903.2396724-.2468565.3526461-.3670573,5.7623019-6.1311177-1.7965134-6.0177794-3.5414723-12.3986916-5.9940824,6.7652544-13.7019422,11.8307993-25.5327416,12.7657489-2.1556359-14.9228645,13.6686592-11.8707304,22.338168-15.9613947.142225-5.4540046-2.3698313-8.2599255-6.3833998-9.5713683-10.8439308,7.7014692-3.1292084-4.986948,3.194402-6.3900264-7.4740635-9.3118805-21.8634554,1.3244815-25.5327845,6.3900264-7.7851915-9.0391824,16.6050317-13.0395192,19.1506284-22.3514426-12.7804818-10.4808623-16.6304658,15.1701928-31.9161843,12.7802888,19.7210727-13.9744688,20.8433038-27.6113032,35.1039383-44.689825-1.4284696-5.2728778-13.7271619,5.117464-15.9547681,9.5713897-4.0189299-18.7914416,13.3440206-38.7918175,31.9161414-38.2984904-.7860979-9.8583918-3.2342902-18.0399349-6.3833998-25.5338353-9.7204129,9.0139842-6.2400596,9.0139842-15.9615877,0-9.6948073,3.9352075,3.4617388,10.9742322,0,19.1570406-12.0447803-.5716881-18.0200766-2.2474646-12.7655559-12.7802459-16.9494857-.4281763-2.9816649,15.4029384-3.1892123,25.5459948-7.7984018,2.8313336-13.8441673,7.4287497-25.5325271,6.3767733,12.4477369-32.7923738,43.9875996-62.1432961,79.793699-44.6883024,20.1881936,40.854531,9.3555002,111.1969338-18.8033437,140.0763603Z"/>
    <path d="M813.8601868,872.9742135c.2603027.0056187.5215919.0068196.7848112-.0014583-.284493-.0224746-.5408069-.0166844-.7848112.0014583Z"/>
    <path d="M377.3787845,467.6145769c-17.3563883-12.0217051-22.2420288,11.1126829-39.2927362,21.2021476,13.231433-6.6721604,33.0980333,1.2662147,39.2927362-21.2021476Z"/>
    <path d="M336.6150313,489.6374779c.5003611-.2625116.9905357-.5364535,1.471017-.8207535-.5000609.2521535-.9910075.5244013-1.471017.8207535Z"/>
  </g>
</svg>