<?xml version="1.0" encoding="UTF-8"?>
<svg id="blackberry" xmlns="http://www.w3.org/2000/svg" version="1.1" viewBox="0 0 1000 1152.5590501">
  <!-- Generator: Adobe Illustrator 30.0.0, SVG Export Plug-In . SVG Version: 2.1.1 Build 123)  -->
  <g id="outline">
    <path d="M82.0311865,224.9154119h-14.7211393c-2.8675429,21.7289028-23.1732263,45.4498312-14.7194701,66.2493717,13.3118938-18.5837412,12.6309862-51.1692977,29.4406094-66.2493717Z"/>
    <path d="M306.5284781,339.009643c-3.0697835-11.6648529,1.4829783-30.9370848-11.0436803-33.1237916-.1119107,14.8252762,1.0550324,28.3778032,11.0436803,33.1237916Z"/>
    <path d="M170.3527764,386.840767c-3.0622003-11.6508789,1.4905614-30.9233493-11.0360972-33.1099846-.8833866,15.588859.2852019,29.1415767,11.0360972,33.1099846Z"/>
    <path d="M435.3362654,412.6119774c-8.8127147-2.2312041-16.794457-5.301226-29.4406094-3.6835876-.3589347,11.7248264,27.6510868,16.2024484,29.4406094,3.6835876Z"/>
    <path d="M56.2663669,438.3692378h-14.7211393c-9.5533812,18.7492107-8.8940306,42.6495587,7.3605697,58.8826258-8.2807035-24.3651126-6.0649041-42.3200504,7.3605697-58.8826258Z"/>
    <path d="M291.8014248,489.8988771c-9.2404222-11.6205226-8.5965002-33.1253893-14.7211393-47.8448594-.9582879,5.1660889-8.0720482,4.1923963-11.0360972,7.3513173,2.0211419,17.700593,16.4200937,42.3506452,25.7572365,40.4935421Z"/>
    <path d="M402.2123068,585.5734535h22.0800398c-24.8065317-24.438607-26.8582684-63.7483466-18.3966907-95.6745764-51.0498038,3.2049444-19.7523297,74.7844676-3.6833491,95.6745764Z"/>
    <path d="M858.5676504,500.9349981c-2.8596975.8236278-7.2623944.1043038-7.3605458,3.6833252,2.8537836-.8233655,7.2562897-.1043276,7.3605458-3.6833252Z"/>
    <path d="M586.2255233,508.3033893c-19.1759882-5.571047-9.9737201,33.8122346,0,18.3888453-10.7971333-3.1297569,4.7841664-9.2541576,0-18.3888453Z"/>
    <path d="M446.3723864,552.4648997c-8.737575,2.2909629-17.1301653,4.9405744-18.3966907,14.7194701,14.0478149,3.0100485,14.2486247-7.8311766,18.3966907-14.7194701Z"/>
    <path d="M685.5908173,618.6988428c-8.0260726,6.8882935,13.2765536,28.9759164,22.0816852,18.4042738-9.6821036-3.8042737-12.39176-14.5860023-22.0816852-18.4042738Z"/>
    <path d="M681.9152659,644.4715079c1.7971058,11.874915,22.7239617,12.459102,25.7572365,3.6679444-7.8849978-2.8753645-20.5605528-8.9246254-25.7572365-3.6679444Z"/>
    <path d="M545.7393258,644.4715079c-1.1669431,8.6393997-5.8101301,13.8055125-3.6755513,25.7555673,16.2697904-2.3661026,11.8075969-25.0381987,3.6755513-25.7555673Z"/>
    <path d="M571.5043839,695.9843355c-9.4644583-13.4331046-.9431217-35.2063139-11.0439188-40.4767305,3.6082094,17.7895159-15.5137192,38.2300978,11.0439188,40.4767305Z"/>
    <path d="M332.7487146,1084.2788461c-.2140683.6218164-.3740294,1.2298974-.463,1.8207136.2078922-.6368873.3601985-1.242679.463-1.8207136Z"/>
    <path d="M332.7487146,1084.2788461c2.9551304-8.5846724,16.5948633-19.898603,6.8975697-27.6212789-12.9835301,15.6640225-48.8185759-6.8882935-66.2415263-11.0515257-14.4430675,38.191586,63.4583993,15.5332017,59.3439566,38.6728046Z"/>
    <path d="M692.9513631,1100.8190298c-4.2077772-12.9682923-6.1537793-28.198455-18.3966668-33.1239585,4.207801,12.96834,8.0874768,26.2665222,18.3966668,33.1239585Z"/>
    <path d="M391.1745166,1111.8553893c11.5546352,1.7525609,15.0355291-4.5821166,18.3966907-11.0363595-8.5794262,1.2283712-15.8572492,3.7739651-18.3966907,11.0363595Z"/>
    <path d="M415.9025463,675.00807c.1507087-.1632519.3005351-.3263606.4545107-.4901371-.1554064.1657557-.3068305.329103-.4545107.4901371Z"/>
    <path d="M932.1700563,438.3692378c-1.6394817-91.5865077-46.6765332-139.7917326-106.7260783-172.9768808-14.4067973-38.3360709-37.4313656-68.0604753-80.9705349-77.2854689-18.5545771-55.0338072-56.5011185-90.7031211-128.8075489-92.006632-11.0223617-51.3489796-58.1481356-49.0134479-95.6836857-62.5660465-7.5092753-2.7096565-50.0250085-32.8321274-106.7259829-14.7194701-35.1019863-32.242265-90.0222135-18.5394109-121.4548008,7.3664836-1.1685885,8.6411166-5.8102732,13.8072294-3.6771967,25.7575465-36.7030277-36.7628342-85.5967672-4.0883072-99.3669394,33.1253416-46.2793967-18.389036-85.3039583,25.1576925-88.3294115,73.6021675C30.4799663,175.3929168-4.7125883,297.0807675,37.8694377,368.4519217c-48.5117931,45.3438343-53.6932867,181.4659533,3.6757898,217.1215318-80.3555146,49.9871883-5.0987708,180.0000728,33.1253893,224.5065677-27.7414166,94.4018272,62.3927076,162.1339387,128.8075489,198.7326865,6.6644958,71.8507035,54.8389113,102.1899374,132.4909218,103.0426815,1.2200489,33.9713611,145.8793861,50.9898065,184.013121,3.6848276,42.3720831,62.9538829,195.6333813,39.788192,217.1306411-25.7572604,73.4826497,11.6648529,127.5119072-42.6633419,117.7716902-114.0942073,66.2782973-6.7394448,105.0498733-78.0951465,92.0064174-139.8529461-10.5270976-.9877619,37.5424894-33.7835475,51.5206254-117.7621993,6.479043-38.9269109-8.3036675-66.7737998-18.3966668-110.4110966-13.9269141-60.1996577,5.5707847-144.2845209-47.8448594-169.2932694ZM946.8909572,574.5373086c5.368568-12.1894956,9.1562208,14.3605593,0,0h0ZM950.5742586,486.2138587c-9.4644106-.3586962-5.2627857-14.3605116-14.7272917-14.7192316,5.2336932-9.6745204,13.9866729,7.7560131,14.7272917,14.7192316ZM946.8909572,508.3033893c-17.2067836,2.4701918-13.6798663-15.7699955-18.4045361-25.7726651,10.1975416,4.5373571,12.937769,16.5028404,18.4045361,25.7726651ZM932.1700563,574.5373086c-.1043515,3.579093-4.5070484,2.859769-7.3605935,3.6831583.097913-3.5790453,4.508193-2.8597213,7.3605935-3.6831583ZM924.8094628,615.0291815c11.0375041,6.2901803,4.0880687,13.3885359,3.6769583,25.7573081-13.9788036-3.3536023-2.6880994-14.7946337-3.6769583-25.7573081ZM891.6855042,681.2648654c-4.5222147,12.6537356-21.6245991,12.7274684-36.8009645,14.7194701,3.3244621-13.851512,10.5500855-23.7944227,11.0437041-40.4767305,13.8669167-2.8307957,17.5886584,4.4913575,29.4406094,3.6833729-.2759972,15.6640225-24.2820798,7.607379-29.4406094,18.3888453,2.78482,13.4176522,11.7475996-.3432915,25.7572604,3.6850422ZM803.3622451,876.3293691c9.5318003,9.8386069,13.8977262,37.6766965,22.0817329,58.8809804-17.8814911-13.2227325-36.5543936-32.689908-22.0817329-58.8809804ZM836.4800513,957.2844516c-2.7999386-5.7811092-11.6726745-5.4959073-11.0360733-14.721187,9.9120535.2546786,17.6851406,8.4156498,11.0360733,14.721187ZM707.6725024,729.1097248c1.0258684-8.700804,9.8309999,4.2232058,14.7194463,3.6833729-3.6081855,11.2769688-9.8155475-4.2383959-14.7194463-3.6833729ZM715.0328336,787.9909437c4.2677745-14.5402412,4.2677745,14.5414335,0,0h0ZM733.4373698,1005.129311c-14.7808982-15.8894656-20.1127429-41.2266016-22.0814944-69.9189615,17.2586731,13.4024383,13.8590952,47.4707108,22.0814944,69.9189615ZM729.7525422,916.8060995c11.6357127,16.9675097,17.5211256,53.8360069,11.0439426,77.2868519-9.2314321-21.6245991-17.6024416-47.4415706-11.0439426-77.2868519ZM737.1128496,802.7118446c-9.3966394-.4047196-7.3005485-12.3242034-7.3603074-22.0738874,6.4325904,3.3844356,8.1239617,11.5007664,7.3603074,22.0738874ZM733.4373698,817.4313147c16.8693582,2.4566471-2.9581827,22.2839496,0,0h0ZM715.0328336,707.0358374c-22.6426458,3.0100485-25.7050846-13.5525747-44.1615103-14.7194701-12.9467829-44.5358497-11.6281057-93.5644878,11.0439426-125.1319975,6.8728887,12.4899114,16.6898909,34.8919241,51.5221038,29.4406094-6.1706625,17.6714289,5.2412287,35.9407803-3.6848276,69.9187468,4.799595,6.0048591,27.1648128,13.2075185,29.4481926,0,2.6283405-5.9605765-17.3556322-5.9605765-14.7272917,0-10.7968948-3.1297808,4.7919641-9.2544199,0-18.4042738,11.9500548,2.1420427,17.1239892-2.5010012,25.7650819-3.6679444,2.1406358-13.1938307-10.8952847-11.201829-22.0816852-11.053195-2.3353171-17.0564087,20.1188475-9.3141311,33.1253893-11.0360972-5.0466428,48.0395169-35.8134887,71.7758499-66.2493955,84.6536217ZM707.6725024,957.2844516c-6.2443715,12.892938-9.4568751-7.1889478-7.3605697-14.721187,9.9964933-2.635876-2.6283167,17.3554415,7.3605697,14.721187ZM707.6725024,832.1524063c-8.6778161,11.8457987-14.8697734-12.937769,0,0h0ZM700.3119328,817.4313147c-9.2774078-3.6679921-9.8907349-19.152738,3.6833729-22.0722897-4.2369651,4.342795-4.1693846,12.9990064-3.6833729,22.0722897ZM652.4670734,935.2103495c-3.2203491-13.0433128-.45711-9.0595479-3.6771967-22.0876467,7.0091943,1.5870675,9.2480053,7.9371973,18.40425,7.368129-.4492645,9.3587237-5.3609848,14.2702056-14.7270532,14.7195178ZM652.4670734,968.3359773c11.1634126-13.612572,12.3993431,11.1709958,0,0h0ZM648.7898766,887.3654424c9.5318003,5.1815175,24.9044447,4.5376194,22.0814467,22.0724805-8.2591226,5.5710232-27.5313545-2.4258853-22.0814467-22.0724805ZM634.0703827,909.4379229c12.399367,2.3215339,9.583976,19.8580165,11.036121,33.1253416-14.8697973.1503748-3.1067691-26.3261857-11.036121-33.1253416ZM578.8649536,916.8060995c11.9192453,5.2566334,15.2223411,19.1235024,14.7194701,36.7933337-26.4075731,1.0934011-6.4465882-23.1656431-14.7194701-36.7933337ZM483.1811486,843.2039798c-4.9406459-2.4258853-6.857484-7.8774385-7.3667459-14.7194701,11.0731066-3.7139678,6.5217756,8.1901113,7.3667459,14.7194701ZM439.0134621,1001.4445311c14.3223575.4952879,22.9477832,57.939528,22.0800398,73.617286-25.8539572-12.2184212-3.4808939-52.1721543-22.0800398-73.617286ZM313.8890477,835.8358031c-20.4559867,4.209208-26.8504469-20.1110736-18.40425-33.1239585,13.1859853,18.7186397,16.7266381,47.0658004,47.8448594,47.8448594-6.303868-16.666903-27.276962-35.5955811-25.7648196-66.2339908,14.9833295-8.3264646,29.029499-17.5962415,51.5220562-18.4042261-3.3168313,13.851512-20.4178326,13.9266518-36.8011791,14.7194701-.2852019,18.1206935,14.4359374,7.263849,25.7650819,7.3529865v14.7209009c19.6923324,4.4929791,30.2715819-13.9712205,44.1615103-3.6696136,5.8991484,14.4819131-15.8970964,1.2729161-14.7209009,11.0377903,1.5870436,8.2209208,18.1344528,1.4812852,25.7648196,3.6833014,43.1802107,92.619983-84.6844549,75.3243481-99.3671779,22.0724805ZM398.5350863,1041.9380971c4.2599768-14.541672,4.2599768,14.5399551,0,0h0ZM380.1308363,1016.165432c8.6699945,5.6461867,10.6252252,27.2248101,0,25.7726651,5.054202-11.6511174.8018084-12.3104679,0-25.7726651ZM383.808033,997.7763483c4.267536-14.541672,4.267536,14.5402412,0,0h0ZM341.4368084,1012.9487075c-1.7508678.3710486-3.6177717,1.3680152-5.4677209,3.2167244,2.1470027-2.1452619,3.9759195-3.0911975,5.4677209-3.2167244,8.91337-1.8888187,14.8068668,12.5122077.0012877,14.1390032-.5478929.1290085-1.1446945.1773689-1.7918119.129247.6283742-.0232263,1.2250804-.0670081,1.7918119-.129247,6.541735-1.5406149,6.0686242-14.6496958-.0012877-14.1390032ZM214.5221083,872.6445415c12.3242034,2.2618227,15.3496566-23.5705535,25.7572365-11.051478-5.6077942,14.0323625-16.2927782,22.9724403-18.3966668,40.493566,21.4297031,12.3533436,27.8841368,66.4285767,69.9187468,69.9172922.2759734-23.6595003-43.6524869-43.7567907-36.8011791-95.6745526,25.4414398,3.6235902,47.3282529-19.6925708,62.5645918-3.6848276-12.5404179,8.357274-20.9116897,4.16328-36.8011791,3.6848276,7.0983556,28.646098,56.7035737-7.8174889,69.9265684,14.7194701-3.7369556,16.8171825-29.5830912-5.5556184-36.8011791,3.6696136-1.5273086,19.0775744,30.8866021,9.8829134,40.4767066,7.3681766,11.8765843,30.3529217,16.1211325,64.841557-3.6755275,84.6381931-52.0756721,52.083446-158.5549411-32.6453154-136.1681185-114.080281ZM93.0673075,405.2452554c14.6751398,2.5010251,21.8714084,12.4882184,22.0876229,29.4406094-12.7274923-4.4486726-19.9315824-14.4205089-22.0876229-29.4406094ZM111.471796,471.4946271c-14.9297707-2.2466326-9.0443578-25.307972-14.7211393-36.8087622,19.2354847,3.6679444,16.9229647,19.2430678,14.7211393,36.8087622ZM107.788423,294.8343972c1.1453622-4.9868839,9.2160035-3.0409294,14.7270771-3.6696136-1.9535853,2.9502896-3.8412594,5.9757428-3.6831345,11.0360972-4.8365567-1.3018417-5.7889308-6.4833592-11.0439426-7.3664836ZM144.5971853,471.4946271c-28.2215144,30.7575697-22.5753038,124.0077393,29.440371,136.1678801-11.2615641-30.460087-34.3153203-60.0801638-22.0814467-103.0441838,20.7030345,5.1660889,14.8790258-21.9832714,25.7572365-36.8087146,14.8330501,3.3997926-8.386438,26.925825-3.6757898,44.1617249,17.7160215-.6885384,10.4673626-26.3262334,22.0802782-33.1239585,12.9237951,9.6882798-13.2383995,36.2245753-11.0439188,58.8963851,25.5026056,3.4135519,3.1219354-41.0471581,29.4481926-36.8087622-4.4546104,27.9133008-22.0724566,60.6937294-18.4042738,84.6384554,16.8999531-13.7611822,11.620308-49.7019625,33.1251747-58.8812189.6211726,46.0185896-27.0529259,63.7329419-33.1251747,103.0581339,19.8426834-4.7030651,11.1494387-37.9313512,25.7648435-47.8448594,12.1816979,23.3159703-1.9168381,51.992687-14.7211393,62.5659988-92.1934441,4.9560268-114.6262662-127.58874-62.5643534-172.9768808ZM170.3527764,224.9154119c8.0353249-.673086,11.7108524,3.0102631,11.0453495,11.0363356-14.0018153-5.4053151-.7269071,16.4582717-14.720877,11.051478-9.3295835-8.999789,7.7576823-7.8465575,3.6755275-22.0878137ZM181.3981259,265.392357h11.0363595c4.7995711,12.4745067-14.8330501,28.2136928-22.081709,40.4934944,13.2611727,11.9946951,35.7231589,31.9708463,25.7650581,55.1979175,4.334878,12.833203,26.2892716,8.0565958,25.7648435,25.756998-11.5162188.7636543-27.0223311-2.471861-33.1253893,3.6833491,3.1757565,9.0903573,13.6428568,10.8874631,18.40425,18.4042738-26.9025987,36.4194712-66.2033722,1.3034871-69.9248992-36.8085238,14.7348748-6.5433327-12.7813134-60.828628,11.0360972-80.9550825,14.0848005,18.3753244,30.7440966-19.7061632,33.1253893-25.7724266ZM196.1178345,280.1132579c4.2905477,6.9787902,10.6328322,9.9137466,11.0437041-3.6679682,17.243483,10.9609574,27.510012,28.9161813,25.7572365,58.8812189-9.5687859-1.4829545-11.0960706-10.9917669-22.0800398-11.0363356.1564795-12.115572,6.214969-18.3291102,3.6833729-33.1253893-9.8615947.8985529-13.9942322,15.5001984-22.0876229,7.3529627-3.0408579-10.3921752,5.1891006-9.5242648,3.6833491-18.4044884ZM277.0802855,276.4452897c17.4981139-7.0385968.2470478-48.8339806,25.7650819-47.8465287.9582879,10.7679215-8.3191199,11.306109-7.3605697,22.0738874,19.4592824,5.974312,7.1580906-19.8272548,22.0800398-18.3888453,2.7416582,11.3198921-10.0993902,7.0675223-7.3589243,18.3888453,31.9184082-16.7866354.8447556,16.7268765,22.0798013,18.4044884-.0964822,3.5790453-4.5005861,2.8597452-7.3603312,3.6833729-1.1071843,9.689713,5.0985323,12.0695725,14.7209009,11.0360495.3067828,5.8257256-1.7679417,14.0478626,3.6833729,14.721187-1.0104636,7.5765696-13.7090065,3.4747415-14.7194701,11.036121,8.0490604,9.1209283,25.3738594,8.9860297,33.1161369,18.40425-6.1246392,8.5965002,1.9690139,31.4188518-14.7194701,29.4406094v-18.3890837c-8.2821104-1.7373708-11.3521323,19.9623919-3.6771967,22.0741259-53.7302962,1.8414361-94.993645-79.6072651-62.5659988-132.4850079,8.1472118,9.5242171-14.2180298,35.4915158-3.6833729,47.8465287ZM369.0868937,85.0641112c-2.2617989,3.2784626-4.4470034,6.5891415,0,7.3682005-10.6465677,6.25949-15.3636305,10.1069733-14.7211393,25.7555911-7.164243-11.2307546-10.4671003-26.3260188-33.1161369-22.0876467,2.1866353-13.7626368,5.7505144-26.131409,22.0800398-25.7572365-8.5505007,20.9207036,13.8899046,8.5505007,25.7572365,14.7210917ZM354.3657543,48.2705629c6.5004332-1.1837548,6.5755968,20.6049069-3.6755275,14.7197086-.4722762-6.6030677,4.5005861-7.7716562,3.6755275-14.7197086ZM391.1745166,368.4519217c3.9012567-1.5427372,8.5443483-20.1878587,3.6772206-18.4045123,6.2887018-4.8073927,20.7397816,2.2757967,33.1239585-3.6847799,6.0584895,6.1997789,7.9969085,16.547123,14.7209009,22.0892921,8.5505007-11.1864243-15.0644309-41.4366876-3.6831345-58.8980544,24.0566368,10.6774009,6.1689933,41.361524,11.0437041,58.8980544,12.2338736-5.8409157,10.8184757-21.4453702,7.3605697-29.4422787,16.0521213,10.1238088,21.6983319,82.2877575-7.3605697,99.3595947-56.5916868-.5981847-86.2345129-58.9717872-62.5657603-106.7263883,6.1244007-3.1157115-4.4256848,27.8827776,3.6831106,36.8090722ZM464.7768748,202.8277652c3.0406194,10.4076038-5.1876699,9.5379764-3.6833729,18.4045123-8.6702091.0888991-10.8338566-6.3347013-22.0800398-3.6850183v-11.036121c4.7459885-5.0617852,15.9845647-3.6387803,25.7634127-3.6833729ZM446.3723864,188.1068882c4.2692053-14.5402412,4.2692053,14.5414097,0,0h0ZM461.0935019,191.7899988c4.2675599-14.5400028,4.2675599,14.541672,0,0h0ZM475.8144028,228.598761c10.3246186,6.3792701,3.4595514,9.6439495,3.6833729,22.0738874-10.5346808.7330595-20.0897073.4646931-18.4042738-11.036121,9.6283063,1.0320445,15.8356921-1.3478174,14.7209009-11.0377664ZM483.1811486,294.8343972c20.8609209,4.1478037,5.3164161,30.5337959,3.6771967,44.1752458-11.5605491-14.4356751-3.534715-27.6432652-3.6771967-44.1752458ZM553.0998955,158.6662787c5.945148-1.0336899,6.3422844,3.488477,11.0439188,3.6833491-2.8599598,3.2798456-3.9531701,8.3112983-3.6833491,14.7209009-16.0092217-.6884907-6.6934214-6.3944363-7.3605697-18.40425ZM674.5546963,261.7241742c1.1683501,6.4835738-20.6203116,6.5587374-14.7272917-3.6831345,6.6030677-.4646931,7.7638347,4.5067623,14.7272917,3.6831345ZM663.5109921,243.3199004c5.3683534-12.2047095,9.1574608,14.3453453,0,0h0ZM678.231893,291.1647836c-14.3085981.8082231-25.4734416-1.5273086-22.0814467-18.4042738,15.6640225-2.171469,25.7724028,1.2129427,22.0814467,18.4042738ZM692.9513631,350.0474095c-8.5350721,1.1668954-14.1291308-.5995917-18.3966668-3.6847799,2.8538074-3.2784387,3.9531701-8.311346,3.6771967-14.7197801,10.5714279.4633338,17.4751261,4.6113283,14.7194701,18.40456ZM681.9152659,309.5538673c11.4929687-1.6759665,11.7630043,7.8771762,11.0360972,18.40425-11.5007903,1.6930405-11.7630043-7.8619861-11.0360972-18.40425ZM773.9216357,342.679209c17.670022-3.1143045-17.476533,23.6609787,0,3.6834206.22406-.2546309-.2543925-3.6388042,0-3.6834206ZM792.3183025,383.171368c-17.6697359-4.4178394-24.1469666-20.0221746-40.4842659-25.7726412,1.27263-7.3513173,37.0695217,11.0823352,40.4842659,25.7726412ZM726.0767763,515.6561374c-12.3550129-3.3704616-1.8279629-6.8437724-3.6848276-18.4042738,18.726509.8985529,31.2531676,8.0106678,33.125437,25.7709958-13.6122858,2.5607601-16.2560311-5.8256779-14.7209009-18.4045361-9.6287594-1.0471631-15.8283236,1.3478651-14.7197086,11.0378141ZM729.7525422,581.9055091c-.0967206,3.5790453-4.4991791,2.8445551-7.3605935,3.6679444.1057822-3.5790453,4.508193-2.8445551,7.3605935-3.6679444ZM737.1128496,431.0162512c13.4622448-2.4258615,14.1215954,7.9523398,25.7650819,7.3529865-.0981514,3.5790453-4.5083838,2.8597213-7.3605458,3.6847799-.5995917,4.2829646.8157823,6.5430942,3.6833491,7.3513173-7.0232159,11.4562215-15.9845647-5.7505144-25.763365-3.6679444,6.4159934-7.5170492-2.7419444-7.218088,3.6754798-14.7211393ZM744.4734431,405.2452554c10.8644753,8.7605628,26.3413996,12.9223643,29.4481926,29.4406094-10.4379124-5.5112882-24.2221302-7.6673525-36.8087861-11.0363356,1.5794843-7.0092181,7.9296142-9.2404222,7.3605935-18.4042738ZM759.2007348,394.2074413c-8.6853992,11.8457987-14.8773327-12.9374829,0,0h0ZM781.2822292,497.2518636c-10.8044779-2.4261-15.7837787-22.8529464-11.0437041-29.4422548,7.6135552,5.6170227,20.1783679,18.4642473,11.0437041,29.4422548ZM729.7525422,456.7734878c12.7658848-2.9502896,14.1521186,5.4804787,25.7648435,3.6847799-9.1040928,16.171639,6.7991082,23.4954615,11.0439426,36.793596-5.5329168-2.755656-18.6207268-14.944937-40.4845521-7.3529865-2.8905546-15.1549991,5.6445175-18.8843478,3.675766-33.1253893ZM715.0328336,416.2967335c.0216048-9.7940143,10.241848-9.3892708,14.7197086-14.7362579,11.4407929,6.9340307-5.5848063,27.4345623-14.7197086,14.7362579ZM726.0767763,427.3328783v14.7211393c-21.8484205,4.911458-23.1365029-20.9361083,0-14.7211393ZM707.6725024,383.171368c4.2675599-14.5402174,4.2675599,14.541672,0,0h0ZM722.3919487,453.0900671c2.5394415,14.7946814-3.5254388,21.0096504-3.675766,33.1237916-16.0013763-1.1667047-12.8561908-21.4880312-14.720877-36.8085238,10.4011653-3.0394271,9.5318241,5.1966838,18.396643,3.6847322ZM784.9579951,603.9777273c-2.7402274,8.3112744-20.6433233,1.4383857-29.4406094,3.6847799,4.7919641-10.1527344,19.8948353-7.3527481,29.4406094-3.6847799ZM762.8779315,585.5734535c-6.0570587-.8388179,26.2587006-20.9790078,22.0800636,0-13.7474467-.3297945-10.4903743-4.1174712-22.0800636,0ZM781.2822292,445.7373906c7.2623944,2.5453554,9.8079882,9.8077498,11.0360733,18.3888453-11.0282517.2700356-18.6740471-10.8260589-11.0360733-18.3888453ZM777.5974016,419.9647255c5.5862371-8.8649143,15.993817,8.2515394,14.7209009,18.4045123-6.9034597-4.1326613-7.8173935-14.2564463-14.7209009-18.4045123ZM784.9579951,350.0474095c.1057345-3.5790453,4.508193-2.8613905,7.3603074-3.6847799-.0964822,3.5790453-4.5005622,2.8597213-7.3603074,3.6847799ZM733.4373698,327.9581173c10.9687313-11.9192453,19.3397408,9.8985804,25.763365,14.7210917-7.3973168,8.3404862-15.2209104-14.0017676-25.763365-14.7210917ZM740.7964848,386.840767h-18.4045361c-1.5564011-7.6825426,2.5240845-9.734327,3.6848276-14.7209009,9.3663068.4492884,14.2702056,5.3609848,14.7197086,14.7209009ZM711.3558754,250.6726485c-1.7221807-7.8466052,5.2563949-7.0077873,11.0360733-7.3527481-1.6010414,4.522167-4.7091697,7.5630487-11.0360733,7.3527481ZM703.9953057,228.598761c4.5235977,1.6024722,7.5552271,4.7030889,7.3605697,11.0377664-4.5299886-1.6024483-7.5613795-4.7030651-7.3605697-11.0377664ZM703.9953057,243.3199004v7.3527481h-7.3591389v-7.3527481h7.3591389ZM700.3119328,497.2518636c5.2258478.3141513,10.42277.613351,11.0439426-3.6850183,8.1239617.4646931,1.5578796,15.6196922,3.6769583,22.0892921-9.3214996-6.6353318-26.4317533-5.4667432-22.0814706-25.7572604,6.2595616-1.3632221,6.9480523,2.8599836,7.3605697,7.3529865ZM663.5109921,375.803239c-13.6492476,2.6067596-15.7915765-6.2887018-29.4406094-3.6833729,9.5242171-4.7322291,7.0751293-12.0852157,3.6755513-22.0724566,11.8535726-.8096538,15.5736927,6.5139302,29.4481926,3.6833729,2.6667569,11.2461593-6.3484368,10.8122995-3.6831345,22.0724566ZM656.1504463,758.5503343c-4.9408844-2.4106952-6.8515463-7.8620099-7.3605697-14.7211393,6.477183.8848174,8.3861996,6.3347013,7.3605697,14.7211393ZM626.7098368,769.5864314c7.697685,3.3552477,11.2155645,10.8720584,11.0360972,22.0892921-5.8775914-5.167782-9.3969017-12.6845689-11.0360972-22.0892921ZM630.3853643,806.3951937c-17.3783816-5.7504905-4.8962918-18.2388043,0,0h0ZM626.7098368,482.5307243c4.2597145-14.5402174,4.2597145,14.5400028,0,0h0ZM637.745934,629.7503685c.1057345-3.5790453,4.5084315-2.8599598,7.3605697-3.6833729-.0967206,3.5790453-4.5006099,2.8445551-7.3605697,3.6833729ZM641.4307139,305.8858514c3.5408912,21.8484682-19.5282697,14.7348987-22.0814467,3.6680159.4568477-8.1164024,15.6118706-1.5564726,22.0814467-3.6680159ZM634.0703827,298.5177463c.096506-3.5790453,4.4989645-2.8599598,7.3603312-3.6833491-.1057345,3.5790453-4.5081692,2.8597213-7.3603312,3.6833491ZM667.1941266,346.3626296c-12.7658848,2.9502419-14.1504732-5.4805264-25.7634127-3.6834206,2.8599836-3.2646794,3.9534086-8.3112268,3.6757898-14.7210917,8.6408305,1.1840171,13.8147649,5.8256302,25.7648196,3.6847322.4646931,6.6031393-4.5081692,7.7563231-3.6771967,14.7197801ZM678.231893,309.5538673c-2.8613905,3.2800841-3.9548155,8.3112744-3.6771967,14.7363056-11.9500786,2.1254695-17.1239892-2.5164298-25.7648196-3.6847799v-14.7195416c13.6506784-2.6052812,15.791338,6.2887495,29.4420164,3.6680159ZM663.5109921,302.2008808c1.1375406-5.0003809,9.2174343-3.0543788,14.7209009-3.6831345-1.1394245,5.0020025-9.2174105,3.0543788-14.7209009,3.6831345ZM670.8713233,357.3987268h14.7194939c3.1973374,14.2427108-8.9843843,13.1032624-11.036121,22.0892921-13.1400096-3.1297808-.4492645-9.059524-3.6833729-22.0892921ZM685.5908173,397.8922689c5.301226.8234132,1.2880824,10.9763622,7.3605458,11.036121-4.1556253,11.8305848-10.5040859-3.5482359-7.3605458-11.036121ZM689.2758356,438.3692378c-9.5320387-4.732253-11.5683707-7.6076175-7.3605697-18.4045123,12.7367208-2.5747579,13.1921615,12.908605,7.3605697,18.4045123ZM678.231893,442.0540177c14.7270771,2.4396208,16.0903231,18.2539467,14.7194701,36.7933575-19.3995473,3.158921-23.225402-23.7360946-14.7194701-36.7933575ZM689.2758356,486.2138587c-.105973,3.5792838-4.5084315,2.861629-7.3605697,3.6850183.0964822-3.5790453,4.5006099-2.8613905,7.3605697-3.6850183ZM707.6725024,559.816217c.6209341,7.9831015-13.0510867,1.6776119-18.3966668,3.6847322.3741248-9.3601545,13.708768-8.7007563,18.3966668-3.6847322ZM659.8274046,294.8343972c-.097913,3.5790453-4.5006099,2.8597213-7.3603312,3.6833491.1040892-3.5790453,4.5067623-2.8599598,7.3603312-3.6833491ZM648.7898766,243.3199004c-14.2410415,3.1895158-13.0956793-8.9843605-22.0800398-11.0360972-8.9630419-3.8336762,24.3110054-.5690207,3.6755275-11.0515257,1.5503203-8.1917806,19.5285321-2.8753883,22.081709,0,2.6726708,11.2599187-6.350106,10.8260589-3.6771967,22.0876229ZM634.0703827,195.4749694c-8.6778161,11.8304178-14.877595-12.9391283,0,0h0ZM630.3853643,177.0705287c1.4153979-1.4075763-11.0806659-3.9394108-11.0360972-3.6848276-1.0334753-5.8394373,19.8794067-5.150875,11.0360972,3.6848276ZM619.3492672,276.4452897c10.7817047-1.8876741,20.7473648,11.6802814,18.3966668-7.3681528,12.370203-3.7739174,5.7289334,11.4408168,7.3605697,18.4042738-11.7630043-.4936664-28.1601102,3.6236141-25.7572365-11.036121ZM634.0703827,327.9581173c11.0207163,2.4261-3.5192865,7.8774146,0,14.7210917-7.5032899-1.0779725-7.2180641-9.9580292-14.7211155-11.0363595,1.0104636-12.9083188,13.7104372,9.2392537,14.7211155-3.6847322ZM630.3853643,464.1262358c-14.4956725-3.8488425-10.3476064-15.7989211-7.3589004-25.756998,5.6966932,5.3469871,7.7271113,14.3604639,7.3589004,25.756998ZM626.7098368,515.6561374c.7482257,76.8805346-132.1015115,28.7518564-84.6460624-40.4783759,13.238161.4646692,34.951683,4.3581043,33.1239824-22.0876944,5.9235909,7.5614272,19.8794067,9.9735532,18.3966668-7.3526765,20.9880217,10.9471981,17.1391793,66.2185384,33.1254132,69.9187468ZM611.9886975,574.5373086c4.2616222-14.5401935,4.2616222,14.5400266,0,0h0ZM593.5844237,626.0669956c-11.0055262-11.6219295,24.8062933-7.1443313,0,0h0ZM593.5844237,644.4715079c11.1572603-13.6125243,12.399367,11.1709958,0,0h0ZM582.5480881,607.6625072c.45711-8.1318071,15.6121091-1.5579034,22.081709-3.6847799-.0751636,10.093214-17.3646461,8.7451343-22.081709,3.6847799ZM600.9447549,589.2582334c-6.0492371,4.7168244-19.9683057,9.5379764-25.756998,3.6833729,1.5808913-8.2361347,18.1358836-1.4981446,25.756998-3.6833729ZM582.5480881,578.2204669c-8.0858076,11.2464216-23.5781843-4.252179,0,0h0ZM519.9822085,276.4452897c17.6713813-3.1311877-17.4751023,23.6440955,0,3.6679682.2254192-.2546786-.2545594-3.6233756,0-3.6679682ZM516.2988594,272.7605098c.1042799-3.5790453,4.5067861-2.8599598,7.3605458-3.6833729-.0981514,3.5790453-4.5006576,2.8597452-7.3605458,3.6833729ZM531.0199272,305.8858514c5.7197049,13.0725007-12.4975661,2.2158709-11.0377187,11.0361687-7.7791678-1.1378268,3.8642472-12.7888965,11.0377187-11.0361687ZM567.8210348,449.405335c-10.7831593-3.1143522,2.2003708-11.8443918,0-18.3890837,8.5196674-8.4307683-1.2437521,11.4716262,0,18.3890837ZM556.7832446,401.5604755c-4.267536-15.3942254,3.6542089-50.2555547,18.4045123-58.8812666-3.6236141,15.035553.6669098,49.491948-18.4045123,58.8812666ZM538.3788992,316.9220201v-11.0361687c6.1107368-6.1705672,21.6092897-2.9351233,33.1254847-3.6849706,2.3215577,18.2695898-16.9523434,14.944937-33.1254847,14.7211393ZM567.8210348,324.2901729c-1.9474329,2.9502896-3.8337001,5.9589073-3.6772206,11.0363356-13.0802507-2.8599598-13.379212-.4938333-29.4405856-3.6836591,5.8256064-7.6670663,25.7496295-1.2434421,33.1178062-7.3526765ZM560.4604651,342.679209c-5.5342998,25.1285285-9.8769995,51.4685212-25.7572365,66.2491809-1.6545764-8.251301,5.8178802-34.6524595,11.0360972-47.844621-13.5294676-1.2575114-11.1265701,13.4022237-14.7193986,22.0875991-14.6612613-7.98148,9.6959344-26.520867-3.6772206-44.1617249,9.1730563,3.0854267,19.7155348,4.8073927,33.1177585,3.6695659ZM519.9822085,537.7437603c5.8776867,5.1509227,9.3969017,12.6693788,11.0377187,22.0724566-7.6978996-3.3384122-11.2171622-10.8568683-11.0377187-22.0724566ZM545.7393258,431.0162512c-.2989612,15.9032487-8.9092207,32.5411547-14.7193986,55.1976075-10.991743-19.690687,5.8914461-43.0972256,14.7193986-55.1976075ZM578.8649536,442.0540177c4.2597145-14.541672,4.2597145,14.5400028,0,0h0ZM597.2692274,243.3199004c4.522167,1.6024722,7.5552033,4.7014197,7.3605697,11.036121-4.5314432-1.6024722-7.5630487-4.7014197-7.3605697-11.036121ZM586.2255233,280.1132579c-1.5059662-8.8648904,6.7223231-7.9969085,3.6831345-18.3890837,9.5533573-1.0778056,12.7888727,24.8740883-3.6831345,18.3890837ZM589.9086577,210.1945111c-13.8301696-.8985529-29.7855702.3448892-25.7648435-18.4045123,13.8301696.8987914,29.7855702-.3432915,25.7648435,18.4045123ZM556.7832446,143.9451394c4.732253-14.7348748,7.607379,1.0182852,18.4045123,0-5.9451718,9.8845826-11.6572698,5.4667194-18.4045123,0ZM560.4604651,213.8792909c11.2615641-2.6804924,10.826035,6.3484606,22.0876229,3.6679682,2.8002248,17.2513046-27.3058876,12.9837686-22.0876229-3.6679682ZM567.8210348,287.4814107h-18.3966907v-25.7572365c13.1691736,1.5427133,17.7065307,11.7248264,18.3966907,25.7572365ZM553.0998955,221.2322775c-7.0077873-1.5733081-9.2390152-7.9217449-18.3966668-7.3529865,2.8905546-8.446173,22.7839352-3.5790453,18.3966668,7.3529865ZM531.0199272,287.4814107c9.0518932-8.999789-2.7188134-15.9629837,0-29.440371,9.2987741-1.6332816,13.2826582,31.926206,0,29.440371ZM508.9383375,180.7539016c11.2616117-2.6650877,10.8277042,6.350106,22.0815898,3.6847322,2.657433,25.1731211-22.8605534,10.5271453-22.0815898-3.6847322ZM505.2626669,136.5923436c-1.1454815,4.9866693-9.2175059,3.0560242-14.7209486,3.6848276-.486274-9.0749288-.5614376-17.7465687,3.6771729-22.0892683,7.6886234-1.5564726,9.7480386,2.5164298,14.7194463,3.6850183,4.8594731,9.2098273-14.5477528,11.5145496-3.6756706,14.7194224ZM501.5778155,169.7177806c-5.4651932-3.1297569-5.3225684-11.8597249-7.3589243-18.4044884,4.2828454.599544,6.5508204-.8079846,7.3589243-3.6833729,10.3630112,3.712537-1.0181898,15.63369,0,22.0878614ZM497.9021449,261.7241742c10.6927103.0599735,8.7007801,20.799779,3.6756706,25.7572365-7.7561323-3.0100485-10.093214-19.4071305-3.6756706-25.7572365ZM494.2188912,331.6428495c8.4522777,11.0655712,18.7708155,36.1189123,11.0437757,51.5285185-13.6277621-11.4701954-14.3914164-31.8970419-11.0437757-51.5285185ZM427.9756957,199.15839c12.3550129,3.3550092,1.8201175,6.8437247,3.6771967,18.3888691-11.7708259-.4936187-28.1600863,3.6390188-25.7572365-11.036121,2.553177-7.2624183,20.5311741.9139576,22.0800398-7.3527481ZM405.8956559,180.7539016c4.2599529-14.5400504,4.2599529,14.5416482,0,0h0ZM435.3362654,224.9154119c4.3502827,4.2386105,13.0065418,4.1634469,22.0814706,3.6833491,3.0392125,10.393606-5.1891006,9.5242171-3.6847799,18.4044646h-25.7572604c-1.766511-11.5896655,5.2412525-14.3898902,7.3605697-22.0878137ZM475.8144028,258.0410397c-3.0408579,9.223539-12.8870241,11.6340434-18.3966668,18.40425-10.2433027-8.1318071,2.4474424-24.3050915,18.3966668-18.40425ZM424.2923466,166.0344315v-18.4045123c9.4566367.3589585,5.2642404,14.3607739,14.7211155,14.7197086-1.1394245,5.0020502-9.2098273,3.0546172-14.7211155,3.6848037ZM420.6167953,92.4323117c.0964822-3.5790453,4.4989407-2.8613905,7.3589004-3.6847799-.1043038,3.5790453-4.5067623,2.8597213-7.3589004,3.6847799ZM431.6528924,173.3857011c7.9815038-.6133033,1.6698142,13.0586698,3.6833729,18.4042977h-22.0800398c-.0308094-12.2936086,14.779229-9.7480148,18.3966668-18.4042977ZM398.5350863,162.3496278c4.148066-6.8882935,4.3503066-17.7297332,18.3966907-14.7197086-.4646931,10.5716664-4.6049137,17.4751261-18.3966907,14.7197086ZM424.2923466,224.9154119c9.4874461.8833628-5.054202,6.3346775,0,14.7211155h-18.3966907c-5.0311903,16.0675498,14.2486247,7.8313674,11.036121,22.0876467,8.8051316-11.3504869,17.3340513-3.8334378,33.1253893-3.6831345,3.039451,10.3919367-5.1891006,9.5225479-3.6847799,18.40425-27.0069264-3.9240061-54.950822-17.2819471-47.8373001-44.1614865,10.4076038-.6441604,25.248237,3.1586825,25.7572604-7.3683913ZM427.9756957,324.2901729c-5.8700082,13.5373607.8388179-14.9003682-11.0439188-7.3681528v-11.0361687c11.1634126-1.363246,7.6381884,11.9792904,11.0439188,18.4043215ZM402.2123068,331.6428495c-8.191566-1.5424272-2.882733-19.5282221,0-22.0889821,14.8989374-1.8571031,6.2289429,22.1030276,0,22.0889821ZM405.8956559,460.4582676c-.1043038,3.5776384-4.5067623,2.8445789-7.3605697,3.6679682.0981514-3.5790453,4.5006099-2.8443166,7.3605697-3.6679682ZM383.808033,471.4946271c9.3430805,2.9042901-10.3476064,12.8623193,0,18.40425,11.5742846.5244519,12.6461525-9.4491012,14.7270532-18.40425,10.7004126,3.2046821,4.1326613,5.5110497,3.6772206,14.7192316,11.5605253,1.753014,15.033836-4.5970921,18.4044884-11.0360972,4.3118902.5844016,3.0989475,6.7087546,3.6755513,11.0360972,18.8613599,1.0182852,5.9605765-15.7375169,18.40425-14.7192316,18.5394109.1040892-17.9182383,28.9604639,3.6757898,33.1236962,5.9757428-6.3038442,11.1420702-13.402176,11.0453495-25.7709481,27.2231409,3.488477-7.578215,30.8927545,3.675766,40.4921113,16.6823078,3.1895158,8.6102595-18.3890837,22.0876467-18.4044884,1.1991834,15.3942254-14.2026251,27.2693789-3.6833729,40.4766589,4.9422913-2.4103852,6.8515463-7.860293,7.3605697-14.7194224,19.8795021,25.5777692-24.0122826,42.3798093-14.7211393,80.9702726-91.6920038,18.2098548-133.8833318-73.4823874-88.329173-136.1678801ZM453.7329561,673.9118312c-8.1609711-10.8122518,14.0402079-22.6274796,18.40425-33.1253416,11.5837754,14.2272345-15.5215408,21.1447159-18.40425,33.1253416ZM450.0571663,633.4183129c-4.3808776,16.5628377-24.8968616,39.1302723-36.8009407,25.7726651,9.576369-11.2909666,20.2077704-21.5036983,36.8009407-25.7726651ZM402.2123068,644.4715079c-10.7525645-4.118902,4.6862296-11.9654833,11.0439188-11.053195,10.6774009-6.0786396-9.9813032,5.900603-11.0439188,11.053195ZM383.808033,644.4715079c2.9870368.6884907,3.6679444,3.6831345,7.3664836,3.6679444-.703657,2.9794536-3.6985392,3.6693751-3.6831106,7.3681528-2.9796921-.7038954-3.6696136-3.6987777-7.3605697-3.6847799.6960739-2.9796921,3.6909561-3.6681828,3.6771967-7.3513173ZM376.4474634,607.6625072c3.4363251,3.9225753,13.581691,1.1380176,11.0439426,11.0363356-8.0260726.673086-11.7110909-3.0102631-11.0439426-11.0363356ZM391.1745166,784.3227132c-3.1297569,10.797181-9.2619792-4.7919403-18.40425,0,3.1297569-5.4666956,9.2620031-7.9217211,18.40425-7.368129-2.2679512,3.2800841-4.4470034,6.5893561,0,7.368129ZM369.0868937,747.5139748c-.0964822,3.5790692-4.5005861,2.8599836-7.3605697,3.6833729.1057584-3.5790453,4.5084315-2.8597213,7.3605697-3.6833729ZM365.4111277,316.9220201c-9.5239787-5.1969222-17.5517205-11.8903436-14.7209009-29.4406094,11.0439188,3.3538169,18.40425,18.2387804,22.0800398,0,9.48747,7.366722-3.7739412,22.9710095-7.3591389,29.4406094ZM369.0868937,280.1132579c-13.0510867-.4338598-23.3235534-3.6542089-25.7572365-14.7209009,12.908605-11.5899516,15.4096301-17.1607363,14.7211393-36.793596,18.8613599,4.2538006,15.5658711,33.9490409,11.0360972,51.5144969ZM321.2496174,213.8792909c3.5193103-7.5184561,7.5170492-14.5708122,11.0360972-22.0892921,15.4618058,4.732253.2991997,22.0587212-11.0360972,22.0892921ZM335.9690875,177.0705287c.5920085-4.3135356,6.7088261-3.1005929,11.0377664-3.6848276-.5920085,4.3135833-6.7088261,3.1160692-11.0377664,3.6848276ZM347.0068539,206.5111381c16.6147512,2.6053288,8.8051316,35.3106177-7.3605697,36.8087622-10.0638115-16.6225489,5.914577-21.4742957,7.3605697-36.8087622ZM335.9690875,114.5045299c2.7480729,18.3890837,1.363246,18.0149589-3.6833729,33.1253893-3.2798456-13.8974877-16.3371085-18.0147205-18.3966668-33.1253893h22.0800398ZM317.5648375,151.3132922c-2.9564658-1.9474329-5.9743358-3.8488425-11.0363595-3.6833729,1.909255-5.4513147,5.4437316-9.2695862,7.3605697-14.7209009,7.9738968-.6135656,1.6622072,13.0586937,3.6757898,18.4042738ZM313.8890477,184.4386338c15.5966805-.1654219,3.3246529,25.0979098-7.3605697,22.0725043-3.9377415-13.7471844,9.1349261-10.482505,7.3605697-22.0725043ZM295.4847978,206.5111381c-6.2227906-2.9349326-.4341221-24.6792163,11.0436803-22.0725043-3.2722625,7.7716801-11.2077429,10.8706753-11.0436803,22.0725043ZM328.6101871,725.424945c-69.3943187-14.8100384-99.1431418-84.8776816-69.9265684-158.2405752,4.7689763,47.979758,6.693636,98.8057641,47.8448594,110.3954535-16.8463704-27.3288754-31.5075124-80.3400861-7.3603312-117.7636063,4.275143,4.5235977-2.748049,28.9773471-3.6833491,40.4935421,11.4853855,1.3477936,12.0849772-.3895295,22.0800398,0,3.5268696-7.578215-.7176786-19.1987376,7.3605458-29.4557757,14.9449608,9.8231783-1.0182852,22.0124116,3.6848037,47.8448594,15.2669099,3.0100485,1.8416745-22.6872146,11.0360972-25.7572365,34.6588741,24.1701929,25.6223379,109.8112903-11.0360972,132.4833387ZM347.0068539,758.5503343c-1.6330432,5.3455801-3.2279322-.3741248-7.3605697,0,.9139815-4.6281638,7.3221533-3.7139916,7.3605697,0ZM310.2059133,740.145822c-8.0798698,11.2461832-23.5705774-4.2384197,0,0h0ZM295.4847978,854.2400531c-2.4182784,4.9422913-7.8695931,6.8591533-14.7211393,7.3530104-3.7063608-11.0654997,8.1993637-6.5141925,14.7211393-7.3530104ZM255.0002457,854.2400531c5.2030984-8.0260964,20.2153535-18.4179854,29.4406094-11.0360733-6.9480285,6.5447635-14.8557995,12.1295221-29.4406094,11.0360733ZM207.1615386,357.3987268c4.118902-11.5896893.3297945-8.3250338,0-22.0722182,9.4198895,2.8305811,20.8609448,3.6693751,25.7572365,11.036121.2776426,12.5496703-13.6338429,10.9028678-25.7572365,11.0360972ZM229.2430092,364.7668796c-1.6330432,5.3455324-3.2355153-.3741248-7.3603312,0,.906136-4.6263038,7.3143317-3.7139439,7.3603312,0ZM232.9187752,559.816217c4.2613837-14.5402412,4.2613837,14.5416482,0,0h0ZM232.9187752,272.7605098c4.5297739,1.6024006,7.5630487,4.7030651,7.3605697,11.0360495-4.522167-1.6007314-7.5552033-4.7013959-7.3605697-11.0360495ZM262.3593846,375.803239c16.1133109.3449608-6.9036982,14.8712042-7.3591389,22.0890298-1.1683501,6.4987639,20.6203116,6.5585228,14.7197086-3.6848276,16.3233731,18.4505357,45.7409708,42.0208984,40.485959,69.9187945,9.905925,9.6147854,40.40915,14.4804824,25.7631742,36.8087622-6.5509158-6.9480285-10.6987434-16.2927782-25.7631742-14.7211393-5.1523296,18.6453839,16.8831176,10.1086425,14.7194701,25.757475-15.0646455.8831482-19.3919404,12.5051015-33.1239585,14.7209009-46.0416013-17.5503135-82.4010752-121.3734849-29.4420402-150.8889956ZM347.0068539,467.8096088c-12.6402386,13.5833602-13.2457442-15.9769815-29.4420164-11.036121,6.8958766-7.0077873.4046958-9.2543961,0-18.40425,8.3785926,2.6650162,18.8016011,3.2798456,25.7648196,7.3681528,2.1193172,6.4695999-4.4470272,21.6091705,3.6771967,22.0722182ZM339.6462842,545.0967469c5.368568-12.1895433,9.1576755,14.3605116,0,0h0ZM339.6462842,431.0162512c-6.5969154.4646931-7.7576823-4.5067623-14.7209009-3.6833729-2.6804924-10.0486452,7.3160009-7.4127216,7.3603312-14.7209009,5.4591363,3.1297808,7.9141618,9.2541815,7.3605697,18.4042738ZM310.2059133,408.9283899c-4.9425059-2.4256707-6.8515224-7.8617715-7.3605458-14.7209486,10.7738831,3.3107028,11.3058943,3.3107028,22.0800159,0-1.1747409,8.6411166-11.3888795,8.2361824-14.7194701,14.7209486ZM295.4847978,390.5241161c-7.4051384-4.0880687-21.4437009-11.2461593-11.0439426-22.0721943,7.6595309,2.155802,11.8979267,7.726849,18.4045123,11.0360972-1.303511,4.8365567-6.4774215,5.7794399-7.3605697,11.0360972ZM313.8890477,526.6922346c9.2252559-17.7157592,22.5893016-4.3578659,0,0h0ZM280.7636584,570.8539834h-7.3589004c-1.0412969-5.9451718,3.4732869-6.3347013,3.6755275-11.0377664h7.3605697c1.0412731,5.945148-3.4747177,6.3347013-3.6771967,11.0377664ZM269.7199543,239.6365274c-9.1500923-.5549991-1.0704371-12.4590782,0-14.7211155,9.4872315.8833628-5.0544167,6.3346775,0,14.7211155ZM255.0002457,118.1879029c20.4408443,1.7973442,17.6254294,14.9603417,14.7197086,33.1253893-15.9708053-7.5476201-5.4207199-18.9132972-14.7197086-33.1253893ZM243.9627178,228.598761c-20.0512909-6.9631947,9.643711-25.4872486-3.6833729-36.8087622-16.9599265,9.8694163,1.7971058,44.836504-18.3966668,44.1617488,1.2205258-30.0999361,14.0385625-52.6968209,18.3966668-88.3218283,41.166652,14.2550393,8.4461969,51.6785595,3.6833729,80.9688418ZM159.3166792,486.2138587c-2.9642874-1.9457637-5.9743358-3.8334378-11.0439426-3.6831345,1.9168381-9.1194975,8.970625-13.1032624,14.7211393-18.4044884,8.6699945,3.1145907-3.0562865,16.1426896-3.6771967,22.0876229ZM133.5518357,221.2322775c8.424616-4.5681665,24.7098111,14.4205089,25.7648435,29.440371-13.0357058-6.4387905-9.0519409,2.455264-22.0800398,3.6833729-3.8337001-15.4233894-1.5427372-11.3810818,0-29.4406094.673086-3.1295423-1.4384096-3.4747892-3.6848037-3.6831345ZM129.8760698,283.7965593c-10.4673388-4.9116488,2.8383789-16.3664395,3.675766-22.0723851,14.601407,3.6833491-.5827562,14.8546072-3.675766,22.0723851ZM159.3166792,228.598761c-17.1607602-8.6102357-22.7915422-28.7366902-36.8011791-40.4918729,15.6412493-2.4106952,46.1537266,15.8434899,36.8011791,40.4918729ZM229.2430092,655.507605c-.1057345,3.5790453-4.508193,2.8597452-7.3603312,3.6833729.0964822-3.5790453,4.5006099-2.8599598,7.3603312-3.6833729ZM174.0375563,677.5798232v-7.3527481c3.1297808.6747553,3.4671584-1.4367403,3.6757898-3.6833491,7.1426859-1.452145,5.3761511,16.7728761-3.6757898,11.0360972ZM162.993876,681.2648654c-5.8254395.3143182-14.0326486-1.7682041-14.7211393,3.6831106-7.9293281-5.8100109,13.5755387-13.1629975,14.7211393-22.0876229,10.7968948,3.1297808-4.7844049,9.2698247,0,18.4045123ZM137.2366395,835.8358031c4.2599529-14.5402412,4.2599529,14.541672,0,0h0ZM140.912167,695.9843355c.4125412,25.1590756,20.8379569,87.9491105,62.5659988,95.6913881-8.9108661-18.8400175-38.6504368-53.0571864-29.4406094-92.0066082,2.9567043,1.9460022,5.9743358,3.8336762,11.0363595,3.6833729,3.8855897-14.5262673,1.39241-35.4163522,18.40425-36.8087622-1.6316124,16.7728761-10.6773771,41.6007264-7.3603312,51.5298777,18.8381336-9.5550266-1.093425-42.2003181,29.4403948-44.1617726-7.2915823,15.2287796-8.5718431,25.831017-11.036121,51.5131138,14.8697973-7.2026832,5.5556423-38.6044611,25.7572365-40.4769689,6.3498676,18.4642473-11.3964626,41.7956223-11.0363356,66.2493717,23.2256405-2.5453554,7.5767842-43.9514482,29.4406094-47.8448594,6.1843742,18.3001847-10.3030377,42.8888326-7.3605697,69.9187468,14.6905445-7.3833429,8.5061704-35.6555784,18.3969053-47.8462902,16.404689,26.730953-22.552316,56.8000558,0,92.0063697-68.5327276,50.7064646-143.0931592-43.2766929-128.8077873-121.4469792ZM361.726324,1034.5699204c4.2675599-14.5401935,4.2675599,14.5400028,0,0h0ZM413.2562256,905.7699308c-.0675566,15.5735019,1.7065375,23.5551965,3.6755513,51.5145207-10.9917907-12.5788343-22.9494525-39.1596986-3.6755513-51.5145207ZM420.6167953,1027.2169577c1.5562342,7.9063402,3.3611616,22.2979235,7.3589004,36.7933337,4.440851-19.2276631-.6884907-60.5877564-3.6833491-84.6382408,13.6952471,24.3343032,15.3787968,60.6783724,22.0800398,92.0064174-18.6804856,3.5792361-27.404039-14.7346364-29.4406094-29.440371-.5381874-3.8934351-4.9193035-58.4487899,3.6850183-14.7211393ZM439.0134621,964.650959c-3.2724771-2.8597452-8.3112744-3.953194-14.7211155-3.6833968,1.999561-13.4021998,2.612912-16.9658404,7.3605458-33.1253893,12.8256437,1.9031265,5.3977559,24.0507229,7.3605697,36.8087861ZM431.6528924,898.4018019c4.2675599-14.5402412,4.2675599,14.5414335,0,0h0ZM457.4177359,972.0039217c-18.6221576-2.021118-9.8385831-47.6348211-11.0453495-55.1978221,15.8894894,6.1843503,1.2743231,42.8888326,11.0453495,55.1978221ZM446.3723864,898.4018019c12.3474297-8.895676-8.8940545,12.3396081,0,0h0ZM439.0134621,865.2778433c-.6671483-8.0275272,3.0162247-11.7108286,11.0437041-11.0377903-3.9315892,3.4304351-1.1453622,13.5679794-11.0437041,11.0377903ZM464.7768748,894.7184528c14.3759401,10.6311629,17.3262297,72.7478972,14.7209009,99.3744987-23.5336156-11.9208669-19.9545703-67.133903-14.7209009-99.3744987ZM376.4474634,699.6691154c18.7938033,13.1032624,12.8640362,50.9286407,44.1693319,51.5282323-2.4434839-23.0771733-33.6799115-44.8108693-4.714249-76.1892777.1476802-.1610341.2991043-.3243814.4545107-.4901371.1865497-.1989975.3768671-.4002365.57472-.6061017-.1978529.2058652-.3881703.4071042-.57472.6061017-.1539756.1637765-.303802.3268852-.4545107.4901371-18.5942574,20.2755655,23.5841698,3.295608,19.4337191-8.4643439,4.178637.7038954,2.0439151,3.6985392,0,3.6833491,1.4673351,15.8589184,6.7685611,10.7079958,7.3603312,22.0892921,16.0981208-4.7628001,23.1367414-18.5837412,33.1178062-29.4560142,20.3350143,11.1712581-27.8165563,24.9184425-14.7209009,40.4921352,19.3182314-.3143898,14.3835233-24.8738737,33.1253893-25.7726651,7.8756977,20.0069606-27.9287056,25.2634032-33.1253893,44.176915,14.368357,10.5119075,20.9728555-18.1650476,36.808643-18.40425-.9813711,26.0118674-21.4589864,32.5103929-36.808643,44.1614865,7.9217688,17.7895159,25.0165939-2.6664946,29.4482164-11.0360972,5.9757428,84.05403-127.4597314,41.8399526-114.094255-36.8087622ZM486.8583454,913.1227028c13.3731073,20.7398055,26.6849296,58.5974001,7.3605458,80.9702487-11.8459656-22.1779289-7.053763-45.0308992-7.3605458-80.9702487ZM497.9021449,835.8358031c7.6963734,3.3398668,11.2156122,10.8583229,11.0361926,22.0890775-8.9169708-2.1267095-8.183959-13.8975354-11.0361926-22.0890775ZM508.9383375,957.2844516c6.955707.4184551,2.5532008,12.1738286,11.0438711,11.0515257-3.2938434,9.927506-14.9372346-1.7221807-11.0438711-11.0515257ZM516.2988594,721.7567383c5.3686395-12.2044711,9.1577232,14.3453692,0,0h0ZM519.9822085,754.8669613c5.3609133-12.1909502,9.1576993,14.3607739,0,0h0ZM505.2626669,592.9416063c23.5705535.9583118,30.7056563,18.3599197,58.8811474,14.7209009,5.8332611,14.4359136,25.5547813,45.1186059,36.8009407,66.249324,13.5527893-6.2149213-10.1145564-25.8169477,18.4045123-25.7723789,1.9168381,20.3211119-2.1114956,34.6970521-3.6833729,51.5296631-59.2413459,57.0838746-136.5268386-23.1825263-110.4032274-106.7275091ZM608.3053246,846.8735457c10.1377827-3.5792361,10.7525645,20.5755521,7.3605697,18.4042977-12.362596,3.7876529-5.7289334-11.4410791-7.3605697-18.4042977ZM604.6297971,769.5864314c4.2599529-14.5400028,4.2599529,14.5554313,0,0h0ZM593.5844237,843.2039798c5.3010114.8233655,1.2881063,10.9763622,7.3603312,11.0360733.6825768,3.1297808-1.4367403,3.4747415-3.6755275,3.6848276h-7.3605697c-.4722762-6.6045223,4.5005861-7.772944,3.675766-14.7209009ZM582.5480881,868.9612401c-1.6313978,5.3455324-3.2338461-.3741486-7.3603312,0,.906136-4.6279492,7.3160009-3.7140154,7.3603312,0ZM538.3788992,776.9545842c10.9854714,2.5164298,12.3397035,14.6459758,11.0454449,29.4406094-9.4506751-6.6182101-16.2713643-18.0592892-11.0454449-29.4406094ZM538.3788992,813.7633226c-.9047291,3.9840511-7.3145224,2.4858827-7.358972,7.3530104-3.5790692-.105973-2.8537597-4.5084315-3.6772206-7.3530104,4.8303567-4.4332202,5.78874-1.4384096,11.0361926,0ZM527.3427067,879.9973135c14.5937523,9.9442938,9.4122825,39.6547481,18.3966191,55.2130361-12.2935132,2.3815312-21.3316233-30.1151262-18.3966191-55.2130361ZM553.0998955,839.520583c16.6379775,15.4831244-1.9535853,30.0402011-7.3605697,44.1615103-13.4926489-16.1439057,7.1291651-29.5309393,7.3605697-44.1615103ZM571.5043839,942.5632645c2.5240129,12.3396558-6.176791,13.4620064-14.7211393,14.721187-1.9611684-10.3032761-5.4053151-19.1235978-7.3589004-29.4422787,9.2695862,2.9965276,14.6443304,9.8845826,22.0800398,14.7210917ZM578.8649536,843.2039798v7.3527242c-17.9398192,3.6833491-6.7917874-19.5865978,0-7.3527242ZM575.1877568,883.6820933c10.460948,1.795675,13.0141249,11.5147642,14.7209009,22.0878375-3.2800841-2.8599359-8.3112983-3.968551-14.7209009-3.6833014v-18.4045361ZM593.5844237,879.9973135v-7.3527719c7.8541883-1.7221807,7.0094566,5.2564903,7.3603312,11.0375518-2.9794536-.703657-3.6679444-3.7001846-7.3603312-3.6847799ZM597.2692274,894.7184528c13.9863868-2.9503134,4.6800772,17.4013695,7.3605697,25.7723789-10.5287669-.5244281-6.7318378-15.3495851-7.3605697-25.7723789ZM600.9447549,938.8799631c6.2303737-16.7282834,14.9006067,21.1447159,0,14.7194701-3.519048-6.8437009,11.0226002-12.2936324,0-14.7194701ZM608.3053246,879.9973135c4.2829646-9.8386069,19.5346844-.329556,14.7211393,11.0515257-11.81518,3.2203014-7.6303668-9.553405-14.7211393-11.0515257ZM626.7098368,935.2103495c-12.5266825-4.6568509-13.4100691-20.9498915-14.7211393-36.8085476,17.9474023-.7636543,14.8038622,19.5420529,14.7211393,36.8085476ZM619.3492672,946.2466613h11.0360972v11.0377903h-11.0360972v-11.0377903ZM626.7098368,854.2400531c12.362596-3.7736789,5.7272642,11.4410314,7.3605458,18.4044884-5.4591363-3.1297808-7.9141618-9.2698247-7.3605458-18.4044884ZM630.3853643,883.6820933h7.3605697v14.7197086h-7.3605697v-14.7197086ZM641.4307139,857.9248807c13.9269141,2.021118,21.2858145,10.6022135,22.0802782,25.7572127-12.1006204-3.8488425-23.7884611-8.1026431-22.0802782-25.7572127ZM751.8340366,787.9909437v7.3680813h-7.3605935v-7.3680813h7.3605935ZM744.4734431,806.3951937v-7.3529627h7.3605935v7.3529627h-7.3605935ZM744.4734431,1005.129311c4.267536-14.541672,4.267536,14.5400028,0,0h0ZM748.1568399,821.116333c10.7216835-.5552852,11.1787697,14.9295561,7.3605458,18.40425-8.0490366-.5398328-7.8987571-9.2696339-7.3605458-18.40425ZM748.1568399,924.1590622c8.3496432,13.4482232,13.3578457,46.7071042,11.0438949,58.8963851-14.2625748-9.0595002-10.3691874-36.2537393-11.0438949-58.8963851ZM759.2007348,1005.129311c8.1548188-2.022835,5.2336932,7.0232159,11.0377903,7.368129,1.5946506-21.87923-8.5213366-62.1626622-11.0377903-92.0066082,15.0201244,20.5451719,14.4586868,56.6792027,25.7572604,80.9536994,10.7816809-23.1350722-10.4306155-45.9282359-7.3605935-73.6023582,19.2890912,15.0661001,24.3724573,44.3272422,33.1253893,69.9341754-23.2867824,4.927125-30.6381236,25.7864006-62.5659511,22.0724328-1.9920255-14.6443065,13.0359205,3.968551,11.0438949-14.7194701ZM818.0833845,857.9248807c11.5681322-.5395944,12.6385455,9.4338873,14.7194701,18.4044884-10.5716425-.4798832-17.4751499-4.6125445-14.7194701-18.4044884ZM840.1634481,909.4379229c-8.6178665-1.1977526-3.5715099-16.0521451-11.0439903-18.3890837,6.3714485-10.810678,13.3946644,8.3266553,11.0439903,18.3890837ZM840.1634481,865.2778433c7.2562421,2.9042901,13.2305541,12.8777717,7.3605458,18.40425-5.4653363-3.1158069-5.3242615-11.845751-7.3605458-18.40425ZM847.5239939,891.0488392c5.2779997,4.5235977,6.9708017,12.6539979,7.3605458,22.0738636-11.2309454.4647169-10.3402379-19.152738-7.3605458-22.0738636ZM851.2071045,846.8735457c13.0665391,5.3455801,14.0770028,22.7315926,14.7211393,40.4918967,19.4531539.5995917,7.6073552-21.9235364,7.3605935-33.1253893,15.3864038,5.9911475,10.7508714,25.787879,3.6755275,36.8087861-6.1319838-.0138309-12.2644923,0-18.3967145,0-5.0465474-12.1447361-4.9192558-29.4406094-7.3605458-44.1752935ZM854.8845397,718.0736038c2.6956825,3.428742,6.6934214,5.5693539,11.0437041,7.3513411-14.2258514,15.7543524-60.8959461,30.7438104-69.9265446,0-.6287796-9.2084204,5.6537699-11.514788,11.0377426-14.7194939-.5549991-6.7993706-12.4590782-2.2620612-14.7211393-7.3529627.9139815-30.9830843,7.3529627-56.4413835,18.4044884-77.2854927,48.2650314,1.3770053,44.0342187,56.0212591,25.7572604,88.3215899,11.4623977,5.8853891,23.6303601-14.2564463,44.1693319-11.0360972-2.1790283,11.3213229-18.1653099,8.8202501-25.7648435,14.7211155ZM847.5239939,431.0162512c.2100383,30.9539203,16.734245,37.873047,33.1253893,69.9187468h-14.7211393c18.3523127,25.8461117-15.6870104,42.8582378-14.7211393,73.6023105h-14.7270532c9.2987264-26.9855362,10.9088294-38.9356148,18.4044884-66.2339193-10.5579071,13.9709821-18.1055511,30.9522749-22.0816852,51.5128276-19.9606988-4.791988-27.8672775-59.7950096-3.6833968-66.2493717-13.814741-19.8412526,7.4879328-45.4787568,18.4045361-62.550594ZM847.5239939,401.5604755c6.477183.8985529,8.3862234,6.3344629,7.3605458,14.7362579-2.9580873-1.96279-5.9759812-3.8488186-11.0438949-3.684756,1.9457637-2.9642635,3.8412594-5.974312,3.6833491-11.0515019ZM869.6038191,626.0669956c.5397851-8.0428842,9.2773601-7.9079856,18.4044884-7.3681528-.5981609,4.2827261.80963,6.5585228,3.6771967,7.3681528-5.3163922,15.9478175-8.22073-3.8796758-22.0816852,0ZM876.9643649,644.4715079c.7038954-2.9811706,3.6909322-3.6696136,3.6850183-7.3683913h7.3589243c1.7159806,7.8620099-5.2550595,7.0080258-11.0439426,7.3683913ZM854.8845397,581.9055091c1.9457637-14.0020538,7.6884803-24.2147616,11.0437041-36.8087622,24.3112677,2.8750783,24.4461901,46.8557382-11.0437041,36.8087622ZM884.3249107,585.5734535c4.267536-14.5402889,4.2600006,14.5554075,0,0h0ZM876.9643649,523.0228594c10.0716331,3.1603518,19.5285082,19.1081693,14.7211393,25.7572365-7.4509233-6.0494756-14.6827468-12.3090133-14.7211393-25.7572365ZM862.2448471,386.840767c8.5505245,2.5012397,9.8523424,12.2338497,18.4045361,14.7197086-7.773087,11.066692-17.7159977-6.5295972-18.4045361-14.7197086ZM821.758912,401.5604755c-8.077986,11.2461593-23.5703628-4.2369651,0,0h0ZM895.3688533,556.132844c3.1297808-.673086,3.4671584,1.4384096,3.6771967,3.6833729.9123122,4.6279015,7.322201,3.7139439,7.3589243,0,9.8248237,5.3915558-1.5349394,20.2015942-11.036121,18.40425-.3373776-13.7457536-4.1250782-10.4962644,0-22.0876229ZM899.0460501,526.6922346c4.2675837-14.5416958,4.2675837,14.5402412,0,0h0ZM913.7655202,519.3394865c10.0486452-4.1923725-2.3507218,24.9781775,0,36.7933575-11.1634126,1.363246-7.6364954-11.9792427-11.036121-18.3890837,11.4929687,1.6776119,11.7630043-7.8620099,11.036121-18.4042738ZM921.126066,618.6988428c-10.3475826.5381874-10.6100351-9.0151699-11.0363118-18.3890837,6.4465644,3.3535307,12.7888727,6.8285584,11.0363118,18.3890837ZM832.2068398,295.8036783c54.2376265,17.964977,88.9418325,85.2210924,88.9192262,168.3225575-33.6346035-27.0453428-22.394358-71.5503831-51.5222469-106.7275091,11.921153-16.397082-6.3269036-57.7723654-36.8009645-44.1600795-1.6437263-4.3654013,2.2580073-14.2764533-.5960147-17.4349689-1.0229591-.3388323-2.0506398-.6657413-3.0873821-.9692811,1.4653082-.1129123,2.4455824.2590186,3.0873821.9692811ZM803.3622451,254.3560214c-4.5143454,10.0777377-11.4180436-7.7868464-14.7194701-11.036121,7.3221533-12.8932003,8.4001497,10.7968948,14.7194701,11.036121ZM755.5173857,221.2322775c-1.6316124,5.3455801-3.2340846-.3741248-7.3605458,0,.9139338-4.6282115,7.3159532-3.7141824,7.3605458,0ZM829.1194578,397.8922689c-10.7738593.9585502-11.306109-8.3264407-22.0800159-7.3681528-4.9944193-25.6666682-3.5790453-57.758606-14.7211393-77.2854689-7.9814561-.6148056-1.6698142,13.0572629-3.6755275,18.4042023-2.4412424-7.6224737-18.75708-20.172144-22.0814467-14.7208293-10.6928295-5.1371872,1.0410346-18.1650476,3.6771967-22.0876229-3.6926491-14.0618127-30.3178199-5.5556423-25.7650819,11.0514542-11.5759538,1.7511778-14.3835233-5.2412048-22.0814944-7.3681051,1.1240675-24.5137229,11.7414472-21.638573,7.3605935-36.7935721,64.6253186-.4492884,104.4441293,54.7331529,99.3669156,136.1680947ZM700.3119328,180.7539016c6.8667364-15.558288-23.5414372-25.4566299-22.0800398-47.8448833,29.830139,8.191566,23.3297296,52.7274157,47.8448833,66.2493717-8.0336318.8385794-11.8014446,24.6040765-3.6848276,29.440371-12.6906974,7.6382123-9.3217142-32.2711667-33.1161131-25.7709958,8.183959,12.1295698,6.3344629,25.4414636,0,40.4921352-15.1260736-27.8687321-35.6112481-38.889663-44.1693319-66.2493717-8.0490604-8.8954614,6.9786233,5.7505144,11.0439426,7.3681051,5.3009875-2.0668553,8.9781843-5.7502282,11.0436803-11.0529327,1.0121329-14.4956248-15.7377553-11.2461116-14.7270532-25.7557819,11.6800191,5.4958834,14.6381542,19.7217587,25.7648196,25.7557819,4.275143-21.5034121-23.4662736-42.7232915-40.485959-55.1977983,30.2870105-3.2492747,39.0030045,46.8422174,62.5659988,62.5659988ZM637.745934,129.2256693c-.0964822,3.5790453-4.4991791,2.8599598-7.3605697,3.6833491.105973-3.5790453,4.5084315-2.8599598,7.3605697-3.6833491ZM619.3492672,118.1879029c-10.9533743,15.5153646,17.2818994,17.9857949,11.0360972,40.4783759-10.4673388-1.5733081-12.8410484-34.3384035-22.0800398-14.7211393-4.8884702-2.7557037-1.8798525-28.6170294,11.0439426-25.7572365ZM630.3853643,361.0837689c-10.2051247,12.3395843-17.2129121-9.5242171-25.7555673-11.0363595,8.1455426-10.2741121,11.1709958,15.558288,25.7555673,11.0363595ZM571.5043839,184.4386338c4.2383959-4.3578182,4.1632323-13.0140534,3.6833729-22.089006,17.310825-1.3618152,22.5753038,9.314155,29.4420402,18.4042738-8.5659292,9.7634195-19.8350764,5.8854129-33.1254132,3.6847322ZM589.9086577,110.8213954c-4.7995711-17.2818994-12.1371529-32.0167743-22.0876229-44.1617249,8.5426552-2.6053527,55.0856968,38.3206423,22.0876229,44.1617249ZM571.5043839,99.783629c-10.1238088,9.8845826-13.78417-17.9243906-22.0800398-22.0724566,6.6182578-6.3790793,13.8209172,17.8800603,22.0800398,22.0724566ZM556.7832446,202.8277652c-9.0749288.4938571-17.7296139.5690207-22.0800159-3.6693751,1.9474806-2.9642874,3.8412832-5.974312,3.6756706-11.0515019,10.7832309.2697495,20.7488909,1.3324127,18.4043454,14.720877ZM534.7032286,129.2256693c-.1042561,3.5790453-4.5067861,2.8599598-7.360522,3.6833491.0981514-3.5790453,4.5006576-2.8599598,7.360522-3.6833491ZM531.0199272,177.0705287c-8.8663689,1.5120708-7.9969085-6.7239924-18.3967384-3.6848276-1.176124-8.5352867.590387-14.1215,3.6756706-18.389036,8.3403908,3.9240061,13.3732027,11.1572603,14.7210678,22.0738636ZM519.9822085,99.783629c3.5943785,14.885202-19.7446035,21.7289267-18.404393,3.6848037,8.8663689,1.51188,8.0045632-6.7242308,18.404393-3.6848037ZM505.2626669,62.9902715c9.5088839-12.6831381,8.8878306,18.9287019,0,0h0ZM494.2188912,37.2190611c1.2727731-4.433101,9.7924881-2.9655274,11.0437757,0,3.3321883,7.9663137-13.4774349,8.5353106-11.0437757,0ZM501.5778155,81.3791406c-15.1917463-3.2032751-18.3812621-18.4180093-18.3966668-36.7933575,10.737136,6.5739275,23.2423567,26.3859445,18.3966668,36.7933575ZM486.8583454,92.4323117c-8.8648904-1.5135493-7.9969085,6.7088261-18.4045123,3.6679444,6.3195351-5.945148,9.1425092-15.3942015,7.3605697-29.4405856,5.9743358,6.3041065,11.1404248,13.4022237,11.0439426,25.7726412ZM468.4538331,62.9902715c-4.1708154-.7038954-2.0439151-3.6987538,0-3.6833491-22.6196341-36.1800781,5.3901489-25.2037159,0,3.6833491ZM457.4177359,99.783629c-8.5367413,1.1837786-14.1291308-.5827562-18.4042738-3.6833729,2.1176479-21.5188407,18.7553869-37.8116189,0-51.514473,13.1554382-.4032888,33.3783748,35.701578,18.4042738,55.197846ZM439.0134621,26.1812231c-.0981514,3.5792838-4.5008245,2.861629-7.3605697,3.6850183.1043276-3.5790453,4.5067861-2.8613905,7.3605697-3.6850183ZM424.2923466,33.5342097c7.5630249,5.9452195,8.5350721,18.464295,7.3605458,33.1254609-6.1246153-6.1398293-6.820713-17.7003545-14.7211155-22.0738874-14.0693958-.584187-11.9576618,15.020029-18.3966907,22.0738874-12.1217244-17.1759264,4.440851-37.1537945,25.7572604-33.1254609ZM391.1745166,239.6365274c-4.9406221-2.4258615-6.8574602-7.8619861-7.3664836-14.7211155,11.4623977-1.7219661,13.1554143,9.2543484,7.3664836,14.7211155ZM380.1308363,199.15839c8.4829202-1.1379937,4.0880687,10.6328322,11.0436803,11.036121-4.4470034,11.0820967-16.0902992-.5536637-11.0436803-11.036121ZM380.1308363,166.0344315c3.7506911-4.8379875,3.6096163-13.5679555,7.3605697-18.4045123,3.6463635,5.5098812,6.6933975,18.4182478-7.3605697,18.4045123ZM380.1308363,121.8729212c-6.1322223,8.6393997.329556-1.3480797,0-7.3683913,1.0780202-13.7028541,9.1576755,10.8414636,0,7.3683913ZM380.1308363,99.783629c-1.6316362,5.3470109-3.2340846-.3741248-7.3605697,0,.9139576-4.6264946,7.3160009-3.7125131,7.3605697,0ZM365.4111277,66.6596705c4.5821404-8.91089,9.1119144-17.8798457,11.0363356-29.4406094,7.3605697,6.4236004-1.8416745,27.3888489-11.0363356,29.4406094ZM376.4474634,26.1812231c-4.4486726-11.6356888-19.842898-7.0229536-22.081709,3.6850183-7.0369275-14.0326248-13.095417,4.7323007-25.7555673-3.6850183,6.9174575-8.4307683,56.7694849-20.5894783,47.8372763,0ZM317.5648375,29.8662414c12.8486077,13.7012564-10.033479,18.6727118,0,0h0ZM317.5648375,55.6235495c4.2613599-14.5416482,4.2613599,14.5400028,0,0h0ZM321.2496174,74.0277518c-6.7088261,5.6156873-3.5422981,32.1809084-14.7211393,22.0725043,7.2332542,18.2249734-8.7527174,15.993817-7.3603312,36.8087622-23.6824881-19.8274694-6.4544098-65.5608571,22.0814706-58.8812666ZM266.0441883,180.7539016c.4938333-16.6823078,8.9997652-25.3523023,11.0360972-40.4767305,16.3160046,8.3112983,8.843548,38.0954377-11.0360972,40.4767305ZM243.9627178,66.6596705c-3.0916028,4.2829408-4.8595446,9.8677471-3.6833729,18.4044407,15.4539842-4.9576483,5.6153773-12.3103964,14.7209009-22.0738397,14.4053426-2.1408742,21.3685612,3.1603756,29.4406094,7.3527481-7.337558,7.3835814-14.9157729,14.5262434-14.7209009,29.4406094-8.0782244,2.0380012,3.1816942-27.5683401-3.675766-33.1239585-2.9578966,1.9459306-5.9757666,3.849081-11.0439426,3.6833491,2.5380107,14.7963029-3.5268934,21.0096027-3.6771967,33.1254132h-22.0800398c2.3739481-8.9706965,7.4281263-18.9287019-7.3603312-18.4043215,1.6392194-11.8459418,5.6153773-21.3701589,22.0800398-18.4044407ZM243.9627178,114.5045299c-18.1192865,13.6568546-3.0837813,45.4498312-14.7197086,69.9341039-2.9654797-1.9473614-5.9757428-3.8487948-11.0437041-3.6847322-1.8876741,20.1861895,3.6003878,47.7713651-14.7211393,51.5299016,5.1893391-19.5882671-.0229878-31.1045336,3.6833729-55.2132745-8.2882866,8.8800567-7.7868464,26.5654834-11.0437041,40.4767305-24.0798392-33.2143122,2.0225965-103.74641,47.8448833-103.0427292ZM162.993876,110.8213954c-.4876809,9.0749526-.5552614,17.7449233,3.6833729,22.0876229,9.6958629-13.0878339,1.1377553-21.5494355,11.0360972-33.1253893,10.4982197.1828297,13.3836474,7.9738968,24.0937655,7.9477136,1.8093389-.415212,3.6011032-.6157833,5.3544271-.5795608-1.9937902.4019773-3.759085.57565-5.3544271.5795608-17.6463426,4.0495808-36.9731587,28.5942084-38.8132356,54.6182852-14.0402317-3.1298285-23.4065386-10.9457673-36.8011791-14.7197086,5.3149853-19.2276631,11.5897132-37.4832552,36.8011791-36.8085238ZM111.471796,166.0344315c6.6934214-1.3340819,7.4724804,7.2624183,14.7209009,7.3512696,19.3843811.2698449,42.4533036-7.9814561,36.8011791,33.125437-14.1599641-14.0463841-24.2007877-32.2268841-51.52208-33.125437,14.4586868,16.757519-5.6077942,4.7782764-11.0439188,18.4042977.1794673,21.9097771,26.5284739,17.640858,22.0876229,44.1617488-7.6595309-2.0809007-11.8979267-10.5116691-18.4042738-3.6679444,5.0312142,12.5036708,24.7389751,16.0229572,14.7211393,33.1085538-7.773087-6.4835977-10.87988-8.2961082-22.081709-3.6681828,4.2092318,11.2463978,19.3552171,11.5299543,11.0377664,25.7572365-4.4256609-4.1632323-6.664472-10.5130998-18.3966668-7.3681528,1.1745263,16.1426896,28.856184,20.7857812,14.7194701,40.4921352-13.3578934,3.5344527-3.0913644-16.5474807-14.7194701-14.7195416-5.5864517,16.0981208-24.8662667,15.7975619-44.1617488,33.1237916-27.3518633-56.0212591,6.9113051-161.1754601,66.2417886-172.9752115ZM78.3464067,327.9581173c5.4588978,3.1297808,7.9155926,9.2698247,7.3603312,18.4045123-12.3609506,3.7736789-5.7272881-11.4410552-7.3603312-18.4045123ZM85.7067379,324.2901729c4.5297501,1.6024483,7.5630249,4.7016343,7.3605697,11.0363356-7.8466052,1.7219184-7.0077873-5.2566572-7.3605697-11.0363356ZM52.5905771,342.679209c1.1377791-4.9865739,9.2084204-3.0408102,14.7194701-3.6695659v18.3890837c-8.5350721,1.1837786-14.1291308-.5827562-18.40425-3.6679444-6.558499-9.8983419,16.2114623-7.1135696,3.6847799-11.0515734ZM96.7506566,368.4519217c-.3665178,11.3948172,1.6700526,20.4099871,7.3605697,25.7555196-7.6825187,5.0329073-23.9601307-12.6983282-44.1617249-7.3666743-5.4804787,33.6929792,30.6919447,25.7420464,25.7572365,58.8966236-7.0077873-1.5873059-9.2465984-7.9371735-18.3966907-7.3681528,11.8903436,15.6042637,22.6720483,46.0629199,40.4783759,44.1614865-.6963123,2.9794775-3.6926015,3.6696136-3.6771967,7.3681528-5.7426928,16.9061292-23.8022204-30.3545671-44.1617249-11.0515019,10.5133145,11.5759538,29.4422548,14.7194701,36.8011553,29.4560142-8.3634263,10.482505-14.2180298-12.534504-29.4406094-7.3683913-7.5397986,15.2149726,23.4065386,19.6328358,18.3966907,44.1617488-9.1498539.5687584-11.3889034-5.7811092-18.3966907-7.3529865-15.8280852,2.5010251-.3971126,25.307972-7.3605458,29.4406094-68.4282092-31.9707986-53.7900551-201.1737381,36.8011553-198.732448ZM107.788423,585.5734535c-1.62546,5.3609848-3.2279084-.3589585-7.3605458,0,.9139576-4.6127353,7.3221533-3.6987777,7.3605458,0ZM78.3464067,552.4648997c-.0967445,3.5773284-4.4991791,2.8445551-7.3591389,3.6679444.1043038-3.5790453,4.5067623-2.8445551,7.3591389-3.6679444ZM34.1863271,692.3163673c-12.7215545-16.308183-14.1139645-54.3452926-3.6772206-73.6175245,11.4854094,7.6519478-19.8933806,38.4112344,7.3603312,40.4921352-4.4697766,10.9763622-7.3527242,23.5414372-3.6831106,33.1253893ZM67.3100472,765.9184871c-14.7194701-12.9837686-1.0931865-46.4235477-7.3605458-62.5659988,21.8562183,14.7502795,4.4332679,36.3748786,7.3605458,62.5659988ZM74.6706169,622.3822157c-58.8150692,6.7239924-4.0207267,61.4571452-22.0800398,110.410882-23.2562114-18.8981309,2.8521382-71.8356327-14.7211393-88.3215899,7.3084178-14.780922,7.3224156-36.8395955,22.0800636-44.1617488,13.8301457-.5995917,7.6457716,30.9830843,22.0816852,18.3890837,10.8720584-3.1895158-8.5443245-5.5112882-3.6847799-14.7211155,24.9414303,14.3161336,34.0315253,44.491281,51.5296631,66.2493478-6.8513078,17.686619-14.1291308,34.9379237-11.0437041,62.5660226-2.9581112-1.9460022-5.9759812-3.8491048-11.0439426-3.6833729,2.2463942,24.3188508-6.4328289,37.7364792-3.6771967,62.5659988-10.2878714-20.3673261-20.926856-41.421259-3.6833491-66.2507786-30.6995517-18.8078011-35.700171-73.2128287-25.7572604-103.0427292ZM122.5155001,743.8291949c5.630782,5.1371872,10.4457579,19.0484342,3.6771967,25.7572365-8.2299585-1.5718774-1.4905614-18.1344528-3.6771967-25.7572365ZM111.471796,813.7633226c13.5525508-3.3995303,6.6934214,19.4071782,3.6831345,22.0724805-8.1301617-.4632385-1.5640558-15.6028806-3.6831345-22.0724805ZM82.0311865,754.8669613c-5.9451718-10.1238088-8.7989554-25.5334389-3.6847799-36.7933575,16.9521049,3.9223607,5.5786301,22.0570519,3.6847799,36.7933575ZM104.1112263,810.0800212c-.34353,19.2876128-6.1246392,33.1239585-3.6833491,55.1978221,13.2151493,8.8648189,21.092564,23.0753133,36.8087622,29.4406094,7.337558-7.4127692-29.4482164-47.426452,3.6755275-29.4406094,12.4593405-2.261775,4.6724941-24.7697846,11.0439426-33.125437,10.6098205,10.8567014-5.1661128,26.5514856,0,44.1769627,20.1340376-4.851723.8542226-21.9235841,14.7211393-36.8087861,14.4434967,6.6336625-4.5681904,31.552105,0,51.5282562,17.6330125-8.3250338,2.2079777-27.0436735,14.720877-40.4921352,9.3587237,28.8118299-.1211393,65.3062262,0,92.0065605,13.7457775-9.5533096,3.4057542-43.203127,11.0363595-58.8811712,4.9560268,30.6229096,13.8360835,57.3233393,22.0876229,84.653884-46.5124467,12.3396081-166.4167126-86.9908226-110.410882-158.255956ZM332.2857146,1093.4509008c-51.8885978,8.3418693-125.1455184-30.0093917-110.4030366-99.3579494,12.9083665,12.9532214,18.4794135-2.5607124,33.1175677,3.6833968-6.6488288,5.6156158-11.269171,13.2521588-25.7572365,11.0363595,6.2135382,28.7075261,34.7340138-12.8932241,51.5206492,3.6847322-1.5273086,8.2804889-20.1786064-.5549514-18.4042738,11.0361687,5.8484512,15.7239722,25.3231382-2.3661265,33.1254132-7.3681766,12.1371291,5.4958596-12.3090372,4.3426996-7.3605697,14.7211393,19.5574338-1.9474329,50.0545064,2.1560405,77.2868996,11.0515257-10.596085,19.1679043-17.0424586,32.1516967-33.1254132,51.5128038ZM387.491406,1067.6950713c9.1576755-.5687822,11.3964626,5.7796784,18.40425,7.3667459-12.0697871,11.2326623-25.0303294,21.5802926-33.1253893,36.7935721-15.6410347-7.3512935,16.1517035-26.8952064,14.7211393-44.160318ZM380.1308363,1115.5402168c9.5685474-12.5191232,16.3525133-27.8089971,29.440371-36.8087861,21.6767509,6.738014,37.6783896,11.9500548,62.5659988,7.368129-1.0856034-23.0169852-15.4693651-49.7033456-7.3603312-69.9341277,15.4615673,18.8981071,15.214758,53.4910462,33.1252701,69.9341277-8.8955568-19.5282697-10.3996391-39.2208883-18.4043692-51.5296393,13.0205157,1.7662964,17.9627593,43.3226924,33.1254132,55.2130361-23.9599161,46.467878-80.1177192,36.299715-132.4923526,25.7572604ZM534.7032286,1075.0618171c-15.2301389-12.9972894-15.7607193-40.6713641-22.0800398-62.5643772,8.7452296,20.0805026,26.760117,40.0120135,22.0800398,62.5643772ZM527.3427067,957.2844516c5.9451718-1.0336899,6.3346536,3.488477,11.0361926,3.6831106,1.4613736,7.1429244-16.7559213,5.3763896-11.0361926-3.6831106ZM582.5480881,1130.2596869c-11.9346739-1.5564965-7.3297602-19.6618091-14.7270532-25.7555911,1.1453622-5.0022886,9.2159797-3.0562865,14.7270532-3.685066-8.7005893,8.6410928.5920085,18.0747416,0,29.4406571ZM600.9447549,1133.9444668c-13.7763485.2837234-12.5558227-14.435699-14.7192316-25.7724266,4.8363183-4.717039,13.5662863-4.717039,18.4042738,0-1.1761955,8.6408066-5.8178563,13.8223241-3.6850422,25.7724266ZM626.7098368,1119.2235659c-12.3917839,3.3244144-.4341221,8.22073-7.3605697,14.7209009-7.9371735-3.1158069-3.1067691-18.9732707-11.0439426-22.0890775,18.7264613-9.4935985,47.081229-9.3432713,58.888802-25.7558296-17.8646556-14.6611897-65.680351,19.9455802-88.329173-7.368129-11.5240404.7482496-15.0430884,9.4935985-22.081709,14.7194701,1.3189157,13.4039167,7.4663281,21.9835337,11.0377903,33.1253893-17.1164299-8.6408066-14.0326486-37.4818244-22.081709-55.1978221.2546309-17.1913788,8.4172475,4.312081,14.7211393,3.6833491-7.1351028-34.7859988-18.1942116-63.0289988-22.0815659-92.0063697,19.588124,22.1182177,22.3883487,61.0232377,36.8088576,88.3230207,4.6876604-26.819852-20.1404523-55.8861221-18.4045123-92.0064174,22.3206968,21.8330158,24.9568589,63.3740549,36.8011791,95.6897665,14.2640294-25.1728349-25.3295291-73.4226524-18.3966668-103.0578955,15.2529121,27.6892886,26.2295127,59.646304,29.4420402,99.3745464,19.1603211-15.6932104-13.0589321-68.4512209-14.7211393-99.3745464,23.331375,24.5151536,21.5572571,74.1419526,40.4767066,103.0578955,2.3139746-28.1233392-19.2568272-64.1376615-22.0800398-99.3730679,22.7623782,20.1707371,21.1677276,64.7065868,36.8011791,92.006322,5.2934044-26.1911202-15.880237-57.6848971-18.3966668-88.3230207,21.3023877,20.4100587,18.3599197,65.051643,33.1175677,92.0064174,3.5560575-23.6301216-13.9864106-49.9409503-11.0375279-77.2855166,32.907744,19.8412764,42.3504068,63.1487549,66.242957,92.0066082-10.9242103,27.7184765-60.0050002,57.2187971-88.3229968,33.1240062ZM733.4373698,1052.9741704c2.4103852,2.4107191-1.542761-1.5426656,0,0h0ZM740.7964848,1060.342347c4.5295116,1.6024722,7.5552271,4.701682,7.3603551,11.036121-4.5297978-1.6176384-7.5552748-4.7168483-7.3603551-11.036121ZM799.678896,1060.342347c-13.2535896,2.2003946-10.8414874-11.2461593-22.0814944-11.0515257-12.2262905,7.7868225,11.0453734,10.6911603,7.3605935,22.0876467-15.0201244.2992235-11.3277614-18.1053126-25.7572604-18.4042977-8.0566197,2.4856442,6.9710402,12.2353044,11.0377903,14.7209009-8.1320694,6.7534187-32.3020238-17.4165834-25.7650819-25.7569742-8.6026525,1.1377553-15.1993533,7.2023494-22.0814944,0-4.8594969,9.2098273,14.5568383,11.5145257,3.6848276,14.7194701-23.398717-24.095077-45.1200367-57.6683001-36.8009407-92.0066082,16.2406264,21.7749262,16.9061054,59.1526853,40.4767066,73.6021198,49.0132333,6.080285,67.9421499-17.9395807,92.0063697-36.8085476-9.2159797-15.3038955-12.3471913-36.7184563-18.3966668-55.1978698,22.0876467,8.5519553,12.0482539,48.4153109,33.1178062,47.8462902,12.0773941,21.4437486-14.1599402,56.3050541-36.8011553,66.2493955ZM858.5676504,953.5994332c-12.3011679-8.5505245-23.705476-17.999578-29.4481926-33.1086015,15.9862816,4.8657446,30.242704,11.470267,29.4481926,33.1086015ZM862.2448471,935.2103495c11.327523-2.7402751,7.0753916,10.0932378,18.4045361,7.352915-3.040834,13.9572466-21.2274626,5.79494-18.4045361-7.352915ZM921.126066,865.2778433c1.610103,4.522167,4.7092651,7.5613795,11.0439903,7.3666982-11.2310408,28.0190354-13.8747383,64.6329494-47.8451456,69.918723-1.9089927-9.1194498-8.9706011-13.1032147-14.7210917-18.4042023,13.8609552-21.7137843,32.7069342-38.4403985,40.4859351-66.2341816,11.9502932,2.1254218,17.116406-2.5162152,25.7572127-3.6848276,1.1148151,9.689949-5.0925708,12.0852157-14.7209009,11.0377903ZM895.3688533,791.6757236c5.8562251-11.3215614,28.8118299-5.541883,33.1175677-18.4044884,6.7088261,9.343319-19.1233594,17.5350996-33.1175677,18.4044884ZM957.9348521,765.9184871c-16.9139031-5.0175026-31.567462,2.1406358-47.8450979,7.3527481.0445926-7.3084655,10.0410621-4.6722557,7.3605458-14.7209009-5.0541782-4.8073927-19.4761417,12.2352805-33.1253893,11.0360972,8.5735123-13.5065274,28.4669168-15.6931866,33.1253893-33.1085538-15.9646291,3.6679444-21.8789915,17.3707985-40.4859351,18.3890837,12.900998-15.3053025,23.7284638-32.6915772,29.4406094-55.197846,25.8997182,1.0917796,22.6658721,31.3128788,25.7650819,55.197846,21.9157148-9.4490535,8.2282654-59.6754442-3.6836352-69.9189853,38.7777761-18.1190481,44.348847,56.2912948,29.448431,80.970511Z"/>
  </g>
</svg>