<?xml version="1.0" encoding="UTF-8"?>
<svg id="blueberry" xmlns="http://www.w3.org/2000/svg" version="1.1" viewBox="0 0 1083.9322302 1000">
  <!-- Generator: Adobe Illustrator 30.0.0, SVG Export Plug-In . SVG Version: 2.1.1 Build 123)  -->
  <g id="outline">
    <path d="M420.5972647,106.3522746c-4.8990315.6527213-11.8150963-.720494-12.4940566,4.1612692,4.8990315-.6527213,11.8341588.7205164,12.4940566-4.1612692Z"/>
    <path d="M374.7738978,497.994692c-3.2376591.9321995-8.2217765.1095531-8.3414888,4.1611571,3.2393859-.9321771,8.2232566-.1092616,8.3414888-4.1611571Z"/>
    <path d="M508.0931801,622.9813887c4.8312589,16.4606195,4.8312589-16.462593,0,0h0Z"/>
    <path d="M933.9389555,140.5621364C821.0992888,47.5406623,650.7536989-28.6612797,437.26266,10.5252539,281.5491282,39.1084137,99.6427129,182.7605173,41.4590855,331.3374204,10.5376114,410.3216079-8.7392072,505.211271,3.9581673,581.3189322c71.7169696,429.8739438,504.5589395,432.347355,624.958534,412.4678036,137.8319512-22.7581185,278.2867184-94.2230374,354.4899387-205.1983052,47.6722244-69.4555555,86.1553529-162.7366828,96.4619129-254.7584314,20.6149141-184.3142067-38.5998357-304.7803179-145.9295974-393.2678627ZM945.5675985,239.6716241c7.9838096-.4669856-4.899054-13.9434993,0-24.9982274,9.3067897,11.5286884,16.2246262,25.456534,20.8355005,41.6707991-19.2087769-3.0086179-18.0386554-26.4132456-41.6708216-25.0054039-1.32298-19.5125204-8.9004227-32.7530183-12.493765-49.9949747,16.1220028,14.4277308,24.9702617,36.1450161,33.3290861,58.3278069ZM970.57298,681.3072221c-12.6642059-5.1280727,4.5099554-14.3253317,0-24.9965006,11.7317149,4.213164-1.1528531,17.6985361,0,24.9965006ZM949.7374795,727.1409949c-19.547416-8.3501678,7.2390727-24.1076066,8.3241532-37.492284,14.1726974,13.0962735-12.6293552,20.4449666-8.3241532,37.492284ZM903.9140902,747.9764953c-7.2391175-3.7897081-10.7822246-14.6065591-4.1716302-20.8355005,9.0360129-.7046833,1.8819813,14.7821132,4.1716302,20.8355005ZM845.5776042,660.4803558c-12.205406-3.5255696,2.4929221-13.4173752,0-20.8352987,9.7476036,1.0764239,2.390523,18.3097236,0,20.8352987ZM845.5776042,847.9647404c4.8315056-16.4608662,4.8315056,16.4710029,0,0h0ZM724.7541054,852.1363258c4.6959602-6.4181756,11.9679773-10.2494174,16.6638927-16.6656195,11.1381321,7.4161518.0346264,27.4721095-12.4940341,24.9962315.6787135-4.8483254-.9322219-7.4157033-4.1698585-8.330612ZM662.2477609,906.3011815c-.1352987-12.6399853,14.6292995-10.3849628,25.0056506-12.502915-2.4080829,10.0951236-15.7319623,9.2652559-25.0056506,12.502915ZM687.2534115,914.6337669c-.1182321,4.0519179-5.1023496,3.2290473-8.3417355,4.1612244.1197123-4.0516937,5.1038297-3.2290025,8.3417355-4.1612244ZM649.7522242,718.8084094c14.3097453,3.1955871,23.4461838,11.5269167,16.6653952,24.9965006-7.8658466-6.018716-18.4623131-9.3066103-16.6653952-24.9965006ZM653.923832,889.6268605c4.8312589-16.4608213,4.8312589,16.4710478,0,0h0ZM620.5942526,918.7949913c-1.7810848-11.5026961,15.5286443-3.907716,16.6639151-12.4938099,13.4280053,7.1364493-10.4421278,11.299423-16.6639151,12.4938099ZM637.2581677,927.1278011c-1.8471082,6.0600703-3.6610925-.4236801-8.3414664,0,1.0345986-5.2390835,8.2910293-4.2045074,8.3414664,0ZM366.432409,910.4621816c-1.6440593-8.0862536,18.9881456-6.0862644,12.5113473,4.1715854h-8.3397395c.7620501-3.5431071-1.6282262-3.9336858-4.1716078-4.1715854ZM187.2897375,552.1508911c9.8326895-3.1785654,28.7862311-8.2059434,37.5009406,0,.7620501,3.5517637-1.6284729,3.9321159-4.1716078,4.169567v8.3328322c-4.1369814-11.1378405-36.0755166,5.5278014-33.3293328-12.5023992ZM208.1250361,768.803115c4.8139457-16.4623463,4.8139457,16.4695228,0,0h0ZM170.6240956,397.9963102c-1.0328942,4.5255418-8.2893025,2.8225682-8.339762,8.3325855-4.2391338-2.7046501-4.3069065-9.5791587-12.4955143-8.3325855,7.7320281-8.3414888,7.6798418-39.2805228,25.006884-24.996994-3.7306145,6.0781012-31.8554453,25.4464197-4.1716078,24.996994ZM266.4441864,181.3438172c12.308276-3.6195588-9.664267-6.2391005-4.1716078-16.6639151,10.4438546.7031808,13.0547622-6.400369,16.6829551-12.4955367,12.2907385,20.7761602.7118374,53.3852457-20.8355229,54.1579259,4.1525678-5.569066,11.2563642-8.1800185,12.4942808-16.6656419-17.9713312.0764293-15.3604461,20.7590936-33.329557,20.8355229-11.2059272-13.2491769,12.3760487-44.391529,29.1594518-29.1683551ZM237.2847346,177.1825928c1.8139619-5.1280503,5.322465-8.5620976,12.4937874-8.3325631-1.8139843,5.1193937-5.322465,8.553127-12.4937874,8.3325631ZM295.6192022,143.8446034c17.1568705-5.0534151,30.2445323-14.1901003,49.9949971-16.6656419,7.0864833-1.5258271,7.8502602,3.255219,8.3241756,8.3328322-24.7170224,9.9941822-38.296137,31.1507619-62.4887846,41.6707991-.9149087-13.4190796,7.3746405-17.6307634,4.1696119-33.3379894ZM362.2798413,181.3438172c-14.0198613,17.9275772-48.4186881,15.4692815-70.8302509,24.9984741,2.1352654-39.5271238,41.1793463-42.146688,58.3189036-66.6608858,13.7821635,7.6209948,1.0501849,26.2955292,12.5113473,41.6624117ZM266.4441864,443.828087c5.3573381-10.789132,8.6123104-13.0876618,20.8355229-8.3308362,3.0674873,19.7417858-4.6803738,28.6417601-4.1716078,45.8320235-16.1046896-.5592255-16.4277199-16.9016129-29.1594518-20.8357696,2.7133067-4.2371603,9.5791587-4.3051796,8.3239289-12.5024665,8.5794108,1.1441965,3.9336634,15.5199877,12.5113473,16.6725941,7.2910347-.9999946-6.2549336-15.4937712-8.3397395-20.8355453ZM291.4495903,443.828087c7.4767929-.5327623,8.7822354,5.1038297,16.6653952,4.1629512-.0677727,15.2142706-11.8516963,18.7158439-16.6653952,29.1681084-5.9512124-.9250454,3.8658907-20.734604,0-33.3310596ZM328.9505309,510.4886813c-40.603301-6.4161572-38.1118814-29.6509271-16.6656644-54.1648108,7.9336193,1.7882612,10.459441,8.9768969,20.817963,8.339762-1.3556554,15.3097399,3.5606894,36.8812983-4.1522987,45.8250489ZM312.2848666,527.1526412c-.0677727,12.4366673-10.8326841,14.1724955-12.5113698,24.9982499-16.6812283-4.5277844-5.4075509-30.023901,12.5113698-24.9982499ZM308.1149856,522.9914393c.1182321-4.0518955,5.1021029-3.2376591,8.3224487-4.1699483-.1006723,4.0519628-5.0847897,3.2376591-8.3224487,4.1699483ZM328.9505309,552.1508911v12.5023992c-11.783946,3.441022-10.7997845-5.8742898-20.8355453-4.1695894,3.5258163-6.1889326,13.4089653-6.0273726,20.8355453-8.3328098ZM316.4374343,547.9876259c-1.7620447-8.7040345,2.8661428-11.0354414,4.1716078-16.6633769,15.8514055.1006723,15.1724677,21.6910689-4.1716078,16.6633769ZM283.1081015,518.821491c3.2393859-3.7045774,4.475329-9.4091888,4.1716078-16.6656419,19.6982561-1.1441293,9.6971441,17.8182484-4.1716078,16.6656419ZM249.7785221,456.3238704c-9.1035389-.6109184-8.9333672-10.4940674-8.3239289-20.8266196,2.5258217-7.1975389,19.7504649.3210344,20.8179854-8.3328322,6.7980793,4.3816089-11.4262893,18.8424859-12.4940566,29.1594518ZM253.9486497,427.1644186h-12.4940566c-1.7620223-8.7147095,2.8486053-11.0374598,4.1540479-16.6656419,7.3400141.9999722,9.5099283,7.1629125,8.3400086,16.6656419ZM278.9555338,214.6733967c6.898774,4.213164,4.5082285,17.7000162,8.3241756,24.9982274-15.5303711,8.0862311-23.6339155,23.5903858-41.6710683,29.1678617-5.409031-4.8240824,2.1352878-19.6233294-8.3239065-8.3328322-12.5113698-25.1159662,20.5298058-40.4917519,41.6707991-45.833257ZM278.9555338,198.0094591c12.5442693,5.0343302-.6440647,18.2157345-12.5113473,12.5027132-1.2725654-9.612305,12.0357276-4.6281875,12.5113473-12.5027132ZM262.2725786,268.8394858c6.9336247-8.3501454,11.1903184-19.3697986,25.0071307-20.8350295,3.8468507,19.1219641-8.7997953,21.7501849-25.0071307,20.8350295ZM291.4495903,268.8394858c-12.1900663,21.1481698-37.0930711,29.5660654-45.8409492,54.1651024-29.1940782-31.4908588,15.7994883-54.7671175,45.8409492-54.1651024ZM249.7785221,385.5022761c-3.5604427-13.28405,3.6282154-15.818775,8.3414888-20.835792-11.7822192-.7877733-13.8168123-7.0946913-16.6654177-24.9982274,17.0213251-19.0888179,29.8539984-42.3650766,49.9949971-58.325811,8.8326949,10.6030823,6.9838375,31.8972257,12.4937874,45.8233669-18.4778994,19.0123886-28.2099167,46.7902152-54.1648557,58.3364635ZM337.2727106,198.0094591c-13.5284084,12.8583964-27.2428217,25.5312589-45.8231202,33.3293328-5.0345769-31.4144295,28.3956748-24.3610925,45.8231202-33.3293328ZM353.9383749,118.846376c-15.6985694,3.7548574-29.1421386,9.7406738-45.8233893,12.5022198,10.7980577-11.4260426,26.0400249-18.3925669,37.4992138-29.1662022,12.5289072-4.1958508,7.3746405,9.2806853,8.3241756,16.6639824ZM249.7785221,143.8446034c.7969232-4.7219973,4.1874409-2.3056839,4.1701277,0,9.6639979-11.1554453,23.5814825-18.0804134,37.5009406-24.9982274,3.4753344,24.3281929-28.7360184,30.4562602-41.6710683,24.9982274ZM270.6142917,152.1843654c-6.7308,4.7721428-13.1902851,16.3512906-20.8357696,8.3241756,3.5433762-6.1698701,10.4940674-8.9509271,20.8357696-8.3241756ZM237.2847346,381.3306683c-16.9866987-2.4582957-26.718716-12.1796828-29.1596985-29.1663816,3.6959656-8.7911387,17.7507224-7.2304385,16.6656419-20.8268663,14.1727422,5.4162075,19.6480658,36.5407529,12.4940566,49.9932479ZM216.4491893,281.3424457c-10.1381375-2.6196315-2.2047649-21.0559075,8.3414888-16.674321,3.0345877,11.3758298-8.2910293,8.3919483-8.3414888,16.674321ZM228.9432459,285.5036476c-.5087885,10.6051231-6.051638,16.1568759-16.6656644,16.6656644.5087885-10.5967132,6.0709247-16.1571226,16.6656644-16.6656644ZM203.9551552,239.6716241c3.5257939-6.1888878,13.4089428-6.027395,20.8355229-8.3328322-3.0363146,8.4681308-12.5459737,17.0215718-20.8355229,8.3328322ZM208.1250361,402.1659445c13.9696485-10.0686604-10.0703872,13.9783275,0,0h0ZM208.1250361,468.8263369c-13.0545155,1.9323959-18.5976117-3.6193121-16.6654177-16.6656644,6.1886635,4.9252032,18.6149249,3.6024923,16.6654177,16.6656644ZM203.9551552,389.663478c.3559075-5.9076603.677211-11.79951-4.1716078-12.4940341,6.7305758-13.0198891,13.1903075,8.5444928,20.8355229,8.3328322-1.2881294,5.6541519-10.4262947,3.4493197-16.6639151,4.1612019ZM199.7835474,331.3374204c-9.205938-.5174451-1.7620447-17.6745622-4.1696343-24.9982274,6.7303291-1.1788229,7.1713224,3.9336634,12.5111231,4.1626821,3.1023604,12.8239942-11.4436025,8.0100486-8.3414888,20.8355453ZM195.6139131,406.3288957c4.8312589-16.4623463,4.8312589,16.4608438,0,0h0ZM203.9551552,285.5036476c-20.6668537.1788284-7.511666-15.6223643,0-20.8355229,9.3919204-9.78223-3.4597704,10.9612997,0,20.8355229ZM203.9551552,435.4972508c1.6440593,8.0862311-18.988168,6.0845151-12.4955367-4.1716751,6.7303291-1.1700991,7.1713224,3.9423873,12.4955367,4.1716751ZM174.7957034,389.663478c.9999946-7.3244277,7.1540092-9.4945662,16.6639151-8.3328098-1.0173078,7.3328376-7.1715691,9.5027294-16.6639151,8.3328098ZM178.9482711,414.6617279c12.5286605-4.1958508,7.3919312,9.280618,8.3414664,16.6638478-7.3414942-.9999273-9.4943195-7.1625986-8.3414664-16.6638478ZM187.2897375,452.1606725c-.117963,4.0520974-5.1020805,3.2309311-8.3414664,4.1631979.1197123-4.0516488,5.1038073-3.2307293,8.3414664-4.1631979ZM187.2897375,481.3292743c10.3585445-16.2488916,6.0689512,13.7994991,0,0h0ZM203.9551552,535.4854734c-1.034621,4.527291-8.2910293,2.8312249-8.3412421,8.3325855-4.8834452-.6700345-3.5102299-7.595025-4.1542946-12.4938099,3.3400582,2.2025447,6.7652022,4.3487093,12.4955367,4.1612244ZM216.4491893,493.8230169c3.0346102,11.3674872-8.2737161,8.3919931-8.3241532,16.6656644-10.1381599-2.6108627-2.2203737-21.047206,8.3241532-16.6656644ZM228.9432459,393.8350858c17.9033343,7.3986368-2.1701385,32.3971109-16.6656644,33.3293328-12.3065492-15.368856,13.2924599-20.6411306,16.6656644-33.3293328ZM208.1250361,339.6682566c-7.0533594-25.0988997,19.2246099-16.8753964,16.6656419-37.4989446,12.4089707,14.0455844-4.7478998,33.973375-16.6656419,37.4989446ZM228.9432459,189.6766494c-15.5632707,4.4580158-11.867036-10.3412088-24.9880907-8.3328322,6.0169892-7.8659139,9.3068345-18.4694895,24.9880907-16.6639151v24.9967473ZM220.6190703,206.3422913c5.6454953,1.2880845,3.4580436,10.4332245,4.1716078,16.6636684-2.5606948,5.7810407-16.0388905.6282541-16.6656419,8.3328322-15.1395906-11.4089761,12.7319786-14.715888,12.4940341-24.9965006ZM203.9551552,252.1740681c-1.8139843,5.1283194-5.3415275,8.56212-12.4955367,8.3325855,1.8139843-5.1278036,5.3242143-8.5529476,12.4955367-8.3325855ZM170.6240956,360.5037795c2.883456-13.0614228,11.1052325-5.4335207,20.8355229-4.1701277.6960043,18.6240974-14.6639484,10.7478449-20.8355229,4.1701277ZM170.6240956,348.0010888v-8.3328322c3.5431071.763777,3.9339101-1.6264994,4.1716078-4.1696343,8.0689179-1.6441041,6.0864887,18.9795114-4.1716078,12.5024665ZM166.4544613,302.169312c4.8310122-3.4929167,11.1727585-5.4928835,20.8352762-4.1629512,2.8990648,22.5312751-20.6324516,25.5572062-20.8352762,4.1629512ZM170.6240956,252.1740681c10.9855202-1.2705695,10.749325,8.697172,12.4960301,16.6654177-3.1718823-6.5529809-13.2251807-6.2215406-12.4960301-16.6654177ZM174.7957034,273.0096135c.9495351,14.8340977-6.0014252,21.785058-20.8352762,20.8268663,2.3732098-11.5113752,4.4075563-23.3613446,20.8352762-20.8268663ZM166.4544613,323.0045882c.5936052,13.0963184-10.6800722,14.3080185-20.8355229,16.6636684,4.2546977-5.4750769,4.0865219-15.3582258,8.3414888-20.8352762,6.7305534-1.1681928,7.1713224,3.9425667,12.4940341,4.1716078ZM141.4490574,452.1606725v-12.5022646c12.1554399-6.1193434,12.1554399,18.6303095,0,12.5022646ZM149.7888193,702.142745c13.9694018-10.0706788-10.0686604,13.9783499,0,0h0ZM153.9604271,531.324249c1.0172854-5.2393526,8.2719668-4.2047541,8.3239065,0-1.8488574,6.051638-3.6628194-.4236801-8.3239065,0ZM183.1201256,468.8263369v16.6641618c-16.0391596,3.2809421-16.0391596-19.9451039,0-16.6641618ZM195.6139131,785.4670301c-10.9855202,1.2723412-10.749325-8.6973738-12.4937874-16.6639151,6.1018283,3.6267128,13.2053781,6.2376428,12.4937874,16.6639151ZM187.2897375,606.3157468c.1182321-4.0518955,5.1021029-3.2290025,8.3241756-4.1612244-.1026458,4.0518955-5.0865165,3.2290025-8.3241756,4.1612244ZM212.2775815,518.821491c7.511666-15.0301944,13.0720754,5.7808613,16.6656644,8.3311502-2.8315388,10.3585445-12.6815415-6.1525345-16.6656644-8.3311502ZM220.6190703,485.4904987c.6786911-4.8401622-.9149087-7.4161966-4.169881-8.331352,12.4609103-5.3830612,7.0014198-17.2416873-4.1716078-20.8352762,3.036337-14.3688614,12.5459962-2.7724676,20.8355453,0-1.2030659,12.6884489.6613779,28.4461343-12.4940566,29.1666283ZM253.9486497,789.638436c-.1182321,4.0520974-5.1023496,3.2289576-8.3400086,4.1701052.1182321-4.0518731,5.1021029-3.2376591,8.3400086-4.1701052ZM233.1131268,760.4705295c10.6137797.5085418,16.1568759,6.0689512,16.6653952,16.6723474-13.0372023,1.9339658-18.5976117-3.6281929-16.6653952-16.6723474ZM262.2725786,797.9697657c-.1006723,4.051604-5.0847897,3.2304378-8.3239289,4.1715854.1197123-4.0518731,5.1038297-3.2376591,8.3239289-4.1715854ZM253.9486497,602.1545224c-9.612305-5.6803684-23.2416323-7.3068678-20.8355229-25.006884,9.3258746-9.3919428,20.8877092.2725484,29.1594518,4.1712938,3.1196736,12.8240615-11.4262893,8.0101158-8.3239289,20.8355902ZM253.9486497,527.1526412c-12.6295795,15.4104121-14.0374436-12.6468927,0,0h0ZM249.7785221,560.4837008c3.7133013-8.7911387,12.6815415-12.3082984,12.4940566-24.9982274,6.1038019,3.6282154,13.2073516,6.2391005,12.5113473,16.6654177-8.7129826,2.398933-11.9001822,10.3323055-25.0054039,8.3328098ZM262.2725786,518.821491c-3.5431295.770774-3.9163726-1.619749-4.1525678-4.1628839h-8.3414888c-1.6959989-10.0360075,7.6123382-9.0619828,4.1701277-20.8355902-7.1369427-.1767876-10.797811,3.0937711-12.4940566,8.3328322-13.613741-8.586049,3.0692366-21.5297555,4.1540479-29.1680636,18.6812175-2.0089373,18.6134448,14.733403,33.3468927,16.674321,1.1352932,16.4187942-17.8182484,12.7403885-16.6829551,29.1593845ZM278.9555338,872.9629454c6.0689512-13.801226,10.3567952,16.2575482,0,0h0ZM283.1081015,822.9679707c19.6826922,6.5099445,5.5445764,20.6480604,0,0h0ZM287.2797094,589.6500824c-5.713268-22.4115628,37.9575203-22.597321,37.4992138-4.1610225-19.6985253-5.7550036-27.3957027,13.0459038-37.4992138,4.1610225ZM295.6192022,781.3055814c7.206218-10.9435155,18.6480712,8.7896362,24.9898399,12.5029598-8.8502548,12.57912-15.5128112-11.9350329-24.9898399-12.5029598ZM303.9433778,814.6351609c-.1179855,4.0518731-5.1018338,3.2290025-8.3241756,4.169881.1026458-4.0516488,5.0865165-3.2374348,8.3241756-4.169881ZM308.1149856,727.1409949c.1182321-4.0516488,5.1021029-3.2304826,8.3224487-4.1629736-.1006723,4.0519179-5.0847897,3.2307517-8.3224487,4.1629736ZM295.6192022,614.6485565c1.1528531-9.8415928,11.1225681,4.7807994,16.6656644,4.169881-4.1021083,12.7747682-11.1208189-4.7897027-16.6656644-4.169881ZM320.6090421,872.9629454c-13.104975,1.9997649-16.2924213-5.9338544-24.9898399-8.3328546,8.9180499-10.2820703,24.8542946-9.0616688,24.9898399,8.3328546ZM328.9505309,897.9683717c-8.4943473-1.2292824-8.1730663-11.2736774-16.6656644-12.5029598.4912061-6.7891985,17.7663088,3.9754887,16.6656644,12.5029598ZM320.6090421,772.9727717c4.8312589-16.4603728,4.8312589,16.4610905,0,0h0ZM312.2848666,597.9829146c1.0175545-4.5257884,8.2739628-2.8226355,8.3241756-8.3328322,4.8814716.6702812,3.5084807,7.5949577,4.169881,12.50444-6.7305758,1.1684171-7.1713449-3.9423873-12.4940566-4.1716078ZM324.7789231,810.4742056c13.0371799-1.9339658,18.5976117,3.6195363,16.6653952,16.663646-6.1886411-4.9249789-18.6149249-3.6108797-16.6653952-16.663646ZM328.9505309,731.3108758c5.7129989-9.4349792,17.1551212,10.2909512,24.987844,12.4940341-11.7490729,15.4781848-16.2575482-11.1885915-24.987844-12.4940341ZM549.7640016,493.8230169c-9.5445547,5.7303794-9.7824767,20.7678175-20.8355453,24.9984741-25.3956911,3.1699537-25.1926422-19.2331992-45.8250937-20.826799,10.3587687-34.2721848,52.9966629-37.11931,66.6606391-4.1716751ZM508.0931801,464.6636324c.1179855-4.0518955,5.1021029-3.2376591,8.3414888-4.1701277-.119959,4.0520749-5.1038297,3.2290025-8.3414888,4.1701277ZM749.7419718,443.828087c19.3945126-1.3383422,23.1911729,12.9194635,37.50112,16.6654177-5.2563967,14.1816231-23.7016881,15.1816177-41.6534635,16.6656419.1006947-4.0516488,5.0845206-3.2304826,8.3221796-4.1713611-2.5587213-13.8932416-12.2229883-14.214276-4.1698361-29.1596985ZM812.2482939,422.9927659c12.6815191-.1857133,16.1899998,8.7998402,24.9880683,12.5044848-5.3397782,11.3238902-13.0028002,20.3181003-16.6639151,33.3290861-7.9336193-1.7880145-10.4611678-8.9766502-20.8181873-8.3328322-3.2218709-19.8771069,14.8343668-18.494966,12.4940341-37.5007388ZM874.7373027,348.0010888c1.7115853,10.0359851-7.6123382,9.0533261-4.169881,20.8268663-15.5632258,4.4596978-11.867036-10.3414555-24.9898175-8.3241756-3.6438017-24.7083434,17.9191673-22.8612128,29.1596985-12.5026907ZM874.7373027,318.8329804v16.6656419c-16.0369169,3.2895987-16.0369169-19.9448572,0-16.6656419ZM878.9071837,260.5066536c6.1886186,6.307389,6.7147427,18.2840005,8.3239289,29.1686018-15.833868,3.3383313-5.2895878-19.699983-8.3239289-29.1686018ZM928.9021584,314.671756c-7.9336193-1.7879921-10.4594186-8.9768969-20.8355005-8.3325631,2.3573768-10.1470632,3.5780026-21.4291506,16.6656195-20.8355453-2.4078362,13.5286775,2.8486053,19.3858784,4.169881,29.1681084ZM941.3959683,456.3238704c12.0550143,1.8471306,19.0057279,8.7894119,20.8355453,20.8352762-10.4594634-3.4162407-22.3267685-5.4510806-20.8355453-20.8352762ZM958.0616327,606.3157468c-9.476782-23.8023604,12.0028056-18.9953445,0,0h0ZM945.5675985,589.6500824c-8.6625232-2.3296801-8.8326949-6.5012879-4.1716302-12.502444h8.3415112c-2.2030829,3.3573714-4.3573659,6.7651798-4.169881,12.502444ZM937.2434005,622.9813887c15.3930989,12.6379894-12.6639816,14.0371969,0,0h0ZM937.2434005,531.324249c1.0175769-5.2393526,8.2739628-4.2047541,8.324198,0-1.8488799,6.051638-3.6628642-.4236801-8.324198,0ZM941.3959683,427.1644186v-16.6656419h8.3415112v16.6656419h-8.3415112ZM953.9090649,427.1644186c13.3238569.5503222,18.3252652,9.4418416,16.6639151,24.9962539-7.8658466-6.0253991-18.4778994-9.3063411-16.6639151-24.9962539ZM941.3959683,389.663478c6.7305758-1.1701439,7.1715691,3.9420733,12.5130966,4.1716078,1.6440368,8.0859845-18.9884147,6.0845376-12.5130966-4.1716078ZM953.9090649,377.1694439c-9.8344388,13.4020131-16.8531493-14.6555385,0,0h0ZM933.0737438,260.5066536c1.0329166-4.5270219,8.2720341-2.8224337,8.3222245-8.3325855,5.477028,1.4756368,6.5621084,7.3330394,12.5130966,8.3325855-3.0363594,14.3673812-12.5459737,2.7797786-20.8353211,0ZM933.0737438,368.8279551c-7.4770171.5347358-8.7997729-5.0934463-16.6656195-4.1614711-1.3401138-9.6639979.6614003-15.9951141,4.169881-20.8350295,8.9524072,3.5344729,14.7334479,10.2647796,12.4957385,24.9965006ZM924.7322774,339.6682566c1.034621-5.2374464,8.2893025-4.2025339,8.3414664,0-1.848835,6.0535442-3.6630436-.4234335-8.3414664,0ZM903.9140902,352.1642867c-6.1713503-2.1615043-10.5111788-6.1629852-16.6829776-8.3328322,8.3244223-6.9595945,13.8689986-16.6829551,16.6829776-29.1596985,4.7134977.7882218,2.3054372,4.1785376,0,4.1612244-1.5431628,7.0862366,3.2378833,7.8673267,8.3244223,8.3328322,1.0848113,12.1989696-9.4265468,12.8081612-8.3244223,24.9984741ZM878.9071837,331.3374204v-29.1681084c16.0544544,3.889887,16.0544544,25.2759788,0,29.1681084ZM899.7424599,298.0063608c-9.0184306-14.605079-12.4764967-34.7530075-16.6636908-54.1651024,11.1710541,5.4842268,22.1407637,11.1815945,33.3293552,16.6653952-9.5116776,11.8851117-5.5430962,21.8097944-16.6656644,37.4997071ZM883.0787691,356.3336519c7.4750885-.5255858,8.780531,5.1023496,16.6636908,4.1701277-2.5257993,12.7492469-8.8482589,21.6999721-12.5113473,33.3313063-8.4923962-1.22926-8.1537571-11.2754043-16.6636908-12.5044176.0677727-12.4349405,10.8326841-14.1643323,12.5113473-24.9970164ZM887.2311126,643.8166649c-15.7141557-3.3573714-.3035193-21.4204715,4.1716302-29.1681084,10.5773816,5.5430962-6.1035776,18.4951678-4.1716302,29.1681084ZM887.2311126,672.9832932c17.5300687,5.4857294-.0155639,13.6726104,0,24.9982274-11.7300553-4.2131191,1.1528531-17.7002629,0-24.9982274ZM887.2311126,447.9910382c-7.4594797.533009-8.780531-5.0949713-16.6636908-4.1629512,1.8820261-12.0112379,14.7490567-13.035453,12.5113473-29.1663591,18.2748505-.2290411-2.8488296,18.5369931,4.1523435,33.3293104ZM858.0716832,639.6450571c9.749308,1.0764239,2.4077914,18.3097236,0,20.8352987-12.2232125-3.5428828,5.4250883-10.4854781,0-20.8352987ZM862.2432686,664.6435537c9.3066103,3.0256844,2.0173024,23.7588083-8.3414664,20.8350295-.6440871-10.366932,6.5447952-12.9017018,8.3414664-20.8350295ZM870.5674217,697.9815206c-1.8315218,6.051638-3.6457304-.4236801-8.3241532,0,1.0328717-5.2480092,8.2892576-4.2047316,8.3241532,0ZM866.4131496,768.803115c-10.3743775-.6282092-1.2201324-14.1049696,0-16.6653952,10.3587687.6267739,1.2203567,14.1135813,0,16.6653952ZM866.4131496,597.9829146c6.5776724,7.2981663,5.5777226,22.1998349,8.3241532,33.3293328-9.6296406-4.2547202-8.6122879-19.156613-8.3241532-33.3293328ZM853.9018022,481.3292743c-.1857806-12.690243,8.7980685-16.2073802,12.5113473-25.0054039,23.3616137,12.9437065-1.3383646,26.4548017,12.4940341,41.6708216-14.3584779.4741396-10.6295903-17.1479672-25.0053815-16.6654177ZM841.4077233,439.6584079c10.3588136.6265721,1.2206258,14.113671,0,16.6654625-12.4782011-2.7375496,3.9841453-8.9004676,0-16.6654625ZM849.7492345,543.8180589c-3.9336858,6.3397728-20.2763198-10.0026146-20.8353211-20.8266196,13.426256-12.1972427,14.493799,13.2055799,20.8353211,20.8266196ZM845.5776042,464.6636324c10.3587687-16.2575482,6.0691755,13.801226,0,0h0ZM849.7492345,431.3255757c-.9668483-16.2315111,8.9511513-21.5975731,12.4940341-33.3292655,6.1698701,2.1698918,10.494045,6.1626713,16.6639151,8.3325855-8.424803,9.6382748-13.8499362,22.2676076-29.1579492,24.99668ZM853.9018022,452.1606725c4.8312364-16.4603728,4.8312364,16.4628397,0,0h0ZM849.7492345,489.6621065c6.0693997-13.8082006,10.3572437,16.2488916,0,0h0ZM878.9071837,547.9876259c6.0689512-13.8078418,10.3584996,16.2509324,0,0h0ZM878.9071837,460.4935047c4.8329857-16.4603728,4.8329857,16.4610456,0,0h0ZM883.0787691,510.4886813c4.8139681-16.4623015,4.8139681,16.460911,0,0h0ZM891.4027428,560.4837008c4.8312364-16.4623239,4.8312364,16.4692761,0,0h0ZM895.5728481,510.4886813c4.5255193,1.0346658,2.8312473,8.2893473,8.3412421,8.3328098-1.7964469,11.5270064-13.122333.2204518-8.3412421-8.3328098ZM891.4027428,452.1606725c1.033096-5.2371324,8.2895267-4.2042607,8.3397171,0-1.8470858,6.0538582-3.6611149-.4231868-8.3397171,0ZM895.5728481,422.9927659c10.5964441.425407,9.8497336,15.5301693,4.1696119,20.8353211-9.0357438.70493-1.897321-14.7819114-4.1696119-20.8353211ZM862.2432686,385.5022761c-6.1713503-7.7216671-21.5315272-6.2477796-20.8355453-20.835792,12.0530408,1.8387207,18.9867103,8.781002,20.8355453,20.835792ZM853.9018022,389.663478c3.102338,16.9866987-13.426256,14.3513239-8.324198,33.3292879-12.205406,1.0851253-12.799527-9.4161858-25.0051572-8.3310381.5762696-14.6986421,11.9350777-18.6238955,12.5113473-33.3310596,12.8168402-3.1023828,8.0011677,11.4348786,20.8180079,8.3328098ZM770.5774723,785.4670301c20.0039733-3.5257939-19.783342,26.7778769,0,4.171406.2552576-.2965671-.2881348-4.1191972,0-4.171406ZM770.5774723,764.6401862c-5.6454953-8.238843-8.3917016-19.3856317-20.8355005-20.8352762,3.5433313-6.1871833,13.4264803-6.0256682,20.8355005-8.3328546,3.2549723,16.4277199,3.2549723,12.7404109,0,29.1681308ZM703.9188068,635.4838552c-15.6832297,11.0948491-10.7668849-11.7736074-4.1716078-20.8352987,14.2073686,1.7288985-6.28956,22.843922,4.1716078,20.8352987ZM653.5300239,559.8211792c.1272027.2202051.2579937.4409709.3938081.6625216-.6586643-.0326977-1.2859092-.0931594-1.8844033-.1743879-4.4755981,1.4468861-9.3678344,2.8767057-14.781261,4.3439774,3.3990172-11.3548611,5.9054401-5.5485234,14.781261-4.3439774.5024642-.1624571.9985144-.3251833,1.4905952-.4881337-15.1161549-26.165568,30.1970779-42.6705695,50.3887829-32.668538-15.556027,16.7935623-27.3850725,25.0511987-50.3887829,32.668538ZM683.0832838,702.142745c-19.6826922-6.5099445-5.5448231-20.639628,0,0h0ZM662.2477609,681.3072221c4.8312589-16.4606195,4.8312589,16.4712496,0,0h0ZM595.5873685,885.4654118c7.4092669-7.5863236,26.7689288-16.9780197,37.5009406-8.3328098-4.6784003,10.2998769-28.345462,15.4106813-37.5009406,8.3328098ZM628.9167013,893.7982665c-.0155864,12.6886956-24.4288652,17.2404538-20.8179854,0h20.8179854ZM558.0881548,656.3107215c-2.9339155,7.9682457-19.5473935-5.0429868-24.9898175-8.3328322.458329-10.638516,13.9523577-8.2650595,24.9898175-8.3328322,3.9841228,7.7651519-12.4784478,13.927868,0,16.6656644ZM533.0983373,664.6435537c2.6109076-10.1295033,21.0561541-2.2047873,16.6656644,8.3397395-6.171597-2.1701385-10.511403-6.1698477-16.6656644-8.3397395ZM545.5923938,697.9815206c-.1179855,4.0519179-5.1021029,3.2290025-8.3224487,4.1612244.1006723-4.0518731,5.0847897-3.2290025,8.3224487-4.1612244ZM478.9337282,614.6485565c2.6784336-19.5300803,30.4648944-13.9783051,49.994728-16.6656419,4.3905122,43.7313845-35.6693964,40.2646843-49.994728,16.6656419ZM512.263061,685.4785832c-7.4753127.5245991-8.7807553-5.1038297-16.6636908-4.1713611-.6443114-10.3587687,6.5428441-12.8915202,8.3395153-20.8268663,10.6296127.4672098,8.2566496,13.9523353,8.3241756,24.9982274ZM491.4275157,581.3189322c10.3761044-.6437731,12.9019261,6.5431357,20.8355453,8.3311502-.5261017,9.2061847-17.6656365,1.7721815-24.9880907,4.1716078,2.2030381-3.3573714,4.3400303-6.7652022,4.1525453-12.502758ZM466.4396717,639.6450571c.1006723-4.0516488,5.1021029-3.2290473,8.3239289-4.1612019-.1197123,4.0518955-5.1038297,3.2290025-8.3239289,4.1612019ZM470.5919928,652.1475236c4.8332324-16.4603728,4.8332324,16.462593,0,0h0ZM470.5919928,689.6487109c-1.2878827,5.6541519-10.4262947,3.4493646-16.6636684,4.1612244,2.2030381-3.3469879,4.3556167-6.7634754,4.169881-12.5027132,5.4753236,1.4756143,6.560404,7.3414942,12.4937874,8.3414888ZM445.6041488,881.3027073c10.5947396.5088109,16.1551491,6.0620439,16.6639151,16.6656644-9.6800776-1.4409879-19.5298112-2.695971-16.6639151-16.6656644ZM445.6041488,906.3011815c-.1197123,4.0516488-5.1038297,3.2287782-8.3414888,4.1610001.1182321-4.0516937,5.1038297-3.2287782,8.3414888-4.1610001ZM433.1101146,839.6318858c8.7980685-8.5185903,20.4449666,15.4450834,33.329557,16.6657092-14.5964224,14.3166751-26.2430738-9.6541303-33.329557-16.6657092ZM433.1101146,664.6435537c8.2722135.058847,5.2880853,11.373789,16.6639151,8.3397395-2.5935944,14.6221455-17.4104013,3.7046447-16.6639151-8.3397395ZM449.7740298,797.9697657c1.1528531-9.8416152,11.1208189,4.7721652,16.6656419,4.1715854-4.1040818,12.7730638-11.1225457-4.7897475-16.6656419-4.1715854ZM458.0982053,727.1409949c5.4753236,1.4738651,6.560404,7.3311108,12.4937874,8.3310605-1.6769588,10.3760819-16.139316.2552128-12.4937874-8.3310605ZM428.9387535,639.6450571c-6.4421719-6.0516156-3.6786748-21.3267739-4.169881-33.3293104,15.9016183-2.0173024,26.598757,1.1874571,33.3293328,8.3328098-2.6959935,15.3582258-14.2578281,21.852584-29.1594518,24.9965006ZM383.1153642,852.1363258c-7.1384229,14.6553142-8.409239-10.4527355-16.6829551-8.3328098,6.2217873-13.7317489,11.7666104,7.086259,16.6829551,8.3328098ZM366.432409,764.6401862c4.8329857-16.4605971,4.8329857,16.4625706,0,0h0ZM378.9437564,618.8184375c14.5457162-3.7288652,7.1208854,13.5875245,4.1716078,16.6654177-5.6628085-1.2879051-3.4582679-10.4352204-4.1716078-16.6654177ZM387.2676853,731.3108758c6.0865111-13.8081782,10.3760819,16.2488467,0,0h0ZM378.9437564,602.1545224c2.916378-12.8254744,2.916378-8.0115287,0-20.8355902,8.5114139-2.9927849,16.4796595-13.0631048,24.9895933-4.1712938-4.169881,12.502444-4.3227395,28.9979366-24.9895933,25.006884ZM408.1032082,610.4856053c12.6466684-1.5330036,8.6472059,13.5719606,12.4940566,20.826642-8.272236-.0502128-5.2878386-11.3654464-16.6639151-8.3308587,2.2030381-3.3489614,4.3573435-6.7652022,4.1698585-12.4957834ZM408.1032082,572.9861224c.1197123-4.051604,5.1038297-3.2304378,8.3414888-4.1627045-.1179855,4.0519404-5.1038297,3.2307742-8.3414888,4.1627045ZM399.779055,647.9778893c-8.8482813-1.3054426-.9149087-19.7418083,8.3241532-16.6656419,4.7807994,13.1051544-6.5428217,10.1296827-8.3241532,16.6656419ZM399.779055,860.4669377c6.0691755-13.8076399,10.3587687,16.2510894,0,0h0ZM399.779055,785.4670301c6.0691755-13.7994767,10.3587687,16.2575482,0,0h0ZM408.1032082,872.9629454c-1.8142086,5.1281175-5.322465,8.5601689-12.4940341,8.339762-1.9495297-8.8920353,5.9512124-7.9422759,12.4940341-8.339762ZM399.779055,743.80491c.1023991-4.0519179,5.0864941-3.2290025,8.3241532-4.1612244-.117963,4.0518731-5.1018338,3.2290025-8.3241532,4.1612244ZM395.6091741,660.4803558c4.2047541-6.898774,17.6985361-4.5255642,24.9880907-8.3328322-3.2376591,3.7048689-4.4755981,9.4089869-4.1525678,16.6656419-7.9336193-1.7882388-10.4767542-8.976695-20.8355229-8.3328098ZM424.7688726,756.3073764c-1.8488574,6.0536115-3.6630885-.4234559-8.3241756,0,1.0173078-5.2373791,8.2739628-4.202803,8.3241756,0ZM424.7688726,660.4803558c2.7288706,2.7291173-1.7464584-1.7462117,0,0h0ZM424.7688726,564.6532903c-3.4929167-4.8309673-5.4928835-11.1727136-4.1716078-20.8352314-8.6454566,1.0677448-1.1355399,18.3097012-8.3224487,20.8352314-15.2073408,2.7049416-22.1929051-2.8050084-29.1594518-8.3328322-7.562103-47.1198613,47.9932811-24.6907386,62.4887846-12.5023992-7.7147149,6.1802312-6.2391005,21.538457-20.8352762,20.8352314ZM383.1153642,502.1558491c6.7130159-1.1699197,7.1713449,3.9423873,12.4938099,4.1699258-2.1698918,6.1629404-6.1713503,10.502724-8.3414888,16.6656644-9.0357663.7029341-1.881757-14.7839073-4.1523211-20.8355902ZM412.274816,518.821491c1.3210514,7.3571479-23.3457583,7.4335771-16.6656419-4.1628839,7.4770396-.533009,8.7824821,5.1038297,16.6656419,4.1628839ZM453.9283244,535.4854734c-8.6973963,1.7637716-11.020169-2.8557594-16.6656644-4.1612244-1.3227558-7.3590541,23.3440538-7.4334874,16.6656644,4.1612244ZM445.6041488,552.1508911c9.6625177-1.3227782,15.9869508.6700345,20.8355229,4.169567.729173,6.7897367-27.2601349,8.4095082-20.8355229-4.169567ZM453.9283244,543.8180589c.0677727-8.2737161,11.374103-5.2982445,8.3397395-16.6654177h54.166605c-1.3227782,39.5683885-42.485058,35.924654-62.5063445,16.6654177ZM524.7568485,535.4854734c8.6801055,2.4407358,13.4784648,8.7562656,20.8355453,12.5021525-7.2895546,6.5866205-22.1912007,5.5780366-33.3293328,8.3328322,1.2881294-9.8237189,14.4781902-7.7562262,12.4937874-20.8349847ZM599.7589763,527.1526412c3.8817238,4.4511084,15.375539,1.2985352,12.4937874,12.5041933-6.5950304.3472733-15.8860319-2.0101259-16.6653952,4.1612244-9.8326895-1.1612631,4.7807994-11.1208862,4.1716078-16.6654177ZM720.5824976,493.8230169c-3.5431295,11.7233947-11.832432,18.715642-29.1594518,16.6656644-9.6625177-6.0951004,8.1384174-13.2073292-8.339762-12.4939893,3.5258163-6.1973649,13.4086961-6.0360516,20.8355229-8.3325855,7.5947783,3.2287558-2.4929221,4.4750374-8.3241532,4.1609104,4.204485,11.7320513,17.6812229-1.152584,24.987844,0ZM712.258322,581.3189322h-16.6636684c.0501904-12.4346265,10.8151018-14.1657452,12.4937874-24.9984741,19.0388742-.1349847.203318,14.6140271,4.169881,24.9984741ZM691.4230458,593.8216902c6.0689288-13.8081557,10.358522,16.2488916,0,0h0ZM687.2534115,514.6586071c-3.526063,6.1888878-13.4109388,6.0273726-20.835792,8.3328322-2.9163556-14.4282466,14.6137356-14.943449,20.835792-8.3328322ZM612.2527638,518.821491c20.123708-2.0936644,36.7720367-7.6716337,54.1648557-12.4957161-2.2549777,22.3440368-49.1807383,41.5026233-54.1648557,12.4957161ZM649.7522242,535.4854734c-1.8125042,5.1280727-5.3227117,8.5616266-12.4940566,8.3325855,1.814231-5.1194161,5.3242143-8.5532167,12.4940566-8.3325855ZM637.2581677,552.1508911c-8.7651689,16.2402125-25.5485496,7.136696-37.4991913,24.9967473-12.0547676-1.8298174-18.9884147-8.7807553-20.8355229-20.8271803,14.2056194-7.6884535,44.8738318-20.5799737,58.3347142-4.169567ZM620.5942526,643.8166649c9.1035389,10.0602505-7.900473-6.5099445-12.4955367-8.3328098,3.7808272-10.0963571,16.7331904-11.0374823,29.1594518-12.5024665,2.7464529,15.766342-30.8208243,6.1955708-16.6639151,20.8352762ZM633.0883091,618.8184375c-15.6985694-3.2047595-19.9206366,5.0776132-33.3293328,4.1629512.2708216-12.2162828,12.7317319-12.2667422,16.6636684-20.8268663,6.1889102,4.9163447,18.6151716,3.6022231,16.6656644,16.6639151ZM566.4279167,585.4890599c-12.7648781-4.0936535,4.7807994-11.120774,4.1713611-16.6656419,5.4580104,1.4670026,6.5430908,7.3328825,12.4942808,8.3242204,2.983904,11.3168932-19.6482901-2.9754941-16.6656419,8.3414215ZM566.4279167,564.6532903c-6.5099445,19.6829837-20.6480604,5.5433878,0,0h0ZM541.4225128,539.6568345c9.3065878-11.5289351,32.7025589-8.9768969,50.0122879-12.5041933-2.7810793,21.3440647-35.0755444,26.685323-50.0122879,12.5041933ZM562.2580357,522.9914393c-.6945242-9.0360129,14.7836607-1.8906603,20.8355229-4.1699483.6942775,9.0358335-14.7838849,1.8887316-20.8355229,4.1699483ZM541.4225128,514.6586071c2.4407358-8.6711798,8.7649222-13.4695615,12.5113473-20.8355902,14.7490342-2.2551795,10.240559,14.757489,24.9895933,12.502758-1.4583236,13.8081557-24.005185,6.536161-37.5009406,8.3328322ZM537.2699451,531.324249c-6.4943582-15.8011927,39.4991805-5.7046114,0,0h0ZM541.4225128,618.8184375v-8.3328322c20.3267569-4.1785152,7.6976484,22.166711,0,8.3328322ZM499.7690045,572.9861224c7.018733-12.4190626,26.8540146-12.0285063,45.8233893-12.5024216-5.593309,8.2893025-7.9336417,19.8338239-12.4940566,29.1663816-15.7490064-.9149087-20.241671-13.0963184-33.3293328-16.66396ZM541.4225128,635.4838552c-11.4767488-9.0790493,17.1897476-13.0876618,25.0054039-16.6654177,8.6296236,22.5137152-22.7172799,5.0603-25.0054039,16.6654177ZM570.5992778,622.9813887c-1.1699197-6.6212469,22.4968954-5.8416369,12.4942808,4.169881,1.5933531-1.6025031-12.5462204-4.4580382-12.4942808-4.169881ZM574.7518456,635.4838552c-1.8139843,5.1193937-5.3224874,8.553441-12.4938099,8.3328098-1.9495297-8.891811,5.9509657-7.9353461,12.4938099-8.3328098ZM562.2580357,668.8131655c19.1061311,2.781326-3.3400582,25.2260576,0,0h0ZM574.7518456,689.6487109c-.1006723,4.0518731-5.0847897,3.2290025-8.3239289,4.1612244.1197123-4.0519179,5.1038297-3.2290249,8.3239289-4.1612244ZM587.2631929,760.4705295c-1.1684171,9.8500476-11.1381321-4.7723446-16.6639151-4.163153,4.0847951-12.7732881,11.1035057,4.7896578,16.6639151,4.163153ZM566.4279167,614.6485565c-6.1698477-2.1701385-10.4943141-6.1629179-16.6639151-8.3328098,1.3905285-20.8266869,28.9722135-15.4608716,45.8233669-20.8266869,2.001716,13.1050198-5.9336525,16.2835628-8.3241756,24.9965454-7.2546815,1.1958895-22.36135-13.3082706-20.8352762,4.1629512ZM595.5873685,635.4838552c9.8326895,1.2881294,7.7478611,14.4695336,20.8352762,12.4940341-2.8817292,3.366028-6.4750714,11.4176327,0,12.5024665-1.0328717,4.527762-8.2893025,2.8228598-8.3239289,8.3328098-10.9855202-4.0103393-23.614853-20.1479285-12.5113473-33.3293104ZM620.5942526,797.9697657c-1.8488574,6.061999-3.6628194-.4236801-8.3414888,0,1.0348677-5.2376482,8.2895492-4.202803,8.3414888,0ZM603.9288573,739.6436856h-8.3414888c.763777-3.5433762-1.6264994-3.9337307-4.1525678-4.1716302-1.6613725-8.086433,18.9693747-6.0844703,12.4940566,4.1716302ZM603.9288573,793.8085413c-19.6826922-6.5099445-5.5430962-20.6497648,0,0h0ZM628.9167013,818.8050419c.6786911-4.8814716,7.5950026-3.5171373,12.5130742-4.169881-.6786911,4.8834452-7.5950026,3.5171373-12.5130742,4.169881ZM620.5942526,752.1377197c8.4926205-8.3657318,8.171317,1.8471306,16.6639151,4.1696567,1.3227782,7.3590092-23.3440314,7.4354385-16.6639151-4.1696567ZM633.0883091,731.3108758c-12.8672772-5.4162523,11.9679549-5.4926816,8.3414664,4.1611795,9.9004622,8.3761376-4.6455007-1.8384292-8.3414664-4.1611795ZM637.2581677,597.9829146c24.3959656,5.5448231-15.0873818,19.6826922,0,0h0ZM641.4297755,589.6500824c-2.6108852,8.9004676-25.6511954,3.9074469-29.1770117,0,.7969232-4.7288598,4.1874409-2.3140938,4.169881,0,7.0864833-10.9766169,22.243387-13.8756817,33.3295795-20.8266645,5.6628085,1.2899011,3.4597704,10.4263396,4.1716078,16.6656419-10.5618401-.3385494-23.7519009-6.247959-12.4940566,4.1610225ZM695.5946536,610.4856053c-1.4756368,5.4684162-7.3415166,6.5534743-8.3412421,12.4957834-4.881965-.6702812-3.5087498-7.595025-4.1701277-12.4957834h12.5113698ZM699.7471989,589.6500824c1.034621-5.2373791,8.2910293-4.2027806,8.3412421,0-1.8468839,6.0622681-3.6610925-.4234335-8.3412421,0ZM708.088441,631.3122474c19.0890646,2.7808102-3.3573714,25.2272013,0,0h0ZM724.7541054,739.6436856c-5.4770728-1.4756143-6.5621533-7.33286-12.4957834-8.3328098,1.6786857-10.3760819,16.1395627-.2463768,12.4957834,8.3328098ZM724.7541054,718.8084094c1.0328717-5.2393526,8.2719668-4.2047765,8.3224263,0-1.8471306,6.0600255-3.6437793-.4236801-8.3224263,0ZM720.5824976,797.9697657c13.3757966-3.6527275,8.6471835,10.8081944,16.6656195,12.50444-3.5257939,6.1869142-13.4106472,6.0256233-20.8355005,8.3308362,3.5084807-4.8399379,5.4926368-11.1710092,4.169881-20.8352762ZM733.0765317,793.8085413v-8.3415112c8.9004676-1.9408282,7.9526817,5.9594205,8.3414664,12.5027356-3.3732044-.7882442-4.1525678-4.1785376-8.3414664-4.1612244ZM737.2481171,672.9832932c-10.9696872,1.2550055-13.664178-5.7723841-12.4940117-16.6725717h16.6638927c.525855,7.4750436-5.1021029,8.7894119-4.169881,16.6725717ZM737.2481171,572.9861224c-10.1383618-2.610616-2.2047425-21.0469593,8.3415112-16.6656644,3.034341,11.3676666-8.291276,8.3833365-8.3415112,16.6656644ZM745.5896283,714.6454357c7.40754,3.0519234.5918784,7.5705353,0,12.4955591-7.4266025-3.0519234-.61121-7.5705353,0-12.4955591ZM745.5896283,547.9876259c-.696251-6.8395907,25.6821215-6.8395907,24.987844,0,.5260792,18.4453138-21.6826814,3.7222494-24.987844,0ZM770.5774723,477.1591466c11.2560951,3.7291343-1.9322165,16.9105161-12.4940341,12.5029598-6.4768431-14.8168069,14.1553842-2.5174118,12.4940341-12.5029598ZM770.5774723,510.4886813c6.0689512-13.8081109,10.3760819,16.2489364,0,0h0ZM753.9118079,731.3108758v-8.3328546h8.3415112v8.3328546h-8.3415112ZM753.9118079,681.3072221c-7.1539868-22.428876,18.8860156-11.6622602,25.0071307-20.8268663,11.9350777,10.8672432-13.5805947,19.5214013-25.0071307,20.8268663ZM787.2430918,547.9876259c7.4750885-.5324708,8.7978442,5.1038746,16.6637357,4.1632652-.7793633,11.7232825-7.2391175,17.7576522-20.8353211,16.6725269-7.7305704-7.3745956,1.8142086-12.1623248,4.1715854-20.835792ZM799.7542597,656.3107215c18.0544436,1.7378018-4.3919924,24.1842377,0,0h0ZM791.4129728,702.142745c12.799527.7724112,8.7476539,22.4464359-4.169881,20.8352762-1.32298-9.6625177.6770091-15.9953383,4.169881-20.8352762ZM795.5828538,677.145751c6.5950753-.3470042,15.8860768,2.0002359,16.6654401-4.1624578,14.6466127,15.1482247-18.4796487,30.490909-16.6654401,4.1624578ZM808.078682,564.6532903c10.3567952.627043,1.2200876,14.1052611,0,16.6656419-10.3588136-.6282316-1.2223751-14.1046556,0-16.6656419ZM803.9068275,518.821491c2.5102353-15.5389604,15.681458-20.4377453,16.6656195-37.4922167,20.4796379,3.3729577-5.4753236,33.3726158,4.169881,37.4922167-1.0677673,9.7563275-18.3097012,2.3972734-20.8355005,0ZM816.4181749,577.1476384c14.4104176-2.9149427,14.9364968,14.6134889,8.3241532,20.8352762-9.1035165-.6092589-8.9509271-10.4940674-8.3241532-20.8352762ZM812.2482939,472.9877855c-4.1696119,15.2923818-4.0014585,34.8984429-20.8353211,37.5008957,1.881757-12.0025365,14.7490567-13.0285008,12.4938547-29.159407-12.290761,2.6786803-16.8685339,26.8693543-29.1592051,16.6654177,3.7130097-12.960773,13.9189199-19.4121173,16.6653504-33.3310596,12.8168402-3.1110394,8.0011677,11.4349235,20.8353211,8.3241532ZM762.2533192,497.994692c.187485,12.6797923-8.7980685,16.1986788-12.5113473,24.9967473-17.3928638-4.3902655-28.2272748,8.7735788-37.4836498,0,7.2739682-17.7245283,33.1438213-16.8514225,49.9949971-24.9967473ZM724.7541054,497.994692c.9999722-7.3328376,7.1695732-9.5027518,16.6638927-8.3325855-.9999497,7.324181-7.1713,9.4940728-16.6638927,8.3325855ZM716.4126166,489.6621065c-7.595025-3.2376591,2.5085085-4.4842547,8.3414888-4.1716078,5.9665297-12.3068183,3.1871996,9.6729012-8.3414888,4.1716078ZM695.5946536,485.4904987c-12.2405257-3.5433762,5.4077976-10.4854108,0-20.8268663-7.6974241,8.9855535-12.8168402,20.5142194-20.8355453,29.1593845-33.6347808-6.5099445-31.7201466-30.4129099-62.5063445-33.3295122,34.8902797-27.6072063,82.4425675-10.8913068,108.3297338,12.4942808-1.4736408,11.020169-21.2243524,3.7719239-24.987844,12.5027132ZM658.093713,493.8230169c-11.4767488,6.595322-28.9217765,7.2060161-41.6710683,12.502758-1.0848338-12.196996,9.4265692-12.8081612,8.3414888-24.9965006-11.6293606,6.4248587-13.8341255,22.2762866-25.0051572,29.159407-17.6656365-3.1698415-24.2779802-17.3772102-37.5009406-24.9981826,3.9838762-8.5099337,8.5099337-16.486836,12.4938099-24.996994,7.3414942-2.398933,24.4810291,5.0343078,25.0071307-4.1696343,10.1035111,21.8355175,38.6517978,25.2431016,58.3347367,37.4991465ZM558.0881548,481.3292743c-10.5967132-.5088333-16.1571226-6.0691755-16.6656419-16.6656419h25.0054039c5.1540425,13.4781508-13.4767155,3.178543-8.339762,16.6656419ZM503.9388854,514.6586071c-7.3068678,6.5863738-22.2085139,5.5776778-33.3468927,8.3328322-.6265048-10.3674478,6.5621309-12.9019261,8.3417355-20.8355902,8.7978218,3.7046895,12.3082984,12.690243,25.0051572,12.502758ZM462.2680639,522.9914393c-29.0901766,4.0847727-44.9084582-5.0951731-58.3347142-16.6656644,6.3397728-13.1119047,18.563232-20.3267569,20.8355229-37.499438,24.2760066,2.1112691,29.6838042,23.0907473,49.994728,29.1683551-1.6611258,10.8326617-12.4280107,12.5618068-12.4955367,24.9967473ZM399.779055,502.1558491c-11.4089761-6.6451759-20.5627278-15.5543001-33.346646-20.8265748,2.2896041-17.1741837,14.5128166-24.387309,20.8352762-37.5011873,17.0717846.9930648,21.9552298,14.1571559,37.5011873,16.6654177-4.7132734,17.5130247-19.7175653,24.7174934-24.9898175,41.6623444ZM378.9437564,497.994692c.0850859,9.815309-7.1871555,12.264993-4.1698585,24.9967473h-37.5011873c16.7836274-17.6223759,9.6973908-48.8337341,41.6710458-24.9967473ZM366.432409,610.4856053c-.5087885,9.1972814-17.663663,1.7724282-24.9880907,4.1629512.5260792-9.197259,17.6656365-1.7637716,24.9880907-4.1629512ZM345.6141993,597.9829146c6.0691755-13.8081557,10.3590154,16.2503717,0,0h0ZM353.9383749,589.6500824c.6111651-9.1124422,10.494045-8.9420686,20.8355229-8.3311502v16.6639824c-13.2909798,3.5777335-12.8846129-6.5515007-20.8355229-8.3328322ZM374.7738978,572.9861224c-4.9163447,12.6553475-22.1063615-4.5185896,0,0h0ZM366.432409,564.6532903c.1197123-4.051604,5.1038297-3.2289576,8.3414888-4.1695894-.1182321,4.0518955-5.1021029,3.2376591-8.3414888,4.1695894ZM349.7684939,527.1526412c4.933658,4.7981126,14.7316986,4.7219524,25.0054039,4.1716078v12.4938099c-7.2895546,6.0691306-23.7345877-3.9665629-25.0054039-16.6654177ZM337.2727106,493.8230169c-1.3210289-9.6624505.6789378-15.9953608,4.1716078-20.8352314,12.7995046.7724336,8.7478557,22.4464583-4.1716078,20.8352314ZM337.2727106,543.8180589c2.7466996-12.4764967,8.9004676,3.984078,16.6656644,0,1.9668205,13.0876618-11.2059272,11.01149-12.4940566,20.8352314-14.2073686-1.7288985,6.3068732-22.8436304-4.1716078-20.8352314ZM362.2798413,843.803516c-.1197123,4.0518731-5.1038297,3.2290025-8.3414664,4.1612244.117963-4.0519179,5.1038073-3.2290025,8.3414664-4.1612244ZM345.6141993,627.1512697c6.0518623-6.45112,16.2419618-8.7478557,29.1596985-8.3328322,2.4753622,26.269066-18.2924104,12.8583739-29.1596985,8.3328322ZM366.432409,872.9629454c8.2910293.0591161,5.3068786,11.3741478,16.6829551,8.339762-2.593572,14.6223922-17.4121057,3.7046671-16.6829551-8.339762ZM383.1153642,897.9683717c.6091916-1.1441517,8.9506804-7.7060358,12.4938099-4.1701052,2.8817292,2.8817067-16.4450331,11.4767263-12.4938099,4.1701052ZM408.1032082,910.4621816c2.0173024,17.1655047-20.3265102,5.9336301-20.8355229,0-1.8644438-6.8067808,22.7172799-6.8067808,20.8355229,0ZM408.1032082,802.141351c-1.6440593-8.0862087,18.9708548-6.0951453,12.4940566,4.1612244h-8.3224487c.7620501-3.5433313-1.6284729-3.9322057-4.1716078-4.1612244ZM428.9387535,885.4654118c-.677211,4.8401622.9163888,7.4164209,4.1713611,8.3328546-4.1713611,11.688701-19.2763253.4236801-20.8352987-4.171406,1.2881518-5.6454505,10.4245679-3.4495888,16.6639375-4.1614486ZM420.5972647,910.4621816c6.086242-13.807909,10.3758352,16.2506408,0,0h0ZM437.26266,918.7949913c-.6613779,4.8834452-7.5950026,3.5171373-12.4937874,4.1698361.6769643-4.8814268,7.5947559-3.5171373,12.4937874-4.1698361ZM470.5919928,939.6304918c-13.5442415,11.2645723-23.8020913,5.5777675-33.3293328-4.1698361,6.3400419-18.4882605,27.0068732-2.3818664,33.3293328,4.1698361ZM462.2680639,877.1326021c.7966766-3.372711,4.188921-4.1540479,4.1716078-8.3328098h8.3239289v12.502915c-3.3400582-2.2030381-6.7649555-4.3486645-12.4955367-4.1701052ZM466.4396717,777.1428769c.7620501-3.5517637-1.6284729-3.9319365-4.1716078-4.1701052-1.6440368-8.0859845,18.9708548-6.0860401,12.4955367,4.1701052h-8.3239289ZM466.4396717,597.9829146c-20.5142194,1.0677-35.1957277-3.6873314-37.5009182-20.8352762,13.8168123-10.8326841,57.1836104-15.4349018,58.3362168,4.1712938-17.8182484-11.164057-15.4277253,5.1612638-20.8352987,16.6639824ZM478.9337282,647.9778893c9.6625177-1.3227558,16.0040174.6700345,20.8352762,4.1696343-.508766,10.6053698-6.0689288,16.1571226-16.6656419,16.6656419-3.4909432-4.8310122-5.4926368-11.1727585-4.1696343-20.8352762ZM478.9337282,702.142745c8.7147095-1.7620447,11.0354863,2.8575311,16.6656419,4.1716302-1.0019457,7.322185-7.1715691,9.4920769-16.6656419,8.3310605v-12.5026907ZM483.1033625,877.1326021c6.1038019,3.6197606,13.2076208,6.2393472,12.4960077,16.6656644-10.9699338,1.253503-13.6815137-5.7736399-12.4960077-16.6656644ZM487.2749703,793.8085413c.1006498-4.0518731,5.0847672-3.2376591,8.3243998-4.1701052-.119959,4.0520974-5.1038073,3.2289576-8.3243998,4.1701052ZM487.2749703,722.9780212c.9322219-6.0011337,12.4262615-1.4580769,12.4940341-8.3325855,7.324181,1.0014747,9.4940952,7.1626883,8.3241756,16.6654401-10.358522.6440423-12.8845904-6.544571-20.8182097-8.3328546ZM508.0931801,768.803115c10.7649114-14.3426,10.0703872,21.4274237,0,0h0ZM512.263061,835.4707062c6.7303067-1.1788229,7.1715691,3.9336858,12.4937874,4.1611795,1.6630993,8.087958-18.9691056,6.0862644-12.4937874-4.1611795ZM524.7568485,868.7997923c-9.8151296,13.4020355-16.8338402-14.6550451,0,0h0ZM528.9284563,881.3027073c-.9997255,7.3241586-7.1713224,9.4940952-16.6653952,8.3241532,2.7461838-5.5863344,8.9004676-7.7564953,16.6653952-8.3241532ZM524.7568485,697.9815206c.119959-4.0519179,5.1038297-3.2376591,8.3414888-4.1715854-.1179855,4.0518731-5.1021029,3.2304826-8.3414888,4.1715854ZM553.9338602,727.1409949c-8.680083-2.4425075-13.4781957-8.7562656-20.8355229-12.4955591-10.526967-7.322499,24.4637383.1961864,20.8355229,12.4955591ZM541.4225128,864.6300908c12.1381267-11.6379724,20.6653512,3.822675,29.176765,8.3328546-5.3069011,9.0184755-32.025617,4.567367-29.176765-8.3328546ZM583.0935587,914.6337669c-10.3590154.6440871-12.9021503-6.544571-20.8355229-8.3325855,1.8990702-8.1888769,29.2272245-7.4943303,20.8355229,8.3325855ZM578.9234534,843.803516c.6267515-10.3674253,14.1049471-1.2203567,16.6639151,0-.6267515,10.3587687-14.1049696,1.2204016-16.6639151,0ZM608.0987159,927.1278011c10.8846237-1.1701663,17.9206475,1.5258047,16.6654177,12.5026907-12.3080517.7205612-25.8020804,11.2059496-33.3293328,4.1612244,2.5762812-4.2880683,17.3930881.5431682,16.6639151-16.6639151ZM633.0883091,827.1378516c.6267515-10.3674253,14.1049471-1.2203567,16.6639151,0-2.7464529,12.4784702-8.9004676-3.9841004-16.6639151,0ZM645.5823432,781.3055814c-3.8814771-4.4508842-15.3601994-1.2965169-12.4940341-12.5024665h16.6639151c-2.2030381,3.3558912-4.3400527,6.7634529-4.169881,12.5024665ZM670.5877471,764.6401862c-.1182321,4.0518731-5.1023271,3.2307069-8.3399862,4.1629288.1182097-4.0516488,5.1020805-3.2304826,8.3399862-4.1629288ZM666.4176195,785.4670301c-.1177163,4.0519179-5.1020805,3.2376591-8.3239065,4.171406.1023991-4.0516488,5.0862474-3.2304826,8.3239065-4.171406ZM670.5877471,818.8050419c1.0692474-9.7562602,18.3094769-2.3974304,20.8352987,0-3.2881185,14.6223922-14.5788625,4.8067468-20.8352987,0ZM699.7471989,843.803516c-.6616246,4.8814716-7.5950026,3.5085255-12.4937874,4.1612244.6784444-4.8816959,7.5947559-3.5084807,12.4937874-4.1612244ZM695.5946536,710.4755548c9.0862033-.755098,13.2402512,3.4165323,12.4937874,12.5024665-3.8814771-4.4491349-15.375539-1.2965169-12.4937874-12.5024665ZM728.9239639,881.3027073c-3.2895987,8.2148916-14.5805893,14.9693739-20.8355229,8.3241532,3.5258163-6.1871385,13.4106921-6.0256233,20.8355229-8.3241532ZM753.9118079,897.9683717c-.6769643,4.8814716-7.5947559,3.5085255-12.4938099,4.1612244.6787135-4.8816959,7.595025-3.5171821,12.4938099-4.1612244ZM745.5896283,877.1326021c5.542872-8.3412421,18.4952127-9.2821655,29.1579941-12.5025113,9.1727693-6.9419673-14.579154,16.368873-29.1579941,12.5025113ZM778.9189387,685.4785832c11.2232628,4.925248-.0173132,21.7244618,0,29.1668525-16.0215773-3.6699958.729173-16.7403444,0-29.1668525ZM787.2430918,768.803115c9.1208746.6181173,8.9507028,10.5012663,8.339762,20.8353211-14.4262058,2.9237787-14.9523298-14.6046305-8.339762-20.8353211ZM795.5828538,727.1409949c11.7666552,3.4496337,10.7822695-5.8745589,20.8353211-4.1629736,1.3732153,15.2664793-4.6281875,23.1496391-8.3394928,33.3293552-9.6974133-4.1956265-13.4282744-14.3409405-12.4958282-29.1663816ZM812.2482939,652.1475236c-9.2059604-8.1277873,8.3241532-24.7585562,24.9880683-20.8352762-13.2231623-20.1894847-7.1871331-4.9163447-8.3224487-33.3293328,31.8208637,8.282126,13.459178,35.2113141,4.169881,54.164609-4.2047316-9.6276446-15.495498-9.806473-20.8355005,0ZM828.9139134,710.4755548c-5.985794-5.1371778-7.900473-14.3255559-8.3414664-24.9969716,9.2388376,2.9410919,13.8497119,19.55457,8.3414664,24.9969716ZM824.742328,802.141351c8.7147319-1.7724057,11.0374823,2.8557818,16.6653952,4.1612244-3.9838762,8.5114139-8.5114139,16.4866117-12.4938099,24.9982499-14.2578281-2.2134439-6.3743992-20.0732709-4.1715854-29.1594742ZM841.4077233,502.1558491c6.678367-11.697066,15.5788795,9.0360578,25.0054263,8.3328322-6.6801163,11.7058348-15.5788346-9.0270648-25.0054263-8.3328322ZM853.9018022,714.6454357c6.7305309-1.1770737,7.1713,3.9336858,12.5113473,4.1629736.6440871,10.3672011-6.5430908,12.8999525-8.3414664,20.8352762-9.204256-.5260792-1.7620896-17.6743156-4.169881-24.9982499ZM862.2432686,785.4670301c19.1897592,5.2982893,8.3919258,23.1078362-8.3414664,25.0071756-1.9824068-13.1052889,5.9336301-16.2924437,8.3414664-25.0071756ZM874.7373027,802.141351c10.3584996,2.8381995-6.1542613,12.6795456-8.3241532,16.6636908-11.2909906-3.7634692,9.5271966-9.3241477,8.3241532-16.6636908ZM883.0787691,593.8216902c16.4779551,4.4404559-1.0677673,12.6382361,0,24.9967473-11.731984-4.2134107,1.1526289-17.6985361,0-24.9967473ZM887.2311126,752.1377197c16.9191727,5.1540425,5.2047262,33.2200039-8.3239289,33.3293104-2.0173024-15.9015958,1.1872553-26.5905714,8.3239289-33.3293104ZM891.4027428,731.3108758c-18.6654293-12.4263063,1.6944963-30.2183606,8.3397171-41.662165,12.8168402,13.0962735-7.1018229,28.8037462-8.3397171,41.662165ZM903.9140902,664.6435537c-19.0386051.3037212-8.3585553-12.2491823-4.1716302-20.8268887,9.0360129-.7046609,1.8819813,14.7732324,4.1716302,20.8268887ZM895.5728481,472.9877855c7.0530679-6.5517474,24.0556221.4410158,20.8352762,16.674321-9.9004622-2.602251-19.3942883-5.6040064-20.8352762-16.674321ZM912.2385124,664.6435537c10.5944705.4234335,9.8479843,15.5283752,4.1696119,20.8350295-9.0357887.7034275-1.8993393-14.7747574-4.1696119-20.8350295ZM908.0666579,635.4838552c4.8314607-16.4623463,4.8314607,16.4608438,0,0h0ZM920.5780053,714.6454357c12.5632869,10.1641073-4.4251386,25.8626991-8.3394928,33.3310596-8.1888769-5.7807716,8.7473399-21.5228706,8.3394928-33.3310596ZM908.0666579,414.6617279c-.1006947-4.0518955-5.1021029-3.2307517-8.324198-4.1629512-.2532841-15.5283976,4.2047316-26.3524251,8.324198-37.4994604,13.2924151-3.5688526,12.884568,6.5606507,20.8355005,8.331352-5.2549614,12.7925748-6.3227287,29.7947926-20.8355005,33.3310596ZM937.2434005,664.6435537c5.4580104,1.4738875,6.5430908,7.3397001,12.494079,8.3397395-6.9161321,12.528683-4.9163672,33.9664677-20.8353211,37.4922616-9.7129772-13.7823878,11.1900717-25.7692033,8.3412421-45.8320011ZM949.7374795,664.6435537c-2.1872499-15.7250325-5.8485891-19.5560501,4.1715854-29.1596985,13.5964278,1.22926,10.3414555,31.4561875-4.1715854,29.1596985ZM962.2315136,485.4904987c.1196674-4.0518955,5.1038073-3.2290025,8.3414664-4.1612244-.1182321,4.0516488-5.1021029,3.2290025-8.3414664,4.1612244ZM974.7272522,360.5037795c-5.4597148-1.4736408-6.5447952-7.3397674-12.4957385-8.3394928,1.6959765-10.3761044,16.1568535-.2466683,12.4957385,8.3394928ZM970.57298,331.3374204h-12.5113473v-16.6656644c6.1038019,3.6195588,13.2073741,6.2393472,12.5113473,16.6656644ZM887.2311126,135.5117937c6.1038019,3.6281257,13.2075983,6.2391005,12.5113473,16.6725717-6.1020975-3.6282602-13.2056248-6.2373737-12.5113473-16.6725717ZM887.2311126,173.010985c19.1239601,15.6068004,21.8354951,47.6046535,29.1770117,74.9934713-7.3068902-7.9769023-8.8326949-21.7173526-12.4940341-33.3310596-9.8168564,3.5186398.2535084,21.4879975,4.1525678,24.9982274-6.3902771,10.1208243-18.512795-8.935094-29.1594742-8.3328322-.9149087-19.4118482-12.9852627-39.1190076-16.6639151-66.6588898,15.1551545-6.4767983,23.4793077,27.6840617,24.987844,8.3310829ZM870.5674217,156.3470699c-14.9018704-3.1540533-22.9880791-13.1136989-24.9898175-29.1681084,9.6295957,8.4179181,22.2589958,13.8516854,24.9898175,29.1681084ZM853.9018022,118.846376c5.6627637,12.8583739-11.5791703-9.7894065-20.8180079-8.3328322,1.4580769-19.969145,12.4764967,8.90049,20.8180079,8.3328322ZM803.9068275,93.8495614c-14.8670197-5.9682565-27.6663224-13.9956183-37.4992362-24.9982274,11.035733-6.6610538,35.4646206,8.8326949,37.4992362,24.9982274ZM758.0834382,68.851334c-6.544571,8.9437506-17.7332074-12.5531502-33.3293328-8.3313296,10.0862203-16.8266861,21.3769418,3.6267128,33.3293328,8.3313296ZM712.258322,48.0244677c-5.4248641,11.0461164-51.7394595-5.6284288-66.6759788-12.5029598,17.1066577-7.2544348,50.2831319,5.1805057,66.6759788,12.5029598ZM666.4176195,85.5167517c-25.293292-6.8572178-40.5510923,1.8733247-70.8302509,0-7.9509325-15.6572599-6.3902323-40.8236855-24.9880907-45.8320459,12.9523631-7.2304385,96.5475146.3977328,95.8183416,45.8320459ZM641.4297755,27.1889448c-14.2246594,23.5399263-77.0523074-8.8237916-112.5013192,8.3325631,5.7135147,10.7409151,25.5312589.923812,33.3295795,0-4.1542946,5.5693127-11.2563642,8.180467-12.4940341,16.6656644h24.987844c5.3068786,9.9771381,15.224654,15.3428862,12.5113473,33.3295795-31.9214687-2.7548629-51.5539481,6.7718628-79.1700129,8.3328098,22.1914474,3.5082564,57.7426116-.4825495,79.1700129-4.1629512,5.9685256,5.1367293,7.8831598,14.3256008,8.3241756,24.9985414,11.7317373-4.2133883-1.1528531-17.7003302,0-24.9985414,28.3800885-1.9910634,50.7587517,2.025959,75.0003786,4.1629512,8.6974187,17.6986034,19.1912394,33.5915875,20.8352987,58.3348039,11.2909906-14.2820487-6.6628031-34.84675-8.339762-50.0019718,13.0876618-1.9668205,11.0184198,11.2145614,20.8355229,12.502758-7.4770396-28.6336641-41.5026233-30.7118094-41.6710458-66.6606839,81.5276139,12.9192168,142.7962661,46.0786246,145.8309211,137.4909573,11.5791254-32.4735402-13.7490621-63.9817121-20.8355902-91.6658636,29.6838491,5.0432335,41.1101159,28.3282161,58.3345124,45.8318441-1.2878603,5.6543538-10.4262723,3.4582903-16.6636908,4.1631979,20.7833815,18.1046788,36.7700632,41.0007871,37.4992362,79.1613563-11.6120474-5.0602776-22.9708107-10.3654518-29.1767874-20.8266196.6282541,23.0400636,47.1129989,36.1781848,37.5009406,83.3243075-17.1741613-2.2705641-25.8369535-13.0443563-37.5009406-20.8355229.1525894,26.2430962,33.2287054,19.5560501,37.5009406,41.6710683-17.6812229-3.8053169-20.9708216,6.7980793-24.9880683,16.6653952-16.1742115-4.6628364-21.3285232-20.3440701-37.5009406-24.9982274-.7118598,22.9289854,19.8009243,24.6422975,33.3293104,33.3310596-.5763144,14.6968255-11.9174954,18.6307356-12.4938099,33.3290637-18.3947871-1.0603441-21.9552074-16.9359926-37.5009406-20.8350295-2.2029932,21.6408561,17.9206923,20.9708216,29.1594742,29.1678617,2.2376645,18.9018487-8.3743884,24.9551911-12.4940341,37.4994604-16.0891257-4.754852-23.7170278-17.9535471-41.6708216-20.8352987,1.4234505,19.4118482,23.6667926,18.0037598,33.3293552,29.1681084-2.3554033,20.4536456-8.0862536,15.8687411-8.3239737,33.3290861-14.7994713-8.8064784-36.2790589-10.9504004-37.4994156-33.3290861-7.2391175,16.2333052-17.682703-4.6957135-29.1594742-8.3328098-11.0530462-1.3297528,3.8819704,23.3371016-12.5113473,16.6656419,11.2059048,6.2391005,23.0558966-.8731058,33.3293552,12.4939893-3.458066,10.4350186-11.4089985,16.3686487-12.4938547,29.167929-21.0056723-2.5933477-29.1265298-18.0975023-45.8250713-24.9982499.6109184-9.1121731,10.4940674-8.9420238,20.8352762-8.3308362-39.9416764-8.2148467-82.2046231,13.8670251-129.1647633,20.8266196-7.4250775-3.0521476-.5938519-7.5705353,0-12.4957834-20.6324516,33.3555493-79.1702596,11.7666328-91.666043-12.5025113-12.2907161,9.8916262,13.3602326,16.9189933,12.5113698,29.167929-12.8845904,10.7913746-29.6333447-1.228789-45.8406801,0,1.6440593,13.6313009,20.4118428,10.1381375,33.3293104,12.4942808-7.8153871,34.7875891-40.3131703-3.3556221-54.1648557-12.4942808.5434149-17.5298669,16.1395627-19.9706027,16.6656644-37.5007388,61.3534913,7.8762973,116.0271355-25.1320459,179.1599848-29.1576801-54.2168177-8.7233661-113.9752291,31.7946024-170.8202452,20.826642-12.7648781,10.8413183-24.3264437,22.8857024-29.1579492,41.6621425-16.2070887-3.2393859-23.4133067-15.4692815-37.5009406-20.8266196,8.2061901-12.6226721,16.7838741-24.8788291,24.9880907-37.5009406-8.577684-6.942528-18.8338293,19.8684279-24.9880907,29.1681084-18.359914,3.0761439-17.0717846-13.4868523-29.176765-16.6656419-9.7300437,10.9610305,8.4265747,19.2921359,16.6829551,24.9984741-1.6613725,17.7917852-18.4449999,20.4447199-20.8355229,37.4905347-20.1063723-.720494-21.5644268-20.0979624-41.6707991-20.827113,12.5788733-17.9775433,26.7169891-34.3879276,37.499438-54.1643623-22.2920972,6.874531-22.9534751,35.3725825-41.6710458,45.8317768-14.7487876,2.2552468-10.2390789-14.7576684-24.987844-12.5025113,4.542855-46.8319508,36.4836328-66.277192,58.3189036-95.8269534-15.19005,2.9319644-35.9751135,36.1868414-49.9949971,54.1648557-6.0011561-.9408785-1.4407412-12.4349181-8.3239065-12.4940341-.9497818,7.7807607,1.8139619,39.3306907-20.8352987,37.492284-3.0521476-3.8921296-7.5779361-6.3068956-12.4942808-8.3328322,5.1698531-33.7025759,32.6004289-45.1634692,45.8233669-70.8302734,5.5952825,2.7459596,7.7651968,8.9088775,8.3414888,16.6656644.6945242-12.2840555,2.4911953-32.3384882,12.4940566-45.8250937-3.7464475-11.2650433-10.053074,8.7819215-12.4940566,12.4937874-12.8497173-20.4776195-16.0891032-50.5695399-16.6656644-83.3245542,23.5142032-12.5875972,42.9940932-29.2269778,62.489278-45.8317768,6.6625564,5.8398876,10.6466793,14.3602048,12.4955367,24.9967473,6.6956803-25.0227171-9.2061847-61.5811196-8.3241756-87.4944352,10.1537239,2.1528253,19.8857411-14.401761,41.6535084-12.4938099-2.5606948-3.7132788-5.036057-7.4511146,0-8.332877-7.865869-6.2477571-25.5312589,13.1641359-41.6535084,12.4941014,24.2762533-72.8478673,99.2766319-66.3881355,149.9832197-87.4942333,28.8381483-8.7147319,90.2074727-1.9079735,129.1667144-4.1631979ZM412.274816,39.6847057c9.9125724,1.6947654-5.1909116,8.2387757-11.5305722,8.3762273,30.2899682,1.0219949,35.2059541-21.5736889,90.6832719-16.7087904-57.8259482,7.5860993-129.4358316,50.7570249-179.1426491,91.6658411-12.257839-8.6731533,9.950675-21.5404978-12.5113698-12.50444,27.1926313-22.8006838,63.2181818-36.7703547,95.8356773-54.1649005-69.8634251,19.0386051-135.5742823,78.2900446-204.1495556,112.5013865,54.3696539-62.2946838,135.8972902-97.4120311,220.8151975-129.165324ZM208.1250361,193.8465303c-7.1208854,10.0879247-22.887205,27.2099221-37.5009406,16.6656419,4.0692087-18.6394146,22.0905285-31.7446363,37.5009406-16.6656419ZM145.6189384,210.5121723c15.8687187-3.3732044,12.7819447,12.2056526,25.0051572,12.4937874-2.6109076,9.9004622-5.6106222,19.403214-16.6636684,20.8352987-9.138412-8.6712022,3.6437793-13.4693148-4.1716078-20.8352987-12.9177367.9755049-13.0025759,14.7752507-16.6639375,24.9984965-6.5950304.3472509-15.9016183-2.001716-16.6656419,4.1696119-2.2027914-9.2907548,21.0561541-28.8208351,29.1596985-41.6618958ZM116.4592399,289.6752554c18.2921413-.8907106.4583066,14.8497065,0,20.8266196-12.2056526-3.5275207,2.4929221-13.410423,0-20.8266196ZM112.2893589,327.1658126c11.4769955,5.1802366,6.4077922,12.1225403,4.169881,20.8352762-9.0357663.7031808-1.881757-14.7750041-4.169881-20.8352762ZM116.4592399,485.4904987h-8.3414888c.7813369-3.5433762-1.6264994-3.9235266-4.1523211-4.1612244-1.6613725-8.0862311,18.9708548-6.0864887,12.4938099,4.1612244ZM103.96543,560.4837008c10.358522-16.2419618,6.0691979,13.8081557,0,0h0ZM103.96543,268.8394858c9.4263226,5.7135147-10.2909961,17.1553904-12.5113473,24.996994-12.9192168-9.1973263,10.3916683-17.0460615,12.5113473-24.996994ZM83.1299071,318.8329804c10.3587687-16.2488916,6.0689288,13.8098826,0,0h0ZM66.4642427,431.3255757c4.8156949-16.4607989,4.8156949,16.4710702,0,0h0ZM58.1247499,368.8279551c13.8999247,16.4190633,1.881757,36.1452852,0,58.3364635-7.9509325-18.7591269-9.0360129-41.5770791,0-58.3364635ZM53.9531421,497.994692v8.3310829c-20.3094437,4.1716078-7.6801109-22.1738651,0-8.3310829ZM41.4590855,414.6617279c17.7158493,27.3697104.5085418,47.8075006-8.3241532,75.0003786-9.8153763-21.0385943,6.0189627-52.224005,8.3241532-75.0003786ZM37.289227,581.3189322c-17.0717846-5.7389238-8.6642724-15.2921351-8.3241756-33.3313063,3.5431071-.7618035,3.9321832,1.6287869,4.169881,4.1632652,3.6108797,12.308276,6.2391005-9.664267,16.6656419-4.1632652,4.2045074,19.4885914-16.7158547,13.8430961-12.5113473,33.3313063ZM58.1247499,656.3107215c-12.3082984.1266421-14.1052163-19.2852061-8.3241756-24.9984741,8.1366906.576292,19.7660512,18.5892018,8.3241756,24.9984741ZM58.1247499,572.9861224c.1179855-4.051604,5.1020805-3.2304378,8.3394928-4.1627045-.117963,4.0519404-5.1020805,3.2307742-8.3394928,4.1627045ZM62.2946309,472.9877855c.117963-4.0432389,5.1018338-3.2290025,8.3412197-4.1614486-.1197123,4.0520749-5.1038073,3.22898-8.3412197,4.1614486ZM78.9602728,356.3336519c-9.8329362,13.4020355-16.8358137-14.6550226,0,0h0ZM74.7884183,597.9829146c.1197123-4.0516488,5.1038297-3.2290025,8.3414888-4.1612244-.1179855,4.0518955-5.1021029,3.2290025-8.3414888,4.1612244ZM83.1299071,556.3204581v-12.5023992c12.1554399-6.1194107,12.1554399,18.6305113,0,12.5023992ZM91.4540827,377.1694439h-8.3241756c-1.1701663-6.7305758,3.9336634-7.179979,4.169881-12.5029598h8.3241532c1.1699197,6.7308225-3.9321832,7.171771-4.1698585,12.5029598ZM99.795549,735.4720553c6.7303291-1.168148,7.1695956,3.9425667,12.4938099,4.1716302-2.2045182,3.3469655-4.339806,6.7634529-4.1716078,12.4940341-7.3224542-.9999946-9.492346-7.1626883-8.3222021-16.6656644ZM124.783393,772.9727717c-12.8845904.3910273-12.4089482-12.5786715-12.4940341-24.9962763,14.919206-2.4251495,12.6642059,12.3325638,12.4940341,24.9962763ZM124.783393,273.0096135v-8.3414888c3.5431295.7726354,3.9336858-1.6178428,4.169881-4.1614711,8.087958-1.6522225,6.0865111,18.978278-4.169881,12.5029598ZM133.1248818,685.4785832c7.3244277,1.0002413,9.4943419,7.1697974,8.3241756,16.6641618-7.324181-.9999946-9.4943195-7.1713-8.3241756-16.6641618ZM137.2947628,781.3055814c6.6454899-3.6538936,22.2935998,19.2073416,24.9895708,33.3295795-13.681267-5.7634583-16.3599473-22.5226409-24.9895708-33.3295795ZM149.7888193,768.803115c14.3253317.9567116,18.156596,12.4002916,20.8352762,25.0054263-8.3570752-6.9249681-19.3769751-11.1885915-20.8352762-25.0054263ZM170.6240956,660.4803558c-7.3397674-.9997479-9.492346-7.171143-8.339762-16.6636908,7.2546815,3.7637607,16.0544768,9.3155136,8.339762,16.6636908ZM174.7957034,797.9697657c11.1381321,9.6815802,19.5125204,22.1407188,24.987844,37.5009406-10.9679827-9.8759725-23.0729631-18.589-24.987844-37.5009406ZM208.1250361,802.141351c.1023991-4.0518731,5.0864941-3.2376591,8.3241532-4.1715854-.1197123,4.051604-5.1038073,3.2304378-8.3241532,4.1715854ZM216.4491893,860.4669377c6.0691979-13.8076399,10.3743551,16.2510894,0,0h0ZM220.6190703,831.3008253c15.5283976,2.1179522,25.7187214,1.4234505,12.4940566,16.6639151,24.5834282-.958416,32.8727306,14.3513015,33.3310596,37.5006715-20.9379444-12.3844586-37.90733-28.7444058-45.8251162-54.1645866ZM266.4441864,722.9780212h-8.3241756v-12.5024665c5.4580104,1.4756592,6.5430908,7.33286,12.4942808,8.3328546.7618035,3.5428379-1.6269703,3.9319365-4.1701052,4.1696119ZM274.783926,889.6268605c9.6815578,2.8226804,11.1554453,13.8514612,20.8352762,16.674321-1.4580544,5.178263-25.6492219-1.8142086-20.8352762-16.674321ZM303.9433778,918.7949913c7.4092669-10.4435855-8.1886302-25.7432559-16.6636684-33.3295795,25.6492219-8.6466901,73.7278356,74.0681791,16.6636684,33.3295795ZM333.1028296,881.3027073c-9.8151296,13.4020355-16.8338402-14.6554936,0,0h0ZM337.2727106,914.6337669c5.6299089-18.0059576,21.972543-.8575419,20.8357696,12.4940341-11.1210656.0173132-9.0518236-13.1640462-20.8357696-12.4940341ZM349.7684939,939.6304918c3.5431071-6.1802312,10.4940674-8.9597631,20.8355229-8.3328098,1.3888016,22.581757,20.8857357,15.5128112,33.3293328,8.3328098-.3559299,5.907436-.6787135,11.7995773,4.1698585,12.4938099-15.3426395,8.2477687-39.8219417-10.0443502-58.3347142-12.4938099ZM408.1032082,927.1278011c.6111875-1.135226,8.9682403-7.6974241,12.4940566-4.1629736,2.8834784,2.8748891-16.4259931,11.4785205-12.4940566,4.1629736ZM416.444697,939.6304918c2.6109076-10.1384066,21.0385943-2.2047425,16.6654177,8.3328098-8.2910293-.052119-5.3069011-11.3673751-16.6654177-8.3328098ZM428.9387535,960.4571563c.6282316-10.3584996,14.1049471-1.2119692,16.6653952,0-2.7461838,12.4784702-8.9004676-3.9841004-16.6653952,0ZM458.0982053,968.7900109c.3559075-5.9077052.6942775-11.7909206-4.169881-12.494079,13.613741-13.3253371,28.2950026,7.610589,37.4991913,12.494079-6.6627807,11.688387-18.7504479-5.8485891-33.3293104,0ZM491.4275157,910.4621816c21.1583065-4.4840304,25.6336579,7.6973792,33.3293328,16.6656195-10.9333339,10.6625123-38.990392,3.1021137-33.3293328-16.6656195ZM499.7690045,972.9596227c-4.7305866-.7877957-2.3227504-4.1783133,0-4.1696119.3559299-5.9077052.6786911-11.7909206-4.1696343-12.494079,8.7629487-15.0544598,13.443345,8.2981833,20.8352987,8.3308362-.4081162,15.5392744-16.2595217.2814966-16.6656644,8.3328546ZM520.6045498,947.9633016c-.7118598-9.0359681,14.766325-1.890593,20.817963-4.1715854-.1701718,7.129542,3.1021137,10.7995827,8.3414888,12.5042157-11.4784756,18.207347-20.3440701-1.1283635-29.1594518-8.3326303ZM533.0983373,927.1278011c3.7464251-12.1987229,3.7464251-12.7994821,0-24.998205,4.0518955.1197123,3.2376591,5.1038073,4.1716078,8.3325855,4.0518955-.1093513,3.2203459-5.102372,4.1525678-8.3325855,11.7317373.7810678,17.7504757,7.2477741,16.6656419,20.8352314-12.7319786-3.0256396-12.2405257,7.1889272-24.9898175,4.1629736ZM553.9338602,935.4606557c21.4793633-6.1975892,20.6149141,9.9333393,33.3293328,12.5026459-11.7821968,13.7055548-31.9214687,5.8901677-33.3293328-12.5026459ZM570.5992778,968.7900109c5.7983539-6.3747132,21.5646735-11.8255471,29.1596985-4.1632428-1.7986447,9.3174647-20.5318018,1.6876338-29.1596985,4.1632428ZM612.2527638,960.4571563c-4.9509712-17.4536843,17.5632599-7.4335099,20.8355453-16.6654401,7.3397449,3.7722155,6.8831652,15.3426395,16.6639151,16.6654401-4.6437739,8.3746575-32.2271858,4.7810461-37.4994604,0ZM641.4297755,927.1278011c3.406104-8.7738031,21.953503-11.4262669,29.1579717-4.1629736-6.8487855,5.3331848-22.5975676,10.7909261-29.1579717,4.1629736ZM687.2534115,956.2959319c-12.732001-3.0101205-15.1900276,4.2549669-25.0056506,4.1612244-.5607281-7.7565402-2.7306199-13.9194581-8.3239289-16.6654401,11.5442748-15.9347421,33.6852402-12.9852178,33.3295795,12.5042157ZM691.4230458,931.297682c10.358522-16.2488467,6.0689288,13.8081782,0,0h0ZM695.5946536,868.7997923c-5.6628309-1.2879051-3.4582903-10.4347495-4.1716078-16.6634666,17.0040119-1.2725654,2.2220781,8.695176,4.1716078,16.6634666ZM708.088441,910.4621816c-.1179855,4.0519179-5.1021029,3.2376591-8.3412421,4.1715854.1197123-4.0516488,5.1038297-3.2394083,8.3412421-4.1715854ZM708.088441,947.9633016c-15.7331958-4.5517134,1.0348677-30.2951487,16.6656644-29.1683102-.7637994,9.0862482,3.4060816,13.2578335,12.4940117,12.5026907,7.7981188-26.3524026,8.0533316-10.5271912,29.1594742-16.6639151-9.1557252,21.3945466-43.9762587,17.1133408-58.3191503,33.3295346ZM770.5774723,893.7982665c3.6281929-6.094921,6.239123-13.2074189,16.6656195-12.4955591-3.6108349,6.0951453-6.2393024,13.1987175-16.6656195,12.4955591ZM787.2430918,822.9679707c1.1682377-9.6556104,11.1381769-9.5791363,16.6637357-4.1629288-1.1526289,9.6556104-11.1208637,9.5707488-16.6637357,4.1629288ZM799.7542597,860.4669377c6.4926313-19.6824231,20.6307023-5.5426028,0,0h0ZM803.9068275,902.1295961c-11.985313-6.9578452,7.748063-16.8670089,16.6656195-16.6641842-3.7637383,7.3399916-15.3253263,6.8834343-16.6656195,16.6641842ZM816.4181749,881.3027073c-13.7144357-8.6801055,7.0187106-17.5719165,8.3241532-25.0051123,12.1225627,7.1032582-3.6956965,20.9030489-8.3241532,25.0051123ZM837.2363621,872.9629454c-4.8816959-.6700121-3.5084807-7.595025-4.1525678-12.4960077,3.5431071.7640237,3.9166417-1.6262303,4.1525678-4.1693427,6.5272578,1.4753452-3.644026,7.3414718,4.1713611,8.3324958,17.8340814-15.5041098,28.6682457-38.0007809,45.8233893-54.1558851,8.2739628,29.1576801-30.1418865,47.5695561-49.9947505,62.4887397ZM912.2385124,772.9727717c-1.4410328,12.4527246-11.1906099,16.5894594-20.8357696,20.8357696,7.3224093-6.5777172,8.6454342-19.1323924,20.8357696-20.8357696ZM903.9140902,806.3025754c-7.4266025-3.0519234-.6109408-7.577667,0-12.4940341,7.40754,3.0516542.5921026,7.5690552,0,12.4940341ZM912.2385124,810.4742056c-7.1213788-4.72193,1.4562828-28.8213733,16.663646-25.0071756-2.7291173,11.1641467-11.9350777,15.8514503-16.663646,25.0071756ZM916.4081243,764.6401862c.9149087-15.7487821,13.0876618-20.232992,16.6656195-33.3293104,15.222972,4.72193-1.933876,32.6592534-16.6656195,33.3293104ZM937.2434005,781.3055814c-18.936206-12.3583094,6.763722-21.7256953,8.324198-37.5006715,23.2084861,8.0793014-9.5114084,24.4807824-8.324198,37.5006715ZM966.403099,731.3108758c-15.5303935-3.366028-.8142589-25.4288822,12.4938099-24.9965006-.0675036,12.4260372-10.8324598,14.1640856-12.4938099,24.9965006ZM978.8969089,456.3238704c1.6962456-10.3760819,16.1571226-.2463544,12.4940341,8.339762-9.2215244,2.2898508-5.9163169-7.9596115-12.4940341-8.339762ZM987.2383752,268.8394858c4.169881-12.8511975,6.865852,9.0362596,12.4943032,8.331352-7.1040207,15.7836328-6.8488079-9.0444229-12.4943032-8.331352ZM999.7326785,543.8180589c2.7286239,2.7288706-1.746705-1.7462117,0,0h0ZM991.390943,406.3288957c-1.8297725,6.0602722-3.6438017-.4234559-8.3239289,0,1.034621-5.2391284,8.2910517-4.2045074,8.3239289,0ZM999.7326785,614.6485565c-20.4449666,2.2549328-11.3241369-27.5329524-8.3417355-37.5009182,12.3760711,8.9942101,13.4282744,20.0207482,8.3417355,37.5009182ZM991.390943,693.8099352h-8.3239289v-8.331352h8.3239289v8.331352ZM999.7326785,664.6435537c-6.2393472-6.171597-.390803-21.5315496,12.4938099-20.8268887-.4739154,10.6296127-.7796325,21.4360803-12.4938099,20.8268887ZM1028.8918836,593.8216902c.2708664-19.1739037,11.8499919-27.048407,16.6639151-41.6707991,2.3227504,5.3051518-3.3383089,38.1519126-16.6639151,41.6707991ZM1049.7274289,489.6621065c14.5459629,15.5024278-11.358539,21.1390198,0,0h0ZM1045.5557987,535.4854734c-14.5961533-1.1268609,7.5272523-18.4449999-4.1525678-16.6639824,10.7822246-13.4365946,8.0011677,10.4332918,4.1525678,16.6639824ZM1028.8918836,385.5022761c6.0864887,3.6351227,16.1395403,3.3051626,12.5113473,16.6636684-6.1038019-3.6264885-13.2073292-6.2373737-12.5113473-16.6636684ZM1028.8918836,468.8263369c6.5430908-1.7880145,3.5606894-13.1047283,16.6639151-8.3328322-6.4404675,6.0518623-3.6611149,21.3269757-4.1525678,33.3295122-5.289543-7.2214679-14.0876115-10.9177027-12.5113473-24.99668ZM1028.8918836,502.1558491c16.240235,4.1958956.6440423,14.3429589,4.169881,29.1684-14.2402906-2.2220781-6.3743992-20.0734728-4.169881-29.1684ZM1020.5679547,639.6450571c-17.6307634-6.2985082-7.6627528-14.2820487-4.169881-29.1594518,15.833868,3.7897305,3.0501741,16.7418021,4.169881,29.1594518ZM1012.2264883,552.1508911c-4.7966549,4.9249789-4.7133183,14.7316986-4.1525678,24.9967473-11.3083038-1.7118319-17.2073524-19.809581-8.3412421-29.1600125,3.3571022,2.2048322,6.7632287,4.3490009,12.4938099,4.1632652ZM1003.9023352,268.8394858c-11.1710541-6.882941-14.9694636-21.1407466-25.0054263-29.1678617,9.6801001-8.044675,21.0057171,17.7071927,25.0054263,29.1678617ZM983.0670141,318.8329804c-6.6610538-5.8399101-10.6451991-14.3495746-12.4940341-24.9965006,8.7147319,3.7897081,12.6988323,12.2993951,12.4940341,24.9965006ZM974.7272522,281.3424457c-2.3229746,12.0614507-6.4943358-6.3922282-12.4957385-4.1716078,4.0691863-13.8081557,8.2408165,4.6539106,12.4957385,4.1716078Z"/>
    <path d="M400.7442438,48.0609331c-.3202719-.0108095-.6391533-.0203183-.9651888-.0364654.2907363.0333033.6154261.0440455.9651888.0364654Z"/>
    <path d="M433.1101146,98.0194424c-2.458049-12.8254744-1.0692474-29.4893895-16.6654177-29.1681084,11.5113752,16.5128058.4738929,24.0314015,0,29.1681084,8.2739628-6.9422813,5.2895878.3732431,16.6654177,0Z"/>
    <path d="M899.7424599,210.5121723c-1.864399-10.6469259-5.8485442-19.1568372-12.5113473-24.9967473,1.8664173,10.6365425,5.8485442,19.1567924,12.5113473,24.9967473Z"/>
    <path d="M387.2676853,348.0010888c-3.3400582,17.5978638-29.5831319,34.1351593-24.987844,45.833997,5.1525624-14.0460778,40.2629575-38.721544,24.987844-45.833997Z"/>
  </g>
</svg>