<?xml version="1.0" encoding="UTF-8"?>
<svg id="blueberry" xmlns="http://www.w3.org/2000/svg" version="1.1" viewBox="0 0 1001.5859976 1000">
  <!-- Generator: Adobe Illustrator 30.0.0, SVG Export Plug-In . SVG Version: 2.1.1 Build 123)  -->
  <g id="outline">
    <path d="M266.1126673,225.0638999c8.708154,12.230607,13.9396851-9.3239664,0,0h0Z"/>
    <path d="M386.0769707,312.3369089c-6.9092147-1.9254066-16.0621244,5.3793005-24.7143763,10.6047719,5.1014445,12.4064618,30.2246114.58357,24.7143763-10.6047719Z"/>
    <path d="M602.6586207,309.5964236c16.8415483-6.1530783,2.4931139-45.9863163-6.7833057-40.4176766,7.1756339,14.6691631-.8565038,25.6415281,6.7833057,40.4176766Z"/>
    <path d="M704.7163404,447.8677872c-26.1906427,17.1669304,16.7042851,41.3793665,27.7031224,45.481398-11.8475235-20.7303535-31.0195257-22.5373998-27.7031224-45.481398Z"/>
    <path d="M605.8555882,592.7146488c-3.4239264-.8316033,2.1914742.532528,0,0h0Z"/>
    <path d="M846.6253737,205.5345007c-18.6883031-21.7841588-16.4696741-54.500788-29.9876427-93.0896199C802.6820591,72.570983,752.6064304,0,752.6064304,0c0,0-90.6835751,19.2455249-122.1823946,69.9739032-141.1765772-27.1491684-338.2512054,9.0029481-485.1089296,139.5882997C77.6929796,269.6818866,24.9282384,359.3582931,7.5215887,446.9335623c-35.6814675,179.505546,57.9825812,408.6168576,230.1247259,499.232494,134.0797192,70.5744733,338.7956873,82.7356939,489.0989708-30.663142,61.1087145-46.1022568,197.4015614-196.5997809,189.385576-266.7939627,16.5804443-.6009011,41.8455483-22.8891922,51.0947304-32.7286451,7.8588887-51.8455104-58.4508104-89.9491542-65.9827659-145.2797668,17.4002591-44.0663696,40.1075988-66.0923779,72.9995451-106.8310521,30.5540677-37.8428708,27.2381609-123.4886591,27.2381609-123.4886591,0,0-116.2080873,10.2139122-154.8551583-34.8463277ZM815.5552197,242.2744062c-8.7313172.8421302-17.6623351-8.9421445-4.6631-14.9744841,3.9605493,5.5793113.1961847,9.2771021,4.6631,14.9744841ZM801.8597625,731.6711493c-1.9812881-3.2527042-3.9578194-6.4977148-5.9349711-9.7437182,3.2380617-1.9723123,6.4909727-3.9536831,9.7425187-5.934268-1.6182036,5.137451,6.2817999,12.6043011-3.8075476,15.6779862ZM792.5195818,701.7267309c-1.8323812-3.2153947,2.4408311-4.9477602,4.5240376-7.2132949,1.8310576,3.216222-2.442072,4.9487529-4.5240376,7.2132949ZM731.8499769,17.1027143c4.1326608,5.7732625,8.7517506,9.5481332,14.4055773,9.0405057,38.8049536,64.1856673,69.9188697,123.0305844,61.2314799,180.9561674.8938546,12.5953253-10.415288-43.253876-13.4375589-58.6301811-13.0777007,5.1294886-8.6704309,14.5069994-3.0981306,24.1614149-18.8249251-11.1159567-11.6197788-39.6651594-21.9188781-57.9141461-7.627959-6.0365173-5.58868,13.0828918-1.82688,18.9297183-8.5506436-8.6205885-28.1517456-43.6861194-6.2415951-54.1050887-8.2051798-15.5823342-26.396465,9.9243505-34.611241-5.6434033,9.7217958-5.8489154,16.1974228,1.7171232,25.4349406-2.1333798-8.063801-3.924274-32.2628977-27.3184258-41.8218887-10.1595405-6.9400095-13.2708246-5.0395034-15.9517886-6.0867734-31.9245276,10.3050556-8.225427,18.9839659-9.8056593,27.9709479-12.5775392ZM783.0401732,649.5943267c.35961-17.5904462,11.2908602,7.8846992,0,0h0ZM780.2037049,615.689752c-1.8258045-13.6493995,15.7951262,7.7507037,0,0h0ZM771.0529254,710.3445894c2.5340219-18.0092466,16.9431978,3.2093144,0,0h0ZM772.2881903,602.6944877c-1.8259286-13.6496063,15.7959535,7.7520687,0,0h0ZM762.8353367,652.9927941c-1.3160054-2.1604933-2.6368917-4.3291144-3.9571162-6.4965567,2.1672561-1.3201004,4.3358359-2.641028,6.5044984-3.961935,1.3201831,2.1674423,2.6411108,4.3360634,3.9571162,6.4965774-2.1686625,1.320907-4.3372422,2.6418346-6.5044984,3.9619143ZM762.721423,733.2360773c-4.0639568-15.1242182,11.5775885,10.5551777,0,0h0ZM736.4622832,807.1373773c-4.3147821-8.8544963,8.3099109,1.0555012,12.9954297-7.9156387,4.4341144,8.3827512-10.419052,7.6509982-12.9954297,7.9156387ZM738.0329606,846.2700915c3.4251052.8334646-2.1970375-.5265097,0,0h0ZM692.0361795,602.5787747c-2.8727436-9.1799197,11.1395129-28.4883785,19.4997213-11.8774703-6.504457,3.961935-12.9952642,7.9155353-19.4997213,11.8774703ZM705.7768052,705.5645976c-4.0578765-15.1263277,11.5787467,10.544961,0,0h0ZM678.9059892,588.3108328c.1232618-3.6643695.171036-7.3367221-2.7004046-11.7218213,4.6884762-4.1155158,7.4637686-.333179,11.7327205-2.6972817.5157553,5.6671457-3.264534,10.2895445-9.0323159,14.419103ZM682.5834087,652.8767709c-4.0509689-15.1302779,11.5854475,10.54068,0,0h0ZM675.9426813,634.6560352c-4.2721575-18.4401665,13.4695118-14.1301411,0,0h0ZM682.003913,564.1489836c1.832464,3.2159118-2.444926,4.9410387-4.5224451,7.2128812-1.832526-3.2156016,2.4407277-4.9479877,4.5224451-7.2128812ZM695.441265,622.7792887c1.79077,4.1281936-4.2560053,6.343224-7.7795958,9.1873237-1.7893223-4.128814,4.2562948-6.343162,7.7795958-9.1873237ZM695.35341,805.4520002c1.8323812,3.2153947-2.4442642,4.9421349-4.521804,7.213998-1.8322985-3.2157257,2.4407483-4.947967,4.521804-7.213998ZM673.7864897,506.7973951c26.0914542,19.0601773,42.5714691,27.9075384,72.0701597,45.1819092-29.1135183,5.853486-50.9944665-18.0187188-72.0701597-45.1819092ZM730.0515961,628.4211616c1.8326294,3.2157877-2.4436851,4.9426312-4.5134073,7.1999346-1.8405297-3.2014347,2.4316485-4.9350411,4.5134073-7.1999346ZM732.8888502,662.3265843c2.6411108,4.3360427,5.2780025,8.6651778,7.9149356,12.9942922-11.4548645,10.0580771-18.9763138-7.1991487-7.9149356-12.9942922ZM748.3348727,826.6291983c16.3013267,1.5885049-11.926775,18.0307554,0,0h0ZM751.9962433,788.7669903c6.1236278-14.4959969-1.2121843,15.6823293,0,0h0ZM729.3064415,517.5197c-30.0284266-16.8977606-57.7671419-43.2448382-80.8298313-88.8442656,29.6330376-13.8366292,40.5985571-16.3643639,72.8898297-26.5808613,26.9832407,30.106975,11.5781676,66.5589939,37.1822829,97.6133886-16.2431703,7.2847908-16.8991049,16.384942-29.2422813,17.8117383ZM622.6620813,569.1115311c4.9072452,6.7341251,3.6396965,11.9567218-3.8110427,15.687479,1.6259385-5.1399948-6.287446-12.5984482,3.8110427-15.687479ZM547.8556346,797.3070036c8.2215389-3.4767676,16.5019993-7.171146,20.9088141,5.0790878-9.2539388,7.7023711-16.2254256,6.0041714-20.9088141-5.0790878ZM560.7294777,869.6371712c-1.8324226-3.2153947,2.4440987-4.942383,4.5205631-7.2037814,1.8377377,3.2124166-2.4385768,4.9392808-4.5205631,7.2037814ZM452.3640235,859.9204216c10.3372774-4.3757512,25.8127503,4.3674372,23.6032005,16.8061622-8.5277699,8.5107697-11.6772527-5.1121368-20.2048364,3.3984674-2.3738437-7.0354753,2.0279455-12.4264815-3.398364-20.2046296ZM441.7615886,835.1951462c2.1618583-1.3168327,4.3291144-2.6369331,6.4977148-3.9578607-.1245854,3.6651761-.1777575,7.3408584,2.6854726,11.7307144-7.8547938,2.2937442-9.9686709-.8784676-9.1831874-7.7728536ZM447.8468522,867.129787c-7.2371406,1.1380618-4.0687963-5.6228045-5.9383629-9.7492609,7.232508-1.1426531,4.0688584,5.622515,5.9383629,9.7492609ZM405.968048,652.1130237c4.4223259.7581012,9.4626152-.9795174,14.9704306-4.6701938,2.3889412,7.0450715-5.7026765,11.5395552,3.3998324,20.2040092-4.3372216,2.6418553-8.6661498,5.2786229-12.9954711,7.9156594-7.7837528-9.2691191-3.1112634-15.5228335-5.3747919-23.4494748ZM383.9617905,776.872313c7.3949198-3.8527987,11.9573009,3.9357315,16.3898022,12.2824555-6.9206309-2.9708566-19.0151536-2.5189658-16.3898022-12.2824555ZM388.7733217,814.0220018c-6.9303099-12.2703362-.2491294-11.0487625,9.0383755-14.4116991,2.702266,6.1915872-1.0726048,10.810677-9.0383755,14.4116991ZM395.5339812,751.9976757c-12.3990165-2.3696867-14.3280217-11.8438836-13.8500101-22.7382379,8.737956-1.769799,16.9492782-1.3784222,22.8915706,8.3317092-5.7785362,4.1266218-9.553407,8.7457529-9.0415605,14.4065287ZM221.7823811,817.7505046c6.1141557-6.1812051,8.4074656,3.3884162,13.7061702.5578215,3.616678,8.8809272-13.3686067,11.5413132-13.7061702-.5578215ZM234.3678,845.7161581c-3.0056636.9885759-5.2238376-1.2848177-8.4747632.7120228-1.3201004-2.1672561-2.6410073-4.3358773-3.9611077-6.5031334,6.0109343-5.7380832,9.0161222.8773921,12.4358709,5.7911106ZM200.0128441,782.0105085c-1.2350374-5.8361549-.1759996-11.121065-1.4170966-16.9519254,6.5089449-.176496,11.9665042,3.9208408,16.3939385,12.2891977-5.5746166,3.9560821-9.2725315.1915521-14.9768418,4.6627277ZM209.3455795,811.957905c-1.8309956-3.2165529,2.4461669-4.9420521,4.5212869-7.2026646,1.8391441,3.2112998-2.4380597,4.9371299-4.5212869,7.2026646ZM154.4981489,707.2869946c-11.1492539,2.286878-7.5032496-14.341382-11.8726515-19.4918209,3.6644936.1234272,7.3401139.17662,11.7299698-2.6866101,7.7457816,9.2644864-3.519082,13.9059122.1426817,22.178431ZM98.2649334,688.0901746c-.8208902-11.271647,14.8394339-18.5443806,18.0747863-28.8240806,11.7439712-.4943293,2.6323004,16.9817482.1496307,22.1742326-7.0125602,6.1014986-10.6777983-1.6249871-18.224417,6.649848ZM104.9123203,706.3070636c-1.7961679-4.1248846,4.2559846-6.343224,7.7659874-9.1792373,1.796292,4.12505-4.2517449,6.3501316-7.7659874,9.1792373ZM90.2034487,652.9110402c-11.0301078,3.7900303-1.12071-8.8326773-7.9155147-12.9952642,12.6616302-3.6888357,7.2643575,5.5429532,7.9155147,12.9952642ZM80.8700101,622.9625062c-6.4657619-9.8714885-5.4795851-17.9384745-7.3555423-26.7009174,14.9496663-3.0984822,14.9880926-10.9055017,29.9506849-9.3273168,2.54246,14.4548614-8.6552507,25.5715626-22.5951426,36.0282343ZM67.1635917,622.4042917c10.5430583-2.4351023,6.5253867,14.1043512-3.8040524,15.6837563-3.3840731-6.357184,9.3674183-8.7958229,3.8040524-15.6837563ZM71.9471201,557.1339623c-9.5281342-2.5072187-.6331642-24.0103986-8.0625395-35.1808303,5.4132388-3.2972521,10.8266638-6.5946077,16.2468309-9.8960789,1.5065855,16.0565404-8.1587912,29.3937113-8.1842915,45.0769092ZM173.6028534,343.7677277c-9.9772331,19.6530126-37.0735809,40.2446138-58.4764761,35.618513-8.4293259,8.0628704,7.3382732,5.054787,7.9155353,12.9952642-10.7788482,6.3930871-22.1809748,15.3309092-28.6788965,4.1116691,22.721217-27.7870273,43.55595-46.7841673,79.2398373-52.7254463ZM116.6643366,316.0941384c-1.8379239-3.2123132,2.4353091-4.9446787,4.5163441-7.2107304,1.8325053,3.2155809-2.4398797,4.9493113-4.5163441,7.2107304ZM137.7213958,343.3577996c-4.4265657-.7650502-9.4668342.9725891-14.976118,4.6638859-.1723803-6.502182,3.9209856-11.9662974,12.2891977-16.3939178-.1285769,3.6586201-.1776541,7.3410032,2.6869203,11.7300319ZM232.9125667,236.3779027c5.8814681,20.9937117-20.9861837,29.4469041-38.278568,32.2242646-3.8450845-14.7770585,26.0089143-21.3618838,38.278568-32.2242646ZM210.727166,236.5248034c4.8401337,6.7120579-10.6231785,8.4919288-14.2595246,13.1435299-3.9566612-11.5537014,6.0840434-9.5147119,14.2595246-13.1435299ZM295.1999408,185.0717246c-2.1672561,1.3201004-4.3291144,2.6369124-6.4963705,3.9569921-1.0884675-3.1249132-3.1340958-2.2871468-5.2301868-1.2647774-5.1294472-5.5204517,11.9099816-13.7593217,11.7265574-2.6922147ZM290.5305743,170.0992052c1.8376137,3.2122305-2.4352884,4.9446787-4.5163441,7.2107304-1.8325467-3.2156429,2.441224-4.9501386,4.5163441-7.2107304ZM590.6981141,472.7772935c-4.0505552-15.1326356,11.5868952,10.5400388,0,0h0ZM598.7664651,507.9524778c-7.2357136,1.136945-4.0620335-5.6269615-5.938487-9.7494884,7.2395811-1.146686,4.0760555,5.6186889,5.938487,9.7494884ZM604.8552859,539.8773569c-10.5399768,6.6632496-6.7917851,16.8055004-22.0323782,22.3267174-1.4111817-19.7206204-19.0826994-34.0043837,4.2205365-51.5692055,9.453991,16.325462,12.9083812,14.0227834,17.8118417,29.2424881ZM630.0504038,698.2411944c.3664349-17.594872,11.291129,7.8847406,0,0h0ZM631.0197872,648.652822c.3655456-17.5959061,11.2977678,7.8804802,0,0h0ZM630.0773311,800.6716775c14.9036293-7.2200784,8.0633254,20.943497,0,0h0ZM628.8954245,623.2213766c-2.3900993-7.0348342,5.7025317-11.5280977-3.3942277-20.1978875,8.6937183-9.2189664,10.9704209,7.9981373,18.9302974,1.827852-1.1674088,7.099588-7.4221367,12.9584305-15.5360697,18.3700355ZM612.0571026,544.3972789c8.2425099.2446208,12.8775038,15.3830059,20.3473113,18.7801083-5.5694669,3.9640859-9.2672577.199742-14.9715887,4.6708969-7.7773208-9.2732967-3.1114495-15.5227094-5.3757226-23.4510053ZM617.849392,531.9625248c16.3780137-11.1098349,20.1378904,15.6544506,19.0831751,24.0083097-7.8531599-3.3106124-21.1956459-13.9688667-19.0831751-24.0083097ZM628.0378039,592.5625363c-3.2003386-7.231991,13.9180316-9.5392609,7.0535096-17.6556136,11.2141318-3.0424767.7621961,10.7454889,9.8963064,16.2472032-7.4161804,7.7609618-10.4647168-2.4785541-16.9498159,1.4084104ZM632.1148522,518.8135349c7.2008446,1.8220612,16.7742506,11.7679824,15.1263691,17.5118151-7.4243083,3.9690287-9.7835508-12.9360324-15.1263691-17.5118151ZM654.0204321,576.7363051c1.8350285-12.1640953,8.5306239,14.0051214-3.804404,15.6831772-10.0410562-13.0327598,6.21959-9.4875571,3.804404-15.6831772ZM608.0669373,435.4723693c24.3979079-5.6796166,37.3382834,44.4895752,61.7625396,64.8286553-14.2802888-2.1402668-44.1421673-38.4874305-61.7625396-64.8286553ZM639.8556495,407.2032355c-9.1827324-14.9871412-25.5146264-46.1723671-33.0897649-68.9347196,4.6926539-4.1090632,7.4639754-.3333031,11.7231036-2.6827013,22.3783591,27.5744628,12.4524575,49.542232,38.8715274,56.4952915,3.9757916,7.4201926-12.9334886,9.7724862-17.5048661,15.1221294ZM624.20002,505.8194288c-10.8616776,6.506732-22.2528223-18.9799123-22.3344109-22.029793,8.4849592,3.0706656,15.6272131,11.6429834,22.3344109,22.029793ZM613.8916967,525.464996c-12.4260886,9.6062069-2.9092878-7.7530408-13.1480799-14.2665356,6.7574125-10.984443,18.7911523,11.5992834,13.1480799,14.2665356ZM600.3930861,751.9377407c-8.7316275.8420681-17.6518082-8.93958-4.663555-14.9747323,5.5097387,5.9498618,3.0109581,9.9551246,4.663555,14.9747323ZM597.2616789,673.6730984c2.1672561-1.3200797,4.3358773-2.6410073,6.4975494-3.9576953,1.3167913,2.1618376,2.6368917,4.3291144,3.9576953,6.4975287-2.1616721,1.3166879-4.3302933,2.6375742-6.4975494,3.957716-1.3207829-2.1684143-2.6408833-4.3356911-3.9576953-6.4975494ZM587.8139957,723.9677441c-1.8257011-13.6497511,15.8029025,7.747829,0,0h0ZM580.3084092,675.0910223c-1.8192692-13.6539081,15.8027784,7.7476222,0,0h0ZM571.6886893,653.6178099c16.2087356-6.9089459,9.366074,21.2542159,0,0h0ZM584.5356878,623.5177218c-4.0563461-15.1269896,11.5802771,10.5443406,0,0h0ZM573.2218092,590.3178073c13.5653292-6.4591232,22.5743784,5.8330527,35.8853458.4162773,2.9194424,9.0161016-7.8662927,14.6967729-13.5564362,21.6166179-6.7951562-10.0254623-16.0742438-9.8021435-22.3289096-22.0328952ZM547.4952801,548.0814199c12.8599865-4.2531099,9.5395504-12.4437299,20.7612309-17.0947933,3.9243153,10.1782987.5469844,18.5882667,4.1116691,28.6788758-10.0555953,3.3968956-18.1762498-1.1720622-24.8729-11.5840825ZM563.3297218,574.0775324c-1.6916643-4.578037,4.4613933-7.2124263,6.4977355-3.9578194,1.4348,5.5975731-3.0561472,1.408824-6.4977355,3.9578194ZM539.8743321,579.4577842c10.013343-6.3088927,27.9512178,13.3507379,11.8726515,19.4918416-9.5810168-2.0852333-2.3852185-9.8663802-11.8726515-19.4918416ZM557.834667,630.8730573c-4.4332044-.7607691-9.4667308.9727752-14.9758905,4.6642789-5.5104419-5.9510407-3.0114751-9.9563861-4.6708349-14.971899,9.247176-7.6704595,14.6223815.6176738,19.6467254,10.3076201ZM572.63007,501.5972378c.0568535-.3516683-2.1811541-3.0751742-1.980316-3.2511738,13.9307093-12.2546803-2.7094218,30.2777422,1.980316,3.2511738ZM590.7385672,575.1995246c-.1934961-6.5059874,7.5929452-11.0686994,12.2822487-16.3896988,2.147071,8.8233706,7.2143083,18.361039,7.3520678,26.695623-9.2744135,7.8055097-11.5032592-13.4103007-19.6343165-10.3059242ZM569.7885555,467.6965305c11.5396586,2.6683483,16.635788,10.5291397,19.0816033,24.0087441-10.0451511,5.766086-20.5537748-16.6050759-19.0816033-24.0087441ZM557.559603,198.9861782c-.9059946,13.329891-9.9104939,27.1421366-10.1582169,41.8210614-.5027053,29.9119484,20.062072,59.8043114,14.2910432,89.2822791-29.4733144-60.6792631-37.1400099-116.053948,5.4707955-159.2281382,8.2127492-5.2007777,5.4353267-.0011582,7.2093861,4.5171713.0671528,14.2147284-13.0462441,9.1698065-16.8130078,23.6076263ZM533.8103291,159.995939c-1.8309749-3.2165322,2.4453396-4.9433964,4.5272019-7.2080831,1.832526,3.2156016-2.4439747,4.9425692-4.5272019,7.2080831ZM533.459488,400.7351572c16.6721047,21.2098748,24.4260968,33.9399401,35.6226286,58.4831976-11.60191,9.7859085-14.6856876-15.5119964-22.3319911-22.0383965-10.0705067,7.702309,6.3146215,21.8359453,11.3139821,33.2001007-15.7994486,14.6161771-26.7072667,30.4228022-49.2921099,43.3906428-20.9093312-23.2130232-33.6710392-38.1675911-48.0544253-64.2680417,21.1786457,3.4839234,28.0313793,28.4793613,48.6191751,50.5576525-1.4679731-17.1118555-26.0229571-36.9371243-36.893445-53.2512322,11.6017032-9.7857637,14.6865149,15.5133614,22.3280823,22.0315509,5.2674963-7.9392984-11.2008336-21.1702697-14.5554148-31.2146143,20.8538427-17.4793452,32.6538194-29.7948084,53.243518-36.8908598ZM498.9404865,702.3780328c-4.1244089-16.7984687,13.5317218-7.8969427,21.4743705-8.620423,1.8313678,9.6582209-14.0805882-1.5289008-21.4743705,8.620423ZM504.8796767,712.1287c-4.4344246-8.3828753,10.4180386-7.6522391,12.9952642-7.915556,4.4305365,8.3738581-10.4232918,7.6440492-12.9952642,7.915556ZM496.1052798,668.4729411c9.015295-2.9168366,14.6974554,7.8682574,21.6224501,13.5547403-8.6724784,1.5022631-16.3660184-.9975517-21.6224501-13.5547403ZM503.8739558,659.2833217c9.0099591-2.9138791,14.7007851,7.8733244,21.6151702,13.5575736-10.2049778,7.8379383-13.9843985-10.7744223-21.6151702-13.5575736ZM529.6004849,701.5197091c1.832526,3.2156016-2.440707,4.947967-4.5169852,7.2092827-1.8379239-3.2123339,2.435123-4.9445753,4.5169852-7.2092827ZM498.3487887,613.6579804c7.653542-1.1095627,15.202932-1.8201171,23.4508191-5.3756192,5.627251,6.9042512,7.0747908,12.7910137,6.6457944,18.2173439-11.910023,3.4480823-21.0984842-4.303035-30.0966135-12.8417248ZM488.4526891,597.4111288c12.8554366-11.119245,19.7179732,2.4081957,30.6601018-.8586133-1.3067401,8.2995288-23.8596925,7.7088651-30.6601018.8586133ZM477.2929497,586.3932851c4.0138662-1.3385483,6.1340513,5.1163765,10.4555549,2.5399162,2.2772197,2.4010812.5978195,3.8396866-1.2722434,5.2331236-2.1672561,1.3201004-4.3291144,2.6369124-6.4977355,3.9578194.124482-3.6653829.1777782-7.340817-2.685576-11.7308591ZM448.7569211,612.6833025c-8.225489-10.3047454-9.8037153-18.9959819-12.5797108-27.9714856,9.8004269-6.1678449,16.8108569-.8316653,25.4283845-2.1293676,3.9611077,6.5031334,7.9148322,12.9941061,11.8767465,19.4985838-9.6846105,9.4697503-15.433386,2.7675161-24.7254202,10.6022695ZM448.1976932,626.3905895c-1.832526-3.2156016,2.4420513-4.9487943,4.5163441-7.210751,1.8378205,3.2121478-2.438825,4.9389085-4.5163441,7.210751ZM436.2370419,789.5712526c3.2517528-1.980709,6.4977355-3.9578607,9.7494884-5.9385283,3.6100185,10.107754,7.6518462,20.314407-6.3551159,26.1365813-2.3724373-7.0365921,2.0279455-12.4264402-3.3943725-20.1980529ZM410.3972195,827.5761216c.8941235-7.1610534-6.0326706-16.2265837,5.0784673-20.9102825,3.474079,8.2327276,7.1738966,16.5095481-5.0784673,20.9102825ZM408.7151308,868.6904133c-1.7961679-4.1248846,4.251869-6.3499662,7.7660908-9.1791132,1.7973468,4.1242227-4.2559846,6.3432654-7.7660908,9.1791132ZM385.4038704,406.2871276c16.9018348.9964142,21.7389077-11.2666214,36.4482136-13.2850328,10.9701314,14.8688844-13.2153775,20.9276136-19.4918416,11.8726515.9788556,8.5385863-5.0057305,15.3926435-8.3313163,22.8913224-11.0882641,1.4792239-10.3055933-16.9495471-13.8540016-22.7447319,2.4009985-2.2769095,3.8408448-.5985227,5.228946,1.2657908ZM406.1642948,389.19099c-6.9092768-1.9250964-16.0728581,5.3768601-24.7182437,10.5984227-2.0777673-5.1689282,22.1389293-23.833551,24.7182437-10.5984227ZM511.4011959,320.632653c-24.1384791,8.1866905-49.3615584,20.8870158-75.4349576,37.0395805-31.5591681-46.8848242,38.4663147-51.6141257,68.076127-63.7311292,9.3799306,10.5794371.5701891,16.7345215,7.3588306,26.6915487ZM527.5252201,390.9925972c-21.2814328,12.3558542-32.2440982,27.2254624-51.2670694,40.1356843-3.6904489-12.8869966-10.1633252-26.4605984-15.2718221-39.6978155,18.271819-10.6488029,37.8262635-26.5835913,52.6849933-23.1824146,4.6181591,7.5818393,9.2355116,15.1623342,13.8538982,22.7445458ZM512.6364814,212.9825514c-4.0495005-15.1308777,11.58795,10.5417968,0,0h0ZM486.7391025,536.0995907c-1.819083-13.0749294,10.2121336,9.5198616,13.1448742,14.2586973,1.8250186,13.0694695-10.208535-9.5143603-13.1448742-14.2586973ZM505.2588927,573.807949c4.4356448,8.3818412-10.425939,7.6549277-12.9952642,7.9155353-4.430309-8.3761124,10.4231677-7.644256,12.9952642-7.9155353ZM449.5892689,540.9109357c10.5728604-9.3759184,16.7394644-.5621026,26.695623-7.3520678,7.147962,10.9610729,15.8905714,22.3096758,9.332694,29.9468795,1.087206,3.1259266,3.1369084,2.2952333,5.2287598,1.2659148-7.9300124,13.2394508-32.1027815-4.2795822-41.2570768-23.8607265ZM475.3158186,583.1473231c-1.8392889-3.2114859,2.4339441-4.9438721,4.5170472-7.2095929,1.8312851,3.2166356-2.4461669,4.9420521-4.5170472,7.2095929ZM429.3846186,544.3092791c14.3690952-3.2771497,4.0406902,24.3548904,17.1012873,20.7575703-6.6617812,18.5209691-19.6540673-11.2461054-17.1012873-20.7575703ZM426.4279081,590.6502004c-1.8322778-3.2152086,2.4422995-4.9484014,4.5174195-7.2089931,1.8377998,3.2121064-2.4354125,4.9444926-4.5174195,7.2089931ZM438.684884,471.8292947c1.4403426,5.5944915-3.0505425,1.4054323-6.4975287,3.9576953-1.6808272-4.5753898,4.4675978-7.2143496,6.4975287-3.9576953ZM432.0403718,453.6019202c7.5464946-8.2750419,11.2048665-.5446267,18.2216457-6.6391763,3.7933394,4.947905-17.2558815,19.5009001-18.2216457,6.6391763ZM436.1450506,482.2845394c3.178623,20.9014102,16.0952355,10.3427787,26.2859431,28.5297828-7.4226124,7.7651394-10.4657302-2.4689372-16.9530836,1.4177791,2.8323319,3.458299,2.8098511,6.2188661.7130155,8.4741841,6.1611441,8.8079009,17.9079073-5.353097,22.8899781,8.3321229-8.6198853,1.2899054-15.630853-4.0441026-25.4300184,2.1232252-8.5751512-14.0782098-17.1512745-28.1579914-25.726405-42.2362012,7.0158486-6.09608,10.6751511,1.6358863,18.2205702-6.6408929ZM438.4216498,529.8983866c-7.7752941,9.2217171-10.1661173-3.7313155-14.4118232-9.0385617,6.1913804-2.7021626,10.8039348,1.0766998,14.4118232,9.0385617ZM437.8596093,543.5976285c13.9786697-11.9684483,15.5216547,27.2837429,27.5598823,23.3024707-2.9479415,11.3484995-20.4069775-14.1760954-27.5598823-23.3024707ZM469.6402556,515.3312867c-1.8257218-13.6497304,15.8020752,7.7464847,0,0h0ZM487.2984544,522.3924898c-4.0517961-15.1316222,11.5856543,10.5410729,0,0h0ZM444.6199792,481.5731784c13.6902869-15.2818527,38.5360321,13.8445916,53.6966497,29.6575039-9.7388787,1.8361039-38.3827821-16.5211297-53.6966497-29.6575039ZM449.6985706,460.6631027c7.7835873-9.2267427,10.1701088,3.7378923,14.4132502,9.0374449-6.1868925,2.6978194-10.8054859-1.0757691-14.4132502-9.0374449ZM459.2994624,432.5494937c-14.2461023.2679289-19.0038202-13.2104553-24.3092463-25.284586,12.861641-11.9559773,24.9805679,16.8374326,24.3092463,25.284586ZM436.6777027,366.1473483c21.5436949-16.5113267,39.5736231-18.5683918,60.4571024-32.3672565,5.218812,8.6565329,12.5315229,17.8043136,10.6022488,24.7253995-18.6423902.7711305-43.9094383,28.8113201-62.4382043,29.1139319-4.7310388-7.6021899-.2265866-12.9740037-8.6211469-21.4720749ZM453.9300683,409.0967099c3.48564-2.8486703-.870195-7.5896155-2.6928352-11.7280051,18.1719273,10.7902437,25.921597,59.7264249,2.6928352,11.7280051ZM438.8011347,391.5772426c-8.4627472,1.5210005-19.3413216-11.6980996-17.1016595-20.7573221,15.051895-10.9348901,14.2439928,11.5869779,17.1016595,20.7573221ZM423.9761158,418.4334368c1.5844514-16.3080482,18.0268673,11.9199708,0,0h0ZM419.0129685,359.0901367c6.1207531-14.4849943-1.213694,15.6829704,0,0h0ZM409.6803572,329.1429677c13.6543838-12.6041356,7.1945368,15.6357339,14.4133536,9.037631,1.4189993,14.7401627-12.2137723-1.2611167-14.4133536-9.037631ZM412.2522056,421.1148144c9.0036099,8.5168501,20.6308961,6.2286071,28.8266244,18.0750759-13.8879193.1856785-30.1449669,10.1413822-43.6555315,8.7742934-9.0086355-12.3371167.4346425-20.1918071,14.828907-26.8493693ZM403.3615581,457.7132791c9.6031667-1.5527466,19.4331475-4.0255306,24.8689085,11.5775265-4.7756901,2.5284172-9.5276172,5.0685402-7.7660908,9.1790925-9.4824074,5.6940937-18.8615935-13.6776091-17.1028177-20.756619ZM406.197985,491.6173368c20.2093864,5.9972225,5.8002932,27.1251985,20.4997547,40.9624068-12.4274329,1.779023-24.4763322,1.9949999-37.1558726,4.8165981-7.9156387-12.9954504-15.8311741-25.9907146-23.7458615-38.9846345,16.851889-8.9152792,39.3150629,1.22662,40.4019794-6.7943703ZM418.930015,541.770914c6.1245378,12.5533005,15.2878503,25.8575878,2.8350826,33.9049056-2.0167155-3.1034251-5.5164602-.1012153-8.4779481.7041845-5.934268-9.7425394-11.8726515-19.4918209-17.8067954-29.2341742,7.9339005-2.2676855,14.1762401,2.4022187,23.449661-5.374916ZM431.8036513,614.1012057c-9.2731106,7.7772174-15.5156364,3.1074166-23.4494542,5.3747919-12.0250329-18.6115541-5.5936229-32.7328641-12.7325057-50.1508886,13.4611358,7.4591359,16.8014055,20.7675388,36.1819599,44.7760967ZM435.7614707,620.5989412c1.6876934,4.5714603-4.4607315,7.2104408-6.4977355,3.9578194-2.0202934,4.1204794,1.1920405,9.5132435-5.785237,12.4307005-1.9764279-3.2448038-3.9570955-6.4965567-5.9383629-9.7492815,7.5464739-8.2750626,11.2046596-.5445026,18.2213355-6.6392384ZM443.9728136,677.9526806c-11.5876811,5.3911717-14.1631488-15.0526602-3.3942277-20.1979081-.7119194,6.2871978,4.1090012,13.9184452,3.3942277,20.1979081ZM444.1263531,700.1337588c1.8312851,3.2166356-2.4452156,4.9435826-4.5203356,7.204195-1.8392889-3.2115066,2.4372325-4.9384949,4.5203356-7.204195ZM434.9351826,692.3660342c-1.8310576-3.216222,2.4461669-4.9420521,4.5212869-7.2026232,1.8392682,3.2115066-2.4394247,4.9379158-4.5212869,7.2026232ZM434.6402023,648.0054702c-1.8324019-3.2154154,2.4448019-4.9412249,4.5197358-7.2016926,1.8392682,3.2114859-2.4378736,4.9369645-4.5197358,7.2016926ZM433.6971257,800.0267868c-7.2323012,1.142529-4.0682586-5.6249968-5.9391902-9.7506258,7.2449376-1.1409572,4.0698304,5.6240454,5.9391902,9.7506258ZM427.0196473,679.3707699c-2.1672561,1.3201004-4.3291144,2.6368917-6.4977148,3.9578194-1.3160054-2.160514-2.6370158-4.3293419-3.9570128-6.4963705,2.1686211-1.3209276,4.3304794-2.6377397,6.4977355-3.9578194,1.3199763,2.1670493,2.6410073,4.3358359,3.9569921,6.4963705ZM423.2161946,695.0554569c4.4975653,5.2262987-12.4807498,7.8824656-13.7068114-.5592279,6.1133077-6.179137,8.4032259,3.3814259,13.7068114.5592279ZM414.4675049,753.8312151c14.9036914-7.2203679,8.0699434,20.9391953,0,0h0ZM414.8840718,717.9454971c.1288044-3.6582685.1786882-7.3392866-2.6866928-11.7296803,5.1423525,1.6263521,12.5999787-6.2883767,15.6821432,3.8140416-4.3304587,2.637719-8.666336,5.2787057-12.9954504,7.9156387ZM425.6684005,867.2724894c4.0135767-1.3385896,6.1389942,5.124463,10.4553688,2.5400196,2.487654,10.5554672-16.0831368,6.0454931-10.4553688-2.5400196ZM446.9613529,734.0389333c-8.469386,4.7060762-15.0521432-7.423419-13.1433438-14.2596073,8.4660976-4.7114947,15.0462283,7.4289202,13.1433438,14.2596073ZM479.5688044,634.0054778c-9.2960464,4.0773585-13.0267208-14.7653735-21.621809-13.5532512,1.962592-10.6293209,22.8701446,3.893686,21.621809,13.5532512ZM514.4420594,581.5807819c1.8391648,3.2113205-2.43746,4.9380813-4.5149791,7.2099238-1.8323399-3.215705,2.440707-4.947967,4.5149791-7.2099238ZM497.1946367,538.6395069c11.5714254,5.5478961,25.0364493,3.3000235,34.0538125,19.3379919-4.3291144,2.6368917-8.6649917,5.2778991-12.9941061,7.9148115-11.1694804-17.1917895-10.5038048-12.2595818-21.0597064-27.2528034ZM506.9439389,532.7011233c-4.0572974-15.1284993,11.5801323,10.5441751,0,0h0ZM525.4783096,182.8861239c-5.7299967-6.0158772.8857061-9.0211685,5.798225-12.440214,1.0096503,4.8691912-.097534,9.2124724-5.798225,12.440214ZM519.6934655,195.3178999c-4.0509482-15.1302366,11.5855509,10.5409075,0,0h0ZM444.5377289,174.2903326c20.9307365,4.9935491,45.6976852-5.8236012,67.8104317-5.6721506-15.2089917,16.7767738-49.2417711,12.9487722-72.8890025,26.5822263-6.1862928-42.5575298,52.3271826-31.6555646,79.9447457-44.2463193-16.3830186,17.8538665-50.3285428,9.8209636-74.8661749,23.3362436ZM507.2685558,189.5291677c-26.9553206,15.6740774-71.9751282,13.7988234-102.8439891,35.9177123,6.8446471,2.220966,14.9189129-.6502058,23.449661-5.3748953,4.7860929,18.2998011-13.5858866,15.7063612-28.5294726,26.2860051-5.2449741-19.3974305-26.2554999-11.5661723-24.307902-25.2854133,42.4784023-3.9332911,90.6932541-31.4808059,132.2317027-31.5434088ZM504.1705286,213.6908101c-23.7769664-.8880017-53.9329152,24.4399121-75.5902344,14.8595777,18.6046258-21.1112033,55.4874611-24.9803818,75.5902344-14.8595777ZM274.7321597,246.5367401c4.5479661-8.840619,31.3612875-19.5826334,51.9800849-31.6615209,4.1147713,4.6894482.3390112,7.4607697,2.692525,11.7266401,4.9903641-18.5439669,30.9872211-22.6069724,48.7339161-29.684245-5.1384851,27.6425877,8.681661-8.821592,19.6346267,10.3060069-6.5010859,7.4317536-15.2266951,2.5247359-23.4489578,5.3760742-46.4184149,16.093643-93.6223134,47.174965-142.5346488,51.1851706,14.0795541-8.5759785,28.1577846-17.1511297,42.2375455-25.7272323.9816683,3.010379-1.2863895,5.2250992.7049084,8.4791063ZM409.4985875,204.541437c-5.4462879-13.1948821-21.4890751-12.7379656-19.0807347-24.0190434,14.5544635-6.7088523,28.3282002-10.2506012,41.6782556-12.0204416-10.5194401,23.8515853,5.9023564,28.2582347-22.597521,36.039485ZM351.848689,168.3815856c3.4051062-23.1704193,43.3202636-24.7089577,49.4405617-21.2061935-17.9100581,12.9674476-32.5398644,12.398396-49.4405617,21.2061935ZM388.9998462,163.569434c2.4315864,16.5788518-28.3266077,13.348918-40.9610625,20.5010576,4.9428794-15.8982856,27.7209292-8.2587242,40.9610625-20.5010576ZM385.1956491,179.2524871c-4.5861235,6.962056-35.9839138,26.975754-46.1940206,19.2286901,7.3114286-12.8714441,31.7526436-13.403393,46.1940206-19.2286901ZM300.4266531,186.3460154c15.1625204-9.235615,30.3252476-18.4713542,45.4877679-27.7069692,4.0663145,17.3703536-38.9101811,43.3565183-45.4877679,27.7069692ZM335.0448638,191.9851997c5.4059589,19.8874374-35.0468142,33.1731734-47.4641131,24.4509973,7.8764266-15.1741434,32.1680109-15.0895974,47.4641131-24.4509973ZM287.4312027,194.2616748c.4673813,7.4917713-5.7841823,13.3558049-15.5338154,18.3702423.1271499-3.6575033.1775714-7.3407136-2.687003-11.7297217-6.9962632,5.6832772-9.0669367,12.5640962-20.7640023,17.1054649-2.8482153-27.0374469,28.4770657-14.3816902,38.9848207-23.7459856ZM280.3713646,211.9190257c8.1854496,22.1737363-21.2451988,27.205298-39.5431592,37.4543274-4.8595329-22.5427357,25.8419112-19.42078,39.5431592-37.4543274ZM215.2476257,229.3208152c-1.0354815-9.4819731,19.6715639-13.6765337,27.2604969-21.0622709-.8566692,16.62553-11.4056839,18.691426-27.2604969,21.0622709ZM227.2747474,270.9952861c-8.031269,16.988511-24.967642,21.5420404-41.5289765,34.1945915-1.6785729-18.2438163,25.4059037-35.0307447,41.5289765-34.1945915ZM206.6560327,310.2683243c16.5876621-42.2743586,149.8141452-95.9021389,180.9590835-61.2236417-35.3570161,15.4637465-85.8778348,35.7429536-113.1456736,55.5589778,26.8065172-11.588012,53.8393107-24.1303513,73.0392329-4.4065666,5.2448293-5.5738514-6.8463016-21.1255149-13.6976288-18.419547-.4765018.3025704-.9546996.6035276-1.427789.9093244.4407228-.412141.9204303-.7089413,1.427789-.9093244,50.2536137-31.9096783,119.3143044-45.9714049,173.0407148-56.3629919-3.0831159,8.4758386,5.360956,19.7519529-6.3508348,26.1431993-13.3816981-28.4867239-41.828362,5.0612603-62.5879384,6.9395131,15.7157092,3.6772127,35.633838-9.9509262,52.135341-9.4902043-51.7048141,26.6813114-126.4442941,49.5244666-190.557783,89.3560501,68.55509-31.5276909,151.5284557-61.6670945,206.9446484-77.0628195,8.836855-2.8993814,2.3458616,11.9745286-4.5094158,7.2065113,3.1240445,6.0795762,8.1365999,4.4310122,11.1540313,11.0210493-13.2914647,4.5714603-56.0231121,16.8247135-89.1290706,36.4742102-3.8946994-6.4822244,6.3474224-9.5307608-1.4179239-16.9532697-8.8332977-5.4858309-2.7887353,15.6719058-5.0798116,20.9110891-12.7190421,3.6679681-5.2920452-5.059399-13.1476869-14.2667631-9.1717712,4.2266582-4.2519724,11.8865495-1.8291549,18.9294908-19.2053407,2.8362201-52.3617828,37.45805-87.7241346,53.433519,33.2024997-9.5670775,97.243169-69.9421571,96.4930302-9.7746991-14.4280995,10.3380426-18.2162271-9.8206121-15.1195235-17.5157446-8.6947937-9.7832406-24.3772471,9.1934248-35.1792999,8.0616295,10.4833302,10.0263103,25.7803837.2375271,34.0585485,19.3462025-28.6197887,17.2860765-43.9905305,22.4169301-64.9809538,39.580448,11.1630691,3.4210309,27.6967112-15.2578414,40.9680321-20.5052973,2.2721114,12.5541278-2.2284734,23.4503435,10.0416146,38.4330382-8.8697386,6.1451573-9.9138236,14.1934472-18.7853821,20.3508065,8.3851709,7.02621,7.3929758-10.729771,19.498377-11.8766431,11.9760797-3.5623477-3.1619537,7.7981058-7.7726261,9.1831047,10.6572823,5.5070501,21.1895035,11.5338058,30.8056169,21.3275732-.3081337,14.7863238-51.9886677,21.9158172-50.2986166-9.4542392-10.1912246,19.6741904,21.4224393,49.4973531,26.5820402,72.8891266-3.6643695-.1232204-7.3367221-.1709947-11.7256681,2.6932695,3.5088446,12.1443031,11.1915476,7.1122037,17.664031,7.0560327,4.1649033,16.7034372,5.2525642,32.6513377,7.4991546,48.8808995-15.1660983-9.737307-27.7395632-30.127036-40.1357877-51.2672762-7.6249395,16.5985199,2.1870897,37.4362104,2.9854371,56.0807721-11.4904987-2.0819036-17.6112518-26.2650548-26.9976557-37.0044426,6.9479305,28.9633085,15.299101,34.8766054,30.3961231,57.2092997-13.1738904,8.6311567-23.1042385,3.948947-33.9119374,2.8391155-12.7194971-30.7757114.2833573-55.2972327-12.3144085-86.0375994-8.8273208,12.6167307,2.6651427,30.1742312.2950423,44.3602537-32.0656995,6.6442226-63.2632102,9.7435734-93.2469234,7.7977335,4.9206675-11.7237861,16.2220752-21.8962112,29.8043839-31.5112698-5.8186997-6.4145752-16.810071,8.4352408-24.7183471,10.5982366-11.5024733-17.6347046-4.9899091-3.0608832-22.1818021.1523813,7.4089626-20.3439816,32.5657162-36.3835011,51.8331842-53.8469215-26.0264936,4.8066296-45.003283,35.1695796-62.2879325,51.308329-4.1289795,1.7894464-6.3499455-4.2518483-9.1907362-7.7700616-7.3567625,18.1388576-17.7185888,13.8027529-34.4635544,16.5433417,2.681936-22.7484132,33.0118783-49.3960138,57.7674522-44.1043408,7.0087962-8.2648459-11.6299954-3.6636457-15.6782757-3.8076717,2.3111994-10.5050251,10.3978328-19.6175645,23.2974037-27.5565113-21.696159.0567087-30.214767,35.2130314-53.9561199,28.4143387-8.5608396-22.3697763,7.7050804-24.2302636,26.5488257-29.5372616-6.8276676-2.2664653-15.4000681,2.6303564-22.1811816.153829-2.1914949-8.1804447,18.1445657-15.2301489,22.7434083-13.8531951-17.7567048-11.2420104,17.5509238-24.8363144,25.8438346-38.016554-31.729046,17.9400463-45.3674636,35.092603-75.4365087,37.0405525,9.3026024-32.335924,33.1610954-44.0045939,64.1264355-70.2337869-21.9285157-2.6281641-35.8789759,32.610988-57.2123399,30.3903116-4.1864534-25.0083432,29.6295218-40.7841529,47.8744548-60.3435403-22.5347733,9.2142304-44.4631856,15.9101567-65.1225808,17.4010863,14.531445-21.3841992,39.2783533-40.2810339,61.5811214-59.7844572-26.3772726,7.8747307-6.1274539-42.6285087,16.0946151-32.078005ZM329.263184,694.3747872c-10.6588334-12.7368282-5.4806399-21.6275791-6.0880143-31.9239899,7.5231452-.5769105,14.2644674,2.0687088,22.1855041-.1467146,4.6141676,7.5752832,9.2324508,15.1573293,13.8497826,22.7378036-12.3866489,12.9919552-18.1776354-1.1434803-29.9472724,9.3329008ZM347.77981,732.0961955c6.2099731,7.9616344-1.6771872,12.5113584-7.0597554,17.6570406-6.2100765-7.9617999,1.6800206-12.5040785,7.0597554-17.6570406ZM321.0520479,637.0209858c7.9791516-3.0581533,15.9414065,16.3971234,1.4168485,16.9515325-3.893686-6.4810042,6.3484771-9.5290442-1.4168485-16.9515325ZM334.7522206,637.5845568c.3656903-17.5965266,11.2977678,7.8804802,0,0h0ZM338.7089852,644.0805551c10.822755-2.9114387,5.6321112-9.7088078,14.2668872-13.1475008,10.9751156,2.4122286,6.9179216,13.4117277,8.6248695,21.4790652-9.5868283,5.2695851-17.9072661,5.3267901-22.8917567-8.3315645ZM313.3458715,851.0591832c-6.1937588,2.7017489-10.8123522-1.071881-14.4133743-9.0376517,7.776659-9.2225443,10.1659311,3.7314396,14.4133743,9.0376517ZM307.9685771,827.6090879c-4.0561599-15.1270723,11.5812905,10.5455815,0,0h0ZM316.2355946,599.8631692c-11.4343691-8.1780663-17.6227714,5.3610594-27.9671632,12.5863495-3.9669813-5.5772432-.2024306-9.2751788-4.6735855-14.9794684,11.2521651-8.3218855,20.2497153-7.3863991,29.9512846-9.3258691-.1271499,3.6575033-.1716358,7.3352537,2.6894641,11.718988ZM316.381213,622.0490869c-11.5115318,9.4132692-18.4216151-.1336439-28.6750083,4.0997772,1.9736566-7.826274,11.068534-13.9186934,18.7789295-20.3466081,3.2972521,5.4132182,6.5946077,10.8266431,9.8960789,16.2468309ZM282.6265792,647.0598498c13.9229331-12.2518055-2.7103317,30.2767081,1.9805435,3.2515667.0564191-.3519371-2.1812782-3.075381-1.9805435-3.2515667ZM299.7243506,667.8264166c6.4243989,9.8617889-3.9099831,15.6591453-13.5564362,21.6166179-12.4239377-11.5725836,2.1045291-32.4742419,13.5564362-21.6166179ZM300.5802546,698.4794039c2.9351604,11.171652-2.6388978,6.6182466-11.0139969,11.1682602-3.6804597-8.0805531,4.1285038-12.755607,11.0139969-11.1682602ZM298.6037027,695.2343933c-1.8324019-3.2153947,2.4441194-4.942383,4.5205838-7.2037814,1.8379239,3.2123339-2.4453396,4.9434171-4.5205838,7.2037814ZM286.4338372,631.3818016c9.9959912-3.1691302,18.0225448,1.781877,27.4088246,1.1219923,2.3726235,7.0365094-2.0279455,12.4265022,3.3943518,20.1980943-15.0247816,14.787937-31.5559625-7.0683589-30.8031764-21.3200865ZM311.7515757,709.5010736c-1.3211551-2.1689934-2.6410073-4.3358359-3.9578194-6.4977148,2.1618583-1.3168327,4.3291144-2.6368917,6.4977355-3.9578194,1.316812,2.1618376,2.6366642,4.3286801,3.9578194,6.4977148-2.1686211,1.3209276-4.3358773,2.6409867-6.4977355,3.9578194ZM311.1880047,723.2012462c-1.8377998-3.2121271,2.439404-4.9379158,4.5212869-7.2026232,1.8325053,3.2156016-2.4448226,4.9412249-4.5212869,7.2026232ZM318.6871593,772.0821458c-6.1915665,2.7022866-10.804121-1.0765964-14.41203-9.0384789,6.1957028-2.6954617,10.8081745,1.0837108,14.41203,9.0384789ZM277.25096,623.6090307c-10.2172212,7.8638936-14.1551657-10.1005569-24.1619526-3.0980893-1.6809719-5.0206005,6.493744-7.6539143,11.0128387-11.167557-21.148885,1.653693-27.8574892,14.6222575-46.8982879,10.7510729-2.2120316-7.9154526.4344357-14.6554099-.1496307-22.1742326,20.1135483-3.0273999,38.1529899,2.4873851,59.3410457-4.9638918,6.2459175,11.6646783-3.9807138,19.3359651.8559868,30.6526978ZM245.3203728,629.7010778c9.2092668.0640506,19.6346267-4.8555828,26.139001,6.3438651-13.763396,4.9574805-13.1107291,13.4237643-24.0101711,19.0827408-3.8497378-9.2358425,3.7258763-15.7083259-2.1288299-25.4266059ZM274.4410468,692.1351458c-10.7276614,2.3847015-19.9299999-1.5346503-30.6523876.8560902-6.1748559-17.5171096,23.4264356-24.4564779,30.6523876-.8560902ZM248.8684709,672.0801262c-1.2114191-12.2387762,14.6962559-1.0582725,21.4682695-8.627827,3.9612732,5.5804695.1968259,9.2785705,4.6638859,14.9761387-9.0494401-.7219913-15.6235111-11.6338629-26.1321554-6.3483117ZM263.1279954,658.9365963c-1.662917-7.7879511,3.3971024-13.9416085,10.3119219-19.6400866,6.1624263,9.5961764.4829338,22.3072974-10.3119219,19.6400866ZM207.6331924,750.6453122c-12.2556109,2.0181425-5.2529158-13.8008088-6.644326-18.2274779,12.2549284-2.0192593,5.259658,13.7966311,6.644326,18.2274779ZM171.161526,661.505177c10.0364029-3.3402697,16.349618,8.6454063,27.4081215,1.1208341,4.1503435,15.0437879-22.9512988,17.8139926-27.4081215-1.1208341ZM182.6177968,716.8826332c16.212541-6.9022451,9.3708928,21.2621576,0,0h0ZM160.1372297,672.6691148c-8.8914335,3.6137826-7.861143-12.4736147.5687414-13.7038539,6.1739666,6.116989-3.3880853,8.4075483-.5687414,13.7038539ZM101.2214578,641.7493567c2.1618583-1.316812,4.3291144-2.6368917,6.4977148-3.9578194,5.7435224,6.0076459-.8721804,9.012958-5.7914622,12.4360984-.9806342-3.0086418,1.2852727-5.223879-.7062527-8.4782791ZM104.3208293,617.586887c18.0092466,2.5340633-3.2010831,16.9567029,0,0h0ZM99.7701332,522.3697815c8.3649858-4.4325012,12.4618055-9.8918391,12.2898595-16.3924287,16.2607289-4.0417449,6.4819969,10.6691535,11.8726102,19.4918002-9.0298341,2.981549-18.4106126,7.3981875-24.1624697-3.0993715ZM109.4872964,414.0041411c7.4788867-3.1783335,3.462456,13.3601066-3.8150343,15.680923-12.0826722-8.4714542,9.8464019-8.6793239,3.8150343-15.680923ZM136.4791406,451.0116239c4.5410791,15.6392704-20.4818652,38.5014112-33.0504493,33.4887111-8.2523957-16.4946574,16.9565581-31.06275,33.0504493-33.4887111ZM173.9644902,592.9832809c7.9754703-2.9001052,2.5797074,18.1013621-5.7913794,12.4357882-2.1167105-5.1264691,9.0080151-7.0363853,5.7913794-12.4357882ZM172.8431184,620.3896237c-8.6659017,9.1036257-13.1589583,1.0108705-20.2046503,3.3983433-4.9202331-13.5224564,15.1565641-14.5863337,20.2046503-3.3983433ZM152.4956002,601.6096395c-2.641028-4.3358773-5.2780438-8.6651778-7.9148322-12.9941268,6.7615902,2.5330913,15.8271412-4.3937027,20.9087314,5.0794187-4.3356704,2.6409039-8.6647849,5.2778163-12.9938993,7.9147081ZM142.4499734,563.1882864c-12.2428918,1.2046562-1.0559562-14.7071964-8.6253866-21.4790239,5.9510407-5.5104419,9.9572134-3.0101308,14.9758905-4.6642789,2.2708705,9.7823926-5.1208644,17.2114163-6.3505039,26.1433027ZM123.370583,539.1684156c8.1139123-1.3622079,2.3320464,16.9216064,5.3757433,23.4510053-14.807419-.2511562-2.8631474-17.0346928-5.3757433-23.4510053ZM127.1787717,523.4918979c2.5594602-6.7612592,2.2274393-14.2257517,10.3086542-19.6454638,6.0322569,8.849388-2.2492583,14.2202917-10.3086542,19.6454638ZM139.6106511,529.2764524c5.3594876-7.9228773,5.3331807-17.1585543,16.8092437-23.595569.9481022,9.5000281-2.1477948,26.3463744-16.8092437,23.595569ZM138.7549746,498.623796c-2.6928352-9.4788295,12.3379854.7491875,18.2242929-6.6500134,2.01837,12.2538737-13.7975204,5.2583137-18.2242929,6.6500134ZM129.2753385,446.4910402c1.1675743-7.0988848,7.4223022-12.9577273,15.5351804-18.3710695,1.5883395,8.4851867-5.6572185,20.8101013-15.5351804,18.3710695ZM117.4029351,426.9995915c.1773439-24.8216926,23.7308053-17.1737139,42.2362012-25.7264257-4.5548323,12.3973413-28.2490521,31.6697108-42.2362012,25.7264257ZM124.6066131,431.5199892c-1.0895223,14.2653774-23.0904439,8.9257441,0,0h0ZM119.8548308,599.2165206c4.9701997-1.4498561,8.5915516,2.6062211,13.7069355.559476,1.7714328,10.5834493-.5349271,20.1730076-9.6023188,28.1234533-6.9290276-10.912492-7.0607895-20.174931-4.1046167-28.6829294ZM145.0187403,655.1546317c3.8527573,7.3949198-3.9319261,11.9639604-12.2893218,16.3937317-1.2350374-5.8361342-.171884-11.1143228-1.4177998-16.9530836,4.9704065-1.4499595,8.6026163,2.6087235,13.7071216.559352ZM135.1266529,638.9143568c3.1610231-9.3472745,4.3087018-2.2254539,12.9954504-7.9156387,8.2748558,7.546598.5442958,11.2047631,6.6457324,18.2176542-6.7605354-2.5617351-14.2201056-2.2216071-19.6411827-10.3020154ZM159.2881919,642.0121772c-1.319997-2.1670493-2.6409039-4.3356704-3.9568887-6.4961844,3.246355-1.9773793,6.4977355-3.9578194,9.7425394-5.9342473,1.3159848,2.1604933,2.6369124,4.3291144,3.9568887,6.4961844-3.2448245,1.9764279-6.4961844,3.956868-9.7425394,5.9342473ZM168.3521505,730.0317678c-1.4276856-20.3176747,22.2633079-1.0912802,0,0h0ZM175.2665563,690.1883545c1.8322158,3.2155602-2.4451121,4.9411421-4.5213903,7.2024578-1.8377998-3.2120857,2.4462703-4.9418453,4.5213903-7.2024578ZM171.721002,647.7982622c5.3654232-6.9928094,5.9573278-15.1557368,18.7800876-20.347332,7.0862277,10.0279648,2.6304391,17.2465128,12.5882936,27.9733883-11.1920439.4736271-23.0196925,3.5819951-31.3683813-7.6260563ZM207.4529117,626.0336474c-1.6147498,5.1427041,6.2917684,12.6055627-3.8042799,15.6833634,1.6166111-5.143552-6.2882733-12.5997925,3.8042799-15.6833634ZM206.7481274,617.5547273c-1.0885916-3.1250993-3.1342198-2.287333-5.2303109-1.2649635-2.6953997-6.195496,1.0834626-10.8080504,9.0385823-14.4118232-.1281633,3.6562624-.1718426,7.3353571,2.6894434,11.7189673-2.1686004,1.3209276-4.3304587,2.6377397-6.4977148,3.9578194ZM192.3347531,608.5170963c-7.6795387-9.1861035,1.0957061-16.5894821,9.037631-14.4133536.5212566,5.6640434-3.2589086,10.2866284-9.037631,14.4133536ZM221.1646659,626.59757c4.2229562,1.5795085,8.904256,1.3189009,13.696057.5568495-2.2000777,10.5380948-16.0130059,18.2538468-23.2971556,27.5568835,1.4345725-9.7992067-.474868-20.4173182,9.6010986-28.113733ZM188.2275099,579.8450247c9.7115378-1.9995085,20.5190919-8.4917841,27.4085144,1.1219302-4.4139706,14.8039651-20.3025565,7.7897918-27.4085144-1.1219302ZM204.0923535,708.2620861c-.981751-3.0100688,1.2849832-5.223941-.7064388-8.4781756,2.1618583-1.31675,4.3291144-2.6368917,6.4977355-3.957778,5.7367389,6.0117409-.8789639,9.0170529-5.7912967,12.4359537ZM211.1478898,690.5980965c-1.3167913-2.1618376-2.6378224-4.3306242-3.9578194-6.4977148,6.0076666-5.7435018,9.0143023.8713531,12.4361191,5.7914829-3.0088486.9807169-5.2240858-1.2851486-8.4782997.706232ZM230.7931882,700.9068748c2.9249437,11.1670193-2.6375329,6.617378-11.0174714,11.1595326-3.67986-8.0796017,4.12596-12.7451008,11.0174714-11.1595326ZM214.2511908,666.4425137c7.5190089-.5841698,14.260145,2.0615737,22.1811816-.1538497,1.2604549,8.5563724-18.7813492,10.0072213-22.1811816.1538497ZM220.7489264,662.4846944c-.8942889-9.4420785,12.4704918-15.4260234,11.5761822-24.8681019,16.4226444,5.8649642,4.583683,24.0854931-11.5761822,24.8681019ZM168.9985716,533.6506318c-5.1809649,18.7068544-21.8801417,1.1842022,0,0h0ZM162.2937935,310.5757341c-3.9638791-7.4279896,12.9454218-9.7803038,17.5167787-15.129947,4.649078,11.8582986-9.429256,12.1337969-17.5167787,15.129947ZM159.9031978,343.2054183c-4.6940602-8.5230131,6.9500607-13.0783418,15.5340222-18.3703664,2.245184,11.4832188-3.2921438,16.7768358-15.5340222,18.3703664ZM166.2473939,317.0665207c-.5739531,9.0854053-18.8315432,13.8796053-22.0296069,22.3342868-11.1067327-14.3221482,12.9993592-20.0783897,22.0296069-22.3342868ZM136.8622447,312.6999107c-.069738-6.4830103-1.407914-13.2624693,7.0562395-17.6662853.076687,6.4787499,1.4147389,13.2580227-7.0562395,17.6662853ZM95.7801748,413.4447892c1.839082,3.21161-2.4385768,4.9392808-4.5204597,7.2039882-1.831161-3.2164288,2.4453396-4.9433964,4.5204597-7.2039882ZM105.1136133,443.3933232c-2.8171517,12.6176613-8.9967437-1.1716072-18.2215216,6.6393625-5.6014819-9.8360611,14.0795128-20.4930332,18.2215216-6.6393625ZM96.076396,457.8043398c7.7009027,7.4083215-16.7320811,7.003481-9.0374449,14.4132502-4.0629641,1.6325772-3.7890169-2.1590042-1.9763245-3.2446384-8.5507264-7.8497475-9.2781983,8.3054644-16.2402749,9.8920873-3.4051889-20.8982873,9.7818135-19.0813138,27.2540443-21.0606991ZM97.3796616,554.9996931c-10.0349552,6.7917024-9.8065279,16.0787317-22.0382931,22.3321773,1.8366623-17.0851971,8.8980309-32.8967651,9.4543219-50.2989268,12.916447.6604431,5.8572914,19.6590516,12.5839712,27.9667496ZM83.9356915,496.3736897c3.9702696,7.4232949-12.9387624,9.7759814-17.5104915,15.1250455-4.2341656-13.5873343,8.3869495-7.8181461,17.5104915-15.1250455ZM138.4049608,739.3643791c-17.3972603,6.9350459-14.5096673-10.2836296-17.0987021-20.7681179,8.3680466-10.5706475,21.3237472,17.1255673,17.0987021,20.7681179ZM144.4926442,771.2878106c-6.4545525,3.4344119-2.8132843-13.2020793-11.8724034-19.4914487,18.7035247-10.0433932,12.6798713,11.2070173,11.8724034,19.4914487ZM144.1964437,726.9283014c-5.3178144-9.5926605-14.7335033-20.1878362-12.5843848-27.9665221,13.2139711.1060961,22.9970463,18.3705525,12.5843848,27.9665221ZM156.2125835,768.5999183c14.7459328-4.6241774,11.8542657,14.4919019,8.6319219,21.4750117-12.2015909,1.2147074-8.8496982-16.59488-8.6319219-21.4750117ZM165.812255,740.4873021c5.9577828-5.5145575,9.9630042-3.0157769,14.971899-4.6708349,4.532579,5.104526-14.6615523,16.8867787-14.971899,4.6708349ZM174.0234738,797.8408346c5.4630399,13.609629,8.7788433,10.738209,24.3095772,25.2846688-11.9874132,3.7660191-21.5725043-2.3571537-28.8259213-18.073897,4.1024451-1.7748867,5.3448244-4.2448373,4.5163441-7.2107717ZM195.4702759,686.7884808c.366559-17.5946859,11.2908188,7.8846992,0,0h0ZM212.7184019,729.7309347c10.9481883-10.1741003,21.9788545,7.9354516,7.9156594,12.9954711-5.1080005-9.0411262-9.3949867-3.2393439-7.9156594-12.9954711ZM234.8971637,729.5883564c10.9505046-10.1850615,21.9861137,7.9325976,7.9156594,12.9954297-2.641028-4.3358359-5.2779198-8.664971-7.9156594-12.9954297ZM247.7785143,801.9160422c4.0740494,9.8419967-10.116916,6.3889301-10.4608494-2.5363796,4.0164101-1.3495922,6.1410003,5.1121368,10.4608494,2.5363796ZM252.0252749,852.7761616c.988307,3.0060979-1.2851693,5.2240651.7130155,8.4742048-2.1686211,1.3208863-4.3304794,2.637719-6.4977355,3.957778-1.9764486-3.2448038-3.9578194-6.4977148-5.934268-9.7425187,4.6885589-4.1158261,7.4605009-.3385976,11.718988-2.6894641ZM242.2492315,756.2839587c7.4284239-3.9622866,9.7766845,12.9399205,15.1263691,17.5118151-17.3835484,14.8737239-23.5053356-9.308538-15.1263691-17.5118151ZM256.3673153,720.960943c1.8380273,3.2124993-2.4394247,4.9379572-4.5211629,7.2028714-1.8282242-3.2090248,2.4448019-4.9412249,4.5211629-7.2028714ZM239.2673723,700.1938592c9.950161.8172089,20.1689127.5281642,30.6535251-.8546425,3.2589293,18.0869264-33.5999362,19.3599143-30.6535251.8546425ZM266.7082326,803.7429635c11.3264323,1.157461,15.5764193,23.9059156,4.1046787,28.6825985-13.7796516-4.1578922-4.9147525-19.5980411-4.1046787-28.6825985ZM284.8087053,877.3477321c-8.5368904,4.7749869-12.3620173-9.850807-20.9099723-5.0783846-.0094514-13.687226,17.7265305-5.65089,20.9099723,5.0783846ZM274.1783297,750.2021075c8.8863665-9.9875945,11.2079894,7.0202124,16.3884579,12.2832414-6.5008171.1715738-11.9599275-3.9248531-16.3884579-12.2832414ZM281.9470677,741.0121573c-2.4914801-7.0640571,11.0295287-10.235028,1.827004-18.9295322,7.9639301-6.1910081,13.4107143-1.9958478,17.6648376,7.05686-2.2013186,10.0581598-11.2858345,8.2514236-19.4918416,11.8726722ZM291.1302551,748.7850109c-1.8192692-13.6539288,15.8027577,7.7476222,0,0h0ZM296.6821635,896.840918c-4.0517134-15.1319118,11.5898527,10.5474842,0,0h0ZM297.0990405,860.9552414c8.59302-1.1846779,15.7492546,3.5560191,21.6216229,13.5533753-9.868345,6.4283904-15.6589799-3.9101278-21.6216229-13.5533753ZM303.2998103,812.6374992c-5.3776873-11.7143346,19.8679761-24.0367882,23.4489578-5.3760328-6.8962267-1.9796335-16.5458855,7.3517369-23.4489578,5.3760328ZM335.2600135,908.9838561c-5.1307502,2.1100511-7.0365714-9.0079117-12.4346714-5.792641-1.7842554-12.5966076,18.2961198-3.4050855,12.4346714,5.792641ZM342.8529174,775.1869358c2.637719,4.3304587,5.2745073,8.659387,7.9155147,12.9952642-10.9536689,10.1798498-21.989402-7.9380161-7.9155147-12.9952642ZM348.6356933,762.7487072c-1.316812-2.1618376-2.637719-4.3304587-3.9578194-6.4977148,6.0820166-3.1347782,4.4337215-8.1477679,11.01652-11.161063.8116043,5.1257452,4.1010388,24.5542808-7.0587006,17.6587779ZM354.2775455,728.1383762c-3.4033276-4.9778725-5.9824765-13.3471393-11.1604633-11.0189811-3.7727199-8.2324794,10.9382405-1.5610399,14.9713819-4.668684-1.6218228,5.1467577,6.2875494,12.5986344-3.8109186,15.6876651ZM353.4189942,697.4780055c14.9034845-7.2202439,8.0685991,20.9400225,0,0h0ZM357.7589664,565.662456c19.7409296,16.0593945,24.4205955,29.3944144,40.1396759,51.2736461-3.7476332,12.0711733-19.3852698,4.0428824-29.9471897,9.3326113-6.780369-21.0247547-2.4005642-39.3342967-10.1924862-60.6062574ZM393.5318255,646.3213547c-8.523675,4.6928814-13.0792518-6.9511155-18.3709868-15.5354699,7.035496-2.3738437,12.4210216,2.0315441,20.1978875-3.3942484,3.0654332,7.2049809-1.2324935,12.6141455-1.8269006,18.9297183ZM365.4115365,636.7242683c7.4074321-7.7019574,7.0061696,16.7399607,14.4133743,9.037631-1.7430992,13.8752415-15.7979803,1.3493647-14.4133743-9.037631ZM377.2850152,656.2174335c1.0145105,4.8646206-.0913916,9.2074055-5.792186,12.4349403-1.014345-4.864724.0954865-9.2006219,5.792186-12.4349403ZM381.2421108,662.7139902c10.5617751-7.8920618,22.2195251,9.7297582,20.3516338,18.7867678-10.5839043,9.3733952-16.7429388.5567874-26.702572,7.3562868-9.140749-11.450935,5.2986426-17.1727005,6.3509382-26.1430546ZM397.9309882,719.3632555c-1.9804401-3.2513806-3.9568887-6.4961431-5.9382595-9.7490954,6.571796-10.5450851,18.3240191,8.7491033,5.9382595,9.7490954ZM390.5757561,692.6624415c-1.3778638,15.4564045-21.0265746.428438,0,0h0ZM384.2246111,718.8055994c-4.0515893-15.1317463,11.5858611,10.5409488,0,0h0ZM374.0978094,863.0522631c-4.0562426-15.1267414,11.5803805,10.5445474,0,0h0ZM374.8040827,871.5305629c7.5118944-3.1701436,10.0887477,14.9699342,1.4172,16.9521323-7.7644363-7.4214749,2.4764653-10.4711281-1.4172-16.9521323ZM375.6627581,902.1911403c-1.8200964-13.6552524,15.8019511,7.7462986,0,0h0ZM402.5694772,631.9080011c7.9660396-6.2031482,12.5049058,1.6813442,17.6574543,7.0600036-4.3291144,2.6369124-8.6595731,5.2746314-12.9954504,7.9156387-3.9566405-5.5724037-.1948404-9.277888-4.6620039-14.9756423ZM441.7978433,937.6291452c-12.3282237,1.3476068-22.2916209-6.9929128-34.6198445-5.645306,2.6790199-6.5796963,27.2606003-6.3637401,34.6198445,5.645306ZM447.6341222,640.0907621c2.1075486-8.3531146,9.5227777-7.5318521,16.2470171-9.8961823,5.0392138,13.4499678,14.0481389,10.5647532,19.076495,24.0120945-5.3484644,5.1621861-.2192446,12.8671837-12.2824348,16.3898229-6.3006201-4.4360998-12.2000604-10.5656012-19.6426098-10.3008779-9.8551502-7.3284081,5.6819122-22.1834979-3.3984674-20.2048571ZM468.7308899,769.7789708c-3.6844926-8.0876261,4.1219478-12.7516361,11.0140796-11.1685911,1.6797311,5.0216346-6.4935165,7.6543073-11.0140796,11.1685911ZM480.0443756,802.9777892c1.8322158,3.2155188-2.4440987,4.942383-4.5206872,7.2035746-1.8376964-3.2119203,2.438825-4.9388672,4.5206872-7.2035746ZM469.4373287,778.2571464c-4.0585176-15.1275273,11.5789328,10.5451679,0,0h0ZM457.6799352,678.5119912c-.7856696,6.8945515,1.3275664,10.0653156,9.1828772,7.7727709,3.7923053,11.0308523-8.8325739,1.1209375-12.9939199,7.9147288,1.6218228-5.1467163-6.2875701-12.5986757,3.8110427-15.6874997ZM478.031238,697.2986555c1.0852412,9.2797907-20.1917244,15.8144841-23.450695,5.375826,8.2478871-3.5555228,15.7974012-4.2658911,23.450695-5.375826ZM476.1970782,716.2312486c-4.0509482-15.1302572,11.5864816,10.5423965,0,0h0ZM479.508249,919.1096858c-8.6691486,9.0948154-13.1596408,1.0097537-20.1978875,3.3942484-2.0715421-8.6967378,17.5618437-12.8532237,20.1978875-3.3942484ZM477.087996,849.3187933c-1.8381307-3.2121684,2.4420513-4.9487943,4.5171713-7.2094068,1.8321951,3.2155602-2.4408931,4.9480911-4.5171713,7.2094068ZM477.0556501,746.8916192c-2.641028-4.3358773-5.2780438-8.6651778-7.9148322-12.9941061,11.4538718-10.059318,18.9681859,7.2040709,7.9148322,12.9941061ZM483.1433335,778.8150507c-4.0575249-15.1262864,11.5799255,10.5464087,0,0h0ZM486.7727926,638.5259582c-1.3209276-2.1686211-2.641028-4.3358773-3.9578194-6.4977355,23.1594167-2.5329879,24.5476213.8157406,9.1856278,7.7620993-2.4026944,2.2893184-3.8345783.6057819-5.2278085-1.2643637ZM502.7821792,789.1280066c1.4348207,5.5975731-3.0493223,1.4044396-6.4977148,3.9578194-1.685191-4.5825662,4.4680734-7.2170589,6.4977148-3.9578194ZM504.199979,806.0810902c1.3167913,2.1618376,2.6367883,4.3289283,3.9578194,6.4977562-2.1672561,1.320059-4.3291144,2.6368917-6.4977355,3.957778-1.3210311-2.1687866-2.6410073-4.3358773-3.9578194-6.4977148,2.1686211-1.3208863,4.3304794-2.637719,6.4977355-3.9578194ZM513.6823244,858.2026987c-2.5397714,18.012473-16.9527734-3.1942169,0,0h0ZM510.9942253,846.4828628c-4.057711-15.1261209,11.5789121,10.5452092,0,0h0ZM506.5929738,773.440176c8.849388-6.0322983,14.2138598,2.2534153,19.6344406,10.3060897-9.2354909,7.674451-14.6102208-.6163915-19.6344406-10.3060897ZM524.1055334,758.3154201c7.2263863,5.2305591-7.3121938,14.7746595-9.7506465,5.9391902-1.2628333-4.60544,7.0473465-7.8911518,9.7506465-5.9391902ZM524.1376932,860.7427182c1.8324019,3.2154361-2.440707,4.947967-4.5171093,7.2090758-1.8377998-3.2121271,2.4354332-4.9444926,4.5171093-7.2090758ZM523.8681098,918.8135681c6.1167202-14.4920674-1.2067451,15.6787307,0,0h0ZM505.1760012,756.4883747c-1.2350374-5.8360722-.1829486-11.1168046-1.41811-16.953125,10.2659469-4.2857867,18.976624-2.1699034,26.1323622,6.3481876-9.2810316,7.8375867-15.031379,1.1362832-24.7142522,10.6049374ZM517.3114733,717.9135235c4.4265657.7650502,9.4668549-.9725684,14.9760146-4.6640927-.1288044,3.6582685-.1777575,7.340817,2.687975,11.7196291-7.9685627,6.2141714-12.510738-1.6757395-17.6639896-7.0555364ZM528.5923857,648.6847749c-1.6807031-4.5751829,4.4668946-7.2155078,6.4977148-3.9578194,1.4368682,5.604005-3.0507493,1.4055564-6.4977148,3.9578194ZM530.8358738,593.8698142c-3.9569921-6.4963912-7.9146874-12.9939199-11.8725068-19.4916555,4.1262289-1.7969952,6.3513105,4.2510624,9.1870549,7.7609825,3.1257197-1.0871026,2.2867332-3.1317381,1.2684794-5.2210663,3.2839539-4.2034743,11.2475738,15.2509545,1.4169725,16.9517393ZM535.0631732,542.2964931c-7.1388828-4.9683797-10.2425768-15.0301588-22.3333561-22.0280558,13.3071-15.2285357,34.2049115-28.6014442,49.2921099-43.3906635,13.2578987,27.2112129,5.9151169,49.4189909-21.7317312,66.6930928,1.1973143-4.3259915-3.4927751-10.0788827.5592279-13.7073077-5.6595349-7.1461007-6.5941113,8.9647287-5.7862504,12.4329342ZM538.6381159,687.1063141c-4.0575042-15.126245,11.5799255,10.5464087,0,0h0ZM540.3188603,645.992891c9.2645071-7.7458022,13.9063052,3.5188338,22.1784103-.1431987,6.0585431,11.923983-17.9579151,2.8916051-11.01743,11.160029-5.0207866,1.6810753-7.6433461-6.4912002-11.1609803-11.0168302ZM552.2183358,767.9149882c4.1291036-1.7892396,6.3540818,4.2586112,9.1899296,7.7687173-3.2515667,1.9805435-6.4977148,3.9578607-9.7492815,5.9384043-1.4473123-4.9630232,2.6114948-8.5950675.559352-13.7071216ZM563.9144914,662.8018246c-1.8310576-3.2162427,2.4461462-4.9420521,4.5212869-7.2026439,1.8392475,3.2114859-2.4380804,4.9371093-4.5212869,7.2026439ZM549.2070675,609.40516c8.2722499-3.6618257,12.9207074,7.5990049,22.1811816-.153829,4.6722412,8.5180082,9.574316,17.0869343.1467766,22.1851938-6.78829-10.0293711-16.0687011-9.805225-22.3279583-22.0313648ZM571.4203881,711.6785878c-4.0563461-15.1269482,11.5851993,10.5524891,0,0h0ZM574.8200965,731.8824315c-1.8259079-13.649627,15.8015375,7.7486563,0,0h0ZM600.1632318,912.4331173c2.6875821,6.1370294-17.4921263,12.5383685-20.2048364,3.3984674,8.5275838-8.5106456,11.6770666,5.1123023,20.2048364-3.3984674ZM590.8304344,882.4860517c-3.3849417-6.3585697,9.3672735-8.796009,3.8033492-15.6849352,10.4279865-1.9385187,8.3220717,22.0998413-3.8033492,15.6849352ZM600.6559273,693.8709858c3.6692917.1313689,7.340817.1777782,11.7306523-2.6854519.0717648,6.4706634,1.4069627,13.2608975-7.0598174,17.6573715-5.5104419-5.9510613-3.0114751-9.9564068-4.6708349-14.9719196ZM587.9287574,643.7258466c3.7885206-12.2571414,18.8342525-1.748952,29.9541387-9.336851,4.3737658,14.1004424-24.1818896,22.8750047-29.9541387,9.336851ZM626.9418083,722.400293c9.8197227,1.6761945-4.8960772,24.2324352-7.761272,9.1869721-.2926226-1.5344435,3.3748285-9.9317958,7.761272-9.1869721ZM653.560372,897.7230255c-8.7133864-2.1047153-22.4667725,16.5135189-28.682888,4.105113,10.6603845-5.8864523,22.9174225-18.3449488,28.682888-4.105113ZM649.6865609,708.54625c-2.6369124-4.3291351-5.27368-8.658022-7.9146874-12.9938993,5.9494895-5.5095112,9.9614738-3.0148255,14.9742153-4.663555.0767904,6.4789774,1.4071902,13.2613111-7.0595279,17.6574543ZM641.065414,687.0741751c-3.1775269-7.5079236,14.966894-10.0781588,16.9532697-1.4178825-5.839071,1.2458124-11.1171355.1828245-16.9532697,1.4178825ZM660.1123344,608.6666856c4.2749909,18.4292053-13.4666578,14.1191592,0,0h0ZM658.9024251,818.747684c-4.0504311-15.1324495,11.5869986,10.5402457,0,0h0ZM659.1658868,760.6789437c-1.8323192-3.2157257,2.4448226-4.9412249,4.5266848-7.2059323,1.832526,3.2156429-2.4448019,4.9412249-4.5266848,7.2059323ZM662.3853144,656.2711227c-1.832526-3.2156016,2.4448019-4.9412249,4.519922-7.2018373,1.8392682,3.2115066-2.4380597,4.9371299-4.519922,7.2018373ZM665.8970544,596.2347028c.3733218-17.5987808,11.300415,7.869581,0,0h0ZM752.2297789,138.3101828c1.8323812,3.2153947-2.4407483,4.947967-4.5239549,7.2134603-1.8311403-3.2163875,2.442072-4.9487943,4.5239549-7.2134603ZM731.0168432,88.873716c3.251546-1.9805435,6.5042502-3.9618109,9.7557962-5.9423751,5.6879099,15.2303143,5.5445457,29.0386305,8.7735902,43.6543733-18.7892289,2.419343-4.5096846-24.0673554-18.5293865-37.7119982ZM711.3781836,78.5611324c-1.6831021-4.5760929,4.4709275-7.2089311,6.503092-3.9611077,1.4382745,5.6031984-3.0561058,1.4088447-6.503092,3.9611077ZM702.9107624,79.270053c-2.1685798,1.320907-4.3358359,2.6410073-6.5042502,3.9618109-1.320969-2.1686004-2.6376363-4.3302726-3.9577366-6.4975287,2.1684143-1.3208036,4.3357118-2.6409039,6.5042916-3.9618109,1.3201004,2.1672561,2.636809,4.3289283,3.9576953,6.4975287ZM697.8164944,100.1878222c-1.8308094-3.2163461,2.4462083-4.9420315,4.5283393-7.2066561,1.8323812,3.215705-2.4449674,4.9413076-4.5283393,7.2066561ZM696.1167229,38.8681356c-2.058306,8.7292698,9.0278486,20.6529219-6.3549297,26.1364572,3.0844395-8.4766866-5.3617212-19.753111,6.3549297-26.1364572ZM678.5947739,53.9895825c4.7275436,10.3791574,4.8728105,19.6333858,4.1114829,28.6790206-11.3266805-1.157854-15.5868635-23.8922038-4.1114829-28.6790206ZM658.5435803,79.569335c-4.0509689-15.1302572,11.5863575,10.5422311,0,0h0ZM643.7214155,106.4145887c-4.2859521-18.4320386,13.4548693-14.1233575,0,0h0ZM681.7193355,132.25863c30.9588048,6.045431,41.5028972,26.2108692,68.8226259,47.1690294-29.1214186-20.820318-136.0369753-58.8788555-119.7892758,37.3331131-36.4055476-23.8240996,18.024096-73.8072199,50.9666499-84.5021425ZM684.1829162,304.4795507c-32.2140479,11.058731-60.870567,7.4524971-92.5419323,16.2765296-12.5890381-42.3899062-29.2066057-69.9395305-3.2783286-100.4500223,28.9335065,34.7374603,76.7407671,46.1248824,95.8202609,84.1734927ZM584.5317583,133.5590416c1.8325053,3.2156016-2.4448226,4.9412249-4.5280498,7.2067388-1.8309749-3.2165322,2.4461669-4.9420521,4.5280498-7.2067388ZM583.6731864,102.8986503c1.6810753,5.0207866-6.5012927,7.6571406-11.0140796,11.1685497-3.6912348-8.0834898,4.1219478-12.7516154,11.0140796-11.1685497ZM559.7998855,144.1654888c-1.790253-4.1303445,4.2551573-6.3445683,7.7801335-9.1894746,1.7900462,4.1304686-4.2551573,6.3445683-7.7801335,9.1894746ZM563.4684534,106.2973039c1.7903357,4.1300343-4.2510417,6.3513312-7.7609618,9.1870549-1.8051023-4.121286,4.2508556-6.3511864,7.7609618-9.1870549ZM550.7627715,158.5766708c1.8445626,3.2080115-2.427719,4.941928-4.5096019,7.2066354-1.8323192-3.2157257,2.440707-4.947967,4.5096019-7.2066354ZM540.8707049,142.3364166c-1.0074788-4.8686535.0981131-9.2115211,5.7990316-12.4388697,1.0034872,4.8620974-.1022287,9.2047582-5.7990316,12.4388697ZM544.5348056,104.4635163c-4.3297762,17.0815364-25.2135451,5.5899416-36.4477379,13.3014332,3.9379651-21.238105,21.2253652-6.8113292,36.4477379-13.3014332ZM530.9746054,126.0895857c3.8054174,26.4821692-30.1297867,12.9329302-47.4520351,24.4547614-6.9504123-29.4422921,30.0197404-23.2871457,47.4520351-24.4547614ZM480.1170297,130.3435435c-3.3849831,14.5857753-6.3166896,25.8424075-25.2844619,24.3094531-1.6929465-10.3695198,13.2521906-25.8516935,25.2844619-24.3094531ZM456.5209024,113.5333277c-.1217313,17.5642634-23.7953316,10.7153146-37.7097026,18.5206175,3.3791716-13.1696714,28.7300832-20.1090811,37.7097026-18.5206175ZM442.9591097,135.1598107c6.1882782,6.1101021-3.3814259,8.4037222-.5544298,13.696967-9.4159371.7874276-16.6348159-7.4930743-26.1387942-6.3439892-9.9699532-5.5360042,17.3967225,4.4899958,26.6932239-7.3529778ZM429.4094157,156.772313c.000517,2.9168159-25.629719,14.995145-31.9247551,6.0863597,12.9807872-11.6570469,20.8508646-2.2770749,31.9247551-6.0863597ZM406.3696828,126.2657714c1.7892396,4.1291036-4.251869,6.3499662-7.7633195,9.1866412-1.8037787-4.1221546,4.251869-6.3499662,7.7633195-9.1866412ZM389.2669892,105.5093386c-1.0814979,14.2607655-23.0948698,8.9189192,0,0h0ZM367.2352521,127.8375243c9.2600813-3.9292996,15.4268093,4.8847023,26.7083835-7.3619535,11.3079431-.0002895-23.6835481,21.3133237-29.2490442,17.8158332-1.3427259-4.0203189,5.1144325-6.1402557,2.5406607-10.4538797ZM362.5713662,112.8613856c-.3969608,11.8135645-21.9457227,15.2695885-27.9702447,12.5787181.0695105-10.4649029,20.5961925-9.7183627,27.9702447-12.5787181ZM337.999713,145.6451263c1.8324019,3.2154154-2.444926,4.9410387-4.5197358,7.2016926-1.8392682-3.2114859,2.4378736-4.9369852,4.5197358-7.2016926ZM313.2753269,156.2451829c-1.79077-4.1281729,4.2557985-6.3430999,7.7726675-9.183084,1.7891155,4.1289381-4.2627475,6.3473396-7.7726675,9.183084ZM314.3964919,128.838447c1.8391854,3.2117962-2.4448226,4.9412249-4.5211835,7.20283-1.831161-3.2164288,2.4461669-4.9420521,4.5211835-7.20283ZM338.705035,154.1218749c-1.0280155,10.8226516-24.074656,16.2953084-33.7613967,25.0148785-4.013039-15.5893866,23.312584-19.3020061,33.7613967-25.0148785ZM302.819772,153.7052667c-4.6863874,19.756296-48.9290047,22.9081985,0,0h0ZM272.3138715,176.746468c-4.4208369,16.3225459-26.682242,10.914705,0,0h0ZM260.4404133,157.2532821c-2.5665333,17.4502049-22.3706035,14.3797255-35.0311169,30.2369582-6.739978,6.2078222,16.1605891-24.5871023,35.0311169-30.2369582ZM237.8453948,193.2817232c4.8752302,13.1807153-20.952721,18.9071755-31.7819906,28.2671484,1.6294336-12.7998654,21.912198-25.3362071,31.7819906-28.2671484ZM212.4140322,195.4057756c-13.6497925,7.7612927-16.9022692,18.043702-33.7574052,25.0214346-1.4819332-8.9928969,22.2854578-37.1461316,33.7574052-25.0214346ZM190.529382,239.9192379c1.5032144,8.6718786-1.0034666,16.3693068-13.5535821,21.6217469-1.191358-8.5892353,3.5493804-15.7454492,13.5535821-21.6217469ZM167.7846294,253.7732603c1.320907,2.1685798,2.6367883,4.3289283,3.957716,6.4975287-2.1672768,1.3201004-4.3291351,2.6369124-6.4977355,3.9578194-1.3209276-2.1686004-2.636809-4.328949-3.9576953-6.4975287,2.1686004-1.3209276,4.3304587-2.637719,6.4977148-3.9578194ZM155.3526466,247.9885403c1.8392682,3.2114859-2.4446365,4.9411008-4.5197565,7.2016926-1.8325053-3.2156016,2.4448226-4.9412249,4.5197565-7.2016926ZM179.6571568,273.264895c11.5554593,15.7260707-18.5085188,21.3419262-29.7994617,31.5193562,3.9288653-28.8548754,15.2381733-19.8401802,29.7994617-31.5193562ZM145.6102933,253.9226841c1.7904598,4.1280902-4.2627268,6.3473396-7.7728536,9.1831874-1.7961679-4.1248846,4.2559846-6.343224,7.7728536-9.1831874ZM149.004521,274.1205716c-1.0357711,10.825547-24.0747181,16.2956393-33.7580876,25.0202971-1.3396858-12.9398999,22.183043-22.8989746,33.7580876-25.0202971ZM118.2282099,355.2312577c-1.2948276,15.1165247-20.0942524-3.4283729,0,0h0ZM102.3937681,329.2351452c8.8965418-3.6057995,7.866272,12.4815977-.5593933,13.7066046-1.449732-4.9700342,2.6063245-8.5913448.5593933-13.7066046ZM99.7124111,317.511235c-1.28428,12.6081272.5062625,25.9622155-19.3500078,34.0518684.5106677-12.7903105,10.1644421-23.3643084,19.3500078-34.0518684ZM89.5519193,359.3315726c1.4480155,4.9641607-2.6105642,8.5965773-.5646464,13.7105961-5.1465922,4.359661-21.7790505.7254244-19.4929791,11.873334-10.9552407-1.3372867,4.2653947-30.2828298,20.0576255-25.5839301ZM86.4432411,383.4909401c-2.1855593,9.6233725-4.6625002,19.1703476-20.0509661,25.579649,2.533236,4.7836318,5.0683954,9.5274517,9.1906328,7.7698962,1.5434193,11.4463437-16.2787632,18.1891344-28.530093,26.2845574,4.4150667-27.6086493,8.3724104-42.461609,39.3904263-59.6341026ZM67.250909,439.7306702c-8.3456486,19.1938625-1.2657701,42.1394532-27.6708386,56.9461069-4.0662318-22.2088742-4.6373309-43.5734466,27.6708386-56.9461069ZM50.031489,499.2099098c-3.676613,14.1378139,8.1369929,4.7298599,13.1419581,14.269493-9.7436975,5.9349711-19.4929998,11.8733547-29.2355391,17.8076227-2.9174363-18.5225822.3255889-21.6931602,16.093581-32.0771157ZM60.633014,523.9336755c.1384006,12.9481518,2.0245331,26.3254654,1.5715668,39.1345548-8.666336,5.2787263-17.3311415,10.556522-25.9893703,15.8303261-9.7919268-22.6817981-7.944386-42.5279139,24.4178035-54.9648809ZM33.6751909,589.3539458c6.5581255-6.7134229,26.054-10.2795346,24.0079995-19.0832578,22.8183167,14.8013179-19.666621,64.0596756,2.4234379,69.7987308-.0072592,7.379781-11.6486088,11.9244794-15.5338154,18.3702423-5.2622225-23.4291449-6.9019142-45.9655107-10.897622-69.0857153ZM45.278259,666.9166165c13.6502475-6.8371604,14.5071235-16.7834332,30.5132838-23.0438278,17.1407476,29.0792697,4.3956261,50.8974289-14.533844,71.2096023-6.011017-16.2209997-8.1498775-31.5026869-15.9794398-48.1657745ZM65.2188065,721.5855244c14.2051943-5.7798185,7.8239783-16.5547992,22.0296069-22.3342868,20.948047,25.3907649,3.5711993,41.4667045-3.5159384,60.0482084-7.4679049-1.9952274-14.4060117-27.3561695-18.5136685-37.7139216ZM84.4454905,767.7736095c2.4991736-7.6950085,15.0778917-12.9460423,13.5567464-21.6165145,13.8274879-9.7456623-1.240125,21.8886831,18.371173,15.5353252,5.5763952,15.1975135-2.580183,27.053475-6.9145092,39.8432479-10.814379-1.0330825-16.2954325-24.0748421-25.0134101-33.7620585ZM108.1947645,806.7638694c9.7396026-5.015761,16.001176-10.878471,15.5307132-18.3757643,11.3569996,10.8788846,33.3133526,31.8247807,27.7070933,45.4879334,9.0054506,2.1092238,8.1989547-5.7013942,21.4689106-8.6263793,21.2854657,17.7911395,20.0946868,35.2360706,14.7090784,53.39592,13.1883054-5.0972048,8.1865458-14.6189691,18.790842-20.3448916,7.7452438,9.2666787-3.519082,13.9059122.1413167,22.1792582,10.0046154,7.4822371,9.5071632-12.3049984,18.2284085-6.6432299,6.4593093,13.5630129-5.8319152,22.5736132-.4166909,35.8855526,16.3680452,2.5910615,1.7250442-20.0811197,20.0524758-25.5802902,6.1713194,9.8057214.8361532,16.8173716,2.1288092,25.4266266,12.1086068,10.4766293,6.1723327-4.9825879,16.2400888-9.8919632,1.7085817,15.7330403,20.5422138,14.873517,11.315223,33.1990666,8.0406791,2.2071714,13.6251194-8.4268855,12.2891977-16.3938971,16.0882865-5.4674451,27.7688689,7.2372027,41.8201308,10.159251.5771174,7.5231038-2.068502,14.264364.1466112,22.1853386,12.0487959,7.1057097,3.3724501-13.6256778,17.5180196-15.1283132,7.6996825,10.0813644,18.3123548,8.1659677,28.1129058,9.599775,5.4263095,7.7781481,1.0243756,13.1689475,3.3982399,20.2044228,13.04885,8.1653886,5.4684998-11.1959734,14.2664942-13.1472319,8.2805018,7.5523888.5486182,11.2113605,6.6444088,18.2271883,9.3485774,2.316163,10.4387822-11.5157095,15.5340015-18.3703871,3.3081513,4.7000785,14.9214775,4.6954045,27.4086385,1.1220957,2.3943391,7.0418038-5.6981059,11.5349433,3.3985915,20.2050846,10.0040777-5.8765252,14.7450022-13.0328632,13.5593729-21.627393,14.1275766,3.9554617,28.9729874-5.712645,32.0712628,16.0987307,4.4346935-19.6030047,21.1710763-10.7854042,36.4440773-13.291837,5.4261855,7.7779827,1.0259267,13.1680789,3.3984261,20.2043814-161.252237,29.4845031-301.1643677-28.8825886-421.9066471-166.1590478ZM531.3081773,762.8366863c7.242311-1.1417017,4.0688584,5.6225563,5.9381354,9.74893-7.2324046,1.1428599-4.0685688-5.6224736-5.9381354-9.74893ZM535.0030521,827.4009906c7.2357964-1.1372759,4.0687963,5.6228459,5.9383629,9.7493022-7.2338523,1.143439-4.0689825-5.6227218-5.9383629-9.7493022ZM540.5567804,975.4629368c-2.7107867-16.263645,4.9422383-28.918988,24.5794502-32.7860983,5.051023,13.097679,14.5798811,6.9316128,26.8483352,14.8276455-18.4918909,11.5364737-33.2034097,7.5300114-51.4277854,17.9584529ZM615.4301111,952.1228257c-10.7673699,10.1293042-13.4876908-12.8441238-20.3477456-18.7803772,5.5746373-3.9555858,9.2725108-.1915107,14.9728296-4.6692631,4.7245861,8.5305826,7.5997908,16.6118802,5.374916,23.4496403ZM616.639917,742.0416825c7.8554142-2.2923379,9.9694982.8797084,9.1840147,7.7741773-2.160514,1.3160054-4.3289283,2.636809-6.4977355,3.9578194.1246061-3.6652175.1777782-7.340817-2.6862792-11.7319966ZM625.1724643,946.1887232c-1.4458439-4.963685,2.6171616-8.5892767.5633435-13.7005862,5.6635471-.5224975,10.2867525,3.2590741,14.4133743,9.0376517-5.5744098,3.955958-9.2725108.1915521-14.9767177,4.6629346ZM649.8984843,935.5873844c-4.6181798-7.5818393-9.2364423-15.163844-13.8539189-22.7445251,7.7530821-5.3033994,15.3550445-10.0226703,21.473626-8.6221189,5.4657699,4.6013864-1.3083947,19.2934853,9.8922114,16.2404817,3.9689253,7.4241221-12.9401273,9.7768086-17.5119185,15.1261623ZM684.0668516,874.6835822c-5.9510407,5.5104626-9.9529944,3.0171005-14.9715887,4.6709176-4.5337165-5.105891,14.6712933-16.8855378,14.9715887-4.6709176ZM672.6430301,921.7335068c-3.6802736-8.0806771,4.1219478-12.7516361,11.0142037-11.1683429,1.6838467,5.0283354-6.494654,7.6528182-11.0142037,11.1683429ZM678.2809734,887.1163095c3.2461481-1.9772758,6.4975287-3.9576953,9.7436975-5.9349711,4.7337067,7.6100902.2375478,12.9768577,8.626462,21.4690968-7.376596-.0020682-11.9309941-11.644638-18.3701596-15.5341256ZM706.3936931,896.7161672c.1295076-3.6570689.182659-7.3327099-2.681481-11.7240963,4.8539903-1.0167854,9.2017801.0947627,12.4321069,5.7849061-3.252911,1.9813708-6.4977148,3.9578194-9.7506258,5.9391902ZM730.0794748,730.8531544c-2.5275279,18.0052344-16.9502709-3.2052608,0,0h0ZM727.1618937,879.6171549c-10.9957351-8.4724675,10.4342323-22.9490652-.1470041-22.1850904-1.085448-12.7330228,12.597683,7.6043407,18.9337099,1.8334567,5.2044177,9.5709863-9.9373385,14.2004168-18.7867057,20.3516338ZM762.1886675,849.3735579c-4.0201948,1.3428914-6.1347131-5.117514-10.4553274-2.5400196-1.6811581-5.0204764,6.4947367-7.6526941,11.0148034-11.1669366,1.4567224,4.9662909-2.6061176,8.5917585-.559476,13.7069561ZM771.3467682,754.7150598c1.3168327,2.1618789,2.636809,4.3289283,3.9578607,6.4977148-2.1688279,1.3210517-4.3360841,2.6411521-6.5047052,3.9620798-1.3210104-2.1688279-2.6409867-4.3358773-3.9578194-6.4977148,2.1686211-1.3209276,4.3358773-2.641028,6.5046638-3.9620798ZM777.98702,772.9357955c.0101753,7.1893043-4.1064367,12.7498162-11.0149275,11.1672261-2.9275082-11.1747128,2.639084-6.6183294,11.0149275-11.1672261ZM773.0610167,816.0281076c-5.5104212-5.9510613-3.0155701-9.9631903-4.6707935-14.9719196,4.6951563-4.1201278,7.4670983-.3428993,11.7257094-2.693559,6.1929936,7.9645298,1.99986,13.3990086-7.0549159,17.6654787ZM782.2399644,823.7940123c.3657731-17.5960302,11.2976023,7.8805629,0,0h0ZM781.3921882,793.1365784c-5.743295-6.0078114.8710636-9.0122548,5.7849475-12.4321483,1.0167441,4.8534939-.0880205,9.1977265-5.7849475,12.4321483ZM787.7027768,664.5709824c11.5619533-3.9613973,9.5214748,6.0799071,13.1491346,14.2656256-7.0469329-1.1547724-14.9427174-7.898411-13.1491346-14.2656256ZM795.0927745,793.6999012c.7162832-6.2917271-4.1092493-13.9183625-3.3919321-20.2088487,9.5359932-8.863348,15.1918054-1.7776166,20.9089176,5.0792946-7.6974902,4.5902184-6.1604409,11.4283508-17.5169855,15.1295541ZM802.717714,762.3300722c-.5273783-5.6584594,3.2530764-10.2809823,9.0383549-14.4116991-.1297558,3.6566967-.1854304,7.3433815,2.6825979,11.7228968-4.6882487,4.1159088-7.4603975.338763-11.7209527,2.6888023ZM823.4749534,745.2287022c-1.4037364-1.9177131,15.6326523-11.7973088.5568288-13.6960363-1.3436773-4.0218907,5.118879-6.1450952,2.546679-10.4596705,10.8684198-.6940299,4.020898,17.3144722,10.5968716,24.7191951-4.9662909,1.456681-8.5850163-2.6102126-13.7003794-.5634883ZM835.1724533,640.114732c14.9038361-7.2201818,8.0592097,20.9367549,0,0h0ZM851.1566498,688.2852426c2.6854933,6.1944413-1.0827594,10.8097256-9.055231,14.4148427-7.6795387-9.1860622,1.0999251-16.5825124,9.055231-14.4148427ZM848.1932799,734.630507c-15.3092763.4538349,5.0146028-13.2210235,1.8278727-18.9282086,11.0056622-1.5110734-3.2874077,13.6463593-1.8278727,18.9282086ZM805.0463272,524.8348513c12.1605587-24.7248204,50.1477244-43.1767133,50.4148467-70.7978129,12.6096783,16.7135918-15.2678306,74.6726994-50.4148467,70.7978129ZM843.5044521,299.9912714c3.4497989-8.4985262,26.7465615,57.667788,25.0647416,65.887693-7.3821387-1.9734084-18.8719549-55.0053339-25.0647416-65.887693ZM861.9775848,552.5147277c5.525891-5.1235116,13.7730956,11.8992066,2.700053,11.7212422-1.3206795-2.1682282-2.6366849-4.3287215-3.9576953-6.4975287,3.1255957-1.0873094,2.2934547-3.1358537,1.2576422-5.2237135ZM861.8682624,632.7625608c4.0162239-1.3494681,6.1410003,5.1121575,10.4623177,2.5358005,4.0723535,9.8427206-10.1185498,6.3896333-10.4623177-2.5358005ZM913.9967371,623.276286c-14.9112401-10.7627786-29.1378397-24.3906073-41.4034605-46.0448656,18.3347735-5.6945693,5.7997555-18.893898,20.0545233-25.5738375-4.656606-11.2463742-16.8641531,8.6146942-20.9144188-5.0852095,26.5633234-9.1478014,10.7839979-27.4941152-1.5605435-39.1317421,4.5768581.1036764,7.9081934,5.4239519,13.701579.5624335,12.6260994,44.2085342,51.0647422,76.3093716,30.1223207,115.2732212ZM875.6556282,450.6523242c-4.0551879-15.1372062,11.5863575,10.5422104,0,0h0ZM877.2299043,489.7757109c-4.0646187-15.1222535,11.5720459,10.5490973,0,0h0ZM951.3549368,355.5450581c-20.9408498,31.440539-48.5934266,67.9865347-75.1333386,81.3958427,2.7803386-15.0149992,11.4181755-28.5948882-7.4988651-48.8808375,9.8931214-10.3577727,11.1319435,14.9152523,22.1819468-.1521745,5.636992-6.0077493-12.1661428-9.409836-15.1264105-17.5118151,9.5171317-3.5681178,24.7356576-.6034242,21.6173831,13.5580907,6.1219733-6.0767842,6.4014631-27.7236178-4.1072639-28.6720716,18.5159435-5.8143773,11.1235881-29.0780702,21.891289-44.5177641-5.2509097-12.5785113-16.3773933-.9702314-21.6284684-13.5489495,12.8269995-7.1802665,21.7048245,1.8307267,35.1764252-8.069385-17.6136095-3.4170394-36.0632894-3.4447319-54.8151675-2.2433848-9.1920598-13.3055282-2.1531927-22.6670108-13.2837712-36.4492063-11.3162157,7.3996766-6.5249731,18.7182086.8577447,30.6590264-18.7564694-5.829785-13.9922782-34.7849243-38.1691215-48.0236719,3.2527455-1.9812467,6.5043329-3.9618109,9.7423946-5.9341439,42.9113076,39.8884163,101.6824331,14.4670014,150.8984557,28.3500192,8.2805018,7.5524302.5568288,11.2066864,6.6445122,18.2273951-15.2179054,21.4944937-21.5995971,55.3229811-39.2477446,81.81303ZM890.0490035,357.2552531c-6.4736416.0547646-14.159302,5.0815282-17.6758194-7.059714,4.3358773-2.6410073,8.6730781-5.282842,12.9954711-7.9156387,3.9734132,5.5730241.2091727,9.2710425,4.6803484,14.9753528ZM885.9385546,328.5753432c6.7266591-4.9042877,11.9555223-3.6386831,15.6769521,3.8084782-6.723805,4.9120433-11.9567632,3.6396965-15.6769521-3.8084782ZM878.5744088,301.8781071c-1.6809513-4.5755966,4.4723338-7.2100892,6.5044984-3.961935,1.4380677,5.6029709-3.0561058,1.4085138-6.5044984,3.961935ZM884.666518,333.8083634c-5.1401809-1.6258144-12.592099,6.2835579-15.681047-3.8152204,7.250232-7.079196,12.4795916-5.8157629,15.681047,3.8152204ZM869.2751775,374.3571814c6.1222215-14.4951696-1.2133838,15.6830531,0,0h0Z"/>
  </g>
</svg>