<?xml version="1.0" encoding="UTF-8"?>
<svg id="blueberry" xmlns="http://www.w3.org/2000/svg" version="1.1" viewBox="0 0 995.294999 1000">
  <!-- Generator: Adobe Illustrator 30.0.0, SVG Export Plug-In . SVG Version: 2.1.1 Build 123)  -->
  <g id="outline">
    <path d="M457.0968199,622.1153099c1.2580277,9.1315214-.6334622,15.1149736-3.9409676,19.690562,10.181533,3.5403287,19.3214752-22.2465902,3.9409676-19.690562Z"/>
    <path d="M697.2821794,204.7467962c-.0313659-36.744488,11.6875496-98.372016,0-122.0591807-25.2177609-9.5415328-63.0681025,11.8240614-82.6862292,7.8746938-7.1612859-44.0268718-25.0732834-77.2964939-63.0040466-90.5623092-33.9014291,30.4015491-57.4537371,71.1674056-102.3700049,90.5623092-29.0715413-19.8184462-54.8568257-67.0656362-90.5611506-62.9970534-39.9650339,4.5510502-68.8921185,90.7137798-98.4360512,106.3109726-40.3507347-24.4253384-74.1551489-74.836053-137.8087751-63.0040673-17.7514234,36.0633771-14.1386387,93.4928036-31.4978233,129.9420677-33.4454034,10.1340911-44.3800688,1.5782657-74.81317,11.8074889,14.8443086,54.722176,58.4464584,80.6764553,82.6878637,126.001307C39.552525,415.7343853-4.4337326,527.7085721.3569685,629.988576c4.7494869,101.4892573,58.6900197,197.7804711,136.2468958,267.5818478,93.4986174,84.1486523,215.0788481,110.2033396,348.2823862,100.5110396,80.9160442-5.8964926,210.4555902-38.7711035,278.1583921-67.7865132,130.8981058-56.0991705,215.2871745-166.2218609,229.5454835-296.3639998,25.306086-231.0063548-131.1119564-385.0930198-295.3079467-429.1841544ZM874.4634715,421.309233c-.4953158,7.0577537,4.8233498,8.2996433,3.9423331,15.7498427-10.0863595.4165287-18.7782209,2.2262108-23.624495,7.8746938-6.6968601-5.68798,4.7266039-26.5398238,19.6821619-23.6245364ZM866.5903916,503.9970761c1.7208604-4.847888,5.0381935-8.0915858,11.8154131-7.8749213-1.7224742,4.8381016-5.0398073,8.0832064-11.8154131,7.8749213ZM874.4634715,543.3698207c4.5592227-15.5576957,4.5592227,15.5563095,0,0h0ZM842.9658551,626.0560292c1.1530886-14.6603548,9.7974874,11.590783,0,7.8749213-6.5610103,9.2509848.3525142-1.4419814,0-7.8749213ZM839.0249289,775.6722932c4.5657607-15.5563095,4.5657607,15.5658682,0,0h0ZM835.0909545,582.7423377c7.0659262.495771,8.3078158-4.8233704,15.7498427-3.9421469v11.8156614c-10.0209381,2.0356983-15.2692581,6.7134327-15.7498427-7.8735144ZM705.1568317,858.3601155c7.5058759-12.2569352,17.0950575,6.1604128,27.5573522,3.9405124-5.238513,9.9899033-17.4709513-5.7763258-27.5573522-3.9405124ZM728.7816164,881.99119c-.1131323,3.8292836-4.8233498,3.0515923-7.8749006,3.9325675.1032839-3.8292009,4.8219428-3.0515509,7.8749006-3.9325675ZM638.2188521,677.236242c-11.1265848,3.2614705-10.1962642-5.5435232-19.6905827-3.9327744,4.3100544-8.8197249,6.521534-19.731259,11.8172959-27.5650282,3.1630487,2.0833678,6.3917877,4.1097143,11.8074682,3.9404917,1.9309868,12.4259715-7.0890575,13.9074499-3.9341813,27.5573108ZM598.8461075,732.3670018v-7.8749006c8.2276425-1.6668598,10.4227563,2.6988298,15.7498427,3.9325261-.889396,5.6713867-11.7518331,1.3779462-11.8156614,7.874942.6809041-.416777,11.3184835-.4955641,11.8156614,0,10.3093965,10.3175483-30.7530909,11.6875496-11.8156614,0-3.3484093.7299805-3.7095513-1.5291893-3.9341813-3.9325675ZM567.3482842,681.1784096c-15.0920699-1.9784494-13.3464644-20.7796361-23.631302-27.5652971,9.0922727-12.6094494,17.5592764,8.3866028,31.5059958,3.9405124-2.2671147,8.235815-9.7645284,11.2401516-7.8746938,23.6247847ZM563.4075649,740.2419024c-.280741-11.8009302,11.5826105-19.9792273,19.6903344-11.8172752,1.8014888,12.3043978-8.4193136,12.5931044-19.6903344,11.8172752ZM587.0304461,897.741074c-.1033046,3.8292009-4.8214877,3.0515509-7.8749213,3.9325675.1133806-3.8292836,4.8233704-3.0515923,7.8749213-3.9325675ZM338.970186,937.1137979c-20.6748832,2.2984391-26.4119603-10.3341416-27.5570833-27.5652558,16.4468848-3.3255263,18.5929016,7.6582362,31.4978026,7.8746524-4.4526284,12.3603018,1.1304125,10.4047768-3.9407193,19.6906034ZM244.4748541,720.5513404c-1.5618793-7.6437533,17.936784-5.7520359,11.8091234,3.9407607h-7.8749213c.728346-3.348699-1.5308031-3.7175169-3.934202-3.9407607ZM173.6043069,708.742217c-.6645384-8.5392114,13.963085-1.7864887,19.6821619-3.9406779-.4001837,10.0209381-14.6668928,9.3005164-19.6821619,3.9406779ZM189.353922,783.5554284v7.8746524h-7.8746938v-7.8746524h7.8746938ZM153.9139725,669.3695345c1.6897428-7.4974344,8.4833487-9.8929091,7.8746731-19.6906034,13.3691406,1.6997981,9.1642735,25.6838419-7.8746731,19.6906034ZM157.8479262,791.4300808c4.5657607-15.5659096,4.5657607,15.5563095,0,0h0ZM47.6029793,661.4880131c-14.0977141-9.6859689-8.3393678-26.5234374-7.8732868-43.3069052,10.6686763-2.1228855,9.7958529-3.1565107,23.6231295-7.8746938,6.2882556,31.0251836-26.1957303,26.7957783-15.7498427,51.181599ZM83.043177,594.5582266c-12.2651491,1.842372-14.0748104-9.9010402-7.8749213-15.7580359,6.921697.9532243,8.9723541,6.7772403,7.8749213,15.7580359ZM83.043177,645.7384394c-8.0193781-3.7965315-8.5081559-15.1166288-7.8749213-27.5573315,9.6614514,2.6364291,12.0566364,22.9111286,7.8749213,27.5573315ZM75.1682557,657.5536249c-9.9337716-.9445759-16.3173869-11.6069211-7.8749213-19.6901275,5.8488024,3.3402575,5.6961732,12.6819261,7.8749213,19.6901275ZM55.4779006,661.4880131c7.0659262-.4969296,8.3078365,4.8217359,15.7496151,3.9405124-5.807671,9.9421924-7.3613777,24.1369007-19.6905827,27.5657523-1.7224742-13.5385907,1.5621276-22.0696503,3.9409676-31.5062647ZM83.043177,689.0519033c-.0558627,7.8269829-10.7427668,5.0070759-7.8749213,15.7496358-13.8270491-2.4510891-3.5092525-16.445271,7.8749213-15.7496358ZM75.1682557,720.5513404h11.8074682c-3.0910686,16.8701999.5773512,16.0532805-3.9325468,31.4978233-3.1728764-2.0835954-6.3934429-4.1015211-11.8156614-3.9344296-3.1565107-13.6575575,5.8635336-15.1308841,3.94074-27.5633937ZM94.8504176,700.8689716c5.1678984-1.9473318,1.730895,19.5379534-7.8746938,15.7481875-4.509898-12.38484,6.1849303-9.5728366,7.8746938-15.7481875ZM86.9757239,559.1178013c9.7974874-15.3559901,5.7438634,13.0495853,0,0h0ZM94.8504176,657.5536249c17.0641882,1.6425285-4.1487768,22.8554935,0,0h0ZM98.7927921,740.2419024c3.3486369-.7301874,3.7079168,1.5371342,3.9325468,3.9323192.9534519,10.1569948,6.7774679-5.4072596,15.7498427,0-.0638076,11.7516055-10.2390302,13.393927-11.8091234,23.6313227-5.8305747-2.0506571-9.9239439-5.8308229-15.7479599-7.8814387,1.6897428-7.4990896,8.4833694-9.8863297,7.8746938-19.6822033ZM106.6660583,704.8015391c4.559471-15.5561026,4.559471,15.5562681,0,0h0ZM126.3484685,637.8634974c-8.5869223.7136355-12.5194691-3.2205459-11.8074889-11.8074682,8.5885568-.7136355,12.5292968,3.2205666,11.8074889,11.8074682ZM126.3484685,523.6794862c4.5673952-15.557944,4.5673952,15.5560612,0,0h0ZM118.4751816,720.5513404c13.5530943,10.1815744-20.2515682,9.5153601,0,0h0ZM110.6002603,547.3023675c-.5217161-9.7009484-.59231-18.9685265,3.9407193-23.6228812,6.0079904.0638076,8.6280538,29.1827701-3.9407193,23.6228812ZM138.165516,748.1147341c-5.528792,7.5946769-2.1474237,24.1056176-19.6903344,19.6908103,7.2891494-5.8389747,5.902803-20.3548728,19.6903344-19.6908103ZM130.290843,472.497639c4.5575882-15.564482,4.5575882,15.5576957,0,0h0ZM126.3484685,283.4922647c3.5566737-10.6623452,8.8134144,9.0053338,15.7496151,7.8831145-5.8635336,12.9689568-11.1099915-6.6973152-15.7496151-7.8831145ZM138.165516,263.8096476c.1035529-3.8287664,4.8219635-3.0513233,7.8735351-3.9402641-.1117461,3.828994-4.8219635,3.0594958-7.8735351,3.9402641ZM149.9730049,641.8058719c11.9682906,4.8542191-4.2705574,13.5381355,0,23.6226536-21.1161984-.3753972-4.3507307-15.9085548,0-23.6226536ZM157.8479262,244.1195408c-18.9538159-9.8683295-4.6543755-24.16777,0,0h0ZM165.7293856,251.9944621c-.1114978,3.828994-4.8217152,3.0597441-7.8814593,3.9404917.1114978-3.828994,4.8217152-3.0595165,7.8814593-3.9404917ZM149.9730049,271.6845689c18.0482611,2.6284842-3.1565314,23.8398147,0,0h0ZM149.9730049,771.7395188c15.3641626-2.7642926.2003195,13.8024695,0,19.690562-11.534941-3.3402575,2.3542811-12.6816571,0-19.690562ZM165.7293856,271.6845689v-7.8749213h7.8749213v7.8749213h-7.8749213ZM177.5384882,606.3656948c6.9527939-1.2585035,7.0250223,22.0610019-3.9341813,15.7496151-.5037159-7.0577537,4.8151772-8.2998915,3.9341813-15.7496151ZM177.5384882,484.3062658c6.6968394-1.4499263,7.425206,3.076565,7.8730592,7.8735351-3.34843-.7204217-3.7158617,1.5389756-3.9323192,3.9423538-4.6150854-.6413864-3.3238711-7.1858241-3.94074-11.8158889ZM197.2288433,633.9309505c.1033046-3.8292215,4.8135427-3.0597441,7.8732868-3.9423745-.1114978,3.8292422-4.8217359,3.0613786-7.8732868,3.9423745ZM205.1021302,677.236242c-.1114978,3.8292422-4.8217359,3.0597441-7.8732868,3.9421676.1033046-3.8290353,4.8135427-3.0529992,7.8732868-3.9421676ZM193.2864688,401.618671c.1131323-3.8290146,4.8233704-3.051344,7.8749213-3.9325675-.1033253,3.8292422-4.8151772,3.0515509-7.8749213,3.9325675ZM185.4115475,259.8693835c.889396-5.671635,11.75324-1.3700013,11.8172959-7.8749213,5.2777617,2.5950493,7.3286463,8.4193136,7.8732868,15.7495944-12.5522005,3.3633888-14.9474062-3.4288309-19.6905827-7.8746731ZM189.353922,413.4343117v-7.8732868h7.8749213v7.8732868h-7.8749213ZM209.0363115,799.3049814c-7.802693,2.690678,2.4592409,23.4541345-11.8074682,19.6824516-.7776706-11.2710622-.4887778-21.4852852,11.8074682-19.6824516ZM205.1021302,716.6171591c4.8397154,1.7145293,8.0831857,5.0384418,7.8749213,11.8074682-4.8465017-1.7128741-8.0897444-5.0384004-7.8749213-11.8074682ZM279.9150519,370.1206202c-4.5821264-.6411795-7.0102911.8648578-7.8749213,3.9409676-10.6934421-3.5880189,4.0129684-13.8022833,3.9344296-19.6908103,5.3415693,1.2192134,3.2680085,9.8619984,3.9404917,15.7498427ZM303.5381814,220.4964113c-5.4862743,5.3827007-19.4329936,8.4917695-23.6231295,3.9407193-.5691787-12.3848194,10.0929389-13.5299423,19.6823895-15.7479806-.3363554,5.5830409-.6481727,11.1494885,3.94074,11.8072613ZM315.3470565,220.4964113c-11.7039153.8417058-13.8826842-14.0435066-7.8746938-19.6821826,13.2328563-4.0456791,6.1274331,12.2406109,7.8746938,19.6821826ZM315.3470565,255.9349539c-.1049598,3.8292422-4.8151772,3.0534337-7.8746938,3.9344296.1114978-3.8210697,4.8217359-3.0532061,7.8746938-3.9344296ZM323.2203433,334.68065c-2.0819816,3.1728764-4.1015625,6.3934429-3.9325468,11.8172959-11.1265848,3.2516635-10.2060919-5.551944-19.6903551-3.9423745.4413152-10.0538971,13.1854144-7.8108655,23.6229019-7.8749213ZM354.7197804,255.9349539c-.1049391,3.8292422-4.814929,3.0534337-7.8746731,3.9344296.1114978-3.8210697,4.8217152-3.0532061,7.8746731-3.9344296ZM354.7197804,185.0562135c15.9401275-1.9866012,6.6643563,23.6476677,0,23.6329365-8.7640898-1.6586459-3.0760891-20.8929546,0-23.6329365ZM370.4761818,287.4344116c3.6765923,19.4245729-4.1966946,27.2994942-23.6310744,23.6231295,2.97115-12.7850238,6.5360169-24.9697513,23.6310744-23.6231295ZM401.974005,177.1897129c3.6209572-6.8807931,12.3046461-8.6921097,23.624764-7.8814593v15.7479599c-12.0487122-2.8512314-11.584245,6.8020267-23.624764,3.9421262,2.7250025-3.1726281,6.1292952-10.7834224,0-11.8086268ZM445.280931,255.9349539c-12.4241094-1.929104-13.8990499,7.0991128-27.5570833,3.9344296-5.7043664-14.883578,10.8147469-7.5551592,7.8749213-19.6824102,9.347979,2.4590133,18.3287539,5.2941274,19.6821619,15.7479806ZM433.4736904,192.9393073c.1033046-3.828994,4.8217152-3.0597441,7.8732868-3.9409676-.1117461,3.8294905-4.8219635,3.0515716-7.8732868,3.9409676ZM453.1558523,299.2503006c10.0602075.4394324,7.8174242,13.1772212,7.8814593,23.6228812-8.2178355-7.5385659-24.2792471-7.2250935-27.5636213-19.6903344,5.7190769-2.15421,20.3467003,4.5984714,19.6821619-3.9325468ZM472.8464143,299.2503006v7.8749213h-7.8749213v-7.8749213h7.8749213ZM464.971493,295.3079261c.1114978-3.8292422,4.8217359-3.0515509,7.8749213-3.9325468-.1049391,3.8292215-4.8233498,3.0515509-7.8749213,3.9325468ZM468.912233,334.68065c-1.3059454,14.4273246,4.3656895,21.8772758,7.8749213,31.4994578,7.3447845-1.3945188-.4890054-20.0596695-3.94074-23.6245364,16.3484838-4.4378972,43.4102512,14.268116,59.0630997,23.6245364-11.1429505-22.9831294-39.7107345-28.5348458-62.997281-39.3727239,1.0170319-12.0961541,8.5392321-17.7037332,11.8074682-27.5570833,13.1377242-.0163657,13.4430034,12.8081344,27.5652764,11.8072406,3.3729682,12.5606006-6.1998891,12.176555-7.8749213,19.690562,10.5835788,2.707023,7.6107943-8.139276,11.8091027-11.8156407,10.1011321.4003906,6.3277526,14.6752929,11.8156614,19.690562,11.0295699-3.8701461-5.7209597-10.5097159,3.9323192-15.7498427,14.419359,5.2712237,24.35311,15.0196139,39.3811447,19.6823895,2.4756066-13.0806822-32.5627523-22.4779859-47.2558384-31.4980302,3.0202471-12.7296163,10.8951684-20.6045376,23.6245364-23.6231295,4.3018612,9.8598881,32.8841696,8.4590588,19.6905827,23.6231295,18.9848922-18.8491044,14.5717607,25.2817754,23.6228812,39.3727239,7.9141907-6.9051037-5.3270863-25.9393206-3.9325468-39.3727239,22.9027285,4.6543548,36.7938127,18.3371747,55.1209528,27.5654833,4.0702173-5.5601165-18.6487643-25.4505635-7.8732868-39.3727239,12.6966366,1.4501539,29.9277301,11.4150018,19.6823895,23.6228812,13.825187-3.1153792,12.9523635-11.0707014,23.6310744,0-4.0456791-16.9587733-19.9792479-22.029905-35.4401771-27.5652558-.6086757-9.7960805,6.1851579-12.1831137,7.8749213-19.6823895,14.8686192-1.7456261,18.4814038,7.7634236,27.5652558,11.8088751-.0556351,7.8255967-10.750691,5.005669-7.8749213,15.7484358,3.5323838,10.6457519,9.5008772-8.3064089,11.8075095-11.8074682,14.604699,2.4510684,23.0553164,11.0625082,35.4401564,15.7498427-8.9560298,9.4202073-15.108208,21.6442042-23.6229226,31.4978026,8.4113893,5.5828133,18.5288664-20.6928834,27.5554487-27.5654833,16.2781382,3.4124652,23.1030686,16.2780968,39.3809585,19.690562-1.6011487,19.4016692-31.6652044,10.3423554-43.3134846,19.6821619,2.1541893,5.6795799,22.8307484-3.100648,31.4980715-3.9323192-2.6841399,14.3782275-14.9231163,19.2015773-19.6906034,31.4975957,9.2201155,3.8046833,21.2047718-23.3029122,31.5060165-31.4975957h43.3069052c-8.7245928,17.5181243-20.3401416,32.1537133-31.4977819,47.2460108-4.5674159-3.2993123-10.5588337-5.1910297-19.6906034-3.9325261,21.460747,17.5429107-.7529049,27.5488901-7.8746938,47.2476453,17.053926-3.9489125,13.9219742-28.0773924,39.3809585-23.624764-.6416347-4.6134509-7.1858448-3.3238711-11.8156614-3.9407193,7.7369819-8.7395723,26.1151018,5.1662639,43.3134432,0-6.8576618,8.3309471-11.6319352,32.7478853-23.6228812,23.6231295v19.6901068c-12.0487122,2.8533418-11.584514-6.7919715-23.6247847-3.9405124,15.5004468,22.1580168-3.2287391,39.3645721-19.6903137,51.188406,5.1515327,19.6674307,25.8114571,36.2966348,19.6903137,55.1225666-10.8229194,7.9469221-21.7000876-10.3587005-39.3809171-7.8749213,13.393927,15.4857156,47.8481691,9.9010402,51.1883853,35.4399702-16.1254468,16.3423802-23.6953372-24.3529031-39.3727239-7.8749213-15.9483-17.6803743-14.578547-28.4787555-23.6231295-51.1879301-12.0713469,26.146178-44.2108256-7.6748502-66.9380004-7.8749213,37.9307425,17.1983621,79.8840328,30.3688177,90.5611299,74.8112872-15.700518,7.6993677-39.7813077-9.9879998-59.0632859-11.8156614,2.8612454-12.0402914-6.7920128-11.5744173-3.9325882-23.6229019-8.5392321-.6579797-1.7865094,13.9696437-3.9404917,19.6901275-16.6308386-5.6793523-38.5642047-6.0633979-51.190268-15.7496151-2.9793225,14.8919987,38.9643884,18.7128202,59.063348,23.6245364.6808627,11.6155488,10.5900754,24.3762413,3.9423331,31.4980509-62.4114884-21.5888381-122.9088522-45.0852835-177.1897129-74.8129424-5.3679902,19.5624916,37.0413465,22.5581798,55.1291253,31.5059958-2.4265095,18.1698349,8.8363181,22.6551947,7.8749213,39.3729722-56.7403293-24.6401614-119.8967983-42.8574175-169.3150192-74.8115148,18.7128202,1.6504941,28.3988098-5.7274977,43.3137122-7.8749213-34.0769827,2.9237081-102.9461975,9.8454051-118.1266339-27.5652558,29.015658-9.0675069,40.2389886,12.0010013,63.0056811,19.690562-12.9049216-21.219503-37.48291-30.7694566-63.0056811-39.3811447,6.0965638-14.9083644,32.79721-9.1953497,47.2558384-15.7479806-19.7789285-9.8222739-55.0010342,13.0327851-78.7536617,0,14.932675-41.704122,77.7693612-33.6225708,98.4360512-3.9344089,9.5728573-13.4182377-38.5230732-20.2578786-23.6229019-39.372517-24.2252465,13.6744198-37.0268429-14.4749734-59.0633066-15.7482082-1.2503103-6.9544284,22.0610019-7.0348293,15.7479806,3.9325675,8.4277343-6.0077628,12.8656316-16.0139904,27.5654833-15.7496358,3.1399174,7.3628053,6.5771691,14.4191521,7.8749213,23.6245571,11.0870671-3.9734714-1.0894879-16.7194327,0-23.6245571,22.8468658-6.4165535,31.9391385-1.3208835,47.2474384,7.8747144-5.1349394-11.1265848-18.0005916-29.3354408-7.8749213-43.3134846,32.6202701,8.0668407,53.9610986,27.4210473,82.6864361,39.3809171-5.1335325-19.8034667-30.6644968-19.2097498-43.3134639-31.5059958.3772593-20.0514763-8.2423737-31.1303709-7.8749213-51.1818473,7.8354244,5.2878169,18.7455309,7.507469,27.565504,11.8091234-4.8546949,8.2750844-10.895396,15.3559694-15.7498427,23.6228812,14.3403444-.0967666,8.371851-20.4991226,27.5652558-15.7496151ZM512.2191589,275.6255366c9.7960805-.6086757,12.1912862,6.1851579,19.6903551,7.8667281-1.1696819,8.0191505-7.891287,10.4949847-11.8170683,15.7580359-6.8726206-3.629378-8.6836889-12.3128393-7.8732868-23.624764ZM598.8461075,255.9349539c1.1696612,20.8373402-31.1616954,5.2632787-27.5636213-11.8154131,13.6578058-3.1565314,15.1311117,5.8717061,27.5636213,3.9423538-7.2646112,7.2251142-19.2015773,13.5612875,0,7.8730592ZM622.4706439,259.8693835c6.961194,3.540308,11.4956509,9.5088014,19.6823895,11.8151855-1.1532955,8.0277782-10.6459795,7.7225197-11.8074682,15.7498427-11.2642553-.5525854-7.2022105-16.4223466-7.8749213-27.5650282ZM638.2188521,259.8693835c.1049391-3.8210697,4.8233498-3.0532061,7.8749213-3.9344296-.1117254,3.8292422-4.8217359,3.0534337-7.8749213,3.9344296ZM622.4706439,303.1828474c-7.5549316,22.0544432-23.6081707,2.3066116-39.3727446,0-4.2146741-14.7080243,9.7731768-11.2233307,7.8749213-23.6233571,19.7543903-1.3861187,24.7371763,12.0077876,31.4978233,23.6233571ZM618.5282694,311.0575411c4.959634.9779694,3.973699,7.8339967,0,7.8749213-5.7190769-1.7472607.4020458-3.4533898,0-7.8749213ZM575.2229779,287.4344116v-19.6903551c3.1649315,2.0819816,6.3918084,4.109735,11.8074682,3.9405124-1.6586666,7.5303727-1.4256157,16.9510559-11.8074682,15.7498427ZM614.5959501,279.5594903c-5.8242642-2.0506778-9.925806-5.8240366-15.7498427-7.8749213,1.3863463-5.1742088,6.9298902-6.1912407,7.8749213-11.8151855,5.8404023,3.3484093,8.4588312,9.9092127,7.8749213,19.6901068ZM657.9094348,271.6845689c4.0290858-8.7802486,26.3560769-3.1085929,23.6245157,7.8749213-11.5286099,1.0256803-12.1043266-8.8998982-23.6245157-7.8749213ZM724.8392419,299.2503006c15.6857868-8.6198813,37.1694582,6.1276607,43.3151398,19.6821619-3.8292836.1117254-3.0532475,4.8217152-3.9342227,7.8749213-14.8358878-7.4745307-31.5618378-13.0577992-39.3809171-27.5570833ZM842.9658551,507.9296436c3.8290353.1114978,3.0529992,4.8217152,3.9339744,7.8749213,3.6765923-2.8842111,5.9668796-7.1613066,7.88148-11.8074889,15.5497301,4.9825584,8.1390277,37.7617682-11.8154545,31.4978233,4.1015625-11.1511023,4.1095074-16.4059603,0-27.5652558ZM835.0909545,468.5566714c.9777625-4.9512339,7.8272312-3.9734714,7.8749006,0-1.7458124,5.7193045-3.4600933-.4001837-7.8749006,0ZM827.2176676,511.8703629c-14.3324201-4.285268-16.4947612-32.579118,3.9323192-31.5062234,3.1483382,7.3630122,6.5855899,14.4275315,7.874942,23.6329365-3.1729178,3.3797545-10.7820362,2.3379361-11.8072613,7.8732868ZM831.1499869,527.619978c4.566009-15.5560612,4.566009,15.5563095,0,0h0ZM815.4003925,582.7423377c-5.1662639-4.0143753-14.5145325-3.861746-19.6824102-7.8749213,8.0997997-11.5840174,17.808693-21.5654585,23.6247433-35.4399702,6.3604839-1.1056053,6.777261,3.7259376,11.8072613,3.9423745-3.0679373,15.3085275-6.7690678,29.9836135-15.7495944,39.372517ZM823.2752931,598.4907734c13.2102009-9.5172222-9.5172222,13.2099526,0,0h0ZM752.404746,712.6764398c-6.3607322,1.1140261-6.7775092-3.7175169-11.8156614-3.9342227v-7.8732455c7.064271.4955227,8.306202-4.8233911,15.7561738-3.9421676.4971365,7.0659262-4.8217359,8.3078158-3.9405124,15.7496358ZM650.0279547,728.4246272c-2.811962-10.6852489,18.5681358,2.8201552,15.7561531-7.8732868,4.6069129.6397726,3.3173331,7.1776516,3.9344296,11.8156614-9.1334249,1.2566208-15.1166288-.6331932-19.6905827-3.9423745ZM657.9094348,755.9896347c-7.0170774-2.8839215-.5677718-7.1610169,0-11.8154131,7.0100428,2.8924043.5609855,7.1613066,0,11.8154131ZM673.6590292,822.9281109c-.1114978,3.8290353-4.8217152,3.051344-7.8749213,3.9323192.1051874-3.8289526,4.8151772-3.0513026,7.8749213-3.9323192ZM657.9094348,720.5513404c-12.6244289-7.4352406,21.196351-33.4781348,19.6821826-7.8749006-7.0086773,2.1787275-16.3485045,2.0261189-19.6821826,7.8749006ZM638.2188521,606.3656948c14.9163093,4.7740458,31.7553916,7.6187392,43.3150984,15.7496151-3.6207296,13.449769-17.4395855,16.686453-15.7498427,35.438315-16.7734126-9.4758631-20.0019241-32.4982619-27.5652558-51.1879301ZM642.1530334,645.7384394c-6.921697-.9450518-8.9726024-6.769316-7.8749213-15.7498634,6.9298902.9532243,8.9805473,6.777261,7.8749213,15.7498634ZM685.466518,622.1153099c6.4245398-.6809041,7.9469014,25.76236-3.9325675,19.690562-3.2614705-11.1281986,5.5435646-10.1978987,3.9325675-19.690562ZM685.466518,586.6833053c8.6114605.5775788,8.4588105,9.9173852,7.8749006,19.6823895-5.8405886-3.3486576-8.4672106-9.9092127-7.8749006-19.6823895ZM673.6590292,657.5536249c.5694063-1.5139822,8.3311746-6.9607388,11.8074889-3.9405124,7.802693,6.785661-17.4477786,18.9769265-11.8074889,3.9405124ZM677.5916174,669.3695345c-9.2839852,12.665519-15.9172445-13.8502217,0,0h0ZM677.5916174,732.3670018c3.0613579-3.5092525,4.2375364-8.8921808,3.9423331-15.7498427,5.2796444,2.5873527,7.3303015,8.4113893,7.8749006,15.7498427h-11.8172338ZM677.5916174,759.9241057c4.5592227-15.5577164,4.5592227,15.5644613,0,0h0ZM689.4088511,846.5508267c-.1131323,3.8294491-4.8233084,3.053413-7.8749006,3.9343882.1033253-3.821049,4.8135427-3.0531647,7.8749006-3.9343882ZM685.466518,783.5554284c.1131323-3.8292836,4.8233498-3.0597855,7.8749006-3.941009-.1035322,3.8292422-4.8151979,3.051344-7.8749006,3.941009ZM701.2161124,838.6777467c-.6332346,4.6134302-7.1774447,3.3238711-11.8072613,3.9325675.6316208-4.6132647,7.177693-3.3157193,11.8072613-3.9325675ZM693.3414187,818.987433c.1115185-3.8292836,4.8217359-3.0532475,7.8746938-3.9342227-.1049391,3.8290353-4.8149083,3.0532061-7.8746938,3.9342227ZM693.3414187,720.5513404v-7.8749006h7.8746938v7.8749006h-7.8746938ZM689.4088511,696.926804c3.299126-4.566009,5.1908435-10.5573854,3.9325675-19.690562,11.5267478-1.025432,12.0961334,8.9085672,23.6228812,7.8830938.6105998,9.7892942-6.1832958,12.1847689-7.8732455,19.6822033-7.5072828-1.6733978-7.1217889-11.2462758-19.6822033-7.8747351ZM697.2821794,594.5582266c6.6820875-10.1978987,18.3056226,7.6252772,31.4994371,3.9325468.9924937,14.1239075-11.8238545,14.427304-11.8173165,27.5652558-9.7878873.6086757-12.1830723-6.1849303-19.6821205-7.8749213-4.6298166-10.44566,7.5467177-23.1834488,0-23.6228812ZM732.7141839,606.3656948c14.7244107-3.2042009,7.2891287,24.2724815,3.9407193,27.5652558-3.163028-2.0836161-6.3918084-4.109735-11.8156614-3.9423745-4.2048878-14.7063898,9.7813906-11.2216962,7.874942-23.6228812ZM815.4003925,511.8703629c-1.2173927,5.343452-9.8519431,3.2614705-15.7482289,3.934202,1.3929257-5.1678984,6.9364489-6.1933511,7.874942-11.8074889,4.2770954.9679555,2.6742916,7.8256173,7.8732868,7.8732868ZM807.5271056,484.3062658v-11.8086268c11.4874784-5.7913053,11.4874784,17.599932,0,11.8086268ZM795.7179823,511.8703629c-2.4181094-5.4631223-15.1558775-.5925376-15.7479392-7.8732868-10.6460209,3.5321562,8.2982157,9.5006289,11.8072199,11.8074889-10.1733812,12.4488545-24.6728928-3.9423745-35.4320046-3.934202,5.607786-21.9497317,12.1929207-42.9296459,39.3727239-43.3136915,9.2449433,13.6269572,8.8526632,30.2479681,0,43.3136915ZM772.0950597,527.619978c-.1114771,3.8292422-4.8216946,3.0515716-7.8749006,3.9325468.1049391-3.828994,4.8151979-3.0513233,7.8749006-3.9325468ZM768.1543817,539.4274461c.1114771-3.8292215,4.8216946-3.0515509,7.8732455-3.9325468-.1032839,3.8292422-4.8217359,3.0515716-7.8732455,3.9325468ZM768.1543817,559.1178013c5.7435944-13.0491301,9.7960805,15.3578521,0,0h0ZM776.0276272,641.8058719c-21.2604276-3.4059065-8.5950741-32.1803618,0-39.3727239,11.9206004,9.6432029-2.9793432,25.6260964,0,39.3727239ZM776.0276272,720.5513404c5.7438427-13.0493577,9.7974874,15.3559901,0,0h0ZM756.3452584,618.1811079c-16.1647576-7.3613777,18.601281-18.7125719-7.88148-15.7479599-.5609855-15.8302643,10.101339-10.4145838,19.6906034-7.8749213-.0640559,11.7431847-10.2390509,13.3857132-11.8091234,23.6228812ZM748.4637783,637.8634974c4.5658021-15.5562888,4.5658021,15.5658889,0,0h0ZM748.4637783,645.7384394v7.8746731h-7.8746938v-7.8746731h7.8746938ZM709.0910544,633.9309505c-1.7391088,5.7190769-3.4533898-.4004113-7.874942,0,.9780108-4.9512132,7.8340174-3.9734507,7.874942,0ZM697.2821794,641.8058719c4.5592227-15.5579233,4.5592227,15.5560819,0,0h0ZM705.1568317,669.3695345c6.3607322-1.1122054,6.7775092,3.7177238,11.8074682,3.933933,1.5635759,7.6420981-17.9267081,5.7522428-11.8074682-3.933933ZM716.9642999,657.5536249c-7.7059057-7.3611502-1.2091168-14.4189039,0-23.6226743,9.4940909-1.6109764,8.5640393,7.1940173,19.6906034,3.9325468,3.2532773,11.1347573-5.5503095,10.2060712-3.9407193,19.6901275h-15.7498841ZM724.8392419,732.3670018c8.5967293-.7136355,12.5292968,3.220339,11.8156614,11.8072199h-11.8156614v-11.8072199ZM736.6549033,755.9896347h7.874942v7.874942h-7.874942v-7.874942ZM752.404746,689.0519033c-7.1858448-3.0597441,2.3557087-4.2296742,7.8749006-3.9325675,5.6468485-11.6319352,3.0202678,9.1315214-7.8749006,3.9325675ZM768.1543817,787.4877063c-.1049805,3.8292422-4.8233911,3.0529578-7.8747351,3.9423745.1113116-3.828994,4.8214877-3.0597441,7.8747351-3.9423745ZM764.220159,803.2375489c9.8059288,1.6028039.2330508,15.2690512-7.8749006,11.8156614,1.3863463-5.1744571,6.9298695-6.1917373,7.8749006-11.8156614ZM748.4637783,665.4285255c3.1796627-15.2524165,24.0315064-13.9382986,23.6312813,3.941009-9.7091002.5135229-18.9769265.5939238-23.6312813-3.941009ZM783.9025692,767.8055443c-1.7145293,4.8397361-5.0384418,8.0832064-11.8075095,7.8667488-1.8423514-8.3952512,5.6242138-7.4976413,11.8075095-7.8667488ZM783.9025692,535.4948993c8.8033385,1.6981636,1.5946107,19.4018968,3.9423745,27.5573108-17.4477786-1.5555689-9.8781365-19.4822976-3.9423745-27.5573108ZM787.8449437,602.433148c3.1630694,2.0817333,6.3915602,4.1015418,11.8072199,3.9325468,2.1229062,15.244244-10.028883,16.2140616-11.8072199,27.5652558-11.0478184-6.2966557,5.5271782-17.7203265,0-31.4978026ZM791.777263,535.4948993h19.690562c-.9221067,14.8277153-14.8276946,16.670108-15.7498427,31.4975957-8.8837807-2.9314461-1.545286-22.0853126-3.9407193-31.4975957ZM819.3427256,464.616159c1.7143224-4.8397154,5.0381935-8.0831857,11.8072613-7.8749213-1.7143224,4.8462741-5.0300003,8.0897237-11.8072613,7.8749213ZM831.1499869,413.4343117c12.0487122-2.8596522,11.5844726,6.7938542,23.6313227,3.934202-3.7717244,8.0422818-8.050475,15.580827-11.8154545,23.6228812-6.3920153-6.7279156-11.9191935-14.3305374-11.8158683-27.5570833ZM835.0909545,444.9337695c-2.7874238,20.2910652-30.689304.2150506-31.4980302,15.7479806-20.8750164-18.0709579,12.248742-33.1957592,15.7498013-51.1881577,13.6975718,3.3645475,5.846961,28.2690635,15.7482289,35.4401771ZM626.4031907,637.8634974c-32.9874742-7.6895607-54.2168049-27.1489546-62.9956258-59.0633066,17.9842259-4.7658526,39.292323,21.0128731,66.9380004,19.6905827,1.4814784,17.9678602,6.5444377,27.5012206-3.9423745,39.3727239ZM524.0348203,645.7384394c12.5126828,8.9952578-5.0874975,20.85203-3.9423745,31.4978026-13.152683.0327314-10.4292943-15.8120365-19.6823895-19.6826171-1.8505652-13.6575782,21.3655943-2.2586939,23.624764-11.8151855ZM508.2849776,633.9309505c7.057733-.5053504,8.2998709,4.8214877,15.7498427,3.9325468,1.2500828,6.9544284-22.0612295,7.0332155-15.7498427-3.9325468ZM516.1598989,775.6722932c7.4336061.4413152,2.7315612,13.0262264,11.8072406,11.8154131-3.901243,10.2619753-24.0083545-4.5491674-11.8072406-11.8154131ZM516.1598989,854.4257273c9.797715-15.3559901,5.7354426,13.049606,0,0h0ZM508.2849776,708.742217c-26.6992393,4.0868313-25.3374312-17.7675201-15.7482082-31.5059751,9.4844908-1.6093419,8.5541909,7.194038,19.6823895,3.9421676,3.1630694,13.658261-5.8651681,15.1313393-3.9341813,27.5638075ZM512.2191589,885.9237575c-.6332139,4.6150854-7.1776516,3.3255263-11.8091027,3.9423745.6332139-4.6150854,7.1776516-3.325485,11.8091027-3.9423745ZM468.912233,763.8645767c-3.259836-11.1263158,5.5435439-10.1976711,3.9341813-19.6903551,7.7779272,2.7234093,10.4931226,10.5097159,11.8156614,19.6903551h-15.7498427ZM484.6620757,771.7395188c-.1133599,3.8292009-4.8233498,3.0515509-7.8749213,3.9327744.1033253-3.821049,4.8151772-3.0515509,7.8749213-3.9327744ZM429.5313159,759.9241057c-1.2173514-14.3406133.6332139-25.6195791,3.9423745-35.4320046,12.0386362-2.8596729,11.5826105,6.7935646,23.6231295,3.9325261,1.2171031,14.3485583-.625269,25.6277723-3.9409676,35.4399495-12.0321189,2.8433279-14.3469031-4.0291065-23.6245364-3.940471ZM453.1558523,779.6144194c-.1049598,3.8292422-4.8151772,3.051344-7.8749213,3.941009.1117254-3.8292836,4.8217152-3.0597855,7.8749213-3.941009ZM421.6563945,692.9942778c3.1728764,2.0817333,6.3934429,4.1097143,11.8172959,3.9325261.4952951,7.0659262-4.8233704,8.3078158-3.9423745,15.7496358-8.6032673-.5773719-8.4508656-9.9174059-7.8749213-19.6821619ZM417.7238477,736.2995693v-11.8074682c11.4792852-5.7913466,11.4792852,17.6003872,0,11.8074682ZM441.3469772,677.236242c-8.1063377-1.0728946-3.7076892-14.6586996-11.8156614-15.7482289,1.2255239-5.3434107,9.8615226-3.2616774,15.7496151-3.9343882,3.2600635,11.126771-5.5435439,10.1983746-3.9339537,19.6826171ZM441.3469772,700.8689716c8.4029479-1.8423927,7.4990482,5.6225172,7.8749213,11.8074682h-11.8156614c2.0833885-3.1649315,4.1095074-6.3934222,3.94074-11.8074682ZM449.2218986,665.4285255c15.0607454-.9053065,19.6903344,21.6446801,11.8154131,31.4982784-16.7816058-5.5830409-13.5381385-13.2971398-11.8154131-31.4982784ZM488.5943949,673.3034676c-2.081754,3.1649315-4.1094867,6.3920153-3.9323192,11.8158683-14.7802527,2.964612-8.5885568-15.044359-19.6905827-15.7498013,5.5190057-11.4713817,13.5612875,6.977539,23.6229019,3.933933ZM464.971493,657.5536249c.5364473-6.4801542,27.0271946-6.4801542,27.5652764,0-2.0113877,19.4988909-17.9839984-2.21779-27.5652764,0ZM476.7871543,704.8015391c-14.5881264-.4805846-9.9092127-5.7272908-7.8749213-15.7496358,6.921697.952976,8.9723541,6.7770127,7.8749213,15.7496358ZM461.0373116,740.2419024c9.797715-15.358059,5.7354426,13.0491508,0,0h0ZM461.0373116,783.5554284c7.0579813-.5054125,8.2998709,4.8149083,15.7498427,3.9322779-.7136355,11.4236708-18.7128202,9.4942978-15.7498427-3.9322779ZM476.7871543,720.5513404c13.4577346-1.6422802,22.4303164,1.1928132,19.6821619,15.7482289-9.589223-2.2182865-20.2515682-3.371582-19.6821619-15.7482289ZM516.1598989,728.4246272c9.6614514,3.4697348,22.7026366,3.5501771,23.6231295,15.7495944-8.4672313,7.3139565-26.7796402.59231-23.6231295-15.7495944ZM516.1598989,720.5513404c5.8717061-17.2394729,12.4325095.5119091,19.6821619,3.9407607-.4001837,7.5057931-14.6668928-3.140145-19.6821619-3.9407607ZM524.0348203,689.0519033c9.2757713,3.8455872,24.9762893,1.274621,23.6231295,15.7496358-14.6998518,1.5782243-23.1030479-3.1485865-23.6231295-15.7496358ZM524.0348203,681.1784096c3.1399174-7.3546328,6.5771691-14.4191521,7.8746938-23.6247847,15.0362072,3.3406713,18.9439883,17.8004998,23.6231295,31.4982784-16.4454779,3.3255263-18.5929016-7.6502913-31.4978233-7.8734937ZM484.6620757,629.988576c3.3320643-11.5351479,12.6718708,2.3559363,19.6821619,0-.1526293,19.8595777-16.2140616,8.5476529-19.6821619,0ZM484.6620757,645.7384394h-35.4401771c-1.978677-16.3978084-13.7697795-22.9749568-15.7482082-39.3727446,22.4368544,7.7550028,52.5663315,7.802693,51.1883853,39.3727446ZM445.280931,645.7384394c-6.3604839,9.8844263-18.9453952-6.9860012-27.5570833-7.874942,3.140145-7.3531845,6.5773967-14.4193383,7.8749213-23.6231088,9.9896136,7.0724642,12.4963171,21.6280868,19.6821619,31.4980509ZM409.8489264,626.0560292c-4.6132233-5.8880718-4.8939643-16.1091018-11.8156614-19.6903344.0722284-11.4400365,22.2531489-9.3089785,27.565504-3.9325468-3.8456079,9.2759989-1.2748692,24.9765169-15.7498427,23.6228812ZM401.974005,685.1193358c3.1649108,2.0819816,6.3934222,4.1015625,11.8091027,3.9325675v19.6903137c-10.3339347-1.9704631-22.1907275-12.7851893-11.8091027-23.6228812ZM413.7831077,712.6764398c-.1049598,3.8292009-4.8151772,3.0597441-7.8749213,3.9407193.1117254-3.8292422,4.8217152-3.0597441,7.8749213-3.9407193ZM398.033265,677.236242c-5.8240366-2.0424639-9.9255784-5.8240366-15.7496151-7.8667075,3.3418713-5.8554025,12.6816985-5.7027526,19.6903551-7.8815214.4971779,7.0645193-4.8217359,8.3064502-3.94074,15.7482289ZM382.2836499,759.9241057c10.7425185-2.8681144,7.9240184,7.825576,15.7496151,7.8814387-2.7233887,12.3373775-10.5012951,5.1267876-19.6821619,3.9339744,2.0819816-3.1644763,4.1015418-6.3932153,3.9325468-11.8154131ZM350.7858267,716.6171591c.1049598-3.8292422,4.8233704-3.0597441,7.8749213-3.9407193-.1117254,3.8292009-4.8219428,3.0597441-7.8749213,3.9407193ZM366.5356693,728.4246272c-.6334415,4.6148785-7.1778792,3.3255263-11.8158889,3.9423745.6400002-4.6150854,7.1858448-3.3255263,11.8158889-3.9423745ZM291.72252,563.0522102c5.4960813-10.2390302,20.3794317,2.8757903,27.5652764,3.9402848-2.0506571,5.8242435-5.8240366,9.925806-7.8746938,15.7498427-15.4282184,2.298646-10.0536695-16.1974683-19.6905827-19.6901275ZM303.5381814,641.8058719c4.5592227-15.5579233,4.5592227,15.5560819,0,0h0ZM279.9150519,397.6861035c-2.5952976,5.2794168-8.4193136,7.330074-15.7496151,7.8749213v-11.8170683c3.5010593,3.0611717,8.8837807,4.2376192,15.7496151,3.9421469ZM268.0996388,385.8704628v-7.8749213h15.7479599v7.8749213h-15.7479599ZM283.8475987,417.3685137c8.483597-14.435973-1.4733059,22.0217325,7.8749213,19.690562-3.3484093,5.8385196-9.9092127,8.4670037-19.6823895,7.8746938-1.5060373-14.6273958,15.9499345-10.2946653,11.8074682-27.5652558ZM303.5381814,362.2456988c-.8975892,5.6718419-11.7516055,1.3702082-11.8156614,7.8749213-5.343452-1.2171238-3.2680085-9.8613157-3.9325468-15.7498427,7.8174242.049304,5.0070759,10.7429737,15.7482082,7.8749213ZM287.7899732,334.68065c.1033253-3.8292215,4.8135427-3.0515509,7.8749213-3.9325468-.1131323,3.8292422-4.8233704,3.0515509-7.8749213,3.9325468ZM338.970186,366.1801077c7.2332867,17.7824996-19.4493593,32.059057-43.3052914,31.5059958.1033253-3.828994,4.8135427-3.0594958,7.8732868-3.9421469-1.1369505-10.3736592-23.2390839-8.3227539-11.8156614-19.6823688,8.4031961-1.8423927,7.4992965,5.6236965,7.8749213,11.8088751,8.4917902-11.2002201,21.7805092-17.5920078,39.3727446-19.6903551ZM315.3470565,362.2456988c.1117254-3.8287871,4.8217152-3.0515716,7.8732868-3.9405124-.1033253,3.8292215-4.8135427,3.0597441-7.8732868,3.9405124ZM342.9109053,377.9955415h7.8749213c1.105626,6.3607115-3.7240342,6.7774679-3.9407193,11.8158889h-7.8749213c-1.1058536-6.3607115,3.7256894-6.785661,3.9407193-11.8158889ZM299.5974414,440.9913949c-11.2791934-.5282541,3.4042927-27.027174-7.8749213-27.5570833,3.3486576-11.5517412,9.9092127,5.1185944,19.6905827,0,1.7388399,14.8606743-7.7699616,18.4814038-11.8156614,27.5570833ZM335.0376185,425.243435c-2.2755148,9.5401259-14.8688468,8.7558966-23.6245157,11.8156407.8973616-15.0855526,11.7123361-17.4395855,23.6245157-11.8156407ZM335.0376185,523.6794862c-2.0506571,5.8305747-5.824016,9.9239439-7.8749006,15.7479599-10.0141725-4.4213039-19.2015773-9.6679894-27.5652764-15.7479599,2.0836161-3.165159,4.109735-6.3934429,3.94074-11.8091234,12.3684743,2.0588503,21.9660974,6.9051244,31.4994371,11.8091234ZM319.2877965,496.1221547c1.0976604-9.1331766,10.5178884-9.052755,15.749822-3.9423538-1.2189859,5.3434313-9.8615226,3.2698705-15.749822,3.9423538ZM346.8451073,582.7423377c7.6813675-9.9498891,26.4430365,2.1789758,35.4385426,3.9409676-5.0694973,10.6787109-19.5690296,11.9271384-35.4385426,11.8074682.6397519-4.5739539-.8646302-7.0004841-3.934202-7.8749213.7447324-4.4690148,3.9505677-2.1869414,3.934202,0,4.9579995-.9679555,3.9734507-7.8255967,0-7.8735144ZM382.2836499,602.433148c18.625633-1.5700932,12.6015045,21.524534,23.6245364,27.5554281-6.5523826,8.8281456-21.3885187-7.2250935-31.4978233-7.8732661,1.6899911-7.4990689,8.483597-9.8945022,7.8732868-19.6821619ZM342.9109053,559.1178013c-9.2841714,12.6653121-15.9171825-13.8497252,0,0h0ZM283.8475987,515.8045649c-1.5619-7.6418912,17.936784-5.7520359,11.8172959,3.9407193h-7.8749213c.7201735-3.3488852-1.538748-3.7160893-3.9423745-3.9407193ZM311.4131027,539.4274461c-3.34843,5.8406299-9.909461,8.467252-19.6905827,7.8749213-2.7544649-13.6267089,13.8022626-14.1140798,19.6905827-7.8749213ZM323.2203433,551.2428799c-.6315794,4.615313-7.1776516,3.3175607-11.8072406,3.9344089.6332139-4.6071405,7.177424-3.3173125,11.8072406-3.9344089ZM338.970186,570.9334419v7.8667488h-15.7498427v-7.8667488h15.7498427ZM335.0376185,594.5582266c-2.4756066,9.5728573-19.8988264,2.0819609-15.749822-7.8749213,12.3850469-4.5099187,9.5646641,6.1769854,15.749822,7.8749213ZM319.2877965,673.3034676c5.7356702-13.0491508,9.797715,15.3559901,0,0h0ZM327.1627178,712.6764398c-12.5292968-3.461583-13.3380437-15.8138986-7.8749213-27.5571039,15.997604-3.7011305,13.6498609,21.3162903,7.8749213,27.5571039ZM323.2203433,649.6789311c2.0836161-3.1628211,4.109735-6.3915602,3.9423745-11.8154338,5.7602084,3.4288309,12.4799514,5.896265,11.8074682,15.7496151-8.2276425,1.6736254-10.4211218-2.6920642-15.7498427-3.9341813ZM335.0376185,629.988576c4.5576089-15.5560612,4.5576089,15.5577164,0,0h0ZM335.0376185,622.1153099c.1033253-3.8290146,4.8217359-3.0532061,7.8732868-3.934202-.1117254,3.8292422-4.8217152,3.0532061-7.8732868,3.934202ZM303.5381814,500.0547222c-8.8199525-4.3098268-19.7298521-6.5196719-27.5636213-11.8074889.8807476-12.2485351,19.5935678-6.65757,31.4978026-7.8830938,1.6093419,9.492684-7.1940173,8.5639979-3.9341813,19.6905827ZM275.9745601,456.7412376c.5757167-8.6032673,9.9171577-8.4522725,19.6903344-7.8749213-5.0629593,10.1981263-8.1472416,12.3766469-19.6903344,7.8749213ZM287.7899732,527.619978c1.6652046,8.2276425-2.700485,10.4227563-3.9423745,15.7498427-6.1440264-13.16249-5.2695685-8.8919532-23.6229019-7.8749213,1.6175351-10.6869041,18.7207651-16.246793,27.5652764-7.8749213ZM279.9150519,563.0522102c-.1114978,3.8290146-4.8217359,3.0595165-7.8749213,3.9402848.1051874-3.8287871,4.8151772-3.051344,7.8749213-3.9402848ZM279.9150519,582.7423377c6.352539-1.1053984,6.7774885,3.7242825,11.8074682,3.9409676,1.5619,7.6416429-17.9351288,5.7520152-11.8074682-3.9409676ZM295.6648946,598.4907734c-.6414071,4.6148578-7.1776516,3.3255056-11.8172959,3.9423745.6416347-4.6151061,7.1776516-3.3255263,11.8172959-3.9423745ZM299.5974414,614.2403885c-1.7456055,5.7272494-3.4519622-.4001837-7.8749213,0,.9777625-4.9512339,7.8354244-3.9734714,7.8749213,0ZM319.2877965,622.1153099c-.9777625,4.2770748-7.8337899,2.6742916-7.8746938,7.8732661-4.6134509-.6315794-3.3238711-7.1776516-3.94074-11.8074682,6.3604839-1.1137985,6.777261,3.7177445,11.8154338,3.934202ZM319.2877965,633.9309505c-.1114978,3.8292422-4.8217359,3.0515716-7.8746938,3.9325468.1049598-3.8292215,4.8149497-3.0515509,7.8746938-3.9325468ZM335.0376185,901.6736415c-3.5814602,10.6950559-13.7957039-4.0130098-19.690562-3.9325675,3.5798257-10.6950973,13.8024902,4.012927,19.690562,3.9325675ZM335.0376185,826.8604302c-.1131323,3.8292836-4.8233498,3.0613993-7.8749006,3.9424159.1033046-3.8290353,4.8219428-3.0595372,7.8749006-3.9424159ZM338.970186,692.9942778c9.2201362,1.0088387,2.2755148,17.2951287,0,19.6821619-9.2119637-1.0088387-2.2673422-17.2951701,0-19.6821619ZM342.9109053,673.3034676c.1049598-3.828994,4.8233704-3.0529578,7.8749213-3.933933-.1117254,3.8292009-4.8217152,3.0531647-7.8749213,3.933933ZM346.8451073,622.1153099c7.9141907,7.8421899,13.4740796,18.0316678,11.8156407,35.438315-13.9633126-6.8247029-17.0394224-18.464583-11.8156407-35.438315ZM358.660748,633.9309505v-7.8749213h7.8749213v7.8749213h-7.8749213ZM346.8451073,610.3064141c4.662548-7.1612859,20.5320609-3.0992411,27.5652558-7.8732661.5037366,7.0560985-4.8233498,8.2977605-3.9341813,15.7479599-12.3930126,1.8835242-15.396894-5.6075791-23.6310744-7.8746938ZM370.4761818,629.988576c22.1661893-6.4640161,19.5872574,28.8073936,0,23.6245364v-23.6245364ZM386.2260244,653.6131125c-.5053711-7.057733,4.8135427-8.2996433,3.9325468-15.7496151,11.1265641-3.2516428,10.2063195,5.5517164,19.6903551,3.9423745-1.4174432,10.3963354-9.459725,14.1615424-23.6229019,11.8072406ZM390.1585713,594.5582266c.6414071-4.6151061,7.1776516-3.3255263,11.8154338-3.9423745-.6397726,4.6150854-7.177424,3.3255056-11.8154338,3.9423745ZM386.2260244,578.8001908c-15.2526648-8.3702371-27.8541693-19.393476-43.3151191-27.5573108,3.7979178-8.0090952,15.1164012-8.5062731,27.5652764-7.8730592-2.931653-8.8837601-22.0855401-1.538748-31.5059958-3.9423745,3.0597441-3.5010386,4.2375778-8.8837601,3.9407193-15.7479599,18.489597,9.0756794,37.7157125,17.4148197,59.0630997,23.6228812-3.3713337,12.38484-14.8833504,16.6142453-15.7479806,31.4978233ZM390.1585713,271.6845689c7.4499718.336583-.9532243,16.8542893-11.8074682,11.8076957.433122-7.4336061,13.0180539-2.723368,11.8074682-11.8076957ZM401.974005,346.4979458c-16.1170674-.9466656-17.6953331-16.4307467-19.6903551-31.4996854,8.2276425-6.2162548,26.1478332-2.7315612,35.4401978-7.8730386,9.052755,13.9301261-13.7711864,23.9756024-15.7498427,39.3727239ZM421.6563945,322.8731818c8.4688658,7.2823631,2.5314693,28.9665816,11.8172959,35.4320046-4.9185025,8.4345206-16.1418332-9.7974874-27.565504-7.8749213,1.5144374-12.9212667,11.5188029-17.3591846,15.7482082-27.5570833ZM390.1585713,385.8704628c-3.1878352-.7447324-3.9243743-3.9503194-7.8749213-3.9421469v-7.8667281c8.4031961-1.8423927,7.4992965,5.6236965,7.8749213,11.8088751ZM401.974005,299.2503006c-8.6507299,12.0239257-25.2175333-4.5510502,0,0h0ZM382.2836499,354.3707775h-23.6229019c2.0506778-5.8221746,5.8240366-9.9237163,7.8749213-15.747753,5.8469404,4.6461823,17.5903733,3.4042927,15.7479806,15.747753ZM350.7858267,322.8731818c.5773719-8.6114605,9.9174059-8.4588105,19.6903551-7.8749213-.7365392,17.1280165-6.8494686,7.1694791-19.6903551,7.8749213ZM386.2260244,358.3051864c3.2205666,24.9536132-23.8641253,20.7880155-27.5652764,3.9405124,14.1220454-5.182402,14.4273246.2643546,27.5652764-3.9405124ZM366.5356693,385.8704628h-7.8749213c.7201735-3.3482024-1.5373411-3.7175169-3.9409676-3.9421469-1.5551137-7.633698,17.9351495-5.7520359,11.8158889,3.9421469ZM429.5313159,299.2503006c-13.6580541,1.8423927-2.2509766-21.3737875-11.8074682-23.624764,3.1237793-13.874491,18.5045351,11.9206004,19.6823895,0,11.0625289,6.3048488-8.5312872,14.7080243-7.8749213,23.624764ZM433.4736904,267.7440565c-1.2585035-6.9462352,22.0528087-7.0266568,15.7482082,3.9405124-7.0645193.4974055-8.3064295-4.8214877-15.7482082-3.9405124ZM417.7238477,196.8718748c.1033046-3.8292422,4.8151772-3.0515716,7.8749213-3.9325675-.1131323,3.8292422-4.8233704,3.0515716-7.8749213,3.9325675ZM405.9081863,267.7440565c9.9732686,4.4690148,11.4236708,17.4543373,11.8156614,31.506244-7.4974344-1.6916256-9.8928677-8.483597-19.6905827-7.8749213-3.1153792-13.6185571,4.3822828-16.6308386,7.8749213-23.6313227ZM370.4761818,192.9393073c-.3115896-14.7472937,15.4363909-13.4348102,27.5570833-15.7495944,6.144254,20.2990101-17.6478705,23.6967648-27.5570833,15.7495944ZM374.4103631,236.2446194c-1.7472607,5.7286563-3.4615416-.4001837-7.8746938,0,.9775349-4.9495994,7.8256173-3.9718369,7.8746938,0ZM346.8451073,350.4302651c-2.147672-5.7190769,4.6050301-20.3467003-3.934202-19.6821619,6.865855-12.440682,29.0238512,21.5163821,3.934202,19.6821619ZM335.0376185,291.3753792c9.6761826-18.7291859,20.2662994,11.0232388,0,0h0ZM335.0376185,212.6217175c-14.1879427,3.7733795-6.9775597-16.9900977-3.9423538-19.6824102,7.7222714-1.9066555,12.6819054,18.0482818,3.9423538,19.6824102ZM335.0376185,326.8073838c5.8553611,5.9586657,6.3441182,17.2869562,7.8732868,27.5633937-9.4842632,1.6114316-8.5541909-7.1921552-19.690562-3.9405124,3.7733795-8.0420542,8.0439163-15.5805994,11.8172752-23.6228812ZM260.2246968,232.3120519c1.7143017-4.8462535,5.0381935-8.0913582,11.8154338-7.8749213-1.7224742,4.8380809-5.0381728,8.083434-11.8154338,7.8749213ZM256.2839775,354.3707775c9.804253-15.3559901,5.7436151,13.0495853,0,0h0ZM252.3497754,291.3753792c-9.804253-1.6028039-.2313957-15.2690512,7.8749213-11.8158889-1.3945188,5.1746847-6.9298695,6.1919442-7.8749213,11.8158889ZM260.2246968,444.9337695h-7.8749213c.7220562-3.3486576-1.5373411-3.7174962-3.9407193-3.9423745-1.5537275-7.633698,17.9351288-5.7517876,11.8156407,3.9423745ZM248.4090561,492.1798009c5.8322092,2.0508847,9.9255784,5.8242642,15.7563807,7.8749213,1.9391593,5.1678984-19.5461259,1.730895-15.7563807-7.8749213ZM260.2246968,590.6158521c.5691787,11.0707014-9.645065,11.3596149-19.690562,11.8172959,2.3395706-12.5622558-7.3859366-12.1768033,0-19.6908103,7.4976413,1.6897428,9.892847,8.4838246,19.690562,7.8735144ZM240.5341348,476.4315927c-6.9217177-.9448035-8.9723748-6.777261-7.8749213-15.7498427,12.2651491-1.8421651,14.0748104,9.9012678,7.8749213,15.7498427ZM232.6592134,397.6861035c13.2101802-9.5169946-9.5169946,13.2101802,0,0h0ZM216.9112328,259.8693835c-3.9655058-11.8401996,8.7706485-6.9775804,15.7479806-7.8749213-.9450518,6.9298695-6.7690678,8.9805266-15.7479806,7.8749213ZM216.9112328,602.433148c5.7438634-13.0510129,9.7960805,15.3559694,0,0h0ZM216.9112328,472.497639c-1.6504734-1.6570528,2.5789319,2.5805457,0,0h0ZM220.8519729,594.5582266c.1033046-3.8292422,4.8151772-3.0597441,7.8746731-3.9423745-.1131323,3.8292215-4.8233498,3.0529578-7.8746731,3.9423745ZM212.9770515,480.3641395c4.5575882-15.5560612,4.5575882,15.5661165,0,0h0ZM209.0363115,582.7423377c9.797715-15.357397,5.7438634,13.0495853,0,0h0ZM216.9112328,795.3626483c17.086885,5.5993859.0474419,23.3194848,0,35.4401978-7.9078803-4.3902277-4.509898-30.4576601,0-35.4401978ZM224.7842921,763.8645767c5.3434313,1.2175996,3.2698705,9.8617501,3.9423538,15.7498427-9.1331766-1.0974328-9.052755-10.519316-3.9423538-15.7498427ZM220.8519729,681.1784096c7.5301451,1.6570114,16.9424076,1.4258226,15.7496151,11.8158683-7.5303934-1.6586666-16.9506007-1.4340158-15.7496151-11.8158683ZM232.6592134,862.300628c.5694063-1.5141684,8.3391403-6.9609871,11.8156407-3.9405124,7.7945205,6.783799-17.4543166,18.976761-11.8156407,3.9405124ZM260.2246968,874.1080961c-.1117254,3.8292836-4.8217152,3.0597855-7.8749213,3.9421676.1049598-3.8287871,4.8233704-3.0527509,7.8749213-3.9421676ZM256.2839775,653.6131125c5.7436151-13.0491301,9.804253,15.356197,0,0h0ZM252.3497754,559.1178013c2.0836368-3.1644556,4.109735-6.3915602,3.934202-11.8154338,6.3604839-1.1058536,6.783799,3.7256894,11.8156614,3.9405124-2.5873527,5.2878169-8.4197894,7.3302808-15.7498634,7.8749213ZM268.0996388,610.3064141c18.1842971-2.4347027,16.6305903,14.8686192,27.5652558,19.6821619-12.2092864,13.4988661-15.0607661.1362843-31.4994578,0-1.2568483-9.1315421.6250414-15.114746,3.934202-19.6821619ZM283.8475987,799.3049814c18.0482818,2.6184289-3.1630487,23.8314353,0,0h0ZM295.6648946,850.4852149c-13.6678611,3.4370034-13.5070386-6.0570875-7.8749213-11.8074682,4.8380809,1.7145293,8.0831857,5.0384004,7.8749213,11.8074682ZM279.9150519,685.1193358c-3.1876076-.7531118-3.9260088-3.9573126-7.8749213-3.9409262v-7.874942c8.3950029-1.8421858,7.497662,5.6241724,7.8749213,11.8158683ZM268.0996388,874.1080961c8.586674-.7119803,12.5290485,3.2287804,11.8154131,11.8156614-3.6765923-4.2048464-14.5306292-1.2255032-11.8154131-11.8156614ZM279.9150519,858.3601155c.6332139-4.6150854,7.1776516-3.3173331,11.8074682-3.9343882-.6332139,4.6153337-7.1776516,3.3257332-11.8074682,3.9343882ZM299.5974414,885.9237575c-.1033046,3.8292422-4.8151772,3.0529992-7.8749213,3.9423745.1131323-3.8292422,4.8233704-3.0597441,7.8749213-3.9423745ZM291.72252,700.8689716v-7.8746938c3.3486576.7201735,3.7175169-1.5389963,3.9423745-3.9423745,7.6418705-1.5619207,5.7501738,17.9365565-3.9423745,11.8170683ZM299.5974414,811.112491c5.7438634-13.0493991,9.7974874,15.3559901,0,0h0ZM303.5381814,669.3695345c.1049598-3.8290353,4.8151772-3.0597855,7.8749213-3.941009-.1117254,3.8294905-4.8217152,3.0515923-7.8749213,3.941009ZM331.0952647,870.17557c.6413864-4.6148785,7.1776516-3.3252781,11.8156407-3.933933-.6397519,4.6148371-7.1776516,3.3170849-11.8156407,3.933933ZM350.7858267,901.6736415c-.1117254,3.8289526-4.8217152,3.0515095-7.8749213,3.9406779.1049598-3.8292009,4.8233704-3.0597027,7.8749213-3.9406779ZM354.7197804,791.4300808c-9.2855783,12.6639466-15.9104169-13.8515873,0,0h0ZM338.970186,763.8645767c12.3848194-4.5096911,9.5728573,6.1851579,15.7495944,7.874942-1.5946107,8.7067995-23.0717027,5.2632581-15.7495944-7.874942ZM350.7858267,755.9896347c-3.3879063-3.1791661-2.3395499-10.7817465-7.8749213-11.8154131,3.6207503-10.7263804,12.3126117,5.5042952,23.624764,0,1.2007581,10.3900456-8.2194493,10.1569948-15.7498427,11.8154131ZM366.5356693,712.6764398c4.5573606-15.5577164,4.5573606,15.5563095,0,0h0ZM362.6012604,925.2965228c9.0775415-1.2007581,4.373862,11.37596,11.8091027,11.8172752-4.3984002,11.502251-12.8015964-5.0152691-11.8091027-11.8172752ZM358.660748,696.926804c7.0659262-.4971365,8.306202,4.8233911,15.7496151,3.9421676,1.2566208,6.944849-22.0546915,7.0252499-15.7496151-3.9421676ZM370.4761818,681.1784096c.1049598-3.8290353,4.8151772-3.0529992,7.8749213-3.9421676-.1114978,3.8292422-4.8217359,3.0597441-7.8749213,3.9421676ZM378.3511031,708.742217c1.145123-14.6586996,9.7895425,11.5842657,0,7.874942-6.5608034,9.2530952.3527211-1.4419607,0-7.874942ZM398.033265,929.2388559c4.0050028-2.56418,4.0688311-9.0527343,11.8156614-7.8749006-1.3138904,23.1752349-21.8050474,2.8514797-31.4978233,0-10.8951684-6.6000728,21.2276962-1.0334183,19.6821619,7.8749006ZM405.9081863,850.4852149c4.5657607-15.5577164,4.5657607,15.5642544,0,0h0ZM386.2260244,744.1742216v-19.6821205c17.4625098-.4085838,21.2835589,12.8408451,23.6229019,27.5570626-11.5267478,1.0336252-12.0961541-8.9001257-23.6229019-7.874942ZM417.7238477,901.6736415c-.1114978,3.8289526-4.8217359,3.0515095-7.8749213,3.9406779.1049391-3.8292009,4.8151772-3.0597027,7.8749213-3.9406779ZM401.974005,677.236242c3.0531854-3.5010593,4.2296329-8.8837394,3.9341813-15.7482289h15.7482082c1.8276615,12.6162771,14.9967102,13.8894497,15.7498427,27.5638902-23.4475965-9.5798712-14.9394406-4.1494802-35.4322322-11.8156614ZM425.598769,815.0532103c-.1131323,3.8290353-4.8233704,3.0532061-7.8749213,3.9342227.1033046-3.8292836,4.8151772-3.0532475,7.8749213-3.9342227ZM429.5313159,779.6144194c8.9249122,4.1966946,14.3076337,11.9435248,15.7496151,23.6231295h-19.6821619c-2.8449417-12.0320775,4.0211409-14.34711,3.9325468-23.6231295ZM437.4062372,838.6777467c-.1035529,3.8292422-4.8151772,3.0515923-7.8749213,3.9325675.1131323-3.8292422,4.8233498-3.0515923,7.8749213-3.9325675ZM472.8464143,921.3639553c-3.5092318,1.7391088-7.0416156,3.4519829-7.8749213,7.8749006-12.0484639-2.3869918-20.5156952-8.3636785-31.4978026-11.8156614,13.2412771-5.5928065,37.5368899-21.6294524,39.3727239,3.9407607ZM464.971493,889.866132c-.688849-6.4244984,25.7623807-7.9553015,19.6905827,3.9325675-9.492684,1.6109557-8.5639979-7.1939966-19.6905827-3.9325675ZM484.6620757,740.2419024c4.8380809,1.7143224,8.0831857,5.0381935,7.8746938,11.8072613-4.8479086-1.7143224-8.0911306-5.0381935-7.8746938-11.8072613ZM496.4693162,795.3626483c4.6150854.6413864,3.3238711,7.1776516,3.94074,11.8156614h-11.8156614c-2.1621549-8.7313791,7.5222002-5.6076205,7.8749213-11.8156614ZM547.6579498,905.6143195c-7.8421899,11.8238545-33.4846728,13.3871821-47.2478935,7.874942,7.1383822-24.3844345,36.8412546-10.6787109,47.2478935-7.874942ZM535.8420608,716.6171591c2.5955252-5.2859342,8.4197894-7.3368395,15.7498427-7.874942.5037159,7.0579813-4.8151772,8.299664-3.9339537,15.7498841-5.1746847-1.3945809-6.1919442-6.9298695-11.8158889-7.874942ZM555.5326435,830.8028461c-3.34843-.7300218-3.7177445,1.5373411-3.94074,3.9325261-4.6150854-.6332346-3.3173331-7.1776516-3.9339537-11.8072613,6.6966118-1.4503608,7.4268198,3.0679787,7.8746938,7.8747351ZM563.4075649,874.1080961c-.1051874,3.8292836-4.8233704,3.0597855-7.8749213,3.9421676.1114978-3.8287871,4.8217152-3.0527509,7.8749213-3.9421676ZM563.4075649,724.4921011c-5.343452-1.2173927-3.2682567-9.8620398-3.934202-15.7498841h11.8091234c2.8675971,10.7427668-7.8274794,7.9224046-7.8749213,15.7498841ZM555.5326435,645.7384394c.4887571-8.6921097,16.7028187-1.6668598,23.6228812-3.9325675.6168689,19.0800242-16.0761428,8.4031961-23.6228812,3.9325675ZM543.7169822,637.8634974c10.2373957-6.8560067-6.3604839-13.8024902-3.9339537,0-13.433424-6.2475586-12.2880528-27.0846711-23.6231295-35.4303494-5.896265,1.1448747,2.4265302,20.8190917,7.8749213,23.6228812-17.1427477,3.4519829-54.7862318-8.0913582-59.0633273-39.3727239-9.5253947,3.5730394,8.9232777,11.6155488,3.94074,23.6231088-11.8878897-3.8687392-23.463714-8.0422818-35.4385426-11.8156407,1.2173514-5.343452,9.8598881-3.2680085,15.7482082-3.9325468-17.3676053-3.9096638-38.8594286-2.4756273-59.0633273-11.8158889,3.4533691-12.2976529,10.7032491-20.7959811,15.7496151-31.4994578,58.4939003,26.8207717,127.2745417,43.3464229,177.1897129,78.7456961-2.0277534,13.7237445-25.7310562,5.7765741-39.3809171,7.8749213ZM583.0978993,645.7384394c6.921697.9532036,8.9726024,6.7772403,7.8749213,15.7495737-6.9298902-.946438-8.9805473-6.7690471-7.8749213-15.7495737ZM590.9728206,641.8058719c3.3797338-8.1308759,27.4046816-4.1590597,31.4978233,0,1.7376605,14.8669847-7.763196,18.4797693-11.8154338,27.5636626-6.4574781-16.5174994-10.0863802-12.785272-19.6823895-27.5636626ZM634.278112,815.0532103c7.0168498,2.8842111.5691787,7.1613066,0,11.8072199-7.0086566-2.8823077-.5691787-7.1610169,0-11.8072199ZM626.4031907,708.742217v-7.8732455h7.8749213v7.8732455h-7.8749213ZM634.278112,696.926804c-3.5010593-2.4183163-7.041388-4.757887-7.8749213,0-7.769734-2.7236162-10.4933502-10.5015227-11.8072406-19.690562,10.8788027,2.2509766,22.0773676,4.1738116,19.6821619,19.690562ZM618.5282694,704.8015391c-.1673605,6.736295,2.9335151,10.1981263,7.8749213,11.81562-3.8930498,7.4188956-23.9837956-1.9541181-23.6229019-11.81562h15.7479806ZM626.4031907,744.1742216c-3.0515509,3.5092525-4.2294053,8.8921808-3.9325468,15.7498841-18.6174605,1.0892396-9.1642735-16.8309305,3.9325468-15.7498841ZM630.3455652,807.1783096c3.4519622,12.6342359-10.2142644,8.1635659-11.8172959,15.7498013-10.5260816-4.5823126-.3445486-20.8997202,11.8172959-15.7498013ZM626.4031907,846.5508267c-1.3847118,5.1762778-6.9282557,6.193558-7.8749213,11.8092889-4.6132233-.6331932-3.3154504-7.1776516-3.9323192-11.8092889h11.8072406ZM618.5282694,909.5485422c1.3634426-4.7513903,10.478619-3.1815247,11.8172959,0,3.5716532,8.5146732-14.4191314,9.1231213-11.8172959,0ZM622.4706439,897.741074c2.587332-5.2875894,8.4113686-7.3384534,15.7482082-7.874942-.9450518,6.9217177-6.7756058,8.9723748-15.7482082,7.874942ZM646.0937734,657.5536249c6.3604839-1.1135916,6.7772403,3.7261652,11.8156614,3.9343882-.280741,11.5351893-1.4340365,22.205707-15.7564014,19.6903965,4.5346845-4.6541479,4.4624561-13.9154362,3.94074-23.6247847ZM685.466518,862.300628c-7.0579813,11.3187317-17.2065553,19.5382017-31.4978233,23.6231295-.1117254-3.8292009-4.8217359-3.0515509-7.8749213-3.9325675,24.0971554-10.3257415,3.6125571-18.9701403,39.3727446-19.690562ZM693.3414187,866.2416369c8.235815,2.2589215,11.2397378,9.7579283,23.6228812,7.8664592-5.9275688,11.1347987-20.4025423,13.7237652-35.4303494,15.7580359,3.7651864-8.050475,8.0422818-15.5808477,11.8074682-23.624495ZM716.9642999,850.4852149c3.9818922-11.0788532,16.7276052,1.089281,23.6247847,0-3.973699,11.0870464-16.719412-1.0810878-23.6247847,0ZM728.7816164,838.6777467c.5757167-8.6114605,9.9174059-8.4522725,19.6821619-7.8749006-3.3402162,5.8387265-9.9010609,8.4672106-19.6821619,7.8749006ZM760.2796466,858.3601155c-.6334415,4.6130164-7.1778585,3.3239125-11.8158683,3.9405124.6400209-4.6148371,7.1858448-3.3236229,11.8158683-3.9405124ZM772.0950597,838.6777467c12.3357636,2.723368,5.1267876,10.5015227,3.9325675,19.6823688-7.0645193.5037573-8.3064089-4.8151566-15.7479806-3.9343882-3.4617485-12.6489671,12.9771914-5.3990664,11.8154131-15.7479806ZM772.0950597,815.0532103c.8728648-1.6425285,11.3825807-7.5944286,15.7498841-3.9407193,6.0472391,5.0708835-22.5107586,16.5814932-15.7498841,3.9407193ZM787.8449437,862.300628c9.7958322-15.3559487,5.7354012,13.049606,0,0h0ZM779.9700431,803.2375489c.5756753-8.6032673,9.9173646-8.4506587,19.6821205-7.8749006,2.7628856,13.6348814-13.8022626,14.1239075-19.6821205,7.8749006ZM795.7179823,586.6833053c.1051874-3.8292422,4.8151566-3.0597441,7.874942-3.9409676-.1115185,3.8294698-4.8217359,3.0515509-7.874942,3.9409676ZM803.5929243,590.6158521h7.8749006v7.8749213h-7.8749006v-7.8749213ZM819.3427256,803.2375489c-1.7226811,4.8462741-5.0400142,8.0913996-11.81562,7.874942,1.7210673-4.8383292,5.0384004-8.0832064,11.81562-7.874942ZM815.4003925,767.8055443c9.7977356-15.3641419,5.7435944,13.0428197,0,0h0ZM815.4003925,610.3064141c3.6782475,4.1978739,14.5240498,1.2255446,11.8172752,11.8088958-8.5885361.7119803-12.5292554-3.220339-11.8172752-11.8088958ZM839.0249289,783.5554284c-.6332346,4.6131819-7.1776516,3.3154297-11.8072613,3.9322779.6315794-4.6132233,7.1774447-3.3236229,11.8072613-3.9322779ZM846.8998296,563.0522102c.9532243-6.921697,6.777261-8.9725817,15.7564221-7.8749213.608655,11.0297975-11.1347987,12.8488314-15.7564221,7.8749213ZM870.5311523,570.9334419c-4.2065016,3.670075-1.2255446,14.5243188-11.8156614,11.8088958,4.2048464-3.6698267,1.2255032-14.5238429,11.8156614-11.8088958ZM866.5903916,543.3698207c-11.792737-2.5887389,3.7652277-8.4195618,0-15.7498427,9.7958736.59231,1.1533369,13.3298712,0,15.7498427ZM858.7154909,476.4315927c-11.9369868.1198979-3.8128972-19.8100254-15.7496358-19.6903551,5.1267876-9.3087096,21.2850072-7.5860078,31.4976164-11.8074682-.8644233,14.883578-12.3766469,19.1211557-15.7479806,31.4978233ZM850.8407972,362.2456988c11.0786463.7369943,16.7748195,6.8496755,15.7495944,19.6826171-13.8910636,1.5946314-21.6297006-13.3380437-15.7495944-19.6826171ZM835.0909545,381.9283159c6.3604839-1.1058743,6.777261,3.7256687,11.8088751,3.9421469-.8891684,5.6716143-11.7450675,1.3765186-11.8088751,7.8734937-5.8471679-1.7145086,1.5551344-5.0383797,0-11.8156407ZM858.7154909,409.4935924c-9.4286281-2.37884-17.9596877-5.6632142-31.4978233-3.9325675,6.7527228-11.8649653,32.6756569-16.4059603,31.4978233,3.9325675ZM823.2752931,397.6861035c-16.9590008,5.0220347-27.7162505-2.0111394-47.2476659-3.9421469,7.8665419-17.0704986,24.0249271-25.8493196,31.4994785-43.3136915,24.2955921,4.6709688,26.5384168,26.771447,15.7481875,47.2558384ZM803.5929243,314.9982605c-2.2033071,11.4070775-6.1440678-6.0392942-11.8156614-3.9407193,3.8455872-13.0491508,7.7863479,4.3984002,11.8156614,3.9407193ZM795.7179823,334.68065c-17.1343269-1.4092707-18.1038962-.59231-27.5636006-3.9325468,3.9325261-10.0847664,28.1886419-11.3184628,27.5636006,3.9325468ZM756.3452584,291.3753792c9.5894299,2.2180176,20.2515475,3.364775,19.6823688,15.7498427-5.6470968-6.1688129-20.5222126-3.1008963-19.6823688-15.7498427ZM752.404746,279.5594903c-1.7227224,4.8465017-5.0384004,8.0834133-11.8156614,7.8749213,1.7224742-4.8460466,5.0381521-8.0829581,11.8156614-7.8749213ZM720.9067158,259.8693835c-.5939652,9.7972184-13.3380644,1.1532748-15.7498841,0,.9450311-10.1504568,6.769316,5.4072596,15.7498841,0ZM736.6549033,271.6845689c-3.3238711,21.6365076-20.8275125.8566853-35.4387909,0,6.769316-10.2864928,20.3878525,5.5521716,35.4387909,0ZM724.8392419,287.4344116c.7299805,3.3486576-1.5291893,3.7160893-3.9325261,3.9409676v7.8749213c-14.219081-4.1655977-30.6806556-6.0720463-35.4401978-19.6908103,12.3929919-9.516767,23.6245364,8.4344999,39.3727239,7.8749213ZM697.2821794,228.3713326c-.6400209,4.6134302-7.1776516,3.3238711-11.8156614,3.9407193.6416347-4.6148578,7.1776516-3.3238711,11.8156614-3.9407193ZM693.3414187,259.8693835c-14.7080243,4.2130189-11.2233514-9.7731768-23.6228812-7.8749213,3.0515509-7.7945411,25.3767213-2.1228855,23.6228812,7.8749213ZM653.9686947,126.001307c4.5575882-15.5562888,4.5575882,15.5577164,0,0h0ZM653.9686947,133.8762283c8.7640898,1.6502458,3.0842823,20.8913408,0,23.6226743-11.0872947-3.9797611,1.0892603-16.7257431,0-23.6226743ZM650.0279547,169.3082536c4.5657814-15.557944,4.5657814,15.5642337,0,0h0ZM650.0279547,181.1234184c4.5657814-15.5574475,4.5657814,15.5565578,0,0h0ZM669.7185374,224.4371306c-11.0709497,11.2628484-22.3665088-7.9223632-35.4404254,3.934202-9.5973955-12.2651491,25.8180158-6.865855,35.4404254-3.934202ZM634.278112,114.1856663c16.6472043,7.7699616-3.107186,42.9542048,3.94074,66.9377521-25.4341978-8.3471059,5.7520359-37.6906778-3.94074-66.9377521ZM622.4706439,216.5624575c.4971779,7.057733-4.8233704,8.299395-3.9423745,15.7495944-5.8387472-3.3486369-8.4588105-9.9092127-7.8730592-19.6903344,3.1712419,2.0833885,6.3915808,4.109735,11.8154338,3.94074ZM614.5959501,173.2487453c-16.6785081-12.104099-2.5396625-32.539621,0-51.1881577,6.5278444,8.0750132,6.5278444,43.1133721,0,51.1881577ZM594.9053674,86.6203899c9.0841002-1.2009857,4.3738827,11.3839256,11.8156614,11.8154338-4.7579076,11.8649653-17.2149761-.6005032-11.8156614-11.8154338ZM590.9728206,137.8085682c3.3320643-17.6151598,6.8807931,22.2942597,3.9325468,27.5652558-1.1862545,2.1231131-8.0504543-5.8078985-3.9325468-27.5652558ZM590.9728206,212.6217175c11.1020259,4.6379891,11.9748286,19.5213394,15.7482082,31.4978233-8.6754957-5.760229-16.9096968-11.9599112-31.4980509-11.8074889-1.6668391-13.4740796,11.7911232-11.8320064,15.7498427-19.6903344ZM567.3482842,185.0562135c.1049598-3.8208215,4.8151772-3.0515716,7.8746938-3.9327951-.1114978,3.8294905-4.8217152,3.0515716-7.8746938,3.9327951ZM571.2824862,137.8085682c5.6942904.9466656,9.1560803,32.4117575-3.934202,27.5652558.0409039-10.4620257-1.4896509-22.4859515,3.934202-27.5652558ZM571.2824862,220.4964113c-18.7291859-9.6780447,11.0213767-20.2679339,0,0h0ZM571.2824862,287.4344116c-6.3689047,9.8849021-18.945871-6.9936978-27.565504-7.8749213,6.104757-29.2465984,27.572042-17.431206,27.565504,7.8749213ZM543.7169822,145.6834896c16.967194,3.6373229,5.975259,12.4177783,11.8156614,23.624764-3.5092525-3.0532061-8.8919532-4.2298811-15.7496151-3.9344296-1.2568483-9.1313145.6329863-15.1164012,3.9339537-19.6903344ZM547.6579498,216.5624575c7.8828663,5.2398785,8.7720347,17.4723168,11.8154131,27.5570833-15.3807558-.3756455-28.6613023-2.835114-31.5062234-15.7482082,11.2792141.7760361,21.4936853.4873502,19.6908103-11.8088751ZM516.1598989,66.9377728c5.2793962,2.5875803,7.3300533,8.4197894,7.8749213,15.7498427-6.9298902-.9448035-8.9807749-6.777261-7.8749213-15.7498427ZM547.6579498,251.9944621c1.0252044,11.5267271-8.900374,12.1043059-7.8749213,23.6310744-12.047057-2.3870332-20.514309-8.3620646-31.4980509-11.8158889,4.8151772-21.6687838,20.6765177-20.1793398,39.3729722-11.8151855ZM500.4100562,149.6258434c11.464554-1.3781738,3.950547,18.4877143,3.9341813,23.6229019-8.6918614-.4887778-1.6668391-16.7028394-3.9341813-23.6229019ZM504.3442376,275.6255366c-.81694,11.3119248,1.0006662,19.9953861,7.8749213,23.624764-5.5206195,11.4626919-13.5629013-6.9857529-23.624764-3.9423745,2.4592409-9.3482272,5.2959894-18.3271401,15.7498427-19.6823895ZM484.6620757,287.4344116c-17.4395855.3758524-27.0519604-7.0741194-23.624764-27.5650282,15.4052941-2.2837079,22.8552659,3.3876787,31.4994578,7.8746731,2.9318806,12.127251-10.8147469,7.5698697-7.8746938,19.6903551ZM461.0373116,188.9983397c.1049598-3.8287664,4.8151772-3.0529578,7.8749213-3.9421262-.1114978,3.8292422-4.8217152,3.0597441-7.8749213,3.9421262ZM484.6620757,173.2487453c-13.8433941,1.995022,1.7290329-27.4766824-7.8749213-27.5652558,7.6189668-13.6580541,15.227899,26.2431929,7.8749213,27.5652558ZM492.5367694,185.0562135c-.6414071,4.6148578-7.1776516,3.3255263-11.8170683,3.9421262.6332346-4.6146095,7.177424-3.3170849,11.8170683-3.9421262ZM484.6620757,236.2446194c6.9214694.9532036,8.9723748,6.7772196,7.8746938,15.7498427-9.1331766,1.2582553-15.1164012-.6332346-19.6903551-3.9325675-1.5635138-9.4368213,17.934922,2.1869414,11.8156614-11.8172752ZM464.971493,177.1897129c-8.9723541-8.089972-.1196703-34.0047544-7.8746731-43.3134846,13.5051765,2.7561201,14.6273958,32.7070021,7.8746731,43.3134846ZM464.971493,220.4964113c-.1049391,3.8292215-4.8233498,3.0597441-7.8746731,3.9407193.1112495-3.828994,4.8214877-3.0594958,7.8746731-3.9407193ZM457.0968199,295.3079261c-11.1268124-3.2516428-10.1981263,5.5517164-19.6905827,3.9423745,1.1696612-8.0193781,7.891287-10.4949847,11.8156614-15.7580359,3.1892214.7531118,3.9257605,3.9571057,7.8749213,3.9421469v7.8735144ZM429.5313159,177.1897129c-6.0720256-16.5737966,20.3796593-.625269,19.6905827-11.8158889,15.8054778,8.5474046-16.398036,22.3583156-19.6905827,11.8158889ZM366.5356693,55.1223183c32.0176773-.6331932,48.7452825,44.5390292,78.7452616,59.063348-.4887778,16.2451378,6.8494686,24.6565271,3.9409676,43.3132363-2.6906573-7.809231-23.455769,2.4594892-19.6905827-11.8154131-4.5903196,9.8451569-12.1912862,16.6782805-27.5573108,15.7498427-2.3377085-12.560373,7.3861435-12.1765964,0-19.6824102-4.0849692,16.91789-10.1174978,31.8818689-27.5636419,35.4387909-13.3462162-13.50588-.0967666-35.9111823-11.8091027-55.1291253-6.1996615,13.410272,12.4014126,61.9145381-15.7561531,59.0628307-4.2934611-16.7025704-2.9564395-39.0361202-11.8074889-51.1879094-13.1461243,11.2707933,16.501113,56.3544216-11.8172752,59.0628307-4.5409949-27.4698961-3.5632324-40.1188425-11.8072406-59.0628307-6.5444377,17.5903526,7.4104748,56.2265581,0,66.9363659-20.5470197-5.7027112-11.4073051-41.0938119-19.6905827-59.0633066,22.4139714-29.3667653,38.6525711-81.9658075,74.8131493-82.6862499ZM279.9150519,141.7509221c11.6155695,22.0053668,8.0916065,34.9579787,15.7498427,59.0633066-5.24832,9.6532789-11.8895242-7.09723-15.7498427,3.9325675-9.4365937-10.2537614-12.2880528-27.0849194-15.7496151-43.3134639,6.7461641-5.0629593,15.4772948-8.1390691,15.7496151-19.6824102ZM248.4090561,181.1234184c11.9189659,5.1436085,15.6612486,18.4652864,15.7563807,35.4390391-18.2486013,1.9784287-22.0528087-25.2899893-15.7563807-35.4390391ZM252.3497754,405.5610248c-.1114771,3.8292422-4.8217152,3.0515509-7.8749213,3.9325675.1049598-3.8292422,4.8233704-3.0515716,7.8749213-3.9325675ZM236.601588,425.243435c.1033046-3.8292422,4.8219428-3.0532061,7.8732661-3.934202-.1114978,3.8292215-4.8217152,3.0531854-7.8732661,3.934202ZM240.5341348,228.3713326c-10.4374875-3.9980096-10.6623452-18.2091043-19.6821619-23.6245364,10.8147469-11.8238545,18.7684346,12.5129104,19.6821619,23.6245364ZM220.8519729,232.3120519c-.5841375,8.7804555-9.9258267-5.1104012-19.6905827,0,2.8596522-12.0484639-6.793606-11.5844726-3.9325468-23.6229019,19.3525721-3.6141709,12.3275498,19.1604458,23.6231295,23.6229019ZM197.2288433,114.1856663c17.0623261,1.6420733-4.1506389,22.8550383,0,0h0ZM205.1021302,177.1897129c-14.7309487-2.6677536,2.9087286-13.0888754-11.8156614-15.7563807,5.4486394-11.3923463,13.9306019,6.6164178,11.8156614,15.7563807ZM193.2864688,244.1195408c2.7233887,2.723368-15.5331575,10.8542439-11.8072406,3.9423538.5773512-1.0827223,8.4670037-7.2825907,11.8072406-3.9423538ZM185.4115475,240.1869733c-15.5806201,2.3952057-20.7632497-17.4559512-15.7479806-23.6245157,14.6110301-1.425864,23.19818,15.0212484,15.7479806,23.6245157ZM177.5384882,173.2487453c-4.5741815-.6414071-7.0102911.8646095-7.8749213,3.9409676-20.965183-21.203158-23.367175-74.5948503-31.4980509-86.6274037,22.9817431,17.7039608,23.9281812,57.4443853,39.3729722,82.6864361ZM130.290843,118.1263649c12.8163069,16.054915,18.5765359,39.1726734,23.6231295,62.9970534-18.9687747-8.0581716-26.1791577-46.2546964-23.6231295-62.9970534ZM122.4159216,161.4333322c15.6446553-3.8292422,1.6175144,22.0053668,15.7495944,19.6900861-7.435013,10.9512794-17.4311854-8.5078869-15.7495944-19.6900861ZM130.290843,248.0618946c-6.5526309-7.8912663-14.291268-14.5881057-15.7498634-27.5654833,6.224448,8.2112768,12.8326933,16.0368734,15.7498634,27.5654833ZM110.6002603,377.9955415c10.1569948,5.4077148.8728027,24.1284799,0,31.4980509-10.1504568-5.4075079-.8728234-24.1201005,0-31.4980509ZM102.725339,582.7423377c11.792737,2.5875596-3.7651864,8.4181342,0,15.7484358-9.7893149-.59231-1.1533162-13.3298712,0-15.7484358ZM90.9180984,421.309233c7.9059975,4.3902277,4.509898,30.4576394,0,35.4320046-9.7584456-6.2326205-1.6109764-27.5407176,0-35.4320046ZM79.102437,527.619978c-9.2776334-3.3322919,3.2762017-17.2705905,3.94074-23.6229019,11.4629195,5.5190057-6.9857529,13.5612875-3.94074,23.6229019ZM67.2933344,464.616159c12.0239257,10.3178172,10.6310207,13.5528667,3.9341813,27.5636419-8.8033592-1.697936-1.5946107-19.4016692-3.9341813-27.5636419ZM59.4118543,547.3023675c-10.1504361-5.399294-.8660164-24.1200591,0-31.4978026,17.1591134,5.4631223.3922388,20.3467003,0,31.4978026ZM47.6029793,472.497639c15.6135791,3.5894051,18.5141352,36.2884416,7.8749213,43.3069259-11.7107016-5.3516245-6.9219246-27.2045897-7.8749213-43.3069259ZM35.7873386,519.7452842c7.3777434,6.4719817,11.6793771,23.5754393,0,27.5570833,1.7224742,5.8471886,5.0400349-1.5455343,11.8156407,0,2.339343,8.1636073-4.8694054,25.8673405,3.9339537,27.5650489-4.1980808,8.9480435-11.9369661-11.3116972-23.6245157-7.8749213-.7038285-19.0814518,3.133607-33.6204812,7.8749213-47.2472108ZM27.9124173,582.7423377h11.8172752c-3.0613786,3.5078249-4.2378261,8.8921808-3.9423538,15.7484358-6.9217177-.9450518-8.9726024-6.7774885-7.8749213-15.7484358ZM20.0391304,618.1811079c8.6114398.5775995,8.4590381,9.9174059,7.8732868,19.6823895-13.2249321,4.0456998-6.1276814-12.2406109-7.8732868-19.6823895ZM27.9124173,669.3695345h11.8172752c.4953158,7.0579399-4.8233498,8.2998709-3.9423538,15.7498013-5.2794168-2.5957528-7.330074-8.4197894-7.8749213-15.7498013ZM43.6622599,700.8689716c11.7925094,2.5873113-3.765207,8.4113479,0,15.7481875-9.7895425-.5925169-1.145123-13.3380644,0-15.7481875ZM59.4118543,712.6764398c19.4904908,3.387927-5.8485749,20.4516187-7.8749213,27.5654627-11.7284535-8.2112354,9.9010402-16.0384666,7.8749213-27.5654627ZM71.2275157,771.7395188c-10.3816248,1.2012132-10.1586293-8.21947-11.8156614-15.7498841,8.2342012-1.6649563,10.429315,2.7007332,15.7564014,3.934471-2.0819816,3.1712212-4.109735,6.391767-3.94074,11.8154131ZM83.043177,795.3626483c-7.8190587-7.4499718-1.9146211-18.6011155,0-27.5571039h11.8072406c8.652592,9.8059288-.3197621,25.8673198-11.8072406,27.5571039ZM98.7927921,815.0532103c-8.7886487-9.948689,8.5950948-17.5906216,7.8732661-31.4977819,8.2276632-1.6668598,10.422777,2.6920021,15.7498634,3.9322779-1.8982554,15.1657259-8.0341093,26.0922188-23.6231295,27.565504ZM114.5409796,830.8028461c3.670075-24.5137049,19.2343087-16.197489,27.5571039-31.4978646,9.9421717,11.4793266-10.3816248,26.1938889-15.7496151,35.4303908.7528842,3.196049,3.950547,3.9259881,3.9423745,7.874942,20.4189287-3.1960077,16.5585895-30.6890557,39.3727239-31.4978233,9.1397353,16.2140409-16.8472755,26.4596298-19.690562,43.3132363-18.6338262-1.0563013-22.1661893-17.2063277-35.4320253-23.6228812ZM153.9139725,866.2416369c3.5400804-6.9694286,9.5003806-11.4940578,11.8154131-19.6908103,4.1015418,6.5773967,15.3017412,19.6908103,19.6821619,3.9343882,19.131211,28.6858612-12.8637695,35.1597257-31.497575,15.7564221ZM189.353922,838.6777467c-7.0184843-2.8841697-.5691787-7.1626721,0-11.8173165,7.0086566,2.8842525.5677718,7.1629618,0,11.8173165ZM193.2864688,889.866132c2.964612-12.7852307,6.5297065-24.9699582,23.624764-23.624495,2.8594246,12.0402707-6.7938336,11.5760311-3.9341813,23.624495,5.3186656-3.8701254,7.8665006-10.5096745,11.8072406-15.7580359,12.2981081,8.7807037-7.7451958,18.2009318-7.8730592,27.5655454-11.7516055-.0643042-13.3873683-10.2374371-23.624764-11.8075095ZM248.4090561,917.4231945c-7.3548397-3.1398967-14.419359-6.5773553-23.624764-7.8746524,2.3084737-8.1867386,8.2753327-12.7212162,11.8172959-19.6824102,10.1406084,2.9793432,13.6811854,12.5685662,11.8074682,27.5570626ZM248.4090561,889.866132c.1114978-3.8292422,4.8217152-3.0597441,7.8749213-3.9423745-.1049598,3.8292422-4.8151772,3.0529992-7.8749213,3.9423745ZM256.2839775,921.3639553c9.8680813-9.748411,4.8462535-22.6631189,7.8814593-31.4978233,9.1972325,1.2896004,16.2615242,4.7266039,23.6245364,7.874942-6.1603921,11.2216962-16.6551492,33.5795566-31.5059958,23.6228812ZM279.9150519,933.1714234c-.1755537-11.9830011,8.3064089-15.3085275,11.8074682-23.6228812,15.5726752,4.2130396-5.254858,31.6174936,19.6905827,19.6903137,3.3811407,3.1712626,2.339343,10.7820775,7.8746938,11.8074682-10.2142644,9.9486063-23.3358712-10.5900754-39.3727446-7.8749006ZM331.0952647,948.9212247c4.542857-10.4785983,31.01068,5.4467773,19.690562-7.8749006,11.2233514-12.232397,14.6192233,16.6619355,27.5652764,15.7497599,9.5088014-3.5570461,1.6733978-22.2219279-3.94074-23.6246606,3.6207296-2.9956882,35.3106998,5.512447,23.6229019,19.690231,24.6172577-11.318111,28.7664897,10.3902112,51.1886335,11.8158683-37.6979606,8.7804968-86.3794148-5.4713983-118.1266339-15.7562979ZM409.8489264,937.1137979c2.0836161-3.1646832,4.1097143-6.3934222,3.9341813-11.8172752,11.1265641-3.2516635,10.2044367,5.5519233,19.6905827,3.9423331-2.0836161,3.1630694-4.109735,6.3918498-3.9423745,11.8074682,11.6793771,2.7709547,37.1054024-8.2276218,31.5059958,11.8153303,13.860008-14.338834,30.9384723,2.3561639,47.2476659,7.8749006-41.7123152,16.7261569-70.3736176-13.5855567-98.4360512-23.6227571ZM476.7871543,937.1137979c10.4702189-12.0091945,40.2782787-9.2283087,43.3052914,7.8730386-12.1601893-4.9018885-27.988819-6.1358332-43.3052914-7.8730386ZM535.8420608,956.796084c-5.1580914,1.9457594-1.7224742-19.5394845,7.8749213-15.7497599,2.8678247,10.7508772-7.8190587,7.9306806-7.8749213,15.7497599ZM543.7169822,933.1714234c8.4063617-11.1981511,17.5655868-21.6390525,39.1070244-19.7034725.0952355-.0001655.186871.0062897.2738927.0213106-.0870216-.0150209-.1786571-.0214761-.2738927-.0213106-5.7429323.0084829-26.2238272,27.0721331-39.1070244,19.7034725ZM551.5919035,956.796084c.7529049-3.1893455,3.9573333-3.9259881,3.94074-7.8748593h7.8749213c1.8423927,8.4029065-5.6239448,7.5057104-11.8156614,7.8748593ZM567.3482842,944.9868365c-1.2500621-15.684173,18.208856-10.6620762,19.6821619-23.6228812,7.5549316,5.238513-4.5180705,17.4791031,3.9423745,27.5572695-12.0320982,2.843121-14.3553032-4.0211202-23.6245364-3.9343882ZM583.0978993,720.5513404c.1033253-3.8292009,4.8135427-3.0531647,7.8749213-3.9341813-.1131323,3.8292422-4.8233498,3.0532061-7.8749213,3.9341813ZM579.1555248,661.4880131c13.8434148,4.5330707,23.032454,13.72211,27.565504,27.5638902-8.9478159-9.3070958-11.776392,4.9119438-15.7482082,11.8170683-32.0524983,3.1548762-21.0128731-25.4505428-11.8172959-39.3809585ZM610.6552101,881.99119c1.1843924,10.3737006-5.4486187,12.9215356-15.7498427,11.8075095-1.1944477-10.3816455,8.21947-10.1569948,15.7498427-11.8075095ZM594.9053674,937.1137979c2.0506571-5.8239953,5.8240366-9.9255577,7.8749213-15.7498427,13.8268215,2.4510891,3.5092525,16.4454779-7.8749213,15.7498427ZM606.7210288,944.9868365c1.1533162-8.0256885,10.6539451-7.7220438,11.8072406-15.7479806,4.575816,3.2993743,10.5590406,5.1908435,19.6905827,3.9325675-3.7076892,10.7344908-19.8661157,9.0118511-31.4978233,11.8154131ZM653.9686947,933.1714234c-12.4014333,1.9062003-8.9167397-12.0797884-23.6231295-7.8749006,3.692958-15.7561738,22.0694227-11.9746424,31.4980509-3.9325675-1.3945395,5.1660156-6.9301178,6.1917373-7.8749213,11.8074682ZM661.8436161,909.5485422c1.5142098-1.5144581-11.864986-4.214943-11.8156614-3.9342227-1.0976604-6.2639036,21.2686001-5.518985,11.8156614,3.9342227ZM669.7185374,929.2388559c.5757167-8.6114605,9.9171577-8.4587692,19.6903137-7.8749006-3.348368,5.8406299-9.9092127,8.4672106-19.6903137,7.8749006ZM685.466518,897.741074c.1131323-3.8292422,4.8233498-3.0613993,7.8749006-3.9423745-.1035322,3.8292422-4.8151979,3.0597441-7.8749006,3.9423745ZM697.2821794,897.741074c11.5283616,1.025432,12.0961334-8.9085672,23.6245364-7.874942,1.025432,11.5269961-8.9001257,12.0961748-7.874942,23.6231295-4.6214165-5.8801062-16.366484-4.6379684-15.7495944-15.7481875ZM720.9067158,917.4231945c7.7944998-19.1456732,10.8705889-18.5372251,23.6231295-31.4994371,15.1968021.7858845,10.5898685,18.5699979,27.5652144,7.874942-9.5171808,15.4216597-31.2254616,18.6487436-51.1883439,23.624495ZM772.0950597,881.99119c4.8545087-11.9680217,13.5381355,4.2689436,23.6229226,0-2.1787689,13.546577-15.2278783,2.2755561-23.6229226,0ZM811.467825,822.9281109c-.952976,6.9299109-6.777261,8.9721265-15.7498427,7.8747351.9466863-6.9299109,6.7692747-8.980568,15.7498427-7.8747351ZM799.6521636,870.17557c-.9859143-11.4872301,7.4172404-13.5855981,11.8156614-19.6903551,7.5058345,1.681591,7.1217889,11.2544276,19.6821619,7.8749006.9057617,15.059173-21.6442249,19.6969345-31.4978233,11.8154545ZM815.4003925,838.6777467c3.6059984-6.9051244,7.3218601-13.6825923,19.690562-11.8173165-3.5963983,6.9053727-7.3204945,13.6828406-19.690562,11.8173165ZM835.0909545,815.0532103c5.7354426-13.0493577,9.7974874,15.3576039,0,0h0ZM839.0249289,850.4852149c1.0335838-13.1218551,15.7809189-25.5622681,27.5654627-15.7498427-9.4368213,4.9988827-11.6153005,17.2640525-27.5654627,15.7498427ZM854.7813096,799.3049814c-.6890973-6.4244984,25.7558013-7.9553015,19.6821619,3.9325675-11.1263572,3.2516635-10.1962642-5.551675-19.6821619-3.9325675ZM878.4058046,822.9281109c-14.7472523-3.6372815-.3608729-26.843634,15.7482289-23.6231295-2.5871044,10.5408335-11.2792141,14.9721927-15.7482289,23.6231295ZM898.0882562,787.4877063c-1.1862752-10.3734523,5.4549291-12.9212873,15.7481875-11.8154131-3.4206584,5.768174-5.8948374,12.4815859-15.7481875,11.8154131ZM898.0882562,649.6789311c5.7438427-13.0491301,9.7976943,15.3578521,0,0h0ZM913.8364437,763.8645767c6.1522196-18.6008258,19.5148221-5.2382233,0,0h0ZM921.7111374,724.4921011c-6.1751026-1.6897842-3.3647957-12.38484-15.7479806-7.874942,4.0685828-10.429315,30.6644761-2.0983266,15.7479806,7.874942ZM957.1515421,661.4880131c.9777625-4.9514201,7.8256173-3.9652575,7.874942,0-1.7475089,5.727539-3.4618313-.3936043-7.874942,0ZM965.0264842,653.6131125c-7.0105601-2.8841904-.569427-7.1545203,0-11.8072406,7.0084083,2.8825766.5675235,7.1610583,0,11.8072406ZM972.8995227,574.8674163h-7.8730386c.7201735-3.3482024-1.5389963-3.7172893-3.9342227-3.9339744-1.5618793-7.6418705,17.9286115-5.7583463,11.8072613,3.9339744ZM957.1515421,622.1153099c1.5142098-10.2946653,12.6244289-10.9984937,7.874942-27.5570833h11.8154131c-5.9930316,11.0704531-3.7488413,30.3755833-7.8749006,43.3052707-2.9957296-6.1916959-12.4963585-5.8798786-11.8154545-15.7481875ZM933.5270057,740.2419024c-13.0166263-5.9046444,8.1797454-9.6303131,3.9339744-19.690562,10.6934007,3.5798464-4.0129684,13.802304-3.9339744,19.690562ZM937.4609801,692.9942778c-9.7895425-.5941721-1.1451437-13.3380644,0-15.7580359,10.1569534.9532243-5.4075079,6.777261,0,15.7580359ZM933.5270057,673.3034676c-2.0509054,5.8239953-5.8225884,9.9255577-7.8735351,15.7484358-9.5809884-2.4658203-2.0833885-19.8906746,7.8735351-15.7484358ZM921.7111374,696.926804c-.1033253,3.8290353-4.8135427,3.0595372-7.8746938,3.9421676.1131323-3.8290353,4.8233498-3.061151,7.8746938-3.9421676ZM902.0289342,503.9970761c18.0482818,2.6184289-3.1646418,23.8314146,0,0h0ZM894.1540335,519.7452842c6.3607322-1.1140261,6.777261,3.7175169,11.8091234,3.934202-2.3084944,8.1946628-8.2753327,12.7277335-11.8091234,19.6903344-10.7343253-3.6207503,5.496102-12.312591,0-23.6245364ZM894.1540335,665.4285255c-.1114771,3.8294905-4.8217359,3.0515923-7.8732868,3.941009.1033253-3.8290353,4.8135427-3.0597855,7.8732868-3.941009ZM894.1540335,767.8055443c1.1058329,10.2947066-1.4420021,16.9359109-11.8156614,15.7498841-1.1055846-10.3014929,1.4422504-16.9426972,11.8156614-15.7498841ZM882.3383722,480.3641395c-8.2259666,1.6752392-10.4210805-2.6904297-15.7479806-3.9325468,3.5403701-6.9609871,9.5088221-11.4956716,11.8154131-19.6903551,5.3829697,5.4944468,8.4917902,19.4346281,3.9325675,23.6229019Z"/>
  </g>
</svg>