<?xml version="1.0" encoding="UTF-8"?>
<svg id="blueberry" xmlns="http://www.w3.org/2000/svg" version="1.1" viewBox="0 0 1000 980.2173955">
  <!-- Generator: Adobe Illustrator 30.0.0, SVG Export Plug-In . SVG Version: 2.1.1 Build 123)  -->
  <g id="outline">
    <path d="M445.7456946,201.5313208c-11.4057532-8.7954141-39.7738173-3.5507563-39.9950542,10.9101891,12.7737476-7.7211747,38.9011801-.6572141,39.9950542-10.9101891Z"/>
    <path d="M791.1413185,452.4014073c-9.186308,6.5686241-9.1787769,22.3310666-21.8130954,25.4516596.0954217-21.7174253,12.2268105-31.4066217,14.5414705-50.8974639-11.2799173-.3773007-10.3770522,11.4359604-25.4518251,7.2715835,1.7754402-12.9904327,13.809959-13.1236135,7.277625-25.4538113-16.4503604,2.9438186-5.8203124,32.9615285-29.09221,29.085072,3.0553992-4.2161844,4.8006736-9.750066,3.6403435-18.1744484-13.8628837.6801178-8.7956417,20.2907545-21.8147919,21.8132609-2.6403187-11.1240811,6.273338-10.6954281,3.632771-21.8132609-16.4729952,6.5459479-13.8917668,32.1553679-25.445825,43.6278252-51.025017-49.7010714-118.3233925-87.3374376-210.8810945-79.991598-8.9287811.710532-26.8366817,8.92125-36.356221,3.6386056,5.873175-8.6756197,2.7435199-26.3471591,14.5414498-29.0844306,1.0362528,11.0662529-11.6418868,14.1354729-3.6310331,21.8145643,12.344867-4.587216,14.143004-21.2525237,10.9026373-32.7249603-5.3929421,14.2763917-5.6506553.7029802-10.9026373-3.6312607-11.228565,13.7719723-25.6748206,37.0058833-25.4536044,50.8976708-6.250455-1.4344503-9.319675,5.3929421-10.9026373,0,8.8530354-23.8702077,20.673869-44.7668033,25.445825-72.7200145-20.5057017,23.1236132-26.8213505,60.4418311-47.2605963,83.6304312,6.8351718-27.131947,28.0060946-59.2057347,21.8147712-87.2618988-8.9501537,34.6763473-26.7548739,60.5072318-36.3639797,94.5259305-47.7406222,24.9809027-78.9188897,66.5150979-94.5270064,123.6194233-11.7679503,4.4978357-2.7815272-11.7616812-14.5416774-7.2716042-7.2411694,11.1694126,4.3189096,29.5361735-7.2716042,36.3562417-8.6317985-7.42593,4.9932136-14.386917-3.6388125-21.813054-26.1714606-3.6843509-32.1326917,49.3678195-21.8145437,58.1770337,12.9826533-5.4522807-3.8978291-18.1973107,14.543167-18.1822071-3.0480543,10.2818787-4.2161844,22.4420057-7.2715835,32.7251879,13.750848,5.258251,6.9761113-9.9937514,18.1817726-7.2716042v14.5416774c11.4362087,4.16417,8.8318904-5.709787,14.5431877-7.2700732v14.5416567c13.4613965,2.5525109,6.2716208-15.548985,14.5416774-18.1820002,15.8518021,55.6547714,44.2276249,98.7794808,87.2554229,127.2506632,5.1930572,25.1276974,1.7968336,67.5724958,14.5492085,98.1660464,4.3282201-33.4643961-6.9972564-70.5009418,0-94.5257029,8.4699415,31.8145848,2.0058014,80.0794473,14.5431877,98.164143,5.088594-27.4635024-5.2446577-59.456765,3.6312607-87.2612781,10.984652,23.9293394-5.5552336,83.1046392,10.9116995,90.894256,6.7898403-17.4865925-2.8857421-38.7088676,7.2700938-69.081202,6.0581426,20.6300479-4.075038,50.8767533,10.9043546,69.081202.3619695-27.2137755,2.4329233-41.9628896,3.6388125-54.5305039,20.7345111,2.4845239-3.2692912,27.3016248,14.5429808,32.7159189,4.7266245-11.0209214-.8361609-32.3463976,10.9028442-36.356221.3468452,5.7186423-.4817432,12.6051457,7.2715835,10.911927-1.7390054-11.4437398,5.1779743-14.2174669,7.2776457-21.822323,55.8332631-13.240201,122.7087994-15.4445011,159.9680925-47.2590859,4.6446098,14.0022921-4.7190933,20.919251,10.910396,25.4460319,2.2494661-9.8605913-4.6161198-28.8485246,3.6325641-32.7174085,8.5804255,14.9640406-6.7170947,26.8062676,7.2776457,36.3558072,14.5204909-14.9487715-2.9660602-40.3721273,10.9043546-54.5377867,9.2091911,12.7601129-.0302072,32.2220514,0,47.2663687,28.0121567-.0362487,1.5967624-39.0116847,21.813054-50.8976501,9.5424223,3.8676012-4.7931011,42.1402847,7.2715835,47.2590859,13.6403433-12.0209048-1.0951569-33.9444427,7.2715835-50.899388,11.487561,6.6944185-7.0639399,43.4278989,14.5416774,39.9965232,3.7584-14.8764397-5.8733612-35.0549515,0-39.9965232,8.5439286,12.0646846.7027939,40.506984,18.1820209,43.6277632-.9469346-17.7671474-3.9496159-22.7311882-3.6390608-47.2590445-4.8308808-8.9061257-13.5295697,3.9949267-14.5429601-3.6390608-13.5358594-57.9266447,14.9428956-78.3568283,7.2713766-138.1621558,14.0402787-7.7729821,40.905678-2.7283956,43.635377-21.8132609-6.376084-.9984524-18.1455239,10.2378714-21.8145437,0,.0150622-15.7337457,17.8864866-13.6176672,21.8145437-25.4533768-5.4445427-.6136205-13.4188788,1.3028006-14.5429601-3.6314676,5.3777971-14.0989966,25.9199958-32.1324849,18.1742415-47.2664308ZM267.5895605,605.1039577c7.5290898-9.4377315-9.557319-30.4375076,10.9104167-32.72345-5.777774,5.0674489,4.4236004,28.8636075-10.9104167,32.72345ZM754.7853044,441.4972596h14.5429188c2.5374073,13.4402514-5.7550979,16.0594458-18.1819795,14.5429808,2.8253277-3.2403874,3.9131603-8.210718,3.6390608-14.5429808ZM762.0566396,466.9430847c-3.3206435,6.3762909-6.7608744,12.6343184-18.1819795,10.9099822-.4588602-6.522858,4.4538284-7.6695948,3.6390608-14.5412429,3.2325873,2.8253277,8.2106559,3.9053809,14.5429188,3.6312607ZM743.8746601,506.9394216c-7.8774247.6136412-1.6420733-12.8930868-3.6310331-18.1817726h10.9026166c-1.5542654,6.923228-7.8258655,9.1349144-7.2715835,18.1817726ZM747.5137209,445.1298238c-3.1588486,5.3249552-5.4432599,11.5240372-14.5416774,10.9104167-1.1105088-9.5937953,7.5897112-9.3790343,14.5416774-10.9104167ZM707.5184391,474.2146682c9.0470651-14.1797079,5.3038101,12.0493947,0,0h0ZM700.2470625,688.7280992c1.5905141-4.4747251,4.6536926-7.4636684,10.9101891-7.2715835-1.5890244,4.4753872-4.652203,7.4643305-10.9101891,7.2715835ZM722.0616061,594.1937686c-11.0299835,101.6576504-136.2234931,164.5248944-258.1416907,149.0727794-25.3411342-20.1651048-56.187867-18.3667402-79.9838186-36.356221-48.8347032-36.919772-62.0824146-97.9810582-72.7126696-149.0727794,21.614907-102.3077679,101.5987256-168.1047614,236.3193677-152.6967159,87.6102543,10.0166137,185.1551077,91.027623,174.5188113,189.0529369ZM722.0616061,496.035274c9.0455755-14.1870528,5.3038101,12.0435602,0,0h0ZM725.70046,477.8530669v-10.9099822h10.9028235v10.9099822h-10.9028235ZM758.4178685,528.7526825c-3.084365,5.393149-9.1500594,7.8183137-18.1742415,7.2716042.3103482-5.1552981.5982687-10.2967961-3.6403435-10.9028649,3.6765922-6.0216663,15.4458252-3.9506918,21.814585-7.2713766-2.5147311,2.9282805-5.6521864,9.9559717,0,10.9026373ZM762.0566396,506.9394216c-11.0435561-4.4825252,3.9434089-12.5009101,0-21.8147712h10.9104374c-3.2328356,7.679319-11.0725219,10.748539-10.9104374,21.8147712Z"/>
    <path d="M649.3491641,510.5784617c6.9383316-2.4784825-7.612408-25.017172,0-29.0924169-17.8714037,6.9672767-9.7347348-12.0798089-21.8147712-10.9026373-12.4417784-.3181276-2.1070163,22.1309747-14.5414705,21.8128471-1.4210639-20.0449173,3.9265467-25.2457538,0-39.9948473-7.538152-2.1601065-23.8855182,4.4963461-25.4533561-3.632771-3.4480311-9.060886,12.9811429-21.9388692-3.6327917-21.8130333-13.1963384-3.4993834-3.0540957,16.3322626-14.5492085,14.5416567.3332519-13.5872324,4.0750173-10.3619486,0-21.8132609-33.4340026,8.6395779-36.4456013-8.4925763-58.1710129-10.9106236-75.5604458-8.4027822-178.2150589,52.2600582-185.4199382,127.2509115-8.4032374,87.3736862,54.7305337,156.9640249,112.7074962,181.7889052,139.0274481,59.5312072,330.1800771-49.2132867,229.0492738-203.6034695-5.2824168-1.9891667-18.7893724,4.2537365-18.1742208-3.6312607ZM358.4840234,579.6520912c4.2159568-14.3657513,4.2159568,14.3720203,0,0h0ZM427.5636944,568.7475091c15.7566287,1.5167133-3.8311249,21.1044669,0,0h0ZM373.0256801,616.0158847c4.2159775-14.365772,4.2159775,14.3644685,0,0h0ZM376.6660029,583.2906968c-10.6665037-3.0916685,4.7264383-9.1500387,0-18.1817726,8.5061902.9317689,2.0921403,15.9778449,0,18.1817726ZM387.5686609,565.1089242c2.825307-3.2328356,3.9131396-8.210718,3.6390194-14.5429808,6.4201121-1.1530058,6.4865887,20.3723347-3.6390194,14.5429808ZM409.3894736,616.0158847c-4.9340612-1.1255917-3.0176401-9.1060106-3.6388332-14.5429808,12.6934501-3.2541876,6.212696,11.8570823,3.6388332,14.5429808ZM416.6610571,568.7475091c-4.1872599,11.7621157-4.1205764-9.7632247-3.6388125-14.5412222,4.1855219-11.7619088,4.1114935,9.7634316,3.6388125,14.5412222ZM409.3894736,532.3915157c2.8192655-3.238877,3.9053602-8.210718,3.632771-14.5414705,6.4201121-1.162068,6.4867956,20.3632725-3.632771,14.5414705ZM423.9326406,681.4565157v-10.9099408h10.9026373c-3.8764565,3.3948788-1.1316332,13.4173477-10.9026373,10.9099408ZM427.5636944,616.0158847v-7.2716042c3.092103.6652211,3.4329068-1.420857,3.6403228-3.6403228,7.0566156-1.4420228,5.3098516,16.5625617-3.6403228,10.911927ZM434.8352779,503.2993057c4.2159775-14.3644685,4.2084257,14.3733238,0,0h0ZM489.3735198,477.8530669c4.208405-14.364034,4.208405,14.3661858,0,0h0ZM467.5602589,499.6678381c5.0296692,8.3065328,7.4110126,19.2545017,10.9028442,29.0848444h-14.5431877c5.6007927-12.8266102-1.9602423-16.2580066,3.6403435-29.0848444ZM463.9199154,536.0242867h14.5431877c2.714823,11.1920681-9.9786271,6.9897046-7.2715835,18.1820002-7.9441495-.5333438-7.8032101-9.1653699-7.2716042-18.1820002ZM460.2888823,594.1937686c6.9670284,3.0782822,9.8376876,15.9549826,3.6310331,21.8221161-8.0257298-.4588809-1.5376307-15.4231698-3.6310331-21.8221161ZM442.1068821,456.0402405c.5393646-.9982662,7.8260724-6.7246671,10.910396-3.6388332,2.5071793,2.5147311-14.3430959,10.0226759-10.910396,3.6388332ZM445.7456946,648.7317829c-7.7669407-2.2708388-3.4100238-22.3750947,0-25.445825,16.598831.4437566,1.9753459,20.6313306,0,25.445825ZM445.7456946,590.5622803c4.208405-14.3657513,4.208405,14.3644685,0,0h0ZM449.3784656,557.8375476c-9.0395133-.5469371-1.0589082-12.3086183,0-14.5416774,9.0455755.5467095,1.0649497,12.3161701,0,14.5416774ZM460.2888823,681.4565157c-3.6025638-5.4518669-6.6126521-18.1891175,7.2713766-18.1815657,3.1132481,11.6056588-5.7261941,11.2511998-7.2713766,18.1815657ZM471.1915196,630.5575414c7.9516807.5331369,7.8109688,9.1575905,7.2715835,18.1742415-5.393149-3.0843236-7.8107619-9.1500387-7.2715835-18.1742415ZM474.830539,692.3671599c5.2960307-12.049581,9.0468582,14.1794803,0,0h0ZM478.4631031,477.8530669c-8.9363536-8.2543116-16.3851459-28.9283668,3.6388125-29.0844306.7999123,11.7027564-6.4276639,15.3853901-3.6388125,29.0844306ZM478.4631031,434.2271865c.1029529-3.5358596,4.452318-2.826838,7.2715835-3.6403228-.0969114,3.5356527-4.4462559,2.8253277-7.2715835,3.6403228ZM489.3735198,488.757649h10.910396c-2.6330152,20.5998199,9.7043,33.7521303-7.2715835,39.9950335-8.3214296-6.2202271-1.3377665-27.7531194-3.6388125-39.9950335ZM493.0123323,677.8241998c-7.8852248.6073722-1.6498733-12.8995834-3.6388125-18.1822278,5.1779536,4.4464834,8.2622772,13.8781528,3.6388125,18.1822278ZM496.6451033,710.5416083c.1029529-3.535901,4.452318-2.8177965,7.2715835-3.6312814-.0971183,3.5358596-4.4538077,2.8177552-7.2715835,3.6312814ZM500.2839158,685.0880039c16.6653076,2.4268819-2.9222391,22.0146148,0,0h0ZM572.9963785,583.2906968c6.324711,8.254953,14.3657513,38.4863272-3.6388125,39.9952611-2.8041826-17.3531842,5.6884144-23.4037749,3.6388125-39.9952611ZM569.357566,470.5834075c12.9297906,17.8925694,11.0511286,70.7960416,7.2715835,83.6228794-22.3768119-20.9346029-4.1130246-63.5702034-7.2715835-83.6228794ZM565.7247743,692.3671599h-10.910396v-10.9106443c7.9380874-.6587245,11.5693688,2.9740465,10.910396,10.9106443ZM562.0859618,645.1005222c-8.6909302-8.5003557-22.6342975-22.6798566,0-25.4533768v25.4533768ZM533.0013243,641.4601787c-1.6133764,5.2899893-3.1890144-.3695006-7.2715835,0,.9028444-4.5703745,7.2335969-3.6675093,7.2715835,0ZM514.8268759,597.8336569v-36.3557865c5.1552981.3103689,10.2967961.59831,10.9028649-3.6403228,7.8487485,12.0647053,15.0309724,39.7222167-10.9028649,39.9961094ZM514.8268759,456.0402405c6.212696-.7694774,9.416814,6.1990821,10.9028649,0v-7.2716042c8.1288895,1.5680655,1.4724576,17.9154524,3.6388125,25.4460319h-14.5416774v-18.1744277ZM514.8268759,485.1246504c3.2328356-2.8248932,8.2109249-3.9127052,14.5416774-3.6386056-3.6614679,12.0936504,8.041061,39.5512976-7.2700732,39.9950542-13.3886716,1.0878327-6.5837277-36.8075501-7.2716042-36.3564486ZM514.8268759,674.1851804c-1.5466929-7.5970974,2.4845239-9.6300853,3.6312814-14.5432084,7.5459107,3.6541437,9.9710753,16.0750046-3.6312814,14.5432084ZM525.7297408,688.7280992h7.2715835v7.2703421h-7.2715835v-7.2703421ZM529.3685533,706.910327c2.9448945.6876903,3.6252192,3.646385,7.2716042,3.6312814-1.9526905,8.5653219-17.2048998,2.2268107-7.2716042-3.6312814ZM540.2729286,481.4860448c5.1626224.3181483,10.2967754.6060894,10.9101891-3.6329779,9.1864943,16.2597446,6.4641401,32.1042018,7.2715835,61.8100323-22.7825819-6.9307798-21.3116554-33.959567-18.1817726-58.1770544ZM547.5427948,572.3805077c-.0954011,3.5358596-4.4447662,2.8253277-7.2698663,3.6386056.1029529-3.5356527,4.4522973-2.8177759,7.2698663-3.6386056ZM547.5427948,652.3721058c9.67581,3.9934371,11.1694126,26.7397496-7.2698663,21.8130747,2.9069079-6.7896541,6.0792876-13.3144363,7.2698663-21.8130747ZM543.9115134,685.0880039c4.2084257-14.3642409,4.2084257,14.37351,0,0h0ZM551.1831177,703.2700248c8.5653219.0817664,10.7029799-6.2580275,21.8132609-3.6312814,2.1298786,8.9195327-23.9431602,17.6562082-21.8132609,3.6312814ZM580.267962,699.6387435c.5847168-4.2614952,6.6275281-3.0707511,10.9101891-3.6403022-.5907375,4.2614538-6.6352869,3.0707097-10.9101891,3.6403022ZM598.4497554,692.3671599c-29.5435184,7.6337806-28.3680641-26.2668823-21.8206058-43.635377,8.321202,6.2290824,1.3375389,27.7546091,3.6388125,39.9963163,13.1372067,3.446769,5.0750007-14.3217025,7.2716042-21.8145437,7.6562084,4.5267809,16.7168875,18.5668527,10.9101891,25.4536044ZM602.081016,652.3721058c-30.4012589-35.476032-6.3096074-122.2876983-14.5414498-163.6144568,4.2235086-.5922686,6.4714644.8057261,7.2715835,3.6386056,27.7453607,34.7659138-2.3966747,127.6052878,7.2698663,159.9758512ZM616.6241831,681.4565157c-4.5190015-9.2467225-1.5982728-17.7302366,0-25.4531492,6.0579357,5.2522096,19.4317105,25.8306568,0,25.4531492ZM616.6241831,503.2993057c16.480547,34.4262067.3028378,101.5018349,10.9102098,141.8012166-23.2930634-29.2558049-14.253757-81.8109008-10.9102098-141.8012166ZM638.437237,586.9297369c-9.3863792-25.0901245-1.5089132-65.8468561-7.2700732-90.8944629,14.128128,29.6846648,8.0319781,70.9384915,7.2700732,90.8944629ZM631.1671639,616.0158847c9.4014828-12.5238138,8.7865588,18.6985024,0,0h0ZM634.8059764,656.0033664c4.208405-14.3642409,4.208405,14.364034,0,0h0ZM634.8059764,666.9135555c.0954011-3.535632,4.4462765-2.8177552,7.2715835-3.6386056-.1044632,3.5358803-4.4538077,2.8253277-7.2715835,3.6386056ZM649.3491641,634.1903331c12.8555347,18.4030095-9.4166071,19.9937305,0,0h0ZM649.3491641,605.1039577c-4.5567812-13.1810279,2.8102034-20.7254282,0-54.5380143,12.7737269,7.1306647-1.44374,50.3734098,0,54.5380143ZM663.8908208,630.5575414c-6.0795152-17.3380599,2.6705673-30.2544642,0-61.8100323,8.3516575,8.1520001,2.7586442,69.6738844,0,61.8100323Z"/>
    <path d="M78.5292787,630.5575414c-7.5154759,16.1701781,5.784043,39.2633565,18.1820002,47.2666584-6.9899114-14.8311288-5.1492567-38.4863479-18.1820002-47.2666584Z"/>
    <path d="M547.5427948,1.5684017C493.7455404-2.8476469,243.5225299-13.6397795,82.1680912,223.3521335,24.5820226,320.8303034-9.1399004,436.4751423,2.1764931,572.3805077c11.1694126,134.1298838,107.282402,248.7563874,189.0602818,309.0471202,198.7153812,146.5024132,473.1703412,99.9469488,559.9094687,50.8974846,90.5562661-51.2076259,199.1345375-163.3839508,225.4242615-272.6831405,15.28072-63.5697689,28.0484468-140.0695354,21.8130954-210.8733358C978.2778343,220.4238529,787.0662391,21.2286734,547.5427948,1.5684017ZM885.6760836,226.9846976c-6.4958784,9.7407762-9.8394049-14.1203486-18.181814-14.5431877,5.0581798-8.3058915,12.5736557,11.3770563,18.181814,14.5431877ZM882.03574,263.3411462c11.769233,4.4976288,2.7812996-11.7616812,14.5432084-7.2716042,6.5534791,18.2333732,4.0825691,29.1664453,18.1817726,43.6278252-20.2754233-6.4276639-36.2153229-48.5905833-61.8096185-61.802046,1.5603068-6.923228,7.8336449-9.1349144,7.2715835-18.1822071,14.402062,7.5005791,31.6887489,22.944894,21.813054,43.6280321ZM856.5899564,219.7131141c-3.238877,1.6120936-6.5096993,3.1950352-7.2776663,7.2715835-12.7601543.6440554-11.9542006-12.2796938-21.8147919-14.5431877,2.0938989-7.6031182,9.0168993-10.3770729,7.2715835-21.8128264,13.8477801,3.120593,19.683196,14.2461845,21.8208748,29.0844306ZM805.6844855,136.0902347c14.1054519.4366393,18.3742713,10.7183111,25.4533561,18.1822278-4.2902128,4.0387686-25.9791274-5.3551624-25.4533561-18.1822278ZM740.243627,85.1910535c-5.6446139,4.2159568-32.8143199-.9680382-32.7251879-14.5414498,9.2318258,6.5230442,20.245216,11.2572412,32.7251879,14.5414498ZM747.5137209,117.908669c-11.9315659-12.3010458-41.7328181-6.7386742-43.6263562-29.0848444,20.3270238,3.9055878,46.0227826,2.4482545,43.6263562,29.0848444ZM623.8955597,88.8238246c27.8714241-8.3743129,34.2323838,16.8124955,0,0h0ZM642.0775599,96.0938977c-.1044632,3.5358596-4.4538077,2.826838-7.2715835,3.6403435.0954011-3.5358803,4.4462765-2.8253277,7.2715835-3.6403435ZM696.6157811,121.5470676c-16.3777803-6.6562457-30.2467055-15.8062637-50.9069605-18.1815657,15.0974697-6.5019199,57.3270726-8.9199465,50.9069605,18.1815657ZM620.2630162,56.106416c27.2955419,10.2665682,59.5462902,15.5930131,79.9840462,32.7174085-14.8975847,5.0961458-77.6467308-1.3695047-79.9840462-32.7174085ZM689.3441976,67.0092602c-20.3194306,4.4976495-44.9290947-18.0412676-72.7200145-18.1820002,16.6351004-13.5432043,55.3590716,8.7364893,72.7200145,18.1820002ZM605.7213389,37.9241882c-5.0750007,9.4530834-18.8180693-2.6552361-25.4533768-3.638378,2.9736121-7.3533913,19.1649352,2.3070875,25.4533768,3.638378ZM612.9929224,70.6496038c-20.2542575.857306-18.2713391-20.5119914-39.9965439-18.1822278,5.2522096-11.2812208,47.9255898-6.8940759,39.9965439,18.1822278ZM558.4547012,37.9241882c-.0818078,14.4616075-18.3378364,10.755884-32.7249603,10.9030718v-18.1744277c5.896058,7.4338956,26.8289023-.1694501,32.7249603,7.2713559ZM540.2729286,23.3812281c-15.4825084,11.133164-31.0753146-4.4520904,0,0h0ZM456.6485388,85.1910535c27.8424997-.8877408,33.5158104-2.2934942,61.8096185-3.6388125,5.0082965,4.6901482,3.6025431,15.7930842,3.6403228,25.4535837-27.8349272-2.3830814-47.2817413,3.6161571-69.081202,7.2696387-2.7966101-13.6990405,4.4309453-17.3816535,3.6312607-29.0844099ZM522.0984802,70.6496038c-9.9194954-.3332726-7.3229565,6.0505908-14.5431877,0,1.9224832-2.9297909,3.7873245-5.9036098,3.6312607-10.911927h10.911927v10.911927ZM500.2839158,23.3812281c-.4590878,8.033716-15.423356,1.5469205-21.8208127,3.6329986.4590878-8.0263918,15.4233767-1.5391411,21.8208127-3.6329986ZM511.1865531,34.2858102c-.3181483,19.075348-18.8469937,19.9345988-39.9950335,18.1815657-1.4497815-20.8372363,19.6468853-19.13599,39.9950335-18.1815657ZM503.9166868,63.3779995c-.6287242,17.5457035-27.3987224,8.9577262-43.6278045,10.9028649,2.3070875-14.7946319,29.65423-19.3803375,43.6278045-10.9028649ZM423.9326406,41.5634559c11.634335-4.119066,24.1143276-7.3961366,39.9872748-7.2776457-5.0445659,4.6521823-2.2192382,17.1684235-7.2713766,21.8206058h-36.356221c2.8266104-3.2403874,3.9129327-8.2106973,3.6403228-14.5429601ZM456.6485388,63.3779995c-2.8177552,3.2328356-3.9053602,8.2106973-3.6312607,14.5416774-14.8749086-3.7570965-35.0549308,5.873175-39.9950335,0,6.0352596-13.3584436,24.7277206-14.0614238,43.6262942-14.5416774ZM445.7456946,117.908669c-14.7279484,1.0345148-25.2746576,6.2429032-39.9950542,7.2713766,1.2574897-19.3878893-.5333231-25.3048648,3.6388332-36.356221,18.4105613-2.4039989,26.680411,7.5079241,36.356221-3.632771,10.8361607,7.5897318-4.829598,19.1213209,0,32.7176154ZM413.0222446,37.9241882c-4.1872599,4.2982197-4.1130246,12.8482104-3.632771,21.8134885-11.8057093-2.1072232-16.9169794,2.4784618-25.4533768,3.6403228,5.5338816-12.6418495,8.469714-27.8940589,29.0861479-25.4538113ZM383.9360968,70.6496038h18.1817726c-.1029529,3.535632-4.4522973,2.8177552-7.277625,3.6312607.1029529,3.535632,4.452318,2.825307,7.277625,3.6388125-1.183213,12.0720502-15.865623-9.5713468-18.1817726,3.6325641-5.3991905-1.5829623,1.4359606-4.6521823,0-10.9026373ZM380.2972843,92.462637h18.1817726c.7772361,15.3186859-16.2731309,12.8039548-21.813054,21.8128264-11.5768999-6.0788531,11.2207856-7.7514026,3.6312814-21.8128264ZM365.7540965,81.552241c12.5237931,9.3937034-18.6985024,8.7878416,0,0h0ZM365.7540965,67.0092602c-9.652927.0377797-20.7634355-1.3755255-25.4443147,3.6403435.0954011,3.535632,4.4445386,2.8177552,7.2698663,3.6312607-.6952214,2.9433841-3.6463643,3.6249916-3.6388125,7.2713766h-10.9026373c1.5602861-6.9230211,7.8336242-9.1347075,7.2715835-18.1742415,4.5779263.5832064,22.5523035-11.2663241,25.4443147,3.6312607ZM354.8512317,88.8238246c-.1029529,3.5358596-4.4522973,2.8253277-7.2715835,3.6388125.0971183-3.5356527,4.4462765-2.8253277,7.2715835-3.6388125ZM333.0381984,45.1957924c.0591317,14.0843068-20.1346907,20.8378777-29.0923962,14.5418843,4.1130039-10.4286528,15.5930131-13.4918313,29.0923962-14.5418843ZM325.7666149,67.0092602c-2.7888514,8.9728298-2.4555995,30.8525673-21.8208127,32.724981-3.6250123-8.8834909-1.2056822-7.7457956-3.6325641-21.8145643,9.0984381-3.0253988,14.2764124-9.9635235,25.4533768-10.9104167ZM307.5848216,168.8139122c-18.4032371-2.6479119-21.5330992,9.9788547-36.3564486,10.9043546.5393852-21.2663238,21.6738318-21.9554831,32.7174292-32.7174085,8.0322057.4511015,1.5453894,15.4231698,3.6390194,21.813054ZM263.9567894,168.8139122c11.5466927,14.1583352-17.2638246,18.9592363-21.8130333,29.0863548-12.3010665-14.9053434,16.4578709-19.75739,21.8130333-29.0863548ZM245.7750168,168.8139122c11.6949771,8.5743841-12.7888512,14.6992308,0,0h0ZM256.6854128,172.4466833c-10.6287446-4.061424,4.6234854-11.8208129,10.9041477-10.9026373,1.1165295,8.3803543-10.5041915,4.0385617-10.9041477,10.9026373ZM242.1437561,161.544046c4.8082254-10.9484033,18.2484768-13.2630426,29.0846168-18.1822071-5.2217747,10.5333229-16.5170026,14.9931927-29.0846168,18.1822071ZM249.4153397,147.0008583c1.6118867-12.9297906,14.7264173-14.3581995,21.8130333-21.8208127,9.0015474,9.2456466-12.4266541,18.9061461-21.8130333,21.8208127ZM282.1312378,154.2724625c-11.8268544,6.8487651,17.8940591-10.3634796,0,0h0ZM282.1312378,143.3618389c2.8253277-15.3564656,16.9761111-19.3876824,32.7251879-21.8147712-.8212642,21.8512475-16.9096345,34.6340572-32.7251879,21.8147712ZM311.2234271,110.6370854c12.1905411-8.7880692-8.7863519,12.1976584,0,0h0ZM293.0416545,103.3655019c4.2099153-14.3644685,4.2099153,14.3733031,0,0h0ZM303.9458022,114.2754634c-2.5086897,7.1839619-9.6982792,9.6911412-18.1742415,10.9045821-.5257713-10.222747,8.904636-10.4815361,18.1742415-10.9045821ZM253.0466003,125.1800456c12.9086456-10.1120148,8.9803816-37.0743255,32.7249603-36.356221-3.6843509,19.3423509-10.9119064,35.1427801-32.7249603,36.356221ZM278.4999772,67.0092602c14.5416774,4.0461135,2.4329233,14.3871446-3.6403228,18.1817933-9.8666328-3.3131123,3.7070063-12.7372713,3.6403228-18.1817933ZM256.6854128,81.552241c-2.0709538,19.1649145-16.6277348,26.1485776-29.0848444,25.4535837-5.7246837-9.5273187,18.8545455-19.8029491,29.0848444-25.4535837ZM242.1437561,110.6370854c14.6159127-2.114775-1.8132613,10.7634151,3.6312607,21.8206058-6.8791999,7.6564153-20.9255201,8.1593243-25.445825,18.1744277-8.9942025-15.1781602,11.5691412-31.9539725,21.8145643-39.9950335ZM205.7799626,179.7182668c13.6916956-.8514714,15.4004937-13.6916956,29.0921893-14.543167-4.1205557,7.2202105-28.5014311,27.4060673-29.0921893,14.543167ZM231.2335464,194.2599442c-6.6808253,15.1414978-25.5429433,18.0939441-32.7251672,32.7247534-7.8336449-15.2306298,13.8175315-32.1475885,32.7251672-32.7247534ZM220.3291918,161.544046c1.2512207-9.6607064,9.5422154-12.2723489,18.1742208-14.5431877-1.2496896,9.6529477-9.540912,12.2645902-18.1742208,14.5431877ZM213.0515461,165.1750998c4.2159775-14.3642616,4.2159775,14.3644685,0,0h0ZM202.1471916,147.0008583c12.0722571,8.8167867-7.0261808,16.9245312-10.9104167,21.813054-12.0647053-8.8243385,7.0276912-16.9305726,10.9104167-21.813054ZM191.2367749,190.6286835c9.8530188,3.2841879-8.3060984,8.1289102-7.2715835,14.5412429-12.7810718-6.2275927,9.1213211-7.3227496,7.2715835-14.5412429ZM173.0625541,223.3521335c6.5170235.4590878,7.6639878-4.4522973,14.5429601-3.6390194,5.0219105,14.7205828-7.892549,11.5028715-7.2713766,21.8132609-5.393149-3.0918961-7.8185206-9.1500387-7.2715835-18.1742415ZM162.1521374,190.6286835h7.2716042v7.2715835h-7.2716042v-7.2715835ZM173.0625541,256.069542c11.3617251,5.8658508-7.463896,11.5177889-7.2715835,18.1820002-11.3617251-5.8658301,7.4563442-11.5179958,7.2715835-18.1820002ZM151.2492932,201.5313208c13.5736391,12.1603339-1.3314974,27.3469149-14.5429601,32.7249603-1.4938302-17.2424519,10.2013744-21.303876,14.5429601-32.7249603ZM140.3391041,292.4257837c3.8827048-3.3873683,1.1316332-13.4098166,10.9101891-10.9026373-3.8842359,3.3871407-1.1316332,13.4098166-10.9101891,10.9026373ZM143.9777097,296.0643686c13.4404583,11.0226593-11.0435975,12.2496935,0,0h0ZM129.4347289,277.8828029c-.5544889-23.5736389,17.7531403-28.3000564,25.445825-43.6265218,6.6504112,15.2371057-7.5819731,40.8163184-25.445825,43.6265218ZM133.0674999,194.2599442c5.0732834,2.9811639-2.4117576,24.018699-14.543167,21.8145643,4.4825252-7.633553,10.0604349-14.1734595,14.543167-21.8145643ZM118.5243329,230.6161652c4.2099153-14.3644478,4.2099153,14.3733238,0,0h0ZM107.6139162,259.7083752c20.452839,3.9204845,2.263287,27.1623818-3.6312607,36.3559934-8.469714-7.536414,1.8406754-27.034808,3.6312607-36.3559934ZM111.2529563,310.6075563c-6.4719195-2.6630155-.5242816-6.6124245,0-10.9101891,6.4729954,2.6707742.5255644,6.6126314,0,10.9101891ZM93.0709561,328.7895565c2.3966747-4.8824813,7.7744925-6.7760401,14.5429601-7.279156-4.7779974,9.7651696-9.7558798,19.3287577-14.5429601,29.0924169-11.4724574-2.5889871,9.9499303-20.7560906,0-21.8132609ZM103.9826555,343.3327442c9.5046633,14.0765274-8.7136063,42.4430811,3.6312607,65.4406309-.8286091-14.5049735,5.7400149-45.6104953,7.2716042-69.0809745,6.5232718-.4590878,7.6700086,4.4538284,14.5492085,3.6403435,1.7163499-11.4223878-9.7863147-9.6091265-10.910396-18.1822278,1.6058246-10.5115364,7.6639878-16.569679,18.1820002-18.1815657,4.91873,8.4092788,14.6172161,12.0496016,10.9026373,29.0921893,15.6899245-2.4935861,3.3435472-33.0131083,7.2715835-47.266617,6.8429305-6.4883266,16.8291301-9.8316669,21.8147712-18.1817933,7.6773742,7.521538-7.7533474,26.7986951,0,36.356221,16.7244393-6.6868874,1.2784072-22.9235214,10.9101891-47.2605756,9.0017543-5.5399231,21.6207415-7.4624063,25.4460319-18.1820002-8.4774727,1.2132134-15.6596966,3.7279445-18.1744277,10.9119064-12.4571096-17.4500956,20.1633875-20.9268028,25.4520734-32.7251672,13.5658597,10.3045342-8.7274271,34.5371251,3.632771,43.6280321,4.112797-31.037328,8.6393503-61.6477202,36.356221-69.081202,9.0015474,3.5145077-5.0082965,13.9658158,0,25.4531699,12.9446874-13.9202774,15.0081101-39.7815967,36.3562417-47.2664308,7.936577-.6589521,11.5693481,2.9813708,10.910396,10.9104167,4.3491375-19.8907983,22.0796017-26.3927182,43.6275976-29.0846375-10.2376438-10.0017377-23.944443,7.3820882-36.3559934,7.2715835,5.0596695-27.6654977,4.5779263-60.870484,29.0844099-69.0814089,2.7374784,13.6403433-13.8840081,7.9212665-14.5429601,18.1744484,13.167414-3.7948763,16.857827-17.0715121,36.356221-14.5431877-4.3629584,17.4503025-7.4775099,36.1503153-10.9028649,54.5382212,7.6048562,7.6637809,13.6629987-4.7859837,18.1744484-10.910396-15.6217306,10.104463-5.3037894-3.6828406-7.2715835-18.1746553,8.6410883-5.901665,20.9116992-8.1804901,29.0861479-14.5412429,8.513742,5.258251-2.3086185,21.6358451-3.6325641,29.0844099,61.5868506-15.2532852,120.2894694-36.068073,163.6066981-3.6325434,1.8859863-17.6411046-9.5937953-21.9160068-25.445825-21.8206058v-25.4460319c8.4334446,1.1545162,13.958264-.5847168,18.1742415-3.6388125-3.3433403-11.1996406-24.7201894-4.35671-18.1742415-25.445825,36.0972251-3.2328356,43.5246448,28.5666249,39.9890127,54.5306694,5.8142502-9.9408681,7.485041-24.0249473,7.2715835-39.9874817,16.6275279,2.7661753,37.716436,1.064929,39.9950335,18.1742208h-36.356221c12.2343623,5.9461275,26.8956065,9.4606145,39.9950542,14.5416774v25.4531492c8.1303999-1.5676311,1.4724369-17.9149973,3.6325434-25.4531492,27.1835476,7.966805,51.5568712,18.7362615,76.3515028,29.0921893,9.9119436-3.3511197-5.0734903-11.3692769,0-21.8206058,20.2087191-.8134848,26.0305211,12.7523749,43.6275976,14.5429601.1925401,22.0055733-10.6149445,33.0126739-14.5429601,50.9054502,20.6240064-13.3144156,21.4737399-46.4015523,29.0861685-72.7199938,13.0402539,6.7837781,20.637579,15.6081167,32.72345,14.543167-.3105965,5.1626431-.5983514,10.2967961,3.6403022,10.9099822-4.6901896,11.3256833-20.4085833-9.1422593-21.8145437,7.2715835,4.3340339,11.4059808,12.4417784,1.2501448,21.8145437,10.9106236-2.3677502,19.4468141-11.7843367,31.8508335-14.5429601,50.8994087,13.2917602-8.5215007,13.65524-29.9740956,21.8130126-43.6278045,12.1390026,6.0277078,15.7778151,20.5784473,29.0861685,25.4458043.5909858,11.5011749-9.6604788,12.1525752-7.2715835,25.4516596-10.6587656-.2512372-7.966805-13.846249-21.814585-10.9099822,5.9263273,17.0652638,19.4923526,17.2062033,7.2716249,36.356221,7.9305563.6665246,11.5693274-2.973819,10.9028649-10.9030511,13.4629069,3.8768703,26.0531972,14.2250187,18.1819795,29.0848444,6.5245546.4590878,7.6713534-4.4525249,14.5429601-3.6312607,50.1964286,45.542736,86.5223596,104.955866,98.1659637,189.0604887,2.6843882-19.7211413-6.7095635-58.6890049-14.5430843-79.991598,28.3089738,20.7116281,25.6079096,123.0344996,21.8146678,185.4275107-5.4370944,4.2539434-14.8689086,4.5205118-18.1820209,10.9028442-8.0184055-2.8844593-4.7204382-17.0866157-14.5430843-18.1744277-15.7550976,5.2521889,3.8311456,8.123055,0,21.8147712-15.3777969-.8363885-23.3599538,5.7244561-32.7174085,10.9026373-10.8877199-2.388916,3.4767279-7.7669407,0-14.5429808-14.3355234-4.6372855-9.4455109,9.9499303-14.5416774,14.5429808-7.2124105-13.4040028,12.8631485-30.6600479,29.0846789-32.7174085,1.0210871-5.873175-3.4402724-6.264069-3.6388539-10.9104167-12.1311405-.0075518-12.4130608,11.8285923-25.445825,10.9104167,3.535901-31.6069411,36.67439-33.6187633,50.8979398-54.5384488-17.7669818,2.8408658-26.0957356,15.1129871-47.2666584,14.5431877,2.034519-14.9276057,14.4022689-19.5359668,21.8145437-29.0844306-.9846315-8.5668323-16.0956945-2.2192382-14.5429188,3.6312607-10.5635922-8.4699209,12.4054883-14.0173957,14.5429188-21.8132609-.5846961-4.2612883-6.6275075-3.062951-10.9041477-3.6325641,9.4316901-11.1694126,30.4768183-10.7331872,36.3562624-25.4522803-21.6434383,6.2280065-39.5512769,16.1990818-61.8081289,21.8134678,12.9144594-14.9567164,31.3992975-24.3506474,43.626108-39.9950335-11.0284525-2.4422131-31.1994332,17.1895686-39.9875024,29.0921893-14.3050679-25.2975406,31.9328482-21.3192072,36.3562624-39.9967714-8.1077858-3.1056963-26.3109104,14.7795283-43.6275976,14.5429601,2.6327462-11.1176052-6.2793795-10.696504-3.6388539-21.8128264,22.5311584-5.3415692,36.4969536-19.2545017,54.538035-29.0861479-16.16244-2.7510717-42.0673322,16.0443422-61.8096185,21.8145437-11.4132843,1.7163499-9.6091265-9.7863147-18.1820209-10.910396,15.0083584-10.4452874,34.4551518-16.4442776,43.635377-32.7174085-23.0795645,12.0420498-63.8956553,43.5975973-83.622838,7.2715835,6.9307798-22.153837,22.6645254-35.5062392,25.4445422-61.8095978-13.9282637,16.3700423-24.1203484,36.4667464-32.7161258,58.169275-16.9623109-2.4329233-14.6975136-24.0838721-32.7247328-25.4518665.0224278-15.7261939,8.4392378-23.0644609,7.2713352-39.9889921-7.5079447,8.2486839-7.4336681,24.0778306-14.5429188,32.7174085-10.4817844-1.6345421-11.3680148-12.8631072-25.4521147-10.9028442-4.9932136-11.5026853-.7923398-12.1540856,0-25.4533768-10.0377381-1.5542654-3.4100238,13.5583079-10.9043546,14.5416567-15.0672418-12.1890308-26.0669767-5.8582783-32.72345-25.4445216-5.6370621,8.2758911-7.5744213,6.8640963-18.1817933,3.6312607,2.6707949,3.3947132,6.6124245,5.5112262,10.9104167,7.2716042-8.0261642,17.1971204-28.6121633-1.5678586-39.9952611-3.632771,2.6692639-3.3951477,6.6126314-5.5097158,10.910396-7.2700938-12.7085537-11.7616605-31.6373553.9317689-47.2664101-10.9119064,1.8935381-5.3765351,5.3763075-9.1638595,7.2698663-14.5416774-9.771211-2.5069724-7.0261808,7.5157034-10.9028649,10.9106236-10.9768726-3.5723359-21.6660524-7.4263438-32.72345-10.9106236-.7998916-11.7103083,6.4278915-15.3851625,3.6312607-29.0844306-10.1862708,1.9298281-6.7170947,17.5152894-10.9028442,25.4518665-19.3952343-12.7812994-46.6378928-8.98663-72.7200145-3.6390194,16.1777299,11.007535,64.8486106-15.2897822,69.0796917,14.543167-21.0738045,1.7377226-67.4753568,19.6453956-76.3512752-14.543167-6.1837715-1.3390699-6.8563169,2.8328588-7.2716042,7.2715835-39.351185-27.1392919-75.1013373,4.734197-101.7970795,21.8132609-3.1221033-11.5980656,5.7173388-11.2436686,7.2715835-18.1817933-17.0427946,4.7795285-33.7005504,9.9346197-43.6278045,21.8221161-11.8419787-1.495113-9.3788274-17.2940318-14.5431877-25.4535837-8.8605872,5.6068342-1.1679025,25.1203318,3.6329986,29.0848444-4.8311084,12.1389613-21.2663445,12.6632429-25.4536044,25.4536044-7.4777168-.9984731-3.4175756-13.5451491-10.9028442-14.5431877-7.5973043,2.1011818,5.2446577,13.7294753,3.6312607,21.8145643-5.4581153,5.4432186-15.3035823,6.5021268-18.1744484,14.5414498,3.2254907,7.6048355,20.2985132-1.1676956,18.1744484-10.9101891,9.3501099.3546246,5.2006297,14.1948115,14.5431877,14.543167-14.253757,13.6250121-36.882013,18.8620973-54.5306694,29.0921893,5.0218898-10.7329803,16.7911228-14.7203759,21.8130333-25.4535837-19.2089632.022883-38.0499155,35.1278834-47.2664101,47.2668446,5.8140226-.1620845,22.6204974-13.2841877,25.4533768,10.9026373-20.9632998,5.7551185-46.1652325,26.4896089-65.448431,21.8147712-2.2647974,3.7432964-2.2043622,12.5158275-18.1744484,10.9099822,19.1575903,9.3654411,37.1395193-13.6839369,58.1695026-14.5429601-1.124102,8.5743841-12.6267666,6.7611227-10.9104167,18.1820002-7.5972837,1.5391411-9.6242301-2.4918688-14.5431877-3.6390401-5.088594,1.2876969-.3105758,6.3993808,3.6403435,7.2715835-27.2288584,25.9854172-52.98528-11.5387064-76.3527856-21.8145437,11.2587722,14.1963218,27.3987224,23.5084451,43.6278045,32.7251672-1.139185,12.1829893-22.9977774,3.6614886-25.4458043,14.5431877,7.463896,7.2184933,23.0856266-8.2486839,36.356221-7.2715835,7.5668488,17.309363-19.6831547,27.870969-32.72345,36.356221-18.2411319-8.418341-34.6854302-18.6408604-50.8994087-29.0846375,10.8875337,14.0022921,37.2955417,37.4287225,54.5380143,39.9874817-11.9829182,33.7899307-55.1440831,24.3141919-72.7200145,3.6383987.4802329-32.4353227,7.0125876-57.8584716,10.910396-94.5328409,2.9449152.6954283,3.6252192,3.6537092,7.2716042,3.6386056-6.2142064-9.3559444,5.0961458-29.8389906,14.5429601-43.6260873ZM900.2177196,623.2859579c-20.9708102.8512645-2.4482339,41.1797776-29.0848444,36.3560141,17.9154524-16.9379175-3.2252217-8.0984754,3.6312814-32.7232431,11.7769711-5.1930572,24.7883833-9.1424662,39.9965645-10.9028442-5.1036976,13.0767716-3.0403369,33.3159255-18.1817726,36.356221,2.617684-8.7440411,10.3043066-21.9842007,3.6387711-29.0861479ZM856.5899564,695.9984413c-7.6851743-12.6705671,6.6866391-34.4035719,25.4457836-32.7234914-10.8285882,10.9922452-2.8479624,40.7874146-25.4457836,39.9950749,4.2098946-1.4057534,4.2098946-17.6562496,0-7.2715835ZM842.0407065,703.2700248c-6.5172304.4590671-7.6639878-4.4525456-14.5432084-3.6312814.4364738-14.1069829,10.7181042-18.3743127,18.1820209-25.453563,11.6436041,8.3956235-7.744306,16.2141647-3.6388125,29.0848444ZM798.412902,645.1005222c2.0118015-13.7735034,14.7719558,7.8927766,3.6387711,7.2715835-8.9121257,11.2134407,6.547479-7.8849972-3.6387711-7.2715835ZM812.956069,677.8241998c-.0969114,3.5356527-4.4462559,2.8190379-7.2715835,3.6323159.1029529-3.5354044,4.4522973-2.818831,7.2715835-3.6323159ZM809.323298,670.5465748c4.208405-14.3659996,4.208405,14.371772,0,0h0ZM809.323298,619.6471454c-10.6589725-3.0767718,2.1754584-11.7027564,0-18.1742415,14.1870528-2.5527178.1771882,12.7448231,0,18.1742415ZM765.6954935,645.1005222c3.463114,20.9846518,39.1604036,129.4548392,18.1742001,152.7042677-40.2464983.318169-87.2614436,2.9205011-127.2504563-18.1822278-11.6345419,3.3133606-85.960381,3.092103-105.4361196,14.5419256-42.6066967,25.0609518-109.173147,172.0614532-167.2470209,83.622838-10.421101-15.865623-6.3823323-29.1953698-10.9104167-43.6263149-15.8218018-50.4919215-43.4946444-118.3385168-76.3512545-149.073007-45.7139034-42.7536777-124.4404806-46.5271813-163.6069256-98.158267-19.1877975-38.0060944,49.1601965-56.6305684,79.9840462-69.0796917,83.563727-33.7672339,146.1354574-77.8241466,149.0712897-189.0604887,6.5858587-48.8893038,43.5095412-107.3523338,94.5257029-83.6228587,6.0579357,7.2187002,38.4876307,46.4894016,65.4499414,69.0798986,23.6476673,19.8102733,54.4564134,24.3292748,54.5306694,50.8991811,84.7832094,54.0046705,201.0356067-38.5679281,265.411557,32.7176361,12.3040665,93.5583267-88.0767078,176.1805606-76.3452131,247.2371086ZM740.243627,848.7022745c-3.8540286-13.543225,7.6546774-11.7388189,10.9026166-18.1816071,7.6108976,3.2253045-1.1694336,20.3058788-10.9026166,18.1816071ZM729.3317,823.2490839c5.3035618-12.049581,9.0470651,14.1810113,0,0h0ZM660.2520083,877.7873258h-7.2715835c-1.0211285-5.8734026,3.4402517-6.2567448,3.6388125-10.910396h7.2715835c1.0209216,5.8731543-3.4389482,6.2655586-3.6388125,10.910396ZM612.9929224,870.517025c-7.8046997-4.187053,14.985434-20.5573022,21.813054-10.9041477-3.06922,7.8336035-18.743834,3.0631786-21.813054,10.9041477ZM612.9929224,877.7873258c12.1888239-8.7865381-8.7880692,12.197886,0,0h0ZM602.081016,852.3352524c2.1011818-8.8032142,13.7296822-8.0775372,21.8145437-10.9045615-2.1009542,8.8109108-13.7294546,8.0852752-21.8145437,10.9045615ZM594.8111498,881.4276279c12.514524,9.3939517-18.7002197,8.7803312,0,0h0ZM580.267962,866.8769298c-.1031598,3.5356527-4.452318,2.8253277-7.2715835,3.6400953.0969114-3.5356527,4.4538284-2.8190379,7.2715835-3.6400953ZM558.4547012,910.5123068c-5.3929215-3.0921444-7.819824-9.1500594-7.2715835-18.1820209,4.6448374-4.9703306,17.1608717-4.9703306,21.8132609,0-.4364324,10.4742119-15.5036742,6.3095867-14.5416774,18.1820209ZM547.5427948,881.4276279c5.4598325-4.2463916,8.8925324-10.5044191,18.1819795-10.9106029-2.5147311,7.1822032-9.6969551,9.6894032-18.1819795,10.9106029ZM543.9115134,917.7838903h-18.1817726c.5924755-4.2313294-.7983812-6.4732023-3.6312607-7.2715835,1.0860947-9.8228116,15.288458-6.5248029,18.1744484-14.5432084,8.0319781.451536,1.5451825,15.423356,3.6385849,21.8147919ZM343.9408357,877.7873258c-7.4123161-6.3385112-7.130644,2.708554-14.5429601-3.6312814.6589521-10.5484472,17.2804386-8.7653931,14.5429601,3.6312814ZM293.0416545,786.8928628c9.5801814-1.0938741,11.9313176,5.0385244,10.9041477,14.5429601-9.580202,1.0954052-11.9313383-5.0369934-10.9041477-14.5429601ZM296.6744256,761.4407895c-8.5728944,11.7012461-14.6901687-12.7830373,0,0h0ZM307.5848216,859.6128774c9.5862435-1.1091846,9.3785998,7.5897112,10.9101891,14.543167-6.5230649.4589016-7.6700293-4.453787-14.5492085-3.6390194,1.9224625-2.9219908,3.7948556-5.9034029,3.6390194-10.9041477ZM285.7715607,714.1804208c-.1044632,3.5356113-4.4538284,2.8192448-7.2715835,3.632771.0954011-3.5358596,4.452318-2.8192862,7.2715835-3.632771ZM242.1437561,757.8078116c5.29601-12.0492085,9.0455548,14.1814251,0,0h0ZM245.7750168,775.9824669c16.6655145,2.4268819-2.9207287,22.0146148,0,0h0ZM249.4153397,801.435823c11.3541733-1.6649563,11.6192107,7.7669407,10.9028442,18.1820209-7.5595039-2.1298993-11.7467845-7.6411048-18.1744277-10.9104374.8952926-3.9506918,7.2260451-2.4631306,7.2715835-7.2715835ZM173.0625541,732.3546209c11.1178328,2.6420981,10.6891798-6.2716001,21.8145643-3.63124-1.1256124,13.2403665.5756339,23.6630192,3.6312607,32.7174085-14.3053368-3.8689254-22.1312023-14.2247911-25.445825-29.0861685ZM180.3341376,772.3509786c-17.8046995-2.7961963-22.2358724-18.9739055-29.0848444-32.7247741,18.8849804-8.5363974,34.3808751,18.5301902,29.0848444,32.7247741ZM180.3341376,695.9984413c3.9492021.9028237,2.4631513,7.2273072,7.2713766,7.2715835.6652211,3.0916478-1.420857,3.4326999-3.6403228,3.6403022h-7.2698663c-1.0211285-5.8734026,3.4387413-6.2579861,3.6388125-10.9118857ZM176.6953251,685.0880039c4.2159775-14.3642409,4.2159775,14.37351,0,0h0ZM191.2367749,714.1804208c-1.2786141,4.771956-6.397436,5.7186423-7.2715835,10.9041477-4.2597779-.5847375-3.0614406-6.6275075-3.6310538-10.9041477h10.9026373ZM191.2367749,659.641972c5.0309726-10.5178055,12.8631072,6.1114604,10.9104167,14.5432084-10.0377795,1.5528999-3.4100238-13.5507768-10.9104167-14.5432084ZM202.1471916,692.3671599c-1.6118867,5.2809271-3.194849-.3695213-7.2700732,0,.8937823-4.5794573,7.2260451-3.669268,7.2700732,0ZM213.0515461,706.910327c-2.3891022,4.8734192-7.7669407,6.7669573-14.543167,7.2700938-1.7012463-11.3239454,9.1424662-12.9965155,14.543167-7.2700938ZM216.6903793,717.8131919c-2.6330152,11.1253639,6.2731105,10.6952212,3.6388125,21.8130126-2.9360599,3.1298827-9.9635235,2.1678859-10.9104167,7.2716249-9.3788067-7.7442646-9.0244097-28.7302612,7.2716042-29.0846375ZM223.9619628,757.8078116c-1.162068,8.5368112-11.2514273,8.1368758-14.5431877,14.543167-10.45886-6.0805911,6.753364-14.7201897,14.5431877-14.543167ZM223.9619628,670.5465748c5.3247276,3.1646004,11.5238303,5.4430117,10.9101891,14.5414291-5.3264449-3.1586003-11.5238096-5.4369702-10.9101891-14.5414291ZM220.3291918,768.7184145c-1.0802809,6.9172072,11.1769645,9.9044125,10.9043546,25.4460733-12.6342977-.6956766-13.8039382-12.855576-25.4535837-14.5419256-1.5542447-10.0375726,13.5583079-3.4097755,14.5492292-10.9041477ZM231.2335464,706.910327c11.6496662-1.0211285,13.2175042,15.9172235,7.2698663,21.813054-7.7138298-2.9222391-14.1719285-14.964082-7.2698663-21.813054ZM147.6089704,637.8291456c9.3954414-12.5238138,8.7880692,18.7000128,0,0h0ZM136.7063331,506.9394216c-3.1875041-11.672094,9.4241383-7.5379244,10.9026373-14.543167,6.1475022.6514003-1.6936945,17.2793627-10.9026373,14.543167ZM151.2492932,481.4860448c12.1905411-8.7802898-8.7878623,12.197886,0,0h0ZM231.2335464,430.5868636c-3.9511263,8.2258009-14.8537636,20.4372802-25.4535837,10.910396,7.8487485-4.2751091,16.7017839-7.5444003,25.4535837-10.910396ZM213.0515461,412.4048634c4.2159775-14.3642616,4.2159775,14.3735307,0,0h0ZM263.9567894,343.3327442c7.6048562,3.2235251-1.1679025,20.2965476-10.9101891,18.1742208,9.4528558-6.3322628-5.8733819-12.7523749-3.6312607,0-6.2368618-4.6748377-14.2992954-7.515269-14.5431877-18.1742208,11.561817-.5559992,15.9929692-8.2487046,29.0846375-7.2716042-3.2690843,6.2429032-3.2690843,22.900866,0,7.2716042ZM314.8564258,263.3411462c12.9446667,7.4563442-6.0961499,12.8779832-10.9106236,14.5416567-9.1575905-3.6677369,12.6934294-6.2793795,10.9106236-14.5416567ZM325.7666149,277.8828029c6.0505908,11.4208775-13.5220592,14.8611085-3.6388332,18.1815657,18.9363533-5.4503359-14.4613592,8.7729656-21.8145437,10.9045821-1.5603068-6.9247383-7.8336449-9.1288729-7.2715835-18.1744277,15.4080455-5.9111823,18.522804-10.0239793,32.7249603-10.9117202ZM351.2124192,274.2515422c12.7888512,6.2202478-9.1211142,7.3229565-7.2715835,14.5429808-8.7136063,1.4422297,2.019374-16.5623548-10.9026373-10.9117202,1.4117949-10.7029799,17.1228851-7.1079679,21.8130333-14.5416567,12.7677061,6.2066339-8.4774727,7.9728464-10.910396,10.910396.903072,4.5718848,7.2338245,3.6614886,7.2715835,0ZM329.3978755,332.4208172c12.7010019-3.2539807,6.2141857,11.8587995,3.6403228,14.5431877-4.9340612-1.124102-3.0176401-9.1062175-3.6403228-14.5431877ZM333.0381984,325.1505165c-6.3913945-9.031527-6.6504112-5.9472034-10.9104167,3.6390401-5.3188931-3.1661314-11.52532-5.444522-10.9043546-14.5429601,11.3543802-1.722619,22.6874084-15.4885499,32.7174085-7.2776457.9106238,10.6071651-6.8427236,12.5449588-10.9026373,18.1815657ZM307.5848216,423.3152594c2.3297636,13.241463-17.3171217,4.4976495-18.1820002,14.5431877-7.4563442-4.208405,9.468187-14.4840353,18.1820002-14.5431877ZM285.7715607,357.8744009c.0954011-3.5358596,4.452318-2.8253277,7.2700938-3.6388125-.1031804,3.5356527-4.452318,2.8253277-7.2700938,3.6388125ZM314.8564258,343.3327442c10.3997283,7.1442373-8.4397136,15.5034259-14.5431877,18.1742208-7.1308716,7.7442646,8.1001926-16.1850748,14.5431877-18.1742208ZM307.5848216,405.1408317c1.2876969-4.7780181,6.3987394-5.7246837,7.2716042-10.9104167,11.9159864,2.0271534,5.5550267,14.0689963-7.2716042,10.9104167ZM311.2234271,379.6889653c2.4558064-8.4485689,12.0800365-9.7347348,14.5431877-18.1820002,8.9939749,5.747546-4.4160486,19.5348703-14.5431877,18.1820002ZM325.7666149,266.9799587c.931562-16.0367904,15.5625783-18.3743127,29.0846168-21.8132609.3773007,17.3382875-17.7531196,16.1759919-29.0846168,21.8132609ZM303.9458022,321.5104005c3.1283517,2.9375703,2.1663549,9.9637511,7.277625,10.9104167-6.7820609,10.1862708-19.9194952,14.0173957-32.72345,18.1820002.5907375-4.2310811-.8059537-6.471692-3.6403228-7.2700732,4.1872599-12.7828097,10.8588161-23.0795852,29.0861479-21.8223437ZM267.5895605,336.06114c1.5892313-4.4749734,4.6523892-7.4716754,10.9104167-7.2715835-1.5907417,4.4676285-4.6536926,7.4641236-10.9104167,7.2715835ZM285.7715607,365.1457775c-3.8766634,8.2394149-11.0299835,13.2116696-21.8147712,14.5431877-1.6116591-3.2403874-3.1948283-6.5019199-7.2713766-7.2716042,5.9323274-6.250455,21.3403729-13.9431397,29.0861479-7.2715835ZM285.7715607,390.5918095c-.1044632,3.5356527-4.4538284,2.8253277-7.2715835,3.6386056.0954011-3.5356527,4.452318-2.8177759,7.2715835-3.6386056ZM256.6854128,379.6889653c-3.1646211,5.3173827-5.4432186,11.5238096-14.5416567,10.9028442,3.1585589-5.3188931,5.4369495-11.5179958,14.5416567-10.9028442ZM220.3291918,397.8634137c7.3380601-8.4107892,12.0798089-19.4256691,25.445825-21.8147712-7.3443291,8.4105616-12.0783192,19.4316898-25.445825,21.8147712ZM256.6854128,390.5918095c-.7983812,6.5973209-14.105245,31.8659371-36.356221,29.0921893,2.7737271-19.0393062,24.7883833-18.8409523,36.356221-29.0921893ZM245.7750168,477.8530669c-5.9688037,7.3613776-12.1525752,14.5071253-25.445825,14.5431877,4.5356155-8.7952072,14.8975847-11.7614743,25.445825-14.5431877ZM209.4187751,452.4014073c-2.3526259,10.9844451-16.5170233,10.1485117-21.8132609,18.1820002-9.2393776-7.5018826,10.3634796-30.7647181,21.8132609-18.1820002ZM198.5083791,434.2271865c-7.9290459.6574417-11.561817-2.9813708-10.9028649-10.911927-3.0916685-.6652004-3.4326792,1.4208777-3.6403228,3.6403435-4.6144025-6.6126521,8.7593723-7.1457683,21.8147712-10.9106236.5620407,9.0457824-5.7112974,11.2574688-7.2715835,18.1822071ZM183.9651914,452.4014073c-8.0546542,7.7002572-7.6546981,23.855311-25.4443147,21.8132609,1.6710184-14.0765274,9.4090346-22.0949123,25.4443147-21.8132609ZM173.0625541,485.1246504c-.1031804,3.5360872-4.452318,2.8194931-7.2715835,3.6329986.0969114-3.5356527,4.4462559-2.8192862,7.2715835-3.6329986ZM514.8268759,266.9799587c5.3189137-5.2144298,11.5240372-2.7892859,10.9028649,7.2715835-14.053872-.4877847-14.3430959-14.7490934-25.445825-18.1820002,1.1238744-4.9340612,9.0984588-3.0100676,14.5429601-3.6312607-6.0581426,7.2184933.3257001,4.621975,0,14.5416774ZM667.5233849,285.1541795c12.8328792.5027021,16.2582135,10.4075077,29.0923962,10.9101891-1.6209282,10.5046467-27.4729577-3.2310976-29.0923962,7.2716042-10.6662968-3.0916685,4.734197-9.1500387,0-18.1817933ZM736.6032835,314.2465964c-.169657,15.5791922-21.8132609,9.6907067-36.356221,10.9039201,3.7067994-4.7793009,3.5660669-13.4035476,7.2713766-18.1815657,14.4689317-2.3453017,14.6159127,9.6225129,29.0848444,7.2776457ZM714.7900226,292.4257837c4.2159775-14.3642616,4.2159775,14.364034,0,0h0ZM740.243627,310.6075563c-3.3964512-3.8824979-13.4115546-1.1314263-10.911927-10.9101891,7.9380874-.6589521,11.5693688,2.9813708,10.911927,10.9101891ZM747.5137209,321.5104005c11.7691917,6.4142982,23.3521744,13.0115984,29.0861272,25.4536044-12.346398-.9833694-29.4770418,2.8177552-36.356221-3.6312607-1.7468054-11.4435329,5.1779329-14.2174876,7.2700938-21.8223437ZM729.3317,332.4208172c-.0954217,3.5358596-4.4447662,2.8190586-7.2700938,3.6403228.1029529-3.5358596,4.4522973-2.8253277,7.2700938-3.6403228ZM667.5233849,346.9640049c-24.2112183,8.513742-28.3756159-18.8182969,0,0h0ZM652.9804248,317.8789329c9.4528558-9.7861078,10.9693208,4.4449731,21.8206058,3.6314676-3.3053536,8.5957567-20.8148085,8.4336722-21.8206058-3.6314676ZM667.5233849,332.4208172c11.1907646,2.545166,6.9899321,2.545166,18.1820002,0,2.1374718,7.7533474-21.7176529,13.2039109-18.1820002,0ZM671.162425,314.2465964c-1.4424573-9.0606791,22.7083466-10.7619254,25.4533561-3.6390401-1.5315479,20.6816277-11.5920035.9166653-25.4533561,3.6390401ZM696.6157811,332.4208172c7.5819731,6.9610077,22.413102,6.6732942,25.445825,18.1820002-14.0629135,1.946649-17.7455471-6.4943681-32.7174085-3.6388125,1.886007-5.3780454,5.3778385-9.1651423,7.2715835-14.5431877ZM674.8010306,274.2515422c18.7304269-2.9813708,23.2492215,8.2543116,36.356221,10.9026373-5.7762429,14.253757-31.0297762-1.9222556-36.356221-10.9026373ZM652.9804248,303.3359728c-11.5769206-1.7526193-15.2081813-11.4493675-29.0848651-10.9101891,10.4362253-6.5245753,22.338846-11.5980863,39.9952611-10.9026373-3.4842591,7.4259094-7.4261163,14.3868963-10.910396,21.8128264ZM642.0775599,325.1505165c-10.3043273-.6071446-15.1490289-6.6655148-25.4533768-7.2715835,6.7246671-5.4002664,17.2713971-6.9605732,29.0846375-7.2713766.4666603,6.5248029-4.4447455,7.6702569-3.6312607,14.5429601ZM569.357566,292.4257837c9.727183,9.29853,19.1726939-2.189031,32.72345,0,.451536,16.4732021-30.5419708,12.1011815-32.72345,0ZM598.4497554,343.3327442c-.1029529,3.5358596-4.452318,2.8177552-7.2716042,3.6312607.097139-3.5358803,4.4462765-2.8177759,7.2716042-3.6312607ZM572.9963785,281.5231464c.5846961-4.2615159,6.627735-3.0707304,10.910396-3.6403435-.5909651,4.261309-6.6352869,3.0705235-10.910396,3.6403435ZM605.7213389,317.8789329c-.1044632,3.5360665-4.4538284,2.8177552-7.2715835,3.6314676.0954011-3.5280802,4.4462559-2.8175483,7.2715835-3.6314676ZM609.3525995,346.9640049c-.0954011,3.5358596-4.452318,2.825307-7.2715835,3.6388125.1044632-3.5358596,4.4538077-2.8253277,7.2715835-3.6388125ZM609.3525995,292.4257837c6.9247383,1.5602861,9.1349351,7.8336242,18.1817933,7.2715835-1.6496664,7.1457476-25.5049567,6.5383961-18.1817933-7.2715835ZM616.6241831,277.8828029c1.8935588-5.3765144,5.3778385-9.156287,7.2713766-14.5416567,6.7974128,2.899563,13.3146432,6.0792876,21.8132609,7.2715835-5.8066777,6.3096074-16.3624698,7.8774454-29.0846375,7.2700732ZM609.3525995,277.8828029c-13.2917395-1.2423654-28.7075644-.37728-29.0846375-14.5416567,10.2967754-2.7737478,27.4500954-10.725656,36.356221-3.632771.5620614,9.0470651-5.7112767,11.2511998-7.2715835,18.1744277ZM551.1831177,245.1666978c5.8945477-5.4671774,26.8291299-5.4671774,32.7236569,0,1.0876258,9.5197669-34.5429597,13.0480747-32.7236569,0ZM565.7247743,281.5231464c-17.9668047,2.0934024-29.2029009-4.7190933-21.8132609-18.1820002,9.5577535,3.7722002,23.7221509,2.9358323,21.8132609,18.1820002ZM540.2729286,252.4382813h-7.2716042v-10.9119064c2.9282805,1.9239729,5.9020995,3.7948556,10.9101891,3.6403228-.6952008,2.943591-3.6463643,3.6161571-3.6385849,7.2715835ZM845.679519,517.8500452c4.1054521-11.6876321,10.3785832,3.497873,7.2715835,10.9026373-6.1839577-1.3390492-6.8565445,2.8404313-7.2715835,7.2716042-12.8039755-2.88448,11.0073488-17.0868433,0-18.1742415ZM845.679519,492.3962546v-7.2716042h7.2715835v7.2716042h-7.2715835ZM860.2226861,561.4778704c5.983928.4953572,5.983928,24.9565093,0,25.4518665-14.4326831,1.7085705,1.6496458-17.0048286,0-25.4518665ZM860.2226861,601.4729039c2.5736559,15.9031958-1.9013175,24.7652934-10.910396,29.0846375-7.58218-6.6488801-1.6952049-30.578447,10.910396-29.0846375ZM831.1378417,616.0158847c16.598831.4439635,1.9740631,20.6298203,0,25.444294-10.7785187-5.2809064,4.7858182-14.1794803,0-25.444294ZM834.7690816,601.4729039c.1029942-3.5358596,4.4538697-2.825307,7.2716249-3.639247-.0969114,3.5360872-4.4462972,2.8255553-7.2716249,3.639247ZM838.4081424,590.5622803c-1.5378376-7.5970561,2.4933378-9.6240025,3.6325641-14.543167,6.4201121-1.1601438,6.4943474,20.3651967-3.6325641,14.543167ZM845.679519,550.5659434c6.4732023,2.6707949.5255644,6.6139349,0,10.911927-6.4717126-2.6632224-.5242816-6.6141418,0-10.911927ZM831.1378417,725.0845685c-3.8842359,3.3946719-1.1316538,13.4100235-10.9116788,10.910396,3.8842359-3.395127,1.1331435-13.4113477,10.9116788-10.910396ZM842.0407065,666.9135555c-10.5633439-10.8072362,1.9224625-29.41011,14.5492499-29.0844099,7.1835274,18.0255019-4.9856825,19.4543659-14.5492499,29.0844099ZM885.6760836,616.0158847c-1.1180399-8.3894165,10.5028881-4.0387686,10.9028649-10.911927-5.4521152-12.0191668-8.891022,7.5534832-18.1744898,3.6403228,1.9816356-29.5288286,20.0378206-42.9761974,43.6278459-50.906733,14.4310279,7.538152-1.872393,36.5045054-3.6403435,50.906733-16.6791078-3.3584439-17.5608278,9.0911139-32.7158775,7.2716042ZM940.2066288,554.2062869c10.2817132,3.0025158,9.422752-5.1266013,18.1820209-3.6403435,4.4885874,32.3705633-9.0986243,46.6530172-32.7251052,50.9069605,7.4413233-17.3533911,6.0505494-27.2064099,14.5430843-47.266617ZM118.5243329,536.0242867c-5.6808626,3.6767991-19.5862433,6.0505908-21.813054-7.2716042-7.2275554.0516006-4.6234647,9.919723-14.5431877,7.2716042-4.3644481-4.7719767-1.4195536-5.7188492,0-10.9028649-13.8764562,6.8791999-23.0493572-6.8867517-36.356221-10.9116995v-25.4520734c7.7518371-1.6952049,6.9230211,5.1988917,7.2716042,10.9101891,5.2368784-40.594647-3.3586715-60.8322905,18.1742208-98.1660464,3.328216,26.4006838-9.4090346,68.1196397-7.2715835,105.43763,8.033716-.4513084,1.5468998-15.4231491,3.6403228-21.8147712,24.9353642,5.3629418,32.672077,27.9245144,58.1694819,32.7253948.8286091,11.0284732-26.2442062,9.9861996-7.2715835,18.1742415ZM96.7112789,557.8375476c.5847168-4.2600055,6.6277557-3.0616682,10.9026373-3.6312607,1.162068,8.4319342-.5846961,13.9582434-3.6312607,18.1742208-10.6224756-3.2846224-1.0589082-13.3811198-7.2713766-14.5429601ZM89.4396954,568.7475091c-17.1246024-4.6884309-30.3723344-13.2610977-43.6278252-21.8128264v-25.4535837c12.4933789,17.7971477,46.0091687,14.5872158,43.6278252,47.2664101ZM67.6264345,401.5017917c-8.9726229-9.5709123,10.4877844-21.0660251,0,0h0ZM82.1680912,303.3359728c9.0090992,9.2547088-3.497873,27.8351341-3.6388125,39.9967714-21.2814274-7.4427509-.7256356-26.9184895,3.6388125-39.9967714ZM122.1571039,499.6678381c12.5222827,9.3941379-18.692461,8.7882761,0,0h0ZM85.8008829,285.1541795c-3.0783029,15.0976766-18.5454801,17.8198238-18.1744484,36.356221-14.1961149-7.2851768,4.8962815-33.4702513,18.1744484-36.356221ZM53.0834744,346.9640049c-8.9728298-9.5635881,10.4815361-21.0662527,0,0h0ZM56.714735,350.6028174c16.429174,9.3136336-4.4598698,40.5873021-7.2700938,54.5380143-13.3524022-19.3801306,3.3949201-33.7005504,7.2700938-54.5380143ZM42.1730577,434.2271865c16.5610513,5.258251-3.1887868,31.6947697,3.6388125,50.8974639-11.0664598-22.4793303-4.5930299-30.0751243-3.6388125-50.8974639ZM27.6300975,441.4972596c9.0393064-11.1391847-2.2330798,28.6482258,7.2713766,29.0861479-11.0876255,13.1812555-6.45034-19.9725854-7.2713766-29.0861479ZM34.9014742,503.2993057c-4.1872806,11.769233-4.1130246-9.7560867-3.6388332-14.5416567,4.1857495-11.7616812,4.119066,9.7636592,3.6388332,14.5416567ZM31.262641,510.5784617c14.3415855-1.0060249,1.0573979,25.6079096,10.9104167,29.0846375-10.3408035,11.2738759-12.4782546-16.3987392-10.9104167-29.0846375ZM31.262641,546.9346827c19.8528117,16.50343,15.9914588,56.7194935,21.8208334,87.2556504-15.9929692-27.2653554-10.3043479-61.521905-21.8208334-87.2556504ZM60.3550579,637.8291456c-3.5358596.0954011-2.8253277,4.4462559-3.6403228,7.2713766.2225197-23.0415985-6.043039-59.901163-7.2700938-83.6226518,15.3702865,4.0234374,23.0780748,15.695759,39.9950542,18.1742208-2.9146873,12.6116423,5.4142941,13.9796367,3.6312607,25.4518665,14.3066196,2.1827827-.9242171-25.1639254,14.5429601-21.8132609-.8877408,15.43697,9.5122151,19.57265,7.2716042,36.3564486-18.0788404,1.1165295-33.3537052-.577165-47.2590859-3.6312607,12.0785261,19.7196309,55.2472428,18.9363533,69.0798986,7.2700732,1.1542886,8.5363974,5.7399942,13.6474606,3.632771,25.445825-13.8706424,4.5569881-17.5094549-3.2099526-29.0861479,3.6403228,10.814788,7.2927493,20.2238227,5.1779536,32.7247534,3.6312607-1.5238306,17.2791558,5.2811133,26.2291026,7.2715835,39.9950749,8.3443126-7.4108264,1.3166214-30.1936359,3.6312607-43.6263355,9.2469501,7.7140574,8.7515929,25.1868084,10.9104167,39.9950542-15.5777026,9.8681225-36.6668175,14.2310808-54.5380143,21.8132609,14.8308805,6.2368825,39.6995613-8.6911578,54.5380143-14.5416774,6.3035453,5.8066984,7.8714039,16.3625112,7.2715835,29.0846375-20.3118995-11.3692562-11.9980218-1.9451387-21.8132609,7.2715835-11.8721859.9619968-7.707809-14.106776-18.1817933-14.5429601-5.2219816,10.8297055,12.7599267,22.1538577-3.632771,21.8145437,32.7765609,15.6960073,48.19971,48.7526885,69.0736502,76.3512959-7.9743568,4.1417008-14.8535567,9.3788067-29.0846375,7.2715835.5469371,20.8663677,31.7327563,7.818293,36.356221,0,9.1198108,3.0025158,11.5026646,12.7372713,18.1820002,18.1742415,6.0503839-9.6982585-22.9539562-23.0491917,0-32.7174085-26.8668889,12.1829479-32.391936-21.5253405-47.2666377-32.7236983,15.526102-19.4770421,26.9547382,9.489539,39.9950542,14.5419256,2.6478912,9.9194747-7.227783,7.3229358-7.2716042,14.5429188,10.27412,3.0025158,9.4166071-5.1190081,18.1817933-3.6327297,1.2209928,15.7414837,21.2225027,12.7083055,21.8147712,29.0863341-14.6536924,9.5862435-21.8812478,26.5986239-39.9965645,32.7159189-75.1833727-50.8539117-133.5086908-118.5657745-149.0637172-229.0477842ZM220.3291918,874.1560444c9.2545019-17.4123159,29.5225803-23.8037104,39.9889921-39.9950335,7.2260658.0436143,4.6234854,9.9179851,14.5414705,7.26968-10.3103894,16.3475731-26.0139071,27.3110593-39.9875024,39.996937-5.3853696-1.893745-9.1651423-5.3855765-14.5429601-7.2715835ZM267.5895605,899.6018694c-9.0984381-3.0176194-14.2763917-9.9559717-25.4458043-10.9028235,15.9549619-12.3690741,34.9942681-50.6629027,58.1694819-32.7251879-15.5474746,10.6893867-15.1704015,28.8774076-32.7236776,43.6280114ZM289.4028213,910.5123068c-6.5172304.4588602-7.6639878-4.4523387-14.543167-3.6388539,6.7913506-14.1220865,18.1820002-33.6944676,36.3637728-25.445825-5.7399942,11.2283581-12.5296276,21.399546-21.8206058,29.0846789ZM296.6744256,917.7838903c3.6023362-12.1618443,14.5869882-16.9323106,18.1820002-29.0848444,10.2965479,3.7872831,15.1490289,3.7872831,25.4533561,0-6.7324259,12.6556704-14.240143,24.5431668-21.8147712,36.3561796-7.6033251-2.0934024-10.3770729-9.0181407-21.8205851-7.2713352ZM329.3978755,928.6865069c2.708554-23.9522224,23.4264304-29.8981223,25.4533561-54.5304625,21.6071483,15.4367631,1.8784552,67.1572084-25.4533561,54.5304625ZM383.9360968,946.8683209c-11.5013818.5924755-12.1527821-9.6602719-25.4520734-7.2715835.0211451-16.9455107,10.1180562-23.811076,14.5416567-36.3560141,23.5369557,2.1602721,18.0121363,27.3697772,10.9104167,43.6275976ZM413.0222446,954.1399044c-11.110281,2.6254634-13.2494493-3.7204134-21.8145643-3.6325641,7.0274843-7.5154759,8.8620976-20.230071,14.5429601-29.0924169,6.5230649-.4573706,7.6700293,4.4538284,14.5416774,3.6403022-.5544889,11.560348-8.2396218,15.9914588-7.2700732,29.0846789ZM449.3784656,957.7713927c-11.7981575,2.116244-16.9094069-2.4709513-25.445825-3.6314883-.2151748-23.0569297,17.6333459-31.2888135,29.0846375-32.724981,6.657963,8.572853-1.1165295,20.1651462-3.6388125,36.3564693ZM478.4631031,957.7713927c-10.6451517,3.2690843-11.1694126,3.2690843-21.8145643,0,13.7445789-6.8565445,2.1450029-39.0559611,25.4533768-36.3564693-3.7644208,9.5653053-4.3493444,22.3174733-3.6388125,36.3564693ZM485.7346866,957.7713927c1.4271261-17.0048493,2.2192589-12.0709743,3.6388332-29.0848858,12.9962672.2819203,17.8865073,35.062524-3.6388332,29.0848858ZM507.5552924,895.9690984c10.8877406,2.3906332-3.4767279,7.7669407,0,14.5432084-9.0468582-.5471646-1.0649497-12.3161908,0-14.5432084ZM514.8268759,957.7713927c-11.4435122-8.3732784-11.2663241-35.7201726-3.6403228-43.6278459,7.7382438,10.4452874,8.7440411,27.6212421,14.5431877,39.9963576-5.1552981-.3103896-10.2967754-.5998411-10.9028649,3.6314883ZM525.7297408,928.6865069c3.5054248-8.9939749,13.9658158,5.0158483,25.4533768,0-.5482405,9.0317546,1.8786621,15.0901248,7.2715835,18.181814-17.0881261,14.8826466-27.9985428-1.8937864-32.7249603-18.181814ZM569.357566,950.5073403c-7.3745571-2.3224394-2.3891229-16.9972768-10.9028649-18.1822278,4.4447662-5.2504716,13.8766838-5.5170401,18.1744484-10.9101891.6134137-7.8774247-12.8935213-1.6420733-18.1744484-3.6310331.0440281-7.2280106,9.9182127-4.6234854,7.2700732-14.543167,16.9700696,4.8446602,14.5870089,29.0408163,29.0863754,36.3560141-1.4651127,10.6515656-21.333028,2.907301-25.4535837,10.9106029ZM583.9067745,892.3302859c7.5608281,7.9670119,11.7465776-3.1872765,18.1742415,3.6388125,1.1180399,8.3820923-10.5029088,4.0387893-10.9028649,10.9043546.3999561,8.8985945,12.0209048.7755396,10.9028649-3.6327297,8.6697851,9.5117185,16.3262212,20.0314895,18.1820002,36.3560141-29.3514128-2.1010162-34.5429804-26.7545015-36.3562417-47.2664515ZM627.5343929,932.3251125c-.4649224-17.715133-11.0662529-25.2971061-14.5414705-39.9948266,6.8049646-5.3111343,24.0914446-.1409395,29.0846375-7.2715835,9.6091265,9.7863147,12.0724847,26.7032733,29.0848651,29.0848444,3.3946926-2.6617121,5.5109986-6.6126521,7.2713766-10.9028235-10.3785832,1.2801244-25.6459169-13.1512758-10.9104167-25.4533975,13.0040259,6.3989256,18.9879539,19.7951697,25.4520527,32.724981-21.7389842,7.345405-37.4500744,20.7193454-65.4410447,21.8128057ZM714.7900226,899.6018694c-19.2620328-3.7583586-27.8271478-18.2197592-32.7174085-36.3564279,6.7686952-.4951503,12.1465337-2.3888953,14.543167-7.2715835,15.7473596,4.8524396,13.7735034,27.4276261,29.0846789,32.7251879-.4075079,6.8640756-12.0209048,2.5225105-10.9104374,10.9028235ZM732.9720435,877.7873258c-9.1729424-5.3704729-15.0309931-14.0614652-18.1820209-25.4520734,2.9358116-3.1221033,9.9635028-2.1601065,10.9104374-7.2715835,11.7752331,4.0978796,12.7009812,21.2147439,7.2715835,32.7236569ZM736.6032835,881.4276279c1.2876969-4.7795285,6.4064981-5.7188492,7.2713766-10.9106029,8.572853,1.1242882,6.7686952,12.6269528,18.1819795,10.9106029-5.8809337,11.1694333-17.4941237,5.1113115-25.4533561,0ZM783.8696936,874.1560444c-23.9142357,1.005818-40.7569591-16.7837986-21.813054-29.0923755,7.8776729,8.1729176,28.53019,17.863645,21.813054,29.0923755ZM802.0516731,859.6128774c-19.2164737-3.816042-24.3717718-21.6798525-36.3561796-32.72345,21.7040183-14.3128886,27.9758667,17.9819083,47.2605756,18.1742415-1.0649497,7.4185644-9.8394463,7.130644-10.9043959,14.5492085ZM805.6844855,863.2454415c1.16033-8.5361905,11.2572412-8.136462,14.5416774-14.543167,7.5608281,3.1740763-5.3689833,16.0961083-14.5416774,14.543167ZM798.412902,812.3462604c16.4442776.5257713,18.4409755,15.4900188,32.7249397,18.174407-13.7583584,11.1558194-33.8792696-2.345281-32.7249397-18.174407ZM849.3122901,819.6178439c-14.3659789-6.2353514-36.7637289-4.4462559-36.356221-25.4533561,12.5811868,6.8049025,25.7564215,13.0342125,47.266617,10.9101891,1.0800947,9.557319-14.1069415,2.8633143-10.910396,14.543167ZM874.7641565,794.1644877c-25.1868291,2.9297702-34.7141064.7180631-54.5379936-7.2716249-2.1452098-15.4809981,2.6191737-24.0476441,3.6400953-36.3564693,22.3388253,2.7528303,36.6594933,13.3222157,61.8098254,3.6330193.2212162,10.879775-6.2884417,24.8837637-10.911927,39.9950749ZM831.1378417,739.6262045c5.6808626-8.8605665,7.5154759-21.5695341,14.5416774-29.0845961,26.0821217,1.8421444,46.0471553-2.4329647,61.8096185-10.9028649-1.7375364-4.9932136-24.1808042-.2305267-29.0846789,3.6312814-4.7855699-12.1752513,9.674341-36.2895582,21.8132609-43.6280528-1.9224212,2.922446-3.7948556,5.9038167-3.6387711,10.9046028,6.6489008-13.9509398,22.1311816-19.0699893,36.3561383-25.4460526-8.8106625,41.652438-30.5421156,136.4220746-101.797245,94.5256822ZM907.4891376,746.8978294c-.0742353-20.7269593,20.5786542-52.0977461,29.0848444-76.3512545,6.8275786,13.4689483-19.646906,55.0695995-29.0848444,76.3512545ZM911.1203775,645.1005222c5.5932202-19.8620808,14.388655-36.5198366,32.7251879-43.6276183,17.4122331,10.3557209-7.4049919,43.3975261-32.7251879,43.6276183ZM954.7557959,652.3721058c-7.3594328-2.9736121,2.3011702-19.1664455,3.6328538-25.4533768,9.2226395,4.8371498-5.3341001,16.1397432-3.6328538,25.4533768ZM965.6585781,550.5659434c4.209936-14.3644685,4.209936,14.365772,0,0h0ZM969.2989216,459.6715011c8.0699647,2.6556706,2.5586764,39.3224882,7.2715835,43.6278045-13.329664,10.7254491-4.9855997-31.2298473-7.2715835-43.6278045Z"/>
    <path d="M416.6610571,99.7342413c4.2902128-1.7679505,8.2394149-3.8766841,10.9026373-7.2716042-4.8598052-.5622476-20.0451035,5.7112974-10.9026373,7.2716042Z"/>
    <path d="M351.2124192,125.1800456c-18.4923691,2.973819-39.7450997,18.957726-14.5429601,7.2776457,4.823329-2.240404,22.0282288-5.6141791,14.5429601-7.2776457Z"/>
    <path d="M907.4891376,321.5104005c-21.2223164-13.6249914-36.7924465-68.5994381-61.8096185-54.5304418,27.8273961,8.5592805,41.4007869,50.6630682,61.8096185,54.5304418Z"/>
  </g>
</svg>