<?xml version="1.0" encoding="UTF-8"?>
<svg id="Brussels_sprout" xmlns="http://www.w3.org/2000/svg" version="1.1" viewBox="0 0 1000 1286.4117054">
  <!-- Generator: Adobe Illustrator 30.0.0, SVG Export Plug-In . SVG Version: 2.1.1 Build 123)  -->
  <g id="outline">
    <path d="M653.7176547,11.8360957c-17.7691292-.418967-34.4169055-1.803201-52.0669166-2.9861666-84.1959338-5.8573227-188.6090784-21.4001764-256.5186975,11.3121086C124.6362886,126.3989209-11.827677,419.9797664,37.9511981,728.5653806c-63.2968748,140.2553593-27.2780367,308.6677645-31.6484374,457.6844629,67.671383,58.2446259,183.8773743,73.2863621,286.7623633,100.1618619,63.6583365-35.7025591,377.5796184-145.5294143,432.2958851-340.7558861,176.8944329-123.8867147,331.1276809-421.4436391,254.4731528-700.9644456-31.6484374-115.2857486-181.1087478-229.3638864-326.1165072-232.8552779ZM920.9489398,178.7451488c3.4871072,31.4060938,34.9753514,37.8877595,26.7151298,79.8625008-14.0395015,8.1821788-27.8777345,16.6477764-38.1876084,29.0812377-1.7662334-.0577015-3.5694344-.1809271-5.2535174-.3614617.1191181,6.3789777-7.7837494,2.8914975,0,0-.4434357-6.0955589,1.7210507-14.5775865-4.2923578-15.8427025-26.4359952,27.5984232-69.1541976,36.9224924-107.4237828,51.265755,0-37.7684461-11.5094431-65.403837-15.1199527-100.1205914,12.9140412,1.6633476,16.8040357-7.0197507,21.7000253-14.3639955,23.9468384,36.2817194,6.017516,51.0234097,20.6567153,95.2287311,31.250008-5.6149791,49.0561049-26.2347268,80.1869948-32.0098991,12.9961916-13.1153096,52.1860347-20.1350604,34.2156371-50.2226404-17.3706998.8256114-23.4250069,14.3023827-32.7328225,24.2302573-12.9549404-14.9020806,22.5420668-22.5050991,23.223915-40.4344215-.7598911-5.8942904-5.3356678-8.5231029-9.7882189-11.0492273-19.3710618-8.7449089-2.3659312,23.2649902-21.7000253,14.4173933,4.1732398-15.5633912,9.8703693-29.5412799,27.7998685-29.6809356ZM643.6502943,277.7035075c8.301127,22.1806051,6.0584214,53.8085049,16.6065314,73.9846404,13.5178465-21.4782192-5.8162475-78.8397284,5.7340972-98.8762083,23.9879136,21.420714,18.6524167,68.9734667,30.7285242,101.024441-20.7390369,8.1409092-46.209595,10.8684965-68.8750574,16.8860125,6.7404394-39.6088101-31.2869757-87.502487,15.8059047-93.0188856ZM617.1771616,375.3967503c-35.2218111,6.6993642-17.1694313-54.995578-17.2515817-63.6994117,13.9614586,13.8793082,10.4700671,43.3630829,17.2515817,63.6994117ZM688.0565174,233.1985342c5.171538.3203865,6.3748702-3.8323157,10.667228-4.6745549.4805798-7.9437449,15.1240582-16.2247023,10.350949.6204332,3.5283592.1437632,6.9786756.4230745,10.4700671.6038054,9.8662617,32.3713608,15.9618206,68.1725004,25.5118033,100.7615598-7.3440726,12.0761072-18.2127413,20.1966732-37.6659534,18.6931264-10.9506469-34.6960222-8.4655976-81.3288873-19.3340941-116.0043698ZM736.6320424,204.6592907c-15.6044664-6.0791289,6.7774071-13.5587234,6.3748702-20.5375978,15.6866168,6.0341449-6.6952567,13.5548145-6.3748702,20.5375978ZM761.4989652,227.020825c-10.3879167-.521655-7.4592553,13.7560827-21.4576816,9.1431408-1.5649649-19.7734011-5.8983979-24.8094181,7.3401373-36.100791,14.6802745.0410752,14.2779104,13.5794593,14.1175444,26.9576502ZM755.6046748,237.1497704c24.7888799,17.4284025,22.2627555,59.1649077,25.9513079,95.3850143-14.4790061-5.0727865-13.9162759,6.5597086-26.3538448,3.7501653-3.0067042-39.2268108-22.0204118-72.9207929.4025369-99.1351796ZM783.3632913,118.5576662c9.8662617,11.3696139-8.6257909,37.9863399-13.3987285,51.4220361-13.3164054-15.3210476,8.3834472-38.3067264,13.3987285-51.4220361ZM845.617031,216.1687586c-4.4116508,4.1527022-14.3600629,2.2262755-16.2043391,9.4883699-7.1019011-6.8390199-8.7859841-18.471515-8.5436405-31.8702435,9.2626309,1.2240408,11.2710334-5.6971295,21.0962199-3.9308961-2.846511,12.3348809,8.864027,11.813226,3.6517597,26.3127696ZM826.7635163,272.4458826c12.9960171-16.6642064,31.7673811-27.0931983,59.0454178-27.8571969-4.2511068,30.2436658-30.8063959,35.4602155-54.7532343,43.8847379.9243664-7.4017501,1.684083-14.7418873-4.2921834-16.0275409ZM827.9668451,251.7111244c-2.0044695-20.7183281,12.9181487-22.4024111,27.5162728-24.591719-1.9633943,16.368465-11.1108401,24.4477587-27.5162728,24.591719ZM901.3312501,156.6423871c-13.2755029,16.0072029-20.05291-19.432475,0,0h0ZM881.516752,228.6227576c-14.1998706-1.2199333-10.9918979,8.0835983-20.8170844-1.1829656,3.0067042-3.9680616,5.9353656-8.0794908,6.0544837-15.2799724,5.2165497.2998489,10.4700671.5586226,15.6866168.8831167-.4025369,5.2329798-.640773,10.4084543-.9240161,15.5798213ZM867.7194183,196.514278c-9.7471437-4.9125933-12.7949231-23.6061134-3.4913915-31.5087817,19.4942873-3.6885525,7.9439426,27.9598849,3.4913915,31.5087817ZM851.3139856,117.2923497c19.5353625,4.7936757,15.1608543,31.2091333-6.9827831,30.827134.1232256-12.8361984.7229234-25.0928364,6.9827831-30.827134ZM821.7480606,178.2029562c-8.8229518-5.2947917-10.54811-16.9065501-8.5436405-31.8086307,20.7799409,2.8259734,21.7411005,23.4251835,8.5436405,31.8086307ZM810.8795641,93.9864848c3.4913915.2216049,6.9786756.4805798,10.4289919.640773-.3203865,5.1754745-.640773,10.3714866-.9241919,15.6044664-5.1343993-.2382361-10.4289919-.5586226-15.5633912-.8625791-.9611596-8.5436405,5.4547858-8.6627585,6.0585912-15.3826604ZM783.2400657,212.558249c-16.043971-8.983145-10.5891852-45.2237892,12.7581291-41.1121622,13.5958897,16.9474265-4.6539932,31.7264803-12.7581291,41.1121622ZM745.3358762,53.5931385c-6.3789777,20.5786725-23.9057632,28.6992384-33.9363257,45.0882411-7.2210192-13.8384344,18.3318593-38.208146,33.9363257-45.0882411ZM684.0434708,29.2437632c15.3621228-.4805798,15.3210476,12.6963426,30.6872779,12.2157629.4395046,15.3826604-12.7168802,15.3046175-12.2363005,30.6667403-20.1350604-1.8853514-20.1761356-21.5811094-18.4509774-42.8825031ZM684.2036641,118.0360112c-.2423436,7.2004816-3.0888546,11.3121086-6.1366341,15.3210476-8.0219855-1.803201-2.9286614-11.6119575.8831167-15.6044664,1.7251582.1232256,3.4503163.1807309,5.2535174.2834188-3.7296277-21.8807561,15.6455416-.1437632,0,0ZM620.9848322,36.066353c7.9028674-11.4353342,36.3024271.1601933,52.3873031-2.1071575-6.3748702,13.0578043-5.3315603,34.6387116-18.0073653,40.6149508.7598911,4.2925594,4.9742061,5.5330303,4.649712,10.7701176,15.5264235-20.3979416,1.5649649,5.2945926,20.4184792,6.4159454,3.0477794,14.4418376-10.8684965,9.8498317-11.5503447,20.1966732-17.8512796-7.179944-9.2665639-37.8466843-34.3388626-38.5285325-2.965629-14.4379309,10.8727738-9.8251865,11.5914199-20.2543806-9.3444372-11.1724532-23.9057632,29.9234814-36.7005174,3.0890568,1.8851825-6.017516,28.2390273-11.4147966,11.5501758-20.1966732ZM623.1948469,88.4331185c16.6065319,6.6172138,18.2084645,26.6536937,29.1591113,38.2243758,2.9697366,14.4217011-10.9917221,9.8500319-11.5914199,20.217411,5.2124422.3201867,10.3879167.624343,15.5633912.9447295-.1191181-6.3379025,7.7426742-2.8300809,0,0-6.5802462,7.3195997-5.7750024,23.0226465-21.9834441,19.5517926,8.4245224-35.156259-24.1850746-55.5542006-11.1476385-78.9383089ZM599.9666551,128.8634325c20.8579838,9.8701693,43.9627807,63.5597561,6.4980958,68.3121561,9.1063706-31.3075133-20.377404-48.3947942-6.4980958-68.3121561ZM594.873331,217.3722618c-15.7646597-7.2374493-13.9203834-30.3258161-18.0895157-47.9717197,12.7538479,9.9443046,19.8927167,25.0065784,18.0895157,47.9717197ZM585.8491107,101.9879327c11.4312266,4.3950458.8420415,29.7261183-11.9159139,25.4337605-.0369677-12.9961916,9.1474458-15.6455416,11.9159139-25.4337605ZM555.4411442,267.2745156c-19.6953887-7.179944-.0369677-41.6584623,3.3311983-57.1807783,28.3995579,11.9118064,4.855088,40.9150013-3.3311983,57.1807783ZM520.7860026,233.9995005c-3.9719713-3.0477794-8.1452111-5.9353656-15.3251551-6.0955589,3.0109781-33.6159392,27.0356931-43.5438138,30.5681598-76.6175604,6.6584563,5.6355167,9.4267572,14.6843821,19.8968242,16.89012-23.7496775,13.5178465-36.3433321,38.3067264-35.1398289,65.8229993ZM547.6204272,131.1102457c16.9270877-18.3318593,16.6477764,16.8079696,0,0h0ZM565.3525887,95.5309121c-2.0864521-2.2264767,3.2490479,3.6105096,0,0h0ZM562.0213904,152.810271c7.2620944-20.274716,4.8920557,20.8783223,0,0h0ZM490.8627233,28.5619149c18.1716661-11.5298071-13.5589217,16.787432,0,0h0ZM471.6477473,90.1747068c-.1191181-6.3543326,7.783915-2.7850995,0,0-2.6081095,20.3568664-22.9035285-2.2837808,0,0ZM443.930206,208.7300408c-.1601933-6.3584401,7.7426742-2.8095433,0,0,4.0130465,27.8366594-16.1671966,5.2122441,0,0ZM447.8200269,140.997045c-2.965629-14.4173933,10.9918872-9.8662617,11.5914199-20.2133037,12.5156118,3.9886018,1.2856536,26.3910129-11.5914199,20.2133037ZM455.8050448,183.2757428c3.4462088.1643008,7.0197507.4025369,10.4659596.6038054-.1971609,3.4503163-.3984294,6.9211703-.6406077,10.4084543-3.4092412-.1807309-6.9006329-.418967-10.388082-.6202354.2014335-3.4913915.4025369-6.9211703.5627302-10.3920242ZM343.6081508,46.1749584c36.4215381-12.7374178,68.9530931-29.7466559,121.5415007-24.2302573-46.4108623,39.0707251-68.0326812,143.763181-49.2984485,221.6622874-33.6939821-53.1307642-15.7235845-144.8475661,11.9939568-208.263559-45.1662839,17.8305398-41.0341194,90.7720725-79.8255331,115.58149,5.495861,16.1877342,18.2127413-4.6291744,31.250008,1.7251582-11.1517525,15.2840799-29.3235814,22.6036796-38.8694566,39.6539928-31.9688239-39.8513534,5.6149791-124.8521614,3.2079727-146.1291122ZM434.9840286,182.0558095c.1601933,6.3377038-7.7426742,2.7641618,0,0-.1600287-6.3584401,7.8248246-2.8095433,0,0ZM432.1785929,140.1180358c4.2512826-20.7183281-6.1777093,30.5435147,0,0h0ZM339.9195984,291.4595902c13.1153096-12.975654,24.1850746-28.2761639,43.7204371-34.0554438-9.6649933,26.0950711-25.0681912,45.7700893-45.2073591,60.1505149-18.2084721-3.5694344-15.7235845-25.5734161-18.4509774-42.8414279,23.6675271-14.1996948,32.8930158-44.34478,55.7185014-59.5672471,21.3385636,22.2216803-43.9258131,33.0530118-35.780602,76.313604ZM308.1891719,117.2923497c13.357492,25.8323904,11.7144842,65.223502,20.6197482,95.2289316,13.6369649-1.265116,16.6065393-14.6433069,32.0877802-13.8423406-.7598911-13.8752007,8.2643291-16.6642064,21.7411005-14.4379309-4.8920557,7.3401373-8.7038337,16.0850462-21.7411005,14.4379309-15.1608543,19.9173618-26.0745335,44.6281989-40.2742283,65.5847631-28.0379278-41.5968495-21.2974884-89.6096444-12.4333001-146.9713542ZM200.1242812,361.7762157c-1.4415808-34.7742597,27.6807329-35.4191403,34.7783672-60.6680624,1.8483838,13.2960405-14.3188128,53.8906553-34.7783672,60.6680624ZM255.9619007,479.9084753c-6.1366341,25.5939537-36.2201066-.6818482-30.3627838-17.4692802,12.7538479-29.9643544,36.3022569-47.8526017,51.3439932-75.3113692,10.3057663,23.6057212-49.1791712,83.5140856-20.9812094,92.7806495ZM279.7485459,429.0286318c14.4420384-2.949199,9.8703693,11.0286897,20.2172108,11.5914199-4.1691322,10.129143-14.6802745,13.094772-26.9535427,14.1791572,1.2404709-6.017516-.6038054-9.3281767-4.6127443-10.7083032,3.7296277-5.076894,12.3514716-4.7770451,11.3490763-15.0622738ZM210.2739618,456.405249c-6.6172138-41.6584623,38.627113-70.6000444,58.0844326-101.1065914-6.2966672,26.173114-31.9686644,78.6220299-58.0844326,101.1065914ZM206.5854093,430.0678342c-33.6939821-34.0924115,35.8586448-76.4532596,48.2551386-112.1311736,8.9463376,21.9382614-38.9105318,74.0462532-48.2551386,112.1311736ZM228.3634775,232.7957997c-2.0455447-2.3041208,3.2531554,3.6517824,0,0h0ZM231.2142553,274.7132334c-16.7259786,16.3271937-19.2151354,48.6782131-44.9651748,54.8764599,6.8965252-14.0025338,14.3188128-51.7054549,44.9651748-54.8764599ZM189.415978,366.4094977c15.9248529,1.786771,9.2667224,28.6417332-6.7774071,25.6555665-.9241919-12.1171824,2.0044695-19.9173618,6.7774071-25.6555665ZM178.9048357,365.7481871c-13.2344277-1.2404709-9.2622986-18.0073653-8.6216833-31.8086307,20.0159423-3.3270908,17.1283561,24.3493753,8.6216833,31.8086307ZM212.1593132,242.3418725c10.9917221,2.3289635-.2793113,24.7517155-11.5914199,20.2788236-3.0108118-14.4627732,10.9917221-9.9278745,11.5914199-20.2788236ZM196.1564174,157.8255522c14.881543,19.6750182,3.4503163,40.7342704,1.2815461,67.9917696-5.1343993-17.1078185-8.864027-55.0941585-1.2815461-67.9917696ZM178.0258265,292.5439753c4.2512826-4.3909383,6.1777093-11.3326462,6.2968273-20.5170597,15.0828114,1.8851549,11.1108401,25.5528785-6.2968273,20.5170597ZM171.7659669,219.1588348c8.5066728,8.7656445,9.9073369,24.0086492,7.9850178,42.2172829-9.7471437-7.8001794-14.8035001-34.7783672-7.9850178-42.2172829ZM157.3650037,286.2060728c8.3054043,9.1638759,20.6608229,29.5248498,8.1041359,42.1801173-7.2210192-10.0100249-8.5847157-25.2735672-8.1041359-42.1801173-15.4401656-7.0608259,7.3031696-27.3560796,0,0ZM97.999025,502.1506931c21.1414026,4.4155834,9.5458752,14.881543,8.6257909,31.8495159-16.7668944.4232645-17.6089359-23.9261108-8.6257909-31.8495159ZM122.1471319,534.8627881c-1.2445784,12.9386866-10.6302604,15.5430436-1.4417393,25.9925731,16.0850462-17.0872809,26.1525764-40.7917757,44.9650155-54.7943095,19.4532121,14.0805767-24.3493753,39.2309183-19.855749,72.0048161,13.6780398-12.3759561,28.4404647-23.6469895,33.9363257-45.1087787,12.7538479,18.2907841-15.6455416,37.6248782-14.0395015,61.8551355,7.5783734-.8215039,9.3446068-8.0425231,16.2822071-9.5664128.2012685-7.1019011,3.0520452-11.2340657,6.0585912-15.2226562,1.7251582.1193072,3.4913915.2178876,5.2535174.3205756-.2382361-6.3586294,7.7426742-2.8095433,0,0-.2382361,8.9256398-4.7729376,13.0578043-11.3121086,14.9020806-3.2490479,16.684744-11.6694628,27.6970037-13.1153096,46.2876367,21.6219824-7.1388688,18.4920526-42.0158165,44.3242424-44.4433605,3.6105096,25.4501905-15.8837777,38.4256568-19.4532121,66.8457716-29.0031949-7.1388688-40.4344215-29.9232792-60.0887452-45.2443268,30.3626269-14.1421895-59.3661356-59.850666-11.5135339-73.8287447ZM136.7904387,462.5624206c-5.6190866,10.4084543-11.8337636,20.0527187-17.3706998,30.3625928-11.5914199-8.0834073,2.3659312-33.8950595,17.3706998-30.3625928ZM145.6956981,489.1955768c18.2084765-11.5708823-13.6001541,16.8079696,0,0h0ZM203.5376299,664.9068574c.1601933,6.3175516-7.7426742,2.7481172,0,0-3.8528532-21.901107,15.5633912-.0778562,0,0ZM91.8213157,428.6466325c7.1429763-20.258286,4.855088,20.9195966,0,0h0ZM93.3862806,491.4423899c-4.2922021-1.2445784-5.0522489,1.7456958-5.5328287,4.8918647-6.017516-1.2402799-3.8116224-9.7469527-4.333433-15.9451996,9.0243761-1.4212017,9.6649933,4.6538195,9.8662617,11.0533349ZM90.0591899,548.6640538c3.1258223.4807694,6.0955589,1.1626176,4.9331309,5.5535559,3.9308961,1.3431589,5.7751724,4.715243,4.5716692,10.7493784,3.2081288.4025369,6.1777093,1.0433099,4.8922118,5.4547858,20.4593982,2.6698876-2.2428618,22.8460232,0,0-3.1259785-.4600422-6.095715-1.1829656-4.8922118-5.4547858-3.9719713-1.3636965-5.7340972-4.7318624-4.5716692-10.7493784-3.2079727-.4805798-6.1366341-1.1418904-4.9331309-5.5535559-6.4200529-2.4684296-10.2687986-7.30298-9.4676768-16.1670069,6.3788222,2.5055869,10.2277237,7.2785245,9.4676768,16.1670069ZM84.9617582,365.5469186c3.2120802,3.6721224-2.0825124-2.2632432,0,0h0ZM73.0088766,391.0217543c15.6866168-6.7817084,13.9203834,24.1068387-.8420415,15.6003589.3203865-5.1919046.6038054-10.4084543.8420415-15.6003589ZM74.3725731,458.9888787c4.1732398-20.7142206-6.1777093,30.5476222,0,0h0ZM34.2997676,790.942171c1.8073086.1191181,3.4503164.2012685,5.257625.2998489-3.7338897-21.9012937,15.6412796-.0985805,0,0,.3982749,17.2474742,10.8272668,39.9333041-12.8361528,41.0957322,3.8487457-12.2527305,8.8229518-23.2855278,7.5785278-41.3955811ZM18.4979859,884.0019507c12.4336157-16.6270576-4.7729376-24.529925,7.6194486-41.2352067,11.6326496,24.5506438,17.3296246-5.3151302,26.916575-14.1175444,21.9834441,16.787432-21.9423689,41.917236-34.5360236,55.352751ZM54.7591677,708.5697903c14.5200813-17.1487081,11.0286897,27.4793059,0,0h0ZM73.9330685,647.0187968c7.179944-20.258286,4.851136,20.899059,0,0h0ZM40.678591,953.2590174c-19.8968242-11.813226,18.9356647-37.2264488,19.1739008-61.5760051,15.1238866,22.7640538-17.9293224,38.7094443-19.1739008,61.5760051ZM55.8805205,870.623941c.1232256,6.1571717-7.7384119,2.7068553,0,0-3.7296277-21.9998742,15.6455416-.2382361,0,0ZM24.4744267,962.7638174c12.7168802-25.5734161-12.1952253,24.3493753,0,0h0ZM321.5055886,1246.1580147c-9.8661003-10.9095717-16.4465079-24.7683423-12.9140412-47.6718708,11.7926884,2.1644896,19.6134054-.102688,21.3796388-9.2254887,12.9551164,14.8610054-12.2363005,33.993831-8.4655976,56.8973595ZM488.1353304,1072.9932095c-31.2089328,25.9513079-37.7481038,79.6037271-58.8853989,116.7685631-13.4398037-26.2963396,12.3554185-56.2196188,10.2687986-88.1679051-32.0508105,19.3340941-18.2538165,90.3120303-58.0844326,101.1024839,12.556687-24.7888799,20.6567153-54.4533854,21.0181771-92.7601119-24.7067295,23.848258-12.1539867,89.6507196-47.6513332,101.6241389-20.5375973-6.6172138,1.9223191-21.0963933-2.8095433-41.8966984-18.693321,13.3781909-19.4942873,12.2527305-42.8003527,18.3729345,14.8035001-64.6811089,89.3714083-62.2371348,116.1647577-113.3593219,72.5634387-31.4268085,118.0911844-92.9819179,165.5042814-152.4054019,9.710176,39.9291966-60.6475248,82.4500599-85.3583618,120.3955028.9652671,4.111627,4.0910894,6.2968273,10.1496806,5.7751724-.0821504-6.2352145,7.7426742-2.7068553,0,0-9.6280256,53.7918991-27.2780367,98.6379722-54.6341163,132.693416-7.2578219-32.2686728,18.7343962-74.9909827,27.1178434-108.1427722ZM328.7267697,1121.2894233c-1.0023966-8.4655976,5.4135488-8.6874036,6.0584294-15.2840799,10.667228,3.5488968,10.6302604,8.6832961,4.3293255,15.8427025-3.4460468-.1396557-6.9374384-.3409241-10.3877549-.5586226ZM352.5543282,1070.4465474c14.0805767-19.5560771,6.5761386,17.7485916,0,0h0ZM361.4183552,1097.1000654c15.8837777-14.2405942-15.8837777,14.1218277,0,0h0ZM387.2094699,920.9451618c14.6022317,8.3259419,8.8681345,28.9210445-2.0825124,36.4624502-15.0458438-8.4614901,8.0219855-19.8762866,2.0825124-36.4624502ZM394.7919508,1062.4245619c22.2627555,8.5436405-4.8920557,17.7896668-11.9118064,25.429653-15.8057349-9.3240692,11.5914199-15.8427025,11.9118064-25.429653ZM381.8369976,1014.6910784c.2011053,6.2762897-7.7017622,2.7273929,0,0-.1603564-6.3214724,7.7794787-2.7684681,0,0ZM416.8534378,1042.7659738c23.1460368.5421926,1.8442762,21.3015959-1.5238897,26.0170282-15.1238866-5.2987001,4.0130465-16.5697335,1.5238897-26.0170282ZM412.1626505,1032.139821c.2382361-3.4913915.4396685-6.9827831.5996978-10.4495295,4.3745082,1.1829656,5.0154453-1.7456958,5.5369362-4.9167008,10.1866483-1.5238897,6.2559164,24.1481069-6.1366341,15.3662303ZM416.0526355,964.4068252c.3202225-5.1919046.5625661-10.4495295.8829526-15.6208965,15.6414341-6.760977,13.8793082,24.164537-.8829526,15.6208965ZM418.7798644,917.5153831c4.2512826-20.6772529-6.1364701,30.609235,0,0h0ZM414.2864021,995.5746828c18.2125773-11.4928394-13.5958897,16.8079696,0,0h0ZM439.3955045,1012.7646517c.0821504,6.3379025-7.7796418,2.7684681,0,0,1.4047717-16.9065501,8.2643291-27.660036,22.583142-30.0670424-2.0825124,16.0273627-15.5633912,19.4162445-22.583142,30.0670424ZM437.6333787,1043.953047c-3.3722735-20.3198987,13.719115-17.7116239,17.3296246-30.2683109,12.5115043,9.0652954-5.2987001,30.5270846-17.3296246,30.2683109ZM446.9779855,971.3485331c-12.7949231-2.8506185.8831167-20.1391679,11.3531838-15.0417362-2.2057379,6.8595575-9.6691008,7.7591043-11.3531838,15.0417362ZM448.8222617,940.1806754c-20.7756691-8.2439715-.3612969-13.3783709,1.4460117-25.9923831,20.4554474,7.9398351-1.9676667,10.6302604-1.4460117,25.9923831ZM481.6372346,1004.6808753c-12.5154464-3.9717932-1.2445784-26.452426,11.5503447-20.2170327-.5627302,10.3714866-14.4790061,5.8983979-11.5503447,20.2170327ZM483.7608222,968.3007536c-9.0242202-4.3745082-.2793113-9.5089075.8831167-15.6044664,9.0242202,4.3498631.2012685,9.4842624-.8831167,15.6044664ZM477.8254566,889.6376485c14.1586196-19.5928678,6.5763044,17.6910863,0,0h0ZM553.1162882,1123.7744725c.3614617-32.9505211,14.8404678-97.8945112,43.3220077-117.6886474-4.0909209.9816971-10.1907558-.4025369-10.6713355,4.633104-13.5589217-4.9165228,13.0372668-23.7864672-8.9460093-26.5138601-13.1565529,71.9390957-44.2422602,123.8868943-72.9620362,178.5374407,6.1777093-57.8215514,22.7844104-151.8837469,72.9620362-178.5374407,17.7319934-13.4192661,31.9316882-30.8271129,44.6855361-49.7995659,6.6995336.7393535,6.8227592,7.1594064,15.3253247,6.1777093-16.4056023,18.5906331-29.3648262,40.9312527-40.3935159,65.5026128,6.7363319.1601933,7.6605238-6.1571717,16.0028958-4.3128954-9.866093,51.927261-30.2847409,91.8194899-59.3249035,122.0015429ZM620.105823,1049.3051448c-24.5506438-13.5753518,14.9597554-44.1640492,9.3446068-72.6004064,16.7668944,8.1821788-5.0152813,52.8062701-9.3446068,72.6004064ZM653.7587299,1009.3759482c-4.1732398-6.9006327,2.0866199-49.0396748,8.7861544-62.1139092,27.6352206,6.4980958,6.9374301,47.0516354-8.7861544,62.1139092ZM906.186338,616.6108303c-2.1276951-2.3864688,3.2490479,3.5735419,0,0h0ZM941.5644031,545.513776c-16.7258192,2.0866199-15.4399887-10.7083032-26.0334583-1.5033521-11.7103616,19.2519437,23.0678293,21.5192944,8.9461774,26.6742313-1.0433099,25.429653-14.4790061-15.1238866-26.3538448,3.6310472-8.0628847,22.061487,24.5097454,7.8823298,19.375346,27.2369615-45.7291908-14.3434579-91.4582049,6.5145259-141.196158,2.3659312-98.8392407-8.4039848-197.2348692-59.0250546-271.239881-5.2165497-19.0960242-10.026455-21.6632239-9.1270968-41.0751956-12.7538479-17.4119402,21.9793366-48.0951106,72.4402131-31.730753,97.331781,84.6395459-58.9675493,193.9858213,30.4242112,300.7238219,38.2451137,57.9244129,4.2759278,85.6007055-20.9565643,142.3584093-23.1623022,12.7579554-18.6727834-8.1411036-48.6166003,14.0395015-61.8962107,18.7754714,27.557348-17.6869788,81.6326563-22.583142,118.9373334-17.7689542-15.9866505-33.772025,7.0976094-42.8003527,18.3893646,15.7235845,4.6332819,15.8057349-8.0425231,31.6114697-3.4297787-2.4070064,19.6173294-20.9401342,20.9195966-23.3060654,40.4344215-2.8095433-17.0872809-18.5331278-19.1740843-30.9296215-7.0197507-7.5783734-16.2247019-3.4462088-43.0018055-17.8060968-53.2295292-91.8194899,10.0061019-180.1475883-47.1336012-263.3412873-51.7668832-43.1987821-2.324856-74.8472195,22.5667119-111.1905517,24.9901484-30.7653207,23.2853432-51.3439932,85.7403611-54.0713861,122.2849617,33.3735956-5.0358189,36.8608796-37.7275662,70.3577008-43.0016212,64.5414532-10.2277234,145.5253068,41.276463,211.6317249,43.4616634,3.2902928,24.6081491-16.8449373-4.5100564-16.1630891,9.5664128,39.9909796,8.8270593,103.8504144,17.1283561,140.2717894,13.3165781-10.9095717-6.7981264-23.3058932-12.1705801-35.5382583-17.7485916,5.7340972-6.9172449,22.501164-23.5237639-4.0130465-21.1578327,17.8102044-24.3290209,74.490039-5.0358189,105.2553605-14.7829625-7.5005049,13.7396526-11.2712078,31.5909321-28.0791774,34.9590981-21.9012937,36.4008374-51.1427247,64.5414532-98.2354353,72.6250515-76.4121844-15.5058859-152.7874012-53.6318815-215.2833097-69.7169277-137.0638167-35.3782479-170.5195627,140.2348217-192.9425114,265.583993-12.1130749,67.76979-4.2512826,95.1669455,1.7662334,151.6453394-68.5503922-33.0530377-191.05716-30.6049561-246.5702854-71.7212258-64.5414532-47.8115265,4.0090938-151.5635374,18.368827-228.7190059,6.9006327,50.1979953-21.1371405,109.2025123-20.377404,171.1973034,23.1871026-108.3235031,64.7016465-238.3470315,90.9774484-308.142002-20.8169086-16.0480785-52.7487649-22.2422179-65.2643766-45.5688208,26.4770704-11.1929905,57.7229709,37.4852226,88.1269875,10.2893362-.4807373,8.6832961-1.0023923,17.3665923-1.5651225,26.012738,13.0783419.2014511,16.7668944-8.8268766,26.0745335,1.6019326,16.2863146-7.7178464,14.6022317-35.4764629,33.6530659-39.8879388-30.3629428-101.3859027-160.9286638-139.6145863-163.1754769-249.6837852,30.5640523,64.9645277,86.4838221,107.3210811,137.3061604,154.1921728,7.1390274-6.8965252,25.6719966-.8420415,26.9946179-14.138082,7.179944,6.7979447,6.6993642,20.3568664,14.1175444,26.9371126,39.3911116-38.1301031,73.1261689-79.3040659,97.1551577-145.8703384-24.5506438-1.6060401-32.1700924,63.4981433-61.7360174,74.7897143-5.8532152-23.9263008,21.7041328-24.8094175,7.5826414-41.4161187-19.2151365-8.6052533-10.7906141,13.7396526-26.5552738,8.9872526-41.5557743-99.3814332-157.4001455-180.6076305-134.0160373-305.4803294,26.1936516,123.3077341,104.6554882,199.9211869,171.6039478,286.7459332,13.3576533-16.5450884,33.1312519-25.651459,29.6439679-60.9514812,29.6398604,39.370574,14.359888-64.0773035,9.9853798-82.9924306-23.864688-102.7495992-121.3402322-244.1427414-53.0691514-347.8370701,16.7258192,22.6447548.4025369,81.2303048,3.4913915,120.3379975,6.8184823,87.5063985,72.4443206,150.9842002,80.7866927,229.3022736,13.3165781,14.9020806,13.7971579-12.8154607,31.8866735-8.6832961,8.026093-15.0213917-1.803201-22.7846036,2.6495135-46.8709045,6.0584278,1.265116,5.2165498,8.6052533,4.3332696,15.9453905,17.9294864-32.0098991-3.0108118-97.2742758,2.846511-140.8755948,49.4586418-2.2468131,7.1388688,91.4949959,45.5277456,117.5284542,28.2802715-123.3857769,31.9277487-274.4685576,98.7570903-354.7335952,5.7751724,6.3582373,18.0116405,7.0402883,30.925514,7.1594064-25.027116,67.8931891-44.8828651,141.7176363-89.1701399,188.0093805,9.6280256,51.3809609-15.8837777,98.9378211-9.0242202,156.1966423,36.94303-4.6538195,36.9019548-51.0646819,76.1739483-53.1102266,17.4076675-56.1949737,49.4175666-96.0093576,95.750386-119.8163425,45.4455953-40.7712381,71.3969032-128.7378748,142.8389891-122.3219294-69.7949706,141.557443-218.2119711,194.76625-295.7085407,327.6609345-5.0563565,19.3340941,19.2108685,12.5525795,19.2519437,27.253199,140.3539398-62.4916084,331.1276809-68.1312326,447.8182011-157.0590289,1.9223191,14.7624249,6.0544837,27.4793052,7.9809103,42.2581602-53.5908063-2.8875862-91.5771463,52.3665714-150.1791263,69.7374653-31.2910832,9.2665639-73.3685125,10.4700671-105.3373364,14.7418873-83.8755473,11.410689-172.4418818,26.7933494-223.7489073,75.9316047-.8420415,26.8344246-10.2687986,43.9011679-19.2519437,61.6127918,2.2468131,7.9028674,6.9786756,13.5178465,9.2667296,21.3591012,38.1052923,6.2598597,62.4135925-21.7821757,100.7203189-25.5118033,96.1120184-9.3240692,206.3412399,42.0774293,301.6480138,22.6036796,13.9984263-8.2848667,22.8213781-22.3202607,38.2245761-29.1223129-.5586226-7.7591043-12.351311-5.4753234-20.4965221-6.3584401,5.4137106-21.539832,28.2804485-23.7250324,48.5755251-28.5595828,8.9872526,12.8565359-5.6560543,34.5565612-8.223254,51.7465301ZM783.7617207,656.5030593c-1.441566,12.8565359-2.2057379,25.0722988,3.4092411,31.5702084,9.7882189-5.614793,5.6190866-26.8753137,12.4786441-35.8625663,19.4942873-2.4645117,7.6605238,22.7638728,19.2930189,27.2985743,7.8208915-6.0587777,10.9506469-17.3871299,12.2732681-30.6462027,5.2165497.2793113,10.4289919.5627302,15.6044664.8831167,2.9286614,51.3234556-41.8761609,49.0355673-86.2414785,47.293979,2.8056086-18.9767399,2.8056086-41.1573449,23.1828398-40.5371095ZM769.6441763,629.6111294c7.7426742-15.625004,23.223915,10.4289919,9.4678323,16.265777-7.3812125-1.6881905-.846149-15.6866168-9.4678323-16.265777ZM806.0655513,631.6936417c7.179944-20.2172108,4.855088,20.9195966,0,0h0ZM837.3114518,633.4804127c4.6538195-22.3820616,41.3996886-32.2317052,58.7662809-22.6242172-11.3901515,16.6888515-41.9992113,11.9159139-58.7662809,22.6242172ZM692.1065315,614.6885112c1.2447494-6.017516,9.7473149-3.7912405,15.9248529-4.2718202,13.3987285,23.4826887-2.3659312,46.4889052,6.4980958,68.2503569,19.736631,5.413897,7.5824809-24.7683429,27.2739292-19.3133701,7.2620944,8.0014479,5.6971295,34.515486-2.4028989,41.6338172-15.403198-15.1813919-37.3455669-5.5739039-51.4672188-13.3946209.8831167-21.420714,17.4898178-53.9728056,4.1732398-72.9043628ZM736.8702786,653.8165546c.7229234-12.1128879,1.4458468-24.2875756,2.1687703-36.4417256,16.7668944-5.7751724,13.838233,44.1024364-2.1687703,36.4417256ZM672.6122442,681.5137452c-22.0245193-.1396557-33.1353594-9.9853798-51.4261436-13.4562337-5.8942904-25.3105349,17.7321615-46.2095939,3.5696037-62.4548333,1.9673325-6.9992132,13.3205163-3.589972,21.1001581-3.9926972-3.0477794,25.791303-1.8853514,47.7542095,1.3226213,67.9098075,17.9334299-9.4267572,17.6089359-39.2884236,19.5764377-66.706116,29.6439679,3.7501653-2.0044695,47.9142145,5.8573227,78.7000728ZM588.2930848,603.4749831c2.0455447-6.8965252,13.3206856-3.5694344,21.1415716-3.9719713-9.829463,11.9159139,7.4221187,46.8914421-8.786153,62.1549844-25.6719966-.2382361,4.6948947-50.2596081-12.3554185-58.1830131ZM565.9933617,628.2844006c9.3035316-1.1418904,7.5783734,29.6850431-6.3789777,20.5786725-1.5647973-10.9917221,4.3704007-13.616427,6.3789777-20.5786725ZM562.3007017,602.0127062c8.9872526-1.3636965,9.5501507,4.6127443,9.7882189,10.9917221-4.3704007-1.2445784-5.0522489,1.7415882-5.4956932,4.8509805-6.0176838-1.1418904-3.8078384-9.6444557-4.2925257-15.8427025ZM525.2796288,610.3550782c19.4532121-3.3887036-.4846873,23.2855278-1.7251582,31.14732-15.5264235-7.2787119,6.539171-17.5475108,1.7251582-31.14732ZM776.6228519,781.4743387c-7.2620944,15.3249717-22.8254856-2.0455447-14.7992198-16.5245508,18.9724596-6.9786756,2.1234148,17.8677096,14.7992198,16.5245508ZM739.2362098,794.9920018c-7.4592553-4.8507971-6.5759666-17.1651404-8.9009947-26.57136,17.8060968-4.3745082,7.1388688,16.6231312,8.9009947,26.57136ZM711.4406256,824.6566907c-.5627302,5.1138617-6.658289,3.7090901-10.7904536,4.6330994.4395046-5.0356363,6.658289-3.6308647,10.7904536-4.6330994ZM709.7565426,761.9184386c6.1777093,12.3184508,3.8898209,27.3601871-2.3659312,41.6993543-10.5111423-5.1343994-3.4092411-36.564955,2.3659312-41.6993543ZM690.2211801,828.7477801c-.3612908,5.0727865-6.5802462,3.7090901-10.6711649,4.5511316.4434414-5.0317113,6.5800755-3.6105096,10.6711649-4.5511316ZM676.140774,801.7942374c-16.9272583-2.9902742-11.2301288-26.2347268-13.1565554-42.5210414,5.0933241.2998489,10.350949.6202354,15.522316.8625791-.7598911,9.2871015,8.9461774,29.5618175-2.3657606,41.6584623ZM631.6974124,757.449273c20.0938157.1603776,3.6514153,33.0123182,13.1972905,42.578731-6.9417079-.4230745-13.8793082-.8625791-20.7799409-1.2035032-2.6450733-19.5559001,10.1496806-21.8602185,7.5826504-41.3752278ZM608.7937144,792.6673292c-22.1025622-1.0227723-4.3745082-37.5879105-2.5671997-47.1132482,4.1321646,9.8867993,14.5981241,39.2512723,2.5671997,47.1132482ZM583.3599539,780.8130281c-5.3356678,14.9226182-16.565626-4.1527022-26.070426-1.5444273,8.2602216-10.9711845,17.1653238-21.4412516,18.0073653-40.7342704,14.9226182,3.171005-6.8184823,39.0091123,8.0630607,42.2786978ZM552.1140534,779.0303646c-9.3487143.0985805-10.6713355-7.0608259-20.4965221-6.4405905-.3614617-18.8124391,11.028857-24.5301062,12.7950904-41.054657,17.1694318,2.8670486,6.4157781,30.4654718,7.7014317,47.4952475ZM512.8420599,734.9854335c7.9028674.5791602,9.2256554,39.1898431-7.0197507,30.9460516-2.846511-16.2043488,9.9073369-14.7993926,7.0197507-30.9460516ZM484.9643254,764.7074443c-27.6353909-.9036543-4.6538195-26.9331899,2.1276951-36.4419126,8.5436405,1.2240408,6.539171,36.2201066-2.1276951,36.4419126ZM453.7964678,762.8837056c-6.8963604-.3821835-13.8380684-.7639986-20.8169086-1.2240408,3.4092411-12.6963426,13.719115-17.8102044,22.3038306-24.8504927,15.0828114,5.3356678-7.504438,12.778493-1.486922,26.0745335ZM79.2687363,736.1273239c.1601933,6.2762897-7.7426742,2.7068553,0,0-3.69266-21.9629065,15.6414341-.1603782,0,0ZM88.0506129,673.873759c7.179944-20.0982797,4.855088,20.9565643,0,0h0ZM76.5002681,694.1895503c7.179944-20.274716,4.8509805,20.8004785,0,0h0ZM111.3979098,722.2478304c17.7689728,1.3433441-4.5718255,44.1231592-18.2909405,46.0085107-14.6022317-20.4143717,16.6068575-26.5140381,18.2909405-46.0085107ZM107.7050935,695.9968588c7.184208-20.2788236,4.7770451,20.8374462,0,0h0ZM90.9013872,715.8320703c14.0763134-19.4942873,6.5759828,17.728054,0,0h0ZM142.9640405,718.8593121c7.3812125,1.7044353,8.3054043,9.1269082,14.9636934,11.3121086-.640773,15.9043153-6.2187845,26.2552644-17.3296246,30.3052785.1232256,6.3584401-7.820717,2.8259734,0,0,12.1171824-22.4434863-5.9353656-27.9968526,2.3659312-41.6173871ZM155.8412714,766.6338709c18.4138523,16.8860125-16.7670519,16.6477764,0,0h0ZM223.9930768,671.3065594c3.2490479,3.589972-2.0044695-2.2878883,0,0h0ZM231.8959442,624.7560414c-2.0044695-2.2673507,3.2490479,3.6105096,0,0h0ZM571.7276268,346.6151667c18.2125733-4.8548933,13.3164101,38.7710709-6.658457,25.7541476-3.4503163-15.0045745,8.0630607-13.0370727,6.658457-25.7541476ZM543.6484558,381.5744595c7.2620944-20.2172108,4.855088,20.8785214,0,0h0ZM890.7420649,521.6860557c1.5649649,16.5448985-24.0659565,2.5466621-26.9535427,14.0803867-9.8703693-13.2178077,12.3554185-37.6659544,8.864027-62.1342569,12.6347298-1.4253093,10.7083032,10.1086054,25.7911147,6.7199018,4.7359699,18.7919015-23.7043192,28.3583143-7.701599,41.3339683ZM697.0807376,437.4490467c-19.6955558,14.7418873-15.2430047,56.7618114-25.5939537,82.0516183-40.3111959-7.5206778-69.996239-1.2238504-114.8421365-1.3635061.6038054-27.0767683,22.9856789-29.6234303,19.214976-61.5922542,25.9513079,9.3035316-2.2878883,37.0826856,18.1307594,48.0538701,26.9944493-17.7485916-1.8444448-73.586211,40.3931778-65.5233428-10.7083032,11.9118067-5.7340972,41.5148915-8.8229518,62.1141016,19.2930189-.4025369,4.6127443-39.1898431,28.1159707-34.9385605-8.983145,7.9437511,3.4092411,22.0409494-2.4439741,41.6584623,16.1630891-11.5751808,22.2216803-34.2772499,24.4684934-61.3540181,1.6019326-11.2094206-18.290614-3.368166-25.7130718-6.6584814,12.9181487-18.7917091,44.4844357-16.544896,74.0875002-16.647584-10.5482818,25.2530296-8.1823506,64.8043345-15.8059067,93.1626488,33.8582829-4.5347015,7.5414057-76.4739896,51.0236067-70.1564323-9.2254887,28.3788519-12.1911177,63.7774546-25.9923831,87.202638-8.7818766-6.7774071-29.9232792-2.2262755-46.1685187-13.0742344.521655-32.7328225,17.3296246-47.072173,25.0313951-71.7008596-3.5324668-5.0358189-8.9874241-8.3834472-15.082983-11.2340657ZM739.6798219,424.1530062c1.8442762-9.0447578,9.5869504-11.3121086,21.420714-9.2049511-5.3356678,8.7818766-1.486922,27.9557774-17.1694313,25.1503416.9241919-7.4017501,1.7251582-14.6227693-4.2512826-15.9453905ZM780.7550164,437.0095421c19.8146739,15.3621228-11.2710334,69.0515096-.2421704,93.9841527,21.6218092-20.2377484,19.7775329-69.355466,37.2262756-102.3470623,5.2535174.3203865,10.3879167.5791602,15.6414341.9404293-6.4570206,43.2811251-12.7127727,58.3639366-16.684744,108.7260427-22.061487-3.3885137-53.9522681,1.9266165-67.4701146-9.1061807,14.7213497-26.0909636,23.5853767-58.6841305,31.5293193-92.1973817ZM782.196929,410.9350086c14.9224449,5.4342482,5.4176449,8.1452111,4.0128732,21.1824778-6.9006327-2.0866199-3.5694344-13.300148-4.0128732-21.1824778ZM872.5334311,384.8235074c1.0022347,12.1952253-2.008577,19.9952114-6.658289,25.6925342-18.9767399-11.8543011-34.6592492-2.0250071-42.6030175,13.1972672-16.0030701-27.3764244,31.0896404-31.3894709,49.2613065-38.8898014ZM857.8901243,457.046022c3.7296277,21.0387147,2.0866199,83.4730104-30.8063959,81.8875079,7.5003305-30.3833214,12.0761072-64.0978411,30.8063959-81.8875079ZM852.9980686,451.6117738c.0780429-12.8770735.6818482-25.113374,6.9786756-30.9501591,19.736631-2.4439741,10.4700671,40.114035-6.9786756,30.9501591ZM883.3240606,469.0603248c-2.5673755-17.7114323,9.7839355-18.5534737,22.0613112-19.6173213-1.4047717,13.1358472-8.7449089,19.7571686-22.0613112,19.6173213ZM894.2334564,370.4225442c10.9917221-1.5856967,13.5958894,4.3539706,20.4965221,6.3789777.7229234,13.719115-3.1668975,22.3202607-16.8079696,19.9337919,2.9286614-12.4131176-8.864027-11.8337636-3.6885525-26.3127696ZM890.3025603,438.0323144c-.9241919-12.0925373,2.0455447-19.8968242,6.6995404-25.6925342,5.2944164.2793113,10.5068586.6038054,15.6823331.8420415,1.1213528,17.9703976-3.2901231,29.6028927-22.3818735,24.8504927ZM546.5771172,512.3414489c-10.0675302,1.6635454-13.719115,10.3879167-26.6742313,8.8432991,3.368166-16.4873928,20.899059-17.1487034,22.9446037-35.1971439,11.3901515-.2218061,1.3226213,18.6727834,3.7296277,26.3538448ZM961.0997657,478.7255097c-25.0681912-5.9764408-34.9385605,5.1754745-52.6255393,7.4220964,2.324856-12.8976114,30.0834725-21.4615979,6.9786756-30.9088927,9.8251865-14.9390483,32.1290172-15.6825093,48.3742566-23.4046459-.8831167,15.6660792-1.8440984,31.2292786-2.7273929,46.8914421ZM928.0095889,419.3389934c5.0111737-20.1966732,24.9490732-23.6675271,38.4669197-34.2936799,10.026455,15.2019295-22.9446037,29.5207423-38.4669197,34.2936799ZM935.8713812,372.7679378c-4.214315-28.7405084,34.412798-9.3446068,28.4363572-40.0893899,27.0767683,10.5684527-18.3277518,52.9048506-28.4363572,40.0893899Z"/>
    <path d="M371.2846169,110.4535303c-2.4850493-14.2613076,8.9872526-40.9355389-2.5671997-47.072173-19.6955558,6.658289-19.0506752,39.6498853,2.5671997,47.072173Z"/>
    <path d="M709.0746944,229.1444125c-3.4503163-.1807309-6.8184823-.4395046-10.350949-.6204332.9241919,6.7406371,10.0307339,5.9191333,10.350949.6204332Z"/>
    <path d="M431.6939056,510.9366773c-2.3659312,12.0925373-7.4181801,21.0592522-12.1541501,30.6256651,14.3229203,4.4525511,23.4662587-24.6286867,12.1541501-30.6256651Z"/>
    <path d="M379.3476776,695.8941708c8.8681345-36.7828367,58.0844326-85.3788994,38.0684903-117.8899159-6.4568567,42.7017723-42.8414279,81.168692-38.0684903,117.8899159Z"/>
    <path d="M301.210335,691.4046521c10.3098738-19.5150114,39.3500364-42.3608481,34.8153349-60.6723574-26.5140381,3.5080092-34.0554438,28.2393838-34.8153349,60.6723574Z"/>
    <path d="M288.9370669,722.0878224c7.9398351-6.0380536,10.9876145-17.3460547,12.2732681-30.6831703-1.7251582-.0821504-3.4913915-.2012685-5.2165497-.3039564-.521655,12.3143433-9.8662617,14.8035001-7.0567184,30.9871268Z"/>
    <path d="M282.3157455,747.7803566c-1.4415787-12.6349148,10.1496806-10.7904536,6.6213214-25.6925342-6.017516,1.2445784-19.1739008,21.6219824-6.6213214,25.6925342Z"/>
    <path d="M271.3240235,757.5685755c4.855088,20.9401342,7.2210192-20.155598,0,0h0Z"/>
    <path d="M264.8670029,778.1061727c3.2901231,3.6515848-2.0455447-2.3453936,0,0h0Z"/>
    <path d="M752.7581638,832.3377521c9.024393,22.4845615,21.8191433,11.1108401,45.926175,18.3318593.0410752-29.0031949-25.7911147-15.8468101-45.926175-18.3318593Z"/>
    <path d="M105.0187757,1014.4281971c17.0503133-54.7737719,34.3388626-109.2846626,61.0912946-153.1899381-6.6584468-.6818482-6.8184825-7.077256-15.4442735-6.1571717-27.0358504,36.0804509-50.5801519,105.6782606-45.647021,159.3471098Z"/>
    <path d="M297.5587502,936.6892839c-4.7317015,5.79571-7.6605238,13.5178465-6.7363319,25.6925342,1.7210507.1396557,3.487284.1807309,5.171367.3202073-6.017516-13.2342485,16.5697335-20.6976114,1.5649649-26.0127415Z"/>
    <path d="M234.1427573,1220.3256522c-4.4114759-110.3279754,33.1312519-168.1904265,56.679661-257.9438341-19.214976,42.0568917-105.9370343,194.1665522-56.679661,257.9438341Z"/>
    <path d="M116.7334212,1083.0607397c9.9484121-36.9224924,20.6156401-73.1056313,32.3304429-107.982579-5.1754746-.2218061-10.388074-.521655-15.6046237-.8420415-4.1732398,34.2361747-22.2627555,82.0887763-16.7258192,108.8246205Z"/>
    <path d="M78.8663549,1106.8679225c-1.5651204,19.4942873.0821504,36.1831389,7.6603683,47.5116775-3.7707029-14.7418873,13.5178465-48.2921062-7.6603683-47.5116775Z"/>
  </g>
</svg>