<?xml version="1.0" encoding="UTF-8"?>
<svg id="Brussels_sprout" xmlns="http://www.w3.org/2000/svg" version="1.1" viewBox="0 0 1000 1353.0160951">
  <!-- Generator: Adobe Illustrator 30.0.0, SVG Export Plug-In . SVG Version: 2.1.1 Build 123)  -->
  <g id="outline">
    <path d="M4.0934975,361.1784735c-17.9871411,179.2342442,25.0694253,310.7432421,94.513052,461.8139883,17.3794852,37.8345158,34.905014,66.6754611,80.8542498,89.8807773-16.6285846,69.7331286,31.4701731,146.2627014,109.2484461,160.0130505,53.5000267,54.2836684,72.7724867,138.2505139,144.7615555,171.7748548,29.5730969,13.7138758,64.0462348,5.0059317,95.981241,14.6989208,41.408508,12.5858721,63.9729957,44.1256209,109.1752085,51.8888007,2.7171129,16.9471679-26.2483362,27.1235248-9.5831328,41.7672293,117.6158356-9.5134144,233.2286243-24.3366935,319.9125827-120.7978642-29.1814999-50.7829138-16.6981603-86.7388866,13.7320397-147.8519561,65.9797044-132.8895256,38.6218194-262.4833617-36.4757231-367.3888214,41.1263072-64.6724142-25.8894729-123.3173785-55.3202159-165.1946068,13.2669813-18.7012071,37.4756518-87.9509679-192.1423615-353.7961049-53.1043153-61.5449992-105.3851656-121.9806214-163.2464881-154.7178041C287.6033584-86.0246245,31.4513825,90.3826504,4.0934975,361.1784735ZM287.0650625,58.1434831c-14.230055-12.7105517,18.9172579,3.0759769,0,0h0ZM270.5097154,60.5749696c15.7680435,8.6932966-21.6707705,19.1697526-30.7194883,21.4401165-28.3941962,28.2330744-58.1101128,52.5517753-83.5017871,88.9544971-21.3121256-48.2232616,90.1883749-128.1473946,114.2212754-110.3946136ZM275.5521204,104.1879277c-5.5807009-2.6658466-11.1943588-5.3282058-16.7713978-8.0121874,6.0787162-12.2123606,16.9837867-11.0332362,26.7136146-12.9813549,6.8657998-12.1940513,15.5554345,12.3185551,0,0-3.2922477,6.9575668-6.6172323,13.9297811-9.9422168,20.9935423ZM331.8754544,115.5031284c-11.0149268-12.710376,21.3487444-2.6438754,0,0h0ZM336.7384274,148.6541032c-6.7232066,6.0457594-7.8693742-2.9478112-12.5529152-5.9725218,6.5437747-5.9871693,7.8657123,3.0576675,12.5529152,5.9725218ZM362.020028,160.6355928c3.9694749-1.4133118-2.7171129.9302897,0,0h0ZM294.8978179,139.144208c-8.9423043-6.0825517-18.3093863-12.0695474-8.7958292-24.820204,1.9298093,8.6200591,15.1235531,13.2303625,8.7958292,24.820204ZM366.2753515,173.0422057c-2.5049461.9667356,4.1120661-1.4098227,0,0h0ZM252.9876327,119.2235957c-2.1458601-5.0973331-7.367697-9.0486728-14.7720129-12.23067,1.9664281-7.3642095,7.2981214-5.3280314,10.1214287-10.5828253.1061944,8.11472,10.3704364,12.5675627,4.6505841,22.8134953ZM371.4969664,432.8633827c-11.4067477-18.239977,16.8080166.4613965,0,0h0ZM363.1295768,428.8755984c-4.0060937-2.0581411-.7873036-6.6902497-.179432-10.3887458,4.0060937,2.0543131.7873036,6.6499691.179432,10.3887458ZM501.343472,473.9496455c-14.4458806-3.0393581-2.684156-15.3762226-17.1302618-18.3789619-1.3219377,5.13029,1.6441829,8.7592104,4.4345334,12.3551739-50.9220651-22.2275949-95.585982-57.6123149-182.7020419-91.975371,11.4802061-32.4918369,32.1512823-24.194023,36.3331461-54.803655,15.3066469-5.7930898,4.6872029,13.1058587,23.1723593,16.1818356-5.3609883,11.2090063-10.619444,22.3665785-15.910635,33.5940619,24.0290169-2.5559903,22.5276472-24.8165422,38.6545546-38.2263367,10.8354948,4.2917201,9.9419968,12.8019229,17.0240674,18.3460051-4.683541,9.8504498-9.2608876,19.6130146-14.0176661,29.4671263,9.2975064,2.8780683,13.8016154-7.2615026,20.6676352-10.8354948,10.3374795,11.425057,15.3432657,24.761614,23.6044608,36.9556653,8.0085256-4.1818638-4.0793313-16.0902887,16.3759151-12.7653041,3.6838485-7.1333369,1.8602336-12.3185551-2.4314865-16.628752-9.905154-8.2610277-12.2636269,4.844831-18.5950127,6.5988702-3.8962374-8.7811817-19.1662656-21.1180461-2.6109185-26.9294453,2.7537317,1.3254317,5.6502766,2.7024654,8.3673895,3.9877843-1.3951752-13.4793702-5.2547939-26.0872136-19.3823163-34.9892372-1.3951752,6.2727957,2.1458601,10.798876-3.7534242,18.7890922-10.4764078-7.9208089-21.4549388-15.6435396-11.0149268-31.0197622,8.4040083,2.8965449,6.9392574,9.1730025,14.768351,12.23067,1.790658-9.8541117-5.4708446-19.2578125,5.8297086-22.9782798,25.2486437,57.2717603,64.9067744,109.4643303,78.3165689,171.0243154,7.5105103,6.4192708,5.7198523,10.710991-1.8968524,14.5742715-4.4674903-3.0210487-1.3219377-8.799491,1.8968524-14.5742715ZM354.6889498,316.7635643c4.3612958-10.7073291,10.4070552-16.4308432,18.3093863-17.0387149,18.9904955,4.1855257,3.7534242,29.6648677-5.5440822,33.4182918-8.3307708-4.0060937.1098563-14.0176661-12.7653041-16.379577ZM399.9607383,297.1503803c-3.8266617,2.270364-7.5434671,4.7386386-10.1543856,10.5683471-7.9389499-5.309722-2.7537317-15.2700282-10.798876-20.5652723,5.756471-9.2790273,19.5947052,6.3315554,20.9532617,9.9969252ZM348.0719376,298.2051704c-1.4281321-.6957567-2.7866886-1.3402471-4.1818638-2.0030469-1.6808017,15.4311508-4.2221445,9.6746797-12.0512381,25.1570968-8.3673895-2.860095-6.9392574-9.1546931-14.768351-12.1574325,17.16344,19.7411803-15.3432657,40.1414985-13.3766171,60.5418167-8.1881781,12.7323472-28.9288311-9.5648234-32.9351446,15.2517188-27.5006982-28.2696924-51.1014971-1.5892547-81.7843666-33.7223957,14.5193433-17.1300938,9.4771562-36.4025538,32.5797219-36.0473517,1.3221562-5.13029-1.5379884-8.7042822-4.4345334-12.3551739,3.5739922-16.1635262,13.9810474-13.157125,18.1665731-27.3542231,8.4369652,2.7720411,7.0088331,9.0814556,14.8379266,12.1574325-6.7232066,17.2181469-17.3426507,23.2272874-28.5699664,27.5519645.3552021,11.516604,7.4008726,20.6712971,4.8263542,33.1875936,17.8445469-.0549282,11.5495609-31.7008714,30.2873868-42.1813333,8.3710514,2.808829,7.1186894,9.103596,14.8415885,12.1795729,3.3249845-10.4619833-8.5102027-15.5922734-8.9018041-24.7835853,3.6799672-16.1452168,13.9808279-13.1790962,18.3093867-27.3761944,12.4794578,5.9908312,9.0448371,17.6502484,19.2026644,24.5345776-11.2309775,27.5153457-27.9291378,39.3541949-38.156761,69.4475022,12.0878568,4.5224184,12.7655239-23.0148986,26.7829703-13.0545924-9.1546931-17.3060319,7.7961367-23.2272874,15.7350866-43.9681602,4.1489069,1.9664281,8.404229,3.9694749,12.589534,5.9908312-3.2187901-12.3917926-3.6142729-16.9325204,7.8290936-27.1967624,10.8723349,3.0759769,5.4378877,12.0146193,18.9904955,14.1970981-7.6533235-12.5675627-14.5925809-27.44577,3.2883658-39.6032025,9.1913119,12.5858721,21.0997368,28.1598361.8934981,41.6062494ZM445.3057643,483.3568435c6.7964442-18.3093867,15.0539774,3.5045812,23.0661648,5.7566357-3.6472297,9.476774-15.9145186-5.1485994-23.0661648-5.7566357ZM531.2756567,519.0273545c9.18765,15.3394404,15.6984678,31.7008714,23.8498066,47.3993392-16.6981603,1.1278582-28.5697402-29.3060037-23.8498066-47.3993392ZM95.6038101,363.5402167c-6.5071559-8.1365236-1.3585565-20.473388,5.5807009-33.4181241,7.3274164.805613,13.515989-1.1278582,20.9168588-.3771734,14.9146101,5.1339519-2.3218461,21.7259178,19.1697115,24.5162682,3.3616033-6.920948,6.5803934-13.9480905,9.9422134-20.9569235,3.7165888.6444904,8.3671729,3.8449711,10.4031766-.2160508,17.9175654,4.0976406,10.0518531,17.3463126,19.2395031,24.5675345-8.5468215,12.0182812-27.4640794-5.13029-39.5848931-3.3945602-9.5501759,19.0966899-31.6496051,2.8599261-45.6672713,9.2790293ZM174.8834527,370.2269722c-4.3612958,4.3100295-9.546514,6.0970256-16.6285846,2.4497959,4.2917201-4.2917201,9.4073627-6.115335,16.6285846-2.4497959ZM118.9189826,379.7405293c-11.0149268-12.7872754,21.24255-2.7354223,0,0h0ZM64.5291197,364.1665654c-13.6954209-13.3768376-.2526695-40.6065569,22.2788612-25.4097663-9.0851175,10.1910044.7873036,13.6954209-5.7235142,23.0112367-5.0753619,1.9847375-12.6957284-2.98443-16.5553471,2.3985296ZM129.5054698,184.0058662c24.8165422,16.3576057-16.1635262,35.3993674-19.5615327,62.8487993,5.4010533-1.252362,10.0113568-4.6872029,14.4458902-8.6383684,3.0759769,11.6592466-7.8657123,28.3574073-9.6893272,41.7344151-10.8352793-1.1463374-20.4552464,1.0546206-33.3304068-5.5623916,18.2398106-40.5517997,32.2574768-61.6696749,48.1353765-90.3824544ZM115.1289397,192.603782c-2.6109185.9485982,4.0756694-1.4281322,0,0h0ZM152.143195,277.1603618c1.1425057-15.0722868-1.97009-28.3758869,16.020713-33.6343426,18.2361487,11.3554814-11.8388492,32.2389974-15.7717053,43.9864696-11.4433664-9.1180744-15.7717053,1.3951752-27.178237-7.7412085-3.1823873-8.1183819,3.610395-22.582797,11.9448276-25.2303343,3.6838485,7.9938781-4.6872029,20.2758144,14.9844017,22.6194158ZM273.5856923,216.4940413c-17.7381334-5.3133839-14.1273031-18.25812-10.9453511-30.9538484,10.3374795,7.905821,21.3853632,15.5922734,10.9453511,30.9538484ZM278.1959958,239.2709178c-1.1058869-6.4888465-.1428132-13.9114717,5.8297086-23.0114081,23.8900872,4.2369634,9.3341251,28.6250659-5.8297086,23.0114081ZM221.6968916,217.5120431c-12.1940513-5.8664989,1.2853189-28.4674338,9.7625648-31.3786262,13.7320397,12.1391231,2.2154357,22.1506955-9.7625648,31.3786262ZM242.2217136,206.7314765c14.3765301,2.9478112,2.5376809,15.3029851,17.0240674,18.3423432-12.2672888,12.9630455-14.8782073,16.0939505-22.3887175,25.3914569-8.0085256-5.309722-2.8233074-15.2334094-10.798876-20.5431314,7.2578407-2.6658466,11.7656116-12.589534,16.1635262-23.1906687ZM193.3026953,255.5259909c-8.1916194-7.7595179.8202605-39.6251738,18.1665731-27.3945038-5.3278134,11.1211212-9.8724211,24.746796-18.1665731,27.3945038ZM182.5367762,234.9279314c-12.8019229-6.8660199,4.1122882-29.4854357,16.1305693-23.1725308-3.0393581,14.2668453-11.5861796,13.2122247-16.1305693,23.1725308ZM128.3593022,229.7793319c4.3283389-10.6414153,8.978923-20.5284839,16.1305693-23.1760212,8.1149367,8.4772458-1.6478448,28.6468658-16.1305693,23.1760212ZM153.1428874,220.9615315c20.8141103,9.5135571.3918209,20.3673613-5.6502766,33.3999825-11.6592009-6.2581482.7506848-21.1693124,5.6502766-33.3999825ZM180.9658308,259.9055961c11.6923741,6.2764576-.6811092,21.2057614-5.6868954,33.399813-16.1269074-11.6922046.5712529-25.0141141,5.6868954-33.399813ZM165.0146935,293.50332c21.2793863,5.6136578-11.0149268,8.1511695,2.2520545,16.5919658,11.0515456-4.9362105,17.1302618-24.0292386,26.4277682-33.7918033,5.1485994,5.1119806,7.6167047,11.2273157,12.8751604,16.4308432-5.8297086,19.631324-18.3460051,20.2025768-24.2452893,39.9437571-9.7989663-4.8080448-15.7717053,1.3768658-27.1418342-7.7595179,16.6615415-11.7106835-4.3649577-12.5713936,9.8321404-31.415245ZM195.6609443,272.1728849c9.0851175-7.6167047,14.6987753-24.1207855,24.4247213-29.683177,5.1156425,5.1852182,7.5837478,11.2126682,12.8019229,16.3978864-7.5068484,8.1330294-13.9810474,19.6496334-22.3850557,25.4061044-7.7228991-3.0576675-6.4009614-9.367082-14.8415885-12.1208137ZM278.4486653,249.6596636c-4.2551014,17.3975788-14.5925809,17.6648959-20.1696199,31.5249315-26.7500134-6.6168424-2.6475373-53.3753531,20.1696199-31.5249315ZM289.0314906,259.7810923c2.9697825-7.6899422,9.2975064-6.3313858,12.1244756-14.7353941,17.7381334,8.9423043,22.5644877,24.5858439,9.1180744,35.2089498-14.1968778-4.3100295-13.6258453-13.841896-21.24255-20.4735557ZM311.4204288,234.4445636c3.7532035-2.3069827,7.5800861-4.7018504,10.1907837-10.6049678,10.7622573,4.3102008,9.7991835,12.805756,16.9837867,18.3460055-3.0393581,7.8146168-9.367082,6.437751-12.1574325,14.8234499-17.8077091-2.98443.8239224-18.8989485-15.0171379-22.5644877ZM296.4724251,211.8800759c2.6440958-5.5953484,5.2914126-11.1943588,7.9389499-16.7897072,12.9081173,2.3765583,4.3979146,12.3368645,12.7286853,16.3942245-4.4711521,6.8843292-11.7289929,6.115335-20.6676352.3954827ZM249.9482746,179.5347141c-9.3707439-20.1146918,19.4885108-8.0817631,0,0h0ZM241.4014531,165.1763207c-4.7931785-3.6104383-.2524506-10.4251918,3.9694749-8.4404544,5.2914126,4.7567786-2.1458601,3.4861071-3.9694749,8.4404544ZM216.4384358,163.5650946c-5.042405,2.1826516-9.0814556,7.2982941-12.1940513,14.8051425-12.410102-11.5129421-21.5977521-27.8925191-7.0454518-39.3871518,12.8019229,5.935903,12.0878568,16.6102752,19.2395031,24.5820093ZM222.802997,171.8081531c8.546603,6.1702632-7.294678,23.747274-11.9416002,25.1058305-13.4097945-9.1546931,5.2547939-17.3280032,11.9416002-25.1058305ZM175.0628847,174.8511731c-1.2853189,2.7354223-2.6438754,5.5585573-4.0388335,8.3307708-3.1492145-2.4681053-4.7203769-.1977414-6.2217466,2.2337451-8.9056855-2.2154357,3.0393581-22.0628105,10.2605801-10.5645159ZM175.3155542,185.1849907c17.5916583,3.9511656,5.935903,25.8711628-3.5776541,29.1961474-8.8690667-7.04179-9.725946-24.5126064,3.5776541-29.1961474ZM123.2473215,186.221302c-4.6139653-3.0393581.1061944-9.3158157,1.7869961-14.588919,4.6505841,2.98443-.0695757,9.3158157-1.7869961,14.588919ZM148.3861089,295.9164971c-4.0060937,8.4040083-7.9753523,16.8446354-11.9780005,25.2486437-9.4769383-.4137921-18.704869-.3405546-29.1448811-3.6142729,1.7137586-25.6404645,17.2364562-33.3269146,41.1228816-21.6343708ZM92.6706464,315.7455624c-8.9386424-1.9481187-14.8379266,4.1122882-24.9959742-1.5379884-2.5010622-7.2395313,2.3252921-17.1815281,7.7595179-27.1967624,8.5836553,1.2157432,18.4888183,6.0970256,24.9630173,1.5379884,9.0118799,4.9728293-6.6902497,18.704869-7.726561,27.1967624ZM370.4240363,272.7622772c-8.3307708-3.9876143.0695757-13.9991868-12.8019229-16.3427882,2.0030469-4.2551014,4.0392726-8.3673895,5.935903-12.6041815,16.9508298,4.416224,15.4494601,15.394532,6.8660199,28.9469697ZM418.5923698,290.5884657c-8.9020236,12.3917926-13.9114717-2.0030469-16.8080166-7.9938781-7.6496616-16.1964831,18.2031918,5.8663274,16.8080166,7.9938781ZM379.9707728,231.0097227c12.5526928,5.9908312,9.0482763,17.6868671,19.169705,24.5675345-10.4070552,6.8660199-27.1418342-13.3731757-19.169705-24.5675345ZM352.9715293,233.6389506c-15.0539774-2.7903505-9.8321404-12.7654754-16.9508298-18.3972713,10.5132496-14.0909037,25.0325929,5.6868954,16.9508298,18.3972713ZM291.7522654,189.0995375c-10.4070552-5.5953484-13.3768376-13.8565435-8.7628723-24.7982328,3.8266617,7.9389499,16.9874486,12.5492534,8.7628723,24.7982328ZM230.5989152,144.5233324c-5.042405-9.7440821-14.1970981-18.1995304-4.8263542-33.0958734.8239224,11.2822438,9.9786155,19.6679427,4.8263542,33.0958734ZM318.4290412,165.7294369c-4.1122882,5.0790238-12.1940513-1.5379884-18.8476822-3.8449711,1.8968524-4.1818638,3.9694749-8.4003464,5.935903-12.5675627,12.9447361,2.4131771,4.5443897,12.3551739,12.9117792,16.4125339ZM333.589213,198.6824984c-9.6893272-2.4313146-9.7625648-8.2060951-14.768351-12.17557,6.1519538-11.7473022,21.7076084.3954827,14.768351,12.17557ZM364.7739818,198.0564893c11.2270936,5.5990103,15.6982457,19.1333087,4.5773467,22.7109627-11.6230206-4.0060937-11.015149-12.3405264-4.5773467-22.7109627ZM270.3998591,158.2919913c-8.0085256-5.2912397-2.7537317-15.2334098-10.798876-20.4916922,7.1516463-7.847403,22.0298536,10.3191701,10.798876,20.4916922ZM339.3493459,175.6714336c2.3948677-16.9691392,31.1113092.985045,14.8051915,12.1244756-7.76318-3.0064012-6.4744208-9.2975064-14.8051915-12.1244756ZM34.7031295,329.3530983c10.1910044-107.6225726,100.6650058-253.1858554,185.8475945-271.9236813C127.5756604,108.5492235,99.0716079,241.471706,34.7031295,329.3530983c15.6288921,5.8992843,14.7353941,39.5334593-1.3951752,35.4396481-13.4793702-6.833063.0732375-23.3188344,1.3951752-35.4396481ZM27.6249343,495.8879522c6.576518-4.4491809,12.5856586-10.352127,22.7768771-4.6286129-3.3947743,7.0088331-6.686802,14.0176661-9.9751678,20.971571-12.9115657-2.3948677-4.4711521-12.3185551-12.8017093-16.3429582ZM116.5607337,471.1959138c-18.7376106,15.9840942-33.652652,42.931849-59.5421242,38.6584382,15.7717053-24.3370009,34.5095313-40.1414985,59.5421242-38.6584382ZM85.1271793,461.4882772c-2.5740848.8934981,4.0390506-1.5013697,0,0h0ZM253.8811308,474.7369491c-4.862973,21.7954934-17.5587014-13.9297811,0,0,2.0030469-5.2731032,7.3310783.267317,0,0ZM456.0350647,601.7235286c-6.9026386-4.5773466-6.1519538-11.8022304-.4284396-20.8142725,4.2880583,5.3829597,3.5044165,12.6409625.4284396,20.8142725ZM487.3587628,611.4126944c4.0429377-1.4281322-2.5376809.9302783,0,0h0ZM328.546808,674.9061456c-10.6560628-9.3853914,8.9423043-12.3551739,10.0152343-20.9898804-6.474199-1.8053055-10.406834,3.5739922-16.6652034,2.4314865-4.50755,16.646894-13.3731757,20.9898804-22.2788612,25.4061044-9.7625648-18.1482637,5.2584557-40.8006364,19.7045615-52.386816,14.2337169,4.2880583-6.0091406,20.7408728,2.5742997,26.9807116,9.6563703-24.2635987,13.8384555-48.508888,36.4393406-54.803655,1.3219377.6957567,2.7537317,1.3585565,4.1122882,2.0213562,1.9664281-5.2767651,7.2944595.3037742,0,0-1.3585565,5.1669088,1.5746072,8.7260921,4.3283389,12.3368645-3.9328562,14.8745454-12.0146193,18.2178394-18.0237599,27.4823888,18.2361487-6.115335,9.0118799,17.2364562.5712529,31.0746904-9.0116585-5.6868954-16.3063394-6.4558896-20.7774916.446749ZM93.4945688,563.1895943c-5.1852182-1.3587192-8.8324479,1.5379884-12.4467208,4.4528427-26.9624022-14.8415885-6.0420975-51.5850288,19.957231-42.0017321.9996925-2.3399396,5.6832335-3.2334376,4.1452451,1.9847375,9.4441972.6260175,8.9423043-11.1211212,14.6621565,1.8089674,10.7293004-25.4646944,30.9355391-24.3185269,53.7124156-15.6473654-22.0994292,20.0818988-44.5577225,32.0965181-59.2894547,48.9191822-17.3426507-6.5950409-18.8806391-18.825711-9.0851175-35.0807841-1.358341-.6225191-2.7864732-1.2853189-4.1452451-1.9847375-22.0664723,8.7811817-2.0030469,23.8900872-7.5105103,37.5488894ZM204.709443,513.1097609c-10.619444,15.394532,3.1125957,22.1506955-7.547129,37.6184651-9.905378-1.8237779-17.0201881,4.7384692-29.2508584-3.610611,8.7260364-21.4915576,18.7742276-38.8378702,36.7979875-34.0078541ZM154.5380627,499.5205344c4.0756694-1.4134846-2.6475373.9996925,0,0h0ZM185.9349983,509.3160561c-2.6109185.9118074,4.0756694-1.4281321,0,0h0ZM296.6152383,536.2455014c6.0787162-12.4284114,11.7658323-25.7649684,24.6371102-19.2211937,2.3621318,7.847403-10.6560628,27.6618208-24.6371102,19.2211937ZM340.242844,531.184787c2.8233074,1.3402471,5.5770391,2.684156,8.4369652,3.987621-1.3219377,2.8088232-2.7537317,5.6321306-3.9694749,8.4041717-2.8597047-1.3402471-5.6832335-2.6475373-8.4369652-4.0060937,1.2853189-2.7903505,2.6111399-5.5953484,3.9694749-8.3856989ZM275.2994508,613.5770253c1.431794-17.5587014,7.1189094-63.0282313,34.4033368-50.5998199,3.9328562,25.9444004-23.3517913,35.6154182-34.4033368,50.5998199ZM334.8781938,574.9552059c1.252362,23.121093-8.4040083,39.3541949-19.810756,52.4454061-5.5074634-15.6288921,4.7567786-36.5858157,19.810756-52.4454061ZM240.3614799,632.977651c-2.7537317-14.8782073,13.9480905-40.5701,23.9596629-50.3325029,4.6505841,15.7863529-7.2212219,66.9793969-23.9596629,50.3325029ZM219.5510315,633.4427094c-2.7901322-1.3072902-5.5440822-2.6658466-8.3673895-3.9511656,1.3585565-2.8269692,2.6804942-5.6319672,4.0758877-8.4223177,2.6802759,1.2889808,5.5438639,2.6292279,8.2939337,3.9511656-1.2853189,2.8269692-2.6438754,5.5953484-4.0024318,8.4223177ZM233.9605185,624.8226504c-4.2917201-4.2734108-6.0787162-9.4769383-2.358249-16.6102752,4.2917201,4.3100295,6.0054787,9.5135571,2.358249,16.6102752ZM216.5116734,585.6478875c6.8989768-10.1215911,18.5952315-6.7232066,24.6373291-19.1479562,7.9021122,8.0817631-.8570982,31.2173418-11.7658306,35.5641519-5.221837-5.1339519-7.6862804-11.3005532-12.8714986-16.4161957ZM200.0261199,588.0976833c-12.5897519-3.6472297,14.054067-21.2938162,1.5707274-25.0142835,4.5079889-6.9026386,11.7656116-6.0787162,20.7408728-.3918209-4.6103035,16.5736565-13.4427514,21.0264992-22.3116002,25.4061044ZM262.1057071,576.4748849c-14.6255378-13.9444286,10.5828253-23.868116,7.5434671-37.6001557,22.2788612,7.6861173,5.8663274,36.1170954-7.5434671,37.6001557ZM249.1243522,549.7100611c-5.6136578-2.7023024-11.2309775-5.3463409-16.8446354-8.0120244,2.1824788-13.5342983,11.1211212-8.0451443,14.1970981-19.005143,12.0878568,4.9874768,7.2248838,16.0024036,2.6475373,27.0171674ZM311.4204288,548.4029339c4.0388299,2.057975.8566586,6.7048973.2487869,10.4436739-4.0427125-2.1092413-.8568793-6.7232066-.2487869-10.4436739ZM228.1674287,539.7316085c-1.3585565,2.8086599-2.7171129,5.5953484-4.0060937,8.3672265-3.251747-2.4679422-4.7531167-.2488446-6.2544864,2.2009513-8.9056855-2.1824788,3.0027394-22.0483265,10.2605801-10.5681778ZM349.4673345,576.7971301c3.3247629-7.0271425,6.6534093-13.9993568,9.9417751-20.9569235,7.7595179,2.9879291,6.4375802,9.3011682,14.8782073,12.1244756-6.1519538,9.0484987-12.0878568,18.3826238-24.8199824,8.8324479ZM332.4100885,558.36324c-4.291499-4.2551014-6.0091406-9.4037008-2.358249-16.4857714,4.2880583,4.236792,6.0787162,9.4220102,2.358249,16.4857714ZM277.6613617,522.085022c-4.5407278-3.0210487.0366188-9.3341251,1.7869961-14.6255378,4.6139653,3.072315-.1059745,9.3669182-1.7869961,14.6255378ZM217.4747471,529.5039854c-8.473584-9.725946,2.5413428-26.4607251,9.6197516-41.7856814,29.7197958,9.3524345-.3552021,31.9352316-9.6197516,41.7856814ZM138.9460057,553.9653254c3.0393582-14.4131489,15.412625-2.6109185,18.4153644-17.005758,13.4464133,8.5834403-3.3249845,31.9901597-18.4153644,17.005758ZM191.1202165,563.31776c3.610611,9.1691782,1.1095488,20.5614408-5.5074634,33.3816731-7.9755687-5.3463408-2.8233074-15.2517188-10.8721136-20.616369,5.1852182-5.1669088,11.2675963-7.5983953,16.379577-12.7653041ZM221.1952144,608.4650446c-1.8602336,7.847403-7.1150275,6.3094145-12.410102,4.3796052,1.9336894,8.5468215-.2123889,12.9447361-7.9719068,16.7713978-13.4830321-5.668586-9.3011682-17.5770108-6.7964442-28.9288303,16.592184,3.3945602,10.5134676,4.416224,27.178453,7.7778273ZM175.6380167,617.6893135c10.2603628,3.3432939-1.1463849,14.3397504,6.613133,18.5950127-6.6497518,4.5260803-14.9111642,3.9694749-24.9957573-1.5892547,4.2182658-10.7842285,12.8017061-9.8174929,18.3826243-17.005758ZM162.9786898,611.6655254c8.9020236,16.3942245-22.7805384,9.9749536,0,0h0ZM226.0215686,641.630667c2.4681053,7.2615026-2.3948677,17.1485712-7.7592996,27.1601436-15.1274333-2.7171129-9.8689776-12.7286853-17.0206238-18.3460051,5.6136578-10.4766308,13.8382342-13.3914851,24.7799234-8.8141386ZM146.5993293,624.4855965c-2.2193142,11.1395917-2.790567,22.615915-18.3460055,17.0571854-3.6474458-9.458629,5.2216209-26.9294453,18.3460055-17.0571854ZM172.2761961,657.3108254c-2.684156.8971599,4.0756694-1.5013697,0,0h0ZM180.3579592,650.8219789c11.4763233,6.4740387,14.4461058,15.8595904,6.9355955,29.0020679-4.2551014-1.9848972-8.5102027-3.9877843-12.6224909-6.0091406-1.2157432-6.5254653-.1428132-13.8199248,5.6868954-22.9929273ZM251.5558387,674.3532021c3.7534242-13.0179736-22.3520988-25.8382059,1.431794-35.3151443,4.5407278,3.0064012-.1428132,9.2975064-1.7540392,14.5559621,11.6227984-20.2245481,24.5309157-33.9382784,44.5943412-50.8158707,21.9932348,6.6682785-4.3281187,43.5543681-13.4828121,50.1896897-1.252582,6.5803934,7.2612826,3.9328562,10.4068352-.179432,8.5468215,6.2764576-8.0451443,21.509867-9.7991835,31.3786262-23.2785537-3.5044165-39.0136403,14.3765301-62.1164239,11.6227984-5.8992843-21.5977521,18.3460051-21.0266591,30.7194883-21.4366295ZM359.515304,663.9278376c13.5562696-12.3734832,9.7296079-36.9410178,28.1454112-48.421003,4.9359879,13.4134564,2.2518319,29.3975506-7.3679197,47.9925633-8.4369652-3.9145468-10.7622573,8.8873761-20.7774916.4284396ZM408.1853146,604.726268c28.610247-5.3280314,12.4467208,34.9745897,11.4802086,51.7275178-6.6868113,10.7477701-21.2427734-.8384096-28.9654498,6.8843294,1.680579-22.4032049,13.0873266-54.159166,17.4852412-58.6118472ZM452.4574106,630.8317909c2.0396656-5.2584557,7.2944595.3405546,0,0-8.0817631,18.8806391-17.093643-6.6170122,0,0ZM433.8623979,637.4671125c5.8297086,2.5559903,8.2611951,6.4009614,10.5498684,10.1910044,8.0451443-3.5776541,18.2361487-1.1095488,29.1814999,3.5225655,5.1852182-4.8811219-11.4433664-17.9723331,1.8236149-14.5376531,16.1269074,2.3584098.3222452,16.2003058-1.611226,24.9778256-18.0933355-5.2364845-30.1079548,6.7964442-49.9553295-3.1455526,3.3616033-7.0637612,6.7232066-14.0359755,10.0115724-21.0081898ZM496.2278295,636.2330599c4.2221445,4.2734108,6.0823781,9.4403196,2.3619108,16.5370377-9.8687592-2.2520545-5.1156425-9.7625648-2.3619108-16.5370377ZM446.0198304,622.6767903c-3.2151282-2.5010622-4.683541-.267317-6.2215295,2.1641695-8.9020236-2.2337451,3.0393581-22.0078823,10.1910044-10.5498684-1.248476,2.8269692-2.6072566,5.5990103-3.9694749,8.3856989ZM471.0194664,624.2513975c-14.3069544-12.7654656,18.8808643,3.0027394,0,0h0ZM424.7809423,602.3130909c-4.0060937-2.0726225-.7506848-6.741516-.179432-10.4070552,4.0390506,2.0213562.8202605,6.6865879.179432,10.4070552ZM393.6330144,602.8660343c-12.4467208-5.6832335-4.9728293-26.105523,3.610611-29.1265717,3.5044165,8.0304968,1.0365342,18.25812-3.610611,29.1265717ZM381.9735972,540.7679198c6.653631,25.8015871-19.2028843,10.4253645,0,0h0ZM262.4611287,489.1134792c-11.3703484-18.25812,16.808017.5163247,0,0h0ZM226.666059,466.9041937c-2.1824788,13.5892265-11.1211212,8.1183819-14.1604794,19.0966899-15.2334094-2.804998-3.5776541-15.0905962-10.798876-20.616369,10.476849-8.3307708,14.8379266-9.0814556,24.9593554,1.5196791ZM160.0455261,466.208437c2.7537317-5.5770391,5.3646502-11.2126682,7.9719068-16.8080166,18.0237599,4.9728293,5.401269,24.2635987-7.9719068,16.8080166ZM128.6815474,456.4275628c-1.966212,5.2731032-7.3310783-.3039358,0,0,8.8690667-12.1940513-1.7137586-16.7530884,10.0152343-20.9569235,6.9722143,9.0851175,1.4281321,20.616369-10.0152343,20.9569235ZM187.5096055,484.3933195c11.1906969-4.9180659,11.2273157,28.0536417-1.790658,14.588919-1.3219377-1.3951752-3.1821713-12.4247495,1.790658-14.588919ZM175.3485111,499.1250517c-7.3638181-2.0213562-5.3280314-7.3493877-10.5462065-10.08481,6.4339183-7.6862804,10.7258558-5.8260467,14.5523002,1.6808017-1.3951752,2.8452786-2.7171129,5.6319672-4.0060937,8.4040083ZM96.3911137,502.8455189c19.4885108-7.2761501,30.609632-38.156761,55.4627929-30.2545948-3.1821713,17.093808-31.6459432,39.2115466-55.4627929,30.2545948ZM34.5236975,524.8570631c2.9697825-7.7631798,9.2645495-6.3863139,12.0878568-14.7720129,8.0817631,2.1640055-3.6838485,27.0539492-12.0878568,14.7720129ZM38.8886552,537.2268845c19.0600711-7.488539,32.8619012,30.4704806,19.3823163,34.9745897-16.020713-8.2245763-8.5102027-24.9227366-19.3823163-34.9745897ZM104.2568261,583.7546969c1.3951752.6957567,2.8269692,1.3585565,4.1491225,1.9664281,7.0086175-10.9087323,24.3549301-18.704869,29.0386874-6.7964442,1.9662118-4.236792,3.9326399-8.4040083,5.9356867-12.6224909,13.0179736,13.6441547,13.515989-7.7082516,24.9959742,1.6624923-1.966211,4.1489069-3.9694749,8.3672272-5.9725218,12.5529152,8.4040083,2.8233074,6.9758762,9.1180744,14.8049697,12.1574325-7.6167047,11.3005532-17.9871411,14.929312-30.968496,11.0332362-2.6802777-6.0457594,6.0457594-16.1305693-6.6133503-18.5950127-9.3011682,11.4433664,7.6862804,13.5526077-1.5746072,25.0142835-5.1483832-1.3768658-8.7628723,1.5196791-12.410102,4.3796052-12.9447361-2.3436014-4.504109-12.3917926-12.7286853-16.3612676-3.3616033,10.3704364-8.3710514,15.8083241-14.2703357,19.0088048-18.9172579-4.1855257-3.6838485-29.6648677,5.6136578-33.3999825ZM69.0698475,592.7995337c5.0790238,10.9453511,14.1604794,20.5467933,9.0118799,35.1174029-16.8080166-6.5073171-23.8168497-28.1085698-9.0118799-35.1174029ZM103.4365656,650.3569205c2.5742997-3.2370995.3222452-4.7567786-2.0762844-6.2215295,1.252362-2.7903505,2.5742997-5.6319672,3.9365181-8.4223177,3.1823869,2.4497959,4.6837566.267317,6.1118888-2.1826397,2.7901348,1.3587173,5.650061,2.6476981,8.4404114,3.9696358-2.4681053,3.2187901-.2490077,4.7567786,2.1824788,6.2251913-1.2889808,2.7866886-2.6109185,5.6319672-3.9694749,8.3856989-3.1455526-2.4864147-4.683541-.2526695-6.1885726,2.1971264-2.7866886-1.3036283-5.5770391-2.6621848-8.4369652-3.9511656ZM151.4620858,657.7063081c4.6505841,8.7592104,12.3734832,16.5040808,6.8660199,28.9471397-16.7713978-4.9179012-20.6346783-23.6557271-6.8660199-28.9471397ZM210.465914,696.0241917c-3.9694749,15.9291661-21.9199973,8.0451443-25.0325929-1.5562978,8.4774636-14.2337169,16.1635262-5.668586,25.0325929,1.5562978ZM80.7292647,654.9157973c11.9084248-17.8624769,23.8131878,15.5045486,0,0h0ZM116.5241149,677.1252432c11.15774-16.2367638,27.0358563,10.4217027,8.5468215,14.3216019-4.7933973-4.1122882-3.0393581-10.5132496-8.5468215-14.3216019ZM164.6924483,694.8597148c11.1211212,5.6502766,15.5922734,19.1699274,4.6139653,22.7805384-11.6594172-4.024562-11.0515456-12.4247495-4.6139653-22.7805384ZM102.1475848,685.7050216c14.6255378,1.7174204,2.9697825,12.9300886.4284396,20.7774916-6.9355955-4.504109-6.2215295-11.8168779-.4284396-20.7774916ZM129.7546935,714.2786498c9.1913121-11.8168779,13.7686588-.1428132,22.959971,5.7235142-8.224793,19.1113374-19.9537859,3.877928-22.959971-5.7235142ZM107.153371,729.2630516c2.4681053-3.2004807.2526695-4.7933973-2.2520545-6.2032201,2.2886733-8.8507573,22.0664723,2.9111924,10.6560628,10.2276232-2.8599261-1.3623767-5.6134422-2.6658466-8.4040083-4.0244031ZM111.7673363,752.0069712c53.3205947-10.3008607,96.3403287-49.4756236,150.6239972-57.0557095,36.7984249,36.6370819,96.9482004-29.4854357,147.764071,3.3066752,16.8409735-10.7805666,55.2835855-23.0112367,64.5115165,4.9545199,7.9387251-.7689942,16.3427334,0,20.5245972-10.7842285,6.5108178,3.4714596-1.7174204,12.2123606,8.653016,14.3216019,4.4345334-3.877928,13.5892265-26.7646609,32.9385859-15.1967906-19.2761219,12.4613683-1.611226,20.8470672-7.5105103,37.6367744-45.2388316-25.7832778-76.5991484-12.3734832-119.1172053-30.9318772-95.7688551,25.1387874-184.9540965,68.6968173-272.2093077,117.7403394-3.1492144,5.3132278,6.7232066,22.2971706-3.7570861,18.7744447-20.8104484-22.8318047-22.31548-52.5296292-22.4216744-82.7657497ZM370.6034683,803.0169214c-.4284396,18.5803652-36.1207573,22.31548-49.1716878,38.3911212-16.9508298-20.1697761,18.1299543-15.0393299,26.640157-23.4250288-20.9898804-12.6408003,15.127437-26.0872136-13.0875493-26.7463515,6.7964442-10.4621405,17.8443279-8.9056855,29.0386866-6.8477105-11.4797635,9.2608876-4.4711521,28.8555928,6.5803934,18.6279696ZM239.4679819,797.2970691c3.9694749,12.2123606-14.409487,17.0568679-26.7133946,13.036283-2.7537317,8.8141386-9.6197516,5.5770391-14.409487,8.5979316-9.6563703-6.6864317,7.5068484-16.3611114,14.409487-8.5979316,9.4403196-2.8818974,13.6954209-20.2942807,26.7133946-13.036283ZM527.8774346,764.5232677c-5.4708446,10.4583214-20.3820088,2.4497959-22.9929273-5.8113992,10.5498684-12.2672888,8.7225916,1.6624923,22.9929273,5.8113992ZM513.9293441,793.8805376c-3.6838485-9.4037008,5.221837-26.8562078,18.4192426-16.9654773-4.1855257,7.2395313.9301168,11.2090063-3.8266617,18.7195165-4.5077709.6957567-8.8690667,1.1789677-14.5925809-1.7540392ZM553.6240936,807.6308867c4.0756694,2.057975.8934981,6.7230503.2160508,10.3374795-3.8998993-2.0032031-.7506848-6.5987028-.2160508-10.3374795ZM434.7192772,787.157331c-6.6133503,10.4984454-17.6978528,8.9056855-28.9654491,6.8513723,8.8324479-4.7055123,16.5223902-12.3919498,28.9654491-6.8513723ZM382.6547064,788.1973041c-4.0793313-1.9847375-8.2978139-3.9877843-12.4796777-5.9725218,4.504109-10.6926816-1.7174204-16.7018222,10.0115724-20.9752329,13.9114717,8.8141386,13.5528305,17.3096938,2.4681053,26.9477547ZM464.1168278,801.1420402c6.6499691-6.0091406,8.0085256,3.0027394,12.6591097,6.0237881-6.653631,5.9725218-7.9755687-3.0576675-12.6591097-6.0237881ZM399.1404778,775.3770719c-4.5443897-13.8602054,10.9416892-26.911136,24.5309157-19.2211937.1061944,4.6469222.2160508,9.279197,4.504109,12.3879733-8.8654048,4.669051-16.5187283,12.3919501-29.0350248,6.8332204ZM465.7243919,776.1643755c-2.7537317,15.2517188-15.0905962,3.4861071-20.6310165,10.8171854-8.8361098-10.2459326,10.2239613-22.4766026,20.6310165-10.8171854ZM432.1449775,760.1581523c2.4314865-9.5829751,8.1916194-9.7257883,12.1610944-14.7865027,4.8263542,4.1855257,3.0759769,10.5132496,8.6896347,14.3948395-4.5773466,6.9026386-11.8715821,6.1702632-20.8507291.3916632ZM481.6755293,742.5483423c4.3612958,12.5675627-5.7601329,7.3823445-12.1610944,14.8232791-11.7985685-6.5437747-.6408285-24.820204,12.1610944-14.8232791ZM469.7671044,767.7420578c6.5071559-4.434691,12.6224909-10.3191701,22.7073009-4.6139653,4.5773466,18.3972713-21.5647952,23.4762951-22.7073009,4.6139653ZM443.8739703,724.6124675c-4.0390506,7.279812,1.0399731,11.3188626-3.7168054,18.7561353-10.7293004-4.2734108-9.8687592-12.7469947-17.0240674-18.3606526,4.5077709-6.8843292,11.7326547-6.1336444,20.7408728-.3954827ZM406.5045129,727.4028179c8.4406271,2.8599261,7.0456751,9.1546931,14.8782073,12.2122024-6.7232066,13.7505073-19.631324,10.388904-33.1875936,4.8265124,2.684156-5.6321254,5.3280314-11.1906969,7.9389499-16.8043547-2.3214074-1.0912394-3.1455526-5.6868954,2.0396656-4.2038351,2.0030469-4.2184826,9.7991835-1.7869961,8.3307708,3.9694749ZM375.3602469,728.0656177c-2.0030469,4.1818638-4.0060937,8.3856989-5.9395649,12.5492534,5.8297086,2.5926091,8.2611951,6.3863139,10.5867096,10.2459326-2.072845,4.2038351-5.7566935,3.3432939-8.2247988,6.4009614-2.8233074-1.3402471-5.6136578-2.6621848-8.4040083-3.9841225,1.9664281-4.2038351,3.9694749-8.4406271,6.0420975-12.6627716-5.935903-2.5378392-8.4369652-6.3643427-10.6887978-10.172695,1.9991631-4.1818638,5.7928679-3.3432939,8.2573113-6.3826521,2.7903505,1.3219377,5.6173197,2.6988035,8.3710514,4.0060937ZM319.6447844,747.8946831c4.1818638-14.1787887,16.5553471-5.7052048,22.5278689-15.0027111,8.2611951,11.4616758-12.6224909,22.2239331-22.5278689,15.0027111ZM346.7499999,755.6540432c-3.5410353,9.5466718-9.7625648,11.6925319-18.4888183,6.6501269,3.5776541-9.5831328,9.725946-11.7656116,18.4888183-6.6501269ZM288.6396697,758.9425667c3.610611-9.5831328,9.8321404-11.7802591,18.5583939-6.6499691-3.5739922,9.5282046-9.7625648,11.7289929-18.5583939,6.6499691ZM347.251677,776.3767644c-1.9664281,5.3463408-7.367697-.2490077,0,0,1.9298093-5.221837,7.3310783.3771734,0,0ZM307.4141144,762.663034c10.8354948,10.2459326-10.1214287,8.9386424-12.1574325,14.8049697-10.9087323-10.2093138,10.1543856-8.9569518,12.1574325-14.8049697ZM257.6711737,769.9062272c-1.9664281,5.2914126-7.3308591-.2892883,0,0,3.5739922-9.5318665,9.8687592-11.696036,18.521995-6.653631-3.5375932,9.5501759-9.7627846,11.7656116-18.521995,6.653631ZM299.9036041,800.2302328c3.9694749-11.6594172,13.8382342-6.6170122,22.7805384-4.5773466-6.5437747,4.3979146-12.6957284,10.3153517-22.7805384,4.5773466ZM324.8629595,801.8377969c13.6258453,9.4220102-7.2578407,20.7958009-18.3093863,17.005758,4.2221445-10.7659191,12.7323472-9.8359588,18.3093863-17.005758ZM285.0290587,788.0544909c-6.833063,13.4976796-28.251383,15.7166206-33.1141368,4.862973,10.047972-12.856851,22.8501147-18.1153068,33.1141368-4.862973ZM287.5301209,804.6830755c-4.0060937,11.604489-12.4064401,11.0112649-22.8134953,4.5590372-4.3283389,19.3823163-13.0179736-5.0607144,0,0,6.6133503-4.3979146,12.6224909-10.2459326,22.8134953-4.5590372ZM244.0819472,820.0592981c-14.2703357-12.6957284,18.9538767,3.0210487,0,0h0ZM280.0928482,852.6170488c-3.9328562,15.9877561-21.8504216,8.0817631-24.9593554-1.552636,10.5462065-8.3344326,15.0175783-9.0484987,24.9593554,1.552636ZM246.5500525,836.6878828c4.0060937-11.6778826,12.3002457-10.978308,22.7439196-4.595656-6.6170122,4.3979146-12.589534,10.2971988-22.7439196,4.595656ZM284.0989419,844.2313499c2.1092413-7.3310783,7.4008741-5.3609883,10.1910044-10.5828253,7.7961367,3.0210487,6.4011819,9.3341251,14.8049697,12.1391231-10.5132496,8.3673895-14.947783,9.1032716-24.9959742-1.5562978ZM279.7010273,831.8577108c-9.586575-6.7047414,7.4372727-16.4489968,14.409487-8.5979319-4.112068,4.8446636-10.5864871,3.0759769-14.409487,8.5979319ZM403.7874,798.2088766c-3.9326332,11.6409514-13.9444286,6.6170122-22.8501141,4.6139653,6.6868105-4.4346901,12.6957284-10.3338176,22.8501141-4.6139653ZM433.1483319,812.1568107c2.0360038-7.3675407,7.4006539-5.3644938,10.1910044-10.6229495,7.9023311,3.0942863,6.4375802,9.3341251,14.768351,12.1757419-7.0784087,7.0820706-20.704254,11.1760494-24.9593554-1.5527923ZM505.9574373,810.725173c10.4033933,5.5770391,13.336557,13.8199248,8.7958292,24.7652759-13.5892265-5.4378877-19.2761219,11.1394306-35.3664105-1.3768658,4.2551014-20.5286402,20.7408728-7.0454518,26.5705814-23.38841ZM566.7482617,834.3992095c-8.0085256,13.515989-22.0994292,10.1031194-35.1869786,9.0300337,8.6166237-11.0330806,29.0716435-21.2423944,35.1869786-9.0300337ZM492.9030702,783.9237363c12.9445108,2.3950248,4.5407279,12.3370216,12.8016976,16.3577628-7.5105103,8.9423043-22.2056237-7.847403-12.8016976-16.3577628ZM591.2462205,815.1961689c4.8995918,4.1454014,3.1455526,10.5317153,8.653016,14.358377-7.2944595,5.6136578-14.7353941,10.9233799-26.9624022,2.6438754,2.6804942-15.1272149,12.7653041-9.8321404,18.3093863-17.0022524ZM576.6170209,813.4239766c-14.8379266-9.8321404-12.1940513-25.8711628-11.1540781-41.3755511,15.5886115,7.2431932,21.2388881,18.0054505,27.6398495,28.5553188-5.2181751,5.1669088-11.2273157,7.6714764-16.4857714,12.8202323ZM230.6355339,870.2489878c-3.1125957-11.6411078,2.8601449-5.1485994,7.9389499-16.7713978,17.7015147,4.3612958,6.5071559,27.7680152-7.9389499,16.7713978ZM140.806023,853.3347768c6.4009614-11.4104095,15.841281-14.4131489,28.9654491-6.8661754-8.1183819,3.0393582-12.9447361,13.051086-3.7534242,18.8624853-6.2251913,8.5283573-23.8168497-7.3127689-25.2120249-11.9963099ZM218.4048639,885.072267c-4.324677-2.0030469-8.4040083-3.9877843-12.5858721-5.9542124-.4284396-15.2334094,24.5675345-3.3249845,12.5858721,5.9542124ZM193.4088898,883.461041c5.1485994,4.8300161-2.2154357,3.5227259-4.038833,8.4223177-4.7238218-3.5594991-.2162684-10.352127,4.038833-8.4223177ZM172.6313982,883.8748331c23.1394024,15.3762226-15.7350866-10.4070552,0,0h0ZM225.0218761,1011.7512488c13.9810474-1.2487001,46.989209,20.4222895,44.4844849,36.6041251-27.0685967-7.8510648-31.1808848-23.8351591-44.4844849-36.6041251ZM352.0780313,1123.5923039c-22.8134953-19.7924466-41.9834227-40.9251402-45.0593996-67.7117723,13.9480905,22.9599704,37.1204497,42.6645319,45.0593996,67.7117723,5.3280314,1.97009-.358864,7.3164308,0,0ZM362.8769073,1144.1903635c-14.3032926-12.8019229,18.9172579,2.9880918,0,0h0ZM447.7372508,1225.6560009c-87.112398-44.6308141-81.4618994-122.2113456-124.2658047-182.6323204,23.6374177-10.9416892,20.7408728,45.4182636,44.7334926,57.396115,6.7964442-19.8984919-24.4576782-56.41107-20.4186276-86.9145076,7.0454518,3.3249845,14.0176661,6.6316597,20.9569235,9.9784645,5.7930898-9.0849664,6.5071559-16.3098503-.358864-20.8139593,44.3782905-22.0300057,63.4752041-61.4170053,117.2240147-62.651058-5.0790238,8.7958292-2.8965449,14.9660923,6.6499691,18.5765506,15.3798845-1.2888281,5.0094481-22.4215218,3.5410353-29.1996566,26.9294453,17.1998375-8.3307708,86.6839584,10.6231059,118.3152542-9.5135571,13.9114717-4.6872029,22.6011064-5.5074634,33.3999825,35.0441653,50.5119349,142.9340549,74.0578056,187.8835983,135.5663579-17.5587014,16.3246488-26.3911494,56.7371262-48.8128238,59.2197343,10.0484205-21.0080452,19.9901879-41.9979256,29.9324145-62.9731585-26.0325152-4.5590372-29.1084921,55.4296912-55.1444394,50.9586839,12.5529152-18.4705089,9.0851175-31.1113092,17.8809466-48.2049522-10.0479626,1.3585565-13.7686585,20.3307425-22.4912501,25.4427232-3.5410353-9.2242688-12.1244756-16.5919658-19.1699274-24.5858439,8.3673895-12.2819363-.5712529-18.4338901,9.7625648-31.3787732-18.1299543,17.9689786-42.1589659,32.1843862-42.7341076,46.597535-25.9956666-10.8354948,14.8415885-24.4431771,7.5105103-37.5488894-15.0539774.0694289-24.1720518,16.6981603-36.8677802,23.6007989-9.8355764-4.6652316-19.6349858-9.3158157-29.3975506-13.9993568,11.2309775-30.7377977,28.1085698-45.1655941,42.3056679-67.3565703-28.4271531-1.2853189-60.0401395,73.0068469-93.8356047,89.2068459ZM278.8404861,996.1260185c20.8141103-18.0420692,27.8595622,5.8625139,50.1384234,13.5342983-10.1580475,13.8052773-33.3304068-8.7445629-50.1384234-13.5342983ZM309.772584,985.1294011c4.8297954-17.1998375,33.2239917,6.1336444,35.6188594,11.7473022-7.6533235,7.9755687-24.3881025-9.546514-35.6188594-11.7473022ZM336.5589955,972.0931181c9.0484987-10.619444,20.1330012-15.4457983,37.4062985-2.7866886-5.0426273,21.0081898-30.2180334,18.0567168-37.4062985,2.7866886ZM367.3480594,950.674798c5.6868954-14.5925809,25.8894722-14.2520263,31.1113092-.6078716-1.8931905,4.1818638-3.9694749,8.4040083-5.935903,12.5858721-11.7656116,4.5407278-15.9840942-5.9725218-25.1754061-11.9780005ZM396.0645009,933.489608c3.0759769-14.2849832,13.1937438-8.9020236,16.200145-23.2089781,2.5742997,8.3710514,18.5950127,11.9999718,21.206155,20.3673613-7.4411584,15.1967906-21.0999605,12.5529152-37.4063,2.8416168ZM579.4439901,948.5289379c-7.0820706-3.3249845-14.0542849-6.653631-21.0264992-9.9786155-.2526695-15.9108567,33.5427957.1609694,21.0264992,9.9786155ZM537.3909917,928.5570594c-2.7903505-1.3255996-5.5807009-2.6292279-8.4040083-3.9877843,1.3951752-2.7903505,2.7171129-5.5623916,3.9694749-8.3856989,2.8965449,1.3402471,5.6502766,2.6437217,8.473584,3.9694749-1.431794,2.804998-2.7168865,5.6136578-4.0390506,8.4040083ZM601.9389021,933.5262268c5.2914126,1.9298093-.2892883,7.3493877,0,0-5.2582278-2.0213562.3918209-7.4006539,0,0ZM568.3228689,917.560442c-14.2337169-12.7323472,18.9868336,3.0210487,0,0h0ZM629.0807363,941.2674353c4.8263542,4.0976406,3.1821713,10.5681778,8.653016,14.4314583-6.6499691,9.6380609-16.3063394-7.5288196-8.653016-14.4314583ZM687.9417513,969.2698107c-2.6109185.9301168,4.0756694-1.4832127,0,0h0ZM658.7968703,965.6408903c4.2184826,4.324677,6.0420975,9.5282046,2.358249,16.5919658-4.2880583-4.2734108-6.0420975-9.4403196-2.358249-16.5919658ZM600.1482441,948.1004983c1.790658,6.3643427,14.9844017,8.6896347,6.6170122,18.6316315-9.5135571-3.596116-11.6923741-9.8541117-6.6170122-18.6316315ZM627.5427479,966.2817189c11.5495609,4.0244031,17.3060319,10.1214287,10.8354948,20.5980596-11.5532227-4.05736-17.3094653-10.1360762-10.8354948-20.5980596ZM659.1557342,986.4513388c4.7897355,4.0610219,3.1091634,10.5681778,8.5797784,14.3582207-6.6865879,9.6379096-16.4125339-7.4922009-8.5797784-14.3582207ZM674.4223304,1127.5617789c-26.9626321-14.8380754-.6410584-48.6333918,4.8297862-74.9879225,6.7598254,22.0297038,5.3646502,46.9013239-4.8297862,74.9879225ZM707.3606864,1112.2587938c4.4345334,6.6499691,10.4033933,12.69558,4.7531167,22.8501141-11.6921435-4.0060937-6.7561635-13.9114717-4.7531167-22.8501141ZM647.0681066,1109.3805583c-27.7865538-13.3585282-1.7908872-45.8650126,2.7535025-70.7547923,25.926091,14.0725943,3.0759769,45.3999542-2.7535025,70.7547923ZM617.6703268,1095.4324678c-18.3093863-15.2883375-3.8229999-57.9858264,8.9423043-72.9885375,19.451892,23.4762951,1.6441829,37.4610043-8.9423043,72.9885375ZM522.40659,1014.1131596c1.4281321-2.7537317,2.7537317-5.5953484,4.0060937-8.4223177,3.251747,2.522882,4.8263542.267317,6.2583745-2.1277022,5.5035752,7.2763016,10.8682254,14.7172362,2.6070303,26.9112875-8.3307708-3.9879353.1428132-13.9663999-12.8714986-16.3612676ZM553.6607124,1013.505288c6.9722143,3.3249845,13.9812745,6.6682785,20.9569235,9.9784645-.538296,11.8353383-2.3616835,24.1172746-7.5105103,37.6003067-7.0452249-3.3799127-13.9847092-6.6682785-20.9935423-9.9749536.5016772-11.8205398,2.4681053-24.1207855,7.547129-37.6038175ZM593.0332166,1006.4781455c33.7918033,13.5342983,7.5800859,48.4722692,5.5770391,74.7389148-6.9722143-3.3066752-13.9444286-6.5987028-20.9203048-9.9749536.1464751-34.6889632,20.2428575-33.5794144,15.3432657-64.7639612ZM681.2551635,1048.3883307c4.0024318-1.4281321-2.7171129.9301168,0,0h0ZM578.6566865,1015.0432764c-15.841281-7.0820706-35.5092238-12.8751604-21.4183201-30.7377977,17.8077091,6.5108178,28.5003907,15.4493085,21.4183201,30.7377977ZM538.606735,990.9408003c-4.1855257-1.9664281-8.3710514-3.9877843-12.5529152-5.9542124-.4284396-15.2334094,24.6041533-3.3249845,12.5529152,5.9542124ZM636.9464487,1022.2315415c-10.6560628-4.2917201-9.7989549-12.768966-16.9874486-18.3643144,11.1943588-18.7561353,30.0054222.985045,16.9874486,18.3643144ZM655.6146989,1015.6694574c30.5400563,17.1632187-13.9847092,33.0228091,0,0h0ZM607.4427036,997.931324c-14.1238606-4.3284907-17.0570243-12.6043335-8.8654048-24.7835853,3.9328562,7.8510648,17.0570243,12.4650302,8.8654048,24.7835853ZM580.0518617,979.7464415c-13.2303625,4.9911387-11.0149268-7.847403-25.2486437-12.0146193,1.97009-4.2551014,4.0060937-8.404161,5.9725218-12.589534,12.9117792,5.9395649,28.8226359,10.710991,19.2761219,24.6041533ZM546.2234396,953.3736015c-1.2889808,2.7903505-2.684156,5.5953484-4.0060937,8.3856989-4.2184826-2.0030469-8.4040083-3.9696276-12.6222647-5.9908312,2.0723963-7.3457258,7.4370465-5.3463408,10.227397-10.5828253,3.0393581,2.4131771,2.178817,6.2032201,6.4009614,8.1879575ZM701.1025382,1212.2793092c5.2914126,2.0030469-.358864,7.3127689,0,0-5.2948441-2.0213562.3222452-7.3129153,0,0ZM689.1208758,1237.4730247c9.5135571,3.5776541-5.1119806,15.7717053-5.7930898,22.9599704-9.367082-3.5777992,5.221837-15.7718508,5.7930898-22.9599704ZM600.0054309,1251.7067416c-7.0088331-3.3249845-13.9114717-6.5987028-21.0264992-9.9786155-.2160508-15.9291661,33.6856089.0915469,21.0264992,9.9786155ZM503.8445342,1226.6375299c-5.935903,12.750511-19.631324,3.4348409-31.1113092.5895622,6.6902497-10.4070552,17.2037246-10.2971988,31.1113092-.5895622ZM927.6445747,1103.7302817c-3.9694749-2.0396656-.7506848-6.6719404-.179432-10.3887458,4.0756694,2.0726225.8568793,6.7048973.179432,10.3887458ZM949.7806227,1067.9683884c-11.0881643,23.4579857-27.2150718-10.2276232-31.5067919-20.2063891,10.7659191-6.9537545,27.357885,13.2854411,31.5067919,20.2063891ZM957.6097163,1040.7899354c-15.2663663,7.9572593-60.9336375-31.1662373-50.9916408-55.1405477,22.2422425,16.5187283,35.0075466,36.3477936,50.9916408,55.1405477ZM899.5360048,946.258574c16.4857714,20.6310165,26.4973438,27.0869061,48.8494426,48.9373277-17.1302618-2.1824788-55.7518458-26.6072001-48.8494426-48.9373277ZM968.9837443,984.415335c-12.300483,7.4555821-15.6987051-17.4158882-31.6498424-20.1879293,13.9847092-19.2028843,20.1696199,16.1085981,31.6498424,20.1879293ZM935.1550849,958.0388332c-4.2221445-1.999385-8.4040083-3.9842752-12.5529152-5.9871693,2.6475373-5.5257728,5.2547939-11.1760494,7.8657123-16.7897072,2.3619108,3.8083523,4.7933973,7.6350141,10.6597247,10.172695-1.97009,4.1855257-4.0060937,8.3673895-5.9725218,12.6041815ZM972.5574992,955.178907c5.2950745,2.0213562-.2856264,7.3493877,0,0-5.2547939-1.9665809.2160508-7.2763031,0,0ZM916.1645895,943.8600444c-4.1818638-1.9847375-8.4040083-3.9841225-12.5529152-6.0054787-1.2487001-6.5108178-.2121532-13.8565435,5.7601329-22.9599704,11.3701289,6.3826521,14.3728682,15.8595904,6.7927823,28.9654491ZM880.1170698,911.3204493c.9667356-3.9363642,3.5410353-3.1820175,6.2251913-2.2006344,5.1485994,1.4647509,4.324677-3.0942863,1.999385-4.2001732,12.768966-8.7811817,13.3036001,15.8925473,8.8693022,24.7799234-14.4829601-2.9661206-2.6441109-15.3212944-17.0938785-18.3791158ZM957.7195726,943.0580933c-4.2917201-4.3101827-6.0091406-9.4952477-2.4678683-16.6102752,4.3610588,4.2880583,6.1519539,9.4732765,2.4678683,16.6102752ZM938.7290771,928.824223c-4.3612958-6.5253118-10.3704364-12.5527618-4.6469222-22.7437662,11.6923741,3.9694749,11.0478837,12.3551739,4.6469222,22.7437662ZM921.7089078,910.5148362c-11.6230345-4.0425586-11.0517817-12.4282575-4.6139655-22.7803845,11.7287568,3.9694749,10.978072,12.3551739,4.6139655,22.7803845ZM902.6815574,896.2995826c-7.7595179-3.0027394-6.4339183-9.2975064-14.8049697-12.1757419,2.0030469-4.1856804,4.0427125-8.3673895,6.0091406-12.6041815,15.5192716,3.8229999,12.0512381,14.3545588,8.7958292,24.7799234ZM868.7835596,859.5563062c12.6224909-14.5742715,17.8772848,5.0790238,18.9172579,14.2154075-9.7625648,9.725946-19.5983671-8.799491-18.9172579-14.2154075ZM961.1141328,903.4329195c-14.2666738-12.7288397,18.8110635,3.0247106,0,0h0ZM944.0571085,885.1235332c12.1610944,6.7964442-12.23067,15.5042342,0,0-12.1940513-6.8477105,12.3368645-15.573964,0,0ZM935.3310915,860.3069911c-4.5041091,6.9905237-5.8262832,23.0661648-16.482346,12.7834587,4.1452451-7.2064196-.8971599-11.282089,3.8229999-18.7925992,4.2221445,1.9845822,8.4406271,4.0244031,12.6593461,6.0091406ZM910.3348809,858.6992718c-7.4372727-1.9699348-5.3646502-7.4041606-10.619444-10.1578923,1.2853189-2.7903505,2.6804942-5.5953484,4.0390506-8.3673895,7.2617385,2.0213562,5.2950745,7.4006539,10.5498684,10.1214287-1.4281321,2.8416168-2.7171129,5.6136578-3.9694749,8.4038531ZM975.025842,874.0756496c-2.5745372.8751887,4.1120507-1.4501034,0,0h0ZM889.3816192,848.7574302c-2.2886733-5.0057862-7.4406995-9.0301893-14.8782073-12.1940513,3.0759769-7.7595179,9.3707439-6.4192708,12.1574325-14.7720129,7.5107457,6.5987028,12.8385417,14.0359755,2.7207748,26.9660641ZM874.3242149,826.2258994c-2.8235423-1.3585565-5.6834684-2.6988035-8.4042432-3.9841225,1.3255996-2.8269692,2.6475373-5.6356291,4.0060937-8.4223177,2.684156,1.2853189,5.5074634,2.625566,8.3673895,3.9511656-1.3219377,2.8233074-2.7171129,5.6319672-3.96924,8.4552746ZM932.8297929,843.6967158c-4.5077709-6.474199-4.0060937-14.8598979,1.5746072-24.9776648,8.9386424,5.0240956,4.0392872,14.9294736-1.5746072,24.9776648ZM913.8759162,829.5362365c-8.8690667-4.9545199-4.0060937-14.8415885,1.5379884-24.9447079,4.5407278,6.474199,4.0427125,14.8232791-1.5379884,24.9447079ZM904.7944606,794.3639054c-2.7537317,6.8147536-9.5867947,15.0576393-3.7204673,18.8293729-16.3429582,10.0481912-12.7323472-16.0939505-8.8324479-24.7835853,4.1489069,1.9664281,8.4040083,3.9877843,12.5529152,5.9542124ZM840.3161259,789.4826231c4.0427125-1.4647509-2.6804942.8934981,0,0h0ZM881.9077277,788.5708156c-2.6475373.9484262,4.0024318-1.4134846,0,0h0ZM864.8836604,770.2248106c-18.0235256-5.1669088-37.9407103-92.8139409,12.9117792-81.3193082.9630737,17.0606861,5.1852182,33.026471-5.1852182,54.1445171-7.6533235-14.6987753.176005-34.9233234-13.4134564-47.6007425-3.1086993,26.8049415,2.684156,50.299546,5.6868954,74.7755336ZM787.8194535,661.5146605c4.2551014-2.7354223,14.6255378-.7873036,8.2245763-6.3460333,14.6621565-1.431794,35.5460764,8.6163972,43.9498508,15.7314247,4.6139653-27.2663381-47.0954034-34.3996749-61.398696-54.9100108,22.6013395,4.2039964,58.0041357,26.2851163,88.1855628,41.9469653-11.3740255,13.8052773-27.6437461,13.8748529-38.9809181,27.804634-19.7045615-5.8113992-20.2025768-18.4155807-39.9803759-24.2269799ZM751.9879846,639.4152312c6.5437747-12.4650302,36.0475197,7.7961367,31.5763676,20.0963824-17.4486129-11.9780005-21.5281764-8.5285121-31.5763676-20.0963824ZM892.8127982,711.381946c-10.2642419-12.175583-16.7713978-29.62809-.8568793-41.499896,17.1998375,7.8693742,10.6560628,24.0841667.8568793,41.499896ZM917.3803327,692.2669463c-6.6499691-11.6372865-11.5861796-23.8166903-7.0784087-39.4053018-13.6990828-2.7354223-25.4280757.3918209-37.3731193,2.8416168-16.6615415-13.8565435-30.1445736-28.8226359-52.8152557-40.5516287,17.3792695-9.6746797,35.6886557.9996925,46.0224734,11.5495609,11.3701289-19.0968514-15.3066469-24.7652759-29.8259903-34.7219201,52.1414703-10.2644041,100.4159981,64.4745125,81.0703006,100.287673ZM740.2223729,566.8917522c-11.0478837-12.7469947,21.3487444-2.6806568,0,0h0ZM729.2806837,546.2936926c-6.8294011-4.5590372-6.0089095-11.7656116-.3222452-20.7591822,13.9810474,4.2915566,9.8687592,17.631939.3222452,20.7591822ZM791.8987848,555.4483857c-4.0060937-2.0726225-.8239224-6.6682785-.179432-10.3889089,4.0024318,2.0398288.7873036,6.6684416.179432,10.3889089ZM770.4768028,416.5900002c12.0512381,14.2703357,27.5006982,27.357885,17.6282771,49.5818181-6.6133503,1.1278582-13.9078098.1611226-23.062503-5.8443561,5.4708446-10.1763569,14.0872418-9.2279307,10.0115724-20.9935423-5.5440822.6627998-8.9384102,7.547129-16.5917338,2.4131771-4.5446217-11.7289929,6.0787164-16.0024036,12.0143873-25.1570968ZM747.6964961,421.1856561c-9.8689909-9.905378,9.5499442-17.2364562,11.9448119-25.2120249,13.9114717,10.7842285-4.7567786,18.9538767-11.9448119,25.2120249ZM792.2173681,468.1052894c13.2669813,6.9355955,14.021328,18.2542935,4.8300161,33.1473129-11.696036-7.4555821-22.1726668-25.8711628-4.8300161-33.1473129ZM772.5494253,520.5470336c-13.8016154-6.8147536-10.4033933-19.6349858-4.8263542-33.2571692,13.1607869,6.9355955,13.9480905,18.3276957,4.8263542,33.2571692ZM750.9150545,479.2959863c1.9664281-4.2001732,3.9694749-8.3490801,5.936135-12.5675627,4.1852937,1.9847375,8.4037763,3.9841225,12.6259208,6.0054787-3.5410353,9.5135571-9.7991835,11.7289929-18.5620558,6.562084ZM724.7033371,415.4108757c-1.3583253,2.7720411-2.6804942,5.6136578-3.9328562,8.3672233-2.9331637-1.3766997-5.7235142-2.6473711-8.4772458-3.9876181,1.3255996-2.7537317,2.684156-5.5770391,4.0427125-8.3490801,2.7171129,1.3219377,5.5404203,2.6109185,8.3673895,3.9694749ZM737.4356843,431.7355245c-1.2889808,2.8416168-2.6475373,5.5953484-4.0427125,8.4552746-3.1125957-2.446134-4.683541-.267317-6.0787162,2.1458601-8.9752612-2.2154357,2.9331637-22.0445011,10.1214287-10.6011347ZM741.8665558,444.1968928c9.6197516,2.3252921,9.7625648,8.1366913,14.8782073,12.1061662-4.1489069,4.8628078-10.6560628,3.1272432-14.4131489,8.653016-6.8989768-4.5773466-6.1482919-11.7656116-.4650584-20.7591822ZM696.2029464,442.9994589c-2.0762844,5.309722-7.4043158-.3222452,0,0,1.8602336-5.2547939,7.2580713.3039358,0,0ZM712.9377255,451.0116464c8.9752612,2.1605076-3.0027394,22.0078823-10.1543856,10.5828253,1.999385-7.3129343,7.4006539-5.3280314,10.1543856-10.5828253ZM721.9496054,486.1436968c-7.2578407-22.6157539,21.5647952-15.8778998,0,0h0ZM744.872957,491.9184772c-3.0064012,7.7778273-9.3338937,6.4375802-12.0878568,14.7720129-8.1183819-2.1641695,3.6472297-26.999021,12.0878568-14.7720129ZM743.1191495,506.5293675c14.0906721,4.2549374,16.987217,12.567399,8.8322163,24.7103477-10.4400121-5.5440822-13.409563-13.841896-8.8322163-24.7103477ZM791.2542944,524.263839c-1.9334712,4.2221445-3.9328562,8.352742-5.9029461,12.589534-2.7866886-1.3402471-5.5768065-2.6292279-8.4003464-3.9879478,1.9664281-4.2183192,3.9328562-8.3672261,6.0054787-12.5527518,2.7537317,1.252362,5.5807009,2.6109185,8.2978139,3.9511656ZM807.524015,501.0585228c6.8660199,4.5224184,6.0457594,11.7802591.3954827,20.8104484-13.9480905-4.2551014-10.0518531-17.7015147-.3954827-20.8104484ZM839.3166674,531.6132267c-4.4713862-6.5803934-10.3010948-12.6041815-4.6505842-22.762229,11.6591833,3.9365181,11.0146929,12.3551739,4.6505842,22.762229ZM852.9754699,491.8489015c2.5740653,1.4134846,4.7565442,2.98443,2.2518201,6.2215295,5.2584557,1.9664281-.3185833,7.2942954,0,0-2.3948677-1.5013697-4.683541-3.0027394-2.2518201-6.2215295-5.1854526-1.9664281.3586296-7.367697,0,0ZM837.8152977,458.8773587c5.2911786,1.9664281-.2895223,7.3493877,0,0-5.2586897-1.9481187.2853924-7.367697,0,0ZM818.4657043,423.9210784c19.2763559,4.3100295-5.148366,12.9447361,0,0-5.3280314-1.9847375.2526695-7.3310783,0,0ZM816.0342178,407.347422c-18.7744447,4.1633879-17.2364562-28.6470331-34.1140485-36.7103195,11.0515456,47.1320222,53.6757968,83.23447,48.5271974,136.2145102-17.3792695-45.0410903-55.3234092-82.6632172-60.8640619-131.8678619-11.0149268,8.0817631-19.7777991,22.8682566-30.5034375,31.8070658-5.3280314-10.9050705-10.7659191-21.8138028-21.4219819-30.7341358,3.5044165-16.2184544,13.9480905-13.215715,18.0969974-27.4128131,9.8687592,4.6872029,19.7008996,9.3158157,29.35727,13.9480905,3.8998993-16.5736565-17.4854639-26.2849549-21.3487444-30.7377977,35.2602161-17.8772848,50.2079991,54.6094084,72.2708095,75.4932615ZM615.634323,157.6476737c36.7615858,37.9954665,76.0278956,75.2772108,97.9845116,118.6374993-38.336193-23.6044608-70.198187-79.6934347-97.9845116-118.6374993-7.547129-3.1821713-12.6957284-7.1150275-14.8049697-12.1574325,5.8297086-9.3341251,15.3762226,7.847403,14.8049697,12.1574325ZM592.1765651,131.1503299c5.2179473,1.9298093-.3590918,7.2761501,0,0-5.2953023-2.0213562.2853986-7.3860064,0,0ZM352.9715293,27.7315924c112.430842-23.1577118,190.6409918,59.1283321,252.3985518,140.5391872,37.5855082,49.5085805,105.8868427,100.181638,73.8454168,158.6140447-4.6139653-2.9842613.1061944-9.3522659,1.8236149-14.6253691-17.3060319,1.1095488-36.6883482-34.4546031-63.4017428-50.6730575,4.0390506-5.042405,12.1940513,1.5379884,18.7746736,3.8083523-28.3614683-23.6740365-59.2933455-46.3996467-84.6115648-71.1283038,66.7999649,13.5013414,89.6171221,72.8457243,129.0262451,107.6408819-3.6142729-54.8768926-70.1286113-90.0821805-110.8596721-134.9804575-53.4963648-59.1649508-88.0425149-113.1996116-187.7078282-135.5480485,7.0820706,18.5400845,55.5726492,10.1031194,48.5638162,38.4606968-34.1140485-16.559009-56.1805209-15.8083241-77.8515105-42.1079266ZM602.151291,424.0638917c14.7353941-40.3538874,38.0505666-56.4295285,56.4661473-86.3434038,3.0027394,19.7741372-21.4915576,93.4071651-56.4661473,86.3434038ZM625.360269,440.2091085c-3.431179-18.825711,9.2975064,16.914211,0,0h0ZM583.1278386,409.9217217c-2.7903505-1.3219377-5.5807009-2.684156-8.3344326-3.9877843,1.3255996-2.8233074,2.6109185-5.6319672,3.9694749-8.4223177,2.7537317,1.2889808,5.6173197,2.6473705,8.3710514,3.9511656-1.2889808,2.8269692-2.6473097,5.6319672-4.0060937,8.4589365ZM592.784209,368.1541821c5.5404203,2.6806617,11.1906969,5.2915802,16.8043547,7.9903838-2.6804942,5.5623916-5.3609883,11.15774-8.0451443,16.7713978-14.090676-4.3063677-16.9874486-12.6043488-8.7592104-24.7617816ZM576.1190056,370.530908c-5.5440822-2.6804942-11.1211212-5.309722-16.7384409-7.9755687,1.97009-4.1635544,4.0427125-8.3856989,5.9395649-12.5858721,11.5497883,4.0207412,17.3792695,10.08481,10.798876,20.5614408ZM504.3828301,315.8700662c5.221837,1.9333023-.3918209,7.2796433,0,0-19.3823163-4.2918892,5.1485994-12.9813549,0,0ZM581.4838833,326.797108c12.1940516,8.8324479,16.7347795-1.7174204,20.9896529,9.9419968-6.6865879,7.4738915-14.0542849,12.8165704-26.999021,2.6804942,2.0030469-4.2038351,4.0060937-8.4772458,6.0093681-12.6224909ZM560.6695454,327.1889288c-4.1855257-2.0030469-8.4040083-3.9877843-12.5858721-5.9542124-.3222452-15.2151,24.6004914-3.3432939,12.5858721,5.9542124ZM644.0614762,335.8602542c7.5473583,15.6288921-18.5950127,19.0088048-22.1690049,35.8680877-10.3704364-3.2883658-15.841281-8.3673895-18.9904955-14.1970981,16.8812542-20.1513105,22.9599704-14.4644152,41.1595004-21.6709896ZM555.7333349,283.597942c-4.5407278,6.8843292-11.8351873,6.1666013-20.8104484.3735115,1.7869961-14.5706096,12.8717252-2.9148543,20.8104484-.3735115ZM515.9690098,269.902521c-2.6475373.8934981,4.0060937-1.4684128,0,0h0ZM564.2471995,297.9559933c5.5770391-10.4068858,20.34539-2.4679359,23.0295461,5.8262161-7.2248838,5.4378877-19.8839935,3.8632805-23.0295461-5.8262161ZM608.1604316,313.7425156c-3.1821713,16.3429582-13.2340244,11.3188626-16.4491526,2.4314865,4.1818638-4.3429864,9.4403196-6.0239571,16.4491526-2.4314865ZM637.4847446,317.338479c4.1452451-16.9691392,30.250768,7.0967181,17.0204055,18.4155807-14.4827245-3.0576675-2.6475373-15.4128414-17.0204055-18.4155807ZM635.2290282,311.1499065c-12.7286853-4.7750879-8.4040083-15.6252303-21.2388881-20.3820088,7.115256-12.8385417,29.8223284,7.0782394,21.2388881,20.3820088ZM580.6231146,285.1871967c-13.4464133-10.0298818,28.3248488,21.0997368,0,0h0ZM538.3906842,254.8815005c-9.725946-4.6652316-19.5249036-9.3341251-29.3243131-13.9480905.8934981-15.8778998,41.0533059,3.2187901,29.3243131,13.9480905ZM492.2949733,232.9615033c-11.4067477-18.3093863,16.8080166.4797059,0,0h0ZM565.246892,241.8452175c10.0850373-19.7924466,12.1940513-1.0546206,29.1448811,3.5776541-10.0481912,19.7741372-12.1574325,1.0363113-29.1448811-3.5776541ZM501.8085304,191.1024123c-.0366188,8.1698202,21.063118,8.8143106,10.8354948,20.5982316-5.5807009-2.6109185-11.1943588-5.309722-16.7713978-7.9755687,1.9664281-4.1818638,4.0024318-8.4369652,5.935903-12.622663ZM478.9584163,195.7348591c-2.7207748-1.343909-5.5807009-2.6109185-8.3344326-3.9877843,2.3619108-9.9236874,9.8687592-5.1339519,16.6285846-2.4131771-2.3948677,3.0210487-6.1849107,2.1971264-8.294152,6.4009614ZM527.1963254,213.5059494c7.6899422-7.9757404,24.4247213,9.5318665,35.6190801,11.7473022-9.9786155,22.6011064-28.1451886-3.5593447-35.6190801-11.7473022ZM615.634323,265.7902329c-11.696036,4.236792-5.5074634,10.2788895-10.0152343,20.9898804-7.400426-6.5437747-13.5889987-16.3980564-.4650584-20.7958009-2.6804942-1.3219377-5.4706166-2.6621848-8.294152-3.9694749,3.9694749-5.1485994,12.1574325,1.4684128,18.7744447,3.7753955ZM555.0925064,252.450014c13.4793702,2.2154357,8.0453714,11.1394306,18.9868336,14.196928-4.9691674,8.8326181-14.947783,3.9696451-24.9959742-1.5746073,1.9664281-4.200003,3.9694749-8.4038381,6.0091406-12.6223207ZM484.6782686,162.3495241c4.5077709-6.8806674,11.6923741-6.1299825,20.704254-.4284396-2.0030469,4.236792-3.9694749,8.4040083-5.935903,12.6078434-9.6527084-2.3985296-9.725946-8.1550006-14.768351-12.1794038ZM472.0191589,156.3623548c-2.6109185.9813831,4.112513-1.4134846,0,0h0ZM453.0652822,142.2348324c-5.2547939-2.0176944.2856264-7.3823445,0,0,5.1852182,1.9334712-.3552021,7.2615026,0,0ZM432.038783,132.2598787c11.5495609,4.0207412,17.3426507,10.0663273,10.798876,20.4698939-10.798876-4.2184826-10.08481-12.6591097-10.798876-20.4698939-5.2547939-2.0213562.358864-7.3493877,0,0ZM511.9995348,180.5160972c8.2978139-18.825711,23.7108816,6.6353216,25.2122513,11.9999718-6.1885727,8.4918934-23.8536949-7.2944595-25.2122513-11.9999718ZM526.2332517,161.4926449c2.6438754-5.5953484,5.2914126-11.15774,7.9719068-16.7713978,30.8989203,9.9603061,29.8259903,31.2907412,50.8158707,44.7737732-22.0261917,5.2914126-34.1504405-22.674344-58.7877775-28.0023754ZM393.6330144,83.1248097c5.221837-12.6261528,23.0991217-4.7384692,25.0325929,1.5379884-2.0394423,4.1999986-4.0060937,8.4369652-6.0457594,12.6041815-13.515989-2.2007882-8.0085256-11.1211212-18.9868336-14.14217ZM496.1582538,116.4001144c11.6923741,6.203394-.4650584,21.6711636-12.1940513,14.7685249,2.5010622-9.5831328,8.1879575-9.6929891,12.1940513-14.7685249ZM456.6429363,113.038685c3.9328562-15.9694467,21.9199973-8.1183819,24.9593554,1.552636-7.1150275,7.10038-20.8104484,11.1760494-24.9593554-1.552636ZM442.0173986,111.2297176c-7.7961367-3.0210487-6.4375802-9.2608876-14.8049697-12.1757419,2.0030469-4.2184826,4.0390506-8.4040083,5.9725218-12.6224909,5.6136578,2.6804942,11.1906969,5.3463408,16.8043547,8.0121874-2.6072566,5.5587297-5.3280314,11.1905227-7.9719068,16.7860453ZM500.8417948,139.1769915c4.2187082-14.0358021,15.3066469-9.1546934,26.9624022-2.6620114-3.3249845,19.2578125-22.7768765,14.6255378-26.9624022,2.6620114ZM449.3484768,63.2408162c5.6502766,2.6804942,11.1906969,5.3280314,16.7713978,7.9755687-4.0060937,11.5861796-10.0152343,17.3243413-20.491641,10.8171854-1.5379885-5.2767651,0-11.5349134,3.7202432-18.7927541ZM470.7667969,94.0115708c2.0030469-4.236792,4.0060937-8.4186558,6.0457594-12.6041815,5.4710696,7.3493877,22.5644877,10.6011347,14.9807399,22.6194158-7.04179-3.3616033-14.0176661-6.653631-21.0264992-10.0152343ZM498.1942576,112.1781439c1.2889808-2.7866886,2.6109185-5.6319672,4.0060937-8.4552746,2.7903505,1.3585565,5.5807009,2.7354223,8.4040083,3.9877843-1.3219377,2.8233074-2.7171129,5.6649241-4.0058681,8.4918934-2.7539573-1.3219377-5.6138835-2.6292279-8.4042339-4.0244031ZM318.0335584,47.1834844c32.9019671,8.9421288,57.8247038,42.2873586,57.6818905,73.6841203,30.968496-.0877112,15.6655109,22.5133952,23.5312232,36.9778104,5.0790238,9.1363838,23.494828,14.2666738,29.6467819,24.3514838,3.0393582,5.0094481-2.2559401,13.7137303.3915972,20.8324197,13.1241681,34.6706539,48.3479903,61.6513655,39.2299157,90.6534334,18.415356-.2856264,9.048274,7.667971,23.278329,16.1818356-9.1180744,10.1910044.6444904,13.6771116-5.7930898,23.0112367,23.710881,9.7625648,21.6014139,23.38841,17.558927,49.4902711,12.2672891,4.9911387,27.1086518,17.2913844,33.4363757,5.5988432-2.5010622-1.4499363-4.683541-3.0062341-2.2154357-6.2067149-2.3985296-1.4466088-4.6505841-2.9845973-2.2188713-6.2398388-5.2916389-1.8931905.3220189-7.2578407,0,0,2.5044977,1.5013697,4.6505842,3.0393581,2.2188713,6.2398388,2.4683317,1.4501034,4.7201598,3.0247106,2.2154357,6.2067149,9.4769383,24.1026432-20.9532617,41.0717824,3.2190166,58.1654254,19.1660391-4.7386349-6.0420976-17.3280032,12.0143928-25.2303343-1.5709453,13.4097945,12.5529152,21.0814274,21.3487444,30.8073734-.4980153,17.9871411-15.482417-4.2735763-18.5583939,6.6353216-3.431179,37.0655216,27.8229434,60.6663205,43.2360127,82.2823819,13.7320401,1.4316308-.7875316-14.1604794,12.2306703-14.7866604,12.8346515.5199866,6.1480637,25.0692117,18.9499865,14.14217,11.337172,14.1458318-14.1238606,4.5626991-18.5950127,6.6353216-1.2157432,10.8171854,1.0033544,20.5101745-5.5770391,33.3816731,16.6981603,7.5654384,21.8836072-17.0570243,39.4420799-7.0784087,2.1458601-22.4070269,15.9511373-40.9837303-13.6954209-57.9162507-1.252362,2.8086599-2.6475373,5.5807009-3.9328562,8.4223177-8.9750327-8.4918934-19.9535692-16.2184544-11.0515456-31.0051147,14.1275225,4.2917201,5.7235142,16.559009,14.9844017,22.582797,3.3982221-20.8104484,7.6533235-19.2395031,20.1330012-31.6129864,5.1158719-15.6252303-.3918209-22.0078823-14.9844017-22.6157539,27.8595622-51.7826063,41.7710339-142.2566077,90.008943-178.46525,12.4103335,7.1880955,14.5925809,18.0237599,23.4250288,26.5339626-132.4940429,146.06496-60.9739182,302.9837242.0366188,422.0643107-14.0906723-35.5824613-28.0389942-71.3408529-35.3700724-109.427878-5.2547939-1.9847375.2892883-7.3493877,0,0,11.1943588,19.2761219,33.652652,34.5644594,21.956616,61.9186825,44.9532052,34.0626235,37.4429273,86.7022678,69.125257,125.4156342-1.7503773-36.5675063-34.1140485-62.2445896-29.0716435-101.2400795,15.482417-4.5041091,15.3762226,17.7016737,23.3886431,26.4975028,13.303367,1.6989527-.4286727-18.2544581,14.229822-18.9685242-7.6862804-21.6709896-60.8274431-27.2333812-57.2168321-52.925112,33.9016596,8.9752612,60.3660466,38.8708271,77.7086973,42.1079266,8.2245763,22.6706821,7.2248838,48.6150825,5.7235142,74.7572242-11.2675963-7.6350141-1.3951752-22.762229-11.0149268-31.0234241-15.3432657,26.4973438,4.0060937,40.4637437,19.810756,55.8216569-2.5742997,82.2858893,30.1811923,152.0374818,52.3172404,225.5972721-.0366188,68.5686516,2.9331637,136.1559201,24.8531609,197.0749102-8.473584,18.7378259-20.5980596,27.357885-34.9011168,29.7710621-42.6974899,33.4878675-90.6902875,52.3172404-142.1836055,61.0434939-10.5864871-5.5442259.6774473-18.8110635-2.6475373-26.9807116-14.6255378-1.7357298-20.2758144,21.3670538-30.5727823,31.8253752-3.7206982-25.4427232,23.5273304-61.8820638,27.3542238-89.9540148-30.7526768,35.2748636-35.8317006,87.0025417-77.0644385,97.1935461,97.0910136-113.1813022,68.5173853-244.8331134,34.905014-333.4287234-2.504724-1.4682611-4.7201598-3.020897-2.1824788-6.1701114-2.4314865-1.4832122-4.683541-2.9479632-2.2520545-6.1849107-5.2948442-1.9664281.3222452-7.3127689,0,0,2.4644434,1.3768658,4.683541,2.98443,2.2520545,6.1849107,2.3948677,1.4501034,4.6471528,3.0064012,2.1824788,6.1701114,26.9992522,27.6436631,28.4273844,64.3503208,47.5970806,94.7475639-7.4043158-55.5360305-32.7225352-104.6894089-61.2595446-152.6966197-11.0845025-11.5861796-9.6890973,12.0695474-20.8470672.4650584-21.0997368-43.8070376-103.7409827-75.599456-144.2596545-42.8622733-7.4738915-3.2151282-12.5858721-7.1516463-14.8415885-12.1757419-13.4427514,23.7985403-25.9590479,33.7588464-51.1012727,42.5912944-17.4490695-7.8475567-34.828339-15.5190358-44.2354784-26.1935622-52.1380316,13.4978337-84.8605668,81.8357871-148.4417416,63.3504781-2.7171129,6.7929349,9.2279307,8.3856991,2.4681053,16.5188809-18.5950127-3.2187901-36.1537142-3.3799127-58.6120074-17.5403921,15.9511373,34.54615,70.2714245,34.9196615,97.017776,66.7120799-49.7758975-.0878851-122.3726142-51.5665555-108.0327028-97.643957,79.4627365-25.0692117,149.5144484-76.5625297,239.7760609-71.3590021,12.5165206-15.2334094,10.798876-26.8049415,30.609632-31.7376461,14.768351,12.120814,15.5922734,29.2695409,25.7832778,43.0894656-.3552021-9.2608876,13.1974056-31.861994,36.941244-23.6007989-4.0392768,8.2978139-13.9812736-.1611226-16.3761413,12.8202323,27.7826627,12.5712246,40.335578-17.3426507,66.3715253-9.6197516,2.7171129-15.3066469,16.5919658.7873036,20.5614408-10.8538042,15.2700282,7.3127689,13.2303625,20.8652215,21.4183201,30.7889091,7.9755687-20.2756595-15.1601718-29.5182377-7.1882651-49.7610951,29.5037451,24.7286571,42.9501583,72.615026,78.53285,83.7361472-36.1209876-60.6150542-89.7235469-118.7436938-148.7639939-163.4808482-15.6655109-14.9844017,11.7985685-8.0085256,13.9810474-29.3755794,11.0149268,13.515989,26.0689042,25.6404645,25.7137021,43.2138135,15.3396038,6.8843292,25.0325929-1.8236149,35.2602161-9.0631462-54.1078983-94.7657215-150.1259819-181.1274347-233.8401578-255.2218591-109.4974537-62.0981145-236.5572708-98.9329378-317.0526566-47.7069369-3.9326417,8.3673895-7.9755687,16.7897072-11.9450436,25.1570968-11.7656116-3.5373734-18.6645884,6.5108178-31.2175036.626181,2.5745132-26.4424157-4.9689541-49.4206955.5712529-76.9726599,20.6712971,14.7317322,7.9755687,41.320623,24.0658573,57.7514662,3.4714596-21.0264992-1.0363113-39.2113817-3.2883658-58.1286396,13.7320397-7.3823445,28.6798227-10.9966174,45.5574149-9.2059594-1.6441829,5.2364845-6.3641277,11.5495609-1.786781,14.5339908,57.1799982-10.0115724,141.6851397-34.220243,195.7161386,10.6414153,50.7829138-.6811092,80.8908686,44.7005357,125.7012606,49.4902711,60.7212487,57.5755322,137.3203971,127.8434588,182.4493724,179.3404386,10.2642419-14.1604794,2.1458601-21.7442271-12.9813549-26.7866321C505.2763282,408.5446893,404.7175168,216.4024943,303.0491567,24.6006874c13.8052773.8422318,26.6440401,4.6505841,14.9844017,22.582797ZM594.1757223,440.8535989c-3.3945602-18.9172579,9.2645495,16.8080166,0,0h0ZM621.3907941,448.6863543c8.7628723,16.2512461-22.8501141,9.8870686,0,0h0ZM597.2150804,488.6484208c-3.2883658,6.9722143-6.6863601,13.962738-9.905378,21.0081898,4.2221445-14.3216019-20.9166429-18.2178394-9.1546931-35.2052879,3.2190176,5.8295438,8.7262535,10.9233799,19.0600711,14.1970981ZM284.8496267,463.6707561c2.7866886,1.3400819,5.5404203,2.6988035,8.3307708,4.0024318-1.3219377,2.7720411-2.6109185,5.5807009-3.9694749,8.4040083-2.8233074-1.3036283-5.5770391-2.6621848-8.3671696-3.9328562,1.2887609-2.8599261,2.6473173-5.6687511,4.0058738-8.473584ZM242.9723984,454.1388896c-14.1970981-12.7323472,18.9172579,3.0576675,0,0h0ZM406.9695713,542.3791458c-2.7866886-1.3585565-5.6134349-2.6475373-8.4040083-3.9877843,2.504724-3.2370995.2892883-4.756942-2.178817-6.2032201,2.178817-8.9606136,22.0261917,2.9295018,10.5828253,10.1910044Z"/>
    <path d="M112.9135039,598.1458745c1.9298093-5.3646502,3.3945602-10.5681778-4.5075553-12.4247495.1059789,4.6469222.0732375,9.3158157,4.5075553,12.4247495Z"/>
    <path d="M139.6268985,585.1132534c.9630737-2.6660088,1.7137586-5.2035276-2.1822625-6.1885726-2.5049404,3.2187901-.2528858,4.7384692,2.1822625,6.1885726Z"/>
    <path d="M154.252653,586.9368683c4.0388339,1.8053055,5.6500599-3.6325822,8.151122-6.4192708-4.1489069-1.8602336-5.756471,3.5739922-8.151122,6.4192708Z"/>
    <path d="M273.1904293,401.5726415c-12.2638467-8.2282382-16.877812,4.9142393-24.8167619,8.8324479,8.5834403,14.5523002,28.8592547,7.3640352,24.8167619-8.8324479Z"/>
    <path d="M311.1309198,429.9119096c-3.1089338-9.6014422-20.9898804-17.5222491-24.9227366-1.5930827,4.1818638,12.7325133,17.8809466,8.6714914,24.9227366,1.5930827Z"/>
    <path d="M130.9372638,776.5928151c-2.7537317,5.2914126-8.1183819,3.251747-10.1946663,10.6377534,7.2944595,11.4433664,19.2028843-8.4040083,10.1946663-10.6377534Z"/>
    <path d="M157.5041833,753.2044051c-5.0753619,3.0576675-25.6038458,11.516604-16.1269074,23.2272874,4.0427125-6.115335,25.4610326-11.9450436,16.1269074-23.2272874Z"/>
    <path d="M192.409415,733.8037794c-7.510728,7.9572593-20.3126508,1.5746072-26.6806554,12.9996643,12.589534,11.8167202,33.114356-3.8632805,26.6806554-12.9996643Z"/>
    <path d="M340.5650892,443.9112664c-3.0759769-9.6380609-21.0301611-17.5037733-24.999636-1.6258735,4.2221445,12.7285199,17.9541842,8.6713253,24.999636,1.6258735Z"/>
    <path d="M219.298362,720.8041151c-4.0022136,11.5678703-17.9139035-4.504109-20.6310165,10.7659191,8.5102027,6.1849107,29.1448811-1.5379884,20.6310165-10.7659191Z"/>
    <path d="M346.9660506,452.0111734c2.7866886,2.519537,3.251747,5.8994497.2490077,10.4584869,7.4372727,4.6688935,11.4802071-.3918209,18.7012071,3.7753955,11.4433664-13.5381257-12.6920666-26.5011715-18.9502148-14.2338824Z"/>
    <path d="M229.8116116,731.0134289c16.1305693,12.2672888,22.7109627-1.6075641,28.8262978-17.2694131-9.1217362-5.9725218-16.4161957-6.9760352-23.0332079-5.7601329-6.5437747,9.2645495,3.3982221,12.7506566-5.7930898,23.0295461Z"/>
    <path d="M266.1813765,676.1951264c4.0756694-1.5379884-2.5376809.8934981,0,0h0Z"/>
    <path d="M386.8036133,465.8312636c-2.8269692,5.2582908-8.1916194,3.2554089-10.2276232,10.6231059,14.6951134,5.5953484,26.4241063,19.7228709,46.3813373,32.308743,13.6954209-30.0749979-30.7925031-18.7012071-36.1537142-42.931849Z"/>
    <path d="M443.0170911,369.011229c1.8968524-4.1305975-3.5739922-5.6868954-6.4375802-8.1183819-1.7869961,4.1121205,3.6472297,5.7052048,6.4375802,8.1183819Z"/>
    <path d="M446.2358812,427.1764873c4.0429367-1.4501034-2.5376809.9484262,0,0h0Z"/>
    <path d="M456.2476779,406.2010878c.3220208-7.3126023-5.3282558-1.9296427,0,0h0Z"/>
    <path d="M348.7530467,643.3847062c-5.221837-1.6808017-7.2578407,5.8992843-10.1910044,10.531559,5.221837,1.6808017,7.1516463-5.9542124,10.1910044-10.531559Z"/>
    <path d="M456.2476779,406.2010878c-.3188077,7.3312449,5.2582314,2.0032135,0,0h0Z"/>
    <path d="M462.6154581,414.4075213c-1.7538147,4.1489069,3.5739922,5.668586,6.4009614,8.1916194,1.8236149-4.1855257-3.4714596-5.7235142-6.4009614-8.1916194Z"/>
    <path d="M227.5961758,930.6479913c18.8440204,15.8778998,80.997063-13.1058587,76.3830977-30.6462508-24.2086705,13.8931623-52.207384,16.7164697-76.3830977,30.6462508Z"/>
    <path d="M469.0164196,422.5991408c-2.4314865,3.2004807-.179432,4.683541,2.2520545,6.2398388,2.4681053-3.2920277.2492324-4.7933973-2.2520545-6.2398388Z"/>
    <path d="M471.2684741,428.8389796c-2.4681053,3.1455526-.2856264,4.683541,2.1092413,6.0970256,2.5376809-3.1309051.358864-4.7201598-2.1092413-6.0970256Z"/>
    <path d="M450.3481693,526.9296857c1.3221619-2.8269692,2.6475373-5.5770391,3.9694749-8.4223177-2.4681053-1.3951752-4.6469222-2.9478112-2.1824788-6.1850746-2.7866886-1.3071262-5.5770391-2.6290639-8.4040083-3.9510016-1.5013697,2.4496319-2.9661206,4.6467583-6.1849107,2.1458601-1.3951752,2.8233074-2.6804942,5.5953484-4.0060937,8.4186558,2.4314865,1.4684128,4.6872029,3.0247106,2.2520545,6.2251913,2.7537317,1.3402471,5.6173197,2.6621848,8.4040083,4.0024318,1.4320181-2.4314865,2.896769-4.7018504,6.1519538-2.2337451Z"/>
    <path d="M473.3777154,434.9360052c.7873036,7.9389499.0366188,16.3794115,10.8354948,20.6346783-.6774473-7.8876836.1061944-16.3246488-10.8354948-20.6346783Z"/>
    <path d="M486.1796383,549.0474243c-8.4040083-4.0060937.0732375-13.962738-12.8714986-16.3246488-2.6475373,5.5953484-5.2584557,11.1943588-7.9755687,16.7530884,9.0484987,5.7235142,16.2697206,6.4925084,20.8470672-.4284396Z"/>
    <path d="M396.1340765,727.6371781c4.5773466,3.0393581,7.905993,2.5926091,10.3704364-.2343601-2.7537317-1.3036283-5.5770391-2.6621848-8.3307708-3.9694749-.6444904,1.4134846-1.3949524,2.8269692-2.0396656,4.2038351Z"/>
    <path d="M444.4122663,647.6581169c-.2854024,7.3127689,5.2914126,1.9664281,0,0h0Z"/>
    <path d="M560.383919,620.3551601c-15.5920468-23.5861514-32.0780448-29.7344433-57.2168321-52.9104645-2.7171129,5.5990103-5.3646502,11.2308153-7.9389499,16.8629448,36.1170954,4.504109,34.5791069,51.8521819,65.155782,36.0475197Z"/>
    <path d="M579.3377957,634.5522582c-5.6170924-2.684156-11.2639344-5.2950745-16.7018222-7.9572593-8.294152,12.1757419-5.3280314,20.4552464,8.6896347,24.673729,2.684156-5.5442427,5.3280314-11.1211212,8.0121874-16.7164697Z"/>
    <path d="M590.6019579,675.9095c6.3641149-10.3887458,7.0086053-18.7744447-4.6505842-22.8171572-6.3645703,10.4619833-7.0456795,18.8476822,4.6505842,22.8171572Z"/>
    <path d="M602.7227719,661.10437c10.4068271,6.419431,18.8840729,7.0968783,22.7803103-4.6139655-5.7930898-2.5411825-8.2611951-6.3495349-10.54964-10.1578872-4.1125165,5.0240956-9.7994119,5.1705707-12.2306703,14.7718527Z"/>
    <path d="M636.9098299,600.130612c-6.6131216-2.1641695-8.653016,8.3344326-12.1940513,14.8232791,11.15774,16.28803,29.0753054-12.3368645,12.1940513-14.8232791Z"/>
    <path d="M674.4955679,607.6594317c-7.5473589-8.9056855-8.6532458-20.0963824-23.3886399-26.5339626-13.7649966,16.8959017,9.6565999,50.9402136,23.3886399,26.5339626Z"/>
    <path d="M626.3965803,698.0785049c-8.3671611-2.8599261-7.0454518-9.1180744-14.8745454-12.1940513-2.647309,5.5990103-5.3646502,11.2309775-7.9755687,16.7530884,10.4766308,6.4925084,18.8440204,7.10038,22.8501141-4.5590372Z"/>
    <path d="M648.1408074,641.5061631c-12.8751604-10.0298818-23.9960531,8.2428857-12.1940513,14.768351,6.4009614-7.4374332,16.5553471-2.1971264,12.1940513-14.768351Z"/>
    <path d="M781.9201692,370.6371025c.3918209-7.4006539-5.2582233-2.0726225,0,0h0Z"/>
    <path d="M650.0342272,735.0010549c-8.4042376-3.987626.1098563-13.9259609-12.9083466-16.3940662-2.7171129,5.2914126-8.0817631,3.2883658-10.08481,10.6560628,2.5742997,8.2245763,17.452507,16.2331019,22.9931566,5.7380033Z"/>
    <path d="M579.5172277,850.8483621c-.358864,7.2431932,5.3280314,1.8968524,0,0h0Z"/>
    <path d="M625.4335066,754.2407163c-5.4745065,10.0481912-10.2642419,19.9023029-7.8327555,27.1967624,4.2184826,1.9664281,8.4406271,4.0060937,12.5529152,5.9725218,9.187879-14.8965167,8.4040083-26.2483362-4.7201598-33.1692842Z"/>
    <path d="M693.8776544,642.6669782c-10.4436739-6.5071559-16.559009-.7508455-20.6346783,10.8206869,11.4799852,5.0572129,24.7835853,0,20.6346783-10.8206869Z"/>
    <path d="M658.5478626,749.4143621c-5.1522613-1.7174204-11.5529936-6.4009614-14.555733-1.8053055,6.4373511,3.5373734-1.823844,12.2636269,8.6161681,14.4277964,1.9334712-4.236792,3.9694749-8.4406271,5.9395649-12.6224909Z"/>
    <path d="M690.3000003,671.8850968c-1.2853189,2.7720411-2.6804942,5.5257728-3.9694749,8.3307708,2.3985296,1.4501034,4.6139653,3.0247106,2.1458601,6.2068819,2.8271995,1.3219377,5.6502766,2.6804942,8.4772458,4.0207412,1.3219377-2.5376809,3.0027394-4.6652316,6.1519538-2.2703639,1.3219377-2.7538913,2.6438754-5.5404203,4.0390506-8.294152-2.504724-1.4684128-4.7201598-3.0576675-2.2520545-6.2435007-2.8269692-1.2853189-5.5807009-2.625566-8.4040083-3.9841225-1.4684128,2.4314865-3.0027394,4.683541-6.1885726,2.2337451Z"/>
    <path d="M673.8508477,782.3857478c6.4375802-10.5130925.681339-16.5588518-10.8354948-20.6163695-3.8264322,7.1701133-5.327802,13.5161466-3.7898135,18.8112211,5.6866659,2.9661206,10.157818,2.4131771,14.6253083,1.8051484Z"/>
    <path d="M711.938033,712.9750215c5.1119806-11.4104095-.0366188-24.6773908-10.8354948-20.5797502-6.474199,10.4766308-.6808786,16.5553471,10.8354948,20.5797502Z"/>
    <path d="M676.6778169,819.7735155c-2.4314865-1.486566-4.7201598-3.0393582-2.2886733-6.2251915-4.1855257-1.9662717-8.3673895-3.9839661-12.5529152-6.0054789-6.5437747,10.4767873-.7506848,16.5921223,10.798876,20.5615973,1.3255996-2.7354223,2.6475373-5.5257728,4.0427125-8.3309269Z"/>
    <path d="M676.6778169,819.7735155c5.5404203,2.6110747,11.0845025,5.25495,16.7347791,7.9207967,4.504109-10.8538042,1.6075641-19.1149993-8.8690667-24.7103477-3.7534242,2.3069827-7.6167047,4.7018504-10.1543856,10.5643595,3.9694749.9302732,3.2190201,3.5411916,2.2886733,6.2251915Z"/>
    <path d="M710.2901882,737.9893051c12.0512381,10.8170274,16.559009.7323755,20.5982909-10.8538042-10.4402434-6.4925084-16.5921972-.7506848-20.5982909,10.8538042Z"/>
    <path d="M727.5632633,766.7753222c8.1183819-3.0210487,12.9447361-12.9813549,3.790043-18.8440204-8.11472,3.0393581-13.0143118,13.0324635-3.790043,18.8440204Z"/>
    <path d="M701.9962668,842.0854898c-8.6202896,2.7390842-17.3099244,20.9569235-14.0178967,29.3975506,18.4155807,8.2611951,27.5702739-21.3853632,14.0178967-29.3975506Z"/>
    <path d="M751.9184089,737.1104545c2.4644434-3.2004807.2123889-4.7201598-2.2886733-6.2032201-2.3985296,3.3066752-.179432,4.7384692,2.2886733,6.2032201Z"/>
    <path d="M751.9184089,737.1104545c-.2892883,7.3493877,5.2547939,2.0213562,0,0h0Z"/>
    <path d="M782.5280409,813.4605953c-1.1461676-18.2544581-5.5770391-53.6757968-25.9993285-53.5146742,11.7289929,16.7164697,9.8358023,38.2995742,25.9993285,53.5146742Z"/>
    <path d="M695.0567789,910.8885016c2.5413428-3.2004807.3222452-4.7531167-2.2152054-6.1299825-2.4317168,3.1638619-.2528999,4.6652316,2.2152054,6.1299825Z"/>
    <path d="M703.8892268,935.6353149c14.1275225-4.9323954,1.2157432-18.0931823-8.8324479-24.7468132,2.0396656,8.5468215-5.221837,20.4918651,8.8324479,24.7468132Z"/>
    <path d="M728.0649404,895.6734016c-8.3673895-4.0207412.1061944-13.962738-12.8385417-16.3612676-9.6563703,3.0942863-11.2273157,15.6838203-5.756471,22.9782798,4.1818638-7.726561,15.2334094,3.7021579,18.5950127-6.6170122Z"/>
    <path d="M724.3115163,914.4661557c-8.2282382,17.9688317-2.7207748,31.1845467,17.379501,39.1564535,5.3607567-17.0570243-6.8662514-27.8559003-17.379501-39.1564535Z"/>
    <path d="M837.5990129,968.3213845c12.5529152-75.5957941-31.5397488-90.1334468-55.0709721-154.8607892,16.2367638,52.3904779,31.861994,104.9933447,55.0709721,154.8607892Z"/>
    <path d="M733.715217,970.4123164c14.4827245,10.978308,25.6770833-12.4796777,7.9758002-16.7897072-10.9785396,4.9726766-2.1827104,5.489154-7.9758002,16.7897072Z"/>
    <path d="M748.7325757,992.9951135c4.5773466,3.0393581,1.3622183,8.7811817-1.8236149,14.5742715,25.5708889,15.1453733,16.9874486-35.0441653,1.8236149-14.5742715Z"/>
    <path d="M768.1515108,1027.9330844c-4.0756694,5.042405-9.8321404,5.1705707-12.1940513,14.8232791,10.9416892,3.0393581,5.4710767,11.9816624,19.0234523,14.1603292,7.547129-13.211903,4.5773466-22.5826468-6.8294011-28.9836083Z"/>
    <path d="M757.6748799,1125.8297109c5.1119806-14.5925809-3.9694749-24.1574043-9.1180744-35.0990935-5.1156425,14.5523002,3.9328562,24.1574043,9.1180744,35.0990935Z"/>
    <path d="M774.0544569,1113.0460974c4.1122882,1.9664281,8.294152,4.0390506,12.5126346,6.0420975,2.5413428-11.4067477,6.6902497-23.3517913-6.755931-28.9837585-1.5013697,15.4494601-6.5440072,10.4949402-5.7567036,22.941661Z"/>
    <path d="M826.6939425,1045.4405195c4.1818638,2.0030469,8.4003464,3.9877843,12.6227249,5.9871693,1.8929565-4.1818638,3.8960034-8.3307708,5.9722878-12.5492534-8.7628723-5.1339519-14.9844017-2.9148543-18.5950127,6.562084Z"/>
    <path d="M783.6375897,1179.3993133c-11.6594172,4.2734108-5.5440822,10.3702896-9.9783831,21.0263526,19.0598387,10.6379,20.4916327-14.1090665,9.9783831-21.0263526Z"/>
    <path d="M839.8876862,1082.6122355c10.0850443,13.6258453,12.3002457-22.6889915,3.8266617-18.7561353-6.115335,2.8416168-5.1485994,16.9874486-3.8266617,18.7561353Z"/>
    <path d="M766.2912771,1248.3817571c5.7235142,2.8965449,10.1214287,2.4131771,14.6291996,1.7686867,4.683541-7.5105103-.3954827-11.4982946,3.7534242-18.7561353-12.0146193-6.8294011-21.9199973,7.9023311-18.3826238,16.9874486Z"/>
    <path d="M851.1516207,1123.9877867c2.0030469-4.2038351,4.0427125-8.3673895,5.9725218-12.6078434-4.2184826-1.9847375-8.4040083-3.9694749-12.5858721-5.9688599-1.3951752,2.8233074-2.684156,5.5953484-3.9694749,8.4186558,5.2914126,2.7354223,3.2519812,8.1183819,10.5828253,10.1580475Z"/>
    <path d="M821.6149187,1207.7935096c3.6472297-7.1369988,1.9298093-12.3405264-2.4314865-16.646894-2.7534982,6.7744729-7.4040825,14.3032926,2.4314865,16.646894Z"/>
    <path d="M860.7713722,1190.3410025c11.7289929-4.2917201,5.5440822-10.3338176,10.0152343-20.9898804-2.7903505-1.3255996-5.617085-2.684156-8.3710514-3.9877843-9.7955217,3.0906244-8.3307708,17.7344716-1.6441829,24.9776648Z"/>
    <path d="M891.1688507,1256.2840882c11.5493255-36.6370819-2.2522899-64.3173589-6.0420976-95.5897915-2.6477725,17.7199716-13.2342596,85.5599097,6.0420976,95.5897915Z"/>
  </g>
</svg>