<?xml version="1.0" encoding="UTF-8"?>
<svg id="Brussels_sprout" xmlns="http://www.w3.org/2000/svg" version="1.1" viewBox="0 0 1000 1313.4445567">
  <!-- Generator: Adobe Illustrator 30.0.0, SVG Export Plug-In . SVG Version: 2.1.1 Build 123)  -->
  <g id="outline">
    <path d="M995.3738841,518.7581729c12.4121748-83.2945913-.8906069-224.4616101-31.0653949-285.8499902-34.3718613-69.7863318-142.2819259-175.0213806-238.8602731-216.5126653-63.7285434-27.4769412-136.4143946-13.6528549-201.7030468-6.7236886-139.9037112,14.9580191-283.6772533,72.2939214-341.6446266,212.1441761C-25.8088759,347.3783147-39.5949108,728.8972229,60.0315361,857.2637389c26.270531,33.8695823,51.354037,67.8342932,70.8249563,92.9368249,8.6947529,11.0729676,88.9223985,135.5392116,120.1359907,187.1902295,23.7821469,39.5734924,77.7390818,126.6770324,115.4556642,148.5451921,108.8423248,62.8761912,194.9032554-3.1202177,301.2912626,6.9137883,20.9587304-78.9109085,79.15079-133.7011698,108.8387174-195.2189248,10.3307668-21.2937459,12.2637797-44.0521463,22.0011419-64.2308223,18.3179608-38.2188613,49.2347518-66.6813347,71.0838858-106.1825294,52.6555758-94.926915,82.3090591-225.7287229,97.5829051-304.9708363,7.3933938-38.1429338,23.4094461-71.8677453,28.1278241-103.4884878ZM940.1572434,637.0372536c12.5229295-15.4602981-2.3782147,19.7144485,0,0h0ZM920.0166189,696.7171243c11.4801179,9.3454324-8.6603054,13.2457045-9.4025096,22.2562843-9.8857628-5.5745352,5.7609873-20.6619292,9.4025096-22.2562843ZM903.0723148,736.7738699c-2.492369,5.8521394-4.9809328,11.853022-7.5453987,17.8002903-2.8997202-1.2821623-5.9095887-2.5835214-8.8433543-3.8278033,2.4887645-5.8903621,4.9809328-11.7807243,7.5075481-17.7624099,2.8959151,1.2442819,5.9436342,2.5264438,8.8812049,3.7899229ZM950.8192555,499.9189075c-15.0835888-25.7341855,17.8765642-71.0496395,23.6717977-105.3682287-.8523521,31.289695,10.7761664,83.3706941-23.6717977,105.3682287ZM930.0127308,512.1067821c1.9294095-4.4976796,3.7899229-8.9192564,5.646833-13.3788846,15.6809964-.9474807,4.5699773,25.3803072-5.646833,13.3788846ZM947.9237434,420.0793865c3.0441149,11.111019-7.3212982,38.7590132-12.4125803,41.9172824-11.4076187-13.7478051,4.5319259-27.66702,12.4125803-41.9172824ZM922.9503845,503.9143081c-11.7807243-12.5988301-6.9862435-14.6802436,2.4543176-30.4715892,11.0729676,5.2929546,2.5266153,18.6526358-2.4543176,30.4715892ZM915.4466415,521.6919386c-1.9330129,4.4594514-3.7176252,8.9192564-5.6504369,13.3218074-5.1637809-4.0867241-3.679775-10.7761664-9.5853577-14.5470636,2.9718171-4.8667785,9.7335571-.2777755,15.2357946,1.2252562ZM910.130856,472.2174628c12.5607787-15.3118975-2.2678655,19.8209925,0,0h0ZM864.0543734,531.4673522c2.0053106-4.5168821,3.7899229-8.9002307,5.646833-13.3979103,15.829397-1.0768556,4.6841317,25.4183586-5.646833,13.3979103ZM859.7811972,566.3414924c-3.234372-2.305917-2.492369-6.2822919-6.9519972-8.2305254,1.1910099-2.9375708,2.5304204-5.9093879,3.7556766-8.9192564,10.4034624,1.9710643,5.7952336,9.9770863,3.1963205,17.1497818ZM888.09527,499.6563525c-4.6460802-4.3074224-6.7274937-9.6802851-3.2686183-17.1459766,4.6422751,4.2541504,6.76174,9.5661308,3.2686183,17.1459766ZM904.3356225,448.7853891c-20.5896315,30.36124,9.8819577-14.4709607,0,0h0ZM957.063496,324.2848988c12.5988301-15.4412723-2.2678655,19.7106433,0,0h0ZM962.7483804,310.9440657c1.6362117,4.0676984-1.114907-2.6940416,0,0h0ZM941.3063968,349.0677984c1.0045579,21.6474614-9.1399547,47.9181721-21.2174802,74.8966396-11.5562208-10.0912406,9.9238143-33.5004834-2.7473136-43.0856399,6.4268874-14.5128173,19.8400182-11.6515302,23.9647938-31.8109997ZM849.5988329,540.9992367c-9.0298052,10.4032623-18.173565-12.0965512-5.1675845-12.6368816,4.349279,3.1049971-.7800544,10.1102663,5.1675845,12.6368816ZM826.7829927,557.6809858c9.4748073,4.6841317,4.7944808,15.2167689-.5213047,25.958689-16.9823555-1.7655866-1.114907-16.7768777.5213047-25.958689ZM883.9704945,434.9613027c9.9202099-14.5090122-20.6238778,30.3041629,0,0h0ZM853.7957065,506.1441222c12.6368816-15.4602981-2.2640604,19.7106433,0,0h0ZM847.3307677,335.5443184c3.420824-6.8378429,5.9474393-15.7380735,14.5660893-9.5509102-4.3833255,4.2922019-9.0296055,8.0250476-14.5660893,9.5509102-1.7085094,5.4984324-7.5417944-.0570772,0,0ZM798.206365,414.4323739c12.6711279-15.422067-2.1917627,19.7146281,0,0h0ZM817.4908323,307.0780399c5.2396826-13.4131308,22.5570901-17.0358102,27.8346247-3.8660258-4.7183779,15.0531477-21.9975346,18.56149-27.8346247,3.8660258ZM761.4562891,414.5429027c-13.4892337-1.8949615-5.2016312-12.6140507-14.0485898-16.4039736.6699024-1.5448883,1.3394105-2.9756222,1.8949615-4.4406025-11.1833168-5.3157855-20.1025731-11.5219745-22.9259896-20.178676,5.3500318-17.9678876,36.4913262,6.9672178,22.9259896,20.178676,8.3639028-3.6985995,23.5233971,2.8424422,26.7197177,11.2784453-3.7518715,5.9055827-10.5172191,4.3835253-14.5660893,9.5661308ZM745.6611384,439.3866846c1.3013591-3.0479199,2.5646667-5.9285927,3.8660258-8.9002307,3.4550703,2.3782147,4.9430787-.0190257,6.2784868-2.5646667,9.4025096,1.8759357-2.0433621,22.9638623-10.1445126,11.4648974ZM748.857459,419.6912618c-3.8279744,5.8901828-10.5136115,4.4215768-14.6041408,9.6041822-4.3835253-8.0630991-18.2799094-12.2982238-10.2548617-25.3422557-22.9259896-3.9383235,13.7137372-18.7823687,0,0,11.2974711,4.0334521,21.7007334,8.378926,24.8590025,15.7380735ZM716.4909083,421.7346239c18.4701666,10.0684097-15.6429449,23.7821469,0,0h0ZM741.9473184,448.3211616c-8.5844037,12.1346026-17.7624099,22.6482141-33.4812616,17.1878332-5.5366799-18.1162882,14.7523453-30.7493646,33.4812616-17.1878332ZM810.321942,262.0974385c-7.0242949,13.2457045-28.9493338,17.0736789-36.8640325.1672429,2.1915649-15.8139929,12.7812793-10.7950087,18.393866-18.5080345,7.5417944,5.5212632,7.0244933,14.345391,18.4701666,18.3407917ZM802.5556441,243.0907467c10.5138102-19.5089707,21.3658808-10.8332436,36.7881274-.186452-10.4449198,19.489945-21.3316345,10.9055413-36.7881274.186452ZM821.7297622,272.2229254c14.900942,10.5174166-4.1247756,19.8057719-11.2251733,26.6055634-2.5608616-5.1103077-8.0973454-8.9535027-16.015849-11.9825797,6.9862435-9.9959291,17.579763-11.2059648,27.2410223-14.6229836ZM828.0843518,269.6202072c6.1300862-12.2261097,15.7152427-15.6239192,29.7638325-8.432198-7.3591475,18.8202398-18.9876661,20.5858264-29.7638325,8.432198ZM850.0818864,242.2726409c-3.8279744-7.0433206-14.4937916-11.2974711-18.3940637-18.321766,10.5897144-3.9915955,21.849134-6.6323651,36.7881274-.1484006-3.976375,11.2974711-12.8575799,10.8332436-18.3940637,18.4701666ZM846.0294086,177.577591c9.996112,6.3165382,13.0822833-3.9954007,24.1552511,4.9961534-1.5220574,24.2311538-36.0082731,13.6376343-24.1552511-4.9961534ZM841.0522809,201.732642c-2.8234165,8.1544225-9.4748073,7.0965926-11.9291249,15.9016947-35.8596724-10.4983909-2.4885639-41.8794094,11.9291249-15.9016947ZM811.9543485,220.8877344c-3.3447211,18.4130894-26.6055634,7.2448089-30.3954863-2.3972404,6.8758943-9.5318845,24.9693517-11.2061476,30.3954863,2.3972404ZM759.1161258,172.2808313c15.4564929,9.6612594,30.9890887,19.3984363,26.1946079,37.309432-18.2454655,3.7328458-37.4197812-17.5949836-26.1946079-37.309432ZM759.8961803,219.8451251c15.0112911,2.545641,9.8819577,13.230484,24.8970539,15.8141764-4.0144264,11.2746402-12.8954336,10.7571407-18.2837145,18.3940637-8.8089072-8.7518301-18.6185672-17.0394326-6.6133394-34.2082401ZM797.7611633,304.0301199c-16.6855543,20.0112497-48.6792008-19.2121695-45.8177329-40.3915983,21.4039322,17.3895058,25.9358581,29.2273072,45.8177329,40.3915983ZM758.6328726,334.6501097c11.7428705-14.8058134,25.6010055-4.5319259,32.9943993,8.6757272-14.6764385,16.0919519-18.801214,1.7465609-32.9943993-8.6757272ZM778.5109423,374.5051827c-2.598913,5.7950531-14.8248391.4832532-13.4131308-5.6316124-14.0105384-5.3880832-18.9534198-14.3796373-27.3513715-22.0546117,10.4793652-15.0303168,25.7912627,11.29729,27.3513715,22.0546117,7.0242949.9665064,9.6993108-2.1537112,13.4131308,5.6316124ZM762.3088387,325.7308533c-7.465889-3.1202177-14.7869851-6.2594611-22.2184304-9.3987045,2.9718171-4.851558,2.3401633-8.3066283-.6697053-10.7228944,6.6894423-13.7479835,31.1755407,6.0007113,22.8881356,20.1215988ZM785.424888,382.7166824c3.2686183,2.3780343,2.5266153,6.3545896,6.9862435,8.2305254-6.7274937,9.5128588-22.1495427-6.2442405-6.9862435-8.2305254ZM784.0854775,361.1833753c6.6513908-4.90483,12.5607787-11.2784453,23.3749965-5.7990387-5.3538369,11.8187757-19.1741181,17.0392519-23.3749965,5.7990387ZM794.0437363,312.9491941c8.1770551-3.6984173,23.5612503,2.7513009,26.6053651,11.2596018-8.3599003,22.1115076-34.4820124,9.2731347-26.6053651-11.2596018ZM876.0177445,206.0058182c18.4701666,10.0113326-15.6809964,23.8354189,0,0h0ZM891.0328408,170.4619727c-6.616944,4.8287271-10.8142178,15.7342684-23.4510994,5.7571821,3.6415223-12.2221209,12.3743267-12.0204483,23.4510994-5.7571821ZM849.6368843,131.8702073c5.5705304,5.1483592,8.397752,11.3545482,14.0826364,16.4610508-7.397199,9.6270131-23.4853457-7.1688904-14.0826364-16.4610508ZM839.0431651,169.4003377c-12.039474,5.1864106-16.9062526-5.4986183-26.7159125-11.2746402,5.1293334-20.8293555,43.7363194-13.0250062,26.7159125,11.2746402ZM802.1066371,132.7263646c2.3439684-6.1871633,6.1683362-8.8621792,10.0722149-11.3887945,6.4268874,4.0106213-1.114907,10.9968647-5.6848844,13.302595-1.4878111-.5972208-2.9754237-1.209849-4.3873305-1.9138005-1.85691,5.5745352-7.690195.0190257,0,0ZM797.091458,156.8622037c13.5995829,5.5709162,13.4131308,16.700961,21.0690796,24.6917623-12.8195285,17.446583-32.4007969.1103492-41.9517071-12.541753,6.9862435-4.0524778,15.7532941-3.660548,20.8826275-12.1500093ZM778.5870451,138.559463c6.6894423,27.3858044-29.9883359,8.3981383,0,0h0ZM793.6363877,102.958727c-7.397199,18.7669678-18.9153684,20.5323674-29.7293887,8.4169774,8.9190589-5.1826055,16.5369562-13.6186086,29.7293887-8.4169774ZM743.024174,123.4530429c30.5438869-7.8574344,7.3591475,30.5288533,0,0h0ZM773.3093111,89.1574715c-9.7716085,3.0821662-14.4557402,18.7441369-29.7638325,8.3218488,6.2784868-12.728205,22.6672398-24.9693517,29.7638325-8.3218488ZM610.1030947,40.9767444c2.9754286,1.3013591,5.9091942,2.5266153,8.8810113,3.8279744-2.5264215,5.8903621-5.0151791,11.8187757-7.5417944,17.7433842-3.0098685-1.1681791-5.8713364-2.5075896-8.9192564-3.7138201,2.5646667-5.9816856,5.0532306-11.8910734,7.5800395-17.8575385ZM599.4751353,78.4536028c17.5036601,4.2541504-4.2731762,43.2720919-17.686307,29.2461456,5.091282-11.6892135,9.1399547-26.0878765,17.686307-29.2461456ZM631.841686,76.4482922c6.8760886,7.3551544,3.7558709,24.6002527-6.9101406,28.557602-9.5128588-4.7221831,6.1681376-19.623125,6.9101406-28.557602ZM613.0024205,120.8885631c18.5424643,5.4641861-4.7944808,35.0073202-13.1163297,31.1603201-8.3979517-6.7997914,7.3553424-29.1512044,13.1163297-31.1603201ZM600.5557961,162.806024c5.7571821,15.1064197-13.0820834,46.2246985-30.2851371,34.3907019,6.0539833-21.2363208,16.3507016-32.3092884,30.2851371-34.3907019ZM575.3621337,209.8870645c19.2081717,14.3796373-13.2306767,41.6929574-23.3028915,42.6023867-6.3888359-13.5615314,12.5265324-41.3771304,23.3028915-42.6023867ZM563.5431652,262.5806918c-8.5463523,21.662682-20.0300835,35.4296912-34.0370086,43.2720919-1.7083179,6.76174,12.6330764,7.1725133,9.5509102,14.585115,17.7966562,4.5509516,4.7183779-22.724317,27.1991658-14.7335156-5.6125867,19.543217-15.1977432,29.0941272-25.8253171,36.247797-14.9772367-9.8667371-14.5662812-25.9739096-26.1986049-37.3246526,12.1878746-11.4458717,17.0927046-57.3587332,49.3108547-42.0468357ZM601.2977991,210.3703177c14.2692881,10.235836,2.3782147,31.1412944-8.6947529,33.0552816-14.7525414-10.2586669,6.5031836-13.9915127,8.6947529-33.0552816ZM603.4895617,279.5972935c-11.1490705,12.1536283.0761029-14.1551338,3.1582691-19.767904,11.2594196-12.2257426-.0380514,14.1020453-3.1582691,19.767904ZM624.2237887,230.5678352c12.5988301-15.3840109-2.2640604,19.8247982,0,0h0ZM589.6314222,299.8863187c9.177813,6.1338913-6.4306927,25.1405831-11.1871222,26.6245891-9.1781989-5.9246084,6.4306927-24.9693517,11.1871222-26.6245891ZM566.4046331,342.5648082c10.0341634,5.4641861-5.6848844,20.5515801-9.4025096,22.1649609-8.8812049-12.2601724-.6316538-16.8874082,9.4025096-22.1649609ZM624.6727956,167.8210173c3.9725698,8.1393878,2.8234165,21.3127946-5.0187904,24.1362111-11.1490707-5.2929546-3.4933156-21.0690796,5.0187904-24.1362111ZM588.8131232,252.3220249c4.5319259,11.6894008-10.182564,53.085557-30.2851371,34.3756664,12.8575799-4.5547568,14.1551338-37.9412697,30.2851371-34.3756664ZM579.4106136,138.2438227c10.7761664,5.2587083-5.0151791,15.5896729-7.4694967,17.6710864-10.8142178-5.2587083,5.0532306-15.5706472,7.4694967-17.6710864ZM580.5978184,122.9699766c12.7852822-12.0014226,3.7937281,22.0546117,0,0h0ZM563.7296173,163.0305274c16.6094514,12.6901536-12.4846758,56.4454987-32.21815,38.8657357,6.0577885-24.4670727,18.4323072-33.4966783,32.21815-38.8657357ZM510.9979386,287.5688863c-13.4854286-1.9328301-5.2016312-12.6711282-14.0447847-16.4228165,6.7274937-7.4694967,16.944304-6.8568686,27.9069224-3.9954007-2.7130673,11.5181694-12.2639775,6.2594611-13.8621378,20.4182172ZM525.8988805,215.1838243c7.770103,3.9002721,11.6323237-1.4687854,19.6611765,3.0441148-5.0910902,11.8910734-10.0341634,23.7479006-15.1254454,35.6199483-27.2029709,12.2449518-54.4782395-1.096065-27.9830253-32.8498039,8.698558,5.0532306-7.0585412,20.1215988-.555551,26.011961,14.2692881,4.8477528,16.9062526-18.9686404,24.0028452-31.8262203ZM579.6351171,38.6556069c18.0211596,3.9381345-3.420824,38.2188613-15.7951507,24.7106019,2.5646667-14.8819162,11.4841158-14.212211,15.7951507-24.7106019ZM568.9694924,76.1134395c4.5317333,11.6285185-10.220808,53.0437004-30.2853297,34.3718613,6.7236886-19.9731982,16.944304-31.0271401,30.2853297-34.3718613ZM539.3881143,121.2614672c4.4596282,1.85691,8.9194484,3.789736,13.3408331,5.6848844-8.4702494,24.527955-18.6906732,44.6495539-41.0613035,35.0035151,6.4651301-20.3613229,15.7570992-33.7934794,27.7204704-40.6883995ZM501.6372856,173.3957383c5.2358775-2.3022976,13.3027817,2.4733433,17.1269509-3.2305668,13.7519803,5.8142593-19.356765,39.6838416-29.6496782,45.1860791-17.4656087-4.0524778,12.2982238-23.4853457,12.5227273-41.9555123ZM541.6559798,54.0398021c9.8479035-14.4937916-20.6961755,30.3231886,0,0h0ZM524.0039191,83.286135c17.579763,10.2548617-9.8439062,49.8664056-25.825509,36.2287713,9.6612594-9.5320718,20.0685181-17.2030538,25.825509-36.2287713ZM505.202705,127.726406c14.8286442,5.9474393-12.374136,50.2583354-27.7204704,40.7454766,7.0965926-18.8582912,14.1931853-37.7356081,27.7204704-40.7454766ZM479.5255967,200.7813561c-20.178676-7.5988716-4.90483-20.4374258,4.90483-24.0599224,9.9582512,3.3256954-4.6080288,16.5752051-4.90483,24.0599224ZM494.278138,91.6460353c5.9436342,3.7899229-5.2016312,40.9852007-17.6520607,29.2425278,2.9375708-16.9062526,13.8240863-14.2312367,17.6520607-29.2425278ZM479.8223979,138.0193192c-5.0151791,11.8720477-9.996112,23.6717977-15.0493426,35.6009226-2.9337656-1.2633076-5.9093879-2.5075896-8.8051021-3.7899229,8.3220388-9.6270131,7.503743-41.9555123,23.8544446-31.8109997ZM487.7370964,57.4035489c6.0577885,9.7906342-13.0440319,34.0370086-26.4952142,25.5287078,11.2251733-2.6559902,17.1688075-18.1353139,26.4952142-25.5287078ZM463.8065489,89.2678206c4.4215768,1.8759357,8.9192564,3.7708972,13.3408331,5.6085938-7.9527499,19.657559-13.8963841,44.6116901-34.7447653,32.4999183,6.76174-13.5272852,10.8144075-33.8543617,21.4039322-38.1085122ZM449.4269116,135.6220788c18.4663614,10.0910542-15.5706472,23.8201983,0,0h0ZM461.0211838,46.1441293c12.6330764-15.4032209-2.2298141,19.7144485,0,0h0ZM453.5136357,63.9255649c-2.5266153,28.8734289-18.5044129,27.2372172-20.0302754,59.6416323-8.7328043-3.6984125-.5174995-14.4555532-14.0447847-16.331489,12.039474-12.8956313,19.4330572-37.0316566,34.0750601-43.3101433ZM436.9422357,41.125145c9.547105,17.0013812-25.0110196,34.3946921-29.1359838,19.1779233,5.8372788-15.9245256,21.2212853-8.2495511,29.1359838-19.1779233ZM413.6435307,83.7693883c1.8947728-4.4596282,3.7897343-8.9192564,5.6085929-13.3408331,15.829397-1.0806608,4.6460802,25.3610938-5.6085929,13.3408331ZM358.0884342,128.3961113c-33.0706894-31.6055219-54.0674713,33.146419-79.1509772,50.5018646-10.3309646-39.5202204,49.3489061-59.1966175,68.1501201-86.6202867,14.8666957,7.5417944,13.8240863,21.4610094,11.0008571,36.1184221ZM364.5531857,162.6195719c15.273846,16.4610508-15.6429449,43.7933966-34.8170631,32.5149512,9.80966-15.3080923,29.0218295-7.3401218,34.8170631-32.5149512ZM434.3014661,307.5232417c18.915558,6.1148656-7.9527499,26.9784674-18.2456631,18.4701666,2.4162661-15.0683683,15.7570992-3.3827726,18.2456631-18.4701666ZM482.0141605,479.8696063c5.9854907,2.545641,11.9291249,5.0532306,17.8765642,7.4693189-4.8705837,21.4229585-18.4321151,21.4229585-33.6298583,17.374463,4.345664-10.5554681,13.2647303-9.8477114,15.7532941-24.8437819ZM513.5626053,430.2429248c7.7320516,1.7655866,5.8370901,7.4124195,11.4078202,10.0912406-7.8766471,10.6620121-13.5615314,26.9746623-23.8924961,31.845246-20.1406246-10.7038687,12.9679291-21.6855128,12.4846758-41.9364865ZM539.2397137,493.5833435c-3.7899229,23.4472943-28.6869769,24.7106019-36.1184221,10.924567,8.9192564-11.1300447,17.9108105-22.4465415,36.1184221-10.924567ZM535.3013901,465.7144725c8.249743,1.5410831,6.8378429,7.001464,5.1295253,12.6711279-3.4552622-2.4543176-4.9811247-.0951286-6.3545898,2.5266153-4.8669702-2.9185451-.3350443-9.7563879,1.2250645-15.1977432ZM534.3348837,554.5227167c-17.3134029-2.3972404,8.9573078-24.6535248,13.3027817-31.2135922,6.9864357,3.7554999-5.6846925,33.6679097-13.3027817,31.2135922ZM553.2122006,509.9492657c12.7472307-11.906294,3.7899229,22.0546117,0,0h0ZM526.1616269,561.5470116c10.8863241,26.384865,32.9599615-10.5516629,63.5038484,11.111019-3.9383235,7.7092207,1.4499528,11.6323237-3.0821662,19.6573713-26.4571628-7.7092207-48.0094956-3.4552455-76.7725753-16.757852,1.8949615-13.5653366,12.5607787-5.2396826,16.3508931-14.0105384ZM556.0013708,553.1490599c3.1202177-7.450471,6.2784868-14.8628905,9.3644582-22.2600895,12.2221209,6.152917,15.6429449,15.7380735,8.360093,29.7676376-5.8715291-2.5646667-11.780917-4.9809328-17.7245511-7.5075481ZM584.6883477,596.7368037c4.4215768,38.2380621-81.8258059,1.9331879-121.8483052-9.5509104,34.0027623-13.2074778,86.6202867,19.509146,121.8483052,9.5509104ZM470.4198883,569.3894124c5.277734-17.0013812,21.9252369-6.5410417,34.2615121-6.5600674-4.0106213,20.6238778-18.801214,14.5090122-34.2615121,6.5600674ZM541.0623774,489.0856639c1.9672592-4.1970733,6.9101406-1.1529585,10.7761664-.6697053-1.8567179,4.2922019-6.8378429,1.1339328-10.7761664.6697053ZM519.0267914,516.4712817c10.3652109,12.0052278-.4109555,11.5942723-2.4541263,30.5096406-10.8106039,1.670458-29.6879209,7.4314453-34.8931668-4.3112276,6.320153-23.8201983,25.121367-16.8682011,37.3472931-26.198413ZM465.2563085,556.6802331c-3.8660258,14.8058134-15.4945443,10.2168103-27.8686818,3.9383235,4.0484834-14.1969904,18.3938744-3.0288942,27.8686818-3.9383235ZM462.4328921,513.5944161c6.019737,2.5267924,11.9633712,5.0534077,17.9108105,7.4658687-3.7518715,8.9763335-7.5075481,17.8575385-11.297281,26.7387434-7.4316353-3.1049971-14.8250291-6.2632662-22.2220386-9.4215353,4.0142369-11.2213682,8.3977622-21.7578105,15.6085092-24.7830767ZM474.8452702,434.9270564c13.5615314-3.1240228,12.6330764-41.7119831,32.8459987-28.1314259-14.3415859.8181059-15.7913455,33.9076338-32.8459987,28.1314259ZM479.9707985,447.5601329c-5.7952336,12.8956313-12.1878746,24.394775-27.1991658,14.7144899,7.1346441-9.80966,13.4892337-21.2555316,27.1991658-14.7144899ZM411.8967812,534.1613938c3.6757686-21.3506602,17.872759-16.6476798,26.4571628-25.509682,14.8250287,10.9435927-5.9093879,46.5407102-26.4571628,25.509682ZM430.4011941,552.4413032c-8.957119,8.4017569-17.7624099,16.9100577-31.6968454,12.8233336,2.4885639-5.9284136,5.0532306-11.9100992,7.5417944-17.8004613,6.7655451-1.5410831,14.4176887-.8561573,24.155051,4.9771277ZM447.159046,475.6344816c4.3837149,1.9139872,8.8431535,3.7176252,13.3408331,5.6125867-3.1582691,7.450471-6.2784868,14.8628905-9.4025096,22.2182329-4.8667785-2.785365-8.2837974-2.3401633-10.8142178.6697053-13.5615314-8.7137786.7838596-19.4709193,6.8758943-28.5005248ZM454.2936901,384.2767913c4.4215768-13.5615314,15.9054998-9.4559622,20.2167274-22.964222,9.80966,7.1156185,21.2897779,13.4894147,14.7525414,27.1841261-11.2251733-.3006063-20.0683268,5.1635797-34.9692688-4.2199041ZM470.19919,396.2249419c9.1780061,6.0920347-7.4312554,22.6862656-8.6947529,32.9982045-11.2251733-.3158269-19.992224,5.1065026-34.8931659-4.349279,5.4261346-16.8529806,15.4186308-22.5568907,23.9685989-31.7729482,7.2069418,2.5836924,15.9777976,9.3644582,19.6193199,3.1240228ZM449.4992093,445.1628924c-4.3835253,28.5195506-26.0462073,14.3644167-42.4349603,13.5463109,5.2396826-26.8112203,21.9632883-24.7676791,42.4349603-13.5463109ZM335.0100516,517.3654904c4.4976796-19.3605701,15.0150963-23.6147206,31.7348968-12.8575799-4.4596282,19.2842904-15.011104,23.6337463-31.7348968,12.8575799ZM353.556321,535.6111535c-7.5075481,16.2936245-11.2972842,8.4892752-21.5903842,1.3736568,5.4605677-4.7564294,13.0402268-4.2541504,21.5903842-1.3736568ZM284.7364956,475.0599049c-5.8711512-19.1588975,14.3035344-32.3132786,30.9890887-23.6717977,2.3782147,10.4983909-13.3788846,34.2424864-30.9890887,23.6717977ZM281.7266271,494.7324969c1.5220574-5.5897558,3.3066697-1.3736568,6.2404353-2.5418359,29.8779868-12.0965512-12.3360901,23.7973675-6.2404353,2.5418359ZM275.4823866,397.7277935c-8.2495511,3.6797538-21.0690796-3.8277943-32.9982045-8.6945729,9.996112-2.8043908,12.1878746-24.634499,22.1459352-27.4426949,6.1338913,3.0859714,12.2639775,6.1146848,15.1634969,1.2100356,18.4321151,3.5844452-3.2724234,23.4282685-4.3112276,34.9272322ZM229.3298011,420.1745151c2.4885639-5.966465,5.0534147-11.9100992,7.4694967-17.819487,12.2639775,8.9002307,16.3887531-2.1346855,28.6489254,6.8378429-3.1202177,7.3591475-6.2784868,14.7904134-9.3987045,22.2410638-8.9190719-3.8089486-17.8004613-7.5988716-26.7197177-11.2594196ZM250.3608292,444.8470655c-5.6087815,9.7563879-16.1984959,5.1673849-19.7296691-3.1582691,3.976375-5.4641861,12.7434256,1.0388042,19.7296691,3.1582691ZM187.0432413,334.0565073c-22.0736375-8.9192564-1.4117082-21.1642082,4.3112276-34.9121916,7.7282465,1.7655866,5.8713364,7.4122372,11.4080035,10.1064611-4.3114109,10.6087401-13.1203181,9.9238143-15.7192311,24.8057305ZM196.9632504,285.841534c2.56485-14.9772281,11.4458717-14.3073396,15.7570992-24.8399768,4.4596282,1.8759357,8.9192564,3.6947943,13.4131308,5.646833-6.2404353,14.9770448-12.595025,29.6915348-29.1702301,19.1931438ZM325.5352443,230.0657405c-5.9436342-2.5266153-11.8908873-5.0722563-17.7966562-7.5267583,4.3837114-16.4228149,17.7243584-10.8482797,27.1991658-14.6952797,9.8857628,5.5174581-5.6848844,20.5477749-9.4025096,22.2220381ZM315.6152352,278.2997396c6.1300862,3.101192,12.2259261,6.0387627,15.1977432,1.1872048,7.5798459,7.7662979-8.4360031,32.8498039-15.0493426,35.6161432-5.9816856-2.5798873-11.7807243-5.0874769-17.8385127-7.5798459-3.6415223-8.9725284,10.1445126-21.1984545,17.6901121-29.2235021ZM304.0934465,268.1894733c-7.4316311-3.1582691-14.7489221-6.2594611-22.1839872-9.4557816,8.4738693-3.0098685,11.5940869-19.7144485,20.1784907-22.8727176,5.8713364,2.5074055,11.853022,4.9807488,17.8004613,7.5265738-4.349279,10.5136115-13.230484,9.8286857-15.7949648,24.8019254ZM269.9839543,274.6582172c5.3119803-4.9999586,17.2411052,6.5941307,21.5144669-1.2825165,15.1975576,11.1454485-4.3494646,19.2085476-8.7710413,32.9222848-7.1725103-2.5646667-16.0881467-9.2731347-19.6954228-3.0288942-9.5128588-4.6993522,6.2063741-19.6763971,6.9519972-28.610874ZM325.2003916,156.4894857c2.1194649-15.9587719,15.4604849-4.349279,20.9587304-12.1878746,8.325654,7.1879161-9.8477114,23.4282685-20.9587304,12.1878746ZM322.1562768,176.1658828c-3.9040772,17.7433842-15.3841952,16.6094514-29.7676376,8.378926,5.0532306-5.6127722,11.2251733-8.4169774,16.3126502-14.0638104,4.5357311,1.9139872,8.9192564,3.7899229,13.4549874,5.6848844ZM304.4661647,205.3893849c-2.3401633,21.60941-18.5424643,8.7708558-27.1989806,14.7182951-9.9582458-5.5745352,5.7227506-20.6238778,9.4748076-22.2600895,5.9092024,2.545456,11.7805388,5.0151791,17.724173,7.5417944ZM286.8521554,234.6357179c-9.6230227,12.8385542-17.1650023,30.2851371-38.0133836,15.3841952,4.5701619-25.1558037,22.2220381-17.8539175,38.0133836-15.3841952ZM243.3403395,300.186925c-10.8903207-2.9565965-16.7236057-7.9527499-20.3270766-13.8621378,8.9192564-14.3796373,18.7669678-26.384865,38.0133836-15.3843784-5.0532306,11.7999332-9.067657,26.0501957-17.686307,29.2465162ZM197.8194077,333.4058278c6.6513908-23.0934159,18.8392655-32.5339769,39.9463965-19.8818748-5.9816856,24.8970539-18.6185672,32.9791787-39.9463965,19.8818748ZM246.1257045,206.9342732c2.5648512-5.9093879,4.9809328-11.8378014,7.5455996-17.7814356,5.9436342,2.4695381,11.8910734,4.9961534,17.7586047,7.5227687-3.7516865,14.7715671-12.2601724,18.2114168-25.3042043,10.2586669ZM251.9589895,230.4196189c-4.6080288,15.882669-12.0775255,24.6725505-27.2372172,14.6574128-4.8667785-11.3164968,7.4314453-12.0965512,13.8963841-20.3613229,4.3873305,1.8567257,8.8812049,3.8241692,13.3408331,5.7039101ZM214.4669106,356.1111191c-7.9527499,13.8583326-14.3834424,31.2516436-33.5575606,17.3172081,5.3538369-20.0873526,14.6041408-30.5286663,33.5575606-17.3172081ZM203.8010933,393.6412494c7.4694967,3.0288942,14.8628905,6.2252148,22.3323872,9.4025096-4.1247756,30.3041629-45.9661335,2.6559902-54.6608864-7.397199,20.1027562-16.8872269,20.2509737,27.5376441,32.3284992-2.0053106ZM212.0506444,386.5446568c-3.6034709-17.7433842,16.5371537-39.7599445,37.3817298-26.1793873-7.2449932,21.7197591-16.5712159,38.0894865-37.3817298,26.1793873ZM235.3495381,343.9955421c-2.3782147-14.6574128,16.015849-41.1336013,37.2713806-26.1793873-3.7176252,8.9002307-7.4694967,17.7814356-11.2592348,26.7577691-9.3265915-1.7655866-15.2359794,4.8285458-26.0121458-.5783818ZM292.5027935,357.6902536c-7.435065-3.1392434-14.8666957-6.3355639-22.2220381-9.4025096,8.2837974-22.035586,18.7631626-38.740166,41.7654412-24.3036335-6.0199231,12.5799863-9.9962981,30.1178927-19.5434031,33.706143ZM266.7876337,430.672906c4.4938745-19.250221,14.9732397-23.4510994,31.6968454-12.7662565-4.4596282,19.3225187-15.0112911,23.5956949-31.6968454,12.7662565ZM256.1598679,468.2030364c-1.4497597-6.7655451-.7800544-14.4176887,5.0151791-24.1169995,7.6940002,3.9383235,11.6703751-1.5068368,19.6954228,3.1202177-.3729041,13.7860349-7.3933938,26.7005138-24.7106019,20.9967818ZM284.401643,401.5559479c6.2784868-21.107131,15.2700409-35.1709414,30.3193834-34.4822104,15.0531477,14.2312367-11.853022,46.2058576-30.3193834,34.4822104ZM307.6624852,358.8584327c4.4978657-10.4032623,8.7708558-20.787499,13.1924325-31.1184636,5.2016312-2.2678655,13.3027817,2.5266153,17.130756-3.2914491,18.2456631,14.2883139-12.488481,49.851185-30.3231886,34.4099127ZM299.8581359,439.4399566c3.0859714-7.3933938,6.2442405-14.7144899,9.3644582-22.2030123,11.0387213,8.9763335,14.1969904-1.4497597,24.155051,4.9809328-4.90483,21.2555316-16.202301,26.6245891-33.5195091,17.2220795ZM321.9317734,411.978236c-5.277734-16.5143228,13.4892337-51.1106875,34.7067139-32.3817712-2.0053106,22.6291884-14.3073396,33.3673034-34.7067139,32.3817712ZM362.1369196,329.5055557c6.1338913,3.0631405,12.2639775,6.0007113,15.2357946,1.1491533,15.9054998,10.7950107-13.7860349,53.1959062-34.8170631,32.5149512,3.6795738-18.2076117,14.4557402-18.9876661,19.5812685-33.6641046ZM315.2425173,477.4723659c6.1679515-21.2174802,18.8390793-26.251685,37.9789511-15.4032209-5.1293334,23.6908234-17.7624099,28.8201569-37.9789511,15.4032209ZM319.8123084,516.1021828c-5.8713364-2.4352918-11.853022-4.9619071-17.7966562-7.5265738,4.1970733-19.9351468,16.461237-19.8438234,31.6587939-12.8005027-2.8995193,10.8865156-7.9527499,16.8339549-13.8621378,20.3270766ZM334.7893533,443.7700311c2.8995193-25.1936763,30.174788-20.8824487,36.0803707-10.9624396-5.9816856,18.8010354-17.8347076,22.7964362-36.0803707,10.9624396ZM376.4442592,419.4134864c-10.9968647-8.8812049-14.1208875,1.4649802-24.0789481-4.943061,8.3599003-15.6808168,17.9488619-28.2986726,30.3231886-34.3716816,7.6521436,1.7808072,5.833285,7.4656916,11.4458717,10.0684097-5.7990387,9.8477114-14.1208875,13.7137372-17.6901121,29.246333ZM352.6621123,488.099954c4.0144264-20.509724,15.1977432-23.222613,26.6436148-25.52853,16.4991022,15.0493426-9.9200091,36.883256-26.6436148,25.52853ZM367.7495063,452.4838099c5.8713364-9.7904556,13.1543811-16.1069938,20.178676-22.9450159,10.1445126,2.062567,10.4793652,8.0252269,15.8674484,12.0396533-4.5355428,21.9214317-22.1839866,11.7236471-36.0461244,10.9053626ZM412.3800344,508.1113814c-3.7176252,8.9002307-7.5075481,17.7624099-11.3355225,26.6816662-13.0440319-8.1201762-19.0257175,1.3926825-32.9982045-8.6947529,6.0577885-27.5722473,24.7486533-23.8772755,44.333727-17.9869133ZM392.8710637,541.8173426c11.3317174,22.6672398-19.4747244,18.0592111-34.1892144,6.5029902,5.1673849-17.633035,25.9016118,3.3979931,34.1892144-6.5029902ZM387.6313811,492.430385c3.7520596-8.9915541,7.503743-17.8537333,11.2936659-26.7920154,13.0061691,8.1582277,19.0637689-1.3205632,32.960153,8.7328043-5.4984324,28.7630797-24.2273487,25.0264288-44.2538189,18.0592111ZM414.940896,378.0706022c12.7472307-17.130756,25.1938551-35.0948385,40.4296497-45.8710049,12.8956313,16.8149291-17.3514544,59.7902199-40.4296497,45.8710049ZM430.9569341,390.0568042c-10.4415029,19.8247976-19.6575604,42.5453095-43.7365085,28.7592746,10.8903207-18.9686404,21.3658808-38.5346883,43.7365085-28.7592746ZM412.341983,334.9659366c16.4610508,10.1635383-10.7038687,54.4934601-30.3231886,34.3718613,8.3218488-15.6809964,17.9488619-28.37115,30.3231886-34.3718613ZM370.3522244,322.5193122c10.0303583-23.8013551,26.2326593-32.1458523,37.8269316-52.2674512,8.2114997,2.8081959,7.0585412,9.4595867,15.8674484,12.0052278-17.2791566,14.9922654-26.6436148,49.4402295-53.69438,40.2622234ZM378.4153235,278.6498128c-5.9474393-2.545641-11.8910734-5.0342049-17.8004613-7.5417944,13.7479835-5.4261346,22.7777769-22.6291884,34.7447653-32.5530027,20.4374258,18.4130894-8.2876025,20.3461023-16.944304,40.0947971ZM367.6012932,279.3385437c4.5317384,14.7335156-12.0016101,54.756015-34.7069014,32.4768998,8.1011505-19.3795959,20.6961755-27.6101213,34.7069014-32.4768998ZM351.5472053,230.4917323c5.4641861-13.9723027,14.4178762-18.8961584,22.035586-27.2941101,23.5233971,7.2830447-3.976375,42.1762106-22.035586,27.2941101ZM352.2169105,241.3251601c14.7525414,10.2738875-6.4268874,14.0067332-8.7708558,33.0324507-10.9968647-9.0107632-14.1931853,1.4153303-24.1512458-4.9392595,3.8243556-8.9761502,7.5798459-17.8383295,11.2936659-26.7195344,5.3880832-5.0153632,17.4656087,6.6133394,21.6284357-1.3736568ZM298.2980271,108.3315896c12.6330764-15.3118975-2.2678655,19.8247976,0,0h0ZM284.4739407,128.7119382c1.8226637-5.5174581,7.6178973.0190257,0,0-33.4053548,58.5649637-72.9788472,102.6549772-98.2488052,157.7612496-7.2828619-53.3975788,60.4941714-127.7729137,98.2488052-157.7612496ZM100.8339101,475.8742057c-10.0341634-3.3599417-12.5988301-9.6422336-7.7320516-18.9115632,10.1102663,3.2115411,12.6368816,9.5661308,7.7320516,18.9115632ZM143.3069219,325.9553568c10.3652109,1.9861031,5.7229358,9.9769047,3.2305668,17.1878332-3.2305668-2.4352918-2.5644849-6.3545896-7.0204898-8.2153048,1.2252562-2.9910245,2.5266153-6.0007113,3.7899229-8.9725284ZM105.4761852,378.2190028c1.6362117,4.0905293-1.0386233-2.7282879,0,0h0ZM92.2837527,409.3602972c1.6362117,4.0867241-1.0388042-2.6940416,0,0h0ZM79.5022757,377.6444261c19.0637689,11.613298-14.9770448,25.4906563,0,0h0ZM45.5375648,457.7807483c1.2633076-2.9377494,2.5646667-6.0199157,3.7556766-8.9382821,10.4413138,1.9710643,5.7952336,9.9390348,3.3066697,17.111552-3.3066697-2.3399849-2.5646667-6.2784869-7.0623463-8.1732699ZM67.6112022,430.3913254c-2.9337656-1.2442819-5.9093879-2.4887431-8.8431535-3.7899229,2.5266153-5.9093879,5.0151791-11.8720477,7.5419743-17.8006411,2.8993395,1.2825131,5.909208,2.5458208,8.9190765,3.7558564-2.5644867,5.9246084-5.0532306,11.8910734-7.6178973,17.8347076ZM87.6414776,370.6391569c-5.3879029-3.9383235,1.0007527-12.6711279,3.1202177-19.6573713,2.8995193,1.3013591,5.9093879,2.5075896,8.8433342,3.6795738-2.3783954,3.4929407-.0380514,4.9809328,2.6405889,6.4268874-4.0144264,5.1673849-10.8522693,3.660548-14.6041408,9.5509102ZM111.6443228,338.793911c-7.3933938-4.2731762-6.8720892-11.9291249-1.4117082-21.5142814,15.3461437,1.2250742,3.7178063,13.283756,1.4117082,21.5142814ZM125.9897138,292.4929248c1.9672592-4.2731762,6.9483736-1.1529585,10.7761664-.7039515-1.8949615,4.2883967-6.8378429,1.1491533-10.7761664.7039515ZM79.0572541,440.535659c1.7083292,4.0907082-1.0427895-2.6938626,0,0h0ZM58.3572729,489.4395422c4.3871508,3.0821662-.6660798,10.1254869,5.1672052,12.6711279-29.246333,73.6485525-18.0972625,23.3902171-5.1672052-12.6711279ZM99.9397014,428.3099119c-1.0768556-2.6559902,1.7465609,4.1818527,0,0h0ZM128.2577608,361.5905257c-1.0808422-2.6179387,1.5941737,4.2199041,0,0h0ZM72.3676316,505.7712182c4.90483,6.6894423,15.7570992,10.9434157,5.833285,23.46632-4.8287271-6.5410417-11.2594196-12.6178559-5.833285-23.46632ZM45.0543115,620.1119753c-4.5699773-21.4610094,8.139202-49.9425085,16.7616571-76.791601,25.0074031,13.2114582-12.4123781,51.7271208-16.7616571,76.791601ZM170.6925397,348.0670457c4.4596282,1.8759357,8.8431535,3.8087675,13.2647303,5.6658587-12.2259261,16.3507016-18.8392655,26.3277879-25.7874575,36.2287713-17.872759-5.0532306,6.2784868-38.2380683,12.5227273-41.89463ZM107.8163485,484.1237568c12.3020289,3.5882503,12.0052278,12.3400804,5.8370901,23.4472943-4.8705837-6.5943137-15.7951507-10.8104127-5.8370901-23.4472943ZM106.0697876,525.3182403c-4.6422751,5.665682-3.6757686-2.0281415-8.8431535-3.7556766,3.4931217-5.144554,10.8142178-.7610287,8.8431535,3.7556766ZM89.6467882,539.3249736c10.0723956,3.3256954,12.6330764,9.6993108,7.7662979,19.0066918-9.996112-3.2115411-12.6711279-9.5661308-7.7662979-19.0066918-5.4984324-1.7846123.0380514-7.5608201,0,0ZM82.2876407,593.932588c-12.2221209-3.5884255-7.503743-14.1018618-5.833285-23.4132236,12.2639775,3.6607237,12.0777059,12.3022046,5.833285,23.4132236ZM65.8265899,608.0534755c11.9671763,19.6763971-12.8575799,54.3070081-12.2601724,78.6675368-12.522548-19.5089707,2.7130673-50.2773611,12.2601724-78.6675368ZM111.2752239,537.9893682c11.0729676,5.3500318,14.5280379,13.7479835,10.2929132,25.3042043-2.4543176-8.9002307-16.3126502-13.0630576-10.2929132-25.3042043ZM112.1656275,585.553662c-10.1064611-3.3256954-12.6330764-9.6079873-7.8041685-19.0066918,10.072034,3.4170189,12.5986493,9.6420581,7.8041685,19.0066918ZM122.5346435,511.3647791c10.8484641,2.9145628-.4490069,14.9161625,7.7282465,18.8925375-9.1057084,10.3880418-17.1688075-9.6422336-7.7282465-18.8925375ZM93.1018585,593.3009342c12.1536283,6.1110605,15.6467501,15.6619707,8.3637054,29.7828582-12.1536283-6.1300862-15.6467501-15.776125-8.3637054-29.7828582ZM82.5121442,630.7587668c2.0814135,6.5372365,15.829397,8.3218488,7.6941806,18.9496146-12.7091796-2.1917627-15.3120779-8.5083009-7.6941806-18.9496146ZM71.2527245,657.3643302c30.0265681,13.65666-11.5181694,56.2970981-7.9908014,80.7299246-11.4801179-21.2022596,3.2724234-52.9714027,7.9908014-80.7299246ZM121.008781,589.3055335c4.6080288,4.2922019,6.7274937,9.5699359,3.1963205,17.1878332-4.6080288-4.2731762-6.6894423-9.5699359-3.1963205-17.1878332ZM112.3142091,622.3760357c2.971636,1.2100356,5.9092068,2.5113947,8.8429725,3.7556766-2.4883827,5.9055827-4.9771277,11.9100992-7.5417944,17.7624099-2.9373898-1.2633076-5.8713364-2.5075896-8.8431535-3.7556766,2.4885639-5.886557,5.0151791-11.853022,7.5419755-17.7624099ZM103.508926,655.3740666c19.1360667,11.5754201-14.938813,25.4564107,0,0h0ZM90.3164935,686.4965088c17.5379064,21.2174802-7.5455996,59.6227935-17.9488619,92.1187191-3.976375-25.3612814,9.8859431-62.7810627,17.9488619-92.1187191ZM128.8892332,645.1193784c6.019737,7.3591475,11.9255015,14.8096185,3.9383235,27.9069224-6.2060077-7.3591475-11.9671763-14.8286442-3.9383235-27.9069224ZM125.9516624,701.6029285c-4.8667785-6.6894423-11.2594196-12.6901536-5.7952336-23.4853457,4.790857,6.6513908,11.2596011,12.6521021,5.7952336,23.4853457ZM105.0690349,713.7147003c2.8614679-4.8858043,9.7335571-.2777755,15.2700409,1.1910099-8.9915541,11.0349162,1.3394105,14.2120393-5.0151791,24.0979738-4.8667785-2.8614679-8.3218488-2.2868912-10.8142178.7800544-13.1543811-3.234372,13.8240863-22.8536919.5593561-26.0690381ZM100.7578073,748.6078662c22.035586,25.269958-10.4793652,50.4828389-9.7373622,85.1324756-13.6718806-21.5523328-2.7473136-52.9143256,9.7373622-85.1324756ZM142.412895,687.5923902c12.6366998-12.0014226,3.7174434,21.9785089,0,0h0ZM147.6143444,737.013594c-3.0441148-9.7906342-18.801214-14.4709607-8.3597186-29.7828582,3.1582692,9.7754137,18.8390838,14.4937916,8.3597186,29.7828582ZM127.9950245,733.9694792c13.5995829,6.6513908,17.8385127,17.2791566,12.8577617,31.6207425-12.7472311,4.1057498-20.9208607-16.0881467-12.8577617-31.6207425ZM121.7890167,773.2651961c22.4463602,20.4374258-9.0640331,62.6669083-7.2071231,91.4298198-23.5233971-5.2395144-2.1194649-60.5510803,7.2071231-91.4298198ZM166.9026168,766.0544492c-3.1582691-9.7906342-18.8392655-14.4747659-8.4360031-29.7449782,5.1635797,9.0107513,13.5995829,16.6096229,8.4360031,29.7449782ZM170.4680362,720.3659193c1.6362117,4.1820246-1.0766731-2.5987411,0,0h0ZM158.0937096,799.1097308c-5.7229358-9.94284-15.4945443-18.2837145-6.5372365-34.2082401,9.3644582,8.565378,14.9351882,18.56149,6.5372365,34.2082401ZM142.8959664,797.8996952c6.2061891,8.565378,19.2121695,14.345391,8.4360031,29.8018839-4.90483-2.9147399-8.3979517-2.359189-10.8522693.6697053-6.0920347-7.3743681-4.0106213-17.9831082,2.4162661-30.4715892ZM173.8888602,774.2848041c8.1355796-8.8620087,17.872759,11.9481509,24.7828996,15.8293974-11.9253197,15.6659459-17.6482556-8.3787559-24.7828996-15.8293974ZM129.9660888,902.6552958c-15.6086986-14.585115,5.4984324-44.0179,6.76174-65.4028065,4.3835253,1.9139872,8.8433354,3.7708972,13.2647303,5.7039101-13.5615314,22.6862656-7.4655098,37.4388069-20.0264703,59.6988964ZM170.6925397,793.9994231c12.4466244,8.4702494,18.614762,19.5089707,11.0349162,36.0993964-12.3741442-8.4892752-18.6145797-19.5279965-11.0349162-36.0993964ZM166.4916613,828.8735633c5.5364838,5.1826055,8.4740546,11.3887945,13.9346183,16.3887531-7.3174737,9.6802851-23.4094256-7.0433206-13.9346183-16.3887531ZM155.4947966,929.15051c-12.039474-18.4513079-4.4596282-44.8892779,4.1247756-71.6812933,8.2497336,2.7663393,7.0965926,9.4367559,15.9016947,11.9822288-13.5995829,22.7244851-7.4656916,37.4199493-20.0264703,59.6990645ZM207.8535712,867.3321487c-13.3788846-9.2312781-13.8240863-23.7631212-15.3841952-37.9563064,10.8104127-4.1247756,29.539329,19.8438234,15.3841952,37.9563064ZM203.7630419,802.7132017c11.2251733,7.7853236,23.0020925,15.2546509,12.8195285,31.6397682-6.7236886-9.5280793-19.543217-16.6284771-12.8195285-31.6397682ZM202.9106897,891.525251c-3.0479199-11.0196956-20.178676-16.3697273-12.8573969-31.6435734,9.6991278,8.325654,21.4418006,15.8674484,12.8573969,31.6435734ZM225.5018267,838.1276723c12.1538126,3.7138201,18.4322995,9.7525828,12.1157611,20.9549253-.2627391-8.565378-22.1118731-8.3028231-12.1157611-20.9549253ZM235.2772404,889.481889c-15.5706472,9.5851565-20.4412309-16.0539004-14.7905928-27.1649195,16.0881467,4.4786539,7.8043493,18.9343941,14.7905928,27.1649195ZM185.1102284,884.0177029c21.7768363,19.3795959,12.0014226,51.6510179,1.0388042,84.3524212-24.8590025-18.1885859-7.9869962-53.3405016-1.0388042-84.3524212ZM216.2857692,897.1528909c4.8325322,2.9757896,8.2876025,2.3972405,10.8142178-.7229773,6.4649388,9.7337245,8.8089072,21.0311956,6.3926411,34.2616795-7.5455996-10.4603395-25.6771084-16.5371537-17.2068589-33.5387023ZM215.7302182,923.184045c8.2876025,8.9000641,16.5714,17.8385127,19.1360667,29.0979324-12.4846758,17.7243584-38.2378871-22.8004199-19.1360667-29.0979324ZM208.9648565,951.7606727c11.335339,13.8431121,20.2545954,28.6298997,9.6991273,51.3542167-22.6291884-9.3264067-15.7913455-30.4906149-9.6991273-51.3542167ZM245.1591981,977.6242331c13.4511823,15.4563279,13.0061652,36.4152233-.3348526,62.7810627-21.5902004-12.1536283-8.61865-38.2949642.3348526-62.7810627ZM232.191269,772.800798c49.3108547,20.509724,54.809287,58.9152074,89.7785558,85.262021-34.0027623-12.1155769-84.5008218-49.2385569-89.7785558-85.262021ZM388.7462881,886.2665427c13.8202812,1.0578299-8.3637054-13.283756,4.9390763-24.1740767,7.9908014,7.8043493,11.111019,17.6709186,2.0471672,32.3323043,24.3376978-13.1393283,20.9931654,1.670458,33.7403965,19.6002942,6.9099516-13.3218074,15.1975541-23.279868,24.0026562-31.9594003,5.3538369,13.7137372,1.4878111,44.573451-24.0026562,31.9594003-75.6959088,5.1293334-85.0603669-71.2551172-117.2404655-107.3545136.6316538-1.411878,1.3013591-2.9719869,1.9330129-4.4596282-5.6125867-1.8378843-.0380514-7.5988716,0,0,39.9083451,21.9062111,40.2431977,59.8815433,74.5808127,84.05562ZM349.7625929,817.2602653c2.8614679-4.90483,9.6612594-.2777755,15.1634969,1.2823334-1.8226637,4.349279-3.7174379,8.8431535-5.5745352,13.3218074-5.2396826-4.0867241-3.7176252-10.8332436-9.5889616-14.6041408ZM374.5492977,833.0896623c8.4360031,5.1103077,8.0630991,13.8621378,12.1498232,20.8293555-10.2168103,9.6232079-23.7821469-9.6422336-12.1498232-20.8293555ZM410.8541719,858.8618992c-7.3933938-4.349279-6.9101406-11.9291249-1.4117082-21.5523328,15.2740349,1.1680102,3.6795738,13.283756,1.4117082,21.5523328ZM432.5550944,894.3106161c-15.3463329-9.9009834-19.8782588-26.3277879-4.6422752-38.6450374,16.0879577,6.9862435,14.0445957,21.3126088,4.6422752,38.6450374ZM442.5129658,846.023345c1.9330129-4.2352935,6.8035966-1.1150758,10.7421098-.6506795-1.9332025,4.2539818-6.9141354,1.1718155-10.7421098.6506795ZM472.984555,848.4396112c9.5509102,4.7564294-6.1300862,19.6573713-6.9101406,28.6298997-14.2692881-10.5174166,4.1247756-11.2213682,6.9101406-28.6298997ZM377.2243136,1012.5516453c-12.2982238-3.6416869-11.9633712-12.3895472-5.7571821-23.4815406,12.2601724,3.6567429,7.503743,14.1551338,5.7571821,23.4815406ZM377.1141522,975.7291062c1.2250685-2.9754568,2.4883761-5.9472739,3.7897352-8.8620138,2.8995193,1.2062305,5.9093879,2.4885639,8.9194444,3.6947943-1.37765,3.0098685-2.5648548,5.9662996-3.790111,8.9002307-3.0098685-1.1681791-5.9474393-2.4505124-8.9190686-3.7330112ZM360.2077119,1015.7289401c12.1500108,3.6263018,11.9633712,12.355301,5.795421,23.5233971-12.3364627-3.6795738-12.0396615-12.3933524-5.795421-23.5233971ZM351.4368561,1048.7842217c4.3835253,1.8759357,8.8812049,3.8087852,13.3027817,5.6278072-1.2252562,2.9754588-2.5266153,5.9854907-3.7176252,8.9763335-4.4556358-1.9520386-8.9154512-3.7899229-13.4131308-5.7039101,1.3394105-2.9718171,2.6369644-5.9285771,3.8279744-8.9002307ZM332.8943918,1030.5005072c12.7434256-12.0204483,3.7518715,21.9632883,0,0h0ZM341.6994939,997.4109793c4.6460802,4.349279,6.6894423,9.6422336,3.1963205,17.1497818-4.6080288-4.2541504-6.6894423-9.5889616-3.1963205-17.1497818ZM357.8637435,946.6313393c12.7852822-11.9633712,3.8660258,21.9975346,0,0h0ZM327.6927606,980.9879799c-1.3392241,3.0631405-2.5266153,6.0007113-3.8279744,8.9723633-2.9375708-1.301194-5.8713364-2.5645016-8.8812049-3.8087836,1.2252562-2.8995193,2.5266153-5.8903621,3.7518715-8.8623446,2.9718171,1.2824988,5.9093879,2.5458064,8.9573078,3.6987649ZM328.2102601,954.976019c12.5227273-15.3499489-2.3782147,19.7486948,0,0h0ZM330.8510297,861.8337163c-5.5022375-1.9520386.0722977-7.7092207,0,0,15.1596917,2.3782147,3.4172055,15.776125,18.5044129,18.2076117-7.3591475,8.6034295-26.1982267-8.565378-18.5044129-18.2076117ZM300.417492,995.7405213c-2.492369,5.886557-4.9809328,11.8339963-7.5455996,17.7966562-4.8667785-6.6704166-11.2213682-12.6330764-5.7952336-23.4472943,4.4938745,1.8759357,8.8812049,3.8089486,13.3408331,5.6506381ZM261.0646979,1125.9449217c1.670458,4.0867241-1.0768556-2.6750159,0,0h0ZM265.7107781,1028.2516674c11.853022,22.2220381,25.8256945,43.591724,15.4945443,74.7862904-17.0584583-20.1596503-28.2417751-42.5683037-15.4945443-74.7862904ZM305.6916068,1045.1997765c12.6711282-15.4602981-2.2642463,19.7677205,0,0h0ZM348.4994723,968.872403c10.92438,1.670458,2.7889832,11.1833168,9.6270133,14.5280379-6.5031775,10.3309646-17.3934982-6.9864089-9.6270133-14.5280379ZM298.2980271,1099.8035858c8.5463523,17.4085315,22.4427364,32.6633518,12.3743267,57.6174829-17.5036601-13.7860349-17.0927046-34.8208682-12.3743267-57.6174829ZM342.1829339,1107.7563357c-3.0100554-1.2063926-5.943821-2.4162661-8.9194432-3.7328458,2.4543176-3.420824.0380514-4.8896094-2.4885639-6.2822919,1.8570966-9.4178928,22.8917433,2.0814135,11.4080071,10.0151377ZM327.8411612,1154.2057225c14.9351882,11.0539419,14.6764385,28.3521242,5.3119803,49.4212038,3.0098685-18.4473357-14.8248391-28.37115-5.3119803-49.4212038ZM378.3392207,1096.8507945c-2.9337656,4.9427192-9.7335571.3690989-15.3080923-1.1529585,2.9339531-4.8667785,9.6993108-.335015,15.3080923,1.1529585ZM374.3285994,1068.9819234c7.7282465,1.7465609,5.8677191,7.450471,11.4801179,10.0303583-1.8949615,9.493833-23.0399565-1.9482335-11.4801179-10.0303583ZM372.0987853,1136.2035886c-11.0387213-5.277734-14.4937916-13.7327629-10.2206154-25.3080094,2.8995193,8.6414809,23.2988937,10.1445126,10.2206154,25.3080094ZM388.8185859,1059.4310132c-2.8614679-1.2633076-5.8713364-2.5836924-8.8051021-3.7899229,1.8570979-4.4596282,3.7899229-8.9382821,5.6087815-13.398074,5.1673849,4.0715037,3.6795738,10.8904845,9.5889616,14.5852788-.7800544,4.1438013-3.4931217,3.4550703-6.3926411,2.6027182ZM400.1883546,1032.7301573c-15.2356067-1.1870408-3.6757686-13.2074891-1.4117082-21.5711945,7.4314453,4.3302533,6.9141342,11.9291249,1.4117082,21.5711945ZM400.0057078,995.8889219c1.2633076-2.9946479,2.4887522-5.8905272,3.7899229-8.8659844,10.3271595,1.9139872,5.7229358,9.9808914,3.2686183,17.0965098-3.3066697-2.287056-2.5646667-6.3355639-7.0585412-8.2305254ZM349.5799461,1189.5821416c8.2495511,13.9154098,12.6711279,29.2425278,11.6287059,46.875404-24.5623886-7.2258087-11.8151579-29.615273-11.6287059-46.875404ZM381.0142365,1139.9554601c6.5790931-10.2548617,17.3172081,7.0775669,9.6270131,14.5470636-11.0006699-1.7275352-2.7891702-11.1300447-9.6270131-14.5470636ZM376.7791118,1174.8866774c12.5607787-15.4032209-2.3021118,19.7296691,0,0h0ZM390.4167461,1117.7524477c3.4550703-5.1483592,10.738115-.742003,8.8813932,3.7708972-4.6803266,5.7039101-3.6797621-2.1156598-8.8813932-3.7708972ZM408.8109984,1099.3013069c-16.6476914,9.8667371-11.4080087-23.2608422,0,0h0ZM408.5520601,1062.5512309c19.1360667,11.5027859-15.0150963,25.32323,0,0h0ZM417.9507645,1040.2188437c10.1445126-16.7236057-14.8248391,24.7296276,0,0h0ZM447.7906999,1031.8589434c-14.9732397,24.7486533,10.0722149-16.7616571,0,0h0ZM432.7033059,1067.513138c1.8607152-4.4786539,3.7899229-8.9382821,5.6506381-13.416936,15.7190478-1.0197785,4.5319259,25.4183586-5.6506381,13.416936ZM427.0564729,1080.796894c15.7913455-1.0235836,4.5319259,25.3993329-5.646833,13.3408331,1.85691-4.4406025,3.7899229-8.9192564,5.646833-13.3408331ZM392.6465602,1186.8881c12.5607787-15.4224071-2.305917,19.8057719,0,0h0ZM407.7339542,1151.2871774c5.3880832,3.8850515-1.0426093,12.6901536-3.1240228,19.6421508-9.80966-5.5555095-5.2016312-16.1832753,3.1240228-19.6421508ZM408.8871012,1136.0171365c1.9290192-4.2199041,6.9480035-1.1339328,10.7759779-.6316538-1.9330129,4.2731762-6.9139457,1.148992-10.7759779.6316538ZM427.242925,1117.5848595c-16.5752051,9.8478732-11.4078202-23.1883827,0,0h0ZM477.4061317,986.6728643c18.3940637-12.6901536.2245035,17.5567674,0,0h0ZM738.6408455,1112.9769926c12.5225304-15.3461437-2.3061138,19.7677205,0,0h0ZM725.9316659,1118.1253518c-22.5570872-29.0029663,30.8062453-64.7901784,46.5975908-85.170527-.2245035,30.1177108-34.7067139,53.8047291-46.5975908,85.170527ZM745.809539,885.2277385c-2.0776084,33.3292519-19.9884188,50.220284-12.2221209,78.7208088,33.7782589,19.6191547,33.4778501,23.1885445,68.4851712,23.839224-5.3540354,13.9724869-14.3453914,18.9115632-22.0357845,27.3856178-13.3027817-5.6658587-26.7197177-11.3355225-40.0986022-16.9633297-14.4899865,40.3002748-41.841358,85.8402323-46.297181,121.9929007,4.6803265,10.1102663,16.8682011,5.224462,29.2805793,17.5417115-32.4768998,42.3967486-38.5346883,93.3249495-69.154678,138.6974807-98.8462128-16.4229994-164.6181182,48.4927488-279.8110398-8.2877606.8902159-36.5634659,37.8647953-44.2384403,58.7133657-64.3219877,3.7516824-3.6034709-3.4210131-12.355301,3.0821663-19.7336344,12.1153877-13.7097719,13.0057913-3.2874838,20.2165382-22.8497266,28.1656722-76.8486782,71.6051904-88.4429504,86.7648822-167.8524902,1.6742631-6.8378429-4.1247756-10.6467915-3.2686183-17.1650023-43.5498674-23.0401439-102.9709883-.8371316-119.4320391-39.9844479,69.5275821,14.9007759,182.3805281,6.0387627,149.975926-93.9794342-52.2446203-34.8360888-113.1497472-2.6750159-164.4659125-32.826973-21.3696859-12.5988301-23.4853457-10.1445126-50.8367172-16.2784039-46.0384312-10.3119389-91.4870652-37.7165824-140.9841883-38.6830888-12.7816606-32.9221016-31.9177273-63.2452902-30.319567-102.0767796-34.5581313-24.8209511-33.1085536-113.4313278-22.8156404-156.5169677,19.1741181,8.2114997,23.8163932,22.2981409,45.1099762,29.5621599-17.1688075,5.3880832-11.3317174,14.6383871-19.4328679,33.7782589-14.2350418,20.083372-7.7662979-24.2654001-25.5287078-26.5522914,21.1413773,62.7277906,41.0232521,125.9348559,74.3563092,183.6438357,24.7107867-16.6475028,90.3721582,20.6961755,95.9811263,45.8557844,11.7044349,4.4215768,13.7135506-14.6421922,25.3422564-10.2586669,42.0656742,25.1786346,103.3779515-4.1247756,149.1956844,31.6968454,16.6132565-10.6810378,40.0605508-4.3835253,55.1098934-18.6718392,22.591137-43.4927902,7.8043493-71.9780945-4.2731762-101.4641515-96.2815461-38.8505152-193.3050951-47.861095-270.0015675-93.2716775-49.6457073-29.352877-79.2268929-81.2093726-142.5064293-97.0579735,13.709932-27.6099431-16.4268045-37.5870294,2.2298141-67.2595384-5.5402889-1.7846123.0722977-7.5988716,0,0,7.0204898,12.3743267,61.6471299,22.8535126,57.3739537,50.5361109,40.2051463,9.5509102,61.2019281,64.2688738,112.0348402,94.6453343,43.8124223,26.198413,108.2449172,46.3390376,157.5557719,61.4074058,52.210374,15.8864741,114.9003063,32.7166238,138.2713046-4.402551-21.4762299-175.5617109-181.7108228-294.9176472-230.4623214-459.4596625,3.0098685-7.8994779,6.9101406-13.4549874,12.0016107-15.9435513-18.8394536-14.0638104-21.4764181-55.0337905-4.7944809-75.3760876,5.9091999,29.5012776,23.8963018,54.1586075,20.7380326,87.3775103,44.1052298,23.8582498,40.7262624,67.0732645,62.6134478,99.9420941-2.5646667,14.9580191-13.230484,9.8477114-15.7570992,24.7486533,2.4543176,19.7486948,11.9671763-17.7814356,23.4472943-5.7419615,26.385056,78.9453123,80.9354023,146.5208557,147.4493107,209.2448412,24.5241499-5.1635797,17.3172081-34.5202619,42.8839673-39.5164153-1.3013591-27.6862241,9.2503039-60.2202011,11.7046214-89.4817546-5.5745352-1.8378843-11.0729676-3.1202177-12.6711279,5.1826055-8.4360031-24.8970539,12.7434256-61.7955305,5.3119803-86.9703599,16.6094514-1.7085094,4.5699773,39.855073,7.9146985,55.7757935,15.3118975-14.9580191,16.8720063-55.8861426,16.7236057-76.8068216-7.5798459-3.4931217-12.7852822-1.430734-17.1688075,3.2686183-3.0821662-49.1814798-8.9192564-97.1719496-5.0532306-149.047471-4.3110324-7.690195-8.8051021-9.3454324-15.1977432-1.1339328-7.8424008-8.0630991,21.9596786-27.4236692,12.484871-42.0087843-14.6766337-11.7236471-17.3174033,5.7039101-30.433733-2.4352918,6.0958399-11.1072139,6.4649388-19.7298584-5.833285-23.4092428,11.3317174-10.1064611,18.3179608,11.79975,24.8209511,15.7570992,9.2160576-1.3013591,11.8187757-19.2694362,22.7433427-16.6094514,6.9862435,2.0776084,15.7192437,8.5805986,19.6573713,3.0821662,60.8670755,130.9692342,18.283911,289.027285-18.8773169,453.5883261,8.8051021,2.6217439,7.7282465,9.1968542,15.9397461,12.039474,43.4775697-7.8956728,73.2071559-49.8473799,115.158863-61.4798827-2.3021118-29.2996057,10.182564-37.3815506,31.4380956-49.588451.4071504-4.5167053-3.7556766-24.527955-9.5509102-14.531843.742003-19.7486948,43.3634154-14.1208875,53.7326321-40.1670948,2.2676648-8.2687588-3.3449219-13.4359617-14.0107391-16.4991022-2.4505124,3.0821662-3.8241692,8.7137786-8.2112995,7.0395155-1.8190588,5.5364838-7.6180975.0380514,0,0,2.4541174-3.0821662,3.7554765-8.6757272,8.2112995-7.0395155,4.0905293-10.7573232,37.5339355-26.4571628,16.9100577-39.9654222,6.948192-13.2495097,18.1315088-15.9435513,26.5675119-25.5287078,6.2442405-11.1490705,0-17.2411052-12.1498232-20.8636018-1.8949615,5.5517044-7.6559487.0152206,0,0,29.0941272-27.2942943,40.2812491,33.9266595,46.5597359,51.1677647-40.7987486,78.8692094-66.8487611,144.7362434-117.1261222,202.2205463-41.8792111,48.0473702-111.4031863,69.7863318-71.7193447,132.2705933,84.242072,4.8135065,141.9128269-55.9812712,203.0767036-108.1155423,14.158939,133.4768238-118.2790806,165.1736692-201.9617966,192.4299121-11.66657,35.4334963-14.1551338,67.1683931-21.849134,100.9618726,20.6999807,24.9160797,34.5963647-9.1780061,50.8709635,16.2403525,20.8103298-21.6628521,74.801511-14.8248391,105.7183019-39.1284612-10.3652109,104.8280689-107.4648628,74.2461306-157.4454227,111.6659118ZM827.1178454,903.9909012c-10.5554681-12.4846758,11.9633712-18.0592111,13.1886274-31.1755407,10.5174166,12.3362752-12.0014226,17.9678876-13.1886274,31.1755407ZM814.4467175,908.9908597c-1.114907-2.5836924,1.6324066,4.1970733,0,0h0ZM776.6161786,961.1974286c-7.3555402-3.0821662-14.7527392-6.2975125-22.1839872-9.3646242,2.7509215-8.2303594,9.3642609-7.0964266,11.9289276-15.9395801,4.6080288,4.3302533,6.76174,9.5699359,3.2305668,17.1878332,13.0059805-1.3774619,18.8430706-20.4945029,28.4282271-29.9693102,19.3986216,12.6140507-17.6520607,23.9495732-21.4037344,38.0856813ZM755.5469012,936.6162016c-5.3500318-11.0158904,11.7426728-43.4547388,20.7342269-48.9761697,16.5371537,7.7131935-15.5704498,35.9549686-20.7342269,48.9761697ZM777.1372855,935.2423783c-10.738115-5.3879167,5.0532306-15.6427785,7.5798459-17.8002948,12.039474,8.6224552-8.3599003,7.6749744-7.5798459,17.8002948ZM441.7329114,1107.9618135c1.3013591-2.9185451,2.6027182-5.9093879,3.8279744-8.8621792,4.3873305,1.9292078,8.9192564,3.7518715,13.3027817,5.7039101-1.2633076,2.8957142-2.4883741,5.8523107-3.7138201,8.8431535-4.4976796-1.8949615-8.8812049-3.8089486-13.416936-5.6848844ZM439.3204504,1138.4486232c-4.5737825-4.2541504-6.6892531-9.5661308-3.234372-17.1117303,4.6080288,4.2541504,6.7997914,9.493833,3.234372,17.1117303ZM454.9253439,1076.8966219c1.6742631,4.1057498-1.114907-2.6597953,0,0h0ZM462.4328921,1059.1151863c1.670458,4.1057498-1.0768556-2.6940416,0,0h0ZM500.9675803,1017.6998401c12.5609699-15.3840308-2.305917,19.7146129,0,0h0ZM459.8301739,916.3462021c13.5272852-24.4138007,27.3856178-47.9714441,43.5536725-65.5283763,7.690195,6.6323651-17.4313624,82.1226071-43.5536725,65.5283763ZM484.0575226,921.3461607c15.4983495-25.2319066,35.1176694-40.6351275,49.7941079-68.1158738-6.8720892,19.3794278-16.0500953,74.2079086-49.7941079,68.1158738ZM545.9291559,874.0976938c18.7669678,21.0500539-9.2883553,46.93264-26.9784674,51.5026173-6.019737-18.375038,19.7715256-35.6732203,26.9784674-51.5026173ZM216.8451253,598.4110669c32.5491975,3.474271,17.3895058,67.9067659,46.7081365,87.956067-48.5650465-21.0881053-99.4398152-87.9216458-52.6898221-148.1760931,14.1170824,1.6362117,8.9154512,11.1680962,20.3234555,13.8431121-8.1355808,16.8529806-13.972671,32.7394547-14.3417699,46.376914ZM247.1304468,564.0355755c9.4367561,13.3218074,44.8890935,16.1300033,30.6540516,39.1663421-14.9732397-3.7518715-6.7997914-16.944304-16.6094514-22.777589-17.7243584,10.8330684,15.829397,26.3468136-5.5364838,50.1289605-11.8910734-13.5995829-12.5607787-31.7158711-22.3704387-46.1525855,2.6407696-11.5029488,12.188059-6.2632662,13.8623222-20.365128ZM348.278587,622.5244363c.742003-4.0867241,3.4172059-3.3789674,6.3165382-2.5798873,2.9337656,1.3165797,5.9436342,2.5646667,8.8431535,3.8622207-14.0067332,2.9756222-4.7564294,51.5406687-32.1039957,38.740166.8904036-19.5660479,25.2661529-27.4236692,16.944304-40.0224994ZM325.1661453,701.9720275c-18.5424643-7.9679705-12.7472307-25.8635604-.2245035-36.7881274,10.0341634,8.2153048,9.4367559,20.6999807.2245035,36.7881274ZM301.6807996,707.7328425c-5.6125867-1.7463887.0342463-7.6557765,0,0,5.5745352,1.8570822-.0380514,7.6941724,0,0ZM327.3198566,634.7501883c-12.2982238-3.6223226-7.4694967-14.2120369-5.7952336-23.5194179,10.9968647,9.067657,14.1551338-1.3013591,24.1512458,4.9961534-5.5364838,7.6559487-16.1260116,2.6938672-18.3560123,18.5232645ZM305.9539758,672.8588745c-21.2555316-10.3119389-9.2921604-25.7684318,1.7085094-41.228904,16.7236057,6.7809399,4.4978657,25.2320807-1.7085094,41.228904ZM290.1968766,697.6075279c-3.8279744-11.9481506-22.6672398-17.7243584-10.9626184-36.0651501,12.4123781,8.5311317,18.5807014,19.5660479,10.9626184,36.0651501ZM279.0858575,624.7542503c8.4360031-12.5569736,14.4557402-30.9510373,30.916791-23.6147206-12.8195285,1.4878111-14.900942,29.7828582-30.916791,23.6147206ZM268.4961432,662.2881859c-7.9908014-7.8804522-11.0729676-17.6520607-2.0053106-32.3665506,14.8628905,5.5174581,13.6718806,27.1611143,2.0053106,32.3665506ZM357.2701411,663.140538c24.8970539-15.2890666,7.2830447,44.4250504-11.2594196,26.6816662-.2968012-13.9724869,19.6193199-22.5380382,11.2594196-26.6816662ZM371.984631,690.4158066c11.0387213,5.277734,14.531843,13.6947115,10.2929132,25.2509323-7.8385956-1.0768556-9.7335571,12.3362752-21.5523328,1.3203848-5.756995-13.416936,7.5455996-11.7616986,11.2594196-26.5713171ZM393.5750152,688.9127749c-11.111019-5.2587083-2.5266153-18.5424643,2.3401633-30.36124,17.9108105,2.6027182-1.1491533,20.1215988-2.3401633,30.36124ZM412.4142807,644.4877246c12.5607787-15.4032209-2.3401633,19.7677205,0,0h0ZM371.8742818,653.5553815c2.8995193-10.9816441,7.8766471-16.8149291,13.8621378-20.4033536,7.5417944,2.3251168-3.3104748,32.9793528-13.8621378,20.4033536ZM337.3159686,722.8584601c-13.5995829-4.7031574-9.0296055-22.4998135.4832532-26.0690381,9.4367559,4.8135065,4.7564294,15.2548203-.4832532,26.0690381ZM410.6677199,685.7354801c11.2251733,5.2587083,2.5266153,18.6528135-2.3782147,30.414512-21.0310281-9.5318845-1.6324066-12.6140507,2.3782147-30.414512ZM445.0053348,715.9825658c-27.5720698-18.6718392,13.8583326-40.7456497,22.6291884-53.3595273,7.7284367,19.7294962-18.4701666,32.7927267-22.6291884,53.3595273ZM429.3243384,740.8035169c-12.0052278,3.6795738-5.4641861-2.8234165-17.8385127-7.5417944,3.234372-7.4124195,6.2822919-14.8096185,9.440561-22.1839866,5.1255283,8.9002307,13.5995829,16.5714,8.3979517,29.725781ZM427.7606135,682.4286376c-15.5327848-11.4266731,6.5408527-30.1023174,15.0529587-35.5626983,9.8819577,13.4131308-12.5988301,22.5759164-15.0529587,35.5626983ZM390.6754959,745.4115457c-14.7867877-3.7138201-11.2213682-17.8919565-1.3736568-21.5713585,6.0577885,7.3020704,12.9679291,17.130756,1.3736568,21.5713585ZM485.7698372,743.7410877c-4.2008784,4.6080288-9.5889616,6.6894423-17.0965098,3.2495926,1.8951516-10.3461852,9.9240045-5.833285,17.0965098-3.2495926ZM531.1766146,673.7302524c12.1536283,17.2980097-16.4229994,37.9599395-28.2760214,66.7041656-33.4814577-23.3749965,16.5333485-46.7461879,28.2760214-66.7041656ZM498.810064,675.8497173c-4.4594375,10.2396412-8.8812049,20.6809549-13.2266788,31.1412944-22.2981409-5.4261346,1.670458-31.4571213,13.2266788-31.1412944,1.8226637-5.646833,7.6178973-.0913234,0,0ZM457.2312609,736.8461677c-18.2454738-3.3789674,3.3789674-30.8406881,8.6949429-32.9791787,10.6656273,9.3644582,7.4693067,32.1991243-8.6949429,32.9791787ZM506.0931086,757.6374718c3.1963205-7.4885224,6.2822919-14.9199677,9.4786125-22.2943358,15.829397,4.8135065,7.8385956,33.648884-9.4786125,22.2943358ZM550.278435,702.8662362c12.2603648,10.9626184,3.7138201,30.4715892-5.5022375,50.0717123-22.2182329-8.938111-15.7532941-44.8510554,5.5022375-50.0717123ZM634.5547533,255.9635472c7.6940002,1.7655866,5.833285,7.4352504,11.4078202,9.996112-2.2298141,18.6375929-15.4222466,10.4601564-22.7395376,16.6665285-11.2251733-11.2594196,11.3317174-13.2839392,11.3317174-26.6626405ZM622.0700774,297.8239309c15.7913455,11.8908912-8.2495511,17.7091379-15.7570992,24.8818334-15.6809964-11.7616986,6.0958399-23.0401439,15.7570992-24.8818334ZM613.9308755,341.6553789c-23.4472943,16.5714-26.1223101,44.386999-17.4275572,66.0496809-17.7624099-6.3355639-18.9496146-19.3605701-29.9502845-28.3901757,12.3020289-21.4039322,20.2890252-53.1730753,47.3778418-37.6595052ZM626.6781062,336.5450712c12.5607787-15.4222466-2.3401633,19.7524999,0,0h0ZM631.2480836,375.1901086c14.3073396,18.8050192,7.0965926,46.3009861-5.9436342,76.1028701-17.6901121-5.1637585-17.2068589-17.5759578-25.5287078-26.5294605,25.8597552-18.4511408,14.9732397-18.1353139,31.4723419-49.5734096ZM781.262061,590.7362674c-8.5083009-7.2830447-5.9474393-27.126868,2.3782147-30.3766365,11.2213682,5.2931305,2.598913,18.5578608-2.3782147,30.3766365ZM857.6236808,769.9585264c-9.996112-5.5555095,5.6125867-20.6619292,9.4027097-22.2220381,11.4456716,9.2503039-8.8091073,13.1734068-9.4027097,22.2220381ZM880.8883282,727.3180883c12.5227273-15.3689746-2.3782147,19.7677205,0,0h0ZM866.8397384,710.9103095c12.5988301-15.4222466-2.2298141,19.8056003,0,0h0ZM812.4376017,740.3392894c7.7282465,5.4641861,18.3940637,9.6993108,12.2259261,20.920679-7.7662979-5.5174581-18.5424643-9.8286857-12.2259261-20.920679ZM812.5860023,777.1654682c-4.3454739,7.3401218-11.9633712,6.9291663-21.5523328,1.3203848,2.4543176-5.9093879,5.0189843-11.79975,7.5455996-17.819487,5.5707301,5.1673849,8.3979517,11.4078202,14.0067332,16.4991022ZM826.2616881,720.0160179c4.0486727-5.2206569,10.8522693-3.6985995,14.5280379-9.6270131,7.3591475,4.4594562,6.9519972,11.9481506,1.3774619,21.5180865-8.1772534-2.8081959-7.1003978-9.3454324-15.9054998-11.8910734ZM848.373377,692.5923487c1.5601088-5.5402889,3.2686183-1.3203848,6.3545896-2.5836924,29.8741816-12.1346026-12.4504295,23.8354189-6.3545896,2.5836924ZM829.013006,763.0826321c2.9335665,1.3013591,5.943435,2.545641,8.9152521,3.7518715-1.2975539,3.0479199-2.5266153,5.928243-3.7518715,8.9002307-3.0098685-1.1872048-6.019737-2.4695381-8.9915541-3.7330164,1.3013591-2.9564259,2.598913-5.928243,3.8281735-8.9190858ZM851.1589417,735.6970143c-20.7344266,30.3954863,9.8094602-14.4367144,0,0h0ZM918.3043043,737.9610747c12.5988301-15.3841952-2.2640604,19.8057719,0,0h0Z"/>
    <path d="M914.6627819,337.7703274c-5.6087815-2.7282879-3.7899229-8.3408746-11.4801179-10.1064611-6.5410417,8.5463523-26.0500124,31.845246-18.8773169,44.4821275,11.1490705-8.9192564,18.6528135-26.8490926,30.3574349-34.3756664Z"/>
    <path d="M408.365608,170.6484247c-3.5311732,17.6102041,19.0980152,43.6792423,35.0415665,41.1716527-7.397199-14.3796373-10.7379258-45.4450147-35.0415665-41.1716527Z"/>
    <path d="M742.7996705,495.7941319c14.158939-13.5843623,36.0461244-8.0098271,48.0133007-26.7729897-20.6238778-8.512106-51.0231692,6.8530634-48.0133007,26.7729897Z"/>
    <path d="M666.0309003,479.0895519c-4.5357311-1.8949615-8.9192564-3.8089486-13.4511823-5.6658587-5.277734,10.7000635-9.8857628,21.1794287-.4490069,26.0309867,10.924567-7.7472722,12.8956313-4.349279,13.9001892-20.365128Z"/>
    <path d="M870.1466083,591.6647224c-15.0875942,29.5964062-45.2966284,21.6284357-64.5810957,40.8404311,28.9837781,12.7816511,74.5047098-16.666529,64.5810957-40.8404311Z"/>
    <path d="M637.7891252,545.7366404c3.6034709,9.8477114,17.7243584,13.4131308,21.4764248-1.3205611-9.5853513-5.5363075-17.1651972-5.9624835-21.4764248,1.3205611Z"/>
    <path d="M726.5250717,683.0414385c.2968012,20.8636018-9.0296055,65.0299025,8.5463523,66.5139084-3.7899229-21.7920568,8.325851-50.0528576-8.5463523-66.5139084Z"/>
    <path d="M605.3122255,684.2096176c9.7335571,52.6213295-12.3020289,118.0583823,2.1156598,168.7238681-4.4938745-52.5414215,38.6830888-143.1571089-2.1156598-168.7238681Z"/>
    <path d="M619.6540052,1183.3036548c60.0145295-66.4417726,95.0905385-220.6374409,100.7029289-324.6282077-25.0454545,104.8278984-44.2576241,207.277582-100.7029289,324.6282077Z"/>
  </g>
</svg>