<?xml version="1.0" encoding="UTF-8"?>
<svg id="Brussels_sprout" xmlns="http://www.w3.org/2000/svg" version="1.1" viewBox="0 0 1000 1307.0925247">
  <!-- Generator: Adobe Illustrator 30.0.0, SVG Export Plug-In . SVG Version: 2.1.1 Build 123)  -->
  <g id="outline">
    <path d="M753.3204423,40.7068795c-37.5005027-34.5988796-78.3290822-17.5087554-131.8716187-18.3493961-26.4681825-.3050411-53.2766032-15.2364124-79.2090085-13.6916529-16.4604876.9542312-33.4958604,11.974819-46.8238105,11.8966033-27.4224137-.0195539-59.6550911-19.8198506-86.1584707-20.5081485-79.705678-1.9475702-132.4113068,48.9590983-213.1455208,80.2021711-61.1059918,57.5708198-80.354868,155.1683322-121.5627935,233.4622173-18.0639089,34.2584632-51.1374047,62.4825875-63.323406,96.8153556-10.5395615,29.7141328,2.8274965,57.6684131,4.4700255,91.2385784,2.6749759,54.9777941-19.8589585,108.9231413-15.009587,153.9870992,19.4405046,182.8213058,148.9460993,248.0883712,233.2353811,330.7154044,53.1239171,52.0564388,86.4633462,117.0184631,137.6789666,178.8127527,7.3328882,18.2750912-21.9238521,19.2684302-8.8968636,40.1950325,30.7816079,19.5539174,63.7377802,57.687967,99.5996647,71.629764,53.54662,20.6608152,144.6678772,35.6117404,209.6727451,27.9348725,53.1592797-6.4136849,74.7389829-35.4786277,107.0107682-51.9000075,56.6007692-28.9477667,122.4036119-37.7507929,174.5343556-71.0941327,29.710222-49.8585785,58.9276854-99.9635363,40.9771892-172.5281237-15.4671486-13.2145374-47.7780417,25.0720328-61.9077024,21.9394953,31.661703-162.8841316,62.979257-352.2168919,21.4271826-555.6441158-26.3899669-129.2201075-53.6205698-224.12309-119.693439-324.5676527-24.7474378-37.6375556-55.7208429-87.3827227-81.0040581-110.5461164ZM641.382087,52.4705162c22.2680011,34.7551327,77.4921745,62.4239258,103.1156278,107.4722406,42.5845212,74.719429,11.7636367,173.443247,32.4282166,248.5848726-63.7418598-99.1421038-65.2709762-237.5486416-143.9050994-288.0759641-14.8570664-9.4719176-31.5091824-6.4332388-45.9086872-11.5524544-17.0705699-6.1125546-32.9209753-20.3165201-51.7864216-28.1107116-22.416784-9.3350401-46.2490985-11.2826103-65.5722797-27.8760646,52.0916359-18.1616784,113.5417766,6.394131,171.6286435-.4419185ZM99.8324348,411.5078145c12.1038748-44.0940837,6.9887324-95.6303883,23.6758831-142.9508683,7.297522-20.7740818,24.9390662-38.4783712,34.8685454-58.8338266,14.8570664-30.2655533,15.1622716-58.1064208,35.7875796-82.3376352,50.7189509-59.4479962,122.8222334-83.7533389,206.0787351-86.983646-37.007744,21.1964464-72.0679178,13.9810509-113.9993382,45.1226197-35.2909101,111.1757526-85.5483885,215.2456116-115.6457781,328.9438195-81.6491754,84.7466779-49.1114561,283.5513557,47.32048,382.5997687-51.8648104-5.6549929-60.0735449-49.4401247-91.9659841-102.1418427-13.5195785-22.3618599-33.1869085-39.3776788-38.4195368-56.0845458-5.9561232-19.1159096,1.3376498-49.5926452-1.5252056-82.9516282-2.7531916-31.1063717-13.7503147-62.8423796-11.306075-84.3086701,1.9084623-17.1292316,18.5996862-35.8970815,25.1306946-60.0735449ZM63.3604681,387.350905c-.5747239-2.5772063-1.0715547-5.0801077,2.7494421-5.5767772-7.2585755-17.9113883,15.8111363-6.9690161,0,0,.6490287,2.5811171,1.0674826,5.1192156-2.7494421,5.5767772-16.1202495,92.939603,11.7988337,206.7474791-5.3499518,299.1905788,8.0602861,7.9623552,10.0468027-15.5062565,10.6177771-22.3970569,16.3861828,17.1096777-1.1067517,47.4495359,6.9142652,71.8722189-68.7437519-107.9257317-36.0535128-251.1229793-12.1820905-348.6657407ZM272.2666997,963.561831c-34.3366789-40.5587354-90.2100424-80.5816935-126.9479423-122.2119835-40.8285795-46.3623381-79.4397447-92.0793969-56.7532898-147.1119419,23.4881655,10.1211076,8.670207,34.0081731,14.9315336,55.1107607,5.3106817,9.7182969,16.0418715-5.3499518,9.3974504-12.6826708,8.8579246,5.5376694,14.8922635,16.8632983,19.9725342,30.1169435,22.7998682,34.696471,81.0781999,36.5658255,121.715151,68.380049,20.0116456,15.5610074,40.4062148,52.1894054,59.5768754,76.381512,68.9001832,86.9639389,158.0386709,151.5233056,147.4951987,258.8977767-32.4634136-.5514205-6.9494622-55.9281144-24.8217427-70.0970335-6.7617446,15.0644885-1.8341574,35.6508527-4.5443304,52.6471177-61.9116132-43.4840014-98.6886209-116.9637121-160.0214381-189.4305298ZM491.254931,1122.8558634c10.9971231-.9737851,7.4070239,19.0416047,3.1677346,22.0959266,4.2783971,10.0037841,3.9342482,17.8722805-.9151233,23.5820243,10.042892,15.7174388-12.02957,5.1192156,0,0-7.5243474-10.4848105,1.986678-12.7374218-3.1325376-22.1311237,1.3374879-.4968189,2.7101729-.9151233,4.0476609-1.4509007-7.5243474-10.4848105,1.986678-12.7765296-3.1677346-22.0959266ZM527.9928309,1160.9156082c8.326058-5.5376694,8.7093148,5.8036027,15.3146281,3.8755864,3.973356,17.9113883-5.9561232,29.1588016-1.9084623,47.1092977-24.0237701-3.5118836-.8017106-31.4896285-13.4061657-50.9848841ZM553.2371119,1179.8594433c18.5995126,10.1367508,5.9950574,34.6769171,13.4842078,50.9066685-26.3547698.5553313-10.5434722-32.6512793-13.4842078-50.9066685ZM519.0568635,1201.2279642c-19.1708334-4.2392893-6.2261401-44.1331915-13.6722718-64.7938606,28.5682733,8.7287193,5.9952311,43.9963141,13.6722718,64.7938606ZM497.8995244,1180.8879794c1.3373157,3.9929099-3.8562047,5.0058028-6.7619169,7.008124-1.2983801-4.0672148,3.8599433-5.0409999,6.7619169-7.008124ZM474.3329709,1179.9337482c-11.8770494-29.6359172,2.2174142-46.9567772-8.4003629-76.0373631,28.9867271,5.0605538,17.1096777,57.363372,8.4003629,76.0373631ZM652.0389719,1274.8797494c8.4003629-1.0715547,18.1773216-4.7359588,20.8522975,6.5857594-10.4259723,4.9471411-20.1638234,8.6309533-20.8522975-6.5857594ZM715.5892033,1270.9806983c1.1849674-15.8857491,16.002926,12.4323807,0,0h0ZM727.9629223,1266.5341374c0-6.8360495,2.4051318-12.5457934,2.4442397-19.4405046,6.4527927.7430489,10.8094055,6.1125546,14.016248,13.6719525-5.4631862,1.9086089-10.8837104,3.8757329-16.4604876,5.7685521ZM773.065988,1236.687038c-2.7883886-8.2673963,9.4719176-9.3586522,2.4051318-19.5148095,11.0401417-.938588,9.6244381,20.06623-2.4051318,19.5148095ZM819.6981702,1210.7937406c-2.6358681.6882979-5.1192156,1.1261579-5.5767772-2.6358681-4.8493715,2.2135034-4.696851-5.1192156,0,0,2.5615632-.7274057,5.0801077-1.1458596,5.5767772,2.6358681,5.6512626-2.1589003,9.7378508-1.2594201,13.8248003-.2854872,4.4698448,7.5008827-16.6522967,12.7529174-13.8248003.2854872ZM914.1826989,1084.3972188c28.95153-9.049553,23.7190851-34.407073,54.6142753-42.5806105-10.6570691,64.7156449,6.5701164,142.5871654-100.784985,161.2220487,3.6644041-8.5919913,2.93718-19.2097684,3.5861884-29.1783555-27.2268745-7.1958416-13.6719177,25.2832152-11.8379416,32.0645137-26.2372656,7.008124-32.6159342-27.5944882-61.2585123-15.4123977-17.4929345,6.7226368,13.2145374,15.0878026-6.5310084,20.7975465-9.1277686-7.2584141-19.2840733-12.0334807-29.4051809-17.4147188-10.656885,12.4675777,5.346041,22.4557187-4.7359588,38.8575446-18.7129206,6.7226368-37.4301086-14.3603969-54.4224628-22.4948265-16.8828523,19.2488763,19.5148095,12.8312806,13.0620168,37.0820489,4.9236764-2.1743956,4.732048,5.0996616,0,0-10.1993233,8.8422814-22.4948265,16.7106313-21.5405954,30.957762-11.8027445-11.2317701-30.4376278-8.0405708-35.1383895-33.9925299-9.8512636,21.2551082-22.0724619-2.0805368-44.1840317,6.4175957-9.0143559,3.683958,4.3918098,18.0443549,4.5053979,26.1983385,2.5965849,11.3412721,21.8063533-12.0883781,21.0046427,6.5310084-64.5044626,10.6177771-113.8857525-10.4849567-169.3015557-19.0024969-8.7837913-29.769031-30.4377993-32.1349078-47.9307338-43.3823211,49.8390246-32.7137037,86.9249842,23.8127606,127.9803891,33.5506114,18.7874038-14.0944636,30.3985199-14.4542557,21.348967-44.684612,8.5919913.993339,16.6482052,8.8031736,22.1506776-3.1677346,2.5967602-29.7141328-11.9552651-64.8681655-38.7635121-69.8936719-9.8160668-11.5523047,12.2562217-7.9035437,2.4049581-19.4559981-.8015369-8.7836197-25.701669-7.6377601-16.4995955,5.8622644-39.373768-13.3866118-57.363372-71.5712483-101.0546449-75.5993553-59.6902881-81.1565786-115.8726035-169.6654302-184.4990319-231.9915864-45.5254304-76.6513561-134.8555465-214.8273209-102.5837613-302.6868192,28.4900576,39.2994631,47.3947849,77.1480256,71.3406775,109.4745618,38.2316539,51.6339128,97.1984471,74.1680086,132.5245542,124.8869594,35.6311482,51.0982969,34.5635043,127.5971324,85.8144926,150.6629333,11.9159864-3.4727757,8.3258871-14.3017352,5.1581525-24.9390662,19.7064379-.668744,15.7721897,15.8504054,29.3660731,17.3795218,8.940051-3.7074227-4.4661147-18.1225706-4.6577431-26.1826953-11.2278594-9.1082147-12.1077856-.0938588-26.1592306,4.6029921,2.8237567-21.0830337-12.8351914-37.9424213-23.1438462-52.1113475,6.3392096-8.5918335,25.7406064-21.9236944,10.1561343-50.1282648,8.3651658,4.3761667,20.011479-1.9280163,13.5195785-14.0709989-5.3069332-10.9423722-17.4538266-3.6878688-10.8837104,8.5919913-15.1621075-5.3655949.993339-24.5558094-3.4766865-35.9948511-2.9016308-5.8622644-11.3021642-.2659333-17.9465854,1.7363879-8.5567942-31.5443795-12.9486041-61.0277761,15.1231702-75.1222397-24.4815052-36.4133049,5.6118037-59.3109421-7.3328896-99.4668668-6.7617446-17.5517611-15.1621075,13.1167678-20.9305131-6.5701162-6.3002722,1.3961497-7.2936112-8.6310991-9.9685871-15.1229997-2.7492808,1.012728-5.4985616,2.0062319-8.2478423,2.9604631-6.2259673-20.8171004-33.1869085-27.3833059-29.9409583-45.0874227-88.7943387-63.1474207-43.4253397-178.9261654-18.4862735-248.9291896,16.2688592-2.9409092,29.1392477,1.2239029,40.33191,8.9165863-27.309001,57.0387769-29.2565712,185.1521327,41.8180077,236.097909,3.0934297-19.1119988,5.8818183-38.4390908,12.7571462-55.6427948-13.5979647-.9931715-24.7476084,5.0802753-14.7045462,23.7542664-47.2031577-37.2150155-52.3616501-137.5461655-24.0984179-172.6219825,14.2823512,13.3083962,28.7559909,26.0067101,39.6045042,46.4014459-10.5043644,28.012942-25.6664719,53.9453472-13.3670579,92.9554124,3.4375787-.1720745,8.1735375-2.7298947,9.663546,1.2240752,8.4003629-10.2540743-1.7598526-80.8319836,23.370842-63.8005216.1525206-.0938588.1916284-.324595.3050411-.4186232.1173235.457731.3834279.5515898.3834279.8603724,2.0999196,1.4315161,4.2391182,3.3595324,6.6833579,5.9562926-3.2850581.2307362-5.3851488-1.7011908-6.6833579-5.9562926-.2309073-.1523512-.4968406-.3635335-.688469-.4417492-25.8932974,14.8961742.4223646,54.7275039-20.4688702,72.0873042,13.5585158-4.9275873,41.512796,5.0020596,41.2820598-14.5909656,1.1108341,11.4781495,24.7513486,24.6144712,13.1793403,37.0859597,2.0609829,9.9490332,13.4804706.2854872,16.7655287,7.9623552,10.7702977-2.0062319,3.0934297-30.0582818-6.1514902-30.3633229,2.2563499,4.8141745-5.0763691,4.6812078,0,0,.4964973-5.9952311-8.1344298-8.001463-8.5139478-10.8837104-7.0667857-53.7341649-27.688347-100.9373214-69.0879008-142.7005781,74.2814213,17.3365031,137.9061313,133.9951741,110.4483468,206.9195535,17.7590412,8.1344296,11.1144466-14.7984047,25.9325789-18.4668862,9.6596354,8.6508197,20.7348003,14.0946303,30.9342981,21.6541747-.6493645,23.7189018-5.9954055,51.4854644-21.0441003,58.5483394,14.016248,32.2716214,41.704595,55.4353557,29.217638,82.4940666,4.5832636,12.010016,14.8568918,11.9709082,23.8673369,14.7592968,14.0944636-11.1496437-5.7292978-18.7522068-2.0218751-31.7751157,48.043975-70.9025044,99.2204875-149.2706944,71.5321405-243.6378996-31.5872219-108.0275719-151.6601831-183.0129342-201.6126204-267.6461993-29.1783555-29.006281-150.8543936,15.8504054-168.042455,50.2222814-29.5968093,59.5573215-52.396677,105.712388-75.4663887,180.1461598-25.35752,81.6143104-56.5225535,143.9052695-19.6673301,206.6146825-11.650059,4.7555127-.9151233,20.1679104-14.7786858,23.8127606-62.5961652-81.9191814-13.0229093-161.8555956,13.7853468-223.1688589,3.6292071-84.0427368,61.7551818-142.0552989,74.7780908-221.6045455,38.5720574.1720745,75.9632272-35.9401001,119.6543311-42.4124468,36.3976618-5.3069332,76.8038766,28.5878272,107.4331328,40.8831549,64.0079676,25.9521347,110.1433057,30.230357,143.099478,102.5995799,15.4671486,33.7617937,44.4929836,65.1730353,55.7208429,91.6413891,44.6455041,105.5596995,51.4072487,197.0096282,38.4977525,279.0617763-12.7569757,81.1213816-53.390016,190.8227688-55.9474909,261.3459271,18.7129215,17.4147188,17.1838051,33.0734958,35.4784502,47.7389339,31.7751157-83.0845949,27.0782648-183.6425703,41.8962233-274.8811487,17.8722805,3.1872885,30.8951894,16.5739004,48.8456856,19.8198506-3.8951403-18.4471656-45.2946942-20.0505869-57.5941082-44.5711992,23.1831244-11.4351309,53.5466279,20.8718514,79.4788525,27.5944882-18.982943-34.2780171-72.4511746-27.8408675-78.8648595-65.0402399,37.4653057-1.9084623,62.5568924,22.3030344,94.7895698,31.5091824-12.67876-26.2571644-64.3910499-32.8272808-89.7485699-56.5225535,5.498741-3.1129836,1.5643134-10.7116359,3.9694452-15.2755202,28.337537-2.0453398,46.9372232,16.5543464,69.662786,26.3899669-2.7883886-30.0778357-54.004009-20.9305131-66.0726868-55.5683224,15.9638181-11.974819,41.9355118,11.016677,61.1842074,15.4867026-2.2174142-21.9042982-43.5778602-23.5859351-57.5941082-44.5516453,4.5443304-3.5705453,6.4919006-8.3847198,3.8951403-15.3928437,11.6895118-15.7721897,25.8189925,14.7632076,44.4186787,7.5439013-13.0620168-22.991496-43.7694886-8.9556942-49.4205707-47.6059672,19.7846536-3.0934297,30.2851072,13.2340913,50.1088686,10.1600476-11.5368112-18.9045594-32.4634136-18.2162615-47.664629-29.5418904-10.1952331-24.2704915,2.2135034-37.8485624-8.0953218-62.1736356,13.4413628-6.5310084,12.9838011,15.9833721,29.2135525,3.6446801,7.2584141-18.9788621-23.8284037-3.5703752-26.8084207-23.0656308-2.1000907-45.5606275-8.5567942-93.2448103-23.4099499-144.9179924,36.7380798,26.6598109,58.8494697,106.3654889,77.5666603,153.6077532,18.1028358,45.5019657,36.9293475,98.6847101,55.3375875,142.9665114,69.4709753,167.3346032,2.5574701,303.1834887-37.3520752,445.195769-45.333802,32.0801568-18.5996862,98.5517435-26.2763735,148.6606121-10.3872216,2.9956601-20.3558086,6.3002722-17.6417249,15.5610074,5.0018921,16.4994444,5.8036027-3.6644041,15.2364124,3.8403894-13.5938834,20.8522975,20.1639996,64.4653548,1.5291163,82.9868253,8.8227275,5.7292978,15.7330819,14.9743899,30.6292562,7.7159758,8.2478423-10.1954125-13.1011246-11.9357112-8.7445118-24.7669917,5.5376694-1.9475702,10.9971231-3.8560325,16.4604876-5.8231566,20.6606691-44.1879425-10.5043644-109.5136696-9.8551744-159.028253.8799263-66.6826151,39.373768-136.4392599,58.4701237-201.9175076,21.3098591-72.6388922,29.2917682-139.5721139,23.5272734-221.9095866,59.1975294,198.5152799-37.007744,352.6744536-27.2698932,539.0858586ZM238.8101127,436.658063c24.2114948,31.3525845,21.6929502,72.6193383-2.3309926,98.379669-3.1325376-34.7160249,6.2259673-63.3977109,2.3309926-98.379669ZM227.1988309,482.5823933c-2.2917191-1.1067517,3.7035119,1.7753296,0,0h0ZM277.3076996,348.7006319c11.7245289,25.1111407.5711411,68.7826919,14.4347018,106.3262142,2.9409092-2.0803699,3.5900992-5.1190487,1.2592723-9.7024869,22.3033658,33.8204555,50.7971665,49.0021169,36.3194461,89.34967-9.3154862-.3988999-20.011479-9.2020735-15.6195016-17.6806521-19.6283898,6.718726-28.1069684-20.8522975-27.0002167-36.8747774-19.1706606,12.7921727-18.0639089-33.0930497-17.5281315-49.5732588-22.4948265-25.6467505,8.3612551-55.4351882,8.1344296-81.844709ZM392.6836336,595.8191288c-13.3670579.7430489-2.1783064-14.2665381-7.2973526-20.6606691-4.3528714,2.4989906-4.8102638,6.8712466-5.3462104,11.1105358-17.0705699,1.1458596-22.6082393-36.5462716-4.8493715-40.0035687,8.4785786,10.1408261,10.4261487,15.6980494,10.1955819,28.8930329,11.9550957-16.6716699,9.6633766,13.9771401,7.2973526,20.6606691ZM399.2107312,574.8495078c20.5472564.6335469,10.4261487,30.7661336,10.5043644,42.7370418-22.2640903-5.2130744-3.6644041-25.2245534-10.5043644-42.7370418ZM395.2414556,655.2630375c5.4983919-5.3851488-8.0602944-19.8980663,6.5310086-20.8914053,4.9626144,10.3713978,4.8102638,18.2946451-6.5310086,20.8914053ZM312.8254351,619.4011531c-17.0743135-18.4823627,1.8693545-49.2836933-2.7140837-73.2880823,25.2832152,14.9118174,2.5224553,49.4753217,2.7140837,73.2880823ZM362.9695008,708.480979c.993339,2.7336376,2.0218751,5.5024723,2.9410781,8.2517531-2.6751448,1.0128929-5.5769461,1.9475702-8.1735377,2.9018013-.9935077-2.7492808-1.9868467-5.479168-2.9410779-8.2126453,2.6749759-.9737851,5.4242567-1.9827672,8.1735375-2.9409092ZM306.3687316,640.3864172c5.346041,25.5139514,19.3270919,17.0353728,18.7132668,39.7570248,2.8273286,4.9275872,14.2077085.9737851,12.338354-4.4270069,11.6072053,2.4988294,9.2020735,27.0000491-3.5549022,29.1939986-12.7530649-18.8265116-28.5643625-31.2784462-43.7655778-44.9114374,4.4700255-6.969178,5.8427105-15.4671486,16.2688592-19.6125791ZM283.1113022,653.2372517c-16.3470749-6.2807183-23.0306039-35.2089464-.9542312-41.5677175,8.9361402,17.9309422.4966695,27.688347.9542312,41.5677175ZM328.8635581,585.9287574c-1.0285361-17.9700501,10.4652566,14.6067763,0,0h0ZM329.0942943,599.733823c-.993339-17.9504961,10.5395615,14.6067763,0,0h0ZM346.8140542,584.2275665c17.645455,16.4409337,1.2592723,46.2293714-.1525206,65.0402399-13.327782-14.4386126.7626028-45.2946942.1525206-65.0402399ZM360.9085179,597.7666989c27.2659824,9.029999.5709744,43.9376523,3.8951403,63.5697853-15.5062565-14.3995047,1.1810566-42.7761496-3.8951403-63.5697853ZM428.3890867,801.3464434c-24.0200321-9.2998431-38.4586447-39.0335298-52.5100897-69.5493733,19.2842429,20.1092486,49.41666,37.5630753,52.5100897,69.5493733ZM378.9725959,674.9499215c10.0036149,15.7369927-12.0297392,5.1935205,0,0-7.5245166-10.4065948,2.0217058-12.7569757-3.2109225-22.0920158,1.3765958-.4575617,2.7883886-.993339,4.1258766-1.4509007-9.8512636-13.8832813,6.0343389-15.3928437-.4575617-27.6531499,12.1429827,1.6229751,6.9494622,23.5662192.4575617,27.6531499,4.2783971,10.042892,4.0085531,17.8722805-.9149541,23.5429165ZM358.9961447,565.9329215c-14.8570664-2.8626935-5.4594537-22.7803137-11.7245289-32.9600831,23.1831244-4.0085531,11.9161572,20.1874643,11.7245289,32.9600831ZM333.6777325,547.0281941c-.2698441-11.4937926,5.4985616-20.2031074,2.1000907-33.2260164,16.8789415-5.2326283,10.1954125,30.2499102-2.1000907,33.2260164ZM290.2523929,594.9978642c-20.355628-16.7459748-2.9018013-44.8175786-9.5853303-66.2995122,40.3279992-.289398,12.2211984,46.0964048,9.5853303,66.2995122ZM262.0282685,567.7670789c-14.3603969-18.7913146-3.0934297-47.4730006-1.3335772-69.2795292,4.8884793-.5357773,5.7646612,7.3131651,11.2278594,5.424091,6.4527927,25.9521248,1.3335772,46.3273067-9.8942822,63.8554382ZM257.4839381,620.4335999c-9.1668765.0938588-14.8922635-7.0667857-19.7064379-16.2532161,14.5129175-1.0871978,10.656885-10.8837104,12.1820905-18.1186598,18.1813988,3.034768,7.297522,21.1182308,7.5243474,34.3718759ZM227.8089132,589.1551537c-8.056214-14.0749097,3.324166-19.0024969-1.9475702-31.7555618,16.3861828-2.2369681,13.5195785,26.7341158,1.9475702,31.7555618ZM292.0083346,245.9878148c-2.4051318-1.1106625,3.6683149,1.7168339,0,0h0ZM321.5308391,198.3621203c-12.1429827-21.0437525,33.8400094-79.4200174,69.3577449-66.4127516-33.9925299,16.8984954-50.8323636,42.02919-69.3577449,66.4127516ZM400.9314759,147.013532c-.0391078,5.7294724-2.3308269,10.3129107-9.5110254,12.6046298,0-5.6549929,2.2917191-10.312736,9.5110254-12.6046298ZM391.7645995,173.5170862c1.5682242,19.0220508-11.7636367,30.9186541-15.7721897,47.3595879,25.8191623,6.4332388,15.7721897-33.5506114,31.0125129-43.5191985,13.9771401,7.5986523-7.5634552,19.1902145,3.4727757,35.8814384,14.665438-4.3567859,7.7941915-19.0963557,13.292753-27.958191,11.7245289-.5514205,21.0791229,3.8951403,27.9151724,13.3670579,4.7359588,14.8375125-9.9294792,20.3947358-.6491901,37.3714469,9.5110254-9.0692795,4.4701967-25.2636612,10.3909517-36.1669256,16.6482052,10.672355,32.9209753,22.017711,46.4405537,39.2992908-10.9619261,1.4901808-18.2946451-4.833556-26.5072904-9.1275963,10.1602155,29.006281,41.4386617,13.5938834,46.67129,53.0263131-17.9504961-3.1874598-30.8951894-16.5934543-48.8104885-19.8394046.8057932,24.4619506,57.977365,17.1487855,52.287175,55.8147017,4.6186353-3.5118836,6.5662055-8.3417011,3.8170978-15.3302712,8.4041005,4.1024119,13.1402328,15.7330819,18.5604052,25.9480483-12.2603062,6.5114545-15.3144548-6.2611643-22.377503-10.6177771-71.0352997-28.5645335-122.4818276-98.0746279-206.8061408-98.5908513,3.5118836,12.6044551-18.5605784,2.1783064,0,0,15.9247103-18.4823627,36.9686362-56.2331556,67.062115-46.9176693ZM649.5556244,337.5314343c56.1040997,105.2546592,7.9820853,182.2855284-36.8161156,249.9616364-40.9419922-16.4213798-14.2430734-64.371496-8.670207-89.8658934,13.1754295,1.2045213,22.342306,10.7507438,33.6092732,16.0223145,3.324166-15.236247-38.4977525-16.9765457-30.0191739-45.2163131,18.0639089-4.2040922,26.0106209,12.8860315,41.8571155,13.1167678-11.8379416-24.8060996-49.7217011-19.8394046-43.9963141-58.7008599,23.6406861-1.7754957,35.1383895,22.1154805,55.7599508,26.6011492-10.6177771-30.3634907-69.5063547-21.7322238-76.3072071-84.4220828,25.3616059,9.1277686,46.8238105,26.6598109,69.9678271,40.2341404-.9151233-32.2913391-66.7570739-26.5620413-64.8486115-65.2279575,13.4452736-11.4390417,11.9552651,8.5333295,23.4883407.9149536-23.410125-13.9417733-11.0755139-35.2907403-5.1936956-53.8669618,22.2640903,8.6310991,33.5701653,35.9946809,24.6340251,56.3113712-10.1993233,7.0472318-11.1535545-5.2521822-19.4403295-2.4444094,14.7045462,22.7607604,23.3354698,12.0297397,35.975122-3.417855ZM515.0090298,324.8526743c7.5986523-1.6229751,11.8770494,3.7426198,14.1296607,13.5743294,10.1211076-6.9885701,11.1537278,5.310844,19.4013968,2.4090426,8.0602985,14.1883224-3.3982974,18.9790322,1.986678,31.8296977,11.2669672-2.6708962-2.4442397-17.1642597,12.1077856-18.2905653,3.9303374,11.0165079,7.8293885,22.1115698,11.7245289,33.0733272-8.8618353,1.7365564-12.0686778-8.3258894-20.9305131-6.4956428-.993339-2.8040317-1.986678-5.5181155-2.9018013-8.2871191-12.8312806,1.0521697-26.2765542-20.5275335-21.3880748-34.2387403-10.9619261,8.5567942-10.6177771-6.6053133-14.1296607-13.5743294ZM548.1216335,392.1064177c22.0333541,2.3855779,44.0315111,16.1163387,43.7655778,44.7980247-16.0772309-2.0257858-26.8475285-15.3732898-40.5978432-22.721652-5.1935205-9.319397,4.352702-11.6697779-3.1677346-22.0763727ZM595.32479,472.8600192c-18.7913146-3.7776504-33.9141404-14.8725431-44.9505452-35.0952045,22.3776772-3.648761,46.8591823,9.8315426,44.9505452,35.0952045ZM551.8994503,297.8682683c-2.9409092-8.2675673-5.8779076-16.5152386-8.8188167-24.7865456,12.2563954-3.5118836,29.4051809,19.4991664,8.8188167,24.7865456ZM586.9244271,317.957963c-2.7883886.9736148-5.5376694,1.9671241-8.290861,2.8822474,9.1668765,11.3451829,5.8466213,10.2539043,3.1716454,22.1311237-6.4919006,3.1129836-17.9113883-24.0397563-3.1716454-22.1311237-19.2840733-17.7393138,5.8818183-33.1869085-1.0676439-55.2984783,29.675025,4.1024119,10.4261487,33.8947604,9.3585049,52.4162309ZM565.2313112,269.9139881c-19.976282,6.4527927-23.8323145-12.3737189-18.5252078-25.9912392,4.0474874,1.052173,8.2517533,1.9320992,13.8635539-.2266532,7.4502165,11.5524544,1.0715547,16.5346207,4.6616539,26.2178924ZM528.7202367,245.6434937c-4.6966781-14.7982325-14.7436537-32.1386464.6491901-37.3908286,4.2746595,14.6263302,12.7530649,31.2588923-.6491901,37.3908286ZM501.6810797,208.7297806c-8.0210169-15.217032-4.8532823-25.1267838-3.3632738-35.8775276,15.3537359,1.7950496,22.9523882,31.5639334,3.3632738,35.8775276ZM484.7239226,186.9426323c-4.0867687-1.0127193-8.2126453-1.9082887-13.8246196.2661069-12.6826708-15.4084869,1.7559418-37.6923057,3.0152141-56.8080407,22.2288933,9.8708175,10.5395615,37.5239674,10.8094055,56.5419338ZM456.7657316,173.6344097c-12.1820905,4.0085531-18.6348832-4.0124638-26.4290747-9.2450921,1.3374879-17.5672394,6.953373-33.1673546,26.8516105-41.9705282,7.9035222,20.9109592-1.376767,33.6286526-.4225358,51.2156204ZM410.9391708,162.1171524c-8.3651658-17.7197599,2.5576524-26.3313051,21.4623797-30.9147434-4.7750666,11.4585956-3.4766865,25.7603307-21.4623797,30.9147434ZM461.924055,371.5787152c9.6596352-.5748852,12.8703884,23.984835,10.1954125,28.7950987-11.6111161-.2659333.0782157-17.8331726-10.1954125-28.7950987ZM931.6756333,465.1481206c-66.6045533-72.9830412-74.6255702-217.0602151-130.385521-302.1510419-26.695008-40.9615461-73.5929454-50.8519175-88.9077515-93.8548926,121.9421395,42.02919,195.3084374,249.6174875,219.2932724,396.0059344Z"/>
    <path d="M447.1412934,251.3923455c4.5091333-3.5899272,6.6092241-8.3063321,3.8951403-15.3731178-4.4270069,3.6292071-6.5662055,8.3456119-3.8951403,15.3731178Z"/>
    <path d="M272.9903612,415.2308803c15.8502389-10.4652566-7.6770345-21.5953463,0,0h0Z"/>
    <path d="M272.9903612,415.2308803c-4.3919764,3.683958-6.4919007,8.3456119-3.8170912,15.3144606,4.3918098-3.5703778,6.6053133-8.2672288,3.8170912-15.3144606Z"/>
    <path d="M290.5965418,464.803805c3.9342482-1.5680575,1.3765958-6.2453546,1.1458596-9.7769589-3.973356,1.6034213-1.3765958,6.2065803-1.1458596,9.7769589Z"/>
    <path d="M195.6544514,498.4132448c4.8884793,12.3737189-7.1410906,34.1998015,11.7245289,32.9757262-5.9209262-9.9294792,6.4919006-38.9905112-11.7245289-32.9757262Z"/>
    <path d="M290.5965418,464.803805c-5.1192156,4.6774637,2.2135034,4.7908764,0,0h0Z"/>
    <path d="M286.7014015,480.1185997c5.0801077-4.696851-2.1783064-4.8689254,0,0h0Z"/>
    <path d="M456.6914267,461.690988c-2.0257858-5.5572233-3.8951403-11.036231-5.8818183-16.5739004-17.0353728,2.3269162-8.9009432,25.4161818,5.8818183,16.5739004Z"/>
    <path d="M354.6825506,488.4994087c5.0801077-4.677297-2.1783064-4.8884793,0,0h0Z"/>
    <path d="M314.886418,507.2516154c-3.973356,1.4900085-1.4509007,6.1868595-1.1847998,9.7417616,3.9340806-1.5682242,1.3764282-6.2259673,1.1847998-9.7417616Z"/>
    <path d="M393.5598187,493.2549214c10.5784997,14.6263302-1.0326164-17.9504961,0,0h0Z"/>
    <path d="M795.2948813,355.5756199c6.1868595,11.0755082,28.8733144,25.2833845,36.1669256,10.3715672-12.1077856-3.3632738-21.0439259-13.2536452-36.1669256-10.3715672Z"/>
    <path d="M393.7512775,507.0990949c-2.2917191-1.0871978,3.7426198,1.7950496,0,0h0Z"/>
    <path d="M406.7350786,530.395632c7.7550836,2.655422,12.1077856,1.1261407,16.4995955-5.7840488-3.3984708-9.6048842-6.8358793-19.2684302-10.2736282-28.9125881-13.6329912,11.8224643-8.8227275,32.3697207-10.1211076,50.0503727,4.4309177-3.5902639,6.6092241-8.2673963,3.8951403-15.3537359Z"/>
    <path d="M394.0563186,520.9235493c-3.9342482,1.5683894-1.4117928,6.2065786-1.1849674,9.702819,4.0126335-1.4313468,1.3374879-6.1281977,1.1849674-9.702819Z"/>
    <path d="M438.5493021,528.408954c-4.8102637-17.0705699-4.7750666-8.7249579-15.3146281-3.7973708,1.1067517,9.4328097,8.6310991,5.69019,15.3146281,3.7973708Z"/>
    <path d="M538.9938649,497.4394597c-2.5967602-11.2317701-10.5043644-11.4392078-20.8522975-6.4762574,1.8693545,15.9833721,16.038123,17.4147188,20.8522975,6.4762574Z"/>
    <path d="M542.1615995,519.5510295c2.6358681,11.3412721,10.5786693,11.5329005,20.930687,6.5310084-2.5969341-11.2083054-7.7904546-17.2074473-18.2166033-12.0882317.6843871,2.5772063,1.0676439,5.0996616-2.7140837,5.5572233Z"/>
    <path d="M559.7290126,569.0850129c-1.2594461,2.6710651-4.9238502.8955694-2.6321311,5.5963311,8.9713373,17.8722805,15.2755202-32.0645137,2.6321311-5.5963311Z"/>
    <path d="M589.4038638,600.3634591c-4.1219658,1.4704546-8.2087345,2.9018013-12.3346111,4.3722559.9542312,2.7883886,1.986678,5.5572233,2.9018013,8.2867873,4.1649844-1.4898456,8.2869502-2.9211924,12.3738935-4.4112009-.9544058-2.7297269-1.9477448-5.4790076-2.9410838-8.2478423Z"/>
    <path d="M439.6208568,662.7482771c-21.579533,1.3765958-31.282357,40.3475531-8.8618353,40.367107-1.5291163-15.6196692,19.9723712-20.2383045,8.8618353-40.367107Z"/>
    <path d="M448.936514,715.2036158c-4.7361298-1.9086227-10.8056657,6.7226368-10.8447736,8.5176864-.3441489,17.5867933,21.5405954-4.317505,10.8447736-8.5176864Z"/>
    <path d="M636.6109311,681.2345506c4.1219658-8.5567942-2.6749759-30.9382081-17.0744806-21.9042982-.4184538,12.8117267,4.2783971,20.2813231,17.0744806,21.9042982Z"/>
    <path d="M631.3000872,692.4233021c3.973356,10.9032643,6.33938,25.032925,17.0353728,21.7320634-5.1935205-9.2644857,4.391986-11.571848-3.2107532-22.0371045-5.2678253,1.6034212-7.6377601-3.324166-13.8246196.3050411Z"/>
    <path d="M561.9071452,758.7228143c-.6491901-6.0734467,3.0934297-9.9099253-1.6816369-17.9504961-15.0837184,1.9123731-10.5786693,21.5014875,1.6816369,17.9504961Z"/>
    <path d="M645.6604841,719.7868939c4.2783971,12.6241692,7.2584141,27.9544405,21.1964464,20.2969667-5.7292978-9.4130961-8.670207-24.8802448-21.1964464-20.2969667Z"/>
    <path d="M467.2309881,806.2349227c-2.2135034-7.1997524-6.8358782-9.4171666-12.5653473-9.4523637-3.7817276,8.056214-.4575617,18.0443549,12.5653473,9.4523637Z"/>
    <path d="M451.0364338,825.843591c.6882979,6.0930007-3.0934297,10.0468027,1.7598526,18.0287118,4.1219658-1.4548115,8.2478423-2.9409092,12.4090874-4.4113638-2.2136749-9.7769587-6.5663769-15.1073566-14.1689399-13.6173481Z"/>
    <path d="M688.5893313,788.2453187c1.5643134-7.1606445-9.5503103-33.5506114-24.1766405-28.681686,5.9209262,14.016248,9.7769587,32.2522313,24.1766405,28.681686Z"/>
    <path d="M694.6234932,818.530426c4.2001814-1.4509007,8.2087345-2.9604631,12.3346111-4.3331481-2.6358681-11.2865211-7.7159758-17.3013061-18.1812324-12.1274977,1.9475702,5.4987197,3.8599433,11.0168352,5.8466213,16.4606457Z"/>
    <path d="M477.8878731,927.891575c-13.292753-6.7421907-5.4633645,8.7836197-19.1352923,11.4585956-1.0678151-8.576503,9.1667052-11.6697779.9149521-23.605489-5.3812381,1.607332-7.6377601-3.3202552-13.8246196.2698441-1.5643134,16.8398336,10.5434722,22.5339344,4.966695,40.0034041,14.5521967-6.7382799,32.3853698-11.9709082,27.0782648-28.1263547Z"/>
    <path d="M491.7516005,927.6256417c1.7559418-6.0343389,1.5643134-13.0426182-3.2107532-22.0959266-16.5347925,1.3765958-9.2411813,26.0849258,3.2107532,22.0959266Z"/>
    <path d="M678.6205672,852.1005913c5.4985616-1.9475702,11.036231-3.9538021,16.4606649-5.9013723-2.3310042-16.9923542-25.361608-8.8579246-16.4606649,5.9013723Z"/>
    <path d="M591.0463929,906.3118718c-5.3851488,1.7010354-7.5595445-3.2265519-13.7855117.289398-2.9018013,12.408916,18.2164294,7.2153955,13.7855117-.289398Z"/>
    <path d="M463.6801681,979.4122365c4.2782258,14.950772,27.9932167,10.9423722,33.1867372,2.0609829-6.6053133-16.0772309-24.364181-9.2020735-33.1867372-2.0609829Z"/>
    <path d="M513.9374751,1003.3578106c-1.4116202-7.332566,1.9475702-26.4875834-14.3212891-27.4222607,1.9475702,3.1911993-.3050411,4.4309177-2.7492808,5.5376694,5.0409999,12.9094962-2.291547,28.5487194,17.0705699,21.8845913Z"/>
    <path d="M477.6962447,992.912261c2.9409092,8.2478423-9.3976127,9.2411813-2.3308269,19.4561478,18.7913146-7.657314,1.0715547,16.1357402,15.5453643,17.7627785,21.4623797-4.8729887-2.4833475-35.959654-13.2145374-37.2189263Z"/>
    <path d="M538.7240208,994.5938979c-.7234949-6.1321085,3.0191248-9.9490332-1.7557686-18.0287118-4.0869419,1.450747-8.3653391,2.9213553-12.413,4.4113638,2.2526113,9.7965126,6.5310084,15.1425536,14.1687685,13.6173481Z"/>
    <path d="M750.3443361,910.3047817c-4.5443304,8.7836197,5.0761969,19.8589585,12.8312806,23.2965371,3.8169247-7.332719-1.5291163-27.2503392-12.8312806-23.2965371Z"/>
    <path d="M378.0533926,1065.4924915c-3.5118836-17.4499159,5.1583234,25.5882563,0,0h0Z"/>
    <path d="M547.2417072,1005.5167161c-9.1277686,4.7907098-18.4469926,9.4875607-10.656885,22.3579491,14.9352821,8.326058,21.7713316-18.2750912,10.656885-22.3579491Z"/>
    <path d="M539.4905344,1036.1616154c-.993339-2.8040317-1.9475702-5.5533125-2.9057121-8.2869502-8.4785786-4.3918098-20.1248918,1.9123731-13.5547755,14.0944636,11.1105358-4.391962,10.6922552,3.8364786,16.4604876-5.8075135Z"/>
    <path d="M511.8021874,1036.6776867c-4.0865962,1.4158558-8.2517531,2.8472026-12.3774574,4.3176571,2.6356958,11.1887515,7.7940192,17.2621982,18.1810601,12.068526-1.9475702-5.4436588-3.8208355-10.9226665-5.8036027-16.3861832Z"/>
    <path d="M776.390154,970.66366c2.7492808-.9892744,5.5767772-1.9474163,8.2480218-2.8820936-1.9477496-5.4790076-3.856212-10.9775692-5.8037821-16.5347925-2.7883886,1.0285361-5.576598,1.9827672-8.2517531,2.9956601,1.8732653,5.4438106,3.8599433,10.9423722,5.8075135,16.4212259Z"/>
    <path d="M408.8742772,1086.9978898c-.7626028,13.382701-.9151233,27.019603.7626028,41.4934126,12.6044551-5.635439,11.0010339-35.6507021-.7626028-41.4934126Z"/>
    <path d="M515.0090298,1058.6953982c-5.0018921,10.6764392,3.1677346,10.5436239,7.293784,20.6060697,18.063736-1.7754957,7.8683235-30.5745052-7.293784-20.6060697Z"/>
    <path d="M768.1384009,973.6242769c-4.1610736,1.4157036-8.2478423,2.9018013-12.3737189,4.3722559.993339,2.7336376,1.9475702,5.4829184,2.9409092,8.2320457,4.1258766-1.4507472,8.2517531-2.882094,12.3737189-4.3525485-.993339-2.7336376-1.9827672-5.4635182-2.9409092-8.2517531Z"/>
    <path d="M544.0700618,1062.285649c3.7074227,7.5243474-1.372685,10.8485134,1.7950496,17.9309422,18.2946451,3.4571326,11.1535545-27.4967186-1.7950496-17.9309422Z"/>
    <path d="M796.0576638,986.9365839c-2.2136832-7.1450014-6.9105342-9.4914715-12.6789398-9.4719176-3.7035119,8.1539835-.3830773,18.1577677,12.6789398,9.4719176Z"/>
    <path d="M679.039021,1023.7526995c-2.7492808,1.0089821-5.4594537,1.9671241-8.2087345,2.9018013,1.4860977,4.1258766-1.607332,6.1281977-1.2240752,9.7378508,6.33938-2.6358681,14.5520253-4.4700255,9.4328097-12.6396522Z"/>
    <path d="M527.8794182,1082.0116409c-5.0409999,10.5786693,3.1677346,10.4848105,7.332719,20.625472,17.9504961-1.8732653,7.8293885-30.5549513-7.332719-20.625472Z"/>
    <path d="M787.1213438,1027.3036909c-1.7207447-8.537393.1134127-23.2769832-12.8703884-23.3551989.7626028,4.9862489-2.2526113,8.0601247-5.2717361,11.2083054,2.9409092,10.5982232,10.8486927,10.637331,18.1421245,12.1468935Z"/>
    <path d="M792.1623437,1002.1729963c5.5378492,26.2178924,19.9371741-3.8364786,0,0h0Z"/>
    <path d="M562.6345509,1088.2571621c1.4117928,4.1415197,2.9409092,8.2673963,4.352702,12.4284699,4.1258766-1.4665438,8.2869502-2.9018013,12.413001-4.3918098-2.444414-9.3154862-8.0211912-11.9513543-16.765703-8.03666Z"/>
    <path d="M820.6524013,1043.2478031c4.0476609-10.5785173-2.1743956-5.1738145-5.8427105-16.4798895-17.0312822,2.3503809-8.8227275,25.377074,5.8427105,16.4798895Z"/>
    <path d="M605.1760536,1142.8516993c-4.8102637-11.3647368-6.4527927-29.5617625-18.5214705-25.9128513-3.8560325,10.7702977-4.4309177,38.6502731,18.5214705,25.9128513Z"/>
    <path d="M786.1280048,1050.7723025c-.2659333,17.7197599,21.6540081-4.2785491,10.9619261-8.4981325-4.696851-1.8146035-10.809226,6.7773878-10.9619261,8.4981325Z"/>
    <path d="M608.1560706,1151.0799878c1.0324468,8.4981325-5.2326283,13.5000245-.993339,23.5468273,5.4633645-1.9475702,11.0401417-3.8755864,16.4252906-5.8428594-2.9409092-10.3712489-6.2650751-20.2811742-15.4319516-17.7039679Z"/>
    <path d="M806.4093279,1094.7490626c5.2678253,9.3585049-4.3566128,11.6658671,3.2068424,22.1115698,19.6673301,3.6096531,9.2804695-31.7946696-3.2068424-22.1115698Z"/>
    <path d="M638.7110218,1158.8350714c-9.4719176,1.1654135-5.7684056,8.7249579-3.8599433,15.2559663,11.650224-3.2850581,11.8418524-11.3412721,3.8599433-15.2559663Z"/>
    <path d="M610.0645329,1182.9333192c-18.0639089.4184538-9.8121557,16.2101975-2.4442397,19.4209507,6.953373-3.6292071,6.9142652-10.4457027,2.4442397-19.4209507Z"/>
    <path d="M584.632708,1229.0882384c9.3547687,22.6631375,31.3136433-9.2644987,38.9162063,4.7908571,2.6710651-17.645455,16.2688592-30.9148913,11.3021642-59.7880577-19.4365939,6.7617446-7.3679161,28.5487194-18.6739911,39.1664965,2.2136787,4.8493715-5.0801077,4.6577431,0,0-1.1849674-7.0667857-6.4175957-5.7488517-8.5567942-10.9032643-4.0085531,1.4860977-8.2087345,2.9564044-12.2563954,4.4113638,14.2430734,15.9247103-12.3737189,12.4480238-10.7311898,22.3226047Z"/>
    <path d="M750.9153105,1160.9156082c-2.1781278-5.670636-1.2201644-9.7378508-.2659333-13.8246196-5.3851488,1.6034212-7.5634552-3.3828277-13.9028352.1134127,2.2136818,9.9294792,6.5701162,15.2755202,14.1687685,13.7112069Z"/>
    <path d="M676.3679559,1173.3831859c-5.8818183,2.8666043-15.6978849,3.8599433-15.009587,9.9685871,6.1868595-1.0871978,9.3937019,4.352702,15.3146281,3.8755864-2.2526113-5.670636-1.2630063-9.7574048-.3050411-13.8441735Z"/>
    <path d="M646.5404104,1207.1058718c-2.9409092,6.2064134,5.0018921,25.9519591,19.7064379,16.2884132-3.4375787-12.064767-7.4109347-22.721652-19.7064379-16.2884132Z"/>
    <path d="M689.5042776,1210.4691456c-2.2135034-5.5963311-1.2240752-9.7378508-.2659333-13.8050657-5.3499518,1.6581722-7.5634552-3.2303071-13.7892458.2072715,2.1390218,9.8356204,6.4919007,15.2207693,14.0551791,13.5977941Z"/>
    <path d="M800.6800301,1157.1925423c2.4051318,6.7969417,4.8493715,13.7112069,7.332719,20.5824534,13.5938834-2.6164628,10.0819998-13.4804706,5.0409999-25.0524789-4.1258766,1.5095624-8.2517531,2.9994217-12.3737189,4.4700255Z"/>
    <path d="M825.6934012,1162.2335422c3.2107532,10.4261487-3.2068424,15.4867026,7.332719,20.680223,18.0287118-1.8928192,7.9076042-30.5705944-7.332719-20.680223Z"/>
    <path d="M754.8886665,1224.4658396c-3.7074227-7.4109347,1.372685-10.7311898-1.7207447-17.8918344-5.6510821,2.0999429-9.8121557,1.2395705-13.8637274.2659333-4.352702,8.4003629,2.2565221,25.6078102,15.5844721,17.6259011Z"/>
    <path d="M670.8654836,1249.5965342c.7665136,20.734974,36.2451412,13.5743294,26.2765542-4.6421-7.6377601-3.9146943-22.2640903-4.4113638-26.2765542,4.6421Z"/>
  </g>
</svg>