<?xml version="1.0" encoding="UTF-8"?>
<svg id="Brussels_sprout" xmlns="http://www.w3.org/2000/svg" version="1.1" viewBox="0 0 1026.6504614 1000">
  <!-- Generator: Adobe Illustrator 30.0.0, SVG Export Plug-In . SVG Version: 2.1.1 Build 123)  -->
  <g id="outline">
    <path d="M826.509188,76.066933c-25.0946711-11.2508218-55.5014014-13.210514-82.8309838-25.8241674C696.9174943,28.6463606,664.3090117-1.4387281,603.1407508.0534233c-138.8861391,3.2197312-247.2693871,65.6845059-319.9006869,137.506728-117.7075365,116.3478797-149.2781448,265.92128-189.2379601,431.8286235-12.2721165,50.7563598-20.4325269,117.3991585-43.3285888,166.1494037-10.975603,23.3637755-42.1285815,49.4167394-47.6661212,77.8637774-5.8260224,29.8695557-3.8829096,73.0689975,12.0134769,101.4032952,25.3897855,45.2685585,90.7990724,98.797004,180.8224025,82.055065,62.65692-11.6089381,122.0445468-68.87771,198.8240276-85.5035928,55.697039-12.0134769,114.2092704-2.9146691,169.0640728-7.1424315,114.6303887-8.8700113,202.9027513-42.9043274,267.0851581-98.4886261,46.2732738-39.910205,69.2955124-91.3793535,96.9832111-146.171154,30.5028911-60.1968368,39.56854-117.3029977,57.3815122-190.6472142,18.6817359-76.8756416,65.1506473-163.8682096,26.6166656-243.0250453-25.7112306-52.8951102-129.7210134-124.7173323-185.2887326-149.8153193ZM966.9504804,345.6290624c5.8260224-16.3672432,3.8831057,16.8081186,0,0h0ZM964.6160924,240.0510591c9.7818816,1.6181553,1.3296727,18.6021545-1.197037,21.0293875-5.40822-1.813793-6.1509798-7.8188735-12.1427967-9.1619508.9383975-7.9016297,14.0861054-2.1553299,13.3398338-11.8674366ZM887.6774489,404.2739295c8.4522089,8.41905,13.3729927,20.0445675,14.9281461,34.6145973-19.752769,12.872293-26.2917082-20.8536452-14.9281461-34.6145973ZM899.4322862,493.4515307c-1.8135988,5.4579583-7.802294,6.2172976-9.1618098,12.1925351-10.3621627-2.3477863.7096009-16.3208207,9.1618098-12.1925351ZM939.4882624,310.2849689c-5.40822-1.813793-6.1841387-7.7857146-12.1096378-9.1153873,2.2680702-10.4251646,16.3539797.6963373,12.1096378,9.1153873ZM933.7915598,263.623595c1.6811573-5.0366993,11.3304032-2.8349469,12.563915.6963374,3.2694696,9.2614273-15.9328614,8.8237295-12.563915-.6963374ZM930.2601347,250.7017044c-7.1225362-4.2244465-14.0859095-8.5947922-11.396721-21.6793023,16.1881851-2.7689116,18.9735344,15.0408864,11.396721,21.6793023ZM924.138998,284.1060011c-6.5720981-4.5361403-9.03249-11.8045757-3.2363107-17.0171581,9.6824048,1.7143162,9.03249,11.754697,3.2363107,17.0171581ZM921.711765,326.1216694c-23.347196-1.7840892-23.8346322-23.9805314-22.5381184-47.6825279,7.188854,14.6993495,33.7756766,29.368856,22.5381184,47.6825279ZM912.742277,262.3603809c-15.574745-4.6953032-21.0492828-18.3600944-18.8475305-39.0214178,6.7047338,11.6089381,29.7269724,24.4182292,18.8475305,39.0214178ZM897.2968517,383.7120828c5.5375397,3.1235703,7.3480168,9.5033467,7.4806525,17.3220828-12.8888725,3.4984034-6.9633733-9.7784284-7.4806525-17.3220828ZM900.1783619,333.2773645c5.4712219,9.5365056,23.5395178,20.9995444,10.6838042,34.3725371-11.2010834-4.61586-8.385891-21.7290407-10.6838042-34.3725371ZM914.6190719,376.2944322c2.5930276,2.947828-1.6844732-1.8767949,0,0h0ZM920.5777299,418.8306956c-2.1352398,5.9719216-3.5942323-.6333354-8.385891-.4708567,1.3595157-5.2789002,8.5815287-3.7734852,8.385891.4708567ZM925.6941514,330.621335c14.7327037-2.1520139,14.2483882,15.5913245,7.188854,21.4371036-14.7026654,2.135573-14.2483882-15.5911859-7.188854-21.4371036ZM938.6161827,398.7861281c-.3249574,5.5839622-.6499148,11.2043993-.9715564,16.7716451-15.3194213,5.7333143-1.6513142-14.41073-11.8841572-13.3065379.9717513-4.8743613,7.868807-3.1434657,12.8557135-3.4651072ZM932.1702836,364.6390716c1.2631598-4.486402,8.5183316-2.3310721,8.8731321-7.9183502,9.0990033,1.167194,8.41905,11.1380814,7.2220129,21.5001063-16.8380999,5.7664742-8.1272514-11.3965831-16.095145-13.581756ZM942.9865285,323.1406825c5.0832625,2.1387504,8.3527321,5.8624972,7.6431312,13.0677917-5.0202606-2.1553299-8.3228891-5.8457788-7.6431312-13.0677917ZM945.3839184,281.1084347c5.9553421,3.9989658,12.9518744,7.0595342,11.6223974,17.5344372-11.1382771.6664943-10.2628816-9.3740269-11.6223974-17.5344372ZM956.0378796,315.4345493c5.8591813-16.2876618,3.9160685,16.9176813,0,0h0ZM951.6973769,391.0932585c-1.6181553-1.8602154,2.5899073,2.8980897,0,0h0ZM956.7176375,231.2241544c-9.0689648,7.8553483-8.0974084-2.3940741-16.5794603-5.2623207,1.4556766-12.1726398,20.5286878-8.9363291,16.5794603,5.2623207ZM929.7096967,187.4444315c12.597074-.1624787,13.9565897,15.883123,7.188854,21.50356-14.6695065,2.1022756-14.2483882-15.6079039-7.188854-21.50356ZM926.503229,170.4138667c-1.8767949,5.3917836-7.802294,6.1511229-9.1319667,12.0600426-5.4712219-3.0439889-7.3811757-9.4237652-7.5104955-17.2094798,8.9363291-1.2799343,11.0087617,3.4949502,16.6424623,5.1494372ZM907.980656,198.827889c9.8448835,2.8980897,16.4832995,17.2757977,6.9302144,25.7114271-9.8448835-2.8649307-16.4832995-17.2127957-6.9302144-25.7114271ZM899.5284471,198.3736118c-12.7562368-6.2007182-1.6181553-8.8401682-7.1225362-21.4836647,14.7026654,2.2813337,10.199684,11.6719401,7.1225362,21.4836647ZM887.581288,480.1746988c-16.4169816-7.9316138-24.0601128-21.9677849-14.377708-42.9540658,7.5138114,11.8211552,16.2248539,22.7005971,14.377708,42.9540658ZM744.5834427,181.0182327c12.9850333,32.349843,35.4269908,61.1183812,22.6342792,119.3256918-17.1298984,28.9510536-41.96593,61.9143366-51.5820169,89.8109366-1.5551534,4.516245.4841202,21.4040833,3.2694696,17.0337375-27.7838596,43.746564-88.7266398,52.4242535-139.5990559,80.5164911,8.7108485-21.5168236,11.4961978-49.8046988,24.9023494-65.9763044,14.8618282,9.3574474-5.7331774,16.8679429,1.9764585,38.0001231,17.8094694.5968606,15.2496008-21.6163004,18.9733476-36.8196655,11.2707171.8753955,38.5041386-27.1206812,33.8718374-2.2514907,6.3466174-4.824623,8.8401682-14.0361711,9.9410444-24.8028726,97.1788487-24.1098512,96.8207324-236.6784279,24.8360316-285.2197718,37.4364214-6.4427783,35.6856304,32.754238,50.7762552,70.383125ZM536.7565917,422.0040044c-2.7853493-12.0797948,6.542255-10.5412209,5.375061-20.7574843,12.6932348,3.7701693,15.5780609-3.4485277,25.4196286-2.7687699,1.2303818,20.7409049-16.3838227,20.336366-30.7946896,23.5262542ZM502.433793,504.3641314c4.5328245-16.7087801,16.6426469-61.2312629,41.9990889-69.2789329.3216415,21.3543449-3.6939038,76.3384671-41.9990889,69.2789329ZM556.930479,364.135056c11.980318-2.9942505,21.3410813-8.8865907,34.3592736-10.6672248.3879594,12.3351185-10.2660018,12.3847187-9.8780425,24.7529964-11.980318,0-17.9389761,6.6882922-29.8894511,6.6882922-1.1307192-10.1831045,8.1604104-8.7109864,5.40822-20.7740638ZM582.4164254,213.8024575c-38.6002995,12.0797948-37.4331055,65.4291822-64.3448855,93.2593246-9.1286509-36.3320897,30.2774104-141.0380134,90.0861556-100.2193821-4.2741849,22.6176998-14.0195916,3.3357874-25.7412701,6.9600574ZM613.6322333,257.7446592c-15.7073807,24.1728531-37.6917451,41.1900112-66.1255195,51.0680537-6.3132733-36.6240278,42.6490037-111.4570799,66.1255195-51.0680537ZM534.3627027,316.4856871c5.6666745,1.6048918,2.8813252,10.7367193,3.2361256,17.0005786,43.6174304-7.7228518,65.76759-39.5222575,92.3542258-66.3510002-1.3926747-23.539659-25.6782681-44.9104421-8.4853678-72.193602,5.6337006.3548005,11.2043993.6963373,16.8380999.9714139,8.385891,23.4269199,9.7155637,62.0272194,6.5424429,105.7737834-21.6960696-6.4261988-11.0087619,23.5594131-30.6323987,19.3813891.2588266-4.207867.4841202-8.385891.7096009-12.626917-5.8591813,12.5937581-35.2943551,42.0289319-43.4879244,22.7967579-8.8401682,4.9539427-8.7738504,19.8953524-26.1323601,15.3625279-12.176141-2.5565528-20.7243259-20.1573079-10.9424441-30.1149317ZM379.3478795,299.1468875c5.6370165-36.9655647,20.8238022-63.2109919,50.6137765-73.0059956,9.6824048,18.4728347-30.2110926,19.6566082-27.8800205,44.7844382,4.6953032,11.9967572,9.4237652-12.7595527,21.4704011-7.2054335-9.6194029,17.4382764-25.5821073,27.9131794-44.2041571,35.4269908ZM363.3851751,357.2214211c-8.1604104-12.4014363,11.4630389-31.6369262,11.3005602-49.9472822,12.4677542,10.7335426,27.9131794-5.0832625,34.5847542-14.8784077,4.7584871,26.2917082-27.8170185,49.2343654-45.8853144,64.8256899ZM446.8660738,298.7423487c9.7155637,15.6709059-22.2794788,22.5381184-27.3959002,36.3952313-8.8070093-14.5401867,21.3410813-23.5395178,27.3959002-36.3952313ZM434.0103602,302.2868975c-11.5590175-25.0149499,22.4386416-37.4163862,28.6260962-57.4443743,17.776681,17.3552382-15.5117431,45.9648958-28.6260962,57.4443743ZM445.56956,248.1119927c1.4888355-16.2546445,18.0052939-15.6079039,22.733756-28.2348209,10.3920057,12.0930584-10.5578003,26.7957238-22.733756,28.2348209ZM460.0765877,215.2115697c15.8035416-35.973971,50.5474586-50.626898,79.9826325-71.3213804,1.750791-11.5427644,16.2578188-8.6611101,21.9876803-15.5415861,12.8225546,10.3124243-13.0811942,14.6695065-21.9876803,15.5415861-22.3422961,28.6426756-49.6720631,51.6184918-79.9826325,71.3213804ZM528.9841407,117.969861c-10.8462829-.1460437-7.7061332,15.2829465-13.8571129,20.3032071-6.4759372-1.4556766-2.39739-9.374171.7759187-12.6136534-23.993795,10.3787422-43.0336472,26.3779214-65.5386066,38.4210981-2.5267098,6.0715417-6.8008946,10.2031432-9.3276044,16.3375435-.1956376,4.2277624,7.0926931,5.6337006,8.385891.4542772,8.2598871,19.8323504-22.4386416,34.3891166-36.2990704,44.2970021-4.1117062-21.0957053,14.377708-55.4383994,37.2407838-61.0888228,17.418381-34.1601767,55.1764439-45.5436342,80.0456344-71.3047997,42.549713,10.0869437,122.790799-28.1220806,151.2875754,8.664426-49.0254642-28.8847358-123.5368747,24.6402497-152.713409,16.5297219ZM229.9735738,404.3535109c17.1298984-10.783281,5.0832625,34.2929557-2.1719093,37.8078013,11.366878,21.8550446-10.9126008,44.3633199-28.201662,49.0254642,4.5626675-21.8749399,20.6911665-30.5857884,28.201662-49.0254642-9.1319667,4.7251462-16.5463014,11.3171396-22.2463199,19.7826121-12.5637386-24.6238145,19.8522458-37.2208884,24.4182292-57.5904134-16.8712588-2.5101303-7.9015937,23.930793-26.4575028,19.5438678-3.6574289-30.9240094,20.8204863-30.3437283,24.1266079-53.3991258-9.4239425,2.7687699-11.3040533,14.0859095-17.9721354,20.0114086-9.9113782-14.2616518,18.131121-24.1728531,19.2321745-41.0407961-11.1382587-3.564584-8.611549,8.2399918-13.37317,11.8675777-15.0574659-28.9344742,16.2248372-44.3168974,24.6768687-61.8348951-7.8686119-1.3595158-9.5199261,4.1780241-17.0668965,3.2861889,63.1113737-94.7317204,131.5349869-183.5380861,248.7250637-217.5888372-100.4483183,58.8239252-180.0761503,141.0545908-225.8951469,261.0137597,7.9979317,23.5096747-6.4427783,34.5184364-15.9958633,58.1408515ZM208.4070119,559.0896141c-11.3005602-8.6611101,2.2979132-26.8124372,6.1178209-33.3678218-4.207867-.3085121-8.41905-.5040156-12.626917-.7294963,1.4888355-22.180002,16.9044177-28.7388365,23.7019965-44.97676,14.7988263,18.3435149-13.7277931,26.1955473-11.0750795,45.7062562,5.3120591-5.9752375,12.7927116-9.5696645,13.7974269-20.3365007,20.1075695,19.4445257-8.9064861,41.6444231-19.9152477,53.7043225ZM206.2052595,596.9604173c-14.6695065-22.6011203,18.1312978-30.260831,19.6864512-49.5095844,18.8143716,11.0087617-13.5021356,37.1578865-19.6864512,49.5095844ZM707.9594149,157.8466355c24.2225915,54.5963063,34.4222755,183.7999018-28.9477377,209.1566672,52.749211-40.7390499,16.0290222-147.4345088,28.9477377-209.1566672ZM690.5708769,312.7785198c-5.6998296,27.1041017-22.4718005,50.4347183-45.1392387,52.2485113,1.6513142-5.6038576,6.4096194-7.7061332,5.1794234-16.5794603-10.0040464,11.2374199-21.0159365,40.0393967-39.538697,27.2168421,6.1544828-25.8904852,19.4941294-43.6835621,36.9821442-56.8609171,6.9600574.4675408,1.7474751,11.7216784,7.7392921,13.1143531,26.2918969-30.9273253,29.7236565-89.9402563,20.5950056-137.99748-15.2862624-8.9529086-23.8677911-23.8810546-22.5712773-47.61621,37.6917451,10.5412209,47.5998198,115.1808267,36.7533476,166.4743611ZM657.0538399,382.5614682c-5.7961793,6.880476-9.6492459,16.0456017-21.9543338,15.6410629.1291322-13.2768318,11.5623281-13.8770083,21.9543338-15.6410629ZM622.7312284,393.2485884c-.2588268,4.1747081-.5174664,8.41905-.746263,12.6103375-5.9254991-.6798951-11.9140002-1.3926747-12.8855566,3.4649701-12.2091146-7.0262382,4.207867-18.6684728,13.6318195-16.0753076ZM593.7799875,383.128348c-7.9979317-13.6182309,5.0534195-41.8862108,23.413701-40.7355962-4.8248101,16.8380999-11.0750798,32.2205232-23.413701,40.7355962ZM578.5303861,428.6424203c3.9490413,16.4799836-4.5661695,57.4909366-28.5931234,57.3616168,7.0595342-21.8252016,7.2220129-51.5355945,28.5931234-57.3616168ZM575.2607304,411.5755238c-.0994768-7.5768134,5.6668595-8.5649492,5.1462645-16.5628809,4.2443418.2420601,8.4522089.4839828,12.6302329.7460757,1.1638781,13.2602524-4.7284621,18.5358366-17.7764974,15.8168051ZM687.5600469,72.2801842c-51.1642145-17.4382764-83.7395382,9.5993622-130.7257287.9383975,35.1020334-21.6794485,102.9087102-40.427356,130.7257287-.9383975ZM197.9155294,301.282322c1.3926747.1127403,2.8151924.1624787,4.2410259.2917985-2.8185083-12.0466359,6.542255-10.5710639,5.3419021-20.7873273,1.4589925.0794411,2.8516672.1923217,4.2443418.2089012-1.2633549-13.293552,6.9268985-16.0754447,9.8747266-24.7398707,1.3926747.1127403,2.7853493.1458993,4.2111829.2287966-.0331589-10.4616395,7.3183512-12.5672309,9.616087-20.4988447,1.3595157.0961609,2.7853493.1956376,4.2111829.2586396.354978-2.5101303.8389207-4.9705222,4.4035047-3.9492274C320.964968,120.1716133,415.9420644,28.4009846,589.1178433,24.4020187c-13.4059655,17.8428152-46.5980459,13.3597291-60.7803015,30.3437283-140.5041131,7.8353071-203.3570285,102.7130726-284.2780584,177.5494406-.3879594,2.5565528-.9383975,4.9207838-4.4035047,3.9492274,1.230196,13.3099907-6.2836155,16.8878383-13.8272699,20.2402052.3549777,12.4180158-10.2991608,12.4180158-9.8780425,24.8028726-1.3926747-.0663178-2.7853493-.1624787-4.207867-.2917985.0630019,10.4914825-3.1733087,17.325536-9.586244,20.5784261-9.9410444,41.044112-8.7108485,94.6024006-36.2029096,115.9600614,6.9302144,8.2234123,13.0811942-.3581163,17.2923771-7.4476307,12.7263937,11.7714171-16.9044177,13.519029-14.314706,28.6892352,11.1082384,3.5446886,8.6478465-8.2068329,13.3099907-11.9007366,12.8557135,29.4350379-21.4040833,44.4926397-29.0140556,65.7839827-8.4522089-72.0642822,22.8299169-138.3191216,44.6882773-191.3767105ZM158.5063277,619.4985357c-14.3447246-22.3093218,16.7749224-31.7828254,19.7857524-49.4631619,17.388538,15.495031-12.5009131,34.2597968-19.7857524,49.4631619ZM166.6997215,624.1441005c-2.2349113,7.9515092-2.5930276,18.0217422-13.5354714,16.1749215-.1623033-10.6373817,7.1556951-12.8225546,13.5354714-16.1749215-.1293198-5.0666831,6.2471406-2.2017523,0,0ZM175.6990525,540.3415603c21.4374187,11.4464594-14.4736933,29.7767107-19.169172,41.0938503-13.9897486-18.9436914,17.2592182-25.2438863,19.169172-41.0938503ZM153.7445312,555.9660437c-10.4581484-16.46672,15.1237837-30.6023679,19.4941294-45.2552949,23.317353,14.8154057-16.4169816,30.7482671-19.4941294,45.2552949ZM179.3266385,477.342927c7.5768134,17.5344372-18.2307746,35.9906925-32.0248856,44.4594808,4.6621442-21.4836647,22.0838411-28.8848708,32.0248856-44.4594808ZM97.2715734,658.0988352c9.6492459-42.5826859,11.5923587-84.0147572,32.4791628-124.574749,28.2049779,110.5054189-33.8718374,180.8686485-65.7010854,261.8394168,4.6291586,6.5256756,2.5897117,18.9436914,15.8665435,17.7466543-8.2267282,5.0169447-34.3891166,2.2813337-50.6767784,1.3097774,24.607235-50.8558366,54.8548024-98.00119,68.0321575-156.3210996ZM73.8282165,846.5277176c-1.2633549-8.2565712,19.4609705-5.0666831,12.3384344,4.9207838-2.8185083-.1293198-5.6038576-.3548005-8.3892069-.5006997.9715564-3.4982661-1.4556766-4.0487042-3.9492274-4.4200841ZM35.9739927,844.3591242c2.5897117,2.8980897-1.6844732-1.8966903,0,0h0ZM29.3355768,886.0962576c-17.1298984-11.980318,1.5849964-25.1112506,10.3291763-33.1589206,10.7201065,9.4403447-11.6256901,19.5272884-10.3291763,33.1589206,5.0832625-.1425834,2.2647543,6.267036,0,0ZM44.1974051,920.7307502c-5.5043808-3.0937273-7.3511603-9.4735036-7.4474936-17.3421155-5.1164215.1624787-2.2349113-6.2802996,0,0,13.2138299-1.1472987,14.4440258,11.4961978,7.4474936,17.3421155ZM59.805309,942.685148c-4.207867-.258516-8.385891-.5005761-12.626917-.7459521.1624787-2.7521904.3216415-5.5673828.5504381-8.4024705,4.1117062.2420601,8.3527321.5006997,12.5307561.7294963-.1293198,2.8150686-.2917985,5.6335769-.4542772,8.4189263ZM63.0449356,959.6858502c2.5897117,2.9609685-1.7176321-1.8303724,0,0h0ZM152.2225367,948.0105943c-15.5084272,2.2679467-.3216415,13.4061516-5.8260224,29.192991-17.8759741-11.5424975-17.1298984-16.8877155-36.6571868-23.2177535-13.210514-1.4092541-3.1103068,23.3803549-21.9545214,15.6079039,23.930793-20.7707479-12.6302329-18.9901139-23.5428337-30.8908505,21.6958818-8.0310906,16.1251831-19.3482302,23.4466728-40.8186313-11.4663548-.2254807-8.0642495-7.497232-16.8082569-.9715564-4.178024,11.705099,5.3120591,11.2540132,3.0439889,21.2747635-8.5152108,7.4806525-10.6539612-.1624787-21.0791259-1.2467754,4.791637-11.6719401,16.6756212-24.0435334-6.9302144-25.6616887-.9383975-15.9627044,9.4237652-19.2189104,14.3113901-28.7222571,16.6457782,1.0842967,13.5686303,19.8655094,32.6084826,18.8442146.4874361,7.9680886-5.2125823,8.939645-5.1462645,16.4832995,25.1278301,8.9529086,23.6356786,19.5604473,44.7512793,27.9463383,13.1143531-4.4200841-5.1827393-16.4169816,5.438063-20.7906432,5.345218.5371745,5.5043808,5.7165979,12.3386097,4.8743613-8.6778648,10.2328429-11.7550127,21.7620757,2.4933755,29.6308115,5.2125823-.1624787,10.0372053-.6333354,8.9363291-7.8687358,14.7990023,8.0610575,16.191677,28.1222045,22.7967579,43.4880483-21.1786026,15.9792839-20.3032071-21.6328798-32.2205232-27.1538401ZM109.1888895,890.7119794c-12.8223807,11.4464594,12.7893957-11.396721,0,0h0ZM188.587925,975.4064945c15.8997024-7.3679122.1956376-21.0957053,5.7000185-25.0150897,14.6031887,4.1448651,24.7398707,1.1506145,50.6436195-1.2931979-10.6208023,17.9058171-35.4236749,19.9450908-56.343638,26.3082876ZM187.0990895,928.970742c-26.0363845-23.3803549-42.6456878-55.0338606-84.8735733-63.9867692,5.2789002-9.4536083,15.9660203,6.8672125,21.50356-7.1722745-19.7859279-10.3124243-33.1920796-26.2287062-39.3762183-48.6706637,10.4251646-13.0811942,21.2084456,1.9596922,30.1447748-10.9258644,1.0047153-7.4973594-3.594427-10.0073622-12.1096378-9.0855443,29.4683328-96.6582537,91.4788303-163.834911,156.6294775-231.3332098-23.2477193-21.5997209-5.4712219-63.4363311-3.4949502-84.4358755,1.4888355-16.7087801-6.9965323-36.9954078-5.2789002-55.2427618,3.9193844-41.8399261,21.5667404-76.2423062,27.7838596-116.3977591,68.5825956-36.4118108,80.7918907-136.0676308,156.9875939-163.8183315,3.3324715,15.8499641-24.4182292,35.1186129-36.4947081,48.4418672-18.555732,94.0221195-76.4876822,143.9063997-93.8762202,239.2217171,2.1685934,11.3005602,5.345218,21.7290407,10.8495988,30.1147958-6.542255,8.9860677-11.6586765,19.6070057-10.5244622,37.3205011,30.6651906-3.7734852,29.0140563-37.2407838,53.753747-55.9258356,1.2633549-9.082365-14.7656674-2.7821699-20.7243254-5.4546424,1.4890156-30.5859257,9.8450638-69.7033671,42.4202072-77.6184014,9.6824048,15.5084272-24.9985103,19.477412-23.4466728,40.7985985,15.9660203-.8255197,25.0648281-10.0204884,46.727551-5.7463035,6.9965323-15.5283225-11.0419206-8.7109863-7.218697-21.5168236,16.5131425-11.2872966,20.6580076-36.4615491,44.4594808-39.5884354-2.5267098,2.39739-10.9789186,19.3316507-1.2003529,20.9995444,19.3316507-8.0940925,16.741939-20.7243254,38.9882589-18.8276351,1.9762717-10.9954981-5.0169447-14.1522273-16.0290222-13.5686303,27.6545398-99.3474421,77.1676253-169.3558713,182.7321799-170.7319665-3.1733087,9.8581471,3.4651072,30.7282288-6.154108,33.3346629-24.9323801,7.5635498-9.6492462-20.6414281-24.0271416-22.48838-9.586244,1.2797909-1.3926747,22.2960582-9.8448835,24.7398707-94.8444607-17.5675962-95.1362592,86.9128469-113.5925144,141.0215736,11.5260408,7.0595342,17.3553791-.4045388,33.4474033,6.1541565.1624787,19.510848-16.4501405,30.5826116-2.4603919,41.999228,10.0405212,7.1059567,13.2436729-13.4890489,4.9240997-12.3219933,8.0940925-13.2103756,10.4583236,11.5261792,25.0283533,5.6172595-1.9729558,9.7155637-5.4049041,17.8759741-13.8571129,20.3032071-12.8223698,11.7879963-6.6715748-10.9291802-20.4988447-9.616087-19.4609705,6.5720981-5.3419021,34.7603594,10.6539612,34.3095352-2.1055915,33.4639827-45.9814753,20.0578311-57.3151943,43.1463875,10.8794419,13.2602524,29.4021991-2.5732683,42.2908874-1.780634-9.6824048,35.7187893-41.319331,83.0266214-79.2728491,58.628153.4872536,20.9665201-19.3316512,27.4258778-28.1056836,48.9592809,35.7154734,18.0384528,72.3096582-37.17115,120.0717675-35.2314874,10.4251646-6.2007183,19.4278116-13.9862985,30.599052-19.3316512,11.2375582.6500496,22.4419575,1.2800691,33.6797021,1.9432475,81.1463241-38.5969836,160.6779953-79.1569754,195.2594336-170.0024702,16.1915009-92.838346-19.6234492-139.3239793-34.5814383-204.3949027,47.5664717,65.2003857,75.8709263,176.0274461,31.6667692,254.7964621-31.5706083,56.4099558-89.7943571,147.0763925-145.3289174,181.3859277-43.133124,26.5536636-102.5505939,40.8982127-151.2212576,62.9820539-66.8682794,30.2442515-132.96064,63.4031722-170.6523851,108.1874816-13.8604288,4.4036335-2.39739-13.7442438-16.3539797-9.3738981-12.04332,3.6275859.1293198,17.972135-1.4225177,25.2570215-5.6038576-1.6843448-7.709449-6.4260704-16.5496173-5.1461361-9.9410444,60.488376-69.9421113,85.1620559-50.9685769,153.0349259,56.280636-21.8084975,43.2292848-121.4643175,93.0008247-150.6574313,13.6017892,9.8448835-6.6715748,18.9602708-5.8923402,29.1931137,14.7988263-2.735611,16.8380999-19.8323504,22.8930989-32.4128449,12.4677545,5.9420786-5.3420822,14.1489114-1.4558567,25.1742526,19.4611511-18.4728347,28.9477377-48.0704873,46.173797-68.9871344,8.9728039,11.8674483-15.0574659,24.7232912-11.1049225,45.7394151,16.6756212-11.2375582,19.3946527-37.9371211,36.527867-48.4916055-2.980987-17.663757,12.626917-.0994768,0,0-.2287966,16.0454724-11.6918354,19.6068698-14.5070278,32.8505427,25.1576731-11.980318,27.5550631-49.5129003,54.0125658-60.1005437-1.9762717,20.1573079-12.2091146,31.0035908-19.3979686,45.2850087,24.577392-2.3143634,26.5205047-68.6653636,67.1269189-67.8397065-5.7298615,11.5293567-10.879258,23.5892561-14.7988263,37.1247275,22.0208392-14.0527506,22.0838411-52.7326315,49.8677008-60.3757627,8.2897302-.8257887,7.9682738,6.1375848,12.113139,9.1021237,8.0607483-5.8293382,10.9424441-17.5841756,18.2604323-24.239171,205.7212595-35.6193126,367.8915927-358.2556104,190.6969526-528.6791989,29.2096932,1.7640546,82.476376,16.7220437,98.7008432,43.6171-7.4176505,52.6366148,16.2545029,98.4721908,21.596405,136.1639359,12.8258705,90.3149521-15.6707127,136.1173692-49.4465825,199.5038262-36.0072719,67.6310703-71.6929023,129.512248-115.4392769,174.6680661-49.6092506,51.180794-147.5640181,124.8466521-201.8020646,135.9548905-21.4372422,4.4199564-43.9123586-1.9265333-63.2108504.6001765-45.1723976,5.8127588-80.9873478,25.436208-120.1347695,35.2147737-12.9220314,76.4512074-38.7296193,138.4650208-137.5266234,118.6293545ZM852.7047353,499.2177321c-.7759187-9.8115898,1.6214712-16.0952053,5.40822-20.7243259,6.8672125-.3414015,6.8672125,27.9431578-5.40822,20.7243259ZM735.2259953,635.8690948c11.4298799-15.8035416,5.3419021,14.2450723,0,0h0ZM357.0385577,833.3172037c-24.3187524,3.349051-11.4000369,20.6414281-23.1847173,36.5742895-12.597074-71.4176833,93.2926232-65.2998624,135.0960745-76.5009458-44.2340001,11.4630389-69.9785861,43.7134051-112.882733,56.7315973.1291393,5.099842-6.2506371,2.2514907,0,0,.2584591-11.5293567,7.480472-8.0642495.9713759-16.804941ZM560.4619041,815.553843c-19.6234492,16.7752248-27.2997394,46.8735771-45.8853144,64.7628147-1.3926747-.1127403-2.8516672-.1923217-4.2111829-.2254807.1293198,5.099842-6.2504565,2.2183318,0,0,2.6228706-13.4227311,9.3574474-22.326027,10.5909593-37.3535241-12.5009131,12.9220314-25.131146,25.4527875-32.0912034,44.5589576-8.6146876-15.7869621,11.5923587-37.5160028,11.7548374-58.3530685-24.2854099,8.4522089-14.1853862,55.6340371-45.4011941,56.4098307,1.5551534-20.6611984,10.2029999-33.3378537,15.5450854-49.7383822-23.7054958,7.7725773-24.5145734,41.1072402-41.2565125,56.6685968-9.3574474-13.7641431,7.0926931-36.6406082,11.303876-49.9338937-23.6058356,4.7450415-21.9876803,37.8873827-36.7533476,52.6529253-12.3384344-7.009671,4.5661652-18.1974908,1.681339-29.3554676-19.069877.9251339-15.8667253,26.8454622-27.3596072,36.3653883-7.2220129-.2089012-10.5909593-3.8862255-12.1129537-9.1783892-13.8604288,14.2948107-31.9917266,23.8313163-56.310479,26.2917082.1293198,5.1495804-6.2836155,2.2680702,0,0,63.7911315-80.5330706,192.3151079-88.3685235,270.2253079-153.0847889,10.2958449,40.6727321-4.761621,76.680004-31.0234862,99.3474421-9.7122479-14.0030122,13.2138299-29.6109161,11.303876-49.8346687ZM552.1058561,886.7128885c19.3316507-29.1432503,45.7230223-50.1262153,47.8615861-98.5050805,26.5536636-7.4474936,36.5910565-33.4507191,57.5075161-47.2448301-.1293198-5.1164215,6.2836155-2.2017523,0,0-26.0993864,58.7077418-47.5333127,122.6614792-105.3691021,145.7499106ZM706.6330581,693.1842891c-14.377708,70.3632296-59.3876269,145.1034367-112.0108339,187.5534869,46.0479808-52.6830196,58.707869-142.9978453,112.0108339-187.5534869ZM675.9676882,860.096348c30.53605-55.2129188,58.2535918-113.5626714,85.7788118-172.1743795-48.8663013,55.5511397-62.4647747,150.687399-128.8157749,186.6316689,27.071131-62.1729762,78.0726786-121.2356456,82.8011407-193.4823019,25.4826305-31.0997517,66.5764809-44.668382,96.8538913-70.2670687,1.230196,121.5141806-64.053087,207.3095718-136.6180689,249.2920813ZM749.5373855,826.3869892c28.1386601-45.4807756,60.2961813-88.8095372,76.0002461-147.4013499,11.8509982-44.6551184,5.8626897-97.9879264,40.6064142-119.9590272-19.6564152,92.838346-48.1202256,214.5116894-116.6066603,267.3603771ZM883.1446244,703.3673937c.0663178-44.6716979,33.6131979-90.4906944,37.8873827-145.3454968-36.0105878,81.8461638-51.5853328,186.6482484-114.8923441,237.9086238,22.9592367-66.7389596,53.5947634-162.3958138,68.87771-244.8222588-.1624787,1.0842967,3.9193844-2.8019288,4.4698225-3.9193844,18.2309688-39.3099004,60.2597065-68.323956,89.4030818-87.6556067-12.7230778,99.1186456-39.4721841,182.4238019-85.7456529,243.8341229ZM990.1652373,308.9586121c-4.8248195-.9881358-7.5106921.4841202-8.6447271,3.7237468-9.7454068-1.6513142-1.3263568-18.6054704,1.197037-20.9663855,7.3513327,1.4390972,9.1651257,7.7691351,7.4476901,17.2426387Z"/>
    <path d="M528.9841407,117.969861c6.1874546-2.2183318-.1589779-5.0666831,0,0h0Z"/>
    <path d="M262.9036979,271.329869c-4.0785472-.079722-3.5279311,4.9373633-4.6621442,8.1436905,4.0155453.1294602,3.531425-4.9538024,4.6621442-8.1436905Z"/>
    <path d="M258.2415537,279.4735595c-7.0595342-1.9595518-8.0940925,2.8516672-8.9363291,7.9184906,3.9160685-1.6514545,7.7691351-3.2396265,8.9363291-7.9184906Z"/>
    <path d="M249.3052246,287.3920501c-5.2789002,1.5551534-8.939645,4.8876249-9.0988078,12.1094979,5.2457412-1.4721162,8.9031702-4.857642,9.0988078-12.1094979Z"/>
    <path d="M655.5020024,336.0758385c-4.9539427.4212572-3.9823864,7.4807914-4.8909408,12.3717322,4.9539427-.3879594,3.9527314-7.4474936,4.8909408-12.3717322Z"/>
    <path d="M242.7299883,329.2119417c-1.6813349-1.8932352,2.5928499,2.8352268,0,0h0Z"/>
    <path d="M233.5978439,341.3217186c-4.1747081-.1591628-3.594427,4.9572586-4.6951259,8.1471468,4.0816858.1591628,3.5312477-4.9406792,4.6951259-8.1471468Z"/>
    <path d="M426.6590275,356.6079811c-7.3181738-.6963373-13.0811942.2253422-17.0967395,3.2694696-.4874361,5.7961793,1.4888355,9.3904682,3.5612681,12.838996,10.9457597,1.9432508,14.1522273-5.0168067,13.5354714-16.1084656Z"/>
    <path d="M236.5788308,362.5666391c6.2506342-2.2680702-.1293198-5.099842,0,0h0Z"/>
    <path d="M236.5788308,362.5666391c-3.5312476-1.0212948-4.0818631,1.4225177-4.4035047,3.9490893,3.4949502.9385356,4.0155453-1.3427981,4.4035047-3.9490893Z"/>
    <path d="M232.1753262,366.5157284c-3.594427-.9548387-4.1448651,1.4425512-4.5326472,3.9825245,3.5279319.9417133,4.0453884-1.4225177,4.5326472-3.9825245Z"/>
    <path d="M377.9883638,395.9841993c-2.2315954,7.8851913-12.4345952,6.9302144-9.5829281,20.5286878,18.1016361,4.3073438,20.0744106-15.2199446,9.5829281-20.5286878Z"/>
    <path d="M508.0676779,407.6892983c-4.2412103-.2089012-8.4192343-.4675408-12.6635761-.7294963-3.7867487,4.7118826-6.2172976,10.9954981-5.3417182,20.7906432,12.1127698.1458993,20.2068623-4.0818631,18.0052944-20.061147Z"/>
    <path d="M159.802666,450.8854242c5.3087432-1.5186786,8.969488-4.8710454,9.1286509-12.1096378-5.3087432,1.505415-8.9363291,4.9075203-9.1286509,12.1096378Z"/>
    <path d="M475.2335304,464.8751728c-5.6370165-1.7143162-7.6762901-6.4261988-16.6126192-5.2291618-1.6511312,19.0100092-13.4393105,26.666404-19.139329,41.0938503,25.2571499,10.2328429,17.5841756-23.5759926,35.7519482-35.8646886Z"/>
    <path d="M159.802666,450.8854242c-6.2836155,2.2514907.0963364,5.1164215,0,0h0Z"/>
    <path d="M295.6116573,509.3048106c12.9518744,2.7190315,15.637747-9.6492459,9.3576266-16.3042413-8.7773455,2.0391387-17.9721354,7.0893772-9.3576266,16.3042413Z"/>
    <path d="M290.428918,525.851112c.2917985-5.5872781.6167559-11.1546609.9383975-16.7916774-5.6005417-.2884826-11.2340637-.6300195-16.7716036-.9848199-.0994768,10.783281,5.146086,16.675487,15.8332061,17.7764974Z"/>
    <path d="M921.0320071,558.0218968c6.2504565-2.2682036-.1293198-5.1330009,0,0h0Z"/>
    <path d="M268.4412377,541.5087543c.1293198-2.8516672.3249574-5.6370165.4874361-8.41905-2.5930276-.4078547-4.9539427-.858816-3.9822082-4.486402-2.8185083-.1624787-5.6038577-.308378-8.3560482-.4841202-.4212963,2.6062912-.9717344,4.9705222-4.4998435,4.0122294-.1624787,2.7687699-.2917985,5.5375397-.4542772,8.4354956,2.5267098.2753528,4.8878029.8423704,3.9492274,4.3903749,2.7853493.1591628,5.6038576.338221,8.41905.5006997.4211183-2.5731322.8755737-4.9207838,4.4366636-3.9492274Z"/>
    <path d="M397.4826748,570.0187943c-1.0678988,10.4119011-8.6447122,12.563915-1.1640597,20.9663855,16.6756212,5.1164215,18.3600944-24.090089,1.1640597-20.9663855Z"/>
    <path d="M390.3267982,620.194873c1.9762717-10.9921822-4.9871017-14.1356479-16.0290222-13.5852098-.1624787,5.8457857-2.4603919,9.1021237-4.9539427,12.4047522,7.0263753.3879594,14.0859095.8090777,20.982965,1.1804576Z"/>
    <path d="M355.8083618,635.0434377c-4.9207838,15.2497876,19.6567892,17.9058171,20.7574843,5.3916405-7.2220129-4.0818631-11.5293567-13.9897486-20.7574843-5.3916405Z"/>
    <path d="M267.5691581,629.9734387c-9.552907-1.6977367-15.8367005.1127403-17.325536,7.4010711,10.5579784,2.8649307,15.8997024,8.1438309,17.325536-7.4010711Z"/>
    <path d="M349.4617444,672.6224424c6.2172976-5.1495804,16.3506638-21.3742402,1.4258336-25.160989-6.2172976,5.1330009-16.4202975,21.2913429-1.4258336,25.160989Z"/>
    <path d="M330.9391713,701.0993235c.5504381-8.3693116,11.7548374-4.6787237,9.3242885-16.3672432-5.3419021-.5338586-5.4712219-5.7331774-12.3351185-4.9075203-1.813793,9.7487227-10.0073622,17.633914,3.01083,21.2747635Z"/>
    <path d="M483.4237838,688.8106275c-6.2802996,2.2017523.1624787,5.03684,0,0h0Z"/>
    <path d="M204.5539453,698.0586505c11.2043993,3.5279794,8.6776895-8.2897302,13.3731697-11.950475-4.211183-.2254807-8.419227-.4841202-12.6304099-.7129168-.2254807,4.2277624-.4841202,8.4356294-.7427598,12.6633918Z"/>
    <path d="M313.8722748,704.3056615c-3.7867487,4.6788533-6.1839594,10.9790483-5.4049041,20.8238027,16.1251831,2.0858252,23.4765158-18.5556029,5.4049041-20.8238027Z"/>
    <path d="M198.9832466,722.9741343c-3.7237468,12.7431024-3.4319483,7.9184794-1.230196,21.049412,16.7087801,5.0501036,18.3932533-24.1894326,1.230196-21.049412Z"/>
    <path d="M156.6592003,724.7880564c-7.7689598,19.1525926,20.8868041,15.8499641,16.8082569.9549769-5.5706987-.338221-11.2043993-.6631784-16.8082569-.9549769Z"/>
    <path d="M369.7981104,758.1591941c4.0155453.1291915,3.5281092-5.0202606,4.6621442-8.1769898-4.0818631-.1624787-3.594427,4.9207838-4.6621442,8.1769898Z"/>
    <path d="M144.1616031,795.7514625c5.6005417.3415369,11.2043993.6664943,16.7717821.9549769,4.2741849-15.9792839-19.1360131-17.3222201-16.7717821-.9549769Z"/>
    <path d="M387.412129,818.1768405c-9.03249,3.2396265-25.1278301-1.2467754-21.9545214,15.574745,14.2483882,2.6228706,23.993795.1624787,21.9545214-15.574745Z"/>
    <path d="M59.5135105,875.2002363c-8.0609336,6.7677357.3249574,16.5496173,11.6255176,17.5211737,1.7509644-10.9291802-.5172792-18.1346137-11.6255176-17.5211737Z"/>
    <path d="M217.9899399,905.3980653c-.1923217,5.7795999-2.5233939,9.0490694-4.9539427,12.3515737,11.1413973,7.351457,18.0384528-1.0510135,28.9178947,10.0870679.3548005-5.5673828.646599-11.1546609.9715564-16.7253596-16.3539797.8123936-15.2199446,3.6441654-24.9355083-5.713282Z"/>
    <path d="M90.6663164,919.1754726c-.4542772,16.3043655,10.0073622,22.9759403,19.2984918,30.6323351,5.7665107-2.427233,8.3892069-8.5317903,9.3906063-16.3506638-12.3682774-2.2349113-9.6824048-17.8593947-28.6890981-14.2816713Z"/>
    <path d="M123.3079579,937.9070711c-2.0425895,17.325536,4.0155453,17.1962162,16.0920242,13.5387873,1.9099538-10.9954981-5.0169447-14.0892254-16.0920242-13.5387873Z"/>
  </g>
</svg>