<?xml version="1.0" encoding="utf-8"?>
<!-- Generator: Adobe Illustrator 27.2.0, SVG Export Plug-In . SVG Version: 6.00 Build 0)  -->
<svg version="1.1" id="cardamom" xmlns="http://www.w3.org/2000/svg" xmlns:xlink="http://www.w3.org/1999/xlink" x="0px" y="0px"
	 viewBox="0 0 500 1087.0319824" enable-background="new 0 0 500 1087.0319824" xml:space="preserve">
<g>
	<path d="M246.5131683,1052.1335449c9.2838745-10.3925781,19.9503937-20.7967529,33.2580719-25.7010498
		c13.7537231-5.0879517,27.2217712-5.3969727,36.2773438-10.5985718
		c37.3287048-21.2767944,59.5421143-52.1114502,78.6238098-84.6495361
		c5.956665-10.1525269,43.8789062-71.3640747,52.9110718-92.2171021
		c57.3130188-132.3590698,55.2666016-250.6202393,49.870697-329.5882263
		c-1.7373352-25.6202087-4.9849548-44.2219238-9.0544128-63.4862671
		c-2.1271973-10.0834656-28.811615-99.4779663-37.7981262-125.4880676
		c-8.0253601-23.2202148-20.9326477-46.3830872-30.2399292-69.5459595
		c-10.0378418-25.0149536-26.1119385-47.0691376-31.7489929-68.0368958
		c-8.4257202-31.4750366,0.8230286-95.7854996,9.0895386-114.9011612
		c5.8653564-13.5816231,11.5808411-30.1486015,9.8317871-46.897049
		c-2.8460388-27.0848083-69.3855896-28.4451942-77.8686829-1.4868259
		c-3.6819458,11.7307014-4.2872009,51.2076721-7.5570679,68.0368958
		c-2.6072083,13.4341125-89.6110687,136.0749664-113.3920746,149.6682892
		c-7.969162,4.572876-50.1903229,38.563797-61.9889221,52.9228058
		c-14.6118622,17.8126221-32.9501572,29.268219-45.3540268,46.8747864
		c-12.5654297,17.8243408-21.9968185,38.5520935-33.2592316,60.4576111
		C39.7835617,452.740387,13.6025562,514.1813965,6.1368194,588.0040283
		c-3.7837949,37.3170166-6.6883726,64.8700562-6.0479841,96.7443237
		c0.5596083,27.6561279,6.6427145,60.7772217,12.0959692,92.2183228
		c5.3619375,30.9598999,8.0031004,64.1618042,15.1141062,90.7197876
		c10.3808498,38.7920532,29.1312428,79.390564,46.8630981,102.8051758
		c9.3751907,12.3699341,29.3372879,31.53125,42.337059,42.3358765
		c17.5948792,14.6341553,56.2148743,19.8133545,48.2457275,50.2125244
		c-2.6294556,10.0273438,49.2080688,34.0822754,71.1814728,19.3217773
		C244.8671265,1076.3712158,245.8961945,1062.9265137,246.5131683,1052.1335449z M393.1633301,16.5186977
		c-13.3884583,5.2706203-32.7663574,4.5389137-49.8929443,6.0479832
		C353.1829529,10.3220301,376.2076721,10.7341261,393.1633301,16.5186977z M316.048584,953.8673096
		c2.0230408,0,4.0472107,0,6.0596924,0c0,1.9902344,0,4.0249634,0,6.0374146
		C318.2554321,959.732605,316.2312317,957.697876,316.048584,953.8673096z M248.0222321,950.8269043
		c3.0989227,1.4517212,5.9906311,3.109436,9.0778351,4.5388794
		C256.437439,960.4303589,246.8796082,956.6454468,248.0222321,950.8269043z M328.1668091,950.8269043
		c2.2759094-2.2302246,6.631012-2.4245605,10.5646667-3.0181274c-0.6404114,2.8811646-3.2581482,3.8071899-3.018158,7.5570068
		C333.0370483,954.0276489,331.2996826,951.7178345,328.1668091,950.8269043z M235.9262695,952.3476562
		c-1.806427,7.373291,6.9974518,4.0928955,4.5389099,12.0842896c-2.0230103,0-4.0237885,0-6.0479736,0
		c0-7.0430908,0-14.085022,0-21.1398315c2.892868,0.618103,6.5057373,0.5373535,6.0479736,4.5166626
		C241.1851807,954.0393677,236.3957367,946.3676147,235.9262695,952.3476562z M278.2738647,959.9047241
		c2.2524719-3.602356,7.5570679,2.4116821,7.5570679,6.0585327
		C282.8244934,964.4319458,280.5263367,962.1794434,278.2738647,959.9047241z M255.5910034,973.5203247
		c-4.321167-1.2339478-8.665741-2.4456787-7.5687714-9.0883789
		C252.3328552,965.6776123,256.6774292,966.8787842,255.5910034,973.5203247z M240.4651794,981.0668335
		c-2.8694458-0.6403809-3.783783-3.2581787-7.5570526-3.0076294c1.7490692-1.8063965,1.7034149-5.3619385,1.509079-9.0883789
		C236.6579742,972.7885742,241.5972748,973.8867188,240.4651794,981.0668335z M254.0819244,987.1148071
		c-2.2524719-1.7841797-6.7562714-1.2924805-6.0596924-6.0479736
		C252.7554932,980.3690796,254.7796783,982.3932495,254.0819244,987.1148071z M240.4651794,997.7134399
		c-4.4358826-2.4585571-10.7929382-4.677063-7.5570526-10.5986328
		C237.5617828,988.5091553,242.3629303,989.7559814,240.4651794,997.7134399z M264.657135,988.6355591
		c1.2117004,0.7879028,2.4585266,1.5664673,4.5271912,1.5196533c0.6520996,3.15625-1.0278931,4.0015259-1.5090637,6.0374146
		C264.3831787,995.9748535,264.4405518,992.3737183,264.657135,988.6355591z M248.0222321,994.6835938
		c1.5207825,0,3.0298462,0,4.5389252,0c2.0815582,1.9550781,1.4985352,6.5618896,1.5207672,10.586853
		C250.7441864,1003.0519409,246.9931641,1001.2454834,248.0222321,994.6835938z M240.4651794,1005.2704468
		c0,1.5090942,0,3.0181274,0,4.5389404c-3.1094513-1.9328613-7.6717834-2.4245605-7.5570526-7.5687866
		C235.7775879,1002.8915405,236.7036285,1005.4870605,240.4651794,1005.2704468z M248.0222321,1008.2885742
		c2.5955048,1.9434204,5.9449615,3.1212158,6.0596924,7.5453491
		C249.725647,1015.6630249,246.8796082,1013.9584351,248.0222321,1008.2885742z M267.6752625,1011.3184204
		c-2.7090759,0.1826782-3.1890564-1.8637695-6.0362854-1.5090332c0-2.5275879,0-5.0540161,0-7.5687866
		C266.8522339,1002.0568237,268.6703796,1005.2927246,267.6752625,1011.3184204z M282.8010864,1005.2704468
		c-4.9955139-1.074707-8.8717957-3.2359009-7.5687866-10.586853c3.7966919,1.2456055,5.9461365,4.12677,10.5986328,4.5271606
		C286.9173584,1003.3375854,282.8244934,1002.2628784,282.8010864,1005.2704468z M329.6653442,990.1552124
		c-0.1030273,4.0471802-3.4641724,7.2713623-6.0479736,4.5283813
		C323.1596069,990.7042847,325.7094421,989.7103271,329.6653442,990.1552124z M297.9151917,990.1552124
		c1.1098328,4.1045532-2.9947205,3.0415039-3.018158,6.0374146c-3.280365,0.2739868-0.6965637-5.3619385-1.5195923-7.5570679
		C294.5996704,989.4234619,295.8348083,990.2020264,297.9151917,990.1552124z M285.8309326,991.6420288
		c-4.9849854-1.0513306-8.8835144-3.2008057-7.5570679-10.5751953
		C283.9109192,981.4672241,287.0882874,984.3483887,285.8309326,991.6420288z M270.7051086,981.0668335
		c-5.5902405,1.0629883-6.6766663-2.3894653-6.0479736-7.5465088c2.2302246,0.7890625,3.8071899,2.2302246,6.0479736,3.0075684
		C270.7051086,978.0592041,270.7051086,979.5682983,270.7051086,981.0668335z M325.1264343,973.5203247
		c-5.3970642,2.7324829-11.7986145-3.6690674-9.0778503-9.0883789
		C319.3184509,967.2322998,326.3381348,966.250061,325.1264343,973.5203247z M310.0123291,964.4319458
		c-0.526825-0.057373-0.8464355-0.3208008-1.1098633-0.6638184c-3.7381287-1.8403931-12.0151978-2.0112915-15.5250244-6.8709717
		c4.5377502,0,9.0766602,0,13.6155701,0c2.1611633,0.7434082,0.6977539,5.1570435,1.9094543,6.8709717
		C309.3368225,963.9741821,309.7254944,964.1802368,310.0123291,964.4319458z M365.9532471,958.3839722
		c-0.3781433,1.6459961-3.0075989,1.0396118-3.0298462,3.0403442c-2.3320923-2.1950684-3.1668091-5.8875732-3.0181274-10.5974121
		C365.4041748,949.8552246,361.7796021,958.0409546,365.9532471,958.3839722z M372.0012207,950.8269043
		c-3.3962708-5.1219482-8.7464905-7.7057495-6.0479736-15.1141357
		C368.9023132,939.8056641,372.2412415,943.5203857,372.0012207,950.8269043z M229.8782806,923.6168213
		c-0.8569641-2.6411743,1.841568-8.8729248-1.4973602-9.055603c3.2007751-3.109436,6.184967,6.8370972,7.5453491,10.5646973
		C233.2172089,925.3307495,232.7477417,923.2960205,229.8782806,923.6168213z M248.0222321,919.0884399
		c0.8921051-3.1433716,3.1785278-4.881958,4.5389252-7.5570679c14.703186-2.6411743,20.4420776,11.1816406,13.6167297,21.1738281
		C256.7804565,931.505188,254.0362701,923.6730347,248.0222321,919.0884399z M323.6173706,938.730957
		c-8.0487671,1.017334-12.9424133-1.1437988-16.6243591-4.5283813c0.2973633-4.7215576-1.0290833-11.0891724,1.5090637-13.5933838
		C321.9701538,917.5114746,324.9777527,931.9395142,323.6173706,938.730957z M282.8010864,926.6572266
		c4.0366516,0,8.0604553,0,12.0959473,0c-0.8908997,6.4366455,1.0864563,9.9921265,1.5207825,15.1035767
		c-4.321167,2.8237915-13.1824036-0.2412109-16.6465759-3.0298462
		C278.8908386,932.8199463,281.0754089,929.9727173,282.8010864,926.6572266z M334.2042542,934.2025757
		c0-4.0238037,0-8.0593262,0-12.0842896c6.5958862-3.1328735,15.6620178-0.9026489,19.6413269,3.0076294
		C351.3413696,932.1912231,344.5043335,934.9342651,334.2042542,934.2025757z M384.0971985,925.1259155
		c-5.4193115,0.8803711-4.6079712-4.4710083-4.5506287-9.0438843
		C381.9700012,918.185791,383.4228516,921.2730103,384.0971985,925.1259155z M287.3294678,914.5612183
		c0.3418274-6.2305908,6.6766663-6.4366455,6.0479736-13.6166992c5.1558838-1.1087036,2.5030212,5.5796509,6.0585022,6.0479736
		C298.6468811,912.7665405,294.0283508,914.6982422,287.3294678,914.5612183z M311.5213928,896.4055786
		c5.1324768-3.5777588,14.8389893-4.1045532,18.1439514,1.5324707
		C330.4766541,912.5031128,308.594574,913.6925659,311.5213928,896.4055786z M361.4143372,890.357605
		c2.2068176,4.3445435,2.0464172,11.0668945,6.0596924,13.628418c-2.8132629,13.1824341-25.0383911,7.5570679-24.2036438-4.5505981
		C350.3696899,896.6807251,352.0613708,886.6311646,361.4143372,890.357605z M276.7425537,906.9924927
		c-6.40271,0.7773438-17.3782959-6.7340698-15.1035767-19.6530151
		C279.3602905,875.0491333,294.6921692,904.809082,276.7425537,906.9924927z M241.9742584,902.4535522
		c-7.0079803-2.5264282-10.7917786-13.0442505-7.5570526-21.1621094
		c14.3824005-1.6694336,16.703949,7.5348511,13.6050262,19.6530762
		C244.8671265,900.2935791,244.0323944,901.9735718,241.9742584,902.4535522z M288.8490601,881.2914429
		c-3.9781494-21.4711304,27.1761169-20.6586304,24.191925,0
		C307.2224731,887.8768311,294.2461243,889.5228882,288.8490601,881.2914429z M148.2480621,896.4055786
		c0-3.0181274,0-6.0479736,0-9.0661011c5.1558838-2.6411743,10.826889-0.7996216,15.1258087,1.5090332
		c-0.8803864,3.1785278-3.7510071,4.3223267-3.0298462,9.0895386
		C155.9760437,897.7437134,150.4537048,898.7493896,148.2480621,896.4055786z M173.9373627,887.3394775
		c-1.086441-8.1517944,1.6694489-12.4507446,6.0596924-15.1141357c5.2928619,3.2698364,12.9763489,4.1619263,13.616745,12.0959473
		C186.8341064,885.4650879,182.1804657,892.1066895,173.9373627,887.3394775z M116.4990692,769.4318848
		c-0.1603928-4.7098389,4.7555008-4.3328857,3.0403824-10.5869141c10.5868912-2.0570068,13.0793839,4.0249634,12.0737228,13.6050415
		C126.5251923,771.4782715,123.8617783,768.1054077,116.4990692,769.4318848z M195.1111603,627.3100586
		c3.9558868,5.2472534,4.0706177,14.6680908-1.4973602,18.1439819c-5.2249603-1.8403931-5.0645752-9.0661011-13.616745-7.5687866
		c0-2.5041504,0-5.0305786,0-7.5687256C186.9827881,631.2659912,188.6967316,626.9436646,195.1111603,627.3100586z
		 M291.8566589,344.5861206c0.7539368,6.7796936-5.3279724,6.7680054-6.0257263,12.0959778
		C282.5388184,353.2975159,288.0611572,345.8891602,291.8566589,344.5861206z M261.6389771,349.1355896
		c-1.1320801-5.1781311,6.1287842-1.9317017,4.5389099-7.5675964
		C270.0190735,343.5910034,267.1273499,351.4571533,261.6389771,349.1355896z M334.2042542,262.9430237
		c4.6641846,53.5631714-3.3272095,107.5501709-25.702179,139.1048279
		C310.6058655,355.2643433,322.48526,305.153656,334.2042542,262.9430237z M257.1000671,318.8851318
		c-2.6294556,8.9853516-6.151001,17.0458069-13.6050415,21.1726379
		C243.5184479,328.4886169,249.3264313,322.7028809,257.1000671,318.8851318z M226.8718567,338.538147
		c1.6460419-4.8936462,7.2479858-5.8313904,7.5453491-12.0854187
		C238.750061,331.3697815,233.5251007,339.6011658,226.8718567,338.538147z M270.7051086,317.3865967
		c5.1113892,9.6842651-7.7853394,14.3601685-9.0661316,22.6711731
		C257.1234741,330.9916382,267.7326355,324.0070801,270.7051086,317.3865967z M282.8010864,306.7996826
		c0.8007812-5.7506104,4.4136353-8.6891479,6.0479736-13.605011
		C292.7709961,297.7113342,287.2264404,305.6114197,282.8010864,306.7996826z M302.4541016,293.1946716
		c3.5789185,4.1619263-2.8237915,11.2155762-4.5389099,15.1141052
		C295.1030884,304.901947,301.3231812,297.6762085,302.4541016,293.1946716z M267.6752625,311.338623
		c-6.0585327-11.1465149,6.8148193-16.3597717,9.0672913-24.1919556
		C280.800293,296.2479248,270.2941895,303.8389282,267.6752625,311.338623z M245.0041046,318.8851318
		c-2.5147247-8.5978394,9.6386108-15.5379028,12.0959625-24.1813965
		C260.8159485,304.4910278,246.9826355,309.7616272,245.0041046,318.8851318z M284.3218384,317.3865967
		c3.5332642,7.1004639-6.2645569,13.8567505-7.5792847,21.1515503
		C271.6768188,329.9063721,283.8418579,325.5161438,284.3218384,317.3865967z M293.3774414,262.9430237
		c5.0868225,6.1744385-1.1437988,13.9141235-3.0075989,18.1439514
		C285.2818604,274.9359741,291.5019226,267.1845703,293.3774414,262.9430237z M272.2258911,281.0869751
		c-3.6128845-7.6600647,7.6834717-13.4329224,9.0555725-21.1620789
		C283.8184509,266.5336609,276.3878174,276.1710815,272.2258911,281.0869751z M316.048584,279.5779114
		c-4.6653442-5.7506104,5.3502502-9.7287598,6.0596924-15.1141052c4.2415771,2.4128723-2.1271973,6.8031006,0,12.0959778
		C318.6663513,276.137146,316.4255676,276.9262085,316.048584,279.5779114z M303.9526367,279.5779114
		c-4.9158936-4.0577393,2.5486755-8.437439,3.0403748-12.0959778
		C312.5610046,272.1929626,303.4609375,274.9476929,303.9526367,279.5779114z M353.8455811,275.0390015
		c0,3.0298462,0,6.0479736,0,9.0672913c-1.7151184,5.5902405-3.3845825-13.2175293-6.0362854-16.6243591
		C350.0500793,263.9042053,350.7583618,274.5016479,353.8455811,275.0390015z M388.6127014,270.5117798
		c2.6751099,4.905365,6.4144287,8.723114,6.0596924,16.6348877
		C391.5734863,282.6990662,387.3892822,279.3039551,388.6127014,270.5117798z M359.9052734,299.2309265
		c4.0015564,2.2876282,12.6216125,16.3948975,3.0181274,18.1556702
		C361.9060364,311.36203,359.1044922,307.0853577,359.9052734,299.2309265z M349.3183594,317.3865967
		C344.3334045,299.7226562,352.2217712,300.7294617,349.3183594,317.3865967L349.3183594,317.3865967z M379.5465698,290.1648254
		c4.9393005,4.1385193,6.1966858,11.9472656,7.5804749,19.6647034
		C382.1081238,305.7706299,382.0613098,296.739624,379.5465698,290.1648254z M399.2113037,379.3755188
		c-2.789856-6.2985229-6.7000732-11.4438782-6.0479736-21.1843567
		C397.678833,362.7640381,400.4686584,369.0403137,399.2113037,379.3755188z M406.7566528,367.279541
		c9.8903198,0.6755066,7.9000854,13.2854309,12.0959778,19.6542053
		C411.1820068,390.0314941,406.9861145,376.6547241,406.7566528,367.279541z M338.7314758,379.3755188
		c-4.0132751-1.4283142-7.3978577-8.4936523-4.5272217-12.0959778
		C336.2507019,370.7671509,338.5371399,374.0135803,338.7314758,379.3755188z M344.7911682,364.2508545
		c4.2754822,1.7713318,4.5950928,7.4879761,6.0362549,12.0959778
		C344.3216858,377.0211792,341.9661865,368.1599426,344.7911682,364.2508545z M384.0971985,373.3275146
		c-4.6419373-0.5596008-8.0265198-15.5484314,0-15.1363525
		C386.0406189,362.5931091,386.0406189,368.9372864,384.0971985,373.3275146z M372.0012207,365.7704773
		c-4.2988892-1.7607727-5.956665-6.1393127-6.0479736-12.0959778
		C367.95401,357.7111816,370.5378113,361.175354,372.0012207,365.7704773z M349.3183594,344.5861206
		c5.3736572,2.1951294,4.4932556,10.6325684,6.0480042,16.6454468
		C351.0791321,357.9617004,351.273468,350.1997681,349.3183594,344.5861206z M343.2703857,361.2315674
		c-6.9283752-0.8230286-5.6827087-6.4472046-4.5389099-12.0959778
		C341.0518494,352.2567444,346.8832397,356.8530273,343.2703857,361.2315674z M370.492157,326.4527283
		c5.1441956,5.9344177,6.9283752,15.2405396,6.0362854,27.2217712
		C371.3830872,346.0834961,368.2736206,337.6683044,370.492157,326.4527283z M359.9052734,337.0396118
		c-2.9841919-2.5603638-4.0589294-7.0302124-4.5389099-12.0959473
		C358.3388367,327.5052185,359.435791,331.9750366,359.9052734,337.0396118z M396.1931763,399.0180054
		c-1.2573547,4.2754822,2.1260376,3.9207458,1.5090637,7.5687561c-5.1453552-1.9211731-11.4790039-2.6411743-16.6348877-4.5389099
		c-0.1943359-2.7102356,1.8403931-3.1902466,1.5090637-6.0480042
		C389.5270386,394.6043396,389.8934937,399.7953491,396.1931763,399.0180054z M372.0012207,395.9998474
		c-0.3430176,7.2140503-2.3320923,12.8042603-10.5868835,12.084259c-3.7276001-3.9102173,1.4751282-7.4083557,0-13.5933228
		C365.4381409,394.5013123,370.0461121,393.9183044,372.0012207,395.9998474z M437.0082703,445.8927917
		c2.2068481,4.8362732,5.1676025,8.9291687,4.5272217,16.6231689c-9.1574402,3.4642029-18.2013245-3.1434021-16.6231689-15.1141052
		C427.0734863,445.0697632,432.6414795,446.0754395,437.0082703,445.8927917z M179.9970551,775.4692993
		c0.52565-7.4552002,4.0472107-9.5812378,10.5868988-7.5582275c0,2.0125122,0,4.0249634,0,6.0479736
		C185.3355713,772.7368164,184.7642517,776.2009888,179.9970551,775.4692993z M210.2252655,763.3838501
		c11.5246582-0.2282715,14.7827911,13.4458618,10.5986023,24.1697388
		C208.1448822,786.9588623,198.0719299,771.3752441,210.2252655,763.3838501z M340.2522278,754.2955322
		c0,3.0403442,0,6.0479736,0,9.0883179c-7.8895264-0.1943359-7.3861084-8.7453003-15.1257935-9.0883179
		C326.4985352,747.0814819,333.518219,757.1415405,340.2522278,754.2955322z M346.3002319,819.31427
		c-1.8977661-9.958252,5.0189209-11.1020508,9.0661316-15.1375122c7.3627014,1.6120605,14.394104,10.3012085,10.5868835,18.1556396
		C359.1958008,821.5316162,355.3663635,817.7935181,346.3002319,819.31427z M331.174408,820.8233643
		c-8.1061096-2.4924927-17.0586853-4.116333-15.125824-16.6466064
		C328.6702271,790.6290894,343.0982971,808.3492432,331.174408,820.8233643z M284.3218384,813.2662964
		c1.211731-6.3570557,5.0083923-10.0952148,9.055603-13.6167603c11.7868958,0.4003906,12.0608521,12.3582153,6.0585022,19.6647339
		C290.8392944,820.8455811,288.1173401,816.5009766,284.3218384,813.2662964z M269.1843262,810.2247314
		c-7.2362671,0.7094727-11.4555664-1.6237793-13.5933228-6.0479736c0.6169739-8.0487671,8.6774292-12.8733521,16.6348877-9.0661621
		C272.866272,803.5246582,273.7127075,805.4001465,269.1843262,810.2247314z M235.9262695,798.1287842
		c2.3789215-5.1676025,4.6875916-10.4265137,7.5687561-15.1141357
		C249.7947235,787.678833,244.0206909,798.7000732,235.9262695,798.1287842z M341.7496033,789.0848999
		c-6.5631104,0.0117188-10.8608398-2.2407837-12.084259-7.5793457c0.3430176-6.208374,7.3732605-5.7283325,13.6050415-6.0362549
		C346.3458862,780.3500977,347.1232605,786.2844849,341.7496033,789.0848999z M370.492157,793.6015625
		c-4.9849548-0.560791-7.5570374-3.5215454-10.5868835-6.0479736
		C360.190918,764.4586182,391.1391296,786.7984619,370.492157,793.6015625z M317.5693665,784.5354004
		c-3.5566711-0.0350952-4.4476013,2.5943604-9.0672913,1.520813c-3.7955017-6.5291748,0.7890625-15.8469849,10.5869141-13.6062012
		C319.7527771,777.6409912,318.4837036,780.9108276,317.5693665,784.5354004z M294.8970337,787.5535889
		c-2.034729-2.6646118-8.7570496,2.4807739-12.0959473-1.4973755c-0.8452759-5.3513794,2.3789062-18.4413452,15.1141052-15.1152954
		C301.0597534,776.9666748,297.2185974,782.6938477,294.8970337,787.5535889z M258.6091309,780.0082397
		c-0.7890625-2.2419434-2.2290649-3.8189087-3.0181274-6.0491943
		C264.0284424,755.0611572,284.2305298,781.3452148,258.6091309,780.0082397z M347.8092957,766.3914795
		c0.0222473-2.9959106,4.1268311-1.9211426,3.0181274-6.0479736c3.7615662-0.2177734,4.6876221,2.3660278,7.5687866,3.0403442
		C358.5905457,770.1869507,350.6904602,770.5756836,347.8092957,766.3914795z M172.4400024,789.0848999
		c-7.8895416,1.829834-5.8770599-6.2423706-6.0479889-12.1182251
		C170.3022461,779.1161499,173.5943298,781.8708496,172.4400024,789.0848999z M184.535965,787.5535889
		c13.1472778-13.7888794,18.2575073,11.7294922,3.0181427,13.6166992
		C184.4551849,798.7235107,184.0442657,793.578125,184.535965,787.5535889z M208.7162018,799.6495361
		c14.6797638-0.8125,6.0596771,13.5933228,4.5389099,21.1738281c-7.0653534,1.017334-6.6427155-5.4533081-10.5868988-7.5570679
		C201.8217773,805.8579102,205.0354309,802.5307007,208.7162018,799.6495361z M249.5430145,819.31427
		c1.4177551,7.9796753-3.3494568,9.7521362-6.0479889,13.6050415
		C221.1891327,833.3419189,234.3493042,806.7382812,249.5430145,819.31427z M378.0375061,826.8713379
		c4.7332458,0.3195801,11.1125488-1.0291138,13.6050415,1.5090332c-0.6052551,6.9506226-11.0668945,10.3925781-16.6114807,7.5570679
		C373.3955688,830.289856,378.7926331,831.6268311,378.0375061,826.8713379z M326.635498,832.9193115
		c-0.9377441,7.7631226-3.9102478,9.2944336,0,15.1140747c-9.7872925,1.2808228-11.056366,3.1902466-19.6424866,0
		c0.560791-6.0023193-1.3826294-14.4854126,1.5090637-18.1439209
		C316.3799133,829.0664062,319.7188416,832.8045654,326.635498,832.9193115z M272.2258911,835.937439
		c-3.5672302-0.0339355-4.4581299,2.6072388-9.0778503,1.520752c-2.3320923-2.2067871-1.3369751-7.7513428-1.5090637-12.0959473
		c2.5158997,0,5.0423279,0,7.5453491,0C269.5050964,829.7407837,271.5515442,829.28302,272.2258911,835.937439z
		 M204.1889801,848.0333862c-9.992157,1.4295044-14.0967407-3.0415039-16.6348724-9.0661011
		C191.8530121,824.5040894,217.1313934,832.8619385,204.1889801,848.0333862z M232.9081268,845.0152588
		c13.2971344,2.1143188,12.587677,21.4020996,0,24.2036743
		C220.6517792,866.4056396,222.9850311,848.5930176,232.9081268,845.0152588z M294.8970337,831.4102173
		c1.9211731,8.4491577,0.4811707,14.6680908-4.5271912,19.6296387c-4.0238037,0-8.6540222,0.5947266-10.5986023-1.4973755
		C281.7041016,840.3967285,283.1897583,830.7815552,294.8970337,831.4102173z M338.7314758,834.4283447
		c2.5954895,0.057373,3.9207458-1.1203613,4.5389099-3.0181274c5.7962646,2.2747192,12.56427,3.555542,18.1439514,6.0479736
		c0.2399902,9.2944336-8.3004761,9.8317871-10.5869141,16.62323
		C342.1382751,852.2058716,337.0280457,846.718689,338.7314758,834.4283447z M423.3798218,804.1767578
		c-3.4981384,11.6276855-6.3909912,23.8372192-10.5634766,34.7905273
		C407.1347961,824.196228,416.8869629,811.8134155,423.3798218,804.1767578z M388.6127014,816.2844238
		c-3.5555115-1.9785156-10.4265137-0.6403809-13.5816345-3.0181274c0-2.5264282,0-5.0540771,0-7.5687866
		c5.4075928,0.3770142,5.5211792-4.5272217,10.5751953-4.5272217
		C383.3303833,809.2647095,393.0029297,810.7960205,388.6127014,816.2844238z M441.5354919,745.2399292
		c8.1634827-24.8088989,7.1683655-53.1171265,19.6530151-75.6056519
		c-6.6989136-35.1792603,7.3861389-61.9549561,9.0778503-93.7261963
		c10.8503113,36.4927979-5.3502502,72.3580322-10.5974426,105.8338623
		c-1.3264465,8.5170288-0.1030273,18.4296265-1.4985352,27.1983643
		c-5.7962952,35.899231-18.9552612,68.7463379-33.2580566,93.7390747
		C423.2206116,782.2373047,436.0599976,761.8865356,441.5354919,745.2399292z M238.9561157,686.269165
		c17.4579163-5.1676025,18.486969,13.4458008,7.5570526,16.6231689
		C239.0368958,702.0692749,236.6006165,692.4084473,238.9561157,686.269165z M226.8718567,713.479248
		c-5.7857361-0.7879028-7.717453-5.3842163-7.5687561-12.0960083c2.0007629-1.4973755,4.5728607-2.4924927,6.0479736-4.5388794
		C230.233017,699.2232666,234.8515472,711.2384644,226.8718567,713.479248z M207.2071228,692.3171387
		c0.0339508-3.5671997-2.6072083-4.4476318-1.5207672-9.0544434c2.2185211-2.2407227,9.9008484-2.2407227,12.0959625,0
		C217.9309998,689.9511108,215.0849609,693.6318359,207.2071228,692.3171387z M288.8490601,687.7781982
		c14.1201477-24.3066406,34.5388489,9.055603,12.0959778,10.5869141
		C293.4336243,698.880249,291.6166687,694.7405396,288.8490601,687.7781982z M173.9373627,609.1661377
		c5.8770599-2.9619751,12.5759583-0.1264648,15.1258087,4.5272217c-2.6072083,3.9324341-5.431015,7.6717529-12.0959625,7.5687256
		C175.9954987,615.8884277,171.2739563,614.2646484,173.9373627,609.1661377z M148.2480621,609.1661377
		c9.9347992-2.0241699,16.0284424,3.1785278,12.0959625,10.5869141
		C151.6092224,620.9413452,146.6933289,618.2778931,148.2480621,609.1661377z M353.8455811,583.4534302
		c-3.3728638-0.6520996-0.5947266-7.4434814-1.4973755-10.5869141c4.0238037,0,8.0592957,0,12.0959778,0
		c0,2.034729,0,4.0588989,0,6.0479736C359.0588379,578.59375,355.3663635,579.9552612,353.8455811,583.4534302z
		 M399.2113037,696.8443604c0,2.5275879,0,5.0422974,0,7.5687256c-5.3045654,1.2351074-9.1012268,4.0132446-15.1141052,4.5272217
		c-0.6743469-1.3369751-1.3381348-2.6973877-3.0298462-3.0064087c-0.1486816-4.7098389,1.8403931-7.2374878,3.0298462-10.5986328
		C392.4655762,693.5745239,392.877655,700.6515503,399.2113037,696.8443604z M411.3072815,689.31073
		c24.1462708-19.7103882,27.0614014,25.4832153,7.5453491,28.7191162
		C408.4261169,716.3498535,411.8563538,700.8458862,411.3072815,689.31073z M335.7133179,675.682251
		c18.8065796,1.7608032,0.6286926,29.291626-15.1257935,15.1141357
		C320.655426,681.1015625,328.9441833,675.0652466,335.7133179,675.682251z M347.8092957,665.1187744
		c2.205658-2.2407837,9.8891602-2.2407837,12.0959778,0c0.0913086,5.6241455-1.5207825,9.5460815-3.0298462,13.581604
		C352.8961182,675.1331787,348.5175781,671.9558105,347.8092957,665.1187744z M381.0673523,687.7781982
		c-6.631012,1.5898438-4.9732666-5.1102295-10.5751953-4.5155029c0-3.5449219,0-7.0653076,0-10.6102905
		c5.6358948-0.1252441,4.2989197-1.6799927,9.0544128,0C375.8880615,678.8607788,381.0673523,681.1811523,381.0673523,687.7781982z
		 M394.6723938,680.2211914c-2.0007629-2.5264893-4.0015564-5.0762939-3.0298462-10.5869141
		c2.2407837-0.7774048,3.8189087-2.2407837,6.0596924-3.0181274c5.7962646,0.765625,5.1219482,7.9796753,9.0544128,10.5985718
		C404.3554993,679.8208008,399.9547119,680.4729004,394.6723938,680.2211914z M433.9667358,671.1550293
		c-1.4634094-7.0196533,1.9668274-9.1351929,3.0415344-13.6050415c13.319397-2.7102051,8.7921753,15.1831665,7.5348206,22.6712036
		C442.4158936,675.7969971,438.6320801,673.0410767,433.9667358,671.1550293z M418.8526306,671.1550293
		c-4.7332764,0.6977539-3.9781494-4.0811768-7.5453491-4.5388794c1.6577454-8.4257812,3.3845825-16.7496338,13.6050415-16.6348877
		C429.1772766,657.8696289,424.374939,668.204834,418.8526306,671.1550293z M343.2703857,610.6751709
		c11.9016113-13.7888184,22.8420715,11.0435181,4.5389099,12.0960083
		C347.0775757,617.968811,343.0526123,616.4480591,343.2703857,610.6751709z M303.9526367,613.6933594
		c-5.3057556-9.3635254,3.9781189-18.6473999,13.6167297-13.5933228
		C316.8142395,608.399292,311.1432495,611.7955933,303.9526367,613.6933594z M381.0673523,618.2439575
		c2.9490662,3.6925049-0.3547363,10.8269043-1.5207825,15.1141357c-5.4989014,0.9716797-8.0370483-1.0291138-10.5634766-3.0415649
		C372.1264954,625.4228516,372.755188,617.9922485,381.0673523,618.2439575z M331.174408,616.7232056
		c1.1426392,7.8660889,7.0875854,18.8522339-9.0661316,18.1439209
		C316.9968872,626.6357422,319.3067322,615.7854004,331.174408,616.7232056z M305.4839478,628.8191528
		c1.0641785,5.6136475-2.5838013,6.4822998-1.531311,12.0959473c-3.6011658,1.4517212-9.6725769,4.9955444-13.5827942,1.5090942
		c0.6286621-5.4075928,4.0132446-8.0604858,3.0075989-15.1141357
		C298.5789795,626.6357422,301.8605347,627.9047852,305.4839478,628.8191528z M338.7314758,642.4241943
		c7.2257385,0.309082,8.2770386-7.168396,15.1141052-3.0181274c0.9143372,8.9747925-3.1211853,12.9985962-12.0959778,12.0959473
		C342.4930115,646.7348022,337.1193848,648.0834961,338.7314758,642.4241943z M370.492157,645.4540405
		c8.5053406-2.4585571,4.9381409,7.1343994,10.5751953,7.5453491
		C377.8888245,659.9968262,367.3358765,654.177124,370.492157,645.4540405z M391.6425476,656.0292358
		c-4.5155029-3.0298462-2.6985168-12.4155884-3.0298462-19.6530151
		c11.6850281-6.3910522,12.1193848,8.1740112,18.1439514,12.0959473
		C403.829834,653.0801392,399.2452698,656.0866089,391.6425476,656.0292358z M435.4875183,625.8010254
		c10.4499207,0.8569336,11.1593628,11.6838379,9.0555725,21.1386719
		C434.0814514,646.5287476,422.625885,631.6885986,435.4875183,625.8010254z M421.8707581,637.8852539
		c-3.5555115-0.0339355-4.4464111,2.6072388-9.0544128,1.520813c-4.2755127-4.6080322-2.1951294-9.6842651-1.5090637-16.6348877
		c4.8023376-2.3098755,6.631012-0.5373535,12.0725403,0C420.7047119,625.6289062,422.2828674,632.7399292,421.8707581,637.8852539z
		 M393.1633301,624.2919312c0-4.0471802,0-8.0604248,0-12.0959473c5.395874-2.9841919,8.0709839,0.6965942,15.1257935,0
		C406.2192993,619.2039795,403.5324707,625.583252,393.1633301,624.2919312z M420.3616943,610.6751709
		c0.0117188-4.0249634-0.5596008-8.6200562,1.5090637-10.5751343c8.3695374,1.1999512,14.2805481,4.8585205,13.6167603,15.1140747
		C431.9202881,611.0065308,425.7470398,615.0197754,420.3616943,610.6751709z M397.70224,600.1000366
		c0.9939575-5.5457764-3.2698364-5.7974854-3.0298462-10.576416
		C408.7234802,574.6846313,418.9895935,601.0365601,397.70224,600.1000366z M337.2329407,594.052002
		c-9.145752,1.0747681-13.7537231-2.3894653-16.6454163-7.5570068
		C324.3947144,570.1914062,352.8855896,579.4974976,337.2329407,594.052002z M269.1843262,597.0701904
		c-7.7514038,1.4633789-13.787674,2.0581055-16.6231689-4.5272217c1.4985352-6.0714111,5.8419189-9.2838745,13.6167297-9.0895386
		C268.350769,586.8380127,269.9733887,590.7587891,269.1843262,597.0701904z M237.4587555,594.052002
		c-5.625351,1.0747681-6.4940338-2.595459-12.1076813-1.5090332c-1.1203766-8.6891479,3.6819458-11.4450684,7.5570526-15.1375122
		C240.7742615,578.0341187,242.5572815,588.7697144,237.4587555,594.052002z M189.0631714,577.4054565
		c-3.3728638-3.7955322,3.3038025-6.7340698,3.0298462-12.0737305c3.4981384-0.4916992,5.7962799,0.2399902,7.5570526,1.4868164
		c0,2.034729,0,4.0471802,0,6.0479736C196.1741791,574.4446411,194.7798462,578.0914917,189.0631714,577.4054565z
		 M149.7571259,578.9144897c-6.5970459,0.057373-8.9291382-4.1502075-15.1258087-4.5272217
		c4.9849548-4.0928345,15.2288361-2.904541,21.1737976-6.0374146
		C156.8447266,574.9351807,153.0843353,576.7193604,149.7571259,578.9144897z M216.2849579,580.4469604
		c-0.5490723,5.4989624-3.5789185,8.5170898-9.0778351,9.0766602c-0.52565-1.9890747-2.6634064-2.3999634-3.0181427-4.5494385
		C205.285965,579.1428223,212.6720886,575.3590088,216.2849579,580.4469604z M195.1111603,589.5236206
		c-1.1660461,4.8713989-4.1841888,7.8895874-9.0778351,9.0673218c-1.2573547-1.7608032-1.9890594-4.0588989-1.4973602-7.5804443
		C186.4793701,588.9406128,191.0979004,589.5236206,195.1111603,589.5236206z M375.0310669,597.0701904
		c6.413269-3.4993286,12.312561,0.1369629,10.5751953,9.0778198c-2.5158997,0-5.0540161,0-7.5687561,0
		C379.6613159,600.4992065,374.2876587,601.8256836,375.0310669,597.0701904z M252.5611572,606.1480103
		c-0.6509247,2.8694458-4.321167,2.7324829-3.0181427,7.5453491c-1.9890747-1.5325317-5.5785217-1.4634399-7.5687561-3.0181885
		c0.1838074-4.3562622-0.8113251-9.9008179,1.5207672-12.0842285
		C247.4626312,600.156189,248.5947266,604.581543,252.5611572,606.1480103z M226.8718567,615.2141113
		c-2.2747345-3.2815552-2.5838013-8.5182495-3.0415497-13.6167603
		C234.9662781,598.2022705,236.2353363,611.3378296,226.8718567,615.2141113z M201.1591339,619.7530518
		c-2.8015442-3.2581787-4.0354919-8.0604858-4.5389099-13.6050415
		C210.740387,592.5078125,224.8254242,623.4454956,201.1591339,619.7530518z M261.6389771,613.6933594
		c9.2955933-8.6552124,20.9794617,2.9958496,12.084259,12.107666c-5.6019287,1.074707-6.4823303-2.5838013-12.084259-1.5090942
		C261.6389771,620.7469482,261.6389771,617.2266235,261.6389771,613.6933594z M243.4950256,642.4241943
		c-6.7000732,2.1611328-3.9558868-5.1102295-9.0778198-4.5389404
		C231.7760315,606.7192993,262.9993591,627.7444458,243.4950256,642.4241943z M220.8238678,646.9396973
		c-6.3687592-1.7034302-10.6899261-5.4298706-9.0895386-15.102417
		C224.1159668,625.2858887,232.1764221,642.4359131,220.8238678,646.9396973z M257.1000671,639.4060669
		c2.59552,0.0678711,3.921936-1.1204224,4.5389099-3.0298462c11.7646484-0.8007812,13.4914856,6.916626,9.0661316,15.1257935
		C260.9646301,652.6680908,257.3178101,647.7521973,257.1000671,639.4060669z M183.0151825,649.9812622
		c3.1328735,11.0328979-16.0752716,14.9653931-16.6231689,4.5388794
		C166.403717,646.9853516,177.6754913,647.8095703,183.0151825,649.9812622z M319.0889893,645.4540405
		c9.8903198,0.503418,16.7156677,9.3400879,12.0854187,19.6647339c-7.1683655-0.6520996-7.9351807,5.133606-15.125824,4.5155029
		c-0.822998-2.1611938-2.3554993-3.6925049-4.5271912-4.5155029
		C311.7836304,656.2926636,316.1164856,651.5476685,319.0889893,645.4540405z M303.9526367,666.6161499
		c-5.0189209,2.5264282-11.7986145,3.303772-15.1035767,7.5570068
		C271.4602356,663.5640259,304.6726379,644.2996826,303.9526367,666.6161499z M267.6752625,663.5979614
		c1.5324707,6.0023804,0.9377441,9.8095703-1.4973755,15.102417c-11.9812317,2.6294556-14.2220001-10.8842773-9.0778198-16.6231689
		C260.64505,662.5571899,262.7710876,664.4666748,267.6752625,663.5979614z M361.4143372,714.9882812
		c-5.8313904-0.204895-6.9857483-5.0985107-13.6050415-4.5388794
		C346.5507507,676.2313232,389.4134827,701.6127319,361.4143372,714.9882812z M326.635498,705.9338989
		c-1.3603821,11.5819702-13.3310852,19.3439331-21.1515503,12.0959473
		C303.8262024,703.3161011,318.4497681,698.2281494,326.635498,705.9338989z M397.70224,719.5272217
		c7.9796753,5.4309692,2.5264282,19.4130249-9.0895386,18.1334229c0-5.0306396,0-10.0612793,0-15.1035767
		C393.3916016,723.2887573,392.054657,717.9046021,397.70224,719.5272217z M349.3183594,737.6606445
		c-8.8834839,3.6350708-18.8990784-1.3721313-25.7009888-4.5166626
		C325.6286621,716.2924805,354.2565002,711.7875366,349.3183594,737.6606445z M361.4143372,730.1035767
		c10.472168-11.9250488,17.9039612,4.5494385,10.5868835,12.0959473
		C362.8894653,743.7542725,360.224884,738.848938,361.4143372,730.1035767z M387.1270447,583.4534302
		c-8.9525452,0.1252441-10.8269043,2.0464478-15.125824-3.0064697c-1.1320801-4.6653442,4.1385498-2.9268188,3.0298462-7.5804443
		C383.1828613,572.2835083,388.7613831,574.2503052,387.1270447,583.4534302z M249.5430145,574.3872681
		c-7.1906128-0.4120483-14.3367462-9.2838745-12.084259-24.1918945
		C254.3102264,550.1040649,267.0582886,575.4385986,249.5430145,574.3872681z M216.2849579,542.6488647
		c19.8134155-1.531311,10.8959656,26.5251465-4.5506287,18.1333618
		C210.7743378,552.2640381,216.1023254,550.0010376,216.2849579,542.6488647z M202.6682129,553.2357178
		c-4.0238037,0-8.0604706,0-12.084259,0c0.6403809-2.8916626,3.2464294-3.8071899,3.0298462-7.5687256
		c4.6068115-1.0969849,5.4989014,1.5559082,9.0544128,1.520752
		C202.6682129,549.1885376,202.6682129,551.2127075,202.6682129,553.2357178z M320.5875244,492.7558899
		c19.9047241,15.1597595-19.7560425,34.3784485-15.1035767,3.018158
		C312.8466492,497.0887756,315.4878235,493.7053528,320.5875244,492.7558899z M332.6834717,482.1690063
		c3.1668396-0.6404114,4.012085,1.0290527,6.0480042,1.5324707c-0.5830383,4.9393005-4.425354,6.6427307-6.0480042,10.5634766
		C329.3223267,492.7102356,334.6608276,487.3143616,332.6834717,482.1690063z M229.8782806,503.3310852
		c-3.3037872-5.1781311-1.3603821-15.8457947,3.0298462-18.1439514
		C250.1834106,485.3252869,241.311615,503.3544922,229.8782806,503.3310852z M232.9081268,386.9337463
		c7.4774475-0.8804016,9.6725616,4.4124756,15.1141052,1.5090637c0.2060547,4.8585205,4.6653595,10.0144043,1.5207825,13.6050415
		c-8.9513855,0.8803711-14.4397736-1.7034302-19.6647339-4.5506287
		C231.5594482,394.6394653,231.8111572,390.3745117,232.9081268,386.9337463z M217.7823181,397.4972229
		c-5.5679932,0.057373-10.4030914-0.6743469-10.5751953-6.0480042c2.6528778-1.3720703,7.5453491-0.5139465,9.0778351-3.0064087
		C220.7208405,390.5114746,221.3038635,394.6617126,217.7823181,397.4972229z M264.657135,382.3948059
		c5.7962646,2.7781372,6.6766663,10.448761,12.0854187,13.6050415c-6.1861267,7.7514038-23.4262848,1.5664368-19.6424866-10.576355
		C261.7537231,386.5450439,260.0046387,381.2627258,264.657135,382.3948059z M326.635498,459.4978333
		c-16.2462158,2.8577576-21.6538086-17.7435608-9.0661316-22.6828613
		C328.555481,438.0606384,334.6491394,451.9407959,326.635498,459.4978333z M367.4740295,450.4200134
		c13.4212341-0.6860657,8.3683777,11.5363464,0,12.0959473C364.341156,461.2246704,365.872467,452.0086975,367.4740295,450.4200134z
		 M216.2849579,436.8149719c0-2.5264282,0-5.0306091,0-7.5570679c6.127594-3.841156,16.2462006-0.6860352,15.1141052,7.5570679
		C227.0088348,438.7700806,220.6634827,438.7700806,216.2849579,436.8149719z M338.7314758,430.7669983
		c2.5381165-2.0007935,5.0762634-4.0015564,10.5868835-3.018158
		C358.2814636,444.5090027,339.1201477,447.7671204,338.7314758,430.7669983z M275.2322998,432.276062
		c-12.4612122,2.8928528-20.4069519-25.0383911,1.5102539-22.6828613
		C279.8637085,418.1558838,285.1565857,429.966217,275.2322998,432.276062z M316.048584,421.7008667
		c1.0747375-9.8891602,18.2235718-16.2801514,15.125824,1.5090637
		C326.4411621,427.7605591,319.9131775,425.6672974,316.048584,421.7008667z M338.7314758,412.6347351
		c-0.2177734-4.8140259-3.4185486-6.6661377-3.018158-12.0959778c8.974823-6.7117615,19.3439636,1.2234192,13.6050415,12.0959778
		C345.7850952,412.6347351,342.2530212,412.6347351,338.7314758,412.6347351z M204.1889801,412.6347351
		c-7.1683655,0.0913086-14.8858032,0.7656555-16.6348724-4.5506287c0.6743317-4.8479919,5.8875885-5.1910095,9.0661163-7.5453491
		C202.3591309,401.3617859,205.5037079,404.7686157,204.1889801,412.6347351z M217.7823181,406.5867615
		c6.0936432-3.5555115,6.0023193,4.0354919,13.616745,3.0064392c-0.6743469,6.0257263-9.0087585,10.3129272-15.1141052,6.0596619
		C216.0789032,411.9135742,216.0449524,408.3580627,217.7823181,406.5867615z M243.4950256,414.1321106
		c7.408371-1.3486938,7.3287659,4.7789001,10.5868988,7.5687561c-1.1543274,5.395874-3.9102325,9.2030945-7.5687561,12.0959778
		c-7.5231018,1.4750977-5.9789124-6.1053772-10.5868988-7.5804749
		C236.9553375,420.7057495,241.9976654,419.1966858,243.4950256,414.1321106z M204.1889801,439.8448181
		c-11.1125488,8.8378296-19.8707733-11.7307129-7.5687561-13.6284485
		C200.1417847,429.7718506,203.7206879,433.2594604,204.1889801,439.8448181z M257.1000671,439.8448181
		c8.0604553-0.5151367,13.2397766,1.8743286,19.6424866,3.0181274c0.6286926,7.1800842-5.1453552,7.9457397-4.5166626,15.1141052
		c-6.9623413-0.0913086-12.0503235-2.0686646-16.6348877-4.5271912
		C255.9000702,448.704895,254.5736389,442.348999,257.1000671,439.8448181z M232.9081268,460.9952087
		c-0.6743317-1.3486938-1.3264313-2.7090759-3.0298462-3.018158c0.5373688-7.0196838,5.1676025-9.96875,10.5868988-12.084259
		C245.2218628,454.4449768,241.4029388,458.5600891,232.9081268,460.9952087z M347.8092957,451.9407959
		c1.4856567,2.0346985,4.0354919,3.0181274,6.0362854,4.5271912c1.303009,7.3510132-4.321167,7.7748108-3.018158,15.125824
		c-4.8936462,0.8686829-7.0196838-1.0290833-10.5751953-1.5207825
		C336.7880554,462.4937439,338.5827942,451.4373779,347.8092957,451.9407959z M317.5693665,468.5639648
		c0,3.0298462,0,6.0479736,0,9.0778198c-3.9558716,3.0872192-9.3634949,4.7332458-16.6243286,4.5272217
		c-1.6917114-9.7404785,2.0358887-14.0850525,6.0479736-18.1439514
		C309.9888916,466.0714722,314.1847839,466.9062195,317.5693665,468.5639648z M358.3962097,498.7921753
		c-3.5672302,5.5340271-5.3280029,12.8171387-13.6050415,13.628479c-0.0468445-1.4856873-1.8521118-1.1894836-3.0415649-1.5325012
		c-1.2573547-9.3178406,4.1841736-11.9578247,7.5687561-16.6231995
		C354.6802979,493.4536438,353.0342712,499.6163635,358.3962097,498.7921753z M390.1334839,492.7558899
		c-2.5720825,4.4932556-3.841156,10.2673035-3.0064392,18.1322632
		C369.0509949,512.1010132,376.2544861,481.5976868,390.1334839,492.7558899z M405.2593079,486.7079163
		c5.647583,1.6238098,4.2988892-3.7498474,9.0778198-3.0064392c2.3320923,3.0638123,5.8302307,10.0038757,2.9947205,13.5816345
		C411.7416077,495.3279724,408.1170349,491.4072266,405.2593079,486.7079163z M365.9532471,488.21698
		c-8.7230835-3.6234131-0.023407-8.5170593-3.0298462-15.125824c4.7672119-1.6916809,3.4302368-0.1252441,9.0778198,0
		C373.7959595,481.9407043,367.2679749,482.4897766,365.9532471,488.21698z M400.7203674,504.8401489
		c4.6641846-1.1086731,2.9034119,4.150238,7.5687561,3.0415649c-1.2468262,3.7955017-1.9785156,8.0827026-7.5687561,7.5453491
		C400.7203674,511.9066772,400.7203674,508.3616943,400.7203674,504.8401489z M387.1270447,535.0917969
		c0.2973633-4.7437744-1.0407715-11.1125488,1.4856567-13.6167603c10.529541-1.8064575,14.7254333,6.8721924,10.5986023,15.1257935
		C393.5180664,537.7563477,391.9855652,534.760498,387.1270447,535.0917969z M420.3616943,536.6008301
		c3.2475891,4.7110596-2.8694458,10.529541-9.0544128,10.5869141
		C410.8495178,540.1680908,413.960144,536.7272949,420.3616943,536.6008301z M415.8227844,524.5166016
		c-1.4517212-27.3470459,34.5048828-12.7480774,15.1257935,4.5272217
		C424.3292847,529.0894775,422.0194397,524.8596191,415.8227844,524.5166016z M375.0310669,533.5709839
		c-4.139679-1.3942871-6.4483643-4.6407471-10.5868835-6.0479736c0-4.5388794,0-9.0543823,0-13.6050415
		C373.1672668,515.2678223,373.5676575,524.9509277,375.0310669,533.5709839z M340.2522278,538.0993652
		c-12.2902832,4.9732666-20.9115295-1.9902344-19.6647034-10.576355
		C322.3482971,515.5651855,346.8141785,514.2387695,340.2522278,538.0993652z M361.4143372,536.6008301
		c1.7373657,1.7842407,1.7151184,5.3397217,1.5090637,9.0661621c-3.4876099,1.5559082-4.8596802,5.190979-10.5751953,4.5283813
		C353.0225525,543.3243408,354.6463623,537.3782349,361.4143372,536.6008301z M400.7203674,550.1953735
		c-1.554718,7.6027222-8.3226929,10.7578125-16.6231689,7.5792847
		C384.2458801,548.1594849,394.5693665,545.7138062,400.7203674,550.1953735z M465.7168884,494.2649536
		c4.6864319,24.5700684,0.3078918,52.9005737,4.549469,72.5535889
		C456.9130249,550.0571899,463.4526978,521.6471558,465.7168884,494.2649536z M432.4576721,498.7921753
		c-1.8403931-11.3982239,3.0075989-16.1431885,7.5570374-21.1503906
		C456.3756409,479.6659851,446.8869019,510.350769,432.4576721,498.7921753z M459.6689148,467.0431824
		c2.9034119-2.2981262,4.0237732,10.0390015,4.5389099,15.125824
		C458.1703796,481.6550598,463.5100708,469.7651367,459.6689148,467.0431824z M408.2891235,473.091156
		c-12.8967285,3.9336548-21.9967957,2.9162903-21.1620789-13.5933228
		C395.9871216,449.5396118,417.3786621,455.107605,408.2891235,473.091156z M382.576416,445.8927917
		c-3.4981384-3.3728638,0.5139465-5.899292,0-10.5868835c7.0536499-2.0124817,6.7223206,3.3728638,9.0661316,6.0479736
		C391.6882019,445.938446,386.3496704,445.115448,382.576416,445.8927917z M405.2593079,444.3954468
		C381.1013184,416.098938,450.2585754,431.2130432,405.2593079,444.3954468L405.2593079,444.3954468z M362.9234009,439.8448181
		c-4.401947-5.2706299-0.6064453-9.3752136-3.0181274-16.6348877
		C375.5567322,414.7151184,376.7684326,439.6727295,362.9234009,439.8448181z M381.0673523,417.1619568
		c1.4751282-0.057373,1.1777649-1.8521118,1.5090637-3.0298462c4.7332764,0.3312988,11.090332-1.0173645,13.6167603,1.520752
		C399.5309143,426.9597778,378.963562,428.2405396,381.0673523,417.1619568z M429.4278259,418.6827087
		c3.0989075,0.4343567,2.9736328,4.0928955,6.0596924,4.5272217c-0.6626587,1.8638-1.9434204,3.0977478-4.5389404,3.0064392
		C429.6689758,424.4790039,428.9478149,422.1808472,429.4278259,418.6827087z M406.7566528,415.6528625
		c0-2.5158691,0-5.0423279,0-7.5687561c6.2996826-4.2754822,16.0858154,1.9317017,10.5751953,9.0778503
		C413.7997437,416.6702271,411.6620178,414.7724915,406.7566528,415.6528625z M249.5430145,379.3755188
		c-5.7272034-1.8403931-10.1525574-4.9837952-16.6348877-6.0480042c0.2973633-4.7437744-1.0173645-11.1008301,1.509079-13.6050415
		C248.1592102,359.1394653,258.7695312,369.9441223,249.5430145,379.3755188z M290.3698425,361.2315674
		c3.5906067,2.7324829,0.3312988,11.3302917-4.5389099,10.5868835
		C282.2871399,367.840332,290.1415405,366.0795288,290.3698425,361.2315674z M208.7162018,379.3755188
		c-11.6616364,1.5664368-13.6506958-14.8846436-6.0479889-19.6530457
		C222.7216187,355.0348816,218.7891388,375.4664307,208.7162018,379.3755188z M190.5839539,379.3755188
		c-0.3207855,4.7227173,1.0056458,11.0785828-1.5207825,13.5944824c-7.1917877-0.3664246-8.4151917-6.711792-12.0959625-10.5751953
		C182.477829,381.2849731,183.9412384,375.2604065,190.5839539,379.3755188z M167.9010773,391.4492188
		c-0.5713043,5.1219482,2.6177521,6.4706421,4.5389252,9.0895386c-0.1486816,6.9049683-7.7970581,6.3336487-13.6050415,7.5453491
		C151.7344818,400.2297058,152.1922455,390.2597656,167.9010773,391.4492188z M146.7272797,420.1683655
		c-2.5158997,0-5.0423279,0-7.5453491,0c-4.5166626-6.0702209-4.5166626-10.5178223,0-16.6231689
		C145.7321625,406.0493774,152.6031647,413.9143372,146.7272797,420.1683655z M163.3738708,435.3059082
		c-1.6472168-4.401947-3.3845673-8.7113953-3.0298462-15.1375427
		C179.5744171,407.8207092,188.1710815,438.3357544,163.3738708,435.3059082z M137.6611633,444.3954468
		c0.3078918-4.7449646-1.029068-11.1359863,1.5207672-13.6284485
		C156.5941772,429.3609314,154.0326233,451.6199951,137.6611633,444.3954468z M179.9970551,442.8629456
		c4.9954987,3.5215454,2.7207642,13.7197876,1.5207672,19.6530151
		C163.7730865,466.7235718,167.8776703,441.7191467,179.9970551,442.8629456z M193.6138,460.9952087
		c3.1890564,2.3437805,0.6286774,10.4616089,4.5154877,12.0959473c-0.6520844,1.8638-1.9211578,3.1106262-4.5154877,3.0298462
		C189.9096069,470.6103821,191.2348785,466.7809448,193.6138,460.9952087z M158.8349609,457.9770508
		c1.3486786,12.4507141-2.6294556,19.5617065-15.125824,18.1439514c-1.4634094-5.5679626-5.9683685-8.1517639-4.5272064-16.6231689
		C146.5212402,454.5011597,149.2314758,456.0102234,158.8349609,457.9770508z M211.7343292,459.4978333
		c2.034729,0,4.0472107,0,6.0479889,0c4.1385193,5.2249756-1.4856567,10.8034973,0,18.1439514
		C209.8600006,478.0082397,208.2584381,465.6944885,211.7343292,459.4978333z M229.8782806,474.6119385
		c1.4634094-3.0637817,5.8197021-3.2581482,10.5868988-3.0181274c0,2.0241699,0,4.0249634,0,6.0479736
		C237.0244141,476.5448303,232.7477417,476.2814026,229.8782806,474.6119385z M266.177887,467.0431824
		c-2.4690552,5.6136475-7.8544006,8.2782288-7.5687561,16.6582947
		C245.6105347,481.528595,252.5272064,459.257843,266.177887,467.0431824z M176.9672089,482.1690063
		c3.1902313,8.1178284,3.6351013,16.143158-9.0661316,15.1141052c-1.2690582-3.2581482-3.921936-5.1676025-3.0181274-10.5751953
		C167.2372742,483.5071411,170.4848785,481.2312317,176.9672089,482.1690063z M214.7641754,488.21698
		c0,3.0181274,0,6.0479736,0,9.0661316c-3.0181427,0.1603699-9.7287445,4.2075806-4.5389099,7.5570374
		c-4.596283,4.344574-13.2046509,4.905365-18.1322479,1.5207825
		C188.2284393,489.7037964,202.0617676,483.3584595,214.7641754,488.21698z M282.8010864,491.2351074
		c9.1129456,15.9488525,2.2758789,51.1971436,4.5283813,69.5471191c-2.0125122,0.3196411-2.8015747,6.2880249-3.0076294,0
		C285.2935486,542.1571045,281.5554199,515.1765137,282.8010864,491.2351074z M213.2551117,532.0736694
		c0.4577484,3.9793091-5.8653564,1.1894531-4.5389099,6.0256958c-6.0362854,1.5090942-4.5506287-4.5166626-10.5869141-3.0075684
		c0-2.5264282,0-5.0411987,0-7.5687866C202.7021637,529.5132446,206.3606873,532.4049683,213.2551117,532.0736694z
		 M184.535965,548.6862793c-3.0181427,0-6.0479889,0-9.0661163,0c0.6743317-7.2140503-1.1098633-11.9940796-4.5506287-15.1152954
		C182.2600708,523.6139526,195.866272,539.2654419,184.535965,548.6862793z M167.9010773,551.7266846
		c-8.2313843,3.7276001-17.6182861-0.5139771-15.1141052-12.107666c2.5720978,0.046814,3.9207764-1.1204224,4.5272064-3.0181885
		C159.7153473,542.7518921,171.2505341,539.7910767,167.9010773,551.7266846z M145.2182159,551.7266846
		c-2.6072083,5.4532471-5.601944,10.5189819-13.6050415,10.5646362c-2.2641907-4.2649536-0.9377594-12.1533203-4.5389099-15.1035767
		C132.5158081,540.65979,142.9423218,546.0568237,145.2182159,551.7266846z M181.5178223,562.2913208
		c0,2.538147,0,5.0411377,0,7.5687866c-3.6936493,2.8799438-7.489151,5.6241455-15.1258087,4.5271606
		C168.7697601,567.6989136,170.7365875,560.5984497,181.5178223,562.2913208z M121.0262756,588.0040283
		c-6.9061279,0.4799805-8.3800735,1.5547485-13.5827942-1.5090332c-3.1094513-6.5853882,3.521553-11.2167969,4.5166702-18.1451416
		C128.6172791,563.9713135,127.1199188,581.6130371,121.0262756,588.0040283z M160.3440247,586.4949951
		c10.4030914-1.5664673,15.3084564,2.4690552,12.0959778,10.5751953
		C164.8595276,597.0924072,159.4975891,594.8867798,160.3440247,586.4949951z M145.2182159,591.010498
		c0.8113098,5.8536377-3.8528748,6.2305908-4.5272064,10.586853c-5.9110107,0.8920898-8.7921753-1.2924805-12.0959778-3.0064087
		C131.2584381,591.4904785,137.8894501,585.3745728,145.2182159,591.010498z M98.3551178,619.7530518
		c-2.9841919-5.2823486-1.990242-17.5609741,1.5090637-21.1621094
		C119.8368149,596.8641357,113.7092209,620.8277588,98.3551178,619.7530518z M121.0262756,628.8191528
		C112.0397644,594.6233521,165.9916229,626.9787598,121.0262756,628.8191528L121.0262756,628.8191528z M170.91922,634.8671265
		c-2.6177521,4.4359131-7.0887604,7.0197144-13.6050415,7.5570679c-0.8803864-4.8936768,1.029068-7.0313721,1.5207825-10.5869141
		C164.0247955,631.6885986,169.6958008,631.0599365,170.91922,634.8671265z M139.1819305,656.0292358
		C99.6803818,649.5234985,161.0183716,620.9986572,139.1819305,656.0292358L139.1819305,656.0292358z M96.834343,645.4540405
		c2.3777466-5.19104,7.0653458-8.0604858,13.616745-9.0778198
		C117.9624786,645.9574585,102.2993011,653.1363525,96.834343,645.4540405z M148.2480621,654.5201416
		c2.5147247,0,5.041153,0,7.5570526,0c0,2.0125122,0,4.0355225,0,6.0479736
		C150.8775177,660.9685059,148.5220032,658.7617188,148.2480621,654.5201416z M198.1292877,656.0292358
		c2.2407837-0.7890625,3.818924-2.2290649,6.0596924-3.0298462c8.0370636,0.4003906,8.0148163,6.9400635,4.5272217,12.1193848
		C201.7082062,665.5648193,198.2662659,662.4658813,198.1292877,656.0292358z M238.9561157,654.5201416
		c9.3751984,8.1517944,2.6411591,23.906311-9.0778351,24.1802368
		C217.6336365,673.1101685,217.9883728,650.4612427,238.9561157,654.5201416z M140.6910095,666.6161499
		c0,2.0241699,0,4.0354614,0,6.0362549c-2.0242004,0-4.0366821,0-6.0596924,0
		C133.465271,667.4508667,135.4765778,665.4383545,140.6910095,666.6161499z M122.5470505,668.1251831
		c0.1486816,10.2216187-7.489151,12.6672974-16.6348801,13.6167603c1.6120911-5.6593018-3.7510147-4.2988892-3.0298462-9.0895386
		C107.3638763,666.7531128,114.8061981,662.9692993,122.5470505,668.1251831z M148.2480621,680.2211914
		c-0.1264343-6.7914429,9.4313812-9.8435059,15.1258087-6.0480347
		C166.3346405,684.7940063,152.0552673,685.2857666,148.2480621,680.2211914z M175.4698486,680.2211914
		c1.7139435-8.4491577,16.9661865-4.0928955,18.1439514,1.520752c-1.3721008,2.6633911-3.396286,4.6876221-6.0596924,6.0362549
		C183.3242645,685.446106,175.8351135,686.3955688,175.4698486,680.2211914z M136.1520844,705.9338989
		c-8.1178284-0.4577637-12.6567383-4.4815674-15.1258087-10.5986328c1.8169708-6.2423096,6.7445679-9.3751831,15.1258087-9.0661011
		C140.2098389,690.4310913,140.2098389,701.7496948,136.1520844,705.9338989z M175.4698486,711.9818726
		c-8.2091522,1.1437988-12.2680664-1.8754883-19.6647339-1.5324707
		C154.4447327,695.0835571,184.0208435,694.8435669,175.4698486,711.9818726z M189.0631714,705.9338989
		c8.4034882-4.3563232,20.4760437-0.7200317,18.1439514,10.5634766c-5.8536377,3.0415649-12.9306946,3.8071899-18.1439514,0
		C189.0631714,712.9769897,189.0631714,709.4554443,189.0631714,705.9338989z M270.7051086,695.3352661
		c-1.1543274,24.5584106-14.5767517,49.9281006-30.2399292,65.0082397
		C250.1143341,738.2436523,261.3193665,717.6868286,270.7051086,695.3352661z M142.2000732,742.1995239
		c0-2.5041504,0-5.0305786,0-7.5570679c2.8694611-0.6520386,3.7955017-3.2592773,7.5570526-3.0192871
		c3.1890717,2.343811,5.4754944,5.6136475,4.5389252,12.0854492
		C149.9280548,743.536499,144.3951874,744.5316162,142.2000732,742.1995239z M164.8829498,731.6231689
		c4.7332458,0.309082,11.0891418-1.017334,13.6050262,1.520813c-0.6638031,3.8411255-2.115509,6.9517822-4.5506134,9.055542
		C166.1742554,743.4451904,164.6991425,738.3466797,164.8829498,731.6231689z M131.6131744,731.6231689
		c-0.2973633,4.7227173,1.029068,11.1020508-1.5090637,13.6167603c-7.4552078,4.2872314-18.338295,0.6403809-18.143959-7.5792847
		C119.5628662,736.7111816,121.7802277,730.3658447,131.6131744,731.6231689z M192.0930176,736.1515503
		c14.5310822,3.0404053,21.7334137,24.053772,4.5272064,24.1919556
		C186.7884521,760.4348145,178.8989105,743.8795166,192.0930176,736.1515503z M169.4101562,766.3914795
		c-8.4152069-0.0690918-10.8842773-10.1303101-6.0362854-15.1035767
		C179.1166687,746.4633179,178.3615417,760.777832,169.4101562,766.3914795z M93.8162003,761.8630981
		c1.1543427-4.4007568,2.3894577-8.699707,6.0479813-10.5751953
		C117.9051132,755.3924561,103.3740311,778.921814,93.8162003,761.8630981z M155.8051147,770.940918
		c-0.4799957,3.5332642-2.3894653,5.6593018-1.5090637,10.5646362c-3.5449677,0.4917603-5.6710205,2.3894653-10.5869141,1.5090942
		C138.4385223,772.6794434,147.8137207,764.5276489,155.8051147,770.940918z M90.7968903,775.4692993
		c13.5488434,2.0921021,3.2476044,25.3123169-10.5868988,13.6156006
		C80.4160385,780.6369019,85.1727142,774.5772095,90.7968903,775.4692993z M108.9303055,786.0562134
		c5.4649658-11.9367676,26.8787613-4.8936768,18.143959,10.5751953
		C115.3096085,798.8148193,113.4458084,791.1090698,108.9303055,786.0562134z M163.3738708,807.2183228
		C133.9218597,822.0233154,160.2632446,768.2775269,163.3738708,807.2183228L163.3738708,807.2183228z M176.9672089,808.727356
		c6.6192932-0.5724487,7.7748108,4.321167,13.616745,4.5389404c0,3.0181274,0,6.0479736,0,9.0661011
		c-3.3611603,2.1834106-7.2948151,3.8071899-13.616745,3.0298462
		C174.3377533,821.0516357,172.0161896,812.1798706,176.9672089,808.727356z M124.0561218,813.2662964
		C160.2866669,799.3521729,125.8730927,856.6652222,124.0561218,813.2662964L124.0561218,813.2662964z M154.296051,840.4763794
		c-2.2641907-2.2747192-2.6985321-6.3687744-6.0479889-7.5570679
		C156.2055054,803.6733398,181.1057281,842.3624268,154.296051,840.4763794z M131.6131744,840.4763794
		c1.8286743,8.3577881-4.3223267,8.7804565-4.5389099,15.1140747c-4.72155-0.309082-11.0786057,1.017395-13.6050415-1.5090332
		c0.251709-1.7608032-0.332489-2.6868286-1.5090714-3.0415649c-1.5898438-7.6366577,4.469841-7.6144409,6.0479889-12.0725708
		C124.2387543,837.777832,125.7595291,841.2759399,131.6131744,840.4763794z M145.2182159,845.0152588
		c0,2.5042114,0,5.0411987,0,7.5687866c-5.6370544-1.6238403-2.3777466,5.6697998-7.5570526,4.5272217
		C141.0562744,853.944397,136.1743317,842.5227661,145.2182159,845.0152588z M169.4101562,845.0152588
		c7.0419312-2.0007324,5.0645599,5.0189209,12.107666,3.0181274c0.6509247,5.19104-0.6064301,8.4714355-1.5207672,12.0960083
		C174.6690674,857.4308472,168.4723969,849.0847168,169.4101562,845.0152588z M151.2662048,870.7045898
		C157.7251129,835.4118042,181.1631012,886.8255005,151.2662048,870.7045898L151.2662048,870.7045898z M187.5541077,869.2189331
		c-0.5713196-6.6427612,4.3211517-7.8087769,4.5389099-13.628479
		C207.675415,858.7689819,202.4399109,881.1427612,187.5541077,869.2189331z M257.1000671,869.2189331
		c-2.8003845-6.5970459-2.4468231-18.3734131,4.5389099-19.6764526
		c14.0054321,1.3943481,16.7718506,12.1755981,10.5869141,22.6828613
		C264.8409119,873.5401001,262.1880493,870.1555176,257.1000671,869.2189331z M338.7314758,885.8421021
		c-7.1800842-2.3894653-11.5246582-7.6261597-10.5646667-18.1556396c7.8895569-9.2944336,22.7062988-2.6751709,22.660614,9.0661011
		C347.2824707,880.2623901,340.8575134,880.902771,338.7314758,885.8421021z M375.0310669,878.2733154
		c-12.0959473,0.9951172-14.6235657-7.5687256-13.6167297-19.6412964c2.0124817-1.520752,4.5611572-2.5042114,6.0596924-4.5505981
		c9.3740234-1.3030396,11.3982239,4.7214966,18.1322327,6.0479736
		C383.4334106,867.5155029,380.9877319,874.6721802,375.0310669,878.2733154z M476.3143311,436.8149719
		c7.0314026,28.0225525,10.804657,59.5538025,13.5944824,92.2288513c0.8230286,9.5472412,0.6743469,21.6080933,0,31.7384033
		c-2.9162598,43.9246216-5.1453247,86.1574707-9.0778198,128.5285034
		c-3.4302368,37.031311-12.0386047,72.427124-24.191925,101.2727051
		c-0.0913391,0.262207-31.554657,66.7338257-49.8824158,86.1691284
		c21.1398621-31.074646,55.9303894-131.0209351,61.978363-172.3394775
		c1.211731-8.2548218,20.6586914-132.8039551,9.0778503-193.5249329
		c-36.9634094-193.7872009-107.0467529-277.9907227-98.2662964-314.4495239
		C390.7738647,204.6817169,448.7389832,327.0708618,476.3143311,436.8149719z M316.048584,158.6416473
		c0.057373,11.6499176-8.18573,28.0670471-16.6126404,36.2761993
		C297.3555603,181.0727997,313.0761108,172.4176025,316.048584,158.6416473z M294.8970337,176.7738953
		c-1.7607727-2.2641907-4.3668213-3.6924896-4.5271912-7.5570526c1.3381348,1.1777496,3.4067993,1.6226196,6.0479736,1.5090637
		C296.5899048,173.4466858,294.5540161,173.9149628,294.8970337,176.7738953z M322.1082764,173.7662811
		c-2.9268188,27.8165131-3.7053528,70.8618774-43.8344116,66.5055847
		C297.3438721,222.5622559,311.3832397,199.8220215,322.1082764,173.7662811z M347.8092957,116.3045807
		c-2.058136,38.9641876-4.9627075,80.8306274-13.6050415,117.9075928c-5.0879822,1.2234192-11.7529297,0-19.6647339,1.532486
		C332.5231018,202.8179169,334.6959534,154.0910187,347.8092957,116.3045807z M365.9532471,214.5708618
		c-0.9154968,8.3344269-0.08078,18.796051-6.0479736,24.1919403c3.1785278-38.1517029,7.957428-74.6679077,10.5868835-113.4026337
		C373.6929321,155.1083832,369.2909851,184.1131897,365.9532471,214.5708618z M350.8274231,34.6626511
		c-18.0982971-0.1603928,0.8113403-2.5041885,9.0778503-1.5090714
		C359.0365906,38.1268349,354.2003174,35.3147469,350.8274231,34.6626511z M343.2703857,49.7884636
		c2.5147095,0,5.0411377,0,7.5570374,0c0.6404114,3.1668205-1.0290527,3.9898453-1.5090637,6.0479851
		C345.796814,55.310791,342.2296143,54.853035,343.2703857,49.7884636z M343.2703857,67.9207077
		c1.3826294-2.6411591,2.8120728-5.2472038,7.5570374-4.5389137c1.2573853,4.2766685-2.1271973,3.9219398-1.5090637,7.5687599
		C346.9511414,70.2996292,348.0258789,66.1950531,343.2703857,67.9207077z M338.7314758,80.0166779
		c-1.5441895-5.0762787,4.7098389-2.354332,7.5687561-3.0181351c0,1.5090637,0,3.0181351,0,4.5272064
		C344.0934143,80.7027283,338.4914551,83.298233,338.7314758,80.0166779z M373.5103149,31.6445103
		c5.1898193,0.6626339,8.4713745-0.6064358,12.0959473-1.5207748
		c-21.5741882,59.0737991-29.8863525,131.3873596-33.2580566,208.6390686c-3.5215454,0-7.0664978,0-10.5986023,0
		C356.8180542,174.190094,356.5546265,94.3194733,373.5103149,31.6445103z M332.6834717,93.6217194
		c0.2165833-4.321167,6.3102417-2.7547302,10.5869141-3.0181427
		C343.0526123,94.9259109,336.9707031,93.3711777,332.6834717,93.6217194z M329.6653442,107.2279205
		c-0.2177429-4.7566681,3.8751221-5.1910095,7.5675964-6.0479813c1.2351074,4.2872086-2.1377563,3.9207687-1.5196228,7.5675888
		C334.3751831,107.5709457,332.2947998,107.1249008,329.6653442,107.2279205z M314.5395203,111.7656708
		c0.6860657,5.7400818-5.7962646,17.3443451-12.0854187,21.1632538
		C300.2027893,125.6224136,311.7953491,119.1295547,314.5395203,111.7656708z M297.9151917,132.9289246
		c4.4826965,13.0793915-8.2770691,21.9394684-16.633728,27.210083
		c-2.1271973,13.4903107-13.2514648,17.9952698-18.1334229,28.7308502
		C268.9677429,170.4976196,288.9520874,153.1989288,297.9151917,132.9289246z M285.8309326,191.899704
		c-3.5215759,4.150238-8.5978394-2.6528778-12.1076965,1.4973602c-0.3886719,4.4358978,3.4302368,4.6536407,3.0193176,9.0778351
		C258.3574219,202.6235809,282.7905273,173.8693085,285.8309326,191.899704z M261.6389771,213.0617981
		c0.2400208-1.7490692-0.3312988-2.6985321-1.5207825-3.0298462c0.1943665-3.841156,2.1951294-5.8653564,6.0596924-6.0479889
		C268.9677429,206.9681549,268.4186707,215.1199341,261.6389771,213.0617981z M251.0520782,220.6188507
		c-0.1030121-4.5272064,4.4476013-7.6717834,7.5570526-4.5389099
		C257.992157,219.887146,253.4415436,223.031723,251.0520782,220.6188507z M240.4651794,229.6966858
		c0.2856598-4.2649689,2.6294556-6.4483795,7.5570526-6.0479889
		C247.7365875,227.901947,245.3927765,230.0853577,240.4651794,229.6966858z M282.8010864,208.5345917
		c5.3057251-5.2366791,11.8676758-13.5945129,13.6167297-7.5687714c2.6985474-0.4226227,3.0872192,1.4294586,1.4973755,1.509079
		c-21.1726379,34.7671204-44.2558899,55.6435699-66.5161285,101.3066559
		c-15.2054291,31.1542664-35.6018524,41.3419495-60.4798431,57.4500122
		c-13.5593719,8.769928-37.9339447,26.0908508-45.3434906,42.3136292
		c-8.2992935,18.1217041-0.5830231,38.9747314-3.0286789,60.4798584
		c-3.796669,33.3962097-19.1624832,56.8903503-33.2592316,81.6419373
		c5.6031113-18.2458496,15.2171326-52.9111023,13.5945053-80.1211853
		c-5.9227142-100.735321,43.6049652-86.1351624,77.1147308-123.9778137
		c35.1558075-39.6958923,49.2185974-83.4261169,66.5161133-101.2961273
		C255.3849487,231.1027222,271.5515442,219.5675354,282.8010864,208.5345917z M57.5388336,551.7266846
		c0.0117073-4.0238037-0.5830231-8.6317749,1.5090675-10.5869141c6.9400826-1.3943481,7.3065147,3.7732544,13.5945015,3.0076294
		c-1.4411697,3.0977173-3.0872116,5.9906006-4.5283813,9.0883179
		C64.5819321,552.7440186,62.4547234,550.8462524,57.5388336,551.7266846z M77.1918564,538.0993652
		c-5.0306244-1.5090332-8.5510025-4.5505981-15.1258163-4.5283813c-1.0852661-11.0095215,13.9597702-4.5845337,18.1439514-3.0286255
		C81.3420868,535.1948242,76.0609283,533.4457397,77.1918564,538.0993652z M66.6049576,513.9179688
		c6.5057373-3.7954712,13.3544998,3.2698364,19.6530228,4.5506592
		C84.4983749,525.6604004,68.2170486,520.5150146,66.6049576,513.9179688z M74.1620102,500.324646
		c7.8087616-1.2807617,10.1642609,2.9268188,13.616745,6.0362854
		C84.4410095,509.0934143,74.2193756,505.8809204,74.1620102,500.324646z M90.7968903,491.2351074
		c0,1.5207825,0,3.0298462,0,4.5389404c-3.5098419-3.0404053-11.8899155-1.211731-12.0959702-7.5570679
		C83.1836395,484.1931763,83.1368179,493.8423462,90.7968903,491.2351074z M90.7968903,482.1690063
		c-3.6807709-1.8638-9.8200684-1.2807922-10.5868988-6.0480042
		C85.7440262,476.1210022,91.8833313,475.5262756,90.7968903,482.1690063z M90.7968903,468.5639648
		c-4.344574-0.1943359-7.1789093-1.8743286-6.0479813-7.5687561c1.5090714,0,3.0298462,0,4.5389099,0
		C90.5463562,462.7559814,91.2780609,465.0541077,90.7968903,468.5639648z M95.3475113,433.7968445
		c1.2234116,4.2637939-2.1611633,3.9207458-1.531311,7.5570374c-5.4087677,0.8804016-4.596283-4.4815369-4.5283813-9.0778198
		C91.9980621,432.0934143,92.4780579,434.1164246,95.3475113,433.7968445z M92.3059616,415.6528625
		c1.5102386,0,3.0415497,0,4.5283813,0c3.4185257,3.2698669-1.2585373,5.1559143,0,10.5635071
		C90.8203049,427.2114868,92.5014725,420.4891663,92.3059616,415.6528625z M95.3475113,406.5867615
		c-0.2060471-2.7219543,1.8403854-3.1902466,1.4868317-6.0480042c5.6136398-0.8803711,9.3634872,4.069458,6.0479813,7.5453491
		C98.617363,409.3414917,98.9603806,405.9580688,95.3475113,406.5867615z M101.3732529,394.4907837
		c-0.8803864-4.9170532,1.0396118-7.0430908,1.5090714-10.5868835c6.8710022,1.3826294,8.9970474,6.0936279,6.0479813,13.5933228
		C104.2883682,398.6410217,106.0257339,393.3587036,101.3732529,394.4907837z M116.4990692,382.3948059
		c-4.425354,0.3769836-4.6536484-3.4185181-9.0555878-3.0192871c1.4751205-7.6483765,5.831398-7.5453491,13.5827942-6.0480042
		C120.419838,377.2494507,116.5096054,377.8781433,116.4990692,382.3948059z M118.0081406,365.7704773
		c1.3709183-2.6868286,3.6468201-4.4241943,4.5389099-7.5793152c4.6758957-0.1369629,7.2245712,1.8521118,10.5751877,3.0404053
		C130.3089905,370.8584595,125.5757294,370.0120239,118.0081406,365.7704773z M130.1041107,352.1431885
		c3.1316986-5.5457458,7.7279816,0.057373,12.0959625,1.531311
		C139.616272,360.6602478,133.7626343,353.160553,130.1041107,352.1431885z M139.1819305,343.087616
		c5.8641815-6.7340393,12.1416321-6.0702515,19.6530304-1.5196228
		C156.1247253,351.5941162,145.5378265,345.6152039,139.1819305,343.087616z M167.9010773,337.0396118
		c-6.1744232-0.8909302-10.7929382-3.3154907-12.0959625-9.0778198c2.5838013,0.0690613,3.9102325-1.1203918,4.5389099-3.0181274
		C166.8720093,325.7783813,174.3038025,332.0324097,167.9010773,337.0396118z M167.9010773,320.4047241
		c1.2339478-3.1773376,7.9796906-4.1502075,10.5868988-1.5195923c0.6286926,3.1668091-1.0407715,4.012085-1.5207672,6.0585327
		C172.3592224,325.0010071,171.1018524,321.7428894,167.9010773,320.4047241z M178.4879761,311.338623
		c0.6743469-4.3668213,3.1890717-6.9049683,7.5453491-7.5570679c1.2117004,5.3396912,4.8819427,8.26651,0,12.084259
		C182.477829,315.397522,183.2212372,310.6186218,178.4879761,311.338623z M189.0631714,302.2607727
		c4.150238-18.7492065,24.2492981,4.5623474,4.5506287,6.0480042
		C194.0247192,304.3528748,193.053009,301.8041992,189.0631714,302.2607727z M201.1591339,287.1466675
		c2.8694611-2.9947205,7.1566772-0.7316895,10.5751953,0c0.7317047,4.7566833-2.1494598,5.9110107-3.0181274,9.055603
		C207.3792267,292.0063782,201.2282104,292.6350403,201.1591339,287.1466675z M211.7343292,282.5960388
		c-2.2981415-4.8011475-0.52565-6.6415405,0-12.084259C218.422699,271.0151978,219.6004639,283.4764404,211.7343292,282.5960388z
		 M222.3329468,265.9728699c-7.0536499-0.0339355-7.0536499-7.5336304,0-7.5570374
		C222.3329468,260.9317322,222.3329468,263.4464417,222.3329468,265.9728699z M228.3809204,244.810791
		c1.7607727,4.2649536,0.2856598,6.4144135-1.5090637,10.5868988
		C221.9325562,254.9399261,223.1103058,243.976059,228.3809204,244.810791z M43.9220886,471.593811
		c1.486824,0.0339355,1.1777496,1.8520813,1.5207748,3.0181274
		c-19.206974,69.5916138-32.3893814,153.1207886-24.2036438,240.3763428
		c1.2128735,12.7023926,2.2068233,27.1082153-4.515501,37.8087158
		C2.6843407,655.2284546,17.8897648,547.7602539,43.9220886,471.593811z M33.3468933,728.5933228
		c-4.1841831-40.6430054-7.8427105-82.59021-3.018137-120.947998c3.2932606-26.2839966,9.9008541-47.2177734,13.5933323-77.1029663
		c2.1611633-17.3104248,9.8329468-31.9328308,13.616745-48.3733521c3.0989189-13.4329529,1.3955078-27.8621826,4.5272064-40.8151245
		c2.4245758-9.9465027,30.1486053-73.4222412,45.3774414-95.2469788
		c11.7529449-16.9100037,30.2516327-28.6629333,43.8227234-43.8461304
		c17.3888245-19.4130249,29.2342529-30.8346558,57.4499969-51.4020081
		C187.348053,314.151886,99.1547241,335.4169922,81.7307663,411.1139526
		c-5.7728577,25.0383911-5.7845688,50.4993896-13.616745,81.6419373
		c-9.7521667,10.0038757-16.6454163,32.5614929-21.1620903,48.3838806
		c-4.5272064,15.8926392-8.7230988,35.704895-10.5751915,51.4031982c-0.8920937,7.4540405-0.9377518,17.3771362,0,25.7009888
		c3.978138,35.2471313,13.8110886,71.9693604,9.066124,107.3312378
		c-2.8694572,21.1972046-19.5734119,39.8328857-18.1439533,61.9783936
		C23.6520901,768.2775269,31.3578262,747.286377,33.3468933,728.5933228z M52.9999161,562.2913208
		c3.521553,0,7.0431061,0,10.5868988,0c0,2.0230103,0,4.0355225,0,6.0585327
		c-1.9551163,2.0698242-6.5853462,1.4985352-10.5868988,1.5102539
		C52.9999161,567.3324585,52.9999161,564.8294678,52.9999161,562.2913208z M48.4727097,589.5236206
		c2.0007744,0,4.0249634,0,6.0257416,0c0,1.4868774,0,3.0193481,0,4.5283813
		C51.6278229,593.3999023,48.0044174,593.491272,48.4727097,589.5236206z M48.4727097,600.1000366
		c4.2989159,2.2747192,4.6993027,9.3973999,3.0181389,13.5933228
		C47.6262741,612.1151733,45.4662781,603.8720703,48.4727097,600.1000366z M48.4727097,621.262085
		c9.9465103,0.1135864,3.7955017,16.3492432,7.5453453,22.6712036
		C50.725193,639.1543579,53.7889862,626.0175781,48.4727097,621.262085z M52.9999161,651.5020142
		c4.344574,0.1826172,7.1683731,1.8977661,6.0479851,7.5336304
		C54.692791,658.8530273,51.8678207,657.1613159,52.9999161,651.5020142z M57.5388336,696.8443604
		c0-2.5030518,0-5.0306396,0-7.5336304c4.0354996,1.4856567,8.5521698,2.5029907,7.5570526,9.0543823
		C63.3351097,697.0960693,61.0381393,696.3643188,57.5388336,696.8443604z M57.5388336,710.4494019
		c0-2.0113525,0-4.0355225,0-6.0363159c6.7223206-1.1777344,9.649147,1.4060669,9.066124,7.5687866
		C63.0494499,712.0158081,62.1468201,709.3641357,57.5388336,710.4494019z M57.5388336,718.0298462
		c4.425354-0.4003906,4.6536446,3.4067993,9.066124,3.0064087
		C65.3592987,726.7763672,56.6127853,723.3578491,57.5388336,718.0298462z M63.5868149,731.6231689
		c-2.2068214,4.9276123-3.3834038,3.7966919-9.0883636,3.0192871
		C54.7033272,727.4389648,57.9392204,732.6300049,63.5868149,731.6231689z M51.4908485,754.2955322
		c-2.2864342,2.2747192-0.4565849,8.6317749-6.0479851,7.5675659
		C43.1903801,759.4174194,46.1523247,753.6773682,51.4908485,754.2955322z M34.8559647,790.5834351
		c4.927597,1.1320801,9.5929489,2.5147095,9.066124,9.0661011C40.538681,801.9476929,32.6034813,798.6544189,34.8559647,790.5834351
		z M62.06604,763.3838501c3.0532608-9.0883179,12.6567459-15.9605103,16.6348801-27.2322998
		c15.1948929-43.0336304-20.4526253-91.9208984-12.0959625-140.579895
		c2.9045715-16.9779053,14.1997681-32.5603027,18.1439514-49.9046631
		c-0.1135635,26.3413696-16.9779053,51.7684326-16.6348877,78.624939
		c0.4355164,32.8459473,27.9078293,59.0843506,22.682869,93.737915
		c-2.7207718,18.0643311-17.2635651,32.7557983-22.682869,49.8812256
		c-4.4124718,13.8919067-4.4464264,26.6621704-10.5751877,42.3136597
		C57.7331734,793.1672363,56.8305397,778.921814,62.06604,763.3838501z M80.2099915,802.6793823
		c7.9691544-2.4702148,7.4657364,9.4208374,3.0298462,10.5869141
		C78.9186783,813.0485229,80.4617004,806.954895,80.2099915,802.6793823z M99.8641815,816.2844238
		c-2.2185287-2.1951294-2.2185287-9.8891602,0-12.107666c10.5517807-3.1551514,11.1582184,9.9125366,6.0479889,13.6167603
		C103.2019348,817.9761353,102.7336426,815.9414062,99.8641815,816.2844238z M86.2579803,825.3622437
		c16.0752716-3.9675903,17.6873627,12.1299438,12.0971375,21.1738281
		C82.3137894,850.0224609,79.0439453,832.1536255,86.2579803,825.3622437z M66.6049576,841.9854126
		c2.4702377,4.9967041,14.1775208,18.5209351,0,18.1439819C66.6049576,854.0814209,66.6049576,848.0333862,66.6049576,841.9854126z
		 M98.3551178,870.7045898c-2.2641907-2.4573975-2.2641907-11.1465454,0-13.5933228
		c5.2811584,2.2747192,11.7868958,3.3272095,10.5751877,12.107666
		C104.768364,871.0136719,102.6189117,872.4887695,98.3551178,870.7045898z M71.1438675,873.7227173
		c1.9328766-2.0570068,7.1344223-2.0570068,9.066124,0c0.1943436,2.7219238-1.8520889,3.2019653-1.5090714,6.0596924
		C76.4496155,877.5076904,70.0925522,879.3363647,71.1438675,873.7227173z M134.6313171,867.6864624
		c5.1558838,7.8426514,4.5611572,17.949585,0,25.7009888c-5.2249603-2.8355103-9.7638779-6.355896-15.0918655-9.0661621
		C118.7960358,873.026123,122.6489029,866.2686768,134.6313171,867.6864624z M71.1438675,884.3212891
		c1.3381424,1.1660767,3.4185333,1.6238403,6.0479889,1.520813c-0.880394,4.6536255-0.3886871,10.7015991-6.0479889,10.5634766
		C71.1438675,892.3700562,71.1438675,888.3462524,71.1438675,884.3212891z M80.2099915,900.944519
		c-1.1882858-5.2249756,1.6694565-6.3793335,3.0298462-9.0661621
		C86.4640274,893.2738647,85.2979813,902.8773804,80.2099915,900.944519z M92.3059616,896.4055786
		c5.1219406,0.6286621,1.109848,8.7921753-3.0181427,9.0778198
		C87.6757278,899.8358154,93.0376663,901.1739502,92.3059616,896.4055786z M101.3732529,902.4535522
		c1.2117081,0.8125,2.4690704,1.578125,4.5389175,1.5324707c0,1.4973755,0,3.0064697,0,4.5155029
		c-1.7607803,1.2808228-4.0589142,1.9902344-7.5570526,1.5325317
		C97.2230225,905.3581543,102.5041809,907.1188965,101.3732529,902.4535522z M75.682785,906.9924927
		c2.7102356-0.1943359,3.190239,1.8520508,6.0479813,1.5090332c0,1.5325317,0,3.0298462,0,4.5389404
		C78.2092209,912.5264893,74.6431808,912.0687256,75.682785,906.9924927z M154.296051,913.0404663
		c0,3.5332642,0,7.0548096,0,10.576355c-4.1279907,1.1203613-3.0415649-2.9959106-6.0479889-3.0076294
		C149.1963501,917.0197754,150.2827911,913.5672607,154.296051,913.0404663z M140.6910095,946.2996826
		c-0.4238129-3.9453735,0.5478973-6.5057373,4.5272064-6.0374146
		C146.7612305,944.4932861,146.9333344,946.6989136,140.6910095,946.2996826z M152.786972,946.2996826
		c2.2290649,0.7996216,3.8072052,2.2513428,6.0479889,3.0404053c-0.3781433,2.6411743-2.6072083,3.4419556-6.0479889,3.0075684
		C152.786972,950.3469238,152.786972,948.3226929,152.786972,946.2996826z M104.4030991,946.2996826
		c1.3030243-3.7393188-0.3898544-10.4616089,4.5272064-10.5869141
		C111.6171265,938.8339844,111.1359634,947.9796753,104.4030991,946.2996826z M157.3141785,934.2025757
		c1.2234192,0.8007812,2.4573669,1.5898438,4.5272064,1.5101929c0.6520996,3.1551514-1.029068,4.012085-1.4973602,6.0480347
		C157.0285187,941.5430298,157.108139,937.9641113,157.3141785,934.2025757z M143.709137,929.6647949
		c1.2234192-0.8007812,2.4468231-1.5664062,4.5389252-1.5102539c1.1777496,1.3381958,1.6343384,3.4302368,1.5090637,6.0480347
		C145.801239,934.6380615,143.2513885,933.6663818,143.709137,929.6647949z M160.3440247,928.154541
		c-0.4343414-3.9547119,0.5478973-6.4822998,4.5389252-6.0362549
		C165.3055725,926.0625,164.3221588,928.6240234,160.3440247,928.154541z M113.469223,928.154541
		c-2.0124817,0-4.0366745,0-6.0257416,0C106.231781,922.3360596,114.66922,922.3360596,113.469223,928.154541z
		 M96.834343,917.5688477c4.0811539,0.1135254,7.2713928,3.4630127,4.5389099,6.0479736
		C97.3939514,924.0968018,96.4222412,921.5352783,96.834343,917.5688477z M80.2099915,931.1843872
		c-1.2913132-4.8245239,2.3894577-4.687561,3.0298462-7.5675659c4.3223343,0.2282715,2.7558975,6.3219604,3.0181427,10.5857544
		C84.0172043,933.4146729,82.4519348,931.961792,80.2099915,931.1843872z M93.8162003,929.6647949
		c1.3486786,1.1660767,3.4290619,1.6226196,6.0479813,1.5195923c0.3196106,4.3446045-0.3781433,7.6835327-3.0298386,9.0778809
		C89.4025574,940.3769531,93.8618622,934.3172607,93.8162003,929.6647949z M89.2878189,944.7789307
		c2.8237991,1.7033691,7.2831039,1.7947388,6.0596924,7.5687256
		C90.9806976,952.1638794,88.1568985,950.4604492,89.2878189,944.7789307z M130.1041107,947.8087769
		c0.3886719,4.4358521-3.4185333,4.6641846-3.0298462,9.0883789
		C123.7013931,955.3201294,125.8848038,946.7680054,130.1041107,947.8087769z M134.6313171,961.4243164
		c0.273941-4.7788696,1.0630188-9.0204468,6.0596924-9.0766602c3.7147217,3.6925049-1.1320953,6.5502319,0,12.0842896
		C136.5747223,965.5405884,137.6494598,961.4477539,134.6313171,961.4243164z M154.296051,959.9047241
		c-0.1147461,4.9158936-1.9328766,8.1400757-6.0479889,9.0661011
		C147.835968,963.5281372,147.8699188,958.5209351,154.296051,959.9047241z M157.3141785,975.0188599
		c2.1834106-2.3555298,3.1785278-5.8770752,4.5272064-9.055603
		C165.3055725,968.0447998,162.9957275,977.0769653,157.3141785,975.0188599z M173.9373627,972.0112305
		c0.7551117,4.7683716-2.7207794,5.3162842-1.4973602,10.576355
		C167.7640991,982.4038086,169.6501465,972.1599121,173.9373627,972.0112305z M184.535965,978.0592041
		c0.3886871,4.425354-3.4185333,4.6536865-3.0181427,9.055603
		C178.2819366,985.7192993,179.436264,976.1275024,184.535965,978.0592041z M125.5757294,981.0668335
		c3.167984-3.2932739,4.3106232,0.7434082,9.0555878,0c0.6509247,3.1550903-1.029068,4.0132446-1.509079,6.0479736
		C129.5316162,986.177063,126.0908508,985.0800781,125.5757294,981.0668335z M139.1819305,987.1148071
		c3.1551208-0.6181641,3.9898529,1.0513306,6.0362854,1.520752c-0.7890778,1.211731-1.5781403,2.4573975-1.509079,4.5272217
		C139.7298431,993.6311035,138.7464294,991.0706787,139.1819305,987.1148071z M121.0262756,991.6420288
		c2.4351196-4.2298584,5.6593018,3.2815552,9.0778351,3.0415649
		C127.0742645,1002.1949463,125.6787491,991.4359741,121.0262756,991.6420288z M134.6313171,999.2107544
		c2.7207642-0.1826172,3.2007751,1.8638306,6.0596924,1.520813c1.0969696,4.1268311-3.0075989,3.0403442-3.0298462,6.0479736
		C134.3561859,1006.5734863,134.4252625,1002.9606323,134.6313171,999.2107544z M143.709137,1012.8275146
		c0.1826477-3.8528442,2.2068329-5.8536377,6.0479889-6.0479736c0.4799957,3.4981079-0.2399902,5.7962646-1.5090637,7.5570679
		C147.0246429,1013.5358276,145.7778168,1012.7584229,143.709137,1012.8275146z M155.8051147,1018.8521118
		c-0.6977539-4.7098389,1.3147278-6.7223511,6.0362701-6.0245972
		C160.0583649,1015.0682983,160.5500793,1019.5615234,155.8051147,1018.8521118z M187.5541077,1038.5168457
		c10.026123-18.2352905,19.8813171-30.2739258,22.6711578-49.8812866
		c3.6585236-25.6904297-12.2329407-56.2956543-7.5570526-90.6975098c1.2234039-8.9865112,7.2948151-16.4182739,7.5570526-25.7127075
		c6.8031006,14.6914673,0.9951172,32.3671265,3.0298462,49.8929443c1.3603821,11.7307129,7.5231018,22.5693359,9.0778351,34.7788696
		c2.1377411,16.8748779-3.2359009,34.8244629-1.509079,51.3914185
		c1.7373657,16.8057861,15.2745056,27.7696533,10.5751953,45.3540039
		C220.5265045,1044.8621826,204.4629364,1041.2609863,187.5541077,1038.5168457z M184.535965,1050.612793
		c14.6341095,0.6169434,40.517746,2.7208252,43.8449554,19.6529541
		C215.5755005,1062.8117676,177.3219299,1073.0673828,184.535965,1050.612793z"/>
</g>
</svg>
