<?xml version="1.0" encoding="utf-8"?>
<!-- Generator: Adobe Illustrator 27.2.0, SVG Export Plug-In . SVG Version: 6.00 Build 0)  -->
<svg version="1.1" id="cardamon" xmlns="http://www.w3.org/2000/svg" xmlns:xlink="http://www.w3.org/1999/xlink" x="0px" y="0px"
	 viewBox="0 0 500 912.1959229" enable-background="new 0 0 500 912.1959229" xml:space="preserve">
<g>
	<path d="M459.4760742,429.2060852c-14.4328308-38.5157776-32.1524353-74.6446533-48.6636963-109.1520996
		c-16.9248352-35.3973694-39.8197937-65.5994873-61.9623718-95.8957214
		c-42.1837463-57.7417755-82.2168884-86.4908447-144.56987-116.5334854
		c-27.6886902-13.3400269-45.6744232-26.9247589-67.8593597-42.7886887
		C121.564949,54.231205,106.527153,42.3123398,99.5384674,25.016264c3.882309-5.97015-3.5942383-19.2788048-10.3173218-23.6050472
		C77.8638458-5.9058504,5.7634997,16.4798603,0.7162185,39.7560196
		c-3.5105612,16.1724243,6.3623042,25.5255585,19.1726627,32.4719086
		c22.1101418,27.3278961,16.2665291,90.2011337,7.3808575,131.2826538
		c-6.16152,28.4421387-21.8450603,51.7496643-23.6060925,76.7026825
		c-3.2449424,45.7261963,5.3976059,90.0850525,7.3808584,129.8201904
		c1.9837751,39.8621521-1.8656063,80.0103455,1.4635181,119.491333
		c7.3170671,86.5211792,41.5160065,162.2267456,84.0929337,216.8286743
		c34.3375168,44.0409546,73.5643997,78.102417,115.0584488,112.1115723
		c14.7512665,12.0992432,113.3732452,59.7025146,156.3742218,53.1070557
		c10.7424011-1.6439209,16.0871887-8.7915649,26.5435791-14.7397461c10.307373-5.854126,20.9640503-8.2196045,25.0785217-11.8027954
		c10.1708984-8.9086914,17.264679-26.5969238,23.6065979-38.3573608
		c26.9671326-50.1052246,51.738678-115.6101074,56.0549927-179.9683228
		c2.3858643-35.5139771-1.9403687-75.3980713-5.9074097-113.595459
		C489.0308838,510.9775085,474.1211853,468.209198,459.4760742,429.2060852z M16.9409294,48.6322937
		c-7.4875231-17.6348991,30.9654999-32.205246,44.517292-36.3197212c5.4608688-1.6758041,20.6361771-1.8452148,21.8665009,6.7973337
		c-4.199173-2.767561-7.5079193,7.5079155-17.709671,11.802784C50.7372589,37.1693726,28.3939133,40.6051636,16.9409294,48.6322937z
		 M450.6431885,554.5828857c-7.5826721-35.6096191-14.3381958-71.2511902-26.5545654-98.8232727
		c-26.0222778-58.6850281-51.0286255-119.5865173-81.144989-168.1654968
		c-23.9982605-38.7275543-60.0534058-74.9531555-88.4939423-104.7401123
		c-27.0941925-21.5909424-105.1542358-61.8986053-115.069458-64.9108734
		c-20.4986649-6.2038727-35.2279663-14.3261642-48.685112-30.9754486
		c-8.8652954-10.9541626-21.028862-26.8510323-17.6992111-38.3353882
		c8.9076462,2.7994537,8.6848984,11.8451347,13.2872162,17.6882248
		c12.2597733,15.5988388,34.2847061,33.2133408,51.6236725,42.7792816
		c16.4249573,9.0660782,36.1816711,13.0859146,53.1065063,22.1315994
		c8.9186249,4.7602234,17.931366,13.1915283,28.0175629,19.1616821
		c14.8981781,8.8443756,27.0094604,16.6283722,39.8401947,26.5644989
		c21.4738464,16.6377869,49.0678711,43.2660675,66.3733521,67.8577728
		c31.7184448,45.0485382,54.464447,90.1802216,82.6090393,143.0864716
		c13.4147949,25.2275391,28.4092102,54.2730713,32.4499512,79.6495972
		c3.1063843,19.4069214,7.5392761,34.7192078,13.2866821,53.1285095
		c17.2756958,55.1864624,27.3279114,141.3578491,5.8859863,200.5840454
		c0.0214233-18.6633911,8.9510193-41.3042603,10.3397827-60.46698
		C472.0746765,629.5350342,457.7798767,588.1141357,450.6431885,554.5828857z M142.328186,206.4590454
		c7.0519714,3.0535736,1.8452148,9.1727448,2.9484711,17.6992188
		C139.7614136,222.8113403,143.3566742,212.3230591,142.328186,206.4590454z M158.5529022,321.5285034
		c19.8089905,43.1599121,39.9578552,84.9520264,60.4779663,126.8612366
		c13.7211914,53.7962036,18.4720001,105.8323669,36.8812714,151.919342
		c8.3994141,21.0184326,20.0751343,41.4213867,29.5020142,61.9733887
		c9.4169312,20.4876709,22.0578613,39.7026978,30.9869385,60.4769287
		c18.3135681,42.640686,31.6964722,88.0066528,45.7261963,135.7056274
		c-19.2573853-23.4889526-25.5993042-58.7493896-39.8308105-91.4534302
		c-12.937439-29.7351685-28.6005859-62.2269897-45.7261963-91.4638672
		c-5.5466309-9.4691772-12.7366333-18.3135986-17.6992188-28.0379639
		c-10.5829163-20.6571045-15.2275848-44.326416-23.6050262-66.3623657
		c-8.166214-21.4848022-19.6819458-42.3761597-26.5535278-64.8999023
		c-14.3585815-47.1368713-26.532608-93.4674988-47.2006836-135.7265015
		c-9.8200531-20.0531921-21.5376129-41.3790283-28.0389862-61.9514465
		c-10.2226791-32.3652344-9.649086-71.5272827-13.2652512-103.2661133
		c-1.4107208-12.3648834-6.3523865-24.0196991-5.8964386-36.872406
		C127.0995483,230.4149475,138.4144897,277.6365356,158.5529022,321.5285034z M152.6564789,221.2097931
		c2.3759155-0.4135895,2.5453339,1.3997192,4.4224396,1.484436c1.4629974,8.3460693-4.4119873,9.3431854-2.9589233,17.6992035
		C148.6371613,237.0956726,154.5231171,229.4810944,152.6564789,221.2097931z M213.1344299,410.0334473
		c41.6221619,52.7781372,47.2854004,125.0165405,70.8167114,191.7600708
		c22.2163086,63.0013428,60.5302429,119.3637695,73.7542114,187.3392334
		c-17.8790894-33.4251099-31.2619934-73.8279419-51.6330566-110.637085
		c-3.680481-6.6488037-10.2132568-12.1410522-13.2772827-19.1616821
		c-10.158905-23.3508911-16.151001-51.7820435-26.5535278-78.1865845
		c-9.8937683-25.1428223-22.19487-51.9624634-26.5535278-76.7026672
		c-3.3296356-18.9389343-2.9594574-34.793457-8.8448944-51.6330566
		C225.6896362,438.0603943,217.9480133,425.7702942,213.1344299,410.0334473z M276.570282,755.2093506
		c-2.4072876-2.1741333-10.3397827,4.9515991-14.7507324,1.4734497c-0.2018127-2.7461548-0.96521-4.9202271-2.9484863-5.9063721
		c3.4154053-4.4433594,9.2370605-6.4904175,11.8027954-11.8027954c6.9249268,10.7842407,11.898468,23.5098877,19.1726685,33.9343872
		c0.0109863,4.9312134-5.9277954,3.9126587-7.369873,7.3798218c-5.0049133-3.859314-7.0409851-10.6676025-11.8027954-14.7507324
		C274.1943665,763.6605225,278.3621826,762.40979,276.570282,755.2093506z M226.4211273,688.8250122
		c8.1128845-4.6660767,14.3591156-4.8668823,16.2257538,5.9063721c-5.0796967,1.3255005-6.4166718,6.3633423-13.2772827,5.8964233
		C230.4618835,694.6147461,224.6187897,695.538147,226.4211273,688.8250122z M198.3836975,637.1914062
		c4.5170898,1.0609131,4.3367004-2.5343628,8.8543091-1.4734497c2.0674438,2.8417969,3.9027252,5.9377441,4.421402,10.3277588
		c-6.531189-0.710022-7.3275146,2.0266724-11.8022614,0C200.9290466,641.5396118,197.3227997,641.7090454,198.3836975,637.1914062z
		 M189.5288696,626.8735962c1.1978912-5.7055664,7.5079193-6.2775879,8.8548279-11.8027954
		c5.959198-0.0533447,1.2930603,10.49823,5.8964386,11.8027954c-3.0656128,2.3225708-7.7416534,3.0546265-13.2668304,2.9589233
		C191.256958,628.1039429,190.6844177,627.2024536,189.5288696,626.8735962z M171.8301849,564.9117432
		c4.9515839,0.0423584,7.8043823-2.0151978,10.3178253-4.4224854c2.6509552,3.7437744,5.1539459,7.6564331,5.9173431,13.2772827
		c-3.9027252,2.0042114-10.0642395,1.7385864-14.7507477,2.9370117
		C174.4382629,571.1469727,171.5117645,569.6625366,171.8301849,564.9117432z M164.4493256,547.2020264
		c3.3401031-1.5690918,6.4998169-3.3400879,8.8652802-5.885437c4.3053284,2.5563354,5.8211365,7.9324951,5.8964386,14.7507324
		c-3.277359,1.1346436-5.7479401,3.0969849-10.3293152,2.9375
		C169.7941132,552.6958618,164.0775604,552.9918213,164.4493256,547.2020264z M160.0273895,532.4727783
		c1.6005096-6.7236328,14.2524414-11.0922241,11.8027954,1.4629517c-3.1926575,1.241333-5.0269012,3.8070679-10.3183594,2.9375
		C161.914444,534.4983521,160.10112,534.3603516,160.0273895,532.4727783z M155.6044159,507.393219
		c2.3336029-0.1380615,5.6208801,0.7100525,5.9074097-1.4750366c2.6080933,2.8005066,4.8559113,5.9497681,4.4109497,11.8038635
		c-3.4671478-0.0423584-4.3372192,2.5343018-8.8438568,1.4734497
		C158.129364,513.7236328,154.5654907,512.8755493,155.6044159,507.393219z M140.8536835,454.2955933
		c5.249115-0.1689148,5.3557739-5.4608765,11.8027954-4.4423218c0,3.9346008,0,7.8780823,0,11.8137512
		c-3.435791,0-6.8815155,0-10.3282928,0C143.5475159,457.4992065,140.2597198,457.8490295,140.8536835,454.2955933z
		 M124.6295013,359.8738098c1.9090042,5.4619446,4.6551361,10.0956116,5.8964233,16.2351685
		C125.2548523,373.9992065,123.9612656,367.9333801,124.6295013,359.8738098z M102.4973831,145.982132
		c8.822937,54.739975,9.5439758,113.8490448,20.6476822,169.6389618
		c3.8070297,19.0455933,16.1928101,40.6051636,25.0894775,60.4878845
		c8.9923706,20.1065369,19.6082153,39.3748779,26.5535278,58.9935303
		c15.896347,45.0161438,24.7192841,89.0461121,41.304245,129.8092346
		c16.7664185,41.2717896,30.2131042,82.4066772,51.6236572,119.491333
		c21.9297791,37.9955444,38.3667603,78.1541748,53.1070557,116.5324707
		c-16.6597595-22.5133057-30.3500977-47.3173218-44.2527466-73.7547607
		c-13.4153137-25.4920654-32.7254944-47.0202637-48.6741333-72.2791748
		c-15.8858795-25.1443481-21.8884583-57.116394-32.4609222-88.5159302
		c-4.9735565-14.7617188-10.9860535-29.8088989-16.2241821-44.2417603
		c-10.8495941-29.9155579-15.8435364-66.268219-23.6066284-101.782196
		c-6.2666168-28.7485352-20.4453278-53.7433777-29.4904861-81.1340332
		C107.5666199,283.1083984,104.6181488,217.7102051,102.4973831,145.982132z M129.0509033,383.4799194
		c1.9733124,0,3.934082,0,5.8964386,0c0.2964478,4.7293701-2.4700623,6.3832092-5.8964386,7.3798218
		C129.0509033,388.4001465,129.0509033,385.9285278,129.0509033,383.4799194z M136.4207764,398.2306519
		c4.4752655-0.043396,3.6804962,5.1853027,4.4329071,8.8548279c-2.1411591,0.8057556-7.6130066-1.7395935-7.3808441,1.4734497
		C127.5978394,405.049408,132.9112701,400.403717,136.4207764,398.2306519z M145.2766571,420.3617249
		c-4.5704193-0.1479797-8.1865997,0.6687622-10.3293152,2.947937
		C128.2984924,417.7217407,147.842392,409.1105652,145.2766571,420.3617249z M136.4207764,433.6390076
		c4.1678162-1.2726746,6.0658417-4.7618103,11.8137665-4.4329224c0,4.4329224,0,8.8543091,0,13.2762451
		c-4.7931671-0.8480835-6.8605957,1.0075684-10.3277435,1.4854736
		C137.4393311,440.5105896,135.5726776,438.4321594,136.4207764,433.6390076z M157.0789185,470.5103455
		c0,2.4606323,0,4.9202271,0,7.369873c-4.4543457-0.4559326-11.474411,1.6334534-11.8022614-2.9369507
		C145.8695984,470.0967712,152.5084991,471.3490295,157.0789185,470.5103455z M151.1825104,488.2095642
		c2.5238953,0.0737305,3.8179932-1.0818176,4.4219055-2.9375c6.1615295,0.4345093,2.6096649,13.5523071,0,14.7402954
		C151.7550354,498.4635925,150.7799072,494.0202332,151.1825104,488.2095642z M188.0653534,581.1473999
		c3.4138184,1.484436,4.7508087,5.0797119,4.4109344,10.3178711c-3.2339325,3.149231-11.6114044,1.1665039-13.2652435,5.8953247
		c-2.1960602-2.7351074-2.8323975-7.0090942-2.9594574-11.7918091
		C179.1576996,583.0658569,185.3709869,583.8621826,188.0653534,581.1473999z M198.3836975,612.1118774
		c-7.8901367-1.4954224-7.338501,5.4509277-14.7512512,4.432373c0.4031372-5.3123779-2.7252045-7.1047974-2.9479523-11.8027954
		C190.6106873,599.6518555,198.6906433,596.0142212,198.3836975,612.1118774z M219.0308685,657.838562
		c0.2541046,3.7009277-2.2598572,4.633728-4.4120026,5.9063721c-5.0472565,0.6159668-4.4433594-4.4109497-7.3808594-5.9063721
		C210.1969452,654.2119751,217.4183197,651.3168335,219.0308685,657.838562z M221.9777679,666.7038574
		c6.5860901,0.2965088,5.1973419,8.5787964,10.3293304,10.3293457c-1.749527,3.149292-6.3842621,3.435791-8.8438568,5.9063721
		C218.3411865,678.9835205,215.4037018,670.9250488,221.9777679,666.7038574z M247.0688171,699.1538086
		c4.6441498,0.276123,1.8870392,7.9314575,7.3808746,7.3704224c-1.432663,7.4436035-7.4875183,10.2330933-13.2882843,13.2756958
		C232.1690674,708.8457642,240.0168457,707.4146729,247.0688171,699.1538086z M257.3866577,715.37854
		c4.7084351,4.145874,6.1400757,11.5690308,10.3293152,16.2241821c-1.5487366,7.3071289-8.5374451,9.1737671-14.7507324,11.803833
		c-2.6520081-4.2425537-3.8823242-9.8728638-7.3808594-13.2772827
		C247.0154877,722.7060547,255.7537231,722.5994263,257.3866577,715.37854z M295.7429504,781.7733154
		c2.0046997,5.3657227,6.733551,7.9957886,7.3808899,14.7293091c-3.3620911-0.4135742-5.5456238,0.3712158-5.9074402,2.9589233
		c-4.4637451-3.90271-10.169342-6.5432129-10.3277283-14.7617188
		C291.0768738,784.9649048,289.7618103,779.7268066,295.7429504,781.7733154z M306.0722961,799.4615479
		c2.7147217,4.1777344,7.1157532,6.6697388,7.3808289,13.2762451c-2.8103943,0.6253662-3.711853,3.1816406-7.3808289,2.9484863
		c0.3712158-4.2948608-2.7680969-5.0896606-4.421936-7.369873
		C300.3557129,802.6107788,305.2445679,803.0667725,306.0722961,799.4615479z M316.4010925,817.1607666
		c5.9063721,0,4.8878174,6.9139404,8.8433228,8.8543091c-2.0564575,2.3748779-5.0796814,3.7745972-8.8433228,4.4329224
		c-1.7286072-2.2164917-1.8352966-6.0454712-4.4229736-7.3808594
		C311.5331421,819.1968384,317.6941528,821.9005737,316.4010925,817.1607666z M328.2038879,833.3959351
		c6.2242737,1.1445923,7.8571777,6.8825684,8.8433228,13.2762451c-2.5029907-0.5406494-2.7774963,1.1346436-2.9375,2.9484863
		c-6.2775879-2.0784302-8.8757324-7.8467407-11.8132324-13.2762451
		C323.1979065,834.2973633,327.9811401,836.1315918,328.2038879,833.3959351z M124.6295013,171.0512238
		c3.6156616,3.5408783,4.3367004,4.357605,2.9479446,10.3277588
		C124.5651855,179.9588623,124.3957901,175.7272644,124.6295013,171.0512238z M136.4207764,203.5105743
		c-5.1424408-0.7524109-2.1521301-9.6391449-2.947937-14.7507324
		C137.5883484,190.5626984,136.2200012,197.8164978,136.4207764,203.5105743z M133.4728394,134.178299
		c12.800415,9.3322144,67.0844574,59.0358887,72.2917175,63.4358521
		c20.1269073,17.0001373,74.9201965,67.5409088,81.124115,73.7447968
		c8.1552124,8.1646423,15.8006287,19.9998474,23.6159973,29.5014648
		c8.2070007,10.0318298,48.2495728,86.7125549,61.951416,116.553894
		c37.0617065,80.646698,96.2355957,161.7174072,81.1340027,277.3170776
		c-9.0770569-41.0286865-9.681488-84.9415894-19.1726379-123.9242554
		c-9.9465942-40.7949829-30.7950745-80.0098572-51.6430054-113.5740662
		c-43.0328674-69.3312378-80.8385925-139.7453308-131.2842102-199.1404114
		c-25.7368164-30.297821-62.098877-46.9047394-87.0409088-78.1761475
		C152.7093048,165.1657715,147.4601746,146.6284027,133.4728394,134.178299z M157.0789185,134.178299
		c2.2588043,0.0219574,3.2240295,10.9233093-1.4745026,8.8553619
		C155.4036407,139.3850555,155.3926544,135.9178925,157.0789185,134.178299z M165.9227753,151.8675842
		c0-4.4120026,0-8.8339233,0-13.2663116c1.4844513,0,2.9589539,0,4.4229889,0
		C170.037262,144.189209,171.8505707,151.8989563,165.9227753,151.8675842z M177.7255554,148.919632
		c1.3788147-3.9769745,4.2519989,16.2979126-1.4739685,14.7606659
		C175.2236176,157.2437439,178.7645111,155.3666382,177.7255554,148.919632z M188.0653534,153.3619385
		c6.8072662,1.2413025,5.6302795,18.7805176,1.4635162,22.1216583
		C183.4949341,172.5780029,187.4603882,158.9294891,188.0653534,153.3619385z M199.8571472,163.6802979
		c5.9497833,2.1955414,3.001297,19.2265167-1.4734497,20.6471558
		C195.9335175,178.5057983,201.7452393,173.2880707,199.8571472,163.6802979z M214.618866,194.6562653
		c-12.5771484-1.7176361-2.6410217-16.1928101-1.484436-25.0690918c2.6504364-0.1908417,3.1173706,1.8028717,5.8964386,1.4640503
		C217.1955872,178.5481567,214.1095886,184.8053589,214.618866,194.6562653z M226.4211273,176.9575806
		c5.4190521,9.8838501-3.6470032,17.9637756-2.9578857,28.0280151
		C213.5684204,199.2376709,227.2174683,187.3820801,226.4211273,176.9575806z M236.7394867,185.8019562
		c1.9299316,0.5301971,2.3121338,2.6190643,4.4219208,2.9578857c-0.6572418,10.148941-4.5379944,17.0942535-5.8953705,26.5435944
		C224.4070282,209.9371948,236.2835388,194.0732727,236.7394867,185.8019562z M248.5532532,196.129715
		c6.7335358,7.4451752,0.4026031,22.8421783-1.484436,30.9765015
		C237.0793457,220.976593,247.9169159,205.5042877,248.5532532,196.129715z M258.8710632,209.417984
		c2.3544922,6.8182526,2.6619568,24.284256-4.4213715,26.5320892
		C253.6439209,230.3088074,258.4465027,218.664444,258.8710632,209.417984z M267.7159729,224.1582642
		c7.1366882,4.3367004-1.7615662,13.8069458,0,22.1315918C257.6407471,243.6273956,270.0061646,232.9059143,267.7159729,224.1582642
		z M276.570282,238.9089966c2.8418274,2.4705658,1.8875732,13.6051331,0,16.2351685
		C270.3983154,252.9386902,276.5812683,244.0519714,276.570282,238.9089966z M288.3730774,234.4970093
		c6.5108032,6.1081848,1.0609131,20.2759247,1.4734497,29.5014648
		C280.7694702,259.6084595,290.3777771,245.4307861,288.3730774,234.4970093z M298.7018738,252.1962128
		c10.6038513,2.0998535,3.9346313,18.8228607,1.4739685,25.0795441
		C291.9782715,272.153717,300.4090576,263.1503906,298.7018738,252.1962128z M310.5046692,268.4214478
		c3.5204773-0.6687622,0.9328308,16.118042-1.484436,19.1726685c-3.0012817-0.4355469-2.8951111-3.9874268-5.8963928-4.421936
		C305.3826294,278.0501404,310.5580139,275.8436279,310.5046692,268.4214478z M319.3479919,277.2757568
		c3.6161804,3.7228394,4.0093994,20.3182678-2.9468994,22.1211548
		C312.0534058,291.0299072,320.7477112,287.1585693,319.3479919,277.2757568z M328.2038879,290.5426025
		c6.7648926,3.0326538,0.9751587,17.2102966-1.4855042,20.6565552
		C321.2465515,308.5063782,330.7696228,299.6614685,328.2038879,290.5426025z M337.0472107,305.293335
		c3.2663879-0.4988403,1.3683472,17.6035156-4.421936,17.6976318
		C331.5220337,314.5288086,339.0722961,314.6882935,337.0472107,305.293335z M342.943634,336.2682495
		c-6.3199463-2.8731689,1.3997192-11.982666,1.484436-17.6987
		C352.1163635,321.6665344,340.429657,328.7289734,342.943634,336.2682495z M351.7979736,353.9784546
		c-8.1442871-5.0797119-0.6144104-14.963562,0-23.6066284C358.3840332,334.5192566,350.843689,346.0459595,351.7979736,353.9784546z
		 M360.652771,348.0820007c2.8005066,5.3123779,1.4321594,19.0769958-4.421936,20.6362
		C353.5375366,362.0055542,360.8546143,356.7669067,360.652771,348.0820007z M385.721344,396.7671204
		c7.8587646,7.3484497-1.1236267,20.7632446-2.9468994,28.0170593
		C375.3088684,416.0882874,386.6980591,407.9335938,385.721344,396.7671204z M391.6287537,424.7841797
		c3.2449341,1.9299011-1.7395935,7.9737854-1.4635315,11.8027649
		C386.7085266,434.4552002,391.0990906,427.806366,391.6287537,424.7841797z M375.4035034,407.0854797
		c-9.277832-8.5473938,2.1108398-17.1789551,1.4745178-29.51297c3.2663574,1.1665344,3.7008667,5.164917,5.8964233,7.3918457
		C381.108551,393.1195679,376.8989258,398.7498474,375.4035034,407.0854797z M366.5491943,387.901825
		c-8.4516907-7.3918152,0.710083-13.7541199,1.484436-23.5956116
		C378.8926392,368.6120605,368.06604,379.3643799,366.5491943,387.901825z M415.234314,464.6139221
		c7.9429321,4.8041687-1.315033,13.1601562,0,20.6581421c-3.9874268-0.4449463-2.6410217-6.214325-5.8964233-7.3918457
		C409.7938232,471.9524231,416.2732849,472.0481262,415.234314,464.6139221z M422.6151733,486.7455139
		c3.6475525,2.3335876,0.6044312,10.3183594,0,13.2668457c-3.573822-1.8342285-4.7827148-6.0344849-5.9063721-10.3293457
		C420.0698242,490.107605,422.2543945,489.3332214,422.6151733,486.7455139z M406.3794861,469.0368958
		c-4.4324036-1.951355-5.6736755-7.1047668-7.369873-11.803833c5.3233337,3.5001221,7.9424133-6.202301,8.8438416-11.8022461
		C414.9692078,452.6626587,406.1682434,460.0435181,406.3794861,469.0368958z M397.525177,454.2955933
		c-2.3539734-2.0779114-3.764679-5.0786743-4.4119873-8.8647766c6.6383667-1.2198792,5.1115723-10.6038513,7.369873-16.2247314
		C404.1322021,436.3537598,394.7999573,443.1610107,397.525177,454.2955933z M429.9740601,519.1954956
		c4.3058472,2.5876465,4.8464966,8.9295654,5.9074097,14.7402344
		C433.1557312,529.789917,431.3215332,524.7415771,429.9740601,519.1954956z M95.1275024,151.8675842
		c-3.3824539-14.3057861-10.6362534-24.7616501-14.7507324-38.3353958
		C89.5495071,122.0476761,93.8767929,135.4305725,95.1275024,151.8675842z M161.5118256,727.1807861
		c-2.6943512-2.2159424-3.4682007-6.3617554-5.9074097-8.8543091c1.7082367-5.6627197,8.9296112-5.821106,8.8449097-13.2662964
		C172.1266479,710.6491699,160.0164185,718.3264771,161.5118256,727.1807861z M170.3457642,727.1807861
		c3.4357758,2.1113892-1.7082367,7.9968262-2.9385376,10.3293457c-3.2554169-1.177002-1.9079742-6.9359131-5.895401-7.3808594
		c0.2755585-1.6757812,1.4734497-0.8167114,1.4734497,0C166.6338806,730.3519897,170.1329346,730.4048462,170.3457642,727.1807861z
		 M152.6564789,712.4300537c-1.9613037-3.9450684-4.485199-7.3275146-5.9063721-11.8022461
		c4.0611725-3.3296509,4.3163147-10.4344482,7.3698883-14.7617188
		C163.8553467,692.6210938,156.7500305,704.1587524,152.6564789,712.4300537z M143.8016357,691.7839355
		c-12.3115387-3.977478-0.2332001-17.5935669,2.9484711-23.6060791
		C154.2580261,676.0360718,144.565033,683.4158936,143.8016357,691.7839355z M131.9993744,677.0332031
		c-7.4655609-6.1829224,4.9416656-14.8887939,5.9074249-22.1315918c4.028183-1.0817871,2.9683228,2.9369507,5.8948364,2.9369507
		C138.1812897,662.5470581,136.0819702,670.776001,131.9993744,677.0332031z M124.6295013,663.7449341
		c-10.0851517-7.9638672,7.2741852-17.9736938,8.843338-28.0269775
		C142.455246,646.5549927,125.4666138,653.2890625,124.6295013,663.7449341z M130.5259247,628.3370972
		c-10.9876099,0.8276978-7.4561539,16.1505127-13.2772827,22.1415405
		c-8.939537-12.6932373,5.8211288-22.4280396,8.8652878-32.4598999
		C128.3612366,620.6807251,131.4163818,622.536377,130.5259247,628.3370972z M111.3422775,629.8325195
		c-12.1316681-11.0283813,6.1604767-22.3762817,8.8653107-32.4719238
		C128.9552307,610.585083,114.671402,619.619812,111.3422775,629.8325195z M103.9724197,610.6378784
		c-3.0441742-10.4343872,8.3340378-19.1726074,11.8121796-28.0280151
		C121.1194611,595.367981,104.9580154,599.3119507,103.9724197,610.6378784z M99.5384674,595.8981323
		c-7.4331589-11.9089355,6.670784-21.1240234,10.3397751-30.9863892c1.3045807,0.6682129,2.6410217,1.2825928,2.9484711,2.9473877
		C111.6601868,580.46875,102.2108459,584.7740479,99.5384674,595.8981323z M95.1275024,576.7035522
		c-13.329567-7.9748535,6.0444031-19.7034302,8.8449173-29.5015259
		C112.8047562,559.0263062,95.2969131,564.6675415,95.1275024,576.7035522z M87.7466431,557.5418701
		c-4.5170898-11.9199219,11.6757278-15.8540039,11.7918243-28.0170898c1.9936905,0.9641724,2.7581329,3.149292,2.9589157,5.885498
		C98.3829193,543.5754395,92.4127502,549.9058228,87.7466431,557.5418701z M81.8502197,541.3165894
		c0.2865372-12.4924316,11.3259277-14.230957,13.2772827-25.0690918c1.4734573,0,2.9484787,0,4.410965,0
		C95.6681519,526.6186523,89.3905563,534.6034546,81.8502197,541.3165894z M78.892334,526.5658569
		c-7.1267395-12.53479,10.5191345-19.2573547,13.2762375-30.964447c1.3150406,0.645752,2.6514816,1.282074,2.958931,2.9369507
		C92.4347153,510.6062622,86.0713654,518.9936523,78.892334,526.5658569z M77.4178391,507.393219
		c-10.4767838-11.5173035,6.4057007-20.8171082,10.328804-30.9765015
		C96.8561325,487.7217407,78.0442352,496.0249329,77.4178391,507.393219z M72.9959106,486.7455139
		c-6.4579926-15.344696,9.7771759-20.6895142,11.8027954-32.4499207
		C91.1714554,469.5137634,76.0181122,475.9822083,72.9959106,486.7455139z M72.9959106,463.1294861
		c-8.1975861-11.272583,7.338501-16.1190796,8.8543091-26.5425415
		C87.9160538,448.5905151,73.6008759,452.8958435,72.9959106,463.1294861z M71.5224609,439.5244446
		c-6.9672699-7.3275146,8.1865997-15.7692871,8.8543091-25.0690918
		C86.1351547,425.6641541,73.1977386,430.8599548,71.5224609,439.5244446z M75.9548416,398.2306519
		c4.1254578,6.6383667-1.453064,16.2137146-7.3918381,17.6981506
		C67.6620941,406.6713562,75.4675217,406.1092834,75.9548416,398.2306519z M71.5224609,382.0054016
		c8.440712,3.8603821-3.584816,10.5724792-2.9594574,16.2252502
		C63.5256577,392.6102905,72.020752,387.9865417,71.5224609,382.0054016z M62.6775589,240.3934326
		c-0.6990814,42.4812317,13.2872162,70.276062,14.7402802,110.6365356
		C64.2043457,319.4924316,50.5364761,276.6394348,62.6775589,240.3934326z M64.1520538,368.7182007
		c-6.4057007-2.0784302,0.60392-8.0909119,1.4629974-11.7928467
		C69.4330597,359.4283447,62.7622643,363.7875061,64.1520538,368.7182007z M59.7086906,355.440918
		c-4.5594406-4.1772156,1.0499268-10.6676331,1.484436-14.7507324
		C69.1465302,343.2888489,57.842041,349.3970337,59.7086906,355.440918z M42.020462,261.0296021
		c-6.0762939,47.1583557,0.4345055,88.2294006,4.4329071,138.664032
		c1.8666534,23.7964172,9.7771797,45.9703674,13.2553215,69.3432617
		c3.1069069,20.6884766,2.3968468,41.8872681,5.9063606,61.9613342
		c13.3510056,76.3309326,111.9301147,253.4051514,132.7686462,277.3181763c2.0674438,1.7599487,0.1270599,0.5830078-1.4750214,0
		c-27.4120789-22.24823-118.3661423-137.3067017-132.7566223-172.5984497
		c-4.5704193-11.1878662-11.8880119-22.9373169-14.7617149-33.9244385
		c-4.7189178-18.133728-3.8603592-38.1434937-5.8964233-57.5394287c-3.117363-29.6400146-8.7800636-59.0144348-8.8542976-87.0210266
		c-0.042366-17.252655,2.810421-34.6130676,1.4734383-51.632019c-2.565731-33.0125427-10.0846138-64.1574097-10.3277493-95.8753357
		c-0.3179054-43.9243774,23.9767971-82.5671997,32.4598694-123.9237518
		c6.8930168-33.6269379,4.9416618-60.9124756-5.3123779-91.7713242c-1.5377655-3.3401031-2.7895203-6.681778-3.5424576-10.0109024
		c1.2826042,3.4044189,2.4595909,6.71315,3.5424576,10.0109024c6.3309326,13.7646027,17.6134605,27.8152161,20.0631142,43.0862045
		C80.3877487,183.2775269,47.47089,218.7177887,42.020462,261.0296021z M52.3487473,308.2512207
		c5.3976059,5.7792969,4.220623,18.5373535,2.9479523,23.6050415
		C51.5111084,326.7885742,55.8797035,313.5536499,52.3487473,308.2512207z M177.7255554,733.0881958
		c3.5842896,1.3359375,3.9241638,5.9173584,4.4224548,10.3183594c-3.997879,0.9108276-5.7693634,4.0501709-5.8964233,8.8543091
		C168.3096771,746.173584,178.3519592,740.7017212,177.7255554,733.0881958z M192.4762878,774.382019
		c3.1607819,0.7001343,2.8104553-2.1004028,2.9589386-4.4109497c2.109787,2.8088379,3.435791,6.3936768,4.4219208,10.3167725
		C195.053009,780.6700439,192.7628326,778.527832,192.4762878,774.382019z M27.2697392,63.3516579
		c9.8514156,0.4982948,10.1912823,10.4767799,11.8027706,19.194622
		C34.2683792,77.0210953,29.9311581,71.0289841,27.2697392,63.3516579z M40.5569458,181.3789825
		c3.9874191-32.9581757,5.4404793-62.7038269-1.484436-97.3592529
		c36.4891357,68.5155487-11.1455193,143.5743256-23.6055546,203.5743866
		c-0.4773827,3.5518799,1.2512321,16.8605347-1.4854794,13.2662964
		C11.3090782,252.4294128,34.9266624,227.6363983,40.5569458,181.3789825z M216.0923157,848.1566162
		c-45.4720612-41.2399292-97.825119-81.972168-131.2936096-137.2109985
		c-5.7793121-9.5220337-13.1711349-17.9637451-17.7091522-26.5425415
		c-23.5313263-44.581604-37.9432297-96.2993774-44.2521973-157.8372192
		c-4.9845352-48.7384338,0.8904514-106.8828125-4.4229717-159.3111877
		c-1.2716236-12.587616-7.4864779-34.368866-4.4329071-54.5914612c0.541172,25.6411133,7.233408,59.3213806,10.3293324,84.1039124
		c4.3163071,34.4959412-1.3359375,67.328125,1.4744987,97.3488159c1.5377655,16.1719055,5.7040081,30.6256409,7.3798122,45.7272034
		c2.7048035,24.1990356,2.1217995,47.199646,8.8553429,70.7947388
		c4.1254578,14.4642334,12.7246094,30.3391113,19.1726646,44.2637329
		c6.7230873,14.4856567,15.1648521,28.3245239,22.1315956,41.2932739
		c13.0540161,24.3261108,87.656311,100.0112915,92.9268646,104.7406616
		c21.2934265,19.0560303,47.0741425,37.0940552,64.9098206,61.9624023
		C231.3319397,862.2192383,223.2300415,854.6360474,216.0923157,848.1566162z M202.8161011,786.1738281
		c7.1790314,2.6624756,7.9215088,11.7504883,13.2762146,16.2362061
		C211.9464722,802.5794067,205.8916168,791.9855347,202.8161011,786.1738281z M186.5809326,725.7073364
		c-17.901062-35.1113281-35.3341217-71.5487061-48.6741333-104.7401123
		c-2.3654938-5.8117065-1.3793488-2.3968506-2.9594574-5.8964233
		c-15.1429062-46.3201294-26.702034-96.2141724-32.4499588-151.9413147
		c7.4655609,17.7630005,8.0067368,33.3304749,10.3293304,56.0660095
		c1.7600021,17.2212524,12.227356,33.6802368,20.6461258,51.6116333
		c8.7492065,18.6330566,10.8490601,39.7037354,16.2362061,56.0664673
		c7.4655762,22.7360229,23.2657013,45.3978271,33.9234009,69.3212891
		c10.9756012,24.6868896,19.8089905,48.229187,32.4598694,69.3422241
		c26.7663422,44.6773071,54.9313354,88.0709839,91.4534302,113.5960083
		C244.9684448,858.0090942,217.5453949,786.4289551,186.5809326,725.7073364z M314.9266052,871.7302856
		c-41.028717-33.2651367-68.7168732-77.5288086-98.8342896-129.7877808
		c-10.0846252-17.4869385-18.2178955-38.1016846-28.0269623-57.5394287
		c-9.5659485-18.9498901-22.036438-39.5766602-28.0379639-57.52948
		c-5.8430939-17.5507202-6.3947144-36.1508179-13.2772827-53.1070557
		c-6.0658264-14.9954224-18.2822113-29.3215942-22.1206055-47.2006836
		c-3.6381454-16.9143677-3.1492615-35.5458679-7.3808594-53.1070251
		c-3.9984055-16.6174011-13.0331039-32.5142517-14.7512589-47.2116699c-0.7100601-6.0757751,0.6682281-14.0296936,0-20.6461182
		c-1.611496-15.9496765-9.988945-32.8217163-13.2762375-51.6225891c-2.630043-15.0592346-1.4431305-31.6442261-4.4224396-45.7272339
		c-5.3871613-25.4502869-15.6307373-45.6948242-13.2762451-69.3422241
		c1.5796051-15.9387054,8.5782318-29.8089142,9.5220261-45.9076233c-0.2332153-4.3685913-0.4768677-8.7371826-0.667717-13.0848694
		c0.7743683,4.5594482,0.9228668,8.8856964,0.667717,13.0848694c2.3121262,41.9311829,6.7555084,84.4751587,14.0830154,127.0526123
		c3.8389282,22.3444214,14.0615921,43.0014954,17.6992111,64.9103699
		c3.8807526,23.3514404,6.0862274,44.5491943,11.8027878,66.3733521
		c15.1319122,57.762146,79.8937531,236.1409302,95.8858185,264.0408325
		c13.8383026,24.1456909,55.7475281,88.2507935,59.0034485,92.9378662
		c20.4766846,29.4591064,44.9308777,56.1721191,69.3312378,84.0830078
		C337.8106079,888.1364136,325.3824768,880.2462769,314.9266052,871.7302856z M345.9015198,865.8348999
		c-6.0548706-0.8381958-6.0752563-7.6987915-10.3167725-10.307373c-0.4669495-3.414856,4.2619019-1.6549072,4.4109192-4.432373
		c5.249115,1.1445312,5.8964539,6.9029541,8.8543396,10.3277588
		C348.3197937,863.3638306,346.2523499,863.7460327,345.9015198,865.8348999z M351.7979736,867.3303223
		c5.9172974,4.3999634,10.4877319,10.1478882,13.2772522,17.6992188
		C355.4888916,884.753418,346.0505371,873.7145996,351.7979736,867.3303223z M329.6663513,646.0457153
		c-12.5342712-30.550354-13.540802-63.859375-23.5940552-94.4002686
		c-13.5000305-40.9858704-34.9205322-92.3329163-57.519043-126.8612671
		c-24.9629517-38.091217-52.8529358-73.2240295-70.8276978-112.1209717
		c-6.4893646-14.0516663-13.7431488-24.6032104-19.1726532-38.3353882c4.6127625,1.2507019,4.432373,7.4012451,7.369873,10.3183289
		c54.094223,53.4997253,182.9272308,272.4820862,199.1524506,374.6878357
		c7.8153992,49.151001,8.6320801,105.8109741,17.6992188,159.3112183
		C367.5348206,758.697937,352.9644775,702.7700195,329.6663513,646.0457153z M170.3457642,274.3278198
		c-4.4229889-5.8117371-2.0580444-19.7556763-1.464035-30.9754639
		C172.1266479,245.0485535,169.5290222,265.2931213,170.3457642,274.3278198z M180.684494,290.5426025
		c-6.71315-6.5437622-4.7508087-26.3417664-2.9589386-36.8718872
		C181.6172943,263.0552063,180.5574493,277.3923645,180.684494,290.5426025z M188.0653534,280.2132568
		c4.2525177,0.5092773-1.124176,15.1115112,0,22.1315918C181.2565155,297.1490784,190.0276794,289.5234985,188.0653534,280.2132568z
		 M195.4352264,289.0675659c7.752121,2.3968506-1.3788147,15.8649902,2.9484711,19.1836548
		C192.8271484,312.2496033,196.4537811,294.486084,195.4352264,289.0675659z M210.1755066,336.2682495
		c-6.0867462-6.6702881-6.3623047-19.1940918-5.8953705-32.4499512
		C214.1420135,306.7557983,208.8819275,324.7948608,210.1755066,336.2682495z M217.5668182,318.5695496
		c2.1631165,2.3006592,2.2368469,19.3525391,2.9485016,28.0280457
		C213.9088135,342.8752441,219.3273315,327.1383972,217.5668182,318.5695496z M226.4211273,328.8873901
		c6.2462311-0.2541199,5.8540802,20.9765625,5.8859711,35.4188232
		C223.7283478,359.1213989,230.9810944,338.1134644,226.4211273,328.8873901z M239.6879578,339.2276917
		c1.6115112,0.36026,0.9965973,2.9369812,2.9589233,2.9469299c0.6363373,14.6879883-1.7081909,18.2194519-1.4854736,30.9874573
		C237.7366028,364.7841187,240.6631165,350.053772,239.6879578,339.2276917z M250.0167694,352.4929504
		c8.1118317,3.6799927,4.4329224,24.6769409,1.473465,30.986969
		C245.4667511,378.3468933,249.0939026,360.2136841,250.0167694,352.4929504z M261.8195496,368.7182007
		c3.796051,0.1490173,2.1098022,5.7683105,5.8964233,5.9063416c-4.0830994,6.23526-2.4716187,18.1766052-4.43396,26.5645142
		C254.2792206,394.8691101,258.0862427,378.2731628,261.8195496,368.7182007z M273.6113586,382.0054016
		c7.062439,7.8577271,1.2617188,26.225708,0,35.408905C267.2270813,410.2028503,271.4058838,390.2233887,273.6113586,382.0054016z
		 M283.9511414,396.7671204c4.8564453,6.7131653,2.0674438,27.6348267-1.4744873,35.3979187
		C274.9054565,423.3520203,283.3681335,407.0431213,283.9511414,396.7671204z M292.7950134,410.0334473
		c12.1206665,9.5115356-0.2964783,27.5710144,0,42.7782288
		C281.2996521,442.6951294,296.8247681,426.8301697,292.7950134,410.0334473z M323.7709656,454.2955933
		c12.6398926,9.7996521-3.3620605,33.7968445-1.4744873,51.6225891
		C308.6489868,495.770813,326.432373,475.3678284,323.7709656,454.2955933z M334.1097107,470.5103455
		c9.1837158,11.1031799-5.5565491,32.7683716-4.4433594,50.1695862
		C323.6961975,507.5730896,335.2025146,488.3789673,334.1097107,470.5103455z M351.7979736,504.4447327
		c7.9324646,12.0255432-6.2990723,37.105072-4.4109802,57.5190125
		C335.0001526,548.368042,352.6993713,524.9544067,351.7979736,504.4447327z M359.1897888,523.6074829
		c5.8430786,13.1601562,0.3497925,46.9031372-2.9589539,64.8988037
		C345.2447815,570.9984741,359.7304382,547.934082,359.1897888,523.6074829z M366.5491943,561.9637451
		c8.6111755,13.2338867-1.9189453,32.3543091-5.8964233,42.77771
		C359.603363,593.9891357,368.882782,574.1158447,366.5491943,561.9637451z M379.8264771,716.8530273
		c1.0812988-20.0641479,11.0922241-31.1987305,14.7507324-48.6751709
		C401.7557373,686.4177246,386.0507507,702.6952515,379.8264771,716.8530273z M399.009613,693.2573853
		c3.4248047,21.1350098-10.4244995,37.7623291-17.6987,53.0960693
		C381.3956299,722.8331299,393.3673096,711.2216797,399.009613,693.2573853z M378.3514709,694.7313843
		c-7.2527771-20.1054688,11.6443481-32.8520508,11.8137512-54.5914917
		C399.285675,661.2105713,381.5974426,676.6619873,378.3514709,694.7313843z M375.4035034,668.1778564
		c-3.0849304-16.3842163,8.4731445-30.859375,10.3178406-47.2106323
		C389.0630493,637.5835571,378.9250488,653.4799194,375.4035034,668.1778564z M370.9815979,646.0457153
		c-3.3510742-14.1881104,6.7021484-27.7084961,7.369873-42.77771
		C385.9017334,611.1895142,373.6853638,634.0097656,370.9815979,646.0457153z M363.6007385,622.4406738
		c0.6687317-14.0929565,8.0909119-21.4204712,10.3293152-33.9343872
		C373.7073059,597.1708374,369.5928345,614.6462402,363.6007385,622.4406738z M338.5316467,539.8431396
		c-6.3837585-15.2709961,3.2663574-35.9704285,4.4119873-53.0976257c1.7181396-0.2431335,2.6410217,0.3184509,2.9578857,1.4640503
		C348.6915588,504.9116516,338.7653503,521.3057861,338.5316467,539.8431396z M311.9781189,491.16745
		c-13.5941467-14.0819702,0.4245605-35.8423462,0-54.5805054
		C327.9277954,445.6216431,310.0910645,472.9495544,311.9781189,491.16745z M297.2164001,467.5514221
		c0.669281-16.0443115,4.5390625-28.875061,7.3918457-42.7672424
		C310.2285767,435.7911377,301.90448,457.1483765,297.2164001,467.5514221z M397.525177,731.6027222
		c2.7670288,7.3709106-8.7382507,25.5360107-10.3178406,38.3683472
		C382.6039734,755.0289307,394.5772095,743.9147949,397.525177,731.6027222z M390.1652222,786.1738281
		c-3.0535583-5.5351562,4.2739563-13.3719482,4.4119873-20.6367188
		C399.072876,772.5258179,390.4941101,779.0904541,390.1652222,786.1738281z M394.5772095,834.8693848
		c3.5095215,4.8574829,4.7288818,11.9941406,5.9058533,19.1836548
		C394.544281,851.6248169,395.711853,842.0917969,394.5772095,834.8693848z M422.6151733,728.6558228
		c-0.6148987,21.6113281-7.2009888,97.7623901-11.8027954,115.0684204
		c-11.0707397-26.5634766-6.4057007-57.3909302-2.9589233-88.5148926
		c4.1144714-37.0627441,4.0512085-74.1149902-2.9484863-106.2041626
		c-10.8903503-49.9786987-23.7210999-92.958252-36.8713379-134.2421265
		c-13.2448425-41.5693359-37.4757996-72.2697449-63.4253845-106.2041321
		c-14.8778076-19.4267578-28.6005554-41.5473938-44.2631836-61.9613342
		c-14.9311371-19.448761-38.4410248-35.2818298-50.1695557-54.581543
		c-6.3941956-10.5625305-9.7876434-22.2905579-16.2137299-32.4609375
		c-18.2299347-28.7699738-40.0535431-55.5990448-57.5410004-87.019455
		c7.1267395,3.0959167,7.7416382,10.6786041,11.8137665,16.2241821
		c16.5750427,22.5880585,40.7322388,42.1005859,61.9409637,64.9108734
		c14.3585815,15.418457,23.6907959,36.2245483,35.4088745,54.5805054
		c11.8555908,18.5473022,23.881134,37.0846863,36.8922729,53.0971069
		c17.3697815,21.3995667,40.7212524,38.8232117,56.0549927,61.9613342
		c7.7630615,11.7395325,14.8887634,28.6539001,22.1211243,44.2417603
		c18.9400024,40.8807373,44.1141663,94.0939026,53.1075745,144.5604553
		c4.771759,26.8615112,8.960968,58.5046387,8.8548279,84.0830078
		C422.5832825,702.2921143,422.742218,723.7983398,422.6151733,728.6558228z M425.5631104,839.2913208
		c3.3824768-63.4881592,11.2511597-139.5335693,2.9484863-212.4177246
		c-8.1552429-71.6653442-42.1534119-138.4946289-73.7651672-191.7710876
		c-10.6896057-18.006134-20.4029846-36.9042664-32.4499512-50.1381531
		c-7.2747192-8.0172119-17.0205383-13.7008057-23.5946045-22.1425781
		c-8.6425476-11.0597839-15.3337402-25.9386292-23.6160278-38.3558044
		c-24.1896057-36.2778625-47.9860229-73.6480408-81.1240692-103.2561798
		c49.4584351,31.9516449,96.5535126,90.9755096,132.7566071,157.8377228
		c41.7602234,77.1366882,94.0939331,140.0742493,109.1630859,237.4967346
		c4.9202271,31.7503662,10.3387451,70.0852051,10.3387451,107.6885986
		C446.2202148,770.5540771,436.0822449,798.2521362,425.5631104,839.2913208z M449.1577148,814.222229
		c5.9497681-22.3214111,13.6584473-56.3091431,19.1940918-87.0414429
		c4.2101746-23.4983521,14.8574219-43.5202026,14.7402954-70.8167114
		c-0.0523071-13.9658813-3.5837708-29.6494141-4.421936-44.2521973c-0.8794556-15.407959-1.9623413-30.1696777-4.421936-44.2527466
		c-4.7189026-26.892334-15.6202698-50.3499146-22.1315918-73.7431946
		c-4.9735413-17.8796082-4.9416199-35.3973999-10.3397827-51.633606
		c-4.7293701-14.2728271-10.6148071-28.8546753-17.6882324-42.7886963
		c-33.0852356-64.9945068-70.2012939-135.8750305-118.0163269-188.8126526
		c-14.9640503-16.5536041-25.5893555-28.9707642-42.7902832-42.7682953
		c-19.2353973-15.4608002-43.8061829-29.2039642-66.3733368-42.7777176
		c-18.3135834-11.0189972-39.6284485-15.7792206-57.5284424-26.5535202
		c-9.9261932-5.9921112-22.1959076-17.3917618-32.4499435-26.5535202
		C97.8736267,64.12603,83.0381851,54.4649277,86.2831268,41.231041c6.6488419-7.8686981,8.3037415,4.8883286,13.2553406,7.4012527
		c12.5452423,13.9983215,93.4361267,67.0849762,122.4393005,81.1240845
		c14.2743988,6.8825531,31.3686676,13.3405457,44.2637177,22.1112061
		c58.6003113,39.9045258,95.3979492,111.4851379,134.2415771,178.5042419
		c46.9251099,80.9552002,79.014801,159.1104126,88.516449,265.5263062
		C496.5602417,680.7445679,476.8035278,753.6495972,449.1577148,814.222229z"/>
</g>
</svg>
