<?xml version="1.0" encoding="utf-8"?>
<!-- Generator: Adobe Illustrator 27.2.0, SVG Export Plug-In . SVG Version: 6.00 Build 0)  -->
<svg version="1.1" id="cardamom" xmlns="http://www.w3.org/2000/svg" xmlns:xlink="http://www.w3.org/1999/xlink" x="0px" y="0px"
	 viewBox="0 0 573.9691772 500" enable-background="new 0 0 573.9691772 500" xml:space="preserve">
<g>
	<path d="M29.5626526,458.2153931c5.1229019-0.343689,11.6685371-0.3617859,19.5735817,0.8221741
		c9.4951019,1.3955994,66.651123,20.7828369,70.9265289,22.0020752
		c22.6207352,6.4741821,47.3787308,9.4154968,71.7387466,14.6795044
		c61.4142609,13.2757874,111.8925781-7.7901917,163.8551636-16.3048401
		c15.1661072-2.4909058,52.2990112-15.4039917,68.47995-34.2530823
		c10.6437683-12.3658752,24.0959167-25.0058289,35.0661926-37.4947205
		c11.5265503-13.1346741,55.0359497-78.7348022,63.5777588-93.7507629
		c7.9665527-13.973114,20.5006714-25.8180237,26.9042969-39.9412842c3.859314-8.496582,5.8998413-19.4315796,9.7772827-29.3508759
		c10.0079346-25.5267944,20.9872437-72.7897339,9.7962646-104.3583679
		c-1.4932861-4.1596527-14.0888672-31.9385605-22.8242188-43.2000885
		c-14.5999146-18.8138275-31.0820312-33.6706123-61.1483459-30.1639938
		c7.3840637-25.597332-7.6490784-52.1751099-17.939209-57.8804932c-5.4412842-3.0209212-30.4814453-9.3006392-33.4146423-8.9741268
		c-69.5662231-1.2635411-111.132843,23.6093159-118.2166138,26.8952465
		c-11.2172241,5.2377739-23.8652954,14.3005371-35.0653076,22.8323784
		c-30.508606,23.2837105-50.9115753,39.1905785-75.8115692,70.9355774
		c-12.9130859,16.4640198-27.7427368,33.3079224-38.3159637,49.7194824
		c-24.4043427,37.8917694-47.2285767,68.8245544-60.3361206,116.5822449
		c-5.2024994,19.017334-4.9022141,42.2739258-6.5094528,64.3989868
		c-2.2521286,30.8441772-5.6438828,70.4408569-43.2100372,57.8895569
		c-5.7325134-12.5865784-13.9025688-22.487793-30.1630859-14.6704712
		c-6.7220039,3.2325745-8.3382874,10.7930298-11.4116678,19.5555115
		c-4.6815233,13.3191833-16.623209,31.3641968-14.6804123,41.5838013
		C3.2860608,471.8619995,19.6261711,458.8693237,29.5626526,458.2153931z M338.5396118,436.2042847
		c-2.0142517,0.088623-2.5180359,1.5375977-4.0637512,0c-0.6087341-2.782135,2.9856262-1.3422241,3.2506409-3.2678528
		C338.8308716,433.1924133,338.4066772,434.9949951,338.5396118,436.2042847z M373.6049194,427.2391968
		c31.4799805-24.687439,58.949585-53.605072,83.1513367-87.2313843c14.7853088-20.5359192,26.585907-41.5665894,38.3159485-64.40802
		c4.160553-8.108551,5.6529236-16.2252502,8.9650879-25.269928c4.4517822-12.215744,13.2667236-24.679306,17.1179199-39.1290741
		c1.9256592-7.2339325,2.8355103-15.0865173,4.8931885-22.8233337c6.253479-23.5921326,5.237793-47.6708679-7.3488159-65.2302017
		c-2.1281738-3.0028305-7.0222778-5.5905151-8.9560242-9.7772903c-2.9594116-6.412674-0.9361267-15.2185745-8.1438293-19.564537
		c18.7866821,0.7507095,30.9852905,32.672081,32.4595337,48.9859543
		c7.2167358,80.2543182-55.9992065,181.0789185-56.9172363,183.3491516
		c-21.4195862,34.0233459-45.3825684,60.3713989-76.1905212,91.7980347
		c-26.8165588,27.3547058-74.0451355,48.0498352-107.2381897,50.8762817
		c-5.0342712,0.4241943-46.8487244,8.214386-66.863678,6.5275574c-12.7982178-1.0953064-32.353714-5.2640076-37.5037537-3.276886
		c5.2739563-2.0223999,51.5211945-4.6634521,141.8530884-22.0020752
		C340.5620117,448.2698669,367.0601807,432.3620911,373.6049194,427.2391968z M339.3608704,422.3460388
		c1.360321-2.3851013,5.0170898-0.6268005,8.1519775-0.8122253
		C346.374115,423.3888855,341.8336792,421.8341064,339.3608704,422.3460388z M345.879364,430.4989014
		c-0.2034912,1.4308777-1.3955688,1.855072-3.2597046,1.6343689c0-0.8302917,0-1.6343689,0-2.4474792
		C344.3155518,429.3330383,344.7750244,430.2429199,345.879364,430.4989014z M416.796875,353.8660889
		c-4.3984375-0.882782-4.8407288,2.2087097-8.9650879,1.6253052
		C409.7221069,354.5905457,415.8516846,350.377533,416.796875,353.8660889z M412.7340088,348.9729004
		c1.8279114-2.782135,6.2182007-3.0118713,9.7691345-4.0809631
		C421.5308533,348.5224915,416.2053528,347.8251343,412.7340088,348.9729004z M440.4505005,331.85495
		c4.7077637-5.9532166,8.9298096-10.9078674,12.2247925-17.939209
		c-13.4783936,31.2330627-41.2753906,63.7902832-67.6586914,88.0444946
		c3.4541626-10.1309509,14.467865-15.3072205,21.1808167-23.6364441
		C417.7601318,364.0332031,428.7032776,346.650238,440.4505005,331.85495z M438.8170471,310.6569519
		c3.8511963,0.3265076,6.8097229-0.2559814,9.7863159-0.8212585c-1.3512573,3.5419006-7.5785217,2.2077942-10.6075745,4.0800476
		C437.8981018,312.4496155,439.0024414,312.2026672,438.8170471,310.6569519z M485.2858582,220.9780884
		c-3.4098511-0.4151611-4.1162415,1.8550568-6.5275269,2.4474792c-0.6982727-4.5223236,4.6815186-2.9241333,5.7062683-5.7062836
		C485.5861511,217.9752502,485.1438599,219.7597656,485.2858582,220.9780884z M484.4645996,224.237793
		c2.2168579,3.3383789-5.4240723,3.7806702-6.5194092,6.5184937c-1.1034241-0.2387848-0.6711121-2.0404816-0.8031616-3.2506561
		C480.7101746,227.5409088,481.981842,225.2797394,484.4645996,224.237793z M478.7583313,244.6235809
		c-0.5834045,2.6672668-3.3302612,3.1801147-6.5185242,3.2597046
		C474.4213867,246.8051605,476.2854919,245.4095612,478.7583313,244.6235809z M507.3051147,124.7816315
		c23.9458008,15.9168243,7.4202881,58.5516052,1.6253357,83.1513214
		c-7.6581116,32.5391235-16.7814941,59.7527466-31.7884216,84.7938232
		c-10.5813599,17.5946045-18.4520264,36.0991211-30.9852295,48.0932617
		C472.7517395,278.6116638,524.026001,220.5014343,507.3051147,124.7816315z M475.5076599,251.9633331
		c1.0338135,4.5756989-4.0718994,2.9946899-7.3397522,3.2597046
		C470.3937988,253.9151764,471.6564331,251.654007,475.5076599,251.9633331z M471.4266968,258.481842
		c4.3902893,3.0471497-3.7444763,6.9255066-8.1429138,6.5184937
		C464.1222229,260.9555359,468.4501038,260.398407,471.4266968,258.481842z M467.3466492,273.9744568
		c-2.1291199,2.7649536-6.3240356,3.4541626-10.5903931,4.0718994
		C459.7771606,276.1831665,463.3977356,274.9196167,467.3466492,273.9744568z M464.0960083,280.4929504
		c0.8040466,5.4412842-6.6243286,2.6057739-8.9741516,4.8850403
		C453.1166687,281.9943848,461.1013184,281.6063538,464.0960083,280.4929504z M460.8363037,288.645813
		c-1.07724,3.559082-6.4741821,2.7731018-10.6166382,3.2588196
		C450.4141235,287.9837646,458.4078064,287.6210632,460.8363037,288.645813z M456.7562561,294.3521118
		c0.1058044,1.4570923-0.9985352,1.7221069-0.8131409,3.2497559c-4.9021912-1.07724-5.1672058,2.4465942-9.7863159,1.6434021
		C447.3931885,295.3235168,453.1790771,295.9331055,456.7562561,294.3521118z M452.675293,300.8787537
		c1.0600281,3.2416077-5.2025146,6.1919861-10.5994568,5.7062683
		C443.1268311,302.1775513,450.4494019,304.085083,452.675293,300.8787537z M443.7011719,317.1844788
		c-2.6672974,2.4909058-8.4794006,1.8369751-11.4026489,4.0719299
		C432.8719788,316.65448,439.9385681,318.5710449,443.7011719,317.1844788z M440.4505005,322.8808289
		c-2.0223999,4.2401428-7.4808655,5.026123-13.0369873,5.7062683
		C430.0021057,324.9212952,436.3433228,325.0280457,440.4505005,322.8808289z M432.2985229,332.6590271
		c-0.777832,1.6696472-3.1357727,1.7754822-5.7062683,1.6343689
		C427.3700867,332.632782,429.7099609,332.5351257,432.2985229,332.6590271z M397.2413635,367.7252197
		c3.0209351-1.3250427,5.0523682-3.6395569,9.7863464-3.2687378
		C407.2049866,368.987854,401.357605,367.4864502,397.2413635,367.7252197z M402.134552,370.9840393
		c0.5128174,3.7806702-4.4518127,2.0667114-7.330719,2.4465637
		C396.3667603,371.7437744,399.7585144,371.875824,402.134552,370.9840393z M396.4291687,376.6903076
		c4.4689636,3.364624-8.0823364,3.1439209-11.4125671,4.0800476
		C386.6771851,377.2727966,394.414917,379.8523254,396.4291687,376.6903076z M392.3482056,384.0210266
		c-1.9256287,3.5156555-7.2610779,3.6043091-13.0369873,3.2678528
		C381.5452576,384.1006165,387.0570679,384.1621094,392.3482056,384.0210266z M383.3740845,391.3607788
		c-1.2364197,5.5651855-9.830658,3.7634888-14.6804199,5.715332
		C371.4767151,393.0485229,375.9547424,390.7249451,383.3740845,391.3607788z M376.04245,398.7014465
		c4.0547485,3.4532471-7.3044739,5.0252075-13.0541687,4.0800476
		C363.7127686,397.7915344,374.1792603,402.560791,376.04245,398.7014465z M371.9624023,406.032135
		c-1.4046326,5.8293152-12.224762,4.3188477-14.662323,0C362.1932678,406.032135,367.0692444,406.032135,371.9624023,406.032135z
		 M364.6307983,412.5596924c-2.5614624,3.4803772-11.4378967,1.0600281-13.0369873-1.6343689
		C356.4960022,410.8990784,361.7600098,410.5372925,364.6307983,412.5596924z M358.925415,416.6315918
		c-1.855072,2.2168579-3.1538696,2.5433655-6.5184937,1.6334839
		C353.1576233,416.296051,357.5026855,415.4657288,358.925415,416.6315918z M512.1901245,85.6444168
		c0.0090942,3.0200119-0.3626709,5.6176453-3.2596741,5.7144241
		C508.8689575,88.3026428,508.3127136,84.7607498,512.1901245,85.6444168z M517.0742798,95.4307556
		c-5.7325134,0.194458-1.421814-3.3392944-1.6253052-6.5185013c1.315979-0.2297363,1.4046021,0.7678986,2.4556274,0.8122177
		C518.3025513,92.3040085,516.4293823,92.6133347,517.0742798,95.4307556z M521.1552124,93.8054276
		c2.2521362,1.2544937,0.0795898,4.8931656-0.821228,5.7062836
		C517.0299683,98.6280441,521.137146,96.1814651,521.1552124,93.8054276z M535.0044556,112.5487061
		c2.8707886-0.883667,2.1906128,5.0080338-0.7941284,3.2678452
		C534.095459,114.3594513,535.1989136,114.0853958,535.0044556,112.5487061z M546.4342041,176.9567413
		c3.2678223,3.3293457-3.3302612,3.7001801-4.0809326,5.7053833
		C540.8427734,181.1073456,545.9222412,179.1998291,546.4342041,176.9567413z M538.2903442,172.8757935
		c0.7244873-4.690567,6.447998-4.4074707,8.1438599-8.1528778
		C547.9093628,168.4059143,541.4967041,171.1889496,538.2903442,172.8757935z M543.1663818,175.3314209
		c-0.6186523-2.7911835,3.3121338-1.0338135,2.4375-4.0809631
		C549.6757812,171.8157501,545.4365845,175.8967133,543.1663818,175.3314209z M539.8984985,164.7229156
		c-0.4594727-5.0695343,5.1491699-4.0981445,5.7053833-8.1438293c0.7335205,0.3627014,1.4752197,0.7073059,1.6343994,1.6253357
		C546.107666,161.6848145,542.2827148,162.4888763,539.8984985,164.7229156z M539.8984985,157.4012451
		c0.3789673-4.2582245,4.1687012-5.079483,5.7053833-8.1528625
		C548.2539673,153.2578888,542.0800781,155.4665985,539.8984985,157.4012451z M543.9785767,133.7467194
		C546.8321533,140.9100952,538.2994385,139.2051697,543.9785767,133.7467194L543.9785767,133.7467194z M537.460083,128.0413361
		c-0.1501465-3.1267471,2.8173828-3.1629257,3.2597046-5.7062912
		C544.6143799,124.0309219,539.5005493,127.2463074,537.460083,128.0413361z M545.6038818,183.4752502
		c3.1710815,4.5576019-6.2272339,7.8697662-8.1437988,7.3397522
		C539.5186157,187.7144775,545.2683105,188.3059998,545.6038818,183.4752502z M538.2903442,198.1547546
		c-2.5352173-3.3827057,3.9661255-4.6815338,6.5094604-5.7053833
		C545.5776978,197.2982178,540.2250366,196.0084534,538.2903442,198.1547546z M543.9785767,198.967865
		c1.7664185-0.1329498,0.3626709,2.8970184,0.821228,4.0710144c-3.1348877,0.9451599-6.2000732,1.9527435-8.9650879,3.2687378
		C534.8370972,200.1599579,541.6115723,201.7671967,543.9785767,198.967865z M526.8615112,262.5537415
		c-5.4674683-0.0443115-7.6852417,3.1801147-13.0379028,3.2687378c1.8903198-5.9974976,10.5117188-5.2377625,13.8500977-9.7872314
		C531.1450806,256.1682129,526.2338257,260.0366211,526.8615112,262.5537415z M520.3339844,277.2251282
		c-6.447937-0.7416687-8.3735657,3.0299377-13.8591614,3.2678223c2.544281-4.5223389,10.2024231-3.9389648,13.8591614-7.3397522
		C522.7362671,273.8514404,519.2911377,275.2108765,520.3339844,277.2251282z M376.8555908,445.9824829
		c0.6005554-1.3250427,9.0446777-1.8197937,13.8672791-1.6253357
		C388.9121399,447.713623,381.2449646,445.2136841,376.8555908,445.9824829z M383.3740845,449.2421875
		c-3.4975891,3.8331299-12.1976624,4.9899292-18.7432861,3.2678223
		C367.1307373,447.6693115,377.8007507,451.008606,383.3740845,449.2421875z M379.3112183,441.910553
		c2.2340393-5.9088745,14.0879822-2.2168274,19.555481-4.9021912
		C398.7690125,443.2528076,386.3597107,441.3805542,379.3112183,441.910553z M385.0166016,436.2042847
		c3.4007874-5.0080566,15.4048767-2.7197266,22.8151855-5.7053833
		C404.3161316,436.4873657,391.5531616,433.2195435,385.0166016,436.2042847z M393.1604004,428.8645325
		c4.9818115-5.3435974,17.7538147-2.8970032,23.6364746-7.330719
		C416.2849426,428.0785522,402.32901,428.2286987,393.1604004,428.8645325z M402.9476624,421.5338135
		c5.9441528-5.1934509,16.7371826-5.5470886,25.269928-8.1528625
		C423.3596802,419.6525269,411.0905762,418.5300903,402.9476624,421.5338135z M424.1366272,410.1130981
		c-0.4151611,2.8526917-5.3255005,1.2011414-8.1438293,1.6334839
		C415.0657043,410.7661438,421.5308533,410.2542114,424.1366272,410.1130981z M425.7709961,410.1130981
		c1.3955994-1.8641052,4.6019287-1.9255981,7.330719-2.4465942
		C432.5897827,410.4133911,429.1980286,410.280426,425.7709961,410.1130981z M420.8778381,406.8533936
		c2.8083496-5.0785828,12.3739929-3.3917542,17.939209-5.7053833
		C436.3786011,406.5974426,425.2852783,403.3739014,420.8778381,406.8533936z M429.0388184,399.5136414
		c3.6395874-2.6057739,8.4441223-4.0456848,14.6623535-4.0718994
		C441.484314,399.4693298,433.9501038,398.1795654,429.0388184,399.5136414z M434.736084,392.9951477
		c2.3145142-3.4007874,11.4026184-0.0180969,13.0460205-4.0809631
		C450.5995178,392.7744751,441.1749878,392.9951477,434.736084,392.9951477z M438.8170471,388.1019897
		c0.732605-1.4399109,1.9608765-2.3760376,2.4465637-4.0809631c4.6724854,3.3474426,8.9298096-2.8002319,13.8582458-4.0719299
		C456.3854065,386.1148682,445.3002625,386.971405,438.8170471,388.1019897z M445.3355408,379.9490967
		c3.3917542-4.4960938,10.7315063-5.0342407,16.3048401-7.3306885
		C459.6885376,378.5444641,450.6528931,377.3786011,445.3355408,379.9490967z M451.0409241,372.6184082
		c2.6238403-4.442749,9.1161194-5.0170898,15.4926147-5.7062988
		C463.2041931,370.648468,455.5551147,370.0569458,451.0409241,372.6184082z M456.7562561,365.2777405
		c3.4179688-2.7468567,9.2038574-4.6362915,16.3048096-5.7053833
		C470.1550293,363.9970093,463.0269165,364.2095642,456.7562561,365.2777405z M462.4616089,358.7592468
		c0.4594727-3.6296387,11.6504517-3.5681152,15.4835815-6.5266418
		C475.8703613,357.4966125,467.6469421,356.6129456,462.4616089,358.7592468z M467.3466492,351.4104309
		c3.0996094-4.4951782,10.2015076-5.0252075,14.6795044-8.151947
		C483.36026,348.9638672,472.5048218,349.5119629,467.3466492,351.4104309z M475.5076599,340.0078125
		c4.8579102-0.0171814,7.0313416-2.7378235,11.4116821-3.2678223
		C485.8773804,340.4320068,468.0349426,345.2456055,475.5076599,340.0078125z M477.1420288,335.9359131
		c1.960907-4.5576172,9.8044434-3.2235107,13.0279541-6.535675c2.2168579,0.7507019-0.8302917,2.8617249-0.8040771,4.0890808
		C483.8549805,332.8625183,481.5494995,335.459259,477.1420288,335.9359131z M481.204895,328.5870972
		c3.7273254-1.9870911,9.3630676-6.3945618,13.8673096-4.8841248
		C491.9635315,326.855957,486.5222778,327.651001,481.204895,328.5870972z M485.2858582,321.2564087
		c4.1867981-1.5195007,7.4455872-3.966095,13.046051-4.0719299
		C494.9663696,319.525238,490.8854065,321.1496887,485.2858582,321.2564087z M486.1071167,316.354187
		c2.9232483-4.1252747,10.6609497-3.4541626,14.662323-6.5184937
		C504.3466187,314.1282959,490.7886353,314.9585876,486.1071167,316.354187z M490.1699829,310.6569519
		c-0.5037842-6.5013123,11.9859924-7.0313416,17.939209-9.7781982
		C506.1835938,308.1922607,496.2471008,307.4858704,490.1699829,310.6569519z M494.250946,301.6828308
		c2.3760376-6.6071472,11.7029114-6.2363281,17.1179504-9.7781982
		C512.9498901,299.191925,499.6913147,298.6971741,494.250946,301.6828308z M501.5997314,291.9046326
		c4.1515198-2.6229553,9.2825623-4.3007507,14.6713867-5.6963501
		C514.3102417,291.039032,506.3599548,289.8822327,501.5997314,291.9046326z M504.0372925,287.0114441
		c2.6410217-4.4074707,9.442627-4.680603,14.6622925-6.5184937
		C516.6066895,285.4485168,507.9500122,283.85849,504.0372925,287.0114441z M509.7435608,273.1531982
		c1.1830444-1.2626343,1.7130737-3.1801147,2.4465637-4.893158c3.6477661,3.3383789,8.1791382-0.6268005,12.223877-1.6343689
		C522.8248901,272.0931702,514.8664551,271.2185364,509.7435608,273.1531982z M519.5299072,256.8483582
		c-1.1396484-4.4074707,9.6190186-3.9488983,11.4116821-8.1528625
		C532.9910889,254.0300446,521.9674683,253.2974243,519.5299072,256.8483582z M524.4140015,248.6954956
		c-2.6401367-4.0276031,6.3068848-3.4532623,7.3406982-6.5275421c0.9533081,0.141098,0.6801758,1.4932709,0.8121948,2.4556274
		C529.9520874,246.0725403,526.7023315,246.902832,524.4140015,248.6954956z M528.4949951,240.5426178
		c-0.7154541-0.7597504,3.1529541-3.8593597,5.715332-4.0719147
		C533.5473633,239.0764771,529.9963989,238.8033295,528.4949951,240.5426178z M528.4949951,235.658493
		c-2.8002319-4.4517822,6.3330688-3.9832764,7.3397217-7.3397522
		C538.9967651,233.1323242,529.7495117,232.5317535,528.4949951,235.658493z M529.2990723,228.3187408
		c-1.0863037-3.2949677,7.8435059-3.5599823,8.991272-7.3406525
		C541.4967041,226.3931274,530.4821167,224.5914307,529.2990723,228.3187408z M530.1293335,220.9780884
		c1.7836304-4.4599304,8.6467285-3.8503265,10.5904541-8.1519623
		C543.6258545,218.7440491,533.3972168,218.5233612,530.1293335,220.9780884z M534.2103271,213.6473694
		c-2.4384766-3.8249817,5.3255005-4.4255524,8.1429443-5.7144165
		C541.9733887,212.1812286,535.3490601,210.1669922,534.2103271,213.6473694z M360.5507507,459.0375671
		c-0.7868958,3.0380859-7.9855652,3.0028381-10.5904236,1.6244202
		C353.6605225,458.6133728,355.2686462,459.4961243,360.5507507,459.0375671z M347.5128479,463.1176147
		c-0.105835,1.7935486-3.4623108,0.3355713-4.8931885,0.7950134c-1.2888489-3.1791992,2.1110535-1.6868286,2.4465942-3.2506409
		C346.9475403,460.4060059,345.9761658,463.0117798,347.5128479,463.1176147z M335.2799072,463.9126282
		c1.0862732,0,2.1643982,0,3.2597046,0C339.4929199,466.7481384,333.9819946,467.7105103,335.2799072,463.9126282z
		 M323.0551453,470.4401855c-1.5367126-0.3617859-4.9194031,1.1124878-4.0800781-1.6253357
		C320.9621887,468.2848511,323.1790466,467.1723328,323.0551453,470.4401855z M310.0100098,472.0655212
		c1.2101746-1.7492371,7.2691956-4.5928955,6.5184937,0.8212585c-2.8183289-0.6448975-3.1267395,1.2101746-5.6972351,0.8131104
		C310.9633179,472.7547302,310.6368103,472.2509155,310.0100098,472.0655212z M307.5543823,475.3424072
		c-2.1643982,0-4.3369446,0-6.5185242,0c0-0.8212585,0-1.6425171,0-2.4556274
		C303.0582581,471.279541,308.3756409,471.5798035,307.5543823,475.3424072z M297.7761841,474.5211487
		c0,0.538147,0,1.0862732,0,1.6253357c-1.360321,0-2.7116089,0-4.0628662,0
		C293.1923218,474.1674805,297.5907593,473.090271,297.7761841,474.5211487z M289.6323547,477.7799377
		c-1.9256287-0.7950134-5.1672363-0.2650146-4.9022217-3.2587891
		C287.6009216,474.3791504,290.8425293,473.8500366,289.6323547,477.7799377z M282.3016357,476.9677124
		c-1.4570923,2.1725464-5.3969421,0-4.893158-2.4465637C280.5614319,473.8138428,280.305481,476.5082703,282.3016357,476.9677124z
		 M262.7280579,478.5930481c0.0976868-2.0757446,2.738739-1.616272,4.893158-1.6253357
		C268.3900146,479.9090576,264.3977051,478.0982971,262.7280579,478.5930481z M207.2850952,482.6730957
		c-2.7197266,0.8221741-2.6763153-1.1305847-2.446579-3.2587891
		C206.993866,479.1583557,206.9414062,481.110199,207.2850952,482.6730957z M194.2399597,481.8518372
		c-1.7230072,2.9060669-4.885025-1.7483215-2.438446-3.2587891
		C194.0545502,478.2394104,192.561264,481.6311646,194.2399597,481.8518372z M291.2576599,447.6168518
		c0.9451904-0.6801758,2.1906433-1.078125,4.0719299-0.8131104c0.2206726,2.6500854-0.9623413,3.9217529-3.2587891,4.0809631
		C291.4349365,450.1430359,291.196167,449.0386658,291.2576599,447.6168518z M304.2946777,445.1612244
		c-0.2650146,2.1725159-2.1372681,2.7559204-4.0628662,3.276886
		C299.6665039,445.4171753,301.503479,444.8338013,304.2946777,445.1612244z M308.3756409,445.9824829
		c0-1.0862732,0-2.1725464,0-3.2506714c1.2897644-0.0795898,3.1095581,0.388916,3.2596741-0.8212585
		C315.3002319,443.1912842,311.4671021,446.5658569,308.3756409,445.9824829z M317.3406982,441.910553
		c0-0.8212585,0-1.6253052,0-2.4465637c0.9451904,0.1239014,1.4571228-0.1854248,1.6343689-0.8122253
		c1.2011414,0.7063904,2.5877075,1.2092896,2.4465942,3.2587891
		C318.8158875,441.4248657,318.8954773,443.4472656,317.3406982,441.910553z M325.5026245,438.6517639
		c0.2207031-1.6786804,3.0290527-0.7687988,3.2587891-2.4474792c1.8812866-0.2559814,0.9008484,2.3497925,2.437561,2.4474792
		C329.2380676,440.1975098,326.86203,440.3829041,325.5026245,438.6517639z M270.0678101,445.9824829
		c-5.1048279,1.855072-23.0349884,10.802063-44.8435059,12.2329102c-10.6338196,0.689209-22.6551056-1.315979-35.0562592,0
		c-16.9940338,1.8026123-45.6303864,5.6004639-59.5148621-2.4465637
		c31.7006836-0.1854248,56.9443665-0.9533081,91.3123322-3.2588196c12.1180573-0.8131104,21.7632904-6.2887573,33.4227905-9.7781982
		c4.8841248-1.4751892,31.0295715-8.3201904,40.7625427-9.7953796c12.0393677-1.81073,19.5292664-3.5419006,32.6105652-4.875061
		C313.5247498,438.0593262,289.7562561,438.8371887,270.0678101,445.9824829z M561.909668,159.8387909
		c0.8474731,9.3096924,1.0681763,22.2055817-0.8040771,31.7884216
		c-10.0604248,51.3619995-31.1707153,91.7898712-39.9503784,110.8768768
		c-15.1217651,32.8403015-73.8859253,112.3782654-96.1973267,132.8789368
		c-10.5985718,9.7429199-19.4406433,17.9039307-31.7974854,25.2789612
		c-19.9615784,11.9335327-54.8505249,13.7795715-82.3291321,19.5645447
		c-10.2105408,2.1463013-20.9954224,6.0237427-31.7974854,7.3406372c-12.463562,1.5186157-26.490036,1.165863-40.763443,2.437561
		c-19.3872528,1.7311401-40.4179382-0.4061279-56.2642059-2.437561c17.6127014,2.243103,36.1967926-1.3521729,52.9963684-3.2687378
		c20.2003784-2.2964478,40.1176758-0.282196,59.5239258-2.4465942
		c22.0726318-2.4556274,43.2000732-10.1218872,63.5768127-15.4926147
		c15.7666931-4.1424561,41.6905518-22.0373535,44.8444214-24.4486694
		c21.3481445-16.3319702,35.6396484-30.6144104,50.5488892-48.9154053
		c14.8829956-18.2838135,29.713562-36.6381836,40.7543945-57.8804932
		c5.6176453-10.8110962,12.5775146-20.5006714,18.7424011-30.98526
		c18.6283569-31.61203,33.3793335-81.3052979,37.5217896-113.3143921
		c3.2506714-25.2436981,4.3894043-56.4586792-5.715332-77.4450378
		c-5.8817139-12.2419662-18.3099976-26.5334625-28.5286865-31.7974625
		c-5.0966797-2.6238632-11.5536804-1.3078613-15.5016785-7.3316116
		C536.9572144,82.7112274,558.2166748,118.2631302,561.909668,159.8387909z M493.4378357,103.5836258
		c0.7072754-2.94133,5.8211365,9.971756,7.331604,13.8582535c6.1476746,15.7223511,7.5513916,48.632309,4.0809631,71.738739
		c-4.4346008,29.5543823-16.7914429,56.3085327-26.9052124,79.079422
		c1.9789734-13.6285248,11.2181091-26.1011353,13.8591614-43.201004
		C493.9506531,211.1827087,503.1273804,138.1369934,493.4378357,103.5836258z M495.8843994,156.5790863
		c0.3446045,3.3302612-1.7221069,4.2491913-3.2587891,5.6972504
		C491.7772217,161.6495361,493.5707703,156.7473297,495.8843994,156.5790863z M491.0002747,122.3350449
		c1.6787109,1.7401962-1.5014038,5.5290146-4.0809326,5.7062912
		C488.235321,126.0976334,489.8434753,124.4460754,491.0002747,122.3350449z M489.3659058,178.5811615
		c2.6763306,1.9608917-1.0419312,4.3369293-1.6334534,5.7243805
		C484.8001709,182.0877838,489.9312134,181.1344757,489.3659058,178.5811615z M486.919342,190.0018768
		c2.5704956,1.5900574-0.5209961,4.2935181-1.6334839,4.8850403
		C483.6424561,194.2329865,486.7429504,191.5394745,486.919342,190.0018768z M485.2858582,199.7800751
		c2.1906128,1.7221069-0.7072754,5.2196808-3.2597046,4.9022217
		C481.8760071,201.8115082,484.7730408,201.9878845,485.2858582,199.7800751z M471.4266968,213.6473694
		c-4.9989929,17.1441956-11.6323547,36.9203644-17.9301453,56.255188
		c-8.8149414,27.0191345-68.4528198,108.3768921-105.1886902,136.9508362
		c-13.7252808,10.696228-27.6106873,16.8791809-47.2720032,19.5645447
		c-10.0160522,1.3693542-52.8199921,13.1699524-66.0333557,17.1179504
		c-12.0475006,3.5952759-27.1783447,2.0848083-41.5756531,3.2678528
		c-22.6207428,1.8460083-47.6084595,4.637207-70.9265366,1.6343689c-7.5694885-0.989502-13.7433853-5.6710205-21.1898651-7.3488159
		c-5.0161819-1.121521-10.5280075,1.165863-15.4917221-2.4375305c9.618103-0.97229,18.9106064,3.3031311,29.3418274,4.0800476
		c6.0852585,0.4504395,12.5865707-0.6095886,18.7604675,0c7.6671753,0.7597656,15.3605804,3.966095,22.824234,4.0719299
		c24.439621,0.3183594,103.7044525-19.2018433,113.3225555-23.6445923
		c14.5121765-6.7039185,58.0749512-17.7538147,66.8464966-20.377655
		c6.4298401-1.9337463,14.1585083-7.2601624,18.7423706-12.2329407
		c13.0731506-14.1503906,23.654541-33.2201843,38.316864-49.7285156
		c13.6637878-15.3596802,28.9266663-30.3041992,38.3249817-48.9154053
		c9.9102478-19.6522827,15.9783325-42.1491089,22.8233337-64.3990021
		c4.9465332-16.0488739,17.2237854-31.2584076,18.7604675-47.2810364c0.6711121-7.1543427-1.5900574-11.63237-1.6425171-17.1269989
		c-0.0443115-4.2573395,1.9871216-8.5942535,2.4465942-13.0451355c0.7597656-7.4112091-0.6005554-16.6322632,0-25.2708282
		c0.8918152-12.8072586,3.86026-23.7241821,1.6343689-34.2440491c0.8212585,0,1.6244202,0,2.437561,0
		C494.7809753,123.6863174,472.169281,211.1040192,471.4266968,213.6473694z M96.4172745,447.6168518
		c-0.4504242,1.4308777-6.5800018,1.7664185-4.8931656-1.6343689
		C94.3415222,445.3375854,94.969223,446.8923645,96.4172745,447.6168518z M85.0056076,444.3571472
		c0.6539307,0.4241943,1.3160019,0.8393555,2.4375381,0.8040771c-0.6267929,0.7416687-0.8737106,1.855072-0.8122101,3.276886
		c-0.8122101,0-1.6253281,0-2.4465866,0C83.513237,446.1235657,85.3321228,446.3180237,85.0056076,444.3571472z
		 M155.7376862,409.026825c38.9174347-40.6304932,70.1586456-113.7385864,89.0511627-127.7207642
		c25.2970581-28.3441925,51.1412964-56.9090881,73.3731079-88.0444794
		c9.0537415-12.6923981,73.3297119-74.7949448,102.7158813-85.5979004
		c10.1128235-7.2863922,23.8390503-10.9522018,34.2440186-17.939209c1.0157166,0.194458,0.8212585,1.6253281,0,1.6343689
		c-39.049469,19.7056351-72.8693237,49.2337799-103.5280457,79.8916168
		c-10.0513611,10.0432129-20.8362427,19.4053497-30.1721497,30.1640015
		c-17.9925537,20.7385254-36.3912354,44.0656586-56.2551575,65.2112122
		c-14.0617676,14.9806824-28.1497498,33.1496277-40.7544098,50.5588074
		c-4.3106842,5.9260864-31.9828796,47.7495728-39.1381226,61.1393127
		c-8.4703369,15.8462524-18.1327667,34.60672-32.6006165,43.210022c-4.99086,2.9585266-38.4317398,16.5698547-49.7375793,13.046051
		C121.784874,433.2276611,139.3623047,426.1176453,155.7376862,409.026825z M125.7681503,416.6315918
		c0.7335281-1.4308472,3.0037308-1.3431396,3.2506638-3.2506409c1.9789734,0.7335205,2.1643829,3.276886,2.446579,5.6972351
		c-1.9608917-0.3355713-1.7664185,1.4923706-4.0800552,0.8212585
		C126.2628937,419.3956604,127.2704697,416.7555237,125.7681503,416.6315918z M134.7250977,410.9253235
		c2.5614471,0.6982422,3.3827057,3.1448364,4.0809479,5.7062683
		C135.1574249,417.028656,134.7250977,414.1940613,134.7250977,410.9253235z M401.3223267,47.3365974
		c-7.2167358,1.9165649-15.1661072,6.8630981-23.654541,10.5904083c-8.1438293,3.5952606-17.3295898,6.3864479-23.6274109,9.7863426
		c-16.8529358,9.1070786-113.1904907,82.9478149-136.9680328,110.0646515
		c-17.3214569,19.7409058-32.84935,41.8931274-48.9154205,63.5777435
		c-16.1990051,21.8691101-25.6325989,48.3591614-35.8693695,75.8287354c2.728775-9.830658,2.7025452-20.7131958,7.3307037-31.806488
		c2.0142517-4.7963867,5.8564301-11.6775818,8.9741364-17.9310913c4.8669434-9.7772827,11.9235992-19.4668427,17.9301605-29.3508606
		c14.380127-23.609314,31.7802734-45.6909943,50.5497894-66.0243225
		c9.7953796-10.6166382,19.0697937-24.2894745,30.9762115-34.2530975c4.0981293-3.4179688,7.7639465-6.3683472,11.4207153-9.7772827
		c7.5432434-7.0313339,14.167572-12.5865784,22.8323669-19.5645447c6.6858215-5.4150467,12.3921204-9.6895599,19.5464478-15.4835739
		c6.5184937-5.2739563,8.6738586-6.4126816,17.1269836-11.4207153c12.1886292-7.2167435,27.3547363-12.198555,43.2182007-18.7432823
		c19.8910522-8.2324638,38.6252747-21.2423248,59.5148621-21.2070503
		c12.5332031,0.0352745,22.2489929,7.843544,26.0739746,15.5007668
		C432.8719788,49.8890038,422.361145,41.7370377,401.3223267,47.3365974z M429.0388184,56.2926331
		c-34.7125549-4.8045311-51.4768372,21.7108383-82.3381958,26.1011276
		C370.3814087,72.6861115,393.9735413,45.4905777,429.0388184,56.2926331z M167.343811,281.3060608
		c6.7220001-12.6842346,34.7749634-54.2951813,41.5666199-64.3989868
		c11.3239288-16.8176727,25.4381409-33.6706085,38.3249969-49.7375793
		c24.8647308-24.8547668,49.260025-50.1780396,81.5259857-67.6577835c0.9189453,0.1501389,0.4594727,0.8212585,0,0.8122101
		c-6.7925415,5.1491394-47.802002,41.0628281-59.5148621,55.442955
		c-7.1281128,8.7353516-12.5865784,19.1937103-19.5645294,28.5386658
		c-13.4250183,17.9211273-26.9838867,36.4699402-41.5838013,54.6117554
		c-7.1543427,8.8863983-14.2028656,17.6922913-20.3686218,26.9051819
		c-19.4496613,29.0325012-33.3431854,60.7069702-50.5579224,92.9367676
		c-8.0199127,14.9978638-14.5827255,30.1196594-26.0830307,41.5756531
		C129.1246338,362.6810303,146.9851532,319.6663513,167.343811,281.3060608z M127.3853378,286.2082825
		c0.4323349-2.5704956,1.439003-4.5576172,2.4547195-6.5275269
		C131.5359344,281.1640625,130.2199402,286.53479,127.3853378,286.2082825z M133.0907135,265.0003357
		c0.830307,0,1.6343842,0,2.4465942,0c0.1419983,5.0351562-1.2273712,8.55896-4.0719147,10.5994568
		C130.3791199,273.2770996,132.7551575,268.4897766,133.0907135,265.0003357z M133.0907135,336.7399902
		c1.219223-6.6686401,5.9441681-16.8882141,9.7863464-23.6274109
		C144.3793793,319.2864685,135.492981,329.0285034,133.0907135,336.7399902z M145.3245544,304.9506531
		c1.3241425-0.237854,1.4037323,0.7778625,2.446579,0.8040771c0.2206879,2.4022827-1.8460236,2.5171509-1.6253204,4.9022217
		C144.8913116,309.5173035,143.8312683,306.434906,145.3245544,304.9506531z M148.592392,302.5040894
		c0-1.8984985,0-3.8069153,0-5.7053833C151.4279022,297.1342468,151.7363129,302.0274353,148.592392,302.5040894z
		 M152.6733551,289.4498901c1.1920776,0.7235718,2.5786285,1.227356,2.4375305,3.276886
		c-0.724472,0.3527527-1.4570923,0.7154541-1.6253204,1.6253357
		C151.2424774,294.3340149,151.5427704,290.500885,152.6733551,289.4498901z M156.7452545,280.4929504
		c2.8970184,0.1772766,3.6034088,6.4832153,0,6.5184937C154.8106079,285.0948792,156.8773193,283.0101013,156.7452545,280.4929504z
		 M160.8253174,272.3410034c3.6042938,1.4570923,3.2597046,4.0185242,1.6162872,7.3397522
		C159.8982391,277.1717529,158.8119659,276.0239868,160.8253174,272.3410034z M165.7103424,264.1881104
		c3.1439362,0.9270935,2.198761,3.4975891,1.6334686,6.5184937c-2.2258911,0.6005859-1.6515503-1.616272-3.2678375-1.6343689
		C163.2103882,266.0250854,166.0983582,266.758606,165.7103424,264.1881104z M170.5944672,255.2230377
		c2.5352173,1.5810089,2.9856415,4.9899445,0.8212585,7.3307037
		C168.3948059,261.4584351,168.7303619,257.2635193,170.5944672,255.2230377z M174.6754303,247.0701599
		c2.7468567,0.9804535,4.1596375,4.1696014,2.446579,7.3316193
		C174.3398743,252.8641815,171.9547882,249.8613586,174.6754303,247.0701599z M195.0612183,227.5056305
		c-0.2559662,1.9165649-2.8355103,1.5104523-2.4556274,4.0809479c-2.6320038-0.6267853-4.2663727-2.2611694-4.8759918-4.9022064
		c0.7597656-0.5915222,1.219223-1.4751892,1.6162872-2.446579
		C192.7114105,223.8759918,192.4111328,227.1700745,195.0612183,227.5056305z M195.0612183,217.7192841
		c2.7206421,0.2116547,5.2902374,3.2678528,3.2588043,5.7062836
		C195.0702667,223.743042,193.3300629,219.8475037,195.0612183,217.7192841z M188.5336761,235.658493
		c0.6096191,2.5080872-2.2349396,1.5547791-1.6253204,4.0719147c-2.6672821-1.4046326-5.4051056-4.3106842-3.2588043-8.1438293
		C186.3520966,231.8687744,187.1824036,234.0159912,188.5336761,235.658493z M183.6495514,242.1679535
		c0.3880157,2.5704956-1.1748962,3.1891479-1.6434174,4.9022064c-2.5614471-0.1501312-1.0328979-4.3893738-4.0719147-4.0809479
		c0.635849-0.7235718,0.883667-1.8460236,0.8131256-3.2588043
		C181.6443481,239.289032,180.7606812,242.6183777,183.6495514,242.1679535z M206.4638367,210.3795319
		c-0.0877228,3.4442139-2.9322815,4.1334229-4.0719147,6.5275421
		C197.357666,215.1044769,203.3370972,208.3833771,206.4638367,210.3795319z M210.5538483,203.8610382
		c0.2206879,2.1282043-0.300293,3.5147552-2.4556274,3.2587891
		C207.8684845,204.9916229,208.3984985,203.6132202,210.5538483,203.8610382z M139.6182556,247.0701599
		c1.0862732,0.8131256,2.4728241,1.3431396,3.2588043,2.4375458c-0.1501465,2.305481-1.4127808,3.4803925-4.0710144,3.2687378
		C139.0620117,250.8598785,140.0949249,249.7112122,139.6182556,247.0701599z M142.0648499,242.989212
		c0-2.7115936,2.6500854-2.7911987,2.446579-5.7053833c1.4661407-0.1058197,1.7221069,0.9976196,3.2597046,0.8122101
		C148.574295,242.2656403,145.2974091,245.435791,142.0648499,242.989212z M138.8060455,260.9284058
		c-3.6920319,0.3889465-2.2258911-3.815033-1.6343689-5.705368
		C138.4695892,256.4775391,140.7931671,258.8445129,138.8060455,260.9284058z M151.8430481,227.5056305
		c1.6515503,2.0495148,0.9451599,6.9689178-3.2506561,5.7062836
		C148.2740173,229.9087982,148.8836212,227.5237122,151.8430481,227.5056305z M161.6293793,207.9329529
		c1.2101898,0.4232941,2.0667114,1.2101746,3.2678528,1.6334686c-0.3174744,2.6763153-2.393219,3.5952606-3.2678528,5.7062836
		c-1.0772095-0.2912445-1.2807159-1.4308624-2.446579-1.6253357
		C158.8825226,210.6092682,162.4949646,211.5101166,161.6293793,207.9329529z M173.8623047,212.8261261
		c13.8763428-21.9586639,30.6587372-43.0155792,50.5497894-60.3270874
		c7.3668823-6.4217224,13.9116211-13.3291321,21.1898651-20.377655
		c9.3449554-9.0528183,20.0502319-19.1050644,30.1630859-28.5377579
		c5.4584656-5.0704498,24.7498474-19.4496689,26.9042969-21.1898651
		c10.3254089-8.3473358,81.9592285-40.656723,109.2434082-47.2900887c9.4064636-2.2792587,40.1176453,4.9989929,44.030365,21.188961
		c-4.5485535,0.6801605-6.253479-7.5251694-11.4116516-10.5904083c-28.3794861-16.834856-54.8243103,0.3364601-57.8895569,1.6343727
		c-9.6099548,4.0366364-42.0694885,17.3567314-48.9154053,20.3767509
		c-10.5723267,4.690567-19.8819885,7.6581268-30.1721191,13.8591537
		c-9.0799561,5.4937363-18.2747803,16.1990128-26.9042969,23.6445923
		c-36.1705627,31.2059402-100.1272736,97.6897354-125.5391998,142.6661987
		C158.6880493,234.9602509,166.7342072,224.0876465,173.8623047,212.8261261z M166.5225525,200.6013336
		c2.6944122,1.3340912,3.8602753,3.1891479,1.6343689,5.7062836
		C165.14505,204.6560669,164.7733154,203.5960236,166.5225525,200.6013336z M172.2288361,193.2615814
		c1.6334686,0,3.2678528,0,4.8931732,0c-0.4241943,1.2011261-1.2011261,2.057663-1.6253204,3.2678375
		C173.5973053,196.2472229,171.6807404,195.991272,172.2288361,193.2615814z M177.1220093,190.0018768
		c0.6177521-2.9141846,1.8812866-5.1844025,4.8841248-5.6963348
		C183.4722748,186.5486298,181.2292023,190.7353973,177.1220093,190.0018768z M183.6495514,178.5811615
		c2.3045807-0.8384399,3.3917542-0.8384399,5.6963348,0C188.4540863,181.6464081,184.2148438,182.9714508,183.6495514,178.5811615z
		 M190.168045,170.4291992c2.4909058-0.5915222,2.393219,1.4127808,4.8931732,0.8212585
		c0.689209,2.6057739-1.2897644,2.5261841-1.6343689,4.0809631
		C191.1656799,174.1655579,188.4893646,173.4229889,190.168045,170.4291992z M252.9507599,100.3239212
		c4.7954865,0.9008484,7.0485077,4.3541107,8.1438141,8.9650879c-2.0494995-0.141098-1.9789734,1.8288269-3.2506409,2.4556274
		c-1.99617-3.4532547-6.0680695-4.8135757-7.3488007-8.9741287
		C251.2548828,101.8958893,253.4979706,102.5145416,252.9507599,100.3239212z M257.8439331,96.2520142
		c2.4556274-3.895546,9.0446777,4.4255524,7.3225708,7.3316116
		C263.0816956,100.7924347,260.8024292,98.1685791,257.8439331,96.2520142z M252.9507599,116.6378021
		c-3.0209198-2.0757523-9.6099701-4.2835541-7.3488007-8.9741211
		C249.0018616,109.3423691,254.8582764,112.2656097,252.9507599,116.6378021z M246.4141693,122.3350449
		c-1.1124878-3.7806702-6.5980835-3.1710587-7.3225708-7.3397522
		C243.5352478,115.3751678,249.6820221,119.243576,246.4141693,122.3350449z M243.1635132,124.7816315
		c-2.6844635,4.2310944-6.6062317-2.0052032-9.7863312-2.4465866
		C236.1864471,120.3741608,240.0991821,124.2868881,243.1635132,124.7816315z M238.27034,128.8535461
		c0.7154388,2.6229553-2.6853638,1.1124878-2.4556274,3.2678375c-2.8617249-0.9451752-3.1972809-4.4165115-7.3307037-4.0800476
		c-0.689209-2.6057739,1.2897644-2.5180435,1.6343689-4.0719147
		C233.041626,125.391243,235.3995667,127.3693085,238.27034,128.8535461z M233.377182,135.3720398
		c-3.947998-0.6620636-7.5957184-1.6425171-8.1528778-5.6972351
		C228.6079254,130.9030609,232.7766113,131.3534851,233.377182,135.3720398z M228.4840088,138.6398773
		c-1.6343689,0.830307-5.9884796-1.2454529-6.5184937-4.0719147
		C224.3677826,132.9607239,227.6446686,136.1055603,228.4840088,138.6398773z M225.2243042,141.8995819
		c-2.5261688,2.2078094-6.1033478-1.4751892-7.3307037-3.2597046
		C220.3049011,137.0236053,223.0608215,140.6894073,225.2243042,141.8995819z M221.1352081,146.7927551
		c-2.2611694,3.4451141-4.2482758,1.4923706-8.1438293,0.8212585c-0.2559662-1.8903351,0.1329651-3.1439362,0.8212585-4.0809631
		C216.3569031,144.5225372,218.8912201,145.5120239,221.1352081,146.7927551z M214.6257629,152.4990387
		c-0.4332428,0.6530304-0.8484039,1.3241425-0.8131256,2.446579c-3.6214905,0.8918152-4.0628662-1.3784027-6.5275421-1.6253204
		C207.7092896,148.1883392,212.1701202,151.0853577,214.6257629,152.4990387z M208.9104309,159.0256805
		c-0.3174744,1.5728607-3.1529846,0.636734-2.4465942,3.2506561c-2.4203491-0.0090485-2.7559052-2.1200714-4.8841248-2.4375458
		c0.4241943-1.2011261,1.2101898-2.0585632,1.6334686-3.2597046
		C205.7040863,156.7916412,206.8789978,158.3373718,208.9104309,159.0256805z M202.391922,164.7229156
		c-0.194458,3.9923248-3.3998871,3.1448364-6.5184937,2.446579
		C194.97258,161.7372742,200.0602112,163.3011017,202.391922,164.7229156z M294.5264282,80.7593842
		c-0.5743408,1.6081467-2.1824951,2.173439-4.0809631,2.4465866c2.2077942-3.9127274-3.5419006-5.9884796-4.0719299-9.777298
		C290.7457581,71.2290115,290.9311523,79.5229797,294.5264282,80.7593842z M292.8920593,70.1599274
		c3.9308167-12.4716988,15.0593872,4.496109,6.5184937,8.9659882
		C296.7875977,76.5997391,295.1351318,73.0931168,292.8920593,70.1599274z M287.1857605,86.4656754
		c-4.1596375-1.5457382-5.4141541-5.9975281-8.1519775-8.9650879
		C284.2977905,77.5620956,287.9364624,83.0296021,287.1857605,86.4656754z M281.471344,88.9122543
		c0.6095886,2.5171356-2.2258911,1.5719681-1.6253357,4.0809631c-3.8159485-2.173439-5.776825-6.1829453-8.1438293-9.7872467
		C276.2688293,79.5763397,278.9189148,85.8117447,281.471344,88.9122543z M274.9528503,97.0651245
		c-2.8970337-0.4513245-2.0052185,2.88797-4.8850403,2.4465866
		C260.7409363,89.7163315,268.6288147,83.7622147,274.9528503,97.0651245z M305.1159363,60.3735924
		c3.6214905,1.2807274,3.4360657,6.3511696,4.8940735,9.786335c-1.5547791,0.353653-1.466156,2.3326263-4.0719299,1.6343765
		C307.2712708,66.6098938,301.0530701,63.2090988,305.1159363,60.3735924z M318.9750671,66.9011307
		c-2.4908752-0.5915146-2.394104,1.4127808-4.8850098,0.8122177c-0.8475037-4.0447807-3.8150635-5.9703941-3.2587891-11.4207153
		c4.6896667-1.8107414,8.3997803-4.6281586,12.223877-7.3216629c3.6214905,2.2168503,6.2453308,11.3935776,2.4474792,13.8582497
		c-2.8445435-1.5195045-3.2859192-5.4141426-4.9022217-8.1528702c-1.6253357,0-3.2597046,0-4.8850098,0
		C315.2739868,60.2768135,319.7963257,60.9126549,318.9750671,66.9011307z M329.5745239,46.5243835
		c1.1568298,0.0615044,2.3136292,0.1230087,2.4465942-0.8221588c3.3827209,2.058567,4.1949158,6.6867294,4.8931885,11.4207115
		c-1.5548096,0.3446007-2.04953,1.7492409-4.0719299,1.6253281
		C331.9677734,54.4556618,330.2456665,51.0195885,329.5745239,46.5243835z M340.164032,41.6221695
		c2.3055115,2.8526917,6.5456543,10.6700058,3.2687683,13.8672981
		C341.0033875,52.468544,337.2670288,44.8990555,340.164032,41.6221695z M345.0662537,39.1755867
		c0.5037842-1.1224442,3.1358032-0.1239128,3.2416077-1.6253281c3.0480652,3.0914688,5.2468262,10.881649,4.9112549,14.6704636
		c-1.0953064,0-2.1906128,0-3.2587891,0C349.3679199,46.8418541,346.7096863,43.5034637,345.0662537,39.1755867z
		 M354.0403748,35.9249306c2.0757751-0.0886383,2.8536072-1.5014153,4.0628662-2.4556313
		c3.0480652,2.6500893,4.8144836,12.5865707,2.4475098,15.5016708
		C356.0718079,46.9304924,356.2490845,40.2265778,354.0403748,35.9249306z M364.6307983,31.8439713
		c1.2987976-0.0705471,3.1185913,0.3889236,3.2687378-0.8212566c2.3489075,2.2783566,3.5147705,10.0513477,1.6244202,13.8672962
		C365.0549927,43.3795509,365.9115295,36.5345421,364.6307983,31.8439713z M375.2302551,36.7461853
		c1.7402039,0.3708344,1.5547791-1.1749039,1.6253357-2.4556274c2.7206116,0.8212547,2.9937744,10.3787651-2.437561,8.1528702
		c0.0615234-4.6905708,0.1763916-9.4245529-0.8131104-13.0460415c1.2807312-0.0705471,3.0914612,0.3979664,3.2506714-0.8040714
		C379.7969055,31.5789623,374.2941284,33.045105,375.2302551,36.7461853z M381.7487488,26.9417572
		c0.5037842-1.1124935,3.1358032-0.1148663,3.2678528-1.6253281c3.5771484,1.8731537,2.2177429,8.6647987,4.0809326,12.2338295
		c-2.3226624,0.1320496-3.4179688,1.4923706-5.7234497,1.6253281
		C384.2658691,33.6728058,381.3164062,32.0122032,381.7487488,26.9417572z M404.5720825,32.6652298
		c-0.5653076-3.7797718-0.7678833-7.914093-4.0628662-8.9741287c-4.5223389,2.2177544-0.2469177,5.0089417-0.8212585,9.7781982
		c-0.8655701,1.5900536-3.7625732,1.148674-4.8841248,2.4556313c-3.1358032-2.0404816-2.9413147-7.3931179-4.0809631-11.4116688
		c3.6033936-0.5652924,10.8201599-2.1291161,17.1089172-2.4465847
		C407.1868896,26.9688911,411.1439514,32.8244133,404.5720825,32.6652298z M412.7340088,22.0666771
		c1.0953064,0,2.1725159,0,3.2587891,0c0.3183594,3.6920376,1.8460083,6.8450108-1.6334839,8.1519661
		C412.8931885,28.4259892,413.6520386,24.3983955,412.7340088,22.0666771z M420.8778381,22.0666771
		c1.8903198,0.8384418,2.6319885,2.7993279,5.7144165,2.4465847c0.0976868,3.6214886-0.6973572,6.3593121-4.8841248,5.7053814
		C420.2501221,28.6729088,421.1075439,24.8216858,420.8778381,22.0666771z M430.6641541,31.8439713
		c0-2.1815758,0-4.3369217,0-6.5275421c1.0509949-1.1215401,3.5509338-0.8031673,5.714447-0.8031673
		c-1.8107605,2.9675579-0.388031,6.0147095-1.6425171,8.151968
		C432.7842407,32.9836006,432.969635,31.1638126,430.6641541,31.8439713z M440.4505005,26.9417572
		c3.7363586-0.7063885,4.2139282,6.0680733,2.4465942,8.1619148
		C438.9138184,35.5540962,440.9452515,29.9807682,440.4505005,26.9417572z M451.0409241,31.0227146
		c0.5128174,3.4885311-2.6492004,3.321207-2.437561,6.527544C446.5900269,35.748558,447.9060364,30.3868752,451.0409241,31.0227146z
		 M459.2028198,179.4033356c1.8460388-5.0794983,3.75354-11.5536804,4.0809631-15.4835815
		c0.9804382-12.5784302-3.3483276-24.8728638-3.2778015-36.7005844
		c0.0976868-12.9393082,6.2453613-23.6274033,10.5994568-35.0481186
		c0.4332581,15.3424835,0.4061279,39.5623169-1.6253052,57.8814087c-0.4585876,4.1243591-2.437561,8.3816986-2.4465942,12.223877
		c0,5.917923,2.5261841,12.8343964,1.6343689,20.385788c-1.8460083,15.6427612-15.3868103,36.0113831-21.2070618,52.9963684
		c-10.2638855,29.9867096-19.8123474,57.7656403-36.6824646,79.0703583
		c-10.607605,13.4078369-23.7685242,25.3847961-35.0481262,39.9503479
		c-11.7653198,15.2095337-23.9891968,37.4241333-39.1290894,42.3969116
		c-15.0684204,4.9456177-92.3985901,32.8222046-124.7351074,36.6815796
		c-18.0450287,2.1463013-36.5757599,6.9074097-54.6208038,6.5275574
		c-6.2182007-0.1320496-14.4597168-0.2026062-19.5735779-4.9022217c13.7171631-3.1791992,28.2293396-1.9256287,43.2181702-4.8841248
		c20.5449829-4.0719299,40.0561523-13.5579834,61.1311646-17.1179504
		c41.6552582-7.0485229,81.1189728-20.6598511,109.2424774-42.3969116
		c11.5708618-13.7877197,23.1950684-26.135498,35.0662231-40.7625427
		c4.3369141-5.3354797,34.2349854-44.9764709,46.468811-78.2581635
		C440.7336121,229.0160828,450.1491089,204.2056427,459.2028198,179.4033356z M461.6403809,39.1755867
		c-0.4061279,3.682991-3.5419006,4.6100693-4.0809631,8.1610107
		C454.230072,45.5520821,459.0083618,40.1560287,461.6403809,39.1755867z M462.4616089,57.9270058
		c-1.3865356-2.1815758,1.7492676-5.4675064,4.0719299-6.5184975
		C466.2775574,54.6853943,465.0583496,56.9908829,462.4616089,57.9270058z M467.3466492,56.2926331
		c1.7664185,1.2988167,1.2979126,7.2167473-2.4465942,5.715332
		C464.0516663,58.4307938,467.6559753,59.3226013,467.3466492,56.2926331z M452.675293,132.1213837
		c1.1396179,15.051239,3.4803772,33.1758728-0.8122253,47.2819519c-1.5457153,5.0695343-4.9202881,9.4507751-6.5275269,14.6704559
		c-8.3554688,26.9929352-16.3672485,53.4377594-27.708374,75.8287659
		c-4.637207,9.1152039-18.4782715,33.4499207-20.3858032,36.6824646
		c-5.4846802,9.2481995-38.3512268,46.4598083-45.6475525,54.6217041
		c-24.2632446,27.0897217-63.8337097,35.9842529-101.0986786,46.4597778
		c13.1075287-7.2872925,28.4762421-7.4374084,41.5756683-13.8591309c5.670105-2.7640686,13.089447-7.4627686,17.939209-10.5904236
		c10.068512-6.5003967,20.1026917-17.144165,30.9843445-26.9042969c10.4583435-9.3883667,23.15979-16.7905273,31.7802734-26.091156
		c3.2506409-3.4975891,6.9164429-8.5327454,10.5994568-13.0370178c16.8701172-20.615509,44.719574-91.4977417,47.2900696-97.0186005
		c5.4584656-11.7300415,11.6061401-22.4434662,14.6713867-39.1372223c1.1658325-6.3511658,0.9451599-13.6818848,2.4465637-20.377655
		C449.9727478,150.8908997,453.8501892,144.9205017,452.675293,132.1213837z M209.7325897,388.1019897
		c1.9780731,1.2897644,3.6033936,2.9151001,4.8931732,4.893158c-0.3627014,2.3579407-1.7230225,3.7182617-4.0719147,4.0809631
		C208.689743,393.0132446,204.5382233,391.3879089,209.7325897,388.1019897z M207.2850952,401.9602356
		c-0.9533081-0.1320496-1.4480438,0.1854248-1.6244202,0.8212585c-3.1095581-0.4413757-3.5862122-3.4794922-4.0809631-6.5266418
		C204.5472717,397.0932922,206.993866,398.4626465,207.2850952,401.9602356z M212.9913788,384.8422852
		c0.2559662-1.9165649,2.8355103-1.5186157,2.4465942-4.0719299c3.9127197,0.4332581,3.4098358,5.2911377,7.3397522,5.7062988
		c-1.2101746,0.9623413-2.3045807,2.0404663-3.2678375,3.2506409
		C215.8440704,389.6033936,216.9484253,384.6921387,212.9913788,384.8422852z M239.0915985,342.4453735
		c5.0966797,1.4227295,6.4660492,6.5809021,11.4035339,8.1528625c0.2026062,2.9322815-2.446579,2.9946899-2.446579,5.7144165
		c-3.9398651-3.1348877-7.3135376-6.8097229-10.5904236-10.5985413
		C237.4581299,344.0978394,239.6840363,344.6802979,239.0915985,342.4453735z M249.6820221,324.5061646
		c5.3354492,1.1839294,7.083786,5.971283,12.2247772,7.3487854c-0.5390625,2.7296753-2.5433655,3.9841919-3.2587891,6.5184937
		c-4.2139282-2.5695801-7.6138153-5.9703979-11.4125824-8.9732056
		C246.7940521,326.5204163,250.1242981,327.4031677,249.6820221,324.5061646z M313.277832,242.1679535
		c3.4360962,4.7167969,10.0603943,6.253479,11.4116821,13.0550842c-4.1162415,0.141098-9.0799561-5.4765472-13.0541992-8.1528778
		C311.2463989,244.4996643,314.1434021,245.2241516,313.277832,242.1679535z M420.8778381,131.3001251
		c3.2506409,0.8393555,7.8082581,3.771637,5.7144165,7.3397522c-3.2063293-0.335556-3.4885254-3.5771637-6.5275574-4.0719147
		C419.967926,133.1108704,421.0722961,132.8458557,420.8778381,131.3001251z M437.9957886,123.9694214
		c0.6177368,2.5080872-2.243988,1.5719604-1.6171875,4.0719147c-1.6425171-1.3521805-3.7888184-2.1824875-4.0800781-4.8940811
		C434.3299561,121.0986404,435.5048828,124.0842896,437.9957886,123.9694214z M441.2636108,116.6378021
		c1.9075317,0.1944656,0.4766541,3.5771713,0,4.0719147c-1.0862732,0-2.1734314,0-3.2678223,0
		C437.3943176,117.6444778,441.1225281,118.9170609,441.2636108,116.6378021z M445.3355408,132.934494
		c0.1058044,34.3236389-23.0530701,54.1794281-35.0571594,79.8916321
		c-12.4183655,26.6392822-37.344574,83.0445709-42.3788452,93.7588959
		c-0.7072754,0.1501465-0.7687988-0.3265076-0.8302917-0.8302917c6.3683472-16.4549866,7.6662598-37.9894409,17.1170349-51.352951
		c5.6004639-25.0320435,23.3452148-41.345932,35.878418-61.9524078
		C430.8757935,174.6603088,437.6773987,154.8569794,445.3355408,132.934494z M407.8317871,240.5426178
		c1.2101746-3.4089355,6.3774109-2.869873,8.1610107-5.7053833
		C417.1152344,237.3453369,410.4547424,239.0674438,407.8317871,240.5426178z M411.9127502,245.435791
		c-2.5614624-2.1544342-4.3106995,1.7230072-7.3406677,1.6343689c1.4842224-3.6920319,7.1109314-3.2153778,8.9741211-6.5275421
		C415.1896362,241.2055969,412.0891113,243.8991089,411.9127502,245.435791z M411.0905762,233.2119141
		c3.5419006-2.7115936,6.5718689-5.9441681,9.787262-8.9741211
		C423.9068909,226.6400452,415.1272278,235.1990356,411.0905762,233.2119141z M417.6271667,216.907074
		c1.7139587-3.9751282,7.8959961-3.5066223,10.5904236-6.5275421
		C428.9511108,213.576828,421.5661316,215.6788025,417.6271667,216.907074z M421.7081299,208.7542114
		c2.0838928-4.1696014,7.8959961-4.5928955,10.5903931-8.1528778
		C435.619751,203.8519897,426.3453369,208.0912323,421.7081299,208.7542114z M425.7709961,199.7800751
		c1.9961548-2.9060516,6.5003967-3.276886,9.7863464-4.893158
		C433.658844,197.88974,429.6484375,198.7643585,425.7709961,199.7800751z M429.8519592,192.4493713
		c1.5185852-2.2882996,4.4517822-3.1538849,7.3306885-4.0719147
		C436.2112732,191.2039185,433.0139771,191.8126221,429.8519592,192.4493713z M433.1017151,185.1005707
		c0.583374-2.4031677,4.6905518-1.2816315,4.8940735-4.0719147c0.9533081,0.1320496,0.6973267,1.4923706,0.8212585,2.4465942
		C437.2803345,184.3760986,434.9658203,184.5171967,433.1017151,185.1005707z M435.5573425,179.4033356
		c1.6868286-2.3941345,3.6838989-4.4698792,4.893158-7.3316193
		C441.9528198,174.4305725,439.4881592,179.7832031,435.5573425,179.4033356z M395.6160583,269.9025574
		c0.1763611-5.2640076,7.6400146-3.2325745,8.1437988-8.1610107
		C406.0300903,266.1933289,399.7141724,269.090332,395.6160583,269.9025574z M400.5092163,271.5278625
		c-0.5209656,4.3902893-5.0433044,4.7520752-8.9741211,5.6972656
		C393.1341858,273.9391785,397.3471985,273.2499695,400.5092163,271.5278625z M403.7598572,256.8483582
		c0.5562744,2.7287903-1.3693542,2.9766235-3.2506409,3.2678528
		C399.9439087,257.3783875,401.8695374,257.1305542,403.7598572,256.8483582z M330.3957825,331.85495
		c-18.1779785,27.3637695-46.468811,44.181427-75.8287354,61.1401978
		c14.962616-12.6480713,33.1668091-28.546814,46.468811-47.2810364
		c6.3240662-8.8863831,15.6246948-16.5707397,18.7604675-26.9042969
		c4.5042725-14.8839111,37.8746033-57.1478882,47.2729187-71.7396545c4.3893738-6.8187714,6.6858215-14.7419128,11.428833-21.197998
		c6.0771179-8.2858276,15.2366638-14.3005371,22.0111389-22.0111237
		c7.0838013-8.0732727,11.4740601-17.6741943,18.7432861-25.2798767
		c-10.8291931,25.7393494-32.9814148,45.7534027-48.1032104,72.5609131
		C356.1694946,277.7108154,346.4356079,307.7065735,330.3957825,331.85495z M337.7265015,336.7399902
		c-3.1972961,1.0328979-2.4113159-1.9165649-2.4465942-4.0809631
		C336.7017517,333.409729,338.1063843,334.1785278,337.7265015,336.7399902z M280.6500854,384.0210266
		c4.5666504-1.3422241,10.3254089-0.3355713,13.8763428,1.6343689
		C291.8139343,390.6724854,283.2467957,388.004303,280.6500854,384.0210266z M282.3016357,391.3607788
		c-1.421814,0.4151611-6.5890503-1.227356-8.1619263-3.2587891
		C276.5953369,386.6620789,281.9751282,388.0757446,282.3016357,391.3607788z M290.4454651,379.9490967
		c4.7873535-0.0090332,9.7772827,0.7778625,15.4926147-1.6253052
		C303.1378479,380.6383057,293.4926147,385.5758057,290.4454651,379.9490967z M298.6064758,375.0649719
		c4.4780273-3.6748352,12.5513-3.7453918,18.7342224-5.715332c-2.4284973,1.6434326-4.0185242,4.1343384-6.5094299,5.715332
		C306.8036499,373.6784363,303.9147949,375.6302795,298.6064758,375.0649719z M308.3756409,367.7252197
		c3.3121338-3.754425,10.1309204-4.0013428,16.3138733-4.8940735
		C323.2677002,368.4931335,312.4294434,364.7043152,308.3756409,367.7252197z M323.8591919,360.3936157
		c-2.0757446,0.1763611-7.8516541-0.2559509-3.2587891-0.8212585c3.4623108-1.1567993,7.3044739-1.9518433,10.5985718-3.2597046
		C333.0630798,357.7969055,326.9597168,360.1114197,323.8591919,360.3936157z M317.3406982,355.491394
		c1.0066833-1.7130432,2.2611694-3.1791992,3.2597046-4.893158
		C323.0289001,352.5591125,319.0365906,354.9704285,317.3406982,355.491394z M323.0551453,348.9729004
		c2.0757446-1.7221069,2.2792358-5.326416,5.7062683-5.7144165
		C328.240448,346.5444031,327.3305664,349.4414062,323.0551453,348.9729004z M331.1989746,343.2584839
		c-3.2144775-0.8655701,0.2125244-2.4737244,0-4.8850403C335.3151855,338.7714233,330.7838135,341.4739685,331.1989746,343.2584839z
		 M274.1397095,392.9951477c-1.5891418,2.6672668-7.3126221,3.4098511-6.5184937-1.6343689
		C270.8103638,390.9022217,272.3561096,392.0680847,274.1397095,392.9951477z M264.3533936,396.2548523
		c-2.155365,1.3684692-4.9194031,2.1463013-7.330719,3.2587891
		C258.2147522,397.3492432,261.4301453,394.1166992,264.3533936,396.2548523z M363.818573,275.5997925
		c1.6777954,1.2454529,4.4599304,4.0899963,2.4465942,6.5275269c-1.1748962-1.2897644-2.0576477-2.8445435-4.0718994-3.2678223
		C362.1932678,277.2431946,364.4100952,277.8256836,363.818573,275.5997925z M345.879364,316.354187
		c-0.1148682-1.4489441,0.9976501-1.7049255,0.8212585-3.2416077c2.8002319,1.8722534,6.7572937,4.8488464,4.8931885,8.9560242
		C348.6795959,321.1768188,347.4775696,318.5619812,345.879364,316.354187z M347.5128479,326.961792
		c-3.3555908-0.4504395-4.8841248-2.7287903-4.8931885-6.5184937
		C344.9694824,321.9012756,346.656311,324.0032654,347.5128479,326.961792z M349.1381836,307.3972473
		c0.9541931-0.1411133,0.6891785-1.4923706,0.8221436-2.4465942c2.4465942,2.9684753,5.5905151,5.2821045,5.6963501,10.6085205
		C353.2896729,313.0329895,350.4541626,310.9744263,349.1381836,307.3972473z M352.4069214,299.2452698
		c2.3226624,2.499054,8.3464355,4.9456482,5.6963196,9.7863464
		C356.7610168,305.2066345,352.9188538,303.8824768,352.4069214,299.2452698z M356.4697876,291.9046326
		c1.7130432,2.976593,6.5184937,5.1147461,4.9112549,8.9741211
		C359.1461182,298.7767639,354.4473877,295.6409912,356.4697876,291.9046326z M339.3608704,326.1405334
		c2.9938049,1.9789734,5.1491394,4.9727478,1.6334839,7.3487854
		C339.6873779,331.2372131,337.9209595,328.9489136,339.3608704,326.1405334z M346.7006226,344.0797424
		c-0.5209656,2.7378235-3.9217529,2.6148071-7.3397522,2.4465637
		C340.3856506,344.2832336,343.7683411,344.40625,346.7006226,344.0797424z M344.3779602,340.8200378
		c-0.0443115,0-0.0886536,0-0.1329651,0C344.2893066,340.8200378,344.3336487,340.8200378,344.3779602,340.8200378
		c1.5982056-0.1854248,14.6976013-6.2263489,8.0289612,0C349.7124939,340.8200378,347.0542908,340.8200378,344.3779602,340.8200378z
		 M350.7634888,334.293396c3.6124573-2.1028748,7.2692261-4.1343079,12.2247925-4.893158
		C361.8224182,333.9306946,355.7453003,333.5689087,350.7634888,334.293396z M359.7466736,283.752655
		c2.693512,0.282196,3.5238037,2.4465942,4.8841248,4.0800476c0.3274231,1.9608765-1.4923706,1.767334-0.8122253,4.0719299
		C360.5679321,290.888916,357.8301086,287.524292,359.7466736,283.752655z M373.6049194,316.354187
		c-0.971405,3.9389648-5.1844177,4.6100769-9.7863464,4.9022217
		C366.2651672,318.8098145,370.116394,317.7669678,373.6049194,316.354187z M369.5239563,313.915741
		c1.5104675-4.1949158,8.2062378-3.2144775,11.4125671-5.7053833c0.2207031,3.2144775-3.4803772,2.499054-3.2687378,5.7053833
		C374.9652405,313.915741,372.2445984,313.915741,369.5239563,313.915741z M376.8555908,305.7547302
		c-0.9008484-2.5442505,5.9179077-4.3902893,9.7863159-4.8759766
		C386.006073,305.1360779,379.2759399,303.2819214,376.8555908,305.7547302z M381.7487488,298.4231262
		c-0.6005554-1.9871216,5.2115479-4.5395203,8.9741211-4.8931885
		C389.3806458,296.8249207,384.3192444,296.3835449,381.7487488,298.4231262z M372.7746277,207.1198273
		c-11.3058472,10.908783-19.9263306,25.3676147-31.7802734,36.6915436
		c18.9377441-35.675827,54.100708-62.2174225,81.5087891-92.1254425c1.0238647-0.9098969,1.6868286-0.7063904,1.6334839,0.8131104
		C410.0929565,173.5378571,390.8549194,189.7015991,372.7746277,207.1198273z M425.7709961,127.2191696
		c2.9322815-1.2101746,5.7849731,1.5728683,6.5275269,4.9022141
		C429.4539795,133.9411774,426.6899414,129.904541,425.7709961,127.2191696z M422.5031433,142.7208405
		c-3.7806702,2.7731018-5.8916931-1.9075165-8.9569397-2.4556274c0.4332581-1.2011414,1.2101746-2.0404816,1.6434326-3.2506561
		C417.9717712,138.5521545,421.8582764,139.0288086,422.5031433,142.7208405z M417.6271667,146.7927551
		c-1.3422241,8.6557465-6.3421326,3.4803925-10.5994568,0.8212585
		C408.6530457,140.459671,412.8931885,146.2093658,417.6271667,146.7927551z M410.2783813,154.1234589
		c0.5299988,3.5156708-3.4098511,2.5614624-3.2506714,5.715332c-0.8302917-3.2597046-3.2235107-4.9374847-5.7053833-6.5184937
		C402.5496826,146.8108368,407.1868896,153.1520691,410.2783813,154.1234589z M403.7598572,160.651001
		c-0.3355408,2.3941345-2.6763,2.7559204-3.2506409,4.8931732c-3.1529846-0.6530304-4.7955017-2.8174133-6.535675-4.8931732
		C396.0402527,155.2106323,401.1541138,156.7997742,403.7598572,160.651001z M397.2413635,168.8038788
		c-1.2192078,0.9623566-2.305481,2.0495148-3.2678223,3.2678375c-2.9684753-0.5652924-3.9751587-3.1005096-6.5184937-4.0719147
		c0.5028687-2.2258911,3.4089355-2.0404816,3.2678223-4.9022064
		C393.4606934,164.4316711,393.619873,168.3353577,397.2413635,168.8038788z M389.8925781,174.5101624
		c-0.9451599,1.4923706-2.1291199,2.7550049-3.2506714,4.0709991c-3.2235107,0.2297363-2.4990234-3.4794769-5.7053833-3.2497406
		c1.0066833-1.7230072,2.2611694-3.1891632,3.2497559-4.9022217
		C385.7591553,172.1250763,387.6051636,173.5469055,389.8925781,174.5101624z M382.5609741,181.028656
		c-2.3932495,8.6376648-12.3125305-0.7950287-4.0628967-4.0719147
		C380.0176086,178.1488342,379.4432678,181.4347687,382.5609741,181.028656z M376.04245,188.3774567
		c-0.5471802,1.8812866-2.7025452,2.1725311-3.2678223,4.0719147c-2.5524292-0.7072906-3.4442139-3.0833282-6.5094604-3.2687531
		c0.282196-2.7115936,3.082428-2.8970032,4.0718994-4.8750763
		C372.8189392,185.0734406,373.587738,187.5733795,376.04245,188.3774567z M369.5239563,195.7081604
		c-0.3002625,1.0690918-1.4389954,1.2807312-1.6244202,2.4465942c-3.7101135-1.5104675-9.2309875-3.1177063-5.7062683-7.3397522
		C365.4963684,191.5828857,366.5654602,194.6038055,369.5239563,195.7081604z M363.818573,201.4144592
		c-1.2897644,7.1009674-7.4111938,1.4037323-9.7781982-1.6343842c0.2297363-1.6605988,2.1906433-1.5900421,2.4294128-3.2506561
		C359.5703125,197.500824,360.6212769,200.5135956,363.818573,201.4144592z M358.103241,207.9329529
		c0.6014709,2.2258911-1.616272,1.6425171-1.6334534,3.2678375c-4.6987-0.2035065-5.7940369-3.9832764-8.9569397-5.7144318
		c0.2387695-1.6605988,2.199646-1.5990906,2.4474792-3.2596893
		C352.2739563,204.5411987,354.2963562,207.1288757,358.103241,207.9329529z M352.4069214,214.4514465
		c-0.3183899,2.6763153-2.3851013,3.6033936-3.2687378,5.7144318c-3.8421936-1.3250427-5.8555298-4.4608459-8.9741516-6.5185089
		C342.0815125,204.9997559,348.5023193,211.7480011,352.4069214,214.4514465z M345.879364,225.8721619
		c-5.2115173-0.9008484-11.3320618-4.7792053-9.7781982-9.7872467
		C339.7226562,218.9819183,344.4394531,220.7926636,345.879364,225.8721619z M340.9943542,232.3988037
		c-4.1858826,0.4775543-10.1571655-3.8503265-11.4198303-8.9732361
		C333.8399963,222.5952759,341.4185486,228.4507904,340.9943542,232.3988037z M335.2799072,240.5426178
		c-4.2392273-2.8083649-9.0971375-5.0252228-10.5903931-10.5985413
		C329.85672,231.6128082,338.742218,235.3048553,335.2799072,240.5426178z M332.0211182,244.6235809
		c-3.4631958,10.1047058-9.9545593-2.0667114-14.6804199-4.8931732c-0.1410828-2.8617249,2.7649536-2.6853638,3.2597046-4.8931732
		C324.3358765,238.1846771,328.3643494,241.2227783,332.0211182,244.6235809z M319.7963257,259.3039856
		c-0.3798523,2.6048889-3.1095581,2.8617554-3.2678223,5.6963501c-3.665802-3.3917542-8.0913696-6.0499878-12.2338257-8.9650879
		c0.4856873-3.0471497,2.8535767-4.2130127,4.0809631-6.5275421
		C311.5819702,253.3770142,314.9203491,257.1043396,319.7963257,259.3039856z M312.4565735,268.2600403
		c-3.8512268,5.6176453-8.6566467-4.9637146-13.8500977-5.7062988
		C301.5215759,255.2320862,308.057251,266.8291626,312.4565735,268.2600403z M306.7503052,273.9744568
		c-0.2469177,1.660614-2.2078247,1.5990906-2.4556274,3.2506714c-4.4870605-1.7402039-7.136261-5.3526611-11.4026184-7.3225708
		c-0.1239319-2.0314331,1.2807007-2.5261841,1.6343689-4.0800781
		C299.5959473,267.535553,301.6717224,272.2523499,306.7503052,273.9744568z M300.2318115,280.4929504
		c-0.3617859,2.3588562-1.7221069,3.7191772-4.0809631,4.0809631c-1.4923706-3.947998-7.2954407-3.577179-8.9650879-7.3487854
		C290.1714172,269.3110352,295.4887695,280.1221313,300.2318115,280.4929504z M293.7133179,287.8327026
		c-0.3355713,3.1982117-3.5952759,3.471344-4.0809631,6.5194092c-3.8774719-1.8378906-6.7391968-4.6815186-10.5985718-6.5194092
		c0.3265381-3.2054138,3.577179-3.4794922,4.0719299-6.5266418
		C287.3187256,282.7893982,289.8530273,285.9695129,293.7133179,287.8327026z M285.5523071,297.6018677
		c0.1229858,2.0404663-1.2807312,2.5352173-1.6253357,4.0809631c-4.831665-0.8746338-6.3683777-5.043335-10.5994568-6.5094604
		c-0.1239319-2.0314331,1.2807312-2.5352173,1.6253357-4.0809631
		C279.4751892,292.2763672,281.0118713,296.4450378,285.5523071,297.6018677z M279.8460083,305.7547302
		c0,2.7296753-2.6582336,2.7911987-2.4375305,5.7234802c-4.3369446-1.660614-6.2535095-5.7325134-10.6175537-7.3488159
		c-0.4232788-3.1529541,2.0938416-3.3564758,2.4556274-5.7062683
		C273.0181885,300.6318359,276.2426147,303.3967896,279.8460083,305.7547302z M273.3275146,314.7288513
		c-0.3265076,2.6763306-2.3760376,3.5943604-3.2597046,5.714447c-3.4351807-2.8355103-6.7039185-5.8030701-10.5985413-8.1610107
		c0.150116-2.8264771,2.8707581-3.0914917,3.2587891-5.6972656
		C266.5702209,308.9873047,269.3352051,312.4586487,273.3275146,314.7288513z M266.7909241,323.7029724
		c0.2215881,2.3841858-1.8279419,2.5081177-1.6244202,4.8841248c-4.0366516-2.4646606-8.1619263-4.8759766-11.4035339-8.1437988
		c-0.0352783-2.4818726,1.713974-3.1792297,2.4294128-4.8841248
		C259.8138733,318.1730652,262.9930725,321.2564087,266.7909241,323.7029724z M255.3883057,343.2584839
		c0.6005554,2.2258911-1.6253357,1.6425171-1.6253357,3.2678223c-5.0876312-1.7130432-7.9403229-5.6619568-11.4207153-8.9650574
		c-0.2206879-2.3851013,1.8460236-2.5080872,1.6343842-4.9022217
		C248.1190948,335.8563232,251.5280304,339.7871399,255.3883057,343.2584839z M245.6019592,359.5723572
		c-3.0037384,4.3540955-4.8054352-4.398407-8.1438293-4.893158
		C240.5939178,352.6558838,241.6530609,359.6872253,245.6019592,359.5723572z M240.708786,366.9121094
		c-2.0847931-4.4960938-9.2481689-7.1362305-8.1438141-12.2329102
		C234.6316681,359.1924744,241.2378998,362.3807373,240.708786,366.9121094z M237.4581299,370.9840393
		c-1.0066681,0.3536377-1.6786804,1.0419312-1.6434174,2.4465637c-3.9127197-0.9804382-4.9374847-4.8488464-8.9650726-5.7053833
		c-0.3527527-3.0742798,1.608139-3.8340149,2.446579-5.715332
		C233.4748535,363.5466003,235.3471069,367.371582,237.4581299,370.9840393z M230.9305878,378.3237915
		c-2.0404663,1.4932556-3.471344,3.5862122-4.893158,5.6972351
		C215.0409088,378.7660522,224.2085876,363.2996826,230.9305878,378.3237915z M275.7650452,322.8808289
		c18.2042236-26.3209229,40.5952148-48.9063721,59.5148621-72.5509644
		c-5.9794312,19.7056274-22.4615479,35.4804688-34.2440491,53.79953
		c-4.1605225,6.4741821-60.795578,91.5068054-79.070343,93.7498779
		C242.571991,379.5077209,259.9287415,345.7937012,275.7650452,322.8808289z M283.9269714,338.3734436
		c4.2573242-5.3788757,10.2277222-9.0265808,14.6795044-14.6704712c6.5809021-8.3916321,12.3921204-18.717041,18.7342224-27.7264404
		c12.9492798-18.3805847,21.0044556-39.6491394,36.6996765-56.2461243
		c7.8969116-8.3735504,13.822998-16.8348541,21.1898804-25.2789612
		c10.5813599-12.1189575,25.1288147-19.2552032,34.2359009-33.4227905
		c-9.3449707,19.6260376-29.5453491,31.2412109-40.7724915,50.5579224
		c-11.0317993,19.0083008-25.0230103,36.3731689-38.2978821,54.6217041
		c-6.8278198,9.380249-10.5198364,20.1470032-16.3057251,30.1459045
		c-5.6529236,9.7420349-12.3297119,18.7776489-18.7604675,27.7255554
		c-13.4874268,18.822876-28.8561401,31.2412109-47.2810364,45.6475525
		C262.4901733,375.6212463,270.4476929,355.4299011,283.9269714,338.3734436z M380.1234131,167.9998016
		c-21.197998,23.071167-52.2013245,54.824295-68.4880981,70.9174957
		c-23.0802002,28.7684021-48.4477844,57.1035461-70.1143036,88.8657532
		c-10.8463898,15.9168091-17.3033752,34.6600952-29.3418427,49.7194824
		c-12.0303192,15.0602722-26.4185944,24.8204041-42.3969116,36.6824951
		c13.919754-19.0969543,24.6955872-39.8182983,37.5028381-59.5058289c4.3640594-6.7129517,7.3316193-13.49646,11.4207153-20.3858032
		c6.607132-11.1385193,16.7914429-21.4458313,25.2708282-32.6105652
		c24.1664581-31.7802734,52.687027-61.2550812,79.0785065-92.1164093
		c17.5068665-20.4653931,38.9264526-37.0967407,57.0682678-57.0673828
		c19.6441345-21.6402893,44.0132141-35.4198532,67.6586914-49.7285309c1.3955994-0.3002853,1.5547791,0.6358414,1.6343689,1.6343765
		C423.7920227,122.9184265,401.3223267,144.8933716,380.1234131,167.9998016z M199.945343,407.6665039
		C188.7100525,409.5387573,197.6841736,393.9403076,199.945343,407.6665039L199.945343,407.6665039z M192.6055908,410.9253235
		c-2.2873993,4.6019287-3.8512268-1.6163025-6.5184937-1.6253357c0.0886383-1.5366821,2.7025452-0.5653076,2.446579-2.4465942
		C190.0350952,408.081665,190.5651093,410.2632446,192.6055908,410.9253235z M185.2739716,414.1850281
		c-0.4232788,0.6620483-0.8565216,1.3250427-0.8122101,2.4465637c-3.0381012,0.8655701-2.6320038-1.7139587-4.0719147-2.4465637
		C180.946106,411.2527466,184.2057953,413.0453796,185.2739716,414.1850281z M178.747345,418.2650757
		c-2.2168579,1.3168945-3.4894409,3.578064-7.3316193,3.2687378
		C173.6678467,420.412262,175.4523621,415.7660217,178.747345,418.2650757z M451.8630676,41.6221695
		c0.9361267-2.5967255,1.6163025-5.4412766,4.0800476-6.5184975
		C455.4483948,38.1327362,454.3973999,40.6326828,451.8630676,41.6221695z M153.4855652,223.4255676
		c-0.3617859-3.0833282,1.6072388-3.8249817,2.4375305-5.7062836c2.2258911-0.5915222,1.6434174,1.6253357,3.2597046,1.6343842
		C158.0784454,221.4999695,157.8043976,224.4847107,153.4855652,223.4255676z M180.3898468,343.2584839
		c23.1598053-38.228241,51.8124237-74.7162476,80.7047272-108.4212494
		c5.0161743-5.8564148,7.8164062-11.9416809,12.2329407-18.7523193c8.79776-13.5579681,21.8347473-26.7270203,34.2268677-39.9322357
		c18.610321-19.8467407,34.1472473-37.9894562,54.6388855-56.2642212
		c16.3319702-14.5827255,36.3822021-22.8857422,60.3098755-29.3508759
		c-15.5984497,7.7286758-31.3388977,12.3658829-44.8353577,21.2070541
		c-23.0349731,15.0865173-40.2234802,41.2482376-60.3270874,61.9524002
		c-5.6529236,5.8292999-12.4364319,9.7782135-17.1088867,15.4835815
		c-6.598114,8.055191-11.6061401,18.1164856-18.7604675,26.9042969
		c-18.9549255,23.318985-43.7753296,48.8095856-60.3361359,74.1952972
		c-5.6085968,8.6204529-11.2705688,18.2123413-17.9220276,27.7074585
		c-12.612793,18.0097351-20.7475739,35.9317627-34.2440338,55.4429321
		c-9.2472839,13.3815918-15.0684357,25.120697-28.5296326,30.9762268
		C158.5731964,388.7468567,176.3269806,349.9533386,180.3898468,343.2584839z M173.0500946,345.7141113
		c4.1334229-12.1008606,12.5684814-22.6116943,17.9301605-35.0571594
		c4.1252899-9.574707,9.4064636-18.0187988,14.6804199-26.9042969c1.6687469-2.8002319,8.752533-12.9845276,10.5904083-15.4926147
		c7.0394745-9.6190186,12.4445648-21.4196167,21.2070465-31.7893372
		c4.1596527-4.9456177,7.6400452-10.1309357,11.4116669-15.4926147c6.0943146-8.6910248,35.2335358-42.855484,45.6566315-54.629837
		c9.2563171-10.4493256,22.6379089-20.8624573,33.4137268-32.601532
		c28.2817993-30.7645645,59.9472046-55.743248,117.3953857-57.0682907
		c-30.1459045,11.8711395-60.4690857,19.3972092-83.9544983,37.503746
		c-19.2561035,14.8305511-35.3755188,34.6329651-52.1841736,52.9873199
		c-8.7000732,9.4951019-17.6117859,17.6479797-25.2698975,27.7174225
		c-7.4989319,9.8568726-14.5121765,20.032135-22.0201721,30.1721191
		c-14.8739777,20.1126556-31.8508301,38.5547333-46.4688263,58.6936188
		C200.440094,304.4206543,185.530838,324.568573,173.0500946,345.7141113z M398.8666992,110.923378
		c0-1.0862656,0-2.1734314,0-3.259697C402.0196838,107.0187912,402.0196838,111.5682602,398.8666992,110.923378z
		 M393.1604004,114.1821747c0-1.360321,0-2.7206345,0-4.0800552
		C395.6603699,108.8566666,395.6775513,115.4366684,393.1604004,114.1821747z M388.2853394,114.1821747
		c0,1.360321,0,2.7206421,0,4.0809555c-2.305481,0.1148682-2.3678894-1.9961548-2.4556274-4.0809555
		C386.6419067,114.1821747,387.4550476,114.1821747,388.2853394,114.1821747z M381.7487488,122.3350449
		c-1.0772095-1.3069534-3.4885254-3.0471497-1.6253357-4.8931656
		C381.2802429,118.6782837,383.1352844,120.965683,381.7487488,122.3350449z M148.592392,406.8533936
		c0.689209-1.2101746,2.0486145-1.7483215,4.0809631-1.6253052c-0.1067352,2.0675964-1.1929932,3.1629028-3.2687531,3.2506409
		C149.5375519,407.5426025,149.2282257,407.0388184,148.592392,406.8533936z M144.5114288,413.3809509
		c-2.0757446-0.6620789-3.7182617-4.1958313-2.446579-5.714447
		C145.6953735,406.7738037,145.9513397,411.7031555,144.5114288,413.3809509z M111.9098969,304.9506531
		c1.2988205-13.2043152,1.7311554-22.4696655,5.7062912-35.878418c6.3683548-21.4810944,17.850563-44.5875244,30.9762039-62.7646179
		c24.1311951-33.4499207,52.9873199-76.2701263,81.5259857-105.983696
		c16.1103821-16.7733459,33.8108215-29.0505905,51.3529663-41.5756569
		c12.4807434-8.8945351,25.2084045-20.4653893,39.1290588-26.9042931c7.2782593-3.3655224,16.4016113-6.553772,24.4658508-9.7772942
		C371.1764221,11.591135,410.9051514,0.2852904,447.7821045,9.8418941
		c6.8540649,1.7664251,21.8962708,9.2744102,25.2789612,13.8492069c7.0666199,9.5394211,5.7677917,28.0005074-0.8212585,36.6824913
		c-2.5171204-13.9468918-1.3865356-25.6678848-8.9560242-34.2350006
		c-8.3735657-9.4688702-18.8934326-6.2806225-34.2449646-8.1528702c-8.0904541-0.9985313-20.2528076-3.8249922-32.6096497-1.6253281
		c-11.579895,2.0495243-25.2617798,7.05756-37.5037537,11.4116669
		c-29.2984314,10.4140415-56.16745,23.9457798-79.0794067,41.5756607
		c-13.0813293,10.0603943-24.5373077,21.6131592-36.6824951,32.6105804
		c-8.1610107,7.3840714-80.5536804,96.9914856-87.2404175,106.7959137
		c-16.6584778,24.4396057-33.7321167,56.3609924-37.503746,94.5711365
		c-1.9599762,19.8829041-6.8450089,34.8979492-10.5904083,54.6126404
		C104.8261108,343.3290405,110.0195618,324.0647888,111.9098969,304.9506531z M138.8060455,367.7252197
		c10.3163605-18.22229,16.0841522-36.5585632,26.9042969-55.4429321
		c13.1780853-23.0006104,26.1707764-46.9102173,44.0222473-67.6587067
		c23.9358215-27.8051453,41.9727173-60.3180389,62.7736664-86.4191589c2.4637756-3.0733795,6.1829224-5.8202515,8.9650879-8.9560394
		c14.2209473-16.022644,31.6029968-30.2607727,48.1031799-45.6647568
		c27.3719177-14.8748779,59.1259766-34.3245468,100.2774353-37.4956055
		c5.4141235-0.4232941,9.5393982,1.3521729,14.6795044,3.259697c-28.8742371,0.3002853-59.6731567,8.6385727-82.3381958,22.8233337
		c-23.4329529,14.6541824-42.8735962,39.0937958-62.7827148,59.5148773
		c-9.7601318,9.9988861-19.0960388,21.1455383-29.3427429,31.7893219
		c-9.4507751,9.812561-21.1717834,20.0149536-29.359024,30.9761963c-7.3225708,9.830658-13.2757721,21.4458313-20.377655,31.7974548
		c-14.5031281,21.1546021-25.5439606,43.1738586-38.3249969,66.0333862
		c-14.30867,25.6407471-47.1752167,100.7368774-84.7757416,107.617157
		c-7.8788147,1.4399109-17.5864716,3.8512268-25.2708206,1.6343689
		C109.6758652,420.5,123.7991257,394.214386,138.8060455,367.7252197z M79.2911835,437.8386536
		c-0.141098-1.7664185,2.8879623-0.3798828,4.0719147-0.8302917c-0.424202,0.6629639-0.8393478,1.3340759-0.8040771,2.4556274
		c-0.8212509,0-1.6343689,0-2.4556274,0C80.236351,438.5097656,79.9270248,438.0150146,79.2911835,437.8386536z
		 M71.9595718,435.3830261c2.1734314,0,4.3459625,0,6.5184937,0c-2.5524063,0.7072754-2.4465866,4.0809631-6.5184937,3.2687378
		C71.9595718,437.5646057,71.9595718,436.4783325,71.9595718,435.3830261z M70.3261032,442.7318115
		c2.0757523,0.0976868,3.1620178,1.18396,3.2587967,3.2506714c-1.360321,0-2.7206421,0-4.0719147,0
		C69.1683807,444.2775574,70.0692291,443.8271179,70.3261032,442.7318115z M110.2673874,469.6279602
		c16.8348541,2.1897278,31.6825943,6.3764954,44.8434982,12.223877
		c-31.3913498-4.4779968-60.3713989-18.4339294-92.9376526-24.4577026
		C77.9751816,458.4451294,97.5749969,462.7467957,110.2673874,469.6279602z M53.208149,415.8275146
		c2.5171318-0.6095886,1.5719643,2.2349548,4.0719109,1.6343994c-0.0886383,2.0666809-2.7296829,1.598175-4.8850288,1.616272
		C52.0422897,417.3732605,52.9521828,416.9228516,53.208149,415.8275146z M49.1362343,425.6057129
		c1.0862656,0,2.1634865,0,3.2587967,0c0,1.0953369,0,2.1725464,0,3.2588196
		C49.5866585,429.5003662,48.5003929,428.4050598,49.1362343,425.6057129z M30.3757687,445.9824829
		c-1.9165668-0.7950439-5.167223-0.2559814-4.8850288-3.2506714
		C28.4239273,442.5020752,31.1174316,442.5201721,30.3757687,445.9824829z M27.9373245,438.6517639
		c0.8303013-3.559967,4.7348862-1.8731384,7.3316116-0.8131104
		C35.1187973,440.4091492,29.2451839,439.7199402,27.9373245,438.6517639z M31.1879807,430.4989014
		c3.3564796-0.0886536,6.6595955-0.1411133,8.1619148,1.6343689
		C38.8370628,435.3830261,30.8081036,433.4311829,31.1879807,430.4989014z M40.1621056,403.5946045
		c3.3302498,0.2026062,5.8030663,1.2626343,7.339756,3.2587891c-0.8746185,1.855072-5.1229057,0.3183899-7.339756,0.8131104
		C40.1621056,406.3062134,40.1621056,404.9549255,40.1621056,403.5946045z M46.680603,414.1850281
		c-3.2506561,0.2731323-6.0237503,0.0443115-7.3307076-1.6253357
		C40.0472412,409.6626892,46.1062698,411.9328918,46.680603,414.1850281z M45.055275,419.078186
		c0.6358414,2.1110229-8.6114349,1.3775024-8.1519661-1.616272C39.4113998,416.3837891,42.4847794,417.9295044,45.055275,419.078186
		z M33.6436081,423.9804077c2.1553459-1.5719604,7.578537-0.9451904,8.9560394,0.8040771
		c0.3717346,4.1777344-5.7587433,1.8460083-8.9560394,2.4547119
		C33.6436081,426.1438904,33.6436081,425.0576172,33.6436081,423.9804077z M18.9641018,420.7125549
		c3.3998928-8.4712524,3.3917522-19.2732849,11.4116669-22.0111084c0.2821941,0,0.5472031,0,0.812212,0
		c6.7925491,12.7719727-3.5156651,24.3781128-8.9650822,35.878418c-4.2220554,8.9117126-4.4337006,19.9968567-12.2247839,23.6355286
		C5.0787153,449.1445007,14.7067728,431.2939148,18.9641018,420.7125549z"/>
</g>
</svg>
