<?xml version="1.0" encoding="UTF-8"?>
<svg id="caviar" xmlns="http://www.w3.org/2000/svg" version="1.1" viewBox="0 0 1000 1283.9862629">
  <!-- Generator: Adobe Illustrator 30.0.0, SVG Export Plug-In . SVG Version: 2.1.1 Build 123)  -->
  <defs>
    <style>
      .st0 {
        fill: #0a1b2a;
      }
    </style>
  </defs>
  <g id="caviar1" data-name="caviar">
    <g id="outline">
      <path class="st0" d="M54.3468973,185.0687418C-9.1432628,220.280548-12.6138109,290.7101322,21.3274835,339.7082242c32.2657379,47.2466544,60.7161184,44.9927529,99.7149759,36.1698756,11.7403608-3.1300383,31.6136217-5.0328401,43.095684-14.7830123,39.5162907-33.4039952,37.5552443-107.574688,11.8410447-142.9029435-29.9008015-38.1368937-88.7475998-51.7275048-121.6322907-33.1234021ZM156.3203929,237.4929918c12.3886949-16.6525713,12.7302795,9.5123369,0,0h0ZM139.0069468,206.2705203c3.6090929,4.0605978,9.7080116,7.7720068,7.2431876,11.8367052-2.4027576-.6829305-4.5254794-.8671792-7.1231552,2.9582905-1.1406858-2.0699315-3.4781521-3.8262659-4.336294-5.3733499,2.8970202-3.3083152,3.3012288-6.2230517,4.2162616-9.4216458ZM122.5734594,198.5249087c-15.759833,8.0621547-31.1351245,16.9048981-46.7352329,13.0707495,15.2773148-10.1377793,31.1702783-15.5791276,46.7352329-13.0707495ZM159.2721543,346.2257633c-3.689632-2.9934044-6.7257545-6.0545684-9.5348704-9.8911854,9.3460035-9.8851738,25.6561939-20.6397165,21.8939055-31.0572926-17.9443825-3.2127671-2.7476466-15.9969119-2.8349935-27.0908496-13.2392327-12.9232072-46.7377012-5.1223767-43.1125642,14.7884665,5.6969396,6.6323959,11.7730064-5.5230022,18.5284604.5269481,2.0105722,7.3123007-23.5454953,12.3655244-9.3865717,24.4504558,6.6558052,4.7361631,12.8671523-10.8560626,19.52244-.0255989-9.243966,8.8416685-18.0094348,17.3994793-26.4610678,26.4803764.1641438,3.9533848,2.965377,7.7861798,7.0025654,12.6423354,7.9902945-13.5459423,8.0635083,6.0028928,0,0C63.8031395,396.8523144-.9760848,290.9863858,34.6295789,233.4601428c8.9834779,6.4655848,16.7516627-12.3385719,24.5634017-9.2572632-9.8196039,5.4370088-4.0263199,11.0280492-2.6362932,15.964545,10.6880969,2.1989215,21.0542362-14.3663029,31.9745151-6.900528,13.3366919-8.7501811,26.8238721-20.9801864,40.4155581-12.3094695-13.7838573,8.0050249-26.788997,10.148409-40.4155581,12.3094695-5.8242974,6.6016613-12.412343,12.9417595-4.7421348,19.4742678,19.5599824,6.0355384,52.1022925-30.239679,62.5209435-15.0862185-10.0961362,4.9307628-20.7270634,6.4296348-30.9914042,17.1904279,2.4446793,4.3929461,2.8268321,9.9301213,4.4410785,14.0663613,22.0746508-14.9346154,40.0933219-8.0428062,55.4013714-12.1358107,10.1192668,30.4750858,6.6389251,59.4382812-15.8889027,89.4498389Z"/>
      <path class="st0" d="M59.2975262,301.0996809c-4.7497787,27.9647967,21.2142794,41.9089758,43.6389151,19.0161541-18.1256055-9.5411606-23.7931641-24.6404374-43.6389151-19.0161541Z"/>
    </g>
  </g>
  <g id="caviar2" data-name="caviar">
    <g id="outline1" data-name="outline">
      <path class="st0" d="M589.8701711,606.5866577c-39.4871883,40.812919-89.0650187,92.6144338-46.7259965,171.3802367,18.9024916,34.0738276,73.2792683,48.1276881,105.8468986,43.5823426,50.6983715-7.2137667,108.4239121-60.1331154,113.6083155-111.6184056,9.8386737-97.9450259-90.4145171-149.6616223-172.7292175-103.3441738ZM558.7970732,769.6494668c-50.0571239-89.0407734,35.5422436-181.7510341,135.5482035-160.9433917,6.013204,10.8617556,16.4517211,11.4611213,21.0446814,25.8007503,6.0007032-1.299654,9.2766117,3.3025824,10.1026653,10.926808,96.1653618,103.9873721-109.82636,224.3050794-166.6955502,124.2158334Z"/>
      <path class="st0" d="M653.1363106,652.5061481c-.2971946-10.3059838-8.5545064-8.0980649-9.0017116-18.6400527-21.4992518,9.8955647-41.6101092,18.6751666-39.9857904,47.1557642,26.241944,4.6773611,25.9861138-22.5060507,48.9875021-28.5157115Z"/>
      <path class="st0" d="M710.462022,688.8931967c-8.7168189,3.8083108-6.4416977-11.6069915-16.369072-5.1087611-7.6977181,8.0000882-.0800216,13.2109266,3.6809133,23.606447,2.1118134.1883493,4.3319545-.7005671,4.0502865,2.4768074,7.2464123-.2963984,11.717469,5.322152,21.9701051.6592425.9210445-21.4361104,11.9041861-36.968698,1.6983686-65.0932991-4.6561017-1.1009537-7.8342724-4.4076366-10.1026653-10.926808-6.3027946.8053516-7.7439793,4.2944121-12.3894911,6.8713858,22.4426306,20.9774792-9.884298,30.8139633,7.4615549,47.5149855Z"/>
      <path class="st0" d="M652.3679442,724.1360163c-8.1192846-4.9361772-12.2182608-17.1700044-23.4986368-18.0055731-3.4652929,2.2691494-2.8646931,6.9739806-7.8014277,9.0371043,20.5896333,21.3182278,36.3214787,52.0862085,66.358078,56.3601972,2.2963806-1.9346114,5.3314281-4.9737595,4.4947447-8.9097067-12.5977065-10.5416693-29.6202084-13.2686138-34.9510394-36.2768099-2.2149656.8676967-3.3026222.1227396-4.6017188-2.2052117Z"/>
      <path class="st0" d="M697.7738632,707.3908826c-10.8111151,1.2868745-13.1504924-13.9517831-22.5988519-15.1324797-6.1274239,16.9146918-20.5310304,14.0835202-22.8070672,31.8776133,2.5013314-.3682187,4.4822438-.4646029,4.6017188,2.2052117,17.1762549,6.652262,28.2016766,26.5432392,47.5762557,28.6019835-3.9917633-13.278726-10.038449-21.7469604-18.8302333-26.6684471,8.5824941-12.528872,17.2034065,16.4367519,31.3030504,8.9608648,9.2730684-14.9280863-14.6916046-13.1303476-15.194586-27.3679392-1.4526107-.1885882-3.7933416.443662-4.0502865-2.4768074Z"/>
      <path class="st0" d="M594.7600871,733.4834132c-1.4311124-8.6432468-5.3276062-13.2563916-13.651324-9.9962485.7079322,31.6925684,26.4588781,58.6078482,50.8451176,63.6333232-9.7885905-18.8811924-24.7980587-26.4153241-32.0700633-48.038669,27.4806064,3.3118585,32.4949341,48.7915089,63.7176842,46.6938287-15.5908322-24.4624391-33.0994354-45.1146564-51.1161558-64.141719-12.9433917-.2395472-6.9356419,10.5901202-17.7252587,11.8494847Z"/>
      <path class="st0" d="M573.2213819,757.9123706c-4.7342521,9.7341281,5.4090212,28.049755,16.9862733,23.3342542,5.6005952-10.5647999-4.1621177-29.4432453-16.9862733-23.3342542Z"/>
    </g>
  </g>
  <g id="caviar3" data-name="caviar">
    <g id="outline2" data-name="outline">
      <path class="st0" d="M135.1514989,1062.366432c-71.1737053,54.719277-32.5303267,165.2892007,38.5884384,206.0482943,44.4929962,24.7971363,123.6589468,19.1761973,153.6756801-11.1576364,35.8075888-37.4662651,28.0440221-123.3375467,3.446024-158.5710901-38.6284094-53.5078059-144.9594983-75.3374951-195.7101426-36.3195677ZM256.7514227,1265.5470075c1.3257705-9.1573357,9.7031148-15.6534163,14.8015248-8.8595439-.5522286,9.0737311-8.0082496,7.9575693-14.8015248,8.8595439ZM327.2158422,1226.6235533c-13.1262869,15.1866635-25.8970947,31.8337806-49.5421591,34.6848581,8.2221581-22.2414619,56.7700988-48.2160701,31.3370496-74.9863556-8.8498299,1.5484376-13.3502677,8.9366991-13.7383923,21.5449955-9.6764409,1.628698-7.9715034-6.0954153-16.9076053-5.3630386-2.9079685,26.920535-47.7858247,47.4715111-29.1330322,65.6973227-14.9952885,5.3272877-38.2060069-4.4509518-54.9037645-7.3529087,3.6256546-11.9436793,14.7808227-13.5067676,21.2913151-21.5209492-1.1379786,8.9539774-1.9716761,17.4383355,7.5218697,17.9165541,16.2424309-13.4237999,32.0504759-27.1995356,41.7026714-49.3846241-2.2269489-5.6605119-3.8608225-11.1429061-12.8056431-12.3304105-5.2837735,3.6857703-3.2628901,17.1348905-12.0185254,15.6964129-2.4302675,4.8970025-4.8725183-.5353086,0,0,.3693335-8.8329497,1.356545-17.5545858-8.2143152-18.8512539-20.4336509,5.4492708-22.2169777,34.7972864-40.671667,43.3825275-3.7364506-24.3589684,35.9496769-40.3836689,11.043337-53.7665424-11.2460981,2.6095795-10.929555,20.0160656-23.851966,20.9129444-1.4278478-14.1309359,14.6678768-24.592504.9847432-31.1585736-13.0391788-4.5382191-13.0315747,7.620125-21.4390962,7.6661474,1.174685-8.959551,4.759015-18.9661506-4.0769604-21.1965632-7.9674426,6.0335478-15.8447913,11.0678212-20.8985723,21.0280799,11.8911676,11.5514541,21.418434,16.6782499,36.1660537,19.1544601-2.6384828,15.3697975-5.8964362,30.6068626,13.1031562,29.6983589-.9972441,8.7155847-3.2859809,19.0073956.364994,23.9087773-40.81483-23.742842-74.5098091-65.5981915-60.5266942-115.5047474,11.1360983-42.6920328,56.0852972-48.353341,88.3241224-67.4103818,94.9695766-.7163723,139.0968224,59.151358,116.889081,157.5349102ZM228.0128053,1223.1690892c.3236296-3.1796039,6.4252953-3.1629626,6.4707205,1.4648329-3.4171605-.4982837-5.6465778,4.1278398-6.4707205-1.4648329Z"/>
      <path class="st0" d="M239.2259393,1111.2401521c-10.9205576-8.1084558-24.0035293,1.4302763-18.9576707,13.9009038,13.0563376,4.5554178,16.0845773-4.7872813,18.9576707-13.9009038Z"/>
      <path class="st0" d="M272.5284146,1118.951446c-11.7915189-2.3535104-11.4534774,11.2374192-15.9324169,18.6242474-7.5477075-1.9354872,2.919912-18.5254347-4.0750096-21.1878046-11.1864601,3.4585249-18.8267697,12.8434245-21.2635663,27.9758644,8.4113832,1.8848467,16.8757957,2.6927064,18.2064631-4.5817732,9.5583195,5.0967778-6.5164642,8.0240549,1.7117055,14.7155314,14.467584,3.774232,15.2359504-9.3280484,25.7422271-11.0207637-1.6374168,8.5499679-7.4467449,9.1503288-5.6912067,20.0837456,18.6019131,3.3346308,21.6399863-16.2699408,27.4444176-30.9345928-10.2850429-14.4599401-18.4702158,4.0094397-26.1426137-13.6744546Z"/>
    </g>
  </g>
  <g id="caviar4" data-name="caviar">
    <g id="outline3" data-name="outline">
      <path class="st0" d="M964.2829235,17.6414519c-40.7743016-31.9900417-125.4817271-15.9035534-158.1533058,12.007617-49.4931907,43.6542028-60.8674826,151.6052709-17.0940835,198.3162585,61.3881404,65.5083762,167.6710969,16.2846313,201.3126488-58.4644065,20.3479761-46.6957794,7.0466768-124.9384561-26.0652595-151.8594689ZM979.4129349,87.1630499c-9.24313-.4281354-16.52386-8.1331789-10.2586079-13.8687757,9.0844404-.333702,8.6995804,7.1955329,10.2586079,13.8687757ZM895.4765831,42.8646136c2.4027974,8.6571411,10.1938342,12.4167223,22.7801147,11.5756995,2.5630794,9.4717688-5.2903026,8.5270363-3.691543,17.3493563,27.0758804.2732677,51.8981777,42.9372731,68.2214662,22.5988519,6.7619035,14.4055175-.7103608,38.4577763-1.9730695,55.3588923-12.2397592-2.445794-14.8815464-13.3957327-23.4913115-19.0951008,9.0221749.260727,17.5472604.264549,17.0989803-9.2303504-14.9411047-14.8584158-30.1903921-29.2503176-53.2097753-36.6967839-5.4168641,2.7671942-10.7142532,4.9272196-11.0250634,13.9449753,4.1825411,4.8999884,17.3711333,1.5794509,16.7916735,10.4333416,5.1103934,1.9419765-.0582446,4.9016604,0,0-8.8269381.4923915-17.602957.3590222-17.9620191,10.0106604,7.4127059,19.8060588,36.7950392,18.7238962,47.136137,36.2550727-23.8797148,6.0899611-43.6917453-31.8474361-54.586465-5.7565378,3.6921004,10.9385127,20.9851231,8.9290154,23.1358723,21.7025703-13.9247908,2.7968937-25.9039025-12.2038888-31.1065397,2.0532902-3.2473635,13.419142,8.8525371,12.2278156,9.7169692,20.5909869-9.0313714-.2969159-19.3391866-2.8899735-20.6990359,6.1212929,6.7804558,7.3422391,12.5576957,14.6918036,22.9627311,18.7521625,10.3389081-12.9594359,14.5138452-22.9404365,15.54266-37.8590078,15.5535684,1.1295385,31.0355156,2.8886199,28.2816185-15.9321382,8.7712017.143999,19.23695,1.4199253,23.759762-2.6910343-19.6566055,42.9323763-58.0328075,80.542083-109.0638061,71.483998-43.5733452-6.9268833-53.5836871-51.1115377-75.6885948-81.3419405-9.9586663-94.4486798,45.3289232-144.1947149,145.4069821-131.6702222,16.3924017,11.5852145,34.2039722,22.6747728,39.3431892,45.9301202-22.9363757-6.0178222-53.5138175-51.8064117-77.6809331-23.8881548ZM940.0341141,119.8906836c-3.1961656-.0125009-3.7733959-6.0869752.8279646-6.5825915-.1635864,3.4492886,4.6577738,5.217885-.8279646,6.5825915Z"/>
      <path class="st0" d="M827.5451055,119.6272095c-7.0067059,11.6581496,3.7603377,23.7504461,15.680329,17.5146148,3.2628502-13.4379331-6.3303045-15.5421425-15.680329-17.5146148Z"/>
      <path class="st0" d="M843.0422607,58.3827894c-13.3900396,11.6437377,5.7883872,17.9919973-11.0645566,27.3494268-1.1943122,11.9646203,12.2991583,10.3051478,20.0869305,14.0437881-1.1915652,7.7001466-18.7216668-1.102586-20.6905958,6.1182672,4.5311725,10.7967033,14.6153253,17.4871049,29.9130635,18.4391627,1.057121-8.5550638,1.0369762-17.0578548-6.3324941-17.6740608,4.1420128-10.0090679,8.6203948,5.704265,14.4790099-3.1360499,2.3477775-14.7664108-10.7670435-14.2555467-13.4744006-24.5470788,8.668567.7971902,9.8318659,6.520525,20.542337,3.7089407,1.5078694-18.8381559-18.2993439-19.9532825-33.4592937-24.3023959Z"/>
    </g>
  </g>
</svg>