<?xml version="1.0" encoding="utf-8"?>
<!-- Generator: Adobe Illustrator 27.2.0, SVG Export Plug-In . SVG Version: 6.00 Build 0)  -->
<svg version="1.1" id="champignon" xmlns="http://www.w3.org/2000/svg" xmlns:xlink="http://www.w3.org/1999/xlink" x="0px" y="0px"
	 viewBox="0 0 1000 1843.0645752" enable-background="new 0 0 1000 1843.0645752" xml:space="preserve">
<g>
	<g id="outline">
		<path d="M614.3655396,60.135994c-16.5488892-7.2781754-29.3649902-19.5245056-47.9918213-24.0102997
			C573.0352783,53.9791641,603.8842163,60.6823692,614.3655396,60.135994z"/>
		<path d="M409.4191284,65.3750763c39.3554688-1.0370941,96.1261902,3.6427689,132.9423218,18.7300262
			C517.9620972,53.9679985,456.4952698,51.9650002,409.4191284,65.3750763z"/>
		<path d="M588.9161987,98.0395203c23.7783813,10.9623947,61.9204712,2.7885513,93.1105347,3.8633423
			c-18.3049927-10.2504654-25.8572388-34.8398514-49.9085693-37.4486847
			c3.3787842,14.1503677,17.2200928,14.3798523,21.1152344,27.8438873
			C624.3132935,97.5107193,610.0366211,95.5007401,588.9161987,98.0395203z"/>
		<path d="M714.6644287,90.3847733c-9.8621826-12.1798859-14.12677-31.8117332-35.024231-29.2779579
			C687.8635864,72.8922653,706.671814,91.6078339,714.6644287,90.3847733z"/>
		<path d="M176.6279907,139.7008514c-9.582428,29.8371582-43.5795593,57.2972107-38.8983612,87.8210449
			C148.4781189,198.5780792,177.0881348,167.0881195,176.6279907,139.7008514z"/>
		<path d="M579.3131104,102.8414001C585.1032715,115.5599289,581.3163452,89.0097046,579.3131104,102.8414001
			L579.3131104,102.8414001z"/>
		<path d="M245.2502594,164.2008209c-16.7795563-0.3825073-43.0068817-9.2107086-58.0694427,1.4195557
			C200.6436157,167.6888733,233.4796906,176.243576,245.2502594,164.2008209z"/>
		<path d="M259.1763916,165.6452484C241.785965,158.5854034,252.6060333,177.8260803,259.1763916,165.6452484
			L259.1763916,165.6452484z"/>
		<path d="M767.4490967,147.997818c-36.4506226-26.0739746-109.7526855-24.3100967-157.4177246-22.1145325
			C664.0814209,131.1465149,715.755188,139.5946655,767.4490967,147.997818z"/>
		<path d="M84.9150925,313.909729C87.4301376,315.7969971,83.3064194,312.7013855,84.9150925,313.909729L84.9150925,313.909729z"/>
		<path d="M707.8860474,355.3255005c-5.3400879-46.1905518-23.8082275-74.8869324-30.6924438-119.0443268
			c-0.5147705-3.3727417-6.4851074-3.3715973-6.7192383,0.958374
			C683.5014038,263.5863342,681.6917114,337.6916199,707.8860474,355.3255005z"/>
		<path d="M80.5575714,331.6427307c0.0406876,0.0304871,0.0834122,0.062561,0.1269455,0.0952148
			c-0.0311584-0.023407-0.0588608-0.0441589-0.0923615-0.0693054
			C80.5792389,331.6589661,80.5697784,331.6518555,80.5575714,331.6427307z"/>
		<path d="M80.3694229,331.5014954c-0.0497818-0.037323-0.0867691-0.0650635-0.1123047-0.0842285
			C80.284317,331.4376831,80.3243561,331.4676819,80.3694229,331.5014954z"/>
		<path d="M80.5575714,331.6427307c-0.071373-0.0535889-0.1339722-0.1005859-0.1881485-0.1412354
			C80.4188614,331.5386353,80.4809418,331.5852356,80.5575714,331.6427307z"/>
		<path d="M900.8551636,242.0984497c5.9881592-9.1674652-9.6047363-13.7935638-16.312439-18.2337952
			C888.6752319,231.6714783,890.3243408,242.7909241,900.8551636,242.0984497z"/>
		<path d="M719.427002,267.975769c-0.5248413-3.3840027-6.4882812-3.3851013-6.720459,0.9585266
			C716.4251099,268.0553284,718.6327515,273.068634,719.427002,267.975769z"/>
		<path d="M925.803833,296.8188171c6.0792236-8.0362854-6.2313843-11.9992065-12.479248-15.3624573
			C913.2375488,292.2373962,919.4742432,294.5972595,925.803833,296.8188171z"/>
		<path d="M168.4028931,418.5610046c3.6855774,29.6045227-21.5138245,66.7176819,2.8616486,92.1442871
			C159.0299683,475.1914978,182.763855,435.7758179,168.4028931,418.5610046z"/>
		<path d="M836.5855713,367.8865051c-0.0655518-0.0491333-0.1251831-0.0939026-0.1819458-0.1365051
			c0.0360718,0.0270691,0.067749,0.0509033,0.1124878,0.0844421
			C836.5412598,367.853302,836.5617065,367.8685913,836.5855713,367.8865051z"/>
		<path d="M836.7763672,368.0297241c0.3221436,0.2416992,0.487854,0.3661194,0.5466309,0.4101257
			C837.2467651,368.3826599,837.0162354,368.2096863,836.7763672,368.0297241z"/>
		<path d="M836.2058716,367.6016235c0.0476685,0.0357666,0.1184082,0.0888672,0.1977539,0.1483765
			C836.3186035,367.6862183,836.24823,367.6333923,836.2058716,367.6016235z"/>
		<path d="M279.2532654,498.73349c-16.8454285-3.9290161-81.177536-15.1618958-105.5892792,4.7807617
			C199.0509186,507.9690247,239.2564392,497.2830505,279.2532654,498.73349z"/>
		<path d="M511.0775146,489.6606445C509.4710693,488.4675598,513.5946655,491.5617371,511.0775146,489.6606445
			L511.0775146,489.6606445z"/>
		<path d="M124.2032928,613.4163208C126.7184906,615.3034668,122.5926743,612.1942139,124.2032928,613.4163208
			L124.2032928,613.4163208z"/>
		<path d="M152.5237885,619.6565552c5.3762207-6.8060913-2.3517914-10.2800903-8.642807-12.4790649
			C144.0363464,614.96698,146.4968872,619.6939697,152.5237885,619.6565552z"/>
		<path d="M455.8571777,607.2471924c3.1517334,10.3612061-4.3646851,12.7164917-0.0085144,23.9938354
			C468.9723816,629.8583984,464.7336121,610.0134888,455.8571777,607.2471924z"/>
		<path d="M403.5327454,624.991272c-14.3563843,11.2267456-10.2314148,36.3330078-12.490387,56.6296387
			C409.9074097,673.7834473,397.6897278,642.605835,403.5327454,624.991272z"/>
		<path d="M416.0026855,688.3557739c-18.5769348,4.378418-58.2791443-14.3688354-82.5480652-1.9391479
			C359.9356079,685.5840454,401.1560669,709.0536499,416.0026855,688.3557739z"/>
		<path d="M549.4360352,662.4611816C551.9511108,664.3483276,547.8272705,661.2529297,549.4360352,662.4611816
			L549.4360352,662.4611816z"/>
		<path d="M401.5647278,851.5274048c3.6517334-17.2317505,19.8006897-44.6436768-0.4681396-51.3493042
			c-0.4582214,37.6713867-20.2130737,76.8132324-11.5438232,111.3429565
			C392.3920898,894.850647,397.1937866,872.1815186,401.5647278,851.5274048z"/>
		<path d="M323.7987671,931.1932373c-2.5030212,1.1243896-6.6178589,1.0281982-6.2414246,4.3082886
			C320.0548706,934.3779297,324.1677246,934.4602051,323.7987671,931.1932373z"/>
		<path d="M185.5611267,971.4721069c-8.7005615,13.4740601-16.9794769,27.2647705-17.2911224,47.0334473
			C186.5745087,1014.1786499,191.6634216,984.1321411,185.5611267,971.4721069z"/>
		<path d="M209.0725708,992.1113281c15.2051239-4.5960083,26.2802277-12.2711792,30.7227936-24.9440308
			C229.1495056,975.171936,209.1118164,976.1480713,209.0725708,992.1113281z"/>
		<path d="M171.1346283,1086.6568604C169.5247498,1085.4499512,173.6483765,1088.5441895,171.1346283,1086.6568604
			L171.1346283,1086.6568604z"/>
		<path d="M402.9589233,1077.5841064C408.7427063,1090.317627,404.9540405,1063.755127,402.9589233,1077.5841064
			L402.9589233,1077.5841064z"/>
		<path d="M173.9884949,1202.80896c-6.2428131,1.6578369-7.9494324-2.7297363-13.9179535-1.4455566
			c-1.4582977,36.7681885-14.8454742,86.7753906-4.3437042,113.746582
			C160.6322021,1276.7902832,161.5380402,1235.4683838,173.9884949,1202.80896z"/>
		<path d="M150.9245605,1329.5080566C149.3144836,1328.2999268,153.4383087,1331.3953857,150.9245605,1329.5080566
			L150.9245605,1329.5080566z"/>
		<path d="M500.3025513,1471.6577148c-33.6545105-6.8046875-72.8493042,1.7147217-110.3921509-4.8292236
			C414.2865906,1480.425293,475.4588318,1485.0632324,500.3025513,1471.6577148z"/>
		<path d="M474.3626404,1554.1983643c-7.7748413-17.8339844,13.2088013-14.0889893,9.6062012-28.7937012
			c-12.6762085-6.5753174-21.4776001,10.4984131-28.3165894,17.7506104
			c-14.8222961-1.5681152-35.7570496,5.0015869-45.1171875-3.8459473
			c6.4023132-7.1898193,18.2771606-10.2932129,21.1177979-20.1557617
			c14.4611206,3.3920898,31.4660034,3.3939209,51.358429-0.4622803c2.9048767-21.532959-16.2399902-6.1784668-24.9512329-6.7208252
			c-23.6843872-1.5045166-57.0193176-9.6940918-75.8389587-2.9088135c9.140564,6.4798584,26.649292,1.8054199,35.5157776,8.6601562
			c-11.7219543,14.3927002-23.8652649,29.8927002-51.3600159,24.4552002
			c4.4945679,10.0012207,20.9338989,4.0865479,23.0336914,17.2906494c9.741272-14.977417,39.7215576-3.8103027,54.711853-0.9561768
			c-1.0325012,5.2266846-3.7594299,9.1855469-4.8024597,14.3967285
			C457.2706604,1571.3823242,452.9152832,1553.1140137,474.3626404,1554.1983643z"/>
		<path d="M108.1432877,1630.4406738c13.9485779,5.0406494,30.2001724,7.6334229,37.9167557,1.4393311
			c-7.2232056-14.8430176-27.1851807-1.1569824-42.719696-11.0506592
			c5.2860947-8.217041-2.0655289-23.8231201-10.5526123-25.9182129
			c-3.9892883,26.0695801,10.0631561,60.6802979,21.585495,79.208252c6.0542297-14.7156982,33.994812-0.19104,47.9912109,0.0023193
			C155.9578857,1644.0141602,104.4302826,1674.0449219,108.1432877,1630.4406738z"/>
		<path d="M166.1982727,1701.0009766c25.8372345-11.6231689,39.8648682-32.0916748,69.6072235-40.7835693
			c-39.7803345-27.4135742-60.2776031,58.8566895-108.0039902,35.9777832
			c0.9888077,28.010376,36.0285721,10.6390381,50.8761978,20.1696777
			C180.457077,1703.3186035,165.3140717,1712.8431396,166.1982727,1701.0009766z"/>
		<path d="M286.1964111,1653.0301514c-42.3823853,11.357666-71.2291412,58.4511719-104.1650085,86.8477783
			C221.5224457,1714.506958,257.7264709,1686.6757812,286.1964111,1653.0301514z"/>
		<path d="M212.14328,799.4052124c-0.0198975-0.0149536-0.0341339-0.0256348-0.0411987-0.0309448
			C212.1092377,799.3796387,212.1252441,799.3916626,212.14328,799.4052124z"/>
		<path d="M718.0396729,41.9180908C555.9622803-31.8830509,300.0986633-7.5391946,172.3147583,109.4604797
			C89.977623,184.8549347,6.9983087,313.0963135,0.4131012,442.5215454
			c-2.8406713,55.880188,9.0017605,136.1590576,34.5130615,193.9080811
			c11.6755028,26.4297485,48.372963,65.2596436,70.0566254,82.5742188
			c22.2894363,17.7875366,69.5190125,25.2504883,79.6607361,53.7669678
			c9.8138275,27.5866089-9.0541382,93.4813843-16.3461761,125.739563
			c-26.6563568,118.0462646-63.704155,235.258667-87.4289398,348.4359131
			c-33.8171425,161.3341064-87.2985077,344.6098633,17.1680984,504.9118652
			c78.1560745,100.7244873,287.4174194,149.7124023,380.6090698-23.4312744
			c34.8978271-64.8361816,65.6032715-128.5092773,75.4006958-216.4354248
			c12.9475708-116.1739502,24.453064-232.90979,36.0737305-347.9598389
			c6.1498413-60.9002686,68.1964722-314.293396,95.1087646-342.668457
			c54.4225464-57.4075928,175.3900146-63.7674561,244.3186035-113.7023926
			c84.8517456-61.4692383,80.2563477-203.5693665,52.3950806-329.7132263
			C945.1984863,211.6279297,845.4749146,99.9320221,718.0396729,41.9180908z M44.0503273,628.2794189
			C46.0449066,614.4364014,49.8315735,640.9851074,44.0503273,628.2794189L44.0503273,628.2794189z M62.2809944,659.9526367
			C64.7961655,661.8399048,60.6711235,658.7459717,62.2809944,659.9526367L62.2809944,659.9526367z M63.2583046,594.6842041
			c18.25037-12.9248657,60.1775322-5.8635864,66.7145844-12.9463501
			c-27.5039749-4.6152344-44.3636246-6.3383179-71.9956131-0.0261841
			c6.3082504-18.4623413-0.8562813-29.8690796-10.0715065-46.5487671
			c36.6954918,6.8600464,60.1469917-12.6799316,100.7969055-14.37677
			c-6.9836731-5.3508911-20.8984604-1.4828491-28.3157349-6.2562866
			c-2.1268768-49.5779114-1.9847794-97.4864502,7.7090149-138.2192383
			c-17.7626648,43.4325256-22.2744293,97.9614258-13.9496994,142.5415649
			c-7.8389893,1.118042-15.67939,2.2363281-23.5197601,3.3546143
			C57.129734,473.2802734,80.538002,394.6580811,81.0719528,335.0324097
			c-9.6980896,57.0410156-27.8540306,139.2794495-4.3648987,185.7275391
			c-2.2511826,6.3196411-9.4399567,8.921936-19.1980972,9.6011963
			c-24.9657974-54.2585144-10.3346252-102.5302429-4.2823219-150.2206421
			c-31.7371197,17.1927185-6.8271141,76.8841248-22.5827999,106.0684509
			c-3.3640919-52.5270996-10.468996-107.8686218,14.4260616-139.192688
			c0.2855377,12.220459-6.3913803,19.1994324-1.9262123,34.5623474
			C58.2297249,232.4295654,192.1320648,80.9251633,347.0353088,36.5552979
			C649.5751953-50.1177979,903.96521,117.9390793,965.6202393,383.7077637
			c-7.296814-5.7814331-16.2046509-7.0631714-12.4810181,8.6290283
			c-33.9116211-2.7934875-58.9829712-17.3522034-92.1495361-21.1302795
			c-1.1500244-25.4743042-7.159668-43.3083801-16.784668-69.6119385c10.0745239-6.2352295,29.3104858,4.914093,42.2420654,7.7021179
			c1.6287231,13.8137817,3.2642822,27.6267395,8.6273804,36.4737244
			c-12.7789307-0.2981262-22.2589111-4.9993591-35.0343018-5.2838745
			c13.8383179,10.8594971,37.2334595,9.0151978,42.2299805,31.6809387
			c10.5853271,1.9363403,4.8866577-8.327179,4.8024292-14.3966064c18.1033325,1.1985168,30.5379028,9.9419861,43.6702271,17.763916
			c10.2702637-16.6002808-10.819519-18.1530151-20.1558838-21.1177979
			c-1.5981445-9.9828491,7.4529419-18.4570923,0.0098267-23.9940491
			c-8.6831665-1.1747437-12.1843872,16.3841248-4.324646,17.7465515
			c-20.7368774,16.8648071-27.1122437-19.7629089-32.6283569-36.4826355
			c10.6339722-0.846344,11.0021362,12.0033569,24.951416,6.722168
			c-28.192688-23.9194946-35.7137451-44.8717041-39.8141479-86.8737335
			c-19.3851929-3.485199-31.9830322-16.0142517-56.6309204-12.4986725
			c2.8666992-10.5071259-4.1159668-21.0332184-8.1546021-33.1091156c8.012207-0.0127716,14.4585571,2.0529633,21.1149902,3.8371582
			c-15.7312012-19.4889221-59.0136719-20.8487854-95.9847412-24.0138702
			c-44.9587402-3.8684692-90.026001-1.0679779-135.3435059-11.5513763
			c58.1809082,22.4306793,137.1521606,17.1372681,203.0144653,29.3226471
			c5.0275879,9.2843018,10.2874146,18.285202,11.5100708,32.6319733
			c-15.9658203-1.3783264-27.5339966-8.5996857-45.5936279-7.1960297
			c-0.038208-7.9452362-2.3736572-12.8291931-5.7529907-16.3218079c-4.1710815,1.3622894-2.9729614,10.6487885,1.4370117,10.0746155
			c-38.8798828,11.5158234-68.5594482-10.3629303-104.1509399-9.1374817
			c12.513916,11.2999725,35.2837524,8.9447479,53.2734985,12.9634399
			c-0.7785034,13.0272064,6.3918457,15.4788513,7.1958008,26.397049
			c-21.1968994-2.4017029-38.8225098-9.5545197-62.8751221-8.161911
			c18.0214233,9.2875366,45.220459,6.3834381,63.8344727,14.8878632
			c4.5487061,36.5819855,12.9666748,64.1581573,16.2936401,114.2367096
			c18.1104126-11.4137268-0.8390503-50.6287231-0.4673462-75.3574524
			c18.6571655-2.2001038,31.5336304,3.2857666,45.5952759,7.2083435
			c5.0090942,32.8620605,14.079834,69.4680176,16.7832031,93.6048279
			c21.4100952-18.9831848-6.4743652-65.976593-9.5842285-91.1994324c17.9281616-2.571228,28.4244995,4.7621155,42.2330322,7.6878662
			c0.0725098,17.2304688,9.0415039,22.6060486,9.1141357,39.8365173
			c-10.5718994-0.5708008-18.5239258-4.639679-28.3171387-6.2561035
			c6.2133789,11.7250061,24.6792603,7.109436,33.1116943,15.8671875
			c-3.8818359,13.707489,6.1998291,19.2573853-6.7207642,24.9512634
			c33.3554077,22.1782837,132.6273804,8.2550049,131.0078735,77.2974243
			c-14.1503906-19.7973022-50.6463013-9.8076782-59.9845581-36.0115662
			c-4.074707,22.0903625-27.0357666-3.9833984-47.5219727,3.3460999c-4.6594849-3.8259888-2.057251-5.0910339-1.4369507-10.0746155
			c-6.9855957,3.1017456-15.2418823,10.0543823-30.7132568,0.9484558
			c2.2654419,10.3063354,13.4104614,8.7871094,22.0755615,10.5631104
			c-1.0917358,11.1759033-1.4291382,22.9413757-5.7695312,31.6797791c-9.5953979,0.7965393-14.8765259-4.156311-24.473877-3.3736267
			c-7.0123291,4.5293579,9.9213257,10.3865662,18.234436,7.6943054c2.640564,12.9864502-4.7351685,18.4459839-6.2424316,28.3150635
			c-13.0663452,4.0814819-14.7748413-6.9605713-27.8430786-2.8929138
			c-0.036377-17.0262146,4.9642944-30.2790222,11.053833-42.6976929
			c-16.6506958,6.1963806-8.7496948,44.4758606-28.8063354,38.3809204
			c8.5198364,36.1138611-26.5228882,63.5840454-34.0975952,97.4172974
			c-5.2906494,1.7299194-6.2418823-2.3464966-10.562561-1.9256592c10.020752,14.9472046-18.187561,38.541748-22.0917358,61.4439087
			c-9.9208984,3.8843994-12.7339478-1.6987915-20.6370239-0.4872437
			c16.4542236-45.6589966,39.9163818-86.0548706,56.6680908-131.4905701
			c10.3377075-3.1203613,13.8134155,2.9109497,21.116272,3.8369751c-1.9602051-9.387146-16.5673218-1.9194336-15.8363037-14.8850403
			c10.3731079-25.2206116,15.9433594-54.0400696,22.5762939-82.0609436
			c-23.1557617,78.6285095-59.5344849,147.3413391-92.2027588,218.8319397
			c-12.493103,1.991333-21.7362671-0.3599854-31.1908569-2.4000244
			c15.8207397-20.1255493,9.9360962-56.5450439,38.4090576-67.1893311
			c-8.0869141-39.187561,18.5457764-65.4736328,19.6984863-102.2263794
			c-10.5957642,13.0472717-12.5974121,32.5552368-16.8114624,50.3971252
			c-19.9335327-5.4279175-39.6062622-11.1869202-66.232605-7.6970215c-0.6394653-4.483551-1.2771606-8.9546509-1.916687-13.4382019
			c-7.0975952,17.332489-25.9804077,7.3879089-43.6731567,6.229126c1.3912354-7.9537964,11.7542725-9.1817627,11.043396-18.7189331
			c-17.3181152,21.8175964-57.0591431,19.9540405-90.2357788,16.3024597
			c11.7503052,14.9929199,45.6012573,0.5401001,62.8701172,8.1765747
			c-3.2268677,10.5726318-13.5772705,15.8014526-16.8035278,26.3893738
			c17.9025879-1.5780029,15.5149536-18.3673096,27.3660889-24.4651489
			c15.8859253-1.1920471,27.4362183,3.4106445,41.7515259,4.3118591
			c-3.7344971,12.2078247-5.6647339,25.7633972-8.1658936,38.8830872
			c-10.7157593,2.2817993-15.0639648-3.9046631-27.3574219,0.4712524c6.3345337,4.8983154,18.8181763,1.5703125,24.953186,6.7345581
			c-2.8436279,24.8591919-13.7754517,43.6592407-13.9324341,70.532959
			c21.2247314-14.0742798,13.5214233-49.8436279,24.0151978-71.9710693
			c15.0362549,5.276123,35.6292114,3.1484985,52.3126221,6.2362671
			c-2.7943726,30.9194946-22.1967163,49.3662109-30.2576294,76.3216553
			c11.3486328,2.2041016,23.1117554,3.8461304,35.0410767,5.282959
			c-0.6392822,10.5253296-5.0151978,18.2359009-17.7609253,19.677063c-7.732605-5.9005127,0.5435181-6.8011475,1.4384766-13.9182129
			c-8.6873779,12.0498657-24.9543457,6.4614868-40.3148804,5.7501221
			c4.2224731,7.6984253,14.7665405,6.9619141,24.9500732,6.7223511
			c2.2845459,11.7119141-9.7704468,12.6653442-10.5640869,22.0686646
			c-13.0244141,0.0292358-20.1228027-7.8296509-35.0328369-5.2842407
			c4.2825317-11.7841187,14.3828125-19.2091675,15.8442383-33.1152954
			c-4.3731079-5.0403442-8.9671021,10.0391846-20.1574097,2.875061c2.0604858,3.932312,5.2835693,6.2905273,11.0407715,5.2880859
			c1.418396,11.0681152-13.2146606,10.0871582-10.564209,22.0673218
			c-15.7320557-1.6900024-29.9815674-5.3623657-48.479248-3.3649292c9.9806519,6.6943359,24.1206055,7.8440552,38.8762207,8.166687
			c2.3425903,14.7590942-13.8414917,15.6156006-12.9672241,29.2729492
			c-10.5715332-0.569397-18.5167236-4.6392822-28.3148804-6.2410278
			c-2.2787476-9.7183838,6.1282959-11.4065552,3.8428345-21.1239624c-3.1963501,5.6040649-8.5280151,9.5999756-7.6795044,18.2391357
			c-10.2983398,2.0268555-20.1257324-5.2192993-26.8766479,3.8334351
			c-1.8049927,13.062561,9.7060547,8.3948364,9.5952759,19.2059937
			c-11.9491577,11.0366211-18.4936523,26.12854-32.6461487,35.5132446
			c-54.23703,2.9643555-99.4536438-6.0829468-154.5436096-1.9640503
			c-5.3699036-8.8460083-7.0054321-22.6588135-8.6343994-36.4741211c-11.4638977,3.3933105-1.796936,22.6593018-1.9281921,34.548645
			c-47.47229-10.1494141-32.6907043-58.6378784-54.6911011-95.0328369
			c-6.9996033,5.7418213,2.0768433,23.557251,1.4286804,34.0698853c-7.904541,1.2103271-10.716156-4.3716431-20.6366577-0.4746704
			c-9.5944824-17.8807373-20.4581757-34.0471191-22.5442047-61.9262085
			c-15.0928802,13.4934082,6.7327271,43.3411865,11.5102386,56.637085
			c-0.3764954,7.7261353-16.3684998,3.7304077-23.0412445,6.7185669
			c-8.923996-21.4366455-19.7791901-40.282959-26.3881073-64.8114624c-5.464035,1.2542725-2.2388458,23.866394,3.3558197,23.5279541
			c-4.1334076,12.8789673-25.8740997-4.8745117-26.8778992,3.8336182
			c-10.7947693-10.9436035-14.3687286-31.4975586-20.627655-48.487854
			c-7.5978394,14.3076172,12.0707703,26.4423218,10.0734406,46.562439
			c-6.7191925,0.958374-13.4396362,1.9169312-20.165741,2.8762817c-9.7701263-5.6225586-9.2952881-24.9267578-18.229248-31.6734619
			c-1.0675964,7.7684937,6.6224823,15.7663574,7.6768188,29.760498c-8.9616241,1.2781982-17.9231949,2.5563965-26.8778992,3.8336182
			c-7.383316-19.4932861-18.3123627-34.2561646-27.8264542-50.8932495
			c-3.4025269,15.3143311,19.5210953,29.871521,21.1072617,51.8516235
			C71.7344513,649.4111938,82.8064651,609.9744263,63.2583046,594.6842041z M835.1013794,261.7719421
			c13.3751221,6.1540833,26.7468872,12.3240356,43.1889038,14.4005127c0.7994995,5.6047668,1.597168,11.197113,2.3945923,16.7881775
			c-17.1737061,4.234375-20.8912354-9.4627991-38.3946533-4.7906189
			C842.890686,275.3621521,834.4966431,274.5509949,835.1013794,261.7719421z M826.9445801,228.6477203
			c18.1484985-0.1893768,31.2303467,6.3424377,46.0731812,10.5583954
			c0.9594116,6.7259674,1.9187012,13.4520721,2.8760376,20.1643677c-14.727478-1.6928406-26.6607666-7.1192322-42.2315674-7.6882324
			C834.6939087,239.650528,826.8172607,239.4908142,826.9445801,228.6477203z M785.6674805,251.664978
			c15.6610107,1.7830505,31.1478882,3.8144226,42.7147217,11.0653381
			c2.5315552,4.6044312-1.4550171,17.9219971,5.7497559,16.3083191
			c-10.5332642,8.5479431-34.0026245,0.1359253-45.1087036-3.8456726
			C794.1544189,268.7282104,784.4306641,264.3668518,785.6674805,251.664978z M780.388916,238.7202301
			c-0.9595947-6.7275238-1.9188232-13.4534912-2.8762207-20.1657715
			c14.0865479-0.1117554,23.1032104,6.5246582,38.3966675,4.8044434c4.1595459,7.7901917,9.9052124,13.4569702,10.553894,25.9179535
			C811.867981,244.7473602,793.9414673,244.6394501,780.388916,238.7202301z M732.8737183,242.0651703
			c18.0527954-1.4026642,29.6277466,5.8175964,45.5878296,7.1954193c0.9839478,9.7358398,4.9783936,21.7492676,0.4788818,27.3705139
			c-13.9173584-0.1217957-21.4213257-8.7744141-38.3967285-4.8043213
			C740.4868164,258.5686951,732.2092285,256.2764282,732.8737183,242.0651703z M731.9143066,235.3392334
			c-0.8040771-10.9196167-7.9742432-13.3698578-7.1957397-26.3984833
			c15.9370728,1.4231567,28.8136597,6.9104309,45.595459,7.2097168c1.1173096,7.8334808,2.2365723,15.6808014,3.355896,23.5281067
			C759.7567139,238.2167206,745.9269409,236.6602478,731.9143066,235.3392334z M875.8426514,499.3462219
			c26.0830078,3.8959656,45.1082764,17.1948547,71.5061035,20.6565857
			c4.354187,11.2634888-3.1601562,13.6325684-0.0028687,23.993042
			c-13.3087769-2.2591553-23.6263428-8.4880981-24.4710083-27.3665161
			c-4.3432007,25.7841797-28.5593872,7.100769-47.0421753,6.7096558
			C875.7826538,515.312439,879.3463745,509.9777832,875.8426514,499.3462219z M860.4682007,559.8180542
			c20.3547974-1.7872314,29.6292114,11.1595459,46.5527344,13.9205933
			c3.234314,13.4331055-6.9649658,16.7852783-10.0825806,25.4448242
			c-12.809082-2.9151611-27.3615723-3.5183105-38.8760986-8.1668091
			C857.5934448,579.6599121,865.6698608,574.727356,860.4682007,559.8180542z M842.6948242,651.4888306
			c-8.9992065,12.5540161-30.3392334,10.0742798-40.8029175,2.3876953
			c-3.1291504-10.3505249,9.2301025-9.0718994,3.8450317-21.1090088
			c30.8919067,6.8080444,60.9937744,14.678894,89.2654419,24.9723511
			c-8.9353027,23.5651245-34.3873901,20.3183594-53.2750854,11.02948
			C839.1998901,660.8727417,846.8255615,660.5946045,842.6948242,651.4888306z M735.1692505,714.824707
			c-10.3707886,1.8136597-16.6370239-1.8265991-24.4805908-3.3725586
			c1.8638306-14.0197754,19.9567261-0.3208008,29.2828369-11.0254517
			C743.7243652,709.2376709,734.2556763,708.1329346,735.1692505,714.824707z M707.3233032,735.9248047
			c-2.2634277-6.3306885,14.6047363-7.0907593,10.5611572,1.9257202c-2.2409668,0.3196411-4.4835205,0.6394653-6.7190552,0.958313
			C711.3735962,735.8641968,709.4002075,735.8238525,707.3233032,735.9248047z M689.1035767,656.2518921
			c6.3375244-7.2509155,4.2580566-20.8051147,21.123291-20.1566772
			C709.5828247,647.6121216,704.1907959,655.5786133,689.1035767,656.2518921z M654.0594482,674.9620361
			c-2.2763672-11.7131348,9.7788086-12.6652222,10.5655518-22.0675659
			c6.9649048,5.366394,18.0598145,5.2496948,28.3204956,6.2401733
			C696.9056396,680.8885498,667.0118408,681.512207,654.0594482,674.9620361z M828.807251,506.0549622
			c-10.375061,3.153717-12.7285156-4.3501892-24.0009155-0.0087891c3.897583,5.4707031,12.647583,4.4728088,18.2410278,7.6932678
			c-8.9194336,22.3062744-20.5321655,42.598999-32.1765137,62.8681641
			c-9.597229,0.7828369-14.8782959-4.1687012-24.4735718-3.3720703
			c21.0146484-27.8262939,21.2003784-103.5411072,66.7344971-84.927124
			C837.1074219,498.2864685,824.824585,496.0764465,828.807251,506.0549622z M868.6150513,616.9363403
			c-3.0744019,7.6920166-11.2473145,11.5632935-10.5623169,22.0810547
			c-18.0361938-5.2811279-37.270752-8.9818115-56.6306152-12.4972534
			c10.1195679-14.2766724,12.9777832-40.1554565,36.0016479-35.9905396
			c0.6395264,4.4835815,1.2790527,8.9672241,1.9168091,13.4384155c20.1656494-11.9711304,32.4246826,2.6849976,51.8378906,2.8997803
			c3.3404541,17.2113647-4.4144897,38.3901978-25.9287109,34.5411987
			C867.9091187,634.0402222,879.4025269,625.3848267,868.6150513,616.9363403z M755.8236084,643.3035278
			c8.6662598-21.4902954,30.8198853-32.8664551,36.484375-56.619873
			c11.2705078-4.3552246,13.6326904,3.1602173,23.9988403-0.0063477
			C799.0604858,614.1207275,783.5534058,627.4089966,755.8236084,643.3035278z M801.9110107,581.8817749
			c0.3059082-19.6132202,15.9078979-42.9866333,36.9624634-29.2646484
			C829.9974365,564.9595947,827.5548706,582.1158447,801.9110107,581.8817749z M784.6314697,580.9297485
			c-10.5556641,21.3970947-25.9924316,54.0495605-50.4105225,55.175354
			c4.9916992-22.2633057,21.5228271-35.8508911,25.9369507-58.5476074
			C772.1259766,573.5905151,774.079834,582.9926758,784.6314697,580.9297485z M749.5772705,647.6264648
			c4.1600952,11.1239624-13.0351562,6.2106323-7.6793823,18.2391357
			c-13.7581787-0.3256836-24.2121582-5.0565186-35.5141602-8.647644c2.7084351-4.9751587,8.137207-7.8969116,8.1593628-14.8753662
			C727.5181274,641.6218262,736.138916,641.3831177,749.5772705,647.6264648z M700.6223145,664.8900146
			c14.5282593-3.3695068,18.6437988,7.1467285,31.6722412,5.776062
			c-1.1553345,8.1295776-9.8781738,10.5881348-11.0437622,18.7050171
			c-7.2943115-0.9258423-10.7771606-6.9575195-21.1148071-3.8371582
			C698.5093994,677.3120728,697.3203735,669.4199219,700.6223145,664.8900146z M728.4497681,691.7763672
			c1.163269-8.132019,9.8864746-10.5891724,11.0418091-18.71875c2.8119507,0.2539062,3.8314209,2.8983765,7.2001343,2.4038086
			c0.3198242,2.2425537,0.6396484,4.4849243,0.9593506,6.7261353
			C737.6899414,682.7158813,738.4108276,691.24823,728.4497681,691.7763672z M757.2528687,677.3872681
			c8.7562256,3.8838501-2.9197998,17.5744019-11.0418091,18.71875
			C743.7587891,685.2683716,758.2299194,687.1240845,757.2528687,677.3872681z M745.734314,668.7491455
			c6.6307373-17.0284424,12.5134888-18.9144897,32.1636963-14.8811035
			c4.4060669,10.3074341-3.8088379,11.1446533-4.322937,17.7589722
			C759.9404907,676.473999,756.770874,667.3563232,745.734314,668.7491455z M765.4205933,638.5178833
			c15.6262207,6.3768921,23.2929077-4.8570557,36.4811401-8.635376
			C802.1646118,647.2262573,772.2684937,656.7904053,765.4205933,638.5178833z M890.2098389,648.1424561
			c9.9411011-9.3685913,15.9608765-34.8887939,33.6036377-28.7995605
			c-1.3005981,13.0327759-15.4746704,16.3938599-16.3307495,29.7539673
			C899.5856934,651.6314697,899.3085938,644.0127563,890.2098389,648.1424561z M833.588623,587.6445923
			c-3.5921021-8.9450684,5.6812744-30.8295898,22.5634155-34.0738525
			C854.9789429,569.6957397,853.9462891,585.927124,833.588623,587.6445923z M820.1547852,541.5753784
			c4.1696167-7.8764648,7.5353394-16.3634644,10.0914307-25.4320068c9.5933838-0.8103027,14.8762817,4.1549683,24.4716187,3.3583984
			c1.0150757,11.7678833-10.0612183,14.4495239-10.0825806,25.4447021
			C832.6584473,548.9007568,830.7120361,539.5115967,820.1547852,541.5753784z M836.4857178,511.8226929
			c-2.2855225-9.7174072,6.1195068-11.4194031,3.8428955-21.124115c10.5516357-2.0629578,12.4980469,7.3261719,24.4716187,3.3583984
			c1.6107788,10.2185364-5.230957,14.0825195-7.1976318,21.6166077
			C847.8909912,517.9512939,846.1901855,509.5446472,836.4857178,511.8226929z M846.0903931,483.0279236
			c-2.5738525-11.9362488,8.3349609-13.7423401,6.7220459-24.951416c7.9961548,1.3429871,17.5894775,0.5326538,24.4785767,3.3574219
			c-1.4506836,10.9067383-6.6013794,19.0482178-9.6046143,28.7947693
			C861.770752,486.1196289,853.581543,485.0289612,846.0903931,483.0279236z M690.09021,542.9828491
			c-15.2315063-6.3502808-41.0489502,1.3910522-55.6781006-5.7703857
			c-1.0326538-14.7786865,5.6118164-23.7880249,4.8101807-38.4044189
			c22.0349731,3.9716187,42.3721313,10.179718,63.8297729,14.9025879
			C700.2624512,524.6115112,694.1376953,533.0183716,690.09021,542.9828491z M583.012146,753.6554565
			c-8.9707642,10.555542-16.3377686,5.5529175-30.2404175,4.3132324
			c5.8256226-11.6277466,15.1099854-20.6652222,19.2099609-33.5814209
			C588.8143921,724.8464966,571.5247192,746.0740356,583.012146,753.6554565z M593.1063843,704.2304077
			c5.5740967,4.5625,10.1287842,10.4820557,18.7105713,11.0443726c-4.128418,17.1605835-20.692688-6.7996826-30.2401733,4.3131714
			C574.3396606,706.1551514,600.3435059,717.6644897,593.1063843,704.2304077z M611.8056641,763.2616577
			c-9.9240112,3.9116211-10.710144-4.3880615-20.6353149-0.4748535c3.0894775-11.6843262,12.5603027-18.586731,16.3240967-29.751709
			C617.0941772,737.5518799,605.2376099,751.0995483,611.8056641,763.2616577z M592.6169434,724.8621216
			c2.9533081,1.3918457,5.9558716,2.7358398,10.562561,1.9241943c0.0519409,8.0415649-9.3313599,9.0032959-11.5284424,15.3573608
			C582.09552,740.3807983,593.3964844,729.883667,592.6169434,724.8621216z M590.6713257,831.4178467
			c3.0646973,10.2344971-6.7290039,13.2070312-12.480896,8.6290283
			C578.1621704,834.0256958,582.8809204,831.5661621,590.6713257,831.4178467z M567.1390991,906.7661743
			c-16.479248-1.4990845-1.5067139-21.4615479,8.6444092-11.513855
			C576.3123169,901.6503906,565.0073853,899.1616821,567.1390991,906.7661743z M562.336731,921.1629639
			c0.0673218-4.9471436,9.8600464-2.6052856,9.1220093-8.1640625
			C582.1826172,915.8080444,565.9385376,927.791748,562.336731,921.1629639z M521.0610962,920.1871948
			c-3.6885376-18.7653198,19.0550537-17.6985474,30.7215576-24.9423218
			c-3.5645142,7.3291626-4.1222534,16.9081421-6.7207642,24.9511719
			C537.0213623,920.2550049,531.6934814,916.6904907,521.0610962,920.1871948z M559.9277954,976.3545532
			c-6.4394531,9.177002,1.1143188,28.8414307-20.1673584,26.8692017c3.0950317-8.6703491,1.4221802-20.930603,6.2495117-28.3146973
			C552.8265381,972.4862671,555.2322388,975.9506836,559.9277954,976.3545532z M513.8643188,917.7969971
			c-12.153595,2.8635254-19.2009583-1.0701904-27.8373718-2.8922729c-1.9864807-15.4944458,6.4395142-23.168457,8.6453552-35.520874
			c10.5516663-2.0629883,12.506958,7.3389893,24.4736938,3.3721924
			C522.8079834,898.4992065,510.2001343,902.0401611,513.8643188,917.7969971z M515.3012695,927.871582
			c5.961792-1.2817383,7.675354,3.1048584,13.9180298,1.4471436c-3.4577026,7.3980713-9.4128418,12.9345703-18.2407532,16.3132935
			C509.2645874,937.3397217,514.7716064,934.4754639,515.3012695,927.871582z M521.178772,875.2714844
			c0.0160522,0.012085,0.0483398,0.0361938,0.0951538,0.0713501c0.0096436,0.0072632,0.0180664,0.0136108,0.0291748,0.0219727
			c0.074707,0.0560303,0.1730347,0.1298218,0.2815552,0.2112427c0.0230713,0.0172729,0.043335,0.0325317,0.0652466,0.0490112
			c0.0683594,0.0512695,0.1383057,0.1036987,0.2073975,0.1555786c0.0587158,0.0440063,0.1119385,0.0839844,0.1596069,0.119751
			c0.0948486,0.071167,0.1795654,0.1347046,0.2441406,0.1832275c0.0281372,0.0211182,0.0515137,0.0385742,0.069397,0.052002
			c0.0090942,0.0068359,0.0162964,0.0123291,0.0233154,0.0175171c0.020813,0.015564,0.0299683,0.022522,0.0293579,0.0220337
			c0.0006104,0.0004883-0.0085449-0.0064697-0.0293579-0.0220337c-0.007019-0.005188-0.0142212-0.0106812-0.0233154-0.0175171
			c-0.0178833-0.0134277-0.0412598-0.0308838-0.069397-0.052002c-0.0574341-0.0430908-0.1381836-0.1036987-0.2441406-0.1832275
			c-0.0476685-0.0357666-0.1008911-0.0757446-0.1596069-0.119751c-0.0690918-0.0518799-0.1390381-0.1043091-0.2073975-0.1555786
			c-0.0219116-0.0164795-0.0421753-0.0317383-0.0652466-0.0490112c-0.012207-0.0091553-0.0219727-0.0164795-0.0344849-0.0258789
			c-0.1071167-0.0803223-0.1871338-0.1404419-0.2470703-0.1853638c-0.0111084-0.0083618-0.0195312-0.0147095-0.0291748-0.0219727
			C521.2271118,875.3076782,521.1948242,875.2835693,521.178772,875.2714844z M540.2689209,886.5921021
			C534.1559448,903.9796143,520.213501,893.5115967,540.2689209,886.5921021L540.2689209,886.5921021z M535.4681396,876.9957886
			c3.3488159-13.4921265,11.4483643-23.40625,26.8866577-27.8260498
			c-0.2578125,10.8053589-3.2248535,19.5841064-6.2479858,28.3145752
			C547.8838501,879.1040039,539.9911499,880.2987061,535.4681396,876.9957886z M576.7632446,805.9781494
			c-5.5686646,13.822876-5.3970337,31.9457397-29.7636719,31.6686401
			c-3.3105469-15.4854126,7.7501831-20.1873779,9.125061-32.1571045
			C562.9848022,818.182251,564.2379761,810.6796265,576.7632446,805.9781494z M567.6463013,790.1347046
			c0.7727661-10.3771362,7.6358643,2.1883545,13.4396362-1.9168701
			C579.6528931,799.8879395,573.9856567,792.2297974,567.6463013,790.1347046z M547.9569092,844.3590698
			c0.3709717,3.2808838-3.7418823,3.1983643-6.2393799,4.3220215
			C541.3396606,845.4011841,545.4525146,845.4836426,547.9569092,844.3590698z M572.9103394,851.0949097
			c5.2905273-1.7313843,6.2349854,2.3474731,10.5606079,1.9118042c1.9852905,10.4995728-6.9723511,12.7807617-14.8853149,15.8347778
			C569.1152954,862.2376099,574.6210938,859.3736572,572.9103394,851.0949097z M517.7376709,752.6860352
			c10.5759888-20.0338745,23.7178345-50.8804321,55.2029419-45.5793457
			C562.2211304,727.6908569,546.1990967,763.8168335,517.7376709,752.6860352z M524.4473877,799.7283936
			C522.838623,798.5200195,526.9622803,801.6141357,524.4473877,799.7283936L524.4473877,799.7283936z M535.9672241,808.3648071
			c9.1544189,3.2565308-2.8011475,15.617981-0.0098267,23.9940186c-10.4863281,0.6594849-19.4735718-0.6953735-27.8339844-2.8788452
			C513.5144653,813.5349121,529.7175903,819.1184082,535.9672241,808.3648071z M530.1976318,840.0432739
			c1.0479736,20.7890625-10.020813,32.4801636-32.6462708,35.5117798
			C498.026825,851.9979248,502.578125,827.4249268,530.1976318,840.0432739z M497.0811462,824.1921997
			c-7.6312256,2.1902466-12.9743042,1.3066406-17.2729187-0.9544678
			c2.2672729,7.6287231,4.4180298,15.4257812,15.3565979,11.5227051
			c0.0272522,13.0107422-7.8376465,20.1156006-5.2919922,35.0270386
			c-11.2704163,4.3552246-13.6257019-3.1611938-23.9938354-0.0084229
			c-1.48172,12.6397705,14.9849243,1.3495483,18.2339783,7.6928101c2.6180725,15.9609375-8.3296814,21.750061-8.6472168,35.506958
			c-8.3445435,5.2211304-20.7012634-3.6177979-20.158844,2.8753052
			c-3.2740479-26.8172607,11.6947327-68.0803223,18.2599487-88.3081055
			c4.4633179-13.7495117,5.504425-40.3867798,29.7635803-31.6700439
			C503.0714417,806.6829834,500.1111755,815.4606934,497.0811462,824.1921997z M480.2672119,922.5889893
			c9.6654053,0.4345093,18.1664734,2.4306641,27.8352661,2.8786621c3.0318604,14.2700806-1.5097351,22.8685303-5.7695923,31.6785278
			c-12.0876465,2.7837524-21.9360657,2.5847168-30.7132263,0.9484253
			C473.3214111,945.3812866,479.2304077,935.8063354,480.2672119,922.5889893z M536.895813,935.0724487
			c10.6140137,4.345459-5.8692017,13.3219604-0.0084229,23.9938354
			c-13.4602051,4.6114502-17.9751587-2.6954346-30.7125854,0.9624634
			C512.0073242,948.4002075,531.7981567,947.2512817,536.895813,935.0724487z M551.7603149,1015.2253418
			c-6.788269,7.9138794,1.5053101,27.1383057-16.8101196,26.4029541c-0.9593506-6.7260742-1.916687-13.4383545-2.8760376-20.1643066
			C542.7025757,1022.4313354,541.131897,1014.2578125,551.7603149,1015.2253418z M554.1467285,1056.0200195
			c10.5560303,8.5799561,5.1851196,55.4199219-15.3743286,60.4731445
			C546.9735718,1098.6405029,546.4371338,1074.2354736,554.1467285,1056.0200195z M555.59375,1042.1020508
			c0.2038574-12.8485107,0.4556885-25.6473389,12.9602051-29.2720337
			C566.9129639,1024.5987549,567.2252808,1037.8344727,555.59375,1042.1020508z M556.0943604,949.4780884
			c-9.5622559-1.760498,1.7453613-12.2600098,0.9588623-17.2807617c2.9547119,1.3916626,5.9573364,2.7358398,10.5628052,1.9255981
			C571.7288208,945.2115479,556.0195923,941.4255371,556.0943604,949.4780884z M576.2432251,970.5969238
			c2.2030029,8.6553955,0.8365479,14.6239014-8.1591797,14.8753662
			C568.5821533,978.8446655,567.2373047,970.8342285,576.2432251,970.5969238z M574.8061523,960.520813
			c-0.8634033-10.6454468,3.9420776-17.0498047,14.4042358-19.1983032
			C588.6140137,950.8789062,588.336792,960.6696167,574.8061523,960.520813z M582.973938,921.6516113
			c0.9315186-7.3036499,6.9632568-10.7852173,3.8430786-21.1227417c4.4835815-0.6395264,8.9616699-1.2781982,13.4382935-1.916748
			C598.3914795,909.2137451,594.9663086,918.6437988,582.973938,921.6516113z M573.8648071,881.800293
			c10.8536377-8.8439331,18.2819214-20.281311,37.9216919-22.5386963
			C609.913147,873.7578125,590.8712158,888.3161621,573.8648071,881.800293z M602.6709595,843.4193726
			c-2.9348145-16.3204956,10.3213501-32.7183228,27.3641968-24.4789429
			C624.6449585,829.9058838,615.5680542,838.0915527,602.6709595,843.4193726z M599.7976685,799.2605591
			c7.6320801-16.8085938,29.4727783,5.8538208,45.1157837,3.8461304
			C633.0089111,813.4805298,615.5332031,797.0724487,599.7976685,799.2605591z M624.7741089,733.9871826
			c4.4779663-0.6387329,8.9545898-1.2772827,13.4381714-1.916748c0.7212524,9.5499268-3.8027344,15.1480103-14.8838501,15.8346558
			C625.5137329,744.5534058,625.8621216,739.8024292,624.7741089,733.9871826z M630.0559692,722.9528809
			C633.362793,711.1264648,640.2857056,734.8709717,630.0559692,722.9528809L630.0559692,722.9528809z M630.0466309,770.9534912
			c-0.8101807-8.6164551,3.0288696-13.7248535,11.5215454-15.3549805c0.7974243,5.5910645,1.5969849,11.1972656,2.3944092,16.788208
			C637.1391602,774.8103638,634.7352295,771.3585205,630.0466309,770.9534912z M595.9822998,700.3894653
			c-8.0058594-7.1854248,10.9573364-19.6553955,12.9683228-29.2745361
			c10.5718384,0.5709229,18.5237427,4.6397095,28.3151855,6.2424316
			C634.9777832,706.1119385,611.1917725,696.1695557,595.9822998,700.3894653z M441.8988342,773.7826538
			c-8.043335,19.1566772-36.5276794-6.4230347-50.3976746,7.1882324
			C397.4039612,759.3309326,425.2826538,782.2213745,441.8988342,773.7826538z M364.1455078,781.4558716
			c-7.1872559,2.9084473-5.7003479-5.7433472-11.0339661-5.2890015c-9.325592,4.0074463-6.0689392,17.4500122-10.0926819,25.4321899
			c-11.2615967,4.3678589-13.625885-3.1626587-23.9920959,0.0039062
			c-0.0137024-8.0189209,2.0589294-14.4663696,3.8445435-21.1229248
			c24.8361206-7.3792725,19.9864807-9.9369507,46.5542603-10.0722656
			C372.3410034,777.5942383,363.6975403,776.1074219,364.1455078,781.4558716z M277.2727966,797.2634277
			c4.6217346-12.5298462,17.3993225-18.9411621,34.5581665-22.0574951
			C303.4472046,783.9055176,288.5425415,800.3431396,277.2727966,797.2634277z M301.7463989,800.635498
			C304.2614441,802.5227661,300.1365356,799.428772,301.7463989,800.635498L301.7463989,800.635498z M257.5852356,827.4961548
			c9.9216309,6.6747437-2.4577789,21.9862061,1.4291687,34.0825195
			c-10.1718292,0.2237549-17.8026581-2.9140625-24.9512177-6.7207642
			c7.9092255-17.0716553,1.1482239-45.1497803,31.2090607-45.5878906
			c0.3140259,16.2332153-21.9358826,15.5432739-23.049881,30.7125244
			C249.9028168,837.7428589,256.209137,834.4710083,257.5852356,827.4961548z M189.935257,713.7372437
			c-0.0148163-4.0161133,5.721817-3.7042847,9.6030579-4.8019409c0.7994232,5.6049805,1.5990295,11.2111206,2.3964844,16.802063
			C194.8866577,725.8079834,196.9854126,713.6803589,189.935257,713.7372437z M193.7687225,740.6138306
			c-2.2411346,0.3197021-4.4767761,0.6385498-6.7191925,0.958374c-0.4795837-3.3623657-0.9573669-6.7122803-1.4371643-10.0759888
			c4.5858917,0.5603027,6.1282806,5.166626,11.0404053,5.2755127
			C197.6760406,739.5407715,195.7924042,740.1297607,193.7687225,740.6138306z M244.6475677,736.7890015
			c-17.6667023,0.8867798-23.4532776-14.064209-28.3141785-30.2491455c4.4836884-0.6395264,8.9617462-1.2781982,13.438385-1.916748
			C236.1627655,713.4346313,239.9338837,725.7439575,244.6475677,736.7890015z M240.3343658,706.5487671
			C242.329422,692.7183838,246.1163025,719.2684937,240.3343658,706.5487671L240.3343658,706.5487671z M227.8360748,787.1862183
			c-2.9086456-7.1887207,5.7363739-5.7008057,5.2800751-11.0480957
			C241.6844788,776.3101807,235.1795502,789.1366577,227.8360748,787.1862183z M232.6268921,820.7750854
			c-5.511734,9.8669434-0.6041412,27.5517578-12.4818878,32.6358032
			C220.197876,839.4542236,216.1339874,822.4023438,232.6268921,820.7750854z M215.8623047,679.1836548
			c-10.698761-1.02771-5.1427002,10.1486816-15.8412476,9.1223755
			c-5.3730774-11.5089111-12.081131-21.2237549-18.2326202-31.6870728
			c4.7511749-11.1400146,16.5155945,1.6063232,26.8778992-3.8336182
			c3.9514008,10.7349243,8.4649048,20.7205811,11.5121613,32.6456299
			C216.8974457,685.8004761,216.9866943,681.6866455,215.8623047,679.1836548z M212.477951,799.6563721
			c-0.1752625-0.1315308-0.2801361-0.2102051-0.334671-0.2511597c-0.0180359-0.0135498-0.0340424-0.0255737-0.0411987-0.0309448
			c0.0070648,0.0053101,0.0213013,0.0159912,0.0411987,0.0309448
			C212.467392,799.6483154,214.3913269,801.09198,212.477951,799.6563721z M215.3425751,867.8076172
			c13.223938-0.1982422,3.4201355,29.2109375-5.7694244,31.6798096
			C212.4047241,889.6107788,216.9463348,881.0123291,215.3425751,867.8076172z M232.1378021,865.4120483
			c7.6676483,1.7804565,12.7032318,7.060791,24.4806976,3.3725586c-3.6845551,11.2380371-3.7059784,25.2183838-8.6489716,35.5058594
			c-7.9958038-1.3416138-17.5897064-0.5452881-24.4785767-3.3574219
			C227.1755371,889.6950073,227.1969604,875.7146606,232.1378021,865.4120483z M253.7516022,800.6182861
			c-10.7464905-9.2358398,12.4504242-18.5290527,9.127121-32.1433105
			C281.9054871,773.4195557,260.165741,795.2255249,253.7516022,800.6182861z M254.2493591,731.9874268
			c-4.2434692-13.1767578,0.4777374-19.6392822-0.9563751-30.7191772
			c15.9066315-1.1950073,9.0362396,27.9490967,21.5949554,31.2075195
			C270.6181946,744.2020874,264.8392944,725.0095825,254.2493591,731.9874268z M270.5747375,702.2355347
			c6.7190552-0.958374,13.4382324-1.916748,20.1574402-2.875061c4.6564941,12.4472656,8.2356567,26.3469849,9.5867615,43.1998291
			C282.4855957,739.6774292,274.6589355,723.4404907,270.5747375,702.2355347z M286.877594,768.4700928
			C288.8742676,754.6409302,292.6609497,781.1895752,286.877594,768.4700928L286.877594,768.4700928z M96.8341904,661.8731079
			c7.7974091-5.4789429,10.7667007,0.2226562,12.9618225-5.2667847
			c10.3197327,6.2427368,13.2203598,22.3726807,21.5916367,31.1939697
			C122.5511703,682.8120117,103.4035034,678.7349243,96.8341904,661.8731079z M119.8775787,655.168335
			c8.9615784-1.2781982,17.9162903-2.5554199,26.8778992-3.8336182
			c2.1112671,18.5166016,16.0926056,21.1956787,16.3116455,42.2421265
			C134.5890503,699.534668,132.5907745,670.2206421,119.8775787,655.168335z M162.5788879,714.2069092
			c9.6205902-4.8168945,7.0218658,6.6427612,8.63591,12.4800415
			C166.3896484,725.1291504,163.936203,720.4026489,162.5788879,714.2069092z M153.9524536,653.7263184
			c27.6837158-8.8858643,28.4762268,18.0337524,35.992569,36.0168457
			C162.0923004,698.8626709,164.5796051,667.5540771,153.9524536,653.7263184z M278.9659424,1818.6185303
			c16.8963623-15.2840576,32.8431396-37.1169434,63.8392029-33.0966797
			c-1.908844,17.567749-32.203064,13.8269043-33.1260071,32.1480713
			c32.9772949-12.557251,80.4907227-54.6394043,118.5686035-82.0548096
			c-18.7488708,22.9296875-36.0343323,46.9748535-59.0474854,66.7010498
			c20.5960693,5.8660889,28.8223572-39.835083,51.3580322-24.4691162
			C387.1481323,1813.6787109,334.1426392,1838.1860352,278.9659424,1818.6185303z M357.7025452,1697.6918945
			c17.1148071-19.1240234,30.0220032-25.6506348,61.9187927-22.557251
			C410.0024719,1697.9173584,384.7372131,1708.9980469,357.7025452,1697.6918945z M383.6182861,1711.1253662
			c-9.8600464,21.633667-35.6929321,35.0804443-64.7964172,26.3857422
			C330.158783,1713.0861816,353.6330566,1700.4057617,383.6182861,1711.1253662z M367.7852783,1672.2484131
			c-9.0394897,18.8238525-30.496521,30.0980225-55.1933289,21.5839844
			C319.4126282,1675.296875,345.2233276,1662.5222168,367.7852783,1672.2484131z M345.7111511,1661.6853027
			c11.9415588-18.6672363,31.3911743-34.1916504,55.1997375-21.5877686
			C394.4169312,1661.8499756,370.2090149,1668.0657959,345.7111511,1661.6853027z M334.6660767,1704.3956299
			c-7.7461853,12.1940918-21.2033386,20.0979004-29.7705383,31.6695557
			c-12.212616,0.291626-19.1968689-6.3833008-34.5528564-1.9189453
			C283.9378052,1711.8673096,303.8081055,1691.0263672,334.6660767,1704.3956299z M291.9370728,1741.3457031
			c-8.590271,24.269165-30.5613098,36.6789551-58.0772247,25.4274902
			C243.3958893,1747.125,265.2808838,1732.3973389,291.9370728,1741.3457031z M344.2514343,1747.5957031
			c-2.2733765,13.2967529-17.099823,17.1682129-23.5223999,27.3491211
			c-15.4509888,1.9366455-24.0411682-5.2763672-41.2738647-0.9633789
			C293.6767273,1749.0889893,311.7021179,1739.3361816,344.2514343,1747.5957031z M389.3684082,1751.4401855
			c-13.6415405,16.385376-29.442749,28.9326172-55.2011414,21.5878906
			C346.426239,1756.2412109,363.2974854,1744.5446777,389.3684082,1751.4401855z M441.6833801,1757.6929932
			c-10.8432617-0.1287842-11.0029907,7.7478027-23.0418396,6.7156982
			c34.3710632-39.215332,61.6126099-83.77771,72.5040894-140.6107178
			c-25.9595337,16.5203857-23.0197449,54.7399902-40.3344727,77.7435303
			c-18.9370117,12.8005371-33.6594849,28.7526855-48.4817505,44.6346436
			c-5.6198425-7.1785889-20.1877441-2.4219971-28.3159485-6.2576904
			c7.0856934-11.6807861,16.0559998-21.9438477,34.0855408-25.4206543
			c1.2174072-21.3905029,34.5785828-30.4185791,43.6811829-54.2296143
			c-1.0232239-2.6313477-3.8470459-2.8693848-4.3129578-6.2349854
			c-12.9248047,12.8088379-29.9483032,15.3183594-52.7971497,14.3806152
			c11.6068115-13.289917,22.5046997-27.1054688,50.8803711-27.8190918
			c-4.1438293-14.9616699-3.9302063-31.467041,18.2484741-40.3225098
			c-31.0585632-21.5147705-77.8345032-2.7197266-114.7132874-11.0617676
			c27.377533,14.9818115,54.8826904,6.2042236,87.8283081,14.8963623
			c-3.9397888,20.2469482-27.2922974,27.3273926-51.3580322,24.4691162
			c-3.1764221-10.3858643,16.4953308-3.6203613,11.5215149-15.3549805
			c-22.2175598-3.4985352-36.5603333,19.0667725-66.7131042,12.9476318
			c3.048584,4.3071289,20.8491211,9.0090332,21.1149902,3.8383789
			c1.7268372,10.0473633-18.5557556,36.2064209-40.3229675,29.7565918
			c-0.5499573,7.3867188,5.7114868,5.7125244,11.0405273,5.2756348
			c-8.3590393,29.4672852-34.3758545,22.2126465-60.9616089,29.2681885
			c4.8410645,5.5328369,17.8891602,0.1411133,24.4718628,3.3597412
			c-5.9519348,17.5318604-17.9571533,30.5299072-43.2020264,33.5853271
			c16.182251,18.0008545-30.6688843,44.3400879-57.1176605,32.1547852
			c16.7514954,23.7072754,55.6253967-5.5081787,68.628067,24.4822998
			c18.5691833-11.7137451,29.0855713-5.7086182,50.870697-3.8234863
			c-9.682251,13.7264404-27.6967468,21.2205811-39.8384094,33.1054688
			c-14.2122192-7.7071533-31.34375-11.5432129-47.0323181-17.282959
			c17.9405212,18.503418,42.742218,21.7318115,65.2648926,24.9648438
			c-130.7698364,0.0294189-202.1374359-103.2261963-214.0053406-250.5812988
			c-6.0249214-74.8571777,0.1724548-149.4069824,14.4488373-211.1724854
			c0.9106979-20.998291-9.2718201-32.0445557,4.3310242-41.7542725
			c6.9126892-54.4680176,19.0112305-126.5665283,43.2337341-177.5738525
			c-7.4504547-22.595459,8.8533325-27.3620605,3.3718719-48.4801025
			c12.8705444,0.7445068,4.5296631,18.6031494,3.8334198,26.8764648
			c22.71315-2.9598389,10.6311035-32.0231934,17.2843781-47.0323486
			c-8.7544861,2.4348145-10.0814056,10.4356689-11.0419159,18.71875
			c1.5691071-80.8369141,47.0668945-154.6999512,47.0950928-246.6844482
			c12.789856-2.4525757,1.6080017,2.5730591,4.7923737,9.5959473c7.1114502-8.6727295,6.2983856-23.2719116,8.6455841-35.5193481
			c7.7580109,26.8607178-3.7838593,65.1515503-11.0543976,90.7111206c1.5402832,7.2714844,9.4926758,6.012146,17.7544098,4.3304443
			c-9.4034576,54.9484253-25.1969147,105.1020508-35.5525665,159.3358154
			c21.2224731-52.3234863,30.188797-107.6564331,42.271759-160.2941895
			c13.0199432-4.3671265,13.156189-4.3865967,26.8778992-3.8336182c8.2480621,15.8705444-11.7931519,29.2460938-6.2507477,52.309021
			c10.2012787-14.3446045,7.9899139-38.0076904,16.3336945-53.7471313
			c9.9240417-3.911499,10.7098389,4.3866577,20.6352234,0.4748535c-1.3506775-10.1993408-17.3680115-0.8424683-18.718689-11.041748
			c4.3404846-10.7468872-1.6361389-29.2279663,16.3306885-29.7541504
			c-13.4690552-16.8825073-4.3998413-70.2624512,28.8072815-62.3876343
			c3.0868225,18.321167,2.3945312,33.8056641-0.0096741,47.9993896c15.8426208-7.112793,6.2538757-33.309021,13.9274902-46.553772
			c12.2970276-4.3905029,16.6488037,1.8108521,27.3563843-0.4697876
			c-1.0686951,44.1898804-16.085144,77.9264526-24.5011292,116.6217041
			c21.9764709-34.2276001,26.7952576-69.1040649,32.1860352-110.8689575
			c6.3969116-8.0549927,15.1803284,3.2612305,27.3561707-0.4711304c-4.007843-9.3171997-17.4505615-6.0618286-25.4378662-10.083374
			c2.1226196-10.4024048,13.5306091-13.8426514,21.1246948-20.1568604
			c11.6833191-2.2384644,12.2611389,10.3170776,19.1915588,14.4064941
			c4.7758789-6.4140625,19.3474731-5.479187,29.7606812-7.6755371c-1.3907776,2.960022-2.7289429,5.954895-1.9247131,10.5680542
			c13.9535217-8.5326538,27.569397-17.3234863,48.4823608-20.626709
			c-0.6137695,29.534729-38.052948,31.442688-50.8883362,51.8254395
			c17.1838989,6.7843628,26.0724792-18.3790894,45.1236877-20.1617432
			c-19.1959229,85.6095581-34.8701477,173.8566895-59.5739136,255.3284912
			c24.6333618-30.2818604,30.70578-107.0176392,44.190094-146.8546143
			c10.6323242-3.498291,15.9580688,0.0526123,24.0007324,0.0073242
			c-7.9283142,47.0516357-26.0024109,86.4976196-32.187561,134.8619385
			c14.9126282-25.8118896,18.3347473-60.2531738,28.3345337-89.7451782
			c23.1784058-4.2405396,35.9206238,5.4372559,55.6715698,5.7727051
			c-2.4579468,12.1508179-21.5447083,11.8317261-24.0025024,23.9839478
			c7.1293335,5.1489868,16.8978882-13.1647949,28.8032227-14.3892212c1.2034302,7.9055176-4.3775635,10.723999-0.4874268,20.6455688
			c-25.7854004,5.0298462-39.2971497-6.2796631-65.2683105-0.9857178
			c15.6166077,9.838501,40.2027588,7.741394,59.9860229,12.0186768c2.6280518,11.9707031-3.8978882,17.072998-2.885376,27.8364258
			c-20.4787292-2.0180664-40.9910889-4.015625-62.390625-4.8129883
			c12.1873474,14.4006348,38.919281,9.4438477,59.9911499,12.0040283
			c3.5050049,10.6312256-0.0587158,15.9658203-0.0065308,24.0075684
			c15.2676392,0.4449463,8.6153564-15.5406494,17.7609253-19.677124
			c15.2836914-0.4779053-11.9176025,15.9976807,3.8336792,26.8780518
			c-37.0084229,6.100708-60.7927551-6.1849365-89.2673035-0.980957
			c23.2533264,10.3261719,53.0835571,11.8886719,81.1093445,15.8560791
			c3.6951294,11.7763672-1.5852051,16.8120117-3.3665771,24.4727783
			c-19.6670227-4.0029297-28.9778748,1.5668945-45.1157837-3.8458252
			c-2.5275879-7.8966064,5.0965576-8.1759033,0.9671326-17.2819824
			c-12.5247498,8.1335449-19.8635559,20.3959961-35.042511,18.7114258
			c3.8696594,6.8408203,15.5113831,3.3249512,21.596344,7.2131348c-0.9660645,11.269165-3.1181946,21.6617432-5.7715454,31.6647949
			c-10.6234741,3.5108643-15.9512024-0.053833-23.9918823,0.005249c2.0942688,10.5247803,14.586792,7.2097168,24.9512329,6.7208252
			c-3.0859375,8.6845703-1.4219971,20.9318848-6.2409973,28.3148193
			c-10.7159119,2.2818604-15.0661011-3.918457-27.3576355,0.4699707c4.2174072,7.7131348,14.7696838,6.9754639,24.9533691,6.7359619
			c0.5690918,18.4160156,2.8203125,38.1114502-22.0870361,37.4238281
			c9.1040955,4.6578369,19.8111572,7.161499,13.4386597,22.0899658c7.0446167-3.711792,6.7309265-12.9571533,11.0418701-18.71875
			c8.3536377,2.1844482,17.3489075,3.536499,27.8352966,2.8786621c6.286499,12.9273682-5.927063,27.2932129,0.949585,30.7199707
			c-22.72052,12.0429688-53.806488-5.2697754-68.1502686,2.871582
			c15.1735229,11.7568359,42.1383362,7.8123779,63.3478088,11.5251465
			c1.0125122,10.7646484-5.5065613,15.864502-2.8855896,27.8361816c-20.485199,4.6364746-30.0983887-5.206543-51.3482666,0.4750977
			c13.0010681,6.654541,27.4861755,11.3388672,46.0661926,10.5579834
			c-0.875061,10.6854248-1.4288635,6.8024902,2.3964844,16.8018799
			c-22.8447571,11.5169678-40.6051941,4.9962158-63.8374634,9.1053467
			c17.2110901,12.1086426,33.7807007,2.1711426,59.0350037,5.2915039
			c-1.5072937,9.8690186-8.888031,15.3432617-6.2424316,28.3150635c-20.6074829,3.4832764-34.1029663-2.5285645-54.718811,0.9556885
			c19.3314819,12.8939209,49.6390686,11.1516113,80.1498413,9.1287842
			c2.9525452,13.2216797-5.3494568,17.9910889-2.4058533,31.1986084
			c-23.6212463,8.2797852-58.8334656,2.4772949-85.4319763,1.9056396
			c25.8744812,12.1688232,58.0791321,15.902832,97.4317322,10.0959473
			c-2.8766174-16.8867188-4.6773987-69.4697266,18.7394714-84.9458008
			c-12.4782104-9.6312256-10.2523499-14.71875-11.9895935-35.9941406
			c-7.5692749-7.5836182-11.3447571,4.7705078-20.6455383-0.4875488c1.8225708-8.6435547,5.7548523-15.6905518,2.8857422-27.8349609
			c12.6687622,0.4530029,23.5214844,3.298584,37.9182129,1.4404297
			c-12.4335938,114.6925049-16.9882202,235.2770996-55.743042,330.2049561
			c30.8669739-34.1422119,41.4229126-88.7954102,48.9824829-137.2587891
			c16.6417236-106.6994629,19.8856201-225.0734863,36.5437622-320.6020508
			c-3.1275635-9.1658936-17.0715942-3.8980713-24.9514771-6.722168c0.4417114-9.6734619,2.4364624-18.1744385,2.8868408-27.8364258
			c8.2669678-1.6949463,14.1916504-0.2519531,17.7514038,4.3182373
			c14.6833496-4.9825439,5.8245239-27.6271973,23.0512085-30.7125244
			C540.9355469,1326.1339111,560.2149048,1593.6207275,441.6833801,1757.6929932z M543.5557861,1198.0964355
			c-19.3898926-10.317749-56.6272888-3.8217773-72.953125-6.7384033
			c-7.1899719-37.5009766,30.6282959-28.5424805,54.7219849-24.9473877
			c-0.5140991,6.6142578-8.7304077,7.4516602-4.322876,17.7589111c2.1885986,3.371582,17.9268799-8.3447266,22.0841675-13.4295654
			C552.6002808,1175.1988525,538.8043823,1187.2802734,543.5557861,1198.0964355z M504.1951904,1234.552002
			c-3.1582947-10.3588867,4.3577881-12.7155762,0.0015564-23.9929199
			c-15.7542114-0.8209229-12.0126648,12.9851074-13.9257202,22.5622559
			c-10.7075806,2.2805176-15.0593872-3.9208984-27.3562622,0.4697266
			c-2.9436035-13.2075195,5.3564453-17.9907227,2.4058533-31.1986084
			c26.8638916-6.4262695,51.3897705,11.4035645,71.9937744,0.0123291
			c4.6643066,19.5467529-2.4805298,56.1085205-5.7721558,79.6781006
			c-11.6720581-1.7813721-23.9450989-2.7503662-35.0412903-5.282959
			c1.0967407-11.1906738,1.4379883-22.9285889,5.7697754-31.6784668c10.0827942-1.4381104,20.158783-2.8753662,30.2402039-4.3132324
			C532.6748657,1225.9150391,515.6289062,1233.9822998,504.1951904,1234.552002z M522.9366455,1125.6147461
			c8.2572632,6.3963623,6.8391113,30.9818115-5.7683716,31.6781006
			C520.9718628,1144.3078613,524.3659058,1135.6356201,522.9366455,1125.6147461z M506.6126404,1155.3664551
			c-12.7460938,3.6464844-17.2613525-3.6616211-30.7199402,0.9508057
			c0.1294556-11.9029541,6.4386902-19.1640625,5.7697144-31.6784668
			c14.1239929-2.8240967,24.2276001-0.3032227,34.5550537,1.9343262
			C510.8392029,1134.5374756,509.0068359,1145.1627197,506.6126404,1155.3664551z M497.9172974,1382.8635254
			c-9.0005493,4.8676758-23.8384399-2.2498779-23.5142517,3.3538818
			c-5.5390015-8.2780762,1.6523743-32.6682129,23.0443726-30.7116699
			C501.8371582,1367.7971191,495.6365967,1372.154541,497.9172974,1382.8635254z M485.9273376,1346.8679199
			c-0.6394958-4.4835205-1.2789917-8.9671631-1.916748-13.4383545c3.5021362-3.3723145,8.3780212-5.7148438,16.3224487-5.7587891
			C499.3676453,1336.9439697,501.6769104,1348.680542,485.9273376,1346.8679199z M640.1016846,865.5039673
			c-26.1105347,64.5147095-42.026062,158.2634888-64.3600464,221.7235718
			c-8.949585-27.9332275,2.4052734-92.031189,28.3376465-113.7381592
			c-24.4694824-25.789856,18.1506348-38.5644531,6.7384033-72.953125c4.4767456-0.6385498,8.961731-1.2781982,13.4383545-1.916748
			c-1.0777588-14.0595703-6.2771606-12.4677124-3.355835-23.5279541c8.3729858-2.7150879,14.7771606-6.9059448,18.7217407-12.951355
			C643.527771,862.239563,641.9686279,865.2518311,640.1016846,865.5039673z M651.1434326,846.7852783
			c-4.2983398-2.2597046-9.6414185-3.1434326-17.2746582-0.9668579c3.1331177-8.6491089,9.0075073-15.2340088,21.5973511-16.7935181
			C654.9365234,835.6287842,649.4328613,838.5064697,651.1434326,846.7852783z M648.8637695,809.0743408
			c0.0161133,0.012085,0.0482788,0.0362549,0.0950928,0.0713501c0.0095825,0.0072632,0.0180664,0.0136108,0.0292358,0.0219727
			c0.0600586,0.045105,0.1351318,0.1013794,0.2190552,0.1644287c0.0100708,0.0074463,0.0175781,0.0131226,0.0280151,0.0209961
			c0.0361938,0.0270996,0.0662842,0.0496826,0.0997925,0.0748291c0.0222168,0.0167236,0.0445557,0.0333862,0.0671997,0.050415
			c0.1176758,0.0883179,0.2163696,0.1624146,0.2998047,0.2249146c0.1772461,0.1330566,0.2747192,0.2061768,0.3239136,0.2431641
			c0.0474243,0.0355835,0.0510864,0.0383301,0,0c-0.0598145-0.0448608-0.1796265-0.1348877-0.3239136-0.2431641
			c-0.0834351-0.0625-0.1821289-0.1365967-0.2998047-0.2249146c-0.022644-0.0170288-0.0449829-0.0336914-0.0671997-0.050415
			c-0.0438232-0.0328979-0.0866699-0.0650635-0.1278076-0.0958252c-0.0839233-0.0630493-0.1589966-0.1193237-0.2190552-0.1644287
			c-0.0111694-0.0083618-0.0196533-0.0147095-0.0292358-0.0219727
			C648.9120483,809.1105957,648.8798828,809.0864258,648.8637695,809.0743408z M668.9160156,779.1226807
			c-0.7730103,10.3757324-7.6348267-2.1900635-13.4382324,1.916748c0.0146484-6.9915771,8.1511841-7.8864136,8.1658936-14.8779297
			C675.5494385,765.3840332,659.6949463,781.9022827,668.9160156,779.1226807z M665.0823975,752.2446289
			c-7.4124756,0.5414429-8.4197388-7.4468994-9.1156616-15.8435669
			C666.7676392,731.3453979,662.6867065,746.1002197,665.0823975,752.2446289z M658.3711548,729.1951294
			c-0.3779297-3.2797852,3.7369385-3.1837158,6.2415771-4.3068848
			C664.9822388,728.1693115,660.8671875,728.0717163,658.3711548,729.1951294z M665.0919189,704.2438965
			c-10.5704956-0.5709229-18.5155029-4.640686-28.3138428-6.2424316
			c5.5639648-21.088501,20.6484985-18.9434814,39.3638306-12.477417
			C674.9785767,693.656189,666.2553711,696.1133423,665.0919189,704.2438965z M711.654541,694.171875
			c-6.1146851,19.3259277-16.5303955,10.9916382-36.000061,11.9976807
			C683.4611206,697.6212158,692.4986572,686.3716431,711.654541,694.171875z M685.2476807,725.3616943
			c0.3778687,3.2798462-3.7418823,3.1985474-6.2393799,4.3221436
			C678.6387329,726.402771,682.7516479,726.4851074,685.2476807,725.3616943z M681.3961182,770.4782715
			C683.3981323,756.6483154,687.1850586,783.1984253,681.3961182,770.4782715L681.3961182,770.4782715z M681.8843994,749.8482056
			c3.2891235,1.6376953,6.5875854,3.2036743,6.7191772-0.958374
			C702.9280396,750.585144,678.6257935,764.6528931,681.8843994,749.8482056z M690.5187378,786.3209229
			c3.1305542-11.2980347,23.2313843-21.5170288,26.3970337-7.1958008
			C704.1162109,778.5235596,703.3114624,786.923584,690.5187378,786.3209229z M718.8354492,768.5704346
			c-7.2067261,1.5999756-3.2252197-11.7042847-5.7532959-16.3231812
			C724.7302856,747.3082275,721.105835,765.9037476,718.8354492,768.5704346z M735.1577148,762.8101807
			C737.152771,748.9812622,740.9397583,775.531311,735.1577148,762.8101807L735.1577148,762.8101807z M732.7614136,746.0096436
			c-0.3179321-2.2287598-0.6376953-4.4711914-0.9575806-6.7137451c2.2340698-0.3186035,4.4766235-0.6384888,6.7190552-0.958313
			c0.3198242,2.2425537,0.6397095,4.4849243,0.9575806,6.7136841
			C737.2380371,745.3710938,734.9954834,745.690979,732.7614136,746.0096436z M747.6385498,754.1812134
			c-0.3196411-2.2409668-0.6394653-4.4835815-0.9592896-6.7259521c3.3554077-0.4785767,6.7191772-0.958374,10.0759888-1.4371948
			c0.3198242,2.2424316,0.6397095,4.4849854,0.9593506,6.7260132
			C754.3577271,753.2228394,750.9940186,753.7026367,747.6385498,754.1812134z M757.2435303,725.3878174
			c-6.6050415-0.536377-9.4758301-6.0411377-17.7614746-4.3294067c3.0149536-10.3062134,15.4541016-4.3671875,29.282959-11.0255127
			C766.5678101,716.3855591,757.1912842,717.3463135,757.2435303,725.3878174z M780.2750244,742.6634521
			c-15.293457-10.1629028-16.1533203-16.1919556-4.3131714-30.2404175
			c17.637207,7.904541,17.3648071,17.5820312,36.9528809,18.736145
			C805.2941895,737.4351196,793.4486084,740.546875,780.2750244,742.6634521z M785.5670166,707.6364136
			c-2.5365601-7.9107056,5.0878296-8.1885986,0.9603882-17.2808228c-7.757019,3.1710815-14.637146,7.0110474-26.3984985,7.1960449
			c8.4168701-28.4707642,48.3711548-3.5513916,62.8682861,8.1627197
			C809.7860107,716.2198486,800.2908936,706.2193604,785.5670166,707.6364136z M822.9976196,729.7210693
			c-5.5107422-14.1400757,4.7485962-16.4396362,6.71875-24.9650879c8.7886963,4.2981567,16.5348511,9.9591064,25.9176636,13.4471436
			C843.1749878,727.4291382,836.5796509,724.5062256,822.9976196,729.7210693z M865.7167969,716.7650146
			c-17.9204712-28.0900269-59.0927124-25.2168579-87.8255005-38.890686
			c-0.0158081-26.0269775,25.8504639-16.407959,39.8352661-9.1124878c-0.3057861,3.7680664-6.3521118,3.2349243-5.7615967,7.6705933
			c8.3901978,10.6598511,12.5922241-0.7631226,23.5211792-3.3547974
			c7.6939087,3.0880127,11.5587158,11.2548218,22.0773315,10.5767822c2.052124,5.5384521-1.7155151,6.7042236-5.7631226,7.6708374
			c2.9896851,12.003418,24.90271-1.2076416,28.7949829,9.605957c3.5657959-15.9223022,10.6929321-22.3371582,22.0836182-37.4373779
			c5.9685669-1.2842407,7.6750488,3.1033936,13.9194336,1.4466553
			C909.2130737,689.4005127,888.2000732,703.6398315,865.7167969,716.7650146z M907.4719849,697.0977783
			c5.6803589-8.7342529,8.6091919-19.5439453,20.6467285-23.5067749
			C928.1405029,686.6025391,917.305481,691.4675903,907.4719849,697.0977783z M935.3157349,675.982605
			c-7.59198-13.7729492,14.3505859-31.1722412,17.2912598-47.0335083
			c-13.649353-5.237915-12.6949463,35.734375-34.083374,25.4359741
			c10.8497925-25.8887329,44.1659546-50.8400269,24.979126-89.2664795
			c-5.206543,17.0910034-1.3748169,40.9698486-24.4899902,44.6295166
			c-9.0192871-12.8722534,8.6303711-30.9845581-3.3439941-47.5083618
			c-10.762085,5.3282471-42.3120117-10.2022705-63.8364868-14.9016724
			c2.5110474-8.1134033,5.5203857-15.8665161,10.5620117-22.0823364
			c33.0969238,7.8904419,63.6477661,19.1560669,90.7045898,35.0619507
			c14.270813-4.9784546-4.2984009-17.2278442,3.3652954-24.4726562c7.7053223-10.3328857,13.3862305,2.4575195,21.1164551,3.8384399
			c11.4181519-22.3859863-20.1786499-17.0697021-24.9498901-30.7150574
			c-22.9611816,4.934967-50.7471924-13.7973938-77.7476807-16.3495483
			c0.1834717-8.7849426,2.9727783-15.3907776,6.2425537-28.3137817
			c38.7592163,6.2719727,53.3574829,19.9674988,86.8700562,32.190918
			c4.5499878-32.1595154-35.5372925-14.5852966-46.5482178-37.9420776
			c-19.4110107,10.2175903-40.2225952-9.6345825-65.7507935-4.319519
			c2.9746094-10.7753906,8.2420654-19.8120117,5.2816162-35.0409546
			c40.7355347,4.372406,82.2479248,28.9724121,111.3410645,35.5353088
			C1000.2108154,546.6663208,972.5594482,622.9226685,935.3157349,675.982605z"/>
		<path d="M649.7019653,809.7032471c0.1442871,0.1082764,0.2640991,0.1983032,0.3239136,0.2431641
			C649.9766846,809.9094238,649.8792114,809.8363037,649.7019653,809.7032471z"/>
		<path d="M384.9471741,38.0108452c-28.4884949-6.049017-55.1585083,26.9218102-79.6817627,42.219799
			C332.0328979,91.9108734,370.4155579,35.927536,384.9471741,38.0108452z"/>
		<path d="M195.828064,130.1134949c25.196167,5.0680084,46.7083893-0.3009796,75.8287964,2.8960876
			C256.1976013,126.8169937,214.2538757,114.5550995,195.828064,130.1134949z"/>
		<path d="M172.5717926,1096.7329102C168.0055389,1110.4407959,178.9176788,1077.7070312,172.5717926,1096.7329102
			L172.5717926,1096.7329102z"/>
		<path d="M81.2869873,1514.2785645c15.4790649-110.397583,28.5373764-222.6112061,45.1894379-332.1162109
			C91.6306152,1280.6896973,87.5527191,1410.4404297,81.2869873,1514.2785645z"/>
	</g>
</g>
</svg>
