<?xml version="1.0" encoding="UTF-8"?>
<svg id="cherry" xmlns="http://www.w3.org/2000/svg" version="1.1" viewBox="0 0 1000 1953.8802783">
  <!-- Generator: Adobe Illustrator 30.0.0, SVG Export Plug-In . SVG Version: 2.1.1 Build 123)  -->
  <path d="M612.1886412,1772.7510928c-3.5595196-12.4940843,7.2845823,26.4978136,0,0h0Z"/>
  <path d="M599.8941628,1314.3387812c-3.5527071-12.6466645,7.298351,26.4119764,0,0h0Z"/>
  <path d="M826.6617865,872.9583454c-46.5292221-87.3611391-297.9259961-649.5669856-269.6583015-793.8600303,16.8581571-24.8416996,50.5015778-44.2811045,37.0162784-79.0983151-27.9352457.4121549-59.8619221,12.7999642-90.4581215,21.218824-11.116601,20.4374328-15.5413052,43.1134458-14.4301901,67.7126213-23.4907853,12.0083543-38.5729295,39.3911081-49.8428112,61.624943-201.2542137,392.7986514-170.3582652,720.4890434-171.1369314,817.1015573-.5518107,98.6739695,10.498028,196.1080681,7.0522768,295.6008773-72.5624241,33.1972043-141.5987097,34.0821645-180.7105062,82.8009169-70.6392616,88.2624441-118.9989965,254.2368842-81.3899038,368.2328,101.3620444,308.231375,413.5650891,236.7533593,458.9435445,221.831308,15.3416996-4.9894587,29.145823-17.7962357,45.0263896-22.6262825,15.6141987-4.8164218,32.4321622-1.7964504,48.4387596-8.1695234,78.9893155-31.6276094,136.0104344-75.1368613,175.7278601-132.7499859,63.8996775-92.9998593,91.3096812-287.009008,5.6679814-423.025577-52.2578345-83.2000899-162.4946223-167.9507176-261.9411268-151.2983192-45.4719256,7.4842098-84.5503409,35.4330804-138.5712447,53.4881898-30.7358553-163.4027256-35.0801722-330.9201877-28.6403371-490.7607016,5.3552887-130.3219827,42.0990679-418.0796746,181.2357483-587.9985828,22.7059879,142.0436123,185.7001105,546.4186586,217.6402661,609.8659876,23.6973505,46.9590583,205.4650061,449.6071727,209.4298681,537.2047349.8917533,19.472786-12.9328075,42.5445863-1.5430262,61.3320547,73.0209038,32.7121386,99.8784156-52.2973469,49.996245-101.8008968-8.6492746-75.5231268-119.9174715-354.3721419-147.8527172-406.6266002ZM204.2717878,1307.0140242c18.7806383-15.3280746,13.4321621,18.7281822,34.015382,11.2365006,5.5950879-9.2738258-12.0676228-8.515597-9.7526088-19.4257799,13.7447206-3.4927767,27.3431072-6.9787021,41.9926591-12.8864827,11.5355683,17.2505558,1.0709215,27.1763357-9.6333896,37.0762282,3.5389471,8.295554,8.4289435,12.5335963,14.4833278,12.8197204-27.7759691,13.6583364-76.2746785,19.3460739-95.2753598-20.7235569,16.3131589-.5586232,28.5607648,11.1234135,41.7400504,19.2731804,4.8300466-9.1811761-14.0308452-15.5740051-17.570061-27.3698101ZM218.9274709,1384.4596151c.4857297-8.5619047,22.5002511-14.2305674,25.8928649-4.8034608-10.6840086,7.6837764-17.5298674,3.998226-25.8928649,4.8034608ZM217.3374386,1413.545489c-4.7162783-6.9718898-5.7013625-12.6671212-4.883184-17.7294734,9.4005379-3.992112,16.4861958-.9251345,25.9528147-4.8232343,11.7222302,18.7077453-7.5305128,24.1359276-21.0696308,22.5527077ZM202.8609236,1384.4998087c.4795984-1.8168878-11.5887057,1.3768018-11.3959126,1.7228756-3.3660452-4.7768922,15.1482252-13.3592515,11.3959126-1.7228756ZM191.3253553,1337.8363979c-9.1076013,19.373306-27.608928-3.1800646-35.3996774-14.6161707,12.5472213,2.6078164,23.3511295,10.797777,35.3996774,14.6161707ZM154.1823648,1368.4659785c-2.3945859-14.5494084,10.4387595,10.8774657,0,0h0ZM204.4448247,1403.8588268c-13.0731445,15.0092511-37.2560776,1.0647903-53.3028686-1.4701327,8.8616709-4.8096093,42.8845466-16.1394411,53.3028686,1.4701327ZM128.9816476,1397.8052591c-.5988168-.2466117-1.4565077-.4857297-.5122983-.1730369-.9442094-.3126927-.0865185-.0735748.5122983.1730369ZM125.3226659,1358.9060109c-1.2506393-1.8557011-.2459304-2.9804412.4394048-3.0935283-.6853352.1130871-1.6900441,1.2378272-.4394048,3.0935283,1.1444962,1.8496055.2329867,2.9007708-.618573,3.0002329.8515597-.0994622,1.7630692-1.1506275.618573-3.0002329ZM122.2693135,1424.9686518c-6.0808175,2.1152744-10.2057727-1.8032629-12.8803514-9.6866622,3.0473525-1.6097885,6.2538545-3.233202,9.4673001-4.8498029,4.7632843,6.0406241,2.0226246,9.6996059,3.4130513,14.5364651ZM115.9289405,1452.3779749c-10.2384726,7.9501616-17.3968932-5.3818575-14.7558265-12.7202585,9.9925422-7.9235929,17.3036931,5.4888134,14.7558265,12.7202585ZM106.1026228,1384.6789769c-2.9136967-14.5630163,10.0061671,10.9442456,0,0h0ZM104.3995034,1413.7648508c-3.2066332,1.6172822-6.4200789,3.2400144-9.6198996,4.7639657-2.1622804-4.3048047-4.3109358-8.6021157-6.4730856-12.8401581,7.9037059-5.3089639,12.8134585-.7248476,16.0929852,8.0761924ZM76.9501177,1431.5283866c8.6687474-3.2802081,18.2954595,2.9865903,14.6828026,12.8796705-7.7505558,1.0579778-18.2090714-3.060165-14.6828026-12.8796705ZM64.1036983,1429.951298c-1.2378272-1.8495877-.3263177-2.8939406.4325923-3.0070277-.75891.1130871-1.6704195,1.15744-.4325923,3.0070277,1.064109,1.8495877.1464683,2.980459-.6056293,3.0935462.7520975-.1130871,1.6697383-1.2439584.6056293-3.0935462ZM86.78993,1467.1011019c-10.3651847,6.8254215-18.8807817,8.0625675-22.6862317-4.8436717,10.038867-5.7878811,16.7982073-1.602976,22.6862317,4.8436717ZM56.1201558,1486.473745c8.3759412-3.7053067,14.9288634-1.6431696,19.2132306,6.373073-2.8408032,9.3078884-15.1618502,5.2428829-19.2132306-6.373073ZM59.3867388,1533.3095298c-6.5399785-1.7896379-12.1882037-13.0193263-9.7793116-19.3399432,5.6482252-3.2795268,8.9808892.4857297,14.6161707-3.3394766,6.153711,10.2984227,3.9247985,17.5366803-4.8368591,22.6794198ZM49.52704,1449.4506532c5.5290068-4.4042669,12.254966,12.188204,1.6302259,11.2433133-1.077734-2.1220868-2.0689495-4.2244175-3.1397413-6.3533168,2.9598919-.9912155,2.4012687-2.8673719,1.5095154-4.8899966ZM88.6122678,1551.0928218c7.6974185,10.4912158,4.0915741,17.4297244,4.9765149,25.7790972-19.2799929-5.5085695-51.139907-3.9049123-53.4554681-33.6897464,16.2729653,1.5770886,30.270563,11.0770889,48.4789532,7.9106492ZM166.3371874,1738.3290051c-7.2185013-8.7281465-2.4545357-13.6249556-6.3996415-21.1357123,6.692578-9.7261745,15.7599857,19.1199002,6.3996415,21.1357123ZM180.9404144,1767.2091421c-7.3315884,3.2665831-8.2362854-12.8667268-12.9730011-17.6436362,10.4844031-9.0408393,14.4499463,14.0309793,12.9730011,17.6436362ZM168.0273631,1765.6456785c-15.6278237,8.1429547-12.7133134-9.367157-17.7499104-19.4128367,16.2327717-7.9964864,8.0632485,8.0101114,17.7499104,19.4128367ZM121.0846236,1704.4328406c3.2536393-7.0713519-8.056436-18.847401-4.7299032-25.9460029,11.7753676,2.3686985,24.4888133,1.6370384,36.9760848,1.7698817,1.5634636,8.2560418,5.4622446,17.7301547,4.8899964,25.7000725-16.3390463,3.299283-26.9971675-6.6333096-37.136178-1.5239513ZM118.457051,1762.6386508c.5988168.2329867,1.1043026.3992112-.4325923-.1662245,1.536895.5654357,1.0314091.3992112.4325923.1662245ZM116.2613894,1670.3575079c-3.7788813-7.4978131-7.6374687-14.9356763-11.2296881-22.5465765,8.5491094-7.1251705,12.1480101.8318035,20.9694873-6.3935104-11.4558624-2.9736466-25.8724275-5.3818575-24.435676-24.2156335,7.2253138-5.1297958,10.052492,2.235174,17.663392-4.8702404-7.8302618-5.7013627-26.7376121-9.6130874-16.1461222-24.2428835,8.1094423,3.0669775,15.7203423,6.8192903,27.3097292-1.5832198,7.3513446,27.3629983,8.6286841,52.8900338,21.3019363,82.3349253-15.1351496,10.4517034-21.9743278-3.9314809-35.4330586,1.5171388ZM95.2850896,1676.936999c4.7769093-.8781284,7.9372177,3.233202,12.8667265,1.6567946-5.6679814,6.2865545-1.0048404,15.7599861-9.5865185,21.0096815-6.706203-9.4339192,6.1939046-12.3012911-3.280208-22.6664761ZM103.3749068,1660.8438827c-12.93962,6.2007173-22.5860883,3.0206527-29.3651848-9.6464685,6.2804231-15.787236,34.6278237-9.2009325,29.3651848,9.6464685ZM92.0125061,1686.7565045c-3.978487,1.377483-5.6687934-4.5636789-8.1301415-8.1027611,4.8566153-4.0452493,7.4181069-.6853353,9.8128235,3.1064899-3.0534833.838616-2.4948601,2.9675153-1.682682,4.9962712ZM48.3566563,1615.7445985c13.6249552-16.6517395,50.9137327-8.9216209,50.1221228,19.1532813-15.6939047-9.3739694-36.3445681-4.1780926-50.1221228-19.1532813ZM72.4592021,1647.9907809c-5.8342058,2.361886-4.5105414,7.3779134-11.3162066,9.6662247-2.4150233-8.3956976-9.3269631-4.0445681-11.2766942-14.4295092,10.1124418-6.3138044,17.50398-4.0050557,22.5929008,4.7632845ZM56.2202992,1583.4050852c14.9152385,1.443564,31.8000949-3.5792758,40.4756545,16.1401224-15.7075296,4.3041235-39.8570815-1.1049839-40.4756545-16.1401224ZM36.9268107,1577.0381434c9.9658442-7.9365366,17.2238578,5.3825387,14.576529,12.806777-7.9372177,1.0382216-18.1954465-2.9736466-14.576529-12.806777ZM31.9372228,1551.1589028c-6.8261026.5858731-3.4661886-5.6482253-4.9293797-9.7132308,7.0917894-.4121549,3.4721907,5.6550378,4.9293797,9.7132308ZM24.0470112,1575.3684051c-2.7275871-14.6427398,10.1056293,10.8842958,0,0h0ZM46.5670184,1612.4514467c-9.4870563-3.5458947-23.3048047,4.9029403-29.1063106-9.493869,11.0770886-.9380782,23.2850485-5.2490141,29.1063106,9.493869ZM34.2194028,1675.5663284c-.685206-.2261743-1.457189-.4584798-.5122983-.066081-.9448906-.3923987-.1729077-.1600932.5122983.066081ZM24.0401987,1664.1833593c-2.5614916-14.6556835,10.3387453,10.7977773,0,0h0ZM32.3296215,1696.5630662c4.6040017-.7187164,8.7485838.8113661,11.2630692,6.3131232-4.6031911.5456795-8.7281463-.7316601-11.2630692-6.3131232ZM54.7896789,1685.1732846c-6.6462532,4.0779492-7.0917892-10.7773399-11.3632127-14.5896024,8.4624597-3.819075,13.778236,8.196092,11.3632127,14.5896024ZM59.6858066,1710.9530631c-2.7474722-14.5630338,10.1793342,10.8638583,0,0h0ZM66.032992,1675.4069165c7.2777698-9.8392617,16.8780438,12.427322,11.4490499,14.5228401-10.1383292,8.9481896-12.7461456-10.9769455-11.4490499-14.5228401ZM72.5593455,1712.6091764c3.3660452-1.6097885,6.5863034-3.3258517,9.6335246-4.8429905-1.7835066,4.7367158,5.0691646,12.2747225-4.7169595,14.4697028-1.6969882-3.2134458-3.2270706-6.4997851-4.9165651-9.6267124ZM82.3592251,1739.8992812c12.1144984-4.0452493,14.4560779,8.0298676,16.3654845,16.2062034-12.9859448.5524919-11.875511-3.1466835-16.3654845-16.2062034ZM98.7710344,1772.2449257c6.7995339,20.4510583-4.9628899-13.8041237,0,0h0ZM97.001834,1712.5560391c4.6965221-3.5458947,7.0052707.2397992,11.1431696-1.7365006,7.3779133,7.6974187-.159412,10.6983151,4.8703715,17.8296169-8.4026412,1.996056-19.3666426-5.7681249-16.0135412-16.0931163ZM113.1746558,1752.845714c-4.9295088,1.1444963-6.9119398-6.672822-9.7595554-11.3100756,2.1152743-1.0838652,4.3974543-2.155468,6.4997849-3.2263895.7582288,2.9736466,2.7939283,2.4013984,4.8232342,1.5900323,1.0579778,4.7632845-3.0472212,7.9433491-1.5634636,12.9464328ZM130.9511349,1788.2317673c-7.2913948,3.0008965-10.8842955-4.5037291-14.5030836-12.7263898,9.9925422-7.9304054,17.2171747,5.3150952,14.5030836,12.7263898ZM129.2343906,1752.8191453c5.4820007.0333811,9.5068125,3.8585874,13.0595196,9.6730372-8.1892793,8.1429547-9.3337756-4.4839729-13.0595196-9.6730372ZM138.8611027,1747.7826805c-4.4308354-13.7312302,6.9058086,20.6969888,0,0h0ZM137.3773451,1728.5026871c-4.9226963,1.2310147-6.8254213-6.752528-9.8460739-11.2160634,9.4870563-4.1583364,16.585658-.9115095,25.8731087-4.8831841,3.7053066,8.3759414,1.4633202,14.8157767-6.3669416,19.3596994-3.1998207-12.3081036-12.2610972-15.328075-9.6600933-3.2604519ZM145.5536807,1776.9489416c8.8684834-.5524919,16.1135533,12.1875228,4.7837218,17.9161353-4.8634278-7.0590895-5.7810685-12.8401581-4.7837218-17.9161353ZM151.9737596,1806.0280031c16.0270348-5.4281823,7.2450699,20.7766948,0,0h0ZM161.6072842,1776.908748c12.7597706-2.9607028,4.2911797,7.8568306,13.0929007,17.8098607-8.974758,4.2244175-15.4949803-11.4361065-13.0929007-17.8098607ZM177.8863807,1817.2978851c1.1179276,18.78132-1.2371459-19.7916105,0,0h0ZM194.0060652,1776.8222295c3.6923629,7.5175692,7.4583005,15.0351385,11.3032629,22.633095-10.6240588,2.1288993-19.7384726-.1328433-24.2224454-16.166691,4.4035855-2.0887057,8.5285407-4.23123,12.9191826-6.4664039ZM201.9432829,1768.8386868c-.6586331-13.1453571,14.3901304,8.4760849,0,0h0ZM216.5723973,1797.831911c-7.2845823,3.0669775-8.2621729-13.1589821-12.8265329-17.7499109,10.4053783-8.8814273,14.2571532,14.1243102,12.8265329,17.7499109ZM182.676915,1834.9612775c6.2667982-2.0294371,10.118573,1.982431,12.9593762,9.6996059-7.9304052,8.2233419-9.1675511-4.23123-12.9593762-9.6996059ZM198.883118,1826.9647911c-4.7769093-7.0720332-5.7613123-12.5874152-4.8634278-17.8228044,3.425995.5122983,6.9453209.6785228,11.2366342-1.5634637,6.5459761,9.2472573,4.4838392,15.8001797-6.3732064,19.386268ZM215.0225587,1851.1940496c-1.077734-2.1888491-2.1690929-4.3776982-3.2330681-6.579491,3.0668437-.7452851,2.4945955-2.6282539,1.4238079-4.8368592,5.8742656-4.4103981,12.1744449,12.3680534,1.8092602,11.4163503ZM221.5291561,1815.568197c-2.4749731-10.3713162,7.5708406,31.527466,0,0h0ZM222.9727201,1762.2857644c-7.9235927-3.3197204-15.208175-7.8500182-27.4692722,1.7698817-.013625-14.709502-5.5290068-9.367157-12.8135891-17.8296169,7.6572248-4.5371102,12.3878093-.0265687,19.186662-1.7365006,4.9628899-7.131983-14.8157763-8.5489784-22.5063823-4.676766-17.204231-51.133777-47.1484763-134.5328114-39.104852-198.57964-10.5116532.2459304-7.2853955,28.0347086-8.1764676,40.5356053-10.2391539,4.0847617-18.0360345.1791682-27.5830406,1.5103263-6.8853711-9.4005381-5.1822517-16.1067412-7.836393-24.090284,12.2345286-7.1251705,20.1376838-1.4967014,30.6023307-3.4593762-17.6361421-9.0742204-36.5632486-13.8313737-56.5285768-15.8267484,2.2951237-7.4181071-1.1641222-16.4793838,4.6638222-22.6065263,14.2503407-4.8634279,22.9185372,7.052277,37.3222899,1.5171388-8.2499106-15.7007176-27.4162662,1.3236644-32.3062626-24.1965586,29.4053784-7.7035499,51.2264254,7.8370744,79.1017213,4.6038725-10.6111151-11.7024743-47.7602368-13.3190753-69.4818217-17.6633924-.7316601-5.5419507.5851918-10.5245969-.1267121-15.9732167,10.6513088-4.9560776,17.949516-.013625,22.8728936,12.7066336,13.9110793-18.5415208,31.9730012.0933309,49.8824561-4.8627466-.0464574-12.8333457-43.7750699-.2527429-38.8189925-29.0729302,22.7788814-9.273826,38.2200432,3.8517749,61.3122985-6.5263537-14.9622446-11.3434568-39.8570815,6.5863035-51.7120233-14.4104343,19.7649095-20.0382222,48.3452969-1.3236644,71.0253973-3.4988886-1.8168878,5.7810687,1.9490498,13.4648623,6.4861599,21.0689501,4.1378989-5.820581.1927931-14.1903912,1.6431696-20.9892441,11.0969789-1.1247401,23.9438151-6.8989963,30.7160991,4.8300468-3.7591251,10.8570459-16.3928649,7.9167804-24.2558266,8.0898174,4.3710197,11.0103266,15.9200789.5654357,20.9027251,9.6730372,3.8388311,10.0790609,3.2134457,18.9073509,1.7766942,27.3963794-5.0630334-.7255289-10.8441019.1791682-17.6702044,4.9697025,3.3864826,5.5617069,11.8952672-3.6324132,15.9868412-.0599498,7.1319828,12.0546794,1.516592,20.1513093,3.3060954,30.6227689-10.2582288,7.0652207-18.5345737,7.7907496-27.4556473,9.7929368,5.2885264,11.1567949,16.8179635,3.4525637,27.4760847-1.7630693,13.1058444,55.4113318,16.2327717,107.4893183,44.0944426,167.9500586-17.270312,14.170635-26.4051632,3.7856939-42.0125495,12.8803518,16.2000718,4.9226964,46.3638147-6.054249,51.6195054,6.373073,3.2066332-23.0520623-6.8656149-22.4866267-14.7558265-45.2123713,12.6134382-8.4093226,22.9519183-9.0878454,32.4587308-8.0169239,9.2608821,11.9885984,3.359914,18.8807822,11.336644,30.5696316-8.9148082,3.0540338-14.4765149-4.6897097-24.2830765.0667623,3.8252062,13.0792761,12.2481535,11.6888494,22.7591252,4.756472,6.0208677,11.9088924,11.955217,23.7442101,17.86981,35.4861968-36.5904985-10.5777343-73.733489,12.4409469-118.1276806,14.9493013,8.2567229,2.2746863,16.8452134,3.7850127,27.6559341-1.8564002,3.7591251,7.6040877,7.531194,15.0487634,11.3162066,22.7257447-5.4949444,2.9607028-10.4244532,4.2577986-14.4560775,3.2604519,12.9730011-.0599498,29.4183221,22.6324137,17.9358911,35.3792409,7.3050197,12.647365-4.9962711,1.6636071-11.5628183,9.7595557-1.5634636-4.1447115-2.7672284-8.1293297,3.359914-9.732987-12.334672-7.577519-9.9993546,3.4859449-19.5191109,9.7064184-15.9267574-4.756472-20.0920402-32.525494-16.1067408-40.3094311ZM302.2611033,1831.435139c21.8741844,13.9975981,1.1240588,25.9596279,0,0h0ZM290.7316662,1792.7293652c-9.2343134-7.2185015-5.1426037-14.8294016-14.3634278-28.8930808,12.8401578-6.3001795,22.1003586-2.3285049,33.7299392-4.9097527-4.3313733,11.888455,3.2263894,27.8684841-19.3665114,33.8028335ZM313.4180342,1797.5594119c7.3178271,2.2154178,11.1300896,15.1216569,16.2925851,24.156365-11.5893869,8.3956976-34.0494444-15.6741489-16.2925851-24.156365ZM313.3375106,1765.4195042c4.6972033-11.4694876,23.0459305-15.4145935,25.8861894,3.0669775-10.8108577,5.5548944-21.4485415,10.7841523-25.8861894-3.0669775ZM323.0440653,1784.7860161c7.7504192-4.6372536,12.6336032.0265687,19.2669126-1.7630693,7.5509502,8.6286844-.5790606,12.2474726,6.6523844,20.9497317,2.0158121-1.1444963,3.5261384-2.3816422,1.5103263-4.817103,11.2964504-2.8271783,8.6021155,6.3805667,11.3632127,14.4499466-5.3021513.0265687-9.4005379-3.8115813-12.873539-9.6328436-10.6179276-.3195052-20.5770886-2.7413411-25.919297-19.1866624ZM371.5365069,1768.4932942c-5.8144496,3.7250629-8.9808892-.1396558-14.7156329,3.1596272-3.6392255-5.6482253.2125493-8.9747582-3.0874149-14.3695594-6.0869487,2.2883113-5.9873494,6.8921838-1.5566511,12.7733959-8.5489782,3.8783436-11.9817856-7.5713878-16.2191467-16.0202228,5.4152385-2.7011474,10.8236644-5.3954824,16.0530596-8.1633921,1.996056,4.3048047-1.8892374,6.5467912,1.7227383,11.410219,3.114121-2.6411976,3.1936895-6.14758,3.280208-9.906024,8.0162424-.7119039,17.3902116,12.5737903,14.5228398,21.1159562ZM373.1599203,1771.6065966c2.5880602,5.4888134,5.3757261,10.9040519,8.0632485,16.1394411-9.4802439,3.9982432-14.156872-6.0801364-22.6792818-4.6835785-4.0848991-6.7320905,10.8637206-7.357476,14.6160332-11.4558626ZM272.9551871,1757.4093928c-4.1180075-8.7819651-10.5048405-17.8691292-8.0828696-24.2496959,14.0901123,3.2536394,34.807538-13.4716748,45.3253222,1.470814,2.3285048-17.5700615,32.1399069-7.9372179,45.1592329-6.5399787-12.8864827,26.4712449-54.7927575,25.852672-82.4016855,29.3188607ZM232.7656566,1846.237972c-3.3863484-12.647365,7.2913948,26.4317326,0,0h0ZM244.1615692,1868.8104359c-2.7406597-14.5562213,10.0061671,10.9442456,0,0h0ZM234.3556889,1809.195124c7.4446755-6.9194337,9.8392614,3.0267839,16.0665472-.1198996,5.2953389,6.9657585-2.4013984,9.8794553,4.869559,17.7430984-11.6820366,8.4754036-15.3144497-7.6640375-20.9361062-17.6231988ZM248.9856193,1838.1679108c6.6856308-9.5599501,16.5650859,9.7731806,4.7631496,9.732987-1.6166009-3.2999642-3.3135891-6.5127288-4.7631496-9.732987ZM258.8778833,1897.7702789c-2.9075654-14.6427398,9.9993546,10.9571893,0,0h0ZM268.3049899,1820.2715316c-4.9363213,1.2112586-6.7395841-6.6721407-9.752743-11.3093944,1.9422374-1.0709215,4.3041234-2.0825745,6.5059161-3.2263895.8318035,3.0397276,2.6282539,2.4150234,4.8232342,1.5900323.9646468,4.7700969-3.0601649,7.9297241-1.5764073,12.9457515ZM271.5518167,1834.9013277c8.7615275-2.0887057,13.4581851,8.4754036,19.332449,14.3899968-12.1943349,11.7692366-22.1800646-5.0896022-19.332449-14.3899968ZM276.4411319,1828.374974c-5.4949444-9.0210831.2595554-14.2837222,1.743313-20.9960565,6.6660093,3.5125135,14.8491575,2.9865903,19.2329868,14.4165655-8.8882395,7.3847259-13.4519183,2.7140912-20.9762998,6.579491ZM302.3341329,1896.0542158c-4.51749-13.8245612,7.0787094,20.6036578,0,0h0ZM305.554255,1862.2111886c10.5974902-7.7771246,14.3164217,4.8831841,19.3195053,14.503084-10.2050915,5.8675871-22.0008965-5.3021515-19.3195053-14.503084ZM328.1934806,1850.8145945c-2.7672284-5.3150952-5.3818573-10.6506278-8.2362854-16.0392977,8.6688778-1.2446397,23.6440661,10.0320548,8.2362854,16.0392977ZM339.3700314,1857.3743294c10.3188598-8.8746148,10.8577268,10.3454288,16.1932593,16.0338477-10.5981714.159412-15.0753317-5.6216567-16.1932593-16.0338477ZM349.369386,1892.7944452c2.6345224-15.2885627,15.9466476,12.6998211,0,0h0ZM345.8098665,1829.8784878c13.5384368-9.7261745,30.8359987-1.5900323,27.3698101,14.5630338-13.558193,8.4358912-21.5219793.5920043-27.3698101-14.5630338ZM376.4932656,1883.173864c9.5599498-4.3375046,17.3432055-3.7455003,21.1622805,9.573575-9.4734314,3.9117247-16.6456078,1.2507709-21.1622805-9.573575ZM379.6331366,1857.2816797c-4.5173539-13.8381861,6.8989961,20.4374334,0,0h0ZM405.5260015,1860.5080692c-5.3028326-.0401936-9.3208319-3.9648621-12.873539-9.6934746,9.2343134-6.6455721,15.6073862,2.1091431,12.873539,9.6934746ZM382.9658006,1807.0062749c-2.0955181,2.1220868-6.326748,3.4191826-4.9628899,6.6196847-9.4005379,4.2577986-12.6465458-10.5450344-17.743098-19.399893,9.9462173-2.5478667,15.3416996,8.0101114,22.7059879,12.7802083,12.8135891-3.8851561,18.788132,13.3252066,25.7934027,27.5155978-20.025278,5.9609181-24.4295447-10.1785231-25.7934027-27.5155978ZM411.9924052,1808.642632c-14.4567587-4.2707423-11.8489423-16.4657588-24.3627824-32.1664764,11.1370384-6.2470421,15.8805666,6.2075298,24.1897455,7.970599,5.0364647,9.7929368-.459161,16.0065978.1730369,24.1958774ZM389.0731868,1747.3705256c9.2078832,2.521298,15.4413004,13.1392259,21.2092866,25.839047-7.3581571-.0926497-13.8048046-2.1615992-19.4591611-6.4664039-7.3983507-8.6354968,5.6216565-10.6574403-1.7501255-19.3726431ZM420.2082532,1881.3644699c-1.5164575-3.1269273,2.6282539-4.4240231,4.7373969-6.3601293,1.52327,3.1337398-2.6282539,4.4240231-4.7373969,6.3601293ZM418.4724339,1861.9918269c-2.6548225-14.6495522,10.1056293,10.9571893,0,0h0ZM418.3859155,1829.6788822c6.6591969-4.0847617,11.8216924-2.4947294,14.5630334,4.8702404-6.7395841,4.0847617-11.5628183,2.5008606-14.5630334-4.8702404ZM431.2921543,1815.1826107c-15.4411618,8.3228041-13.5718179-9.6730372-12.9062388-17.7301547,7.2709574-3.2393332,8.3425601,12.8932955,12.9062388,17.7301547ZM418.2128786,1757.1232688c7.756687-7.3581573,10.8441019.3324489,17.8161309-4.8831841,10.3119079,13.186232,3.8318792,20.8564007,8.2095773,32.20667-21.4088922,5.3818575-22.120657-9.6471498-26.0257082-27.3234859ZM434.571681,1805.4625674c-1.1840086-2.2154178-2.1615991-4.3238797-3.2393331-6.3465043,2.1152743-1.0709215,4.1380383-2.2290427,6.326748-3.3129079,1.2569021,2.0219434,2.2549301,4.3041235,3.4191825,6.4064541-2.2016533,1.0845465-4.3177483,2.2487989-6.5065974,3.2529581ZM444.338049,1857.1747238c1.5770886-16.6851206,10.0395483,8.2430981,0,0h0ZM447.6182569,1879.588457c15.8669416-5.069846,7.3315884,20.9497317,0,0h0ZM447.5181135,1807.0260311c12.859914-5.1822519,25.5999284,20.4973832,24.2633203,32.3327008,1.8557189-1.1642525,2.9136967-.2459304,3.0070276.5191108-.0933309-.7650413-1.1513087-1.6833633-3.0070276-.5191108-16.5127645,5.7681249-28.7404806-18.6341705-24.2633203-32.3327008ZM475.067773,1861.8453586c16.9181069,3.8715311-4.5044102,15.8267484,0,0h0ZM453.8251053,1763.3573672c16.7055576,5.0821084,44.7266405,26.0318401,32.4391154,48.458517-20.1581218-2.7542848-22.4062394-28.3542138-32.4391154-48.458517ZM482.9177909,1764.9800994c-10.2785259-1.1240588-20.1049839-4.4103981-29.1056294-9.6594123-3.200502-11.7092868,2.0553245-20.7371824-.0933309-32.3129446,14.1767659,14.2905347,11.0968448,28.7132314,29.1989603,41.9723569ZM471.6812904,1734.3770867c8.7751524-8.1490859,9.5204375,8.4828973,17.6831481,3.1739334,5.6618501,11.6554682-.3058802,19.5988173,3.1998207,30.5164943-10.1253855-1.7099319-13.4852994-23.9506282-20.8829689-33.6904277ZM489.5374754,1834.3958418c11.3495877-5.0494085,26.6115813,4.676766,24.3157764,16.1728223-13.1057034,9.4673004-18.3146648-4.4308356-24.3157764-16.1728223ZM536.166841,1750.3775533c-8.2097168,3.519326-38.5593046-11.1438512-17.8158499-19.4264617-2.3817837-3.5261385-7.3317299.3528863-11.329973,1.7296881-9.513625-12.0812481-1.3768017-18.4284337-6.4929724-28.9864117,24.3294013,2.1493367,24.6019004,24.4493015,35.6387954,46.6831853ZM502.1446465,1682.5388995c7.0188957-.4325923,3.3926139,5.6482253,4.8567565,9.7064184-6.9992807.5920043-3.5399046-5.5555756-4.8567565-9.7064184ZM545.4277231,1478.9759319c13.844317-7.5843315,8.4094648,12.2079602,8.0032987,16.3124781-10.8904267,1.9831123-3.2597705-11.4422377-8.0032987-16.3124781ZM478.9331728,1346.8847307c-15.9335638-9.1014701-11.41635-34.2688062-11.5498745-46.9161708,9.1477949-.2193618,16.6858014,3.9655432,22.7066691,12.8803514-7.9705988,9.9325924-15.0821442,20.1976336-11.1567946,34.0358194ZM490.0565862,1329.0149207c-2.5880602-14.749014,10.2650413,10.9374328,0,0h0ZM490.6349656,1385.6572487c-.5988168-.2261743-1.3768017-.4659735-.3392614-.1464683-1.0375403-.3195052-.2595554-.079706.3392614.1464683ZM487.009365,1362.9247092c5.7948343,10.0456795-7.531194,13.7046612-9.7466117,21.1023135,32.6985301,9.2009325,51.7325925,76.0415583,58.3720332,99.905668-12.8067767-9.9598425-7.9166385,9.3269633-20.9429187,14.6025461-24.1100395-50.1956988-45.0066334-99.1065644-47.1551486-141.9706568,8.4691319-3.7925063,14.7427426-1.5573324,19.4726458,6.3601291ZM532.4015846,1445.2064795c5.3089638.1927931,23.7435282,27.5489789,11.3298315,30.5764441-9.1743636-12.0022234-3.4532449-19.0606316-11.3298315-30.5764441ZM624.3966011,1467.6195315c4.3177483,8.6218719,8.7015777,17.2376125,13.1058444,25.852672-4.4770159,2.3019362-7.8166368,1.9694873-11.3427752,1.5505199,3.1466834,5.661169,4.264611,10.4980283,3.1802089,14.6291148-10.3251354,4.3381859-13.5719622-13.2788817-19.3530307-22.6256012,5.315095-6.3601293,4.4308354-14.629796,14.4097527-19.4067055ZM619.3737613,1425.5940372c9.7397992-4.0786305,26.2321263,12.9593765,9.7929366,19.4394054-10.3452845-3.2733956-2.8142345-10.192148-9.7929366-19.4394054ZM653.6759486,1533.8552092c-15.4145931,6.1734674-27.2035856-15.248369-16.219828-24.2299397,8.435891-1.316852,10.4251345,17.3704559,16.219828,24.2299397ZM642.2527862,1470.7866524c15.7804231-5.2490141,7.0917892,20.9497317,0,0h0ZM671.4319903,1561.2182075c-4.7033345-13.9975981,6.9718896,20.3372899,0,0h0ZM671.3917967,1545.1448474c-2.6609538-14.7224457,9.9925422,10.7909648,0,0h0ZM668.5714309,1700.1157734c-2.8605594-5.3954824-5.548763-10.731015-8.2430979-16.2334533,10.3651847-6.5658661,23.0186806,11.8557551,8.2430979,16.2334533ZM657.0821874,1669.3594799c-8.3895662-10.8441021-4.1719613-17.4372181,4.7564719-22.5997138,2.0887056,8.82829,5.5617067,17.9828976-4.7564719,22.5997138ZM666.6019437,1624.1600523c-8.4624597,3.7059879-11.7220853-7.5836503-15.9534601-16.0992475,3.9921119-1.4640015,5.2292578-3.7325566,4.6372535-6.4534602,13.6447114-1.6036573,6.3997866,9.9394051,16.206203,16.10606-3.9852994,1.297777-5.3886698,3.6392256-4.8899964,6.4466477ZM634.3360059,1575.6810979c11.0505199-2.5608104,6.5863034-10.2248479,17.6429545-12.8129082,4.4778415,8.5353534,10.511653,17.7962357,8.2696666,24.0896027-9.2806383-1.9892435-19.3733238-1.1642525-25.9126211-11.2766945ZM647.2354323,1593.5107147c.9912155,5.3621013-2.8803155.918322-6.4132664,3.1466835-1.2371459-4.4308356,4.6236286-6.3533168,6.4132664-3.1466835ZM636.0459378,1611.2871943c-4.0050556,1.3836142-5.7681248-4.4574042-8.2362854-8.0700612,5.0296522-3.978487,7.4979573-.538867,9.8195052,3.2536394-3.2270706.7582288-2.5015418,2.8074221-1.5832198,4.8164218ZM626.1794265,1567.7513737c-7.2982073-2.1159556-13.1126569-9.1675514-17.7894228-19.3801368,4.4704917-5.7545,3.7584439-13.1855508,16.1796343-16.2123346,7.6238437,4.1774114,21.075762,15.473862,17.7628541,27.5224103-4.2312298,2.155468-8.6150592,4.3177484-12.8401578,6.4664039.3331302-3.599032.679204-7.0250271-1.6363571-11.1567949-3.3393323,3.2270707-4.5371101,7.1919328-1.6765507,12.7604521ZM568.1473359,1653.4325881c-4.710147-6.9787022,7.5775189-8.289423,4.7762281-14.4765153,13.4253496-3.1330585,6.8656149,8.5489784,12.9130513,17.7362859-6.9650771,2.3019362-10.3978846-5.5617069-17.6892794-3.2597706ZM578.4791395,1689.0986343c-.6921477-.2397992-1.4708139-.5722481-.5189678-.2466117-.9518461-.3256364-.17318.0068125.5189678.2466117ZM563.5768447,1684.055357c-11.7425253,2.4286483-17.4440302-7.357476-17.8963787-19.3065621,10.2119039-5.454751,18.6675512,16.1264974,17.8963787,19.3065621ZM560.2033058,1661.4828931c8.00398-5.1427395,12.9069201-.7323414,16.1796343,7.9964864-8.0760494,5.4084261-11.8550735-2.4484045-16.1796343-7.9964864ZM552.2402007,1718.0046588c2.1624228,4.3177484,4.3177483,8.6157407,6.4664038,12.9334891-4.7230907,1.9892435-9.3140194,3.978487-7.8370742,8.1429547-8.4556472.459161-8.1429545-18.6212268,1.3706705-21.0764438ZM555.573546,1700.1355296c11.6024734-8.130011,24.0829327,5.8546434,22.532951,12.8994267-4.4041239,2.2487989-8.608928,4.3245609-12.8333453,6.4670852-3.2263894-6.4071354-6.6394407-12.9266766-9.6996056-19.3665119ZM587.8394837,1748.6076715c7.9699176-2.8271783,9.054464,13.3122628,8.2628541,16.0733601-8.1429545,3.0867337-9.2145572-13.0527074-8.2628541-16.0733601ZM594.299075,1697.0086023c-7.3779133-8.7949088.5722481-12.333991-6.6591969-21.0430626,9.5735748-3.8980998,16.6585515-1.2569022,21.0226247,9.666906-2.4545357,4.6835785-6.5461097,8.6218719-14.3634278,11.3761567ZM590.8199427,1625.9701277c1.1908211-4.151524,8.0434923-6.5263537,6.4861599-11.3502692,8.1901043-.9646469,17.3908929,12.4940843,14.5167086,20.936788-9.3003944,3.8122626-16.5589459,1.3441019-21.0028685-9.5865187ZM600.466411,1596.8501913c-4.3441735-10.4115098-14.0371101-22.4927579-11.3298315-30.6827187,10.3651847,4.2046613,20.311402,8.6620655,30.5696308,12.8667268-1.6894944,7.7376123-11.7487989,20.0314097-19.2397993,17.8159919ZM595.6234206,1554.9044031c9.0340266-8.7615277,9.8392614,7.5380067,14.4098965,12.9001079-6.2274296-3.5261385-17.7895666-3.9382934-14.4098965-12.9001079ZM653.635755,1517.6353809c7.5843313,31.5077098-2.6411976-10.4646471,0,0h0ZM619.6333167,1522.518565c-4.1515239,1.5702761-8.1368233,3.0274651-9.6403371-3.1868771-1.3766579,6.7859091-3.6187881,13.1794195-6.4459663,19.399893-4.2380423,1.9756186-5.7681248-4.3109359-9.6737182-3.2733956,7.910649,8.9618145-5.0357835,10.7977773-3.1533525,17.7696671-8.8877016.379455-13.4786303-20.1976341-3.1863391-22.4995704,1.8291502,2.0887057,3.1398709,6.2470421,6.3396917,4.7299033-2.8536035-4.8096093-5.2224453-11.3427755-11.4429187-6.3131232-.3058802-13.5915744,10.2187164-23.5779856,19.2868054-33.9826829,2.8673718,5.3287201,5.475332,10.8175335,8.1627107,16.0665476,5.0827895-1.8359628,6.992327,6.4200791,9.7534242,11.2896382ZM605.1431768,1477.2333001c-12.021298,1.6431696-10.2050915,2.6343852-9.9325924,13.1453571-11.6425242.1069559-1.9095375-14.8355329-11.3298315-22.5527077,8.9413769-5.2558266,10.638365-12.8135895,19.5858731-17.9958413,4.17128,10.3318038.3460739,18.1225534,1.6765507,27.4031919ZM588.9771675,1501.5422646c-9.9925422,8.2764793-15.8206168,4.1447115-20.9899248-1.536895-6.7988527-9.3269633,3.3667264-13.0860886,6.4602725-19.3930805-7.8840803-8.0230551-7.97673-8.4420225-9.7002869-19.3460744-5.2953389,3.6324132-4.8961277,9.2608823-.0395124,16.1598786-7.9038365,2.141843-9.3337756-15.1754755-14.5964145-20.936788,8.3091789-2.68071,4.1249552-9.5136252,14.5964145-11.3829691,15.3348871,18.7145577,13.4451058,32.7721056,24.2694515,56.4359285ZM566.4305915,1521.061376c-10.9837577,8.7288278-15.9534601-16.804339-14.6025458-21.0355689,7.4773754-5.3757262,19.5989597,15.4541059,14.6025458,21.0355689ZM571.2006884,1530.6949008c7.3711008,8.7220153-.9113667,12.3278598,6.4801717,20.8829694-7.5776619-1.8025816-21.8150588-15.1414131-6.4801717-20.8829694ZM584.2867766,1621.1598371c-9.1605957-4.7299033-16.2591976-15.5808179-22.7325566-29.1260675,9.9925422-3.8252063,6.3669416-12.2808537,16.2790965-16.10606,11.1172822,18.102116.3460739,28.8930808,6.45346,45.2321275ZM569.624281,1616.2964092c1.9224812,11.4095378-10.3916108.5061671-14.4301901,3.1800646-3.2202582,8.7887776,5.787881,9.6137687,12.8864827,9.8665116,3.9519183,8.1831483-7.5046253,11.6159559-16.0331661,16.0134103-2.6813912-12.0751169-30.729724-26.7110442-9.7397992-35.4861968.538867,1.0041592,1.077734,2.0955182,1.7031194,3.1930083,4.2244174-5.834206,3.5458946-13.1589821,15.9466476-16.10606,8.1960918,6.5597349,3.5990319,21.8878099,9.6669057,19.3392619ZM544.1170024,1653.4925379c-6.4997849,3.3197204.1730369,10.9374331-9.6866619,12.8932955-9.6859807-19.0940127-10.6376838-15.4745433-19.538867-30.65615,12.1943349-1.4108641,21.6616351,5.3021515,29.225529,17.7628546ZM519.8346071,1685.8715636c3.4723198-1.6227322,6.4262101-3.3197204,9.6328433-4.8566154,6.8921836,1.8965938,13.8913231,15.9139481,11.5759041,22.5731452-9.1540683.1130871-24.8084606-4.2107925-21.2087474-17.7165297ZM538.1363283,1721.4313352c.6921477.239118,1.1043026.3923987-.5191108-.1730369,1.6234134.5654357,1.2112585.4121549.5191108.1730369ZM524.8308782,1679.4187846c-3.3135891,1.5498387-6.5263536,3.153496-9.8195052,4.7033347-2.1493367-4.23123-4.2911797-8.5421659-6.45346-12.7665834,6.167336.2793116,13.7579402-3.7393691,16.2729653,8.0632487ZM525.0100464,1784.1401932c-9.0074579,20.0518471-20.3372894-14.2237724-27.5094659-6.1802798-5.0691646-11.6888494,5.2823951-18.1688783,1.4503765-29.1792049,17.3173181,12.5874152,3.6194694,29.8379715,26.0590894,35.3594847ZM508.7241374,1800.4397275c-2.5674816-14.4833278,10.1922893,10.8638583,0,0h0ZM498.9243884,1708.5244147c-7.0917892-.0994622-12.2011474-6.5529224-16.192578-16.1264974,6.1605235.5524919,12.7263894-.3923987,15.9997849,8.0101114-2.9273216,1.7698817-.3923987,5.215633.1927931,8.116386ZM494.3007598,1811.7096095c1.6431696-16.5386523,9.9462173,8.3296166,0,0h0ZM513.9397703,1882.808034c-.7384726-12.9927576,14.3102905,8.4495162,0,0h0ZM526.653216,1827.8763006c-7.4574777,3.2529581-8.3486913-12.9668702-12.9927573-17.6300113,4.3245608-2.2624239,8.5353532-4.4178918,12.8531015-6.5597349,5.0827895,9.6996059-.3992112,15.9064544.1396558,24.1897461ZM526.653216,1763.2374676c10.5450341-1.8761564,5.9609179,3.0138402,9.4073503,11.3298318-6.772284-.5259233-11.5689495-4.8566154-9.4073503-11.3298318ZM536.2070346,1823.1062036c7.8765866-2.2290427,9.3208319,15.0814633,14.7558265,20.8427758-12.7398724,3.233202-19.7452851-10.8039085-14.7558265-20.8427758ZM547.6567657,1869.8684137c-.6587666-13.1657946,14.2299032,8.6286844,0,0h0ZM545.8734013,1802.1033346c-8.3890271-10.9837579-4.10466-17.7567234,4.7570109-22.7659383,4.6699534,9.6396561,8.0496236,18.7874512-4.7570109,22.7659383ZM562.0065686,1761.6406228c-6.5529222-1.996056-12.0281105-13.1392259-9.6130872-19.3399432,2.9538903-1.6295447,6.3335604-3.3258517,9.5401937-4.9492651,5.0160273,9.8058805,12.6134452,20.1444968.0728935,24.2892083ZM573.2498816,1759.9974532c2.3216924,4.3041235,4.4839728,8.5224097,6.4466476,12.7468272-10.1124418,6.0671927-20.2044461-8.6620655-6.4466476-12.7468272ZM584.8126999,1847.0895317c.984403,2.2814988,2.062137,4.3906419,3.1466834,6.4929726-14.0977412,11.1302262-14.523521-14.0841166-3.1466834-6.4929726ZM584.7590245,1798.7100394c12.3740411-5.2558266,14.8823954,6.8261027,16.1134101,16.0134103-8.5421657,3.8851561-12.0614916-7.5645753-16.1134101-16.0134103ZM597.3660524,1703.3353504c5.5017569-2.6875225,10.8175332-5.3757262,16.140122-7.9767302,2.2419864,4.2114738,4.3838293,8.5292222,6.5597347,12.9130516-9.9598423,5.974543-17.3575117,3.9185372-22.6998567-4.9363214ZM612.1886412,1772.7510928c7.2845823,26.4978136-3.5595196-12.4940843,0,0h0ZM615.3421371,1746.9379332c-4.7769093-6.9718898-5.7749373-12.6003589-5.0425959-17.7430984,9.8923987-4.5105415,18.3085336,15.0351385,5.0425959,17.7430984ZM623.2589173,1674.2692327c-10.2520976,4.0847617-22.2536394-11.6956619-19.4264612-22.5527077,15.6612048-6.5999285,22.6598073,11.0164578,19.4264612,22.5527077ZM621.5224168,1590.3776562c11.3100753-1.9095375.5988168,10.4844033,3.0737899,14.3498032-11.496056,1.8162066-4.0384367-11.4429189-3.0737899-14.3498032ZM630.0182576,1824.3767307c-1.1444962-4.4178918,4.7102915-6.4330228,6.399786-3.1337398.8050904,5.3491576-2.8872725,1.0048405-6.399786,3.1337398ZM634.6289425,1753.4043372c-1.0448896-.4060237-.2397992-.0728935.3522051.0667623-.5920043-.1396558-1.3970947-.472786-.3522051-.0667623ZM632.6989675,1629.08343c8.3629975-.5456795,14.7299391,4.676766,19.4932234,14.4833278-6.0944425,2.5281105-4.7837218,7.3779134-11.2165998,9.7595557-4.4112239-8.7152028-10.5247413-17.9624602-8.2766237-24.2428835ZM644.4150666,1708.1252035c4.6236286-3.3728578,6.9187523.2527429,11.1629258-1.5634637,1.0579778,2.1091431,2.3087487,4.3116172,3.4062388,6.51341-4.2373611,1.3039082-5.5548942,3.5527072-5.0691646,6.2736108-4.7632843,1.2242023-6.5726784-6.593116-9.5-11.2235572ZM666.9480175,1720.9987428c2.0491933,4.2441737,4.3907872,8.6218719,6.5461097,12.9396203-8.6348154,3.7856939-15.0085694,1.6302259-19.4789172-6.4664039,4.4035855-2.1493367,8.6218717-4.3177484,12.9328075-6.4732164ZM660.6546507,1805.1035498c-1.0716027-2.1956616-2.3223736-4.3845107-3.3864826-6.579491,2.1820366-1.0913589,4.3776981-2.1690929,6.5065974-3.1671209,1.1574399,2.0355684,2.1350305,4.23123,3.3062407,6.4071354-2.2087505,1.0906777-4.4044121,2.2617426-6.4263554,3.3394766ZM675.1911154,1769.3714226c-1.0716027-2.1288993-2.1491913-4.3177484-3.4062388-6.4268915,2.2883112-.9912155,4.3975998-2.1486555,6.4459663-3.1337398,1.0581234,2.0961994,2.1357117,4.3048047,3.2134457,6.4200791-1.9422374.9850843-4.3041234,2.155468-6.2531732,3.1405523ZM689.0688136,1548.2315811c-3.3932951-6.4064541-6.3866978-12.8462894-9.7064181-19.3460744,10.6179276-7.2580138,25.326748,14.8621015,9.7064181,19.3460744ZM687.4651564,1520.742552c-1.2105773-4.4308356,4.7299032-6.3601293,6.5134098-3.2270707.8045536,5.4424885-3.1337397,1.1049839-6.5134098,3.2270707ZM681.0982148,1572.4410834c11.7624239-8.5687346,15.4016494,7.6640375,20.9435999,17.62388-10.3856221,2.0553245-5.8614557,8.7812839-14.4370026,11.3693442-5.9077806-10.7977773-13.1991754-22.3333459-6.5065974-28.9932242ZM698.7152819,1551.4116458c5.708175-4.3974544,12.2679097,12.281535,1.8093941,11.349588-1.0775879-2.2154178-2.2419864-4.4103981-3.2263894-6.4459665,2.887128-.7384726,2.3285048-2.7944784,1.4169953-4.9036215ZM705.4875659,1612.8036518c-4.8361779-6.0406241-2.2814988-9.6927934-3.425995-14.5296526,9.4802439-4.3375046,13.2455002,10.5314094,3.425995,14.5296526ZM682.8415278,1624.1205399c5.0364647-3.8790249,14.8089638,15.1945505,3.2531038,14.4628903-4.7566176-5.9677305-2.1024763-9.4468629-3.2531038-14.4628903ZM689.3678813,1661.3098562c9.6532808-4.0786305,15.4815016,11.4361065,3.253104,14.4628903-4.7566178-5.9541056-2.1154202-9.6996059-3.253104-14.4628903ZM713.7238513,1758.0150221c-6.6462532-3.1732522-17.0713877-13.2727505-14.5098961-20.843457,10.2718537-6.7457155,12.414378,11.2433133,19.3263177,14.4165655-3.9049122,1.2705271-5.3818573,3.6194694-4.8164217,6.4268915ZM702.267989,1679.0393296c3.3060954-1.5171388,6.5059161-3.139871,9.8058803-4.8498029,2.1554679,4.2380424,4.3177483,8.6286844,6.4664038,12.8462894-8.0761922,5.2428829-11.7753676-2.4613482-16.272284-7.9964864ZM718.4271859,1646.6003541c-6.7320904,4.1842239-7.1714952-10.5116532-11.2896379-14.5235214,9.8658301-8.8609899,12.5806024,11.1636074,11.2896379,14.5235214ZM703.5916534,1504.6228671c6.1073862-2.0294371,10.1253855,1.8162066,12.8798167,9.7125496-8.0163889,8.03668-9.3407346-4.3170672-12.8798167-9.7125496ZM721.6672002,1717.8186782c-2.5744353-14.7292582,10.1792041,10.7112588,0,0h0ZM744.2868169,1698.2191796c-5.2954861-6.2865545,3.9980959-7.5305129,1.6566473-12.8599143,8.7417713-2.7808534,6.3601291,12.5145217-1.6566473,12.8599143ZM773.2466599,1586.9175987c1.4638535,7.5843315-1.5567991,13.6188243-1.6365051,20.8168884-11.0307638-.2663679-7.5441377-18.2083906,1.6365051-20.8168884ZM748.7045614,1425.2547758c1.0838652,2.1888491,2.1622804,4.3906419,3.2400144,6.5924348-2.1956615,1.1642525-4.3116171,2.0560058-6.3403729,3.0472213-1.1642524-2.0158122-2.4013984-4.2244175-3.3932951-6.3199356,2.2889925-1.0845465,4.3048046-2.0689495,6.4936537-3.3197204ZM750.5207679,1501.3828526c2.9736465,9.5865187-10.2124381,5.2823953-9.8195052-3.2931518,3.9117246-.9380782,5.249014,5.3552888,9.8195052,3.2931518ZM736.203665,1617.4606616c-10.9769452-8.2090357-4.6834315-9.812693-1.8290033-19.2793121,13.1588348-3.6589818,12.6799176,15.4275372,1.8290033,19.2793121ZM736.1437152,1399.7345528c-.698279-.2397992-1.4769451-.4789172-.445536-.1600932-1.0314091-.318824-.2527429-.079706.445536.1600932ZM726.2908288,1517.5025376c6.1939046-5.4418073,7.4317318,3.7652565,12.6807458,1.4967014,4.1644676,9.5538188,1.5961635,16.6251708-9.4005379,21.1690935-6.7327716-9.5000003-1.7363537-14.9949449-3.280208-22.6657948ZM712.9853787,1346.3519949c-2.5676228-14.5562209,10.1587666,10.8706705,0,0h0ZM708.2616068,1449.7299648c-2.574289-14.7353895,10.1594479,10.7780211,0,0h0ZM714.7751631,1478.723189c3.3597675,5.5617069-.4858761,8.8085338,3.2528116,14.5432776-9.5728935,4.0650055-15.3212622-11.4429189-3.2528116-14.5432776ZM697.0986809,1483.7596538c-12.5608462,3.7189316-16.1796343-19.1137689-17.7567229-27.6293662,18.8474006-9.3269633,32.7319112,17.0046258,17.7567229,27.6293662ZM688.9019079,1419.060871c-3.2263894-6.3267481-6.6394407-12.9130516-9.7861241-19.4196492,8.9345644-1.9361062,26.1122267,12.7870208,9.7861241,19.4196492ZM682.4295186,1438.3674331c-8.2766247,3.8715311-11.7291884-7.577519-16.1864472-16.0134103,9.9257801-6.2272859,18.9201488,8.1763358,16.1864472,16.0134103ZM666.116214,1317.2926904c1.5302278,3.2931329-2.807422,4.5902474-4.789853,6.5195411-1.6300808-3.1201147,2.7876658-4.4369667,4.789853-6.5195411ZM672.6691362,1362.5186856c4.6835784,6.2204733,2.1159555,9.6198996,3.2604518,14.5493911-4.8436716-1.94222-12.5341324,5.0759772-14.5630334-4.6896923,1.6894944-4.0786303,5.3750448-7.2382575,11.3025816-9.8596989ZM666.5889999,1494.9096362c4.0316243-3.1671209-.0265687-8.8085338,1.5764073-12.7733959,9.3869129-4.2380424,12.414378,10.5511656,17.729473,19.2329873-8.4822159,2.5948728-4.0444223,9.493869-14.6025458,11.2964507-5.1161707-6.9855147,2.3286503-9.7990681-4.7033345-17.7560421-.9850843,15.487487-18.6546075-7.5979565-4.8368591-9.5333814,1.536895,3.2066333,3.0671226,6.3335606,4.8368591,9.5333814ZM659.9223093,1465.8298935c-9.1137326-2.0021872-18.3017211-4.1780926-24.1427394-16.0065978,5.9145931-2.6207602,4.5970599-7.371101,11.2235569-9.7527432,3.41237,14.2837222,16.5986017,15.1482256,12.9191826,25.759341ZM642.2125925,1422.2341232c-2.048512-10.2916102-8.7683399-5.8607746-11.3625314-14.3498032,10.198279-9.3875944,13.7843672,1.5566512,20.8897814,1.5566512-.0470061,5.3689137-3.8790248,9.4066693-9.5272499,12.793152ZM637.0371533,1323.8721813c-2.5546791-14.5630334,10.1718551,10.8706705,0,0h0ZM642.0266119,1381.9648857c-4.0847616,1.3836142-5.5548942,3.6392256-4.8102904,6.5392974-7.7103622,6.672822-9.8126928-3.1930083-16.2327717.0333811-6.2402295-11.1302089-3.871531-19.1335251,7.9699176-24.2094847,3.8388311,7.6974185,10.4918968,6.5931158,13.0731445,17.6368061ZM620.7308069,1291.6259803c1.2243464,2.0894064,2.3216924,4.2980116,3.3129079,6.4868607-2.1220868.998028-4.3170671,2.2419864-6.4997849,3.3265328-1.0906777-2.3755109-2.0021872-4.4042861-3.2391892-6.5931158,2.1880239-1.0647903,4.3973104-2.2351739,6.4260662-3.2202777ZM619.4268987,1409.5138647c-14.6025458,7.3779134-8.3888849-14.4962715-9.6001435-19.3392619,4.9567587-3.2005021,15.1816064,17.0775193,9.6001435,19.3392619ZM606.4804662,1311.0190798c-2.7474722-14.6359269,10.0122984,10.8638581,0,0h0ZM609.8267552,1454.7998108c5.6148441-4.5704913,12.161635,12.2876662,1.7235568,11.1765511-1.0716027-2.1152744-2.1493367-4.2244175-3.2400144-6.4534602,3.0601649-.7316601,2.3216924-2.6875225,1.5164575-4.7230909ZM599.8941628,1314.3387812c7.298351,26.4119764-3.5527071-12.6466645,0,0h0ZM582.4242452,1456.4893052c-18.122553-20.782826,1.6963069-50.4811417,17.6095734-29.2391547,5.9479742,13.6317681-6.1733238,21.2692369-17.6095734,29.2391547ZM572.5843026,1388.4980519c2.2951237-4.5044103,6.4664038-8.5292049,14.603227-11.1969712,9.7731804,7.7968635-10.8509143,24.7817331-14.603227,11.1969712ZM582.2375834,1327.1455768c9.1212263-8.595303,10.0061671,7.6238253,14.6693081,12.9001076-10.2248477,8.0298674-17.3105056-5.3157763-14.6693081-12.9001076ZM574.1613911,1375.7376171c-14.0975986.1600932,4.789853-10.6376838-.0401936-16.2457331,4.2380423-1.3904089,5.7544998,4.570509,8.2226605,8.0898349-4.8164217,2.0818932-9.4598064,4.1644676-8.1824669,8.1558982ZM570.7217712,1256.1336726c-2.821047-14.4697025,10.0988168,10.9640015,0,0h0ZM577.3346432,1293.2426007c3.4464324,4.9833274-.3460739,7.1919134,1.6431696,11.3298315-2.2951237,1.2575642-4.2380423,2.2419864-6.4330226,3.1534959-3.7856938-4.6168161.1859806-6.9255647-1.8100753-11.2296881,2.295805-1.0116529,4.3982785-2.1622804,6.5999283-3.2536393ZM574.0816852,1343.3252111c1.0906777,2.2753675,2.1554679,4.3906418,3.2195769,6.5999283-2.0226246,1.143815-4.2973109,2.0689495-6.3996415,3.1528146-1.0845464-2.1289172-2.1759054-4.3238795-3.4198638-6.4262101,2.3748297-1.1642524,4.4110793-2.2419864,6.5999283-3.3265328ZM575.8576981,1403.2007415c5.4418071,6.12033-4.1045178,7.6306564-1.5830769,12.7863396-8.7289705,2.8605594-6.6130149-12.4075658,1.5830769-12.7863396ZM551.7013337,1451.6728834c-23.437648-18.6014706-24.6884189-52.9295462-9.8331302-67.8318413,16.0869846,7.2382576,10.0395483,30.1172831,22.7196128,45.1122279-3.8388311,7.6974187-14.5698459,13.265938-12.8864827,22.7196134ZM548.2351451,1356.4310556c-8.5421657-14.4962711-4.4308354-24.7681433-11.3693439-38.8059162,6.9984583-4.7632843,12.7999642-5.7810685,17.8493726-4.949265,11.9681607,18.3548584,6.8254213,42.4982791-6.4800287,43.7551812ZM543.238874,1290.122486c-2.887128.75891-4.8300466-1.509645-7.8703134.0204374-2.2421283-8.5026533,14.2108287-9.6532808,7.8703134-.0204374ZM541.5820794,1238.537043c3.4533871,4.9628899-6.9119398,8.4624597-11.3495877,1.5566511-4.6100036-7.1585515,10.0191108-3.5724633,11.3495877-1.5566511ZM538.3488776,1264.3433894c-4.5105414.6185528-8.655111-.824991-11.1833633-6.4868615,4.6038724-.5320342,8.6552528.8917737,11.1833633,6.4868615ZM528.7957402,1358.1675561c4.184905-3.2529581.1996056-9.0612765,1.5634636-13.019326,6.3403729.5320545,10.6308713,22.9989244,11.496056,30.5764433-16.5590893,4.6699534-11.8549317-2.361886-22.6458966,11.3958955,7.6904644,6.7395843,11.7016513,17.0782006.0795645,24.2892083-25.4003228-32.5718015-4.5309789-49.9088758,4.630441-71.0779687,5.4683758,7.0652205-2.1553263,9.9652923,4.8763715,17.8357476ZM499.9421725,1356.5509552c-5.2224453-14.317103,1.5505199-24.6550377-3.4062388-38.8924347,9.048474-7.9896737,9.9394048,8.5626031,17.6899606,3.346289-4.789853-7.1578702-11.1697383-9.739118-14.5228398-21.1221061,6.1005737-2.4483852,4.9499462-7.2920568,11.2099319-9.6737185,12.9328075,25.5999479,16.5326624,48.16628-10.970814,66.3419703ZM498.0196913,1272.5789936c-6.5461097-9.5129437.2595554-14.3634278-8.0966296-24.35597,18.0823593-8.7949086,15.9868412,18.3555397,8.0966296,24.35597ZM488.3330294,1220.7469389c-2.8339907-14.5494301,10.0790606,11.0307638,0,0h0ZM462.4803581,1233.8330272c4.8566153-.9646678,7.8438867,3.0737899,12.7665831,1.5035138,8.5489782,10.8978998,1.6036572,16.6258516,9.8932207,27.542847-6.6198252-1.4769451-10.0792013.3195052-13.0065229,6.5529222,12.3408032,8.6818215,15.9936537,6.9657584,21.216099,25.7130155-14.2837218,7.3581571-19.02725-12.8660649-30.6430655-12.93962,2.7875257-15.0221944,1.4638613-31.6541772-.2263144-48.3726786ZM466.0262527,1329.068058c-17.4767301,5.4622446-34.0889567-17.5632675-29.1860166-33.8423451,8.8821083-7.9835425,12.4743278.0531373,19.3733238-1.6567946,10.6642525,14.1903909-1.0443528,21.2290427,9.8126928,35.4991396ZM451.170964,1243.5128766c10.577734,13.3388312-.1335246,19.6594479,8.3023665,32.2931876-10.2050915,3.2195769-18.2022589.6853352-24.3954823-8.0768735,9.5865185-6.6258157,5.1223019-17.9754034,16.0931159-24.2163142ZM449.7274,1337.2314499c-2.2290427,14.3368591-7.8105056,27.8882396-15.9669457,40.3959485,7.4574799,8.0230378,5.8674476-8.3425601,16.1393013-8.0768735,23.8307279,38.5797254,31.3353533,81.0582494,58.1989963,132.2179139-16.5454644,8.5026535-29.8509144,24.3028333-48.3059163,24.3028333,16.6851202,19.0333817,38.0204376-25.852672,54.7791325-11.3032631-2.4879168-18.5544645,16.9583005-13.5718182,22.6065257-27.5489789,10.4116518,14.2033349,5.4949444,23.1181434,14.7026892,37.0094668-6.6932593-1.2909645-9.9726439.4986734-12.9866261,6.5665473,3.3864826,6.4064541,11.0968448-.3665113,12.9465748,9.6798497-7.4645741,5.3954824-12.5337387,11.9279674-14.4833278,19.4060242,5.3558279-4.5704913,21.7411991-5.3818575,12.8202596-14.58279,11.0171388-.2595554,17.8759413,11.1029763,24.3355325,24.1297963-5.1025457,4.5766226-20.3107208,30.2235577-27.4624598,9.8058805,3.7850126,19.465974-2.6214414,19.1934749-16.0801722,32.2598073-5.867587-6.6993907-12.0744353-12.3544285-16.0529223-24.156365-9.7731804,5.8008248,18.3684834,24.0167092,1.5968448,27.4958416,3.6058444,10.8570459,13.5847616,2.2283615,16.2123342,15.9398355-18.9468627,1.1376838-18.2083902-10.8441021-30.7692364-20.8959131-11.2630692,4.4505917,4.5241664,17.6695236-14.5759771,19.5054864-5.0826489-12.5404091-2.4082108-22.3531021,14.5630334-27.5421664-2.8271782-7.2716388-12.2079599,4.3177484-17.8364289,4.8695591-1.7828254-10.4578347-5.9874866-21.7413416-7.9562926-32.2059887-12.5540338,11.0770889,16.5986017,36.1115823-11.2835067,41.9055946,4.3846509,5.6155254,13.9178918-3.6589818,16.1530657,8.0700612-4.1978487,3.2597706-.1327027,8.8882398-1.5764073,12.9532453-9.7002869,5.0160274-20.2916458,12.5335966-24.3627824.1525995-6.4466476,11.7821803-7.7907494,9.7602369-23.883726,16.1203662,2.8277201,17.9822164,19.8589142-6.2736108,23.9634319,7.9828615,6.4466476-16.5584085,41.4600575-28.4271073,43.6754752-17.8759417,3.3334864-3.3394766,4.2782359-7.3847259,1.4040516-12.7802083,8.0830047,5.3621013,20.7303694,23.1787744,19.6192543,30.5764441-12.0553604,6.5999285-15.2749373-13.6583367-25.8199714-11.1833635,7.5775189,16.7321267-12.1411976,28.5006821,4.7367157,33.9091082-18.9134816,9.8596991-14.922051-2.221549-27.3296165-6.4459665-.8849408,20.3570461,21.4354608,31.8796711,22.7196128,53.1359642-16.133169-2.3421299-31.6405523-7.2852637-40.3359987-32.20667,2.441592-4.5834351,6.45346-8.5285409,14.4301901-11.2099322-4.4109391-5.6080317-14.8825386,7.0386521-16.2729653-8.1497672-1.8427752,9.3603445-12.3673719,15.5944429-25.6530657,21.1227686-3.2536393-3.9451059-7.6175735-3.8252063-9.8528864-11.3959128-4.1917175,3.1800646-.2861241,9.0742204-1.5634636,12.952564-15.5481177.8052349-24.941843-17.0972755-33.9227323-35.4323782-3.9451058,10.4380785,15.1148441,28.360345,6.4330226,37.188635,14.5766584,15.7340987,41.0812838-4.7299033,59.795841-1.7494443,8.2226605,8.0898174-4.2114737,9.4134818-9.593331,12.9532453,15.3607745-.6989602,11.5689495,22.8987816,3.2863392,30.6030127-3.2270706-6.4071354-6.3798853-12.9069204-9.7861241-19.4264617-9.054464,3.4791324,12.1078165,16.6517395-3.2338831,17.8691292-6.1332736-2.2549301-9.9060237-9.8522054-8.0898172-16.0597351-9.9387236-8.1293297,1.6036572,17.417462-11.3024429,9.5933312,10.8705318,7.9501616,3.5389434,12.0614919,8.1891406,24.2626396-15.4541055-9.3072072-17.7226605-26.2450707-27.6021156-38.7520986-7.2586949,10.9367518-.1396558,26.7641815-4.6372535,38.8324859-26.5250628-26.4583012-50.0294731-83.6061337-68.171101-127.4546469-4.803478,6.7790966-18.7145573,7.371101-35.4133024,9.6464685-9.2806383-12.9396203-3.7523127-20.8564007-13.0458946-33.8764083,12.6604439-3.0465401,21.5083543,5.5617069,35.5257083-1.5300825,3.9519183,7.4378632-.8113661,12.2413413,6.5733597,20.8700257,2.9865902-11.0103266,6.1870922-27.4229481-6.5999283-29.0729302-15.1019004,7.9767302-24.3893511-1.7426318-37.122553-1.4238079-.5654356-12.8060957-5.69455-27.1429553-8.0496236-40.3359997,1.0041592-.618573,2.1023306-1.1642525,3.1998207-1.696307-8.6021155-12.6133026-3.3129079-20.7835072-8.2165293-32.3790257,17.570061,1.6431696,33.9227323,6.12033,54.8922196-3.2733956-14.8484762-6.4793476-34.015382.1335246-49.9823321-2.9934027-8.0831396-30.4967381-20.8102103-62.5835084,3.0538988-82.488206-16.3722929-16.4460026-15.0419506-39.7310517,6.3069918-51.6794565-3.9517832-4.2775376-11.4095375,2.4020797-12.8864827-9.5333814,8.6286841-7.4644143,12.3273134.8120647,20.7896379-6.5597173,7.7907494,11.4497311-11.2895028,14.0241492,1.8564002,27.4031744-5.708175,5.1556832-1.4040516,12.9266766-11.3100753,9.7527432,12.9464325,26.7778064-1.4169953,44.3941928,11.2630692,71.0255309-4.0581929,1.8032629-6.2796066-1.9892435-11.0832198,1.7167444,2.5812478,10.8638583,10.1655791,6.5992472,12.8265329,17.642955.1328433-16.2395846,24.562388-9.4870566,38.7589101-19.559305-10.1914665-1.5566512-21.4286483.3324489-33.8089639,4.9894587-16.8050198-31.2215857-8.2567229-84.2710315,32.0595197-64.6115831,4.789853-10.1192545,25.0344927-15.1352819,37.1627466-22.6862323-26.9705989,1.6697383-42.4846542,18.1157409-66.2091075,13.1194697-13.3320187-25.4139484,10.6444963-27.362981,27.4367087-25.8662797,1.0707851,2.0226074,2.0688131,4.2175878,3.1465471,6.4064369,2.2557478-2.0955182,2.5410542-4.5834351-.0332447-8.1095563,16.6522838-11.9484045,26.9569746-5.7810859,42.092119-13.0663321,1.5566511,11.4299749-4.2176049,20.1117793,4.6638222,34.0024215,11.7685551-15.1550381-9.7064181-40.9811236,24.3028326-48.5388863-5.0364647-3.3926139-11.5158122-2.8803336-19.3596989,1.6567766,2.0491933-7.404464.3992112-15.8137864.0197562-24.2694336,13.4185372-3.4927573,13.2189316-11.6888491,24.0699843-16.2259592,5.8013676,13.6181428-3.9316192,22.0669775,6.6992521,37.1157405,7.5115765-7.2784511-1.8555804-20.1315526,1.4374328-29.0129797,14.6093582,6.7395841.1989243,26.9106491,13.0527071,42.0125495,5.69455-12.3741843-7.1387953-30.9620295,7.9433489-40.2760676,5.6747939,1.8094127,9.4468627,9.5136437,13.0458946,17.623217,3.1936895-9.8263177,6.9787021-1.8693439,14.3838652-3.2529581ZM394.0033768,1700.5878781c-2.7147723-14.6495522,10.118573,10.9503768,0,0h0ZM289.9461875,1364.9732213c11.6295805.5858731,11.875511-10.6179455,24.1631769-8.0032987,4.4574041,10.8311582-20.2976412,20.2378273-24.1631769,8.0032987ZM431.8773462,1245.2561896c5.3294012,7.9964862.8318035,12.7931517-8.136142,16.0931159.525242-6.167336-.2193618-12.6337397,8.136142-16.0931159ZM410.9146713,1275.8394454c16.651739-4.1583363,11.6357118,25.9657584,17.7628541,35.4725709-12.3074221.1396558-23.5309789-26.0924705-17.7628541-35.4725709ZM376.9852645,1272.7254619c6.2203354-4.264611,2.1887111-11.8482611,3.073652-17.7696666,5.787881,1.91635,13.4587308-2.1288993,21.1357118-6.4064539.6321979,15.3743995-10.5579778,27.00398-20.9626749,38.7125853-9.8263177-.1130871-17.1177125-8.0496236-24.1434207-16.0999283,10.0395483-9.5463249,13.6385802,1.5770886,20.8967318,1.5634636ZM359.3755531,1301.7786352c-4.9165651-5.9411617-2.1827178-9.6934744-3.2536393-14.5364647,9.4938688-4.0718179,15.3151309,11.3359628,3.2536393,14.5364647ZM352.8021935,1337.4174306c2.7610972,5.4022947,5.462382,10.7112405,8.149767,16.1333095-15.7340983,6.5127286-31.3747289,13.8245608-41.912406,4.9962711,3.8585873-9.5735928,22.5458947-14.110703,33.7626391-21.1295806ZM484.3817924,119.7272504c-6.1339548,36.6469939-30.8026175,66.9836862-48.1335606,96.8945504-51.8782414,89.4471498-83.0998271,192.6023672-101.122374,297.3278605-39.8305129,186.797455-49.4040877,383.5438523-26.4385444,590.9756207-9.9394048,27.2396917,1.5239512,66.7173183,3.6657942,103.3480104,1.7365005,32.9444605,17.9025099,80.3456798-7.9631051,88.8415206-16.8581571-18.1491216-8.8814271-46.2901042-9.8195052-67.8386521-4.5773037-105.7861962-20.4844389-220.3775196-18.4686268-326.0840391,1.1043026-51.2366454,8.8419147-102.9658011,11.0103263-154.9906822,1.1710649-26.0958435-1.3434206-52.886593,1.4769451-77.478956,2.821047-25.2872715,13.0731445-47.7636431,16.060416-72.7981358,4.7763643-42.7639657,3.8517748-81.9724994,14.1367088-124.2841166,29.9979275-125.1697387,83.9983938-241.0949453,157.5589863-353.9865556,4.0778086-1.2902833,5.3818575-3.5356759,4.8096093-6.4330226,4.4974571-1.300502,6.4267508,4.8000717,3.2269301,6.5065974ZM945.4012276,1342.766588c-5.4949444-94.1641093-59.9818217-199.5381506-98.9204314-301.9548953-14.1176472-36.4235928-19.6323478-80.9077092-37.3754457-122.5380786-24.0698459-55.9365725-60.5077449-110.635999-89.1610258-169.4399433-22.6460381-45.811187-39.5975261-104.5558627-63.3744355-158.0978493-53.1564003-118.2400865-87.5049125-199.8235934-117.0499467-312.8882858-15.2613124-59.6452402-38.9789532-125.4183491-17.8296164-156.70329,2.3490839-1.9292937,3.6589817-.2493857,4.7367157,1.5995697,22.2270707,161.5470067,97.9429907,332.8406251,162.6479031,508.3245985,86.5198282,235.9324498,275.5333822,494.4503066,256.3262828,711.698174Z"/>
  <path d="M221.5291561,1815.568197c7.5708406,31.527466-2.4749731-10.3713162,0,0h0Z"/>
  <path d="M209.4737957,1453.9216824c1.7896379-3.8919686,1.8632126-8.4290788,1.4905701-12.9334891-7.6442811,2.0491933-3.8183937,7.7839371-1.4905701,12.9334891Z"/>
  <path d="M399.7116904,1358.3405753c3.0464015-1.6833454.5586232-5.3021335.152461-8.2028865-3.2998257,1.7896379-.7315216,5.3157763-.152461,8.2028865Z"/>
  <path d="M399.904345,1366.2839244c2.7876658-1.5034962.3787738-5.2156153-.1926546-7.9433491-3.0473598,1.696307-.5526305,5.0630512.1926546,7.9433491Z"/>
  <path d="M433.5940905,1345.3812169c2.9736465-.824991,2.4082108-2.8612406,1.7494443-4.8968089-3.2134457.8385978-2.4879168,2.7944783-1.7494443,4.8968089Z"/>
  <path d="M433.5940905,1345.3812169c-2.1622804,2.7937971-4.1378989,5.6679814-3.186877,9.6662245,6.1141987-1.602976,4.9165651-5.5814629,3.186877-9.6662245Z"/>
  <path d="M353.0351802,1393.9132905c.538867,1.0906777,1.064109,2.1091431,1.6097885,3.1930083,3.5397634-2.3816422.1532807-4.1842239-1.6097885-3.1930083Z"/>
  <path d="M117.5456729,1520.3099597c3.4524323-2.1288993,7.411163,2.3019362,6.413135-3.2134458-1.4367515-3.1466835-7.6238437-1.1976336-6.413135,3.2134458Z"/>
  <path d="M365.8685255,1419.6665003c3.5458946-5.1229833,2.8872657-11.5294374-1.7365005-19.2670497-3.1337397,5.0296524-2.6343851,11.5164937,1.7365005,19.2670497Z"/>
  <path d="M528.8025527,1366.1177175c3.2134457-1.6894944.7248476-5.1427394-.0068125-7.9501614-2.8741843,1.5300825-.3855862,5.1427394.0068125,7.9501614Z"/>
  <path d="M311.3489484,1560.226992c-18.1026609-2.3019362-27.908677-1.8100753-49.996092-3.0806025,12.925995,12.0015421,29.9640015,12.4538906,49.996092,3.0806025Z"/>
  <path d="M183.9809563,1693.0301153c8.6680635-16.1128725-4.2646111-53.4220883-13.033084-66.1954842.0728935,20.5110081,8.4823488,44.001794,13.033084,66.1954842Z"/>
  <path d="M296.931838,1579.6466412c-4.6837143-13.8245612,6.8261027,20.5103269,0,0h0Z"/>
  <path d="M562.9378343,1450.0365263c-3.5125135,2.3748298.3528863,7.2580138,1.8093941,11.2296884,3.3796701-2.2951238-.3392614-7.3315886-1.8093941-11.2296884Z"/>
  <path d="M303.2318814,1592.5596928c-3.0397275,1.7031194-.4918609,5.1488707.0933309,8.0428113,3.1405522-1.6234135.4857297-5.1488707-.0933309-8.0428113Z"/>
  <path d="M609.8798925,1511.2289268c-1.0109717.6253855-2.0287558,1.0579778-3.1861958,1.7896379,2.4477232,3.1800646,4.0977053-.0265687,3.1861958-1.7896379Z"/>
  <path d="M537.3578041,1559.8809181c-2.2087472.998028-4.2245594,2.0689495-6.4863019,3.1466835,2.8741843,3.7788814,8.1095734.159412,6.4863019-3.1466835Z"/>
  <path d="M213.186596,1734.8164915c2.3884547,3.5390822,7.3377196-.1859806,11.1629258-1.4633202-2.1350305-3.7059879-7.1713613.0865185-11.1629258,1.4633202Z"/>
  <path d="M543.8710719,1621.1066998c3.186877-1.6234135.4652922-5.1427395.1396558-8.0434925-3.2066332,1.616601-.5586232,5.2163142-.1396558,8.0434925Z"/>
  <path d="M390.770175,1718.3643576c-3.1337397.8249911-2.4216976,2.7869847-1.6765507,4.8232343,3.0533525-.75891,2.5812478-2.7944784,1.6765507-4.8232343Z"/>
  <path d="M408.5065992,1737.6770509c-1.0778727-2.0226247-2.0690882-4.2244175-3.1672596-6.4200791-3.6719254,2.8210471-.1328433,8.0305488,3.1672596,6.4200791Z"/>
</svg>