<?xml version="1.0" encoding="UTF-8"?>
<svg id="cherry" xmlns="http://www.w3.org/2000/svg" version="1.1" viewBox="0 0 1000 1438.7075884">
  <!-- Generator: Adobe Illustrator 30.0.0, SVG Export Plug-In . SVG Version: 2.1.1 Build 123)  -->
  <path d="M98.720359,987.7392403c-.468346-1.3206257.453225,2.4449956,0,0h0Z"/>
  <path d="M147.3745875,1248.0353011c-.4077799-1.7134166.50555,2.4160986,0,0h0Z"/>
  <path d="M460.5911734,1136.8042935c.4978182,2.3333553-.2069865-1.6960944,0,0h0Z"/>
  <path d="M499.5753268,1136.1389272c.7198421,2.3985133-.2043245-1.7276109,0,0h0Z"/>
  <path d="M172.6236051,967.7881498c.6372999,2.4669231-.3266336-1.5121254,0,0h0Z"/>
  <path d="M185.104223,898.3708063c.5773365,2.5094319-.2617932-1.4409902,0,0h0Z"/>
  <path d="M548.5542322,1135.3856294c.4828843,2.3436641-.3369517-1.7412154,0,0h0Z"/>
  <path d="M181.0995162,1015.1032363c.5021498,2.1911058-.3454439-1.476182,0,0h0Z"/>
  <path d="M321.7086271,1372.95859c-.4748604-1.6736404.4344357,2.3469265,0,0h0Z"/>
  <path d="M570.4974079,1142.8961197c-.1881513.1991836-.345569.3404925-.411878.4407683.0880131-.0889484.2425795-.2593817.411878-.4407683Z"/>
  <path d="M572.7974667,1102.4643458c.649551,2.6221434-.3232002-1.4831423,0,0h0Z"/>
  <path d="M553.5740652,706.496843c-.4595678-1.4886882.5031089,2.4663319,0,0h0Z"/>
  <path d="M425.382453,920.7278261c78.3553081-159.2300483,216.1456849-283.9047021,312.4348421-430.9268239,96.9044721-147.5571909,171.7818664-313.8194647,262.1827049-473.0334259-7.6737155-5.9585121-17.6405967-18.1708367-31.127383-16.6352162-23.5685299,27.8672267-36.0688185,75.4108116-55.972811,112.1353978-115.2134286,210.9339013-220.6746786,418.7373197-381.1516822,602.8445623-50.7867934,58.1970682-104.2996559,115.5588824-139.6440472,187.599441-113.214826-48.6942854-162.488345-46.5951549-230.6421931-22.7128056C11.2845908,932.8807389-1.7640506,1123.1713425.1618412,1166.1638441c5.5468662,136.6448591,157.5233375,241.7128356,228.294839,256.4297996,34.1717996,7.1331246,122.4295295,48.789074,265.2638246-38.9140098,40.9913286-25.1671591,91.6091097-89.0654042,113.0252843-143.3126096,61.4893066-156.2023813-65.6214652-239.2210576-181.3633362-319.6391982ZM567.7137286,1205.5063762c.5625841,2.5203209-.4008529-1.4951632,0,0h0ZM550.2861596,1242.7767048c-2.0023336,3.0605798-3.6678858,6.0827792-5.7512506,9.0585042-5.2693657-6.01332-7.889516-.4725113-12.9725117-4.911656,5.3010049-5.5724777,10.7552128-11.2416992,18.7237624-4.1468482ZM516.137937,1265.9127784c2.2727648,2.7685937,2.6671677,5.7880575.1860744,9.6039789-2.212678-2.6346038-2.8199045-5.8078934-.1860744-9.6039789-2.8782804-1.7719534.7004432-4.249375,0,0ZM552.2667262,1214.8278889c-1.0911722,1.6138721-2.0921856,3.1256412-3.038941,4.5346434-1.5710876-.7983502-3.0177621-1.9055213-4.5849309-2.7113596,1.0619258-1.6473018,2.0088719-3.1177309,3.0656313-4.5674168,1.3081759.8386635,2.8838356,1.849742,4.5582405,2.744133ZM579.8421291,1161.9133578c1.4529816.9091982,3.0286837,1.9384231,4.6035937,2.6929557-1.8310859,4.1141488-4.6797735,2.6328833-6.7144253,5.5501578-1.4297455-.8369422-2.954844-2.0166338-4.5372629-2.9892779,1.6238063-4.2502571,4.4946317-2.6782322,6.6480945-5.2538357ZM573.3795903,1177.0036534c5.0922967,7.2064869-11.056257,6.0771445-9.9314545.0380674,5.9577611-7.4599876,6.2808159,4.2227204,9.9314545-.0380674ZM563.0043119,1192.9576067c-3.0845484,2.7078983-1.8160694-1.5232231-4.5321932-2.875018,2.5178845-2.5856872,5.9981514.4657003,4.5321932,2.875018ZM501.5245153,1243.4438591c-1.4933716-.9021954-3.0906611-1.9803968-4.5272943-2.7412926,1.6798383-4.091203,4.493998-2.5621877,6.7907993-5.366119,3.802372,4.2768797,2.2511144,6.6277261-2.263505,8.1074116ZM429.0076106,1271.1073291c4.1531377-2.0885772,8.0002871-5.0169436,13.4816629-.9836576-2.0312595,2.4578376-2.1175078,4.3314777-.5066485,5.9433353-3.0581352,5.2557653-8.9476964-4.1283828-12.9750144-4.9596777ZM412.8018971,1296.3950429c3.8428612-.7747889,6.0711171-8.1923742,11.2540122-2.5734647-2.7156927,5.1974539-6.4966067,5.9340729-11.2540122,2.5734647ZM364.3470453,1281.1766662c.2673071-2.761884.7534482-5.4087686-1.5013967-7.3576434,10.0968289-7.3662125,22.9297662-2.9006055,33.6845199-7.3417503-.8811222,13.7959509-20.4894491,18.9842146-32.1831232,14.6993937ZM348.2199884,1306.2074487c-4.1424711-5.9501073,8.5080649-8.9054571,12.8697702-4.6201245-2.6723531,8.5778746-9.045367.8366039-12.8697702,4.6201245ZM309.4864097,1316.7809805c4.4405311-6.2331253,10.259536-6.9042711,14.8375205-13.0883566,3.6764305,2.1333693,8.0498891,6.6723906,10.5651246,3.7080191,6.8854697,12.564849-14.1266669,23.9771813-25.4026452,9.3803375ZM308.8852979,1332.3302897c-1.5112745-.8233284-3.0225157-1.8426666-4.541351-2.7682039.9451807-1.3960238,2.1610476-2.8835605,3.1032309-4.5052911,1.4366425.9750519,2.8893699,2.0615431,4.5310316,3.0093874-1.0182492,1.2785817-2.0877057,2.9038184-3.0929115,4.2641075ZM296.8884045,1295.8279721c6.51569,4.9933377-8.2392157,8.0636337,0,0-2.7941116-1.6210384.8606159-4.1097187,0,0ZM273.3384041,1222.5805981c-2.3944854,4.1307237-5.7845986,3.8709275-9.8429442.2608909-1.082087,1.4087679-2.0325601,2.8859364-2.7467619,4.3937473-3.0858349-1.9449614-6.1846731-3.7393653-9.2137032-5.9350467,2.514803-2.8476839,6.0959138-1.2530738,8.8231465-3.7940996.9198041.4580222,1.7027435.9469321,2.368339,1.3930335.8677524-1.409329,1.9447272-2.9505032,2.8679427-4.6708732,7.5558175-1.4344116,3.7231889,4.0818623,7.7439811,8.3523478,4.338634-4.9538169-1.1754494-7.6067514,4.9064998-12.9708569-2.4380123-1.9278787-4.9060421-4.0117218-1.4939085-7.3537246,1.4307788,1.056372,3.0193683,1.9106544,4.5929363,2.9530711-1.0858575,1.3366828-2.0759191,2.9614974-3.0990278,4.4006535,4.0477355,2.7936662,7.0489804,2.3010157,9.8633183.0383586,7.5528828.4313183,1.2237208,13.388343,7.7352084,8.0301384,3.626656,9.3226455-12.1162002,4.2747385-15.7491316,9.2945298,5.8619342,2.6299174,11.2597365,3.8946419,15.8016049.6449405,3.674272,5.020182,4.3570882,10.5242749-1.9365885,17.9853864-6.5770121-7.0844297-10.9942554-2.2837729-17.5992215-8.0507056,1.5143805-3.5253222-.279576-6.5408015,3.7342051-10.5796213-3.9076259-1.2112363-5.6169189.3023678-6.7558949-4.3921698ZM153.6096694,1213.2208724c-4.4454829,12.2148464-9.2630082-9.4726132,0,0,1.7418722-2.8563436-1.0194956-4.8790395,2.1215927-8.1306771,10.0748775,6.0876314,20.2804887,12.4950009,14.5501903,22.1887998-8.1205607,1.5447503-16.393738-8.0485247-16.6717831-14.0581227ZM147.3745875,1248.0353011c.50555,2.4160986-.4077799-1.7134166,0,0h0ZM142.1092403,1205.977505c1.4449983-3.0026122,4.2417932.7942828,0,0-1.4542562,2.7789114-4.2484857-.7376244,0,0ZM125.1476329,1217.4368025c-3.8261227-5.2112892,1.1440509-17.138162,9.4087045-9.7013857-2.2078302,7.6009312-6.9889225,3.5382548-9.4087045,9.7013857ZM136.8008125,1199.1749582c-6.0736284-2.465948,7.8542892-9.4898892-2.4784069-11.2223895,6.7073406-1.7625461,12.2710908-10.1875311,18.6912486-13.7863928,2.4853357,2.5674022,2.1672016,6.0853975,7.4548491,8.0327037-3.6024429,10.2202426-10.6910483,4.684757-15.4574595,9.3861521,1.4223299.9313134,2.8809091,1.9364466,4.5276406,2.9985508-2.7377546,8.721074-9.5652596-1.7033769-12.7378719,4.5913758ZM131.1802271,1182.7777423c-4.3034703-2.9465451,1.0091187-8.0517481-6.1071206-10.313558,7.1452607-9.488446,23.335088-14.1687149,28.37491-4.2982514-7.3670947,5.2834469-14.5195688,10.6644259-22.2677894,14.6118093ZM114.2348532,1204.2548107c-2.893633-4.5186117,2.3212948-4.4446719,4.5000944-6.7652013,2.7945217,4.1038162-2.4006866,4.2309768-4.5000944,6.7652013ZM105.7252879,1147.1784653c4.0658168-11.0627763,7.2268389,3.866001,0,0-1.4688101,2.8504702-4.2576522-.8449648,0,0ZM121.266621,1128.054439c-6.7769441-6.8628593-.6199786-16.7940715,7.9475933-17.4385858,11.7462843,6.151956-1.9525019,17.446242-7.9475933,17.4385858ZM114.5261182,1088.280511c2.464077-4.3786024,3.4462645-8.4900362,1.3658896-11.9725798,8.0835134-4.4988219,13.4843738,22.3387896-1.3658896,11.9725798ZM107.1672935,1099.6279568c-7.8886833-8.3064836-7.8708914-13.8589409,1.1097266-21.7625241-.4640717,7.3301408,5.7891921,13.1458044-1.1097266,21.7625241ZM153.5372954,997.3160685c-5.7398827-3.2184464-4.5619698-8.0511817-8.2005064-11.8044797,5.0703234-6.1916148,10.9678664-8.6669851,17.6256889-7.7721155,9.8699577,8.9708453,9.1212206,26.4317862-7.0538636,21.1152324-.7932399,1.3552818-3.4680503,1.562359-2.3713189-1.5386373ZM170.2831069,956.4981852c8.4221475-7.4790244-3.1662869,10.6955573,0,0h0ZM192.0417746,947.9218664c5.9375849,3.3219463,4.9217963,8.1464837,4.709627,12.8236037-4.2695915,6.9134896-14.1890655,7.2039705-15.8629701-.6069117.9454684-1.5131742,1.9290551-3.1967037,2.8905752-4.402429-2.8848187-1.7148023.7604681-4.4697927,0,0,3.7136653,1.5099245,5.690062-4.3491496,8.262768-7.814263ZM191.1292672,1079.6352928c-10.9763588,4.3212922-16.1964549-10.8560844-19.8026574-19.3529156,6.7714144-10.839268,17.9651637-1.9764444,25.3173776-9.5727863,7.0316731,7.7549626,12.5572182,15.797691,5.8024111,26.3018027-8.6023885-2.6346248-4.7643832-8.0736805-8.5657341-11.7209266-6.1183068,5.9503301,3.526534,8.3382851-2.7513973,14.3448257ZM191.4533456,1144.34262c-.9367835,1.4428712-1.8756712,2.9170407-2.9494259,4.4885171-1.4363989-.8962274-2.9597429-2.1503592-4.456885-3.1246397-5.9661774,7.1989526-18.306233-4.1725285-8.5740663-11.8836351,10.6389821,2.3210917.3724858,9.2031192,8.5740663,11.8836351,1.9565124-2.4225505,4.1190663-4.7749858,7.4063109-1.3638774ZM192.6414449,1167.4469363c9.5326908-.9402073,14.3186518,3.1760508,21.9119161,10.9086595,3.3851938-3.8783624.7782036-6.5423726,3.592223-10.5050522,6.3038856,1.4827824,12.1195845.8370927,18.997025,5.637707.7645834,8.4629975-12.6114441,8.6915965-19.3870554,10.0778709-2.448144-1.4719686-1.5962532-3.5363449-3.2021926-5.2105257-5.7707043,17.3993028-32.544287-.3290086-28.0502024-11.6661077-9.3139532-14.8745195,20.5268009-19.7053434,18.7961404-3.9735785-3.1607182,6.5108688-9.9815698-3.8542968-12.657854,4.7310267ZM212.0148989,1157.2875758c5.5720074,2.2496988,2.3299193,6.2912214.0556631,9.8896289-1.5219905-1.5419792-.6925536-3.8742294-2.9228467-5.1582954.8632228-1.5418744,1.9443778-2.931608,2.8671836-4.7313335ZM236.8755243,1163.6654045c-6.6280414,4.0671814-9.7419875-9.2062619-12.7010876-5.0028116-5.3516392-10.9470093,23.5436014-7.4647828,12.7010876,5.0028116ZM241.0174329,1182.4332934c3.7530034,2.5922057,7.7111952,4.943618,11.367377,7.3644854,4.2217916-4.3906657,11.9018208,6.3168195,17.4517777,7.949727-2.4186699,3.527124-6.9572211-1.9077141-8.7478188,3.8807391,3.7105597,3.39512,6.4307713.7335982,10.3328029,3.6279622-7.3822285,11.0185019-18.8037786,3.7930762-26.7792177,11.8411737-19.2430794-13.4802139-12.8004078-12.1022267-25.2336501-26.0188401,5.5880729-10.1082964,15.5560123-.6302085,21.6087289-8.6452472ZM271.6652916,1170.0177872c-7.684712,4.5205616-15.6349203,6.3175477-24.748761,3.4572685-.0358845-9.43619,15.4901441-8.3631561,24.748761-3.4572685ZM225.1965837,1227.1817265c.347857,2.5205067-.3438168-1.6050613,0,0h0ZM209.6288496,1246.2213814c2.0357335,10.6702136-9.255027,9.5681354-17.1129241,1.6922342.179327-7.0093939,11.3096754-4.8170092,5.7355028-9.1268415,6.3807485-5.2497065,6.4669608,6.1463836,11.3774214,7.4346073,1.5913963-3.1211034,4.2519521.6326338,0,0ZM211.8598135,1192.7312056c4.8537927-6.5333917,8.154393,8.2170776,0,0-1.4534243,2.9376622-4.323868-.8424491,0,0ZM178.2814434,1209.9098023c-1.3808929-3.6525772-4.2440934-7.0373206-9.8874464-9.4970132,3.5781222-4.5505683,8.9858398-.7146547,12.650399-4.9309552,2.2559968,4.0638043,1.2738182,8.8596711-2.7629526,14.4279684ZM180.8679649,1185.7345696c-6.5568324-.1618854-12.1088813,4.4922431-19.4403635.193767,6.6830089-6.5490888-7.3894886-8.6643231.4607529-15.645657,8.2738045-1.4092268,14.2736728,9.9103744,18.9796107,15.45189ZM163.1124921,1158.2072997c1.5469261-2.2085968,3.8896358.0791085,6.0780635.7030709-1.6085031,2.0318222-4.0141184-.144731-6.0780635-.7030709ZM160.9361439,1166.4771762c-1.3816556-1.0354656-2.8955495-1.809131-4.4626851-2.8109791.9984572-1.5779722,2.0019626-3.2558804,2.9255793-4.7008062,1.451564.9647034,3.0233597,2.0014563,4.4801118,2.9827396-.9523987,1.5090373-1.7960785,3.191413-2.943006,4.5290457ZM147.9177475,1141.8152928c4.7312708-8.1156482,12.3341593-2.5996111,17.718655-7.709155,13.5672208,14.4547324-10.6581436,22.8485896-17.718655,7.709155ZM162.8689045,1093.6031124c7.9768082,5.1660879-.3683078,14.4181906,9.9979814,19.209792-9.3525444,12.8886391-16.9002878-10.8800624-9.9979814-19.209792ZM157.8137973,1106.3512023c-1.489983,2.1964594-4.0353994-.0766598-6.019369-.5134951,1.3296558-2.3366095,4.0149231.0092209,6.019369.5134951ZM159.4971932,1123.5339395c10.4525798,9.1918055-9.1977451,11.0599696-14.1372602,7.0593453,2.9250481-9.8435431,10.8395054,1.9653302,14.1372602-7.0593453ZM170.6767321,1121.15473c2.2068053,2.8499743,3.0311434,6.1087449.332875,9.9550514-2.1936136-2.8478402-2.8710771-6.1275219-.332875-9.9550514ZM177.4038419,1115.8392239c-1.5259186-1.7486471-.6896179-3.7467778-3.064863-5.1438709,1.7146251-1.7106905,3.8477841-1.0512294,5.2580583-3.1682228,1.5172369,1.6048339.8274934,3.8752125,3.0752961,5.4893974-1.6443135,1.2910099-3.8035163.5483184-5.2684914,2.8226963ZM175.5272138,1088.7554708c6.603117,3.8839138,1.0477713,10.4226265,6.9478831,14.2691981-10.2549445,9.5384933-17.1276127-13.2855346-6.9478831-14.2691981ZM144.597164,1081.800238c7.2660275,6.7648791-6.4889328,16.608894-13.2941214,10.8864991,4.1910982-4.9190093,8.6022416-7.8040162,13.2941214-10.8864991ZM162.9587275,1058.0089525c5.5491934,2.2568376,2.1719645,6.2366989.1748143,9.9982486-1.5274097-1.6373438-.8155917-3.701097-3.1375209-5.3960814,1.0937809-1.2533272,1.9594324-2.8454743,2.9627066-4.6021672ZM155.0943419,1075.5373477c5.0951818,2.8391195,5.8340074,6.7051317,2.3288477,11.2147095-5.1372743-2.6794639-5.9856689-6.4253562-2.3288477-11.2147095ZM183.5795927,1026.2148929c9.1925092-1.1888564,13.33445,15.3898412,10.9079111,23.1143144-8.4638587-6.5484899-3.2798077-16.1508879-10.9079111-23.1143144ZM188.5043922,1013.2444835c2.2182869-5.0480241-3.1678448-8.3646876-.8612304-13.3245514,7.9481819-10.7547541,22.2007871-5.3263172,24.84492,6.3276379-7.0863111,6.8831843-14.561946,11.0753207-23.9836897,6.9969135ZM164.0591386,1036.2186597c-4.3943994-9.3147274,10.0354839-7.0539571,13.4358389-10.6497292,3.9233986,7.5353515-10.0884833,7.5289636-13.4358389,10.6497292ZM163.5931135,1052.1596524c-10.0765743,3.7767811-3.959846-13.6693871,0,0h0ZM181.0995162,1015.1032363c-.3454439-1.476182.5021498,2.1911058,0,0h0ZM185.968887,992.2619576c-2.3391712-6.9671706-4.6982316-14.5642371,2.5204136-24.0142788,3.0055765-.6349,7.1924627,2.7395415,9.9145557-.2281527,2.190403,6.8239369,6.5514301,12.9441881,2.586174,21.0644046-5.4338861-.5195318-10.4629704.5287551-15.0211433,3.1780269ZM172.6236051,967.7881498c-.3266336-1.5121254.6372999,2.4669231,0,0h0ZM168.0862561,1000.211534c3.0509285,7.7168871,13.6961607,14.084333,3.34193,24.7303722-4.7521333-3.6559439-8.5457019-2.7256277-11.1074644,2.6315565-3.6969594-3.313634-2.7866148-7.536592,1.1364834-12.1393763-2.355736-1.4708269-4.5285905-3.0596207-6.6831836-4.5320206,2.9007543-10.1353074,9.8310547-2.898424,13.3122345-10.6905318ZM156.5849319,1037.9519038c-2.9380005,2.7659902-1.8837503-1.5634121-4.536534-2.9469246,2.3210067-2.3343442,6.0778624.6423928,4.536534,2.9469246ZM141.0482468,1047.1248921c-2.338968-2.7660375-2.8718074-5.6996015-.4627358-9.6276185,2.4905329,2.7981378,3.084716,5.88972.4627358,9.6276185ZM133.7922572,1068.3766373c3.8295971,2.9170297,6.5712902.402204,10.6062745,3.7014432-3.317816,5.7346572-6.7980955,11.0861976-11.2768759,12.2121394-7.5951575-3.6342326-3.9125163-9.7278909.6706014-15.9135826ZM152.4692813,1064.3545861c-.2055721-1.5374832.6342584,2.4371913,0,0h0ZM179.019327,1033.1580192c2.783733,3.2868754,3.6173427,7.0255419,6.3309538,10.3224616-14.5217238,20.8595708-27.7428785-4.0200289-6.3309538-10.3224616ZM125.2561827,1101.581001c1.58964,1.1538146,3.0962163,2.0581854,4.5983963,2.8724619-1.6883306,4.3562364-4.6917832,2.7706071-6.6530598,5.5121297-1.6525833-.9807462-2.9427081-1.9778499-4.5294678-3.0224007,1.7676159-4.0448239,4.7108555-2.2994137,6.5841313-5.3621909ZM133.7157318,1103.8752116c4.51194-6.1389976,10.1773021-7.3431765,17.1741633-1.9067699-3.9091177,9.3562467-10.1409182,7.8696938-17.1741633,1.9067699ZM168.3993092,1064.8616138c.9764462,6.2863767,7.4228381,11.6445997,3.9886107,18.9623876-9.5941945,1.2719676-12.1853355-10.7229388-3.9886107-18.9623876ZM160.224903,1117.5946516c-4.283771,4.9730547-10.6779718-.8047239-14.1341508,7.1073048-16.631018-11.1722175,9.7761862-21.3865986,14.1341508-7.1073048ZM137.9571811,1132.2246874c-1.5498618,2.0811453-4.0632868.0303343-6.2094339-.692647,1.6018373-2.0911471,4.1526502.2172289,6.2094339.692647ZM144.9169566,1146.4538448c-6.4211247,6.3694113-15.7750327-.169791-23.2713231,1.1426715-2.9965773-11.6476192,20.6773098-13.3808955,23.2713231-1.1426715ZM135.3126737,1156.4487482c11.3925777-5.1604317-1.5780171,9.5936619,0,0h0ZM124.6574021,1197.9295268c11.3729443-5.4172905-1.4359159,9.6775668,0,0h0ZM149.3648429,1229.7331335c-8.8974482-.958021-15.5912386,7.257618-25.6188752-.0858736,6.4553057-13.2783259,19.4028194-11.1041293,25.6188752.0858736ZM186.8423951,1196.1503898c6.8818096,3.7779639,1.096721,10.1688163,7.238689,14.1419243-2.3651076,1.1007615-4.8738469,1.9346217-6.6647104,5.4368746-3.7766247-5.6794748-3.8501664-12.1081599-.5739786-19.578799ZM176.5703073,1247.4728334c-6.8145403,4.6458669-12.9631986,12.2382286-22.5078128,4.9514901,2.0405324-2.4482153,2.1772059-4.4728924.8648296-6.1474656,6.4116864-3.4678407,13.296865-4.3498716,21.6429832,1.1959755ZM178.6518167,1229.3262128c.5075358,2.4824802-.3344922-1.3631365,0,0h0ZM191.9562986,1218.6869501c1.4552168-2.247529,3.9446528.0988385,6.0562751.5934163-1.6075833,2.0747854-3.9323928-.0776689-6.0562751-.5934163ZM197.7084898,1209.4753597c.5463348-.6174329,1.082394-1.4458095,1.5373038-2.1993239-7.1812702-2.3335538-1.5932738-7.6532634-6.1983568-10.3890008,2.7208361-2.9917225,6.9587743,1.4243891,10.6177449,3.5820077-1.3937974,2.2276839-2.8724288,4.4023865-4.4193881,6.8069931,11.6840126-2.2559039,13.6016619.3363861,24.9112715,6.2455084-5.1140003,9.0237899-12.6959651,7.384873-18.5361792,14.0678333-8.3060153-4.8313407-2.52749-12.7480576-7.912396-18.1140178ZM178.2295106,1254.9645725c8.7506577,2.8142862-1.6358862,9.6048409,4.7982831,12.8327669-4.0187123,6.0942853-14.3524246-1.5629635-15.2853108-6.5974743,3.4940381-2.6099762,7.2053186-3.6491755,10.4870277-6.2352925ZM187.4283314,1260.7940242c1.0825724-1.4452392,1.8723986-3.0255572,2.9600408-4.3565365,2.1525347,1.3077282,4.3235621,2.8726722,6.9004477,4.1697238-1.0662666,1.5753952-2.0752535,3.1197167-3.0233507,4.4683978-2.2151259-1.2756187-4.6663115-2.7773192-6.8371378-4.2815851ZM172.7825254,1283.6004411c.270262,6.0427592,17.6777389,4.2952611,9.1653942,15.6304855-6.5133387-6.0404468-11.5571452-5.1772905-17.2990711-8.0100348,2.2497979-4.3609753,5.822227-2.9101785,8.1336769-7.6204507ZM215.5895661,1237.1098565c5.5941329-7.6454852,25.1376054-4.0316826,13.7445102,8.8836811-4.6765319-3.0621304-9.0679876-6.0357071-13.7445102-8.8836811ZM235.7988242,1230.7742215c-4.7743114-6.0341845,7.1017736-8.7108792,11.1692633-2.5901532-2.9341218,4.2632635-8.4779336-3.2114707-11.1692633,2.5901532ZM295.5109658,1207.8025439c-.4002707-1.495304.7162211,2.50301,0,0h0ZM317.2079615,1199.3012959c2.436315,1.3961432,4.5245265,2.8705289,6.898946,4.5371445,5.134596-10.8530911,27.4791525-3.6027894,36.8312908-2.1502464-1.6729219,4.9137798-13.5532096,5.2316569-3.5940565,10.4011348-4.7981409,8.4302586-12.5998899,2.4748237-17.9058471,7.8353589-3.0558974-2.6337519-1.5489417-6.278859-3.9626568-9.0096094-1.3266143,2.3663414-2.9392262,4.815287-4.3498166,6.7551659-9.1649992,4.1884937-28.8202673,1.918423-30.3685627-12.8794084,4.596406-6.4954334,12.1956767,2.2929836,16.4507029-5.4895399ZM358.8597753,1219.6685741c2.908956,11.387613-18.6999202,22.1056151-21.5525701,8.5725692,5.7543268-9.6950557,14.9284444-4.2367226,21.5525701-8.5725692ZM363.9096848,1206.6897469c2.3117131,1.5822888,4.7590131,2.8954677,6.917893,4.4215908-1.0781474,1.6154729-1.872809,2.9461994-2.8849992,4.6944107-2.3565074-1.5313265-4.6651365-3.065737-6.828824-4.5471889.9340614-1.5096048,1.8683013-3.0186393,2.7959302-4.5688127ZM306.2478966,1221.223035c-1.4114358,2.2513628-3.951297.0560323-6.0185162-.5507935,1.6312647-2.2712659,3.8836278-.096184,6.0185162.5507935ZM264.9751606,1265.5027102c-1.6583502-.8630954-3.1570427-1.978411-4.7358288-3.0555142,2.0466254-3.9736567,4.768884-2.3300955,6.7929001-5.183301,1.5779722.9984572,3.1603278,2.0869674,4.7360933,3.0003262-1.6832594,4.0002227-4.8417946,2.6033885-6.7931646,5.238489ZM245.5317556,1275.7146861c-.8067883,1.5060988-1.7347968,2.9950237-2.8126489,4.573418-1.7199148-1.0398304-3.1014977-1.9770059-4.6027371-2.9443685.9367868-1.6569875,2.0197812-3.0228318,2.8103788-4.5426502,1.5963396,1.0171314,3.1592402,1.8493532,4.6050072,2.9136008ZM242.7567427,1289.9260073c-3.5945657,4.2438681-8.9225837.5846109-12.6538626,4.8218285-7.5111562-7.8804524,5.0272599-14.1458573,12.6538626-4.8218285ZM249.3815771,1274.9621408c3.5965588-7.9496934,9.5134189-4.0896216,15.6437442.4926611-4.6294657,2.5795294-9.1897932,5.0278005-15.6437442-.4926611ZM279.7550322,1252.5062838c6.8311824-4.06437,13.5431972,5.3686316,16.5439156,4.4240324,4.0149321,6.479075-8.8861923,12.1917035-13.3023053,10.6442173-5.3391054-4.1629669-6.6272038-9.0619057-3.2416103-15.0682497ZM255.597312,1295.0623868c2.8882189,1.939795,1.4487153,4.9219446,5.4355452,6.5423918,1.5935064-2.7241292,4.2661982,1.0683918,0,0-3.9987947,2.1135463-7.9778756,5.2666711-13.4599803,1.1910319,2.3792445-4.0833732,5.1070077-6.8568424,8.0244351-7.7334236ZM270.6287746,1291.6431764c10.6994511-2.21646-10.6996429,2.369938,0,0h0ZM301.5103515,1243.9372748c.2208293-5.8601608-.5984055-11.6641364,1.7983097-18.113109,9.4800234-2.2632034,19.9593533,1.2086575,31.7534344,10.8373264-10.5617944,4.1972911-23.5067977.2920891-33.551744,7.2757826ZM293.6727228,1271.0888179c11.164574-.6499831-10.5560089,4.1597473,0,0h0ZM290.3343292,1291.5924844c-2.7437411,8.3497345-8.2070369,4.7084255-12.0296222,8.3016399-3.7711984-3.1006192-2.6339322-7.1867339,1.278934-12.0743666,3.2381819-.3037888,6.6439443.8685287,10.7506882,3.7727267ZM304.1464334,1274.6607905c-2.616993-4.7091673-5.09968-9.3013069.6701253-15.6629552,6.0072769,2.5480774,2.2308417,7.32539,9.9018949,9.5231757,4.7598116-6.7356763,8.1021831,8.3624112,0,0-2.5818303,7.1681606-7.5556723,1.6309917-10.5720202,6.1397796ZM311.1292209,1279.1717c5.0648912,4.5794035-5.6302407,8.8008439-8.8742147,3.847025,2.5911113-2.6818657,6.1477272-.9694197,8.8742147-3.847025ZM309.9321664,1255.7646028c5.9570735-11.2144035,16.6191284-1.8614625,23.1426842-10.8372614,8.5370627,2.5999609-1.7943574,9.5686805,4.6613486,12.5512469,6.1465893-5.0974947.5653104-7.8270895,5.1889171-12.8087519,8.3121895-.1118622,16.5436424-2.3388386,17.2469784,8.1177202-4.6316757,11.1115152-13.3155612,4.5642848-19.3188021,9.9037614-2.2919013-1.3248597-1.5198272-3.4682088-3.1170934-5.2127297-.5135768,1.9948726-2.8876282,4.5299167-.5073041,6.2554258-7.7375649,4.5677836-18.8344867-7.4256349-27.2967287-7.9694113ZM398.1574546,1228.604251c-8.8654214,6.8468833-18.8388394,9.1542657-29.9101553,6.6622469,9.3296671-5.2431863,18.7486321-9.9088238,29.9101553-6.6622469ZM389.7624979,1217.0008375c.3421126,2.3820776-.423201-1.8607568,0,0h0ZM444.5129481,1216.6914711c-6.1216795,12.6235037-20.2152996,14.3490768-20.8886532,2.6595494-1.4047191,2.194782-2.9617953,4.4309766-4.3526996,6.7679657-7.7244572-3.5211343-4.5289203-11.0153777,1.2193728-12.0125618,2.3615794,1.4314668,1.5258793,3.5095627,3.1333268,5.2445961,5.1681973-9.5730155,12.4178582-9.6404489,20.8886532-2.6595494ZM446.3633648,1179.2013298c1.8685555-3.1959323,3.8877029-6.1027196,5.8850726-9.3752789-3.4453454-1.8631496-4.5010917-4.2605026-5.4258171-6.6493844-2.4198223,3.8756496-4.963315,7.5702024-7.360821,11.5371817-10.242206-3.0082395-2.7248788-9.8427777-10.7395385-13.3707904-1.7238543,2.8939131.8806462,5.0997007-2.1682897,8.2736168-3.2511296-2.082976-4.459118-4.32248-5.3857432-6.8335017-1.4428853,3.1854691-4.2226755-.5190604,0,0,2.1801624-2.3942207,4.2093516-5.0167678,7.5540328-1.4401151,2.7583168-8.6173393,8.1613868-4.8162907,11.7117058-8.3430538,7.3890759,2.1951802,1.9206447,7.4287166,6.3886538,10.1766626.9357403-1.4061816,1.8022992-2.9554051,2.8797267-4.3990757,9.1773018,6.9733986,4.0084699,8.4135792,10.6421375,13.3336806-5.62557,6.4323615-.7145827,11.9647768-8.7573229,13.7782357-2.819027-2.0528707-1.2208063-5.1341544-5.2237969-6.6881774ZM446.4041574,1188.9854014c-1.479634,1.9733812-3.8831276-.2164033-6.0843675-.7812514,1.4929315-2.0689668,3.9526689.0844325,6.0843675.7812514ZM441.7689932,1176.22366c8.329475-7.4249781-3.3071312,10.6356808,0,0h0ZM424.0164468,1148.6096856c1.4228082-1.5886489,3.638982-1.0341096,5.3203625-3.2052521,1.3727413,1.2211042,2.9525922,2.1275071,4.3919719,2.9552144-2.069372,5.5819575-6.0454536,2.4909699-9.7123344.2500377ZM460.5911734,1136.8042935c-.2069865-1.6960944.4978182,2.3333553,0,0h0ZM480.3628329,1155.9220661c3.8000701,4.0333836-6.127551,18.6242984-11.8258506,8.46456,2.8401073-8.0617811,9.2148333-.4130969,11.8258506-8.46456ZM499.5753268,1136.1389272c-.2043245-1.7276109.7198421,2.3985133,0,0h0ZM505.5114116,1162.2035285c-3.9087382,9.4174952-10.6527537,5.803727-14.7647274,13.2609518-4.7486306-7.0447602.1646489-15.9875823,2.421015-24.1178079,5.8231982,3.2105423,11.1534049,6.5265868,12.3437124,10.8568561ZM498.4930164,1148.1392438c1.2621201-2.1802184,3.7994677-.0329446,5.9313146.584301-1.4170335,2.1554278-3.873581-.0478129-5.9313146-.584301ZM473.8869303,1206.478648c.6899562-.4726365,7.5664404-1.0282434,8.2241232,1.9520842.5155073,2.6640476-13.0644826.675903-8.2241232-1.9520842ZM471.6949494,1214.7966237c11.3759224-5.2716925-1.4956441,9.7388378,0,0h0ZM452.435919,1234.6431677c3.9482635,4.3909084,2.473551,6.5581228-2.1231159,8.283903-2.4626731-2.2808509-.1731908-5.3022868,2.1231159-8.283903-2.9354648-1.582482.6939683-4.30809,0,0ZM432.2218648,1241.023511c2.5131769-7.3295273,7.5650086-1.7372355,10.560518-6.294608,2.046953,4.1962198,4.8518167,8.1189602.9565118,13.6310509-3.8956958-2.5419196-7.6824766-4.8918635-11.5170298-7.336443ZM404.7729863,1268.6251811c11.4346798-5.2600211-1.3012697,9.5615431,0,0h0ZM449.9051114,1213.5795979c-1.3722654-5.2639743,4.9945119-15.0529872,10.0358048-15.9642001,9.4876908,5.9901652,4.1567045,14.7887931,1.330388,23.4029472-3.7413528-2.5169506-7.6232338-4.9166633-11.3661928-7.438747ZM465.1388397,1184.7373706c-.9511905,1.4348522-1.8707081,3.1290173-2.8025411,4.5276739-8.4613555-2.1038674-.9495185-7.5491193,1.1379953-12.0364866.882031.6294805,1.6539128,1.1030646,2.3789628,1.3289268,3.3228549-3.9014797.5530503-6.459438,3.5935828-10.3646263,12.8286783,4.7061465,7.1536611,22.705418-4.3079997,16.5445121ZM475.7278471,1143.1608951c2.1535373,1.5090496,4.5935701,2.8370265,6.9008365,4.4451283-1.4553227,2.3452487-2.9358446,4.6119675-4.4042106,6.8755088-5.2475815-2.8158533-6.131382-6.5388145-2.4966259-11.3206371ZM461.7821658,1160.0179145c-3.0947053-2.21145-6.3413974-4.5343952-8.3723832-1.9175895-7.6643136-8.4499567,6.330682-17.036582,12.4624023-14.7171818,5.6322977,3.9672747-.2785661,10.6786044-4.0900191,16.6347713ZM450.3684536,1197.8041343c-1.6030642-1.6449804-.8305682-3.7089346-3.2020427-5.0339426,1.0181872-1.6329893,2.0213981-3.2738162,2.9432177-4.7244851,5.6317689,1.9924181,2.2471243,6.0666506.2588251,9.7584278ZM342.8245657,1289.9414548c-3.7056184-3.2432482-2.6533871-7.4430223,1.3322722-12.1580598,3.7765413,3.1176941,2.585526,7.2081427-1.3322722,12.1580598ZM366.1216698,1243.5023442c4.7980004,4.4669177,7.6535783-.9458858,12.845438,5.1899612-3.5216531,7.956938-9.9912242,2.0743735-14.1341728,6.8931079-3.753982-3.203693-2.769073-7.2483951,1.2887348-12.0830691ZM355.3601314,1275.2439605c-.3445365-1.4332584.6438474,2.6239281,0,0h0ZM392.6374012,1257.3788299c-8.7000095,4.8319993-17.9755864,7.6304983-27.7458453,8.0276184.4565182-7.2181995,17.7911078-15.2962345,27.7458453-8.0276184ZM409.6127173,1236.1735545c2.9389053,4.0949561-2.4097074,4.2581816-4.3608742,6.73984-2.9577587-4.3333127,2.3199925-4.2727296,4.3608742-6.73984ZM412.5797393,1221.6573085c-1.6232369,2.2568971-4.0844428.2749088-6.3717203-.6049199,1.6268798-2.2092339,4.1064114.0294363,6.3717203.6049199ZM396.0412357,1237.0262638c2.6404925,2.7330538-1.5880052,6.9241828-3.5932053,10.6399948-3.6398227.1909263-7.9204694-.903628-12.8380444-5.0882867,4.9907284-4.2586893,11.5058896-1.2402084,16.4312496-5.5517081ZM361.9905345,1224.8469305c5.6990384-10.4360786,14.0920669-7.8461529,22.4283754-4.9692144-6.3360139,6.3672446-13.9586381,8.0004006-22.4283754,4.9692144ZM329.8394946,1274.9257117c7.8875243,3.708063,7.4949069,8.943182,6.9672637,14.2330763-7.0312275,6.5108948-15.2224473,7.8698582-25.4842401-.201933,5.537432-6.6740072,13.041673-5.6156747,18.5169764-14.0311433ZM354.0694835,1287.3589381c11.1671302-.58378-10.4310059,4.187009,0,0h0ZM403.8288749,1254.9777261c-4.1835293-11.4164745,12.0166548-4.7689678,14.835481-13.1729205,4.2151917,1.8239293,2.6377794,4.873654,5.5095307,6.9169147-5.6781515,7.2008764-14.4839213.0680151-20.3450118,6.2560058ZM385.6489817,1288.41695c2.2981134-7.3724416,7.542036-1.7726284,10.3362541-6.2488546,4.7609557,5.1510055-6.1460442,12.2334549-10.3362541,6.2488546ZM384.3521356,1300.3560274c-3.4320607,2.6519499-6.9148516,3.600866-10.4991637,6.1965087-4.46448-5.0240203,6.2804451-12.2141818,10.4991637-6.1965087ZM429.2844565,1245.6484917c3.7311314,1.9759847,7.9614755,6.4858973,10.6682851,3.5474071,3.6389507,3.1482631,2.6519501,7.2243033-1.2673684,12.1133289-5.1874913.8342259-11.5848175-9.2720938-9.4009167-15.660736ZM451.1447339,1246.5623141c.5085896,2.659951-.3414003-1.5012819,0,0h0ZM423.5768504,1264.5201937c-1.4689253,2.2637552-3.867803-.1654283-6.0047105-.6827776,1.4841139-2.1952041,3.9368817-.2782045,6.0047105.6827776ZM417.8129895,1273.5764207c4.0750332,1.5321062,2.4086462,4.6096721,5.4423572,6.6442087-5.3449494,8.7359942-12.510032,9.5039755-20.3544131,6.2839955,4.4102543-7.1103448,9.9838568-9.056032,14.9120559-12.9282042ZM461.4974112,1240.4059679c1.5871929,1.1239813,3.0207514,2.0511549,4.5310852,3.0275695-1.9355602,3.0578452-3.6655732,6.0701579-5.892517,8.9192329-1.293021-.8302555-2.8017486-1.801537-4.3945914-2.9055514,1.8700435-3.0310822,3.8893486-5.8032866,5.7560232-9.0412509ZM472.0564718,1234.2828066c8.2117193-5.3398438.0702263,12.4956829,0,0h0ZM474.8205754,1219.9765863c7.0606198-1.8242484,10.0841692,4.3782974,9.9021159,9.5418924-1.966987,4.0520591-17.8321937-5.0610251-9.9021159-9.5418924ZM505.2669295,1197.5956049c7.1935449-8.3175395-10.5681016,12.3879893,0,0h0ZM486.7683981,1221.3013793c-.2658798-1.6901898.5106719,2.4144565,0,0h0ZM463.5980074,1267.4810449c-9.6669788,3.7769836-13.0081648-11.8656391,0,0h0ZM503.8529074,1209.7485616c8.4815479-7.3692414-3.0165067,10.7219541,0,0h0ZM501.8734462,1217.9812513c.9266251,2.5110217,1.9760675,4.8301943,5.3552731,6.5800339-3.6739679,8.016497-8.9862922,6.8108142-13.3606513,10.9680582-.6190325-5.6524624,1.9858929-16.4410005,8.0053782-17.548092ZM436.9737092,1298.8905837c1.8623967-3.0775327,3.9365945-6.1605997,5.9445891-9.2411106,9.9316742,4.2431658,1.2638629,14.3971487-5.9445891,9.2411106ZM476.7832425,1246.9050465c7.0429284,4.3148771,2.412435,11.3657674-1.9972249,18.0657679-3.6892484-5.0280196-4.4510582-10.6664887,1.9972249-18.0657679ZM459.2855091,1284.1672731c4.0771765,1.7330706,2.6976447,4.7327736,5.3664684,6.7719038-1.8748903,4.8366695-12.501948-3.505897-5.3664684-6.7719038ZM488.7226997,1248.2631408c2.7174452-3.0025592,7.370957,3.5641199,9.8531154-.0742951,6.7767104,6.8441017-2.9015027,7.6714604-7.294819,11.4739475-5.8588478-2.7961579,1.7002135-8.402676-2.5582964-11.3996524ZM528.0112097,1212.278974c-9.3597201,6.1637448-.6039413-7.2652166-3.9516938-8.8965281,2.1678781-2.3534312,5.5135639.892234,8.514557,2.0997844-2.8517097.9104964-7.549293,3.994764-4.5628632,6.7967436ZM538.1429576,1186.5374248c1.7474478,1.6361203,2.6968298.605731,3.7732247-.8012159,5.0042268,1.9621011-3.3990498,12.3150959-6.7063035,5.4980669.9225281-1.6825433,1.8516255-3.4041277,2.9330788-4.6968511ZM564.8151038,1165.092599c-3.5525229-3.0281514-2.6320416-7.2787501,1.3676017-12.0651663,3.5634632,3.1411601,2.6192711,7.0998565-1.3676017,12.0651663ZM515.7597364,1201.228605c3.8271767,3.2414908,2.8371458,7.2878352-1.2303268,12.1136358-8.3011723-2.1602933-.7534453-7.6649519,1.2303268-12.1136358ZM534.1785887,1177.6204019c8.5021521-7.1853251-3.0169712,10.6244128,0,0h0ZM573.4955826,1140.0862932c.5946364-1.0113957,1.7786541-1.8402656,2.9988177-3.0599207,2.3911711-2.3262421-.4307848.4403818-2.9988177,3.0599207-1.4989923,1.405217-2.4661193,2.3008511-2.9981747,2.8098265-.1692985.1813867-.3238649.3518199-.411878.4407683.066309-.1002758.2237267-.2415847.411878-.4407683.6358914-.6454156,1.7671228-1.819083,2.9981747-2.8098265ZM543.1552736,1163.9388407c.8740356-1.5453416,1.8151748-3.1303855,2.8104089-4.4625066,1.6017657,1.5407715,2.8394193.3770107,3.7778941-.9623975,5.0685709,2.0096368-3.3087883,12.7396321-6.588303,5.4249041ZM552.6268868,1153.9121864c8.4223777-7.2461515-3.1142689,10.7037018,0,0h0ZM590.2678855,1110.5917152c2.8356018,1.3814117-.5861076,4.0664419,0,0-8.6089062-6.5037289,6.8395769-9.802952,0,0ZM514.8112301,1187.8392655c-8.5480959-5.4889077-2.016462-14.1247051,1.0420032-21.8208595,4.993051,4.1917249,7.7672576-1.0728821,12.9619711,4.8779703-1.9827565,5.9167957-5.1453569,20.7265594-14.0039742,16.9428892ZM497.3670464,1179.7957376c1.6010265-2.4459465,3.0119344-4.6789845,4.4799936-6.9054842,8.6825963.7196673-.0022497,14.4933837-4.4799936,6.9054842ZM526.4831442,1159.6714005c8.2734748-7.3097684-3.3084939,10.7093721,0,0h0ZM548.5542322,1135.3856294c-.3369517-1.7412154.4828843,2.3436641,0,0h0ZM542.0111476,1150.3545989c8.4888877-7.2857492-3.1649876,10.737732,0,0h0ZM559.0453996,1129.1615654c-1.6819404-1.8770394-.9709997-3.9035725-3.1277269-5.3627806.9410944-1.3890711,1.8788735-2.9668423,2.9477688-4.3777443,5.5558165,1.887773,2.2387496,5.8857957.1799581,9.7405249ZM572.7974667,1102.4643458c-.3232002-1.4831423.649551,2.6221434,0,0h0ZM576.3967862,1091.9019251c8.3984127-7.3607608-3.0841574,10.7619087,0,0h0ZM564.5621906,1100.3385379c2.4903634,2.6635169.9861117,6.3572892,3.8364502,9.0365355-3.0560987,3.561268-7.1055426,2.6392516-12.0970206-1.3513303,2.2984939-5.3180116,5.4604362-5.0049365,8.2605705-7.6852052ZM502.0780692,1192.3496402c-5.6381177,8.5215205-6.6026031,4.9709628-8.8450076,13.6340957-5.0909893-2.6876396-5.9164884-6.5384683-2.2550837-11.1150568-1.3157926-.8049703-1.5359121-3.579648,1.3176983-2.374823,1.3006967-2.743342-.2501353-5.137942-1.5070578-7.3377123,4.0560448-5.0364241,10.7973028,5.0543661,11.2894507,7.1934964ZM478.1572144,1199.5473599c-2.6130006-2.6251839,1.8938706-6.8852599,3.7415899-10.6921016,2.1196796,4.7608345,1.2890355,9.5706938-3.7415899,10.6921016ZM526.1180524,1140.1738105c-17.4112422,16.8223849,5.7953401-5.7697428,0,0h0ZM533.4107373,1128.7130547c.3637859,2.3752957-.3506713-1.7250247,0,0h0ZM511.2702138,1153.033077c-3.6855413-4.8400684-2.764163-15.0473239,4.2255093-16.5920053,5.7678488,4.1082932-.3527102,10.5797382-4.2255093,16.5920053ZM547.7962179,1096.0453573c-1.3875133,2.3478257-3.9522469-.0050377-5.8549612-.6144549,1.5478335-2.1656733,3.8774573.0221783,5.8549612.6144549ZM564.7286073,1065.069202c2.8703912,1.4925911-.8331855,4.1193341,0,0-10.977475-3.9891862,3.855313-7.1627962,0,0ZM521.8526289,1111.4955693c4.6057566,7.3706293-4.6238291,17.5663926-10.8951211,22.1092729-8.2936295-10.4791209-.6770363-20.2803686,10.8951211-22.1092729ZM489.1440359,1142.2221468c-2.0907251-1.5224424-4.3933346-2.8815231-6.6899987-4.3576842,2.4874384-3.2493209,4.5517632-8.8854305,8.1764128-7.8360846,4.2499377-12.1173384,8.9815932,9.5118283,0,0-2.926635,4.7374559,4.4772174,7.1359508-1.4864141,12.1937689ZM558.5431261,1054.5052208c-.3357915-1.4053112.6349873,2.4795445,0,0h0ZM523.1172294,1099.5114767c-2.0426183,5.433318-5.3672265,5.1467215-8.1751227,7.6641033-7.7116149-3.500105-4.1274647-9.6543688.4642921-15.7143937,1.089299,3.1689728,3.7133572,5.8094825,7.7108306,8.0502904ZM530.3115578,1078.3948723c2.7452219,1.464798-.8244312,4.3614374,0,0-2.8539266-1.3819396.7115008-4.2340492,0,0ZM520.4685804,1078.4415306c2.455768-2.3339314,6.0824165.7750165,4.5965906,3.0628071-3.1469478,2.5865298-1.7369482-1.6826132-4.5965906-3.0628071ZM539.152046,1064.6882996c-6.4437313-3.1204022-9.2323495-7.0112373-4.6343626-12.6210981,6.2347385,3.1369123,9.1118357,6.9763089,4.6343626,12.6210981ZM501.0968931,1088.5885266c4.4643511,7.5250873-.0806224,17.1166209-8.0175868,17.4110182,2.3017747,1.4144472,4.6018598,2.9815886,6.9230469,4.6341778-2.7896096,8.0090342-1.170004,5.3863225-7.3845952,11.3611455-.7201998-.6005927-1.4388492-1.0601503-2.1497668-1.4369645-1.9457103,3.0854429-4.3814253,4.2327201-6.7911881,5.0907144-7.6771892-8.2749763,5.9695082-10.1600653,9.4025032-19.6490732-2.8109249-2.1230351-1.150645-4.8498989-5.2337382-6.6419017,3.555095-7.9861458,9.0092468-6.8555262,13.251325-10.7691165ZM469.6181156,1132.7629482c-8.8976689-7.2324357-2.5550968-25.8319662,6.9756802-30.9427518,4.9538321,8.7971871-1.4317955,20.1269047-6.9756802,30.9427518ZM501.0517689,1078.9467045c-1.5824312-.9726833-2.8752056-1.9382313-4.5975615-2.9278283,1.0660655-1.6360733,1.8506101-3.1352118,2.9256218-4.6826598,1.5806342.9669406,2.9004275,2.0768689,4.745472,2.9122288-1.057278,1.6821668-2.1492733,2.9412004-3.0735323,4.6982593ZM460.1825923,1107.494002c-13.64765-14.2034657-7.2969241-32.6408581-14.3422039-48.0417993,10.3111125-9.3970152,23.3358236-7.0941828,33.5064001-17.0583897,3.8483815,18.3581543-7.5710432,49.6763047-19.1641963,65.100189ZM490.1914322,1065.638135c9.4278879,8.2224811-10.6450584,12.5522948,0,0h0ZM481.4774457,1079.280702c8.4552518,4.2336318.582134,17.1233949-5.7686317,18.6766775-1.1082346-5.4568035,2.7549769-12.1260811,5.7686317-18.6766775ZM511.2190499,1062.8743608c-10.0106781,3.8112666-4.1130774-13.8669078,0,0h0ZM509.4549093,1045.7657779c2.359625-3.2275299,4.5060687-6.3939008,2.3062741-8.5190552,8.3754064-4.7366888,9.4936573,18.5366395-2.3062741,8.5190552ZM491.6582253,1063.1734508c-7.2802966-4.7972898,1.9517416-13.3062224,3.39886-20.3084282,4.2666074,5.7584716.2337124,13.0381598-3.39886,20.3084282ZM509.7841767,1019.9661676c-5.6746417-3.7523896-11.4517026-7.7720526-6.9343752-14.0899495,5.6134025,3.9669253,11.5183369,8.0630475,6.9343752,14.0899495ZM470.9435857,995.2150289c10.3477447,4.3020832-.4780507,12.9728295,7.9089351,17.7907728-2.6462663,8.7412894-9.560084-1.6868367-12.7824984,4.8990259,6.7965864,5.1866034,14.3432691,1.4556585,16.1092704,10.0511511,2.0161244-2.5082069,4.0578376-4.8165682,7.4047504-1.5649804-.9454259,1.5313206-1.9454562,2.9081499-2.7951588,4.6293123-1.5918203-.9446545-3.1808926-1.9765839-4.6095916-3.0643319,2.0694003,9.5650882-8.3493002,7.3215974-12.625321,14.4506798-3.0898804-1.7057411-4.2816449-4.1275353-5.4310561-6.5500584-.7613572,11.1108793-7.3090444,10.8421395-13.9352242,16.79238-1.5259746-5.4049879.5875766-28.8824221,12.2859803-24.25029,1.3477231-3.5896454-.3564448-6.55432,3.5963506-10.4938625-2.4542961-6.4545636.3630398-20.7467574,4.8735633-22.6897987ZM468.5969619,983.8474542c-3.2598943,3.8085136-7.3677582,2.8558927-12.2248969-1.2136713,3.6174823-7.864816,11.0413887-4.6597939,12.2248969,1.2136713ZM445.4940112,949.7070277c-1.681338,2.1892888-4.0789496-.0017101-5.9323504-.5896126,1.3318625-2.2515112,3.7932363-.012835,5.9323504.5896126ZM407.8805271,957.8385728c8.6277463-7.2922543-3.0223585,10.8033121,0,0h0ZM399.6083348,945.9030588c-2.6268387,5.8916543-8.3629424-1.6512794-11.1809772,2.6307642-2.2626595-4.3372457-5.0549652-8.1418074-1.1651989-13.6515864,7.7703908-1.7832951,8.7378716,6.6036893,12.3461762,11.0208222ZM553.5740652,706.496843c.5031089,2.4663319-.4595678-1.4886882,0,0h0ZM539.3495356,723.2031632c8.4895215-7.4017938-3.1562425,10.7656792,0,0h0ZM524.6184528,746.0112164c-7.1351231,5.7306027,1.5641806-7.8027951,3.724637-10.5521647,7.4194313-5.6605126-1.2982925,7.7139596-3.724637,10.5521647ZM549.1622712,713.2100352c8.3456024-7.2953925-3.298492,10.7613476,0,0h0ZM632.937539,602.7835865c144.1913284-203.4172852,240.3420109-392.3524596,336.9988587-579.4158923,3.3641464-.5636257,5.5819647-5.4950778,9.0169403-4.0933209,2.1355632,1.0193529,1.5569151,2.4540637.6917188,3.9295959-64.9164173,126.705133-135.2389773,269.6872745-223.8046454,413.4854504-52.7760957,85.7077239-118.1430681,163.1306974-172.2018977,237.8230001-2.6349811,3.6743374-4.3844322,3.5367048-3.6456398.718659,5.3028715-20.5553742,37.5984133-50.7068511,52.9446651-72.4474923ZM515.8785866,749.9934155c-15.637532,42.0923575-78.9022889,108.7432032-104.9241479,158.1815246-11.8964186,2.3955854-1.3535619-17.2433202-.3011814-19.5294861,21.9919535-46.1534466,70.6481485-90.407164,105.2253293-138.6520384ZM324.533203,907.4667572c-4.1271262,8.9717247-10.6504411,5.7911057-17.3957744,1.7068506,4.4274754-6.2528355,10.2506533-7.1087625,17.3957744-1.7068506ZM310.5705336,898.4922462c-.1114218-1.5487843.715131,2.4795144,0,0h0ZM304.9458272,907.5048912c-3.0158302,2.2831253-6.0795712,2.9662831-9.7687792.2257449,2.5411825-2.1590236,5.7545554-2.7362113,9.7687792-.2257449ZM303.2355982,900.0842239c-1.4037692,2.255852-4.0043509.0425762-6.0695302-.4796843,1.4065671-2.3049446,4.019179.0448348,6.0695302.4796843ZM293.8303697,919.8806798c4.4234954,1.6491246,1.2929465-3.2543975,4.4197676-6.7457446,8.9559513,13.2801588,15.337757-4.6096444,29.4475845,9.1737163-5.3130352,11.691672,4.5463215,20.0603029,6.4937713,30.0361377,6.3366165-8.5566144-5.3603519-13.1641478,1.10433-21.797781-2.2812982-2.9919802-2.7251767-5.9534294-.0424759-9.6733826,6.0625112,4.1514374,7.0046186-1.0846727,8.7902855,5.5784874-.4056387.7568827-.7863626,1.6894447-1.3310185,2.4103008,3.1240737,1.0525645,5.3402692-.3259701,7.824381-1.7088122,8.8434007,7.2130975,3.3332541,17.4923829,9.2223566,25.5622892,2.5925787-8.638701.8136857-15.9646175-1.0553753-23.4025871,14.889657-11.5329188,30.3205321,20.250362,12.3083952,20.749906,11.2861884.8893498,9.5467667,7.7018591,13.0149589,14.7990732,2.5656864-3.5856045,2.0465573-6.7495154-.1707777-9.6331403,5.1641529-3.5483708,11.1108553-2.6207199,18.0316322,2.0442256-4.565377,8.8039015-10.3764419,12.1019597-17.8608544,7.5889147-2.3919584,4.178823-5.0410056,6.7936083-8.1803909,7.7453254,4.0411298,3.1807972,6.763413.6839893,10.6128553,3.6624384,13.1146589-18.4561576,18.4929412,1.5272895,22.1179502,11.0207756,5.3665747-7.9224443-3.0805945-12.5625017-.3813569-19.8037198,3.9505341-8.3053461,11.1915162-2.3829574,16.5944103-5.4005019,5.6331278,12.9992658,1.5640164,28.350055,8.8252175,41.3351967,5.8410463-6.5242085-2.2911583-10.1557079.4481555-16.0581355.2456281-7.7940995-3.0296517-14.9392012,2.596882-23.9279963,11.6793222,3.9467826,8.958042,11.2556392,15.3255779,16.1857517-2.8240765,8.5032426-8.2236829,4.8113208-11.8360309,8.4120142,5.7288401,2.7328905,12.1601276,1.7110998,13.6638277,8.8419656-5.1439494,10.060749-11.5302633,13.0253293-20.1984122,6.5464002,2.0421039,10.3563746-9.0598696,11.1884043-13.9371042,16.6282787,3.9547684.7375241,7.5774206-.0165757,11.0213195-2.378544,3.3056095,1.9068747,4.5186678,4.2606386,5.5112223,6.610136.8236083-10.9099375,6.1578279-7.6991382,12.5364098-14.5387046,3.4830861,15.6658495-2.6354166,39.1058947-17.9327156,52.8941839,2.8517624,1.3149876,5.1854075-.1184581,7.4001451-1.5816991.7812936,6.4451748-2.501655,13.6980922-7.1106352,21.1699426,5.2269108,3.0239566,7.0936531-9.0690271,10.9905713-12.0924936,4.847561,11.8755891,1.9933435,25.6776977,11.996005,36.539502-9.3329191,11.1943182-21.9926737,7.5543255-31.3420696,18.6379532,11.8350369.3199736,21.7475028-8.750081,32.995305-11.0892414.6554453.4736992,1.5793349.9247659,2.2395431,1.5497665,3.871103-10.806519,7.1107817,3.8653269,0,0-2.2203329,2.8902139,4.7994789,12.7585423-3.6630391,10.5328899-1.1598007,3.035521,2.1209245,4.7848246,5.4410884,6.6201422-3.9984059,8.9928556-9.4413128,10.5557434-15.611411,9.4224697-1.7771833,3.1917624-4.2097508,4.2710517-6.653155,5.3537319-8.7321961-4.6303957-14.611067-9.9519984-19.1732746-15.6605543,1.4784104-2.1934194,2.9565772-4.4656632,4.4249433-6.7292045-13.4777647-7.2307487-18.961696-32.1825642-20.1433019-48.5441549-3.92576-1.621397-5.6250824,4.1265554-8.4058917,7.5709981,3.576304,14.0286092,21.7007776,34.194074,13.6616592,44.5001219,8.0795092,10.069002,19.7364735,28.0326634,1.3055095,32.8030455-8.3457595-5.3505862-16.8435587-10.9529189-25.180679-16.1778383,1.5130376-9.3710676-2.143811-17.7355786-9.2941482-25.4415119,1.9674819,18.9711336,6.636359,25.8210549,17.2192833,43.4601605-5.1325754-8.1356819,16.1897948-6.2833204,8.229615,2.1457389,6.0471564-2.7977126,19.7579702,2.9104684,22.0442921,10.8234032-2.2765894,7.5372842-7.0418719,3.8973526-9.6712575,9.9369599,3.7405235,1.733839,6.1591061-1.2672531,9.8002958-.2230829.8716288-1.4349636,1.9361833-2.9177722,2.7959185-4.56885,2.942184,1.3117823,5.2800974-.1480468,7.615072-1.4591741,5.5631174,5.8174144,8.5938042,12.5130478,10.0818955,19.281847-4.9738434,7.0662781-11.5945011,6.6243763-19.3981161.2907578,2.5335968-3.8442481,1.9925402-6.8240841-.3437024-9.7375043-1.4760026,2.3391958-2.9388251,4.6804886-4.3435627,6.795164-11.7144696-8.8639469-15.4522428-9.1621529-22.0276383-20.6380158-.0377739,3.0451546-.3072348,11.7396671-6.7329934,5.4708065-2.529395,4.2098842,6.6382026,6.3614379,6.1317426,10.3722325-2.8721235,4.5194306-8.0576381-1.049816-10.4175504,6.2812223,4.5114406,2.7706751,6.9527109-4.5545114,11.9974764,1.1132564-.5511491-6.021869,1.2743299-6.3056609,7.4825815-1.5523892,2.9418365-5.0791061,8.8877247,4.1108294,12.9187073,5.1119291-3.661751,6.3745455-11.2133208,3.3678985-12.0912865-1.3350066-1.3907984,2.2392694-2.864139,4.5469486-4.3434267,6.777588-2.4468115-1.6258036-1.4530839-3.551087-3.1944178-5.1096341-15.4770194,21.6169112-30.0389806-5.4543701-36.9240714-17.6097671,1.1962239-2.2147039,2.9494992-4.3902249,4.2814369-6.7575644-1.471166-1.6737291-4.4612166-2.9823902-3.1146318-5.0487707-.8736021-.7786479-1.5174726-.9992286-2.3057887-1.5653567-5.6992188,6.4491453,3.6875142,9.517135-4.1114279,16.5863652-5.177287.476606-7.4976301-1.0171936-9.201799-5.9750497-10.1560845,12.0016973-36.2488817,8.5661892-57.6751584,14.5305836-2.4310335-1.4773227-1.6677045-3.648619-3.1280338-5.325739-1.0716207,1.5582847-1.9539909,3.155037-2.9392262,4.815287-8.7380905-2.4819514-11.7129244-7.2200398-22.7456208-14.8057234,3.2461026-6.3540681,7.9987049-5.4322426,13.4895731-.900344,1.0785176-1.4201749,2.0222647-3.0549187,2.951751-4.5010986,8.1095218,2.660479.3681782,8.9352028,8.414782,11.7067942,2.7572893-5.8830045-5.3026408-9.1094276.5356709-15.7004096,8.7732966,3.5110043,22.936238-2.5657372,26.401119,4.1286633,1.8312355-6.4010232,2.1222925-12.3689479-5.6245313-16.6839881-1.0667945,1.59372-1.9442326,3.128188-2.9490164,4.567872-1.4441941-.8631046-3.0209095-1.8375334-4.6081244-2.7654693-7.6054815-.5613894-20.9697684,4.5315834-24.917462-6.463409-1.4564419-7.4881399,4.030734-3.7685145,8.1967449-7.55498-5.6510515-2.7384456-12.2421752-1.465005-13.6760695-8.7830298-3.5285729,3.9664778.1354767,6.4525123.3290073,9.8466343,2.9766632,2.5546398,1.3997866,6.2704693,3.6708726,8.9356398-9.6297509,4.4622906-24.4898899,8.4090015-31.4370476-.9930022,1.5482888-2.2822882,2.8849775-4.498364,4.3583513-7.0020529-1.4426211-.6619617-3.0265496-1.9516148-4.3965244-2.8316816-9.9296273.0619173-18.4479238,6.2190708-29.4896503.5016506,1.485097-2.3301438,2.8063873-4.6334521,4.4351359-6.7386558-5.5233243,1.4039498-14.8483538,4.4746635-16.6248941-4.3686358,4.3009417-10.2553365,13.1959187.7207149,17.7759545-7.78219-7.8804489-3.5693829-13.4176501,3.5936503-21.6628509-1.3175027.7087857-1.8793289-.3349244-3.6498689-2.9912775-5.0447885,2.5508322,10.9855677-13.5873228,4.6123373-6.9718659-4.4780076,2.2299632,1.5771858,4.6132668,2.9780192,6.9718659,4.4780076,2.3824382-15.2137537,25.8112239-4.9087391,35.6644475-15.6910193-7.9656245-9.2367751-11.9275662-.9278613-17.252153,1.8516469-2.3692771-1.4540658-4.3959966-2.8500065-6.6889203-4.3342262-1.6171539,2.3163609-2.9561552,4.545058-4.2853557,6.7650526-16.5911133-1.0948083-22.2930198-26.6271556-6.9283876-30.1142997,10.2988843,6.4332884-.5463466,17.2692401,11.2137433,23.349247,2.3048611-9.14794-8.1887669-15.3430772.1138212-25.6276197,7.1027257-.8712035,2.7611893,2.0221256,9.2930862,5.934587,1.6515589-3.1649769-1.0087246-5.022723,2.112692-8.4152734-10.0087759-6.6768589-5.4360508-17.1762937-13.2697-24.5644614,1.0757406-1.5050948,1.8756412-2.9351472,2.9408719-4.515854-9.8126364-7.1847112-7.3075583-16.8054601-13.2161275-24.7834862,6.0202788-5.4431208,13.1989498-5.2491337,20.2090796-6.3362053,7.4948416,5.0726851,2.9453252,12.5384524,11.6960897,17.2482004-4.4798787,13.2776185-13.4842503,5.0998272-18.6890419,13.8714911,6.4934924.1936031,12.7736809-1.2330203,18.6660299-4.1532431,8.8657442,10.4103508,6.4353198,17.9463024,17.0547537,23.8390709-1.6204292,2.267871-3.6904962,1.4178061-5.3180592,2.9784746,14.9969274,12.5339196,11.7963377,28.8052143,20.9957931,42.767501.6044284-25.8788236-18.8800275-47.0865358-21.4778098-72.0002919-6.1838688-10.0685385-17.1462407-24.32956-1.2367821-33.0136624-5.8723889-2.7793968-9.2706452,5.1996698-15.9117664-.3906338-1.1172011-9.960104-5.062255-20.3202906,8.6238061-23.7405636-4.9561508-5.4205964-7.4024392,2.0226327-11.1641301,2.588547-10.8744484-4.9506994-1.1274135-14.0791566-10.0918974-19.3338225,3.5999623-4.2086112,8.9936867-.515475,12.65379-4.9201186,1.1314882-8.1689831-9.3009022,4.280489-14.3082396-2.6344752,6.264159-6.1306013-3.3754336-8.403726,2.7566154-14.3101392,8.388506,2.2612871,14.4321992-6.368935,23.2641192-1.2437396-.6464487,4.109745.0470456,7.8308883,2.4189524,11.4426287-1.48667,2.1290009-3.4704581,1.4165825-5.109735,3.017862,12.4552309,5.8380667,10.7686205,14.5783891,7.2078273,23.8751101-2.9238518-1.0971044-5.2731888.2861939-7.6273021,1.5181473,12.6418978-1.0878351,18.2177676,10.0094306,14.7472197,22.4082194,18.1888332,17.5955027,13.6581122,40.0921871,30.3275843,58.3033842-5.9903362-18.9296557-12.9414264-37.8398411-18.2332004-56.9204567,1.0842845-1.5378257,2.0063025-3.1839767,2.9443686-4.6027371-8.2736744-5.3543567-6.0531472-13.1308386-10.2179862-19.4045782,8.8415165-4.8700642,18.9017997-2.9915338,27.6927168-7.9252443-9.2105763-3.8138056-16.7302053,1.0402099-24.6666543,3.3094206-9.8109141-10.7933439-10.0351419-24.0173208-11.993794-36.6685166,9.0925301-3.4995446,17.6885001-9.7786898,29.4040967-.382829-5.9131955,8.4429064.1257205,14.2579671,6.2952448,20.2162604,3.10136-4.6093282-4.3035572-7.0312375,1.3658896-11.9725798-7.8391815-3.6136058-2.0844479-10.1414895-7.0624273-14.166979,1.5274078-2.3490192,3.736759-1.6401794,5.2277033-3.3052542-26.1601477-18.4274819,9.0418353-32.9768861,20.9270637-12.290565ZM304.6257556,1168.5709684c-.3425401-1.6229943.5907209,2.5121819,0,0h0ZM266.9980917,896.2394065c2.3097432-2.196237,4.9981936-1.8514231,7.4660321-1.7613697,1.6661845-2.6679704,4.3312928.962234,0,0-2.0105176,2.818298-4.1254068,5.1069313-7.4660321,1.7613697-1.4598708,2.8970488-4.1122588-.6945053,0,0ZM258.6613754,929.4364938c-6.4663723,6.793146-14.5223525,5.6325599-23.3360683,1.2299341,5.5221306-5.3360871-1.5898103-7.5441367,1.4345763-12.0072228,9.2862001-12.8485115,26.3735664-2.6813631,21.9014921,10.7772888ZM249.8640115,898.1762152c-3.2953435,6.4308434-7.1420167,9.1085823-12.6483694,4.5452096,3.0985414-6.3573638,7.0033366-9.1015069,12.6483694-4.5452096ZM227.841042,932.3295055c-10.4738557,8.896936-29.2655548,11.5359104-25.0752623-6.5554599,9.6039024-12.0493334,24.9399998-8.0852093,25.0752623,6.5554599ZM221.2193052,902.3146728c1.9463631,11.7314021-19.3213937,16.503386-21.5358724,8.7019764,5.4771111-10.8131124,13.0423251-12.0614029,21.5358724-8.7019764ZM186.9977074,925.6264983c10.7746302,6.2906834,6.7103335,19.9398439-3.3492063,20.0968915-3.7107285-5.6449894-5.3101058-17.7723917,3.3492063-20.0968915ZM148.1028784,971.27175c-7.5297007-8.3699706,7.5671847-18.3220908,15.5257967-9.4018999-4.0072581,8.8064724-11.7372081.4809541-15.5257967,9.4018999ZM155.2153617,949.9916448c3.6400271-10.8625826,7.0903088,3.8779463,0,0-1.5319418,2.9008642-4.3278927-.7372412,0,0ZM171.7020504,944.5390616c-3.1382028,2.614477-2.0751064-1.5705862-4.5984055-3.086618,2.2599652-2.3152926,5.8582324.7229666,4.5984055,3.086618ZM186.3718848,921.7313879c-5.3098658-2.8207854-6.1936663-6.5437466-2.493657-11.3891953,5.2498608,2.9992417,5.9336602,6.6313678,2.493657,11.3891953ZM185.104223,898.3708063c-.2617932-1.4409902.5773365,2.5094319,0,0h0ZM160.1244785,937.1852437c-3.7325655,3.7848408-7.1458311,9.4886245-12.5855486,4.5918797,3.1664148-6.3165596,7.087298-9.2254169,12.5855486-4.5918797ZM179.8556294,901.3951734c.5223005,2.6857572-.3283759-1.4996825,0,0h0ZM155.3679002,914.695968c5.4205356,6.7305639-6.6020088,4.5606184-8.2061256,7.6430712-5.5673762-6.7515688,6.5492551-4.4770584,8.2061256-7.6430712ZM123.8310935,923.3900738c4.1376904,1.7323446,2.5602781,4.7820692,5.4492259,6.7642175-4.1199946,7.6857419-9.7662087,9.1832507-16.5879778,5.4410704,2.8333046-7.949442,7.7346282-6.6884166,11.1387519-12.2052879ZM71.3974801,989.770221c8.5636348-7.3210363-3.0086814,10.7689749,0,0h0ZM39.9977906,1033.9812622c8.4216922-7.3624095-3.1613456,10.8474291,0,0h0ZM87.9286106,974.5137834c-4.2588664-5.4615722,8.29975-8.7306884,11.0234505-12.163523,4.6555115,7.2754846-7.8399627,10.708367-11.0234505,12.163523ZM20.2609269,1069.558961c-.2637924-1.5074146.6512206,2.5114105,0,0h0ZM40.4424783,1053.5391083c8.400863-7.196838-3.3227215,10.7019264,0,0h0ZM98.720359,987.7392403c.453225,2.4449956-.468346-1.3206257,0,0h0ZM112.4077099,961.3014781c-.9793825-8.5610999,10.8346829-17.5536126,18.5590434-13.7206024-1.2443049,8.8830813-8.6330385,19.7627247-18.5590434,13.7206024ZM127.6362305,967.873556c13.4132091,11.5191008-8.1767741,14.4588464-14.0899892,16.6880162-3.5801884-8.4317064,9.8721155-14.2980202,14.0899892-16.6880162ZM22.2222615,1096.6412562c-7.8631387,9.0893881-.1469606.0766695,1.4225345-1.747617.2748675-.1962201.2692698-.2921551.2692698-.2921551,0,0,.0055977.095935-.2692698.2921551-.2685409.3345083-.6054097.8989205-1.4225345,1.747617ZM40.9061702,1082.7713713c.4398323,2.3821834-.673417-1.5257206,0,0h0ZM91.6509248,1018.7726059c-3.4262987-7.9419104,9.5630783-15.0334852,15.6069265-9.2807089-3.7456951,10.0145897-11.3054507,2.7792979-15.6069265,9.2807089ZM131.7223506,986.5612152c7.783257,3.5509522,1.9418946,9.8980461,6.9293479,13.993836-8.1621276,4.7738996-15.4965353,12.6032504-26.143891,5.8387874.6388261-12.907292,12.2422284-10.9061394,19.2145431-19.8326234ZM72.0455833,1064.0320958c.5089803,2.7212351-.3328517-1.4919732,0,0h0ZM44.1610024,1097.9218988c.4828418,2.3255177-.483256-1.7204828,0,0h0ZM42.5394351,1100.068063c6.4623045,3.2798171,2.9666266,8.5441251,1.0151315,13.4661782-1.9664836-3.9590694-4.9157905-7.971198-1.0151315-13.4661782ZM92.9100793,1051.8957878c-.2762311-1.7232701.4982402,2.4127501,0,0h0ZM92.7202252,1042.0055677c-4.3490032-9.7559981,10.1790536-7.1414632,13.4302121-10.7637679,8.0921822,10.3036171-8.7371306,6.0421541-13.4302121,10.7637679ZM116.5079944,1025.139071c6.8596874-7.8035391,13.408164-16.2674411,23.1601017-10.8796571-1.0992678,2.8387399.2540541,5.1304538,1.6517576,7.5059667-4.3631441,10.5628506-13.7381848-2.7458497-18.0297292,7.8497016,6.6313458,4.7185667-8.2005045,7.9532076,0,0-2.3144385-1.4349061-4.4661911-2.9382522-6.78213-4.4760112ZM63.7317562,1097.5764943c-2.7901669-2.8571703,1.5977411-7.1652299,3.4426849-10.7087808,4.8284201,4.0178094,1.2969999,9.3239852-3.4426849,10.7087808ZM85.0433453,1069.3766544c11.2247627-5.3044993-1.5926733,9.548825,0,0h0ZM26.8466513,1144.7394773c.3641353,2.3564005-.3300972-1.6212521,0,0h0ZM104.9112826,1053.1550341c17.6014358,25.4720777-30.9574868,12.9889279,0,0h0ZM66.8988391,1112.3505377c-2.6137087-1.9830659.6577697-5.324305,2.1819164-8.1920464,4.3475339,1.6785297,3.1096919,4.4266253,1.4512022,7.5874634-1.6812115-1.8346862-2.6845138-.5663717-3.6331185.604583ZM127.2377746,1038.5367104c6.6773581,5.7261206,11.0994687,11.8454655,2.6727578,20.9708883-9.5507587-5.1751152-9.5572279-12.3280061-2.6727578-20.9708883ZM91.3414571,1089.4079625c4.2841366,2.316423,2.8705598,5.8897293,7.5874129,8.1621743-3.2109776,9.125892-8.6005959,8.1034492-13.4424238,10.9028474-4.4544034-7.1430896-1.3865516-14.2429115,5.8550109-19.0650217ZM21.1946044,1173.3844071c4.9140782,4.2715417.7677318,10.3881912,3.2896671,15.0657361-7.0361051,3.7797018-5.5547517-10.461441-3.2896671-15.0657361ZM66.6136925,1138.0750204c2.6438008-5.8174351,5.915393-8.5719642,9.5273291-10.0447147,6.7110546,4.6391008-2.6565891,17.5995569-9.5273291,10.0447147ZM26.199478,1205.5984598c-1.230746-1.0394796-2.3925844-2.0948855-.8327023-3.6957429-2.8634098-1.6663961.7751903-4.2846621,0,0,1.448429,1.032731,2.609782,2.1246081.8327023,3.6957429,2.8617944,1.4471068-.5696432,4.2391296,0,0ZM57.902371,1161.4578581c.4390927,2.5959477-.2712672-1.5112906,0,0h0ZM72.1188743,1154.6917798c-2.9700711-4.5867869,2.2205847-4.5904148,4.3975904-7.1308038,3.023324,4.4047632-2.4652743,4.4528223-4.3975904,7.1308038ZM86.5042823,1121.9257922c2.8299996-8.016037,9.1554293-.3087649,11.817284-8.4919369,9.9994124,3.6771791,2.8425652,11.1754427,9.5431662,15.6650676-10.0780958,10.0636387-25.3391197,8.4486797-21.3604502-7.1731307ZM61.1785425,1186.330289c-2.7302972-1.6892629.913099-4.3522371,0,0,8.7362851,6.4025032-6.7186938,9.7770238,0,0ZM73.0193571,1167.8876232c1.4273847-2.1223475,2.9137561-4.3483596,4.3669998-6.6622299,5.432175,2.6052998,6.1300827,6.4966397,2.6349474,11.1183008-2.4451058-1.2281207-4.6187919-2.9756641-7.0019471-4.4560709ZM88.7090859,1158.6974291c.5640237,3.8537071,7.8765796,6.0785085,2.3454303,11.2276803-.5443269-3.7127144-7.8734323-6.1464963-2.3454303-11.2276803ZM116.570694,1160.2832278c-5.2967939,6.1522698-11.5043695,7.5567979-18.7904399,4.1859106-2.3092002-9.7831115,16.7038339-13.9040426,18.7904399-4.1859106ZM75.1762192,1204.7782101c1.4805746-2.1264674,3.938515.0211891,5.9406827.7523211-1.4706152,2.1602965-3.947631-.2444365-5.9406827-.7523211ZM92.0800415,1183.4425143c6.4389229,3.1650712,5.3946731,8.0167226,1.1430353,13.5607444-6.5850913-3.1619147-2.9529701-8.5365033-1.1430353-13.5607444ZM101.9109039,1183.1610234c3.7883816-8.9396182,9.7065298-9.2378908,14.8514713-12.9637256,4.4332948,2.1106957.0158487,15.313673,6.1807609,10.4308261,4.006569,8.0352841-9.181705,11.7155873-12.6759247,14.6011465-8.18447-2.68587-.368145-9.1312125-8.3563075-12.0682471ZM80.2596104,1237.0290609c-7.3887101-6.1203325-6.4878289-10.8237996.5309807-15.753421,9.8411413,3.4455422,5.7630227,14.4690047-.5309807,15.753421ZM56.0069653,1269.7641781c5.5449594,4.0803928,6.6990046,9.1552845,3.2322949,15.040481-4.8486674-4.200585-9.825591-8.2627242-3.2322949-15.040481ZM94.5254604,1230.0884875c2.2521324-2.5144276,5.8696441.5052857,4.4089975,2.9135675-3.153592,2.7414007-1.9599128-1.5946851-4.4089975-2.9135675ZM102.4101869,1212.6451092c7.8779431-1.9879058,7.277963,5.0059598,9.9657117,9.5890382-1.9922088,3.9134215-18.0600071-5.0686401-9.9657117-9.5890382ZM118.9018199,1207.1302805c3.4005809,4.4577106,2.1694736,10.0409927-.6618656,15.7273737-6.5398403-3.7997654-2.8716384-9.7054301.6618656-15.7273737ZM102.8068106,1241.9171874c3.8013718-6.5347071,9.9129331-2.930933,15.8638474.5696916-4.697275,2.5769524-9.3985534,5.0630648-15.8638474-.5696916ZM113.5976816,1255.1798644c1.0838717-1.4030644,1.8867837-2.8835286,2.9499663-4.5068021,1.5907419.9211965,3.1016128,2.0934423,4.5372629,2.9892779-.9175846,1.6202953-2.0689163,3.0018875-2.8599992,4.5581771-1.5959718-.9559208-3.0449803-1.854423-4.62723-3.0406529ZM133.698096,1239.1728765c3.8317212-5.5591976,9.0071732-6.7440832,14.9698741-3.1857795-4.1061334,5.6388027-9.0838002,6.6152689-14.9698741,3.1857795ZM112.1656179,1302.6840988c-.3488773-1.505165.6355878,2.5595097,0,0h0ZM134.9494417,1272.3291378c-12.8109476-10.5509722,5.7431638-24.2092903,11.8920311-8.5272239-3.3292137,5.9523828-8.1439812,4.7738572-11.8920311,8.5272239ZM145.5418472,1275.8701904c8.5622838-7.2473078-3.0985186,10.5579201,0,0h0ZM109.568122,1326.6861783c3.4925111-7.6178139,10.9865395-4.4228361,11.9615203,1.5646836-2.987583,3.5460905-7.08931,2.6711158-11.9615203-1.5646836ZM133.4171655,1319.6511971c2.2022427-5.4895285,6.2009568-2.1300967,9.7903666-.1767684-2.8782059,2.3126996-5.8436359,2.8617723-9.7903666.1767684ZM178.4765781,1300.1944197c-2.3145016,2.4732028-5.5880599-.7580866-8.450774-2.1861197,2.1560614-2.4912539,5.4280134.7349023,8.450774,2.1861197ZM136.9844377,1344.3592739c1.9396078-5.5664005,5.9958526-2.1391819,9.7164543-.1968478-2.7423587,2.3566063-5.9552036,2.9154692-9.7164543.1968478ZM153.4193294,1338.9172629c.3596886,2.3822136-.4749662-1.5759207,0,0h0ZM175.7627835,1324.3731584c-9.6043677,3.7029127-12.8793173-12.1382759,0,0h0ZM195.2146389,1278.8372875c5.2929925-6.2424646,12.447313-2.9224019,17.8918002-8.0563537,1.0914252,2.4713513,2.2962755,4.9929993,5.4530973,6.9526936-6.249385,6.5480344-13.9580692,8.4704958-23.3448975,1.1036601ZM219.9843225,1265.4789897c-3.8452507-3.0831236-2.7553432-7.1424808,1.1589374-11.8715024,4.4807662-1.0595603,9.5078395,2.4984536,15.1214537,6.2699395-5.5763357,1.4086401-11.3028312,2.7296349-16.2803911,5.6015629ZM246.5927793,1244.0847767c-1.5508565,2.2160479-3.0140469,4.4961294-4.4368689,6.9652549-6.5702299-3.2705134-5.5276497-8.0114318-.9971653-13.6609112-11.8771316,2.9275006,1.3251025-10.4619562,0,0,1.4397899.9070641,3.0129242,1.8700486,4.7409527,2.8397519,4.7369413-14.1771211,23.3220731-5.3590744,22.411996,4.9423313-5.8745418,5.1464132-18.4072049,9.7712226-21.7189145-1.0864268ZM254.9965763,1255.8745352c-1.3128615,2.1541409-3.9232347.1637237-5.985616-.4076294,1.4030402-2.2982052,4.0141517-.0512787,5.985616.4076294ZM223.3407538,1290.3757757c-1.6124729,2.1552161-4.0829411-.0925119-6.0793203-.7270993,1.4766257-2.1991229,3.9527974.0468205,6.0793203.7270993ZM203.4388451,1316.3366533c-1.6114596,2.10042-3.8807849-.1488811-6.0044146-.7198546,1.3293156-2.1035582,3.7989398-.0146197,6.0044146.7198546ZM171.6272967,1350.6724248c11.4382178-5.2667252-1.5060042,9.7477541,0,0h0ZM164.4363278,1371.7817546c2.1770041-2.3262677,5.3789308.598057,8.1696433,2.1281855-1.8752469,2.3720736-5.1708585-.791612-8.1696433-2.1281855ZM192.4038955,1338.1171352c.9310925-1.4410467,1.9500087-3.0316827,2.9521305-4.4398501,2.2353931,1.4164329,4.5961151,2.9031943,6.8369686,4.4951709-1.0109094,1.3620739-1.8774683,2.9112973-2.8801605,4.3196432-2.1635834-1.3650507-4.5414887-2.9447481-6.9089386-4.3749639ZM226.696004,1315.0706701c8.367729-7.2046689-3.1487543,10.769598,0,0h0ZM255.4865458,1285.2087862c1.391899-2.8200974,4.2619965.7027557,0,0-1.5049257,2.9111568-4.3720005-.6620721,0,0ZM222.3277598,1331.694815c-5.0805664-4.5494507,5.6199529-8.9497903,9.0190726-3.8923918-2.6071643,2.4364493-6.4360726,1.0665343-9.0190726,3.8923918ZM247.7356518,1312.4433994c-6.4638803,8.7742765-9.8655858-6.8256135,0,0,2.1801742-4.7976038,5.9795574-2.5254554,8.8874697-3.960757,5.005585,4.7200694-5.4690642,9.0797888-8.8874697,3.960757ZM231.5420849,1337.5137795c11.5251529-9.1713725,14.7618743-4.8270778,27.1030192-2.0291867-4.4407407,4.1592298-9.9025818,2.9640133-13.4471651,10.9037048-4.5884037-3.0346425-9.1344449-5.8558578-13.6558541-8.8745181ZM236.2867917,1359.9090834c11.3168679-.5755296-10.2730842,4.4375412,0,0h0ZM257.5635485,1322.002254c5.9410624-5.4421284,25.0997783-5.2672285,13.8789338,8.9030264-4.5971395-2.8484335-9.2015554-5.8962252-13.8789338-8.9030264ZM266.2270146,1343.7092299c-1.455209,2.9319587-4.0916213-.7065988,0,0,1.5448266-2.8616885,4.2715856.8894926,0,0ZM287.5581352,1315.6498546c1.5750038,17.6568253-17.5682066,1.0757484,0,0h0ZM303.1087286,1296.5354102c15.283444-1.9695532,4.5596077,11.9719554,0,0h0ZM281.9933176,1334.5075987c5.4391469-7.7685658,11.4296528-13.6970651,20.0573561-6.4108373-1.4749468,2.3025461-2.9434914,4.565517-4.2887467,6.754216,1.2336299.9346286,1.3980035,3.6472231-1.4506858,2.3800791-4.3124444,2.1077808-8.8396953,1.3778161-14.3179237-2.7234577ZM279.2796289,1358.5886177c7.0438036-3.5009488,14.9283796-3.6505829,23.3262343-1.0252218,1.2923633,13.4896393-23.8401932,15.4282102-23.3262343,1.0252218ZM308.5203502,1348.4782346c5.957008-8.8292025,15.7524729-.0003632,21.5834963-8.7839192,2.3923648,1.6058952,4.4713775,2.9548267,6.8489443,4.5534546-7.7074159,9.9392516-17.5683435,9.1480836-28.4324407,4.2304646ZM314.1496923,1374.5411332c.517379,2.491924-.3897528-1.461691,0,0h0ZM342.6660801,1325.1600918c4.1195103-10.7370928,11.9175431-5.1237293,17.8932983-7.7393815,7.63163,9.4201423-9.9156783,15.2534503-17.8932983,7.7393815ZM321.7086271,1372.95859c.4344357,2.3469265-.4748604-1.6736404,0,0h0ZM398.0108302,1309.1995993c-6.9146712,7.5877993-15.3833323,6.849406-24.7935645,3.2940747,7.0118709-6.8849389,14.5228515-12.0787774,24.7935645-3.2940747ZM329.0353786,1371.1243306c-.2463948-1.3537577.5945007,2.7984231,0,0h0ZM346.828599,1353.6075309c3.1021512-4.0584755,8.5752933,3.230438,11.3341453-2.3173774,4.7726326,5.9307613-7.1818642,8.4729383-11.3341453,2.3173774ZM376.7104865,1337.4754008c-2.8478343-1.1083197-5.3377223.1780171-7.4114038,1.5056952-.1693133-9.5904378,17.9371901-13.1283821,26.1133304-15.3380106,4.6472482,8.5198284-9.9330597,2.0261157-11.2987492,12.0661921,6.0333507,3.5299345,8.7554561-8.0968392,15.9221177.4237141-5.4064623,8.7915617-25.7379339,13.037625-23.3252951,1.3424092ZM406.7658271,1330.944937c2.9794717-3.6900822,7.2287077-2.6959096,12.024176,1.2946391-3.547498,7.6782275-11.0504499,4.4547322-12.024176-1.2946391ZM432.2262256,1321.4369819c2.5509304-8.185453,8.8676266-.2919649,11.8243502-8.5674129,4.1253318,5.4050441-6.9467043,15.5962241-11.8243502,8.5674129ZM492.1070449,1263.2992508c1.6171,1.8059041,2.7020076.4081514,3.7758442-.8508788,4.927494,1.9310065-3.4570691,12.5599338-6.8577087,5.3864296,1.0795309-1.474971,2.0762034-3.0586467,3.0818645-4.5355508ZM472.138954,1289.1286721c2.7728254-5.6192279,6.1168945-8.3782762,9.5919777-9.8201015,6.8292368,4.4124276-2.4530144,17.3335945-9.5919777,9.8201015ZM511.3028836,1243.4048511c1.3891222-9.1607152,4.2509922-7.8914717,10.1742715-15.9699564,3.1005478,1.9159359,6.0466468,3.9046225,9.2755962,5.8786927-5.9000898,6.8238073-11.5845754,13.4581184-19.4498676,10.0912637ZM457.7923631,1321.6865139c1.5579915-1.5088413,3.641791-.6749259,5.1901431-3.0730802,1.2826064.9130413,3.0281226,2.1527577,4.4428283,3.0977284-1.9943406,5.4495211-5.9583256,2.1030175-9.6329714-.0246482ZM474.021771,1316.1741692c-.1930233-1.6334606.7766984,2.5021671,0,0h0ZM489.008415,1303.2902172c-1.835869-8.5065897,7.4252501-11.5454073,12.5329569-14.6477973,11.7148079,4.6445325-3.6113584,26.801571-12.5329569,14.6477973ZM554.0277588,1232.2987594c4.1479621-2.1051174,7.9300501-5.1233357,13.3401848-.9274896-3.0945168,6.2521559-8.4909241,2.7245487-13.3401848.9274896ZM554.8880527,1245.5622837c8.20818-5.2711072-.131732,12.6327314,0,0h0Z"/>
  <path d="M178.6518167,1229.3262128c-.3344922-1.3631365.5075358,2.4824802,0,0h0Z"/>
  <path d="M505.2669295,1197.5956049c-10.5681016,12.3879893,7.1935449-8.3175395,0,0h0Z"/>
  <path d="M57.902371,1161.4578581c-.2712672-1.5112906.4390927,2.5959477,0,0h0Z"/>
  <path d="M355.3601314,1275.2439605c.6438474,2.6239281-.3445365-1.4332584,0,0h0Z"/>
  <path d="M72.0455833,1064.0320958c-.3328517-1.4919732.5089803,2.7212351,0,0h0Z"/>
  <path d="M44.1610024,1097.9218988c-.483256-1.7204828.4828418,2.3255177,0,0h0Z"/>
  <path d="M92.9100793,1051.8957878c.4982402,2.4127501-.2762311-1.7232701,0,0h0Z"/>
  <path d="M576.4944003,1137.0263725c-1.2201636,1.2196551-2.4041813,2.048525-2.9988177,3.0599207,2.5680329-2.6195389,5.3899888-5.3861628,2.9988177-3.0599207Z"/>
  <path d="M434.0641716,987.3636618c4.2533665.791245,1.4638906-2.7881455,0,0h0Z"/>
  <path d="M342.7126143,928.8624138c-3.2885439-3.4532831-5.2601053-1.1368602-7.4167911,1.6845944,3.4247312,3.2641384,5.524021.8275947,7.4167911-1.6845944Z"/>
  <path d="M320.98541,927.6314249c4.3205103.6356027,1.4490594-2.599403,0,0h0Z"/>
  <path d="M320.98541,927.6314249c-3.8903509-2.7389653-6.9761571-2.0482768-9.8570249.2959394,2.3658862,1.4432291,4.6853852,2.778239,6.9169547,4.3605579.9216819-1.6272131,2.0067471-2.8903831,2.9400703-4.6564973Z"/>
  <path d="M409.2597372,990.8571371c1.7865537-1.5008344.4734046-2.7656336-.681992-3.5663148-1.7708909,1.5328789-.5384027,2.5599156.681992,3.5663148Z"/>
  <path d="M316.5648377,934.5126796c-2.8760737-1.6868551-4.8966023.8653112-8.2277351-1.9816376.9212886-1.6885055,1.9979928-3.1324864,2.7912825-4.6036777-3.2050231-3.4425206-5.5069622-1.0652513-7.4081413,1.5541438,2.0627286,2.8217928,2.8769923,5.9302978.1836227,9.9103297,1.5824521.7766344,2.8856916,1.8916946,4.5343273,2.8618263,2.3931984-4.2348956,6.0189989-3.0638018,8.126644-7.7409845Z"/>
  <path d="M318.0453397,932.2879222c-.5521441.7169373-.9463758,1.4702507-1.480502,2.2247575,2.8481505,1.2854342,2.7660122-1.4585285,1.480502-2.2247575Z"/>
  <path d="M386.459795,976.2700467c-.6434071,4.1394769,2.936363,1.4112494,0,0h0Z"/>
  <path d="M408.685302,996.8580032c-3.0833134,10.9206984,8.42317-7.3196644,0,0h0Z"/>
  <path d="M463.4433421,1032.1799442c1.5703392-1.6654968.5362593-2.76088-.9696703-3.7812541-1.7019833,1.5169526-.3430568,2.5958497.9696703,3.7812541Z"/>
  <path d="M299.9443571,930.3142405c1.7641031,1.7473811,2.6117761.4119643,3.7758867-.8327324-1.6092322-1.7407369-2.6751586-.3983931-3.7758867.8327324Z"/>
  <path d="M463.4433421,1032.1799442c-1.7902715,1.5690007-.6117905,2.735627.6795736,3.6766559,1.6535045-1.5938338.4826776-2.7560113-.6795736-3.6766559Z"/>
  <path d="M299.9443571,930.3142405c-4.1674242-.634662-1.5885651,2.876001,0,0h0Z"/>
  <path d="M334.1914931,952.3447891c-.7083534,4.1660614,2.7954128,1.4490926,0,0h0Z"/>
  <path d="M408.6610424,1006.7663789c.645095,2.4338003-.2538922-1.5718327,0,0h0Z"/>
  <path d="M286.6049012,931.2840833c-.6110477-1.4844957.5034491,2.2332805,0,0h0Z"/>
  <path d="M303.9038665,939.3918378c-1.5952266-1.6599568-2.8207233-.5914247-3.6315983.6654745,1.453791,1.7342712,2.5513292.5529871,3.6315983-.6654745Z"/>
  <path d="M308.4381937,942.2536641c-.9296484,4.1432566,2.8695594,1.3338404,0,0h0Z"/>
  <path d="M338.8453514,964.8921105c1.5381945-2.2365011-1.942316-5.366713-4.5356765-2.7880921,2.7166517,1.3334701,1.5179318,5.5733995,4.5356765,2.7880921Z"/>
  <path d="M436.2114538,1024.2816681c-.7780534,4.2555006,2.7887686,1.6039635,0,0h0Z"/>
  <path d="M272.903306,932.1712448c11.852651,6.9621585,7.3499742-13.7411284,0,0h0Z"/>
  <path d="M295.8620471,946.9716474c-1.3012156-.8164198-1.475591-3.5809898,1.3125453-2.3312554,1.0843996-1.4213893,1.9557122-3.0334674,3.0976757-4.5830797-9.0584032.6208402-17.7652317,3.3998462-25.5342382,9.5861657,7.2016134.1492363,13.8092935-2.2239755,21.1240172-2.6718306Z"/>
  <path d="M297.1745924,944.640392c-.5179988.8840925-.9162219,1.546604-1.3125453,2.3312554,9.0871551,6.6652981,11.2450453-4.6133101,1.3125453-2.3312554Z"/>
  <path d="M308.5569034,951.9945685c.6457712,2.3359022-.1996342-1.6745995,0,0h0Z"/>
  <path d="M410.6658479,1024.1177623c3.3907874.6942063,6.5381914-.015757,9.013064-4.0676863-3.708376-.9066743-6.7664467-.0292915-9.013064,4.0676863Z"/>
  <path d="M336.7846909,973.3155714c.6559608,2.4485131-.3217317-1.6545533,0,0h0Z"/>
  <path d="M435.6831228,1040.0655698c-.3419896-1.5812114.4431173,2.4907398,0,0h0Z"/>
  <path d="M465.31433,1059.1496159c.5839434-4.1333939-2.8547707-1.5407293,0,0h0Z"/>
  <path d="M410.6658479,1024.1177623c-4.2610558-.8558419-1.6200909,2.6591829,0,0h0Z"/>
  <path d="M465.31433,1059.1496159c-.7559457,4.2661163,2.8791909,1.5387236,0,0h0Z"/>
  <path d="M421.8647375,1066.6489092c-8.188896-6.5863122-2.6714637-16.4520832-3.5787519-24.8027975-9.6378014,11.0204555-5.9561184,28.8258665-3.0323436,40.0246974.6663236-11.4906307,8.8741746-12.3281673,15.5615058-19.2336617-3.4234549-.8186163-6.6370621-.1060969-8.9504104,4.0117618Z"/>
  <path d="M464.8707178,1074.8700624c-.4718822-1.5280424.6411129,2.5571546,0,0h0Z"/>
  <path d="M257.4167183,951.4121909c-.4053948-1.6277479.5775155,2.510004,0,0h0Z"/>
  <path d="M274.2911553,965.315476c1.6990476-1.6444041.5370081-2.7604881-.9190149-3.6994182-1.6192307,1.723377-.3143216,2.7277046.9190149,3.6994182Z"/>
  <path d="M247.7069082,951.4541678c-11.7188477,8.0640785,12.3760894-8.4651592,0,0h0Z"/>
  <path d="M274.2911553,965.315476c-.7927756,4.07037,2.9351154,1.6013772,0,0h0Z"/>
  <path d="M490.4679912,1120.5579035c8.160804-8.1981513-6.6537864-5.1404889,0,0h0Z"/>
  <path d="M222.1085917,960.8155418c2.3544791,1.4467985,3.5955018-1.5652946,5.3834275-2.9256643-2.2784026-1.3597672-3.6019977,1.6405922-5.3834275,2.9256643Z"/>
  <path d="M404.0162852,1074.5696309c.5121609,2.4572375-.3318185-1.7428217,0,0h0Z"/>
  <path d="M415.2536421,1081.8708091c-.9489195,1.4040872-1.8776042,2.9909103-2.9607272,4.3943666,3.1386175,1.2371247,5.3260554-2.9509193,2.9607272-4.3943666Z"/>
  <path d="M256.8585166,1002.4715448c11.2548853,3.8591268,7.7657928-11.9820101,0,0h0Z"/>
  <path d="M443.9550933,1132.4579438c.5710785-4.2145309-2.8525639-1.4556309,0,0h0Z"/>
  <path d="M443.9550933,1132.4579438c-.6961143,4.3212435,2.8697471,1.5485669,0,0h0Z"/>
  <path d="M237.9795148,1006.5505354c1.6760266,1.6039898,2.8382042.4331629,3.8402493-.8591811-1.6709794-1.5498378-2.7618074-.3831304-3.8402493.8591811Z"/>
  <path d="M237.9795148,1006.5505354c-1.446979-1.6324542-2.527555-.376951-3.6190102.8637968,1.5906439,1.7033459,2.7647564.5106247,3.6190102-.8637968Z"/>
  <path d="M444.1506509,1142.3463793c.7242705-4.31131-2.8715331-1.810426,0,0h0Z"/>
  <path d="M346.3803039,1098.6649968c-6.4442559-9.5718921-6.6035272-20.6151159-16.1894929-29.6929856,1.4437913,9.4609015,7.9017514,28.3600779,16.1894929,29.6929856Z"/>
  <path d="M374.6923125,1120.021013c-3.5126869-10.3852693-3.2370775-21.4055191-12.702637-30.606898-3.6953123,11.9926761,4.2243436,21.4147421,12.702637,30.606898Z"/>
  <path d="M291.5217732,1053.7003989c2.1942794,6.7983023,8.8612228,12.6072087,10.2187152,19.4469314,5.2623431-6.752657-4.8600175-27.6486991-10.2187152-19.4469314Z"/>
  <path d="M402.6202087,1131.688489c4.1730218.730597,1.5101413-3.0105575,0,0h0Z"/>
  <path d="M402.6202087,1131.688489c-4.1704657-.6643939-1.3876007,2.8738577,0,0h0Z"/>
  <path d="M492.2956763,1192.4938561c-.3872289.7937034-.7937024,1.6059526-1.3176983,2.374823,2.6832552,1.1667068,2.7634986-1.5065852,1.3176983-2.374823Z"/>
  <path d="M314.8060766,1097.7819229c-3.6476816-8.2571689-3.1930328-17.5725793-13.0655882-24.6345925-.5332821.9132965-.9340741,1.5095642-1.5594748,2.3045743,9.0304592,6.5421448,3.1643636,16.2302193,14.625063,22.3300182Z"/>
  <path d="M347.9748771,1106.3604349c.7672893-4.1538196-2.8008094-1.4843495,0,0h0Z"/>
  <path d="M393.5979776,1135.6488333c-3.1073085,10.7259455,8.6805899-7.5536324,0,0h0Z"/>
  <path d="M465.8532567,1178.5574847c-2.2342628,2.6315704-2.1884234,4.5371029-.714417,6.1798859,2.0312076-2.3419345,2.2571494-4.2774462.714417-6.1798859Z"/>
  <path d="M348.7377643,1110.0291806c1.7770798-1.5711348.6060743-2.7338827-.7628873-3.6687457-1.5611389,1.5768291-.3356111,2.5816221.7628873,3.6687457Z"/>
  <path d="M235.5972867,1040.4279947c4.2655751.9283189,1.5865793-2.9423826,0,0h0Z"/>
  <path d="M352.7037394,1118.9513366c.7809318-3.5218734.0365256-6.5852347-3.9659751-8.9221561-.48157.8664315-.948932,1.4040475-1.4776814,2.2357726,1.2751839,2.3161643,2.264612,4.599637,5.4436565,6.6863835Z"/>
  <path d="M272.8234584,1067.5622677c1.7727389-1.6430415.4900599-2.6543728-.6761101-3.5675292-1.6401542,1.6384996-.5488899,2.5444113.6761101,3.5675292Z"/>
  <path d="M153.5372954,997.3160685c1.0176407.5745703,1.5204644,1.1448701,2.3713189,1.5386373,1.0826783-1.5429589,2.0337745-2.8800544,2.9514016-4.4822033-2.1633381-1.5003471-3.4662367,1.5861653-5.3227205,2.9435661Z"/>
  <path d="M272.8234584,1067.5622677c-.6295831,4.4958401,3.0871458,1.6389676,0,0h0Z"/>
  <path d="M355.1772444,1130.3161542c.7794886-4.2309019.0128187-7.9717718-2.473505-11.3648175-3.6650052,4.5470715-2.7557092,8.5676385,2.473505,11.3648175Z"/>
  <path d="M274.5630065,1075.1146548c-.0820675,12.4212294,8.1939751-5.2184451,0,0h0Z"/>
  <path d="M315.6401415,1101.4039745c1.6432684-1.5104776.3317981-2.6718536-.8340649-3.6220516-1.7644492,1.7876035-.5450043,2.7329328.8340649,3.6220516Z"/>
  <path d="M316.4737087,1105.1244946c1.6266556-1.6035921.3256092-2.6335977-.8335672-3.7205201-1.6352855,1.6920813-.4664868,2.7697309.8335672,3.7205201Z"/>
  <path d="M168.2557995,1010.0348446c-2.9224848-1.3849085-4.8327334,2.8084502-6.7985944,5.3992418,3.010859,1.277102,4.636229-2.9861683,6.7985944-5.3992418Z"/>
  <path d="M316.4737087,1105.1244946c-.858167,4.2736373,2.7897185,1.6650334,0,0h0Z"/>
  <path d="M359.1368596,1139.2960317c.8699914-3.5134219.057027-6.5797522-3.9596153-8.9798776-.3352626.5695454-.9401869,1.4319947-1.4701508,2.2578378.990157,2.325826,2.3255761,4.6964068,5.429766,6.7220398Z"/>
  <path d="M276.8392873,1086.4735571c.6393915,2.435585-.1288484-1.7205448,0,0h0Z"/>
  <path d="M320.3476344,1114.2407699c.780059-4.2310803-2.9331098-1.576957,0,0h0Z"/>
  <path d="M282.487119,1092.9739433c.4872795-4.1701494-2.9602221-1.6235784,0,0h0Z"/>
  <path d="M320.3476344,1114.2407699c-1.2610976,2.3395784,1.5927471,3.4090718,3.0718658,5.184261,1.2690681-2.1580142-1.6686452-3.4955328-3.0718658-5.184261Z"/>
  <path d="M362.3283726,1144.2963237c1.1943213-2.1227263-1.8629761-3.3921429-3.191513-5.000292-1.3302563,2.2566443,1.8050853,3.5993688,3.191513,5.000292Z"/>
  <path d="M396.6944076,1176.1284173c-.6007189-3.2485495.699126-6.8351109,3.4468032-10.5015049-2.6642278-.1513351-5.2067407-.1078114-8.229615-2.1457389-1.5399658,2.2308405-2.9464695,4.419919-4.4141066,6.7258135,7.0031788-.8951592,2.6703875,2.026117,9.1969185,5.9214303Z"/>
  <path d="M282.487119,1092.9739433c-3.4124711,3.3609359-1.0211861,5.4136466,1.5114078,7.623775.3941249-2.6487752.512107-5.5536709-1.5114078-7.623775Z"/>
  <path d="M323.4195002,1119.4250308c-1.6386764,1.6812447-.6161187,2.6637608.9631529,3.7043927,1.4891597-1.6707783.3421918-2.6206269-.9631529-3.7043927Z"/>
  <path d="M363.103712,1148.1809677c1.5498257-1.6710179.447147-2.9095829-.7753394-3.884644-1.8378336,1.7491993-.6090327,2.8625101.7753394,3.884644Z"/>
  <path d="M325.0661547,1127.0127474c1.7817909-1.6521359.343819-2.7495062-.6835017-3.8833238-1.6871583,1.8184803-.5333963,2.7900415.6835017,3.8833238Z"/>
  <path d="M363.103712,1148.1809677c-.7915612,4.0762519,2.7273372,1.6237701,0,0h0Z"/>
  <path d="M423.0656086,1189.971269c1.62692-1.6587801.4673216-2.8250974-.7510675-3.8070764-1.6341345,1.8138294-.4020684,2.7614713.7510675,3.8070764Z"/>
  <path d="M232.3725754,1070.5764521c1.6164995,1.725939,2.7582181.5677758,3.706728-.9156665-1.5331766-1.5196931-2.7634571-.4684499-3.706728.9156665Z"/>
  <path d="M283.9985269,1100.5977183c-.8110773,3.3114675.0065566,6.626859,3.8808768,8.9243628.8647733-3.5481085.2041661-6.6558513-3.8808768-8.9243628Z"/>
  <path d="M326.5918535,1134.5281021c3.3457401-3.3400549,1.1546481-5.4554086-1.5256988-7.5153547-.3920333,2.6174371-.5116734,5.2848971,1.5256988,7.5153547Z"/>
  <path d="M228.661434,1071.321922c1.7369907,1.7007596,2.6168754.5443293,3.7111415-.7454699-1.7395044-1.7488164-2.6998735-.4213431-3.7111415.7454699Z"/>
  <path d="M387.4974892,1170.206987c-2.1633713-1.3043373-3.6270184,1.5626326-5.1107815,3.2686679,2.1515423,1.2285119,3.3737756-1.8816504,5.1107815-3.2686679Z"/>
  <path d="M228.661434,1071.321922c-4.1093957-.6653438-1.5215179,3.0322346,0,0h0Z"/>
  <path d="M287.8794036,1109.5220811c-1.6317887,1.6051983-.4665594,2.6714408.8222027,3.7422359,1.5023514-1.6686442.5578891-2.6937571-.8222027-3.7422359Z"/>
  <path d="M329.8509294,1139.6662637c1.1901438-2.4882848-1.7389426-3.700176-3.2590758-5.1381617-1.2036063,2.1130654,1.8784605,3.423617,3.2590758,5.1381617Z"/>
  <path d="M288.7016063,1113.264317c-1.3327699,2.2085876,1.7458425,3.6241686,3.2140728,5.1704462,1.2534083-2.4041753-1.7458001-3.6060222-3.2140728-5.1704462Z"/>
  <path d="M330.5517123,1143.5868041c1.7719374-1.7836847.4696249-3.0518748-.700783-3.9205404-1.7635689,1.5362663-.6057552,2.6968801.700783,3.9205404Z"/>
  <path d="M376.9881119,1176.5469595c.7974601,3.0768175,3.6586471,5.7527109,7.6645161,8.0403612,7.1174365-8.6788348-7.5854284-1.7480437-2.2659204-11.1116659-5.3714534-.594173-12.2384349-8.0769682-15.8557028-.6217096,1.3847474,1.7677736,1.3078353,3.53517-.7283987,6.0371454,3.7056497-.9391245,8.7557391,4.6656101,11.1855058-2.3441311Z"/>
  <path d="M291.9156791,1118.4347632c-1.70772,1.714747-.6014266,2.7687478.7638039,3.9258254,1.6344291-1.8509107.4595898-2.9078406-.7638039-3.9258254Z"/>
  <path d="M331.3791239,1147.1495705c1.6285036-1.7137546.6088089-2.6671093-.8274115-3.5627663-1.7076234,1.4028712-.4686603,2.4886228.8274115,3.5627663Z"/>
  <path d="M216.0054071,1076.0767986c4.1153428.7423836,1.2395751-2.9746946,0,0h0Z"/>
  <path d="M292.679483,1122.3605886c-1.7194131,1.5593087-.4835641,2.5790752.6804084,3.6212894,1.7077625-1.6966006.5415833-2.8239131-.6804084-3.6212894Z"/>
  <path d="M332.1471535,1151.030866c1.6860676-1.8419776.5238072-2.9767784-.7680297-3.8812956-1.6347698,1.6737177-.4005574,2.6082066.7680297,3.8812956Z"/>
  <path d="M193.8806645,1065.2904671c.8605956-4.3239104-2.8542428-1.5590541,0,0h0Z"/>
  <path d="M293.3598914,1125.981878c-.7116871,3.5490491.0851499,6.4857937,3.9599647,8.9609824.8634106-3.4744171.0549988-6.6642802-3.9599647-8.9609824Z"/>
  <path d="M332.1471535,1151.030866c-.6475996,3.987997,3.0646918,1.3710937,0,0h0Z"/>
  <path d="M366.5310048,1172.8539452c-1.8270211-1.6362686-2.7722446-.5145435-3.8430305.9883747,1.4285219.6169041,2.8492062,1.2487845,3.8430305-.9883747Z"/>
  <path d="M405.983085,1201.5904683c1.7011392-1.6757422.4818427-2.7006448-.8274208-3.7769225-1.5027309,1.6073958-.4773327,2.5589657.8274208,3.7769225Z"/>
  <path d="M247.2222322,1102.5535013c-7.4494297-4.1450963-13.7399271-2.7334068-18.7953511,4.1141825,7.7120392,5.1024077,12.848714-1.1713365,18.7953511-4.1141825Z"/>
  <path d="M297.3198561,1134.9428604c-6.7633859,8.6776321,5.0824762,13.1346262,2.8081979,21.1295626,2.156411,1.2820937,4.455861,2.7091235,6.6212302,4.0798811.6741983-9.0040093-6.1279928-16.7700388-9.4294281-25.2094437Z"/>
  <path d="M398.4452406,1203.2584221c1.7700159-1.7097779.5433371-2.836319-.7721578-3.8924871-1.5588171,1.7783639-.4023328,2.8166593.7721578,3.8924871Z"/>
  <path d="M214.6464353,1088.0534756c-.1370027,12.7139456,7.9857341-5.41566,0,0h0Z"/>
  <path d="M260.1269887,1117.5887401c1.5374521-2.2788972-1.5991464-3.6456501-3.0518922-5.1604535-1.2598076,2.167597,1.7290496,3.3363636,3.0518922,5.1604535Z"/>
  <path d="M339.9838206,1168.8448367c.8440674-4.3186966-2.8581072-1.5333813,0,0h0Z"/>
  <path d="M264.9703319,1130.1932888c.0541225-4.6338786,1.048425-9.3910001-4.8433432-12.6045487-.0475842,4.5767274-1.106918,9.2621036,4.8433432,12.6045487Z"/>
  <path d="M339.9838206,1168.8448367c-.7110455,4.1174344,2.8648509,1.2007235,0,0h0Z"/>
  <path d="M381.8867822,1198.9059839c1.6056087,1.7111463,2.6209431.5193063,3.7888242-.6533053-1.6167838-1.6287896-2.7630868-.6213576-3.7888242.6533053Z"/>
  <path d="M378.1296849,1199.8367855c1.6669746,1.6130843,2.7662225.5533326,3.7570973-.9308015-1.5285405-1.4848653-2.7451322-.467922-3.7570973.9308015Z"/>
  <path d="M378.1296849,1199.8367855c-4.1971995-.9059217-1.6043129,2.8076638,0,0h0Z"/>
  <path d="M254.4324672,1126.5743878c4.1852729.8858173,1.3941815-2.9128624,0,0h0Z"/>
  <path d="M264.9703319,1130.1932888c-.6949607,4.2288736,2.7469008,1.5682212,0,0h0Z"/>
  <path d="M288.6842511,1148.6398015c-.4036949-1.7203735.4455358,2.3803987,0,0h0Z"/>
  <path d="M254.4324672,1126.5743878c-3.9357789-2.5719584-7.0215643-2.0773196-9.7634553.1627117,3.8149383,2.616033,6.9640211,2.009493,9.7634553-.1627117Z"/>
  <path d="M282.4714263,1147.9363178c4.190406.8842111,1.4502769-2.8696744,0,0h0Z"/>
  <path d="M298.5164886,1158.2705627c.5309562-.7466267,1.0066744-1.5317002,1.6115655-2.1981397-2.9957541-1.3068763-2.9045986,1.3678454-1.6115655,2.1981397Z"/>
  <path d="M298.5164886,1158.2705627c-1.64214,1.572118-.6152414,2.6265407.6756548,3.6841441,1.7911063-1.6243672.6214303-2.6647967-.6756548-3.6841441Z"/>
  <path d="M244.669012,1126.7370995c-3.8896127-2.4824559-6.974666-2.1595801-9.8585027.2531943,4.1327224,3.7276573,7.3245852,4.0983292,9.8585027-.2531943Z"/>
  <path d="M234.8105093,1126.9902938c-3.2874456-3.4717864-5.4654013-.9924674-7.5483201,1.6524866,3.3382702,3.3400365,5.3932511.9179837,7.5483201-1.6524866Z"/>
  <path d="M269.1243641,1148.9999223c-9.8620767-6.9124573-6.5483721,8.3661781,0,0h0Z"/>
  <path d="M238.6305795,1135.9524697c.6441451,2.3727304-.1848062-1.5871886,0,0h0Z"/>
  <path d="M316.3236207,1185.6107162c3.8375375-6.9674537-10.8185702-3.8735938,0,0h0Z"/>
  <path d="M227.2621892,1128.6427804c-2.4006957-2.2388772-4.2937589-2.3071501-5.9337648-.7482238,2.3937987,2.1007674,4.2917215,2.0084659,5.9337648.7482238Z"/>
  <path d="M316.3236207,1185.6107162c-.694086,4.4057718,2.865237,1.690246,0,0h0Z"/>
  <path d="M221.3284243,1127.8945566c-1.7453469-1.4533022-2.6828054-.4448436-3.9118623.8264377,1.7369907,1.7007596,2.831138.5086389,3.9118623-.8264377Z"/>
  <path d="M235.7411553,1140.4766467c.7911693-4.0755031-2.9285045-1.5602383,0,0h0Z"/>
  <path d="M235.7411553,1140.4766467c-.7651251,4.2207715,2.9480769,1.3706384,0,0h0Z"/>
  <path d="M241.320016,1147.1088253c.4938178-4.2273006-3.0828475-1.5852073,0,0h0Z"/>
  <path d="M245.7165405,1149.940507c4.461143.8909186,1.3830814-2.9463347,0,0h0Z"/>
  <path d="M335.4756379,1210.9150784c.844857-4.1780915-2.7957739-1.4302347,0,0h0Z"/>
  <path d="M324.1069074,1203.8384405c-.7062618,4.1347233,2.9332064,1.2650811,0,0h0Z"/>
  <path d="M274.0704926,1181.2023428c-8.255449,8.0317676,6.5615732,4.7097158,0,0h0Z"/>
  <path d="M285.4370256,1188.4080385c-1.6152818,1.7960324-.4570762,2.9558974.828741,3.6850848,1.7745661-1.6191916.4678162-2.6474125-.828741-3.6850848Z"/>
  <path d="M253.2215669,1193.4684574c1.4921378-1.5251804.3421494-2.6387733-.8367571-3.6706787-1.6388549,1.6806743-.4607833,2.7679462.8367571,3.6706787Z"/>
  <path d="M247.3213501,1202.5792109c-1.4447298-1.5292095-.8272632-3.6423396-3.1970682-5.0780806-2.1720819,4.2571301-5.6724167,3.0167189-8.126644,7.7409845,8.6103975.1367277,17.6174933,2.3817121,25.0911309-3.61387-6.2589195-6.4801205-9.6743586-1.0574449-13.7674187.9509661Z"/>
  <path d="M244.1242819,1197.5011303c.9056108-4.3561559-2.6480301-1.4463673,0,0h0Z"/>
  <path d="M186.5031586,1166.6894882c2.5263533,2.0160819,4.4394203,2.1883058,6.1382864.7574482-2.3934069-2.0394797-4.4316159-2.0072726-6.1382864-.7574482Z"/>
  <path d="M262.7264803,1218.8991234c-1.5615849,1.9076001-.5477722,2.8621691.7689795,3.9423655,1.7552821-1.8949456.5969073-2.8412247-.7689795-3.9423655Z"/>
  <path d="M285.2602441,1259.1552462c-.4662846-1.4321074.4261551,2.4165206,0,0h0Z"/>
  <path d="M245.8996978,1240.2288722c-1.9167639,1.8471625-.6850047,2.831846.6930815,3.8559045,1.4974919-1.5080698.5368814-2.8769618-.6930815-3.8559045Z"/>
  <path d="M384.1136639,1335.7092774c-3.3469426-3.2696936-5.3686222-.8392754-7.4031774,1.7661233,2.7644296.3334761,5.3876141.5277489,7.4031774-1.7661233Z"/>
  <path d="M145.0110438,1191.5850317c-4.3946662-.7345066-1.7409648,2.8992672,0,0h0Z"/>
  <path d="M296.3112413,1337.2310564c.5290765-.6545759.9246709-1.4815805,1.4506858-2.3800791-2.8354023-1.1066122-2.6117025,1.6795072-1.4506858,2.3800791Z"/>
</svg>