<?xml version="1.0" encoding="utf-8"?>
<!-- Generator: Adobe Illustrator 27.2.0, SVG Export Plug-In . SVG Version: 6.00 Build 0)  -->
<svg version="1.1" id="cinnamon" xmlns="http://www.w3.org/2000/svg" xmlns:xlink="http://www.w3.org/1999/xlink" x="0px" y="0px"
	 viewBox="0 0 1266.0695801 1000" style="enable-background:new 0 0 1266.0695801 1000;" xml:space="preserve">
<g id="outline_1_">
	<path d="M42.203804,368.9303284c-1.2843933,0.3766785-4.1418533,1.6797791-3.6395264,4.2970276
		c27.3144379-7.3096313,58.9081573-16.7914734,84.8038406-25.9639587
		C102.1352234,350.0052185,64.1701889,362.2198181,42.203804,368.9303284z"/>
	<path d="M309.3520813,278.0526733c13.8759155-8.1203613,34.9821472-8.0917358,46.2120361-18.2390137
		C343.5432434,265.5681152,316.4106445,266.3116455,309.3520813,278.0526733z"/>
	<path d="M869.3043823,75.0358963c24.6122437-11.1715202,51.802124-26.3307076,75.805481-36.4017563
		c5.0117798-1.8628349,13.1025391-2.780365,15.4102783-7.6181412c-1.1489258,0.7919788-1.5928955,0.0099125-2.4619141,0.2322598
		c-32.3461914,12.4461231-70.9875488,31.3317242-101.6824951,45.6415405
		c-2.8485107,1.2546616-5.6100464,2.0851822-7.8009644,5.0108032
		C855.3040161,82.7114334,862.6907959,77.8746338,869.3043823,75.0358963z"/>
	<path d="M410.8416748,243.1290131c17.2256775-4.4512024,38.1974182-11.3456573,57.8265381-19.7073212
		c-7.2997131-1.1686249-15.2460632,3.418045-23.0471497,6.102478
		c-15.5358582,4.8852539-32.7613831,10.2442017-46.2019958,12.6972198c-1.4959717,0.4142303-1.9884033,1.032196-1.8439941,2.3847504
		C400.1437378,248.0241699,406.5447998,244.3649445,410.8416748,243.1290131z"/>
	<path d="M79.8988876,363.7543335c-3.4367599,1.0045471-10.5823059,1.1686401-11.5087738,6.0737
		c26.503746-6.1696472,57.6525269-15.477478,84.1760941-24.9019165
		C131.4302216,347.2633972,102.8115616,357.2565002,79.8988876,363.7543335z"/>
	<path d="M296.4533081,287.3022461c8.1489868-2.3364258,19.5034485-4.6341553,29.0436707-7.8593445
		c4.808136-1.8054504,12.0209961-3.3794861,13.585144-7.5410461c-14.4838257,5.9768066-36.1982727,7.0683289-49.3788452,13.6147461
		c-1.0718384,0.298584-3.3399658,0.4725952-3.0503235,3.1856689
		C289.4619446,292.0243835,292.7158813,288.8179016,296.4533081,287.3022461z"/>
	<path d="M483.6246338,227.950119c-5.1462708-2.684433-12.5231018,0.7919769-18.9537659,2.6359711
		c-23.5395508,6.7104034-51.8497314,17.071228-76.5193787,24.1188812
		c-3.8234558,1.0915375-9.3374329,1.2556305-11.9348755,5.2530975c24.438385-3.7462463,54.6794434-14.6469574,81.0872192-23.5592804
		C466.5830383,233.270401,476.9726257,233.0766907,483.6246338,227.950119z"/>
	<path d="M287.2610168,297.2963257c9.4136658-2.6657104,30.4725647-6.8173523,34.4897156-13.9618225
		c-16.9269409,5.7444153-43.7401428,12.4450378-59.2948608,19.6577759
		C268.2687073,305.4937439,278.1559448,300.3662109,287.2610168,297.2963257z"/>
	<path d="M969.1912842,37.8332291c-0.3283081-0.3766556-0.7821655-1.1686325-0.9275513-1.5938683
		c-29.951416,10.3608208-61.3117676,26.2437057-86.2236938,41.2298622
		C909.7421265,68.1514893,939.529541,49.9796715,969.1912842,37.8332291z"/>
	<path d="M98.6303024,365.3867493c4.5965805,1.48703,10.8145676-0.2995605,16.0765991-1.322937
		c16.1923599-4.1417542,35.0691452-8.6028442,52.7385025-14.1070557
		c-9.2307281-1.5444336-19.8031158,2.8682251-30.0086517,5.3302002
		C124.0246353,358.617981,110.4583359,359.7095032,98.6303024,365.3867493z"/>
	<path d="M286.4403992,302.6166077c-14.0102539,4.4798279-30.6563721,7.8396301-42.5912323,13.0827942
		c16.6461029-0.105835,37.7920074-8.9025269,58.7055206-16.7134094
		C297.8236084,296.156311,291.4710388,300.742981,286.4403992,302.6166077z"/>
	<path d="M609.8996582,180.8888397c32.9254761-11.2101898,70.4663696-24.2445526,102.2518311-37.9167023
		c-41.2672729,11.2872925-85.1617432,27.9621582-126.2453003,44.7625732
		C592.6740112,189.5213013,602.7451782,183.3991394,609.8996582,180.8888397z"/>
	<path d="M210.7407532,332.074585c-6.6046753,1.8934326-15.8443298,1.265686-18.1331482,7.0011597
		c14.2513275-3.5831299,34.2582092-6.4889221,46.8001404-13.7689514
		C231.2784729,325.3067932,220.6091614,329.2745056,210.7407532,332.074585z"/>
	<path d="M904.614563,77.0341949c25.8582764-9.2208176,51.7825928-23.9934387,77.6880493-35.5417366
		c0.18396-0.9748001,0.2423096-1.4672165,0.0198364-2.346199c-0.6466064,0.2026443-1.1972656-0.077095-1.9695435-0.3569527
		c-18.1134644,7.9552689-41.2199707,19.6103973-59.6329346,28.1361542
		C915.0812378,69.879715,906.9035034,71.2985992,904.614563,77.0341949z"/>
	<path d="M387.0213928,266.147522c5.3786621,1.7183228,11.7024841-1.9992676,17.0811462-3.5050354
		c32.2492371-9.6460571,70.3596497-21.3969879,101.4786987-31.6511078
		c-31.6025391,2.9641724-75.5830383,20.1314545-110.3623962,31.4286346
		C393.0852051,263.0379944,389.0591125,262.7779541,387.0213928,266.147522z"/>
	<path d="M133.7290649,367.4432983c7.4243011-0.7148743,15.2164612-1.0915527,22.9412994-6.5176697
		c-11.3258209,0.8888855-26.2822418,3.7660522-36.6718216,6.266571
		C122.0739365,371.2093506,129.1136322,368.2925415,133.7290649,367.4432983z"/>
	<path d="M169.5505371,351.7048035c21.0103149-1.8439941,42.4261475-8.8639832,67.8006592-19.7744751
		C215.5014343,338.1385193,190.0586395,343.9798279,169.5505371,351.7048035z"/>
	<path d="M986.5038452,45.8468704c-14.6865845,2.7911377-37.7436523,12.1464424-48.9538574,19.9485016
		C951.8589478,63.1307678,974.125,53.5331726,986.5038452,45.8468704z"/>
	<path d="M602.3101807,193.2389069c36.7301636-10.9114838,86.1950684-29.1890259,122.4317017-45.0432739
		c-26.3009644,6.1023407-55.5286255,18.1233521-82.1096191,28.0006866
		C628.6122437,181.5749664,612.2844238,184.3839722,602.3101807,193.2389069z"/>
	<path d="M296.8774414,309.848175c13.315094-2.8387451,31.6311646-7.5994263,47.0325317-12.9286499
		c6.4306641-1.8054199,13.9421082-3.9587708,17.4471436-8.6413879c-16.7134094,4.7398682-37.0959473,10.5625-54.1089478,15.8729858
		C303.6264038,305.1842957,298.2101746,304.8461609,296.8774414,309.848175z"/>
	<path d="M410.7260437,267.2478943c9.1723633-0.2698364,19.4848633-3.1955872,28.5612793-6.2853088
		c30.2698059-9.9939423,62.0266418-18.1045074,93.2812805-31.1684723
		c-34.8951721,7.6082306-76.1822815,22.1592407-111.5983582,32.6940765
		C417.9387817,263.3375549,412.3386536,263.1061401,410.7260437,267.2478943z"/>
	<path d="M208.0177765,350.9029236c-7.1158142,4.3552551-16.4138489,4.2297058-23.1925354,4.7795105
		c-1.2931976,0.3579407-1.052002,1.2171021-2.3461914,1.59375c9.1437225,5.242218,24.0516968-1.7381287,37.7919922-5.6683044
		c6.4207611-1.8241577,12.2048187-3.4951172,17.7278595-5.995636
		C230.2453003,342.715271,215.9938507,353.7425232,208.0177765,350.9029236z"/>
	<path d="M317.8690491,311.3153687c12.638855-3.6107483,26.8132019-6.7203064,39.3551331-10.7463989
		c4.9150085-1.4000244,11.963623-3.4180298,14.4552002-7.8306885c-21.1943359,6.971405-47.1285706,11.1043396-65.9479675,20.6336365
		C308.8212585,315.2455444,313.9289856,312.8795166,317.8690491,311.3153687z"/>
	<path d="M629.5198364,191.9832611c7.0772705,1.2359467,15.342041-2.9740753,22.7288818-5.5417633
		c30.7720337-11.5385132,62.9441528-23.0383453,90.9546509-35.1659393
		c-9.0952759-1.1203003-18.7699585,4.8566132-28.2705078,8.0333405
		C685.8978882,169.4472504,654.9815063,180.5605164,629.5198364,191.9832611z"/>
	<path d="M469.3632812,261.6864014c15.391571-4.3929443,33.7175598-10.9976196,51.8606567-18.0462494
		c9.6065063-3.6493225,21.010376-5.9767914,27.4884033-12.4263c-32.326355,10.1087341-69.1809692,23.8776855-99.1235657,34.2474213
		C454.9961853,268.9959412,462.6439514,264.0523071,469.3632812,261.6864014z"/>
	<path d="M1045.2380371,42.1203384c-8.0917969,0.8879166-22.4788208,4.06464-25.2788696,11.3544617
		C1027.8482666,49.361702,1041.9069824,49.0522308,1045.2380371,42.1203384z"/>
	<path d="M384.0858765,295.7024536c-20.6624146,6.3247986-48.4416199,13.7887573-65.1451111,20.8660278
		c10.7177734,1.0816345,26.600647-5.7543335,40.5437317-9.694397
		C365.3544617,304.7206116,379.2973938,301.6891479,384.0858765,295.7024536z"/>
	<path d="M208.5012665,359.1201782c6.9517059,1.7184448,15.274826,0.7238159,25.3933563-3.5237732
		C227.05867,354.3308716,215.8484802,355.6536865,208.5012665,359.1201782z"/>
	<path d="M740.3262329,162.2829742c-0.8305664,0.2411957-1.1974487-0.1354523-2.0367432,0.1255493
		c-28.8411255,10.9778137-58.3872681,23.5691986-83.7044678,33.0797882
		c3.8145142,3.5722198,11.8666992-0.6080627,16.260498-2.3274841c23.9747314-7.7337799,47.9877319-20.1215363,70.5338135-29.7773743
		C741.3307495,162.475708,741.3307495,162.475708,740.3262329,162.2829742z"/>
	<path d="M407.1053772,298.4065857c-12.0693665-1.6896973-29.5361938,6.0925598-46.6560059,11.8953247
		c-11.9724121,3.427948-23.7817383,4.4414368-30.9460144,9.2792053c7.5222168,2.0180054,23.9942932-3.5920715,34.5865173-7.0871887
		C378.3314209,307.9843445,396.7445374,302.7609863,407.1053772,298.4065857z"/>
	<path d="M951.7727661,84.0056152c-16.30896,6.9715347-37.9372559,17.2829208-55.4811401,25.548645
		c-4.9436646,2.2978592-13.4398193,3.3409424-14.9653931,9.3365784
		c25.171875-10.8720779,51.9851074-20.8265076,71.460022-33.7847519
		C952.737793,84.2083817,952.1970215,83.8998871,951.7727661,84.0056152z"/>
	<path d="M522.0059814,253.6243134c7.3571167-2.5489655,18.3744507-6.1696472,27.1602783-8.6415253
		c5.8027344-1.6708374,14.6480103-1.4098206,15.4299927-7.6664734
		c-24.5827026,5.6386871-54.2255859,15.4488373-78.7696838,25.2193604
		C494.4581909,265.1815491,508.912262,257.3606262,522.0059814,253.6243134z"/>
	<path d="M986.0301514,73.3462143c-11.3930054,5.5417633-30.0482178,9.9257889-35.2035522,17.8623428
		c11.885437-2.9059219,27.1414185-9.5689621,36.5749512-15.5062332c0.3184204-0.5319443,0.5021973-1.525589-0.3381348-1.2655487
		C987.0247803,73.5005188,986.4552612,73.1920242,986.0301514,73.3462143z"/>
	<path d="M696.5198364,191.4423981c7.5983276-2.6646118,18.9054565-4.4412994,20.5466309-10.0315247
		c-9.9642944,2.3946533-23.6947021,6.3051147-33.2537842,11.7697906
		C685.7051392,197.283844,692.0488281,192.7168732,696.5198364,191.4423981z"/>
	<path d="M398.0091248,311.1898193c-6.5750732-2.7704468-15.7187805,2.6072388-24.4086609,4.6153259
		c-11.1330872,3.1579895-22.874115,4.2298279-32.5587158,9.2692566c4.8862305,4.1913147,13.9330444-0.7137756,21.2041321-2.7901306
		C374.5950928,319.2330933,388.6438904,316.625885,398.0091248,311.1898193z"/>
	<path d="M526.4473877,261.1940002c-10.0325928,1.4385681-27.2186279,4.4996643-34.9336853,9.9454956
		C500.0968628,272.8292847,518.7422485,267.5475769,526.4473877,261.1940002z"/>
	<path d="M733.6641235,198.9250641c42.6101074-15.370636,79.5133057-37.9363861,117.0541992-57.3825684
		c-0.7049561-0.7721558-1.2271118-1.0717163-2.1049805-0.8493652
		c-32.1721802,14.7340698-68.0618286,35.1462402-102.3685913,50.4695282
		C742.0930786,192.8424225,734.3206787,193.1904449,733.6641235,198.9250641z"/>
	<path d="M655.2712402,216.6143799c2.4421387,2.0851898,12.5616455,0.1255493,14.395874-3.1866302
		C666.6642456,211.0626984,656.6999512,213.4277496,655.2712402,216.6143799z"/>
	<path d="M545.1115112,267.4506531c26.5235596-6.159729,59.7090454-16.5393982,85.7984619-29.0823212
		c-23.5493774,6.7104034-54.177124,16.3564606-77.0897827,23.7916412
		C550.7402954,263.5214844,545.2074585,262.7966919,545.1115112,267.4506531z"/>
	<path d="M581.9474487,262.4881897c-7.0783691,2.0269165-17.2157593,2.1435547-19.2821045,8.7373352
		c18.5088501-5.7058716,38.9398193-9.6745605,56.7349854-17.9976959
		C609.5526123,252.8036957,594.4893799,258.4710083,581.9474487,262.4881897z"/>
	<path d="M1065.3208008,91.5081177c8.9707031-3.4951324,17.4283447-6.353569,23.8590088-11.4326553
		c-0.1256104-0.3855896-0.6950684-0.7336121-0.8106689-1.1676559c-0.1157227-0.3964767-0.6665039-0.7148895-1.2260742-1.0144501
		c-14.3681641,6.3921204-29.7487793,12.6201401-42.8898926,20.1126022c-2.1247559,1.4870377-7.0683594,2.8969879-6.0925293,6.353569
		C1045.1311035,102.8141174,1055.743042,96.0947876,1065.3208008,91.5081177z"/>
	<path d="M1091.6032715,85.3859482c-5.0108643,1.9319763-11.3743896,5.5713806-16.9260254,8.1016235
		c-4.1318359,1.6313171-10.7364502,2.1237335-11.2290039,6.9032593c9.2979736-0.7919846,26.4562988-8.0136414,29.9217529-14.5698547
		C1092.791626,85.5214081,1092.6947021,85.1159973,1091.6032715,85.3859482z"/>
	<path d="M215.8484802,428.8233337c6.2862701-2.2593079,12.542923-3.1095581,16.6461029-6.5661316
		c-17.4954834,3.5732117-37.2412109,11.4809875-54.2444,14.5124512
		C186.563385,439.9463806,202.6974945,433.052063,215.8484802,428.8233337z"/>
	<path d="M962.489563,150.9086914c-0.6466064,0.1839294-1.1102295-0.6179657-1.7371216-0.4439545
		c-22.3046265,12.8514099-47.74646,28.4357147-70.4465942,42.3005981
		c-7.1069946,4.3256531-16.7044678,7.0970917-21.4553223,13.9816284c3.4090576,2.269104,8.1016235-2.307785,11.3168945-4.1428375
		c25.4616089-14.6667786,57.3825684-33.4949799,81.1832886-49.9672089
		C962.6349487,152.2602692,962.7219849,151.739212,962.489563,150.9086914z"/>
	<path d="M962.7120361,161.4810944c-12.5903931,5.4745789-27.1028442,14.6865845-40.2440186,22.1208038
		c-8.4970093,5.2332764-19.5332031,7.8692474-22.8642578,15.7869568
		c19.4561157-10.6110687,48.3544922-22.9988251,64.5667114-36.913147
		C963.706665,161.7035522,963.3586426,161.3080597,962.7120361,161.4810944z"/>
	<path d="M321.7507324,407.0110168c1.728363,3.6790466,6.8746338,1.3041992,9.6064148,0.4933777
		c20.8562317-4.0844421,52.0050354-14.3483582,72.9866943-24.4382629
		c-10.6021423,0.2026672-23.443634,4.7982483-35.5427246,8.6898804
		C352.3389282,397.3847656,336.2721252,401.9715576,321.7507324,407.0110168z"/>
	<path d="M219.9812775,449.9009399c16.4623108-5.618988,36.7292328-7.6566772,45.6128998-17.1573792
		c-30.9658356,8.3616638-75.3517303,23.3180847-100.1468201,35.4448242
		C183.6763153,463.9408264,201.9064941,455.5010681,219.9812775,449.9009399z"/>
	<path d="M320.272644,418.1055603c4.9920654,1.3614807,12.0405884-1.5829773,17.8148499-3.2440186
		c18.4515381-5.2234802,40.3211365-13.7878113,59.6417542-19.2919922
		c-21.1260681-0.9175415-51.2129211,15.5070801-74.5111694,19.8426514
		C321.0546875,416.0104675,320.0996094,416.7736816,320.272644,418.1055603z"/>
	<path d="M231.905365,450.2104187c-7.0090942,1.515686-16.2398376,4.1516418-18.9825134,9.0853577
		c15.9412537-5.9086304,34.3155975-8.8243408,48.7223206-15.2362976
		C254.5768585,442.8334656,242.2761078,446.7824707,231.905365,450.2104187z"/>
	<path d="M949.6866455,180.0295563c-11.3831177,5.5615997-26.1369019,10.6891327-35.9371338,18.5673218
		C924.8240967,196.8398895,945.0040283,188.7777863,949.6866455,180.0295563z"/>
	<path d="M304.4084778,425.8492432c-2.2779236,0.1839294-3.0027161,0.8404541-3.7462463,1.5354919
		c10.5151367,3.5049438,26.8231201-3.4467773,41.7894592-8.6611938
		C334.1186523,415.5466919,315.4456177,426.4187622,304.4084778,425.8492432z"/>
	<path d="M592.1817017,327.6916504c-15.6228638,7.6952515-30.6366577,15.2263794-44.8781738,23.9073181
		c15.6218872-2.1435547,32.7702637-13.4892273,45.3132324-20.7889404
		C593.0122681,329.7768555,592.7512207,328.9463196,592.1817017,327.6916504z"/>
	<path d="M830.7311401,245.4070435c7.1644287-2.5005035,17.0614624-4.3929443,17.2157593-9.5105896
		c-12.0021362,3.3992004-27.5864868,7.3768311-36.0736694,14.898056
		C815.2912598,253.0548096,823.5570068,247.9074402,830.7311401,245.4070435z"/>
	<path d="M1061.1020508,158.0443268c7.1542969-2.5203247,15.9986572-4.0943756,16.7805176-9.4432831
		c-14.5795898,4.1615601-34.2285156,11.6055603-47.8522949,18.2586975
		C1037.0118408,168.6068115,1049.6693115,162.688385,1061.1020508,158.0443268z"/>
	<path d="M461.677948,384.2921753c3.6879883,4.0745544,14.4542236,2.8583069,18.7798767-0.6950684
		C475.9294128,380.710022,467.5005798,380.3431702,461.677948,384.2921753z"/>
	<path d="M995.3479004,187.4351501c18.8855591-6.8162537,36.2368164-12.6873169,53.9448242-19.5520325
		c8.7768555-3.4466705,19.3205566-5.4944153,23.7530518-11.8567963
		c-32.4044189,11.5284729-67.8205566,23.0086212-99.3746338,36.6233673
		C979.9179077,195.9708099,988.0966187,190.4191284,995.3479004,187.4351501z"/>
	<path d="M691.4793091,302.2102051c11.779541-3.3695679,37.5596313-12.0880737,46.3652344-20.1600952
		C725.2541504,287.4762573,701.7718506,293.7229919,691.4793091,302.2102051z"/>
	<path d="M656.6030273,320.488739c1.9508057,3.6108704,6.5562134-0.5022278,9.2505493-0.8117065
		c24.5439453-7.4342041,58.0291748-24.8526001,80.8845825-36.459259c1.3129883-0.3667297,1.4000244-0.8591614,1.0133057-2.1721802
		C722.0200195,291.6278992,686.5545044,307.7628479,656.6030273,320.488739z"/>
	<path d="M595.4642944,339.2785034c-5.213562,1.9309998-14.3474121,7.2987671-21.1548462,11.103363
		C580.8173218,350.3719482,595.0114136,344.9557495,595.4642944,339.2785034z"/>
	<path d="M827.1678467,145.9066925c9.4532471-5.0296478,19.8812256-7.5311279,27.0158691-14.1831665
		c-5.918396-2.0179901-13.9904175,5.3776703-20.8551025,7.3283691c2.5004883-2.5785675,7.2127075-3.9202423,9.182251-6.807312
		c-10.9589844,2.2403412-31.1199951,10.23526-39.5390625,17.283905c6.729248,0.8591461,8.6987915-2.0180054,15.5447388-3.9787445
		c-15.3232422,11.3259583-42.0010376,18.4713745-56.118103,30.8305054
		C782.9076538,170.0850372,805.336853,156.2863617,827.1678467,145.9066925z"/>
	<path d="M436.8442078,311.7019348c-14.0873718,5.8512573-31.5541992,8.0531921-45.9312134,11.2289124
		c-0.2798462-0.8690491,1.5927734-0.9165344,2.9740906-1.7756958c-12.234436,0.2314148-30.5021667,5.8987122-42.4074402,9.7320862
		c8.6415405,2.6655884,22.5934143-3.6305847,33.4565735-5.3293457c0.6277466,2.1337585-2.8296814,2.19104-4.8478088,3.2153931
		c20.5180054-3.5346375,44.1643982-7.4638367,65.5129395-16.337738c-0.2313843-0.839325-1.2260132-1.0232544-1.3614807-2.3561096
		c5.2332764-1.9794617,14.2810669-2.7031555,16.9645081-7.1444397c-12.184967,1.1390076-33.0114746,6.1211853-42.3876038,10.6593933
		C423.1138,315.602478,429.5543823,313.7871399,436.8442078,311.7019348z"/>
	<path d="M1080.0944824,47.4594612c-3.6505127-6.3722916-1.835083-17.090065-6.2862549-24.602478
		c-4.5858154-7.0574417-45.8056641-22.6417446-59.7774048-22.8256664
		c-13.3239746-0.3668651-36.1497803,2.4332042-56.2811279,11.3841982
		c-6.6916504,3.3022757-190.2622681,87.546524-211.6779785,97.8006363
		c-21.9279785,10.8720779-44.3482056,19.1179733-67.2995605,27.9720535
		c-46.0567627,17.2541656-92.6829834,36.5946198-139.2321777,51.2030182
		c-44.0188904,13.0254211-87.6434021,24.979126-130.9772949,38.7095337
		c-25.6830139,8.2261963-95.8696594,31.0034027-105.7370605,33.8322296
		c-11.0075684,3.5534973-21.0390625,7.3768311-32.3847351,11.5195312
		c-19.8416748,7.4925842-39.5291595,10.8038025-59.4974823,15.5646057
		c-13.3921661,3.3408203-146.1354218,41.5767822-185.4144592,53.2496643
		C16.0668068,343.9611206,5.3589473,347.0310059,0,354.0994568c0.0287569,14.8110657,4.5185103,29.7487488,9.1051807,47.4468689
		c5.3292112,21.1646118,17.8722534,34.3058167,27.8850536,49.9483643
		c6.362381,9.317749,13.7877884,18.2973633,20.9234238,24.6499634
		c16.1151428,14.3869019,35.2806015,24.6706238,54.3511047,29.8842163
		c31.9783249-8.1491089,63.5037613-19.4660034,95.8113937-29.5648499
		c30.3083344-9.1150818,229.3177338-53.7332458,383.1691895-116.9958191
		c24.3513794-10.6307678,49.6004639-18.7610168,74.0959473-29.4501648
		c46.7132568-19.7745056,94.5853882-40.3596802,145.644104-59.5448608
		c25.1334839-9.453186,51.1061401-17.3027344,75.6601562-28.0016632
		c11.2012329-4.5856781,26.5245361-8.4772949,38.265564-12.7931671
		c37.859314-13.5277405,163.8050537-66.5362091,168.2374268-69.6358337
		c8.5643311-6.6233978,18.9726562-26.2526398,21.4642334-36.2268906
		c5.0405273-20.4606247,0.7919922-48.4326859-15.4686279-63.2338181
		C1098.3531494,59.4229584,1082.1796875,51.5052567,1080.0944824,47.4594612z M1081.8415527,57.5978127
		c-37.3470459,25.0275917-78.1419067,44.5124321-115.6828003,69.5587463
		c-4.8852539,3.2440262-8.6315308,7.0871811-13.5178833,10.3598404
		c-28.0777588,17.7080383-56.7161255,35.1264191-86.6379395,51.985199
		c-80.1508179,45.5257874-175.3739624,96.7486115-274.7575684,125.9753265
		c-46.7132568,13.2765503-94.6624756,32.0178528-141.4726562,44.8791809
		c-11.151825,3.215271-22.226532,4.9623413-33.1666565,8.0718994c-11.0460815,2.6646118-22.1494446,3.5050354-33.0698547,6.6620789
		c-40.5921936,8.7581177-82.1491699,23.8204041-121.8820801,30.0482788
		c-67.2985687,10.8137207-130.8507996,18.7125854-198.0147705,38.3418274
		c1.6797714-5.6001282,6.5363922-12.0881958,12.1949005-14.1447449c23.9745941-7.7536011,53.6847916-9.2603455,80.246788-13.5859985
		c13.3339081-1.940918,26.5819244-3.4082642,39.2692413-5.1651306c14.0873566-2.6270142,27.4983673-5.9966125,40.8521118-7.019989
		c25.7612-2.2206421,53.414856-11.0262756,81.7723694-16.3079834c13.9717102-3.0610962,28.223175-6.6531372,41.9249268-10.5635986
		c14.5797729-4.1516418,29.2078857-6.4493713,42.7831116-10.7948608
		c10.1967163-3.3310242,20.0839539-7.5696716,30.9173584-10.1957397
		c24.5540466-6.5275879,50.3913574-13.420929,75.9014587-20.6722107c4.7992249-1.8350525,10.7276917-2.1336365,15.313385-3.9104614
		c2.8781128-1.2744751,6.2476807-4.0745239,9.2406006-4.9436035c14.0774536-5.8710632,28.7925415-8.6612244,42.6387329-13.0738831
		c45.6612549-15.3330688,88.6282959-33.5622864,130.0113525-50.8945312
		c28.4841309-12.2908325,55.9152222-23.3270111,82.043396-37.2699585
		c24.5638428-13.0156403,46.9830933-28.6671295,71.7397461-41.749939
		c14.8892822-7.9276123,30.946167-15.758316,46.1052246-25.1630554
		c13.1312866-8.3616638,24.9207764-18.2389984,37.9749146-26.1082458
		c12.0119629-6.6620636,23.7918091-13.2568207,35.107605-20.6435623
		c10.6990356-7.222641,21.010437-15.7285767,32.2591553-22.6131058c4.7695923-2.7516174,10.5634766-4.4126663,15.5457153-7.2226486
		c11.3841553-6.4880524,21.8498535-15.9412537,33.5623779-22.0525284
		C1069.7532959,55.0390549,1075.0638428,51.6882019,1081.8415527,57.5978127z M95.8400192,442.6209106
		c-3.4278259,0.9749146-7.6467743,4.045929-9.2979126,2.2019348c6.6136093-5.1374817,14.241539-3.620697,22.333252-6.8656921
		C110.8835754,439.2701721,101.4214401,441.018219,95.8400192,442.6209106z M25.0939159,408.0927734
		c-7.6952343-10.7564697-6.8162498-23.9934692-13.874794-34.9436035
		c24.1772442-7.7910461,50.6533279-14.8980713,74.9463272-26.4364319
		c-20.440918,3.9587708-47.4281425,14.907959-68.4475098,20.8660278c-2.6942196,0.3085022-6.9141474,3.3408203-8.5257587,0.1156311
		c26.0885372-12.5133057,59.5934296-22.5360107,83.6649475-30.7819214
		c-25.0375061,1.5839539-58.0974579,18.8766785-86.2049789,25.925293
		c6.1509256-6.8271179,17.4094505-9.5589294,27.258152-13.2963257
		c30.9648552-11.5858765,59.8544426-14.2702942,86.947525-25.7028503
		c-30.2995377,5.8512573-66.4779663,13.8658752-98.3128738,25.6939087
		c-6.092556,2.1820984-11.8953381,6.1410217-16.1240768,5.9768982c3.774868-6.1993713,14.5599442-7.3867188,19.2820778-8.7384338
		c14.9653568-5.1848145,30.6178188-8.7194519,47.1284637-13.3921509
		c15.1295776-3.8619995,30.3954697-9.6075134,46.4424515-11.8568115
		c15.2658997-2.5014648,30.7245331-5.9768982,45.3714752-10.6219482
		c13.585144-4.295929,26.3890839-10.7166748,39.3177032-14.8881226c9.4423218-2.6844482,17.6794128-2.2206726,25.171875-4.3840332
		c22.2078247-4.943634,43.401062-15.1393738,65.9954529-22.0050659c11.0074158-3.6395264,22.2363281-4.0745544,33.0500488-7.5884094
		c18.2973633-5.6585083,36.1220093-13.0640869,53.955719-19.5233765
		c56.7546997-20.344986,112.3031921-35.2332458,167.5324402-51.889267
		c30.5405884-9.1536407,60.279541-22.6902008,90.9359131-32.8187714
		c98.6015625-33.6205292,178.2303467-78.567009,266.4049072-117.1025238
		c12.5913696-5.4359207,25.5386963-9.597477,37.5595703-15.3034649c5.2244873-1.9705238,9.1348267-5.3786488,13.9330444-7.2423439
		c46.1921997-19.1654587,79.3689575-10.0701895,108.9050903,6.5077572
		c2.2207031,6.353569,4.9051514,12.5232162,4.9051514,18.0758781c-6.0065918,9.0952682-17.9888916,12.5232162-28.4071045,18.2586975
		c-3.4951172,2.3848686-6.5948486,6.0540047-11.3060303,8.3320503c-5.8424072,3.0511703-12.9483032,4.1327972-18.7808228,7.2127228
		c-5.9758301,2.6171265-10.7752075,8.5940475-15.2452393,10.8236237c-3.5821533,2.8682327-8.1885376,3.7076874-11.8093262,5.6583862
		c-23.2310791,13.585144-45.7185059,27.3737946-69.6348267,39.2978821
		c-5.0018921,2.8197784-10.3509521,4.3355713-15.5744019,7.222641c-4.0072632,3.0027161-7.6665039,6.3337555-12.3689575,8.584137
		c-28.8411255,16.587738-61.7566528,28.7342987-94.5853271,43.6234131
		c-6.053894,3.137207-11.4424438,7.0001831-17.0999756,9.9643402c-15.3044434,7.15448-31.4197388,14.0390167-46.8773804,20.7780609
		c-49.7644043,22.03479-96.2275391,33.8816528-145.644104,53.0668335
		c-67.2213745,25.1433411-137.8706665,42.9580688-200.767334,60.3665466
		c-35.9283142,9.7815247-72.2708435,12.262207-109.7345276,20.6337891
		c-36.6134491,8.1005249-73.9616241,15.9609375-110.9032745,24.602356
		c-18.3546295,3.8520813-37.1157837,8.7087097-55.5959702,12.1366577
		c-9.1347961,2.1246948-18.7412033,2.5587463-27.7505646,5.1373291
		C56.5521698,404.6846313,42.4064484,411.9941711,25.0939159,408.0927734z M79.9473495,445.3339844
		c-0.0870056,4.6154175-12.543045,7.2325439-16.9457932,8.0146179
		C61.949543,447.1779785,74.8010788,447.690094,79.9473495,445.3339844z M82.4961929,477.9312439
		c1.9409103-0.5506592,8.5258789-4.2771912,7.2899399-2.0664673
		C85.4604797,476.1357117,84.5626526,481.9573364,82.4961929,477.9312439z M1109.0313721,122.1348648
		c-1.651123,8.8451462-14.4155273,29.1504745-21.4731445,34.4025955c-3.9300537,2.4915771-9.8397217,3.6988831-14.9473877,6.0737152
		c-4.97229,2.8387451-8.2647705,6.0826416-11.8370361,8.0136414c-6.4989014,3.2450104-12.9770508,4.1911774-20.5863037,5.8512421
		c-9.9543457,3.3222198-19.4936523,8.8155365-29.8643799,12.2335663
		c-32.3748169,12.4757385-68.2160645,24.0427551-95.8598022,35.1758575
		c-19.2139282,7.3283691-37.4627075,18.0747681-59.0722656,25.1907043
		c-56.1368408,19.2050018-112.7472534,44.1455841-168.7584839,67.9174042
		c-21.1072998,8.8155212-42.9194946,15.9501953-63.5046997,25.0464478
		c-59.4204102,24.8139343-129.1037292,52.5160217-188.4085083,68.0320435
		c-19.6289978,5.1176453-39.4233093,11.2201233-58.2318115,15.178894
		c-81.8881226,18.2192993-174.9775238,45.177887-257.9275818,74.347229
		c-12.0792618-3.456604-23.3377838-9.5491638-32.6358185-19.4077759
		c10.3025742-2.9353943,27.6338272-4.6152954,34.1129456-11.1230469
		c-4.8664093-0.9175415-12.3490829,3.0610962-17.8236694,3.2440186c6.9032516-4.2871094,21.7242126-4.3257751,22.9601517-12.069458
		c-16.3367538,6.0154419-32.1819534,11.4711914-46.5976181,13.7017517
		c-2.0180054-2.1920166-4.0161819-4.4225769-5.9382477-7.1068726c17.592392-7.3284912,38.7194443-9.616333,51.0784378-18.2489014
		c-16.3761597,0.9758911-38.0530167,12.7258606-54.399559,13.179718
		c21.75383-9.8961792,46.5777969-14.6470642,64.7496109-24.0230408
		c-16.3753052,1.8934326-36.8547668,10.4962769-53.3170776,16.1349487
		c-5.0018692,1.8637085-11.5096283,5.1176453-15.6524658,3.5139771
		c17.2552643-7.6755371,36.3534241-12.2137451,52.4399338-19.0982666c3.0028381-0.8591614,5.8315353-3.9687195,8.8342514-4.8180847
		c5.9966125-1.699585,14.1071777-1.6797485,21.4069061-2.8771667c22.7189636-3.215271,44.1545105-6.0925293,65.5118561-10.7662048
		c-14.9751434,5.1849365-32.4805298,8.7867737-46.1051941,12.1850891
		c-4.8368073,0.9273376-11.315918,0.9372253-12.8216858,5.5141296
		c27.1988068-2.1733093,50.6334991-13.4892273,79.3193512-21.6669617
		c10.1867981-2.4243774,21.6283875-3.8244324,32.1533203-5.8897705c10.8522339-1.7293396,21.387085-3.7759705,31.7371216-4.8863525
		c21.8408508-2.9740906,44.0198975-9.7418823,65.9864197-15.5358582
		c15.90271-3.5623169,34.4501953-10.7364807,51.6856384-17.0227661c13.6621094-4.8269958,28.869751-5.9373779,43.0054321-9.9446411
		c36.749054-10.910614,71.4611206-24.032959,108.8181152-35.1560059
		c-17.447998,8.67099-40.1768799,17.4667053-60.5890503,25.5969543c-6.2852783,2.2692261-15.641571,3.5050659-18.045166,9.7617188
		c19.4263611-4.1328125,42.9758301-18.2489319,60.4812012-21.850769
		c-8.5928955,4.779541-22.6704712,7.3867493-25.4902344,13.7502441
		c20.2282104-6.2280273,42.2619019-16.6462402,57.6149292-27.0743713c-0.2224731-3.1767273-3.1768188-0.4735718-4.0745239-2.0762329
		c9.6262207-5.9867249,21.4927979-7.5025024,32.9343872-11.2201233
		c32.1235962-10.0700684,64.8849487-22.6703796,95.4741211-36.459137
		c18.364563-8.0037231,36.2654419-18.2004395,54.3987427-26.1566925c5.4458008-2.9444733,11.9822998-4.3256531,17.5349731-6.8261719
		c47.1572266-22.2364502,94.4597168-50.5466156,136.4321289-76.3948212
		c14.2029419-8.6602478,29.062561-17.5241089,42.9283447-26.5718994
		c6.6620483-4.2001038,11.5957642-9.7617035,18.5870972-13.6424103
		c21.0964966-12.9483337,42.3777466-26.9101334,64.3827515-38.2359619
		c17.7752686-9.2505569,34.9049072-20.6050186,54.4085693-27.0841446
		c12.590332,12.6299286,15.6800537,34.0160294,14.5509033,49.571701
		C1108.4046631,115.8396683,1109.6306152,120.1653214,1109.0313721,122.1348648z"/>
</g>
<g id="outline">
	<path d="M1213.6535645,530.8394775c-11.9923096-3.0709839-28.8026123,1.8538208-41.2773438,11.508667
		c14.8022461,2.1821899,27.3826904-5.2619019,40.3894043-8.6602783
		C1214.387085,532.5291748,1213.3540039,531.7945557,1213.6535645,530.8394775z"/>
	<path d="M1137.4624023,494.1962891c0.8009033-0.5794067,1.7668457-1.6125793,2.4718018-3.0996399
		c-0.7049561,0.1166382-1.0627441-0.7434998-2.0090332-1.0134583c-7.4442139-1.5452881-14.965332,2.3848572-23.1826172,4.5669861
		c-4.779541,1.2071533-13.4022217,0.7820435-13.6820068,7.5795898
		C1114.163208,503.7651367,1125.2862549,495.7031555,1137.4624023,494.1962891z"/>
	<path d="M1062.5161133,534.9713135c10.2154541-3.8717651,21.203125-5.6188965,31.3514404-9.9158936
		c1.9981689-0.3283081,1.1676025-1.1004639,1.8538818-2.5588989c-0.7435303-0.3469849-1.7480469-1.081604-2.4818115-1.4187012
		c-10.2924805,3.4268188-21.6955566,5.2520752-32.4519043,8.7768555c-10.7275391,3.5050049-22.8254395,6.7490234-30.22229,14.260376
		C1041.9111328,544.5689087,1051.6915283,538.0324097,1062.5161133,534.9713135z"/>
	<path d="M1049.6063232,524.8625488c10.2056885-1.2071533,20.7493896-1.5067139,30.4724121-5.7741089
		C1071.5529785,512.3295898,1055.1293945,515.3807373,1049.6063232,524.8625488z"/>
	<path d="M1086.2493896,582.1779785c9.4819336-1.4781494,19.0498047-0.7435303,27.5953369-5.2817383
		C1106.6032715,571.2762451,1091.2800293,574.1633301,1086.2493896,582.1779785z"/>
	<path d="M1034.901001,608.3821411c12.012085,1.699585,21.9082031-7.0871582,34.112915-4.0547485
		C1060.8165283,592.5477295,1044.1801758,601.5075073,1034.901001,608.3821411z"/>
	<path d="M910.7508545,580.7195435c22.7000732-9.0082397,47.505188-18.8094482,71.460144-27.1314697
		c0.9747925,0.3182983,1.6610107-1.1499023,2.3847046-2.1832275c-0.4151611,0.0870361-1.0331421-0.7425537-1.5354614-1.0905762
		c-25.036438,5.7544556-49.0684204,14.9752808-73.2268066,24.6895142
		c-8.0819092,3.0986328-17.4866943,6.3822021-23.1738281,13.1599121
		C895.3109131,588.5790405,902.8815918,583.770874,910.7508545,580.7195435z"/>
	<path d="M1039.8446045,615.2577515c-8.9893799-3.9786377-21.9951172,2.133606-31.5253906,9.0655518
		C1019.4719849,626.1970215,1032.2067871,618.2694092,1039.8446045,615.2577515z"/>
	<path d="M990.6694336,665.0410156c-7.4154053,3.0027466-16.5205688,2.6171265-22.8543091,8.130249
		c3.649292,3.0313721,9.7418823,2.9542847,13.2468872,2.3946533c27.3342896-7.0386963,51.2415771-29.7684326,78.6540527-34.5667725
		c2.1239014-0.7919922,0.5209961-1.0045776,2.2008057-3.0610962c-0.8007812-0.7721558-1.0806885-1.1875-1.8052979-1.5355225
		C1035.9628906,640.6798706,1014.3929443,655.4246826,990.6694336,665.0410156z"/>
	<path d="M918.3304443,585.8273926c13.4011841-3.4853516,30.4338989-7.0773926,40.321106-15.8641357
		C945.2791138,572.5220947,927.8508301,574.8485107,918.3304443,585.8273926z"/>
	<path d="M1010.5309448,633.8922119c5.1552734-1.699585,10.6208496-1.2160645,14.8496704-4.6154175
		c-8.6029663-8.5444946-28.5127563,2.2978516-36.3909912,9.4047852
		C995.0238647,642.6503906,1002.9987793,636.0169678,1010.5309448,633.8922119z"/>
	<path d="M1030.6812744,642.9014893c1.1113281-1.5454102,0.3676758-1.8835449,0.8215332-3.293457
		c-0.1166992-0.8977051-1.2745361-2.5192261-2.4530029-1.4287109c-12.0980225-2.1238403-25.0365601,4.4126587-37.2897949,9.5303345
		c-5.7444458,2.2591553-14.5411377,3.6592407-14.5985107,10.4567261
		C995.3520508,656.1583252,1011.8054199,641.8198242,1030.6812744,642.9014893z"/>
	<path d="M963.0930176,629.2581177c-18.5099487,8.3319092-39.75177,16.6935425-59.303833,26.9871826
		c-5.1373291,3.0986938-14.4935913,5.4746094-15.4200439,12.3877563c7.2028198-0.2512207,13.4495239-4.8180542,19.7260132-8.1105347
		c18.1233521-9.1635742,38.515686-18.7224731,57.9719238-26.7746582c0.8305054-0.569519,0.6762085-1.4484863,0.3380737-2.3076782
		C965.6715698,629.7603149,964.9368286,629.4122925,963.0930176,629.2581177z"/>
	<path d="M809.2227173,655.9169922c16.7133789-1.3040771,31.651062-10.8630371,46.5777588-17.7376709
		c15.5072021-7.425354,31.1686401-14.0003052,46.4631348-20.0058594c0.675354-1.4682007,1.4673462-2.0476074,2.1337891-3.5050659
		c-0.7822266-0.8018799-1.5355225-1.1201782-2.2692261-1.4286499
		C870.6027222,624.9896851,839.6565552,638.9328003,809.2227173,655.9169922z"/>
	<path d="M890.9852905,615.4406738c0.6663818-1.4673462,1.4000244-2.4906006,2.404541-3.5534668
		c-1.187439-0.241333-1.7866211-1.052063-2.7416992-1.3803711c-15.4101562,5.1750488-29.7388306,11.5186768-44.3670654,17.4470215
		c-14.6192627,5.8998413-30.9074707,9.8586426-44.0971069,20.5279541c8.100647,1.4484863,15.7573242-4.3157349,22.9611206-7.2612305
		C846.2425537,633.3513794,869.3955688,624.2759399,890.9852905,615.4406738z"/>
	<path d="M900.3416748,674.4072266c1.1013184,1.1775513-0.1731567,3.1568604,1.4296265,4.7408447
		c6.6619873,2.1049805,15.7088013-2.027771,18.1716919-9.2119141c9.3938599-6.0154419,19.4936523-8.0334473,28.1747437-17.0901489
		c-0.512146-0.3856201-0.7918701-0.7821045-1.7282715-1.1102905
		C930.2929688,655.6748047,915.1338501,665.2536011,900.3416748,674.4072266z"/>
	<path d="M872.9786377,611.5302124c-13.6246338,0.81073-27.5864258-0.5981445-39.3947754,10.3212891
		C844.2918091,622.4219971,864.2016602,620.1528931,872.9786377,611.5302124z"/>
	<path d="M914.6712036,687.9437866c8.0907593,4.1130981,13.9519043-3.1282959,19.4848633-10.7948608
		C927.7252808,679.079895,918.1751709,681.5042114,914.6712036,687.9437866z"/>
	<path d="M833.0430908,608.4018555c-14.2613525,6.77771-34.7596436,2.7803345-45.5543823,15.7870483
		c16.857666-0.4252319,32.789978-6.5661011,48.2871704-13.9530029
		C834.5587769,609.512207,834.0565796,609.1256714,833.0430908,608.4018555z"/>
	<path d="M903.296936,710.0259399c-25.9352417,9.9841309-51.6965332,26.7261963-77.9105225,34.9049072
		c-5.5814209,1.8153687-12.9671631,0.7337646-16.550293,6.6907349c7.7446899,3.3220825,16.8587646-0.4053345,24.6509399-3.8807373
		c23.0283203-9.9643555,48.1715698-23.4436646,71.4609985-33.0025635c1.5444336-1.5938721,0.946167-2.4333496,1.187439-3.8046265
		C905.2664795,711.0592041,904.3201904,710.7793579,903.296936,710.0259399z"/>
	<path d="M884.5358887,711.2044678c0.3865356-0.512085,0.6663208-1.458252,1.4672241-2.0476074
		c-0.7139282-1.6699829-1.515686-2.4520264-3.5525513-2.567688c-19.6013184,7.1257324-41.210022,15.9985352-61.5836182,25.5476685
		c-6.265625,3.2449951-13.0244751,6.1221313-17.9591675,10.5249023c7.6091919,3.7364502,14.8308716-3.2736206,21.1557007-6.0737305
		C842.7276001,727.7537842,863.9020996,717.6539917,884.5358887,711.2044678z"/>
	<path d="M670.2219238,688.397644c23.3665161-7.7921753,47.0414429-16.5206909,71.6252441-23.5692749
		c11.6539917-3.1954956,24.2157593-6.5463257,32.8572998-14.6855469
		c-40.5723877,8.6997681-81.3088379,26.4266968-122.2874756,38.3517456
		c-5.5516968,1.7667847-13.8461914,2.1918945-17.041748,7.6665039
		C647.0007324,699.7333984,659.1273804,692.3851929,670.2219238,688.397644z"/>
	<path d="M855.3664551,713.569519c-0.5021973-1.7085571-1.3130493-1.1488037-2.5587769-1.8537598
		c-10.3123779-1.052063-19.6489258,5.3786011-29.574707,9.6745605c-8.74823,4.5669556-20.9431763,7.3580933-26.3495483,15.90271
		c19.6489258-4.0459595,36.9703979-18.4803467,56.8417969-21.203186
		C854.0436401,715.1337891,854.8256836,714.5543213,855.3664551,713.569519z"/>
	<path d="M840.1400757,704.2716064c-7.9463501-4.6055298-17.7277222,1.9210815-27.0257568,6.0826416
		c-11.2487793,4.4897461-21.5897217,8.8451538-31.5540771,14.4926147c-2.1050415,0.8019409-7.289978-0.6752319-4.6253662,4.7894897
		c11.4317017,0.8789673,21.8212891-7.531189,32.7704468-12.4164429
		C819.9888916,712.4404297,831.8842773,710.538147,840.1400757,704.2716064z"/>
	<path d="M785.5378418,707.0716553c11.3357544-0.9274292,22.5646973-4.0458984,33.302124-8.8826904
		C809.1455688,692.4819946,791.8231201,697.0489502,785.5378418,707.0716553z"/>
	<path d="M738.2648926,687.9338379c14.4542236-0.0087891,26.8518677-10.0988159,41.0834961-12.8128662
		c1.3040771-1.5640869,0.8789673-2.8771362,1.3911133-3.8520508c-1.024231-0.7336426-1.5166626-1.081604-2.2502441-0.0770874
		c-7.3284912-0.6376953-14.4641724,4.1130981-21.4928589,6.5750732
		C750.5755615,680.1229858,740.6112061,679.9005127,738.2648926,687.9338379z"/>
	<path d="M768.0038452,664.741333c-10.0612793,2.0477295-24.3612671,1.6127319-30.3568115,12.0407104
		C747.9880371,676.4824829,761.543457,672.5236816,768.0038452,664.741333z"/>
	<path d="M692.159668,667.3200073c-12.7070312,3.8233643-24.4382324,7.9364624-37.9076538,11.4029541
		c-5.5714722,1.8054199-15.5358276,2.9255981-15.284729,10.0997925
		c25.0464478-2.6171265,48.4317017-13.1025391,72.1077271-23.1539917
		C706.2559814,661.0248413,698.1751709,665.4462891,692.159668,667.3200073z"/>
	<path d="M779.3582764,720.6952515c-7.7051392-0.1541748-15.2263184,5.0979004-22.4974365,8.9608765
		c-15.2263794,6.4780273-31.5155029,11.7796021-48.1903687,17.6011963
		c-7.3581543,2.0476685-18.1915283,3.3221436-21.3485718,11.9348755c3.6691284,0.3085327,8.2944946-1.7766724,11.6738281-3.2053223
		c25.519043-9.9456177,54.0130005-20.7692871,80.0145264-33.0026855
		C779.3197632,722.0280762,778.8175659,721.6800537,779.3582764,720.6952515z"/>
	<path d="M689.7650146,662.2695923c-0.8116455-0.7910156-1.7579346-1.0806274-2.5489502-1.8439941
		c-15.2945557,7.3670044-36.5946045,3.968689-48.1132812,19.359314
		c16.9349976-2.6745605,32.7988892-9.2694092,48.9626465-14.1062012
		C689.6879272,664.548584,689.0314331,663.2741089,689.7650146,662.2695923z"/>
	<path d="M753.0275879,743.8007812c-0.8206177-0.7524414-1.6126099-1.5641479-2.5588989-1.8439941
		c-17.8909302,9.5876465-37.1541748,18.9736938-56.4650269,25.1818848
		c-5.1462402,1.7470703-16.3178711,0.8007812-15.2944946,10.128418
		c24.5351562-8.8539429,48.3643799-20.7591553,72.8699341-29.6132812
		C754.437561,747.1901855,752.4294434,745.703125,753.0275879,743.8007812z"/>
	<path d="M694.3705444,780.6367188c-9.7815552,3.8045654-20.440918,7.7436523-27.170166,15.1304321
		c4.6627808,3.7561035,7.8880615,1.4771118,10.7266846-3.5050659c15.8056641-7.0099487,31.3029785-14.4353638,47.5338745-20.1610718
		c1.5641479-1.6312866,0.888916-2.8573608,1.4198608-3.8520508c-1.1687622-0.2709351-1.8825073-0.5793457-2.8584595-0.8977051
		C714.9171753,773.7433472,704.3249512,776.7935181,694.3705444,780.6367188z"/>
	<path d="M709.065918,790.93927c1.5454102-1.6027832,0.9847412-2.4333496,1.3713989-4.267395
		c-14.8308716,9.0952759-31.1774902,11.2388306-45.9598999,21.7153931
		C677.8015137,808.5315552,694.7373047,797.2828979,709.065918,790.93927z"/>
	<path d="M540.3262329,715.3078003c-9.5777588,2.4232788-18.0165405,7.3867188-28.2418823,9.9158325
		c-9.6844788,2.8682861-24.3413391,0.2224731-29.4017029,13.6819458
		c19.9198608-8.130249,41.0943909-8.3517456,60.1639099-21.7341309
		C542.1030273,716.8234253,541.0895996,716.0700073,540.3262329,715.3078003z"/>
	<path d="M534.8131104,731.9825439c-0.7147827-0.3470459-1.6698608-0.6466064-2.2493286-1.4484863
		c-15.2174072,5.1176147-31.0331116,6.2566528-45.3814697,13.9716797
		c-5.725708-0.4636841-17.2829285,0.4735718-15.8926697,9.2791748
		C492.0389099,745.1048584,514.3723145,743.8007812,534.8131104,731.9825439z"/>
	<path d="M596.6954346,809.197937c1.3416748-1.5354614,0.9946289-2.3660278,1.4287109-3.7946777
		c-12.7159424-2.076355-28.8411255-2.6359863-36.7775879,9.8773193
		C572.817749,810.7720337,584.3947144,808.444519,596.6954346,809.197937z"/>
	<path d="M564.2336426,830.5949707c11.074707-2.6359863,21.2229614-5.6011353,32.9443359-4.3069458
		c1.515625-0.2312622,0.9362183-1.0331421,1.59375-2.5202026c-0.1452637-0.8879395-1.2072144-2.0752563-2.6655884-2.7229614
		c-18.2676392,1.5552979-36.7191772,1.7669067-53.4820557,12.5527954
		C550.1651611,836.0111694,557.2720337,832.149292,564.2336426,830.5949707z"/>
	<path d="M607.0948486,829.2137451c-12.7457275,2.0178833-25.3172607,5.4072876-37.9274902,8.3032837
		c-11.828186,2.2987671-25.9638672,2.7427368-36.1309814,12.4658813
		c24.979187-3.0413818,48.6442871-11.7698364,73.430542-16.1538086c1.2645874-2.0180054,2.4234619-0.376709,2.2307129-3.079834
		C608.3307495,829.9285278,607.605957,829.6092529,607.0948486,829.2137451z"/>
	<path d="M599.6497192,843.4751587c-29.62323,6.5264282-59.5646973,12.6100464-87.9233093,25.7216187
		c30.1936951-3.0028076,58.2043152-16.9447632,88.1260681-21.6569824c1.7095337-0.7337646,1.1013184-1.5543823,1.5551758-2.9741211
		C601.0497437,843.736145,600.4703369,842.9056396,599.6497192,843.4751587z"/>
	<path d="M537.4303589,866.4649048c-13.5376587,7.1060181-28.2044678,8.5257568-41.509613,16.9448242
		c-2.645874,0.40625-1.3130188-1.1390381-4.4513245-2.432373c-17.5725708,5.9284668-39.6260986,8.9697266-53.1626587,23.3081665
		c14.1159973-3.5919189,27.7307434-11.6065674,42.4063416-14.3869019c3.1579895,1.2843628-1.6026917,4.3158569,2.2206421,5.5032349
		c19.282196-13.4396362,40.8621521-15.5160522,60.8402405-25.8955688
		C543.2331543,866.0012207,539.9880981,868.2900391,537.4303589,866.4649048z"/>
	<path d="M499.0104675,900.0657349c15.3518982-6.9616089,31.0133362-12.1366577,46.4333801-18.6543579
		c-0.8017578-0.7721558-0.9946289-0.7236938-1.4968262-1.1003418
		C528.2282715,882.3289185,509.7469482,886.6348877,499.0104675,900.0657349z"/>
	<path d="M348.7035828,803.008606c13.4496765-3.4664917,28.9853821-5.0405273,34.7497559-12.7258301
		c-0.2699585-0.3955078-0.6565247,0.1156006-1.3032532,0.2125244c-20.0067444,1.8251343-39.8485413,9.0181885-60.3952026,13.1697998
		c-5.7157593,0.9362793-16.4632874-1.4188843-17.8533936,6.9428101
		C318.6750793,814.1030273,331.8349915,807.5083008,348.7035828,803.008606z"/>
	<path d="M437.572052,859.7445679c3.2253113-0.9462891,7.2325439-4.2969971,10.4092712-8.4100952
		c-2.5102844-0.0584106-5.2718201-0.5210571-7.1454163,3.3794556c-2.7714233-0.4725952-5.6485901,0.0098267-8.3616638-0.0484619
		c-10.7078552,3.5247803-22.8256531,6.7786865-34.6538086,10.4765015
		c-10.3499451,3.0028076-25.6346741,3.1866455-29.9801636,14.2317505c2.9068909,0,5.8710632-1.3901367,8.4388733-3.6207275
		C394.5763855,870.1914062,418.2613525,865.9724731,437.572052,859.7445679z"/>
	<path d="M331.5264893,791.315918c-6.2576294,1.8924561-14.7448425,2.3264771-18.4614563,7.425293
		c11.9535828-1.4385986,26.9288635-5.1759033,35.8699341-10.1868286
		C345.8649597,784.972229,337.7831421,789.4135742,331.5264893,791.315918z"/>
	<path d="M338.2171936,807.8463745c-11.3059998,2.703186-19.658844,1.3031006-23.3951721,11.828186
		c16.2120667-4.3840332,32.7227173-7.0101318,48.0173645-14.3869629
		C357.4607239,801.1833496,347.5250244,805.4616089,338.2171936,807.8463745z"/>
	<path d="M447.8746338,867.6039429c-1.322937-1.1489868-2.3076477-0.105896-3.0986633-0.8977661
		c-10.3796692,4.3642578-21.4553528,7.0387573-32.3946228,10.5724487
		c-10.071167,3.4180298-22.8058472,5.427063-29.0724182,15.9025879c4.508606,4.2683716,7.6181641,1.0430298,10.5823059-3.0512085
		c17.1188354-7.2216797,34.6053772-12.2334595,51.5798035-19.0309448
		C447.3921204,870.3654175,447.6916809,869.4290771,447.8746338,867.6039429z"/>
	<path d="M325.7038879,824.2512817c12.9958191-4.77948,30.5693665-3.4762573,39.7318115-12.6102295
		c-17.098877,3.1759033-34.9522705,1.4772949-49.8603516,15.5932617
		C318.8292847,830.7778931,322.7584534,825.6315308,325.7038879,824.2512817z"/>
	<path d="M431.5863342,884.5882568c-9.8002319,0.6664429-20.1225281-0.3865967-28.4840698,8.1391602
		C412.4298096,891.6941528,426.1117554,892.6889038,431.5863342,884.5882568z"/>
	<path d="M466.6257324,910.6193848c-23.3951721,13.1994629-47.1769104,25.548645-72.1936035,34.0160522
		c-7.5706787,2.0950928-18.2489014,2.9068604-22.333374,11.2002563c6.7975159,0.3095093,15.0819702-2.8475342,23.3754578-5.9471436
		c19.2632446-6.6621094,49.6686401-19.6203613,66.7774048-31.3514404c1.2557678-0.6467285,6.7015991-6.0253906,5.6871643-8.1204834
		C467.1181641,909.6345825,467.002533,910.0983276,466.6257324,910.6193848z"/>
	<path d="M563.364563,754.0548706c10.0800171,1.0915527,18.9054565-2.9830322,28.1746826-5.831543
		c1.130127,2.9840088-3.7265015,0.6080933-3.5534668,4.6154175c3.4091187,3.079834,6.3148804-0.0869751,9.2891235-1.0134277
		c10.3795166-2.9938965,23.7620239-3.7473755,29.710022-11.9348755c-4.7122192-1.0422363-8.6513062,2.2592163-13.5760498,2.6171265
		c-1.5444336-1.1203003,1.3130493-2.9069214,0.4052734-4.5769043c-16.857666,1.7857666-33.1083984,8.8640137-49.7545166,11.9537354
		C563.6057739,751.3328857,563.798645,752.6459351,563.364563,754.0548706z"/>
	<path d="M508.8591614,754.5670166c13.9715881,0.0583496,25.9352112-9.93573,39.6548157-10.3411255
		c-3.7651978,1.9695435-11.2389526,1.7866821-11.750061,8.6414795c1.322937,3.8530884,5.8126831-0.4725342,8.3032837-1.756958
		c11.8182373-3.6691284,24.0230713-6.5275879,35.6099243-11.5482788c-6.9230957-7.9078369-16.7816162,2.211792-24.7181396,2.1534424
		c-1.7282104-2.4619751,4.5955811-2.5489502,1.0332031-5.1364746c-8.2844849-0.946167-16.6757202,3.0986328-25.2489624,5.8126831
		C524.3850708,744.4483643,512.8080444,745.3847046,508.8591614,754.5670166z"/>
	<path d="M1251.6383057,491.4061279c-4.4313965-6.4692078-2.6646729-18.0560303-10.2055664-22.7287292
		c-9.3760986-5.2818604-26.7558594-2.5203552-41.779541-1.940918
		c-58.4158936,2.9740906-227.6677246,66.3622131-194.4039917,54.2928772
		c50.7592163-18.3943176-101.7407227,38.3031006-151.9975586,61.1386719
		c-24.7952271,11.6057129-177.9407349,65.7245483-190.4936523,70.3982544
		c-13.1411133,3.890625-52.8442383,19.687439-60.0372925,22.6130981
		c-21.387085,7.4440918-124.1214294,42.2817383-152.0263062,53.8973389
		c-14.6380005,5.9382324-116.5517578,36.1011963-154.1212769,46.55896
		c-18.5870056,5.2333984-42.4074249,8.5446167-57.4024048,22.197876
		c-9.3652039,9.182312-16.0084381,16.9833984-21.5215607,26.4562988
		c-12.3877563,21.3673706-16.3079987,44.9850464-11.9922638,63.6777344
		C228.878067,993.0196533,328.9380188,999.7103271,332.6269836,1000
		c8.9409485-0.5111694,60.8103943-20.4695435,72.4061584-26.8032837
		c23.3280029-13.6434326,219.7015381-105.2645874,280.4733887-137.465271
		c34.5668335-18.1233521,129.5487061-62.085022,141.4628296-68.0134888
		c11.6936035-5.9481201,24.1001587-10.1482544,35.6484985-15.5940552
		c12.4845581-5.1364746,180.8287964-78.7598877,233.093689-106.0268555
		c12.9384766-6.5661011,25.0266113-15.6999512,39.0080566-21.5314941
		c12.8416748-5.6396484,26.5720215-10.071167,39.5976562-16.1923218
		c20.4892578-10.0424194,37.8492432-14.5708618,58.3673096-27.3352661
		c7.0098877-4.2772217,14.4055176-8.612793,17.6793213-12.2719727
		c15.284668-15.9611206,19.8327637-51.4058228,11.7895508-66.3820496
		C1260.0483398,497.7597046,1254.8051758,495.8861084,1251.6383057,491.4061279z M296.7658386,785.5703735
		c3.0028381-0.9550781,6.6719971,2.0664673,9.723175,1.5839844c23.2894287-6.8746338,51.1556396-9.0082397,71.3058167-19.880249
		c-9.3751221-0.7633057-17.9779968,3.3013306-27.4885864,2.9928589
		c38.592926-21.010437,80.9606934-21.4157715,119.4963379-41.4996948c4.9821777,0.1156006,0.1838074,5.3786011,5.3004761,5.0206909
		c19.978241-9.0368652,41.3356018-13.7679443,61.7568054-21.5413818
		c20.7503662-8.7086182,40.3121948-19.0496826,61.3798828-26.9002075
		c10.0040283-3.8134155,21.010437-5.5714111,30.8206177-10.2826538
		c10.3607788-4.3840332,20.3152466-9.9940796,31.2070312-14.0003662c20.1798706-7.7051392,41.9724121-11.152771,62.760376-18.065918
		c17.5537109-5.9284668,33.9686279-14.8497314,51.0784302-22.1010132
		c16.8192139-7.6181641,34.5272827-12.6873169,51.5698853-18.9924316
		c34.1702881-13.5563965,67.1442261-30.512085,101.5855103-43.6432495
		c68.9110718-26.2822266,137.0985107-52.8731079,207.0042725-74.3569946
		c6.3535156,1.6996155,12.5043945,0.7048645,18.5583496,0.6466064c2.1722412-2.1435547,0.7138672-5.5032043,3.7849121-6.0440979
		c20.5852051-0.9560547,58.628418-10.1867981,79.9471436-3.6405029c3.4378662,1.7095032,5.3786621,9.530304,5.8513184,12.6012878
		c-25.1047363-4.5580139-43.9232178,4.7310791-69.1623535,13.2369995
		c-15.8739014,5.2145691-32.4034424,10.5635986-46.3463135,16.3951416
		c-92.6346436,39.0466309-182.0162964,82.5643311-270.8660889,128.2543335
		c-31.6895142,16.3179321-60.9844971,32.22052-89.1590576,47.9778442
		c-14.3286743,7.7051392-30.2699585,12.4559326-45.4102783,19.3789673
		c-46.4521484,20.0444946-91.1089478,34.3354492-137.9477539,48.9923096
		c-15.5071411,4.7112427-31.5443115,8.6028442-46.9743042,12.4163818
		c-15.7869263,4.2969971-32.355957,6.4692383-47.1770325,11.1043701c-3.4465637,0.9749146-8.0234375,4.8754272-12.5616455,6.0440674
		c-24.1575317,6.9902344-50.9322205,10.3411255-80.0055847,19.0023193
		c-6.3436584,1.4870605-12.2820435,5.0978394-19.3879395,7.1444702c-6.7105103,1.9508057-13.420929,2.1149292-20.8561096,3.7660522
		c-12.4648743,3.7750244-31.8152161,12.7160645-40.3597107,9.993103
		c-10.9491577-3.6781006-20.276825-32.4133301-39.1248474-36.159729
		C282.9395142,787.7623901,290.4420166,789.7033081,296.7658386,785.5703735z M312.0990601,984.3297729
		c-9.2495728-1.2557373-20.8561401-3.4763794-29.893158-9.2505493
		c-13.4308167-9.1437378-28.9863739-23.3852539-39.7329102-35.6573486
		c-14.0190582-15.8156128-27.121582-41.7023315-29.7960968-58.4356079
		c-2.4431152-16.7717285,4.0833588-43.9417725,18.5860291-60.6750488
		c4.1813812-4.7310791,11.5097504-14.0102539,15.9895935-16.9744263
		c13.4121246-7.9848633,44.0486603,7.4441528,52.7098846,25.0077515c-4.2970276,4.2684326-9.2792053,5.5429077-14.8505859,4.6055298
		c-4.3444824-23.201355-35.4547272-16.0370483-46.2881317,1.0333252c-2.375946,3.5336304-3.7462311,11.8665771-5.2817383,17.9976807
		c-2.5588837,13.4891968-2.9929199,20.7889404-2.3562317,31.9407349
		c0.9077454,14.3098145,4.4127808,25.0077515,10.9205322,38.9121704
		c15.0632477,30.9550781,63.8132477,56.5907593,89.4389801,37.6368408
		c17.5152893-13.1312866,16.9458008-42.3687744,13.2380981-54.418396
		c-4.1329041-14.7053223-14.7923279-19.2919922-31.2743225-26.600647
		c-10.1581726,1.6115723-19.2919922,8.0136108-26.7845764,21.8498535
		c-1.158844,5.5714111,1.3901062,10.1383667,1.5839539,15.5170288c-3.9688416,0.6268921-7.8989868,4.4215698-12.1277161,3.272644
		c-16.2022705-16.8389282,3.9202271-40.7561646,16.9071045-45.5543823
		c12.0595703-5.0593872,33.6977539-2.1435547,47.3699036,11.4226074c4.8852539,5.1166382,10.5625,16.8291626,13.6434021,27.6339722
		c5.4359131,17.177063,4.460144,45.293396-5.2531128,60.8203125
		C340.3419189,987.496582,323.1450195,985.739624,312.0990601,984.3297729z M1258.1362305,529.6322021
		c-4.9337158,31.4771118-25.5289307,42.397522-50.1501465,52.1878052
		c-13.9715576,5.8127441-27.0839844,12.8514404-38.2941895,17.3510742
		c-12.7160645,5.1948853-25.4903564,9.9259644-37.9650879,15.0533447
		c-13.3349609,5.725708-24.7478027,14.7537842-37.2512207,21.2319336
		c-15.0819092,8.7097168-33.6689453,13.9429932-50.5751953,21.1072388
		c-33.8430176,15.3133545-66.4590454,30.4241333-99.7513428,46.5205078
		c-16.7717896,8.0907593-35.0305176,13.6720581-51.1547241,21.6669922
		c-19.4660034,10.7562866-38.1489258,20.9421387-56.3305664,28.763855
		c-27.9334717,11.6629639-53.9259644,27.0831909-80.8746338,39.0170898
		c-35.8027344,16.0667725-72.0296631,32.1918335-107.9193115,49.1762085
		c-53.7519531,25.2006226-108.3543091,49.2236328-161.305481,76.5776367
		c-17.7267456,9.1339111-36.5461426,17.0614014-53.3652954,27.4212646
		c-14.0874634,8.1016235-26.3692322,17.2542725-41.451355,23.2509155
		c-13.8847046,6.2665405-27.9146423,11.6541138-42.1749268,18.4515381
		c27.3826294-39.0951538,18.9824219-77.9204102-7.8119507-108.8467407
		c12.0405884-5.0691528,29.8841858-7.9176636,46.1822815-13.1984253
		c34.6439209-10.4379272,69.9828796-22.3916626,104.0088196-38.1785889
		c68.0045166-31.9981689,137.7264404-61.9979858,206.0591431-94.4983521
		c16.7805786-8.0718994,34.6053467-13.6048584,51.8881836-21.3187866
		c52.4104004-23.656311,100.5621338-54.3126831,152.6729126-79.7456055
		c85.3061523-42.397522,169.8984375-86.4837036,257.0297852-118.8199463
		c18.2202148-6.0550232,36.4018555-13.4506836,53.3752441-17.4964905c9.7528076-2.4619446,26.543335-4.672699,35.8808594,1.5067444
		C1257.1712646,502.2683105,1259.4976807,519.9378052,1258.1362305,529.6322021z"/>
	<path d="M386.581604,936.4191284c7.2413635,2.8959961,16.1923523-1.6896973,23.1736755-4.6154175
		c7.2800293-2.4915771,16.0372009-5.6682739,20.0928955-11.2872925
		c-7.1543579-2.4530029-23.7234802,10.9877319-21.2416992,1.1203003
		C399.1918335,919.0778809,387.1610107,925.9425659,386.581604,936.4191284z"/>
</g>
</svg>
