<?xml version="1.0" encoding="utf-8"?>
<!-- Generator: Adobe Illustrator 27.2.0, SVG Export Plug-In . SVG Version: 6.00 Build 0)  -->
<svg version="1.1" id="cloves_tree" xmlns="http://www.w3.org/2000/svg" xmlns:xlink="http://www.w3.org/1999/xlink" x="0px"
	 y="0px" viewBox="0 0 1000 488.5597229" style="enable-background:new 0 0 1000 488.5597229;" xml:space="preserve">
<g id="outline">
	<path d="M575.2355347,209.787262C575.8766479,208.3499908,574.2211914,211.9682465,575.2355347,209.787262L575.2355347,209.787262z
		"/>
	<path d="M571.3098145,139.1705627c-47.8300781-6.1853333-93.6212769-25.5848465-141.3883362-22.5552368
		C396.2803345,48.1269035,291.2026978,5.9171309,220.5464935,0.0418142
		c-27.6082306-2.259727,21.6724548,87.7566147,27.2402954,103.5643005
		c-43.7888947,14.1127167-96.611496,21.9377518-143.8635864,53.1930618
		C69.9745865,179.2520447,3.1416237,244.581955,0.2302554,281.0714722
		c-4.7349772,58.7084656,64.5995255,113.7251282,111.9408875,130.4286804
		c69.8101196,24.5313721,157.6192017,30.075592,238.7936096,8.7000732
		c20.1194763,13.3954163,26.9065247,55.8364563,47.4597168,68.3594971
		c57.2080688-32.3325195,99.3048096-71.6440125,75.1966248-141.440918
		c66.690979-40.1838379,138.3980713-66.0999146,203.1395874-50.1635742
		c26.762146,6.5927429,244.3482666,34.153595,299.4516602-22.0429077C992.5848999,258.156189,1000,224.8223877,1000,196.854248
		c-82.3699951-44.5194092-185.6241455-40.2600555-282.7349243-45.1368866
		C667.881958,149.2290344,619.0637817,145.3796387,571.3098145,139.1705627z M982.5631714,217.1262665
		c0.8986206,2.4357452,3.0533447,2.1545563,4.2357178,4.0018005c-3.9255981,1.1797028-8.3400269,3.4394226-9.1229858-2.1809998
		C979.3049316,218.3059692,980.9472046,217.7147827,982.5631714,217.1262665z M665.7904663,162.4169312
		c-6.314209,2.0548859-10.1872559-1.3084869-14.8826904-2.8219604
		C658.1178589,155.6429596,661.9908447,158.9800262,665.7904663,162.4169312z M672.7299194,173.7076874
		c-2.4358521,0.9249573-4.861084,1.8236084-7.286377,2.6959839c2.4621582,3.4631805,8.4293823-0.7462616,8.4425049,7.9799652
		c-7.7488403-0.7199554-18.9765015,6.1065979-21.5410156-5.8778381c2.4488525-0.922287,4.8741455-1.8209534,7.2993774-2.6933136
		c-2.5407715-4.7480621-8.3662109-2.3595581-10.9307251-7.0814514
		C653.1780396,163.3418732,668.5099487,164.7791443,672.7299194,173.7076874z M650.0853271,209.8372955
		c-10.5577393,3.3868561-11.1095581-9.2360077-7.8513794-13.7529297c-4.1831055,1.7710266-7.788208,2.2833405-10.6759033,1.1798401
		c-5.3103027-12.8805695,14.2546997-9.8272095,19.5415039-7.2100983
		C642.7095947,196.3918304,648.994751,204.7581482,650.0853271,209.8372955z M642.5939941,182.1239166
		c-0.0657349,0.0788727-0.0394897,0.0788727-0.092041,0.1024933
		C642.5545044,182.2027893,642.5282593,182.2027893,642.5939941,182.1239166z M641.4378052,171.4506378
		c-1.6290283,0.5911865-3.2713013,1.206131-4.8872681,1.7973175c-1.2954102-3.0558929-4.3618164-2.2071533-5.1317139-6.4165955
		c1.6159668-0.6149445,3.2319336-1.1798401,4.8479004-1.7946472
		C637.5647583,168.1135559,640.6548462,167.2411804,641.4378052,171.4506378z M629.340332,153.7459412
		C630.2363281,143.5823212,639.8980713,158.8775482,629.340332,153.7459412
		c0.7698975,4.2067871,3.8599243,3.3344116,5.1317139,6.4139252c-5.0422974,0.7173004-10.8151245,2.9770355-12.4469604-3.694458
		C624.4504395,155.5406036,626.9151001,154.6419373,629.340332,153.7459412z M628.8516235,189.9253387
		c-3.0664062,1.3347778-2.1940308,4.4142914-6.4139404,5.1841736c-0.6674805-3.0532379-2.9508667-6.8264313-0.2575073-8.2112579
		C623.4124146,190.0802765,627.2855835,187.5131989,628.8516235,189.9253387z M624.3479004,177.762207
		c-3.694458,6.7738342-17.0111084,7.8012695-19.756897-0.9748688
		C613.0571899,172.990387,619.8074951,172.990387,624.3479004,177.762207z M611.8143311,196.2394409
		C620.7060547,202.2671509,601.4457397,193.3647614,611.8143311,196.2394409L611.8143311,196.2394409z M604.128479,212.9693909
		c1.3978882,2.7194672,6.3904419,3.8993073,2.6696777,7.2863007
		C605.4108276,217.5097961,600.4341431,216.3562469,604.128479,212.9693909z M600.894043,189.207901
		c-5.3104248,2.7695007-9.4042969,2.8220825-11.5457764-1.2585754
		C591.5422974,182.741394,599.2017212,181.2016296,600.894043,189.207901z M596.5452881,207.4776154
		C605.4633789,213.4291382,586.1794434,204.5531769,596.5452881,207.4776154L596.5452881,207.4776154z M599.5092163,222.975296
		c-6.1196899,3.0296021-10.8151245,2.9770203-12.4573975-3.6944733
		C592.9927979,216.611145,596.0592651,220.20578,599.5092163,222.975296z M584.93396,153.5409698
		C585.6669922,164.2142487,578.5330811,144.9696655,584.93396,153.5409698L584.93396,153.5409698z M567.612793,151.6411591
		c-2.128418,0.1024933-4.8478394,1.7184448-5.7990723-0.641098
		C563.918457,150.8712769,566.6379395,149.2789459,567.612793,151.6411591z M563.2509766,169.8582916
		c8.0956421,1.463562-0.5386353,9.496109-3.9755249,4.2620239
		C561.7244263,173.2216644,561.4169312,171.0644226,563.2509766,169.8582916z M541.0293579,169.7557983
		c-0.0498047,0.1287842-0.0263062,0.1024933-0.0629883,0.1550751
		C541.0030518,169.8582916,540.9795532,169.8845825,541.0293579,169.7557983z M519.0916138,177.864563
		c-4.1332397,1.6948242-6.9290771,0.4625397-9.1231384-2.1545715
		C514.1254883,174.0151672,516.897522,175.2737427,519.0916138,177.864563z M507.658844,154.4133301
		C516.5507202,160.4172974,497.2667542,151.5123749,507.658844,154.4133301L507.658844,154.4133301z M486.233551,178.9419098
		c-14.3441162,0.3101349-32.2169495-14.8827362-34.5267334-26.0184174
		C463.4864197,160.9823303,477.4311218,164.3693237,486.233551,178.9419098z M430.3575745,155.2857056
		c1.8735352,3.2319183,5.541687,2.5908203,7.583374,5.4889832c-2.425354,0.8986511-4.8768311,1.7973175-7.2994995,2.6696777
		C429.9477539,160.4673462,427.6642761,156.7203064,430.3575745,155.2857056z M232.3128662,9.7140808
		c0.0132141-0.1024904,0-0.0499105,0.0631256-0.1786909C232.3128662,9.6641703,232.3260803,9.6115904,232.3128662,9.7140808z
		 M239.0500183,12.6149063c48.6631775-0.2049809,84.2671509,27.8656502,123.2948914,48.6000748
		c10.5865479-4.3881378,4.2356262,9.3647995,0,0c-5.0292358,0.7173004-8.0563049-2.9770241-13.9840698-0.3336258
		c10.1109314,8.8260498,24.8385925,7.5700073,34.269043,17.8071747c4.1069641,0.1813583,0.8460693,3.0296097,0,0
		c-4.2330627,1.8998108-6.2089539-1.1036377-10.6233826,1.1560898c11.1122131,6.5689926,24.8650208,7.491272,34.2954712,17.8073044
		c-13.0748901,4.979332-18.7846985-6.1065826-31.3446045-2.2833481c8.3899536,5.2866669,19.2208252,5.1053085,26.7516174,12.2919159
		c-6.9290466,3.2844925-9.5724487-2.7222672-16.4487915,0.5622253c10.2134094,8.5450058,26.9040222,3.1058121,35.8220215,14.4228592
		c-21.5542297,0.565033-66.0761719-7.7513733-78.9830322-26.1997833c-2.4252014,0.8986664-4.8478699,1.8209457-7.2994995,2.6933136
		C306.6240234,62.1898422,274.0863953,34.6552849,239.0500183,12.6149063z M380.8720703,201.2686768
		c2.0284424-4.3119354,7.8275757-6.4428864,12.1894226-4.4670105c2.2702637,4.3645172-0.782959,6.364151,1.1535339,10.5997467
		C387.0180054,211.3770599,382.5536804,209.3248444,380.8720703,201.2686768z M381.6813049,225.9523163
		c4.4512634-3.2319183,2.0522156-9.1598206,8.8262024-6.0566711
		C396.9241028,225.2350159,382.4880371,230.5190125,381.6813049,225.9523163z M328.0757446,170.9383087
		c3.6313477-7.4177399,13.8579712-4.3119354,15.7944641,5.2077942c-2.7458801,1.4636993-7.0814514,2.1547089-6.4139099,5.15802
		c8.9153137-2.3622131,8.6842041,4.0543823,9.4041443,10.418396c-5.5311279,3.1295624-6.9553223-2.5146179-13.1249084,2.0522156
		C327.8970642,180.9705048,336.7887573,181.0466919,328.0757446,170.9383087z M329.9754333,153.5908813
		c4.3618469,2.0783691,6.5559082,7.9037628,1.1798401,10.6233673
		C326.7803345,162.1620331,324.5731812,156.3367615,329.9754333,153.5908813z M376.3683472,189.0792542
		c-11.9581299,9.9296875-26.6464233-6.082962-9.3778687-10.3922424c-2.6040344-1.6159515-5.8123169-2.0520782-9.1229858-2.1545563
		c-5.3499146-13.8053894,14.2547302-16.7326355,16.4224854-0.5149994c-2.4489441,0.8985291-4.8742981,1.7971954-7.2994995,2.6695557
		C369.7362366,182.9463806,375.5853882,180.5342407,376.3683472,189.0792542z M379.550354,160.2124481
		c-0.6910095-1.4373932-1.45047-2.7458801-3.3474731-1.5397491c-0.8224487-3.1059418-1.3979187-6.0303955,3.0794983-6.6977844
		C379.9497681,154.9755707,382.2567444,158.7226105,379.550354,160.2124481z M381.3607483,165.0866241
		c3.0401611,2.0783691,5.6309814,5.3365631,6.9263916,11.2644653
		C378.9355469,181.4329071,376.8307495,169.193573,381.3607483,165.0866241z M358.2143555,162.5457153
		c-1.1798706-3.2582092-2.3990784-6.5164185-3.6051941-9.7746277c6.4666443-0.7961731,13.329895-2.5146179,15.8208923,5.2340851
		C366.3493958,159.5450592,362.308075,161.0322418,358.2143555,162.5457153z M352.6069946,192.3111725
		c-1.0378418-4.5405426-6.9526672-11.2644806,1.2954102-11.5193634
		C356.6482849,186.0521851,356.6876526,190.1303101,352.6069946,192.3111725z M349.669342,176.7873383
		c-0.9485779-3.7969513-4.2200012-8.6474915-1.1929321-10.6233673
		C352.864563,168.2160492,355.0585022,174.0151672,349.669342,176.7873383z M346.4111328,153.0259857
		c0.885437,2.4645691,1.7840881,4.9004517,2.7063904,7.3388672
		C343.344696,166.5737915,337.9818115,152.1036987,346.4111328,153.0259857z M349.1831665,212.9693909
		c-5.5179138,3.2319183-6.9682617-2.4647064-13.0880737,2.1019897c-4.3486328-7.4413605-2.5407715-11.9554749-3.8861084-17.9595795
		C343.8702087,188.6929169,351.9526978,203.7832947,349.1831665,212.9693909z M339.4453735,216.611145
		c1.7683716,3.4395599,6.6951294,0.0525818,10.6470032-1.179718c2.5408936,5.9016113,4.7086792,11.5982361,2.9507446,15.5501251
		c-5.7097168,2.1545715-8.7235718-1.5397644-15.5238342,2.9507446
		C334.6578369,226.5671234,335.1203613,220.7180939,339.4453735,216.611145z M356.8531494,196.3156433
		c1.3612061,10.6995697,12.0738525-7.9799805,18.874115-1.463562c1.5134583,4.0543671,3.0163879,8.1350403,4.5036926,12.2157135
		c-10.4185181,5.0791473-18.3852844,4.8242493-26.1734924,4.1042786
		C352.0315552,204.8605042,349.8743286,198.4439087,356.8531494,196.3156433z M380.7827759,223.4902802
		c-6.4035034,8.4162292-24.8519287,11.829361-26.467865-4.0806732
		C365.8106384,214.9189758,377.3825989,210.2997131,380.7827759,223.4902802z M380.3465271,184.8461914
		c1.4241943-0.6673889,2.7458801-1.4372711,1.5134888-3.3633728c1.6159363-0.5885162,3.2581787-1.1535492,4.9004517-1.7710266
		c0.6936646,1.4372711,1.4373779,2.7458801,3.3239746,1.5161285c0.6017456,1.6422577,1.2060242,3.2582092,1.8077393,4.9004669
		c-1.4346008,0.6673889-2.7562866,1.4111023-1.5265503,3.3343964c-1.6422424,0.6174927-3.2844849,1.1825104-4.8742981,1.7973328
		c-0.7199707-1.4372711-1.4372559-2.772049-3.3474731-1.5397644
		C381.5394592,188.0781097,380.9377136,186.4884338,380.3465271,184.8461914z M388.40271,154.155777
		c1.6186218-0.6148071,3.2345886-1.1798401,4.8768311-1.7973175c1.2691345,3.0796509,4.3618469,2.2072754,5.144928,6.4165955
		c-1.6422424,0.5886536-3.2583313,1.206131-4.9005737,1.7946472
		C392.2522278,157.5164795,389.1595154,158.3389282,388.40271,154.155777z M392.2390137,172.1679382
		c2.4647217-0.922287,4.8900452-1.8471069,7.3388977-2.7693787c0.6673889,3.0532227,2.9771423,6.7738342,0.2575378,8.2112427
		C397.9882202,174.3752136,394.3175354,174.992691,392.2390137,172.1679382z M400.668335,127.4436798
		C399.6436768,129.624527,401.3095703,126.0588531,400.668335,127.4436798L400.668335,127.4436798z M399.207428,183.4089203
		c1.4109802,2.7693787,6.3745728,3.8993073,2.7063904,7.3388672
		C400.5028381,188.0019073,395.5367432,186.7957764,399.207428,183.4089203z M404.6071472,198.060379
		c2.7589417,5.260376,2.7984619,9.3646545-1.2691345,11.5220337
		C398.1669312,207.401413,396.6008606,199.7026215,404.6071472,198.060379z M405.7238464,156.0555878
		c1.6159668-0.565033,3.2582092-1.1825104,4.8505554-1.7973175c0.8986511,2.4620361,3.0401611,2.2071381,4.2725525,3.951889
		C410.9212341,159.3899994,406.506958,161.6733398,405.7238464,156.0555878z M414.9993591,188.6692963
		C415.7454834,199.3162842,408.6116028,180.0718384,414.9993591,188.6692963L414.9993591,188.6692963z M317.247406,141.6851807
		c-6.5164185,1.0011444-14.6646729,5.4917755-17.3447876-1.8996887
		C306.4584045,138.7607269,314.617218,134.2438049,317.247406,141.6851807z M304.2644653,121.5157776
		c1.6422729,3.7469101,6.9289246-0.3600464,7.583252,5.5179367
		C307.6382446,131.0092163,298.5678406,124.7476959,304.2644653,121.5157776z M281.4253845,127.1861191
		c6.1459656-4.5405426,7.5832214,1.1036301,13.1011658-2.0259247
		C299.7607727,136.887207,283.3644409,136.4747162,281.4253845,127.1861191z M291.0606995,145.7894592
		c-2.4226685,0.8723755-4.8478699,1.7973175-7.2993774,2.7196045c-0.6017151-1.6159668-1.2061157-3.2319183-1.7946472-4.874176
		c2.4357605-0.8986511,4.8609619-1.8209381,7.2862854-2.7195892
		C289.8809814,142.5575409,290.48526,144.1472168,291.0606995,145.7894592z M270.5076294,120.1809998
		c3.9255981-1.2324142,8.3137512-3.4894791,9.1231079,2.10466
		C275.5000305,124.0041122,272.7016907,122.7480698,270.5076294,120.1809998z M276.8086548,137.2209625
		c-7.1864624,3.9492188-11.6638794,1.8971405-13.3692627-6.1328735
		C270.6626892,127.1099167,275.1270447,129.1621246,276.8086548,137.2209625z M250.0964203,124.9290619
		c4.5405426-1.0537338,11.3145294-7.005249,11.5456696,1.3084869
		C256.3448792,128.9072418,252.2904968,129.0097198,250.0964203,124.9290619z M261.2952271,140.1953278
		c-6.1459503,3.0296021-10.8151245,3.0033112-12.4573822-3.7206116
		C254.7788239,133.8339844,257.8452454,137.3996582,261.2952271,140.1953278z M235.7524414,138.5530701
		c3.7837372,3.4658661,10.4552155,0.7199707,13.3429718,6.1591797
		C246.181366,153.9507904,225.6546021,144.5335541,235.7524414,138.5530701z M227.5279846,138.8106384
		c-1.8733826-3.2845001-5.5179443-2.6434021-7.5962982-5.4916382
		C224.1778259,129.3170624,233.2378235,135.5787201,227.5279846,138.8106384z M229.5801849,151.8987122
		c-7.1970062,4.0018005-11.6375885,1.8971405-13.3429718-6.1591644
		C223.4605255,141.8139496,227.8985748,143.8398743,229.5801849,151.8987122z M214.7999573,126.852356
		C215.5435486,137.5283051,208.4227295,118.2838593,214.7999573,126.852356L214.7999573,126.852356z M215.3517761,143.3274231
		c-5.9778137,2.6670227-9.0442505-0.9248199-12.4838104-3.6943207
		C209.0008392,136.6034851,213.6963043,136.6296539,215.3517761,143.3274231z M214.9654236,157.285202
		c-6.1196594,3.0796509-10.8151398,3.0297394-12.4443054-3.6943207
		C208.614624,150.5638123,213.3231812,150.6138458,214.9654236,157.285202z M201.0575562,134.7562561
		c-4.1305695,1.6685486-6.9263763,0.4098358-9.0940247-2.1809845
		C195.8891296,131.3955688,200.3008881,129.1122131,201.0575562,134.7562561z M193.1169586,143.2249298
		c1.4372711,2.769516,6.4035187,3.8994446,2.7195892,7.3388824
		C194.4123688,147.8180542,189.4489136,146.5856323,193.1169586,143.2249298z M183.0979767,138.6056519
		C183.7627106,137.2209625,182.0968323,140.7865143,183.0979767,138.6056519L183.0979767,138.6056519z M202.1506653,167.6012421
		c-8.1350555,3.0269318-16.2568817,6.0040894-24.391922,9.0074158c-6.7608948-8.75-17.1136322-9.7247162-23.6457977-18.9371185
		c18.2697144-10.4183807,21.5672913,11.7769318,36.4631042,8.6473694
		c-3.4893494-11.3932495-14.753952-6.0039673-17.8334656-18.3484497
		C184.5457916,150.1513062,195.5422974,154.0532837,202.1506653,167.6012421z M165.7768402,136.7058411
		c1.98909,3.0297394,5.1947174,3.3869934,6.0670776,8.8288574c-7.0682373,5.0528564-9.0441132-0.924942-12.4705963-3.6971283
		C162.4266815,140.5553741,161.5936737,137.4758606,165.7768402,136.7058411z M158.0779114,153.3858948
		c-8.6972809,4.3618469-15.0113831,3.3607025-18.2196808-4.3119354
		C148.5975494,144.7122498,154.8696136,145.7395477,158.0779114,153.3858948z M169.5605774,176.8635406
		c-5.7098389,2.10466-11.4064636,4.235611-17.0635834,6.2878113c-7.0183258-14.0629425-21.1311798-12.7018738-28.8038177-25.3510284
		C143.8101196,153.6434631,154.2022247,170.6807556,169.5605774,176.8635406z M132.0831146,187.9493256
		c-9.0573273-6.721405-19.3969803-10.5708008-27.0064926-20.5031586
		c20.6950531-5.3866119,31.6389694,10.3947754,45.8673935,19.0658875
		c-27.3927002,15.5501251-44.1489487,8.0851288-56.2594986-9.6722717
		C110.6970444,172.9141846,115.7262802,192.6973724,132.0831146,187.9493256z M115.2638702,202.498291
		c-15.0744934,4.9267426-21.8484726-8.2112427-30.9190063-16.2674255
		C97.3016281,185.8972473,106.0278549,194.749588,115.2638702,202.498291z M100.6517792,207.8875732
		c-14.1654282,7.3388824-19.7200623-4.0280762-26.7253113-12.2656097
		C84.7548218,195.572052,93.6334534,199.6763306,100.6517792,207.8875732z M74.4650803,212.0444489
		c4.0412979,0.0525818,7.3651657,1.5923309,10.019104,4.619278c-2.4253387,0.8723602-4.8741684,1.7710266-7.325798,2.6696777
		C76.2597275,216.9212799,75.363739,214.4565735,74.4650803,212.0444489
		c-4.3749237-0.8197937-9.0836105-0.8197937-10.9307098-7.0551605
		C69.703949,201.8834839,71.7061157,207.7588043,74.4650803,212.0444489z M75.6318436,222.7203979
		c-4.7981033,1.1272583-4.3618469,4.6954803-8.8655548,6.0039673c-1.3086243-5.9277649-3.8493958-9.1859741-6.9526672-11.2644806
		C67.0500031,214.9688873,70.9494476,219.6907959,75.6318436,222.7203979z M47.6504898,221.9505157
		C47.8554726,217.8961487,50.6906395,221.128067,47.6504898,221.9505157
		c-7.646347,9.1335297,6.8501778,8.2112427,2.950737,15.5501251c-2.7194672-4.2856445-8.58424-1.847229-9.3542519-10.4185333
		C42.7106667,225.0799408,44.2504234,223.077652,47.6504898,221.9505157z M24.6958389,249.8161621
		c0.8985271,2.4647217,3.0426846,2.2071533,4.2488155,4.0044708c-3.0795174,1.282196-2.2203598,4.335556-6.4298058,5.1317291
		C20.8595219,254.7955017,22.1050205,252.0233154,24.6958389,249.8161621z M17.9744434,321.6127014
		c-3.9257307-7.1839294,2.3463364-9.6985474,9.5066528-11.8531189
		C33.471981,321.434021,22.7986984,313.9164429,17.9744434,321.6127014z M24.0179081,330.4677124
		c1.8340168-3.9019775,7.6068439-5.9804688,13.726511-7.8539734
		C46.4681129,332.2886658,25.5181656,337.1392212,24.0179081,330.4677124z M35.2167206,345.7077026
		c-2.1940689-12.7017517,20.3743744-22.297821,26.7909698-9.9034119
		C56.4897537,340.4999084,42.8892212,348.2485962,35.2167206,345.7077026z M77.8257751,341.0122375
		c-5.5179291,6.2615051-13.0485764,11.5483093-25.0068588,14.8065186
		C50.740551,346.9138184,72.1291504,333.7259216,77.8257751,341.0122375z M96.9547882,347.8387756
		c-16.0756531,9.2360229-33.3311386,17.909668-42.0809937,21.0916748
		C59.5824852,357.5897827,86.3707809,338.1376953,96.9547882,347.8387756z M79.1474762,382.1210327
		c-1.6159592,0.6148071-3.2582092,1.2059937-4.8505478,1.7946472c-5.1947098-1.9760132-9.3515778-6.1065979-12.7253571-11.9320068
		c30.0202179-13.7265015,49.6116333-31.7912292,71.2184372-9.6984253
		C113.8528976,370.3178101,95.864357,396.5150452,79.1474762,382.1210327z M99.2145157,391.3071289
		c5.9383011-2.6170959,9.0047455,0.9748535,12.444313,3.7469177
		C105.5259476,398.0811157,100.8567657,398.0285339,99.2145157,391.3071289z M121.6910095,399.6707764
		c2.0783691-0.1524048,4.8242569-1.744751,5.7492065,0.6174622
		C125.3617172,400.4406433,122.6158295,401.9804077,121.6910095,399.6707764z M127.8133469,386.3041687
		c-3.6971283,6.7477112-17.0268936,7.7724609-19.7464905-1.0011292c5.862236-2.5671997,11.5851517-4.7217712,15.4844589-2.9770203
		c-3.6418762-8.4425354,7.14711-16.3463135,14.3965759-13.6005554c0.6673889-12.6491394,22.5816498-0.7698669,27.3402405,6.4927979
		c-10.019104-0.2311401-16.9743042-7.0839844-27.3402405-6.4927979c0.7567902,4.1568909,3.8495178,3.310791,5.1186371,6.4140625
		c-5.6073456,5.362854-8.2112427,9.0335693-16.1650543,8.7262268
		C127.2089462,384.6619263,127.5032043,385.4554443,127.8133469,386.3041687z M143.6314392,391.5121155
		c-2.2203674,5.2077942-9.892868,6.7738342-11.5982361-1.258728c4.7349701-2.8981323,7.0945282-0.7172852,10.6732788-1.1535339
		c-4.1173706-11.7268982,12.5625458-17.909668,17.0898743-6.3114319c-8.7629242,3.8468628-8.13237,6.8238831-17.0898743,6.3114319
		C143.0297089,389.9197693,143.3239594,390.7159424,143.6314392,391.5121155z M145.4287567,396.386261
		c6.7870331-3.0270691,13.1878967-5.2079163,14.8695068,2.824646
		C153.9736176,401.2105408,147.5965271,403.4176636,145.4287567,396.386261z M158.2461853,386.1491089
		c5.8883972-2.5671997,11.6086426-4.7480469,15.5238342-3.0033264
		C178.8491669,391.6906738,157.499939,395.9763184,158.2461853,386.1491089z M171.9596252,378.2979126
		c4.1331177-1.6422424,7.0051117-0.5387268,9.0966949,2.1808472c3.8100281-2.4384155,5.3129425,0.1524048,6.6977692,3.0795288
		c4.09375,0.1524048,0.8591614,3.0270691,0,0c-2.5541229-0.3099976-5.1448059-0.5648804-6.6977692-3.0795288
		C176.9520264,382.1210327,174.0905762,380.9910889,171.9596252,378.2979126z M166.0710907,399.8782959
		c6.1196747-3.0795288,10.8283539-3.0296021,12.4443207,3.694458
		C172.4220276,406.6259766,167.7133484,406.5497742,166.0710907,399.8782959z M177.3618622,392.9493713
		c6.3378601-2.028595,12.7281494-4.2094421,14.8959351,2.7956848
		C185.9331512,397.7210388,179.5428467,399.9019165,177.3618622,392.9493713z M190.3712006,413.0661926
		c-0.6936798-3.026947-3.0007782-6.7738342-0.281189-8.2112427c1.8735199,3.2345886,5.5415649,2.6170959,7.5805664,5.4654846
		C195.2480316,411.2452393,192.796402,412.1413879,190.3712006,413.0661926z M195.6052856,397.2586365
		c5.3130798-2.7196045,9.3805389-2.7695007,11.5746155,1.2848816
		C202.6368256,399.5682678,195.8628387,405.4961853,195.6052856,397.2586365z M211.0162201,416.5057678
		C205.561264,426.9479065,200.3008881,410.2442322,211.0162201,416.5057678L211.0162201,416.5057678z M217.4301453,411.3740234
		c-0.5912018-1.6422424-1.1929321-3.2844849-1.7973328-4.9031067c2.4516296-0.8985291,4.9031372-1.7709045,7.3258057-2.6931763
		c0.5911865,1.6422424,1.1955872,3.2319031,1.7973175,4.8741455
		C222.3305969,409.5768433,219.9053955,410.4492188,217.4301453,411.3740234z M235.9311218,423.9208374
		c2.10466-0.1550598,4.8505554-1.7184448,5.799118,0.6410828
		C239.6254578,424.7170105,236.9059906,426.2567749,235.9311218,423.9208374z M250.5693817,418.5054016
		c-8.1218414-1.4610291,0.5387421-9.4935913,3.978302-4.2330933
		C252.0960541,415.1446838,252.3798981,417.2992554,250.5693817,418.5054016z M280.0142822,416.0696411
		c0.0525818-0.0788574,0.0263062-0.0263062,0.0788574-0.1550598
		C280.0405884,416.043335,280.066864,415.9907837,280.0142822,416.0696411z M305.1236267,401.1080322
		c1.847229-3.8730164,7.5964355-5.9515076,13.7161255-7.8513184c2.2702637,4.4144287-0.7831116,6.4140625,1.1535339,10.6734314
		C313.2061157,406.9597473,306.8052673,409.1668701,305.1236267,401.1080322z M309.7166138,391.1021423
		c-5.2210083-10.6233826,8.9417725-10.8809204,15.2690735-11.1882629
		C328.8850098,388.022644,315.5420227,393.5379028,309.7166138,391.1021423z M327.3189392,401.2105408
		c1.6817627-1.2560425,2.0785217-3.0795288,0.6411133-5.7465515c4.0412903-1.5397644,8.1350403-3.0296021,12.1763306-4.5432129
		C348.6315002,400.8005676,331.3103333,409.0643921,327.3189392,401.2105408z M329.2055359,383.8657532
		c2.822113-6.4664917,8.6605835-4.0280762,14.6516113-5.3892822
		C349.4013672,386.4828796,329.8335571,389.9985046,329.2055359,383.8657532z M351.9526978,400.4170227
		c-5.6572571-8.1088867,8.4161987-14.112854,11.3039551-6.9553223
		C361.1781616,396.5411987,357.9199524,399.1083984,351.9526978,400.4170227z M350.5285034,381.5561218
		c2.2203369-5.2342224,12.5863037-8.7236938,14.0103455,0.3336182
		C358.611084,384.5331421,352.864563,386.7402954,350.5285034,381.5561218z M353.5949402,374.8846436
		c-8.4555969-13.6005249,11.3170471-14.3704224,16.1676025-8.7762756
		C366.1574707,374.3696594,364.1816101,370.8039856,353.5949402,374.8846436z M372.9945679,389.869873
		c2.1046753-0.1550903,4.8505554-1.7184753,5.7991333,0.6148071
		C376.6652832,390.6658936,373.9431458,392.2294006,372.9945679,389.869873z M390.9699097,385.9704285
		c-1.6159668-12.5756226-15.7550964,2.0522156-19.1288757-6.7765198
		C375.3568115,370.598999,403.1593323,373.9596863,390.9699097,385.9704285z M371.3128357,362.7714233
		c8.6106567,0.3099976,19.4389954-4.1568604,25.5455933,1.6422424
		C393.0877686,368.3419189,373.1994324,376.8342285,371.3128357,362.7714233z M385.6700439,349.1472778
		c6.4927673,6.0802917-13.1616211,13.3692627-12.1867676,4.5405273
		C372.0065002,347.7362976,383.6704102,348.301178,385.6700439,349.1472778z M390.8280334,355.5611877
		c-0.6017151-1.6159668-1.2324219-3.2582092-1.8078613-4.9004517c2.425354-0.8723755,4.8480225-1.7710266,7.29953-2.6695557
		c0.6044006,1.6184998,1.2324219,3.2607422,1.8078613,4.8768311
		C395.6785889,353.7902832,393.2532654,354.6626587,390.8280334,355.5611877z M401.2859497,323.9749146
		c-5.3131104,2.7194824-9.3805542,2.7956848-11.5483398-1.2823181c-7.7094727,10.1083679-22.773407,4.2593689-35.0127563,10.2108765
		c15.4607239,4.4142761,34.8077698-1.5397644,45.3155823,2.6434021
		c-9.4935608,12.2393188-28.3412781,2.2570496-45.6756287,11.3170471c3.8100281,4.9267578,14.1260681-4.4144287,15.7683105,5.260376
		c1.5265503,9.7510071-13.1880188,6.3877563-19.4889221,7.2102356c-0.6017456-1.6159668-1.2061157-3.2345886-1.8209534-4.9004822
		c-3.1426392,2.6407471-4.8111572,5.8751831-7.9300537,8.4923096c2.6827698,1.463562,4.6455688,4.5169067,6.0302429,8.9049072
		c-4.8741455,1.7710266-9.7247009,3.5657043-14.6120911,5.3630066c-5.0422974-8.3663025-0.1418457-12.1631165,8.5818481-14.2679138
		c-1.4740906-2.6933289-5.2211304-0.4098206-8.2244568,0.281189c-1.1929016-3.2319336-2.3989258-6.4901428-3.5918274-9.7247314
		c2.052063-3.129425,5.3260193-5.644043,11.2644653-6.9789429c-2.630188-1.5896912-5.7991028-2.0520935-9.1204529-2.1808777
		c-0.604248-1.6159363-1.2059937-3.2345886-1.7971802-4.8768311c-1.4873047,2.0284729-3.0034485,4.0307617-6.427124,5.15802
		c9.6091309,8.0062561,0.9748535,15.4476318-5.838623,21.5542297c6.1459656-3.0769958,9.238678,0.4124756,10.8941345,7.0839844
		c-3.2478027,7.4413452-9.0469055,1.0247498-17.0899963,6.3114319c-6.4665222-10.4683228,5.938446-21.3492432-11.1488953-15.2426453
		c10.3396301,5.3392334-0.977417,12.9855652-4.3381042,18.2196655c15.1900635,2.8220825-4.0412903,12.4206848,5.6572571,22.8365479
		c-10.3265686,6.2615356-15.3189697,1.0535889-23.748291,3.2345886c0.885437-14.7802429,1.066803-17.2948608-1.0641479-32.8712769
		c-1.4740906,2.6933289-4.5169067,4.6455688-8.8392639,6.0302734c6.1196899,10.2135315-1.2061157,14.2915344-0.089386,22.2215881
		c-55.0429688-15.0612793-105.2720795-45.7779846-159.1720276-63.0991211
		c-31.0871582-10.032196-71.6545563-17.1660767-88.8601303-53.0379944c-1.6159592,0.588501-3.2582073,1.2059937-4.8741665,1.7946472
		c22.3108845-46.1879578,78.8647766-66.6648102,132.7384338-90.681076
		c3.912384,12.6754608-4.9635773,20.936615,7.4938049,27.7368774c-4.1200256-7.9799805,4.5931244-9.9822693,5.2342224-15.7813873
		c-9.7247162,4.5169067-4.9135284-12.6754608-6.2983551-17.0872192
		c18.7058411-6.8791351,37.3855133-13.8053741,56.0650635-20.7344208c1.0142212,6.7240601-0.0629883,9.7510071,6.9553375,11.2907562
		c1.2192078-6.1327362-0.6936798-13.8053741,7.6857147-16.6799011c6.0302429,1.5397491,14.7802277-2.8220978,21.2966461-2.3359375
		c-2.7458801,10.6496582,3.7206116,14.756485,8.3793945,30.1516724c8.416214-9.0310364-5.7229156-16.0126648,4.9635773-23.99263
		c-5.0555267-0.641098-11.4064636-1.9996338-8.4924164-7.9799805c7.5937653,1.1297913,19.3995209-6.9290466,23.1438751,2.5671997
		c0.7330627,3.6943207-6.9789429,3.5392609-5.5284729,7.5700073c17.8597412-5.2104645,9.1991882,27.8657837,19.9382629,31.4313354
		c-1.4372864-20.1168213-4.3881531-30.6376953-5.54422-45.0580139c5.3522949-2.8483887,9.4698181-3.0532379,13.0748596-2.0522156
		c3.0401306,14.7802429,9.6748047,31.2527771,15.5896301,49.6248474
		c-0.6044006-16.1123505-0.1683044-36.744278-7.3783875-49.9085693c6.8002625-3.0532227,13.2141724-5.260498,14.8959351,2.7983398
		c0.7435913,3.694458-6.9658813,3.5393829-5.5180664,7.5937653c20.6319275,6.6478577,7.2127686,30.5353394,19.5678101,45.4443512
		c-5.7492065,5.980484-14.8591309-2.1021118-14.6410522,5.3891602c4.1332397,1.3086243,9.8797607-0.9222717,14.0103455,0.3337555
		c1.2980957,6.0041046,1.3873596,11.4458313-2.7956543,14.9090271c-7.0814514,1.7710266-22.00354-4.6194153-20.4375,4.7716827
		c27.9944153-1.6658783,50.3052979-6.5926208,69.9755859,1.8735199
		c-14.3834839,15.5002136-41.9312439,5.0818024-54.5410461,17.3735962
		c17.2685852-0.8486328,35.5119934-3.8757019,51.7295227-2.4908752c1.7973022,4.8768311,3.6050415,9.7510071,5.4023438,14.6278381
		c-14.3178101,4.7217712-25.0331421,1.665863-39.2615662,6.2089539c15.9862366,10.31604,42.9559021-13.8053894,54.709198,13.0354919
		c-21.1048889,6.1065979-45.7648926-1.4898376-53.8999329,11.5982361
		c17.2055664,1.8998108,28.9823608-8.2637024,44.4038391,0.2049866
		c-4.1937256,16.3725586-35.7432861,0.7698669-44.7769775,13.8053589
		c13.4481201,1.5397644,29.4212952-2.3595276,43.507843-2.2570496c1.2059937,3.2845154,2.4121399,6.5164185,3.6050415,9.7510071
		c2.7326965-1.4372559,0.4230347-5.1841736-0.2680969-8.1876221
		C400.0404358,308.887207,401.5170898,316.2261047,401.2859497,323.9749146z M397.1526794,297.8013
		c2.4252319,5.1317444,0.8723755,8.468811-4.5931091,10.0058899c-0.8959961-2.4620361-1.8077393-4.9004517-2.732666-7.3388672
		C392.2785339,299.5959473,394.730011,298.6736755,397.1526794,297.8013z M403.1593323,381.4799194
		c1.9364929-7.2127686,2.3990479-15.0640869,5.8885193-21.5805054
		C414.3082275,363.8513184,415.2830811,379.2963867,403.1593323,381.4799194z M413.6671143,349.8908691
		C408.1754761,360.3092346,402.9281921,343.6293335,413.6671143,349.8908691L413.6671143,349.8908691z M405.1720276,341.9371643
		c-3.1162109-6.1328735,0.4362488-9.238678,7.0446167-10.9308472
		C417.6821289,338.2400513,411.7936096,340.2423401,405.1720276,341.9371643z M409.8807068,309.7070007
		c3.0664673,6.8265686,5.2342224,13.1905823-2.7956543,14.9090271
		C402.0925293,322.3589783,402.1819153,312.0692139,409.8807068,309.7070007z M403.8504639,300.8546753
		c3.2345886-1.1798401,6.4665222-2.3858643,9.7510071-3.6182861
		C421.888916,306.6537781,405.4032898,307.6286316,403.8504639,300.8546753z M419.8104248,463.9758911
		c3.2740784-45.6754761,2.6959839-93.1193237,7.0183105-138.3587036c6.2353821-1.1562195,3.6445618-6.4165955,11.3170471-6.9553528
		c9.6985779,5.0818176-5.260376,11.0360107-4.3616943,18.2460938c7.3887634-2.5408936,14.3571777-15.6026917,19.5150757-7.210083
		c-0.6673889,5.8753052-13.2798462,16.6510925-6.7870483,19.1156616c4.5142517-0.9248047,9.6222229-11.3406677,14.6120911-5.3891602
		c-0.578125,8.5712891-15.9338074,20.8868408-9.8404236,25.7899475c3.7837219-5.6730042,8.274353-11.0097046,13.4717407-16.0389404
		c1.1929321,14.0629272-10.4945679,22.1191101-12.0343323,34.9497681
		c4.8872375-0.1786804,7.4807129-10.9308472,12.1894226-4.5169067
		c-4.2226562,8.1613159-12.0738525,14.6777344-13.1905823,24.2501831
		c8.2506104-3.0034485,10.4446716-19.3234558,19.2444458-15.4240112
		C459.1876831,418.7103577,450.1539917,446.2712097,419.8104248,463.9758911z M425.6095276,315.0961609
		c0.0132141-0.0524597,0-0.0524597,0.0656738-0.1286621C425.6095276,315.0437012,425.6227417,315.0437012,425.6095276,315.0961609z
		 M499.5501099,259.9270935c3.0794983-1.282196,2.2203369-4.3617249,6.4035034-5.1315918
		C511.9838562,259.3621826,500.3331909,265.0063782,499.5501099,259.9270935z M427.6880188,275.4247742
		c11.5483398-4.1568909,11.9581604-13.3429871,24.1082153-17.2422791
		c10.5734558,6.3640137-7.7356262,12.9329834-5.8885193,21.5540771
		c8.6342773-4.8242493,15.9732971-20.8630676,26.5598145-18.0910339c-7.0971985,8.852478-19.375885,15.3715515-23.84021,25.4299011
		c14.2546997-9.6484985,26.5834351-20.1168213,38.4786072-30.8426819
		c2.3096313,10.518219-12.7675476,13.0092163-14.0892334,21.8615723
		c10.0978394-2.2071533,16.2569885-16.6799316,25.9185791-12.3681335
		c-24.7623596,33.2050476-86.9760437,53.5768738-97.6888428,5.620575
		c-7.3782349,1.3583984-11.4326172-4.4407349-15.1769714-11.0097351c3.0007629-7.9037628,22.7208252,1.0510864,26.8383484-9.9559631
		c-10.5577393-0.4887085-24.3894043,6.1328735-29.789093-5.5678558
		c5.6703491-5.7728271,13.2903748-18.2460938,25.0041809-14.8065186c1.2954102-4.1042938-0.9485474-9.9034119,0.3468628-14.0103607
		c6.1722412-4.5668335,7.6200562,1.1299286,13.0986023-2.0522156c-2.5908203-5.9277649-4.8347778-11.6769714,0.3862-14.0103607
		c6.0803223,2.5908203,14.0865784,15.4976654,19.1420898,6.7739716c-5.5547485-4.0280762-11.290741-7.7250824-14.5491028-16.7823944
		c14.6016846-5.3367157,18.9371338,11.6245117,30.072937,13.8053741
		c-5.3104248-15.8575897-26.5308533-17.1660767-24.1581116-35.3595886
		c19.2576599,3.4631805,30.1885071,25.1986237,47.8931885,32.1276703
		c-8.4661255-16.782547-24.3761597-17.3474426-32.3956299-35.1047058c-4.091217-0.2049866-0.8330078-3.05336,0,0
		c0.8092346-0.3074646,1.6422424-0.6149445,2.4514771-0.9222717c15.563324,14.5226746,35.8588257,18.7820282,46.6240845,43.7493896
		c-7.018219,5.0029449-6.2982483-6.8001251-12.4441833-3.7206116c2.9507141,3.8493958,5.0029297,9.6485138,9.3909302,10.3658142
		c3.2582092-8.5185852,8.9179993,4.080658,12.1763611-4.490509c-5.3130798-8.9022522-11.6114502-15.778717-17.2317505-24.0951233
		c16.0256042,3.2845001,23.6324768,24.8413849,32.6531067,43.3159485
		C497.9078369,260.0794983,435.8098755,240.6826477,427.6880188,275.4247742z M527.6602173,216.4062958
		c0.0263062-0.0500488,0-0.0237579,0.0656738-0.1524048C527.6602173,216.3825378,527.6865234,216.3562469,527.6602173,216.4062958z
		 M529.8936768,259.9270935c0.0525513-0.102356,0.0263062-0.0524597,0.0761719-0.1812439
		C529.9199829,259.8746338,529.946228,259.8247375,529.8936768,259.9270935z M530.4954224,148.7167053
		c4.1199951-1.6685333,6.928894-0.4126282,9.1229858,2.204483
		C535.4353638,152.5897217,532.6526489,151.3336792,530.4954224,148.7167053z M539.7602539,181.3540344
		c2.1047974-0.1524048,4.8242188-1.7447357,5.7990723,0.5911865
		C543.480957,182.1239166,540.7088013,183.663681,539.7602539,181.3540344z M563.3167725,222.5154114
		c-2.4779663-3.4395599-8.4557495,0.7435913-8.4820557-7.9563446
		C560.0322266,209.6848907,568.6796265,218.7685089,563.3167725,222.5154114z M564.701416,188.7454987
		c6.1196899-3.0532379,10.802063-2.9770355,12.4443359,3.7469025c4.09375,0.1287689,0.8355103,2.9771576,0,0
		C571.1942139,195.1095123,568.1147461,191.5176697,564.701416,188.7454987z M575.2355347,209.787262
		C574.2211914,211.9682465,575.8766479,208.3499908,575.2355347,209.787262L575.2355347,209.787262z M573.3094482,227.1321564
		c2.1046143-0.1786957,4.850647-1.7447357,5.7990723,0.5911865
		C577.0064087,227.9020386,574.2606812,229.4417877,573.3094482,227.1321564z M582.6243286,259.722229
		C582.0488892,269.0607605,573.0151978,252.4332733,582.6243286,259.722229L582.6243286,259.722229z M578.0969849,247.5065308
		c3.0006714-0.6673889,6.7607422-2.9508667,8.2243042-0.2548981
		C583.3179932,247.9163666,579.5447998,250.2259979,578.0969849,247.5065308z M581.817627,235.0359344
		c5.2841187-2.7196045,9.3778687-2.7958069,11.5456543,1.282196
		C591.65802,240.4749908,583.9591064,242.0410461,581.817627,235.0359344z M590.4519043,273.448761
		c4.5273438-1.0510559,11.3145142-7.005127,11.5718994,1.2586975
		C596.7134399,277.4269409,592.6459351,277.5031128,590.4519043,273.448761z M601.3065186,227.8519897
		c1.6422729-0.6174774,3.2582397-1.1797028,4.8742065-1.7971802c0.8986206,2.4121246,3.0401001,2.1545715,4.2462769,3.951889
		C606.5012207,231.2389832,602.0894775,233.4698792,601.3065186,227.8519897z M603.6397705,249.1750641
		c3.0297852-0.6936798,6.7634277-3.0034485,8.2244873-0.2811737
		C608.8371582,249.558609,605.090271,251.8682404,603.6397705,249.1750641z M610.7999878,216.0489197
		c3.2581787-1.2324219,6.5059814-2.4121399,9.737915-3.6182709c1.2954102-8.0851288,14.3441162-5.1578827,16.4487915-0.5386047
		c-7.7120361,5.0292358-11.2907715,1.0773468-16.4487915,0.5386047c0.3074951,0.7935028,0.6043701,1.6422577,0.9117432,2.4357605
		C619.3712769,219.2309265,613.5458374,221.4353943,610.7999878,216.0489197z M615.5717773,236.4206238
		C616.3180542,247.1228638,609.184021,227.8519897,615.5717773,236.4206238L615.5717773,236.4206238z M616.6386108,269.2918701
		c2.1019897-0.1786804,4.8242188-1.7184448,5.7728271,0.6673889
		C620.3330688,270.0880432,617.5871582,271.6278076,616.6386108,269.2918701z M628.2734985,248.3789062
		c3.9519043-1.2297516,8.3400269-3.4894867,9.149292,2.1572266
		C633.2922363,252.228302,630.4545288,250.9722595,628.2734985,248.3789062z M641.2854004,268.4983826
		C640.2711792,270.6529541,641.9265137,267.1110229,641.2854004,268.4983826L641.2854004,268.4983826z M651.6776123,259.1310425
		C651.0995483,268.4983826,642.0921021,251.8682404,651.6776123,259.1310425L651.6776123,259.1310425z M642.0421753,240.5275726
		c-2.4646606,0.8723755-4.8900146,1.7973175-7.3152466,2.669693
		C628.4915771,237.4480591,642.9644775,232.1113434,642.0421753,240.5275726
		c9.6721802-5.1317291,22.1690674-10.160965,30.3933716-0.1786957
		C659.413269,246.6867371,648.3273315,248.7388153,642.0421753,240.5275726z M655.8082275,285.2782593
		c2.1046753-0.1524048,4.8242188-1.7184448,5.7728271,0.6410828
		C659.4762573,286.100708,656.7567749,287.6404724,655.8082275,285.2782593z M659.9019775,258.849884
		c3.9255981-1.2061462,8.3242798-3.4894867,9.1204224,2.154541
		C664.8655396,262.6965942,662.043457,261.46698,659.9019775,258.849884z M662.5952759,266.1887512
		c2.4750977,3.3869934,8.4293213-0.7698975,8.479187,7.9273987
		C665.8534546,278.9403992,657.2191772,269.8830872,662.5952759,266.1887512z M661.1710815,247.2752533
		c5.8622437,1.8998108,16.1650391-5.8753052,21.2862549-2.333252
		C682.4573364,254.461731,664.0588379,257.5149536,661.1710815,247.2752533z M677.4910889,268.958252
		c2.425354-0.8959961,4.8741455-1.7946472,7.2994995-2.6932983c0.6043701,1.6159668,1.2061157,3.2582092,1.7973022,4.8741455
		c-2.425354,0.8986816-4.8637695,1.7973328-7.2889404,2.6959839
		C678.6972046,272.1928406,678.0928345,270.5767517,677.4910889,268.958252z M686.2410889,285.1258545
		c-0.5913696-1.6186218-1.2192383-3.2345886-1.8209839-4.8768311c1.6422729-0.5886536,3.2582397-1.2324219,4.8742065-1.7946472
		c0.6043701,1.5896606,1.2059937,3.2582092,1.7973022,4.8478699
		C689.4729614,283.9433289,687.8569946,284.534668,686.2410889,285.1258545z M696.3625488,267.5208435
		c-2.5645752-4.6691895-8.3899536-2.3595276-10.9308472-7.0550232
		C694.4916992,253.153244,705.0230713,261.7217407,696.3625488,267.5208435z M699.5971069,291.2823486
		c-2.6564941-5.9515076,0.9249268-9.0311584,3.6943359-12.4706116c3.0927124,2.1046753,5.633606,5.3891602,6.9290161,11.2907715
		C706.0635986,291.8472595,702.4585571,292.3622437,699.5971069,291.2823486z M710.9772949,262.1343689
		c-2.4516602,0.8959961-2.1677856,3.026947-3.9650879,4.2067871
		C698.9034424,264.9038696,707.5640259,256.8475647,710.9772949,262.1343689z M718.8284912,275.8345947
		c-5.951416,2.6959839-9.0047607-0.9222717-12.4706421-3.6943359c2.0522461-4.3355408,7.8513794-6.4664917,12.2026367-4.5169067
		C719.9190674,270.9604187,719.3803101,273.3988342,718.8284912,275.8345947z M738.8823242,285.0732727
		C736.317749,296.8265686,732.3132935,278.2730103,738.8823242,285.0732727L738.8823242,285.0732727z M748.2497559,295.439209
		c-1.6817627-4.1044006-0.4625244-6.9263611,2.1808472-9.1073608
		C755.2285767,288.5890503,757.4725952,294.4643555,748.2497559,295.439209z M765.9414062,283.3548279
		c-2.6933594-4.3382263-10.1610107,1.5896606-10.9176636-7.005127c5.3496704-2.9009399,9.5065308-3.0796509,13.0853882-2.0784912
		C769.803833,278.4017944,768.5584717,281.1739807,765.9414062,283.3548279z M776.2442017,296.1590576
		c-3.5551147-8.8786316,9.0966797-12.8804321,13.7159424-7.8013
		C788.1367188,292.2071533,782.3638916,294.2593689,776.2442017,296.1590576z M780.3116455,269.754425
		c9.532959-4.6194153,17.2948608-5.3892822,20.6687622,3.4394226
		C795.9248657,281.9438477,783.9536743,277.631897,780.3116455,269.754425z M811.256958,285.99823
		C811.8980713,284.6108704,810.2557983,288.1790771,811.256958,285.99823L811.256958,285.99823z M811.8349609,280.4040833
		c0.0368042-0.102478,0.0262451-0.0262756,0.0893555-0.2049866
		C811.8612061,280.3778076,811.8717651,280.3016052,811.8349609,280.4040833z M819.8649292,271.7565918
		c-3.4894409-1.3085022-4.104248-8.7262268-10.019104-4.5929871c-5.5179443-12.0344849,13.8815918-13.1143646,15.5239868-3.0034485
		C820.3010864,265.2138977,821.7384644,269.2419739,819.8649292,271.7565918z M829.8733521,276.3497009
		c-0.885437-3.7470398,5.0556641-4.4144287,8.8394165-6.0566711
		C847.2576294,277.3743591,830.3727417,285.8957214,829.8733521,276.3497009z M838.8283691,248.1240082
		c3.7862549,3.4894867,11.0332031-0.5648956,11.8293457,9.493454c-1.8971558,4.464325-10.2765503,7.5438538-14.6513062,5.3629761
		C834.723938,257.002655,834.621582,251.5609131,838.8283691,248.1240082z M865.067627,296.5690002
		c-9.7511597,5.0818176-15.2060547,0.8224792-23.7509766,3.2345886c-4.104248-5.8779602,3.310791-6.5453491,4.6193237-9.9822693
		c8.776123,10.802063,12.4705811-1.4109802,22.8522949-5.6703186
		C875.7802734,292.1046753,858.0491943,288.6416321,865.067627,296.5690002z M863.3726807,269.5231628
		c-0.8092651,8.5187073-15.2558594-1.2823486-4.2461548-4.0018005c0.1654663-4.0543823,3.0269165-0.8224487,0,0
		C860.3062134,267.3422852,862.447876,267.0611267,863.3726807,269.5231628z M870.9297485,275.0410767
		c-0.6017456-1.6422424-1.2061768-3.2582092-1.7973633-4.9004517c3.2476807-1.182373,6.5321655-2.3622131,9.7640991-3.5944824
		c0.6044312,1.6422424,1.2061157,3.2345581,1.7973022,4.8768311
		C877.4592285,272.6552429,874.1879272,273.8088074,870.9297485,275.0410767z M886.314209,241.6049194
		c-8.571106-3.2582092,4.0649414-8.9049225-4.5036621-12.1631317c4.7979736-1.1272583,4.3355713-4.7455139,8.8392334-6.0540009
		C889.3543701,234.0111542,894.0762939,234.8309479,886.314209,241.6049194z M883.2347412,248.276413
		c-0.0656738,0.1549377-0.0393677,0.1287842-0.0656738,0.2049713
		C883.1953735,248.4051971,883.1690674,248.4313507,883.2347412,248.276413z M885.9411011,255.6152802
		c-3.0032959,2.002182-3.3737793,5.1841888-8.8391113,6.0565338
		C870.6721802,256.3352661,885.1318359,251.0484619,885.9411011,255.6152802z M867.81073,229.0844116
		c1.4372559-2.669693,7.507019-1.0800171,8.2243042-0.283844
		C882.8746948,236.7307587,864.5262451,235.0359344,867.81073,229.0844116z M881.2324219,287.845459
		c3.0664673-1.2823486,2.2203369-4.3618469,6.3904419-5.1317444
		C893.6268311,287.3303223,882.015625,292.9245911,881.2324219,287.845459z M906.1473389,295.2342224
		C906.7885742,293.8993225,905.1358032,297.4413757,906.1473389,295.2342224L906.1473389,295.2342224z M887.7384033,260.4921265
		c3.1925659-1.8735352,0.8067627-6.3640137,2.1809082-9.0836182c8.5449829-2.4909973,14.5857544,0.5123138,17.5892334,10.1083679
		C899.9121094,263.3641357,892.1502075,265.5712585,887.7384033,260.4921265z M917.7219238,221.6929626
		c-5.7096558,2.1546936-8.7131348-1.5397644-15.5263672,2.9770203c2.0152588-18.3221588-12.7649536-25.5061035-4.656189-42.5959778
		c6.2090454,2.6171112,13.4086304,3.0795135,16.062561,13.4454651c-2.0258179,8.2112427-8.0955811,3.4395599-10.3922729,9.3910828
		C911.4341431,202.8084259,920.9538574,212.5567627,917.7219238,221.6929626z M900.3115234,242.0147552
		c-3.0533447-6.1563721-2.9902344-10.8282166,3.6943359-12.4443207c2.7721558,4.233078,7.5177002,4.1568756,9.3910522,10.3423309
		C908.0471191,242.8372192,903.8902588,242.9896088,900.3115234,242.0147552z M908.7776489,249.9186554
		C909.4318237,248.533844,907.7896118,252.1258087,908.7776489,249.9186554L908.7776489,249.9186554z M921.1325684,275.8871765
		c-5.9515381,1.2324219-12.0080566,2.6434021-13.3429565-6.1327515c5.3497314-2.8982849,9.5092773-3.1058044,13.0881958-2.0784912
		C922.225647,270.9604187,921.6843872,273.448761,921.1325684,275.8871765z M916.3739624,255.4628906
		c-1.7052612-4.1568756-0.4624023-6.9553375,2.1547241-9.1099091c0.9248047,2.4384155,3.0401001,2.1545715,4.2723999,3.9755096
		C919.7215576,251.6134949,920.5571289,254.716629,916.3739624,255.4628906z M937.7626953,230.9316406
		c-0.9642944,2.488327-12.1500244,11.7007294-13.0880737,2.0783691
		C923.6997681,227.1846008,937.1845703,225.6947479,937.7626953,230.9316406z M929.1783447,245.1731415
		C936.6064453,259.2072449,918.618042,250.9459686,929.1783447,245.1731415L929.1783447,245.1731415z M925.6362915,288.050293
		c3.0794678-1.282196,2.2203369-4.3616943,6.4297485-5.1315918
		C938.0700073,287.5379944,926.4061279,293.1820374,925.6362915,288.050293z M937.9544678,261.3381958
		c-0.6278687-1.6159668-1.2059937-3.2582092-1.8104248-4.9004517c2.4252319-0.8723755,4.8768311-1.7973175,7.3256836-2.6959839
		c0.578125,1.6186371,1.1824951,3.2845154,1.7710571,4.8768311
		C942.8155518,259.5408936,940.3796387,260.4395447,937.9544678,261.3381958z M939.5704346,235.8058014
		c3.2714233-1.2324066,6.5059814-2.4121246,9.737915-3.5919647c0.6279907,1.5896759,1.2059937,3.2319183,1.8103638,4.874176
		c-3.2345581,1.1825104-6.4664917,2.388504-9.7509766,3.594635
		C940.7896118,239.04039,940.1616211,237.4480591,939.5704346,235.8058014z M949.1296387,276.6044617
		c3.0006714-1.9994812,3.3737793-5.181488,8.8392944-6.0538635
		C964.3959351,275.8871765,949.9363403,281.1739807,949.1296387,276.6044617z M973.8132935,200.9585266
		C974.4545288,199.5738373,972.8253784,203.1395264,973.8132935,200.9585266L973.8132935,200.9585266z M961.4083252,249.8923645
		c-0.0391846,0.1287842-0.0129395,0.0788727-0.0654907,0.1550751
		C961.3953857,249.9712372,961.3691406,250.0211487,961.4083252,249.8923645z M953.9276123,222.2054138
		c-1.5003662-4.1044312-3.0032959-8.1325073-4.5037231-12.2131805
		C959.5585938,205.2441864,967.4623413,218.9470673,953.9276123,222.2054138z M956.4685059,199.087677
		c-2.7194214-4.3880005-10.1609497,1.5635223-10.8939819-7.0576935
		C950.656311,188.7953949,962.4463501,192.7472839,956.4685059,199.087677z M945.293335,183.7661591
		c-7.4807129,3.0796509-9.7903442-5.0791473-18.8739624,1.4898529c4.09375,7.2363892,11.1356812,8.030014,14.5358887,16.7562561
		c-10.4158936,2.5908203,2.9008179,4.8478699,2.0547485,13.1116943c-2.4252319,0.9249573-4.8505859,1.7973175-7.2758789,2.669693
		c5.2867432,8.7235565-11.2907715,9.338501-10.699585,1.1797028c1.8341064-1.1797028,1.5529785-3.3369446,4.00177-4.2093201
		c-0.3468018-2.2072754-1.8077393-1.949707-3.321167-1.589798c-7.0315552-7.2100983,7.7092896-4.5167847,4.5929565-9.982132
		c-19.1682129-2.6933136-5.8516846-23.9663544-21.4780273-28.0969238
		C922.711792,174.2727203,934.6043091,177.6597137,945.293335,183.7661591z M901.5044556,177.8409424
		c-7.68573,3.5656738-12.7911377,1.4111023-15.7683105-5.260376
		C892.1764526,171.7318115,899.0397339,170.0133667,901.5044556,177.8409424z M748.762085,184.433548
		c-4.2461548,1.8998108-6.2352295-1.1035004-10.6496582,1.1299286c-2.3096313-9.1361847-2.911377-17.4735413-4.1568604-26.1734772
		c13.2798462-5.9016113,27.9182129,18.8871918,21.4780273,28.0969086c4.6954346,1.5660553,7.2102051,7.8275757,11.8294678,9.4961243
		c-5.0424194-7.0576935,4.4248657-7.4177551,3.7206421-12.4706116c-9.9822998,4.0780029-8.8260498-16.0388184-13.9078979-22.6078033
		c9.1729126-0.8197937,17.7310181-0.4099731,25.5454712,1.6948242c8.9811401,19.2707367,9.7248535,32.8685913,19.552063,45.4179382
		c-5.0923462-15.8574677-3.3474731-28.5357056-11.3275757-45.7280731
		c36.9887695-9.0836182,18.8214111,40.493988,43.5708008,50.3973846
		c-7.302124-14.3178253-10.31604-30.3040619-14.7040405-47.1890869c22.5158691-4.874176,39.9263306,1.206131,59.3259888,3.0033112
		c5.6965942,22.4002991,14.3439331,28.5594635,15.5632935,49.6774292c-6.119812,3.0795135-9.2125244-0.4624176-10.9072266-7.0813141
		c-8.555542,2.1019897,0.1418457,12.2130432-11.9057007,12.7253571c-6.7212524-5.0791473-9.2622681-22.1690216-1.6921387-27.0957794
		c-10.5341187,3.8232422-9.9690552-16.5249786-7.2233276-19.475708c-5.7492065-0.6673889-7.8538208-9.3674622-15.7944336-5.2605133
		c9.7116089,21.0419006,13.7160645,30.5353394,14.7041626,47.2153931
		c-10.5736084,6.8238831-14.3573608-1.0537262-20.6714478-3.4395752c4.5825806,6.8265686-4.963562,7.1601868-0.383667,14.0103607
		c2.7459106-10.160965,14.2915649-6.7476807,18.2435303,4.3119507c12.946106-8.7263794,1.0772705,9.0047302,12.4468994,3.7442322
		c2.630188,5.9042664-1.0405273,8.9575043-0.3468628,13.9867401c-5.9804688,2.6932983-9.0336914-0.8986664-12.4968872-3.696991
		c8.3137207-4.0280914,3.9781494-8.75,0.3968506-14.0339813c-1.9235229,4.5404053-9.7247925,6.3640137-16.1650391,8.7761383
		c-1.6422729-3.7994843-2.2702637-9.7273865-6.0567017-8.855011c0.7435913,5.0555267-11.109375,4.3382263-3.7205811,12.4705963
		c-4.8505249,1.7710266-9.737915,3.568222-14.6121216,5.3891602c-5.4547729,0.1287689-3.8626099-15.0875854-11.8058472-9.4934387
		c-4.8479004,2.5146179,3.2844849,10.9569855-0.3967896,14.0366364c-4.0543213,1.4871826-8.1218262,2.9770203-12.1893921,4.490509
		c-6.1433105-4.2593689-10.7363892-11.8032227-20.0405884-9.2124023c1.3111572,4.464325,4.9161987,4.0019226,6.0697021,8.8261719
		c-4.9898682,6.5453796-21.4517212,7.5438843-24.0189209-4.9766541c4.0675049-8.8787537,11.8425903-3.5157623,17.9492188-3.8495178
		c-9.9297485-17.7572632-27.9051514,3.3344116-35.2939453,1.9497223c0.7435913,8.6212006,9.2885742,0.3599091,10.9308472,7.0313873
		c-1.6029053,2.6171265-2.0653076,5.8490295-2.1547241,9.1335449c-11.1489258,4.1568604-19.8883667-1.7683716-18.5140381-12.5205078
		c-19.7463989,10.5709229-19.8225708-21.4254456-42.8902588-3.568222
		c8.4924316-21.6829987-26.1867065-18.9108276-19.9251709-31.4340057
		c-18.0908813,1.1299286-44.1357422,19.7595673-52.6439209,0.0525818
		c25.0830688-7.8012848,31.434021-6.7240601,56.9794922-18.2697144c-2.3726807-11.6506805-6.1459961-4.1069641-11.5719604-1.282196
		c-1.182373-3.2845001-2.3753052-6.5190887-3.5814209-9.7510071c17.2581177-11.8058777,22.7996826,2.1808624,33.4862061-6.8265533
		c-6.6715088-4.3881378-15.765625-17.7048187-3.2320557-23.7876587c18.590271,3.2082977,5.15802,36.3607483,27.8788452,22.967865
		c-1.5765991-2.4647064-5.4785767,0.1261139-6.6713257-3.1058044c-0.5650635-9.4699554,1.8471069-19.8357697-4.1437988-26.1473389
		c4.2723999-1.949585,6.2615356,1.0773621,10.6496582-1.182373c3.3475952,4.9267426-3.3739014,5.1843109-2.144043,9.1362
		c19.7462158,0.8986511,19.977478,22.9152832,29.9334717,36.0269775
		C738.3963013,193.1073456,744.3477783,189.105545,748.762085,184.433548z"/>
	<path d="M973.8132935,200.9585266C972.8253784,203.1395264,974.4545288,199.5738373,973.8132935,200.9585266
		L973.8132935,200.9585266z"/>
	<path d="M400.668335,127.4436798C401.3095703,126.0588531,399.6436768,129.624527,400.668335,127.4436798L400.668335,127.4436798z"
		/>
	<path d="M348.3608398,60.8813553C347.527832,57.8279953,344.2433472,60.6999931,348.3608398,60.8813553L348.3608398,60.8813553z"/>
	<path d="M363.782196,80.1258011c1.6422424-0.5911942,3.2582092-1.2060013,4.8768311-1.8209457
		C367.7340698,75.8927307,363.2697449,76.8150101,363.782196,80.1258011z"/>
	<path d="M368.6590271,78.3048553c0.6910095,1.4374084,1.4240417,2.769516,3.3474731,1.5397644
		C371.2892151,78.4073486,370.5692444,77.0725708,368.6590271,78.3048553z"/>
	<path d="M371.6333923,93.8549805c-2.1677856-2.6169815-4.9634705-3.8756866-9.1466064-2.1808624
		C364.6808472,94.2649384,367.5028076,95.5209808,371.6333923,93.8549805z"/>
	<path d="M354.5461731,100.1402588c-0.9249573-2.3332596-3.6708374-0.7435913-5.7492065-0.6148148
		C349.7455444,101.8613739,352.4676819,100.3216171,354.5461731,100.1402588z"/>
	<path d="M357.9199524,101.6537247c2.1152039,2.7222672,4.9898682,3.8493958,9.0705261,2.2071457
		C364.8856812,101.1676941,362.0505371,100.0640564,357.9199524,101.6537247z"/>
	<path d="M366.9904785,103.8608704c2.1677856,2.669693,5.0160217,3.7996216,9.1466064,2.1573715
		C374.0088196,103.3485565,371.1473389,102.2186203,366.9904785,103.8608704z"/>
	<path d="M376.137085,106.0182419c2.131073,2.7194672,5.0187073,3.8231049,9.1231079,2.2044754
		C383.1291199,105.5031204,380.2703247,104.3759918,376.137085,106.0182419z"/>
	<path d="M98.3657684,239.2190857c-0.9090729-2.4384155-3.0532303-2.1809845-4.2330704-3.9781799
		c-2.10466,0.1549377-3.5787582-0.9748535-4.2461472-3.9520111c-6.8133469,23.8139343-60.4426575,26.123703-64.1108246,51.4248199
		c16.2543392-13.4218445,36.3344574-25.0962524,58.863533-35.6171417c0.9117355,2.4121246,1.807724,4.8505402,2.7063828,7.2862854
		C91.1819611,249.4062042,87.4113007,240.9375305,98.3657684,239.2190857z"/>
	<path d="M117.8809814,232.0088654c5.4653549-0.8460846,5.8384857-4.0543823,8.8655548-6.0565491
		C123.8850784,219.1520538,114.5964813,225.1325226,117.8809814,232.0088654z"/>
	<path d="M86.7176208,260.1819763c1.6921616-1.282196,2.0652924-3.0768433,0.6280212-5.799118
		C85.640274,255.6152802,85.2671432,257.4387512,86.7176208,260.1819763z"/>
	<path d="M296.3737793,182.6651917C297.0148926,181.2279205,295.3726196,184.7936096,296.3737793,182.6651917
		L296.3737793,182.6651917z"/>
	<path d="M259.1669617,201.9333954c-1.2954102-3.0768433-4.3618469-2.2307739-5.1317291-6.4139252
		C248.9403381,196.3419189,254.5738373,207.9900665,259.1669617,201.9333954z"/>
	<path d="M28.4821129,290.0263062c18.4247894-2.7984619,44.6614037-21.7354431,62.4685783-25.8661499
		c-0.8986588-2.4883423-3.0532303-2.1808472-4.2330704-3.9781799
		C69.3571091,271.1654053,41.0421257,273.2176208,28.4821129,290.0263062z"/>
	<path d="M121.1155701,255.7703552c2.3989182,3.129425,2.0257874-1.0537262,4.8609543-1.8236084
		C124.2449951,251.0983734,120.2299881,253.2818909,121.1155701,255.7703552z"/>
	<path d="M95.8406067,262.3393555C103.9232025,267.804718,110.4133301,253.7417603,95.8406067,262.3393555L95.8406067,262.3393555z"
		/>
	<path d="M155.2427368,243.1183929c-1.6422424,0.5911865-3.2319183,1.2324219-4.8741608,1.8236084
		c0.780426,5.6177521,5.1947174,3.3344116,9.1204529,2.1808624
		C158.2960968,245.2992554,156.1414032,245.6093903,155.2427368,243.1183929z"/>
	<path d="M44.2504234,295.2342224c5.1054382,9.4435425,19.283947-0.7936096,27.9944344,0.7462769
		C65.2658997,290.6674194,54.4611664,293.6445618,44.2504234,295.2342224z"/>
	<path d="M296.809906,221.2829895c-2.4883423-1.8733826-6.5296326-0.4624023-7.5701599-5.54422
		c-5.4784241,1.5399017-7.0314026,4.8768311-4.6192627,10.0348511
		C290.971405,228.6481628,288.4961548,222.7203979,296.809906,221.2829895z"/>
	<path d="M315.684021,219.8457336c-1.2061462-1.8209381-3.3502808-1.5397644-4.2357483-4.0044708
		c-1.6422424,0.6174774-3.2582092,1.206131-4.8873596,1.8498993
		C307.3676147,223.3089142,311.7557678,221.0255737,315.684021,219.8457336z"/>
	<path d="M285.7897949,236.4206238c0.6279907,1.6422424,1.2059937,3.2345734,1.8077087,4.8768311
		c1.6160889-0.6148071,3.2583313-1.1797028,4.8768311-1.7971802c-0.604248-1.6161041-1.2059937-3.2320557-1.8103943-4.8480225
		C289.021698,235.2409058,287.4320374,235.8058014,285.7897949,236.4206238z"/>
	<path d="M309.4223633,255.4103088c0.6017151,1.6422424,1.1929321,3.2582092,1.7946472,4.8768311
		c1.6422424-0.6174927,3.2608643-1.2061157,4.9031372-1.849884c-0.6044006-1.5896912-1.2059937-3.2319336-1.8236084-4.8478851
		C312.6937866,254.2042999,311.0646057,254.7955017,309.4223633,255.4103088z"/>
	<path d="M459.0456848,202.8583374c-0.8092346,0.3074799-1.6159363,0.5911865-2.4252014,0.8723755
		C457.1091919,205.1154022,459.6238098,205.7827911,459.0456848,202.8583374z"/>
	<path d="M484.5913086,204.5005951c-1.2455139-1.6921692-1.8236084-4.7979736-4.2357483-4.0018005
		C481.6141357,202.2172394,482.1922607,205.3230438,484.5913086,204.5005951z"/>
	<path d="M287.1114807,277.5031128c0.9748535,2.3622437,3.6943359,0.7698975,5.7728271,0.6412354
		C291.9593506,275.784668,289.2397461,277.3743591,287.1114807,277.5031128z"/>
	<path d="M152.0344391,346.8639221c4.0675964-2.1572266,4.0176849-6.2353821,1.2717896-11.5746155
		C149.2387848,337.4728394,149.2886963,341.5245361,152.0344391,346.8639221z"/>
	<path d="M111.1962814,356.4099426c-5.4653549,13.5479431-37.1542435,11.9555969-32.0488052,25.7110901
		c19.5152206-6.2353821,26.8147278-16.0126648,38.746582-22.6341248
		C116.3543015,356.9223938,113.789772,356.6648254,111.1962814,356.4099426z"/>
	<path d="M332.4375916,280.1465149c3.2607422-1.2061157,6.4927979-2.4121094,9.7510071-3.5919495
		C342.4855347,271.9352722,329.231842,276.86203,332.4375916,280.1465149z"/>
	<path d="M324.754425,296.8265686C318.6846619,306.2701111,339.4820862,298.082489,324.754425,296.8265686L324.754425,296.8265686z"
		/>
	<path d="M659.6444092,175.8124847c0.961792,2.3096313,3.7207642,0.7698822,5.7991333,0.5911865
		C664.2112427,174.7351379,662.3377075,174.3489227,659.6444092,175.8124847z"/>
	<path d="M418.3100281,265.0063782c-4.2067871,0.7960205-3.3475037,3.8493958-6.427002,5.1342468
		C412.6791992,275.29599,424.3141174,269.6256409,418.3100281,265.0063782z"/>
	<path d="M296.6417542,318.3282166C295.8350525,315.2485657,292.5873718,318.12323,296.6417542,318.3282166L296.6417542,318.3282166
		z"/>
	<path d="M296.6417542,318.3282166C299.8631287,325.4122009,305.9067383,312.2479248,296.6417542,318.3282166
		L296.6417542,318.3282166z"/>
	<path d="M123.5513153,382.3260193c0.6936798,1.4372559,1.463562,2.7720337,3.3501587,1.5397339
		C126.2340851,382.4284973,125.5035706,381.0935974,123.5513153,382.3260193z"/>
	<path d="M317.9673767,315.9685364c3.413269,2.8746643,9.1466064,0.6412354,13.9971313,0.383667
		C329.6286011,311.1442871,323.8952637,313.4014587,317.9673767,315.9685364z"/>
	<path d="M278.3353271,336.1616821C275.1531982,329.0540771,269.0703735,342.2445068,278.3353271,336.1616821
		L278.3353271,336.1616821z"/>
	<path d="M278.3353271,336.1616821C283.9398804,342.5020752,290.2802734,328.7466125,278.3353271,336.1616821
		L278.3353271,336.1616821z"/>
	<path d="M292.3061829,336.5478821C291.3182678,338.7288818,292.9735718,335.163208,292.3061829,336.5478821
		L292.3061829,336.5478821z"/>
	<path d="M308.7549744,336.035553c-3.4000549-2.8746643-8.0824585-2.9770203-13.9971619-0.4124756
		C298.1446838,338.4976196,302.8403015,338.6526794,308.7549744,336.035553z"/>
	<path d="M685.3687134,207.8612823c-1.0144043-6.6950989,0.0892334-9.7509918-6.9553833-11.2644653
		c1.2980957,4.619278-7.6830444,4.5167847-7.9405518,8.4686737
		C675.6676025,205.4754486,679.5432739,208.8125305,685.3687134,207.8612823z"/>
	<path d="M271.2907104,347.1188049c0.9485779,2.3622131,3.6680603,0.7698975,5.7728271,0.6174927
		C276.1149902,345.4003601,273.3953857,346.9664001,271.2907104,347.1188049z"/>
	<path d="M718.3424683,184.588623c-1.6186523,0.5911865-3.2478027,1.1798401-4.8900757,1.7973175
		C714.3773804,188.8216858,718.8810425,187.8205414,718.3424683,184.588623z"/>
	<path d="M287.7131958,346.5564575C284.5180054,339.446167,278.4508972,352.6630249,287.7131958,346.5564575
		L287.7131958,346.5564575z"/>
	<path d="M727.4522095,186.7433319c-0.9248047-2.3596954-3.6968384-0.7698822-5.7753296-0.6149445
		C722.6148682,188.4643097,725.3475342,186.8982544,727.4522095,186.7433319z"/>
	<path d="M324.2920227,333.0585327c1.1297913,3.3868713,3.116333,4.9267578,5.1317139,6.3876343
		C335.8639526,336.2668457,331.4259033,329.0803528,324.2920227,333.0585327z"/>
	<path d="M287.7131958,346.5564575C290.9215088,353.6878052,296.9755249,340.4999084,287.7131958,346.5564575
		L287.7131958,346.5564575z"/>
	<path d="M298.3628845,345.4003601c4.0148621,4.490509,9.1860962,6.3903198,17.331543,1.9259644
		C310.8465576,344.7066956,305.0080566,344.1942444,298.3628845,345.4003601z"/>
	<path d="M344.9606628,336.4954529c3.2345581-1.2061462,6.4927673-2.4121399,9.7641907-3.59198
		C352.18396,326.7705994,342.9085693,330.2101746,344.9606628,336.4954529z"/>
	<path d="M710.0286865,207.0677948C703.4727783,200.2911377,707.4746094,218.7685089,710.0286865,207.0677948
		L710.0286865,207.0677948z"/>
	<path d="M340.3413696,346.5038757c2.6065674,3.1558533,5.8910522,4.8242493,8.4818726,7.9301758
		c2.8851013-2.0285645,2.2570801-5.6730042,5.5415649-7.5701294
		C352.005249,341.6796265,346.2560425,343.9367981,340.3413696,346.5038757z"/>
	<path d="M769.3414307,210.0421448C762.9379272,201.4736481,770.0719604,220.7443848,769.3414307,210.0421448
		L769.3414307,210.0421448z"/>
	<path d="M717.2388306,226.5671234c2.1677856,4.0543823,6.2352295,4.0044708,11.5456543,1.2848663
		C725.9625244,225.1325226,721.90802,225.1824341,717.2388306,226.5671234z"/>
	<path d="M433.7840881,336.9079285C430.7543335,337.7277222,433.6157837,340.9623108,433.7840881,336.9079285
		L433.7840881,336.9079285z"/>
	<path d="M804.8796997,216.3038025c-0.6016846-1.6159515-1.2061157-3.2320557-1.7946167-4.8742981
		c-1.6186523,0.6149445-3.234436,1.206131-4.8768311,1.7946472c0.6176147,1.6422577,1.2191772,3.2845001,1.7973022,4.9267426
		C801.6478271,217.5097961,803.2637939,216.9212799,804.8796997,216.3038025z"/>
	<path d="M775.6397705,227.1321564c-2.1677246-2.6171112-4.9898682-3.8495331-9.1204224-2.2072754
		C768.6872559,227.5945587,771.4829102,228.8268585,775.6397705,227.1321564z"/>
	<path d="M723.5371704,243.6333771c2.6171265,3.1557159,5.8779907,4.8242645,8.5081787,7.927536
		C736.9196167,248.8938904,728.2982788,239.8102722,723.5371704,243.6333771z"/>
	<path d="M923.9940186,186.1283875c0.8093872-0.3073425,1.6186523-0.6174774,2.425354-0.8723755
		C925.9462891,183.8686523,923.4185791,183.2039337,923.9940186,186.1283875z"/>
	<path d="M797.4909668,241.244873c-2.6040649-3.1557159-5.8885498-4.8242493-8.4819336-7.9799652
		c-4.272522,2.7458801-1.847229,8.5974426-10.4052734,9.3936157
		C782.7999878,246.7366486,789.9207764,244.4270172,797.4909668,241.244873z"/>
	<path d="M819.4050903,233.1361237c-1.182373-1.847229-3.3238525-1.5370941-4.2225342-4.0018005
		c-1.6159668,0.5911865-3.2582397,1.1798401-4.9004517,1.7973175c0.8986206,2.4620361,1.8077393,4.8741608,2.7327881,7.3125916
		C814.4915161,236.2419281,816.0180664,234.2660522,819.4050903,233.1361237z"/>
	<path d="M882.8222046,209.6848907c0.296936,0.8197937,0.6043091,1.6159668,0.8723755,2.4121399
		C885.0819702,211.634491,885.7623901,209.119873,882.8222046,209.6848907z"/>
	<path d="M797.4909668,241.244873C798.3237915,244.2483215,801.5821533,241.3999481,797.4909668,241.244873L797.4909668,241.244873z
		"/>
	<path d="M932.3603516,216.3038025c-0.6937256-1.4373932-1.4373169-2.7458954-3.3240356-1.5397644
		C929.3569946,216.9974823,930.8336182,216.7136383,932.3603516,216.3038025z"/>
	<path d="M932.3603516,216.3038025c0.6936646,1.4109802,1.4372559,2.7194672,3.3737793,1.4898529
		C935.0167847,216.4062958,934.2705688,215.0713806,932.3603516,216.3038025z"/>
	<path d="M451.7200317,407.8583984C448.6798706,408.7044678,451.5413513,411.962677,451.7200317,407.8583984
		L451.7200317,407.8583984z"/>
</g>
</svg>
