<?xml version="1.0" encoding="utf-8"?>
<!-- Generator: Adobe Illustrator 27.2.0, SVG Export Plug-In . SVG Version: 6.00 Build 0)  -->
<svg version="1.1" id="cloves_tree" xmlns="http://www.w3.org/2000/svg" xmlns:xlink="http://www.w3.org/1999/xlink" x="0px"
	 y="0px" viewBox="0 0 1000 632.53302" style="enable-background:new 0 0 1000 632.53302;" xml:space="preserve">
<g id="outline">
	<path d="M500.0924683,440.2522583C498.5071716,440.164978,502.5322876,440.4868164,500.0924683,440.2522583
		L500.0924683,440.2522583z"/>
	<path d="M786.0092773,179.9658508C784.4509888,179.848587,788.5061035,180.1733856,786.0092773,179.9658508
		L786.0092773,179.9658508z"/>
	<path d="M420.5391235,395.9796753C423.0059509,396.1572266,418.9809875,395.8623962,420.5391235,395.9796753
		L420.5391235,395.9796753z"/>
	<path d="M446.5967712,192.0108795C445.0384827,191.8936157,449.0635986,192.2485504,446.5967712,192.0108795
		L446.5967712,192.0108795z"/>
	<path d="M828.2843018,172.0933533c-26.7042847-24.3819275-54.3773804-10.7214508-76.1480103-40.2474976
		C735.8917236,81.0243454,673.1394653,7.5506687,619.2045288,0
		c-64.2053223,50.2078171-78.8074341,104.4677582-96.1378784,158.5501404
		C377.647583,134.6976013,208.6978455,64.4248352,57.4035416,96.065567C40.864151,99.4438705,0.1474124,114.6326523,0,127.23423
		c14.893961,95.6836014,141.1595459,131.8458557,227.3219299,156.6127014
		c70.09552,20.0349731,138.2804871,38.9840393,198.003418,76.6444702
		c-62.7792358,47.3860474-88.1298218,116.5699158-7.5776672,139.2221069
		c25.940033,7.3129883,65.4835815,4.1995239,101.7330933,4.4942017c32.227417,0.321991,79.0118408-2.7043457,100.8397827,15.8626099
		c19.652832,16.7169189,29.4056396,41.9801636,44.5371094,56.5221558
		c49.0015259,46.9467773,94.7993164,58.1104736,148.6199951,55.6135254
		c57.5509033-2.7614746,16.479248-155.7313538,24.8241577-188.95755
		c1.5852661-6.2000732,8.5494385-11.8404541,11.0732422-19.9476624c4.232605-13.3658142,2.5570679-28.9364014,8.8743896-38.8968811
		c17.3306274-27.3479614,52.6445312-37.8648376,78.9065552-63.570343
		c34.3723755-33.578186,69.5358887-83.8431549,61.7504883-108.3754425
		C982.2798462,159.9038696,862.2142944,166.1881104,828.2843018,172.0933533z M23.1485863,121.5936737
		C22.971035,108.8446884,35.2809067,121.9186401,23.1485863,121.5936737L23.1485863,121.5936737z M37.0136261,183.2568665
		C35.4584579,183.0824432,39.4834099,183.4042816,37.0136261,183.2568665L37.0136261,183.2568665z M42.4496155,140.2208862
		c-1.1461945-1.4108887-2.3194008-2.7346191-3.4354591-4.1153717c1.3507614-1.1430664,2.7315025-2.2892609,4.0219841-3.4354553
		c1.1763344,1.3507538,2.3223724,2.7315063,3.4685669,4.0251007
		C45.181118,137.8683777,43.8002205,139.0145721,42.4496155,140.2208862z M49.7655792,189.8962097
		C52.3496704,179.2319183,50.5869675,200.9123077,49.7655792,189.8962097L49.7655792,189.8962097z M52.7919083,152.3530426
		C53.0267677,165.072052,40.6867561,152.0010681,52.7919083,152.3530426L52.7919083,152.3530426z M50.5568275,133.316864
		C47.8253288,124.0333176,62.3972931,136.8997345,50.5568275,133.316864L50.5568275,133.316864z M934.8937378,186.430603
		c-27.4080811,3.3783112-54.0250854-2.2922211-82.1403809,10.3694611
		c-4.052124-4.7590332-8.0770874-9.5180817-12.1021729-14.2771301
		C873.4351196,166.8349152,904.4291992,173.4740906,934.8937378,186.430603z M797.3201904,551.4765015
		c-1.7055054-2.0577393-3.4384155-4.0852661-5.1711426-6.112793c2.0576782-1.7327271,4.0822754-3.4354858,6.1398315-5.1682129
		c3.321106,2.7315063,0.9987793,5.1411743,3.1135864,7.8726807
		C800.0818481,549.1239624,798.7011108,550.300293,797.3201904,551.4765015z M796.1138916,566.5178223
		C791.6496582,556.4702148,805.3101196,572.5403442,796.1138916,566.5178223L796.1138916,566.5178223z M800.8729248,485.5806274
		c-0.0571289,4.9937439-3.8475342,11.2238159-8.5192871,10.6643066
		C788.241394,490.9293213,795.9093018,484.9941101,800.8729248,485.5806274
		c-6.3443604-5.550293-1.1160278-11.6027832,4.6147461-10.9861145
		C808.041626,478.5894775,805.9268188,482.2023315,800.8729248,485.5806274z M773.5821533,494.6896057
		c3.9076538-1.4710083,7.6680908-1.3236084,11.6057129-2.8217773c-1.7928467-1.203186-3.4384155-3.9648132-5.4659424-2.3493652
		c-2.9660645-6.0526733,9.3136597-9.7528076,11.5757446-2.8487854c-2.0275269,1.7327271-4.0550537,3.4654236-6.1098022,5.1981506
		C788.241394,496.6871643,775.9315186,500.4744263,773.5821533,494.6896057z M687.8288574,480.1477661
		c6.4645996-1.7628479,12.6045532-0.0902405,18.4796753,5.3155823
		C699.5518799,490.8390808,687.7987671,487.0216675,687.8288574,480.1477661z M697.4642334,524.4172363
		C699.9038696,524.6549072,695.9089355,524.2999878,697.4642334,524.4172363L697.4642334,524.4172363z M677.78125,464.1949158
		c4.8191528-5.1110229,8.8442993-0.1773987,12.9866333,2.9661865
		C685.9185791,472.3322449,681.923645,467.3686523,677.78125,464.1949158z M684.276001,500.6218567
		C679.8087769,490.6345215,693.4391479,506.7046509,684.276001,500.6218567L684.276001,500.6218567z M649.4615479,463.7828064
		c5.435791-5.1711426,10.0775757,0.0601196,14.7193604,4.9665833
		C658.9797974,470.7739563,654.1633911,467.9553223,649.4615479,463.7828064z M658.6276245,490.9864807
		C654.1031494,480.9689941,667.7365723,497.0691223,658.6276245,490.9864807L658.6276245,490.9864807z M652.7225342,447.0690002
		C651.8410645,457.9077148,653.5467529,436.1971741,652.7225342,447.0690002L652.7225342,447.0690002z M657.8935547,453.1185303
		c5.8181152-1.7327271,11.3110962,0.7341003,16.4522095,6.9641418
		C668.2359619,465.4284058,663.2122803,457.2910461,657.8935547,453.1185303z M673.6688232,422.2448425
		c1.2063599,3.2608643,0.9416504,6.3744812-2.6712036,9.3105469
		C666.3828735,427.9725342,670.5853882,425.1809082,673.6688232,422.2448425z M682.3357544,477.8254089
		c-4.8162231,5.1711426-8.8413086,0.2075195-12.9837036-2.966217
		C674.1682739,469.6880493,678.3707275,472.0374451,682.3357544,477.8254089z M768.8831787,460.3173828
		c6.1098022-5.757843,11.3982544-0.7341003,16.7139893,3.2007446
		C779.4572144,469.2487793,774.2289429,464.282196,768.8831787,460.3173828z M793.9119263,477.4132996
		c-1.9404297,1.0588989-3.7602539-0.2918701-5.7878418,1.4408569c-1.1162109-1.3507385-2.2923584-2.6743469-3.4354248-4.0550842
		C788.2112427,470.187439,791.0028687,474.4470825,793.9119263,477.4132996z M780.9553833,474.5072021
		c-5.9924927,3.8475647-11.4283447,0.4692688-16.7740479-3.2608643
		C770.2339478,466.7789917,775.8443604,467.4859314,780.9553833,474.5072021z M755.0753174,444.0696716
		c6.2572021-7.5776672,11.5456543-2.5539551,16.7441406,3.2038879
		C765.649353,453.0012512,760.4210205,447.9775085,755.0753174,444.0696716z M757.894104,455.6154785
		C766.3864136,449.3882446,765.1229248,464.8718567,757.894104,455.6154785
		C749.4349365,461.7854004,750.6682739,446.3620605,757.894104,455.6154785z M712.6829834,476.4746399
		c-6.2572021,4.4642334-16.6266479-1.5852966-16.3919678-6.9641418
		C702.3135376,467.89505,713.0649414,469.3662109,712.6829834,476.4746399z M698.1110229,446.9787292
		C693.6466675,436.9040833,707.2470093,453.0012512,698.1110229,446.9787292L698.1110229,446.9787292z M702.6655273,460.5519104
		c5.8150024-1.7628479,11.2809448,0.7341003,16.421936,7.0213013
		C713.2695312,469.3360596,707.8065186,466.8392639,702.6655273,460.5519104z M708.7451782,455.4109192
		c-0.8511963-10.0777588,13.0167847-6.0827942,17.0388184-0.4993896
		C719.3222046,464.7244263,714.6504517,452.7093811,708.7451782,455.4109192z M731.1626587,481.7632141
		c-4.9967041,7.3431396-8.666748-1.6455688-13.3085327,0.821228
		C715.7093506,473.917572,728.2837524,476.3573608,731.1626587,481.7632141z M724.315918,473.7130127
		c-2.2923584-9.5782166,14.1599121-5.6705627,11.2508545,0.9116211
		C731.3973389,479.1489868,728.3408813,470.5995483,724.315918,473.7130127z M727.2550049,460.6993408
		c1.1461792-7.3161316,13.0708008-6.3173523,18.741333,1.4981689
		C739.1827393,469.2759399,733.2173462,464.3423157,727.2550049,460.6993408z M741.324585,473.1535034
		c5.4060059-1.7898865,13.3685913,0.9114685,12.6918335,6.7294312
		C748.640686,481.910614,740.5335083,480.8517151,741.324585,473.1535034z M745.7316284,465.9577637
		c5.5231323-6.3173523,10.5470581-5.9052429,15.0413818,1.2333374
		C755.3400269,471.2733459,750.3432617,470.9213867,745.7316284,465.9577637z M738.9180298,433.2611084
		c5.1981812-2.0275574,10.0175171,0.821228,14.7162476,4.963623
		C747.4373779,446.5696106,738.3884888,439.5753174,738.9180298,433.2611084z M725.3748169,413.2832947
		c5.9052734-2.02771,11.4553833-1.0860901,16.4793091,6.9639893
		C735.4796143,426.2398071,725.1101685,420.2472839,725.3748169,413.2832947z M735.1575928,432.9361267
		c-5.5532227,6.3173523-10.164856,1.176178-14.7191772-4.9635925
		C726.4909058,422.3321228,735.6570435,427.3558655,735.1575928,432.9361267z M746.9379883,450.9465332
		c-11.5456543,2.5541077-22.4144897-3.6729736-33.196106-10.3123169c1.9974365-1.6755676,4.1122437-3.4384155,6.1098633-5.1711426
		C728.6357422,443.9253845,738.3583984,440.5169373,746.9379883,450.9465332z M714.4758301,408.6113892
		C727.1948242,408.3768311,714.151062,420.6264343,714.4758301,408.6113892L714.4758301,408.6113892z M715.2399292,421.8627319
		c-2.0275269,1.0860596-1.2362671,2.4066772-0.2647095,3.7874146c-2.6743164,1.705719-4.8762817-2.2622375-7.1986694-4.4040833
		C710.5983276,417.6030579,712.947876,419.6006165,715.2399292,421.8627319z M710.3334961,436.5791321
		c-5.583252,6.3474731-11.6629639,1.1160583-10.9891357-4.6717529
		C704.458374,430.7341614,711.0374146,429.8526611,710.3334961,436.5791321z M691.2973022,414.2819214
		c4.4943237-0.7940674,9.0458374-2.436676,13.0136719,2.9391785
		C699.4917603,422.3621216,695.4666748,417.4256592,691.2973022,414.2819214z M695.8789062,427.8552551
		c-3.5256958,4.9064636-6.2000122-1.4108887-9.5482178,1.1460266
		C682.835144,423.2134705,694.0861206,422.1545715,695.8789062,427.8552551z M687.5640259,413.9299316
		c-1.1732178-1.293457-2.2892456-2.7043152-3.4654541-4.0550842c2.0575562-1.7327271,4.0821533-3.4654541,6.1096802-5.1681824
		c1.1160278,1.4079285,2.2622681,2.6713867,3.4384155,4.052124
		C691.6494141,410.4915161,689.6217041,412.254364,687.5640259,413.9299316z M679.9260864,437.90271
		C690.3859253,431.3207092,688.7703247,451.5903625,679.9260864,437.90271L679.9260864,437.90271z M712.5957031,501.0640869
		c-3.2608643,1.23349-6.4046021,0.9686584-9.2261963-2.5870667
		C706.6004028,497.1564026,709.7167969,497.4512329,712.5957031,501.0640869z M709.4219971,493.2487488
		c-2.1749878-7.4334106,10.6642456-9.3136902,13.338623-0.79422
		C717.7368774,499.740509,714.0637817,490.75177,709.4219971,493.2487488z M731.9838867,565.0466919
		c-4.1723633,4.0852051-7.0814209-6.40448-10.6641235-8.4290771
		C726.960144,548.420166,732.3660278,562.3453369,731.9838867,565.0466919z M731.0723877,506.3526611
		C722.5831909,512.6098633,723.8466797,497.096283,731.0723877,506.3526611
		C733.3045044,504.0604248,734.8328247,508.2327881,731.0723877,506.3526611z M728.2236328,494.8340454
		c5.3457031-4.1995239,10.3995972-3.7602539,15.0411987,1.2364502
		C742.7354736,503.1487732,733.1872559,502.3547363,728.2236328,494.8340454z M742.6181641,573.5090332
		c3.3482056,2.8186035,1.0288086,5.0808716,3.1134644,7.8123779c-1.2904663,1.1461792-2.6712036,2.262207-4.052124,3.4384155
		c-3.321106-2.791626-0.9987793-5.1411743-3.1435547-7.8425293
		C739.916687,575.7711182,741.2674561,574.5949097,742.6181641,573.5090332z M743.2047119,565.9883423
		C738.8005981,555.9406738,752.4009399,572.0108032,743.2047119,565.9883423L743.2047119,565.9883423z M736.6558228,484.1427307
		c3.9949341-2.5871887,7.5778198-0.4422302,10.9559326,4.6417847
		C742.5308838,489.9877014,735.9216919,490.8992004,736.6558228,484.1427307z M751.5797119,509.9053955
		c1.5853271,3.7904053-1.9975586,1.3235779-4.0852051,3.4685669
		C745.8790894,510.4047852,749.8168945,507.9079895,751.5797119,509.9053955z M750.4636841,500.3571777
		c3.5828857-4.9334717,6.1969604,1.4410095,9.545105-1.0859375
		C763.5344849,505.0290833,752.0189819,508.7020569,750.4636841,500.3571777z M755.1324463,489.4311523
		c3.9949951-2.5870361,7.6109619-0.4422302,11.0162964,4.6417847
		C762.12677,496.6268921,758.4835815,494.5421753,755.1324463,489.4311523z M759.5095825,482.2324829
		c6.2871704-7.5808105,11.5757446-2.5841064,16.7768555,3.2608643
		C770.5859375,485.8153381,764.6807251,488.0202637,759.5095825,482.2324829z M800.3465576,468.5418701
		c-4.5545044,0.7340698-9.0488892,2.4096375-13.0166626-2.9360962
		C791.8272095,464.8417053,796.5561523,460.4917908,800.3465576,468.5418701
		c3.7302856,0.5295105,8.0200806-5.7276917,11.2509766,0.8815002
		C807.4551392,473.5957336,803.7518311,473.2437439,800.3465576,468.5418701z M773.5249634,449.328125
		c8.8712769-8.4893494,16.2144165,1.7056885,24.5593262,0.1203918
		c-9.2262573-13.3085022-45.4787598-10.7545471-54.4674683-27.1766663
		c23.0041504-3.9346924,43.6257935,21.415863,67.0120239,13.0438232
		C819.4100342,463.7828064,793.8817749,466.369873,773.5249634,449.328125z M711.8887939,393.2782898
		c-9.3706665,4.2596741,3.2910156,10.3093567-4.9064331,14.7164307c-3.7302856-0.9686584-7.3431396-3.230896-10.6613159-8.4292297
		c5.402832-4.6416016,10.8388672-9.2262268,16.2145386-13.7807007c31.0512695,14.1898499,72.357666,23.768219,96.6522827,43.8031921
		C775.2275391,435.8451843,744.2938843,405.9971619,711.8887939,393.2782898z M722.7005005,377.1210327
		c28.3497314,0.6738281,65.2188721,18.2720947,85.9879761,35.3408813
		C785.8918457,420.0698853,749.9041748,392.162262,722.7005005,377.1210327z M740.3860474,369.1279602
		c19.8304443-1.5551758,48.5321045,3.8506775,60.2525024,25.6755371
		C776.3136597,390.456543,761.5670776,379.7622681,740.3860474,369.1279602z M763.5045166,363.4304199
		c3.9678345-9.5180969,28.7919312-3.1436157,31.2015991,11.9547729
		C783.7470093,378.1196594,774.6410522,358.6713562,763.5045166,363.4304199z M777.7244873,351.3251038
		c2.701416-2.3192444,5.4360352-4.5814819,8.1373901-6.8737183c0.2646484,2.526947,0.7069092,5.1409912,3.1436157,7.7853699
		C784.8932495,356.43927,781.1328125,356.0843201,777.7244873,351.3251038z M780.8982544,289.2228088
		c2.0545654-1.7328796,4.052124-3.438446,6.1096191-5.1712952c7.5206909,6.3444824,7.8155518,9.3708191,18.449707,5.3186951
		c4.142334,5.3455811,3.760376,10.339325-1.2333374,15.0110779
		C796.7908325,294.9505005,788.0668335,302.2063293,780.8982544,289.2228088z M803.6345825,311.8718262
		c-7.1957397,3.2038879-2.8187866,7.346283-8.4290771,10.6071472c-3.3782959-3.4082947-1.1461792-6.3473206-4.8493042-9.8428955
		C795.1452637,307.5822144,799.756897,305.9667664,803.6345825,311.8718262z M820.6463623,265.9538269
		c-6.3173828,7.8456421-11.7232056,4.4371948-16.7470703-3.1706238
		C810.1866455,255.1452332,815.4450684,260.1689758,820.6463623,265.9538269z M809.1306763,244.2462463
		c5.8751221-1.9703827,11.4553833-1.1160583,16.5092773,7.0213013c-2.7614746,2.2892609-5.4660034,4.6417694-8.1373901,6.9040222
		C809.9519043,251.0329895,809.1005249,252.8528595,809.1306763,244.2462463z M783.9817505,251.6496582
		c7.3731079-5.8480835,13.8378296-0.2075348,20.182373,7.373291
		C796.4086914,271.0378418,784.2163086,260.2562561,783.9817505,251.6496582z M765.739624,197.2693176
		C763.4172363,199.5045624,761.9793091,195.302063,765.739624,197.2693176
		C774.1686401,191.0122681,772.9353027,206.5258484,765.739624,197.2693176z M788.4489136,219.89151
		c-6.7294312,5.6104126-12.6616821,0.7942047-18.449646-5.3185577
		C777.0205688,205.7616272,788.5061035,212.2835236,788.4489136,219.89151z M765.1229248,204.7630005
		c1.7329102,1.997406,3.4354858,4.0249481,5.1682129,6.1096497c-2.0547485,1.6757202-4.0822754,3.4354553-6.0797119,5.1411591
		c-1.7628174-2.0275421-3.4655762-4.0852356-5.2012329-6.1098022
		C761.0377197,208.1984558,763.0953979,206.4355927,765.1229248,204.7630005z M785.4797363,232.9051819
		c-1.5552979,7.6980743-14.4816895,6.200058-20.5042114-3.5828705
		C772.6134644,221.094696,779.1052246,226.1485596,785.4797363,232.9051819z M777.0475464,243.569458
		c7.2589722,4.9365997,2.1450195,8.9315796,4.5846558,13.5432129c-3.9648438,2.5569153-7.5808105,0.4391174-10.9859619-4.6989288
		C771.1454468,249.3272858,773.4077148,246.4182434,777.0475464,243.569458z M797.1727905,275.414917
		c-6.1699219,5.7005005-11.4283447,0.7037964-16.7468872-3.2911682
		C786.8908081,265.2500305,797.4376221,269.5697937,797.1727905,275.414917z M798.6108398,281.2027283
		c0.9716187-9.8129272,11.8103638-9.3135376,17.0115967-0.4993896
		C809.3051147,288.7234192,803.7819824,286.8131409,798.6108398,281.2027283z M821.6721191,300.1216431
		c-2.7315063,2.2321167-5.493103,4.6116333-8.1644897,6.8738708
		C805.25,300.5609131,816.5610962,290.8953857,821.6721191,300.1216431z M815.3276367,284.4336243
		c2.0576782-1.7027588,4.0823975-3.438446,6.0827637-5.1411743c5.2584839,5.4360046,10.9260254,5.3457336,16.1572876,10.7515869
		C829.3101196,301.5595398,815.9143066,294.0991211,815.3276367,284.4336243z M822.348938,268.0115051
		c6.0526733-6.0526428,14.8939819,2.6743469,14.4245605,8.7539978
		C830.5735474,284.9931335,821.8495483,273.7391968,822.348938,268.0115051z M825.3450928,254.9978333
		c1.9102783-1.6755676,3.9949951-3.4084473,6.022522-5.1110229c3.8205566,7.4032593,8.6067505,2.9660492,12.3670654,10.3995972
		C835.1280518,268.953125,827.6946411,262.8133545,825.3450928,254.9978333z M853.4904175,279.9963989
		c-5.4659424,5.318573-10.8718262,9.6956482-15.3060303,2.5570984
		C838.8311768,273.8294373,848.553833,272.8578491,853.4904175,279.9963989z M843.4729614,264.0736694
		c8.2545776-8.9585724,14.1868286,11.4013672,22.2069092,5.6134033c3.7332764-4.142395-7.1385498-9.4308167-0.7640381-13.3085022
		c6.1127319-5.5532684,11.2237549,0.9386597,16.3949585,7.0213013c-8.3449097,9.6355286-15.8955688,9.5180969-24.0601196,16.9215088
		C856.3391724,269.4223938,843.5300903,274.885376,843.4729614,264.0736694z M856.2790527,246.1836853
		c3.2911987,5.3757172,6.7294922,10.6341553-1.2634277,15.0412292c-2.2893066-2.7315063-4.5515137-5.4058533-6.8739014-8.1072235
		C850.87323,250.7953186,853.5475464,248.5060577,856.2790527,246.1836853z M853.135498,238.3983154
		c5.4960938-6.3445129,11.6057129-1.0860748,10.9289551,4.6717529
		C860.1295776,245.6271515,856.4866333,243.4521942,853.135498,238.3983154z M846.6135864,201.9111023
		c-3.8175659,1.0289154-7.4304199-1.0559387-10.9260254-4.6687927
		C840.0645142,190.0134735,843.0908203,198.7103424,846.6135864,201.9111023z M846.8512573,222.8003998
		C845.2628174,222.6230011,849.2879028,222.9478149,846.8512573,222.8003998L846.8512573,222.8003998z M843.9993286,211.1674652
		C841.7371216,213.4567413,840.2390747,209.2873383,843.9993286,211.1674652
		C846.291748,208.9053802,847.732605,213.0176239,843.9993286,211.1674652z M849.6698608,234.2859192
		c-6.1397705,5.5834045-11.2507935-0.9686432-16.4519043-6.9911652
		C839.300415,221.8287964,844.4717407,228.3236847,849.6698608,234.2859192z M832.3092651,238.5757141
		c5.7276611-2.3795319,14.8638306,3.8175812,14.4245605,8.7240295
		C837.7121582,257.0523987,830.4291382,245.6541595,832.3092651,238.5757141z M826.1393433,198.3583679
		c1.6154175,3.7001343-1.9674072,1.3206177-4.0852661,3.4655914
		C820.4386597,198.8577576,824.4066162,196.3308258,826.1393433,198.3583679z M819.5302734,186.4877625
		C816.7686768,177.2644958,831.3104858,190.1037445,819.5302734,186.4877625L819.5302734,186.4877625z M827.2855225,207.906601
		c3.1705933,3.0231934-3.4084473,7.3431244-7.8754883,3.1706085
		C814.7982788,206.730423,825.9619141,206.730423,827.2855225,207.906601z M831.454895,225.2370758
		c-5.78479,1.7929993-11.2507935-0.7339325-16.3919678-6.9911499
		C821.1727295,212.7829132,826.3137817,219.2748413,831.454895,225.2370758z M830.5735474,236.5783081
		c-7.0484619,9.1661072-12.8060913,2.436676-18.4466553-5.3187103
		C818.8834839,225.6192017,824.758606,230.4685059,830.5735474,236.5783081z M809.4828491,170.5380249
		c-4.4945679,0.7910919-8.9918823,2.436676-12.9868164-2.9691772
		C801.3151855,162.4578247,805.5750122,164.7200775,809.4828491,170.5380249z M809.6571045,191.3672028
		c-5.3757324,1.8200226-13.3085327-0.9416199-12.6616821-6.6994476
		C801.6972656,181.1721649,805.6924438,186.048645,809.6571045,191.3672028z M800.1389771,192.4832611
		c3.230896,7.1385651,7.3161621,2.8188019,10.6643066,8.3719025c-5.640564,7.4333954-9.7226562-4.5844574-15.0112305-1.176178
		C794.0291748,197.0347748,798.0543213,194.8326416,800.1389771,192.4832611z M811.5975342,214.1908264
		c-6.2572632,4.4372101-16.6868286-1.615448-16.4221191-6.9911499
		C800.6986694,208.5232544,806.5134888,206.6701508,811.5975342,214.1908264z M810.3640137,229.2320404
		c-6.8739014,6.5821838-18.0976562-2.7886505-18.1848145-9.0758514
		C800.6385498,213.6914368,807.8672485,222.710144,810.3640137,229.2320404z M807.4249878,242.2488403
		c-6.9911499,8.0470886-18.359375,0.0571594-18.4767456-5.3185577
		C795.9093018,228.7056427,801.6671753,235.371994,807.4249878,242.2488403z M786.0092773,179.9658508
		C788.5061035,180.1733856,784.4509888,179.848587,786.0092773,179.9658508L786.0092773,179.9658508z M777.8719482,186.869873
		c4.0250854-2.5239563,7.6679077-0.43927,10.986084,4.6717682
		C783.3950195,197.8589783,777.255249,192.6277008,777.8719482,186.869873z M789.682251,204.8201447
		c-4.8763428,5.2012939-8.8141479,0.2075348-13.0166626-2.9360657
		C781.1899414,201.1200104,785.7444458,199.4744263,789.682251,204.8201447z M773.3474121,173.2695312
		c-4.8762817,5.1411591-8.8712769,0.1775513-13.0136719-2.966217
		C765.1801147,165.1623077,769.4096069,167.4515686,773.3474121,173.2695312z M774.1416626,186.6081543
		c-5.6134033,7.3130035-9.6655273-4.6417694-15.0412598-1.2364502
		C757.6292725,175.9137421,770.7905273,179.4664612,774.1416626,186.6081543z M753.9291382,179.2319183
		c-4.7890625,5.2012787-9.0488281,2.8517456-12.956543-2.9060822
		C745.791748,171.1247101,749.8168945,176.1183014,753.9291382,179.2319183z M733.2173462,154.8500061
		c-1.350708,1.203186-2.701355,2.2922211-4.0249023,3.4654388c-1.1463623-2.0545654-2.4367065-1.2333374-3.7603149-0.2917023
		C721.2896118,154.7627106,732.161438,147.1819,733.2173462,154.8500061z M713.7689209,115.4538879
		C712.0963135,103.2342758,722.435791,119.683403,713.7689209,115.4538879L713.7689209,115.4538879z M748.3458862,201.5019684
		c-4.052002,16.6568146,19.3008423,35.6328888,9.0186768,51.7901611
		c10.5470581,29.3786163,40.8371582,62.8093719,23.3259888,85.0494537
		c-9.6052246,12.2496033-35.9876709,13.5431824-55.0239868,25.7927856
		c-24.6466064,15.8052979-39.510437,35.9876709-61.2510986,55.4932861
		c-5.2584839-11.0734253,1.2935791-21.2984619,8.2246094-31.4633484c-2.3493652-2.2321167-4.7288818-4.316803-7.5206909-0.6438293
		c-3.3782959,33.8700256-33.7254028,87.6305847-77.1738281,65.598053
		c16.626709-10.6913147,31.1986694,3.9378052,48.3276978-13.0708313
		c-14.6021118-1.0588989-37.7505493,13.1610718-45.0666504-3.703125
		c16.0098877-10.6041565,30.4074097-1.8501282,46.2999878-11.3110657
		c-14.1598511-4.5515137-29.5258789,6.6693115-43.3339233-1.7027588
		c7.7282104-18.5068054,27.7332153-5.0538635,40.8371582-13.6904602
		c-18.0977173-7.6680908-55.1864624,13.3085022-59.2415161-16.187561c13.236145-7.108429,24.80896,5.2584534,38.2047729-4.407074
		c-11.4855347-5.7848206-24.2646484,3.321167-35.2357788-8.5193176
		c15.1437988-15.6278992,27.7452393-0.1172485,42.2570801-7.9026184
		c-11.1906738-2.5239868-22.4144897-3.4054871-33.8428345-2.7886658c-6.1820068-4.2598267,0.5595093-7.4635315-2.848938-11.5458069
		c-4.1843872,4.6417847-5.0087891,11.1035767-12.1773071,10.3394775c-6.1970825-4.2868042,0.5894775-7.547699-2.7886353-11.6029358
		c-4.2598267,2.7917786-2.5872192,6.1399536-6.4647827,8.9887085
		c-18.067688-44.0950317,37.1188965-30.8736572,61.7655029-38.4846191
		c-18.5369873-1.6726074-41.1860352-6.2270813-54.8916016,1.176178c-6.0496826-6.7564392-0.4694214-12.6315613,1.4710083-18.7443237
		c17.4327393-4.8163757,34.2669678-2.6443787,51.5134277-5.2584534c-5.8480835-6.2873535-18.3926392,0.2948303-18.157959-9.0458679
		c-5.020752,7.2258606-9.0186768,2.1418457-13.6303711,4.5213928c-1.1461792-1.3206482-2.2923584-2.6713867-3.4354248-4.052124
		c-2.0576782,1.7027283-4.0551147,3.4354553-6.1277466,5.1983032c-4.9035034-0.9987793-6.6965332-3.1435852-6.8439331-8.1072083
		c-6.934021-4.5245056,0.911499,7.2859802-6.40448,8.9014282c-6.2270508-6.2000732,4.1723633-10.9862976-0.5565186-17.0689087
		c7.6077881-1.2033691,11.6329346,4.4943542,15.7000122-6.2872009c4.8493042,0.9986267,6.6693115,3.1134644,6.8770142,8.1373291
		c4.1994019-2.8489075,2.4968262-6.1399231,6.3743286-8.9285889c12.3670654,3.1707764,24.6466064,7.165741,37.2783203,6.8137512
		c-11.9277344-8.5194702-24.8241577-4.6116333-36.6616211-14.3644104c1.9674072-3.5858459,2.2892456-7.3460999,0.9386597-11.2238159
		c-5.3757324,3.967804-3.7302856,8.5193176-2.9090576,13.0166321c-10.4266357,6.1669617-8.1072388-9.7827759-17.0808105,0.4993896
		c-9.5482178-13.1340637,13.732666-16.8943176,19.9898682-13.5160217
		c19.3008423-4.4943542,36.9864502,9.8730469,56.0527954,8.3448792
		c-22.8837891-12.9265289-46.6821289-15.3060455-70.1525269-20.8291779
		c16.479248-14.219986,46.5618286-1.1761627,67.9204102,1.7027435
		c-16.6866455-12.1323242-34.4896851-10.0446625-51.3810425-19.2708893
		c-1.1160889-3.9078369,7.5506592-6.9611816,4.6989136-10.9861298c8.3147583-3.9378204,5.583252,3.0261688,6.8739014,8.1371918
		c5.6403809-3.3481598,1.2634888-7.4633789,8.4621582-10.6641235c13.6304932,2.1749573,26.9088135,9.5782166,40.6867676,10.8686981
		c-14.7765503-11.927597-30.7564087-9.2232666-45.5631104-20.681778
		c37.6031494-25.5580902,60.5170288,9.3136902,92.3323364,26.4125824
		c0.5896606-14.4848175-30.1126099-15.4834442-23.8253784-32.2003937
		c-15.2156372,8.6968689-28.4671631-6.0796661-42.4193115-12.8963928c4.4070435,0.264679,9.105957-3.8174133,13.9251709-8.3719025
		c8.7841187,8.4020386,26.2620239,7.2859802,28.4941406,21.2682953c9.1662598-3.230896,23.9428101,7.2589722,21.3587036,16.8943329
		c8.8411865-12.7218018,9.635376-19.5657043,21.2113037-28.5574036
		c-8.3450317-0.0871277-23.5036621-8.2816315-24.7941895-20.9163208
		C722.9052124,151.5288544,733.4820557,186.4607544,748.3458862,201.5019684z M640.2382812,461.1386108
		C640.00354,448.4195862,652.3132935,461.5205688,640.2382812,461.1386108L640.2382812,461.1386108z M587.1243286,439.8100281
		c-1.3536987,1.1461792-2.734436,2.2622375-4.1151733,3.4685669c-1.0709229-2.0576782-2.3643799-1.2634888-3.715332-0.3249817
		c-1.1731567-1.3807373-2.262085-2.7314758-3.4353027-4.0820923c2.0545654-1.0588989,1.2333374-2.4397888,0.2617188-3.760437
		c1.3535767-1.1160278,2.7043457-2.2922058,4.1152344-3.4654236c1.0258179,2.0846863,2.4216919,1.2634583,3.7753906,0.3218384
		c1.1430664,1.3807373,2.2592773,2.701355,3.4354858,4.1122437
		C585.3615112,437.1086731,586.1828613,438.4292908,587.1243286,439.8100281z M586.3604126,426.4743652
		c-8.1223145-0.4420776-11.2389526-4.085083-10.4447021-12.1321716c5.7276611-0.3249512,11.5907593-2.5872192,16.8190308,3.2307434
		C588.8873901,420.4218445,590.5296631,423.6827393,586.3604126,426.4743652z M564.6046143,182.7574768
		C560.1102295,172.7100067,573.713562,188.7801514,564.6046143,182.7574768L564.6046143,182.7574768z M570.4797363,226.6781006
		c1.1190186,1.3507538,2.3223267,2.6713715,3.4384155,4.052124c-1.350769,1.176178-2.7616577,2.3525085-4.0822754,3.4685516
		c-1.1460571-1.3507538-2.3223877-2.7314911-3.4683838-4.0251007
		C567.74823,228.9974976,569.1289673,227.8513031,570.4797363,226.6781006z M564.4873047,207.2899323
		c3.3511353,2.818634,1.05896,5.1110229,3.1436157,7.8725128c-1.3808594,1.1160431-2.7014771,2.2622375-4.052124,3.3782959
		c-3.3512573-2.7614746-1.0890503-5.0839996-3.1436157-7.8153534
		C561.7858276,209.6393127,563.1065674,208.4329987,564.4873047,207.2899323z M560.4622192,326.09198
		c-5.1681519-4.8493042-0.1744385-8.8442688,2.9691772-12.9866638
		C564.135376,317.5425415,565.8379517,322.1240234,560.4622192,326.09198z M555.5287476,200.9123077
		c-4.1725464-5.3757019-3.703125-10.3994446,1.2333374-15.041214
		C563.9578247,191.4844818,559.6709595,196.1834106,555.5287476,200.9123077z M550.5349731,355.527771
		c-1.6455688-2.0275574,1.1160889-3.7032776,2.319458-5.4931335
		C554.4396973,352.0621643,551.7081909,353.7048035,550.5349731,355.527771z M547.8606567,179.4664612
		c-1.2033691-5.1410065-2.262085-10.2821655,4.9937744-14.686264c4.4070435,3.495575,3.1435547,6.5489197,4.8191528,9.8400879
		C554.2351685,177.9984283,551.2689209,175.7663269,547.8606567,179.4664612z M547.3011475,302.2966003
		c8.2575684,6.2270813-3.0535278,14.9810791-8.7240601,14.4517212
		C539.4586182,311.2853088,538.7245483,301.5595398,547.3011475,302.2966003z M557.583313,384.4941406
		c3.6731567,13.0709839-5.9052124,20.2396851-7.8425293,3.1136169
		C552.5595703,384.259613,554.9119263,386.57901,557.583313,384.4941406z M554.7645264,372.8612061
		C564.2827759,366.2492065,562.6070557,386.4916992,554.7645264,372.8612061L554.7645264,372.8612061z M570.1578979,415.6928101
		c-2.0275879,1.7628479-4.0251465,3.4655762-6.0797119,5.1983032c-1.7358398-1.9975586-3.4384155-4.0822754-5.1411743-6.022522
		C563.0492554,410.6991882,566.7494507,410.9909058,570.1578979,415.6928101z M569.0717773,406.204834
		c-11.0161133-0.8815002-4.9064331-10.0205994-6.3173218-15.6610107
		C571.8605957,385.6975098,577.2964478,401.2983704,569.0717773,406.204834z M565.7507935,377.5301514
		c4.7890625-5.0810242,9.3435059-6.6663513,13.2783813-0.7642212
		C574.1828003,381.8499451,569.4239502,386.0796204,565.7507935,377.5301514z M579.6188354,183.9338074
		c5.3005981,6.1397858,2.4216309,11.545639,4.2446289,17.4207458
		C576.5623169,202.4406281,568.27771,187.5767975,579.6188354,183.9338074z M585.3013916,207.1425171
		c1.1761475,1.2634735,2.3225098,2.6140747,3.4384155,4.052124c-1.293457,1.1160583-2.6442261,2.2621002-4.0249634,3.3783112
		c-1.1763306-1.3206329-2.2923584-2.7015228-3.4535522-3.9949799
		C582.630127,209.4046173,583.9807739,208.2585754,585.3013916,207.1425171z M632.5400391,114.5423965
		c1.6455688,1.997406-1.1732178,3.6729736-2.3192749,5.4659729
		C628.6051636,117.9808197,631.3939819,116.3352356,632.5400391,114.5423965z M673.9636841,163.2821808
		c7.9599609-4.5546417,14.5719604,6.4917603,21.5932617,13.0708313c-4.9967041,2.7916107-4.1723633,5.9923706-6.4344482,8.991684
		c5.8447876,6.4015045,17.8899536,6.4616241,17.5982666,16.5393829
		c-14.7195435-8.3750153-38.4848022-18.2149506-46.3872681-34.0505371
		c8.8411255-0.1172791,17.2731934,4.701889,25.4406738,13.4259186
		C691.9411011,173.5643463,678.4279175,173.5342102,673.9636841,163.2821808z M682.2785645,107.2863922
		c-1.6755371-2.0545578-3.4384155-4.0820999-5.1411743-6.166954c2.0245972-1.7055511,4.0220337-3.4684067,6.0797119-5.1410065
		C682.6575928,99.6785736,688.9447632,103.9983521,682.2785645,107.2863922z M693.4692993,132.7272186
		c-1.3206177,1.1763306-2.7616577,2.2352295-4.0822754,3.4384155c-3.3482056-2.7916107-1.0588989-5.1410065-3.1737671-7.7853699
		C691.4417114,125.9136047,693.2345581,127.8808746,693.4692993,132.7272186z M687.5941772,88.7795792
		C686.008728,88.6321716,690.0036621,88.9841461,687.5941772,88.7795792L687.5941772,88.7795792z M697.3198242,108.4927063
		c-1.3537598,1.1160583-2.7043457,2.2321167-4.0551147,3.435463c-1.1762085-1.3807449-2.3223877-2.6713791-3.4956055-4.0822601
		c1.3807373-1.176178,2.7315063-2.2922363,4.1122437-3.4654465
		C694.9974365,105.7883759,696.173584,107.0818329,697.3198242,108.4927063z M702.3405762,93.7431946
		c3.4084473,5.2012863-1.4980469,9.2835464-6.4616699,8.9315643
		C692.4403687,97.4464645,697.3198242,93.3913727,702.3405762,93.7431946z M696.9648438,182.1709595
		c6.022522-6.1098175,14.9541016,2.6442108,14.4547119,8.723877
		C705.9835815,195.0673523,701.5794678,187.5466614,696.9648438,182.1709595z M662.4781494,141.5714874
		c-1.3235474,1.1160583-2.7043457,2.2923889-4.0249634,3.3783112c-1.0889893-1.997406-2.409668-1.2063141-3.7904053-0.2646942
		C650.460144,141.4542084,661.4494019,133.8432617,662.4781494,141.5714874z M659.9212646,126.205307
		C658.3629761,126.0610199,662.4481812,126.3828583,659.9212646,126.205307L659.9212646,126.205307z M664.6199951,115.249321
		c-6.3443604-5.5532608-5.9020996-10.5470123,1.2364502-15.0413742
		C672.2008057,105.7612076,671.758728,110.8121109,664.6199951,115.249321z M657.8365479,82.5796738
		c-2.2924194-2.7315063-4.5546265-5.4330215-6.9040527-8.137352c4.8162231-5.1681824,9.1060181-2.8187943,12.9837036,2.9390335
		C661.9186401,79.0840912,659.8911133,80.8168106,657.8365479,82.5796738z M658.6276245,95.8580322
		c-4.8161621,5.1713028-9.0488281,2.8217621-12.9837036-2.9660492
		C650.4902954,87.7508163,654.7199707,90.0430527,658.6276245,95.8580322z M646.465332,106.2304611
		c2.3222046,2.7015152,4.6116333,5.4330215,6.8737183,8.1073685
		C646.8774414,122.5623169,637.2990723,111.2543488,646.465332,106.2304611z M633.5689087,78.6749649
		c3.2307739-1.1763382,6.40448-0.9416275,9.2264404,2.6712189C637.2720337,89.0744095,633.21698,84.1078262,633.5689087,78.6749649z
		 M692.7351685,164.8373413c0.2045898-5.2282867,9.0789795-12.6918182,14.2201538-12.132309
		C709.3618774,156.4954376,698.8179932,173.6816254,692.7351685,164.8373413z M703.0175171,131.6412964
		c-1.1763306-1.3807373-2.319397-2.7315063-3.4656372-4.0822601c1.350769-1.176178,2.7015381-2.2922363,4.052124-3.4685669
		c1.1462402,1.3507614,2.3223877,2.7315063,3.4685669,4.0852356
		C705.6918335,129.3489075,704.368103,130.4379425,703.0175171,131.6412964z M705.5744019,76.9391174
		c-13.338623,4.9064636-21.5932617-16.449131-28.2324219-24.9112892
		C687.5941772,50.0002861,696.2007446,68.0376892,705.5744019,76.9391174z M677.8415527,69.0364685
		c1.0285645,1.9703979-0.3220215,3.7904053,1.4107056,5.8480911c-1.2936401,1.1160507-2.6741943,2.2922287-3.9949951,3.4353027
		c-1.7929688-2.0847015-3.4685669-4.1122437-5.2313843-6.1397934
		C672.8477783,68.8319016,675.1670532,71.1812897,677.8415527,69.0364685z M671.9662476,95.0669403
		c-1.7327271-2.087822-3.4955444-4.0552444-5.2012329-6.139946
		C670.1732788,80.9370575,680.3984375,93.0092545,671.9662476,95.0669403z M667.2371826,60.6374016
		c-4.8792725,5.1380424-9.0787964,2.8187904-13.0737915-2.9691734
		C659.039917,52.5272217,663.2694092,54.8194504,667.2371826,60.6374016z M638.6226196,39.3961182
		c4.5515137-0.851368,8.7542114,1.410881,12.7190552,6.7566109
		C645.9659424,48.1802711,637.8585815,47.0642166,638.6226196,39.3961182z M646.0831909,64.5722504
		c-5.4629517,5.1110229-10.1047363,0-14.7163696-4.9937515C637.5637207,51.263752,646.6126099,58.2549095,646.0831909,64.5722504z
		 M541.4260254,118.4500732c9.6655273-2.90905,20.0649414-13.9523315,11.4284058-23.6779556
		c18.7714844-22.7093201,34.7965088-87.4260178,78.7470703-84.3425369
		c-33.9902344,52.1151199-34.107666,106.9044342-26.4996948,162.3405609
		c-14.5991821-2.3493958-2.9662476,23.1184387,3.703125,24.8813019c-8.7540283,4.3197784-5.2886353,3.9979401-13.9553223,8.3750153
		c-4.3199463-13.043808-5.9923706-25.7356415-11.9849243-38.8395691c-3.9829102,5.4057007,2.3795166,11.5186157-6.979126,16.4521027
		c-12.8363037-2.7013702,4.6717529-20.0950928-9.4880981-23.4434204c-2.1749878,2.9391937-1.3807373,6.2000732-6.3443604,8.9315643
		c-6.4647827-4.8191681-0.9716187-21.8579407,6.3443604-8.9315643c2.4667969-2.9360657-1.4379272-6.4316406-1.0588989-9.5480652
		c-9.7225342-2.2894287-8.8111572-0.9987946-17.6824951,7.9929047
		c-3.7904053-11.6059265,14.7164307-21.4759979,17.7727661-32.5793915
		c-5.6404419,2.5539551-15.2487793,10.3994446-20.329834,17.2733307
		C535.520813,140.6901398,543.5407104,126.4129944,541.4260254,118.4500732z M604.4849854,180.2908173
		C606.9517822,180.5253754,602.8996582,180.230545,604.4849854,180.2908173L604.4849854,180.2908173z M539.3112183,144.7722473
		c1.6453857,1.9975586-1.1160889,3.6731262-2.319397,5.4661255
		C535.3461914,148.1806793,538.1080322,146.5953827,539.3112183,144.7722473z M535.902771,256.053772
		c-2.7614746,3.2910156-5.0808716,1.0287476-7.8424072,3.0864258c-0.96875-1.9674072,0.3518677-3.7604065-1.3808594-5.7578125
		C529.9405518,252.1490479,533.0541382,252.4137421,535.902771,256.053772z M517.4532471,180.7902069
		C512.9890137,170.7727203,526.649353,186.8127289,517.4532471,180.7902069L517.4532471,180.7902069z M520.0974731,241.4847717
		c-1.7327271-2.0275574-3.4655762-4.0852356-5.1983032-6.0827942
		C518.3345947,227.3820496,528.5296631,239.4572144,520.0974731,241.4847717z M514.7818604,259.9614258
		c1.2033691,1.350769,2.319397,2.7315063,3.4354858,4.0852356c-1.3206177,1.1160583-2.6444092,2.2622681-4.0221558,3.4354553
		c-1.1760254-1.3808899-2.2922363-2.7015076-3.4684143-4.0822449
		C512.0773926,262.2838135,513.4310913,261.1076355,514.7818604,259.9614258z M534.8168335,316.3963318
		c-20.3599243,9.4308167-47.2687683,23.9126587-72.7667542,33.7857056
		c7.9298401-7.4635315,24.8211975-30.7022095,38.0124207-25.2362366
		C508.0524292,313.6347046,524.0652466,296.7133484,534.8168335,316.3963318z M531.2911377,452.3274231
		c-1.6454468-2.0576782,1.1461792-3.7604065,2.2923584-5.5532532
		C535.2289429,448.8287354,532.4674683,450.5044556,531.2911377,452.3274231z M523.8306885,427.0911865
		c-1.1763306-3.230896-0.8814697-6.3745117,2.6713867-9.253418
		C527.7354126,421.125824,527.4736938,424.2422485,523.8306885,427.0911865z M517.0740967,464.3423157
		c-1.1190186-2.0576782-2.4396362-1.2333374-3.7904053-0.2948303c-4.1723633-3.3180237,6.7265015-10.8387146,7.8425293-3.1435852
		C519.805603,462.0199585,518.4248657,463.2262573,517.0740967,464.3423157z M516.4544678,471.8328552
		C518.9242554,472.0374451,514.8691406,471.7457275,516.4544678,471.8328552L516.4544678,471.8328552z M509.1986389,422.1545715
		c1.3235779-1.2033386,2.6741943-2.3493652,3.9947815-3.5256958c3.3812866,2.7915955,1.059082,5.1712952,3.1737671,7.8454895
		c-1.3807373,1.1461792-2.7315063,2.319397-4.052124,3.4354553
		C508.9067688,427.1483154,511.2561646,424.8590698,509.1986389,422.1545715z M509.6708374,439.1661987
		C512.2850952,428.4118042,510.5523682,450.1524658,509.6708374,439.1661987L509.6708374,439.1661987z M507.2010803,399.2708435
		c-1.5553284-2.02771,1.2062988-3.6731262,2.3525085-5.4931641
		C511.1688538,395.8052368,508.4343872,397.4778442,507.2010803,399.2708435z M511.1087341,374.9760437
		C513.5485229,375.2107544,509.5535889,374.9159241,511.1087341,374.9760437L511.1087341,374.9760437z M516.2799072,451.0036926
		C511.7557068,441.0734863,525.4160156,457.0864868,516.2799072,451.0036926L516.2799072,451.0036926z M500.0924683,440.2522583
		C502.5322876,440.4868164,498.5071716,440.164978,500.0924683,440.2522583L500.0924683,440.2522583z M493.0110779,411.3458557
		c-1.6424866-2.0003967,1.1763306-3.6430054,2.352478-5.4659729
		C497.0090027,407.84729,494.2476807,409.5228577,493.0110779,411.3458557z M491.7777405,426.4142456
		c-1.2033691-3.2880554-0.9386597-6.4316711,2.6441956-9.3105774
		C495.6854248,420.3917236,495.3937073,423.5083008,491.7777405,426.4142456z M498.2996521,392.8662109
		c1.5882568,2.0275269-1.1462097,3.7001343-2.3495483,5.492981
		C494.3348083,396.3316345,497.1264343,394.6290588,498.2996521,392.8662109z M428.7336426,434.4944458
		c3.2338562-1.2936096,6.4046326-0.9987793,9.2533875,2.6441956
		C432.4369202,444.8638916,428.3244934,439.9002686,428.7336426,434.4944458z M429.2631531,451.5030823
		C424.7687988,441.4855957,438.4292908,457.5256042,429.2631531,451.5030823L429.2631531,451.5030823z M437.7826233,416.2493286
		c1.558136,3.3512878-0.9116211,6.2572327,1.1159058,9.6083679
		C429.2631531,431.7028198,427.2356262,414.0473633,437.7826233,416.2493286z M434.6088867,408.4669189
		C431.8472595,399.2105713,446.4793396,412.0799561,434.6088867,408.4669189L434.6088867,408.4669189z M410.960907,211.7842865
		c3.3783264-2.4969482,6.8168945-6.2301941,9.4881287-1.1162109c0.9414673-3.6729736,3.2338562-7.2859802,8.5194702-10.6371155
		c2.379364,5.2314301,1.2362976,10.1649017,2.4696045,15.3360443c2.7315063-2.3192444,5.4630127-4.6116333,8.1373596-6.9038696
		c8.4020386,5.0237427-3.3211365,19.0963135-8.1373596,6.9038696c-4.7891846,5.1110229-8.2546082-6.4917603-13.221344,0.821228
		c20.2125244,11.7533264-2.6712341,22.9170074-13.6303406,4.5546417c3.4384155-3.7302856,6.4046326-1.5283051,9.8129272-4.8764801
		C413.2832947,214.5457764,412.1071167,213.1920471,410.960907,211.7842865z M414.2219543,195.0372162
		c4.963623-7.1957245,8.9885559-2.1448212,13.6033325-4.524353
		C430.2920837,195.2719116,416.6615906,206.2610168,414.2219543,195.0372162z M448.3596191,194.0385895
		c4.4642334,4.8191681,8.6066284,9.5782166,8.3117981,13.9251556c-6.5490723,2.908905-12.5714417-0.4993896-18.2120056-9.0488434
		C441.9549866,195.5667419,444.8638916,197.7687073,448.3596191,194.0385895z M446.5967712,192.0108795
		C449.0635986,192.2485504,445.0384827,191.8936157,446.5967712,192.0108795L446.5967712,192.0108795z M441.7774353,437.4034729
		c4.7893677-5.1141357,9.3136902-6.6393127,13.2513428-0.7941895
		C454.6166992,443.835144,446.2718201,446.0702209,441.7774353,437.4034729z M450.4141846,447.5683899
		C451.1211243,458.1723938,436.079895,447.3908386,450.4141846,447.5683899L450.4141846,447.5683899z M446.0672302,430.2046509
		c-11.0162659-11.5757751,9.900238-21.1510315,9.8700867-4.846344
		C452.5018616,428.7066345,449.5628357,426.5044861,446.0672302,430.2046509z M451.8552246,243.5393219
		c-2.7044983,2.2923889-5.4058533,4.5245056-8.1073914,6.8167267c-4.4973145-3.4654388-3.2037048-6.4917603-4.9064636-9.812912
		C443.3057556,239.8092041,447.8872681,238.1937561,451.8552246,243.5393219z M434.0223694,230.7302246
		c2.6741943-2.3194122,5.3755493-4.6388092,8.0800476-6.9611816c2.9059143,3.4385834,5.7848511,6.7867432,8.6367493,10.1649017
		C444.7466125,238.3983154,439.1062317,237.7814941,434.0223694,230.7302246z M458.5515442,230.7903442
		c4.9665833-0.7339478,9.3136902,1.4410095,8.9615479,6.3744812
		C462.3419495,240.6304321,458.1995544,235.7840881,458.5515442,230.7903442z M466.7791443,269.3051147
		C462.28479,259.2876282,475.945282,275.3276062,466.7791443,269.3051147L466.7791443,269.3051147z M459.0810852,247.8892365
		c8.2274475,6.4316559-3.1437683,16.0671844-8.167511,6.9040222
		C456.6142578,250.2387848,452.1500244,247.9164124,459.0810852,247.8892365z M446.1273499,360.226532
		c-1.7055359-2.6140747,2.2021484-4.8763123,4.3469543-7.1957092
		C452.2071838,355.7022095,448.2693787,357.9072876,446.1273499,360.226532z M440.7788086,263.3697205
		C436.3716125,253.3222656,449.9749146,269.4223938,440.7788086,263.3697205L440.7788086,263.3697205z M444.7466125,284.4937439
		c1.615448,2.0245667-1.1190186,3.670166-2.3525085,5.4629822
		C440.7788086,287.9893188,443.5103149,286.2835999,444.7466125,284.4937439z M447.6255493,411.433136
		c-4.6417847-6.2270813,5.4931335-13.1311035,9.8700562-4.9365845
		C453.9698792,411.0210266,450.9135742,409.7274475,447.6255493,411.433136z M449.2108459,392.6315002
		c3.230896-1.2063293,6.3445129-0.9414673,9.2234192,2.6443787
		C452.8238525,403.0310974,448.7687683,398.0945129,449.2108459,392.6315002z M457.0263672,319.5700684
		c-1.7055664-2.9963379,2.2622375-5.4931335,4.052124-3.495575
		C462.6939392,319.7746582,459.1112061,317.4251099,457.0263672,319.5700684z M460.4046631,278.206543
		c4.0820923-4.1122437,7.8724976-3.7904053,11.2809448,0.9085083
		C467.5702515,283.2874146,463.782959,282.9655762,460.4046631,278.206543z M469.011261,288.3714294
		c1.176178,1.350769,2.2922363,2.701355,3.4654541,4.0820923c-1.3506165,1.1162415-2.7013855,2.3225403-4.0821228,3.4385986
		c-1.1763306-1.3808899-2.3223572-2.7044983-3.4384155-4.025116
		C466.309906,290.6607056,467.6305237,289.5144958,469.011261,288.3714294z M469.71521,256.2914429
		c-3.405304-5.2314301,1.4980164-9.2835541,6.40448-8.9014435
		C479.3505859,254.7932587,475.033783,252.2663269,469.71521,256.2914429z M457.7904358,217.481842
		c4.6687927-3.4082794,8.6637573,1.4108887,12.7188416,6.7566071
		C461.5778809,233.1698608,456.3795471,224.2985687,457.7904358,217.481842z M450.9437256,184.8151703
		c4.0249329-2.5569305,7.63797-0.4692535,11.0161133,4.6417694
		C457.5527649,196.7429199,454.4692688,188.0159149,450.9437256,184.8151703z M433.3753967,238.1937561
		c4.142395,4.7288971,1.5884399,8.9314117,8.3449097,13.9251556c-8.9012756,8.0500641-15.7181702-8.6667175-23.9425049-7.6078186
		C418.5417175,234.4333344,427.6477356,240.5130005,433.3753967,238.1937561z M443.9224243,271.2424011
		c-3.1737366-0.0571594-6.4347839,1.6755676-9.8399353,4.8191528c-4.4373474-3.4684143-3.1437683-6.5518799-4.8764648-9.8428955
		C434.1394958,267.2775574,439.310791,266.1914978,443.9224243,271.2424011z M438.3120117,363.3703003
		C440.7486877,363.6048584,436.7537231,363.28302,438.3120117,363.3703003L438.3120117,363.3703003z M437.5779114,395.4804382
		C433.1107178,385.4629517,446.7712097,401.5329285,437.5779114,395.4804382L437.5779114,395.4804382z M440.5742493,312.5186462
		C436.079895,302.4711914,449.6802673,318.5411682,440.5742493,312.5186462L440.5742493,312.5186462z M451.1482849,460.8739014
		c-3.2880554,1.558136-6.2272339-0.8815002-9.5182495,1.0888977
		C438.1947327,456.2321472,449.3582458,455.1762085,451.1482849,460.8739014z M452.2943115,470.4219971
		c4.232666-6.2270813,7.5206909,0.5295105,11.5757751-2.8487854
		C466.8091431,473.6258545,454.5565796,477.3561401,452.2943115,470.4219971
		c-4.1423645,4.1123962-7.8724976,3.7904053-11.2507935-0.911499
		C444.7466125,470.0098877,449.0334473,463.7828064,452.2943115,470.4219971z M462.4020691,461.7854004
		C459.6977234,452.5619812,474.239563,465.4284058,462.4020691,461.7854004L462.4020691,461.7854004z M463.1060181,454.2647095
		c-1.2033386-1.350769-2.3493652-2.6743469-3.5257263-4.0550842c1.323761-1.143219,2.7044983-2.319397,4.0552673-3.495575
		c1.1731873,1.3807373,2.3192444,2.7043152,3.495575,4.085083
		C465.7202454,451.9724731,464.3996277,453.1185303,463.1060181,454.2647095z M460.2572327,442.749054
		c-2.5870361-4.0249329-0.4422302-7.6980896,4.6116638-11.0763855c1.7027283,2.0878296,3.4384155,4.0852356,5.2012634,6.1399536
		C466.5143127,442.3099365,463.4881287,441.0163269,460.2572327,442.749054z M463.4881287,425.9449768
		C465.9277954,426.1495361,461.9026794,425.8276978,463.4881287,425.9449768L463.4881287,425.9449768z M469.5406494,420.7738342
		C472.1849976,410.0823669,470.4221497,431.7629395,469.5406494,420.7738342L469.5406494,420.7738342z M469.3632507,399.9446411
		c-1.1462097-1.3206177-2.319397-2.7015076-3.4656067-4.052124c2.054718-1.7326965,4.0822754-3.4384155,6.1098022-5.1411438
		c1.1462097,1.3206177,2.3223877,2.701355,3.4385986,4.025116
		C473.4484558,396.5393372,471.420929,398.2720642,469.3632507,399.9446411z M470.9215393,381.1731567
		c1.615448,2.0275269-1.1763306,3.6729736-2.3525085,5.492981
		C466.9535828,384.641571,469.6880493,382.9961243,470.9215393,381.1731567z M469.4805298,375.3851929
		C467.8952026,375.2679138,471.920166,375.5627441,469.4805298,375.3851929L469.4805298,375.3851929z M479.9100952,432.9662781
		c1.1462097,1.3506165,2.2622681,2.7315063,3.4656067,4.0550842c-2.054718,1.7327271-4.0822754,3.4082947-6.1098022,5.228302
		c-1.1160583-1.3807373-2.2922363-2.791626-3.4654541-4.0820923
		C475.855011,436.3745728,477.8827209,434.6688538,479.9100952,432.9662781z M478.264679,406.3792725
		C492.4846497,398.9188538,479.0888672,422.2146912,478.264679,406.3792725L478.264679,406.3792725z M482.6717529,399.1835327
		C481.1134338,399.0361328,485.1113892,399.3881226,482.6717529,399.1835327L482.6717529,399.1835327z M478.7640686,423.4180603
		c0.0871277-0.6166687,1.0287476-7.4604187,4.3769226-7.2258606
		C488.8416748,416.6915894,477.8254089,435.3457947,478.7640686,423.4180603z M478.6767578,262.6659241
		c-1.6755676-2.02771,1.1160583-3.6429749,2.3194275-5.4661255
		C482.6717529,259.2574768,479.8499756,260.9030762,478.6767578,262.6659241z M482.2324829,242.1887207
		C477.7351379,232.1712341,491.3956299,248.2112427,482.2324829,242.1887207L482.2324829,242.1887207z M486.4320068,214.1336823
		C481.9376526,204.1161957,495.5681458,220.1863251,486.4320068,214.1336823L486.4320068,214.1336823z M496.302063,254.6728668
		c5.6104431,2.8789215-3.4353027,11.046402-6.0796509,5.1713104
		C488.8717957,256.8178406,494.2476807,253.6470642,496.302063,254.6728668z M504.0574646,206.1707458
		C499.62323,196.1262512,513.2537231,212.1932678,504.0574646,206.1707458L504.0574646,206.1707458z M494.7739258,228.088974
		c5.1411438-3.4082794,9.2263794,1.4680328,8.9014282,6.3744965
		C498.447052,237.9590454,494.3647766,233.0224457,494.7739258,228.088974z M485.9326172,197.1250305
		C496.3623657,190.5128632,494.6566467,210.8125305,485.9326172,197.1250305L485.9326172,197.1250305z M488.0174561,170.8298798
		c-4.1423645,4.1152191-7.8726501,3.8203888-11.2208252-0.9686432
		C480.9088745,165.7488403,484.6691589,166.0136871,488.0174561,170.8298798z M478.4721985,241.8667297
		c-1.3807373,1.1732025-2.7044678,2.319397-4.0550842,3.4354553c-1.1462097-1.2904816-2.3223572-2.6713867-3.4656067-4.0249481
		c1.3777771-1.1461945,2.7015381-2.2894287,4.052124-3.4957428
		C476.1799622,239.1923828,477.2960205,240.5431366,478.4721985,241.8667297z M469.6580811,210.9027863
		C467.9523621,198.6802063,478.3247986,215.1023254,469.6580811,210.9027863L469.6580811,210.9027863z M466.7791443,199.3270111
		c-2.2923889-2.1749573,0.1744385-1.997406,0.3519897-3.7602692
		C468.5420227,177.793869,475.7978516,207.5816345,466.7791443,199.3270111z M456.5541382,162.5751038
		c3.9076843-1.4980164,7.7280579-1.3506012,11.6358948-2.8186493c1.9372864,10.9861298-9.725769,9.1661224-11.1366577,19.887558
		c-2.436676-0.9987793-4.8461914-2.1148376-7.4905396-0.6166534
		C445.9801025,169.1271362,461.5207214,172.5354309,456.5541382,162.5751038z M438.399292,153.5563965
		c4.3499146,0.9987793,8.5794373,3.2038727,12.9865112,2.9090576c2.9060974,6.0796661-9.196106,8.3718872-11.8704529,6.6090393
		c-3.7874451,8.5795898,0.5293884,17.6855774-5.8451233,25.9703369c-4.407074-8.2246399-10.4867249,4.4642334-14.7463989-4.9365845
		c0.4091492-4.8763275,5.228302-8.9887238,10.1349182-8.6637573c-1.1463318-1.3235931-2.3225098-2.6743469-3.4687195-4.025116
		C428.9984741,165.3968658,430.4093628,159.2269287,438.399292,153.5563965z M215.1596222,108.8748245
		c-8.6668701,6.04953-16.3921204-0.2948227-24.5895996-0.1174316
		C192.1854706,98.2105408,208.6377258,102.5574875,215.1596222,108.8748245z M177.9083252,102.0882339
		c-7.403244,5.4628448-14.0124512,1.4378967-20.5042114-3.5858383
		C164.7472534,93.0092545,171.4165649,97.0343628,177.9083252,102.0882339z M148.1205597,95.8881683
		c-6.1397858,6.1127777-11.810318,5.8480911-17.0086365,0.4993896
		C136.7523193,96.7996597,143.2142639,87.1341553,148.1205597,95.8881683z M143.1841278,110.5774078
		c-5.6677246,7.550827-10.4868927,4.9937515-15.6280594,6.2873611
		C125.7362137,110.9595261,139.9832153,101.5587082,143.1841278,110.5774078z M100.1479797,105.1715546
		c3.9648361,5.2885818-6.4046326,6.4046326-8.137352,6.9040222
		C88.0156631,106.7599869,98.3549881,105.6409683,100.1479797,105.1715546z M102.9396057,116.7473373
		c4.434082,11.7202225-13.8078918,13.5432053-19.9778137,13.4830856
		C78.5245819,119.1840134,96.7095566,117.3038788,102.9396057,116.7473373z M83.0490799,105.6709518
		c-6.4318008,2.087822-13.4259262,10.3123093-19.0664787,2.2321091
		C70.5046616,105.4062653,77.2039642,99.7658615,83.0490799,105.6709518z M76.0577698,122.153183
		c-1.3506088,1.1160583-2.7614899,2.2622528-4.0550919,3.3783035c-1.1461945-1.3235855-2.2892685-2.6743469-3.4354553-4.0251083
		c1.3206177-1.1460342,2.6713791-2.2922287,4.0521164-3.4654388
		C73.795517,119.4216843,74.9417114,120.7724457,76.0577698,122.153183z M79.2315063,129.9385529
		c4.6116333,6.0496979-5.3185577,10.8990021-10.7815628,16.1272888c-1.7327194-1.997406-3.4384232-4.0251007-5.2012825-6.1098022
		C63.835186,132.4625244,73.4436951,132.3752289,79.2315063,129.9385529z M61.8107643,204.1733398
		c-1.0289192-1.9975586,0.3218422-3.7874298-1.4108772-5.8149719c1.3507576-1.1461945,2.7013626-2.3223724,4.0820999-3.4384308
		C69.123764,198.4456635,64.8069534,201.2372742,61.8107643,204.1733398z M61.6030769,183.3171539
		c-0.9986267-1.9703979,0.3249626-3.7032776-1.3807411-5.7578278c1.9703903-1.0289307,3.7332497,0.3218384,5.7879639-1.4108887
		c0.9686432,1.997406-0.2948227,3.7302856,1.4107285,5.7578278
		C65.3934784,182.904892,63.6908989,181.6414185,61.6030769,183.3171539z M66.2749863,172.3881683
		c-4.4372063-3.5558472-3.1136169-6.6091919-4.8463364-9.870224
		C64.481987,158.8148346,74.7071609,170.8298798,66.2749863,172.3881683z M77.6732101,218.6881561
		c-1.0287628-1.9703979,0.2948303-3.8205414-1.4378891-5.7878113c1.9674225-1.0289154,3.7602615,0.2917023,5.7848434-1.4108734
		c1.0289154,1.9101105-0.321846,3.7301178,1.3807373,5.7576599
		C81.4636154,218.2459259,79.7007599,216.925293,77.6732101,218.6881561z M79.1713867,199.8865204
		c-8.4020386-6.9641418-7.8726654-13.2783661,1.5582886-18.7443237
		C84.8117828,187.7242126,84.3125458,194.0385895,79.1713867,199.8865204z M79.8783112,167.8335419
		c-1.6455841-2.6712341,1.3206177-4.9334869,4.4040985-7.1957245c-6.7566071-5.0838623-4.7590485-2.7344666-8.6066055-10.1948853
		c7.7250977-5.0538635,10.6942749-10.4597168,14.4817047-15.8054504c7.4333954,1.2333374,14.6892395,5.0840149,22.5348892,1.8229828
		c-1.7057037-2.0275421-3.4685593-4.0852356-5.1712952-6.1127777c4.4373627-12.3970032,22.0926514-15.8052902,30.6994019-5.0509033
		c-2.9090424,12.8062897-17.6555939,10.4266205-25.5281067,11.163681c1.7327271,2.054718,3.4654465,4.052124,5.1981659,6.0496826
		c-11.3982315,8.4621582-22.7964554,16.5693665-33.6081543,18.1276703
		C91.3939667,166.1609344,82.8744965,167.4515686,79.8783112,167.8335419z M88.5150528,177.9984283
		c3.5527344-2.9088898,3.9648285-5.9923706,2.6140671-9.2833862c5.8751068-1.9674225,11.4555359-1.1160583,16.4792709,7.0512848
		C100.8819199,180.8201904,94.2998962,184.5806122,88.5150528,177.9984283z M94.1254654,225.6793213
		c-1.5582886-3.2608795,0.7940598-6.2570648-1.1763306-9.5180969
		C98.7370987,212.6656494,99.7960052,223.8864746,94.1254654,225.6793213z M90.7771454,197.0347748
		c7.5206833-3.9649811,7.2258606,3.2037201,10.6343002,8.4621582
		C92.5971527,213.5170135,90.0702209,202.8225861,90.7771454,197.0347748z M104.0255203,196.2707062
		c1.3507614-1.2033539,2.7015228-2.3194122,4.0822601-3.4656067c1.1160583,1.9975586,2.4396439,1.2033539,3.7604218,0.3218384
		c1.1460419,1.2634735,2.352356,2.6443634,3.4382706,4.0552521c-2.0275421,1.0859222-1.2333298,2.4095001-0.2948227,3.7602692
		c-1.3206253,1.085907-2.6712265,2.2922211-4.052124,3.4655914c-1.1190262-2.0848541-2.4095078-1.260498-3.7602692-0.3519745
		c-1.1190186-1.350769-2.3223648-2.7015228-3.4384232-4.052124
		C105.7883759,198.8577576,104.96418,197.5942841,104.0255203,196.2707062z M113.9828873,236.812851
		c-10.8387146-0.9686432-1.4378967-9.812912-10.0445023-15.9828491
		C110.1654663,215.7189789,124.3253326,232.0538025,113.9828873,236.812851z M129.9056091,226.7082367
		c6.4346161,5.5802765,3.8505249,10.3994446,6.317337,15.6278992
		C127.0868149,247.2124481,121.7111053,231.584549,129.9056091,226.7082367z M128.2030334,224.7106781
		c-13.8078918-12.2525635,0.6767731-14.8066711-1.9675903-22.8567352c4.025116-2.5269318,7.63797-0.4692535,10.9862823,4.6989288
		C121.1214523,210.9027863,137.4864197,216.0138092,128.2030334,224.7106781z M152.1456757,232.3186493
		c-1.1461945-1.3808899-2.2923889-2.704483-3.4084473-4.0852203c1.2936096-1.1432343,2.6743469-2.2622528,4.0550842-3.4656067
		c1.1162109,1.3807373,2.2923889,2.7616425,3.4084473,4.1122437
		C154.8470306,229.9961243,153.4962769,231.1123352,152.1456757,232.3186493z M171.1247101,254.6157074
		c-7.5206909,8.1073761-11.2809601-7.3731079-8.6095734-10.1046143
		C165.0420685,240.7778473,175.2069702,252.7657166,171.1247101,254.6157074z M172.3580322,239.6046295
		c-13.7507324-2.9691772-10.7815552-17.6284332-11.1335297-25.4709473c3.2308807-1.5281525,6.1970978,0.8813477,9.5180817-1.1160583
		C180.1434021,222.6230011,177.5262146,231.2296143,172.3580322,239.6046295z M191.0122681,265.7192688
		c-7.4635468-1.1732178-12.0148926-13.5702209-2.2051086-19.1234741
		C196.0661316,253.5298004,197.3567657,259.9344177,191.0122681,265.7192688z M201.968399,270.4211731
		C201.7638397,257.6420288,214.0735626,270.7130127,201.968399,270.4211731L201.968399,270.4211731z M206.6703033,259.4319153
		c-1.615448-1.997406,1.1160583-3.7001495,2.319397-5.4328613
		C210.6351318,255.9664764,207.8734894,257.6420288,206.6703033,259.4319153z M226.8826599,266.7480469
		c-1.1160583-1.3206482-2.2922363-2.7315063-3.495575-4.0551147c1.3808899-1.1731873,2.7315063-2.2892456,4.0822601-3.4354553
		c1.1461945,1.350769,2.319397,2.6743469,3.4384308,4.0822754
		C229.5841827,264.4286194,228.2032776,265.6019897,226.8826599,266.7480469z M250.5306396,278.1464233
		c-10.5470123-9.0488586-5.3457336-16.8042297,3.8777008-24.3247681
		C258.7852783,262.4312134,254.351181,270.2737427,250.5306396,278.1464233z M262.0762634,275.2674866
		c7.9599609-5.2584229,7.1957397,5.1110535,14.099762,12.5142822
		C263.5143433,291.8971558,269.1848755,284.1689148,262.0762634,275.2674866z M292.3062744,298.5633545
		c-8.1974792-9.5180969-5.1711426-18.094574-5.3486938-26.8787231c5.7308044-8.1974792,9.6083679,5.5501404,14.4546814,8.723877
		C291.0126648,285.8143616,298.3859558,292.7755432,292.3062744,298.5633545z M301.9989624,272.88797
		c-2.2894287-2.7015076-4.6417847-5.4058533-6.9040222-8.1373291c3.4082947-2.9090576,6.7865906-5.757843,10.1648865-8.6367493
		C305.6147766,261.8145447,307.8168945,267.6595154,301.9989624,272.88797z M322.7408447,297.2728577
		C319.9492188,287.9893188,334.4910583,300.8557434,322.7408447,297.2728577L322.7408447,297.2728577z M321.2998352,291.4549255
		c-1.7327271-2.0275574-3.4654541-4.0552673-5.1983337-6.0796814c4.1124268-4.1153564,7.8726807-3.8506775,11.3110962,0.9385071
		C325.3549194,287.9893188,323.2973938,289.7793579,321.2998352,291.4549255z M312.9880371,277.5898743
		c-7.7853699-18.5970764,1.5553284-33.1089172,24.4420471-45.271225
		c0.0301514,11.3381042-3.9949646,22.3271942-6.5219116,33.4607391
		C321.8894653,264.1940918,319.4498291,269.9217834,312.9880371,277.5898743z M335.0777283,307.7595825
		c3.9979553-2.6142273,7.6108093-0.4422302,10.9589539,4.6417847
		C342.0417175,314.9584351,338.4590149,312.8134766,335.0777283,307.7595825z M343.0404968,280.0265503
		c7.755249,6.0826416-3.7602539,9.7827759-5.8179321,1.3807373c0.7069092-0.5565491,1.3235779-1.1461792,2.0576782-1.7327271
		c-7.6079712-7.5206909-1.9403992-14.0124512,7.2859802-20.182373
		C354.0869141,267.0428467,352.0292358,273.799469,343.0404968,280.0265503z M341.1302185,257.1727905
		c-2.7314758-18.4225006,1.6755676-30.9067993,18.6542358-43.8904877
		c-26.9389954,12.8662567-51.6155701,33.4908752-73.9127808,48.8239594
		c-8.167511-5.6404114,5.7276917-11.0462494,8.4020386-10.6942749c-6.8737488-4.3469391-7.1085815-4.6687775-10.339325-12.1323242
		c-8.2847595,10.0174866,2.4666443,21.6234131-11.9880371,31.1986389
		c-10.3994446-8.4291992-9.2232666-15.9227142-9.4579773-23.5005493
		c20.1222534-12.1051483,35.8404236-24.7668457,62.4274292-45.9480133
		c-29.6433105,20.2425079-62.7823792,34.2850952-82.0832367,55.6708221
		c-3.9949799-7.2559967-4.3469543-14.1900024,3.5255585-20.5043793c2.4969482,2.7315063,2.8518982,5.3155975,3.1437531,7.8155212
		c5.9653625-8.3448944-11.3983765-18.5669403-9.1361389-27.2036743
		c-10.2220459,12.3970032,1.4410248,26.6140289-8.8413086,39.0110321c-2.2922211-2.2892609-4.6717529-4.3769379-7.4633789-0.6166687
		c-3.9949646-19.4183044-2.0547028-28.9665375-3.8475494-45.710495c-8.1674957,5.0238953,1.0859222,11.4283752-7.0514374,16.4221191
		c-7.8425293-3.7302856-10.8387146-8.5494537-9.9873505-15.8925781c-5.6104126,3.2608643-1.2935944,7.4302673-8.5193024,10.6040039
		c3.1134644,3.4084473,2.9088898,6.5821838,1.1460419,9.548233c6.4316406,0.9386597,5.2584381-6.8738861,13.6003418-4.5243378
		c7.0512848,8.723877,1.4108887,16.5092468,3.6729736,24.8842621c-7.3731079,4.4943695-17.745697-4.4673462-14.129715-12.517395
		c-8.1101837-4.9937592-7.3161316,7.3460999-13.6033325,4.5244904c-1.2935944-7.9899292,4.3770905-9.6656494-0.1744232-20.7991943
		c1.9975586-1.7025909,3.7602692-0.3519745,5.7848511-1.4378967c-9.5752563-7.0512848-3.7602692-12.8392487-5.9925385-19.361145
		c-5.5231323,4.6717529-2.2321167,16.6266785-12.2194519,10.3694611
		c-3.703125-16.3046875,16.3919678-12.0450287,24.9985809-28.2024689
		c-9.6655121,2.6443787-19.887558,11.8977814-29.817749,18.3925171c-6.8167419-1.2063141-2.0576935-2.791626-6.9611816-8.1373596
		c3.0233612,4.1695557-11.8976135,16.391983-4.9064636,14.7164154c3.3180389,7.3732758-7.6109467,4.319931-10.1950226,8.5795898
		c0.4993896-9.4008179-3.7602692-19.2438812-3.3180389-28.5844269
		c14.1868896-12.3970032,29.4929504-20.7418823,48.4420013-37.6935272
		c-25.0588684,5.7879639-52.7919159,44.744812-76.4698715,33.5210114c-2.4969559,2.2923889-0.6168213,4.9365997-4.3469467,7.1687164
		c-7.9028015-10.2521973,4.4070663-7.0814209,6.9911575-16.4521027c2.3493805,2.1146851,4.5243454,6.0826416,7.2258606,4.3769226
		c0.4420853-19.0061951,26.4394455-22.9138794,42.9819565-39.9826355
		c-21.1240082,3.5556946-44.8622437,39.4832458-64.6625061,26.8816833
		c-0.1172791-14.1898499,23.9426422-25.7055054,33.9601288-21.8278198
		c2.587204-12.0150452,16.8042297-22.7664642,28.1151581-20.4170761c-1.4980164-2.587059-0.4120941-5.023735,0.6468048-7.4635391
		c-6.8437347-1.4680328-14.4546814,7.2288361-20.8591614,0.1775513
		c15.6578827-17.6554413,24.2676086-5.2885742,34.1376801-1.0289154c-4.8764801,4.524498-3.0564575,9.1662674-10.1349182,8.6668777
		c6.8167419,4.4070663,8.5496063,4.7891922,6.579071,11.867485c3.0564575,0.707077,8.4020233-9.4006653,15.631012-6.3142242
		c0.5865326-7.6379547-4.2897949-3.3211517-9.2263947-2.6142273c-6.8738708-22.2700424,36.4870758-17.510994,32.0529938,0.7039566
		c4.2296753-4.6417694,5.0237274-11.1065216,12.2194519-10.3424454c-1.1732025-1.3807449-2.2922363-2.7314987-3.495575-4.0821075
		c2.7314911-2.2923813,5.4359894-4.5816498,8.1073608-6.843895c-8.1674805-7.3762436-17.4479065-1.7055511-25.6453857-9.695488
		c63.1612244,5.6975479,125.2938232,24.9414215,187.7512512,39.8653717
		c-0.3519897,10.2220459-15.0413818,0.1172638-21.1510315,3.9949646c9.4307861,8.4621582,19.652832,6.6090393,30.0526123,2.409668
		c-2.2925415-2.2322693,1.8799744-3.7604218,0,0c6.9909973,7.403244,15.0713501,0.4692535,21.9149475,9.3405304
		c-13.3656616,5.2584381,0.9114685,18.4496613-12.7791443,17.8931274c3.1437683,3.4053192,4.9066162,6.7264709,4.846344,9.8700714
		c-3.405304,3.1136169-6.6963196,4.9064484-9.8099365,4.8161926c7.7252502,7.6109467,2.3795166,14.1027222,3.9649658,21.1811676
		c-18.7415161,10.6944275-20.3297729,14.4546814-42.3623047,32.4350891c-2.4967957-2.704483-2.8487854-5.2885742-3.1737366-7.815506
		C358.7285156,242.3932953,348.6207886,249.7965393,341.1302185,257.1727905z M357.4049377,288.7533875
		C352.9707031,278.7359009,366.5710449,294.7459106,357.4049377,288.7533875L357.4049377,288.7533875z M362.4588013,319.3925171
		C360.9306641,319.2451172,364.9857483,319.5700684,362.4588013,319.3925171L362.4588013,319.3925171z M360.8433533,292.8055115
		c4.4642334,3.5257263,3.2007751,6.5520325,4.9064636,9.8129272
		C359.8146057,304.1767273,352.5587463,298.4460754,360.8433533,292.8055115z M367.2479858,283.874115
		c-1.0860596-1.4079285-2.2622375-2.6713867-3.4384155-4.0822754c1.3505859-1.176178,2.7043152-2.2922363,4.0852356-3.4654236
		c1.1731873,1.4077454,2.2892456,2.7314758,3.4354553,4.052124
		C369.9493408,281.5546875,368.6287231,282.7008972,367.2479858,283.874115z M372.8883972,261.6671448
		c-0.2345581,4.9937439-7.1385803,9.4278259-12.5444336,14.0426025
		c-5.5231323-15.5407715,0.968811-30.1728516,18.7143555-43.8033447c2.3195496,2.704483,4.6116333,5.4359741,6.9040222,8.1073608
		c0.7611084-10.691452,3.0533447-12.6317139,14.8336792-19.5928802c4.4373779,6.6693115,5.5231323,13.0138245,6.022522,19.4183044
		c-12.2797241,6.8437347-12.5444336,10.5740204-24.3819275,20.6517792
		c-6.2300415-4.2897949,0.5565491-7.4907074-2.8517456-11.5156555c-4.1995239,9.4579773-6.5218811,6.7264709-13.6003418,4.5544891
		C361.0209045,260.0215759,371.5949402,256.2311707,372.8883972,261.6671448z M407.4954834,277.7071533
		c-5.2314148,3.4082642-9.3136902-1.4710083-8.9617004-6.4346313
		C403.7350464,267.8341064,407.8774414,272.7705383,407.4954834,277.7071533z M375.8847351,294.0390015
		c1.3807373-1.1732178,2.7313538-2.319397,4.0820923-3.4354553c1.176178,1.3807373,2.3223877,2.6713867,3.438446,4.052124
		c-1.3236084,1.1190186-2.7315063,2.2922363-4.0821228,3.4082947
		C378.1769714,296.7433167,377.0609131,295.3625793,375.8847351,294.0390015z M382.171936,309.63974
		C381.9644165,296.9179077,394.243988,309.9916992,382.171936,309.63974L382.171936,309.63974z M387.7823486,287.3996582
		c-1.7027283-1.997406-3.4656067-4.0249329-5.1711426-6.04953c-2.4967957,2.2892761-0.6467896,4.9937439-4.3469543,7.165741
		c-6.5219116-3.2880249-0.6767883-16.1844482,4.3469543-7.165741c0.6767883-0.6166687,1.3506165-1.176178,2.0275574-1.7356873
		c3.7602539-4.1123962-7.0513-9.3708191-4.5545044-13.6003418c5.4358521,2.8789062,12.2796021-11.7202301,17.6854248-8.0500793
		C397.9171143,264.4286194,389.9271851,276.1789856,387.7823486,287.3996582z M400.0620728,322.4789734
		C395.5977173,312.4585266,409.2282104,328.4714966,400.0620728,322.4789734L400.0620728,322.4789734z M398.1817932,299.6222534
		c3.495575-4.9665833,6.1399536,1.4108582,9.4882812-1.1460571
		C411.1384583,304.2640076,399.8845215,305.3199463,398.1817932,299.6222534z M408.1693115,315.5751038
		C406.644104,315.4277039,410.6661072,315.7796631,408.1693115,315.5751038L408.1693115,315.5751038z M400.5041504,294.1864014
		c-2.4997559-4.8463135,11.1035767-15.8054504,13.5402527-4.6417542
		C409.2581787,294.1864014,405.0858154,291.7497253,400.5041504,294.1864014z M414.0444031,244.1861267
		c2.409668,7.7552338,5.1711426,15.5106201,5.6133728,23.1485901
		C406.1447144,276.5309753,395.8625488,249.7965393,414.0444031,244.1861267z M420.5091553,280.6162109
		c1.997406-1.705719,4.0550842-3.4385986,6.0526428-5.1411743c4.4942017,3.522583,3.1436157,6.5790405,4.8763123,9.8099365
		C427.4701843,287.8119202,423.8573303,285.7542419,420.5091553,280.6162109z M424.7687988,297.9768066
		c1.9975586-1.7027283,4.0550842-3.4655762,6.0526733-5.1411438c1.1731873,1.3206177,2.2892456,2.6441956,3.4354553,4.0550842
		c-1.9975586,1.7328796-4.0249634,3.4354553-6.0796814,5.1681824
		C427.0310669,300.6781921,425.9150085,299.3876953,424.7687988,297.9768066z M424.8860779,458.7289429
		c1.9674377-0.9987793,3.7302856,0.2948303,5.757843-1.4378967
		C433.6101074,463.0187378,422.0944519,466.691864,424.8860779,458.7289429z M424.1521301,420.8339539
		c-0.4120789,7.2258606-8.7841492,9.4879456-13.2785034,0.8513794
		C415.7199707,416.5743103,420.2745972,415.0160217,424.1521301,420.8339539z M411.078186,442.4542236
		c-4.0249329-7.547699,3.1437683-7.225708,8.4020386-10.6341248
		C427.5604248,440.604248,416.7788696,443.1311646,411.078186,442.4542236z M416.2494812,448.5670166
		C416.983429,459.1410217,401.9120789,448.3896179,416.2494812,448.5670166L416.2494812,448.5670166z M420.5391235,395.9796753
		C418.9809875,395.8623962,423.0059509,396.1572266,420.5391235,395.9796753L420.5391235,395.9796753z M419.5976562,407.2606201
		C421.8898926,404.9683838,423.4180603,409.1107788,419.5976562,407.2606201
		C417.3052673,409.553009,415.8673706,405.3504944,419.5976562,407.2606201z M406.9058228,400.5643005
		c1.7628784,2.0245667,3.4684143,4.0221252,5.1711426,6.0496826c-3.2007446,1.5281372-6.1969299-0.8513794-9.5180969,1.1460266
		C400.8561401,405.0856628,404.8211365,402.8535461,406.9058228,400.5643005z M406.7883911,425.1237488
		c-6.6390076,4.8763123-12.4240112-1.8229675-18.4766541-5.2584229
		C395.2728882,412.6664734,406.8786621,417.3955383,406.7883911,425.1237488z M386.8137207,438.5766907
		c-1.1462097-1.2634583-2.3223877-2.7015076-3.438446-4.052124c1.3506165-1.1160583,2.6743469-2.2923889,4.0249634-3.4084473
		c1.1461792,1.2906494,2.3223572,2.7015381,3.4656067,4.052124
		C389.4849243,436.2874451,388.1643066,437.4906311,386.8137207,438.5766907z M660.5980225,559.2316895
		c-12.3699951-13.5130615-20.0079346-34.2850952-35.9606323-46.4172363
		c-10.4567871-7.9899292-35.8101196-15.1586609-49.6603394-17.2433472
		c-40.072937-6.3173523-100.1779785,10.1347656-133.7861328-5.2885742
		c-14.9239502,5.228302-28.7889709-2.3493958-42.7442932-9.1361389c14.4545593,0.9085388,28.7890015,2.6443787,42.7442932,9.1361389
		c29.7877808-1.9703979,60.751709,0.4692383,92.8046875-1.880127c15.3632202-1.1160583,30.8435669-10.4597168,45.9751587-7.6109619
		c11.0011597,2.0878296,20.9013672,12.1924438,30.9489746,15.7782898
		c24.0299683,8.7841492,48.5321045,10.8688354,72.1499634,19.1235046
		c25.6483154,37.3685303,37.338562,65.1588745,73.5609131,94.8895264
		C719.644043,604.6203613,689.8562622,591.1343384,660.5980225,559.2316895z M754.0765381,595.1893921
		c-1.5882568-1.9973755,1.1461792-3.703125,2.3495483-5.4659424
		C758.0415039,591.7509766,755.3099976,593.4266968,754.0765381,595.1893921z M755.0151978,583.9385986
		c-1.0289307-1.9703979,0.2947998-3.703125-1.4380493-5.7879639c3.2611694-1.2333374,6.3745117-0.9716187,9.2234497,2.6443481
		C760.0087891,584.1732788,757.6895142,581.8508911,755.0151978,583.9385986z M762.5658569,514.5771484
		c-1.5853271-5.3455811,4.199707-13.0436401,10.4597168-12.3668518
		C777.637207,507.8207092,767.52948,515.133667,762.5658569,514.5771484z M773.8769531,560.9042969
		C772.3186646,560.7870483,776.34375,561.0818481,773.8769531,560.9042969L773.8769531,560.9042969z M771.1724854,594.7473145
		c-0.0270386-0.2918701-1.8500366-1.937439-1.7628784-2.0546875
		C777.6673584,582.6751099,770.8807373,613.9309082,771.1724854,594.7473145z M775.5223999,587.5214844
		c-4.6416626-4.199585-6.3173828-8.1074219-6.6121826-11.8676758
		C775.1404419,570.6600952,784.6283569,583.1443481,775.5223999,587.5214844z M784.1861572,527.708252
		c1.5582886,1.9975586-1.1732178,3.703125-2.4065552,5.4931641
		C780.1913452,531.1768188,782.9829712,529.4711304,784.1861572,527.708252z M782.0443115,554.0004272
		C780.4559937,553.8560181,784.480957,554.2079468,782.0443115,554.0004272L782.0443115,554.0004272z M786.6559448,612.9922485
		c-1.7055664-2.0574951-3.4384766-4.0852051-5.2011719-6.0524902
		C784.8932495,598.8323975,795.1152954,610.9347534,786.6559448,612.9922485z M788.4759521,590.4003906
		c4.4943237,3.5827026,3.1737061,6.6090088,4.8764648,9.9301758
		C787.1854248,604.9723511,780.2514648,594.7772827,788.4759521,590.4003906z M792.5611572,586.9919434
		c-7.5808105-5.6705322-4.9935913-10.4867554-6.2871704-15.6578979
		C795.4100952,566.4877319,800.8157959,582.1757202,792.5611572,586.9919434z M799.9344482,612.1680298
		c-3.321167-2.8187866-0.9987793-5.0808716-3.1136475-7.8123779c5.1983643-2.4397583,6.991333-0.4723511,7.1959229,4.3769531
		C802.6659546,609.9058228,801.3151855,611.0218506,799.9344482,612.1680298z M802.9006348,599.1843872
		c-4.4943237-5.6104126-3.6129761-13.7206421,2.9390259-12.956543
		C811.0378418,591.0170288,808.6884766,595.2195435,802.9006348,599.1843872z M807.9243774,584.4649658
		c-6.552063-4.2866211-1.6455688-7.6950684-6.6391602-11.897583c2.8217163-3.3481445,5.1711426-1.0287476,7.845459-3.1136475
		C809.2751465,574.5377808,815.0930786,580.0308838,807.9243774,584.4649658z M809.4225464,565.6633301
		c-2.319397-2.701355-4.581665-5.3756714-6.8739014-8.1071777c3.4654541-4.4943848,6.5219116-3.1737671,9.8129272-4.8463745
		C813.1256714,557.144043,814.7711182,561.6985474,809.4225464,565.6633301z M811.3026733,543.1315918
		c-3.4084473-2.7616577-1.0860596-5.1110229-3.173584-7.8154907c1.3537598-1.203186,2.7041626-2.2893066,4.0549316-3.4654541
		c3.3482056,2.8217773,1.059082,5.1711426,3.1737671,7.845459
		C813.9770508,540.8693237,812.6262817,541.9854126,811.3026733,543.1315918z M818.4111328,572.0679932
		c-3.3782959-2.7614746-1.1430664-5.0808716-3.1706543-7.8123779c5.1711426-2.409668,6.9610596-0.4422607,7.1957397,4.3768921
		C821.0854492,569.7485962,819.7648315,570.9519043,818.4111328,572.0679932z M821.5848389,555.3240356
		c0.5866699-3.7302856-5.6976929-8.0198975,0.9686279-11.2507935
		C826.6958618,548.1553345,826.3740234,551.9758911,821.5848389,555.3240356z M829.9569092,569.2793579
		C834.6887817,575.6538086,819.8521118,574.4475098,829.9569092,569.2793579
		c-0.3519897-5.7307129-2.5842285-11.6057739,3.2338867-16.7770996
		C833.5427246,558.2029419,835.7748413,564.0480347,829.9569092,569.2793579z M856.3092041,361.5201416
		c-3.6730957-3.4384155-1.4981689-6.4046326-4.8463135-9.8399353c-6.934021,11.3982239,8.2244873,24.6164856-4.8193359,35.485321
		c-5.9622192-6.0796509-3.7301025-11.6329346-11.7802124-17.9472961
		c0.8242188,16.5093994,15.4834595,34.0475769,3.5557251,49.500885
		c-12.1052856-13.6334534-11.2507935-26.1747437-15.6880493-39.1314392
		c-7.8154907,13.8952026,16.9213867,46.7394104,3.9648438,66.4825439
		c-6.7264404-35.8132629-20.7990112-72.2102356-32.7268066-108.5228577
		c20.5374756-30.1096191,56.2603149-40.5121765,88.487915-64.5992737
		C877.8723145,302.822998,872.4093628,332.5837402,856.3092041,361.5201416z M871.2932739,247.4471588
		c5.4630127-5.1712952,10.1047974-0.0301361,14.6862793,4.9665833
		C880.0171509,258.0812988,870.7938843,253.0304108,871.2932739,247.4471588z M884.5717773,246.5957947
		c-1.1459961-1.350769-2.2923584-2.6743469-3.4084473-4.025116c1.3206177-1.1461945,2.701355-2.319397,4.052124-3.4654388
		c1.1190186,1.3807373,2.2622681,2.6712341,3.4384155,4.052124
		C887.3031616,244.3335419,885.9526978,245.4194641,884.5717773,246.5957947z M892.3841553,313.4573059
		c-1.6154175-2.0245667,1.1462402-3.7302856,2.3525391-5.5201721
		C896.3220215,309.961731,893.5303955,311.6672668,892.3841553,313.4573059z M893.8822021,294.6556702
		c-2.5269165-3.934845-0.4089966-7.6078186,4.7020264-10.986145
		C901.1112061,287.6645203,899.0535278,291.3074951,893.8822021,294.6556702z M919.999939,275.9744263
		c-7.0213013,2.8487854-6.0526123-9.0488281,0.968811-11.2539368
		C925.493103,268.8930054,916.9434814,271.919342,919.999939,275.9744263z M921.8199463,253.4395294
		c-1.6424561-1.997406,1.2063599-3.7001343,2.352356-5.4931335
		C925.8179321,249.9439545,923.0263062,251.6766815,921.8199463,253.4395294z M916.5615234,202.001358
		c-0.3519897-9.2262421,14.3674316-7.6980896,19.1566162-2.2922363
		C929.0789185,203.0572968,922.9961548,200.5031891,916.5615234,202.001358z M934.8937378,301.7370911
		C937.390686,301.9416504,933.338562,301.619812,934.8937378,301.7370911L934.8937378,301.7370911z M940.182312,283.2874146
		C938.5369263,271.0679626,948.9363403,287.5170898,940.182312,283.2874146L940.182312,283.2874146z M951.0812988,242.6008148
		C962.5668335,241.8938904,944.8242798,256.3785706,951.0812988,242.6008148L951.0812988,242.6008148z M953.8126831,278.7359009
		c-3.4654541-4.6717529,1.3808594-8.6968689,6.6994629-12.6616821
		C961.3635254,270.5084534,959.1314087,274.7680969,953.8126831,278.7359009z M961.4506226,254.7631226
		C959.1314087,252.5310059,963.3309326,251.0028534,961.4506226,254.7631226
		C963.7128906,257.0253601,959.543457,258.5235596,961.4506226,254.7631226z M966.7090454,236.2834778
		C964.4197998,234.0513763,968.5893555,232.5531921,966.7090454,236.2834778
		C969.0014648,238.5757141,964.8892212,240.0437469,966.7090454,236.2834778z M978.1074829,212.6055298
		c-1.1432495-1.350769-2.319458-2.6443787-3.4354858-4.0552521c1.9973755-1.6726074,4.052124-3.4053192,6.0526733-5.1410065
		c1.1732178,1.4108734,2.3192139,2.6743469,3.4653931,4.0852203
		C982.192688,209.1700592,980.1048584,210.9027863,978.1074829,212.6055298z"/>
	<path d="M469.4805298,375.3851929C471.920166,375.5627441,467.8952026,375.2679138,469.4805298,375.3851929
		L469.4805298,375.3851929z"/>
	<path d="M362.4588013,319.3925171C364.9857483,319.5700684,360.9306641,319.2451172,362.4588013,319.3925171
		L362.4588013,319.3925171z"/>
	<path d="M134.0479889,153.3218536c1.1460419-1.7929993,3.9076843-3.4385834,2.3223724-5.5532684
		C135.1640472,149.6487122,132.4325409,151.2941437,134.0479889,153.3218536z"/>
	<path d="M168.567627,124.003334c-1.085907-2.0576859-2.4396362-1.293602-3.7904053-0.3519745
		C165.8632965,125.7360535,167.1868896,124.9148254,168.567627,124.003334z"/>
	<path d="M234.2259521,106.639595c-1.0559387-2.0545654-2.4096527-1.2603455-3.7904053-0.2617188
		C231.5815887,108.3452988,232.9323425,107.5812225,234.2259521,106.639595z"/>
	<path d="M206.9048462,140.3651733c6.4046326,1.4410248,19.9478302-10.9861298,6.6994629-12.7188492
		C205.7016602,131.4367371,210.0485992,136.2227936,206.9048462,140.3651733z"/>
	<path d="M225.823761,117.3038788C229.5841827,119.2141495,228.0560303,115.0146179,225.823761,117.3038788L225.823761,117.3038788z
		"/>
	<path d="M201.1170349,141.7460785c1.7327271,1.9703827,3.8777008-0.5265656,5.7878113-1.3809052
		C205.2022705,138.427887,203.0874329,140.864563,201.1170349,141.7460785z"/>
	<path d="M232.7277832,125.4412308c5.5832367-5.6403961,16.8342133-0.4692535,12.1924438-10.339325
		C241.7766266,118.657608,229.9089813,117.9506836,232.7277832,125.4412308z"/>
	<path d="M248.6804962,115.3665924c3.8475494-1.4410172,7.6379547-1.3235855,11.5457916-2.7916183
		C257.9338989,106.7870026,245.624176,110.5474243,248.6804962,115.3665924z"/>
	<path d="M253.5269775,125.2366638C262.6929321,131.2893219,249.0927429,115.249321,253.5269775,125.2366638
		L253.5269775,125.2366638z"/>
	<path d="M271.2124023,117.246727c3.6130066,5.4931412-12.1624451,18.9760666,2.2019958,19.0663223
		c-2.0847168-4.1423798,2.9992981-1.7928467,6.0827637-5.1410065c-5.1411438-5.4661255,0.1773987-11.5457916,4.6989441-10.9892502
		C280.2311096,114.7800674,275.6766357,116.4826508,271.2124023,117.246727z"/>
	<path d="M269.0674438,143.5389099C271.5072327,143.6863251,267.4821167,143.3914948,269.0674438,143.5389099
		L269.0674438,143.5389099z"/>
	<path d="M262.9577942,148.7100525c1.1460266,1.3809052,2.3192444,2.7015228,3.4082642,4.025116
		c1.3807678-1.1160583,2.7013855-2.2922363,4.0822754-3.495575c-1.1160583-1.2936096-2.2622375-2.6442108-3.4084473-3.9378204
		C265.6591492,146.3305359,264.3385315,147.5338898,262.9577942,148.7100525z"/>
	<path d="M190.9521484,220.3036041c1.1162109,2.1148376,2.4096527,1.2634735,3.7032623,0.3218384
		C193.596344,218.5979004,192.3058624,219.4222565,190.9521484,220.3036041z"/>
	<path d="M221.416687,194.4806671c1.9975739,3.2880402-0.4690857,6.2270813,1.1461945,9.5182495
		C228.233429,202.2360535,227.1746826,190.9850922,221.416687,194.4806671z"/>
	<path d="M220.213501,209.4918976C222.0936279,205.7316437,217.9211121,207.1996765,220.213501,209.4918976L220.213501,209.4918976z
		"/>
	<path d="M243.0702362,207.5816345C245.5368958,207.7591858,241.4516602,207.4342194,243.0702362,207.5816345
		L243.0702362,207.5816345z"/>
	<path d="M322.1541748,164.8373413c10.6912842-9.1059875,7.3131409-27.5856323,19.5055847-30.521698
		C323.9741821,118.540329,322.1813354,155.5539551,322.1541748,164.8373413z"/>
	<path d="M354.6433105,137.251709C349.4150085,127.1770706,348.2116394,142.0107574,354.6433105,137.251709L354.6433105,137.251709z
		"/>
	<path d="M322.1541748,164.8373413C320.2438965,168.6277466,324.4735718,167.1597137,322.1541748,164.8373413
		L322.1541748,164.8373413z"/>
	<path d="M354.6433105,137.251709c8.0801697,7.6679382-10.4867554,22.973999,3.6731262,24.9142609
		c0.1473999-7.580658,3.3481445-14.8667908,9.343811-21.9180756
		C363.6349792,134.815033,359.1106262,136.5176239,354.6433105,137.251709z"/>
	<path d="M351.6200867,174.8548279c4.5815125,4.1122437-3.9679565,7.1687164-0.9416199,11.2238007
		C358.8459473,183.9637909,359.7844543,172.1233368,351.6200867,174.8548279z"/>
	<path d="M339.1026917,188.9275665C324.0914612,197.6815796,339.8969116,198.9450531,339.1026917,188.9275665
		L339.1026917,188.9275665z"/>
	<path d="M382.8187256,162.2532654c2.9059448,3.5828705,6.022522,3.934845,9.2834167,2.6442108
		C389.2503967,161.3417664,386.1367798,160.8725128,382.8187256,162.2532654z"/>
	<path d="M406.7883911,169.8912201c-4.316803-8.3719025-9.4278259-7.3460999-14.6862488-4.9937439
		c1.7027283,2.0276947,3.4354553,4.0521088,5.1681519,6.1098022c-3.2608643,6.6693115-3.4354553,13.5733337,0.2077026,20.7389221
		c2.6713867-2.2591248,5.4057007-4.5515137,8.137207-6.8738861
		C396.6837769,184.1985016,397.4478455,174.6502686,406.7883911,169.8912201z"/>
	<path d="M411.490448,158.9050903c-1.7328796-5.7006683-12.9866638-4.6717529-9.5482178,1.1430664
		C405.2903748,158.0507507,408.2294312,160.4302826,411.490448,158.9050903z"/>
	<path d="M406.7883911,169.8912201c1.1162109,2.054718,2.4969482,1.23349,3.7904053,0.2948303
		C409.4928894,168.1855164,408.1421204,168.949585,406.7883911,169.8912201z"/>
	<path d="M377.7948608,201.5019684c-3.3511353-0.381958-16.6868286,6.6663513-14.2501221,12.1021729
		C367.5699768,205.614212,379.8795471,210.0484467,377.7948608,201.5019684z"/>
	<path d="M389.3676453,198.7103424c17.5982971,16.3046875-11.3079529-14.1297302-3.7874146-0.3218384
		C385.0508423,197.299469,388.5464172,197.9762421,389.3676453,198.7103424z"/>
	<path d="M397.4779968,191.7462006C395.5977173,195.5667419,399.7672729,194.0987091,397.4779968,191.7462006
		L397.4779968,191.7462006z"/>
	<path d="M429.0587463,175.4444885C432.7888794,177.3517914,431.3208618,173.1522522,429.0587463,175.4444885
		L429.0587463,175.4444885z"/>
	<path d="M339.2802429,279.6745605c1.0287476,2.0847168,2.4095154,1.2634888,3.7602539,0.3519897
		C341.9244385,277.9117126,340.5437012,278.763092,339.2802429,279.6745605z"/>
	<path d="M379.5848694,248.9753113c1.3537292-1.176178,2.7043457-2.3223724,4.0551147-3.4655914
		C380.9656067,243.3919067,377.8519897,246.8906097,379.5848694,248.9753113z"/>
	<path d="M418.2167664,216.1882324c-1.1460266-2.0847015-2.4666748-1.2603455-3.8174133-0.3218384
		C415.5154114,217.9240875,416.8360291,217.099884,418.2167664,216.1882324z"/>
	<path d="M583.5114746,159.6963348c-4.1002197,2.1749573-2.5419312,4.8191681-0.6467896,7.4905548
		C583.9506226,164.7801971,585.0368652,162.3405457,583.5114746,159.6963348z"/>
	<path d="M590.1508179,286.9004211c-3.5258789,2.8217773-3.9981079,5.9653625-2.6443481,9.2262573
		C591.0592041,293.3049011,591.4413452,290.1914368,590.1508179,286.9004211z"/>
	<path d="M684.5978394,241.6591949c-0.2044067-6.9038696-16.2174072-16.391983-23.355957-15.1586456
		C670.1161499,236.6955872,672.9349365,235.1674194,684.5978394,241.6591949z"/>
	<path d="M651.9011841,248.415802C655.6314697,250.3560486,654.1633911,246.1535492,651.9011841,248.415802L651.9011841,248.415802z
		"/>
	<path d="M604.5722656,295.6574097c0.6769409-0.5896301,1.3236084-1.1461792,2.0005493-1.7358398
		C604.2803955,291.9241638,603.5734863,294.5112305,604.5722656,295.6574097z"/>
	<path d="M657.3371582,250.7953186c2.9060669,3.5858459,6.0194092,3.8775482,9.253418,2.6172028
		C663.7687988,249.8566589,660.5980225,249.5618439,657.3371582,250.7953186z"/>
	<path d="M633.8034668,284.7855835C637.5337524,286.665741,636.0957031,282.4963379,633.8034668,284.7855835
		L633.8034668,284.7855835z"/>
	<path d="M657.598877,271.6245117C660.0385132,271.8019104,655.9562378,271.4771118,657.598877,271.6245117L657.598877,271.6245117z
		"/>
	<path d="M571.9508667,347.8295288c-3.6130371,2.8518982-3.9951172,5.9653625-2.6141968,9.1962585
		C572.8322144,354.2040405,573.2713623,351.0604248,571.9508667,347.8295288z"/>
	<path d="M631.9834595,307.3173523c4.2897949-4.6989136-6.9641113-3.5527344-9.2532349-2.6140747
		C625.5789795,308.2589722,628.7225952,308.6982422,631.9834595,307.3173523z"/>
	<path d="M639.473999,307.9641724C635.7137451,306.0570068,637.2119141,310.1962585,639.473999,307.9641724L639.473999,307.9641724z
		"/>
	<path d="M673.9938354,278.588501C672.4355469,278.49823,676.4606323,278.8232117,673.9938354,278.588501L673.9938354,278.588501z"
		/>
	<path d="M639.473999,307.9641724c3.9650269,5.3757019,8.5494995,3.7332458,12.9837036,2.9390259
		C648.4928589,305.5274963,643.9384155,307.1730652,639.473999,307.9641724z"/>
	<path d="M624.6373901,327.5298767C628.397644,329.3800354,626.9296265,325.2676392,624.6373901,327.5298767
		L624.6373901,327.5298767z"/>
	<path d="M745.5842285,235.3148346c-2.8789062-3.0263214-5.6675415-7.3161163-9.2232666-2.6142273
		c1.2033691,1.2634735,2.3223877,2.6713867,3.4384155,4.025116
		C741.854126,234.9898682,743.6168213,236.2834778,745.5842285,235.3148346z"/>
	<path d="M633.8937378,330.2042236C636.3304443,330.3516235,632.3354492,330.0869446,633.8937378,330.2042236
		L633.8937378,330.2042236z"/>
	<path d="M624.7276001,372.9485168c-1.1160278-2.1148376-2.4096069-1.2936096-3.7332153-0.3247986
		C622.083252,374.6512451,623.4038696,373.8300171,624.7276001,372.9485168z"/>
	<path d="M638.0361328,372.1242981c-4.2897949-1.4981689-8.5795898-3.8776855-13.3085327,0.8242188
		C629.0142822,374.3594055,633.2469482,376.7389221,638.0361328,372.1242981z"/>
	<path d="M646.0562134,389.752594c-2.6743774-6.4346313-22.3574829-3.8475647-32.0831299-0.7069397
		C624.3726807,392.6616516,635.3919067,389.0456543,646.0562134,389.752594z"/>
	<path d="M737.8289795,283.8469238c-5.9052124,7.6951294-7.8726196,15.7453308-7.5778198,23.9126587
		C735.7443237,300.0615234,739.9438477,292.1588745,737.8289795,283.8469238z"/>
	<path d="M641.7664185,372.4191284c-1.0890503-2.0276794-2.3525391-1.23349-3.7302856-0.2948303
		C639.0618896,374.1518555,640.4727783,373.3004761,641.7664185,372.4191284z"/>
	<path d="M641.7664185,372.4191284C645.5266724,374.2992554,644.0556641,370.1267395,641.7664185,372.4191284
		L641.7664185,372.4191284z"/>
	<path d="M655.1019287,371.6249084C651.3416748,369.7176208,652.8128052,373.8871765,655.1019287,371.6249084
		L655.1019287,371.6249084z"/>
	<path d="M655.1019287,371.6249084c0.5595093,0.6767883,1.1160278,1.3807678,1.7056885,1.997406
		c2.8187866,0,8.2246704-1.5551453,6.1098022-5.1681519C660.3905029,368.7761536,657.8365479,369.1581116,655.1019287,371.6249084z"
		/>
	<path d="M730.2511597,307.7595825C728.3710327,311.4898682,732.5134277,310.07901,730.2511597,307.7595825L730.2511597,307.7595825
		z"/>
	<path d="M668.3804321,370.8036804c1.1460571,1.3506165,2.2922363,2.7315063,3.4384155,4.0249634
		c2.0576782-1.6755676,4.0820923-3.4082947,6.1098022-5.1410217c-1.1160278-1.3808899-2.262207-2.7044678-3.4354248-4.0852051
		C672.4355469,367.3652649,670.3778687,369.0708008,668.3804321,370.8036804z"/>
	<path d="M661.4192505,387.1956787C651.9884644,380.5263367,650.6948242,396.3316345,661.4192505,387.1956787
		L661.4192505,387.1956787z"/>
	<path d="M638.7099609,409.9921265c-1.0559692-2.0545654-2.4367065-1.2634888-3.7001343-0.3518372
		C636.0355835,411.6978149,637.3893433,410.9638977,638.7099609,409.9921265z"/>
	<path d="M661.4192505,387.1956787c1.0588989,2.0876465,2.3795166,1.2634583,3.7001343,0.3247986
		C664.003479,385.5230713,662.7128906,386.3442993,661.4192505,387.1956787z"/>
	<path d="M644.5278931,408.5542297c-1.7626953-1.9402466-3.8775635,0.5295105-5.8179321,1.4378967
		C640.442688,411.9024048,642.5304565,409.4657288,644.5278931,408.5542297z"/>
	<path d="M644.9973145,425.6231384c-2.1751099-4.0852356-4.8463745-2.4969482-7.4907227-0.5896301
		C639.8861084,426.0322876,642.3830566,427.1483154,644.9973145,425.6231384z"/>
	<path d="M803.5473022,336.4313049C812.713562,342.3966675,799.0531006,326.3836975,803.5473022,336.4313049
		L803.5473022,336.4313049z"/>
	<path d="M829.0484009,325.2676392c5.6675415-1.7628784,4.6687622-13.0136719-1.2063599-9.5482483
		C829.8995972,319.0105591,827.4901123,322.0067444,829.0484009,325.2676392z"/>
	<path d="M810.1294556,348.271759C815.8571777,342.7787781,801.0203247,341.5423279,810.1294556,348.271759L810.1294556,348.271759z
		"/>
	<path d="M820.2912598,339.6350403C818.7059326,339.5449219,822.7610474,339.8697205,820.2912598,339.6350403
		L820.2912598,339.6350403z"/>
	<path d="M813.3001099,356.174408c2.0878296-2.3795166-1.4379272-5.1711426-3.1706543-7.9026489
		C808.0116577,350.681427,811.5673828,353.4399414,813.3001099,356.174408z"/>
	<path d="M821.2630005,373.7697449c-4.4943237-6.022522-3.4685669-11.6027832-7.9628906-17.5953369
		c-0.7339478,0.5265808-1.350647,1.1162109-2.0545654,1.6726074
		C813.8295898,362.0496826,813.5949097,375.4453125,821.2630005,373.7697449z"/>
	<path d="M825.140564,349.5923767C833.5999146,363.0183105,819.4400024,340.3992615,825.140564,349.5923767L825.140564,349.5923767z
		"/>
	<path d="M833.4525146,363.4304199c-1.9073486,1.7327271,0.5894775,3.8475647,1.4108276,5.7878113
		C836.8306274,367.5126648,834.3939819,365.3978271,833.4525146,363.4304199z"/>
</g>
</svg>
