<?xml version="1.0" encoding="UTF-8"?>
<svg id="cowberry" xmlns="http://www.w3.org/2000/svg" version="1.1" viewBox="0 0 1027.187724 1000">
  <!-- Generator: Adobe Illustrator 30.0.0, SVG Export Plug-In . SVG Version: 2.1.1 Build 123)  -->
  <g id="outline">
    <path d="M727.5984082,509.3126892h24.5951403c4.731718-24.1645668-24.1647368-7.0657196-24.5951403-14.7503302-9.2073871-22.3225581,19.5415761-6.6928251,14.7586824-24.5953741-5.7932325-.7702718-13.9698785.8424661-14.7586824-4.9220119,5.9223621-2.2010254-1.252106-21.1524863,14.7586824-24.5849816-1.3812356,11.2070673,1.1802729,18.481868,9.8364579,19.6727458-3.9734751-22.9638703,3.151815-31.4395587-4.9244347-44.2679286-8.8855408,3.3625325-41.7044224-25.0561685-29.5069935-44.2577275-19.9928069-1.9611284-15.1297491,20.9332041-29.5094376,24.5849816-.5491406-9.2852984-16.2588251-3.4120931-14.7587036-14.7588949,11.1970787-10.2850535,33.3413504-35.282289,24.5951403-49.1799519-1.180443,14.5598025-18.2917228,6.7748381-24.5951403,0,10.7380907.8914317,15.650114-4.0228444,14.7587036-14.7484812-18.1995724,9.0658036-17.6993973,6.2644406-44.2661009,4.912002,1.4407635-5.8115946,19.8122891-18.5704054,4.9224157-24.5849604-10.8058221,17.0621231-20.1011304,35.6325072-34.4316407,49.1797394-25.6053303-64.3174582-136.9025013-106.8437319-206.5648303-54.1019638,5.2132972-12.4677168-10.3570566-28.0276782-14.7505427-14.7485025,20.4740249,26.1644595-8.3139152,51.4013796-24.5951828,68.8504663-11.5966874-1.52012-9.1437362-17.0800813-24.5849604-14.7582998-1.8299799,24.9352211,42.7863605,29.1485932,19.6729584,59.0266322-7.6150515-11.7566117-32.609843-42.8067628-44.2679286-19.6727671,78.1685996,26.8861696-33.0402465,58.5758265-49.1803557,93.4378919-7.8832992-6.4941577-18.3796652-21.0335579-29.5071848-9.8364792-2.3811607,22.064299,33.7103557,5.6333083,29.5071848,29.509225-15.6990795,2.9202914-15.2095094-9.2257491-24.5949703,0-3.6907332,16.8099847,19.982202,6.2522205,14.7607438,24.5949703-13.2300189-3.3831261-9.506642,10.1665289-14.7607438,14.7588949,26.2364627,7.2831741,4.3524902,40.6245033,24.5949703,59.0166436-10.1251292,6.2726015-24.943382,7.8445348-24.5949703,24.5847691,18.3715255,5.262454,14.0190353-12.2074387,29.509225-9.8362879,11.777014,6.2624216,20.0211788,16.049319,19.6707269,34.4312582,33.1016447,10.656099,70.8346322,16.0684886,93.4480718,24.5953741-16.2300706,16.9905237-42.3457559,69.5107781-29.5069935,83.6097862,8.6641546-29.0461991,19.9307924-55.4837944,39.3434727-73.7753472,7.504284,23.3757204-7.4347462,55.0039579-9.8364792,83.6013915,23.9352747-.6498982,8.414269-40.763834,24.5951615-49.1801219,15.279281,16.3797299,6.9347624,31.7594072,14.7485025,49.1801219,4.7031335-28.1259705,38.0136679-4.1132308,39.3538651,14.7587249,40.0547691-6.4329721,99.6819302,4.0330243,132.7917571-39.3438765,6.7646369-.2086985,10.7976612,2.3117504,14.7485025,4.914446-4.6517452-19.9126429-2.2214277-22.6340119,9.8364792-34.4214396,5.0943688,5.2132972,10.1561152,35.1200908,19.6727458,19.6704931-8.6149979-9.4140029-10.4266157-25.6440734-14.7485025-39.3432602,5.8118071-12.1070637,18.5704054,10.0659625,24.5849816-4.9224157-7.7849856-5.6541356-24.1853729-27.8271618-9.8364792-39.3438765-2.3709383,11.1358718,12.3263459,29.5279909,19.6709181,14.7588949-15.279281-10.9474056-23.9230333-28.5378419-29.5071848-49.1901531,37.5320462,6.3833902,43.4258663-18.8614995,68.8528678-24.5849604,8.0740394,5.3730302,25.3452648,26.6752183,34.4294305,14.7484812-5.8319969-15.4802011-28.6955346-13.9288614-29.5069935-34.4214396,5.0225782-21.7834273,49.1491784.1207561,44.2679286-19.6707269-6.7748381-10.447018-24.5152313,3.7419515-29.5092038-4.9244559,6.2644406-12.3077925-2.5023419-15.3898359,4.9140635-19.6709181ZM668.5817646,342.0894827c6.4533319,1.7418674,7.7339799,8.6664074,14.7484812,9.8364792-9.3548574,10.3160607-13.3978916,25.9455811-34.4212483,24.5949703,2.2726247-15.760669,18.7219775-17.3405507,19.6727671-34.4314495ZM639.0725183,327.3410015c13.4185064-3.5820272,9.8960496,9.7648799,19.6729584,9.8364792-11.7176561,12.8571244-17.261003,41.2945912-39.343664,29.5069723,6.4633418-13.2071513,13.1971627-26.1460762,19.6707056-39.3434515ZM643.9865818,573.2517485c-27.1976447,3.9918159-41.3252159-22.4947237-59.0162186,0,10.1969198,9.4758261,18.7813354,20.5621373,24.5949703,34.4212483,34.3310744,149.5711595-217.1330081,176.6972049-181.9821014,9.8446401-27.1956044-12.5762528-17.1502355,11.7378458-39.343664,14.7503302-133.2711261-3.7333868-131.1194487-198.9828263,0-201.6444548,19.2916904,3.6619787,16.910551,28.9990613,39.343664,29.509225,22.4147509-16.7300331-2.7007967-18.5928267-4.9120233-39.3457042-10.8570191-101.7823893,63.4321472-178.2407662,142.626196-93.4460316,31.985639,34.2476588,6.5349411,50.3606286,4.9140635,83.6118052,108.7354925-74.3675027,186.2935533,119.9121689,73.7751134,162.2989419ZM698.0891194,396.1920628c17.7916115,7.9653122,37.4725182,25.0459886,29.5092888,44.2679286-10.8364256-13.7587572-22.1648866-27.0173181-29.5092888-44.2679286Z"/>
    <path d="M506.2828227,396.1920628c-17.2424496,21.5335204-15.7198856,31.7100592-29.5092463,54.1044078,19.8634861-4.8526653,36.3927904-38.8335003,29.5092463-54.1044078Z"/>
    <path d="M516.1172617,445.3720147c2.5512649-7.2727604,7.2748007-12.3857251,9.8364792-19.6707269-12.4369221-5.1743416-21.8021932,16.5907237-9.8364792,19.6707269Z"/>
    <path d="M560.3749891,484.7177189c2.5616573-7.2748007,7.2851931-12.387744,9.8364792-19.6727458-16.4103971-9.1459889-20.7037207,17.6808015-9.8364792,19.6727458Z"/>
    <path d="M452.1786061,533.9080633c21.9433516,28.9560252,90.5461637,12.076269,63.9386555-34.4318532-21.4413276-14.6887195-74.3244666-19.0516021-63.9386555,34.4318532Z"/>
    <path d="M412.8347296,519.1473407c-13.8693122,2.2316076-39.7944698,23.2651655-19.6727458,29.509225,3.0634901-13.3283325,20.5437752-12.2382335,19.6727458-29.509225Z"/>
    <path d="M422.6712088,538.8200865c-6.8445884,14.4694373-24.0152262,18.6114013-24.5951615,39.343664,21.2734336,1.9119716,40.6039097-34.8004548,24.5951615-39.343664Z"/>
    <path d="M496.4465348,592.9222416v9.8364792c4.9324256-.0205936,5.8526076,3.9838887,9.8362879,4.914276-.4712293-7.7256277.6598868-17.0517306-9.8362879-14.7507552Z"/>
    <path d="M462.0148941,2.7410775c-112.868913,11.648097-203.3881287,67.7521851-290.1786757,127.8691289C-13.3213519,258.8626221-42.4646533,554.9108264,53.8052052,765.0578965c55.6536861,121.4963223,183.8171818,218.1041363,321.5458275,230.6045393,319.3498814,28.9843547,489.5339289-94.3646238,538.994795-159.975779,49.8604111-66.1498608,94.9828984-167.3219026,108.3432583-257.5229062,14.7148174-99.3457599-9.2667663-256.1855781-34.4214821-309.8391801C906.727907,94.4083475,676.1354179-19.3723783,462.0148941,2.7410775ZM968.5948579,307.6682556c-15.248465-1.149882-15.3488188-17.441542-19.6811193-29.5072061,16.2198694.1701254,18.79991,13.9778482,19.6811193,29.5072061ZM958.7584,460.1327373c5.6948764-19.4330614,5.6948764,19.4310424,0,0h0ZM948.9137387,519.1473407c23.6237784-4.1621751-23.3553181,31.6096841,0,4.9242434.3094774-.350452-.3298797-4.8628452,0-4.9242434ZM953.8361756,386.3572201c-10.1459353-9.5266193-9.3854821-29.9600521-14.7586824-44.2677374,24.7056952,7.475742,17.3613355,28.316732,14.7586824,44.2677374ZM934.1634297,248.6518245c5.6947064-19.4414348,5.6947064,19.4330614,0,0h0ZM934.1634297,317.5047348c2.8523263-15.9699838-3.3507374-22.8841313-4.9224369-34.431662,14.879651.800854,28.9969786,37.663216,4.9224369,34.431662ZM924.3289695,455.2084939c11.5065135,1.2704256,2.8299263,21.6134932,0,24.5947577-14.4206843-4.16175,2.9406937-15.838389,0-24.5947577ZM909.5680344,455.2084939c-7.6026188-7.1436521-10.3260281-19.1811567-9.8342477-34.4214608h14.7586824c-6.7748381,6.3344247-4.8730464,21.3636076-4.9244347,34.4214608ZM904.6560112,543.7425022c-.1393307,4.7828937-6.0227584,3.8135508-9.8364579,4.9140635.1311698-4.7828937,6.014555-3.8137421,9.8364579-4.9140635ZM904.6560112,401.1163275c-8.3157642-9.7257117-5.3730302-30.6999117-9.8364579-44.2683324,9.3856522,13.1379961,26.6772798,32.290377,9.8364579,44.2683324ZM909.5680344,327.3410015c-4.3710223,3.821903-11.1048858,5.2830688-19.6707056,4.9122145,3.7213367-11.8365632,3.9016845-23.8144974-4.9140635-34.4214396,12.9389249-14.2075228,19.2527135,19.8020667,24.5847691,29.509225ZM884.9832653,548.6565657c-.8689679,15.5291454-3.4612499,29.3370594-19.6709181,29.5071848-.2213224-29.2879026-16.2012948-42.815115-24.5949703-63.9284331,5.873014-8.6254115,25.1443021,5.8729928,44.2658884-4.9226282,3.4118593,13.5684208-14.8878119,32.0586622,0,39.3438765ZM875.1488476,602.7587208c12.2361507-19.1811355,7.1641819,16.3000335,0,0h0ZM865.3123472,460.1327373c16.7506267-3.6434041,8.1048129,18.1195997,19.6709181,19.6705143-.7296797,10.7568779-12.3960962,10.5581892-24.5951828,9.8364792,5.6641455-5.8134436,5.5637492-17.379315,4.9242646-29.5069935ZM865.3123472,238.8071844c.129087-4.7831062,6.0125147-3.8137421,9.8365004-4.9144673-.1413709,4.7832975-6.0247986,3.8139546-9.8365004,4.9144673ZM870.2243279,332.253216c-3.5224568-11.8365632-17.5394306-26.1363001-9.8362454-34.4214396,14.0700623.6802891,8.9962658,20.5131718,9.8362454,34.4214396ZM855.4758467,342.0894827c5.6930912-19.4310211,5.6930912,19.4308299,0,0h0ZM884.9832653,455.2084939c-7.0536695-6.0535318-9.3159018-16.9105722-9.8344177-29.5072061,12.5558292.5491406,9.7544237,16.4697551,9.8344177,29.5072061ZM875.1488476,174.8764986v19.6727458c-10.1274032-1.3503771-4.6334044-18.3203073-14.7607651-19.6727458,2.1516349-7.3035551,6.2952566,1.9427876,14.7607651,0ZM840.7173769,174.8764986c18.6705255,1.0017741,17.0188744,22.3245983,24.5949703,34.4212483-9.3671201,2.112913-12.3589896,10.5967411-24.5949703,9.8364792v-44.2577275ZM860.3880825,283.0730728c-24.5049876-5.9427644-14.4882244-19.2710969-19.6707056-39.3438765,10.4161807,9.2567564,16.8795437,22.4641203,19.6707056,39.3438765ZM835.8031009,351.9259619c-6.6826027-1.5205025-4.0819898-12.3077713-4.9222244-19.6727458,7.9449099,4.8340907,11.3157946,13.1274124,4.9222244,19.6727458ZM830.8808765,219.1342261c-11.2278522,13.8878868-25.7264477-39.6551603-9.8364579-39.343664,14.209563,2.1906117-4.3730626,37.1632534,9.8364579,39.343664ZM821.0444185,150.2813158c-6.6026937-3.231554-9.1561688-10.5147281-9.8362879-19.6711094,15.3200856-2.3009754,17.5804902,12.3675543,9.8362879,19.6711094ZM811.2081306,160.117795c-11.5968787,15.8202607-19.8820394-17.2895662,0,0h0ZM806.2857362,233.8927171h-14.7485237v-14.7584911c10.7257006-.8914317,15.6501353,4.0330455,14.7485237,14.7584911ZM796.4492357,110.9374605c-14.2976754-14.3978592-22.8143597-5.7520454-44.2556873-14.7584911,12.8979078-19.3412935,53.3706689.2192822,44.2556873,14.7584911ZM762.0277962,204.3857236c12.8879191,3.5018632,4.7133134,28.0768349,19.6729159,29.5069935-9.3260604,11.9881353-20.1728997,22.4539191-44.2680987,19.6727671-2.211014-17.760583-12.606835-23.8037224-4.9120233-39.3432815,3.4121143-9.7073496,27.4375629,1.2090487,29.5072061-9.8364792ZM752.1935485,155.2057929c7.3733055-5.744097,12.0271122-14.209563,24.5847691-14.7591074v29.5075886c-16.8016325,3.6925822-6.2440383-19.9823932-24.5847691-14.7484812ZM737.4326134,66.6717634c-.128917,4.7828937-6.0225459,3.821903-9.8342052,4.9222244.1392882-4.7828937,6.0226734-3.821903,9.8342052-4.9222244ZM757.1055717,120.7737272c1.5103226,11.3472056-14.209563,5.4636079-14.7484812,14.7489063-15.5006034,2.3811395-3.6826148-22.5438805-14.7586824-24.5851729,7.4039089-13.3383424,21.2118017,7.8263853,29.5071636,9.8362667ZM727.5984082,160.117795c16.3591576,1.6720958,17.4392893,18.6318249,29.5071636,24.5951828-6.5433145,9.8466803-21.8327541,10.9573942-34.4212271,14.7485025-3.4921083-18.2301546,8.3957157-21.1012893,4.9140635-39.3436852ZM698.0891194,51.9212419c6.0533618,2.141455,10.0965872,6.2952566,9.8365004,14.7505214-17.0602741,4.2910921-16.8695551-7.5658947-9.8365004-14.7505214ZM712.8478443,145.3693138c-1.3791528,11.3959586-13.1378048,11.2974325-19.6811193,4.912002,1.3812143-11.3959586,13.1378048-11.3057847,19.6811193-4.912002ZM712.8478443,184.7129778c-3.9920071-.9405884-4.9018221-4.9326168-9.8446614-4.9224157v-9.8362879c10.4963873-2.2911781,9.375281,7.0247237,9.8446614,14.7587036ZM663.6574999,61.7575086c12.6686369,3.7235894,17.0906863,15.6994833,14.7607438,34.4214608-12.6684457-3.7215492-17.0906863-15.6890909-14.7607438-34.4214608ZM678.4182438,155.2057929c-8.656015-1.1906866-11.2176935-8.4654873-9.8364792-19.6831595,8.6460051,1.1906654,11.2074711,8.465466,9.8364792,19.6831595ZM629.2380793,81.430467v-9.8364792c4.1825561.8993801,4.6313429-1.9221728,4.9122358-4.9222244,9.5453851-1.9529675,7.1846267,22.4025096-4.9122358,14.7587036ZM648.9089975,110.9374605c-3.4017007,9.7157018-13.1172112,13.1092416-24.5951615,14.7588949v-19.6809068c11.4082-1.5615409,18.8818805.7908441,24.5951615,4.9220119ZM634.1503151,46.998805h-9.8364792c.9118127-4.1825561-1.9201325-4.6333619-4.9120233-4.912002-1.9509485-9.5474466,22.3921171-7.184648,14.7485025,4.912002ZM589.8925876,32.2503238c7.0043002,9.375451,11.428581,21.3534064,14.7505214,34.4214396-5.7134723-.8012578-8.75656,1.0901203-9.8364792,4.9222244-6.9757582-8.3957157-9.1765711-34.511826-4.9140422-39.343664ZM584.9703632,135.5226334c-6.6642831,11.057748-19.7714845-12.6176524-14.7588949-29.5071848,17.070284-2.3014005,2.8217441,26.6956206,14.7588949,29.5071848ZM565.2974048,42.086803c2.7929896-5.1435468,14.9698249,40.6634589,9.8364792,44.2556873-16.3102346-1.7212526-7.7135776-28.3473354-9.8364792-44.2556873ZM525.9537408,71.5939878c9.1457764,8.8856896,18.0210523,18.0416671,14.7484812,39.3434727-8.8138778-.6289008-10.365005,6.0247561-19.6709181,4.9142548,13.488278-11.7278572-9.586381-31.4989379,4.9224369-44.2577275ZM506.2828227,61.7575086c-6.6047127-3.2417764-9.1661787-10.5167896-9.8362879-19.6707056,8.6458138,1.1804642,11.2072798,8.4552649,9.8362879,19.6707056ZM496.4465348,27.3260592c-.1415622,4.7828937-6.0249686,3.8133383-9.8364792,4.9242646.1291295-4.7828937,6.0145762-3.8217117,9.8364792-4.9242646ZM481.6878524,91.2669462c-13.5396663-7.7564224-25.156756-17.6010625-9.8364792-29.5094376,10.9059847,3.4734912,16.3385641,23.0850514,9.8364792,29.5094376ZM466.9370972,32.2503238c-4.0717886,13.8980667,6.9245612,12.738196,4.914276,24.5849604-9.7771213.0697716-6.2544732,13.4185064-19.6727671,9.8364792,8.3053505-12.1095077-16.4803388-32.189832,14.7584911-34.4214396ZM373.4910656,130.6102064c-6.063733,7.053882-16.9205609,9.3163056-29.509225,9.8364792-.5593418-18.5824343,9.617197-26.4473927,24.5849604-29.509225.4118501,7.7853682-2.3607372,18.7611244,4.9242646,19.6727458ZM343.9818406,115.8517153c-3.9920496-.9301748-4.9016096-4.9348696-9.8446401-4.9142548,1.4509647-10.0247754,13.3079302-9.6455477,14.7588949-19.6705143,3.981636.9303873,4.9016096,4.9324043,9.8364792,4.9120233-1.4509647,10.0371868-13.3101829,9.645739-14.750734,19.6727458ZM348.8960954,71.5939878c-1.4509647,10.0270069-13.3079302,9.6459515-14.7588949,19.6729584-14.7688835-7.3445723,3.6209829-22.0439179,14.7588949-19.6729584ZM319.3868703,125.6963554c12.709229-16.9391142,11.8773678,25.2858643,0,0h0ZM309.5522188,86.3424902c7.2935878,4.1825561,10.57636,12.3775429,9.8346515,24.5949703-5.6439345-7.9345175-19.310265-15.5781322-9.8346515-24.5949703ZM284.9570573,169.9542742c-8.5062706-7.2441972,14.0271962-25.0461798,24.5951615-29.5075886,15.1093681,17.5706503-16.2402505,20.1710932-24.5951615,29.5075886ZM280.0429938,110.9374605c10.2770838-2.0798655,13.0188976,3.3733287,19.6729584,4.9142548-2.8813145,20.0725671-10.7872688,35.1203033-29.5094376,39.3540777,11.2772427-13.9986542-8.6047967-33.6714001,9.8364792-44.2683324ZM255.447811,169.9542742c-6.8833528,23.7651493-30.7182525,52.9628993-49.1799307,49.1799519-2.061716-33.1999795,26.1872846-36.1016963,34.4314495-59.0164311,4.9919748,3.1926196,5.0821274,11.3078462,14.7484812,9.8364792ZM255.447811,204.3857236c-7.9038928,16.6786449-31.0093465,18.1707967-34.4212483,39.3434727-7.6048503-12.7481846,14.1604062-38.1323838,34.4212483-39.3434727ZM230.8630419,155.2057929c-8.9942043,15.598917-25.7654459,23.4146973-29.5175772,44.2556873-24.2755468-18.9314624,12.3775429-36.9215287,29.5175772-44.2556873ZM201.3454647,224.056238c-14.9102757,18.1814016-16.5599077-14.9390089,0,0h0ZM166.9241951,204.3857236c10.2768925-2.082097,13.0188976,3.3710972,19.6727671,4.9120233-9.7667288,24.6649331-24.6955366,44.1573737-49.1799519,54.1041953-.7623021-30.2692744,25.8452061-33.1709912,29.5071848-59.0162186ZM107.9075727,263.4019422c18.9228976,4.3222906-1.731645,23.1937999-9.8362667,29.5076099-9.9554076,11.1171059,11.7586519-17.3407632,9.8362667-29.5076099ZM93.1490817,376.5209321c13.8077015,9.4164681-6.7544358,25.6446898-4.9224157,39.3438765-11.0271658-13.6479685,7.2645995-28.6467604,4.9224157-39.3438765ZM63.6416843,366.684453c17.2587715,15.0601901-18.291744,40.0651828,4.9120233,49.1803557-1.5205238,6.6744843-12.3077925,4.0822023-19.6727458,4.9222244,1.5411173-21.4125518,12.9185226-32.9888582,14.7607226-54.1025801ZM39.0465228,440.4599915c9.3650586,9.215548,12.3569493.5409797,24.5951615,0-9.6867561,13.2689746-2.9323203,42.9768882-4.9244559,63.9286456-10.3752061,6.5451422-14.5292203-2.4203076-29.5071848,4.9240521,4.1417515-25.6461137,14.9392214-47.1388508,9.8364792-68.8526978ZM34.1324593,524.0715841c12.1172648-.6515346,23.6955902-.7500607,29.509225,4.9120233,2.9202914,10.1867186-6.0843266,32.3108006,4.9120233,34.431662-6.594299,8.1537784-25.8164516,3.6927734-24.5849816,19.6729584-14.7688835-9.7979273-16.7300331-41.8276438-9.8362667-59.0166436ZM53.8052052,656.8633412c-13.3876904-7.0247237-6.3444134-23.8451221-9.8364792-49.1903443,9.7053307,9.2646835,19.0110313,36.4111312,9.8364792,49.1903443ZM73.4761233,725.7140199c-6.5229122-11.1558915-19.070368-32.5686559-9.834439-44.2656971,8.9552487,8.733905,20.0417724,31.5892818,9.834439,44.2656971ZM98.0713061,779.818619c-11.5169272-1.6027705-4.7831062-21.4535689-14.7587036-24.5953953,5.0533942-10.9877851,16.930762,12.1174774,14.7587036,24.5953953ZM107.9075727,671.6118436c14.2589323.8893702,11.8467856,23.3738927-4.9222032,19.6709181-.6311536-8.8138778,6.0227159-10.36543,4.9222032-19.6709181ZM122.6560752,710.9555076c-8.0534246,13.2382011,6.6950779,25.2263364-4.9120233,39.343664-13.6090129-10.285266-20.7118604-36.8026003,4.9120233-39.343664ZM122.6560752,814.2380184c5.7440757,7.3855894,14.209563,12.0291524,14.7609351,24.5947577-8.6254115-4.4915659-17.0908775-9.1453301-14.7609351-24.5947577ZM122.6560752,671.6118436c8.7155642,4.4018383,6.2748543,19.9615659,24.5951828,14.7586824-4.3320879,12.0679168-4.432463,28.3577066-19.6707269,29.5069935,1.5205238-17.9104974-.7910566-32.0092929-4.9244559-44.2656759ZM142.3290336,774.8943544c5.7030799-19.4310636,5.6928787,19.4330614,0,0h0ZM147.251258,794.5671002c5.694919-19.4330614,5.694919,19.4310211,0,0h0ZM152.1655128,809.3259951c5.7030799-19.4310211,5.7030799,19.4310211,0,0h0ZM142.3290336,735.5504779c-2.082097-10.2768925,3.3729249-13.0268673,4.9222244-19.6729584,6.5944903,3.2340193,9.1561688,10.5068009,9.8364579,19.6729584h-14.7586824ZM171.8362184,828.9987835c5.344467,1.2090062,3.3423427,9.774826,9.8364792,9.8339927-2.1108515,13.6094379-15.4697874.2503107-9.8364792-9.8339927ZM196.4314012,715.8775195c19.8018754,7.5660647,10.4574104,63.9104961-14.7587036,68.8532928-25.7652333-26.1262902,10.8262244-43.5364212,14.7587036-68.8532928ZM186.5969622,888.0131106c-23.2343708-7.6846106-6.5453547-24.3638292,0,0h0ZM196.4314012,843.7472647c-23.5438269-18.191199.9118127-48.3809469,9.8364792-63.9286456,14.7299279,4.9427967,9.7071371,29.6365056,14.7586824,44.2558998-7.393729,7.3649746-20.7118604,8.8055043-24.5951615,19.6727458ZM225.9408387,789.6530367c7.2748007,2.5513074,12.3979452,7.2748219,19.6707056,9.8364579-1.739806,6.4552021-8.654166,7.7358713-9.834439,14.7485237-15.4002284-6.3239898-2.5329028-10.1663376-9.8362667-24.5849816ZM240.6993298,917.5225694c-9.4366792-.5515846,5.7728302-16.4699251,0-29.5094588,14.2179152,7.8855732,5.9429556,18.3819605,0,29.5094588ZM240.6993298,858.5057345c7.6048503-21.4123393,8.0352538-23.6049913,19.6729584-44.2677161,26.3553698,11.9573193-5.1949564,57.7870014-19.6729584,44.2677161ZM275.1207694,942.1177522h-14.7484812v-9.8365004h14.7484812v9.8365004ZM260.3722882,878.1785229c-4.2235732-15.6907273,7.7337673-15.2093181,9.8342264-24.5948002,6.5945115,3.2415851,9.1561901,10.5147493,9.8364792,19.6707056-4.3812447,3.8219455-11.1069048,5.2930787-19.6707056,4.9240946ZM314.4644546,809.3259951c14.5496013,7.1148764,4.2521152,10.9859574,9.8362667,29.506781-11.8465731,2.0127717-10.6867025-8.9835994-24.5847691-4.9220119-2.3321952-15.4389715,13.2381798-12.9884855,14.7485025-24.5847691ZM304.6279755,858.5057345c12.127466-13.2871241,17.7403719,8.5148566,4.9242434,14.7486937-5.5841515-.9303448-2.7315914-4.9222244,0-4.9121933.7992388-5.7130685-1.0921393-8.7561563-4.9242434-9.8365004ZM319.3868703,951.9539976c1.2212688-6.1844466,9.7769087-4.963199,9.8362667,0-2.1804106,7.1438647-4.3218655-.5019815-9.8362667,0ZM309.5522188,922.4447938c.7992388-5.7234822-1.0921393-8.7543285-4.9242434-9.8364579,2.0716833-10.9453653,26.0973232-3.8525489,29.509225,0-4.1721637,7.2953942-12.3775429,10.5762963-24.5849816,9.8364579ZM339.0596162,892.9376302h-19.6727458c-3.3713097-16.4903699,8.2561937-17.9823304,19.6727458-19.683202v19.683202ZM353.8183198,927.3588573c7.1642457-16.2996509,12.2380209,19.1811355,0,0h0ZM363.654799,828.9987835c14.9184153-1.8116391,10.205272,16.0191193,14.7484812,24.5849391h-19.6707056c-4.0638402-13.9000856,6.9325096-12.7381748,4.9222244-24.5849391ZM358.7325746,888.0131106v-14.7586824h14.7584911c-5.2543143,4.5923873-1.5307249,18.1524346-14.7584911,14.7586824ZM363.654799,961.7882453c14.9082142-18.1807428,16.5599077,14.9390302,0,0h0ZM373.4910656,902.7740882c-3.5820272-13.4185064,9.7646673-9.9062508,9.8364792-19.6729584,6.5924713,3.2317665,9.1539373,10.5065459,9.834439,19.6729584h-19.6709181ZM407.9125265,888.0131106c12.236172-19.1808804,7.1744468,16.3018612,0,0h0ZM422.6712088,843.7472647c6.6026724,3.2415426,9.1559775,10.5165345,9.8364792,19.6810768h-19.6729584c-3.582006-13.4270074,9.7667288-9.9062083,9.8364792-19.6810768ZM432.507688,907.6861115h-19.6729584c.9201861-13.8283376,8.5556399-20.9535851,24.5849816-19.6730009-3.8117018,4.3733176-5.2828563,11.1071386-4.9120233,19.6730009ZM442.342127,838.8327761c8.8259279-.6286883,10.3772463,6.0249686,19.6727671,4.9144885-1.7418462,6.4633205-8.656015,7.7441598-9.8362879,14.7584698-6.6028637-3.2313415-9.1561688-10.516577-9.8364792-19.6729584ZM452.1786061,951.9539976v-19.6727458c14.2195729,2.1722922,22.4247608,10.3668752,24.5949703,24.5850241-5.713281-4.1232194-13.1869616-6.4839778-24.5949703-4.9122783ZM466.9370972,902.7740882c-5.3424267-1.2215026-3.3423215-9.7873224-9.8446401-9.8364579,1.5309374-6.6745268,12.316166-4.0824148,19.6811193-4.9245197-1.739806,6.4656158-8.6641546,7.7360414-9.8364792,14.7609776ZM481.6878524,873.2544282c-13.9003194,4.0740839-12.7384085-6.9243274-24.5953953-4.9121933,7.1130487-9.2849158,10.9861699-21.8042334,29.5175985-19.6730009-4.1333993,5.7137486-6.4941365,13.1894481-4.9222032,24.5851942ZM496.4465348,892.9376302h19.6707269c-2.9202914,15.6890271,9.2257279,15.2094881,0,24.5849391-18.191199,3.4325166-21.7324216-7.7853469-19.6707269-24.5849391ZM506.2828227,853.5837226c12.236172-19.172762,7.1642457,16.2998209,0,0h0ZM521.0313039,956.8662759c-9.7667076-8.1848069-6.2542394.4508058-19.6727458,0,.6003376-12.5066937,7.1642457-19.0724507,19.6727458-19.6730009v19.6730009ZM540.702222,838.8327761c17.3407844.6909153,14.0086429,22.0545441,19.6727671,34.4216521-12.1172648.6517684-23.69355.750082-29.5072061-4.9121933-3.8935023-17.010756,5.4735965-20.7628661,9.834439-29.5094588ZM540.702222,917.5225694c-.0185533-18.0522933,17.221856-18.8429249,24.5951828-29.5094588,22.7547892,9.5558413,1.3216226,38.3253768-24.5951828,29.5094588ZM555.4629659,951.9539976c2.6006342-3.9528602,5.1313055-7.9858845,4.9120233-14.7607226,7.795378.4118714,18.7609119-2.3607159,19.6729584,4.9244772,5.0513327,16.5189331-15.2896734,7.6537946-24.5849816,9.8362454ZM575.133884,873.2544282c.1309573-4.7828937,6.0247774-3.8114893,9.8364792-4.9121933-.139522,4.7830637-6.0229284,3.8114893-9.8364792,4.9121933ZM624.3138359,843.7472647c13.998633,12.7381748-16.1994671,22.8634952-24.5849816,29.5071636-27.5358553-19.7322951,11.0373457-30.7490684,24.5849816-29.5071636ZM624.3138359,883.1011298c-12.227841-.7396683-1.4405723-16.6604741,0-19.6727884,12.2382122.7417085,1.440551,16.6501029,0,19.6727884ZM604.6431091,888.0131106c5.713281,4.1334206,13.1867703,6.4839778,24.5949703,4.9245197-8.1764335,9.85482-13.2094041,22.8532941-29.509225,24.5849391-2.1106602-19.0314336-5.3934325-17.490465,4.9142548-29.5094588ZM629.2380793,951.9539976c-9.026848-7.315754-16.6602615-13.2093828-24.5949703,0-11.7484508-12.0782454,26.1442698-16.2402292,24.5949703-34.4314282,8.1152478.6905328-5.153748,20.5129805,0,34.4314282ZM639.0725183,853.5837226c10.8980363-8.7769836,14.9308692-24.4066741,34.4214608-24.5849391v24.5849391c-17.7097898-2.9528926-14.4884157,15.0189817-29.5073973,14.7585123.4202023-6.9755457.8096312-13.9286914-4.9140635-14.7585123ZM668.5817646,873.2544282c14.1175614,12.869387-4.6025884,34.4726578-19.6727671,34.4316832-3.6415764-21.66265,15.9208057-20.1425513,19.6727671-34.4316832ZM678.4182438,932.2812517c-9.3671201,2.1107027-12.3589896,10.5967836-24.5951828,9.8365004-2.3217815-15.4392265,13.2381798-12.9985166,14.7587036-24.5951828,6.043522,2.1516774,10.0967573,6.2928338,9.8364792,14.7586824ZM712.8478443,843.7472647c12.0271122,6.1128685-14.7485237,14.3076641-14.7587249,24.5949703-18.1707542-12.2380634,11.9184274-17.1212685,14.7587249-24.5949703ZM698.0891194,888.0131106c-3.6927522-16.7997622,19.9822232-6.2419981,14.7587249-24.5847691,6.6744843,1.5226065,4.0740414,12.3078138,4.914276,19.6727884-8.8263742-.6311536-10.3776714,6.014555-19.6730009,4.9119808ZM693.166725,824.0745188c-3.5614124-21.5931122,10.5659251-25.4949666,24.5953953-29.5074186,3.5613911,21.6033133-10.5661801,25.5051678-24.5953953,29.5074186ZM742.3570905,868.3422349c-5.584194-.9301748-2.7316127-4.9324256,0-4.9138935.6188697-8.8240789-6.0247986-10.3753761-4.9244772-19.6810768,19.1523597,2.0103064,13.1686208,16.8305782,4.9244772,24.5949703ZM737.4326134,730.628466c8.3651122-1.8013954,9.2771374,3.8423053,9.8365004,9.8446614-4.1825561-.9100275-4.6415228,1.9117378-4.9120233,4.9136385-5.7644993-.7906741-4.1538229-8.9650673-4.9244772-14.7582998ZM742.3570905,907.6861115c-6.6744843-1.5205663-4.0819898-12.3182275-4.9244772-19.6730009h24.5951828c-.479369,12.6378635-19.2013678,7.0351374-19.6707056,19.6730009ZM771.8642541,824.0745188c-12.127466,13.2975378-17.7403932-8.5146441-4.9222244-14.7485237,17.4207572.5409584-10.4472092,16.260844,4.9222244,14.7485237ZM771.8642541,765.0578965c.8300335,10.6664914-17.4492779,2.2315864-24.5951403,4.9244347,1.5716995-11.5475307,15.2198593-11.0169434,19.6729159-19.6831595,17.4207572.5511596-10.4472092,16.2710452,4.9222244,14.7587249ZM781.700712,671.6118436c10.2771476-2.0821183,13.0189189,3.3710972,19.6727884,4.9224157-1.7418462,6.4551808-8.6559725,7.7358076-9.8362879,14.7485025-8.6562275-1.1804855-11.217651-8.4553074-9.8365004-19.6709181ZM806.2857362,809.3259951c5.7644568.7908866,4.1517401,8.9654498,4.9223944,14.7485237-4.1827261-.8998264-4.6417353,1.9221515-4.9223944,4.9242646-7.5045178-8.8855408-17.7199909-15.0600413-14.7485237-34.4316832h14.7485237c.2192822,8.4142902-3.6517988,12.7381748-9.8365004,14.7588949,1.2212901,6.1844891,9.7871099,4.9632415,9.8365004,0ZM786.6127353,735.5504779c7.315839,4.1621538,7.1253326,15.8306531,9.8365004,24.5953953-16.5191031,5.043193-7.6540071-15.2996833-9.8365004-24.5953953ZM791.5372125,878.1785229c-16.3306369-11.9283736,9.4962071-22.8939287,14.7485237-29.5092888,16.3304244,11.9290111-9.4964196,22.8945662-14.7485237,29.5092888ZM811.2081306,750.2991716c-5.7626291-.7890164-4.1519527-8.9654498-4.9223944-14.7486937,8.3651122-1.811384,9.2850858,3.8321041,9.8362454,9.8362879-4.1825561-.9016116-4.6333619,1.9205363-4.913851,4.9124058ZM821.0444185,647.026862c-17.5908614,4.112997-46.8481818,15.9002122-59.0166224,9.8364792-5.0923286,8.6152104,15.3694336,33.6201606,14.7505214,54.0921664-24.494574,12.6682119-49.061236-3.471451-73.7751347,4.9220119,5.90383,12.1380497,20.0314012,16.0419869,24.5952253,29.5092463-5.553378,5.9223621-14.0394588,8.9142316-9.8362879,24.5955653-24.7059503,5.7334708-42.8767469-12.5578695-59.0166436,0,35.0422007,28.8780927-17.6606117,52.9814526-44.2681199,63.9284331,13.9492637-18.8406721,29.7081049-35.872213,44.2681199-54.0921452-35.8312171,21.5520525-47.6904354,67.0598458-93.4480718,78.6871155.1699129-21.4821322-13.5784307-29.0479843-14.7588949-49.1797394-11.9061436,2.8421676-10.9368006,18.5702142-14.7485025,29.506781-18.5416509,3.7833511-23.5150511-6.001931-39.3434727-4.9220119-.2213224-8.4058743,3.6515863-12.7382173,9.8362879-14.7484812-.7315074-10.7564741-12.3979665-10.5659676-24.5949703-9.8362879-6.6744843,1.5205238-4.0842425,12.3180149-4.914276,19.6727884-10.1950921,2.9202489-32.3085478-6.0841353-34.4314495,4.9119808-14.2485186-2.7519725,7.5453011-7.6642083,4.9140635-14.7484812-3.6026208-4.5925998-8.9348464-7.4551272-14.7485025-9.8362879-15.6195106,12.2482221-12.5578695,43.1860118-39.3457042,44.2577275-5.6335208-12.0476845-16.3899736-35.2435247-4.9224157-49.1801644-11.0167521,3.1210415-9.8466803-18.6829794-19.6727671-29.5092038-8.8752759,25.555961,7.7462212,59.9263948-29.5071848,63.9384217-7.344551-38.2017304-12.9882729-48.6387384-14.7588949-93.4460103-20.0621535,20.9229817,1.4305624,83.3906527-44.2577275,78.687753,1.8505734-23.4149524-11.7074549-36.7719968,4.9140635-49.1801644-2.141455-7.2935665-6.2952566,1.9407261-14.7505427,0-4.0717886-20.0519736-.7600494-16.930932,0-39.3438765-27.6156155.1211386-10.5863274,42.9258825-9.8342264,59.0166224-34.0422544-21.8040209-41.1471209-47.889294-54.1044078-83.6115926,4.9038623-6.5637168,13.2893769-9.6561526,14.7586824-19.6727458-25.6055216,7.1846267-36.2924153,29.2874988-49.1903443,49.1903656-24.7938502-30.3578544-3.0718422-55.213294,9.8364792-83.6097862-12.5066724.6005289-19.070368,7.1540445-19.6709181,19.6709181-9.4756135-9.104993-3.8833011-9.0148191-19.6727458-4.9224157,2.3319827-15.4496189-6.1335046-20.0929694-14.7485025-24.5849816,15.6480738-26.9763222,28.337113-56.9057709,44.2556873-83.6115926-34.8208571,30.7490684-52.5818438,78.5581984-78.6871367,118.0330535-19.4516359-22.9845064,12.3569493-36.6324749,14.7584911-54.1044078-11.6970413-16.4103971-27.2160067,24.1255899-34.4314495,0,27.3082209-15.7998584-18.750732-79.6693373,4.9140635-108.1965743-17.1400556-13.5170325-26.1956581-77.5376797,4.9224157-83.6097649-5.6622753,5.8138473-5.5637492,17.3901325-4.9224157,29.5073973,15.6399129-5.6745379,3.0410475-39.583561,29.517386-34.4214608,2.2911993-10.4961747-7.0328634-9.3650586-14.7584911-9.8364792,4.7337369-26.414749,30.1485395-32.1486236,24.5949703-68.8610712-15.9206145-6.0739129-3.7623325,15.9185742-19.6727458,9.8364792-22.2323842-18.752751,2.3525762-45.5795626,9.8362667-63.9306646,6.3650282,14.2793134,18.7219775,22.5540604,34.4214608,14.7505214-4.752099-11.6378746-8.625199-24.1647581-29.5071848-19.6727458-.9016328-4.1825561,1.9201325-4.6333619,4.9222032-4.9120233v-9.8364792c14.6193729,15.8182204,24.8554609,8.9040517,44.2577275,14.7485025-.9118127-25.826844,26.126099-39.1243818,49.1801432-54.1023676-7.6252526,38.271927-38.9050783,52.9015011-49.1801432,88.5338171,40.9053962-48.6410125,69.3510451-79.6401578,108.2047352-127.8795213,7.9451012-1.3791741,8.4654873,4.6537642,14.7505427,4.9242434,1.4611658-24.7754881,28.927462-23.5438056,44.2660797-34.4314495-6.9141475,22.6032384-27.5070795,31.5093303-29.5071848,59.0164311,18.6399645-15.1091343,30.7674305-59.7071126,59.0166224-49.1801432-9.1459889-23.8143061,5.7234822-27.3267742,24.5949703-34.4212483,5.311632-28.5276407-12.1193051-51.7026536,4.9120233-63.9388468,19.152381,29.8268421,21.5233193,67.0698344,4.9224157,98.3600951,6.7850392-3.4630988,22.4147509-37.9930744,24.5847691-14.7485025,16.9823628-34.6815264-41.9339057-82.2016451-4.9120233-108.2067754,7.9245076,5.4223995-21.2426389,48.0898316,14.7485025,44.2656971-9.7646673,16.0501266-13.4368472,12.3775429,9.8364792,9.8364792-11.676639,11.6072924,6.1742879,18.7915153,9.8364792,29.509225,11.6868401-3.071651-.7602619-30.2692956,9.8362667-34.4312369,27.6568239.2192822,20.1421475,35.6017125,39.3540777,44.2658672,9.1151942-15.4779484,10.5063759-38.6633536,9.8362879-63.9388255,14.7382801,13.4288988,4.8528566,21.0827147,9.834439,44.2677161,11.8488046,2.0107102,10.6868937-8.9856396,24.5849604-4.913851.1803266,17.8511394-2.7501448,38.8253394,9.8362879,44.2579188,11.6274822-15.3100545,4.0228231-24.2653244,9.8364792-39.3440678,11.7074549,32.8291252,33.8415043,53.9038915,54.1023676,88.5240197,15.2199018-11.697445-27.8369592-45.2680663,4.9244559-68.8529103,22.5232657,31.570941,36.702034,71.4943491,63.9284331,98.3705088-9.7155106-36.1816691-39.0833859-52.7213658-44.2577275-93.4460316,14.2403577,3.7911083,23.9046713,12.1560079,19.6729584,34.4212483,15.1397378,3.6619787,9.4450313-13.4984579,24.5847691-9.8364792,21.7632376,25.7858482,42.8253374,52.2621866,54.1023676,88.5340083,18.541821,3.7829473,23.5152637-6.0043538,39.3457042-4.9226282,6.0823076,8.54546-3.7521526,32.6592123,0,54.1027926,15.2978131-1.1005127,8.3139364-24.4846278,9.8344177-39.3436852,10.7381545-.8914104,15.6501778,4.0226318,14.7607651,14.7485025,4.5923448-3.6026208,7.453257-8.9450475,9.8346302-14.7485025,3.6925609-16.8099847-19.9823932-6.2546645-14.7588949-24.5955653,15.0497976,3.5722086,14.4698623-8.485677,29.5092463-4.9136597,3.871081,24.4556396,1.5103226,27.6772262-4.9140635,49.1799519-15.1091768,1.2808393-22.1134558,10.6664914-34.4316832,14.7505214,9.0966196,15.0293953,23.3759755-5.6747292,39.3457467,0-.2007076,16.189266-8.2953619,24.4846066-4.9140635,44.2656971-11.4267746-3.3317378-13.1686208-16.338394-24.5951828-19.6705143,3.8321041,10.9265782,10.3364418,19.1811355,9.8365004,34.4296005,17.059849,3.9426803,18.9124627-7.3343711,34.4316407-4.9226282,9.1149392,10.5559577,3.3217066,36.0221486,4.9221819,54.1025801-7.795378.4120627-18.7608906-2.3709383-19.6810768,4.9142548-7.1006798,11.2435364,13.3947887,14.0792646,14.7920486,6.7812776-.0197222-.615193-.031326-1.2346578-.0331537-1.8590531.1391182.6806717.1404358,1.2986913.0331537,1.8590531,1.1725796,36.5805553,33.1268288,56.9070035-4.9474298,66.9936446-2.5800406-15.4489814-8.6356127-27.4371166-14.7586824-39.3434727-17.0496904,2.4407099-2.5105028,27.4253003,4.9140635,34.4296217-.5410009,9.2871473-16.2608866,3.4120931-14.7503514,14.7503302,26.2672786,13.0766191,34.1505566,44.5469726,49.1799519,68.8510613-12.2463944,6.1847016-42.415485,17.3715792-49.1799519,0-24.7140687,17.9207198,14.4388763,31.8803971,9.8362879,68.8631114ZM825.958482,691.2827618h14.7588949c1.3913942,7.9449099-4.6437756,8.465466-4.914276,14.7607226h-9.8446189v-14.7607226ZM835.8031009,745.3867658c17.170659-4.403496,8.3957157,16.0399467,4.914276,19.6711307-6.6746543-1.5205663-4.0822023-12.3159747-4.914276-19.6711307ZM840.7173769,824.0745188c.1391182-4.7831488,6.0225459-3.8117443,9.8365004-4.9122358-.1314248,4.7831062-6.0250111,3.8117018-9.8365004,4.9122358ZM845.6395588,686.370526v-9.8362667c4.1825561.9016116,4.6334044-1.9201325,4.9143185-4.9224157,9.5451301-1.9509485,7.182374,22.4025308-4.9143185,14.7586824ZM850.5538773,642.1025973c-5.7134935-.7992175-8.7565813,1.0921605-9.8365004,4.9242646-7.0146926-9.3854609-11.4369757-21.363395-14.7588949-34.4318532,22.6422153,4.7934987,32.1896407-22.703401,44.2658459,0-4.963199,15.9291792-27.0562525-4.8132846-19.6704506,29.5075886ZM875.1488476,804.4035582c-11.9677755-3.0820221-2.6128968-24.8450259,9.8344177-19.6727458-2.5616785,7.2748219-7.2831953,12.3979665-9.8344177,19.6727458ZM880.0608709,696.2070264c.1392882-4.7828937,6.0226734-3.8219455,9.8364579-4.9242646-.1311698,4.7828937-6.0145975,3.8237307-9.8364579,4.9242646ZM884.9832653,622.4314879c5.0042162-11.3873939,9.8876762-22.8939287,24.5847691-24.594779-1.6906704,14.6991331-13.197184,19.5825932-24.5847691,24.594779ZM894.8195532,691.2827618c-2.9017168-17.6502193,5.7134935-23.793925,9.8364579-34.4194206,9.6951295,5.3014309,8.3958857,40.7946287-9.8364579,34.4194206ZM914.4924691,563.4152693c-3.8936936-17.0111386,5.4632254-20.7630787,9.8365004-29.5072061,10.9655551,5.0411528,3.8812397,32.9192991-9.8365004,29.5072061ZM919.4044924,528.9836074c-9.3958533-10.2460766-1.1208938-20.7424638,0-29.5073973,21.7836186-.6207399,4.3937199,25.6057341,0,29.5073973ZM919.4044924,440.4599915v-9.8364792c4.1825561.9016328,4.643563-1.9201325,4.9244772-4.9222244,9.5453851-1.9509272,7.1825865,22.4023183-4.9244772,14.7587036ZM948.9137387,676.5342593c-14.2791008-6.8629505,1.389354-24.2755255,4.9224369-29.5073973,14.3282789,6.8937452-8.7156067,16.9393267-4.9224369,29.5073973ZM968.5948579,607.6729968c-12.3467482,9.826278-16.4699251-12.7790006-34.4314282,0,7.0041089-12.6684457,11.5187124-27.8185971,29.5092038-29.5092463-3.5616462,15.0497976,8.4838706,14.4698623,4.9222244,29.5092463ZM963.6726335,524.0715841c-15.5395803-9.617197,3.1414013-25.907008,9.8364579-29.509225,16.1686512,10.2360879-8.305733,20.7340904-9.8364579,29.509225ZM983.3433392,435.5375758c11.5189674,1.260437,2.8319665,21.6134932,0,24.5951615-11.506471-1.2622647-2.8301388-21.6134932,0-24.5951615ZM978.4313159,597.8367089c-10.867199-.6111338-2.0922557-20.8636237-4.9222244-29.5094376,22.1830361-.4589667-2.1518474,14.8592699,4.9222244,29.5094376ZM978.4313159,538.8200865c-8.7953032,1.4611658-.3094349-19.0826094,9.8362879-14.7485025,2.7012218,10.895996-9.3956833,6.9941203-9.8362879,14.7485025ZM993.1797971,499.47621c-3.981806-.9301748-4.9017796-4.932213-9.8364579-4.913851v-9.8446401c5.7234822.7992175,8.7563688-1.0823632,9.8364579-4.9144673,12.2380634.7421123,1.4405723,16.6504854,0,19.6729584ZM993.1797971,445.3720147c5.7031224-19.4310424,5.6947489,19.4330614,0,0h0ZM998.1040617,435.5375758c-13.7995193-8.5268854-4.6231607-12.8879404-4.9242646-29.5092463-7.7543184-14.0885944,12.8179988,12.41856,4.9242646,29.5092463ZM978.4313159,376.5209321c-3.7029746-24.625765.2990637-29.4888227-4.9222244-39.3434515,5.7029099-10.8384658,33.169206,44.7372878,4.9222244,39.3434515Z"/>
    <path d="M462.0148941,445.3720147c12.7873528-28.1853497,32.8597287-49.1001917,39.343664-83.6095737-23.1444094,14.6275338-38.1633911,63.3872622-39.343664,83.6095737Z"/>
    <path d="M102.9853696,499.47621c5.7132598-32.0602986,35.6406682-65.9099851,34.4316407-88.5234034-16.9309533,20.8407774-40.7760753,60.7764268-34.4316407,88.5234034Z"/>
    <path d="M98.0713061,533.9080633c10.4880138,35.0401605-18.5110475,72.0332673,0,83.6095737-1.0205612-19.260917,19.2629359-42.7453859,14.7505427-49.1903656-19.0622283,12.9882942,1.4199362-26.4557449-14.7505427-34.4192081Z"/>
  </g>
</svg>