<?xml version="1.0" encoding="UTF-8"?>
<svg id="cowberry" xmlns="http://www.w3.org/2000/svg" version="1.1" viewBox="0 0 1016.2437245 1000">
  <!-- Generator: Adobe Illustrator 30.0.0, SVG Export Plug-In . SVG Version: 2.1.1 Build 123)  -->
  <g id="outline">
    <path d="M648.2493706,796.1505796c-15.5156474-3.6165078-31.7740369-21.2334059-46.5447765-10.6914923,15.8435263,9.8544487,31.6427929,18.8681111,46.5447765,10.6914923Z"/>
    <path d="M287.0430356,455.9527148c-1.1273912,4.2194484-2.5018584,8.0173261-4.3208356,11.1955688,2.5086498-3.7881217,3.8260736-7.513481,4.3208356-11.1955688Z"/>
    <path d="M733.8134578,49.2098193C572.372849-33.1535905,373.3078761-20.2444057,187.2146193,150.2314171-92.9280258,406.8636075-20.1811349,687.6208204,154.7680669,845.1014622c134.0281136,120.6455503,276.2197679,150.7799195,364.8497981,128.6418504,46.2282306,51.8067131,111.8993381,16.1641302,156.9079576-14.8220849,72.1481977,14.9531608,166.5990136-65.3182077,179.3319167-150.6898442,25.7841394-10.2054141,34.5240438-47.7393666,42.4179475-67.9379166,141.8180229-179.1219935,168.3170451-395.3284254,10.0214789-559.000772,12.4556127,7.6659192-110.5317673-99.4560045-174.4837079-132.0828756ZM880.3616497,212.3295195c-3.166384,2.2061913-6.5532883.325587-9.6517584,3.7969947-2.3020066-2.0720667-4.6020788-4.1423882-6.9039173-6.2140764,5.0177201-8.8052952,10.8425008-2.1269024,16.5556757,2.4170817ZM829.998369,566.4871104c3.1011614-3.4456088,6.2077055-6.8968105,9.3140814-10.3479911-.5695934,9.8880902,18.4969188,18.7422497,17.9272834,28.63034-8.4281314,6.3730117-18.2490227-13.897321-27.2413648-18.2823488ZM850.3444793,640.9812169c-10.0200492-7.1385039-7.0164482-14.9631692,2.0659271-23.1061254,2.3554967,7.5427701,6.2819692,15.0016467-2.0659271,23.1061254ZM666.5434519,519.2326656c11.1494378-17.013495,24.365013,5.1289685,36.894553,14.4896014-8.5465076,3.9645926-17.1266567,7.4436748-25.518224,14.4813382-13.8873126-9.1210841,2.5180904-19.8433374-11.376329-28.9709396ZM606.8820485,571.6503301c13.6889117-10.3974442,28.6963405,4.2782369,43.1007026,7.5916345-.377353,17.2367066-30.6212044-2.0991902-43.1007026-7.5916345ZM634.812329,603.0369847c-8.4198472,5.2488585-19.5625567,8.3877405-19.9993711-5.5170867,6.2889078-5.3227438,13.0061776-2.5277203,19.9993711,5.5170867ZM599.2961751,552.3382978c6.8815877-14.7713283,15.5575732,4.2890022,23.4522969,8.6249765-8.8199082,4.7481462-23.0505118,4.7410394-23.4522969-8.6249765ZM599.29771,614.7575718c-9.6286929,4.3896535-19.6464713,1.3548711-30.0042816-8.2747891-.9215259-11.9274195,10.6851214-6.2425245,18.6216027-20.6888335,10.6343227,9.293476,6.8527401,19.3491642,11.3826788,28.9636225ZM641.0187099,596.1417302c16.5289517-13.7347062,18.3852919,21.5624833,0,0h0ZM646.8881287,457.8549968c10.797295-2.8671635,21.8233945-1.4761068,33.1031302,4.829748,14.9983876.240537-8.2768917,1.4632178-13.1043268.6890839-3.392308,10.850785,19.9160662,9.7593483,27.5854337,24.8291191-9.2905744,10.6343227-19.3493324,6.852719-28.9622558,11.3813121-10.850785-13.6652364-11.4648273-27.8696626-18.6219812-41.7292631ZM624.4749349,406.4660486c12.4972021-12.2322329,26.2490444-.7179315,39.6564395,4.4914612-9.5750136,5.2494262-19.3395553,6.9264361-28.6193644,17.9267367-12.9261317-6.9868437,1.8892459-15.4313333-11.0370751-22.4181979ZM708.2817562,188.5302732c-5.7252858-20.6857637,15.9563095,5.2563648,0,0h0ZM716.5584586,283.3632149c3.2707148,3.1103918-1.1297671,6.6296966-2.7634424,9.9966052-3.2657106-3.1159848,1.1282112-6.6281617,2.7634424-9.9966052ZM708.6227552,319.9200278c6.9913012,8.0326961,13.7158249,10.8342376,19.9995603,5.5168975,7.2714511,12.1835368-10.4203415,13.594421-5.5186427,20.0013055-7.2795251,7.2270022-15.9407083-11.7080766-23.788439-15.1773396,3.0998158-3.4440739,6.2074953-6.8967894,9.3075213-10.3408633ZM730.7001854,177.4930089c3.4442211,3.100026,6.8967684,6.2075373,10.3481383,9.3140814-4.3180601,1.1278117-8.6376762,2.3583983-12.7654513,7.2416363-2.199442-3.1735328-.3251876-6.5531411-3.7890889-9.6604421,2.0705108-2.3002825,4.1358491-4.5949931,6.2064019-6.8952756ZM728.9771497,144.7268408c-6.9073655-15.3097401,21.1720522,3.5241197,0,0h0ZM744.1439343,308.1921448c-6.2900853,5.3244679-13.008133,2.5157986-19.9996024-5.5168975,5.439543-.6542649,10.7136116-4.4535514,15.8593378-10.6935949,9.3575631,4.9815765-1.0120217,11.0008894,4.1402646,16.2104924ZM747.9347474,380.2720501c2.2931757,2.0639717,4.5947618,4.1354496,6.8952546,6.2061706-5.1717143,5.7458913-10.3433444,11.4917825-15.5150587,17.2376528-4.1850919-5.6342644-1.7926737-27.8636913,8.6198041-23.4438234ZM732.0696485,453.3754783c-3.2656686-3.1159848,1.1211044-6.6347218,2.75499-10.0043218,3.2707148,3.1104129-1.1211044,6.6374132-2.75499,10.0043218ZM722.4211701,269.9088689c26.5399807.9900285,4.5166293,21.3375265,0,0h0ZM683.7865084,409.917061c8.128932-12.1897184,17.2944019-4.3848596,26.558862,5.1736066-5.1782323,5.7531873-10.3499045,11.4990786-15.5216188,17.2447806-12.9249543-6.985519,1.8959953-15.4250045-11.0372433-22.4183872ZM672.4117143,380.9476564c-10.0327699-16.255509,17.2238387,8.2774594,0,0h0ZM668.9613116,440.2726864c-6.9008475-15.3168469,21.1783599,3.517013,0,0h0ZM680.0033698,400.2646929c-10.038552-16.2605132,17.2180145,8.2724552,0,0h0ZM697.9299593,366.4663182c-2.0705528,2.3002825-4.142199,4.6020999-6.2064019,6.8952756-2.364706-3.2703153-4.4616254-1.5761903-6.5533093.3513649-7.9237816-4.6559684,9.1018243-20.2428097,12.7597112-7.2466405ZM695.8576824,451.9974997c11.9832434-19.196768,7.4238473,36.3239714,3.4456088,3.1013507-.0433135-.4318102-3.6107467-2.8311881-3.4456088-3.1013507ZM701.7205621,438.5431537c7.5933586-1.3685379,14.8248183-9.6687053,22.4181769-11.0372643,5.4836555,9.8382587-15.8613983,24.3669263-22.4181769,11.0372643ZM712.0629393,572.6878984c-10.7395577,10.310649-29.4823751-12.2239697-17.5892279-22.0658659,9.4930544,14.0035231,8.0906226,8.0546262,17.5892279,22.0658659ZM716.2088389,401.6499885c-4.6023312-4.142199-9.1988591-8.279583-13.8007277-12.4217819,7.2050511-8.9065141,14.4351231-17.0808412,22.0752855-17.5826889,4.3948469,9.6204087,1.3600855,19.6381871-8.2745578,30.0044708ZM696.896407,346.815053c-10.0247169-16.2611019,17.2245536,8.2653274,0,0h0ZM693.4510085,281.2961524c-10.0249272-16.2614804,17.2243854,8.2651592,0,0h0ZM694.1400714,294.4004792c-9.9662017-2.0495479-19.8294813-2.2793196-29.9963758-8.2807394,4.3167145-1.1289681,8.6376762-2.358209,12.7515952-7.2408583,5.7458913,5.1716722,11.4988893,10.3499045,17.2447806,15.5215977ZM664.8256517,361.635624c-10.031256-16.2541633,17.2253526,8.278805,0,0h0ZM713.4413174,598.8967201c-11.8531768-.6867711-34.5761461-1.557309-37.2439624-21.0279192,16.3544151-9.1401126,26.9552435,11.3093613,37.2439624,21.0279192ZM722.755567,463.7236587c3.7162129,17.0486925-23.8642586,18.497865,0,0h0ZM739.9932408,479.2386963c12.1962364,8.1218041,4.3985475,17.293666-5.167425,26.551545-5.7182211-4.6242192-11.6640272-13.4947369-16.9010902-8.9625063-5.5050178-10.2502204,17.1473883.0552352,22.0685151-17.5890387ZM759.9932217,547.176613c-9.0669843,14.9137161-19.1598254,10.3237272-29.651571-1.7229936,3.1063759-3.4513909,6.2075373-6.8968105,9.3140814-10.3479911,6.6006387.7081334,13.3319749,3.7706281,20.3374896,12.0709848ZM742.0608921,580.9697732c7.9238026,4.6561786-9.1004997,20.2416533-12.7531301,7.2397019,4.0332845-6.4401476,8.5982315-3.0049466,12.7531301-7.2397019ZM757.5823006,626.1429209c7.5812476,14.0123961-12.7777725-4.4267854-16.8982307-8.9626955-7.5822148-14.0106509,12.7714227,4.4341024,16.8982307,8.9626955ZM755.8529571,593.3838596c11.6689894,5.9565925.7768253,13.1052729,7.5858734,19.3118431-4.5016588.6844582-20.117516-6.6141164-7.5858734-19.3118431ZM757.5863376,376.4750554c-4.5950141-4.1358281-9.197093-8.2780271-13.7934107-12.4152218,9.4903211-7.016301,18.6179442-20.910342,28.9723062-11.3749833-11.9697868,8.2880564-7.7879329,15.734801-15.1788955,23.7902052ZM783.4503335,430.9570911c-4.6244084-4.6954341-9.2467563-9.3527482-13.4472392-5.8563407-2.5848479-6.4411358.2101335-13.1584056,5.517297-19.9995813,10.4840502,8.2035741,19.2006157,16.5068323,7.9299422,25.855922ZM782.0735114,467.1673331c-10.0325807-16.2551305,17.2169002,8.2713198,0,0h0ZM763.4532543,238.1887215c6.2204052-6.8098261,13.3552717,4.0829268,19.3120113-7.5858944,6.4459718,9.7135537-13.8474474,19.0690142-19.3120113,7.5858944ZM776.2213969,293.3648243c-13.5076678-5.8586535.7970522-13.1866855,5.5113256-20.0047747,2.583334,6.4396009-.2116894,13.1570389-5.5113256,20.0047747ZM780.3556901,309.5703126c.4714862,21.5561124-22.2395824,27.6560599-29.3149874,4.8295377,9.826316-.4768268,18.7247561-18.7283936,29.3149874-4.8295377ZM750.0121967,169.9071355c-10.0325807-16.2553198,17.2166479,8.2712988,0,0h0ZM780.6937876,440.9600462c-5.3289044,2.8864233-10.7891789,3.1136719-16.5541618-2.4184274,5.3225545-2.8792955,10.7830814-3.1061656,16.5541618,2.4184274ZM776.900115,493.7263843c-10.0316555-16.2543526,17.2166479,8.2711095,0,0h0ZM781.3796125,516.4895973c3.2706728,3.1104129-1.123207,6.6225899-2.7636106,9.9968155-3.2655004-3.116174,1.1283373-6.628351,2.7636106-9.9968155ZM798.6170761,594.4225843c-18.0864499,1.0060083-11.6116305-16.0640466-21.035047-25.1802947,9.3062177-14.558125,37.9386603,17.4474078,21.035047,25.1802947ZM792.4216917,476.4816037c-10.0314453-16.2543526,17.2166899,8.2711095,0,0h0ZM805.1748218,531.6598302c-2.0718564,2.3018174-4.1358491,4.5949721-6.2075373,6.8967894-2.3637388-3.2718502-4.467765-1.5840541-6.5577458.3450361-7.9191349-4.6648413,9.1002894-20.2416533,12.7652831-7.2418255ZM817.5844718,642.6970827c-10.3764393,10.9939718-22.2567396-6.7086071-33.4496591-11.3732382,10.6056223-6.5327249,21.7876083-2.0807083,33.4496591,11.3732382ZM814.8279259,590.2821305c4.5253761-.2311174-2.7455283,22.1537965-5.8626695,13.4545352-.4864567-1.363744.3044139-13.1620641,5.8626695-13.4545352ZM788.6297012,341.9854942c3.1011614-3.4454196,6.2075373-6.8967894,9.3075634-10.3408633,8.0473092,7.2433604,16.0936511,14.4855644,24.1413388,21.7293033-10.8018786,2.7719159-22.223056-6.0984126-33.4489021-11.3884399ZM799.6652624,301.9846284c-11.2768551,5.5592228-12.7747027-16.4656425-4.4835765-22.7562954,13.792023,6.9416168-.8968835,15.3726498,4.4835765,22.7562954ZM824.1458761,330.2664631c-10.0262729-16.2626158,17.223208,8.2638135,0,0h0ZM817.9439317,274.7503494c8.2420516-8.1138984,12.5834085,9.4976381,13.7935789,12.4152218-8.2372157,8.1052567-12.5841655-9.511305-13.7935789-12.4152218ZM837.6003903,336.1291536c9.506511-6.5569678,19.9226053,4.0511776,29.997364,8.2790153-9.5792188,13.0560091-29.1806735-.1420094-29.997364-8.2790153ZM856.5730005,259.5728205c-10.0314453-16.2568757,17.2180356,8.2695746,0,0h0ZM845.1858852,293.020377c-2.8858135-5.3154267-3.1074692-10.7842168,2.4109211-16.5483796,2.8930044,5.3217766,3.1148704,10.7907559-2.4109211,16.5483796ZM838.6389468,230.9467068c-3.5718487-4.7521832,2.6903562-9.9871856,6.2074953-6.8967894,3.6401831,6.0435558-3.0776544,2.7147673-6.2074953,6.8967894ZM842.7778657,184.7381145c-6.8879375,14.7788135-15.5560593-4.2872991-23.4509723-8.6261539,7.5358736-2.4863623,15.595504,5.0096672,23.4509723,8.6261539ZM828.2911449,221.6328356c-7.7640894,14.6768166-15.9572347,7.0603504-16.5500827-2.4122878,5.3167514-2.886991,10.7858989-3.1061656,16.5500827,2.4122878ZM815.8708978,297.850125c2.3016702,2.0716672,4.6021209,4.142199,6.8966002,6.2075163-11.6797547,19.9172226-24.0748126-10.1501789-6.8966002-6.2075163ZM796.9100622,187.1503812c-10.0329591-16.2553198,17.2165217,8.2712988,0,0h0ZM797.9491653,206.8068609c-7.5419711,2.4811478-15.3530326-.3958348-23.4577006-8.6192154,8.50147-10.9129588,23.2466419-1.0951163,23.4577006,8.6192154ZM772.7755779,165.427617c3.6315204,6.0385727-3.0793785,2.7163022-6.2074953,6.8967894-3.5728159-4.7656608,2.68859-9.9860292,6.2074953-6.8967894ZM764.1554374,126.4535332c-11.2164265,15.7359574-24.3767454-5.3552709-36.5566657-7.9355351,11.8914861-3.0370743,23.6788096-7.9209011,36.5566657,7.9355351ZM726.2219915,92.3105219c-12.6796654,8.7675746-25.7839711,9.4566585-39.3131486,2.067441,13.0525609-1.674697,25.2437931-19.7219125,39.3131486-2.067441ZM682.4187274,196.4540548c3.6399518,6.0433876-3.0707579,2.7211172-6.2063599,6.8952546-3.5733836-4.7510268,2.6960963-9.9794691,6.2063599-6.8952546ZM672.7652028,75.4109456c-5.3217766,2.8929624-10.777089,3.1140714-16.5485689-2.4111103,5.3219658-2.8925629,10.7845953-3.1073221,16.5485689,2.4111103ZM653.1052749,326.1208158c2.0797622-19.0703389,4.068503,18.7468544,0,0h0ZM558.6098629,340.9481152c11.4742679-32.9661039,52.1049664-49.4658085,76.5627039-43.4522567,5.0837416,15.0649558,5.8929048,30.3475514,2.4111103,45.8697379-1.4872715-7.5885857-5.2963772-15.0536229-4.4768272-22.7634232-25.435655-4.771422-48.8802564,28.583389-74.4969871,20.345942ZM541.7179821,331.9785022c-32.3861238,8.8483984-65.1913791,9.8370812-98.2856573,5.1686024,10.7201507-15.8887531-1.1959358-30.6011877,10.6909036-46.5582331,10.9837532.5776673,21.9026834.0048149,32.7598182-1.7162653,1.7647512,11.9503378,7.7023151,23.6822579-1.3766119,36.2106414,16.7429329,2.0528069,3.9688189-21.8509174,14.8324928-30.3491074,21.135488-14.4518808,43.9037052,2.0149181,65.5191108-3.4456088-3.3130401,10.0872482-16.2541844,16.5620465-21.3862226,30.6869946-12.8174065-14.7251342-25.0919857-19.1072815-37.2360777-21.0336803,5.0221566,18.3776175,17.3140611,11.139072,34.4822441,31.0366564ZM454.4665193,234.7273223c12.6867511-8.7610355,25.7825834-9.4553128,39.318342-2.0732021-20.9930791,18.1744015-3.7675373,34.1104841-44.8367954,22.0743183,10.9797372-7.1477133-.5947825-13.1079643,5.5184534-20.0011162ZM471.0285658,174.7193689c3.264344,3.1175196-1.1297461,6.6296966-2.7563356,10.0031443-3.2720395-3.1090462,1.1147335-6.627573,2.7563356-10.0031443ZM492.7445807,275.4171037c-14.8567568,8.9145881-30.1464591,9.7200928-45.8626101,2.4172709,13.7658877-13.9096212,41.1185009-15.3480284,45.8626101-2.4172709ZM528.6121204,270.2485013c4.8901766,17.6084667-19.3593618.6977466-25.5195486,14.4826838-3.4255921-5.2940854.0400334-10.9499014-4.1404538-16.2108709,12.9622964-7.2177718,24.3534276.4577773,29.6600024,1.728187ZM507.5842223,245.0743462c3.2655004,3.116174-1.1270547,6.6297177-2.762307,9.9979719-3.2706938-3.1102026,1.1218613-6.6237463,2.762307-9.9979719ZM555.8585315,163.6892324c5.9131108,14.8336492-12.634018,27.4124531-25.5183922,14.4813171,8.006708-14.3829997,16.9409344-11.1036433,25.5183922-14.4813171ZM531.7240682,141.9664682c4.2218663-2.9828273,8.9565349,3.8325706,13.1043268-.6890839,6.5983259,11.4631031-16.6771216,12.6857839-13.1043268.6890839ZM532.7522168,224.0410654c2.300661,2.0707,4.5951613,4.1360384,6.8967894,6.2077055,13.808213-11.8012006,12.0688611-.2611214,20.6890437,18.6216027-19.6043353,4.5530253-28.657863,8.0377003-43.4463063-14.1367016,5.4335926-.6594373,10.7132121-4.4539299,15.8604732-10.6926067ZM571.3737794,208.8696761c11.3584149-13.1685821,22.4970874-30.2569295,35.5226929-11.7265374-.7933727,16.1760519-23.4790419,16.0126801-35.5226929,11.7265374ZM604.8236487,282.6635339c-6.9073865-15.3097191,21.1720311,3.5241197,0,0h0ZM595.17168,224.0397198c-2.0718774,2.3018174-4.1371948,4.596507-6.2077266,6.8967894-3.4453985-3.1011614-6.8966002-6.2077266-10.3406741-9.3075423,5.2850232-3.4330983,10.9483665.038877,16.2027969-4.1344824,3.5067943,2.0016297,2.0420416,4.2645701.3456038,6.5452353ZM593.7937014,260.2516858c-3.260307,23.92454-36.212744,17.529388-51.3879811,22.4120584,3.2776324-23.4382726,36.0961551-19.7436533,51.3879811-22.4120584ZM623.789888,268.532236c5.1291577-6.5852477,10.7732623-3.4740779,15.8608517-10.6922282,12.2357022,8.1183138,12.7021421,16.8556951,1.3768222,26.2074761-5.7458913-5.1716932-11.4915933-10.3433654-17.2376738-15.5152479ZM645.169172,237.8388916c-9.6217544,4.3960034-19.6328044,1.3541141-29.9990671-8.2805502,5.4408886-.6528982,10.7207184-4.4472016,15.8679584-10.6858994,9.5749926,6.0668736,1.822089,13.0448654,14.1311087,18.9664496ZM638.6343235,50.9272411c-5.4474277.6602153-10.7207184,4.4471806-15.8731518,10.6916605-4.5951613-4.1360384-9.1899441-8.2716982-13.792044-12.4138972,9.378526-9.1222195,19.2260151-9.2992581,29.6651958,1.7222367ZM624.4907044,94.3779629c5.2944638,6.2400435-16.0505689,20.7687111-22.4183872,11.0372643,7.1890924-9.0590996,15.0270671-5.8016942,22.4183872-11.0372643ZM606.9020652,134.7304038c3.6341907,6.0383835-3.0715359,2.7076605-6.2075163,6.8968105-3.5716594-4.7647147,2.6899356-9.9875641,6.2075163-6.8968105ZM600.0052547,66.1049592c-4.9825226,9.3440855-11.0018355-1.0256255-16.2043108,4.1331578-7.3243734-9.1308822,11.8200609-13.5542193,16.2043108-4.1331578ZM564.4833187,140.2369145c-4.5951613-4.1360384-9.1899441-8.2716772-13.7935789-12.4152218,7.5435481-2.3418508,14.9964533-6.2762292,23.1011212,2.0743585-3.100005,3.4440739-6.2063809,6.8952546-9.3075423,10.3408633ZM545.8669094,36.0947273c7.1804507,11.6203143,13.3079212,3.1769811,20.3449959,12.0777131-12.6794341,8.7675746-25.7897323,9.4487737-39.3118029,2.0660953,12.3775223-3.5774206,13.054285.1293097,18.966807-14.1438084ZM509.3000881,215.4164464c-2.1996312-3.1735118-.3186485-6.5469595-3.7890889-9.6602529,5.3223653-2.8792745,10.7830814-3.1063549,16.5539726,2.4184484-4.0380994,6.4488103-8.6026679,2.9984076-12.7648836,7.2418045ZM512.4133815,149.5509959c-10.0314453-16.2541633,17.2180356,8.2724552,0,0h0ZM499.3086763,87.8219623c-6.9006372-15.3166577,21.1706855,3.5256546,0,0h0ZM494.4797063,183.3457121c-.1325687-2.5198566-13.0413961,7.0684244-12.7652621,7.2416153-6.3518385-3.9640039,11.9306995-22.9789394,12.7652621-7.2416153ZM479.996644,95.4078356c-7.5414245,2.3543613-15.0014574,6.2821795-23.1074711-2.0670625,7.5445153-2.3279737,14.7607312-10.894477,23.1074711,2.0670625ZM460.6861465,40.5746242c4.7483565,14.9687621-18.3914525,19.2600772-25.863996,7.9359136,8.5886226-3.317834,17.3812181-2.5771734,25.863996-7.9359136ZM417.573333,220.2388773c-6.6476108-13.6792818,14.4120576-8.4902842,18.6216027-20.6888545,18.2746533,18.3420205-8.6579031,18.7358999-18.6216027,20.6888545ZM419.2965159,253.0052556c6.0660957-9.5884703,13.0500588-1.8278711,18.9672065-14.1434299,9.7106732,14.6337344-3.8106405,26.9481367-18.9672065,14.1434299ZM432.7491377,134.0307438c-10.0247169-16.2610809,17.2247639,8.2653484,0,0h0ZM432.061778,183.3457121c-9.1085526,14.2808136-19.6803441.6873388-28.9711288,11.3761187-3.5845273-12.3838721,20.0580756-30.1295543,28.9711288-11.3761187ZM426.8929863,85.060244c7.5210293,12.8789705-12.0068976,10.2363643-15.8666128,10.6870348-7.5295028-12.8995759,12.2422412-5.6317834,15.8666128-10.6870348ZM418.9572619,121.6170569c4.2457308,13.8919173-4.7054215,15.5260132-15.5152269,17.2374636-7.2812702-8.1531539,11.6478372-16.9342061,15.5152269-17.2374636ZM411.7108317,233.6961039c.8222413,9.8066987-4.8647562,19.96533-14.826164,30.3392882-10.0733921-13.8784397-1.8921265-32.2812673,14.826164-30.3392882ZM392.7469053,60.57614c13.997762-11.4173086-15.506396,25.4978078-22.4106917,11.0309144,7.4344444-4.4218022,14.6631707-12.7219696,22.4106917-11.0309144ZM302.3944702,216.4394016c9.1070177-14.1547839,19.6414671-1.2944635,29.9963758,8.2805502-17.8282301,2.9758888-18.3502837,10.2278908-31.3795478,27.9370088-11.990161-11.4136501,3.5277572-24.2793532,1.383172-36.217559ZM331.0126782,198.5112982c4.1920305-26.7947733,38.2074562-21.4246791,54.4889323-25.8578354-4.1189022,28.0543968-38.4329807,16.9798114-54.4889323,25.8578354ZM384.4677008,152.9916005c3.6399728,6.0435769-3.0707579,2.7213064-6.2075163,6.8967894-3.5641532-4.7579653,2.6972527-9.9808358,6.2075163-6.8967894ZM387.2313534,205.4129026c4.5072307,10.4574944-18.0597259,25.5405325-25.5253308,14.4774904,8.7583442-.0937127,16.7606367-14.3764607,25.5253308-14.4774904ZM332.3966072,162.3072168c-6.6500918-13.6190634,14.2827479-10.9706961,18.9670173-14.1436191,6.2650433,6.273706-14.3181557,10.3772172-18.9670173,14.1436191ZM344.4725961,79.5433465c6.5569678,9.50649-4.0583054,19.9160452-8.279583,29.997343-7.7011377-.6583019-15.7690523-8.2867108-23.1074711-2.0670625-2.7293804-15.9316671,22.6743152-22.8072834,31.3870541-27.9302805ZM313.7746259,120.5779327c9.6787347,13.9939143-7.2264135,8.8614976-15.1771504,23.7890698-6.6152728-2.6253018,3.687113-21.0123389-7.2346977-12.7591225-5.7687885-15.2627681,16.8984199-4.5512801,22.4118481-11.0299472ZM318.6043739,149.8933196c3.5643214,16.6544136-30.9916188,16.2597562-4.8293695,33.1027517-7.0949802,10.8473157-15.7707764-8.3402008-23.0995864-2.0730339-3.6332235-13.1508783,20.2986126-25.3902389,27.9289559-31.0297178ZM320.6677779,376.453714c-10.2995053-8.3940904-19.2595095,8.7123394-28.6259245,17.9338645-12.1668001-29.0346272,21.6598545-54.3011494-.6894624-75.5224443,11.2912579-14.448811,24.2316242,2.7228623,35.5215575-11.7275046-12.7079243-12.6447833-23.68476,7.6763271-36.5554672-7.9343577-.6862034-17.863827,22.5082521-43.6333323,40.3507168-44.8304245,6.7114876,16.3013035-8.3534892,13.3581312-14.825386,30.3529341,5.901168,8.2322535,10.9997329.9873582,16.197204-4.1396969,2.1780796,52.4534508,8.0005474,104.7069656,8.2764922,157.2533722,21.6552288-32.9212976-17.3814073-91.0536509,15.8650779-135.5242371-5.7841796-6.0045106-11.0703592-2.3304968-16.8947614-8.9696341,2.3976537-21.2728716,15.6487838-26.6675873,33.800288-44.4790596,16.4248521,52.7923052,3.1280957,107.1409732,18.2662009,160.0077524.9228716-43.8465356,7.5298812-87.9973168-.3394432-131.3881987,15.0518777-7.7505908,43.5984923-13.4487531,49.314758.687549-12.8001021,6.4742307-26.5655903-5.434728-38.9667878,8.6263432-1.2740472,11.7430849,24.8422182,18.5236428,33.1039081,4.8278136,11.9595682,21.2669003,4.2849653,43.579653,10.0048895,65.1757989,32.0503391-22.4463097,90.2516155-12.41293,134.4824426-3.7914018-8.0326961,6.9914694-10.8342586,13.7160351-5.50998,20.0063096,13.7212496,11.1692653,25.0402197-23.5723762,38.2763373-21.7293033,13.2638508-.597684,5.3872094,7.6160877,10.6872451,15.8664235,6.0653177-9.5763593,13.0446761-1.82211,18.9727784-14.1384257,6.9649136,9.5330458,16.5678287,15.6120304,21.3779384,31.7257193-17.1818499,4.7281295-48.5506324,8.4818317-56.5615877-13.4468397-35.9793348,26.8086294-99.8366165-.302879-146.9047923,17.5782524,48.1409625-.7877798,96.4962637,2.4771319,144.8377298,5.5292187,7.152339,13.8526829,7.7650356,28.0561419,18.6171873,41.7225348-47.6606664,9.9460168-96.6194338-4.949617-144.143074,7.5801122,42.542274,13.3619789,99.6663272-14.6312323,132.416915,19.3177934,5.602347,2.3116365,11.0578487,1.962963,16.2164638-4.1352604,16.5004615,12.2714884,4.0455847,26.0685576,15.1732816,38.6225297-36.0359157,1.9691025-72.3017713-.4614358-107.9459102,8.9578806,35.1276571,1.6088857,70.0371068-.9032544,105.1822786,1.0387247,1.5979102,14.3801192-24.8277734,24.0705864-34.4872693,31.3897454-17.8813206-4.4870248-8.9836584-12.8351103-14.4899798-25.5260877-8.7664181-2.2519858-20.9436261,4.1223715-12.4150536,13.7935999-14.3569486-7.4035572-30.9936373,6.0941864-30.4410329-12.9807151-.8492597,4.9052312-5.8986659,10.0311719-2.312057,14.7029308,15.147714,3.360748,33.703884,2.5121401,40.6903492,24.1402454-16.8835966,6.4684485-19.8533247-4.8911228-22.0656766,17.5888284-10.2481178-9.3123363-3.6532192-19.5173509-11.3826578-28.9636225-13.6379237-4.2488006,4.445078,16.9038025-8.6257544,23.438651-17.7624188-4.6452031-35.9681911-17.5909521-53.1052136-10.3464562-9.9777449,15.5037046,12.7196568,32.9108898-11.0420582,40.0080146,24.8864569,9.3173404,14.1091576,29.3473253,25.5197379,47.9352445-7.5749188,1.6167705-15.3982594-1.3883654-23.1011212-2.0716672-16.0467422-9.010046-4.6859935-19.4588566-11.3815224-28.9651574-19.1863812.7025405,3.2433811,13.7518213-8.6182482,23.4451691-13.155504-.1552767-27.0231784-14.1380262-40.0006976-11.0353299,6.8962217,14.9693298,13.2191916,29.9688528,15.5152479,45.1802545-21.8186005,1.5690625-44.054188-4.7408292-67.2488327-29.3136417-.1754827,9.8605672,13.7104843,18.9831652,11.3828681,28.9636225,25.8472593,4.2420723,33.1204555,25.4935605,38.622719,47.2476955-14.4060862-3.239302-28.5954999-.6684574-27.2481352-18.2782908-10.0664535,24.2512625-68.1405228-27.7155423-101.3868188-53.8033387,17.2484391,39.613925,73.5331148,63.1501365,106.2094389,83.1123547-17.7637434,19.3282013-51.7283704-11.1280754-72.4160684-2.7620968-18.8532878-11.6742038,8.1831789-37.4498907-15.1704221-38.622719-24.6091664.0117325-16.6838499,26.7918717-40.3520624,44.8319804-26.1066356-4.3350491,2.1480755-46.377557-22.4120373-51.3879811,9.0589103-13.6910353,20.1086851,15.1888829,36.9016387,14.4932599,1.1794094-23.956079-35.012582-30.9417872-42.0702411-50.3609889,18.7820939-31.4055359,35.8877457-43.0448997,42.0750561-74.4833412-13.5103381,2.0012512-21.1941504,31.632406-40.3520624,44.8317702-16.2462786-40.7588518,29.7548926-84.7845496,52.4278622-127.5958298-21.5070588,3.9715102-36.0722906,43.9581624-50.0036526,48.6260525,6.127092-35.3626012-3.6359148-69.8933523,33.7902797-106.9033378,3.4137124,9.3048721,7.673047,18.5646014,6.3896222,28.1160449,6.6385906-24.846087,4.650796-64.4115681,33.6247423-79.4990008ZM476.526603,654.0710988c16.9113088-20.4387086,19.9941777,21.0315567,33.1040763,4.8280028,4.0767872,9.6383228,7.3047562,19.3268556,11.3826788,28.9636015-20.7873821,7.2487431-37.5905334-15.2798833-44.4867551-33.7916043ZM496.5205914,722.0011307c-8.0507784,3.8643198-6.7132118-5.1401753-10.3408633-9.3077316,8.0507784-3.8645301,6.7205288,5.146441,10.3408633,9.3077316ZM473.7645063,726.486978c-8.0123009-10.5277001-13.3721976-21.1935827-21.3779384-31.7259085,9.2752044-10.9551158,19.663208-.9080693,30.0029149,8.2736326-12.1210055,8.3026485,3.4971855,15.1480715-8.6249765,23.4522759ZM430.6572436,718.9026606c-4.0759882-9.6506651-7.304546-19.3268977-11.3749623-28.9723062,18.7586079,2.6366559,25.1851096,9.6640796,37.5824594,27.5927507-8.5888118,3.2659209-17.8265059-5.7327711-26.2074971,1.3795555ZM428.2344008,860.2888102c-3.5653096-4.7591007,2.696685-9.9943134,6.2075163-6.8967684,3.6453554,6.037984-3.0713256,2.7078077-6.2075163,6.8967684ZM436.5197448,643.0274847c23.7534518-17.770682,50.0221345,21.1375906,38.2852102,40.6965098-23.1095947-1.5853997-33.80914-21.2757522-38.2852102-40.6965098ZM514.8042859,632.3402396c-17.5314906-6.7364875,1.9098514-15.4255722-11.0372433-22.4183872,8.5164615-4.6651988,17.4774119-.9040113,26.5523019,5.1809236-5.1716722,5.745702-10.3433654,11.4915933-15.5150587,17.2374636ZM499.28252,587.1671129c26.5509563.9896501,4.5231894,21.3305879,0,0h0ZM494.8029805,564.4038789c4.0456057-6.4422712,8.6053593-2.9985968,12.7650729-7.2418255,12.3315385,8.1135199,9.056997,17.0417749,14.4826838,25.5195697-8.4329464,6.378962-18.2538797-13.8913496-27.2477567-18.2777441ZM537.5657958,565.4441385c4.6245977,4.6956234,9.2555662,9.3579626,13.4560701,5.8613448,6.5261858,10.6129603,2.0755149,21.7933904-11.3884399,33.4491124-8.8603411-12.6746192-16.7227269-25.4004365-2.0676302-39.3104572ZM559.9845615,616.8250128c10.2319488,10.4162835,10.8063572,21.3340572,1.7160761,32.7600285-17.281534,1.1687913-23.3314607-31.8846756-1.7160761-32.7600285ZM379.2694728,803.7325842c4.2207099-2.9814396,8.9644196,3.8266413,13.1043058-.6890629,8.209924,10.0684089-9.5873138,11.0043587-13.1043058.6890629ZM399.6134804,815.7964832c2.1996522,3.173701.3253978,6.5533303,3.7904556,9.6588652-2.0653384,2.2947316-4.1358491,4.5950141-6.2077266,6.8968525-3.4440739-3.1000681-6.8967894-6.2075373-10.3408633-9.3075634,4.3259659-1.1364533,8.6390429-2.3597439,12.7581343-7.2481543ZM340.301928,812.3454918c-10.031256-16.2541633,17.2180356,8.2722449,0,0h0ZM327.197412,750.6166263c12.0384576-7.4771691,4.643479,12.2942174,17.2445914,15.5214085-15.2531593,17.2446124-18.5178817-5.4293664-17.2445914-15.5214085ZM342.3691587,789.2377894c-8.1011777-10.1603344,16.0305732-7.5666136,16.5557177,2.417313.0525229,1.0019292-17.650813-3.7954388-16.5557177-2.417313ZM354.1010998,762.3477685c-2.1066964,2.0025969-30.9648737-22.244965-14.826164-32.0759487,11.1854343,4.5174704,22.1807307,5.4230166,33.7931602,17.9323717,2.6106678,5.0286956-39.4895984-14.5392857-18.9669963,14.1435771ZM323.7533381,747.5166424c-5.4732055,5.2457256-11.7444305-16.5266598-4.4847119-22.7574939,13.7918548,6.9414696-.8955589,15.3738483,4.4847119,22.7574939ZM294.7824196,758.890259c6.5802436,5.1347086,3.4752344,10.7718956,10.6870348,15.8664446-8.1194913,12.237195-16.8503125,12.696318-26.2086325,1.378336-.5455397-12.4029217,7.6693885-4.4002716,15.5215977-17.2447806ZM294.4381615,752.3461801c-18.5342399,3.7890889-7.8477728-24.4244744,0,0h0ZM296.5054132,729.238688c16.2957317-.4695098,13.7166239,18.5802237,17.9340537,28.6259245-9.2015084,10.0670632-30.832284-17.7951142-17.9340537-28.6259245ZM214.7873743,611.9867913c-9.4551236-9.3608221,24.286481-20.9867293,14.8325138-30.3490863,9.4635971,2.9312506,4.0914002,34.721057-.6960015,49.3097538-10.1111126-4.3151796,3.340542-25.8080038-14.1365124-18.9606674ZM133.7513125,507.8326824c-15.4475022-14.639895,1.8088216-44.3938204,13.792044-50.0038629-4.9155549,15.7165294,5.7020311,44.007237-13.792044,50.0038629ZM133.4003261,563.7003712c-5.7268417-20.6869411,15.9560993,5.2561545,0,0h0ZM130.9951661,517.8360159c3.5347168,4.1984014-2.7607511,8.9068926-5.8700075,13.4479962-3.5410456-4.1912525,2.746916-8.9063039,5.8700075-13.4479962ZM145.8171038,674.7439736c6.4324731,9.7143317-13.862481,19.0684045-19.3191601,7.5795235,5.820176-14.3952999,12.9565353-3.5012014,19.3191601-7.5795235ZM151.3286187,717.1571271c9.055441,7.196052,5.7961013,15.0324287,11.0320498,22.4241483-9.8316986,5.4761282-24.368251-15.8629122-11.0320498-22.4241483ZM179.2575535,623.7067897c-9.2163317,12.0742648-19.9583915-4.7310311-29.3073129,4.8235874,1.7695661-13.2268871,12.1046684-26.9110049,17.5878823-40.3401407,4.5967172,4.1371948,9.1988171,8.279583,13.7935999,12.4152429-9.0833425,8.1444912-12.0871537,15.9693667-2.0741693,23.1013105ZM181.3334469,663.0249424c3.2706938,3.1103918-1.123186,6.6224006-2.7634424,9.9966052-3.2656896-3.116174,1.1282112-6.628351,2.7634424-9.9966052ZM153.7462681,575.7765494c.0944907-6.5810215-11.7542496-12.5226225-1.0340989-19.6620726-.0960256,6.5819887,11.752904,12.5210876,1.0340989,19.6620726ZM170.294858,640.6077117c3.50814,2.000284,2.0491484,4.2686071.3513649,6.550618-2.0716672,2.3018174-4.142199,4.6022891-6.2075163,6.8967894-3.4513909-3.1065441-6.9039173-6.2140554-10.3481804-9.3142496,5.2936859-3.4277157,10.9499014.0376996,16.2043318-4.1331578ZM176.5027528,696.1290187c8.0842728,6.1452164,8.434292,12.697159,1.033342,19.6484267.0965933-6.5685111-11.7527148-12.5210876-1.033342-19.6484267ZM168.9216944,551.9726773c-7.6915288-10.5433013-6.6795492-21.5441907-14.8255963-32.0622819,11.6605369-7.2710726,23.5362115-10.5019222,35.8606222-5.1751415-8.4062013,19.2564186-3.7918013,17.5162889-21.0350259,37.2374234ZM187.8879337,475.4236403c6.6537503,11.3464931-3.2564592,33.1350686-18.6216027,20.6888545,6.2063599-6.8954648,12.4138762-13.792065,18.6216027-20.6888545ZM167.19889,456.8018483c5.1276018-6.5866144,10.7720848-3.4750662,15.859485-10.6934057,7.0813343,4.3813903-11.2256359,24.8593334-15.859485,10.6934057ZM189.2710847,439.2058711c-9.5630709-15.2369903-17.1029605,8.0242437-26.5517342-5.1672567,5.5084451-15.6147217,20.2083692-31.7213038,30.3475725-47.5867602,6.8704229,17.15685,1.1131986,34.9846806-3.7958383,52.7540169ZM164.4354265,466.7986428c7.0880626,7.2926242-.4079457,15.3549459-8.6111414,23.4517292-2.4826827-7.5429594.3958348-15.3528433,8.6111414-23.4517292ZM203.7447273,714.3992356c7.1773599,8.3925555-4.3594392,17.7541556,7.9293745,25.8707663-5.4380081.6530664-10.7134224,4.4539299-15.8650779,10.6858994-1.130524-4.3178919-2.3597439-8.6390639-7.2360644-12.7602789,11.9899717-8.2957519,3.1767918-15.4923506,15.1717677-23.7963868ZM204.7772914,671.6447465c-8.9573129-11.5814583-5.7095164-23.7950201-11.7190312-35.5163641,4.0382887-6.4486421,8.6032567-3.0134201,12.7581343-7.2481754,20.5966977,13.1524342,6.7594058,28.1159818-1.0391031,42.7645395ZM200.9866676,599.5652196c-14.3506828-18.3266085-5.3706619-32.3407287,14.4882557-36.8933755-8.5380131-16.7281096-15.1402078,3.5175807-23.4522969-8.6248083,8.1144661-21.2328382,32.1975419-43.3050539,39.3187204-64.4801548,16.4904741,22.1588006,5.2170883,74.1617701-30.3546793,109.9983386ZM202.0327093,494.3892909c-2.3964973-27.8977533,2.1744211-55.1133613,36.2104312-61.0412954,10.6435531,17.8742138-14.8657979,52.0988058-36.2104312,61.0412954ZM209.6170477,388.8641209c7.9120281-16.1562034,17.8501601,6.1859857,25.8693786-7.9310776.4716334,19.1428784-15.7221013,19.9096953-24.1400351,40.6901599-12.3459623-10.2983488,5.8351675-22.2024926-1.7293435-32.7590823ZM255.146943,317.4798596c1.6975943,4.2951629,3.4396374,8.5811163.6890839,13.1043058,5.44686.4968435,12.3380776-18.1803519,25.5195486-14.4826838-.2361005,9.8709751-.0590619,19.7211345-1.7279978,29.6600235-22.2022823,15.1434668-43.6004267,45.4765944-67.593259,26.5469193-3.5735728-16.2337681,26.8517327-48.0778215,43.1126243-54.8285646ZM205.832185,316.7924998c-8.0022926-6.1496108,9.4422347-13.637335,12.070396-20.3513247,8.4606586,8.2499364-3.4155837,20.190455-12.070396,20.3513247ZM279.976062,289.8941947c9.9181153,18.7817155-4.2595659,18.5048035-18.6216027,20.6888545-6.5762066-12.2183768,14.1324754-13.7822459,18.6216027-20.6888545ZM281.6992659,260.2428339c3.7201868,5.2782949-4.9051891,11.2058294-8.9698233,16.89207-7.1250263-8.1529646.3711924-16.3399913,8.9698233-16.89207ZM254.7974915,435.7668224c2.7255536-21.6515703-.6775407-58.1406586,25.8693996-70.3488377,6.3181549,22.665274,3.2121785,45.826046-25.8693996,70.3488377ZM228.2386505,430.5931948c-8.0025028-6.1495898,9.4483743-13.644652,12.0775238-20.3447856,12.1527547,13.4897537-1.3883654,20.1111872-12.0775238,20.3447856ZM246.8456192,721.9907018c3.6386061,6.0449646-3.0657537,2.7153771-6.2077055,6.8968105-3.5643424-4.7583438,2.7022569-9.9867861,6.2077055-6.8968105ZM280.3209089,234.0342014c15.7228583,9.2257514-1.5846428,28.454647-12.4152429,13.7934107,4.1423882-4.6020999,8.279583-9.1986279,12.4152429-13.7934107ZM248.2559146,186.4416591c3.7736979,18.1149401-24.6771013,3.022272,0,0h0ZM233.7688154,223.3360018c8.6944673-1.2798294,18.0629849,10.2525333,25.863239-7.9234032,18.1218576,15.408457-8.414864,23.3863174-17.9323296,33.7931813-6.1723188-6.2525539,7.8683572-13.5530629-1.0354656-19.663208-4.4835555,7.90223-12.1117751,15.9703338-2.0656958,23.1088168-17.9971737,3.8797108-4.1885822-21.4220088-4.829748-29.3153869ZM258.9373776,264.7210278c11.7338545,14.7149366-9.9567821,31.1823032-23.7900159,47.2419344-18.8594274-15.6174341,2.7116975-48.8533432,23.7900159-47.2419344ZM218.2472176,240.5807824c9.207669-1.3121673-3.2296932,32.7792672-8.9638519,16.900144-.7502695-2.0589675,2.3293404-15.9637948,8.9638519-16.900144ZM206.1816365,198.5055371c3.2645332,3.1177089-1.1280219,6.6312315-2.7619285,9.9981401-3.2649117-3.1025071,1.1218613-6.6237253,2.7619285-9.9981401ZM191.0046754,222.2972771c12.9203496-6.6077666,7.2593401,14.4820951,1.0337205,19.6618623-8.9020777-6.1087994,5.1370424-13.410654-1.0337205-19.6618623ZM219.624229,266.7884687c2.4128555,9.7791547-22.9360044,17.6948624-31.0368246,34.4824334-5.7549324-22.2623325,9.7887846-33.4924048,31.0368246-34.4824334ZM186.8594066,330.9309256c7.1440548-10.0410751,15.2062083-2.4176704,23.1061254,2.065885-9.6342858,13.6540927-7.3713244,26.6743156-24.1400351,40.6899707.1543095-14.2384883.8876531-28.5125735,1.0339097-42.7558558ZM176.868184,203.3366097c3.5412349,4.1912736-2.754233,8.8997858-5.8634685,13.4407001-3.5423913-4.1897387,2.754212-8.8997858,5.8634685-13.4407001ZM178.2447959,229.5439176c5.6641213,9.961576-1.0620004,29.2295589-14.8259537,30.3419796-8.0756101-9.8357566.5301276-29.201279,14.8259537-30.3419796ZM177.2124211,272.301119c12.3573163,8.1106394-11.6512855,18.1378374-5.1734174,26.558862-4.1824006,3.3203361-5.1897545-1.20422-3.4515591-3.1065441-4.6348163-14.1669159-22.9402516,6.3123938-15.8662343,10.6845327-23.462116-3.7307839,5.0768241-42.6331062,24.4912108-34.1368506ZM153.0662254,375.416335c-3.264344-3.1175196,1.122429-6.6360675,2.7563356-10.0031653,3.2720395,3.1090462-1.1147335,6.627594-2.7563356,10.0031653ZM150.6539586,329.5456299c4.2595659,5.2567433-8.0638776,11.3718925-2.4172709,16.5555074-13.8647938,7.5733839-6.8548427-12.1777756,2.4172709-16.5555074ZM150.3054743,385.4129403c10.6089234,11.4917825,3.375361,23.9177907-1.3781678,36.2119871-16.176998-10.9662596-15.3064601-33.6892709,1.3781678-36.2119871ZM125.1355664,281.6088506c.5101109,9.832855,1.0870213,19.6605166,4.8293485,29.3149874-6.5748609-.0892762-12.5210665,11.752904-19.6618623,1.0343092,13.6263804-10.5683222,4.4510283-19.9451241,14.8325138-30.3492966ZM110.9921365,325.0624529c1.682014,11.9147408,4.6756066,3.636104,13.7922332,12.4138972-4.6161452,18.5767544-23.5546723,7.5748978-27.9356631,31.0368246-1.6373759,10.3002622.0533008-31.5209895,14.1434299-43.4507218ZM123.7454558,442.6587969c-4.2141498,2.9741646-8.9565349-3.8325706-13.1031493.6877382-7.0742276-7.2933812.4218019-15.3530326,8.6263222-23.4511405,6.0997582,7.3445584,2.9620537,15.175994,4.4768272,22.7634022ZM94.7814548,391.6208561c3.5002553,4.1673881,6.8277192,4.7616028,10.0031653,2.7563146,13.4204732,9.1455163-14.8621604,20.4912314-8.2734434,30.0029359-10.8575343,2.4694153-9.1089311-23.3876421-1.7297219-32.7592505ZM81.6782845,392.3110754c1.1278327,25.2445921-6.6077666,42.488027-10.3475916,53.1040572-10.2509984,29.1254594-1.5994661-27.6274015,10.3475916-53.1040572ZM72.7119305,596.4596217c3.4254028,5.2938751-.0465725,10.9572184,4.1331578,16.2043318-9.1399234,7.3316905-13.5553758-11.818526-4.1331578-16.2043318ZM117.8906501,456.1071715c5.4278105,18.3347035-16.083853,38.0735418-33.1163975,57.5893578-17.6211664-24.8385597,6.3118261-56.1126623,33.1163975-57.5893578ZM117.2015872,505.4207941c.0263455-18.9623916,2.0141191,18.8563576,0,0h0ZM85.1258277,582.6675777c-8.908827-6.1016926,5.1368532-13.4106751-1.0406591-19.6549448,6.1675039-6.2592822,14.0093053,14.1205326,1.0406591,19.6549448ZM111.3329253,518.8699256c1.2351913,13.0756474,2.471539,26.1497598-4.4843334,39.663378-1.2101704-2.917773-5.5573094-20.5343347-13.8007277-12.4217819-6.3641387-8.4202467,13.9109879-18.2498217,18.2850612-27.2415961ZM97.8789578,637.8459934c-5.3177396-6.2975915-2.5227162-13.0148403,5.5186427-20.0011162,2.5840909,6.4274689-.2109114,13.1447177-5.5186427,20.0011162ZM104.7688297,706.4650881c1.6614296,16.3411688,26.1462906,31.4819232,32.0722902,47.5988711-17.075837,7.132932-32.1319409-32.9864991-32.0722902-47.5988711ZM134.7678968,777.1635877c22.871749-19.4409846,8.4481481,15.3778012,27.592961,24.8356161-12.7371504,4.6271418-21.8207031-18.2540689-27.592961-24.8356161ZM157.1920661,703.7135885c10.2244426-5.5024947,12.5441741,16.484692,17.5890387,22.0683469-13.4364529,5.672763-12.9428684-16.4637501-17.5890387-22.0683469ZM179.5983424,817.5142624c.6530875,5.4409307,4.4537407,10.7136116,10.6924175,15.8608517-9.2286319,9.4208513-20.6715291-6.6056429-10.6924175-15.8608517ZM180.2874263,768.2006398c3.1063549-3.4511596,6.2077055-6.8966002,9.3140604-10.3479701,6.4422922,4.0456057,3.0041897,8.6107629,7.241447,12.7650729-2.0653384,2.2947316-4.1371948,4.596528-6.2077266,6.8968105-3.4452093-3.1009932-6.8967894-6.2075373-10.3477809-9.3139132ZM196.1542283,819.9342667c4.324431-1.1376728,8.6319151-2.3660938,12.7592907-7.249542,11.0003217,9.2794306,17.7229741,18.7843858,17.9340748,28.6261348-18.3960783,9.9837163-20.2741804-14.7944568-30.6933655-21.3765927ZM213.7415428,779.5806484c8.0507784-3.8645301,6.7220637,5.1478288,10.349526,9.3152168-8.0579062,3.8581802-6.7218955-5.1476185-10.349526-9.3152168ZM212.3631648,690.9538562c5.1347506-6.5775102,10.7719166-3.4723118,15.8666338-10.6843225,5.9154026,9.5403418-1.0795361,19.7650157,4.8235663,29.3072709-12.5866886,10.1461629-15.1247957-10.0062141-20.6902001-18.6229484ZM234.4317219,860.6213148c-10.0310458-16.2539531,17.2184351,8.2724972,0,0h0ZM237.5382871,794.7522269c-10.0314453-16.2568547,17.2178463,8.2697639,0,0h0ZM247.8862782,804.0663083c13.166858,12.4467818,22.8544236,25.0779193,15.1650184,38.6282698-14.4197531-12.3808023-26.6862373-24.8831768-15.1650184-38.6282698ZM260.6405647,859.2429788c-10.0310668-16.2539951,17.2168791,8.2712777,0,0h0ZM238.9235617,758.5467788c3.0998158-3.4440529,6.2075373-6.8968105,9.3075423-10.3409054,17.0433098,13.3325636,9.5642273,27.9616723,18.6144749,41.722745-19.907782,2.9454852-12.521445-23.2082906-27.9220173-31.3818396ZM277.8838104,812.3452815c-8.0504,3.8675999-6.7203396-5.1462728-10.3478019-9.313703,8.0579062-3.8581802,6.7191831,5.1478288,10.3478019,9.313703ZM303.0525619,916.1509272c-1.5276834-10.6470434-22.0462276-3.9078015-34.1381963-24.4927667,6.2138661-6.8025301,13.3554399,4.083116,19.3120323-7.5858734,7.766949,17.8130283,27.9858942,14.5363421,14.826164,32.0786401ZM306.8478114,800.9654833c7.532972-14.9864239,26.6914307,15.4519808,17.5961665,22.0720475-12.7802746-6.9932355-9.4026007-14.837518-17.5961665-22.0720475ZM322.0253403,839.5945521c2.3649373,3.2702943,4.4602797,1.5750129,6.5517744-.3527316,3.4340655,5.3015706-.0450166,10.9583959,4.1404748,16.2108919-5.2919617,3.7207966-11.2114223-4.9103615-16.8984199-8.9626955,2.0703215-2.3004507,4.1356599-4.5949721,6.2061706-6.8954648ZM320.9864264,882.356232c-10.0249062-16.2613122,17.2243854,8.2653064,0,0h0ZM323.0538673,921.6693595c8.1202482-12.1974139,17.2934557-4.3985055,26.551545,5.1672567-8.2226236,10.1496112-17.3931398,2.3504925-26.551545-5.1672567ZM364.4379261,896.4873197c-9.0533384-7.1836887-5.7957438-15.0216634-11.0299472-22.4118691,6.2306028-5.2869365,20.7685008,16.0508002,11.0299472,22.4118691ZM357.8857522,834.4194316c8.3330941-14.1126689,23.2204436-1.4880495,23.4525072,8.6249765-7.5368198,2.4753867-15.3478392-.4015959-23.4525072-8.6249765ZM379.2638799,866.1453401c26.5400017.9902388,4.5232105,21.33063,0,0h0ZM393.0574798,940.9785113c-10.031256-16.2539531,17.2180356,8.2724552,0,0h0ZM391.3342969,908.212112c-7.3293776-9.1251001,11.8273569-13.5476592,16.2114386-4.126808-4.9890617,9.3512553-11.0080172-1.0183295-16.2114386,4.126808ZM399.2755932,746.8246358c12.7783402,13.5719232,12.0380791,27.8396796,18.6231376,41.7304405-17.8770944-.3425129-34.9662198-28.6788258-18.6231376-41.7304405ZM422.0389954,742.3478297c-1.1364744-4.3259659-2.366283-8.6319151-7.2483646-12.7608677-2.0653173,2.2947316-4.1358491,4.5950141-6.2075163,6.8968525-3.5346958-4.1983803,2.746895-8.9061777,5.8700075-13.4480382,5.4033573,6.2862585,20.3921151,12.0683145,7.5858734,19.3120533ZM433.0583666,952.0142407c-3.718673-5.2769282,4.9174893-11.2050725,8.9698233-16.8920911,8.5197205,5.0258361,7.000889,10.5796762,10.6935739,15.8592957-6.2525539,6.1696065-13.5544086-7.8696818-19.6633972,1.0327953ZM440.6500221,908.9133279c-4.1337255-11.7596113-6.8230934-5.3271802-14.1384257-18.9727784,12.9671113-7.1250263,23.9710915-6.6797384,29.9977215,8.2820851-5.1210627,6.5767953-10.7655458,3.465247-15.8592957,10.6906933ZM459.9666591,838.9035548c3.3330568,21.9340331-20.9316833,2.1904008,0,0h0ZM452.3794401,757.172648c15.4619471,11.2377468,19.2139041,23.0834384,24.8304647,34.8334198-2.7301583-1.5809843-39.3995442-17.1501217-24.8304647-34.8334198ZM474.4551251,739.5899381c8.5214657-3.1625573,20.1002116,1.9639091,20.3374686,12.071174-6.1430507,7.9951648-13.6307959-9.4493204-20.3374686-12.071174ZM483.4058778,909.9472586c-10.0248852-16.2613122,17.2317024,8.2716982,0,0h0ZM479.6239167,837.8756375c11.6193471-15.0274666,8.8589744,4.6342065,16.8984199,8.9624853-5.2919617,3.7209648-11.2114223-4.9101933-16.8984199-8.9624853ZM486.5187928,781.6636485c22.9212021-12.9070822,28.0241825,16.7660194,41.0403684,30.692188-20.3871109,7.3153533-33.8845601-13.8376073-41.0403684-30.692188ZM528.941366,651.3145739c-.8845833-1.6987507.4772263-12.7906615,5.8640362-13.4558809,12.0796475-1.4840125,2.859489,30.2469212-5.8640362,13.4558809ZM816.5473031,810.2986142c12.5058648,65.5983576-84.5123054,144.3209116-141.7439064,115.8699231-35.5336685,14.4083781-71.719289,55.8509311-103.1136601,38.2728469-40.1348012-22.4855441-31.1884638-61.1246213-16.5306758-90.0757334,13.1395242-25.9521368,24.2993699-22.4853759,42.3985195-42.6923363-.1510505-24.0871759-26.9690996-46.7637619-29.9977215-70.6998452-4.5686265-90.7985009,125.2438024-141.462558,168.2950519-48.2696835,12.1893399-15.4325107,60.3895536-38.9608165,61.723651-13.0987549,77.5122995-19.9025886,84.4841727,84.1959487,18.9687414,110.6935832ZM872.4219094,436.1362696c5.322933,6.2891181,2.5213915,13.0134946-5.5184324,20.0011162-12.1868168-8.0482764-4.5207084-19.7674967,5.5184324-20.0011162ZM876.5608283,389.9278665c1.130524,4.3178919,2.3597439,8.6390429,7.2495,12.7592907-4.3259659,1.1364744-8.6389798,2.3597439-12.7665867,7.2402906-2.5900623-6.4326623.2159366-13.1504998,5.5170867-19.9995813ZM875.5267294,370.265815c-5.7181791-20.6790354,15.9570665,5.2698214,0,0h0ZM865.5266549,492.3480273c8.2357018-8.1067916,12.5834506,9.4974489,13.792065,12.4136869-8.2418834,8.1141086-12.5905574-9.5039879-13.792065-12.4136869ZM878.9677124,560.6294241c4.010198-7.0070706,8.5426388-4.0850504,13.1043058-.6892942-3.2704625,2.3647481-1.5815309,4.4675968.3527316,6.5517744-4.199726,3.5362517-8.9074393-2.7455493-13.4570373-5.8624802ZM902.7696921,388.5495094c-3.4843386-6.387057-4.0954372-12.9321031-7.5860836-19.3120323,7.6678326-6.3314433,17.0219474,13.9633215,7.5860836,19.3120323ZM940.699101,609.9424369c-5.7457231-5.171483-11.4987632-10.3497153-17.2446124-15.5213875,4.7027091-4.6178904,9.3592872-9.2540313,5.8634264-13.4406791,7.5033254-3.8371963,9.8655925,4.9809877,3.7967844,9.6515902,10.3734115,6.1247791,18.6554966,6.1642238,7.5844015,19.3104764ZM937.5915477,550.9774344c-7.1715778-8.387341,4.366588-17.7477847-7.9224149-25.8645637,6.1480759-8.0038485,13.6344544,9.4422136,20.3374896,12.0709848-4.1356809,4.5949721-8.27153,9.1899441-12.4150747,13.7935789ZM948.6284124,510.9752019c-14.2931137,2.082075-33.0794339-13.365238-31.0312107-27.9304697,19.1118862-12.6399894,33.0642531,12.9719263,31.0312107,27.9304697ZM948.2889693,442.004553c-16.6857843,3.3565008-21.0215063,10.135734-42.7629415-1.0402806,4.1739061-3.507362,4.7675532-6.8196242,2.762265-9.9952596,12.4693216-12.8941933,26.175769-2.0062554,40.0006765,11.0355402ZM919.3247791,328.5486628c-8.4758183,5.3518016-17.2749739,4.6182688-25.8570574,7.928975-5.322933-6.289097-2.5226951-13.0121279,5.5113256-20.004943,7.1885247,11.6251082,13.313472,3.181775,20.3457318,12.0759679ZM910.0147346,276.4718081c-11.9660862,13.4071848-36.8842923,2.5735149-39.9995411-11.0370751,12.8919015-4.7008168,26.6162208,6.2656321,39.9995411,11.0370751Z"/>
    <path d="M547.912231,512.3389459c-.0498105.6475366-.0817279,1.2606958-.0986748,1.8454488.1071904-.6190464.1512187-1.2347918.0986748-1.8454488Z"/>
    <path d="M758.5238432,887.1240796c.9338892-.3439848,1.8824966-.8800627,2.8402292-1.6459124-.9334687.5504177-1.8832115,1.0986907-2.8402292,1.6459124Z"/>
    <path d="M782.7523977,729.9470106c-16.096763,16.0923475-28.5165895.4428068-30.3491284-14.8324718-29.5916891,11.7565415-55.1039207,45.5335327-74.4938962,20.3461102,16.0040385-8.1730024,32.5574013-5.6693147,48.2878078-18.9681527-20.3013249-11.2243323-38.7276175,13.1722617-59.6641158-10.0025976,3.6257172-5.0281069,23.1465584-2.3920398,15.8666128-10.6845117-32.9003137,8.0788481-54.9846404-6.9611079-81.0408767,20.6903894,19.5204206,15.7155622,53.7298319-17.5237951,62.756993,6.5496298-14.0075812,4.2326527-28.2412545,4.2720974-42.7572224-1.0323748-4.3173032,14.7309164-13.3721765,9.1843933-15.175994,23.7899949,9.3675715,11.4175188,17.903461,7.2249417,26.8963708,11.7248343-8.3823369,7.1109809-17.6173186-1.887711-26.2086325,1.3783781,2.0066339,3.1767708,1.4174233,6.4957612-2.75499,10.0043218,23.2100357,11.772311,57.3218655,13.0130531,70.0038017,19.3091097,2.6430057-20.669826-28.0701662-6.7105204-24.1402244-21.7277684,27.8777576,6.3866785,34.2290074-12.4071689,61.7359722-13.0981662-5.322933,7.9453753,3.243339,15.1615702-2.079594,23.1069034-25.2919005-2.0385513-48.2540822,40.2058058-73.8011538,33.4435195,4.5314737,12.1932087,23.4180456,2.7654189,17.2447806,15.5216188-19.0343634,12.8370237-39.2914077,2.4536459-58.2774535,16.2108498,2.2945003,2.0653384,4.5963177,4.1369845,6.8894724,6.2011875-1.6912444,2.2748831-3.1552402,4.5514904.3527316,6.5515642,8.3153692-8.4639176,17.1814714-6.3774271,25.863218-7.9233821-4.2341665,13.9448397,17.728546,11.1323227,23.7953986,15.1701908-32.1869658,5.6362198-45.6670897.1691749-74.8404672,13.7872711.6427006,15.4994574,40.7084315,11.7894681,40.6972877,24.146385-7.5368198,2.4753867-15.3478392-.4015959-23.4525072-8.6248083-11.9499383,9.1561344-3.1227131,16.492766-15.5150587,17.2375056,9.3970078,12.078491,18.1541956,12.0982554,27.2414068,18.2851873-7.1406065,9.9791327-15.8225634-9.3286734-22.7618673,4.4781939,57.1128674,4.6834073,129.5745412-17.6286726,175.4527736-43.8618425-8.7927637,3.2383348-16.2666948-10.7257646-17.5059231-13.7220906,12.7804639-6.694751,26.2902343.1669882,38.622719-15.1729242-7.5117779-11.9420325-29.6925296,10.4848071-26.5601656-5.1722609,14.8124551-10.0362812,30.3856295-5.4553125,45.1817684-15.5165725-22.2482871-6.5762486-43.4721052,6.19673-66.2085732-9.6591175,3.1271495-3.4454406.9019297-6.6160718,2.7565459-10.002934,25.1777926-21.0870232,51.8371167-13.7395422,77.243882-30.3419796-18.2179042-13.4378196-34.5012937,10.1695858-53.1038469-10.3480122,25.1835537-3.3281998,29.998121-9.4840133,54.8334006-19.3107077-22.409346-8.1048362-17.5328363-7.3853277-31.0312527-27.9304697ZM645.4928457,743.7358377c7.1028859-10.8533502,15.7773155,8.333052,23.1076603,2.0671887,5.404703,8.341967-16.6557592,9.1626524-23.1076603-2.0671887ZM750.3373842,738.2206433c-5.3286941,2.8893038-10.7909451,3.1146181-16.5555074-2.4172709,5.3223863-2.8792955,10.7857727-3.1063759,16.5555074,2.4172709ZM678.9429043,879.9475817c-7.0955689,10.859658-15.7700195-8.326534-23.1074711-2.0670204-5.0558402-6.4180493,25.9461654-14.8842797,23.1074711,2.0670204ZM667.5629378,850.983812c3.270883,3.1105811-1.122429,6.6362147-2.7563356,10.0031443-3.2656896-3.1160058,1.1210834-6.6347008,2.7563356-10.0031443ZM631.0134209,843.0545847c9.6061951-4.7895043,19.4694537-4.5597326,30.0027467,8.2736326-9.8041966,1.1574373-19.8156252-1.8845992-30.0027467-8.2736326ZM616.8686664,886.5068834c1.3918137-18.4330419,32.6759246-.9176992,46.2097488,4.1400543-14.8621604,8.9357823-31.0301173-7.0626633-46.2097488-4.1400543ZM598.5926464,913.7409312c45.4442775,3.3784519,87.5666841-30.411197,139.6703259-30.3371436-33.8033999,20.004985-87.4654861,50.0348552-139.6703259,30.3371436ZM737.2222711,863.7488428c-7.3449579,6.114939-15.4178346-1.635063-22.7630027,4.4797077-5.2469452-5.4716707,16.526828-11.7444305,22.7630027-4.4797077ZM736.1885507,844.0869595c-5.3217555,2.8930044-10.785142,3.1200428-16.5501248-2.4122668,5.3154477-2.8854351,10.785983-3.1061236,16.5501248,2.4122668ZM722.0557389,762.701257c8.7875913.5932686,16.9568931-10.6704663,26.2088218-1.3781258-8.6848584,1.4655097-16.8505017,12.7221378-26.2088218,1.3781258ZM740.3273014,797.8785774c-1.1280009-4.3184386-2.3510812-8.6313684-7.2394916-12.7531301,7.0955899-10.859658,15.7699774,8.3267022,23.1074501,2.0672728,7.2799456,8.2924719-12.2408956,5.6564048-15.8679584,10.6858574ZM761.0232836,754.0886017c8.3215298-8.3986951,17.052351-8.857818,26.2088218-1.3783781-8.3150117,8.3915883-17.0536966,8.8564723-26.2088218,1.3783781Z"/>
  </g>
</svg>