<?xml version="1.0" encoding="UTF-8"?>
<svg id="cowberry" xmlns="http://www.w3.org/2000/svg" version="1.1" viewBox="0 0 1030.1420918 1000">
  <!-- Generator: Adobe Illustrator 30.0.0, SVG Export Plug-In . SVG Version: 2.1.1 Build 123)  -->
  <g id="outline">
    <path d="M816.5411853,802.4624077c-55.6086773-45.6137977-86.2045026-97.2768961-132.7148881-163.3285987,118.6431164-166.2998897,147.6268193-352.4423085,19.703596-502.7814964C593.2513524,6.743881,399.5391166-3.4906601,255.3050439,63.4273842c-24.0475385-21.2554379-32.3656761-42.3204886-44.1295597-63.4273842-38.3907629,32.0202697-24.8388894,57.4827489-41.4707833,84.826073-21.6727661-2.6844719-43.2834738-10.7381203-65.1451245,1.4366147-4.2678933,26.8975912,3.7808023,53.9394916-9.9779468,80.7202682-31.5976923,12.5024044-62.8696626-.8294072-94.5816296,21.2799904,20.891723,18.1397742,37.5648269,30.9563231,62.1467622,59.1622636-23.3897444,61.4298518-52.5887893,136.9368091-51.8465856,196.9758704,1.1795336,95.7753232,72.8612825,218.0424449,160.428171,282.6882657,100.0368456,73.8458147,199.9429283,75.6234545,302.6467204,41.9269509,40.24932-13.2080758,148.2055587-78.131064,158.1147163-74.3947736,56.3621835,48.9310032,88.8988378,103.6656979,139.6407959,147.6979791,66.3111331,57.5381613,153.823731,81.7040383,220.3676467,157.6804978,16.7456607-8.2040322,32.7772683-21.0169405,38.6438648-37.6979182-51.9203911-89.1588398-142.0096418-101.1158835-213.6009065-159.8396742ZM673.1830847,591.8425497c4.5852761-7.6503956,8.8346281,12.3040799,13.4153111,4.6583831-.5593302,14.1835912-9.0045903,3.6565161-13.4153111-4.6583831ZM677.3400264,618.8361706c-8.8617628-.9228547-14.1778976-6.5393337-17.7956166-13.68869,6.6913684-10.1470201,17.8789256,9.90666,17.7956166,13.68869ZM677.8396899,578.4272809c2.2760546-2.2202189,4.546225-4.434977,6.8214117-6.6542646,3.7001391,3.4123039,7.3683599,9.7363592,11.1410557,6.8769087,2.6028773,8.5440837-13.3621212,8.3416106-17.9624674-.2226442ZM702.6233574,571.9955758c-4.434977-4.546225-8.8698058-9.0925346-13.3038726-13.6378706,7.6136304-10.5788681,15.1007311-10.4814202,22.451989.2737175-8.2602912,4.3926452-2.7663839,8.9520353-9.1481163,13.3641532ZM381.3198433,42.5323804c112.2404933-8.8660806,238.6837964,16.3855863,326.2554473,129.8022266,92.9637078,120.397389,69.4976602,262.37452,6.577771,375.1009402-22.9512292-16.7739806,3.664919-44.3173648,9.7083355-58.2647445,48.3036881-111.5365153,39.7087639-264.8575348-94.1750749-373.947102-72.1565849-58.7837749-182.5169319-68.5854308-257.4589923-63.8215145.7957322-5.9109603,3.1636892-8.2207533,9.0925135-8.8698058ZM372.1718116,55.8966818c-8.9912558.3236902-18.0369503,5.5011248-26.8858653-4.8281125,13.2948348-10.7771503,17.6302262-.385029,26.8858653,4.8281125ZM340.6782767,59.993999c-7.4710992-.9242728-15.0668868,8.0549184-22.4472478-.27812,9.5700798-11.23971,18.9795951-11.123234,22.4472478.27812ZM475.8679461,748.839177c-115.3859798,40.3477203-237.6339887,27.9630406-333.6848708-73.7531927C46.0564403,573.2995438,12.5122889,450.1933209,52.1650478,328.1417951c3.7749182-2.6806408,7.4089985,6.0127895,11.1958754,2.3816301-5.1617295-6.7615969-7.1449114-15.17841-4.1569205-26.9936421,5.2567433-1.3551895,10.4688688.9521483,15.6299634,6.9287864-42.1399222,137.3948181-35.699391,268.0222188,107.4852761,387.5800622,30.9929401,25.8872579,94.1378441,50.4683253,136.8878947,53.0817221,50.5016616,3.0923389,101.7514533-8.3073642,154.6122668-18.0278489,32.0958743-5.9021553,61.846164-37.7851217,92.4688489-32.5389402-22.4072231,25.2525347-58.7628418,37.2145735-90.4203066,48.2856124ZM577.4886788,702.9398512c-7.0845251-6.0780439-1.6693974-12.0002645-8.7585578-18.0737366,11.8778197-10.2061576,10.4330561,4.6617485,20.1261945,6.984495-.1736239,8.4910842-5.4292878,2.6602158-11.3676367,11.0892416ZM597.8921678,687.4666002c-3.0501341,7.615239-12.9708483-27.97955,0,0h0ZM598.1702243,665.0192254c9.8038361-6.5395665,8.344341,9.5238323,20.0147772,15.9635593-12.4624855,3.2685451-7.7230582-5.7413579-20.0147772-15.9635593ZM996.2669903,977.6027461c-25.6063863-18.9214735-82.7963684-66.6378077-93.4122556-73.0139946-20.4393229-12.292735-39.9078081-32.1739553-62.314629-45.6877937-39.8709794-24.0507768-97.0703169-69.1315747-148.8455099-129.8478391-29.3386975-34.4045032-48.607567-82.0908876-91.0860591-79.7249626-56.9323719,26.9355629-103.1476412,64.0139338-160.3351257,72.1186132-21.4414016,3.0381965-54.8123101,10.9373127-78.6220707,10.3539803-60.745685-1.4834337-116.9374195-9.4002446-176.7835747-58.4333944-150.9457393-123.6654685-115.6806092-280.2933645-59.9110922-420.6773166-8.0960861-10.9823114-56.7656269-40.2229684-57.7628374-50.1170771,20.2721546-5.2636857,40.4041486,1.2549266,60.7062953-5.9866919,7.9386118-22.3579065,7.9472475-44.8122872,9.8103552-67.2456713,39.5291924-5.9065578,72.7840693-17.9850726,70.4156891-64.2502511,20.9515802,19.5712668,28.7074455,23.0535452,42.0726146,47.6798653,28.8822971,12.6386917,66.3208694-33.6395038,99.2984306-39.1941149,18.1022259-3.0467899,46.259633-1.1539652,69.6311324-1.3800382,23.4997013-.2251206,50.9041101-1.7402608,67.3607927.8348045,64.9472021,10.1558674,138.9875103,67.0506698,173.7403196,114.4346358,69.4327444,94.6655524,77.2687438,196.0438085,38.9558291,299.1522716-28.4249865,38.5684084-27.0483771,77.5165119-64.3075896,115.9764874-3.8197899,21.407007,16.4006987,29.9680869,28.5971712,47.5128028,13.1203007,18.8631614,20.1953859,42.5572081,32.9282659,61.0403779,80.3511348,116.5898965,209.6317276,156.0850964,313.5015072,253.1513494-3.368173,4.5133332-17.5819679,4.6620025-13.637659,13.3039573Z"/>
    <path d="M173.3050427,156.7330271c-6.6107051-9.9599346-13.3928118-6.5396724-20.2326379,1.9921139,3.1465236,3.0324182,3.7952163,6.0373207,4.3744425,9.0375668,5.2399587-.0041274,10.5460821-5.2707551,15.8581954-11.0296807Z"/>
    <path d="M136.6023455,219.1533798c-5.1694551-6.066318-10.4346224-3.7099812-15.6902227-2.4372118.6928659,5.2448057-1.7885826,10.4547724,2.0524156,15.7412326,5.9952006-4.4843782,13.7334135-4.7131817,13.6378072-13.3040208Z"/>
    <path d="M174.9124028,208.3989406c4.5151534-5.9296286,9.2155509-11.8605483.2225595-17.9622558-3.7875754,3.6949322-7.5798708,7.3942458-11.3674674,11.0891781,3.6906991,4.1262299,7.402183,6.5703418,11.1449079,6.8730777Z"/>
    <path d="M156.556948,239.608683c-3.6949322-3.7875966-7.389928-7.5753413-11.0846486-11.3628321-3.7877447,3.6949957-7.575172,7.3898433-11.3675521,11.0893897,7.3549831,10.7588206,14.8373426,10.8515484,22.4522006.2734423Z"/>
    <path d="M172.5260527,219.5995783c3.682529,4.7922786,7.4524521,2.5138958,11.1448021,6.8711304,4.8155611-6.6734409,7.3436805-13.3818478,6.9836696-20.1251151-6.5668705-.3004077-18.0453955,3.5957911-18.1284716,13.2539846Z"/>
    <path d="M208.7273085,197.5877979c-8.7279519-11.7133183-14.2000371-4.3788027-18.0172236,4.2728038,5.9070234,6.7109892,11.9607689,1.1212004,18.0172236-4.2728038Z"/>
    <path d="M226.7487653,193.3197776c8.2558675-4.3896608,2.7610078-8.9482678,9.1436715-13.3594967-4.4381519-3.9297045-8.9020626-6.137118-13.4151418-4.6584678,3.9828732,8.5528887-9.2799164,2.6183284-6.8732894,11.1448232,3.6834392,4.7935274,7.4524944,2.514044,11.1447597,6.8731412Z"/>
    <path d="M253.9697927,171.2054695c8.7161413-1.0205565,12.86849-16.470398,7.040119-24.6203725-13.689071-3.705621-18.3622491,15.1325434-7.040119,24.6203725Z"/>
    <path d="M192.5408087,235.5631587c-6.6471952-7.4600718-13.4521398-2.1212683-20.2372732,1.9966646-.7211224,15.0090827,20.6196353,9.8970296,20.2372732-1.9966646Z"/>
    <path d="M153.9516366,268.7753441c-13.1804119-2.9094866-23.0029587,16.5470821-6.9873524,20.1211994,3.7876601-3.6947629,7.579892-7.3942458,11.3674886-11.0891781-3.1520902-3.0265553-3.7997458-6.0324526-4.3801361-9.0320213Z"/>
    <path d="M287.784529,160.3944114c4.5970232-8.1480696,9.0189196-2.542745,13.5877709-8.8133352-4.0381162-3.7964651-6.3895003-7.5673406-6.5995295-11.3164787-10.1959557.6689485-21.9299742,8.8472429-6.9882414,20.1298139Z"/>
    <path d="M230.8453841,224.8125293c-3.3469436-5.2823117,7.0650736-10.3931372-2.0479073-15.7460796-5.9996666,4.4798699-13.7332866,4.713478-13.6378072,13.3039996,5.1601844,6.0664662,10.4338816,3.71123,15.6857144,2.4420799Z"/>
    <path d="M187.8277541,253.473685c-10.8938591.1298317-13.4013416,13.028991-20.4599174,19.959132,11.9109655,15.1240348,31.179073-7.96109,20.4599174-19.959132Z"/>
    <path d="M135.2670096,326.9240147c9.2293087-6.6206954,9.8291082-13.3521521,6.9889399-20.1213264-6.1844873,7.2234793-20.0493411,7.1387945-13.6989555,17.7943255,2.2626565-1.2238974,4.4995965-.6702819,6.7100156,2.3270009Z"/>
    <path d="M160.2683685,302.5344987c4.1371938-4.2706872,6.5244329-2.9434367,6.7100156,2.3270009,4.546225-4.434977,9.09245-8.869954,13.638675-13.3049309-6.7469924-15.575694-26.7966087,2.5927388-20.3486905,10.9779301Z"/>
    <path d="M230.5124655,251.7550558c-5.7980825,4.419293-8.005496,8.8832038-4.6584043,13.4153111,12.024436,2.3422403,19.9413315-16.1041644,13.810267-26.7757603-7.0898166,9.1549317-9.3234335-.1285617-20.181628-2.4975134,5.1925894,4.5556438-7.059761,8.8997556-9.1472697,13.3652538,6.6298603,8.7119081,13.4704907.1883766,20.177035,2.4927088Z"/>
    <path d="M271.2080263,229.799238c-11.6650812-6.1291173,1.2588423-11.9583772-4.2681896-18.0124401-3.2160536,2.1982698-3.8593702-1.1631512-4.434977-4.546225-3.7690764,2.2794834-7.5007103.9989884-11.3106369,6.5939417,4.5532944,11.5971386,1.2462909,11.4644919,6.4316416,24.7835193,4.4938817-.6665356,9.0190043-2.9496595,13.582162-8.818796Z"/>
    <path d="M128.1118962,360.5198744c-5.9681294-1.7048291-11.9831201.2903962-18.0727206,8.7595949,2.9594805,3.0337517,5.9140717,6.0624658,8.8690227,9.091561,5.9950948-5.9112354,14.6155027-11.7937276,9.203698-17.8511559Z"/>
    <path d="M153.0623722,340.6219542c-6.0141229,1.9224358-11.9661239-.7094812-18.0736731,8.758706,8.1624624,14.5293786,21.4763465-.2737175,18.0736731-8.758706Z"/>
    <path d="M207.7303096,278.4196104c6.8500704,13.219971,19.9161864,2.1059442,20.2883465-6.488345-6.6181767-9.4295382-13.4694535-.3446021-20.2883465,6.488345Z"/>
    <path d="M284.9022618,212.0092939c6.9162985,8.1719447,19.9034869,3.5085029,20.2872882-6.4873291-6.8490121-13.2209658-19.9160171-2.1060077-20.2872882,6.4873291Z"/>
    <path d="M368.5613737,165.8863714c3.7875966-3.6949322,7.579892-7.3942458,11.3674886-11.0891781-2.3018346-8.214721-4.4246269-3.9331122-8.8187325-13.5820138-14.7658653,1.4890638-18.3701228,22.1090166-2.5487561,24.6711919Z"/>
    <path d="M264.2195098,249.9287979c6.8540919,13.2166056,19.9220282,2.1025365,20.2932993-6.4908003-9.0524887-5.0789073-16.5931391-2.6692324-20.2932993,6.4908003Z"/>
    <path d="M257.3428762,261.0701287c-8.6437328,4.4525447-8.9724604,4.77306-13.637659,13.3039361,4.4230606,5.8017865,8.8871407,8.0091366,13.4196502,4.661304-1.8491594-6.0112443,4.7037417-11.924935.2180088-17.9652402Z"/>
    <path d="M283.4555721,328.7591623c-17.9167914-3.821462-33.6171949-11.6770611-53.7229432-14.138656-185.0309335-22.6529804,19.9804673,343.2253818,143.9645884,343.1214149-5.9495246,5.9202944-16.3108706,11.7765832-4.7131182,17.910357,12.6058422,2.1614835,10.8268901-14.6598453,15.9645752-20.0137189,157.8074297-33.0552401.055751-265.9338847-101.4931023-326.879397ZM354.0272962,432.9387261c-19.5954594-1.1934185-24.4185345-28.5556013-42.1329375-43.1902591,14.8273946,4.6246023,28.6995295,30.7064595,42.1329375,43.1902591ZM238.100718,364.1312225c19.287813-2.0001146,19.6275258,18.1567916,24.3385697,29.4911555-10.2764919-1.0051477-26.6608082-21.1867546-24.3385697-29.4911555ZM261.3821565,478.9455323c.9449095-24.3087046-41.7966747-36.0542585-28.4340878-60.9847328,10.3491968,10.6089871,20.693716,21.2130426,31.0428493,31.8218816,4.9176655-22.5592789-25.4113213-29.4446329-32.9849693-56.5452051,24.4568447-.743008,39.5512261,48.0471996,57.7127588,54.6075934-13.155161,19.3050844-20.8282253,38.6685654-14.1995926,58.2137135-17.4715454-12.1267943-43.0300121-34.8398647-46.4558621-56.7165855,7.2659593.2781623,20.214033,28.9656696,33.3189038,29.6033348ZM266.8788789,398.1734077c23.7038465,5.4146198,27.3292699,23.3423963,39.9125281,40.9140988-21.3145332,4.5191115-33.7990736-24.7295886-39.9125281-40.9140988ZM222.3040308,370.6705986c5.3659382,6.0558409,5.2870105,12.0441202-.2226018,17.9604567-5.361324-6.0510362-5.291794-12.0395061.2226018-17.9604567ZM219.6951635,399.8314813c8.0377952,6.0946803-.2578219,11.976347,4.2716185,18.0179221-7.1888307-.1439917-7.9026297-6.3349769-11.0890511-11.3671711,2.2712076-2.2157741,4.546225-4.434977,6.8174325-6.650751ZM210.2734779,435.6478985c9.7796011-10.1077573,13.5744999,9.8543591,13.3049309,13.638675-9.6386362,3.9331122-5.1647351-10.2245508-13.3049309-13.638675ZM235.9918953,534.771901c-10.1250499,2.5834258-10.9451017-13.3950977-13.2527358-18.1293818,9.6901328-2.5839762,13.5347292,13.4310797,13.2527358,18.1293818ZM236.5484528,489.8679231c-6.2409579,3.3172478-15.7796699-11.9104787-15.524155-15.9137135,6.2455086-3.3126125,15.7785904,11.9186064,15.524155,15.9137135ZM262.4340174,575.5239324c-6.271585-4.5699096-.6700279-8.9955101-8.8143723-13.5867973,3.3207613-4.0066214,19.0966425,10.3972223,8.8143723,13.5867973ZM240.9822233,494.4130051c14.7171414,6.2317931,36.6811504,31.8469632,44.3478649,45.4607471-22.570391-8.7776494-28.944292-28.6341692-44.3478649-45.4607471ZM275.7934717,584.6674557c-3.2614756-10.3751462,11.6168441,7.9100166,15.5798214,11.4268378,3.261391,10.3749769-11.6206116-7.9064184-15.5798214-11.4268378ZM300.2432471,605.1867434c-.9903527-.8030133-5.2488272-1.244005-4.4915746-.0602382-10.1020849-15.8148476,26.7740247,18.0169696,4.4915746.0602382ZM282.7877877,382.6538457c15.9127187,7.7264447,32.3226035,34.7895745,44.2958391,49.9509882-20.2910134-.1689251-31.5293265-35.3010486-44.2958391-49.9509882ZM324.1409097,488.7095553c8.5135413,6.8946458,12.1785026,33.0409531,19.6208373,47.396729-14.8444966-6.97224-18.5083361-33.119394-19.6208373-47.396729ZM341.9920868,497.9132533c-.60689-5.9978675-7.9375323-12.0780069.222496-17.9624039,4.364939,6.039649,8.9188472,12.0853938-.222496,17.9624039ZM350.8063321,511.49078c-2.2297012-3.403774,2.2846902-6.6964906,4.545336-4.4340668,2.2177848,4.2893979-2.2229493,1.7174863-4.545336,4.4340668ZM359.2339187,556.5107682c9.1545296-3.1540798,16.5287736,7.8576522,20.0111367,15.9691682-7.0524588,3.1792673-19.8501064-7.8950947-20.0111367-15.9691682ZM377.3586016,543.2624349c18.0833459,1.8550012,2.1419897,14.7699291,0,0h0ZM392.6600913,577.1364358c-5.9898033,5.1760589-8.1786331-7.0497284-8.868811-9.0914763,5.9886815-5.1748524,8.1728337,7.045982,8.868811,9.0914763Z"/>
    <path d="M136.7034127,392.0690545c-5.3462751,8.5187269-10.4522113-1.9793085-15.7976609,6.5383389.5010393,12.7353564,14.7809142,12.4781483,22.3963438,4.7697158-4.0326978-3.7927399-6.3932043-7.5635731-6.5986829-11.3080547Z"/>
    <path d="M122.8432153,423.3352676c-7.3379657-14.7659923-21.7172569-6.5784695-22.5087136,4.2123328,7.3965317,7.4154117,14.9433626,2.3824132,22.5087136-4.2123328Z"/>
    <path d="M585.1546948,447.027875c41.7196943-10.0730241,70.3756432-58.832139,59.5997629-98.0698556-7.597248-27.663035-37.1895343-51.2064651-52.9985824-72.5189663-34.5476482-46.5637236-129.4829813-98.9052104-178.4016024-101.0149856-10.922941-.4739893-20.5383159,7.1833276-31.5397189,8.5918551-11.5685012,1.4734646-15.9635593-2.5145308-22.4568783-.2783952-14.3575538,4.9526315-18.2524615,12.5431911-20.3994675,15.4676632-20.7107968,28.1113289-11.2232006,65.8070035,1.1573094,87.5934517,47.6652397,83.86095,172.1041104,177.847479,245.0391772,160.2292327ZM369.4454101,275.9319602c13.9873833,22.2949591,52.9610341,51.2468285,64.1399556,79.3961079-26.9625071-16.0919728-55.5420258-63.5318591-64.1399556-79.3961079ZM436.1942964,326.1651535c-17.3155103,2.2351197-32.5553438-38.1546572-51.062537-47.7904995,6.0675668-5.1699842,3.7113358-10.4353632,2.4420164-15.6871325,17.1090793,12.2195856,58.4361672,44.1088595,48.6205205,63.477632ZM452.7708626,256.7527919c19.8303586-11.9527894,26.4020974,7.792059,46.8452302,25.2881357-15.8793189,13.1985511-31.3182812-9.6672736-46.8452302-25.2881357ZM521.3446734,340.6937913c-5.3727325,5.1510196-29.9121454,1.5346552-42.6288335-2.7754853,14.337933-9.6356941,28.4082866,3.0102363,42.6288335,2.7754853ZM491.960448,356.0466083c6.0430779-7.9711226,13.7013472-2.2106519,13.4160308,4.6575365-4.509735,1.4843438-8.9689257-.727832-13.4160308-4.6575365ZM511.9742304,372.0113106c.584941,3.0042041,1.2280459,6.0054661,4.3793318,9.0404242-4.509735,1.4843438-8.9726086-.7313879-13.4154805-4.6566898,3.0449061-4.2249477,6.0100802-1.6667093,9.0361487-4.3837343ZM509.4812677,392.1975951c3.747593-.4065124,7.4740836.7683012,11.1958754,2.3816301,4.5959649,6.6628579-8.5834311.9994753-11.1958754-2.3816301ZM518.9066362,356.3850935c5.8860057-4.5053536,11.1460085.9700123,11.1458815,6.8722946-3.7705369,2.3064488-7.4405357-3.8528087-11.1458815-6.8722946ZM529.8809257,376.7282174c8.5439778-4.4715517,5.8779626.9093297,11.1449079,6.8730777-5.8899849,4.5088672-11.149776-.9736952-11.1449079-6.8730777ZM545.1825212,410.6041867c-5.2488484-4.5562788-5.1969496-9.0468586.16611-13.4763536-.3561799,4.4914053,7.4767717,9.0797928-.16611,13.4763536ZM576.6194585,410.9928351c-9.6149304,5.3630596-6.9514974-3.1466718-8.8735733-9.0961963,6.3957865-5.1653277.6950037,6.9579107,8.8735733,9.0961963ZM565.6425233,390.6451817c-7.185296-.1480555-7.9085773-6.3389984-11.0892627-11.3676156,5.8864078-4.6053625,11.0528574,8.7135168,11.0892627,11.3676156ZM539.0837347,358.8779716c6.0572802-5.4117201,11.9406825,3.2095557,17.8510078,9.2037615-6.007625,1.7810687-11.9474556-2.2083872-17.8510078-9.2037615ZM531.1607434,273.4443948c7.5869614,13.0149792,6.9322153,19.7090357,22.1738266,22.7303206-14.2511739,2.314259-28.3608115-6.8572244-42.4113538-20.7333809,6.7651739-2.1225171,13.5470477-5.5428852,20.2375272-1.9969397ZM515.5853033,262.022277c-10.3118178,6.2500593-22.9743847,1.7243864-26.8359773-9.3114113,9.0645745-6.2417411,18.0023017-3.0563568,26.8359773,9.3114113ZM491.191406,237.0161982c2.6412088,5.5383557-13.3285733,5.3404756-17.9651767-.2178395,6.1258154-10.6434452,11.9374652,3.317904,17.9651767.2178395ZM464.4675234,218.7246856c4.6006637,6.6507934-8.6223552,4.1523063-11.1958966-2.3816301,3.7750875-2.6806832,7.4138031,6.0081965,11.1958966,2.3816301ZM444.1236163,229.6980226c4.434977,4.546225,8.8699751,9.09245,13.3049521,13.638675-10.6358043,4.7431526-24.8918253-.3225261-13.3049521-13.638675ZM426.3243169,216.0054169c2.0968005,2.268837-1.0556707,4.4772241-2.3260273,6.7088514-2.0918688-2.2731548,1.0605389-4.4816901,2.3260273-6.7088514ZM468.0724158,290.6269621c-12.4734918,1.5175531-11.0391842,7.8727858-22.6199404,13.1935348-8.9658779-16.732432-20.9508394-21.8100693-33.20628-38.5834785,4.0117012-6.6844683,7.598772-13.3797313,2.4928993-20.1864327,18.2216863.6646306,41.9727327,36.189297,53.3333212,45.5763764ZM412.9091751,211.3469492c2.0959115,2.2697683-1.056729,4.4782189-2.3270644,6.7098462-2.0919535-2.273303,1.0606871-4.4817748,2.3270644-6.7098462ZM405.9246165,231.4729744c8.2675511,9.0850842-.4684227,17.9585941,4.1615558,26.9984468-8.8457825-2.8792617-17.2762476-11.6499899-17.6880091-22.6758607,4.5859111-7.7044322,8.9867263.0527454,13.5264533-4.322586ZM374.6594617,217.6117822c4.5318957-3.3561507,8.9911499-1.1441866,13.4151418,4.6584678-6.0422101,7.9701913-13.7013472,2.2106307-13.4151418-4.6584678ZM367.5591257,246.7143952c13.1614896-9.4548949,14.3024801,13.4675909,13.2489683,18.13298-9.6900693,2.5841455-13.5253104-13.4308893-13.2489683-18.13298Z"/>
    <path d="M118.0187433,450.2270594c6.6107475,9.9506005,13.3919863,6.5295974,20.2364477-1.9977652-6.6154251-9.9551723-13.396664-6.5341904-20.2364477,1.9977652Z"/>
    <path d="M283.9006699,292.8363017c5.9210776,5.5143324,11.9057587,5.5895137,17.961515.2234273-2.2793564-3.7709602-.9990519-7.5004775-6.5986829-11.3080547-5.8301489-.0075774-11.2220999,5.2524254-11.3628321,11.0846274Z"/>
    <path d="M108.4811955,495.0198739c10.9126544-2.0168145,13.2144044,1.7487483,20.3486905-10.9779301-6.7479872-15.5767312-26.7964394,2.5910244-20.3486905,10.9779301Z"/>
    <path d="M315.1662057,306.6975362c8.1458471-5.8893287,8.2199913-11.8730151.222496-17.9624251-3.0314446,3.1569161-6.0317753,3.8009099-9.0360217,4.3840306.6657312,4.4949612,2.9498923,9.0191101,8.8135257,13.5783945Z"/>
    <path d="M449.2261237,180.3588138c13.0156777-11.341899,10.3683096-17.894546-1.9362994-24.7269005-8.5474914,5.1348277-6.0229279,10.4059638-11.4240862,15.575186,4.3898936,8.2649054,8.9483313,2.7701091,13.3603856,9.1517145Z"/>
    <path d="M517.532863,104.8534862c3.7877447-3.6950169,7.5752566-7.3897163,11.3628321-11.0846486-5.9220089-5.5152213-11.9056952-5.5893655-17.9615361-.2234273,4.6996143,3.7999998,2.3285037,7.5124574,6.5987041,11.3080759Z"/>
    <path d="M308.1825361,326.82263c2.9548875,3.028947,5.9151511,6.0636511,8.8698058,9.0925135,3.0289682-2.9548663,6.0625505-5.9143045,9.0924711-8.869954-5.9216491-5.515179-11.9063725-5.5883284-17.9622769-.2225595Z"/>
    <path d="M153.2737984,504.5573371c-5.2348154-8.5495233-2.6682376-5.9184742-11.0891146-11.3673192-5.9756645,4.4209863-8.3654858,8.8816799-9.1435233,13.3594543,2.2194358,2.2751021,4.434977,4.546225,6.6498621,6.8166917,4.569571-5.8643741,9.0880475-8.1430109,13.5827758-8.8088268Z"/>
    <path d="M503.333863,163.0660144c-6.9712029-2.9831863-19.9377333-.4340916-20.343907,10.9733371,8.473453,13.4591669,23.8611727-2.1211413,20.343907-10.9733371Z"/>
    <path d="M555.2300615,143.4965467c4.5462462-4.434977,9.0924711-8.869954,13.6386961-13.3049309-4.4463642-3.928752-8.9102538-6.1361867-13.4152688-4.6566052,2.0042632,3.0172423.9258179,6.0008519-.111248,8.9812231-2.2326856-1.271182-4.4411574-4.4238225-6.7099309-2.3268527,4.6995931,3.7999786,2.3283343,7.5124997,6.5977516,11.3071657Z"/>
    <path d="M341.7191948,338.4683233c-6.38169,4.412266-.8877616,8.971635-9.142465,13.3606184,6.6162929,9.4294324,13.4676333.3446656,20.2873941-6.4875407-3.6814284-4.7931041-7.4523886-2.5137477-11.1449291-6.8730777Z"/>
    <path d="M152.8892351,535.9888771c-11.0555454,3.5737998-8.1892373,8.9906631-18.1849846,17.7397809,6.9958823,12.5547054,30.562362-10.4349187,18.1849846-17.7397809Z"/>
    <path d="M173.1774546,529.502437c-5.1582795-6.6577569-10.4262195-4.3874595-15.7430317,2.0524579,2.2803936,3.7699654.9991154,7.5006468,6.5949365,11.3116741,8.2547034-4.3889835,2.7655796-8.9529666,9.1480951-13.364132Z"/>
    <path d="M511.8700307,199.1002924c12.1208043,17.60724,24.1520557-.5457629,15.8572429-11.0288976-5.2362547-.0013123-10.5458704,5.2596853-15.8572429,11.0288976Z"/>
    <path d="M170.7393539,545.1935698c-5.3061868,5.2741628-10.5129363,2.6103065-15.8580049,11.0279663,2.9602636,3.034683,5.9148548,6.0633971,8.8698058,9.0925135,6.7296152-6.6461157,14.0539924-13.2941787,6.9881991-20.1204797Z"/>
    <path d="M582.0622924,152.8115774c.1159257,10.1937544,3.9293023,8.0430867,6.5383389,15.7976609,19.4605268-5.6808446,8.8042127-26.9106083-6.5383389-15.7976609Z"/>
    <path d="M150.1087123,578.6225999c-6.7762649,7.4052098-11.9948672,14.8231614-4.7687845,22.3972539,4.5686397-5.8652631,9.0872643-8.1439634,13.5867762-8.8143935-6.2703574-4.5687667-.6652021-8.9905996-8.8179917-13.5828605Z"/>
    <path d="M356.9094365,381.3235261c3.6905509,4.1263146,7.4068819,6.5752946,11.1448444,6.8732894,4.7925538-3.682275,2.5141075-7.4523462,6.8732894-11.1448232-5.8850955-8.113294-11.9434975-2.5284368-18.0181338,4.2715339Z"/>
    <path d="M188.3676963,572.3576398c-3.19493,7.4497852-13.702977,14.8023341-4.7696523,22.3965131,6.0901932-8.0610989,12.0423-5.4294148,18.0737366-8.7585578-5.9931687-9.7324435-.903509-13.7030828-13.3040843-13.6379553Z"/>
    <path d="M556.5005451,222.1085213c6.6399353,7.9909339,13.3690425,8.3119572,20.1808872,2.4987622-3.2655395-5.2821847,2.4780408-10.4507932-6.5431012-15.8027619-5.9998148,4.4799334-13.7332866,4.713478-13.637786,13.3039996Z"/>
    <path d="M379.0833266,404.0539949c2.9570464,3.2264461,5.9405291,3.9445206,8.9303191,4.6028438,3.4131717-5.1983677,8.9772228-10.3655369,2.4371694-15.6920218-5.9345179,8.4251948-11.1892293,2.5935431-11.3674886,11.0891781Z"/>
    <path d="M626.6325052,180.3095607c-3.5940767.9977397-10.9676223-10.16844-20.1770774-2.4928781-.9012655,5.2288255,1.3679102,10.4976121,2.0486057,15.7468839,4.7296699-2.3124176,20.7117493-3.1288712,18.1284716-13.2540058Z"/>
    <path d="M219.5775658,590.7134121c-10.400757-5.314505-20.5165997,4.291324-15.909057,15.5196255,8.088932-1.6542849,19.0492097-4.954346,15.909057-15.5196255Z"/>
    <path d="M194.6280422,610.6122213c-8.4955291,12.3486765-21.6054162,10.6788558-18.2407144,22.2341494,3.2170907-2.1992435,3.8604496,1.1528222,4.434977,4.546225,11.4561314-6.0945534,8.9233767-7.756585,20.4034891-15.4732087-4.7044613-3.7955338-2.33225-7.5088169-6.5977516-11.3071657Z"/>
    <path d="M603.5675304,229.4261254c-5.1975211-3.4124309-10.3694738-8.9735399-15.6901381-2.4374234,1.6098788,9.0063471,5.38594,18.0309603-.3339345,26.9418703,12.7991505,10.196506,25.784455-2.4708232,15.9127611-15.5233931-8.1988677,10.1459195-8.0001834-5.8057234.1113115-8.9810538Z"/>
    <path d="M221.6809489,601.964848c6.8545999,13.2246275,19.9170965,2.1068331,20.2929819-6.4817201-9.0128662-8.2044132-16.5821752-3.4728596-20.2929819,6.4817201Z"/>
    <path d="M637.3276164,223.1102825c.273654-5.9177757-7.3490566-14.5558783-13.3558561-9.1470792-.2743525,5.9165904,7.3537554,14.560429,13.3558561,9.1470792Z"/>
    <path d="M448.325091,434.1024276c9.155482-5.1216201,3.5425165-10.4319555,6.9371046-15.6306195-17.1096719-16.9290844-27.2548505,20.1808661-6.9371046,15.6306195Z"/>
    <path d="M619.091622,245.3396908c2.2156682,2.2714192,4.4349135,4.5460557,6.6544339,6.8213271,9.5296529-6.8582827,14.8484335-9.1410046,11.4703125-20.0695334-8.8691285-.329786-14.3003635,3.6413402-18.1247464,13.2482063Z"/>
    <path d="M223.4560699,640.1634033c5.7218852,8.6698727,11.2220576-4.8637982,11.1448444,6.8733105,8.2547669-4.3888353,2.7608385-8.9482043,9.1425285-13.3604914-5.9163364-5.5096124-11.9046158-5.58854-17.9604567-.2226018,1.2324272,2.2637783.6748961,4.50438-2.3269162,6.7097827Z"/>
    <path d="M223.4041711,644.654343c-9.0472819,3.4929883-15.7689176,12.8302432-4.7724885,22.4010214,3.7922319-3.6994829,7.5798285-7.3944151,11.3674251-11.0893474-4.704165-3.804614-2.3330543-7.5170716-6.5949365-11.3116741Z"/>
    <path d="M268.4204765,636.230524c1.5861307-4.4718268-.5100348-8.989118-4.323729-13.5274481-8.6166827,1.8899884-8.9142542-.671827-13.5869243,8.814076,5.9209083,5.5425677,11.8390438,11.2757979,17.9106533,4.7133721Z"/>
    <path d="M616.533828,270.0110732c3.1558789,3.0324394,3.8045716,6.0373419,4.3830782,9.0368048,4.5004431-.6618579,9.0191736-2.9497442,13.5877075-8.8131235-5.8760577-9.1424862-11.9227126-4.5894881-17.9707856-.2236813Z"/>
    <path d="M643.4256198,274.8355451c3.7874272-3.6948687,7.5750238-7.389801,11.3673192-11.0891146-6.420974-11.6793894-17.9457464-4.425537-18.0169696,4.2724863,2.2146734,2.2704033,4.4348077,4.5463096,6.6496504,6.8166282Z"/>
    <path d="M243.358689,665.1094768c-5.9680871-.2797498-17.4535332,9.3091465-11.4232184,15.5835889,2.2590583-1.2276437,4.499787-.6796796,6.7101637,2.3269162,6.9408933-5.9043777,12.6788858-11.817772,4.7130547-17.9105051Z"/>
    <path d="M465.8468631,470.2526523c6.1126714,6.9613819,15.9522143-2.0863234,15.797809-6.5384236-6.0841186-9.4276544-15.9224974-.3806477-15.797809,6.5384236Z"/>
    <path d="M283.8278592,661.119767c-6.6492271-7.2330039-13.4721628-.0708211-20.2874576,6.4873926,6.8705166,11.196214,19.936548.0823989,20.2874576-6.4873926Z"/>
    <path d="M301.9570716,647.8760479c-6.6646994-5.9810618-13.4016591-5.8269105-20.2326379,1.9921139,8.9994893,9.7332478,16.5264877,8.048611,20.2326379-1.9921139Z"/>
    <path d="M502.1592611,439.2598816c-4.5969597,8.1498687-9.0132048,2.5483539-13.5820773,8.8189441.5916294,5.2433029,5.9456089,10.5552257,6.5383389,15.7976609,10.2335463-3.6280903,22.001261-14.6215985,7.0437384-24.616605Z"/>
    <path d="M652.1283843,297.4035233c-5.8025697,4.4147847-8.0099832,8.8786955-4.6574942,13.4161789,3.5228111-4.4475919,13.6197526-8.8185843,4.6574942-13.4161789Z"/>
    <path d="M281.3903511,676.8097358c-9.4223418.5468-17.5297305,14.7183902-9.262899,22.3417146,10.3588908-.5303329,18.4662795-14.7019231,9.262899-22.3417146Z"/>
    <path d="M660.8306407,319.9630985c8.7494776-17.7425113,40.5827888-10.5999705,22.8414205-31.1549651-13.9890554,14.3232015-10.3747017,9.4977982-29.4402515,19.8469739,2.2879286,3.7700289,1.0036873,7.495948,6.5988311,11.3079912Z"/>
    <path d="M295.0282218,663.5058843c2.9856839,17.9105263,19.8112035,2.5801875,24.4452458,20.5146524,20.6193178-4.4360141,13.5087586-19.4314236,4.9358047-35.8710465-9.9392344,16.7164517-19.5017368,3.4636312-29.3810505,15.3563941Z"/>
    <path d="M476.820179,490.5965382c-5.236043.0081277-10.5466959,5.2701201-15.8543432,11.0335117,6.1570986,11.3158437,22.4294473-4.0983332,15.8543432-11.0335117Z"/>
    <path d="M458.5250682,517.3166745c-3.7923801,3.6995464-7.5800401,7.3943305-11.3674886,11.0891781,8.1118547,15.5973679,26.7541922-2.5888443,11.3674886-11.0891781Z"/>
    <path d="M653.6799933,353.5638052c3.0315504-3.1549476,6.0316059-3.7991743,9.0360217-4.3840306-1.3982621-14.6916788-16.4716045-6.5124107-9.0360217,4.3840306Z"/>
    <path d="M312.5455914,699.6513891c4.6425087-5.177604-.7066238-10.4846586-6.5439902-15.8014496-5.9942481,5.9196383-14.6099996,11.7975798-9.1980467,17.8549658,11.2125118,1.4095224,31.6913303,16.4067945,35.9746959-4.0456513-6.5890947-12.1661629-13.5346657,5.288344-20.232659,1.9921351Z"/>
    <path d="M546.8963458,453.2934912c-6.2486623,3.9386365-16.0106957,6.818512-15.9080411,15.5186307,2.2194358,2.2751021,4.4341303,4.5454842,6.6542646,6.8213906,10.386089-3.4813682,18.4373457-12.7972244,9.2537765-22.3400213Z"/>
    <path d="M683.059922,338.2064587c7.4696388,1.5045996,14.9386002,2.6843449,22.5680628-8.7029761-6.0248329-9.3762213-23.7318066-1.6592165-22.5680628,8.7029761Z"/>
    <path d="M696.1414257,369.8066698c5.9811888-5.1659627,8.2885689-10.3779401,6.9324692-15.6355724-23.6889457-14.4016635-45.9198567,10.3552291-6.9324692,15.6355724Z"/>
    <path d="M498.7752772,531.2929668c-8.4834222-.0368075-5.9543081,5.3223576-11.3674674,11.0891781,9.7123359,8.6051685,16.4341197-3.3144327,11.3674674-11.0891781Z"/>
    <path d="M480.3687067,566.9942204c-4.7904795,2.8506454-2.3840853-3.3970009-6.6543704-6.8211789-5.898938,5.16664-11.2898308,10.3444345-11.4230491,15.5835042,4.5710103,10.4689323,20.6967639-1.8497097,18.0774195-8.7623253Z"/>
    <path d="M653.1793985,393.9734781c6.1092425,7.2347819,15.9211428.110232,15.7967296-6.5392279-6.0774725-9.4228286-15.9216296-.379928-15.7967296,6.5392279Z"/>
    <path d="M582.7089109,462.719029c-5.9624781,5.166005-11.4414422,10.3388467-6.9286382,15.6298999,4.5400022-3.9316306,8.9084547,5.9771249,13.4717395.172481-3.2572213-5.2811687,2.4862955-10.4499042-6.5431012-15.8023809Z"/>
    <path d="M346.0311979,715.7887416c3.7648856-1.8594672,7.5035042-1.5988726,11.1959812,2.3813761,11.326215-11.8344508,11.3014509-23.814269,9.4253685-35.8124592-18.5090135,4.9149774-10.7685357,21.7970735-20.6213497,33.4310831Z"/>
    <path d="M684.6672821,389.872351c5.5106495-5.9173101,5.589429-11.9055471.2225595-17.9622558-5.344349,8.4372593-10.5127246,2.602708-15.8524806,11.0336387,5.1265941,9.1414702,10.3921213,6.6944586,15.6299211,6.9286171Z"/>
    <path d="M498.4423586,558.2355144c-3.7747912,2.2832086-7.5006468.9991154-11.3127535,6.5941111,2.5320139,9.8868064,15.9491664-3.2831707,11.3127535-6.5941111Z"/>
    <path d="M455.080571,613.8394293c8.5727635,2.115871,20.0540399-14.5447662,6.9879874-20.1205432-6.7247682,6.6506029-14.0586489,13.2987082-6.9879874,20.1205432Z"/>
    <path d="M629.9481655,456.564428c.2909042-6.9175684-9.3207243-16.1959609-15.6353395-6.9323634-.2915604,6.9185844,9.3207243,16.2074752,15.6353395,6.9323634Z"/>
    <path d="M486.6806339,600.7579892c2.2626354-1.2145632,4.5484262-4.3113893,6.7653856-2.1601077,5.5146287-5.9208659,5.5934082-11.9090818.2264117-17.966108-10.0023934.1456638-14.986033,13.0133494-6.9917973,20.1262157Z"/>
    <path d="M671.029475,403.1763718c-10.4668793,8.1070077-16.680639,16.2631838-7.0437384,24.616605,8.0513837-1.1848674,37.2990467-12.5317192,25.0061635-24.394109-5.9500114-3.2400769-12.1104965,10.5682639-17.9624251-.222496Z"/>
    <path d="M379.9574997,695.9963334c12.6425862,17.6138015,21.736158-.5719028,20.3485212-10.9778666-6.7819373,3.4013611-13.5890832,9.3025004-20.3485212,10.9778666Z"/>
    <path d="M404.9626261,671.603198c11.8318897,11.5357787,23.9648221-.8420432,35.9792254-4.0409736-3.8616349-13.5898875-24.6124988-6.6150442-35.9792254,4.0409736Z"/>
    <path d="M434.5102099,642.778705c2.9595017,3.0337517,5.9141563,6.062614,8.8736368,9.0963657,4.5499925-4.4385964,9.0962175-8.8735733,13.6424425-13.3085503-7.3923832-8.1049758-14.9010308-6.0964583-22.5160793,4.2121847Z"/>
    <path d="M611.6482712,483.2891573c-13.3575917-2.3577338-22.9706383,16.062912-27.2765456,26.6088036,2.9549298,3.0291163,5.914368,6.0626987,8.869954,9.09245,9.3078342-21.4809818,19.0343089-17.4127888,18.4065916-35.7012536Z"/>
    <path d="M663.7631982,445.7535816c-14.2772292,14.018349-3.8160859,3.7318032-13.4152688-4.656584-8.9176407,3.5993893-14.3655968,8.9140637-18.1839263,17.7387861,7.3227262,13.3541628,14.9963832-2.4275601,22.4517985.2827342-6.6705835,5.1526282-1.2317287,10.4608046,2.0517594,15.7422485,9.1000485-9.4911098,17.9381266,2.1778659,27.1093349-13.1332754-10.9468162-11.7577032-19.4445677,2.1993493-20.0136977-15.9739094Z"/>
    <path d="M645.3613054,481.4594282c-6.6509204-7.4658077-13.451399-2.1221361-20.241972,1.9920716,1.4597914,17.8831164,14.8793357,8.5184941,10.9222002,24.8431014,3.7700924-2.2877805,7.4960962-1.0037719,11.3118857-6.6025351.1104649-6.7326843-11.9613827-13.6219751-1.9921139-20.2326379Z"/>
    <path d="M429.1887625,710.0839372c10.1835524-6.6125254,8.5773988-13.3675397,2.4984447-20.1807602-12.4042158,1.0428442-15.3491977,17.923755-2.4984447,20.1807602Z"/>
    <path d="M454.3571838,672.2189566c8.4516098,15.5930712,23.8728774-2.6282976,20.3486905-10.9779301-6.748347.6975648-13.4904078,1.4094377-20.3486905,10.9779301Z"/>
    <path d="M558.8705127,574.7057854c5.9916447,7.9002168,19.9731015-1.4247195,13.577442-8.8144146-5.9625839,1.9274732-13.6649418-.7308164-13.577442,8.8144146Z"/>
    <path d="M499.655419,641.3422385c3.2160536-2.1982698,3.854756,1.1583677,4.434977,4.546225,6.4007182-11.4511362,19.7491027-12.8035106,13.804785-26.7796125-9.4591705.5453396-18.8819567,14.700632-18.239762,22.2333875Z"/>
    <path d="M638.2570537,510.5657029c-8.7474669,3.9123061-11.7810492,6.8717231-15.9089089,15.519562,8.5639373,12.3412049,25.4240208-8.4204536,15.9089089-15.519562Z"/>
    <path d="M547.2249888,608.2423806c-8.6944886,8.0840639-8.9656874,3.7718915-13.6387596,13.3047828,6.791208,7.1737394,25.368672-5.009716,13.6387596-13.3047828Z"/>
    <path d="M497.1625198,661.519337c-3.7922107,3.6994617-7.5798708,7.3942458-11.3673192,11.0891146,6.7078566,11.3178545,22.5146189-4.1018468,11.3673192-11.0891146Z"/>
    <path d="M513.0705609,646.0007063c-2.2702339,2.2146099-4.5451879,4.4339822-6.8164589,6.6495869,2.2146099,2.2702339,4.434977,4.546225,6.6495869,6.8164589,1.5126426-1.47556,3.0290317-2.9547182,4.5462885-4.4348288-2.7078179-3.0259626-.1540666-5.9866707-4.3794165-9.031217Z"/>
    <path d="M603.9961823,557.3006375c8.4244963,5.9337136,2.5935643,11.1892293,11.0846486,11.3628321,6.9495713-5.9033406,12.6883681-11.8178355,4.717817-17.9057851-5.1869593-4.6425299-10.4930403.7054597-15.8024655,6.5429531Z"/>
    <path d="M572.0632009,597.3246252c-3.0335823,2.9594382-6.0624658,5.9140928-9.09245,8.8699751,10.1238857,16.7048528,26.9687933-6.9127426,9.09245-8.8699751Z"/>
    <path d="M637.9223995,537.508441c-3.7005412-2.9522206-7.5195268,3.2742175-11.3062556,6.5986617,3.3053314,13.0937375,21.5766729-1.0389708,11.3062556-6.5986617Z"/>
    <path d="M533.1965861,652.9830635c12.4907844-3.2660263,10.9957729-4.7151077,22.618988-13.1927728-10.1831291-10.4100911-30.708301-.9640859-22.618988,13.1927728Z"/>
    <path d="M605.9373076,582.0229239c-10.3591236-12.3586456-21.7602025,8.4659603-11.4267743,15.5799695,5.8980914-5.1677407,11.2935984-10.3407516,11.4267743-15.5799695Z"/>
    <path d="M630.7161704,575.5958118c-10.5684968-16.4595188-23.2255605-1.6406752-18.0726995,8.7575842,6.0132128-1.9211446,11.9652349.7107723,18.0726995-8.7575842Z"/>
    <path d="M558.2018606,628.5898647c2.9558611,3.0300053,5.91513,6.0636511,8.869954,9.09245,2.7191628-5.2070034,16.0310573-10.2781217,11.4184984-15.5788054-6.7396267.445119-13.4418532-2.5843148-20.2884524,6.4863554Z"/>
    <path d="M596.5071344,617.8400396c6.6221559,9.4333057,13.4697287.3448561,20.2931512-6.4834557-6.9116632-8.1764742-19.8988939-3.5131806-20.2931512,6.4834557Z"/>
    <path d="M621.1787708,620.388584c2.2015717,3.0244598-1.1837033,5.975728-4.60096,8.930425,2.9545912,3.0287142,5.909521,6.0578093,8.8689592,9.0914128,8.26027-4.3926452,2.7654315-8.9529031,9.1482645-13.3642166-4.419674-5.7981037-8.883479-8.0147032-13.4162636-4.6576211Z"/>
    <path d="M271.8756202,175.9139523c-10.0870359-.3486448-11.1521255,3.6776397-13.6378072,13.3040208-2.2146734-2.2703821-4.4341092-4.5455053-6.6542011-6.8212636-8.6944674,8.084085-8.9601419,3.7775851-13.6387385,13.3048039,12.4123858,11.5850741,33.4885697-8.0379434,33.9307467-19.7875612Z"/>
    <path d="M500.0448717,609.9058727c-3.1465024-3.0318679-3.799894-6.0324103-4.379353-9.0327198-5.3461692,8.5185153-10.4560423-1.9831607-15.8013437,6.5344232,10.2658666,12.8825653-.9118696,15.2947378-11.5298946,24.560092,5.8714859,9.147185,11.9172095,4.593298,17.9606683.2226865-3.9997001-12.3445703,2.3443993-12.8824595,13.749923-22.284482Z"/>
  </g>
</svg>