<?xml version="1.0" encoding="UTF-8"?>
<svg id="cowberry" xmlns="http://www.w3.org/2000/svg" version="1.1" viewBox="0 0 1007.4583535 1000">
  <!-- Generator: Adobe Illustrator 30.0.0, SVG Export Plug-In . SVG Version: 2.1.1 Build 123)  -->
  <g id="outline">
    <path d="M963.3082825,255.5231654c7.8718436-19.2779424,14.1867953-26.3710402,31.2018343-50.5694309-20.2126087-12.1344917-39.7319708-12.4108865-59.7298032-20.9129873-.9623807-21.8875547,8.297755-44.3692993-1.3747562-65.7523397-28.2730561-10.9384872-55.128949,2.3856051-83.1811892-4.9248604-16.1760667-25.0629999,3.7793588-52.2268573-19.0953355-76.9051319-14.2989381,5.6754849-27.544856,29.390158-42.3262909,26.8356961-222.2887065-133.3751901-408.3647479-27.9074354-486.5689247,59.9329711-145.1527994,163.0381018-137.9846542,371.8536706,8.7328118,528.5437947-68.3872463,73.9171554-188.3205256,117.4143921-258.2876878,212.4747103-23.7158511,32.2092777-36.8313354,59.3872493-52.6789411,100.5797326,11.5491687,16.0852559,10.4572326,23.3357306,23.9858206,35.1746801,61.3863087-158.1414698,215.7341984-222.2321639,332.9736298-311.8866241,107.8937963,102.30244,300.7162694,169.7159542,467.6004888,75.2621411,96.0711028-54.3746194,211.7059451-198.6370442,176.4010457-405.1986193-6.1213789-35.8149608-32.3275032-66.6236526-37.6527024-102.6537323ZM965.5052195,377.2978058c12.0186436-7.5077221-6.0727609,12.8128101,0,0h0ZM964.9055252,409.0280992c-3.6018493,7.3413926-8.7074747,20.0493205-18.3097788,20.5658714-7.3169979-9.3274514,10.5089562-20.1121599-1.6920801-29.1562772,6.1361571-6.3139022,13.1443125,2.5601375,20.001859,8.5904058ZM876.2017518,519.0147427c-4.1227694-20.69744,12.8333711-37.8273847,32.3236052-31.1365104,5.2494664,12.1568945-16.058184,26.7162284-32.3236052,31.1365104ZM902.7898813,515.0264976c12.0239123-7.5030102-6.061538,12.811011,0,0h0ZM842.1153026,603.883086c5.95672-12.1368048,26.2128065-20.87118,39.7616128-29.1268279,4.3397302,15.5659207-26.712823,44.2525302-39.7616128,29.1268279ZM868.1092207,631.6298675c-1.5270785,1.7152112-3.0501306,3.4259461-4.5776375,5.1417998-2.6138958-3.0775452-5.0794102-3.5003296-7.4327817-2.0044137-6.0474881-6.0774513,7.0004879-9.3793036,9.1554463-10.2835997,1.6494162,2.3403282.2670353,4.8613999,2.8549729,7.1462136ZM822.3649297,641.6009408c-4.2373538-7.3728766.6752985-21.695267,10.8821802-22.5758752,2.4850473,3.0861979-.8687856,3.8506581-2.2917744,2.5741661,2.1455775,6.3728008.2821133,12.9843227-8.5904058,20.0017091ZM766.3066259,683.8609227c1.3822952-15.3373087,21.759777-19.1439107,22.6051745-30.5715128,19.675197-1.3957241-1.5736834,19.1131549,17.7165527,11.1680201-9.2039787,4.9155652-11.0396427,16.2757873-15.1782184,32.5715145-8.3810697-4.4141351-17.0219783-13.223001-25.1435089-13.1680219ZM782.2947313,707.31233c-3.0951505,2.6460652-6.6187825-2.0020792-10.0002013-4.2905981,3.095279-2.6440947,6.6185683,2.0020792,10.0002013,4.2905981ZM639.3849169,681.4755103c-16.254027,2.5654277-1.7039241-15.5157391,0,0h0ZM633.0853003,698.9041884c14.5272503-2.9316481-5.5583303,18.755266,0,0h0ZM615.9689986,656.0139065c-11.6053686-6.6376514,7.5521423-15.0655187,10.8811735-22.5749328,7.1314354,6.9022451,18.0800317,13.5830531,18.2751465,20.8826813-9.2169578,9.205328-19.7586401-4.4180974-29.15632,1.6922515ZM516.200995,659.3687032c-10.5198792-12.1962388,5.6942681-38.6238643,19.7585759-37.7182618,9.302457,11.6483752-9.4808447,24.929675-19.7585759,37.7182618ZM523.2851616,739.4119922c-1.6435477-2.3447188-.266714-4.8595794-2.8489117-7.1507541,1.5221525-1.7096426,3.0500877-3.4259675,4.5767808-5.1406647,6.5540369,3.6858065,1.62228,8.0345321-1.727869,12.2914188ZM485.3207253,673.3479186c-5.5813329,1.8670409-11.3918346-.2318247-17.4288494-6.2994667,6.1007966-6.8525347,12.2052984-13.7092245,18.309993-20.5660427,11.9168241,8.2459243-3.4543031,18.0764335-.8811436,26.8655095ZM477.8573592,712.7877954c-1.469615,2.6106404-3.1592749,1.5384727-4.8581873.286868-1.7159822-1.5278924-3.4310221-3.0547996-5.1417784-4.577766,3.1990047-.8539646,6.3988018-1.7842617,9.4370884-5.4276612,2.2242874,3.124664-2.8088179,6.6705704.5628773,9.7185592ZM445.2949044,319.7159146c-4.4699067,2.7257174-2.0263668-2.2725413-5.1416285-4.5776161,3.5156218-2.6633064,7.4195456,1.9567595,5.1416285,4.5776161ZM435.8881434,283.6912536c-1.7107349-1.5230092-3.4267386-3.0507303-5.1417998-4.5776375,3.049895-3.4256248,6.1045018-6.8566683,9.1554034-10.2834069,1.7150827,1.5267359,3.4310649,3.0546283,5.1418212,4.5776375-3.0509016,3.4267171-6.1055299,6.8577821-9.1554249,10.2834069ZM466.3611135,430.6493682c5.6727862-.2550842,11.6778245,5.1755755,17.7148393,11.1591318-5.3044241,6.641678-10.6408461,12.7304592-16.3050653,13.1333467-2.8769474-8.8060387,3.3686967-20.4779091-10.0023216-4.2905124-.8650804-6.4522817,3.0002917-13.1748755,8.5925476-20.0019661ZM460.684772,374.8986648c2.2984567-2.4352512,4.9266809.8051752,7.4321606,2.0048849-2.2943231,2.4391492-4.9225473-.8012772-7.4321606-2.0048849ZM493.7598369,482.6942183c-9.9935404,4.9785545-10.8910685-10.3991265-.846447-14.5832574,12.7008815,4.1431376-6.2230057,10.1174201.846447,14.5832574ZM469.7096348,530.4137737c6.2261113-4.7610582,13.595047,10.2368235,20.2889412,13.4486145-5.3414766,5.9996196-10.6833387,11.9995605-16.0238087,17.9982591-1.6089368-13.1054823-2.0917763-6.6339676-12.856652-11.4460213.3084356-7.9385382,10.5795916-8.6392809,8.5915195-20.0008523ZM477.1767919,490.9676429c14.8967262-4.0738301,8.0929166,33.3936739-6.3043714,17.4340753,6.0533351-6.0400347,11.5873992-12.046765,6.3043714-17.4340753ZM477.2422871,408.0744354c-5.9620316-4.5299404,6.9501136-10.155415,8.8719837-15.1480837,4.283616,3.8137555,8.572672,7.6322443,12.8564593,11.4461712-6.9218208,6.7953282-14.6570627-.4296381-21.7284429,3.7019125ZM470.7209549,337.7498769c2.2932308-2.4401559,4.9268951.8050253,7.4323962,2.0045637-2.2997632,2.4343945-4.9279874-.8060319-7.4323962-2.0045637ZM457.8643243,326.3036843c-9.1493423,1.2502126-2.5746373,6.7463674-11.7239795,7.99658-5.2703914-3.2211291,8.2329238-18.4939064,11.7239795-7.99658ZM450.5023707,241.4003446c2.2931665-2.4397918,4.922119.8106153,7.4312183,2.0040711-2.2988208,2.4352084-4.9268737-.8051966-7.4312183-2.0040711ZM456.9532388,394.6238505c-2.2988208,2.4352084-4.922119-.8106153-7.4278128-2.0101751,2.2945158-2.4391064,4.9232541.811472,7.4278128,2.0101751ZM442.9387485,405.1841234c-2.2943231,2.4391278-4.9225687-.8012986-7.4323534-2.004735,2.298628-2.4352298,4.9268523.8051966,7.4323534,2.004735ZM444.0712283,424.6268531c6.6248865,4.4905319-3.7562063,9.9691029.8408784,14.5783099-4.5289766,5.9628455-10.1495252-6.9547183-15.1370751-8.8736328,4.2546593-10.7081189,9.593116-2.6545466,14.2961966-5.7046771ZM439.1419558,507.8021739c2.3376296-3.3935626,2.546623-.142663,4.8600078-.2760307,22.9719946-1.3391601-13.7845932,13.2402208-4.8600078.2760307ZM438.1961095,617.5728632c-2.8957521-5.9636379,3.7911813-5.0067401,6.8685766-7.7148308,2.9003569,5.9563988-3.7923164,5.005862-6.8685766,7.7148308ZM430.9032064,449.7703834c-2.2988208,2.4353797-4.9268523-.8051966-7.432332-2.0049063,2.2943017-2.4389565,4.917814.8067173,7.432332,2.0049063ZM427.1664902,469.4903005c14.157603,1.4652458-13.8932021,3.0931372,0,0h0ZM430.4569054,652.152561c3.4256248,3.0498736,6.8566898,6.1045018,10.2824859,9.1543968-5.4627433,3.9141615-11.290829,1.5289847-16.5877783,8.2786933-1.886274-5.5791054,3.6479186-11.5840366,6.3052923-17.4330901ZM429.3278953,632.7148429c7.5677772-9.5960716,16.583045,5.6599785,24.0164692-6.2699746,7.8726361,6.8592813-1.6261138,14.7267771-6.0236502,22.2890286-5.9943509-5.3369146-11.9930067-10.6775559-17.992819-16.0190539ZM455.7297555,499.5233306c-4.0763145-10.3231581-15.2269435-20.2409228-4.2606562-31.4431469,5.1416285,4.5776161,10.2834069,9.1554249,15.4252067,13.7330409-8.872155,6.2036656-2.2982639,11.5108525-11.1645505,17.710106ZM467.6751293,579.2894753c5.6655471,6.3382755-1.8151674,25.8937906-8.3143537,24.8617383-8.1908381-7.6493142,4.888429-16.5381536,8.3143537-24.8617383ZM459.0134884,682.1909456c3.9020605-2.7803753,8.3387698,3.5987865,12.5752027,6.5812373-9.1540756,1.2554599-2.5748086,6.746346-11.7230372,7.9973939-6.635167-4.4919669,3.7570416-9.9700452-.8521655-14.5786312ZM481.9368221,615.0334151c-.8652731-6.4521317,2.999949-13.1749398,8.590213-20.0017305.6461491-11.4454216,2.358833,22.6891531-8.590213,20.0017305ZM488.0242112,509.8424622c2.9706068-4.7905718,6.3712587-2.2601619,9.4377309-5.4199509,1.7107563,1.5230092,3.4257962,3.049895,5.1417784,4.5778088-2.9755329,4.7959476-6.3725866,2.2594337-9.4388446,5.4189228-1.7150613-1.5269072-3.4256248-3.049895-5.1406647-4.5767808ZM602.5918976,215.50604c2.5730524,2.2907463,5.1416285,4.5775946,7.7148522,6.8683838-5.9111861,10.1897261-12.6834261,5.5582446-19.4390245,1.1281534,4.0388764-.5118605,7.9315346-3.3463367,11.7241723-7.9965372ZM602.0626032,164.3376859c11.3357418-5.1812083-2.5292533,15.7217127,0,0h0ZM700.3207695,261.0341627c-11.0413133,12.3069038-43.9960967,8.7428352-32.8930363,21.4123398-9.3517391,6.9018382-20.0115612-8.7392371-29.7224314-8.0272501,13.1662656-10.3324747,40.6314479-26.9855126,62.6154677-13.3850898ZM642.8826335,237.5471592c1.6113784-12.8465001,9.5610323-9.106357,18.3100144-20.5660213,3.2962408,7.1249887,1.0830692,14.5695715-6.0175248,22.2926267-4.0463084.3648925-8.405186-4.7447808-12.2924897-1.7266054ZM702.6421859,217.0167983c-7.9056835,3.7703419-15.7544389,8.6174777-23.4512788,15.9881269-4.4465614-8.6650463,12.7159809-33.1037645,23.4512788-15.9881269ZM696.6550956,197.8548325c5.4197367-4.5494947,11.2464088-2.2597336,16.8692276-3.4139094,4.2091682,9.1107476-11.9187517,13.8509665-16.8692276,3.4139094ZM736.3107768,293.0759972c7.7766207-6.1012678,17.0661415,13.8807585,24.3026519-1.4101168,29.8339745,19.1067297,66.8992336,58.6309706,89.6987518,75.2535526,6.1944988,8.5435226-7.3529367,3.3088558-9.1554463,10.2835782,11.3357632,13.374231,21.409427,4.8933122,32.8529638,20.0316509-9.1290597,21.6615985-12.4161552,42.9819709-20.6304242,64.5843924,19.776631-14.4208045,17.2451931-60.7714293,34.6504188-75.1490987,2.6137245,3.0777165,5.0733704,3.5048916,7.4278128,2.0101751,10.9403505,10.7424514-1.3681596,22.8313235,1.9743648,34.019926-5.1269574,9.6128845-11.4569014-1.347513-16.5875427,8.2696979-4.727561,6.0778797,9.4504958,2.4320172,12.8565878,11.4461926-38.9218695,56.3547883-84.043678,79.3592949-136.4540845,127.3807107-15.8157362-19.6226595-67.9504547-30.6899096-66.8404635-59.507895-6.9628785-7.9330552-12.6891446,5.458931-19.4376966,1.1290101-13.1802085-8.9883458-18.8997495-18.4126264-16.2754018-28.3119506-6.078201-6.7804858-10.9052898,8.1724403-17.148064-1.4448776,10.3743462-3.3015095,20.0192715-19.1667847,30.6034251-18.8384522,21.601886,22.2318863,42.5949968,33.8804114,63.9892601,52.3554489-11.9008893-22.2494059-44.1282436-32.7795441-64.271866-57.2210681,8.6285721-5.3413267,17.1096193-13.2045604,25.7376559-18.5558677,17.7267047,11.3463007,35.4160999,22.1351427,53.1482018,33.4861767-1.5868338-15.4574831-47.522513-21.933367-41.4198959-41.4788587-12.9611916.7521665-26.4194226-7.216335-40.0090509-17.1855449,13.641609-16.987603,28.1946889-18.3672852,41.7712953-36.556804,17.7559612,11.9369353,35.4588067,22.8874806,53.4151943,38.3479407-6.0799572-19.4675314-32.2787994-25.173772-46.2733499-41.197238,6.3293015-2.98123,12.6809202-5.5967964,18.878546-10.851917-9.3934392-7.8386248-17.9228047-.7020492-26.3072155,8.8426843-7.714638-6.8683624-15.424093-13.7320129-23.1400589-20.6014247,10.7375254-15.334503,26.5644844-7.667048,30.3207978-23.7039,6.0362224,5.9845202,12.0416033,11.4253104,17.711284,11.1654286,4.7382699-5.9646874-9.9319647-10.8032775-13.1345032-16.3060933,6.4945173-.1533504,12.4895321-8.899334,18.5930915-15.7012374,36.1509395,15.6631782,83.4657441,64.4544086,112.8370117,95.8443113-36.0584152-51.3228825-74.0606108-74.5887915-113.6842511-110.4285325ZM741.206295,251.3504286c4.5813213-5.0831155,9.9239116,2.9745263,14.296111-5.7068189,14.739799,9.710549.1395574,21.1186824,4.2608276,31.4431684-12.0627211,5.0510318-9.9398035-6.1377849-22.5704351-10.8774255,16.6326911-4.6839975,10.8188268-5.894823,4.0134965-14.858924ZM847.2094481,313.4608038c-15.8069121.7974006-21.1473606-11.0544423-25.7075213-22.8875877,7.9407656-3.0653371,17.1152736,14.9190862,24.8553558,8.3087851,6.6362165,4.4908746-3.7560135,9.9691243.8521655,14.5788026ZM824.9515394,265.9927559c-.3880878,7.3335109-15.5028671,15.5279258-6.0237573,22.2888572-9.6369151,1.9682822-20.4625098-16.529972-30.5712986-22.6053244,12.5541705,6.2554106,23.3880325-17.1699743,36.5950559.3164672ZM818.963464,246.8319253c2.2939161-2.4299825,4.9221618.8104439,7.4278557,2.0098324-2.2945158,2.4392777-4.9230614-.8114506-7.4278557-2.0098324ZM820.0569636,307.7193312c33.664136,25.0497424,26.9917665,29.2270625,61.9798989,59.7951913-22.8991532,27.9746011-52.2606972-32.4081621-68.2842702-42.3610946,6.0725039-6.0420908,8.17032-11.8536206,6.3043714-17.4340967ZM894.1127768,281.4821942c-8.8509301,6.2036441-5.715643,11.7062671-11.1644648,17.712055-13.1778097-10.2224523-20.2607555-9.1967609-20.8477705-23.1652675,10.2642809-5.179195,21.0436135-1.4984646,32.0122354,5.4532125ZM870.6956163,256.021854c4.2882422-10.0406806,9.7837117.5436228,14.8610658,4.0136036-4.6506717,3.9707683-9.6453965,1.9242046-14.8610658-4.0136036ZM936.5892483,425.299603c-12.2660175-1.3574079-23.9111801,8.0689931-36.5886306-.312505,11.7411565-7.7742005,24.0528792-5.7113808,35.4604772-19.1263482,5.3047667,6.1956339-1.3284512,13.0789673,1.1281534,19.4388532ZM910.3175861,392.6927494c4.4963789-6.62932,9.9702594,3.7570416,14.5831932-.8462971,3.7143348,9.6362083-9.3607131,17.6663069-18.0316064,25.4256436-3.2685478-7.9349614,6.7167468-16.6442352,3.4484132-24.5793465ZM936.3420886,378.9952189c-13.4086492,7.0480565-28.1994222-9.7764082-41.4486384-.0345038-2.2214388-13.998577,17.4621539-4.4164911,23.1691013-20.8540459,7.1315639,6.9022879,18.0791536,13.5840383,18.2795371,20.8885497ZM930.3549983,359.8334245c2.2945158-2.4392777,4.9232327.8113006,7.4278128,2.0100252-2.2987994,2.4352084-4.922119-.8104439-7.4278128-2.0100252ZM894.3293093,369.2412992c-13.6823668,3.7298197-5.6915267-14.0694051-1.127982-19.4390031,11.5278795,5.8294778-8.1220874,13.4733305,1.127982,19.4390031ZM922.3942715,306.6613634c-5.8797878-3.2547334-11.3919203-.212356-17.4340967-6.3043499-.0313126-12.9298576,15.1303713-18.6705806,24.0143275-6.2695463-4.4310551,4.3235599-1.6791867,8.2272053-6.5802307,12.5738962ZM901.0466558,190.8743059c12.0184294-7.5075936-6.0671923,12.8065776,0,0h0ZM913.2390394,316.9448132c3.9687765,4.6397915,1.9174367,9.6401277-4.0147388,14.8601877-9.5282419-5.1355887-3.6137147-11.1685984-13.1326613-16.3060505,5.4132686-4.6588104,11.7280489,6.1094065,17.1474001,1.4458628ZM900.0696682,342.0876153c-7.0794762-9.9306796-13.4495569-7.6611796-19.7248002-3.731319-.8652731-6.4523031,3.0049393-13.1783666,8.5913053-20.0008738,8.3791421,7.6384983,19.13136,15.139174,11.1334949,23.7321927ZM883.7635963,355.2220756c-12.6383848,2.8313064-13.8244515-17.625335,0,0h0ZM861.9046985,524.7205336c1.7503361,11.2727953-4.7100414,23.0262027-17.4640386,35.1389554-8.9180959-.2606742-3.0640949-3.1390352-10.2824859-9.1543968-6.3339706,17.4458122-11.9118123,5.6171003-23.733028,11.1342873,5.2558917,6.5653883,9.7670487.2754953,15.1417655,8.8685568-9.7225,14.5311697-20.3162273,14.0345372-30.0386844,28.5676773-6.8566898-6.1043305-13.7144932-12.2098604-20.5659142-18.3096503-1.9593296,7.4247287-5.3341089,14.9316798-1.1578382,22.0064655-7.9462914,3.1643081-16.3811622-2.0948391-24.302609,1.4104809-5.8440204-9.4142143,2.174577-19.6307767,8.0274214-29.72241,4.283616,3.8137341,8.5672319,7.6274896,12.8562451,11.4461498,5.3294827-10.7249532-3.6447702-5.5323507-10.5654988-14.0192022,43.3315926-32.4944966,72.3615914-56.9808905,114.4064115-87.0938086,3.36497,8.7431779-1.0656567,17.9428302-5.7393737,27.1525488-7.5722963,9.4328263-16.2086644.722246-24.0166406,6.2699532-3.2303387,7.7372765,13.2747888,9.4276004,17.4342681,6.3043928ZM857.2970763,571.3056602c2.5687903,2.2868697,5.1418641,4.5776375,7.7106115,6.8645072-4.0334578.5164438-7.9306136,3.3473433-11.7241937,7.9965372-3.9743451-4.6443963-1.9234764-9.6353944,4.0135822-14.8610444ZM822.6764708,605.0112608c-8.6771473,4.397258-17.9013014-.4198716-26.5832462,3.9828265-1.5428419-15.8025429,18.6510049-12.3756116,25.45505-23.4216796,5.3095215,6.1902153-1.3284084,13.0789887,1.1281962,19.4388532ZM793.2421925,601.8434188c-6.0247425,5.3241711-12.129844-.2031464-12.5730181-6.5815158,3.8998973-2.7801182,8.3322374,3.5930466,12.5730181,6.5815158ZM670.6560158,548.0064467c-8.9530066-.1804009-18.5470222-11.4776123-27.7165613-15.4587896,8.4628851-10.2434201,1.8869379-19.6136855,12.8819891-30.0030026,7.7146809,6.8683624,15.4241144,13.7320129,23.1389452,20.6005894-7.7551817,8.5747709-8.5658183,16.7516233-8.3043731,24.8612028ZM624.9064989,557.9726154c5.6662753-14.672719-8.7465619-22.3389959-20.2846148-13.4450592-6.7776586-9.3637758-.6622552-19.4658608,8.0283638-29.7214034,7.7094121,6.8638218,15.424093,13.7321842,23.1335051,20.5958347-11.6696215,7.9893194.7915321,14.5822722-10.8772541,22.5706278ZM613.7131416,617.1380421c-9.6582685,1.6211449-19.5425146-.671015-30.0086355-12.8865939,15.9825154-10.14839,15.7613568-6.5394301,6.0275054-22.2931622,9.3286722-7.2968011,20.2078325,12.1399318,29.9982908,12.8872579-4.7039374,7.5892377-6.9151599,15.0336921-6.0171607,22.2924982ZM508.6554707,445.257106c-11.1705474,3.5851221-4.1745787-14.1514133,3.7265857-19.7195957,5.2791726,6.1921-7.4838843,13.4402402-3.7265857,19.7195957ZM515.2075586,474.137374c6.3868079,6.1278257-5.2601752,13.3021178,1.1281748,19.4388318-11.3781487,3.5962164-12.3756758-13.6814672-1.1281748-19.4388318ZM517.9920889,564.1823635c-3.9361146,2.1585352-7.988377,2.3488524-12.2924683-1.7267553,3.6874985-6.552966,8.0406147-1.626692,12.2924683,1.7267553ZM512.0042062,545.0211902c5.1372593-9.5188396,11.1695622-3.6142929,16.307207-13.1334323,6.2553249,6.9481431-5.0223107,14.9198787-1.1638994,22.0110274-4.5252499,5.9585191-10.1497179-6.9545684-15.1433076-8.8775951ZM544.827785,606.508633c-11.1884526,5.0783822-11.5028637,1.3573437-20.0007024-8.5914981,7.1468989.2699052,19.399873-2.445446,20.0007024,8.5914981ZM537.7171248,567.9135326c-7.2322911-9.3364254-4.0630141-19.2674905,3.167328-29.444259,3.4459502,3.471223,6.8993751,6.9106408,9.9963675,4.2970234,11.2942558,10.2414497-1.5899394,26.7969087-13.1636955,25.1472355ZM588.729537,396.7284774c10.4034742,1.1414751-2.9504314,50.9485233-24.8921727,33.1400675.8704348-11.6779958,24.7826-28.4466247,24.8921727-33.1400675ZM551.8574652,391.5511671c6.6688998-11.1552338,14.2188147-7.1235537,20.8876074-18.2805652-.7013424,8.170577-3.9681554,16.4858945-8.3134327,24.8629162-4.3194263-4.427307-8.2220436-1.6765738-12.5741746-6.5823511ZM587.3192703,372.4256756c1.7150613,1.5269072,3.4310649,3.0546283,5.1459334,4.5815141-2.9755329,4.7959476-6.3712801,2.2603118-9.4367243,5.4188371-1.7161536-1.5279353-3.4257962-3.0499164-5.1417998-4.5776375,2.9653595-4.7952836,6.3669752-2.2642099,9.4325907-5.4227137ZM577.0711811,321.8207128c2.2860344-2.5676123,4.5767808-5.1406647,6.8636505-7.7094121,10.8670165,2.8964161-2.730515,18.1695361-6.8636505,7.7094121ZM603.9111821,364.1508803c-4.4952652,6.6301338-9.9743502-3.7609396-14.5828505.8461472-4.9852154-9.9970315,10.3987409-10.89094,14.5828505-.8461472ZM590.2036711,338.1269132c-.1182254-2.0371399.1857767,3.1841194,0,0h0ZM649.6864431,312.7353665c8.6276511-5.3511788,17.1098121-13.2133844,25.7430104-18.5621216,5.9943509,5.336936,11.9930281,10.6775773,17.9928619,16.0190754-14.0992185,9.2020939-28.7883862,8.0492246-43.7358722,2.5430463ZM668.5300998,343.3323663c6.5749834-12.7016525,14.1673695-7.8548166,21.4425601-8.5594359,2.7157154,9.1770781-14.7597262,22.432227-21.4425601,8.5594359ZM658.8070643,343.9028255c4.2836374,3.8137341,8.5674032,7.6276824,12.8510406,11.4414165-3.8137555,4.2836374-7.6272969,8.5671034-11.4412665,12.851062,6.5714495,1.1902217,12.5106927-8.4291951,18.8729132-10.8476549,5.8371453,2.543496,12.3403796,16.555459,17.7168097,11.1591961,2.1623689,20.2463415-21.9698627,24.8560197-36.6254047,41.1381467-13.8866269-7.3188613-8.9040673-15.738804-15.9881054-23.4514287,5.3033103-6.642706,10.6397324-12.7314659,16.3060719-13.1344604-10.1973294-7.671203-18.803777,12.0532545-28.5942352,11.4116031-6.6928661-4.4878118-9.5007845-9.1998022-10.5648777-14.0201874,12.3677513-10.9108798,25.2581147-12.8148662,37.4670542-26.5476929ZM572.0505623,529.3495306c18.2262286,11.5661529,26.0620477,18.298556,14.2615,35.743897-11.6293778-11.5172135-34.3145686-22.392947-14.2615-35.743897ZM576.5937816,565.6584681c-7.0909346,6.0149332-24.3962899-.1169832-12.8564807-11.4459998,4.283616,3.8137341,8.5674247,7.627511,12.8564807,11.4459998ZM582.0818835,492.1957096c10.1359464,6.7929937,11.1028891,4.5487879,15.4252281,13.7330409-7.1228041,3.3542398-14.1717815,7.8703872-21.4470793,8.5558591-3.5868141-7.1029499-3.456916-14.4226465,6.0218511-22.2889ZM579.1970972,526.4947932c6.668707-11.1550839,14.2139957-7.1202554,20.8828955-18.2754678,1.6421342,9.6560839-1.1220065,19.5635682-8.0264148,29.7214676-4.289056-3.8184888-8.5728647-7.6322657-12.8564807-11.4459998ZM583.8094098,479.9042265c8.9632443.5160583,16.7639384-19.0732324,25.7373561-18.5578595,8.3311665,12.5174821-.0134074,26.0076469-7.4620383,39.4405836-.2005549-7.3043615-11.1437111-13.9804362-18.2753178-20.8827241ZM599.5760139,415.6023116c7.9115305-3.67332,16.2315813-.4117543,24.8666857,8.3087637-7.7183647,9.385686-2.8812738,18.0434075-10.600431,27.429886-5.2107218-11.8401917-6.6306264-16.6491184-20.847792-23.1654388,3.4127314-4.2645114,9.9661472-8.7072177,6.5815372-12.5732108ZM603.3127944,395.8820304c4.6075579-4.6080934,10.0866215,5.7831514,14.5777745-.8510518,4.980118,10.0026001-10.3938363,10.8958018-14.5777745.8510518ZM635.0386757,396.4756849c7.9304423,10.6056783,15.0842163,7.805299,22.8566177,15.737112-5.966358,9.2398961-12.7130895,4.9595999-18.5923419,15.7110681-4.7068287-7.6868808.1149485-28.4381219-15.1426865-8.8783875-.5110894-4.0265613-3.3462296-7.9295642-7.9962587-11.7221805,5.9695064-9.1810832,12.6068794-6.7881319,18.8746694-10.8476121ZM601.5859962,408.1746486c15.3226376-4.3320198-3.8360085,11.8489087,0,0h0ZM599.8284638,461.9114075c-6.6938085-4.4886471-9.5019196-9.2006589-10.5648777-14.0201874,7.7326931-3.5887417,18.5430385,5.089091,10.5648777,14.0201874ZM585.8130311,472.4708451c-.5106396-15.6439238,20.5599816-10.3399709,0,0h0ZM628.1090375,487.0895916c4.5300903-5.9618389,10.1555649,6.9503063,15.142815,8.8672504-8.0183189,10.2185542-.0095951,19.5048624-8.0272501,29.7224314-8.1102863-8.4688392-22.6171898-16.5643902-23.4204588-25.4563351,3.9541482-6.7276912,20.3497887-6.8707397,16.3048939-13.1333467ZM629.8357928,474.7971233c-8.7702498-9.3364897-7.2654885-31.9635959,7.7401893-34.5806401,8.1747749-3.6734056,6.938291,16.0510519,17.7161886,11.1598386,1.3558658,12.5140125-18.2143204,19.8158253-25.4563779,23.4208015ZM642.1585242,435.0694574c6.7403491-9.8357137,13.8387799-13.5015161,20.8783978-18.2790445,29.2623374,13.8067819,18.4250058,25.4424136-2.88031,34.3028103-5.9996196-5.3416479-11.9984682-10.6823106-17.9980878-16.0237658ZM634.2264327,340.4531914c1.0506001,7.3202106-18.3025183,18.2931159-25.7374632,18.5558891-2.6197857-4.7229991-3.094101-9.5714842-5.7100958-14.3009299,10.1616047-6.9488713,21.0088099-2.0826953,31.447559-4.2549591ZM635.9540233,328.1597808c14.0634939-.0513167-13.9802649,1.5712632,0,0h0ZM582.117244,450.7459789c-3.7828927,4.9026075-7.9777967,2.6217133-11.7284987,7.9928319-4.901044-3.7740258-2.6199999-7.9687371-7.9963444-11.7243222,6.36312-2.4171105,12.733372-4.67633,19.7248431,3.7314903ZM563.5205757,466.4533203c4.9012796,3.7821859,2.6204282,7.9769186,7.9915254,11.7276205-10.3510438,7.0990305-5.9439337,6.0357298-16.3006532,13.1391937-9.5238085-7.6166951-1.8385769-23.5584313,8.3091278-24.8668142ZM559.4720828,522.7632815c6.3101541,6.0864682-2.44883,14.9888863-8.8682142,15.1419797-4.9063984-3.7766173-2.6255256-7.97135-7.9964729-11.7220305,5.0872491-10.275975,11.6117725,4.0181656,16.8646871-3.4199492ZM566.2804115,597.94637c6.6890752,4.4940658,9.4971435,9.206249,10.5596303,14.0152827-8.5657755,6.4096605-18.2986202-7.2809306-26.8704569-.8754037-4.1185073-7.5689552,12.1795116-9.373071,16.3108266-13.1398791ZM577.9688591,631.399692c8.1744964-13.2365155,18.2998196,7.2171702,26.5888791-3.9782431,11.528929,12.0831107-11.808772,12.0731515-15.7369835,22.8568105-6.787832-6.1085498-16.4136527-12.0533616-10.8518956-18.8785674ZM615.187083,558.5366278c3.4321572,3.0556349,6.8577821,6.1055299,10.2834069,9.1554034-3.3070353,6.695372-.1576553,13.0149285-8.590213,20.0017305-11.8402346-9.0590454-12.4042256-18.7784613-1.6931938-29.1571339ZM622.5902013,601.9946702c7.136747-3.022716,14.8102417,3.2384988,22.5706278,10.8774469-8.8848343.9229509-17.1193858,13.1419352-26.5842529,3.9837688,5.9323896-5.2203812,7.9789533-10.215106,4.013625-14.8612157ZM643.2164919,537.4065726c24.4837595,15.6475219,29.0961364,24.1802072,14.8307598,45.4682175-8.7237735-10.2323044-16.6370174-6.5892904-25.4259006-18.033791,11.3872941-9.5982348.9635373-17.9317787,10.5951408-27.4344265ZM701.4140978,321.9217185c2.2987994-2.4352084,4.9268737.8051966,7.4324391,2.0028074-2.2934021,2.4399417-4.9224617-.7993282-7.4324391-2.0028074ZM734.3079693,300.5085862c-6.745061,9.8407897-13.844327,13.5075559-20.8848231,18.2752322-11.1404342-9.9184287-22.2807828-19.836686-33.416912-29.7512381,17.5455756-5.7115094,35.4404089-5.4007821,54.3017351,11.476006ZM735.1837371,273.6380008c-7.7538323,6.3929762-16.4736008-3.7705133-24.2973831,1.4153641-2.2928024-15.3179257,17.3171992-6.8979187,24.2973831-1.4153641ZM655.7035824,290.4430397c-6.8053731,8.7825007-14.2307229,6.8324664-20.8826813,18.2749752-5.1417784-4.5777874-10.2834069-9.1554034-15.4252067-13.7330409-4.6235783,5.9633381,1.5681362,11.2875521,8.2788432,16.5877997-8.6875349,4.3981147-17.9051137-.4134249-26.5888577,3.9782431-5.2781018,7.1815099,7.568484.4089486,10.2835997,9.1552535-13.4086063,7.4148552-15.1485549-2.9942091-20.2835868-13.4460016,20.896924-18.0473269,41.887379-34.3793784,64.6178896-20.817229ZM571.647782,312.38945c.7729416-10.6107757,1.490947-21.2223653,10.3180178-32.2954838,7.6016599,4.9205769,14.5825078-.7720207,22.2926481,6.0173534-10.8790532,8.6931463-22.077465,11.7078092-32.610666,26.2781304ZM580.2082459,333.830875c3.4485631,15.3249507-10.4435253,28.8538386-25.1790193,28.2815375-1.2544961-8.8705487,9.0363641-18.4063082,5.7401876-27.153534,6.3561592-2.4523211,13.2431978,4.1767633,19.4388318-1.1280034ZM559.9183838,320.381104c-9.8960901-2.744672-11.2472226-7.0504767-15.424093-13.7320129,8.0996846-.4315443,15.4842123-13.2747888,23.1744771-20.8493126,2.9320551,11.2093991-2.6244119,22.9053001-7.7503841,34.5813255ZM549.8875981,357.5347965c-6.8540982,5.4769432-1.7339302-9.2056064,1.7226645-12.2880134.7252659,4.0210784-.2674422,8.1362231-1.7226645,12.2880134ZM547.2796778,396.6927742c5.2615245,6.5699717,9.7735811.2810853,15.1473984,8.8731402-7.0280524,4.9669675-13.9747605,11.2621293-21.7295995,3.7012272.042-4.0700177,2.402011-8.2692695,6.5822011-12.5743674ZM543.8300437,421.2733844c14.1567249,1.4638965-13.886734,3.0967568,0,0h0ZM545.2452365,445.5707889c2.5730738,2.2905964,5.1406861,4.5766094,7.7148522,6.8683838-5.5911207,1.7720108-11.1046239,4.720943-17.1517479-1.4408939,3.1998185-.854907,6.394197-1.7899588,9.4368956-5.4274899ZM549.2233725,472.1591112c-3.0826426,2.6191218-3.4996657,5.0782965-2.0037498,7.4316038-4.5291693,5.9628241-10.1598913-6.954033-15.1482551-8.8720051,5.5919774-1.7731459,11.105502-4.7222495,17.1520049,1.4404013ZM531.8555848,382.9607613c10.1857638,10.9905107-15.9858994,12.5094291,0,0h0ZM541.1969363,501.8805788c-4.4875977,6.6927162-9.2006375,9.5019196-14.0147259,10.5694396-11.9439817-9.0589812-7.1838658-19.0924655-1.6912448-29.157241,6.8019034,6.1037308,15.5479084,12.0985743,15.7059707,18.5878014ZM515.8663656,359.5083046c-3.9525633-5.4584598-10.2389653-10.7843443-3.4139094-16.8692276,4.0643849.0373952,8.2643435,2.4074083,12.5683062,6.5867631-3.0498521,3.4254321-6.0997685,6.851421-9.1543968,10.2824645ZM500.4769906,304.3272035c-5.4338509-6.0181673,8.5732074-12.610349,11.4459784-12.8563094,3.2010822,10.2948011-3.4320715,11.5421223-11.4459784,12.8563094ZM503.4483042,523.574475c1.7161536,1.5279138,3.4310221,3.0547996,5.1417784,4.5777874-.4842103,3.280713-1.0322665,6.5623684-4.2952886,10.0052773-3.4310649-3.0546283-6.8566898-6.1045018-10.2824859-9.1544182,3.1988976-.8558922,6.3944112-1.7901087,9.4359961-5.4286464ZM497.960438,597.035306c3.1246426-2.2242874,6.6612751,2.8081968,9.7184092-.5630701,4.9415019,8.4780702-12.320761,9.4798166-9.7184092.5630701ZM504.5417824,584.4620737c3.9135404-2.5645924,8.1292195-.0115227,12.0054289-3.1316247,2.5736307,3.9119983.0205824,8.1275061,3.1380714,12.0090485-6.3988446.8568346-15.0135809-2.8933748-15.1435003-8.8774237ZM545.6097006,703.9859117c.8651018,6.4521103-3.0000989,13.1748969-8.5913268,20.0008738-2.6145384-3.0767313-5.0744199-3.5037993-7.4275344-2.0079905-4.2197914-9.204664,11.9401051-13.3921576,16.0188612-17.9928833ZM542.1948703,687.1156561c-2.9314125-17.706722,10.6316579-36.3748182,26.0545729-55.151973-1.8288318,21.5589437-4.1752212,37.6316916-26.0545729,55.151973ZM589.9487582,669.7170698c4.5291479-5.9626527,10.1508316,6.9557678,15.1380817,8.8726904-9.080613,13.1804655-19.7119496,16.9169033-28.0290234,21.1297553-27.1955341,13.7705218,17.1331573-9.7344939,12.8909417-30.0024458ZM601.6717953,661.7196759c8.6091677-5.6774125,17.4801875-6.8373282,27.1537054,5.740209-8.7516807,3.236507-17.7080071,2.9972718-27.1537054-5.740209ZM646.0062909,627.4562955c1.6493948,2.3403282.2678063,4.8606075,2.8555726,7.1453997-6.7727968,4.8272816-13.5673754-9.2564091-2.8555726-7.1453997ZM636.0363742,581.7111049c-1.5229878,1.7107349-3.0506874,3.4265672-4.5776161,5.1417998-1.0581819,8.4442517,11.1043026,5.3581181,13.1370519,16.3007389-15.7945327-.0362601-23.2734909-21.2925937-9.1244549-31.1608409,11.4914053,13.7275794,24.7787877,12.8529896,23.4216796,25.4550715-9.9336138-.6578217-18.4435321-6.6979207-22.8566606-15.7367693ZM684.5702501,661.7899044c-14.2310441-2.0663108-28.1635691-11.7128424-30.8536047-27.4689518,18.2052393-3.9892518,42.3053444,5.2023261,30.8536047,27.4689518ZM666.8856739,609.17633c3.4697238-3.4551812,6.9052436-6.9043012,4.2996364-10.0017219,7.0435802-1.811762,27.680344,16.1120922,20.8430587,23.1708575-7.4544778,11.5327628-16.8033041-9.5410497-25.142695-13.1691356ZM665.4806546,584.8784114c10.0618199-7.9001577,3.2117696-14.8146109,10.8811307-22.5747614,8.5506975,7.4241718,16.6594203,7.058187,25.4217242,18.0277726-4.9934826,10.0410233.0597124,19.5000006-8.0275499,29.720461-9.4254372-8.3913716-18.8499106-16.7819293-28.275305-25.1734722ZM709.4981475,587.1998064c3.9009254-2.7810606,8.3385771,3.5989579,12.5731894,6.5817085-13.4965472-13.8440272-3.2927497-29.0643098-7.3979995-43.4535447-8.5587505-1.6862759-14.6229872,16.9103495-10.8809379,22.5747829-7.758073,6.4083969-17.3919896-19.5796742-25.1435517-13.1680004-5.4951697-10.2457975,9.6240645-21.6890559,5.4531696-32.0119141,20.0998019,10.2617751,40.2896222,22.0017108,60.8568215,40.3509838-7.7615855,9.4985785,3.0153911,30.5685786-15.1770618,32.572157-2.3059957,4.2013722,4.5382718,7.8653112,7.9971369,11.7320326-10.06711,7.8956172-3.2174024,14.8100061-10.882223,22.5762178-9.7056657-13.2361728-18.0269373-2.5844894-27.153684-5.7403803,1.5104156-13.9022404,6.8606734-28.0322789,9.7551405-42.014043ZM759.4728102,650.1266439c-.4341786,6.5228742,1.8251266,12.8952681-3.7367805,19.7204525-12.3039267.192866-24.0610608-3.4940542-25.4195396-18.028201,9.1479501-10.3075446,19.6312051,2.2040263,29.15632-1.6922515ZM739.1884952,636.6708116c-3.3638992-8.7423212,1.0628724-17.9377114,5.7367608-27.1475585,6.8240921,5.5610718,13.1910458,3.2970118,19.7248002,3.7316617,8.6852432,5.9982917-3.9599096,13.2305828,1.1270825,19.4378037-8.2844761,11.3585087-17.9881714-1.8278466-26.5886435,3.9780932ZM776.6245795,651.5675378c5.9580908,4.5344166-6.9551681,10.1588632-8.8782162,15.1423652-6.3040715-6.0827201,2.4588321-14.9892504,8.8782162-15.1423652ZM774.9323708,622.4092902c5.7383885-13.0799739,13.0259586.4498778,19.15085-5.9875615,2.6450799,3.0962856-2.001094,6.6195964-4.2896129,10.0011865,9.0240276,1.4701504,17.3202405-9.5758748,26.3004904-8.8373085,2.170936,7.9987003,1.1880371,16.1814426-3.4486274,24.5795179-16.5262882,3.9648356-24.6163348-11.6119438-37.7131001-19.7558344ZM814.3378081,671.3210805c8.4776633-4.9412021,9.4797095,12.3228599.5639696,9.7194159-2.2243088-3.1244927,2.8073829-6.6603327-.5639696-9.7194159ZM842.7130264,572.1529211c6.8125266,9.8423318.7200186,20.4236154-8.3080783,24.8656791-3.6683297-7.9172704-.4116473-16.2297822,8.3080783-24.8656791ZM856.7331924,561.5882148c17.8843386-3.1113636,22.2140454-35.0002333,37.1837843-31.41464,11.9934564,20.2406872-20.1597499,45.0041184-37.1837843,31.41464ZM888.2466106,474.4289324c.8122858-10.6140526,21.2714974-22.3653396,10.3132417-32.2900437,9.3281154-7.3067817,19.5612122.9970988,29.1610319-1.6973275,6.5819013,10.9965933-9.1827752,23.2898968-7.7493346,34.5802118-10.4879669,1.3238893-20.773537,6.1364784-31.724939-.5928406ZM925.6772976,489.3189763c12.6736382,8.2070084-3.696858,18.096459-10.5949695,27.4342766-.1220806-8.9303253,6.480296-18.2529578,10.5949695-27.4342766ZM959.9808361,492.209117c1.1303808,5.6191779,3.9844542,11.1423404,3.4148732,16.8702342-12.4313189,9.8975251-25.3788889,10.8025493-38.5939653,7.1099106,11.6193329-9.7663205,23.3519223-17.6150759,35.1790921-23.9801449ZM929.6909655,474.4577606c-.4593658-9.1942979,5.666468-3.2891087,11.4412237-12.851212,4.9065269,3.7787377,2.6256327,7.9734918,7.9967513,11.724001-6.1391128,6.2636136-12.6146112,6.6393434-19.4379751,1.127211ZM941.5143657,342.1182639c3.0496594-3.4254749,6.1042877-6.8565184,9.1551893-10.2834283,11.7024334,6.791473-1.0567469,21.1229017-9.1551893,10.2834283ZM940.7677464,203.1914259c8.5298795,6.891215,24.2774219.6844653,32.925227,9.6106785-.6047916,10.6010092-24.5480982,25.6662067-32.6773819,36.703879-6.6919023-10.1764686-14.9761642-20.2616765-18.8390518-30.6024613,6.4879206-.1589404,12.483835-8.9039174,18.5912068-15.7120962ZM909.3200375,207.4573508c1.5275497-1.7158537,3.0497022-3.4254749,4.5776375-5.1416285,1.7675131,2.4169177,3.3206783,1.1554823,4.863606-.2821347,5.8938807,3.42661-6.6697993,15.0536747-9.4412434,5.4237632ZM918.577389,129.6716536c-.1366875,16.2676486-2.511648,41.7050291-25.2454569,54.3342685-17.1977744-12.8163654-19.2818404-26.5139816-33.9864716-39.4754087,10.7317426-13.0139219,41.5224008-15.1467772,59.2319285-14.8588598ZM865.519484,292.8947825c-2.2999987,2.434523-4.9280302-.8058606-7.4326104-2.0045851,2.2934021-2.4401344,4.9268737.8051966,7.4326104,2.0045851ZM871.2251463,307.1900367c-5.9410852,9.6752955-12.4023622,10.401718-18.5970324,15.7074699,5.9576196,4.6295753,11.2930136-1.5635742,16.587971-8.2788218,5.3237856,6.1933851-9.3237034,13.5459363,1.1323084,19.442537-17.3032349,4.3869775-26.1181834-19.1090213-13.9834989-30.8839963,5.1374949,4.5179679,9.5130354-4.1043716,14.8602519,4.0128112ZM844.9879665,233.1343948c1.943352,6.3905774-6.9344358,13.4032305-8.5951177,20.0071491-8.880872-6.6219523.6780828-19.5823514,8.5951177-20.0071491ZM844.952456,274.5839327c10.1895333,5.9113575,5.5582232,12.6835974,1.1289672,19.4380607-5.108067-3.9103277-10.1018495-5.9558848-14.8611943-4.0137964-4.6749593-4.6790715,10.6833815-5.9217022,13.732227-15.4242643ZM826.5214533,83.0435417c-9.1540756,1.2554599-2.5748301,6.746346-11.7230372,7.9973939-5.2723404-3.2210006,8.2314888-18.4836473,11.7230372-7.9973939ZM814.1332267,205.6644364c5.9846487,6.9697964-9.3367253,15.1741704-6.020973,22.2989235-10.3401423,3.8192813-21.7519809-10.7764626-32.2954624-10.3180178,1.9535897-24.1209017,27.1380491-7.2588704,38.3164354-11.9809057ZM798.6736232,233.3819614c2.0902771,11.7236797-16.9952919,12.3598268-24.0146701,6.2698461,7.5109133-10.6491561,16.141413-1.9343566,24.0146701-6.2698461ZM782.9378177,256.2396072c-3.1005906,2.6393829-6.6185683-2.0020578-10.0065837-4.2963595,3.1005049-2.6391901,6.6185683,2.0022506,10.0065837,4.2963595ZM778.6370248,266.2404725c12.8564593,11.4461712,25.7129614,22.892171,38.5641519,34.3336089-4.4787308,6.7582542-7.2220321,13.4199577-3.7265857,19.7195957-17.2439508-3.0414564-35.4604772-22.8122618-53.4242325-38.3463987-2.1608697-4.7466227,8.4224057-10.2411713,4.013625-14.8611943,11.3939764,2.0715152,3.7748611,7.4394212,14.5730412-.8456117ZM764.1885487,101.2942721c-3.9317668,2.1622404-7.9885698,2.3490023-12.2872209-1.7220434,3.6828937-6.5586631,8.0303771-1.628127,12.2872209,1.7220434ZM760.1149114,199.0530858c11.5006791,6.7983052-9.2671179,21.5945398-14.0192664,10.5660342,4.3493681-9.1624713,9.5577126-3.436762,14.0192664-10.5660342ZM739.8616092,144.1524704c-2.6199785-3.0813361-5.0798814-3.5083398-7.4288837-2.0087187-5.4336153-6.0184886,8.5743426-12.6094923,11.4412665-12.8512334,1.943095,4.758381-.1034901,9.7531058-4.0123828,14.8599521ZM736.7590482,90.6938625c-2.2945158,2.4391064-4.9280302-.8060319-7.4325676-2.0047564,2.298628-2.4352298,4.9268737.8051966,7.4325676,2.0047564ZM746.9466539,224.196916c4.5792224,9.4111945-30.0296034,32.1186382-42.6122166,21.976031,11.7969281-9.6269345,8.5172003-18.3710333,20.3143853-27.9982891,7.5725105,4.4161698,14.6789301.8041043,22.2978312,6.0222581ZM723.3080778,110.982868c-1.9223627,4.9825168-14.8342937,10.6080128-8.8724763,15.1381031-7.1415017,3.0281346-14.814975-3.2332515-22.5760893-10.8822016,9.7523134-14.0189023,20.1053491-17.5807862,31.4485656-4.2559015ZM690.1675177,86.0805433c-4.5777874,5.1417784-9.1554034,10.2834069-13.7331908,15.4251853-3.9269478-5.4567036,1.8896151-11.4830952-8.2734246-16.583045,6.9177301-6.7995475,14.2236765-6.9714027,22.0066154,1.1578597ZM681.5122807,188.9875821c-8.4694603,8.080987-18.223787-5.8917817-26.8664947-.8818075-1.4634253-14.3644975,18.9877332-6.4149507,26.8664947.8818075ZM651.8857789,56.6127035c10.8916896,7.6806696-13.0882411,23.0199273-18.8736199,10.846327,6.0307823-8.1221517,12.8424736-2.7240468,18.8736199-10.846327ZM639.5640541,96.3394484c1.7096212,1.5221525,3.4256034,3.0500449,5.1416071,4.577766-3.0496808,3.4254749-6.0997685,6.8512497-9.1554034,10.2834069-1.7160036-1.5277211-3.4319859-3.0556135-5.1416285-4.5775946,3.0556349-3.4321786,6.1055513-6.8579748,9.1554249-10.2835782ZM648.341436,205.5396786c3.6183194,11.7437909-13.8434917,9.5683786-18.3098431,20.5660642-7.7233979-8.2068585,10.8850287-25.2538526,18.3098431-20.5660642ZM648.5884458,251.8442126c-17.6292116,18.3778441-35.9634494,24.5008508-55.1812295,15.3987345,7.3735619-13.0315486,15.930492-5.4979325,24.5832445,3.4442796,9.6946785-7.0650193-5.7049556-12.6738095-1.1270611-19.4378251,10.0739208-8.4616,21.1317686.0332616,31.7250461.594811ZM619.3144358,41.4346779c4.7497926,6.1029169-9.9791692,18.127943-14.3009299,5.7100958,4.7284392-2.6150524,9.5715056-3.094101,14.3009299-5.7100958ZM611.5649298,76.0148682c1.9034295,6.224355-.1849843,12.1289017-6.5822226,12.5743674-2.7813819-3.9011181,3.5986366-8.3387912,6.5822226-12.5743674ZM605.7991695,144.6177474c-2.2997632,2.4343731-4.9279874-.8062247-7.4323534-2.0049063,2.2932094-2.4399845,4.9167003.8056892,7.4323534,2.0049063ZM579.275036,65.7016265c12.018665-7.5077435-6.0669781,12.8064276,0,0h0ZM586.1088945,99.4357126c3.8773445-3.1863468,8.4692676,5.9366303,12.2871567,1.7237997,3.4903061,9.538501-13.7191837,11.6393798-18.5915066,15.7101043-8.1836418-5.213656,14.4889341-12.2192413,6.3043499-17.433904ZM572.0594078,151.4558467c4.1644267,8.3392196-12.1688884,9.5400859-16.8700843,3.4150445,5.0953021-10.261154,11.4148157.6072975,16.8700843-3.4150445ZM557.2286694,105.9874578c12.0248333-7.5018323-6.0618379,12.8134526,0,0h0ZM554.0968519,93.9821788c-5.9628455-4.5289766,6.954033-10.1596985,8.8730974-15.1470557,11.6846782,9.7382848-5.8477899,6.0828914-8.8730974,15.1470557ZM560.9951776,44.8241711c6.5522807,3.6771537,1.6270133,8.0293276-1.722022,12.2870496-2.5739948-2.291603-5.1417998-4.5776375-7.7146809-6.8683838,3.1991118-.8562349,6.3987161-1.7863821,9.4367029-5.4186658ZM558.891386,176.5993555c-17.4622181,6.638294-18.4902654-11.0042822,0,0h0ZM547.6971506,235.7549301c12.0238909-7.5030102-6.0674921,12.817522,0,0h0ZM584.5682586,240.9314266c1.1802625,8.8696706-3.745476,18.0990934-10.5998527,27.4395239-10.0414517-5.0013215-19.504177.0561571-29.7267578-8.0309767,16.6073112-.3481653,30.9269601,4.6080291,40.3266105-19.4085472ZM538.7239686,375.2459091c11.3359131-5.1813796-2.5302385,15.7210273,0,0h0ZM538.4769588,328.9413752c10.0357118,4.2939393-.5436657,9.7840329-4.013625,14.8612157-4.289056-3.8184888-8.572672-7.6322229-12.8564807-11.4459998,5.4552686-4.022342,11.7756175,6.8451671,16.8701057-3.4152159ZM530.8623412,197.7292608c12.0184508-7.5075722-6.0682203,12.8077127,0,0h0ZM515.0855423,262.0320539c-2.2254011-3.1256706,2.808411-6.6616178-.5641624-9.7196086,3.9010967-2.7812105,8.3387484,3.5989793,12.574346,6.5823939-3.6584561,6.9626215-8.1658651-.7064398-12.0101836,3.1372147ZM506.5644012,199.1344729c-6.0566976-6.0759307,6.9955618-9.3740562,9.1544182-10.2824645,6.0527782,6.0819919-7.000445,9.3793036-9.1544182,10.2824645ZM502.2981764,167.6863999c3.6873057-6.5527947,8.03571-1.6212734,12.2934321,1.7275906-3.9418331,2.1631185-7.9940741,2.3532859-12.2934321-1.7275906ZM508.351747,103.9542159c15.3245866-4.3321483-3.8407632,11.8543274,0,0h0ZM505.2504283,50.4940017c12.0008669,16.818018-20.1191849,3.8506795,0,0h0ZM499.5655196,372.6474768c5.8923172,3.4177431-6.6700135,15.053996-9.4365101,5.4186872,1.5230092-1.7107563,3.049895-3.4257962,4.5776161-5.1417998,1.761816,2.4231074,3.3151312,1.1616934,4.8588941-.2768874ZM491.8863921,324.3292338c6.5577208,3.681887,1.6261566,8.0304627-1.7277191,12.291633-2.5730524-2.2907677-5.1406647-4.5767808-7.7148308-6.8685766,3.1991974-.8540931,6.3989945-1.7844116,9.4425499-5.4230564ZM486.8091236,236.8575751c2.2247157,3.1154972-2.8073829,6.6603113.563991,9.7194159-7.4411775,6.1256625-8.202832-7.0687673-.563991-9.7194159ZM473.9229795,266.8568725c7.4625737,5.2555918,5.2656581,11.0728829-1.4397374,17.1508483-3.4310221-3.0547996-6.8577821-6.1055299-10.2835782-9.1554249,3.689169-6.3438655,7.8157508-5.2392716,11.7233156-7.9954234ZM462.9239446,77.3300191c4.7283749,5.6631911-10.2951652,12.6809202-14.2972033,5.7057908,4.3723921-8.6813237,9.7108488-.6277299,14.2972033-5.7057908ZM450.0674853,65.8838479c-6.1371852,6.2937696-12.2580715,12.8000452-19.1555833,5.9928302,6.0488159-7.8165004,12.175121-14.3180212,19.1555833-5.9928302ZM439.9364436,227.3814637c-6.0499297,7.8154723-12.1752066,14.3158795-19.1565043,5.9916308,3.4274453-10.2729122,9.1239195-12.8900636,19.1565043-5.9916308ZM420.4326521,311.4128266c12.020614-7.5078506-6.0660357,12.8072629,0,0h0ZM432.1258331,344.8607085c3.4310649,3.0546283,6.8568611,6.1045233,10.2836211,9.1552535-3.2825335,8.3092991-23.2411502,3.0198888-11.4459784,12.8563094-6.2193005,1.9083127-12.1242112-.1900602-12.5743674-6.5822011,13.4305594-.5417381,7.7343423-4.5913662,13.7367248-15.4293617ZM403.6202241,609.8272339c-5.3315602-10.3345522,1.7388349-22.848736,10.5951622-27.4344265,9.0891158,8.4110758-1.4275293,17.9588506-10.5951622,27.4344265ZM411.0180737,653.2807358c-8.7350606,8.2841976-6.7656219-6.4076044-12.2924683-1.7267553-5.3974195-5.4811625,9.1017951-3.5046346,11.441288-12.8512334,6.6350385,4.4900179-3.7560564,9.9692956.8511803,14.5779887ZM405.1900951,426.878191c11.4052206,3.102818-7.0446511,23.8260663-11.4459784,12.8563094,9.1909782-.6022858,2.6176225-6.0051668,11.4459784-12.8563094ZM399.8613406,293.0982502c14.1578172,1.4649245-13.8919813,3.0918736,0,0h0ZM389.4189291,491.1855675c-13.2201096-10.7121883-5.2229085-11.2807198,3.7307193-19.7158905,3.4911414,6.29574.7480329,12.9574649-3.7307193,19.7158905ZM385.4050256,506.04462c-8.4813685,7.0007449-3.4493342,13.2071733-13.449407,20.2897336-18.2795371-9.504811-3.7782022-20.9163499.5983878-31.7311501,4.2835945,3.8139054,8.5674032,7.6276824,12.8510192,11.4414165ZM379.0362942,606.3727594c3.4944183,6.3007518.7513312,12.9623267-3.7311262,19.7248859-13.0075608-5.7485191-2.2458978-12.8754139,3.7311262-19.7248859ZM379.6291134,574.6480132c-3.2605804-6.5418931-1.236955-17.2199202,6.3045855-17.434418,10.9930379,5.0520599-3.117382,11.5597276-6.3045855,17.434418ZM387.3796902,540.0665378c7.0339422-4.7731164,14.1321803-8.4389402,20.8783764-18.2788732,6.9684471,8.5391534-8.9078796,18.3979982-5.7366108,27.14743-4.5291265,5.9626313-10.1544298-6.9494924-15.1417655-8.8685568ZM409.4652297,80.4322374c6.050765,6.0824417-6.9957331,9.3740348-9.1552749,10.2835997-6.0531209-6.0820347,6.9942339-9.374763,9.1552749-10.2835997ZM397.041257,244.5031412c-2.2933807,2.4401344-4.9167003-.8056892-7.4276415-2.0099823,2.2997632-2.4343945,4.9231042.8112792,7.4276415,2.0099823ZM383.8732566,269.6466501c-3.4497411-3.4649691-6.9032946-6.9063359-9.9954466-4.2960168-2.781232-3.9009254,3.5940747-8.3333297,6.5804021-12.5740675,3.9535057,5.4592951,10.2387725,10.7843229,3.4150445,16.8700843ZM373.0613692,209.3221215c10.2562921,12.2074616-15.9242166,13.7279221,0,0h0ZM369.4467121,441.1496717c5.1595551,11.4661753-2.6461508,18.3273199-13.4512489,20.2788749-4.7647849-6.2217849,10.2389438-13.5949399,13.4512489-20.2788749ZM362.2013134,568.3472614c-7.4422055,6.1267762-8.2028748-7.068596-.5650191-9.7183022,2.2257223,3.1143835-2.8073829,6.6603113.5650191,9.7183022ZM356.9119674,393.1133064c-1.771968-2.4225934-3.3198431-1.1564247-4.8636274.2821347-2.6452513-3.0959643,2.0009227-6.619425,4.2996149-10.0015292,5.2108932,2.9513952,3.0611607,6.325789.5640124,9.7193945ZM333.3914667,492.0007233c.4713597-7.1553589,5.7600846-19.8770369,13.4495783-20.2896908,11.728413,10.8086748-9.8096056,12.1571301-13.4495783,20.2896908ZM319.5580627,631.7678829c-4.4434345-9.4881695-15.5826265-18.5988957-1.6918874-29.1562772.445273,6.3973882,6.3559236,8.4893787,12.5702766,6.586656,12.6010538,6.8866316-3.4798543,21.853929-10.8783892,22.5696212ZM340.7534203,576.9040844c14.1769003-1.442436,18.6210202,18.2835208,8.844055,26.3061232-16.2731315-7.9991287-8.0497386-17.4147566-8.844055-26.3061232ZM348.2649119,118.1147103c.8550569,3.2000327,1.7853968,6.3996585,5.4230993,9.4423786-3.7820574,4.9016651-7.9767687,2.620621-11.7272564,7.9915683-10.5050367-6.1264335-1.1976751-17.2212267,6.3041572-17.4339468ZM336.2249149,162.6970509c1.9032582,6.2243336-.1951362,12.1294157-6.5871058,12.5796147-2.781746-3.9110773,3.598808-8.3387698,6.5871058-12.5796147ZM325.7766564,360.7885875c2.6135103,3.0778664,5.0790461,3.5006295,7.4323748,2.004735,7.1557873,9.0341367-4.9599425,12.9952457-11.1644006,17.7101274-9.0815982-5.9651372-3.327532-12.8079269,3.7320258-19.7148624ZM321.980806,463.4074733c12.0186222-7.5075508-6.0680276,12.8077341,0,0h0ZM314.5774949,419.9495808c-2.2943445,2.4391278-4.9186707-.8055821-7.4286481-2.00904,2.2987994-2.4352298,4.9231256.8095016,7.4286481,2.00904ZM295.5214394,301.588507c-11.7286914-8.7637603,7.6688685-13.1432845,11.1634582-17.7111341,2.8512034,4.1802758-2.8870137,20.9161143-11.1634582,17.7111341ZM272.5682067,410.2003301c3.0961143-2.6450585,6.6195749,2.0011154,10.0010152,4.2896343-4.5776161,5.1416285-9.1554034,10.2834069-13.7330409,15.4252281-9.20415-5.9633381,8.5675746-13.4970398,3.7320258-19.7148624ZM269.5310338,273.8463945c4.5778088-5.1417784,9.1554249-10.2835782,13.7322056-15.4242429,13.2569265,7.0578872-5.900306,21.6457922-13.7322056,15.4242429ZM303.1362284,432.8006428c5.0719783,9.9727224-2.5238346,20.4541569-13.4507134,20.2888341-8.4636776-13.3474804,4.8984096-15.2639532,13.4507134-20.2888341ZM299.6342925,162.3845031c11.8573044,8.2504006,6.541529,17.4973217-.8757249,26.8702428-13.9085586-8.1355163-8.5929545-17.3824588.8757249-26.8702428ZM292.4543675,206.6888641c-4.5777874,5.1416071-9.1554034,10.2834069-13.7330409,15.4252067-4.2890346-3.8186602-8.5728219-7.6324157-12.8564593-11.4461712,8.4757357-8.0557784,17.1266678-13.0123155,26.5895002-3.9790355ZM256.9872294,225.8115713c3.4310649,3.0546283,6.8566898,6.1045018,10.2877333,9.1591301-5.2984914,6.7408417-11.1256346,4.3564788-16.583045,8.2734246-5.105861-10.4717323,3.4029435-6.4967233,6.2953117-17.4325547ZM216.8579398,374.4217365c5.1305984-9.6193312,11.4523609,1.3437649,16.582124-8.2744312,1.1103553,15.3714912,6.8476301,19.5326197,23.4214655,25.4552214-12.6620298,12.4017197-32.9536911-.8151558-40.0035894-17.1807902ZM243.0949268,448.4773356c2.9356532,14.520675-18.7549447-5.5584588,0,0h0ZM256.6102145,345.294266c-13.74315,17.0369921-21.4786917,1.7778578-32.2900437-10.3132631,9.3822164-11.7697062,28.9952379-5.4280896,32.2900437,10.3132631ZM244.0707579,297.2629981c12.0238695-7.5026675-6.0617736,12.8115036,0,0h0ZM251.2559087,252.9635204c7.0964818-7.0432589,17.7371137,4.6788359,7.9928319,11.7284987-.5127172-4.0377413-3.34261-7.9360109-7.9928319-11.7284987ZM265.6698596,459.3585091c1.8760149,5.5818897-3.652909,11.5913829-6.3043499,17.4340967-10.9873837-5.0561506,3.118303-11.558571,6.3043499-17.4340967ZM237.5238958,268.3876349c9.0395125-4.9294224,10.2832141,10.4302891,15.4251853,13.7332123-4.6214794,4.4748327-9.3459777,7.0854089-14.2972033,5.7057908-10.4559689-5.896772,4.19167-13.2493018-1.127982-19.4390031ZM225.1967524,308.109625c6.0822703-6.0508078,9.3792822,7.000445,10.2835782,9.1554249-3.7787591,4.9064841-7.9734704,2.62544-11.7241723,7.9965372-4.6640363-5.4181732,6.1051015-11.7317756,1.4405941-17.151962ZM225.7252115,359.2789215c-6.0200306,5.3189024-12.1290087-.2042816-12.5683276-6.5867631,3.9009254-2.781232,8.33273,3.6031772,12.5683276,6.5867631ZM211.1168098,401.5742425c7.0742503-4.0918851,15.3146488,11.8338735,22.8573031,15.7357841-3.412453,4.2666532-9.9658474,8.7092095-6.5859921,12.5806428-17.1287881.8304694-8.7351035-20.5100142-16.271311-28.3164268ZM224.7851266,469.0432284c3.5146794-2.6643344,7.423872,1.9604861,5.1406647,4.5767808-4.4644666,2.7304507-2.0210981-2.2680008-5.1406647-4.5767808ZM228.1982007,485.9134198c8.6516817-5.0309635,17.8640775-.3275401,27.1536626,5.7403803-8.0456693,15.3866764-18.2129496-5.7879275-27.1536626-5.7403803ZM260.4627145,537.6758782c-12.6384062,2.8313064-13.8246656-17.625185,0,0h0ZM270.7759776,505.3858344c2.5739948,2.291753,5.1417784,4.5777874,7.7157946,6.8693904-.4999308,4.8990307-2.7438367,9.9064562-8.8736542,15.1372464-14.0006759-11.9405334-2.4976623-11.233601,1.1578597-22.0066368ZM282.1576174,575.4233965c-9.3017931,7.5839047-11.2649136-7.3560851-15.4252281-13.7330409,3.1992188-.8540931,6.3940899-1.778993,9.4380094-5.4177877,3.4256248,3.0498736,6.8566898,6.1045018,10.2823146,9.1543968-3.469938,3.4553097-6.9054363,6.9044511-4.2950958,9.9964318ZM282.2221488,492.5293537c11.3357418-5.1813796-2.5294675,15.7218626,0,0h0ZM291.6300021,528.5550428c9.7416474,6.7508223,13.956427,13.8233377,3.6956157,21.7248448-11.3480783-6.6524724-9.9467214-14.0499151-3.6956157-21.7248448ZM295.8603738,601.4527822c-3.3011883-7.11957-1.0830906-14.5693788,6.0177175-22.2927766,2.572881,2.2907463,5.1416071,4.5777874,7.7146809,6.8683838-4.5778088,5.1417784-9.1554249,10.2835782-13.7323984,15.4243928ZM308.4645974,566.5895362c3.808294-4.2881993,7.6274896-8.5672533,11.4459784-12.8563094,3.4267386,3.0509016,6.8523634,6.1007966,10.2834069,9.1554034-3.8184888,4.2890775-7.6322443,8.5728647-11.4459784,12.8563094-3.4310435-3.0546069-6.8566683-6.1045018-10.2834069-9.1554034ZM275.2922535,730.4478056c-83.5504937,54.1631415-202.107025,134.7736556-256.4497963,235.7459309,53.386259-146.6299534,207.4370859-214.5404428,305.5458427-293.2583647,1.7160036,1.5277211,11.4093971,10.1578566,13.1255721,11.6855991-17.6494727,22.6982128-40.8242282,31.9559069-62.2216185,45.8268347ZM350.4127811,659.2378627c-5.1417998-4.5776375-10.2877118-9.1591301-15.4295331-13.7367676,5.4321161-9.6410701,9.6477738-10.2368663,8.8774452-15.1435003,6.7310752-9.993519,15.258556,10.950117,22.28905,6.0234574,4.0961258,7.0786837-11.8350301,15.3141562-15.7369621,22.8568105ZM365.2739968,663.2514878c6.821372-9.0315452,13.2231937,17.0993389,24.0145202-6.2698675,6.8525347,6.1007966,13.7092031,12.2052984,20.5669851,18.3108283-9.2874861,8.0096448-19.0281697,8.2913083-28.5934213,11.4106179-1.4734487-8.0442557-16.9517927-15.2708925-15.988084-23.4515787ZM429.2574955,715.6132977c-9.7898585-.7564714-19.885347-6.583786-30.2851159-17.7458092,8.6312064-5.2926443,17.6987333-3.1552484,26.0249309-13.7066544,11.9487364,3.4177003,2.0274377,25.6197518,15.4295117,13.7368961,7.2319698,10.3482381-5.3306178,6.6087162-11.1693266,17.7155675ZM515.2591324,769.1329672c-24.6139146-18.0594922-48.2637136-19.4895916-73.1449848-42.0736483,10.6767206-12.0032229,21.6035138-19.8094428,33.7397617-6.8381421-3.8186602,4.289056-7.6324157,8.5728862-11.4459784,12.8563308,7.3198465,21.0036482,25.8893572,4.5786655,38.8755217-2.2558784,6.4690945,8.563034-4.4277139,18.1387375-.8755322,26.8700714,13.0480402.8154985,25.6074366-6.7929937,38.3114879-11.9753371,7.5343657,16.9927218-17.7638643,9.8756362-25.4602759,23.4166036ZM529.8421756,768.2868415c6.269996-3.9345939,12.6412547-6.1947558,19.7146697,3.7319829,8.5984803-5.3700049,2.3085872-9.8811191,8.8785589-15.1424509,13.0214394,8.9853045,11.3906138,9.1002744,25.4257935,18.0318206-17.6047954,4.7772928-35.6008485,2.7060774-54.0190221-6.6213526ZM586.7415077,740.6053838c-9.5959645,2.6902712-18.8926816,10.5203504-28.59325,11.4106393-6.6248865-4.4906818,3.7560349-9.969317-.8410498-14.5784813,5.7383885,1.5370592,31.5280251-6.650909,20.8787833-18.2791944,3.1988762-.855935,6.3996371-1.7852041,9.441222-5.4237632,9.8709886,8.3657346-5.4960049,18.1999063-.8857056,26.8707996ZM601.5771722,786.068204c-1.7160036-1.5277639-3.4310435-3.0546711-5.1417998-4.5776375,2.9702427-4.8005524,6.3671251-2.2640171,9.4314341-5.4233777,1.7160036,1.5276782,3.42676,3.0507303,5.1416285,4.5775518-2.9700714,4.8005524-6.3648334,2.2639743-9.4312628,5.4234634ZM613.8642003,787.7901832c3.9419616-2.1629258,7.9885698-2.3490023,12.2924897,1.7266054-3.941983,2.1629258-7.9931532,2.3544424-12.2924897-1.7266054ZM612.4544263,763.4976833c-12.5177177-18.6184929,9.1852811-24.3862236,23.4563334-15.9935027,1.7517069,5.9933014-17.0454092,11.6676511-23.4563334,15.9935027ZM640.2004154,737.5029941c-3.4257962-3.0498736-6.8568397-6.1045018-10.2824645-9.1544182,4.4623891-7.1301932,9.675424-1.4097527,14.0192236-10.5656701-.4341144,6.5225316,1.8249981,12.8948825-3.7367591,19.7200884ZM649.9555345,695.4893152c-3.4257748-3.0500877-6.8568397-6.1046732-10.2835997-9.1554034,3.9054445-5.1028625,5.9611535-10.097159,4.0139463-14.859438,11.4794971,1.7445534,22.6337028-2.0529033,34.5849022,7.7442801-9.3707793,6.6387437-18.8252589,11.7710555-28.3152489,16.2705614ZM665.0325759,787.2605675c-10.3912662.8572201,14.1734521-4.3138148,19.1563544-5.9916737,3.5235249,10.0382819-14.0077009,6.7698198-19.1563544,5.9916737ZM667.9180904,752.9628118c6.8170457-8.5112462,14.4823803-2.5125475,21.1654371-13.4206859,9.1996095,5.9686283-1.2058138,13.0749193,10.8466269,18.8740055-10.4003687,2.8362967-20.6608587,8.1686922-32.012064-5.4533196ZM685.3824717,717.8125478c-5.3967127-8.6201763,3.6021063-18.0848078-3.9839616-26.5841029,8.0308697-15.7281808,18.4572394,9.9263961,27.1576034,5.7359469,2.0317641,10.7992939-16.7940945,15.9990284-23.1736418,20.8481561ZM715.0735048,767.2934051c14.1511563,1.4614549-13.8932021,3.0929659,0,0h0ZM707.7048904,682.3865744c9.5719768-3.1051954,19.4006655-1.7708971,29.4444731,3.1673494-5.6291585,1.0448815-10.9589839,7.2320127-16.5880138,8.2788218-4.283616-3.8137127-8.572672-7.6323943-12.8564593-11.4461712ZM722.7829169,774.1570771c1.6899384-9.0049659,15.2324907-3.7648804,9.1544182-10.2823146,5.5812258-1.8863382,11.5962875,3.6472975,17.4340539,6.3043714-9.0035523-1.1241697-17.233242,11.0895459-26.5884721,3.9779432ZM737.9902205,700.1324051c5.9708129-9.1804193,12.6117412-6.7935505,18.8748193-10.8475692,6.8512925,8.8283559,12.2531669,2.2563067,12.8566306,11.4461926-2.0393031,2.900721-15.7183715-4.6729889-9.4334046,5.4234634-7.5005044-3.0866262-14.4920825,2.3983914-22.2980454-6.0220867ZM755.6770883,752.7457224c3.469531-3.4550099,6.9052222-6.9041513,4.2941963-10.0062839,3.0857267-2.4758805,3.8495658.8675434,2.5740162,2.2917744,3.7025122,1.8330083,19.1907297,2.8237032,14.2960681-5.7068189,7.1184991-3.3195218,15.3238156,12.0028374,22.2888786,6.0236288-4.2859291,11.5328913-29.8868761,16.1291192-43.4531592,7.3976996ZM795.4291917,723.6184447c12.9952885-14.1867524,27.9595017,5.6245323,41.4534359.0294279-2.3547851,13.3558332-37.5436865,9.8382838-41.4534359-.0294279ZM828.5990511,707.0653417c-5.3858968-5.3754878,8.6260019-11.8782295,11.1691767-17.7155675,10.3562483,10.4950775,19.7423199,4.2057414,29.4342783,3.167842-2.8802029,21.8231304-28.4177538,13.2258281-40.603455,14.5477255ZM885.7903058,684.2387515c-.8550355-3.2000113-1.7801067-6.3949252-5.4243629-9.4320767-4.0763359-.2552127-8.0588625,1.2071631-12.0045079,3.1326099-.8975709-7.259106,1.3146154-14.7045027,6.0172463-22.2945971,6.8579748,6.1055513,13.7146646,12.2100531,20.567028,18.310657-3.0507303,3.42676-6.1055299,6.8578035-9.1554034,10.2834069ZM908.6779363,658.5311017c-7.1542666-11.3005526-13.0038984-.1382509-20.0028442-8.5914124,11.8032249-9.6233149,8.521955-18.3762807,20.3196113-27.9933844,5.6749494-.2551699,11.6741193,5.1799018,17.7160387,11.1580609.5045999,8.1014837-11.3944047,16.9156182-18.0328058,25.4267359ZM902.1618301,588.2112764c2.1056121-15.7611426,22.9220272-7.7494846,33.1699451-16.5532744,7.7247472,8.4902354-9.1593015,18.4085785-15.4548916,27.7124277-9.1232341-12.6695046-6.3770629-6.3802969-17.7150535-11.1591532ZM933.0102302,615.6754949c-4.3198118-4.4355099-8.2224506-1.684584-12.5693771-6.5856494,9.8289886-4.9101251,13.8597906-18.949417,27.4653108-30.8496424,4.3731417,11.9375778-5.733848,24.7114078-14.8959337,37.4352918ZM956.4963556,558.238644c-7.830636-7.6765146-6.1211648-15.9054547-15.9881054-23.4516001-16.5444503,1.3215976-21.0433137,21.5830599-39.7566868,29.121602-4.0920136-7.0746358,11.8337236-15.3150343,15.7412456-22.8529125-4.4158485-6.0875176-8.170063-.6910191-12.0103335,3.1372147,10.9432205-22.1163594,44.9425855-9.2691312,65.1829086-11.0989268-5.0468554,8.4185291-8.1264995,16.7220241-13.1690285,25.1446226ZM952.8655068,453.6105898c3.2521847-13.279051,9.4761542-6.7162756,18.8738769-10.8484045,9.2005519,5.9694421-1.2058994,13.0768255,10.8474407,18.874648-9.1845743,9.7793425-19.5405228-.5371119-29.7213177-8.0262434Z"/>
  </g>
</svg>