<?xml version="1.0" encoding="utf-8"?>
<!-- Generator: Adobe Illustrator 27.2.0, SVG Export Plug-In . SVG Version: 6.00 Build 0)  -->
<svg version="1.1" id="dill" xmlns="http://www.w3.org/2000/svg" xmlns:xlink="http://www.w3.org/1999/xlink" x="0px" y="0px"
	 viewBox="0 0 500 818.7069092" enable-background="new 0 0 500 818.7069092" xml:space="preserve">
<path id="outline" fill-rule="evenodd" clip-rule="evenodd" d="M327.2106323,49.3135223
	c0.8145447-9.5414543,9.741272-50.3431931,13.6098022-41.1568222c1.3034668,3.0420971-15.9989319,30.483242-7.2259521,71.2659378
	c3.2070312-13.2774277,6.9960327-25.2881737,8.1340637-40.2759552c0.1022339-1.4573441,4.2000122-1.6096458,4.4804993,0.4592972
	c2.2529297,16.3805161-6.6812134,31.9110794-7.4189453,47.5998688c-0.7799988,16.3951111,1.8193054,31.6838226,3.1547852,46.9715042
	c5.3490601-14.4431,13.9886169-30.4854965,21.6650391-43.6038895c2.3496094,0.833374,0.6915894,2.4161072,1.8961792,3.4459
	c-8.0062256,24.6316071-30.7378235,54.6805725-22.1905823,77.3582001
	c13.7296143-14.9376221,35.1283569-37.135376,41.0128174-56.8366852c2.6080627-8.7322083,1.5266418-16.4396286-3.5855408-23.2891388
	c-2.5154419-3.3568192-6.1210938-8.8520355-8.7043152-10.810379c-2.7575073-2.1659546-5.6976929-2.2060089-8.5159302-4.323967
	c-2.5136414-1.9044342-5.0065918-4.5884171-6.9205017-6.9294662c-2.5293884-3.1094055-7.708252-6.7072716-6.609375-10.4477692
	c1.4621887-4.9369049,6.3484802,3.0190506,8.6371155,5.9733658c2.6494446,3.4687119,5.1152649,7.3375626,9.2806091,9.6644211
	c-5.1539917-12.470726-8.1397095-25.1998825-9.9819336-37.8505974c-0.633667-4.298233,1.2604065-13.9340878,2.1990662-13.931139
	c4.3779297-0.0274277,1.8426819,7.1748333,2.2229309,10.6010609c1.1579285,9.9552231,2.4595642,20.507019,6.7804565,28.6909676
	c0.2497253-4.3781929,2.1816406-8.9043884,3.5280151-13.5496712c1.3394165-4.6211433-0.5122375-11.5199051,3.0363464-12.8149452
	c3.2710571-1.2209854,2.0724792,6.2700615,1.9050903,8.7840691c-0.7521362,10.6099586-6.5264587,20.2811623-2.9890442,30.4290657
	c1.9443054,5.5895157,8.0311279,12.3967972,12.4496155,16.6308136c0.8573303-12.4205093,0.5581665-25.544899,0.8535156-38.8486366
	c0.2484436-12.9036865,0.337677-27.3894806,5.0711365-39.6550064c1.0855713-2.7666674,2.8237305-8.412118,4.9948425-7.1826849
	c3.4613647,1.9188399-0.4004822,7.4068041-1.1773071,10.9105406c-5.6499634,26.0600395-3.8216553,53.2105789-2.7350159,76.984024
	c4.1114502-14.0646286,5.3649597-28.3078461,8.5680847-43.1086159c2.2973633-10.6320801,2.7654724-23.417984,6.9465637-35.0832787
	c1.92276-5.4459906,6.2448425-16.4957886,8.7950134-15.2931433c3.2140198,1.5139301-5.7879028,19.9154129-7.0228882,25.5085945
	c-1.3143616,5.9285927-2.4008789,11.7320786-2.8739929,17.195179c3.8812561-7.3740883,11.9465332-15.0198269,16.8459473-23.5083332
	c1.9322815-3.3984213,4.6218262-8.5418558,6.3469238-8.3952246c3.826416,0.357132-0.840271,6.9892092-2.3653259,9.557725
	c-5.7860107,9.7707005-14.6350098,19.2893791-19.3744812,28.7060051
	c-5.973175,11.8815231-12.553009,44.8750267-12.0577087,49.7014046c7.6781616-6.1578445,16.210968-12.3719864,23.4675903-21.5595093
	c2.9944763-3.8021317,5.7417603-8.6086426,8.3746643-12.8342743c1.9492798-3.1577759,4.3115845-11.8782425,7.2098999-8.8779259
	c3.1125183,3.2490044-8.309906,17.5633812-11.2566833,24.7277946c11.7095947-8.3248749,24.0371399-13.2112427,35.8605347-20.9903564
	c-0.6185303-4.3827705-1.1924133-10.0554543,0.9983826-15.3129997c1.6603394-3.9840317,6.0276794-12.6524315,8.5591125-10.0351639
	c3.6633911,3.8319664-7.8921814,16.1248283-4.0609436,22.7690315c5.9274597-3.8289528,15.5043335-11.7596855,18.2737122-8.6574974
	c3.4438782,3.8415871-4.4221497,6.8390846-7.2224121,8.8515015c-10.0734253,7.3588142-21.3702698,12.939518-31.1998596,18.870594
	c8.8712158,0.7707977,28.4060364-1.5386353,28.3350525,5.2615662c-0.0505676,4.1119461-7.8088074,0.9884338-11.2012329,0.7788925
	c-11.2645264-0.752449-23.774353-1.7569809-34.067749,3.0122528c-8.038147,3.7338257-18.2032166,11.8742752-25.9596252,18.22052
	c-13.8947754,11.4149551-23.0386963,31.5462418-36.0057373,48.0816116
	c-5.0703125,6.4781647-12.8918152,14.4217987-16.8867798,19.7413025c7.0577087-0.4312592,15.2790833-1.8740845,21.6467896-7.3781281
	c4.7432556-4.0743866,9.5839233-12.4075623,14.559845-18.6836243c3.1057739-3.9263458,7.1595459-7.020401,10.2872009-11.0003204
	c5.4615479-6.9148026,9.3381958-13.305191,14.4360046-19.277359c1.7952271-2.1099777,4.4215088-7.183876,6.8989258-5.3606415
	c2.2560425,1.6714478-4.6736755,8.2924423-7.400116,13.0098877c-2.7068176,4.6833496-6.6576538,9.9679871-8.0349731,14.6553955
	c2.8621826-0.8067169,5.8330994-0.8998108,8.7816772-1.8845978c3.651947-1.2678375,10.0415955-6.1339417,11.2471008-3.9414673
	c3.5638733,6.4542847-22.5041809,8.4911194-31.6726379,18.0071869c-5.2368469,5.4286499-9.6157532,13.0693512-14.8097229,19.0458374
	c11.4509888,1.8048248,22.4101562,0.9268341,32.8598633-2.8034363c7.565918-13.7765961,27.6777954-44.7368774,31.380249-35.2647705
	c0.8999329,2.2887115-18.656189,19.8484039-21.0812073,29.6180267c7.9290161-2.6656799,12.3666687-13.1887512,19.0797424-19.8200684
	c1.0193481-0.986908,2.6551819-1.2984009,3.678894-2.2338409c2.9773254-2.6977234,7.0346375-7.4670868,8.4581299-10.6459579
	c2.5643616-5.7165222-1.9052429-15.7095947,4.0899658-17.429039c4.0901794-1.1961823-0.6296997,8.5326157,1.2445679,12.0321121
	c2.6901855-3.1977692,13.5141296-11.8048172,15.249054-9.6667328c1.6261597,2.0239487-10.8873596,12.0925293-16.5013733,18.4008865
	c-2.414856,2.7075195-6.0765381,6.182373-5.7701416,9.848465c7.6885986,2.1966248,15.5220642,1.7694855,22.826355,0.9246826
	c3.2180786-0.3786774,9.2960205-4.7993469,9.4981689-1.4147949c0.2320557,3.9984589-19.2034607,7.6292419-29.7484436,6.0169525
	c-4.3946838-0.672287-7.837738-1.314621-10.3372192,0.2963104c-3.3923645,2.1712494-5.3736572,6.209671-7.8321838,8.9879913
	c-13.614563,15.3930511-30.1566162,19.0282593-46.0169678,18.7071533c-2.4926147-0.0484009-5.5936279-0.5794067-8.0319214,0.8203278
	c17.2939758,11.5122986,36.5811462,18.942337,52.7686768,18.4595032c1.9526367-6.7781982,6.3427429-9.1932831,10.9823914-10.4773865
	c2.5951538-0.7418213,7.3111572-3.0318756,8.054718-0.8374023c1.8989868,5.8431244-12.925354,3.5772705-14.0962219,12.6100464
	c3.1179504,0.989502,10.4386902,0.3504333,10.0404053,3.2283478c-0.6318359,4.480011-8.6960754,2.6714172-12.8139954,2.3258667
	c-4.4332275-0.3877258-9.3685608-0.9055481-13.8117371-1.5944366c-9.6114502-1.4768372-18.7813721-6.537796-28.2715454-8.4018097
	c4.4604187,7.8186798,12.2450256,18.2472229,17.6737976,22.9199677c0.6790466,0.571991-0.6315308,2.3530121-1.5014343,2.1496277
	c-7.3752747-1.8801575-25.8198547-30.3898315-27.1203918-31.5988312c-3.9914246-3.717041-9.4135132-5.196106-14.5318298-9.004715
	c-6.6668091,1.558548-13.6982727,0.861496-20.1208191,3.6268616c6.9367981,15.9698944,25.0910034,35.8744354,46.6488037,47.2726135
	c3.8959351,2.065979,16.1834412,4.3193207,13.2211304,8.6227875c-2.1789856,3.1214905-8.2006531-1.3368988-12.2275391-3.1551361
	c-8.3568115-3.6855621-16.7585144-9.2455292-23.8977966-15.4753418c-2.0984497,5.5122223,5.2470093,13.7970734-1.2698364,15.6373291
	c-3.4566956,0.9860535-2.0241394-11.1434479-3.9827576-20.3757324
	c-0.6467896-3.0155334-16.8792114-15.9678497-22.4536133-28.3604889
	c-4.7957764,6.043457-8.1529541,14.4954681-10.1044312,20.7450256
	c-3.7935486,12.1781464-11.977478,54.0013123-15.6481934,78.6790161c-1.2755127,8.4974365-3.5954895,16.856842-3.2622681,25.4467468
	c5.5909729-6.4176636,16.359375-8.9635925,21.8771973-19.9948425c1.6732483-3.3575745,2.1890259-8.7101135,3.7413635-12.3360901
	c4.776947-10.991272,8.6917419-23.2456818,14.3282166-32.1713562c0.8278809-1.344696,4.2114563-5.4365692,5.7901306-4.519928
	c3.0897217,1.7936401-0.9286194,5.0597839-2.2121887,7.0009766c-4.1880798,6.3991089-7.3077393,17.1177979-10.9948425,24.3570862
	c9.3838196-3.2510681,18.7323303-6.5115051,27.8931885-11.0225525c1.1625366-7.662674,13.1928101-20.3678131,15.7805176-18.9221191
	c3.9822388,2.1988068-6.6362305,10.0068817-7.4380798,14.5485992c4.1816711-1.1958618,27.2511902-8.9702606,28.4206848-6.3863373
	c1.7054749,3.6887207-7.6335449,4.3048401-9.1173401,7.0045319c4.122467,4.3776398,13.0628052,7.8934784,11.5987549,10.1587677
	c-2.3842773,3.7015686-11.2566528-6.1941833-15.2292786-9.5081787
	c-11.0614014,2.4861145-45.3775024,16.0202637-49.3500061,19.6318054
	c-5.2068787,4.7869263-6.9844666,12.6265564-11.874176,19.4711304c6.6602783,1.481781,13.8727722,6.0538025,20.9541931,9.7483826
	c5.8798218-0.6109619,15.883667-8.9330444,17.1986694-4.0823059c1.223877,4.5410767-8.6018372,4.5058594-10.5892944,7.6035156
	c3.3923645,2.5913391,9.2056885,3.6337891,10.8152771,7.4885559c-0.8284302,1.9082336-1.733429,3.2236328-2.975708,2.7327576
	c-5.5158081-2.2408447-16.1195679-9.023468-24.3309326-12.6061707c-2.8101196-1.2336426-5.7822876-2.739502-7.824646-3.2888489
	c-9.4398804-2.5943298-17.5140076,6.0756836-24.5537109,13.8920898
	c11.4939575,6.8973999,19.7664185,14.7216187,28.6951599,19.3383484c3.7762451,1.9604492,11.8327332-0.1516418,15.9173279-0.6881409
	c5.1058655-0.6351624,10.1723328-0.0208435,14.2546997-1.3188171c4.7145996-1.453125,22.6074829-16.2634583,23.0471191-11.7384033
	c0.4595337,4.7810974-8.1399231,5.9763184-11.7307434,10.0132141c9.5434265-1.4505615,20.5477905-4.7097473,29.1176453-11.2445068
	c1.6576233-1.273407,3.246521-5.6011658,5.044281-3.4401245c2.5159302,3.0111084-7.9621277,8.1450195-11.6347961,12.1925964
	c1.8812561,1.9675293,8.3098755,2.3963318,6.2313843,4.8380737c-2.3499756,2.7660828-7.7441711-3.2435303-11.1353455-2.3818665
	c-15.9039917,7.7670593-35.0534363,6.9183655-50.5199585,11.3399963c9.5516052,3.4154053,19.0248413,9.618866,28.5310059,14.9781799
	c7.8456421,4.4533691,20.1538086,8.9073792,26.8112488,7.4288635c4.4948425-1.0068054,8.4272461-4.0589294,12.6243896-5.1209106
	c4.0056152-1.038147,13.0688171-0.8183289,13.4565735,1.3287048c0.6868286,3.7117615-6.9947205,1.109375-10.5907898,2.2418213
	c-5.7063293,1.8188171-10.9257507,5.3247375-15.7062378,7.2468872c10.7550354,4.627594,22.5848083,10.3503113,33.0489502,13.862854
	c3.3147888,1.0889893,9.7973328,1.2750549,8.893219,5.6072083c-1.038208,5.0011597-10.2445679-3.1769104-14.7962646-1.7249756
	c0.5371704,3.9016724,7.4241028,10.3857727,3.4345398,11.9743347c-5.1588745,2.0405579-5.0147095-10.235321-8.6121521-14.5009766
	c-2.10495-0.6274109-39.7871704-18.4447327-52.2026367-21.4690552c-1.2670593,1.5827942,8.2426453,7.3023376,6.4979858,8.9721375
	c-4.7255859,4.6244507-18.9646912-16.0652466-23.9553528-17.5389404
	c0.9169617,4.0018005,13.6836853,18.2739563,15.8747253,21.5417786
	c7.2345581,10.6630249,13.3987427,21.0986328,20.4371948,31.2259827
	c1.0220642-0.1895142,23.1278992-19.8372803,24.412384-12.9083252c0.7284241,3.7514648-6.1337891,4.3735962-9.1999512,6.5783997
	c-4.1767883,2.9725037-8.3143311,6.1690369-12.2417603,10.5267639c-0.7383728,1.0562439,0.5736389,2.2915344-0.4154358,2.8915405
	c-1.9043274,1.2132874-5.574646,2.3318176-6.4014893,4.6213684c5.0883484,4.7602234,18.4288025,5.5626526,14.4947815,10.5799561
	c-4.7514038,6.0996094-13.5619507-6.1904907-20.5012512-7.2879944c-2.4245911-0.4111328-15.4800415,2.1957703-17.7956848,2.5892639
	c-16.0405273,2.8210449-49.4115906,19.5538635-54.3390198,28.40979c13.415741-5.7284546,29.2735291-5.5142212,44.2540588-7.6978455
	c2.0762024-2.4222717,1.9423828-8.9880676,5.9490051-7.0458679c0.4563904,1.9122925-2.2183838,4.3709412-1.7052612,6.2737732
	c6.2325745,0.2383728,14.1261292-6.9803772,19.3369446-0.9719849c-6.956665,5.5514526-15.3165588,3.4487305-22.4903259,7.8630981
	c-0.0883484,4.305603,6.5040588,7.403717,3.1631775,12.2976379c-5.0779114-2.0776978-3.6828308-7.8699646-6.4772034-11.4066162
	c-9.3022461,0.9147034-18.192749-1.1680908-27.1007996,1.4530029c-13.3729248,3.9308777-25.4893799,13.3404541-38.7367554,18.972168
	c7.7521667-0.0352478,16.4932861,3.9293213,23.272644,3.3531189c8.651123-0.7269287,18.3929443-2.9159546,27.4038086-4.9816284
	c4.5257874-1.0135803,9.4293823-0.9611816,13.7710266-2.1736145c4.8062134-1.3254089,8.4122925-4.7563477,13.2403564-5.2259827
	c13.3896484-5.9805603,26.7052917-11.7202148,40.0758667-13.2497864c4.712738-0.5237122,9.3305054,0.281311,14.4714966-0.090271
	c6.8419495-0.4981384,13.7485352-2.8464355,20.2640991-4.6317444c3.3558655-0.9063721,6.4618225-1.4151611,9.8646851-2.7225952
	c3.0415955-1.1662598,6.8198853-3.5158386,10.3798523-1.8750305c-1.228302,11.513916-16.9169006,7.2224731-22.3547974,12.2459106
	c3.6190491,2.8664551,9.5293884,1.3965149,10.5990601,6.259552c-3.4098816,4.3118286-7.882843,0.5378113-10.8152466-0.5619812
	c-9.0572205-3.3881226-15.0116882-3.009491-23.1573181-2.7359619c-22.2941589,0.7266541-41.4772644,10.0849609-61.93396,17.8314209
	c7.4842529-0.2601013,14.6508179-3.4867554,22.4131775-3.1298523c2.0111694,0.0834656,3.878418,1.2616577,5.9440918,1.4482117
	c6.4264526,0.5756836,11.8905945,0.348053,18.3083801,2.0400391c6.0529175,1.5977478,12.5836792,2.2371216,18.9685974,5.6815796
	c9.2398071,4.9880371,16.4112854,9.5198975,26.2057495,14.4512939c8.098175-1.3808289,14.4621582-7.1546326,22.3329163-12.2276917
	c6.3889771-4.0847168,12.0579529-9.6909485,17.2365723-5.6210022c-0.4176331,6.5110168-6.9313354,5.8591003-9.9878845,9.0549927
	c-0.2411804,2.5360107,4.2193909,4.2470703,4.3424683,6.7493591c-4.2276001,6.9580994-7.6616211-2.5995178-11.5535583-4.8324585
	c-4.6457214,3.9433594-9.6947327,5.6058044-14.2829895,9.8304443c13.3537292,6.4099121,29.9560242,6.7265015,43.4890137,14.1572266
	c-2.9428406,5.7428589-10.4318848,2.4075928-15.4649353,1.5481567c-5.92099-1.0290527-11.851532-2.9784546-16.9436035-3.2458801
	c3.9603882,6.1056213,10.733551,11.6977234,6.9277344,19.2132263c-5.6278992-0.588623-4.9523926-7.3034058-6.6994934-11.0671997
	c-1.6762085-3.5479736-4.3911743-7.8016968-7.9514465-10.8234863c-7.5348816-6.4077148-16.1531677-7.4332886-23.7227478-11.1237488
	c-14.1598511-6.9000854-27.07724-17.0715027-41.1123047-18.361969c-17.0876465-1.5870361-32.1078796,1.9728699-46.2538452,5.2245483
	c7.8471985,1.5798645,15.8623657,4.2816772,23.9380188,6.9905701c9.5969238-3.7294006,19.8106689-4.0547485,30.3948975-2.3468628
	c-1.1108398,9.9486694-14.7389832,0.81073-18.8128967,5.5932312c10.820343,4.9752502,24.9414062,10.5610962,34.0800171,17.7557983
	c-5.3071289,8.5379639-17.3649902-5.5850525-25.3962402-6.420105c4.0793457,4.2665405,9.5720215,11.378479,4.3222046,15.2723389
	c-4.0158691-2.4263306-2.1973267-6.9345703-3.4519653-10.3978271c-1.7390442-4.6971741-7.0206909-8.5405273-12.0658875-11.0256653
	c-18.0627441-8.9065857-43.25177-13.2362061-58.1856384-13.7076111
	c13.6235962,9.3053589,25.4589233,20.5681152,39.2008057,28.7803955c5.7396851-2.4445801,14.2495117-8.769043,18.034729-2.9428711
	c1.6661377,2.5917358-9.966156,1.5481567-14.0935059,5.6999512c4.2992249,2.3113403,12.5457764,2.3033447,12.6543274,5.5812988
	c0.148407,4.0999146-9.2131042,1.3161011-16.8582764-2.5501099c-14.7673645-7.4746094-31.2175598-21.9441528-34.5093994-24.4883728
	c-1.7746582-1.3602295-9.0880127-8.01651-12.3493347-9.3841858c-4.3852234-1.8794861-16.3884583-4.1759338-20.0183105-1.9259338
	c5.5350952,3.9344177,10.2536316,7.0415649,15.2252502,12.0569153c6.3540039,1.4510498,20.496582,8.5825806,25.5100098,12.9841003
	c8.2348328,7.2359314,15.3874207,18.7268982,29.2808838,26.1651306
	c13.1847839,7.0701294,34.7774658,12.8051758,48.7503357,25.7966919
	c2.3259277,2.1616211,14.4690857,10.0185547,11.2886658,13.7125244c-2.4123535,2.7790527-5.931427-2.2390747-8.305603-4.1625366
	c-5.9949341-4.9523315-11.4545593-8.7099609-19.4277649-13.4990845c-0.9623718,3.0509644,2.2420654,6.899353,0.0760498,9.1384277
	c-7.5262146,0.1834717-2.224762-9.1308594-5.1204529-12.6237793c-1.4514771-1.7440186-6.333252-4.230835-8.5400085-5.3781128
	c-8.9189148-4.696167-21.9981384-8.5958862-30.8384705-13.9182129c-14.8388672-8.944519-19.5786743-25.9410706-35.330658-28.2195129
	c0.1244507,5.7364807,6.6269226,8.8702698,10.2770691,15.1121521c3.3426208,5.7030029,6.5997925,12.7821655,10.0036621,18.6546021
	c3.2377014,5.6044312,11.1480408,18.078064,2.4067993,13.4229736c-3.3068237-1.8045044-4.7927856-7.5383911-7.3392029-9.3806152
	c-2.2462463,2.7017822-4.0443726,7.7766113-7.0516052,6.3170776c-1.4469604-1.9467773,2.0122375-4.6436157,3.1681824-6.8842163
	c0.9642639-1.8164062,0.4625244-4.0734863,0.4898376-6.0403442c0.0118408-7.8079834-15.3620911-28.2553406-17.2964172-31.1982727
	c-4.0479736-6.0550537-9.588623-9.8575745-16.3824463-15.6148071c0.1915283,3.6479492,1.6139221,8.6688232,2.0921021,13.1625061
	c0.4026184,3.9716797,2.2980652,12.7093506-3.5053406,11.9680786c-3.8070679-0.4822388-1.1108704-5.593689-1.1836548-8.2632446
	c-0.0600891-2.733551-0.942749-6.7261658-1.2745056-10.4820557c-0.5592346-6.3562317,0.3040161-11.510498-7.0220642-14.4663696
	c-1.9403381,38.5085449-1.3496704,72.8356934,2.6398315,108.421814c8.2124023-5.8892822,18.3580322-2.6891479,28.2652283-3.845459
	c7.928833-0.956665,15.882782-4.0961914,22.9438171-5.4208374c4.3079529-0.8051147,13.8946838-0.7625732,16.0143127-2.2557983
	c0.5290222-3.0352173-1.8415222-6.8518677-0.8725281-9.6176147c1.8147583-5.0879517,8.9677124-13.8659668,11.2607117-10.8601685
	c2.6065979,3.4486084-5.4043274,6.3781738-6.9746704,10.0732422c-1.3388062,3.1482544,0.1739807,5.7885742,1.5252075,8.5565186
	c6.0172119-2.2087402,14.5292664-8.8978882,18.2215576-5.5252686c5.7082214,5.269104-20.9237366,15.2774658-27.9994507,15.777832
	c-8.8017578,0.6281738-17.3960266,0.3115234-22.8053284,4.4393311c16.226593,8.4121094,39.8877869,10.53125,58.7556152,9.8395996
	c3.0718689-2.7723999,13.2900696-11.6278076,16.5673218-9.3093872c6.412323,4.5499268-12.7269287,6.4742432-11.9811401,10.3394775
	c6.5578918,1.4900513,18.4421082-0.7014771,19.2910767,2.1906128c1.9101562,6.6170654-5.9824219,4.5993042-9.9302368,4.319458
	c-5.3456421-0.3574829-42.6679077,0.7550049-98.3460388-14.8054199
	c9.7653503,3.2995605,25.5163574,11.5420532,35.2409973,17.4016724c5.9774475,3.6026001,11.3623657,5.3102417,17.4819641,7.855835
	c12.5547791,5.2597046,21.2279053,8.1499634,31.3572998,6.2913208c4.0618591-0.7373047,7.3115234-1.3410645,11.2272644-2.3444824
	c4.8591919-1.2583618,9.7230835-4.0291748,14.1966858-6.6731567c9.5214539-5.595459,17.5379333-10.43927,26.9656372-12.7254028
	c4.2199707-1.0437012,13.0704651-5.7637329,13.3787231-0.8630981c0.2842102,4.3742676-16.041687,5.9483032-23.6460876,10.2664185
	c-8.5308228,4.8136597-16.0047302,11.4821167-25.2915649,14.947876c22.5748596,2.9411621,44.2643433,1.0922852,67.6402588,8.5447388
	c1.4347839-2.9690552,5.3081665-4.8660889,8.2875366-6.5480957c2.8408203-1.6265869,8.134491-5.1539307,9.8708496-2.7265625
	c2.9429321,4.1275635-10.0523376,6.2698975-12.4714355,11.0535278c5.9560242,1.510498,15.0883179,1.1852417,17.8849182,4.9555664
	c1.447998,1.9468994-3.6251526,4.9370728-8.1931152,3.3657837c-14.9703064-5.0963745-35.5688171-10.126709-48.4122009-10.1044922
	c3.2559204,6.0079346,9.7328796,20.5783081,8.2356873,21.1795654c-3.7593384,1.4429321-4.0933838-6.1467285-6.6042175-10.4518433
	c-3.6696472-6.2088013-4.5047302-9.6935425-7.4673462-11.5336304c-2.3257751-1.4711304-7.4811401-0.1965942-10.7871704-0.5842285
	c-12.9878235-1.5175781-26.552124-3.8342896-36.8681946-3.7185059c4.0403442,3.0427246,7.8872986,6.1292725,10.50177,9.4264526
	c3.2241821,1.3430786,10.2911987,1.6127319,10.224884,6.0274658c-1.9321899,3.708313-5.1095276,0.7106323-7.7667542,0.4656372
	c0.0895996,3.0006714,5.5093079,5.0633545,4.3359375,8.3172607c-3.3459473,3.243103-5.8014832-1.3607788-7.4790344-3.0351562
	c-4.7812805-4.8203735-9.5583191-11.7169189-16.0049438-15.3666992c-1.7602539-1.008667-27.4878845-12.203186-37.5635071-18.0758667
	c11.0994263,12.0806274,26.932373,27.2025757,37.65448,39.4724121c3.5375671,4.0402832,6.776825,8.8067627,10.3663635,11.9692383
	c6.4893494,5.6710815,17.8503723,9.5825195,23.7279053,11.1196899c9.0256958,2.3575439,15.8760071-0.8547363,23.8947754-3.6824951
	c11.2884827-3.9927979,20.3677063-3.2225342,22.6758118-5.0639038c3.5190125-2.8167114,9.4914551-12.7896118,11.4770508-9.6322021
	c1.9002075,3.0257568-4.7929688,5.1505737-6.5009766,9.3723145c2.1446228,1.6682739,11.0688171,14.7230225,5.8977051,16.8635254
	c-3.2504272,1.350769-3.8319397-7.3342896-7.7323914-9.6144409c-3.9492798-2.3514404-30.0655518,3.9946289-34.0126953,6.7866211
	c11.9352112,2.9124146,28.3818665,8.0596313,41.1305542,16.383728c6.45224,4.2093506,16.2184753,11.0357666,15.2803955,15.2672119
	c-1.6109314,7.1988525-9.0482483-2.812561-13.1352539-6.4550171c-5.1102905-4.5241699-11.0576782-8.9686279-16.9484253-10.1314087
	c0.2457275,2.9685059-0.8494873,7.1966553,0.0409546,10.6925659c0.5428467,2.0794067,3.7059631,4.5066528,1.2188721,6.7081299
	c-3.3221741,2.9161987-5.2549744-5.6272583-5.4399109-7.5175781c-0.4741821-4.6606445,1.4960938-8.6894531-0.01828-12.2741699
	c-21.4202576-8.762085-39.5430298-9.6578369-61.6618347-22.2490234c-1.3289185,6.9397583-6.4565125,13.081543-5.8563843,19.6791382
	c6.6386108,7.8790894,8.9148254,16.4425659,12.5537109,25.7470703c1.8649292,4.8164062,4.0910034,21.0357666,2.0551147,20.0811157
	c-2.9282837-1.5033569-5.6896667-18.354187-8.0793457-23.7193604c-2.4986267-5.6243286-4.3938904-11.871521-8.4703369-15.4487915
	c-0.4014587,9.2420654-2.9284973,19.4561768-0.8835754,28.1474609c0.7881775,3.3040771,5.2289429,11.392334,1.26828,10.4683228
	c-1.1967163-0.2541504-5.328949-9.0050659-5.584259-13.4570312c-0.6011658-10.8502808,1.3262634-22.3534546,0.6117554-33.1504517
	c-9.4115906-10.5782471-23.3007507-34.0350342-30.1364136-45.0672607c2.956604,8.5164185,13.3410645,33.541687,16.0714417,43.836731
	c0.7473755,2.8271484,3.4341736,8.7579956,1.6201172,10.7180786c-5.8064575,6.2780151-9.0401306-14.3806152-9.9087219-16.4577026
	c-3.2964783,2.005188-8.1899414,8.9616699-10.160675,4.68396c-1.5186768-3.2908936,6.757019-4.7757568,8.1925049-10.3095093
	c1.2518921-4.7884521-4.2081299-12.9993896-6.460144-18.3457642c-3.89505-9.2659302-6.3074341-18.7390747-12.7295837-28.5352783
	c-6.1382751-9.4015503-15.7619019-18.8675537-25.2652893-26.5922241
	c-5.8811951-4.7694702-13.7879639-9.3755493-18.3464355-7.3914795c5.0427551,5.4505615,12.3867493,13.6993408,14.6424561,16.5708008
	c4.9118958,6.1542358,15.6082458,24.3155518,17.6473083,26.0681763c2.1936035,1.9022217,5.4757996,1.708374,6.7354736,4.1307983
	c0.1978149,3.079895-4.0811157,1.7706909-4.0987244,3.56604c0.5903931,4.0773926,7.3775024,9.5681763,2.2191162,12.2077637
	c-2.6660767,1.3423462-9.5463257-14.9989014-13.8125916-22.371582c-5.5146484-9.567627-13.686615-19.1623535-21.2120667-28.5773315
	c3.7275391,21.5593262,53.5510864,192.7179565,54.1656799,193.2142334
	c-2.4965515,2.8456421-11.3820496,10.6842651-12.9657898,9.553894
	c-1.7787781-1.2853394-45.8670349-177.6846924-53.3258362-210.6386108
	c-16.9505615,2.2854004-14.0563049,51.2619019-13.9784241,53.2005005
	c0.3164978,8.4932861,13.2003174,16.7469482,10.6092224,23.8843994c-1.5659485,4.3273315-5.9928894-3.4088745-9.6083679-6.1329956
	c-3.4732666,9.0519409,2.4291687,23.4935913-3.0384521,26.6688232c-3.4021606,2.0151978-2.6687012-14.8699951-2.6914673-18.37854
	c-0.0944519-10.5423584-1.8553467-20.8755493-2.4792786-31.0172119c-0.9503174-15.6459351-0.7813416-30.9226074,6.4620361-47.770813
	c-8.0845032,1.0070801-14.6707001,7.4832153-21.8374329,11.5095215c-3.4374695,1.9528198-7.3623657,2.5995483-10.4252472,5.038208
	c-4.4241486,3.4769287-8.7263947,11.4573364-9.7687988,15.6073608c-3.2897491,13.3977051-0.475647,30.7523804,1.2872925,43.5206299
	c0.6947937,5.0317993,2.4299011,10.6051025-0.1572571,14.8308716c-7.0432587,2.0021362-5.0950623-7.1906738-5.7197723-12.5141602
	c-0.5773926-4.9067383,0.3628845-9.5029297-1.8477936-11.9380493c-2.8502502,4.0883789-12.1581726,14.3149414-15.1555176,11.8842773
	c-3.2367249-2.6240234,3.4198761-5.8470459,3.6296082-6.0127563c10.9811554-8.2584229,11.1072845-17.5203247,11.3259277-27.8548584
	c0.1595764-7.7423096,0.9271545-14.3110962,4.7674713-22.2717896c-9.8290558,4.1482544-19.0843201,10.3515015-28.2360535,16.1286011
	c-13.1344604,8.2872925-24.7532349,12.9775391-39.2146912,12.7871704c-2.6606445-0.060791-5.0922394-1.5386353-7.9082336-0.1680908
	c-2.8986664,8.0888062,0.7532654,17.237793-2.1251373,23.0563354c-0.5164948,1.026062-2.6986694,0.5872192-3.5172729-0.3110352
	c-3.8557129-4.2980347,1.1716614-15.3410034,0.29216-22.7174683c-9.3520813,1.663269-29.9571381,11.8900757-31.7704315,10.4868164
	c-3.0221634-6.9018555,19.9896851-12.1223755,24.6456451-13.2927246c10.1310883-2.5692139,21.384552-0.4807739,30.9037781-1.4943237
	c16.7089081-1.7854614,28.7082825-14.1386108,44.2822266-23.1350098c-7.3868408,1.291626-33.4613495,1.0244141-39.1410217,1.1123657
	c-7.7192688,0.1005249-15.7479706-0.6453247-24.4472351,0.6473389c-4.719101,0.7111816-12.0631561,3.1501465-8.6897278-2.8417358
	c1.9830017-3.5297241,10.8536224-2.2307129,15.597702-2.5074463c13.0284729-0.7138672,20.3803558-0.3416748,32.0798645-0.1329956
	c5.5727692,0.1054077,21.7382507-1.1427612,24.5800018-1.6066284c2.9693146-0.5097656,5.8060455-0.8421631,8.5131683-1.5635986
	c10.740387-2.7592773,19.0630341-7.5536499,28.6762848-12.1140747c4.2155151-2.003479,8.0295868-5.2348633,12.2670593-6.9290161
	c2.0506592-0.8383789,4.7351379-0.196106,6.23172-2.0691528c-2.6101379-1.7733154-42.8912811-1.6503906-45.2951355-1.5687866
	c-3.4156189,0.1168213-7.2328491-0.0661011-11.3078766,0.1538696c-8.2720184,0.4646606-14.6429749-0.5001831-23.1743927-1.1401978
	c-4.3688202-0.3474121-9.4405365-1.8482666-11.8869324-1.3151855c-4.561554,0.9683228-21.762558,10.0328369-64.1120071,17.8983765
	c-14.8096161,2.756897-34.4096298,26.260498-39.3640366,26.0118408c-7.3204765-0.3607178,5.2301331-8.9675903,10.5607376-12.9252319
	c4.8578568-3.6018677,8.9699936-7.1050415,11.4822083-9.6539917c-5.3369904-2.7637329-25.6485214-10.5654907-17.9888992-12.4542847
	c3.6364517-0.8916626,22.7206497,11.8969116,31.6332474,4.3458862c20.4601212-4.0950928,39.953804-4.7543945,58.1950607-15.2412109
	c-6.7439423-1.9610596-9.8063812-2.213562-16.4451141-2.7127075c-6.3125-0.4655762-13.1546173-0.0948486-19.4119034-1.2044067
	c-10.2300491-1.8239136-21.5234299-7.7536011-32.4286423-13.9517822
	c-15.8976669-9.0536499-31.5852242-6.4938354-47.2518234-7.185791c-11.8751831-0.5240479-23.7868557-1.7833862-35.1591187-4.6500244
	c-3.6759353-0.9312134-11.1033926-0.9160767-11.3003273-5.1964111c-0.1727541-3.244873,5.0688024,0.2485962,7.5202856-0.0884399
	c-0.4502454-3.7162476-11.4555101-9.3272095-5.7510614-10.9081421c3.7289131-1.0549927,5.6946154,5.3897095,8.6000862,7.548584
	c3.2010183,2.3609619,21.1786804,6.880249,25.2692375,7.3925781c7.737606,0.9581909,35.7709808,0.4957886,40.72258-1.0896606
	c-5.9474869-8.607605-25.2108383-37.2158813-30.3421402-42.3414917c-1.862114-1.8737793-5.6854973-2.9974365-4.5037689-5.803772
	c1.0376167-2.4197998,4.1790276-1.6480103,5.1111145-1.2387085c2.3627205,1.0231323,13.9136276,17.328125,17.2294388,22.0713501
	c8.1872025,11.6731567,15.8163452,27.2412109,29.2237015,36.2445679c3.3442688,2.2477417,8.3207016,5.1865234,12.9887466,7.4251709
	c19.0883331,9.0949707,40.9842072,7.0467529,60.4140167,12.0186157c21.4031525,5.4845581,41.4612274,3.1246338,58.9906311,2.5449219
	c-20.7057037-7.7081299-40.0843811-17.9008789-61.0406799-24.2122192
	c-6.4805145-1.9328003-13.5250244-2.4743652-20.0858765-4.8527832
	c-16.7900543-6.0942993-33.0670166-14.1389771-44.6741943-27.7822876c-1.0143356-1.1977539-0.4837036-4.7080078,1.9043884-5.0675659
	c2.9394073-0.4497681,15.8020554,10.0375977,22.2072144,14.8659058
	c15.2528534,11.4356689,29.1077576,14.4135132,42.9270477,18.0189209
	c6.8684998,1.8077393,13.2477264,5.0212402,20.0352173,8.0386963c11.7165375,5.1942139,41.9940796,18.8101196,45.8625336,16.8620605
	c-4.5063324-6.4914551-6.6546173-18.137146-13.1815033-24.0512695c-5.5392151-5.003418-14.0706024-7.1158447-21.2875519-11.5568237
	c-4.1447601-2.5422974-8.0823975-5.6847534-11.8938293-8.2539673c-2.0055084-1.3426514-5.8238068-2.8156128-3.7915039-5.293457
	c2.6003418-3.1277466,11.0837708,5.5666504,14.9445038,7.6976318c5.1595764,2.848999,9.6977997,3.680542,13.9845123,5.9655151
	c0.3761597-3.8601074-1.7230988-7.2367554-3.821106-10.6506958c-1.7415619-0.9508057-2.8479004,1.7047729-4.8455963-0.6799316
	c-0.9341431-1.4072266-0.229248-3.1090088,1.3101959-4.9619751c-2.6656647-3.1841431-2.7534943-7.4771118-2.962204-11.1115112
	c-0.1270447-2.317688-0.769989-7.135376,2.887085-4.9169922c3.1283569,1.8543701,0.0777283,8.9909668,2.9218597,12.6707153
	c11.3790283-11.9178467,21.3331299-31.3806763,31.8309784-46.6920166
	c-9.6889648,2.1109619-17.0768433,10.147583-24.9732819,16.805481c-8.0557098,6.8191528-15.7779541,14.847229-24.2108002,21.0559082
	c-11.9891205,8.9087524-25.2048035,17.3876953-37.5836945,23.4966431
	c-4.0503387,2.0004883-10.320282,6.9544678-13.5466614,3.3952637c-3.3980103-3.7140503,4.2849426-6.8572388,7.3148193-8.2339478
	c3.4585266-1.586853,7.7577057-2.5479736,10.8900146-4.168396c6.7393951-3.5611572,14.1741791-9.3991699,20.6731262-14.4614868
	c3.4620667-2.6814575,7.5731812-5.6569824,9.5293274-9.9110107c-7.8329773-0.4462891-14.2306824,0.0275269-21.552002,2.6495361
	c-2.3535919,0.8413696-8.2382355,6.1275635-10.7747803,4.7866211c-6.0826111-3.229126,2.7485352-6.3162231,4.4012451-7.0952759
	c6.858902-3.2190552,14.2009277-6.0574951,22.3499908-6.8792114c4.9984894-0.4953918,9.8941345,0.4540405,13.8605652-1.5714111
	c16.0486603-8.1717529,27.2893219-21.1977234,39.991806-27.7075806c2.3652954-0.3601074,5.0218506,0.9772034,7.196991-0.3421326
	c-13.3477631-10.7043762-26.3399048-6.2739258-38.7062988-3.3933105
	c-5.3073578,1.2671509-17.4033203,1.1716309-20.9667664,4.1323547c-4.4391174,3.6889038-4.9315643,12.0041809-11.0080566,10.4790649
	c-2.207428-4.2545166,5.4228516-4.593689,5.8711548-9.2376709c-4.3103027-0.0483398-9.4520264,1.6687317-14.5093231,3.2288208
	c-3.9067688,1.2327576-10.8548889,6.4498596-13.13591,0.526062c0.968338-3.1459351,4.9748993-3.0213928,7.4784241-3.8909607
	c3.2525177-1.1514282,7.3448792-3.4038391,10.0483093-3.7035217c13.5838623-1.5705872,27.3572845-4.8731995,40.4453735-7.6520386
	c-6.5996094-4.0566406-13.8344879-2.375946-19.2046509-5.3312683c2.4696045-5.0413208,8.7328491-2.9005432,12.5579224-1.9420166
	c4.6092377,1.1394043,9.7842407,3.8123779,14.3618927,4.613739c3.1129456,0.5755615,6.0974731-0.5828247,9.3750305-0.4267883
	c5.5597534,0.2785339,11.7781219,3.2365723,17.6165466,6.8764343c6.5292206,0.7857971,13.2312469,2.4346924,18.3121643-4.8699646
	c-11.5443878-6.8575745-13.3090668-19.2605591-24.6856537-25.1235657
	c-2.9606934-1.5148926-9.2168732-2.8068237-12.5702972-3.3934326c-13.2672119-2.2964478-29.1216583-3.4217224-38.6905975,1.9757996
	c-4.0156708,2.2634888-7.4827271,5.6571655-11.4371643,8.054718c-8.2471924,4.9888611-15.5117035,9.5475464-23.3325653,13.6541748
	c-3.8726654,2.0415955-8.2598877,2.9996643-12.0078583,5.0153503c-8.8422394,4.7870483-13.3245163,17.1631165-22.0525818,22.5505371
	c0.4554291,2.7674561-1.2679825,21.4706726-5.5356903,18.0259094c-2.4790573-2.0220337,2.6477509-12.8355408,1.3759842-15.0482483
	c-6.0731049,3.5810242-18.2879333,11.3594666-18.6216736,8.4056091c-0.7478027-6.3533936,8.9089432-7.4756165,13.7987518-10.6847839
	c6.846489-4.5187988,14.9176331-12.0593262,20.7996826-20.7601929c-5.4075928-0.1083679-10.2304382-2.0422974-15.4105072-1.6212463
	c-5.621933,0.4425964-15.3838425,8.1732788-16.3089294,2.0148926c-0.8700714-5.6387939,20.2744522-6.1300354,31.281044-4.4282532
	c5.909256-2.7423401,10.9812164-6.4407654,16.9367981-9.0372925c5.0134888-2.1798096,11.0151215-3.3775024,13.8885193-8.5014648
	c-10.0461884-4.4784241-21.2634125-14.9023438-31.259201-17.930481c-2.8130417-0.8674316-7.0923462,0.8597717-7.1220322-2.8071594
	c-0.0450592-5.8727112,8.246666-0.5720825,12.1577072-0.6261902c3.5297699-4.4251404-2.6555634-9.3545532,1.0734558-11.5367432
	c6.4542999-3.7547302,3.0598907,9.6530762,3.4962311,14.1798096c9.4517822,3.5482483,16.0143433,13.2688904,24.0482025,14.5207214
	c3.6148834,0.5605774,6.1802979-2.9388428,9.187027-4.8053894c8.0598907-5.0409851,20.4068451-8.7978516,27.6969147-12.2486877
	c-1.5148163-0.8758545-15.9406281-21.6358032-21.0390778-32.7133789
	c-3.4341278-7.5210266-1.9745178-16.4180603-8.0740509-23.7243958c-6.4943695-1.3401489-15.0281067-5.8138428-21.5587921-9.6159668
	c-1.9776001-1.1459045-6.2464752-1.4810791-4.5522461-4.2195435c3.0119324-4.8155212,9.2684021,2.5846252,13.0483398,4.2517395
	c5.5323639,2.4455261,11.9977875,2.9904175,17.035202,5.4091187c-3.7058411-14.5959167-12.5490265-29.4234619-18.2963409-43.5874939
	c-1.7140808-4.2626953-7.8008881-13.1055298-2.0293884-14.7394104c4.4743805-1.2623901,3.867691,6.1602783,5.1578064,9.4493408
	c6.0072327,15.1044006,14.4681854,30.5978699,19.9646912,45.8144836c1.7889709,4.9676819,3.9180145,11.4471436,4.4351196,15.8746948
	c0.3805847,3.3347473-0.428772,6.4285889,0.1927338,9.699585c1.1647949,6.2603455,7.1868134,12.4095764,11.9346619,18.9475708
	c4.0272369,5.5800171,7.0826721,11.5639343,10.7618866,16.0014038c5.5500183,6.6673889,18.3299408,6.2774048,24.7963409,6.5125122
	c-0.8212128-1.3150024-1.8432465-2.5979309-3.2239227-3.8152771c-4.8171844-11.2281189-5.7112579-27.1186218-11.4393463-38.8434753
	c-1.6617432-3.4142761-3.9433136-9.7192383-7.1974945-11.9283447c-1.5331879-1.0428772-4.1299744-1.0275879-6.0245667-2.0566406
	c-3.9716949-2.1159363-7.4006348-5.2601013-10.3202667-8.2073059c5.1063385-6.3065186,8.4806519,7.0063477,14.3648834,6.2290039
	c-2.7145233-6.9448242-6.88237-12.9219055-10.7177582-19.144928c-2.2861786-3.7557678-5.9576569-8.4720459-4.5039062-12.7293396
	c4.7403107-0.2001953,5.2528839,5.5209351,6.9029694,8.506958c6.9720764,12.7244568,16.2276001,25.1171265,21.1831818,37.0717163
	c1.5078735,3.6800842,3.6457977,6.753479,4.6741333,10.1953735c3.0715179,10.3522034,2.1289368,23.331543,10.1190338,31.5240173
	c-0.5967712-12.8343201-2.7863922-25.3380737-3.8100433-38.3451538c-0.3986206-5.0479736-6.0328369-31.0454407-0.0540771-29.8973083
	c5.035141,0.9657593,3.7087402,23.191803,5.3254395,27.6775513c3.5601349-2.4312744,18.1483612-16.4659729,18.4685059-12.7930908
	c0.2694855,3.2047729-11.2788391,17.7284546-18.0375977,19.2507629c1.6671906,6.8266907,2.6770172,9.9919128,3.3912659,16.4630127
	c0.7611694,6.6695251,0.1970215,13.6053162,1.460907,20.1866455c1.7358551,8.9727173,8.6873169,14.3876038,17.2894897,22.042511
	c-0.4328918-5.0571899,6.9512634-21.3986206,10.8701477-19.5686035c2.6988831,6.6481934-9.9500427,19.6411133-4.130188,25.9138184
	c2.8125916,3.0308228,10.8258362,5.4074402,13.431488,2.9307861c1.6528625-1.5786743,11.0592651-58.5112305,13.4463806-77.0482483
	c0.760376-6.0549011,5.1091919-32.7957458,3.2388611-37.7167969c-2.0682983-5.4012756-10.4181519-6.547699-10.0319519-10.1430054
	c0.5483093-4.9779968,7.5429382-0.1975708,11.6303406,1.6631165c2.8933105-6.9211121,3.6557312-13.4681396,4.8761902-20.0680542
	c-2.5742798-0.8196716-4.879303,0.0019226-7.0726318,0.9530945c-7.3813782,3.1962585-11.0359802,6.992218-18.4285889,11.1979065
	c-5.8458557,3.3456421-13.9656677,13.2700806-18.7601624,9.387146
	c-3.2510529-2.6304321,26.9727783-20.4934387,27.6756592-22.5947266
	c-12.8648376,4.8389587-49.1816711,24.2622986-61.2677155,31.8114624
	c-3.6517334,2.3035889-10.1594696,10.1724854-13.2003479,5.2306824
	c-2.0549927-3.3017883,17.5310516-14.1056213,23.0208588-17.0619812
	c-3.5632477-1.3468933-13.1317139-4.8755493-10.1983032-7.5935059c2.1416473-1.9825134,10.6015625,4.5487671,15.5769806,5.9796143
	c11.3870392-6.6516113,22.4546356-11.1064758,32.9647064-16.7747498
	c-13.8451843-1.9124146-29.1943512,0.253479-43.8294373,0.1826172c-13.3655243-0.0743713-20.3178101,2.2737732-32.8029938,6.5577698
	c-2.5491486,0.8683777-15.8329315,6.6377869-18.0687714,4.5324707c-5.0245056-4.7371521,6.1796417-7.5361633,7.6656189-8.0019531
	c9.2474213-2.7793884,21.2952118-3.9004517,28.308548-8.5873718c-7.506012-6.4854431-21.1020813-18.7927856-24.9572296-21.6011353
	c-3.1213379-2.2600708,3.6181946-4.2213745,6.7449646-2.7836914c7.1554718,3.2358398,13.3582306,13.9499817,21.0401764,18.8416748
	c5.4467316,3.4774475,10.7081757,2.9920959,14.9755859,4.5281372c10.5424805-1.4394836,21.8513794-0.0678101,32.060379-0.1352844
	c3.5229187-0.0387878,14.7538147,1.0492554,18.0664673-0.3134766
	c-23.1702271-3.0161438-71.8636322-34.3668823-88.5265045-40.1800232c-3.6463013,3.6451111-12.998642,7.23526-13.9378052,5.414032
	c-2.0608978-4.1161804,5.8989563-5.315155,8.2969513-8.1005554c-4.5782471-3.563324-12.5129852-6.5650635-13.5330658-10.4676819
	c2.0437775-3.9593506,5.7817841,0.3581238,8.9401093,2.4801025c10.2023621,6.8270569,42.2079926,23.6949768,47.2693939,22.6230469
	c-0.5611877-3.1380615-5.6251373-8.9711609-5.4198761-12.2783203c4.1984558-4.0264893,7.2465057,1.2000732,8.8073578,3.4394226
	c1.8619537,2.6911011,3.0182648,6.9039917,4.8201904,9.2069702c5.5230408,7.070282,17.0687714,13.3087769,26.4055634,17.2568665
	c5.2204285,2.2015381,27.6828918,9.6487427,34.2520142,6.8038635c-6.7174988-8.9625244-9.9350891-19.5455322-19.0477905-27.1786499
	c-4.5472412-3.7879333-8.3188782-2.6256409-13.1868591-3.2879028c-7.4666138-0.972168-14.5445251-2.7056885-21.2761841-6.2214661
	c-0.7196198-2.7402039,2.4547119-3.3933411,3.9416656-4.1689148c9.1021271,4.3885498,17.648056,5.7253723,25.9175262,5.6992798
	c-3.2945251-5.3771057-5.0131836-16.3989563-13.4950867-15.5144043c-10.311615,1.0402222-71.2144623-17.6825256-87.3084717-39.30513
	c-0.9783478-1.3183594,0.8796082-3.2582397,2.2529907-4.4532013c5.5440674-0.5988464,14.4616547,11.6429596,19.3696289,12.8730011
	c0.5864563-4.0085602-4.0531464-16.1392517-0.2167053-16.6435089c5.1334686-0.6932678,3.5278778,9.5374146,6.6669312,14.2006378
	c4.2927551,6.388443,13.2467194,12.4753876,21.6747131,17.1592255c13.9411163,7.7635345,28.8473663,10.328598,40.2327881,10.9678345
	c-6.430481-8.9891663-12.3667908-18.4237061-19.0584412-26.1343231
	c-6.3306122-7.2866364-9.3249512-13.2285614-15.7024231-18.8605652c-8.8309937-7.7830963-24.681427-7.2753143-35.5836639-14.0222321
	c-2.7309113-1.6964569-4.4515381-4.4266357-6.9147644-6.9339905c-1.1275787-1.1632385-5.0401917-2.0535278-3.927124-4.3141937
	c3.7433014-7.6299438,10.0530396,9.617218,17.2116394,8.1969147c0.2131042-3.0769348,0.1943054-6.2070618,0.1895905-9.4571991
	c-0.0198364-3.1655884-2.4904633-9.1573792,0.5261688-9.2503052c8.6205292-0.2131805,2.4747925,15.0957794,5.299881,22.3525238
	c9.2707825,3.473465,19.1156158,2.3478546,26.34935,10.7209778c-7.8970642-11.5933838-4.4567413-22.528183-6.8240204-35.0376892
	c-1.6824188-8.9051056-3.6151276-13.8131866-8.4481201-22.3920135c-1.0067749-1.7677917-6.4751129-9.3224945-5.515625-11.2710114
	c0.9704742-1.9934998,3.0056915-1.9020233,3.7913818-1.6320801c2.2743073,0.7616272,4.8995514,7.2129669,7.0800018,11.3072815
	c4.9287262,9.1947327,6.7827606,15.5098877,8.0740509,23.724411c0.6539154,4.2096252,0.0727997,7.9952393,0.377655,12.4992828
	c0.664566,9.9634094,3.3412628,15.84729,6.9706421,24.5590057c1.8165894,4.3818054,3.215683,9.1670074,6.2129517,11.797821
	c-1.439743-9.8972778,6.0186157-17.989563,5.0072937-27.9889526c-0.2961273-2.9286652-3.00737-6.9125977-4.4165344-10.5254974
	c-4.1517029-10.7533722-4.5961609-17.4013519-4.839035-28.4071808c-0.0926514-4.9257965,5.8141479-23.1723175,9.4656677-19.0219879
	c3.7598877,4.2639008-16.7450409,9.5214844,2.8729248,55.8277435c2.3479767-8.7621765,6.884903-21.218689,9.0869904-31.5567322
	c0.9207153-4.3452759,0.2983398-15.3602448,5.0246582-10.3325806c3.4469299,3.6027679-2.7800903,17.8665009-5.7230225,27.4636078
	c-1.6072083,5.304657-2.8747253,11.0510406-4.6374969,15.9526978c-0.5049591,1.3622894-6.6936493,27.3388977-4.4201965,34.7950897
	c4.0095978,13.047287,18.2796478,22.7325897,25.708725,35.931778c0.0695496-12.1983185-9.2510071-22.0852814-10.4140015-34.9459686
	c-1.0367737-11.5959625-1.6290588-24.3444977,2.951416-35.7799377c0.6180725-1.5065765,3.4091187-7.5110779,4.2120056-4.5276794
	c1.4975586,5.3244934-10.4016113,32.068634,5.5280762,58.1657562c1.3884888-15.5672607,7.3692627-30.4536133,10.8329163-47.9155273
	c0.2081604-1.1277771,5.6264038-31.5309448,10.7012634-27.7419739c5.6903381,4.2110443-2.1266479,14.0228119-1.6006775,20.7515869
	c4.8023682,1.0044861,9.05896-8.103241,12.9809265-4.8757935c2.6732483,2.2324982-10.166687,8.6331482-15.2617798,9.6953888
	c-5.25354,12.5861816-15.7460632,66.6492767-14.809845,72.8724213c2.3598328,7.2427673,7.4462585,13.1856079,11.1758728,20.0003967
	c3.552887,6.4638977,6.1475525,14.6482239,13.5219421,18.9657288c11.177887-44.5339966,6.2400208-86.1335907,31.5874023-133.2109528
	c-11.114563-15.2862396-15.1936951-31.8600769-22.8399963-47.7961731
	c-8.3117981,0.9502411-17.9523926-4.211647-26.5457458-9.3474731c-4.3786621,1.8783035-11.8944092,6.5619507-13.6700439,2.7844162
	c-1.9865417-4.3201141,5.9763794-2.4677582,8.3799438-5.9128189c-4.4151306-3.0918579-15.1471558-6.1376953-13.6535339-11.0807953
	c1.25354-4.061882,8.8837585,3.3064346,13.0313721,5.8287888c8.5473328,5.2624893,20.8984985,12.4272995,28.9201965,12.0887909
	c-0.4698486-10.5910187-6.9616394-23.7312469-14.2030945-33.3333664c-3.2583923-4.297142-13.4510193-21.0163651-5.528656-16.6143265
	c7.1480408,3.9732819,10.2200623,13.4520569,14.4398804,20.6799545c2.5380249,4.3395386,4.5567017,8.8157578,7.5545959,12.1729889
	c0.9649963-3.161911,0.058075-5.9895782,1.2644653-9.1793442c0.1066589-0.3020554-2.2015991-10.148819,0.8000488-10.7213287
	c5.8251343-1.0936279,1.6075134,21.3263626,1.7281494,32.1197586c5.1367188,14.1746063,11.4063416,29.8172302,17.812561,42.7337341
	c-0.2461243-6.477066,0.9941101-13.2015228,1.4512939-19.7791595c-2.4475403-12.0821686-2.2279053-25.6537018-3.434021-38.0977783
	c-0.7076416-7.130661-0.6792908-14.3876877-5.5734253-20.4098892c-4.8616333-5.9575653-9.5925903-11.1630554-14.6074829-19.707058
	c-2.8155212-4.806221-11.6425476-17.6920013-7.6324158-21.2783432c2.6516418-2.3501205,5.2982788,2.1846542,6.4942627,4.5028763
	c4.3795776,8.4195976,5.9123535,17.4568939,12.9161987,24.4117317
	C326.6404724,62.2117271,326.5404968,56.8738098,327.2106323,49.3135223z M311.379303,323.4612427
	c-6.5941162,42.8575745-23.1254883,136.2131653-24.4414978,141.3798523
	c11.804718-5.1098938,20.2991638-17.4933777,28.2636719-31.5476685
	c5.7223206-10.0480042,13.9113464-18.9177246,18.8570862-27.9696045c-2.311615-4.1907959-4.934967-8.3167725-5.466095-12.8421631
	c1.0520935-2.3036804,6.2818909,6.6159363,8.1772156,10.4636536c6.6088257-4.185791,12.5224609-22.6192322,15.811676-20.4917908
	c3.7478943,2.419342-2.8895264,10.4810181-5.7435303,15.2089844c-8.8364563,14.6529236-23.181366,26.9140625-28.9311829,41.7463989
	c3.8256226-0.1504211,7.6559143-3.0679016,11.6297607-5.2630005c6.1758423-3.3885498,12.2366028-6.3231812,18.0952454-13.0240173
	c7.7219543-8.8282776,14.2436218-23.7427368,19.9202576-27.2106323c1.315918-0.7846985,2.2565308,1.3257446,2.6533508,2.3580627
	c0.8057861,2.0894775-2.0141907,3.0638733-3.2549744,4.6799316c-6.1433105,7.9625854-11.4451904,18.4956055-18.4393311,25.0585938
	c14.1801147-7.440918,30.5690308-2.6659546,44.2301941-13.0419312
	c-9.4163208-12.3205566-16.2816162-25.219635-25.5651855-38.4995117
	c-8.6512451-12.4336243-17.1345825-26.4723816-32.397644-32.6636963c1.4241943,3.7462158,2.1577759,9.5291443,3.5816345,14.2761536
	c1.5262756,5.0840149,6.5939026,13.5686951,0.7869263,16.5382996c-2.2815247,1.1846619-2.4790649-4.749115-4.0017395-6.9636841
	c-3.3363037,1.2185364-10.9094849,8.3833008-13.1911926,4.1148987c-2.2412109-4.2277832,8.1007996-5.6913147,10.8168945-7.2919312
	c-0.0531921-10.02948-1.6777039-16.0894775-4.7311401-25.602478
	C322.5382385,332.6039429,317.2836609,327.2304688,311.379303,323.4612427z M276.9465942,476.0440674
	c-10.3647461,12.7881165-32.6281281,18.4717407-44.3153076,34.8316956
	c-1.5623016,2.2163391-4.5827332,5.8937683-5.6317902,8.9033508c-2.0180664,5.7399902,8.3599091,13.645752,1.4182434,16.4219971
	c0,0-0.8945618-9.6914062-4.0424652-11.8579102c-4.6921539,7.0886841-8.4898071,11.99823-13.6976166,18.2211304
	c1.2753906,3.06427,2.9878082,6.0196533,4.3159943,9.9152222c1.5369568,4.6027832,1.334549,10.4885864,7.4365082,11.5394287
	c2.5016937,3.3853149,5.0566406,7.6026001,7.6498566,12.788269c2.837677,5.5928955,3.2802124,12.8604126,10.7813721,15.9860229
	c2.866745,1.2075195,6.1038818-0.0964966,9.3459167-0.4400635c-0.6277618-3.6123047-2.1947632-8.2825317-4.2387238-13.0664062
	c-2.6280365-6.121521-4.2263031-10.6581421-7.4827271-16.901123c-1.1670074-2.2592163-1.3201294-4.8289795-2.1667175-6.8499146
	c-1.6730957-3.9869995-5.485733-7.8453369,0.9150238-10.5581055c3.8408661,1.9279785,3.6884308,4.5939941,4.7371826,7.0192261
	c4.5447998-2.1734009,5.1486053-12.3031616,10.0358124-10.6387939c4.0705719,1.4011841-3.195816,13.1419678-7.0799103,14.8286743
	c4.1274567,8.4280396,4.9201355,23.4716187,11.5716248,32.522583c5.7304382,7.8334961,13.1505737,7.3885498,20.414917,5.1019287
	C276.9490051,588.7481689,276.0013733,492.1145935,276.9465942,476.0440674z M323.8258057,613.9170532
	c11.1735229,11.3864136,45.4371338,66.8084717,54.3317566,78.3591919
	c1.6302795-5.8692017,4.4335327-11.9382935,4.6831055-17.5523682
	C370.9192505,658.1113281,324.5005188,614.1843872,323.8258057,613.9170532z"/>
</svg>
