<?xml version="1.0" encoding="UTF-8"?>
<svg id="flower" xmlns="http://www.w3.org/2000/svg" version="1.1" viewBox="0 0 1000 1026.7710117">
  <!-- Generator: Adobe Illustrator 30.0.0, SVG Export Plug-In . SVG Version: 2.1.1 Build 123)  -->
  <path d="M604.6500724,49.8886818c-1.2525477.022532,1.974727-.0254207,0,0h0Z"/>
  <path d="M670.8987533,588.1629697c1.9631721-.0254207-1.2357931-.0052726,0,0h0Z"/>
  <path d="M416.5282687,530.0899357c-1.2867502.0560411,1.9289696-.0340869,0,0h0Z"/>
  <path d="M994.6326492,440.7962258c-7.8480664-14.7764424-25.5755451-19.6565639-39.2859739-32.0745807-21.2418918-19.1042412-29.7220095-40.9724069-44.2389681-54.36681-19.3804026,5.5064724-49.5027883-6.0483957-60.1043798-28.717971-74.1249321-5.3319144-148.3061547-13.0130129-221.2010748,47.1872723-6.9226425-6.8214164,2.8319772-13.9612481-6.3587649-20.7629425-17.0728954-10.7790379-33.8182103-3.771509-50.5635252,3.8876354,12.773329-40.2588938,59.0888279-61.2893315,80.1786522-98.2868638,7.9832584-14.0489864,13.1517509-44.9472815,13.8282884-59.8929257,1.6361693-36.5688467-12.2371831-90.3602243-33.4288112-120.0823196l-43.9119654-36.4699667c-16.9712126-1.2329044-15.5827756-18.7991927-25.823397-27.8686087-20.6161957-18.3029111-61.7404314-16.7823783-80.4611687-1.5292868-7.2553017,5.9269823-11.4531853,18.0319495-16.0289131,22.6526543-12.7623518,12.847367-33.6147286,20.4862903-48.4986703,35.147107-16.6550717,16.3137406-35.3532745,41.7569824-39.1727362,61.7520196-5.6473273,30.0693178,14.432608,60.084821,17.9984403,90.6278039,3.9546536,32.8279581-2.8101439,59.3007387,7.5713273,89.2486459-9.3767755,1.0012293-18.8500341.5354882-28.2158325,4.9818814-.4679722,7.9722813-6.6348053,16.0121585-5.500695,23.9081776-27.7987017-19.8969052-55.0271707-49.4918112-84.7324257-70.0005466-40.9325426-28.2187212-92.9918455-27.707996-136.1024807-28.8421063-22.799488-.612408-86.9827363-10.7003856-108.5862955,12.3810412-18.528231,19.8090882-24.6384453,46.0871693-41.9932795,67.8143656,42.935579,42.3011382,25.4224431,86.3482966,54.5747977,134.6610109,19.5444817,32.3657634,49.9546913,63.8002044,92.4897865,89.2261139,34.6195404,20.6439274,67.9189371-3.6732926,101.1334056-10.7622042,27.1441185-5.7861002,54.6939255-10.2631084,80.2693579-10.3473844-4.9425948,13.9241938-25.2652969,28.2239209-17.1461559,42.0331438,5.1342927,7.3766278,10.0428007,3.9292329,15.0922781,8.6378417-58.3047091,30.3061081-120.5304524,49.2150721-170.8294814,113.3284134-49.8020594,63.4275599-17.8400301,158.8176182,23.3523885,221.6356588,10.8384663-2.0088138,21.6145363-12.6265821,32.4929773-15.4534806,13.1851496,18.3537525,8.5643578,38.3997155,27.6963307,50.140617,15.4425035,9.4784583,42.845451.8013301,58.0169929-5.500695,12.4122393-5.1511602,28.5769221-5.0385002,41.5761488-9.7101977,28.5936767-10.2629696,42.7044816-38.4106283,66.0678472-56.273299l47.0208026-36.6225768c1.1566423,43.7369091,8.5477137,139.0420392,82.9489318,138.5792667,25.3103609,31.3304472,52.1719628,60.5729297,81.3468494,49.204095,18.1729188-7.0525138,48.8597599-41.2260363,64.5616702-57.7910952,18.3479751-19.363648,11.6224641-35.0540034,16.9654351-50.9477246,10.9285943-32.8083148,34.6027858-61.5654929,31.1328589-92.9519812-3.859326-34.4618165-16.9827674-84.4724412-37.8861016-115.5712133-25.8066425-38.3887384-66.181085-70.9486235-98.8766198-112.9535307,4.4571704-4.686004,21.705122-7.7890638,31.1102069-11.0186495,7.9439718-6.5932078-.0167546-12.90621,7.1316646-19.4849741,68.0425742,80.8840769,146.8560187,48.1825723,218.3407882,43.7906392,2.4428257-1.9833931,13.867575-.7620436,17.8228063-3.289671,19.0477498-12.2852086,33.9366477-32.9319519,54.1634444-53.1333279,31.8434833-31.7337867,75.1574843-41.0740897,79.141025-75.9276162.9417218-8.3166163-.3275805-25.2202329-5.0777868-34.1908548ZM885.9498705,362.2791636c-5.365503,6.158167-10.7818475,11.1995559-16.1924145,13.7046513-13.9525033-4.8692214-27.0308808-27.1805163-24.5991588-41.3057648,10.5900366,9.7973727,26.2861695,25.1890348,40.7915732,27.6011135ZM592.2373753,357.077162c.5026368,5.3458597-1.3202637,15.6568463,4.773196,16.3027634,3.5941417-5.56598-4.885976-21.5584952,5.6480195-17.9926629-.857949,7.094689-2.1047192,20.1534232,4.8686437,22.2777858,2.1330287-7.9722813-3.8477711-15.8486571,2.5393028-23.8689699,7.9097645,9.0810497,5.4220014,10.1585411,12.2260855,17.6455179-11.3572799,24.6245795-54.5412885,62.4401964-73.2728853,69.8486001-4.2597021,3.5571662,4.7842931,6.8802698-1.2583251,10.5079971-8.0057904.11266-3.9211445-7.5407069-6.1951425-11.8512505,12.1476329-9.684135,15.4650355-21.0587472,23.3806979-27.2481123,6.9849178-5.4359877,15.205051-3.0631955,20.6439274-9.3062908,15.8319026-17.9164008-19.8141685-30.5400942,6.6464802-46.3153779ZM572.9475584,361.8810984c7.5096285,1.3201437,5.6364647,13.1378851,4.8010477,19.3041404-15.8030154,12.0742595-37.4458611,47.0855099-58.5190519,57.6703468,2.8043665-9.5015681,1.1965066-18.8812323,6.9398538-28.4220869,5.4504313,2.0735211-1.0156729,11.6282415,6.0767051,8.7932546,2.9564316-7.7463836-2.9343588-21.8658547,7.1986828-13.5128405,3.7017208-4.7502063-5.2412882-13.1032205,4.248725-13.4643101,5.0945414-2.2624432.1525243,12.1105797,7.6620331,10.2653448,4.1805513-6.5360112-4.6658558-12.8045271,1.1115783-19.3827135,2.4484766-2.5022067,5.0604545,3.224386,7.5095088,1.3848509,2.52185-5.5463367-5.4619862-10.8240227,4.1354873-16.4859081,4.8917534,3.9464868,1.7378522,13.1968149,9.1174882,8.7424132-1.2526673-4.93104-5.3546454-9.7973727-.2820583-14.8924918ZM532.9682924,458.0216455c-3.2162975-2.4265223-1.6818111-4.9651268-4.6098146-7.3939601,2.9054716-3.8679921,5.873458-5.3175503,8.8920488-3.1458128-2.1497832,3.5294345-.4292634,6.9542974-4.2822341,10.539773ZM485.6256867,561.6457029c16.407335,17.1289365,6.9173218,36.9859774,14.4834495,57.8898893-13.3152523,5.2869299-7.532501,14.9455724-5.5688687,23.9590191-15.9103585,19.3832913-20.1193364-6.4967246-16.6609644-16.1139133,3.3514895-6.1777383,7.0075671,2.7478196,10.3589393-1.6754559-12.570541-26.1110413-7.1206875-52.5468463-5.8340529-78.8757689,3.4699269-.0196433,7.0184269,3.4393065,10.5507501,7.250102-3.8084845,3.5970304-7.3685394,1.9805044-7.3292529,7.5661277ZM505.4798389,504.6865582c1.9579724-5.4671859,23.2397285-9.157233,25.2878289-1.9406401-4.863444-1.7465934-4.7565615,8.8718277-11.7299244,12.1129683-4.6543009-1.102987-13.2927203-3.201854-13.5579045-10.1723282ZM498.5914043,536.0846013c1.9123307-.0369756-1.2525477.0560411,0,0h0ZM501.7338684,544.9962934c-7.6955424-4.629532,4.051019-4.8466894,0,0,1.3200259,3.0522184-1.9465353,1.6783446,0,0ZM480.7512656,539.4019298c1.252665-7.8284234-2.7026837-18.895024,7.0750458-22.486277.7556884,7.4702222-2.3756809,14.9346671,4.840912,22.2691196-3.8708808,5.4417651-7.9104627.5840986-11.9159578.2171574ZM490.5850361,504.9656082c-2.0255684-1.8106478-3.9777634-.0872393-5.9975543-2.8968054,1.2300157-6.0062205,9.4450668.5274797,5.9975543,2.8968054ZM497.1071815,452.672897c3.3347349,4.93104,6.9508309,9.8227934.2368748,14.8780482-5.2296158-4.8553556-1.3594302-9.9077217-.2368748-14.8780482ZM501.9931575,477.9093068c.4571128-3.0210203,1.9354404-5.9831107,5.8282755-9.0047087,4.0002953,1.4674683,7.9948133,2.7702796,12.0060857,5.7242817-5.8785392,4.7704273-11.7917429,4.6433238-17.8343612,3.2804271ZM513.3002917,441.9615343c.8404986,1.4328036,2.9446401,2.9476469,1.573655,4.4232035-.8856806-1.4755567-2.9678679-2.888717-1.573655-4.4232035ZM518.107117,461.2344766c6.8888942-10.3531618,7.193365,5.7126508,0,0h0ZM633.6724346,89.5715654c13.18526,14.4580287,17.2814608,36.6959502,21.8856196,56.2652749,6.8548039,29.4741576,10.200516,73.2052893-2.7253373,99.8721917-11.2671519,23.2709267-34.5795554,38.0132052-52.6058481,57.5940847-24.5373402,26.6414817-34.5970084,64.3554158-65.6281845,80.1422544,15.1259001-26.8847117,33.1751819-58.115787,49.1867627-81.3214287,7.2784114-10.4941312,16.1196188-18.6356913,21.8745209-28.7294464,27.4936532-48.0786508,22.477685-96.4588837,25.7841105-142.032439.9197675-12.9258532-2.9453359-40.4755476,2.2283563-41.7904916ZM398.7215235,202.5874196c-11.2272876-46.7192206-26.2803921-78.4639098,24.5483173-128.5507967,11.7697887-11.6312164,29.3616142-17.8262728,44.1546176-30.6475545,8.3225109-7.2668566,13.7156285-19.9871203,23.3523885-27.2567784,17.0162765-12.795861,52.5555845-13.162728,70.0854749,3.2272747,4.7276743,4.3896944,5.9241809,13.4422689,10.798602,19.2081482,10.8494434,12.8866535,27.9899348,19.9725901,36.36317,35.1130201,3.9887405-1.2155721,7.9890358,1.2612139,11.9719989,2.7252156,9.7159109,56.4825064,1.8961539,113.2556177-8.868939,170.0732153-2.8211211,6.7086751-6.0374186-3.591253-8.8695168,3.0834166,2.319062,9.4449492-1.1624197,18.9262963-9.9412308,28.5601676-1.997139-1.9718382-4.0170499-3.9182558-6.0709277-5.8762282-4.1863287,6.5360112,7.9439718,12.7704403-4.0962008,19.4536956-5.6867283,1.8869904-1.1676194-8.796063-6.2003422-11.8141945-2.0816095,7.4979539.2934937,14.8948028,1.8730441,22.3084062-34.5063027,38.4418908-47.161772,92.1396739-78.2662038,120.6403339-3.0690907-22.8272197,14.4041809-45.9710429,4.7396892-68.6295615-4.0117325-1.2017063-7.9948133-2.2595545-11.8992032,3.1735445-7.0640686,7.9948133,4.0339221,13.3805373,6.3078025,17.7892972-5.9634674,24.7319621-9.3998852,53.2806524-13.496086,80.6755115-.981586,6.7959957,2.7818345,21.730085-8.5586908,21.0027061,7.8480664-43.83578.981586-88.9973276,5.1062135-132.6527748.8855634-9.6702691,9.4558091-18.9430508.9982234-28.3596906-4.073091-3.5149909-8.0398772-3.4699269-11.9610217.200477-.1009881,2.4905721-1.641369,5.0240567-4.3382752,7.5320408,2.6119779,4.6236805,5.0096131,13.162728,10.7026966,13.230324-5.0383833,45.3112599-2.5166503,90.4642181-8.0231227,135.7390801,1.3201437,3.0551071-1.9238855,1.6893217,0,0-4.0453593-4.406449-3.6334283-8.8891601-7.6897647-13.2615222,8.4234989-35.000851,10.1665507-63.659235-16.6551869-98.049989-14.1056053-18.046393-27.2850879-37.6636704-35.2514763-54.4991133-15.5385243-32.715379-1.5178473-65.49877-10.8160497-104.1376713ZM478.3588302,487.28666c7.5037314-4.324485-4.0286048,7.7041331,0,0h0ZM463.8534265,511.3895372c-21.79537,23.4228732-36.7075051,62.0167105-61.2332904,75.6254564,22.4834624-27.363661,37.8525925-55.2524907,61.2332904-75.6254564ZM448.0388562,376.0738647c2.5386045,7.2923555-10.2179699,29.4257054,3.4641495,26.7316879-.4968593-.4905818-1.032311-.9619428-1.5349478-1.4524469.3892826-2.0117025.8295231-3.9690972,2.871846-5.977911-1.2583251-3.111726,1.9354404-1.7263751,0,0,1.2583251,2.4230558,1.2693023,4.9339287-1.3368982,7.430358-4.5196867,17.8771142,5.6815287,19.6767849,2.1041415,34.2272526-11.8425843-24.0855449-36.977889-55.9210179-17.7442332-75.6705204,2.5108728,9.9019442.4853045,19.8570409,3.5151071,29.7416528,7.5544566-4.2089387.3835055-15.7695846,8.6608352-15.030073ZM393.5310768,326.3562341c-.8462791,3.5207683-4.4740449,7.049625,1.6303919,10.451956,7.137442-4.1666854.434463-7.9832584,5.8057435-12.0401726,2.6628194,6.2205633-.8799032,12.4151281,9.1231461,11.7328131,6.5897413-3.0863053-3.814262-5.9045376,2.8096817-8.9821767,5.7155,3.9043899,16.2887821,19.2024576,13.9304335,28.0494424-5.5804236-6.5198343-11.1152054-9.6535146-16.4691535-4.1470422-11.6622133,17.8511158,10.6067912,26.2890582,17.1231591,42.890515,8.1357826,20.7230782,18.5906273,47.7996007,22.0322448,65.2046986-11.0528091-12.9057087-26.3144789-27.9783799-25.958589-36.8057215-8.7395245-.1577239-11.8540237-7.207349-18.1844737-14.6181411.8747035-6.4348286,9.3259341-13.0869662,4.1863287-19.4282778.1860334,3.9633198-6.1668331,11.6109092-10.3473844,7.6249797,5.2412882-14.2713399-.0733734-19.4508095-3.5716097-32.7094429-3.4976586,1.8389573-1.6020825,10.5987028-7.2834962,7.5742161,2.6967913-10.4571557,7.3909565-20.9657305,3.8869428-31.3356469-8.0340998,5.0945414.3160256,9.9100327-5.6925058,14.9849307-3.4865667-8.4373647,1.2808571-24.8106128,6.9791403-28.4469298ZM440.8563502,474.5468401c-3.1429241-1.9660608-13.7890019-4.4572904-12.0852366-8.7395245,3.1597947,1.4864578,13.7382767,1.997259,12.0852366,8.7395245ZM387.4942359,323.5154698c-1.6194148,4.996325-4.81838,10.0007384-5.6930835,14.9935177-6.2454062-3.9828838-1.2017063-15.7520948,5.6930835-14.9935177ZM85.0137868,491.3401077c-16.2380562-16.7482036-31.7926419-46.8908104-39.9625114-67.867518-13.3944031-34.1457908-6.5163679-71.2502056-34.4837707-94.7296976,86.5881376,21.0731908,45.7850095,116.6712367,92.5007636,171.2327463-6.9958949,3.1001711-14.590332-5.0471664-18.0544815-8.6355307ZM209.5105579,538.3129576c-26.3196786,9.614228-64.0197469,14.8555162-83.8796765-25.3577359,8.5361588,2.5160725,24.9261615,8.8013431,28.3960884,3.9604311-15.7527517-6.6914241-35.2741237-10.708474-46.6087638-21.4793444,13.7721395-7.3091073,36.0019726,15.0814139,44.8934436,8.1190281-18.4096852-9.8511028-43.5335434-11.2700406-57.1762687-28.7999311,3.4698194-6.59263,14.8276771,6.0374186,13.3717637-1.7320747-5.5405593-4.6150143-10.9904128-3.1874863-16.5535041-10.1105096,2.3918577-4.1944171,4.9703265.6262739,7.3962711-1.6333567-36.3793468-34.9805539,1.5067548-91.0083762-54.3494777-125.6984013-8.5760231-2.1440058-25.0220669-8.9313353-28.6329632-15.8567455,10.3982258-.3160256,20.9033342,2.9955996,31.3582851,3.8928351-12.1194297-11.8368069-23.9620141-6.9311876-35.9114809-8.3108389,5.9241809-20.5087354,18.8783435-41.0539496,39.1218948-61.8000567,33.4571207-12.203674,65.6108522-8.502072,104.185624-7.8226457,42.7946096.7874643,87.9140587,1.0439823,128.671545,30.4950302,8.7454144,6.2829595,14.4666949,15.067548,22.7885109,21.9392281,24.8250564,20.6866804,67.8623183,40.2755691,74.3220673,74.6837347-4.355493,4.6716332-8.9706219-1.6563903-13.29792,4.6745219,1.3033891,3.9465652-2.9002719,8.0283224.2085654,11.913069,27.3133973,14.4487849,33.0174579,44.318119,63.7603401,67.4388323-34.9690752-.9786973-60.0084744-43.1528105-85.916222-56.5893889-17.9250669,21.7699493,26.3255705,19.6230548,30.5233396,41.161329-23.4032299-3.814262-47.0883986-22.0715314-70.3956103-21.0478472-6.0820176,8.7424904,1.4328037,18.7287852,10.8158215,22.1368935,6.0986594,2.2283563,11.8028334-6.3615326,17.7719649-6.291048,23.5667313.1692021,50.6374763,22.477685,69.1090885,31.5505674-16.9088163-1.2867105-33.9308703-8.4067443-50.7894229-8.0231988-6.6238282-6.8294287-13.1737052-14.1586815-19.5098171-7.125811-3.5375229,4.0424706-3.4814818,8.0733102.1975882,11.9159578,24.9377164,3.5485,57.7009672,5.4642971,77.7752396,16.5280834-33.908916-6.3782872-67.7155714-9.0469598-101.5453366-13.1032205-4.2539247-2.8719625-.6430284-5.9213683-6.1327463-8.8383186-11.1653566-2.5138378-20.3677661,11.8818709-11.5265587,21.0754261,49.5651846-5.3203634,99.4348399,7.1375177,149.2761859,15.2253476,3.0470187-1.3230324,1.7153202,1.9464175,0,0-38.596726,6.4089076-77.5944059-6.4008192-116.2477508-.9059017-9.0555502-5.2499543-18.1278549-13.7352717-26.9465302-5.4920288,1.8279801,5.4498536-3.8818579,11.0013899,1.8054481,16.3784478,23.8093835-1.9042423,47.6014347-6.2199855,71.4899691-1.2584002-44.5607712,17.4485036-110.3917436,15.2675223-161.8189952,34.1880411ZM439.9481375,505.8460892c-3.4306403,4.3642737-6.860703,5.977911-10.4490672,1.6812333,3.4416175-4.4006715,6.8491481-5.9888882,10.4490672-1.6812333ZM375.7868435,502.5396637c7.5435957-4.2822341-4.0112725,7.6678105,0,0h0ZM337.5454297,530.0390943c3.413308-2.7223269,7.0525138,6.0963484,10.4658218,1.3143662,18.7651058-5.9605787,37.4175517-17.4478509,56.2623861-18.9118527,6.8040841-9.9215875,13.7947793-8.1022735,20.8640476-.3807329-28.4810167,18.640891-57.0972254,28.2464529-85.8601809,31.3385356-.3218031,5.4700746-1.5968828,10.954015,1.7655839,16.3790256,24.2606011-4.4520907,48.2115318-27.5473834,72.528174-26.5854406-24.497361,18.8384054-49.2825538,22.5793678-73.848204,37.045485-25.0169809-2.3358166-19.707519-24.6390231-2.1776286-40.1993862ZM416.5282687,530.0899357c1.9289696-.0340869-1.2867502.0560411,0,0h0ZM208.3487159,888.5080793c-13.6312779,9.247361-16.5142175-14.8838256-9.3490438-23.6851687,10.6351006,2.4877631,15.0757469,16.1357956,9.3490438,23.6851687ZM434.1366166,848.7032918c-5.4047896,2.0255684-2.7760571-8.6153097-9.0214633-5.7884112-.022532,16.3276064-14.6752603,16.6384324-26.3485658,27.2845101-5.7491246-1.6361693,1.0098955-10.5675046-4.6258764-7.3286751-12.0010011,5.5630913-34.6312103,16.1248185-33.7055512,31.8544605,11.2329509-11.3740344,22.4325068-24.4073479,33.8799147-22.93468-39.7250589,55.9180511-80.5622738,50.4508652-120.9084069,70.7001939-17.8060518-1.4270262-42.5744894-2.9054716-48.2167315-28.9772983,11.8818709-6.8549255-1.4784454-32.1935958-3.6731819-38.6423677-1.4161598,2.5276274.360979,4.9709043-1.3710958,7.4193808,1.2981894,3.1198144-1.9238855,1.7210976,0,0-3.3283798-7.34023-3.9997176-14.7879861-7.8590436-22.1674368-7.9214398-.7672432-15.9780716-6.3078025-23.7134781,6.392153-1.6927882,11.611487,7.6054142,28.7519784-8.2883069,35.8894204-48.6679491-84.7267154-72.2005935-176.9004091,20.813784-252.2156173,70.4407871-56.9817495,163.9572236-67.6138886,236.101776-129.3631039-11.9442672,36.0806535-46.6429584,69.8283791-78.6441657,99.736422,3.7970439,6.8976785,10.4207578,21.840434,19.6114999,16.0520228,5.6422421-12.5225883-.1802559-24.8083019,15.7469743-37.5481217,5.9299583-1.997259,12.113546,10.3335186,17.9527986,2.6293102,6.9849178-26.3901633,37.2996921-61.2240465,59.5965433-82.9743525-24.2941102,35.6687224-41.0792894,71.2502056-59.2129217,106.8288001-13.664787,5.1430718-21.5244084,17.7754314-8.3611026,29.9594621,2.4426991-1.4616908,4.9477945.2201202,7.407826-1.6251922,12.3561982-47.8839513,37.2089863-79.3351468,59.0211109-115.7884448-1.3484531,33.7367485-13.6422551,65.5380565-16.0231356,104.6143096-1.6084376,26.4641145,4.2880116,54.8602029,5.9467129,81.863352,2.6287325,43.9512519,3.0972824,83.682666-26.1059136,124.1299041ZM463.7067964,754.2953972c.169162-34.2919599,4.0001786-68.6237841,8.6151929-102.9499021,7.1484192,8.5194756,14.0258767,5.8110145,20.8640476-.4176372-1.1624197,33.2993967-13.3886257,74.7513306-29.4792405,103.3675393ZM543.7501399,977.8948059c-9.2080744-14.7428562-31.0259764-13.0674004-45.0576305-20.0858273,19.0418449-17.6876144,52.6630447-1.3426757,45.0576305,20.0858273ZM704.5927488,890.0593203c-4.773316,10.3930261-10.0370136,23.7308104-14.4661172,24.114432-.0508414-17.411453,4.6717558-34.8622582,21.4169481-52.5781164,5.2643979,7.0634909-2.7136608,19.3012517-6.9508309,28.4636844ZM618.0105093,630.836831c65.5772224,67.230267,109.466078,138.4718064,105.0544294,209.7249007-16.0970868,19.4711083-34.6986912,31.589854-39.2010456,55.8336354-3.4075306,18.4722551,8.25422,38.5973689,2.40919,52.1096317-3.7068017,8.542514-60.9224645,68.3025587-77.6908891,71.4171734-12.5872956,2.3583486-38.4216698-6.7312884-45.0570528-20.0575178-7.6620331-15.3518607-14.1274406-60.1101572-42.8396736-61.819764-3.9835408-4.39483,5.0211679-9.0271767-1.7210976-13.3602522-4.3330755,6.5279227-1.4044942,12.9142984-4.1129553,19.4422211-7.6504782-5.4388764-4.8801986-21.5579175-15.2449153-17.5749544-1.8955761,7.7013196,13.6428328,11.8425843,7.8370893,22.1680145-9.5009903,4.5075541-16.2432559-12.1083463-22.3256211-1.0607369-72.0597414-121.4503302,30.3315296-240.897624,24.7232563-365.5694514,15.092391,29.0310284,33.5306129,58.0169929,26.9124434,87.4512862,6.4886362,2.3467937,13.0442906,6.9282989,19.3862991,1.1624197,5.5290045-12.6837787-4.7393483-17.5298904-10.9287134-28.1454193-12.1077686-20.7738481-13.6196046-48.5442404-20.6103-69.6874114,15.4701169,19.1066255,23.7018049,38.3489474,32.3061375,57.5600711,5.455631-.5280575,11.0303965,6.0847936,16.3564936-1.7661616,4.8576666-12.7398199-9.3097573-16.86433-19.8772619-27.9731803-22.4834624-23.7221443-42.3994331-59.4076213-49.1532535-82.5710876,9.3773532,2.6743742,15.6002275,8.1750692,15.2166058,17.6113523,31.54479,28.1597914,66.5531517,62.2714953,98.5608348,95.1052309ZM620.0636887,577.13847c-10.911262,2.7760571-21.6705774,11.1966672-32.6841,6.5590479-.2819388-5.433026,6.6070736-2.7112768,2.7818345-9.0271677-21.1523416,3.7882635-31.499726-22.252365-55.8221457-39.1814023,25.8343742-5.8756504,45.1812676,34.8737475,69.0016283,25.5841377-8.688563-31.31593-52.1211214-17.673675-75.2816991-43.3757459,6.9514087-1.1485539,13.862953-2.6489535,20.8022291-3.3855764,17.8743449,7.8001137,83.5191646,22.6671848,71.2022529,62.8267067ZM670.8987533,588.1629697c-1.2357931-.0052726,1.9631721-.0254207,0,0h0ZM675.4346168,592.5526641c-3.0353418,1.2553637-1.6754559-1.9042423,0,0,6.2627385-2.8916057,6.4545493,9.3969965,0,0ZM682.9666576,596.8632077c1.9354404-.0311981-1.2467703.0595076,0,0h0ZM700.998607,605.4952719c-2.2116018-1.272191-11.6109092.5557892-9.0439953-5.7970773,2.2682206,2.2035134,11.6623284.3501125,9.0439953,5.7970773ZM717.473538,609.6735122c-1.4950768,1.5148432-4.4965769-.6233851-3.0354639-2.9366697,44.9559477-12.7427086,89.9055402-29.0396946,135.4877617-6.8693691-44.0754667,8.1727582-88.2243069,11.7865432-132.4522979,9.8060388ZM914.5719848,548.0485118c-18.2013565,19.1937914-30.856248,41.1075989-49.8188152,48.5379568-16.9037435-11.0499204-34.4954525-7.5430179-46.5974436-24.4408571-4.3278759,3.5149909,4.6941652,6.8664072-1.3205957,10.3982258-29.389355-5.297907-58.5417096,5.4475426-87.7165961,12.0003083-15.5603632-8.5078494-31.0363758-14.5562451-46.5181659-18.5397859,10.77607,12.9795105,35.138354,9.3097573,36.1598043,23.2339511-59.7889319,3.1029873-108.8121932-84.9375246-171.670098-101.2628201,20.6497048-15.735495,68.4261958,6.9086557,69.6053701-23.6065956-31.9954298,2.01748-78.5141734,21.5134312-110.0023446,13.8825963,33.5362715-11.8737825,67.3203949-13.887796,100.9358173-22.6447288,12.7340424,8.4039316,41.1023992-.9786213,24.954471-19.8367439-4.0170499-1.202284-7.9890358-1.1173557-11.8986255.2143428-32.8816882,22.5168956-66.2827678,16.9429031-99.3678217,27.1325636,65.5039697-24.3853937,112.75067-115.506506,177.8762177-135.8096441,35.003162-7.8226459,67.8964051-8.0085999,104.1971788-7.8284234,10.4658218.0399437,23.938798-2.1156169,32.8591562,5.3771373.7221793,7.182506-9.5518317.479527-8.7678339,9.0890593,5.6705515,5.4365655,7.4811994,18.6500563,13.7381605,19.0897976-2.1324509-6.8861237-8.6436191-13.7185172-6.3355342-20.7201895,15.2668695,23.8827569,19.7074053,39.5985331,36.8762061,61.924194.5130361-7.4505014-7.0073229-14.7566445-10.8159343-22.1673592,6.3245571-7.97517,12.9200758,1.2577474,19.3520931-1.8337576-.0508414-7.8567326,12.5763185-13.6422551,17.5408676-18.1729188,21.7162192-1.769129,35.5901493,39.0566098,60.6070166,58.5161632,11.0695637,8.5419363,24.7851921,9.2953137,31.7816648,24.7343507,21.8964751,48.63444-42.5184483,67.7583245-75.6542154,102.733177Z"/>
  <path d="M205.3074747,885.6078073c5.9409354-3.1313693-.8071075-5.95769-3.1313693-8.9088033-2.2231566,3.0296864-.7447113,5.9917769,3.1313693,8.9088033Z"/>
  <path d="M222.6172449,852.5233312c10.3982258,14.2009329,10.798602,28.5595898,17.1347139,42.8847376,6.1044368-16.1756599-21.1858507-39.2063114-.8631486-50.6542309,4.6317689,8.8354299,11.1995559,17.6881921,3.4473949,26.7656965,16.5650589-.6880924.1577239-24.2208032.8690373-34.3370905-7.3461186,5.596667-17.6033751,8.6321309-20.5879975,15.3408873Z"/>
  <path d="M218.0865811,851.0674178c-.9480769,6.9681632-.1016828,13.9074393,3.3849986,20.8022291.9821638-6.9681632,2.0931644-13.9357487-3.3849986-20.8022291Z"/>
  <path d="M211.9821442,842.2660747c.5529004,3.9095896,2.1041415,5.4388764,6.0761274,5.8057435,21.6711552-21.1523416,38.2362141-37.2771601,58.4514559-63.6476801-18.2803791,16.254233-47.3085188,50.4959292-64.5275833,57.8419366Z"/>
  <path d="M277.8749352,777.009957c8.6495088-13.5238177-4.1128433,6.4037079,0,0h0Z"/>
  <path d="M286.6653012,767.8925883c1.9238855-.0451324-1.2693023.0115549,0,0h0Z"/>
  <path d="M295.3146977,752.8227293c-4.0228273,7.7013196,7.5430179-4.2822341,0,0h0Z"/>
  <path d="M486.3420886,934.1855643c-3.8535485,2.5502236-.6089416,4.987723,1.6136373,7.4586676,1.1173557-2.5275634,1.0497598-4.9870171-1.6136373-7.4586676Z"/>
  <path d="M301.1429732,743.7728876c-1.2976117.045133,1.9348627.0057774,0,0h0Z"/>
  <path d="M550.8478366,958.384411c16.7059094-9.3883304,10.1329226-43.8270371,7.819638-62.7221352-4.1921062,20.9431985.2877162,41.7171181-7.819638,62.7221352Z"/>
  <path d="M518.6598992,906.8335224c-3.5825869,5.980222-3.4814818,11.9159578.3044708,17.8511158-.2536294-5.9524903,5.4504313-12.023418-.3044708-17.8511158Z"/>
  <path d="M537.0078743,933.3167024c13.0500681-2.8713847,11.2671519-29.5301987,11.1654691-41.9372384-6.1443011,14.0322319-3.9552314,27.8772103-11.1654691,41.9372384Z"/>
  <path d="M345.4160282,719.1397109c-7.5551505,4.9368174,4.2146382,4.7224746,0,0h0Z"/>
  <path d="M441.0314064,817.2775169c2.8829396-6.5169456,11.1371596-13.1124644,4.095623-19.453776-.8007524,6.4880585-9.2641155,13.1060419-4.095623,19.453776Z"/>
  <path d="M345.4160282,719.1397109c14.3303475-11.1371596,1.551241-10.9170394,0,0h0Z"/>
  <path d="M114.5272309,475.9264914c-4.0338045,7.6701215,7.5378182-4.3192097,0,0h0Z"/>
  <path d="M164.5211011,521.1949982c-4.9252625-7.4615561-4.7051423,4.2851228,0,0h0Z"/>
  <path d="M359.8821453,695.0657209c-5.5804236,3.5652546-1.6760336,6.9340764-7.295166,10.5334178,4.998636,2.1382283,8.9030259-7.932417,7.295166-10.5334178Z"/>
  <path d="M164.5211011,521.1949982c3.0522184,3.7691235,6.0541732,5.1430718,8.9821767,2.8268985-2.527518-3.0863053-4.9934363-1.4923112-7.5545728-4.316321-.456995.5107252-.9763864,1.0070068-1.427604,1.4894225Z"/>
  <path d="M548.122502,888.3723095c-.8463941,1.0098955-1.5235094,1.9920593.0508414,3.0071544.7839978-1.0208726,1.5061771-2.0249906-.0508414-3.0071544Z"/>
  <path d="M548.054906,885.399242c-.8295206,1.0208726-1.4726679,2.0423229.067596,2.9730676.8123072-.9758086,1.4784454-1.997259-.067596-2.9730676Z"/>
  <path d="M173.5032779,524.0218967c1.5235094.8013301,3.0354639,2.871888,4.4855998,1.4131604-1.5125322-.7533774-3.0129319-2.8211211-4.4855998-1.4131604Z"/>
  <path d="M548.0208192,882.4764381c-.8573712.9590541-1.5344865,1.974727.0340869,2.9228039.7897752-1.0214503,1.4894225-1.9862818-.0340869-2.9228039Z"/>
  <path d="M177.9888777,525.4350571c1.004118.7816868,2.0197909,1.4980887,3.001377-.0254207-.9931409-.8180847-2.0088138-1.5287091-3.001377.0254207Z"/>
  <path d="M548.0208192,882.4764381c1.907131-1.6979879-1.3085888-3.0972824,0,0h0Z"/>
  <path d="M560.0777463,891.1316121c-1.9238855,1.6922104,1.3033891,3.1198144,0,0h0Z"/>
  <path d="M182.4461681,523.886127c-.4853045.5078365-.9648315.9850525-1.4559134,1.5235094,3.5433003,3.8425714,6.9623858,2.1156964,10.4941312,4.2741457.5078365-.499748.9590541-1.0526485,1.4559134-1.5177319-3.5375229-3.8818579-6.9849178-2.1613381-10.4941312-4.2799232Z"/>
  <path d="M559.9200224,882.2170313c-3.480904,3.0579959-3.4306403,5.997489.1577239,8.9145808,1.26988-2.9678679,1.2132612-5.9467129-.1577239-8.9145808Z"/>
  <path d="M359.8821453,695.0657209c6.2679382-4.1302876,3.3566892-8.0346776,8.7169925-12.0967914-.5361459-.4627725-1.0272278-.9931409-1.5292868-1.450136-6.2627385,4.0962008-3.3797989,8.0231227-8.7112151,12.0967914.4853045.4512176,1.0214503.9474992,1.5235094,1.450136Z"/>
  <path d="M192.9402993,528.1660502c4.908508,7.5233746,4.6883877-4.2568134,0,0h0Z"/>
  <path d="M559.9200224,882.2170313c1.9406401-1.6812333-1.2918343-3.0805278,0,0h0Z"/>
  <path d="M101.5730683,419.4832715c-.8013301,1.0185616-1.4836451,2.0342345.1016828,3.0187093-4.5139092,2.1607603-8.9821767-1.3513418-13.4279123-1.2750797-1.4108494,8.7533904,23.7134781,8.2259106,13.3262294-1.7436296Z"/>
  <path d="M370.3196577,696.3685323c6.4996133,6.5279227,3.9101674-7.723922,10.2405019-10.6408781-6.8098615-2.1209665-5.1511602,7.8937082-10.2405019,10.6408781Z"/>
  <path d="M558.2214567,868.8284056c1.5067548,8.6043326,1.2357931-8.6210871,0,0h0Z"/>
  <path d="M374.1165874,659.03526c-.0843505,7.4419839-6.4314396,15.0248661-7.0467363,22.4835335,5.8623623-7.5880819,12.6099423-15.1432324,7.0467363-22.4835335Z"/>
  <path d="M558.0186688,859.8803157c-1.8955761,1.7210976,1.3316986,3.0805278,0,0h0Z"/>
  <path d="M99.9935178,412.0725569c-1.2074837,2.5021294-1.0497598,5.0159683,1.5795505,7.4107147,1.2583251-2.4594537,1.0607369-4.9818814-1.5795505-7.4107147Z"/>
  <path d="M558.0186688,859.8803157c.8013301-.9931409,1.5177319-2.0031025-.045064-2.9453359-.8013301.9873635-1.5009774,2.0030364.045064,2.9453359Z"/>
  <path d="M557.9736048,856.9349798c1.907131-1.7205199-1.3033891-3.046441,0,0h0Z"/>
  <path d="M102.7412655,400.148433c-8.4858952-2.268143-9.3097573-8.5141269-12.1700575-14.705803-4.2765641,9.6389932,5.8957641,15.9104757,4.8523595,22.2379215,5.6925058,3.0718617,1.6922104-5.7011719,7.317698-7.5321184Z"/>
  <path d="M554.6504247,836.1217736c3.7293337,1.4726679,2.8211211-2.5502261,4.3667039-4.5364412-3.785494-1.5229316-2.8713848,2.5449597-4.3667039,4.5364412Z"/>
  <path d="M58.4058142,336.8503654c-3.6727148-2.5698027-14.9288896-9.3600209-13.4053803-1.2693023.456995-.5078365.9763864-1.0156729,1.4218265-1.4951999,3.1764332,1.9718382,13.9022396,8.7112151,11.9835537,2.7645022Z"/>
  <path d="M84.3258016,370.6546314c-4.0570214,4.8438791,7.6897649,4.5925607,0,0h0Z"/>
  <path d="M76.578733,354.3519464c-1.9914815,5.5290044,2.4600314,10.9228168,7.7470685,16.302685-.2542071-5.4925282-1.2642098-10.9198497-7.7470685-16.302685Z"/>
  <path d="M63.0156288,344.2102386c-4.0511368,7.6990086,7.5037314-4.3244094,0,0h0Z"/>
  <path d="M675.5755862,932.3125843c2.5334048-3.5375229-1.2577474-6.9225215,1.3091666-10.4207578-5.3146616-2.1948472-5.2921296,7.8590436-1.3091666,10.4207578Z"/>
  <path d="M64.2005806,327.7948152c-5.5521141-3.0660843-11.0360545-6.0143089-16.4748247-4.1776626,7.7803642,5.6168214,7.7578322,9.7407538,16.4748247,4.1776626Z"/>
  <path d="M68.6747323,329.2085533c-2.6460649,7.1651737,9.4783515-2.2878639,0,0h0Z"/>
  <path d="M214.1538817,463.7141513c1.9412178-.067596-1.2975012.0086662,0,0h0Z"/>
  <path d="M221.6408585,465.0626044c-2.5894459,5.455631,6.8046618,3.5970304,9.0162636,5.7577908.5130361-.4714386,1.0156729-.9677202,1.4951999-1.5148432-3.5658323-3.814338-7.0131165-2.1331046-10.5114635-4.2429476Z"/>
  <path d="M232.152322,469.3055519c13.4671988,5.1060204,26.9910165,8.8747165,40.2779593,3.7859525-13.4839534-6.1385997-26.8616019-2.0342345-40.2779593-3.7859525Z"/>
  <path d="M46.7609243,269.9840767c.7388276,8.0456547,14.0032384,9.661603,19.493063,7.0779345-6.4880586-2.7731684-13.0276428-7.5182559-19.493063-7.0779345Z"/>
  <path d="M673.5557952,819.0656328c2.386658,11.8992032,2.5501594,23.8041838,9.5524095,35.6352133,3.5317454-11.9778428-3.267139-23.7978287-9.5524095-35.6352133Z"/>
  <path d="M261.4965991,444.9461567c1.0097838-1.0047723,1.9746153-1.9891705,2.9729559-3.0296864-1.0382049-.9596318-2.0590775-1.9493063-3.068973-2.9060493-1.0156729,1.0353162-1.9579724,2.0255684-2.9285813,3.0354639,1.0272278.9931409,2.0371233,1.9493063,3.0245984,2.9002719Z"/>
  <path d="M668.86163,808.763245c-5.3088842,6.3419567,6.9739407,6.1501459,0,0h0Z"/>
  <path d="M671.9646899,814.6424292c1.9412178,0-1.2350934-.0109771,0,0h0Z"/>
  <path d="M668.86163,808.763245c2.9846224-4.0221823-5.1563599-7.8930631-3.1764332-11.8760261-7.2893886-1.6812333-.1860334,8.7955656,3.1764332,11.8760261Z"/>
  <path d="M169.7173253,312.4713268c-6.482281-9.3686871-6.2402065,2.8973832,0,0h0Z"/>
  <path d="M169.7173253,312.4713268c4.93104,7.5349295,4.6889655-4.248725,0,0h0Z"/>
  <path d="M648.8157885,768.8516423c-1.2694237.0566189,1.9462961-.0335775,0,0h0Z"/>
  <path d="M213.2173596,328.1108408c1.974727,10.2941528,14.68046,4.5901714,0,0h0Z"/>
  <path d="M578.4031894,665.8342155c-2.7477476,8.9648444,8.7562791,17.6991693,9.4050849,26.6530366,3.0863053-9.022041-3.3399346-17.8684481-9.4050849-26.6530366Z"/>
  <path d="M622.6872215,726.1246287c1.3992945-1.5344865-.7389338-2.9505356-1.5568977-4.4232035-1.4103924,1.4668905.6937491,2.9505356,1.5568977,4.4232035Z"/>
  <path d="M618.0612301,718.7334877c1.4218265-1.50033-.6545833-2.9446885-1.5235094-4.4514433-1.3877397,1.5742811.6771153,2.9736453,1.5235094,4.4514433Z"/>
  <path d="M229.8217051,341.2313936c1.3940948-1.5402639-.7106244-2.9903999-1.5679956-4.4601791-1.3316986,1.5148432.7672432,2.9649792,1.5679956,4.4601791Z"/>
  <path d="M285.7738431,386.3930179c-3.8193495,3.0747504,2.7760571,5.9045376.2091431,8.9254801,6.3020251,2.6207219,6.1720328-6.8011176-.2091431-8.9254801Z"/>
  <path d="M610.466793,708.4485692c4.8351346,3.4190855,4.6549992-4.7114975-.11266-5.9807997-1.9129084,2.0365455,1.3316986,3.994448.11266,5.9807997Z"/>
  <path d="M614.9356382,709.8530634c1.9464175-.0335091-1.247348.022532,0,0h0Z"/>
  <path d="M234.2680184,339.643177c-1.2525477.0196433,1.9857041-.0283094,0,0h0Z"/>
  <path d="M308.3815203,399.4146989c-1.8164253-29.7589074-48.8088068-40.7660748-69.6001704-58.3918707,17.6315733,18.9286072,60.3077455,34.1001491,69.6001704,58.3918707Z"/>
  <path d="M610.354133,702.4677695c-7.2616569-16.7401152-17.4906039-33.4461435-27.7304082-50.1463944,4.6767131,16.8019337,13.8507006,33.5645809,27.7304082,50.1463944Z"/>
  <path d="M591.5098763,649.2125377c5.1286282-4.4907995-1.314944-11.9610217-6.1668331-11.8789822-2.1497832,6.6209394,2.1156964,4.6150143,6.1668331,11.8789822Z"/>
  <path d="M330.6223305,391.5811537c3.5433003,4.2539247,7.0467363,5.7150378,10.4380901,1.3028114.0618185-4.2481473-6.4828588-7.7857482-10.4380901-1.3028114Z"/>
  <path d="M346.3525502,356.9922337c-2.1613381-20.1702571-28.9045026-39.6857723-45.7006589-55.7684155,8.6210871,13.955392,36.5324488,37.2118751,45.7006589,55.7684155Z"/>
  <path d="M418.7224225,403.4011285c-6.4655265-3.9355105-6.8433706,3.6132848-7.3228977,7.5939369,6.4938359,3.9407878,6.9057669-3.5993414,7.3228977-7.5939369Z"/>
  <path d="M715.3237548,572.4783917c-1.3709851,1.4697792.7169796,2.9141377,1.5685733,4.4544017,1.3767625-1.5374484-.7504887-2.9933619-1.5685733-4.4544017Z"/>
  <path d="M664.991327,509.3130525c-.9873635-.9872886-2.0140135-1.9804295-3.023909-2.967793-1.450136,1.5206206-2.9170265,3.0412413-4.3671624,4.5647507,2.4883409,1.3594302,4.9311618-.3784219,7.4811994,1.3455644,1.4842228-1.0353162.767821-1.9920593-.090128-2.9425221Z"/>
  <path d="M458.3128672,283.4738075c3.2833158-6.0171976,6.1610557-12.0286177,2.6743742-17.9216005-3.3347349,6.0056427-6.178388,12.0205293-2.6743742,17.9216005Z"/>
  <path d="M528.7761863,307.5599301c-5.4845182,10.5027177-14.8220071,21.1095886-9.8851897,31.4343618,5.6705515-10.4882746,8.9255579-20.991072,9.8851897-31.4343618Z"/>
  <path d="M668.7883786,468.947351c20.9547539,7.4783107,41.7793925,4.0228273,62.7168135,7.8532661-15.0583041-6.5643206-42.9188244-9.6558256-62.7168135-7.8532661Z"/>
  <path d="M460.9421774,262.5761696c-.8071075,1.0238424-1.5402639,2.0227608.045064,2.9760374.789892-.9902522,1.4894225-1.997259-.045064-2.9760374Z"/>
  <path d="M460.9421774,262.5761696c1.8782438-1.6955958-1.3431367-3.0920016,0,0h0Z"/>
  <path d="M549.2849217,289.322304c-11.4930496,9.6558256-21.0107945,32.1283108-12.5647636,46.4222605,3.2382518-15.4875675,3.8535485-30.8590086,12.5647636-46.4222605Z"/>
  <path d="M478.9117306,268.2346697c5.4729633,1.1993144,4.8293571-9.9238985,4.1921062-13.475865-6.9733629,4.5473371-1.4951999,8.9428902-4.1921062,13.475865Z"/>
  <path d="M516.7417911,301.7991705c-4.0286048,7.7042885,7.5713273-4.2705991,0,0h0Z"/>
  <path d="M519.6247307,295.7878305c-4.0569142,7.6983508,7.5262634-4.2822341,0,0h0Z"/>
  <path d="M535.7327946,279.1072229c-5.2811525,9.0330182-4.1978836,17.981108-8.4915542,26.9661735.5302501.4991703,1.0155545.9902522,1.5349458,1.4865338,4.0846459-9.5096565,9.1907421-19.0250904,6.9566084-28.4527073Z"/>
  <path d="M483.0587728,251.7261482c-.8071075,1.0128656-1.4842228,2.0285385.045064,3.0326565.8348392-1.0127842,1.5119545-2.0590775-.045064-3.0326565Z"/>
  <path d="M484.3448296,238.3266268c-5.3371936,4.0338045.2091431,7.9243286-2.7928116,11.9471559.4853045.4905042,1.0214503.9590541,1.5067548,1.4523655,4.2315101-4.5328934,1.9805044-8.9705405,1.2860568-13.3995214Z"/>
  <path d="M843.54466,576.1117468c-4.1412647-1.6812334-10.5616011.0734466-10.3473844,4.665929,4.0338045,2.9903999,7.9214398-2.5813575,11.9552443,2.7899229,1.7772652-2.544382-4.0059465-4.9142854-1.6078599-7.4558519Z"/>
  <path d="M487.0591855,226.3315182c-6.2685161-1.6899816-3.4475123,8.8695168-2.7143559,11.9951086,5.2869299-4.0736688-.2253199-7.9607264,2.7143559-11.9951086Z"/>
  <path d="M538.4349006,264.1869994c-4.3440527,4.5277751-1.049182,8.936535-4.2597021,13.4926195.5362645.4737496,1.0497598.9677202,1.5575962,1.427604,3.7628428-5.0130795,4.5583955-9.9891835,2.7021059-14.9202235Z"/>
  <path d="M749.3002668,473.4803258c-1.3935171,1.5292868.7054247,3.0187093,1.5970068,4.4913772,1.3708611-1.5402639-.7221793-3.0158206-1.5970068-4.4913772Z"/>
  <path d="M538.4349006,264.1869994c1.8961539-1.6956769-1.3368982-3.0667432,0,0h0Z"/>
  <path d="M539.6706937,250.7134454c2.7587248,1.9042423,4.2371701-2.2907526,4.406449-4.5248864-.4910819-.4933929-1.0098955-.9902522-1.5235094-1.4836451-2.0589588,2.0677437-2.52185,4.0563365-2.8829396,6.0085314Z"/>
  <path d="M557.7534846,262.3474644c-4.0111534,7.6678105,7.5206053-4.3215207,0,0h0Z"/>
  <path d="M575.9489354,279.886021c1.9464175-1.6870107-1.3091666-3.0556849,0,0h0Z"/>
  <path d="M542.5536333,244.704914c7.5152862-4.8749989-4.2481473-4.662967,0,0h0Z"/>
  <path d="M467.9946912,158.1277535c-1.9469953,1.7210976,1.2526646,3.0753282,0,0h0Z"/>
  <path d="M467.9946912,158.1277535c.8065298-1.0179839,1.5061771-1.9885928-.0959054-2.9759563-.7955527,1.0155891-1.5009774,1.9914815.0959054,2.9759563Z"/>
  <path d="M586.194637,269.2844295c-.8232844,1.0098955-1.4778676,2.0255684.0508414,2.9620904.8463941-1.0070068,1.5460414-2.0117025-.0508414-2.9620904Z"/>
  <path d="M467.8987858,155.1517973c.8517107-.9758086,1.5229316-1.9886767-.0057774-2.9955996-.8237452,1.0462933-1.5292868,2.0533001.0057774,2.9955996Z"/>
  <path d="M586.059445,260.3415393c-1.2865147,3.0048435-1.2691824,5.9692449.135192,8.9428902,3.4982363-3.0834166,3.4306403-6.0258637-.135192-8.9428902Z"/>
  <path d="M460.2425302,141.8619657c-1.929663,1.6870107,1.2803961,3.0470187,0,0h0Z"/>
  <path d="M467.8930084,152.1561977c1.8614893-1.6673675-1.3201437-3.0556849,0,0h0Z"/>
  <path d="M460.2425302,141.8619657c1.8955761-1.6275032-1.2866346-3.0522184,0,0h0Z"/>
  <path d="M457.1504475,135.9551171c6.9566084-2.0088138,3.0522184-23.3385226-1.952195-25.2850252-1.8112256,8.4882911,5.3713972,16.7852642,1.952195,25.2850252Z"/>
  <path d="M469.2131521,144.7194846c-1.8954592,1.6592791,1.3316986,3.021598,0,0h0Z"/>
  <path d="M586.0028262,257.3684717c-.8065298.9843935-1.5003996,1.9943702.0566189,2.9730676.7955527-1.0208726,1.4894225-2.0002289-.0566189-2.9730676Z"/>
  <path d="M469.2131521,144.7194846c1.3709851-2.0250748.5979644-4.0199386-.0849283-5.9692449-1.6361693,1.9971747-3.001377,4.0228273.0849283,5.9692449Z"/>
  <path d="M586.0028262,257.3684717c5.342971-6.4008192-6.961808-6.180699,0,0h0Z"/>
  <path d="M469.1282238,138.7502397c5.3262165-4.07078-.2368748-7.9636151,2.7594195-11.9864425-6.2796101-1.6922104-3.4642665,8.8637393-2.7594195,11.9864425Z"/>
  <path d="M851.1333196,501.4679496c-1.6477242-1.8956513-3.0354639,1.2918343,0,0h0Z"/>
  <path d="M855.658206,502.8556893c-1.5124056-.7644296-3.0753282-2.8066775-4.5248864-1.3877397,1.5287091.7984414,3.0631955,2.8713847,4.5248864,1.3877397Z"/>
  <path d="M858.6202964,502.813439c-1.0046958-.7816118-2.0537511-1.4668154-2.9620904.0422503.9983406.8463941,2.0082361,1.5627959,2.9620904-.0422503Z"/>
  <path d="M858.6202964,502.813439c4.908508,7.5292271,4.6993649-4.2145631,0,0h0Z"/>
  <path d="M470.273889,119.3392167c-1.9579724,1.6782599,1.2808571,3.0834166,0,0h0Z"/>
  <path d="M470.273889,119.3392167c.7897752-.9873635,1.5061771-2.0255684-.045064-2.9649792-.8180847,1.0127842-1.4951999,1.9913967.045064,2.9649792Z"/>
  <path d="M470.228825,116.3742376c5.3088842-4.0794462-.2201202-7.9329947,2.7419702-11.9922199-6.2742934-1.6529239-3.4865645,8.8608506-2.7419702,11.9922199Z"/>
  <path d="M605.1295994,243.5846695c9.3767755-15.9977149,5.7098381-27.3382402.7672432-40.2415615-3.2382518,13.496086-15.7752837,27.1100316-.7672432,40.2415615ZM606.4383086,233.1558233c-.8684687-1.4726679-2.9564334-2.9199152-1.5964254-4.4630678.8515938,1.5066729,2.9620904,2.9534243,1.5964254,4.4630678ZM606.2238454,221.2369768c1.2300157-8.6580627,1.5460414,8.5783341,0,0h0Z"/>
  <path d="M469.9353313,98.4861462c8.7337471-8.6153097-.135192-29.750319,3.6675151-43.2828028-9.6309826,8.6436191.5806321,29.7786284-3.6675151,43.2828028Z"/>
  <path d="M774.6608914,389.5862057c-1.7262973-1.909442-3.0688484,1.283668,0,0h0Z"/>
  <path d="M774.6608914,389.5862057c4.795848,4.0990895,4.6098146-7.6758989,0,0h0Z"/>
  <path d="M788.0102305,387.8489313c-6.4152628-6.7087564-6.2061197,5.5827345,0,0h0Z"/>
  <path d="M788.0102305,387.8489313c3.0181316,2.2058243,5.980222.7585771,8.8465322-3.1539013-2.9622156-.9596318-5.8959967.5302904-8.8465322,3.1539013Z"/>
  <path d="M604.3623562,201.8594629c.524591.5303684,1.0156729.9873635,1.5344865,1.4836451,3.5716097-16.956769,8.0566318-33.9083383,8.0398772-50.8032887-6.1159917,16.5112453-9.1965195,32.9325297-9.5743637,49.3196436Z"/>
  <path d="M796.8567627,384.6950301c1.0438571.8261731,2.0705072,1.5454636,3.0353387-.020221-.9983406-.8180847-2.0082361-1.5315978-3.0353387.020221Z"/>
  <path d="M799.8921014,384.674809c1.7095427,1.9412178,3.0244867-1.3340095,0,0h0Z"/>
  <path d="M798.1715815,374.2991152c-1.6587013-1.9261965-3.0129319,1.26988,0,0h0Z"/>
  <path d="M816.0452293,370.9903787c-5.6416644-4.9114752-2.1266735-14.457451-9.2074967-14.7821428-4.293789,6.0622616,6.1893651,11.8512505-2.6969062,17.9527986,3.0129319.4177085,6.0310634,1.9412178,9.0665273,5.8086322-2.3923099,3.1931097-4.9200628,1.684122-7.34023,4.5982598,3.988866,4.3948941,7.8821533-2.2711093,12.0118632,5.7323701,2.5334048-7.9468606,4.5757278-2.7281044,10.2914693-7.6025255-3.5492037-2.5732691-6.9457572,1.2213496-10.4607481-1.314944-1.5177319-1.4807564-.6603607-2.9678679-1.5852022-4.4572904,8.0172196-6.1945648,14.8155262-1.9493845,19.5212463,7.0837119-.3778442-5.8987602-2.5391823-11.8651163-6.2793671-17.7552104-4.406575,4.4907995-8.9372388,1.3455644-13.3211557,4.7363404Z"/>
  <path d="M798.1715815,374.2991152c1.0382049.790353,2.0365455,1.4697792,3.0071544-.0647073-.9989183-.8094185-1.9914815-1.5235094-3.0071544.0647073Z"/>
  <path d="M801.178736,374.234408c1.004118.7868865,2.0140135,1.4951999,2.9620904-.0733734-.9873635-.8065298-1.9919339-1.5235094-2.9620904.0733734Z"/>
  <path d="M521.9154833,90.1106c7.8757981-7.1628628,1.0549595-26.8252041,5.2695976-38.8226237-11.9442672,1.88691-1.2583251,27.296065-5.2695976,38.8226237Z"/>
  <path d="M817.1510302,351.6041987c3.0412413,2.9031606,6.0767051,5.8057435,9.1231461,8.7481907,1.8789475-7.4811994-4.7900706-14.7965864-7.864821-22.2125007-2.5617143,3.5004682,1.1398877,6.9340764,1.6812333,10.3982258-5.8957458,3.2469179-11.9719989-2.3473715-17.7892972,3.2919819,5.0269454,5.3851463,9.9129214-.7418225,14.8497388-.2258977Z"/>
  <path d="M918.9447964,461.5221167c2.0140135-.0507653-1.2017063.0254968,0,0h0Z"/>
  <path d="M826.2741763,360.3523894c-5.3486226,6.4008192,6.9566084,6.1414124,0,0h0Z"/>
  <path d="M841.4740276,377.9579642c-1.1225554,8.9908429,11.2047556-4.2620131,0,0h0Z"/>
  <path d="M963.7482199,463.6973967c-11.4647402-2.0567665-22.8393523,1.1676194-34.3035148-.858025,5.6191324,6.2148619,23.9220435,7.3772816,34.3035148.858025Z"/>
  <path d="M871.7604924,404.2388565c-1.907131,1.6587789,1.2750797,3.0465185,0,0h0Z"/>
  <path d="M612.4022334,151.0527078c.524591.502059,1.0098955,1.0184777,1.5344865,1.4871115,5.4221219-9.0359069,5.6306872-18.0013291,5.4729633-26.9436415-5.2527225,8.5534068-6.0541732,17.0047217-7.0074498,25.45653Z"/>
  <path d="M842.8675447,370.5021855c1.9130348-.0363978-1.3033891.0115549,0,0h0Z"/>
  <path d="M619.4096832,125.5961778c1.1901514-2.4825634.9984613-4.9281513-1.6418261-7.3997375-1.2017063,2.5108728-1.0267707,4.9593494,1.6418261,7.3997375Z"/>
</svg>