<?xml version="1.0" encoding="UTF-8"?>
<svg id="garlic" xmlns="http://www.w3.org/2000/svg" version="1.1" viewBox="0 0 1040.3179834 1000">
  <!-- Generator: Adobe Illustrator 30.0.0, SVG Export Plug-In . SVG Version: 2.1.1 Build 123)  -->
  <g id="outline">
    <path d="M634.7298411,313.8471045c.1628361,36.7994096-20.7573323,59.3992417-24.0815256,93.8493234,14.4530454-21.4621665,56.3450796-79.2168787,24.0815256-93.8493234Z"/>
    <path d="M550.9254093,414.5779547c16.23994-6.0694617,14.6157381-24.2425332,15.6257376-40.5731409-16.817144,5.6531577-19.9433671,20.5945679-15.6257376,40.5731409Z"/>
    <path d="M674.0025162,395.4299461c9.5213568,13.7482112,7.8582922-19.817637,0,0h0Z"/>
    <path d="M471.8009908,490.9756041c-1.2838308-7.8582205-5.7457255-10.9475169-11.7059845-11.8687488-7.8767197,20.9553025-25.039756,35.5896115-36.4738451,54.0697485,24.9473316,6.3043586,29.5904899-31.4699522,48.1798295-42.2009996Z"/>
    <path d="M686.9016997,510.3788372c-21.3881697-12.3756128-7.8952189,16.6377447,0,0h0Z"/>
    <path d="M307.9508369,663.5885756c3.322329-1.6981988,8.9237535-1.8609631,8.1819567-6.2692244-3.3056941,1.6981988-8.9052543,1.8424639-8.1819567,6.2692244Z"/>
    <path d="M667.3375664,603.4142313c-9.0144928-.3071012-13.2784173-7.5529836-24.4239044-4.6801567-.7583959,11.5080142,24.875199,12.7899808,24.4239044,4.6801567Z"/>
    <path d="M299.7836509,669.8392291c-34.0522411,34.5037509-60.7163424,77.1728236-95.6547531,112.490468-35.6599157,36.0409779-82.7371779,63.5725344-105.5534436,109.6730671,92.6746595-55.4589817,130.8818016-147.6637756,207.4589219-213.94458-.0888034-5.9065539,5.2757882-10.6219164-6.2507252-8.2189551Z"/>
    <path d="M605.2651889,695.2564263c14.7045773,15.4630449,3.6849279-16.2770101,0,0h0Z"/>
    <path d="M423.7470707,800.8654034c32.8794056-11.9057472,39.4723662-41.5869406,52.8764777-66.5878339-22.3815342,5.3461282-40.5008649,41.9457392-52.8764777,66.5878339Z"/>
    <path d="M592.4215747,725.912485c-3.324265,1.6981271-8.9071544,1.8424639-8.183821,6.2691527,3.3056941-1.6981988,8.9052901-1.8609631,8.183821-6.2691527Z"/>
    <path d="M578.6919345,752.0344447c.1811919,6.685385-5.9788299,9.086482-6.4135613,15.3557065,14.3808411-1.5353627,38.8047455,12.0685116,47.0236289.3071012-17.8660062-8.0025574-28.3436575,4.4266888-40.6100676-15.6628077Z"/>
    <path d="M562.3427201,764.6264553c3.5406627,2.403033-2.2586962-1.5538619,0,0h0Z"/>
    <path d="M433.5568144,827.1501275c3.5406627,2.3659629-2.2586962-1.5353627,0,0h0Z"/>
    <path d="M451.6392901,823.6094648c-8.0025574,17.3055088,13.0803754-13.8573422,0,0h0Z"/>
    <path d="M523.935851,833.1103865c-16.7283765-4.3712629-34.8829847-6.6298873-53.2910608-8.4723513,10.9290893,9.2493181,42.3804707,18.5356346,53.2910608,8.4723513Z"/>
    <path d="M327.5316768,861.7630094c11.0936463,2.9801653,24.1352306,3.0707971,34.3242799,7.4419883-1.8239647-13.2413472-31.1979852-15.4445457-34.3242799-7.4419883Z"/>
    <path d="M129.2129778,904.8297434c5.0038928-1.428096,8.3465853,5.2388615,9.0698829-1.7351255-.921232-4.5692331-9.0328845-4.1548652-9.0698829,1.7351255Z"/>
    <path d="M964.2004804,414.4169829c-2.2568319-1.537227,3.5406627,2.4196321,0,0h0Z"/>
    <path d="M807.0339188,87.8895106c-2.2568319-1.5002465,3.5406627,2.4029792,0,0h0Z"/>
    <path d="M935.5682926,363.5992952c3.540591,2.3474637-2.2587679-1.5538978,0,0h0Z"/>
    <path d="M893.4948515,146.3120227c3.5407344,2.3659808-2.2586962-1.5353806,0,0h0Z"/>
    <path d="M868.0758617,15.0324881c-42.1992071-10.2242193-95.5456938-1.174664-146.4706483-4.515528-22.0578698-1.4465952-54.4841164-15.509275-76.8138816-8.6351694-43.9510392,13.6020638-128.1902741,190.5862624-133.3014337,208.9591326-9.3936549,33.7452833-7.3162941,66.4435687-18.6984706,97.6045555-32.6964211,89.4947313-86.6570386,144.5764152-151.4024085,212.4646432-38.5882044,40.4473749-74.5551854,86.2426706-112.0038958,125.010346C148.1814795,729.95994-13.1935268,822.5439677.8617677,896.8272577c20.883152,110.0338017,360.2357214,150.4274715,723.958508,28.7950238,123.926278-41.4222403,219.0946022-181.0668953,273.2531182-287.6691652,43.4460395-85.484203,57.3755142-199.402767,22.7792673-319.0299864-30.9094548-106.9445053-96.124547-233.1480145-152.7767995-303.8906418ZM967.5616721,456.0019876c6.123095-25.9776587,21.1903429-45.9932301,28.4694951-71.2661263,12.6290807,23.0678693-11.1454154,55.4053842-28.4694951,71.2661263ZM986.5302455,457.0323505c13.1322162,6.629959-7.4254251,23.6098674-7.4439243,34.3409866-14.4511094-7.5326918,10.7496183-21.3530355,7.4439243-34.3409866ZM971.4815686,403.5767687c-11.2730456-14.3068801,15.2835739-36.743912,17.5404058-55.0261504,9.0865537,12.8269792-13.8369787,37.79281-17.5404058,55.0261504ZM924.6022048,234.2158937c3.5221635,2.4029613-2.2753311-1.5520694,0,0h0ZM918.4791815,202.5313363c11.3618848-15.0486769-9.7025487,16.1678433,0,0h0ZM903.4305046,294.6436341c-9.8098155-1.8590989,4.4970288-20.1783357,3.7940589-28.8671564,14.1255807,4.7874234-6.5411198,18.8057374-3.7940589,28.8671564ZM806.1848194,374.5819462c-9.1586863-2.0052283-18.0454772-4.371227-28.9208615-3.8107297.812101-19.0943035,12.3923195-38.4976084,36.3647141-30.5486844,5.834493,17.0539052-7.9303531,20.9016333-7.4438526,34.3594141ZM771.8624038,367.1399579c-14.1625791,3.4869576-17.4515665-9.1402229-33.4381821-2.926532-.7048342-14.9395101,14.1625074-19.3126014,11.9760156-35.2270127,13.0248777-3.7404255,15.8977046,7.5511552,28.9041548,3.7940589,8.6000532,18.9500742-12.4458811,17.8660421-7.4419883,34.3594858ZM628.1535872,207.0468644c-10.5497838,4.0105283-11.4340174-6.3043586-23.502529-.109131.0906318-15.6443443,6.8833552-26.8434289,27.2780886-28.7950238,3.7757031,13.0433769-7.5141209,15.9144113-3.7755597,28.9041548ZM594.7154051,204.1740375c-9.1771855-2.0052641-18.0287706-4.3712629-28.9041548-3.7940947,5.7992872-14.8488783,14.8322075-33.5824831,37.2137417-26.0313279,2.5657974,13.5484125-8.7794525,17.703206-8.3095869,29.8254227ZM586.8386853,163.4010979c-.5235707-12.6271985,17.8845054-22.8347649,29.9160186-15.19296,1.6981988,9.0329024-11.2361189,8.1653038-5.545891,19.8712883-11.1102812,2.8728269-15.3724131-4.3712629-24.3701276-4.6783283ZM600.5683973,137.2791203c2.2771954-14.018296,10.8032517-17.6680898,25.3819913-14.3253793,5.3461282,19.149837-14.1088024,15.446392-25.3819913,14.3253793ZM621.144466,170.8449864c-.8842335-19.6548368,6.8297218-18.5708404,24.5513912-18.8427716,4.0105283,15.0486769-12.3033368,26.6454945-24.5513912,18.8427716ZM697.6512463,80.8988707c1.1377014.7214513,1.3355999.8842335,1.1562006.7769489.1793993.1072847-.0184992-.0554976-1.1562006-.7769489ZM704.8232035,93.6333539c1.9497307,12.9361281-17.6144026,12.4292641-18.9869293-1.0285346,8.0209132-2.2050269,10.6033455,3.703445,18.9869293,1.0285346ZM738.1171205,120.0272628c-2.114431,13.6575615-19.4754375,2.4566126-27.1708219,5.292459-.5050714-16.0771936,17.0002002-6.0694079,27.1708219-5.292459ZM745.3963444,109.2425282c-6.8278576-3.4869935-17.5238425-1.2283153-24.3868342-4.6783103-1.2301257-15.446392,23.1048677-9.7562,24.3868342,4.6783103ZM729.7891061,149.7990162c18.570697-10.0632654,30.8003238-6.4134896,47.0236289.3070833-13.7297837,26.3920446-55.9493542-1.3374463-79.5776492,1.335582-1.7351972-16.8911229,31.9564528-26.7897597,32.5540203-1.6426653ZM847.4997213,272.6043353c-11.5782825,3.5961245-19.7991019,2.1143593-20.755468-10.0614549,4.8411285-6.973987,15.5722476-9.0328845,22.6534296-4.3545921-1.6980554,4.0475267-3.2889157,8.2559535-1.8979616,14.416047ZM836.5522044,288.8461395c1.1396374,19.1479728-10.6219164,29.5183573-14.7582107,45.1256673-6.8463568-3.4499951-17.558905-1.2468324-24.3516284-4.6782924,4.2084268-18.0288423,15.6794426-48.1076611,39.109839-40.4473749ZM759.4331576,327.2345811c5.9435523-21.9135329,13.5133142-55.8030814,47.3121592-46.7165277-8.3280861,25.7242267-17.9381388,55.910384-47.3121592,46.7165277ZM814.0615392,269.6778033c-12.0481481,6.2692244-12.9878793-4.0992958-23.502529-.0887675-3.5942961-14.7415757,14.2717101-25.3098946,24.5144644-18.896405,2.1494935,8.0561549-3.7034988,10.6755856-1.0119355,18.9851725ZM760.0121542,233.1873233c-6.0712542-13.2413472,10.7476824-11.091782,4.6967916-24.3886268,15.9680446-6.1600576,19.2571038,6.467123,33.4196829,2.9264603-3.7755597,18.2286051-16.4582737,24.3886985-38.1164745,21.4621665ZM678.9713466,178.4497749c-10.8753126.5604974-19.7455403-1.8424998-28.9042265-3.7940947-1.6796996-8.9958861,11.2361189-8.1653217,5.5273918-19.8712703,11.1287804-2.8728627,15.4094115,4.4082255,24.3886985,4.6783283,2.1679927,8.0025215-3.6849279,10.6219164-1.0118638,18.9870368ZM668.3123601,147.649469c-1.0839963-16.2769743,5.8178581-21.0459343,19.9989364-17.9751551,8.6166881,17.3055088-9.5749185,25.0564626-19.9989364,17.9751551ZM689.9187918,162.226434c29.0670626-2.2031985,46.0303361,13.4059758,76.8121607,8.6185524,2.8727552,11.091782-4.3898338,15.4093757-4.6784358,24.3867625-24.6402304-6.1951918-49.8964558-11.5431484-77.6796159-13.1322162,1.0655688-7.1367513,4.4971005-12.6826423,5.545891-19.8730988ZM776.5055621,197.1463813c-4.2824237-22.3464001,29.8420218-28.6507228,36.2203772-7.0442911-7.1552506,10.7310474-25.2747246,7.9118539-36.2203772,7.0442911ZM786.0065554,124.8498562c-9.8820914,7.4438705-28.7414622,12.8806305-37.9538535-2.0588975,16.0587481-4.3527278,23.4119689,4.1733106,37.9538535,2.0588975ZM758.9817195,106.569482c3.7941306-12.6290448,21.3882414,2.7803488,32.5706552-1.5908962-4.9483952,14.380877-24.9658308,2.5657615-32.5706552,1.5908962ZM699.2754483,113.4509729c-.288602,16.2769922-13.0415844,5.6550579-22.6165029,4.4267426,1.2468324-14.018296,15.0653836-.1627823,22.6165029-4.4267426ZM678.6827446,79.8684898c1.4077325-2.0422446-14.5788113-2.2031985-14.4529737-1.8961152-2.6731358-6.9203536,23.1954278-11.0936463,14.4529737,1.8961152ZM670.5174229,86.1376964c.5586331,3.0337808,1.1561289,6.0509087,1.7518321,9.0865358-4.5525265.8657523-9.0680545,1.7518321-13.603946,2.6194128-.5770606-3.0356271-1.1562006-6.052755-1.7518321-9.0329024,4.5340273-.921232,9.0680545-1.8073118,13.603946-2.6730462ZM666.6862939,115.0955204c-6.0323915,1.1376655-12.0666473,2.3123295-18.1009031,3.4869935-6.5929606-17.2518575,16.2048058-18.5356704,18.1009031-3.4869935ZM659.4070699,125.8802371c-1.6981271,4.1011601-3.3241933,8.2559535-1.8979616,14.4696624-7.5511193,1.4465952-15.0837394,2.9264961-22.6534296,4.3730913-2.3123295-17.5607872,9.6119169-22.6368305,24.5513912-18.8427537ZM754.7362943,206.0165014c-14.4529737,45.0904973-81.0574425-3.9013973-121.1625821,4.6801567,10.1335516-53.5998829,88.410735-8.6351873,121.1625821-4.6801567ZM751.8449682,239.4916819c7.0109854,5.1481938,21.8950337-1.3725983,28.9226541,3.8125581,2.8543277,11.0733545-4.4081896,15.3372789-4.6597932,24.3868342-9.1771855-2.0052641-18.0473415-4.3712629-28.9411533-3.8107297-6.6650932-13.713077,4.4266888-15.3927407,4.6782924-24.3886627ZM767.9055089,273.9417636c-10.7662533,30.7651538-26.7175913,58.024815-39.4188045,87.4894672-9.9707873-.7584317-15.1023103-8.7258191-28.9041548-3.7940589,11.6708503-30.132488,26.9729234-57.8620148,39.4188762-87.489503,9.1401154,1.9516308,18.0471981,4.3731271,28.9040831,3.7940947ZM824.4134245,347.5202553c10.8938835-.558669,19.7991019,1.8443282,28.939289,3.7940589-.8305285,9.9726515-6.7020199,16.4934079-9.1938204,25.2728962-15.0116785,6.6669216-18.7151056-3.3408641-32.5724478,1.6445296.4347314-12.8436142,16.7283048-14.9580451,12.8269792-30.7114846ZM858.7543394,354.9641078c15.3557782.5604974,29.6089891,2.7821951,43.3572002,5.7086912,1.7518321,9.0328845,3.5036643,18.1194382,5.2739956,27.1523586-22.4186044,4.0641617-34.5573843-7.0831538-56.959282-3.035663-5.545891-15.5536767,13.8739771-14.2717101,8.3280861-29.8253868ZM878.8790417,313.5400033c12.2313477-4.5340273,1.2653316,25.3099305,13.4596092,20.8295366,2.6360657,9.7191837-15.6628077,5.1851564-21.7691961,8.9422527-2.5472265-13.5484125,8.7979517-17.6680718,8.3095869-29.7717893ZM901.0645417,234.0549219c14.7582107,1.8054655-2.8543277,13.097082-.9951571,19.0037076-14.7398549-1.7518321,2.8727552-13.097082.9951571-19.0037076ZM908.380764,223.2683769c-2.2586962-1.5354344,3.5406627,2.3678271,0,0h0ZM884.7154707,246.6266407c-23.55817-19.2922738,21.1716286-55.0798196,21.3343929-83.9839745,9.5916252,23.6116958-22.4906652,52.9857521-21.3343929,83.9839745ZM893.4948515,146.3120227c-2.2586962-1.5353806,3.5407344,2.3659808,0,0h0ZM869.5390918,216.6939154c-15.5536767-18.4801728,11.5265134-41.9476035,16.6395373-59.5971402,7.6584577,13.1876779-16.0420415,38.9119405-16.6395373,59.5971402ZM877.2900456,135.3830051c-2.3124012,19.4014048-18.5357063,29.4091904-18.3895769,50.508794-10.9660161-12.8251508,10.0614907-37.6836611,18.3895769-50.508794ZM861.9712659,274.520796c-2.2771954-1.5539336,3.5406627,2.401097,0,0h0ZM874.5263497,290.8865737c-3.0541622,21.6249309-8.1653217,53.5998829-38.2441764,44.9831947-2.7451967-20.2338334,13.7833453-27.4242898,14.7230765-45.1275316,10.5498555-4.0104924,11.4525166,6.3598562,23.5210999.1443369ZM848.6744211,230.0980628c.5956315,3.0356271,1.1562006,6.0694258,1.7518321,9.0865537-3.0337987.5771682-6.0323915,1.1931632-9.0680545,1.7517963-.5955598-3.0337628-1.1746998-6.0157566-1.7518321-9.0328845,3.0171638-.6141666,6.0342558-1.1912989,9.0680545-1.8054655ZM827.1956196,191.9981874c10.5497838-15.6073101-10.5312846,15.6091743,0,0h0ZM827.935588,220.0347795c1.0488622,16.2769743-5.834493,21.0459702-19.9970721,17.9751731-2.9820296-13.51145,8.8515851-25.5263282,19.9970721-17.9751731ZM791.2822719,152.0022147c12.7714816-3.3778625,24.586597-5.3294753,25.2544328,9.1956847-11.6523511,1.7518321-23.4656023,3.6479653-25.2544328-9.1956847ZM807.0339188,87.8895106c3.5406627,2.4029792-2.2568319-1.5002465,0,0h0ZM814.6405358,30.081165c2.7636959,17.5959393-14.9228393,21.4066689-16.5119071,36.0946113-53.4722527-10.170568-102.8618444-26.3939089-168.0955792-19.1683362,35.8412151-46.4982478,122.2281509-4.5155101,184.6074863-16.926275ZM637.0422423,83.2648515c.5956315,3.0356271,1.1746281,5.9972574,1.7704031,9.0329024-4.5155997.8657343-9.0681262,1.7518142-13.5855185,2.6194128-.577204-3.035645-1.1746998-5.9972753-1.7333329-9.0329024,4.5155997-.8675986,9.0310561-1.7518321,13.5484484-2.6194128ZM612.5277779,102.0521076c10.5497838-3.956877,11.4525166,6.3764912,23.5210999.1627823,2.2031268,13.5484305-24.6587296,17.3425072-23.5210999-.1627823ZM605.3743199,89.3712578c3.5406627,2.4196321-2.2771954-1.5353806,0,0h0ZM598.9423311,104.7251538c13.0804471-13.9091471-8.0024857,17.3073552,0,0h0ZM592.5289849,120.0272628c3.6681495,11.7059486-3.3964693,16.0605407-15.4816875,17.0890752-3.6664287-11.6523152,3.3963976-16.0586944,15.4816875-17.0890752ZM582.430424,140.7661138c1.6981988,11.6522973-3.1780639,18.8408895-14.5769471,21.6230846-4.842921-13.7648461,0-20.9552667,14.5769471-21.6230846ZM568.7377105,166.9065906c-.7048342,25.761261-22.9253967,37.013979-25.7057275,61.3490082-11.9057472-18.642973,2.2568319-53.4556177,25.7057275-61.3490082ZM137.1081967,945.602647c-2.2586962-1.5353627,3.5406627,2.3660346,0,0h0ZM147.0439215,948.3312088c-.2886737-5.4571235,7.5159134-5.4016258,12.6992414-7.1367513.3070654,5.4922576-7.4956575,5.4386243-12.6992414,7.1367513ZM241.253872,925.4243113c3.6849996-9.8098155,10.6940849-27.729455,24.5145362-18.8427358,57.3198732,18.0287706,124.7031731,21.2087704,174.2185308,50.836187-74.7161214,1.8424639-131.3498029-23.0511626-198.733067-31.9934512ZM453.5538866,954.7428341c9.1050529-3.7570604,12.5920823.7603319,18.9870727,1.0304347,2.9985928,7.7490895-23.7912027,12.9897436-18.9870727-1.0304347ZM470.7891988,946.7218492c.8305285-20.6297021,25.5983891-17.3425072,39.8700992-12.410747-2.0772892,22.5276637-22.4018977,12.629009-39.8700992,12.410747ZM493.5683943,918.794424c1.9330957-24.2258624,29.9881512-12.8269792,45.2532258-8.7258191-5.3109224,23.6652934-26.9709874,10.9845153-45.2532258,8.7258191ZM578.9988923,850.6156581c8.4539238,13.5503126-13.9646089,6.3228578-5.5643902,19.8731705-18.768739,3.7015628-23.9908938-5.022392-47.8726566-4.8244218,1.9515949-31.0722192,33.5473131-19.8713062,53.4370468-15.0487486ZM553.0027702,813.4019163c12.7548466,6.3598562,26.8452215,10.7310474,44.2413621,10.2075485-1.0469979,7.1349588-4.4803222,12.7344832-5.5273918,19.8713062-21.1365661,6.0157566-26.7897238-10.8383859-47.9078624-4.8244935-8.0579833-15.9680446,6.7020916-16.419411,9.1938922-25.2543611ZM560.7536523,877.6237873c5.6717287,11.7059128-7.2440898,10.8938835-5.545891,19.8712345-19.7639678,4.0105283-29.1576227-7.3347216-47.909655-4.7689242,3.938324-29.2112561,30.9463816-18.1379733,53.455546-15.1023103ZM523.2144535,950.6787442c2.1309225-9.4472883,17.486629-16.1142458,26.2846524-9.8098872,1.3910976,10.1169167-18.8057374,5.655022-26.2846524,9.8098872ZM600.1706643,935.7391982c-24.0630981,8.472423-30.0603555-9.8450213-52.4418897-3.9013973.7214692-22.9975292,53.0930189-26.5918253,52.4418897,3.9013973ZM570.526541,903.9085114c-4.9501878-30.2952524,43.5181004-23.5561624,50.6715583-5.0760254-14.3974761,17.035406-32.6797145.921232-50.6715583,5.0760254ZM588.7902803,876.9004539c3.0892963-18.8963692,14.9395459-31.8843202,18.3728702-50.508794,19.7084701-.0554259,35.3528503,5.943624,53.3094883,8.472423.4513664,9.4842867-10.5146497,11.2360472-10.0798466,20.7388331-17.6681794.921232-27.8202302-9.3048157-47.8728-4.8244218,9.2123197,9.5934177,22.5276637,13.1877138,39.7074065,11.091782-3.3056941,26.8452932-33.1145176,12.2128485-53.4371185,15.0301777ZM620.0252638,795.7338086c15.9681163,7.3902192,33.1126534,13.097082,54.1955861,12.9898153-4.8596277,29.3185228-35.4267037,5.3830549-58.8757428,11.3988832-6.0508908-13.2968448,10.7311191-11.1454871,4.6801567-24.3886985ZM647.4661885,743.4177566c23.9169687-4.9317603,32.3005524,4.1547935,57.8435155,7.6047527,2.2771954,13.3505499-7.0997529,18.8428075-13.7463469,26.1775291-19.961938,2.3659629-32.6445803-5.9973291-52.4086198-4.0105283-2.5454339-13.494815,8.7980234-17.6496085,8.3114512-29.7717534ZM710.6928307,754.6538038c13.0434486-3.7385612,15.8977763,7.551191,28.9226541,3.8126298-2.8358285,18.8408715-9.484215,29.04842-32.6982137,25.0915968-8.1098241-15.9514097,8.7258191-15.0301777,3.7755597-28.9042265ZM762.3966163,730.5741424c12.6272164.7213975,24.4404676,2.6730641,34.3224156,7.4604875,8.4187896,13.5484484-13.9998148,6.2507252-5.545891,19.852807-10.7310474-1.5890678-19.4920724-6.1045958-33.4566813-2.926532-6.0509625-13.2949805,10.7310474-11.0732828,4.6801567-24.3867625ZM800.929323,638.5857463c19.7622469-4.0104566,29.1927569,7.3347216,47.9264334,4.8244218-.2534679,27.927497-30.2416907,9.8080229-48.9381537,14.1626508-2.1496369-8.0025574,3.6847845-10.6219881,1.0117203-18.9870727ZM835.8308069,697.5687558c-4.5710257-20.2874667,17.9030046-24.6402304,33.6194457-20.5945679-1.5723611,26.0313279-11.310044,23.2139987-33.6194457,20.5945679ZM850.1561504,722.985953c-8.0209849,12.4292462-17.9381388,1.8979616-31.7048492,6.1063884-6.1951559-22.581297,26.6288237-26.1404589,31.7048492-6.1063884ZM835.1259727,669.5321996c8.0561907,15.9144113-15.6091743,10.4776513-9.1956847,25.2728603-14.8858409,2.6194307-19.8176011-9.5027859-37.9722093-2.0588617-2.8728269-13.713077,6.1600934-19.4569382,8.3280861-29.7717534,13.494815,1.3725266,21.3716065,11.0381486,38.8398079,6.5577548ZM815.8318705,715.543893c-13.2413472,16.6728789-28.4527885-1.030363-46.1190319,4.2084985-1.5723611-25.7779318,39.3263085-28.3972908,46.1190319-4.2084985ZM783.8754178,768.6721177c-.5789966,7.4975576-13.4947433,6.629959-5.5643185,19.8730988-16.0421132,4.3712629-23.4119689-4.1547935-37.972281-2.0607259.0351342-22.5258711,25.6151674-25.7593609,43.5365996-17.8123728ZM758.3140271,806.5185611c-13.8204155,4.9317603-18.9519385-3.0337987-28.9042265-3.7921946,2.691635-11.0030145,29.5904182-9.4491526,28.9042265,3.7921946ZM665.8742646,838.4953774c13.1877138-5.943624,17.3961406,1.4447309,28.0550555-.7048342,3.5221635,18.8964409-13.6760786,23.7726318-29.0669909,19.7085418-2.1494217-8.0025574,3.6849279-10.6219881,1.0119355-19.0037076ZM677.706015,826.7875286c-2.1125667-17.3961406,16.2418043-18.1176098,29.9345178-15.1374445,6.1064601,20.0692047-18.7705315,16.4397745-29.9345178,15.1374445ZM694.2179221,790.7484867c13.8018445-4.9133328,18.9315033,3.0355913,28.9041548,3.8125581,3.4148968,12.2646176-30.476516,15.6073101-28.9041548-3.8125581ZM688.8162962,787.1171922c-9.5915535,23.8096302-47.0051297,3.7940589-65.143103,3.2334898,6.848221-22.292695,41.0448707-4.173221,65.143103-3.2334898ZM628.3700566,911.5133358c1.1746998-15.1559437,15.1929421-18.8409432,29.9345178-15.1929421-3.3426208,18.3728702-10.2426109,11.489515-29.9345178,15.1929421ZM670.1381891,884.6514077c-10.5867823,3.9550307-11.4543809-6.3598562-23.5210999-.1442652,1.1728356-15.1929421,15.1930138-18.8427358,29.9328687-15.1929421-.470009,6.2506535-6.5930323,8.6702498-6.4117687,15.3372072ZM684.5893702,886.5660042c4.7152908-16.4397745,26.8804273-9.8098155,40.7377695-7.9118539-7.1367513,15.7515752-26.3402934.6141307-40.7377695,7.9118539ZM703.7022088,864.0753389c-.0351342-37.9370752,41.5128004-10.3703845,63.3542007-12.2664818-8.0209132,24.2794958-43.6624372,7.4790584-63.3542007,12.2664818ZM779.7927569,844.6184724c-9.2678173-23.1585728-48.59599-1.8610348-60.4813738-21.1532728,19.1128386-12.629009,48.0169934,5.1296588,71.4288906,4.9317603,3.4148968,10.2056842-12.1036458,7.5862535-10.9475169,16.2215125ZM761.9618849,801.1187995c17.6866069-.9767296,31.6142174,3.7015628,47.9265051,4.7856308-8.7240983,10.6237807-45.2515767,12.8806126-47.9265051-4.7856308ZM783.7312243,792.1931459c-5.6736646-11.7059128,7.2070197-10.8383142,5.5458193-19.8712345,22.9421033-3.1799281,31.0888542,6.5226206,43.355336,5.7087271,18.8964409-18.7521757-7.6584577-28.5064935-31.5235856-17.3610065-9.1401871-20.5946396,11.1473513-21.3160371,28.1826857-24.2795675,6.828001,24.0279639,2.8543994,7.6418228,29.7699609,8.3650845-9.9707873,33.7804892-38.314373,51.0341572-75.3302162,47.4379969ZM856.4253749,731.1512748c-2.6915633-16.8911409,4.3898338-12.6808498,16.3842769-12.5365129,2.6915633,16.8355715-4.3897621,12.6271447-16.3842769,12.5365129ZM874.6706866,704.1450815c4.0455908-5.1852281-1.7889023-17.0003436,10.9659444-16.2233768,2.7451967,9.7007562-.9211603,15.1393087-10.9659444,16.2233768ZM852.3427857,661.4741446c2.2401252-21.0995677,17.7568035-11.3451782,35.3527069-11.50615-.8306002,19.057341-19.8897337,14.4881796-35.3527069,11.50615ZM904.0446353,637.3944832c-7.0645471-5.0760971-20.5409346-.6697001-32.5724478,1.5889961-2.1845559-15.8607779,12.682714-20.2690392,11.9778798-35.1733793,11.1288521-2.8709626,15.3909123,4.4267605,24.3887702,4.6801567,3.7569887,13.0415844-7.5346278,15.8607779-3.7942023,28.9042265ZM913.3846569,588.6171579c-8.0044216,2.1680644-10.6237807-3.6849279-18.9870727-1.0285704,7.0813254-8.3095869,2.2586962-24.695728,18.24524-27.0080575,5.9622666,13.206213-5.2387898,14.8507784.7418327,28.0366279ZM914.5407858,546.1109213c3.2150623-26.6455304,21.6230666-14.1626508,0,0h0ZM640.1499662,463.0481788c81.8696869,30.2767532,176.1702692,42.0918686,265.4837369,61.3489724-12.6272164,37.7373124-61.4563108,9.9541523-93.16116,3.9013256-41.0984324-7.8045155-88.1220613-8.6702498-121.0553153-18.7871665,62.3793354,24.3331292,125.6799744,31.7214841,201.3913604,45.5418279,3.8643272,15.6980135-12.4293179,17.8123728-12.8639776,30.6374878-61.8725431-3.5406627-113.5744644-22.1280664-174.3629394-27.2596611,40.6452735,15.8071445,106.5116382,28.2900241,162.5496882,38.9675099,5.2924231,16.6913064-4.8244935,22.9605308-7.4605592,34.3039164-18.2285334,1.7888306-34.1078822,0-47.8912275-4.8226293-3.7404255-9.1050529.7769668-12.5920106,1.0120072-18.9500025-7.6233953-11.1454871-9.556491,14.0719473-15.4816158,17.035406-42.940968-6.2507252-83.895207-15.6091743-126.4569412-22.4370319,40.2864031,19.4199398,72.0079589,20.2338334,122.8071475,27.8922911,2.9080328,11.1287804-4.3897621,15.3372789-4.6783641,24.3886985-31.3071161-4.1196593-61.3489724-10.1169167-92.1325896-15.0486769,22.5442986,15.1393087,55.1168181,15.4999716,83.9839745,21.2993305,2.8728269,11.1454871-4.3897621,15.4094115-4.6783641,24.3868342-30.7466188-3.0171638-62.2332059-4.9317603-87.6337682-15.9144113,3.8662631,19.6178383,55.8567865,18.2267408,80.3361885,26.6990921-21.6065034,40.8636072-101.2192867-.5586331-145.6049857.0554976,34.0171787,21.460374,84.797868,18.1194741,127.357738,27.006265,8.1839644,16.2769384-11.5246492,33.8359151-23.6635008,23.3582638-21.317758,3.540591,3.6480011-7.551191-3.5239561-18.1194741-11.0547836-12.2294834-2.926532,21.2457688-19.9970721,17.9751372-15.6813069-3.9568232-28.7413905-11.8150437-48.7773253-9.3584491-5.671657-11.7059845,7.2274548-10.8198866,5.5478987-19.8713062-12.75499-.7583959-6.9204253,11.0918537-10.9661595,16.2233768-18.5356346-1.6796996-34.1429446-7.6418228-53.2927816-8.4557163,9.0514196,13.8018445,33.8359151,4.3009229,45.1459591,14.7230765-1.6814921,18.5892679-17.6144026,27.4779231-19.2941022,46.0135577-18.7336048,6.4116253-30.5671478,2.5639331-46.1560303,4.2621319,5.906769,10.6774141,25.110096,1.6796996,34.3594141,7.4438526,2.1680644,34.3409149-36.022407,12.4644521-54.3212803,10.4591521-2.8006943-17.5959751,14.8858409-21.3530355,16.4749086-36.0391136-18.6614722,5.7623604-16.6932423,25.4708306-30.9630882,34.1966497-14.3622702-.0536334-25.4356964-5.0760254-38.8398079-6.576254,9.2123197,7.7139554,18.642973,15.1578079,35.2085134,11.9778798,1.4798651,23.3027662-24.4238327,28.0735547-22.9253967,51.3763926-10.2057559-4.2991303-23.2305619-4.4082613-34.3242799-7.44206-12.6623506,13.5669476,26.2310907-.4513664,22.4740303,19.1479728-38.3883699,28.1993923-93.558893-10.4221536-138.2886916-10.7661816,32.8611215,19.2941022,78.2586125,20.0709973,114.6584607,34.1429446-15.7700744,30.0788547-60.3371086,4.4618947-89.5112946-1.4447309-35.3362154-7.1904564-71.6823585-14.5788113-102.0683502-17.8123728,55.6773154,18.4801369,114.9303919,31.7770534,176.9656993,40.8636072.4698656,9.50085-10.5146497,11.2360472-10.061419,20.7388331-66.0828341-8.979287-124.6144773-29.1576227-190.5881087-38.2441764-6.0693541-17.2518755,16.3861053-15.1929421,18.2637392-27.0080575-24.5680978-7.8582205-28.0902613,34.5056152-57.9711458,15.9162755-11.0011502,4.1011601,9.4306175,8.2725885,15.3205723,6.4134896-13.0803754,43.6993639-63.7334345.9748653-97.6600172,4.8226293,17.5053075,21.1180669,77.1912511,2.7821951,72.9642892,37.5393422,22.7977665-15.9162755,56.4542823,5.1851564,90.4159633,5.9621232-100.8029469,17.1963061-201.1008941-16.8005091-274.553584-59.5620778,25.3265296-45.4326969,65.2874398-77.933012,100.170317-113.3209965,76.0369506-77.1024836,145.5512447-155.0003614,217.5592037-234.6852773,36.1482446-39.9775093,85.1401751-72.3316234,118.3083261-116.8450243,35.6783073-47.9078624,36.7808029-113.1600605,61.6023685-166.9208794-2.0053,4.3711912,31.7751175-31.1628868,32.8240514-48.6126967,10.9660161,5.1833639,29.04842-.2533962,27.9107903,22.7977665,32.3911842-33.2754177,96.8830863,8.3632561,151.8722024,8.1653217,6.0879609,13.2413472-10.7291832,11.091782-4.641294,24.3867984-36.2037423-8.6351515-77.5353507-9.5009217-112.0408942-20.5927395,23.502529,25.4171972,69.6585593,17.3055088,103.838574,26.8619281-9.0865537,34.487116-29.2112561,61.5488069-37.683679,96.5223875,10.0614907,3.2335973,17.1797429-1.2467965,33.4752522,2.9264961,3.6849279,12.9879152-5.5107568,17.2518755-9.2141839,25.2543611,17.668036.1443369,13.0248777-14.8303432,19.1313378-22.4906652,28.7950238,7.0812896,37.9370752,7.5511552,64.0941691,15.7701461-1.0469979,7.1367513-4.4970288,12.7178124-5.545891,19.8545996,23.9557596-39.8886701,88.4477334,7.4068541,113.0342588,1.6075311,9.6821852-2.6730283,5.1666572,15.6443443,8.9052901,21.7692319-81.3460445-3.8661914-149.5247388-27.1708219-227.6557927-35.78751,47.4213619,13.8554779,109.6009345,32.9498173,163.3987876,43.5365996,22.9605308,4.4618947,69.6771302-7.1904206,72.1337249,32.9516816-91.7164291-7.8600848-175.3581682-27.6758217-265.6113671-37.774275,49.0659273,16.672843,102.935913,26.2292623,160.7793568,29.9141902,27.7480259,26.8637924,94.7150936-4.2990586,107.3256751,44.9832664-107.9933675,4.570954-190.1904474-29.1039893-285.4826733-43.3738352ZM922.4342839,295.6739971c2.8357568-12.4828796,6.8296501-24.2424974,11.9593089-35.1733793,5.3645557,2.6194307.7232617,31.7233842-11.9593089,35.1733793ZM928.2519985,374.4191818c1.8054655-18.9500742,8.7258191,16.8374716,0,0h0ZM935.5682926,363.5992952c-2.2587679-1.5538978,3.540591,2.3474637,0,0h0ZM942.2703125,301.2568865c-2.63793,9.3566565,6.755725-35.9854444,20.1432016-41.477702-1.5002286,17.3055088-8.690685,30.800288-20.1432016,41.477702ZM968.5551083,291.4470711c10.7846808.776931-15.3557782,41.0800049-22.0578698,55.9122124-5.5643185-11.742947,15.2282197-39.4188045,22.0578698-55.9122124ZM950.4541335,586.1605633c-2.2586962-1.5354344,3.5406627,2.3677554,0,0h0ZM948.9908316,384.4824293c7.551191-23.7744602,19.4920724-44.5669984,29.3555929-66.732099,9.3936549,19.5456699-12.1037175,52.0441567-29.3555929,66.732099ZM957.1913592,523.7830205c1.7887589-18.8964409,8.690685,16.8911409,0,0h0ZM964.2004804,414.4169829c3.5406627,2.4196321-2.2568319-1.537227,0,0h0ZM970.199602,615.2089833c-12.9897436-19.4014406,18.5524129-42.5062366,20.2856742-64.9969735,11.7244837,18.533842-16.5656121,43.8067024-20.2856742,64.9969735ZM976.9016936,552.8314405c-10.9308819-23.1954278,18.7688107-52.8229161,22.2020632-79.4148131,11.9946582,23.9188329-18.354371,53.130089-22.2020632,79.4148131ZM998.3619242,445.3800711c1.0488622-7.1904564,4.4988931-12.7363474,5.5460344-19.8712703,5.4921142-3.3963617,6.3412136,22.0744689-5.5460344,19.8712703Z"/>
    <path d="M827.1956196,191.9981874c-10.5312846,15.6091743,10.5497838-15.6073101,0,0h0Z"/>
    <path d="M908.380764,223.2683769c3.5406627,2.3678271-2.2586962-1.5354344,0,0h0Z"/>
    <path d="M924.6022048,234.2158937c-2.2753311-1.5520694,3.5221635,2.4029613,0,0h0Z"/>
    <path d="M681.3558087,675.7995598c-22.7792673-21.0459343-38.6234102,2.4214605,0,0h0Z"/>
    <path d="M517.2170527,749.8848796c7.9840582.3625271,24.4590385,17.4146398,28.9207898,3.7570604-11.7595461,5.2222265-25.1451584-16.3306435-28.9207898-3.7570604Z"/>
    <path d="M340.3956544,831.0515248c43.1740724,4.1195876,94.082392,27.6758217,130.970605,21.6249309-42.6505018-4.8244935-92.3657298-30.1879857-130.970605-21.6249309Z"/>
  </g>
</svg>