<?xml version="1.0" encoding="UTF-8"?>
<svg id="ginger" xmlns="http://www.w3.org/2000/svg" version="1.1" viewBox="0 0 1470.3952794 1000">
  <!-- Generator: Adobe Illustrator 30.0.0, SVG Export Plug-In . SVG Version: 2.1.1 Build 123)  -->
  <g id="outline">
    <path d="M1383.0575715,445.6684677c-41.036323-43.009872-69.6355952-85.4253018-102.9177506-124.9517428,14.3445495-5.9787672,15.6602482-19.5954557,22.6257892-29.9215765,7.3023915-10.7858228,18.9376059-16.6351337,19.4025917-32.5542948.3870479-26.3034052-23.542551-51.35584-57.8707451-54.3161619-16.1122037-1.516488-35.849004,8.2165117-54.5290183,5.3275228-18.2797566-2.7674585-48.530257-28.5411497-70.6289741-40.7774114-26.3681327-14.5321294-44.3889767-24.9229784-83.3870236-27.1620439-9.6616664-10.390849-33.6692033-61.1601727-57.8696036-76.0212268-11.8293988-7.3010707-88.1861532-29.5279237-125.145924-29.9863047-61.7532923-.5931212-115.2240241,6.7079496-169.9338375,0C648.2861256,28.6620062,606.0635603,1.6360235,551.8702511.1208564c-87.9919688-2.6961255-114.7471494,39.8540446-105.7433323,113.9664516-48.6015901,8.5533622-99.3695915,43.1446122-131.659689,78.8520925-8.8756818,9.933789-13.2811586,24.5306466-22.4910489,35.4498887-10.0619241,11.7712758-25.0524341,19.5954557-32.0893082,29.8515645-24.7301144,36.1724661-34.7271571,73.3317063-67.3463325,103.1885547-26.8965257,24.5940538-70.6276531,57.7348649-99.4990478,65.236725C49.8321532,437.9737442-1.8526101,432.1231123.0510733,475.5900443c.9218983,21.9045332,33.0825395,33.605797,48.0717285,57.0188923,11.8426086,18.4792254,8.2891655,41.036324,22.4923699,59.8444741,18.2851903,24.200401,63.5260509,29.65738,86.6762701,48.8657878-21.3695347,39.8487607-99.8279724,49.1881075-80.2972454,106.0141364,9.0751501,26.2901954,67.9315277,17.22165,105.8133444,16.306209,55.1747992-1.2522915,106.4077865,15.9191611,147.7717132,19.0657417-14.5321291,37.3600295,32.6837503,52.6847485,54.4522218,70.5642477,30.509413,25.1303727,42.3520216,72.7319802,73.8534925,87.0765301,86.2126053,38.9980479,156.1837301-41.564717,250.368465-48.9952441,35.0496301,16.7711949,71.9446727,30.1091561,109.097307,48.9952441,40.8409868,20.5122176,80.0964561,59.4442163,131.4655046,59.6516106,62.9925471.3857269,123.7007691-47.2924975,176.5004417-76.0344366,58.7350247-32.0959139,112.3997634-61.4824925,160.4663555-95.1516966,19.9957129,8.5401524,32.6243061,29.0642588,60.9012586,24.4579926,41.8236286-6.6300116,23.543872-62.2050699,32.1606412-105.9361984,4.9921756-26.1871588,7.2891817-38.611,16.1120242-65.2499348,18.0089551-55.6252557,66.7466064-83.5798892,73.6476039-127.7693986,3.0314703-19.0736676-2.9539017-35.120964-12.8229623-46.1062552-22.6271101-25.2519031-52.6068092-40.1776853-73.7240362-62.5392785ZM1251.3978825,217.4700471c4.2178973-6.0501002,17.2348594,3.2245185,25.7869004,2.6313973-1.3804268,3.4834311-4.2826254,5.5217072-9.6748762,5.4569791,10.9271677,6.7726777,20.5241059,27.0325876,35.2557033,21.768472-6.8360847-6.8374059-14.7315974-12.822778-19.3365426-21.768472-3.7410226.3289247-1.9088198-3.9484169,0,0,32.1606412,5.9206439,32.482961,56.361043,6.6432213,67.9328504-22.1621243-15.7130879-29.5924717-43.7971776-44.9834188-65.1019848,19.002334,12.8875061,31.7603835,30.9096715,38.3401976,54.2527548,5.6632323.1994684,10.1266522-.5944422,12.9522339-2.6961255-12.9522339-22.5570986-25.3113467-45.7059975-44.9834188-62.4758714ZM1241.7350741,222.862298c1.3155197-1.0515021-9.5971172-2.8969148-9.5971172-2.7608536-.8650649-4.3407488,17.3629947-3.7476276,9.5971172,2.7608536ZM1280.1398209,307.1713696c-23.4791439-15.2547069-27.4262397-47.3506208-48.001864-65.3014531,21.8265947,6.0501002,35.7722075,42.1525543,48.001864,65.3014531ZM1241.7350741,271.7280858c2.2324606,1.7740796-1.3806057-.986774,0,0h0ZM1225.8804626,220.1014444c0,2.7608536-2.7595326,3.2179136-3.2760367,5.4569791,3.933886-.3289247,1.89561,3.947096,0,0-10.0619241-2.2390655-12.1781381-7.0368742,3.2760367-5.4569791ZM1026.8176388,125.0712782c5.6630522.5944422,7.3010706,4.6709944,6.5150859,10.84923h-13.0169621c.1943578-5.3275228,8.8756818-3.4821101,6.5018761-10.84923ZM1017.1559725,122.3117456c-.3355296-3.2905676,4.7344015-1.7093515,0,0,3.1597903,11.3062899-9.5335311.45706,0,0ZM1007.6224414,105.9989316c5.5203861,1.973548.3870479,4.9985981,0,8.0883764-5.7277803-1.973548-.4649859-4.8638579,0-8.0883764ZM994.7217258,122.3117456c3.8189606-10.7858228,3.8189606,10.7197737,0,0h0ZM131.5813093,605.9987661c10.3906979-3.3539748,2.3670498,8.8228427,12.8226267,5.3275228,8.8756818-3.3539748-10.1913804-5.4569791-6.3790247-13.4158991,12.4291248-2.3605959,5.1927824,11.8426089,19.2665305,8.0883764-16.1767523-16.2414809-1.7739281-23.4012065,3.2892466-40.7140043-10.1266522,9.6114693-17.2282544,21.7116698-32.2886257,27.1686488-.7874564-3.870479-5.2642663-4.6049453-6.3791756-8.2178327-4.4054768-19.801529,35.3785547-47.485361,44.9820979-73.2603732-20.7168181,17.6866358-35.4498878,40.6426712-54.5156289,59.6502896-14.2745375,1.3170196-7.9602409-14.9310662-25.7168883-10.7911067,7.5665881,19.0089394,33.2121433,22.6852339,38.539666,43.468253-21.047215,7.1082073-32.8184905-15.2613118-44.9186907-24.4593136.8573177-3.8823678,6.9721459-3.0963832,9.6035432-5.4569791-2.0382761-8.0236482-6.8426896,2.6313973-12.8927897,0-9.0751501-19.5373324,15.7183714-23.8780812,16.047296-43.4088087-6.4437529,8.0236482-15.3247186,14.1384766-19.2663811,24.3364622,4.4053274-28.1488179-63.2686088-54.915888-60.901408-84.1162081,2.501941-30.8449434,43.1446111-24.5940538,80.1677891-32.617702,15.6549642-3.4187029,37.6176201-18.2150289,51.3624436-27.2915002,44.7179014-29.3284554,92.9905667-79.3104734,118.7655783-124.9504218,29.4645158-52.3492189,57.2830874-91.4754021,102.660159-119.4947637,18.6801715-19.6601838,41.1710632-35.7722084,77.072727-40.7721275-3.2892466,55.9687112-22.5504931,110.1554168-35.3732708,165.7238702-1.9088198-25.8463453,14.2032044-79.2470663,16.0354072-105.9441243-10.7196154,4.4702051-5.8440268,22.226853-9.6616664,32.619023-6.966862-5.5930403-19.9243798-.986774-22.3629136,5.3922509-9.1398783-6.9734671,11.5784121-11.6431405,12.7646544-18.9376063-19.2731354,2.5600643-26.1739483,15.8478281-35.3204315,27.0907109,4.4754889.1347402,7.1016022-1.3156987,9.7329994-2.6261134-.4583809-3.488715,4.540217-1.7793635,0,0-2.6961254,7.6894396,4.3407487,6.9668622,3.1597903,13.4806273,8.2825606-8.417301,16.5704051-16.6404176,32.025901-19.0076184-2.2324605,8.9456941-5.069931,17.3629951-6.3737408,27.2254511-4.4107607-.8507128-6.1201122-3.8757629-12.8293825-2.7608536,11.6431402,11.2428828,11.9007318,38.6691232-6.4424319,46.1643784v-16.3709372c-7.1729353,1.3090937-1.3168623,13.4806273-3.2258394,19.1370747-17.6219072,10.3855651-35.5144595,20.6469578-51.1616542,32.619023,13.8742797,1.0515021,29.3931828-18.0221654,48.0071479-21.7050649-3.1597903,25.3879643-8.4873129,48.9305159-35.2490984,54.2580387v-8.2231166c-4.9338698,12.1002005-15.9191607,23.6772919-28.9348018,35.4498887-10.8558346-9.0117432-4.8704627-32.0325067-6.4503578-48.9305159-8.2178325,25.7802961,3.6828994,55.372948-16.1067403,67.8668013,4.6643894-1.443834,7.8889078-4.2112925,9.6629874-8.0883764,6.4437529,17.1648477,2.5666691,34.8567675,6.4437529,48.8605039,11.3776227,1.4504389,7.8307846-9.5982595,19.3365426-8.0236482,0-2.7608536,2.496657-3.2839627,3.2905675-5.5217072-2.5679901.6578493-6.4437529.0647281-6.5150859,2.7608536-7.2310585-2.8903099-2.5600642-18.2150289,6.5150859-16.306209v13.5453554c4.3407487.2641965,3.1531854,6.8374059-3.2905675,5.5217072-12.035472,11.5123632-23.7420194,23.4130953-38.6030731,32.4882457-2.7608535-10.390849,7.8241797-9.6682715,9.6684265-16.306209-12.6934765,3.5481592-7.6948786-7.8294638-15.9827231-8.1583884,2.8955938,15.1965837-16.4422698,25.4513715-22.4923699,40.7774114,11.0486981-.4002577,16.1120242-6.2508896,19.3378636-13.5519603,16.5704051,11.8426089-23.3496876,28.9348026-19.3378636,38.081286-15.6483593,3.941812-9.4688029-33.604476-19.3311049-43.4735369-4.5403708,16.4409493,13.0234133,42.023098-9.5389687,54.2580387,6.7079494,9.7329997,11.9060157-11.9707442,19.2731354-2.6313973-.2655175,8.875682-13.8742797,6.4437531-13.0234133,16.306209-10.7846552-2.6961255-6.2497221-22.3563093-15.7832532-32.5476899,2.4319289,15.3841632-1.9735479,44.2542376-19.4025917,51.4919012-.0634072,1.7727586-.3923318,3.2892466-3.1531854,2.7595326.3289247,3.2258395-4.7344015,1.6459443,0,0,.1281353-1.7080305.3289247-3.2892466,3.1531854-2.7595326-.986774-6.2508896.5944421-10.3274419,3.2258394-13.6166885-12.2296565-3.9404911-6.1795564,7.430527-16.048617,5.463584-4.468884-4.4120818-2.7595326-13.9456132-9.7329994-16.3128139,8.4173008,20.3246381-13.5453551,52.413947-25.516099,73.3898295-2.8903098,4.7991297-7.7594515,7.9589201-9.5982592,13.5453554-9.2746185-1.1875633-25.8450236-4.5415381-16.1118733-13.5453554ZM398.0550428,337.0295389c-3.2258394-9.405396.1281353-28.3430024,6.2495685-38.076002,6.3724198,9.1398785-.5931212,30.1804891-6.2495685,38.076002,3.02505,11.3128949-9.7977276.45706,0,0ZM375.4979447,375.0394919c-.5931212-8.5467573-.1347402-16.3775421,6.3790247-19.0736676-.3289247-3.2179136,4.6709943-1.6446233,0,0-2.3024726,6.2508896,5.7224964,21.2414-6.3790247,19.0736676ZM375.4979447,385.8887218c-1.3804268-1.1809584,2.0382761,1.8440917,0,0h0ZM388.2573152,304.410516c11.5704862,2.8255818-.9233668,28.9995307-3.2258394,38.0112739-9.2046064-6.7092706-.1928635-26.703663,3.2258394-38.0112739ZM385.0314758,391.3523058c8.0883762,1.1149093.2641965,10.4555772-6.3142966,8.1517835,1.1215142-3.6181713,5.6564473-4.2760206,6.3142966-8.1517835ZM391.5399568,353.2062917c8.2878445,3.8110348.7291824,16.7051458,0,21.8332002-9.8624557-4.9985981,3.7542324-12.9588392,0-21.8332002ZM346.627871,391.3523058c11.507079-2.6327183,5.6564473,11.6999428,3.0897782,13.6087626-6.9087387.3936528-1.4451549-9.5969385-3.0897782-13.6087626ZM349.7176492,385.8887218c-6.7726775-1.7093515-2.9603219-16.6351337,0-19.0023345,14.6668693.2641965,1.7740796,15.4541753,0,19.0023345ZM353.0068958,407.5924657c8.6114853,4.0131451-1.4517598,14.9257822-9.5399797,13.6814166,2.5031057-5.1346593,4.0830008-11.0486983,9.5399797-13.6814166ZM356.1615587,424.0347359c.2641965-1.7740796.4635083-3.2892466,3.1596337-2.7608536.7225775-8.2244376,13.4172198,2.6247924,0,0-.1345836,1.6446233-.3987801,3.2179136-3.1596337,2.7608536-.722734,3.8757629-5.3290002,4.5336122-6.4439095,8.0883764-7.9602409-1.1875633-.1294563-10.5203053,6.4439095-8.0883764ZM359.3211924,377.8003455c-2.7661375-11.5070793,3.3539747-15.4541753,9.6629874-19.1383957,5.1333382,2.7674585-.3289247,19.4673204-9.6629874,19.1383957ZM314.4672298,394.0484313c7.4305269-5.5930403,16.2414805-9.8043327,22.4923699-16.2480858,1.7093514,17.5637845,2.495336,24.3998693-6.3803457,40.7060784-10.7197734-9.4688032-17.2282544-3.8757629-16.1120242-24.4579926ZM317.6930692,421.2738823c-1.2522915-1.1875633,2.1664114,1.7093515,0,0h0ZM208.5891573,578.8433271c-16.048617-10.5269102,13.2813118-23.3496882,16.1767523-35.3851605,7.3010706,11.907337-15.5836312,21.311412-16.1767523,35.3851605ZM154.0021953,625.0645078c2.8955938-4.8493271,6.1201122-9.3908652,16.047296-8.2046228-3.6828994-21.2466839,18.8728777-20.253305,22.4910489-35.3204324,15.9191607,13.4158991-13.3510186,26.1105418-22.4910489,35.3204324,1.4519117,8.5401524-6.8374057,8.7475467-16.047296,8.2046228ZM320.9109827,769.096523h-19.2663753c-2.2378996-10.0632453,5.5217072-11.7012637,3.1543511-21.7631881-10.4555769.0515183-3.2192345,15.3775583-9.6629874,19.0023345-46.8275105-19.2084078-109.5675768-11.5202891-159.9432464-13.2877638.2007893.2708014.3289247.2708014,0,0-2.3672007-.0647281-4.5983403-.1928635-6.900662-.2708014-11.7080192,4.4120818-31.5029427-5.1214495-38.4050765-13.5968738,2.6261133-29.9929096,27.7485595-40.7774114,44.8486786-57.0968303,22.8199736-21.4395474,37.2226464-45.8209229,54.5156289-67.9315295,1.058107-1.2390817,5.6564473,3.2245185,6.4505103,2.7080143,16.3707843-36.7008592,47.5433305-67.4163462,73.8467351-92.4040528,34.0047329-32.0311857,62.0823729-89.3076696,109.1686401-89.6365943-22.5556205,27.4262404-60.9607028,42.4154298-83.581208,70.7637161-16.9693419,21.4342634-23.9428088,47.3506208-41.563395,70.5642477,21.6337313-7.8941919,25.9744799-39.3969846,41.563395-59.8444741,12.4304458-16.0472964,32.2187644-28.5411497,48.3309449-37.9452248-.6580056,17.8213761-4.2695719,19.3312592-6.5073163,37.9452248,3.8823677-.1994684,1.9088198,4.0065402,0,0-10.1913804,16.76459-23.1502192,31.3033243-32.1606412,48.9820343.3936528,3.3024565-4.6696733,1.6512282,0,0-1.8388077-4.7912038,3.8823677-16.0340866-3.1543511-16.3630113-11.1783095,15.2547069-1.1163854,29.1989991-9.6684265,51.7613816,2.5666691-.7344663,3.8123556-2.3738057,3.1597903-5.5335961,11.4436718,31.102535,9.5982592,40.1842902,3.3539747,70.7055929,12.0301881-2.6313973,7.2957866-19.2731359,12.7527656-27.232056,9.538815,4.6049453,17.2982665,10.7197737,28.8700737,13.6100836.2641965,8.4106961-3.8757628,13.0288512-6.2429635,19.0142233,12.3643967,2.5547803,13.0869741-10.6035272,22.2917371-2.8374706,2.7608536,12.3577921-7.5601397,13.6734907-9.5336876,21.8265953,10.3908488.7225775,15.3195914-3.1465805,15.9125558-10.7845018,27.7553218,34.2636463-39.4551069,53.935719-41.6294441,89.6445202ZM375.4979447,456.5229816c-2.5666691,2.4319289-3.4887149,6.2442847-3.2892466,10.9139581-2.4319289-4.3407488-10.1266522-4.0765523-9.6682713-10.9139581,4.8691417-3.0950622,8.1531043-3.0950622,12.9575179,0ZM346.627871,513.6713303c-1.7739233-12.4291251,6.3142966-38.6030741,9.5336876-48.9305159,12.89279,11.5070793-4.9353474,35.1856921-9.5336876,48.9305159ZM301.6446074,573.386348c3.7474723-10.6550455,3.7474723,10.7078848,0,0h0ZM298.4899459,584.235578c3.6776154-10.7197737,3.6776154,10.84923,0,0h0ZM343.466916,809.7959964c-1.5087183-1.1096254,1.9733917,1.7806845,0,0h0ZM340.1127851,785.401411c24.7948425.8652436,1.6446233,20.4474894,0,0h0ZM356.1615587,820.6584362c2.1015267,1.8322028-1.3805833-1.1228352,0,0h0ZM362.5404269,771.7926484h-31.9611728c2.5679901-36.637452,37.2886955-46.2991186,51.2977154-73.3251013,18.9376059,22.4976544-20.7816975,37.1526352-28.8700737,54.309557,17.4277228-3.2126296,27.2254504-21.8265953,38.533061-21.7499783,7.8941917,11.4304623-17.3577107,17.8794993-19.3312587,29.9162926,16.1120242-3.5481592,20.9758819-16.8346021,32.0959131-24.5240417,3.6115663,13.0816905-14.0088625,31.554311-35.3204315,32.6771462.1347402-3.4834311,4.2112924-3.7542325,3.2245184-8.1531045-4.6696733,2.3090776-10.1266522,4.0765523-9.6682713,10.84923ZM394.6997471,720.1012789c3.7476275.528393,2.8255817,4.9919932,3.3552957,8.2165117h-9.7977276c-1.7093514-6.0368904,6.1135073-3.869158,6.4424319-8.2165117ZM385.0314758,788.0975365c8.289323-9.3393469,7.6948809,13.9456132,0,0h0ZM381.8769694,812.5053317c6.966862.4636649,6.966862,6.902134,6.3803457,13.6100836-7.038195-.4649859-6.9734669-6.7726777-6.3803457-13.6100836ZM375.4979447,804.4037455v8.1015862c-7.1016022.5165042-10.3908488-2.1677324-9.6682713-8.1015862h9.6682713ZM372.2086981,793.5677254c3.8123556-10.7845018,3.8123556,10.6431567,0,0h0ZM368.9841797,828.8115407c-3.6828994-.3870479-2.5613852-4.928586-3.1545063-8.1531045,5.4571359-.9933789,5.9855289,2.1030043,6.3790247,5.4569791-2.6313972-.4649859-3.0897782,1.1215142-3.2245184,2.6961255ZM388.2573152,839.788906c-5.9866929-1.2509705-8.024969-5.9206439-16.048617-5.5203862,1.4451549-5.2641156,22.4910489-4.8638579,16.048617,5.5203862ZM391.5399568,804.4037455h-6.508481v-5.4437692h6.508481v5.4437692ZM391.5399568,779.944432c.3289247,3.2258395-4.6630684,1.5746112,0,0-.3936528-3.3539748,4.6049452-1.7793635,0,0ZM398.0550428,826.1154153c1.9088198-7.7528468-6.7092704,23.8780812,0,0h0ZM398.0550428,842.4203033c4.6696733,2.3090776,6.8426896,6.902134,6.2495685,13.6100836-3.7542324-4.398872-12.565186-8.6167694-6.2495685-13.6100836ZM404.3046112,818.0270389c-11.5782546-1.7159564-5.2627945-18.2929668-3.1611112-24.4593136,13.4172198,3.4054931.986774,14.6549808,3.1611112,24.4593136ZM420.3519073,796.1991227c2.1030042.1294563,3.8057507.451776,3.2126296,2.7608536,3.8836887-.2708014,2.0382761,3.947096,0,0-1.9735479-.1413451-3.8704789-.4002577-3.2126296-2.7608536-3.8823677.3870479-2.0381179-3.947096,0,0ZM420.3519073,771.7926484c2.1677324,1.7027466-1.3791058-1.1875633,0,0h0ZM423.5645368,777.1848993c1.7806845-10.84923-2.6961254,16.1120246,0,0h0ZM423.5645368,831.5723943c-20.1238482-1.3804268-6.6300114-14.5268455-9.6616664-29.9810208,15.1965833,5.5217072,12.035472,17.1569218,9.6616664,29.9810208ZM420.3519073,853.2695333c-12.6933213,1.7806845-9.1450043-10.2547878-9.6748762-19.0010135,12.8875058-1.7674747,9.2759395,10.3327258,9.6748762,19.0010135ZM410.677031,758.169355c-7.952315-1.0448972-.1281353-10.5137004,6.5150859-8.1531045-1.1875633,3.5613691-5.7277803,4.2826255-6.5150859,8.1531045ZM407.5291296,774.4887739c11.2362776,10.1900597-8.6233741,13.7382189,0,0h0ZM500.6438687,937.5085928c-43.0098709-4.9919932-58.9937598-32.6771462-83.4517517-65.1719968v-5.3922509c-4.7344015-2.3605959-10.2561085-4.1280706-9.6629874-10.9139581,8.4754241-.7873056,10.5784283,3.7542325,9.6629874,10.9139581,13.2864425,0,3.7410226-29.5160349,16.047296-21.7631881-5.4569789-9.0038173-1.8440916-17.3511063,0-27.154118,3.1479014,0,3.8059093,2.1664114,6.3737408,2.6313973,8.9522988-3.4834311-10.0632451-5.5217072-6.3737408-13.5453554,14.6034621.5931212,22.9494299,36.3006014,3.1479014,27.155439-2.6961254,8.7462257,2.7740634,10.3327258,6.5150859,13.5440344,7.7660564-5.1214495,14.6668693-11.0553033,12.7580495-24.3932644,8.023648-.4002577,9.9324678,4.2694157,16.0474555,5.3922509-2.8244202,4.8625369-9.0039766,6.900813-6.5139244,16.3696162,14.8610537-3.5468382,10.2032692-12.822778,12.8993946-21.7618671,22.8860227,1.6512282,12.5519762,23.0141586,9.7277155,38.003348,14.3960679-1.2377607,10.3196758-18.4078923,19.2084073-24.4579926,10.448972,3.4821101,6.7726775,3.947096,16.0340862,5.4556581,2.1809422,7.430527-6.6947396,5.2641156-9.6616664,8.1531045,9.2112113,3.2258395,3.1597903,9.482013,0,16.3709372,8.1531043.4002577,7.7660564-6.1663467,12.8229385-8.2046228,15.454014,7.0302693,14.473845,14.7831161,32.0957522,16.306209-5.7925085,13.2098259-20.8464257,18.4078923-25.6455553,32.6110971,15.3894467-5.1346593,17.5571791-21.3629304,35.2424935-24.3945854,5.7277803,9.5982595-2.1016832,6.5666044-3.0831733,16.2414809,10.5137001-.9801691,13.8042677-8.1531045,19.1966808-13.6087626,6.1146659,1.1215142,2.5017786,10.5903174,12.8226153,8.0883764-1.3804268-5.1346593-6.9021338-6.7092706-6.5018761-13.4806273,5.3275226-4.6709944,13.4807898-6.7726777,12.9523967-16.3194189,30.9081869,2.8374706,47.8075167,17.4924514,80.2257495,19.0789515-58.6569092,8.4754243-124.8870114,61.2249009-182.8860714,54.2461499ZM465.193981,820.6584362c3.8823677-.2589126,2.0382761,3.947096,0,0-12.4872481-.7225775.6578493-11.907337,0,0ZM532.6750537,847.8125542h16.1121856v8.2178327c-4.799291,4.1544902-16.7053068.2708014-16.1121856-8.2178327ZM558.3206089,853.2695333h15.9825679c-1.9735479,6.5150861-4.1399593,12.6946426-12.6933213,13.6748117-2.6961254-3.1479015-4.2826254-7.3539101-3.2892466-13.6748117ZM593.6410404,858.7397222c-1.2509705,9.7911229-5.2627945,17.2863781-16.047296,18.9891247-5.7277803-6.8374059,2.4887311-19.9825036,16.047296-18.9891247ZM1097.5113411,923.9632373c3.6895043-10.7845018,3.6895043,10.7845018,0,0h0ZM1164.9276856,883.2624429c-.7871286-13.2864428,9.5969382-17.1701316,9.5335311-29.9929096-17.9574368,22.8860233-29.0008509,51.5619133-60.967132,62.4758714,5.0050272-11.9588553,11.907161-22.4197164,19.1435034-32.4829618-16.7051454,4.6709944-16.9759468,23.4144163-28.6772102,32.4829618.2589126,3.3539748-4.7978086,1.7806845,0,0-2.1016832-12.1649286,12.7593705-19.5954557,6.3090127-27.0907109-21.0406101,21.1700669-26.3034046,55.7031937-61.018826,65.1719968,9.5335311-15.4541753,17.944227-32.0311857,22.485765-51.6266414-22.1621243,29.4645166-25.5808271,61.1601727-67.3397276,76.0212268-7.7660564-10.0619244,8.553362-23.4012065,12.7593705-32.4829618-17.6219072,5.9087551-20.8477466,23.9943277-28.8066665,38.004669-86.740828,21.9692614-139.0253187-55.5737374-214.9818173-76.085955,2.2957006-17.9574373,12.2294894-29.4645166,19.2082402-43.4735369h3.2113086c-1.2377607-3.947096-3.8044297-4.6696734,0-8.1531045-9.0038171,1.4451549-24.8582497-5.5217072-35.3072217-10.84923,3.0184451,10.2045905,16.8346016,10.9786863,25.7102834,16.2414809-7.3657987,13.7514287-18.6152861,24.1488826-22.485765,40.7774114-58.0768325-29.4631956-146.8562723-40.7774114-218.2063415-62.4111432-31.8384828-9.7396046-82.471744-30.3799575-99.3710738-51.6913695-20.9111538-26.1092208-17.2995875-60.5657306-44.9834188-86.9985921-.986774-6.3209017.3938105-10.3974539,3.1611112-13.5453554-30.9796828-6.978751-48.1430525-45.0468271-83.3936285-57.2249656-21.1106222-39.5779592,5.8572366-91.40539,41.6294441-114.0258958,34.7920385-77.2074692,60.0439409-189.5359023,64.2486284-260.8227276,6.5798141-2.5600643,2.7608535-14.0090203,12.8240986-13.6100836,6.6432213-39.4617128,12.6933213-92.3974479,16.047296-141.2632357,2.6313972-38.6043951,13.5453551-65.5656496,35.3851596-84.3090715,58.9277107-15.5836316,97.6549561,3.5534432,141.1932201,16.3762211,100.8147464,29.7934412,227.8694902-1.0515021,314.3528969,27.1620439,16.8346016,5.4556581,41.8870357,12.0354723,48.1299993,27.1607229-114.1540282,5.7859037-167.62476,77.0727289-198.9346884,144.0188054-10.6418354,130.6715973-122.2542932,191.5028454-215.0467126,260.9521838-9.8545298,1.7080305-6.1135073,1.7080305-15.9059509,0-40.9055457,19.4659994-45.6399472,63.0689926-77.0132828,92.2679916,4.3341438,8.9404101,7.5588222,19.0023345,6.3856297,32.6243069,35.8369357-12.2415456,84.7027222-11.5836963,99.4343196,27.155439,21.8913229-2.1030043,45.498602,5.2509058,67.403299,5.4569791,135.2076839,1.1096254,250.8200768,45.2542214,327.3049666,119.62422,41.8870357,59.9078812,128.8988355,87.2046654,214.9819844,57.0188923-5.5217071,25.2452982-21.1819552,41.8223087-38.4036048,57.1470276.1928635,3.2905676-4.7344015,1.5746112,0,0ZM988.349306,108.7597852c1.5732902,5.7925086-4.6696733,5.1333383-9.7396044,5.3275228.7357873-2.1030043,3.2245184-2.6313973,3.2245184-5.3275228h6.5150859ZM972.3006889,125.0712782c8.0251413-10.5903174,4.7344015,8.9470151,0,0h0ZM972.3006889,100.6066807c3.6895043-10.7845018,3.6895043,10.7197737,0,0h0ZM969.0761705,119.6156201c-3.8823677-1.1875633-6.5018761-3.490036-6.3722479-8.1597094,3.8821958,1.2509705,6.5017042,3.488715,6.3722479,8.1597094ZM959.5426394,133.1596546c-4.7991296-2.3024726-10.3195157-4.0118241-9.7263945-10.847909,8.5401522-.7939105,10.5784283,3.7463066,9.7263945,10.847909ZM943.3658871,111.4559107c14.6681903,1.7793635-2.5666691,16.4409493,0,0h0ZM936.9934673,135.9205082c-6.5150859-1.973548-13.0288509-8.2812398-6.3856297-13.6087626,6.3856297,1.9022149,13.0803692,8.2812398,6.3856297,13.6087626ZM927.3185911,116.8547665c.9154409,4.4054769-3.0184451,4.6630685-3.2258394,8.2165117h-6.3076917v-8.2165117h9.5335311ZM914.5605416,130.400122c.9154409,7.2297377-6.7092704,7.1016024-12.9520636,8.2165117,2.8254113-4.0118241,4.927265-8.6101645,12.9520636-8.2165117ZM888.9138354,144.0802176c-3.9472659-1.1862424-6.7081194-3.490036-6.513935-8.1597094,3.9470959,1.1228352,6.7079494,3.490036,6.513935,8.1597094ZM869.5771227,149.4724685c.3355296,3.3539748-4.6062662,1.6446233,0,0-.1941844-3.2892466,4.6696733-1.6446233,0,0ZM827.8183908,260.9369791c-11.1836068,4.0118241-19.4014392,10.6550455-28.7407859,16.1833577.2060733,3.3539748-4.7344015,1.7740796,0,0-.0647281-18.8794831,20.8464257-20.1951818,25.5808271-35.2504203,11.7131523,2.1030043-.3870479,8.6762136,3.1599587,19.0670626ZM808.687753,250.0877491c-4.7344015-6.902134,6.1148282-23.6072798,12.7580495-29.9863047,8.6696085-1.9088198,6.1795564,5.6564474,9.7278841,8.2878447-.7874742,12.8875061-18.4093814,11.5070793-22.4859336,21.6984599ZM693.0634712,445.6684677c-5.9734831-3.8123557-9.1980015-10.2561088-19.1317903-10.84923,11.6365353-18.7447429,47.4219526,2.6313973,19.1317903,10.84923ZM680.3174753,625.0645078c7.5598184-7.1597256,8.4752593-19.9825036,22.4856002-21.7618671-.1941844,3.7542325,1.4451549,5.9206439,3.1597903,8.0236482-3.031655,9.404075-9.9324678,15.32604-19.2718145,19.0023345,1.5085621,8.7462257-14.7329184,2.1664114-16.1133452,8.2944497-7.1082071-7.2363426,5.3922508-12.4225202,16.1133452-8.2944497-.4002577-3.2258395-.98149-6.2442847-6.3735761-5.2641156ZM709.2534333,616.8598849c7.5586622.8520338,5.8427058,9.3921862,15.9693581,8.2046228-6.7079494,6.1148284-14.9244609,10.7845018-28.8053455,10.7845018,3.4305917-6.9655412,11.583696-10.0619244,12.8359875-18.9891247ZM651.4472369,630.3286234c.2577556,4.4120818,8.0883762,2.1664114,6.437148,8.2944497-7.5599831-.9154409-12.1649283-4.2694157-22.5491722-2.7740634,2.3605958-5.5203862,9.7263945-11.0420934,16.1120242-5.5203862-6.0501001-9.3921862,2.425324-8.7462257,6.437148-16.1767527,4.6696733,1.443834,8.023648,4.0765523,12.6933213,5.3922509-4.6049452,5.1980665-7.1082071,12.0486822-19.1304693,10.7845018ZM584.0310547,608.7596197c1.8439293.076617,3.8822054.3989367,3.2243561,2.5666692,3.8836887-.1294563,1.9088198,4.1412804,0,0-1.9088198-.0647281-3.8187983-.3223198-3.2243561-2.5666692-3.9485792.2708014-1.9737103-3.870479,0,0ZM558.3206089,527.2166857c.7225775,2.1030043,2.6961254,3.2258395,6.513765,2.7608536-.1413451,3.4187029-4.1531691,3.7476276-3.2245184,8.1531045,14.0737481-7.430527,30.3152286,14.4740062,15.9838889,24.4011903-10.52691-.1294563-7.7013283-11.6431405-19.2731354-10.84923-1.3156986-6.5150861,5.9206438-5.9219649,3.2892466-13.5519603-6.2441229,1.1215142-5.8572366,7.6947236-16.1118628,5.3275228,2.3604345,8.3525729-3.2260007,9.933789-3.2260007,16.3762211-4.540217-.6578493-5.4556579-4.4688841-9.5969382-5.5203862.8507128,15.1899787-2.6313972,26.8384032-19.2731354,27.2254511,11.507079-18.4144972,17.9574368-29.7287131,25.7750116-54.3227669,4.6049452.458381,2.9669268,6.5798143,3.0950621,10.9139581,9.3406676-.3223198,5.6511634-11.7012637,16.048617-10.9139581ZM603.3041906,527.2166857c-.064891,8.0883764-8.4240685,9.2759397-9.6631502,16.2414809-15.660086-7.6947236-22.562382-24.200401-41.7707893-21.6337318,10.126814-7.9589201,13.8808847-15.7830999,28.8700737-10.84923-.0634072,3.4187029-3.9470959,3.7476276-3.1465804,8.0883764,11.6352143-8.417301,17.492451,5.3275228,25.7104462,8.1531045ZM612.9656941,557.0748551c-10.2559457,2.430608-9.997196-4.2773416-16.1120242-5.3922509,1.1862423-8.9470151,9.4040748-11.9720652,12.8875058-19.0736676,7.4424157.9220458,7.1068861,8.417301,12.7580495,10.84923-2.8903098,4.8704628-13.0169621,3.6181713-9.5335311,13.6166885ZM529.4492143,584.235578c8.3474499-.7225775,2.5032619,10.6431567,12.8227776,8.2178327-3.0184451,12.4357301-23.2068608-1.3804268-12.8227776-8.2178327ZM539.1769298,570.6254944c10.6550453.7225775,20.7169694,10.9139581,12.6933213,19.0670626-11.3010057-.3355296-12.7580495-9.0038173-12.6933213-19.0670626ZM551.8702511,554.3140015c13.0288509-1.7806845,7.8955127,11.5136842,19.2084073,10.9707604,0,5.3407326-8.6167692,3.4319128-6.2442845,10.8624398-13.3511707-3.1597903-23.7484631-12.3062738-12.9641228-21.8332002ZM561.6098555,589.6925571c8.3459678-.7873056,10.52691,3.8189607,9.4688029,10.9905751h-12.7580495c-1.3156986-5.7277805,2.2311395-7.3010707,3.2892466-10.9905751ZM567.9175472,586.9964316c-3.6762944-7.9589201,15.5190653-10.0619244,6.3856297-13.6100836,5.6511634-9.5454202,5.3922508,7.8955129,16.048617,2.7608536-2.8387915-4.7991297-8.8888916-6.9140229-6.3207392-16.3128139,9.6747139-3.4173819,12.4355674-2.1016833,19.2731359,2.6974464-3.7543952,4.9985981-8.4240685,9.2032857-12.9523967,13.6153675-2.8387915,4.7991297-7.573193,7.8955129-9.611469,13.5453554-5.9853719.6578493-7.0302691-2.9669269-12.8227776-2.6961255ZM587.2554107,605.9987661c-2.1030042-9.933789,2.1677324-14.5255245,6.3856297-19.0023345,4.0765522.1941844,4.3988719,3.4834311,9.6631502,2.6961255,1.3155358-6.5018763-5.8573994-5.9206439-3.2260022-13.5453554,6.3090127-.076617,4.1412803-7.430527,12.8875058-5.5217072.5931212,3.1479015,3.560048,4.3354648,6.3209015,5.5217072-4.0765522,5.5864354-5.1346592,13.880885-15.9824051,13.5453554,4.1397965,4.928586-3.0318178,17.6219077-16.0487798,16.306209ZM603.3041906,625.0645078c3.8822049-.3223198,1.9733851,3.9484169,0,0-12.630077-.7740958.5929584-12.0222625,0,0ZM612.9656941,600.6831322c14.9389917,2.8903099,5.7925085,17.0287865-6.437148,18.8609894-9.0170269-7.8175749,2.953717-13.4172201,6.437148-18.8609894ZM635.3352127,616.8598849c1.5732902,8.7475467-11.4436718,19.1317908-12.8359875,16.3709372-15.1833735-2.9021987,2.6961254-25.3232362,12.8359875-16.3709372ZM645.0616072,616.8598849c-13.8808847-1.9854368-18.8728777-10.7329835-9.7263945-18.9494952,9.2614087,1.1862424,14.7185516,5.6630523,16.1120242,13.4158991-2.8387915,1.3156987-5.7277803,2.6313973-6.3856297,5.5335961ZM625.6590155,603.3026406c-11.1068213-2.2324606-11.3128946-13.9456132-3.1597903-19.0670626,2.6961254,1.5098831,5.1980663,2.8903099,9.7396044,2.7608536,2.4386974,9.404075-3.6128873,11.4423512-6.5798141,16.306209ZM622.4992252,573.386348c-5.9734831-.2575916-2.1675691-8.952299-9.5335311-8.1015862,2.9021987-7.4239221,9.8043325-11.5638816,12.6933213-18.9944086,5.0052029,2.960322,8.024969,7.7594517,12.8875058,10.7845018-10.6418354,6.5071602-6.3076917,9.0104222-16.047296,16.311493ZM641.7723607,524.4558321c8.2814036,2.0382761,11.1834383,8.6114855,9.6748762,19.0023345-7.1082071-1.3804268-4.6695094,5.2627946-9.6748762,5.463584-19.5954552-1.3870317-4.8638578-19.6020606,0-24.4659185ZM625.6590155,535.3050621c-19.7235905-1.5798952-2.7595326-15.324719-3.1597903-24.3298573,11.0554666-2.0382761,4.088441,10.9139581,16.047296,8.0883764-.6578493,8.3525729-8.8755183,10.5850335-12.8875058,16.2414809ZM612.9656941,521.8244348c-13.932403,1.6446233-10.1913804-11.4423512-22.6139003-10.84923v-5.3922509h-3.0963831c.2575916,3.1545064-4.6696733,1.5098831,0,0-8.3459678-4.93387,5.1346592-9.6035434,3.0963831,0,5.8440268-2.6313973,10.1266522-6.1848405,12.9523967-10.9839702,14.0088572,4.1399594,19.5952924,15.9125562,9.6615036,27.2254511ZM513.4019182,595.1495361c-6.966862.4636649-10.1913804-2.1677324-9.6629874-8.1531045,7.0964787-.528393,10.2561085,2.3090776,9.6629874,8.1531045ZM744.4311987,630.3286234c-.1928635-3.2258395,4.7344015-1.5098831,0,0,.3238071,3.4305918-4.6049452,1.8440917,0,0ZM747.7217662,614.1518706c-1.3155322-1.1096254,1.9088198,1.8440917,0,0h0ZM760.4798157,597.9103897c5.7147374,1.973548.528393,4.8625369,0,8.0883764-5.5983241-1.9616591-.4649859-4.9933142,0-8.0883764ZM805.3337783,625.0645078h-12.7580495c-1.3156986-5.6498425,2.1664114-7.2231328,3.2113086-10.9126371,4.7344015,2.3738057,12.5004579,2.1664114,9.5467409,10.9126371ZM805.3337783,654.7998257c1.3804268-.9154409-9.5467409-2.7608536-9.5467409-2.5666692-.9154409-4.2826255,17.3643156-3.870479,9.5467409,2.5666692ZM795.7870374,597.9103897c11.056624,6.978751-16.5638002,6.5137651,0,0h0ZM799.0776049,633.2308221c4.8757466,3.4834311-18.3444847,11.4423512-12.8875058,2.6181875.6578493-1.1083044,9.2746185-5.1848566,12.8875058-2.6181875ZM776.5271118,592.4534107c-18.2916454,6.0501002,2.1030042-12.6167047,6.437148-19.0670626,19.532048,5.7145707-12.8860178,16.6417386-6.437148,19.0670626ZM782.9642597,646.7761775c-.0634072,2.6961255-3.9470959,2.1677324-6.437148,2.6961255.1296235-2.6313973,3.8704789-2.1030043,6.437148-2.6961255ZM770.1414821,614.1518706c5.1993873-.7225775,5.5217071,2.5666692,9.5982592,2.7080143,1.3158659,5.2509058-14.6548135,3.9999353-9.5982592-2.7080143ZM766.8522356,633.2308221c8.1532715-10.5916384,4.7991296,8.9404101,0,0h0ZM829.8564984,642.8924887c-.1928635.3870479-.7859846,1.4451549-2.0381076,3.8836888-4.7979771,9.6616666,1.252123-2.4385339,2.0381076-3.8836888ZM824.658432,657.5606794c-3.9469276.4002577-1.9088198-3.8057508,0,0,3.8189606-.1928635,1.9735479,4.0118241,0,0ZM827.8183908,633.2308221c-4.6051137-2.3738057-12.2932321-2.2311396-9.4676504-10.925847,2.8242607-2.1677324,7.1716143-2.8903099,12.8229462-2.7608536.8505442,6.3209017-.5944422,10.5903174-3.3552958,13.6867006ZM818.3507404,644.0153239c-2.8255817-.4636649-3.0963831,1.1228352-3.1609431,2.7608536-3.8836888-.4002577-2.890478-4.9404749-3.418871-8.1531045,5.5864352-.9933789,6.2442845,2.1677324,6.5798141,5.3922509ZM827.8183908,595.1495361c-.1930319,7.8941919-1.1216827,15.2613118-12.6285935,13.6100836-2.6315654-10.2561088,3.3538065-13.2098259,12.6285935-13.6100836ZM831.1736865,586.9964316h-12.8229462c2.6961254-4.0118241,4.7330805-8.5533622,12.8229462-8.1531045v8.1531045ZM808.687753,584.235578c1.2390816-3.2892466,4.011824-5.5335961,9.6629874-5.3922509-1.4451549,3.3539748-4.2060084,5.5864354-9.6629874,5.3922509ZM847.1560859,589.6925571c-.4636649-4.8757467,3.9470959-5.6498425,3.2258394-10.84923,11.2996847-2.9021987,8.5388312,16.7064668-3.2258394,10.84923ZM850.3819253,616.8598849v-5.5335961c2.6313972.5931212,3.0184451-.9154409,3.0184451-2.5666692,6.3857989-1.1096254,4.8625368,12.3710019-3.0184451,8.1002652ZM840.7057281,565.2847618c.4649859-6.7660728,10.8492297-.7727748,12.6946423,0-.3870479,6.7858875-10.7209255.8005154-12.6946423,0ZM843.9315675,597.9103897h9.4688029c.9933789,7.8941919-5.9866929,9.3393469-9.4688029,13.4158991-9.3406676-2.1677324,1.9088198-8.6048806,0-13.4158991ZM856.6248888,625.0645078c5.327692,13.3657018-10.9139578,17.0419963-19.0657412,10.7845018-.3353609-9.3261371,6.3724198-12.5519765,19.0657412-10.7845018ZM847.1560859,660.3862611v-8.1531045c9.2759395-4.0118241,9.2759395,12.0354723,0,8.1531045ZM847.1560859,665.855129c-13.3511707,2.5547803-.7225775-8.2944497,0,0,13.3524916-2.7080143.6578493,8.0764875,0,0ZM837.5591476,646.7761775c3.6762944-10.7197737,3.6762944,10.7197737,0,0h0ZM930.6078376,627.773843c5.6500136-.4002577,6.7079494,3.2773578,12.7580495,2.5547803-1.2509705,5.3407326-12.3577918,2.2443494-9.5969382,10.9905751-6.9800718.4649859-1.4451549-9.5982595-3.1611112-13.5453554ZM972.3006889,616.8598849c-12.4225199-2.3090776-3.2245184-14.0869583,0-18.9494952,13.6100832,3.4187029-3.0950621,8.8109538,0,18.9494952ZM969.0761705,625.0645078c10.2693184-2.2958677,9.8043325,4.2192184,15.9838889,5.2641156-1.5746112,4.1531692-4.6696733,6.978751-6.4503578,10.9905751-8.7460534,2.0382761-6.3090127-5.3922509-12.6814325-5.4701889-.528393-4.8493271,3.8057507-5.7145707,3.1479014-10.7845018ZM1001.1720836,619.5441215c10.3195157-.5944422,15.4543481,3.3024565,15.9838889,10.7845018,4.4622791,0,7.0302691,1.3923156,9.6616664,2.9021987,1.058107,7.1082073-4.3341438,8.9404101-12.8227776,8.0883764-.8520337-5.1980665,3.6895043-5.9853721,3.1611112-10.9905751-8.7475465,5.4688679-13.6100832,5.4688679-22.4342467,0,.1426661-5.2641156,8.8241634-3.3539748,6.4503578-10.7845018ZM1036.5572432,660.3862611c13.5453551.2575916-1.7159563,24.9229784,15.9059509,21.697139,8.2944494-.6446395-4.3341438-4.6696734,0-10.8360201,9.8043325,1.896931,11.585017-2.8374706,19.2731354-2.8374706,9.7396044,11.7646709,21.504275,21.7750769,35.3204315,30.0576377-13.7514284,39.9901058-50.5817429,60.2949291-83.4636406,84.2377385-15.7130875-5.7277805-19.532048-21.5042755-35.2438145-27.2967841,9.4688029-5.1861776,26.4328609,6.5282959,35.2438145,10.9271679-1.9748689-20.8477472-41.2291864-10.3340468-38.533061-35.3085435,12.4357297.3870479,14.8610537,9.1332736,28.9348018,8.1531045.4651591-6.7858875-7.1729353-6.5784933-9.5982592-10.8624398,20.9758819-23.9943277-11.2481664-60.6951869,22.4210369-73.5179648,1.1228352,23.4791445-1.8440916,46.2211807-3.2245184,59.9092022,15.0023988-9.0170271,4.9404747-39.3335775,12.9641228-54.3227669ZM1078.1866873,823.4192898c-18.4224227-5.6511635-27.0391919-25.9044685-48.1445301-29.8515645,31.8898398-25.5160996,71.9446727-44.2740523,86.6775911-84.3156765,38.3388766,38.2107423,75.4267827,62.2050699,121.7906283,95.1516966-45.7059963,4.7991297-106.4011816,35.5278266-160.3236894,19.0155443ZM1232.1379569,842.4203033c-1.2522915-1.1215142,2.1664114,1.7674747,0,0h0ZM943.3658871,682.0834001c-7.6232191,1.1228352-6.9008129-4.927265-16.047296-2.6313973,2.0382761-7.430527,13.4158988-6.8374059,12.8875058-16.3048881,9.0170269-2.2971887,8.3591776,3.8176397,15.9825679,2.7080143-3.6115663,5.844027-10.6550453,9.0051383-12.8227776,16.2282711ZM943.3658871,695.6287555c.3223197,3.3539748-4.7344015,1.7159564,0,0-.1928635-3.2760368,4.6696733-1.5732903,0,0ZM882.3999004,676.6396308c3.2892466-3.5600481,8.6814973-5.2627946,9.6748762-10.7845018,2.4900521,1.367217,5.1216196,2.8123719,9.5337014,2.5547803,1.0447269,14.2679329-10.397624,14.6668696-19.2085776,8.2297215ZM885.6891469,687.553589c-1.3156986-1.1228352,2.0382761,1.7806845,0,0h0ZM866.4160115,668.4099093c-1.0448972-8.6814976,8.6814973-14.3973892,15.9838889-8.0236482.528393,6.7845666-4.8638578,8.4106961-9.6629874,10.8611188-.2708014,3.2773578-.8505432,6.373741-6.3209015,5.3922509v-5.3922509h6.3209015c-.5931212-2.1148931-2.6313972-3.1730002-6.3209015-2.8374706ZM898.5119246,663.1471147c4.1412803-7.3539101,6.8374057-15.9706795,22.4976538-13.6748117-3.48211,9.4688032-8.9521281,20.253305-22.4976538,13.6748117ZM895.1579499,635.8490096c1.1228352-9.9192582,13.8161565-10.0619244,16.047296-18.9891247,3.0318256,2.2192507,7.3671197,2.955038,12.8875058,2.6842366-4.3988719,7.1716145-13.4158988,10.3327258-15.9706791,19.0789515-5.7911875.3223198-6.7845664-3.3539748-12.9641228-2.7740634ZM908.1220726,684.8442537c-.6578493-5.9074341,2.6195084-8.6035596,9.6629874-8.2046228-1.9088198,3.9352071-5.069931,6.6313326-9.6629874,8.2046228.3870479,3.2258395-4.6696733,1.6512282,0,0ZM933.7689489,684.8442537c-.5944421,7.5731932-5.599645,11.5070793-15.9838889,10.7845018.4002577-7.7528468,3.9470959-12.8742963,15.9838889-10.7845018ZM940.2060968,654.7998257c-14.8610537-4.8625369,2.8374705-15.7249767,6.3856297-21.5690037,14.2032044,4.398872-5.2641155,13.7382189-6.3856297,21.5690037ZM965.9282691,641.3191985c1.3804268,2.425324,2.8903098,4.8638579,6.3724198,5.4569791-4.540217,6.978751-7.5586622,15.4541753-19.2718145,16.3709372-10.7845016-6.5798143.528393-19.4025922,12.8993946-21.8279162ZM959.5426394,673.9316165c14.4092777,1.1215142-3.6115663,15.1318555-9.7263945,16.3048881-1.7806845-9.5969385,11.4423509-6.7079496,9.7263945-16.3048881ZM959.5426394,714.709028c-5.7145705-.7873056-7.4305269-4.6062663-6.513765-10.84923,9.6750481-2.8387916,5.7277803,6.0501002,6.513765,10.84923ZM959.5426394,728.3177906c3.8189606-.3223198,7.495255-.7859846,6.3856297-5.4556581,10.3208367.3223198,14.1384763,6.2561735,12.6814325,16.3180979-4.3988719-5.3407326-19.1950257-1.7806845-19.0670622-10.8624398-4.1399593-.1928635-4.6049452-3.5468382-9.7263945-2.7595326,1.0448972-7.430527,11.2364494-5.7277805,9.7263945,2.7595326ZM969.0761705,701.0989444c13.6867002-2.503262,13.2230353,15.248102,9.5335311,19.0023345-10.0619241-.451776-10.7845016-8.875682-9.5335311-19.0023345ZM965.9282691,671.2473799c.6578493-10.3327258,9.920579-13.2349245,12.6814325-21.7750769,2.7729147,1.5098831,5.2627945,2.8255818,9.7396044,2.7608536-9.8043325,4.3341439-8.4886339,18.2916459-22.4210369,19.0142233ZM1004.396602,701.0989444c-8.0883762.3870479-9.997196-4.2060086-16.047296-5.4701889,4.3341438-8.5388314.7225775-9.0038173,0-18.9891247,4.2694156-2.7080143,9.598432-4.4107609,12.8227776-8.2297215,7.3657987,5.6498425,1.058107,22.6918389,3.2245184,32.6890351ZM1001.1720836,728.3177906c-15.9838889,1.7159564-13.0169621-12.4872484-12.8227776-24.4579926,7.6881185-1.1228352,6.9021338,5.005203,16.047296,2.6313973,1.3804268,9.404075-1.3156986,15.32604-3.2245184,21.8265953ZM1004.396602,652.2331566c-8.0883762-1.1096254-.1928635-10.5784285,6.437148-8.2178327-1.1083044,3.5481592-5.5851142,4.3473537-6.437148,8.2178327ZM988.349306,649.472303c-5.9853719-5.1346593-.335357-6.8374059,0-13.6232934,6.7079494-1.1083044,8.4888066,1.8586225,12.8227776,2.7740634-.4649859,6.9655412-4.7344015,10.5137004-12.8227776,10.84923ZM981.83422,625.0645078c-7.1597254-6.5652834-.4516037-16.3564064,3.2258394-21.7618671,5.7911875,2.501941,9.997196,6.0501002,12.8227776,10.84923-.4649859,7.6366003-5.3922508,11.6352146-16.048617,10.9126371ZM953.0288745,630.3286234c-7.8823029-6.2442847,4.7345732-4.928586,3.1597903-13.4687384,5.3275226-.7991945,5.5864352,2.6327183,9.7396044,2.6842366-3.8176396,4.1531692-2.7727424,12.1768175-12.8993946,10.7845018ZM943.3658871,603.3026406c2.955038-4.7991297,7.8307846-7.9602411,9.6629874-13.6100836,4.9404747,4.0118241,6.6432213,10.6550455,6.513765,19.0670626-8.1531043.3989367-9.9324678-4.3354648-16.1767523-5.4569791ZM933.7689489,597.9103897v-13.6748117c9.0685452-2.1796213,8.3459678,3.8057508,16.047296,2.7608536-6.9787508,2.3090776-7.2376634,10.1913806-16.047296,10.9139581ZM949.8162449,611.3262889c1.0448972,6.450358-.5931212,10.5916384-3.2245184,13.7382189-4.7344015-1.443834-8.0882049-4.0765523-12.8227776-5.5203862,1.4438339-9.4688032,6.7726775-11.4304623,16.047296-8.2178327ZM917.78506,671.2473799c1.0448972-7.2495524,8.0883762-9.5454202,9.5335311-16.4475542,12.2930636,2.5679901,2.3739767,18.1503007-9.5335311,16.4475542ZM924.0927517,646.7761775c-2.425324-1.3804268-5.1848565-2.9021987-9.5322101-2.7608536,0-5.3275228,8.6814973-3.3539748,6.4490368-10.7845018,10.6563662,2.4385339,1.4451549,4.9919932,3.0831733,13.5453554ZM917.78506,614.1518706v-5.3922509c2.6961254.4636649,2.953717-1.1096254,3.2245184-2.7608536,6.1795564-.9801691,4.5283282,12.4357301-3.2245184,8.1531045ZM924.0927517,592.4534107c-4.9919931-4.8638579-14.7315974-5.5864354-15.9706791-13.6100836,7.3539099-.8639226,12.3591128.451776,15.9706791,2.6961255v10.9139581ZM895.1579499,567.9940971c.7873056-4.8691418,5.5983241-6.1848405,12.9641228-5.462263,3.0831733,8.1464996-7.1068861,4.8691418-12.9641228,5.462263ZM898.5119246,578.8433271c3.6895043-10.7845018,3.6895043,10.7197737,0,0h0ZM898.5119246,592.4534107c9.8043325-2.0382761,11.6484241,2.7608536,19.2731354,2.6961255,2.2958677,8.4239059-8.8109536,5.2627946-6.5798141,13.6100836-4.1399593.3989367-11.7646706-9.1332736-12.6933213-2.7608536-9.4040748-2.2958677,4.1412803-6.8374059,0-13.5453554ZM901.608478,611.3262889c2.5664988,8.4886341-8.6816677,5.3275228-6.4505281,13.7382189-7.0302691-1.89561-1.3804268-15.5823106,6.4505281-13.7382189ZM892.0747766,638.623073c4.0765522.1294563,4.3988719,3.5481592,9.5337014,2.6961255-.1943548,7.9470312-7.3012409,10.1266525-12.6946426,13.4806273,0,1.6380184-2.6315673,3.2126296-3.2246884,0-9.3393466,4.1412804-9.3393466-12.0354723,0-8.0236482v8.0236482h3.2246884c2.6959554-9.5335313.2587426-6.5784933,3.1609412-16.1767527ZM885.6891469,630.3286234c-2.7608535.5931212-3.0831733-.9801691-3.2892466-2.5547803h-6.437148c1.4453246-5.1346593,6.965541-6.8374059,6.437148-13.6219724,7.043479.3989367,1.3804268,11.5836963,3.2892466,16.1767527ZM866.4160115,595.1495361c4.9404747-4.8638579,5.2641155-13.6100836,19.2731354-10.9139581v16.4475542c-6.1795564-2.3090776-11.6363657-4.6181551-19.2731354-5.5335961ZM866.4160115,573.386348v-13.5519603c5.599645,3.2905676,16.9125396,1.974869,19.2731354,8.1597094-.3870479,6.9668622-10.7845016,5.3922509-19.2731354,5.3922509ZM866.4160115,584.235578c2.116214,1.8454127-1.4451549-1.1215142,0,0h0ZM866.4160115,603.3026406c9.081755-2.2971887,8.2957704,3.8176397,15.9838889,2.6961255-5.1214494,4.6696734-6.9021338,12.3062738-12.8227776,16.306209-11.9720649,2.2443494-6.0501001-16.7711949-3.1611112-19.0023345ZM872.736913,630.3286234c13.5453551,3.6247762.3870479,16.4475542-9.5322101,16.4475542-6.9800718-6.3076918,4.3988719-12.1649286,9.5322101-16.4475542ZM860.0435917,654.7998257c3.5481591-10.5903174,3.5481591,10.9139581,0,0h0ZM1216.2187962,845.1811569c-3.6762944,12.2943849-17.0935142,16.3709372-25.7750116,24.4725234,1.7027465,0,3.6128873,2.1664114,0,2.6829156.3870479,3.3539748-4.6696733,1.6512282,0,0v-2.6829156c-11.4421735-3.6895044,16.5638002-17.827981,22.5504931-24.4725234-10.3855648-10.7845018,6.9140227-21.1687459,19.1436791-21.7618671-1.9101408,10.9773653-15.6615691,11.9707442-19.1436791,21.7618671h3.2245184c-.4649859-3.2892466,4.6696733-1.6380184,0,0ZM1241.7350741,845.1811569c-.5933001,2.0382761-2.6315762,3.1611113-6.3725988,2.6313973-.1413451,1.6393394-.4002577,3.2905676-3.2245184,2.7608536-.7225775,2.1030043-2.6313972,3.2258395-6.2574943,2.6961255-.3223197,1.7159564-.5799113,3.2905676-3.2760367,2.7608536.3223197,3.3024565-4.7344015,1.7159564,0,0,.1294563-1.7027466.4519545-3.2760368,3.2760367-2.7608536.6578493-2.1030043,2.5679901-3.0950622,6.2574943-2.6961255.2577703-1.6380184.528393-3.1597903,3.2245184-2.7608536.6578493-2.0382761,2.7608535-3.0831734,6.3725988-2.6313973-2.8891678-11.3128949,9.5980803-.5799114,0,0ZM1257.9116475,823.4192898c-4.6696733,5.9853721-10.5903171,10.9773653-19.4012707,13.5453554.9286507-9.2759397,9.6748762-11.7659919,19.4012707-13.5453554-.3223197-3.3539748,4.6062662-1.7027466,0,0ZM1418.2485467,614.1518706c-40.5183154,63.5973856-52.8776106,168.166367-64.1903234,228.2684327-4.2709184-.0634072-6.9023156,1.2522915-9.6631691,2.7608536-21.9045327-3.1597903-34.4565089-14.2679329-51.3043204-21.7618671,1.1875633-9.5982595,8.8888916-6.7079496,3.2905675-16.306209-6.966862,1.7027466-10.2561085-7.6366003-9.5982592,2.6829156-11.5718072-7.0949975-18.9376059-2.6313973-22.4855855-13.5968738-105.8201288-36.5714029-158.3622098-123.7773892-240.7043362-182.0472521-9.0698662-6.373741-22.9494299-3.4834311-22.4210369-16.2414809-43.7324484-24.730115-113.0444029-67.8681223-176.5136515-35.3785556-5.1861775-.1294563-1.7673063-7.5599833-6.3076917-8.2178327,2.6961254-10.1979856,23.3483666-5.463584,25.5808271-16.1833577,7.3010706-.8520338,3.48211,7.8307848,9.4688029,8.1597094,10.1266522-4.4054769-6.437148-8.6828185-6.2442845-13.6814166-14.7315974,2.960322-25.0524341,9.6682715-38.4683329,13.6814166-4.7344015-11.4436721-17.5703889-15.9191611-25.7234932-24.4659185,4.541538,20.5822297,25.9176777,26.8965264,35.3864806,43.4603271-13.4819479-2.2245347-12.036793,7.8955129-19.2731354,10.8624398-11.507079-9.3393469-25.2466185-16.6417386-28.9361228-32.6890351-4.4636.7225775-3.6115663,6.0501002-6.437148,8.2244376,8.6828183,3.4187029,10.1266522,13.1517026,19.2599256,16.311493-9.997196,5.1861776-12.3576247,16.6932569-25.5806604,19.0023345.5295473-6.7726777-4.9921598-8.4754243-9.6618331-10.84923,4.4636-7.1082073,10.8492297-12.5651864,15.9825679-19.0723466-14.4092777-1.7093515-12.8227776,19.794924-25.6587651,10.9192421-.6578493,12.2296568,11.3789437,13.880885,16.1133452,21.6984599-1.7025799,14.9257822-12.8227776,21.9560516-22.6137343,29.8515645-8.6829844,2.0382761-6.3223885-5.2641156-12.7595365-5.3922509-1.3156986-12.8875061,12.036793-13.2877638,12.7595365-24.4593136-11.8427746.7873056-8.6182562,14.3445499-22.2917466,13.6100836-11.4423509-19.6601838,29.6573793-36.7523775,35.1777654-59.8444741-23.942643,7.7594517-31.5014709,60.7083967-57.7401473,40.7774114,14.2666116,14.2679329-3.8189606,20.783019-9.5982592,32.6243069-32.9466258-7.6366003,5.3275226-25.3866433,9.5982592-40.7126833-15.7778156,3.8189607-19.1317903,18.2150289-28.8066665,27.155439-7.5599831-.7873056-6.0501001-9.404075-16.1120242-8.1531045,3.2245184-5.5217072,6.513765-10.7845018,9.6748762-16.306209-11.9720649-2.8255818-5.069931,10.1913806-16.1120242,8.1531045-.3355296-3.3539748-.9299717-6.4371481-6.3856297-5.4569791-1.7806845-10.5269102,8.2165115-11.1847596,9.5969382-19.0076184,15.1965833.6578493,18.0868931,11.912621,28.8713947,16.311493-3.0831733-10.9773653-14.074905-15.324719-22.3563087-21.768472-.4002577-10.1913806,13.6734904-8.1531045,9.5335311-21.769793,12.035472-1.973548,7.0436432,10.4555772,15.9825679,10.9852912.8520337-14.339266-14.00902-15.1265716-22.4197159-21.8345212-1.1875633-10.1266525,12.8863491-15.3894471,6.437148-21.7037439-4.7991296,2.3672008-6.7726775,6.8426898-6.437148,13.5506394-13.1583072-.0700121-21.0538199-14.8029309-12.8227776-24.3351412-8.4886339-1.974869-6.2574943,5.5917193-9.6761972,8.0883764-7.4305269-.8520338-5.9853719-9.4688032-15.9178398-8.0883764,1.2511335-5.1927825,6.9140227-6.902134,6.3209015-13.6100836,35.1145222-2.5679901,37.6810273,22.4910495,61.0307149,29.8502435-10.5916381-15.5189034-25.1303721-27.683832-41.7575795-38.0099529,2.2958677-7.1663305,11.4425148-8.3525729,12.8227776-16.3709372,15.5823102,4.0765523,19.9177749,17.5571795,35.3719498,21.7631881,2.7608535-7.888908-16.5638002-20.3827613-25.6455553-27.2254511-2.425324-7.2957868,6.3856297-5.5217072,6.3856297-10.7845018,9.6616664,3.6828994,18.5373482,7.7594517,19.2599256,18.9428903,13.3511707-6.9721461,9.9324678,7.360515,25.7234932,5.5217072-1.4583647-5.1914616-7.043479-6.8374059-6.4503578-13.6800957,10.6550453-8.0236482,14.7963256-1.5746112,25.6455553,2.7661375,7.1729353-2.8955938-14.2679325-12.364397-3.2258394-19.0076184-5.1848565,2.1664114-27.3483018-8.417301-19.2599256-16.3775421.0647281-1.5732903.451776-3.1531854,3.2905675-2.6961255,6.3724198-18.279757,19.6588623,6.3156177,31.953247-2.7608536-.6578493-7.5652673-15.1832075-3.3539748-12.7580495-13.5440344,4.3473536.8507128,6.0501001,3.8757629,12.7580495,2.7595326-11.0420932-22.4910495,29.3999547-39.9835009,32.1608083-67.9315295,16.2413134,7.4939342,7.030102-30.187094,16.0471289-38.081286,8.6816651-8.0896974,21.4408678-12.6880377,28.9361228-21.7631881,2.5666691,17.4211183-7.9602409,21.1040178-13.0169621,46.2277856,19.7249115-14.9905104,17.5573475-48.6015913,38.5977892-62.4758714-24.0075369,5.2627946,9.6616664-32.5529739-12.7578809-38.0099529,6.3075231-11.9720652,21.9679404-15.7844209,28.8699051-27.2267721-3.9470959.3289247-2.1030042-3.947096,0,0,4.011824-.1281353,4.3341438-3.4821101,9.5335311-2.7608536v-5.3922509c-13.3524916-1.3791058-17.8794988,4.7344016-28.8713947,5.3922509,1.587821,12.8240989-5.8427058,18.4158182-16.047296,27.2267721-5.3922508-11.836004,8.8875706-30.4512906,19.2731354-38.081286,5.3275226,8.6814976,29.4631948-2.955038,28.8053455-16.306209,68.8496106-23.743341,140.4059145-22.5557776,202.1592068-2.6313973,29.98102-10.7197737,42.6743413,14.9310662,61.0320359,24.3998693,12.0222622,6.3156177,25.7102834,6.7726777,32.0828803,10.84923,45.6410911,29.658701,72.4081605,95.2230297,115.4180314,146.7862639,40.1842892,47.942421,78.3304844,110.3482803,125.2093312,149.4163402,17.9574368,14.9257822,44.7245063,30.644154,48.1432091,43.466932,10.8492297,39.7206254-22.3563087,56.1034514-38.533061,81.542934Z"/>
    <path d="M628.949583,13.5367556c-1.4449915-1.1162303,2.0382761,1.8440917,0,0h0Z"/>
    <path d="M651.4472369,62.5319997c13.3392818,2.5600643.5151832-8.1531045,0,0h0Z"/>
    <path d="M651.4472369,62.5319997c-20.5888341-3.1611113-7.1082071,8.2878447,0,0h0Z"/>
    <path d="M661.0443394,65.2915323c-1.4439982-1.1796374,2.10284,1.7093515,0,0h0Z"/>
    <path d="M686.6910514,62.5319997c-20.5254269-3.1611113-7.0315901,8.2878447,0,0h0Z"/>
    <path d="M542.2719919,67.9889787c-7.4305269-.8520338-13.7382185-5.7859037-16.0471352,2.7595326,4.7989688,4.2126135,16.5768492,9.404075,16.0471352-2.7595326Z"/>
    <path d="M503.7389309,78.8368877c5.9868534-4.7978088-.7212565-8.417301-6.3209015-10.847909-4.2045274,3.1531854-2.6313972,11.2481667,6.3209015,10.847909Z"/>
    <path d="M635.3352127,76.0773551c28.4699803,10.5189843,76.4069518,8.8809659,105.8714676,10.9192421-26.3034046-8.0236482-82.5349898-18.0855726-105.8714676-10.9192421Z"/>
    <path d="M757.3835993,86.9965971c-2.1031709-.7925896-12.4226866-6.8440108-12.9524006,0,6.0514211-2.501941,10.7859892,8.1531045,12.9524006,0Z"/>
    <path d="M693.0634712,108.7597852c-12.4238409-2.2324606-30.1091553-11.1134265-41.6162343-5.4569791,4.3341438,8.1531045,33.991523,9.0751504,41.6162343,5.4569791Z"/>
    <path d="M853.4003704,105.9989316c-32.8832187,6.5784933-40.3137455,34.5278428-51.1629752,59.8444741,14.7963256-21.8979283,32.6256271-41.3005205,51.1629752-59.8444741Z"/>
    <path d="M782.9642597,149.4724685c8.6828183-11.5784124,17.3644834-23.3496882,28.8066665-32.617702-17.0921932-4.2773416-26.4328609,15.9759634-28.8066665,32.617702Z"/>
    <path d="M484.5952517,125.0712782c8.2178325,23.214948,25.2585074-11.6418195,0,0h0Z"/>
    <path d="M417.192117,154.9294476c.3223197-4.8704628-3.8836887-5.7211756-3.2892466-10.84923,10.3842438.5865163,13.6087623-4.93387,25.7102834-2.7674585-11.8307197-18.736817-46.3572407,5.6577684-54.5816781,16.3775421,14.9323868-3.2892466,18.1503003-11.6431405,32.1606412-2.7608536Z"/>
    <path d="M782.9642597,149.4724685c-9.5967711.5865163,3.0963831,11.3076109,0,0h0Z"/>
    <path d="M924.0927517,168.474803c10.7845016-18.4158182,50.4403978,4.3407488,64.2565543-10.7845018-19.8015285-1.7740796-76.0212249-15.2547069-64.2565543,10.7845018Z"/>
    <path d="M385.0314758,157.6903012c-2.6961254-.5931212-3.02505.986774-3.1545063,2.6313973,2.7608535.5931212,2.9616429-.986774,3.1545063-2.6313973Z"/>
    <path d="M381.8769694,160.3216985c-2.6961254-.458381-3.02505,1.1162303-3.1597903,2.8255818,2.5666691.3989367,2.9603219-1.1809584,3.1597903-2.8255818Z"/>
    <path d="M898.5119246,163.1472802c-1.4451549-1.1809584,2.1030042,1.7093515,0,0h0Z"/>
    <path d="M378.7171792,163.1472802c-4.6695163,1.5798952.1994684,3.2245185,0,0h0Z"/>
    <path d="M365.8296734,165.8434057v5.462263c3.9470959-.7278614,3.1545063-5.462263,0-5.462263Z"/>
    <path d="M795.7870374,176.6279075h3.2905675c2.4372128-2.4319289,3.4187028-6.0501002,3.1597903-10.7845018h-3.1597903c-2.5679901,2.3672008-3.5481591,6.1201123-3.2905675,10.7845018Z"/>
    <path d="M879.174061,174.0017941c8.024969.3289247,10.1398621-4.2112925,12.9007156-8.1583884-8.023648-.5231091-10.0619241,4.0818362-12.9007156,8.1583884Z"/>
    <path d="M398.0550428,184.8510241c9.9258629-3.3539748,15.7830995-10.1266525,31.8951237-8.2231166-2.8254233-14.4674013-31.2372744-3.4187029-31.8951237,8.2231166Z"/>
    <path d="M362.5404269,174.0017941c2.7608535.3936528,3.1597903-1.1862424,3.2892466-2.6961255-2.8254249-.5931212-2.9603219.986774-3.2892466,2.6961255Z"/>
    <path d="M359.3211924,176.6279075c2.8255817.528393,3.02505-.9801691,3.2192345-2.6261134-2.6313972-.5931212-2.8903098.986774-3.2192345,2.6261134Z"/>
    <path d="M879.174061,174.0017941c-4.5917354,1.6459443.3355296,3.2192346,0,0h0Z"/>
    <path d="M359.3211924,176.6279075c-4.540217,1.7793635.4583809,3.2892466,0,0h0Z"/>
    <path d="M792.5757288,190.243275c-1.3156986-6.5071602,5.8440268-5.8493109,3.2113086-13.6153675-3.8044297.8573177-11.0420932,11.906016-3.2113086,13.6153675Z"/>
    <path d="M872.736913,176.6279075c-2.9669268.1347402-2.3724847,3.2892466-3.1597903,5.462263,3.1597903-.1347402,2.4385338-3.2892466,3.1597903-5.462263Z"/>
    <path d="M888.9138354,179.3940451c-3.8176397.458381-2.6962954,4.8638579-3.2246884,8.0883764,2.5032619,1.5098831,5.1993873,2.8903099,9.4688029,2.7608536.9933789-6.1782356-.5931212-10.1913806-6.2441145-10.84923Z"/>
    <path d="M346.627871,184.8510241c4.5983403-1.7727586-.3936528-3.3539748,0,0h0Z"/>
    <path d="M346.627871,184.8510241c-4.6696733,1.6446233.3289247,3.2258395,0,0h0Z"/>
    <path d="M398.0550428,184.8510241c-13.4172198-2.6961255-.8586387,8.0883764,0,0h0Z"/>
    <path d="M885.6891469,187.4824214c-8.0883762-.2641965-9.9322981-4.9985981-16.1120242,0-1.0448972,11.7725968,18.0855721,14.4687223,16.1120242,0Z"/>
    <path d="M1001.1720836,190.243275c-2.6313972,3.0897783-4.2060084,7.2376636-3.2892466,13.6814166,10.1913804,3.9404911,15.5836312-15.7196928,3.2892466-13.6814166Z"/>
    <path d="M1152.0403565,195.7002541c2.1675557,1.7806845-1.4585414-1.1162303,0,0h0Z"/>
    <path d="M1216.2187962,198.4611077c-2.0382761-4.0052192-4.011824.2641965,0,0h0Z"/>
    <path d="M1216.2187962,198.4611077c1.7806845,3.8823678,3.7542324-.3289247,0,0h0Z"/>
    <path d="M856.6248888,220.1014444c14.3326607.5931212.9801691-10.5916384,0,0h0Z"/>
    <path d="M856.6248888,220.1014444c-5.3922508-1.0515021-5.7925085,2.1030043-6.2429635,5.4569791,2.8242607-1.1809584,5.7145705-2.4319289,6.2429635-5.4569791Z"/>
    <path d="M850.3819253,225.5584235c-17.106724-2.8969148-3.9484168,8.2878447,0,0h0Z"/>
    <path d="M362.5404269,236.4076534c5.5917191,1.0567861,6.1148282-2.0382761,6.4437529-5.3922509-2.8255817,1.1862424-5.7211754,2.4372129-6.4437529,5.3922509Z"/>
    <path d="M327.3547356,233.711528c-21.7631875-1.9682641-28.3416807,23.213627-22.5557771,35.3851605,6.4437529-12.7580498,16.1120242-22.6918389,22.5557771-35.3851605Z"/>
    <path d="M860.0435917,252.7838746c.1294563,6.4437531-11.507079,25.8463453,0,24.3364622,2.7608535-5.9206439,10.8492297-23.0207635,0-24.3364622Z"/>
    <path d="M1290.0722887,263.6331045c1.9735479,1.7159564-1.3804268-1.1809584,0,0h0Z"/>
    <path d="M388.2573152,277.1203367c4.7344015-1.5798952-.3289247-3.1611113,0,0h0Z"/>
    <path d="M433.239413,279.9459185c2.1678909,1.7727586-1.4438339-1.1875633,0,0h0Z"/>
    <path d="M734.8344266,309.8027669c6.1146621.6578493,7.0948312-3.0897783,12.8873396-2.6313973-.4649859-5.0633262-2.1030042-9.1398785-6.5150859-10.9139581-3.1611112,3.6128874-3.0830071,9.9919123-6.3722537,13.5453554Z"/>
    <path d="M429.9501665,301.6496624c2.1030042,1.8388078-1.3156986-1.1215142,0,0h0Z"/>
    <path d="M850.3819253,298.9535369c4.3988719,39.519836-28.5490749,55.8973781-28.9361228,86.9351849,6.437148-27.6191039,51.2911105-61.6185537,28.9361228-86.9351849Z"/>
    <path d="M882.3999004,323.3481223c.528393-7.6299954,5.9206438-11.2428828,6.513935-18.9376063-4.7979787.3936528-11.9061858-.986774-12.951083,2.7608536,9.1334433-.528393-2.5679901,16.7051458,6.437148,16.1767527Z"/>
    <path d="M792.5757288,317.9558714c-.7357873,5.1280544,3.6115663,5.9853721,3.2113086,10.920563,14.1397972,1.5085621,11.056624-14.7329188-3.2113086-10.920563Z"/>
    <path d="M423.5645368,331.5725599c2.116214,1.7093515-1.4451549-1.1875633,0,0h0Z"/>
    <path d="M343.466916,342.4217899c-4.9921493,20.253305,2.174181-9.6695925,0,0h0Z"/>
    <path d="M786.1900991,345.2460506h6.3856297c5.0567212-6.7726777-10.7845016-8.0883764-9.611469-2.8242608,2.0382761.1281353,3.8189606.3923318,3.2258394,2.8242608Z"/>
    <path d="M1216.2187962,353.2062917c2.5666691-8.6180904-5.0567212-8.417301-9.7263945-10.7845018,1.4438339,5.1914616,1.1730325,11.7065477,9.7263945,10.7845018Z"/>
    <path d="M221.4119349,375.0394919c-.986774-5.3275228,4.3407487-5.3922509,6.3790247-8.1531045-4.7344015-1.4517599-8.0883762-4.0118241-12.7580495-5.4569791-5.0633261,4.0765523.0647281,11.4423512,6.3790247,13.6100836Z"/>
    <path d="M442.9024004,361.4294083c-3.1611112,23.1436149-11.7646706,42.023098-9.6629874,57.0770155,3.2907261-16.306209,26.4328609-41.2991995,9.6629874-57.0770155Z"/>
    <path d="M763.7043341,396.7445567c.7225775-14.7976469,19.9177749-13.9456132,19.2599256-29.8581694-19.7883186,2.5613852-22.6139003,16.9640584-19.2599256,29.8581694Z"/>
    <path d="M696.4174459,375.0394919c9.4820128-.528393-3.0831733-11.3142158,0,0h0Z"/>
    <path d="M686.6910514,383.1925964c8.6814973,1.9088198,6.1135073-5.6564474,9.7263945-8.1531045-8.6696085-1.9088198-6.1793914,5.6564474-9.7263945,8.1531045Z"/>
    <path d="M1267.5099067,375.0394919c-.8507128,3.947096-5.3275226,4.5402171-6.5016967,8.1531045,4.1411009.1347402,4.4634206,3.4187029,9.7262151,2.6961255,0-2.6961255,2.5032619-3.2192346,3.2258394-5.4569791-4.2060084,0-2.953717-4.7344016-6.4503578-5.3922509Z"/>
    <path d="M1334.9262512,383.1925964c-1.3804268-1.1162303,1.9735479,1.7793635,0,0h0Z"/>
    <path d="M680.3174753,388.6561803c5.392086.9154409,5.9733183-2.1743373,6.3735761-5.463584-2.8255817,1.1862424-5.7277803,2.3024726-6.3735761,5.463584Z"/>
    <path d="M1225.8804626,388.6561803c-6.2429635.5865163-7.2229542-3.1611113-12.8861848-2.7674585-1.3170196,9.1464834,5.5203861,11.6418195,9.6101481,16.311493,2.6961254-3.1597903,4.2046875-7.2363426,3.2760367-13.5440344Z"/>
    <path d="M670.5777062,396.7445567c7.1729353.5217881,10.2561085-2.2390655,9.7397691-8.0883764-8.6816621-1.9101408-6.3857944,5.6498425-9.7397691,8.0883764Z"/>
    <path d="M661.0443394,404.9610684c8.5531978,1.8454127,6.2441203-5.6564474,9.5333668-8.2165117-8.6167692-1.7806845-6.1148282,5.6498425-9.5333668,8.2165117Z"/>
    <path d="M853.4003704,402.2002148c4.8625368,9.0117432,8.0883762-10.5189843,0,0h0Z"/>
    <path d="M661.0443394,404.9610684c-4.5403813,1.6446233.2587483,3.2905676,0,0h0Z"/>
    <path d="M291.9761809,410.2885912c2.8308656.529714,3.0899332-1.0501812,3.1597903-2.6961255-2.5665141-.3923318-2.9603219,1.1809584-3.1597903,2.6961255Z"/>
    <path d="M1180.8336366,407.5924657h-9.5982592c-.8507128,13.8108729-19.9309847,26.5041946-12.8227776,38.076002,5.7925085-19.9891085,15.2613114-20.253305,22.4210369-38.076002Z"/>
    <path d="M291.9761809,410.2885912c-14.0737481-.45706-.7873056,10.7858228,0,0h0Z"/>
    <path d="M709.2534333,413.0494448c.3870479,2.3672008-1.2522915,2.5679901-3.2905675,2.6961255,7.0315901,6.7079496,17.5571791,10.5916384,28.8715608,13.6814166,2.3604297-3.947096-9.0819212-19.4673204-25.5809933-16.3775421Z"/>
    <path d="M1148.8156615,415.7455702c2.0369551,1.7740796-1.4451549-1.1149093,0,0h0Z"/>
    <path d="M786.1900991,426.6661333c6.513765-.7939105,6.3856297-7.3010707,9.5969382-10.920563-8.4754241-.7859846-8.2812396,5.7211756-9.5969382,10.920563Z"/>
    <path d="M593.6410404,418.5064238c-5.5335959-.0647281-8.2944494,2.0382761-9.6099857,5.5283121,5.5202238.0647281,8.2942871-2.1030043,9.6099857-5.5283121Z"/>
    <path d="M625.6590155,424.0347359c12.6946423-.7873056-.4636649-12.0367933,0,0h0Z"/>
    <path d="M426.7890552,426.6661333c3.6895043,10.6484406,3.6895043-10.7845018,0,0h0Z"/>
    <path d="M584.0310547,424.0347359c-16.7066287,14.8610541-55.897539,25.0524347-57.8061979,43.4022038,17.8925478-15.5836316,45.1761214-23.5425516,57.8061979-43.4022038Z"/>
    <path d="M625.6590155,424.0347359c-2.8242607,1.1149093-5.6498424,2.3024726-6.3724198,5.3922509,5.5864352.986774,6.1148282-2.1030043,6.3724198-5.3922509Z"/>
    <path d="M782.9642597,432.1231123c3.0963831-.0647281,2.5034293-3.3539748,3.2258394-5.4569791-3.2258394.0647281-2.4385338,3.3539748-3.2258394,5.4569791Z"/>
    <path d="M571.0786584,459.2838353c21.8265947-5.1280544,37.0879061-15.7830999,48.2079373-29.8568484-16.9759468,9.0751504-38.9967259,14.0090203-48.2079373,29.8568484Z"/>
    <path d="M423.5645368,434.8192378c2.116214,1.7740796-1.4451549-1.1162303,0,0h0Z"/>
    <path d="M782.9642597,432.1231123c-4.6695061,1.5798952.2709688,3.2892466,0,0h0Z"/>
    <path d="M279.1534033,448.3645932c-4.6062662-4.1412804-7.9602409-9.404075-15.9838889-10.7845018-1.2443656,9.0751504,5.3922508,11.5070793,9.6048641,16.2467648.0647281-3.6181713,5.5917191-2.4372129,6.3790247-5.462263Z"/>
    <path d="M301.6446074,440.340945c4.6695181-1.7740796-.393808-3.3552958,0,0h0Z"/>
    <path d="M776.5271118,440.340945c4.6709943-1.7740796-.3355296-3.3552958,0,0h0Z"/>
    <path d="M301.6446074,440.340945c-4.6698285,1.5798952.3287695,3.1597903,0,0h0Z"/>
    <path d="M776.5271118,440.340945h-3.1596232c-2.0384432,2.6961255-7.430694,2.6961255-6.5152531,8.0236482,3.031655-2.8255818,11.9073367-.7873056,9.6748762-8.0236482Z"/>
    <path d="M308.0234769,451.1307307c2.8255817.458381,3.1545063-1.0567861,3.2192345-2.7661375-2.6961254-.3936528-2.955038,1.1215142-3.2192345,2.7661375Z"/>
    <path d="M699.4491008,508.2077463c25.6455553-17.4211183,52.7362654-33.2042183,67.4031347-59.8431531-19.8530468,20.3233171-57.2764825,40.1842902-67.4031347,59.8431531Z"/>
    <path d="M308.0234769,451.1307307c-5.3922508-1.0567861-5.9853719,2.1030043-6.3788696,5.3922509,2.8967595-1.1862424,5.7210202-2.3024726,6.3788696-5.3922509Z"/>
    <path d="M80.283443,456.5229816c-1.5798951,8.4820292,6.8374057,8.6762136,16.047296,8.2178327,1.3805768-8.5467573-6.8426896-8.6814976-16.047296-8.2178327Z"/>
    <path d="M548.7872393,456.5229816c-5.0053643,8.418622,20.9111543,8.418622,16.0471346,0h-16.0471346Z"/>
    <path d="M1350.9748683,456.5229816c-3.0963831,16.6998618,21.0392891,32.4829618,38.533061,40.7721275-2.1677324-18.0868936-24.5372509-24.5940538-38.533061-40.7721275Z"/>
    <path d="M709.2534333,462.0446889c1.8957755,3.8836888,3.7410226-.2641965,0,0h0Z"/>
    <path d="M231.0802062,481.0536283c-16.047296,6.3790249-31.5014709,13.1517026-35.3784022,29.9215765,16.6349808-5.9853721,26.4328615-17.6285126,35.3784022-29.9215765Z"/>
    <path d="M423.5645368,491.9675864c.8639226-6.3156177-.7225775-10.2561088-6.3724198-10.9139581-1.0579489,3.6115664-4.6049452,5.1914616-3.2892466,10.9139581h9.6616664Z"/>
    <path d="M500.6438687,483.7497537c-4.2060084-3.6828994-15.7129276-4.2126135-16.048617,2.7608536,4.7991296,4.2046876,13.030332,1.9088198,16.048617-2.7608536Z"/>
    <path d="M747.7217662,486.5106073c.3224862,4.9985981,1.9088198,9.0751504,6.437148,10.7845018.8639226-6.3790249,11.055303-4.9985981,9.5454199-13.5453554-9.0815884-2.2377445-8.2944494,3.8757629-15.9825679,2.7608536Z"/>
    <path d="M776.5271118,486.5106073c3.6776154,10.6550455,3.6776154-10.7845018,0,0h0Z"/>
    <path d="M160.5806884,491.9675864c-7.8889078,9.0104222,10.5916381-6.6445424,0,0h0Z"/>
    <path d="M186.0967874,491.9675864c2.1030042,1.6446233-1.3156986-1.2522915,0,0h0Z"/>
    <path d="M259.8868727,494.5989837c3.1545063-.0647281,2.495336-3.3539748,3.2826416-5.4569791-3.02505.0647281-2.5600642,3.3539748-3.2826416,5.4569791Z"/>
    <path d="M526.2248567,489.1420046c-7.3012314-.7225775-12.1002005.7225775-12.8229385,5.4569791,4.5403777.6578493,5.3275226,4.5336122,9.6616664,5.4569791.9933789-3.7476276,4.6062662-5.2641156,3.1612721-10.9139581Z"/>
    <path d="M54.5665547,497.2951091c4.6696733,9.7329997,14.6681903,14.8610541,22.4276418,21.768472-.5231091-12.364397-10.7210944-27.5543757-22.4276418-21.768472Z"/>
    <path d="M125.2021337,497.2951091c-3.2892466.1281353-2.5032619,3.3539748-3.2892466,5.4569791,3.1531854-.0647281,2.6313972-3.3539748,3.2892466-5.4569791Z"/>
    <path d="M150.847689,505.5829539c3.02505-2.1096092,4.8691417-5.0633262,6.4437529-8.2878447-6.8374057-1.2522915-6.1795564,3.8757629-6.4437529,8.2878447Z"/>
    <path d="M121.9128871,502.7520882c-2.6959748-.5231091-2.8255817,1.0515021-3.0897782,2.8308657,2.5602148.3936528,2.8889888-1.1862424,3.0897782-2.8308657Z"/>
    <path d="M176.4932442,502.7520882c-8.6113334-1.8388078-6.2442845,5.5917193-9.5982592,8.2231166,8.6114853,1.7740796,6.1795564-5.7925086,9.5982592-8.2231166Z"/>
    <path d="M429.9501665,510.9752048h9.6629874c.5931212-5.9853721-2.5678315-8.7462257-9.6629874-8.2231166v8.2231166Z"/>
    <path d="M118.823109,505.5829539c-2.8321866-.5931212-3.02505.986774-3.2905675,2.6247924,2.6974464.4649859,2.9616429-1.1149093,3.2905675-2.6247924Z"/>
    <path d="M150.847689,505.5829539c-13.3524916-2.7674585-.7225775,8.0883764,0,0h0Z"/>
    <path d="M388.2573152,505.5829539c-2.9616429,9.6629876,12.6219883,3.6128874,19.2718145,5.3922509,3.0197661-9.8690609-12.6999263-3.8823678-19.2718145-5.3922509Z"/>
    <path d="M115.5325414,508.2077463c-2.7595326-.5217881-3.02505.988095-3.1531854,2.7674585,2.5600642.458381,2.9538675-1.1215142,3.1531854-2.7674585Z"/>
    <path d="M112.3793561,510.9752048c-11.4489558,2.0382761-12.1713831,13.2164308-19.3378636,19.0023345,14.5968572.528393,11.9007318-13.4806273,19.3378636-19.0023345Z"/>
    <path d="M1103.9603779,513.6713303c10.656542,8.2178327,9.5982592-10.1266525,0,0h0Z"/>
    <path d="M131.5813093,521.8244348c8.1529534-.3936528,11.2427316-4.9985981,16.1118733-8.1531045-10.1266522-1.3156987-13.0868232,3.2839627-16.1118733,8.1531045Z"/>
    <path d="M365.8296734,548.9217505c5.6564473-8.7462257,19.5954552-21.9045332,16.047296-29.8581694-17.0987982.0647281-16.047296,15.4541753-16.047296,29.8581694Z"/>
    <path d="M574.3031768,524.4558321c3.2905675-.0647281,2.5681522-3.2892466,3.2905675-5.3922509-3.2258394.0647281-2.5679901,3.2892466-3.2905675,5.3922509Z"/>
    <path d="M782.9642597,521.8244348c-1.9086525-4.0118241-3.7410226.2641965,0,0h0Z"/>
    <path d="M827.8183908,521.8244348c6.1146598.2641965,2.2970202,8.9470151,9.7407569,8.1531045.7214252-4.7344016-6.0514211-16.1120246-9.7407569-8.1531045Z"/>
    <path d="M128.2920627,527.2166857c3.1530345-.0647281,2.6312464-3.2892466,3.2892466-5.3922509-3.1612621.0647281-2.56682,3.2892466-3.2892466,5.3922509Z"/>
    <path d="M892.0747766,521.8244348c-1.9088198,5.5217072-16.3179278.7225775-12.9007156,10.7845018,7.7660564,1.1875633,7.1082071-4.9985981,15.9838889-2.6313973-.451776-3.2192346.5931212-7.6947236-3.0831733-8.1531045Z"/>
    <path d="M715.5612907,524.4558321c-.8521994,5.5864354-14.1386419.7225775-12.7582151,8.1531045,7.3657987,1.4451549,22.097562-4.3407488,12.7582151-8.1531045Z"/>
    <path d="M125.2021337,529.9775393c2.6313972.4649859,3.02505-1.0515021,3.089929-2.7608536-2.6315481-.458381-2.8970655,1.0515021-3.089929,2.7608536Z"/>
    <path d="M760.4798157,527.2166857c-9.081755,2.3672008-14.6680238,7.5665882-16.048617,16.2414809,7.9602409-3.1545064,12.6299142-9.2693348,16.048617-16.2414809Z"/>
    <path d="M121.9128871,532.6089366c2.7596833.458381,3.0884572-.986774,3.2892466-2.6313973-2.7674584-.5231091-3.0897782,1.0515021-3.2892466,2.6313973Z"/>
    <path d="M927.3185911,529.9775393c0,2.6313973-2.5679901,3.0897783-3.2258394,5.3275228,4.1412803.2641965,4.541538,3.6181713,9.6761972,2.8255818.1928635-4.7344016-2.5032619-6.9668622-6.4503578-8.1531045Z"/>
    <path d="M118.823109,538.1306438c2.9603219-.1294563,2.3672007-3.3473699,3.0897782-5.5217072-3.02505.0647281-2.4317783,3.3539748-3.0897782,5.5217072Z"/>
    <path d="M1126.3166866,535.3050621c-8.023648-.3289247-9.997196,4.2126135-12.8226019,8.1531045,8.42373.7939105,13.8159808-.9154409,12.8226019-8.1531045Z"/>
    <path d="M1421.5391142,538.1306438c18.3433477,10.390849,6.8360847,40.8421396,0,54.3227669,18.6654835-6.8374059,17.6205863-30.3799575,19.1304693-51.6200365-6.5150859-1.9101408-12.6933213-8.5533622-19.1304693-2.7027304Z"/>
    <path d="M115.5325414,540.8333742c2.6974464.45706,2.9616429-1.1228352,3.2905675-2.7027304-2.8321866-.5231091-3.02505,1.0581071-3.2905675,2.7027304Z"/>
    <path d="M163.6704666,540.8333742c2.1730163,1.7093515-1.3804268-1.1228352,0,0h0Z"/>
    <path d="M943.3658871,538.1306438c.2575916,7.3010707,7.495255,12.9575182,12.8227776,8.1597094.9167619-7.2376636-4.3988719-8.9470151-12.8227776-8.1597094Z"/>
    <path d="M112.3793561,543.4581666c2.5600642.5931212,2.9538675-.986774,3.1531854-2.6247924-2.7595326-.529714-3.02505,1.0515021-3.1531854,2.6247924Z"/>
    <path d="M770.1414821,543.4581666c4.6709943-1.5732903-.2575916-3.2826417,0,0h0Z"/>
    <path d="M109.0901095,546.2903532c2.6961254.45706,3.0884572-1.1228352,3.2892466-2.8321867-2.7674584-.3936528-3.02505,1.0515021-3.2892466,2.8321867Z"/>
    <path d="M1168.011036,546.2903532c-4.1414574-.3289247-4.398872-3.5547641-9.5984363-2.8321867.4649859,3.2892466-.4636649,7.7594517,3.0963831,8.2244376.1294563-3.6828994,5.6498424-2.503262,6.5020532-5.3922509Z"/>
    <path d="M105.8642701,557.0748551c2.5032619-2.3672008,3.554764-6.1861614,3.2258394-10.7845018h-3.2258394c-.9220458,1.5732903-7.8887578,10.4555772,0,10.7845018Z"/>
    <path d="M176.4932442,548.9217505c4.8057345-1.6446233-.3936528-3.2892466,0,0h0Z"/>
    <path d="M670.5777062,546.2903532c1.7806845,2.1016833,3.3539747,4.4054769,3.3539747,8.0236482,6.1795564,1.1796374,4.541538-12.3009898-3.3539747-8.0236482Z"/>
    <path d="M166.894985,554.3140015c-15.1899784-11.377623-37.094511,17.1635267-44.9820979,29.9215765,13.4806269-7.5718722,22.1621243-19.2731359,38.6678013-24.4011903.3289247-3.2892466.8573177-6.4424321,6.3142966-5.5203862Z"/>
    <path d="M176.4932442,548.9217505c-2.6961254-.4002577-2.953717,1.1162303-3.2192345,2.7608536,2.6327182.5217881,3.02505-1.1228352,3.2192345-2.7608536Z"/>
    <path d="M359.3211924,554.3140015c5.5217071,1.0515021,6.1797132-2.0382761,6.508481-5.3922509-2.8955938,1.1796374-5.7859036,2.4953361-6.508481,5.3922509Z"/>
    <path d="M1347.6843007,548.9217505c-10.5903171,14.6602647-26.7023413,38.990122-22.4329257,57.0770155,4.8757466-19.4025922,26.0459947-39.4485029,22.4329257-57.0770155Z"/>
    <path d="M173.2740097,551.6826042c-2.6312454.5217881-3.2245184,2.6313973-6.3790247,2.6313973-.6578493,3.1545064-3.5534431,4.3407488-6.3142966,5.5203862v5.4503741c8.4173008-.9801691,10.6550453-7.1584046,12.6933213-13.6021577Z"/>
    <path d="M359.3211924,554.3140015c-9.538815.6578493,3.2192345,11.3062899,0,0h0Z"/>
    <path d="M285.6618843,567.9940971c.7212565-3.8176397,5.2627945-4.6049453,6.3142966-8.1597094-8.023648-8.7462257-19.8596517,6.3156177-6.3142966,8.1597094Z"/>
    <path d="M1097.5113411,573.386348c-1.3156986-9.8677399-11.1081423-12.364397-19.3246538-16.311493.9801691,9.9905913,9.0685452,14.1450815,19.3246538,16.311493Z"/>
    <path d="M1017.1559725,567.9940971c-.8520337,7.1729354,4.4622791,8.9404101,12.8861848,8.1531045.98149-7.1729354-6.6432213-7.1082073-12.8861848-8.1531045Z"/>
    <path d="M1142.2358474,576.1472016h-6.3076917c-.3355296,3.4187029-4.1544901,3.7410227-3.2905675,8.0883764h9.5982592v-8.0883764Z"/>
    <path d="M667.4179159,578.8433271c2.0382761,3.8836888,3.8823677-.3223198,0,0h0Z"/>
    <path d="M269.5485391,581.5394525c-3.6828994,3.2258395-3.6828994,9.5982595-3.2179135,16.3709372,7.8243341,1.5865001,15.5836312-17.9442274,3.2179135-16.3709372Z"/>
    <path d="M731.54518,589.6925571c20.1236821-4.927265-10.2694844-11.5070793,0,0h0Z"/>
    <path d="M317.6930692,586.9964316c-1.2522915-1.1862424,2.1664114,1.7674747,0,0h0Z"/>
    <path d="M1344.3950542,611.3262889c2.6313972-6.1148284,12.2296565-16.8346021-3.0963831-16.1767527,1.9101408,4.7344016-3.8823677,15.9191611,3.0963831,16.1767527Z"/>
    <path d="M1203.3312904,654.7998257c-11.5718072-23.6720079-41.8870357-46.040206-64.1918261-51.4971851,19.3378636,18.9494952,44.9186907,32.6243069,64.1918261,51.4971851Z"/>
    <path d="M291.9761809,603.3026406c-3.6181712,3.2245185-3.6181712,9.6101483-3.2892466,16.2414809h3.2892466c-4.4054768-7.7528468,8.8109536-13.7395399,0-16.2414809Z"/>
    <path d="M1318.8789552,614.1518706c9.5335311-.4649859-3.1611112-11.301006,0,0h0Z"/>
    <path d="M1318.8789552,614.1518706c-9.6748762.6697382,3.0831733,11.3128949,0,0h0Z"/>
    <path d="M561.6098555,619.5441215c1.9735479,1.9088198-1.3156986-1.0448972,0,0h0Z"/>
    <path d="M288.6869343,619.5441215c-9.5335311.5931212,3.2892466,11.377623,0,0h0Z"/>
    <path d="M532.6750537,638.623073h-6.6445422c1.7040675.451776,3.8189606.528393,6.6445422,0Z"/>
    <path d="M516.6264366,627.773843c-20.5888341,7.7528468-39.9901048-8.5520413-57.7414683-2.7093353,14.9257819,14.1397976,45.2410104,13.6880215,67.1455431,13.5585653-5.7264594-1.4570438-6.513765-7.0302693-9.4040748-10.84923Z"/>
    <path d="M1123.0921682,625.0645078c26.8317976,26.1884798,60.8378514,46.3638468,93.126628,67.8813321-26.7036623-24.5359305-62.8629177-55.3161458-93.126628-67.8813321Z"/>
    <path d="M1312.3638693,622.3049751c-.9154409,1.7793635-7.9589199,10.4608611,0,10.925847-3.0184451-5.0699312,9.5982592-9.1464834,0-10.925847Z"/>
    <path d="M1161.5089828,695.6287555c-25.4525155-22.6139009-47.0216949-48.7878498-76.8851475-67.8549125h-6.437148c40.3124245,39.1909113,82.1347321,77.144062,134.8075904,105.9361984-10.0632451-18.6020768-30.509413-28.5345448-51.485295-38.081286Z"/>
    <path d="M282.507378,633.2308221c1.8374867-10.9786863-2.8255817,16.0354076,0,0h0Z"/>
    <path d="M1305.9914494,644.0153239c2.0382761,1.896931-1.3804268-1.1862424,0,0h0Z"/>
    <path d="M1302.76561,649.472303c-1.3156986-1.1096254,2.0382761,1.7806845,0,0h0Z"/>
    <path d="M189.2512937,663.1471147c9.3393466-1.2390817,14.6681903-5.7792988,16.1120242-13.6748117-8.9390889,1.5732903-18.0142391,2.8889889-16.1120242,13.6748117Z"/>
    <path d="M314.4672298,657.5606794c7.6947234-.9933789,7.0368741,4.9919932,16.1120242,2.8255818,0-9.404075-12.9575179-8.9404101-16.1120242-2.8255818Z"/>
    <path d="M295.1359712,671.2473799c.2589126-.9933789.3289247-1.5865001.3936528-2.0382761-.1347402.7740958-.3936528,2.3605959-.5931212,3.8057508.1296113-.5931212.1994684-1.0448972.1994684-1.7674747Z"/>
    <path d="M294.54285,674.9249954c-.3936528,2.2958677-.1994684,1.6380184,0,0h0Z"/>
    <path d="M433.239413,692.9458399c1.9101408-7.5599833,25.5821481-22.0973967,12.8875058-24.5359305-11.4423509,13.1583075-31.7603835,18.5505584-38.5977892,35.4498887,10.1913804,2.2311396,12.1649283-2.3738057,16.0354072-5.3922509,6.6432213,10.0619244-4.5917354,7.0949975-3.2126296,19.0023345,33.012675-.5812323,35.966551,59.3794882,70.6937023,57.0188923-33.7986596-16.2414809-42.2872935-57.6001247-57.8061965-81.542934Z"/>
    <path d="M1091.009465,698.4675471c-12.9654437-3.4187029-28.8066665-16.1767527-41.7589004-10.9139581,5.1214494,9.2112116,33.8633877,21.311412,41.7589004,10.9139581Z"/>
    <path d="M664.2700145,698.4675471c3.8057507,5.5851144,23.4778229,1.9088198,22.4210369-5.5217072-7.3023915,2.0382761-24.987706-4.8757467-22.4210369,5.5217072Z"/>
    <path d="M1216.2187962,692.9458399c.528393,8.0751665,13.2877635-2.6313973,0,0h0Z"/>
    <path d="M487.8210911,739.1802304c-19.4673199-5.2112763-16.9640579-29.205604-38.5977892-32.6890351,6.3076917,14.6549808,21.8265947,35.8369366,38.5977892,32.6890351Z"/>
    <path d="M1062.0733422,714.709028c-4.6049452,6.3856298-6.7079494,5.1214495-3.1597903,13.6087626,11.6353889,2.5679901,12.7582241-13.4158991,3.1597903-13.6087626Z"/>
    <path d="M279.1534033,733.7100415c8.4173008.7225775,13.8095516-.9801691,12.8227776-8.1517835-6.1795564,1.1862424-13.8095516.9801691-12.8227776,8.1517835Z"/>
    <path d="M1058.9135519,728.3177906c-12.035472-3.5468382-12.7580495,16.0486174-6.4503578,19.0155443,3.8836887-5.1993875,12.2428663-13.8161569,6.4503578-19.0155443Z"/>
    <path d="M1225.8804626,750.0162505c-.3223197,3.8189607,1.3936366,5.9853721,3.031655,8.1531045,8.0883762-.3870479,12.4238409-3.870479,12.8229566-10.8360201-7.3012495-.8520338-12.2285144.3870479-15.8546115,2.6829156Z"/>
    <path d="M128.2920627,752.7771041c4.7342507-1.7674747-.2009402-3.2760368,0,0h0Z"/>
    <path d="M134.7356648,752.7771041c.2641965.2060733.1994684.2060733.45706.2708014h0c-.45706-.4002577-1.0515021-.9933789-.45706-.2708014Z"/>
    <path d="M135.1927247,753.0479055h0c.3289247.2708014.2007893.2708014,0,0Z"/>
    <path d="M144.4039361,752.7771041c2.5668204-.7225775,6.3790247-.1294563,6.4437529-2.7608536-2.5666691.6710592-6.3790247.077938-6.4437529,2.7608536Z"/>
    <path d="M1026.8176388,760.9434184c8.4239057.8507128,8.2178325-5.7145707,9.7396044-10.9271679-6.0501001.4649859-10.8492297,1.7806845-12.9641228,5.3922509,2.6313972.6710592,3.7529114,2.3090776,3.2245184,5.534917Z"/>
    <path d="M1341.2986711,771.7926484c11.9073367,3.4821101,12.7595522-16.1133456,6.3856297-19.0155443-4.7344015,7.0434791-11.7778804,10.1398623-6.3856297,19.0155443Z"/>
    <path d="M243.8384094,771.7926484c2.1028505,1.7027466-1.3158523-1.1875633,0,0h0Z"/>
    <path d="M988.349306,769.096523c-4.7342291,1.6380184.2575916,3.2245185,0,0h0Z"/>
    <path d="M943.3658871,785.401411c3.0963831-11.3128949-9.5969382-.5799114,0,0h0Z"/>
    <path d="M991.5090962,782.7052856c2.1677324,1.7806845-1.3791058-1.1862424,0,0h0Z"/>
    <path d="M943.3658871,785.401411c-.528393,2.2324606,1.3156986,2.503262,3.2258394,2.6961255.5931212-2.3738057-1.1875633-2.501941-3.2258394-2.6961255Z"/>
    <path d="M946.5917265,788.0975365c2.425324,2.5679901,5.7792987,4.1544902,9.5969382,5.4701889,1.574783-5.8572368-4.6049452-5.3407326-9.5969382-5.4701889Z"/>
    <path d="M991.5090962,790.7302548c16.2414805,7.430527,12.036793-9.4688032,0,0h0Z"/>
    <path d="M959.5426394,793.5677254c-.9801691,7.0949975,4.3473536,8.797744,12.7580495,8.0236482-3.2245184-3.5600481-8.552041-5.3922509-12.7580495-8.0236482Z"/>
    <path d="M972.3006889,804.4037455c9.0819274,5.0699312,15.6483593,12.0486822,28.8713947,13.6232934-7.7660564-7.1082073-17.8147707-12.1781385-28.8713947-16.4356653v2.8123719Z"/>
    <path d="M933.7689489,818.0270389c-1.9099697-4.0131451-3.9484168.2575916,0,0h0Z"/>
    <path d="M933.7689489,818.0270389c.1281353,2.6313973,3.9470959,2.0382761,6.437148,2.6313973,0-2.5679901-3.9482456-2.1162141-6.437148-2.6313973Z"/>
    <path d="M1065.3639097,850.5734078c-18.2282382-13.6734907-44.4669147-20.3814403-64.1918261-32.5463689,15.4543481,14.2032048,40.4418808,34.132869,64.1918261,32.5463689Z"/>
    <path d="M940.2060968,820.6584362c1.9088198,3.947096,3.8176396-.2589126,0,0h0Z"/>
    <path d="M953.0288745,826.1154153c-.6578493-8.0883764-13.3392818,2.5666692,0,0h0Z"/>
    <path d="M953.0288745,826.1154153c-.6578493,2.3090776,1.3156986,2.5666692,3.1597903,2.6961255.5931212-2.2456704-1.2509705-2.503262-3.1597903-2.6961255Z"/>
    <path d="M956.1886647,828.8115407c-.5931212,2.2958677,1.2509705,2.5534593,3.3539747,2.7608536.529714-2.3738057-1.1862423-2.5679901-3.3539747-2.7608536Z"/>
    <path d="M959.5426394,831.5723943c-.7224057,2.2958677,1.1228352,2.501941,3.1612831,2.6961255.6576774-2.3103985-1.3158705-2.503262-3.1612831-2.6961255Z"/>
    <path d="M747.7217662,839.788906c-2.3738056-2.5666692-5.8572366-4.2046876-9.6761972-5.5203862-1.5085621,5.842706,4.6062662,5.1980665,9.6761972,5.5203862Z"/>
    <path d="M962.7039226,834.2685198c.4516041,3.1597903,5.8438549,2.3090776,9.5967664,2.6961255-.528393-3.0963832-5.8559157-2.2971887-9.5967664-2.6961255Z"/>
    <path d="M972.3006889,836.9646453c-.5931212,2.2958677,1.2522915,2.6313973,3.0963831,2.8242608.7225775-2.3605959-1.1862423-2.6961255-3.0963831-2.8242608Z"/>
    <path d="M747.7217662,839.788906c-.6578493,2.2324606,1.1096253,2.5679901,3.1597903,2.6313973.6578493-2.2311396-1.3156986-2.5666692-3.1597903-2.6313973Z"/>
    <path d="M975.397072,839.788906c-.4636649,2.2324606,1.3804268,2.5679901,3.2126296,2.6313973.7357873-2.2311396-1.1096253-2.5666692-3.2126296-2.6313973Z"/>
    <path d="M750.8815565,842.4203033c.8520337,10.7845018,14.0618593-.4504551,0,0h0Z"/>
    <path d="M1062.0733422,877.7288469c-30.4565737-9.4688032-54.3227655-24.5240417-83.4636406-35.3085435,22.562382,12.822778,55.7679204,44.98342,83.4636406,35.3085435Z"/>
    <path d="M539.1769298,853.2695333c2.1148931,1.7806845-1.4451549-1.1096254,0,0h0Z"/>
    <path d="M731.54518,883.2624429c15.518737-2.5666692,27.6836653-21.8398051,22.6137343-32.6890351-4.1412803,13.7395399-23.0788862,14.9257822-22.6137343,32.6890351Z"/>
    <path d="M561.6098555,861.4226378c1.9735479,1.8454127-1.3156986-1.1096254,0,0h0Z"/>
    <path d="M426.7890552,864.1834914c15.9838889,17.4924514,29.3997877,51.0335202,51.3043204,54.387495-12.3710016-22.2149641-27.6957202-41.6941733-51.3043204-54.387495Z"/>
    <path d="M808.687753,872.3365959c-2.8373026-3.9352071-4.8123394-8.6696087-12.9007156-8.1531045,2.8387915,4.0250339,4.8770676,8.5533622,12.9007156,8.1531045Z"/>
    <path d="M474.9335853,891.3508193c8.7462255-8.5520413-17.8279805-30.3918463-25.7102834-16.3048881,12.1002002,2.425324,12.1649283,15.0539175,25.7102834,16.3048881Z"/>
    <path d="M962.7039226,872.3365959c16.1765804,1.6512282,13.0154692,19.801529,28.8051736,21.6469416-1.7793635-11.9720652-16.9759468-27.0391925-28.8051736-21.6469416Z"/>
    <path d="M612.9656941,893.9835376c9.5335311-11.9720652,28.8700737.7859846,38.4815427-10.7210947-19.6733931-5.9853721-32.4314426-13.6087626-51.3690485-8.2165117.4651486,13.7382189,29.4645158,5.0567213,12.8875058,18.9376063Z"/>
    <path d="M824.658432,880.5029103c-2.953717-4.8123396-5.908755-9.482013-15.9706791-8.1663143,2.1677324,5.3407326,8.6048803,7.2495524,15.9706791,8.1663143Z"/>
    <path d="M831.1736865,885.8951612c1.1213456-4.5415381-2.5681586-5.1993875-6.5152545-5.3922509,1.3804268,2.4372129,2.7608535,4.7978088,6.5152545,5.3922509Z"/>
    <path d="M847.1560859,893.9835376c-2.1664114-5.1993875-8.6167692-7.2376636-15.9823993-8.0883764,2.1015147,5.3922509,8.4224162,7.2878609,15.9823993,8.0883764Z"/>
    <path d="M901.608478,888.6546938c-.5298843-8.1517835-13.2879338,2.5679901,0,0h0Z"/>
    <path d="M901.608478,888.6546938c-2.1031746,7.3023917,6.7725072,5.3288437,9.5967679,8.0883764,2.3738056-7.2363426-6.6432213-5.2627946-9.5967679-8.0883764Z"/>
    <path d="M596.85367,893.9835376c1.9735479,4.0118241,3.8176396-.2073943,0,0h0Z"/>
    <path d="M847.1560859,893.9835376c25.7750116,21.7618671,53.2012513,41.8223087,80.1625052,62.5392785-17.3643156-28.6772109-49.588364-44.982099-80.1625052-62.5392785Z"/>
    <path d="M523.0635846,915.7454047c4.6709943-1.4451549,7.8307846-4.2046876,9.611469-8.0883764-8.3591776-1.5732903-11.507079,1.0581071-9.611469,8.0883764Z"/>
    <path d="M539.1769298,918.5709864c8.8875706-1.5746112,21.5822129.1294563,19.1436791-10.9139581-12.1002002-1.1862424-14.6034621,5.7277805-19.1436791,10.9139581Z"/>
    <path d="M510.2409674,921.2023837c-1.5087225,3.5600481,15.9190003,1.2509705,12.8226172-5.4569791-4.7344015-4.2694157-14.3313397-2.9537171-12.8226172,5.4569791Z"/>
    <path d="M959.5426394,961.9797952c-3.3539747,8.2178327-11.3776227,12.1002005-9.7263945,24.6006587,6.7079494-2.9669269,24.2651285-21.2466839,9.7263945-24.6006587Z"/>
  </g>
</svg>