<?xml version="1.0" encoding="utf-8"?>
<!-- Generator: Adobe Illustrator 27.2.0, SVG Export Plug-In . SVG Version: 6.00 Build 0)  -->
<svg version="1.1" id="laurel" xmlns="http://www.w3.org/2000/svg" xmlns:xlink="http://www.w3.org/1999/xlink" x="0px" y="0px"
	 viewBox="0 0 500 1305.5085449" enable-background="new 0 0 500 1305.5085449" xml:space="preserve">
<g id="outline">
	<path fill-rule="evenodd" clip-rule="evenodd" d="M317.2146912,1043.0661621
		c1.2467651,0.0412598,2.5127869,0.1086426,3.8049622,0.1567383c-0.7759399-3.9465332,2.3422241-3.6795654,1.586853-7.6103516
		C319.9523621,1037.177124,318.1138,1039.6220703,317.2146912,1043.0661621z"/>
	<path fill-rule="evenodd" clip-rule="evenodd" d="M87.3457336,842.2892456
		c-3.8494797-0.1611328-7.6544342-0.3178711-11.4845276-0.4540405
		C75.3258743,845.1520386,87.7881851,846.8652954,87.3457336,842.2892456z"/>
	<path fill-rule="evenodd" clip-rule="evenodd" d="M231.014389,309.7812195
		c1.5189667,0.272583,2.2739868-0.1992493,2.6064606-1.1778259
		c-12.4978333-58.1206665-23.2843781-117.8574066-32.5778656-178.9577332
		c-2.3886261,29.5402985,2.9346924,61.526413,9.1849518,91.1256866c2.9807739,14.0165558,6.3340607,28.3816071,9.8496857,42.5701752
		C223.9686127,279.1427612,227.9286652,294.9515686,231.014389,309.7812195z"/>
	<path fill-rule="evenodd" clip-rule="evenodd" d="M231.8330688,257.4334717
		c1.4530029,0.2405396,2.2754669-0.2109375,2.5845795-1.1924438c-6.4581604-30.5179443-10.1586304-63.6079712-19.4032898-91.5230408
		c-4.2788239,9.2865448,1.6155853,20.9714508,3.8039246,33.3701019
		C222.5133057,219.1133728,222.9945526,242.8264008,231.8330688,257.4334717z"/>
	<path fill-rule="evenodd" clip-rule="evenodd" d="M184.1376953,1304.9788818
		c0.1259003-38.7952881-0.9239349-101.1136475,17.9123077-129.6761475
		c7.3656311-11.1572266,26.2656555-21.6915283,39.6940155-34.237915
		c13.5819855-12.6539307,23.7325439-28.2333984,35.9556274-36.9221191
		c25.5076599-18.0776367,62.4741211-25.5878906,88.762207-46.3485107
		c34.1371155-26.942749,52.863739-79.7741699,73.888092-123.6368408
		c24.0134888-50.0891113,50.4289856-90.0251465,58.4659424-153.6412964
		c2.4382629-19.2998657,0.4393311-44.0281982-0.0825195-62.6482544
		c-1.2153931-42.1177979-2.0875854-84.9328003-15.684845-120.7683716
		c-3.5242615-9.1604004-9.1638794-15.7138672-11.8670959-23.4829102
		c-12.5027771-35.6973267-11.4194336-71.9733276-18.8582458-105.5593872
		c-5.6368103-25.4656067-15.0689697-50.055481-26.5665894-71.3247986
		c-2.9705505-5.4745789-9.1972961-9.390564-12.2286987-14.5713806c-3.1510925-5.322937-2.9744263-11.8595276-5.7513733-16.8468018
		c-3.6825256-6.630188-9.908905-12.747467-14.5436707-19.7305298
		c-12.724884-19.2574768-24.0020447-41.7272034-38.4580688-61.5973511
		c-3.9726868-16.0655212-9.7088928-30.4776611-14.853302-45.3466797
		c-5.0956116-14.7014618-7.9536438-30.7887573-14.9031067-44.0321808
		c-14.8675537-28.5328827-42.5227356-48.1350403-62.2443542-74.0248337
		c-19.9030151-26.0978394-43.8224335-47.5694122-59.6144257-76.4967651
		c-6.7559357-10.7268982-2.9037018-41.7733536-14.903244-44.0310097
		c-6.7242889-1.255368-18.002182,19.3961124-21.5237274,27.2723923
		c-7.1174164,15.9745789-7.6268616,20.9276085-12.893692,35.2823486
		c-7.8237305,21.3774147-21.6522675,47.7339363-28.21035,67.9041595
		c-10.5062332,31.9680786-10.1078796,66.4257355-16.7521896,100.3069305
		C97.0476685,291.2449646,64.383049,346.1532898,49.6574097,403.638855
		c-7.6424065,29.8615417-8.1930161,63.5739136-15.4835358,100.362793
		c-5.1387177,25.9935303-10.8582687,37.1498413-16.477087,61.9932861
		c-5.0089474,22.0356445-13.5116968,43.8375854-16.5664959,63.2458496
		c-3.4503837,22.1732178,1.9069306,41.9607544,3.9799953,61.5184937c0.7471061,7.1054077-0.4666238,14.1482544,0.4735479,20.4675903
		c3.9712086,26.5415649,19.3056355,58.170166,27.3550739,84.1613159
		c3.1460686,10.1438599,4.7712173,20.3970337,7.8332977,28.4440308
		c5.6787758,14.8665161,17.4107018,23.6386108,13.6561127,42.715271
		c6.0080719,5.0928345,5.6406708,16.0792236,10.6229057,22.1437988
		c1.5967102,29.5560303,11.9644089,52.4330444,20.1300812,73.652832c3.4533768,8.9888916,5.1048355,19.2216187,9.081543,28.4735718
		c8.4277496,19.699585,26.4538116,34.7944946,36.1721191,55.1091919c4.1620178,8.6962891,6.411438,18.958374,10.3919373,28.5466309
		c3.5061493,8.3927002,10.1646576,16.59375,13.0696869,24.7943115c2.4688416,6.8719482,1.6721191,16.2969971,4.1645203,24.4571533
		c2.29422,7.5216064,7.1164246,13.565918,8.1526794,20.7779541c2.7869873,20.1343994,0.4940948,42.5013428-3.6977997,61.1976318
		c-1.4632416,6.4439697-6.810257,11.7020264-8.3631439,17.5782471c-1.8408356,6.8591309-3.2866974,23.0755615-3.8311768,31.7907715
		c-1.010376,16.4328613-0.7559052,32.5852051,1.8729401,49.9417725
		C160.9910126,1304.5467529,172.234848,1306.3612061,184.1376953,1304.9788818z M50.9144173,696.4071045
		c0.1975136,3.94104-17.5084114,43.3670044-8.000988,40.5808105c5.9693108-1.7485962,3.2439766-33.5679321,12.9402046-36.5616455
		c0.9087486,6.5585938,4.5263672,10.5840454,7.0669975,15.6102905
		c-5.5379524,12.0953979-16.3678322,37.0910645-8.3893013,50.8121948
		c2.6962242-16.5794067,7.2925644-31.1220703,10.7657585-46.8723145
		c21.0212631,9.3653564-10.1274452,40.5328979,1.4894943,60.125061
		c6.2155457-12.3207397,5.8076401-31.8425293,11.9659271-44.2642212
		c26.6364822,7.4794312-3.9361115,38.8585815,5.3851242,57.7323608c5.3560944-11.942749,6.9815598-27.9276123,11.8297577-40.4341431
		c1.3809814,4.473877,5.6510925,6.2653198,7.2690735,10.5258789c-1.8419952,13.8475342-15.9749756,36.1794434-6.9826965,47.0144653
		c4.5083466-14.5882568,8.2025604-34.2860107,13.2595749-44.2277832
		c20.3463364,9.5696411-9.6944427,39.8577881,2.8708191,56.3490601c5.0293427,0.5534668,8.8927841-0.12854,10.3752441-3.4182739
		c-4.1064224-0.8890381-5.9691772,0.6485596-8.9947433,0.9261475c1.202713-14.6581421,4.6120834-26.9631348,9.1804352-37.9872437
		c5.3783264,0.3555298,7.1347504,4.0651245,9.9444885,6.7733765c-3.8886871,2.8919678-2.9250793,11.0453491-6.9127579,13.8097534
		c2.2347641,10.1901245-8.0272827,29.5921631,1.0817947,37.1167603c2.7348785-16.8759155,4.2545624-29.8255005,8.2309418-46.9849243
		c5.6568451-1.116394,4.0225372,4.4836426,8.7900238,4.1698608c-3.8035889,19.4644165-17.4037094,45.4783325-8.8435211,62.2978516
		c5.3171387-14.7530518,5.5881653-33.4117432,10.9491119-50.7095337c4.182373,0.0999756,4.9990845-3.4245605,10.3062439-2.1394043
		c0.6462402,1.8546143,1.8915863,3.1939087,3.6717224,3.963501c-2.4757233,15.9237061-17.2330475,36.9698486-9.6579437,50.7563477
		c6.2098541-14.1074219,9.7300262-31.1500244,15.8620605-45.383606c1.4691315,3.9641113,7.5037994,3.7177734,7.2923737,9.2424927
		c-2.4306793,15.2102661-14.325058,37.2565918-12.2838135,51.9187012
		c11.2423096-10.4692993,9.5389099-34.9633179,19.7371979-46.5150757
		c2.9498444,10.2223511-3.1008301,20.3174438-6.2997894,30.4121094c-3.181839,9.9591064-9.6907349,22.5916748-2.5199738,30.5893555
		c4.7922363-6.3712158,2.6873627-20.1726685,11.1250305-22.5600586c-6.3576813-7.6516724,4.7910767-17.3803711,3.673111-27.9753418
		c16.651413,9.4624634-3.4315186,35.597229-7.2096863,53.3952026c-0.757019,3.4276733-4.5644989,12.6467896,1.9708252,14.1203613
		c5.4855804-18.4627686,12.2730408-35.4984131,17.517334-54.258667
		c12.3204346,18.4290771-12.0950165,44.9196167-7.7781067,67.4379883
		c7.4111481-15.9136963,11.5436554-35.4172974,16.1799011-54.3244019
		c13.8372955,19.0847168-12.5646667,53.0426636-8.2102814,78.9371948
		c6.3810883-20.6102905,12.7000275-41.2735596,17.8367767-63.2123413
		c8.7110443,29.3773193-11.7753601,58.1608887-14.9631042,87.6109009c1.480545,1.4971924,2.1484833,3.7247925,6.2974396,2.8118286
		c-0.8005371,4.8711548-4.8675842,16.6990967,1.8345032,17.9516602
		c8.0577698-17.0021362,10.7548828-39.8164062,16.3878937-59.4555664
		c2.5173798,14.932312-3.9225769,32.3358154-6.7602081,41.9563599
		c-5.4694519,18.5229492-5.7193451,39.2124023-13.7108459,55.6900635
		c-13.3516998-50.4413452-58.1188812-77.5134888-94.13517-108.5318604
		c-11.3522491-9.7672729-28.4274139-21.9248047-34.4751053-33.3169556
		c-5.6747971-10.6710205-6.6187592-28.8804321-11.0731506-43.8948364
		c-5.3670959-18.2353516-14.9664459-29.9480591-15.943367-49.1928711
		C30.9719563,749.8728638,3.3704503,694.4330444,19.0499058,628.664917
		c7.6767025,20.149353,22.1606731,39.9767456,23.1214542,62.2800293
		C45.1747894,681.843811,50.6219444,691.3859863,50.9144173,696.4071045z M205.2757416,1093.6258545
		c4.5704651-19.2974854,7.8178101-39.3187256,12.5137634-58.3227539
		c3.0322571-12.2600098,9.6184845-24.3963013,12.9374084-36.5394287
		c7.5466461-27.4503784,15.9133911-56.4324341,21.1918488-83.5321045c1.5669403-8.006897-1.414505-18.5239868,7.3200073-24.0031738
		c-17.1213684,89.6558838-41.7323914,182.8276367-69.2385406,265.7008057
		C191.8466339,1138.2844238,200.1376495,1115.0305176,205.2757416,1093.6258545z M161.7120361,1095.7468262
		c-5.7388611-12.3713379-10.7609558-27.654541-16.3065948-40.2684326
		c-4.8962708-11.1411133-12.5763702-19.1461182-19.2504501-30.1640625
		c-5.892662-9.6791992-11.5715179-22.7039795-17.8934479-32.6580811c-2.7830124-4.3851929-6.9036179-6.2609863-8.53936-10.5593872
		c-2.7400436-7.2990723-0.734024-15.8414917-2.9175339-23.1402588
		c-4.4780655-15.0056152-23.8953323-31.0179443-14.5852051-51.6866455
		c6.4034348,1.0522461,9.0282364,5.5907593,11.1006393,10.6503906c-0.9859467,3.3988037-5.8829117,6.5692749-2.9683762,10.1012573
		c5.8794632,0.6157837,3.1965714-8.0562134,8.020462-8.6287231c7.8534698,4.4348145,2.5614777,11.8310547,0.5157852,19.2221069
		c6.6446915-2.5105591,7.7972107,1.0195312,12.6419449,3.0342407c1.2723236-2.180603,0.2404709-6.8536987,4.0789795-6.2299194
		c9.0454254,3.6229858-0.6099396,8.857666,2.0149078,14.1378174c5.5372391,1.1173096,2.9800491-6.5301514,6.6841354-7.4066772
		c13.4418793,6.6123047-6.3146057,18.2429199,2.8721924,24.4102173c3.6009979-4.0996094,4.1634369-11.4917603,7.048996-16.3534546
		c11.6152039,6.0326538-2.2326965,18.7811279,1.3995361,29.4729614c4.6829529-4.2287598,4.922821-13.2850342,7.1618042-20.1865234
		c4.5610809-0.5024414,2.9596405,4.6496582,7.5209045,4.1364746c1.5138245,10.9463501-8.2660828,17.7305908-6.2329254,27.8726807
		c7.6315613-3.7186279,4.7434845-18.8353882,11.1928558-23.8390503c8.9024353,9.5266113-6.5830231,25.1394043-1.2041321,30.6286621
		c6.2913971-3.3776245,3.9392395-16.1328125,7.2745056-22.7225342c17.1360779,8.9326782-7.7449493,31.7722168-1.6144867,40.8560181
		c7.4901276-7.0046387,5.9609222-23.7001343,13.9604187-30.15271c5.7592926,12.9423218-10.6336517,36.4709473-6.9400787,47.0435791
		c8.8517914-8.6055908,6.0606537-29.8062744,13.0779877-40.4046631c8.5908051,17.3099976-11.907608,42.3372803-8.8227997,62.3123779
		c9.9638672-13.1810303,8.0571289-39.184082,16.1840363-54.3475952
		c4.4650574,22.4445801-14.6159973,48.727356-11.8585663,73.6796265c6.8206482-6.8341064,3.5871124-24.532959,12.669342-28.913208
		c-2.5593872,13.4674072-13.1190643,30.0964355-6.8698273,44.4677734
		c7.0862579-21.5986328,10.1136322-47.5812988,19.240448-66.9866943
		c-3.0669098,32.1662598-17.8271179,58.7397461-16.3904419,91.394165c2.6513977-0.2559814,1.4057465-4.7021484,4.0349579-4.9609375
		c-2.7984619,14.2607422-4.6190338,29.5825195-10.5400696,40.4926758
		C172.7800751,1131.425415,163.4651337,1117.0952148,161.7120361,1095.7468262z M238.3774719,1064.2453613
		c-5.1924896,11.0141602-13.0615692,32.5721436-10.6297455,43.043457
		c9.7344513-16.5125732,7.9826965-52.5439453,26.464325-55.1920166c-4.7826385,7.4036865-6.535553,19.8134766-10.1302338,29.0013428
		c-1.6899567,4.3873291-11.2616272,12.2753906-1.8578796,15.2601318
		c5.1535492-17.4971924,12.4489594-32.6732178,17.3360596-50.4473877c4.5927124,0.3369141,9.9366455-7.470459,11.5751953-2.0953369
		c-2.6682739,9.2004395-12.9237976,23.9667969-7.6805725,32.9160156
		c3.5339661-12.5681152,8.4793091-23.6359863,11.6687317-36.5953369c3.8733826,1.0803223,4.7079468-1.1199951,7.6806946-0.9888916
		c-0.2353821,10.3076172-13.3407898,25.2480469-5.0560608,31.7641602
		c1.4527893-12.5983887,7.3945312-20.3659668,8.9520569-32.8823242c4.0829468,1.6289062,8.0103455-3.5888672,10.2167358,0.4101562
		c-3.3999023,6.5471191-8.6407471,18.1223145-6.1651001,26.59375c5.5912781-8.6567383,6.3162842-24.8598633,11.4207458-30.2172852
		c20.2059631-3.0805664,46.3382568,1.7861328,65.4027405-5.0996094
		c-18.0649719,16.3988037-31.4161377,37.8778076-60.4674988,42.3554688
		c-38.8554688,15.661499-66.7260132,50.2443848-98.5978851,68.9788818
		C220.2807617,1118.3276367,216.8186798,1071.9754639,238.3774719,1064.2453613z M195.7634277,1075.3533936
		c-2.6430664,10.4663086-2.6730652,23.7322998-7.612915,31.6381836
		C188.9546814,1094.5770264,191.43013,1083.9720459,195.7634277,1075.3533936z M258.6405334,971.7301025
		c0.9187622,9.0626221-12.8453217,32.1472778-8.343811,49.5315552
		c8.8153076-23.7216797,10.2501526-55.4437866,29.5041504-67.8688965
		c-4.0362549,13.0493774-16.5670471,39.222168-13.6904297,55.7164917
		c6.0011597-17.9692383,15.259613-39.3280029,17.6098022-56.831665c4.6875305-1.1463013,11.579895-6.904541,16.6975403-3.1986694
		c-6.6222229,12.4212646-16.8939209,33.3743286-12.1268616,49.3894653
		c5.9640198-17.4873657,11.7219238-35.1752319,17.4280701-53.0072632c3.9272766,0.2872925,3.7572327-3.8710327,8.9933472-2.2020264
		c-0.1889038,5.1679688-6.550293,10.5648193-3.1502075,15.2131348c7.0482788-2.5866089,6.8381653-13.03125,10.9656372-18.7340698
		c13.7000427-2.0346069,25.8512878-5.7494507,41.1635742-6.0519409
		c12.6481323-6.0041504,25.4240723-11.911438,37.7436218-17.6912231
		c12.8813477-6.0090942,23.8904114-13.3452759,36.5423279-19.0131226
		c-4.0861511,18.5826416-10.2897034,37.2335815-17.4061584,53.0219727
		c-12.8135986,28.2232666-28.6882019,61.5981445-55.2832947,71.9482422
		c-13.8727112,5.4210815-35.5244141,2.5111694-47.4594727,4.5148315
		c-35.4046936,5.9689941-68.4365692,11.3227539-86.9484558,33.6450195
		C237.2860565,1032.8876953,242.8091583,993.2089844,258.6405334,971.7301025z M203.6957092,1036.0490723
		c0.8525085,6.4589844,1.5234375,11.9788818-3.125351,15.2044678
		C201.8895874,1046.4941406,201.3755188,1039.7420654,203.6957092,1036.0490723z M193.2323303,1010.078125
		c3.3621979,11.3638306-2.5626221,22.4824219-3.873703,33.0480957c-1.293808-0.0352783-2.5407257-0.0657959-3.8300934-0.1361084
		C188.0955811,1032.0264893,190.2810669,1020.5980835,193.2323303,1010.078125z M342.3926697,760.3021851
		c2.9325256,1.1821899,5.6610107-4.2678223,6.4352722-1.0406494c-6.1383667,13.362915-15.3015442,35.9963379-11.0178223,51.9860229
		c6.8832703-22.3779297,7.8691101-51.4570312,25.3578491-59.0865479
		c-0.4406128,11.0115967-10.9779358,23.9694214-5.1456299,33.0274658
		c5.8591919-10.9654541,7.4562378-26.546875,12.984375-37.8318481
		c45.2802429-25.9751587,77.0409851-66.5804443,104.132843-112.2363281
		c4.0227356,13.1051025,10.5906067,35.6064453,5.745697,48.819458c5.4308472,1.4052734,4.2642822,7.8868408,4.6682129,11.6688843
		c2.5403137,24.4727173-2.2574158,59.1425781-3.3867493,85.515686c-4.3251343-0.256897-8.8990784-0.7421875-10.3092041,2.1627197
		c2.9974365,0.1235352,5.9743347,0.2219849,8.9495544,0.3427124c0.2510681,6.081543-2.6281738,8.6951904-1.8825378,15.2676392
		c-4.3479614,0.6563721-11.8084412-2.1171875-14.0910034,0.7237549c4.6818237,0.1856079,9.3651428,0.3595581,14.044342,0.5567627
		c-11.6596375,30.6522217-25.171051,73.3885498-48.3087463,90.1315308
		c-22.0707092,16.0090942-51.5810547,32.9212646-79.4509277,37.7784424
		c-26.2593384,4.5741577-60.3475342,10.7556763-78.8850403,22.4595947
		c-7.0776367,4.4721069-11.3839111,13.9759521-17.0815125,12.1085815
		c2.0179749-13.4088135,7.454834-27.8227539,10.675293-43.0376587c8.702179-41.5472412,14.5595398-90.6630859,31.50354-118.9199219
		c-9.8158569,27.2455444-18.8819885,68.9212646-19.1756287,97.6593628
		c13.1561279-40.2902832,14.4513855-93.4702148,39.2709961-121.1497803
		c-10.0260315,27.2652588-15.9264526,69.3765259-19.402832,102.7643433
		c14.0635376-35.3647461,9.5899353-90.7687378,35.1741943-113.670166
		c-12.1210327,28.6121826-10.4546509,68.2592773-14.2863464,102.9942017
		C331.9323425,837.2296143,324.370636,788.4690552,342.3926697,760.3021851z M108.2683716,927.4690552
		c0.211731,1.4519653,1.343895,2.0245972,2.446785,2.6504517c-0.2919312,3.2313232-2.0310135,4.8889771-5.2996521,4.8925781
		C105.299408,931.3471069,105.999054,928.5612793,108.2683716,927.4690552z M199.9147644,840.3216553
		c-4.6998596-5.9137573-10.2379303-11.0635376-13.3381348-18.4425659
		c-56.7505188-46.3284302-108.5662994-97.2253418-147.076416-160.4301147
		c-1.5254593-17.1008911-20.08078-33.5016479-21.0615025-49.4099121
		c-0.6578045-10.3860474,5.456192-27.7738037,9.3844414-43.0963135
		c6.639082-26.1279297,14.6037159-58.7185059,24.7917805-78.2675476
		c4.0421677,20.663269-17.2334099,47.7937927-11.7195969,69.8368225
		c7.7060928-14.7633667,7.435833-38.1269531,17.3581047-50.4433899
		c19.2820435,52.6739807,59.9723587,85.5929871,97.4889145,121.4374084
		c0.3728485,7.869812-5.8777313,12.3989868,0.6097107,16.6374512c1.7966614-4.6871338,0.9252014-12.282959,5.6658478-13.840332
		c27.1137848,4.9788208,0.0010071,41.9988403,10.6395874,54.1086426c2.5469055-13.1900635,6.5057373-24.8939819,6.7102966-40.640625
		c27.093811,10.2844238-5.62883,55.0093994,3.3662415,76.8312378c9.2690125-17.0460815,9.0319519-44.3453369,14.0769501-65.9242554
		c2.6581573,3.7202759,8.1804352,4.7775269,11.2135162,8.1036987c1.0260162,10.2237549,0.9557343,23.8085938-0.1638641,35.7893066
		c-1.7365112,19.2497559-11.9733734,39.3729248-5.8072968,50.9177246
		c8.3539429-21.3567505,13.3329315-55.2631836,12.0178833-78.7919922
		c15.6025085,9.8745728,13.3793945,37.3721313,10.5267792,57.9416504
		c-2.4868164,18.0311279-9.8482208,36.3031616-7.1906738,52.1455688
		c10.8329773-25.0201416,12.3917999-64.5149536,14.0139771-95.3340454
		c14.2046051,28.2758789-7.557312,87.8867188-1.0361328,122.6776733c5.655365-8.9856567-2.2296753-32.6146851,10.3147125-34.1248169
		c4.1874847,15.6524048-4.3717194,36.069458-0.7557373,51.1168213
		c6.5004883-32.0101929,8.6592102-68.7294312,13.0382233-103.0249634
		c4.1730804,12.2910156,6.2041779,46.6654053-3.4927673,56.0897827c6.4800873,1.7229614,2.9809113,17.1340942,0.3813934,23.0287476
		c6.5817261,4.9577026,0.1970673,11.8349609-0.7499237,19.1429443
		c-2.7692261,21.0084839,1.2299194,50.0812378-11.3798676,60.9105835
		c5.2747803,5.5805664,0.6636047,22.6359863-4.8292084,25.3847046
		c-5.6353912-26.7636719-15.8848267-49.289917-30.5514679-67.6807251c0.3069763-1.6878662,5.3954926-2.1569824,0.0921478-2.5611572
		C202.1420898,841.9475708,201.0153503,841.1442261,199.9147644,840.3216553z M256.9970093,883.4701538
		c8.164856-53.807312,11.3471375-102.6583252,17.5984497-153.9719849
		c1.4626465-12.3195801,2.0243225-26.1211548,1.4753113-38.2890015
		c-1.8243713-41.8814697-4.6819763-85.8515015-9.2044067-123.0778198
		c-1.8635254-15.3362427-4.1841125-32.0047607-7.1303711-46.2946167
		c-1.2911072-6.2936401-5.5414886-12.0924683-6.9511719-18.1803589
		c-4.2711792-18.8504639-4.4749908-38.3345947-9.2825928-56.6025085
		c-4.8148804-18.3981934-9.1628113-36.0870667-13.2033691-54.1892395
		c-8.1069794-36.5446777-19.5152893-72.648407-19.9647369-109.4538879
		c12.9925842,66.6788025,34.4001007,130.5959473,48.4771271,197.4924316
		c2.0558472,9.7747192,0.7948914,19.7558289,2.6712952,29.494812c3.5927734,18.7066345,12.1575928,36.2221375,14.4227295,55.5371399
		c3.1485901,26.9942017,5.6825256,55.5567017,6.901947,84.6141357c1.2204285,29.4159546,3.8825989,61.1810303,1.4837036,92.098938
		c-0.4959106,6.3111572-4.0045166,12.7982788-4.6033936,19.0038452
		c-0.9719849,10.4459839,0.9291382,21.2668457,0.0413818,31.9667358
		c-2.7468567,32.7514038-12.3076477,64.0271606-19.0409241,93.8410034
		c-1.2674866-0.0557251-2.5818481-0.1066284-3.8519897-0.1508179
		C256.8841248,886.0167847,256.9515076,884.7507935,256.9970093,883.4701538z M403.9439392,398.4030151
		c0.0964966-0.763916,0.2579651-1.4970703,1.2893066-1.2160645c14.8825073,17.0391541,31.3735046,43.552063,34.2457581,72.9215698
		c1.4313049,15.0846558-1.5292969,30.2623901-1.7737122,44.6713257
		c-0.2558899,15.2417603,3.5544128,28.5632935,3.4390564,42.3168945
		c6.8167114,8.6020508,9.2001953,19.0898438,14.1088562,31.2412109c4.0283813,9.9420166,15.530365,21.9995117,15.3983765,31.3008423
		c-0.1807556,10.9743652-13.6495361,28.6030273-20.707489,38.7904053
		c-22.6702576,32.8534546-55.7348328,69.8394775-86.4789429,86.0629272
		c-20.9345398,7.1942139-44.9176636,17.9668579-58.8601685,33.4838257
		c-4.3130493,4.7858276-9.3105469,18.6524048-15.9720764,15.9797363
		c9.6623535-59.4234619,1.1089478-123.6296997,4.3925171-176.2225952
		c4.2199707,20.7213745,0.0487366,49.1547241,7.6257935,66.7769165c0.7593384-26.1872559,0.5188904-52.3512573-2.1651306-75.5083008
		c-1.5318604-13.5557861-8.6797791-28.713562-0.9910889-39.6661987
		c4.3487549,41.1560669,11.5280762,85.9735107,14.302063,124.5560913c1.5337219-4.0712891,6.8875427-4.0665894,9.1968994-7.2981567
		c-2.3952026-0.6728516-7.7587891,1.4193115-6.2518921-2.8060303c0.3960266-29.5487671-6.9225464-66.8387451-10.247467-97.5755615
		c-1.5215454-14.1917725-6.2442017-30.201355,4.0361938-36.8986206
		c5.247467,24.1419067,10.3435974,54.9862061,12.0420837,83.5582886
		c0.6130981,10.7399902-2.9006653,24.2374878,5.1139526,32.1685181
		c0.4392395-41.6417847-2.0702515-90.574585-15.6147156-123.3429565
		c15.6175842-21.2519531,28.6864319-45.2586365,47.261322-63.3078918
		c3.8803406,2.1243286,1.0370483,10.5028381,7.2486572,10.4996033
		c-6.2331848-19.4579163,7.3905945-31.1560059,15.8384094-45.3746948
		c2.2210083,7.0020752,3.7012634,21.1542358,9.4009094,20.8074646c-2.004425-18.9924927-12.4578552-31.1026611,1.7710876-44.6598206
		c9.3208923,22.9061279,10.7326355,53.193573,21.3328247,74.9630737
		c-2.6810608-23.7251282-5.8487549-50.7561646-13.7196045-73.398407
		c-2.6881104-7.7102356-9.2390747-13.2775269-4.2566833-21.8960876c21.2369995,23.438446,24.34375,63.6045532,33.1984558,98.4576721
		C429.9448547,460.4440002,418.3263855,424.9046936,403.9439392,398.4030151z M243.5152588,706.5534668
		c6.0356903,19.1896973,1.5266266,51.2081299-1.4572144,68.9557495c-2.0973358-0.0905151-4.222168-0.1513062-6.3647461-0.2593994
		C239.7644196,751.1032104,238.9106903,724.4677734,243.5152588,706.5534668z M114.2925644,580.006958
		c-12.1767883-20.2894897-27.2684555-32.7423706-40.0244141-55.24823
		c-5.8900681-10.432373-17.6453362-37.5526733-18.570549-48.02948c-1.2363815-14.6079102,5.9954643-31.3097229,8.2281952-45.6763306
		c2.2106934-14.3800659,1.131691-28.9562073,2.9988174-43.3690186
		c3.4960175-27.6725464,19.2698364-49.2406006,27.0325241-70.5106201c1.7857513,4.942749,4.8151016,8.6743469,5.844696,14.2857971
		c-9.8908157,16.829895-25.7835159,46.8536377-18.1106644,69.5978394
		c6.7670593-21.2795105,5.8047104-45.9468994,20.3042908-60.5473938
		c7.4876328,14.1219482,8.5374374,34.2457886,14.6292267,50.4176636
		c5.8805847,15.6455688,18.7101669,29.1334229,20.0897141,41.6969299
		c14.6031799,8.2412415,22.3398285,22.7779236,35.7882385,32.0908508
		c0.8602142,9.7043457-7.4766083,34.5984192,0.8534698,43.5079956c3.0265656-10.9281311,3.7093048-24.4011841,4.062439-38.2054138
		c18.7390594,8.7186584,0.8338165,37.7927246,13.4496155,47.8346863c3.4385834-9.9718018,1.6711121-25.157074,1.4065247-35.7248535
		c3.42276-3.0553284,4.6602631,2.9301147,8.8380127,2.8787842c7.7913361,24.3707275,4.1407318,59.3255615,14.7160797,81.1037598
		c-1.260498-28.3660278-4.8532715-47.0726318-7.2858582-74.4178467
		c21.6408234,17.302002,10.4808655,75.5513306,23.9776611,104.4794922
		c0.8137512-29.9244385-5.2279663-70.5301514-8.9828644-96.210144
		c13.1909485,26.7557983,15.6750946,63.4243774,21.7360535,96.7200317c0.9586334,4.1535034-4.2561493,1.5829468-4.0101318,4.9522095
		c11.3569183,0.5530396,2.0311279,20.2466431,10.575943,23.4361572c0.1585083-3.8284912,0.2960052-7.6690674,0.4542084-11.4857178
		c-0.781601-5.7427368,2.2893982-8.5873413,1.3144531-1.2366333c5.2697144,32.2225952,6.6014404,68.2815552,2.2997589,103.6181641
		C227.9530792,652.8779297,158.9315491,627.725769,114.2925644,580.006958z M246.4777527,566.0540161
		c4.3722992,7.5859375,8.2427979,28.3212891,3.7119293,35.9300537
		C251.8813324,587.3070068,247.0118103,578.7064819,246.4777527,566.0540161z M255.6708374,430.9057007
		c7.0437622,6.6264038,5.6964722,20.9541931,14.2905273,26.1304932
		c0.1431274-32.6851501-36.4750519-81.511322-18.6095428-111.9242554
		c14.3913727,27.1637573,20.0041656,74.4712219,38.3866119,97.3876343
		c-13.2760315-34.9025879-20.7557678-75.134613-36.6840668-107.5668945
		c4.575058-3.9196472,5.1292877-12.1577454,10.8058014-14.8950806c1.081604,3.358551,2.0549011,7.5839539-1.6101685,8.8938599
		c10.9564819,5.000061,4.8533325,25.7962036,16.6934509,30.0392456
		c0.1156311-18.5276489-13.7843628-30.6911316-12.2276306-46.4983521
		c0.5819397-5.883728,8.0461121-16.3556824,12.4846497-25.0654602c4.0134583-7.9185791,10.540802-15.9253845,13.7318115-23.7496948
		c9.4524231-23.2697449,8.5453186-43.9784088,11.7415771-71.1097412
		c10.5788269,7.444458,11.3993835,23.8878632,19.1167603,33.9838562
		c5.1060181,49.6654663,10.5908508,93.7585754,34.6214294,126.6365662
		c5.8945618,8.0108948,28.9415588,23.1716919,30.6949463,31.8651123c1.3583679,6.6723633-2.4372559,15.9855347-5.9381714,21.5005188
		c-3.4312439,34.4959717-28.3150024,62.8616638-48.2424011,88.8642273
		c-18.2295837,23.7605896-36.6300354,51.6257019-49.0518188,77.3019714
		C275.887207,525.3486938,266.0287476,477.8976746,255.6708374,430.9057007z M240.2986908,528.7335205
		c6.7289886,6.9105835,7.9333191,25.4543457,6.2479248,36.0427856
		C243.0796356,553.6876221,241.5450439,538.3122559,240.2986908,528.7335205z M232.7131042,493.9232483
		c-35.2785187-27.1360474-76.3889923-44.2549438-97.6515503-84.3615112
		c-16.4122543-30.9875183-19.0544891-69.1475525-35.5308838-103.6665039
		c10.8339539-21.5429993,21.0128403-43.7716064,25.8353653-71.8556976
		c6.7834244,6.48909,24.5188522,20.944458,25.6163712,30.4236603c1.0190277,8.4380493-9.1032104,17.5654602-2.3131104,26.7444763
		c5.7103271-4.4704285,0.8763428-20.3314514,7.3448486-24.0118713c22.9087372,8.3648682-0.5474854,59.5568237,14.9621735,74.7503662
		c3.296402-19.1226501-3.9011536-41.4021301,3.4733887-56.1148071c9.966629,27.7048645,0.5203705,67.6177368,15.6875458,88.8285217
		c-0.6187897-13.6255798-7.2462463-34.0019531-2.0769348-44.8326416
		c3.0837402,21.4583435,16.0531006,46.4832153,12.743866,65.707489c11.144928,7.7355042,4.446579,31.9560547,15.0392761,40.2020874
		c0.9538727-3.3327942-4.8137817-16.5657654-0.3605347-23.0154114
		c11.7709198,16.541626,15.6594543,40.4311523,19.1594086,64.6536865c-0.082962,2.1220398-3.5287781,0.5973206-3.9192963,2.4016113
		c8.6021118,1.2612,10.8739777,20.8891296,7.9681396,24.6244507
		C238.0101166,499.7035828,234.1248627,497.9844971,232.7131042,493.9232483z M194.0647125,307.0605469
		c5.2640228,30.4359131,18.2222595,60.1421204,19.4706726,90.257019c3.2272186,0.512146,5.8010559,12.6118164,0.7473755,12.7957458
		C205.3259277,378.6424255,195.1845398,341.6781921,194.0647125,307.0605469z M189.1564789,42.2823067
		c6.8492432,14.9574242,17.5954437,28.9582024,28.9718933,43.3056145
		c10.5166016,13.2538147,19.8898163,28.5882492,31.5730896,42.1508484
		c13.0199432,15.0997467,38.493454,32.3293762,45.3238983,50.3662872
		c9.4448547,25.0436249-7.1187134,76.1676636-15.1641541,92.6966705c-1.8733826,3.2747803-8.8719788-1.1445923-8.996521,0.949646
		c0.1803894,3.5223999,7.1855774,0.7226562,6.1848755,5.3466187
		c-12.3925171,25.6229858-30.2897797,45.2875061-37.5247803,76.4987488c-1.7434387-0.1395569-2.8196411,0.488739-3.8711548,1.109436
		C209.89328,258.8329773,189.7297821,150.9429932,189.1564789,42.2823067z M182.990387,296.3897705
		c5.3661804,5.0354919,6.7520447,26.3600464,2.5542908,32.0646667
		C184.0786285,319.1494141,183.4136353,302.573761,182.990387,296.3897705z M168.0101166,157.7484436
		c2.610733-27.0901642-3.148056-59.2926865,4.5383911-82.8899765c0.6345673,28.1825333,0.0792084,51.2899094,1.962677,79.3181229
		C171.83284,154.8243713,170.2763214,156.6902161,168.0101166,157.7484436z M173.1281891,156.6790619
		c8.397049,43.0595245,10.6491547,91.8316345,18.9919434,134.9542999
		c-6.039093-3.3819885-10.8531494-10.411438-16.0164185-15.9541626
		c-17.0004578-18.4412231-35.0304565-36.9899445-47.5437775-58.1099243
		c3.6259308-61.7276306,11.9233551-118.4161377,36.8778687-157.0639954
		c-2.7509308,48.1981926-9.7148438,110.4784088,5.7363281,145.9453583
		C175.6486511,193.0507812,159.5600891,166.6587372,173.1281891,156.6790619z M173.5959167,48.03479
		c-0.809082,4.9389076,0.6055603,19.2441635-1.9720612,17.8172531
		C172.4299774,60.9365005,170.9931488,46.628437,173.5959167,48.03479z"/>
</g>
</svg>
