<?xml version="1.0" encoding="utf-8"?>
<!-- Generator: Adobe Illustrator 27.2.0, SVG Export Plug-In . SVG Version: 6.00 Build 0)  -->
<svg version="1.1" id="laurel" xmlns="http://www.w3.org/2000/svg" xmlns:xlink="http://www.w3.org/1999/xlink" x="0px" y="0px"
	 viewBox="0 0 500 566.6033325" enable-background="new 0 0 500 566.6033325" xml:space="preserve">
<g id="outline">
	<path fill-rule="evenodd" clip-rule="evenodd" d="M481.1208191,225.2124634
		c-0.2086182-0.3288574-0.5762024-0.0282593-0.8876953,0.0496063c-3.5192261,2.5960693-7.0663452,5.8429565-10.5077209,8.7464905
		c-3.45224,2.9144135-7.6291809,5.4221039-8.8917236,9.1923218c2.8151855-1.4606476,6.9146118-5.0928802,10.7058411-8.3998871
		C475.1047668,231.6921082,478.8503418,228.328598,481.1208191,225.2124634z"/>
	<path fill-rule="evenodd" clip-rule="evenodd" d="M296.1932678,34.3430939
		c-1.0079346,12.011116-0.0742493,24.5560799,0.1130066,36.9032974c2.2744446-5.0610123,1.3371277-11.2223053,1.17453-17.1007423
		c-0.1734924-6.256546,0.4031067-12.4142189-0.6968384-18.7663765
		C296.5858765,35.0326691,296.3877563,34.6860695,296.1932678,34.3430939z"/>
	<path fill-rule="evenodd" clip-rule="evenodd" d="M438.0526123,289.5514832
		c-3.8727112,3.7843323-7.9116821,10.0376282-12.134613,14.691925
		C432.2665405,302.2662964,435.3189392,294.4393616,438.0526123,289.5514832z"/>
	<path fill-rule="evenodd" clip-rule="evenodd" d="M111.251236,172.9805298
		c-1.3472824-2.9039001-4.6756592-7.7034302-7.8656769-7.3673248
		C106.1018524,167.7210541,108.6483002,170.4656067,111.251236,172.9805298z"/>
	<path fill-rule="evenodd" clip-rule="evenodd" d="M44.0619164,126.5274506
		c0.1981087-1.4997635-1.9064827-3.6181107-2.6033058-5.3514709
		C41.2608643,122.6688538,43.3650932,124.7872086,44.0619164,126.5274506z"/>
	<path fill-rule="evenodd" clip-rule="evenodd" d="M257.0014038,450.1507568
		c-4.1559448-9.7402954-7.3035889-16.4321899-10.8720856-26.1865845
		c-1.273407-3.4873657-12.7575531-34.9301758-13.6242371-37.3846436
		c-1.3331604-3.7984619-0.6504669-10.0799866-0.1024933-14.5506592
		c1.3617706-11.1125793,5.5104675-21.9850159,11.1411743-32.3761292c1.5631409-2.8934021,2.5004425-6.0693054,3.9752197-8.2126465
		c6.193161-8.9924011,15.4916077-17.1235657,23.5767517-25.8030396c5.9950562-6.4405518,12.5170898-12.439209,18.614624-19.3183289
		c3.940094-4.4493103,6.7799072-8.414032,10.65625-12.485199c4.5731506-4.8100281,7.9120178-8.792511,11.8343811-13.6166382
		c4.6615295-5.72995,7.3390808-9.0543365,9.9670105-15.2862549c0.3465881-0.8170624,0.155365-1.4219055,0.5939636-2.1611023
		c0.940918-1.5776215,2.7590332-3.5192261,2.1574707-5.8005676c13.9918213-16.527771,20.8358154-35.739624,24.9421387-55.3375549
		c1.3331604-6.3767853,2.3624573-12.530838,1.5135193-20.4888763c-0.5939636-5.5564575-2.0723572-12.3222198-3.4518738-17.1959839
		c-1.0716553-3.830719-2.9922791-7.2684631-3.6358643-11.1516876c-0.9550476-5.772316-0.09198-11.5232697-1.1354065-17.1503601
		c-1.0926819-5.8780746-3.4696045-11.7351379-5.2663574-17.9811859
		c-3.7597351-13.0722809-8.8066101-28.5957642-16.9732666-40.040802c-1.9274902-2.7094193-2.5254211-6.1116753-4.2265625-8.9873352
		c-0.9938049-1.6870003-2.8789062-2.8187943-3.9824524-4.5695419c-5.5919495-8.8598442-8.6689758-17.252491-12.4884644-26.6251755
		c-1.0716553-2.6351738-2.4548035-4.5590391-3.0487671-6.9359827C296.2711487,6.9287395,297.4594421,2.8014112,294.8032532,0
		c-7.5795593,6.3735275-8.1525269,17.1148663-13.1041565,25.7483559c-2.3483276,4.0921974-6.0725708,7.9862862-9.4324341,12.2411003
		c-3.2363892,4.0990753-6.4195251,8.6831055-9.9706421,12.0889854c-1.014801,0.972435-2.5109558,1.5066414-3.5826111,2.5076866
		c-5.1888733,4.8560219-8.6157532,11.6645203-13.6065063,16.9095154
		c-4.9585114,5.2098618-9.4538116,10.1296234-13.7017365,15.137764
		c-9.6273041,11.3497849-14.7310486,24.2558365-19.7391815,37.2995148
		c-0.8239441,16.1069336-8.9905853,29.355957-12.8068085,43.8356476
		c-5.6872101,21.5572968-6.6600189,45.8022614-3.7064819,70.1287231
		c3.1864014,26.2506866,22.6358337,54.5313568,27.3006287,82.0373383
		c10.0198822,20.2114563,1.0082855,34.7548828-2.0404816,52.2906189
		c-3.4308777-3.2255249-6.3170319-7.8588257-10.5186157-10.4125061c-4.7958984,1.6055298-16.2626648,5.5952148-11.102417,10.9075928
		c2.8474121,0.1698608,1.6094971-2.9640198,3.6854706-3.9328613c6.4973907-0.8134155,12.2907257,6.4510498,16.5632782,13.8006287
		c10.1151428,17.3799744,16.7715302,39.9806824,22.6782074,56.3987427
		c-8.5556183,1.5066223-16.3934174-5.8501892-25.4122467-10.115509
		c-3.968338-1.8815002-21.8897705-12.3363647-24.2768555-15.3145142
		c-3.4095001-4.2584229-5.3054657-12.7608032-5.6060791-17.7834473c-0.3889771-6.4086304,0.8985596-14.2674561,3.2787628-20.5913391
		c2.7445374-7.2999878,15.7567139-29.299469,17.8221893-33.4655762c4.2443085-8.5523376,4.6579132-17.4846191,4.1168213-27.9181213
		c-0.55159-10.6142273-5.2449951-21.9357605-8.463623-33.9468689c-1.3194122-4.9302673-3.0419006-10.1542664-4.8208923-16.4144287
		c-1.1636658-4.0675659-2.3519592-11.1907959-3.8904724-15.5727386c-3.2892609-9.348053-7.4875793-17.2669678-11.5583954-25.794342
		c-5.7897034-12.1277466-12.1914825-24.7226868-20.9912109-35.9062347
		c-3.7597198-4.7745361-9.7156677-9.3299561-14.4550629-14.0943451
		c-5.0186462-5.0541229-9.5776825-11.0915527-14.1048431-14.2920837
		c-4.9730072-3.5156097-10.5468597-6.5115204-15.6364822-9.7689056
		c-10.4019775-6.6918793-20.3512421-12.5876923-31.4993057-17.5889435
		c-5.3051147-2.3765869-10.8333282-4.1874542-16.1703186-6.7197723
		C48.1258621,111.2908173,27.2690201,99.8099213,6.3129435,89.2453232
		c-2.6808076,1.2096558-1.0926771,41.1972275-1.4570236,43.7331619c-1.1814098,8.0536499-2.9814115,16.4289093-3.3812509,25.2072601
		C0.3392552,183.035553-1.7508475,209.335495,2.8291974,236.357254c1.5066414,8.8844757,1.5917521,18.1191711,3.6499834,27.1275177
		c2.086843,9.1358337,4.9233851,18.1937866,7.2293429,27.8033142c2.1082115,8.7428894,5.1461229,18.9503784,9.5494261,27.8562317
		c10.3099899,20.861908,21.2776871,40.6684265,37.8550873,55.0209961
		c16.8247681,14.5575562,32.6024857,27.2336426,52.0519257,32.7509766
		c9.421936,2.6739502,18.8902435,5.7582092,28.2520599,7.1163635c5.1779938,0.7496948,21.6702881,1.0611572,24.3724518,1.1245422
		c6.2145386,0.1202393,11.1484222-1.4570312,17.5958405,0.4385986c4.3504181,4.4141541,8.8565826,7.3354492,13.7126007,10.3983459
		c2.2954559,1.4573975,11.0843201,6.5926514,13.2207794,7.9580383c6.5357819,4.1947021,33.847641,17.5002136,37.0554199,21.7021484
		c1.3262787,1.7398987,1.72612,4.3077087,2.6561737,6.2460632c4.1345673,8.6298523,21.443924,43.3191833,26.7986603,50.838623
		c12.0111084,16.8635254,45.3672791,55.1535645,49.5054932,53.8309326
		c2.8575439-0.9054565,4.5235291-13.6524658,4.0671997-16.0222168
		c-0.8275757-4.3076782-50.5735474-54.8420715-68.3388672-89.1424255
		c1.9028625-6.5292664,16.8707581-25.2532654,22.8408203-26.3003235c7.4060974-1.3085327,17.0793762,0.9905396,24.7190552,0.9195557
		c16.0928345-0.1412354,34.1482544-0.5019531,51.1993713-4.6401672c8.6298828-2.0937195,16.9450073-5.2627258,26.8696594-8.0710144
		c8.9163513-2.518219,18.2325134-5.4326172,26.8765259-11.2541809c14.1827087-9.5639343,22.8832092-24.305481,32.2171326-36.2314758
		c9.8395081-12.577179,19.3251953-24.4256897,25.9287109-37.6464844c2.9035339-5.8287964,4.438446-12.5134583,6.2351685-18.630188
		c1.8677368-6.3521729,3.038269-12.7151794,4.8031616-18.723999c0.6084595-2.0513611,1.899231-3.8234558,2.5040588-5.9881897
		c1.7297363-6.2105408,3.4768677-11.4627686,7.7102966-17.6450806c3.6358643-20.9205933-2.2421875-44.6103516,3.2113953-66.1922607
		c0.647583-2.5464325,3.4272461-7.3637085,2.702179-8.8421021c-1.8354797-3.7242279-12.9056702-0.2263489-17.6878052,0.9869232
		c-13.8430176,3.515625-23.9690247,4.6365509-36.8432007,7.3883362c-6.0196838,1.2875366-12.874176,2.6101837-18.5295105,5.1178741
		c-9.3371887,4.1381989-18.1017761,9.4929352-26.1869507,14.0660858c-4.032074,2.2813416-7.6925659,4.7781677-11.2932739,7.3706055
		c-21.0335999,15.1555023-37.1510315,28.4081573-48.9285583,45.328537
		c-9.9916382,14.3522034-16.5560303,29.2353516-26.4629211,43.8867188c-2.242218,3.3175049-3.7206116,6.7980042-7.0663452,9.973877
		c-0.8703003,0.8275757-9.8254089,10.57547-12.1349792,14.6991882c-5.3515015,9.5780334-7.03125,21.8223877-8.4390259,33.1192932
		c-0.6435852,5.1776428-1.3016357,11.183197-2.0513306,17.1536255c-0.7037048,5.4749756-1.5421448,12.5909729-3.6818542,16.7081604
		c-2.9850464,5.7368164-8.6157532,10.5395813-12.771698,15.9721985
		C263.7356567,439.2504272,260.4250183,444.555542,257.0014038,450.1507568z M491.6821594,220.5404205
		c-0.4034729,5.0755005,0.5410767,12.2092285-2.3063049,15.9229584
		c-13.3338013,8.1029053-24.2095032,7.1724854-36.0119934,9.6377869
		c6.1964111-5.6694641,11.8836365-11.8767395,17.6345825-17.8399353
		c5.9704285-6.1822968,12.7043152-11.4841461,18.5121155-17.8891907
		c-16.1000366,11.2860413-25.9888306,24.2732239-38.4034119,36.5675659
		c-1.9912415-0.1981049-4.2794495,1.3863983-5.4536133,0.8416901c7.1123657-6.6103973,14.0834961-13.0936584,21.4189453-20.0079041
		c8.6512451-8.1630249,15.4278564-16.4394226,26.6679077-21.1893158c0.3114624-0.0778809,0.5624695,0.0601196,0.7355652,0.4878387
		C492.4742432,210.7856445,492.0606384,215.7691498,491.6821594,220.5404205z M407.9646912,262.4837341
		c0.0282593-1.7330017,0.1520996-3.4410095-0.2901001-5.3015137c7.4169617-8.7218475,17.7164307-16.6621399,24.6556702-25.51474
		c-9.8786316,6.9884949-17.04422,16.2622986-24.8041687,22.8621826c0.8525696-1.7047424-0.3817139-3.979187-0.1520996-5.850174
		c2.8542786-3.9364624,11.2896729-8.6863708,14.147583-13.5637665c-4.6296692,2.0303497-9.210083,8.1311646-13.8042603,10.1720123
		c0.6294556-4.1273346,0.1731262-9.2346954,1.9133606-13.4152679c2.1183777-5.0823822,7.1337585-8.5201263,14.2428589-11.7988892
		c10.4443359-4.8208923,22.9787903-7.0844727,31.1490784-7.7704315c8.3506165-2.5960541,16.2764282-3.6289673,24.3688354-5.269989
		c2.3414612-1.4714966,4.5343933-2.4439392,5.9950562-0.6863098c-6.0446777,3.9828186-11.7355042,7.4451904-17.6349487,11.452652
		c-7.4625854,5.0610046-14.1330872,12.7571869-19.0600891,17.7443237c-1.6410217,1.6656342-4.0990906,2.6630554-5.793335,4.2265625
		c-9.2133484,8.4882507-17.291626,18.7381287-24.7541809,26.9399109
		c-3.8339844,4.2088013-6.8331299,9.1430664-10.6069946,13.3728943c2.2494812-13.9668579,21.3237-25.4441376,29.9604492-38.590683
		c-10.8369751,9.6309204-21.5109253,20.8568573-29.1788635,30.3780365c0.3042297-2.13974-0.1981201-4.5057983-0.1981201-6.7306519
		c9.4009399-12.3399658,23.7180176-23.346405,34.5763245-35.2941437
		C428.3937988,239.7913818,417.9881897,252.340332,407.9646912,262.4837341z M482.7161865,285.4520264
		c1.9593811-4.0143127,4.2511902-7.9399109,4.272583-12.4884644c-3.4804993,4.6228027-2.981781,11.4312744-7.3177185,15.1413879
		c-3.5264893,3.0238037-9.8254089,4.3855591-15.088501,6.3449097c-15.0030518,5.602478-31.5449524,9.8431702-44.5075073,13.1429138
		c7.0381165-11.7315063,17.7479553-24.0044861,21.6029358-35.6371155
		c-8.4850159,12.2019653-15.7954712,24.7295532-25.0903015,36.7160339
		c-1.8249817,0.6682129-3.4804993,0.6895752-5.4043579,1.7188721c0.9796753-3.7137146,4.1983337-6.129425,6.5785217-9.2346802
		c6.6951294-8.7218628,13.2490234-19.5447083,16.6976318-28.2596741
		c-5.8994141,8.9768372-12.6372986,19.7992859-19.8384094,29.1437378
		c-3.5083618,4.5485229-6.6350098,10.5399475-12.1842346,10.6141968
		c9.2169495-13.1642761,21.1433411-27.1419983,26.6643066-40.3482666
		c-7.6929321,10.9854431-15.7603455,23.003418-24.0117493,33.8121338c-2.6775513,3.515625-5.3547363,8.6689758-10.3172302,9.0967102
		c5.7263184-6.7411194,11.109314-13.6275024,16.0609436-20.5913696c5.0258789-7.0667419,9.881897-14.1120911,13.6981201-21.5290222
		c-8.7852173,11.3957825-16.7077637,23.6582336-25.7338562,34.8026733
		c-3.0665283,3.7810974-6.0906677,8.0782776-10.2111206,10.8615723c7.3745728-9.124939,13.5641174-19.4595642,20.0365295-28.8039856
		c7.225708-10.4338684,15.540863-22.2856445,24.5068054-31.3577271c0.4595947-0.480957,1.0079346-0.9441833,1.5171509-1.329895
		c17.0511169-12.9907837,35.729126-7.3531952,52.6744995-16.4357758c1.9416199-1.0361786,2.8256836-2.6985626,4.1204529-2.3519592
		C492.1240234,254.8444061,493.8255005,273.7346497,482.7161865,285.4520264z M452.7731628,238.687851
		c-4.1628418,3.7597198-8.9942322,10.2462463-13.7053833,11.9441071
		c7.8482971-8.4107513,16.6940308-18.0981598,27.3574829-24.7755585
		C461.7601318,230.0970917,457.8131409,234.5391541,452.7731628,238.687851z M463.4793701,347.5611572
		c-2.0372314,1.3153992-4.835022,4.0813293-7.0739746,3.6003723c4.6792603-8.7924805,11.9017334-16.8921509,14.1367188-26.3423462
		c-3.3207703,6.5926514-8.42453,14.0342407-12.6652222,20.9310913c-2.4156799,3.940094-2.9886475,9.2452087-8.7432251,8.6508789
		c6.5502625-9.5353088,13.3055115-20.5700073,16.057312-30.174469c-2.9071655,5.268158-6.1895447,10.835144-9.5247803,16.8548279
		c-3.8799744,7.0102234-7.7454529,15.9584351-16.7008972,18.6816101
		c9.1358032-11.9263611,18.3987427-25.3735046,22.1972351-37.7895203
		c-3.5228577,6.6864319-7.2079773,13.2932129-11.6398926,20.338562c-3.3953857,5.3974915-9.467926,16.1424255-15.2261353,19.6649475
		c-1.5417786,0.9481506-4.6155396,1.3936462-6.9710999,2.1647034c-8.0214233,2.6170654-15.7708435,3.7774658-22.6568604,4.2794495
		c-10.214386,0.7641602-19.9832764,2.4120483-28.8891296,0.5588074
		c8.6795044-7.8022766,16.4285583-17.4013367,20.0397949-25.6136169
		c-5.269989,6.3025513-10.9463501,14.9820251-17.0898743,21.1925659c-1.8181152,1.8250122-4.5909119,5.6730957-7.4205933,3.7774963
		c5.7332153-6.451416,11.0564575-13.4540405,16.2554321-20.2520142c5.2453613-6.8544922,11.2860718-13.1215515,14.635437-20.6833801
		c-7.3528442,8.6722412-15.9794617,20.7398682-24.0117188,30.6148987c-2.4932251,3.0697632-6.3308105,8.7145996-9.3900757,9.9315186
		c-1.135437,0.4526978-5.2417297,0.0423584-4.5202942-1.5207825c6.320282-4.0744324,9.9246521-11.0846863,14.4869385-16.9558716
		c4.6014099-5.906311,10.1792297-11.3461609,13.0194092-17.9388123
		c-7.2612305,8.9692383-15.3713684,19.4103394-23.0852966,28.2593079c-2.3943176,2.7518005-5.6517029,8.0500183-8.8384705,6.8827515
		c4.8418884-5.6517334,9.7156677-11.452301,14.29245-17.302124c4.5836487-5.8642883,9.4537964-11.6858826,12.4707031-18.0876465
		c-7.3742065,9.0967102-15.2047729,19.141571-22.7383423,28.0684204c-2.3128357,2.7376709-4.7111511,7.8377991-9.3831787,6.7342529
		c5.6093445-4.9443665,9.7580261-10.9640808,14.348938-16.4180298c4.6756592-5.5742188,9.6026917-10.9006958,13.5992737-16.90625
		c-11.3143005,9.8891296-17.6063538,22.6854553-29.4725952,31.4638062c-0.3219604,1.8746033-2.4157104,4.0179443-4.4706726,2.546814
		c7.4770813-7.0171204,12.4214783-15.0671387,19.8912964-21.8720398c6.3594055-5.786438,9.3266907-14.6636658,15.0280151-19.9973755
		c3.2258911-3.0256042,9.9952698-6.0001526,14.2960815-7.7226257c26.310791-10.5541077,60.5401611-13.2454224,85.5848389-27.499115
		C478.8148499,309.5488892,473.976593,329.3322449,463.4793701,347.5611572z M289.4380188,100.7294769
		c-0.1311035-2.9354172-0.7004395-5.9914322,0.04599-8.6968689c-0.951416-2.4866867-0.3857117-4.5590363-0.7428284-6.8827438
		c8.0605469-10.2853622,19.7710571-19.5801773,22.2041321-31.4036942
		c8.2800293,15.6929703,24.2417297,38.4030533,23.7006226,52.6140137c-0.0851135,2.2070847-1.2556458,4.2088165-2.7021484,5.6484604
		c-0.848938-5.6484604-0.0532532-12.3968353-3.837616-17.8754349c1.0292969,7.0489807,2.4262085,14.2040787,1.8746338,20.8322144
		c-3.7915955,4.0922012-9.8007812,7.5900726-16.0609436,11.0100708c-1.9734802-2.5073242,1.2096558-7.5828171-1.8213806-10.3664856
		c-0.1380005,3.6394806-0.4313354,7.2402115-0.0956116,11.006813c-1.5772705,0.8275681-3.091156,1.4077682-4.519928,1.6728745
		c-1.237915-5.6625748,1.4110413-10.2639923-1.6304932-16.4107971c-0.8170776,5.6799622,0.0742493,11.8235092-0.9728088,17.440094
		c-1.3049011,0.5233459-2.5323181,0.7710724-3.9824524,1.8213806c-0.1908569-7.6998138,2.5678101-16.1384506-0.2509766-23.5872726
		c0.1202393,6.5607681-0.8808289,14.0378418-1.7120056,20.1458969c-0.3110962,2.2566986,0.2372131,5.3373413-3.2432556,5.5035858
		c-0.7674561-11.9122467,2.3378296-24.323204-1.4888916-36.1079636c0.7145691,10.0658798-0.1698608,20.4573593-0.6294556,30.0172882
		c-0.1343689,2.9531631,0.9832764,7.7316818-2.843811,9.3904343c-0.6685486-15.9617081,2.1574707-33.4800339,0.1767578-50.757515
		C289.4097595,90.2782364,290.8845215,97.1537399,289.4380188,100.7294769z M300.1261292,38.0282059
		c2.787262,4.4529228,6.9747314,8.845726,8.3578491,13.0194092c2.7727966,8.3361473-9.4682922,19.247345-16.3014221,25.7516174
		c2.5924377-14.677803-0.7004395-30.9651031,1.1564331-45.841011c-0.2792358-0.7391949-0.8522034-0.420845-1.2730408-0.6403217
		c1.0890503-0.9514294,0.098877-5.2732449,1.7188721-4.1805687
		C295.8749084,30.4913788,297.6930237,34.1449852,300.1261292,38.0282059z M404.6754456,247.9439087
		c-0.1271362,11.2154236,4.042572,27.70047-1.1140442,37.1473999c-1.9840088,3.6148682-5.5456238,6.8936157-8.1065369,10.5646057
		c-5.1388855,7.3778381-10.2991333,14.1580811-15.1268921,21.4334106
		c-2.3378296,3.5192566-4.5166626,7.6661377-8.3010254,10.2266846c4.0143433-11.7829285,16.969635-22.67276,21.5605469-33.3329773
		c-7.2329712,8.0040283-13.2667847,17.8823242-19.8912964,25.0761719
		c-1.0785522-8.2336731,8.2514038-13.6275024,10.8970947-20.8459778c-4.4811707,3.9118347-7.7599487,8.1452637-10.649353,12.4884644
		c-1.0575562-16.7364197-6.3840332-34.6364746-1.5493774-49.7705994
		c3.3848572-6.5289001,13.7832336-11.154953,18.3668823-17.3517303c-6.0584106,3.0911407-10.2389832,8.2372742-15.3710022,10.614212
		c2.5218201-5.4539642,8.7606201-9.9068909,15.3250122-14.6955414c5.0932617-3.7137299,11.0846863-7.2684631,16.8001404-10.5222321
		c0.3110962-0.0778656,0.5693359,0.0601196,0.7323303,0.4950867
		C405.7894897,235.5756836,404.7427979,241.7156067,404.6754456,247.9439087z M277.2921753,200.7766266
		c-0.2651062-11.6612701,4.5731506-25.5325012,6.4267578-37.4483795c1.2306519-7.9294128-0.6863098-18.6001282,6.8190002-23.9762421
		c13.489502-9.6696625,37.2958984-12.7043152,43.2235718-26.5545502c1.6482544,8.2973938,2.4229431,16.3684235,5.3196106,25.2565308
		c1.5349121,4.7111511,4.7958984,9.6732788,5.2131348,13.8998413c0.3962097,4.0425873-3.1972656,11.671402-5.8853149,15.2402649
		c-3.3740234,4.467041-8.8453674,7.540451-14.1048584,11.2577972c0.0706177-6.7624969,3.2396545-14.2182007,0.9760742-20.6409912
		c-0.1235046,3.6039886-1.0466919,7.1656036-1.6620178,11.4450531c-0.4845886,3.3424835-0.2404785,9.1781921-2.5500793,11.5055237
		c-3.0313721,3.0415192-9.0438232,5.0787506-13.1146545,6.5890198c-3.6572266,1.3512573-7.5900574,2.1715851-11.158905,3.6394806
		c2.0973206-8.813858,4.8701172-19.9655457,3.9683228-30.5688934c-2.4721985,10.5504761-1.8956299,21.9426422-6.9146118,31.7999115
		c-0.7109375-0.2230988-1.6870117,0.5128479-2.6029358,1.0289459c1.2802734-10.1010284,6.1540527-23.2866669,4.6578979-34.1482544
		c-2.2672119,12.1596069-4.2298279,24.4007111-7.558197,36.2633362c-0.7993164,0.4599609-1.6058655,0.9195557-2.4051819,1.3795166
		c0.0354919-3.7242279,0.9941711-7.558197,1.6659851-11.4522858c2.0618591-11.9049988,3.9897156-24.2522125,4.3609314-36.2633362
		c-3.3917542,11.3603058-3.7666016,25.1149139-6.0834351,37.2499084c-1.0292969,5.4115906-1.2871399,11.654007-6.0798035,14.8867645
		c2.953186-15.2616272,8.5838928-33.8548737,7.8377991-50.1244354
		C284.6631165,167.7456818,282.6646423,184.7297974,277.2921753,200.7766266z M285.7771606,28.8891239
		c-0.0601196,2.9567833-1.6163635,5.6270885-2.0158386,8.4531269c-0.276001,1.9948502,0.5693359,4.0425797,0.3502197,6.1928024
		c-0.2901001,2.836544-2.23172,5.2913551-2.4088135,7.76717c-0.1767578,2.4649544,0.905426,4.6401672,0.7391968,6.8754997
		c-0.1448975,1.99123-0.9797058,4.1878128-1.4146729,6.2920418c-2.6916504,12.7644348-3.4660034,25.7766037-6.3804016,38.332428
		c-1.6236267-3.0346451-0.7569275-6.8968658-0.1981201-9.9278946c1.7931213-9.754776,4.7357788-19.4773254,4.0639648-28.8007507
		c-2.9959106,11.3816605-4.032074,23.2902832-7.1091003,34.6505737c-3.4203796-5.3793564-0.6790771-11.586647,0.4845886-16.7150269
		c1.2694092-5.5847092,2.8611755-11.2081757,2.5993042-16.9946213c-4.1236877,9.3266907-3.6358643,19.9126511-7.4060669,29.3345947
		c-7.4980774-9.0119629-11.96875-20.6587296-12.8386993-29.6210785
		c10.6424713-12.1067276,22.6677094-23.8277473,31.141861-36.5179405
		C285.5084229,28.432785,285.6427917,28.6663876,285.7771606,28.8891239z M289.123291,53.9015427
		c1.48526-3.5684929,1.1564026-7.6183167,1.6692505-11.4486618c-0.1908569-0.3676071,0.2828674-0.5233421,0.5410767,0.1484909
		c-0.3820801,11.9901123,0.7888184,24.4115753-0.2828369,36.2140808c-0.9550476,0.7214508-1.7011414,3.0027771-2.5040894,2.7974243
		C289.2503967,72.5161667,289.604248,63.3274689,289.123291,53.9015427z M285.1973267,62.9913712
		c0.9619446-3.5083733-1.0506592-9.3726845,1.1281738-11.593895
		C285.1795654,54.8674583,286.9020691,60.6466599,285.1973267,62.9913712z M274.2046509,221.710968
		c0.1133423,0.1839752-0.0565186,0.5519562-0.3429871,0.1912231c0.5975952-3.9013367,1.1035461-7.8236694,1.4678955-11.7920074
		c6.1681519-10.8191986,21.1078186-15.0175171,33.3061829-19.9582825
		c12.8212891-5.1957397,28.4718933-15.4597321,33.4021606-24.5846863c1.3864136-2.557312,1.800354-5.9385681,3.5402527-6.589386
		c1.8076172,14.0342102,0.6580505,27.2481079-4.0143433,39.2628479
		c-4.4174194,11.3389282-8.0601501,22.3953552-19.5903015,30.3744049c1.7188721-4.2689362,3.6604614-8.4850006,2.7905273-13.4612579
		c-2.6634216,5.8889313-2.1009521,15.6364746-9.6203918,18.2817841c4.559021-10.2781219,7.3745728-22.5648499,7.0102234-33.2178192
		c-2.3805847,12.4178314-4.1628418,24.9914093-10.207489,36.4118195c-8.2550354,2.9636688-16.3579407,5.361618-24.269989,7.0381165
		c3.1690369-6.5890198,4.4989319-13.6767578,4.318573-21.1820679c-2.2740784,5.7263184-2.0723572,12.2693481-4.318573,17.9884338
		c-0.7460632,1.899231-2.0582275,4.3431702-4.1273193,5.5528412c1.0010376-9.8924103,6.171814-22.7032013,4.7075195-33.2641907
		c-1.754364,9.0365906-3.2044983,18.8091125-5.740448,27.463623c-0.7779236,2.6634216-0.9655457,6.9747314-4.5162964,8.0641479
		c1.6765137-10.28862,5.5528564-22.4873505,4.4598083-34.4948425c-2.4084473,12.2128448-2.5888062,25.0373993-7.8979187,36.4647064
		c1.0966797-11.5124054,3.7988281-26.650177,4.0603333-38.3816986c-4.530426,13.280899-1.9839783,28.4892883-8.3361511,41.2819824
		c1.7507629-10.7518463,4.1910706-22.8621979,4.9056396-32.9280853
		C274.1090393,220.5190582,274.8873291,221.3183746,274.2046509,221.710968z M439.2658997,371.4559021
		c-4.5731812,4.2301941-8.9659729,9.5849304-13.0154419,14.7487793c-5.5528259,7.087738-9.2314453,12.067627-18.1760254,14.5010681
		c4.565918-6.790741,12.1491089-12.7467041,15.0280151-20.0042725
		c-6.2424011,7.2999573-12.9129333,14.4869385-19.0068665,21.8292542
		c-17.7269287,6.451416-33.4090271,5.4184875-48.3454285,1.6410217c-3.4341125,0.0637512-8.1735229-0.4595947-10.0763855-2.4544373
		c1.9948425-1.6837463,4.8491516-3.1335449,4.1204529-5.5528564c-2.8119202,1.4219055-6.0975647,6.1540527-9.1358337,4.7604065
		c2.4370728-3.1121521,7.3887024-7.0804749,5.9914246-10.270874c-3.3776245,3.4026184-8.0108948,12.9306641-13.7086182,8.7642212
		c3.561615-4.1664429,9.6696777-7.6324158,9.5812988-12.7821655c-4.0639343,4.3290405-8.8421021,9.9387512-13.4648743,13.1642761
		c0.9655457-6.4724121,10.1861267-11.1411743,11.1056824-17.2952271
		c-6.217804,5.1848755-9.3795776,12.7256775-15.9157104,16.8566284c2.1502075-5.8925476,9.7580261-10.306366,11.1444397-16.4107971
		c-5.5068359,5.5669556-9.3016968,11.5935364-15.9052124,16.8562622c2.4758301-4.3076782,6.4868774-8.6439819,10.4552307-12.8245544
		c4.105957-4.3359375,7.5190735-9.4291687,11.3461609-12.8810425c8.4494934-7.6255798,16.6867676-4.4493103,25.0124207-3.3457642
		c6.589386,0.8627014,12.7611694,2.3200684,18.5722351,2.1502075c22.348999-0.6508179,45.5932922-2.8365173,71.2391663-17.4719543
		c0.3110962-0.0778809,0.5620728,0.056488,0.7355652,0.4950867
		C452.0480652,361.6304932,445.4340515,365.7618103,439.2658997,371.4559021z M282.9228821,142.7933807
		c-0.4632263,6.2815399-0.7391968,13.1429138-1.7648621,19.2618256c-1.0079346,6.0160675-3.2468872,11.9683838-4.3149414,17.9884338
		c-1.1035461,6.1964264-1.6196594,12.3540955-2.6949463,18.4266663
		c-2.7094116,15.2971039-6.1717834,30.6326141-9.7124023,45.2506561
		c-5.1707458,21.3446808-10.7482147,42.8168793-17.0228729,63.5925751
		c-3.6322327,12.0393677-8.6016083,23.5322266-12.0285034,35.6284485
		c-3.0418854,10.7659607-5.7618103,21.2563171-7.2543335,31.9944153c-0.173111,1.2092896-0.3183441,4.095459-1.2270355,3.430481
		c-1.4642639-1.7116089-2.7977905-3.9400635-4.0816956-6.33078c7.2257233-20.2943726,12.4779663-41.5793152,19.0387268-62.4589844
		c6.5643921-20.8782043,13.9741058-41.5332947,18.8478699-62.8037567c2.2425842-9.8253937,2.6634216-20.4254913,4.8491516-30.611618
		c2.1610718-10.0905151,5.6379395-20.124527,7.0134888-30.0278015c0.8101807-5.8748016,1.1071472-11.5265198,2.4015503-17.3517151
		c1.2342834-5.5528412,2.7413025-11.3461761,3.4804993-17.0478668c0.4313354-3.3243866-0.2158508-6.779892,0.1412354-10.1187592
		c0.6932068-6.3344116,2.8260498-12.0712433,3.038269-18.6178894c0.2158813-6.4264069,1.0575562-12.6514435,1.4219055-19.0742264
		c0.7283325-12.7434311,0.2933655-25.6458588,2.4899292-37.9293365
		C284.2209167,91.9616241,284.7445984,117.9008408,282.9228821,142.7933807z M398.3551331,296.7384338
		c-0.7815552,1.2093201-0.8170471,2.9600525-1.7224731,4.1769714c-0.7001038,0.9441833-2.09375,1.2128906-2.8930664,2.1150818
		c-4.1700439,4.7039185-6.1895142,11.7174072-11.3993835,15.1906433
		c6.5325012-9.3621826,14.6604004-21.6174011,22.2504883-30.5228882c1.0680237-1.2556763,3.4058533-3.6608582,3.0451355-2.656189
		C405.0042725,289.2012634,401.1033325,292.480011,398.3551331,296.7384338z M277.6459961,108.8360062
		c-0.5870667-1.0256805-1.1777649-2.0582352-1.7684631-3.0839081c3.1161194-9.4186783,3.137146-21.5927811,4.460144-31.3084412
		c0.1589966-1.1495361-0.0992432-3.3211288,1.2270508-3.4446335
		C279.3543701,83.3636246,280.624176,96.6832733,277.6459961,108.8360062z M368.4439697,333.0173645
		c-4.1769409,4.7676392-9.1322021,10.8652039-14.6390381,14.3033142c2.235321-3.4663696,5.6944275-6.5857849,7.4169312-10.1792603
		c-8.3930054,7.2999573-13.7336121,16.9700012-22.8375549,23.1099243
		c1.1813965-9.6486511,14.147583-16.0855713,17.5816956-25.1188965
		c-5.9276733,5.3478394-9.4537964,11.3602905-16.1069336,16.5172729c0.2404785-8.4035034-0.533844-17.0688477-1.2944031-26.1938171
		c-0.7142029-8.6708069-3.0096741-18.1919861-0.2013855-25.89505c2.9673157-8.1488953,10.8721008-13.5391235,14.7274475-22.1124878
		c-5.1392517,5.0823669-8.9942322,12.0639954-13.4580078,16.3684387
		c5.9772949-15.5053711,19.1343384-30.5938721,35.6124878-42.2757874
		C358.9300232,274.8733215,380.8831787,308.6220703,368.4439697,333.0173645z M289.0026855,111.9343948
		c0.0851135-0.9373016-0.3216248-2.5960541,0.7359314-2.7021713c-0.5979614,7.4415741-0.2832031,15.3003769-0.8771973,22.4022369
		c-0.194458,2.3486938,0.0637512,5.4858398-1.7188721,7.3745728
		C287.043335,131.2386017,288.2319641,120.1611633,289.0026855,111.9343948z M261.4789429,92.5345764
		c5.3724976,7.2047195,11.3816833,12.1139755,14.7984009,20.2875061c1.9133911,4.5836716,1.1423035,8.8174744,0.6896057,12.3718491
		c-0.2017517,1.6410065,0.2477112,3.2327499,0.102478,4.976265c-0.2582397,3.102005-1.5171509,6.193161-1.9629822,9.3339233
		c-0.6932068,4.8136444,0.367981,10.9749451-1.5171509,14.0979614c-0.5660706-2.7622986,1.4852905-7.3318329,0.4385986-11.2012939
		c-3.6358643,11.8836365-3.6322327,24.7509308-7.8979187,36.4650726c-0.7037048-1.68013-1.8318787-1.7934875-2.5040588-3.5866089
		c2.4298096-10.4972382,3.8585815-21.9813843,6.1790466-32.2877655c0.7815552-3.4978638,2.656189-7.0667267,1.7116394-10.5609741
		c-2.5464478,6.4159088-4.1805725,13.5496368-5.5916138,20.5384979c-1.4432678,7.1091003-1.4783936,14.6777954-4.7075195,20.4957581
		c-0.9373169-2.2458496-2.4229431-2.4827118-3.4413757-4.4243164c1.754364-12.1987305,6.5184021-23.576767,7.2079773-36.0688477
		c-3.8586121,11.2400513-5.4007263,23.1095581-9.0825806,34.3959656c-1.0220642-1.2063904-2.1361084-2.0763397-3.1936493-3.1903839
		c1.0890503-11.7000122,6.2637787-22.2892303,6.9638824-34.1022491c-2.8825378,7.6147003-5.1211395,16.969635-6.7657776,24.8675537
		c-0.5555725,2.6630554-0.5624542,6.6741333-2.2603302,7.2257233c-6.2036591-3.8622131-2.0759735-10.8547058-0.7460632-16.4640503
		c1.2129059-5.0896149,2.9035339-9.3408051,2.3095703-12.7256775c-3.5652313,8.028656-4.4246674,16.7965088-7.1199646,25.0587769
		c-6.3767853-7.8587952-16.0254517-11.6963959-20.2060089-21.7554016
		c-3.950592-9.5211716,5.1178589-22.2146225,3.8270721-30.0241699c-3.229126,8.2162704-5.3300934,16.7436371-6.3771362,25.5538635
		c-3.4906311-8.1916351,0.0036163-16.6375122,2.3486938-24.6165543c1.9061127-6.4937744,4.9657593-14.2993317,8.8384705-19.6649323
		c5.1674957-7.1587219,12.9661713-12.5239563,17.5288391-19.6116867
		C252.5944824,76.5482483,255.6892548,84.7818985,261.4789429,92.5345764z M375.2738342,328.1932068
		c1.8108826-1.6410217,2.9955444-4.985321,5.0113831-5.600647
		C378.8140869,324.3255615,377.6044312,327.6626282,375.2738342,328.1932068z M338.4867859,371.5975037
		c-6.4792786,6.7411499-12.078125,14.2747192-18.5186462,21.0795898
		c-6.8262329,7.2293396-14.7592773,13.3055115-22.2964783,20.0611572
		c-7.4379578,6.6773682-14.4336853,14.2888184-20.9698486,21.581543
		c-6.6846313,7.448822-12.5840759,14.756012-16.9945984,22.9472961c-0.5588379-1.4005127-0.3962402-2.6242981-1.4747925-4.1736755
		c15.0704041-28.1177063,48.8260498-51.1497498,73.4284973-76.6786194
		c9.5671692-12.2588501,22.6075745-23.5202637,33.4938049-35.5878906
		c3.4518738-3.8267212,5.4890747-8.7432251,10.0198669-11.2049255
		C364.1964111,343.8260498,351.7995605,357.7541504,338.4867859,371.5975037z M269.0762634,184.0260925
		c-1.4465332-4.9411316,0.5342102-10.2639923,1.474762-14.9856415c0.9550476-4.8527679,1.6906433-9.9597626,2.9390564-14.0095978
		C272.6802368,164.8703918,269.8400879,174.1615753,269.0762634,184.0260925z M261.2598267,278.8594055
		c1.9133606-8.7888794,2.2530823-17.3162537,10.5541077-23.8382721
		c14.681427-11.5337677,33.5220337-9.5425415,46.7641907-20.3617401c0.4845886,3.0665131-2.270813,5.2663574-3.2860107,7.8164215
		c-0.4454651,1.1176605-0.2723389,2.4015656-0.6859436,3.589859c-5.9809265,17.3379822-22.0523682,29.8050537-36.341217,44.967804
		c0.2086182-6.8121033,6.2884216-16.0855713,5.9841919-23.0461731c-5.0610046,9.1745911-4.0389404,20.0006714-11.5406494,28.5102844
		c0.1944885-7.7914124,6.3840332-16.4567871,6.0374451-25.3626404c-5.6271057,10.3701172-3.459137,22.8658142-13.1037903,32.1392822
		c0.7674255-9.4679565,7.8374023-19.7319336,8.240509-30.2646484c-6.274292,11.8379822-4.947998,27.2973633-15.8555908,36.9032898
		c3.3953857-12.9093018,8.7323608-25.2989197,10.7945862-38.5761719
		c-4.8632507,10.5468445-6.5292664,22.5862122-10.2111206,33.2250671
		c-1.2092896,3.5155945-2.0404663,8.1419983-5.6412048,10.0658569c5.0258789-12.8564148,8.9130859-27.5661011,10.151001-40.4826355
		C262.0696716,275.4111328,262.3101501,278.5587769,261.2598267,278.8594055z M317.1348572,430.8182983
		c4.3221741-4.2511902,10.6178589-7.9508057,12.771698-12.7818298c-6.9674988,3.9683533-13.7618713,15.8096008-21.65979,12.3928528
		c6.0693054-4.8313904,13.6698608-10.8014526,15.6118469-15.7741089
		c-6.553894,4.8737793-15.7498474,18.0800781-23.2337952,16.0218506c5.7792053-5.5883484,12.8778076-10.8228455,16.803772-16.913147
		c-3.4909973,2.4685669-6.7730103,6.4155273-10.4689941,9.6341858c-3.5829773,3.1193848-7.7990417,7.9439087-12.2305908,6.5433655
		c5.6412048-5.7226868,13.2772827-10.9006958,17.6805725-16.962738
		c-7.3847046,4.0107117-14.0374756,13.7651062-21.953125,16.6654053
		c4.5662842-5.8215637,12.6231995-10.6881104,16.9909973-16.5592957
		c-8.2017822,5.7082214-14.0624695,11.1408081-19.9901733,16.9058838c-0.1520996-2.9212952,3.0310364-4.6332703,4.9621582-6.4865112
		c4.4246521-4.2370605,8.9942017-8.1206665,13.8502197-12.4848328c3.6749878-3.303772,6.0374451-6.6636353,10.5609741-7.8660583
		c11.1944275-2.9781494,24.5459595,3.5297546,34.4952087,4.4561768c0.5657349,0.0568542,1.1810608-0.0706177,1.9169922-0.636322
		c2.5533142,1.8955994,5.7965698,2.2563171,8.8421021,2.6949158c13.8006287,1.9807434,29.5787048,1.2451477,45.1583252-4.8382568
		c0.3110962-0.0710144,0.5660706,0.0633545,0.7355652,0.4950867
		C378.2940063,427.8756409,345.228302,430.1323547,317.1348572,430.8182983z M315.4264832,333.675415
		c-0.2227173,0.098877-0.4382324,0.1839905-0.5410767-0.148468c8.5346069-12.0024414,14.0059814-24.8306274,21.1646729-37.2060852
		c-4.9447327,24.980896,9.3513184,55.1944885-6.5042725,77.193634c-1.0187683,1.2589111-0.9477844-1.4925232-1.9665833-0.2404785
		c-8.1065369,6.9816284-15.7389832,14.1048279-24.0186157,21.0372009c-1.3016663-1.9028625,0.1662292-3.0487671-0.4422302-4.7676392
		c6.7802734-5.793335,14.7806702-11.2545471,18.5154114-17.8895569
		c-7.2644958,5.1497192-12.1632385,12.1103516-18.8123779,15.7813416c0.1944885-1.4925232-0.516449-3.2396545-0.4458313-4.7676697
		c4.5061646-3.3243713,9.9847412-6.3804016,10.7558289-10.7167053c-3.2363892,2.8934021-7.07724,5.6165771-10.161499,8.5523682
		c-0.5588379-5.3123474-1.6410217-10.6529541-0.894928-15.9229431c0.6613159-4.6687927,0.9195557-10.6743469,2.8934021-14.8831482
		c3.6427307-7.7668152,12.0216064-12.817688,15.1268921-21.4334412
		C318.1887817,329.9758301,316.6752625,331.7866821,315.4264832,333.675415z M226.8569794,146.1072693
		c10.4689941,12.0006104,27.664978,20.5279846,37.2607574,34.8204346c5.4891052,8.1807709,3.57901,12.7890625,2.3128357,19.2158356
		c-2.1502075,10.9640808-5.6658325,20.1386566-6.7657471,31.2515869c-0.5237122-0.9163055-1.0470276-1.8286133-1.5740051-2.7518005
		c2.6315613-11.8626251,6.2779236-23.4528961,6.8686218-35.8779755c-4.032074,11.102417-4.1983032,23.2479095-8.7327271,34.208725
		c-0.7884521-2.086853-2.1183472-2.1752167-3.0487823-3.7351074c2.8083038-9.3904266,6.6103973-18.5190125,6.9146271-28.5990143
		c-3.9610901,8.6936035-4.519928,18.3140259-8.2441559,27.0818787c-6.0551758-6.129425,2.4968262-12.7151794,0.6754456-19.5588074
		c-2.7977905,4.5554047-2.9143982,9.8427734-4.8527527,14.6459198
		c-10.5218658-8.6403656-21.6912994-14.8864136-32.0436554-24.1178436c1.2766571-7.1974792,6.5289001-13.31604,5.7368164-21.0864563
		c-2.9745178,6.4582672-4.2337952,13.3692627-7.4133148,19.7569122c-0.785202-1.0151672-1.7188873-1.4820099-2.4544525-2.702179
		c3.1157684-9.8927612,7.8939362-19.3255615,8.4386444-29.9184113c-3.6782379,9.2560577-4.8915253,19.18396-9.9666595,28.0579376
		c-0.6508179-1.1459198-1.3052673-2.2918396-1.9665985-3.4377594c4.1345673-10.9749298,10.0590057-23.0037994,11.2400513-33.8052673
		c-4.8100281,10.2991333-7.140976,22.8198242-12.7608185,31.9342804c-2.5004425-4.4246674,0.2263641-8.354248,1.7648773-12.874176
		c3.4308624-10.0517578,8.3575134-21.0904388,10.6000824-29.3382111c0.406723-1.4820251-0.6225739-2.9959106,1.1810455-4.3221893
		C221.8698578,139.2705231,224.1229401,142.9632416,226.8569794,146.1072693z M269.550354,249.4682922
		c-0.5519714,2.2635956-1.1708984,4.8524017-2.4512024,6.8827515c1.5312805-9.5461731,3.883606-21.3910522,6.026947-31.7434082
		c0.3784485-0.2792358,0.4277039-1.0608063,1.0325317-0.5870972
		C271.9446716,232.3287964,271.5875854,241.1144104,269.550354,249.4682922z M217.2507019,199.5209656
		c2.9958954,2.316452,6.1612854,5.1001282,8.89534,6.7835083c11.7670135,7.2188416,35.9167328,21.8897552,31.8031769,38.8488922
		c-2.8684235,11.8448639-7.2927246,24.8921661-10.0090332,36.7548065c-0.9727936-1.1318054-0.2549744-1.8108826-1.2237854-2.9426575
		c1.9274902-9.0543518,5.6553345-17.6204529,5.3898621-27.276001c-3.0556488,7.6889343-3.635849,16.0395813-6.4723969,23.7853699
		c-0.7533264-1.4961548-1.8036194-1.9169922-2.6594391-3.0455322c2.4084473-9.2169495,6.4723969-19.5233002,6.0338135-28.5526428
		c-3.8020935,8.4527588-3.5971069,19.5338135-7.8979187,26.8870239c-0.7533264-1.4997559-1.8003693-1.9205933-2.6561737-3.0487671
		c3.4272461-9.6131897,7.1022186-19.1625977,6.6668854-29.833313c-3.3562622,9.4432983-4.2088165,19.572937-8.1380463,28.8536377
		c-2.4689331-3.0487976,0.063385-7.4274597,1.1705475-10.7167358c1.2451477-3.699585,3.5119934-7.3390656,2.0618591-10.7663116
		c-2.4262085,6.1189117-3.4555054,12.6126862-6.2388,18.6251373c-8.5273743-5.9700928-16.7505188-13.0791779-24.6234436-21.5040588
		c-1.0894165-6.4937744,1.8601227-13.4293976-0.0072479-19.166214c-1.3509064,5.6307068-1.5348969,11.5866547-1.8604889,17.4969482
		c-1.3472748-0.7250671-2.1752014-3.3743591-3.292511-4.9621277c-0.5624542-12.4464569,1.7221375-25.6636047,1.1104279-37.1441498
		c-2.5076904,10.9253235-2.0444794,22.664093-2.8789215,34.0493774c-4.1168213-7.0384827-2.9499054-13.3942566-2.9075317-20.2451324
		c0.0286102-5.0682526-0.1061096-10.2922516,0.4353333-14.401825c0.2473602-1.8746033,1.5135193-3.9933319,1.962616-6.136673
		c0.5378265-2.5641785-0.2368622-6.175415,1.9137268-7.0239868
		C207.8461456,191.9660339,211.9807129,195.4465179,217.2507019,199.5209656z M309.0920715,340.9471436
		c0.9833069-0.7145691,1.4606628-3.0628967,3.045166-2.6525574
		C310.3441162,338.7824402,310.6979675,341.3643799,309.0920715,340.9471436z M306.7825012,344.0947876
		c-0.0423889-0.6859436,2.4120789-3.1407776,2.0126038-2.0654602
		C308.4202576,342.6305237,307.7303162,344.6112366,306.7825012,344.0947876z M302.630188,399.8640747
		c-0.7142029-1.3581543,0.6189575-2.1506042,0.3397217-3.3885193c4.2192993-2.3624573,7.6219177-6.1822815,10.5113525-8.7500916
		c3.6394653-3.2396545,6.7943726-6.4582825,10.3664856-8.2195435
		C316.869751,386.3249207,309.792511,393.1015625,302.630188,399.8640747z M300.2148438,382.0737305
		c0.052887,7.0736084,1.4182739,15.9084778-1.4642639,21.3765869c-2.4935608,4.7111511-9.5142822,6.7059937-13.7053528,11.9545898
		c1.9698486-5.7650757,10.3874817-9.7616577,12.0817261-15.5904541c-4.1592102,3.4236145-7.0808411,7.172821-10.7590942,10.7235718
		c-1.7576294-4.9371338,8.5947571-9.0825806,9.6769104-14.2037048c-2.7554016,0.9336853-5.5068359,5.8215637-8.499115,6.6773987
		c0.7851868-2.0796204-0.2509766-3.6996155,1.2766724-5.7437134c1.5635071-2.1009827,5.9562988-2.6525574,5.3514709-5.8005676
		c-2.6916809,0.813446-4.2055664,3.4945984-5.648468,3.6854858c3.1654053-15.7813721,3.5652466-33.8617859,14.9678955-46.4389648
		C298.8280945,358.4828491,300.1261292,370.833313,300.2148438,382.0737305z M248.6967621,320.7251892
		c5.6165924-12.594574,6.8193665-27.9482117,12.5098419-39.5562134
		C258.1226807,293.9902649,254.8403168,310.1145935,248.6967621,320.7251892z M225.4456024,311.210907
		c-5.0505066-18.7450256-15.7777252-39.4073792-21.6912994-57.8803864
		c-1.5243835-4.7640381-2.8861542-9.9670105-2.4124298-14.5858154c6.9714661,9.015213,13.9389648,14.7734222,21.780014,21.3128204
		c9.2629547,7.7175598,19.9477844,12.025238,23.3007965,26.3778076
		c-5.6872101,18.7736206-10.2107544,37.8587036-16.5382843,56.4642944
		c1.3052673-12.7115784,6.5325165-24.3532715,8.5874939-36.8594971c-3.0592804,6.8863831-4.2124481,15.1660156-6.0374298,22.1672058
		c-0.6048431,2.3132019-0.9796906,5.3902283-2.9955444,6.7269897c0.8558197-2.6666565-0.4918365-5.9345703-1.0365448-8.9905701
		c2.0727234-4.4616394,2.4653168-9.3955078,3.8270874-14.053772c1.39328-4.7499084,3.6181183-9.273468,4.1733246-14.2533569
		c-4.3678131,8.3010254-5.1921082,17.5570984-8.2937622,26.1974487
		c-6.4691467-13.0827942,3.2820129-23.3076477,3.6217346-33.5647583
		C229.1238251,297.1096802,226.7153778,304.0029297,225.4456024,311.210907z M186.6075745,248.0818939
		c-7.5549469-16.7258911-17.4542236-33.8867493-27.8811951-51.142868
		c-2.3588409-3.8977051-6.0548248-7.7881775-6.1964264-12.4286957
		C169.9950409,199.4112244,181.9742889,227.6741486,186.6075745,248.0818939z M118.8557892,153.5702209
		c7.3423462,4.5731506,17.2173615,9.6059113,22.0201416,16.1525574c3.7915955,5.1602478,7.6998138,9.8750305,8.9482269,14.0555878
		c-0.4632263,1.0329285-0.7073364,2.1292267-1.4215393,3.091156c-0.912674,31.0110931-24.6270599,58.329834-37.8974609,86.9393768
		c-0.2828522,1.0256653-0.8453064,0.5341797-1.7152481,0.9832764c1.3440247,1.3759155-0.704071,3.4518738-1.1317978,5.2131348
		c-0.5023346,2.0480957-0.0427322,4.4319153-1.0789108,6.0942993c-5.5282135-12.4040833-9.0188446-25.5361328-13.284523-37.5932465
		c-3.0379105-8.6016235-8.106163-19.1520844-8.0214157-25.9819489c3.4801254,11.7847595,8.0109177,25.4017487,13.7759933,36.847168
		c0.2017288-4.7466583-2.7800446-9.6591797-4.7216568-14.6463013c-1.9206085-4.9375153-3.2008896-10.0021515-4.7252731-14.6390533
		c-1.4182739-4.3113098-5.5282211-9.5244446-2.1643524-13.3656464c4.0107117,12.2233429,10.9745789,26.7986603,17.6099548,38.767395
		c-3.5406036-13.8256073-14.3916779-28.2487946-16.7295074-42.0070343c1.4323959-1.1672821,1.4997559-4.2265625,3.4909897-4.2798004
		c3.2537613,8.8352203,6.6741257,20.7648468,13.1287842,28.5493927
		c-3.14077-10.8438263-10.2180023-21.1219482-12.2447205-31.7890472c0.4034576-1.5385132,1.0397949-3.0063934,2.0585938-4.3750458
		c5.7542114,11.1763,11.4026642,25.8718567,19.5164337,34.9261932
		c-4.2939224-11.0100708-14.7629089-25.5111389-18.582756-37.2890167c0.7497025-1.9662323,1.1035461-5.4326019,2.8470459-6.1859131
		c2.571434,4.1631775,5.5068512,14.4517975,10.3737335,17.3379517c-1.754364-5.2913513-7.7881775-14.0273285-9.9811325-19.8452911
		c3.151268-11.7246399,2.5395584-24.4716949,0.3784714-37.6392212c7.5371857,5.3724823,13.3587646,17.0369873,21.0868225,21.7054138
		c-2.3660812-4.1414642-6.4159012-7.9859314-10.2712402-12.3787231
		c-4.4315567-5.0331268-12.4670944-10.8829498-11.3566742-15.8592224
		c13.0686646,8.1311646,25.0551605,20.2766418,37.2502594,31.6264343
		c-11.2719193-16.5277863-26.4839249-24.2558441-38.0390701-36.1996002
		C104.1316299,144.3992615,111.4033508,148.9228058,118.8557892,153.5702209z M175.2436523,229.0218048
		c9.7511597,21.2385712,21.815155,40.8365021,21.9922638,59.9885712
		c-5.1993713-18.2857666-13.8824768-37.420105-23.955246-57.0422974
		c-6.8012543-13.2562714-13.9845886-28.7265015-22.6640778-37.2325134c0.7888031-1.5030212-0.1521149-4.7781525,1.6656342-5.0682526
		C159.9009094,203.061203,169.1533508,215.7303925,175.2436523,229.0218048z M197.1899109,291.3163452
		c-4.0251923,28.421936-45.7033844,46.5820312-50.8245087,74.7069702
		c-8.5099945-10.0235291-16.7541504-24.9631653-21.9357605-36.7479248
		c-3.2751312-7.4607849-8.2832718-14.3790283-9.1955872-21.6612549
		c3.6641083,9.7580566,10.3168716,21.8876038,16.9660187,30.4541016
		c-7.9435501-16.6781006-23.5517731-38.9919739-21.7869034-53.252533c0.0847473-0.7359314-0.2792358-2.9781494,1.0789108-2.8966675
		c5.3438721,15.4452515,14.1012268,35.6125183,23.7002716,49.4221802
		c-2.3910675-7.73349-6.9570007-13.8911743-10.8155899-22.1106873
		c-5.4220963-11.5551453-13.4507599-26.4911804-10.3346176-35.619751
		c4.4493027,12.3471985,7.8693008,25.9464722,15.9863281,38.3219299
		c-4.078064-13.7832336-13.0262833-28.9068604-14.4163055-41.9577942c0.9514313-2.5500488,3.515976-4.6546631,3.4873657-7.4661865
		c10.0553894-12.5594635,14.9928894-26.5016937,22.979187-39.6127319
		c6.8081207,13.3728943,13.6734924,29.8401947,22.0310059,41.7064514
		c-5.9490662-14.3985748-14.9505157-29.6247101-21.0973358-44.072525c0.7142181-2.3204498,1.3157806-4.6760254,2.9955444-6.7237549
		c6.3452759,13.2740173,15.0280151,26.4839325,21.9285126,39.9310608
		c7.8979187,15.3782501,12.6901855,30.8694916,18.4447632,44.2105255
		c-1.8286133-18.4338989-16.499527-42.6401367-27.7395782-64.4520264
		c-3.0382843-5.8994446-5.6517181-11.5087891-8.2126465-16.7469025c-0.8416901-1.736618-2.7905426-3.3033752-3.2892609-4.9621277
		c-0.6399689-2.104599,1.2169037-6.9287415,2.7941742-7.0808563c15.6469727,28.1850586,30.4946289,55.9068909,40.7658691,81.6516418
		c-6.7342529-26.5154419-25.737854-56.3665161-40.9676056-85.1882629c1.1604004-1.3335266-0.360733-3.388504,1.5211334-4.5239105
		C171.3919373,226.6520996,186.7205658,261.2175598,197.1899109,291.3163452z M204.8647308,320.6969299
		c-0.7674408-6.790741-6.5361481-14.9468994-4.1805725-20.8814697
		C204.4507599,306.2701111,206.5448608,314.7583923,204.8647308,320.6969299z M204.9179688,324.776825
		c-3.607605,6.5216675-5.4293365,14.1399841-9.1322021,20.7398682c-2.9216461,5.1993408-6.7588806,10.0517578-8.7396088,15.0388794
		c-4.8491364,12.1878662-9.5707855,26.271698-6.8157349,39.9451904
		c-10.3309937-9.6627808-20.7011108-19.2194519-30.4805145-30.9404602c0.0249939-2.122345,0.6472015-4.0885925,1.0825348-6.0975647
		c3.2360229,5.5387268,6.2779083,11.7919922,10.667099,13.0722961c-1.7862396-3.3461304-4.9940186-6.9110107-7.3249664-10.4197388
		c-1.6304932-2.4475708-4.4916687-5.9983215-1.8709869-8.0569153c4.6651611,8.8279724,9.7439117,16.1210632,15.385498,21.3200684
		c-3.7419891-6.7411499-10.8510895-15.3710022-14.1088409-23.8737488c1.1318054-1.6268921,1.8854828-4.8947754,3.7810974-5.3547363
		c1.6199951,3.4660034,2.730423,9.8040466,6.3449097,11.8908691c-0.4842224-4.5836487-5.2095032-10.3273621-5.2627411-14.7911377
		c12.7220764-12.5982056,25.7943573-25.1062317,36.5429382-38.2455139
		c2.7336884,4.8773804,1.7116394,11.5935364,5.2591248,14.7911377c0.7355652-4.5412903-2.2990875-10.1118774-2.6065674-14.9396362
		c-0.7993164-0.2513428-1.6728821-0.2618408-2.3628235-0.9304199c1.7047577-0.6932068,1.6446381-4.6510315,3.5406189-3.3953857
		C200.5215454,311.193512,202.406662,317.8991394,204.9179688,324.776825z M95.3674011,139.6243591
		c0.1133575,2.9321594-0.6472092,5.630722,0.4950867,8.8457336c0.3538437,1.3827667-1.2379074,0.4103394-1.3262787,1.6656342
		c0.5729599,0.750061,1.2770233,0.9832916,1.7188797,2.2107086c2.7094193,14.8722839,3.1088943,29.1082306-2.0937271,41.8230591
		c-0.3820953,1.0151672-0.5729599,1.3548889-1.867363,1.5211182c1.1741638,3.190033-1.287529,6.0548248-2.9462814,7.6183167
		c-0.6435852,5.5314789-5.1461258,10.0162811-7.3140945,15.1377716
		c-6.2036667-14.7346649-12.5384445-31.071228-18.3458939-45.6396484
		c-2.8151741-7.0631104-8.1311531-13.3127747-8.6048775-20.6341095c8.283268,12.1172485,14.543438,26.4665527,20.7471046,37.8656006
		c-1.283905-8.9058533-10.147377-23.3431702-16.421669-33.4974213c-3.0100212-4.8596497-5.9099426-9.2169495-4.0816917-12.7256927
		c9.033329,13.3587646,17.8399391,27.5838623,27.2339897,39.6445923
		c-2.7764206-6.9109955-7.6574326-14.1472168-12.7361908-21.4685516
		c-6.5926399-9.5034332-16.6411438-19.3219452-14.4550629-26.8696442
		c7.5121994,7.2365875,13.8607407,18.741745,21.6311646,25.0515289
		c-4.6684113-7.4908295-10.292244-15.0703888-16.1315613-21.8082733c-1.8887367-2.1893311-4.8100243-4.151947-5.8498268-6.2460327
		c-0.5305824-1.0716705-0.2513466-2.8365479-0.5907059-4.2193222c-1.1390343-4.6720352-3.4026184-7.9757843-3.2928772-11.3497925
		C66.0469284,123.6199188,80.7355957,131.5250854,95.3674011,139.6243591z M324.3113403,555.8601074
		c-1.5175171-3.3102417-2.3910828-6.4510498,0.04599-8.6936035
		C327.1337585,550.8309937,326.1149597,553.4552612,324.3113403,555.8601074z M52.369812,132.2711639
		c0.4845848,5.0682526,0.031868,12.2834625-0.7319527,15.4807281
		c-6.2141724-15.7458496-17.4828377-31.6228027-26.6005516-44.1148834
		c6.0196838,1.7083664,9.9278984,11.169426,15.0917664,16.0076981c-1.5917511-4.5836639-5.1319962-8.9873352-7.9652786-12.3225861
		c5.5883331,2.9285355,11.5265274,4.5731659,16.9558716,8.0960236
		C48.3732262,120.6207657,51.867836,126.9837875,52.369812,132.2711639z M59.2666779,173.0511627
		c-15.6397324-11.1621857-33.9077606-12.6550598-48.115097-29.0658722
		c1.1846695-7.8059235,2.8082924-15.4984894,2.9317942-23.5908813c7.1163445,7.3992004,10.8760662,21.6952667,18.0485497,27.5628357
		c-4.1204472-12.2693481-17.4897156-27.5628357-19.1803417-38.3219223
		c10.9503117,13.0085449,18.2079048,30.2472763,27.7327023,45.2930374
		c-5.7332039-16.5172729-18.2111645-36.0192261-28.8644943-49.6644745c0.4067211-1.3404007-1.2342873-3.2396393-0.7851915-4.5695419
		c12.1422243,12.5590897,23.778492,33.942894,34.0671158,50.7890244
		c-7.4451981-19.5233154-22.7278309-38.9655075-33.3311806-53.4911957
		C30.8766289,114.7354431,47.4395447,146.6414795,59.2666779,173.0511627z M62.1173439,179.6365509
		c1.4218941,5.8820648,5.2804909,11.9723663,7.7704277,18.3741455
		c6.7697525,17.4082336,13.0230331,37.7772217,20.2628784,54.5733795
		c-13.0545349-9.0612183-25.7306061-17.9775696-42.014286-24.7896881c-6.6987572-2.8010406-13.8784828-5.796936-21.8260155-9.429184
		c-5.0541306-2.3023376-17.9529362-7.9931641-20.835474-14.0907135c-0.993804-2.0973511-0.4490948-6.9464874-0.3998394-10.2676239
		c0.1557345-10.4972229,2.2530808-20.2556305,3.1338868-29.6315765c-0.3715901-1.4396362-0.2723546-5.5810852,0.9833002-4.6723938
		c3.518877,8.1488953,2.5286951,17.755188,8.1134081,24.5669403c-1.4820127-11.5265198-7.1409721-24.2025909-5.8570681-34.9794312
		c3.7419758,2.7731628,6.5748968,5.7190857,10.7627077,8.442627c5.0045109,3.2573853,10.9216995,3.3812561,13.8574791,9.8713989
		c4.1204453,9.1039581,6.7020187,20.0147858,13.1852837,29.4334717
		c-2.4899406-10.3592529-9.6450386-21.9813843-12.6441956-32.4786224c4.2156982,0.7178192,4.8806458,3.8763428,6.8331223,7.9540558
		c6.8295059,14.2678223,13.9244804,29.2038422,16.4285507,39.8959351c1.736618-2.4689484-0.3393593-5.6980743-1.1846695-8.4495087
		c-3.45224-11.2719269-9.6591644-24.2417145-15.151886-36.0652313c2.5395584,1.3085327,4.2443085,2.3378296,5.9523163,4.8169098
		c8.8562279,12.909668,12.881424,34.1131134,19.6261787,46.2799683
		c-3.3457565-14.8621521-11.1730499-32.4293671-17.9073029-47.2665253c3.275135,2.1962128,5.5955811,7.5900574,7.9652786,12.3327179
		c8.1735306,16.379303,15.4488678,35.2485352,19.0351105,48.4443207c1.3972626-3.4341278-0.6613312-7.3814545-1.6764984-10.9111938
		c-4.1946945-14.5188141-12.092247-30.0455475-20.1176491-45.5367889
		C58.2304993,176.3614197,61.7707443,178.2114105,62.1173439,179.6365509z M159.0059662,411.2739868
		c-7.7349243,0.0774841-14.5401611,0.247345-21.9143829-1.6127625c-7.0098572-1.7684937-14.3844376-2.3204651-21.0759583-5.7368469
		c-22.2573624-5.2772217-41.5438232-21.1788025-59.6702385-38.8984985c3.4200058,1.2875366,6.118557,3.1338806,10.0267754,4.7676392
		c3.1266403,1.3088989,8.1738892,1.7261353,10.5186005,4.0252075c-0.2578659-0.2477417,1.0187912,2.6949158,1.2274017,2.9426575
		c6.3662872,7.4980774,17.7338257,12.2515869,25.0620422,16.7008972
		c-6.5075378-7.3850708-18.0662994-11.1056824-24.3297272-19.4030762c4.3960648,1.6337585,8.9445953,2.702179,13.8111191,2.6029358
		c6.3170319,5.9349365,13.5782471,11.4805298,20.0539093,15.908844c2.2070847,1.520752,4.3221741,4.5271606,7.3213348,4.032074
		c-6.8012543-6.3029175-17.6027145-12.817688-24.1812363-19.940918c3.0237885,0.9619446,6.6563873-0.2828369,9.7794113,0.332489
		c8.2550125,7.2999573,15.0845184,16.3543091,24.5738297,20.6340942
		c-6.1116791-6.7059937-14.8335419-13.0368042-21.7267914-20.4428711c2.3555832-1.1672974,4.1910706-0.4599609,6.3416595-0.8771973
		c8.1170273,11.7565308,17.3271027,19.5302124,27.131134,25.0975342
		c-8.2195282-8.5523682-17.3694763-13.7017517-24.8251724-25.0551453c1.7261124-0.2969971,3.6181107-1.1955261,4.9621353-0.0992432
		c7.5263214,8.1347656,15.7744598,17.3379822,23.7429962,24.7581787c2.5536957,2.3696899,5.3087463,5.5455933,8.3079071,5.7437134
		c-10.1647644-9.9242859-20.3650208-19.7427979-30.1375427-31.1382141c2.0654755-0.4599609,3.7702255,0.3817139,5.8501892-0.1488647
		c6.7411346,9.8467712,15.4807434,17.6418152,22.7133484,25.3380127c2.2179413,2.3628235,4.5449066,6.267395,8.1561432,6.2956543
		c-9.393692-10.6315918-19.2900848-19.4172058-28.3621674-31.2443237c1.4928741-0.5095825,2.6351776,0.2687378,4.0816956-0.0496216
		c4.611908,6.1399231,9.9633942,11.4805298,15.2862549,16.3543091c5.3865967,4.9375,10.1013794,10.688446,16.5136566,12.9165344
		c-9.6664124-8.9199524-19.5693207-16.9909973-28.7087555-27.8420715c3.9259491-0.3042297,5.5742035,2.8224182,8.5027313,6.0834351
		c9.4788055,10.5399475,22.2468719,22.4094543,30.5265198,28.634491
		C172.0250244,411.3942261,165.1955109,411.2029724,159.0059662,411.2739868z M102.3066406,292.1935425
		c4.2971878,11.6253967,10.0553818,22.6818237,11.608017,33.0642395c-4.2160568-0.3962097-5.8146896-3.7546387-8.9942093-5.3601685
		c-1.3545303-0.6754456-3.2186356-0.526947-4.863266-1.319397c-1.5808868-0.7601929-2.8292999-2.2103271-4.421051-2.9495239
		c-15.8132172-7.2858582-35.7997551-9.9173889-51.8041954-15.5549927
		c-9.0329666-3.1835022-24.4503269-9.0333252-28.8923836-18.6109924
		c-4.9693813-10.7203369-6.0624208-26.6114197-7.0420995-37.0449219c-0.4136019-4.4105377-1.9876075-8.6443481-2.1183519-12.477951
		c-0.2723546-7.845047,0.6225758-15.7744751,0.1379876-22.8976898c0.9974256,1.3049011,2.256341,1.6623688,3.1972666,3.1900177
		c0.5870838,14.58255,4.8277721,31.7046661,10.7768316,46.7786713
		c-1.7757359-14.9077759-10.0977564-31.5912933-8.2267685-45.4980316c4.6792812,1.3755341,4.6510315,5.0327759,5.4644718,8.7392578
		c2.2599621,10.3559723,6.8718796,24.0895996,10.0340137,33.5119019c-0.5023327-11.9441223-8.0109119-25.801239-8.3187599-37.688858
		c11.6822643,5.7828217,23.838253,9.8217773,35.4817657,15.7639618c0.6931992,4.0530853,1.2306671,8.0746613,3.5438652,12.5732117
		c0.9478111-3.3207703-1.3972626-7.540451-1.8709869-11.2505493c10.0235138,1.3827667,7.2789612,16.435791,13.2736588,24.814682
		c1.1354141-3.2258911-1.4852753-6.6317749-2.5109482-9.9811554c-1.0575485-3.4768524-1.291153-7.2362213-2.7058029-10.316864
		c7.9544144,1.2306671,7.4839554,9.6131592,10.4266129,18.2216644c2.6775513,7.8377991,4.8842697,14.4905701,8.6052399,20.6409912
		c-2.7659149-11.1161804-8.421257-23.0070648-10.7732086-34.0066376c4.3254318,0.2546082,5.3087387,4.375061,6.9319992,9.7334137
		c3.7350922,12.3081055,8.5487366,25.7624817,12.9875336,35.4676514c0.5834656,1.2802734,1.1919174,5.6375732,4.1273346,4.0317078
		c-1.5950165,0.1097412-1.8709946-2.1324768-2.3132019-3.2432556c-5.2555008-13.397522-10.4617462-28.5740356-15.0986481-41.5615845
		c5.0896225,1.3548889,4.863266,8.0677795,6.9816132,13.8009644c4.5449142,12.2940063,8.7468491,25.5821228,14.8089066,36.2597351
		c-1.333519-1.8213806,0.4668427-2.7832947,0.2937241-4.2794495c-2.2284546-12.117218-7.8942947-25.1826477-10.4338531-37.381012
		C96.509697,268.443634,98.0873184,280.7658691,102.3066406,292.1935425z M93.4044189,272.6383362
		c2.2494583,6.9356384,4.1805649,14.1189575,5.414856,20.6337585
		c-3.8658371-13.3410339-11.6007767-27.7395935-13.6275024-40.5782776
		C89.5103302,258.1724243,91.1763306,265.7766113,93.4044189,272.6383362z M119.3258896,339.5042419
		c5.9103088,11.3320312,13.6347427,24.6871948,21.2918167,34.8237c-6.635025-0.6863098-13.6061325-0.8275757-21.1288376-0.2336121
		c-15.5622253,1.2169189-31.6336746,2.8506775-44.7128372-3.1690063c-0.6120758-1.237915,2.5710678-1.4356689,1.6196365-2.758667
		c-0.7888107-0.3183594-1.7507477,0.0282288-2.2139664-1.4783936c-0.7710648,1.1531372,1.0151749,2.9922791-1.0329132,3.7843323
		c-3.2255173-1.1600342-6.7693863-2.6807861-10.369751-4.5622864c-3.2327614-1.6906433-7.6009331-2.8861694-10.4161072-5.4539795
		c-3.6927223-3.3529968-7.2257233-8.8348389-10.716713-13.9490967
		c-6.3134079-9.2383118-12.2056046-21.7658997-16.6726513-31.5329895c-4.1276913-9.032959-6.412281-18.5048828-7.2789612-25.5042419
		c2.4863205,5.5600586,4.5804062,12.3826904,7.8236694,19.2582092c5.0787582,10.797821,13.3656483,21.1132507,19.4172039,29.9694824
		c-7.4415779-15.5922852-21.4544296-32.2366943-23.7535057-47.1162415
		c12.4250832,8.4002686,27.7997055,12.8531799,42.7534828,15.7107239c3.0629044,0.5802002,9.1249619,2.1679688,11.0596924,4.1736755
		c1.3722687,1.4251709,1.8039856,3.7419739,2.8046646,5.6940918c5.4680939,10.6725464,12.881424,21.085022,19.4668198,27.6566467
		c-6.1964188-10.3208313-16.3615417-21.8350525-19.4171982-33.1598511c1.821373,1.0539246,5.6343307,0.608429,7.6114349,2.9462585
		c1.0680466,1.2625427,1.3545303,3.7278748,2.263588,5.5492249c5.2377472,10.5026855,14.2569504,22.5634155,20.8495941,30.0614929
		c-6.4582748-11.155304-17.0793762-22.756073-20.4113693-34.871521c1.5530014,1.0680542,4.9657593,0.7283325,6.7342529,2.9850464
		c0.7181931,0.9267883,0.7783127,2.702179,1.2802811,3.8375854c4.7643967,10.7536621,14.9574051,25.2406006,21.1893158,33.0570068
		c-7.0558548-13.482605-15.3250046-24.0718384-20.1103973-35.9536743c5.6198425,0.9760742,6.3662796,4.1168213,9.6377945,10.4599304
		c1.729744,3.3743896,4.2830658,7.059845,5.8961868,10.3204956c3.8904648,7.8309326,7.0982361,15.576355,13.2276535,20.7261047
		c-6.7588806-11.3038025-14.8121643-24.6871948-19.2759552-36.8909912
		c5.7723236,4.3942566,7.7704315,14.071167,12.3932114,21.6612244c4.4847946,7.3637085,9.3621826,14.6567993,14.2536926,20.1459045
		c-6.175415-10.9358215-15.5730896-24.517334-20.8923264-37.3418884
		C117.3241577,329.3887329,117.2002945,335.4225464,119.3258896,339.5042419z"/>
</g>
</svg>
