<?xml version="1.0" encoding="utf-8"?>
<!-- Generator: Adobe Illustrator 27.2.0, SVG Export Plug-In . SVG Version: 6.00 Build 0)  -->
<svg version="1.1" id="lavender" xmlns="http://www.w3.org/2000/svg" xmlns:xlink="http://www.w3.org/1999/xlink" x="0px" y="0px"
	 viewBox="0 0 74.8728943 700" enable-background="new 0 0 74.8728943 700" xml:space="preserve">
<g id="outline">
	<path d="M59.6694412,160.3840179c0.9024315-4.3441925,2.9518089-7.6462555,3.1793404-12.6120758
		c-5.3508644-2.197937-10.8778267,2.1462708-14.1356888,5.7898407c-3.4686317,3.9495239-4.4315491,10.317276-7.6199684,13.6451569
		c0.3330307-8.2595062-3.0302048-23.6563721,3.6525383-27.3783569c1.6905212,0.1837921,2.5133934,1.3132935,4.493206,1.1995239
		c1.7163506-1.6726074-3.0661469-2.0145874-1.4540367-3.5296936c4.8172951-1.4187927,9.5550194-2.8907471,11.4294357-7.0594177
		c-0.4910965-0.8492737-1.7779846,1.1911469-3.5471535,0.5604553c6.9104004-6.6473999,13.8385925-15.5812378,13.4529877-27.6855698
		c-14.3902016,1.060051-17.9372368,12.3318634-23.0168343,22.1592865c-1.0515518-1.7779922,0.5952301-4.1950684,0.2275314-6.7091522
		c-1.7779961-0.3323441-1.121006,2.785347-2.6187782,1.4098358c0.4898415-10.4658203-2.0235519-16.6671066-7.8128281-21.2209244
		c-0.1837921-8.5834732,10.764637-6.6658783,12.5863686-13.3480606c-2.3912468-0.3503647-3.6177521,2.6625214-4.8610191,1.9355011
		c5.0537758-5.8682632,12.3834076-17.0964508,7.6804657-26.608181c-3.6345139-0.2360268-4.1950722,2.4085808-7.0761681,2.8907356
		c0.9024315-3.8363304,0.4898453-7.2960052,0.604187-10.2915535c0.3060608-9.4675331,6.70858-14.5739899,7.7691002-23.9367104
		c-1.4103088-2.2157211-5.1939468-1.3138657-6.7354584-1.1384544c0.2713852-1.8132381-0.6658287-5.9561939-2.014595-7.5414448
		c-2.5660858-0.7264442-2.4181099,2.6278477-3.9942932,1.4629898c0.0089569-2.014595-1.339695-2.5841103-2.7668686-3.0571938
		c-3.9596214,9.581871,2.2063103,21.6424656,0.0089569,30.4098415c-5.5705891,0.963501-1.0167694,11.4820099-3.5559921,15.3099632
		c-0.9373207-5.7634506-2.4260349-10.9305229-3.626709-16.4310837c4.4842491-5.5005608,0.6827145-15.6249695,1.0515518-24.6289425
		C27.6492119,17.6658516,30.898119,4.3788667,25.7747841,0c-4.4406281,0.4466802-5.0101414,4.545898-6.9462147,7.3569641
		C16.6918278,1.1736978,13.889143,3.845284,9.4047766,5.4035563c-1.7511334,0.6042981-3.661377,0.4993725-4.4484344,1.0336437
		c-7.8128281,5.1849799,7.847507,19.9343815,9.6423683,22.9562168c0.8666124,5.8419724,5.4921799,11.6485825,7.2522678,18.1211433
		c-2.3912487-0.1839066-5.0627193-2.1637192-7.2085295-1.1300774c2.6535616,0.5869637,4.2567205,4.0729294,6.8756151,5.6053734
		c2.3553162,1.3750534,4.3261738,0.5516052,5.9024696,2.9518089c4.1087456,6.2355003,2.5582886,16.7287521,4.2925377,23.5684357
		c-1.304903-0.0347824-1.3844681-3.7219925-2.7331181-2.1541901c0.5695248-0.0089569,0.6041832,1.2259293,0.034668,1.340271
		c-4.5100803-7.348587-8.1356392-15.6339226-15.799345-19.6457787c-7.4450145,4.0471001-0.7443428,16.8514748,1.4977732,20.0746651
		c-2.9170246-1.3487625-5.6065197-2.9603043-10.3530846-2.3649597C-6.2903323,88.5386505,17.024744,93.5661316,25.5819244,97.472023
		c-1.5672264,1.2965393-4.4406281,1.3228226-4.8083267,3.7230301c5.0706406,1.6816788,7.6895332-2.5577087,11.0527802-3.9069366
		c1.1569366,3.678833-0.1839066,6.1402206-0.5953445,10.3005142c-0.4293461,4.7645874,2.0493889,10.0369263,0.8934746,14.2757416
		c-2.5403709-4.9304733-4.6592026-16.6933975-11.6490421-15.2920532c-2.3991699,0.481575-3.8532047,4.8694-3.783638,7.2695999
		c0.1837921,8.9159241,8.7063046,17.7882233,11.4394226,24.2433319c-2.5493259,0.0437469-4.4933205,0.6827087-5.7376194,1.9619141
		c4.4585361,2.2242126,8.3116264,3.2494812,13.4707756,2.2769012c0.8588181,5.6407318,0.6042976,12.2354431,0.0695686,16.9916382
		c-3.0213776-5.5353394-3.9585896-13.3211823-12.8924141-12.5857849c-2.4607105,1.4450684-0.6737595,6.9102783-2.4260406,9.0213013
		c-12.0694351-4.038147-9.6771441,6.9540253-4.9742117,12.2264862c-3.4686308-2.2242279-11.5795898-3.8621674-12.9630241,0.8318176
		c-1.3486505,4.6681671,5.0807428,10.3262329,8.4439898,13.1642761c5.0448112,4.2303162,10.8778267,5.4389038,14.1009045,8.0666504
		c-1.1738129,0.4288788-3.7140694,1.0505066-2.5930634,2.3206329c5.3430576,0.5341644,9.9764404-1.8917542,12.4462013-2.6098175
		c0.236599,8.1889038,0.2623138,16.1765747-1.5683746,22.3952026c-1.2611732-5.7539215-3.4764366-10.4490662-8.4080467-12.2618408
		c-3.179348,3.2405243-2.0583344,9.686676-0.9014053,14.7758026c-5.2645359-2.7068329-6.1927948-10.0375061-8.102005-16.2998657
		c-3.792592,2.5050201-7.2960072-3.0476685-10.3530855-2.3649597c-3.2051687,0.7007294-2.4081147,3.4248962-1.5673413,7.6463776
		c-10.5447979,1.9533997,1.787065,8.2241364,5.2724566,11.9113464c6.5695629,6.9277344,10.1951218,21.3531799,16.0190697,26.3454132
		c-3.8441353,0.2281036-6.2701683-1.0511017-9.4495068-1.5061493c-0.6312666,5.246048,9.5290623,5.1322784,14.0134277,4.9483795
		c-0.227644,14.5392151-2.8823547,26.7915039-3.6961613,40.8049316c-5.8598785-2.7146301-5.0449257-9.4494934-5.8598785-16.368866
		c-0.6042976-5.3250122-2.2074566-12.971405-4.4843664-15.073349c-0.1917133-0.1755219-3.5201654-1.2696686-4.0459414-1.2175446
		c-3.590786,0.3414001-4.0729389,4.1602783-8.8195038,4.2920837c-0.4473691,1.0330505-0.1849401,2.6972961-0.7880905,3.5991516
		c6.1659412,4.7035217,10.9910192,15.659729,9.7040253,25.197876c-1.1827765-5.5089417-4.4237623-8.8284607-8.3901587-11.3766174
		c-8.6367264,12.0683899,4.2555728,23.3934631,8.1535492,33.2903442c-2.0325041,0.8145142-5.6053715,0.2276611-5.7275167,2.8553772
		c4.4484344,2.3560181,11.0964031,2.3560181,14.0482216,6.288208c-3.5123787-0.630127-3.8106251,0.7970276-7.5851927,0.6658325
		c2.3216906,2.9428406,5.4920664,4.9310303,10.0201693,5.5090332c1.6815662,17.3508606-0.5953426,32.3963318-0.8240223,47.4276733
		c-0.2275295,16.6144104,1.6726112,33.1413574,1.9708576,50.0179749c0.3418694,20.3206787,0.2712688,41.419342,1.8744278,62.5449829
		c1.6547012,21.9663086,1.34865,43.1434631,3.2489166,62.9372253C33.7714043,598.9012451,41.2153854,650.2958984,47.2938538,700
		c-3.6693115-47.6210938-12.1390152-97.6481323-16.3957348-143.0337524
		c-2.9955482-32.0223999-3.1614304-62.2735901-5.4305344-91.9552917
		c-0.3318825-4.4842529-1.0067806-10.1076355-0.8923168-15.1703491c0.384449-25.1099548-1.5594311-51.822937-1.8308144-75.0583496
		c-0.1837921-16.5718384,1.8654728-31.9255371,3.5123692-47.0600586c0.2623138-2.4433899-0.9282589-7.3217468,2.8812084-7.6894226
		c0.5695133,11.6658936-3.5213242,25.5307922-3.7398987,39.0184326
		c-0.2982368,20.0740967,2.6277332,40.7870483,2.3115788,61.6323547c-0.4371529,27.4238281,0.902544,49.2938232,2.6984577,75.033783
		c1.0157261,14.5403442,1.1211109,28.7892456,2.1983871,42.8543091c1.943985,25.3474731,6.3935661,50.0471191,9.8005524,73.9395142
		c4.063858,28.3609009,6.5246735,55.2130737,10.1244049,83.3005371c-0.3766518,1.9708252-3.2847214,1.5604248-3.4686203,3.6882324
		c8.1367798-0.6210327,3.3374062-10.9752808,2.5055771-20.6434937c-0.8239059-9.4932251-0.9024277-15.9237671-1.6467819-24.9978027
		c-3.1884079-38.692749-12.9798965-78.3430786-16.11549-119.3408813
		c-1.7163582-22.5874634-3.2141323-43.2219849-3.7399082-65.1637573
		c-0.7792511-31.7914124-0.0695686-63.9170532-2.3913631-94.7220154
		c-1.2701283-16.7377014,0.2982464-34.1743164,6.0964775-49.3705139c4.4046974,0.2802429,8.8542786-0.6833801,12.4720421-2.1636963
		c-0.4036407-2.1983948-3.7668877-1.2432861-4.1435394-3.4507446c2.8822403-1.786377,6.2017479-3.1439819,9.7129707-4.3177795
		c0.4125824-1.6726074-1.5234909-0.8318481-1.8295403-1.7337036c2.3642693-1.3318787,4.711895-3.4512939,6.5425949-5.5617371
		c4.5627632-5.3520203,9.6075745-11.7454834,9.2309341-19.9518433c-5.3071289-2.040863-9.4148521,2.9603271-11.9731331,3.4944763
		c1.322937-4.6592102,0.500061-8.6619873,2.7062569-13.9433899c2.6189041-6.2618103,12.1480713-12.2001038,0.482151-13.8817749
		c-0.2892914-2.0056458-1.3834343-3.1446533-3.6873207-3.0134583c-2.171524,0.8407898,0.8498611,4.6333923-1.1826515,4.9574585
		c-0.6569901-4.650238-4.852066-8.3644409-7.5235367-12.2966156c-3.0034676-0.3766632-2.5045547,2.5661926-4.834156,2.8290863
		c0.0437355-2.7332306-3.4069748-1.7960205-4.5190353-2.1020813c1.2343102-2.5750275-0.3766556-7.8737793,2.3900986-9.0122375
		c3.7052307-0.5521698,8.6279068,0.0083771,10.6861153-2.1110229c-1.182766-1.4888153-4.0728149,1.3396912-5.3777237-0.2982483
		c4.1075974-1.9092102,10.5010567-1.6636505,10.956234-7.023468c-0.6042976-1.1255951-2.171524,0.4725037-2.2421265-0.3857269
		c1.8306885-6.0521698,2.4349861-14.688324,2.9427414-20.6524506c5.0449257-5.0885468,12.0774689-8.311615,12.4461975-17.8145142
		c-0.6041794-1.138443-2.6535568,0.428894-2.6893768-0.359314c2.5403748-2.3475037-4.852066-5.1148376-6.3319206-2.0492706
		c-1.1479797-4.3268585-8.5391655-4.7382965-12.6120949-3.1967773c-0.5784683,5.6755066-0.6041832,11.867157-1.7253036,17.0437622
		c-3.3195076,0.7797089-3.5471535,4.4758606-5.6053619,6.4288177c0-10.4226532,1.5415001-18.0163422,2.2948189-26.8968964
		c2.5661926-2.4876862,7.0504417-1.5942078,9.3273621-2.5224762c-0.9193153,0.428894-1.7433357-1.4102936-0.9282684-1.3049011
		c4.1075974-1.5683746,7.137928-0.123291,11.5784416-1.2527924c1.1300735-1.6463318-2.3564644-1.5678101-2.7589378-3.0392914
		c4.4843559-2.9075012,14.1446342-10.9389038,16.4484062-17.490448
		C78.8062057,148.5864258,61.9115677,157.3890533,59.6694412,160.3840179z M48.607708,126.7433014
		c2.1368561-8.671524,7.2085304-21.1956711,19.6535835-22.5095367c0.0437393,5.3340988-1.383316,10.1340485-4.9742088,13.1205215
		c-1.8923378,5.1760254-4.747715,9.4148407-9.9405022,11.4821243c0.7881012-2.1810455-2.3476257,0.569519-4.020237,0.1137695
		c0.2444077-0.9372101,0.8923302-1.4713669,1.2870064-2.2685318c-0.2892914-1.068306-0.9193039,1.1121674-1.3138657,1.3750534
		c-1.322937-0.5869598,0.7622604-1.5588455,0.3587418-2.6889191
		C49.3263435,125.8408661,48.8711815,126.2085648,48.607708,126.7433014
		c-0.070591,0.3060455-0.1491241,0.6042938-0.1927452,0.893013
		C48.4149628,127.2769928,48.4945183,126.9966583,48.607708,126.7433014z M44.5707092,134.4591217
		c3.8442535-0.5605621,7.7332764-1.1210022,11.1311913-2.1194c-2.1546516,3.1967773-6.9013329,3.9327545-11.9552116,4.3789825
		C44.1940575,136.1233521,44.1581268,135.0639954,44.5707092,134.4591217z M22.5606613,12.1652908
		c-0.1928596-1.4713697-1.3845711-1.9007149-2.3128414-2.6187782c0.3330307-0.9019709,1.8654728,0.7533064,2.7062569,0.8234482
		c0.3240738-2.3560057-2.2242184-1.6200342-1.8911877-3.9764986c0.6647968,0.2191496,1.1289253,0.6305871,1.7948704,0.8497367
		c0.8239079-0.1664572-0.4899578-1.8654723-0.9630318-2.2162957c0.0347729-1.1121662,1.5234776-0.174953,1.7869396-0.0521188
		c0.3330307-1.2696691-0.6658306-1.1384547-0.4909916-2.2158368c0.7880898,0.0257149,0.9113827-0.5784686,1.7612343-0.4994874
		c4.2645283,4.8963776,3.5818233,16.8251839,2.9506607,23.6037941c-2.4260311-1.2612896-5.4562473-1.8829212-6.3934612-4.7209663
		c0.9372139,0.3682747,1.34865,1.322937,2.6983337,1.2612896c1.1211205-0.9366398-1.9798012-1.2522202-1.8744259-2.6356544
		c0.4193573,0.3412952,1.0415649,0.4551754,1.8038254,0.3935299c-0.90242-1.7864914-3.144556-2.1805954-3.7051144-4.3525791
		c1.0773811,0.0963163,0.8676453,1.5240631,2.2780666,1.2695541c-0.0796795-1.3132915-1.0785408-1.6288719-1.8654728-2.1804781
		c0.2623043-1.3486509,0.9887486,0.3941021,1.7947464-0.0526924c-0.3418694-1.6379423-1.7163486-2.171525-2.7679005-3.0476656
		C20.458601,10.4753456,21.4395409,12.5419445,22.5606613,12.1652908z M15.6413088,4.7735434
		c0.0526924,3.818306-5.5616236,2.3031983-6.1132383,5.543725C8.2142134,9.879427,7.1984682,9.1261206,5.0438185,9.5554667
		C7.0057216,6.4809384,11.9361944,6.2006006,15.6413088,4.7735434z M5.5516863,10.8867826
		c0.884521-0.0264034,1.769042-0.0526924,2.6625271-0.0790958c2.242116,3.7482786,1.2264948,11.0005465,6.6121426,11.4209394
		c1.9012995-4.2740574-4.9395313-7.2869377-4.3441973-10.5974913c0.4641294-2.688921,3.8620443-1.8565187,5.684927-4.1950746
		c1.1816292,0.4287715,1.5403633,1.7253032,2.7320843,2.1546493c-3.2578611,5.5527935,7.0247383,21.4927673-2.0840473,20.1794758
		C15.1592712,29.5335865,3.5718749,14.9506426,5.5516863,10.8867826z M15.535924,31.6002998
		c1.9092207-0.928833,3.9585905,1.9535217,3.7309446,4.8083267c0.8240223-2.0229759,0.9372139-0.8492775,0.9372139,1.3138657
		c1.0863361,0.1401711-0.3150063-2.0229759,1.305027-1.3838921c0.0706005,2.2331696,0.1221447,4.4669151,0.1927567,6.7006607
		C19.3891296,39.0627632,18.9697704,34.9371414,15.535924,31.6002998z M21.7276859,43.4853668
		c1.8049736,1.2791977,0.1928616-3.6608009,1.200676-4.5015831c0.4114361,1.3311996,0.8934746,4.49263,0.1928596,6.7000885
		c0.4461174-0.3066292,0.4203911-1.0425987,1.3127193-0.9372139c0.2634621,0.6479225-0.4551754,2.321106,0.5179691,2.2247887
		C23.348753,48.1799316,22.1918144,45.001049,21.7276859,43.4853668z M20.0908909,48.9069481
		c2.582962,2.0583344,7.3744144-1.479866,8.1793804,3.7746811C25.9933605,50.9388771,21.5527325,51.5078201,20.0908909,48.9069481z
		 M27.2288208,48.2410011c0.1400528-6.2096672-3.8800678-11.8150406-4.5987053-18.6463432
		c2.2074566-1.5503502,5.7544937-1.8306885,7.0247364-4.2303162C29.584137,33.2382431,34.672802,45.7276077,27.2288208,48.2410011z
		 M4.4305663,78.4406509c-0.2982459,1.6899414,0.6132522,2.1103363,0.5605597,3.5559921
		c0.9809518-0.2281036,0.1132007-2.2073441,0.3418694-3.1356049c1.5314097,0.8407822,1.0851884,3.7656174,1.952949,5.3071289
		c1.295958-1.2611771-0.6838536-2.9428558-0.1322479-4.9220963c1.428206,0.4730835,1.3138671,2.5924911,2.3216805,3.511795
		c0.4899597,0.1928635,0.0258303-2.426033-0.5168219-2.6710129c1.6379423-1.2527924,1.7948723,2.9865952,1.9439945,4.8610229
		c1.0078144-0.7970428,0.0437384-3.4159393,0.2982464-4.9310455c1.4887047,1.1827621,1.1905727,4.2740555,1.9617882,6.209671
		c1.0942574-0.7444687,0.0874758-3.1357193-0.1052704-4.0202408c1.9180508,0.411438,1.5413971,3.2668152,1.9528341,5.3078156
		c1.1917315,0.1048126-0.4898443-2.49617,1.2702436-1.8302307c0.0706005,1.4709091,0.8239079,2.1985016,0.5604458,4.002327
		c1.0079288-0.0785217,0.1491222-1.9002533,0.3767681-2.6889191c1.4887028,0.0964355,1.3049107,1.9881973,1.4540348,3.5297089
		c-0.8934765,0.9193039-0.8934765-0.1664581-1.8217354-0.394104c-1.4450808,0.7180634,1.523489,0.4814606,0.9629288,1.769043
		c-1.523489-0.7006149-3.0302162-1.409729-4.5279799-2.1019592c1.7612257,1.4977722,3.9238062,2.5924911,6.3587828,3.3805771
		C13.5830908,93.189476-3.3037398,85.8498459,4.4305663,78.4406509z M15.3083944,82.5830307
		c0.7880907,0.3856049,1.0066652,1.3665619,0.9461679,2.6451797C14.669322,85.7096786,15.6066399,83.4938431,15.3083944,82.5830307z
		 M19.0303841,87.8380356c1.0605068,1.3313217,0.2364845,4.2303162,3.2668152,4.370491
		C20.5808506,93.2242584,18.2602119,90.982132,19.0303841,87.8380356z M22.7175922,91.7443924
		c0.6569901-0.7970428,2.6714706,0.8407822,4.4842606,0.3150101c0.0617504,2.0056381,1.5941944,3.354866,0.1401577,4.4670334
		C25.8801689,94.8537064,24.697403,92.8744659,22.7175922,91.7443924z M22.5169334,85.0526886
		c0.9797935-1.3138657,2.3553066,0.8498535,3.5986881,0.7797089C25.4675846,87.8380356,23.8307896,85.1670227,22.5169334,85.0526886
		z M28.3062115,83.5291977c0.7532978,0.6216354,0.4550514,3.8973999-0.7802925,4.0459518
		C27.5706902,86.0515442,28.5774708,85.3946686,28.3062115,83.5291977z M24.7590504,99.7320633
		c1.3138657-1.2084808,3.1793385-1.927124,4.3609562-3.2578659C29.847599,97.8840408,26.877882,99.5572205,24.7590504,99.7320633z
		 M28.2702713,82.6446762c0.5695133-1.2791977,1.0863457-2.5930634-0.1042385-3.5740128
		c-0.5257759,0.0879364-0.227644,0.4472504,0,0.4383011c-0.1401672,1.0773773-1.0863361,0.3330307-1.0168819-0.4904175
		c-0.5952301,1.7336807-0.4023685,4.2213593-1.0414505,5.9209518c-2.5403614-0.8497391-5.0370064-1.7433319-6.3845081-3.8279495
		c1.0851879,0.5251999,2.1973553,1.033638,3.6166058,1.2259293c-1.8306885-1.9175949-5.079586-2.2942429-6.419281-4.7202759
		c1.2253475,0.5514908,2.4260216,1.1210022,3.6512642,1.6726074c-0.0694523-1.6288681-4.3440819-2.7673264-5.9641161-4.2915039
		c0.89359-1.0599289,2.3476248,1.2001038,3.617753,1.2348862c-0.1232929-1.0947189-3.2500534-2.9691467-5.0369949-3.8711166
		c0.0268536-1.8917618,2.0414486,0.9193039,3.162569,0.7971649c-1.0078049-2.1637192-3.3990536-2.8290939-5.0448112-4.318367
		c0.043623-0.525322,0.7958965-0.4024887,1.3138666-0.4899597c-0.1491137-1.0426025-1.4102974-0.9551239-1.8318367-1.7253036
		c-0.0425901-1.060051,0.7186375-1.340271,0.3688469-2.6978798c4.072814,1.5240669,5.6312017,5.7018013,8.7499266,8.2326469
		c-1.7959042-3.0740662-5.0448017-8.1626167-7.9270525-10.4922218c1.7163496-1.9444504,4.4495821,1.2870064,6.3150549,2.0403099
		c3.1793385,6.016922,8.1804123,10.0807877,11.219698,16.211937C28.9451694,80.6827774,29.7680435,82.7578659,28.2702713,82.6446762
		z M30.9249821,171.0870209c0.147974-0.2539368,2.7668667,0.727005,3.1793385,1.6899414
		C32.2736435,173.0314636,31.7478657,171.9104614,30.9249821,171.0870209z M31.2310333,180.9137421
		c-1.0863361-0.2185669-1.0504036-1.6552734-1.4271717-2.6362152
		C30.7758579,178.6278839,31.4149513,179.3286133,31.2310333,180.9137421z M32.2388458,170.6054382
		c-1.1569347-0.604187-2.540369-0.9724579-2.7600937-2.6014404c1.12113,0.192276,1.8654728,0.7880859,2.7242775,1.2527924
		c1.0078163-0.3508301,1.3049126-1.3755188,1.7174988-2.286438
		C35.5225372,168.5118561,32.544899,169.4137115,32.2388458,170.6054382z M28.0863628,166.2613525
		c1.0336437-0.7444611,3.4775848,0.8934784,4.1077137,2.1103363
		C30.7758579,167.7153931,29.2870388,167.1369171,28.0863628,166.2613525z M27.5706902,148.8318634
		c0.8924408,5.263504,6.6558914,9.1614838,6.7612839,16.7898254c-1.1559143,0.219162-1.3139915,1.375061-2.6457653,1.4187927
		c-1.4709015-1.3486481-3.8621502-1.7254181-5.0179482-3.4243164c1.068428-1.2348785,2.2421246,1.3049164,4.0638599,0.7797089
		c-2.1725578-1.3929596-4.5896358-2.5314178-6.8317623-3.8273773c2.3912487-0.8150635,4.6771126,2.3990631,7.2252998,2.9075012
		c-1.987627-2.4703369-5.8060493-3.0128784-7.7421227-5.5701294c2.4607029-0.4556274,4.6423302,3.3453369,8.1457443,3.3280029
		c-2.8026867-1.6463165-5.798233-3.0830231-8.2164593-5.1149445c1.9361877-0.8061218,4.2130985,1.9792328,6.3420315,2.4876709
		c-0.3330288-1.7870636-5.1940479-2.7942963-6.8318748-4.7124634c1.603157-0.9372101,3.5213318,1.7427521,5.4125099,2.0756683
		c0.0526924-1.4450836-4.1602917-2.338562-5.4831123-3.8620453c0.3688469-0.955246,1.8228931,0.7880859,3.1277943,0.3496704
		c-0.6222057-1.0245667-2.014595-1.2174377-3.1703739-1.6899414
		C23.3050137,146.6951294,25.6962624,148.4289246,27.5706902,148.8318634z M27.6313038,180.134613
		c-1.2523346-0.0706024-1.077383-1.6288757-1.8565197-2.1810608
		C26.4843636,176.7713623,28.0258656,178.5751953,27.6313038,180.134613z M23.8655739,174.4328156
		c1.0504055-1.0863342,2.180479,1.6636505,3.2141228,2.136734
		C25.7747841,177.9272766,24.6357555,175.1862335,23.8655739,174.4328156z M21.7724571,164.2119751
		c1.5673409,0.6916504,0.2970982,1.4798584,0.9799175,3.0997772
		C21.0628891,167.7237701,22.1312122,165.21875,21.7724571,164.2119751z M21.2904186,162.8891449
		c-0.3766537,1.3665619,1.077383,4.4932098-0.7533054,4.4842529
		C20.913765,166.0068512,19.4249458,162.8800812,21.2904186,162.8891449z M18.9697704,159.8234558
		c1.7948723,0.6923523,0.639082,4.5454407,1.0853043,6.6743774
		C17.5505199,165.797226,19.1177559,162.1098938,18.9697704,159.8234558z M18.216465,164.3167877
		c-1.6379433-0.2628937-0.7353973-3.2320404-1.0694618-4.8783569
		C18.7859898,159.7007446,17.8835487,162.6704559,18.216465,164.3167877z M15.7546148,157.240036
		c1.0336447,1.2084808,1.0336447,3.5122528,1.0605078,5.7802124
		C14.8621826,162.3986206,15.3868113,159.1228485,15.7546148,157.240036z M13.075223,157.7658234
		c0.9977121,0.0257111,0.2533598,1.8911896,0.5425463,2.6708984c0.9809418-0.3682861,0.0964308-2.5139771,0.3419743-3.5913544
		c1.7253036,0.4647064,0.6479216,3.8979797,1.0504045,5.780899c2.3912477,1.7696075,4.4147978,3.9236908,6.0179567,6.5251312
		C17.8128338,166.1906433,12.5404921,163.2131195,13.075223,157.7658234z M21.9563637,185.2231598
		c-5.6053715-1.7779999-17.789259-6.8408356-17.4820595-16.4663239c1.34866,1.1737061,3.0650001,1.9798126,3.6961613,3.9153137
		c0.8576679-1.5588531-1.9092107-3.1877136-2.8295488-4.3878174c2.3475199-1.0690002,3.7656136,2.7673187,5.0716839,4.3177948
		c0.4462118-1.2611847-1.8665152-3.5471649-2.8373647-4.8346252c2.1188321-0.3851471,4.2555737,3.1620026,5.525702,5.2023163
		c0.648036-1.6379395-2.5044403-3.1703796-2.8373556-5.2814026c3.2141333,1.3318787,4.5279903,4.7035065,6.4640732,7.4097595
		c0.2970886-1.5415039-2.085206-4.2303162-3.2847338-5.7191315c3.5123682-0.6659393,4.4933195,5.3687744,7.3565054,6.9366913
		c-1.2780495-1.8571014-2.1973553-4.1340027-3.7399006-5.7017975c2.9955482-0.5689545,3.9763851,4.9657135,6.0179577,6.971344
		c0.4551754-1.4180908-2.1199799-3.5907745-2.4260235-5.7365875c3.6692886,2.8644562,4.7029324,8.5392761,8.8272915,10.9131927
		c0.4384155,1.409729-0.6389675,1.4013367-0.8228741,2.2595825c2.085207,1.6726074,1.7522907-2.2949371,3.5471516-1.0067902
		c-2.2242069,4.930481-10.0897369,0.1569366-13.4349594-0.928833
		C17.8487663,184.1021576,20.913765,184.7764893,21.9563637,185.2231598z M27.0449142,190.8812256
		c2.9069214-1.1736908,4.9395409-3.1618958,7.9170647-4.2656708
		C33.2804222,188.936203,30.6358051,190.3644104,27.0449142,190.8812256z M3.3621383,280.5758972
		c-1.1299596-0.805542,0.3240757-1.6373596,1.3307419-0.9366455c0.3419843,1.769043-1.1557891,1.8301086-0.7970445,3.5991516
		C2.4249344,283.0282288,4.727664,279.3673096,3.3621383,280.5758972z M5.6301031,281.399353
		c-0.5862846,0.9024353-0.7880998,2.1456909-1.2343206,3.1703796C3.6514301,284.1402588,4.3251815,281.364563,5.6301031,281.399353z
		 M6.5583525,282.2664185c-0.4808898,1.7169189-1.112051,3.3189392-1.6378269,4.9658203
		C4.1939764,286.1021729,5.0438185,282.7479858,6.5583525,282.2664185z M7.5303497,284.9199829
		c-1.295958,0.6744385-1.1557889,2.6799622-1.6726112,4.072937c-1.3139811-1.5415344,0.7802939-3.5823975,0.7443523-5.3862305
		c3.1446791,1.4977722,0.2982459,4.7904053-0.22753,7.6020508C5.6648774,289.8074036,7.5752358,287.1447754,7.5303497,284.9199829z
		 M8.6604242,292.9340515c-1.3486505-0.2539368,0.4035158-0.9719849-0.0437384-1.7869568
		c-1.6109643-0.2097473,0.0437384,2.6714783-1.7163491,2.2858582c-0.2623043-1.4013367,0.7443523-1.6019897,0.3329153-3.1435242
		c1.2432656-0.4036255,1.1738219,0.5952454,2.242125,0.3850403C9.0370779,291.2703857,9.1065302,292.3297424,8.6604242,292.9340515z
		 M10.525897,296.0079956c-0.8588066-0.5604248-0.4372673-3.5643616,0.7880898-3.5997314
		C11.2444191,293.783783,10.9462881,294.9486389,10.525897,296.0079956z M23.8387108,292.4788818
		c0.7006149-0.0179138,1.1042461,3.2757568-0.3497906,2.688324
		C23.3835354,294.0730896,23.348753,293.0215149,23.8387108,292.4788818z M23.1906757,300.0988464
		c0.7096825,0.6300049,0.9719963,1.7163391,0.9719963,3.0997925c-0.9282494-0.2275391-0.9719963-0.6737671-0.4810047-1.3307495
		c-0.0346699-0.4293518-0.5604458-0.3329163-0.9024296-0.4204102
		C22.6301155,300.7288513,23.1906757,300.6677856,23.1906757,300.0988464z M22.5953312,295.1941833
		c-1.0066662-0.8761292-0.964077-1.45401-1.8833809-3.0746155
		C22.1132927,292.3208008,22.3678017,293.7401733,22.5953312,295.1941833z M19.1974163,286.3566895
		c0.1491222-1.0863342-0.8588066-0.946167-0.5257759-2.2164307
		C20.0550747,283.4396667,20.913765,286.6370239,19.1974163,286.3566895z M11.9799318,254.8264008
		c-1.4888191,1.1995392,0,5.1939545-1.6020098,6.3061066c-2.1637087-0.1665649-2.8026862-1.9272461-5.4215798-1.6289978
		C7.0841289,257.7428589,9.4407082,256.2098389,11.9799318,254.8264008z M5.5169024,263.0679932
		c-0.008954-0.7359619-0.0359316-1.4893799-0.070601-2.2337341c1.6726112,0.3945618,2.5750504,1.5767517,4.5190353,1.6558533
		c2.9866018-0.6659546,2.2073412-4.8872986,4.2915049-6.3935852c5.0448112,5.8677979,4.6771126,16.0886536,5.2376728,25.7848511
		c-1.3834343,0.7174988-2.6188946,1.5672302-4.413765,1.9176025
		C11.945158,276.8364563,11.5684948,266.9475098,5.5169024,263.0679932z M9.220994,311.2479248
		c1.8306789-2.452301,4.1781893-0.2364807,6.6569147-1.094696c0.2891769,0.7796936-0.4551754,2.6451721,0.5425358,2.67099
		C14.1088667,314.0159607,12.0672932,310.9850464,9.220994,311.2479248z M16.3150597,294.4934692
		c1.7960205-0.0964355,0.1928616,2.7147522,0.9731464,2.6535645
		C16.5438538,298.4777832,16.1312675,295.6492615,16.3150597,294.4934692z M24.171627,318.4037781
		c-3.4853916-0.7622681-4.2298584-4.4058533-4.7118969-8.3553772
		C23.6021118,310.1089172,27.1582298,314.9615479,24.171627,318.4037781z M17.4361801,302.06073
		c0.9731464,1.1031189,1.0078144,3.2230835,2.3564644,3.9495239c-2.5133934-3.8800659-0.6658287-12.7869263-2.7679005-17.8059998
		c0.6042976-1.357605,0.8240223,1.515686,1.8038254,1.288147c-0.0604992-2.2253723-1.3923893-3.1182861-1.917017-4.8526306
		c1.6815758,1.2175293,3.3273144,3.0218201,2.399065,5.7371521c0.5963669-0.4557495,0.8587952-1.2175598,1.295948-1.8308105
		c-1.2253571,3.9327698,1.910368,8.3117371,2.137888,11.5696106c-0.9113827-0.7355042-0.8149529-2.5483093-1.9001312-3.0830383
		c-0.4911175,2.3912659,2.6972904,4.8172913,2.9416962,7.9619751c0.8239079-0.0874939,0.2286797-1.515686,0.8239079-1.8128052
		c1.3486614,0.2533569-0.402483,0.9718933,0.0526924,1.786377c0.7701912-0.4293213,1.5236034-0.8761292,1.295969-2.2685242
		C27.9025707,309.1549377,16.1670856,310.1969604,17.4361801,302.06073z M47.784832,642.3070679
		c-1.462986,1.9708862-0.3688469-2.6524048-1.4192505-2.645752C47.8544006,637.6837769,46.7332802,642.31604,47.784832,642.3070679z
		 M46.1727219,632.961792C47.784832,637.762207,45.4631538,637.1479492,46.1727219,632.961792L46.1727219,632.961792z
		 M36.7926674,68.5167923c0.6749001,0.9552383,0.8228722,2.4966354,1.0067787,3.9944077
		C36.6435432,72.0554504,36.8364067,70.1457825,36.7926674,68.5167923z M44.7546196,66.047142
		c1.3486481,0.5695114,0.7174873,3.214119,1.4888268,4.4315567c0.9372025-1.6025848-0.4384232-2.180481-0.1749611-4.9220963
		c0.6647949,0.5341568,0.8924522,1.5151138,0.9887581,2.6541367c1.2444115-2.1635971-1.2522202-5.2028847,2.0672874-5.4304161
		c-0.3239632,7.3654594-3.661377,11.8940239-4.8172836,18.4803429c2.6894951-5.2987442,4.5987053-11.29879,6.1748886-17.6216507
		c2.8285141,11.0874481-4.2219391,20.2926636-11.3250847,24.9349976c-0.1917114-3.09198,1.0773849-4.7735443,2.050415-6.7702332
		c-1.5335922-0.2891769-0.5178566,1.8302307-2.1995354,1.4013443c-0.2354507-3.1882935,2.1637268-1.1563644,0.7623749-4.4932098
		c0.7970428,0.0874786,1.0246887,0.7443542,0.946167,1.769043c1.3486519-0.8755646-0.5874214-2.1110229-0.1053848-3.5818176
		c1.3408432-0.0269775,0.6311607,2.0930023,1.4192619,2.6446075c0.9719887-1.085762-1.6815758-4.0986481-0.1838036-5.8066177
		c1.0066681,0.6126785,0.446106,2.9075012,1.4540367,3.5297089c0.6300125-0.8497391-1.086338-3.1266479-0.6042976-5.3430634
		c0.9372139,0.8324051,0.9372139,2.6894989,1.4618416,3.9765015c0.6312752-1.9092102-1.2689819-5.0886612-0.7084198-8.477623
		c1.3474998,1.1816177,0.8228722,4.3699112,1.5324402,6.2180481C46.0235977,70.9696884,44.6054955,69.541481,44.7546196,66.047142z
		 M37.1346512,21.1165733c3.0212631,0.3329163,2.014595,4.9483814,3.7746811,6.5952778
		c1.9708595-0.3418694,1.8306885-2.6278477,1.6378288-4.966404c4.7466927,2.9339008-0.0346603,9.1266956,0.8576584,12.9361629
		c4.7130432,0.8234482,2.5582809-4.8083286,4.7130432-6.4025326c1.9092102-0.3497906,2.5392227,0.7007294,3.6255722,1.2354603
		c-2.4170914,7.8643723-7.514595,13.1984749-8.285923,22.5964394c-2.8464241-1.0509796-1.8475647-3.4416542-2.408123-6.6300621
		c-1.9450302,4.7466812-1.375515-1.1300735-1.9708595-5.2987442C38.0629196,34.0436668,35.7770462,26.3015537,37.1346512,21.1165733
		z M37.6155396,51.9551888c2.3565826,0.5952263,3.863308,2.0403099,5.9036179,2.9512329
		c0.3419838,4.6507111-1.5672264,7.191082-1.4450798,11.6664925c-1.2354584-1.0516663-0.4551773-1.8654709-0.9899063-3.9944077
		c-1.5942039,0.8676453,1.0246887,5.3082733-0.7533073,4.9400024c-0.0606117-1.6373672-0.0964279-3.2751999-0.1659851-4.9131393
		c-0.9809647,1.3834343-0.0089645,4.6154633-0.2275429,6.7175369c-1.8744164,0-0.5605583-3.4159393-1.0515518-4.8874207
		c-0.7096825,0.9373245-0.5953445,4.9137115,0.1927452,5.8067245c-1.9438782-0.7355118-2.5750389-6.1042862-2.5481682-10.2029266
		C36.5303612,57.1658821,37.2041054,53.9344254,37.6155396,51.9551888z M36.9417915,74.3329391
		c-0.7791367-0.6922379-1.0078163-1.9887695-0.9988632-3.5470428
		C36.5740891,71.6614609,37.5808716,73.5269394,36.9417915,74.3329391z M36.153698,77.0302353
		c-1.2611732,0.113884,0.2712708-2.7589493-0.9731445-2.6451797C36.1974487,73.1155014,36.7926674,76.1804962,36.153698,77.0302353z
		 M38.4833031,110.4961243c1.3744774-2.4697723-2.3128433-5.7018051-1.1300774-8.0049973
		c4.4573898,2.7678986,5.6839066,13.5582504,5.5359192,20.397934c-0.0448761,2.8116379-0.2982445,5.4742661-2.4966316,6.3329697
		c-0.2018166-1.2881622-4.5717278-1.8049774-5.0449257-4.3183746c1.2265015-1.1300735,1.9002647,2.2685318,3.2051659,2.5841064
		c0.1143417-1.8133545-3.6602287-3.4686279-3.7746811-6.5953903c1.0427132,1.0510941,1.8654709,2.3296051,3.2142372,3.0303345
		c-1.305027-1.681572-2.5045547-3.4770126-3.7309456-5.2460556c1.4449654-1.0336456,1.9360847,2.8464203,3.661377,3.0218353
		c-1.0157356-2.7589493-3.7578087-3.6788254-3.7836266-7.4887543c1.2702332,0.9545517,1.7343636,2.7499924,3.2230682,3.4770126
		c-1.2444153-2.505127-3.4416542-4.0196609-3.783638-7.4793396c1.6816788,0.6569901,1.8038368,2.9776382,3.2230759,3.9238052
		c-0.2623138-1.4102936-2.285862-4.9400024-3.3284607-7.0504532c0.254509-1.357605,0.9719963,0.3935318,1.7870636-0.0616455
		c-0.5953331-1.6379395-1.3318901-2.5751572-0.1143265-4.0202332
		C37.0292664,104.6631088,37.8442192,107.5095291,38.4833031,110.4961243z M42.1794624,129.6155548
		c0.4899597,2.0056458-3.1445541,1.5767517-3.9674301,1.0161896
		C38.9731445,130.0713043,40.6470299,130.368866,42.1794624,129.6155548z M34.6290627,100.7746582
		c-0.8228645-0.0268631-0.9372139,0.5774384-1.7870636,0.5078659c1.0863342-2.1636047-0.7174911-7.0594025,1.5594177-8.102005
		C34.8487854,94.3452682,34.261364,98.2606888,34.6290627,100.7746582z M33.1402435,81.5930099
		c-1.3923779-1.9001389,0.2275314-6.997757-1.1557884-8.9068527C34.1043205,71.7398682,33.6660194,79.7018204,33.1402435,81.5930099
		z M31.8969784,84.3172913c1.8306904,0.0526886,4.1513348,6.8665466,1.1468334,8.4607468
		C30.7758579,91.3329544,33.7276688,86.6210632,31.8969784,84.3172913z M32.4227562,131.7001801
		c0.1221428,1.7779846,0.3318901,2.102066,1.0066643,3.9938202c-1.9708462-1.155777-3.5470276-3.529129-2.8643322-6.174881
		C32.5012779,130.1234131,29.847599,133.005661,32.4227562,131.7001801z M23.3128204,126.603241
		c0.8498516-2.3212204-0.6737518-3.1267548-1.0504036-5.3251419c-1.3049126,0.6827011,0.6659451,1.7163467,0.1053848,3.117691
		c-2.8464241-3.0045013-5.5269642-10.7814026-2.71521-15.5638962c0.8060093,1.1036682,0.7443523,1.6468964,1.357605-0.0437393
		c1.1210155,1.9529495-0.9193058,4.6423264-1.1390285,6.7444c1.9798107-1.3049088,0.8934746-5.5269623,3.3811531-6.3587952
		c-0.4999466,2.8553772-1.2611637,5.4563675-1.5246353,8.5392761c1.1300735-1.8217392,1.2881508-4.5543976,2.02355-6.7701187
		c1.1210041,2.2242203-0.6300144,5.4825363-1.1211205,7.6373062c2.2858639-0.8845215,0.7534199-5.3778458,2.9518089-6.3498383
		c0.156929,3.7746811-1.1479836,6.1569748-1.9708576,9.0039749c2.0931168-1.4977722,1.2265053-5.789856,3.3543015-7.2612228
		c0.6401043,4.8083267-2.3901005,8.7584229-0.0695782,12.5247192c1.12113-1.2523346,0.9372139-3.7489624,1.6379433-5.4126205
		c0.8228836,0.1575012,0.8755665,4.3615341-0.3677006,2.6972961c0.411438,1.0952911,0.6648083,2.3733444,0.5605602,4.0027924
		c0.8575439-0.7970428,0.8934765-2.3469391,0.7791367-4.046524c1.6815662-0.411438,0.6389675,2.0931168,0.9719982,3.1009293
		c-1.8308048-1.1653214,0.2543926,1.8823471-0.3330307,3.5818253c-1.6109638-0.4203949-1.0066662-3.2141266-2.7758236-3.4859695
		c1.5762959,3.8536606,3.8184223,6.9983292,5.6749382,10.5544357c-3.2399502-3.4686279-5.6311989-7.8307343-7.5313416-12.7354889
		c0.5246296,4.2040253,3.9662819,9.292572,6.6468239,12.7612152c-3.2409878-1.4888306-5.9024715-7.58461-7.960804-11.8323822
		c0.3060513,3.0739594,3.2141228,7.3391724,5.2287178,10.1249847
		C26.9743118,135.0023499,25.2142239,129.5280762,23.3128204,126.603241z M28.3846092,116.171524
		c-0.4820385,3.853775-0.3329144,6.5336304-1.9798107,8.5571823
		C27.1582298,121.9608002,26.5191364,117.8794937,28.3846092,116.171524z M25.9933605,140.3890228
		c1.7163506-1.5246277,8.8991642,1.3134155,9.7220402-2.9780884c0.709568,0.7880859,1.6467819,1.3223572,1.4540329,3.0830231
		C33.8061981,141.9742737,28.9889069,141.737793,25.9933605,140.3890228z M33.0617218,256.8756714
		c-0.822876,0.4551697-1.5324421-1.2959595-1.7959042,0.0527039c-0.4462204-3.6176453,0.7443523-9.4242554,0.4551754-14.3290253
		C33.9205284,247.4082489,30.6704731,252.1985626,33.0617218,256.8756714z M31.8621941,216.6744537
		c-0.5257759-0.0700226-0.2634621-0.4467926-0.0358162-0.4467926
		C31.0035038,207.2243652,33.4384918,213.3992615,31.8621941,216.6744537z M32.0898399,209.9564514
		c-1.9092102-0.9013977-1.7870655-3.9496307-3.2937927-5.2724457
		C30.1099129,204.3952789,31.6424713,207.8195953,32.0898399,209.9564514z M28.8576927,206.4709473
		c1.6636581,1.927124,1.5504761,5.5874634-0.2364845,7.1642151
		C28.6558781,211.2092438,29.2074833,209.2736359,28.8576927,206.4709473z M24.697403,202.1267548
		c0.5168209-0.5257721,1.5594196-0.5514984,2.6805401-0.5257721c-0.3767681,0.8061066-1.7960186,0.6222076-1.2702427,2.2774811
		c0.7444668,0.7880859,1.3923874-0.3593292,2.2500458,0.8234406c-0.1917133,2.8553772-0.2623138,5.84198-1.5403633,7.6457977
		c0.4462204,1.2084808,2.426033,0.7797089,1.8654728,3.0739594c-1.0336437-1.1468353-0.9282589-1.7253113-2.2780571-1.7163544
		c0.079565-1.7779999-1.1120415-2.2158356-1.0157356-3.9938354c-1.2174358,1.6115417-0.8137951-0.0263977-0.0257149-0.8930054
		C23.339798,208.5028839,24.7232323,205.0516968,24.697403,202.1267548z M28.0863628,225.2753754
		c-1.34865-3.9327698-4.2476521-6.2449188-5.6748238-10.1070709
		C24.5393257,217.7164764,29.2434158,222.3062286,28.0863628,225.2753754z M19.2322006,213.4687042
		c0.5952282,1.4277496-1.4193668,0.3857269-0.831934,1.8127899
		C16.5079212,215.0808258,17.8835487,211.8835754,19.2322006,213.4687042z M1.5572795,205.9541321
		c1.8396429-0.4987946,3.783637-0.1664581,5.4125199,0.7355042c0.0796604,2.8295593,0.4473591,5.3603973,3.7052207,4.7998352
		c-0.822875-5.404129-5.0795956-7.1906128-6.191752-12.3318634c0.1042271-0.9108124,1.1905637-0.9108124,1.2959485-1.8217316
		c5.0448112,0.4641266,6.087409,5.2203369,7.43606,9.6081543c0.9719973-1.6642303-0.0346689-5.1501923-1.0772581-6.2186127
		c3.9932489-1.1737061,4.7118864,5.1149445,5.6401453,8.7669067c-3.2141218,0.7359772-4.5281038,3.2757721-5.6401453,5.9820251
		C8.2747021,212.9081573,2.1884499,210.4732819,1.5572795,205.9541321z M19.2322006,242.9844971
		c2.1367493-0.2097321,7.3654594,0.3508301,9.8273087,0.1400604
		C27.4126129,244.7624969,21.4743252,243.7030334,19.2322006,242.9844971z M29.4709454,241.3381805
		c-10.6065598-1.9792328-10.2040768-14.8189697-14.5392046-22.3689117c1.4282064,0.770752,1.646781,2.8638763,2.3564653,4.3963165
		c0.6389675-2.3553162-1.7522821-5.4910278-2.9080715-7.5145721c0.4899597-1.2084961,1.2174368,1.1300659,1.8217449,1.2875671
		c0.6042881-0.6216278-1.4103069-2.3122711,1.2791882-2.2685242c1.0762329,0.9988556-0.7892399,1.4629822-0.3419857,3.1357117
		c2.0583344-0.2276459,1.5325584-2.8901672,3.4764385-3.2321472c0.4821529,2.3296051-2.1456966,1.7433319-1.6815662,4.072937
		c1.0425987,1.0593567,2.1019573-3.2578735,3.5470371-1.8918762c0.1491241,1.6025848-1.751133,1.2612915-1.7163486,2.7326508
		c0.6659451,1.1474152,2.0931168-0.586853,2.1894341-1.4102936c1.4720573,1.2791901-1.9708481,1.5852509-1.2174377,3.6177521
		c1.5415115,0.0257111,1.3408451-1.6121063,2.1637192-2.3038788c3.4775848,4.5370483,8.3384876,11.1323242,5.9472408,19.0493927
		c0.3756199-0.3497925,0.6301289-0.8407745,0.8228741-1.3661041
		C31.9496708,238.5001373,29.4787521,239.901474,29.4709454,241.3381805z M30.1716843,264.5568237
		c3.7836266,8.9511719-0.174963,18.1820984-1.4450912,26.4332275
		C27.0101395,283.3348389,30.1009598,273.3679504,30.1716843,264.5568237z M38.77248,297.8388062
		c-0.2543945,1.944458-2.8990021,1.6288757-3.4865303,3.2320251c0.8318176,0.9018555,2.1457977-1.4192505,3.5302658-1.4450684
		c0.1839066,2.7589417-2.7331161,2.6445923-4.3710594,3.7046509c1.0078163,1.1911621,2.9865913-0.3682861,3.5471535-0.9984131
		c1.1120491,2.6883545-1.6816826,7.5847473-4.7118874,6.4025574c0.9372025-1.2965393,3.5559845-0.9988708,3.9326363-2.7943115
		c-0.8318291-0.7618103-2.6973,1.1911316-4.4226036,1.0252686c-0.9988613-2.0415955-2.312727-3.6878052-2.8732872-6.1748962
		c0.8586903,0.4730835,0.9809513,1.6988831,1.8396416,2.1715088c-0.5347195-1.865448-1.5156822-3.2926331-1.9438801-5.2982788
		c1.1905746-0.175415,1.1905746,0.8934937,1.3833199,1.7427673c1.1211224-1.357605-1.34865-2.8291016-0.6041832-5.3424988
		c1.1557999,0.0089722,0.709568,1.7163696,1.8654728,1.7342529c-2.8734016-5.4741516-0.1491241-20.3722229,8.4864655-15.0122681
		c-2.9158783,4.20401-0.0706024,13.8385925-3.958477,17.1054077
		C37.1694336,299.3712463,38.2994041,296.1044312,38.77248,297.8388062z M32.3521538,307.4205627
		c-3.1794548,0.2803345-2.6099396-3.3811646-3.2926445-5.7107544
		C30.3992043,303.3477478,31.5292797,305.222168,32.3521538,307.4205627z M29.847599,313.7614441
		c-2.3912487-0.6216431-3.7051144-4.5454407-2.469656-7.5320435c0.8228741,1.4277649,0.9450207,3.6082458,2.8104916,3.9412842
		C29.9609051,311.2479248,29.6200695,312.2288818,29.847599,313.7614441z M31.3801556,319.9711304
		c-0.0437374-1.9529724,0.0437393-4.0460815-1.0425968-4.8868713c2.303772-1.3049011,12.1389999-4.3968811,16.956295-0.9551086
		C43.9047661,317.6504822,36.3465614,322.0036316,31.3801556,319.9711304z M47.7052803,283.2648315
		c-0.0347862,1.7252808,0.0795517,3.2930908,0.5963745,4.4494629c0.9978294-0.359314,0.113308-2.5050354,0.3408356-3.5823975
		c1.2701302,1.2085876,1.2174377-1.0509949,1.7174988-1.8480225c1.4528885,3.9674072-1.1211205,7.900177-3.2757683,9.9404907
		c2.8991165-0.3239746,3.099781-3.1524658,4.7813492-4.6154785c0,3.7663269-4.6759644,6.8929749-7.776886,9.178833
		c0.6659355-0.6922302,0.0694427-2.5487671,1.7163391-2.2858582c0.6222076-1.357605-1.6468964-2.6798706,0.3676987-2.697876
		c-0.0694542-1.4624329-1.3049126-1.6636658-0.9988594-3.5470581c1.0863342,0.2275391,1.0425987,1.6558533,1.4192505,2.6368103
		C48.3801765,288.7036133,45.5864449,284.8326111,47.7052803,283.2648315z M51.7780914,284.9290466
		c1.6468964,0.9018555,0.2186928,1.6552734-0.3418694,2.6888123
		C50.0965271,287.0393982,52.1638145,286.0584412,51.7780914,284.9290466z M48.8264084,305.1347046
		c-0.1133156-1.1036682,0.6658325-1.4013367,0.8238983-2.2600403c1.6468964,0.2802124-1.3049011,2.5930786,0.9719963,2.2073364
		c0.1143494,1.2786255,0.1143494,2.4349976-1.2959595,2.2769165
		C48.8005676,306.237915,50.779232,305.0203552,48.8264084,305.1347046z M45.954155,298.9598083
		c1.0773735,1.0594788-1.3408432,2.4960632-1.6815758,3.6345215
		C43.0371323,301.3858337,45.6121597,300.0988464,45.954155,298.9598083z M43.3005829,300.3875732
		c-0.411438-1.1127625-0.6401138-2.3739319,1.2780495-2.2774963
		C44.5707092,299.2580566,44.5707092,300.4138489,43.3005829,300.3875732z M49.0370522,297.532196
		c-0.3239594-0.9720154-1.4449654,0.8850708-1.7431984,1.3929443c-0.9720078-0.8234558,1.6815529-3.6435852,2.5930519-2.7680054
		c-0.5605621-0.569519-0.1928596-0.6916809-0.0269775-1.3312073c-1.7779961,1.0947266-3.1614304,2.5307312-4.3609581,4.1519165
		c-0.2197227-2.9698486,3.9932709-5.5096436,6.0247307-7.7870178c-1.3923912,5.1502075-3.2220459,9.5560608-7.1816673,14.0840454
		C44.7186852,303.3040161,46.9967422,299.3712463,49.0370522,297.532196z M51.7871628,300.1336365
		c0.4023666,1.5325317-0.4205055,1.900238-0.8061142,2.6972961
		C50.0965271,302.5248718,50.6570854,299.9671631,51.7871628,300.1336365z M51.4103928,302.3757629
		c1.6379433,0.2539368,0.8150673,2.5751343,0.1053848,3.1266479
		C49.5797043,304.9682312,51.3319855,303.5141907,51.4103928,302.3757629z M52.6100349,297.4273682
		c0.8497391,2.0582275,0.9292946,3.1266479,0.6311607,5.7891541
		C52.3386536,301.8499756,51.9272156,299.6167908,52.6100349,297.4273682z M42.10886,290.5865479
		c-0.6827049-6.7875671-0.3497887-13.6715698,3.5032997-17.5426941
		C46.5841599,279.0079956,44.5001106,285.4284363,42.10886,290.5865479z M54.9575462,301.3768921
		c-0.8666115,0.5084534-1.4102974-1.9619141-0.5257759-3.1177063c0.5963783,0.1227417,0.4124718,1.1120605,0.4909935,1.7780151
		c1.4888191-1.1827698,0.0785217-3.1968079,0.2982445-5.3778381c1.1905746,1.0952759,0.7085342,1.9181519,1.0066681,4.4406128
		c1.4540329-0.4641113-0.22752-3.9411316,0.2623138-6.2623596c2.5751534-0.5605469,0.5605698,3.7225647,1.9451408,4.4142151
		c0.7521591-0.6041565-0.9719963-4.1950684,0.2623138-5.3771362c1.0157356,1.5234985,0.4024849,4.8167114,1.532444,6.2180481
		c0.6749001-1.2085876-0.5694008-4.2831116-0.192749-6.7001953c1.1569405,0.7623596,0.4730873,3.4769897,1.4630013,4.422699
		c0.8934669-0.9719849-0.6389771-3.2836914-0.1491318-5.3599243c1.3408432-0.2102051,0.9641991,1.4277344,1.4013405,2.1895447
		c1.2444153,0.1670227-0.4371414-2.4260254,0.8318291-2.2595825c1.5426598,6.5509644-5.3766937,12.5683594-8.8811417,17.2539673
		c-2.9943962,0.7880859-3.8184204,3.6351013-6.0953293,5.1064453c0.5605583-2.3475037,4.2915039-5.4915771,6.4641762-7.7947998
		c-1.4899673,0.0610962-3.9675446,2.9075012-5.2376709,4.6244202c0.2623138-1.4977722,2.014595-5.3430481,4.7465668-5.9473572
		C53.8453903,302.9710999,54.2130814,301.8062439,54.9575462,301.3768921z M53.459774,266.5450134
		c0.0795555-1.5240479-0.4462204-3.6087952,0.3239594-4.4752808c5.6580734,1.7163391-0.2623138,5.8503418-0.6210594,9.4063416
		c0.1221466,0.4814453,0.9013977,0.2712708,0.9372139,0.8671875c2.6535645-0.963623,3.0471039-4.072937,3.3542938-7.2612305
		c2.1367378,0.359314,3.7836342,1.1917114,4.5627708,2.9955444c-2.5403709,5.4125061-7.6547508,8.4170227-11.692894,12.4281921
		c-1.0851898-0.8665161-1.1905746-2.7589722-0.1131821-3.5818481c-0.4472656-1.3049011-0.6311722,1.0594788-1.7869606,0.5078735
		c0.6658287-1.4102783,1.7600861-2.4002075,2.5750389-3.661499c-0.6748962-0.9018555-1.462986,1.4450989-2.4696541,1.8133545
		c-0.0437393,0.0611877-0.1143379,0.0874939-0.1491241,0.0611877c0.0347862,0.0263062,0.1053848,0,0.1491241-0.0611877
		c0.3766518-0.5430908,0.8575439-4.0902405,1.9181633-5.3687439c-0.1580772-1.0600586-1.2006721,0.5341492-1.3139801,0.9282532
		c-0.9372139-1.1911621,2.0404243-2.4086914,1.6457481-4.5196228
		C51.6649017,267.4732666,52.4261284,266.7114868,53.459774,266.5450134z M54.9317169,270.9676208
		c-1.5851364-1.5324402,1.1557884-2.6445923,1.2265053-4.0638428
		C57.1996727,267.9115906,55.1413383,269.6806335,54.9317169,270.9676208z M48.1783638,268.9362793
		c-1.3655167-1.4540405,1.7690392-2.3564758,1.6558495-4.0728149
		C51.033741,266.1594238,48.0819321,267.2457581,48.1783638,268.9362793z M36.0135307,265.283844
		c1.5415115-2.1368408,0-7.2343445,1.0157356-9.8711548c3.765728,0.7359619-0.0089531,5.5885925,2.0056419,7.0947571
		c1.3833199,0.2803345,1.6199188-0.5084534,2.6883469-0.5252075c0.1927452-2.7769775-0.9720001-6.9720459,2.8900566-7.2433014
		c1.0425873,2.2858429,1.2264938,5.4736786,4.6255569,5.228714c0.2623138,6.1743164-3.9236908,8.1626282-5.421463,12.6816406
		c-1.6727257-1.8385925-2.0067902,3.8626404-3.4338493,5.019104c-1.8654709-0.4205017,1.0078163-3.2142334,0.7443542-4.9401245
		c-1.0067825,1.357605-1.7948723,2.9255371-2.5392151,4.5454407c-1.3049202-0.5862732,0.7443428-1.5582581,0.3766441-2.688324
		c-1.2354584,0.4293213-1.4371605,1.8391724-1.6905212,3.1793213c-1.4888191,0.0437317-2.9865913,0.0874939-4.475399,0.1401672
		c1.8654709-6.8581543-1.9450397-13.8296204-1.0515537-19.6457825
		C33.8408585,260.3790894,32.2736435,264.3812866,36.0135307,265.283844z M33.8408585,223.7602692
		c0.6042976-0.5869751,0.3857231-1.9529572,0.3767662-3.1357269c0.411438,0,0.3418694,0.5342712,0.4551773,0.8755798
		c1.480896,0.5078583,0.2891769-1.4540405,1.7611313-0.9456024
		C35.4788094,221.5270996,35.4440155,223.3655853,33.8408585,223.7602692z M48.5023232,235.3824463
		c-0.1917114-0.7489471,0.3240852-0.8452606,0.8845215-0.9148254c-0.5246277-0.9899139-1.4181023-1.5767517-2.7319717-1.6996002
		c0.3060646-2.2201843,2.2073441,0.7096863,3.5638008,0.3330383
		C50.2456512,234.4149323,50.1402664,235.628006,48.5023232,235.3824463z M47.4867134,230.9507751
		c0.6311493-0.8407898,1.5324326,0.1222534,3.1355896,0.3503571
		C50.0270729,233.3196411,48.607708,231.1082764,47.4867134,230.9507751z M47.8544006,228.2619629
		c1.0078163,0.4641266,2.2421265,0.6652527,3.153511,1.2438354
		C50.5437927,231.3011322,47.8196297,229.7949829,47.8544006,228.2619629z M49.3868446,220.1693726
		c0.0359306,0.5953522,0.0359306,1.1821899,0.0448837,1.786499
		C47.7410965,222.3499603,47.6704941,219.8622894,49.3868446,220.1693726z M51.8655701,228.5859222
		c-1.2432671,0.4120178-1.1557922-0.5868378-2.2421265-0.3766479c0.1053848-0.5780182,1.3317757-0.6307068,1.357605-0.0437469
		c1.1738129,0.1048126-0.5078697-2.4870911,1.2881622-1.8302155
		C52.6806374,227.5876465,51.6649017,227.5175018,51.8655701,228.5859222z M61.6313477,196.1009979
		c0.4640121,0.4378357,0.9113808,0.8755646,1.3922729,1.2959442c-1.1468353,2.4092712-3.6075363,3.5650635-3.8363304,6.8229218
		c4.8184319,0.1928711,2.4966316-6.3318024,6.9551735-6.4719696c-0.2017059,7.3744049-7.742115,11.4820099-12.9450035,15.5986786
		c-1.6031609-0.4293518-2.9518089-1.1563721-4.0729294-2.1110382
		C54.2478638,207.0931549,58.0315018,201.680069,61.6313477,196.1009979z M58.5045853,196.1884613
		c-0.1837921,2.732666-1.086338,4.7556458-2.9518089,5.9036255c0.6401138-0.8588104,0.5964928-2.338562,1.717495-2.7332306
		c-0.0358162-0.428772-0.5605583-0.3239594-0.9203377-0.4203949
		C57.121151,198.0628967,56.7882347,196.1795197,58.5045853,196.1884613z M56.6738968,194.4631653
		c-1.4618416,0.4466705-4.2555733-1.0336456-5.7892799,1.0683136c-1.3049126-0.5952301-1.3049126-2.6098328-1.9092102-3.9674377
		C51.1043396,193.000061,55.2210083,192.3173523,56.6738968,194.4631653z M46.321846,192.0898285
		c4.8610191,2.478714,2.4439392,8.329071,2.5841064,11.5436554c1.943882-2.2073517,2.426033-5.7981262,4.2208023-8.171463
		c0.7892265,0.3760834,1.3408432,1.0414581,2.2780457,1.2695618c-0.4035149,0.805542-1.0425987,1.340271-1.2971039,2.2774811
		c0.7365456,1.4534607,0.5078659-1.5067291,1.7870636-0.946167c-0.4293442,5.3688812-5.9114227,6.7000885-8.1536636,11.420929
		c-1.3049126-0.017334-2.9259796,0.3324585-3.5829697-0.3412933
		C45.2792473,203.8432159,45.3498459,197.5371246,46.321846,192.0898285z M38.73666,222.2714386
		c1.1211205,1.409729,1.5335922,3.5907898,2.3912506,5.298172c0.3419838-2.4169617-2.680542-7.5319061-1.6815681-10.684967
		c0.8586922,1.2348938,1.3138695,2.9080811,1.9450302,4.4142303c0.6389771-1.6204987-0.9372025-4.8435669-1.1211205-7.1204834
		c1.050518,0.1137695,1.050518,1.357605,1.8296547,1.7342682c0.1927452-1.585144-0.4462204-2.2858734-1.4182167-2.6366882
		c0.2623138-1.2086029,1.2343102-1.7427521,1.7163467-2.7320862c-0.0616455,1.4540253,1.8308029,1.5324402,1.4631042,4.4226074
		c0.9809532,0.0437317,0.156929-1.5942078,0.3934135-2.2421265c1.1390305,1.0157318,1.8049736,3.7309418,1.9619064,5.7455292
		c0.6311607,8.4170227-0.7085381,20.6614075-8.2937202,21.7119293c-1.3486519-1.6463318-1.8744278-4.1687927-2.0145836-7.0897217
		c0.998848,2.0146027,2.0145836,4.0066986,2.8734016,6.1614532c0.4102783-2.2769012-2.3476257-5.1715393-2.0505371-8.8722992
		c0.9204521,1.6379395,1.6737556,3.4552002,2.3823013,5.2814178c0.9731369-1.3441772-1.4181137-3.0694885-1.0504036-5.3250427
		c0.6737404,0.8407898,1.0941315,1.9136963,1.4540253,3.0873871c0.3856087-1.9663849-1.6379433-5.3296204-1.603157-8.4389343
		c1.2354584,0.9898987,1.3138657,3.2057343,1.9181747,4.8526306
		C40.7949944,227.7624817,38.4743462,225.1526489,38.73666,222.2714386z M35.0763168,219.705246
		c-0.4472542,0-0.3766518-0.534729-0.4820366-0.8851013c1.6031685-8.9686127,1.2701263-19.5661011,2.4349861-29.6473541
		c-0.236599-0.3935242-0.3060417-0.8666077,0.2096214-1.7254181c-0.0785217,0.569519-0.1479759,1.147995-0.2096214,1.7254181
		c0.3329163,0.5257874,1.0336533,0.9024353,1.1917191,1.8217468
		C35.8207855,200.1212311,37.8263092,213.8106995,35.0763168,219.705246z M38.8162155,165.4900208
		c-0.0437355,4.9226685-0.7532959-1.1468353-0.5605583-3.117691c-0.5604477-3.905899-1.6815681-11.973114,0-15.1961975
		C38.6234703,155.3392181,39.1492462,157.4148865,38.8162155,165.4900208z M40.1996498,137.7265167
		c0.3329163-1.9181671,0.1928635-2.6625214,1.6815681-4.0728149
		C42.2926521,134.2141418,41.7680244,137.5863495,40.1996498,137.7265167z M43.3700447,183.6817627
		c-1.7858124,0.4898529-1.8654709-2.6099396-0.0694618-2.2332764
		C42.5125008,182.3240509,43.5976791,182.2540131,43.3700447,183.6817627z M46.5236588,184.4871826
		c-1.4372749-0.2191467-2.0672874,0.3593292-3.1098862,0.5342865c0.5257759-1.7254333,0.4473686-3.0740814,0.7802849-4.0460663
		c0.9014053-0.0268707,1.769043-0.0527039,2.6614838-0.0789948
		C46.2949829,182.8408661,45.2097931,182.5954285,46.5236588,184.4871826z M58.5393677,181.8857422
		c-1.7421799,0.7359772-5.5178947-0.3060455-8.0661888-0.2096252
		C51.1132965,180.3531952,56.8230171,181.2641144,58.5393677,181.8857422z M58.3297462,160.8745575
		c-1.2085953,3.7836304-5.868824,4.3094177-8.2680016,6.9540253c2.0931168,0.5168152,4.5627708-2.3296051,6.1311455-3.7567749
		c0.7444687,3.7483978-5.5358047,4.6244202-7.8216667,6.9450684c2.0672874,0.9282532,4.1602898-1.8565216,5.7286644-2.8643341
		c-0.0089531,3.1884003-5.8250961,4.6681519-8.2948647,6.9629669c2.4608154,1.147995,3.8106155-2.4870911,6.1659317-2.8721313
		c-1.6815681,3.459671-7.0683517,3.459671-9.1961479,6.5425873c-2.251194-14.8020935,5.903511-27.0987244,18.29599-30.9613342
		c0.4293442,2.9253998-1.3655357,7.3391724-3.7309456,9.0560913c1.2869949-0.0701447,1.6121025-1.0684204,2.1725464-1.8570862
		c1.0853043,2.7859192-3.7230225,3.7398987-4.7387581,5.9652557c1.3049126,0.7791443,2.7242775-2.0414581,3.9238052-2.8026886
		c0.4551773,2.75-4.6424408,3.9932709-6.5336304,6.0078583C54.3184662,164.9036255,56.0258598,161.4614105,58.3297462,160.8745575z
		 M64.0752869,173.2243347c0.3329163-2.312851,3.6961594-5.4832306,6.0257645-7.3397522
		C68.8577805,169.0202942,65.9497223,170.6581268,64.0752869,173.2243347z M60.9743652,174.2136536
		c0.7892265-2.5835266,5.4651947-5.2639618,6.8845596-8.705719c-2.7769699,3.1530457-5.4305344,6.4635925-9.1266937,8.7667999
		c1.1647415-3.0829163,2.5750504-4.063858,2.4618492-7.6720886c1.2343102,0.4905396,0.0785217,2.3296051,0.0874748,3.12677
		c3.1524734-0.4905396-0.1928596-5.6665649,2.460701-7.2259827c-0.2275276,1.121109-0.411438,3.2320251-0.2623138,5.8245239
		c1.3128357-1.5061646,0.8576584-4.7034149,1.1211243-7.190506c1.5672226,0.1837921,0.7443466,2.8991089,1.0414505,4.440506
		c0.7970428-1.1126251,0.8586884-2.9427338,0.7443466-4.9400024c1.0863419-0.2364807,3.0661469-0.5341492,2.1726761-1.8565216
		c0.6748962-0.2018127,3.2230835-0.534729,3.9584732-1.9092102
		C72.7019196,164.6928558,65.3532181,169.2125854,60.9743652,174.2136536z"/>
</g>
</svg>
