<?xml version="1.0" encoding="utf-8"?>
<!-- Generator: Adobe Illustrator 27.2.0, SVG Export Plug-In . SVG Version: 6.00 Build 0)  -->
<svg version="1.1" id="lavender" xmlns="http://www.w3.org/2000/svg" xmlns:xlink="http://www.w3.org/1999/xlink" x="0px" y="0px"
	 viewBox="0 0 88.543129 700" enable-background="new 0 0 88.543129 700" xml:space="preserve">
<g id="outline">
	<path d="M81.8683701,328.5322876c-0.5728149-2.6487427-0.6539841-5.7991638-4.1619034-5.459137
		c-2.3994446,0.2147827-1.1906586,3.9741516-4.0817566,3.6876831c-0.7691116-0.6088257-0.7329712-2.0227966-1.3779526-2.7297974
		c-4.1619034-0.0361328-8.1624985-2.229248-9.5855942,2.3447266c-2.4434509,7.9117126,7.7599869,23.5478516,0.1973267,28.3191833
		c-0.3133659,4.2329102-1.6924706,7.4013672-3.1064415,10.533783c-0.4566612-6.3369141-0.034977-11.2239075-1.9416428-16.4327393
		c-7.0620117-0.7521362-6.1126671,6.372467-9.0849419,9.6560364c-1.0373268-13.3882751-1.3418045-30.1249084-2.1480904-45.1973572
		c-0.3483543-6.8110962-1.40485-13.0584106,1.7184525-16.9158325c1.6112976,0.1431885,5.2365227,1.6557617,6.8738022,1.7814941
		c2.5246201,0.1877441,6.3278999,1.0644836,6.3550224-2.3272705c0.3393478-1.2888184-4.0187149-1.7364807-5.0482025-3.168457
		c4.0005989-0.2503357,7.3303604,0.7966003,10.9645767-0.0711365c-3.7864075-2.9181213-10.4369049-2.9091187-13.7474899-6.3008728
		c8.135479-7.0084229,14.0508194-18.4110718,14.8750076-31.1560974c-5.8723946-0.9302979-8.6643143,3.5620728-10.9554672,4.6365662
		c0.3495102-10.5433655,12.2973785-9.6396332,13.1114044-19.7348785c-4.6715622-0.7430115-0.9211731-7.2677612-4.169754-9.5590363
		c-3.6161003,0.0715942-6.2298622,1.1276245-9.1288147,1.8971863c-0.8772964-2.0229187-1.9879341-3.8123779-3.2407188-5.4597168
		c3.6600838-0.0175476,6.5603065-0.80513,7.7509727-3.262085c-1.0734673-1.9552612-3.1052895-2.9576111-4.5915413-4.52388
		c8.1006203-2.3543091,15.8954659-6.5697784,17.2565575-14.7408295c-2.1582565-1.2978058-4.6817093,0.4025116-6.8647995,0.5096588
		c5.6108627-6.3544464,4.5463943-16.1457977-3.7412605-13.6757812c-5.4958572,1.6287231-8.1726494,9.8725128-11.3400688,11.5006714
		c0.8851471-4.8688812,1.8346062-9.6836243,2.1751099-15.0891876c3.9735909-3.3568726,10.766098-3.9115753,11.7955704-10.1318512
		c-1.3248215-0.8057098-3.3917503-0.8592834-5.0390778-1.333374c1.2268066-2.4434509,0.4566612-7.9928741,0.3856506-10.9645844
		c-0.6089554-1.6642914-3.518074-1.0198822-5.039196-1.7894592c3.5169182-3.9915924,12.512722-13.2998352,13.5501671-21.1048584
		c0.8861847-6.5151672-3.6962357-7.2311554-8.2787743-7.2492828c-1.4139709,1.3069305-3.0252724,4.8508759-4.5102539,4.5915375
		c-0.8062859-7.7689972,10.1572609-12.4405518,7.6066628-20.6030502c-0.8773041-2.7930756-3.8575478-1.8087463-5.0470581-4.9856262
		c7.4013672-4.0361557,13.1745682-9.6751862,14.4713364-19.7438812c-2.7467728-2.1661072-8.7432785,0.0715866-10.497757,0.0715866
		c0.4916458-4.0993195,2.7827988-8.6637268,1.2526703-13.2552643c-3.6161041-2.2467041-6.3718834,2.3898697-8.1985245,1.888176
		c0.7171478-2.873085,0.5107079-5.9069061-2.3262405-6.371994c-1.3880043-0.1341705-1.8796501,2.9350967-2.7208061,1.8436127
		c-0.1172981-2.6492081,0.3844948-5.9163742-0.9855881-7.3033295c-4.4381027-0.7521286-5.1631012,4.5554047-7.2677765,4.6185608
		c0.2695007-8.3598251,1.2623672-15.9946518,2.570343-23.3065262c1.2166443-0.7785721,2.8989563-1.0830498,4.1167526-1.8616257
		c1.4941063-0.9127426-1.1456337-1.9422188-0.0270195-2.2827225c10.7221069-2.255127,23.5561752-19.743885,19.421402-29.8211212
		c-7.4194946-1.9608116-9.3792648,5.1907997-14.5615196,6.9538193c0.5998344-7.3213425,1.7713318-20.6121731-4.7167053-21.4353161
		c-3.096283-0.403085-5.0482025,2.9176602-7.7154198,4.6179833C41.8872261,5.2088127,42.3788719,0.1341692,37.9847717,0
		c-2.6307297,2.2551277-2.5505981,5.7990646-3.6162148,8.6991739c-1.2707977-2.4163151-3.6691017-5.5217199-7.311182-4.054172
		c-1.74547,5.638454-1.2809486,8.2522125-0.3766441,13.7029228c-1.3328018,0.0981445-3.6600933,0.1877441-5.0030556,1.4049644
		c-3.6251087,10.722105,3.9385929,19.5645695,8.4038162,26.4292507c-2.291151,0.3224907-4.3850918,0.8147163-4.5463848,3.2317238
		c3.9386978,1.8254852,10.7052345,3.6065178,14.1680031,3.096283c0.0811691,6.578331-0.7159958,12.2973785-1.2256432,18.2763367
		c-1.5842896-0.4030838-0.9494705-3.0252762-3.231617-2.7207947c-4.5463943,0.3219147-3.5970497,8.0728989-4.4742298,10.5433655
		c-1.2978153-2.8820953-6.1848297-5.3255463-8.7094498-1.7634811c-0.0890217,8.5385666,2.7930737,16.4862976,4.2780571,21.891861
		c-2.9802418-2.0047989-14.2029972-7.2046051-15.536953-1.261673c-0.7610226,3.2665863,5.8803616,9.3887253,8.7714558,11.8141632
		c4.9670296,4.1793289,9.82691,7.0975723,13.2998352,9.0397873c-0.4927979,1.154068-3.4820461,1.3243713-2.2822609,2.7563553
		c2.0487938,0.6624222,4.0097198-2.1119461,6.3990173-1.4139709c0.1973267,3.6342316,1.9507637,8.1264725,0.9934502,11.4110794
		c-11.7155552-4.9218826-12.2523479,11.7877197-7.1781654,17.8648224
		c-4.6175213-5.0837708-12.6728687-10.257019-8.3587856-19.1266174c-1.7996235-2.6311874-4.5114002-4.3140793-7.3484764-5.8892365
		c-3.1504354,1.8525009-11.2147884,5.9614105-11.8135853,9.6756592c-1.1997864,7.6343536,9.844924,9.9255066,14.731823,14.0513916
		c-3.9025688,0.2327728-8.1004934,0.1787262-10.0422421,2.3537292c2.7829041,7.9122925,9.9610806,11.3852081,17.4617271,14.4996185
		c-3.7954063,4.2599335,3.8844414,6.1667023,1.8976517,10.0331421c-2.9361343-2.3724518-1.7544746-6.3008728-5.5408859-7.2677765
		c-4.1167545-1.0560303-9.3521242,2.5776215-10.4627724,6.9182587c-4.080729,0.3495178-3.964572,4.8423309-7.2492924,5.9879608
		c-0.77002,2.451889,1.63728,3.167984,0.4916458,4.5735321C2.5517547,184.5789185,1.0564957,184.9008331,0,185.6974182
		c1.4409908,9.27211,13.3538742,7.9122925,16.1108093,15.868454c-2.5596066-1.181778-6.6853666-1.1276245-8.6733112,0.5192413
		c0.2694931,8.9682007,7.6088567,14.6331024,15.65415,17.2468567c-0.9573135,1.0204773-3.7762508,0.2237701-4.1167545,1.8526306
		c2.6667671,4.0637512,11.8317127,1.5080719,15.5729771,4.4572449c-0.0349846,3.132431,1.4591179,3.8845673,1.4139709,6.3900146
		c2.3362999-0.1251678,0.3856506-4.045166,2.7117882-5.0476227c0.841156,10.6776428,1.2629471,19.5111084,0.1973305,28.7746735
		c-0.8861885-2.451889-3.6691017-4.6360016-4.6275597-9.1023712c-1.6023026-7.365921,0.072155-20.370285-5.1812248-20.5134583
		c-2.7219486-0.0895996-2.7569237,2.7563629-2.6859245,5.0296173c-4.6444244,0.7520142-10.6859627-1.8972015-10.497756,4.1979218
		c0.1161566,3.0963898,5.79918,5.5222931,2.3622789,9.1107941c1.1096077,2.86409,5.1553516,2.7479401,6.4171429,5.4417114
		c-1.4139729-0.5456848-2.2552433-1.682312-4.5735302-1.3327942c-2.4524555,2.4874268-0.9482956,8.0013123,0.0992985,10.9544067
		c-2.0499477-0.3934937-3.0343933-1.8435059-5.0572071-2.2461243
		c-11.3852043,10.8473816,10.9904423,22.6705627,14.3821964,30.0364685
		c-1.4049664,0.456665-4.6534309-0.9393005-4.5734138,0.9488831c0.9133205,3.9290161,5.1192131,1.7810364,7.7870102,3.5975037
		c-4.0907764,1.4055481-8.126358,2.8821106-9.057806,7.3754883c5.8093395,4.2960815,10.6600971-5.084198,15.474947-4.6811218
		c1.4049683,14.9465942,1.6021805,23.896759,1.6653366,39.2640076c-1.2448158-3.6156616-4.1088905-6.0410767-7.3573647-5.4237061
		c-2.1390762,0.4024963-2.443449,2.9982605-4.5385437,4.6005554c-3.0241184,2.2912598-6.0495071,1.4229736-7.7498188,3.2485657
		c1.4759655,9.1293945,10.3015728,14.6974182,12.5115528,24.5772095c-3.3917542-1.772583-3.132412-7.2503357-9.1649551-6.3280029
		c-3.8844395,4.8598938,0.6179638,10.6060791,2.8290997,14.5976562
		c-21.8840103-4.5553894-3.4367867,18.0074158,4.2690506,19.6018677c-5.2985172,0.0788574-9.7647915,0.9651489-13.2468395,2.8369446
		c3.7413807,2.1829529,8.3328171,3.5090637,14.6337929,3.0872803c-0.7251129,2.0049133-2.5957355,2.8821106-2.2191029,5.9603577
		c3.7412663-1.4589844,5.3875523-4.9500427,9.0837841-6.4609985c1.727459,0.3834534,0.9583511,3.3287048,2.7569351,3.6330566
		c0.9843292,1.5222778,1.7183342-1.7724915,2.291153-0.4735107c5.9519386,26.4190979,3.8219719,54.4078979,5.6125908,82.1621094
		c3.096283,48.6165771,2.6937752,96.1056519,1.4499969,140.6699219c-0.761013,26.8588867-1.1816597,51.3543701,0.5368004,76.2625732
		c0.5728073,0.1893921,0.9482956,0.5908813,0.9133224,1.3688354c1.8074608,1.0667725,4.6715469,1.0847778,6.415863,2.2394409
		c-0.7238464-79.3161621-0.114994-150.8565063-0.6528358-220.148407c-0.1521797-20.7000427-5.5397301-50.44104-5.4947014-69.3709106
		c1.789463-1.7364502,2.9892502-6.9818726,5.3875504-10.5427856c1.6372795,0.3563232,0.5728188,3.4187622,2.7569351,3.1752625
		c0.9844475-2.5596008,1.3689423-5.8792114,1.3249512-8.2336121c2.7107506-2.0138245,8.2154961-1.2606506,9.0927925-5.0830994
		c-0.80513-1.4861145-3.5090714-1.0464478-5.0482025-1.7905884c3.1324234-7.7870178,14.3743439-18.1765747,8.9417648-28.3811951
		c-3.5530624-0.633667-4.35923,3.8495789-5.9164963,3.6962585c1.5222931-2.327301,2.6317749-6.3008728,2.7028961-8.6981506
		c0.9573135-1.9169312,2.7569351-3.0174255,3.1324234-5.5048523c4.1617889-5.9609375,15.5018539-11.3485107,11.7256012-20.6296082
		C85.305275,329.0785522,84.1596527,329.6069336,81.8683701,328.5322876z M33.9400673,73.5609665
		c2.7919197,2.255127,2.4152756,7.9031677,1.9056206,12.3153915C31.5316048,86.2168655,33.4473839,77.4634171,33.9400673,73.5609665
		z M34.9775124,94.5671082c1.682312,0.9308701,0,2.3358307-0.4296417,3.6516647
		C33.3672523,97.457634,35.4341736,96.0888062,34.9775124,94.5671082z M27.1463966,82.7439346
		c-2.0679607-1.7004395-1.1906643-3.3833237-1.4139729-5.925499c-0.6889725,0.3940811-0.6539879,1.4681244-0.9133186,2.2912674
		c-1.0024586-0.1871643-0.3483562-2.4254303-0.0090065-2.747345c6.8026772,1.2443542,8.0644665,10.5879288,4.6715679,15.958046
		c-1.3869629-2.1569824,0.8332939-4.6269836,0.8681641-6.8556747c-1.2616749,1.4681244-1.8344917,3.6162186-2.7106323,5.4952774
		c-1.2629471-2.6401978,1.3057823-5.3611069,1.3327999-8.2250748c-1.0294666,1.3958435-1.8436146,3.0162659-2.2461205,5.0390778
		C25.0434513,87.2637787,26.9220505,84.2210693,27.1463966,82.7439346z M12.6288757,97.4667511
		c1.4951439,0.1611862,1.1185102,2.228569,1.3869543,3.6431198C12.8262043,100.6352005,12.5217257,99.2658005,12.6288757,97.4667511
		z M30.1176319,115.1521454c-6.3009853-3.4277802-10.9905567-8.4844131-16.0747833-13.1299896
		c0.7611389-0.4470749,1.1456337-1.2707977,0.8772955-2.7473526c1.0294771,0.6534119,0.6539879,2.7117844,1.386838,3.642662
		c1.3249493-1.3695221-0.1961727-3.7593994-0.0348701-5.4778442c1.557148,1.4861374,1.3959599,4.7347183,2.3261375,6.8292313
		c1.2899647-1.9242096-0.1330051-5.03862-0.5006523-6.8466721c2.1299648,1.0649261,1.6824265,4.7341461,2.7919197,6.8291245
		c1.1016426-1.4499969,0.144331-4.7081604-0.5006409-5.9253845c1.8706226-1.2082138,2.8550682,6.2472992,3.275589,9.5674667
		c1.3068218-1.7894669,0.2334671-5.4681473-0.0710106-8.2245026c2.8640842,1.5571442,1.8164787,7.0698624,2.8279438,10.4802017
		c1.4139729-2.3087006-0.4656658-7.3567886,0.3754902-9.1293869c2.4524555,2.2647095,1.7634811,7.7329712,1.9157887,12.3153915
		c1.566143-2.505455,0.4916344-9.4513092,1.8254852-2.7563629
		C30.0544739,111.7869492,30.0104923,113.3892365,30.1176319,115.1521454z M32.6501045,89.098381
		c-1.1895103,0.9307556-1.1546402,3.0788498-2.2551174,4.1263428c-0.4645214-1.1010666,1.0656071-4.0817719,1.3339462-5.9433975
		c0.4205189,1.2798004,1.6023045,1.7724838,2.300272,2.7207947c-0.8592834,2.4614639-2.1119518,4.57341-3.141428,6.8736877
		C29.9924698,94.6206818,32.4179153,91.7475891,32.6501045,89.098381z M31.039959,116.5126572
		c0.0361404-2.9712372,0.2323132-3.2847214,0.4025078-6.3990173C31.9972706,111.1251068,32.722271,116.217186,31.039959,116.5126572
		z M31.3794231,100.0713882c0.1882057-3.5980911,2.0228138-5.5578613,2.6768017-8.6992874
		C35.890831,94.2361832,33.3672523,98.2549133,31.3794231,100.0713882z M34.6020241,105.9871902
		c-1.8075905-0.5727005,1.3598175-3.5173798-0.9314499-3.1948929c0.993454-1.8977661,1.6113014-4.1528931,2.2562943-6.40802
		C38.7909431,99.1225052,35.2368431,102.7115936,34.6020241,105.9871902z M57.8814163,361.119812
		c-0.295475,3.337738-2.0229301,5.2545471-3.5890846,7.3383179c-0.8141365-0.1059875-1.0554543-0.7779846-0.948307-1.8244324
		c0.9133224-0.7621765,0.6088448,0.0361328,1.83461-0.0090027C54.4806557,364.5747375,56.5835991,362.578949,57.8814163,361.119812z
		 M55.2146568,369.8202515c-0.9573097-1.7634583,2.2732582-2.730957,2.2461243-5.0402222
		C58.4270973,366.3743591,57.0131264,369.4797668,55.2146568,369.8202515z M50.641243,370.3119202
		c0.7520294,0.7689819,1.4049683,1.6552734,1.4049683,3.1864624c-0.5367928-0.1533508-1.1817627-0.7960205-0.4656677-0.9133301
		C50.9805946,371.9040527,49.7098083,371.2252197,50.641243,370.3119202z M51.5534096,370.3029175
		c0.3314972-1.9959106-2.3002739-2.4874573-0.9393005-4.0999146c0.5999527,0.1533508,0.7341309,0.7983093,1.3869553,0.8953247
		c-0.3033257,1.5221558-0.9121666,2.0047913,0.9223251,1.3688049c-0.0800171,0.5299988,0.1071625,0.8164673,0.4567757,0.9043274
		C53.2718735,370.1765747,52.6100197,370.420105,51.5534096,370.3029175z M54.2923317,370.28479
		c0.8423119,0.7781067-0.1161575,1.7996216-1.3598175,1.8357544
		C52.8073502,370.9297485,53.1027069,370.1585693,54.2923317,370.28479z M53.3350182,362.5247803
		c1.2268066,0.0271301,2.1931267,1.0306396,1.3778458,1.817749
		C53.5052147,364.4935608,53.2098579,363.7245789,53.3350182,362.5247803z M56.9150963,352.9133301
		c1.011467,0.7239685-0.1341667,3.1594543-1.3519669,3.2045898
		C55.7874756,354.8279419,56.664772,354.1649475,56.9150963,352.9133301z M56.0558128,360.682312
		c-1.1456337-2.5956116,1.100605-3.089447,1.3339577-5.4957275c0.9573097,2.3182983-0.2333527,6.4338989-2.2472763,7.3291931
		c-0.1161575-1.7184448-1.4579659-2.2009583-1.8436127-3.6420898
		C54.6768265,358.9977112,54.5968094,360.6282959,56.0558128,360.682312z M54.6058159,350.6396179
		c0.3405037,1.2430725-1.8346062,3.9290161-3.1414299,5.0476074
		C52.2345314,353.7364807,53.3350182,352.0901794,54.6058159,350.6396179z M53.3350182,362.0692749
		c-1.7544746-0.2322998-2.0229263-1.9349365-2.3272896-3.6352539
		C52.5479126,359.8141479,52.1172333,360.3688354,53.3350182,362.0692749z M51.9660797,364.3605347
		c1.1806183,0.0450439,1.7894592,0.6517029,1.8436127,1.8153381c-0.3934898,0.207489-0.8151741,0.4127808-0.9043121,0.9224548
		C52.305542,366.3743591,50.9365997,365.4068909,51.9660797,364.3605347
		c-1.8976517,0.2323303-1.2268066-2.1311035-1.8356476-3.1775513
		C51.2140617,361.7557983,52.0010643,362.6600952,51.9660797,364.3605347z M42.4961815,380.8728333
		c0.2683411-1.0916138,0.6088409-2.1289368,1.7984695-2.2912903c-0.3134842,1.6913452-0.4296341,3.1324463,0.4927979,4.5554199
		c-0.6541023,1.5131531-1.2889252-0.7689819-1.8267555-0.8953247
		C44.3306732,381.0080261,43.7128258,381.2223206,42.4961815,380.8728333z M42.9258232,378.581543
		c-0.697979-0.1781311-0.8862915-0.4826355-0.7341194-0.8862915c-0.9584656,1.9416504,0.841156,6.3370056,1.7184525,8.1997986
		c-2.7209091,0.1420288-2.7569351-6.4091797-3.7412682-9.568634c-0.7701416,1.7183533,0.6798553,5.1192322,0.984333,7.2931824
		c-2.362278-1.2877808-0.4928017-6.8646851-3.2485809-7.7397766c2.1480942-0.279541-0.3044777-4.2892761-0.0631599-6.848877
		c2.4795914,0.1713562,4.1179085-0.4916382,5.0030556-1.8604736c0.9134369,2.1131287-1.493988,4.8688965-1.7623253,7.3201904
		c1.4590034-1.5741272,2.5956306-3.4797363,3.168457-5.9603577c0.9578781,2.6317749-1.8266411,5.4687195-2.7039452,7.7870178
		c2.0860863,0.0631409,3.2767525-4.627594,4.5119858-6.8917236
		C46.3891678,372.0212402,44.0973206,375.9588013,42.9258232,378.581543z M46.5425034,373.0766907
		c1.2346573,1.5492859-1.1366272,3.4007568-1.3339577,5.0402527
		C44.062336,376.639801,46.6315346,374.9936218,46.5425034,373.0766907z M46.8818512,352.9833069
		c-0.948307,0.7441711-1.1456337,2.2032776-1.8254852,3.2045898c-0.6816978,1.7724915,1.5481415-8.2240601-1.4145508-5.9243469
		c0.036026-16.9875183-2.5247345-35.5767822-1.7545891-53.8796692c3.4644966,1.7004395,0.8772964,5.4597168,0.9934502,8.6722717
		C43.3733635,318.4725952,45.7723579,337.9836121,46.8818512,352.9833069z M53.6845284,284.8826294
		c-0.6900101,0.3940735-1.4139709,0.4476624-2.7388039,0.4746704
		C53.7195168,282.0816956,58.4542313,282.1707153,53.6845284,284.8826294z M44.9126129,271.6989441
		c1.4855614,1.2623596,1.7899246,3.7142334,2.3267174,5.9253845c1.0216255-1.8255005-0.7329674-4.7436218-0.96632-6.8465576
		c0.7701454,0.7779846,1.4151268,1.6461792,1.4151268,3.1858826c1.0283241-2.282135-1.1366272-5.2984009-0.9855995-8.2160645
		c0.5289383,0.2503357,1.4411049,4.045166,1.8617401,5.9249268c0.9313316-3.249176-1.3328018-7.2227478-1.4489479-10.9460144
		c1.4489479,1.7720337,1.4939804,4.931488,2.7917938,6.8285522c1.011467-2.8729858-2.255127-7.2761841-1.4139709-10.0421448
		c1.7894592,0.7791748,1.4501114,3.7322693,2.2912674,5.46875c0.993454-2.3893127-1.2888107-5.4327087-0.9584656-8.6721649
		c1.1197701,1.1546326,1.0656166,3.516922,2.3002739,4.5554047c0.8062859-0.697998-0.5366669-3.1059875-0.9393005-4.1083374
		c5.925499,2.9085388,3.9917068,16.1192322,0.5999489,19.6367493c0.143177,2.5776062-2.2292633,8.0638733-5.8893547,6.8912354
		C46.9179916,278.456604,44.2506676,275.6911011,44.9126129,271.6989441z M42.5322075,256.1885376
		c-2.291153-0.8501434,0.912281-6.3544312-0.9583511-5.0204773c-0.9044304-9.8725281-0.5277863-16.7371979-0.1781616-25.1145782
		c3.5789337,1.5751648,1.6371651,9.907959,1.475975,13.6939087C42.648365,245.385849,43.489521,251.5344238,42.5322075,256.1885376z
		 M40.4732513,224.2233734c0-0.4386444,0.5638123-0.3495026,0.9133224-0.4566498
		c0.1872826-2.2686462-1.2898483-7.6743164,0.3846092-10.5028381c1.9416428,2.6221771,1.8706322,7.2853088,3.7147102,10.0197296
		c1.8616257-1.0024567,3.1685715,0.5636902,3.6872253,2.2512054
		C46.4703369,223.6951294,44.3306732,225.1761932,40.4732513,224.2233734z M39.130291,163.5010834
		c1.6113014,0.6708527,1.9519196,4.8327484,0.5018158,5.9338074
		C38.5574722,168.3609619,39.4437752,165.3355713,39.130291,163.5010834z M40.0876045,106.3993912
		c1.6022911,0.6798553,2.2472763,2.3357239,3.2497444,3.6330795c1.1004753-0.0620041,0.0709991-1.5121155-0.5018196-1.3689423
		c1.1456375-1.1275024,1.9969521,1.9507675,4.5831146,0.8862991c-0.912281,2.8815231-3.1679764,4.4392471-4.9586029,6.4260406
		c-0.0811691-1.1275101-0.2321968-1.9692459-1.8526192-1.8170624
		C41.5828629,112.0732956,40.2049141,108.8602829,40.0876045,106.3993912z M41.8421936,94.9697266
		c-1.4501114-0.8321457-1.3689423-3.2131348-1.4139709-5.4682617C41.1170807,90.969017,42.648365,93.4660416,41.8421936,94.9697266z
		 M42.2988548,94.9697266c0.6889725,0.3850708,0.6618385,1.4590073,0.9223251,2.2737198
		c-1.2268028,0.0090027-0.9843292,1.4495316-2.2562828,1.3869553
		C41.4486923,97.4667511,42.1917038,96.5274506,42.2988548,94.9697266z M48.5642776,143.3365631
		c1.0294762,0.0535736,0.2333641,1.9326324,0.5016899,2.7299194c1.3418083-2.2022552,0.9133224-7.3123322,0.841156-9.5856018
		c2.0939407,0.0175629,3.0963974,1.1366272,5.4868507,0.8677216c-2.1221008,4.0721893-2.3544273,10.820816-1.7184525,15.0807495
		c-1.0204697-0.0445709-0.2243462-1.9326324-0.4836769-2.7297974c-1.0384827,4.6185608-0.3484726,9.2815704-2.63974,13.26474
		c-2.167141,0.7515564-3.7773933,2.0133362-4.081768,4.5909576c-2.3639984-1.906189-3.3653145-5.1817932-3.276165-9.5674591
		c1.4319763,1.7900391,1.7804565,4.6360016,2.7845192,6.8291168c0.4104767-2.0944061-1.9613876-5.334549-1.8813705-8.6643066
		c1.1912422,1.3875275,1.1112251,4.0818939,2.3278694,5.4688416c0.420639-1.5752716-2.560173-5.8623352-0.9663162-8.6722717
		c1.1184998,1.0108948,1.2798042,2.9712372,1.8436127,4.5554047c0.7701454-2.0048065-1.7545891-4.6545868-1.4049644-7.7509918
		c1.4499969,0.8231506,1.3778305,3.1685638,1.8526192,5.003067c1.1636467-2.2015533-1.7454681-5.8532257-0.5186653-8.2160797
		c0.9481926,0.8857269,1.3778343,2.2822571,1.3958473,4.1083221
		C50.2116013,147.9811096,47.3836594,146.2360992,48.5642776,143.3365631z M56.4042854,153.790329
		c0.4126663,1.450119-0.6968269,1.4139709-0.8851471,2.2822571
		C54.4896584,155.7501068,55.2856674,153.4678345,56.4042854,153.790329z M45.5840378,173.0415344
		c2.4885941,4.8423309,3.249733,12.7810516,0.1251602,17.3545837
		C44.5901337,184.0415497,44.9836235,179.8170776,45.5840378,173.0415344z M43.2561684,167.1256104
		c-0.0619965-0.8236084,0.5728149-0.9753265,0.4566574-1.8344879c0.9313354,0.1251678,0.4296417,1.7003174,1.3795738,1.8170624
		C44.7874489,168.4771271,44.1063385,166.6785431,43.2561684,167.1256104z M43.3824844,120.0746078
		c1.2256508,0,2.433876-0.0090103,3.6606712-0.018013c-0.0090065,10.1054077,0.4916458,16.4152832-1.1907806,24.6669159
		C45.4588737,137.849823,43.3373489,130.6451111,43.3824844,120.0746078z M43.3733635,117.3448029
		c0.5728149-0.8411484,2.4790115,0.8237228,4.1084404,0.4205246
		C46.7747116,119.7882538,44.0173035,118.1949692,43.3733635,117.3448029z M42.523201,190.4231415
		c-2.5866241-0.8231506-1.3339539-10.2034454-1.0124931-10.9550018
		C43.5245056,179.6738892,41.9943771,187.2185516,42.523201,190.4231415z M46.4341965,227.3783112
		c2.2461243-0.1251526,3.4729271,0.7871246,5.9255104,0.4116364c-2.604763,6.6853638,1.9777718,15.7793121-0.7341309,22.8582916
		c-4.1437721,1.3519745-3.937439,6.9994354-6.3370132,10.0872955
		C44.3746681,249.6102142,44.4108047,240.3020935,46.4341965,227.3783112z M63.5734444,261.0574341
		c-0.5987968,0.7875671-0.930294,1.8080444-2.2822609,1.8532104
		C61.3994865,261.6218262,62.0883484,260.949707,63.5734444,261.0574341z M59.5287399,269.7753296
		c0.823143,0.7689819-0.125164,1.7894592-1.3699799,1.8345947C58.0336075,270.4101257,58.311058,269.6411438,59.5287399,269.7753296
		z M59.5637245,275.7086792c-0.1510239-1.0644836-0.9922981-1.9597778,0.4566612-2.2822876
		c-2.5944748,0.9043274-0.5006523-3.8754272,0.4206467-1.3779297c1.5221519-2.0853882-1.1456451-3.6876831,2.2551155-4.5914307
		c-0.3213348-1.1276245-1.1986198,0.8591614-2.2822609,0.4740906c0.5728188-1.7003174,2.3544273-2.2285767,3.6252213-3.2130127
		c-0.3484688-1.1636353-1.5752716,1.297821-2.2641296,0.0180054c-0.179306-1.9867859,1.2256508-2.4073181,2.7117844-2.7659302
		c-0.4116287-0.9573059-0.0361404-2.7297974-1.8436127-2.2731323c0.2413216-1.8796387,1.8436127-2.4074402,4.0987549-2.3092957
		c-1.9868011,10.7492371-4.232914,21.2120056-13.5320473,24.7559509c-0.5198212-1.8436279,1.3869514-2.2641296,2.2731514-1.3869629
		c-0.1160545-1.0384827,0.1071396-1.7183228,0.9122696-1.8344727c-0.2683411-1.02948-0.7239609,0.5638123-1.3779488-0.4386597
		C57.1564178,277.8302002,56.9150963,276.4516907,59.5637245,275.7086792z M58.8308754,234.1443939
		c-0.5547943,2.6853485-5.4507103,8.3237915-0.4127731,9.6036072c3.5450821-1.5932922,1.718441-7.3479004,2.6769066-10.5343628
		c2.0138092-0.1251678,2.6667671-1.5932922,5.0030594-1.3959656c1.2527847,1.682312,0.9934464,4.57341,0.0439911,6.3900146
		c0.3675232,1.6383209,1.8976593,2.0769653,3.2406082,2.7207947c-1.9506454,6.6949463-9.0578041,8.3057861-12.2612267,13.7925262
		c-0.8062935-1.1726532-2.6317825-1.3068237-4.1179199-1.799057c2.4344559-7.5452271-1.3779449-16.9605103,0.7611389-23.7716064
		C55.6713181,230.5643158,55.2496452,234.3862915,58.8308754,234.1443939z M54.5528183,211.8048706
		c0.4645119-1.6558685-1.0746231-5.2895203,0.859169-5.4862671c-0.8151779,1.5842743,0.2503242,2.4254303,0.4826393,4.1077423
		c1.0474892-1.2436523,0.1521797-4.4122162,0.4205208-6.3990173c1.4771385,1.5036926,0.2684517,3.0162659,1.4140854,5.0120697
		c1.2616768-2.0854034-0.5367928-7.1781616,1.2978172-8.6817474c1.2628288,1.987381-0.8772964,4.269516,0.9584656,5.4681549
		c1.0283241-1.0914917,0.125164-4.0987396,0.4193649-5.9423523c1.5583038,0.2684479,0.994606,2.6577454,1.4061203,4.0988464
		c1.0384827-1.6914215,0.1161575-5.3165436,0.3844948-7.7685242c1.0474892,0.303894,1.9247894,0.8147125,1.83461,2.2732544
		c0.7701416-0.3490448,0.7340012-3.7678223-0.0259781-4.1083221c1.475975-0.1962891,1.7894592,0.8235931,1.8256073-1.8436279
		c2.9801254-0.5547943,4.0445786,0.805603,5.0390701,2.2557068c-0.3404999,1.799057-0.9223251,3.3111725-1.3338242,5.0296173
		c-0.617981-2.2462311-0.4206467-2.9350891-0.5018234-5.0211792c-3.0241165,0.6359711-1.9416428,5.3255463-3.5879135,7.3304596
		c0.6968155,1.1100769,1.2966614-1.7004395,1.7984543-2.291275c1.7984695,5.1733704-4.932045,8.3508301-7.6799736,11.9309082
		c-0.1510239-1.6914368,3.2497368-3.7593994,4.0818863-5.9699554c-3.8935623,1.906189-5.2623901,6.3098755-9.083786,8.2882385
		c-0.9944916-0.7159882,1.682312-1.6474457,1.7984695-2.7569427
		C55.5541229,211.2765198,55.4029808,211.8944702,54.5528183,211.8048706z M59.2062492,224.0982208
		c-2.353157,2.5641022-7.1150093,0.8231354-9.6034889-0.3940887
		C52.198391,221.7754211,57.3537445,222.1464081,59.2062492,224.0982208z M53.6123657,209.0665283
		c-1.3778343,1.6913147,2.0589523,4.358078-1.3418083,4.57341
		C52.4216995,211.8138885,51.6617165,209.1019745,53.6123657,209.0665283z M51.6977386,194.9249573
		c2.0217781,3.2220306-1.3789864,12.0380554-3.5540962,15.555542c-2.2461205-0.788147-2.3182869,1.7539062-3.6606712,0.4831085
		c1.9061966-1.8796387-0.6449814-3.2310333-0.0451469-6.3994751c0.9590454,0.1251526,0.4476547,1.7003174,1.3785362,1.8170471
		c1.1456223-0.4476471-0.6258163-1.7540131-0.0259895-3.1950073c0.7521324-0.1341553,0.7870026,0.4296417,1.4049644,0.4476624
		c-1.647438-4.4573669,1.4591293-6.596344,1.2617912-11.8858643c0.752018-0.1346283,0.7960091,0.4296417,1.3778343,0.456192
		c0.1443291-1.4230957-1.0733566-2.17453-0.0348701-3.20401c2.3261375,0.6708527-0.5108147,3.8032684,0.9753227,5.0210724
		c0.7069855-1.2623749,0.9573212-2.9806976,1.7984695-4.1263428
		C54.0239944,191.5056152,51.9300537,193.4749603,51.6977386,194.9249573z M61.0588684,166.0787048
		c0.2233086,3.9825745-0.734005,6.8105316-0.3754883,10.9724274c0.3664818,1.7816162,3.3117409,0.9314423,4.5735321,1.7906189
		c-3.1335678,3.9019928-8.3689499,6.9272614-13.174675,7.8581238c-3.3297539-3.6342163-5.0480881-10.4267426-4.2430725-16.8707886
		c1.4861488-0.6715393,2.3272934-1.9429169,4.5554008-1.8617401c0.4837952,2.747345-0.6348228,3.9019928-0.8501625,5.951355
		c0.1173134,0.9314575,1.2268066,0.9043274,1.835762,1.3519745c2.4513016-1.7904968,1.6011391-5.60289,0.841156-8.682312
		C55.8946266,164.6195831,59.0630722,165.2375488,61.0588684,166.0787048z M57.7742653,151.0334015
		c0.5276718,0.071579,0.3754883,0.8321381,0.4566612,1.3695068c0.9483032-0.5909424-0.036026-4.4302368,1.7984657-2.7563477
		c-0.0529976-1.1282043-0.0800171-2.2202606,0.9134369-2.2822723c-1.8707504-0.0361328,0.0710106-3.9025574-0.9224434-2.7389221
		c-1.2616653-0.4030762,0.4296417-1.6022949,0.4206467-2.282135c0.724987,1.4139709,0.9223175,3.364624,0.9584541,5.4681396
		c2.3272934-0.7515564-2.2912674-7.1420288,1.3056679-7.77742c0.5999527,1.5661469,0.3766441,3.937439,1.4061203,5.0210571
		c0.823143-1.1546326-1.1816559-3.3748932-0.4927979-5.934494c1.7094421,1.6829987,1.9157791-0.688858,1.3429718-2.291153
		c1.7444153-0.2143097,2.1661072,0.877182,3.2305527,1.3429565c-0.8772888,10.3460388-5.4958534,16.977951-13.1025047,20.6482086
		c1.4229774-3.500061,2.3002739-2.7840729,4.5103683-5.9705353c-0.679966-1.2347717-1.8966103,0.8061676-2.2552414,1.3879852
		C56.0107841,153.4949646,57.5409126,151.7585144,57.7742653,151.0334015z M73.8129196,95.202507
		c-0.3483658,4.3406372-2.9091263,6.4977341-4.5024185,9.6216125c-1.3418045-0.3765259,0.5728226-1.1546402-0.0090027-2.2821426
		c-4.9218826,3.8484116-8.072319,11.9213104-17.2552872,12.9056396c-0.6438293-2.7383423,0.7971611-7.3749161,2.2111359-9.6036072
		c0.9573097,2.2286911-2.4084625,5.7907562-1.3248329,8.2342072c2.8369484-2.8730927,1.2076454-6.7840881,3.1323051-9.6216202
		c2.7750626-4.0807266,8.8075943-3.3381805,12.7450409-6.4797211c-1.2616806-0.8055954-5.0480843,1.7991562-6.3820496,0.9578857
		C64.084259,95.1219101,70.29599,93.3770142,73.8129196,95.202507z M56.0107841,98.0665894
		c1.1106567,1.5571442-1.7184525,3.1052856-2.7027817,4.1347656
		C52.8523788,101.2796021,55.4379768,99.4805603,56.0107841,98.0665894z M52.7712097,92.6068726
		c3.5169182-1.2172241,3.5890846-6.8021011,8.6282768-7.3659134c-1.5932846,1.7009048-0.9584541,2.8995361-1.3159409,5.9519424
		c-4.1077499,0.6262741-4.7165909,4.7165909-8.1896324,5.987381C51.7868767,95.2560806,52.5738831,94.2271805,52.7712097,92.6068726
		z M56.8969688,94.4059143c0.2334671,2.2015533-3.3296356,4.5734177-5.4235764,5.9789581
		c0-0.6088409-0.0090065-1.2177963-0.0090065-1.8260651C53.8356705,98.9257584,55.5011253,96.3211212,56.8969688,94.4059143z
		 M51.6165695,120.0210342c-0.3405037,2.533165-1.2527847,5.9159088-0.4115028,8.2251968
		c4.6895599-0.7871246,1.0294647-6.0681,2.2111359-9.6036072c1.3779373-1.4675522,5.8171806-1.9867935,7.2931557-1.8796387
		c0.4216766,3.956604-5.1552353,7.4735184-1.2966576,10.5079193c2.4422913-1.5392532,0.7599831-7.1065826,3.1594391-8.699295
		c6.1926918,6.1125488-5.1913757,11.2769165-5.8273506,17.8551331c-2.6046295-0.5728302-5.4326973-0.9217529-7.3291931-2.2285767
		c0.3303413-5.2179413-0.6179543-9.1825104-0.5469551-14.1590042
		C49.7910843,120.0301514,50.7032471,120.0301514,51.6165695,120.0210342z M44.4468307,78.0543671
		c1.5318604,1.3688278,1.6028709,4.2147827,2.7924995,5.9157944c0.6810036-1.924202-1.9146271-4.4663773-1.4229698-7.7509842
		c1.333828,0.3399277,1.1546402,2.2015533,1.8627701,3.1769943c0.96632-1.2707977-1.6294289-3.8749695-0.5198174-5.4682617
		c0.3754883,0.3850784,1.261673,0.2509079,1.4049644,0.9037399c0.4205208-0.3309174-0.3124466-2.1479797,0.877182-2.7473526
		c2.4885941,3.2311478,1.7274551,9.5945969,1.4771309,15.519516c-0.2503281,6.0325394,0.661953,13.6667862-3.5349312,16.4591675
		c0.4916458-1.1816559,1.6372795-1.7093277,1.8254852-3.20401c-1.3338394,1.2707977-2.0938148,3.0969772-3.6521263,4.1348801
		c-1.8791771-0.7159882,1.1094933-2.6673355,1.3609734-4.1263351c-0.14328-1.0824738-1.2527847,0.5198212-1.3700943,0.9313278
		c-0.7604485-3.9825821-4.206356-9.5320129-4.6991539-16.4147034c2.4434471,3.5084839,3.4819298,8.4399567,5.1209412,12.7540359
		c0.0800171-4.3766632-3.9753075-9.9255142-3.7418404-14.5892258c1.8784943,2.6679153,2.416317,6.7305145,3.7056999,10.0242386
		c0.5728188-3.6330719-2.5601807-7.5176315-2.8285217-11.8587265c2.1385117,1.2262268,2.1745338,4.5469666,3.2491608,6.8291168
		C47.2314758,85.6079025,43.1400108,81.4641342,44.4468307,78.0543671z M42.8006592,39.2464485
		c-0.6901283-0.6629944-0.4127808-2.3362999-0.4567757-3.6522408c1.1546402,0.0361404,0.7521439,1.6918945,1.3689423,2.2732544
		c2.2568588-1.1096077,4.0101814-2.6937752,5.4602928-4.6089783C49.1369781,35.4961777,45.2795563,37.8854752,42.8006592,39.2464485
		z M41.8421936,31.0297985c0.841156,1.5932865,3.7418442,3.0704174,2.7839546,5.0030575
		C42.5322075,35.5406303,41.8512001,33.6164246,41.8421936,31.0297985z M46.9619827,43.7838364
		c-0.0259781-0.7611351-0.0259781-1.521122-0.0259781-2.2822609C48.8337708,41.0900612,48.3409691,43.7658272,46.9619827,43.7838364
		z M55.9757957,29.1055908c1.1456451,1.8886452-0.877285,4.5469742-0.3856468,7.3033295
		c1.3869629-2.8460732,1.1907806-7.27631,2.676918-10.0596867c1.332798,2.3892975-0.3405037,5.710043-0.4217911,8.2245007
		c1.7635956-2.9531059,1.2629433-8.1264706,3.1324234-10.9904404c1.7906151,1.3784084-0.4194832,5.683485-0.4103584,8.2256565
		c2.2461205-2.4795895,0.4915276-8.8966179,3.5789299-10.5259304c0.8151779,1.5307064-0.2954826,2.3453045,0.0360184,4.5644073
		c1.1186218-1.6107235,0.4837952-4.9760361,1.7996216-6.4080219c5.3875504,1.2352352,1.4139709,9.5500278,0.0710068,12.3334045
		c2.4434509-2.2641335,3.9387131-7.4555111,3.1324234-11.4471016c4.0187225,7.6258202-10.3105888,25.9997234-18.5531006,26.6265774
		c-1.7984695,0.1341705-6.2304382-0.3760643-5.5048637-2.7027817c2.4434509,1.8256035,7.9031754,0.7341194,10.0422516-0.5282478
		c-1.521122-1.6197281-6.5151634,2.3448448-6.8466682-0.8592834c2.5956306,0.4116287,7.6878242-0.4560814,10.480793-2.3627396
		c-2.0228233-0.1973267-7.5626717,1.8074722-9.5854874,0.5276718c-0.4928017-2.9085388,0.6076889-4.2419167,1.3338394-5.9513626
		c1.3057823,1.3423843-0.6088409,3.3026161,0.0349884,5.4862709c3.4819298-0.3490448,5.7010345-1.9333267,8.6462898-2.8015022
		c-2.4524536-0.9843292-3.5620651,0.7875786-5.9253807,0.9488831
		C54.1761742,35.4780502,54.0239944,31.2535686,55.9757957,29.1055908z M53.2628555,32.3186073
		c0.3766441,1.5752754,0.4216728,6.7305145-1.7624435,7.3213425C50.9715881,37.8854752,51.9300537,33.7061386,53.2628555,32.3186073
		z M42.1917038,18.2401962c2.1751099,2.4080029,3.2051659,5.9609451,5.0836487,8.6367092
		c-0.2321968-3.2755985-4.5108299-6.4260349-4.6269875-11.3840599c2.2100945,2.6757641,3.4013367,6.3629913,5.9970856,8.6361313
		c-1.6834679-3.9735794-5.1469269-6.1396828-5.5404282-11.3749371c2.1745338,2.8279438,3.4374809,6.6137791,5.5404282,9.5494499
		c-0.4657822-3.2130165-4.4308167-6.8646812-4.6642838-11.8407183c2.0235062,2.5324726,3.4024925,5.7636175,5.0848007,8.6457148
		c0.2683411-2.9266663-4.6641655-6.8652592-3.7412643-10.4808998c1.2978172,2.6763401,2.5956306,5.3521032,3.7322578,8.1896324
		c0.1961746-2.3448439-1.7906151-6.4531689-3.2755966-8.6547213c2.0668068-1.0024586,2.362278,3.7588158,4.1618996,4.5373888
		c-0.3044777-2.2912674-2.9452553-4.197463-1.8706322-6.3810029c1.3338394-1.1280832,1.8616257,1.5211229,3.203434,1.8075891
		c-0.1871681-0.868289-0.993454-1.1366277-0.9212875-2.2732553c6.5331841,2.6847696,5.7010345,15.8503218,1.0384941,19.6277275
		c1.682415-0.1701946,2.0849228-1.575161,2.7197456-2.7569351c0.5998459,4.5115261-5.5487404,6.2918644-7.6878281,9.6487503
		c3.1685638,0.0980301,5.6210213-4.4212322,7.7149696-6.9098282c0.3855247,3.3027325-2.4784431,3.1865749-2.7119141,6.4080219
		c-0.0258636-2.9711208-2.6306038,1.7184505-5.0030556,1.8706303c-1.8350563-3.033699-4.1624756-5.60289-4.6191368-10.0151157
		c1.5673103,2.6673336,2.676918,5.8532181,5.075798,7.7238503c-1.6913071-3.3556156-4.1624756-5.8977871-5.1106682-10.0151176
		c2.2461205,2.6497841,3.23946,6.533762,5.9969711,8.6372852C46.004673,26.0537624,42.4240265,23.8341961,42.1917038,18.2401962z
		 M45.9696846,34.6549072c-2.3278694-1.7814941-4.0463181-4.1619015-4.6191368-7.7328568
		C43.1400108,28.9538708,45.5208778,32.8022881,45.9696846,34.6549072z M28.4081879,6.0053988
		c-0.6449814,1.9507647,0.1793156,1.9959106,0.0631695,5.021184c0.9663067,0.2057562,0.8501511-0.6534109,0.8862915-1.3695192
		c1.0013027,0.044569,0.1961727,1.9333296,0.4645119,2.7293386c0.80513-0.4206352,1.0204697-1.4319849,0.9133186-2.7473507
		c1.3328037,1.3513908-0.1521816,3.7678213,0.0361404,5.4862728c1.6372814-0.2052956,1.2618008-2.380291,1.3327999-4.1258764
		c1.6022949,2.9002256,0.206337,4.9050274,0.0721779,7.7689962c1.5751495-1.0203552,1.3869438-3.7412643,1.7634697-5.9524002
		c1.646286,3.1238785-0.8771782,6.0595512-0.3856468,9.5944824c1.3519669-1.0824757,1.1907768-3.6781063,1.7996216-5.4945869
		c1.3057823,2.0758133-0.9854851,4.4656868-0.4216766,7.312336c0.9133224-0.77915,1.2268066-2.1305408,1.3609734-3.6702538
		c1.118618,3.0793095-1.3869514,6.4981995-1.2888069,10.0692692c0.4566612-0.3044777,0.4566612-1.0566101,1.3429604-0.9308701
		c-0.5018044,1.0114651-1.1726532,1.8706322-0.8772964,3.6606693c-4.0005951-1.3158264-3.1684456-7.5180912-6.0235252-10.0061092
		c0.6348209-0.5908298,0.4476547-1.9867897,0.4476547-3.1955833C26.7258778,18.2047482,26.071888,9.4062757,28.4081879,6.0053988z
		 M28.712677,48.4824142c-0.1161671-0.7424316,0.4386368-0.7960091,0.4566498-1.3778305
		c1.7094536-0.4928017,1.4849815,0.948307,2.2912674,1.3513908C30.922657,49.8523941,29.8943253,47.9727554,28.712677,48.4824142z
		 M33.2950859,47.534111c-5.3165398-6.0325356-15.4298019-18.0074234-8.8965015-27.3425732
		c1.2978153,2.9441013-0.6529484,6.596344-0.8412704,9.6036034c2.0589542-1.3069363,1.1006031-5.5758724,3.1685638-6.8828087
		c-0.1973286,1.6197281-1.0114651,2.6487446-0.8772964,4.5735302c1.6733055-0.4386482,1.2798023-2.9538021,1.790617-4.5735302
		c1.4139709,2.9176598-0.3856506,6.578331-0.4126701,9.5945988c1.1456356-1.3068237,1.3699818-3.517498,1.790617-5.4958572
		c2.0228138,2.6497841-0.9134369,7.7149582-0.80513,11.4206619c1.539135-1.9332161,1.7533207-5.2178192,2.6757622-7.7864323
		c1.2888203,3.248579-0.4927902,7.3923512-1.2979317,10.0596867c1.9417591-0.9668961,1.5482578-3.7498093,2.6757641-6.4085999
		c1.4411049,3.2226028-1.3429527,6.2118492-1.2978153,9.6036034c1.3339558-1.1276207,1.7544765-3.1234169,2.2461224-5.0386162
		c1.3881073,2.1480904-0.8050156,4.617981-0.8681755,6.8466682c1.6293144-1.1276207,1.9337921-3.5445137,2.7039375-5.4952774
		C35.9358635,42.3067055,34.2084084,45.708046,33.2950859,47.534111z M35.4701958,35.1826935
		c-0.8411446-2.1926613,2.2551308-4.0367374,2.2461243-6.8646832C38.441433,30.2426815,37.1976547,34.1532173,35.4701958,35.1826935
		z M37.537117,4.1167541c2.1931343,1.4951434-0.1251602,6.1938357,0.0630455,7.3033299
		c1.2798042,0.063158,1.3069382-1.1276217,1.3419228-2.2912683c1.2989693,1.5842819-0.5728188,3.9561434-0.4194794,5.9429331
		C35.6935043,13.2546911,35.7385368,6.9898448,37.537117,4.1167541z M38.987114,15.5194025
		C40.5804024,18.5621109,37.4931259,19.4484119,38.987114,15.5194025L38.987114,15.5194025z M38.6736298,36.9907455
		c1.6834679,2.5866241,2.2562943,5.566864,1.9157791,9.1203842C39.0592804,43.9090004,38.2531128,39.7651138,38.6736298,36.9907455z
		 M43.7939987,47.9186058c-0.8061714,11.0537148-1.7184525,19.6994286-2.9802437,31.0749474
		C37.6453094,68.3430328,41.6550369,57.1287079,43.7939987,47.9186058z M41.2073746,134.7174072
		c-2.4164314-3.0698395-1.3519707-9.6661835-1.9247856-14.6066589
		C42.460041,124.0933304,41.1983681,128.4790039,41.2073746,134.7174072z M40.3570976,144.3118896
		c0,0.7611389,0.0079651,1.5126953,0.0079651,2.2822571C38.7187881,146.6837463,38.7097702,144.2402954,40.3570976,144.3118896z
		 M39.4799156,149.3420715c-0.7251129-0.6979675-2.0409431-2.0229187-0.9224434-3.1955719
		C39.7922478,146.7463379,39.9004364,148.1784363,39.4799156,149.3420715z M37.6092834,140.669342
		c1.4499969-0.1347504,1.6461716,1.9958038,0.9133224,2.7382355
		C37.7253265,142.9960632,37.5009766,141.9845886,37.6092834,140.669342z M32.0424156,132.4977264
		c-0.090292,2.0403595-1.0746212,5.03862,0.0620041,6.8472443c1.6113129-1.7544708,0-6.6504974,2.6859245-7.3303528
		c-0.3134842,3.1233063,0.3303452,8.0283356-1.2989693,10.9724426c1.4861374,0.3850708,2.0138092-4.0632935,2.2471619-6.4080353
		c2.9002228,1.4590149,0.2684517,4.734726,0.5018044,6.8466797c0.0259895,1.0745087,1.2527847-0.1787415,0.912281-0.921875
		c1.6383209,0.8947449,0.7249985,3.812973,0.036026,5.0211945c1.4849815,1.5751495,2.3261375,3.776825,2.7829247,6.3724518
		c-1.7184601-0.6979828-1.6734314-3.2130127-2.7739182-4.5463867c-0.3935013,1.3243713,1.4049644,4.3942108,2.317131,5.9248047
		c-2.6306152-0.4030914-4.3050766-5.7460785-5.5397301-9.1023865c-0.5728188,3.9555664,3.5180702,7.1781769,4.63657,10.9369965
		c-2.3182869-1.6197357-3.5259247-4.3856812-4.5914268-7.2761993c-0.2864647,3.1948853,2.9711227,6.7930908,5.075222,9.0932465
		C34.8252144,154.9715271,24.1662712,140.0429535,32.0424156,132.4977264z M35.013546,163.0714417
		c1.6462784,0.420639,0.6359673-1.8080444,0.9133224-2.7479248c0.9122696-0.6082611,0.2683258,4.305069,0.4646149,5.934494
		c1.2888107-0.5643768,0.841156-2.8110809,0.9133224-4.5735168c1.8254852,1.6734161,1.1456337,5.0030518,0.948307,7.7595215
		c-3.9735794-0.7876892-4.8238564-5.3701172-3.7052422-10.0242462
		C35.3450356,158.1935425,34.8793678,162.0961151,35.013546,163.0714417z M32.2566032,162.1761322
		c1.2617912,0.3134918-0.3393497-2.1479797,0.9223251-1.8344879c0.2503281-6.3190002,0.6439438,2.711792,0.4916458,5.0210724
		c-1.2526588-1.5662689-5.1102047-7.4555206-0.9933357-8.6727448
		C32.8835716,158.8559723,31.9082489,159.8404083,32.2566032,162.1761322z M16.6114616,144.4731903
		c-4.089736-2.1209564-10.2022858-3.6252289-11.4652309-8.1354828c-0.8761315-3.0884247,0.5108132-5.0932312,4.0547495-5.97052
		c0.1432915,1.4055328,1.0204716,2.049942,1.4049664,3.1865692c1.835762-0.8321533,1.3881083-0.7876892,2.7479277,0.4385376
		c-0.0800161-1.6913147,0.233469-6.6233673,0.841156-7.3123398c0.6979799-0.6172714,1.9879436-0.1611862,2.7479267-0.018013
		c1.7184525,3.4819336-1.3237944,5.8713531-0.8321476,9.5946045c1.7184505,0.6624146,0.0721645-2.0403748,1.7996216-1.3779449
		c0.9483051,1.8971863-0.5468369,3.3917542,0.4916458,5.0120544c0.7689896,0.1703033,0.8772945-0.3585205,0.9133205-0.9133148
		c2.1469383,5.0120544,8.144495,6.139679,9.6656075,11.8057251c1.9067726,0.4916534,4.5103703,2.6487427,2.3273029,4.546402
		C26.6897469,153.217514,22.1794815,147.3552856,16.6114616,144.4731903z M11.1787634,149.5388336
		c2.4085798-0.4386597,0.6901283,3.2846069,1.835762,4.0993195c0.9393005-0.4476624,0.9933376-1.7635956,0.9121666-3.2045898
		c1.1106482,1.4055328,0.4927998,1.7454681,0.9223261,3.6432343c1.4230938-0.1077271,0.7611389-2.2732544,0.8851471-3.6612549
		c1.8267555,0.4656677,0.3676376,4.2430725,1.4151268,5.4777374c1.1366272-0.4025116-0.1611881-3.1774597,0.8761406-3.6690979
		c0.3044796-4.3948059,0.6449833,2.0493622,0.4837952,3.66008c1.7183342-0.5728149,1.3429623-3.2304382,1.3429623-5.4952698
		c2.0679588,1.0560303,1.4139709,6.7750854,0.9753227,7.7594147c1.3869553,0.752121,1.4681263-3.6600952,1.3158283-5.9513702
		c2.3274078,0.0981445,0.6089573,4.2960663,1.8706322,5.4778442c0.8772964,0.1341705-0.5378304-3.1685638,1.3429623-3.2135925
		c0.1421356,3.1864624,0.2684536,3.5710754,0.5277863,6.3904724c1.1455193-1.190094,0.4915295-2.8285217,0.8681736-5.4861603
		c0.9483166,2.2371216,1.9867897,4.4212341,2.7647858,6.8285522C22.903326,163.8500214,9.0758171,156.117157,11.1787634,149.5388336
		z M18.6253834,169.121994c0.3495102,1.0108795,0.9583511,1.7714386,0.922327,3.1944275
		c-2.1390858,0.4837799-2.6047535-0.733429-3.6692152-1.3508148C16.3701401,169.927124,17.256443,169.3007202,18.6253834,169.121994
		z M20.9255428,173.2208405c0.4127827-1.942337-1.2256508-3.2221375-0.036026-4.5645142
		c4.341217,0.2057495,2.506609,6.6764679,5.9975471,7.7149506c0.3664837-0.2413177,0.7521343-0.4832153,1.3599358-0.4657745
		c3.2574711-3.6961212-1.9777832-6.0855408-2.3262424-9.119812c0.9573021-0.9933319,1.9507542-2.0048065,4.089735-1.8526154
		c2.3622684,1.7004242,1.2166328,6.6408997,1.9067612,10.9459839c0.3043728,1.9957886,2.3622799,4.7701569,2.3261471,5.4681396
		c-0.4476624,6.5783386-6.6042023,3.3839111-10.5247841,0.5283661c-3.4910545-2.5505981-9.1029415-4.7077026-10.0964031-9.5230103
		C16.3701401,172.334549,17.981451,174.841156,20.9255428,173.2208405z M35.2368431,195.0417023
		c-0.1871643,0.9573059,0.313488,1.2076263,0.4656677,1.8164673c0.1883202,0.7877045-0.3484688,0.8683014-0.8863029,0.921875
		c0.7250099,0.3309174-0.107151,2.2376862,1.3789864,1.8260651c-0.1081886,2.5325775,1.4140892,3.4549103,1.8707504,5.4597015
		c0.5728149,2.0487976-2.2202568-2.8639679-2.7840691-4.0907745c-0.3844948,0.0811768-0.4295273,0.456665-0.3043633,0.7070007
		c0.1081886,0.0721588,0.1973267,0.1521759,0.3043633,0.2063293c-0.1521797,0-0.2321968-0.0897217-0.3043633-0.2063293
		c-2.9350967-2.0313721-4.2058926-9.2269745-5.2715092-14.3648834c1.1727772-0.2147675,2.0939388-0.6534119,2.7479267-1.3964233
		c0.6438293,0.8237152-0.1973267,4.0547485-0.886301,5.0300751c1.0824757-0.5728149,1.4591198-1.8796387,1.7996235-3.20401
		c0.841156,1.7454681-1.2538261,4.5109406-1.790617,6.4085999c2.1390972-1.217804,2.45257-4.23349,3.5982037-6.4260406
		c0.984333,2.7918091-1.3881073,6.1751404-2.2202568,8.699295C33.8228722,197.8154907,33.635704,194.4057159,35.2368431,195.0417023
		z M36.1230316,190.9243622c0.7161064,0.6534119,0.9844437,1.7719116,0.9494591,3.1858826
		C35.8186684,193.9316254,35.1657181,191.9532623,36.1230316,190.9243622z M20.3088493,213.4156036
		c-1.1456337,0.5372467-3.5890827-1.5752869-4.1258755-3.167984
		C17.5609207,211.2855225,18.8407249,212.4492798,20.3088493,213.4156036z M16.1469498,206.5959473
		c0.7960072,0.4116364,1.5751591,0.8321533,1.3778305,2.2732544
		C16.1108093,209.0839691,16.0657787,207.9028778,16.1469498,206.5959473z M18.4381008,208.4035339
		c0.7961349,0.4120941,1.6012554,0.8326111,1.3779488,2.2737274c-0.3495102-0.2418976-0.734005-0.4742126-1.3779488-0.4386597
		C18.4381008,209.6212158,18.4381008,209.0123749,18.4381008,208.4035339z M20.1926918,200.6265717
		c-0.9133205,0.9212952-0.8772945-0.1973267-1.826746-0.4386444c0.2323036-1.8886414,1.4140778-2.8465424,2.2552338-4.1353455
		C22.06217,197.3413849,19.85219,198.8901062,20.1926918,200.6265717z M34.0020828,212.8607941
		c-1.2798119,0.3850708-1.2076492-0.6348267-2.2911625-0.4386444c0-0.6082611,0-1.2166443-0.0271339-1.8254852
		C33.0267487,210.7849884,33.7867317,211.5364227,34.0020828,212.8607941z M32.5881004,206.4797974
		c0.930294,0.7605591,2.4885941,3.2757111,1.3869553,4.5555115
		C31.3444366,210.9191437,32.4539299,208.5027161,32.5881004,206.4797974z M31.6837864,209.2271423
		c-2.0228138-1.0289001-0.1431751,2.3808746-0.8771801,4.1083221c-1.4489574,0.2323151-1.2167606-1.2172241-2.2912674-1.3519592
		c0.904314-3.1858826,1.9879436-6.1931458,2.6497936-9.6120453
		C32.9816017,203.5886841,31.7649574,207.1507568,31.6837864,209.2271423z M16.8719482,180.0945282
		c0.0800152-1.1636353,7.6078167,2.7833862,9.1649551,4.9669189c2.6306171,3.6793823,2.9350948,9.487442,4.6535454,13.6673584
		C21.5976582,197.0820618,19.6198845,188.1854401,16.8719482,180.0945282z M22.9123325,196.5002289
		c1.1366272,2.3447418-0.7689915,4.322525-0.8501625,6.8556824c1.0746231-1.2082214,1.4861374-3.0788422,1.7996216-5.03862
		c1.5752754,0.6173859-0.1973267,4.2690582-0.4205189,5.9423523c1.5210075-0.7689819,1.4578476-3.0782623,1.7894611-5.03862
		c2.6858082,1.0289001,0.1081886,6.0951233-0.4116287,8.2252045c1.8616257-1.3605194,1.709444-4.6631317,2.7027817-6.8738098
		c1.1096077,2.9182434-0.5276718,7.0259857-1.7804565,9.1469421c0.7161083,0.680542,0.8412704,1.9247894,1.8616371,2.2732544
		C23.753603,210.0328522,16.8177948,200.921463,22.9123325,196.5002289z M27.1463966,211.0887604
		c-0.922327-3.3832092,1.8256016-6.900116,2.2112522-10.5253448
		C30.9587879,202.6843719,29.0171452,210.9371643,27.1463966,211.0887604z M32.6501045,216.522049
		c-1.8074741-0.9133301-3.7142467-1.7454834-4.5914268-3.6161041
		C29.7861347,213.890274,31.9521236,214.463089,32.6501045,216.522049z M34.5038795,218.3385162
		c-1.5582924,1.2347717-3.39291-1.1636353-4.5824203-1.7990417C31.0039349,215.76091,32.5700874,218.4366608,34.5038795,218.3385162
		z M33.0977592,216.0653839c0.9584656,1.0469055,3.1685715,0.7870026,3.6702538,2.2641296
		C35.2018585,217.927002,32.9455872,218.2314911,33.0977592,216.0653839z M35.3890266,216.0473633
		c-1.1806183,0.1341705-1.9597702-0.152298-1.8346062-1.3513794c-0.7250023,0.6804199-2.4783211-0.2058716-2.2911434-1.8081665
		c1.4951344-0.1341705,2.1931133,0.5193481,2.2911434,1.8081665
		C34.3956909,213.7921295,35.7476578,214.4095154,35.3890266,216.0473633z M10.4549198,176.9440918
		c0.5728168,1.0023499-0.2694931,3.7502747-2.7129426,3.2220306
		C7.8591733,178.3225098,8.3959656,176.8723907,10.4549198,176.9440918z M15.6191626,197.9232178
		c-3.9385824-4.2696381-10.3105888-6.1131287-14.2401762-10.4091949c0.2593321-1.8616333,3.9295864-0.3574829,4.5735292-1.8616333
		c0.009006-1.5482483,0.1070352-3.1859894-0.9573026-3.6420746c3.9735689-0.7882843,4.7785835,5.5758667,8.2876511,6.792511
		c1.6823101-3.1144104-1.4501133-5.2895203-2.7929592-6.8286591c-0.071126-1.9067688,2.6407776-3.4277802,1.3428459-5.0391846
		c3.7052402,0.0451355,8.287776,13.9538116,7.8761473,18.670517
		C18.4020767,196.4376526,16.6836357,196.8311615,15.6191626,197.9232178z M15.7263136,210.7128143
		c-0.8772955-0.5187836-2.2201424-0.5367889-1.8345985-2.2732544
		C15.1534967,208.5111542,15.8424702,209.2187195,15.7263136,210.7128143z M15.2336283,207.517807
		c-0.6799669-0.2418976-1.1546392-0.6715393-1.8346071-0.9038544c-0.4206257-1.6112976,1.1546402-2.3633118-0.4656572-2.7388
		C14.3201933,203.3829346,14.6968365,205.343277,15.2336283,207.517807z M13.3990211,207.9828949
		c-0.7249985,1.3158417-1.8346081-0.8321381-1.8346081-1.8074646
		C13.2738581,205.6741943,12.4766941,207.7055511,13.3990211,207.9828949z M20.3167,216.6111755
		c-5.0470467-1.6378479-11.1607504-6.1486816-11.9658813-13.6133118c2.2642498,0.4476471,3.0252733,2.4614563,2.7659407,5.4597168
		c1.5842819,1.17276,3.9205809,1.557251,4.6095543,3.6162109c-0.9223261-0.1257477-0.9133205-1.2268066-1.8345985-1.3609772
		c0,1.6828918,1.6012459,1.7454681,2.2912588,2.7297974c0.6889744-0.2057495-0.1883221-0.5818176,0-1.3688202
		c1.6101456,0.0529938,3.6692162,4.0186157,4.5825348,1.7984619c0.9921837,0.6714325-0.3406181,1.1100769,0.4645119,2.2731476
		c-1.1816578-0.8050232-2.6757622-1.2707977-3.6690998-2.255127C16.8719482,214.6333923,19.2342358,216.1725311,20.3167,216.6111755
		z M21.6866913,216.145401c1.6022835,0.1973267,2.515604,1.1366272,3.6612377,1.7996216
		C24.5959129,218.6785583,21.9460125,217.4252014,21.6866913,216.145401z M22.6439934,222.0753937
		c4.9952049-3.5665588,11.2149124,0.4115143,15.5019684-2.3944855
		C36.2313347,225.3915253,28.3281803,222.3437347,22.6439934,222.0753937z M36.2933388,213.2994385
		c1.118618-0.0800171,1.4229813,0.7069855,2.2732582,0.8953094
		C38.378273,215.7518921,35.6224937,215.2862244,36.2933388,213.2994385z M32.7584114,168.1106415
		c1.0283203-1.9337921,2.5956306,3.0872803,5.0470543,2.702774c1.897644,4.1973572,2.0949707,10.1582947,1.9427872,16.4321442
		C35.3540421,182.9676208,33.0267487,176.595047,32.7584114,168.1106415z M40.8938866,282.690094
		c0.313488,1.5841675-1.6022911,1.6467285-2.2912674,0.9307556C38.987114,282.9318542,40.0876045,282.9499817,40.8938866,282.690094
		z M36.6158295,259.885376c-0.4206352,2.4608765-1.6022835,4.1708984-2.2472725,6.4170227
		c1.9428062,0.0890198,0.7971611-2.8641052,2.7389183-2.7659607c-0.2683372,1.0926514-0.6438255,2.085968-0.4476509,3.6612549
		c-1.7804565-1.5932922-1.539135,3.4007568,0.0270157,3.6510925c-0.0710106,0.5282593-0.8321457,0.3850708-1.368824,0.4656677
		c0.3044777,2.6492004,2.0589523,6.0596619,2.8189392,9.5674744C34.512886,276.0221558,30.090498,264.5213623,36.6158295,259.885376
		z M34.7812233,257.6120911c1.3418083,2.111969-1.5311661,3.9285583-1.3338394,6.4080505
		C31.8360825,261.6482544,34.6020241,259.7330627,34.7812233,257.6120911z M32.0424156,260.8336792
		c-0.9314461-1.5662842,1.7443161-3.4098816,1.789463-5.495285
		C35.1206894,257.2264404,32.7132645,259.3389893,32.0424156,260.8336792z M20.0483627,244.0163269
		c3.4277802-4.5018158-7.2582989-10.4091949,1.2899628-11.8942871c1.0733547,2.9170837,0.9921837,6.980835,3.2575874,8.663269
		c1.475975,0.3850708,1.4139709-0.7251129,2.2821465-0.9302979c0.3844948-2.9897156-0.8772964-4.3230896-1.4139729-6.3910522
		c1.7984676-1.2527771,2.9080772-3.167984,3.167408-5.9604797c4.2249432,3.3827515,3.3206291,11.974884,4.2430706,18.7053986
		c-0.806282-0.1070404-1.0656166-0.7779999-0.9483051-1.8164825c-2.0679607,1.6913147,1.7804546,6.8195343,0.5276699,9.1288147
		c-1.6473236-0.4740906-0.9584656-3.3200531-2.7569332-3.6335297c0.3935013,1.2532501,1.4951439,3.3026123,0.5018063,4.5649872
		C27.5670319,250.1920471,24.1301308,246.7998199,20.0483627,244.0163269z M17.0591145,269.1573486
		c0.84231,0.331604,0.081171,2.3002625,0.6089573,2.9802551c0.0890236,0.0721436,0.2243462,0.1521606,0.3133793,0.215332
		c-0.0890331-0.0631714-0.2243557-0.1431885-0.3133793-0.215332c-2.4795895-1.7094421-6.3370113-7.821991-3.4278955-12.0910645
		c3.0162668,1.2166443,2.4795904,6.0585327,4.1619005,8.6451416
		C18.3299122,269.2290649,17.5969563,269.0857544,17.0591145,269.1573486z M18.4020767,266.4095459
		c1.5661545-1.4230957,0.5728168,3.6786804,1.8526192,4.0907593
		C18.902729,271.6815186,19.2342358,267.2597046,18.4020767,266.4095459z M20.227562,266.4004211
		c1.6114159,1.8087463,1.3791027,4.3863525,1.8707485,6.3731384
		C19.9231987,272.2272034,21.1138649,268.2530518,20.227562,266.4004211z M21.6776752,276.8903198
		c1.8074741-0.6088257,3.7052402,2.6757812,4.5915413,4.5289612
		C26.2602215,281.9205017,23.3961258,277.6960449,21.6776752,276.8903198z M20.5771885,252.2324066
		c5.4946995,0.7791443,10.1582909,5.7913361,10.1492863,13.6313324
		C25.9557323,264.5297852,20.7293682,259.7601929,20.5771885,252.2324066z M27.7553539,297.8604431
		c0.3483543-3.5709534,5.3075352-2.6401978,7.2581921-4.6269836
		C33.2229233,295.3995361,31.4424667,297.5650635,27.7553539,297.8604431z M39.5869522,291.3808289
		c-4.6545868-0.7340088-6.9007072-1.056488-11.4471035-1.7454834c2.2551384-1.0740356,9.2991238,0.2773438,10.7311115-3.0072632
		c0.0271339-0.2503052,0.071125-0.492218,0.2244606-0.7249756c-0.0451469,0.2593384-0.1443291,0.5102234-0.2244606,0.7249756
		C38.7909431,288.1498108,40.5093918,290.0024109,39.5869522,291.3808289z M45.4588737,282.6545105
		c0.0620041,0.5366821,0.823143,0.384491,1.3869553,0.4476624c-1.6022949,2.8099365-4.0451698,4.8147278-6.3725777,6.900238
		C40.2759247,285.7237854,43.2561684,284.5606995,45.4588737,282.6545105z M40.5093918,291.3718262
		c0.0800171-0.6624146,1.3418083-0.1703186,1.3418083-0.9223328c0.8681755,0.0450439,0.3405037,1.5041504,1.3778305,1.3609619
		c3.1691437-0.9578857,4.5029831-3.7232361,7.7425575-4.6185608c1.2539368,0.2683411,1.1456451,1.8976746,2.7479286,1.7990723
		c-0.0349884,1.1720581-1.789463,0.6714172-1.7984695,1.8441772c0.8863029,1.3958435,2.4964485,2.0487976,3.6691017,3.1678772
		c-1.4849854,0.3218994-7.0258713-0.9488831-7.3291931-2.6853638c0.0890198-0.4560852-4.422966,0.7341309-3.2045898,1.3875427
		c-0.5733948,0.8862915-2.0235062-0.5102234-3.1691399,0.4830933
		C41.6898956,292.3201294,41.6898956,291.219635,40.5093918,291.3718262z M38.0388107,332.4890137
		c-0.670845,1.1365051-0.9313354,2.7297974-2.2562714,3.2124329c-2.0216713-0.4116211-1.9868011-2.8905029-4.1337395-3.1595459
		C32.7854271,329.4907532,36.9913216,329.1051025,38.0388107,332.4890137z M31.799942,352.6269836
		c-2.8640842-5.4784241-6.0855293-8.7984924-8.7793045-13.1752625c0.0360241-0.652832,0.0710106-1.297821-0.4746723-1.3688049
		c0.2412033-0.3676453,0.4746723-0.7431335,0.4746723-1.3699951c7.0259838-1.7804565,3.5079117,7.1690369,9.1649551,6.7845459
		c-0.143177-3.6070862-4.1799126-6.0685425-0.9854851-9.1293945c4.9950867,1.6828918,4.4933968,8.9501953,6.5162125,13.6577759
		c4.054863-2.9710999-3.0432854-10.2744446,1.2617912-13.7113342c2.1389694,4.4573669,4.5463943,19.8144226,4.7347145,25.991272
		c0.0890236,3.0151367-1.0914803,6.8917236-4.0445862,6.8917236C35.2018585,367.1885071,33.635704,356.133728,31.799942,352.6269836
		z M37.0724907,387.309021c-1.4861374,1.3056641-3.8134308-0.4307861-5.0390701-0.8772888
		C33.0718956,385.5454102,34.8523483,387.8547058,37.0724907,387.309021z M31.4244537,365.8805237
		c-1.6473255-0.3203125-1.6473255-2.3092957-1.8346081-4.0975952
		C31.039959,362.2835693,30.8877773,364.4303894,31.4244537,365.8805237z M27.2625542,358.596344
		c0.6799774,0.6178589,2.2912674,4.4020691,0.4927998,4.5644226
		C26.9490681,362.3016052,27.4148598,360.1433411,27.2625542,358.596344z M20.541048,375.5483093
		c-0.9573135-0.8771667-0.8861866-2.7760925-1.4049568-4.099762C20.3798599,372.0212402,20.541048,373.712677,20.541048,375.5483093
		z M17.7570953,372.3708496c1.6744576,0.7600098,1.5673084,3.3286133,2.3272915,5.0109253
		c1.0656185-2.6836243,0.7701454,0.403656,1.8616257,1.3621216
		C20.1926918,378.7957458,18.2859192,375.0814819,17.7570953,372.3708496z M28.3630409,385.0786133
		c-5.0740662-1.7521667-6.4880371-7.2120056-7.4013577-13.1925964c2.0949783,1.2808533,1.9867878,4.7267761,2.7919197,7.2953796
		c1.6033325-1.3056641-0.2774601-5.019928-0.5006523-7.3111877c2.0949783,0.9381409,1.7544861,4.3479309,2.7839527,6.3798523
		c0.759985,0.1984863,0.7249985-2.4874268-0.0270195-2.2822571c2.4614735-1.7184448,0.8321495,5.0402222,1.4319859,5.4687195
		c1.493988-0.1690369,0.697979-2.6317749,0.8591671-4.1179199c1.2437782,0.644989,1.5572624,3.9668884,0.948307,5.0222168
		c0.7972775,0.6721191,3.0343933-0.5636902,1.8616257,1.8087463c1.4591179-0.7262573,2.7209091,0.286377,4.0987396,0.8862
		c-3.7052383,0.8321533-7.9110146-1.7724915-10.0590973-4.0367432
		C24.0851002,382.6904602,28.4803524,382.8144531,28.3630409,385.0786133z M32.5700874,398.756134
		c-0.8591671-2.0769653,2.550602-3.8314514,3.6251068-5.5047607c-3.7772789,0.7058411-11.3399506,0.7058411-15.0813293-1.2629395
		c6.5253334-3.2744446,13.3268547-1.082489,20.996666-3.3466187
		C40.3570976,393.4295349,34.4407196,394.0835266,32.5700874,398.756134z M43.0690002,395.9440002
		c-3.2497368-3.6060486,1.0734673-7.6426697,4.5018272-8.716156
		C47.3385124,391.370575,44.1784935,392.6514282,43.0690002,395.9440002z M58.4542313,697.7177124
		c-7.1781654-1.1456299-4.9760361-10.0692139-5.1462288-14.5704956c-1.727459-47.9920654,0.527668-88.8937988,0.4475365-134.2901001
		c-0.1160393-44.8934326-1.7894592-90.7722473-4.6185608-134.2337036c-0.1521797-2.3543091-1.7533188-7.6878052,0.8423119-8.2244873
		C63.0096321,489.5555115,57.1214409,607.8746338,58.4542313,697.7177124z M54.5618248,405.9072571
		c-4.19804-3.0895691-5.2275162-10.3285828-4.6997299-16.8617859c1.0836296,2.4242859,3.097435,3.9014282,5.5048599,4.9838867
		C57.1304359,397.5474548,56.1719704,403.0793152,54.5618248,405.9072571z M53.8716965,373.0225525
		c0.9133186-1.0553589,1.9157791-2.0296326,2.7119026-3.2113037
		C57.8452759,371.2522583,55.3669548,372.8443909,53.8716965,373.0225525z M70.4211502,390.269989
		c-2.0769653,1.8898926-6.7665329,3.0715637-9.5584526,2.8009033c-0.3405037,1.889801,0.6968231,2.3454285,0.4646263,4.1089172
		c-0.7599831-1.5222778-2.2191048-2.3363037-2.7558975-4.0908813
		C61.4975281,391.318634,65.1757355,388.2832031,70.4211502,390.269989z M68.9621506,377.0322571
		c0.9933395,0.3946533,1.4139709,2.5437927-0.4566574,2.2844543
		C68.004837,377.8914185,68.3001938,378.1169434,68.9621506,377.0322571z M74.3406982,363.7515869
		c2.256279-0.0540466,0.9223251,1.7816162,0.9313278,3.1865845
		C73.9652023,366.8840027,74.4308701,365.0393677,74.3406982,363.7515869z M73.8930435,365.1205444
		c0.1081848,2.5324707,1.5583115,3.4638977,0.0360184,5.4777222
		C73.7328949,369.37146,72.0584335,365.4250183,73.8930435,365.1205444z M71.2082748,372.8985291
		c0.7701416-0.1691589,0.8771744,0.3586426,0.9223328,0.9133301c1.1094818-0.8501587-0.6539993-2.6949463-0.0270309-4.5644226
		c2.6216125,1.3779602,0.4476547,4.6434021,0.036026,6.8466797
		C71.0199509,375.798645,70.7244797,373.4533386,71.2082748,372.8985291z M68.9970169,381.5989685
		c1.2629471-2.5957336,1.2989731-4.4313965,0.8513184-7.3134766
		C72.3539047,376.2992859,71.2882843,379.8625183,68.9970169,381.5989685z M60.826683,387.5953674
		c-0.7431374-2.8369446,2.8279343-5.3627319,3.132412-8.7003174c-1.8357506,2.5686035-2.9452553,5.8701782-4.9681854,8.2516174
		c-1.0643463-0.2142944-1.8604736-2.9700623-0.9573021-5.0110168c1.1106377,0.2503357,1.0384712,1.7184448,1.3790932,2.7287598
		c0.6076851-1.2516174-0.7791519-4.3862305-0.9584694-6.3821411c1.0655022,0.931427,1.4499969,2.5167542,1.8706322,4.0908813
		c0.9573135-1.4681396-0.8772926-4.0187378-0.9483032-5.9242249c0.7250061,0.6268616,1.1726494,1.5559998,1.3779449,2.719635
		c0.6810074-2.960968-2.0679588-5.7889099-0.9754372-9.1288147c1.0114632,1.5943298,0.9392967,4.2509155,1.8526192,5.9265442
		c0.6359863-2.4536133-1.3418083-6.0686951-0.9573135-8.6643066c1.3689423,1.3598022,1.789463,3.7052307,2.7829132,5.4597168
		c0.6889839-1.0576477-2.0578003-4.9500732-0.9482956-6.3911743c1.5752678,0.2323303,1.2087822,2.451416,1.8345985,3.6420898
		c1.2888107-1.7882996-1.2617912-3.5969543-0.5018082-6.388855c1.3879929-0.1803589,0.9584656,1.4839478,1.3879929,2.2732544
		c1.7274551-1.486145-1.0835037-2.255127-0.5016861-4.1089172c0.9854813-0.2142944,0.8771744,0.644989,0.9493408,1.3598328
		c1.4501266-1.8694763,0.4916458-6.1565552,3.132431-6.8736877c0.2684479,2.085968-0.7960129,2.855072-0.4205246,5.0312195
		c1.2526627-1.6394653,0.4205246-5.3356934,3.1684418-5.4957275
		C66.7419052,366.0608826,65.3730698,378.1959229,60.826683,387.5953674z M87.8467484,333.9655762
		c-4.8778915,7.4375-12.3604202,12.3153992-16.3069763,20.6661987c-1.852623,0.0631714-3.741272,0.1150208-5.0210724-0.4126587
		c1.6371689-9.9430847-2.4885941-15.3130798-2.4885941-27.3962708c1.0745163-0.8947144,1.2268066-2.7207947,3.6341171-2.3002625
		c1.6372757,2.8556519-0.8050156,7.4466248,0.5277786,10.0422363c0.6178589-0.0090027,1.2268066-0.0090027,1.8356476-0.0180054
		c2.86409-1.2888184-1.1106491-6.1306763,0.841156-9.1379395c1.0374451,0.7791443,0.9122849,2.7659302,2.3262558,3.1775818
		c3.0162659-0.0271301,3.3657761-2.7119141,4.9760361-4.1438904c2.6226501-0.0360413,1.2538223,3.9465637,2.7749481,5.0030518
		c-1.5662689,3.5890808-4.5825272,5.7641907-5.3875504,10.0867004c1.8706284-1.6287231,4.779747-6.166687,6.7665329-9.182373
		c1.7984695,0.9753113,3.4717789,0.0439758,5.0110397-0.4927063
		C88.1242142,330.6092529,87.7487183,332.5419006,87.8467484,333.9655762z"/>
</g>
</svg>
