<?xml version="1.0" encoding="utf-8"?>
<!-- Generator: Adobe Illustrator 27.2.0, SVG Export Plug-In . SVG Version: 6.00 Build 0)  -->
<svg version="1.1" id="lavender" xmlns="http://www.w3.org/2000/svg" xmlns:xlink="http://www.w3.org/1999/xlink" x="0px" y="0px"
	 viewBox="0 0 58.7225189 644.4164429" enable-background="new 0 0 58.7225189 644.4164429" xml:space="preserve">
<g id="outline">
	<path d="M57.7557983,249.5789185c-0.8691063-1.1381989-2.7226105,1.0918121-3.1523209-0.6923981
		c2.7529182-5.0679321-0.7852058-9.6973724-4.6377335-11.2510834c-2.9151192,0.968811-2.6221199,1.8765106-5.1143341,0.1538086
		c-1.6455116-0.0307007-1.5996132,1.5381012-3.0840225,1.6612091c-7.1133385-7.6827545-9.3750648,4.2758331-7.4824524,12.7817841
		c1.2842102,5.8447571,4.2373314,9.2978821,4.3066292,12.827179c-1.5078087,2.2764282-0.6230011,6.7911682-2.0761147,9.0982666
		c-2.9151192-6.1216431-2.6846161-14.9039001-3.4453201-23.0641479c-0.7539062-8.2900543-1.5772133-17.1534271-1.9307156-25.4630737
		c-0.530304-13.3427887-1.7085114-28.6544952,2.7217197-40.9133911c4.2070274-1.8300018,9.3447647-1.6377106,12.435585-4.2910309
		c1.7383118-1.4922028,1.8457146-4.3525238,4.1690292-5.2295227c-1.1533089-2.5683289-3.2149239,0.753891-4.7295341-0.2539062
		c5.4824371-5.3984375,11.1582794-10.5971832,12.373085-19.9952393c-4.6289291-3.5220337-8.5664558,3.8682251-11.5810776,6.6294403
		c1.0459175-2.8994141,0.3613014-5.1064301,0.9531059-7.4907532c2.0000153-7.9209442,11.5742798-11.366272,9.2139626-20.2950287
		c-1.838913-0.2618103-2.492218,0.3231964-3.5381126-0.2842102c1.2762985-1.5000153,3.4072113-4.3916321,1.3760071-6.7217484
		c-3.7832336,0.1152039-6.3907509-1.3379059-9.1358719-3.2607193c2.7764206-4.2681274,7.4902534-17.3419189,0.6387062-18.0724258
		c-3.7451286-0.4076996-4.4072304,2.9453201-7.3213501,4.1372299c0.5918007-3.8066254,0.3994102-8.9976654-2.2617188-9.7436676
		c-4.4297295-1.246109-5.9746399,5.5908356-8.398056,8.0976562c-1.1845093-12.4893875-1.4072094-26.9547882-1.1230087-38.4445648
		c3.1225224-3.7759247,9.5522652-4.4527283,13.1050911-7.8438568c-0.1993027-1.4077072-1.4532089-1.6924095-2.0450134-2.6919174
		c1.8067131-0.7231026,2.9532204-2.045414,3.0215187-4.4067307c-1.2842064-0.0381012-1.5068092,2.8760223-2.714817,1.6533127
		c2.3457146-5.6680412,3.6533241-12.9351883,2.1543159-20.0870399c-4.984436-1.9072113-5.7686424,3.1064224-7.6758537,5.3291359
		c0.4307022-1.8223114-2.0303154-0.5693016-2.3994179-1.4995079c1.4844112-8.2984581-5.1831341-10.1978722-6.3911438-3.3452225
		c-0.7998047-4.2989311-0.8535061-9.5059662-0.7608051-12.1436844c1.2910099-1.3223095,3.4141235-1.8838139,4.2295303-3.6601257
		c-0.0615005-0.6153049-1.0156078-0.2774029-0.8154068-1.1539078c3.0303211-3.8217268,6.629446-11.4125795,2.2685165-15.7730093
		c-2.2607155,0.4229028-2.4687176,2.7451189-3.8066273,4.0371275c-1.4150085-0.6533046-1.2147999-3.0146208-3.2227211-3.0449209
		c-0.7450962,0.4609032-1.8378124,0.5537038-2.7451115,0.8691058C17.7189312,3.4834239,16.6349239,0.8535059,13.8741951,0
		c-1.2461081,1.6455114-1.9004126,4.7373328-0.5850039,6.690546c-1.9687138-0.9996066-2.5684175-3.4756238-5.6064382-3.3682232
		c-5.0215349,5.3140364,0.484303,14.4810009,3.2607226,17.1808186c-1.499011,0.2612019-1.9229136-0.6387043-3.5303245-0.285202
		c0.8926063,3.2305222,5.4990373,2.91502,7.9756551,4.4761314c1.6690111,1.0381069,2.0381231,2.9380207,3.6143236,3.0298214
		c1.0615082,2.7919178,0.8154068,6.9755478,1.476511,10.1669693c-2.399416,1.1534081-2.6992188,4.3145294-3.7148247,6.7833481
		c-2.091815-2.0997162-3.3145237-7.4219513-6.8672485-6.8604469c-7.1445489,1.1152077-0.0303001,16.4503136,2.5381174,19.5494347
		c-1.4688015,0.0923004-2.3613157-1.7534142-3.5459242-0.6846046c0,4.1915283,3.515624,4.6143303,5.2910366,6.9136467
		c-0.4687033,0.815506-1.8760128,0.7696075-1.49121,2.3994141c3.4834242-0.453598,5.5517378-0.2381973,8.2051554-1.0302048
		c-0.2530003,1.484314,1.5156116,0.8154068,1.6386127,1.9228134c1.0225067,12.3887863,2.106514,28.4855957,1.5459099,39.2131729
		c-1.9004135-0.9380112-3.6377258-2.0684128-5.5761375-2.9756241c-1.8682041,0.5459061-2.6914196,2.0376129-3.4453239,3.6372299
		c-4.068428,1.2383041-6.690546,2.1148148-9.6817665,3.8145218c-0.8848062,13.6118927,13.8194942,10.6665726,13.6504936,23.5484619
		c-8.144556-0.2695007-10.3975716,8.1133575-5.144536,12.3198853c-3.7149248-0.2075043-3.2842226,3.5220337-6.1455421,4.1070251
		c0.4004116,2.1220245,4.3994389,1.6914215,2.8613195,4.6294403c-2.5537176-0.5308075-2.7227182-3.5611267-5.5830379-3.7608337
		c-0.4697037,6.8369446,7.8750539,7.7984619,9.4199638,13.8506927c-0.7226048,0.199707-2.3603163-0.4613953-1.9297132,0.8462067
		c2.9834204,4.4912415,7.2442493,8.6592712,7.8672543,13.5039978c-1.7998123,0.6074066-4.1299286,0.6846008-5.0527344,2.1152191
		c3.115221,2.2378082,8.1054649,2.4532166,11.1357765,4.7754364c0.5537128,6.0830383,0.022501,15.2814026-0.1074009,23.1642609
		c-0.3232021,20.4332275,1.9297142,41.0588837,4.0757275,58.3783112c-2.9614201,1.1376953-1.7837124,6.1826172-2.86092,9.112854
		c-5.3525352-2.953125-3.9072266-7.7671509-5.5449371-14.7506104c-0.2685013-1.2148132-1.4385109-2.1684265-1.6455116-3.0913086
		c-0.654295-2.5761414,0.0692997-3.9067383-0.1924019-5.8833466c-1.2148075-10.1435699-9.9746675-9.7129669-11.0283756-2.0302124
		c-1.2070079-0.5840149-2.1680145-1.8458252-3.5762243-1.0689087C4.0303278,254.1008606,3.8301263,259.1072998,0,260.7069092
		c1.4766102,9.0747681,11.7129803,11.0361633,15.3888063,16.4269104c-1.8076124-0.569397-4.4297314,0.3924866-5.8447409,1.3535156
		c-0.7461052,11.9970703,10.2363701,17.1651001,14.8350029,23.5098572c-0.8613071,0.2304993-2.2304153-1.9150085-2.3613167,0.069397
		c0.6231041,1.4995117,2.0069141,2.1836243,4.3916302,1.8301086c0.8613052,3.921814,6.4527435,2.8457336,8.0064545,6.0449524
		c-1.6075096,4.1679077-9.3521633,2.9912109-11.3833771-0.0537109c3.9453259-0.7159119,7.5532513,1.1762085,9.3911629-1.061615
		c-2.6001167,0.3233032-10.9976654-1.907196-12.1284828,1.5303345c5.6904392,1.6846008,5.9218502,4.6143188,13.8589058,3.9141235
		c2.5918083,4.1914062,3.0225105,9.2207642,3.5762138,14.0273743c2.5225182,22.1642761,6.0449409,45.3284302,5.9444427,68.5297852
		c-0.0079002,1.9151001,0.0379982,3.5684204,0.1610985,5.4912415c1.1230087,20.1261292,2.8848228,40.2522888,2.5615196,59.9936218
		c-0.1924019,10.3896484,0.3613014,21.8634338,0.1611023,32.576416
		c-0.1767044,11.2588806-1.1835098,22.3721313-1.3691101,33.4152222
		c-0.5996056,38.4445801,0.5469017,77.0200195-1.3144112,114.680481c2.1914177,1.522522,4.1914291,1.5,6.3291435,1.3838501
		c-0.607502-3.8828735-0.3995018-7.5283813-0.3535995-11.3809814c0.4922028-28.6017456-0.6689072-58.3861084,1.368206-87.1949463
		c1.1152077-15.7959595,0.1309013-29.7775879,0.2314034-44.7658997c0.1924019-23.3253479-1.9687119-48.4964294-2.0380135-69.4301758
		c-0.0996017-24.3634644-0.7998047-45.7581177-2.9844208-74.5054016
		c-0.8916054-11.6738892-3.775425-24.6095581-4.5908318-35.1989441c-0.3536034-4.7066345-1.7686119-9.1670532-1.1534081-12.5279846
		c1.2149086-6.5595398,8.4356575-8.335968,12.1739845-13.3121033c-0.0615997-2.1069031-1.669014,1.9614258-2.7539215,0.0767212
		c3.0840225-3.5908508,8.8291626-15.5880127,6.79105-23.3634644c-1.7070122-6.475647-10.3047714-0.8306274-11.7510834,1.1381836
		C46.720623,263.9217224,62.7705307,262.0067139,57.7557983,249.5789185z M49.7420425,164.2296295
		c-0.030201-0.8379059,1.4082108-2.183609,0.7237053-2.3837128c2.2607155-0.1074982,2.6220169-4.3838348,4.921833-5.6368408
		c-0.1308022-0.5312042-0.9843063-0.2924042-1.5771103-0.3466034c0.392601-1.4916992,1.7461128-1.1993103,2.7305183-0.476593
		c-0.9532051,7.2441406-4.6680336,11.8584747-8.9366608,15.9732056c-0.1845016-4.7451324,4.5684319-8.1440582,7.1221504-11.5971832
		C52.2723579,160.5158081,51.9344559,163.2301331,49.7420425,164.2296295z M34.8074379,43.7513008
		c1.2382088,1.3687096,1.1152077,4.206131,2.1377182,5.8213425c0.3613014-2.0147133-1.3760109-5.2910385-1.8067131-7.7979546
		c1.3067093,1.0381088,1.3379097,3.4375229,2.0996208,5.0450363c0.6611977-1.515213-0.954113-4.0992317-0.954113-6.2603455
		c0.930706,0.6152039,0.8926048,2.2842178,1.6455116,3.0991211c0.5235023-1.0996056-0.3535042-4.213829-2.0918159-4.2602272
		c0.0928001-1.945816,1.531311-2.6226196,3.8614349-2.4688187c2.207016,6.5601463-0.423912,14.7272034-2.953228,19.3263321
		c-1.1152077,0.8686066,0.9844055-2.7222176-1.214798-1.1382065c0.3915901-2.438015-1.2080116-2.7764206-0.9463158-5.0835342
		c-0.2998047-1.2305107,0.9072037,2.0611153,1.2529068,2.71492c0.7159042-1.5845146-1.5224113-3.4839249-1.3300095-5.8526421
		c1.0615082,0.4922028,0.7304153,2.4536171,1.6533127,3.09132C36.6453514,48.5189362,34.7156372,46.1351204,34.8074379,43.7513008z
		 M29.8235054,8.1670561c-1.0840073-0.2075009-1.57621-1.0303068-1.6377106-2.3066158
		C29.6243038,5.6831393,29.4006023,7.2520499,29.8235054,8.1670561z M28.2775955,8.9981623
		c2.7007179,3.9297266-1.8067131,7.0210485-2.8526115,9.8974676C25.7247772,16.411314,29.1007996,12.696888,28.2775955,8.9981623z
		 M8.889761,4.4678307C8.4825583,5.7061396,10.9209747,7.3672509,9.405365,7.990355
		c0.0078001,1.4687104,1.7149115,1.1308084,1.2539082,3.0996213c0.9531069-1.8457127,1.9990139,0.7685061,1.6690121,2.6992188
		c0.5302029-0.1387005,0.2998018-0.9922066,0.3379021-1.5767107c1.3154087,2.0376139,0.1308012,3.2378225,0.9843063,6.6446457
		c1.1153078,0.0307007-0.5615034-2.553318,1.1153078-1.9996128c0.0302,1.1768074,0.0615005,2.3536148,0.092701,3.5298233
		C9.8741684,19.9796371,3.0147207,8.6514597,8.889761,4.4678307z M14.5039997,21.5792484
		c-0.0693007-0.3379021,0.1543016-0.3769016,0.3926029-0.4072018
		C15.0578041,15.6808081,17.1271172,22.4943562,14.5039997,21.5792484z M13.1739902,42.8127975
		c0.7763062,0.5230026,0.2841024,2.3994141,0.8691063,3.1221199C12.5284863,45.5355148,13.1739902,44.0355034,13.1739902,42.8127975
		z M9.5440655,39.3904724c1.9072132,0.6767044,1.0840073,4.2451286,1.3769093,6.6372452
		c0.8916063-0.7998047,0.7227058-2.6304169,0.6612053-4.3457298c1.7685118,1.8232117,0,4.6455307,0.1924009,6.6757469
		c1.9072132,0.9073067,1.6455116,2.9834213,2.8603287,3.8374252c-1.8379211,1.2613106-1.2920094-1.3071098-2.4228258-1.8920135
		c-0.284193,2.207016,2.4462175,4.691433,2.9765205,7.3750534C12.0362825,53.1868668,7.4131513,45.681015,9.5440655,39.3904724z
		 M15.0578041,52.9642677c0.8613052,0.1459999,0.200201,1.9302101,0.4619026,2.7378159
		C14.6730013,55.409584,14.3887987,53.6639709,15.0578041,52.9642677z M20.6339512,16.2882118
		c0.7530041-1.6225109-1.3769188-3.6601248-1.3457184-5.8447399c1.183609,0.0771008,0.5996037,2.0615149,1.6455116,2.3076162
		c-0.200201-1.331109-2.0381145-5.79884,1.7686119-5.9453411c2.492218,4.1533289,1.7383118,10.6435728,0.0692997,14.9200029
		c-2.3681164-1.9536133-2.8916187-5.8369398-4.1992283-8.9058619
		C19.6183357,11.9893827,20.1417389,15.1730051,20.6339512,16.2882118z M21.5871487,22.148653
		c-1.3770103-0.1465015-2.506918-4.068428-2.9454212-6.583046C20.2726402,17.0880184,20.5031414,20.0797386,21.5871487,22.148653z
		 M18.5031281,24.2096672c3.1836205-1.1768074,3.1836205,8.9976616,3.5527229,13.6274948
		C19.296032,34.9685402,21.7716503,26.5470829,18.5031281,24.2096672z M22.6408558,57.4554977
		c-1.8760128-4.6064339-6.045042-12.1738853-2.4912167-17.5958214c1.0449066,1.7534103-0.2618027,4.5757294-0.592804,6.2983437
		c1.9990139-0.3999023,0.6533031-3.9526291,2.6220169-4.3911324c0.170002,1.8223152-0.2304001,3.0991211-0.6533031,4.337429
		c0.1611996,0.5459061,0.6846046,0.0152016,0.7539043-0.4155006c1.2764091,1.468811-0.5614948,3.2529221-0.6230049,4.7295341
		c1.045908,0.2388,0.7148056-0.8301086,1.1230087-1.2149086c0.9453068,1.5459099-0.9228058,3.6993256-0.600605,5.9141388
		c1.1465092-1.3457108,0.4239044-0.2383003,0.4239044,1.1611099c0.6914043-0.1152039,0.8838043-0.699707,0.7304039-1.5918121
		C24.2101669,55.1556816,23.8556633,57.685997,22.6408558,57.4554977z M35.9919472,283.59375
		c0.5694046,0.0772095,1.0157089,3.1992188-0.2919998,2.7530212
		C35.4382439,285.0781555,35.9001465,284.5166626,35.9919472,283.59375z M36.4841499,300.0665588
		c-0.9843063-0.8457031-1.8076096-1.8609009-2.0683136-3.4756165
		C35.7996483,297.0137634,35.6687469,299.0362549,36.4841499,300.0665588z M35.4080544,290.2843018
		c-1.4766197-0.2612915-0.3008118-1.8917236-0.0704117-2.7452087
		C36.5378532,288.092804,35.0613403,289.2695923,35.4080544,290.2843018z M32.3162231,265.2518311
		c0.7539062,0.3613892-0.1231003,2.3916321-1.1075077,2.3843079c-0.0078011-0.5228882-0.0390015-1.0458984-0.0390015-1.5687866
		C31.8318195,266.0673523,32.1619225,265.7440491,32.3162231,265.2518311z M31.031023,168.3136597
		c-1.338419-0.0771027-1.2075176-1.707016-2.4224262-1.8843079c0.4307022-0.884201,0.3926029-2.184021,1.5083103-2.406723
		C29.039299,165.9523468,31.2009144,166.1984558,31.031023,168.3136597z M32.3845215,147.8570251
		c1.3076096,0.2845917,0.2315102,3.3989258-0.2607002,4.3296204
		C31.169714,151.2637482,32.5779228,149.3409271,32.3845215,147.8570251z M32.0925217,125.0931625
		c-0.9912071-1.4917068-1.9072132-3.0913162-2.1069145-5.4292374
		C32.5779228,119.455925,32.8083267,123.0477524,32.0925217,125.0931625z M31.5007172,157.7007904
		c-0.230402-4.9145355,2.0996132-7.4214478,3.9991264-10.3286743c0.6845055,0.5386047-0.8847961,2.1846161-1.0840073,3.1690216
		c1.4453087-0.1616974,1.0840073-2.0303192,2.6914177-2.0381165c-0.5918045,2.6069183-1.6991997,4.7602386-2.9453201,6.7597504
		c0.5839043,0.7618103,1.2988091-1.5610046,1.9072151-2.0146179c0.1455002,1.6533203-2.0147133,4.4526367-2.9531136,6.3672485
		c0.7070045,0.5,2.0224075-1.6377106,2.6836128-2.429718c0.4541016,1.8379211-2.9913216,3.2759247-3.3760262,5.5908356
		c-1.2842083-2.5068054-2.1992149-6.2988434-1.4531097-9.7744598
		C31.8923187,153.7784576,31.2009144,156.2549744,31.5007172,157.7007904z M35.0388412,145.0341949
		c0.4297028,1.9307251-0.9844055,2.1153259-1.0547066,3.5611267
		C33.1160355,147.7803192,33.8308334,145.1728973,35.0388412,145.0341949z M38.913868,169.2594757
		c1.5772209-0.1382141,0.1924019,2.4380035-0.7226067,2.3765106C37.7302589,170.182373,39.1374702,170.489975,38.913868,169.2594757
		z M37.7302589,169.6901703c-0.0693016-0.9692078-0.1006012-1.8921051,0.3301048-2.3687134
		C38.9451675,167.6061554,39.4373703,169.913269,37.7302589,169.6901703z M38.1912613,172.0280914
		c0.2304039,1.3149109-0.7539024,2.3379059-1.5069084,1.6147156
		C36.6843529,172.6432953,37.2068558,172.1046906,38.1912613,172.0280914z M35.2693443,165.8371429
		c1.0224037,1.2304077-1.1152992,2.753418-1.4463043,3.9687347
		C32.3542213,168.1447601,34.9460487,167.0753479,35.2693443,165.8371429z M32.4851227,164.7375336
		c0.853508-1.4844055,1.3379173-3.3145142,3.0147209-4.0147247c-0.1622009,1.1074066-0.5000038,2.0537109-0.6846046,3.1611176
		C33.8611336,161.5226135,34.0544357,164.5451355,32.4851227,164.7375336z M31.4314156,182.0413513
		c0.5537052-2.7842102,3.1914215-3.5840149,5.3525391-4.8682251c0.5850029,0.222702,0.4229012,3.2837219,1.6075096,1.5225067
		C38.2839622,180.372345,33.6619301,181.095047,31.4314156,182.0413513z M35.7615471,182.7024689
		c-0.6768074-0.4229126,2.3379135-0.5693054,1.9072113-2.022522c1.4375114-0.1688995,2.1992149,0.3769989,3.1533318,0.6924133
		C39.4910812,182.1331635,37.4685593,182.2639618,35.7615471,182.7024689z M46.5663223,176.4885254
		c-0.6534081,1.4766083-2.5606194,2.7305145-4.2373314,2.0918121
		C43.2751961,177.4573212,44.9823112,177.0266266,46.5663223,176.4885254z M41.3748856,173.5045929
		c-0.0684013-3.1298218,1.4462166-8.0517426,3.2148209-10.6972656
		C43.5750008,166.4220428,43.2126961,170.6593781,41.3748856,173.5045929z M44.8202095,157.3008881
		c-1.3760109,5.3604431-3.1524239,11.7588806-4.5909309,17.0265198c-0.5918045,0.5771027-1.8076134,0.5771027-2.3300171,1.246109
		c-0.2080002-2.5147247,2.5918274-5.4526367,3.3066216-8.3442688c-0.3535004,0.2924042-0.5840034,0.7309113-0.752903,1.1997223
		c-0.4698067-0.7305145-1.0156097-1.3457184-1.246109-2.3223267c1.0605049-0.0614929,0.7998047,0.6304016,1.5527077-0.046402
		c-0.1767006-0.7382965-0.8613052-0.9613953-0.8301048-1.9302063c1.1846199-0.2920074,1.0381088-1.8149109,1.8995132-2.4150238
		c-0.1924019-0.5767059-0.5147018,0.1694031-1.1768074,0.0312042c1.0840073-1.5078125,2.4531174-2.7685242,3.3838234-4.4145355
		c-1.3838081-0.0463867-0.7227058,1.8608246-2.2998161,1.6382141c-0.014698-0.6537933-0.0303001-1.3076019-0.0606003-1.9610138
		c1.8604126-0.6230011,1.8301125-2.1460114,3.4375343-3.6377258c-1.1465187,0.0615997-1.4384193,0.9380188-1.9072227,1.6299133
		c-1.1074066-0.5760956-0.1230011-2.3530121,0.2998009-2.7607117c0.5225029,0.1230011,0.6309052,0.6766968,1.1914177,0.7539062
		c-0.2685127-1.4072113,0.4160042-1.9151154,0.7157974-2.768631
		C47.7049294,151.9175568,45.3749123,155.2168732,44.8202095,157.3008881z M41.798687,134.6215363
		c1.3457108,6.4829407,0.5000038,13.5044861-1.8379135,17.7267151
		C39.0837708,145.8653107,38.1218605,138.2207489,41.798687,134.6215363z M42.652195,149.9102325
		c0.0303001-0.9766083,1.3223076-0.1537933,1.5527077-0.0458984c-0.3379021,0.6919098,0.092804,2.1069183-1.0996056,1.9990082
		C42.874897,151.2945404,43.5056992,149.8179321,42.652195,149.9102325z M45.8358154,125.0853653
		c0.0312004,4.2603226-0.5918045,7.5522537-0.0078011,12.5586929c2.207016-2.4458313,1.1611176-7.898056,2.0302162-10.658783
		c1.6231117-0.3691025,1.5000076,1.0996094,2.4073143,1.4990082c1.2842102-0.0614929,1.4687119-1.1611023,3.1142235-0.8764038
		c0.1767998,0.3461075,0.3623009,0.6919098,0.7920036,0.7612c0.2002029,4.0376282-4.7295303,5.1377411-3.2529221,9.12117
		c2.599617,0.0458984,2.0996132-2.8535156,5.0225334-2.4995117c0.960907,6.7290344-5.2530327,9.3667603-7.4141502,14.3501892
		c-0.8994064-0.5381012-1.9375114-0.9228973-3.5684242-0.6768036c0.5157051-4.6216278-4.4990311-15.565506-0.6914024-23.5323563
		C45.0819092,125.7621689,44.7596092,125.078064,45.8358154,125.0853653z M43.2126961,116.1258011
		c0.2393036-1.814415-1.3759079-3.083519-0.5068016-4.2988281c0.8994064,0.6465073,0.9990082,2.1846161,1.2686081,3.4990234
		c1.6074104,0.6846085-1.7071114-9.4512634-0.1993027-6.6748428c0.6153069,1.5225067,0.3916054,3.9063263,1.3379211,5.0679321
		c0.4306908-1.4229126-0.208004-5.1680374-0.5927162-7.0523453c2.3691177-0.7690125,1.8388138,1.5459061,3.5761261,1.4688034
		c-0.5223923,5.4912415-1.9228134,10.151474-5.1142349,13.1045914c0.5000038-0.7919998,0.6924057-1.883812,1.0849075-2.776413
		c-1.5156097,0.0463943-0.9619064,0.2461014-0.430603-1.9531174c-1.0850067-0.2383041-0.7539062,0.8306046-1.1464996,1.2075119
		C41.4831848,117.4105148,42.5212936,114.9880981,43.2126961,116.1258011z M41.806488,121.6707382
		c1.568409,7.1602554-2.807621,14.3658981-4.8916321,20.5568466c-1.6768036,0.0458984-2.4990196-0.8384094-4.3369331-0.6538086
		c1.4453125-6.3521423,2.4609184-14.2505951,2.1679153-20.0875397c1.9385147-0.5918045,1.1153069,1.7763138,2.0303154,2.2920151
		C39.5984726,123.4471512,39.4294701,121.778244,41.806488,121.6707382z M32.4470329,110.165863
		c1.1376991-0.8536072-0.5849133-2.0454178-0.1006088-3.5298233c0.7237053,0.0228958,0.2998009,1.2920074,1.2159081,1.1382065
		c0.0760994-2.0069122,0.7841034-4.0069275,0.5683022-6.6905441c0.6465034,1.222702,0.8457069,2.8994141,1.6992111,3.8760223
		c1.7696152-0.7920074-0.6220016-2.3843155-0.5146027-3.9072266c4.5527306-1.5840073,1.6299133,18.518631,1.7304115,5.4453354
		c-0.9541054,3.6680298-0.7235947,8.4668579-1.6074104,12.2197876c-1.1152-0.2919998-0.9843063,0.5850067-1.9384117,0.4463043
		c-0.2607956-1.5303116,1.2773056-2.4844208,0.2929001-3.5376282c-0.6766968,0.89991-0.8769073,2.2300186-1.4765091,3.1841202
		c-1.8379135-2.2612152,1.2841072-6.9219437-1.1075077-10.1748657
		C32.2927208,108.4353485,31.6316185,110.0891571,32.4470329,110.165863z M31.3933163,114.1267853
		c-0.8076057-0.653801-0.9150066-2.007309-0.9072056-3.5068207
		C31.6619186,111.1423645,31.8923187,112.9040833,31.3933163,114.1267853z M30.6550198,116.1107025
		c-0.6313133-0.5537033-0.8618145-1.507309-0.8618145-2.7222214
		C30.4089088,114.0037842,31.4392166,115.2263947,30.6550198,116.1107025z M29.3391018,138.1284485
		c-0.6610947-1.8150024-0.5000038-3.6529236,0.6465054-4.722229c-0.8535061-0.0536957-1.246109,0.3540039-1.1465092,1.2080078
		c-1.668911-0.4385071-0.0692997-2.0000153,0.315403-2.753418c-0.6767044,0-1.0068073,0.3149109-1.161108,0.8149109
		c-1.3154011-0.9072113,0.4531021-2.0996246,0.7148056-2.7685242c-0.1308022-0.9307098-1.0527077,0.4692078-1.1455097,0.8232117
		c-1.4150085-1.2383118,0.815506-2.2685242,1.0772076-3.1763229c-1.4004097-0.1694031-0.9160061,1.4224014-2.3233147,1.2457047
		c0.3155022-1.2457047,1.438509-1.6993103,1.4766102-3.1836243c-0.8379059,0.6152039-0.8535061,1.9917145-2.2998161,2.03022
		c0.1934013-1.4765167,1.3076172-2.0688171,1.869112-3.1992264c-1.3378086,0.0156021-1.4150085,1.199707-1.891613,2.0225143
		c-0.9618969-1.0459061,1.1377087-2.4610138,1.46101-3.5762253c-1.0762062,0.392601-1.6074104,1.2842102-1.8994122,2.4150162
		c-1.2149086-1.0537033,0.7617054-2.3149109,1.0839081-3.1762238c-0.2919025-0.8535004-1.2841091,0.7768097-1.5146122,1.223114
		c-0.6152039-1.3154144,1.0850086-3.1611252,1.44631-3.9687271
		C30.0544071,122.3553467,33.7537308,133.6064301,29.3391018,138.1284485z M27.4318886,33.7610321
		c1.7685127-2.0762138,2.9458199,6.4443474,0.9844074,6.2524452c0.3535023-2.3994179-1.3457088-2.6382179-1.3155098-4.6758347
		c1.0928078,0.1768036,0.7617054,1.8687134,1.246109,2.7144203C28.6780071,37.1448555,29.1702003,34.2991371,27.4318886,33.7610321z
		 M26.4093819,51.8490601c0.9610062,0.8457031,1.175808,2.5302162,1.6758118,3.8759232
		c1.0156059-2.4223137-1.6455116-4.4453278-1.3916092-7.420948c0.930706,0.7686043,1.1309071,2.3145142,1.2920074,3.8911247
		c1.2148094-1.8383102-0.9150047-3.606926-0.5615025-5.8754387c1.0224056,0.6611023,0.8925056,2.5605164,1.2841091,3.8916245
		c0.9161053-1.5381088-0.6611061-3.8687248-0.9531078-5.468338c1.1153088-1.0073051,1.3457088,2.330616,1.6758118,3.4839249
		c1.1470089-1.5152092-0.5996037-3.3838234-0.530304-5.0908356c0.7920055,0.645504,1.0928078,1.7915115,1.2544174,3.1064224
		c0.7226963-0.9380074-1.1157169-4.3218307,1.0458984-4.7451324c2.1299152,6.583046,0.2617016,13.5352936-1.0078068,19.2647324
		c-1.9380131-1.1074066-0.861805,3.4224205-3.483923,1.6768112c1.376009-1.4385109-0.6924057-3.0303192-0.5615044-5.4756355
		c0.5996037,0.3153992,0.8848057,0.9536057,0.8535061,1.9302101C28.5773964,56.7708931,26.4093819,54.6097755,26.4093819,51.8490601
		z M24.7706699,63.2846375c1.1153164,3.6377258,1.1846085,8.4902573,1.2002087,14.0967941
		c0.0459003,6.7295532-0.5693035,14.7657013,0.6690044,22.3565598
		C23.617363,88.6940155,24.5402699,76.0357285,24.7706699,63.2846375z M22.1183529,106.5437393
		c3.9902267,0.7768021,3.5684242,6.2217407,5.0137348,9.6748657c-0.2920036,1.1533051-1.015707-0.4844055-1.9688148,0.0458984
		c0.2617111-2.0147171-0.9072056-2.5454178-0.9150066-4.2832336c-0.8612957,0.1919022-1.3848095,0.7383118-1.5147095,1.6147156
		c-0.9843063-0.4536057-0.1308002-2.360817,0.2989025-2.7612228c-0.1914024-0.5762024-0.4922047,0.1773071-1.175808,0.0391006
		C22.509964,109.5203552,21.2951469,108.1125488,22.1183529,106.5437393z M6.944448,110.5271606
		c4.667932,0.2851028,2.96872,7.3525543,8.0517559,7.221756c0.815505-2.7920227-2.9297199-6.2525482-1.8379126-9.3672714
		c0.3926105-0.0151978,0.7842054-0.022995,1.1768074-0.0302963c2.0000134,0.1532974,0.9531069,3.568428,2.492218,4.2451324
		c1.0527077-2.9843216-1.277401-5.5761414,0.9219055-7.8828583c4.1689281,1.57621,1.6074123,11.4663773,4.4218311,16.3575134
		C19.1261311,130.3226929,4.883842,118.1258163,6.944448,110.5271606z M18.3800259,126.2850723
		c1.7383118,0.653801,2.3535175-3.0762177,3.137722-0.8769073c-0.3232021-0.0615997-0.4150028-0.3843002-0.8154049-0.3692017
		c-0.1299019,1.4766083,0,2.0303116-1.0840073,3.1768265C18.841938,127.9618835,18.5421276,127.2000809,18.3800259,126.2850723z
		 M20.564642,132.8915253c-1.3691101,0.2304993-0.2920017-2.1152191-1.2539082-2.3154297
		c0.0770988-0.430603,0.7695045-0.2919922,0.7539043-0.8070984
		C21.1945457,130.6376038,19.5880356,131.8681183,20.564642,132.8915253z M18.272625,135.7138367
		c-0.261692,1.4844055,0.5459042,1.8609161,0.4922047,3.1221161c-2.1611156,0.2768097-1.5684109-2.3838043-3.9688282-1.8379059
		C15.2580051,135.9062347,16.8732166,135.9135437,18.272625,135.7138367z M12.1123838,139.8203735
		c1.045907-0.2920074,1.4004087-1.2227173,1.8995209-2.022522c2.1689062-0.0077972,2.3613081,2.0918121,3.9990282,2.6299133
		c0.9843979,0.0386047,1.2147999-0.6454926,1.9687042-0.8379059c0.2696018-1.5693054-0.6914043-2.8838196-0.1230011-3.5303192
		c4.4912319-0.5917969,1.699213,6.5679474,3.7988262,8.5215607c4.2608299-2.4307251-1.5068092-7.9980621,0.8535156-10.62117
		c0.423893,1.5693054,1.7080116,2.2227173,2.8535099,3.0537109c0.0079002,1.7071228,0.6231041,1.7842102-0.3300018,2.7608185
		c0.0996017,0.5615082,1.183609,0.0996094,1.1914082,0.753418c0.0615005,6.4829407,2.2544155,15.0426025-5.844841,14.6968994
		C21.3869553,147.526413,13.3194914,147.3262177,12.1123838,139.8203735z M15.6271076,165.6295471
		c-1.5840111-6.1445465-8.1289558-7.0136566-9.8135681-13.058197c2.9463286,0.5225067,2.3233247,4.8291321,6.7832465,3.7217255
		c-0.3222017-2.4834137-1.47651-4.0830231-3.2832222-5.0058289c0.2617016-0.8926086,2.1992149-0.2158966,3.129921-0.4849091
		c2.9072208,1.8999176,2.3838167,7.4521484,5.3760376,9.2671661c0.845705-4.2759247-3.3457232-6.7061462-4.2383289-10.4746704
		c-0.0684013-0.7304993-1.3379097-0.2075043-1.5996113-0.7383118c1.8613214-3.3989105,6.1299419,0.2002106,7.1523571,2.5303192
		c-0.4004116,0.0156097-0.784214,0.0307007-1.1845169,0.0384979c2.522419,2.7144318,3.5068245,7.3829651,2.72262,12.4815979
		C19.6183357,165.0607452,18.2111244,165.9064484,15.6271076,165.6295471z M17.257019,167.1525574
		c-0.3614025-1.4844055,1.8388119-0.5537109,2.7226181-0.8691101c0.5616035,4.9990387,3.8067265,9.0820618,4.6836319,12.4277802
		c-1.6230106,0.3535156-2.0302124-0.5458984-3.560524-0.2846985
		C19.7804356,175.1506042,20.7335434,169.2521667,17.257019,167.1525574z M18.4728279,182.0335541
		c2.6221256-4.2295227,6.03615,0.2841034,7.543951,2.9145203C24.0246658,183.4177704,21.2335453,182.7410583,18.4728279,182.0335541
		z M22.4406548,156.7930908c1.4072094-0.0615082,3.0918217,0.1230927,3.5068245-0.8916168
		c1.0615158,1.1533051-1.3760109,2.2451172-1.4687099,3.5757294c1.3076077-0.1768036,1.668911-1.2227173,2.2919159-2.0303192
		c1.2149067,1.0386047-0.4921036,2.568924-0.6845055,3.5532227c1.1455078-0.1922913,1.246109-1.3769073,1.9072132-2.0151062
		c1.1387081,0.6459961,0.3926105,1.0151062,0.4609032,2.3379211c-0.3066025-0.199707-0.6298046-0.3921051-1.1914082-0.3613129
		c0.2696018,0.9301147,0.5918045,1.8149109,1.6377106,1.9223175c-0.6152039,0.6923981-0.1924,3.5147247-1.5068092,2.3916168
		c0.5000019,2.5767212,3.7837257,2.1846161,3.3149223,5.7989349c-1.5766106-0.6152954-2.0923138-2.3760071-3.6079254-3.0376129
		c0.6846046,2.2148132,3.7075253,2.7915192,2.8926201,5.4062347c-1.3311081-0.1919098-1.44631-1.6919098-2.4307175-2.2763214
		c-0.8916054,0.9921112,1.7305126,1.6689148,1.6690121,3.0913239c-1.57621-0.222702-1.438509-2.2530212-3.2070217-2.2608185
		c0.2001019,1.2612152,1.3691101,1.515213,2.0302143,2.2920227
		C21.8790512,175.2502136,23.0402584,163.530426,22.4406548,156.7930908z M27.9855919,185.2864838
		c-1.1455078-1.7456207-1.3457088-3.7910309-0.5615025-6.2676544c0.7920055,0.0845032,0.1385994,1.738327,1.215807,1.5381165
		c-0.1308918-0.9766083,0.369112-3.3682251,1.4458103-4.3604279c0.7539062,4.4912262-2.0689144,9.6514587-1.5083103,16.1422119
		c0.3310032,0.0614929,0.4238033,0.3764954,0.8154068,0.3692017c-0.0615005-0.9380035,0.6929035-3.3765259,0.9234047-5.4527435
		c0.0312004-0.2841034,0.0390015-0.5843964,0.0693016-0.8612976c-0.0303001,0.2769012-0.0381012,0.5771942-0.0693016,0.8612976
		c-1.1841068,15.9806213-1.6539097,34.9612427-0.3228016,52.9334717c0.5532036,7.3213501,3.2378216,16.5426025,1.0767078,21.4948425
		c0,0.0385132,0,0.0848999,0.0077991,0.1230164c0.9453068,1.1924133,1.1377087,0.8461914,0.4228039,2.6841125
		c-0.1386013-0.8921204-0.2695026-1.7915039-0.4228039-2.6841125c-0.0077991-0.0229187-0.0156002-0.030304-0.0390987-0.0537109
		c0-0.0228882,0.0234985-0.0458984,0.0312996-0.0693054C26.8400841,235.2170258,27.5246887,208.3579407,27.9855919,185.2864838z
		 M30.1394081,271.2045593c1.1924076,1.184021-0.1851025,3.7758484,0.5381031,4.6909485
		c0.8848057-0.7998047,0.592804-2.7451172,1.045908-3.9527283c0.9541054,1.0381165-0.0615005,3.4839172-0.252903,4.714447
		c1.5683098,0.3378906,1.1835175-1.1689148,1.5068092-2.0073242c0.7842064,0.2230835-0.592804,4.683136-0.1689987,7.0752563
		c0.6612053-1.1460266,1.3145065-2.315033,1.0528069-4.3531494c1.023407,0.9385071,0.1308022,6.4063416-0.5606041,8.2676697
		c0.3916016,1.0458984,0.922905-0.8612976,1.1534081-1.2153015c0.8916054,1.2846985-0.1690025,1.5765991,0.1152,3.5298157
		c-0.645504,0.1307983-0.7002029-0.3535156-1.2002068-0.3535156c0.4775009,1.6533203,1.3467064,2.8759155,1.3154068,5.0605469
		c-1.0459061-1.0386047-1.4531097-2.7461243-2.068306-4.2529297c-0.4922104,2.0146179,1.8681068,4.483429,1.7763062,7.3979492
		C29.6008034,290.7149048,27.4318886,279.6484375,30.1394081,271.2045593z M1.2149084,262.6376038
		c1.8310125-6.8218384,4.691432,1.2148132,6.7529545,2.5449219c1.0840073,0.2539062,0.7841969-0.7998047,1.5449028-0.8301086
		c0.2080011-3.8608093-2.9531207-4.1299133-4.4980311-6.1523438c0.168901-2.5074005,0.3301105-5.0298309,1.3838091-6.706131
		c5.2451367,1.9766083,4.5605311,10.2510529,8.259758,13.8809967c5.7520399-5.2832336-12.5586872-17.1036224,0.9991064-18.8722382
		c4.2607288,2.2607117,2.4150162,7.7676544,3.1386223,12.8662872c0.2608013,1.7070007,1.7071114,3.0840149,2.106514,5.0449524
		c0.7842045,3.7295227-0.3379021,7.6670532,1.8769131,10.5357666c-1.1308079,1.3384094-2.7685108,2.2075195-5.0302353,2.5073242
		C12.9121885,271.8046875,5.0371346,269.3817749,1.2149084,262.6376038z M6.2989435,261.6990967
		c0.6923046-1.1459961,2.4912167,1.3076172,1.637711,1.9150391C6.8604474,263.5292358,7.1827493,261.9833069,6.2989435,261.6990967z
		 M13.3194914,259.922699c1.0078068,0.4151001,1.1845083,1.6992188,1.2773094,3.0991211
		C13.781395,262.3836975,13.4815931,261.2299194,13.3194914,259.922699z M19.0568314,294.3067322
		c-3.6299162-3.4761353-8.9209528-7.2519531-7.5127516-14.7041931c0.9531059,0.7539062,0.7529049,2.7149048,1.2832088,3.8916321
		c1.1230078-0.092804,0.685504-1.6611328,0.7236128-2.7685242c1.0458994,1.7684937,1.3457012,3.0761108,3.2764149,5.3984375
		c-0.916007-0.2383118-1.3770103-0.9614258-2.0000143-1.5151062c0.0537004,1.8457031,4.0449286,2.9837952,4.4990301,5.7602234
		c-1.4463081-0.4921875-2.069313-1.8457031-3.2226219-2.6533203c0.2314014,2.453125,2.9765205,2.2383118,3.2841225,4.6142273
		c-3.052721-1.3691101-4.1914282-4.7373352-6.8828468-6.4677429
		C14.1123972,288.7695923,18.272625,293.1915283,19.0568314,294.3067322z M25.1945744,290.1925049
		c-1.1778088,0.5223999,0.4687023,1.3377991,0.0683002,2.3530273c-2.7451191-4.7066345-3.6757259-9.0288696-5.9062405-13.9580994
		c3.0146198-0.7846985,5.7754383-4.3452454,7.0830479,0.1844788c-0.8154049-0.207489-1.2842083-0.7845764-1.9990139-1.1224976
		c0.4609032,1.6992188,0.4609032,0.7070007-1.1465073,0.8222961c0.423811,1.7001343,2.069313,2.1074219,2.8535194,3.453125
		c-0.0615005,1.0078125-0.6924057-0.5224915-1.5762119,0.0464172c0.6914062,2.0917969,2.8223209,2.660614,3.2832241,5.0063171
		c-0.3925037,0.0078125-0.7841053,0.023407-1.183609,0.0308228c1.8067131,3.0913086,3.4146233,6.3676453,4.6294327,10.0747681
		C28.9083996,297.4366455,26.8087845,292.499115,25.1945744,290.1925049z M30.3474083,304.5656128
		c0-1.0073242,1.4453106-0.6689148,1.9297142-1.2305298c-0.2842026-0.3226929-1.8682137-1.1766968-1.9912148-0.3378906
		c-1.284708-0.9920959,1.476511-1.3925171,1.1074085-2.7763062c1.8457203,1.6914062,2.5381184,4.5757141,3.3525219,7.3593445
		C33.3005295,306.5578308,32.1316223,305.2194214,30.3474083,304.5656128z M47.0204239,390.4450989
		c1.4072113,24.5636597,1.7998123,55.2484741,3.245121,83.5259705c1.4765129,28.4317932-0.5840034,58.1937866-0.9843979,86.4028931
		c-0.2919998,21.2716675-1.4766197,42.2357178-1.6689186,62.4770508c-0.0694008,6.5986328,0.8847046,13.350708-0.9844093,19.6651001
		c-2.7529182-0.9842529-1.0225067-4.1835938-0.9688034-5.868103c0.607502-16.1808472-0.6767044-33.3303223,0.1152992-49.4730835
		c0.9150047-18.7716064-0.0615997-38.013855,0.2617035-57.3323364c0.6074028-38.1448059,2.1611214-77.6968689,0.1230011-115.4188232
		c-0.7080078-12.7734985-1.2002106-25.2471924-1.8994141-37.6369629
		c-0.9764977-16.818512-4.3613319-33.2307434-5.8066406-49.6878357c-0.0996017-1.2070312-0.6924057-3.2920227,0.2998009-3.5449219
		c0.0156021,0.5223999,0.0303116,1.0448914,0.0381012,1.5682983c0.8466072-3.4223328-4.6368217-10.5127563-1.2227097-14.8808899
		C42.221489,336.1810303,45.3749123,361.9674072,47.0204239,390.4450989z M35.5691452,309.1261292
		c-0.0380898-2.6455078-0.592804-4.7529297-1.3770103-6.6367493c1.1455078-1.2225952,3.2686234,0.0772095,4.691433-1.3153992
		c-0.3613014,1.8999023-0.7539062,3.7920227-0.2304001,5.5068359c1.5068092-0.7460938,1.5381088-2.8686218,2.6220169-4.0068359
		C41.8982887,306.4650269,38.913868,308.3185425,35.5691452,309.1261292z M42.5291023,292.4302063
		c0.0839996-1.4150085-1.192318-1.4076843-1.2539177-2.7148132c0.6543045-0.1229858,0.6924057,0.3540039,1.1924095,0.3618164
		c-0.1767044-1.2920227-0.9619102-1.9306335-1.645504-2.6997375c0.6610947-1.4613953,1.0840073-1.1688843,1.107399-2.7836914
		c-0.1543007-0.8154297-1.0468063,0.6152954-1.2080078-0.7461243c0.592804-0.5996094,0.8848038-2.0381165,1.4688072-3.5761108
		c-0.1923981-0.5767212-0.4921913,0.1688843-1.1768074,0.0307007c-0.7226028-1.2920227,0.2930031-1.9302368,0.6924057-3.1606445
		c-0.0693016-0.4541016-0.7227058-0.3075867-1.2070084-0.3613892c-0.0772018-1.8613281,1.4687119-2.1845093,1.4687119-3.9687195
		c-0.1308022-0.9302063-1.0537071,0.469696-1.1533089,0.8232117c-0.8311081-0.4384155,0.5918121-1.9609375,0.6992035-2.7685242
		c-0.1385994-1.3770142-1.4228096,1.030304-1.5840111-0.3462219c0-1.6532898,3.0069199-0.4770813,4.2989311-0.9150085
		c-1.4073029,8.1826782-1.0157089,20.2486572-1.1846085,26.3395081c-1.5684128,0.4541016-1.7686119-0.5610046-2.3916168-1.0996094
		c0.315403-1.1611328,0.5850029-0.460907,1.5693092-0.4458008
		C42.2986908,293.7144165,40.8826828,292.3380127,42.5291023,292.4302063z M49.281147,280.8486328
		c-0.4150009,0.0072937-0.784214,0.022522-1.1846161,0.030304c-0.0223923-0.5224915-0.030201-1.0458984-0.0615005-1.5684204
		C49.0809364,279.164032,49.0887375,280.0947266,49.281147,280.8486328z M48.3280334,289.1152954
		c-1.2080078-0.1918945-0.9844093-1.907196-1.6387138-2.6992188
		C47.7733307,286.7392883,48.1122322,287.8696899,48.3280334,289.1152954z M50.0038452,292.2071228
		c-0.4610023-0.8770142-1.1612091,1.1611023-2.3301163,0.8535156c0.0312004-0.699707-0.5155945-0.8149109-0.4531021-1.5532227
		c1.6455193,1.5996094,1.2763062-2.0381165,3.4755325-2.0689087c-0.5224152-0.8227234-1.5771217,1.0230103-2.7226295,0.8692017
		c1.6377106-0.992218,1.4072113-3.7608337,3.0068207-4.8067322c-0.2919998-1.1611023-0.8379059,0.3999023-1.5683098,0.0458984
		c-0.5538063-1.1376038-0.4004021-1.9223022,0.6992035-2.3681335c-0.3692017-1.0614929-0.8300972,1.2148132-1.5528107,0.0381165
		c0.6231041-0.7919922-0.0615005-0.492218-0.0615005-1.5684204c0.5840034-0.469696,0.9844093-0.4848938,1.5762215-0.0463867
		c-0.13871-0.8843079,0.0614891-1.4692078,0.7382965-1.5845032c-0.9688072-0.2226257-1.46101-0.1381226-1.2383003-2.3222351
		c1.4844017,0.2153015,1.5850105-1.6768188,3.061512-2.4453125c-0.3008041-0.9771118-1.023407,0.753418-1.9385033,0.4458008
		c1.1152954-1.9458008,1.3691978-2.3765259,2.2305031-4.3833313c1.3301125-0.3467102,1.669014,0.3916016,2.3604164,0.7148132
		c1.4306107,10.5742798-1.6377106,20.0187378-7.9053535,24.5787659c0.0918007-0.8070984,1.022419-0.7998047,1.1377106-1.6069031
		c-0.9452972,0.2841797-2.421917,2.0224915-3.1065216,1.2684937
		C46.4051285,295.2139282,48.0350304,293.4068298,50.0038452,292.2071228z M49.7733421,297.7134705
		c-3.5449257,1.745697-6.1983414,4.3296204-8.0293541,7.6983337c-0.5606041-1.8149109,1.2080078-4.7066345,2.1767159-6.3521423
		C46.550621,299.2515564,47.2811356,297.6597595,49.7733421,297.7134705z M44.1903038,268.0360413
		c-0.3233032-3.5918274,2.9531212-7.1138306,4.3984299-10.335968c-2.6533165,1.5688171-5.0449333,6.6904602-6.3603439,10.7895813
		c-1.9610138-0.0922852-2.1993065-1.9761047-2.0987129-4.2524414c-3.3154221-7.421936-8.3056488-19.6036224-3.1220207-26.2169647
		c1.7607117,0.184494,1.9062119,2.3838196,3.6142235,2.6455078c2.4610176,0.3691101,3.1455231-1.5693054,5.0518341-1.3384094
		c-1.2764091,3.4302368-6.2363434,9.3980713-1.57621,12.6201935c5.2910347-1.5610046,1.246109-9.7134705,5.1221352-12.7280884
		c1.7998123-0.199707,3.7373276,2.7227173,5.2138367,4.1685333c0.0694008,2.3530121-0.6914062,3.9223175-1.383709,5.5449371
		c0.1074104,2.3379211,2.2988129,2.660614,4.3681297,1.8305054c1.1153145,2.7071228-0.4238052,5.5445557-0.9463081,7.8824463
		C51.4500542,260.914917,48.919838,265.5057373,44.1903038,268.0360413z M44.8436089,250.3552246
		c-2.3457146-1.2378082-0.4072037-5.1523285,0.1688995-7.0752411
		C46.0975189,245.2951965,46.2284164,248.7791138,44.8436089,250.3552246z"/>
</g>
</svg>
