<?xml version="1.0" encoding="UTF-8"?>
<svg id="lemon" xmlns="http://www.w3.org/2000/svg" version="1.1" viewBox="0 0 1067.409486 1000">
  <!-- Generator: Adobe Illustrator 30.0.0, SVG Export Plug-In . SVG Version: 2.1.1 Build 123)  -->
  <path d="M625.4752253,57.89993c-4.0127231.4255184-9.7311565,4.9777163-7.564771,9.9978088,4.7000989.8401803,9.6135631-5.1146522,7.564771-9.9978088Z"/>
  <path d="M646.6784055,79.5407516c-1.4086961-.4194569-2.8295153-.840126-4.2382114-1.2486721-1.6814643,1.2898904-2.9713548,3.2076999-3.5278018,6.6179623,4.1194519,1.0413683,7.256846.2254884,7.7660133-5.3692902Z"/>
  <path d="M598.0565675,72.7518546c.7455664-2.3264095,1.4086961-4.6891882,2.1191057-7.0628775-2.7822355-1.4438529-4.0369691-.1006212-6.0493922-.2533713-1.9772663,4.2078496-.6752528,6.6531191,3.9302865,7.3162488Z"/>
  <path d="M489.3929968,35.8323227c-3.8599729-1.1189006-5.2795797,5.6469627-3.9181634,8.0327751,7.0313576,1.692375,7.4932451-4.41642,3.9181634-8.0327751Z"/>
  <path d="M672.7598931,94.9794308c-1.7166211-.2606452-2.4027378-1.0547036-2.4027378-2.256096-4.7716716-2.320348-5.517238,2.9010412-6.7610609,7.2216892,4.948621,1.7942085,7.9915016.1418395,9.1637987-4.9655933Z"/>
  <path d="M750.824935,121.2851945c-6.096672-2.5628086-8.2982143,2.1009212-9.9445218,7.7599518,6.6773651,3.6114508,8.4885459-1.7990577,9.9445218-7.7599518Z"/>
  <path d="M719.4287109,113.4597783c-1.4208192-.4206692-2.8173923-.8413383-4.2733682-1.2607952-.6631298,2.3555048-1.3734914,4.7061604-2.0609152,7.0434807,5.2335603,3.2732182,8.264318-2.2488221,6.3342834-5.7826855Z"/>
  <path d="M797.23432,145.7979619c-4.7946585-2.2973143-5.5050681,2.9118996-6.736768,7.2095662,5.7657133,3.800518,8.5358257-3.6526691,6.736768-7.2095662Z"/>
  <path d="M787.9286818,146.1046746c-1.8705836-.5443241-3.7290442-1.1116819-5.6117508-1.680252-.5794809,1.8766451-1.148051,3.7702625-1.692375,5.6469076,4.5570471,2.5276518,6.9840778,1.2074538,7.3041258-3.9666555Z"/>
  <path d="M431.1103159,46.1199814c-4.2151777-1.9651432-5.4105085,1.6450952-6.3451941,5.7948085,5.2201769,3.2671567,8.2630575-2.2609452,6.3451941-5.7948085Z"/>
  <path d="M835.1891035,167.8352066c-4.9122519-1.7517779-8.9855901,4.6055392-7.1853201,8.6012901,5.8954297,1.7166211,7.9903404-3.6114508,7.1853201-8.6012901Z"/>
  <path d="M816.8748415,162.3713568c-5.8129931-3.4029346-10.7967709,1.3262595-9.1637484,4.9849901,4.9255369,1.7990577,7.9914513.1357779,9.1637484-4.9849901Z"/>
  <path d="M609.6704306,100.7560548c-1.4438076,4.7243449-.2727682,8.0447897,1.3020135,11.1410649,6.9137642.4727982,7.7781363-10.8028324-1.3020135-11.1410649Z"/>
  <path d="M416.4656951,54.0399571c.7104096-2.3385873,1.3965731-4.7000989,2.0839894-7.0616652-2.2973548-.6691913-4.6771056-1.3965731-7.0204874-2.1069827-2.6997989,5.4214192-1.0547036,8.4521768,4.936498,9.1686479Z"/>
  <path d="M845.5251993,184.7116772c-1.9069527-3.4453652-3.5047681-1.1953308-7.0677267-2.1251672-3.0671267,5.3038258,6.724645,8.1988055,7.0677267,2.1251672Z"/>
  <path d="M394.9073102,49.150739c-1.8354268-.5503856-3.7532902-1.1189557-5.6117508-1.6572183-.7104096,2.3373203-1.3977854,4.6879759-2.1081553,7.0374191,4.8903908,2.5215903,6.8906908-.3903616,7.7199061-5.3802009Z"/>
  <path d="M358.1830142,64.3227115c6.6652421,2.6925251,9.7663133-3.5399249,6.7476787-7.2107785-3.6466075-.8934673-6.0736382.4267307-7.2932151,3.9484165,1.3505056.4437574.5564471,2.0840034.5455364,3.262362Z"/>
  <path d="M839.6176466,204.4467584c-1.3735393-.4195077-2.8186046-.852249-4.2151777-1.2486721-2.0948597,1.172297-3.0901604,4.4988566-3.9302355,8.0205969,4.6758019,1.332321,6.6057883-2.3846001,8.1454132-6.7719248Z"/>
  <path d="M429.5003774,82.458765c-5.7184334-.3903616-9.2935151,3.2744305-11.8041947,8.7431295,5.1862324-.0412183,14.2663822-1.4256684,11.8041947-8.7431295Z"/>
  <path d="M378.0841809,74.8236805c-5.576594-2.2912527-9.2935151-1.1904816-10.537338,4.5279519,5.9317988,2.9774163,9.365041,1.3614163,10.537338-4.5279519Z"/>
  <path d="M913.2674808,250.8852386c11.057416-13.7087228-16.5988532-6.8895182,0,0h0Z"/>
  <path d="M398.5296717,88.5857446c-5.4820343-2.1009212-8.41702.4146076-9.589317,6.3573171,4.3679279.0424306,8.7843478.1188057,9.589317-6.3573171Z"/>
  <path d="M822.9121107,219.4174886c-1.8936173-.5794809-3.776324-1.148051-5.6590306-1.6814643-.8158799,2.8295153-1.6572183,5.6238738-2.4852212,8.4412661,5.5875554,3.0901102,7.0083239-1.5747816,8.1442518-6.7598017Z"/>
  <path d="M938.9343608,267.7265524c-1.7057104-.2606452-2.4391537-1.0717252-2.4039433-2.256096-4.3801045-1.5093173-5.9197293,2.2027053-7.7309101,5.3935362,3.4574883,2.8295153,8.7613677,3.4502145,10.1348534-3.1374403Z"/>
  <path d="M352.6537,108.6942151c4.9255873-3.5047681,3.7060104-11.6320477-4.108495-11.9508834-2.5215903,6.0906105,1.2086661,8.7782863,4.108495,11.9508834Z"/>
  <path d="M931.510217,282.4002684c1.0304576,2.5749317-.6510067,6.6361468,3.9424095,7.3162488,1.6935873-1.2959519,2.9725671-3.2319999,3.5047681-6.6179623-3.1253172-1.4499144-5.4698578-1.4196069-7.4471776-.6982866Z"/>
  <path d="M364.1136007,116.7039013c-1.4086961-.4327922-2.8416383-.8704336-4.2612452-1.2607952-1.4099084,3.1131942-1.3614163,5.4807691-.6631298,7.4580883,3.1131942.7104096,4.096372-2.628273,4.9243749-6.1972931Z"/>
  <path d="M277.5830835,103.2303653c2.4985196-1.2244261,3.9302495-6.0784874,2.5106427-8.4473276-3.5289772-2.1712347-3.6708536,1.960294-6.4882459,1.1189021,1.0413683,2.5992313-.6388837,6.6834803,3.9776032,7.3284255Z"/>
  <path d="M966.9567455,312.886053c1.6220615-1.2971643,2.9592317-3.256246,3.480522-6.6482699-2.8295153-.8219415-5.6590306-1.6693413-8.4764229-2.5094673-1.8111807,4.9074027-.1781543,7.9672556,4.9959008,9.1577372Z"/>
  <path d="M364.3027199,136.7056891c5.280792,1.7396549,8.3588295-.5212903,10.5603718-4.5461364-2.5325011-1.3977854-2.6755528-4.0854612-6.2154777-4.9074555-2.5215903,1.2244261-3.2319999,5.6942402-4.3448941,9.4535919Z"/>
  <path d="M317.7769539,122.8708868c1.4438529-2.776174.1648732-4.0369691.2594329-6.084549-4.4867336-1.7166211-7.268969-.3261095-8.7128219,3.5399249,1.2316999,2.5034058,6.0615152,3.9242249,8.4533891,2.5446241Z"/>
  <path d="M279.0390226,119.0000032c.5564841-1.8766451,1.1250172-3.7351057,1.7057104-5.6347845-3.6817643-.9055904-7.0325699-1.1965431-9.3177612.3127742-2.9119152,4.6770651,4.936498,3.6114508,7.6120508,5.3220103Z"/>
  <path d="M256.9605596,126.2156309c1.0644021-3.7169211,2.8998289-7.8605729,1.5032558-10.2585083-7.044693-2.7458664-7.7551025,9.8802698-1.5032558,10.2585083Z"/>
  <path d="M978.131755,357.6188228c2.3325257-4.0430306,1.812393-2.4088461,2.1312287-7.0616652-2.7930916-1.4741605-4.0248461-.1127442-6.0615152-.2545836-1.9772663,4.2030546-.6631298,6.6652421,3.9302865,7.3162488Z"/>
  <path d="M919.6842008,332.5556222c-3.7654132.3552524-7.6726659.38556-8.204867,6.7659109,1.9178634.5625086,3.788447,1.1189557,5.6590306,1.6996489,1.6814643-5.2395737,2.7822355-3.5811432,2.5458364-8.4655598Z"/>
  <path d="M962.813148,357.6600411c-4.463754-.9346856-9.6014403,3.480522-7.1744636,8.6073516,3.8708836-.1782085,9.8378392-3.0368191,7.1744636-8.6073516Z"/>
  <path d="M985.3061644,390.4188477c-1.8936173-.5503394-3.7642009-1.112848-5.6941874-1.6935412-3.1010712,6.8434507-1.5747816,11.1410649.0715259,15.3610918,4.0721259-.3079708,7.0677267-9.8851651,5.6226615-13.6675506Z"/>
  <path d="M994.3160005,396.1785456c-4.9837778-2.80042-6.9016412,4.8298153-5.3389826,7.5998819,4.9837778,2.8065274,6.8422384-4.8115849,5.3389826-7.5998819Z"/>
  <path d="M922.7258691,384.0676383c5.588717,3.0889481,7.056816-1.5747816,8.1575872-6.7610141-5.5875047-3.0720225-7.0325699,1.6050892-8.1575872,6.7610141Z"/>
  <path d="M984.0756768,409.9939511c-4.1436518-1.0062115-7.2459353-.2242761-7.7781363,5.3571671,1.9299864.5867091,3.788447,1.1432018,5.6469076,1.6875258,2.3676278-1.320198,3.3738394-4.6467576,2.1312287-7.044693Z"/>
  <path d="M908.1176175,392.0227708c-1.8826538-.5685701-3.7654132-1.1311249-5.6590306-1.6814643-.6752528,2.344548-1.3977854,4.6940374-2.0839489,7.0386314,4.9243749,2.5215903,6.8895182-.3733893,7.7429795-5.3571671Z"/>
  <path d="M992.5169428,427.8475379c-6.1560748-1.9712047-10.3942863-.3139865-11.3544303,7.3817132,6.7840478,3.0780374,10.1578872-.160024,11.3544303-7.3817132Z"/>
  <path d="M951.7314317,431.0855994c1.8705836.5443241,3.7411672,1.1007712,5.6359968,1.6632798,3.3374703-1.7044981,3.6696413-6.9974131,1.1128942-8.884969-3.3980854.3018635-6.0506045,1.9821155-6.748891,7.2216892Z"/>
  <path d="M994.1971948,463.635936c-1.3141365-2.3555048-4.6758528-3.3617163-7.0313576-2.1069827-2.5579594,4.1557748.8995837,5.0310576.6982866,7.8908805,3.0659144-.147901,4.8661844-2.6343345,6.3330711-5.7838978Z"/>
  <path d="M1010.6893654,470.064779c-3.9775663-5.2383614-11.6962997-1.0837989-9.1516756,4.9546825,5.3038258,2.5154848,7.1744094-1.2898904,9.1516756-4.9546825Z"/>
  <path d="M180.3272475,244.5752013c-4.6891882-1.320198-6.5949285,2.4149077-8.1575872,6.7901093,5.4820343,2.8876562,9.8620852-2.9725671,8.1575872-6.7901093Z"/>
  <path d="M150.1845448,247.8896378c2.8186046.823104,5.6238738,1.6814643,8.4533891,2.5106796,2.332471-3.6114508-.8995289-4.221289.6861635-7.4411161-8.8425384,2.5094673-3.1010712-8.0799998-12.7970709-8.429143-5.268669,7.9502833,6.8664844,6.5234027,3.6575183,13.3595795Z"/>
  <path d="M208.6927141,272.9527908c2.320348-6.8131431-6.6773651-9.4886959-8.4412661-2.515578,1.2316999,2.4864827,6.0736382,3.9073019,8.4412661,2.515578Z"/>
  <path d="M1014.2886931,509.5240306c-4.640696-1.776024-8.8437507,3.0537914-6.7125219,7.1622864,5.7293997,3.8126502,8.5115796-3.6344845,6.7125219-7.1622864Z"/>
  <path d="M132.071525,262.4396989c-1.4086961,2.492495-4.1315288,2.6464575-4.9255873,6.2094162,1.1965431,2.1312287,4.5352257,3.073139,8.0509045,3.9193757,3.5641709-3.8417883,2.1542625-8.056966-3.1253172-10.1287919Z"/>
  <path d="M108.3103855,290.6584281c4.0018123-2.0305589,2.1785086-6.1560261,1.1371403-8.867948-3.5750491-.2182145-7.4580883,3.7241949-5.3511056,7.6181123,1.4086961.4085461,2.8173923.8352768,4.2139654,1.2498357Z"/>
  <path d="M1004.6993761,557.2584628c-1.8475498,4.5691702-2.8064815,8.6182623-.1309287,10.7142926,5.5171911.0351985,9.6365969-10.0632858.1309287-10.7142926Z"/>
  <path d="M1008.9606213,573.9033836c-3.0659144,6.8313276.7576894,11.2234603,5.3511612,7.7308565.9237194-4.0600443-.6631853-6.7598017-5.3511612-7.7308565Z"/>
  <path d="M94.4125434,306.45721c-1.2195769-2.427079-6.0615152-3.8951297-8.4533891-2.5155288-1.160174,4.5691702,1.3492933,7.1744094,6.7949585,8.1745112.5564471-1.8947815,1.1128942-3.7702625,1.6584306-5.6589824Z"/>
  <path d="M121.9015148,322.315346c-1.8233038-.5382625-3.7411672-1.1068806-5.6117508-1.6814643-.0472798,4.3339834-3.0780374,3.0780374-3.5156788,6.6360991,4.8189046,1.6512045,8.5600718,1.2317477,9.1274296-4.9546348Z"/>
  <path d="M1003.2192093,598.2560861c2.5215904,1.3978263,2.6512515,4.0964129,6.2275454,4.9256282,2.4852212-3.7532902,2.5567471-3.9545325,2.5446241-8.4764229-4.4746105-1.7287441-7.3283719-.3442941-8.7721695,3.5507947Z"/>
  <path d="M83.4727208,327.7488882c-4.640696-2.0185324-8.1684979-1.9469587-8.7019112,3.576294,2.4985566,4.3558048,8.6667544,3.1847201,8.7019112-3.576294Z"/>
  <path d="M1002.5681473,621.0813686c1.9057404.5564471,3.788447,1.1250172,5.6469076,1.6693413,1.480222-2.7580298.1418395-4.0248461.2836789-6.0372691-3.5981154-1.5505356-5.2201769.5685701-5.9305865,4.3679279Z"/>
  <path d="M71.1484481,348.6392942c1.6341845-1.2850412,2.9956008-3.2259384,3.4926451-6.6240238-3.1374085-1.4329422-5.4699113-1.3735868-7.4580883-.680102,1.0171223,2.5797335-.6631298,6.6470576,3.9654432,7.3041258Z"/>
  <path d="M67.7624857,359.8979526c-4.8189046-2.3918739-6.3815317,1.3020135-7.7066104,5.3753517,2.3555363.7104096,4.6879759,1.4026346,7.0313576,2.0948597,1.4450652-3.1374403,1.373571-5.4517268.6752528-7.4702113Z"/>
  <path d="M70.473227,371.4705507c4.6418766,2.0064082,8.1927122,1.9651899,8.7612824-3.5459397-1.3020135-1.692375-3.2671567-3.0004968-6.6773651-3.5217872-.6740405,2.3434286-1.3735393,4.7062072-2.0839172,7.0677269Z"/>
  <path d="M940.7685753,637.9760238c4.8892182.1066827,6.4882459-4.2382114,5.7778363-9.0219592-4.7473787-1.8936575-7.3635287,5.8251161-5.7778363,9.0219592Z"/>
  <path d="M915.1138184,621.1650176c-3.8830066-.6158499-6.0736382,1.8462972-6.724645,7.1853201,5.7426795,3.788447,8.5127919-3.6575183,6.724645-7.1853201Z"/>
  <path d="M60.719005,399.2444141c4.8770951,1.7942085,7.9551325.1418854,9.1395526-4.9716088-1.3141365-1.6644921-3.256246-2.9834778-6.6300853-3.5047681-2.5094673,3.7581394-2.5688701,3.9715048-2.5094673,8.4763769Z"/>
  <path d="M89.5693928,400.1439889c-2.7579894-1.468099-3.9896893-.1539625-6.0493922-.2654944-1.9651432,4.2079039-.6388837,6.6531191,3.9424095,7.3332211,2.2609452-4.0660644,1.7990577-2.4440029,2.1069827-7.0677267Z"/>
  <path d="M971.5501618,668.6036478c.7104096,4.7352557-2.640396,5.9075527-3.7411672,12.7025113,3.4211192,1.2426106,5.0431806-.9346856,7.8605729-.7334433,1.6341845-6.7719248,2.1785086-9.4365669,2.3445941-13.1062473-3.5168911-2.1905924-3.6466075,1.9651824-6.4639998,1.1371794Z"/>
  <path d="M982.3469326,699.4313018c2.1543173-4.320648,1.6693961-7.2338508-.320048-9.3286719-5.5402249-2.0003-6.5815386,10.6076516.320048,9.3286719Z"/>
  <path d="M60.6232331,425.2895785c1.480222-2.7870847.1188057-4.0369691.2727996-6.0554537-4.0721574-.9346856-6.7719562.6813143-7.7308879,5.3632286,3.1022835,1.4147124,5.4929451,1.3856624,7.4580883.692225Z"/>
  <path d="M959.6986872,718.7651107c1.7287441.2836789,2.4270307,1.0886481,2.41612,2.2487843,4.5812932,1.1723349,7.1380403-1.3262217,8.1563749-6.7597639-5.9426552-2.9834778-9.4001978-1.3614163-10.5724948,4.5109796Z"/>
  <path d="M61.1214896,454.5848815c-7.6726659,4.2684746-5.9196757-.1830578-12.7158466-3.7702625-1.6571872,1.2668567-2.9592317,3.2150277-3.4926451,6.6422084,8.6788775,1.3614163,7.3053381,2.0536413,13.697812,5.5632586,2.4512767-1.2244261,3.8951297-6.096672,2.5106796-8.4352046Z"/>
  <path d="M62.8381108,479.6310623c2.0003-4.2091162-2.6646421-4.8249661-2.1191057-8.2812421-3.0428806.1066827-4.9013412,2.628273-6.2870036,5.7705625,2.096072,4.1618363,3.9775663,3.6769151,8.4061093,2.5106796Z"/>
  <path d="M49.6130969,487.9717072c1.2789797-3.4332422-.8995289-5.0140854-.7104096-7.8617852-3.5629586-.2303376-7.4641188,3.6817643-5.3268596,7.6241738,2.5094673.9055467,3.4926451-.8644158,6.0372691.2376114Z"/>
  <path d="M910.5082791,750.1843686c.7941114-4.5218903,5.256546-5.788747,2.936198-9.897242-5.5523479-3.4089961-9.4705113,9.7444918-2.936198,9.897242Z"/>
  <path d="M943.9181386,761.6333585c.7455664,1.5275018,3.6102385,2.0003,3.3859624,4.0721259,3.9775663.5443241,7.7902593-4.9837778,5.7414672-9.0207469-4.936498-1.8112177-7.9551325-.1782085-9.1274296,4.948621Z"/>
  <path d="M43.1551586,489.1258197c-6.948921-2.788297-8.5588595,10.3288219.3139865,9.2813921,1.9893893-4.1969931-.3733893-6.1027335-.3139865-9.2813921Z"/>
  <path d="M70.9593288,514.2592863c2.8052692-1.6390337,5.2322999-9.7554026,3.776324-12.6916005-5.7778046-2.172447-9.7784048,11.3835255-3.776324,12.6916005Z"/>
  <path d="M43.6582644,518.4150611c3.1253172,1.4086961,2.7943585-3.5932662,5.4577883-2.9713978-.1175934-3.0671268-2.6391837-4.8722029-5.7535902-6.3221173-.7164711,2.3433818-1.4377914,4.6940374-2.1130442,7.0434807,1.7045291.2848482,2.4088461,1.0656144,2.4088461,2.2500344Z"/>
  <path d="M93.8439733,530.2774464c1.4208515,2.8537188,7.3877747,4.4636998,7.8375392-.7334433-1.3856299-2.8416383-7.3877747-4.440666-7.8375392.7334433Z"/>
  <path d="M931.7235823,787.158399c6.0021123,1.6329722,8.21699-3.7532902,5.3511056-7.6253861-3.3617163.2254884-7.2325999,4.1436518-5.3511056,7.6253861Z"/>
  <path d="M41.8531451,534.7520569c3.5459864,2.1675978,3.6878258-1.9408972,6.5052181-1.1128942,2.7470787-9.552948-10.3409449-7.4108085-6.5052181,1.1128942Z"/>
  <path d="M905.3584158,793.1132315c2.8173923.8643721.6982866,4.3921739,4.7946585,4.4988566,1.468099-2.4743105,4.120618-2.628273,4.9849901-6.204567-2.3445411-4.0006-8.6667544-3.136228-9.7796486,1.7057104Z"/>
  <path d="M916.1321529,808.5749445c2.5567471.5916039,2.4621875,2.61615,5.2092662,3.1253172,3.9545325-2.108195,3.0659677-7.6835767,1.5505888-10.3118497-3.4090494.2836789-6.0372693,2.0003-6.759855,7.1865324Z"/>
  <path d="M818.5914626,785.7484905c4.7231326.8413383,9.7675256-4.948621,7.5999278-10.0390815-5.2917028-1.9178634-9.3637781,5.6711536-7.5999278,10.0390815Z"/>
  <path d="M899.3684265,808.2076166c.6982866,4.7122219,4.4152077,6.404597,8.0145354,3.9545325,2.5809932-4.1800209-.9116519-5.0443929-.6861635-7.896942-3.6817643-.9468087-3.6708536,4.9013412-7.3283719,3.9424095Z"/>
  <path d="M890.3355565,802.4649371c-3.8842189-1.1359637-5.3158965,5.6590306-3.8951297,8.0387815,4.0369691.8886181,6.7003989-.6740405,7.7187335-5.3741394-2.0487921-.4740105-4.0612152-.9710547-3.8236038-2.6646421Z"/>
  <path d="M891.7915325,818.2466981c-2.8064815,5.4699113,2.1894193,10.2997266,6.8070816,8.1333411,2.8295153-5.5050681-2.9955483-9.8730314-6.8070816-8.1333411Z"/>
  <path d="M72.9596288,574.697442c-1.4438212,3.1253172-1.3965731,5.468699-.6861635,7.4580883,4.3800509.852249,9.4474776-3.7169211,8.1454641-6.7840478-3.6466075-2.3434233-4.2503345.9116519-7.4593006-.6740405Z"/>
  <path d="M780.3396648,795.8118181c5.0553037,1.3383826,7.056816-2.9592317,8.5831055-8.1806209-6.0021123-3.2319999-10.6670544,3.2671567-8.5831055,8.1806209Z"/>
  <path d="M871.7836831,818.4127836c-5.4105085-3.2914028-8.8558737,8.2751805-2.5337134,8.4642998,1.4438529-3.160474,4.5109796-5.0080239,2.5337134-8.4642998Z"/>
  <path d="M845.323957,819.7390432c1.4086961-3.1495633,4.4867336-4.9849901,2.4973443-8.4533891-7.4108085-3.4211192-8.4764229,6.9852901-2.4973443,8.4533891Z"/>
  <path d="M44.7832816,581.6463631c6.6894882,2.948321,7.8605729-4.4515768,5.3280719-7.6242154-4.2273007.7577309-5.6711536,3.3738809-5.3280719,7.6242154Z"/>
  <path d="M865.3548401,834.9279879c-.9346856,3.6223615,4.2503345,4.8661844,6.6300853,3.5035558.0472798-2.012423-1.8584606-2.9713548-1.5869047-5.0662144-1.9651432-.0715259-2.9471087,1.7990228-5.0431806,1.5626586Z"/>
  <path d="M52.5735409,607.0053181c4.9716548,1.788147,8.0266584.1297164,9.1868324-4.960744-1.3020135-1.6693413-3.2671567-2.9834778-6.6773651-3.5035558-.6158499,4.628573-4.6879759,4.5934162-2.5094673,8.4642998Z"/>
  <path d="M63.0393531,613.1492699c3.1010712-.7928462,7.2798798.3794509,7.7417672-5.3511056-.9346856-1.4790097-2.7701124-2.4622282-5.2201769-3.0901604-2.4743105,1.2195769-3.9072527,6.0736382-2.5215903,8.4412661Z"/>
  <path d="M801.1173266,834.2054553c1.3844501-.3782385,2.7458664-.7807232,4.6649421-.1297164.6619175-2.3445941,1.3965731-4.7122219,2.0718259-7.0677267-4.5352257-1.5626586-8.4776352,3.7520779-6.736768,7.1974431Z"/>
  <path d="M59.1551341,636.5309586c5.2092662,1.7057104,3.5290141,2.7822355,8.4412661,2.5337134,1.4208192-3.1253172,1.361448-5.480822.6873758-7.4823744-4.1436518-.3430417-8.3224604-.852209-9.1286419,4.9486611Z"/>
  <path d="M49.329418,648.9510032c.3673278,3.3616768,2.8416383,5.5523479,7.1986554,6.7598017,1.0886481-3.7290442,2.9119519-7.896942,1.5384126-10.2888159-5.4929451-3.5278018-5.1971431,3.5520479-8.737068,3.5290141Z"/>
  <path d="M74.8302124,661.1564702c-3.6696413,2.332471-3.788447,9.909365,1.3020135,11.1519757,3.3386826-3.7642009,5.3632286-9.7905593-1.3020135-11.1519757Z"/>
  <path d="M794.1914393,878.1865973c-2.5215903,3.7532902-2.5567471,3.9544988-2.5215903,8.4533891,6.2857913,2.3797509,9.0922728-1.5275018,8.1454641-6.7719248-1.8596729-.5794809-3.7532902-1.1250172-5.6238738-1.6814643Z"/>
  <path d="M76.5711114,686.2075002c6.0723941,3.2319999,8.2751487-.7698124,9.5893173-6.3342834-6.16823-3.3738394-8.6304174.1188057-9.5893173,6.3342834Z"/>
  <path d="M163.007074,725.7370655c4.1315288,2.5337134,5.0189346-.9346856,7.8605729-.7334433,2.2136654-7.884819-7.8023824-9.4947574-7.8605729.7334433Z"/>
  <path d="M119.0610888,718.7881444c.3552048,2.1906316,2.2245761,3.5278018,4.8055692,4.5109796,2.4633998-1.2438229,3.9072527-6.0736382,2.4985566-8.4412661-4.8189046-3.0659144-4.1557748,3.9072527-7.3041258,3.9302865Z"/>
  <path d="M727.0528847,902.6823925c-.6752045,2.3785386-1.3614163,4.7109765-2.0948597,7.0786374,5.1728971,3.6114508,5.7535902-1.0886481,8.2873036-2.1421395.7213688-3.1495633-2.6173623-4.108495-6.1924439-4.936498Z"/>
  <path d="M99.5260376,732.9357209c2.770145.8292153.640096,4.3921739,4.8068141,4.4988566,3.5168586-2.8537614,5.6359643-5.8009076,2.9119193-9.8742459-3.4332097.20128-6.4639673,1.1602117-7.7187335,5.3753893Z"/>
  <path d="M634.639024,893.6131535c4.936498,2.5215903,6.9016873-.3903616,7.7308565-5.3632286-1.8596268-.5564807-3.7411672-1.1007712-5.6238738-1.692375-.7346556,2.3797509-1.4208192,4.7231326-2.1069827,7.0556037Z"/>
  <path d="M560.1126946,876.0444578c5.3159488,2.6040269,5.6348287-4.1436518,7.1271296-8.5952286-6.3694402-2.61615-7.3526179,4.6758528-7.1271296,8.5952286Z"/>
  <path d="M141.3771632,746.8941781c1.2668567,1.680252,3.2441229,3.0065115,6.6300853,3.5399249,2.532501-4.1327411.3539925-5.7184334-.7576894-7.896942-3.5520479-1.5396249-4.4758228,1.8233038-5.8723959,4.3570171Z"/>
  <path d="M698.2606875,932.4808013c6.096672,2.5567471,8.3224604-2.108195,9.9809387-7.7672256-2.3446419-.6982866-4.7122697-1.3965731-7.0447408-2.0948597-1.6450952,2.9834451-4.948621,6.3694402-2.936198,9.8620852Z"/>
  <path d="M662.7560151,912.721474c-5.8954763-2.8658844-11.5423839,7.7538902-2.5458364,8.4521768.8412917-2.840426,1.6814177-5.6699742,2.5458364-8.4521768Z"/>
  <path d="M603.691352,899.7692283c-3.5156788,5.6469076,11.0938306,9.9918017,11.2707814,3.3156488-1.9408972-3.5993277-7.8011701-3.3035258-11.2707814-3.3156488Z"/>
  <path d="M584.3708784,892.4408565c-2.4985566-.9116519-3.480522.8764951-6.0384814-.2133988-.7104096,2.3325045-1.4316854,4.6528526-2.1191057,7.0204804,5.4820343,2.8295153,10.3118497-2.1663855,8.1575872-6.8070816Z"/>
  <path d="M129.1947299,772.4543754c2.9362312-5.9669922.6158499-9.044993,2.7579894-14.574344-4.7582894-.6630929-12.4418332,14.0057739-2.7579894,14.574344Z"/>
  <path d="M163.4095586,781.0847607c4.8528491,2.4270307,6.41672-1.2547336,7.7538902-5.3632286-5.184986-2.7349557-9.2583243,2.320348-7.7538902,5.3632286Z"/>
  <path d="M665.7152001,933.5694494c.1660855,3.4453652-1.4316832,7.8605729,1.7166211,9.6959675,4.3218603,1.4208514,5.4820343-3.0186346,6.748891-7.1974109-4.6528191-.6158499-4.5934162-4.7122219-8.4655121-2.4985566Z"/>
  <path d="M558.1948752,903.0848771c-1.2790237-1.6584306-3.2320439-2.960444-6.6301293-3.4817343-1.2074538,3.4102085-2.2257884,6.6894882-1.1007712,8.8679967,4.3691402,1.5153788,5.9196757-2.1785086,7.7309005-5.3862624Z"/>
  <path d="M192.4733117,801.992139c1.8827066.5685701,3.8006049,1.1250172,5.6469076,1.7044981.6995338-2.3797867,1.3977854-4.7352557,2.1191057-7.0556037-4.1194057-1.0534913-7.268969-.2376114-7.7660133,5.3511056Z"/>
  <path d="M639.6822046,933.4506437c-2.4743105,1.2195444-4.9728671,7.6835767-1.1128942,8.9031535,4.1557748,1.2911027,6.7003989-5.1147065,5.3159488-7.6362968-1.3856624-.4146076-2.7713247-.8170922-4.2030546-1.2668567Z"/>
  <path d="M649.4485179,947.1011759c2.3445941.6982545,4.6770651,1.3856624,7.0325699,2.1069827,2.096072-1.1710847,3.0550037-4.4988566,3.8830066-8.0375692-6.1439518-2.6997989-8.7127756,1.3020135-10.9155766,5.9305865Z"/>
  <path d="M356.7149152,858.4987959c1.5747816,4.8892182,9.2814312,2.8537614,8.7128219-3.5399249-5.5402249-3.610273-5.6469076,2.6876758-8.7128219,3.5399249Z"/>
  <path d="M534.1087944,906.6951156c-1.3977854-.4376414-2.8064815-.840126-4.2260884-1.2899236-1.6463075,1.2899236-2.936198,3.2320331-3.5168911,6.6289062,4.9728671,2.5579594,6.9137642-.3903616,7.7429795-5.3389826Z"/>
  <path d="M613.908642,942.6617222c6.1330411,3.480522,11.8272285-1.0534913,9.5541603-6.3573171-4.8892182-1.0656144-8.2279007.852249-9.5541603,6.3573171Z"/>
  <path d="M170.0978345,815.2874664c5.7899593,3.2914028,9.2583583-4.096372,8.1575872-6.7840478-5.4468776-2.7943585-10.2887817,2.1542625-8.1575872,6.7840478Z"/>
  <path d="M574.6385096,935.6061185c4.1800209,1.9299864,5.3753517-1.6814643,6.3112942-5.7899593-1.8948742-.5794809-3.7884916-1.1238049-5.6590752-1.7045307-1.4328978,3.1605066-1.3614163,5.5051007-.652219,7.49449Z"/>
  <path d="M546.3143051,937.9264665c5.227407,3.1010712,6.907659-.3430818,9.6898945-1.7166535-.212153-6.8191722-8.9443718-3.6708212-9.6898945,1.7166535Z"/>
  <path d="M384.3942182,894.3587199c4.2030546,1.9651432,5.4105085-1.692375,6.3331109-5.8239038-4.2382512-1.9421095-5.3984252,1.7044645-6.3331109,5.8239038Z"/>
  <path d="M513.0826105,946.4501692c8.9504333,1.1953308,15.3198735-2.2730682,18.6815898-11.3410949-7.1501202,2.0233338-15.1295419,2.6161176-18.6815898,11.3410949Z"/>
  <path d="M496.5916522,939.9740463c5.9427095,3.1144065,10.3579172-3.8114808,8.5709825-8.1563749-6.0384814-3.268369-9.8499198,4.7000989-8.5709825,8.1563749Z"/>
  <path d="M222.7457309,860.0735776c4.6649421,1.7639009,8.8437507-3.0428806,6.7476787-7.1744094-5.3632286-3.1374403-8.4521413,3.7654132-6.7476787,7.1744094Z"/>
  <path d="M426.8478584,926.9284533c4.5934162,1.1359279,7.1986554-1.3505382,8.1333411-6.7961708-5.4456653-2.7701124-10.2754806,2.1785086-8.1333411,6.7961708Z"/>
  <path d="M263.3772796,878.305403c4.0006.9237749,6.7598017-.6861974,7.7296442-5.3632286-1.8814943-.5564471-3.7520779-1.148051-5.6468709-1.692375-1.1953674,3.456276-3.9424461,3.6102385-2.0827733,7.0556037Z"/>
  <path d="M251.9161666,870.3139014c-1.8584606,5.8251161.4740105,8.4764229,5.3995977,7.7429795,1.4317299-3.1495633,1.4196069-5.5051021.6861635-7.4702113-2.7579894-1.468099-4.0018123-.1660855-6.0857613-.2727682Z"/>
  <path d="M370.7788428,919.4691527c5.8130325,1.6814643,11.5435495-4.9243749,9.3772035-11.0222592-5.3511451-.4970442-8.038821,4.0490922-9.3772035,11.0222592Z"/>
  <path d="M850.2483319,400.8786445c12.8104062-8.6546314,37.6953507-15.0180563,42.5966919-34.8949307,2.0839489-8.4121708-4.6528191-32.1611873-8.4533891-43.9229514-6.973115-21.8069071-30.6264117-57.5601483-49.7226092-70.0032267-21.0031502-13.7099851-39.376815-11.4841467-57.7153231-1.8354268,0-10.2815421,11.2707814-16.0290708,12.1472765-25.5298897,2.8416383-30.1778596-71.3888891-58.1941828-90.0474452-78.9475986,1.7408672-9.7384303,18.0075494-6.5064304,11.5193035-18.0487677-3.9533202,4.1618363-7.9672556,8.1806209-15.2119785,4.6819143-3.0671267,5.6359968,5.7293442,8.3818632,1.3020135,11.1410649-8.6424611-2.8234538-18.2087917-5.7063104-25.9275251-10.7919217-3.3617163-2.2488221-5.256546-7.0374191-8.1684979-8.5527979-5.7184334-2.9956538-29.1837711-7.5477987-35.0670777-5.8542114-20.0672522,5.7535902-25.9748049,37.2152266-36.9012922,67.2560967.5673578-19.983552,9.8608729-44.7630261,9.9554326-64.5272025-19.7581149-25.223177-65.7225847-25.8099317-90.7505809-30.0542047-42.4657632,7.5187035-89.2885435,6.8555737-122.7214367,30.9828288-20.9667811,59.6210635,23.9017667,93.3206634,35.2319509,139.3553973-14.7513034-21.1558509-26.6488454-57.0921499-41.8741593-86.0916509-11.4004585-21.6299108-22.6118763-40.8558247-60.8042713-38.0214602-28.6624808,24.5479243-92.5326308,41.845064-97.6000576,101.3412603-2.5810287,29.5911049,22.2093922,50.4039235,43.6380247,69.7485948-25.2522723-6.4227333-81.557687-44.8684996-103.4130862-18.4560532-4.5812932,5.5341634-12.2648699,24.0557292-15.2835044,30.7161221-10.1227304,22.3633068-20.5521734,51.1785851-26.4488154,73.4304074-9.565071,36.3278277-18.0657399,74.5263294,29.7996547,85.5655608,33.2910201,7.7005489,72.0628959-.2606891,109.6867207-2.628273,38.5706335-2.456126,76.3726669-2.2136654,108.3023044-3.096222-54.6833532,9.8026824-130.6535355,6.1560748-194.063046,12.8698091-25.7493166,2.7167274-57.0521934,8.6776652-63.3852644,37.872347,3.4332422,49.3564937,8.9019412,123.1954075,46.9524967,156.6513742,26.9094906,23.690826,57.9274761-.3539925,79.56951-14.7028113-8.0509045,17.4850467-51.7483329,38.6894392-48.4569648,70.0032267,1.1492633,10.9264873,14.1596995,14.1233304,16.6934129,26.4245326,24.210904,7.7308932,33.3383336,20.7534525,51.7714377,32.272756,5.5050317,3.456276,13.2116421,9.2813921,18.6100275,14.7513034,17.4389792,17.462013,55.8204935,27.1458897,78.5038956,9.5420019,11.5787063-9.0449576,27.7738626-35.2804077,41.8147564-58.1408061,13.9233004-22.730682,24.6255116-63.0895009,36.1448151-90.4972096-11.2356246,55.6434972-45.9353745,129.1866488-42.9870535,180.5082857,4.8661844,10.3591295,20.2915283,15.0228593,30.0712174,22.718559,53.3461424-.1188057,147.2342079,37.8614032,141.6818598-48.3260361-.4146517-6.6300853-3.3387267-17.3565426-4.1436959-27.3362212-4.5934162-58.827005-26.7979587-130.2037711-24.370928-191.3280903,20.570358,87.0033523,24.0036002,183.2541521,58.3723914,262.8115391,9.5178363,2.8525491,20.6115763,9.2341123,34.2136164,8.6655083,11.0816621-.5091673,26.9579827-11.4950236,42.7979342-14.9161428,17.4511023-3.7775706,44.609115-14.3488534,62.0238481-22.9562052,18.5639964-9.1637639,40.9031046-18.5639616,46.6930639-38.2869198,10.6670544-36.2393748-25.654708-68.6539334-42.2063303-95.3864278,20.0551782,10.2645698,35.4695623,44.9170399,60.0005643,56.1878213,14.3245227,6.6058393,27.6550069,2.7943585,38.0020134-4.0248461,15.4265562-10.1227304,35.4344055-26.0342078,44.8697601-37.2928661,12.4067093-14.8228293,25.66688-50.5166677,24.3054636-66.3808652-2.3567171-29.159525-35.8368902-55.0858378-66.8900325-68.9970152-28.4721492-12.7388803-62.083251-16.2315254-93.1836731-32.307876,53.9971897,10.9507334,123.538529,45.6626063,178.9444148,37.88447,36.416371-24.4594261,27.9641942-76.2781073,14.9173889-127.511246-7.9320988-31.1658865-46.6457841-70.1984075-85.3352233-63.7344077ZM926.6209988,489.5877071c-17.166211-3.7714748-51.6877004-10.1166689-65.6462096-16.486109,19.9363235-3.9302865,42.9870535-2.1663855,65.0788518-2.1069827,1.3250472,6.404597,5.2444229,12.057566.5673578,18.5930917ZM664.5550261,499.052157c-24.6121763-8.5952286-61.13523-2.456126-84.3872023-20.4927706,38.1681489-13.2359246,87.631372,4.6116008,125.9061568-5.5050681,4.0490922.9237749,1.2789797,5.5753817,7.576894,5.3389826,32.0363201-6.5173411,68.499971-5.8954297,101.2467007-5.1559248-48.8121696,10.9567949-97.575799,22.1148321-150.3425492,25.8147809ZM890.7731979,517.2670101c-65.2206912-7.2398738-130.9263037-4.1327411-197.7690564-15.8702591,29.5026068-3.1616863,61.9414115-15.1719725,85.0503321-17.6584061,34.2148791-3.6939313,83.6186022,14.4555014,112.7187243,33.5286652ZM512.1830816,505.9125799c-19.4162031,1.2438229-25.903279,26.3651665-38.2275518,40.7976342,5.3983854-9.7202458,8.4885459-23.7139026,13.3183612-34.403948-1.5504934-8.6958497-10.9276996-17.8414638-24.2460608-16.4267062,7.884819-12.3957986,8.6655421-27.1046714,3.8357268-38.7670266,19.6878014,8.4303553,27.7265828-18.3906371,25.986928-30.6034232,2.0718259,6.3755469,2.5567471,13.6796728,7.5054107,16.0485129,21.5947115,10.2936651,18.1493462-25.8863068,27.4901412-40.9273506-1.3383826,16.1127197-7.6605429,34.9131152.1297164,46.0529679,6.1330411,1.8293653,12.2066793,3.6466075,18.3385518,5.4759728,23.6362286-5.1498633,38.7669829-30.5924672,57.8740911-50.2923916,44.9885658-46.2602717,95.7767894-93.3849155,137.8886087-123.1421059-31.7526899,34.2269517-71.4240946,58.5433261-104.4314694,93.2139807-4.8770951,5.102537-6.8786074,12.3363957-11.5071805,18.0596784-16.6097639,20.4636753-39.6132141,36.2272517-56.7673021,56.7442684-1.3977854,8.6425084,2.628273,14.3306342,6.2263884,20.2794052-7.0786374,5.8020823-15.7805487,18.8185801-.6267607,22.7961464-5.9427095,6.6773651-8.8679967,11.4902082-5.8723959,19.730232-6.5464364-3.3689901-7.4702113-12.2478976-17.6159755-12.9049659-11.2768429-.7104096-22.6179378,10.7203526-26.1457397,25.9808664-4.4879459-5.8481499-4.5461364-14.0942351-13.153488-17.7117474ZM523.0635014,639.5386824c-24.4836722-27.7508289-20.3400204-70.9621584-13.0940423-115.8913214.7928034-1.4790097,2.2257456-1.7166211,3.6695985-1.988177-.7104096,40.6303364,11.2235015,80.6338713,9.4244438,117.8794984ZM497.4439013,638.0463374c12.0757506,62.0250604,23.1925695,130.8790239,17.6159755,198.5146228-8.6776652-29.0043502-25.2171155-58.3772406-27.6441462-92.5799462-2.4973443-34.2851423,2.1433518-71.1282439,10.0281707-105.9346765ZM517.557221,400.1027706c2.2730682-65.2437726,16.9067782-165.2708989,63.723497-214.2187963-24.0690646,62.9888413-45.1946573,143.931843-63.723497,214.2187963ZM578.6876018,220.4115771c1.0304576,4.5994777-2.0827366,17.0777129-6.854317,17.9190512-.2606895-3.2623075,3.6223171-14.2481976,6.854317-17.9190512ZM550.1681728,300.8988005c4.4042969-8.5831055,3.9302865-26.2051425,11.6138631-28.7679511-3.4102085,10.4233815-5.5402249,23.2446985-11.6138631,28.7679511ZM551.1392714,302.7221043c-2.1373341,9.4353546-3.5339072,24.7673511-9.6427022,32.4145587.4849212-8.5479487,4.640696-25.346832,9.6427022-32.4145587ZM561.2135099,268.8988495c3.4101644-8.1866824,4.2854471-21.1923192,9.3649969-26.3663788.320048,7.1331911-3.7884028,23.0567915-9.3649969,26.3663788ZM539.9921011,345.4012328c-3.3968731,11.6914035-5.5632586,22.7597305-6.8301153,33.2668077-5.6711536-5.3923239,4.1788086-31.1707358,6.8301153-33.2668077ZM514.1239788,380.6695528c1.1965431,16.8352523,4.6528191,44.993415-8.4400538,54.2638964-18.2318254-19.3216858-11.5193035-46.8118696-13.685689-77.7231725-1.5638709-21.9608696-7.2107785-45.6322987-4.2273007-58.0038512-.4618875,1.8342145,1.2074538,2.4912827.1660855,4.6516068,10.6779652,19.5993032,24.3648665,49.7007877,26.186958,76.8115206ZM516.6104123,356.879318c-17.0474053-53.0212857,1.7044981-125.4515432,11.377464-192.9683363,1.8233038.4497125,2.5094673-1.2426106,4.6758962-.147901,19.0913049,51.1385285-7.6824077,127.125685-16.0533602,193.1162373ZM504.5819416,330.2947246c-15.7575149-45.4674743-49.1903667-87.6556212-38.6421594-143.4396957,27.9047914,38.9137153,44.9170399,89.9989531,38.6421594,143.4396957ZM488.5528708,394.5625457c-6.6543314.2836789-5.9912016-23.4713992-15.8641976-29.2601462-14.5149043-37.0916238-14.2191024-82.1383802-10.6913005-128.9793951,21.7244705,45.7754005,23.5720203,102.2941331,26.5554981,158.2395412ZM483.0356797,438.9279877c-15.8641976-9.4111085-23.4168455-24.020618-30.0711769-38.0796508-9.577194-20.0781629-19.4514023-42.192995-21.9851156-60.2357011,16.2788052,33.3443951,52.0211357,56.1575137,52.0562925,98.3153519ZM480.4898433,447.3995614c-1.5747816,6.564621-9.8257161.7334433-13.3426073,3.6999489-1.976054-9.0813621-11.7556611-8.5188535-17.6280985-12.9340611-25.7020367-19.262283-38.712473-51.0198197-63.2785818-70.9682199-6.0493922-22.3403204-30.8870568-40.8097572-32.2254394-61.7644153,33.3031768,26.8864568,58.3772406,58.218382,91.1482163,85.4176599,6.6531191,21.6117263,19.8769206,39.68474,35.3265106,56.5490876ZM436.4141417,379.0353219c-50.5518245-43.5604264-71.5428516-103.1402716-103.7803757-156.6464785.2375731-1.8645221-1.3020518-3.5338634,2.2730299-2.4027846,41.9699312,47.8229303,91.4209845,97.8958951,101.5073458,159.0492631ZM390.6690988,331.6973592c-34.9967642-24.4351801-64.723647-51.6708291-81.9019811-85.7365454-12.3957986-14.1475768-24.0569415-28.738806-23.4762484-49.925014,14.8688968.7867847,26.4718492,9.9214881,38.1560259,15.9708802,21.6420339,40.2933161,41.9105284,81.3625062,67.2222036,119.6906791ZM363.7583959,334.4262534c1.8705836,2.936198,8.311589,7.6835767,4.1436518,11.9399726-11.9811909-23.8496377-39.6132141-39.2519478-61.029722-58.0111738,11.8393138,5.1802196,28.0344701,10.3058369,39.48346,11.7509021,1.5856924,12.9279996,10.725245,23.8435762,17.4026101,34.3202991ZM443.032104,439.3074386c-76.1835476-36.4103095-109.7461573-106.1116728-162.915307-158.9074701-2.0366692-.9771163.4970443-2.3918739,2.2609082-2.3918739,75.8404659,41.6849921,109.4030755,106.260786,160.6543988,161.299344ZM464.9335707,468.8391406c-63.7162232-6.0021123-146.8499041-49.7056369-205.6417523-71.8968441,67.8259687.5382625,151.8227712,46.1123707,205.6417523,71.8968441ZM367.3456006,415.2565586c-19.1192312-2.7288941-30.2008933-14.7634723-38.3693912-20.6055148-18.6585561-13.365641-42.6197257-23.0446685-50.6706302-41.1455652,65.4571289,19.1786341,102.916042,59.7919982,153.3369785,93.1715501-19.9242413-6.7125219-51.1555922-17.1601495-64.2969571-31.4204702ZM471.7891444,507.6886038c-30.4033479,23.2277262-57.0170366,53.4286196-98.2037807,56.7199805,28.0696252-21.0491759,63.360979-59.9216729,98.2037807-56.7199805ZM307.7015033,569.3342134c33.8705346-48.0666032,92.082902-62.8179066,140.7883889-76.236889-44.6806408,29.4965453-97.0084892,44.993415-140.7883889,76.236889ZM382.4642318,508.7481567c-38.8434017,15.005887-88.9806185,39.9150776-134.8565901,15.1004467,34.5809442-.3661155,63.3028278-20.7885725,99.9555979-16.313962,17.0122486,2.1130442,24.8025079,4.3388326,37.1970942-1.195374-.6619175,1.0001933-.8752828,2.776174-2.296102,2.4088894ZM288.6174289,540.6595672c-39.0216102,2.9132066-84.6248137,5.3038682-122.2243925,3.5048105,19.1907571-5.2213892,37.7656643-11.7326688,57.0982609-16.7516034,7.1271653,4.0842489,8.429143,2.1312287,13.993614-.4388537,17.0837744,11.6732235,43.5083438,8.4655121,51.1325176,13.6856466ZM342.2473293,530.5380915c-23.4059734,12.7970709-38.6652317,40.6667055-58.9810061,59.1470119-10.7264205.4146488-17.3444196,10.2755217-26.0342078,15.2726348-11.4247438,6.5464364-24.1151321,10.713122-35.7532412,16.9758795-11.7799486,6.3936862-22.5888425,14.8107062-34.3214767,17.4159455,12.4903236-9.8742083,15.9356888-22.5536858,24.4472684-35.6829277,31.7174844-49.0837255,83.8319675-57.9275184,130.6426633-73.128544ZM387.4952894,533.2366781c-48.5624352,36.2745316-95.8943827,74.7627285-142.8590025,114.0085751,36.1314798-57.785597,88.4241714-97.3030392,142.8590025-114.0085751ZM318.6170799,604.8146457c29.1704745-25.0146202,59.9872185-39.4943677,97.0788028-47.8410741,3.1725971-4.3436818,7.1865324-7.1150065,11.7920717-8.7601018-47.9247638,49.0364047-110.2916936,71.4119229-166.3607092,105.4376323,19.4514023-16.0654399,38.4881969-32.4860846,57.4898348-48.8364564ZM412.3814462,568.256476c-19.0016378,18.8125186-28.1060337,42.3954496-44.1241937,60.5205923-33.8111318,38.3463574-81.5455268,53.7717013-115.6888668,89.8449906,40.0860123-74.4305574,102.8917959-106.940888,159.8130605-150.3655829ZM420.2420191,567.5339434c15.8047947-20.1848456,37.8129441-37.9669493,54.0917493-52.9546091.320048-.8292153.6982866-1.616,1.8111807-.9710547-10.3942863,29.6565693-26.211204,50.1966197-41.7795997,73.4716257-9.0680267,13.5086928-19.1434773,32.3321221-34.0365801,26.6852145-3.4454053-17.3322966,10.5603317-34.3324221,19.9132497-46.2311764ZM430.2811006,703.9653152c23.5720203-62.6384858,36.7607068-138.384392,72.0641419-185.6569367-5.0322274,64.9600461-38.7015622,136.396215-72.0641419,185.6569367ZM647.1281699,279.1040165c7.7199458-3.9666555,13.461413-11.5787063,21.3935117-15.1125697-7.8254161,8.5115796-8.9855901,20.0841756-13.4723237,29.7390059-21.3110751,46.1899581-52.0914493,73.5431516-83.690128,100.8963451-.3661155,1.5456864-1.7044981,3.4041469-1.8342145.9953008,20.0308831-49.6353234,55.1803975-71.3234247,77.6031545-116.5180821ZM601.4425299,319.2081654c12.7025113-20.3278494,26.199081-51.0670053,40.5952257-53.8916714,1.5396249,34.4572893-37.328069,61.2722202-55.2762155,87.8749981-2.0718259-16.9298119,7.9442218-23.2168155,14.6809898-33.9833268ZM616.7624034,360.5792669c-22.6603684,33.8050703-38.5003199,80.2968918-77.2552235,84.4223591,21.0322454-36.8370402,48.2969408-62.1947828,77.2552235-84.4223591ZM723.8330078,263.5768391c-10.6791775,18.8003955-30.8882691,29.2771184-36.4757739,50.4924216-30.1063337,20.0963475-53.8432272,51.9374868-81.2024822,77.1133379,29.3001981-60.8527172,74.4184344-92.5689894,117.6782561-127.6057595ZM769.0931295,266.2936103c-9.7311565,11.845413-20.422457,21.9729926-31.0894629,32.2024056,9.1043961-13.0940851,19.5228796-23.678703,31.0894629-32.2024056ZM746.1369592,276.3508763c3.3859624-5.4166192,7.364741-9.725095,12.6564437-11.5787063-3.9775663,4.2915528-7.4471776,9.512942-12.6564437,11.5787063ZM657.9964667,469.5083319c43.461064-28.2175656,102.6784306-27.31202,151.6094058-45.4371179-44.4430294,30.7451728-96.9248403,58.3299608-160.915044,45.7389814,3.1968431.0472798,5.0674267-2.3021635,9.3056381-.3018635ZM620.9412119,460.0256975c-4.1314833.5916039-8.7843478,5.8481499-12.513392.8752828,39.0798008-10.1458088,87.974407-25.3225859,123.3130406-27.7617396-34.3324221,13.2771429-73.3770661,21.4638253-110.7996486,26.8864568ZM655.6882882,441.1962067c39.5658878-22.6300608,87.4542825-36.0793508,135.4008677-42.5615351,16.4679245-2.2427606,33.7177844-3.6696874,49.6995754-2.1069827-58.9094416,20.0721014-122.8753992,30.7282451-185.1004431,44.6685178ZM751.3813821,392.9344227c-20.5400504.0290953-41.9093161-6.2748805-62.8639268-.2728143,43.9581093-30.9342905,99.1275476-41.0800547,161.6242453-37.8419933-30.1766987,17.5565726-58.7676536,38.1499644-98.7603185,38.1148076ZM768.2517912,397.9654803c-44.2769439,9.9396726-92.070779,13.3547303-136.9635728,22.1633242,15.4144332-8.6315976,33.1370913-13.0346823,48.0775139-22.5003444,19.9484465-5.8663344,48.4921216-.6631758,70.7136363-.4497644,5.7305565.0472798,15.6508322-4.5752317,18.1724226.7867847ZM717.676933,372.181007c2.6392318-5.2335122,7.7902593-5.9257373,12.7619625-6.9319488-3.350854,4.0309076-8.1212664,5.3923239-12.7619625,6.9319488ZM732.6888815,362.8523351c5.6226615.1418395,12.0636275-9.6790275,15.6265862-6.1039458-4.9134642,1.2026046-11.6611429,10.4427316-15.6265862,6.1039458ZM718.3158648,364.7107956c-14.7392284,8.1927439-26.0924464,18.1190349-39.8145045,20.3860416,6.4761701-4.1023872,11.0223066-11.7556563,16.1490888-18.2257176,24.2933406-13.5086928,45.3425583-44.2296641,75.9701823-38.7549036-10.7737371,24.1102829-34.2499855,26.5967164-52.3047666,36.5945796ZM666.29594,395.2547707c-22.8252884,20.6176378-53.2747038,24.1333166-75.8405126,43.4246949,48.2314764-46.3257361,95.2203423-94.9706552,145.3114916-137.7988496-2.2027546,10.9688697-7.7308565,11.6623552-13.3195735,19.0380069-17.8523746,23.4701868-37.3631797,58.3833021-56.1514054,75.3361478ZM546.1251421,505.2736962c2.012423.1006212,3.2853412-1.2195769,6.0554537.2727682,37.4819854,51.0246226,46.929508,123.5506118,47.6277495,190.5582779-4.4988566-16.8704091-18.0536169-28.815231-25.1455897-44.3012296-.5443241-45.8165292-6.4639998-88.7199338-18.63431-128.2737879-6.3573171-3.9072099-13.7268637-12.6503394-9.9033035-18.2560287ZM607.9889663,818.1994183c-8.4994566-17.3080505-14.8931428-41.2825554-25.4765484-53.6068281.2485221-34.403948-2.7592017-73.3540323-4.7595017-102.6432738,32.2254394,40.0981353,30.7100606,98.4523053,30.2360501,156.2501019ZM601.6559403,638.3663854c-2.5337134-24.6012656-7.2690141-46.1354456-14.2312705-65.5868068.6510067-1.6935873,1.3977854-3.2319999,3.6466075-2.0015123,22.6713246,45.2601217,36.0490432,98.2753459,51.7483676,145.7721667,5.4577883,16.4800475,14.1706102,31.8702346,14.6446207,48.8473264-4.936498-11.9921017-15.7466042-19.6999244-23.2992521-29.9281251-9.5190035-12.83344-27.5374635-41.1285929-31.1367913-55.2761694-3.1847201-12.4430784.0472798-27.7617396-1.3722819-41.8268795ZM579.1494893,548.8414428c1.3262595-9.0098362-10.4185323-17.1674233-6.7598017-23.5004944,12.8564737,15.9587572,25.1807915,36.0842,36.7473297,56.9564214,21.4759483,38.7609651,49.8547502,73.76864,44.5024787,123.6924914,4.3933398,11.0343823,1.2558995,26.0936106,4.038135,38.0275218-28.2005933-63.9538346-34.8537124-139.5809351-78.5281417-195.1759402ZM577.5637969,456.3196426c4.8892628-9.7844533,16.7637264-13.8335455,25.4644253-18.5045491,29.171648-15.6508322,60.8285173-20.7412927,95.9780317-23.6362724-20.5751601,9.4717236-41.352869,22.9379408-62.7451684,30.4615385-17.9251127,6.2627575-37.7789996,12.5788563-58.6972886,11.679283ZM726.0345502,472.8591375c45.34382-32.9662015,115.1687888-25.4777607,180.6622482-9.1456141-22.3645665,6.0020682-49.7832243,2.5979654-71.7913737,9.3104873-5.9196757.467949-1.5626586-4.6758528-6.1912316-4.9061904-33.1964941,3.5278018-70.8094082-1.2256384-102.6796429,4.7413172ZM860.2523082,408.4616c15.2131392,5.1728515,31.04218,9.9675556,35.1143059,21.1728726-3.6114508,13.5329388-17.2607707,5.9439218-26.2827299,5.9911566-14.9052144.0533864-32.7818865,5.1729421-46.929463,2.92412-.4376414,1.4086961-1.6329722,1.3431868-2.2257884,2.4027846,32.6521701,2.3445941,63.0543579-5.7293442,91.8234691,5.8372391,1.1359279,5.6650921,5.0553037,9.8439007,6.0967251,15.6156311-46.4918227-2.9482766-90.0935658-26.6087951-127.634954-19.5459176,20.942535-15.8702591,45.7098861-24.7491666,70.0384352-34.3978864ZM885.031783,355.9967614c1.7396026,4.2151777-2.439206,11.5908294-3.59938,17.3565426-24.7321427,18.4209447-59.2185789,18.6937129-92.3435471,21.5995572,29.5377636-16.1478769,59.8332165-42.3529729,95.9429271-38.9560998ZM879.2296484,334.3255846c5.2335122,29.6917736-58.6609195,11.7799962-72.9273017,18.1906547,11.0223098-6.7355557,68.1447662-45.165562,72.9273017-18.1906547ZM855.1970044,296.5066266c30.7342551,13.9754294-2.0840005,23.5126175-15.2605222,30.7282451-1.5856924.852249-1.6099384,4.3145389-3.0889481,5.2262384-14.8943551,9.3238227-35.7774873,13.8990544-43.0707024,20.9485965-16.3611923-2.5858424-28.2830299,3.0671267-41.660794,6.0093862-.3309587.1175934-1.1128942-.5928632-1.4208192-.4036969,33.3734904-19.0307331,66.8548757-47.8108073,104.5017859-62.5087693ZM844.5893526,270.3184563c3.1143553,6.1923949,7.6483686,11.6320477,8.0629763,19.2973911-28.2127163,17.7821097-57.1115962,34.2864033-84.7908992,53.015273,1.3614163-6.1681979,6.3694402-5.6893382,7.0204964-13.2480476-3.2199264-1.4377914-1.1832573-5.6820643-5.7887965-6.3330711-12.857686-.4206692-21.9135897,6.1669856-33.255897,8.523655,35.8599239-21.1085729,64.3212125-55.93319,108.75212-61.2552003ZM820.3080837,253.9220577c9.0680267,14.525815-11.4477776,21.0964975-22.3281974,28.6381858-34.4269817,24.0036008-69.2334143,44.3485187-93.4794751,71.8738592,13.353518-23.3344089,30.1172444-43.9217391,45.9111284-61.4734625,20.9073782-23.3162244,38.2978653-48.6751793,69.8965441-39.0385825ZM776.2675389,216.2921714c5.80087,15.0592284-7.1744094,29.9935895-18.2087917,40.5782073-15.141665,14.6082516-40.9261383,28.0817876-55.1803975,41.0097872,25.1577127-25.9275743,42.0511555-67.0912748,73.3891891-81.5879946ZM754.4242627,202.1033766c-3.2792308,36.5994288-31.6689923,56.4060358-54.7427561,75.7628785-20.2684474,16.9710303-39.9914527,32.4084972-56.4957463,50.688767,25.5492866-52.5241938,67.3991998-93.8479675,106.9881679-127.6954683,1.4329422.4085461,2.8295153.8352768,4.2503345,1.2438229ZM737.0338242,183.1259848c5.0782889,19.5689957-9.7675741,30.1948318-17.3687142,37.7777873-19.9714803,20.0187601-40.5236537,44.8867323-57.8559503,65.6401481,20.2563715-41.204968,43.0100872-77.76924,71.0094382-104.6847921,1.3856624.4376414,2.8173923.852249,4.2152262,1.2668567ZM701.2090085,210.8052878c-9.1758743,14.2651699-18.5397504,27.3774395-25.8207955,35.3095383-9.7202928,10.5300642-17.9009137,23.8544869-27.5375105,25.5601973,15.9830033-34.6233748,35.5993259-81.2036945,62.7112239-102.5426526,15.7805487,8.9965009.212153,26.8319032-9.352918,41.672917ZM699.5517902,159.7139885c-11.673266,36.0078249-39.8386559,58.3954251-51.6186511,101.2636729-11.0210469-5.7948085-16.2181901,10.6609929-22.078463,7.2156277,22.7064359-37.3571182,26.0329955-110.5862833,67.4816364-113.4157986.5673578,2.4500644,3.9302865,3.3859624,6.2154777,4.936498ZM648.7623544,129.2766433c14.2542591,5.2565988,24.826754,12.5486015,31.8823576,21.712348-28.9582827,15.20112-36.2272517,66.7834021-53.4407426,102.269887,12.4309554-36.3096387,8.6776652-63.8167947,20.4576138-99.8076473-5.7778363-5.2444229-.2848912-17.0364946,1.1007712-24.1745877ZM588.2538851,327.559769c8.41702-51.6829032,16.1951563-125.6164164,51.0258349-161.2338797-6.0142354,53.0854873-21.262583,119.9755703-51.0258349,161.2338797ZM594.2802435,255.7211154c-2.4270307-13.8396515,5.8481949-32.2666577,13.4129661-45.0940362-2.6404413,10.1457641-10.6792228,35.3446951-13.4129661,45.0940362ZM642.6887162,128.9918049c-1.9651432,36.5412382-31.775675,55.1040224-43.1640497,88.4011377-4.4394088-31.3671289,11.2938151-87.631378,43.1640497-88.4011377ZM587.8986803,302.9112236c-6.6773651,13.2359246-1.5396249,23.0689145-3.5872047,32.6933884-.7819355,3.6344845-4.108495,6.5645736-4.320648,9.4414161-.3552048,4.0490922,2.1069827,6.9670584,1.2898904,11.1398526-7.2095662,36.4527401-33.2025557,57.7626029-48.4157465,85.3000665-10.2754374-52.2575348,43.5144498-84.1156464,51.3519445-136.5853343,1.9057404.532201,2.0475798-2.0778874,3.6817643-1.9893893ZM593.8304791,200.380694c-2.120318,63.9417115-14.621587,140.0779793-56.7260838,185.6048077,24.5952041-56.3478453,34.4451663-127.0372355,56.7260838-185.6048077ZM580.1920699,210.1360965c4.8892182-2.4270307-.1782085-10.5894671,5.8009148-9.0389315-2.0124231,2.8828566-.7225773,11.7435289-5.8009148,9.0389315ZM580.8539873,115.1763994c24.5661088,24.4824599-.8158799,70.7839499-22.2093917,90.0813897,16.301839-33.7286952-4.8298153-72.5369401,22.2093917-90.0813897ZM535.8848184,106.4211469c5.374183-.2776174,8.0145354-5.5584094,15.8108562-1.4499144,17.9833033,27.691426,6.2979143,71.4895103,4.0248461,110.1425804-4.7352557,6.5173411-7.749041,16.2375869-12.7800986,22.2748561,5.6590306-47.2604217-17.2728937-85.1631284-7.0556037-130.967522ZM528.7807226,130.3592827c-1.9408972,8.9625564,6.2154777,18.6876514-.1066827,26.0814876-1.0062115-6.7658633-3.480522-24.583081.1066827-26.0814876ZM497.1359763,102.573297c6.7477214-.6510067,11.7084228-4.640696,20.410377-1.5918074,13.6384095,43.2950319-.4267737,100.9618629-8.4655551,152.4132162-1.1358852-21.2443985-6.0251461-42.4124218-10.0148354-64.3381346-5.2565036-28.8928183-16.2788052-62.0650664-1.9299864-86.4832742ZM471.267854,107.1315565c10.2524468,17.0716514,16.4800898,43.153139,21.2977398,67.7071248,6.6422084,34.3263606,12.9049659,67.0851634,12.8928428,95.8883212-4.9728671-20.6176378-9.365041-47.153739-23.6896137-69.9438239-4.7231326-7.4702113-13.0819621-13.005587-16.9770918-20.3751772-4.0018123-7.6884259-6.8421969-19.8114563-10.737368-30.8519001-6.2627575-17.4389792-10.9992255-48.320028,17.2134909-42.4245449ZM454.3028853,257.0304027c-9.2110785-39.1876958-43.473187-71.0276228-23.5477742-122.0595193,38.1802719,18.7640264,28.9934395,79.6931649,23.5477742,122.0595193ZM399.3468039,127.1806241c6.1681579-1.0062115,9.7783963-6.6361468,17.0122085-5.6590306,7.7781363,28.8806953-3.7169211,74.5142063-3.1253172,103.3597449-5.3632286-31.5623096-34.6403471-55.9332376-13.8868913-97.7007143ZM427.3218689,115.554638c5.2092662.1369902,8.7019112-2.8586106,14.3609418-1.8705836-.3552048,7.2992766,5.2201769,11.3835255,1.6208492,20.4163955-5.776624-4.0660644-9.9918017-3.7532902-15.9345112-3.160474-.4024846-4.9316488-3.1495633-8.589167-.0472798-15.3853379ZM422.4084046,178.5325171c9.6365969,47.1949585,40.8679478,82.699728,33.8244671,138.9227061-18.5287987-41.5892681-48.1611629-83.4816119-33.8244671-138.9227061ZM460.50624,375.4784712c-33.5516989-35.5229037-49.6644186-81.7601416-63.267671-127.7367344-4.2018423-14.1293919-10.8561737-27.9399482-8.8546614-42.513043,24.423057,56.5248415,50.6112273,112.1319697,72.1223324,170.2497774ZM382.5939482,198.900472c4.1327808,14.8519245,3.6344845,33.8062826,8.1455039,49.9844666,5.7414274,20.4576138,15.9829635,36.5703335,17.001298,51.0549302-19.594454-33.7699628-36.0975353-68.6600452-50.3396325-103.9392257-4.664981-11.4841467-15.686028-24.3939618-11.5314655-38.6955528,20.7897848-2.2851392,32.640047,26.7797748,36.724296,41.5953817ZM346.9946694,148.4262349c-1.7869347,4.6988866-5.5875047,5.7002489-6.6058393,11.8260162-7.3998978-3.4393037-6.9852901-11.1810709-17.6050647-12.9037536,6.3585677-4.5400749,15.793884-3.788447,24.210904,1.0777374ZM323.3293018,150.6095927c24.730982,21.6832522,31.1949818,52.51818,43.5786574,80.4398934,6.6058393,14.9877527,17.5092928,28.04057,19.5338389,42.6076528-11.9096651-25.3165244-59.3240111-56.6484964-72.6072537-85.9910792-4.5825055-10.1700102-10.2524468-39.4592516,9.4947574-37.056467ZM306.7183256,154.8720502c-7.3865249,21.7365935,3.8478498,33.3734904,10.4185323,47.5622852-7.9320988-4.5400749-20.2915283-11.1046958-30.5912549-10.6367469-.876458-7.0083239-8.6667544-10.2828058-8.4764229-17.8535869,8.2751805-8.6897882,18.2318628-14.3366957,28.6491454-19.0719514ZM280.4719647,191.5369433c-4.4746105,20.1557503,10.0039247,30.0529924,14.0760506,45.5910804-13.5547603-9.6063396-30.7682511-17.2607707-42.3590805-27.9217636-.8049692-17.9360235,20.2442485-35.2198796,28.2830299-17.6693168ZM233.1048604,221.9160452c1.4208192-2.7652632,15.7102713-10.8513245,22.6470331-3.9836783,9.6256861,9.5360262,34.748242,19.4866096,44.1363168,26.9216641,15.7805487,12.5788563,25.1686615,37.3983365,38.8543124,49.929913-28.3060259-6.8543614-56.8739848-18.7409927-81.237639-36.428494-9.0922728-6.6470576-31.9296018-21.9960764-24.4000233-36.4394048ZM228.6181625,242.0717955c.6740048-1.6875758,1.4086604-3.2210892,3.6574826-1.9651432,42.4778862,38.4821354,83.1215579,77.9462362,110.1607649,124.8114472-41.364992-39.1161699-101.3873278-68.1156709-113.8182475-122.8463039ZM301.6872679,357.3945468c-49.8886947-14.0893859-86.9560724-46.473637-121.2533377-66.7772883,53.558336,6.0493922,88.3174887,41.8026334,121.2533377,66.7772883ZM205.2364381,310.2808137c19.0367946,12.153338,41.0801008,27.7326443,54.3402715,39.1985593-21.5001944-10.8852218-62.9003432-16.7394332-83.3106772-29.3958769-2.936198-1.8293653-9.4705113-7.096822-8.724945-11.8090439,2.332471-15.1950063,27.1822588-4.7061604,37.6953507,2.0063615ZM168.3812134,320.8181518c54.660355,23.4520023,110.1134851,32.1005722,139.4742524,67.5349777-33.0546547-12.7388803-67.0791518-19.0731637-103.7319219-27.7690604-21.4650376-5.0964751-42.7858112-9.328625-51.878084-21.5995563,5.7172211-5.38631,7.3162488-18.462163,16.1357535-18.1663611ZM149.2850496,348.8817548c39.2106958,13.0589283,85.6661483,19.0367479,124.2961847,30.8167433,20.0793752,6.1330411,41.8863202,11.9981632,57.0873501,24.6485454-28.6612685-6.428843-55.5598483-5.6347845-79.8652757-9.9214881-7.8836429-1.4147576-15.6981483-8.244873-24.9443836-8.9674056-4.2854912-.3261095-8.6897882,2.6815681-12.9752794,2.2730682-23.6653329-2.1845701-56.3175377-8.0678767-69.4589027-19.1192312,1.5275018-5.8554237,3.2792797-14.9355734,5.8603066-19.730232ZM142.7616133,376.0700751c27.6441462,14.0287708,61.6213635,27.5010945,84.5896569,40.5188045-24.7552281-7.0507545-71.140367-8.2703313-92.4502298-24.4412416,1.5747816-7.2398738,4.5218903-12.0405938,7.8605729-16.0775629ZM133.8002692,401.0143765c56.1393292,21.6178337,98.179574,9.7845437,138.3613582,35.0198438-48.1490398-4.1375903-95.5282672,8.0205969-142.825058-14.8640476-.7697793-7.1501633.3794509-12.9522457,4.4636998-20.1557962ZM255.5627742,440.3136501c-1.8584606,3.1253172-3.9302865,5.8190546-4.7825355,10.8622352-14.1827333-4.5340134-25.8329655-7.4823344-38.4651631-9.909365,12.7158466-3.4865835,27.691426-2.7228326,43.2476986-.9528702ZM126.3058118,441.7405308c6.9137642-14.621587,45.8408148-4.2745805,40.4181833,13.5850233-12.1945563.3249417-37.2334633.5031503-40.4181833-13.5850233ZM128.1291156,456.1245063c28.6624808,2.332471,56.4363434,3.0489421,86.6845166,18.0839244-24.730982-.6813143-72.1102094,11.1107574-86.6845166-18.0839244ZM181.2619332,458.0896051c-5.1377403-2.7106651-14.9755794-7.8253717-10.3348834-16.8764262,34.0244971-4.6588806,80.101711,14.0590784,119.0748292,27.7507847-31.1828588,5.2796239-77.3788784,5.983972-108.7399458-10.8743585ZM257.706126,448.6191382c18.2669822-16.5515734,61.3607184,5.3680779,89.9165165,17.5444053-22.6712791,7.1453584-70.4178344,2.5519422-89.9165165-17.5444053ZM328.3130796,451.1407285c-.2727682-.0654644-.532201-.1188503-.7576894-.1539625.1297164-.0363691.2727682-.0594028.4146076-.0836489-1.8111807-1.3783886-3.5399249-2.840426-5.1971431-4.4152524-47.0955485-13.816573-102.6675198-33.2970705-143.3693821-59.5082746,81.1321686,6.6531191,145.7964128,41.7323198,216.781605,70.6190767-18.8234293,5.4638498-47.3198245-11.8514745-68.2150797-6.6955497.1066827.0836489.2012423.1539625.3430818.2376114,34.2621085,6.9077027,68.2393258,13.3365457,100.287769,16.0824121-32.9006922,4.788597-74.0995987,3.6175123-100.287769-16.0824121ZM455.6521786,484.4899729c-.627973,2.4743105-1.6220615,4.280642-3.0659144,5.2274507-4.7715835,2.6755528-.5564471-3.6938874-6.6543314-3.5047681-23.9732926,4.9959008-50.5639475,23.2640953-79.8059091,20.7243205-2.2257884-.1830578-5.480822-3.2550337-8.0375692-3.9181634-6.1330411-1.5869047-14.4203447.9286241-21.3934733-.2315932-13.6384095-2.225745-27.9048298-8.7964275-40.4533786-13.5607785,50.8949062-5.7596517,104.0871667-7.2216892,159.4105759-4.736468ZM232.5956931,491.7831879c27.5726203-.9819655,58.9809675-9.2583583,91.147004,13.313512-.9116519-.2970575-1.8705836-.5685701-2.8052692-.8413383-30.1778596,5.3159488-64.0604808,21.9378358-101.4006632,15.8763206-13.7329688-2.2500344-28.9691934-7.6011401-42.7021623-11.1883448-11.7205458-3.0537914-22.4591261-5.2201769-32.3794019-9.6487199,26.0802753-9.8439007,57.2885924-6.4276307,88.1404925-7.5114296ZM133.8948288,503.8346925c23.558685,3.80057,59.6089405,7.1804709,79.3440216,22.062703-14.7270573,1.6571755-82.0668543,35.3386336-92.3556702,6.3100373-4.2491222-11.8745083,7.9442218-20.7121974,13.0116485-28.3727403ZM121.5935899,540.0558827c10.9046658,11.3180612,28.1654365,4.4515768,38.4772862,9.909365-14.845863,2.4391537-27.5847434,8.7613141-38.9973642,17.5686957.0472798-9.0801498-2.1081621-16.9758795.520078-27.4780607ZM160.2127155,554.6301898c36.8188556-9.1868324,87.8325675-4.4758228,121.0993752-10.0160477-39.1270806,8.8679967-80.6702812,22.6009656-117.5121706,34.0729892-11.8745083,3.6817643-29.0879991,11.1277296-39.5780573-1.0304576,2.0487921-14.6094639,23.3938118-19.8890437,35.9908526-23.0264839ZM157.8924014,583.0793053c32.5090844-8.3115496,61.8928855-20.8019079,93.9886085-27.2538266,1.6099384.7104516,4.0721259.9359399,3.8236038,2.640438-33.5747327,26.9337366-74.9045679,50.730033-126.2262048,37.6359479,4.8067816-10.3591295,19.7714503-10.83314,28.4139926-13.0225593ZM128.7679993,603.5720758c11.8514745,2.1906316,21.1449896-.2364399,32.1430368.3309587-8.9031875,8.4061093-19.4271902,13.6384092-26.1518352,25.999051-1.3141365-9.1516756-7.3162488-15.7575149-5.9912016-26.3300097ZM141.2704805,644.1078526c-2.6052058-40.5236537,45.2358756-40.5709335,71.4470796-49.3322476-15.981791,25.1928291-42.0754016,76.621189-71.4470796,49.3322476ZM159.9169475,674.2032755c16.5151703-28.2478731,49.1552174-39.6132141,75.9337792-54.1281184,15.5683956-8.429143,28.8637231-20.0660399,43.8756716-23.7720503-35.5410882,30.8991799-62.8530634,107.8998197-119.8094508,77.9001687ZM226.0007646,689.2261348c11.1762576-11.9690679,27.0282963-25.0861868,38.950121-32.8643626,19.036758-12.4660727,56.7442318-31.8350786,72.3005044-36.8066931-37.1025345,21.4395793-63.1246193,62.2844933-95.1379056,92.8987819-9.9553968,9.5190035-22.5997178,21.9729926-37.3862134,22.6252116-7.8145054-18.0305831,11.0683268-34.8428017,21.2734937-45.8529379ZM203.0336835,740.7138199c23.3222859,1.5505729,31.9890403-23.9150647,49.6522956-32.7939722-8.7019112,16.7164466-18.0536169,32.1660366-25.7965964,50.6475964,4.8176923,2.320348,6.1318288,2.9592317,6.3451941,9.5299142-9.0559037-9.6487199-27.2646954-14.3730648-30.2008933-27.3835384ZM242.2674468,773.8630715c4.6419083.5794809,8.6073516-.1539625,12.537638-.8886181,17.4983821-14.3960986,34.2621085-52.978893,38.4409544-77.5558747-17.272931,21.4989821-19.6163128,79.1306198-55.3343973,72.5369401-1.3383826-20.8249416,14.5500611-41.2231526,24.2096917-55.7029001,49.3092516-32.6752427,101.3655455-60.282981,136.6326141-118.8978329-1.7869347,9.057116-6.2736682,12.2066793-5.8833067,19.7362935,3.8708836,7.1259173,12.6443207,6.1439518,17.474136,8.2630575-32.319999,20.3157743-64.5332768,40.8909815-96.6169154,61.7752872-22.6834022,24.3176255-32.319999,72.7139382-50.0196234,106.3129538-7.6362968-4.9243749-16.6691668-9.1153066-21.4407916-15.5793064ZM270.1964842,788.318573c16.0884736-34.3093883,24.8497877-82.18566,47.769589-103.9464995,30.5791319-15.6035524,56.8618618-39.0919238,88.0459329-53.5825821-40.3236237,51.4283196-90.2838443,85.0976119-122.0243625,152.379182-6.7476787-2.2730319-7.0313576,7.4338785-13.7911594,5.1498996ZM278.5310676,801.5060054c-.1782085-3.4332422-6.0736382-3.7993577-5.3632286-7.7296802,4.3558048-.6630938,6.2263884-6.0141994,10.9980503-5.9560089-3.6939245,5.6590306-.3552419,14.2906282-5.6348216,13.685689ZM286.1552414,806.8219543c17.4971698-80.5163187,78.9766938-117.5836964,120.5780849-168.1355608-25.7614396,74.3481607-63.1949329,145.0860431-120.5780849,168.1355608ZM354.0151163,805.5672206c9.2232015-11.7326688,12.3012389-23.0858868,21.7717503-31.8581116-4.5218903,15.6387092-13.1522757,23.7126475-21.7717503,31.8581116ZM319.8124107,812.2567088c-11.5787063-23.0628891,15.7102351-31.9538835,29.5862557-47.9477975,17.5917686-20.2090917,33.5868557-57.9396374,43.9459852-80.5405647-6.4882459,46.409385-22.6009656,132.595645-73.5322409,128.4883623ZM385.3058701,751.9725155c10.3942863-75.5082948,35.5871557-145.4290849,76.8927449-196.4900767-24.7903849,69.0685008-44.0878246,134.620191-76.8927449,196.4900767ZM421.8762036,732.1780315c22.4579138-54.1511522,60.2235781-95.3864278,74.1941583-151.3014809.3782385,61.3728414-30.4263817,113.1442427-56.6969886,159.5536277-15.0349823,26.5542491-26.6488454,53.558336-41.660794,78.1123218,14.7755898-29.3123113,13.2238419-59.9277762,24.1636242-86.3644686ZM411.6346675,859.4940967c-25.4413519-14.005737-5.5281019-44.8940062,7.8145054-72.8218675,8.404897-17.5335027,15.9345112-35.196758,24.1151321-44.9751943-14.2651699,39.4228462.9831778,95.563424-31.9296375,117.7970618ZM447.9564789,732.2604681c8.5952286-28.4963953,30.9585827-48.3854389,39.8144564-77.141267-10.4888459,66.6524211-21.6177878,149.6188043-62.7936605,200.6810083,20.6236993-38.0153987,11.153188-84.4950973,22.9792041-123.5397413ZM430.3647495,863.5310659c5.8711836-18.9895148,14.5379381-32.8655354,24.1151321-44.9764428-3.0186346,19.9254128,2.0245461,49.3686167-24.1151321,44.9764428ZM463.454561,865.7326082c-16.6339688-11.5314265,6.0372691-58.0693156,4.9013412-78.3026533-5.7305565,3.9545325-4.6419083,20.5521734-10.3482187,24.5187935,10.229413-33.9068682,20.9910271-63.089427,23.2519723-98.9384402.6510067-.9940885,1.6814643-1.2898904,3.256246-.5673959-.9589317,25.2159039.520078,50.717948-3.8830066,80.1611519-1.9772242,13.1765217-5.4820343,28.1411905-6.120918,41.1164699-.5091673,11.1871325,5.0783374,29.8687223-11.057416,32.0120741ZM479.5430346,873.5579903c1.7166211-11.341061-.1891193-23.8435422.628015-38.1572042,1.1480089-21.0492177,5.3619743-44.5497121,6.333029-62.5439261.627973-1.0183346,1.6814643-1.2911027,3.2210892-.5564471,5.6699413,37.126745,28.531552,64.9358,30.3900126,104.1222835-12.3363957,1.2668567-25.1455897,1.5869047-40.5721458-2.8647061ZM532.0600023,872.3384475c-21.0492177-42.2051531-5.0431806-104.4896113-17.9469342-151.0990263.7213203-1.5990277.9468087-4.0733382,2.6513067-3.8248161,6.8786074,48.0301974,60.4914971,98.9142296,15.2956275,154.9238424ZM547.0961969,790.8631971c-14.313662-42.6791285-35.2089172-81.8062091-39.6010911-129.8728123-9.4001978-14.6094639-10.7616141-39.88477-5.6359542-58.4245204,17.024329,61.7280462,37.1740178,121.7273482,47.0603491,187.3153673-.3915739,1.5262895-1.7057104,3.3738034-1.8233038.9819655ZM532.5218897,700.6751247c-2.2730682-20.4697368-10.8440507-37.5292652-13.5438496-57.7504799,4.0139354,2.2960622,5.588717.0945596,8.9031535,1.1007712-.6037269,19.262283,7.2216892,40.2399748,4.640696,56.6497087ZM539.3774634,512.442044c31.0943607,37.1679989,28.039357,92.8345299,32.1951318,144.5950205-15.2713814-45.0710024-52.7715513-84.0211283-32.1951318-144.5950205ZM576.8291412,804.312487c-.7225326-16.9298119-8.9383103-29.7984087-7.1501633-48.1369168-7.5187035-17.5808187-10.1700102-37.8371902-11.697512-58.6851655-5.848106-16.3612807-8.2873036-36.5000199-11.1107574-55.4531656-2.2257884-15.165911-9.2341123-32.3563681-4.1557748-42.7033746,10.8040447,29.7389657,28.3848634,60.6381857,34.2924161,96.1198711,4.3558048,26.4597261,1.0413683,59.6913771.8995734,84.6478111-.0594474,8.0266948,2.6161054,17.3444559-1.0777819,24.2109403ZM605.4443422,868.0772023c-23.1804464-23.3235329-24.0920983-65.0073259-21.3813887-98.4171854,8.4533891,30.662745,37.7426305,65.7407692,21.3813887,98.4171854ZM658.7541561,848.6488338c-2.5094673,26.8864568-33.906858,14.5621841-40.4181833,1.7639009-13.1049959-25.7965964-5.5632132-91.7871-6.0021123-113.7831264,10.7737371,41.1164699,24.5782318,80.4690389,56.1526645,110.3147274-2.8658844,1.2316999-7.6241738-.9940885-9.7323688,1.7044981ZM693.6793943,849.8210962c-3.8720959-.5806586-10.3591295-2.6997643-16.326085-1.7881124-45.9110825-37.8129441-56.8618618-94.5329664-72.3114517-148.8380811.6619175-1.6572183,1.4317299-3.2089661,3.6344845-1.9893893,4.6637298,18.5991532,20.63461,34.9373238,37.1740604,55.5598483,11.4720237,14.301539,19.1313543,32.7115729,28.4248694,43.7338322,9.6244738,11.3289719,28.9813165,40.3115007,19.4041225,53.3219023ZM706.3709948,838.2545475c-22.2700068-36.0732893-52.51818-74.0401958-44.9764428-122.2838333,15.0592284,40.7261463,52.5763705,69.2576983,61.4322442,113.357646-5.280792,3.3968731-10.1821332,7.4580883-16.4558015,8.9261873ZM731.5396183,825.7884353c-23.8071593-39.9332621-52.9073293-76.9764309-71.8143609-119.5258059,2.5809466-12.4782352-.8874524-21.6057035-1.065661-32.5333644,16.1721226,29.1122069,33.788098,52.1387291,54.3996743,85.2285406,4.9255873,7.8605729,10.5603718,18.6815898,17.24986,29.6444462,7.2096147,11.7799486,27.1337666,37.9911175,1.2304876,37.1861834ZM755.869328,816.1748722c-17.4038224-12.2648699-18.3154743-33.4450163-35.4574393-45.8638486-11.0101362-34.6173133-40.5721458-59.2294896-53.7256338-92.6745059,16.7880197,18.3615418,32.5685212,33.1249683,55.7380569,54.9318753,25.9748049,24.4594261,57.5722714,44.9521967,33.4450163,83.6064791ZM751.3341023,748.8593213c2.640396,4.9716178,9.4717236,9.9796786,5.1147065,13.7802487-12.3593808-18.5276274-31.147702-33.5747327-49.9832543-48.5866812-47.3210369-44.5497512-76.088988-99.1276355-104.5611372-153.846105-1.455976-.5334133-.5928162-2.1554748,1.8584606-.9831778,36.8067326,48.5988043,73.4134352,97.3624817,119.0396724,141.2502764,10.0160477,14.0045247,20.7182589,33.455927,28.531552,48.3854389ZM613.5655602,562.147681c3.3265595,3.3738394,14.9404227,8.41702,10.1809209,12.2418361-2.414862-4.6176623-8.3103373-7.3162488-10.1809209-12.2418361ZM630.9451825,581.1141207c3.4210733,1.0171636,7.5526481,7.6120921,3.5507897,8.7249863-.0824366-3.4926451-4.4746105-4.6880171-3.5507897-8.7249863ZM643.684017,600.2333933c3.9775663-.1418395,10.6076516,7.589017,15.7926717,13.9220881,5.0431806,6.1100073,8.6073516,15.781761,15.9708802,18.5518734,2.3906616,10.5372982,19.1907571,19.5229282,17.6753783,28.2599962-16.8231293-20.0672522-32.9127686-40.512743-49.4389303-60.7339577ZM715.2729841,684.4314763c8.4884979,2.9010412,9.897194,9.6014401,13.993566,14.8821937-5.8711354-4.2866652-9.5541603-9.7917333-13.993566-14.8821937ZM600.1405615,535.1545415c81.0836314,53.4407426,130.310457,124.1192221,172.5991756,198.5740256-59.8695856-54.5293907-115.3700311-134.3243891-172.5991756-198.5740256ZM801.3416027,756.0446415c-15.2713814-4.8649721-18.8706594-17.994214-28.9219136-31.6217125-6.5828055-8.8667844-12.21759-19.0477436-17.6632553-28.2466608-12.6564437-21.4407916-28.1181567-40.536989-32.5212413-55.690777,24.8376647,29.8820576,68.1556769,50.6948762,93.8577136,81.6061791,11.365341,13.685689,19.1083205,44.7982342-14.7513034,33.9529712ZM840.0795852,744.5617071c-16.9419861-14.3366957-29.5741838-36.736419-50.1263572-53.2637464-23.1331173-18.5991532-50.8124696-33.8584116-69.2928171-55.890807-2.2730682-.5334133-2.1906316,3.2671168-5.0916728,1.5747816-7.256846-12.6212869-19.6514323-22.4821599-28.1048214-34.4875969,26.1287674,12.6200746,52.9558214,35.0197979,78.5863322,40.2884669-53.038258-25.1698357-99.4706767-58.2244904-138.8111227-90.40265-18.5397051-15.141665-37.4347056-31.0410193-51.4040735-49.0243226,18.2318703-7.9854401,38.0505555,8.5418872,53.1449407,17.3201735,20.6115763,12.0284708,48.1247938,27.5374635,65.5868542,42.5494121,34.3093409,29.4904427,66.4996235,63.9889913,96.961162,91.7276972-8.3345834-2.1906316-15.8290408-11.0816621-23.1101328-9.9445218,36.1205691,22.6239993,81.6643697,40.1453764,99.6003931,72.5720969-8.1442518,11.1762217-17.769938,19.570208-27.9386847,26.9810165ZM637.5388529,512.5075084c2.1554748-.0472798,2.6997989,2.320348,3.8126931,2.6573252,16.9770918,5.1438448,1.5032558,5.4396468-3.8126931-2.6573252ZM874.6362322,705.7534622c-55.570759-33.0061626-102.7135873-70.5354278-141.3909035-112.6229524,42.2172411,10.6076516,66.5457385,37.256497,97.031523,50.3154254-9.2826044-9.9457341-21.878433-18.114232-33.4692623-26.8161432,7.1744094.8534209,15.3792764,2.5458364,24.3769895,5.7184334,25.7844734,9.1759217,78.5269294,27.6089894,66.8658388,53.6419849-11.4490423-.6740405-25.3941641-23.4047225-34.522806-17.9469342-3.3144365-5.4699113-10.3591295-11.0695391-22.2809176-12.7631264,13.1886448,17.9129897,81.6413359,37.88447,43.3895381,60.4733125ZM787.1588694,576.9462642c45.7571659,18.2087917,105.6982774,42.6088149,107.3676187,82.5529878-33.7177844-36.2151287-94.8772104-43.8987054-142.5522898-62.3438961-42.9870535-16.6097639-67.056118-50.6585071-100.4417314-69.7547046,43.141016,20.1375658,91.9883424,32.2011933,135.6264026,49.5456129ZM666.29594,524.1334946c7.8132463,5.0783374,16.5030345,2.4852212,18.4924238,10.0984843-10.0281707-3.1968431-15.2483476-5.576594-18.4924238-10.0984843ZM688.020411,533.6512857c10.5724475,2.320348,34.9009449,11.9460342,51.3337126,18.3385081-19.3689657-3.3265595-35.2925661-9.0680267-51.3337126-18.3385081ZM619.3543073,496.3535704c94.9596971,1.4317299,190.0854797,45.0528179,266.2569043,89.9213657-91.6804174-15.981791-186.9601625-57.7141535-266.2569043-89.9213657ZM856.1086048,566.776254c-19.794484-10.3470064-38.9973642-18.6573438-46.929463-27.7738626,32.2727192,8.0266584,101.4006632,1.480222,116.5302051,36.1920949-21.0370946,17.1068082-41.2583094,6.3803096-69.6007421-8.4182323ZM939.5962782,544.045572c-3.0065115,9.4717236-5.1256173,11.993314-6.2736682,21.1328666-45.8165688-24.7200713-98.1565402-27.2889414-141.4636417-29.7984087-15.5683956-9.7432795-37.3037768-16.0654399-55.7259338-24.2279194,65.6704557,9.0147285,125.0781538-2.344551,190.8795382,18.4270067,4.2382114,4.7947012,9.2813921,9.1517183,12.5837056,14.4664548ZM935.1689475,522.782989c-42.7264083-6.4991566-86.1753493-34.4148587-126.9838942-42.3712035,38.9501357-4.2612452,93.7643663-4.7170711,128.3696102,27.4247194-3.2562995,6.5234027,1.9056868,8.4594506-1.385716,14.9464842Z"/>
  <path d="M1054.0910265,489.1258197c-3.0901604-21.7717503-6.1924439-42.5906304-10.4064093-62.9355-4.3570171-20.7243205-6.4639998-42.460914-12.2769929-61.9292885-4.7000989-15.8169178-14.3730648-35.4938084-21.7959964-55.5719713-19.7108351-53.1037224-50.5869812-95.4809874-100.5944816-131.1808873-12.3606418-8.8025324-27.1701357-16.8582861-41.3419583-26.0996721-25.6547569-16.6922006-54.6481964-31.295603-83.4755504-49.3674044-13.981491-8.7431295-26.3057637-19.2150032-39.9332621-25.6729415-8.4885459-4.0430306-17.2607707-6.2857913-25.9505108-10.8088939-33.1128933-17.1480265-96.4508323-38.8615862-143.640986-53.4528656-14.2542591-4.3921739-33.9954018-4.8067816-47.1840466-6.3573171-64.8776095-7.6593306-126.5692866-11.1398526-180.1167118,12.38362-23.5477742,10.3530682-47.6992754,22.9380414-67.7895614,31.9890959-108.1131851,48.7467052-184.5331318,168.4313228-195.3771825,181.3423502-7.0095362,8.3042758-13.7099034,16.8582861-19.7714187,26.211204-15.1780344,23.4883714-32.705543,51.5337899-42.4124229,81.2861311-.7346557,2.2197269-1.5396249,4.4455152-2.1554749,6.7125219-3.3617164,11.8090439-4.0127232,25.7493166-7.0798499,39.2992276C1.4943946,434.0157358,2.5951658,472.9294511.4057464,519.3618698c-5.7548027,123.1360444,50.3323677,220.062097,128.4337787,300.5541696,29.5256745,30.319699,55.5950051,60.8988309,89.5491886,91.0293776,8.9625564,7.9915347,13.2359604,14.620375,24.4121463,21.0492507,19.2731937,11.1640987,49.7116984,20.5291397,74.4305574,28.2830299,26.6027779,8.3236727,53.370429,17.486259,76.5266693,21.2274262,21.4055949,3.4453652,44.7751606,1.8354268,66.2147399,4.3448941,21.274706,2.5215903,40.4545524,9.2704813,59.4198212,11.5435495,18.942235,2.2839789,35.8659854,2.2609452,54.5366645,2.4621567,35.1846711.2606759,70.4760249.9225934,103.0809152-6.1802901,13.2710814-2.936229,25.358955-10.7264573,37.5413882-17.9833033,11.3059381-6.724645,23.7720503-16.4436784,35.6114507-21.6529446,13.3534691-5.8723959,29.1352301-5.9317988,42.8912826-10.21729,58.8160443-18.3615418,103.5318419-63.1015855,155.7057279-90.2365645,27.0986098-27.039207,38.2748864-62.7694145,55.3937628-98.5699356,20.9073782-43.7447429,48.8946062-81.9723337,59.8344288-134.0516209,9.7311565-46.313613-3.7654132-89.0521444-9.897242-131.8379556ZM1009.2686017,655.2719513c-3.3981408,7.7781363-2.2258438,13.0589283-4.4273861,20.1860579-2.9010412,1.4208192-6.7125219-3.3386826-12.7158466-3.776324-13.0819621,6.8543614-9.1031288,20.9776918-.9225626,28.8625108-.307925,5.2092662-3.6707987,4.7837478-4.3097373,9.4474776-15.4144332,2.1785086-16.5151499,30.639747-28.4963953,39.0688901,4.936498,18.089986-13.8044409,38.8312787-27.9398947,42.3118007-1.4560294,13.6505322.3793974,26.3772895-12.4782886,31.5744327-13.1765217-6.120918-17.2256139,4.5340134-20.3860879,16.9770918-8.3588295-.2255232-4.6528191-6.948921-9.5662309-9.0098362-6.0724783-2.4743105-9.6366492-.30796-11.9691203,4.108495,1.9893893,5.8360268,4.3097373,11.5908294-.8049692,18.1602995-5.0904605-3.0065115-10.0863613-7.5405249-15.8993544-3.1847201-.9710547,4.4515768-.9237749,8.3830755-.5806932,12.0999966-13.4480776-2.9834778-17.5214158,11.353218-27.3822888,14.8579861-5.0080239-2.4391537-4.736468-7.6835767-12.8807198-8.4182323-9.377164.6037269-8.0157477,10.0996628-10.6549314,15.2374369-5.6953495,11.1640987-19.6768906,13.9572449-29.1001222,20.4806476-2.9131642-7.0204469,6.2857913-6.1318288,7.0204469-13.2359246-1.9178634-.9468087-1.6935873-3.0186346-3.4223315-4.096372-3.6817643-1.7518116-2.8646721,4.8661844-5.8833067,4.3933862-.4618875-3.6938874-5.6359474-4.8540614-10.4306554-6.1803209-10.4645998,6.7125219-7.0798498,19.2853168-11.03317,31.999951-5.1619863-1.1710847-3.9424095-5.7657133-8.6303853-7.1744094-11.5556726-.9698424-11.1640987,20.1617793-22.6239993,19.3568426-3.5872047-1.2196094-.3794027-6.096672-3.9909016-7.3041258-5.8117808,6.5706825-9.1031835,17.8172178-21.770538,16.5273273-5.6832767-1.2789797-2.4985566-7.3174611-8.1697102-8.5721948-8.4412661-1.776024-12.4782352,11.4368669-11.9448219,19.4756483-7.1744094,2.0245461-15.6629553,1.6329722-21.6771442,5.788747-4.6880224-1.3614483-3.4332887-5.9899893-8.5952288-7.1501633-3.611497,2.8052692-5.4335885,8.8910305-11.3896333,7.3635287-7.8132473-1.6814643-6.6179623-8.2642698-13.8275285-10.21729-5.1498633.627973-8.3467064,4.9255873-9.8135931,12.3836756-4.8540161-3.0659144-5.0553037,2.3203162-9.2935151.3200162-3.5641709-7.932067.9104396-20.2212152-15.165911-21.3692338-.2133653,4.640696-4.6648974,1.5262895-4.8892182,6.1911994-2.936198,6.9610763,2.3555048,10.8331722-3.1847201,15.9236326-12.2891159-1.2426425-11.2950274-9.672966-19.0731637-13.3426073,1.1371403-3.8114808,7.896942-4.8189046,2.5579594-8.429143-6.1100073,4.7704125-9.9808909,9.7202458-16.1781403,18.1845456-8.5237464-.9468087-4.7595455-8.4642998-10.5955288-10.8210491-8.8328834-2.4864014-12.5970844,4.4164522-17.8778764,8.4885781-7.3865196-1.0886481-10.2039547-4.7000989-12.8322277-8.4412661-13.8760206,9.7081227-25.2171155-.1660855-31.5635219-12.4309554-7.9550908-1.5978154-8.8316276,9.8390515-14.4785352,12.5849179-8.0860613-.7807232-7.589017-6.9137642-13.6735248-5.6117508,1.4559348-3.480522,8.4412249-6.1681979,2.9361568-9.885119-6.8313276-1.776024-7.7429795,4.5934162-5.7426795,9.057116-4.9013412-1.0425806-7.256846,2.5809932-11.5544603,2.6755528-8.8788669-8.0860613-13.981491-9.5068804-28.7570404-11.602985-2.2839789-4.2854587-.9589317-10.5239701-5.0904605-13.8032498-8.1563749.9940885-12.1460642,9.6596306-17.154088,16.3733324-7.3162488-4.9013087-14.9173889-2.2972818-20.730382-7.6956672,4.7243449,2.8416383,5.9790786-8.3467064,2.5094673-8.4533891-5.3146976-1.0886481-5.6469076,6.9974131-8.9855901,9.6014401-3.3144365-.9819655-6.5937162-1.9408972-9.8499622-2.9240749,1.0062115-4.2503345,7.0325699-8.7128549,1.9299864-11.685389-3.2441229,1.2195769-7.1974431,1.2911027-8.1454257,6.7610141-8.4994951-1.6935873-7.6120892-8.5006689-9.731195-13.6153754-3.160474-.7455664-4.1315288,2.628273-4.960744,6.1912316-10.6900882-4.0842489-1.8233038-18.7409927-11.4477776-23.3344089-2.9834778,7.5187035-11.2586583,5.3995977-13.461413,14.3609418-15.0349823-2.5215903-15.9587202-12.655265-23.4410916-19.2259477-9.1395526-1.5747479-12.4067093,7.6593644-21.6759784,5.8239376-9.993014-6.0251461-5.1861962-20.0308831-13.461413-27.0271183-7.8023824-2.7470444-7.7902593,8.8668187-13.6384092,9.7542246-6.120918-5.3147365-11.9338758-10.8670844-18.2087917-16.1357535.8643721-6.3464064,2.3797509-13.0819621-1.0171223-17.1783341-7.0204469-4.2382464-8.5831055,1.5505356-13.9705802.4376414,3.3156488-3.6223615,3.6344845-7.7781363-1.6814643-9.6838767-4.5097673,2.2015423-.9104396,11.1762217-5.7414672,9.0098362-7.7066104-4.5703825,10.8210169-11.153188-.0472798-15.3441196-3.7411672.3915739-3.6575183,7.7551025-7.1501633,8.6073516-10.4779352-7.7902593-12.8807198-28.3181867-31.0773884-24.5770195-.4970442-2.8658844-4.1557748-4.0382172-5.7656798-6.3342834,2.8416048-7.6714536,8.4291095-10.525215,5.4820009-18.3263851-8.3236727-1.0304576-8.5248816-6.4409661-14.2785052-8.8316276-4.6637298,6.0724259-2.4621875,8.2872673-.9468087,13.5317265-5.2322999-1.6693413-3.5750817-2.7701124-8.4642998-2.4985566.3430818-8.4642998-2.6646421-15.1065082-7.6605429-20.6818899,2.8646721-5.0674267,6.5112796-10.5021812-2.6876758-11.5665833-.840126,2.8173923-1.6693413,5.6347845-2.5215903,8.4764229-5.3741394-1.8233038-4.1315288-7.2338122-2.2730356-12.9522457-5.6226941-4.8419383-16.172123-7.0325699-19.0368273-13.3304842,2.0839489-10.21729,6.6531191-21.7717503-1.3492933-26.4597643-4.5461364-1.1601358-7.1392526,1.3262977-12.0878736-.5685319,2.1069827-7.0204853,1.3020135-12.537638-1.0292453-17.1783341-7.5065804-1.8463375-11.8514745-5.4214192-13.8396515-10.2403238,1.1007712-5.9427095,6.320948-4.3328101,6.5694702-11.8502622-.1418078-8.4533891-7.6823329-5.9196757-17.0474053-9.6608824-9.3941363-13.9341717,4.8540614-22.8615713,10.9155766-36.6648537-2.8537614-6.9028535-10.7022112-7.6714536-17.929962-6.8555737-3.3156488-3.3265595-3.0307576-8.5940162-3.6938874-13.377764,5.0249961,2.7470787,6.3391326-1.3844501,8.7188835-3.5399249-2.6040269-.9346856.4146076-4.936498-2.9592317-5.468699-2.6937374.1539625-3.5581094,3.5629586-5.9136142,4.3800509-5.3632286-14.5027813,5.2274507-30.9113447,5.120768-42.9870535-3.936348-.6873758-4.3036758,5.1728971-7.736918,5.3741394-.627973-14.8931428-10.903423-30.815531,3.1253172-46.6155196-6.096672-9.4644067-10.9628564-10.7252019-9.897242-18.3081574,1.468099-10.8028324,16.7455419-15.0834744,17.8354023-23.8375147,1.2547336-9.9275496-9.5723448-8.4242938-9.5008189-19.6999244,9.1686479-.8704336,8.9916516-5.4456653,14.4967197-12.5315765-1.776024-.640141-1.3965731-2.3979805-3.8356957-2.6876758-5.2808232-2.5034058-2.5107108,9.8681467-8.1515568,6.7901093.1539625-9.0158977-.9237749-20.0672522,5.5935973-29.0649654,2.652488-2.9423052,4.4988255,4.480672,7.4592695.7225326,1.4911327-3.9896893,2.4743105-7.6423584-2.1312287-8.3176112-3.2198769-1.5565971-1.1250172,6.6603929-5.4699113,2.9725671-5.8069316-13.2480476,9.7554339-17.9723926,14.9767918-24.690976-1.9772663-4.0490922-4.5461364-7.7841978-9.1516756-10.3942863,1.5384126-15.7757465,8.2400238-27.4004733,13.4020101-45.1122207,5.0553037-4.4273307,14.0639276-1.6754028,16.8813198-10.3179592-.0472798-4.7000508-5.5632586-6.4578903-4.1193738-11.9387123.0472479-.1721954.1539306-.2897404.1890874-.4558259,1.5517479-1.0716759,3.1253172-2.1433518,4.6649421-3.2623075,11.4841467-8.3576172,21.25046-16.7758495,30.2008933-25.8378147,1.4086961-.5855424,2.3082578-1.5869047,2.7701124-2.8586106,12.8213169-13.4141331,24.0920983-28.4673,36.5230537-47.0543805,2.320348-1.5917035,4.2382114-3.6223111,4.108495-6.1802705,2.1542625-3.3144365,4.3800849-6.7234327,6.6300853-10.2524468,1.9530202.5564471,3.8830066,1.160174,5.80087,1.7226826.7104096-2.3373203,1.4208192-4.6879759,2.1191057-7.0265593-1.6935873-.259382-2.4270307-1.0764742-2.3797509-2.2487712-.307925-.0715259-.4740105-.0472798-.7455664-.1006212.9225626-1.4499144,1.9178634-3.0307576,2.9240749-4.7243449,2.1312287-1.1128942,3.9775663-2.7228326,5.3741394-5.1910816-.2242761-1.0243961-.3188357-1.9942385-.3782385-2.936198,3.7412016-6.1621364,7.8726959-13.0286208,11.9811909-19.9836033,3.1956308-2.0900104,6.5464364-3.9775663,9.3407949-6.1500133-.7576894-9.0631775,6.9258873-10.5494611,10.0742383-18.4803999,4.5109796,3.0720283,5.256546,8.1624888,14.2069793,8.8486523,6.6652421-6.8604753,1.6220615-14.1766717-.1782085-20.0018405,4.7243449-3.6635271,7.4350545-11.0331173,17.0486176-5.6820117,4.2030546-9.7202458,10.0160477-16.461863,17.9711803-19.2150032.5807296,2.4743105,2.6755528,4.1315288,6.1924439,4.9425063,1.4438895-3.2258852,5.6820643-1.1710315,6.3451941-5.7826856.6510435-4.7182301-2.6634298-7.2337589-.8400893-12.5557692,5.1025468-2.136078,7.9550959-8.5176412,14.620375-7.9139142,4.0490923.5625086-.2715929,5.640846,2.5215904,6.8786074,6.5003318,2.5276518,12.1472768,3.5047145,13.414096-3.6817643-1.9893893-3.256246-3.5399249-6.7840478-2.7470787-11.525365,7.2338122-3.3617163,15.5441496-5.2747305,22.3997233,2.0536413,4.0006-5.6469076,2.6755528-24.7783165,16.1599995-18.1955108-2.1433518,5.540225-8.2993884,3.5872592-9.377164,11.0101907,1.7529902.6036727,1.3735393,2.3785386,3.7654132,2.6573683,4.4867336.9770621,4.4867336-6.2979143,6.1681979-10.4415661,3.0901604,2.0003,11.9811909,7.6181123,14.525815,2.776174-1.1601353-9.21714,1.6693413-16.8473753,9.1043958-20.2975898,4.6176623,2.628273,1.9893893,9.1807709,11.0101362,9.4111085,5.7305565-.9589863,8.0618152-4.8067816,8.0266979-11.4308054,8.050865-3.2368491,14.9052264-8.8546614,25.3346695-7.7720748,2.9726072,1.4984066-2.5446241,7.6544814,2.096072,8.2703313,5.564471-4.3097373,13.4371669-4.2976143,16.326085-13.5620341,2.9713548-.3248972,5.8602729-.8110307,9.3056789-.2897404,4.4503237,7.7308565,4.7109688,18.1372658,14.5257742,18.1372658,10.7737371-.0303076,7.1150065-14.8288908,15.165911-20.0491229,2.8525491,7.5236079,4.8770951,15.484802,10.4767229,21.5341942,7.3162488-6.6179623,9.1989555-10.6367469,12.7740371-22.2858221,13.3789763-3.1143512,9.2232015,10.8622355,15.3792764,15.3187165,4.5812932-3.2320549-.2254884-10.565221,4.1909316-14.0942904,11.6490199-2.0475246,14.8580291,9.8391067,23.6774907,13.1826385-5.6820643-.4437029-4.9122519,8.6606929.332171,9.2826044,3.5872047-5.6238738,2.2730682-6.1451641,1.9409405-11.6914505,7.2216459-.4618875,8.938267-11.1350034,18.835509-6.6773651,1.0425806,4.576444-1.7166211,11.1822832,3.7241949,13.377764,8.8316276,3.2792797,10.1687979-7.3283719,15.4495899-10.713122,11.4829344,1.6269107,7.6714536,11.6138631,11.7205458,17.2607707,6.9258873-.9831778,8.1563749-12.5436996,16.8704091-10.3057881-2.4621875,16.6509823,19.9836033,23.038607,26.7555281,7.9733171,5.2092662,1.1189557,6.0615152,4.6116008,10.4779811,6.1621364-.9832237,4.9776619-10.2524927,8.2751262-1.9773122,11.6914505,3.492691-1.6050892,5.2201769-6.3815632,6.6179623-11.845413,12.205467,2.4621875,7.4229315,14.1233304,15.9466342,18.5688457,4.0612152-.532201,7.9199758-1.4317299,11.5544603-2.7107096-2.0718259,3.4926451,2.096072,3.5811432,2.948321,5.4868836,2.2973611-1.616,3.468399-5.2504845,6.3451941-5.7948085,6.5949285,4.7000989.5928162,16.2133409,5.8020823,21.6541569,12.2406238,6.5997243,11.9690679-9.8742083,21.1195313-9.0511083,7.6956997,3.40905,2.0718259,11.6138634,2.8659321,16.1952102,12.7497434,3.4150577,24.4230093-11.9279033,30.8518523,4.5812932-.2606452,4.5934162-3.6817643,3.3980854-3.9424095,8.0387815,3.5750817.4206692,2.308225,3.4744605,6.6179623,3.5168381,2.7701124-8.056913,11.353218-5.3280188,16.4679735-8.9152235,5.1970942,12.5849179,3.3616674,29.6856645,8.2630085,39.2701324,4.5352257-6.204567,9.044993-12.1351534,14.1839456-21.878433,5.0783374,2.160324-4.2394237,10.5482487,3.6926751,13.3838256,3.9072527-.7819355,2.5106796-11.353218,6.5949285-11.8563237,8.2036547,13.7438796,19.5459619,11.9799786,36.5230537,21.6056648-.9358979,4.0600029-4.1084444,9.3347334-.1309287,10.6961497,4.2745805.5746316,5.884519-3.6635798,11.1289419-1.2850412,5.4929451,5.6892863,10.8682968,11.4489899,20.0430062,15.1598495-.5091673,7.4531877,6.9137642,11.2113272,13.4020101,11.6623552,2.9240749,6.2203269,8.6182623,14.8628353,19.0489177,13.3353334,6.0615152,12.0709014,23.6423339,17.9723926,23.890856,33.1855834,1.2426106,2.840426,11.3410949.7927961,13.697812,5.5935162-3.1373871,6.6531691-7.6362968,10.7313565-9.1516756,20.3037013,9.2110785,9.1043958,17.794184-.1951808,24.1042213-3.5872047,4.5097673,5.8299653-.1782085,16.6388592,5.8129931,21.6771416,17.5335931,5.5111787,19.3798764,19.4866081,27.9278251,29.8045193-8.4533891,26.2463608,16.9407227,34.1845211,11.7314565,58.679104-1.5626586,5.1438018-8.2388115.8231538-8.5709825,8.204867,1.3977854.4073338,1.3383826,1.6390337,2.3797509,2.2488221,4.9959008,2.640396,4.6879759-4.480672,8.7140342-3.5338634,2.6864635,11.8393515,16.3963986,23.0798253,5.4456653,38.4287941,5.1256173,7.4350545,9.8499622,9.6135631,8.9383103,16.4558015-1.2911027,9.5068804-13.4250439,12.5740071-13.7693379,20.4576138-.6740405,15.5623341,29.3959241,8.5782118,21.914802,29.5146858-11.9339111,8.3697842-4.9728671,25.0340584,8.7952586,27.1823027-2.1421395,9.0207469-1.2547336,16.4436784.7346556,23.2277262-2.936198,5.4820343-10.1457641,3.0307576-13.2128908,8.3345834-.4970442,8.5237027,1.4329976,15.793884,13.141365,17.7226581,2.9713548,8.6303853-1.5262895,21.2989521-5.3983854,33.6825865,12.0757506,14.5016102.5685701,47.6387014-11.5665833,59.4538069.0715259,3.9193757,4.7474341,5.3159488,6.7719802,8.1333411Z"/>
</svg>