<?xml version="1.0" encoding="utf-8"?>
<!-- Generator: Adobe Illustrator 27.2.0, SVG Export Plug-In . SVG Version: 6.00 Build 0)  -->
<svg version="1.1" id="mint" xmlns="http://www.w3.org/2000/svg" xmlns:xlink="http://www.w3.org/1999/xlink" x="0px" y="0px"
	 viewBox="0 0 500 738.654541" enable-background="new 0 0 500 738.654541" xml:space="preserve">
<g id="outline">
	<path d="M392.2254333,44.491909c-0.5026245,4.2849083,1.8911438,5.6493607,2.8377686,8.4980354
		C405.5719299,57.1191826,399.9095459,39.9796219,392.2254333,44.491909z"/>
	<path d="M477.2291565,206.0009003c-0.0836792-1.4841156,0.1437378-3.2795563-1.8910217-2.8366547
		c-9.4076843-0.2632904-17.5585327,5.7091827-25.493988,3.7702484c2.7050476-0.1077423,4.4764099-1.184967,3.7822876-4.7277985
		c-6.3436279-7.1932983-17.6902161,1.5320282-26.4515381,0.95755c0.8497925-1.6756439,2.6451111-2.4057922,1.9030457-5.661377
		c-3.5068359-5.254364-10.4009705-1.747406-13.2366333-4.7276764c2.7637939-5.1107483,7.0845642-8.6535797,11.3335876-12.2802124
		c4.2010803,1.7834015,4.6679382,7.3010559,10.3771362,7.5524139c3.339386-0.1316986,3.3871765-3.5428314,4.7397156-5.6612701
		c6.1520691,3.5906372,8.0192566,11.4902344,16.050415,13.2376404c4.1412964-5.3621063-0.9335632-12.9264374-1.8911133-18.9109344
		c7.7080383-1.101181,15.2963562-2.3340454,20.7781067-5.6613922c-1.8910217-8.5099487-13.453125-7.3130798-18.8869934-12.2801971
		c6.7145386-6.8103485,19.3657532-7.707962,26.4395142-14.1712189c-9.1682129-2.2980499-21.1013489,10.0778656-28.3306274,6.6188202
		c10.3650818-5.4100189,20.7781067-11.1311188,21.7356567-18.8990173
		c-5.314209,3.3033905-12.0407715,7.0377502-15.1287842,2.8485718c0.8139343-2.6690826,3.0640564-3.8778687,2.8485718-7.5643311
		c-2.3218689-2.5254517-8.1748047,0.5744781-9.4554443-0.9335938c0-2.5254517-0.3710327-5.386055,0.9454956-6.618927
		c-1.7354736-1.1010513-3.1956482-2.4655075-4.7157593-3.7701263c-22.5375366,8.3184128-26.056427,35.6436005-46.2840271,46.27211
		c-0.2632751-1.9390564-3.5188599-0.8858032-3.7822571-2.8366547c9.0964661-10.7362518,19.0905457-25.6136627,24.5603943-36.8286743
		c-9.9342651,8.9528351-16.3256531,21.4604492-25.4938965,31.1672821c-0.4896851-2.968338,2.0586243-3.6983643,0-5.661377
		c18.2407532-20.6824036,28.2108765-43.9141159,46.2721252-64.2254944c2.3458557,0.083786,2.9203186,1.7713623,4.7276611,0
		c2.1185608-2.4178238,0.3710327-6.6667252-0.9454956-8.5099564c-2.8964844-0.6822205-3.4471436,0.9694748-5.6853333,0.9455185
		c-1.3046265,1.2208328-0.9215698,4.1053925-0.9455261,6.6068954
		c-15.9306641,17.1156158-27.2893066,38.8154068-42.4899292,56.685112
		c-1.6277466-1.2208252-3.6972656-1.9628906-3.7691345-4.7277832c6.0911255-6.9300079,10.7960815-13.1538467,15.1049194-19.8445282
		c-2.16745-5.6853333-7.1226501-8.6176987-9.4446716-14.1593018c2.8138123-6.4034424,10.9157715-12.9145279,8.4980469-18.8990173
		c-5.43396,4.9790421-9.5143127,16.2897644-15.1049194,17.953392c0.6223755-10.3651047,5.2903442-12.5674438,5.6624756-21.7236328
		c-6.6787415,1.4960403-5.6385193,10.7242126-10.3782349,14.1712265
		c-0.8377686-8.3902893,7.6731873-16.4453201,3.7583008-21.7237473
		c-3.9258728,5.8408813-5.0618286,14.4346237-10.3760071,18.8870926c1.6864624-13.620697,8.1736755-21.1372299,8.4979248-36.8399353
		c-7.5056152,10.7480659-9.8515625,26.6543274-15.1048279,39.67659c-4.6081238-1.7235641-7.7918396,2.8486862-9.4435425,0.9456253
		c1.7115173-10.8440018,10.6752014-23.5669708,7.5523987-33.0578842
		c-4.8713989,10.2448883-7.576355,22.6447525-13.2377319,32.1122589
		c3.4830017-15.7751236,10.8200378-28.6173248,13.2377319-45.3379593
		c-9.4914551,13.50103-11.190918,34.7813187-20.7661743,48.162674c1.7953186-6.8342896-4.91922-5.158638-5.6852417-9.4435349
		c5.8528137-1.0652924,8.2705078-5.5775909,11.3345642-9.4435425c-1.0772095-8.0670624-14.1234131-4.1293564-20.7781067-6.6068954
		c0.227417-2.9563217,12.1365662-6.6901283,4.7157593-5.6607132c4.1173096-4.4884605,6.6906738-5.7570915,7.5644531-12.2801971
		c-5.7691345,0.1196632-7.0018921,9.060482-11.3346863,7.5403748c1.7354736-4.8593788,8.5697632-9.6589241,6.6068726-15.1048317
		c-5.9246521,7.9115295-12.0646973,15.643425-18.8750305,22.6687126
		c4.3326721-13.1772423,10.3411255-18.9582901,15.1047974-31.1666183
		c-8.0430908,3.9257851-8.4501343,15.4877663-16.0383911,19.8326035c-0.2394714-3.8660622-2.1425171-6.0682869-4.7397156-7.5525169
		c-8.426178-0.8856812-6.9660034,8.1389236-11.3346863,11.3226509c0.0837708-6.8341942-4.0574951-12.9024811-10.401001-10.3770294
		c-2.2262878,10.9395905-5.43396,21.9505997-2.8128052,35.8824921c-2.1663513-4.0096893-4.7755737,1.1250076-6.6188049-0.9335938
		c-0.167572-10.4010925,5.9844971-22.1062508,3.7821655-34.9488983c-3.7582092,9.0006523-4.7875061,24.1408997-9.4554749,29.2755966
		c0.4070129-25.2779427,6.7864075-38.8388062,8.4980469-62.3340225c1.4003296-2.7049522,6.55896-1.6396618,5.6732788-6.6188154
		c-5.9127197-0.897603-8.1030273-3.6744351-13.2137756-0.9335918c-0.3830566,4.7876225,4.4764099,4.3328047,5.649353,7.5524073
		c-4.6678467,20.5149441-8.2705078,42.0949554-13.2137756,62.3340225
		c-1.07724-17.7853661,2.9683228-31.7293053-0.9455261-44.3924446c-2.1185608,10.2693939-1.7115479,30.9757576-4.7277832,40.6222038
		c-0.7420654-7.8995972-9.2160339-14.4340668-16.9959717-9.4550247c0.5386047-28.5938148-0.6941528-47.5288162,5.6733093-64.2254944
		c-3.3273621-2.393867-8.7373657-0.3471859-9.4554749,2.8485737c1.2089233,2.2501214,4.1412659,2.7887409,3.7821655,6.6068945
		c-2.6092529,13.6565619-2.1782532,36.9242706-5.6612701,54.7700272c-5.4224854-2.6451187-2.3938599-10.0060081-2.837204-16.0503311
		c-0.789978-10.5207558-2.3220062-23.6028481-5.661377-29.2761497c-0.9455109,3.650465-0.4548187,12.447773,0,19.8326035
		c0.2274017,3.8419991,3.9617767,24.6561089-1.891037,27.3844566c1.8192749-19.8560028-7.6482239-36.3492279-13.2258148-51.9328156
		c0.0239563-4.4405613,0.5027313-9.3238811-3.7701263-9.4555931c-2.4057922,0.1196785-3.6625061,1.3884225-3.7942047,3.7702565
		c0.6701965,2.5014992,4.3088531,2.0108032,4.7397156,4.7277765c1.1251221,10.6164818,8.8809814,21.5201912,11.3226471,32.1128159
		c1.2926941,5.613472,3.734375,14.2430916-0.9335938,18.886982c-2.058609-2.669075,0.0239563-9.4794235-4.7397156-9.4434357
		c-4.1412659,5.3021622,5.6972656,13.8235931-0.9455109,16.0497742c-5.828949-8.6170311-9.1323395-19.808094-18.8751678-24.5478058
		c-1.6517029,2.130455-0.4906921,7.0736351-2.8366547,8.4980316c-3.3990936-0.3232307-4.548172-1.4482422-7.5523987,0
		c-2.4296417,6.6786385,2.5614319,8.6654968,0.95755,15.1161804c-7.5763702-8.9521828-13.4651642-23.0875282-15.1048279-34.9487839
		c-4.0934753-0.2873535-7.6482239-0.0718689-7.576355,3.7821617c0.9215546,2.2142601,4.0574799,2.226181,5.6612701,3.7821655
		c2.1783752,12.7708817,12.7589722,27.3007774,19.844635,38.7072182c2.6809998,4.3207703,5.8407745,10.8079987,11.3226471,9.4554672
		c-0.7182159-8.3902893-8.1748047-10.077858-11.3226471-16.0623627c3.9616547,0.1315918,5.2662811-1.711647,8.4979248,0
		c-0.7181091-6.9301224,5.1466064-10.4484406,1.8791046-16.9953957c18.1329956,13.991169,15.463913,48.2703209-2.8366547,57.6181602
		c0.0958252,3.5307999,0.7182159,7.6361923-3.7702484,6.606781c0.5865173-23.3514862-22.1544952,3.67453-29.2760315,3.7822723
		c0.5863953-5.1467285,1.7115173-4.4405518,0.9455109-10.3890533c1.4242859-0.1675797,3.4949188,0.3350372,3.7821655-0.95755
		c-1.5799408-2.3938675-1.5918579-6.3315735-0.9455109-8.4980316c-1.6876831-2.0825577-5.254364-2.309967-7.5524139-3.770256
		c6.6786499-4.0335159,12.0167999-9.3956223,19.8205719-12.2800751c3.7822723,4.715744,6.6548004,10.3770142,15.1288757,10.389061
		c0.143631-4.2848969-8.5937347-4.5960922-6.6068878-7.5524063c4.3088531,1.268631,7.9353638,7.4686203,12.2562408,5.6612701
		c-1.7475128-3.6026688-4.9072876-5.8050079-8.4980316-7.5524139c-2.4656219-5.9964218-8.1748047-11.1550751-12.2801971-16.9959488
		c-3.8778687-5.5177612-6.1281128-14.7692184-12.268158-14.1707916
		c4.6678467,12.0043335,14.0515594,19.3174057,18.8990173,31.1667404
		c-5.0269623-3.8061142-10.6763153-8.091011-15.1048279-14.1593018
		c-4.8355255-6.5829468-7.9235382-18.5394707-16.0743866-16.0738373
		c3.5787048,6.4985962,9.2759705,10.8793106,12.2801971,17.9648666c-10.6883392,0.4070206-16.8643646-9.1083908-25.493988-0.9574356
		c-1.4482422,8.4739685,2.884552,17.6183472-0.9455109,22.6692581c-2.4537048-7.5165329-1.8073578-16.0983505-5.6733093-21.7118225
		c-6.0796509-8.8330765-10.6279449,4.3088455-9.4549103,8.4980316c2.2380981,1.2327576,6.5344696,0.394989,8.4973602,1.8791046
		c-0.6701965,5.4339752,3.901947,10.5686722,1.8911438,14.1713333c-4.9306946-3.2555923-5.0623932-11.3107224-10.388504-14.1713333
		c-1.8911438,7.4686127,10.5321198,16.0983505,5.6727448,23.6148834
		c-4.6434479-4.4405518-10.5441589,1.5439453-11.3341217,3.7701187
		c-3.3871918-11.0831985-5.4339752-23.5190506-13.2017593-30.2216644
		c6.1281204,16.9481583,7.9115067,29.1923752,14.1472702,44.393013
		c-11.6936874-2.7887421-10.029953-18.9469223-17.9414749-25.5059128
		c-1.2567062,11.1071701,6.0443344,18.396286,5.6613846,25.5059128
		c-9.4197006-8.7014847-14.3868256-28.0911942-15.1049271-39.6652145c-1.8192749-1.1251221-7.5045013,0.1915359-8.497963,2.8246231
		c6.6068268,9.3358002,9.1322784,17.6782913,11.3226929,30.2457275c-5.733139-3.7224503-4.9193192-13.9678802-12.28022-16.0743942
		c1.2447739,7.8277283,6.1400681,15.0689392,9.4554901,24.5604019c-4.2609406,1.4482422-5.254364,6.6546936-5.6733017,9.4315033
		c-4.1053543-1.5439453-4.6918259-6.6308441-9.4315491-7.5404816c-1.7235413,3.4350891,5.074852,9.5871735-2.8486176,10.3890533
		c-10.2933273-14.266922-21.0414429-28.0672379-30.2097778-43.4473724c0.604454-2.1663437,1.8671799-5.697258,0-7.5644379
		c-3.6325264,1.1131973-6.3614349,3.1000443-6.6188164,7.5644379
		c12.6452141,12.2322922,21.1432457,28.5939331,30.2336769,44.3809662
		c-8.8450851-6.8941345-13.7942657-17.690094-22.6632195-24.5483551
		c4.9671211,9.8145752,11.0293922,18.5519409,16.9959526,27.3850098c-4.2490158,2.6092377-1.4183807,8.6297302-1.9031677,10.3891754
		c-14.63797-10.5447235-27.9115868-22.4538879-42.4898338-33.046402c-3.1837234,2.0706329-4.3447247,4.9910736-1.8851204,8.4979248
		c4.1711349,1.3406067,2.4656219-3.1956482,5.6672859-2.8485718c12.3041534,9.7307892,24.7997322,19.2700348,33.991909,32.1247253
		c-4.9910736,0.0358734-7.2891235,2.7768097-8.4979172,6.6068878c1.0831146,3.0042267,5.5416031,2.6451263,7.5584183,4.7277985
		c-4.8774261,2.3697968-12.2922287,2.1902924-16.0564537,5.6612701c4.5063972,4.0934753,6.1281204,6.307724,8.4980354,11.3346863
		c-7.3250008-2.2263031-12.9564133-10.831955-22.6633568-7.5524139c1.0473518,6.1879578,15.2904434,4.213028,14.1653214,9.4434357
		c-7.8575897-3.1597748-19.0186806-3.0280762-24.5657463-8.509964c1.860611-2.1184235,0.5080795-6.7863922-2.824728-6.606781
		c-5.5361443-0.5266724-3.794199,10.2932434-3.7767067,12.2800903
		c25.2366085,4.6679535,48.2110443,11.5979614,67.0442429,22.6692657
		c-16.0684128,6.2837677-39.8207893,2.7409363-54.7760811-2.8366547
		c-5.3621025,2.5135345-13.4346237,2.2980347-15.1048145,8.5099487c9.9048252,9.2999268,31.0116367,7.3968658,40.622757,16.9840393
		c-2.9983215,0.4668427-3.3453979-1.6996155-6.618927-0.9455109c-17.2951202,9.7906036-36.2235489,17.9295349-50.9997864,30.2335663
		c18.8271484-7.9234314,37.0439377-21.5082397,55.7155418-26.4514008
		c-17.6002998,13.5727692-34.7219353,27.6124115-54.7754898,38.7316132
		c-2.2327533-0.2991638-1.7539802-3.2914734-4.7157564-2.8366394c-5.6613817,3.5428162,0.9455132,12.2922058,5.6612701,10.3771362
		c2.435204-0.227417-1.2871284-1.6277466,0-3.7702637c15.7152901-11.0473328,33.7221603-24.8356018,50.0538254-32.112793
		c-6.4273949,4.5841675-13.5369072,8.5099487-16.0564575,17.0079956c8.1270027-0.6942749,8.803215-8.8451233,15.1168518-11.3346863
		c0.8378792,10.2693787-6.265728,19.78479,3.7881813,22.6692505c3.4350891-2.2261658,3.4350891-7.9115295,8.4860001-8.4979248
		c3.6805496,5.3979797-1.7773819,15.2723999,2.8426666,22.6572266c15.9965591-5.5774841,17.3370819-29.168396,21.7177277-43.4473877
		c1.5081024,7.9354858,14.015686,4.8593903,18.8870926,9.4435425c-1.5320282,3.1837463-5.4100189,4.0335388-5.661377,8.5099792
		c9.5632095,13.2496643,40.3235931,12.9862671,50.9993439,0.9454956c5.2424316,0.8258667,6.9898376-1.8192749,11.3226471-1.8911438
		c16.6728363,13.8601379,38.1810913,27.9356689,50.987854,42.4899597
		c-13.5967407,1.1968689-21.7356567,7.8386536-29.2641144,15.1287537
		c7.3010406,16.9241943,30.7721863,7.4078064,42.5018616,0.9335938
		c1.9270172,67.0252686,2.8964844,124.2848816,4.7157593,186.990387c-3.1359253-2.8485718-8.5458374-3.3991089-13.2137909-4.7276917
		c4.3686829-27.8877258-45.4342194-23.6507568-63.2920074-16.0385132c-0.8377686,2.7648926-0.8377686,2.8966064,0,5.661377
		c-16.8995819,8.7254333-44.9908905,17.7021484-41.5437698,37.7741089
		c-6.1520767,4.5601807-9.8264923,11.5859985-11.3346786,20.7901001c7.2053299,6.4752197,3.8062286,39.0548706,4.7158661,43.4354858
		c9.0125732,0.227417,14.8774109-8.2944946,22.6692505-11.3226318c3.2435608-1.2807007,20.5382385-1.6876221,35.8944244-16.0623779
		c5.9246674-5.5536499,16.2299347,0.7301025,21.7237396-6.6308594c6.9898529,4.1293335,11.6578064-1.914978,17.0078735-4.7038574
		c10.5926208,2.2861328,21.819458-2.4176636,27.3730927-10.4009399
		c2.7647858,30.2097168,2.1544342,184.4649048,5.6733093,188.8934326c2.3699036-6.7265625,6.6791992-6.331604,15.1053619-7.5524292
		c2.0347595-45.8053589-2.7049561-115.9904175,1.8911438-175.6558228
		c3.9257812-0.4068604,37.427002,16.0744019,48.1751709,16.9959717c31.6459351,2.7050781,52.0292053-8.2346191,80.2749329-7.576355
		c2.776825-4.1292114,10.0299377-3.8060913,12.2801819-8.4979248c-6.0084534-5.43396-14.530426-14.7937012-11.3335571-23.6028442
		c-9.1682434-6.2478638-18.5519409-12.3041382-27.3970642-18.8751831c0.2394714-1.352417,1.5559998-1.6037598,1.8791199-2.8485718
		c-12.890564-6.9299927-22.7649536-16.8762817-39.6531677-19.8206787c0-1.579834,0-3.1478577,0-4.7276917
		c-24.0816345-5.1107178-57.6187134-2.8126831-67.9958496,10.3890686
		c-0.3231201-8.3304443-3.8899231-122.5384521-0.9455261-172.8191528
		c8.2346497,3.0749817,13.3693237,9.1312561,22.6572266,11.3096313c20.0241394,4.7289124,47.5767212-5.2662964,65.1711121-5.6602783
		c-2.6809998-7.0615845-28.5339661-21.0174561-33.9919128-24.5602722
		c-8.4739685-5.4709778-26.0324707-8.6656189-35.8829346-7.5404968
		c17.1275635-15.2844238,32.3401184-32.507782,51.9333801-45.338501
		c11.0234985,0.9694519,18.3963013,1.4003296,26.4395142-3.7821655
		c9.0245972,7.0496674,20.4908752,11.6338501,37.7861023,10.3890381c2.3459473-4.6081085,0.6811218-6.1041565,1.8779907-10.3890381
		c9.6470032,0.2872314,29.9703979,2.1902924,36.8525085-5.6494751c10.0061035,1.424408,24.0098877,6.1880798,29.2642212-1.9030609
		c-2.2740784-6.2238159-11.7536011-5.2423248-14.1713257-11.3345642c8.5458374-1.1011658,29.9704285,3.0640564,36.8285522-2.8247375
		c-7.6003113-2.5613251-23.0880737,0.1796265-29.2640991-0.957428c9.2161255-3.6864471,22.7409973-3.0521393,30.2097473-8.4980316
		c-4.7636719-2.4297485-17.1157227,3.5308075-18.8871155-3.7821655c8.6056824-4.2969208,19.9403687-5.8529053,30.2216797-8.4980316
		c1.9509583,0.2632904,0.227417,4.1891785,2.8366394,3.7821655c1.4363403-2.6570435,4.4764404-3.7102966,3.7821655-8.4979248
		C493.1480103,199.6333313,485.487854,205.1391754,477.2291565,206.0009003z M461.178833,142.7088776
		c0.6343079,0,1.2567139,0,1.8790894,0c0.4429016,2.0227356-1.3404846,1.8073425-2.824707,1.8911438
		C460.4128113,143.845932,461.178833,143.6783447,461.178833,142.7088776z M210.9078064,72.8339157
		c-3.339386-0.6223831,0.5865173-5.6253815-1.9030609-8.4973526
		C212.1406708,64.6596832,210.4888611,69.7818985,210.9078064,72.8339157z M191.0632782,86.0477142
		c-4.3447266,4.1173172-9.5393677-1.6158142-10.3890533-6.5949707
		C185.0189514,80.7694016,186.754425,84.6832581,191.0632782,86.0477142z M117.3946838,579.0491333
		C118.4958496,575.3148804,118.4958496,582.7714844,117.3946838,579.0491333L117.3946838,579.0491333z M119.28582,545.057251
		c7.1215439-6.6906738,6.1998749-17.3789673,15.1048203-20.7901001c1.3046112-3.8300781-2.0347595-2.9802856-1.8671875-5.661377
		c3.2675171-2.2860718,3.5787201,2.5374146,6.6069031,0c0.335144-6.7145691,9.1204224-11.9928894,17.9289856-10.3890076
		c-0.4427948-3.6386414,4.6081238-4.7876282,7.5644379-7.5525208c6.6667328-1.0173645,7.3968658,3.9378357,14.1712189,2.8366699
		c-0.8975983-5.4219666-7.3729095-5.2423401-9.4554596-9.4554749c10.2933502-3.3633423,27.2174377-3.6625061,39.6652069-1.8791199
		c-2.142395,4.6559448,3.818161,8.533905,10.4010925,7.5524292c-3.0760956,2.6690674-2.8845673,4.4284973-0.9456177,8.4980164
		c-10.173584,0.1196594-20.3591766,8.5816956-27.3969421,0.9334717c-3.506958,0.5985718-9.7188568-1.5320129-10.3890533,1.8911438
		c0.1794891,3.6026611,6.9898376,0.5865173,8.4979248,2.8485718c-2.2980499,3.9857178-8.4501343,4.1173706-12.2681732,6.5949707
		c-7.3251038-7.3130493-22.5854645-6.4153442-29.275589,0.9575195c5.8881226,2.59729,17.0431976-5.0509033,25.4933167,0.9455566
		c-11.0233765,12.2442627-31.2026215,10.1376953-46.2834778,18.875061
		c8.1748047,3.7702637,13.5727844-3.3991699,21.7231903-2.8126831
		c-7.9469452,6.9061279-10.6758575,15.8349609-27.3845673,12.2682495c1.1968765,3.9976807,8.7134094,4.0335083,12.2801971,2.8366699
		c-5.4698486,7.4207153-11.2867737,14.5183105-15.1168518,23.6028442
		C115.3599243,568.2052612,121.1768494,556.5474854,119.28582,545.057251z M216.5571594,514.8355713
		C216.1621704,514.4285889,217.1676331,515.4459229,216.5571594,514.8355713L216.5571594,514.8355713z M158.0168915,570.5512695
		C157.2029572,576.1407471,158.543457,566.757019,158.0168915,570.5512695L158.0168915,570.5512695z M164.6237793,561.107666
		c-1.4004364-1.1011353-2.3938599-1.1011353-3.7822723,0c1.1251221,4.0454712-0.0717621,3.842041-0.9574432,7.5524292
		c-1.9628906-0.2513428-0.2394409-4.1531982-1.8671722-4.7157593c-5.8408813,4.3566895-1.4721985,13.0581665-10.388504,14.1593018
		c0.8018799-3.0161133-1.4961548-2.9085083-1.9030609-4.7277832c-4.21315,1.1370239-2.2142639,8.4740601-7.5525208,8.4980469
		c1.0772095-2.7528687,0.574585-3.506958-1.891037-4.7157593c-3.0640564,1.0053101-1.6756439,6.4991455-5.661377,6.6188354
		c-0.1315918-3.9019775,0.2513733-7.3131104,1.9030609-9.4435425c-0.7061768-0.8856812-1.7235565-1.4243164-2.8485718-1.8911743
		c-2.1544266,3.8181763-3.985733,7.9594116-5.6493454,12.2683105c-0.1197815-8.9169922,7.0017624-18.7793579,13.2017593-24.5485229
		c0.1556549,4.296936,0.7779388,3.6984863,0,7.5525513c8.4859924-1.807373,0.7061768-17.7979736,10.4010925-20.7662354
		c1.7707977,8.0910645-0.4070282,15.0569458,0.9330292,23.6029053c5.0388794-5.5776367,6.2477875-19.2702026,4.7157593-28.3425903
		c4.3566437-1.3046265,7.3489532-3.9857178,10.4009857-6.6069336
		C166.8739166,538.3426514,163.0677948,553.758728,164.6237793,561.107666z M180.6742249,560.1620483
		c-2.1425018,1.3286133-0.7660217,6.1520996-4.7158661,5.661377c-1.0772247-5.1227417,0.9456177-7.6600952-1.9030609-10.3771362
		c-3.7702484,2.8127441-2.4416656,10.7602539-6.5948639,13.2138062
		c1.8791046-18.3843384-1.1370544-45.5898438,23.6028442-47.2176514
		c-4.8474579,14.3986816,0.1795044,26.5352783-5.661377,42.5018921
		C180.602356,564.6384888,184.8991699,560.8803101,180.6742249,560.1620483z M195.7790375,555.4462891
		c-0.5386047,2.2861328-3.5667877,2.0827026-5.661377,2.8127441c1.0772095-2.0586548,2.4297333-3.8539429,1.8911285-7.5404053
		c1.6876831,0.1196899,1.9868469-1.1610107,3.7702484-0.9575195
		C196.8083344,552.1907349,192.9184265,554.2733765,195.7790375,555.4462891z M201.4523468,559.2165527
		c-4.9910889,0.1317139-1.0891418-3.7223511-2.8366547-7.5524292c0.9455109,0,1.8911285,0,2.8366547,0
		C200.363205,554.3092651,200.363205,556.5714111,201.4523468,559.2165527z M205.2465363,557.3254395
		C205.8449707,557.9478149,204.8395233,556.930542,205.2465363,557.3254395L205.2465363,557.3254395z M207.1136017,554.4887695
		c-3.0640564-2.2980347-8.0670471-7.6481323-12.2800751-5.649353c-2.3938751-6.2119141-0.227417-15.9785767,3.7821655-18.8989868
		c-0.2753296-7.5285034,3.0880127-11.3944702,7.5644379-14.1712646
		C207.9035797,526.6968384,209.9742126,542.8071289,207.1136017,554.4887695z M234.5106506,546.9483643
		c-2.1902924,0.2872925-3.6266174-0.1556396-4.7277832-0.9575195c-2.4894714,1.2927246-0.4427795,7.121521-4.7157593,6.6188354
		c0-3.15979,0-6.3076172,0-9.4555054c-6.0084534,0.6103516-2.226181,11.0114746-7.5643311,12.2921143
		c-3.9378204,0.1557007-4.6200409-2.944397-7.5525208-3.7821655c6.5829468-11.3705444-1.4601593-29.6351929,7.5525208-35.8949585
		c-1.3406067,4.3925781-2.3699036,11.0114746,0.9574432,15.1168213c4.1412659-2.9084473,3.4950256-14.135376,3.758316-17.9415283
		c2.6809998-0.789978,2.4535828,1.3166504,4.7397156,0.9454956c-5.3022766,8.9528809,4.7516327,14.1473999,9.4435425,18.8751831
		C236.4017944,540.0542603,236.2461395,541.3947754,234.5106506,546.9483643z M238.280899,525.2127075
		c-3.111969-0.9695435-5.5536346-2.6092529-5.6733093-6.6069336c1.9868469-0.5505371,2.7049561-2.3458862,5.6733093-1.8910522
		C238.280899,519.5393677,238.280899,522.3880005,238.280899,525.2127075z M390.3474426,555.4462891
		C391.4354553,551.7120361,391.4354553,559.1686401,390.3474426,555.4462891L390.3474426,555.4462891z M469.6648254,170.1059265
		c-4.6440125,0.4069061-14.5542908,4.1052856-17.9295349-2.8366547c-4.069519,0.0358887-4.2609558,3.9257965-6.6308594,5.6733093
		c0.4069214,3.0640564,4.5003967,2.4416656,6.6308594,3.7702484c-0.7660217,3.2794342,1.4003296,3.6385345,0.9454956,6.6188049
		c-5.3979797-0.5865173-4.5362549-7.4447632-10.3890381-7.5523987c1.8551331-0.6583862-0.227417-5.2903595,1.8790894-5.6733093
		c-1.6996155-3.4590454-3.4350891-1.9868469-7.5643311-1.8911285
		C443.4168701,157.6700745,463.2374268,162.182373,469.6648254,170.1059265z M444.1708374,153.0979462
		c0.0359802-0.8976135,1.1610107-0.7300262,1.8791199-0.9215698
		C446.0260925,153.0739899,444.9129028,152.8944855,444.1708374,153.0979462z M454.559906,147.4485931
		c-1.4841309,2.2861176-4.0215149,3.5309143-7.5643311,3.7702484
		C449.3414001,149.7825165,450.8496094,147.5084229,454.559906,147.4485931z M436.6065063,142.7088776
		c1.412262-0.4906921,2.3937683-1.3763733,3.7940979-1.8791046c1.2328491-4.069519-4.4883423-1.1730347-3.7940979-4.7277832
		c2.0944824-1.3644562,6.3195496-0.6223907,7.5643311-2.8246155c0.167572-2.0706482-0.7779236-3.0042267-2.8246155-2.8366547
		c2.1065063-3.7583237,5.9844971-10.07798,10.3890686-8.4980316c0.9813843,17.0797424-1.9389343,25.577774-16.9959717,29.2761536
		c3.9736938-6.0562592-0.7899475-6.9539795-1.8911438-10.3890686
		C435.8165588,139.7525635,435.1222839,142.3019714,436.6065063,142.7088776z M430.9570618,144.6000214
		C431.555603,145.2343292,430.5621643,144.2169495,430.9570618,144.6000214L430.9570618,144.6000214z M430.0235596,154.055481
		c3.9497375,1.0652924,2.6570435,7.3968658,7.5284729,7.5524139c-0.1077576,2.0826569-3.9857483,0.394989-5.661377,0.9456329
		C434.6434937,156.0902405,428.0007324,158.8670654,430.0235596,154.055481z M409.2213745,169.1603088
		c5.0031128-2.2381134,8.3065186-6.1759186,11.3346863-10.3890686c6.4991455,5.7929688,13.2138062,11.3586426,15.1168518,21.7237396
		c-7.7559814-3.2675018-9.5991821-12.43573-17.9295349-15.1048126c-1.1130981,1.412262-2.7289124,2.309967-2.8486938,4.7157593
		c1.6996155,2.3937531,6.3794861,1.8072357,7.5525208,4.7276764c-9.7786865,5.9367065-12.9385681,18.5279846-23.6018372,23.6028595
		C400.4732056,189.0049438,408.4553833,182.2783813,409.2213745,169.1603088z M377.1217346,97.3822861
		c6.3794861,3.387291-2.0587158,10.1736832-0.95755,17.007988c13.8829651,6.092247,6.4142456-11.6936798,17.9523926-10.389061
		c0.5636597,6.7145233-5.4100342,8.0670624-2.8247375,14.1593094c8.138916,1.5320282,10.0061035-3.2076874,12.2693787-7.5524139
		c6.5350342,6.7863922-6.4284973,17.0797424-10.3782349,22.6692657
		c-13.3813782,0.1555328-17.509491,9.5632019-21.7226257,18.8990021c-2.8606262-1.2447815-2.2142639-5.996521-7.5763855-4.7277832
		c1.639801-6.8820953,4.4045715-12.6033173,7.5763855-17.9535065c0.3591003-2.2620544-4.3088379,0.5266876-2.8366699-2.8246155
		c4.5481873-0.3949814-1.1251221-0.3470688,0-2.836647c2.8845825-0.6822281,3.4231873,0.9694672,5.649353,0.9575424
		c-1.3883972-2.3818283-5.0029907-2.5374832-5.649353-5.6853333
		C369.5812378,110.0095596,375.9726562,106.299263,377.1217346,97.3822861z M393.1829834,161.6078949
		c-10.2324219,1.1130981-15.8219299,6.846344-21.7226257,12.2801971
		c-1.914978-12.0886688,8.0670471-24.2491913,19.8314819-30.2216644c1.819397,2.7528534,0.3591003,5.1945343,3.7713623,4.7276764
		C395.8292236,154.1991119,394.3081055,157.7060699,393.1829834,161.6078949z M369.5692139,154.055481
		C371.9271851,150.3690338,370.9457092,157.1914062,369.5692139,154.055481L369.5692139,154.055481z M365.775116,93.6121597
		c0,0.9096298-1.1490784,0.7300262-1.8911438,0.9334793C363.9079285,93.6360016,365.0569153,93.8275299,365.775116,93.6121597z
		 M364.8294983,96.4488068c0.6942749,2.8725281-0.9455261,3.4350891-0.9455261,5.6612701
		c4.0216064,0.5505295,4.3926392-2.5373764,5.6852417-4.7277908c1.0772095,3.0162659-0.8736572,11.0833206-5.6852417,11.3346863
		c1.2208557-3.7223282-2.5613098-2.4536972-3.7702332-3.7702408
		C361.4662781,101.8826675,360.1856079,96.1854019,364.8294983,96.4488068z M355.4099121,113.4447632
		c3.9378052,4.8473434,0.3830566,16.0263672,1.8911438,23.6147766c-3.9497375-1.4363251-4.0814514-6.6427765-10.4130249-5.6733093
		C348.1088562,123.7739868,350.6462402,117.4902115,355.4099121,113.4447632z M351.6158142,183.3316345
		c-1.4842224,6.7026062-4.3208618,12.0527954-8.4980164,16.0623627
		C346.2058105,193.9001923,346.2058105,187.9636078,351.6158142,183.3316345z M343.1177979,61.4878769
		c-2.5613403,3.7223358-4.2130432,8.3897324-8.4979248,10.388504
		C337.6239929,68.6088562,338.749115,63.426815,343.1177979,61.4878769z M339.3356323,78.4953079
		c-0.8139343,1.3884125-1.4004517,2.9921951-3.7702637,2.8366394
		C335.2781372,78.8304596,337.5522156,78.8902893,339.3356323,78.4953079z M345.9544373,75.6586533
		c3.9976501,0.8377762,6.678772-2.4656219,9.4554749,0c-1.3884277,5.8528061-8.4380798,6.0562592-11.3466187,10.389061
		c0.5027466,0.7660141,0.9815063,1.5439529,0.95755,2.8366547c1.3405151,2.7289047,5.828949,2.3339081,7.5404968,4.7277908
		c-4.6799011,4.1771469-16.5171814,5.1226578-19.8206787,0.9334793c-3.2316589,1.196991-6.0323181,2.7888489-6.6188354,6.618927
		c-4.7157593-0.9694672-7.2770691-4.0574875-11.3345642-5.673317c1.6037903-3.1598816,6.1281128-3.111969,8.4979248-0.94561
		C333.4588623,90.8712158,340.9514465,84.5396423,345.9544373,75.6586533z M318.5694275,85.1022034
		C319.1797791,85.7245941,318.1625061,84.7191315,318.5694275,85.1022034L318.5694275,85.1022034z M319.5030212,83.2110672
		c1.3404846-3.3752594,4.0933533-5.3501892,5.6733093-8.4860001
		C326.7322998,77.2624435,322.5910339,82.1817627,319.5030212,83.2110672z M307.2347412,56.7721214
		c1.3525391,0.215374,0.3232422,2.8246193,1.8911438,2.8246193
		C307.8691711,62.5052452,304.8051147,57.968998,307.2347412,56.7721214z M307.2347412,61.4878769
		c3.4231567,0.0479126,3.0281677,3.9019394,5.6733093,4.7397156c6.5949707-0.6343231,6.9301147-7.5643349,9.4316101-12.280201
		c5.8528137-0.5265732,0.0838013,10.1856041,3.7821655,9.4316254c-5.5655518,8.6051064-10.7600708,18.2521095-16.9959412,23.6142006
		c0.789978,1.4123764,3.0401001,1.3764954,4.7157593,1.8911514c0.2513428,2.7647858-3.7941895,3.5068436,0,4.7277908
		c-1.9030762,2.7289047-3.4949341-2.7290192-6.6069031-1.8911438c0.335144-1.2447968,1.6637268-1.4841156,1.8911438-2.836647
		C301.8486938,88.6809158,303.9432678,67.5076981,307.2347412,61.4878769z M306.2892456,96.4488068
		c3.8300476-0.359108,4.344696,2.5732574,6.6188049,3.770134c-0.9215698,2.4416656-6.7864075,3.3514023-11.3585205,4.7277908
		C303.6560364,102.6367645,305.5950928,100.1711426,306.2892456,96.4488068z M300.6278381,86.9932175
		c0,1.2568207,0,2.5254669,0,3.7822876c-0.7660217-0.5027313-1.5439453-0.9934311-2.8366394-0.9456253
		C298.7966614,88.944191,298.0785522,86.3468781,300.6278381,86.9932175z M294.0090332,108.7169724
		c-0.167572,1.1130905-1.7235718,0.7899704-2.8485718,0.9455109
		C291.3280334,108.5494003,292.8959351,108.8725128,294.0090332,108.7169724z M311.0049744,108.7169724
		c5.1945496,19.2700348-7.396759,33.9919052-16.9959412,46.2721024c-4.631958-0.2154846-7.1574402,1.6637268-12.2801819,0.9455109
		C281.9203491,130.6202087,291.208252,114.4142303,311.0049744,108.7169724z M297.7911987,171.0514374
		C298.8923645,167.3291168,298.8923645,174.7857971,297.7911987,171.0514374L297.7911987,171.0514374z M297.7911987,172.9425812
		c-0.0238342,0.9096375-1.1489563,0.7300262-1.9030457,0.9455109
		C295.9120789,172.9665375,297.0491333,173.1579437,297.7911987,172.9425812z M289.2932739,175.7792358
		C289.8917236,176.3895874,288.8863525,175.3842468,289.2932739,175.7792358L289.2932739,175.7792358z M284.5775146,181.440506
		C285.1878662,182.0628967,284.1705017,181.0335999,284.5775146,181.440506L284.5775146,181.440506z M283.631897,191.8295593
		C284.2423706,192.4519501,283.2249756,191.4346924,283.631897,191.8295593L283.631897,191.8295593z M283.631897,192.7751923
		c1.8552551,0.7300262,0.4908142,6.0921326-1.9030457,5.6612701
		C282.0400391,196.2342224,282.8658752,194.5346222,283.631897,192.7751923z M288.3357239,205.0433502
		c2.1065063,0.1316986,0.4070129,4.0096893,0.95755,5.6732941c-5.6014404,3.7583313-13.788269,14.255127-21.7356567,9.4554749
		C272.8238831,213.4575806,281.4415894,210.1301422,288.3357239,205.0433502z M264.7328796,222.9968567
		c-0.3829651-1.8313141,4.2848816-1.3884125,2.8247375,0.9335938c-0.622406,0-1.244812,0-1.8791199,0
		C265.8459778,223.1404724,265.3074646,223.0447693,264.7328796,222.9968567z M254.343811,197.5028687
		c-0.4548187-2.9802704,2.5375061-2.5015106,2.8366699-4.7276764c3.1597595,2.8246155,2.1663208,9.7906189,2.8366394,15.1168365
		c-2.369812-0.167572-2.9683533,1.4362183-3.7821655,2.8246155c-1.6038971-1.3644409,1.8791199-5.6253815,2.8246155-7.5523987
		C255.6723938,201.1415253,258.4133301,198.8434753,254.343811,197.5028687z M251.5071716,192.7751923
		c-2.3943176-2.7528687-0.3231201-9.0964813,0-12.2802124c4.1412659,1.5320282,4.1053925,7.2292938,5.6733093,11.3345795
		C255.5167389,192.3681641,251.6388702,190.6805878,251.5071716,192.7751923z M254.343811,307.0539551
		c0.3830719,1.8323059-4.3094025,1.3774719-2.8366394-0.944519
		C253.0272675,305.8331299,253.1469421,307.0060425,254.343811,307.0539551z M256.2349548,167.2692719
		c8.1149597-7.7918396-4.5721283-27.337204,8.4979248-31.1672821c4.1771545,6.223938,5.5776062,15.2006378,7.5523987,23.6148834
		c-3.9377136-2.4057922-4.7516174,0.7180939-7.5523987,1.8910217c0.8618469-2.9204407,2.3459473-5.2064667,3.7702332-7.5524139
		c-0.6103516-1.2806549-2.0108032-1.771347-3.7702332-1.8791046
		C261.4055176,156.6886902,260.9986267,164.1692352,256.2349548,167.2692719z M276.055542,137.9931183
		c-3.7821655,1.8791046-3.8539429-8.0790863-7.5524292-9.4435425
		C272.2254639,126.6823959,275.7803345,136.2216492,276.055542,137.9931183z M275.1219482,127.6040649
		c0.0359802-0.9096375,1.1609802-0.7301483,1.8911133-0.9335938
		C276.9772034,127.5801086,275.8520813,127.4004974,275.1219482,127.6040649z M271.3397827,170.1059265
		c2.0108032-2.5254517,2.5374756-5.5296783-2.8366699-4.7157593c-0.6822205-2.5854034,1.8911438-1.9031677,1.8911438-3.7822723
		c0.7420654,3.3513031,5.254364,2.9563141,4.7276917,7.5524139
		C273.4343567,169.0406342,273.1351013,170.3213043,271.3397827,170.1059265z M274.188446,194.666214
		c0,0.6223907,0,1.2568207,0,1.8911285c-0.6463318,0-1.2687378,0-1.9031677,0c0-0.6343079,0-1.2687378,0-1.8911285
		C272.9197083,194.666214,273.5421143,194.666214,274.188446,194.666214z M278.8921814,197.5028687
		c-0.6343079,0-1.2567139,0-1.8791199,0c0-0.6343231,0-1.2686462,0-1.8791046c0.622406,0,1.244812,0,1.8791199,0
		C278.8921814,196.2342224,278.8921814,196.8685455,278.8921814,197.5028687z M275.1219482,76.6041718
		c2.8486633-0.9455185,1.6757507,2.106514,1.8911133,3.7702408
		C275.3374329,80.1589279,274.8586426,78.7585907,275.1219482,76.6041718z M275.1219482,125.7129135
		c-2.1304932-1.962883-3.7821655-4.3926239-3.7821655-8.4980316
		C272.5606079,120.1114883,275.1698608,121.58358,275.1219482,125.7129135z M237.3473053,72.8339157
		c2.6571503,3.9737091,13.1658783,6.2717514,13.2137909-1.8911285c1.6762085,3.0521317,3.5194397,5.9127502,5.6738586,8.5099564
		c2.20224,0,4.4045715,0,6.6069031,0c-0.3830566-1.831192-3.6625061-0.7539825-2.8247375-3.7940903
		c6.2238464,0.9215622,4.7397156-5.5296783,5.661377-7.5524063c9.2041016,7.2651672,4.5840759,30.7721863-5.661377,33.0583191
		c1.3165588,1.1968689,0.0479126,4.9910736,3.7702332,3.7821655c-3.0759583,5.3262253,2.4775391,9.2161331,3.7702637,13.2137909
		c-2.2262878,5.9485092-3.4471436,12.9264374-10.3771362,14.1593018
		c-7.7086334-12.1844864-2.4297485-30.4730301-16.0748596-42.4899445
		C242.3025055,81.846611,234.4268646,79.5485611,237.3473053,72.8339157z M249.6275024,200.3275909
		C250.2378693,200.9499817,249.2205963,199.9326019,249.6275024,200.3275909L249.6275024,200.3275909z M230.7164612,101.164566
		c4.6200409,0.7660141,5.3382568-1.6756516,3.7941895-4.7157593c4.0574951,3.6744232,10.2933502,9.467392,12.26828,17.9414673
		c-5.7092896-4.0335236-11.3466034-4.1531906-17.9295502-0.9455109
		C225.7134552,108.8964691,230.4052582,105.2818832,230.7164612,101.164566z M242.0630646,159.7168732
		C243.1642303,155.9824982,243.1642303,163.4511261,242.0630646,159.7168732L242.0630646,159.7168732z M241.1056213,162.5535278
		C241.6801147,158.7712402,240.3275757,168.1430359,241.1056213,162.5535278L241.1056213,162.5535278z M235.4561615,141.7752838
		C238.6160431,139.4892731,233.1701508,144.9351654,235.4561615,141.7752838L235.4561615,141.7752838z M226.0127411,205.0433502
		c0.8018799,0.1796112,0.8975983-0.3590088,0.9455109-0.9335938c1.8192596-0.3710327,1.3644562,4.2848816-0.9455109,2.8247375
		C226.0127411,206.3000641,226.0127411,205.6777802,226.0127411,205.0433502z M220.3273926,205.0433502
		C222.6973114,201.368927,221.7278442,208.1792755,220.3273926,205.0433502L220.3273926,205.0433502z M218.4602203,184.2771606
		C223.9779816,185.5339813,215.0371552,188.7296295,218.4602203,184.2771606L218.4602203,184.2771606z M214.6780548,194.666214
		c3.6145782,0.4189453,1.5799408,9.9581909-2.8246307,8.4980316
		C211.7815704,199.3222504,214.8456268,198.6040344,214.6780548,194.666214z M188.2505798,138.9386444
		c3.0161591-0.7539825,4.7397156-2.7887421,8.4739685-2.8366547c5.1227722,3.3872833,12.5315552,4.4645081,15.1288757,10.3890533
		c-3.3154144,5.5057373-8.138916,9.5033875-15.1288757,11.3346863
		C192.2122498,153.5527649,184.276886,148.6694336,188.2505798,138.9386444z M192.0087891,177.6583405
		c1.8432312-1.6277466,3.0401154-3.8779907,7.5524139-2.8247375c0.9694672,1.2328644,0.9216614,3.4830017,1.8911438,4.7158661
		c1.7594299-0.1316986,3.1597595-0.6223907,3.7941895-1.8911285c0.789856,3.3992157,0.4069061,7.971344-0.95755,15.1168518
		c3.1358185-0.3351593,4.0933685-2.8247375,5.6612701-4.7277985c1.9749298,2.9563141-0.083786,9.9462738-1.8910217,12.2801971
		C198.1129608,197.383194,199.1303406,183.4633331,192.0087891,177.6583405z M183.5108795,223.9304504
		c0.478653-14.0515594-1.3406219-25.0631256,5.6612701-33.046402
		C198.687439,200.973938,196.1859436,217.2995911,183.5108795,223.9304504z M185.4019012,130.4407196
		C185.0189514,130.0457306,186.0123749,131.0631104,185.4019012,130.4407196L185.4019012,130.4407196z M151.3860321,131.3862305
		c2.5374908,0,5.0509186,0,7.5763702,0c1.4004364,4.8953705,3.3154144,9.2639313,9.4435425,9.4435425
		c0.6104736-3.447113-2.058609-3.6266174-1.8911438-6.6188202c2.3459625,0.1076355,2.9204407,1.7832947,4.7158661,0
		c-0.9694672-4.5124054-5.9605408-10.9516144,2.8246307-10.3771286c0.3710175,4.6678391,0.1196594,9.9701157,4.7397003,10.3771286
		c1.9868622,22.9565125,11.5740204,39.6412659,1.8792267,57.6186066c-5.0389862-5.6612701-5.2305298-16.170105-12.26828-19.8205719
		c-0.2872467-2.1903076,2.7049561-1.0532532,2.8247223-2.8486786c-0.2872314-1.2806702-2.3699036-0.7779388-3.7702332-0.9455109
		c-1.7834015-8.2944794-2.1425018-18.0133362-8.4980316-21.7237549c0.0958252-1.7832794,3.111969-0.6582642,2.8126984-2.8246155
		c-2.0944824-2.2023315-3.6744232,0.3231201-6.5948639,0C152.7385712,140.2552948,146.9580841,136.1857758,151.3860321,131.3862305z
		 M154.2226868,242.8413696c-2.9802704-0.8617096-4.1292419-2.8485565-7.5518494-0.957428
		c-1.8432312-0.6582642,0.2393341-5.2663879-1.8911438-5.6732941c4.3801575,0.3231049,5.6368713-5.5057373,12.2796478-0.933609
		C156.7481384,239.8133087,151.9006805,237.6947632,154.2226868,242.8413696z M134.3906403,235.2770386
		c-5.4338684,0.7181091-5.1586609-4.2848816-8.4979248-5.6732941c-0.6942596-2.8964844,2.5972137-1.8192749,1.8910294-4.7157593
		c-1.747406-6.1281128-8.6654968-7.0617065-14.1712265-9.4555817c9.5990906-9.6230316,28.4382782-2.0108032,36.83992,6.618927
		c-1.4122467,6.1400452-11.5734558,3.5308075-16.0617981,6.6069031
		C133.8759918,232.42836,133.8759918,231.5187225,134.3906403,235.2770386z M114.5699539,194.666214
		C111.9846649,191.7936859,117.4425964,197.2395782,114.5699539,194.666214L114.5699539,194.666214z M139.1303558,206.934494
		c-2.3937683,3.5307922-1.9868622-3.5787201-1.9030609-5.6613922
		C141.2009888,201.0696564,136.7843933,205.4981689,139.1303558,206.934494z M113.6125183,142.7088776
		c6.6427689,1.2927094,8.9168625-1.7833862,8.4979172-7.5404816c4.1652298,2.4656219,5.565567-1.4722137,10.4130173-0.9574432
		c5.7451782,15.1765747,7.1455078,35.0092926,19.8201294,45.3385162c0.8018951,2.4894714,0.4667358,7.492569-1.8911438,9.4434357
		c-13.1772461-13.5727844-23.6381683-29.8625488-36.83992-43.4354553
		C115.0247726,145.1386261,113.2414856,144.3486481,113.6125183,142.7088776z M111.7332993,169.1603088
		c6.4753113,0.4548187,9.1083984,4.7517395,15.1049271,5.6732941c0.6822281,2.5852966-1.8671799,1.8911438-1.8911362,3.7702484
		c5.8767624,9.6949158-7.5763626,12.3759003-13.2137909,6.618927
		C110.1534729,178.7953796,109.5429993,174.5823517,111.7332993,169.1603088z M67.3404083,196.5573425
		C65.1201324,199.5855408,63.5162392,193.230011,67.3404083,196.5573425L67.3404083,196.5573425z M69.2314377,185.2227783
		c2.6571503,0.8018951,2.0048981,4.9192047,3.7822723,6.606781c2.6570435,0.7780457,2.4535904-1.3284607,4.7157593-0.9455109
		c1.2506943,2.8366547,0.2632904,3.2914734,0.9394989,7.5524139c1.1131973-0.143631,1.6937027,0.2154846,1.9031677,0.9575348
		c3.9557037-1.7115173,1.2267761-6.1760254,3.7761765-10.4010925c3.3632736,5.4458923,1.3883972,16.2419739,7.5524216,18.8991241
		C78.9144287,204.3850861,71.6432419,197.2754517,69.2314377,185.2227783z M75.8383331,188.0473938
		c0.041893-0.9096375,1.1609955-0.7301483,1.8911362-0.9335938
		C77.705513,188.0234375,76.5803909,187.8439484,75.8383331,188.0473938z M71.1225739,170.1059265
		c6.7684555-7.7918549,19.0785675,0.9574432,27.3730698,0.9455109c-1.9150391-8.1508484-15.1168289-5.0150299-15.0928955-15.1168518
		c2.9922562-0.7420654,8.3304214,3.3513031,13.213768,3.7822876c3.6625137-1.3406067-1.4123383-10.5805969,2.8366547-13.2258301
		c4.2968597,3.8899078,8.1269379,8.2466736,11.3346176,13.2258301c-3.9976501,2.8964844-6.9898453,8.7013702-5.6733017,14.1712189
		c-1.1130905,1.0891418-3.3273697,1.0652924-5.6613159,0.9455109c1.2088623,2.2502441,7.8636475-0.9455109,5.6613159,4.7158661
		C94.246666,177.9575043,85.9401855,167.3770142,71.1225739,170.1059265z M97.5740356,210.7166443
		c-2.0466995,0.1556702-0.4308777-3.3512878-0.9575195-4.715744
		C100.5902252,205.6538239,97.2867813,209.088913,97.5740356,210.7166443z M96.6165161,199.3939972
		c2.7408981-0.0717468,1.6158066,2.776825,0.9575195,4.7157593
		C95.5273361,204.2654114,97.143158,200.7584534,96.6165161,199.3939972z M103.2353821,230.5492554
		c-22.9625168,5.7810516-11.9450607,40.7424316-28.3425598,53.8245239
		c-0.4967194-8.9288025,1.1070709-19.9762268-4.7217789-23.6028442c-6.3375893-0.047821-4.296814,8.2945557-10.3771362,8.4980164
		c2.9802742-12.2322693,4.6619415-21.592041,10.3771362-32.112793c4.3387146-1.2327576,9.9402618,3.8540192,10.4010925-1.8791199
		c-13.7703323-3.8540344-31.3228302-11.2986908-48.1806259-15.1049194
		c13.2251549-4.6559143,33.1834412,4.2012177,51.9568024,1.8792114c13.4172287-1.6517944,31.0595245-7.9953003,35.8830185,5.6733093
		C114.7735214,227.736557,111.7332993,231.3392334,103.2353821,230.5492554z M114.5699539,266.4442139
		c-0.4069061-1.9868469,7.3130798-2.6570129,1.8792191-3.7821655c2.9084015-5.3022461,13.5847015-2.7887268,19.8325958-4.7277832
		c4.3566589,2.2742004,6.5829468,6.6428833,12.2796478,7.5644531
		C144.1333466,275.2055359,121.1050949,271.4113464,114.5699539,266.4442139z M141.9550781,247.5452118
		c5.7570953,4.3088531,10.8791962,9.2759857,16.0618134,14.1713409
		C151.4818573,260.9385071,142.9364624,256.7254639,141.9550781,247.5452118z M159.8840637,240.9383087
		C159.5010071,240.543335,160.5183868,241.5607147,159.8840637,240.9383087L159.8840637,240.9383087z M165.557373,256.9887695
		C166.9457855,253.8648682,167.9152527,260.6752014,165.557373,256.9887695L165.557373,256.9887695z M172.1761932,198.4364624
		c-2.5733643,1.2208252-5.254364,2.3100739-9.4435577,1.8911285c-1.1130829-2.9683533-3.9257812-4.2729645-5.6732941-6.6068878
		c-0.2153778-7.4566956,7.9234314-6.5589905,8.4980316-13.2257233
		C171.6495056,182.5895844,172.6190796,189.8188629,172.1761932,198.4364624z M176.9039764,244.7205963
		c-0.7899628-7.8397675,6.2238312-13.1658783,12.2681732-16.9959564c3.6026611,1.8072357-2.932373,4.1412811-4.7157593,6.6069031
		C182.0745544,237.6349335,181.1409607,244.4571991,176.9039764,244.7205963z M192.9543152,232.4403992
		c2.5016022,7.3130798-4.6199493,21.1251831-13.201767,23.6147766
		C181.0213013,245.0676727,188.7532043,240.5194855,192.9543152,232.4403992z M210.9078064,318.3765869
		C211.51828,318.9989929,210.5009003,317.9827271,210.9078064,318.3765869L210.9078064,318.3765869z M211.8534241,324.996521
		c2.932373-1.1619873,5.2662964-2.8964844,9.4315186-2.8246155
		C219.2622223,324.0498962,214.6661224,326.8876648,211.8534241,324.996521z M237.3473053,298.5560303
		c-19.198288-11.3575134-35.7513428-25.3252869-53.8364258-37.7850952
		c14.0515594-10.341156,21.4722595-30.329422,18.8869781-51.9454193
		c6.7863922,10.6524506,17.0079803,20.6824036,35.8830414,21.7237396
		C239.8129272,257.6949463,236.9164429,275.9955139,237.3473053,298.5560303z M235.4561615,211.6621704
		c-2.6330719-11.0473328,1.3884125-16.7923889,5.6494598-26.4393921c0.9574432,0,1.9030609,0,2.848587,0
		C242.661499,195.5998077,244.7202148,209.2804413,235.4561615,211.6621704z M243.9542084,240.9383087
		C242.0391083,249.220871,244.5765991,238.2214508,243.9542084,240.9383087L243.9542084,240.9383087z M245.8453369,728.2654419
		c-4.6439972-34.6861572,6.1286774-74.4459839,1.8910217-109.552063c-0.957428-7.8146973,1.3166656-22.7639771-2.8366394-30.232605
		c0.8378754-1.9868164,1.4602661-4.1891479,2.8366394-5.6494751c-3.7223206-20.5148315,1.3525391-46.7507935-1.8910217-68.9413452
		c-0.7182159-4.8114624-3.3992157-11.0831909,0.9335938-17.0078735c-8.3783722-7.51651,3.8305206-19.7727661-4.7158661-26.451416
		c3.4710846-4.5841675,2.5852814-18.1450195-0.9574432-21.7118225c9.4919128-9.8504639-5.5895081-27.7799988,2.848587-36.8285522
		c-2.0108185-23.4352722,0.3591003-39.964386,0-64.2244873c1.5080719-3.7234497-4.0694122-0.3351746-3.7702484-2.8377686
		c-1.4482422-5.8407898,4.0574799-4.7397156,3.7702484-9.4554749c-0.143631-3.0161438,0.9215546-7.216156-2.848587-6.6069031
		c5.0269623-12.4585876,2.4655151-26.0313721,2.848587-39.6521606c0.3591003-12.5434875-0.5984497-26.2000732,0-41.5682831
		c0.9455109,0,1.8911285,0,2.8247223,0c3.7582092,20.1438141-3.1359253,44.6323395-0.9335938,60.442337
		c-0.6583862,3.5079651,3.3033905,2.3589783,4.7157593,3.7821655c-0.2753143,1.9281311-2.549408,1.8562622-2.8247375,3.7822571
		c2.5015106,50.8442383,0.3232422,126.2489014,2.8247375,186.0578918c1.7241211,2.0586243,0.9101868,6.6427917,3.7827148,7.5403748
		c-4.7282257,10.006134-7.780365,27.2055359-2.8366394,36.8406067c-4.1298065,4.8833618-0.8018951,15.0449829-0.9460754,19.8325806
		c0.2638397,3.3154297,4.1896362-1.7114868,3.7827148,0.9335938c0.9694824,64.2125854-3.0640564,106.3564453,0.9335938,157.7382202
		C253.9129486,727.5113525,249.5197601,727.5353394,245.8453369,728.2654419z M289.2932739,556.367981
		c2.1304626,1.0292969,3.4231567,2.8844604,3.7582092,5.6852417
		C289.9396362,562.0292358,289.4608459,559.3721924,289.2932739,556.367981z M297.7911987,562.0532227
		c2.0228271-2.5853271,4.6440125,2.2142334,6.5949707,2.8126831
		C301.8128052,568.0137329,299.5626526,562.8551025,297.7911987,562.0532227z M306.2892456,565.8234253
		C307.6657104,562.699585,308.6351929,569.5098877,306.2892456,565.8234253L306.2892456,565.8234253z M326.1218262,557.3254395
		c-5.1825867,2.6331787,1.9151001,5.1826172,1.8791199,8.4979858c-4.7636719-1.7114868-6.6786499-10.7002563-12.268158-8.4979858
		c0.1794739,4.2131348,4.3088379,4.5003662,5.6732788,7.5404663c0.2991638,2.5254517-5.3022766-0.8617554-3.7821655,2.8486938
		c-5.996521-3.7702637-12.3999634-7.133606-16.9960632-12.2683105c-2.1663513-0.2872314-3.5547485,0.2155151-3.7940674,1.8791504
		c-1.6517029-0.8617554-3.2675171-1.7594604-2.8247375-4.7157593c-1.7953186,0.4069824-5.6972656-1.2926025-4.7157593,1.8790894
		c-1.1130981-3.2914429-2.8725281-5.9484863-5.661377-7.5404053c-0.5265808-11.5500488,1.7116394-29.0367432-6.6188354-36.8405762
		c5.8887939-2.7289124,9.9940796,4.4524536,11.3226624,9.4315796c3.2316284-1.807312,0.9694824-3.6026001,0.95755-6.5949097
		c2.5852966-0.0957031,1.8911438,1.5678711,3.7582092,0c-0.8138123-2.6451416-3.7821655-3.1358337-6.606781-3.79422
		c-0.1437378-2.0346375,3.3632202-0.4188232,4.7157593-0.9334717c11.8253784,11.8013611,6.4632568,40.7424011,21.7475891,49.1086731
		c-5.086792-9.1442871-8.0670776-33.2019653-14.1832581-47.2176514c1.3883972-2.8007507,3.6864624,1.244812,6.618927,0
		c0.4427795,9.3238525,4.9431458,14.5662842,6.6188049,22.6573486c5.2902527-1.5799561-0.0239563-11.0114746,0-16.050415
		c14.5782471,12.1724243,8.2106934,45.3145142,33.9919128,46.2839966
		C339.3595886,568.229248,330.9932556,560.0065308,326.1218262,557.3254395z M302.5070496,509.150238
		C303.1294556,509.784668,302.1120911,508.7552795,302.5070496,509.150238L302.5070496,509.150238z M359.1682434,553.5552979
		c-1.3764954,0.8137817-2.9923096,1.4122314-2.8127136,3.7701416c-3.0880127-0.3110962-4.9193115-5.0029907-8.5219727-1.8791504
		c1.7355957,2.03479,2.8126831,4.7397461,5.6853333,5.661377c-6.1760559,4.2490234-8.1629028-8.821106-14.1832581-4.7396851
		c-6.3555298-5.3501587-12.7350159-15.487854-11.3346863-25.4819946
		c9.6829834,5.1227417,14.9613037,14.6260986,21.7237244,22.6693115c4.296814-1.4961548-0.7659912-4.0216064,0-7.5644531
		c4.3806152,4.1173096,14.638092,2.3818359,15.1048279,10.3771362
		C362.4836426,555.913147,360.9516296,554.5964966,359.1682434,553.5552979z M373.3275452,559.2165527
		C371.1132812,562.244751,369.5214233,555.901123,373.3275452,559.2165527L373.3275452,559.2165527z M380.902771,538.4503784
		c0.4070129,2.59729-3.5417175,0.8737183-3.7810364,2.8126831c0.2153625,3.7583008,3.8768616,4.069519,6.6057739,2.8366699
		c-2.9204407,2.0108032-0.2154846,4.2011108-1.8781128,6.6188965c-11.6338196,0.5984497-16.0982361-5.9486084-25.493866-7.5644531
		c0.5146484-2.3099365,3.6504822-1.9987793,2.8127136-5.6613159c-2.2023621-1.5440063-7.5763855,1.8193359-11.3346863,1.8911133
		c-2.2382202-4.0574951-6.4033508-6.1879883-10.3770447-8.4979858c5.8407593-8.2944946,22.214447-0.2753296,31.1671753-5.6732788
		C376.6907654,525.6435547,375.3024597,535.5179443,380.902771,538.4503784z M351.6158142,518.6057739
		c1.2088013,2.6451416,1.9508667-2.9683228,4.7397156-1.8910522c1.9030762,2.8126831,4.7276917,4.7157593,8.4739685,5.6732788
		c-11.6098938,0.0957642-23.734436-0.5386353-35.8710022,2.824707c-0.2633057-3.0760498,3.6624756-1.9988403,3.7821655-4.7277832
		c-5.8049011-1.0053711-11.3345947-0.1196899-13.2376404-6.5949707c10.341156-3.6145935,23.914032-8.4979248,32.112793-1.9030457
		C351.1489563,514.1293945,349.7366028,516.8223877,351.6158142,518.6057739z M343.1177979,505.380127
		C342.7228088,504.9851379,343.7521057,506.0024109,343.1177979,505.380127L343.1177979,505.380127z M305.3437195,490.275177
		C306.4328613,486.5408325,306.4328613,493.9975281,305.3437195,490.275177L305.3437195,490.275177z M342.1722717,504.4345093
		c-10.915741-0.7539978-17.5345459,3.2436523-28.3306274,4.7157288c-0.2991638-2.1782532,0.1556396-3.614563,0.9456177-4.7157288
		c-6.8223877,3.279541-9.1443787-4.2011108-16.0624695-3.7702637
		C308.5154114,488.0968018,332.3696289,496.0322876,342.1722717,504.4345093z M300.6278381,508.2167664
		c-0.6343079,0-1.2806702,0-1.9030457,0c0.1915283-0.802002-0.3470764-0.8857727-0.9335938-0.95755
		C297.4082336,505.4399414,302.0881348,505.8947754,300.6278381,508.2167664z M295.8881531,489.3296814
		c-4.8473511,1.5679016-0.7300415,5.4458923-1.8791199,7.5523987c-3.3273621,1.0653076-7.7798157,1.0413513-11.3226624,1.8911438
		c-8.6894531-5.4100037-11.8372803,7.3369141-21.7356567,6.6069031
		C264.4456482,493.9497375,280.5798645,488.2404175,295.8881531,489.3296814z M262.8418579,513.8899536
		c5.0509033,0.2992554,5.4577942,5.2305298,8.4979248,7.5524902c1.5320129,0.2633057,1.6278381-0.8977051,2.8486633-0.9575195
		c0.5744934-4.2130737-4.811554-5.8527832-2.8486633-8.4980164c12.1126099,8.2347107,4.4524536,34.0757141,14.1713257,46.2721252
		c-9.3358154,3.052124-3.734375-17.0318604-11.3226624-18.875061c-2.3100586,4.2250366,1.2926025,10.6403809,0,16.9840088
		c-3.9737854,0.8138428-2.0826721-4.2250366-3.7941895-5.649353c-2.1664429-0.2633667-3.5547485,0.2153931-3.7702332,1.8910522
		c-0.6942749-2.2860107-1.8911438-6.0203857-3.7821655-9.4555054c-3.4471436-0.8139038-5.0270691,1.6637573-6.6069031,0
		c4.2130432-2.262146-0.1915283-1.2806396-0.95755-2.824707C250.3935242,530.3833008,267.80896,524.697998,262.8418579,513.8899536z
		 M259.0595703,300.447052C260.1607361,296.7018738,260.1607361,304.1705017,259.0595703,300.447052L259.0595703,300.447052z
		 M263.7873535,319.3232422c21.6279297-4.7636719,41.8675537-0.4308777,60.4433289,5.6732788
		C304.2784119,330.5371399,275.7803345,334.2236023,263.7873535,319.3232422z M279.8377991,305.1520081
		c12.1126404-1.1141968,24.0337219-0.3961182,33.0702515,9.4554749
		c-13.2017517-1.6039124-33.6807251-5.4578247-50.0661926-1.8911438
		C265.9776611,305.1628113,275.5289612,305.5458679,279.8377991,305.1520081z M273.230896,289.1134949
		C276.1034241,286.5281982,270.6456299,291.9861145,273.230896,289.1134949L273.230896,289.1134949z M252.4526825,297.6115112
		c-0.7660217-24.2131958,1.3166504-44.0099335,1.8911285-68.0077667
		c17.0438843-2.3578796,33.6089783-3.7821655,39.6652222-18.8871002c0.9335938,0,1.8791199,0,2.8247375,0
		c1.6756287,14.3627625,10.2214661,21.8913269,19.8445129,28.3306427
		C297.1568909,260.4478149,275.2416992,279.4664917,252.4526825,297.6115112z M310.0713806,223.9304504
		c2.0826721-0.5027313,1.3285828,1.8192596,2.8366699,1.8911285
		C312.5130615,228.1794586,309.2336121,225.8814087,310.0713806,223.9304504z M279.8377991,283.4401855
		C279.4547424,283.0453186,280.4602051,284.0625916,279.8377991,283.4401855L279.8377991,283.4401855z M281.7288513,281.5491638
		C281.3458862,281.1541748,282.3512268,282.1715393,281.7288513,281.5491638L281.7288513,281.5491638z M284.5775146,279.65802
		c-2.0587158-2.7289124,4.4404297-4.9671326,6.5829468-6.6069031c6.1759033-9.2759705,15.6792908-15.1766663,23.6268005-22.6692505
		c0.2393188-1.3285828,2.8126831-5.0509033,6.6188049-2.8366547
		C310.1432495,259.2748718,295.9480896,268.0600586,284.5775146,279.65802z M320.4605713,192.7751923
		c1.7594299,1.8790894,3.4230652,1.4841156,1.8790894,4.7276764c-5.828949-2.0466919-8.031189-7.707962-14.1593018-9.4554749
		c-1.5799255,1.5559845-4.2370911,2.0466766-5.6733093,3.7821655c-1.9030457-1.0532532-1.0892334-7.3129578,0-8.4979248
		c2.3458557-0.143631,2.9204407,1.4841309,4.7276917,1.8911438c0.1556396-2.6811066-2.6809998-2.3699188-3.7940979-3.7822723
		c4.2849121-7.9953156,18.9588623-5.6253967,23.626709-13.225708
		C330.4067383,174.5104828,329.7484436,192.8708954,320.4605713,192.7751923z M323.2851868,145.5574493
		c3.1597595-0.646225,3.447113,1.5799408,3.7821655,3.7702484
		C324.9608459,148.9088745,323.6920776,147.6520538,323.2851868,145.5574493z M322.3396606,134.2109528
		c3.6983948-6.3675537,9.6828918-10.4609222,19.8326111-10.3771286c-2.3459473,9.9342422-3.5907288,20.9576035-9.4316101,27.3850174
		C330.8136292,142.8166199,330.4425964,137.3108978,322.3396606,134.2109528z M333.6742554,216.3899536
		c2.6092224-5.9007111,18.5040283-2.4656219,21.7356567-4.7277832c-3.1837463,5.6374207-15.2244873,10.604538-20.7900391,16.9960632
		C332.8842773,227.4612427,336.60672,218.7717896,333.6742554,216.3899536z M335.5653687,237.1561584
		C336.1757507,237.7904663,335.1584778,236.7611542,335.5653687,237.1561584L335.5653687,237.1561584z M335.5653687,242.8413696
		c4.3328247-0.9455109,5.8648376,4.0336456,9.4554749,0.9335938c0.4189453-2.9563141-2.3937378-2.6570282-3.7941895-3.7821503
		c1.2687378-2.6809998,4.1891785,0.7301331,5.661377,0.9454956c1.2926941-0.2991486,0.789978-2.3578644,0.9455261-3.7821503
		c-1.7834167-2.9204407-6.5350342-2.8964844-9.443573-4.7157593c1.4602966-3.901947,6.2598267-4.4524841,8.4980469-7.5524139
		c3.5428467-0.0718689,2.8605957,4.0574951,7.5644531,2.8366547c1.2447815-0.3471832,1.4841003-1.6637268,2.8485718-1.9030609
		c-0.0239563-2.8007812-4.4764404-1.2089081-5.6852417-2.8247223c1.6996155-5.5536499,8.6415405-5.8528137,13.2136841-8.4980316
		c0.8259583,5.0030975-0.1315918,9.4555664-4.7157593,11.3227539
		C362.7828064,237.2997742,344.9251404,252.5123291,335.5653687,242.8413696z M362.0168152,247.5452118
		c0.0239563-0.9096375,1.1490784-0.7181091,1.867157-0.9335938
		C363.8839722,247.5212555,362.7350159,247.3417664,362.0168152,247.5452118z M367.6661377,242.8413696
		C365.3082581,247.3776398,361.8731689,243.9545746,367.6661377,242.8413696L367.6661377,242.8413696z M368.6236877,250.3818665
		c-2.3459473-0.3829498-0.0479126-3.6625061,1.8911438-2.8366547
		C370.1796875,248.7900085,368.8391724,249.0294495,368.6236877,250.3818665z M402.614502,167.2692719
		c0.8508911,9.3477325-3.1837463,13.8002014-4.7157593,20.7781219c-10.006012,1.7714691-19.1851501,2.3699188-27.3839111,7.5763702
		C369.3657532,176.8204498,386.4934082,168.2866516,402.614502,167.2692719z M379.958374,245.6661072
		C383.1290588,243.3799896,377.6722717,248.825882,379.958374,245.6661072L379.958374,245.6661072z M372.382019,245.6661072
		C375.5657349,243.3799896,370.1078186,248.825882,372.382019,245.6661072L372.382019,245.6661072z M373.3275452,252.2730103
		c0.6582642-2.1903076,3.1597595-2.5135498,3.7941895-4.7277985
		C379.3707581,248.9694977,375.6136475,252.2730103,373.3275452,252.2730103z M379.0117493,253.2185211
		c-0.154541-2.058609,3.3403931-0.4189453,4.7157593-0.9455109
		C383.8950806,254.3196869,380.3892517,252.7038727,379.0117493,253.2185211z M388.4562988,230.5492554
		c0.5375061-1.9748077,1.9868469-3.0520172,2.8355408-4.7276764c-1.6277466-4.9910736-6.4393311-6.786499-10.3890686-9.4316254
		c9.061615-4.7636566,21.6159973-0.4427795,29.2761536,3.7821655
		C405.7743835,226.4558868,397.9466553,229.3284302,388.4562988,230.5492554z M450.7897644,239.9928131
		c-10.7362366,2.9443817-16.277832-1.8073578-25.493988-2.8366547c5.0628357-3.3871918,6.6427917-0.5865173,13.2017517-3.7702484
		c1.1011658,1.9868469-0.562561,3.67453,1.9030762,5.661377
		C443.1415405,234.4032898,447.4024658,239.5379944,450.7897644,239.9928131z M416.79776,226.779007
		c2.5254517-3.5307922,2.4057922-9.1203003-2.8474731-9.4554596c6.6536865-8.450119,19.7477112-10.4728394,32.0996704-13.2137909
		c-2.1663513,4.4285126-8.9048462,4.3088531-10.3770447,9.4316254c5.4578247,3.6864624,17.0437622,1.2088013,22.6692505,4.7397156
		C447.3067627,223.9184113,430.538208,223.8466492,416.79776,226.779007z M459.2876892,211.6621704
		c-0.6343079,0-1.2567139,0-1.8911438,0c0-0.6222839,0-1.2686462,0-1.891037c0.6344299,0,1.2568359,0,1.8911438,0
		C459.2876892,210.3935242,459.2876892,211.0398865,459.2876892,211.6621704z M461.178833,210.7166443
		c-2.3818359-0.3949738,1.5679016-2.0347443,2.8246155-1.8911285
		C463.321228,209.7113037,462.2919312,210.2738647,461.178833,210.7166443z"/>
</g>
</svg>
