<?xml version="1.0" encoding="UTF-8"?>
<svg id="olive" xmlns="http://www.w3.org/2000/svg" version="1.1" viewBox="0 0 1407.718122 1000">
  <!-- Generator: Adobe Illustrator 30.0.0, SVG Export Plug-In . SVG Version: 2.1.1 Build 123)  -->
  <g id="olive1" data-name="olive">
    <g id="outline">
      <path d="M1026.1772683,368.3434801c-31.2648204-14.9005269,1.171193,26.1554547,0,0h0Z"/>
      <path d="M811.2801292,221.3742942c-.5621765,5.6597905.393478-3.5838162,0,0h0Z"/>
      <path d="M829.770385,253.5367417c-2.5822559-3.15181-5.161167-6.2995373-7.7434229-9.4513474-3.1926366,2.6157049-6.2995375,5.1611671-9.410521,7.7099742,2.5822559,3.15181,5.161167,6.2995373,7.7434229,9.4513474,3.1109835-2.5488071,6.2178844-5.0942693,9.410521-7.7099742Z"/>
      <path d="M860.6704892,291.2523127c-4.1223598-2.7497244-7.8022998-9.1984169-12.4473799-5.5906051,4.0407067,2.8166222,7.6914324,9.2213289,12.4473799,5.5906051Z"/>
      <path d="M956.3768187,417.6702886c-.5612841,5.6525517.3609213-3.6318817,0,0h0Z"/>
      <path d="M824.2131786,265.949935c4.0407067,2.8166222,7.6912804,9.2211433,12.4131932,5.5572061-4.1216221-2.7571519-7.7721957-9.161673-12.4131932-5.5572061Z"/>
      <path d="M765.0039409,251.4278396c-.5915428,5.6156191.3942157-3.5912438,0,0h0Z"/>
      <path d="M813.5443962,329.8623918c-10.0089884,19.6631047,27.9426234-3.3037616,0,0h0Z"/>
      <path d="M832.8140563,440.0771073c-.484606,5.5962376.3901331-3.5878989,0,0h0Z"/>
      <path d="M723.5536239,450.8343578c.2824586-3.5610898-.5956254,5.618964,0,0h0Z"/>
      <path d="M559.5583219,270.0218647c4.1217709,2.7573336,7.8056447,9.2024996,12.5282952,5.5311349-4.1257047-2.7538071-7.7761297-9.1581466-12.5282952-5.5311349Z"/>
      <path d="M701.288104,500.5922482c-12.6381169-3.7080909-23.3520944-26.7122103-36.5389637-25.2354799,11.8222547,12.639297,22.5068658,35.5992449,36.5389637,25.2354799Z"/>
      <path d="M1382.9720624,351.8137534c-82.4426609-224.5727432-264.1921353-280.8233699-329.0903795-305.5455267C986.1552156,20.5341555,889.8562988,2.2153315,811.5739991.5153681c-184.4903339-3.9647438-375.0559078,12.3043687-568.5408451,142.7686349C76.1946154,255.85399-59.632185,429.3694477,26.8578164,619.8403996c76.2120912,168.1739695,242.6322041,301.3532836,399.8588231,334.1847069,67.5610844,14.1477858,377.6889302,89.4883642,583.6232214,10.3213724,515.3117529-197.9777188,387.5810792-571.6760386,372.6322014-612.5327256ZM1273.7964928,622.4343471c-4.7259955,3.6672821-8.3765691-2.737239-12.4131932-5.5572061,4.6409975-3.6044669,8.4025905,2.7773278,12.4131932,5.5572061ZM1158.4594779,693.2734661c-3.2696029,4.1457296-5.9682813,1.8261987-8.5639613-.8506422-2.5454621-3.1069008-5.1277181-6.2587108-7.7064694-9.4062432,6.5744196-7.5905637,11.7624347-2.2409646,18.0485482-6.9271626,2.9848958,6.0833724-6.7981611,10.8985281-1.7781175,17.1840479ZM1079.6127424,702.7686794c-9.1756608-26.331527,9.152181-23.1573358,28.3091336-23.1934756,5.9019766,19.0795222-20.4798625,8.1819007-28.3091336,23.1934756ZM1036.339964,746.0819777c23.0556297-9.7600069-14.1822715,20.7487458,0,0h0ZM1012.7381323,765.4187937c23.1372828-9.8269047-14.1822715,20.7487458,0,0h0ZM1144.7875433,657.2316327c1.4292533-8.4989881-12.8054516-18.5613486,2.5170027-25.7178553,5.161167,6.2995373,10.322334,12.5990747,15.4500521,18.8577855-5.8489479.6643512-11.6721934,1.3684018-17.9670548,6.8600698ZM984.4330814,788.6089244c2.5789111,3.1477273,5.161167,6.2995373,7.709974,9.4105208-3.1109835,2.5488071-6.2219671,5.0976142-9.410521,7.7099742-2.548807-3.1109834-5.131063-6.2627934-7.709974-9.4105208,3.188554-2.61236,6.2995375-5.1611671,9.410521-7.7099742ZM1100.586552,709.1724451c.3901331-3.5878989-.4838683,5.5888101,0,0h0ZM1058.1677609,743.9258647c28.0501456-3.3307565-9.982967,19.7031935,0,0h0ZM1278.091613,579.5324438c-8.7338467.5576406-17.7709146,4.1680029-27.4549865,14.6337919-5.0686879-14.9727384,8.7506911-28.027927,21.4154555-41.2015517,13.9792172,10.0669867-1.6369941,17.1980655,6.039531,26.5677597ZM1188.9068814,605.3577181c-3.8210741-7.5953361,8.5684475-13.6180083,14.9342786-20.1639941,7.6730574,11.9721369-3.6374738,21.1023142-14.9342786,20.1639941ZM1260.4553445,538.8101177c-15.720762-22.4361384.5255733-32.2126048,20.5950769-32.6006515,6.519047,13.3201726-2.2188827,34.5346863-20.5950769,32.6006515ZM743.8994325,725.6753628c20.3162867-15.710227,37.7608003-2.5462353,56.944713-7.2714648-4.0764045,24.4640917-42.8654513,27.0544593-56.944713,7.2714648ZM706.4045674,797.5106532s.1451953-1.1219534.1873922-1.8865968c.0863184-.869023.1345226-.9767473.0723009-.7278996.0622217-.2488478.0140175-.1411234-.0723009.7278996-.0421969.7646435-.1873922,1.8865968-.1873922,1.8865968ZM759.1319883,746.3830013c.0588768-.2529304.115829-1.1661248.2208411-1.8457703-.1050121.6796455-.1619642,1.5928399-.2208411,1.8457703ZM679.9094051,715.070135c12.4980013-9.3047604,23.9587058-8.1663901,34.3486646,3.3742841-6.2995375,5.1611671-12.599075,10.3223342-18.8986125,15.4835014-5.161167-6.2995373-10.2888851-12.5582481-15.4500521-18.8577855ZM673.5390878,736.0847713c23.1298553-9.8276425-14.108046,20.6811102,0,0h0ZM477.1727235,707.8641082c14.7637455-4.0991589,29.7014699-8.4773194,42.8277817,4.2879292-15.581697,11.2372872-29.8314702,9.7843799-42.8277817-4.2879292ZM462.1274256,728.0508286c23.1372828-9.8269047-14.1822715,20.7487458,0,0h0ZM501.1053415,640.9448962c-5.1277181-6.2587108-10.2888851-12.5582481-15.4500521-18.8577855,14.8272985-4.0215884,29.6954734-8.0016125,43.7591856-4.3356901,6.1650145,16.4691084-20.1433367,5.5112789-28.3091336,23.1934756ZM359.1666875,631.1706236c23.0857337-9.723263-14.1521675,20.7854897,0,0h0ZM393.0296826,595.5598721c-9.3035517-9.5650575-8.4569919-18.1256738,2.5170027-25.7178553,7.1315319,1.2259187,13.8267955,6.4664514,20.1566162,15.0085535-7.9627429,7.5199925-14.5944535,2.3570303-22.6736189,10.7093018ZM440.1557756,556.9497929c-12.2283733,6.5524854-23.6556289,5.4549418-34.2710941-3.437837,9.7565326-11.1934936,17.2610142.2480923,27.3775758-14.570044.6634186,5.8565349,1.327575,11.7056422,6.8935183,18.0078811,1.2218363-7.128187,6.4549915-13.7491752,14.9636448-20.1198226,7.709974,9.4105208,15.4500521,18.8577855,23.1600261,28.2683063-13.0222427.536727-26.4693878,5.4267341-38.1236709-8.1484837ZM304.6615571,612.7879696c14.2546009,12.8432246,1.9370672,26.5988995-11.0736868,24.8677674-2.087715-8.8858261,2.8592443-17.0054038,11.0736868-24.8677674ZM276.3524236,635.9814452c-3.8534649-4.7034026-7.7067795-9.4066217-11.563439-14.1139234,6.2995375-5.1611671,12.599075-10.3223342,18.8986125-15.4835014,11.5956794,11.2218064,6.1374609,20.8243523-7.3351736,29.5974248ZM322.665513,519.2780879c23.4954884-18.9835888,41.491786,18.1140946,62.1344898,27.8530122-43.3687111,26.606759-28.8569848-21.3972727-62.1344898-27.8530122ZM223.8973658,641.2459198c-.0287728.2896743-.0334489-.0408266.139188-1.7788725-.1726369,1.7380459-.1679608,2.0685468-.139188,1.7788725ZM258.8311067,595.2328642c4.6409975-3.6044669,8.4027403,2.7775107,12.4131932,5.5572061-4.7225007,3.6715477-8.4025905-2.7773278-12.4131932-5.5572061ZM242.4530994,498.3080555c-1.5831962-10.2271167-5.2307584-20.7003715,7.2536708-29.5303434,7.7101223,9.4107017,15.4500521,18.8577855,23.1600261,28.2683063-10.1528521.4579481-19.6999996-5.1821197-30.4136969,1.2620371ZM199.9526552,533.1283729c2.9035669-21.8315342,38.5216458-8.771357,0,0h0ZM437.368185,236.207557c-9.0003416,6.9031231-31.1179359,32.2905168-52.3190643,3.481703,22.3302809-26.0938482,44.9019192-7.0049915,52.3190643-3.481703ZM511.4637548,143.9788453c7.870406,12.2130136-17.0410904,4.9005678-22.6743566,10.7167294-7.2319903-18.2627753,17.0410904-4.9005678,22.6743566-10.7167294ZM490.0482865,185.1803813c3.8565125,4.7071224,7.743276,9.451168,11.5965905,14.1543871-14.8392122,18.4895011-25.772106-2.008584-39.824071,8.9721907-6.1745137-17.1302895,21.0900855-15.082221,28.2274804-23.1265778ZM584.3780429,107.8966701c-30.5840639,8.8657908,32.0898344-9.3014545,0,0h0ZM451.4819252,224.6442682c27.3323713.9898479,57.6464918-28.0428073,81.9611648,3.7418131-25.9716919-15.1023507-58.101598,32.2093171-81.9611648-3.7418131ZM614.4314404,154.1726781c-4.7259955,3.6672821-8.4066732-2.7739829-12.4172759-5.5538612,4.6450801-3.6078118,8.32502,2.8408807,12.4172759,5.5538612ZM608.3878267,127.6082633c3.0424205-27.6832241,39.0297336-17.5868676,54.0162664-20.6062807-2.8214323,25.8376334-37.8384936,5.2163136-54.0162664,20.6062807ZM611.8327845,179.9574312c-7.8586373,14.9674035-34.1328019,4.0429729-28.2274804,23.1265778-17.7739461-24.9505101-41.9485369,14.8404274-59.2084999-14.5295229,29.3795551-5.6139752,59.5468039-18.4030104,87.4359804-8.5970548ZM626.8747376,159.7666281c24.56714,3.7941072-24.9044035-1.1160578,0,0h0ZM614.8361945,193.217184c12.3468996,6.9420248,25.3644662,6.0747969,36.4573106,25.3023777-6.1172465,15.1441229-9.2137767,6.4843791-19.6676018,23.9805648,17.5784022-2.9455706,36.3623677-16.9367111,51.495181,5.1149195,5.1736849-6.7019036-5.759634-14.9999351-10.7427502-22.714445,33.2828976-16.1399674,69.6168058-61.9014346,96.8431565-16.3111117-8.9600909,3.2129636-17.5969466,2.7563752-26.5570375,5.9693389,5.567868,6.9625029,32.1029452-1.3155217,11.5967375,14.1545664,17.289787-.041582,36.4862069-18.9008784,50.6486213,13.6755359,3.6684732-9.6717245-5.6691316-20.7440803-9.929489-31.3157045,17.8658307-5.8426795,36.1401955-15.4173588,54.8693655-29.1589153,12.2559051,7.4805469,24.9468915,10.2787883,36.453228,25.3057226-13.7345821,17.7141243-31.5291899,8.0369969-33.0123527,27.0467903,20.7488967,9.3855068,45.6323695-23.194231,63.9124569,10.6687807-6.4962711,7.5193882-11.7919607,2.1965982-18.0005037,6.8192433,19.0207801-2.3259961,36.3502029,11.9966933,53.5778057,27.0029243-20.9488071,26.1560591-20.9732165,14.5836083-46.2795332,30.0494628,14.4828081,14.5875005,32.2127561-4.2711916,49.3123094-16.7455385,9.8324584,17.5309657,21.2356173,19.2486845,31.7540914,29.1556924,9.9517339-9.156382-14.3267499-21.7090368-18.4902558-32.1624475,6.2995375-5.1611671,12.599075-10.3223342,18.8986125-15.4835014,23.2861138,19.6361268-5.075587,34.1459237,12.0048365,53.203155-14.8187515,7.9378693-14.825363,5.8144784-35.9374545,13.716057,52.5499738-6.9391511,21.8630251,60.8468355,25.7511517,89.1775421-18.3359758-8.2309089-44.2141231,1.1737344-74.1730376,5.597538,21.9898513,10.900172,45.4868609,7.0421528,68.6197587,6.8121212,5.275341,12.1352705,2.591597,23.3337139,5.1447671,35.2361005-11.1359481,10.3176473-20.6690781,4.5364562-31.2676842,9.8219158-17.9965786-5.3765382-8.0975456-20.9515364-24.0065858-19.7076899-5.0132314,11.7696484,33.2963102,23.5594939,25.2653272,50.1923172-39.7526548,8.2515393-78.021521,1.225009-117.8504151,9.8665195,19.2810937,9.0596929,40.3109386.8911663,59.9774892,6.0324595-30.7041097,42.5477483-122.8795991-.6691269-180.5097236,15.6927675,41.4377084-4.5625277,91.1451286,7.148064,126.2329804,13.0485408,1.4370948-1.1774017,2.7925364-2.2879056,4.147978-3.3984095,1.351974,1.4919388,2.8050324,3.0989297,4.1904553,4.631695,6.2103664.9093963,11.9671588,1.5899696,16.8609248,1.7085177-6.5351231,8.2881144-11.739214,3.893274-16.8609248-1.7085177-2.7074156-.3814349-5.4490179-.7962688-8.3384334-1.2332856-1.7555419,1.4383032-3.5070011,2.8732615-5.262543,4.3115648,32.8942749,1.440875-21.8626897,46.835076-46.3096373,30.0127189,6.811261,16.6083071-18.0675246,29.9976437-34.6753682,44.2047669-18.7211761-29.8376254,25.8156129-21.3484215,30.8222087-48.9077968-12.4693724-10.5060054-38.9960147,5.4274513-37.2739214-16.7052067-20.9078294,21.3258461-37.5037697-.7210975-57.0523875,7.2982738,14.4005615,14.3205526,30.8716447,8.8908149,46.7177363,9.0358697-1.9795487,16.9465162-39.1341522,18.6003588-53.1730516,12.0415817-10.4628532-11.1466204,1.2343542-20.1296279-1.254505-30.4877845-5.3773321-4.1232663-12.0230348,4.5212326-17.2283233-1.6739252-1.6366918,7.6045373,15.274854,15.0712176,9.9262945,31.3118053-23.0725107,13.9700447-42.8375735-5.282589-65.6163488,6.4476316-10.4859206-21.260027,29.2334648-36.5393958,41.5763141-26.1961481,12.9419211-20.7969392,34.5357552-30.2258409,59.5493654-33.5319248-5.4157589-15.5545936,20.5280667-8.2896251,27.478516-14.1137186-40.5486387-13.2236344-85.852907,21.4306968-124.7912473-8.0408786-6.0187123,10.8671874,8.262825,16.7560677-10.2572333,16.2704045,17.0448493,2.4243635,34.1231474,4.8895535,52.3157194-3.4857857.3464926,21.2430059-33.9984132,25.1936531-46.2761883,30.0535454-4.316845-7.0595155,12.3506807-24.7748483-7.740078-9.4472647,6.28401-39.6665155-20.7564589-101.1363787,16.5868791-123.8713022-1.3042056,9.4677644,16.1309666,23.1033803,27.8966942,24.4558182,9.9363852-9.3416769-15.792294-6.9167088-19.3368156-23.6018311,12.6626279-10.2447638,25.5153887-23.8385136,36.8992679-22.3025595-14.8381613-10.6323572-32.4759457,6.8814203-48.4625565,8.1888197-18.1990493-36.5290074.257288-69.3083421,10.264766-102.9643903-18.130361,6.9938655-21.5255887,52.6181125-24.8200541,75.4382641-69.1239319-31.187383-70.7723809-90.9376932-45.5441154-151.7200482,5.2033528,25.0557961,30.2819146,18.9058493,47.174189,47.9769164-7.8283691-34.7639937-30.2348996-30.0663286-50.2068169-61.2806597,18.9620065-16.5387378,36.1975928-15.9968885,55.6824785-37.7603557ZM633.734807,177.7336827c34.1490787-9.7194825,69.7677841-34.234638,99.8833603-3.0064497-32.7223761,17.4820348-41.1935087,22.7575379-68.9799112,40.7261033-18.7380463-24.4949616-26.7294241-17.8177394-30.903449-37.7196536ZM789.3824471,136.9001604c-.5956254,5.618964.2783759-3.5577449,0,0h0ZM835.6580472,106.854225c.3124131-3.5245284-.5615882,5.6521805,0,0h0ZM929.9881342,116.2574412c-15.3352742,9.0979476-29.6184963,7.6042138-42.9126259-4.2249263,14.6292337-1.9897855,30.0655816-12.1053071,42.9126259,4.2249263ZM949.7333064,92.2133235c3.1109835-2.5488071,6.2178844-5.0942693,9.4064384-7.7066293,2.5822559,3.15181,5.131063,6.2627934,7.709974,9.4105208l-9.4064384,7.7066293c-2.5789111-3.1477273-5.1277181-6.2587108-7.709974-9.4105208ZM889.2325088,133.8530677c18.4921919,13.3018097-13.475486,25.0342459-19.6376482,24.0171252-8.8483334-17.4707185,7.4566016-16.4324941,19.6376482-24.0171252ZM998.2359725,257.3049315c-14.2000587,12.4323118-27.2236326,12.6426206-40.7524308,17.5995256-8.9843775-10.9660125-17.9988591-21.9687689-27.0166856-32.975608,11.8332407-16.6203395,19.2812569,10.192505,30.49535-1.328935,3.6424299,8.6764629-7.5939659,3.0898797-14.1137402,11.5632889,16.7457107,5.4737403,35.452255-8.4536651,51.3875065,5.1417285ZM1008.0882991,201.989835c-20.5790005-9.6611636-2.7913175,27.0070033-23.5242613,19.2732631-1.0294657-4.0214372-3.1734961-27.7832473-15.4500521-18.8577855,1.9539308-31.4519105,35.0248762-6.3769613,49.2788605-16.7863651,20.0422519,15.0271972-2.4835538,25.7586819,17.5586981,40.7858791-18.641481,27.9979194-47.5645872-10.4026273-27.8632453-24.4149916ZM979.7791656,225.1833106c-24.0597687,10.31659-47.4234348,12.8716294-68.6155244-6.815281,14.6957899-16.7074688,27.2810266-13.2221544,40.7221751-17.6364546,8.4431158,17.1343569,18.9410895,13.2001313,27.8933493,24.4517355ZM1144.031286,271.7865058c-8.5915149,3.5046017-2.9207387-4.5393302-7.709974-9.4105208,6.9276946-3.7448741,12.4613974,5.4494818,7.709974,9.4105208ZM1182.6784156,232.2629693c4.6409975-3.6044669,8.32502,2.8408807,12.4098483,5.5531235-4.7185679,3.6680198-8.4025905-2.7773278-12.4098483-5.5531235ZM1111.0965037,298.7697431c15.1760503,11.6860313,3.2332902,20.5358865,18.4093405,32.2219178-19.7085684,9.2898757-39.2565928,17.6430928-56.1249124-1.3218129,1.8879284-20.1397179,23.7429659-18.1901725,37.7155719-30.9001049ZM1126.9553925,356.6686897c2.6307405,11.8388336-.100314,23.1377641,5.2264202,35.1692027-14.8059532,3.7311763-26.1411739-28.1593734-39.4975144-38.6070397,12.4346035-9.3821414,21.7917865,12.9319749,34.2710941,3.437837ZM1142.8505951,327.9254355c4.6409975-3.6044669,8.32502,2.8408807,12.4098483,5.5531235-4.7226506,3.6713647-8.4025905-2.7773278-12.4098483-5.5531235ZM1126.1828006,451.8562079c22.5341179-.4695271,1.3040825,13.7922892-10.3420788,16.3334058-6.4355705-7.8550291-12.8677961-15.7059755-19.3032103-23.5608138,11.7095579-2.463737,26.836487-4.329079,24.9379872,11.0840675,5.2562334,4.6250444,6.8614117-1.2274295,4.7073018-3.8566596ZM1104.3993477,627.2895888c21.2444776-5.949465-8.7361063,26.7465551,0,0h0ZM1080.8750864,646.5628519c23.0556297-9.7600069-14.1822715,20.7487458,0,0h0ZM1154.1200138,562.8981014c7.0552926,1.6158899,14.4130687.1864857,21.8538183-2.1160242,7.202624,18.2186038-16.9594373,4.83367-22.6701155,10.7135779-10.133288,10.5670786,15.7151693,8.4465401,20.9736512,6.4035722,2.9517488,17.1025459-9.4424596,21.6620912-24.4223701,27.9375212-9.1313962-15.3761005-7.6417447-29.6559777,4.2650162-42.9386472ZM830.8978475,764.6802778c23.1296977-9.8278348-14.1082036,20.6809178,0,0h0ZM797.7420665,793.509093c.0588768-.2529304.115829-1.1661248.2209987-1.8455779-.1051697.6794531-.1621218,1.5926475-.2209987,1.8455779ZM915.8211655,695.1031959c-3.7952103-7.5554396,8.5976561-13.5740292,14.9601424-20.1240976,17.2108635,18.0838289-7.7494306,10.5452618-14.9601424,20.1240976ZM917.8482585,630.4034575c11.640579-15.3980892,19.7046757,5.5126206,31.3452546-9.8854687,2.4528233,11.7799069,4.6535039,23.5685226-12.0050942,33.4913825-6.4355705-7.8550291-12.871141-15.7100581-19.3401604-23.6059138ZM923.8879467,656.971409c-4.6411547,3.604275-8.3692988-2.7366931-12.4100055-5.5533154,4.7226506-3.6713647,8.3691416,2.7365013,12.4100055,5.5533154ZM785.835899,651.9409902c-7.9668036-10.8649388,18.3515044-18.433164,24.455819-27.8966947,17.4111875,10.5166398,9.1202314,10.3156834,23.1566812,28.2642236-17.2688453,14.2164755-31.6258895-1.6749284-47.6125002-.367529ZM791.6586716,680.3511753c-.0287728.2896743.0441215-.1043795.2208411-1.8457703-.1767195,1.7413908-.2496139,2.1354446-.2208411,1.8457703ZM740.3769041,673.3897478c-2.5867421,11.3168404-.3084911,23.0419032-11.9275238,33.4278295-5.161167-6.2995373-10.2888851-12.5582481-15.4500521-18.8577855,9.6842316-10.465594,18.6429913-14.0049759,27.3775758-14.570044ZM781.1326798,655.7943049c5.9535256,18.9758805-20.7636523,11.4165723-27.4551463,14.633597-5.9535256-18.9758805,20.7302034-11.4573989,27.4551463-14.633597ZM774.7289136,676.7681146c11.2648771,16.0230631-21.7693347,35.8893903-32.165793,18.4861739,9.5212492-17.6600746,15.4032121-18.6172503,32.165793-18.4861739ZM797.4326365,666.0955567c-.5915428,5.6156191.3607668-3.6320703,0,0h0ZM910.0643166,534.3660348c3.188554-2.61236,6.2995375-5.1611671,9.4880915-7.7735272,2.5822559,3.15181,5.161167,6.2995373,7.7434229,9.4513474-3.188554,2.61236-6.2995375,5.1611671-9.4880915,7.7735272-2.5822559-3.15181-5.161167-6.2995373-7.7434229-9.4513474ZM873.6843188,595.6946416c-7.6890326,25.4179009-41.3328755-9.7836431,0,0h0ZM814.5497867,667.7920206c.393478-3.5838162-.5139723,5.5520662,0,0h0ZM888.2844662,623.1089608c-4.2675555,19.0257572-17.1396137,10.3101295-37.7155719,30.9001049-30.07735-35.7286382,21.9210187-32.2814275,37.7155719-30.9001049ZM915.2907368,569.5352374c-16.9912635-5.6068926,5.5684719,29.0825028-16.7456886,37.3074063-7.0040898-16.5188737-16.6160205-6.7811793-24.010087-19.7119634,17.5760048-16.9312687,34.6181683-28.8260768,50.1622141-25.3020722-.8825932,9.9823695,8.3137321,21.0405172,18.4568069,32.121621-6.2995375,5.1611671-12.5215046,10.2587813-18.8210421,15.4199484-19.0721444-14.8258267-2.2696822-26.1970581-9.0422032-39.8349401ZM1067.4599702,476.3117207c-26.5674408,34.4301951-44.6663225-15.6428579-66.9192117-23.9326162,8.5665013-16.5435243,68.9386751-22.5630205,72.4724919,11.5229586-12.4362271-.8716522-22.4410312-6.737198-5.5532801,12.4096576ZM975.7582359,527.8548502c15.6267608,15.9837687,2.5947516,29.1921735-4.2992028,42.9052481-5.499952,1.9064707-9.6358932-32.4230861,4.2992028-42.9052481ZM957.3452928,582.3233872c-38.8092175-8.9852375,9.6330067-38.3437567,0,0h0ZM957.709528,534.7818178c10.5000717,19.6450043-16.665098,24.7138459-28.3050509,23.1901307-6.0967963-17.1936631,21.134354-15.1864211,28.3050509-23.1901307ZM1009.6204932,492.2515262c5.5638069,9.2310998.6545354,17.3883498-11.1919834,24.8899395-2.4193744-11.7390803-4.3362652-26.7623677,11.1919834-24.8899395ZM1017.3271224,501.6579643c10.2269767-16.3073345,16.8848987,3.6948678,24.863918,11.1518939-9.2459051,5.6373448-17.3988818.7245724-24.863918-11.1518939ZM986.8351172,502.990982c-4.6443424,3.6003842-8.4025905-2.7773278-12.4131932-5.5572061,4.6409975-3.6044669,8.4025905,2.7773278,12.4131932,5.5572061ZM826.1465242,681.946587c5.6789089,9.2050285.6543791,17.3881591-11.1069854,24.8271243-16.4150587-10.2751805,3.6981632-16.9558293,11.1069854-24.8271243ZM1062.3443116,527.8143291c.6307075,5.8082808,1.327575,11.7056422,6.8935183,18.0078811-16.7580607,8.6605186-33.2347042,14.899617-47.649294-.4124382,2.5263438-5.5359514,5.0861365-11.0310762,1.7038919-17.1164124,13.6151167-5.8259279,25.5109927,5.2792618,39.0518838-.4790305ZM1056.3047806,501.2465694c-.0274416.6160925-.0843938,1.5292869-.1432706,1.7822174.0588768-.2529304.115829-1.1661248.1432706-1.7822174ZM1046.5941701,598.2165856c-3.1269365.8970405-7.0072004,2.0155371-9.7227706,2.7734179-1.2014876.3157065-2.0398131.5999777-2.5963855.7284647.5565724-.128487,1.3948979-.4127582,2.5963855-.7284647,1.3173274-.3492053,3.0159171-.8743141,5.3936087-1.5532434,2.1515702-.6301317,3.0159171-.8743141,4.3291619-1.2201745,6.8694219-2.0254719,4.8329537-1.4214115,0,0ZM1000.6628304,625.5930118c21.2777689-5.9088308-8.7876552,26.8501971,0,0h0ZM1083.3515702,534.2589213c13.0026322-14.3852023,22.8257384,2.4847617,35.1652779-5.2228838,4.2369805,10.051737-28.282644,26.9650958-35.1652779,5.2228838ZM1082.0894839,503.7702113c15.3352742-9.0979476,29.5850474-7.6450403,42.8309728,4.2918241-15.9415723,14.8621177-30.1913455,13.4092104-42.8309728-4.2918241ZM1002.3591372,608.4756693c-5.7964278-15.0448443-14.5712519-30.3105189,4.2992028-42.9052481-1.3451833,14.2979774,18.8421411,30.8097465-4.2992028,42.9052481ZM1026.8149562,580.5789747c23.0524422-9.7638974-14.185459,20.7448553,0,0h0ZM981.3559613,602.0277322c-4.7226506,3.6713647-8.3732242-2.7331564-12.4172759-5.5538612,4.648425-3.6037291,8.32502,2.8408807,12.4172759,5.5538612ZM903.7345183,641.9667463c9.8424148,19.6584392-12.0307121,18.9859881-23.6018317,19.336816-7.740693-12.0463625,18.5441661-19.6554142,23.6018317-19.336816ZM961.6076013,626.0679592c4.7518596-3.6273852,8.4024333,2.7771359,12.4464849,5.5978408-4.6409975,3.6044669-8.4066732-2.7739829-12.4464849-5.5978408ZM893.9156405,697.3226694c.3901331-3.5878989-.4805234,5.5928927,0,0h0ZM1037.0387452,564.2677494c7.5965601-3.4198347,14.240868,2.2581855,21.857006-2.1121334,7.7218659,13.3308843-18.0342657,15.2393189-21.857006,2.1121334ZM984.8009191,654.3769002c-8.1783144,10.0301094-15.0856603,6.962503-22.6743566,10.7167294-3.3345542-13.6639357,10.1966936-30.0106037,22.6743566-10.7167294ZM871.6501207,747.0805599c2.900222-21.8356168,38.4881969-8.8121835,0,0h0ZM1022.5164911,623.4767953c4.7226506-3.6713647,8.4027484,2.7775205,12.4131932,5.5572061-4.6443424,3.6003842-8.4025905-2.7773278-12.4131932-5.5572061ZM1093.2444158,565.5299001c3.8533146,4.7032191,7.709974,9.4105208,11.5967375,14.1545664-6.2995375,5.1611671-12.599075,10.3223342-18.8986125,15.4835014-1.534992-10.3348411-5.1533359-20.7641051,7.301875-29.6380678ZM1143.3772636,540.1836564l9.4064384-7.7066293c2.5790691,3.1479203,5.161167,6.2995373,7.740078,9.4472647-3.1069009,2.5454622-6.2995375,5.1611671-9.4064384,7.7066293-2.5789111-3.1477273-5.1610089-6.2993444-7.740078-9.4472647ZM1055.9335979,635.4745109c7.1509522,20.9287709-14.1153848,40.3513011-32.080795,18.4233587,11.5408257-15.1867231,21.0967319-9.2194994,32.080795-18.4233587ZM1111.7012227,597.651521c21.1196202-12.7726182-31.143543,18.9177484,0,0h0ZM1190.1692254,549.1518905c-7.2319903-18.2627753,16.959596-4.8334763,22.6736189-10.7093018,7.2321492,18.2629693-17.0444353,4.8964852-22.6736189,10.7093018ZM1185.7960547,505.4302368c11.7717567-16.3789192,20.6657332-4.5405389,31.3459924-9.8928962,3.3861937,7.5558906-2.2181306,14.2151971,2.1047218,21.9316319-11.7726878,2.3783547-23.5352823,4.6191244-33.4507142-12.0387357ZM1176.3896163,513.1368661c-9.2124562,5.6781713-17.3988818.7245724-24.8604155-11.1476189,5.8048282-.5599694,11.7022975-1.3316578,18.0003461-6.8194356,2.5789111,3.1477273,5.161167,6.2995373,7.7066291,9.4064381-4.7079061,2.3901878-2.9612242,5.4965059-.8465597,8.5606164ZM1153.2295902,484.8685599c-5.8780809-14.9779465-14.5753345-30.307174,4.2134671-42.8350054,20.6472187,8.936609,14.5487994,22.7962101,17.6104048,40.6824297-7.5152218,3.3525526-14.2151615-2.2184809-21.8238718,2.1525757ZM1114.1736238,485.3509353c-14.3217722,10.3349922-47.6649447-11.657733-23.193475-28.3091328,7.7434229,9.4513474,15.4500521,18.8577855,23.193475,28.3091328ZM1084.9740666,430.5148693c-5.4936313-26.5510407-17.8057505-53.7793489-.9278001-78.066834,26.2228168,26.9598503,33.4150049,50.3790668,54.0599752,65.983688-5.0770974,20.1529801-35.888333,6.6139022-53.1321751,12.083146ZM1058.3356338,349.8565685c.157892,20.1966592,15.2860293,41.9177889,2.5950532,60.9057017-7.7066291-9.4064381-15.4500521-18.8577855-23.1566812-28.2642236-1.6428894,12.801995,5.1706634,26.4816309,17.6362685,40.7223261-19.3612257,6.1327745-38.9868205,14.5495445-56.2056727-1.2621533,18.0410244-22.7096455-7.5361388-49.8641421,11.5226146-72.4725247,12.2465529,6.8195451,26.3966055-8.7718316,47.6084175.3708739ZM542.7556234,701.37565c-4.0853313-9.0504918,11.5308801-16.1815707-6.0428759-26.5718424,10.8052853-6.6488331,18.8689424,13.9282187,29.5671372,7.2985793,7.3437366,17.0999953-17.4720892,9.5795284-23.5242613,19.2732631ZM495.0658105,614.3771365c-8.6609413-19.3573154,6.876488-9.4954234,19.7485171-24.0400351,8.6609413,19.3573154-6.8761835,9.4957951-19.7485171,24.0400351ZM528.9280678,578.7738125c7.5936636,6.5036485,2.163149,11.7511341,6.8903259,18.0039846-7.6344919,9.3863783-24.4631758-15.8677845-6.8903259-18.0039846ZM564.9772794,565.0276016c4.7201002-8.0633525,26.53928,8.9744672,17.9672073-6.8598837,9.449087-7.0049872,6.9258974,25.0429519,24.8598357,11.1552393,6.6788447,12.0494816-21.953714,24.1133579-28.3050509,23.1901307-10.3881763-9.7479709-14.0352823-18.7549347-14.5219921-27.4854863ZM538.4125567,657.6907401c-3.1109835,2.5488071-6.2995375,5.1611671-9.4064384,7.7066293-3.7127954-6.1556733-7.9308151-7.5647505-12.4507248-5.5946878-3.7876252-7.5545095,8.6018964-13.5771817,14.9677275-20.1231675,7.5936636,6.5036485,2.2741684,11.7284077,6.8894357,18.011226ZM585.5386497,619.080661c14.4306766-5.1636057,13.0113579,23.8511321,18.4568069,32.121621-15.4475128,5.0551045-29.609748-13.8547844-35.6107509-33.8629941,14.7587783-14.3570337,18.7555315,21.7513955,17.153944,1.7413731ZM595.8773836,602.7431726c-.1057498.687073-.1920683,1.556096-.2174962,1.8498529.0254279-.293757.1117464-1.1627799.2174962-1.8498529ZM594.5849356,658.9122562c3.6725339,8.7132068-7.5939659,3.0898797-14.1137402,11.5632889,2.4202917,4.7446499,5.4890783,2.9604862,8.5565338.8499044-5.9807777,17.0928916-31.4219075-17.698937-39.4599828-38.569558,22.5028054-3.4392146,32.3114583,24.6393003,45.0171893,26.1563648ZM542.2658713,662.3939592c-.5956254,5.618964.393478-3.5838162,0,0h0ZM531.1588859,687.2210836c-34.2575473-6.5193315-1.6722549-28.5492328,0,0h0ZM521.3366633,742.572924c-4.7224964,3.6715529-8.4066732-2.7739829-12.4432972-5.59395,4.6744464-3.5636403,8.4025905,2.7773278,12.4432972,5.59395ZM619.0375635,631.0116666c15.0193921,8.0886532,31.400812,3.5238558,45.8635952,17.5955607-17.9958276,7.1497441-35.9528032,13.5307621-54.0196113,20.6021981,6.5413314-12.3529461-8.2459062-26.8206685,8.1560161-38.1977587ZM611.2973316,621.5642142c23.2899961-16.9525237,43.4419469-1.141845,65.6089212-6.4483694,1.1302687,35.8576338-45.1490947,17.2715752-65.6089212,6.4483694ZM706.4733901,622.414424c-8.1742318,10.0267645-15.0815777,6.9591581-22.6736189,10.7093018-3.3312093-13.659853,10.1966936-30.0106037,22.6736189-10.7093018ZM477.0207051,534.6136493c-7.4835399,2.7333076-14.6585999,1.9456141-20.969727-6.4071105,8.2177599-10.4649898,14.447838-.5788956,20.969727,6.4071105ZM470.9778292,508.0418069c24.3709998,6.486174-25.096461,1.5726642,0,0h0ZM493.7665501,497.3064338c1.4944504-16.5559017,23.0268461-10.6029586,36.7840142-22.2766734,7.4059691,17.9837736-10.7647438,33.5395759,3.5267626,52.2824552-14.8789992,4.125045-27.5821794-13.6535599-40.3107768-30.0057819ZM546.4130557,446.2382522c-5.8454997-23.7242568-5.6400343-69.6690872,7.6653724-77.1722096,8.6406253,8.9141457,42.2943746,30.3115698,46.3501562,56.5733565-19.3115111,20.0179936-36.0010074,13.6384865-54.0155286,20.5988532ZM493.6111868,324.0518923c48.2980912-15.7099035,54.261551,44.4352548,31.3416521,76.8049861-34.6595829-7.9844222-32.0621463-37.8347449-31.3416521-76.8049861ZM470.5730751,468.997301c-12.8979404-9.8881594-12.0481858-18.4448762,2.5504516-25.6770288-1.4292533,8.4989881,12.6944323,18.584075-2.5504516,25.6770288ZM315.7314758,414.6841315c30.3852368,11.2202632,21.1581845,18.1797927,48.0205992,39.4161176-23.392591,2.844528-47.0488026,9.09825-67.7657715-15.3719998,12.968266-7.4315984,3.2264891-17.0401839,19.7451723-24.0441178ZM281.8725633,450.2915382c-6.1255694,3.7495394-11.0464747-5.3464443-16.2999567-10.3012518,6.1181419-3.7502772,10.9616247,5.4094401,16.2999567,10.3012518ZM476.8248229,274.7730324c5.161167,6.2995373,10.322334,12.5990747,15.4500521,18.8577855-6.1181419,3.7502772-7.5198415,7.8940214-5.5196749,12.450675-21.0692903,8.6034069-41.0904632,6.6186579-60.0591423-5.9655617,17.315866-14.6504377,33.7098245-19.6829571,50.1287652-25.3428988ZM470.7852919,248.2052727c12.81524-12.4986054,23.2674205-1.2067789,36.0492116-13.7462109,10.4118074-3.0650169-22.2383802,38.0817979-36.0492116,13.7462109ZM513.2821335,300.0754101c-6.4355705-7.8550291-12.871141-15.7100581-19.3033666-23.5610046,19.3003351-5.5575085,39.0637975-14.9469432,55.3559231,9.8188763-12.2812429,7.462335-24.1307492,10.2382818-36.0525565,13.7421282ZM358.5624485,418.9759556c28.0241242-3.3708453-10.0123332,19.659022,0,0h0ZM439.547454,344.7584698c5.3616702,12.3988736-25.3502699,28.1041332-32.9306996,26.9798924-4.6081632-19.6073325,23.4034539-8.8441109,32.9306996-26.9798924ZM446.0029175,323.6811994c-.5957736,5.6187831.3598808-3.6248237,0,0h0ZM383.8313784,382.477818c3.4237253,7.5933723-2.1841022,14.2484029,2.1862165,21.8645406-17.4671,1.449127-35.5397563,8.996451-51.465077-5.0781756,16.0294011-1.7381971,33.9982904-22.5871278,49.2788605-16.7863651ZM468.342257,360.5500299c-3.8238148-6.1329469,5.3464446-11.0464748,10.2604257-16.266508,8.3182183,6.5718668,3.5821544,11.8508266-1.6998092,17.1130675-2.4202917-4.7446499-5.4965059-2.961224-8.5606164-.8465595ZM449.4436445,376.0335313c-3.3827368-11.2909593,8.0593002-7.7352595,14.1953933-11.6301867,3.3533706,11.2467879-8.0550686,7.7320963-14.1953933,11.6301867ZM406.1708661,419.3468295c15.1775718,6.1580726,6.5512767,9.2954296,24.0141629,19.7086101-18.3031366,9.8643549-36.2688602,17.050843-53.1657735,12.042137-6.5565678-12.2250282,21.7480796-20.9498534,29.1516106-31.7507471ZM416.5129449,403.0134237c9.0411401-25.3998614,48.1943999-36.4899941,65.5013963-6.4213779-9.3782806,4.8178572-5.8141856,10.9585928-1.6705925,17.1570564-14.6611614,17.0745285-27.7288569,17.3892168-40.6706282,17.5328102,21.0435338-21.9763577-1.2763764-7.0877155-23.1601756-28.2684888ZM489.7542697,406.039128c23.1332002-9.8235598-14.1047011,20.6851928,0,0h0ZM524.878871,314.2299765c3.188554-2.61236,6.2995375-5.1611671,9.4880915-7.7735272,2.548807,3.1109834,5.1277181,6.2587108,7.709974,9.4105208-3.188554,2.61236-6.2995375,5.1611671-9.4880915,7.7735272-2.5822559-3.15181-5.161167-6.2995373-7.709974-9.4105208ZM547.1443909,264.4720861c-13.5609159,5.2424966-25.0184547-9.5583163-38.9702307.4121327-2.7592666-11.3377932,30.637805-21.6420274,41.5690347-26.1967049,10.3503436,9.7101217-9.358102,16.393472-2.5988041,25.7845722ZM548.4067349,208.2662586c23.1332002-9.8235598-14.1047011,20.6851928,0,0h0ZM447.2610306,267.4785358c1.2593567,12.4301969-33.950209,25.0859287-43.7216541,4.3731718,14.74098-3.1525654,28.5296505,2.9425585,43.7216541-4.3731718ZM431.8075242,335.3113861c-17.5320315,16.8267083-32.5194597,8.4522757-50.0513429,25.2791649-7.740078-9.4472647-15.4500521-18.8577855-23.1901301-28.3050502,25.7719161-12.7905673,51.1731339-21.4698322,73.241473,3.0258852ZM359.8207099,362.773473c-15.3265155,9.4251036-28.620645-2.4040364-43.755103,4.3323452-.5625104-19.0665551,34.6469081-31.7224666,43.755103-4.3323452ZM332.4438718,377.3360895c27.945964-3.2996842-10.0089884,19.6631047,0,0h0ZM227.852952,470.8937362c1.5057737,10.2908502,5.1533359,20.7641051-7.301875,29.6380678-3.8338832-4.5212691-8.7472708,1.0326098-13.2630978,2.9993276-5.2084539-13.1862434,9.3270449-33.8286459,20.5649729-32.6373954ZM292.6193962,473.0026383c14.7575591-18.4226033,24.2367683,17.3902953,36.453228,25.3057226-11.3152073,8.7996764-42.1665034-6.903619-36.453228-25.3057226ZM331.5896268,472.5905056c12.3401197-7.7152654,22.1667201,9.1589634,35.2026519-5.1855945-5.8712905,21.4654979,16.140409,38.4135069,37.2704214,16.7009347,2.5822559,3.15181,5.161167,6.2995373,7.7434229,9.4513474-4.7079061,2.3901878-2.8868486,5.4290534-.8539873,8.5598786-27.5188784.8895012-56.007573,11.5050059-79.362509-29.5265662ZM378.8713408,520.5404305c24.2599804,6.5089004-25.211563,1.5987354,0,0h0ZM432.8575032,499.8974059c-15.2429481-11.7676844-10.7674838-6.3050914-19.3067115-23.5650872,16.7960299.171903,22.5628907-.7592015,32.0841399-18.419276,4.1758336,3.3063467,1.8261985,5.9682812-.8205384,8.6007052-11.2041664,11.042202,13.0924179,2.7968603,15.4167535,18.8171425-9.7191514,11.2307917-17.2611646-.2482759-27.3736435,14.5665156ZM509.989194,420.9767011c10.1772783,12.5885856,23.8050641,25.4745615,22.2284684,36.8917378-10.9840631,9.2038593-20.4248673,3.2105643-32.080795,18.4233587-15.996556-20.3409763-13.2496731-38.782698,9.8523266-55.3150965ZM434.1121619,530.3853781c-.0347693.7653812-.1873922,1.8865968-.1873922,1.8865968,0,0,.1526228-1.1212156.1873922-1.8865968.0864691-.8688391.1012244-1.01739.0723009-.7278996.0289235-.2894904.0141682-.1409395-.0723009.7278996ZM391.3625845,612.7211937c5.1277181,6.2587108,10.2888851,12.5582481,15.4502037,18.8579706-10.2277326,14.8406777-17.7362969,3.4024366-27.4887468,14.5925853-14.2106297-12.9477877-2.3019227-23.3049411,12.0385431-33.4505559ZM430.3370495,612.3059011c-.595777,5.6187789.3598774-3.6248279,0,0h0ZM450.0519661,588.2248544c11.6901036-16.3120214,21.2265785-10.5267476,31.2643393-9.8259984-.25533,11.4058995-9.1896911,25.3851061-19.6676018,23.9805648-3.8566595-4.7073017-7.7098224-9.4103357-11.5967375-14.1545664ZM395.6239981,656.4730013c23.1298553-9.8276425-14.108046,20.6811102,0,0h0ZM500.2108353,562.9186995c7.4816153-3.3935715,14.211659,2.2142059,21.8237142-2.1527681-6.3585935-8.2524278-13.5015358-9.3257129-20.9695753-6.4069254-.9244825-7.3077931,6.8261673-13.7874853-2.1904508-21.8613808,20.4551723-7.8955713,13.5286859,19.4357746,28.7172326,15.855113,4.2484364,13.6384471-14.5218217,35.9493699-27.3809207,14.5659614ZM543.8143999,472.0230053c13.9100824-23.5210846,20.788532,23.7497778,33.5021049,11.9349005,11.2008215-11.0462847-13.0916802-2.8042879-15.4500521-18.8577855,11.6559277-15.2127944,20.5358867-3.2332907,32.1918144-18.4460851,4.9876129,15.0320137,3.1174608,42.3555395-12.8548472,42.0481013,15.2337247,19.9012456,7.1748972,20.3084106,12.8177957,44.601527-16.9394128,26.0029939-28.9077797.8265525-44.4939882,12.8661526-5.6382331-25.0952415-4.746915-49.5494158-5.7128274-74.1468108ZM450.4901691,627.3101869c8.4601361,2.1979792,16.5736673,7.545632,24.0067383,19.7078761-6.2995375,5.1611671-12.5174219,10.2554364-18.8169594,15.4166036-6.4323781-7.8511326-12.9013976-15.7469882-19.3035192-23.5611907,4.7032192-3.8533147,9.410521-7.7099742,14.1137402-11.5632889ZM563.2767324,582.1480966c3.8533146,4.7032191,7.709974,9.4105208,11.5968904,14.1547531-6.2995375,5.1611671-12.599075,10.3223342-18.8986125,15.4835014-1.5865412-10.2311995-5.1534888-20.7642918,7.3017221-29.6382544ZM489.9503048,665.8799316c10.462096,9.679962,14.109202,18.6869258,14.5999945,27.4141326-10.2826986,1.7651963-19.223395-9.6388547-28.7137348-15.8508437,4.7073018-3.8566596,9.410521-7.7099742,14.1137402-11.5632889ZM421.8948509,784.6687889c21.2478225-5.9453824-8.8177594,26.8134529,0,0h0ZM458.760672,762.3254054c20.7109313-20.1004387,39.5871114-20.9706335,56.1722251,1.2213283-5.9800297,17.426926-40.494997,20.5204154-56.1722251-1.2213283ZM529.8965419,743.4269111c8.3235097-11.1520628,14.0818124,3.5214541,21.8538183-2.1160242,3.7903659,6.0921204-5.2982404,10.9387504-10.2570808,16.2705906-3.8566595-4.7073017-7.7434229-9.4513474-11.5967375-14.1545664ZM549.5641437,719.4463462c10.194132-14.8816893,17.7362996-3.4024334,27.4584912-14.6295143,14.3517531,12.9618052,13.1799337,24.3816831-3.3669073,34.274389-7.3940665-12.9307841-17.0100799-3.1897447-24.0915838-19.6448747ZM606.6680803,712.0444307c-.1057498.687073-.1920683,1.556096-.2208411,1.8457703.0287728-.2896743.1150913-1.1586973.2208411-1.8457703ZM510.6678809,806.4853808c-4.7560995,3.6305382-8.4066732-2.7739829-12.4473799-5.5906051,4.6452348-3.607623,8.4066732,2.7739829,12.4473799,5.5906051ZM604.4777812,690.183235c27.5273241,7.898557,32.895013-19.2200808,62.576145-19.7522937,2.2638196,4.5453375-.8465597,8.5606164,3.0402037,13.304662-3.188554,2.61236-6.2995375,5.1611671-9.4880915,7.7735272-20.4435606-17.6323414-32.0419541,37.1755348-56.1282573-1.3258955ZM570.2073222,773.4326971c-4.6411525,3.6042776-8.3733793-2.7333456-12.4133483-5.5573954,4.6443424-3.6003842,8.4025905,2.7773278,12.4133483,5.5573954ZM679.504651,676.0256291c23.1332002-9.8235598-14.1863542,20.7520907,0,0h0ZM685.9525387,654.9474399c27.0828003-2.7292642,28.2024665-15.5119721,55.7201583-37.7226931,18.7229891,13.5835125-7.8527639,37.7517501-19.7492549,24.0474627-4.9528331,5.9887593,2.8957355,13.2865618,7.7066291,9.4064381-3.7382237,14.7916119-25.0211286,29.9632777-43.6775325,4.2687923ZM622.5228865,769.9467221c-8.926642,3.2537902-17.5634976,2.7972018-26.6052417,6.0770632-1.504888-10.2980972-5.1533359-20.7641051,7.3020301-29.6378785,16.199768,1.7176806,10.1778552,11.4483488,19.3032116,23.5608153ZM621.1865746,739.5256478c8.4654276-15.5259504,23.5229193-20.7323073,41.6023354-26.1560593,2.4408195,11.5986947-6.6521609,27.1748238-18.8169594,15.4166036-4.2925691,5.9868346,31.1015249,16.1669485-1.700547,17.120495-4.5286469,3.9081587,1.0701411,8.7847524,3.0402037,13.304662-9.6694871,9.1844171-15.8763855-14.9809501-24.1250327-19.6857013ZM641.8630469,793.5526359c-8.9634358,3.208881-17.6303955,2.7155487-26.6420355,6.032154-6.6836629-11.2475431,21.5560113-19.3937574,26.6420355-6.032154ZM666.2813344,765.6184596c11.590551-.168878,24.4158702-13.1465352,34.2712505,3.4380279-12.1909981,6.5897763-23.6517026,5.4514061-34.2712505-3.4380279ZM706.9561947,748.0824869c8.044396-7.5868903,14.702128-2.3838393,22.7519271-10.7802823,8.341588,7.0917451-19.5005475,30.0390745-22.7519271,10.7802823ZM861.3116445,676.7235108c1.765353,10.2828901-3.5818528,19.8627016-15.8584088,28.7881634-13.6156085-20.0332234-3.0689654-32.5358899,15.8584088-28.7881634ZM811.5909784,741.1149982c17.1539329,21.2622753-24.2756533,21.2876092-32.9347823,26.9832373-4.8824672-17.1855585,24.5612558-20.1228655,32.9347823-26.9832373ZM684.3264397,845.3819468c3.8534718,4.7034109,7.7434229,9.4513474,11.5967375,14.1545664-6.5003538,7.5227331-11.7919607,2.1965982-17.9670548,6.8600698-2.5822559-3.15181-5.1610098-6.2993455-7.7434229-9.4513474,4.7032192-3.8533147,9.410521-7.7099742,14.1137402-11.5632889ZM834.3430626,730.3349078c4.6742892-3.5638322,8.4024333,2.7771359,12.4464849,5.5978408-4.6409975,3.6044669-8.4025905-2.7773278-12.4464849-5.5978408ZM776.0616229,793.8796438c5.0554172,6.9866104,10.1409384,14.0099646,16.2999567,10.3012518,3.7472625,14.9838203-28.1145149,26.0293674-35.1985692,5.1822496,6.2995375-5.1611671,12.599075-10.3223342,18.8986125-15.4835014ZM853.6830659,753.9406297c12.920979-14.3183044,22.8257384,2.4847617,35.0834672-5.1561783,9.1925323,9.5877838-14.9026423,15.8054053-19.6334151,24.0139638-5.161167-6.2995373-10.2888851-12.5582481-15.4500521-18.8577855ZM828.3773423,790.3938581c24.3709998,6.486174-25.096461,1.5726642,0,0h0ZM774.7992789,850.0854713c2.5789111,3.1477273,5.1277181,6.2587108,7.7066291,9.4064381-6.4594773,7.5642974-11.7069627,2.1337831-17.9670548,6.8600698-2.5789111-3.1477273-5.1610089-6.2993444-7.740078-9.4472647,6.5745793-7.5903687,11.7886158-2.2006809,18.0005037-6.8192433ZM958.6780021,699.4349164c-.5139723,5.5520662.3641117-3.6279877,0,0h0ZM968.9866319,683.0606841c12.0135288-5.1824221,23.3598937-2.5513157,35.1176539-5.1227793,7.7440272,10.9178191-3.5859354,19.8660464-15.7806798,28.7248039-6.4691779-7.8960491-12.8712995-15.7102516-19.336974-23.6020245ZM938.5652498,771.0165209c-10.0261605,13.9457685-17.1646166-1.5961671-26.6085865,6.0729806-6.4539155-13.8985902,21.7856004-22.0449977,26.6085865-6.0729806ZM958.3178496,746.9731409c-2.831409-10.6097001,30.0408591-15.2168556,38.9702307-.4121327-14.4737693,15.1879316-25.7545993-2.486898-38.9702307.4121327ZM1206.4691821,559.4531423c23.0556297-9.7600069-14.1822715,20.7487458,0,0h0ZM1361.1888671,440.5525968c-13.3642836,7.7560528-15.3102491-18.0375602-2.1828716-21.860458,3.3869315,7.5484631-2.2175511,14.2075763,2.1828716,21.860458ZM1307.802402,454.4406865c.0287728-.2896743.1152498-1.1585037.2208411-1.8457703-.1055912.6872666-.1920683,1.556096-.2208411,1.8457703ZM1309.472845,437.2834476c.0622217-.2488478.1150913-1.1586973.2208411-1.8457703-.1057498.687073-.1586194,1.5969225-.2208411,1.8457703ZM1240.3020732,523.8056469c-18.3036021,7.2654396-4.8671185-17.0002637-10.7468329-22.7111002,18.221949-7.1985418,10.9577068,17.6052303,10.7468329,22.7111002ZM1232.105692,475.417518c21.2446358-5.9492719-8.7361063,26.7465551,0,0h0ZM1192.1998209,484.4564271c-7.4791658-7.9961916-2.3430124-14.7355768-10.6651798-22.777998,10.4625731-18.3016557,16.098547,12.328972,26.5311737-6.0092353,7.5608191,7.929294,2.4204253,14.6718315,10.7425926,22.7142527-10.0261605,13.9457685-17.1311677-1.5553405-26.6085865,6.0729806ZM1240.2574716,437.2229164c23.0557875-9.7598143-14.1821137,20.7489384,0,0h0ZM1314.8387108,383.9792403c-12.3875754,8.9481882-14.4981568-14.7727953-15.4500521-18.8577855,16.6625473-8.4523054,3.7212303,13.8111055,15.4500521,18.8577855ZM1259.0785137,421.802968c-9.2787387-12.4579122-8.1403682-23.9186167,3.4444778-34.337942,7.273695,12.2925087,14.9889601,24.6326282-3.4444778,34.337942ZM1221.7266968,318.4743936c2.5454621,3.1069008,5.1277181,6.2587108,7.7066291,9.4064381-8.2478639,10.4282459-14.5294911.6457934-21.0039136-6.4405095,4.5787865-2.2229931,8.5940653.8873861,13.2972845-2.9659286ZM1220.9174684,413.6171945c-15.0903037,21.4309616-26.5190804,5.2078484-40.7191391,17.6401602-5.3597348-10.6059836,6.4860235-19.5742357-9.8961905-31.2750614-2.591429,9.8537136.8785208,20.2684137,1.3363118,30.4210744-43.4071223,5.2484322-21.125191-40.2587849-32.236416-68.1366454,42.4374952-12.7778879,60.006564,16.8027851,81.5154337,51.3504722ZM1217.4318343,274.6817594c2.5822559,3.15181,5.161167,6.2995373,7.7434229,9.4513474-3.188554,2.61236-6.2995375,5.1611671-9.4880915,7.7735272-2.5822559-3.15181-5.161167-6.2995373-7.7434229-9.4513474,3.188554-2.61236,6.2995375-5.1611671,9.4880915-7.7735272ZM1182.674813,318.9534241c-2.6958257-7.5210714-1.8787658-14.6519599,6.4478877-21.0781892,2.6999084,7.5177265,1.8787658,14.6519599-6.4478877,21.0781892ZM1164.6709644,325.7685847c-9.0144816-11.0027564-18.0289631-22.0055128-27.0133407-32.9715254,9.6842316-10.465594,18.6871129-14.1093553,27.4584912-14.6295143,5.4705639,16.4376341,14.2502303,33.1666253-.4451505,47.6010397ZM1240.0615894,177.3822996c5.1277181,6.2587108,10.2888851,12.5582481,15.4500521,18.8577855-15.1395591,18.6059343-36.7007273-7.7108627-15.4500521-18.8577855ZM1060.0395257,332.7401561c-49.849058,22.1115721-62.8178047-15.8368831-54.9100349-57.4273435,34.0874612-8.004163,40.0087241,52.9056389,54.9100349,57.4273435ZM1033.4345417,252.1226819c15.600703,1.1447159,9.1949492,15.4536709,14.6003012,27.4145069-6.9995343,7.0716838-34.8204814-22.9797287-14.6003012-27.4145069ZM1142.7725446,241.3018785c-4.7219128,3.6639372-8.3724865-2.7405839-12.4131932-5.5572061,4.6409975-3.6044669,8.32502,2.8408807,12.4131932,5.5572061ZM1118.3208082,269.1952283c-4.6409975,3.6044669-8.4066732-2.7739829-12.4172759-5.5538612,4.648425-3.6037291,8.3765691,2.737239,12.4172759,5.5538612ZM1149.1763108,220.3280688c-.5915428,5.6156191.3641117-3.6279877,0,0h0ZM1104.5714569,233.2171355c23.1330464-9.8237475-14.1048549,20.6850051,0,0h0ZM1094.7189765,288.5320443c-7.8142027,6.4021218-15.7100585,12.8711413-23.5242613,19.2732631-2.2513017-17.5467784-20.5679929-36.6555481-3.4890794-52.2447885,16.7217153,1.2221381,20.5370947,20.3531811,27.0133407,32.9715254ZM1135.3933568,184.3089617c24.8080059,2.4641326-24.6929038-2.4902038,0,0h0ZM1097.6777848,215.2090667c-18.0728046,7.5471428-36.2018236,16.0000525-50.5677059-13.7350062,18.2889696-9.723414,35.559336-8.8143199,50.5677059,13.7350062ZM1118.688646,134.963204c6.1240372.6457932,7.7211125.804599,6.9629561.6953677.7581564.1092313-.8389189-.0495745-6.9629561-.6953677-3.1603962-.2764121-6.2056903-.5788954-6.9636939-.6879402.7580036.1090448,3.8032977.4115281,6.9636939.6879402ZM1084.009348,179.1715025c-1.8938235,15.7436477-37.7422488,3.8680522-51.5027615-5.1158439,6.4159711-25.5143484,46.7334088,1.8928884,51.5027615,5.1158439ZM1080.4866668,126.8857009c-16.1693648-11.2744688-33.4778456-11.4222645-49.7244911-22.2997052,24.6969868-18.1666693,38.8584951,1.8832732,49.7244911,22.2997052ZM1062.9279687,86.0998218c-10.3013922,1.5758188-20.7748279,5.2235292-29.6454454-7.2275988,11.2958987-11.5881517,20.8285865-6.1406216,29.6454454,7.2275988ZM994.7504957,118.3696882c24.5630573,3.797452-24.9077484-1.1201405,0,0h0ZM982.7119525,151.8202441c2.022921,23.1309623-45.1662995,28.8098892-38.9743133.4154776,14.4705755-15.1918299,25.7847033,2.5236419,38.9743133-.4154776ZM932.5791047,177.1664878c-5.8406836,27.8404909-46.4876665,33.6929435-60.9090469,2.5909721,21.6200564-14.1105638,40.02848,4.4522562,60.9090469-2.5909721ZM995.1588524,70.7237393c-18.4949048,11.4208172-33.7436978-9.4648724-49.7987167-22.2320696,19.3943723,3.5015803,44.4608413-1.8469791,49.7987167,22.2320696ZM853.2165958,147.6399216c-6.1254193,3.7497227-10.9648216-5.4133421-16.2999567-10.3012518,6.199795-3.817175,11.0390472,5.3457065,16.2999567,10.3012518ZM826.6896623,153.6460044c-4.7560995,3.6305382-8.4066732-2.7739829-12.4507248-5.5946878,4.648425-3.6037291,8.410018,2.7780656,12.4507248,5.5946878ZM838.2529509,167.7597442c-.6616171,18.0637826-36.3250587,19.4306916-51.8333948,42.4667387-5.2117881-12.0577001-31.1652194-26.1717103-22.3060388-36.8281849,21.9563916,9.7267194,37.0514152-16.095684,74.1394336-5.6385538ZM868.6703999,79.8074347c21.1667577-5.8860946-8.78446,26.854097,0,0h0ZM911.0932737,45.0506703c-19.5822162,7.9783623-38.5151946,9.7619394-55.3226237-9.7782322,19.6737883-9.6571204,37.4703208.680271,55.3226237,9.7782322ZM809.0493111,112.9270231c-3.3827368-11.2909593,8.0591513-7.7354412,14.1953933-11.6301867,3.3533706,11.2467879-8.0550686,7.7320963-14.1953933,11.6301867ZM771.3337392,143.827128c-1.7740564,14.915451-38.4769093,11.2660753-51.4209555-5.1825551,19.3690567-20.5973423,33.2618324,13.5987209,51.4209555,5.1825551ZM636.2852586,152.0566539c7.0762351-25.5162731,48.0373017-19.767502,66.4328045-15.0449919,5.1342065,31.6421552-45.4220887-2.8990128-66.4328045,15.0449919ZM753.7750411,103.041249c-3.9146301,8.0721005-44.9972879,18.2730127-60.875598,2.6317986,21.14026-9.6577247,40.8054795-4.8428498,60.875598-2.6317986ZM830.9108147,24.1171992c3.3492879,11.2501327-8.0590028,7.7356224-14.1953933,11.6301867-3.3834746-11.2835318,8.0249646-7.7688402,14.1953933-11.6301867ZM748.5854147,67.9169555c.3942157-3.5912438-.5913946,5.6158,0,0h0ZM791.8548482,24.5995747c23.1038339-9.8677313-14.13815,20.6443663,0,0h0ZM714.2334052,64.5385888c.6340524,5.8123634,1.4092281,11.6387444,6.8935183,18.0078811-18.115595,7.9779405-35.5640014,9.6164451-52.3491683,3.4449591-18.8924468-3.3803019,22.0477099,1.8599212,31.3419098-9.8895513-15.3427919-5.551915-31.7858293.728202-47.6084175-.3708739,4.4620513-13.5833401,43.8026922-7.0391674,61.7221578-11.192415ZM584.7859949,146.9450793c.6307075,5.8082808,1.4092281,11.6387444,6.8901734,18.0037984-26.1750371-14.8675204-29.82136,11.9120411-56.169034-1.2174334,18.0230901-21.432362,32.6164607-8.3338797,49.2788605-16.7863651ZM673.0762203,43.0936084c11.1860766,10.8884205-45.0188231,3.7642735-61.7255027,11.1883324,5.3661567-22.7233051,43.4084872-2.3152976,61.7255027-11.1883324ZM590.3434591,47.8373486c24.6007354,3.8351126-24.9042575-1.1158796,0,0h0ZM540.622793,112.2288359c8.4325714,26.0741252-49.2013008,15.5901861-67.2834469,23.6089532,7.2449336-27.5922474,46.6493173-6.1713529,67.2834469-23.6089532ZM353.5941908,251.3979514c.0286264-.289853.1190275-1.1622208.2206947-1.845949-.1016672.6837281-.1920683,1.556096-.2206947,1.845949ZM441.1811267,154.3248791c9.304614,12.4978227-8.1487815,22.2667286-20.6026505,32.5997354-7.4832484-7.9928467-2.3095635-14.6947502-10.7468329-22.7111002,11.1326032-10.32173,20.7473863-4.6074367,31.3494834-9.8886353ZM182.5549713,359.8151165c.0181002-.1444683.1057498-.687073.1632955-1.2664217.0147553-.1485509-.0153487-.1852948.076977-.3973987-.0046761-.3305009.0240967-.6201752.0423429-.7644653-.0182462.1442901-.047019.4339644-.0423429.7644653-.0923257.2121039-.0622217.2488478-.076977.3973987-.0575456.5793486-.1451953,1.1219534-.1632955,1.2664217ZM496.455654,77.5161153c4.6782495,18.5602645-23.9764595,13.5163037-32.1625938,18.4900787-5.1260738-14.3931948,23.9327857-13.0782563,32.1625938-18.4900787ZM281.1902738,151.4733132c6.3433675,5.4606076-48.7502672,53.8667037-62.0897378,58.7299018,3.7591658-21.2702466,44.0807988-38.9125625,62.0897378-58.7299018ZM176.6776622,244.9599795c.0528695-.9098495.1010737-1.0175739.0723009-.7278996.0287728-.2896743-.0194314-.1819499-.0723009.7278996-.1196228.8283728-.2208411,1.8457703-.2208411,1.8457703,0,0,.1012183-1.0173975.2208411-1.8457703ZM186.0881832,237.2500052c-.5956254,5.618964.360029-3.6246428,0,0h0ZM195.5669225,228.8154763c-.0441215.1043795-.0394454.4348804-.0682183.7245547-.0616283.5826935-.0435281.4382253-.0723009.7278996.0287728-.2896743.0106726-.145206.0723009-.7278996.0287728-.2896743.0240967-.6201752.0682183-.7245547ZM201.1334812,217.0632848c4.6411419-3.6042906,8.2915711,2.8000542,12.4098483,5.5531235-4.7226506,3.6713647-8.4025905-2.7773278-12.4098483-5.5531235ZM334.4376957,139.3642727c-5.9389152-19.1246081,20.3688432-8.1591742,28.2274804-23.1265778,19.477201,2.6282979-20.1578013,15.2457537-28.2274804,23.1265778ZM424.3912718,105.0417583c.0528695-.9098495.100336-1.0101463.0715631-.720472.0287728-.2896743-.0186936-.1893775-.0715631.720472-.038852.7687261-.1432706,1.7822174-.1432706,1.7822174,0,0,.1044186-1.0134912.1432706-1.7822174ZM116.2506821,373.226442c.3942157-3.5912438-.4805234,5.5928927,0,0h0ZM337.8490599,191.6724373c23.1332002-9.8235598-14.1863542,20.7520907,0,0h0ZM297.5348321,248.3572954c13.218786,2.9594288-44.3888645,29.100884-59.5392862,33.052873,7.7852626-18.3048959,33.7462381-28.5828223,59.5392862-33.052873ZM133.48308,374.8970125c-.5957711,5.6187862.2782302-3.5579228,0,0h0ZM115.4342264,381.8238023c1.5740231,23.2326402-13.0993432,44.8477074-32.5224545,66.0286593-1.6117008-23.2703002,13.0618112-44.8851896,32.5224545-66.0286593ZM73.4195977,455.6293337c.0295106-.2971019.0581373-.5869545.0721548-.7280779-.0140175.1411234-.0426443.430976-.0721548.7280779-.0958059,1.3404689-.1868005,1.878991-.139334,1.7786942-.0474664.1002968.0435281-.4382253.139334-1.7786942ZM302.7244585,283.4815888c11.6248953,11.2657943,6.1333783,20.8276972-7.2243046,29.5745149-3.8533146-4.7032191-7.709974-9.4105208-11.5967375-14.1545664,6.2995375-5.1611671,12.5215046-10.2587813,18.8210421-15.4199484ZM106.068307,476.116507c12.1936948-32.4450358-8.1064386,21.5022634,0,0h0ZM147.6706424,449.9604477c.0562144-.9057669.1044186-1.0134912.0756458-.7238169.0287728-.2896743-.0194314-.1819499-.0756458.7238169-.1164225.8322791-.2173494,1.8500321-.2173494,1.8500321,0,0,.1009269-1.017753.2173494-1.8500321ZM256.0365686,361.1770005c-10.3545745-9.7069577,9.4020753-16.4980324,2.6020007-25.7806705,16.9394125-5.3494657,13.1936382,32.7014619-2.6020007,25.7806705ZM296.7590423,343.5409104c-9.8091129-19.617792,12.064014-18.9453409,23.6018317-19.336816,7.8515654,12.0234567-18.5108641,19.6960614-23.6018317,19.336816ZM333.2198086,282.1526539c22.9955337-13.572646,44.1720842-8.8701824,63.8308038,10.7356785-24.3995938,28.1235538-45.2348089,19.6070699-63.8308038-10.7356785ZM222.6599807,435.7653601c-.1016672.6837281-.1920683,1.556096-.2208411,1.8457703.0287728-.2896743.1191739-1.1620422.2208411-1.8457703ZM270.7176314,388.5318494c11.6747549-16.4973162,19.7235028,4.2280987,30.3843307-1.3062086,13.3491029,25.2460799-36.0576577,25.6116809-30.3843307,1.3062086ZM88.0976496,569.6670316c19.3847182-8.2194215,2.3764505,13.6437773,6.8559867,17.9703994-15.7901794,8.5427065,1.2481922-13.2837484-6.8559867-17.9703994ZM103.5477017,588.5248171c25.1799267,2.7598533,28.7538142,40.1426753,12.082407,53.1396021-25.0576086-19.8495902,3.2224391-34.2924892-12.082407-53.1396021ZM260.9433553,530.470503c-2.5822559-3.15181-5.161167-6.2995373-7.7434229-9.4513474l9.4064384-7.7066293c2.5822559,3.15181,5.161167,6.2995373,7.7434229,9.4513474l-9.4064384,7.7066293ZM279.7603147,515.0538994c12.9691832-14.4260288,21.2115098,18.7362337,33.4171069,11.9977157,1.9488075,19.4594466-31.0641384,25.5188628-39.8208731,8.976094,8.2156342-6.4035029,9.3223684-13.5056186,6.4037662-20.9738097ZM244.6357133,606.8630509c-12.4980013,9.3047604-24.9878319,18.9442869-35.1209988,5.1186967,1.1605426-12.7411436,23.9626251-20.3621787,35.1209988-5.1186967ZM133.2330778,682.3461012c10.0975954,8.2523572,6.9557133,15.1523255,10.6691129,22.7744706-7.0548515,8.3116671-29.9982476-19.5339956-10.6691129-22.7744706ZM210.773456,642.4663749c10.0635582,8.2191407,7.0367782,15.0930377,10.7460951,22.7185277-14.3176895,10.3316474-29.6813112-13.1343124-10.7460951-22.7185277ZM164.1330325,720.0614897c23.0556297-9.7600069-14.1822715,20.7487458,0,0h0ZM260.0857654,625.7208364c5.1277181,6.2587108,10.2888851,12.5582481,15.4500521,18.8577855-8.1708869,10.0308472-15.0856603,6.962503-22.7035725,10.6727415-1.5833465-10.2273002-5.2016905-20.6565643,7.2535204-29.530527ZM190.6941526,714.088806c12.6941414-11.9968272,25.2650371-21.6956414,35.1651203-5.2230762-12.4612075,9.3496696-24.9545327,18.9849308-35.1651203,5.2230762ZM338.1969605,624.7635131c-10.5031254-9.721713-14.1167825-18.6878502-14.6367909-27.4590449,17.4500906-15.6275489,31.621063,1.344244,48.4622544-8.1891883,10.4229827,23.7815544-20.0561014,18.3013537-33.8254636,35.6482332ZM327.8548817,641.0969189c8.4642188,2.1946343,16.5738185,7.5458165,24.0065858,19.7076899-12.9651006,14.4226839-23.9024806,8.3932493-36.01168,13.7836926-2.4120467-11.888369-4.6568488-23.5726053,12.0050942-33.4913825ZM276.4303237,722.6048186c23.1332002-9.8235598-14.1047011,20.6851928,0,0h0ZM314.6356478,730.6864045c-11.450323-11.2109502-14.9201161-21.625459-1.3363118-30.4210744,8.4601361,2.1979792,16.5703224,7.5415493,24.0400347,19.7485165-7.9627429,7.5199925-14.6245576,2.3202864-22.7037229,10.6725579ZM367.3148645,679.6664769c7.0822528-3.0731997,14.118416,9.4207402,11.5933926,14.1504838-6.6295745,12.5617051-25.0633032-8.3138832-11.5933926-14.1504838ZM388.4004313,686.0400886c-.2509451,1.8090264-.246269,2.1395273-.2208411,1.8457703-.0254279.293757-.030104-.0367439.2208411-1.8457703ZM429.9726627,659.8472854c5.5972558,9.2719263.6846356,17.4250891-11.1585345,24.9307661-2.5043724-11.6762651-4.3697141-26.8031942,11.1585345-24.9307661ZM315.9719596,761.1074788c4.6744464-3.5636403,8.32502,2.8408807,12.3617966,5.661034-4.64115,3.6042807-8.3210899-2.8444118-12.3617966-5.661034ZM270.95043,821.6489965c3.8048303-24.6373327-1.0785768,24.8668718,0,0h0ZM348.0862035,742.7249467c15.1954605-11.050799,30.6967594,17.296873,14.5995626,27.4219334-14.851738-10.1575744-3.4101518-17.6620563-14.5995626-27.4219334ZM366.0534108,735.865063l14.1913107-11.6268418c7.4864408,7.9967432,2.394409,14.6317489,10.7501782,22.7151833-9.2419754,5.6338132-17.4324836.6835592-24.9414888-11.0883415ZM402.5881394,761.1037016c-6.5485361-10.7578187,5.1821202-19.6999996-1.3664159-30.4578183,10.3161475-1.7243697,19.8586189,3.5851972,28.7473366,15.8918569-9.7565326,11.1934936-17.2643591-.252175-27.3809207,14.5659614ZM434.7539324,742.6175278c-7.6483673-12.2584663-7.0893454-23.7767164-22.3435704-36.8656666,11.0625505,4.3916856,23.4353813-3.2753257,34.2670115,3.4411819,12.7548413,13.9358119.7929625,34.7963431-11.9234411,33.4244846ZM311.2610552,851.6545932c23.1332002-9.8235598-14.1047011,20.6851928,0,0h0ZM353.683929,816.8978287c2.3883643-.8241353,16.5417506,3.1094727,16.3816098,10.2343539-.5271052,15.9544093-39.6210215-2.3226318-16.3816098-10.2343539ZM397.4391857,812.5656712c-3.8534684-4.7034068-7.7402318-9.4474524-11.5968913-14.1547541,4.7073018-3.8566596,9.410521-7.7099742,14.1137402-11.5632889,5.161167,6.2995373,10.322334,12.5990747,15.453397,18.8618681-5.8083307.5556944-11.6755383,1.3643192-17.9702459,6.8561749ZM452.2750989,783.3659252c2.4258958-.7866537,16.5718547,3.1462166,16.3040393,10.2979069-.4120032,15.928338-39.7622982-2.3368364-16.3040393-10.2979069ZM402.6320032,847.6938596c27.9465538-3.3072924-9.9788843,19.6998486,0,0h0ZM470.7653547,815.5283727c-.5653668,5.6558966.3568387-3.6285368,0,0h0ZM430.5294352,872.1422503c4.6443424-3.6003842,8.4025905,2.7773278,12.4133483,5.5573954-4.7228056,3.6711755-8.3692966-2.7366905-12.4133483-5.5573954ZM437.753002,842.5751629c11.543678.2652646,22.2254476,8.9058508,32.5672022,20.5542494-12.3869819,9.282034-22.2635619-8.1445522-32.5672022-20.5542494ZM564.6499606,785.8457011c-.139188,1.7788725-.1646159,2.0726294-.2208411,1.8457703.0562252.2268592.0816531-.0668978.2208411-1.8457703ZM525.2672906,833.9071276c14.3990512.327609,30.008036-11.5259584,41.9810682,12.8483578-16.458296,20.743947-29.3401096,5.1790949-41.9810682-12.8483578ZM529.5287042,877.6589353c9.2091113-5.682254,17.4289858-.6878285,24.9423825,11.0811043-8.8967051,2.1577173-17.1165795-2.8367083-24.9423825-11.0811043ZM620.4141391,834.7133568c5.1610107,6.2993465,10.3221777,12.5988839,15.4498957,18.8575947-11.101895,11.8249457-43.3559197-9.6545519-15.4498957-18.8575947ZM584.8846273,887.4778116c-.485535-20.5965686,31.8802915-3.8691667,42.9051984,4.2241885-16.5311904,21.1380008-27.2707856-16.371513-42.9051984-4.2241885ZM583.579493,944.1144368c.0622217-.2488478.0140175-.1411234.0427903-.4307977.0254279-.293757.1057498-.687073.1205051-.8356239-.0147553.1485509-.0950772.541867-.1205051.8356239-.0287728.2896743.0194314.1819499-.0427903.4307977-.0575456.5793486-.0676248,1.0584004-.1150913,1.1586973.0474664-.1002968.0575456-.5793486.1150913-1.1586973ZM658.2076052,890.4366181c28.0200416-3.3675004-10.013071,19.6664496,0,0h0ZM650.9833007,920.011133c1.8331231-.3692301,16.9873036,3.0037121,16.2705904,10.2570803-.5942942,5.9453822-28.2217747-7.9300313-16.2705904-10.2570803ZM669.4367627,952.1286713c15.1528601,4.1791501-51.793301-13.9317505,0,0h0ZM805.26118,848.7157098c8.3235097-11.1520628,14.0818124,3.5214541,21.8538183-2.1160242,3.7905245,6.0923141-5.3423619,11.0431299-10.2570808,16.2705906-3.8566595-4.7073017-7.7098156-9.4103274-11.5967375-14.1545664ZM842.976752,817.8156048c-9.1583456-9.5543848,15.0145578-15.835366,19.6676018-23.9805648,15.239024,11.7712229,10.7634012,6.3084363,19.3067115,23.5650872-13.5375462,5.762375-25.4367671-5.3468973-38.9743133.4154776ZM900.0332221,810.5139861c-10.5335206-19.6858309,16.665098-24.7138459,28.3050509-23.1901307,6.0592647,17.1561814-21.1718855,15.1489394-28.3050509,23.1901307ZM947.9757708,763.3065467c13.0027909-14.3850085,22.8591873,2.5255882,35.1985692-5.1822496,4.6012497,6.4239417-27.9183747,23.3373005-35.1985692,5.1822496ZM1068.8666473,680.0501517c10.8931246,28.2612417-18.2339747,25.4056058,0,0h0ZM953.1988461,798.4716667c3.8566595,4.7073017,7.709974,9.4105208,11.5632886,14.1137399-3.188554,2.61236-6.2995375,5.1611671-9.410521,7.7099742-3.8533146-4.7032191-7.7066291-9.4064381-11.5632886-14.1137399,3.1109835-2.5488071,6.2219671-5.0976142,9.410521-7.7099742ZM814.7456689,927.6326374c12.5281053-9.2680165,23.8811353-8.1028372,34.3486646,3.3742841-11.590551.168878-24.4633367,13.246832-34.3486646-3.3742841ZM885.4735936,869.6857423c1.1853555-15.6339984,15.3834784-9.205672,27.3775758-14.570044,9.3068966,9.5691401,8.4569919,18.1256738-2.5170027,25.7178553-6.688026-20.0389462-18.1684645,8.88779-24.8605731-11.1478113ZM1000.8148509,798.8434733c11.6557572-16.3456154,20.5839203-4.473836,31.226648-9.863675,5.4615728,11.0550769-26.1325497,35.6022665-31.226648,9.863675ZM1055.6433307,769.6429822c-5.7527094-21.3374465,19.5222834.4014421,27.3809207-14.5659614,5.9535256,18.9758805-20.6518952,11.3864184-27.3809207,14.5659614ZM1177.3580904,677.7899647c7.5846137-3.7508814,13.6072856,8.6386399,20.1532713,15.0044708-8.2558849,10.0936623-15.1297819,7.0668825-22.7519271,10.7802823-10.3203878-9.6735587,9.3546089-16.3977356,2.5986558-25.7847531ZM995.2538821,897.9469264c28.0200416-3.3675004-10.0089884,19.6631047,0,0h0ZM1113.1078998,801.3899521c23.1332002-9.8235598-14.1047011,20.6851928,0,0h0ZM1309.3998162,656.2966034c-13.5462834,7.700471-.5145762-16.5679338,6.4037662-20.9738097.1629824,7.1944806-2.6858804,14.1273043-6.4037662,20.9738097ZM1197.0996601,740.4363018c-4.6449191,3.6080083-8.32502-2.8408807-12.4473799-5.5906051,4.7560995-3.6305382,8.4066732,2.7739829,12.4473799,5.5906051ZM995.6655837,850.3050602c29.1077907.0671606-1.3562094,27.6260326,0,0h0Z"/>
      <path d="M814.5497867,667.7920206c-.5139723,5.5520662.393478-3.5838162,0,0h0Z"/>
      <path d="M430.3370495,612.3059011c.3598774-3.6248279-.595777,5.6187789,0,0h0Z"/>
      <path d="M446.0029175,323.6811994c.3598808-3.6248237-.5957736,5.6187831,0,0h0Z"/>
      <path d="M1036.8713995,600.9900036c2.7155702-.7578809,6.5958341-1.8763774,9.7227706-2.7734179-1.3132447.3458604-2.1775916.5900429-4.3291619,1.2201745-2.3776916.6789293-4.0762813,1.2040381-5.3936087,1.5532434Z"/>
      <path d="M797.4326365,666.0955567c.3607668-3.6320703-.5915428,5.6156191,0,0h0Z"/>
      <path d="M116.2506821,373.226442c-.4805234,5.5928927.3942157-3.5912438,0,0h0Z"/>
      <path d="M1149.1763108,220.3280688c.3641117-3.6279877-.5915428,5.6156191,0,0h0Z"/>
      <path d="M106.068307,476.116507c-8.1064386,21.5022634,12.1936948-32.4450358,0,0h0Z"/>
      <path d="M470.7653547,815.5283727c.3568387-3.6285368-.5653668,5.6558966,0,0h0Z"/>
      <path d="M133.48308,374.8970125c.2782302-3.5579228-.5957711,5.6187862,0,0h0Z"/>
      <path d="M717.9929686,549.9381936c.9491911-.3071853,2.0256418-.4590421,3.001008-.7259509-.9947976.0849589-2.0228904.1292789-3.0211866.2099675.0487976.2261214-.0287728.2896743.0201786.5159834Z"/>
      <path d="M836.990607,223.9655717c-24.9042528-1.1158739,24.6783106,3.7715654,0,0h0Z"/>
      <path d="M860.1506331,252.233878c-51.7149928-14.002731,15.2270856,4.1115145,0,0h0Z"/>
      <path d="M938.250798,337.9662717c-34.5045696-16.9060895-37.0370739,8.6262845,0,0h0Z"/>
      <path d="M864.9319028,335.0041203c-24.9044035-1.1160578,24.6748144,3.7672981,0,0h0Z"/>
      <path d="M894.651316,428.858621c-6.845448,4.0118221-34.3596503,5.2318241-27.4926778,14.5961153,6.7290255-3.179543,33.3645504,4.446663,27.4926778-14.5961153Z"/>
      <path d="M828.1848049,530.5573239c-34.2136964,5.576531,22.6727016-3.7148714,0,0h0Z"/>
    </g>
  </g>
</svg>