<?xml version="1.0" encoding="UTF-8"?>
<svg id="olives" xmlns="http://www.w3.org/2000/svg" version="1.1" viewBox="0 0 2834.6456693 2907.7416597">
  <!-- Generator: Adobe Illustrator 30.0.0, SVG Export Plug-In . SVG Version: 2.1.1 Build 123)  -->
  <g id="olive">
    <g id="outline">
      <path d="M1410.9993865,224.9605132c-69.6668116-33.2238712,2.418573,58.649656,0,0h0Z"/>
      <path d="M1540.3861537,576.0822087c-1.1618326,12.6010402.7932083-7.9857359,0,0h0Z"/>
      <path d="M2036.4080623,1224.3440827c-1.1698421,12.591264.7851988-7.995512,0,0h0Z"/>
      <path d="M990.1481508,376.5450718c-26.4563848,5.8770067-48.3253892-31.723725-78.5799091,11.5748079,23.4349296,50.0413496,103.082243,29.6189678,78.5799091-11.5748079Z"/>
      <path d="M1694.9732582,1452.2216894c-.3556863,2.676793-.4389431,4.5095337,0,0h0Z"/>
      <path d="M1694.972125,1451.4226315c-.0789617.7012968.0364655.4433458.0011333.7990579.1363746-2.1866861.3430681-4.2676017-.0011333-.7990579Z"/>
      <path d="M1481.9368639,1942.3501948c.7932083-7.9857359-1.2419275,12.5032791,0,0h0Z"/>
      <path d="M1463.0134561,417.3712048c-23.121862-25.8885262-49.4039649-20.9554256-74.6074921-26.7906244-13.4635083,19.0036152,53.8810859,31.4852745,74.6074921,26.7906244Z"/>
      <path d="M2717.187108,2317.7935596c6.7993392-18.1837657,4.4089469-11.7486586,0,0h0Z"/>
      <path d="M1968.3998068,2078.4637248c-1.6852626,1.0539593-3.3628141,2.1173306-5.3236938,3.2337188.6568853-.3747992.8426313-.5269796,1.4995166-.9017789,2.1389146-1.2779806,2.3344367-1.4381706,3.8241772-2.3319399Z"/>
      <path d="M1956.6424786,2085.5307111c-23.6134681,14.4122038-13.1684421,8.0766664,0,0h0Z"/>
      <path d="M1160.0214907,2107.1658164c-1.2439846,12.5207102.7929179-7.9860904,0,0h0Z"/>
      <path d="M2087.5777829,2363.7405569c-12.1400648,7.3975063-8.4918528,5.2097431,0,0h0Z"/>
      <path d="M123.0993974,971.2373887c-.4375478,2.5968176-.5288141,4.4197822,0,0h0Z"/>
      <path d="M2383.599844,1948.4186146c-.0685969.6940058-.2210783.5078925-.1840241.9519568.3218198-2.3392338.5285133-4.4201494.1840241-.9519568Z"/>
      <path d="M1160.1388592,149.3568484c.1955221-.1601899.7369802-.2770381.9948117-.3412336-.2578315.0641955-.5334486.1266243-.9948117.3412336Z"/>
      <path d="M1909.1147753,596.9105616c.7131134-8.0834969-1.2514241,12.5116297,0,0h0Z"/>
      <path d="M1819.4530659,2568.9049174c.7134161-8.0831274-1.2517036,12.5112886,0,0h0Z"/>
      <path d="M2193.0969015,2016.5809355c-76.3023501,12.4203546,50.6397796-8.306482,0,0h0Z"/>
      <path d="M2006.2955979,1466.4768721c-.0688978.6936385-.2210783.5078925-.1745489.94358.3123446-2.3308571.5288141-4.4197822.1745489-.94358Z"/>
      <path d="M2058.2510857,651.1934584c-.3476768,2.6865691-.4487192,4.5175432,0,0h0Z"/>
      <path d="M2351.1890015,2273.8151787c-6.9317508,3.6041797-10.4642326,5.5343618-15.0971773,8.055719,16.4011717-8.7973079,35.751792-19.0797993,15.0971773-8.055719Z"/>
      <path d="M2705.93102,2106.9892587c-.1524608,2.5260056-.4392492,4.5091601,0,0h0Z"/>
      <path d="M2094.5095343,1939.0838203c-69.5348823,42.1179917,47.1996135-28.4589195,0,0h0Z"/>
      <path d="M2333.4217176,1479.7606523c-.0691924.693279.0364587.4433375.0109026.7910401.1265985-2.1786766.333292-4.2595922-.0109026-.7910401Z"/>
      <path d="M1631.7046418,859.3016072c-1.2419275,12.5032791.9086355-8.2436869,0,0h0Z"/>
      <path d="M2210.1180686,1714.4776167c3.7182278-2.0823625,10.4642326-5.5343618,17.1301425-9.0841221-6.0090246,3.1749611-12.0260586,6.3401462-17.1301425,9.0841221Z"/>
      <path d="M2823.4373904,1798.9893467c-56.4396497-542.5075504-438.1063117-1111.1765999-964.2258194-1477.5832853C1393.4591004-2.8667922,1082.2889412-16.9362288,846.6886989,8.2467566,388.4017368,57.2643938-16.1124479,432.8744335.4939958,842.2493579c10.7022377,259.6040604,171.7363469,683.2346091,221.5828966,785.3552019,302.4171713,620.3472987,1182.1076366,1145.2661241,1292.4398397,1191.1325683,404.6492563,168.6686362,749.6096056,88.8351548,1059.8836939-165.3702408,292.1394096-239.3477798,270.3794848-650.7253592,249.0369644-854.3775406ZM2630.5236365,2185.5324026c51.6385344-21.8843019-31.614794,46.3245691,0,0h0ZM2705.93102,2106.9892587c-.0370594-.4440707.1154272-.257951.1840189-.9519632.3444891-3.4681926.1377957-1.3872771-.1840189.9519632-.4392492,4.5091601-.1524608,2.5260056,0,0ZM2692.6252266,2046.736981c51.4527884-21.7321215-31.6050179,46.3165596,0,0h0ZM2507.0095978,2163.6997117c-8.4882443-16.9811494,19.2341761-30.2667756,33.5914795-45.0685251,38.4474032,40.306837-17.3436668,23.6203664-33.5914795,45.0685251ZM2121.6761097,2444.3062292c10.4995391-8.6021991,20.9990781-17.2043982,31.6941393-25.9667872,40.575572,17.9770719-22.0501704,69.2859056-31.6941393,25.9667872ZM2336.0918243,2281.8708976c4.6329446-2.5213572,8.1654264-4.4515392,15.0971773-8.055719,20.6546148-11.0240803,1.3039945-.7415889-15.0971773,8.055719-26.4678128,14.0392231-15.5505309,8.2801043,0,0ZM2191.5737249,2422.1341214c6.8726033-5.6306759,13.9407288-11.4215418,21.0088542-17.2124077,23.3480561,18.3673412,1.3429433,32.4094481-14.2959861,46.8234605-5.0539113-10.0572887,1.8896357-19.1111417-6.7128682-29.6110528ZM2235.4789975,2368.6155776c32.1061053-30.9280275,60.8452761-28.9535125,87.1998935-1.0735025-32.4873477,33.9525231-62.6160178,45.8765737-87.1998935,1.0735025ZM2605.5152041,2047.9002351c4.7011186,19.7571504-6.3030887,37.8738372-24.8035346,55.4158835-36.4663256-23.0919394,8.2321287-37.8525178,24.8035346-55.4158835ZM2537.6125707,2050.7108874c-29.8992618-41.5592122,9.5198625-76.4037898,30.6109824-112.9790482,49.9943904,42.3159092,14.8176213,110.3967603-30.6109824,112.9790482ZM2158.9741651,2360.9266911c-.3199251,35.0462066-45.0035656,84.1049337-82.3042706,49.8840543,25.4535624,3.4083473,54.1649815-26.9767752,82.3042706-49.8840543ZM2154.1764227,2312.215667c-41.2093134-36.2794943,15.1887642-62.86383,47.807673-91.9893776,14.3927622,17.567295,28.7858268,35.1349591,43.0987964,52.6048621-31.2695552,22.5963556-64.7441866,68.2063388-90.9064695,39.3845155ZM1926.471,2463.5152281c-41.2173229-36.2892704,15.4563718-62.936035,47.8972417-91.8999951,14.3706703,15.9848649,27.6851592,44.3208284,44.996439,33.5034933,5.7565505,27.6660726-72.5207651,89.0859847-92.8936807,58.3965018ZM1819.4530659,2568.9049174c-1.2517036,12.5112886.7134161-8.0831274,0,0h0ZM1886.3624768,2478.8128796c51.6385346-21.8843016-31.6147937,46.3245694,0,0h0ZM1988.5823662,2324.7117971c.8869909-30.0865069,37.4358769-82.0546899,75.5914024-79.4951071,11.658209,30.183089-55.5547232,52.5410365-75.5914024,79.4951071ZM1850.7821175,2349.6945572c-24.6340483-32.0018066,39.8162249-79.528217,61.3755113-32.5738855-21.8723814,25.092373-38.7081549-.5220089-61.3755113,32.5738855ZM2034.4830209,2058.6155474c11.3285086,15.7814786,22.4888178,31.357659,36.3942402,23.0039545,4.2837944,43.3973789-69.5081217,56.9475191-89.0972337,20.1752404,36.245997,3.3398111,27.2837198-20.4417882,52.7029936-43.1791949ZM2126.3652297,2106.51102c-40.1852765-47.4932574,13.6474101-46.4385192,43.8251776-53.6163048,20.4147589,21.4077621-33.3107724,35.2806784-43.8251776,53.6163048ZM2193.0969015,2016.5809355c50.6397796-8.306482-76.3023501,12.4203546,0,0h0ZM2401.6104154,1863.2939172c-26.9659645-44.5996332,6.9393579-83.0632305,41.1105214-121.5812473,11.493627,14.0287134,22.9952635,28.0672029,34.4891903,42.0962822-15.4617092,28.6295109-50.9087114,80.8059278-75.5997117,79.4849651ZM2266.7989732,1956.1973424c-1.2422273,12.5029132.7929085-7.9861018,0,0h0ZM2245.7998951,1973.4017406c-21.0889492,17.1146466-36.8415389-17.6870029-59.2126299,13.4173624-16.726211-48.054846,65.4219677-75.9341237,59.2126299-13.4173624ZM2100.4785381,2074.9146425c-90.4776533-39.1615852-3.0462332-69.1473863,0,0h0ZM1976.1663351,2159.2155027c41.1823104,33.1156625-38.8798368,54.1883411-56.4973742,81.3830366-25.2464191-25.7496496,33.1186461-92.3893826,56.4973742-81.3830366ZM1753.3485259,2359.3158394c18.4159533,15.8571598-43.588236,67.1469063-50.6003551,23.9092576,17.6141681-16.6695027,32.6196033-5.3539957,50.6003551-23.9092576ZM2005.7773883,2152.5026338c7.0583494-5.7828564,14.1264748-11.5737222,20.9990781-17.2043982,5.3662816,10.4385568,12.3413742,6.4884412,19.1020377,1.8977056,20.9435735,16.9879805-35.331849,54.6302253-40.1011159,15.3066926ZM1915.9540758,2278.8994102c26.1756773-36.5910901,45.9927242-10.0699073,69.7198787-22.0101513-.0119467,19.4686213-16.7347577,19.2983453-43.9052726,53.5185438-8.6021989-10.4995388-17.2844927-21.0968387-25.8146061-31.5083925ZM2113.896265,2134.126972c33.8453988,26.5136286,23.8335286,14.293495,43.0990988,52.6052312-30.7599477,17.3753978-60.5452485,25.0322144-89.0171388,20.2730015-41.0654364-29.8620792,29.3848598-48.6475104,45.9180399-72.8782327ZM2257.3903008,2051.8212126c10.3508472-8.0059544,18.5729238,6.3171219,27.7039368,12.3968785-10.5457671,8.1668793-18.688351-6.0591709-27.7039368-12.3968785ZM2179.8837726,2150.416291c-10.535991,8.1588698-18.6785749-6.0671804-27.7039368-12.3968785,10.3508472-8.0059544,18.7684459,6.1569319,27.7039368,12.3968785ZM2383.4158198,1949.3705714c-.0370541-.4440643.1154272-.257951.1840241-.9519568.3444891-3.4681926.1377957-1.3872771-.1840241.9519568-.439244,4.5091665-.160465,2.5162359,0,0ZM2215.1966224,2086.3901989c-10.3603224,8.0143311-18.5826999-6.3091124-27.7938079-12.4866301,10.5460684-8.1665116,18.7684459,6.1569319,27.7938079,12.4866301ZM2493.4303148,1911.0933953c6.9039983,13.4920094-14.9503809,24.208328-3.7243615,38.3092464-36.1135596,13.9519001-29.2788873-54.0434042,3.7243615-38.3092464ZM2230.5019134,2126.5088c36.6618478,22.9317495-8.1520337,37.9502789-24.7234397,55.5136445-12.694864-20.5601346-1.4868202-38.8268632,24.7234397-55.5136445ZM2296.4994996,2142.7904786c21.0196966,27.6101988-18.8077246,56.8911897-43.8975655,53.5279508-20.4147589-21.4077621,33.3908673-35.1829174,43.8975655-53.5279508ZM2061.3726131,2370.7019204c-25.1068776,25.8308001-45.1162591.2514307-66.0052933-16.2910856,22.9706994-3.5108111,46.3180325-11.6271504,66.0052933,16.2910856ZM2088.1711295,2295.9245814c-.0421381,64.9789925-61.7156592-2.8791453,0,0h0ZM2087.5777829,2363.7405569c4.2852421-2.5469133,9.229136-5.4864114,14.0911684-8.5058849,18.9451913-11.5351346,11.2876573-6.8625171,0,0-6.8149026,4.1456378-10.6485576,6.4859513-14.0911684,8.5058849-8.4918528,5.2097431-12.1400648,7.3975063,0,0ZM2248.8775726,2234.6276758c51.5584394-21.982063-31.6851128,46.2187986,0,0h0ZM2343.5884985,2157.031675c13.6298052-8.2912756,16.757152-17.7155461,12.3968793-27.703937,16.9811497-8.4882447,30.2942175,19.0483098,44.9181107,33.3879466-14.573773,16.8906746-26.2737899,4.9432472-40.1105922,15.315068-5.7828562-7.0583492-11.493627-14.0287134-17.2043978-20.9990776ZM2423.7999068,2126.4095485c51.6385344-21.8843019-31.614794,46.3245691,0,0h0ZM2623.7115216,1962.6233574c-8.7857743-29.8079701-51.077978-63.1416427-1.0908641-87.0216679,8.7934814,29.8173771,51.0874518,63.1332641,1.0908641,87.0216679ZM2776.6317157,1784.6951284c-58.9274441,21.9416151-25.8944247-34.31791-32.5995598-61.2074303,36.4612622-13.926344,19.4927298,45.6085359,32.5995598,61.2074303ZM2512.6121477,1913.0884961c-11.8424824-23.807249,1.0539859-45.0584387-21.9044986-69.9698193,30.6993276-25.6255536,71.995868,47.7525682,21.9044986,69.9698193ZM2560.4195183,1821.0987494c-42.0984749,13.2676244-36.1756257-47.2656166,5.6217017-57.4109842,23.189313,21.6833534-20.7451839,36.6186001-5.6217017,57.4109842ZM2736.4236434,1606.6944184c5.9795312,16.6511388,4.1174974,32.6850394-14.2959861,46.8234605-16.9804259-14.4839014-4.9331-26.2821027-15.395162-40.2083527,10.0396227-4.8760555,18.9960869,2.1472812,29.6911481-6.6151078ZM2528.336182,1657.6812005c.1489928-.5958775.2322496-2.4286181.4854724-4.0738462-.2532228,1.645228-.3364796,3.4779687-.4854724,4.0738462ZM2505.7377235,1690.0834564c37.0445628,26.1309135-9.2093884,44.0780833,2.980797,67.910889-22.9244698,3.9461327-43.0395023-21.3832952-64.0984768-35.4011989,21.7090297-23.3573934,41.6970088-31.2865397,61.1176798-32.5096901ZM2328.9100396,1817.3935454c8.6102084,10.5093149,17.2925022,21.1066148,25.8947011,31.6061536-32.8304158,38.2201248-61.8196218,38.6724613-90.9865644,39.2867544-14.6716011-27.2404292,48.4865978-46.7501706,65.0918633-70.892908ZM2128.9984247,1981.1797366c78.320605-17.7342721-56.2632271,12.7497395,0,0h0ZM1929.2725559,2144.8137473c3.1660274,32.680337-27.5318534,61.817425-47.8073706,91.9897467-20.1503647-24.9737158-43.5665957-16.163738-62.2008368-54.5025709,14.5491573-53.892939,73.876594-14.5834718,84.2016108-68.9857922-16.6402772-28.4866971-43.1666031,45.0873443-57.5888404-5.6393664,14.1264748-11.5737222,28.0672036-22.9952641,42.1936784-34.5689863,55.2766407,22.6792758-6.8015623,81.6759535,41.2017587,71.7069691ZM1667.9565019,2147.9816021c16.9465663,21.0632731-17.6852366,36.823753,13.4978218,59.3100906-48.6161157,39.1936534-49.1178737-46.7101353-13.4978218-59.3100906ZM1599.3455753,2257.015557c-1.4374497,12.663469.7851988-7.995512,0,0h0ZM1576.1546827,2100.1842502c16.9703552,14.4915514,4.924796,26.271967,15.3147725,40.1102321-16.9959901,20.9337973-54.655972-35.1631086-15.3147725-40.1102321ZM1530.3517754,2172.8041723c-1.4374497,12.663469.7932083-7.9857359,0,0h0ZM1484.3424982,2052.3941886c-6.8611114-49.2751962,57.6422007-6.3802748,78.3140681-11.5203886,55.2452457,3.5565905-49.3007269,9.9209404-22.8964183,36.3061361-22.4606629,31.0149789-33.152509-55.6405365-55.4176497-24.7857475ZM1488.0588502,2014.0751662c-31.0116705-70.9552424,15.2021586-128.2767435-1.9162015-174.098139,108.1665597,41.2688338,41.9787917,152.1237239,139.7164502,149.1153789-38.9818962,35.7770799-75.2137766,42.9638624-108.1188767,18.3756618,78.4927408,12.4484554,20.1002195-58.4245474-29.681372,6.6070983ZM1385.5518991,1975.0478532c31.4085029,35.2251734,41.0848847,68.4533857-9.4083726,95.6242361-28.3583317-35.012011-25.1757223-66.9629639,9.4083726-95.6242361ZM1220.3329983,2180.7799032c51.6287585-21.8762921-31.6948887,46.2268084,0,0h0ZM1236.3466909,1921.4585949c-20.4147589-21.4077621,33.514304-35.4310922,44.1007947-53.6787337,25.8131335,25.2847329.2514296,45.1162588-16.3084641,66.1835025-8.2912756-13.6298053-17.6260836-16.8473757-27.7923306-12.5047688ZM1214.9324592,1942.8426099c.0688978-.6936385.3476768-2.6865691.4053775-4.1716073-.0577007,1.4850381-.3364796,3.4779687-.4053775,4.1716073ZM1264.0492616,1740.6570087c-7.9436244-19.0284994,10.0172285-6.4588547,20.9990781-17.2043982,8.1199141,15.3550085-12.1310383,27.6495176-20.9990781,17.2043982ZM1140.7404085,1911.87272c-27.5747333,41.9029888-81.0536028-41.2792178-23.9095443-50.6007056,12.6500755,17.3945362,37.8132062,36.0229902,23.9095443,50.6007056ZM1089.8452818,1742.6441719c50.2015491-29.4812019,162.9165648-6.7903418,70.8828454,65.0995226-25.6089047-1.6635915-47.7742066-37.2728333-70.8828454-65.0995226ZM1056.0338857,1791.7317757c-.1489928.5958775-.080095-.0977611.4854724-4.0738462-.5655674,3.9760851-.6344652,4.6697237-.4854724,4.0738462ZM1132.8448487,1601.9510625c5.712993-7.065997,11.6967195-12.6050344,17.5294645-18.3482963.1489928-.5958775.0688978-.6936385.3556863-2.676793q.2420257-2.4366276.1297862-1.3970532.1122395-1.0395745-.1297862,1.3970532c-.2867884,1.9831545-.2066935,2.0809156-.3556863,2.676793,40.4015759-39.4883987,81.9230024-49.5716839,103.892783-63.2580788.7978428-3.692578,1.0045621-3.0613684,1.0283774-.6791601,10.7895409-7.0916049,17.138446-15.3157912,14.2682335-29.7272714,25.3489034-28.2674278,42.0728663,31.1116542,65.9955172,16.2990951,15.7226401,68.6463244-96.7265612,92.6447462-134.811742,92.9030593,16.8599086,24.4672702,36.0417415,26.462371,57.3152751,5.6843577,34.6361692,46.9420761-50.2861252,2.1174406-54.3250019,62.2181558-25.6987757-1.7533431-47.9697287-37.1126433-70.8929067-65.0918613ZM1118.4352021,1649.0146884c86.597083,20.0071296-21.2818209,85.4194275,0,0h0ZM576.8235881,1266.4309231c-16.9302533-27.285166,13.227642-50.0817462,7.5914006-76.4244037,21.237643-20.4229828,35.288414,33.3202139,53.5182697,43.9049375-21.784277,25.1999102-38.6200505-.4144717-61.1096703,32.5194662ZM503.1215164,1326.8145162c51.6385344-21.8843019-31.614794,46.3245691,0,0h0ZM846.260232,887.5788524c5.7024891,6.9602559,11.4933548,14.0283812,17.2041256,20.9987454-6.8726033,5.6306759-13.9407288,11.4215418-21.0088542,17.2124077-5.7107708-6.9703642-11.5016365-14.0384895-17.2041256-20.9987454,7.0681255-5.7908659,14.1362509-11.5817317,21.0088542-17.2124077ZM898.770619,845.3411388c-.4487192,4.5175432-.0818358,2.6321498,0,0,.0335656-.3379265.1136606-.2401654.1828305-.9334717.2658886-3.5840715.129514-1.3973853-.1828305.9334717ZM678.9303925,1112.5707086c-24.1649498,17.2488533-44.2621967-8.078808-64.0901686-35.3910582,10.6950612-8.762389,20.9990781-17.2043982,31.6941393-25.9667872,25.0131162,39.4840201-17.4997627,36.6712404,32.3960292,61.3578454ZM803.4458538,1028.1191011c17.4972675,26.8206153-41.2054498,43.97129-52.7029936,43.1791949-36.9298844-55.5846702,20.7018688-83.0163654,66.9892035-89.9946459,17.8518062,23.3447469-81.5702098,39.8718222-14.2862099,46.815451ZM859.7399961,946.8868442c7.0681255-5.7908659,14.1362509-11.5817317,21.0088542-17.2124077,23.258185,18.2775896,1.5286894,32.2572677-14.2959861,46.8234605-4.9384841-10.3152397,1.8896039-19.1111805-6.7128682-29.6110528ZM1662.2083679,553.0147906c89.9939217,40.5055205,98.5269279,107.3959696,97.7986793,183.6222908-67.7482824-16.4642134-151.0131829-124.7150967-97.7986793-183.6222908ZM1616.3001041,625.8850137c-19.1085946,7.8458637-6.4409118-10.1947468-17.2844927-21.0968387,15.3550088-8.1199144,27.8896829,12.2446981,17.2844927,21.0968387ZM2069.0244204,834.9456717c-77.9205849-17.2141735-130.9713755-100.2727195-137.8194005-168.2174713,53.8504405-7.8974316,120.8728866,103.1226221,137.8194005,168.2174713ZM2116.7341494,743.2156427c-16.0725142.2445578-31.4976252-6.1191193-46.9032727-14.393401-17.0008805-30.1034068,37.112455-1.0467504,46.9032727,14.393401ZM1775.5028222,1163.3418912c-7.0681255,5.7908659-14.1362509,11.5817317-21.0088542,17.2124077-5.7107708-6.9703642-11.493627-14.0287134-17.2043978-20.9990776,6.8726033-5.6306759,13.9407288-11.4215418,21.0088542-17.2124077,5.7107708,6.9703642,11.493627,14.0287134,17.2043978,20.9990776ZM1884.5079676,1038.9402156c16.7311145-6.0613931,32.6049447-4.2152593,46.80596,14.2945663-16.7313997,6.061045-32.5251349,4.3126722-46.80596-14.2945663ZM1759.1940688,1229.5250406c-47.1762538,44.8597034-56.7433163,50.3125492-68.7088072,108.9344272-23.0738858-21.9413044-1.8028064-122.1707071,16.9994999-172.0489733,33.1081761,38.4563624,36.4042754,20.2841675,51.7093072,63.1145461ZM2120.7260033,898.0507898c19.8084848-13.9911975,11.6759526-30.9370147,33.4054483-44.9166928,32.0674147,32.120812-42.3578056,53.8518615,20.1929044,88.9193768-21.4156527,20.5846059-35.3509966-33.4165419-53.5983527-44.002684ZM2126.5169854,1034.0432205c-27.4904391,19.8105785-32.2287399-33.1153945-34.4969-42.1056924,37.2194503-18.8438932,8.3436178,30.8237551,34.4969,42.1056924ZM2020.4108761,1033.0591933c-1.4374497,12.663469.7932083-7.9857359,0,0h0ZM1904.8001187,1321.1575847c-27.7862274-45.2019796-60.988884-35.8732996-88.105314-86.100715,43.0424168-24.5791485,4.6527317-57.4171046,37.21019-83.12783,58.9612505,64.9664158,114.6011571,101.7093756,50.895124,169.2285449ZM2109.3237299,1206.2345981c-16.294053,21.0128239-7.7343063,44.3230507-35.2146799,64.1259729-12.4458936-5.4394437-24.7662945-11.1444948-38.3016458-3.8945603,11.0597748-40.6429972-54.4653777-89.0726421,2.71329-125.2335223,21.8911316,39.1832049,47.3814473,43.0352492,70.8030357,65.0021097ZM2129.4274515,1101.8483242c32.5145168,54.1040348-70.659768,43.8559272,0,0h0ZM2275.0072571,1387.04447c-35.1338564,35.0097895-45.3765818,72.7613844-68.7007977,108.9442034-26.3444123,4.8371062-49.7404446-17.4774568-76.6905784-7.5367061-8.1199141-15.3550085,12.3167843-27.8016981,20.9990781-17.2043982,1.9662638-17.0832512-25.2410034-32.7625763,16.3873737-66.0672464,14.3801545,15.976499,27.6946433,44.3124626,44.9979137,33.4853513-4.0763779-18.9946141-71.367614-86.7099407,2.6234189-125.3232739,20.1038354,24.5380283,40.2076707,49.0760566,60.3835916,73.7020698ZM2375.3301087,1252.0454945c15.1234822,20.7923842-28.8110147,35.7276309-5.6217017,57.4109842-36.1853524,13.8642723-30.0752833-46.8392918,5.6217017-57.4109842ZM2133.6958488,1643.394663c-44.3121224-4.2311398-48.5876133-53.8601878-11.5910001-78.4201975,26.7390732,28.3492631,48.3372835,56.2866798,11.5910001,78.4201975ZM2300.8218632,1418.5528625c12.694864,20.5601346,1.6826364,38.6670321-24.8035346,55.4158835-12.6868545-20.5503585-1.4868202-38.8268632,24.8035346-55.4158835ZM1900.3782059,1852.0968393c-24.9907-44.1429983,23.5608841-69.3962848,54.4051062-62.1203833,17.6766893,24.2876336-41.0808404,40.9925108-54.4051062,62.1203833ZM1766.3726376,1838.8761236c-25.8333838.4155574-51.2576707-2.1992664-76.5048323-7.6888865-24.9946381,24.7912256,29.1876218,6.4105422,34.4969,42.1056924-38.5263462,18.804208-16.073694,43.4770832-54.6003338,62.2809328-44.9711253-22.1855002-120.1929107-28.6872404-54.6898044-131.0250691,68.4570037-7.578137,133.5218098,18.0943285,204.0010641-8.8518644,14.3930646,17.5676641,28.7060342,35.0375671,43.0990988,52.6052312-20.7665602,61.5198413-132.8769256,100.7286988-139.707365,44.0925075,16.0728078-.2441994,31.4896157,6.1093432,46.8136843,14.3039943,30.6927907-19.4116701-58.1879726-50.7811813-2.9084117-67.8225381ZM1414.9742349,1581.73099c28.0672036-22.9952641,56.1344072-45.9905281,84.2016108-68.9857922-21.7175747-8.2010684-46.2267404,12.516311-69.7118692,22.0199274-11.6080364-42.9843537,6.6637408-83.0008017,40.9167659-121.4388429,18.7143361,38.4365939,43.4770102,16.0743351,62.2008368,54.5025709-9.8246782,40.5950468-21.6068885,174.2226279-91.7126432,145.5082904,10.2351449-5.0362454,19.1818329,1.9951008,29.601277-6.7048594-14.6708257-44.7883248-40.5495353,19.8246017-55.4959781-24.9012942ZM1391.0649784,1531.1306357c8.5274888-55.0209118-2.4446457,55.4458194,0,0h0ZM1370.0016111,1550.609705c.1955221-.1601899-.8426313.5269796-3.2568647,1.8677532-1.8727753,1.2239253-3.1767697,1.9655143-7.1881613,4.4677843-48.6991301,29.3606984-6.6193805,3.9854479,7.1881613-4.4677843,2.4142334-1.3407735,3.4523868-2.0279431,3.2568647-1.8677532ZM1353.7653178,1420.9524637c-23.8605573-20.169452-57.1360756,56.0749652-76.6104834-7.438945,43.4100498-46.7245628,74.8156067,25.5091179,118.6184158-26.9778609,28.5504954,48.0891208-7.8699337,174.6171956-75.5994119,79.485331,25.6334954-13.5020958,22.0087303-29.9911844,33.5914795-45.0685251ZM951.7647933,1187.7343732c19.8007605-14.0006255,11.6682283-30.9464427,33.477819-44.8283597,14.3129696,17.469903,28.7060342,35.0375671,43.0990988,52.6052312-25.3189544-5.5772478-53.8925779,23.4205976-76.5769178-7.7768715ZM907.7440936,1241.510868c32.6222223,53.836659-70.5520625,43.5885514,0,0h0ZM940.2541828,1109.4122963c34.831907,32.404064-52.0865306,52.8855256-37.395936,83.2800104-56.604073,2.98098-1.55502-63.8174961,37.395936-83.2800104ZM835.0437177,1195.6104962c8.6075838-54.9231508-2.444932,55.44547,0,0h0ZM1104.6672018,1009.8043777c26.9630717-11.879262,52.1410428-5.6963606,78.5175997-11.6708024,30.0117437,28.8539421-16.3834643,50.1185253-26.736207,74.8733334-25.4311681-1.8255481-55.0743134-38.0069197-51.7813927-63.202531ZM1412.5920423,827.8924663c6.8239033,13.3942483-14.9503809,24.208328-3.7243615,38.3092464-32.7719397,19.1871911-27.7111967-32.6666755,3.7243615-38.3092464ZM1040.7385904,1167.8073077c.3552573-35.4019187-11.9773586-12.684778-34.4969-42.1056924,2.4838808-22.2944329,27.4575973-42.4447982,54.5202388-62.3786939-.2030768,35.5876647,11.7847551,72.0359884-20.0233388,104.4843862ZM1097.1561694,1086.3268759c13.5497103-8.3890367,24.5113613,11.9899606,36.3862307,22.9941784-36.9702723,15.6183208-15.1685139,37.1635397-44.0910186,53.6707242-16.8246022-27.5351075,13.3335706-50.3313489,7.7047879-76.6649026ZM1238.752865,1023.1228544c22.4098025-33.0313601,39.4310444-7.5694975,61.1096703-32.5194662-5.5595824,25.1410984,23.4205964,53.892577-7.5911274,76.4247372-16.52485-28.7446481-37.9726473-7.0227067-53.5185429-43.905271ZM1343.9633301,936.9246546c13.9407288-11.4215418,28.0672036-22.9952641,42.0079324-34.4168059,5.7107708,6.9703642,11.4215415,13.9407284,17.2043978,20.9990776-13.9407288,11.4215418-28.0672036,22.9952641-42.0079324,34.4168059-5.7828562-7.0583492-11.493627-14.0287134-17.2043978-20.9990776ZM1307.66657,1107.2364781c-13.9458188,21.1469596-39.2654713,41.2539832-35.4885397,64.1706047-71.7584813-7.7386256-42.6189854-87.4559175-45.8220445-120.5802914,28.6349408,3.0238656,54.6660165,32.443333,81.3105842,56.4096867ZM1618.2068199,799.9915167c18.4651029-23.4281514,32.4094483-1.3429441,47.0893014,14.2415655-16.8192189,5.953856-32.6049447,4.2152593-47.0893014-14.2415655ZM1435.77522,984.7143566c32.4347096,54.0066251-70.7395751,43.7585174,0,0h0ZM1214.8547509,1165.7129554c11.5016365,14.0384895,22.923178,27.9792179,34.4969,42.1056924-22.6771067,35.8160292-39.81408,57.35548-45.9981349,72.7804716-35.014088-4.169385-8.461912-84.3325741,11.5012349-114.886164ZM1145.958711,1274.8176904c-6.7823142-19.9641856-56.7291841-44.3142973-32.5900637-61.2157815,41.7471556-46.7999296,88.5600895,37.2199121,32.5900637,61.2157815ZM1331.6559214,1157.9345935c62.4832856-7.4710132-22.4209644,43.9059951,0,0h0ZM1337.2776231,1100.5236092c37.4402165-22.0642603,21.4712094-49.3527335,65.0998728-70.8831319,47.144056,49.7650347,45.7441342,94.7801317,5.7031628,135.8852416-21.992174-37.3522308-49.3350671-21.6490641-70.8030357-65.0021097ZM1631.7046418,859.3016072c.9086355-8.2436869-1.2419275,12.5032791,0,0h0ZM1787.7112641,749.0343016c.1007624-1.8313158.1263185-2.1790184.0574207-1.4853799.0688978-.6936385.0433417-.345936-.0574207,1.4853799-.2181706,1.2891742-.10451,1.0490089-.1734079,1.7426474.0688978-.6936385-.0447627-.4534731.1734079-1.7426474ZM1482.32451,1002.5843046c-.0353322.3557121.0335656-.3379265.0800692-2.6143642.2210783-.5078925.1955221-.1601899.184605-.9512478.0109171.7910579.0364733.4433553-.184605.9512478-.0465036,2.2764377-.1154014,2.9700762-.0800692,2.6143642ZM1636.5824791,908.1103924c55.0468686,8.3597505-55.4197946-2.6130105,0,0h0ZM1907.3149153,809.3280775c-19.3330479,12.6371379-36.026058-54.1025963-2.9982828-67.9122897,8.6021989,10.4995388,17.2043978,20.9990776,25.8866916,31.5963775-24.7742571.5117779-34.8911069,9.6010158-22.8884088,36.3159122ZM1831.7155034,888.8134085c-27.6026786,20.850153-56.9814297-18.8971723-53.608414-43.9950226,27.5946691-20.8599291,56.9716536,18.9051818,53.608414,43.9950226ZM1629.8967722,1071.7093471c-33.6863874-38.7832112-25.6850874-73.4077018,1.0016959-106.2839649,33.7584729,38.8711962,25.6753113,73.4157113-1.0016959,106.2839649ZM1831.0882709,1381.5491873c10.5093152-8.6102086,21.0088542-17.2124077,31.5083933-25.8146068,40.5675625,17.9672957-21.8724338,69.123949-31.5083933,25.8146068ZM1986.9088672,1271.4337204c18.6335439,14.5672777,8.2508789,26.4230601-3.7946804,38.2034758-5.3662816-10.4385568-12.1476186-6.6308455-19.111514-1.8893302-8.3713703-13.727566,12.0156369-24.6794414,22.9061944-36.3141456ZM1855.0055368,1432.1593177c-22.9321795,3.9367225-44.1975589-7.9999134-64.0260915-35.312848,26.4866008-39.7213563,43.1658011,19.2042526,64.0260915,35.312848ZM2017.6110868,1351.7428885c26.008946,25.1248974,13.7960498,46.45264-16.1209503,66.0135378-14.3853455-17.5582425-28.7784101-35.1259065-43.0910904-52.5954564,23.3368387-40.8338086,35.8571272,27.4136074,59.2120408-13.4180814ZM2072.3011831,1482.768314c-11.3288006-15.781835-22.6846319-31.1978254-36.3945321-23.0043108-21.2890534-31.0498973,19.5122579-56.0312614,18.0909569-85.0265818,41.5033919,1.5806358,61.7623005,82.7833053,18.3035753,108.0308926ZM2231.0107473,1247.2747975c13.6220864-8.3006969,24.4312663,11.8921995,36.3159118,22.8884078-13.8253274,8.4514656-24.6971073-11.8377802-36.3159118-22.8884078ZM1899.2870394,1765.0748023c-9.8816284-27.6357624-3.4995868-68.9230009,35.3030737-64.0180826,9.8816284,27.6357624,3.6853328,68.7708205-35.3030737,64.0180826ZM1857.279107,1799.4916081c54.336636,14.5124026-56.1217366,3.5497608,0,0h0ZM1777.8741645,1723.990316c-16.1356219-40.7132944,37.9188841-10.9706523,50.6098393-23.9176234,16.0454588,40.6231864-39.3531459,24.4157451-50.6098393,23.9176234ZM1752.8748157,1779.5660331c-20.6805999-21.3533428-18.782968-40.4547246,5.8893093-57.4831892-3.2863839,18.9817279,28.3167551,41.5819636-5.8893093,57.4831892ZM1756.5800255,1548.0565554c-32.7405447,38.3098764-58.9011175,10.287815-90.7910423,39.1265645-68.2568455-87.2005481,45.8253018-126.7347542-.2129073-193.057827,28.8528314,1.7343496,59.1192972-11.5769781,89.0171388-20.2730015,18.2244974,29.2637119,17.4324145,143.2019551-20.1034338,104.3866252-8.193179,21.5477283,12.6846791,46.2527684,22.0902446,69.8176389ZM1723.174292,1592.9729c4.8681652,10.2094691-1.8973402,19.1017379,6.7048587,29.6012767-10.2351449,5.0362454-19.1017379-1.8973397-29.601277,6.7048594-5.0539113-10.0572887,1.8973402-19.1017379-6.7048587-29.6012767,10.0396227-4.8760555,19.1017379,1.8973397,29.601277-6.7048594ZM1794.7932775,1551.8432253c17.206595-45.2052354,84.7087537-48.5046931,56.497674-81.3826707,13.5640951-6.8160136,24.1826521,15.1184602,38.2034759,3.7946794,8.1841775,10.3682121-6.0591714,18.688351-12.3968793,27.703937-11.0059847,11.8926552,6.9339206,26.3910351,15.395162,40.2083527-33.0760581,7.1500033-67.9822994,35.4380169-97.6994326,9.6757016ZM1954.5943001,1403.3721021c25.3873929,25.1439845,46.5402886,49.7858885,2.8027606,68.0724796-25.3951121-25.1534062-33.0677538-48.5374923-2.8027606-68.0724796ZM1885.7801323,1512.5568253c.7929179-7.9860904-1.2342085,12.5127007,0,0h0ZM1872.3895683,1646.5545052c-11.7154794,47.2410997-81.7112168,31.523549-120.4103968,45.8293009,14.3342089-33.9143035-6.8489001-71.4555883,39.090035-102.23098,27.3783639,16.6658923,55.7124485,22.8123701,81.3203619,56.4016791ZM1932.5935262,1526.8604652c8.5354983-55.0111357-2.4271464,55.4472366,0,0h0ZM2006.121049,1467.4204521c-.4487192,4.5175432-.1699402,2.5246126,0,0-.0465294-.4356875.1056511-.2499415.1745489-.94358.3542652-3.4762021.1377957-1.3872771-.1745489.94358ZM1888.6882536,1580.3790089c5.7911572,7.068481,11.5016365,14.0384895,17.2844927,21.0968387-10.4995391,8.6021991-20.9990781,17.2043982-31.6941393,25.9667872-8.6822938-10.5972999-17.2844927-21.0968387-25.8866916-31.5963775,14.5642879-16.8823099,26.2723268-4.9250912,40.2963382-15.4672484ZM1916.4722854,1592.8736485c65.0847634-.0281823-2.8534713,61.547579,0,0h0ZM1847.5857417,1701.9700323c54.0617427-8.3973146,21.8752734,80.8423488-16.1132313,66.0229595-28.3651884-25.2688076,31.0058849-42.002548,16.1132313-66.0229595ZM1987.2931067,1657.8775248c-26.2575389,36.5111146-46.0025003,10.0779168-69.9154008,22.1703412-24.1592659-45.4613775,46.5006175-59.3046556,69.9154008-22.1703412ZM2073.3920576,1569.7899947c4.9633164,32.9396832-14.2718776,92.4200501-47.8954751,91.8822095,3.9483334-31.7940702,12.3341151-63.2371823,47.8954751-91.8822095ZM1946.09164,1586.1709121c17.7996222-16.8220395,32.6991066-5.2569567,50.6098393-23.9176234,22.5648391,18.209049,15.7669481,33.6625466,23.9875848,50.715901-28.9293097,31.6746384-52.0623689,4.9947126-74.5974241-26.7982775ZM1972.7041183,1511.5453972c35.6641432-33.2059121,67.4296418-29.8707671,95.8020924,9.4260363-31.9960613-2.8188871-68.6730443,42.3921877-95.8020924-9.4260363ZM1886.5139301,1406.3447109c47.5307349-13.2579-19.3586306,59.7285418,0,0h0ZM1777.5888797,1530.8441477c-5.3976766-29.5612421,13.1716306-56.7508694,18.1963175-85.2768778,16.2164435-37.8587188,29.169593,67.5302978-18.1963175,85.2768778ZM1805.1935698,1349.9430337c-19.1983617-30.8512134-1.4125641-58.19949,18.2861886-85.1871262,18.6520267,38.3405995,42.0602482,29.5208456,62.2008368,54.5025709-28.5414789,27.8605099-52.0078558,2.728051-80.4870254,30.6845553ZM1766.9900939,1346.1483543c-21.5989857-10.3895212-49.5950959,44.6194444-67.9026335,2.8106523,13.9407288-11.4215418,28.0672036-22.9952641,42.0079324-34.4168059,8.6822938,10.5972999,17.2925022,21.1066148,25.8947011,31.6061536ZM1742.992733,1295.4404629c10.5463547-8.1661621,18.776742,6.1670578,27.7840318,12.4946396-10.3502595,8.0066716-18.5729238-6.3171219-27.7840318-12.4946396ZM1569.1713414,1490.6726177c-36.2369697-32.5436263,16.0262796-56.3775171-20.2026805-88.9113673,28.964642-32.0303505,50.8333793,5.5700552,78.3140681-11.5203886,10.0671063,36.4371524-21.553475,68.7155842-58.1113875,100.4317558ZM1567.0784791,1509.9345455c-10.3505463,8.0063216-18.5907094-6.3188885-27.7119463-12.4066546,10.5443018-8.148726,18.6865844,6.0769565,27.7119463,12.4066546ZM1536.5717816,1429.4651874c-25.6490587-.5360321-56.9139529-20.3902199-53.5986379-44.0030321,25.951947-5.3161354,57.2969361,14.6358135,53.5986379,44.0030321ZM1526.8784163,1331.9436115c32.4267001,53.9968489-70.4719675,43.6863124,0,0h0ZM1554.5823531,1344.34049c16.9879806-20.9435734,54.5328295,35.4116427,15.395162,40.2083527-16.9881501-14.4933293-4.9428761-26.2740932-15.395162-40.2083527ZM1558.3770335,1306.1370143c36.4057321-31.9019177,6.2774084-70.2508883,58.3166858-100.5999553,44.7103478,59.258203,44.894378,114.0038852,12.496126,165.5940554-25.6264045-1.6650093-47.7021211-37.1848483-70.8128118-64.9941002ZM1635.7954572,1207.4343987c-5.7027613-6.9605881-11.413532-13.9309523-17.2043978-20.9990776,10.4995391-8.6021991,20.9990781-17.2043982,31.4986172-25.8065973,7.7145108,16.8144905-4.9876239,31.6821773,4.8876135,48.8007757-7.4046051,9.2688346-13.2885037,4.0414595-19.1818329-1.9951008ZM1455.0656753,1373.2156906c-24.0665269-41.0606825,12.2947002-76.1278525-7.6903741-116.8732552,16.828995-5.9618655,32.6049447-4.2152593,46.9035553,14.3937459,24.2014298-16.8054898-25.8175256-41.2435864-32.5995598-61.2074303,30.1121155-43.4922885,51.4069562,1.6037462,80.4069304-30.7823164,21.7403714,89.2526945-57.3211252,129.4545273-87.0205518,194.469256ZM1422.6696471,1311.8578465c-13.5721046,6.8062375-24.3959599-14.9600368-38.4871025-3.7420267-14.6905946-30.3944848,20.5518324-55.9190219,37.3861599-83.2720009,22.152658,31.3063078-10.8231074,56.8853579,1.1009426,87.0140276ZM1733.2101796,1004.61323c31.6473274-26.4028197,56.41869,15.5181602,83.1996323,37.2978278-32.5223701,37.0207071-57.3741117-4.9983806-83.1996323-37.2978278ZM1608.8976941,1088.9137453c47.5307349-13.2579-19.6262382,59.8007468,0,0h0ZM1537.2787086,1130.04342c-11.5016365-14.0384895-22.9952635-28.0672029-34.4969-42.1056924,15.6837179-11.248414,31.1974698-22.6843406,22.9061944-36.3141456,31.5509596-8.6126471,33.6199276,60.5184941,11.5907055,78.419838ZM1475.9832923,1162.7150666c-8.4882443-16.9811494,19.1460717-30.3743128,33.58347-45.0783012,38.3673082,40.2090759-17.4154705,23.5327254-33.58347,45.0783012ZM1305.8587005,1319.6442179c-1.8800094-16.3337464,15.1364209-30.6019536-4.8858469-48.8185613,39.4122934-22.3892489,49.4421908,27.6227822,4.8858469,48.8185613ZM1395.6740034,1193.2376654c5.3608976,26.4054199-13.7513145,50.200361-45.9002543,72.8799993-22.9682605-24.9033711-43.7657344-49.5102972-21.9044986-69.9698193,26.0074779-36.7963883,44.0523237,9.3781101,67.8047529-2.91018ZM1269.4644603,1296.6402635c32.03035,28.964641-5.4098666,51.0289013,11.4052421,78.5723633-21.5858756,23.1088735-36.5131118-20.8158467-57.3152725-5.6843545-20.9045718-27.8685189,18.1985389-49.8574125,45.9100304-72.8880088ZM1365.0713132,1306.2268346c22.6668047,25.3131576,46.3411505,16.4393301,43.0988163,52.6048862-30.2199364,13.7470152-60.4542576,25.9210074-87.0043714.9133126,29.0025996-16.4094235,7.1925542-37.9647573,43.9055552-53.5181988ZM1609.2721575,1475.3655592c79.1559756,10.9247779-48.9552537,79.6804806,11.6004817,78.4118285,4.9647632,36.4512175-69.1748039,55.4000522-89.0972337,20.1752404,29.3948716-54.0794198,80.5115903-48.5623679,77.4967521-98.5870689ZM1473.4587196,1674.5525833c14.5834967,27.132892,12.2244994,52.6906844-7.5813513,76.4167277-18.8857747-44.8477662-55.8667979-52.9933299,7.5813513-76.4167277ZM1557.6701065,1605.5587816c13.2141961,9.9069168,74.923774,4.98137,53.5989273,44.0033852,34.5740544,23.5143359-4.1766712-37.4236614,33.3253492-45.0144589,39.6686773,23.4908479,83.7964702,78.1293993-.7337978,106.2121144,15.9589656,79.46408,32.0754075-26.2791576,86.923986-1.0114282,9.7532633,29.8322247,4.7285764,58.3582331-37.1217936,83.2357235-10.883269-21.0810017-24.477742-13.1454381-38.2918723-3.9025729,14.9503809-24.208328-57.9956897-57.1472452-11.5103201-78.3217224-27.3994366-28.7564418-84.0244054-18.4224762-81.3927362-56.4900167-26.5128799,13.5853784-7.6921432,31.51201,4.895623,48.8105518-16.9923468,7.6968451-31.7876013-4.9175882-48.9786321,4.8699485-14.656735-36.9738565,13.8353467-69.5809973,39.2852667-102.3915244ZM1575.9656707,1713.5798963c43.6140871,37.6592103-1.7671516,97.1735117,44.996439,33.5034933,20.674063,27.5672262-19.2320063,60.2619904-42.1936784,34.5689863-10.8181814,11.723044,6.8538257,26.293274,15.2972815,40.108825-23.8905062,13.6752236-31.0358072,29.1035223-14.2141245,46.903436-97.7953325-42.2503182-105.7786022-167.6572363-3.8859176-155.0847405ZM1956.6901338,1770.8663491c-29.9494344-28.7579476,16.4457737-50.0225308,26.7985164-74.777339,20.8169487,16.4545314,45.6258666-5.4723886,64.1079531,35.3928235-51.2930274,44.9001496-53.7786225-32.5168395-90.9064695,39.3845155ZM2268.1328328,1164.0394303c47.6303047-21.3125336,102.4168118,47.8911318,49.7941814,82.2145174,3.4964524-25.3460252-26.8710034-54.2352994-49.7941814-82.2145174ZM2170.6271558,1173.5727276c19.8390122-4.6211436,37.9379503,6.5615775,55.4977447,24.8835086-23.0118455,36.5640871-37.8698944-8.0539183-55.4977447-24.8835086ZM2218.3288753,1081.8329224c16.9706498,14.4919109,4.9250905,26.2723266,15.3150671,40.1105916-16.9959901,20.9337973-54.4705202-35.3156482-15.3150671-40.1105916ZM2001.3905992,1224.4580795c-1.233918,12.5130552.7131134-8.0834969,0,0h0ZM1719.997068,1138.4486065c-30.5787837-31.1015165,14.7310443-75.8861729,45.8026127-72.6202817,16.9804259,14.4839014,4.9348666,26.2643171,15.3871525,40.1985766-19.4927564,1.1351654-39.6664817,9.2164922-61.1897653,32.4217051ZM1766.8013766,959.54436c48.257524,12.1576882,77.8300425-3.935008,100.4140888,58.2892408-39.8440024,44.4564543-68.2301116-25.6273194-100.4140888-58.2892408ZM1973.222328,825.5196355c.8029844-7.9937454-1.1618326,12.6010402,0,0h0ZM1897.6135404,711.7967256c7.3001068.7340864-14.7044312-40.9207366-15.3868725-40.1982348,14.3779708-16.7308264,61.4319134,44.6101524,15.3868725,40.1982348ZM1869.0135588,805.4338705c-41.1046543-4.6037193-41.2219307-87.3261295-45.9995011-120.4179932,61.6835404,6.7286061,32.5345468,86.4542475,45.9995011,120.4179932ZM1747.4146459,764.5012083c-27.2949427,16.9382633-49.4295211-20.607723-78.4021725,11.4128514-14.4666227-23.8793086,11.5564444-43.9254439-2.9181878-67.8145286,28.6527264,3.0256322,54.8615387,32.2831431,81.3203603,56.4016772ZM1643.2058767,744.4154433c-56.616717-1.321954-67.2742487-59.1195901-28.8849744-99.5086671,22.0274805,34.2843935,27.000851,67.2164066,28.8849744,99.5086671ZM1502.4073452,701.4859137c28.765958-29.9396588,50.0384302,16.2857019,74.8733331,26.736205-26.8364732,9.7005854-51.0624671-5.0719388-74.8733331-26.736205ZM1409.7892816,759.8199867c47.2648939-13.2034806-19.6164621,59.7927373,0,0h0ZM1206.1533053,961.9154242c-15.7766992,18.5134147-66.9686834-43.570868-23.9795753-50.7061249-.5468422,16.0837112,8.1992336,33.0006652,23.9795753,50.7061249ZM1268.2646714,823.1119931c25.9285607,25.0267819.2614819,45.1085865-16.3790723,66.0773788-3.4307156-22.8729381-11.4492932-46.3003659,16.3790723-66.0773788ZM1013.7607323,1049.1888932c-5.2508544-10.6965078-12.145852-6.6486311-19.1097474-1.9071158-8.4434558-13.815551,12.0156369-24.6794414,23.0919405-36.466326,18.4477979,14.7194581,8.0553567,26.58325-3.982193,38.3734418ZM1032.0469209,964.001767c14.1264748-11.5737222,28.0672036-22.9952641,42.0079324-34.4168059,30.4409881,32.4887936-15.3175591,81.7909932-42.0079324,34.4168059ZM939.1535149,1022.3986041c47.5402362-13.2662448-19.6247464,59.7826258,0,0h0ZM1014.7544187,942.8951522c-18.4149295-38.8289398,14.4028166-84.0641237,50.6184155-23.9071556-16.0036165-.4490809-32.9129553,8.1268136-50.6184155,23.9071556ZM905.8373778,1067.404365c5.6306758,6.8726031,11.413532,13.9309523,17.2043978,20.9990776-7.0681255,5.7908659-14.1362509,11.5817317-21.0088542,17.2124077-5.7908657-7.0681253-11.573722-14.1264745-17.2043978-20.9990776,6.8726033-5.6306759,13.9407288-11.4215418,21.0088542-17.2124077ZM1294.9655462,748.5943718c5.9715217,16.6413627,4.3130196,32.5248494-14.2942194,46.8056749-6.0613928-16.7311142-4.3931145-32.6226105,14.2942194-46.8056749ZM1298.6818983,710.2753493c10.5443018-8.148726,18.7764554,6.166708,27.7920413,12.5044157-10.4306412,7.9085606-18.6530188-6.4148829-27.7920413-12.5044157ZM1170.5735231,832.7978062c-17.0680754,20.8458124-54.5411138-35.4217541-15.3856607-40.2166975,16.9786593,14.501687,4.9331,26.2821027,15.3856607,40.2166975ZM1167.5847417,764.8771717c51.6385344-21.8843019-31.4192718,46.1643792,0,0h0ZM1100.7732747,854.7098611c-7.0583494,5.7828564-14.1264748,11.5737222-20.9990781,17.2043982-5.7027613-6.9605881-11.413532-13.9309523-17.2043978-20.9990776,6.8726033-5.6306759,13.9407288-11.4215418,20.9990781-17.2043982,5.7908657,7.0681253,11.5016365,14.0384895,17.2043978,20.9990776ZM953.3691313,975.4770472c-6.8726033,5.6306759-13.9407288,11.4215418-20.9990781,17.2043982-5.7027613-6.9605881-11.413532-13.9309523-17.2043978-20.9990776,7.0583494-5.7828564,14.1264748-11.5737222,20.9990781-17.2043982,5.7908657,7.0681253,11.5016365,14.0384895,17.2043978,20.9990776ZM785.1516558,1113.2964512c-19.0187236,7.9356153-6.3610934-10.0973232-17.2043978-20.9990776,15.3647849-8.1279239,27.8273735,12.1487036,17.2043978,20.9990776ZM724.0419854,1145.8159173c6.0516167,16.7391237,4.1174974,32.6850394-14.4096466,47.0636259-5.9715217-16.6413627-4.199359-32.7650148,14.4096466-47.0636259ZM858.8537275,1052.9128581c18.5293397,18.3287535,1.084637,102.1898274-24.9009014,55.6759364,44.8937017-14.9211036-19.91298-40.6574071,24.9009014-55.6759364ZM811.1264518,1145.0003658c-19.186923,7.7303171-6.5212833-10.2928454-17.2925022-21.1066148,15.2926994-8.2159089,27.8273735,12.1487036,17.2925022,21.1066148ZM644.7264963,1263.6206061c9.7179761,26.6582814-5.0722149,51.0621316-26.8068006,74.7672275-44.9236494-50.1458744-13.3556599-47.4506393,26.8068006-74.7672275ZM704.0186466,1250.3003036c24.7879446-22.7103101,49.3772053-43.3299284,71.8047315-41.2818552,9.4874223,29.886644,4.4627354,58.4126524-37.3879265,83.2897865-11.4215415-13.9407284-22.9952635-28.0672029-34.416805-42.0079313ZM758.6286334,1381.2279502c-21.0690029,38.157719-33.2757433,32.2125026-71.7952328,41.2735071-6.4470272-29.6654722-3.7690968-58.3437546-.9054204-87.1742175,27.8605101-20.9143485,49.6715468,18.1710954,72.7006532,45.9007103ZM842.6444981,1312.3943384c13.82505-8.4518041,24.6968299,11.8374416,36.5814754,22.8336499-14.6440918,16.784904-26.2740935,4.9428768-40.2963382,15.4672484-6.7182523-13.6441898,15.1361269-24.3605084,3.7148628-38.3008983ZM1026.444371,1214.6129826c11.5683379,30.0933375-55.7246893,52.3535239-75.609188,79.4933405-30.1052314-62.4504428,23.0583757-85.5842261,75.609188-79.4933405ZM885.7433196,1364.9992311c18.6111754,15.6966037-43.4731088,66.8885892-50.6181407,23.907491,16.0837113.5468418,33.1082027-8.2873389,50.6181407-23.907491ZM1117.1633278,1175.3984331c24.6545152-8.0763047,42.1915078-15.1083745,42.1936784-34.5689863,24.6642921-57.5401408,10.1002154,99.5736282-42.1936784,34.5689863ZM1018.8532436,1291.0377198c21.5293125,28.6310553-28.9909743,99.3817752-47.8073706,91.9897467-27.3187572-34.8997715,29.3451614-61.5385266,47.8073706-91.9897467ZM878.2242777,1441.5119532c-10.3505463,8.0063216-18.5729238-6.3171219-27.7840318-12.4946396,10.6261634-8.0687505,18.7764554,6.166708,27.7840318,12.4946396ZM1081.8602541,1239.4165157c24.8821295,34.6577458,70.3514351,71.450497,67.0964597,103.3131226-39.4753782,39.84115-75.3837169,45.488475-111.9233332,56.5871471,10.095929-53.904204,3.0458324-109.2330937,44.8268734-159.9002697ZM1285.665796,1230.7248412c31.1843313,40.0167914-40.4251332,34.3944116-24.8035346,55.4158835-51.3913928,12.4343817-1.5106613-43.9211968,24.8035346-55.4158835ZM1202.5553518,1386.7326704c-13.8253274,8.4514656-24.5015852-11.9979701-36.3942402-23.0039545,13.8155513-8.4434561,24.5015852,11.9979701,36.3942402,23.0039545ZM1230.2592886,1399.1295489c5.5564197,26.2452299,10.4815102,52.5175565-26.6207798,74.6153824,41.2889947,12.6060463,29.9136998-50.3551673,69.7198787-22.0101513-6.398597,59.1748271-88.8501188,57.4690215-126.2095431,103.4025981-3.5436523-45.6049188.8728751-90.068927,13.3985751-133.9879019,25.8553232-34.2700091,43.856546,12.2500817,69.7118692-22.0199274ZM1031.4388402,1649.9377771c5.7110544,6.9707104,11.493627,14.0287134,17.2043978,20.9990776-7.0681255,5.7908659-13.9407288,11.4215418-20.9990781,17.2043982-5.7107708-6.9703642-11.4933434-14.0283672-17.2043978-20.9990776,7.0583494-5.7828564,13.9309527-11.4135323,20.9990781-17.2043982ZM1246.7567594,1719.5503939c-13.4703375-67.4527092,28.743101-60.7179146,77.4967521-98.5870689,23.024462,63.9383747-11.273594,110.8765132-77.4967521,98.5870689ZM1364.3641036,1605.648257c38.730575,4.8169334,30.3696248,108.3403156-20.1034338,104.3866252.2831718-35.4899036-11.7847551-72.0359884,20.1034338-104.3866252ZM1421.7574219,1611.4478133c8.6021989,10.4995388,17.2043978,20.9990776,25.8065966,31.4986164-13.9309527,11.4135323-28.0672036,22.9952641-41.9981563,34.4087964-3.4307156-22.8729381-11.6448154-46.140176,16.1915596-65.9074128ZM1317.63989,1784.6502647c-10.6261634,8.0687505-18.7684459-6.1569319-27.7840318-12.4946396,10.5443018-8.148726,18.7666793,6.1747175,27.7840318,12.4946396ZM1372.1604166,1722.2719221c10.0249493,43.0063967,1.487282,18.5664911,29.6810841-6.6074496,11.5019248,14.0388414,23.003273,28.076979,34.416805,42.0079313-35.8737095,37.2176822-66.4196723,19.7964621-99.5086683,28.8849767-17.3292813-24.2624371,8.0001473-44.3774701,35.4107792-64.2854584ZM1350.1673643,1845.76971c46.3959319-44.2367293,87.7762033-39.6954389,129.1900403-35.492075-32.2392186,48.2745123-3.9732189,102.6570292-53.5091673,149.3029698-1.1734616-14.6736846-2.6133464-29.2936604-17.2043978-20.9990776-12.694864-20.5601346-1.4868202-38.8268632,24.7958156-55.4253051-11.804841-10.8988017-26.3656502,6.7654868-40.1812015,15.2089429-14.3129696-17.469903-28.7060342-35.0375671-43.0910893-52.5954551ZM1379.0425626,1945.2863866c-1.2419275,12.5032791.7131134-8.0834969,0,0h0ZM1347.3484232,1971.2531738c7.6344159,16.7167294-4.997684,31.6898401,4.7977424,48.7110241-48.0963281,14.5218599-59.0338174-53.7479504-4.7977424-48.7110241ZM1506.1669018,2122.2662469c-17.5420826,16.7574876-32.6273131,5.3445853-50.6181407,23.907491-15.1137061-20.8003937,28.8110147-35.7276309,5.8973188-57.4734131,16.7856275-8.3280548,30.169308,19.3146289,44.7208219,33.5659221ZM1600.8778277,2044.6702461c47.1996135-28.4589195-69.2592652,42.0555628,0,0h0ZM1369.6435656,2234.1188636c54.336636,14.5124026-56.1297461,3.5399847,0,0h0ZM1653.5710452,2001.4990607c-16.4541847-78.9118987,84.607737-43.9615938,122.4952523-65.1010017,3.430421,22.8725786,11.4489987,46.3000063-16.3793668,66.0770193-24.0626421-16.5075038-48.8604974-26.5139506-78.321783,11.510972-8.3010517-13.6217958-17.6278554-16.8295965-27.7941025-12.4869896ZM1857.3685777,1992.7976101c19.5872628-46.2080825-75.0997697-7.5493243-23.9795753-50.7061249,22.3766041,35.1093587,52.27225-6.2940047,78.394163-11.4226275,17.6672077,24.2960027-40.8147048,40.938451-54.4145877,62.1287524ZM1791.38107,1976.5082911c64.8812318.1222315-2.9849175,61.7859778,0,0h0ZM1726.3532826,2047.4794079c-19.1085946,7.8458637-6.4411883-10.1950843-17.2844927-21.0968387,15.2829233-8.2078994,27.8273735,12.1487036,17.2844927,21.0968387ZM1866.7867264,1897.1653644c7.0583494-5.7828564,14.1264748-11.5737222,21.1946003-17.3645881,23.152534,18.5275311,1.3429433,32.4094481-14.4194227,47.0716354-4.9304746-10.3054636,2.0928623-19.2619278-6.7751775-29.7070473ZM1668.9581977,2041.6976373c16.7495973,17.7119287,5.1671433,32.7896298,23.9973609,50.7078915-17.5676645,14.393065-35.1353291,28.7861299-52.7029936,43.1791949-28.0924907-35.0664304-3.0235183-64.852102,28.7056327-93.8870864ZM1825.8699605,2018.6042074c4.2949916,44.1887785-68.3574605,46.2672046-92.8038096,58.4862534-4.2372909-45.6738166,68.9586303-53.3107659,92.8038096-58.4862534ZM1826.765902,2105.7867971c-28.849512,31.7720368-54.4696138,29.3170456-76.4953534-7.6972587,13.9309527-11.4135323,28.0672036-22.9952641,41.9981563-34.4087964,34.6999768,6.5180277,10.0810904,14.2389823,34.4971972,42.1060551ZM1864.1535313,2022.4966478c15.1105434,72.186722-54.3600231,65.2863412,0,0h0ZM2233.1880421,1808.0652702c3.9724716,22.7564536-21.3572548,42.8711229-35.2950642,64.0278587-21.2310587-38.7763806-46.3411498-16.4393293-43.0990988-52.6052312,27.9871086-23.0930251,50.1314631,14.4449517,78.394163-11.4226275ZM2607.1343563,1448.888501c47.3352127-13.09771-19.6262382,59.8007468,0,0h0ZM2176.8938998,1889.2975271c-20.20241,7.2885242-39.3733437,6.0844594-59.2203396,13.4079522-4.7011186-19.7571504,6.2232985-37.9712263,24.7237368-55.5132818,11.5013393,14.0381268,22.9949663,28.0668402,34.4966028,42.1053296ZM2094.5095343,1939.0838203c47.1996135-28.4589195-69.5348823,42.1179917,0,0h0ZM1917.7521692,2066.4996799c-35.327288-61.0469721,60.347134-31.8947255,82.2419612-49.9800487,8.5325514,31.4531982-61.8967974,48.3098942-82.2419612,49.9800487ZM2002.6896349,1891.2843422c.7932083-7.9857359-1.2419275,12.5032791,0,0h0ZM1564.8486753,2214.9098647c32.4347096,54.0066251-70.7395751,43.7585174,0,0h0ZM1718.7621553,2123.9041451c19.5490128.1100692,19.2806789,16.9126132,53.5986379,44.0030321-18.3085304,39.572751-76.9253442,15.1697185-63.2025326,51.781394-55.4580462-11.9924924-2.0845056-80.4571438,9.6038947-95.7844261ZM1635.4561888,2280.0721643c8.1841775,10.3682121-6.0591714,18.688351-12.3167843,27.8016981,15.0852305,11.4129023,33.3869559-12.9923947,50.7237918-24.1574325,8.6822938,10.5972999,17.2844927,21.0968387,25.8866916,31.5963775-14.1264748,11.5737222-28.0672036,22.9952641-42.1936784,34.5689863-24.3270363-12.9415501-49.0847342-24.0755523-72.7098548-45.8919996,18.2804807-22.4769246,33.7441116-15.6873361,50.6098341-23.9176298ZM1726.3706678,2240.6974249c51.6385344-21.8843019-31.4192718,46.1643792,0,0h0ZM1956.6424786,2085.5307111c1.9608797-1.1163882,3.833655-2.3403135,6.4336344-3.8332675,1.9608797-1.1163882,3.6384312-2.1797595,5.3236938-3.2337188,3.8333567-2.3406776,6.4333362-3.8336315,6.6288583-3.9938215-.1955221.1601899-2.7955016,1.6531439-6.6288583,3.9938215-1.4897405.8937694-1.6852626,1.0539593-3.8241772,2.3319399-.6568853.3747992-.8426313.5269796-1.4995166.9017789-2.5999794,1.492954-4.4727547,2.7168793-6.4336344,3.8332675-13.1684421,8.0766664-23.6134681,14.4122038,0,0ZM2306.8901138,1747.6816771c-9.6284056-29.2809905,31.8672938-74.4534776,65.0197779-70.980893,14.9651939,59.5456473-8.1454976,81.1922219-65.0197779,70.980893ZM2527.8105829,1566.6830783c5.9795312,16.6511388,4.1174974,32.6850394-14.2959861,46.8234605-6.0516167-16.7391237-4.3928169-32.6222473,14.2959861-46.8234605ZM2692.2316114,1467.0849358c-7.4768256-29.7857212-12.5285662-59.3036216-20.1929044-88.9193768,12.3258108-7.5496867,47.9477635,68.2549698,20.1929044,88.9193768ZM2091.7868686,1871.1091018c18.4159506,15.8571566-43.5882386,67.1469032-50.8056534,24.077457,17.7295953-16.9274537,32.6293768-5.3620084,50.8056534-24.077457ZM2022.9626342,1980.30148c2.6277578-15.8770178,14.3706969-30.7588364,33.3256385-45.0141057,4.7094258,19.7672899-6.4989156,38.0336551-24.7955251,55.4256596-18.7187289-4.9396209-37.0160872-16.7434221-53.5185429-43.905271,26.5915281-16.9991517,47.0542631,8.3558323,44.9884295,33.4937172ZM1982.7817232,1995.5107775c-14.573773,16.8906746-26.2740935,4.9428768-40.3058171,15.4756206-6.7087733-13.652562,15.1456059-24.3688807,3.8041593-38.211848,13.7354563-8.5412171,24.6890978,11.8280041,36.5016578,22.7362274ZM1906.1614637,1988.079842c51.5664489-21.9722869-31.6868795,46.2365842,0,0h0ZM2053.3798611,1867.4648362c3.6778064-41.4570591,7.0735103-71.2135554,54.5202388-62.3786939,21.7659799,44.8734159-24.8775194,22.6209202-54.5202388,62.3786939ZM2209.2033518,1714.9166114c.2756171-.0624289.6568853-.3747992.9147168-.4389947,5.1040839-2.743976,11.1211179-5.909161,17.1301425-9.0841221,2.6097555-1.5009635,3.5324818-1.9301821,6.861432-3.7099503,1.5698355-.7960083,2.4943283-1.2430125,3.7983228-1.9846014,1.561826-.8057844,2.8755965-1.5553828,3.7906096-1.9940158-.9150131.438633-2.2287837,1.1882314-3.7906096,1.9940158-2.8755965,1.5553828-6.861432,3.7099503-10.6597548,5.6945517-6.6659098,3.5497604-13.4119146,7.0017597-17.1301425,9.0841221-.2578315.0641955-.6390997.3765658-.9147168.4389947-4.1715815,2.3067479-6.8516559,3.7019408-7.313019,3.9165501.4613631-.2146093,3.1414375-1.6098022,7.313019-3.9165501ZM2446.4181371,1510.1934162c-.1377957,1.3872771-.3444891,3.4681926-.4854724,4.0738462.1409833-.6056536.3476768-2.6865691.4854724-4.0738462ZM2498.9256085,1467.1744112c-16.7975219-16.2349-4.3414951-41.9123408-25.8146061-31.5083925-8.4704587-16.9793828,19.1638573-30.3725462,33.5291702-45.1645196,36.0064351,29.5302083,13.7541807,53.0222355-7.714564,76.6729121ZM2178.6839838,1676.8880207c13.4311204,43.2552426-23.0262569,81.7347653-65.0918633,70.892908,1.4798823-28.1862745,29.9385587-74.474425,65.0918633-70.892908ZM2296.2192426,1562.8978988c7.4046051-9.2688346,13.2885037-4.0414595,19.1835995,1.9773152,5.7107708,6.9703642,11.5016365,14.0384895,17.2124073,21.0088537-17.8096902,16.8296926-32.7091747,5.2646099-50.8056534,24.077457-9.9556163-17.2167061,28.4570708-29.5389427,14.4096466-47.0636259ZM2359.2360292,1511.2686853c32.6222223,53.836659-70.4719675,43.6863124,0,0h0ZM2550.5374356,1336.9731792c51.6385344-21.8843019-31.614794,46.3245691,0,0h0ZM2012.1060169,1795.6698822c34.812458,43.268584-38.1786968,112.3171667-79.1282513,117.6343874-48.3650877-44.6147413,33.0396005-112.7467986,79.1282513-117.6343874ZM2188.1003658,1581.2735606c22.6673564-33.0958944,39.4230349-7.5792736,61.305487-32.6792966,15.8009945,15.776365-51.5670383,77.6691991-61.305487,32.6792966ZM2333.4326202,1480.5516924c.0255561-.3477026-.080095-.0977611-.0109026-.7910401.3441946-3.4685522.1375011-1.3876366.0109026.7910401-.4487192,4.5175432-.3654624,2.6848025,0,0ZM2391.7283327,1379.168347c-5.7551045,25.3012883-.9020994,51.4856299-26.6124758,74.6255181-25.7701122-28.3431537.7062827-51.3257995,26.6124758-74.6255181ZM2402.2278718,1370.5661479c-4.6210237-19.6593893,6.4989156-38.0336551,24.8035346-55.4158835,12.694864,20.5601346,1.6826364,38.6670321-24.8035346,55.4158835ZM2322.0164635,1401.1882744c-26.0086557-25.124543-.2531962-45.0984732,16.1933262-65.9251984,3.428949,22.8907237,11.4573027,46.310142-16.1933262,65.9251984ZM2492.1312792,1244.2671326c-55.4473047,2.8174829-12.0138686-74.2499973,0,0h0ZM2569.6297979,1145.6622781c-40.3637884-29.7834053-72.2292882-51.5472411-105.3094213-107.0994381,42.10038,19.4393612,92.5208014,61.8963732,105.3094213,107.0994381ZM2349.3539464,1027.1431151c23.136221,24.7494241,10.3198477,46.0983748,22.0822351,69.8078628-44.2858169,30.858768-18.0365549-46.1643788-57.3052138-5.6920191-17.3289922-24.2620842,7.9903712-44.3694606,35.2229787-64.1158436ZM2271.8380426,932.5299526c16.2027551,33.7956399,2.7918257,64.5693063,9.6933654,97.5215759-27.0882492,14.8573478-53.8897993-49.02481-51.7012977-63.10477,13.9407288-11.4215418,28.0672036-22.9952641,42.0079324-34.4168059ZM2164.7302374,1037.8298904c-10.3505463,8.0063216-18.5826999-6.3091124-27.7137129-12.388869,10.5460684-8.1665116,18.7684459,6.1569319,27.7137129,12.388869ZM2359.8263242,825.3309085c2.5420097,58.4014811-69.7371305-33.3296418,0,0h0ZM2294.929983,896.0636266c-19.194476-55.7538612-51.0315003-68.1302057-94.8003966-115.7100011-9.1959994-27.5766407,141.5667122,73.0819773,94.8003966,115.7100011ZM2033.6059195,899.2217053c26.7037668,31.4171004,62.8253093,64.2186777,20.21069,88.9211434-32.5328584-45.1525823-81.1781984-44.542226-20.21069-88.9211434ZM1992.6989297,1020.6525387c-30.9781323,24.906359-73.7465486-38.9811862-71.0786528-64.9396808,48.0069642-23.2059366,42.4797422,35.8758318,71.0786528,64.9396808ZM1990.5148302,846.6262502c23.0216216-36.5720966,37.87996,8.0462621,55.4176497,24.7857475-19.7571506,4.7011191-37.8477896-6.4714724-55.4176497-24.7857475ZM2083.3284159,788.1319874c10.5362923-8.1585021,18.7684459,6.1569319,27.7039368,12.3968785-10.5460684,8.1665116-18.688351-6.0591709-27.7039368-12.3968785ZM2186.6317646,721.0435349c-6.8246263-39.8779287,6.6922422-70.9011851-39.2946424-90.8167165,45.7480731-23.6099188,80.8664995,65.2203877,39.2946424,90.8167165ZM2103.2363276,683.9055521c-10.3505463,8.0063216-18.5729238-6.3171219-27.7039368-12.3968785,10.5460684-8.1665116,18.7684459,6.1569319,27.7039368,12.3968785ZM2058.2510857,651.1934584c-.0465294-.4356875-.080095-.0977611-.0111971-.7913996.3444891-3.4681926.1377957-1.3872771.0111971.7913996-.4487192,4.5175432-.3476768,2.6865691,0,0ZM1936.8267216,609.3172162c28.7391709,1.974515,55.774757,22.9083636,81.3025747,56.3999106-28.7391709-1.974515-55.774757-22.9083636-81.3025747-56.3999106ZM2064.1274313,592.9366552c-61.9566679,19.7997175-78.5832567-80.3413382-94.8003966-115.7100011,68.9028293-19.1187489,43.3786008,77.095981,94.8003966,115.7100011ZM1912.8293607,558.6093248c24.8283669-32.7914399,96.819969,81.1828583,0,0h0ZM1909.1147753,596.9105616c-1.2514241,12.5116297.7131134-8.0834969,0,0h0ZM1951.629155,460.2916466c.1489928-.5958775.1524327-2.5260399.4854724-4.0738462-.3330398,1.5478063-.3364796,3.4779687-.4854724,4.0738462ZM1863.1246499,669.7008093c-62.2824052-11.368165-66.0853616-63.132548-75.6185637-113.7149004,61.450542-20.0385814,79.7049721,80.5338942,75.6185637,113.7149004ZM1866.7497647,438.0935705c7.3721923.8220714-14.6326257-40.8330934-15.3150671-40.1105916,14.4583458-16.6327236,61.5042788,44.6984791,15.3150671,40.1105916ZM1840.2090798,512.806714c-30.7826102,24.746169-73.6409054-39.2311373-70.8929067-65.0918613,38.9217309-8.5899848,58.2964169,30.2537715,70.8929067,65.0918613ZM1755.997693,581.8005157c-62.9745711-5.2134032-146.1041663-91.8616319-148.4791294-159.8107943,60.482465-7.5799456,150.7288333,98.284069,148.4791294,159.8107943ZM1705.2980911,412.4117809c-45.8744034,16.835025-95.6506092-33.0118454-109.2901382-68.7441363,40.7998436-22.2511198,75.0929646,22.7167782,109.2901382,68.7441363ZM1448.7003556,270.9769787c.7929377-7.9860662-1.2519742,12.5109583,0,0h0ZM1141.4901809,153.4765685c9.160264-2.0806476,14.8106808-3.3601143,18.6486783-4.1197201.4613631-.2146093.7369802-.2770381.9948117-.3412336,8.0755812-1.8291656,6.0061289-1.2441344,0,0-.2578315.0641955-.7992896.1810437-.9948117.3412336-15.6895331,3.4440466-53.3666573,11.9777468-18.6486783,4.1197201ZM1085.9942028,128.5752743c11.260602,34.0052271-52.4602183,20.4825464-68.0082845,3.0605938,24.0828407-14.617037,43.9254438,11.5564432,68.0082845-3.0605938ZM1008.5775457,227.2601043c-44.0484515,21.4168573-83.688385-1.6400696-123.5861242-21.9206759,43.8543761-17.745133,85.9813265-21.625266,123.5861242,21.9206759ZM922.379348,122.0496419c43.6459418-12.9343066-18.8276201,38.5602731-29.6110531,6.7128689-42.3813831-.6979778,15.3997973-4.954316,29.6110531-6.7128689ZM710.875261,207.4337807c.980721-8.1557019-1.2419275,12.5032791,0,0h0ZM672.5836807,203.5315641c-10.2802274,8.1120922-18.5026049-6.2113513-27.7137129-12.388869,10.6261634-8.0687505,18.7684459,6.1569319,27.7137129,12.388869ZM310.1466109,447.8319455c20.9143479,27.8605094-18.08285,49.5997809-45.8026127,72.6202817-57.3792267-47.4409146,10.5932966-82.8709219,45.8026127-72.6202817ZM123.0993974,971.2373887c-.1266243-.5334486-.1601899-.1955221-.0912921-.8891607.3444891-3.4681926.1380615-1.3869526.0912921.8891607-.5288141,4.4197822-.4375478,2.5968176,0,0ZM113.5196378,1065.8747031c-1.1716087,12.6090497.7934752-7.9854102,0,0h0ZM206.4035424,1007.4862108c-1.233918,12.5130552.7131134-8.0834969,0,0h0ZM142.290606,1166.4407303c-.1168482-.5414581.0433417-.345936.1122395-1.0395745.3364796-3.4779687.1300546-1.3967255-.1122395,1.0395745-.5288141,4.4197822-.2322496,2.4286181,0,0ZM321.1198601,1018.9795528c51.6385344-21.8843019-31.614794,46.3245691,0,0h0ZM567.8469258,869.4795704c51.6385344-21.8843019-31.614794,46.3245691,0,0h0ZM324.1101334,1086.8820663c51.5486633-21.9740535-31.6948889,46.2268081,0,0h0ZM216.1863783,1298.3137886c-42.2394581,13.8732779-34.4063051-64.9880869,0,0h0ZM327.09864,1154.8023655c20.6805999,21.3533428,18.7835306,40.4554113-5.8875427,57.4654036,3.2125318-19.0519272-28.3179591-41.5634913,5.8875427-57.4654036ZM668.3313334,927.8745817c-20.8965623-27.8587428,18.2065484-49.8476364,45.9981349-72.7804716,41.0654364,29.8620792-29.4646841,48.5500797-45.9981349,72.7804716ZM838.6419419,770.7935803c51.5584397-21.9820627-31.6948887,46.2268084,0,0h0ZM508.7240663,1076.2033006c-25.9285607-25.0267819-13.7960498-46.45264,16.1933262-65.9251984,3.3586301,22.7849532,24.921828,47.548762-16.1933262,65.9251984ZM859.5512788,560.2828498c-7.7145108-16.8144905,4.917589-31.7876012-4.7977424-48.7110241-12.5256992-5.5368516-24.6603541-11.3940831-38.3013565-3.8942071-19.7827333,51.792523,20.0407506,41.9899294,60.3115061,73.6140849-28.1501922,15.8744343-125.2439299,67.1901926-79.3237734,117.7945773-98.0831396,38.4022542-119.9263217,49.9099724-157.7081603,129.2091953-18.2941706-11.0221777-37.4068369-13.710589-55.6834907-24.7313282-23.2431297,53.81069-28.2670928,59.3645523-82.126534,49.7220978-29.2665124,8.6689268-24.9849402,66.1026669,4.6200059,48.8729806,13.9518993,36.1135591-46.5636757,30.0128554-57.3132233-5.7017952-28.8088441,16.2670191-7.0068081,37.8125769-43.9070392,53.5363294-25.6450949-66.7581307-66.8187003,22.8191911-97.6095615,9.7654532-25.0123971-21.9542423.5042243-38.7099214-32.4939087-61.4573718-24.085762,13.8357387-31.2313294,29.2637123-14.4897416,46.9658648-13.4840001,6.9137747-24.1025572-15.0206991-38.2034759-3.7946794-5.7107708-6.9703642-11.4215415-13.9407284-17.2043978-20.9990776,46.5892576-27.6484328,13.4457751-63.0369579,28.5101105-93.7268964-39.662596-15.6861557-61.0894725,50.8507519-45.7225178,72.7180427-81.3079854,6.3106537-43.7822632-78.3664098-7.6903741-116.8732552-33.2296588-43.2909783-49.8721332-5.5733624-69.8976152,22.1721078,4.1603852-52.553974,16.8025044-128.6566165,72.6109052-147.4056301,21.5108821-39.1738426-48.2151037-27.6805087-32.5995598-61.2074303,75.9215051,14.3753303,18.8434516-33.4757157,65.0998728-70.8831319,22.174276,99.8928291-62.9471932,173.6187833,81.4018215,249.697903,183.4394548,96.5309935,457.7027684-247.19504,347.9361859-390.5249718-73.877771-96.793286-191.8999482-31.6966789-305.0258044,56.5262087,16.7562609-126.3798613,243.587504-111.6535203,235.206679-227.8140498-2.5970866,57.9718492,67.9938989,44.8222097,65.9251983,16.1933245,45.2630554,15.9011783,56.8136601,1.9611731,81.3826697,56.4976717,45.2467691-24.62063,30.548165-55.0248909,75.609188-79.4933405,33.2700552,30.4977232-3.8159226,95.8294827,60.3115061,73.6140849,12.7968718,33.5471453,5.0246337,64.9613942,28.7951033,99.4189156,16.5631025-11.3316966,57.3283577-12.9852025,99.3131462-28.7247868,16.6958347-49.7372571-52.1359003-48.0606332-70.7226753-64.9040247,72.6222385-17.689901,140.9933334,7.3317648,212.4074754,1.8075404-49.0818185-20.5821669-84.6370982-24.6343785-107.1970104-88.0057402,66.2090967-51.2226196,121.4767086,9.6143675,186.4326794-29.8963743-81.669753,1.1827546,32.300129-40.0240022,57.4831894,5.8893079-33.563727,27.972336,19.892026,33.6322365,30.6123485,80.2194166.7055853-19.3997234,36.1031121-35.0033206,5.6937872-57.3229993,58.6207262-38.2894187,106.213956,33.4414256,161.7976096,25.7251314-40.9643948,17.7627733-41.6991795,50.7471515,28.7247844,99.313145-7.2979354-69.6505247,113.2878679,91.1525237,63.2920033,141.5246079-8.4867975-13.469615-17.8133069-16.6770565-27.7039368-12.3968785,88.8688424,53.5502577,15.1411621,158.3131294,53.6881085,237.309034-119.5771715,3.9912363-63.6372154-164.5400957-53.6881085-237.309034-31.4452819-38.3809957-8.850011-71.5648751-18.2952921-108.0207825-61.8225155-17.8064349-2.9304295,56.8071918-45.998407,72.7801394,50.9910514,124.9550369-60.2627002,141.4387426-33.2361679,238.3201077-20.8724796,15.0257215-35.8077253-28.9087748-57.3933183-5.7995563-21.3313976-53.6757734,6.7557825-102.3716619-23.1831777-156.8218903-41.1974198,37.739287-6.5833725,83.0988964-60.0262401,119.5320606-20.1408618-24.9820588-43.4769978-16.0743199-62.20111-54.5029044,26.0154874-36.7866122,42.7159335,22.9227195,67.8225385-2.9084134-39.329304-19.9457479-51.8300927-44.1776068-30.7022196-80.3091682-128.7276851,3.3517492-319.6756553-86.3903791-404.5424823,85.4014092ZM757.3484722,907.6015802c30.1734063,35.2731238-13.4457751,63.0369579-47.8070985,91.9900788-57.4018673-46.3119207,10.3272093-80.1047095,47.8070985-91.9900788ZM620.63939,1019.6063774c.7932083-7.9857359-1.2416559,12.5036106,0,0h0ZM553.7222719,1109.6890082c17.3195051,24.2704465-7.9998749,44.3778026-35.4905863,64.1880486-9.6941158-27.8057285-3.4275013-68.8350159,35.4905863-64.1880486ZM444.7251361,1234.10046c10.4995391-8.6021991,20.9990781-17.2043982,31.4986172-25.8065973,35.4296706,32.7148939,40.6137978,24.6444285,51.7012977,63.10477-16.0837113-.5468418-32.9126806,8.1271489-50.6101312,23.9172671-25.1981431-21.8020618.3184782-38.5577409-32.5897837-61.2154398ZM275.5059647,1478.2038288c26.8126063-17.5070442,43.9629458,41.1959459,43.0993736,52.6055665-26.8306667,17.5049422-43.9712301-41.2060574-43.0993736-52.6055665ZM560.5248855,1332.6063983c10.5457937-8.1668469,18.7681712,6.1565966,27.783757,12.4943042-10.4306412,7.9085606-18.6527438-6.4145474-27.783757-12.4943042ZM474.4959787,1420.7993636c20.6823665,21.3355572,18.7930358,40.4470712-5.6920206,57.3052137,3.2047977-19.0613672-28.5840702-41.5094016,5.6920206-57.3052137ZM300.5864826,1615.9239812c51.4430122-21.724112-31.6868795,46.2365842,0,0h0ZM614.1232487,1376.609095c23.6455861,31.1941619-29.9346214,54.9960277,1.0110715,86.924276-57.7305475,17.9384333-69.9338046-92.3782579-1.0110715-86.924276ZM520.4331703,1541.1213623c3.5010344,22.9787087,11.7154119,46.2462854-16.0411458,66.1109444-3.5108105-22.9706992-11.7249104-46.237937,16.0411458-66.1109444ZM556.899496,1564.2133017c10.4659735-8.2642726,18.688351,6.0591709,27.7039368,12.3968785-10.4306412,7.9085606-18.8485409-6.254693-27.7039368-12.3968785ZM561.7070145,1612.9163163c-1.2434157,12.5214045.7932083-7.9857359,0,0h0ZM402.0997473,1761.2450352c10.4309197-7.9082207,18.5729238,6.3171219,27.7039368,12.3968785-10.5457895,8.166852-18.688351-6.0591709-27.7039368-12.3968785ZM658.3055045,1516.2265872c21.2476923-20.4306588,35.2886873,33.3205474,53.5283191,43.8972615-13.6217957,8.3010517-16.8390136,17.6355707-12.3265604,27.8097076-53.2768121,9.3553731-21.6919662-52.580347-41.2017587-71.7069691ZM770.2288377,1459.6394401c7.7004209-40.4558043-3.8098148,56.8904736,11.4049595,78.5720184-52.2900356,6.2922381-15.8431574-58.6629555-11.4049595-78.5720184ZM821.9301354,1522.7442101c-20.770471-21.4430943-18.8633547-40.5528417,5.6039161-57.4127509,11.5817314,14.1362506,22.9952635,28.0672029,34.49718,42.1060341-12.9313308,1.3465391-26.1715644,3.0937753-40.1010961,15.3067167ZM916.4455392,1445.3083992c10.6950612-8.762389,20.9990781-17.2043982,31.6941393-25.9667872,40.575572,17.9770719-21.8644243,69.1337251-31.6941393,25.9667872ZM660.3020914,1690.4228417c51.6385344-21.8843019-31.6948889,46.2268081,0,0h0ZM734.0041631,1630.0392486c64.8091463.0342465-3.0570029,61.6979928,0,0h0ZM833.3350949,1601.3162285c-8.3010515-13.6217955-17.6275608-16.8292369-27.7217224-12.3986451-19.7128169-27.5705334,33.2131566-32.3088356,42.2034545-34.5769958,4.8583891,10.2174786-2.0928623,19.2619278,6.517346,29.7712427-6.8726033,5.6306759-13.9407288,11.4215418-20.9990781,17.2043982ZM940.4348906,1496.0065146c25.0011742,18.4507174-7.7642286,31.424025,4.8057519,48.7208002-29.604946,17.2296863-33.9666132-40.3018149-4.8057519-48.7208002ZM913.7322492,1570.5419216c-.0577007,1.4850381-.3442078,3.468536-.413387,4.1618312.0691792-.6932951.3556863-2.676793.413387-4.1618312ZM1031.3493696,1456.6317752c17.5578884-14.3850555,35.1255529-28.7781204,52.5074714-43.019005,22.4440551,30.9041858-32.6061368,47.4477696,36.3862307,22.9941784,1.1608139,66.0683777,15.3907692,73.7053257-13.2048196,133.8454975-6.0596262-16.7488999-4.3032435-32.5328589,14.2158911-46.9212216-19.2395336-.5100627-34.9950283-36.0929907-57.3149899-5.6840096-1.2231499-19.4206708-9.1346297-39.5865058-32.5897837-61.2154398ZM1025.7276679,1514.0427595c31.9163954,35.4462516,73.1259921,71.7260918,9.5076193,97.6737563,8.9975586-31.4541898-45.3365869-68.9565242-9.5076193-97.6737563ZM925.3327309,1648.95375c-19.1166041,7.8360876-6.564625-9.9469094-17.2043978-20.9990776,15.2749138-8.2176755,27.6238419,12.2991174,17.2043978,20.9990776ZM693.9127227,1838.5545479c-19.3968291-43.1383426,15.2530009-21.1069251,43.9052726-53.5185438,8.6021989,10.4995388,17.2046804,20.9994225,25.8065966,31.4986164-24.7509085,23.1543523-45.9847147,10.0796834-69.7118692,22.0199274ZM740.7984924,1852.9465272c51.5664489-21.9722869-31.6771033,46.2285747,0,0h0ZM846.0089574,1766.7483274c10.3585558-7.9965455,18.5809333,6.326898,27.7119463,12.4066546-10.5362923,8.1585021-18.7764554-6.166708-27.7119463-12.4066546ZM692.9225077,1945.6302587c-.0370369-.4440433-.080095-.0977611-.0114808-.7917459.3542652-3.4762021.1377957-1.3872771.0114808.7917459-.4490029,4.517197-.35597,2.6764468,0,0ZM949.1345696,1699.8218314c43.4994395-35.3283608,25.1854984,66.9549544,1.083157,87.0122609-41.5202369-33.1492281,40.6228259-54.0152133-1.083157-87.0122609ZM1013.4202592,1735.0526984c51.3709268-21.8120969-31.6868795,46.2365842,0,0h0ZM1080.1516313,1645.1222479c51.8271999-12.3012884-8.9917972,42.7882019,13.4880457,59.3181001-36.1936546,13.8541391,4.8204742-43.1932323-13.4880457-59.3181001ZM837.4261956,1949.449368c-5.711056-6.9707123-11.4138172-13.9313004-17.204683-20.9994257,7.0583494-5.7828564,13.9309527-11.4135323,20.9990781-17.2043982,5.7908657,7.0681253,11.493627,14.0287134,17.204683,20.9994257-7.0681255,5.7908659-13.9407288,11.4215418-20.9990781,17.2043982ZM935.9315167,1833.6495434c22.3788005,18.3608722,15.571426,33.8227365,23.9875848,50.715901-31.0708455,23.2177892-57.0001292-28.2926732-23.9875848-50.715901ZM644.2974825,2142.9520344c21.5310799-20.8425569,40.4470718-18.7930367,57.500736,5.5318292-19.0695934-3.0346753-41.6071636,28.664166-57.500736-5.5318292ZM960.8165124,1971.5298857c-10.3502595,8.0066716-18.5729238-6.3171219-27.7840318-12.4946396,10.5365786-8.1581526,18.776742,6.1670578,27.7840318,12.4946396ZM899.6267471,2003.9515908c10.6163873-8.060741,18.7764554,6.166708,27.7920413,12.5044157-10.3585558,7.9965455-18.7764554-6.166708-27.7920413-12.5044157ZM751.4167178,2230.8429032c10.5443018-8.148726,18.7663915,6.1743662,27.9774995,12.3518839-10.5443018,8.148726-18.7761674-6.1663565-27.9774995-12.3518839ZM934.1236471,2046.0572832c22.5743226,18.2006823,15.5892116,33.8245032,23.9973609,50.7078915-15.7941965,18.512-66.9766929-43.5806441-23.9973609-50.7078915ZM1228.7461879,1804.6750912c16.4097107,29.0029505,37.7869013,7.1748871,53.4031158,44.163222-25.819991,33.9142971-45.6017057,7.0374022-71.6092094,41.1216653,15.7149462-27.562628-9.0603736-58.9591326,18.2060936-85.2848873ZM1019.2418754,2065.0371081c-.0545388-.4454636-.080095-.0977611-.0111971-.7913996.3444891-3.4681926.1377957-1.3872771.0111971.7913996-.4487192,4.5175432-.3654624,2.6848025,0,0ZM1082.433211,2012.4643145c51.6287583-21.8762924-31.614794,46.3245691,0,0h0ZM1113.9318281,1986.6577172c10.5460684-8.1665116,18.7684459,6.1569319,27.7039368,12.3968785-10.3505463,8.0063216-18.7586698-6.1649414-27.7039368-12.3968785ZM940.0205655,2181.8001204c54.9231508,8.6075824-55.5432313-2.3648356,0,0h0ZM1078.6287545,2050.6757998c6.8726033-5.6306759,13.9407288-11.4215418,21.0088542-17.2124077,5.4366005,10.5443274,12.3315981,6.4964507,19.1097474,1.9071158,20.9257874,16.9862134-35.3413253,54.6386007-40.1186017,15.3052919ZM1232.6306282,1959.7779706c51.3726936-21.8298822-31.6851126,46.2187989,0,0h0ZM1018.4245046,2170.3694834c-1.2517036,12.5112886.7932083-7.9857359,0,0h0ZM1314.9443856,1909.8855536c15.2749138-8.2176755,27.6238419,12.2991174,17.2043978,20.9990776-19.1085946,7.8458637-6.6367105-10.0348944-17.2043978-20.9990776ZM1088.1363738,2148.349556c.7932083-7.9857359-1.1618326,12.6010402,0,0h0ZM1160.0214907,2107.1658164c.7929179-7.9860904-1.2439846,12.5207102,0,0h0ZM1175.1519423,2148.227643c-.0465294-.4356875.1056511-.2499415.1745489-.94358.3542652-3.4762021.1377957-1.3872771-.1745489.94358-.4487192,4.5175432-.1699402,2.5246126,0,0ZM1205.9294641,2034.2952388c22.6125485,24.8680389,43.0720959,49.4413994,41.0160126,71.8591495-16.1146773,13.0555986-86.7348605-59.1217602-41.0160126-71.8591495ZM1292.9338355,2033.3819262c35.4375165-2.7122255,13.4058067,31.9372495,53.608706,43.9953789-47.5736455,40.08716-46.3511921-13.7195509-53.608706-43.9953789ZM1072.929984,2302.3461421c.0353322-.3557121.1154272-.257951.184617-.9512332.3361877-3.4783251.1375037-1.3876334-.184617.9512332-.4567287,4.5077671-.1601641,2.5166031,0,0ZM1167.6300048,2223.9590981c20.7455891-12.8474012,38.8362281-1.6748097,55.6831988,24.7309718-28.8589909,31.780409-59.3642423,4.2784118-55.6831988-24.7309718ZM1321.7387149,2132.7928322c14.3930646,17.5676641,28.7861292,35.1353282,43.0990988,52.6052312-41.9848151,62.4832855-112.6205618-23.7322012-43.0990988-52.6052312ZM1264.4428767,2320.309054c.7851988-7.995512-1.1618326,12.6010402,0,0h0ZM1289.2384018,2264.8833944c20.6304539-12.5890939,38.7291024-1.4067262,55.4962727,24.9016537-20.6405246,12.5967438-38.9249191,1.5665566-55.4962727-24.9016537ZM1511.0545153,2171.0670225c32.6302318,53.8464351-70.544053,43.5983275,0,0h0ZM1090.4081774,2515.6996321c10.5460684-8.1665116,18.7684459,6.1569319,27.7217224,12.3986451-10.5540779,8.1567355-18.7764554-6.166708-27.7217224-12.3986451ZM1170.6373712,2485.0792722c.9709449-8.1476924-1.1698421,12.591264,0,0h0ZM1318.0415146,2364.312086c62.5553711-7.3830282-22.3488789,43.99398,0,0h0ZM1517.0235191,2306.8978447c-31.8896357,28.8391024-58.0407215.8086786-90.9865644,39.2867544-39.7044127-53.1481362,60.3547153-114.0659015,90.9865644-39.2867544ZM1408.0263832,2431.3092965c19.7669267-4.7091286,37.8557991,6.4812486,55.4256592,24.7955236-39.974993,30.6762774-38.8749298,6.3139103-55.4256592-24.7955236ZM1413.6400754,2373.8885361c31.7075063,4.8198272,60.0449163,44.4726986,89.9928781,67.0069866-33.0872295,9.070729-61.4246395-30.5821424-89.9928781-67.0069866ZM1473.126256,2360.4261646c25.8220542-33.9317206,45.6034723-7.0551878,71.6189855-41.1296748,11.6404234,30.1813224-21.255247,55.8581336,1.0911665,87.0220371-27.8685196,20.9045724-49.8750784-18.0206815-72.710152-45.8923623ZM1598.3438794,2363.2995219c23.3480561,18.3673412,1.2628484,32.3116871-14.3039955,46.8136844-5.0441352-10.0652982,1.8973402-19.1017379-6.7048587-29.6012767,7.0681255-5.7908659,13.9407288-11.4215418,21.0088542-17.2124077ZM1478.839195,2496.3033967c.1489928-.5958775.1377957-1.3872771.2434467-1.6372186-.1056511.2499415-.0944539,1.0413411-.2434467,1.6372186-.2276667,1.2975255-.10423,1.0493506-.1731279,1.7429891.0688978-.6936385-.0545388-.4454636.1731279-1.7429891ZM1722.6560824,2278.9986618c34.8499616-26.0035663,63.1426089,13.1958319,97.6994326-9.6757016,22.6269083-25.7268898-31.4864272-54.7835462-47.0893014-14.2415655-2.8943475-13.2643685-6.0545361-26.4743177,3.9902025-38.3636657,6.8726033-5.6306759,13.9309527-11.4135323,20.9990781-17.2043982-2.3316746,25.1923042,19.4754514,37.0124441,44.9163441,33.4057322,9.2583603,33.0968857-30.4743075,61.3369009-66.9171181,90.0826309-33.8955714-13.7123639-14.6953857-20.6687021-53.5986379-44.0030321ZM1697.8525478,2334.4145452c51.4430122-21.724112-31.614794,46.3245691,0,0h0ZM1494.2245809,2536.5197588c51.5584394-21.982063-31.6948889,46.2268081,0,0h0ZM1651.0562487,2513.3285679c-26.7563782,9.7983464-45.5418078-60.651949-72.815803-45.6424208-10.1165292-43.8959087,52.3913204-19.7889079,73.7020717-60.3835931,18.6440172,38.3308234,42.0602482,29.5208456,62.1207418,54.4048098-20.9990781,17.2043982-42.0079324,34.4168059-63.0070105,51.6212041ZM1735.0721134,2444.4949561c-17.0536641-24.3248659,8.0802422-44.279709,35.4808102-64.1800391,27.9598109,29.4404148-7.1806082,67.9519626-35.4808102,64.1800391ZM1796.4476247,2411.9210706c51.5584394-21.982063-31.6851128,46.2187986,0,0h0ZM1729.4616088,2502.69734c-.0367532-.443697-.080095-.0977611-.0111971-.7913996.3447902-3.4678252.1377957-1.3872771.0111971.7913996-.4487192,4.5175432-.3476768,2.6865691,0,0ZM1819.2737242,2375.5091639c28.737001-28.0206998,51.8221098-2.5758706,80.4870254-30.6845553,24.4012916,43.0247499-55.9046222,69.2639669-80.4870254,30.6845553ZM1860.5555778,2447.3138941c23.424482,28.9899291-29.2348758,65.5817429-54.4048116,62.1207429-8.5668925-13.5673761,11.8201147-24.5192515,22.8964183-36.3061361-8.7511917-9.9036613-19.7106471,2.4246814-29.8768941,6.7672882-13.0642112-42.4285108,46.3825641-25.5675172,61.3852874-32.581895ZM1630.9528149,2617.715193c-13.8985657-1.3894989-17.1009173-1.7884073-15.3579282-1.6152795-1.7429891-.1731278,1.4593625.2257806,15.3579282,1.6152795,6.9461614.6809686,13.8905562,1.3797228,15.5534503,1.4550896-1.6628942-.0753668-8.6072889-.774121-15.5534503-1.4550896ZM1704.6548866,2557.3316c34.7908399-25.3179373,68.7209689-43.8692164,97.5059795-9.5329282-33.0781013,9.8795451-69.375263,51.2667152-97.5059795,9.5329282ZM1619.7271971,2732.5389282c54.7632644,8.4124307-55.6233262-2.4625967,0,0h0ZM1674.0519137,2670.3204242c-8.4161588-16.8931644,19.2261666-30.2765517,33.3980264-44.9257517,20.0212682-5.5553167,34.8876161,39.0728182,55.6911978,24.7407352,3.4552539,51.7388268-64.6652436,9.0952938-89.0892242,20.1850165ZM1939.9608123,2522.8155426c16.2874845,38.1865588-38.9541179,21.3930161-52.5074714,43.019005-22.0877978-42.5341798,25.9112831-33.0251364,52.5074714-43.019005ZM1860.5649535,2640.5221349c-5.7107708-6.9703642-11.4215415-13.9407284-17.2124073-21.0088537,7.0681255-5.7908659,14.1362509-11.5817317,21.0088542-17.2124077,5.7908657,7.0681253,11.5016365,14.0384895,17.2124073,21.0088537-6.8726033,5.6306759-13.9407288,11.4215418-21.0088542,17.2124077ZM2291.8965765,2287.1351459c-25.9285607-25.0267819-.1710311-45.0181272,16.1933262-65.9251984,8.6021989,10.4995388,17.2844927,21.0968387,25.8146061,31.5083925-13.9309527,11.4135323-28.0672036,22.9952641-42.0079324,34.4168059ZM2756.7060184,1888.9197971c15.2126044-8.3136699,27.5615325,12.203123,17.2124073,21.0088537-19.106828,7.8280781-6.6269344-10.0429039-17.2124073-21.0088537ZM1984.9572514,2556.3190358c51.5584394-21.982063-31.4993668,46.0666181,0,0h0ZM2096.8725751,2499.7221127c13.8364721,36.3715101-45.6103032,19.5105165-61.1096703,32.5194662-13.3395244-42.365711,46.1950514-25.3975511,61.1096703-32.5194662ZM1968.7562207,2622.2348304c-11.571526-30.8749616,51.5257216-11.8915293,69.7996686-21.9127625,9.7175271,49.6307629-52.6669117,22.563462-69.7996686,21.9127625ZM2387.5129228,2296.7133626c-10.3614744-51.1944749,67.091667-91.0262109,99.5887633-28.7872156-36.064912,38.9585519-65.3253165,8.6884696-99.5887633,28.7872156ZM2169.5844542,2546.4142577c-.0370594-.4440707-.080095-.0977611-.0115033-.7917732.3542652-3.4762021.1377957-1.3872771.0115033.7917732-.4490253,4.5171696-.3479829,2.6861955,0,0ZM2653.4120454,2149.2164904c51.6385344-21.8843019-31.4192718,46.1643792,0,0h0ZM2599.0152432,2211.3470094c11.8344729,23.7974729-1.0539859,45.0584387,21.8964891,69.9600432-16.5536204,17.5651323-61.1897653,32.4217051-24.7955251,55.4256596-44.6955606,21.783647-22.5306869-24.7880634-62.1204353-54.4044357,37.359815-22.1623955,21.666425-49.5132976,65.0194713-70.9812671ZM1974.5583801,2759.0186365c.0353322-.3557121-.080095-.0977611-.001421-.7994091.3364796-3.4779687.1377957-1.3872771.001421.7994091-.4469526,4.4997576-.3556863,2.676793,0,0ZM2279.6692628,2508.2428458c51.5584394-21.982063-31.6851128,46.2187986,0,0h0ZM2433.6819895,2610.5351187c-39.0356331-28.9599806-13.3249364-49.387384,14.4998268-46.973497,5.7756904,16.8011753,4.1171883,32.684662-14.4998268,46.973497ZM2717.187108,2317.7935596c-.5655932,1.2639599-1.0591009,2.6159047-1.534823,3.9696162-5.583475,14.6225143-11.4038083,30.0926142-2.7349072,7.1911745,1.3057353-3.4714998,1.6761152-4.5748927,2.7349072-7.1911745.4757221-1.3537115.9692298-2.7056563,1.534823-3.9696162,4.4089469-11.7486586,6.7993392-18.1837657,0,0ZM2188.7739356,2740.8178166c.9887305-8.1459258-1.233918,12.5130552,0,0h0ZM2478.5889579,2450.7326101c-28.9026959-38.3885364,22.5948161-68.6211303,39.2051717-102.4892855,64.25183,41.8102386-2.7193447,70.6851289-39.2051717,102.4892855Z"/>
      <path d="M1019.2418754,2065.0371081c-.3654624,2.6848025-.4487192,4.5175432,0,0h0Z"/>
      <path d="M1973.222328,825.5196355c-1.1618326,12.6010402.8029844-7.9937454,0,0h0Z"/>
      <path d="M1530.3517754,2172.8041723c.7932083-7.9857359-1.4374497,12.663469,0,0h0Z"/>
      <path d="M2169.5844542,2546.4142577c-.3479829,2.6861955-.4490253,4.5171696,0,0h0Z"/>
      <path d="M1072.929984,2302.3461421c-.1601641,2.5166031-.4567287,4.5077671,0,0h0Z"/>
      <path d="M2001.3905992,1224.4580795c.7131134-8.0834969-1.233918,12.5130552,0,0h0Z"/>
      <path d="M692.9110269,1944.8385128c-.0686141.6939848-.0255561.3477026.0114808.7917459.1263148-2.1790229.3427844-4.267948-.0114808-.7917459Z"/>
      <path d="M561.7070145,1612.9163163c.7932083-7.9857359-1.2434157,12.5214045,0,0h0Z"/>
      <path d="M898.770619,845.3411388c-.0818358,2.6321498-.4487192,4.5175432,0,0h0Z"/>
      <path d="M620.63939,1019.6063774c-1.2416559,12.5036106.7932083-7.9857359,0,0h0Z"/>
      <path d="M1974.556959,2758.2192274c-.0786739.701648.0367532.443697.001421.7994091.1363746-2.1866861.3350586-4.2773778-.001421-.7994091Z"/>
      <path d="M142.290606,1166.4407303c-.2322496,2.4286181-.5288141,4.4197822,0,0h0Z"/>
      <path d="M206.4035424,1007.4862108c.7131134-8.0834969-1.233918,12.5130552,0,0h0Z"/>
      <path d="M1175.3264912,2147.284063c-.0688978.6936385-.2210783.5078925-.1745489.94358.3123446-2.3308571.5288141-4.4197822.1745489-.94358Z"/>
      <path d="M1729.4504117,2501.9059404c-.0688978.6936385-.0255561.3477026.0111971.7913996.1265985-2.1786766.3335931-4.2592248-.0111971-.7913996Z"/>
      <path d="M113.5196378,1065.8747031c.7934752-7.9854102-1.1716087,12.6090497,0,0h0Z"/>
      <path d="M1018.4245046,2170.3694834c.7932083-7.9857359-1.2517036,12.5112886,0,0h0Z"/>
      <path d="M2101.6689513,2355.234672c11.2876573-6.8625171,18.9451913-11.5351346,0,0h0Z"/>
      <path d="M1255.2954735,1519.6655273c-.0238153-2.3822083-.2305346-3.013418-1.0283774.6791601-.5879617,2.3932859-1.2434001,6.2796195-2.1310882,12.5945712-1.8900803,39.3715349,3.002195-3.7340595,3.1594655-13.2737313Z"/>
    </g>
  </g>
</svg>