<?xml version="1.0" encoding="utf-8"?>
<!-- Generator: Adobe Illustrator 27.2.0, SVG Export Plug-In . SVG Version: 6.00 Build 0)  -->
<svg version="1.1" id="onion" xmlns="http://www.w3.org/2000/svg" xmlns:xlink="http://www.w3.org/1999/xlink" x="0px" y="0px"
	 viewBox="0 0 1000 1257.7115479" style="enable-background:new 0 0 1000 1257.7115479;" xml:space="preserve">
<g id="outline">
	<path d="M625.2744141,450.5114746c-10.5755615-76.4470825-49.052002-150.2862244-70.2328491-226.2556152
		c-4.0557861-14.5749817-0.550354-32.8719635-13.0084229-44.2144928
		c-3.6226196,33.4935303,6.5761719,72.1598816,18.2243042,106.6235809
		c35.637085,105.4071655,67.1323853,217.5640259,85.819519,335.5019836
		c18.9200439,0.1883545,10.6334229,38.8324585,23.4119263,57.2021484
		c-0.6082153-40.9909058-11.4448853-74.8330688-10.4019775-111.8171997
		c21.6436768,97.3015747,49.2849121,223.1923218,52.0085449,338.102478
		c0.6364136,26.6547852-4.4918823,63.567688-5.2158203,91.0057373c-0.4346313,16.7185669-4.2442017,41.1437378,7.8223267,46.8224487
		c7.461792-41.0562744,6.9544067-99.2938843,10.4019775-150.8381348
		c10.2565918-154.3716431-40.0414429-305.0717773-88.4274902-434.3240051
		C634.9658813,452.9606628,624.144043,457.6973267,625.2744141,450.5114746z M653.8710938,562.3508911
		C652.7851562,561.2634888,655.5814819,564.0449829,653.8710938,562.3508911L653.8710938,562.3508911z M651.2646484,557.1499023
		C650.1920776,556.0640259,652.9735718,558.845459,651.2646484,557.1499023L651.2646484,557.1499023z"/>
	<path d="M690.2914429,359.4909058c-25.2069092-21.7015076-35.3047485-72.0575256-62.4239502-83.2279663
		c17.71698,34.3049927,32.5515747,71.4938049,62.4239502,93.628479
		C690.0452271,362.7930908,694.6231689,364.6622314,690.2914429,359.4909058z"/>
	<path d="M412.0124512,359.4909058c-1.7386169,0-3.475769,0-5.2010193,0
		c-0.1438904,3.3318481-3.3318481,3.6062927-2.6064453,7.8074341c2.6064453,0,5.1995239,0,7.8074646,0
		C412.0124512,364.6918945,412.0124512,362.0988159,412.0124512,359.4909058z"/>
	<path d="M562.8505249,362.0988159C565.8634033,372.3688049,565.8634033,351.8125305,562.8505249,362.0988159
		L562.8505249,362.0988159z"/>
	<path d="M692.8845215,367.2983398c-0.550354,2.9120178-2.8823242,4.0424194-5.2009888,5.2010193
		c0.3189697,6.605835,3.7962646,10.0830688,10.4020386,10.4020081
		C703.0402832,378.0044556,698.40448,369.3855591,692.8845215,367.2983398z"/>
	<path d="M562.8505249,375.0924377C561.7645874,374.0065308,564.5460815,376.8028564,562.8505249,375.0924377
		L562.8505249,375.0924377z"/>
	<path d="M705.8796387,393.3033752c-0.0148315,11.3425293,11.0102539,34.0438843,26.0183716,39.0134888
		C728.0158081,415.8445129,720.2796021,390.7384644,705.8796387,393.3033752z"/>
	<path d="M750.0941162,432.316864c-0.5651855,2.0278625-2.1732788,3.0128784-5.1861572,2.5930786
		c1.8676758,13.3570557,21.4404297,32.1598816,28.5966187,23.4104614
		C766.6524658,448.7149963,763.5372314,435.344574,750.0941162,432.316864z"/>
	<path d="M570.6594238,447.918396C569.5571899,446.832489,572.3683472,449.6273193,570.6594238,447.918396L570.6594238,447.918396z"
		/>
	<path d="M789.1210327,622.1669312c-7.0405884-51.2253418-23.8882446-114.6921387-54.6151123-150.8380737
		C752.064209,522.2366943,767.4921875,575.3015137,789.1210327,622.1669312z"/>
	<path d="M604.4719238,481.7308655c-2.6079102,0-5.2158813,0-7.8237915,0
		c0.4197998,3.0574036-0.4346313,7.3742676,2.6079102,7.7940674
		C599.8939209,485.8162842,603.5447388,485.150238,604.4719238,481.7308655z"/>
	<path d="M591.4619751,484.3239441c-0.6230469,3.7086487-4.2886963,4.3895569-5.2158203,7.8089294
		C591.6073608,494.4070129,597.9372559,485.3816528,591.4619751,484.3239441z"/>
	<path d="M591.4619751,505.1279602c3.6937866,2.186615-6.6488647,10.2269592,2.6079102,15.6163635
		c0.5785522-4.6209717-2.6361084-13.0232849,5.1861572-10.4168396
		C601.5450439,504.9825745,592.5196533,498.6511841,591.4619751,505.1279602z"/>
	<path d="M809.9249878,507.7344055c-1.7965088,16.2260437,14.5734863,27.3371887,23.3956299,41.6065369
		c12.3571777,19.949585,18.9778442,45.229187,33.812439,62.4239502
		C862.3518677,573.1000366,841.8252563,527.9153442,809.9249878,507.7344055z"/>
	<path d="M594.0698853,533.7394409C595.5474243,523.3077393,591.8669434,549.1243896,594.0698853,533.7394409
		L594.0698853,533.7394409z"/>
	<path d="M713.7019653,559.7578125c10.5622559,0.4494629,9.0253296-17.7184448,0-18.2109375
		C707.6760864,547.3278809,714.571228,551.6878052,713.7019653,559.7578125z"/>
	<path d="M255.9748535,567.5518799c3.7368469-5.7810059,6.5183716-12.5455933,5.1861572-23.4119263
		c-2.5930786,0-5.1861572,0-7.7940826,0C251.6283264,550.0515137,246.6453857,565.9571533,255.9748535,567.5518799z"/>
	<path d="M203.9380951,546.7478638c-12.60495-1.2460938-14.0824738,10.1705933-10.4020081,18.2109375
		C203.2705383,565.1472168,202.4160614,554.7451782,203.9380951,546.7478638z"/>
	<path d="M318.3839417,580.5603638c5.3019409-5.0986938,7.7510986-13.0529785,7.7941589-23.4104614
		C312.7913208,553.513916,304.4468689,580.8065796,318.3839417,580.5603638z"/>
	<path d="M534.2390137,640.3763428c4.2442017-18.5714111,6.0258179-55.9619751-7.7940063-65.0170288
		C534.7745361,591.2961426,521.5776978,628.7579346,534.2390137,640.3763428z"/>
	<path d="M607.0501709,580.5603638C608.7590942,582.2559204,605.9776001,579.4595947,607.0501709,580.5603638
		L607.0501709,580.5603638z"/>
	<path d="M177.9479065,606.5653687c-10.4732208,16.3981323-14.1388397,39.6068726-15.6163788,65.0095825
		C176.658783,661.8108521,186.3798828,622.0215454,177.9479065,606.5653687z"/>
	<path d="M596.6481323,609.1584473C598.3570557,610.8674316,595.5756226,608.071106,596.6481323,609.1584473
		L596.6481323,609.1584473z"/>
	<path d="M796.9150391,629.9758301c-3.8243408,6.1281738-5.4902954,4.8242188-2.6079102,12.9951172
		C803.8695068,645.4765015,804.6512451,630.1924438,796.9150391,629.9758301z"/>
	<path d="M440.6239014,640.3763428c-9.8071289,55.7677002-19.0639343,144.6891479,0,184.6431274
		C433.5107117,763.1904297,439.9000244,694.9557495,440.6239014,640.3763428z"/>
	<path d="M911.3475342,793.8149414c13.1687622-48.2984619,1.3173218-100.3070068-7.8088989-143.0440063
		c-3.3021851-0.1438599-3.5929565-3.3244019-7.7941284-2.6063843c-0.1438599,3.3318481-3.3318481,3.6210938-2.6079102,7.8222656
		c6.258728,21.4700928,11.3291626,50.9360352,13.0099487,80.6051636
		C907.1612549,754.4113159,901.1635742,792.1060181,911.3475342,793.8149414z"/>
	<path d="M867.1330566,689.7992554c11.3573608-0.4064331,13.2843628-19.3250122,2.6079102-20.8322144
		C865.7282104,672.7632446,867.4520264,682.2944336,867.1330566,689.7992554z"/>
	<path d="M565.4436035,916.0548706c-0.3619995,2.5797729-0.550354,3.9415894-0.6378784,4.5498047
		c0.203186-1.4493408,0.8411255-5.9694824,0.9849854-6.8966064
		C565.7328491,914.0269775,565.631958,914.7805786,565.4436035,916.0548706z"/>
	<path d="M539.4533691,676.7893066c0.8989868,81.6199341,9.663269,141.7979126,15.0378418,223.3302612
		c0.6660767,2.2311401,0.2611084,5.53479,0.550354,8.1130371c-0.1735229-2.7814941-0.37677-5.3597412-0.550354-8.1130371
		c-0.3471069-1.100708-0.8692627-1.99823-2.0575562-2.2890015c10.866333,77.1576538,11.0102539,149.7374268,7.8237915,223.678833
		c16.7467041-6.9246826,11.3424683-40.0429688,10.4019775-65.0184326
		c-0.7832642-20.7729492-1.6080933-43.5187378-2.6079102-59.8308716
		c-0.6082153-9.8798218-10.4450073-55.3967896,2.6079102-33.7828369c6.3729248-3.4771729-4.6936646-7.8519287,2.5930786-10.4301758
		c7.2867432,37.5789795,14.8479614,88.2243042,7.8074341,127.4557495c-0.2595825-4.0854492,0.3486328-9.0119629-5.2143555-7.7940674
		c-3.1582642,34.2471924,10.4732056,39.5772705,33.8125,36.3907471
		c-21.2965698-78.6633301-30.5103149-166.3966064-49.4006348-239.265564
		C548.3200073,823.3105469,557.722168,740.4163818,539.4533691,676.7893066z M557.6494751,916.0548706
		c0.2032471,0.2032471,0.4643555,0.4643555,0.550415,0.5518799
		C558.1138306,916.5192261,557.8527222,916.2581177,557.6494751,916.0548706z M594.0698853,1100.7054443
		C595.7639771,1102.4143066,592.9691772,1099.6329346,594.0698853,1100.7054443L594.0698853,1100.7054443z M568.0515137,929.0648193
		C566.9641113,927.9641113,569.760437,930.7456055,568.0515137,929.0648193L568.0515137,929.0648193z M564.8057251,920.6046753
		c0.0875244-0.6082153,0.2758789-1.9700317,0.6378784-4.5498047c0.1883545-1.274292,0.2892456-2.0278931,0.3471069-2.3468018
		C565.6468506,914.6351929,565.0089111,919.1553345,564.8057251,920.6046753
		c-0.0429688,0.2610474-0.0578003,0.4049683-0.0578003,0.4346313
		C564.7479248,921.0096436,564.7627563,920.8657227,564.8057251,920.6046753z M562.8505249,905.6543579
		C561.7645874,904.5536499,564.5460815,907.3632812,562.8505249,905.6543579L562.8505249,905.6543579z"/>
	<path d="M659.0869141,681.9755249C657.9862061,680.90448,660.7958374,683.6859131,659.0869141,681.9755249L659.0869141,681.9755249
		z"/>
	<path d="M666.8809814,684.5834351C669.8939209,694.869751,669.8939209,674.298584,666.8809814,684.5834351L666.8809814,684.5834351
		z"/>
	<path d="M159.7384491,726.1900024c3.7086487-2.5500488,9.3576508-16.3699951,2.5930786-20.8025513
		C156.5504913,707.6467285,149.1777039,723.2349243,159.7384491,726.1900024z"/>
	<path d="M685.0770874,715.7879639c-2.5945435,0-5.1876221,0-7.7940063,0
		c0.8395386,19.0950928,5.2721558,34.6239624,5.1994629,54.6165161
		C700.0274048,757.8870239,685.3515625,733.3461914,685.0770874,715.7879639z"/>
	<path d="M154.5374451,770.40448c-3.3318481-0.1453857-3.5929413-3.3318481-7.7940979-2.6079102
		c-0.1453705,3.3318481-3.3318481,3.6210938-2.6079102,7.8222656
		c-2.9550476,48.0388184,5.2158356,82.2280884,13.0099335,117.0255737
		c4.8375549,21.6733398,2.7815247,50.8203125,23.3956146,59.8026733
		C174.2971191,899.6849365,151.2189941,841.3894653,154.5374451,770.40448z"/>
	<path d="M638.2695312,788.5991211c2.0130615-0.5785522,5.1282959-0.0578613,5.2009888-2.5783081
		C641.4559937,786.6008911,638.3422852,786.0786743,638.2695312,788.5991211z"/>
	<path d="M224.7554626,793.8149414c-4.3747101,8.3162842-0.7832642,27.553772,5.2010193,33.812439
		C235.4897766,821.6297607,237.2432251,796.3931885,224.7554626,793.8149414z"/>
	<path d="M903.5386353,871.8418579c15.2988892-4.6358032,11.039856-28.8295288,15.616333-44.2144775
		c-3.3317871-0.1453857-3.6062622-3.3318481-7.8074341-2.6079102
		C904.7550659,836.6379395,905.9433594,856.0222778,903.5386353,871.8418579z"/>
	<path d="M692.8845215,830.2353516c-5.055603,5.0125732-2.7236328,15.9071045,7.80896,12.9802246
		C701.2008057,835.7982788,701.0123901,829.0470581,692.8845215,830.2353516z"/>
	<path d="M73.9025726,845.8234863c-1.9982224,0.5785522-5.1283188,0.0860596-5.1861725,2.6079102
		C70.7309418,847.8513794,73.8447189,848.3720703,73.9025726,845.8234863z"/>
	<path d="M653.8710938,864.0181274C652.7851562,862.9470825,655.5814819,865.7285767,653.8710938,864.0181274
		L653.8710938,864.0181274z"/>
	<path d="M685.0770874,970.6713867c12.4432373-19.1514282,10.8203735-56.6147461,2.6064453-78.0269775
		C688.1478882,918.9817505,684.0194092,938.5396729,685.0770874,970.6713867z"/>
	<path d="M503.0344849,903.0464478c0.0430298-0.2893066,0.0430298-0.2893066,0.0726929-0.5222168
		c-0.2477417,1.7104492-0.5651855,3.9994507-0.7105713,5.0126343
		C502.4841309,906.9004517,502.6858826,905.5668335,503.0344849,903.0464478z"/>
	<path d="M887.9370728,921.2425537c-4.5349121,0.2017212-8.0848389-0.5800171-10.4019165-2.5797729
		c-1.8262329,8.5477295-4.1582031,16.6311035-5.2011108,25.9902344
		C884.213623,943.522583,882.7064209,929.006958,887.9370728,921.2425537z"/>
	<path d="M739.6921997,968.0634766c8.6633911-8.9526978,3.12854-36.1014404,5.2157593-44.2144775
		c-4.5200806,0.203186-8.0982056-0.5785522-10.4020386-2.6064453
		C737.0263062,936.0474854,728.8851318,961.5733032,739.6921997,968.0634766z"/>
	<path d="M846.3305054,947.2609253c-0.8840942,5.8225708-12.0397339,24.0483398,0,26.0183716
		c2.3023682-8.460144,12.4729614-18.8043213,7.8074341-26.0183716
		C851.5315552,947.2609253,848.923584,947.2609253,846.3305054,947.2609253z"/>
	<path d="M781.3134766,965.4555664c-2.0145264,1.7964478-6.7660522,15.5006104,2.5931396,13.0098877
		C788.1655884,978.9282837,789.1655273,961.4576416,781.3134766,965.4555664z"/>
	<path d="M430.2233887,970.6713867c0.1735535,42.996582,24.2500916,96.1933594,25.9887085,137.828125
		c21.7445374-41.8098145-13.414917-91.6154175-18.1946411-132.6419678
		C434.3088074,975.2493286,433.6278992,971.5688477,430.2233887,970.6713867z"/>
	<path d="M872.3340454,991.473938c-1.7385864,0-3.4622803,0-5.2009888,0c1.5502319,4.6358032-7.6205444,10.8069458,0,13.0098877
		c0.7684326-5.3018799,7.0405273-5.1000977,7.80896-10.4019775
		C873.3487549,993.9364624,871.869751,993.6768799,872.3340454,991.473938z"/>
	<path d="M198.7504425,996.6600952c7.3015747,24.9473267,25.9901886,60.5844116,54.6164856,72.8407593
		c0.1453857-3.3317871,3.3318634-3.6210938,2.6079254-7.8222656
		C231.6224518,1046.8721924,222.4813232,1003.4691772,198.7504425,996.6600952z"/>
	<path d="M679.8894653,1014.8858643c-3.5632935,3.3318481-3.5632935,12.2845459,0,15.5866699
		c9.3012695,1.5368652,7.90979-7.6768799,7.7940674-15.5866699
		C685.0770874,1014.8858643,682.4825439,1014.8858643,679.8894653,1014.8858643z"/>
	<path d="M302.7675781,1043.4825439c-5.0422058,7.5908203-0.2032166,23.2650146,10.4154358,23.4104004
		c2.6078491,0,3.0855713-2.1153564,5.2009277-2.6079102
		C316.5874939,1053.9423828,306.9390869,1051.4501953,302.7675781,1043.4825439z"/>
	<path d="M477.0294495,1113.715332c3.8392029,35.840332-12.7191772,71.854248-7.8074341,104.0157471
		c12.2845154-43.6923828,27.5389709-119.9525146,0-158.6322021
		C460.5437927,1077.7578125,474.8710327,1093.5491943,477.0294495,1113.715332z"/>
	<path d="M443.21698,1082.5092773C444.9125977,1084.1900635,442.1311035,1081.4085693,443.21698,1082.5092773
		L443.21698,1082.5092773z"/>
	<path d="M627.8674927,1142.3120117c2.0130615-0.5800781,5.1283569-0.0578613,5.2010498-2.6079102
		C631.055481,1140.3122559,627.9401855,1139.791626,627.8674927,1142.3120117z"/>
	<path d="M622.6665039,1144.9199219C624.3769531,1146.6289062,621.5806274,1143.8192139,622.6665039,1144.9199219
		L622.6665039,1144.9199219z"/>
	<path d="M599.2560425,1147.527832C600.9650269,1149.2071533,598.1702271,1146.4256592,599.2560425,1147.527832
		L599.2560425,1147.527832z"/>
	<path d="M614.8724365,1147.527832C616.5828247,1149.2071533,613.7717285,1146.4256592,614.8724365,1147.527832
		L614.8724365,1147.527832z"/>
	<path d="M661.6799927,1147.527832C663.3756104,1149.2071533,660.5941772,1146.4256592,661.6799927,1147.527832
		L661.6799927,1147.527832z"/>
	<path d="M549.8554077,1152.7139893c1.9996948-0.5800781,5.1134644-0.0578613,5.1861572-2.6079102
		C553.0285645,1150.7143555,549.9133301,1150.1921387,549.8554077,1152.7139893z"/>
	<path d="M560.2574463,1152.7139893c1.9996948-0.5800781,5.1135254-0.0578613,5.1861572-2.6079102
		C563.430542,1150.7143555,560.3152466,1150.1921387,560.2574463,1152.7139893z"/>
	<path d="M531.6311035,1181.340332C533.3400879,1183.0195312,530.5452271,1180.2380371,531.6311035,1181.340332
		L531.6311035,1181.340332z"/>
	<path d="M391.1950684,263.2678528C392.9040527,264.9634399,390.1225281,262.1819458,391.1950684,263.2678528
		L391.1950684,263.2678528z"/>
	<path d="M190.9429932,1048.6983643C192.6371613,1050.3775635,189.8556213,1047.5960693,190.9429932,1048.6983643
		L190.9429932,1048.6983643z"/>
	<path d="M960.7615356,788.5991211C959.6756592,787.5280151,962.4719849,790.3095093,960.7615356,788.5991211
		L960.7615356,788.5991211z"/>
	<path d="M89.5204239,611.7648926C90.9979477,601.3347168,87.3174896,627.1498413,89.5204239,611.7648926L89.5204239,611.7648926z"
		/>
	<path d="M68.7164001,884.8503418c0.7461777-5.2440186,0.1809845-1.3469849-0.2743912,1.8839722
		C68.5205841,886.18396,68.6081085,885.6039429,68.7164001,884.8503418z"/>
	<path d="M110.3229599,668.967041C111.8004837,658.5650635,108.1215134,684.3519897,110.3229599,668.967041L110.3229599,668.967041z
		"/>
	<path d="M773.5045776,694.9854126C772.4172974,693.9129028,775.213501,696.694397,773.5045776,694.9854126L773.5045776,694.9854126
		z"/>
	<path d="M81.7114944,733.9840698C80.6256027,732.9115601,83.4204407,735.6930542,81.7114944,733.9840698L81.7114944,733.9840698z"
		/>
	<path d="M253.3669281,330.879425C252.2662048,329.7920532,255.0759277,332.5883789,253.3669281,330.879425L253.3669281,330.879425z
		"/>
	<path d="M47.9138641,866.6260376C46.8131828,865.5535278,49.6079712,868.3349609,47.9138641,866.6260376L47.9138641,866.6260376z"
		/>
	<path d="M323.5849609,328.2863464C322.4975891,327.1989746,325.2790833,329.9953003,323.5849609,328.2863464
		L323.5849609,328.2863464z"/>
	<path d="M32.2960129,658.5650635C31.2101192,657.4940186,34.0064392,660.2754517,32.2960129,658.5650635L32.2960129,658.5650635z"
		/>
	<path d="M622.6665039,206.0449219c-27.0315552-34.1447754-56.9915161-73.91185-67.624939-119.6320419
		c-8.4022827-36.1593018-12.588623-55.3404198-36.390686-72.8111115c-22.4832764-2.8541737-32.1317444-5.678679-49.4288635-5.201005
		c-5.8536682,11.2846689,12.3423767,11.5887785,5.2010193,15.6015329
		C433.874176-0.7121229,394.9764099-9.8813801,352.1964111,13.6017685
		c-16.8045959,36.6948318-9.5905457,75.9545593-20.8025208,111.8245926
		c-39.0283203,124.8330383-231.211853,338.3694763-265.2854004,408.3130798
		c-17.2096024,35.3478394-31.8854599,71.02948-44.2129974,109.2315063
		C9.5812941,681.107666-3.9790003,827.019165,1.0914609,864.0181274
		c6.6503448,48.6766968,11.7060156,132.6716309,91.0799026,222.5187378
		c86.2690964,97.6131592,227.7628174,122.2414551,257.4171448,128.6158447
		c27.9884033,5.9976807,72.9268188-2.2889404,91.0354004,15.586792
		c49.7774658,49.2270508,275.9173584,28.0477295,314.6845703-38.9986572
		c113.6062012-84.2559814,220.9833984-180.8543701,241.8586426-353.7114258
		c2.477356-20.4851074,3.2739868-40.5637207,2.6079102-59.8308716
		C993.5889893,599.3943481,910.84021,488.5829468,820.3255005,388.102356
		C762.0893555,323.4472961,679.1373901,277.3933411,622.6665039,206.0449219z M757.9015503,385.4944458
		C754.0045166,380.0323486,771.2008057,404.1103821,757.9015503,385.4944458L757.9015503,385.4944458z M490.0245667,31.7963886
		C482.9262085,23.8865871,497.9343567,38.8947372,490.0245667,31.7963886L490.0245667,31.7963886z M489.4593506,98.2197266
		c-0.0133362,0.0133514-0.0133362,0.0133514-0.0133362,0.0133514c-0.0726318,0.5652008-0.117157,0.9568329-0.1305542,0.999855
		c0.0133972-0.0430222,0.0579224-0.4346542,0.1305542-0.999855C489.4460144,98.233078,489.4460144,98.233078,489.4593506,98.2197266
		c0.102356-0.7832642,0.2907715-2.0575562,0.5652161-3.9994049
		C490.9517212,87.7020111,489.8791809,95.3225327,489.4593506,98.2197266z M482.2304688,26.5953827
		C475.1321716,18.6855812,490.1402588,33.6952133,482.2304688,26.5953827L482.2304688,26.5953827z M448.4179993,50.0073242
		c0.0875244,0.0860405,0.0578613,0.0578575,0.1305847,0.1305466c0.1735229,0.1735649,0.3337402,0.3174591,0.361908,0.3619614
		c-0.0281677-0.0445023-0.188385-0.1883965-0.361908-0.3619614
		C448.4758606,50.0651817,448.5055237,50.0933647,448.4179993,50.0073242
		c-0.0860596-0.102356-0.2017517-0.2032318-0.2314148-0.2329025
		C448.2162476,49.8040924,448.3319397,49.9049683,448.4179993,50.0073242z M440.6239014,133.2337952
		c7.5923462,19.2819977,8.3014221,45.4309235,7.7940979,72.8111267
		c-2.7666626-6.7645721-5.1564941-13.9074249-13.0084534-15.6015472
		C433.5834045,165.467865,440.5527649,149.6334381,440.6239014,133.2337952z M445.8100891,221.647934
		c-0.2744446-0.2685089-0.3041077-0.2966919-0.2166138-0.2180634
		C445.5059814,221.3512421,445.5356445,221.379425,445.8100891,221.647934
		c0.2463074,0.2388306,0.5651855,0.557785,0.5651855,0.5726166
		C446.3752747,222.205719,446.0563965,221.8867645,445.8100891,221.647934z M446.3752747,230.0279846
		c0-0.0133514-0.3188782-0.3322906-0.5651855-0.5711212c-0.2744446-0.2685089-0.3041077-0.2981873-0.2166138-0.2180786
		c-0.0874939-0.0801086-0.0578308-0.0504303,0.2166138,0.2180786
		C446.0563965,229.695694,446.3752747,230.0146332,446.3752747,230.0279846z M445.8100891,216.4469299
		c-0.2744446-0.2685089-0.3041077-0.2966919-0.2166138-0.2165833
		C445.5059814,216.150238,445.5356445,216.178421,445.8100891,216.4469299
		c0.2463074,0.2388306,0.5651855,0.5577698,0.5651855,0.5726166
		C446.3752747,217.0046997,446.0563965,216.6857605,445.8100891,216.4469299z M425.0075378,104.6223373
		C423.9216309,103.5364456,426.7164917,106.3179321,425.0075378,104.6223373L425.0075378,104.6223373z M419.8065186,120.2253494
		c10.5904236,11.6911392,2.4625549,35.1742935,2.6079407,52.0219345
		C404.6975708,160.266861,420.8493958,139.6082153,419.8065186,120.2253494z M419.8065186,213.8538361
		c-0.0726624,2.520401-3.1730957,2.0130615-5.2009888,2.5930939
		C414.6930542,213.9265289,417.7934875,214.4338684,419.8065186,213.8538361z M406.8114319,109.8233414
		c8.3445129,4.6788254,3.3036499,34.5363998-5.1994629,39.0134811
		C402.5969238,133.4800568,411.0422668,123.2812805,406.8114319,109.8233414z M409.4045105,190.4433746
		C410.8968811,180.0117035,407.2178955,205.8283234,409.4045105,190.4433746L409.4045105,190.4433746z M406.1750183,205.2334595
		c-0.0444946,0.3486176-0.0726624,0.5652008-0.0726624,0.5800323
		C406.102356,205.7986603,406.1305237,205.582077,406.1750183,205.2334595
		c0.1157227-0.7521057,0.2892761-2.0130463,0.4776917-3.2873383c0.1305237-0.8411255,0.2462463-1.710434,0.3337708-2.3765106
		c0.0578613-0.4494781,0.1157227-0.7817688,0.1439514-0.9850159c-0.0282288,0.2032471-0.0860901,0.5355377-0.1439514,0.9850159
		c-0.0444946,0.361969-0.102356,0.7387695-0.1750488,1.274292c-0.0711975,0.464325-0.1008606,0.7105865-0.1587219,1.1022186
		C406.4212952,203.5393524,406.2610779,204.669754,406.1750183,205.2334595z M404.2049866,211.2459259
		C407.2178955,200.9744568,407.2178955,221.5322266,404.2049866,211.2459259L404.2049866,211.2459259z M399.0039978,232.0632935
		c6.7066956,0.6230469-3.578064,4.4622498,0,10.4020081C392.5272217,242.0736694,398.2355652,233.6580048,399.0039978,232.0632935z
		 M393.8029785,247.6663055C396.8158875,237.3800049,396.8158875,257.9377747,393.8029785,247.6663055L393.8029785,247.6663055z
		 M391.1950684,263.2678528C390.1225281,262.1819458,392.9040527,264.9634399,391.1950684,263.2678528L391.1950684,263.2678528z
		 M388.6020203,185.2423706C391.6148987,174.9709015,391.6148987,195.5138397,388.6020203,185.2423706L388.6020203,185.2423706z
		 M388.6020203,273.6698608C391.6148987,263.3983765,391.6148987,283.9413147,388.6020203,273.6698608L388.6020203,273.6698608z
		 M386.0088806,284.0718689C387.7044983,285.7808228,384.9082336,282.9859619,386.0088806,284.0718689L386.0088806,284.0718689z
		 M383.4009705,291.8659668C386.4138794,281.5944824,386.4138794,302.1507874,383.4009705,291.8659668L383.4009705,291.8659668z
		 M380.7930603,299.6748962c0.2462463,0.2388306,0.5651855,0.5562744,0.5651855,0.571106
		C381.3582458,300.2311707,381.0393066,299.9137268,380.7930603,299.6748962
		c-0.2744446-0.2685242-0.3041077-0.2981873-0.2165222-0.2180786
		C380.4889526,299.376709,380.5186157,299.4063721,380.7930603,299.6748962z M378.1999817,312.6833191
		c0.2388306,0.2388611,0.550354,0.5578003,0.5651855,0.5652161
		C378.7503357,313.2411194,378.4388123,312.9221802,378.1999817,312.6833191
		c-0.2744446-0.2684937-0.3041077-0.3041077-0.2165833-0.2165833
		C377.895874,312.3792114,377.9255371,312.4148254,378.1999817,312.6833191z M375.5921021,320.477417
		c0.2462158,0.2388306,0.565155,0.5578003,0.565155,0.5726318
		C376.1572571,321.0352173,375.8383179,320.7162476,375.5921021,320.477417
		c-0.2745056-0.2684937-0.3041687-0.2966919-0.2166443-0.2180481
		C375.2879333,320.1807251,375.3175964,320.2089233,375.5921021,320.477417z M372.9989624,325.6784363
		C376.0133667,315.4069519,376.0133667,335.9632568,372.9989624,325.6784363L372.9989624,325.6784363z M372.9989624,349.0888977
		c24.7440796-29.8575745,25.7290955-83.4875793,41.6065674-122.2399597c-0.3189392-6.4322815,3.1879578-4.41922,2.6079102,0
		c-21.2371826,119.8204346-70.4642639,238.6128235-91.0353394,366.7064819
		c-25.2648315,157.4365234-2.1881409,325.4263306,52.0218811,447.3190918
		c-0.1884155-27.5537109-20.2818604-57.7153931-20.8025513-93.6135864
		c21.4700928,60.8737183,44.0839233,120.6170044,78.0121155,169.0608521
		c-21.9907837-10.1112061-36.9128418-49.776001-59.8174438-67.6234131
		c-4.4904785,20.7728271,18.587738,41.692627,33.8124084,59.8011475
		c16.7037659,19.8753662,37.6234741,36.3625488,46.8075867,52.0085449
		c-122.9638977-91.7028809-223.8806-257.9259644-195.0510864-452.5126953
		c11.9374084-80.5265503,39.694458-155.2053833,65.0170898-231.4655151
		c7.0982971-6.8951111-15.9650269,41.171936-2.5931396,49.4154663c13.603302-10.6630859,8.736084-39.8248901,18.2094421-54.6164551
		c0.0726929-10.1691284-13.0959473-0.4628601-13.0084229-5.1995239c7.8653259-18.7034607,7.5329895-48.5610352,26.00354-49.4154968
		c0.7239075-6.7942505,0.8841248-13.0232849-7.8089294-10.4153748c7.721405-25.2217407,18.6010742-47.2718811,23.4119263-75.4190369
		C378.6197815,334.9070129,367.1467285,346.4958191,372.9989624,349.0888977z M346.9805908,897.8305664
		c8.8666687,1.5650635,5.6504822,15.1832275,7.8089294,23.4119873
		C347.8217468,917.8231812,350.4726562,904.7553711,346.9805908,897.8305664z M352.1964111,926.4569092
		C364.771698,938.3067627,351.6608887,951.4324341,352.1964111,926.4569092L352.1964111,926.4569092z M349.588501,892.6444092
		c-32.0308228-133.1923218-16.8921509-278.8219604,13.0099487-405.7125549
		C343.894989,604.7540894,326.815979,762.3493042,349.588501,892.6444092z M430.2233887,1157.9283447
		c-0.7965698,5.0704346-19.8190308-14.2263184-28.6114197-18.2242432
		C412.8965759,1133.7064209,420.2842102,1153.9304199,430.2233887,1157.9283447z M396.4109192,1134.5179443
		C398.105011,1136.2268066,395.3086853,1133.4171143,396.4109192,1134.5179443L396.4109192,1134.5179443z M362.5984497,151.4299011
		C365.6113281,141.158432,365.6113281,161.7013702,362.5984497,151.4299011L362.5984497,151.4299011z M362.5984497,276.2629395
		C364.2925415,277.9733582,361.4977112,275.177063,362.5984497,276.2629395L362.5984497,276.2629395z M359.990509,164.4383545
		c5.505127,0.8262787,0.5652161,12.3290253-5.2009888,10.4020081
		C356.1365051,170.9863434,358.6435242,168.2775421,359.990509,164.4383545z M349.588501,148.8368225
		C352.6014099,138.5653534,352.6014099,159.1082916,349.588501,148.8368225L349.588501,148.8368225z M357.3974304,185.2423706
		c-1.1452332,3.2013092-3.3318481,5.3449097-7.8089294,5.201004
		C348.3720703,184.8937683,353.2971497,185.4886322,357.3974304,185.2423706z M349.588501,200.8439026
		c5.1283264,4.4622498-11.473053,12.4165497-7.7940979,2.6079254
		C342.1712036,202.4386292,347.29953,198.8456879,349.588501,200.8439026z M344.3875122,161.8319092
		c4.6224365,1.9121857,0.3768005,4.7366943,0,7.8074493C339.766571,167.7271729,344.0107117,164.9026794,344.3875122,161.8319092z
		 M339.1864929,177.448288c7.7940979,1.7089386-2.4906616,5.5481262,0,10.4020081
		C330.4801331,185.4886322,336.9123535,182.0262299,339.1864929,177.448288z M341.7944031,216.4469299
		c1.1007385,5.4472504-1.7964478,6.8951111-2.6079102,10.4020081
		C331.6401367,226.384613,332.9144287,214.4917297,341.7944031,216.4469299z M331.3938904,245.0583954
		c-4.6654663,0.3337708-5.4917603-3.1864777-10.4020081-2.5930939c0.0281677-5.1713257,7.0834961-3.3170166,5.1862183-10.4020081
		c4.6639404-0.3322906,5.4902344,3.173111,10.401947,2.5930939
		C336.5503845,239.8291931,329.4950562,237.9600372,331.3938904,245.0583954z M328.7859802,265.8624268
		c-0.3189697-4.6654968,3.1864624-5.4769287,2.6079102-10.4020233
		C338.9268799,255.9380798,337.651123,267.817627,328.7859802,265.8624268z M320.9918823,276.2629395
		c0.0578613-2.5203857,3.1730957-2.0130615,5.1862183-2.5930786
		C326.1201782,276.2050781,322.9900818,275.6843872,320.9918823,276.2629395z M323.5849609,328.2863464
		C325.2790833,329.9953003,322.4975891,327.1989746,323.5849609,328.2863464L323.5849609,328.2863464z M315.7760315,351.6819763
		c-7.5477905-3.6211243,0.7387695-12.8200378,2.6079102-15.601532
		C326.815979,340.5990601,311.6327209,342.9028625,315.7760315,351.6819763z M320.9918823,333.4858704
		C322.6859741,335.1962891,319.8911438,332.3999939,320.9918823,333.4858704L320.9918823,333.4858704z M318.3839417,260.6614075
		c0-2.5930786,0-5.201004,0-7.7940979c2.6079407,0,5.2010193,0,7.7941589,0
		C323.4114075,255.2868347,325.3666077,262.4578857,318.3839417,260.6614075z M328.7859802,193.0513
		c7.5329895,0.4628448,6.2572021,12.3572083-2.6078796,10.400528
		C325.8591003,198.7878418,329.364502,197.9615479,328.7859802,193.0513z M328.7859802,211.2459259
		c-3.6508179,3.2888184-0.1453552,13.7338562-10.4020386,10.4020081
		C317.167511,213.5200653,320.6432495,210.0443115,328.7859802,211.2459259z M310.5750427,226.848938
		c5.4324036-1.1007233,6.8817444,1.7816315,10.4168396,2.6079254c-2.9417114,4.867218-3.0856018,12.5307617-13.0099487,10.400528
		C305.8383484,232.5127869,311.647583,233.1210022,310.5750427,226.848938z M305.3740234,247.6663055
		c1.7386169,0,3.4772644,0,5.2010193,0c0,1.7237854,0,3.4624023,0,5.201004c-1.7237549,0-3.4624023,0-5.2010193,0
		C305.3740234,251.1287079,305.3740234,249.3900909,305.3740234,247.6663055z M307.9819336,271.0619507
		C310.9963379,260.7919617,310.9963379,281.3482361,307.9819336,271.0619507L307.9819336,271.0619507z M305.3740234,330.879425
		c0.2477417,0.2388611,0.5651855,0.5578003,0.5651855,0.5711365
		C305.939209,331.4372253,305.6217651,331.1182861,305.3740234,330.879425
		c-0.2744446-0.2684937-0.3041077-0.2981567-0.2165222-0.2180481
		C305.0699158,330.5812683,305.0995789,330.6109314,305.3740234,330.879425z M302.7675781,226.848938
		C301.6950378,225.7615662,304.476532,228.5578766,302.7675781,226.848938L302.7675781,226.848938z M300.1744995,232.0632935
		C299.0871277,230.9625702,301.8686218,233.7588806,300.1744995,232.0632935L300.1744995,232.0632935z M298.1317749,227.3993073
		c-0.0875244-0.0726929-0.3486023-0.3486176-0.550354-0.5503693
		C297.7831726,227.0506897,298.0442505,227.3266144,298.1317749,227.3993073z M294.9735107,268.4688416
		C296.6824341,270.1792908,293.8727722,267.3829651,294.9735107,268.4688416L294.9735107,268.4688416z M294.9735107,297.0803223
		C293.8727722,295.9795837,296.6824341,298.7759094,294.9735107,297.0803223L294.9735107,297.0803223z M292.3655701,341.2799683
		C295.378479,331.0099792,295.378479,351.5662537,292.3655701,341.2799683L292.3655701,341.2799683z M287.1794128,242.4653015
		c1.7237854,0,3.4623718,0,5.1861572,0c0,2.5930939,0,5.201004,0,7.7940979c-2.5930786,0-5.1861572,0-7.7940979,0
		C283.8475647,246.0582428,287.0340271,245.7823181,287.1794128,242.4653015z M266.3753967,299.6748962
		C277.646698,300.7607727,263.6235657,314.7690735,266.3753967,299.6748962L266.3753967,299.6748962z M266.3753967,312.6833191
		C275.9807739,320.5649414,258.4655762,321.4327698,266.3753967,312.6833191L266.3753967,312.6833191z M266.3753967,336.0804443
		C268.0561829,337.7893982,265.2746582,334.9930725,266.3753967,336.0804443L266.3753967,336.0804443z M253.3669281,330.879425
		C255.0759277,332.5883789,252.2662048,329.7920532,253.3669281,330.879425L253.3669281,330.879425z M255.9748535,343.8878784
		c-0.0875244,2.5352478-3.1879578,2.0145569-5.2157898,2.5930786
		C250.8317108,343.9605713,253.9469604,344.467926,255.9748535,343.8878784z M240.3570099,310.0754089
		c0.1750488,0.173584,0.1453705,0.1453857,0.2328949,0.2314148
		C240.5023804,310.2207947,240.5320587,310.2489929,240.3570099,310.0754089
		c-0.0859985-0.0726929-0.1735687-0.1735535-0.2314301-0.2165833
		C240.1834412,309.9018555,240.2710114,310.0027161,240.3570099,310.0754089z M235.157486,338.6868896
		C238.9521637,330.0679932,241.632782,348.8277893,235.157486,338.6868896L235.157486,338.6868896z M237.7505646,372.4993591
		C236.6780243,371.4134521,239.4595184,374.1949463,237.7505646,372.4993591L237.7505646,372.4993591z M227.3485565,434.9099426
		C236.0846405,428.6215515,221.0616608,443.6445312,227.3485565,434.9099426L227.3485565,434.9099426z M222.162384,385.4944458
		C230.8836365,379.20755,215.8740082,394.2305298,222.162384,385.4944458L222.162384,385.4944458z M219.5544586,401.0974731
		C228.2757111,394.8239136,213.2675629,409.8320618,219.5544586,401.0974731L219.5544586,401.0974731z M222.162384,450.5114746
		c-1.1452332,3.2012939-3.3318481,5.3463745-7.8089294,5.2158203
		C213.1370239,450.1643372,218.0769348,450.7725525,222.162384,450.5114746z M211.760376,468.7224121
		c-1.1585388,3.7798462-2.2889862-0.2611084-5.2158356,0C207.1824188,465.4617615,211.7306976,466.0996399,211.760376,468.7224121z
		 M209.1524506,401.0974731c0.1736145,0.1735535,0.1453857,0.1438904,0.2314148,0.2314148
		C209.2978363,401.2413635,209.3260651,401.2710266,209.1524506,401.0974731
		c-0.0860443-0.0726929-0.1735687-0.1750488-0.2314148-0.2180786
		C208.9788818,400.9224243,209.0664062,401.0247803,209.1524506,401.0974731z M203.9380951,447.918396
		c1.7371368,0,3.4757385,0,5.2143555,0c0,1.7237549,0,3.4623718,0,5.2009888c-1.7386169,0-3.4772186,0-5.2143555,0
		C203.9380951,451.3807678,203.9380951,449.6421509,203.9380951,447.918396z M196.1440125,481.7308655
		c4.2011414-0.7387695,4.4904175,2.4491882,7.7940826,2.5930786
		C204.9809723,489.3795776,192.1015778,488.1349487,196.1440125,481.7308655z M193.536087,499.9269714
		C202.272171,493.6534119,187.2625427,508.6615601,193.536087,499.9269714L193.536087,499.9269714z M190.9429932,424.5079346
		c1.7386627,0,3.4624023,0,5.2010193,0c0,2.6079102,0,5.2009888,0,7.8089294c-2.6079254,0-5.2010193,0-7.7940521,0
		C187.611145,428.1156921,190.8125,427.8397827,190.9429932,424.5079346z M188.3499603,445.3104553
		C191.3628235,435.0404663,191.3628235,455.5967712,188.3499603,445.3104553L188.3499603,445.3104553z M188.3499603,460.9134827
		c5.432373-1.0873718,6.8668823,1.7964783,10.4004822,2.6079102
		C199.5767212,468.1127014,184.1769409,468.1705627,188.3499603,460.9134827z M188.9076996,482.2886353
		c0,0-0.13797-0.1305542-0.5577393-0.5577698c-0.0801544-0.0801086-0.188446-0.1884155-0.2255249-0.223999
		c0.0370789,0.0355835,0.1453705,0.1438904,0.2255249,0.223999
		C188.7697296,482.1580811,188.9151154,482.296051,188.9076996,482.2886353z M185.7419891,518.1364136
		c0.2462616,0.2388306,0.5652008,0.5578003,0.5652008,0.5726318
		C186.3071899,518.6942139,185.9882507,518.3752441,185.7419891,518.1364136
		c-0.2759247-0.2684937-0.3041077-0.2966919-0.2180634-0.2166138
		C185.4378815,517.8397217,185.4660645,517.8679199,185.7419891,518.1364136z M177.9479065,499.9269714
		c-1.7386169,0-3.4772339,0-5.2158508,0c0.4925079-2.2029419-1.0131989-2.4492188-2.5930786-2.5931091
		C169.1109467,492.2915955,181.9754944,493.5228577,177.9479065,499.9269714z M170.1389771,476.5298462
		C176.615799,466.388916,173.9351501,485.150238,170.1389771,476.5298462L170.1389771,476.5298462z M177.9479065,479.1229248
		C180.9608002,468.8514709,180.9608002,489.4092407,177.9479065,479.1229248L177.9479065,479.1229248z M172.7320557,512.9354248
		C175.7464447,502.6639404,175.7464447,523.2216797,172.7320557,512.9354248L172.7320557,512.9354248z M180.5409851,528.5384521
		c-0.4198151,3.0559082-4.7366791,2.1865845-7.8089294,2.6079102
		C173.1667175,528.0889282,177.4850616,528.9434204,180.5409851,528.5384521z M180.5409851,515.543335
		C179.4550934,514.442627,182.2365875,517.2388916,180.5409851,515.543335L180.5409851,515.543335z M175.3400269,445.3104553
		C177.050415,447.0209045,174.2392578,444.2245789,175.3400269,445.3104553L175.3400269,445.3104553z M170.1389771,455.7272949
		c4.9695892,1.085907,11.1986237,0.9271851,10.4020081,7.7940979
		C173.7467499,464.2453308,167.5177002,464.4040527,170.1389771,455.7272949z M175.3400269,546.7478638
		c-4.5053101,7.2867432-6.8090668,2.4492188-15.6015778,2.5930786
		C159.7814636,542.2277832,172.0081329,543.1697998,175.3400269,546.7478638z M149.336441,549.3409424
		c0.2165833-3.6789551,0.4198151-7.359436-2.5930939-7.7940674c1.4923706-7.8519287,17.3980103,4.5497437,7.7940979,7.7940674
		C152.7988281,549.3409424,151.0602112,549.3409424,149.336441,549.3409424z M152.2484741,586.0951538
		c-0.0430298,0.3545532-0.1453857,1.0428467-0.3189545,2.2592773c-0.2165833,1.5279541-0.3619537,2.5500488-0.4776764,3.3392944
		c-0.0652618,0.4420776-0.1157074,0.8114014-0.160202,1.0932617c-0.1082916,0.7684326-0.0860443,0.6453247,0,0
		c0.0370789-0.2521362,0.0875244-0.6156006,0.160202-1.0932617
		C151.7188721,589.8393555,152.1179199,587.0148926,152.2484741,586.0951538
		C152.3063202,585.7109375,152.3063202,585.746521,152.2484741,586.0951538z M159.7384491,479.1229248
		c-2.1005707-0.4924927-2.5930786-2.6079102-5.201004-2.5930786c0.4925079-2.1154175,2.6079254-2.5930786,2.6079254-5.2009888
		c2.1005707,0.4924927,2.5782471,2.6079102,5.1861572,2.5930786
		C161.8390198,476.0373535,159.7236176,476.5150146,159.7384491,479.1229248z M162.3315277,497.3338623
		c-2.1005707-0.4924927-2.5797272-2.6079102-5.1861572-2.6079102c0-1.7237854,0-3.4624023,0-5.2010193
		C162.6786652,488.3085022,162.0986328,493.2484131,162.3315277,497.3338623z M159.7384491,525.9453125
		c-0.3189392,7.3876343-11.0977478,4.9978027-10.4020081-2.6079102
		C154.7688599,522.2366943,156.2182465,525.1190796,159.7384491,525.9453125z M146.7433472,512.9354248
		c0-3.4624023,0-6.9381409,0-10.4005432C156.9999847,500.7384033,155.2465363,513.4857788,146.7433472,512.9354248z
		 M164.9394531,564.9588013c-1.3766479,2.0857544-2.7102814,4.2145386-2.6079254,7.7941284
		c-2.0872192-1.3766479-4.2159882-2.7103271-7.7940826-2.5946045
		C156.2463837,566.6677856,160.1004181,565.3059692,164.9394531,564.9588013z M164.9394531,515.543335
		c-2.1154022-0.4924927-2.5945129-2.6079102-5.201004-2.6079102c0-1.7386475,0-3.4624023,0-5.2010193
		C165.2865906,506.5179749,164.6932068,511.4578857,164.9394531,515.543335z M157.1453705,460.9134827
		c-1.7386169,0-3.4772339,0-5.2158508,0c0-3.4624023,0-6.9247742,0-10.4020081
		c4.6654816-0.3189392,5.4903259,3.1879578,10.4020081,2.6079102
		C160.1004181,455.2199707,160.7961578,460.247406,157.1453705,460.9134827z M149.336441,437.5163574
		c1.7237701,0,3.4623871,0,5.201004,0c0,1.7386169,0,3.4624023,0,5.2010193c-1.7386169,0-3.4772339,0-5.201004,0
		C149.336441,440.9787598,149.336441,439.2549744,149.336441,437.5163574z M146.7433472,489.5249329
		C144.5419006,504.9098816,148.220871,479.0947571,146.7433472,489.5249329L146.7433472,489.5249329z M136.3413391,598.7713013
		c-7.3297119-2.6376343,0.6957855-11.0547485,0-15.6178589
		C147.4391022,582.4295044,136.5015564,594.5552979,136.3413391,598.7713013z M112.9309311,619.5738525
		c-18.4557571,4.1729126-8.286644-24.9903564,2.5930405-13.0084839
		C116.5816727,612.8374634,110.7724533,612.2143555,112.9309311,619.5738525z M110.3229599,668.967041
		C108.1215134,684.3519897,111.8004837,658.5650635,110.3229599,668.967041L110.3229599,668.967041z M107.7150421,629.9758301
		C106.6291504,628.8751221,109.4254684,631.6699219,107.7150421,629.9758301L107.7150421,629.9758301z M110.3229599,726.1900024
		c-3.7368317-3.1864624-4.9250793-8.9230347-5.2158356-15.5881958
		C114.5241165,708.1392822,108.7579117,720.8302612,110.3229599,726.1900024z M102.5288696,697.5933838
		c-17.1814117-15.3849487-6.6636963-43.4327393-5.2143555-67.6175537
		C116.2478943,643.9989624,99.2400436,670.1834717,102.5288696,697.5933838z M99.9209976,897.8305664
		c-3.5336456-0.7817383-2.1584778-6.4901123-2.6064835-10.4005127
		C106.397728,885.1114502,101.7619247,895.918396,99.9209976,897.8305664z M84.3045807,705.3874512
		c2.0857468,9.0386963-3.8673706,9.9955444-2.5930862,18.1946411
		c-12.4447327-12.6895142-20.2966766-31.8128052-15.6030121-54.6150513c4.1151123-0.203186,9.9095001,1.274292,10.4020081-2.5782471
		c10.228447-1.3618164,13.8213882,35.9560547,0,33.8125C75.2940598,705.7345581,80.2191391,705.154541,84.3045807,705.3874512z
		 M68.7164001,804.2169189c-9.5327034,0-19.0787582,0-28.626297,0c-3.5781021-3.3615112-2.5633736-11.2994995-2.5782051-18.196106
		C57.8946152,779.9653931,64.0227356,788.8319702,68.7164001,804.2169189z M37.511898,778.1985474
		c0-7.7940674,0-15.5881958,0-23.3822632c12.8645058,0.9850464,14.3717003,13.3273926,18.1960564,23.3822632
		C50.0871277,772.3448486,46.84132,780.3718262,37.511898,778.1985474z M47.9138641,645.5773926
		c3.4475555,0,6.9248276,0,10.4020081,0c2.0857887,9.0179443-3.8836937,10.0043945-2.6079178,18.2034912
		C50.492157,660.333313,49.9120827,652.2484741,47.9138641,645.5773926z M60.9089584,702.779541
		c4.9681015,5.4472656,8.3874741,12.4298706,10.400528,20.8025513
		C56.1426086,728.3632812,61.8643074,712.2247314,60.9089584,702.779541z M63.5020905,775.6188354
		c0-6.9530029,0-13.8777466,0-20.8025513c5.4457321,1.100708,6.8950729-1.7964478,10.4004822-2.6079102
		c-0.3768005-5.7068481-6.5479889-5.5911865-12.9936142-5.2143555c0-5.1861572,0-10.4020386,0-15.5881958
		c3.6938095,0.2314453,7.359436,0.4346313,7.8074417-2.6079102c15.8062973,4.9829102,12.7191772,28.8873901,12.9950943,49.4006348
		C73.4975891,779.5025024,72.5274048,773.5330811,63.5020905,775.6188354z M81.7114944,733.9840698
		C83.4204407,735.6930542,80.6256027,732.9115601,81.7114944,733.9840698L81.7114944,733.9840698z M79.1184158,783.4129028
		c2.3038559,6.3462524,6.0554733,11.2713623,5.1861649,20.8040161c-4.1135788,0.2032471-9.9095001-1.2460938-10.4020081,2.6079712
		c-5.6786804-4.7233276-0.4346542-20.3693848-5.1861725-26.0184326
		C71.0350494,782.8343506,74.5835266,783.6161499,79.1184158,783.4129028z M99.9209976,780.8064575
		c-6.749733-13.618103-15.7321243-31.437439-10.4005737-49.4006348c2.6064377,0,5.1861725,0,7.7940903,0
		C96.53125,759.4238892,102.0942154,755.1633911,99.9209976,780.8064575z M89.5204239,723.5820923
		c0.6942596-10.7773438-3.4193726-10.1112671,0-18.1946411c7.8222733,1.7089233,10.0830688,8.980835,10.4005737,18.1946411
		C96.4452057,723.5820923,92.9828186,723.5820923,89.5204239,723.5820923z M89.5204239,697.5933838
		C92.533371,687.3070679,92.533371,707.8781738,89.5204239,697.5933838L89.5204239,697.5933838z M86.9125061,567.5518799
		c0.637886-3.2739868,5.1713333-2.6227417,5.2143555,0C90.968277,571.333252,89.8393707,567.2908325,86.9125061,567.5518799z
		 M89.5204239,611.7648926C87.3174896,627.1498413,90.9979477,601.3347168,89.5204239,611.7648926L89.5204239,611.7648926z
		 M84.3045807,640.3763428c-1.8691559-7.9528198,2.6658249-9.4881592,2.6079254-15.6015015
		C90.8822403,624.8178711,92.6208496,644.0419922,84.3045807,640.3763428z M76.5104904,614.3579712
		c0-5.1995239,0-10.4005127,0-15.5866699c2.0857468,1.3618164,4.2308273,2.7088013,7.7940903,2.5930786
		C84.8267593,608.8098755,84.6383591,615.5610962,76.5104904,614.3579712z M73.9025726,622.1669312
		C89.5204239,626.541626,72.324173,651.9310303,73.9025726,622.1669312L73.9025726,622.1669312z M79.1184158,663.7808838
		c-12.386879,2.8393555-10.6185989-8.460144-10.4020157-18.2034912
		C76.9169617,646.8961792,75.9022751,657.4642944,79.1184158,663.7808838z M81.7114944,655.9868164
		c0-3.4772339,0-6.9544678,0-10.4094238c1.7237854,0,3.4623947,0,5.2010117,0c0,3.4549561,0,6.9321899,0,10.4094238
		C85.1738892,655.9868164,83.4352798,655.9868164,81.7114944,655.9868164z M86.9125061,767.7965698
		c3.8540192,2.2310791,5.5912018,6.5479736,5.2143555,13.0098877
		C86.4199982,780.4296875,86.5357056,774.2584839,86.9125061,767.7965698z M86.9125061,786.020813
		c6.2587585-1.0710449,5.6490097,4.7515259,13.0084915,2.5783081c0,6.085144,0,12.140625,0,18.225769
		c-5.1565475-4.3465576-3.3022232,0.2313843-10.4005737,0C85.492836,803.0286865,87.2314453,793.5256348,86.9125061,786.020813z
		 M89.5204239,812.0110474c11.9952469-0.550354-4.1433029,12.1969604,10.4005737,10.4005127
		c2.2177277,8.3162842-2.2593536,9.8813477-5.2144012,13.0099487
		C85.521019,828.1495972,87.7387924,821.1372681,89.5204239,812.0110474z M105.1071243,528.5384521
		c6.0421219,0.723877,5.9976196,6.9529419,2.6079178,10.4019775
		C104.1947937,538.142334,105.5714417,532.4354858,105.1071243,528.5384521z M115.5239716,936.8588867
		C118.5368729,926.5726318,118.5368729,947.1437378,115.5239716,936.8588867L115.5239716,936.8588867z M110.3229599,596.1633911
		c-3.042572-0.4198608-2.2014465-4.7515259-2.6079178-7.80896c4.6654739-0.3322754,5.4902802,3.1879883,10.4020081,2.6079102
		C117.5370178,594.6992188,110.3526306,591.8598633,110.3229599,596.1633911z M118.1170502,877.0280762
		C121.1299591,866.7714233,121.1299591,887.3128662,118.1170502,877.0280762L118.1170502,877.0280762z M120.7249756,533.7394409
		c3.4772263,0,6.9247818,0,10.4020081,0c0,3.475708,0,6.9381104,0,10.4005127
		C122.1728745,546.1693115,118.6970825,542.6920776,120.7249756,533.7394409z M133.733429,614.3579712
		c-3.5335999-0.7966309-2.1717834-6.503479-2.6064453-10.4005127
		C140.2102051,601.6387939,135.5595551,612.4458008,133.733429,614.3579712z M136.3413391,520.7443237
		C139.3408966,510.4580383,139.3408966,531.0158081,136.3413391,520.7443237L136.3413391,520.7443237z M136.3413391,512.9354248
		c-6.0984497-0.6660767-1.5057068-11.4300537,0-13.0084534
		C142.4264832,500.5930176,137.8336945,511.3569946,136.3413391,512.9354248z M131.1269836,466.1293335
		c4.6358032,1.8973389,0.3753204,4.7218323,0,7.7926025C126.4911804,472.0245972,130.7501831,469.2000732,131.1269836,466.1293335z
		 M131.1269836,481.7308655c4.2011566-0.7387695,4.4904327,2.4491882,7.7926025,2.5930786
		c-2.0130463,2.318634-2.7814789,5.881897-2.5782471,10.4020081
		C129.7785187,494.1029053,125.5640182,487.0624084,131.1269836,481.7308655z M128.5190582,525.9453125
		c-2.5930328,0-5.1861649,0-7.7940826,0c1.3766479-2.1005249,2.7088394-4.2307739,2.6079178-7.8088989
		C126.5194092,519.2667847,128.6629639,521.4682617,128.5190582,525.9453125z M118.1170502,497.3338623
		c3.8673782,2.2014465,5.5926437,6.5480042,5.2158432,12.9936218
		C114.5819702,513.0081177,119.2756348,502.2441101,118.1170502,497.3338623z M112.9309311,583.1534424
		c-1.7386627,0-3.477272,0-5.215889,0c0-1.7238159,0-3.4624023,0-5.2009888c1.7386169,0,3.4772263,0,5.215889,0
		C112.9309311,579.69104,112.9309311,581.4296265,112.9309311,583.1534424z M110.3229599,541.546875
		C113.3358688,531.2769165,113.3358688,551.8183594,110.3229599,541.546875L110.3229599,541.546875z M105.1071243,502.5348816
		C108.9032898,493.9144897,111.5972519,512.6743164,105.1071243,502.5348816L105.1071243,502.5348816z M107.7150421,512.9354248
		C118.0591965,526.3948364,94.1695862,522.9754639,107.7150421,512.9354248L107.7150421,512.9354248z M105.1071243,577.9524536
		c-0.0578537,2.5352173-3.1716385,2.0145264-5.1861267,2.6079102
		C99.9936447,578.0251465,103.108902,578.5473022,105.1071243,577.9524536z M89.5204239,525.9453125
		c8.4304962,4.5053101-6.7660522,6.809082-2.6079178,15.6015625c5.344902-0.723938,5.1861649-6.9530029,7.7940903-10.4005127
		c3.7516632,0.5785522,0.9272079,7.7495728,5.2144012,7.7940674c-4.9829865,9.7774658-9.9659195,6.0109863-18.2095032,2.6064453
		C81.595787,533.6237183,87.2017746,531.4356079,89.5204239,525.9453125z M81.7114944,590.9623413
		C80.6256027,589.8764648,83.4204407,592.657959,81.7114944,590.9623413L81.7114944,590.9623413z M76.5104904,564.9588013
		c-0.0726395,2.5203857-3.18647,2.0130615-5.201004,2.5930786C71.3821793,565.0300293,74.482605,565.5373535,76.5104904,564.9588013
		z M63.5020905,577.9524536c2.6063919,0,5.2143097,0,7.8073959,0c-0.3189468,6.6206665-3.7813339,10.0830688-10.400528,10.4019775
		C62.9220123,586.0372925,63.7037964,582.4873657,63.5020905,577.9524536z M53.1000328,603.9574585
		c7.5908585-3.8243408,7.5908585,11.6317749,0,7.8074341C53.1000328,609.1584473,53.1000328,606.5653687,53.1000328,603.9574585z
		 M60.9089584,622.1669312c-0.0148354,4.331665,0,8.6782227,0,13.0098877c-5.201004,0-10.4168015,0-15.6030159,0
		C47.8841934,628.2075806,49.6524773,620.4431152,60.9089584,622.1669312z M42.6980209,671.5749512
		c4.2011566-0.7254028,4.4919128,2.4625854,7.794136,2.6079712c8.3874321,26.7423096-5.7662468,46.0969849,2.6078758,72.8110962
		C33.571785,734.8237305,30.8184872,694.0879517,42.6980209,671.5749512z M24.5034027,744.3861084
		C22.3004684,759.7992554,25.9809284,733.9840698,24.5034027,744.3861084L24.5034027,744.3861084z M24.5034027,760.0024414
		c2.2593079-4.8390503,6.4307938,19.0075684,2.6064377,20.8040161
		C17.6068039,779.038208,27.6602039,770.4623413,24.5034027,760.0024414z M27.1098404,832.8135986
		c-9.3294716-4.9829712,0.0726891-15.5881958-5.2143574-25.9887085
		C32.6728096,806.4480591,24.6191139,824.9334717,27.1098404,832.8135986z M29.6895752,874.420166
		C31.1952858,864.0181274,27.5014725,889.8347778,29.6895752,874.420166L29.6895752,874.420166z M29.6895752,799.0010986
		c-0.391634,0.4064941-5.027441-8.7494507-5.1861725-7.7940674
		C25.6901703,784.022644,33.6578255,795.0610352,29.6895752,799.0010986z M32.2960129,658.5650635
		C34.0064392,660.2754517,31.2101192,657.4940186,32.2960129,658.5650635L32.2960129,658.5650635z M34.9039307,741.8078613
		c5.5347824-1.2179565,4.9547539,3.7086182,5.1861725,7.7926025c-2.085743-0.4924927-2.5782051-2.6064453-5.1861725-2.6064453
		C34.9039307,745.2553711,34.9039307,743.5449829,34.9039307,741.8078613z M37.511898,806.8248901
		c17.0656586,5.9679565,24.5259743,2.4328613,46.7926826,5.1861572c-4.5052643,8.6633911,1.3187943,11.5308838,0,23.4104614
		c-4.316864,0-8.6633987,0-12.9950943,0c2.9120331-8.1708984,0.2329483-5.881897,0-15.5881958
		c-7.359436-0.4346313,2.158432,16.0228271-5.201004,15.5881958c-12.1109581,0.8395996-4.5482864-17.9928589-10.400528-23.4104614
		c-10.9953957,1.1585693-8.4023094,15.9056396-13.0099335,23.4104614
		C36.5416679,830.3213501,37.4109764,818.182251,37.511898,806.8248901z M53.1000328,864.0181274
		C54.6072273,853.6176147,50.9119339,879.4327393,53.1000328,864.0181274L53.1000328,864.0181274z M47.9138641,866.6260376
		C49.6079712,868.3349609,46.8131828,865.5535278,47.9138641,866.6260376L47.9138641,866.6260376z M47.9138641,887.4300537
		C49.6079712,889.1390381,46.8131828,886.3575439,47.9138641,887.4300537L47.9138641,887.4300537z M47.9138641,856.2240601
		C49.6079712,857.9344482,46.8131828,855.1529541,47.9138641,856.2240601L47.9138641,856.2240601z M45.3059425,879.6359863
		C48.3188477,869.3793335,48.3188477,889.9207764,45.3059425,879.6359863L45.3059425,879.6359863z M37.511898,887.4300537
		c0.203186,0.2017822,0.4642754,0.4925537,0.5503159,0.550354C37.9761734,887.9226074,37.7150841,887.6318359,37.511898,887.4300537
		z M42.6980209,851.0378418c-5.6356583,0.4346924-1.1734161-9.2419434-2.6079178-13.0084229
		C44.610199,840.4044189,46.8264885,847.1556396,42.6980209,851.0378418z M45.3059425,905.6543579
		c4.7233315,3.0707397,2.0427208,13.5588379,5.1862144,18.1946411
		C40.6123238,925.9362183,47.1899338,911.5644531,45.3059425,905.6543579z M47.9138641,960.2693481
		C50.9119339,949.9845581,50.9119339,970.5556641,47.9138641,960.2693481L47.9138641,960.2693481z M50.492157,931.6430664
		C53.5198517,921.3864136,53.5198517,941.9293823,50.492157,931.6430664L50.492157,931.6430664z M55.7079544,908.232605
		C57.4168968,909.9415283,54.6072273,907.1600952,55.7079544,908.232605L55.7079544,908.232605z M58.3158722,897.8305664
		c-3.9118805-5.6207886-4.4340553-14.6313477-5.2158394-23.4104004
		C63.2988091,873.6087036,62.4295044,892.4130249,58.3158722,897.8305664z M63.5020905,840.6373291
		c8.0255127,0.6364136,14.7173462,2.6361084,20.8024902,5.1861572c-1.5353775,13.211731,2.2311249,19.9629517-5.1861649,23.4104614
		c-10.1987839,2.4047241-1.8839951-13.7041626-7.8089294-15.616333c-5.7513657,0.3471069-1.1007233,11.0383911-2.5930862,15.616333
		C61.8791428,865.3220825,59.0828209,847.590332,63.5020905,840.6373291z M68.7164001,884.8503418
		c-0.1082916,0.7536011-0.195816,1.3336182-0.2743912,1.8839722c-0.1024094,0.723938-0.2032776,1.4196777-0.2759705,1.9700317
		c-0.028183,0.1453857-0.0430222,0.2314453-0.0578537,0.3189697c-0.0578537,0.4628296-0.1008759,0.7536011-0.115715,0.8114624
		c0.0148392-0.0578613,0.0578613-0.3486328,0.115715-0.8114624c0.0148315-0.0875244,0.0296707-0.173584,0.0578537-0.3189697
		c0.0578537-0.4642944,0.1602097-1.1585693,0.2759705-1.9700317
		C68.8973846,883.5033569,69.4625778,879.6063232,68.7164001,884.8503418z M63.5020905,905.6543579
		c5.1861267,1.100708,11.849823,13.9074097,5.2143097,18.1946411
		C58.8217316,925.9362183,65.3993912,911.5644531,63.5020905,905.6543579z M66.1084824,968.0634766
		c3.7234802,3.2161255,4.9265671,8.9526367,5.201004,15.616333
		C64.6606293,983.390564,66.1381531,974.9585571,66.1084824,968.0634766z M63.5020905,944.6530151
		c5.0704117,5.3597412,7.2421951,13.5587769,10.4004822,20.8025513
		C65.384552,963.6011963,63.7616501,954.8220825,63.5020905,944.6530151z M86.9125061,879.6359863
		c-2.7814865,8.6915894,0.8262863,8.8948364-2.6079254,18.1945801c-8.4319763-1.9403076-11.284668-9.5029907-10.4020081-20.8024902
		C79.9447021,876.2166138,83.8996429,877.4627075,86.9125061,879.6359863z M81.7114944,903.0464478
		c6.9974747-0.723938,7.4024582,18.3118286,2.5930862,20.8025513
		C74.482605,925.5593872,79.437355,905.6246948,81.7114944,903.0464478z M87.1157379,1008.3363647
		c-0.1453323,1.0147095-0.3634491,2.4922485-0.5518494,3.7680054c-0.3471298,2.5203857-0.5785446,4.1136475,0,0
		c0.1023636-0.6675415,0.2032394-1.3914795,0.3486176-2.4343262
		C86.9985428,1009.1196289,87.0578842,1008.7131958,87.1157379,1008.3363647
		c0.0578537-0.4628296,0.1157074-0.8099365,0.143898-0.9849854
		C87.2314453,1007.5264282,87.1735916,1007.8735352,87.1157379,1008.3363647z M84.3045807,970.6713867
		c3.2161407,1.1303711,5.3597412,3.3318481,5.2158432,7.7940674
		C86.3176804,977.335083,84.1740417,975.133606,84.3045807,970.6713867z M79.1184158,942.045105
		c6.8090744,3.5928955,11.2564774,9.5608521,10.4020081,20.8321533
		C84.0153122,957.9804077,80.5959396,950.9977417,79.1184158,942.045105z M79.1184158,934.2509766
		c0.637886-2.8096313,5.1579819-1.7667847,5.1861649-5.1861572c3.5054169,1.7089233,4.8538818,5.5629883,5.2158432,10.4020386
		C82.4220734,941.3493652,84.2763977,934.2806396,79.1184158,934.2509766z M89.5204239,843.2155762
		c5.9249344-3.5632324,9.764122,6.7215576,10.4005737,0c8.8665848,11.0681152-11.3143845,12.7770386-7.794136,20.8025513
		C86.2464294,862.105957,91.0988235,849.4446411,89.5204239,843.2155762z M92.1268616,879.6359863
		c3.5647507-8.2584229,2.5648956,9.184082,2.5797348,13.0084229
		C91.1418457,900.9310303,92.1416931,883.4603271,92.1268616,879.6359863z M92.1268616,908.232605
		c-0.4480057-5.6208496,9.2137604-1.1585693,12.9802628-2.5782471c0,6.055481,0,12.1391602,0,18.1946411
		C91.5186386,927.9344482,103.4560318,906.4361572,92.1268616,908.232605z M97.3145142,970.6713867
		C96.2271881,969.5706787,99.0234604,972.3803101,97.3145142,970.6713867L97.3145142,970.6713867z M97.3145142,934.2509766
		c2.3171616-2.0278931,5.8804321-2.7814941,10.400528-2.6079102c-1.0131989,9.3873291-3.3600311,17.4425049-5.1861725,26.0183716
		C92.0838394,954.736084,104.4410477,942.4797363,97.3145142,934.2509766z M102.5288696,1046.0904541
		c0.637886-3.2740479,5.1579895-2.6079102,5.1861725,0C106.5712967,1049.8851318,105.4260635,1045.8293457,102.5288696,1046.0904541
		z M102.5288696,1027.8942871C95.4156876,1019.9844971,110.4387207,1034.9926758,102.5288696,1027.8942871L102.5288696,1027.8942871
		z M102.5288696,999.2680054c2.4195251,1.9121704,3.9267197,4.7515259,5.1861725,7.7940674
		C106.6143188,1013.6101074,102.1238861,1002.7452393,102.5288696,999.2680054z M107.7150421,991.473938
		c-8.5758743-1.5057373-3.7220001-9.8220215-2.6079178-15.616394
		C110.8733292,976.2046509,106.2226868,986.8959351,107.7150421,991.473938z M105.1071243,736.59198
		c10.2136078,20.8322144,2.9847183,58.4972534,7.8238068,78.0269775
		C103.108902,797.0889282,102.8196259,751.7455444,105.1071243,736.59198z M112.9309311,700.2012939
		c-9.8946686,2.0857544-3.3170624-12.314209-5.215889-18.225769
		C119.7978134,683.5405273,107.0207825,694.8118896,112.9309311,700.2012939z M118.1170502,975.8575439
		C121.1299591,965.6008911,121.1299591,986.1438599,118.1170502,975.8575439L118.1170502,975.8575439z M115.5239716,965.4555664
		c2.9120255-8.1708984,0.2314148-5.881958,0-15.5881958C119.3913422,950.3598633,125.9690018,966.8751831,115.5239716,965.4555664z
		 M120.7249756,1061.6785889C122.4339218,1063.3875732,119.6242447,1060.6060791,120.7249756,1061.6785889L120.7249756,1061.6785889
		z M120.7249756,1040.8745117c0.0726852-2.5203857,3.18647-1.9996338,5.2010498-2.5782471
		C125.8532867,1040.8167725,122.752861,1040.2945557,120.7249756,1040.8745117z M123.3328934,674.1829224
		c-5.5051117-10.7788086,1.3899994-31.4730835,2.593132-44.2070923
		C134.4143219,634.1473389,123.9692993,662.0126343,123.3328934,674.1829224z M120.7249756,562.3508911
		C130.4015808,553.2677002,133.921875,569.4492188,120.7249756,562.3508911L120.7249756,562.3508911z M136.3413391,991.473938
		c-7.4454803-0.3768311-4.7663422-10.8352051-5.2143555-18.1946411
		C136.4289093,975.7700195,136.7478027,983.2451782,136.3413391,991.473938z M138.9195862,1014.8858643
		C141.9339752,1004.5995483,141.9339752,1025.1706543,138.9195862,1014.8858643L138.9195862,1014.8858643z
		 M146.7433472,1004.4838257C145.6426239,1003.3831177,148.4374695,1006.1646118,146.7433472,1004.4838257L146.7433472,1004.4838257
		z M149.336441,1007.0620728c3.2012939,1.1586304,5.3448944,3.3615723,5.201004,7.8237915
		c-4.2011566,0.723938-4.4919128-2.4640503-7.7940979-2.6079102
		C147.2210236,1010.1625366,149.3512726,1009.6981812,149.336441,1007.0620728z M151.9295197,1074.6870117
		C153.6384735,1076.3959961,150.8436279,1073.614502,151.9295197,1074.6870117L151.9295197,1074.6870117z M149.336441,1030.4725342
		c0.8974915-3.12854,6.9099426-2.0856934,7.8089294,0C159.4922028,1036.0933838,147.6126556,1036.5280762,149.336441,1030.4725342z
		 M159.7384491,1085.0891113C162.751358,1074.8323975,162.751358,1095.3739014,159.7384491,1085.0891113L159.7384491,1085.0891113z
		 M162.3315277,1046.0904541C165.3444366,1035.8040771,165.3444366,1056.3752441,162.3315277,1046.0904541L162.3315277,1046.0904541
		z M172.7320557,1066.8929443c0.6527252-3.2739258,5.1876678-2.6079102,5.2158508,0
		C176.7893219,1070.6890869,175.6589203,1066.6318359,172.7320557,1066.8929443z M170.1389771,1053.8845215
		c0-1.7386475,0-3.4490967,0-5.1861572c5.5496216-1.2178955,4.9547577,3.7086182,5.2010498,7.7926025
		C173.2245636,1055.9984131,172.7469025,1053.8845215,170.1389771,1053.8845215z M183.134079,1116.3217773
		C184.6413116,1105.8634033,180.9475098,1131.708252,183.134079,1116.3217773L183.134079,1116.3217773z M182.4383392,1082.2779541
		c0-0.0281982,0.0444946-0.3189697,0.1171875-0.8115234c0-0.0860596,0.0133514-0.173584,0.028183-0.2893066
		c0.1157074-0.7817383,0.2892761-2.027832,0.5503693-3.8822021c0.1157074-0.6956787,0.1735535-1.1882324,0.2314606-1.5931396
		c0.0800629-0.5371094,0.1304932-0.8841553,0.1379089-0.9272461c-0.0074158,0.0430908-0.0578461,0.3901367-0.1379089,0.9272461
		c-0.2017975,1.4195557-0.5637054,3.9979248-0.7818298,5.4753418c-0.0148315,0.1157227-0.028183,0.2032471-0.028183,0.2893066
		C182.4828339,1081.9589844,182.4383392,1082.2497559,182.4383392,1082.2779541z M175.3400269,1020.0720215
		c7.0270996,0.7817993,4.6654358,10.9509277,10.4019623,13.0084229
		C180.7724152,1040.3820801,176.4125214,1025.286377,175.3400269,1020.0720215z M190.9429932,1048.6983643
		C189.8556213,1047.5960693,192.6371613,1050.3775635,190.9429932,1048.6983643L190.9429932,1048.6983643z M193.536087,1092.911377
		c0.6512299-2.8393555,5.1861725-1.7668457,5.2143555-5.2143555c3.4193726,0.927124,4.0854492,4.5778809,7.7940979,5.2143555
		C204.6620178,1101.8640137,198.7222595,1094.6217041,193.536087,1092.911377z M206.5445404,1064.2850342
		C194.2600098,1060.229248,203.0969696,1051.392334,206.5445404,1064.2850342L206.5445404,1064.2850342z M211.760376,1072.1087646
		C210.6596527,1071.0080566,213.4559631,1073.7895508,211.760376,1072.1087646L211.760376,1072.1087646z M219.5544586,1124.1158447
		C222.5673676,1113.8310547,222.5673676,1134.3725586,219.5544586,1124.1158447L219.5544586,1124.1158447z M222.162384,1085.0891113
		c0.0578613-2.5205078,3.1716309-1.9997559,5.1861725-2.579834
		C227.2907562,1085.03125,224.1606598,1084.5090332,222.162384,1085.0891113z M227.3485565,1137.1258545
		c0.0860443-2.5500488,3.1864624-2.0279541,5.2143555-2.6079102
		C232.4768677,1137.0383301,229.3764496,1136.5457764,227.3485565,1137.1258545z M268.9684753,1137.1258545
		c0.0726929-2.5500488,3.1730957-2.0279541,5.2009888-2.6079102
		C274.0982666,1137.0383301,270.9830017,1136.5457764,268.9684753,1137.1258545z M318.3839417,1160.5080566
		c-0.0875244-0.0578613-0.1735535-0.1750488-0.2313538-0.2032471
		C318.2103882,1160.3330078,318.2964172,1160.4501953,318.3839417,1160.5080566
		c0.173584,0.173584,0.1453857,0.1439209,0.2314453,0.2314453
		C318.5293274,1160.6519775,318.5575256,1160.6816406,318.3839417,1160.5080566z M333.986969,1170.9382324
		C332.8995972,1169.8375244,335.6810913,1172.6190186,333.986969,1170.9382324L333.986969,1170.9382324z M131.1269836,814.6189575
		c-2.8690033-75.9115601,15.6742249-155.1549072,39.0119934-231.4655151c3.4193726-3.1137695,4.0854492-1.0131836,7.8089294,0
		c25.1208801-78.8947754,69.2181702-138.8413391,109.2315063-202.8600159
		c-18.9348755,47.8356323-61.5264435,94.5274658-75.4190369,156.0539246
		c18.4423523-11.8943481,23.6433563-37.043457,33.7976379-57.2244263
		c-23.1345367,68.7553711-61.2935486,145.0288696-67.6101074,239.2729492
		c-9.098053,7.53302-19.8175201,25.6416016-10.4020081,36.4204102c14.9502869,0.5221558-2.4046936-15.0956421,10.4020081-15.616333
		c-3.7086487,11.3572998,5.4176331,24.8879395-13.0084534,28.5966187
		c-13.2131653,158.6321411,63.9444885,247.6975098,124.8330383,340.7029419
		c19.5860901-7.7940674,35.2469788,24.9754639,54.6150208,33.8125
		C229.0293121,1087.3483887,137.3560333,979.3926392,131.1269836,814.6189575z M250.7590637,473.921936
		C258.6688232,466.8235779,243.6606598,481.8317261,250.7590637,473.921936L250.7590637,473.921936z M214.3534546,957.661438
		c-25.3374634-41.4033203-40.5488586-92.9475708-39.0134277-161.2385864
		C184.1190948,854.399353,194.056778,911.1876831,214.3534546,957.661438z M219.5544586,968.0634766
		c25.8448181,46.0969849,53.0069427,90.9196777,91.0205841,124.8479004
		c-10.2996521,9.9376221-22.0916138-30.7698975-39.0119934-23.4105225
		C254.5106812,1035.3991699,233.4900665,1005.265625,219.5544586,968.0634766z M315.7760315,1100.7054443
		C308.6776733,1092.7956543,323.6858826,1107.803833,315.7760315,1100.7054443L315.7760315,1100.7054443z M393.8029785,1170.9382324
		C392.7156067,1169.8375244,395.5119324,1172.6190186,393.8029785,1170.9382324L393.8029785,1170.9382324z
		 M393.8029785,1155.3218994c-8.5758667,1.5057373-3.7383118,9.8220215-2.6079102,15.616333
		c-29.4080811-13.994873-38.9556274-45.1994629-70.203186-62.4387207
		c18.8903503,2.8111572,33.4356689,32.4210205,59.801178,36.4204102
		c-98.0462341-89.2108154-178.6811066-189.6052856-192.4431-351.1049805
		C170.1389771,580.1983643,301.8107605,436.3577881,359.990509,278.8708496
		c-15.8195801,76.0851135-63.5394897,142.7680664-85.8210449,221.0561218
		c20.3975525-11.0680847,22.2236938-37.1888428,31.2045593-57.2095947
		c19.108429-42.5619202,47.6768799-87.8341064,62.425415-140.4360657
		c-27.3668518,154.1847534-139.7269592,317.0610962-122.2414246,517.552002
		c10.2284393,117.257019,54.8627319,207.3652954,114.4324951,280.8721313
		c-9.4169922-4.4326172-12.6034546-15.1239014-23.4104614-18.196167
		c20.6289978,42.6495361,57.7436218,68.8132324,98.8294983,91.0072021
		c-7.156189,7.9974365-3.6804504,13.6760254,5.2143555,18.2243652
		C416.6334229,1192.5819092,415.7359314,1163.3756104,393.8029785,1155.3218994z M443.21698,1202.1428223
		C442.1311035,1201.0421143,444.9125977,1203.8236084,443.21698,1202.1428223L443.21698,1202.1428223z M453.618988,1199.5349121
		c-4.2011414,0.723877-4.4755859-2.4625244-7.8088989-2.6079102
		C439.3644409,1195.1022949,457.0235291,1191.9737549,453.618988,1199.5349121z M456.2120972,1186.5264893
		c-4.9399414-1.1021729-6.5183411-5.5926514-12.9951172-5.1861572c1.3484802-3.8540039,3.8392029-6.5776367,5.2010193-10.4020996
		c5.3018799,4.5201416,5.1001892-1.9417725,10.4020081,2.5782471
		C459.8925476,1179.8034668,454.0684814,1179.1669922,456.2120972,1186.5264893z M555.0415649,1235.9553223
		c5.5629883-17.3549805-2.201416-27.206665,0-52.0367432c3.4772339,0,6.9544678,0,10.4020386,0
		C562.7496338,1202.0270996,567.6598511,1227.7562256,555.0415649,1235.9553223z M568.0515137,1173.5164795
		C576.7727661,1167.2296143,561.7645874,1182.237793,568.0515137,1173.5164795L568.0515137,1173.5164795z M578.4534912,1230.739502
		c-10.6630859-13.5588379-4.7233276-36.4768066-5.2009888-49.3991699c3.4624023,0,6.9382324,0,10.4153442,0
		C582.4796143,1201.8817139,584.0164795,1212.3416748,578.4534912,1230.739502z M583.6678467,1176.1245117
		c-4.6638794,0.3470459-5.5050659-3.1865234-10.4153442-2.6080322c0.6230469-4.5482178,4.475647-5.9100342,10.4153442-5.1861572
		C583.6678467,1170.9382324,583.6678467,1173.5164795,583.6678467,1176.1245117z M586.2461548,1165.7224121
		c3.4771729,0,6.9544678,0,10.4019775,0c0.7536011,6.809082-0.9271851,11.1838379-7.7940063,10.4020996
		C589.1878052,1171.4589844,585.6676025,1170.6490479,586.2461548,1165.7224121z M596.6481323,1228.1330566
		c-3.6656494-15.7913818-8.6633911-31.9002686-5.1861572-49.4006348
		C599.9517822,1187.2503662,598.1257324,1218.1077881,596.6481323,1228.1330566z M614.8724365,1168.3303223
		c-1.8543091,8.4023438,0.8114624,44.1269531,0,52.008667c-10.7639771-2.2890625-9.460022-39.0565186-13.0084229-57.2244873
		c11.3572998,1.8261719,14.6461792-4.402832,26.003479-2.6064453c-1.7816162,21.0635986,2.5352783,30.5666504,2.5931396,57.2230225
		C618.7546387,1207.793335,628.9534302,1175.9212646,614.8724365,1168.3303223z M638.2695312,1191.7408447
		C639.7619019,1181.2824707,636.0814209,1207.1257324,638.2695312,1191.7408447L638.2695312,1191.7408447z
		 M640.8626099,1186.5264893c-5.8388672-6.2884521-5.4769287-18.776123-7.7940674-28.5981445
		c4.6506958,0.7254639,5.331543-2.4625244,2.6079102-2.6064453
		C645.2091675,1147.6435547,639.2397461,1177.65979,640.8626099,1186.5264893z M643.47052,1222.9454346
		c6.2720947-1.8825684,13.8199463-9.2717285,18.2094727-5.2143555
		C657.8986816,1221.758667,651.5390625,1223.2064209,643.47052,1222.9454346z M672.0820312,1215.15271
		c0-2.6079102,0-5.2158203,0-7.8237305C679.65802,1203.5046387,679.65802,1218.9475098,672.0820312,1215.15271z
		 M685.0770874,1202.1428223C688.8717651,1193.5091553,691.5672607,1212.2838135,685.0770874,1202.1428223L685.0770874,1202.1428223
		z M734.5059204,1170.9382324c-15.7913818-39.5786133,4.3465576-129.6868896-2.6079102-174.2781372
		c-16.2542725,26.7141113-11.3291626,59.3383179-23.4104614,91.0369263
		c-5.9397583-9.4169922-2.7666016-12.4595947-5.2009888-23.4119873
		c-11.7192993-1.3039551-11.111084,9.7062988-10.4020386,20.8040771c-8.0982056-7.5048828-3.02771-28.1635742-10.4019775-36.3907471
		c-13.5736694,58.3518066,27.2214355,99.2344971,49.4154663,143.0424805
		c-14.1106567,3.2160645-21.8898315,12.7784424-33.812439,18.1960449
		c1.3039551-17.7613525-1.1304321-31.8127441-7.7941284-41.6065674c-8.0981445,0.5800781-4.4042969,12.9521484-5.2143555,20.8026123
		c-7.2154541-10.9805908-8.012146-28.3934326-12.9950562-41.6051025c-12.4447632,12.1391602,4.3598633,40.5043945,0,52.0070801
		c-13.9519653-10.1112061-5.2885742-43.0262451-18.2109375-59.8308105
		c-3.1286621,21.0635986,4.2011719,38.1589355,2.6079102,65.0169678
		c-7.15625-24.1062012-11.5027466-41.4315186-7.7941284-65.0169678c-5.3018799,0.7832031-6.9381104,5.2158203-10.4153442,7.8237305
		c-12.5307617-2.3764648-29.4807739,8.9229736-28.6114502-2.6079102
		c-5.1728516,6.258667-29.4956055,16.5153809-31.2045898,2.6079102
		c-15.2558594,20.1646729-38.1307983-3.1004639-49.4006348,15.5866699
		c5.7068481,8.5477295,10.6467896,4.3183594,18.1946411,7.8237305c-4.1135864,14.486084,0.0875244,48.2406006,0,65.0170898
		c-15.5288696-5.9101562-6.0836792-39.520874-7.7941284-52.0367432
		c-13.5884399,11.5026855-9.3145752,26.5390625-10.4005127,52.0367432
		c-10.7061157-7.1859131-4.5200806-40.3322754-2.6078491-52.0367432
		c-20.3827209,5.8818359-6.5332031,33.0588379-15.6164246,46.8209229
		c-5.2158508-22.22229-4.3316956-35.1164551-5.1876526-59.8012695c-8.2272034,16.3996582-4.7945557,36.7675781-7.8074341,59.8012695
		c-16.3566284-0.6364746-17.746582-0.8397217-33.812439-2.6064453
		c-15.5155334-19.7033691,20.9627075-72.2607422-2.5931396-106.6236572
		c-13.8065491-0.6096191-0.5800171,9.6766357-7.8089294,15.6164551c-6.0124512-5.2736816-13.8925781-8.6337891-15.601532-18.2243652
		c8.1990967-1.2460938,5.8804321,7.9958496,15.601532,5.2143555c-0.4197998-3.0128174,0.5652161-4.6357422,2.5931091-5.2143555
		c-1.1007385-5.8239746-5.5629883-8.2866211-7.7940979-13.0098877c-6.7512207-1.5354004-9.357666,1.0725098-7.7940979,7.8237305
		c-13.7620544-22.6583252-21.2223511-51.6035156-33.8124695-75.4190674
		c14.5883484,8.807373,12.5456238,34.2753906,31.2060242,38.9986572
		c0.809967-21.0354004-16.9796448-45.2276611-28.6129456-62.4090576
		c-5.8670654,1.9403687-1.0131531,14.5734863-2.5930786,20.8024902
		c-113.3154602-241.8155518-29.2345276-552.5957031,26.0050354-824.4424438
		c4.4177246,68.0744171-15.0229797,134.3227081-20.8040161,200.2668915
		c29.6261292-41.3602905,21.1808167-104.6238708,33.7976379-161.253418
		c-2.0278931-11.618454,3.9994507-17.6457367,2.6079102-2.5930939
		c0.6378784,167.1204987-51.5442505,303.3272095-62.4091187,465.5151978
		c-7.6783752,114.3583374,5.3019104,229.8782349,44.2145081,317.2910156
		c4.2590027-26.1622314-15.0377808-56.961792-15.6178589-93.6136475c7.3446655,3.9400635,6.3744202,16.166748,10.4020081,23.4104614
		c5.9249268-20.6868286-10.4880676-41.4908447-7.7940979-67.624939c4.5779724,0.6378784,5.9249268,4.4919434,5.2010193,10.4020386
		c8.4453125-22.9476318-4.6506653-46.3877563-7.8089294-70.2328491
		c-13.0380554-98.5105591,4.9547424-216.8030396,26.0183716-322.4861145
		c23.0054626-115.5184021,26.0628967-233.3688049,20.8040161-319.8840942
		c-2.0278931-33.0885315-0.3189392-67.5967484-5.2158203-104.0304947
		c18.3696594,7.3594437,20.2966614,20.7298508,20.8173523,41.6199112c6.8535767,0.7832642,6.7082214-5.4324188,7.7940979-10.4005203
		c15.8062439,87.3415909,45.850769,160.4701538,67.6101074,241.8586426
		c15.4576416-19.8323669-10.8648682-48.980835-10.4005127-78.026947
		c15.9783325,31.7697449,22.4536133,64.8286133,33.812439,96.2363892
		c10.010376-68.537262-49.6187134-131.4833832-49.4005737-215.8684387c7.0982666-1.898819,5.2439575,5.1713409,10.4019775,5.2143555
		c0.4049683-20.3530426-7.3891602-32.5084991-7.7941284-52.0219193c-17.920166,4.6639938-4.6936646,30.0741501,0,41.6065598
		c-5.1000366,3.5929413-13.7056885,3.6508026-15.6177979,10.4153595
		c3.7383423,26.5984192,9.5474854,51.1244354,15.6177979,75.4190369
		c-26.5983887-46.9959564-27.930481-120.6185303,2.5782471-163.8465118
		c4.0855103,8.9096527,7.7793579,18.2391205,10.4020386,28.5966339
		c-18.399353,42.1139069,21.3825684,88.1233673,33.812439,124.8478699
		c0.9850464,7.9098053-9.4451904,4.4043884-10.4019775,10.4020081
		c50.2699585,91.9195557,97.0048828,187.3296814,140.4360352,286.0731506
		c-15.9353027-82.0100708-61.8157349-156.6324768-96.2215576-228.8635559
		c101.1184692,161.5426941,175.493103,353.0660706,161.253418,590.3615723
		c-5.3894043,89.8189697-47.1992188,169.2938232-36.4055786,262.6774902
		c2.3898926,4.5483398,8.1264038,5.7365723,15.5881958,5.2143555
		C746.559021,1163.9260254,745.5443726,1172.4439697,734.5059204,1170.9382324z M401.611969,874.420166
		c4.5630493,0.6378784,5.9248657,4.4904175,5.1994629,10.4301758
		C398.9891663,887.458252,402.2053528,879.0559692,401.611969,874.420166z M401.611969,864.0181274
		c0.1868591,0.2032471,0.4627686,0.4924927,0.550293,0.5800171
		C402.0747375,864.5106201,401.7988281,864.2213745,401.611969,864.0181274z M406.8114319,905.6543579
		C409.8258362,895.368042,409.8258362,915.9391479,406.8114319,905.6543579L406.8114319,905.6543579z M412.0124512,931.6430664
		C415.7938232,923.0375366,418.4877319,941.8136597,412.0124512,931.6430664L412.0124512,931.6430664z M529.0528564,247.6663055
		C532.0509644,237.3800049,532.0509644,257.9377747,529.0528564,247.6663055L529.0528564,247.6663055z M583.6678467,252.8673096
		c-5.9976196,0.7966309-2.8971558-7.5196381-7.8222656-7.8089142
		C578.7709961,237.4675293,584.3057861,248.375412,583.6678467,252.8673096z M586.2461548,258.0683289
		C581.3210449,248.1588135,593.1427002,271.8155212,586.2461548,258.0683289L586.2461548,258.0683289z M591.2453613,270.8453369
		c0.0430298,0.035614,0.1439209,0.13797,0.2166138,0.2166138c0.4197998,0.4272156,0.5800171,0.5726013,0.5651855,0.5726013
		c0.0148315,0-0.1453857-0.1453857-0.5651855-0.5726013C591.3892822,270.9833069,591.2883911,270.8809509,591.2453613,270.8453369z
		 M607.0501709,297.0803223C605.9776001,295.9795837,608.7590942,298.7759094,607.0501709,297.0803223L607.0501709,297.0803223z
		 M770.911499,679.3690796C773.9243774,669.1124268,773.9243774,689.6538696,770.911499,679.3690796L770.911499,679.3690796z
		 M765.7105103,1144.9199219c-7.9098511-3.2161865,2.8111572-8.9526367,0-15.6179199
		c2.3171387,1.6229248,4.6506348,3.1583252,5.2009888,0
		C778.2130737,1133.4749756,765.2758179,1139.0379639,765.7105103,1144.9199219z M934.7579956,942.045105
		c-40.3307495,45.5184326-54.9057617,116.7644653-109.2315063,148.2583618
		c-1.100708-5.4458008,1.7816772-6.8951416,2.5930786-10.4006348c-14.0512695,3.2740479-14.8478394,19.817627-23.3956299,28.5966797
		c9.8947144-41.2579346,42.7073364-82.1124268,57.2081299-127.4261475
		c-26.7719727,20.0489502-41.4033203,74.7514648-67.624939,104.0157471
		c-3.6508179,16.2823486-5.7365723,34.1595459-18.1946411,41.6346436
		c22.048645-77.9675293,64.9013062-158.9213867,72.8110962-257.4898071
		c8.5759277-106.5953979-8.3162231-209.3070679-44.199646-301.6820679
		c9.7493896,1.4775391,11.661499,19.4259033,15.6015625,31.2194214
		c7.3164062,21.9329224,13.9949341,48.0952148,20.8040161,75.4116211
		c7.7362671-68.5447388-32.0738525-134.2574463-59.81604-184.6579895c-7.6931763,0.6230774-3.5795288,9.6766052,0,13.0099487
		c-13.618103-5.4769287-15.1401367-45.5184326-36.4055176-52.023407
		c4.4755859,31.4508057,28.480896,57.9335022,41.6050415,91.0354004
		c7.1280518,17.9794922,9.9970703,39.244873,15.6030884,59.8175049
		c21.0784302,77.4246826,40.9255981,150.2654419,36.4055176,249.6734619
		c-4.8671875,107.348999-47.4009399,186.2437744-70.2180176,267.8636475
		c-14.3569336,0.2314453-4.2738647-20.223999-2.5930786-28.5980225
		c6.055481-30.1320801,23.7011719-57.5700684,20.8024902-91.0354614
		c-17.1813354,45.2277222-35.463562,89.3843384-44.2129517,143.0440063
		c-2.4343872-74.3762207,30.0593262-150.2580566,33.812439-218.4630127
		c20.3100586-33.8985596,22.4254761-109.0564575,20.8025513-153.444519
		c-5.708374-156.074707-70.1749878-300.7267151-135.2350464-423.9235229
		c-26.4960327-50.1824341-53.8184204-100.206131-80.6200562-145.6370544
		c-5.5050659-9.3146362-11.3424683-17.369812-20.8024902-23.3956146
		c-0.5073853-13.3719025-9.4170532-18.3399963-10.4020386-31.2193909
		c12.4595947-1.7534485,33.6240845,15.7187347,23.3970947,33.8124695
		c17.3401489,32.9580078,37.7229004,62.8437653,62.4239502,88.427475
		c10.3426514-10.3871765-16.1385498-28.9007263-7.80896-28.6114502
		c9.5178833,25.8596497,54.9206543,35.3048096,44.2145386,65.0170288
		c3.8095093,1.6080627,16.6740723,15.2692261,18.2094116,2.6079102
		c21.2090454,16.0658569,36.3328857,38.2020264,54.6165161,57.2095642
		c-5.8536987,7.7496033-18.8621826-20.4999084-33.8125-20.8040161c-3.9118652-10.8218384-12.5455933-16.9203186-18.2109375-26.00354
		c-5.5480957-1.2164307-4.9547119,3.7086487-5.2009888,7.7940979
		c-18.5432129-10.0682373-19.8175049-37.390564-36.4188843-49.4154968
		c-2.5501099,35.7973328,40.6779175,70.1023254,59.8308105,101.4374084
		c56.381897,56.3106079,106.5939331,118.807251,156.0375977,182.0574646
		c-1.0858765,15.065979,9.9821777,33.1893921,15.6030273,49.4006348c2.3468018,10.1542969,9.5905762-8.6203613,10.4005127,0
		c31.6688843,82.3497925,50.1690674,192.1034546,26.0183716,291.2800903
		c-15.7023926,64.4962769-51.8913574,118.7344971-75.4175415,166.4544067
		c26.3373413-27.4083252,54.2678833-75.7379761,72.8110962-119.632019
		c1.7965698-5.8240356,16.890686,3.7946777,15.6015625-15.6178589c-0.6082153-3.3318481-5.6356812-3.8822021-8.807312-2.1154175
		c-0.5651855,2.4343872-0.9998169,4.9265747-1.5932007,7.3312378c-2.0145264-3.6225586-0.6809082-6.055481,1.5932007-7.3312378
		c21.3973999-90.947876,22.5130005-188.5030518,1.0132446-268.3546753
		C888.4874268,528.0162354,782.2985229,448.657135,708.4875488,349.0888977
		c105.0585327,105.4931946,228.2701416,223.4177551,239.265564,413.5214539
		c3.4772339,59.7730103-6.2438965,111.5783691-20.8039551,161.2386475
		c16.2260132-7.7644653,16.2260132-31.3781128,20.8039551-49.428833
		c4.7515259-18.6589966,9.0980225-39.867981,10.4019775-59.8012085
		C965.4552002,861.7869873,943.8130493,902.5539551,934.7579956,942.045105z M802.1160889,559.7578125
		C801.0301514,558.6571045,803.8116455,561.4519043,802.1160889,559.7578125L802.1160889,559.7578125z M799.5229492,549.3409424
		C802.5358887,539.069519,802.5358887,559.6272583,799.5229492,549.3409424L799.5229492,549.3409424z M789.352356,526.1767578
		c-0.0859985-0.1008911-0.0578613-0.0578613-0.2313232-0.2314453
		C788.5705566,525.3949585,789.005249,525.8148193,789.352356,526.1767578z M773.5045776,694.9854126
		C775.213501,696.694397,772.4172974,693.9129028,773.5045776,694.9854126L773.5045776,694.9854126z M781.3134766,754.8162842
		c10.8203735,3.5929565-0.7684326,13.414917,5.1995239,20.8025513
		C776.2564087,777.213562,783.4570923,761.3361206,781.3134766,754.8162842z M786.5130005,804.2169189
		c-4.302002-2.6079102-2.8244629-11.039856-5.1995239-15.6177979
		C790.7141724,786.1661987,784.9494629,798.8572388,786.5130005,804.2169189z M783.9066162,858.8319702
		c-5.9694824-12.3424072-0.8989868-27.0894775,0-36.4204102
		C788.1789551,833.7125244,786.0650635,850.6328735,783.9066162,858.8319702z M781.3134766,783.4129028
		c0-1.7371216,0-3.475708,0-5.2143555c5.5481567-1.2178955,4.9399414,3.7368774,5.1995239,7.8222656
		C784.4124756,785.5283203,783.9199219,783.4129028,781.3134766,783.4129028z M781.3134766,864.0181274
		c0.7091064-3.0707397-0.0578003,0.2611084-0.8410034,3.6508179c-0.1157837,0.4924927-0.1884766,0.8114014-0.2745361,1.2460938
		c-0.3485107,1.4196777-0.5369873,2.2889404-0.6675415,2.8690186c-0.1008911,0.4049683-0.1587524,0.6660767-0.173584,0.6942139
		c0.0148315-0.0281372,0.0726929-0.2892456,0.173584-0.6942139c0.1305542-0.5800781,0.3190308-1.4493408,0.6675415-2.8690186
		c0.0860596-0.4346924,0.1587524-0.7536011,0.2745361-1.2460938
		C780.7186279,866.6260376,780.9797363,865.4378052,781.3134766,864.0181274z M887.9370728,601.3643799
		C890.9648438,591.0928955,890.9648438,611.6343384,887.9370728,601.3643799L887.9370728,601.3643799z M960.7615356,788.5991211
		C962.4719849,790.3095093,959.6756592,787.5280151,960.7615356,788.5991211L960.7615356,788.5991211z M963.3694458,783.4129028
		c-11.0234985-11.5308838-1.8825073-43.1997681-7.8074341-59.8308105
		C968.729187,732.9694214,961.3712769,762.87146,963.3694458,783.4129028z M958.1550903,684.5834351
		C961.1828613,674.298584,961.1828613,694.869751,958.1550903,684.5834351L958.1550903,684.5834351z M958.1550903,676.7893066
		c-7.5344849-23.2650757-12.0531006-46.901001-12.9950562-57.2154541
		C943.479248,601.0023804,957.8644409,653.3210449,958.1550903,676.7893066z M934.7579956,632.5689087
		C937.7709351,622.2974243,937.7709351,642.8537598,934.7579956,632.5689087L934.7579956,632.5689087z M869.7409668,484.3239441
		c23.6567383,27.5255737,32.5234375,65.0318298,59.81604,91.0353699
		c-17.5582275,12.3869019,7.5048218,30.9449463,5.2009888,52.008606
		c-38.0565796-93.7160034-97.6264038-165.9040833-166.4544067-228.8635559
		c-1.1156006-2.6079102,15.6311646,0.9701843,7.8088989-5.2009888c0.4924927-2.9550476,2.6079102-1.4493408,2.6079102,0
		C805.3470459,427.0861816,841.3757935,451.3377686,869.7409668,484.3239441z"/>
	<path d="M294.9735107,268.4688416C293.8727722,267.3829651,296.6824341,270.1792908,294.9735107,268.4688416
		L294.9735107,268.4688416z"/>
	<path d="M47.9138641,887.4300537C46.8131828,886.3575439,49.6079712,889.1390381,47.9138641,887.4300537L47.9138641,887.4300537z"
		/>
	<path d="M24.5034027,744.3861084C25.9809284,733.9840698,22.3004684,759.7992554,24.5034027,744.3861084L24.5034027,744.3861084z"
		/>
	<path d="M152.2484741,586.0951538C152.3063202,585.746521,152.3063202,585.7109375,152.2484741,586.0951538
		L152.2484741,586.0951538z"/>
	<path d="M151.4518433,591.6937256c-0.0726776,0.4776611-0.1231232,0.8411255-0.160202,1.0932617
		C151.3361359,592.505127,151.3865814,592.1358032,151.4518433,591.6937256z"/>
	<path d="M175.3400269,445.3104553C174.2392578,444.2245789,177.050415,447.0209045,175.3400269,445.3104553
		L175.3400269,445.3104553z"/>
	<path d="M86.5638885,1012.1043701C85.9853439,1016.2180176,86.2167587,1014.6247559,86.5638885,1012.1043701
		L86.5638885,1012.1043701z"/>
	<path d="M781.3134766,864.0181274c-0.3337402,1.4196777-0.5948486,2.6079102-0.8410034,3.6508179
		C781.2556763,864.2792358,782.022583,860.9473877,781.3134766,864.0181274z"/>
	<path d="M406.1750183,205.2334595c0.0860596-0.5637054,0.2462769-1.6941071,0.4776917-3.2873383
		C406.4642944,203.2204132,406.290741,204.4813538,406.1750183,205.2334595z"/>
	<path d="M565.4436035,416.7138367C573.3682251,423.8121948,558.3452148,408.7891846,565.4436035,416.7138367
		L565.4436035,416.7138367z"/>
	<path d="M597.8363647,546.9080811C596.416748,544.4158936,596.8513794,545.1976318,597.8363647,546.9080811
		L597.8363647,546.9080811z"/>
	<path d="M599.2560425,549.3409424c-0.6660767-1.1734009-1.0428467-1.7964478-1.4196777-2.4328613
		C599.4014893,549.6020508,601.9945068,554.0791016,599.2560425,549.3409424z"/>
	<path d="M609.6580811,598.7713013C604.7315063,608.651123,616.5383301,585.022583,609.6580811,598.7713013L609.6580811,598.7713013
		z"/>
	<path d="M614.8724365,765.2183228C607.4551392,752.4116211,619.7694092,773.6784668,614.8724365,765.2183228
		L614.8724365,765.2183228z"/>
	<path d="M625.2744141,804.2169189C633.1842651,811.3153076,618.1760864,796.3071289,625.2744141,804.2169189
		L625.2744141,804.2169189z"/>
</g>
</svg>
