<?xml version="1.0" encoding="UTF-8"?>
<svg id="onion" xmlns="http://www.w3.org/2000/svg" version="1.1" viewBox="0 0 2834.6456693 3565.1664464">
  <!-- Generator: Adobe Illustrator 30.0.0, SVG Export Plug-In . SVG Version: 2.1.1 Build 123)  -->
  <g id="outline">
    <path d="M1772.4314761,1277.040383c-29.9780102-216.7003564-139.0451517-426.0081832-199.0852738-641.354504-11.4966868-41.314905-1.5600844-93.1803543-36.8743403-125.3323913-10.2688036,94.9422825,18.6411165,204.5476769,51.659399,302.2400814,101.0186197,298.7919163,190.2966581,616.7169438,243.2680418,951.0291657,53.6315812.5340451,30.1420083,110.0763633,66.3645613,162.1478614-1.7240825-116.1947538-32.4421867-212.12523-29.486016-316.9620643,61.3521068,275.8153625,139.7053491,632.671015,147.4258747,958.4006699,1.803979,75.5568665-12.7329801,180.1918571-14.7850588,257.9690055-1.2320882,47.3912448-12.0307318,116.627877,22.1735589,132.7249209,21.1515493-116.3797773,19.7132358-281.4627841,29.4858401-427.5724727,29.0739182-437.5889718-113.5033264-864.7703721-250.6605712-1231.1547346-2.014233-15.1929518-32.6902864-1.7661333-29.486016-22.1355379ZM1853.4927895,1594.0655235c-3.078118-3.0823232,4.8484564,4.8022007,0,0h0ZM1846.1044652,1579.3225151c-3.0402723-3.0781181,4.8442513,4.8064057,0,0h0Z"/>
    <path d="M1956.7316911,1019.0293266c-71.4527072-61.5161064-100.0765103-204.2575264-176.9497364-235.9217743,50.2212619,97.242461,92.2720548,202.6595963,176.9497364,265.4035859-.6980432-20.1213049,12.2788315-14.8229049,0-29.4818116Z"/>
    <path d="M1167.9092778,1019.0293266h-14.743008c-.4078927,9.4446083-9.4446081,10.222548-7.3883243,22.1313328h22.1313323v-22.1313328Z"/>
    <path d="M1595.4817397,1026.4218562c8.540516,29.1117646,8.540516-29.1580205,0,0h0Z"/>
    <path d="M1964.0821696,1041.1606595c-1.5600844,8.2545708-8.1704691,11.4588413-14.743008,14.7430084.904092,18.7252185,10.7609722,28.5819246,29.486016,29.4860167,14.0449648-13.8809671.904092-38.3124784-14.743008-44.2290251Z"/>
    <path d="M1595.4817397,1063.2541466c-3.078118-3.0781181,4.8064056,4.8484565,0,0h0Z"/>
    <path d="M2000.9186642,1114.8757012c-.0420508,32.152037,31.2100985,96.502367,73.7528856,110.589383-11.0046925-46.6932016-32.934181-117.8599652-73.7528856-110.589383Z"/>
    <path d="M2126.2510523,1225.4650842c-1.6021352,5.7483435-6.1604412,8.5405162-14.7009572,7.3504788,5.2941948,37.8625349,60.7760109,91.1619162,81.0613134,66.3603579-19.4232612-27.2278891-28.2539277-65.1282696-66.3603562-73.7108367Z"/>
    <path d="M1617.617277,1269.6899042c-3.1243739-3.0781181,4.8442513,4.8442515,0,0h0Z"/>
    <path d="M2236.8784595,1763.6227348c-19.9574875-145.2055965-67.714573-325.1115082-154.8143803-427.5724727,49.771497,144.3057095,93.5043227,294.7256045,154.8143803,427.5724727Z"/>
    <path d="M1713.4636492,1365.5362788h-22.1775882c1.1900374,8.6666686-1.2320882,20.9034497,7.3925294,22.0934871,1.8081841-10.5126985,12.1568842-12.4007791,14.7850588-22.0934871Z"/>
    <path d="M1676.5851039,1372.8867576c-1.7661333,10.5126985-12.1568842,12.4428299-14.7850588,22.1355379,15.1971565,6.4463867,33.1402299-19.1373163,14.7850588-22.1355379Z"/>
    <path d="M1676.5851039,1431.858791c10.4706474,6.198287-18.8471654,28.9898173,7.3925294,44.2668708,1.6399809-13.0988223-7.4724259-36.916392,14.7009572-29.5280675,6.4884373-15.1509011-19.095265-33.0981799-22.0934866-14.7388033Z"/>
    <path d="M2295.8503101,1439.2471155c-5.092351,45.9951584,41.3106989,77.4912031,66.3183054,117.9398617,35.0283105,56.5499077,53.7955793,128.2086656,95.8463722,176.9497409-13.5529705-109.6011893-71.7386526-237.6837025-162.1646776-294.8896026Z"/>
    <path d="M1683.9776333,1512.9621572c4.188259-29.5701183-6.2445427,43.6108784,0,0h0Z"/>
    <path d="M2023.0922231,1586.7150447c29.9401653,1.2741391,25.5835265-50.2254683,0-51.6215546-17.0812079,16.3871944,2.4640006,28.7459227,0,51.6215546Z"/>
    <path d="M725.598013,1608.8085318c10.5925947-16.3871944,18.4772619-35.5623564,14.7009572-66.364563h-22.0934866c-4.9283529,16.7572414-19.0532142,61.8441026,7.3925294,66.364563Z"/>
    <path d="M578.0922418,1549.8364984c-35.7305587-3.5322667-39.9188177,28.8300243-29.486016,51.6215546,27.5937303.5340451,25.1716046-28.9519716,29.486016-51.6215546Z"/>
    <path d="M902.5056986,1645.682873c15.0291013-14.4528579,21.9715393-37.0004936,22.0936347-66.3603579-37.9467836-10.3066496-61.6003546,67.0584011-22.0936347,66.3603579Z"/>
    <path d="M1514.3783755,1815.2400843c12.0307318-52.6433889,17.0810321-158.632415-22.0933241-184.3002196,23.6113578,45.1751679-13.7970276,151.3660378,22.0933241,184.3002196Z"/>
    <path d="M1720.772077,1645.682873c4.8442513,4.8064057-3.0402723-3.1201689,0,0h0Z"/>
    <path d="M504.4192526,1719.3979148c-29.6878598,46.4829476-40.0786107,112.2714147-44.2668697,184.2791942,40.6126558-27.6778326,68.1685403-140.466472,44.2668697-184.2791942Z"/>
    <path d="M1691.2860611,1726.7483936c4.8442513,4.8442515-3.0402723-3.0823232,0,0h0Z"/>
    <path d="M2258.9717648,1785.7582727c-10.8406944,17.371183-15.5629984,13.6749182-7.3925294,36.8364955,27.1059411,7.1023791,29.3220179-36.2225539,7.3925294-36.8364955Z"/>
    <path d="M1249.012642,1815.2400843c-27.7997792,158.0815496-54.0394739,410.1424186,0,523.3978219-20.1633552-175.263504-2.0519224-368.6845409,0-523.3978219Z"/>
    <path d="M2583.3473759,2250.1840612c37.3286798-136.9089749,3.7341104-284.3348533-22.1355374-405.4789856-9.3605065-.4078927-10.184702-9.4235829-22.0934866-7.3883245-.4078927,9.4446083-9.4446081,10.2645988-7.3925294,22.1733836,17.7412295,60.8601141,32.1141905,144.385606,36.8785453,228.4871939,2.8762742,50.5114137-14.1248613,157.3624811,14.743008,162.2067325Z"/>
    <path d="M2458.0149878,1955.3365094c32.194087-1.1521918,37.656485-54.7795693,7.3925294-59.0519299-11.3747395,10.7607982-6.4884373,37.7784333-7.3925294,59.0519299Z"/>
    <path d="M1602.8322183,2596.6910134c-1.0260393,7.3126331-1.5600844,11.1728959-1.8081841,12.8969785.5760959-4.1083626,2.38428-16.9212395,2.7921726-19.5494141-.1639981.9040921-.4499435,3.0402724-.9839886,6.6524356Z"/>
    <path d="M1529.1592292,1918.4579631c2.548278,231.3634682,27.3918865,401.9467189,42.6268887,633.0620874,1.8880806,6.3244394.740094,15.6891512,1.5600844,22.9975792-.4918298-7.8845239-1.0680901-15.1929518-1.5600844-22.9975792-.9839886-3.1201689-2.4640121-5.6642419-5.832445-6.4884375,30.8022058,218.7145894,31.2100985,424.4523038,22.1775882,634.0502811,47.4711401-19.6293106,32.1520362-113.5077081,29.486016-184.3044247-2.2202819-58.8837267-4.5583059-123.3602091-7.3925294-169.5992621-1.7240825-28.0058288-29.6079633-157.0302798,7.3925294-95.762273,18.0650206-9.8567061-13.3048709-22.2574852,7.3504786-29.5659132,20.6553495,106.5230712,42.0886386,250.0844817,22.1313323,361.2920113-.7358889-11.5807886.9881936-25.5458573-14.7808537-22.0934871-8.9526138,97.0784629,29.6878598,112.1873131,95.8463722,103.1548026-60.3681182-222.982745-86.4858657-471.6753454-140.0333453-678.2330502-33.838273-130.1766428-7.1864805-365.1522742-58.9720319-545.5123344ZM1580.7387317,2596.6910134c.5760959.5760959,1.3161898,1.3161899,1.5600844,1.5642895-.2438946-.2480997-.9839886-.9881937-1.5600844-1.5642895ZM1683.9776333,3120.1098607c4.8022005,4.8442515-3.1201688-3.0402724,0,0h0ZM1610.2247477,2633.5695596c-3.0823231-3.1201689,4.8442513,4.764355,0,0h0ZM1601.0240342,2609.5879919c.2480997-1.7240826.7821447-5.5843454,1.8081841-12.8969785.5340451-3.6121632.8199905-5.7483435.9839886-6.6524356-.4078927,2.6281746-2.2160768,15.4410515-2.7921726,19.5494141-.1217821.740094-.1638329,1.1479867-.1638329,1.2320883,0-.0841016.0420508-.4919943.1638329-1.2320883ZM1595.4817397,2567.2092017c-3.078118-3.1201689,4.8064056,4.8442515,0,0h0Z"/>
    <path d="M1868.2778483,1933.1589207c-3.1201688-3.0360673,4.8442513,4.8484565,0,0h0Z"/>
    <path d="M1890.3713348,1940.5514503c8.540516,29.1580205,8.540516-29.1538154,0,0h0Z"/>
    <path d="M452.8019044,2058.491312c10.5126982-7.2285315,26.5256401-46.4030511,7.3504786-58.9678283-16.387194,6.4043359-37.286438,50.5913102-7.3504786,58.9678283Z"/>
    <path d="M1941.9508374,2029.0052953h-22.0933133c2.3799016,54.1277819,14.9446785,98.146553,14.7386297,154.818408,49.7334727-35.4824599,8.1326233-105.0470883,7.3546837-154.818408Z"/>
    <path d="M438.0588964,2183.8237033c-9.4446081-.4120978-10.184702-9.4446083-22.0934866-7.3925296-.4120978,9.4446083-9.4446081,10.2645988-7.3925294,22.1733836-8.3765179,136.173086,14.7850588,233.0875508,36.8785453,331.7260981,13.7127636,61.4362099,7.8846599,144.0576099,66.3183054,169.5193656-17.6991787-149.5620588-83.1174616-314.8090637-73.7108348-516.0263177Z"/>
    <path d="M1809.2679706,2235.3990021c5.7062926-1.639981,14.5369591-.1639981,14.743008-7.308428-5.7104977,1.644186-14.5367886.1639981-14.743008,7.308428Z"/>
    <path d="M637.1021194,2250.1840612c-12.4007788,23.5736751-2.2202819,78.1051446,14.743008,95.8463746,15.6849457-17.001136,20.6553495-88.5379466-14.743008-95.8463746Z"/>
    <path d="M2561.2118386,2471.3628271c43.3669827-13.1408731,31.2942001-81.7215129,44.2668697-125.3323913-9.4444178-.4120978-10.2225477-9.4446083-22.1313323-7.3925296-18.6873724,32.9341818-15.3189142,87.8819542-22.1355374,132.7249209Z"/>
    <path d="M1964.0821696,2353.4229654c-14.3309102,14.2089633-7.7205256,45.0910663,22.1355374,36.7944447,1.4381371-21.025397.904092-40.1627133-22.1355374-36.7944447Z"/>
    <path d="M209.4876067,2397.6099397c-5.6642418,1.639981-14.5369591.2438946-14.7009572,7.3925296,5.7104977-1.644186,14.5369591-.1682032,14.7009572-7.3925296Z"/>
    <path d="M1853.4927895,2449.1852384c-3.078118-3.0360673,4.8484564,4.8484565,0,0h0Z"/>
    <path d="M1941.9508374,2751.5094214c35.2722051-54.287575,30.6718483-160.48265,7.3883243-221.1787659,1.3161898,74.6569795-10.3865458,130.0967463-7.3883243,221.1787659Z"/>
    <path d="M1425.9245327,2559.8166722q.1219473-.8199905.2060489-1.4801879c-.7022482,4.8484565-1.6021352,11.336894-2.014233,14.2089633.2480997-1.8039791.8199905-5.5843454,1.8081841-12.7287753Z"/>
    <path d="M2516.9870197,2611.396176c-12.8549274.5718908-22.9176821-1.644186-29.4858284-7.3126331-5.1766402,24.2296675-11.7870248,47.1431451-14.7431956,73.672991,33.6742749-3.2042705,29.4019144-44.3509724,44.2290239-66.3603579Z"/>
    <path d="M2096.7652141,2744.1168918c24.5576637-25.3776541,8.8683345-102.3348121,14.7848811-125.3323913-12.8128766.5760959-22.9555278-1.639981-29.486016-7.3883245,7.1444297,41.9666923-15.9330454,114.3234935,14.7011349,132.7207158Z"/>
    <path d="M2399.0471609,2685.1490635c-2.5062273,16.5049366-34.1284235,68.168542,0,73.7528875,6.5262831-23.9815678,35.3563066-53.3035864,22.1313323-73.7528875h-22.1313323Z"/>
    <path d="M2214.7469459,2736.7243622c-5.7104977,5.0923511-19.1793666,43.9388746,7.3504786,36.8785463,12.0727826,1.3119848,14.9071873-48.2112352-7.3504786-36.8785463Z"/>
    <path d="M1219.5308311,2751.5094214c.4919943,121.8800211,68.7404311,272.6741682,73.668784,390.6939264,61.6380522-118.5159576-38.026532-259.6972932-51.5752975-375.9929689-10.5126982-1.7240826-12.4428296-12.1568845-22.0934866-14.7009576Z"/>
    <path d="M2472.7579957,2810.4772497h-14.743008c4.3943079,13.1408731-21.6014923,30.6340034,0,36.8785463,2.1782311-15.0289538,19.9573063-14.457063,22.1355374-29.4860167-4.5162552-.4120978-8.7087192-1.1479867-7.3925294-7.3925296Z"/>
    <path d="M563.3870795,2825.1782073c20.6974003,70.7168202,73.6729891,171.7354424,154.8184041,206.4778084.4120978-9.4446083,9.4446081-10.2645988,7.3925294-22.1733836-69.0304402-41.9708974-94.9422801-165.0031103-162.2109335-184.3044247Z"/>
    <path d="M1927.2456751,2876.8418127c-10.1006004,9.4446083-10.1006004,34.8222625,0,44.1827692,26.3658471,4.3564623,22.4214828-21.7612859,22.0934866-44.1827692h-22.0934866Z"/>
    <path d="M858.2388289,2957.9031282c-14.2929184,21.5173913-.5760959,65.9482601,29.5240088,66.3603579,7.3923822,0,8.7465651-5.9964432,14.7428608-7.3925296-5.092351-29.3178135-32.4421867-36.3823469-44.2668697-58.9678283Z"/>
    <path d="M1352.2094928,3156.988407c10.8827452,101.5947181-36.0543498,203.6814306-22.1313323,294.8475518,34.8222616-123.8522034,78.0632522-340.0227197,0-449.6659598-24.5997138,52.8914886,16.0129419,97.6545587,22.1313323,154.818408Z"/>
    <path d="M1256.3631206,3068.5303568c4.8064056,4.764355-3.078118-3.1201689,0,0h0Z"/>
    <path d="M1779.7819547,3238.0497224c5.7062926-1.644186,14.5369591-.1639981,14.743008-7.3925296-5.7062926,1.7240826-14.5369591.2480997-14.743008,7.3925296Z"/>
    <path d="M1765.0389467,3245.442252c4.8484564,4.8442515-3.078118-3.1201689,0,0h0Z"/>
    <path d="M1698.6785905,3252.8347816c4.8442513,4.7601499-3.0779505-3.124374,0,0h0Z"/>
    <path d="M1742.9454601,3252.8347816c4.8484564,4.7601499-3.1201688-3.124374,0,0h0Z"/>
    <path d="M1875.6283268,3252.8347816c4.8064056,4.7601499-3.077946-3.124374,0,0h0Z"/>
    <path d="M1558.6452451,3267.5357391c5.6684469-1.644186,14.4949083-.1639981,14.7009572-7.3925296-5.7061282,1.7240826-14.536795.2438946-14.7009572,7.3925296Z"/>
    <path d="M1588.1312611,3267.5357391c5.6684469-1.644186,14.4950735-.1639981,14.7009572-7.3925296-5.7062926,1.7240826-14.5369591.2438946-14.7009572,7.3925296Z"/>
    <path d="M1506.9858461,3348.6811562c4.8442513,4.7601499-3.078118-3.124374,0,0h0Z"/>
    <path d="M1108.8994001,746.2710569c4.8444042,4.8064057-3.0402723-3.0781181,0,0h0Z"/>
    <path d="M541.2557472,2972.6881873c4.8023391,4.7601499-3.0823231-3.124374,0,0h0Z"/>
    <path d="M2723.418567,2235.3990021c-3.078118-3.0360673,4.8484564,4.8484565,0,0h0Z"/>
    <path d="M253.7586814,1734.1367181c4.188259-29.5659132-6.2445427,43.6108784,0,0h0Z"/>
    <path d="M194.7866495,2508.2371683c2.1151549-14.8649557.5130197-3.8182121-.77781,5.3404508.2227396-1.5600845.4708392-3.2042705.77781-5.3404508Z"/>
    <path d="M312.7265083,1896.2845795c4.188259-29.4860167-6.2403377,43.6108784,0,0h0Z"/>
    <path d="M2192.6114086,1970.037467c-3.0821431-3.0402724,4.8442513,4.8442515,0,0h0Z"/>
    <path d="M231.6231441,2080.5847991c-3.078118-3.0402724,4.8442513,4.8442515,0,0h0Z"/>
    <path d="M718.2054836,937.9259604c-3.1201688-3.0823232,4.8443943,4.8442515,0,0h0Z"/>
    <path d="M135.8188227,2456.577768c-3.1200407-3.0402724,4.8022005,4.8442515,0,0h0Z"/>
    <path d="M917.2487066,930.5754816c-3.0823231-3.0823232,4.8022005,4.8442515,0,0h0Z"/>
    <path d="M91.5477479,1866.7985628c-3.078118-3.0360673,4.8484564,4.8484565,0,0h0Z"/>
    <path d="M1765.0389467,584.0643244c-76.6249548-96.7883124-161.550736-209.5138757-191.6927444-339.1144226-23.8175691-102.4988102-35.6843028-156.8704868-103.1548-206.3937068-63.7320214-8.0905728-91.0820174-16.0970439-140.1132418-14.7430084-16.5930849,31.9880389,34.9862597,32.8500802,14.743008,44.22482-114.9416372-70.0566227-225.2030212-96.0482184-346.4690977-29.4818116-47.6351382,104.0168439-27.1858376,215.30427-58.9678268,316.9830897-110.631431,353.8574309-655.4036577,959.1575842-751.9901238,1157.4228725-48.7831248,100.1986318-90.3839742,201.3434064-125.3281831,309.632611-34.9063632,108.104181-73.3449929,521.7115851-58.9720319,626.5904702,18.8513704,137.9812701,33.1824063,376.0770704,258.179253,630.761909,244.5423184,276.6984291,645.6268483,346.5111572,729.6863833,364.5803834,79.3372309,17.001136,206.7216977-6.4884375,258.0531006,44.1827692,141.1014355,139.5413546,782.1279271,79.5054361,892.0192641-110.5473322,322.033382-238.8358943,626.409636-512.6580491,685.5835117-1002.6465153,7.0224824-58.0679413,9.28061-114.9836909,7.3925294-169.5992621-17.5351806-506.8466294-252.0987083-820.9576499-508.6758261-1105.7844975-165.0787976-183.2741803-400.2182478-313.82087-560.2931744-516.0683685ZM2148.3823846,1092.7401633c-11.0467433-15.4831023,37.6987158,52.7695413,0,0h0ZM1389.0459873,90.1314938c-20.1213044-22.4214833,22.4214828,20.1213049,0,0h0ZM1387.4438521,278.4181287l-.0378457.0378457c-.2058891,1.6021352-.3320415,2.7122762-.370047,2.8342235.0380055-.1219473.1641579-1.2320883.370047-2.8342235l.0378457-.0378457c.2901505-2.2202819.8241955-5.8324451,1.6021352-11.336894,2.6281746-18.4771189-.4120978,3.124374-1.6021352,11.336894ZM1366.9525007,75.3884854c-20.1211456-22.4214833,22.4214828,20.12551,0,0h0ZM1271.1061286,141.7530484c.2480997.2438946.1639981.1639981.3702038.370047.4918374.4919943.945986.899887,1.0258825,1.0260394-.0798965-.1261524-.5340451-.5340451-1.0258825-1.0260394-.2062057-.2060489-.1221042-.1261524-.3702038-.370047-.2438946-.2901505-.5718908-.5760959-.6559924-.6601975.0841016.0841016.4120978.370047.6559924.6601975ZM1249.012642,377.6706176c21.5215958,54.657622,23.5316237,128.7805564,22.0934866,206.3937068-7.8424729-19.175162-14.6168556-39.4226193-36.8743403-44.22482-5.1764526-70.7967167,14.5791662-115.6817341,14.7808537-162.1688868ZM1263.7135992,628.2933494c-.7779397-.7611194-.8620413-.8410159-.6139416-.6181467-.2480997-.2228692-.1639981-.1429727.6139416.6181467.6981998.6770178,1.6021352,1.5811099,1.6021352,1.6231606,0-.0420508-.9039354-.9461429-1.6021352-1.6231606ZM1265.3157344,652.0478429c0-.0378457-.9039354-.9419378-1.6021352-1.6189556-.7779397-.7611194-.8620413-.845221-.6139416-.6181467-.2480997-.2270743-.1639981-.1429727.6139416.6181467.6981998.6770178,1.6021352,1.5811099,1.6021352,1.6189556ZM1263.7135992,613.5503411c-.7779397-.7611194-.8620413-.8410159-.6139416-.6139416-.2480997-.2270743-.1639981-.1471778.6139416.6139416.6981998.6770178,1.6021352,1.5811099,1.6021352,1.6231606,0-.0420508-.9039354-.9461429-1.6021352-1.6231606ZM1204.7457723,296.5672513c-3.078118-3.0781181,4.8442513,4.8064057,0,0h0ZM1190.0027643,340.7962764c30.020061,33.1402307,6.9804316,99.7066375,7.3925294,147.4637242-50.2211082-33.9602212-4.4363586-92.5201568-7.3925294-147.4637242ZM1190.0027643,606.1998623c-.2060489,7.1444299-8.9946646,5.7062927-14.743008,7.3504788.2480997-7.1444299,9.0367154-5.7062927,14.743008-7.3504788ZM1153.1662698,311.3102597c23.6537255,13.2628204,9.3647116,97.8984534-14.7386494,110.589383,2.7920191-43.5309819,26.7315355-72.4409027,14.7386494-110.589383ZM1160.5167484,539.8395044c4.2303098-29.5701183-6.1982869,43.6108784,0,0h0ZM1151.3622908,581.7641459c-.1261524.9881937-.2060489,1.6021352-.2060489,1.644186,0-.0420508.0798965-.6559924.2060489-1.644186.3279962-2.1319753.8199905-5.7062927,1.3540355-9.3184559.370047-2.38428.6980432-4.8484565.9461428-6.7365372.1639981-1.2741391.3279962-2.2160768.4080466-2.7921727-.0800504.5760959-.2440485,1.5180337-.4080466,2.7921727-.1261524,1.0260394-.2901505,2.0941295-.4961994,3.6121632-.2018438,1.3161899-.2859454,2.014233-.4499435,3.124374-.6559924,4.5162553-1.1101409,7.7205258-1.3540355,9.3184559ZM1145.7779455,598.8073327c8.540516-29.1159697,8.540516,29.1580205,0,0h0ZM1131.0349375,657.8172118c19.0111635,1.7661333-10.1424982,12.6488788,0,29.4860167-18.3593762-1.110141-2.1782311-24.9655564,0-29.4860167ZM1116.2919295,702.0462369c8.540516-29.1580205,8.540516,29.1159697,0,0h0ZM1108.8994001,746.2710569c-3.0402723-3.0781181,4.8444042,4.8064057,0,0h0ZM1101.5490741,525.096496c8.5403635-29.1159697,8.5403635,29.1159697,0,0h0ZM1101.5490741,775.7570736c8.5403635-29.1159697,8.5403635,29.1159697,0,0h0ZM1094.198443,805.2430903c4.8064056,4.8442515-3.1200165-3.0781181,0,0h0ZM1086.8059136,827.3365774c8.540516-29.1159697,8.540516,29.1538154,0,0h0ZM1079.4133842,849.4721153c.6980432.6770178,1.6021352,1.5769048,1.6021352,1.6189556,0-.0420508-.904092-.9419378-1.6021352-1.6189556-.7779397-.7611194-.8620413-.845221-.6137896-.6181467-.2482517-.2270743-.1641501-.1429727.6137896.6181467ZM1072.0629056,886.3464565c.6770178.6770178,1.5600844,1.5811099,1.6021352,1.6021352-.0420508-.0210254-.9251174-.9251175-1.6021352-1.6021352-.7779397-.7611194-.8620413-.8620413-.6139416-.6139416-.2480997-.2480997-.1639981-.1471778.6139416.6139416ZM1064.6705278,908.4399437c.6978915.6770178,1.6019836,1.5811099,1.6019836,1.6231606,0-.0420508-.904092-.9461429-1.6019836-1.6231606-.7780913-.7611194-.8621929-.8410159-.6140932-.6181467-.2480997-.2228692-.1639981-.1429727.6140932.6181467ZM1057.3198976,923.182952c8.5447211-29.1159697,8.5447211,29.1538154,0,0h0ZM1057.3198976,989.5433099c70.1407225-84.6356329,72.9328952-236.6576632,117.9398588-346.5069522-.904092-18.2332242,9.0367154-12.5269315,7.3925294,0-60.1999151,339.6484677-199.7412661,676.3828153-258.0529525,1039.4830108-71.6168534,446.2766658-6.20264,922.4682665,147.4635723,1267.9912301-.5340451-78.1051446-57.491844-163.6028189-58.9678268-265.3615351,60.8601125,172.5554329,124.9623412,341.9065953,221.1367095,479.227668-62.3360953-28.6618211-104.6348346-141.097234-169.5612604-191.6885441-12.7289266,58.8837267,52.6896448,118.1837563,95.8462205,169.5151605,47.3491928,56.3396537,106.6492209,103.0749061,132.6828667,147.4258784-348.5590221-259.9453928-634.6221558-731.1287439-552.900645-1282.713213,33.838273-228.2643247,112.5196578-439.9522264,184.3003631-656.1227428,20.1211563-19.545209-45.2552114,116.7077735-7.3506267,140.0753997,38.5605771-30.2261107,24.7637119-112.8895614,51.6173482-154.818408.2060489-28.8258192-37.1224399-1.3119848-36.8743403-14.7388033,22.2954792-53.017641,21.3533926-137.6532739,73.7108348-140.0753997,2.0520787-19.2592636,2.5062273-36.916392-22.1355374-29.5238624,21.8874377-71.4947598,52.7274892-133.9990599,66.3645613-213.7862363,23.3213697,11.4167906-9.2007135,44.2668708,7.3883243,51.6173496ZM983.567012,2545.031613c25.1339091,4.4363588,16.017147,43.0389876,22.1355374,66.364563-19.7511078-9.692708-12.2367807-46.7352524-22.1355374-66.364563ZM998.3520708,2626.1770301c35.6464571,33.5901742-1.5180336,70.7967167,0,0h0ZM990.9595414,2530.3306555c-90.796072-377.5530533-47.8832378-790.3614923,36.8785453-1150.0513683-53.0176396,333.9842257-101.4305693,780.7108351-36.8785453,1150.0513683ZM1219.5308311,3282.3165932c-2.2579721,14.3729614-56.1798593-40.3267114-81.1032107-51.6594003,31.9878846-17.001136,52.9291795,40.3267114,81.1032107,51.6594003ZM1123.6844589,3215.9562353c4.8022005,4.8442515-3.1243739-3.1201689,0,0h0ZM1027.8380867,429.2501214c8.540516-29.1159697,8.540516,29.1159697,0,0h0ZM1027.8380867,783.1075524c4.8022005,4.8484565-3.1201688-3.0781181,0,0h0ZM1020.4455573,466.1244626c15.6050492,2.3422292,1.6021352,34.9484148-14.743008,29.4860167,3.818212-10.9247963,10.924796-18.6032712,14.743008-29.4860167ZM990.9595414,421.8996427c8.540516-29.1159697,8.540516,29.1159697,0,0h0ZM1013.0950787,525.096496c-3.2463212,9.0745613-9.4446081,15.1509011-22.1355374,14.7430084-3.448165-15.731202,10.5126982-14.0449652,22.1355374-14.7430084ZM990.9595414,569.321316c14.5369591,12.6488788-32.5220832,35.1965145-22.0934866,7.3925296,1.0680901-2.8720692,15.6050492-13.0567715,22.0934866-7.3925296ZM976.2165334,458.7361381c13.1030271,5.4203473,1.0680901,13.4268185,0,22.1313328-13.0986729-5.4203473-1.0680901-13.4268185,0-22.1313328ZM961.4735254,503.0030089c22.0934866,4.8442515-7.0601793,15.7269969,0,29.4860167-24.6794619-6.6944864-6.4463865-16.5091417,0-29.4860167ZM968.8660548,613.5503411c3.1201688,15.4410515-5.092351,19.545209-7.3925294,29.4860167-21.3912383-1.3161899-17.7790752-35.0283113,7.3925294-29.4860167ZM939.3842439,694.6537073c-13.2249744.9461429-15.5672035-9.0325105-29.486016-7.3504788.0798965-14.6589068,20.0792536-9.4025575,14.7011053-29.4860167,13.2206212-.9419378,15.5628503,8.9946648,29.4858679,7.3504788-.0841016,14.6631118-20.0834587,9.3647118-14.7009572,29.4860167ZM931.9917145,753.6257407c-.904092-13.2249747,9.0325103-15.5251531,7.3925294-29.4860167,21.3533926,1.3540356,17.7370244,35.0283113-7.3925294,29.4860167ZM909.898228,783.1075524c.1639981-7.1444299,8.9946646-5.7062927,14.7011053-7.3504788-.1641462,7.1864807-9.0368635,5.7104978-14.7011053,7.3504788ZM917.2487066,930.5754816c4.8022005,4.8442515-3.0823231-3.0823232,0,0h0ZM895.1131692,996.8937887c-21.3952966-10.2645988,2.0941295-36.3402961,7.3925294-44.22482,23.9018188,12.8086718-19.1373158,19.3391601-7.3925294,44.22482ZM909.898228,945.3142849c4.8022005,4.8484565-3.1201688-3.0781181,0,0h0ZM902.5056986,738.8827324v-22.0934871h22.0936347c-7.842621,6.8584845-2.3003265,27.1858383-22.0936347,22.0934871ZM931.9917145,547.232034c21.3533926,1.3119848,17.7370244,35.0283113-7.3923813,29.4818116-.9042401-13.2207696,9.0323622-15.5629988,7.3923813-29.4818116ZM931.9917145,598.8073327c-10.3487001,9.322661-.4119495,38.930625-29.486016,29.4860167-3.448165-23.03963,6.4043358-32.892131,29.486016-29.4860167ZM880.3701612,643.0363578c15.3990003-3.1201689,19.5073628,5.0503004,29.5280668,7.3925296-8.3386722,13.7968655-8.7465649,35.5203056-36.8785453,29.4818116-6.0763396-20.8193481,10.3907509-19.0952655,7.3504786-36.8743412ZM865.6271532,702.0462369h14.743008v14.7430084h-14.743008v-14.7430084ZM873.0196826,768.364544c8.5447211-29.1117646,8.5447211,29.1580205,0,0h0ZM865.6271532,937.9259604c.7022482.6770178,1.6021352,1.5811099,1.6021352,1.6189556,0-.0378457-.899887-.9419378-1.6021352-1.6189556-.7779397-.7611194-.8620413-.845221-.613795-.6181467-.2482463-.2270743-.1641447-.1429727.613795.6181467ZM858.2388289,643.0363578c-3.0402723-3.0823232,4.8442513,4.8442515,0,0h0ZM850.8883503,657.8172118c-3.0823231-3.1201689,4.8022005,4.8064057,0,0h0ZM845.0979562,644.5964422c-.2480997-.2060489-.9881936-.9881937-1.5600844-1.5600845.5718908.5718908,1.3119847,1.3540356,1.5600844,1.5600845ZM836.1453424,761.0140652c4.8442513,4.8484565-3.1201688-3.0781181,0,0h0ZM836.1453424,842.1174315c-3.1201688-3.1201689,4.8442513,4.8064057,0,0h0ZM828.752813,967.407772c8.540516-29.1117646,8.540516,29.1580205,0,0h0ZM814.0518558,687.3032286h14.7009572v22.0934871h-22.0934866c-2.0520787-11.9087848,6.9804316-12.6909296,7.3925294-22.0934871ZM755.0798239,849.4721153c31.9501924,3.0781181-7.8004221,42.7866828,0,0h0ZM755.0798239,886.3464565c27.2278884,22.3415868-22.4214828,24.8015583,0,0h0ZM755.0798239,952.6689687c4.7644988,4.8442515-3.1201688-3.0823232,0,0h0ZM718.2054836,937.9259604c4.8443943,4.8442515-3.1201688-3.0823232,0,0h0ZM725.598013,974.8003016c-.2480997,7.1864807-9.0367154,5.7104978-14.7849161,7.3504788.2059062-7.1444299,9.0365727-5.7062927,14.7849161-7.3504788ZM681.3269382,878.953927c.4961994.4919943.4120978.4120978.6601974.6559924-.2480997-.2438946-.1639981-.1639981-.6601974-.6559924-.2437526-.2060489-.4919943-.4919943-.6559924-.6139416.1639981.1219473.4122397.4078927.6559924.6139416ZM666.5881353,960.0572932c10.7565928-24.4315113,18.3551711,28.7459227,0,0h0ZM673.9386139,1055.9036678c-3.0402723-3.0781181,4.8442513,4.8064057,0,0h0ZM644.452598,1232.815563c24.7637119-17.8253315-17.821126,24.7595075,0,0h0ZM629.7516408,1092.7401633c24.7216611-17.8211265-17.8253311,24.7637125,0,0h0ZM622.3591114,1136.9691884c24.7216611-17.7832808-17.821126,24.7595075,0,0h0ZM629.7516408,1277.040383c-3.2463212,9.0745613-9.4446081,15.1551061-22.1355374,14.7850591-3.448165-15.7690477,10.554749-14.0449652,22.1355374-14.7850591ZM600.2656248,1328.6619376c-3.2840271,10.7145423-6.4884373-.740094-14.7850588,0,1.8081841-9.2427645,14.7009572-7.4345804,14.7850588,0ZM592.8730954,1136.9691884c.492134.4919943.4120978.4078927.6559924.6559924-.2438946-.2480997-.1638584-.1639981-.6559924-.6559924-.2438946-.2060489-.4919943-.4961994-.6559924-.6181467.1639981.1219473.4120978.4120978.6559924.6181467ZM578.0922418,1269.6899042h14.7808537v14.7430084h-14.7808537v-14.7430084ZM555.9987552,1365.5362788c11.9087845-2.0941295,12.728775,6.9425861,22.0934866,7.3504788,2.9561707,14.3309106-33.5523276,10.802849-22.0934866-7.3504788ZM548.6062258,1417.1157826c24.7637119-17.7832808-17.7832803,24.7595075,0,0h0ZM541.2557472,1203.3295463h14.743008v22.1355379h-22.0933483c-2.0942677-11.9087848,6.9804318-12.6909296,7.3503404-22.1355379ZM533.9054068,1262.2973746c8.5403778-29.1117646,8.5403778,29.1580205,0,0h0ZM533.9054068,1306.5263997c15.3988621-3.0823232,19.4651738,5.0923511,29.4816726,7.3925296,2.3422292,13.0147207-41.3106989,13.1787188-29.4816726-7.3925296ZM535.4863784,1367.1173886s-.3910724-.370047-1.5809716-1.5811099c-.2272125-.2270743-.5341833-.5340451-.6393103-.634967.105127.1009219.4120978.4078927.6393103.634967,1.1898992,1.2110629,1.601997,1.6021352,1.5809716,1.5811099ZM526.5127392,1468.7331322c.6980432.6770178,1.6021352,1.5811099,1.6021352,1.6231606,0-.0420508-.904092-.9461429-1.6021352-1.6231606-.7821447-.7611194-.8620413-.8410159-.6181467-.6139416-.2438946-.2270743-.1639981-.1471778.6181467.6139416ZM504.4192526,1417.1157826h-14.7850588c1.3960863-6.2445429-2.8720692-6.9425861-7.3504786-7.3504788-2.9141199-14.2930649,33.5523276-10.802849,22.1355374,7.3504788ZM482.2837153,1350.7932704c18.3595136-28.7459227,10.7607979,24.4357164,0,0h0ZM504.4192526,1358.1437492c8.540516-29.1159697,8.540516,29.1580205,0,0h0ZM489.6341939,1453.9901238c8.5447211-29.1159697,8.5447211,29.1580205,0,0h0ZM511.7697312,1498.2191489c-1.1900374,8.6624635-13.4268182,6.198287-22.1355374,7.3925296,1.2320882-8.6666686,13.473074-6.2445429,22.1355374-7.3925296ZM511.7697312,1461.3826534c-3.078118-3.1201689,4.8064056,4.8064057,0,0h0ZM497.0268606,1262.2973746c4.8483191,4.8484565-3.1203061-3.0781181,0,0h0ZM482.2837153,1291.8254421c14.0870156,3.0781181,31.7441435,2.6281746,29.486016,22.0934871-19.2592631,2.0520787-36.9163911,2.5020222-29.486016-22.0934871ZM497.0268606,1549.8364984c-12.7709631,20.65535-19.3013144,6.9425861-44.2249562,7.3504788.1219473-20.1633557,34.7802108-17.4931303,44.2249562-7.3504788ZM423.3158884,1557.1869772c.6139416-10.4285969,1.1900374-20.8613989-7.3504786-22.0934871,4.2303098-22.2574852,49.3171699,12.8969785,22.0934866,22.0934871h-14.743008ZM431.5704591,1661.3720243c-.1219473,1.005014-.4120978,2.9561708-.904092,6.4043359-.6139416,4.3312318-1.0260393,7.2285315-1.3540355,9.4656337-.1850235,1.2531137-.3279962,2.3001784-.4541486,3.0991435-.3069708,2.1782311-.2438946,1.8292095,0,0,.105127-.7148635.2480997-1.7451079.4541486-3.0991435.7569143-5.2563492,1.8880806-13.2628204,2.2581276-15.8699696.1639981-1.0891156.1639981-.9881937,0,0ZM452.8019044,1358.1437492c-5.9543923-1.3960864-7.3504786-7.3925296-14.743008-7.3504788,1.3960863-5.9964432,7.3925294-7.3504788,7.3925294-14.7430084,5.9543923,1.3960864,7.3084278,7.3925296,14.7009572,7.3504788-1.3960863,5.9964432-7.3925294,7.3504788-7.3504786,14.7430084ZM460.152383,1409.7653039c-5.9543923-1.3960864-7.3126329-7.3925296-14.7009572-7.3925296v-14.7430084c15.6849457-3.4481651,14.0407597,10.5547493,14.7009572,22.1355379ZM452.8019044,1490.8686701c-.904092,20.9412954-31.4581981,14.1669125-29.486016-7.3925296,15.3990003-3.1201689,19.5074987,5.0503004,29.486016,7.3925296ZM415.9654098,1453.9901238v-29.4818116c29.0739182-5.0923511,24.1035145,31.0418961,0,29.4818116ZM467.5449124,1601.4580531c-3.9023136,5.9123416-7.6826799,11.9466306-7.3925294,22.0934871-5.9165466-3.9023137-11.9508353-7.6826801-22.0934866-7.3546839,4.8442513-9.8945518,15.7690473-13.7548147,29.486016-14.7388033ZM467.5449124,1461.3826534c-5.9964431-1.3960864-7.3545473-7.3925296-14.743008-7.3925296v-14.7430084c15.7269965-3.4481651,14.0449648,10.5547493,14.743008,22.1355379ZM445.4514258,1306.5263997h-14.7850588v-29.4860167c13.2249744-.9040921,15.5631345,9.0367156,29.486016,7.3925296-6.3244392,5.9543924-4.3522571,20.2054065-14.7009572,22.0934871ZM423.3158884,1240.2038875h14.743008v14.7430084h-14.743008v-14.7430084ZM415.9654098,1387.6297659c-6.2403377,43.6108784,4.188259-29.5659132,0,0h0ZM386.4793939,1697.3044277c-20.7771628-7.4766312,1.9723167-31.3362516,0-44.2710759,31.4581981-2.0520787.4541486,32.3202402,0,44.2710759ZM320.1191705,1756.272256c-52.3155242,11.8288883-23.4897057-70.8387675,7.3503458-36.8743412,2.9982215,17.7790757-13.468869,16.0129423-7.3503458,36.8743412ZM312.7265083,1896.2845795c-6.2403377,43.6108784,4.188259-29.4860167,0,0h0ZM305.3339789,1785.7582727c-3.078118-3.1201689,4.8484564,4.8022007,0,0h0ZM312.7265083,2058.491312c-10.5925947-9.0325105-13.9608632-25.2935525-14.7850588-44.1869743,26.6938433-6.9804318,10.3487001,28.9940224,14.7850588,44.1869743ZM290.6330217,1977.4299965c-48.7032283-43.6108784-18.8892162-123.1163145-14.7808537-191.6717238,53.6694269,39.7506155,5.4581929,113.9744719,14.7808537,191.6717238ZM283.2406242,2545.031613c-10.0166308-2.2160768-6.1185223-18.3972223-7.3884562-29.4818116,25.7477005-6.5725391,12.6068277,24.0614643,7.3884562,29.4818116ZM238.9736227,1999.5234837c5.9123415,25.6215487-10.9626417,28.333825-7.3504786,51.5752988-35.2764101-35.9702491-57.5338948-90.1779276-44.2290239-154.8142029,11.6648899-.5760959,28.0899296,3.6121632,29.486016-7.308428,28.9940217-3.8602629,39.1787237,101.9227143,0,95.8463746-3.448165,15.6849461,10.5126982,14.0407601,22.0934866,14.7009576ZM194.7866495,2279.6700779h-81.145415c-10.1426512-9.5287099-7.2662496-32.0300897-7.3083004-51.5795038,57.7777909-17.1651341,75.1488445,7.9686255,88.4537154,51.5795038ZM106.3329341,2205.9171904v-66.2804614c36.4663201,2.7921727,40.7386807,37.7784333,51.5793751,66.2804614-15.9330454-16.5932433-25.1337589,6.1604413-51.5793751,0ZM135.8188227,1829.9830927h29.486016c5.9124705,25.5626776-11.0088976,28.3590554-7.3925294,51.6005292-14.7849304-9.7726045-16.4292448-32.6902872-22.0934866-51.6005292ZM172.6553172,1992.1309541c14.0828105,15.4410515,23.7755183,35.2343602,29.4818109,58.9678283-42.9927306,13.5529709-26.7737398-32.1940878-29.4818109-58.9678283ZM180.0059251,2198.6045574v-58.9678283c15.4367168,3.1201689,19.5450792-5.0923511,29.4816816-7.3925296-1.0680901-16.1769404-18.56122-15.8489442-36.8322895-14.7808541v-44.1869743c10.4706474.6559924,20.8613983,1.2320883,22.1313323-7.3925296,44.8052506,14.1248617,36.0543498,81.885511,36.8364946,140.0333489-23.283524,3.6962648-26.0336459-13.2249747-51.617219-7.3126331ZM231.6231441,2080.5847991c4.8442513,4.8442515-3.078118-3.0402724,0,0h0ZM224.2726655,2220.6980445c6.5306187,17.9893296,17.1651336,31.9501932,14.7009572,58.9720334-11.6605544.5760959-28.0899296-3.5322667-29.486016,7.3925296-16.0970435-13.3889728-1.2320882-57.7399451-14.7009572-73.7528875,6.5725389,5.7483435,16.6312187,7.9644204,29.486016,7.3883245ZM283.2406242,2213.30972c-19.1331112-38.6026288-44.5949977-89.1140425-29.4819428-140.0333489h22.0934866c-2.2202819,79.4213345,13.5487655,67.3443465,7.3884562,140.0333489ZM253.7586814,2051.0987824c1.9679771-30.5499018-9.6927078-28.6618211,0-51.5752988,22.1733831,4.8442515,28.5819239,25.4575506,29.4819428,51.5752988h-29.4819428ZM253.7586814,1977.4299965c8.5406474-29.1580205,8.5406474,29.1538154,0,0h0ZM246.366152,1608.8085318c1.8081841-9.2806102,14.6589064-7.4345804,14.7808537,0-3.2841669,10.7187474-6.4842323-.740094-14.7808537,0ZM253.7586814,1734.1367181c-6.2445427,43.6108784,4.188259-29.5659132,0,0h0ZM238.9736227,1815.2400843c-5.2983999-22.5434306,7.5566585-26.8956878,7.3925294-44.22482,11.2527922.1219473,16.1811451,54.6155712-7.3925294,44.22482ZM216.8801361,1741.4871969v-44.1827692c5.9123415,3.8602629,11.9928861,7.678475,22.0934866,7.3504788,1.4801879,21.1052935.9461428,40.2426098-22.0934866,36.8322904ZM209.4876067,1763.6227348c44.2710747,12.4007791-4.4742044,84.3707129,0,0h0ZM224.2726655,1881.5836219c-35.112412,8.048522-30.0999575-23.9815678-29.486016-51.6005292,23.2456783,3.7383156,20.3694041,33.6953012,29.486016,51.6005292ZM231.6231441,1859.4901348v-29.5070421h14.743008v29.5070421h-14.743008ZM246.366152,2176.4311737c10.924796,6.3244394,15.8490752,18.5612204,14.7808537,36.8785463-16.17694-1.0680902-15.8489438-18.5612204-14.7808537-36.8785463ZM246.366152,2228.0905741c17.7413609-3.0360673,16.0129419,13.4688693,36.8744722,7.308428v51.6636054c-14.6169875-12.3208826-9.3606384.6559924-29.4819428,0-11.4167903-10.7607982-6.4884373-37.6985368-7.3925294-58.9720334ZM253.7586814,2301.763565c34.0022711-1.5600845-11.7447864,34.5741628,29.4819428,29.4818116,6.2864616,23.5736751-6.4044677,28.0100338-14.7809856,36.8785463-26.0378509-20.6132992-19.7512574-40.4907095-14.7009572-66.3603579ZM297.9414495,1498.2191489c17.1272879,2.0520787,17.0011356,19.7092071,7.3925294,29.4860167-9.9786531-2.2623327-6.0763396-18.4392731-7.3925294-29.4860167ZM327.4695162,2655.6630468c8.540516-29.1580205,8.540516,29.1538154,0,0h0ZM312.7265083,1689.9118981c-8.6246176-1.1900375-6.2403377-13.4688693-7.3925294-22.1355379,13.2249744-.9419378,15.5629984,9.0367156,29.486016,7.3925296-1.644186,10.592595-22.009385,2.544073-22.0934866,14.7430084ZM334.8199948,2486.0637847c8.540516-29.0739189,8.540516,29.1538154,0,0h0ZM342.2125242,1512.9621572h29.486016v29.4818116c-25.3817251,5.7525486-35.2343593-4.1041575-29.486016-29.4818116ZM379.0868645,1741.4871969c-10.0164989-2.2581276-6.1562361-18.4350681-7.3883243-29.4818116,25.7477005-6.5725391,12.5647769,24.0614643,7.3883243,29.4818116ZM386.4793939,1476.1256618c8.5026703-29.1580205,8.5026703,29.1159697,0,0h0ZM386.4793939,1453.9901238c-17.2869469-1.8880806-4.2681555-32.4001367,0-36.8743412,17.2492352,1.8880806,4.2303098,32.4001367,0,36.8743412ZM371.6985402,1321.3114588c13.1408728,5.3782965,1.0638851,13.3847677,0,22.0892821-13.1408728-5.3782965-1.0680901-13.3847677,0-22.0892821ZM371.6985402,1365.5362788c11.9087845-2.0941295,12.728775,6.9425861,22.0892815,7.3504788-5.7062926,6.5725391-7.8845237,16.6731398-7.3084278,29.4860167-18.6032708-1.7661333-30.549901-21.7234401-14.7808537-36.8364955ZM364.3060108,1490.8686701h-22.0934866c3.9023136-5.9543924,7.6786084-11.9928864,7.3925294-22.1355379,9.0326441,3.2042705,15.1088499,9.4446083,14.7009572,22.1355379ZM334.8199948,1409.7653039c10.9626417,6.2403378,15.8531489,18.5612204,14.7850588,36.8322904-24.8057627,7.5985785-11.5008918-22.9134776-14.7850588-36.8322904ZM320.1191705,1653.0333518h-14.7851916v-14.7430084h14.7851916v14.7430084ZM312.7265083,1535.0934901c8.540516-29.1117646,8.540516,29.1159697,0,0h0ZM297.9414495,1424.5083122c10.7607979-24.4357164,18.3972219,28.7417177,0,0h0ZM305.3339789,1453.9901238c29.3220179,38.1526853-38.396579,28.4599773,0,0h0ZM297.9414495,1638.2903435c-.1639981,7.1864807-8.9904595,5.7104978-14.7008253,7.3925296.205917-7.1864807,9.0365835-5.7062927,14.7008253-7.3925296ZM253.7586814,1490.8686701c23.8974656,12.7708261-19.1793666,19.3013144-7.3925294,44.22482,15.1509007-2.0520787,14.7009572-19.7092071,22.0934866-29.4818116,10.6346455,1.639981,2.6283061,21.9673347,14.7809856,22.0934871-14.1249932,27.7156783-28.2498545,17.0389817-51.6174801,7.3883245-.3279962-22.459329,15.5629984-28.6618211,22.1355374-44.22482ZM231.6231441,1675.1688898c-3.078118-3.0781181,4.8442513,4.8064057,0,0h0ZM216.8801361,1601.4580531c-.2059187,7.1444299-9.0325103,5.7062927-14.743008,7.3504788.2060489-7.148635,8.9946646-5.7104978,14.743008-7.3504788ZM180.0059251,1638.2903435h22.131203c-.904092,18.7672693-10.7187471,28.5819246-29.4818109,29.4860167,5.7062926-6.568334,7.9223694-16.631089,7.3506079-29.4860167ZM150.5197799,1712.0053852c21.5173907-10.8406947,21.5173907,32.9720275,0,22.1313328v-22.1313328ZM172.6553172,1763.6227348c-.0420508,12.2788318,0,24.5997145,0,36.8785463h-44.2290239c7.3084278-19.755463,12.3208823-41.7648485,44.2290239-36.8785463ZM121.0337639,1903.6771091c11.9087845-2.0562838,12.7329801,6.9804318,22.0936149,7.3925296,23.7753899,75.8049662-16.3452715,130.6686371,7.392401,206.3937068-55.3556637-34.4984713-63.1602909-149.9699515-29.486016-213.7862363ZM69.4584664,2110.0708158c-6.2445427,43.6907749,4.188259-29.4860167,0,0h0ZM69.4584664,2154.3376866c6.4043358-13.716969,18.2290187,53.8796823,7.3883243,58.9720334-26.9377379-5.0124546,1.5600844-29.3220186-7.3883243-58.9720334ZM76.8467907,2360.7313934c-26.4457436-14.1248617.2060489-44.1869743-14.7808537-73.6687859,30.549901-1.0680902,7.7205256,51.3314042,14.7808537,73.6687859ZM84.1594236,2478.6712551c4.2681555-29.4860167-6.2024919,43.69498,0,0h0ZM84.1594236,2264.8850188c-1.1101409,1.1521918-14.2510137-24.8015583-14.7009572-22.0934871,3.3640634-20.3651995,25.9495443,10.9247963,14.7009572,22.0934871ZM91.5477479,1866.7985628c4.8484564,4.8484565-3.078118-3.0360673,0,0h0ZM98.9402773,2102.7623878c15.6891508-3.4523702,14.0449648,10.5126985,14.7009572,22.0892821-5.9123415-1.3960864-7.3083004-7.3883245-14.7009572-7.3883245v-14.7009576ZM106.3329341,2287.0626075c48.3751047,16.9170344,69.5224484,6.8963302,132.6406885,14.7009576-12.7708258,24.5576637,3.7383155,32.6860821,0,66.3603579h-36.8364946c8.2545706-23.1615773.6603273-16.6731398,0-44.1869743-20.8613983-1.2320883,6.1183904,45.4190625-14.743008,44.1869743-34.3302673,2.3800749-12.8927731-51.003408-29.4818109-66.3603579-31.1680477,3.284167-23.8175691,45.0868613-36.8785453,66.3603579-17.451079-14.457063-14.9869026-48.8672276-14.7008298-81.0613155ZM150.5197799,2449.1852384c4.2723606-29.4818116-6.2024919,43.69498,0,0h0ZM135.8188227,2456.577768c4.8022005,4.8442515-3.1200407-3.0402724,0,0h0ZM135.8188227,2515.5498014c4.8022005,4.8442515-3.1200407-3.0402724,0,0h0ZM135.8188227,2427.0917513c4.8022005,4.8484565-3.1200407-3.0360673,0,0h0ZM128.4262933,2493.4563143c8.540516-29.0739189,8.540516,29.1538154,0,0h0ZM106.3329341,2515.5498014c.5759684.5718908,1.3160624,1.3960864,1.559957,1.5600845-.2438946-.1639981-.9839886-.9881937-1.559957-1.5600845ZM121.0337639,2412.3907937c-15.9750962,1.2320883-3.3262177-26.1976446-7.3925294-36.8743412,12.8128766,6.7323321,19.095265,25.8696484,7.3925294,36.8743412ZM128.4262933,2567.2092017c13.3889724,8.7045143,5.7903942,38.4344257,14.7010855,51.5752988-28.0058288,5.9165467-9.3606349-34.8222625-14.7010855-51.5752988ZM135.8188227,2722.0234047c8.4984652-29.1538154,8.4984652,29.1580205,0,0h0ZM143.1273788,2640.8779876c8.5824385-29.0739189,8.5824385,29.1580205,0,0h0ZM157.9123092,2574.5176297c4.8442513,4.8442515-3.1201688-3.0402724,0,0h0ZM165.3048386,2545.031613c-11.0887941-15.9330458-12.568982-41.4746981-14.7850588-66.3603579,28.9099201-2.3001784,26.4457436,51.003408,14.7850588,66.3603579ZM180.0059251,2382.9089821c22.7494795,1.8039791,41.7184623,7.4724261,58.9676975,14.7009576-4.3522571,37.4504371,6.3244392,56.5877534-14.7009572,66.3603579-28.9099201,6.8164337-5.3404507-38.8465234-22.1355374-44.2668708-16.3030924.9839886-3.1201688,31.2899958-7.3504786,44.2668708-19.3812104-11.0887944-27.3077849-61.3521083-14.7807244-81.0613155ZM194.7866495,2508.2371683c-.3069708,2.1361803-.5550705,3.7803664-.77781,5.3404508-.2902801,2.0520787-.5762255,4.024261-.7822744,5.5843454-.0798965.4120978-.1219473.6559924-.1639981.9040921-.1639981,1.3119848-.2859454,2.1361803-.3279962,2.3001784.0420508-.1639981.1639981-.9881937.3279962-2.3001784.0420508-.2480997.0841016-.4919943.1639981-.9040921.1639981-1.3161899.4541486-3.284167.7822744-5.5843454,1.2908297-9.1586629,2.8929649-20.2054065.77781-5.3404508ZM180.0059251,2567.2092017c14.7008279,3.1201689,33.5900441,39.4226193,14.7807244,51.5752988-28.0478788,5.9165467-9.4025573-34.8222625-14.7807244-51.5752988ZM187.3941201,2744.1168918c10.554749,9.1166121,13.9650683,25.3776541,14.743008,44.2668708-18.8471654-.8199905-14.6589064-24.7216618-14.743008-44.2668708ZM180.0059251,2677.7565339c14.3728317,15.1929518,20.5290678,38.4344257,29.4816816,58.9678283-24.1455653-5.2563492-28.745922-30.1420091-29.4816816-58.9678283ZM246.366152,2493.4563143c-7.8845237,24.6375602,2.3422292,25.213656-7.3925294,51.5752988-23.9016707-5.5002438-31.9880381-26.9377386-29.486016-58.9678283,17.1272879-2.3001784,28.3381601,1.2320883,36.8785453,7.3925296ZM231.6231441,2559.8166722c19.835359-2.0520787,20.9833456,51.9075,7.3504786,58.9678283-27.84183,4.8484565-13.7968651-51.6594003-7.3504786-58.9678283ZM246.9422479,2858.2763872c-.4119668,2.8762743-1.0302444,7.0645334-1.5642895,10.6809017-.9839886,7.1444299-1.6399809,11.6606852,0,0,.2901505-1.8922857.5760959-3.9443645.9881936-6.9005353.2438946-1.5600845.4120978-2.7122762.5760959-3.7803664.1639981-1.3119848.3279962-2.2959733.4078927-2.7921727-.0798965.4961994-.2438946,1.4801879-.4078927,2.7921727ZM238.9736227,2751.5094214c9.1166119,3.2042705,15.1929515,9.4446083,14.7850588,22.0934871-9.0786353-3.2042705-15.1551058-9.4446083-14.7850588-22.0934871ZM224.2726655,2670.3640043c19.3013139,10.1847023,31.9081416,27.1017367,29.486016,59.0519299-15.6050492-13.8809671-25.297757-33.6742758-29.486016-59.0519299ZM224.2726655,2648.2705172c1.8081841-7.9644204,14.6210607-5.0082496,14.7009572-14.7009576,9.9366024,4.8442515,13.7590194,15.7690477,14.7850588,29.4860167-20.1213044,5.3362457-14.8649553-14.7009576-29.486016-14.7850591ZM253.7586814,2390.2174101c16.7950867-10.1006007,27.6778319,19.0532147,29.4819428,0,25.133627,31.3740974-32.0722716,36.2183488-22.0936185,58.9678283-16.6689343-5.4203473-2.9141199-41.3107-7.3883243-58.9678283ZM261.1470057,2493.4563143c10.1048055-23.409677,7.2705821,26.0336465,7.3126329,36.8743412-10.1048055,23.4895735-7.2705821-26.0336465-7.3126329-36.8743412ZM261.1470057,2574.5176297c-1.2699339-15.9330458,26.1177475-3.284167,36.7944438-7.308428v51.5752988c-38.5185263,11.5807886-4.6802532-49.3592219-36.7944438-44.2668708ZM275.852168,2751.5094214c-3.0821915-3.1201689,4.8442513,4.8442515,0,0h0ZM275.852168,2648.2705172c6.5683338-5.7483435,16.6689343-7.8845239,29.4818109-7.3925296-2.8720692,26.6097424-9.5245046,49.4433235-14.7009572,73.7528875-29.6079633-8.2924166,5.4203472-43.0347825-14.7808537-66.3603579ZM290.6330217,2965.2956577c1.8081841-9.2806102,14.6210607-7.3925296,14.7009572,0-3.2421161,10.7565931-6.4884373-.740094-14.7009572,0ZM290.6330217,2913.7161539c-20.1633552-22.4214833,22.4216154,20.1213049,0,0h0ZM290.6330217,2832.5707368c6.8584843,5.4203473,11.1308449,13.4688693,14.7009572,22.0934871-3.1201688,18.5612204-15.8489438-12.236781-14.7009572-22.0934871ZM305.3339789,2810.4772497c-24.3095634-4.2681556-10.5505439-27.8418307-7.3925294-44.2668708,16.3451432.9839886,3.1622196,31.2899958,7.3925294,44.2668708ZM297.9414495,2087.9773287c28.9519709,59.0519299,8.4606195,165.8188957,22.177721,221.1787659-27.8419628-49.6914232-28.6619533-178.2238799-22.177721-221.1787659ZM320.1191705,1984.8225261c-28.0478796,5.9123416-9.4026901-34.906364-14.7851916-51.6636054,34.2503708,4.4363588-1.9679771,36.386552,14.7851916,51.6636054ZM334.8199948,2766.2103789c8.540516-29.0739189,8.540516,29.1580205,0,0h0ZM327.4695162,2736.7243622c8.2545706-23.1615773.6559924-16.6731398,0-44.1869743,10.9626417,1.3960864,29.6079633,48.2112352,0,44.1869743ZM342.2125242,3009.482632c4.8442513,4.8442515-3.1201688-3.0402724,0,0h0ZM342.2125242,2950.5105986c.2060489-7.1444299,9.0325103-5.668447,14.7431417-7.308428-.2061826,7.1444299-8.9947984,5.6642419-14.7431417,7.308428ZM349.6050536,1911.0696386c-15.6050492-30.5541069,3.9401593-89.2149644,7.3506124-125.3113659,24.0613299,11.8246833-5.5466333,90.8128946-7.3506124,125.3113659ZM342.2125242,1594.0655235c27.4297322-25.7477011,37.4085197,20.1213049,0,0h0ZM386.4793939,2810.4772497c-21.1052929-1.0680902-13.5109197-30.7138999-14.7808537-51.5752988,15.0290879,7.0603283,15.9330454,28.2497234,14.7808537,51.5752988ZM393.7878217,2876.8418127c8.5447211-29.1580205,8.5447211,29.1538154,0,0h0ZM415.9654098,2847.355796c-3.1201688-3.1201689,4.8022005,4.764355,0,0h0ZM423.3158884,2854.664224c9.0745611,3.284167,15.1509007,9.5287099,14.743008,22.1775887-11.9087845,2.0520787-12.7329801-6.9846369-22.0934866-7.3925296,1.3540355-5.9964432,7.3925294-7.3126331,7.3504786-14.7850591ZM430.666367,3046.3569732c4.8442513,4.8442515-3.078118-3.0402724,0,0h0ZM423.3158884,2921.0245819c2.544073-8.8685124,19.5872593-5.9123416,22.1355374,0,6.6524354,15.9330458-27.0218395,17.1651341-22.1355374,0ZM452.8019044,3075.8429899c8.540516-29.0739189,8.540516,29.1538154,0,0h0ZM460.152383,2965.2956577c8.540516-29.1580205,8.540516,29.1538154,0,0h0ZM489.6341939,3024.2634861c1.8502349-9.2806102,14.7051623-7.3925296,14.7850588,0-3.2841669,10.7607982-6.4884373-.740094-14.7850588,0ZM482.2837153,2987.3891449v-14.7009576c15.7312016-3.4523702,14.0449648,10.5126985,14.7431453,22.0892821-5.9965804-1.3960864-7.3506159-7.3883245-14.7431453-7.3883245ZM519.1202098,3164.3767314c4.2724985-29.6458097-6.1981492,43.6150835,0,0h0ZM517.1480276,3067.8743645c0-.0798965.1261524-.9040921.3322013-2.3001784,0-.2438946.0378457-.4919943.0798965-.8199905.3279962-2.2160768.8199905-5.7483435,1.5600844-11.0046928.3279962-1.9721822.4919943-3.3682686.6561302-4.5162553.2269364-1.5222387.3699091-2.5062273.3909345-2.6281746-.0210254.1219473-.1639981,1.1059359-.3909345,2.6281746-.5720287,4.024261-1.5979302,11.332689-2.2162147,15.520948-.0420508.3279962-.0798965.5760959-.0798965.8199905-.2060489,1.3960864-.3322013,2.2202819-.3322013,2.3001784ZM497.0268606,2891.5427703c19.9193233,2.2160768,13.2248371,31.0418961,29.4858787,36.8743412-14.0870156,20.6974008-26.4457436-22.0934871-29.4858787-36.8743412ZM541.2557472,2972.6881873c-3.0823231-3.124374,4.8023391,4.7601499,0,0h0ZM548.6062258,3098.0163735c1.8460298-8.048522,14.7009572-5.0082496,14.7808537-14.7808541,9.6927078,2.6281746,11.5807884,12.976875,22.0934866,14.7808541-5.3362456,25.3776541-22.1733831,4.8484565-36.8743403,0ZM585.4805661,3016.8709565c-34.8222616-11.4966871-9.7726043-36.546345,0,0h0ZM600.2656248,3039.0485452c-3.1201688-3.1201689,4.8064056,4.764355,0,0h0ZM622.3591114,3186.4702186c8.540516-29.1538154,8.540516,29.0739189,0,0h0ZM629.7516408,3075.8429899c.1639981-7.1444299,8.9904595-5.668447,14.7009572-7.3126331-.1638571,7.148635-9.0365746,5.668447-14.7009572,7.3126331ZM644.452598,3223.3487649c.2438946-7.2285315,9.0325103-5.7483435,14.7808537-7.3925296-.2438946,7.1444299-9.0325103,5.7483435-14.7808537,7.3925296ZM762.4303025,3223.3487649c.2060489-7.2285315,8.9946646-5.7483435,14.743008-7.3925296-.2018438,7.1444299-9.0325103,5.7483435-14.743008,7.3925296ZM902.5056986,3289.6292263c-.2480997-.1639981-.4919943-.4961994-.6558448-.5760959.1638506.0798965.4077452.4120978.6558448.5760959.4919943.4919943.4120978.4078927.6559924.6559924-.2438946-.2480997-.1639981-.1639981-.6559924-.6559924ZM946.7347225,3319.1951395c-3.0823231-3.1201689,4.8022005,4.764355,0,0h0ZM371.6985402,2309.1560946c-8.1326233-215.1823227,44.4308677-439.8092537,110.5851751-656.1227428,9.6927078-8.8264616,11.5807884-2.8720692,22.1355374,0,71.2088126-223.6387374,196.2089995-393.5659956,309.6326031-575.0361969-53.673632,135.5969901-174.4056634,267.951864-213.7862309,442.3575318,52.2775457-33.7163266,67.0205537-105.0050375,95.8043214-162.2109376-65.5782115,194.8970197-173.745466,411.1053818-191.6506936,678.2540756-25.7897513,21.3533932-56.1756542,72.6847973-29.486016,103.2389042,42.3787891,1.4801879-6.8164335-42.7908879,29.486016-44.2668708-10.5126982,32.1940878,15.3570874,70.548617-36.8743403,81.0613155-37.4546412,449.6659598,181.2599427,702.1347215,353.857422,965.7721741,55.5196618-22.0934871,99.9126839,70.7967167,154.814199,95.8463746-326.9995806-155.8023966-586.8608653-461.8186393-604.5179932-928.8936278ZM710.8130969,1343.4007409c22.4213401-20.1213049-20.1214471,22.4214833,0,0h0ZM607.6161034,2714.6308751c-71.8227542-117.3637659-114.9416372-263.4734545-110.5892429-457.0542843,24.8855219,164.3429128,53.0553481,325.3175571,110.5892429,457.0542843ZM622.3591114,2744.1168918c73.2608913,130.6686371,150.2558931,257.7251109,258.0110498,353.8994817-29.1958655,28.1698269-62.6218953-87.2217568-110.5851751-66.3603579-48.3373864-96.6663651-107.9233599-182.0841428-147.4258747-287.5391238ZM895.1131692,3120.1098607c-20.1213044-22.4214833,22.4216307,20.1213049,0,0h0ZM1116.2919295,3319.1951395c-3.0823231-3.1201689,4.8442513,4.764355,0,0h0ZM1116.2919295,3274.9282687c-24.3095634,4.2681556-10.5967998,27.8418307-7.3925294,44.2668708-83.3614918-39.670719-110.4253821-128.124564-199.0011722-176.9917917,53.5474796,7.9686255,94.778282,91.9020101,169.5151562,103.2389042-277.9263053-252.8808595-506.497595-537.4638125-545.5079773-995.2581908-51.6216916-605.5272275,321.621146-1013.2643407,486.5401505-1459.6839793-44.8429655,215.674317-180.111956,404.6968408-243.2722469,626.6157007,57.8198402-31.3740974,62.9962928-105.4171353,88.4538428-162.1688868,54.1656263-120.6479329,135.1470432-248.9785458,176.9539415-398.086456-77.5753027,437.0591318-396.076418,898.7558238-346.5111485,1467.0765088,28.9940217,332.3820905,155.5164473,587.807023,324.3756111,796.172912-26.6938433-12.5647772-35.7263536-42.8707844-66.3603562-51.5795038,58.4758326,120.8960326,163.6827112,195.0610178,280.1465872,257.9732106-20.2853025,22.669583-10.4328017,38.7666269,14.7808537,51.6594003-68.0045422,2.38428-70.5486152-80.4053231-132.7207125-103.2346991ZM1256.3631206,3407.6489845c-3.078118-3.1201689,4.8064056,4.764355,0,0h0ZM1285.8491365,3400.2564549c-11.9087845,2.0520787-12.6867242-6.9804318-22.1355374-7.3925296-18.2710695-5.1722477,31.7861943-14.0407601,22.1355374,7.3925296ZM1293.1996151,3363.3821137c-14.002914-3.124374-18.4771184-15.8531493-36.8364946-14.7009576,3.8224171-10.9247963,10.8827452-18.645322,14.743008-29.4860167,15.0289534,12.8128769,14.4572198-5.5044489,29.486016,7.308428,3.0402723,17.8211265-13.468869,16.0171474-7.3925294,36.8785463ZM1573.3462023,3503.4953591c15.7690473-49.1952238-6.2403377-77.1211561,0-147.505775h29.486016c-7.636424,51.3314042,6.2823885,124.2643011-29.486016,147.505775ZM1610.2247477,3326.5035674c24.7216611-17.8211265-17.821126,24.7216618,0,0h0ZM1639.7107636,3488.7103c-30.2261099-38.4344257-13.3889724-103.3986972-14.743008-140.0291438h29.5238617c-3.3682685,58.2277344.9881936,87.8777492-14.7808537,140.0291438ZM1654.4916173,3333.896097c-13.2206031.9839886-15.6050492-9.0325105-29.5238617-7.3925296,1.7661333-12.8927734,12.6868903-16.7530363,29.5238617-14.7009576v22.0934871ZM1661.8000451,3304.4100803h29.486016c2.1361803,19.3013144-2.6281746,31.7020935-22.0933197,29.4860167.9459759-13.2249747-9.0326772-15.520948-7.3926963-29.4860167ZM1691.2860611,3481.3219755c-10.3907509-44.7630701-24.557663-90.4260273-14.7009572-140.0333489,24.0656688,24.1455659,18.8893837,111.6154223,14.7009572,140.0333489ZM1742.9454601,3311.8026099c-5.2563491,23.8175697,2.3001784,125.0842916,0,147.4258784-30.5120553-6.4884375-26.8157906-110.7113303-36.8741724-162.2109376,32.1939192,5.1764527,41.51658-12.4806756,73.710667-7.3883245-5.0503002,59.7079223,7.1864805,86.6456609,7.3504786,162.2067325-33.1822807-28.1698269-4.2723606-118.5159576-44.1869731-140.0333489ZM1809.2679706,3378.1629678c4.2303098-29.6458097-6.2024919,43.6108784,0,0h0ZM1816.6184492,3363.3821137c-16.5511921-17.8253315-15.5251527-53.2236899-22.0934866-81.0655205,13.183094,2.0562838,15.113055-6.9804318,7.3925294-7.3883245,27.0218395-21.7654909,10.1006004,63.3200855,14.7009572,88.453845ZM1824.0109786,3466.6168128c17.7790752-5.3362457,39.1745186-26.2817462,51.6173482-14.7808541-10.7187471,11.4167906-28.745922,15.520948-51.6173482,14.7808541ZM1905.1143428,3444.5275308v-22.1775887c21.4753399-10.8406947,21.4753399,32.9341818,0,22.1775887ZM1941.9508374,3407.6489845c10.7565928-24.4735621,18.3972219,28.7459227,0,0h0ZM2082.0640792,3319.1951395c-44.763069-112.1915182,12.3208823-367.6164507-7.3925294-494.0169322-46.0750537,75.7250697-32.1141905,168.2031757-66.3603562,258.0573122-16.8371375-26.693844-7.8422976-35.3184618-14.743008-66.364563-33.2201264-3.6962648-31.4960439,27.5138345-29.486016,58.9720334-22.9555278-21.2734967-8.5825668-79.8334323-29.486016-103.1548026-38.4764755,165.4067979,77.1632049,281.2945809,140.0753961,405.4747805-39.9987142,9.1166121-62.0499744,36.2225539-95.8463722,51.5795038,3.6962647-50.3474156-3.2042704-90.1779276-22.0934866-117.9398617-22.9553542,1.644186-12.4847065,36.7145482-14.7808537,58.9678283-20.4533324-31.1259977-22.7116332-80.4852196-36.8364946-117.9356567-35.2764101,34.4101647,12.358728,114.8154878,0,147.4216734-39.5487707-28.6618211-14.9911077-121.9641227-51.6215533-169.5992621-8.8685122,59.7079223,11.9089564,108.1672572,7.3925294,184.3002196-20.2853025-68.3325401-32.6061848-117.4436624-22.0934866-184.3002196-15.0289534,2.2202819-19.6671558,14.7850591-29.5238617,22.1775887-35.5203047-6.7365372-83.5675407,25.2935525-81.1033642-7.3925296-14.6631115,17.74123-83.6095915,46.8151489-88.4538428,7.3925296-43.2450354,57.1596442-108.087358-8.7886159-140.0333453,44.1827692,16.17694,24.2296675,30.179854,12.2409861,51.5752975,22.1775887-11.6605212,41.0626003.2480997,136.7449768,0,184.3002196-44.01877-16.7530363-17.2450302-112.0275201-22.0934866-147.505775-38.5185263,32.6061856-26.4035301,75.2288703-29.4818109,147.505775-30.3480572-20.3694046-12.8128766-114.3276985-7.3923669-147.505775-57.7777909,16.6731398-18.5193316,93.7101943-44.2670321,132.7207158-14.7850588-62.9920893-12.2788315-99.5426394-14.7051623-169.5151605-23.3212094,46.4871527-13.5908163,104.2228928-22.1313323,169.5151605-46.3652042-1.8039791-50.3052044-2.3800749-95.8462142-7.3883245-43.9810822-55.8518645,59.4218174-204.8336223-7.3506366-302.2400814-39.1366729-1.7282876-1.644186,27.4297329-22.1355374,44.2668708-17.0431863-14.9490572-39.3805675-24.4735621-44.2248189-51.6594003,23.2414732-3.5322667,16.6689343,22.6653779,44.2248189,14.7808541-1.1900374-8.5405162,1.6021352-13.1408731,7.3504786-14.7808541-3.1201688-16.5091417-15.7690473-23.4895735-22.0934866-36.8785463-19.1373158-4.3522572-26.5256401,3.0402724-22.0934866,22.1775887-39.0105205-64.2283827-60.1578643-146.2778918-95.8463722-213.7862363,41.3527497,24.9655564,35.5623555,97.1583594,88.4580479,110.5473322,2.2959733-59.6280258-48.1313375-128.2044605-81.1075693-176.9076901-16.6310886,5.5002438-2.8719152,41.3107-7.3504786,58.9678283-321.2091864-685.4615817-82.8694975-1566.4130994,73.7150399-2337.0023083,12.5227261,192.9668883-42.5848379,380.7573238-58.9720319,567.6857181,83.9796384-117.2418186,60.0401221-296.5716344,95.8043214-457.0963351-5.7483434-32.9341818,11.3370507-50.0194194,7.3925294-7.3504788,1.8081841,473.7274241-146.1096849,859.8251988-176.9076856,1319.5707339-21.7654904,324.1653653,15.0289534,651.6233078,125.3323881,899.4076111,12.0727826-74.1607802-42.6267343-161.4666385-44.2710747-265.3615351,20.8195025,11.1686909,18.0692257,45.8269552,29.486016,66.3603579,16.7950867-58.6398321-29.7299106-117.6118655-22.0934866-191.6927492,12.9768747,1.8081841,16.7950867,12.7329804,14.743008,29.4860167,23.9395164-65.0483731-13.1829236-131.4928326-22.1355374-199.0852788-36.9582884-279.2425022,14.0449648-614.5597381,73.7528856-914.1337991,65.2123696-327.4537374,73.879038-661.5178597,58.9720319-906.7580899-5.7483434-93.7942959-.904092-191.6128527-14.7850588-294.8896026,52.0714968,20.8613989,57.5338948,58.7617794,59.0098776,117.9777075,19.4274663,2.2202819,19.0153685-15.3990007,22.0934866-29.4818116,44.8051198,247.5824594,129.9705906,454.8760532,191.6506936,685.583529,43.8169262-56.2177064-30.7980007-138.8433114-29.4818109-221.1787659,45.292909,90.0559803,63.6480801,183.7661746,95.8463722,272.7961155,28.375875-194.278873-140.651492-372.7088019-140.0331829-611.9105381,20.1211419-5.3825016,14.8647928,14.6589068,29.4858535,14.7808541,1.1479866-57.6936893-20.9454999-92.1501098-22.0934866-147.4637242-50.7973578,13.2207696-13.3048709,85.2495745,0,117.9398617-14.4569003,10.1847023-38.8507275,10.3487004-44.2709132,29.5238624,10.5968001,75.3970735,27.0637288,144.9196511,44.2709132,213.7862363-75.3970716-133.2169152-79.1730722-341.9108004,7.3084278-464.4468139,11.5809515,25.2557068,22.0515992,51.7014511,29.486016,81.0613155-52.1555984,119.3779989,60.6120128,249.7985363,95.8463722,353.8994817,2.7921726,22.4214833-26.7737398,12.4848807-29.486016,29.4860167,142.4975218,260.5593344,274.9745118,531.0132207,398.0864459,810.9159203-45.1709617-232.4694041-175.2256539-443.9975128-272.7540578-648.7470335,286.6350245,457.9163256,497.4608796,1000.8173057,457.0963236,1673.4660105-15.277053,254.604942-133.7930077,479.8878654-103.1968508,744.5976132,6.7743827,12.8927734,23.0354243,16.261042,44.1869731,14.7808541-10.0207039,17.001136-12.8969782,41.1467019-44.1869731,36.8785463ZM1138.4276204,2478.6712551c12.9346704,1.8081841,16.7949332,12.7287753,14.7386494,29.5659132-22.1733831,7.3925296-13.0566176-16.4250401-14.7386494-29.5659132ZM1138.4276204,2449.1852384c.5296865.5760959,1.3118312,1.3960864,1.5599309,1.644186-.2480997-.2480997-1.0302444-1.0680902-1.5599309-1.644186ZM1153.1662698,2567.2092017c8.5447211-29.1580205,8.5447211,29.1538154,0,0h0ZM1167.9092778,2640.8779876c10.7189016-24.3936656,18.3551711,28.8300243,0,0h0ZM1499.6774183,702.0462369c8.4984652-29.1580205,8.4984652,29.1159697,0,0h0ZM1654.4916173,716.7892453c-17.0011356,2.2581276-8.2125198-21.3155474-22.1733831-22.1355379,8.2924164-21.5173913,23.9815672,9.4025575,22.1733831,22.1355379ZM1661.8000451,731.5322536c-13.9608632-28.0899303,19.5494136,38.9684707,0,0h0ZM1675.9711623,767.7506024c.1219473.1009219.4078927.3910724.6139416.6139416,1.1900374,1.2110629,1.644186,1.6231606,1.6021352,1.6231606.0420508,0-.4120978-.4120978-1.6021352-1.6231606-.2060489-.2228692-.4919943-.5130197-.6139416-.6139416ZM1720.772077,842.1174315c-3.0402723-3.1201689,4.8442513,4.8064057,0,0h0ZM2185.26093,1925.7705962c8.540516-29.0739189,8.540516,29.1538154,0,0h0ZM2170.517922,3245.442252c-22.4214828-9.1166121,7.9686252-25.3776541,0-44.2710759,6.5683338,4.6003569,13.1829236,8.952614,14.743008,0,20.6974003,11.8288883-15.9750962,27.5979361-14.743008,44.2710759ZM2649.7077321,2670.3640043c-114.3234906,129.0286561-155.6383946,330.9860041-309.6326031,420.2598396-3.1201688-15.4368465,5.0503002-19.545209,7.3504786-29.4818116-39.830511,9.2806102-42.0884556,56.1756556-66.3183054,81.0613155,28.0478788-116.9516681,121.0600276-232.7595546,162.1646776-361.2079097-75.8890659,56.831648-117.3637629,211.8939506-191.6927444,294.8475518-10.3487001,46.1549514-16.2610416,96.8303632-51.5752975,118.0197582,62.5000934-221.0105627,183.9722188-450.4859503,206.3937016-729.8924506,24.3095634-302.1601849-23.5736745-593.3114719-125.2903374-855.1617657,27.6359641,4.1882591,33.0561283,55.0655147,44.2248189,88.4958958,20.739451,62.1720988,39.670718,136.332879,58.9720319,213.765211,21.9294885-194.2998984-90.9180193-380.5723003-169.557207-523.4398727-21.8075412,1.7661333-10.1468563,27.4297329,0,36.8785463-38.6026279-15.5251531-42.9170392-129.0286561-103.1968508-147.4679292,12.6867242,89.1518882,80.7333172,164.2209655,117.9356537,258.0531071,20.205406,50.9655622,28.3380293,111.2453753,44.2292061,169.5614164,59.7497894,219.4715037,116.0095452,425.9493121,103.1966686,707.7358873-13.7966807,304.2963652-134.3648985,527.9351026-199.043223,759.2985708-40.6967573.6559924-12.1148334-57.3278474-7.3504786-81.0655205,17.1651336-85.4135726,67.1845518-163.1907211,58.9678268-258.0531071-48.7030485,128.2044605-100.5266254,253.3728538-125.3281831,405.4789856-6.9005351-210.8300655,85.2075216-425.9282867,95.8463722-619.2652219,57.5717405-96.0902692,63.5681836-309.1364116,58.9678268-434.9607972-16.1811451-442.416403-198.9212757-852.4536946-383.343438-1201.6729229-75.1069211-142.2494257-152.5560715-284.0489079-228.5292389-412.8294643-15.6050492-26.4036935-32.1518707-49.2372746-58.9678268-66.3183071-1.4381371-37.9045856-26.6938433-51.9873965-29.486016-88.4958958,35.3186259-4.9704038,95.3123271,44.5570212,66.3225105,95.8463746,49.1531718,93.4242489,106.9309612,178.1397783,176.9497364,250.6605775,29.3178128-29.4439659-45.7470576-81.9233567-22.1355374-81.1033663,26.9797887,73.302944,155.6804454,100.0766845,125.3323881,184.3002196,10.7986436,4.5583061,47.2650912,43.2828822,51.6173482,7.3925296,60.1200186,45.5410098,102.9908019,108.2892045,154.8184041,162.1688868-16.5930652,21.9673347-53.4675831-58.1099921-95.8463722-58.9720334-11.0887941-30.6760542-35.5623555-47.9631356-51.6215533-73.7108367-15.7269965-3.4481651-14.0449648,10.5126985-14.743008,22.0934871-52.5634911-28.5398738-56.1756542-105.9890261-103.2346965-140.0753997-7.2285313,101.4727708,115.3074791,198.7152318,169.5992578,287.5391238,159.8226282,159.6206087,302.1559722,336.7763984,442.3112648,516.0683685-3.078118,42.7067863,28.2959785,94.0802413,44.2290239,140.0333489,6.6524354,28.7837684,27.1858376-24.4357164,29.4818109,0,89.7700326,233.4323673,142.2115764,544.5451662,73.7528856,825.675749-44.5107643,182.8242368-147.0936735,336.5703495-213.7820259,471.8393435,74.6569777-77.6930469,153.8302105-214.6903284,206.3937016-339.1144226,5.0925415-16.5091417,47.8790328,10.7565931,44.2248189-44.2710759-1.7240825-9.4446083-15.9750962-11.0046928-24.9655557-5.9964432-1.6021352,6.9005353-2.8342234,13.9650687-4.5162552,20.7815024-5.7104977-10.2688039-1.9301314-17.1651341,4.5162552-20.7815024,60.6540636-257.8050074,63.8162833-534.3394385,2.8720692-760.6904521-101.6746121-377.4521314-402.6825976-602.4070586-611.9105226-884.6477824,297.8037151,299.0358109,647.0649854,633.3101871,678.2330331,1172.1869062,9.8567058,169.435264-17.6991787,316.2850466-58.9718408,457.0542843,45.9949661-22.0093855,45.9949661-88.9458393,58.9718408-140.1132454,13.468869-52.8914886,25.7897513-113.0115087,29.486016-169.5151605,20.6931952,133.7047044-40.6547065,249.2644912-66.3225105,361.2079097ZM2273.714955,1586.7150447c-3.0783002-3.1201689,4.8062234,4.8022007,0,0h0ZM2266.3642942,1557.1869772c8.540516-29.1159697,8.540516,29.1580205,0,0h0ZM2237.5342706,1491.5246625c-.2438946-.2859454-.1639981-.1639981-.6558111-.6559924-1.5602657-1.5600845-.3281774-.370047.6558111.6559924ZM2192.6114086,1970.037467c4.8442513,4.8442515-3.0821431-3.0402724,0,0h0ZM2214.7469459,2139.636729c30.6718483,10.1847023-2.1782311,38.026533,14.7388029,58.9678283-29.0739182,4.5204603-8.6624633-40.4865044-14.7388029-58.9678283ZM2229.4857488,2279.6700779c-12.1947299-7.3925296-8.006471-31.2942008-14.7388029-44.2710759,26.6475874-6.8963302,10.3066493,29.078124,14.7388029,44.2710759ZM2222.0974245,2434.4842809c-16.9212391-34.9862606-2.548278-76.7889548,0-103.2389042,12.1106283,32.0342948,6.1185714,79.9974304,0,103.2389042ZM2214.7469459,2220.6980445v-14.7808541c15.7269965-3.4523702,14.002914,10.592595,14.7388029,22.1733836-5.9543923-1.3960864-7.3504786-7.3925296-14.7388029-7.3925296ZM2214.7469459,2449.1852384c2.0100279-8.7045143-.1639981.740094-2.3840993,10.3487004-.3281768,1.3960864-.5342257,2.3001784-.7781203,3.5322667-.988013,4.024261-1.5222387,6.4884375-1.8922857,8.1326235-.2859454,1.1479867-.4499435,1.8880806-.4919943,1.9679772.0420508-.0798965.2060489-.8199905.4919943-1.9679772.370047-1.644186.9042726-4.1083626,1.8922857-8.1326235.2438946-1.2320883.4499435-2.1361803.7781203-3.5322667.6978625-2.9561708,1.4379565-6.3244394,2.3840993-10.3487004ZM2516.9870197,1704.6549065c8.5825668-29.1159697,8.5825668,29.1117646,0,0h0ZM2723.418567,2235.3990021c4.8484564,4.8484565-3.078118-3.0360673,0,0h0ZM2730.8110964,2220.6980445c-31.2477512-32.6860821-5.3362456-122.456117-22.1313323-169.5992621,37.3242838,26.6097424,16.4670905,111.3715277,22.1313323,169.5992621ZM2716.0302427,1940.5514503c8.5825668-29.1538154,8.5825668,29.1580205,0,0h0ZM2716.0302427,1918.4579631c-21.3575977-65.9482601-34.1662692-132.9477901-36.8364946-162.1857071-4.7643548-52.6433889,36.0124923,95.6613511,36.8364946,162.1857071ZM2649.7077321,1793.1087515c8.540516-29.1159697,8.540516,29.1538154,0,0h0ZM2465.4075172,1372.8867576c67.0583994,78.0252481,92.1923476,184.3422704,169.557207,258.0531071-49.7713184,35.1124129,21.2734961,87.7179561,14.743008,147.4258784-107.8769151-265.6516856-276.7362679-470.279259-471.8393315-648.7470335-3.1622196-7.3925296,44.3089204,2.7501219,22.1355374-14.7430084,1.3960863-8.3765182,7.3925294-4.1083626,7.3925294,0,75.4769681,95.762273,177.6057288,164.5069109,258.0110498,258.0110563Z"/>
    <path d="M836.1453424,761.0140652c-3.1201688-3.0781181,4.8442513,4.8484565,0,0h0Z"/>
    <path d="M135.8188227,2515.5498014c-3.1200407-3.0402724,4.8022005,4.8442515,0,0h0Z"/>
    <path d="M69.4584664,2110.0708158c4.188259-29.4860167-6.2445427,43.6907749,0,0h0Z"/>
    <path d="M431.5704591,1661.3720243c.1639981-.9881937.1639981-1.0891156,0,0h0Z"/>
    <path d="M429.3123315,1677.2419939c-.2060489,1.3540356-.3490216,2.38428-.4541486,3.0991435.1261524-.7989651.2691251-1.8460299.4541486-3.0991435Z"/>
    <path d="M497.0268606,1262.2973746c-3.1203061-3.0781181,4.8483191,4.8484565,0,0h0Z"/>
    <path d="M245.3779584,2868.9572888c-1.6399809,11.6606852-.9839886,7.1444299,0,0h0Z"/>
    <path d="M2214.7469459,2449.1852384c-.9461428,4.024261-1.6862368,7.3925296-2.3840993,10.3487004,2.2201012-9.6086064,4.3941272-19.0532147,2.3840993-10.3487004Z"/>
    <path d="M1151.3622908,581.7641459c.2438946-1.5979302.6980432-4.8022007,1.3540355-9.3184559-.5340451,3.6121632-1.0260393,7.1864807-1.3540355,9.3184559Z"/>
    <path d="M1602.8322183,1181.2360592c22.4635336,20.1213049-20.1213044-22.4635341,0,0h0Z"/>
    <path d="M1694.6543296,1550.290647c-4.0242609-7.0645334-2.7921726-4.8484565,0,0h0Z"/>
    <path d="M1698.6785905,1557.1869772c-1.8880806-3.3262178-2.9561707-5.0923511-4.0242609-6.8963302,4.4365263,7.6364242,11.7868372,20.3273538,4.0242609,6.8963302Z"/>
    <path d="M1728.1646064,1697.3044277c-13.9650683,28.0058288,19.5031577-38.9726758,0,0h0Z"/>
    <path d="M1742.9454601,2169.1227457c-21.0253964-36.3024504,13.8811359,23.9815678,0,0h0Z"/>
    <path d="M1772.4314761,2279.6700779c22.4214828,20.1213049-20.1213044-22.4214833,0,0h0Z"/>
  </g>
</svg>