<?xml version="1.0" encoding="utf-8"?>
<!-- Generator: Adobe Illustrator 27.2.0, SVG Export Plug-In . SVG Version: 6.00 Build 0)  -->
<svg version="1.1" id="parsnip" xmlns="http://www.w3.org/2000/svg" xmlns:xlink="http://www.w3.org/1999/xlink" x="0px" y="0px"
	 viewBox="0 0 500 1489.2255859" enable-background="new 0 0 500 1489.2255859" xml:space="preserve">
<g id="outline">
	<path d="M259.8587952,1489.2255859c13.1854248-3.9821777,24.559845-62.6757812,31.7515869-81.6014404
		c3.361908-8.8432617,6.7191467-19.3438721,11.0143127-28.1341553c4.6010437-9.3621826,11.1143188-17.427002,13.5978394-26.8369141
		c5.8937378-23.0665283,2.3299561-46.1278076-3.2566528-73.3829346
		c10.4477234,14.2232666,16.2355652,29.8393555,18.0465698,43.956665
		c0.7784119,5.9996338-1.8580322,11.9992676,2.3782349,16.3415527c8.7420044-10.8078613,6.4649963-27.355835,2.7953186-41.7856445
		c-2.3299561-9.0498047-12.6717834-75.4482422-11.9992676-85.0645752
		c1.8639526-26.836792,10.9137268-51.762085,28.0812683-73.743042
		c11.0672607-14.2180176,24.1997375-26.5297852,38.7831421-42.145752
		c10.3418274-10.9613037,17.1675415-22.9605713,24.618103-36.2519531
		c8.2190247,19.4445801,8.9967957,36.9244385,7.3923035,54.2508545c-0.5189514,6.1002197-4.1886292,12.4069824-1.7051086,18.7191162
		c6.1531982-3.7756348,8.6843872-14.6363525,10.0293884-21.8751221c2.2770081-12.565918,2.3299561-32.3704834,1.3986206-45.6088867
		c-0.5195923-8.4301758-3.1566772-15.3618164-2.8442383-23.4796143c0.4130249-13.8579102,1.8110046-28.6478271,2.2770081-44.163208
		c0.2065125-7.3446655,3.5161133-15.6689453,2.7912903-23.1141968
		c-2.8972168-29.0609131-10.8084717-58.847229-12.6724243-89.2584229
		c-0.9796448-16.8021851,3.3625488-34.2821655,3.3625488-53.2606812c0-19.0314941-4.1356812-38.1106567-9.7752075-56.416687
		c-7.1858215-23.7919922-20.4241943-49.9563599-15.8754883-71.519043
		c14.0697632-12.5658569,18.4649048-27.5622559,22.7541504-42.5110474
		c53.1600342,24.3056641,55.5376282,112.8916016,77.1532593,141.3858643
		c0.8790283-10.8607178-11.4750366-52.2810059-14.8375854-63.6607056
		c-4.0350342-13.3919678-8.3289185-27.4087524-13.1854248-40.4882812
		c-7.710022-21.1549072-18.3113098-40.4935303-32.7358398-59.3661499
		c-4.0880127-5.3800659-9.6216736-9.3092651-12.5658875-14.789917c-6.5185852-12.0522461-5.5865784-24.5651855-7.9112549-38.0629883
		c-10.8607788-37.1257324-39.40802-75.6547241-46.3872681-111.5942688
		c-3.3625488-17.066925-3.2566528-33.5090027,1.9116211-47.8329163c18.1524658,4.8081665,24.718689,39.349762,31.2849426,58.4871521
		c1.6574402,4.808197,2.1234131,12.6188354,8.1707153,13.7043762c1.1384888-7.8635864-3.3572693-14.6893005-5.5812988-21.8221436
		c-6.6192017-20.8954468-9.1556702-43.0247192-20.4771423-65.0057373
		c7.079895,4.1356812,12.2005005,14.5834045,17.268158,24.1520996c5.5336304,10.1882629,9.3092346,21.7691956,13.9638367,32.5240479
		c10.8078308,24.9252319,26.5297241,50.3693848,35.6271362,73.4306641
		c2.8965454,7.3446655,16.3944092,35.2193604,21.7744751,33.4083862
		c2.2240601-6.6721802-36.4055481-80.5158386-63.2476807-153.6393738
		c-5.5283508-15.2506104-14.1174011-29.7333984-23.9932251-43.2312622
		c-4.2415771-5.7878113-10.4424438-10.0293884-15.1500244-15.9760742
		c-10.8078003-13.6037598-14.2232971-27.9753418-25.9101562-40.2076111
		c-10.7548523-11.3267517-27.662262-19.8310852-41.4202271-28.9602661
		c-10.1882629-6.7727661-15.1499939-9.2297974-20.7366028-23.7867126
		c-15.2029419-39.5615845-22.3887329-77.619278-30.4059143-115.7564087
		c-3.3625488-16.1878815-5.7924805-38.1371231-12.20578-55.9559784
		c-3.6167297-10.394783-15.6683044-58.6936874-40.3347015-70.5605698
		c-8.0648193,5.9996338-18.9785309,17.5064354-15.4094696,26.916275c1.5515442,3.8761978,6.047287,6.0261116,7.9642029,10.1352997
		c8.4302063,18.1524734,10.96138,45.8418655,15.6159973,63.2212143
		c-21.0483856-37.6764297-52.8529053-80.002182-59.4191437-117.7792206
		c-4.6546173-2.1181402-8.9438477-0.9055052-13.7520294-2.87008c-5.8460693-2.3246598-10.2412109-9.0709381-17.0669174-8.2978172
		c23.7867203,45.0952187,46.8003159,91.2971649,49.903389,132.8762665
		c-8.3295746-3.1295624-17.5858612-8.9968109-25.4971161-16.3149872
		c-13.1854248-12.2587357-26.5244141-29.8393097-37.7505569-46.0271988
		C93.913063,51.0238152,79.5361862,30.3931255,68.9348907,10.9221153
		c-8.1707268,5.1682644-14.8958244,4.315712-22.3404579,6.0737686
		c21.7738533,44.6027489,28.5995674,90.4446106,51.7137718,137.3773193
		c-8.4301987-2.1763916-17.3740463-10.0082092-26.3231888-17.6335144
		c-18.2001266-15.5418625-40.2817459-36.8715439-48.14534-64.9527969C14.74226,78.2789917,8.070116,74.4239807,0,76.8810196
		c2.3829083,13.1059952,12.4123049,24.6657486,19.4445324,33.9220276
		c8.9491444,11.946312,16.0826168,22.5211258,25.96311,32.6299515
		c17.9936066,18.4649048,36.8185844,35.2935333,56.7767601,51.4549408
		c14.6893082,11.8668823,27.4087524,20.8160248,38.1636047,42.0662842
		c6.5185852,12.9841919,10.3947754,28.0812378,12.4652557,40.9065857
		c3.9821014,25.1846924-2.0175323,45.8153992,16.0290375,73.2241211
		c-12.6664886,26.1166992-3.775589,57.5022278,6.2061462,89.3590698
		c3.2566376,11.3267517-3.1030731,18.9255981-5.5865936,29.4262695
		c-4.7552338,20.4771423,0.4659882,46.0748596,10.1882629,66.499054
		c33.3554077,69.9674683-2.7900238,124.9385376,12.7253571,154.4124756
		c1.3920441-8.4779053-1.6580811-17.8876953-0.572525-25.6983643c1.9645691-13.8579102,11.7927399-27.4087524,14.5304413-42.4052124
		c7.1910858-40.1281738-16.9610138-82.7927856-19.3915863-125.192688
		c-0.2594604-4.8134766-2.0175171-12.8782959,5.2748108-14.3768616
		c10.0870056,8.8432312,13.0841827,25.5447693,19.9634857,36.3525696
		c4.0291138,6.4656372,8.6360779,11.9992676,11.8927155,19.8046265
		c19.1850586,46.800293,6.6721497,94.6332397,10.8078156,138.8494263
		c-24.6657562,43.2841797-18.8779297,164.4471436-19.6510468,173.0785522
		c-1.2920685,12.8782959-3.3096008,23.1671753,4.8081818,34.3403931
		c-0.3600922-18.3060303-1.138504-36.7179565,5.0676422-53.4194946c1.138504-7.4453125,3.3096008-77.9317017,11.0672913-100.7388306
		c2.3252869-6.7727051,5.4277344-15.9760742,13.4984894-19.338623c7.8047028,19.0314941,7.7570648,33.0959473,18.7713776,54.7116089
		c10.4424438,20.5300903,5.3271179,37.6976318,6.8257141,59.265564c1.6521606,25.5447998,7.7047424,50.5229492-0.365387,73.737793
		c-1.7580566,5.173584-5.3211975,9.5157471-7.0798645,14.583374c-7.1904602,20.8425293-8.5890808,82.8458252-4.0350647,89.1525879
		c3.6696777-28.7484741,0.2065125-59.3132324,22.2881165-83.4124146
		c4.3421936,10.8078003,1.7051086,20.9431152,4.2892456,31.8568726c2.7959595,12.046875,5.2265015,26.3231812,8.7955933,39.4556274
		c3.4637756,12.8782959,8.2183838,26.6832886,6.5662231,38.8361816
		c-3.2566528,23.2200928-28.4942932,44.7827148-34.6474915,67.4838867
		c-4.2415771,15.7219238-5.6871948,30.3582764-12.5652161,44.0096436
		c-7.8112946,15.0970459-17.7923889,30.5595703-21.1026306,45.2965088
		c-1.9116211,8.7425537-3.357254,21.1549072-2.271698,30.3052979c1.3926697,11.6868896,8.377243,27.2022705,10.3947754,42.0927734
		c0.7731171,5.6395264-0.2058868,11.1732178-0.1059113,16.807373c0.2065125,8.7902832-0.8260803,20.6359863,8.0701141,25.9101562
		c7.8583069-7.604126,4.2362976-17.9989014,6.1002502-26.9956055c6.2538147,25.9101562-1.8110046,55.3310547-0.5718994,84.1854248
		c0.9849243,23.5325928,3.5690613,43.8032227-0.2065125,66.244873
		C257.0151978,1436.2719727,249.2045593,1479.6038818,259.8587952,1489.2255859z M322.9476318,1049.6159668
		c1.599823,2.3776855-1.5515442,6.6192627-3.8285522,6.0526123
		C320.8771362,1053.8575439,320.9300842,1051.427002,322.9476318,1049.6159668z M338.7701416,1048.3239746
		c0.8260803,2.5841064,0.3124084,4.755249-1.5515442,6.6191406c-1.4449768-1.0325928-2.8965454-2.430542-4.5010376-2.9494629
		C333.390686,1048.9434814,335.7206421,1046.4599609,338.7701416,1048.3239746z M326.1513062,1041.0852051
		c1.8110046,2.2769775-0.3600769,6.3597412-2.1710815,4.1885986
		C324.8063049,1043.928833,323.2070923,1041.9112549,326.1513062,1041.0852051z M339.5962219,1040.4127197
		c1.2920532,1.7580566,4.4480896,0.8790283,3.8285217,3.2565918c-2.0704651,1.6044922-3.7755737,1.1915283-5.014679-0.6195068
		C339.289093,1042.2713623,338.8760376,1041.185791,339.5962219,1040.4127197z M353.1470337,1039.6872559
		c0.5189209,0.9848633,1.0855408,1.8638916,1.6521301,2.7906494c-1.2920532,0.6724854-2.0651855,1.4509277-2.377594,2.3829346
		C350.3563843,1042.5308838,351.183075,1041.0322266,353.1470337,1039.6872559z M344.5109253,1034.7254639
		c0.618927,2.2717285,2.0169067,1.0855713,2.7423706,2.9971924c-0.5712585,2.0704346-3.6749878,1.0325928-5.0193481-0.7254639
		C343.0117188,1036.2769775,342.9058228,1035.2391357,344.5109253,1034.7254639z M336.3925171,1030.3303223
		c0.5136719,0.9267578,1.0325928,1.8057861,1.5521851,2.6848145c-0.6731567,0.418335-1.2926941,0.8790283-2.018158,1.2443848
		C334.7350769,1032.6020508,334.427948,1031.1563721,336.3925171,1030.3303223z M286.5420837,820.1154785
		c4.9094238,0.6195068,6.8786621,7.4505615,4.7552185,11.1202393
		C286.5950317,828.8051147,284.4715881,824.7700806,286.5420837,820.1154785z M305.4676819,839.3534546
		c-0.671875-3.3625488-1.5515442-6.8786621-0.4130554-9.8757935c1.3450317,1.5515137,3.2566528,0.7730713,4.5487061,2.7906494
		c-1.8586731,2.4835205,1.1385193,6.1531982-1.4985657,8.3771973
		C307.379303,839.4593506,306.5002747,839.2528687,305.4676819,839.3534546z M319.0661316,821.8258667
		c-2.9442139,0.9796143-5.3271179-0.418335-7.3393555-2.9495239c0.4130249-0.4130249,0.4130249-1.0325928-0.1588745-1.7580566
		C316.0689697,813.4962769,319.479187,817.737854,319.0661316,821.8258667z M307.0728149,818.8763428
		c-0.3130798-1.4985962-3.6756287-1.6574707-2.0181885-3.4155273
		C306.8656311,815.1536865,310.4823608,816.7581787,307.0728149,818.8763428z M304.0697021,826.2686768
		c0.6731567-1.7580566,0-3.8762207,1.3450012-5.4277344c3.4155273,0.3123779,2.9495239,3.3625488,3.7232971,6.1531982
		C307.0198364,828.4450684,305.8807068,826.0144653,304.0697021,826.2686768z M328.2747498,817.2188721
		c0.4606934,3.0025024,1.0325928,6.0526123-0.365387,8.5891113c-4.3951416-1.1914673-4.4957581-4.0350952-4.908783-8.1707764
		C325.2193298,815.7732544,326.6173096,816.9647217,328.2747498,817.2188721z M320.5700073,832.215332
		c-3.1560364,0.2594604-5.7401428-1.5991821-8.4302063-3.4102173c0.4130554-1.6044922-0.5189209-3.6220093,0.6725159-5.0147095
		c1.8057251,1.8587036,3.9821167,2.4782715,6.5132751,1.5992432
		C320.3111877,827.772522,319.1190796,829.6312256,320.5700073,832.215332z M300.9666138,836.5628052
		c-5.0670166-1.0855103-8.9438477-7.2387085-5.1152954-11.7927246
		C301.2790527,826.3745728,303.4501343,831.5957642,300.9666138,836.5628052z M295.7983704,815.4608154
		c1.7050781,0.6725464,3.1507263,3.0025024,5.1206055,2.4835205c0.6724854,2.2770386,0.3600769,4.3422241,0.1535645,6.3597412
		c-2.3299561-1.2920532-4.861145-2.0175171-7.0852051-3.9821167
		C295.8995972,818.9293213,293.4684143,816.5463867,295.7983704,815.4608154z M288.2471924,810.7056274
		c3.3631897,0.8790283,4.1356506,4.9140625,2.742981,7.6517944
		C287.728241,817.4783936,286.2296448,813.2368164,288.2471924,810.7056274z M296.0055237,809.7207031
		c0.724823,2.9494629,4.8604736,3.4684448,4.0344238,5.0199585
		C298.5890198,813.3427124,293.6755676,812.4636841,296.0055237,809.7207031z M248.1719666,624.4362793
		c-1.8110199-0.7730713-3.0018311-3.4631348-4.6546173-4.6546021
		C245.688446,617.3034668,248.8921356,622.8847656,248.1719666,624.4362793z M245.3760223,607.4752808
		c3.2089844,1.3980103,5.2265015,4.967041,2.742981,7.6517944
		C245.5825348,614.0944824,243.5702972,609.3392334,245.3760223,607.4752808z M247.134079,598.0654297
		c1.6574402,0.4130859,4.6552429,4.5487061,1.5515289,5.5812988
		C247.239975,602.3546753,243.8774261,599.5640259,247.134079,598.0654297z M255.3577576,593.0983887
		c1.5515442,3.6220703,4.1356812,3.4155273,6.1531982,5.5866089c-0.4130249,2.0704956,0.4130249,4.3422241-0.9796448,6.1531982
		C256.8563538,602.7677002,252.6147614,596.614502,255.3577576,593.0983887z M266.0649719,603.3395996
		c4.649292,2.324707,5.1152954,7.1328735,3.7226257,10.8078613
		C266.3191223,612.5429688,261.9769592,606.1832275,266.0649719,603.3395996z M278.5778809,590.2018433
		c1.6044922,2.0175171,3.5690613,2.8965454,5.0676575,5.2741699c-1.1385193,1.1384888-0.0529785,2.742981-2.584137,3.4155273
		C278.7314453,596.513916,275.162384,592.5847778,278.5778809,590.2018433z M270.1476746,600.8560791
		c-1.1384888-2.0704346-5.2741699-4.2415771-2.9971619-6.5132446
		C268.4955139,596.3550415,273.9768372,598.2719727,270.1476746,600.8560791z M287.056366,598.1130981
		c3.361908,1.3450317,6.2584839,6.1585083,2.4299316,8.7426147c-1.0325928-2.1234131-2.6847534-1.1384888-3.7755737-3.3095703
		C285.7107239,601.6345215,286.1290588,599.7705688,287.056366,598.1130981z M247.5471191,584.7741089
		c3.0024567,3.7755737,4.1409607,5.2741699,2.4835052,8.7373657
		C246.6204224,591.9598999,246.1544342,586.9451904,247.5471191,584.7741089z M255.511322,582.7565918
		c2.2240601,2.3299561,8.8432312,5.7930908,6.8786621,9.828186
		C259.5463867,590.4083862,252.8265839,587.1517334,255.511322,582.7565918z M269.0621338,582.0311279
		c1.4985657,2.637085,3.6696777,2.2240601,5.3800659,4.2415771c-1.4509277,0.7784424,0.2065125,2.3776245-1.9698792,2.9495239
		c-1.9116211-0.7784424-3.2566223-4.1886597-5.067627-5.2741699
		C268.2360535,583.3761597,267.8230286,582.4971313,269.0621338,582.0311279z M247.5471191,575.4119263
		c1.3450165,1.2973633,5.1206055,4.7075806,3.0554047,6.6192017
		C247.8065796,580.0189209,246.1014862,578.6209106,247.5471191,575.4119263z M255.1512299,572.6742554
		c2.8965607,2.2716675,10.2412262,3.7755737,8.8432465,8.6367188
		C261.6645203,577.5354004,255.511322,576.550415,255.1512299,572.6742554z M247.0864105,565.4354858
		c1.1861572,2.1181641,5.5813141,2.9971924,3.3096008,5.4807129
		C249.3581238,570.3972168,244.0839539,567.4477539,247.0864105,565.4354858z M181.2552338,520.446167
		c2.7900238,7.7524414,4.8075409,15.2030029,4.9611053,22.182251
		C184.0982056,535.1831665,181.3552094,527.4783936,181.2552338,520.446167z M206.0739136,436.5148621
		c0.8313751,1.2920532,2.5894318-0.8790283,3.2619324,0.9319763c-1.5038757,1.4985962,1.7580566,4.2362671-0.2594604,5.6871948
		C206.3863373,442.9804688,204.2152405,438.6859436,206.0739136,436.5148621z M195.7850494,431.600769
		c3.5161133,0.4660034,5.7931061,6.7250977,3.46315,9.1027222
		C196.7176666,438.8395081,196.0445251,434.603241,195.7850494,431.600769z M187.4607544,425.5005188
		c3.5690613,2.2240601,3.2566376,8.0118713,4.0350647,11.4803162
		C188.3397827,434.4973145,186.941803,428.8630676,187.4607544,425.5005188z M176.7058868,415.2593079
		c3.1507416,2.5364685,6.7733917,9.6693115,5.9466858,13.1377869
		C179.5971527,425.8605957,177.065979,418.9342957,176.7058868,415.2593079z M183.4792786,406.4690247
		c1.0319672,2.7906494,2.9965363,1.7051086,4.1879883,3.9821167c-1.0855408,2.9971619,2.0651855,7.0851746-0.6725006,9.6693115
		C182.4460602,416.6572876,183.2191772,410.6047058,183.4792786,406.4690247z M176.0810394,398.8172302
		c3.1560364,4.861145,3.1030731,8.8908997,3.1560364,12.9789124
		C175.4085388,408.6401367,173.1844788,402.0738831,176.0810394,398.8172302z M199.7671509,359.4092407
		c1.8639679,2.795929-0.8783875,4.4480896,0.5189514,7.0851746c-5.8983917,1.0855408-11.5332794,1.5515442-16.5003204-1.1861572
		C189.271759,362.6711731,194.0269928,363.084198,199.7671509,359.4092407z M82.9463959,99.3491974
		c8.2766342,21.2820206,20.5300751,45.8683472,32.2698746,66.1919098
		C97.7363129,147.7010651,88.379425,119.646286,82.9463959,99.3491974z M96.3436356,115.4841385
		c13.1854248,20.7101212,30.1464386,38.809639,41.5737991,58.6407242
		C119.4584808,168.956604,103.1163864,136.5331573,96.3436356,115.4841385z M83.8783722,83.8867722
		c30.8719025,50.0040054,68.8819427,83.3329544,100.4263458,122.7939224
		c-9.9817352-8.8167725-20.2176514-16.5744629-30.6653748-23.3736877
		C131.2505951,151.0106506,98.3611603,116.8556366,83.8783722,83.8867722z M75.7076492,70.1824036
		c0.8790283,2.0439987,5.5865936,7.9642029,3.4154968,7.2652206C78.2970734,75.4565735,73.5365524,69.5363693,75.7076492,70.1824036
		z M65.1063538,43.1125603c24.3586197,47.3669243,50.8883286,75.8347321,78.916626,104.0695496
		c14.9964447,14.9964447,29.8340149,30.6389008,42.5587463,47.8593903
		c7.7576904,10.4212494,17.374054,21.6685791,21.2502441,35.5265198
		c-17.1145782-25.2853088-35.574173-44.1102905-53.7266388-63.4224396
		C120.8558197,131.772644,88.5336227,91.7238922,65.1063538,43.1125603z M113.0981293,92.3169708
		C97.7363129,75.122963,77.6722183,44.7435303,70.3805237,24.107542
		C84.344368,50.5313492,100.2198334,69.8964539,113.0981293,92.3169708z M124.371933,105.0628815
		c-1.4509277-2.0916595-7.2387466-8.350769-5.3271255-8.8961868
		C120.2839203,99.8946228,125.0921021,101.3932037,124.371933,105.0628815z M126.8501587,113.8266907
		c4.7605133,5.8195953,7.2440338,9.1556625,11.7397919,13.3972397
		c11.8933563,11.3479385,23.1195068,20.5777359,32.8364716,33.1700821
		c12.2057953,15.928421,24.671051,30.1994019,32.0633545,50.5229645
		c-17.73349-27.7953033-36.0401611-46.7738495-55.7441559-66.8855896
		c-32.4764023-33.0747757-66.7108536-72.6575317-87.187973-122.4073639
		c0.6725121-0.4130363,1.3450203-0.8525524,2.0175285-1.2391129c0.8790283,0.8260765,1.5515366,0.6725101,1.186161,2.0704842
		c9.5686989,24.9252224,22.0816154,46.4614182,37.1839638,65.0798798
		C108.5441208,96.9715881,119.5114288,104.7027969,126.8501587,113.8266907z M161.08461,141.5478668
		c-0.2065277-0.5983887,0.105896-1.138504,0.9319763-1.477417c13.4449005,12.8518219,32.5770111,31.883316,39.9746094,51.2219543
		C189.271759,171.0482635,175.2549744,155.9988708,161.08461,141.5478668z M139.934967,121.7432404
		c-2.0175323-3.2089844-7.7047272-4.7605209-5.9996338-8.5096283
		C135.7463531,115.1717148,140.1414948,119.3126755,139.934967,121.7432404z M156.4299927,136.8932495
		c-2.9971771-4.3210144-9.5634003-6.5185852-10.494751-11.353241
		C149.1912384,128.8760834,155.5509644,131.5925903,156.4299927,136.8932495z M283.2854309,311.6822205
		c-18.6713867,32.5770264-62.5751648,35.6271362-87.6539459,36.2467041
		c-6.7780609-8.1707458-6.4656219-19.9581909-12.5658722-24.1203308c-0.7254639,6.8521729,3.775589,17.2469482,8.5837708,23.7072754
		c-6.2061615,4.1886292-10.4470978,0.2065125-15.875473,1.2444153
		c-17.6864777-23.8396912-9.1556549-46.0801697-12.0992432-68.1564941
		c-4.0886536-15.6212769-4.6552429-30.1781921-10.2418518-44.9945984
		c-10.3418121-27.2763519-29.3203583-32.6776123-50.7294617-47.5999146
		c-8.6367188-6.047287-16.6009293-15.3300476-25.6506882-22.6746979
		C54.5050583,146.9756012,25.96311,117.5546188,9.4151354,83.3201675c3.7226324-0.1853333,7.7047377-1.5780106,11.0143328-0.1853333
		c28.0282955,52.233345,68.3629913,74.7280045,106.0606079,95.1521835c0,1.9380951-2.4835205,3.2566376-0.2065201,5.7136841
		c3.1030731-0.8525543,6.4132996-2.7377014,8.7902832-0.6460419c-0.5666046,2.7959442-5.7401581,1.4774017-4.1886292,5.3006592
		c4.1886292,2.4305573,10.8607788-4.9087982,14.2762756,0.6460266c-2.5364685,1.3450165-4.7605286,2.716507-2.4835205,5.2265167
		c3.1030731,0.8260651,7.5994568-4.1621552,10.3418274-1.503891c1.3979645,2.6900482-4.5010529,3.5690765-1.7051086,6.5450592
		c2.637085,0.4395142,5.994339-2.2769928,8.6843719-2.4305725c0.6725159,2.2770081,2.0704803,1.1861725,2.7429962,2.9707031
		c-3.1560364,1.9433899-7.2917023,3.5955353-5.1206055,6.8786621c3.2089844,0.1059113,7.9112549-5.5865936,10.4483643-2.610611
		c0.4123993,1.8639679-3.7232666,2.5576477-1.7110291,4.7552185c2.1763916,2.5894318,6.5715332-3.3095856,8.5361023,0.391861
		c-0.2058868,1.8851471-4.2415771,2.8436127-2.4299316,5.2476959c3.4095764,0.3071289,8.0112305-4.3421936,10.0817108,1.3450165
		c0.5189514,2.0916595-5.3271179,2.5046997-3.5684204,4.9352722c2.4828796,3.1295471,7.4446259-3.4896393,9.7216187,0.6989899
		c3.4155121,3.3625488-3.7226257,4.1144867-0.1535645,7.4982147c4.1886292-3.0765991,7.0851898-0.6460266,9.5687103,3.5161133
		c-3.1030731,1.2444-9.7752228,1.3979797-7.3976135,6.3385315c4.0350647,0.1006165,9.1027069-4.0085754,12.152832,0.1006165
		c-2.690033,1.7580566-9.1556549,0.9849396-8.8432312,5.3536072c3.5690613,1.1120148,7.9642029-1.164978,11.6868439-0.5718994
		c2.1181335,2.4835205,1.6574402,4.3474731,3.0501251,6.5980072c-4.4957581,2.1446075-12.7194366-2.0175323-14.6310577,5.0941315
		c5.7878113,0.8260803,12.4069977-1.7368774,17.5805664,1.4191589c0.3607178,1.0855408-0.1535645,1.9116211,0.9796295,3.1824951
		c-4.2892303,2.6635742-14.371582-1.5515442-14.1650543,5.7878113c5.0676422,1.9169312,12.0469208-3.4101868,16.2355499,2.2770081
		c-2.7906647,3.5955505-13.4978638-1.8110046-15.2559204,5.5071716c5.4806976,2.3776245,15.3618164-4.2415771,17.374054,4.3686523
		c-3.8232422,1.217926-11.8404083-2.1181335-13.1854248,4.2680664c4.967041,2.6635742,12.0522156-3.5426025,15.6689453,4.4745789
		c-4.2415771,2.1446228-12.3593597-1.5515442-13.9102478,4.7022705c4.4480896,2.4305725,10.5000458-1.9116211,14.7363281,1.3185425
		c0.2594604,1.217926,0.052948,2.3829041,0.2594604,3.5955505c-4.1356659,1.5780029-13.4449005-1.2655945-13.4449005,5.3006287
		c5.0682983-0.9796448,9.8758392-0.7995911,14.5834045-0.4130249c0.9849396,1.6309509,0.0529633,2.742981,1.7580566,4.5222168
		c-4.0350494,3.2619324-11.1143036-1.5515442-12.099884,4.5275269c4.5487213,2.6106262,11.0672913-2.5576477,14.8428802,3.1295471
		c-1.9645844,3.9026794-11.379715-1.8374634-12.0522156,4.5487061c3.9821014,0.7519531,8.0171509,1.6839294,12.7723846-0.3071289
		c0.7790527,1.3397217,1.5515289,2.7377014,2.4305573,4.1091919c-3.8226013,2.6106262-10.9084167-2.5841064-11.8933563,3.3890381
		c4.5540009,2.7112122,11.0672913-2.5100098,14.6369934,4.2362671c-3.9827423,2.0704956-8.9974365-1.8056946-11.6345215,2.3564453
		c6.2061462,1.7051086,13.0318604,0.4871826,19.8575592-0.8525391c2.0175323-4.4216309-3.6749725-13.8897095-5.2741699-18.1789551
		c-27.5623016-73.7165985-2.7959442-133.9088593-18.618454-202.9443665
		c-4.3421936-18.8249741-8.9438477-37.2580948-22.1822205-55.5641289
		c1.0325928-5.9996338,4.4957428-17.4534798,11.4279938-18.0783348c0.7724915,1.9433975-5.1212311,2.2240486-1.7586823,4.7605247
		c1.9116211,0.9584579,5.0676422-3.4366837,6.1538239,0.9796371c-0.105896,2.123436-5.4336548,2.8965607-2.0711212,5.899025
		c1.8639679-1.1120262,3.6749878-2.1975708,5.5336456-3.309597c0.7784271,1.3714981,1.5515442,2.7376976,2.3776245,4.0827179
		c-0.9266968,2.4835205-7.0851898,3.6749725-2.9442291,7.4240837c2.0652008-0.4395142,5.0147095-4.8611336,6.2061615-1.9433937
		c0.7731171,4.527523-6.7250977,4.0880089-5.4330292,7.9642067c1.9169159,0.7519417,4.3951416-0.4871712,6.9845581-2.3246574
		c0.9796448,1.5780144,1.9645844,3.1560287,2.8436127,4.7817001c-0.2058868,3.4419785-8.4831543,4.8611374-5.6925049,9.0232849
		c3.3096008,0.5189438,4.1886292-3.2566452,7.4988556-4.4957581c0.7777863,2.5311813,1.2967224,4.9617462,1.6038513,7.3658371
		c-2.5841217,1.6839218-6.7198029,3.0024643-3.8232422,6.0525894c1.9116211-1.11203,3.6696777-2.2240524,5.4806976-3.3360748
		c2.3776093,3.7226334,1.9116211,6.7198029,3.2566376,10.1353073c-3.1560364,1.705101-6.7727661,3.3360672-3.4155121,6.7462769
		c1.6044922-0.9531631,3.2619476-1.9381027,4.8134766-2.9177399c1.4456329,2.1181412,0.5136566,3.6167221,2.584137,5.9202042
		c-2.5364685,1.678627-6.1002502,3.1030731-4.914093,5.7401581c2.2770081,4.1621475,3.6749878-2.4040909,6.7250977-1.2444077
		c0.9273224,2.3564301-0.2594604,4.2151031,1.1861572,6.7250977c-3.2036743,2.0704803-7.4982147,3.9291534-5.8407593,7.2652206
		c2.5841217,2.3299561,3.8232422-2.0439987,6.5132751-3.0501175c6.412674,6.0261078-4.2892303,7.8582993-3.6167297,12.4599609
		c1.3926849,2.044014,4.0297699-0.8790283,6.2538147-1.9380951c2.2770081,2.5364685,0.5718994,4.0615311,1.9169159,6.3120499
		c-2.690033,2.2240601-9.3092194,3.5161133-5.8460693,7.2652283c2.2240448-1.3714905,4.5010529-2.716507,6.7727509-4.1144867
		c3.3625488,4.5275269-1.4456177,7.0110474-4.2362671,10.0082092c0.9266815,3.3096008,2.8965454,2.4040985,5.0676422,0.6725159
		c2.1181488,3.410202,1.6527863,6.2326355,1.8057251,9.1503754c-3.5637817,1.8374786-6.4073792,3.855011-5.1682739,6.8521729
		c1.6044922,1.3715057,3.9821014-0.4395142,6.2591095-1.9380951c1.2391052,3.2566376,1.9116211,6.3120575,1.8057098,9.2297974
		c-2.943573,1.138504-9.0974121,5.0676575-5.3264771,9.7222748c2.2769928-1.7845459,4.0873718-3.6696777,5.9989929-5.5071716
		c1.138504,2.9759827,1.2920685,5.7666321,1.3450165,8.4831543c-3.2566376,2.0916595-6.2061462,4.2415771-4.7022705,7.551178
		c2.6847382,0.9002075,2.4305725-0.9849396,5.7878265-2.6159058c0.8790283,2.3299561,0.6725006,4.3951416,1.2444,6.6986084
		c-1.9645691,2.584137-7.8106384,4.2415771-3.2089844,8.5043488c1.5515442-0.9796448,3.1030731-1.9381104,4.7082062-2.9177399
		c5.585968,7.212265-6.4133148,10.0558624-5.1212463,16.1349335c2.7429962,0.5666046,4.7075653-2.663559,6.7727661-4.0615387
		c2.0704651,2.2505341,0.6254883,3.6432037,2.6377258,5.8460693c-4.8088226,3.4896393-9.5110931,6.9263153-8.6843872,11.7874603
		c3.8755646,0.105896,5.8930969-4.5222321,9.0491333-6.3862c4.8081665,6.9528046-11.5332947,8.6631927-6.2591248,15.8489838
		c4.2415771-2.4570312,5.5866089-5.5865936,9.0497742-8.1972046c1.9645691,2.2240601,0.5718994,3.5955505,2.5364685,5.8195953
		c-3.1030884,5.4542084-11.379715,9.6163635-9.775238,16.2355499c4.6016846-0.9796448,5.7401733-7.4187927,11.7398071-9.9287872
		c3.9821167,8.9491425-11.3267517,13.1112976-8.2766418,21.8221588c5.8937378-3.2301636,6.6192017-10.7813416,12.2587585-12.07341
		c5.1152954,10.0346832-11.1202393,14.6363373-8.8432617,23.9191132c4.2892456-1.9169312,7.2387695-8.9226685,11.8404236-12.6982727
		c1.5515442,2.4835205,1.8639526,4.7340393,2.2770081,6.9580994c-3.9821167,7.3181763-11.8933716,13.730835-11.7927551,22.0551453
		c7.238739-2.742981,6.9316101-12.152832,13.9638367-16.8868713c1.3450317,2.3034668,0.9326172,4.1144714,3.0507507,6.6456604
		c-4.5010376,8.5361023-14.5840149,15.7218933-13.3396301,25.7036438
		c6.3067627-6.4126892,8.8915405-13.677887,14.8375854-20.1700134c2.1234436,11.0143433-13.2860413,20.710144-8.6843872,30.4059143
		c4.9094543-5.9466858,7.7576904-12.3593445,9.8758545-19.0261841
		C287.9347534,298.9839783,282.559967,307.5200806,283.2854309,311.6822205z M309.0367432,322.1776123
		c-2.3776245,3.6696777-5.9466858-0.6725159-8.6890259-2.1975708
		C304.2285461,316.7233887,306.2937317,320.6260681,309.0367432,322.1776123z M294.1938782,319.0480652
		c-1.1914673-1.6786194-0.259491-2.7906494,0.3600769-4.0085754c0.8313599,1.3979492,2.3829041-0.2330017,3.0554199,1.9169006
		C296.4708557,317.6553955,295.3323669,318.4020386,294.1938782,319.0480652z M287.781189,328.4631958
		c3.1030884-1.3979797,2.3299561-7.8371277,6.0002747-5.4595032
		C290.7836609,324.2216187,291.2443542,329.2627869,287.781189,328.4631958z M298.0223999,336.2685547
		c-1.2444153-3.696167-3.8285217-1.6044922-5.0676575-5.3271484c2.3776245-1.7845154,2.7906494-3.9556274,4.9088135-5.7401428
		c1.8639526,1.7845154,4.2415771,1.3185425,5.9996338,3.8285217
		C301.4855652,331.3067932,301.1254883,334.1503906,298.0223999,336.2685547z M311.7744446,325.2012634
		c0.7254639-0.4660034,1.2973633-0.8260803,2.0175171-1.3185425c2.4835205,2.637085,5.4806824,2.8224182,7.657074,6.5927124
		c-1.8110046,0.7519226-0.7784119,2.1499023-3.0024719,2.795929
		C316.6355591,329.4428406,311.5209045,329.596405,311.7744446,325.2012634z M278.2660828,338.8791504
		c1.5509033-2.4782104,4.2938843-4.7287598,6.9839478-7.0057373
		C285.456543,334.5899048,281.0084534,340.690155,278.2660828,338.8791504z M312.4999084,315.4578247
		c-2.637085,0.1005859-7.6511536-2.0175476-7.8583069-3.6749878
		C307.119812,313.5408936,310.5882874,311.2162476,312.4999084,315.4578247z M323.4612732,324.6081848
		c-2.324646-3.696167-5.7878113-3.2301636-8.0648193-7.2917175c0.8790283-0.5665894,0.4136658-1.4456177,1.6521606-1.8586426
		c2.6423645,2.377594,5.8990173,2.6582642,8.5890503,5.0411682
		C324.1867371,321.6586609,325.7912292,323.6762085,323.4612732,324.6081848z M335.7206421,326.5198059
		c-0.3130493,2.2240295-0.6731262,4.4216003-3.7762146,6.0525818c-1.2920532-2.8965454-3.2566528-2.6105957-4.3951416-5.7931213
		c1.6051331-1.3450012,0.8260803-3.2566223,2.8435974-4.4692688
		C331.9444275,324.6346436,334.375,323.2366943,335.7206421,326.5198059z M422.8550415,458.1834412
		c2.0704651,3.1507263,3.9291382,6.3597107,3.6220093,9.0497437
		C424.9255066,464.130127,421.4041138,460.5080872,422.8550415,458.1834412z M361.9373169,498.7776184
		c1.4985657-0.8313904-1.0855713-2.589447-1.3450317-3.8285522c0.7254639-0.4130249,1.3450317-0.8260803,2.0175171-1.2391052
		c1.4456482,0.3600769,2.4835205,2.584137,3.6220398,4.3421936
		C364.5744019,499.2435913,363.1287537,499.4501038,361.9373169,498.7776184z M352.4215698,499.8631592
		c-1.8110352-3.4154968-1.7051086-5.0147095,2.0175171-5.7931213c0.9849243,1.5515442,1.9116211,3.1560364,2.8965454,4.7075806
		C355.2651672,500.7421875,353.9730835,499.7572327,352.4215698,499.8631592z M344.3567505,501.9283447
		c-0.6195679-1.1332092-1.3450317-2.271698-2.0169067-3.4102173c2.0169067-1.0855408,3.7749634-1.1384888,4.8075562,1.7580566
		C345.2834167,501.5152893,345.0769043,500.0167236,344.3567505,501.9283447z M369.1760559,509.2729797
		c-2.9442139-0.2065125-3.7756042-3.6166992-4.8075562-6.4126587c1.1908264-0.7254639,2.2770081-1.0855408,3.203064-0.9796448
		C367.3173828,504.1523743,369.1231079,506.9483337,369.1760559,509.2729797z M357.8552246,510.5650635
		c-0.5725403-2.531189-5.5872192-6.0473022-2.6906738-7.6517944c0.7731323,0.6725159,1.7051086,0.8260803,2.8435974,0.1535645
		C358.4212036,505.603302,362.4032898,509.1723938,357.8552246,510.5650635z M363.4358826,738.2069702
		c-0.8790283,2.4782104,4.2415771,6.4603271,1.3979797,8.4778442c-3.6696777,0.6195679-3.1560364-5.2212524-4.4480896-7.5988159
		C361.4713135,738.6199951,362.7157288,737.3279419,363.4358826,738.2069702z M350.9759216,746.6848145
		c0.1012573-2.324646-1.1914368-4.961731-1.6044922-7.392334c2.2770081-0.7254639,4.6016541-1.7103882,6.3597107-0.105896
		c-0.7254639,2.430542,3.4155273,6.2590942,1.3450317,8.4831543
		C355.4240112,745.8057861,352.5751343,748.5487671,350.9759216,746.6848145z M374.5031738,738.0480957
		c1.3979797,2.8435669,1.1914673,5.2265015,2.0704956,8.1177368c-1.6574707,1.0379028-2.7430115,0.1588745-4.1886292,0.6248779
		c-1.1385193-3.0024414-3.7756042-6.3649902-1.3973389-8.4831543
		C371.9719849,738.927124,373.2117615,738.6199951,374.5031738,738.0480957z M384.2260742,748.0298462
		c-2.4312134-3.1560669-0.7261047-5.2212524-3.2043152-8.4302368c0.7201538-0.3071289,1.3926697-0.7731323,2.0651855-1.1861572
		C383.1398926,741.564209,387.2755737,745.7051392,384.2260742,748.0298462z M369.9544678,756.6135864
		c-0.9319763,0.6195679-1.8639526,1.1384888-2.7959595,1.7051392c-0.9796143-2.1711426-3.9291382-4.861145-1.9116211-6.2538452
		C368.50354,751.8054199,368.2970276,753.3569336,369.9544678,756.6135864z M379.8838806,756.147583
		c-3.2096252,2.4835205-5.4336548,0-5.6401672-3.0501099C377.3997192,750.6669312,379.6237793,753.2033691,379.8838806,756.147583z
		 M388.3081665,759.5101318c-1.6521606-0.8790283-3.8762207-5.6871948-1.6521606-7.3446655
		C388.5199585,754.9614258,388.20755,757.1325073,388.3081665,759.5101318z M393.222229,772.3355103
		c-1.9116211-1.3980103-5.6871948-7.3446655-2.8965454-9.3621826
		C391.9831238,766.182312,392.3432007,769.1794434,393.222229,772.3355103z M397.0507812,785.0019531
		c-2.4835205-1.4985352-3.9814758-6.979248-2.8435974-9.510437
		C397.2572937,777.1436768,398.8617859,782.7302856,397.0507812,785.0019531z M402.7909546,799.1193848
		c-1.9116211-4.0827026-5.8937378-8.7373047-4.5010681-12.0998535
		C402.1713867,789.4024048,401.5465393,795.555603,402.7909546,799.1193848z M407.7050171,907.9759521
		c-0.3124084-2.9495239-2.0704651-6.3067627-1.8110046-9.1503906c1.4985962,1.1332397,3.7756042-1.0379028,5.0676575,0.7201538
		c-1.2920532,2.3829346,0.6725159,5.5336914,0.2594604,8.1707764
		C409.7172546,909.2680054,408.9971008,907.2028198,407.7050171,907.9759521z M408.377533,912.1645508
		c1.1332092-0.7731323,2.1711121-1.0855103,3.0501404-0.9796143c1.3933105,2.3776245-0.312439,3.8232422,1.9645691,6.4126587
		C409.3042297,920.954834,408.9441528,914.5421753,408.377533,912.1645508z M415.7698364,933.8861084
		c-2.9488525-1.9645996-2.0175171-7.3446655-4.8081665-11.1202393c0.6725159-0.4130249,1.3450317-0.8261108,2.018158-1.1914673
		C414.3242188,925.7630005,416.8024597,930.2640991,415.7698364,933.8861084z M409.6696167,932.9011841
		c-3.9291687-0.3071289-5.480072-8.7902832-4.1409607-11.5333252
		C407.7050171,923.3324585,410.7557983,929.9039917,409.6696167,932.9011841z M419.1853638,945.77948
		c-1.1914673-3.2089844-4.7605286-7.0322266-1.8103638-9.2086182
		C417.427948,939.4674072,422.7014771,943.7619019,419.1853638,945.77948z M413.8052673,946.2454224
		c-3.5690613,0.1535645-3.7226257-6.1055298-5.2205811-8.9490967c0.618927-0.4130859,1.3443909-0.9320068,1.9639587-1.2391357
		C413.3392944,939.8327637,414.2183228,943.142395,413.8052673,946.2454224z M401.4459229,937.8152466
		c1.1384888-0.6724854,2.2770081-1.4509277,3.4102173-2.0175171c1.1384888,3.5161133,2.1763916,7.185791,2.6423645,10.5483398
		C402.5314636,947.3309937,402.3249512,941.8979492,401.4459229,937.8152466z M401.8595886,952.4515991
		c-0.5195618,2.3776245-2.1181335,0.8790283-4.035675,2.4782104c-1.7051086-1.5991821-0.1535645-2.324646-1.3450317-3.7755737
		C398.7029419,949.6556396,400.720459,949.2955933,401.8595886,952.4515991z M393.7411804,952.8117065
		c-0.5718994,2.2769775-2.1710815,0.7730713-4.1356506,2.4835205c-1.1385193-1.5039062-1.4509277-2.743042-1.3450317-3.8815308
		C390.3786316,950.6935425,392.5020752,949.8092041,393.7411804,952.8117065z M409.7702026,953.3306274
		c-3.1030579,2.3776245-5.3747559-0.1588745-5.5336304-3.1560059
		C406.6671448,948.3106079,410.3421021,950.0210571,409.7702026,953.3306274z M415.510376,948.9301758
		c1.1385193,1.6044922,2.0704956,3.1560669,1.7586975,4.5010376c-1.1867981,0.9849854-2.018158,0.1535645-3.1036987,0.9849854
		c-0.9796448-1.8640137-1.5992126-3.5161133-1.1385193-4.967041
		C413.5987549,950.1746216,414.5783997,949.5550537,415.510376,948.9301758z M423.114502,955.4487915
		c-2.1234436-0.6725464-3.1560364-4.6546631-1.9169006-6.2061768
		C422.2884216,951.4136963,425.132019,954.0031128,423.114502,955.4487915z M266.9916382,1439.1685791
		c1.4509277-9.0498047,0.2071533-18.8779297,3.9344482-27.4616699c-2.5364685-2.53125-0.8790283-3.9821777-1.9169006-6.2591553
		c1.1384888-3.1030273,4.1885986,0.206543,4.3951416-3.5637207c-3.7226562-2.2769775-5.2212219-8.5361328-3.0501404-11.1732178
		c2.1711121-0.1535645,3.2566528,4.0350342,5.6395569,3.1030273c0.0483093-4.447998-6.6721497-6.3067627-6.6192017-10.9613037
		c3.1507568-2.637085,4.1886292,3.4631348,7.2387695,1.1861572c-2.0175476-3.4631348-5.0676575-2.9442139-7.2387695-5.8408203
		c0.5136719-2.223999-1.7103882-5.1206055,0.5666199-6.8786621c2.4835205-1.3979492,3.5690613,2.743042,6.3597107-0.1005859
		c-3.1560364-4.4003906-9.0491333-3.3095703-8.5837708-9.6217041c1.9645691-1.6520996,4.5487061-0.4659424,3.7226257-3.2565918
		c-1.2391052-2.1711426-3.3095703-0.6724854-4.2409363-3.9291992c-1.2926941-2.1234131,3.0018311-2.7429199,1.7574158-4.8081055
		c-0.9796143-1.6044922-2.377594-1.3450928-3.1507263-3.7279053c-3.8285217-21.4091797,2.3246765-42.7652588-0.4130249-64.0155029
		c-0.7784119-6.8258057,0.4606934-15.4147949-4.7069397-20.4295654c-9.1562958,8.8432617-2.8442383,21.4091797-8.2772675,31.0784912
		c-2.8429718-11.0672607,0.3124237-23.0083008-1.2920685-34.5946045
		c-1.5991974-11.6337891-7.8053436-22.2880859-8.7373352-34.7480469c-0.3124237-1.3979492,3.2036896-1.8640137,2.584137-3.4685059
		c-1.4985809-3.1507568-2.9971771-2.8436279-3.3096008-5.4807129c0.3124237-2.8964844,6.5185852-1.2919922,5.3271332-5.0146484
		c-1.2391205-1.9116211-3.6220245,0.5666504-4.8081818-1.7050781c-0.5189514-5.2265625,2.637085-8.2237549,6.412674-9.5157471
		c-1.0849152-2.8966064-4.7075806-1.6044922-3.9291534-5.067627c1.7580566-5.380127,4.5487061,0.1005859,8.6843719-2.4835205
		c-3.9821014-3.5690918-8.5837708-4.3422852-2.8435974-9.5157471c2.5364685-0.7731934,3.3095856,5.2741699,6.2591095,2.7906494
		c-1.6045074-3.7226562-3.9291534-4.3951416-5.8460846-6.6668701c1.6574554-2.4835205,1.2444153-5.4859619,4.7075806-7.5511475
		c2.1181488,2.5841064,4.0350494,5.7401123,6.8786469,5.2211914c0.0476685-3.9291992-5.1735535-3.4102783-6.7250824-8.1177979
		c0.105896-2.4835205,0.413681-4.9140625,3.46315-6.6721191c2.2240601,3.3625488,3.8815002,8.9968262,7.551178,6.5185547
		c0.105896-4.967041-10.7019043-12.7723389-2.9442139-15.8754883c2.9971619,4.8612061,5.8407593,10.6489258,10.6012878,8.4249268
		c0.1006165-4.861084-13.3442688-11.8404541-6.3120422-16.5955811c4.0880127,4.2891846,7.1910706,13.1324463,12.9312439,10.7547607
		c-2.0175476-7.4451904-12.8253479-10.9136963-9.775238-16.4472656c2.2770081,4.0350342,4.3951416,8.6895752,8.5837708,5.1206055
		c-1.6038513-4.4481201-8.7902832-8.0119629-5.2212219-11.7874756c3.5161133,2.8964844,5.9943542,9.9764404,10.6489563,8.5307617
		c-0.9266663-4.654541-6.6668396-8.5307617-9.822876-11.8933105c0.8790283-1.9645996-0.6195374-4.7076416,2.7383423-6.2061768
		c3.5684204,4.0350342,6.5708923,10.8078613,11.6385498,8.6896973c-3.5161133-5.067627-7.7576904-7.3447266-11.2738037-12.6188965
		c0.5665894-2.8435059,0.2065125-5.8460693,2.584137-8.1706543c5.1735535,4.1885986,8.8432312,14.1174316,15.5683289,12.0998535
		c-3.2089844-9.1026611-20.1700134-14.4775391-11.3797302-22.0286865
		c5.8937378,5.8408203,10.8078308,15.7219238,18.0465698,16.1350098
		c-1.5515442-8.8962402-17.374054-14.1704102-15.2559204-22.4470215
		c6.6192017,2.7958984,13.3972473,17.119873,19.8575745,13.1376953
		c-5.5812988-6.2590332-11.6338806-10.8607178-17.061615-17.5805664c0.3071289-1.5515137,2.531189-2.4835205,4.3421936-3.6749268
		c5.7931213,3.9820557,12.7723694,15.4094238,18.3596191,12.152832
		c-4.8088074-6.5133057-12.8789368-10.8078613-15.9290466-17.3740234c1.6044922-0.9849854,3.2089844-1.9116211,4.760498-2.8966064
		c6.4603271,5.3271484,11.4803467,15.9814453,19.1321106,16.4949951
		c-1.4502869-7.8052979-16.7008972-13.8049316-14.4298401-21.1495361c5.8460693,1.1914062,9.3092346,12.258667,16.0820007,9.828125
		c-1.8057251-5.7930908-10.3418274-7.5511475-8.4778748-12.5181885c5.3271484-0.5666504,7.6524353,11.2260742,13.7520447,7.4505615
		c-0.3600769-4.5010986-10.547699-8.1707764-8.8908997-13.1907959c5.6342468-0.1005859,8.9438477,9.1557617,14.5834045,8.8432617
		c-1.1385193-6.0472412-7.7576904-8.6843262-11.2738037-12.7193604c1.8586731-1.7052002,2.637085-3.5161133,4.1886292-5.2741699
		c4.6546021,1.4985352,8.4301758,6.5131836,13.3389893,6.7727051c0.8313599-2.223999-0.9796448-4.2891846,2.3299561-6.979248
		c2.1181335-0.1535645,3.7226257,2.1710205,6.1538391,0.9796143c0.465332-3.4101562-6.1538391-5.3271484-0.9855957-7.8582764
		c3.3625488-0.105957-0.6724854,5.8406982,3.5161133,4.4481201c2.3299561-1.8110352,4.0357056-3.7756348,5.9996338-5.4807129
		c2.3782654-0.206543,4.0350647,2.430542,6.773407,0.5136719c12.824707-10.135376-8.5314636-19.2857666-9.9294128-27.5623779
		c-2.1181641-0.2064819-4.2362976-0.1005859-6.4073792,0.206543c-1.2437744-5.3748169,0.4606934-9.9764404-0.7784119-15.3035889
		c-7.5988464,0.5136719-2.9495239,8.8432617-5.4807129,12.5129395c-0.1535645-6.9793091-0.5718994-17.114563-3.6220093-22.9606323
		c-4.8081665,6.2061157,1.5515442,15.1022949-2.8965454,21.3561401c-7.132843-5.1206055-1.9645996-19.6987305-7.445282-26.2702637
		c-4.6016541,6.2590942,2.637085,15.4624634-1.9116211,21.6685791
		c-4.0880127-20.5300903-10.5006714-47.9387817-14.842865-68.3099976
		c-2.584137-11.7927856-1.1861572-27.3081665-12.824707-32.2698975
		c-14.4251709,2.2769775-24.3056641,16.0290527-28.749115,24.7716675
		c3.6696777-17.326416,12.2005005-32.8364868,16.4420776-49.9563599c4.1356812-17.0139771-1.3450317-33.5619507,0.5665894-51.555542
		c2.0704956,0.8260498,4.4004517,0.8790283,5.9996338,3.7755737c0.312439,5.8937378-2.1181335,14.1650391,1.1385193,18.9255981
		c2.3782349-5.2741699,0.2601013-11.6339111,0.8260803-17.22052c11.6868286-2.5841064,5.3800659,14.3768921,10.8607483,16.6009521
		c1.3979797-3.6749878-1.6521301-8.5361328,1.2444153-11.8933716c4.1356812,0.5665894,2.584137,6.2538452,5.5283508,7.8053589
		c0.2594604-2.8965454,2.3829041-3.4631348,3.5690613-4.861145c-4.3421936-3.5690308-3.8232422-8.5308228-2.7377014-12.3063965
		c2.3246765,1.3980103,5.0676575,1.2920532,7.3399963,2.9495239c2.7953186,5.1152954-0.6201782,14.2180176,5.1729126,16.3414307
		c1.1914673-7.8106079-2.377594-16.9133301-0.777771-24.618042c1.2437744,0.8790283,2.6894226,1.1914062,4.2939148,1.0855103
		c2.9971619,5.2265015-0.6195679,14.2763062,5.2741699,16.4473877c0.4659729-4.3474731-0.671875-9.0497437-0.7248535-13.6037598
		c1.7574463-1.3927002,5.691864,0.105896,5.7924805-2.4782104c-1.8586731-2.0175781-4.3951416-0.6725464-6.2538147-2.7959595
		c1.6521606-3.1030884-2.5364685-7.6517944,1.3927002-10.0823364c0.3124084,6.8256836,6.4126587,10.5483398,4.6016541,0
		c2.4305725-0.3601074,4.7075806-1.8110352,6.1055298-3.7756348c-1.1914368-4.5487061,0.0476685-5.067627-3.8285217-7.9641724
		c-13.3442993-10.1353149-31.0784302-4.8081665-42.4581299-15.2559204
		c-10.9613953-10.0823364-15.2029724-29.0079346-19.285675-41.4202271
		c-2.1234436-6.4656372-4.7605286-13.3919678-6.5185852-20.2706299c-2.271698-8.5308228,0.9855652-23.4796143-10.0817261-29.2197266
		c-28.2883911-2.7377319-37.4381256,25.5500488-38.3707428,46.1807251c0,1.9645996,0,3.8762207,0,5.8460693
		c-0.052948-1.8639526-0.052948-3.7755737,0-5.8460693c0.2594757-14.2709351,1.7580566-27.8217773,5.8937225-41.526123
		c2.8436127-9.2562866,8.1713715-17.8400269,9.6693115-27.2498779c2.1234436-13.6037598-2.7376862-27.5146484-0.1006012-41.8862305
		c2.4305573-2.743042,4.5487061,0.4606934,5.2218475-2.2240601c1.0372467-1.6044922-4.0833588-3.4155273-2.6377258-5.8990479
		c1.9169159,0.8790283,4.3951416-0.4130249,5.8937378,2.0175171c-0.2065277,11.6392212-4.6493225,25.2906494,1.3979645,36.5114746
		c2.1710968-15.9813843,0.4130402-32.8894043,4.3951416-48.3518677c1.7051086,0.206543,3.1560211,1.3980103,5.3800812-0.4660034
		c-1.7580566-4.2944946-7.8629608-5.2741699-4.7075653-9.2033081c1.7050934,2.637085,3.775589,3.5161133,5.740799,4.9088135
		c-1.4462585,10.8078003-4.3951416,24.4645386,0.618927,34.9069824c2.1763916-10.0294189-1.1332092-21.5097656,3.6220093-30.9248657
		c1.4456177,0.8790283,2.8965454,2.1763916,4.8081665,1.7580566c1.7051086,4.5539551-2.7376709,10.3471069,1.8110352,13.8102417
		c3.5690613-8.8432007,1.9645691-18.9255981,4.5493469-28.0282593c9.3085632,3.7225952-0.1542053,13.8579102,6.4120178,18.5125122
		c2.5371094-3.6220093-0.3071289-8.5308228,2.9495239-12.046936c1.2391052,0.7202148,2.324646,1.5992432,3.9297791,0.4130859
		c1.6038513,3.8761597-2.5847778,9.40979,1.7044678,12.046875c4.1886292-5.0146484-0.6725159-12.2057495,4.7605286-16.90802
		c6.2061462,3.6696777-1.3979797,12.9788818,5.014679,14.7369385c2.8435974-2.3776245-1.6044922-6.6192017,2.1711121-8.7902832
		c1.705719,3.3096313,4.3951416,2.531189,6.4656067,4.4957886c-1.2391052,2.0704346-1.9645691,4.1885986,0.5189514,7.1381226
		c2.9971619-4.0827026,3.9291382-7.5512085,9.769928-6.8786621c1.9169006,2.1234131-0.6195679,5.9466553,3.0024719,6.5662231
		c2.0651855-4.0297852,2.6847229-7.9112549,8.9967957-8.1654053c1.0855408,1.7580566,2.0704651,4.2362671,3.8285217,3.2565918
		c-1.7103882-9.3092041,14.1650696-5.5336304,18.7667542-10.5006714c6.6721191-7.085144-9.7163391-18.5125122-16.3884888-22.5952759
		c-6.0532227-3.8814697-13.5514526-6.1531982-19.4451599-7.8635864c-17.7394409-5.0147095-34.546875-8.0648193-49.0766907-12.253418
		c-9.5163879-2.6900635-20.9967041-9.616394-26.9433899-17.1675415
		c-10.3888397-13.0848389-15.2506104-30.0987549-26.0584259-41.992157
		c-6.9845734-7.6517639-17.6864777-14.9964294-19.5504456-26.4767456c-3.0501251-0.9319763-5.9466705-2.3776245-9.4098358-1.7580566
		c-9.6216583,9.1027222-8.2766418,20.8424988-8.5354767,32.1639709c-11.3220978-23.8873291,0.671875-42.0397949,3.30896-62.5169373
		c10.4477386,17.6811829,20.6889496,16.8551025,36.3049316,17.2204895
		c16.9080658,0.3071289,30.66539-0.9319763,46.2813873-4.7075806c0.1542053-9.5686951-11.5332794-6.8786621-17.0616302-8.3242798
		c-2.3829041-2.4305725-1.138504-7.2440491-4.7598877-6.4126587c-1.7057343,1.0855408,0,3.0501099,1.0849152,4.908783
		c-3.1030731,1.0378723-5.9466858,0.7784119-8.271347-1.4985962c-1.191452-2.4305725-0.3124237-7.3923035-3.2089844-8.3242798
		c-3.8232422,2.1181335,1.7580566,6.6191711-0.9796295,8.9967957c-2.5894318-1.4985962-5.5865936-1.0855408-8.0701141-2.584137
		c-1.5515442-3.4631653-0.4653625-13.6513977-5.6342621-12.4652405c-1.3973389,3.5161133,4.0297699,8.7955627,0.5666046,11.7927246
		c-8.9968109-0.1535645-3.7226257-18.3060303-10.6542511-17.8400269c-1.3926697,2.1710815,2.4305725,5.6342468-0.0999756,7.551178
		c-7.8589325-1.5515442-4.242218-12.2587585-8.7373352-16.0872803c-3.9827271,2.2770081,0.8254395,6.7780457-1.7586823,9.4151306
		c-5.0193634-3.1560364-4.140976-7.8106384-6.052597-13.1377563c4.4481049-0.6195679,7.1381378,5.5336304,12.3063965,1.9169006
		c-7.0851746-5.4330139-21.3561401-9.2086182-21.5626678-20.5300903c-4.5010529,3.4631653-10.3947754-7.344635-6.7727509-9.7752075
		c6.7727509,3.5690613,11.5809326,15.2559204,20.1117401,11.9992676
		c-5.5812988-5.4330444-23.0083008-12.0522156-18.3530426-21.4620667c5.2205811-1.1914368,9.2026825,3.0501404,14.6833649,1.3450317
		c-1.4449921-5.3800964-9.9287872-1.7580566-13.2913361-6.8257141c5.6395569-3.5690613,13.5508118,2.0175171,20.895462-0.6195679
		c1.912262,2.8436279,0.8260803,3.9821167,3.3096008,5.5283508c2.0122375-5.3218079,1.0325928-11.3744202,1.8057098-16.9609985
		c3.0024719-1.9645691,5.3271332-0.8790283,8.1230774-2.0651855c2.2240448,9.3568726-5.1206055,22.2351685,3.6167145,29.3733215
		c-0.3071289-10.5536499-1.7044678-21.3085022,3.0024719-30.6654053
		c11.0619812-1.8110046,21.1496277,0.4130554,33.0429993-5.0676575c2.2769928-0.4183044,2.690033,6.4603577,5.3747711,4.1886292
		c2.642395-2.3829041-2.5311737-3.3096008-1.5515289-5.5865784c2.8965607-2.2240601,5.0200043-1.3450317,7.9165497-3.8815002
		c4.4428101,4.4480896,6.6192017,14.4827881,13.1854248,14.3768921c-0.5718994-4.861145-7.7576904-12.8730164-8.6896667-16.0820007
		c2.8435974-1.4456177,6.3597107-5.3536072,7.7583313-0.9796448c-0.3130798,2.584137-5.2748108,4.0827332-1.859314,7.6517944
		c2.7906494-1.3979797,2.9971619-3.5161133,6.3603516-4.808197c4.4480896,7.8053589,9.0491333,14.99646,14.5827637,18.2001343
		c0.1535645-6.8786621-8.5361023-16.2355347-12.6717834-21.2502441c3.2566528-2.2770081,4.2415771-5.1206055,7.604126-7.3446655
		c1.2391052,1.8586731,2.8912659,2.0916748,4.2892456,3.9556274c-1.6521606,2.4835205-6.6721497,6.5927429-3.3096008,8.504364
		c3.5161133-1.4456482,4.2415771-3.6696777,7.1387634-5.2212219c4.3951416,2.1710815,6.7721252,12.9259338,12.771759,9.0497437
		c-2.7906494-5.1735535-5.9466858-8.7373352-9.1556702-12.2322693c2.2770081-2.4782104,3.5161133-5.3218079,6.5185852-7.6517639
		c2.3776245,0.5718994,4.1886292,3.3625488,6.1002502,5.6130676c-3.0494995,2.7377014-7.185791,5.1682739-5.6342468,9.0497437
		c3.3095703-0.4130249,7.0858154-3.4684448,9.4627686-5.7931213c2.4305725,3.4631653,4.9617615,6.6721497,8.5844116,5.0147095
		c0.2588501-3.7226257-4.18927-5.1682739-5.7407837-9.4892578c2.377594-0.9796448,1.7051086-2.7112427,4.3951416-3.590271
		c3.6696777,3.3572693,2.637085,5.2212219,3.5697021,9.0497742c3.8278809-3.9344482,5.4270935,1.3397217,8.8432312-0.7519531
		c0.618927-2.5364685-2.1710815-3.2831116-3.2572937-5.4065552c2.9971924-1.9645691,1.8586731-5.014679,5.1153259-6.9263
		c11.4803162,5.6607056,16.0819702,22.8017883,26.2225952,34.5415649c2.271698,2.589447,5.8937073,3.9821167,8.6843567,6.7780457
		c20.9960632,21.0966797,39.8687134,63.5018616,47.8329163,87.4951172
		c-11.3744202-21.4620667-26.3179016-59.5727234-49.1249695-58.7995911
		c6.3074036,11.4803162,17.5805664,27.255188,18.7190552,38.9949646
		c-7.5988159-11.5332642-16.8067932-16.4473572-25.6983337-22.6535034
		c-8.6360779,17.0139465-13.1371155,35.0605164-8.4831543,55.4370422
		c-15.3565063-1.4985962-23.0612488,13.2913208-34.9546204,22.081604
		c-11.7927551,8.7373352-25.2376404,13.1854248-36.4584961,16.4473572
		c-5.9460449,1.7580566-10.5483398,0.7731323-9.4151306,7.5458679c8.9491272,2.743042,19.6510315-1.5515137,30.2523499-5.2211914
		c2.0704651,1.0325928,3.4684448,4.8081665,6.2067871,2.742981c-2.9448547-2.8965454-1.0861816-4.6069641,2.1228027-5.8990173
		c1.0325928,3.5690613,3.9291382,14.948761,9.2562561,14.0168152c0.8260803-4.9141235-7.0368652-11.8933716-4.0880127-16.1878967
		c8.2772827,0.2594604,5.3800964,20.1170349,15.2559204,17.7923889c-1.2920532-6.5715332-8.4831543-14.5357666-6.5662537-20.2759094
		c8.3778992,6.7780457,6.9792786,25.4971008,17.5805969,24.771637
		c-5.0147095-10.4476929-11.7398071-18.6661072-11.3267822-26.6832581c3.9344482-1.7051086,3.6749878,4.0880127,4.7075806,6.3597107
		c3.1560364,6.4126587,6.8786621,13.9638672,9.3092346,18.6713867c2.0175171-1.0855103,2.7906494,2.6847534,5.014679,0.6725464
		c-2.0651855-6.9845581-7.6517639-14.7422485-10.1882324-21.7745056c1.3979492-0.8260803,2.742981-1.5991821,4.0880127-2.4305725
		c4.6022949,9.72229,12.0998535,29.0662231,21.716217,36.1460571c0.1059265-7.5988159-11.1678772-18.3060303-9.822876-25.6453857
		c0.4130554-0.3123779,0.8790283-0.5718994,1.2920837-0.8790283c8.5837402,8.5838013,14.3768616,27.6152954,23.3207092,34.335083
		c-2.271698-10.4477539-11.0672913-22.4946289-16.4943848-33.7684326c5.9460449-1.0325928,3.7749634,4.3951416,5.1729431,7.085144
		c5.7401428,10.9137573,13.8579102,20.9960938,19.6987,32.8894653
		c5.7401428,11.8933105,13.8632202,22.6481934,18.4119263,35.4205933
		c5.1689148,14.4827881,1.4985962,29.373291,13.5508118,45.8683472
		c13.7526855,18.7243652,31.0784302,36.0983887,38.1642456,60.7641602c0.25354,2.742981-2.3829041-2.637085-3.1037292-3.7226562
		c-8.3772278-9.1027222-13.8102722-16.90802-22.394043-26.5826416c-7.704071-3.9821167-13.7573242-14.5304565-21.9280396-16.4950562
		c-3.8232422,10.3947754-3.9768066,17.4799805-9.875824,28.3407593
		c-5.6872253,10.3417969-15.721283,23.6807861-25.7513123,31.3378906
		c-11.8397522,9.2033081-21.4090881,7.5511475-31.0254517,8.5308228
		c-14.789917,1.4456177-39.5615845,7.185791-38.7355042,23.4266357c5.2741699,1.2920532,10.2888794,3.6696777,15.8760986,3.4631348
		c2.0698547,2.3299561,0.1529236,6.5185547,3.4625244,7.2387695c2.8965454-3.1507568-2.7377014-8.4779053,3.8285522-10.7019043
		c5.9472961,4.2415771,1.1914368,17.427002,9.2562561,18.6184082c1.1921082-6.0525513-4.1356506-13.8632202-2.637085-19.8098755
		c1.1914673,0.5718994,2.584137,0.4660034,4.1886292-0.7201538c4.0357056,10.1829224,2.8435974,25.0787354,11.6868286,30.1993408
		c-0.3600769-4.9140625-2.2240295-10.1882324-3.7226257-15.3618164c2.7906494-1.9645386,4.6546326-0.1005859,7.1387939-0.6724854
		c3.3565979,8.4831543,3.4624939,22.2404785,12.0992126,28.1342163c0-5.7930908-5.2741699-12.9312744-3.5690613-18.4119263
		c10.3947754,4.760498,8.6367188,29.1668091,19.338623,33.9749756c-0.6725159-10.9613647-10.3411865-24.3056641-9.769928-35.0605469
		c6.4126892,0.8261108,6.9792786,10.1353149,6.7727661,14.5834351c1.1914673-0.8790283,1.9645691-0.3601074,2.637085,1.1914062
		c2.7906494,10.7548828,11.5332642,22.9606934,14.684021,33.9220581c1.1914368,1.3979492,3.4154968-1.1384888,4.4004211,1.0855103
		c6.6192017,29.7333984,14.1650696,59.7263184,2.6847534,85.0169067c-3.1024475-0.9320068-6.3597107-1.0379028-10.2359314,1.4985962
		c5.4807129-0.1535645,2.584137,4.8081665,5.3271484,8.8961792c-0.7254639,0.9266968-3.9821167,1.2920532-3.0024719,2.6847534
		c3.8285217,1.5038452,3.7226257,4.5540161,4.9676819,8.2236938c-2.8442383,2.9494629-3.6756287-2.324707-6.1538391-0.9320068
		c0.1535645,1.6044922-0.2065125,3.0554199-1.1385193,4.3951416c2.9442139,2.5894165,6.6192017,9.0497437,3.4631653,11.8457031
		c-0.6188965-0.7254639-1.5515442-0.0529785-2.4835205,0.6195679c-2.1710815-2.8965454-1.6521301-11.0673218-6.3597107-9.2033081
		c1.8110046,4.3951416,4.6016541,8.9438477,0.5718994,11.7344971c4.3951416,0.7783813,5.2212219,5.8989868,5.0147095,10.0876465
		c-8.2766418,2.4835205-2.8436279-17.6335449-11.8457031-15.2559204c3.1560059,5.4806519,3.8814697,10.3417969,5.4859619,15.3565063
		c-2.1227722,2.2769775-3.0024414-0.5136719-4.9140625,1.0855713c-3.4631653-4.2892456-1.4979553-12.9789429-7.6517944-11.2738037
		c1.5515442,4.8134766,9.510437,17.432251,1.5515442,19.7039795c-2.637085-4.861145,0.4130249-15.3565063-6.6192017-15.7219238
		c1.8586731,5.380127,3.2566528,10.6013184,3.7702942,15.5153809c-1.5991821,0.9849854-3.2566528,1.9116211-4.8081665,2.8966064
		c-2.6900635-3.7756348,0.8260498-10.9137573-4.1356812-11.5333252c4.2945251,8.1707764-3.9291382,14.895874-1.1384888,21.2026367
		c5.1735535,11.8457031,23.5802002,2.0704346,34.181488,4.5010376c1.5515442,2.6900024-1.1385193,6.2537842,2.742981,7.6517944
		c1.4456482-2.1711426,0.5136719-7.291748,5.1206055-6.8257446c5.1153259,3.5161133-1.1384888,12.046936,4.808197,15.7219238
		c2.690033-3.9291382-1.4509277-9.6693115,1.0855408-13.7044067c7.3923035,3.9821167,0.4666443,18.4066772,8.8432312,22.6482544
		c0.8790283,11.1202393-0.4659729,21.875061-0.6195679,32.8894043c-0.2594604,14.1704102,0.4660034,30.9777832,0.6195679,44.369751
		c-5.7931213-10.6013184-6.2055054-24.199707-6.2584534-35.3199463c1.0319519-5.168335,3.6743164-17.0616455-2.8972168-18.7191162
		c-0.4130249,23.0136719-12.9789124,41.526123-27.5093384,59.4667969
		c-3.5690613,4.4481201-5.7931213,9.4681396-9.6163635,13.2384033c-5.6925049,5.7401123-12.6188354,9.6217041-19.4438782,15.5153809
		c-19.0851135,16.4949951-36.358551,37.0780029-43.3907776,56.1094971
		c-8.5307922,23.1142578-4.5487061,46.800415-0.0476379,72.6575928
		c3.3095703,18.9255371,8.7373047,38.3171387,12.5135498,59.5197754
		c-4.7611694-10.034668-12.1534729-17.8930664-15.7225342-27.7687988
		c-2.7377014-7.5512695,4.2415771-18.5655518-4.755249-20.3765869c-7.8635864,30.7713623,2.7383423,61.59021-3.6220093,91.5301514
		c-3.5690613,16.8074951-11.1202393,31.7509766-18.6661072,47.6264648
		C278.2660828,1406.1732178,270.613678,1421.9957275,266.9916382,1439.1685791z"/>
</g>
</svg>
