<?xml version="1.0" encoding="UTF-8"?>
<svg id="grapes" xmlns="http://www.w3.org/2000/svg" version="1.1" viewBox="0 0 1000 1120.8641301">
  <!-- Generator: Adobe Illustrator 30.0.0, SVG Export Plug-In . SVG Version: 2.1.1 Build 123)  -->
  <path d="M941.4365759,132.5291444c13.2197152,2.1997161,27.0905635-3.9739109,38.9016323,2.1368874-40.1353581,10.1552847-79.9822516,29.9428406-115.3947538,40.4566409,10.7094261-8.5689686,14.4469922-26.2960309,28.196467-30.9181123-1.2415794,10.5452146-7.6208274,14.3627679-11.8181847,21.0525893,14.6833131-2.834428,14.0628803-25.6683518,30.6153689-26.0975498-1.1994557,8.9039236-5.8152182,13.3069255-9.9983199,18.2818108,9.1401379-1.9940951,11.3855476-12.9684007,16.2868948-20.460001,7.6765164-1.5657181,17.5149089-.3034337,23.2108955-4.4522653-10.4373815-.8503284-23.3643973,4.1902413-30.4062018,1.9840996,23.98483-26.6450514,49.7331455-94.7398645,31.3821874-134.513244-33.1528125,52.3026938-66.006475,104.9716499-105.6442018,148.7989041,3.7582945-13.8465736,7.1888806-25.5883881,4.7207149-35.5652891-27.2754796-7.7007911-37.5879427,19.9895003-57.8494624,27.0141696.4398004-16.0227289,11.3791219-31.6684861,7.1674617-42.7684489-30.0013855,14.7011858-42.9212368,51.6965403-69.6669568,70.6607915-2.3425084-3.7647202,4.3230382-10.3988525.4954894-15.0110452-7.4537604,7.6622372-17.5006297-9.5799384-24.8073139-6.3028541-9.977615,5.9087472-10.0682694,20.0658942-13.1990103,31.4200274-4.1759621-10.3711142-9.4821256-63.0813739-25.420589-69.7084743-26.1324276,54.6660148-2.6145279,116.9149093,13.4353136,160.0524765-4.0788633,10.4616811-9.7677103,15.1995311-4.8106558,25.0022255-18.6715274,19.6446567-38.6546025,37.562954-61.1815233,52.1947838.9966906-7.4537606.6689821-13.8400462-.4183816-19.6688297,6.5184707-6.7112402,12.7656359-16.5560583,15.7642752-28.0494141,7.3209637-27.8337977,1.6106977-63.9431257,2.1333177-84.1453865-9.0780235.4883498-5.0477095-16.3183091-10.5909084-22.5204946-3.5976532,1.1159222-9.0573186-.2191862-12.2430159,1.4122163.3898231,15.983461-3.751155,32.2467951-10.3538731,43.8379636.2506006-6.3828178,1.0730845-13.2197152-.5933022-18.1560466-3.0464747,4.6750213-.9759857,10.8593578-3.2556655,13.1290421-5.877333-7.4637558-1.6385422-22.6912366-3.0814589-33.5648739-3.9817646,2.2733596,2.4331816,11.5984137-4.9156266,14.4192764-1.2901289-6.8019133.6761218-16.1690911-2.0847683-18.3580977-7.4187764,8.2791001-14.8646834,16.5175044-20.2193964,27.4638606,1.4986057-11.379017,3.005065-22.7088755,4.5108103-34.0773938-5.1805064,10.8244794-5.3475734,41.1157333-13.1982967,54.0320148-4.8463723-7.815739,1.380088-24.1312972-3.2770844-32.0932933-2.8515632,13.6516621-1.7220757,32.5288099-8.4647304,41.0806434-1.7149361-8.4504509,1.6106977-20.7462997-5.7516758-24.8701426,4.3994322,16.5902241,1.6171233,38.6781622,7.9621013,53.8155786.6275724-8.5098134-3.7789995-20.1744163.5647437-27.0662888,3.7304501,1.5685739,4.3922926,5.4867958,8.0877586,7.1082029-.9624204,27.8016694-10.542359,62.2060568,1.4571959,80.0765187,3.8489677-28.293589-6.177197-56.4129714,5.654577-88.1928355-.2091908,5.0377139-3.6811867,12.5850032,2.8794077,12.4422109.0142792-17.2493152,6.567734-42.395047,16.5453493-56.6007433,12.1594824,31.9469311,12.5428798,72.9197664,6.9025821,118.4905151-3.4370118-.920399-5.2497607-3.0607539-10.1725269-2.8415676-9.7127355,8.1720059-15.6386179,21.2903385-23.7756399,31.5185541-1.1708973-7.5130192-9.6213484-9.4892652-16.3989872-12.7213699.4676449-13.2297107-5.1033985-21.822954-6.0586793-33.9760104-3.6254977,8.1540543,3.2421003,15.2031009-1.0666588,19.4597407-7.4394813-20.0416195-6.8818772-46.2047467-5.3689923-73.0796938.8439028-6.4078064,1.6949452-12.8363178,2.5452736-19.2541197.4597914-3.4612864.9131571-6.9025819,1.3736624-10.3574427-1.4436306-.1563576-1.4086465,1.6699565-1.8827171,2.7543596-.2091908,1.4779008-.4041023,2.9737553-.5997279,4.4445165-7.6550978,39.1529468-5.8844726,78.1559616-.0071396,102.5099099-8.7988645-23.4372214-17.5905893-53.9826457-13.1076236-83.1408424,3.3327734,3.6676214.5576041,11.9852754,7.3209637,13.0312293-3.9396409-7.6415323-.5297596-20.8855222-7.035379-26.5608039-13.7351959,33.7875245,3.5355385,66.3484627,6.8818772,95.8936266,29.2838547,7.3202495,13.0519345,50.5940826,7.7671898,77.8939377.0628286,2.1861508,4.3580225,1.1158221,4.0510189,3.5526735-5.0341442,5.9437313-13.5124399,15.5443746-19.9202465,13.9408166-.3969627-20.871243,9.0366137-41.1191974,2.1061871-61.5199396-3.1514271-9.2593696-10.3474475-18.1974563-12.9619754-27.3454479-3.1999765-11.2149107-10.4723908-30.2769747-22.5204951-34.6557019-14.9967663-5.4239672-24.0683642,5.9615804-40.0903795,6.7597896-3.227821-7.2966888-2.0640634-17.9532814-5.7588154-24.866676-53.0380757,4.8250566-120.0905063,29.165337-133.345206,84.7900961-13.3867826,56.2417217,3.5348246,99.1179788,12.4664859,144.8593644-4.8663632-.7075361-5.1105381-4.9363313-11.476221-4.5179498-11.2534649,1.547869-10.207511,19.1213228-15.7714148,28.0636933-11.2320461-14.2656691-20.9169371-31.5356892-29.6743917-49.165546-10.7022865-21.5823489-11.8946026-50.7962345-38.6403233-60.895937-32.8807939-12.4100826-63.7682066-15.4115777-90.3604256-11.9888452-39.6512931,5.1248172-56.3986936,34.262309-98.8394352,29.1132171-4.4202085,19.2362706-16.3078857,34.2023362-19.1247503,53.2329859-3.2630193,22.175651,30.643095,53.3415081,41.0455176,65.745165,19.6410874,23.4272259,42.3500684,52.5640038,76.0747651,62.8414827,24.4660409,7.470801,52.9409769,9.5099701,76.2561114,16.1369628-4.8877821,2.8865472-6.6448419,9.866237-10.8486486,13.6451425,1.6449678,7.1532763,6.0722446,12.1944665,9.6698978,17.8627021-21.2232266,7.4501906-32.9436225,22.8724777-52.8845739,35.1890313-18.5601494,11.4769347-44.0785698,13.5823156-58.2464266,29.9706851-9.4542813,10.9500309-15.3180491,32.5537077-17.0401248,48.9906253-1.5550087,14.7461654,3.3884624,29.6843865,1.8962824,42.4577861-.5297596,4.5565931-5.4239673,12.2395352-5.4939356,18.8636721-.2163304,17.1479326,17.0751089,40.6201381,36.3670691,44.0228797,9.51711,1.6770083,18.6579621-6.8504627,26.8435334,2.0426445-37.245956,54.4781351-56.3080204,132.6969254-82.5032766,201.6212792,8.2762445,1.5265329,7.3766527-8.8930245,13.4289063-10.2702566-.7318108,3.6640515,1.6663867,4.9220521,3.6462026,6.5013354,3.4234465-4.8242393,6.624137-9.9177253,13.4431856-10.2910442-2.1340316,4.7621247-6.8468931,6.1115123-8.9809247,10.8629276,4.1695366,5.5503384,8.9873504-9.437146,13.9172562-2.6630772-5.5710434,10.4338366.2298957,16.6952809-3.5419642,26.6720998,10.9671663-12.940474,15.7714148-33.8989033,25.9296624-47.8160761,26.7664256,4.4172812,56.5521954,6.1079425,82.4754321,3.3784669,54.7180276-5.7523896,101.9066148-40.7079554,145.0927324-71.1905511,1.6878056-4.3994321-1.9662506-4.699296-.2927243-9.0987282,15.5693636-11.5255697,35.0219652-18.0061146,48.0738997-32.8151086-45.6892675-6.9968249-97.7584971-1.3279688-139.0411927,2.6773565-6.7283754.6411376-13.02409-1.8234582-19.4526015-1.0773682-42.2029923,4.8770725-73.445958,41.4082668-101.0769913,57.4446461,2.5795438-23.6885359,12.8634486-31.8319833,24.2561361-46.5225455-1.3943673-30.1655108,12.2087457-51.2045348,24.2425708-69.1335415,25.8468429-1.3279688,61.8376541-17.382112,81.4294782-34.4293761,7.9970854-6.9682664,22.8831877-23.482201,27.149823-34.0838186,11.2398997-28.0458443,2.4681657-63.0363943,19.1812961-87.9136765,3.1235826,12.6792462,6.6377023,25.0793334,20.170847,29.8100437,7.8228788,2.1054731,7.4601862-6.4877702,14.2999397-5.633158-1.2201606,67.0381497,35.7537759,104.838139,71.4033135,143.6355329,17.297865-4.1067078,36.9810762,7.4816049,42.488577,20.6970363,13.826583,2.126892,29.7022362-2.7923043,49.6774578.5476086,12.969115,2.1890066,23.4971948,9.8626672,35.1754669,7.6765164,7.0632235-1.3072639,17.0122803-8.0741931,21.2025218-12.2402466,17.6120082-17.6147767,3.6540562-45.772713,7.2445698-77.4440549,2.2725402-20.1708465,7.1810272-37.545819,5.5846087-53.5264242-.3348481-3.2942194-6.045114-9.1130074-6.0236952-11.3506539-29.109648-41.6424408-45.6964071-99.8081882-120.6488244-101.920801.5297596-6.8433231,7.5230148-5.2290556,7.6836562-12.5435935-2.3639273-6.640558-8.2555396-17.5977285-7.613688-22.1156783,37.7335918-.3869673,73.6480092,7.6522417,106.361736,5.0584188,26.4672756-2.1161825,60.0177656-16.9187509,80.8575948-29.9878202,18.9649657-11.9017419,24.501025-37.7514399,37.8735283-58.2885488,6.4706171-9.9633358,18.1560286-13.1534131,20.7912613-31.9155168,2.2732541-15.9977403,7.7115005-48.1088826,3.6262116-61.3314537-6.547029-21.1890549-34.6528283-23.2144653-63.2248631-23.4343656-32.5673647-41.5197299-88.7433022-3.5726644-113.5434772,15.0917228,13.2746906-10.4966652,24.2354312-32.1139982,42.5307008-36.5626937,6.3171335-1.5407294,13.5053002,1.5028894,19.6617923-.4219514,7.8992727-2.5131453,10.4859561-9.4785558,18.2531458-12.6542575,13.191871,21.2724895,29.9742557,28.164362,54.2025473,11.7096862,5.8080787-3.9424966,10.2774792-10.6152827,17.1872009-15.8063985,9.7891294-7.3659431,19.9266536-11.6989768,30.6989081-15.5300953,26.9334919-9.5520939,66.9060668-22.046424,65.3232137-60.6767508,2.0919078.3976767,4.1759826.7882137,4.6500327-.896022-32.545945-9.5449542-72.9783112-8.7218585-88.3806074,18.428066-9.5449542,2.6002486-17.4934722,7.2824095-28.2236032,8.3140842,28.6769872-29.729366,55.2277773-62.276025,89.6007504-84.5873288,45.975565,30.2070064,92.8293029-9.6428706,104.7517497-28.3142939,2.6216674-4.1345523,2.7195028-16.9501652,7.3766525-21.6423216,2.2732541-6.6269927-2.7473247-7.6486719-1.1851765-13.7180605,63.9217068-13.8608528,115.5232902-43.8136889,158.9293069-84.4652413-21.00047-4.4172812-37.6393479-6.5998621-58.5634241-1.71565ZM560.0246751,223.6426924c2.4960102-5.6294833.9345759,6.1009078,0,0h0ZM426.0940205,312.9265663c-1.6663867,6.5120449-11.1834967,10.0682882-17.2907254,5.2433349,1.7499202-7.8749978,16.4196921-16.8730573,17.2907254-5.2433349ZM290.5947919,414.0562881c.7667949-84.8949463,62.3324296-112.4909947,130.8420561-122.8656756,3.0471887,11.9925182-10.5702035,14.3942854-16.2733299,20.4601042-3.6397769,9.8969374,2.9979253,11.9088815,6.923287,15.9941705,5.7937995-1.1080686,10.2217902-4.0332721,15.785694-5.4311068.0906731-1.8234582,2.3003847-.634712,0,0-.6211467,2.0604935-2.761604,2.1790112-3.5419642,4.0296,4.5386548-1.6206931,24.5145903-5.371848,23.0852389-15.0110452,16.9630169-8.3355031,28.7255366,4.7514153,37.3366291,13.9936497,6.5955785,31.3329241,27.6238936,51.6257571,14.0978885,98.3510829-5.8502025-5.7281149-3.5562434-17.6926854-2.1961463-28.9425802-9.1408521,6.4392208-5.0205789,23.6399865-2.817293,32.7979735.690401,4.5493641,2.6637912-3.1621365,6.1008031-.6975406-.7389504,11.1870662,5.5503386,19.4425063-3.5212593,26.6379118,1.2065953,4.7692643,5.9408756-1.4086465,7.2095856,2.4753053-9.5656594,34.076679-31.8562588,51.3716877-57.416803,69.2628544-15.7157258,11.0121456-34.0873892,20.2608057-48.0667601,32.8322437-20.6449176,18.5494395-32.8879335,39.4071172-51.016136,55.039309,10.6258926-28.1894463,17.0886742-55.8589371,38.2426466-83.8697973-.0763939-2.1576895-2.0983335-2.8201488-2.3632134-4.8249533-12.5778639-1.9241268-16.1198281,8.0249297-12.9476961,17.8768875-11.7482404,25.7590249-24.1033483,50.7619644-33.2020767,80.0108342,2.2518353-21.9628904,8.1998506-54.1819372,19.7945892-69.7333552,1.679952-6.6062878-7.8721421-4.6157625-9.3921667-8.7888688.0349841-14.4391618,9.4335765-16.6388779,13.9029769-25.2885241-.8503284-7.6515278-12.0481043-4.7407058-17.5563192-3.8346884-2.5031499,30.9745153-5.9265964,65.1418674-20.6863274,87.7251906,2.4745914-67.330874-32.9093524-123.9424252-32.3239038-188.1989817ZM405.4633821,593.595628c-14.9068071,5.0205788-21.7537002,19.0627779-38.4868215,17.5006297-3.1514271,2.4546004-.6554169,3.6954659-.9831253,7.404497-3.6747611-.2891545-7.1817411-.7075361-8.7017657-2.6495119,14.0843232-12.3372585,26.3416183-27.0205953,46.3868081-31.539259.9688461-3.8275488-5.5846087-1.9241268-3.6533422-6.5256101,3.8139836-6.1707712,20.058755-15.238085,16.2940348,2.1754414-5.8566281,2.8551329-13.7908849,3.9110823-10.8557882,13.633813ZM364.821824,627.3802967c-.8995918,4.4030019-5.9680062-2.2211349,0,0,.0699683-1.7956137,2.2732542-.627667,0,0ZM358.4768461,629.5656389c-.5154804-.7181509.858182,1.1053073,0,0h0ZM354.1545217,662.140237c-4.8949217,2.0569237-12.2572951-11.3784079-10.0818537-14.8925275,4.0224604-2.8972567,8.993776.9552808,11.6504277,3.0714633,1.2901289,5.2703715-4.664312,9.8825643-1.5685739,11.8210642ZM343.103108,632.0303293c-2.3075243-6.9646966,5.5639038-9.680607,9.3500429-13.8187291,1.9733902,2.0426445,6.4492164,2.1683017,5.131243,6.7105262-7.2231509-.7632251-10.0118855,4.270919-14.4812859,7.1082029ZM410.8809237,564.1554165c17.0329852-17.7234825,34.4079581-34.9976896,53.386489-50.2072161-8.7988645,21.5373693-26.4180123,46.6024234-44.392713,61.941795.4326608-6.5405074-1.101643-11.5675118-8.993776-11.7345789ZM324.1667008,683.7961239c2.6423724.540469,3.3606179-1.3907974,6.1215079-.6932568-.2513145,3.7261662-2.9422363,4.2844843-3.9396409,7.0103901-2.5445596-.6832614-3.0464747-2.9772204-2.1818671-6.3171333ZM325.5539284,673.4286858c6.3306987,1.4779008-2.6980614,8.4190366,0,0h0ZM325.2469249,664.3335274c-.0278445-3.4862751.96956-5.6481512,2.4617401-7.1960202,3.3813228,2.7266198,6.0793842,5.9822853,6.0308348,11.358417-3.4027416-.9488551-5.8987519-2.5866833-8.4925749-4.1623968ZM329.4585852,621.1923904c.9759857-21.9593206,9.6706117-42.824138,14.9553565-67.3594325,3.2770844,19.6268077-11.5740337,44.9331809-14.9553565,67.3594325ZM333.4189309,636.8067333c2.4467469-.1086166,2.3632134,1.7256455,4.2530701,2.0569237.2020512,2.9629411-7.0425186,1.2686156-4.2530701-2.0569237ZM311.511729,665.5358389c2.2868194-2.7995377,3.3748971-7.1881666,8.3876225-6.4178019.1392225,5.9644362-4.1759622,6.1286474-8.3876225,6.4178019ZM315.8626118,678.180101c-.22347,1.436491-1.959111.9202033-3.1514271,1.0980731.2441749-1.4464864,1.9662506-.9238665,3.1514271-1.0980731ZM322.4653299,639.8532079c2.4888706-5.6160229.933862,6.0692944,0,0h0ZM318.9583499,586.6166522c.8431888,1.1123524-.5440388-.6832614,0,0h0ZM315.8276277,610.3430281c-3.9881903-.0728241-4.5879181-2.6837821-3.6740471-6.5085703,3.973911.0772031,4.5943438,2.7017264,3.6740471,6.5085703ZM307.3636113,526.3240128c2.8094394,20.0173448,11.6504277,35.4152609,11.9917014,57.3468333-11.2670302-13.1011976-9.0151949-36.5798288-17.2143315-52.0271045-4.5036706.5126245-6.9725503,3.6569119-9.8798025,6.2400254,10.9678802,17.3364185,18.2538598,37.4829903,20.470711,61.4992347-7.4044972-.5297596-11.5112051-3.5877531-8.9873504-11.7382446-7.5158752-11.1028187-9.3707478-26.5429549-14.3206446-39.5849903,1.1501924-4.012465-5.3618527-2.1196557-5.3411478-5.2432382.8924522-16.5903285,10.9464614-29.4087972,23.2808644-16.4925157ZM285.6791653,576.2070903c2.4681657-5.6402976.9274363,6.0585834,0,0h0ZM95.8524462,427.432461c15.2552205-4.699296,38.8423744-9.3637079,55.3034763-7.7393451,3.5212593.334848,11.4212459.96956,12.7527846,6.1950458-50.8840531-1.8721074-85.9545677,62.9841769-135.8762004,24.1975906,25.3934772,5.1976413,42.9633616-15.0224686,67.8199395-22.6532914ZM141.6459521,627.9550358c-7.4951703-1.5578645-14.871823-.8781729-22.2413361-2.9522317-34.3594087-9.6499066-54.3910332-34.579308-73.6972725-58.0093898-17.4235223-21.094713-33.6550854-37.340198-41.6174009-61.2971835,2.5727611-20.3764675,8.2970208-36.6390876,17.0471216-48.9763461,6.0308348,6.0129856,8.526845,14.7532064,20.4428665,16.2554805-5.1176777-5.3682782-11.588313-9.7577148-15.9941709-15.6564666,5.4453862-1.0702286,16.4753811,5.0725992,21.4252778,8.858837,43.9186424,15.7150114,58.3092552-30.0299439,93.7917257-25.2606796.1877719-2.3460782-3.6262117-1.6735263-2.3710669-4.8320929,6.3171335.0385539,7.9278311,3.6918961,12.9405565,4.7200009,4.9577503-2.6038184-7.090354-3.3220639-4.9570364-8.1848572,15.7435703-.1463622,27.6310332,13.1775915,41.2127274,19.0128006-.0485494-7.9656709-22.2691806-10.426697-24.3189647-21.300334,10.9885851,1.5271641,21.8443734,10.6051874,32.5045361,16.3782819,1.157332-4.0331698-9.5585198-10.4024223-14.7183212-14.0143546,31.0751847-6.6933911,44.8110946,16.5489187,51.0861043,35.4089315,12.1801873,36.8625576,42.4400276,72.4763961,52.3962241,104.9295261-13.2889698-11.0935372-21.3767284-26.1952555-30.8310098-40.2617293-5.5010752-.784741-6.0658189,4.8527978-9.8590976,6.23003-.6968267,8.5025701,8.0185043,9.8233993,14.8996675,12.5321701,14.0214946,23.8805916,38.3197544,39.8604829,51.7836449,64.1558862,1.8334537.0799637.6411376,2.2589749,0,0-26.460136-24.1211967-55.3812981-46.2997036-74.2898608-76.1932809-9.0287601-.8367631-12.9405565,10.6116131-6.623423,15.7156289,4.0367397,1.7600121,4.1274128-1.5898963,7.6065484-.512528,17.1936266,17.0015705,33.5783345,34.6242876,52.0827949,50.6183629-14.9903407-6.2642049-30.5104409-23.6356075-43.4717023-35.9136073-3.8139836-.3141432-6.045114,1.4078364-6.7148102,5.1455221-1.1152082,6.6269927,5.8359233,7.0589395,12.5435938,7.7043609,7.2367162,9.5378146,18.7200768,15.8370989,26.8920828,24.657382-13.191871-6.2507349-37.5179754-11.4662252-48.0182107-24.451761-2.6566516-3.2913635-.4183816-10.2146503-4.3651621-12.6342666-6.0029903-3.7090311-14.871823-3.4855611-17.0679693,3.7654341,9.7334404,13.3796426,30.3019641,18.4829455,42.7748757,29.7786294-13.8187295,7.1917364-32.1768276-18.3095483-36.3392246,1.2023115,18.9085627,8.4718698,53.3729237,3.8032741,69.3463897,22.7753789-26.4108726-6.8954423-45.4943559,3.1163483-65.5816695-5.6752817-3.5348246.0135653-3.9325013,4.1516874-6.7069566,5.1419523-1.6035581,5.2083508,3.9389269,4.9641758,3.2628051,9.4856954-21.9414722,11.5668938-51.8179151-3.674761-74.2548767-8.3462125ZM247.3322803,672.1248981c-4.0374536-4.280821,5.5217801-5.4038827,4.5315152-11.4625619-6.8254742,2.6495119-11.4555161,8.2098458-18.0582343,11.1555584,2.4610261-19.3618344,31.2358261-19.4596471,49.8516644-23.5385104-6.5184707,8.4333158-12.0266855,3.5904195-19.947377,13.9379607-.2441749,2.5624086-1.6385422,3.6461088-3.5491038,4.0717237-.0763939,1.7920439-2.2725402.6239089,0,0,.2163304-2.0534476,1.1230618-3.1657063,2.071203-4.2602096.5019151.0763939.9831253.1463622,1.4779008.1884859-4.5250895-8.7817292-11.2042016,8.0913282-16.3775683,9.9075533ZM248.4053648,652.6688208c-12.1037934,3.7126009-26.6129238-4.9614141-31.3957535,9.3878827-.6696961,5.3968366,3.4927008,7.0838346,9.5799386,7.3066842-3.8768122,5.2083508-17.0265595,6.1115123-21.7051508,4.6578863-1.213021-5.0378075,4.9299058-.4740706,3.7375897-5.5289196-4.0581585-5.8466325-5.9194568-1.1438603-10.5630639.1185176-.1049524-4.7863994,4.9920205-2.7715994,4.1345524-8.5204192-4.5672132-1.9141314-4.9434711,1.6699565-6.5049054,3.6711912-.4954894-4.7522231,6.4906262-14.6454968,12.7242261-16.4096962-.1742067,5.5816587-6.5334639,3.0714633-5.8287836,9.7855593,7.3138241-2.6209535,11.0856839-9.8690929,15.6807417-16.0184452,4.1973811,1.8333594-1.5064593,4.6535083-.9902649,7.404497,8.9245217-3.897517,14.1121677-3.2106859,19.7596051-12.4457807,4.0574446.5718833,2.6002487,7.4466207.3062896,9.0851629,5.822358.0663984,5.7381105-7.5580932,8.9737851-10.8700672,6.9025821.2306096,12.1594824-1.1431472,16.1055489,3.6540561,4.7621248-4.1002822,19.8502782-2.293959,31.8912429-1.8199829-11.1763571,5.734635-30.8174445,11.8946026-45.9055979,16.5418735ZM288.6635254,621.8092534c1.6178373-2.8272884,7.7043611,1.97696,10.1725269,2.872268-2.9836461,3.8875216-7.9342568-1.7849043-10.1725269-2.872268ZM191.4355019,661.6840154c-3.451291-3.4934147.8638937-11.4940697,5.821644-9.792793-2.3917718,2.6910158-3.751155,6.6720663-5.821644,9.792793ZM93.0908422,971.2391685c4.1488317,9.0709696.9202967,26.6587027-2.1126128,38.9088579-5.5774691-10.277479.0349841-27.1155522,2.1126128-38.9088579ZM82.3749905,995.4504104c4.608623-1.6278327,3.4441514,7.1710315-.5861626,4.4308464.1884859-1.4850404.3833975-2.9600853.5861626-4.4308464ZM81.3918651,1002.8513376c8.247686,4.1695364-7.3488082,18.4594803,5.0405699,18.745065-1.4571959,3.3220639-5.4453862,3.3220639-6.8954425,6.6234229-.9410016-7.2995446-.9410016-19.2748246,1.8548726-25.3684879ZM55.5664411,1083.8309347c1.324399-3.4654871,6.0379744-2.5444764,9.4892655-3.2527265-2.1618761,2.6180976-6.1493525,7.4116366-9.4892655,3.2527265ZM61.5622918,1072.5846928c-.8924522-7.0003947,5.8430629-4.0017554,7.1260521-8.1156029,2.8587028,2.7473247-3.8489677,7.6171742-7.1260521,8.1156029ZM81.5103828,1036.0327085c-1.1159222,3.4683418-13.9029769,7.2581349-6.0037043,11.2598903-1.4222118,2.8030137-4.4758261,3.4098812-8.0106507,3.451291,1.5057453-7.293119,6.3863878-10.1861761,6.9932552-18.6609019,4.7200011-.495405,2.314664,4.4337024,7.0210997,3.9497207,2.6352328-5.2397651,6.9718364-8.2763288,11.943152-10.4866698-1.9312665,6.1779108-7.4180625,7.7115005-11.943152,10.4866698ZM101.1093465,967.760119c4.9434711,1.7884741.6625565,6.602718,1.1923161,13.7494748-6.0872378-.2306096-.411242-9.4478554-1.1923161-13.7494748ZM117.2712984,936.7577592c3.1928369,1.6177505,3.5762343,10.5766289-2.649512,8.7046213-.4676449-4.6778772,2.2097116-5.2119206,2.649512-8.7046213ZM113.0460728,957.2841587c-.0214189-3.4791355.989551-5.6267323,2.4610261-7.1953062,5.7866599-.3519831,1.9384061,10.0190248-2.4610261,7.1953062ZM108.9600698,1033.6587858c7.2788399-.3384179-8.304089,8.5753942-.1956255,1.4536261.1049524-.0871033.0699683-1.4643355.1956255-1.4536261ZM113.0182283,1059.8083478c6.7490803.8817427,25.6090936,3.2421002,30.3290947,10.0503557-9.6149227-2.8657589-30.26698-4.29868-30.3290947-10.0503557ZM125.3654826,1046.3651626c-2.4610261-6.1600617,5.2854588-13.9165419,9.7548592-16.7995193,1.903422-3.3049288,1.7220757-9.3321936,7.1110589-8.1048935-2.5095755,2.5202849-3.1999765,7.4180623-7.1110589,8.1048935-2.7337595,6.2785794-6.1779109,11.619727-9.7548592,16.7995193ZM128.2384646,1058.797378c-.5511785-.6976244.8367632,1.0980731,0,0h0ZM136.9188114,1061.4568854c-9.9911806-3.7789994,4.7971089-.9274363,6.1357872-.6968266,6.9097217,1.2058813,18.4766158,5.0719005,23.3015693,6.1214242-5.5917483,6.034488-21.3495979-2.3424249-29.4373564-5.4245976ZM136.6189475,1052.3824319c13.9936501,4.5600735,28.7819396,4.8635072,45.138803,12.0202595-7.7878946,3.189981-43.8072644-5.6267323-45.138803-12.0202595ZM147.5861138,1049.3180242c13.5124399,3.1479412,33.5019406,5.017093,49.7752705,11.1143261-12.8634486,7.0032505-35.6423979-6.49134-49.7752705-11.1143261ZM161.5033699,1046.6335281c13.8815581-4.4964469,33.4733822,8.6982797,49.7538517,11.1386009-16.7402609,3.5455339-32.3303294-6.3135635-49.7538517-11.1386009ZM172.6518825,1042.0985273c14.3070793-5.9194566,34.185202,6.9618407,54.8158404,7.2688443-14.6626322,12.7727752-36.0115161-2.0083743-54.8158404-7.2688443ZM190.1382334,1035.3558728c14.2164061-.0970988,33.8781985,6.7562198,49.9637564,9.6327715-11.6018783,8.5653988-44.6297483-4.8392325-49.9637564-9.6327715ZM202.9602723,1029.5170939c17.3892521-1.4886102,34.2337514,5.7730945,49.9773217,9.6527625-11.3577033,8.9280913-38.5011007-2.5345641-49.9773217-9.6527625ZM271.7904676,1022.0633335c.1956255,2.0569237,3.5491038,1.7120802,5.7316848,2.2696843-1.7641995,8.9944898-16.9358864,2.6944915-15.1159979,11.5597542-13.1704522,1.5692879-29.0189749-4.8770725-39.3935529-9.7470054,11.0721186-5.5567641,22.8203591,4.0752935,38.514666,5.0969727-6.8047693-5.8816167-20.9233627-6.1393568-30.3362343-10.0440135,8.2484-9.9283517,21.2375059,4.3229536,31.7098967-.3134292-3.5491038-3.5348245-20.7562957-3.580518-16.9980011-8.2726745,12.2637208-1.0873637,31.1308737,3.151427,42.9697872,5.6824213-2.9350967,4.8599374-9.4121576,5.1005425-17.0822486,3.76829ZM316.0089739,1006.8223927c-.0906731,1.809179-2.2589749.6240025,0,0,.5925882-6.5577384,5.8987519.3555529,0,0ZM256.8700952,1009.5340193c4.7478456-5.3611386,18.5044603.9974045,25.769735-1.1152082-1.1294875-3.5663239-9.2315253-1.7849043-13.136182-3.2313907,8.2484-6.8090529,19.4526015-1.0917326,30.4204818-2.0119441-2.0847683-3.7161708-11.2463253-2.0498693-16.1134025-3.6326372,3.0471887-8.7810152,19.6339478.1220875,28.7469554-.728241-1.157332-3.9810506-7.5722782-3.9496362-12.9476961-4.7307104,6.1079427-9.6534764,12.3408287,1.5021755,23.0088449-2.9665109-6.8468931,18.6086983-34.5057708,31.3329241-65.7487365,18.4166426ZM312.4527305,988.2551042c8.527559-3.9046566,16.7688194-8.1998504,28.2243354-8.3147982-6.1429268,7.0210996-13.4424716,12.5606431-28.2243354,8.3147982ZM362.1023438,966.1879753c-.2370353,1.4536261-1.9655367.9238665-3.1578528,1.1044988.2156164-1.4257816,1.959111-.9167268,3.1578528-1.1044988ZM152.1883111,1003.196895c2.8515632-2.6466561,4.8942077-6.3556872,9.8798025-6.23003-1.6528214,4.8142439-5.5781831,6.6305625-7.5023099,11.0542693,11.3155796-11.3577884,18.1346282-23.9319969,38.1940972-26.5815088-.055689,2.8379978-2.1126128,3.0536143-2.2796798,5.7238311,6.0444001-1.9555412,5.0477095-13.1112789,14.9132328-10.0747138-1.5335898,2.6009625-3.1928369,5.0934029-4.1481177,8.4925747,5.486796-2.0255094,6.3028542-7.4466207,7.5087356-11.0756882,11.0721186.9095872,16.3154537-4.5043845,24.501025-2.76089-.22347,2.0289933-1.1644716,3.1549968-2.0919079,4.2387907,4.4137115,1.1294874,3.7233105-4.420137,5.4311069-6.8326137,8.1998506-.8753171,15.6671764-2.7123406,24.4803201-2.7887345-.3212828,1.9105616-2.1690158,1.8163186-2.0640634,4.2566398,24.1033483-10.9186166,69.304266-6.4706351,94.1886884-5.6167369-12.3551079,7.6351066-29.1160737,9.4614207-42.7470312,15.4614693.6554169-2.0711172,2.7815949-2.168216,3.5626691-4.0580727-9.1965412,3.0607539-15.3323283,10.1061282-25.6719222,11.675416-.4883498-4.7207149,4.4551212-2.3046684,3.9603458-7.0247551-3.5698087,1.1395686-5.989425,3.7755153-7.1117729,8.1121188,1.8056092.0799637.6204328,2.2625447,0,0-7.091068,5.2190602-15.8135385,8.3076586-25.4698711,10.183236,3.4441514-7.0803584,10.5002353-9.4578509,14.2164061-16.2040752-13.603113,4.2566398-15.917777,23.2494495-31.8983826,24.4210607.0842475-1.6842357,2.4617401-2.0155139.3905371-2.9565155-7.0418046.0421237-5.7730946,10.9814452-14.6761975,8.5932433.7946394-4.1695364,3.527685-5.8080786,4.3223244-9.9669056-4.0645842,2.816579-7.9970854,5.7416802-9.1751223,12.330748-7.0982076-5.6130822-5.0691283,9.025275-14.3142189,5.6474374,1.9169873-7.3487233,7.837158-9.5034598,9.7470057-16.7822995-3.8482538,1.920557-7.2231509,4.4450407-11.3434241,6.0208392-.7325247,10.0397297-4.7899693,15.7392861-12.7313657,16.4088977,2.0076604-8.4118124,8.4847213-10.9849305,10.1789525-19.7523804-9.3707478,7.4808909-14.5855244,20.348623-25.9575069,25.1942812,2.9907857-11.7375307,11.7346751-15.9627561,15.5829289-26.5680286-13.2611253,3.2878788-14.0000757,23.3402077-28.0351356,29.4231616,4.8663632-13.9058324,14.5162701-21.579493,21.0140359-33.3834221-15.4158619,7.6765164-16.3011744,34.3179137-35.119064,37.5700937,2.9279571-7.2053017,7.8228788-11.8074989,10.1653872-19.7875338-9.1479918,3.744814-8.0877586,20.735675-19.4454619,21.5687841,2.481731-7.7635355,7.2088717-12.5984843,11.4412369-18.1031292.0071396-2.2104255-3.4163069-1.8235429-5.7245452-2.2554051-2.3981975,10.7722544-10.0882794,14.6383572-13.7073514,23.8069695-.8503284-8.0633996,6.6933913-20.1643368,13.7073514-23.8069695-.1527878-3.6569119,3.1235826-2.8694122,2.4617401-7.2060156-2.9008265,1.7849043-3.5626691.9167268-2.5866834-3.3534782-8.8616931,8.1048935-17.6055825,16.3775679-24.668092,26.857098,2.2104255-13.9408166,15.7085862-28.1229522,28.6212982-33.871058ZM144.1005526,1018.6991459c-.523334-.7075361.8367632,1.0916475,0,0h0ZM115.9604646,1037.5841474c.111378-1.8063232,2.2868194-.6105216,0,0-4.441556,5.7588152-4.6507468,17.0715387-14.2099805,16.210417,3.7161708-6.7489963,8.6596419-11.8946026,14.2099805-16.210417ZM123.5113239,946.6447011c-3.6747611,10.7436097,1.7499202-5.1426663,0,0h0ZM123.2185996,937.5424031c.1249433-.9803563.2577402-1.9698204.3905371-2.9707947,1.2194466.4497959,1.4571959-.3762578,1.6728124-1.26871,2.9422363-.2227561,1.2551447,7.031809-2.0633494,4.2395047ZM135.322393,902.9666649c-.5297596-.7111059.8646077,1.1087826,0,0h0ZM274.0772871,788.71485c-2.9072522,18.6444869-.801779,38.1006578-8.7496011,54.6145924-9.105868,18.9364067-34.8684634,36.4056221-54.2725155,45.5600393-12.8641626,6.0765282-27.0248797,13.6308695-40.8714537,12.6721066-1.5757136-3.4477211,15.4365667-13.4353317,22.206352-19.6725012,23.8313289-21.9137159,52.9059928-40.4809156,67.4850915-76.973641,3.060754-7.6522417,3.6811867-16.1548119,6.3028542-24.7937487,5.8152184-19.173442,15.1859662-42.934802,23.4479314-63.2034613,4.9363315,24.1833114-11.5668941,46.3968024-15.5486587,71.796614ZM269.1973586,700.6306273c-3.4655703.6804055-11.3369984-3.1021637-12.6549718,4.3579296-1.325113,4.5601662,1.0530936,6.299377,3.4584307,7.9800428,16.8444993-4.6336116,22.0114404-24.5531436,36.032221-32.9129214-2.0983335,29.8520749-26.3337648,60.561089-32.4281422,96.7296758-4.8178138,2.3567876-9.984041,4.3373175-13.2332808,8.7888688,3.9046567,1.4464864,7.837158-5.7802341,9.2943539-1.7884741,1.5828532,9.6284878-7.2231509,5.6474372-8.9873504,10.873637,1.9662506.2713055,3.9532061.5333294,5.9401617.78393-1.4707612,9.0987282-5.2083509,15.2416548-11.4619418,18.0860783-2.4474608,4.5393686,4.6571724,1.7749088,2.1890067,6.3099937-26.8085493,31.0472504-54.8715294,60.4325759-90.4932224,79.9515754-2.6073883-1.5728577-5.7381105-2.7159104-6.8119089-5.4246812-12.110933,2.0076604-23.5942936-4.3894367-35.56529-4.7100055-5.3268685-.1535018-10.8843467,3.1549968-15.4022966,2.4717355-16.8444993-2.4788751-32.3231898-22.3948373-32.7137269-37.5002143-.22347-8.5310397,4.4901054-17.1521275,4.8178138-24.9642966.6132931-13.8886973-3.7368757-26.3794577-2.482445-38.0234594,5.3968368-50.3257338,29.6672521-55.9696012,60.5753697-70.3466483,25.5398393-11.9160211,37.5665248-34.1402216,62.5623253-39.9655285,12.8705883-2.9942622,29.5901443-4.3365102,45.8356297-4.4793025,30.9295365-.2648798,46.0590997-13.8787019,61.7819651-34.0038549,4.2316512.2998639,6.5398895-1.9034219,10.7651151-1.5999882.0835335-1.7813345,2.2661146-.6104373,0,0-22.7439651,23.0431145-48.8970976,41.5896049-71.8566792,64.3500838-2.5309944-3.1021637-8.3319335-.6796916-12.0338251-.111378-.2441749,2.6251446-.9417155,4.5772086-2.2732542,5.7594367-.3134292,3.7890874,1.3943673,6.0273574,5.1455222,6.7034791,8.9523662.5197641,10.3403079-8.2969492,15.2973442-13.0447946,22.4226824-21.5652138,50.5492051-37.6714762,71.431158-61.3771472,5.4032624,5.9715758-4.552934,10.4723905-7.8650025,14.025064-13.435332,14.3763332-27.784535,28.871898-38.8630793,43.0811642ZM294.6036871,747.7149749c.5511785-5.0655584,5.076268-4.9435627,8.3669176-6.4220857-.7874998-6.0686746-4.5386548-.2334655-8.8895376-1.1816066-1.1087826-7.8400137,5.3754179-5.7238311,7.3066844-9.587078-.0414098-2.1575923-4.3573085-1.0945033-4.0438793-3.5384864,1.0952173-6.1071364,8.4854353-3.9809584,10.2632-9.1993046-2.3075243-4.9748853-8.080619,4.1131335-9.0844492.3062896-3.9953299-5.4175415,4.6157626-4.186764,5.6124532-8.300519-9.1194333-1.9519713,1.3179734-4.9013472,4.3437432-9.9769011-1.5614343-5.1840761-4.0296001,2.5938229-7.5994087.4983453,2.76089-7.3873619,8.7010517-10.6673021,12.7242261-16.3847075,3.4091673,16.3739981-6.4842005,43.8522428-6.1843366,57.9500392-3.060754,3.1865029-8.7852992,9.4265284-12.8156132,5.8360149ZM321.6635509,770.9044515c-7.1953064-.4947755-6.6726864,1.380802-15.2138107,1.0037392,1.6528214-7.1145375,8.6460767-7.2616137,12.1459171-11.9637655-4.2395048-2.9179616-10.9950108,3.5383943-14.5091305,7.1217682-6.6377023-4.2637794,5.9680062-6.6099489,7.4951703-11.078544-3.0678936-3.0993993-7.9692409,2.4574562-11.1556522,4.5772086-2.9143918-21.6631184,19.8288594-7.422346,22.7853749-24.1276224,1.0316747-5.7659549-3.8975171-9.3015854-3.9467805-15.5972077-.0692543-7.125338,4.8042485-14.0036452,4.8042485-24.9815206,3.4027416-.6482772,5.8430629-6.3207031,9.2943539-1.7884741.6761218,4.9291917-5.1598015,1.3736624-5.243335,5.3268684,4.141692,13.6866462,2.1754414,54.3346288-6.456356,71.5075501ZM432.8716592,921.3069136c-7.7186404-6.9547011-23.175912-8.8931072-33.2998894-10.426697,6.7697852-7.5965527,24.9258322-10.1868058,33.7803857-4.5707829,1.0181094,4.1001947.5718834,9.3150586-.4804963,14.9974799ZM495.92876,718.6510211c20.6170731,23.6563159,38.0891448,49.7645598,52.9823867,77.8489581-32.4145769-15.5343791-43.2139622-47.6590867-55.9524675-78.2537744.5925882-1.8163186,3.1442875-1.1087826,2.9700808.4048163ZM486.3281165,711.3193482c-1.8755775,3.841828-4.9855948-2.1961463-7.202446-2.4510306,2.4053371-4.2316511,5.5146405,1.7884741,7.202446,2.4510306ZM473.5896112,705.1384889c-.5161943-.7252924.8367632,1.0838866,0,0h0ZM467.8722055,702.8410528c8.0599141-.540469,1.1437667,4.7514153,0,0-1.8198885-.0800565-.6411376-2.2554051,0,0ZM463.4242239,702.2655996c-.5304736-.704059.8360492,1.0980731,0,0h0ZM490.6925646,723.9671801c-8.1855713,5.5324894-16.9009023-9.5942176-28.8376286-9.8448182,9.0294741,6.8190484,19.2155662,12.7699193,30.8174445,17.643422,9.2386649,19.0970481,16.1134025,40.0275499,32.0376051,54.0004041.6768357,4.9221428-5.1590875,1.373039-5.2290558,5.3261546,14.7461657-.7452855,20.5542445,10.6088477,34.1573575,15.0782481,4.2387908,13.8015042-2.3567877,30.5068704-4.9784552,49.0912939-4.7621248,33.8439274,13.0033851,78.0410138-23.6221381,87.324658-11.6782722,2.9285844-18.1553331-4.360965-27.7773954-6.7041006-21.8579386-5.3332941-50.6327386,4.9748853-59.2366915-7.8507231.3070035-4.7478454-2.0562098-14.342063,2.3496481-17.7655095-1.1152082-4.9328492-9.1544174-4.5386547-7.5230148-11.5526146,5.7802342-1.1537621,13.1640265-.2128484,17.0893882-3.7826571-19.9687959.3070035-30.6782219,4.8036224-50.6605831,6.8605461,2.8587028-4.3715876,9.5306752-3.7476729,14.3206446-5.6295882-3.0186302-3.2806541-11.1620778,1.5650041-16.6845719.78393-5.1455222,3.3713272,3.1378618,6.1429266-1.1780369,8.8688325-8.0877586-1.6349723-12.8427438-10.0468693-17.4863509-15.8620875-16.1134025-20.069464-30.5175806-38.4104266-41.6318229-61.2893299-17.4727856-45.1280924,12.3058445-111.5429536-3.0750332-158.6965554,8.9459406,22.8724777,26.7671395,38.9301907,28.7748,67.1358706.9902649,2.7895403,2.705201,5.0306662,5.1383826,6.7213275,17.577738.6554169,10.2703396-19.2434103,0-22.6283951-9.9911806-22.5311117-23.7613606-42.165059-31.946932-66.0449367,18.1139233,14.1399183,27.8195191,48.5758136,40.8371835,67.2301132,16.3982732-14.1013657-17.2357503-30.6531403-17.6191478-49.0777299,36.7925903,27.7110898,107.3034516,16.067802,131.964404,50.6642451ZM434.8657544,678.8804974c-16.8452133,24.5738485-54.0497595-5.2983099-66.2720705-11.7967895-2.6773565-4.1452617-4.9013473-8.6632115-7.3209637-13.0205199,24.4938854,1.4950358,36.0750587,31.6577767,57.2847201,22.6561473-5.3340081-17.3328487-36.499866-10.0747138-44.6504532-27.0213092,20.1494282,6.0136996,39.1558036.279159,46.4210783,13.6973556,5.1669411-.6796916.6275724-3.301359,3.7582946-5.5360592,7.4323417,4.0617282,7.5158752,13.7494748,10.7793943,21.0211749ZM645.9235537,587.7739842c-3.2142557,6.3934317-6.5056194,16.2175452-12.7242261,16.3989868,2.426042-17.0822481,10.0468696-27.4325512,19.7103417-35.064088,1.7706251,2.6152418-3.3327734,11.414106-6.9861156,18.6651013ZM623.7029225,459.7035307c-8.5339847,13.6972571-32.4424214,2.1997161-31.0202096-16.1476722,10.0961329,4.6857308,18.7629145,17.5384697,31.0202096,16.1476722ZM581.0394249,440.4951046c-3.4441514,8.2548254,8.7638803,4.699296,10.4723908,11.9366269-3.1935509,7.7844237-12.3408287.9689451-15.7992593,5.4419153,2.370353,7.502211,10.1239775-1.1851765,16.4896603.6796916-2.4124767,4.382297-7.258135,5.5881784-8.9737851,10.8629276,5.4104021,1.8577284,3.974625-5.22263,8.1855713-4.9299057,13.5959734,15.1788262,41.3248194-.9759857,53.2265616-3.4855611,10.3395939-2.1933893,26.7735468,8.1227425,31.0059119,16.1441024,5.6681421,10.7129956-2.2732357,68.8723174-5.3761318,74.6768262-4.887068,9.1750257-21.2374875,11.619013-29.9942283,21.6451775-11.4833606,13.1847311-9.9918945,28.8654724-13.7009258,46.4075118-37.6015089,33.8924768-96.5383365,40.9307115-162.7889881,34.2130456-32.3717392-3.2977892-66.7454271-7.6765164-96.287022-12.7734891-5.0826936,4.3580223-10.8700675,3.3399129-16.5032256-.6796916,15.8478087-6.4806305,44.4412624-11.1692172,67.5400665-9.1508474,10.8279437.9588506,19.3555027,7.0210052,24.2918342-1.286559,2.0076604-6.4214665-4.1274128-6.6098576-6.2400256-9.8690929-14.4470158,3.7018915-28.7612347,7.6065482-46.1983222,7.4216321,14.8296993-5.3996925,30.9081176-16.8030891,47.7740358-19.2819642,8.6317974-1.2580006,15.8478087,2.3218035,20.4357268-6.323559.411242-6.0900935-5.0205789-7.6972213-9.1894015-10.2631997-13.4082015,16.6674364-37.6293534,19.2048563-60.421868,23.6428424,71.7024634-51.8907378,92.8500101-161.4360265,192.0514239-175.0284298ZM616.939563,249.2768789c6.8397535,5.0405697-3.8346885,15.3458932-4.441556,22.0250051-2.8794077-3.1057335,1.2829892-11.6225828-.9966906-15.1923915,4.1274128.7667949,4.7549852-3.0643237,5.4382466-6.8326137ZM607.8829583,294.8090736c-.5440388-.6868312.8360492,1.0909335,0,0h0ZM613.5789451,251.8528528c-4.6571724-14.1849915-3.0329095-33.1670917-2.2168512-51.5352904,4.6014834,14.9940155,10.9043376,34.010386,2.2168512,51.5352904ZM540.9768898,367.3454426c2.4960102-5.6267323.9410016,6.0729584,0,0h0ZM530.8322075,387.1014773c.2370353-1.436491,1.959111-.9103012,3.1578528-1.0773682-.2298957,1.4257816-1.9798159.9060174-3.1578528,1.0773682ZM534.387737,383.0468887c-3.3120685,1.9976649.8646077-13.0312293.8646077-17.9532814,3.3049289-2.0219396-.8717473,13.0205199-.8646077,17.9532814ZM542.6011528,423.3364626c-1.8270281-18.1389115,17.4235223-32.7037306,17.0401248-48.9877695-10.374578,10.2182201-12.8912932,30.6503767-23.4543571,40.6137125,4.1902414-18.8457336,15.7992593-28.0387047,18.5323048-48.829984-8.2626792,14.1500073-15.1509821,30.074823-22.5904634,45.2708848,6.7912041-27.6274627,20.6870414-61.0252658,37.8663887-80.9168516-1.4222118,6.1008029,7.2724143,40.9200021-6.7912041,39.8119335-.4041023,20.1772722-14.2442506,35.1118232-20.6027939,53.0380743ZM566.8644285,376.8104331c1.4993197,12.7520703,6.3171335-1.9069918,8.583248-7.9135517-1.0809381,15.9940697-13.0312297,32.8043992-21.105423,45.452131-1.4779008-12.9512659,11.0792583-22.5939326,12.5221749-37.5385793ZM576.3751128,418.7621098c.8296235,1.1123524-.5368992-.689687,0,0h0ZM565.2123211,423.3121879c.578309,8.0913282-4.7342803,1.1573319,0,0,7.5787039-16.1655213,15.8970721-31.3793316,22.9667212-48.1895603.5440388,19.8224332-12.1809012,37.358047-22.9667212,48.1895603ZM591.8395241,359.0169777c-1.7499202,2.3497495-5.3133033,2.3426098-6.7140962,5.1456236-4.7278546,29.1646223-18.679381,46.3024593-31.2708102,65.1839911-.0071396-16.8487826,29.2274517-42.2172705,23.865599-66.1635466,6.8333278-7.8786691,11.532624-18.5323044,15.9670403-29.5451639,4.7407059,5.8808008-2.0219396,14.4291664-1.847733,25.3790958ZM581.5484796,322.9770054c10.5352194.4426563,13.6309575-8.8159993,17.3678333-17.2807295,1.26871,11.5325212-9.1822619,22.7753789-13.4289063,32.881507-3.6811867-3.3714293-5.3611387-8.3112284-3.9389269-15.6007776ZM590.3194996,313.5926926c-.5019151-.0663984-.9902649-.1327969-1.49218-.1920557-.3905371,2.9357081-4.2951938,1.3315386-3.7368757,5.5289196-3.2492399-1.0766543.3626926-7.3937876-.1049524-10.5594938,3.6883263-5.2290556-1.9519714,7.4950676,3.8418281,5.0305743-4.1481177-39.1315279,6.5891529-79.884463,17.0051407-116.8376937,2.3432224,35.5481541,10.8143785,89.1681072-15.5129607,117.0297494ZM599.8922986,320.8993768c4.5250895-19.0199402,17.3192839-27.212651,20.0173453-48.6144711.3205688,18.4038949-3.7789995,46.0349274-20.0173453,48.6144711ZM626.7008479,380.2338796c.8367632,1.0837939-.5576041-.7111059,0,0h0ZM595.6392285,421.3180928c2.4753053-5.6231625.9202967,6.0722444,0,0h0ZM599.3761042,393.1808614c2.4681657-5.6260184.913871,6.0729584,0,0h0ZM605.9095681,434.7462848c4.1552573-5.3268684,9.6213484.6204327,16.5032256.6625565-4.0438793,7.2160111-11.7061167,4.1238429-16.5032256-.6625565ZM640.4638883,424.2567592c-3.0114906,4.1902413-5.7866599,8.6489323-11.7482404,9.0009154-1.9169873-2.5446592-6.3306987-3.133578-4.9291918-8.2098458,5.5639038-.2541704,11.4626557-.0871033,16.6774323-.7910696.0906731-1.8163186,2.2803938-.6204327,0,0ZM627.3212806,421.0039496c1.5550087-4.9013472,9.0637443-2.070489,13.9308214-2.6844961-2.4124767,3.8318326-8.5204194,2.7823088-13.9308214,2.6844961ZM647.3807496,417.639762c-10.3538731-10.5594938-27.7495509-.9238665-45.9263028-6.0936633,3.2628051-12.8955766,15.0460297-30.0156647,26.8499591-20.554244-1.5550087,4.3437431-7.2931192,3.2313907-9.9005074,6.2363552-3.3120685,7.4224465,9.8169739,2.2248052,7.9342568,8.5762087-6.5955785.3105733-9.4892655-.9831253-16.6988511.7946394,11.4833606,7.5480033,33.718271.3698322,49.4753885,2.0469283-3.3670255,3.7018915-7.2931011,6.6933911-11.7339431,8.9937758ZM747.8651323,342.0047992c-3.4305861,12.944126-7.9556755,24.4096373-18.7486348,27.6695865,1.5550086,5.1976413,4.0024694-2.6081022,7.5787037-.4954894-17.3742585,29.50661-61.0351596,34.1366517-98.0297825,23.1866208,29.1581791-25.2749589,51.8386011-67.5758652,109.1997137-50.3607179ZM647.1365747,373.8745214c.0835335-1.8126477,2.2796798-.6131921,0,0-3.8975171,5.3305393-11.6368624,5.6789526-16.3711427,9.9113177-1.1294875-5.0064005,7.9135519-11.6368621,16.3711427-9.9113177ZM855.2521147,179.8955068c-.0699682,1.7956137-2.2725402.616757,0,0,2.9422363-8.9173819,9.4407158-13.1811613,14.6212221-19.1877212-.5440388,5.166227-8.1370217,16.0084497-14.6212221,19.1877212ZM840.2410696,179.3971615c.2156164-2.0433584,1.1430527-3.1692761,2.0847682-4.2396108,2.2518353.6833674.5854486,3.3785729-.5997278,4.4309525-.4812102-.055689-1.0038302-.1186236-1.4850404-.1913417.6204554,6.3413022-4.4694004-.2755892,0,0ZM830.5840233,184.1485768c.4676673-1.1017488.4119559-2.9108219,1.8620122-2.7644598.0764163-1.7884741,2.2725402-.6382818,0,0-.4812102,1.1123524-.4255212,2.9215314-1.8620122,2.7644598.5925882,6.3342684-4.4829656-.2820149,0,0ZM833.1293193,164.8944571c5.5010526-6.7490801,14.7946923-8.478402,22.6946788-12.0688089.0906731-1.8127488,2.2939821-.6240025,0,0-6.2614443,5.7245451-13.7494748,9.8205435-22.6946788,12.0688089ZM851.870815,159.8430715c2.705178,1.9699269-2.1476198,8.663318-4.3159215,9.9811851-.4883498,1.0946095-.4462033,2.9109281-1.8755774,2.7681358-.0699455,1.809179-2.2796798.6240025,0,0,.4812102-1.119492.4255212-2.928671,1.8755774-2.7681358.1813463-4.9783489.9759857-9.1514551,4.3159215-9.9811851ZM836.1757715,175.8344925c.5162169-1.080938.4605053-2.9045024,1.8898567-2.7402912.2370353-2.6008564.9624204-4.5742466,2.2661145-5.7522835,3.4370117.8888823-.8646076,5.5117845-2.2661145,5.7522835-.4883273,1.0910396-.4326608,2.9073583-1.8898567,2.7402912-.0628286,1.8263141-2.2589749.6411376,0,0ZM866.3870617,152.7242656c-1.9662506,13.6515558-15.3951566,27.3661527-25.83968,35.7823335,5.1804836-9.5035445,16.8316249-25.5255594,25.83968-35.7823335ZM875.8620477,149.4578907c2.9700808,7.7536243-6.3585431,10.5038048,0,0h0ZM848.1124975,142.7680694c13.6795066-19.2362706,40.118937-21.7815442,57.5353192-36.0850533-16.356863,4.6885866-28.7191102,14.6105126-44.7896746,19.6725012,11.4969256-25.515564,39.4835352-29.524459,57.4303668-46.6588264-15.7364303,4.9713155-25.6233722,17.5356138-40.752935,23.2530193,6.5327497-12.8848672,16.9987146-20.6384915,27.8123788-27.9730202-4.1416919.3832888-7.3281031,2.0219396-9.6841768,4.7414198,11.8246583-21.0811477,30.0920586-48.7607297,45.5778883-70.8314283,4.5386547,9.5171097,7.9478219,34.6871162-2.7473247,43.3531836,8.1227425-3.6290674,1.1430527,12.0095501-3.6326122,16.1062625,1.9033969.1706369,2.3146389-1.6385421,4.6364424-.913871-5.5567641,18.2295846-9.7398658,38.256817-22.7646695,46.7352203,1.4786393.2027651,2.9636797.4048163,4.4279906.5933022-2.9079661,7.1917364-10.8629276,7.8050295-15.2837786,13.0519342,2.7751692.7039663,3.4934147-1.2480051,6.1222218-.7011104-9.2593453,16.3083136-31.8776532,15.1509817-48.1717112,22.2456193,12.5078954-9.1651266,28.6841261-13.5195791,42.0494895-21.5445089-24.50745,5.0584188-40.5573095,21.1781398-65.2461058,26.0239047,19.5218553-15.0674482,46.6930965-20.1465718,66.4105774-34.9035541-21.076864,6.0487912-36.4091919,19.6376246-58.9296865,23.8350056ZM837.2845766,156.3883172c-1.9662731-.7147823-.7596778-3.8589631-.7111284-6.1286474,3.3748971.8717473,2.872268,4.4272766.7111284,6.1286474ZM838.2255556,126.3725451c-2.0005207-2.475198-2.3282292-6.1877989-1.5821392-10.7685773,3.3256563,1.6214071,5.0477094,7.9555681,1.5821392,10.7685773ZM830.0821082,176.5491682c.5718833-6.5613082,5.8844725.3655484,0,0,.5925882,6.3514035-4.4901053-.2862986,0,0ZM833.6733357,115.2133232c-.22347,1.447308-1.9319804.913871-3.152141,1.0953249.2370353-1.4264955,1.9662506-.9103012,3.152141-1.0953249ZM823.7585493,178.7210398c-.5090547-5.2990239,2.9422363-5.4175415,2.8372839-10.1760964.5161943.0692543,1.0045441.1285131,1.4993196.2020512.0906731-1.8127488,2.2796798-.6275724,0,0,.2163304,4.9220521-1.9241268,6.7490801-2.872268,10.1796662-.4812102-.0663984-.96956-.1327969-1.4643355-.205621.6132931,6.3371242-4.4829656-.2721254,0,0ZM819.1706313,122.3430525c4.4415781-5.2890284,1.5057453,5.1905017,0,0h0ZM811.2920637,136.3674026c-.2441749,1.4329212-1.980508.896022-3.1792715,1.0916475.2298957-1.4329212,1.9662506-.9103012,3.1792715-1.0916475ZM797.8845765,146.6520212c-.1185176,3.9282174-1.4157861,6.2885748-5.2504745,5.3404337.1049524-3.936071,1.3872276-6.2892888,5.2504745-5.3404337ZM793.7214657,155.1403121c9.9012211,5.3232986-4.7335662,22.5169247-1.5407294,34.4743556-11.4690811-3.6918961-.3691182-27.2090812,1.5407294-34.4743556ZM792.8504324,195.7190404c3.8204092-20.5085504,3.4862751-39.2193452,15.7849797-50.6534422,5.445408,2.4753053.090695,13.2190013.3905589,19.6439428,5.7523677-12.7592099,1.757038-38.2740599,17.1657598-38.4168523,2.0569237,33.7282656-26.9620504,44.2463497-25.3442132,65.9822003,13.3239536-3.46914,15.6457571-21.3039038,22.5062153-33.198506-1.3108337,15.1159975-11.0992489,34.150217-20.9097969,43.9600511-3.6669074-.7182455.2370353-5.0719841.801779-5.9365917-7.9763803.055689-10.9186166,6.6127135-18.9785305,6.5256101-1.3943672-6.9825456,1.380802-8.4047574,8.5832478-7.9064121ZM804.4173263,188.2203005c-5.1598014-4.3258941,3.9396408-9.5449542,6.4078283-14.2271152,3.0535924,4.6964402-3.9253834,11.0371342-6.4078283,14.2271152ZM826.0525083,218.2288255c-.5997278,11.3719823-11.8110687,8.8795419-14.4048917,17.6712665-19.4733059,4.1280222-28.3142939,22.1163922-48.5622483,25.2121302,6.937566-6.5713037,16.4968206-9.7227307,23.2880034-16.493334-5.3061424-4.0053254-13.9450794,2.5832178-18.7557744,5.041388-1.2480051-3.9217917-1.324399-8.7360356-4.5457943-11.1386213-5.8151977-1.2578961-7.9064121,2.4197207-13.7144907,1.1888507,13.7559005-22.5897488,47.244275-19.4004818,76.6951959-21.4816802ZM825.3621073,212.1001781c.8367631,1.0845079-.5440388-.7075361,0,0h0ZM823.5072348,237.4792709c-2.4538864,2.5767924-2.0219396,8.9738894-8.3947619,6.425046,1.2273002-4.2038066,4.0160568-6.3378382,8.3947619-6.425046ZM762.1864905,256.4893202c4.4551211-5.2883145,1.5264502,5.1876459,0,0h0ZM759.2435403,278.6962821c-.5297596-.7045768.8646076,1.1053162,0,0h0ZM758.7837489,168.5934928c-.5511784-.7040725.8367631,1.0945033,0,0h0ZM756.6225868,207.5129741c2.2725402.3098594,1.8127488,11.3991128-2.6430658,8.691056-.4805167-4.6893006,2.2175447-5.1984605,2.6430658-8.691056ZM765.9997601,193.6763959c5.445386-2.9215314-4.2316511,4.5036705,0,0h0ZM767.5690479,181.8303431c5.4589722-2.928671-4.2252255,4.4935693,0,0h0ZM762.9532854,205.3339629c4.531515,7.98352-5.74525,8.2691046,0,0h0ZM775.3983731,202.4474157c.3276874,7.404497-3.7576015,9.0008102-8.7917456,9.3914525.2091908-6.6548372,2.2796798-10.9079072,8.7917456-9.3914525ZM777.7551398,184.685476c3.6048139,3.7303442-1.6870915,10.4409762-7.1117518,8.094898-.9338828-6.9861154,5.822337-3.9810506,7.1117518-8.094898ZM816.2769444,212.4071817c-.857468-5.1805062,4.9227661-1.6871967,7.7950341-1.9833857-.6482772,3.2178255-4.1552572,2.6808211-7.7950341,1.9833857ZM785.1246527,163.0538638c6.3521388,1.4750449-2.6980613,8.3839463,0,0h0ZM783.2562148,188.4330611c-3.1300082,3.5976531.1049524-8.8195691.0978128-12.0409644,3.1585667-3.6155022-.0485494,8.8131435-.0978128,12.0409644ZM778.7454047,199.8850071c5.5153543-.6975406,1.7777647,6.7419405.4812102,7.610118-3.2285139-.1777765.0557101-5.3511431-.4812102-7.610118ZM775.1684565,181.3212884c-4.5107893-3.2528096,2.5309943-5.7588152,3.9674853-7.0068203,4.5036705,3.2592353-2.5516992,5.7694187-3.9674853,7.0068203ZM776.7306047,169.4788053c.1185176-3.9289313,1.380088-6.2957145,5.2497605-5.3440035-.0906731,3.9253615-1.4015069,6.3064239-5.2497605,5.3440035ZM779.4079612,160.7813236c-4.3230382-1.5585784,1.8334537-2.9772204.7803602-5.913031,4.7835435,1.9805298.8439028,3.46914-.7803602,5.913031ZM771.6964606,150.7201751c-.5997278-8.3355031,7.3559476-20.498555,10.0397297-30.3226682,5.1733666,7.6907957-3.5762343,26.3380479-10.0397297,30.3226682ZM754.8026984,153.0141341c9.8448182-9.7755639,15.0810134-25.5255594,23.0988035-37.6643366,4.0581796,11.9431517-13.9722309,27.8436863-7.8857072,36.6533668-4.475826,7.4701815-10.5209399,12.9018959-19.9402369,13.9442801.3277084-5.9615805,4.4065717-6.996825,4.7271406-12.9333103-2.349648-.1777765-1.6456818,3.6147882-4.8178137,2.3632133-2.0497841-11.6747021,11.5461889-17.1272277,14.2927997-28.2586049,5.5153543,7.1538964-9.0987077,15.1474119-9.474986,25.8953916ZM739.9373014,208.3040437c1.4643355-4.4793958,1.0952173-11.3162933,6.0172896-11.2534646-1.1152285,4.9156264.2584339,13.0976278-6.0172896,11.2534646ZM712.2648591,189.5661183c.5090547.0663984.9966906.1320829,1.4850404.1949115.083553-1.8164244,2.2796798-.6169687,0,0-.1956255,2.0603879-1.1223478,3.1621365-2.0640633,4.2430745-2.2589749-.683367-.5925882-3.3750027.579023-4.4379861ZM707.3492326,203.9810054c-.5368992-.6968266.8367824,1.1159222,0,0h0ZM704.190666,205.089788c-.5997278-6.3514035,4.4829656.279159,0,0,.5997278,6.3378382-4.4622608-.2962941,0,0ZM689.5701579,211.002105c.0621147-.1393277.0906731-.26131.1249433-.4148118.1049524-.3591227.2306096-.8153443.3698322-1.342248.0349841-.0315195.0207049-.0414098.0421237-.0835335.111378-.4148118.2299145-.7946394.2784451-1.0423841.055689-.1913417.0771079-.2820149.0771079-.2820149,0,0-.0214189.0906731-.0771079.2820149-.0485306.2127606-.1463622.5333294-.2784451,1.0423841-.1327969.4533657-.279159.9444662-.4119559,1.4257816-.0342702.1535018-.0628286.275484-.1249433.4148118-.4462261,1.5935626-.2862986,1.0845079,0,0ZM682.1649469,200.6418065c-.5297596-.6868312.8439028,1.118778,0,0h0ZM674.2449695,169.4509608c1.6663867-5.8423488-2.4124767,8.5932433,0,0h0ZM669.1130127,185.3615977c.2020512,2.0776286,3.5491037,1.7085104,5.7452684,2.2839635-.3277269,8.2655348-2.7052194,13.8258687-4.2459488,20.5327199-7.2095855-26.7142005-4.065298-56.0602757-6.9654105-83.8447034,12.0202595,16.5453489,7.8300182,42.4957156,5.4660909,61.0280199ZM651.5153021,136.2910087c13.8122856,24.4653263,11.099945,61.5791984,12.9962273,95.1925162-11.4133742-27.5546386-15.3879992-60.4461411-12.9962273-95.1925162ZM665.898757,243.7301103c2.4960102-5.633158.9481412,6.080098,0,0h0ZM670.1382617,223.162301c1.1223478-4.9020612-.2720194-13.0840625,6.023695-11.2398994-2.2446956,3.4341559-.857468,11.6404319-6.023695,11.2398994ZM675.8620928,202.8307077c2.4895845-5.6366224.9202967,6.0730638,0,0h0ZM679.9902195,194.3318128c-.9902649-.1257629-1.9662506-.2584541-2.9565155-.3905371.1392225-.9831253.2648798-1.9733902.3976767-2.9665109.9831253.1285131,1.9662506.2612043,2.9629411.3897174-.1392225.9903706-.2720194,1.9806355-.4041023,2.9673306ZM672.8291834,259.7035759c5.4525257-2.9036823-4.2387907,4.5079543,0,0h0ZM676.5874779,254.1782261c-2.3425084,4.569965-1.1501923-4.2080904-.7182455-6.1251818,2.3639273-4.5671089,1.1716112,4.2146203.7182455,6.1251818ZM685.7283298,196.6043529c.6061535-1.809179,3.1236013-1.1016429,2.9558015.4048163-.9481412,2.0319351-1.2894149-.3419877-2.9558015-.4048163ZM693.8925011,169.0568539c-3.6740659,10.7271689,1.7570409-5.1383825,0,0h0ZM680.3386328,271.2604742c-.6696961-4.3473129,2.5866833-3.5526735,2.4538864-7.2095855,4.5250894.8788869,2.0783426,8.3839489-2.4538864,7.2095855ZM732.8119634,171.1908855c-5.4382464,29.8307486-28.6420023,56.1473776-42.9076715,84.7442963.5925882-39.1771175,30.0999122-55.7153267,42.9076715-84.7442963ZM718.0722237,282.3111737c-.4804962,1.0880777-.4248072,2.8865472-1.8684183,2.7301896-.0971183,1.8263141-2.2939785.6411376,0,0,.4676254-1.0845079.4112225-2.9043963,1.8684183-2.7301896.0906731-1.8263141,2.2454096-.6411376,0,0ZM708.3737677,241.8266883c5.4111159,4.0959984,6.8961563-11.7868987,13.6245315-11.7832242-8.039209,13.254595-15.7649888,26.9477712-28.6355767,33.9031863,11.8182084-27.45397,25.4070418-52.5747132,40.230315-76.0711934,3.2556654,19.3933422-17.4863505,37.3294886-25.2192699,53.9512314ZM740.8090487,167.725209c-3.6811866-.721709.2091908-5.0790174.7810741-5.9193504,3.6462025.6975406-.2441749,5.0755539-.7810741,5.9193504ZM734.5483183,237.7378296c-.5511784-.7083545.8153443,1.1044988,0,0h0ZM718.7840435,185.9020668c-1.771339-6.1286474,7.2017319-13.111193,13.316814-20.8433985,6.6655466-8.3911921,13.4631762-20.4914153,19.6546522-23.0052746-.6132931-6.3656827,4.4551211.2755892,0,0-9.5585195,15.3458932-23.057374,34.784929-32.9714662,43.848673ZM738.1666763,221.6422765c.1949115-3.24567,5.3547129.0278445,7.6065482-.4954894-.1813463,3.2249651-5.3404337-.03784-7.6065482.4954894ZM742.9080961,231.3300231c.111378-1.827028,2.3003847-.634712,0,0-1.1787508,5.7695247-6.4842003-1.1366271,0,0ZM737.2185352,274.2898138c4.4551211-5.2990239,1.5200245,5.1976413,0,0h0ZM738.4943848,253.3486026c.1606414-3.2628051,1.8405933-4.5565037,5.0341441-3.8661027-1.7499202,1.1780368-1.1716112,5.4174375-5.0341441,3.8661027ZM758.1840211,173.0593233c-1.0038302,2.7437549-1.3943672,6.3064239-5.2361953,5.316159.0978128-3.9182219,1.380802-6.2885748,5.2361953-5.316159ZM748.5690986,245.637102c-.9481412,2.0676331-1.2829892-.3098594-2.9700808-.3833974.6068675-1.8370235,3.1378618-1.1223478,2.9700808.3833974ZM745.9267263,276.9321861c.8367631,1.1016429-.5575839-.7003964,0,0h0ZM748.9596357,265.278189c-.8367631,1.7884741-2.293959,2.7780251-4.8249533,2.3739227.8510424-1.7677692,2.3153779-2.7680296,4.8249533-2.3739227.0978128-1.7956137,2.2732541-.6104373,0,0ZM751.8183384,255.112802c-3.0329094-4.6685957,4.5458148-10.2110805,10.277479-9.1965409-1.3529575,5.7659549-6.937566,6.0272648-10.277479,9.1965409ZM771.9820453,284.9228457c-5.5917482,3.1021637-12.3893777,4.6500327-21.52309,3.1578527,4.8385186-4.0959984,13.2961091-3.4891309,21.52309-3.1578527,1.4086465-2.7995473,4.4972449-3.4234465,8.0256437-3.4798494-.0699682,4.5843482-5.2647537,2.4509273-8.0256437,3.4798494ZM799.3417724,271.9608707c-.2091908.8924522-.4605053,1.7120802-1.6735263,1.2901288-.4883498,1.0945033-1.4643355,1.547869-3.1728459,1.0773682-.2020512.9024476-.4462261,1.7256455-1.6663867,1.2858451-.1042384,1.8027533-2.2796798.6382818,0,0,.2163304-.8888823.4605053-1.7285013,1.6663867-1.2858451.4812102-1.080938,1.4643355-1.5550086,3.1728459-1.0773682.1949115-.9067314.4597913-1.7185059,1.6735263-1.2901288,5.7238311-4.6678817,10.3817174-10.7579752,18.2531453-12.6442621-4.2809145,6.5891527-9.9076468,11.3755521-18.2531453,12.6442621ZM817.9854548,256.342958c3.897517-5.3198329,8.3105144-9.9911803,11.246325-16.5903285,6.5606168,5.6717119-4.9855947,16.2140707-11.246325,16.5903285ZM831.9855302,219.0063299c1.0737984.9417155,2.2032859,1.8513027,4.2395047,2.0497841-2.5516992,5.3825574-3.8004182,12.4178316-10.6537368,12.1701915,3.8768121-3.2142557,8.1156029-8.6596417,6.4142321-14.2199756ZM828.3250484,212.4871454c.1813463-3.2421002,5.3197288.0142792,7.6001225-.5019151-.1535018,3.263519-5.334008-.0171351-7.6001225.5019151ZM834.2659239,235.8793872c.1249433-.9724159.2577402-1.9662506.3833974-2.9458061,1.2201606.4355166,1.4850404-.4005325,1.6870915-1.2929847,2.9493759-.1956255,1.2758496,7.0309905-2.070489,4.2387907ZM887.3596873,199.2260204c-7.516589,7.8193088-18.8878573.5019151-30.5946876,3.4584306,4.4344162.5889131,8.8895374,1.1815013,13.3239536,1.7740895-11.2391854,9.0815933-32.8743674,4.5773139-53.0309127,2.0363242,7.9899236-8.1398776,28.628415.2820149,39.706959-3.8104137-6.7769247-1.5128849-15.8199638-2.4231861-25.1835718-3.3434827,17.7862144-4.5072403,33.7454007-.9267223,55.7782594-.1149478.0906731-1.8198884,2.2939829-.6447074,0,0ZM844.4034664,193.5228942c9.6841768-8.6317972,40.752935-1.6770961,57.2632998.055689-14.5933776,6.3763921-30.8245833.8995918-57.2632998-.055689ZM892.2753137,184.796854c3.0814588,1.3943672,14.007215,3.2385304,20.944781,1.2622843-6.080098,9.8412484-34.4714998.8538982-54.3003587.3377039,6.9439917-5.3996925,24.2497098,2.7023451,31.8769629-1.7813345-3.0464747-3.879668-13.2125756-2.3112-19.062064-4.0503048,12.3058442-8.3319333,41.0042495.7139617,59.3623473-4.1909553-1.8548725,10.3503031-25.3235083,7.4673256-38.8216686,8.4226064ZM890.8945118,172.5574082c12.9334166-5.706696,34.7571093.1777765,51.3581224-.7496598-11.5740335,6.4769547-37.358047,3.2242511-51.3581224.7496598ZM906.7073359,167.1084524c1.3179733-5.2290556,9.0223343-2.1054731,10.0333041-7.7115005,9.2943537,6.0836678,28.1750714,1.49218,40.6208521.8646076-.3141432,15.2866344-31.3057935,8.0527742-50.6541561,6.8468929ZM924.368607,158.8950368c11.0999879-6.323559,28.5791737-4.3995387,44.3398787-4.6785912-12.1701915,8.7710197-26.2330955,4.3715876-44.3398787,4.6785912ZM957.0402093,151.1664011c9.1444217-3.7026055,17.4970599-8.4404555,28.4299557-9.809834-4.2252255,10.1161236-14.1121674,12.8777276-28.4299557,9.809834Z"/>
  <path d="M690.0649333,209.2450452c-.1392225.5269037-.2648798.9831253-.3698322,1.342248.1327969-.4813154.279159-.9724159.4119559-1.4257816-.0214189.0421237-.0071396.052014-.0421237.0835335Z"/>
  <path d="M942.0363038,25.5641134c-5.4318208-1.1644716-16.7266952,11.4347013-8.9802105,10.872923.9966906-6.2193205,6.3514035-6.7804945,8.9802105-10.872923Z"/>
  <path d="M933.0560932,36.4370364c-.2719944,1.9876694-.5297596,3.9567759-.7882137,5.9373057,3.7861641.3484133,4.5393686-5.2954541.7882137-5.9373057Z"/>
  <path d="M932.2678795,42.3743421c-.4812102-.0663984-.9688211-.1363667-1.49218-.2020512-.9338619,1.0980731-1.8405933,2.1961463-2.0426445,4.2495002,1.9034219-.411242,3.2842239-1.4957498,3.5348245-4.047449Z"/>
  <path d="M913.6241971,57.9779755c8.4711558.6204327,9.9426557-7.8749978,15.1088579-11.5561844-6.323559,2.1754414-10.3952827,7.2859794-15.1088579,11.5561844Z"/>
  <path d="M934.9595152,56.2873141c4.475826.2998639-.6140071-6.3549733,0,0h0Z"/>
  <path d="M933.2788493,57.577443c1.2065953.428377,1.4714751-.3869673,1.6806659-1.2901288-1.2273002-.4426563-1.4714751.4048163-1.6806659,1.2901288Z"/>
  <path d="M925.0654337,62.5209139c4.3787272.4633612,5.9822853-2.6637912,8.2134156-4.943471-4.3572835-.4740706-5.9544407,2.6559376-8.2134156,4.943471Z"/>
  <path d="M923.4133262,63.8138986c1.2201606.4219514,1.4643355-.4076721,1.6521074-1.2929847-1.198717-.4398004-1.4429166.3869673-1.6521074,1.2929847Z"/>
  <path d="M923.4133262,63.8138986c-2.2868194.6168629-.0906731,1.7991835,0,0h0Z"/>
  <path d="M920.0527084,66.3655978c-3.6954659-.7389504-4.9291917,1.6735263-6.5263241,3.6711912,3.6811866.728241,4.9506106-1.6556772,6.5263241-3.6711912Z"/>
  <path d="M931.5153638,70.9119973c1.3943672-.4811015,2.816579-.9487464,3.3463636-2.5658697-2.4474858-.8825655-2.9565405.7703647-3.3463636,2.5658697Z"/>
  <path d="M929.834698,72.1979511c1.2058813.4326608,1.4779008-.3935016,1.6806659-1.2859538-1.2273002-.4396917-1.49218.4006412-1.6806659,1.2859538Z"/>
  <path d="M913.5263843,70.0367889c-1.213021-.4426563-1.4500563.3698322-1.659247,1.2758496,1.2201606.4533657,1.4779008-.3762578,1.659247-1.2758496Z"/>
  <path d="M919.9756252,78.410132c4.9712908.1435063,7.00037-3.5726644,9.8590728-6.2121809-4.9920204-.1356527-7.0210996,3.5662388-9.8590728,6.2121809Z"/>
  <path d="M911.8671373,71.3126385c-1.2273002-.4291997-1.4850404.3905371-1.6870671,1.2829892,1.1987173.4426563,1.4707612-.3905371,1.6870671-1.2829892Z"/>
  <path d="M910.1800701,72.5956277c-2.5452979-.3976767-3.9882146.6032977-4.8321173,2.3810623,2.5309943.3941069,3.9603457-.5925882,4.8321173-2.3810623Z"/>
  <path d="M930.5250989,78.316603c-3.8625329-1.5514388-3.2699447,2.6836736-5.0270045,3.8553933,3.1792715.6939708,4.8663631-.5854486,5.0270045-3.8553933Z"/>
  <path d="M919.9756252,78.410132c-1.2480297-.428377-1.4986303.4048163-1.6871162,1.286559,1.213021.4533657,1.4714751-.3905371,1.6871162-1.286559Z"/>
  <path d="M923.8245682,83.4514157c1.2201854.4426563,1.4436306-.3833974,1.6735263-1.2794194-1.2201606-.4497959-1.4850404.372688-1.6735263,1.2794194Z"/>
  <path d="M922.1374766,84.7379747c1.2273002.4461177,1.4707611-.4048163,1.6870915-1.286559-1.2408655-.4462261-1.4850404.3869673-1.6870915,1.286559Z"/>
  <path d="M920.4639504,86.0273896c1.213021.4362306,1.4714751-.3969627,1.6735263-1.2894149-1.2273002-.4391948-1.4786147.3941069-1.6735263,1.2894149Z"/>
  <path d="M908.8970565,93.5439786c5.577469-.2548843,8.0877584-4.5044927,11.5668938-7.516589-5.5846086.2477447-8.1156029,4.4729702-11.5668938,7.516589Z"/>
  <path d="M908.8970565,93.5439786c-14.2720948,5.0962588-26.2645098,13.1982964-37.6086476,22.1299575,16.1619515-2.6637912,24.8351584-15.1159975,37.6086476-22.1299575Z"/>
  <path d="M925.002605,97.1766158c-.1185176-3.7789994-5.7166915-.8475806-4.8385186,2.3774925,2.5381339.4076721,3.9882149-.5997278,4.8385186-2.3774925Z"/>
  <path d="M920.1640864,99.5541084c-5.7174055,1.2237304-10.5280795,3.5976531-14.5162697,7.1289078,6.1286474-.7318108,10.9186166-3.1235825,14.5162697-7.1289078Z"/>
  <path d="M916.7335004,114.1674768c-4.6221882-.2506006-6.3092797,3.3606178-9.6913164,4.765587,5.5153787,1.3666302,7.1953062-2.248158,9.6913164-4.765587Z"/>
  <path d="M807.1710766,167.4747148c1.4229257.1527878,1.380802-1.6492516,1.8548944-2.7651737-1.4293732-.149218-1.3943891,1.659961-1.8548944,2.7651737Z"/>
  <path d="M595.2415518,174.0495882c.7182455-3.6433467.056403-6.2443092-1.9655367-7.7886084-.7325247,3.6504863-.0699683,6.2543047,1.9655367,7.7886084Z"/>
  <path d="M539.1570014,165.1036479c-8.2626792,4.9891645,4.2387908,7.6243972,0,0h0Z"/>
  <path d="M569.486096,175.1575507c-.1949116,13.4604264,1.6249769-10.0117791-1.2965545-1.659141.2227561-.6482772,1.2894149,1.0566633,1.2965545,1.659141Z"/>
  <path d="M560.0039702,178.4211759c.8367632-3.3156382.3833975-5.6024576-2.2032859-6.303568-.1392225,2.7715994.3348481,5.0691282,2.2032859,6.303568Z"/>
  <path d="M592.7876653,181.2619236c-1.3386783,10.7859256-4.8877821,25.3443191-3.4377258,37.2353515.0214189-6.3585431,7.2724143-41.7010762,3.4377258-37.2353515Z"/>
  <path d="M543.3122587,179.2329503c1.0109698,2.76089-.4740706,7.4537604,1.7713391,9.2800744.5154804-3.935357,1.9869555-8.6210878-1.7713391-9.2800744Z"/>
  <path d="M535.4194117,193.265154c.9831253.1185176,1.9805299.2713055,2.9565156.3833974.1327969-.9759857.2720194-1.9733902.3976767-2.9529457-.9831253-.1356527-1.9733902-.2684496-2.9493759-.4012465-.1256573.9866951-.2648798,1.9733902-.4048163,2.9707947Z"/>
  <path d="M544.4210413,205.0098243c.2720194-2.1719769,2.1611622-12.0623833-.5161943-7.6208274-.2648798,2.1789057-2.1475969,12.0588135.5161943,7.6208274Z"/>
  <path d="M522.611652,221.7078561c.2720194-2.164627,2.1475969-12.050855-.4947755-7.6135829-.279159,2.1932904-2.182581,12.0695229.4947755,7.6135829Z"/>
  <path d="M525.2747293,235.6252168c-2.8301443,24.7966045-5.3754179,49.3775926-1.624263,69.1300576-1.9177012-24.1069175,5.7245452-47.6769358,1.624263-69.1300576Z"/>
  <path d="M528.4754198,279.770184c1.9384061,6.5049052.5925882,15.5093905,4.8527979,20.2401008.5997279-8.4433113,1.380088-17.0222753-4.8527979-20.2401008Z"/>
  <path d="M533.7394597,319.6406623c.6625565-7.1396172,1.1708973-14.1850943-.411242-19.6303775-2.6145279,5.0484233-2.872982,15.1995311.411242,19.6303775Z"/>
  <path d="M667.0839335,382.5556831c20.5614024-24.5774183,51.887882-20.0737477,75.5307244-35.21402-32.2046713-1.4886102-50.28361,15.4644109-72.8462283,26.5328584.4605053,4.6544175-3.1442874,4.0097101-2.6844961,8.6811616Z"/>
  <path d="M531.8710218,322.4301107c2.0283653,0,.7739345,8.8267088,4.0367397,3.5589969-2.0290793-.0241724-.7667949-8.8444555-4.0367397-3.5589969Z"/>
  <path d="M423.1310792,312.5324594c-3.3184942-.8674635-5.6124532-.3833974-6.3171335,2.182581,2.6637912.0107094,7.2095856,2.4717355,6.3171335-2.182581Z"/>
  <path d="M412.9935365,354.9103713c5.2776052-4.849228,25.5883887-6.117938,18.6508225-15.6250523-1.6249769,8.317654-9.3914527,8.5896735-16.3711427,9.8869419-2.5866834-16.3254487,22.2349104-11.3234329,28.5099201-21.8579381-10.7372706,2.8094394-18.902137,8.9245215-31.3964675,9.4264366-2.3774926,4.6086229.4533657,11.6297225.6068675,18.1696118Z"/>
  <path d="M422.6427294,327.5477883c-5.3475734,1.1186758-9.5656594,3.7054613-13.02409,7.3066842,6.2121811.0107094,9.6077831-3.6847564,13.02409-7.3066842Z"/>
  <path d="M407.9522527,336.1410316c-1.9798159-2.0083743-3.5141197-2.2139953-5.9265964-.7810741,3.5212593,12.7833829-2.6773565,44.0157401-3.6254977,61.3278839,5.6967007-22.8581984,7.3423825-39.1665121,9.5520941-60.5468097Z"/>
  <path d="M394.865334,400.7288647c1.7434946-5.1176776-3.6811867,10.761545,0,0h0Z"/>
  <path d="M393.6801575,409.6219719c-.5504645-.7011104.8367632,1.0873637,0,0h0Z"/>
  <path d="M389.1415027,421.0839134c.9410016,6.0872376,2.5024359-5.633158,0,0h0Z"/>
  <path d="M578.9546566,444.7310395c-2.3360828-.1535018-5.0969729-.8824567-4.832093,2.3803484,2.5245687.4119559,3.9467805-.6412369,4.832093-2.3803484Z"/>
  <path d="M386.6869023,428.2727939c.8503284,1.1152082-.5368992-.6869309,0,0h0Z"/>
  <path d="M616.0049871,472.2642593c-8.080619,13.7630401-21.6066241,20.4742803-31.3607694,32.0133296,11.5183447-7.0632233,33.5362108-18.6129821,31.3607694-32.0133296Z"/>
  <path d="M573.1537175,477.1341922c5.8145044.6311422,6.6655468-5.2119206,10.0747141-7.7179262-4.9363315.5154804-8.2969494,3.0678935-10.0747141,7.7179262Z"/>
  <path d="M595.9597973,475.6320167c-4.6014834,10.2003711-13.2682649,15.1088579-18.3302537,24.6959359,6.9240009-5.4004065,22.4997902-16.1969356,18.3302537-24.6959359Z"/>
  <path d="M392.5363908,463.7231352c4.4622609.3070035-.5990139-6.3171333,0,0h0Z"/>
  <path d="M489.2282291,473.5507198c-5.8423489-.0805791-5.7588154,7.5438181-8.9802107,10.8558865,6.5955785,1.0802241,6.6448419-6.3871016,8.9802107-10.8558865Z"/>
  <path d="M392.5363908,463.7231352c-5.3754179,5.7281149.1470761,12.9127117,0,0h0Z"/>
  <path d="M155.6324626,442.876167c.9345759,6.1008029,2.4960102-5.6161224,0,0h0Z"/>
  <path d="M202.8210497,450.6504961c.3062896-4.4873486-6.344978.5990139,0,0h0Z"/>
  <path d="M388.1862219,473.7071759c.4812102,4.6964402-3.117157,4.0267441-2.6566516,8.6981956,2.182581-.2506006,6.0586793-6.8675978,2.6566516-8.6981956Z"/>
  <path d="M208.357109,454.3909416c-.0071396-2.6602214-2.0847683-3.7026055-5.5360593-3.7404455-.0771079.4912057-.1399365.9824113-.2091908,1.4742319,2.7123406.1671661,2.9001126,2.2312295,5.7452501,2.2662136Z"/>
  <path d="M577.6295436,500.3279526c-1.2265863-.429091-1.4986057.4041023-1.6870916,1.2965545,1.2344398.4426563,1.4714751-.3941069,1.6870916-1.2965545Z"/>
  <path d="M575.942452,501.6245071c-1.2201606-.4426563-1.4643355.372688-1.6735263,1.2758496,1.2065953.4390865,1.4643355-.3627904,1.6735263-1.2758496Z"/>
  <path d="M211.1179991,456.2736586c.167067-1.4436306-1.6528214-1.3950812-2.76089-1.8827171-.1606414,1.4535271,1.6663867,1.4015069,2.76089,1.8827171Z"/>
  <path d="M574.2689257,502.9003567c-1.2265863-.4319468-1.4779008.3833974-1.679952,1.3001243,1.2201606.4255212,1.4707612-.4148118,1.679952-1.3001243Z"/>
  <path d="M212.4288328,457.9571804c.411242-1.2372957-.4183816-1.49218-1.3108338-1.6835217-.4390865,1.2230164.411242,1.474331,1.3108338,1.6835217Z"/>
  <path d="M572.5889737,504.200481c-2.2661146.6104373-.0978128,1.8027533,0,0h0Z"/>
  <path d="M582.7686402,507.0591837c2.2589749-.6482772.055689-1.8127488,0,0h0Z"/>
  <path d="M219.2264625,463.3747219c.0699683-.4883498.1399365-.9795555.1956255-1.4957498-2.7194803-1.0002604-3.2977893-3.6462025-6.9932552-3.9217917-.0771079.4983453-.1399365.9759857-.2020512,1.4679053,2.7330455,1.0074,3.28351,3.6911821,6.9996809,3.9496362Z"/>
  <path d="M577.7273564,510.8909187c2.2454097-.5125269,3.9253616-1.816221,5.0412838-3.831735-3.2006905-.7075361-4.8877821.5718833-5.0412838,3.831735Z"/>
  <path d="M385.5295703,482.4053716c-.4812102-.0592588-.9759857-.1320829-1.4714751-.1984814.1049524,4.7585549-3.3606179,4.8842121-2.8579888,10.1760964.4876359.0628286.9966906.1249433,1.4850404.1948135-.0978128-4.7692644,3.3534783-4.8805443,2.8444236-10.1724285Z"/>
  <path d="M219.2264625,463.3747219c-.2927243,4.4829656,6.344978-.6032977,0,0h0Z"/>
  <path d="M577.7273564,510.8909187c-2.2796798.6340956-.0835335,1.8192721,0,0h0Z"/>
  <path d="M113.6729312,452.3789975c1.9105616,2.5245686,5.8637678,3.4934147,6.6098578,6.9339962-1.2480051-.4426563-1.4850404.3805416-1.6728124,1.2729937,10.1161239,1.3665227-.7253851-12.8156129-4.9370454-8.20699Z"/>
  <path d="M390.8635785,487.6344272c.7389504,4.0437811-5.5503386,7.5230146-1.3665228,10.3681521-1.1716112-4.7863994,7.8571489-9.6292017,1.3665228-10.3681521Z"/>
  <path d="M569.5282198,515.8587619c-4.218086,4.4865355,5.4453862-2.9429502,0,0h0Z"/>
  <path d="M381.2001063,492.3829866c-3.8696726,3.6390629-5.2711795,10.4895256-9.3778874,13.8330083,6.5470291-.1463622,7.7671898-7.2410977,9.3778874-13.8330083Z"/>
  <path d="M564.5012152,519.6970202c2.2661146-.634712.0763939-1.8027533,0,0h0Z"/>
  <path d="M113.7707439,462.96348c2.5102895.411242,3.9810507-.5997278,4.8392327-2.3774925-2.5245687-.3869673-3.9881903.6097233-4.8392327,2.3774925Z"/>
  <path d="M564.5012152,519.6970202c-1.2273002-.4219514-1.4714751.3933929-1.6806659,1.2893175,1.2415795.436328,1.4714751-.3904397,1.6806659-1.2893175Z"/>
  <path d="M562.8205492,520.9863377c-2.2725402.6240999-.0763939,1.8128462,0,0h0Z"/>
  <path d="M109.3299019,462.3708917c-3.0678936,3.3706133-11.0585534.5083407-14.516984,7.125338,4.7135754-1.1401969,8.5346986-3.451291,13.5195795.2827288-1.4293514-3.9289313,5.1662271-5.5888923.9974045-7.4080668Z"/>
  <path d="M549.2181502,532.7589498c.411242-1.7320711,3.0671796-3.0364792.5854486-4.4651166-.4390865,1.7285013-3.1028777,3.0114905-.5854486,4.4651166Z"/>
  <path d="M53.6416003,473.0660383c4.1345524-1.5550086-4.329464-4.5565037-6.8254742-5.4032623.0699683-.5020138.1392225-.9938347.1949116-1.4850404-5.1383826,2.7501805,3.5976532,5.9851411,6.6305627,6.8883027Z"/>
  <path d="M83.8457516,472.5569836c5.9687201,2.23827.8924522-4.3887227,0,0h0Z"/>
  <path d="M71.4142498,475.4299656c5.8009391,1.2058813,9.2943539-.5997278,12.4315018-2.872982-5.3125893-.5440388-10.2632-.6555154-12.4315018,2.872982Z"/>
  <path d="M59.749543,472.3863467c.9417155,6.0764298,2.5031499-5.6338719,0,0h0Z"/>
  <path d="M651.3268162,558.3509077c.8439028-2.9558015,4.3922926-2.388202,5.243335-5.3582827-3.1935509-1.0316747-8.77102,3.3677574-5.243335,5.3582827Z"/>
  <path d="M51.1598693,480.2998985c-.7253851-7.2895492-3.0193442-5.4803702-9.5799386-7.3245333,1.380802,3.8211231,5.4525258,5.6024576,9.5799386,7.3245333Z"/>
  <path d="M53.9278989,482.1753776c2.9279571,6.2471652,2.8094394-4.6399389,0,0h0Z"/>
  <path d="M192.8020246,503.5870901c-.5583181-.6974428.8296235,1.1017407,0,0h0Z"/>
  <path d="M196.8594692,507.1255822c2.7194803,1.0181094,3.284224,3.7026055,7.0003948,3.953206.055689-.4912057.1185176-.9831253.1949116-1.4779008-2.2168512-.2577402-5.3268685-6.3028541-7.1953064-2.4753053Z"/>
  <path d="M203.859864,511.0787882c6.8818772,6.7212356,10.5073749,15.9320558,19.8709831,20.7284506-3.0750332-9.6285851-11.1071028-15.4644109-19.8709831-20.7284506Z"/>
  <path d="M11.3829189,496.1198623c2.6145993,3.76829,8.1298823,5.2918843,12.5500194,7.6936515-.9902649-4.1831017-7.7671898-10.8415087-12.5500194-7.6936515Z"/>
  <path d="M616.7932008,591.4487452c-9.6427672,1.3072639-16.3432982,6.4806305-23.9919703,10.3745778,9.3364777-1.7014661,18.8949974-3.1200127,23.9919703-10.3745778Z"/>
  <path d="M200.3178999,537.7409747c-.1392225.9938347-.2648798,1.9698204-.3833975,2.9736506.9831253.1327969,1.9798159.2684496,2.9700808.3869673.1327969-.9974045.2577402-1.97696.3833975-2.9600853-.9831253-.1249433-1.9798159-.2748753-2.9700808-.4005325Z"/>
  <path d="M585.0069103,603.8102784c6.4770609,1.1573319,1.1851765-5.7660503,0,0h0Z"/>
  <path d="M589.6569431,602.934866c-.5504645-.7110106.8296235,1.0953126,0,0h0Z"/>
  <path d="M577.0026852,607.2787044c1.3593832-2.872268,7.0553699-.0621147,8.0042251-3.468426-3.172846-.5090547-12.1323518.1669718-8.0042251,3.468426Z"/>
  <path d="M89.2354488,545.6302517c-1.1501924-4.7307104-8.0670537.5576041,0,0h0Z"/>
  <path d="M89.2354488,545.6302517c-.279159,4.4901053,6.3378384-.596158,0,0h0Z"/>
  <path d="M554.0081195,610.2458342c.8296235,1.1260127-.5304736-.6867361,0,0h0Z"/>
  <path d="M117.0899521,562.8831367c9.0080553,6.1422127,6.5748737-3.412737,0,0h0Z"/>
  <path d="M484.6824347,610.1167023c-5.2640399,3.580518-15.1716869,1.0530935-18.957826,6.5262292,7.5787039-.5160994,15.3116234-.8645127,18.957826-6.5262292Z"/>
  <path d="M518.749119,614.6275124c-1.1923161.1713508-2.9286711-.3341341-3.1585667,1.0916475,1.1851765-.1713508,2.9286711.3519831,3.1585667-1.0916475Z"/>
  <path d="M512.6276111,615.3214832c-1.1923161.1742067-2.9143918-.3384179-3.1585667,1.0980731,1.1987418-.1742067,2.9350967.334848,3.1585667-1.0980731Z"/>
  <path d="M128.5454682,567.4253612c1.2201606-.1913417,2.9208175.3519831,3.172132-1.0837939-1.1923161.1806323-2.9215314-.3455575-3.172132,1.0837939Z"/>
  <path d="M186.5198753,573.6061278c-.523334,2.7580341-5.0270046.3769718-5.0205789,3.8625329,3.9467805,2.576592,9.2665094-1.4850404,5.0205789-3.8625329Z"/>
  <path d="M503.5495876,615.6456218c-.5925882,1.5585784-3.0957381.6104373-3.3541922,2.5624086,2.7958742,2.0919078,7.370227-1.3943672,3.3541922-2.5624086Z"/>
  <path d="M506.3104776,617.4933548c-.5297596-.6939708.8367632,1.1087826,0,0h0Z"/>
  <path d="M132.8121035,569.4958502c-.5440388-.7075361.8367632,1.0916475,0,0h0Z"/>
  <path d="M135.5665679,571.3892767c18.9642517,3.7718598,45.772801,25.0128395,63.1127898,12.8705879-17.577024,5.5603339-44.8460787-11.4555158-63.1127898-12.8705879Z"/>
  <path d="M460.0978762,624.9571106c13.7987385-1.697801,27.5967631-3.3741831,40.0975192-6.7490801-15.3665985-.3870621-28.7112574,1.9105616-40.0975192,6.7490801Z"/>
  <path d="M462.2947364,631.2599647c-5.8152184.9481412-6.5748737-2.3003847-9.2872143,1.7920439,2.070489,2.7330455,9.049465,3.0157743,9.2872143-1.7920439Z"/>
  <path d="M204.1383091,600.0591235c-1.8334537,5.0619886,2.9843601,7.1396172,5.3268685,5.2154904.9552808-3.8453978-1.4079325-5.1384778-5.3268685-5.2154904Z"/>
  <path d="M191.9024328,624.0681335c-14.3627683,3.1029724-39.6098833-2.1610674-51.1489329-.7595605,16.3432982,2.2097115,38.9751713,8.4604464,51.1489329.7595605Z"/>
  <path d="M250.567241,636.3605072c-2.0012348,2.0040905-6.0308348,5.5495302-.9831253,7.404497,2.0148-1.9940951,6.0172695-5.5431988.9831253-7.404497Z"/>
  <path d="M477.4664234,732.7660443c-1.1858904.1777765-2.9286711-.334848-3.1521411,1.0945033,1.1858904-.1949115,2.9079662.3455575,3.1521411-1.0945033Z"/>
  <path d="M418.7173678,732.5154438c-2.0776287-.6275724-2.1818671-2.7715994-4.0574446-3.5491037-.1956255,1.4678132-.3905371,2.9665109-.5861626,4.4307545.96956.1393145,1.959825.2756812,2.9565156.4077641.9131571.0314143,1.7713391.017849,1.6870916-1.2894149Z"/>
  <path d="M200.4571224,718.6680639c-4.8249534.6483696-6.9025821,4.8771649-8.7845852,9.3814572,4.8313791-.6417595,6.9025821-4.8948294,8.7845852-9.3814572Z"/>
  <path d="M244.9198036,747.153087c5.3825575-5.1141078,9.7819898-11.5768893,13.1219028-19.3583581-7.9278311,1.8198884-9.6920306,11.6853197-13.1219028,19.3583581Z"/>
  <path d="M428.3251509,785.0408936c-11.364843-9.9247819-18.6294036-22.9874255-32.0161862-31.372192,7.725066,11.8217782,21.7465606,25.9268059,32.0161862,31.372192Z"/>
  <path d="M191.6725372,728.0495211c-1.213735-.4426563-1.4643355.3763499-1.6663867,1.2795115,1.2201606.4497959,1.4707612-.3805416,1.6663867-1.2795115Z"/>
  <path d="M190.0061505,729.3290326c-2.2939591.6240025-.0978128,1.8227443,0,0h0Z"/>
  <path d="M243.8388656,766.6163974c4.7899693-11.7203956,13.0662138-18.8671524,20.2408153-27.4703912-11.6511416,1.6242629-19.948091,16.8273638-20.2408153,27.4703912Z"/>
  <path d="M201.0639899,736.8098316c-1.2972685,3.5284907-6.1493525,2.4161384-5.6124532,8.3184599,2.2589749-1.2415794,8.7081913-5.818788,5.6124532-8.3184599Z"/>
  <path d="M236.4272288,743.0185347c.9481412,6.0765282,2.4960102-5.6295882,0,0h0Z"/>
  <path d="M234.3567397,747.2723186c.9274363,6.0758142,2.481731-5.6374417,0,0h0Z"/>
  <path d="M232.1948636,763.5556435c6.2264603-2.8965427,9.2458045-9.9283517,12.7249401-16.4025566-.4954894-.0622063-.9974045-.1285131-1.49218-.1913417-3.1100173,6.3514035-8.527559,9.698456-11.23276,16.5938983Z"/>
  <path d="M193.7565915,746.4041411c1.2344398.4462261,1.4786148-.3905371,1.6949452-1.2758496-1.2344398-.4434619-1.4857544.3869673-1.6949452,1.2758496Z"/>
  <path d="M186.861149,753.0347036c2.7894485-1.5792833,6.2193207-2.2868194,6.8954425-6.6305625-.4804963-.0592588-.9824114-.112092-1.4779008-.1849161-.9131571,3.4234465-5.4939356,2.0639717-5.4175417,6.8154786Z"/>
  <path d="M532.9234014,803.4196962c.3348481-2.4331815,4.2116603-.2577402,4.8249534-2.3604477-4.7342803.0871936-3.3741832-4.5035803-6.8119089-5.4274467-2.6566516,1.9034219-.7946394,6.2400254,1.9869555,7.7878944Z"/>
  <path d="M181.4229024,759.8430426c.9202967-3.412737,5.5217801-2.0533539,5.4382466-6.808339-2.0290793.9652762-9.1401382,4.0681539-5.4382466,6.808339Z"/>
  <path d="M225.0973699,771.6712464c3.5555295-1.1394829,5.9751458-3.7789994,7.0974936-8.1156029-.4947755-.0728241-.989551-.1320829-1.4914661-.1949115-1.0952173,3.7754296-5.0062997,3.8625329-5.6060276,8.3105144Z"/>
  <path d="M437.521692,795.3076631c-1.1923161.1742067-2.9350967-.3419877-3.172132,1.0873637,1.213021-.1813463,2.9279571.3491273,3.172132-1.0873637Z"/>
  <path d="M225.0973699,771.6712464c-2.2796798.6175769-.0978128,1.8027533,0,0h0Z"/>
  <path d="M218.1740829,778.2882436c-.9417155,1.0837939-1.847733,2.2104255-2.0640634,4.2359349.5019151.0692543.9902649.1320829,1.4779008.2020512,1.1787508-1.0459539,2.8451375-3.7375896.5861626-4.4379861Z"/>
  <path d="M232.6068195,783.2173446c.933862,6.0766189,2.4888706-5.6230718,0,0h0Z"/>
  <path d="M250.3716155,785.574223c-2.2725402.6168629-.0763939,1.8126582,0,0h0Z"/>
  <path d="M216.1100196,782.5241785c-4.4694005-.279159.5997279,6.3371242,0,0h0Z"/>
  <path d="M135.1410467,779.344193c2.2589749-.633998.0763939-1.8191745,0,0h0Z"/>
  <path d="M133.4539551,780.6414615c1.2265863.4148118,1.4779008-.4076721,1.6870916-1.2972684-1.2344398-.4463169-1.4714751.3869673-1.6870916,1.2972684Z"/>
  <path d="M249.0050927,795.945231c1.2344398.4362306,1.4714751-.3906275,1.6735263-1.2858451-1.2201606-.4398909-1.4850404.3869673-1.6735263,1.2858451Z"/>
  <path d="M131.7804288,781.8965154c1.2201606.4320376,1.4779008-.376881,1.6735263-1.255054-1.213735-.4605053-1.4571959.3762578-1.6735263,1.255054Z"/>
  <path d="M243.9645228,799.8013382c3.2071161.7039663,4.8870681-.596158,5.0405699-3.8561073-2.2446957.5368992-3.918222,1.8198884-5.0405699,3.8561073Z"/>
  <path d="M122.6952657,782.199326c2.2661146-.6169537.0835335-1.79133,0,0h0Z"/>
  <path d="M131.7804288,781.8965154c-2.2868194.6412284-.0835335,1.8192652,0,0h0Z"/>
  <path d="M122.6952657,782.199326c-2.2868194.6418516-.0906731,1.8198884,0,0h0Z"/>
  <path d="M118.0452329,783.1024875c-3.2006905,5.6474372-11.00929,5.3232986-14.8861022,10.0854233,3.2699448,1.9105616,16.830934-5.3125892,14.8861022-10.0854233Z"/>
  <path d="M128.2177597,785.9611903c2.2868194-.6240025.0906731-1.8334537,0,0h0Z"/>
  <path d="M242.2981361,801.0843274c1.2058814.4426563,1.4779008-.3905371,1.6663867-1.2829892-1.2273002-.4326608-1.4571959.3905371-1.6663867,1.2829892Z"/>
  <path d="M124.8778467,788.540734c1.3872277-.5090547,2.8165791-.951711,3.339913-2.5795437-2.4474608-.8753171-2.9286711.7846439-3.339913,2.5795437Z"/>
  <path d="M242.2981361,801.0843274c-6.4842005-1.1437667-1.1994557,5.7695247,0,0h0Z"/>
  <path d="M119.4531654,795.3455031c.9067314-3.4298721,5.5010752-2.0740588,5.4246813-6.8047692-2.0426445.9588506-9.1408521,4.0437887-5.4246813,6.8047692Z"/>
  <path d="M494.827117,840.5856875c-.6132931-2.2732541-1.8127489-.0906731,0,0h0Z"/>
  <path d="M497.5808675,842.461265c.167781-1.4507702-1.6592471-1.3916007-2.7537504-1.8755774-.1606414,1.4464864,1.6521075,1.3943672,2.7537504,1.8755774Z"/>
  <path d="M498.8709963,844.1376471c.4533657-1.2265862-.3976767-1.4850404-1.2901289-1.6763821-.4390865,1.2337259.3905371,1.4850404,1.2901289,1.6763821Z"/>
  <path d="M498.8709963,844.1376471c-.279159,4.4936751,6.3585432-.5997278,0,0h0Z"/>
  <path d="M114.6003675,797.7265655c2.2868194-.633998.0906731-1.8227443,0,0h0Z"/>
  <path d="M114.6003675,797.7265655c-1.2201606-.4426563-1.4636216.3805416-1.6663867,1.2936986,1.2201606.4076721,1.4643355-.4183816,1.6663867-1.2936986Z"/>
  <path d="M112.9339808,799.0202641c-2.0355049.9624204-9.1401382,4.0545886-5.4239673,6.8119088.9202967-3.4341559,5.5082148-2.074149,5.4239673-6.8119088Z"/>
  <path d="M221.0741955,835.9627854c9.3500429-2.9350966,17.2635948-5.9265962,22.0114404-18.1867469-13.9165422-2.5524132-15.9520471,10.4338366-22.0114404,18.1867469ZM237.877285,823.1164722c-.243461,1.4293514-1.9726763.8995918-3.172132,1.080938.2370353-1.4400608,1.959111-.9202967,3.172132-1.080938ZM231.1496236,828.2512849c5.4446722-2.9486619-4.253784,4.4872494,0,0h0Z"/>
  <path d="M80.4572892,827.8714572c5.821644-8.094898,21.4888204-12.4522064,22.3948379-21.1468322-5.6124532,8.3076586-21.8229545,11.9959848-22.3948379,21.1468322Z"/>
  <path d="M398.951337,847.4846996c-.634712-2.2832496-1.8056092-.111378,0,0h0Z"/>
  <path d="M398.951337,847.4846996c-2.2454097,5.9608664,4.3922926.8781729,0,0h0Z"/>
  <path d="M403.8876685,855.6701819c.3484133-5.8879534-6.5613084-.5860737,0,0h0Z"/>
  <path d="M403.8876685,855.6701819c-.1606414,2.7816838.3134292,5.072073,2.1683018,6.3165082.8717473-3.3256337.3976767-5.6124531-2.1683018-6.3165082Z"/>
  <path d="M196.4132431,862.8413023c9.3914527-7.4709843,16.8523529-17.4063867,24.6609524-26.8785169-.4740706-.0628286-.9688461-.1292271-1.4707612-.205621-8.938801,7.4501906-16.7059907,16.4025566-23.1901912,27.0841379Z"/>
  <path d="M407.3525248,863.6566466c.4398004-1.2094512-.3969627-1.4537148-1.2965545-1.6699565-.4390865,1.2273002.4041023,1.4714751,1.2965545,1.6699565Z"/>
  <path d="M407.3525248,863.6566466c.6275724,2.2832496,1.8127489.1013826,0,0h0Z"/>
  <path d="M400.8404798,867.3206981c-.6275724-2.2696843-1.8056092-.0871033,0,0h0Z"/>
  <path d="M409.9327825,867.0172644c-.5511785,2.6288071,1.380088,3.3641876.689687,6.1186519-3.4998404.0242747-5.6681422-.9766996-7.2231509-2.4546004.5161943,7.6172576-7.3273893,4.3473129-8.77102,9.3950223,3.2977893,3.7932786,7.0489442-2.3632133,12.2294506-1.4050767.0906731,3.9289313,3.8346885,5.0448535,3.2770844,9.4828396,4.9291918-.5019151,9.1686966-1.9384061,12.6264133-4.365162-7.0832144,1.4050767-12.4450671-.4947755-12.5357402-7.6829421,1.2337259-.1327969,1.679952-1.3108337,3.1371479-1.0916475,2.9986393.8367631,2.3989114,4.4030019,5.3689923,5.2297696.2020512-5.3232986-3.6047928-4.1731063-.3205688-9.0780233-6.2543048,1.2480051-4.2673493-3.8453978-8.4782956-4.1488316Z"/>
  <path d="M400.8404798,867.3206981c-.4319469,1.2165908.3905371,1.474331,1.2829892,1.6835217.4326608-1.2230164-.3969627-1.474331-1.2829892-1.6835217Z"/>
  <path d="M402.123469,869.0042199c-.4390865,1.2137349.3833975,1.4643355,1.2758496,1.6770961.4462261-1.2372957-.3833975-1.4850404-1.2758496-1.6770961Z"/>
  <path d="M101.9246908,859.3550272c4.8178138-7.627967,18.7557749-12.532884,19.2227058-20.0666081-4.6157626,7.3073091-23.4193729,12.5957127-19.2227058,20.0666081Z"/>
  <path d="M390.1731775,879.48375c-.5511785,5.74525,5.243335,6.6305625,6.0379744,11.340568-2.1754414,1.23087-5.6967007.6761217-6.512045,3.6533421,5.4660911-1.5550086,12.4664859-1.0909335,15.7992593-5.4382464-2.9772204-.4012465-5.9265964-.7846439-8.8895376-1.1644716-2.4546005-2.5624086-1.2065953-7.9621011-6.4356511-8.3911921Z"/>
  <path d="M502.5736019,895.8720273c.8296235,1.1123524-.5304736-.690401,0,0h0Z"/>
  <path d="M405.4983662,889.0394137c6.4842005,1.1401969,1.1851765-5.7695247,0,0h0Z"/>
  <path d="M421.9737473,889.7083958c2.5795438,8.112747,4.5108103-4.5807784,0,0h0Z"/>
  <path d="M523.5248091,919.7768064c-.9481412-8.6424194-9.6770374-18.3094611-15.617913-18.665014,6.1914762,5.445386,9.4128716,13.2018662,15.617913,18.665014Z"/>
  <path d="M449.9396286,894.9309379c2.2661146-.616775.0763939-1.792044,0,0h0Z"/>
  <path d="M183.8910682,877.7409694c5.0477095-3.8489676,9.9005074-7.9035562,12.5221749-14.8996671-.4812102-.0699682-.9688461-.1292271-1.4779008-.2028538-4.2880542,4.2710077-8.6110925,8.4405442-11.0442741,15.102521Z"/>
  <path d="M418.4317831,893.7872591c-.5440388-.7246711.8439028,1.0952173,0,0h0Z"/>
  <path d="M179.0525495,880.1320272c2.5238547.4012465,3.9810507-.5890184,4.8385187-2.3910578-2.5238547-.3869673-3.9810507.6061535-4.8385187,2.3910578Z"/>
  <path d="M290.8875162,968.8439129c2.2939591-.6447074.1049524-1.8405933,0,0h0Z"/>
  <path d="M290.8875162,968.8439129c-6.4627817-1.1537621-1.1851765,5.763099,0,0h0Z"/>
  <path d="M255.4614487,974.679836c1.903422-.4076721,3.2977893-1.5129708,3.5491038-4.0610143-1.903422.411242-3.2906497,1.4950358-3.5491038,4.0610143Z"/>
  <path d="M244.4942824,977.7405899c3.6604818,1.8405933,8.3804829-7.4081528,2.4610261-7.2088715.6696961,4.3501688-2.5866834,3.5519596-2.4610261,7.2088715Z"/>
  <path d="M282.5277382,975.2373542c-2.4538865-.8853126-2.9629412.8018649-3.3741832,2.5939088,1.4079325-.5020009,2.8308583-.9759857,3.3741832-2.5939088Z"/>
  <path d="M279.153555,977.831263c-2.3425085.9901791-4.9991601,1.5792833-5.2154905,5.316159,2.3360828-1.0002604,4.9920205-1.5928486,5.2154905-5.316159Z"/>
  <path d="M292.3033023,981.0561424c.9759857.1285131,1.9726763.2542561,2.9558016.387053-.1042384-1.8962823-2.7466108-1.8720934-2.9558016-.387053Z"/>
  <path d="M268.5904911,977.9147108c-9.161557,3.6784166-14.9903407,11.7104859-20.7220255,19.8817778,8.2626792-4.8528832,13.4638905-13.7387654,20.7220255-19.8817778Z"/>
  <path d="M251.7038681,980.2158952c4.4829658.2755892-.6068675-6.3449778,0,0h0Z"/>
  <path d="M224.0585556,984.0748583c3.5698087-1.1259176,5.9751458-3.7755153,7.1046333-8.0913282-3.5698087,1.1473365-5.9751458,3.7654341-7.1046333,8.0913282Z"/>
  <path d="M240.938039,981.8023181c4.4908193.2747896-.5990139-6.3556872,0,0h0Z"/>
  <path d="M251.7038681,980.2158952c-2.2661146.6168629-.0978128,1.8198884,0,0h0Z"/>
  <path d="M217.2537863,978.6643706c2.2518353-.6446217.0835335-1.8333679,0,0h0Z"/>
  <path d="M217.2537863,978.6643706c-4.4765401-.3062038.5925882,6.3243587,0,0h0Z"/>
  <path d="M240.938039,981.8023181c-2.7187663.5960723-8.8195694,5.6752817-5.6195928,8.2826699,1.1159222-3.7754296,5.0205789-3.8696725,5.6195928-8.2826699Z"/>
  <path d="M246.481238,985.5320542c-4.2459305,4.5079543,5.4453862-2.8965427,0,0h0Z"/>
  <path d="M220.6979377,986.6408367c2.4610261.8753171,2.9493759-.7846439,3.3606179-2.5659784-1.3943673.4919196-2.8237187.9731298-3.3606179,2.5659784Z"/>
  <path d="M210.1277341,986.7629242c.8646077,1.0909335-.52262-.7289549,0,0h0Z"/>
  <path d="M241.2657475,990.8831973c.9067314,6.0836678,2.4681657-5.6402976,0,0h0Z"/>
  <path d="M201.0497106,987.0592183c-3.1864112-.6939708-4.8663632.579023-5.019865,3.8553933,2.2454097-.5540343,3.9046567-1.8263996,5.019865-3.8553933Z"/>
  <path d="M228.8064012,993.7419c2.2803938-.6132931.0835335-1.8020394,0,0h0Z"/>
  <path d="M239.1674139,995.1334114c.8646077,1.094418-.5297596-.7253851,0,0h0Z"/>
  <path d="M301.3948911,1003.3775274c-.5440388-.7146757.8439028,1.1016429,0,0h0Z"/>
  <path d="M228.8064012,993.7419c-1.4643355-.1392225-1.3943673,1.6770961-1.8755775,2.7786537,1.4571959.149932,1.380802-1.6555919,1.8755775-2.7786537Z"/>
  <path d="M196.0298457,990.9146116c-2.2732542.6175769-.0906731,1.809893,0,0h0Z"/>
  <path d="M242.8278957,1001.649026c3.2213954.7075361,4.8735028-.5933022,5.0405699-3.8525374-2.2518353.5476086-3.918222,1.8234582-5.0405699,3.8525374Z"/>
  <path d="M226.9308237,996.5205537c-1.2337259-.4390011-1.4707612.3870526-1.6663867,1.2723651,1.213735.4605053,1.4643355-.3799129,1.6663867-1.2723651Z"/>
  <path d="M179.3309946,991.7063951c-6.512045-1.5621482-6.0722446,5.9822853-8.7917248,9.3914525,3.4234465-2.4817309,7.5023099-4.1203584,8.7917248-9.3914525Z"/>
  <path d="M209.8421495,1000.288929c6.4420768-.7389504,1.0388143-7.777185,0,0h0Z"/>
  <path d="M225.264437,997.7929188c-1.9098477.4148118-3.3049289,1.49218-3.5483898,4.0617282,1.8962824-.414897,3.2906497-1.4993196,3.5483898-4.0617282Z"/>
  <path d="M232.0763459,1003.2383048c6.4213719-.7353806,1.0252491-7.7878944,0,0h0Z"/>
  <path d="M188.9109332,999.0030839c6.4499303-.70825,1.0323887-7.7643337,0,0h0Z"/>
  <path d="M288.3708011,1010.694921c-.5440388-.7039663.8367632,1.0916475,0,0h0Z"/>
  <path d="M209.8421495,1000.288929c-3.060754.6311422-4.4694005,3.4234465-5.4039764,6.8226182,3.0543283-.6312272,4.4622609-3.4341559,5.4039764-6.8226182Z"/>
  <path d="M221.7160471,1001.854647c-1.4086465.4775552-2.8308583.9374317-3.3820368,2.5795437,2.4681657.875232,2.9636552-.7882989,3.3820368-2.5795437Z"/>
  <path d="M178.3550089,999.1280272c-.5368992-.6968266.8367632,1.0880777,0,0h0Z"/>
  <path d="M188.9109332,999.0030839c-1.4293514-.1363667-1.380088,1.6835217-1.8684379,2.7744552,1.4500563.1427923,1.3943673-1.6663867,1.8684379-2.7744552Z"/>
  <path d="M197.5984196,1001.6804404c.8717473,1.0872785-.52262-.70825,0,0h0Z"/>
  <path d="M170.5392697,1001.0978476c-1.2065953-.4497959-1.4643355.4148118-1.6663867,1.2829892,1.2273002.4497959,1.4850404-.3798276,1.6663867-1.2829892Z"/>
  <path d="M174.8130447,1003.1897554c2.2589749-.6518471.0906731-1.8234582,0,0h0Z"/>
  <path d="M194.063595,1005.7377997c2.2732542-.6481921.0906731-1.8233731,0,0h0Z"/>
  <path d="M168.872883,1002.3808368c-2.2661146.6447074-.0906731,1.8198884,0,0h0Z"/>
  <path d="M169.1656073,1011.4624299c2.2239908-2.3146639,5.5360593-3.207116,5.6474374-8.2726745-2.2168512,2.2975288-5.5289197,3.2035462-5.6474374,8.2726745Z"/>
  <path d="M152.1883111,1003.196895c-.1256573.9759857-.2584541,1.9691064-.3833975,2.9522317,1.8891428-.1114631,1.8755775-2.7430409.3833975-2.9522317Z"/>
  <path d="M165.3166396,1006.4489907c2.2661146-.6554169.0906731-1.8163186,0,0h0Z"/>
  <path d="M165.3166396,1006.4489907c-1.4429167-.1599274-1.380088,1.6528214-1.8541586,2.7544643,1.436491.1427923,1.380088-1.6628168,1.8541586-2.7544643Z"/>
  <path d="M267.3496256,1021.4778849c.9481412,6.0693886,2.4960102-5.6402976,0,0h0Z"/>
  <path d="M151.8049137,1006.1491268c-2.2868194.6239175-.1049524,1.8198884,0,0h0Z"/>
  <path d="M163.462481,1009.203455c-2.3010987.6304282-.0978128,1.8020394,0,0h0Z"/>
  <path d="M148.235105,1010.210855c2.2939591-.6418516.0906731-1.8198884,0,0h0Z"/>
  <path d="M169.1656073,1011.4624299c-1.2058814-.4326608-1.4643355.411242-1.6663867,1.2858451,1.2201606.4497959,1.4779008-.3833974,1.6663867-1.2858451Z"/>
  <path d="M159.8998119,1013.2608995c2.2725402-.633998.0906731-1.8334537,0,0h0Z"/>
  <path d="M167.4992206,1012.7482749c-3.0678936.652561-4.4758261,3.4234465-5.4104021,6.811824,3.0471887-.6167782,4.4694005-3.4226477,5.4104021-6.811824Z"/>
  <path d="M150.8217884,1013.5643332c2.2661146-.634712.0835335-1.8127488,0,0h0Z"/>
  <path d="M159.8998119,1013.2608995c-1.2273002-.4497959-1.4714751.3869673-1.6942312,1.2758496,1.2337259.4362306,1.4850404-.4005325,1.6942312-1.2758496Z"/>
  <path d="M158.2055807,1014.5367491c-2.2661146.6311422-.056403,1.809893,0,0h0Z"/>
</svg>