<?xml version="1.0" encoding="UTF-8"?>
<svg id="pea" xmlns="http://www.w3.org/2000/svg" version="1.1" viewBox="0 0 3933.753593 2019.9653237">
  <!-- Generator: Adobe Illustrator 30.0.0, SVG Export Plug-In . SVG Version: 2.1.1 Build 123)  -->
  <g id="pea1" data-name="pea">
    <g id="outline">
      <path d="M3267.4215588,572.8330314c-142.8446164,56.4604698-420.2837477,291.3712578-452.2668484,415.9788075-29.4398363,115.9480446-57.6762743,275.1439902,20.7183003,404.3542282,88.8033494,145.8096906,261.0878021,269.9830244,449.351399,238.3100779,142.3607759-24.0555594,419.6882517-206.8108178,530.1775824-336.7530197,147.323243-173.7980052,138.3535837-396.0545019,74.2633207-526.4681382-115.2160807-236.982618-388.5363642-287.8106876-622.2437539-195.4219557ZM3505.3718578,650.6693284c16.3513292-23.9314978,26.6484485,1.0297119,41.5482561-12.6542912-.6079022,24.1051841.8560256,47.8505893-17.2073548,73.9655726-13.6840031-19.8746809-18.4107531-40.8286983-24.3409013-61.3112814ZM3634.8798438,764.1361394c-23.2615647,32.6530337-12.4806048,22.2318528-45.7911655,44.9475461-5.5827755-15.2719926-4.1188477-31.6233218-10.0614021-46.7712527,21.9341047-25.8048291,38.5335573-8.2997263,55.8525676,1.8237067ZM3674.0088972,767.6470849c21.4502642,23.3235955,49.3145171-7.5677624,68.3331724,32.7150646-53.4333649-2.3695781-76.5708679,46.4610985-115.8239829,28.4721552,21.9341047-21.0904853,14.8998076-38.8933362,47.4908105-61.1872198ZM3396.0859254,630.7450229c28.2240318-13.5103168,51.6096582,14.5896534,74.7471612,39.6749247-51.001756,63.5443916-68.817013-11.2648004-74.7471612-39.6749247ZM3452.4223335,815.8078284c-26.0529525-25.9909216-57.5522126-6.8482046-86.0243678-14.5400287-23.4972819-23.9314978,5.3346522-53.7931437-22.0457602-77.2408009,8.9696593-9.0813149,17.815257-17.9889434,27.3804124-27.0082274,27.864253,23.5593127,17.2073548,51.1754423,38.5335573,75.5287498,29.1917129-19.142717,3.027105-32.2188179,5.9301482-48.3964607,32.7150646-6.5380504,65.6658463-13.0885071,93.0462588,21.6859814-2.0594239,21.6859814-32.7150646,46.2253814-56.8202487,69.9707866ZM3540.3820635,814.294276c-8.3617571,5.9301482-15.9915503,1.5135525-24.9612097,10.718929-4.7267499-4.7887808-9.4534999-9.5155307-14.2919053-14.415967,16.115612-22.4179453,27.3804124-6.8482046,39.253115,3.697038ZM3349.4387343,619.7779705c-17.5671337,28.534186,38.2854339,49.0043629,5.9425544,79.1141323-30.0477385-23.2615647-34.1665862-49.4261727-5.9425544-79.1141323ZM3142.7519782,1559.2102174c-47.0069699,12.1704506-86.7439255-32.4173166-130.7237905-41.3125389,18.1750359-37.4418145,91.7187988,30.2834557,130.7237905,41.3125389,10.2971193-11.7610471,15.7558331,4.8384055,0,0ZM3032.4983647,1483.4209381c-11.8727026-11.9967643-23.7454052-23.8694669-35.6181079-35.9158559,28.4721552-33.260936,79.5979728,3.697038,35.6181079,35.9158559ZM3094.9013889,1492.6263146c-23.1499092-33.9804937,34.4023034,50.046481,0,0h0ZM2971.0754277,1274.7988198c-26.4127313,53.6070512-31.859039,104.5591825-11.6245793,152.8315816-47.4908105,18.4107531-26.1770141-22.5916316-72.7001435-55.8525676,49.5502343-34.5883959.2481234-58.395832,3.1511666-87.8976991,32.7150646-20.0483672,17.3314165,28.3480935,35.1342673,35.928262,21.0780792-66.2117177-14.2919053-126.2451639-7.7538549-190.5215194-38.0373106,33.3849976,2.4316089,58.0360531-35.6181079,91.7808296-13.3242243-76.0249965-20.2344597-152.2360855,5.3346522-232.1318063,48.7066149-9.8132788,14.2919053,56.4604698,38.6452128,75.7148423-11.8727026-152.9556432,152.6578952-364.8529898,342.7451988-436.0892055,56.9443104,49.5502343,50.1581366,106.3084522,67.7252702,160.0395651-26.164608,15.8798948-48.2227744,0-74.2633207,16.0535812,79.5979728,2.7913878,90.254871,57.1924337,104.5467763,124.3098017,4.7267499-5.9425544,9.4534999-11.7486409,1.699645-16.3637354,20.842362-16.1652367,37.1936912,2.0594239,57.9119915-14.1058128-18.0509742-27.1446952-44.2155822,11.2648004-60.8150347-25.2589577,11.2648004-14.5400287-4.7267499-26.1149833-3.027105-39.5012384,81.4092733-5.9301482,179.4179992-1.0297119,207.8901544,64.9338824-51.6096582,24.1796211-94.1255954-16.2272675-144.0480147-.1736863,78.7543534,29.861646,159.5557245,43.2479011,240.0097229,61.4849678,21.9216986,21.5619197,7.9895721,47.0690008,15.1355248,70.2685346-57.0559659-30.3454865-126.8406599-9.8132788-225.7054114-47.3667488.6079022,39.6128939,77.1787701,19.1303108,105.1670847,52.3912468-5.3346522,19.3288095-16.115612,38.8933362-15.5077098,57.6142434-29.6879596,23.6213436-51.0141621-16.3637354-79.0024768-7.394076-9.4410937,38.8933362,56.4604698,12.1704506,74.883629,39.7989864-32.1071624,37.6775317-24.3533075,39.7369556-61.795122,46.4610985-12.4806048-11.8727026-11.016677-25.134896-2.9030433-39.3771767-26.1770141-2.2331102-54.1529226,8.0640091-82.8732011,24.837148-21.0780792-32.1071624,8.5974743-69.9583804,4.9748733-104.2490283-48.0987127,43.0742147-35.630514,101.8298256-59.9714153,158.1042029-57.5522126-17.5051028-7.1583588-46.1633505-45.1956694-82.8111703-10.9050215,14.5400287,4.8508116,25.9909216,2.4192027,39.6253001-19.2543725,29.861646-32.1071624,3.6846318-50.1581366,21.2517655.8560256,21.8100431,55.2446654,11.9967643,23.9935286,61.3112814-25.4450502,13.2001626-45.67951-16.8972006-70.0328174-16.3513292-22.5296008,27.4920679,4.7267499,70.3801901-49.302111,77.2283948,20.8299558,16.1776429,38.6452128,32.9507818.8436194,55.5548196-21.0780792-16.1776429-27.2563507-34.1665862-.8436194-55.5548196-15.5077098-11.7486409-5.3346522-25.9909216-19.6265575-37.7395626-33.558684,30.3454865,15.5077098,51.4359718-26.1770141,82.4513914-61.1748136-7.4561069-8.8455977-58.3462073-36.2260101-91.656768-8.2376954,15.743427-30.2834557,94.4977804-64.090263,62.7007722-14.8998076,15.0238692,14.7881521,24.9488035,2.9154494,39.4888322-56.1006909,33.1368743-21.3262025-68.3331724-35.8662312-91.7684235ZM3687.0974043,981.6658862c25.1969269-29.9857077,42.1561583,4.9004363,62.9985203,9.2053765-18.4107531,17.9889434-36.8339123,35.928262-54.996542,53.7311129-13.9445326-19.7506192,18.7705319-44.5257364-8.0019783-62.9364894ZM3592.7236855,1031.6999611c19.5024958,11.2648004.4838405,26.7104793-13.0885071,41.4366006-3.8831305-7.5677624,2.295141-16.1776429-5.0865288-23.4476572,6.1782716-6.1162407,12.1084198-11.7486409,18.1750359-17.9889434ZM3430.4882288,1177.0878419c1.2158044,10.421181,2.0594239,21.0780792,12.4806048,30.4695482-19.0186553,21.0780792-35.0102056,22.7156933-48.7066149,5.4463077,11.8851088-11.9843581,24.3533075-23.8694669,36.2260101-35.9158559ZM3373.7920418,1247.0462224c19.8746809-7.1459527,37.6775317-1.2033983,53.7931437,18.113005-16.115612,21.9961356-29.1917129,18.8449689-43.3719627,28.4721552-26.164608-12.9024145,3.5109455-32.0451315-10.421181-46.5851602ZM3323.2741264,1268.4344557c-29.4398363,4.1188477-16.3637354-24.9612097-26.4127313-44.8855152,21.3262025-18.5348147,37.4294084-1.1537736,53.7931437,17.9889434-9.2053765,8.9076285-18.1750359,17.9889434-27.3804124,26.8965719ZM3258.2161822,1275.7044701c7.1459527,7.0839218,14.2919053,14.415967,21.437858,21.4998889-16.115612,21.6859814-28.831934,18.7209073-43.3719627,28.6582477-10.6568982-14.9618384-.6079022-31.9210698,21.9341047-50.1581366ZM3217.2634222,1287.9989824c-7.1459527.7939947,10.0489959-1.1537736,0,0h0ZM3049.7057194,1409.939206c-11.8727026,9.3294382-20.7183003-5.8060865-30.531579-12.4806048,9.2053765-9.2053765,18.0509742-17.9889434,27.6285358-27.1943199,5.9301482,12.7783529-5.0865288,27.1943199,2.9030433,39.6749247ZM3069.9401792,1375.7726198c35.0102056-4.9004363,46.8829082,13.5103168,42.7640605,43.1982764-35.6181079,26.7725102-32.7150646-22.542007-42.7640605-43.1982764ZM3163.2221551,1397.5826629c20.7183003,16.2396737,27.0206335,34.1665862.6079022,55.5548196-28.5838107,3.8707244-24.7130863-30.8913579-.6079022-55.5548196ZM3203.5670129,1457.0082068c16.115612-21.9837294,29.0800574-18.8325628,43.3719627-28.831934,6.3023333,12.6666974-4.7143438,27.1943199,3.2752283,39.6749247-17.8028508,14.118219-32.9507818,8.1756646-46.6471911-10.8429907ZM3336.1145101,1482.5773187c-6.0542099,5.7564619-12.2324815,11.8727026-18.1750359,17.8028508-9.4534999-9.8132788-18.6588764-19.3164033-28.2240318-28.831934,5.9301482-5.9301482,12.2324815-11.9967643,17.8028508-17.8028508,9.5775616,9.6271862,19.0186553,19.142717,28.5962169,28.831934ZM3211.92877,1392.2604169c-13.9321265-11.7610471-4.2429094-26.1149833-19.6265575-37.7395626,23.137503-35.0226118,37.4418145.1736863,57.6762743-14.2422807,4.1188477,20.4701769-13.4482859,49.9224194-38.0497167,51.9818432ZM3398.9889686,1491.4849472c-6.1782716,5.9301482-12.4806048,12.1704506-18.4107531,18.113005-4.7267499-4.9128425-9.4534999-9.5155307-14.1802498-14.5400287,5.9425544-6.0045852,12.4806048-11.9347335,18.4231592-17.8772878,4.7267499,4.7887808,9.4410937,9.5155307,14.1678437,14.3043115ZM3295.6455906,1423.1517748c-28.4721552-15.5697406,11.2648004-38.5955881-17.1949486-54.0412671,34.15418-27.3183816,67.7252702,26.1149833,17.1949486,54.0412671ZM3409.1744324,1410.6711699c-8.9696593,8.9076285-18.4231592,18.113005-27.3804124,26.8965719-13.9321265-8.9076285-3.5233517-20.9664236-12.4806048-30.4695482,6.5380504-6.2403024,12.4806048-12.1828568,18.4107531-17.9269125,7.1459527,7.0839218,14.2919053,14.3539362,21.4502642,21.4998889ZM3305.7069927,1342.2139358c-7.6297932-12.4806048,24.9612097-29.3778054,13.4482859-41.4241944,34.7744884-20.1724289,8.5974743,29.6755535,19.2667786,37.8512181-11.8851088,8.0640091-20.2344597-8.1756646-32.7150646,3.5729763ZM3406.1473275,1371.1699315c-7.1583588-7.1459527-14.3043115-14.2298745-21.3262025-21.4998889,9.4410937-9.2053765,18.4107531-17.9889434,27.6161296-27.0826644-3.2628221,16.3637354,23.1499092,29.5638979-6.2899271,48.5825532ZM3500.2729228,1448.5347942c-10.4087748-36.8339123,50.1581366,5.8060865,0,0h0ZM3510.6941038,1367.9071094c-9.5651554,8.8952223-18.4107531,17.8028508-27.3804124,26.7104793-7.021891-7.2700144-14.1678437-14.2298745-21.3262025-21.6859814,8.8455977-8.9076285,17.815257-17.6291645,27.2687569-26.834541,7.1459527,7.2700144,14.2919053,14.415967,21.437858,21.8100431ZM3587.2649717,1391.2307049c-17.8028508,14.2298745-32.5910029,8.1756646-46.275006-10.8429907,17.5671337-13.9445326,32.7026584-8.0019783,46.275006,10.8429907ZM3450.9708119,1270.6179412c19.6265575-7.394076,37.4294084-1.1537736,53.4209587,18.1750359-28.0999701,49.2400801-56.696187,1.32746-53.4209587-18.1750359ZM3542.193364,1308.5435963c5.9425544-6.0045852,11.8727026-11.9347335,18.4231592-18.0013495,4.4786266,4.7267499,8.8455977,9.3294382,13.9321265,14.415967-6.1782716,6.0666161-12.2448877,11.8727026-18.1750359,17.815257-4.9748733-4.7887808-9.4534999-9.5155307-14.1802498-14.2298745ZM3593.8030221,1342.9458997c-7.1459527-7.5677624,5.3346522-16.5994526,10.793366-25.3830194,6.7737676,7.1459527-5.694431,16.6614834-10.793366,25.3830194ZM3508.63468,1256.2640051c-11.6245793-13.9941573-26.164608-4.1808786-37.4294084-19.9367117,15.1355248-14.8377767,30.2834557-29.6755535,45.6671038-44.6994227,16.9592314,19.440465,14.0561882,41.0023847-8.2376954,64.6361344ZM3629.1854128,1251.3511626c-29.4398363,44.1039267-66.8816508,22.1077911-62.6387414-9.3914691,25.1969269-31.1270751,43.979865-13.2001626,62.6387414,9.3914691ZM3572.4892258,1193.5632328c-39.8610173-14.2422807,11.5005176-38.2854339-17.2073548-53.7311129,23.137503-13.0885071,43.3719627-4.7887808,62.8744586,8.721536-33.558684,24.5394-14.7757459,41.4366006-45.6671038,45.0095769ZM3651.4792964,1201.0193397c-17.815257,14.1058128-32.7150646,7.9895721-46.6471911-11.0290832,12.2324815-11.6990163,24.3533075-23.7454052,36.5857889-35.7421695,25.8048291,13.0264762-3.6350072,32.3428795,10.0614021,46.7712527ZM3739.4390264,1199.493381c-16.115612,21.6859814-28.831934,18.5968456-43.3719627,28.3604997-10.421181-14.6640904-.6079022-31.6233218,21.9216986-50.1581366,7.394076,7.3816699,14.3043115,14.415967,21.4502642,21.7976369ZM3654.3823397,1112.9355481c-27.864253,12.7783529-54.6367631,10.718929-78.6302917-7.5677624,34.4147096-40.4068886,66.7575891-65.6658463,92.0785777-33.8688382-1.5755833,13.5103168-20.8299558,28.831934-13.4482859,41.4366006ZM3706.1160596,1147.226196c-30.2834557-15.4580851-7.394076-36.660226-17.2073548-54.1653288,24.6014308-25.9785154,43.979865-8.1756646,62.8868648,9.3294382-33.1989051,24.3533075-14.7881521,41.0147909-45.67951,44.8358906ZM3780.0196013,1131.2346456c-6.7861738.7195577,10.7809598-1.3398661,0,0h0ZM3732.8885697,1064.3529948c-4.2305032-7.394076,1.699645-15.9915503-5.4463077-23.2615647,6.3023333-6.1162407,12.4806048-11.9347335,18.4107531-17.9889434,19.3908403,11.2648004.6079022,26.7104793-12.9644454,41.250508ZM3781.2354058,1059.2044352c-11.5129238-17.0832931,10.6568982-38.3474648-1.2158044-55.7285059,32.9507818-15.445679,39.0173978,37.4294084,1.2158044,55.7285059ZM3781.5951847,931.6318113c-29.1917129,38.88093-47.0069699-7.8779166-74.0276035,16.0535812-25.8048291-13.2745996,3.8831305-32.231224-10.4087748-46.9573453-25.8172353,60.7654101-79.5979728,16.0535812-119.9428306,5.3346522,24.3409013-18.7209073,6.5380504-32.5289721,38.2854339-52.0934987,45.4313866,17.3810411,91.2225521,37.55347,139.929167,32.6530337-20.2344597,46.1509443-11.0290832,27.5044741,26.164608,45.0095769ZM3752.1553484,846.9969344c-24.7130863,26.239045-43.6076799,8.2997263-62.6387414-8.9572532-10.1730576,11.4508929-16.115612-5.3346522,0,0,22.542007-12.9024145,43.3719627-5.0369041,62.6387414,8.9572532,18.6588764-22.5916316,30.531579,10.9670524,48.7066149-5.0865288,10.421181,31.0774504-38.8933362,19.9367117-48.7066149,5.0865288ZM3708.7833856,748.0825582c-51.1258176-23.4476572-120.3026095-1.5135525-142.8446164-72.0302104,52.5897454-40.7046367,127.9448089,18.8449689,142.8446164,72.0302104ZM3750.7038267,735.6019534c47.1310316,28.534186-19.6265575,35.6181079,0,0-47.6148721-28.3480935,19.0186553-35.8042004,0,0ZM3472.048891,598.3897371c48.4584916-24.6510555,88.1954471,18.4231592,134.8426382,9.5155307-18.4107531,35.6181079-95.949302.297748-134.8426382-9.5155307Z"/>
      <path d="M3064.2457481,913.8165543c24.7130863-50.5179154,30.2834557-99.0384378,50.8776943-148.9608572-83.8284761,28.0503455-71.9557734,106.4945447-50.8776943,148.9608572Z"/>
      <path d="M3258.2161822,709.4869701c6.5380504,12.418574.6079022,26.536793,19.0186553,37.6775317,36.8339123-13.4979106-5.3346522-55.8401614-19.0186553-37.6775317Z"/>
      <path d="M2923.4605556,1080.704324c8.9696593-6.3519579,5.694431-11.2648004,2.1834855-16.0535812-9.2053765,6.2403024-5.9301482,11.1531449-2.1834855,16.0535812Z"/>
      <path d="M2923.4605556,1080.704324c-8.8455977,17.3934473,9.5775616,7.7538549,0,0h0Z"/>
      <path d="M2977.0179821,1226.3899529c9.2053765-17.3810411-9.2177827-7.7538549,0,0h0Z"/>
      <path d="M2977.0179821,1226.3899529c-21.0904853,18.2370667-23.509688,34.4767404-5.9425544,48.4088669,9.2053765-16.7855451,10.9050215-33.260936,5.9425544-48.4088669Z"/>
      <path d="M3413.9011824,867.9013272c-6.9102355.7319639,10.6568982-1.0297119,0,0h0Z"/>
      <path d="M3065.2134292,1224.8764004c-8.9696593,8.9076285,1.8237067,15.7558331,4.7267499,23.0258475,8.9696593-8.721536-1.2158044-15.445679-4.7267499-23.0258475Z"/>
      <path d="M3366.3979657,928.9644853c-3.027105,3.0891358-6.2899271,6.0542099-9.2053765,9.019284,9.6892171,6.2403024,12.9644454-5.2105905,9.2053765-9.019284Z"/>
      <path d="M3069.9401792,1247.9022479c-8.8455977,6.5380504-5.694431,11.4508929-1.8237067,16.4753909,8.9696593-6.3643641,5.694431-11.3888621,1.8237067-16.4753909Z"/>
      <path d="M3369.3134152,968.2796311c8.9572532-17.3314165-9.4534999-7.5801685,0,0h0Z"/>
      <path d="M3131.9710183,1201.6148357c-21.6859814,26.239045-12.120826,49.2524863-1.4515216,71.9681796,7.1459527-24.7751172,21.6859814-50.3318229,1.4515216-71.9681796Z"/>
      <path d="M3369.3134152,968.2796311c-8.8455977,17.5671337,9.5651554,8.0516029,0,0h0Z"/>
      <path d="M3306.3148949,1086.9446265c-15.9915503,15.0238692-18.4231592,28.6582477-13.0885071,41.3125389,15.743427-15.0238692,18.1750359-28.534186,13.0885071-41.3125389Z"/>
      <path d="M3201.7557124,1217.9165403c36.8339123,11.016677-4.9624671-50.4682908,0,0h0Z"/>
      <path d="M3568.8542186,970.6988338c38.6452128,17.9269125-17.4554781-39.0670225,0,0h0Z"/>
    </g>
  </g>
  <g id="pea2" data-name="pea">
    <g id="outline1" data-name="outline">
      <path d="M2045.5877134,1123.356729c-256.8572988,72.5636757-391.4518137,281.557979-370.6218579,506.3577402,18.0633804,195.4219557,268.4818781,371.4034465,479.2874819,389.5164515,114.3724613,9.8132788,476.1363153-78.0844203,523.6271258-301.9165004,87.3518277-412.5298928-197.2332562-685.7385209-632.2927498-593.9576912ZM2546.6728323,1298.544225c-18.4107531-12.7783529-42.7640605-19.8746809-43.7317416-48.5205224,18.7705319,12.2945123,43.3719627,19.7506192,43.7317416,48.5205224ZM2492.2717863,1512.8607744c46.0392888-9.2053765,46.6471911,23.3235955,43.6200861,58.3338012-26.0529525,4.1808786-23.3856264-17.8028508-54.8848865-9.6271862-8.3617571-27.6285358,15.7558331-25.3830194,11.2648004-48.7066149ZM2513.9577677,1493.1101552c-.8436194-17.2569795,13.6964093-20.3461152,10.6693043-38.6452128,27.0206335,5.5207447,56.4604698,8.1756646,55.2446654,38.6452128-20.7183003,19.142717-40.3448578,3.2752283-65.9139697,0ZM2502.9410906,1337.4871859c42.5283433-1.9353622,28.831934,90.5650252-21.9341047,68.1594861-1.2033983-30.5936099,0-58.8300479,21.9341047-68.1594861ZM2502.9410906,1435.1981637c1.8113005,17.2073548-13.3242243,20.0607734-10.6693043,38.5955881-19.6265575,1.2033983-22.8893797-11.7486409-43.6076799-9.6395924-1.5755833-17.5671337,13.3242243-20.3461152,10.6568982-38.9429608,22.9017858-3.994786,29.0800574,6.724143,43.6200861,9.9869651ZM2078.2903718,1152.6104728c24.9612097-3.1511666,12.120826,28.0503455,32.9631879,29.2041191,68.9286685-73.0599224,255.7531499-31.7473835,326.6295867,9.5031246-84.5728461,19.9367117-144.9040403-33.856432-218.1996799-38.7072436-22.2938836,2.7913878-21.0780792,26.2266388-43.7441478,29.2041191,24.7254925,16.9592314,61.5469986,23.1995339,87.5999511,38.9429608,9.5651554-31.3131676-28.1123763-20.2344597-32.9507818-38.9429608-45.4313866,9.3914691-2.3075472-29.2041191,0,0,55.2446654-7.096328,75.2310017,17.3810411,109.0378091,29.1296821-13.9321265,23.1499092,1.4515216,17.9889434-10.6693043,48.7066149-95.949302-34.1665862-202.319785-59.4255439-327.3491445-68.3331724,5.694431-30.5936099,62.390618-15.6813961,76.6825234-38.7072436ZM1914.3676762,1220.7575527c23.7454052-4.4786266,21.3262025,13.6343784,21.9341047,29.2661499-8.5974743-1.9477683-10.6568982-9.8132788-21.9341047-9.8132788v-19.4528712ZM1870.6359346,1250.0237026c13.0885071,1.6376142,9.5651554,17.8028508,11.2648004,29.0676512h-32.5910029c3.5109455-12.9024145,19.2667786-15.2595864,21.3262025-29.0676512ZM1772.9869876,1503.1715573c16.5994526-89.8330613,57.3040892-207.41872,152.6578952-194.8140535,41.5482561-143.7502667,288.7039317-64.7601961,403.3121101-29.2661499-12.2324815,44.7118289-30.2834557,83.2950108-43.7317416,126.5553181,44.5877672-20.9664236,46.6471911-124.18574,98.0087259-107.1024469-2.6673261-24.1672149-40.580575-32.5289721-10.6568982-58.3338012,63.2466436,2.5432644,12.2324815,57.7258989,10.6568982,87.4634832,39.5012384-3.8707244,33.3229668-47.974651,54.6491693-68.0230182,40.7046367,8.9076285,14.2919053,78.0844203,21.437858,117.0397873-24.9612097,2.9650741-41.3125389-1.8237067-53.7931437-9.9373404,0,35.4320153,50.7660388,26.1025771,32.3552857,77.7742662-22.7777241,21.5743259-31.9831007-12.2945123-65.3060675-9.3294382-2.0594239,37.0820357,63.2466436,14.3663424,43.6200861,67.9733936,8.721536-2.0594239,12.4681987-8.5974743,10.7809598-19.440465,20.7183003-2.3695781,23.7454052,10.718929,43.6076799,9.3790629-6.1782716,24.0555594-9.2053765,50.4682908-43.6076799,49.0167691-3.2752283-13.0885071-15.5077098-18.5968456-10.7809598-38.955367-12.7287282,2.1214547-17.2073548,10.718929-22.1822281,19.3288095-53.5450204-3.8831305-71.3478712-39.6253001-130.4756671-38.7692745,33.558684,44.575361,115.5758595,45.9152272,163.438855,77.836297,1.6872388,24.1672149-17.2073548,30.1097693-21.4502642,48.8306766-43.6076799,2.8410124-54.8848865-22.7156933-98.2568492-19.7506192,3.2752283,22.8893797,51.6096582,5.8184927,43.3719627,39.0670225,45.67951,12.7783529,0,32.0451315,0,58.3338012-47.6148721-14.1058128,11.2772066-21.7976369,0-58.3338012-16.3513292,10.9670524-27.3804124,10.9670524-43.3719627,0,10.9050215,39.3771767-17.1949486,43.1982764-32.7026584,58.3338012-30.9037641-7.9895721-13.0885071-59.8473536-32.9631879-77.6502045-28.831934,40.0967344,36.5981951,92.6740737-21.9216986,116.9033195-38.6452128-26.7725102-43.979865-114.9679573,0-136.6539387-31.8714452,8.5974743-37.4418145,12.6542912-54.401046-9.5155307-30.0477385,8.7835668,19.6265575,33.8688382-11.0290832,48.5825532-19.0186553.6079022-33.558684-2.2331102-42.9997777-9.8132788,4.4786266,43.2479011-18.4231592,61.6090295-55.0089482,68.1470799-4.3669711-50.8776943-28.2240318-85.3544347-21.6859814-145.9213461-57.3040892,31.3131676,30.2834557,119.3969592,0,175.187496-14.7881521-3.0891358-20.7183003-13.820471-43.6200861-9.5155307v-49.0043629c-22.5296008,2.9650741-2.4192027,43.5580553-32.3428795,38.955367-35.0102056-1.2158044-48.4584916-21.9961356-44.2279883-58.395832,43.0121839-9.6395924,63.8545458,21.8596677,87.2401722,0-70.0328174-40.3448578-5.3346522-125.3395136,32.9507818-155.6229693-58.7556109-16.5994526-81.90552,82.4389853-120.190954,116.6055715-25.9164846-13.6840031-30.0477385-82.4389853-21.437858-97.1651065-50.1581366,4.7887808,8.5974743,57.3661201-11.0290832,97.1651065-57.3040892,9.3294382-48.7066149-40.8907292-65.2936613-68.2091108-29.6879596,9.0813149,15.5077098,30.5936099,0,58.5198937-20.4825831,2.3571719-23.9935286-10.8429907-43.6200861-9.5155307,15.1479309-100.4899595,117.5236279-63.5443916,141.3806886-155.9207173-77.538549-1.6376142-72.811799,71.1741849-141.3806886,77.9603587ZM2187.2165254,1756.2573811c-53.073586-1.8113005-67.7252702-84.2006611-32.9631879-106.9163544,42.1685645,11.091114,39.253115,80.7517464,32.9631879,106.9163544ZM2100.2244766,1688.0482704c19.0186553,8.7835668,37.4294084,18.113005,32.7150646,48.8927074-31.2635429,7.9895721-28.236438-13.9941573-54.6491693-9.6395924-13.4482859-31.7970082,35.258329-7.4437007,21.9341047-39.253115ZM1936.301781,1619.9011905c-1.2158044-17.3810411,13.0885071-20.6562694,10.6568982-38.7692745,19.6265575-3.3868838,19.6265575,54.6367631-10.6568982,38.7692745ZM1881.900735,1668.6078054c12.4806048-38.583182,12.4806048,38.6452128,0,0h0ZM1729.2428398,1522.5003668c7.1583588,6.5380504-4.1188477-3.8831305,0,0h0ZM1740.0362058,1600.3366638c38.5211511,36.5237581,3.7466627,79.7220345,32.9507818,126.9647216-44.3396438-30.7672962-51.373941-79.0521014-32.9507818-126.9647216ZM1795.2808712,1707.7988896c-3.2752283-23.2615647,31.3751985,3.4489147,32.3428795,9.5155307,2.0594239,16.0535812-30.0477385,12.6542912-32.3428795-9.5155307ZM1827.6237507,1658.7945266c-31.859039,2.7293569-37.4294084-18.113005-54.6367631-29.0800574,14.5400287-24.6510555,71.0004985-6.1162407,54.6367631,29.0800574ZM1838.2930551,1649.3410267v-29.4398363c31.7349773-14.5400287,31.7349773,43.4960244,0,29.4398363ZM1859.9790365,1707.7988896h43.6076799c-8.8455977,27.3183816,15.5077098,24.837148,10.7809598,48.4584916-38.6452128,2.3695781-56.8202487-13.8080648-54.3886398-48.4584916ZM1925.6448828,1873.2351376c7.1459527,6.2403024-4.7267499-4.1188477,0,0h0ZM1925.6448828,1824.5285227c-42.7764667,15.3340234-22.6660686-25.4946749-43.7441478-29.3778054,12.8403837-26.164608,57.9119915-.7195577,43.7441478,29.3778054ZM1936.301781,1717.3144203c45.4313866-7.6918241,63.8421397,37.4294084,43.979865,58.5198937-35.0102056-1.1537736-48.0987127-21.9961356-43.979865-58.5198937ZM1958.5956646,1795.1507173c33.7944012-1.5135525,37.0696295,24.9612097,43.0121839,48.7066149-33.8068073,1.4515216-37.0820357-24.7751172-43.0121839-48.7066149ZM1990.9385441,1892.4398854c2.6673261-12.2324815,21.4502642-9.5155307,21.6859814,0-4.4786266,14.3539362-9.4410937-.7939947-21.6859814,0ZM2056.2446116,1746.7542566v48.3964607c-19.2667786,1.4515216-22.7777241-11.8727026-43.6200861-9.6892171,1.8237067-24.6014308,15.7558331-37.6775317,43.6200861-38.7072436ZM2034.5586302,1814.715244h32.4669412c14.1802498,22.9017858-1.5755833,17.9889434,11.2648004,48.7066149-39.4888322,6.1162407-43.1238394-20.1724289-43.7317416-48.7066149ZM2088.9596762,1912.1905046h-32.7150646v-19.7506192h32.7150646v19.7506192ZM2078.2903718,1746.7542566c25.209333,2.9650741,44.8358906,11.3888621,65.3060675,18.9566245-2.0594239,27.6285358-19.0186553,41.9204411-54.6367631,39.0794287.5954961-22.839755-18.6588764-28.6582477-10.6693043-58.0360531ZM2121.9104579,1834.3418015c30.6556407-1.6376142,31.2511368,23.7454052,32.3428795,48.5825532-22.5296008,4.1188477-28.7078724-6.5380504-42.9997777-9.6892171-1.4639278-17.5051028,13.0761009-20.4701769,10.6568982-38.8933362ZM2121.9104579,1912.1905046c10.6568982-30.0477385,28.831934,11.2648004,43.3719627,9.6271862-10.6568982,29.861646-36.8339123-4.3049402-43.3719627-9.6271862ZM2208.9025068,1785.4615002v39.0670225c-22.542007,4.1808786-28.7202785-6.8357985-43.6200861-9.8132788,9.2053765-14.3539362,16.3513292-30.8293271,43.6200861-29.2537438ZM2175.9393189,1853.7946726c.6079022-9.6395924,13.6964093-7.8779166,22.0581664-9.9373404-.6079022,9.5155307-13.0885071,7.394076-22.0581664,9.9373404ZM2230.5884882,1941.2581559h-21.6859814v-19.440465h21.6859814v19.440465ZM2230.5884882,1824.5285227c-14.5400287-29.0676512-15.3960543-70.6903443,11.016677-87.5875449,45.1956694,5.6324002,44.8358906,93.8278473-11.016677,87.5875449ZM2285.2252513,1912.1905046c-19.2667786-9.2053765-37.6775317-18.1750359-32.5910029-48.7686458h32.5910029c-6.1782716,31.2015121,20.5942386,30.1718002,0,48.7686458ZM2274.5683531,1707.7988896c33.558684,7.0342972,20.8299558-26.834541,54.3886398-19.7506192-23.7454052,34.8985501,42.4042817,92.8105416-32.9507818,97.4132298-1.2158044-30.8293271-24.3533075-42.5903742-21.437858-77.6626106ZM2317.9403159,1882.9243547c.5954961-9.3790629,13.0761009-7.5677624,21.6859814-9.6892171-.2481234,9.5155307-13.3366304,7.4561069-21.6859814,9.6892171ZM2350.6429743,1853.7946726c-33.9184629,4.4786266-48.4584916-8.6098805-43.3719627-39.0794287,19.2667786,1.0917428,22.542007-12.1704506,43.3719627-9.9249343v49.0043629ZM2350.6429743,1746.7542566c-6.5380504-38.3474648,9.4534999-56.8822795,21.9341047-78.1464512,22.5296008,8.7835668,33.3229668,28.831934,32.9507818,58.69358-21.0780792,4.0071922-19.8622747,27.4424432-54.8848865,19.4528712ZM2383.2339772,1843.8573322c8.6098805-33.4346223-16.2272675-37.255722-10.6568982-68.0230182,18.7829381.297748,28.2240318-7.5801685,32.9507818-19.5769328,27.9883146,20.9043928,33.558684,91.1729274-22.2938836,87.5999511ZM2405.5278608,1639.3540616c41.5606622,2.4192027,47.8629955,29.1296821,32.3552857,58.395832-33.558684.8436194-32.3552857-29.2661499-32.3552857-58.395832ZM2470.5858049,1804.7903097c-50.5179154-17.517509-29.4398363-82.6995148-11.2648004-116.7420393,57.5522126,7.0342972,29.0800574,92.6864799,11.2648004,116.7420393ZM2481.0069859,1610.3980659c1.2158044,13.2001626-4.7267499,21.2517655-10.421181,28.9559957-20.8299558,2.1090485-23.9811224-11.1531449-43.6076799-9.6395924-9.8132788-37.7395626,26.6484485-34.7744884,32.3428795-58.5198937,17.2073548,1.8237067,75.1193462,35.928262,21.6859814,39.2034904ZM2502.9410906,1697.7498936c3.8707244-11.6369854,29.4398363-7.8779166,32.9507818,0,9.5775616,21.0780792-40.0967344,22.5296008-32.9507818,0ZM2546.6728323,1853.7946726c-4.2429094-4.6026883,7.394076,6.2403024,0,0h0ZM2546.6728323,1668.6078054c-22.0457602-.1240617-14.0561882-26.4127313-43.7317416-19.2667786,10.7809598-23.1995339,19.3784342-47.8505893,65.417723-38.9429608,9.2053765,33.558684-11.6245793,41.0023847-21.6859814,58.2097395ZM2579.8717374,1581.131916v-29.2537438c31.4992601-14.3539362,31.4992601,43.3719627,0,29.2537438ZM2590.5286356,1435.1981637c-54.2769843,8.6098805-45.0592016-32.4049104-32.9507818-58.5074875,34.1665862-1.0297119,32.7150646,29.3778054,32.9507818,58.5074875Z"/>
      <path d="M1925.6448828,1405.646672c-10.793366.4218097-8.3617571,12.1704506-11.2772066,19.5645267,10.6693043-.3101542,8.6098805-11.8727026,11.2772066-19.5645267Z"/>
      <path d="M2285.2252513,1405.646672c-15.7558331,6.0542099,1.2158044,11.6866101,0,0h0Z"/>
      <path d="M2263.5392699,1435.1981637c15.743427-6.4139888-1.0917428-11.8727026,0,0h0Z"/>
      <path d="M2263.5392699,1435.1981637c-15.9915503,5.7564619.9676811,11.3888621,0,0h0Z"/>
      <path d="M2241.6051652,1473.7937519c7.394076,6.3643641-4.4786266-3.994786,0,0h0Z"/>
      <path d="M2100.2244766,1600.3366638c12.4806048,38.583182,12.4806048-38.3474648,0,0h0Z"/>
      <path d="M2481.0069859,1610.3980659v-10.0614021c-11.8727026,2.0594239-5.694431,10.0614021,0,10.0614021Z"/>
    </g>
  </g>
  <g id="pea3" data-name="pea">
    <g id="outline2" data-name="outline">
      <path d="M363.3609798,8.1290839C154.6147998,50.7194581-20.5726962,192.2242084,1.9569046,484.2033684c43.0121839,560.8828478,652.7753329,529.6937419,910.8360301,289.2622092,142.3607759-177.4330124,44.3396438-488.976699-35.258329-587.9034813C792.6019807,80.7051657,555.5077072-31.4217791,363.3609798,8.1290839ZM705.8580552,120.193998c7.7538549,1.9477683,19.0186553.1860925,19.2667786,9.2177827,11.6245793-.7319639,5.694431,13.4979106,0,0-7.394076-2.0594239-18.6588764-.3101542-19.2667786-9.2177827-11.2648004.9180564-5.9301482-13.8080648,0,0ZM715.3115551,353.3555162c-32.5910029-7.4437007-36.4617273,13.9321265-66.5094658,9.5155307,11.6245793-57.1800275,29.6755535-107.9460663,47.4908105-158.5880434,46.6471911,10.3591501,29.1917129,111.5190427,19.0186553,149.0725127ZM686.8393999,362.871047h28.4721552c-5.3346522,16.3513292,11.6245793,54.7608248-9.4534999,55.9766293-34.5263651,8.8952223-13.0761009-36.957974-19.0186553-55.9766293ZM696.2928998,474.7002438c-18.0509742,4.1188477-23.7454052,20.3461152-47.4908105,18.7085011,7.7538549-23.8074361,17.1949486-45.1212324,38.0373106-55.8525676,13.0885071,2.6673261,8.3617571,23.1499092,9.4534999,37.1440665ZM629.7710278,92.031997c42.1685645-1.6376142,3.0395111,36.7718815,0,0-41.7963794,1.8733313-2.295141-36.7098506,0,0ZM249.3482974,110.6908734c-4.1188477-3.8210997,6.1782716,6.1162407,0,0h0ZM230.0939249,129.4117807c6.5380504,6.1162407-3.6350072-3.8210997,0,0h0ZM420.665069,35.9933369c43.979865,18.2990976-14.7757459,55.8525676,0,102.9215684,32.7150646-14.415967,36.8339123-57.1800275,57.068372-84.0145686,61.7827158-7.5801685,77.1663639,29.3778054,114.0002762,46.5851602-15.9915503,5.8060865-15.743427,28.0999701-28.4721552,37.4294084,22.542007,25.8668599,49.3145171,5.6324002,57.068372,55.6664751,28.831934-14.043782-7.7538549-40.8286983,0-65.1695996,74.2633207,34.886144,29.0676512,185.6583016,9.4410937,242.7887045-83.7168205,20.6562694-158.5880434,49.7983577-247.0316139,65.3556922-1.5755833-16.7731389,11.2772066-19.738213,9.2177827-37.2433158-16.3637354-.4962467-24.3533075,6.6621121-28.5962169,18.5348147-10.9050215-14.118219-27.6285358-22.7156933-28.236438-46.6471911,99.2245303-14.3539362,179.4304054-47.8009647,275.6278308-65.4797538-68.3331724-29.8120213-186.8120752,44.8855152-285.0689245,46.6347849,2.9030433-33.4346223,14.2919053-45.0095769,0-74.5610687,42.1561583,1.2033983,58.7556109-23.1499092,94.9816209-28.0503455-46.275006-19.8746809-98.0087259,34.5883959-161.8632717,28.0503455.9676811-12.418574,17.5671337-51.4980027,0-28.0503455-31.1394813-13.8080648,16.115612-26.2886696,18.7829381-37.4418145,29.9236768,6.724143,12.716322,24.9612097,9.4410937,46.9449391,54.0412671-50.2077612,74.883629-132.2993738,124.18574-186.9361369-83.4686972-23.9314978-57.0559659,136.2941598-152.4097718,130.9719138,7.5181377-30.1718002,34.7744884-41.0147909,47.6148721-65.3680983-46.0392888,16.7855451-68.0850491,57.6142434-104.9189614,83.9029131,22.6536625-74.511444,110.4893307-165.4362481,219.167361-186.8244814ZM306.4166694,325.4292324c-23.509688-1.4515216-2.6673261-31.6109156,0-37.4294084,28.4721552,6.2403024-9.2053765,20.0483672,0,37.4294084ZM230.0939249,325.4292324c30.2834557-4.2925341,30.8913579,19.9367117,28.7078724,46.7712527-29.3157746,1.5135525-42.7640605-32.9507818-28.7078724-46.7712527ZM249.3482974,437.5561773c-20.8299558,1.6376142-30.6432346-7.5677624-28.4721552-28.0379393,20.4825831-1.8237067,30.2958619,7.5677624,28.4721552,28.0379393ZM192.2923315,549.3853742c1.8113005-7.5677624,9.2053765-9.2053765,9.2053765-18.7209073h19.3784342c4.3669711,20.0607734-13.6840031,18.0013495-28.5838107,18.7209073ZM201.497708,596.0325653c-20.7183003,1.7492697-29.9236768-7.5677624-28.2240318-27.9262838,20.8299558-1.6376142,30.0353323,7.6918241,28.2240318,27.9262838ZM192.2923315,446.77396h28.5838107v27.9262838c-20.8299558,1.9353622-30.6432346-7.5801685-28.5838107-27.9262838ZM201.497708,260.2472266c16.9592314-3.0891358,17.2073548,52.1059049-9.2053765,37.255722-4.1188477-19.738213,6.3023333-24.7751172,9.2053765-37.255722ZM163.4603975,484.2033684c30.0353323-4.2925341,34.15418,23.4476572,19.3784342,37.3797837-16.9592314-2.1834855-21.6859814-15.9915503-19.3784342-37.3797837ZM163.4603975,530.6644669v18.7209073h-18.9069998v-18.7209073h18.9069998ZM125.5347424,446.77396c2.295141-11.5749546,19.0186553-9.3294382,19.0186553,0-4.2429094,13.4979106-8.3617571-.7319639-19.0186553,0ZM134.9882423,372.2004852c11.016677-36.8339123,11.016677,36.8339123,0,0h0ZM39.9942152,381.5919542c45.0716077,14.1058128-16.1032058,80.7517464,0,0h0ZM39.9942152,474.7002438c4.3669711-25.6931736,33.558684,13.9321265,19.0310615,28.2240318-1.5755833,1.32746-18.4231592-31.6853526-19.0310615-28.2240318ZM77.9198702,512.2537139c40.0967344,12.1704506,0,30.5936099,0,55.8525676-34.0425245-6.5380504-12.9644454-43.6821169,0-55.8525676ZM87.4974318,605.5356898c11.2648004-36.8215061,11.2648004,36.957974,0,0h0ZM77.9198702,269.3409477c4.8508116-41.7343486,29.7996151-64.0282322,47.6148721-93.1703204,36.4617273,17.9889434-20.2344597,78.4441992-47.6148721,93.1703204ZM115.9571808,484.2033684c11.0290832-37.0075986,11.0290832,36.6478198,0,0h0ZM106.5160871,409.518238c11.2648004-36.8339123,11.2648004,36.8215061,0,0h0ZM134.9882423,689.4386029c.5954961-16.0535812-6.7861738-24.1051841-19.0310615-27.8022221,3.6350072-30.7176716,27.9883146-41.250508,38.0497167-65.6038155,18.1750359,1.1537736,6.7861738,31.0154196,28.831934,28.162001-8.3617571,29.4398363-18.1750359,57.1924337-47.8505893,65.2440366ZM192.2923315,736.3215111v-65.6038155c15.1355248-2.6549199,16.3513292,8.9076285,28.5838107,9.5155307-4.8384055,23.137503.2481234,56.2743773-28.5838107,56.0882848ZM220.8761422,633.5860353c24.6014308-5.8184927,34.1665862,3.697038,28.4721552,28.0503455-8.9572532-10.1110268-34.7620823-2.9650741-28.4721552-28.0503455ZM249.3482974,754.9183567c.2481234-9.2053765,11.6369854-7.2576082,19.0310615-9.3790629-.372185,9.0813149-11.8727026,7.1459527-19.0310615,9.3790629ZM268.3793588,530.6644669h-19.0310615v-18.4107531h19.0310615v18.4107531ZM268.3793588,400.3128615c6.1782716,5.9301482-4.1188477-4.0071922,0,0h0ZM277.5847354,698.8921028c.6079022-9.0316902,11.8727026-7.394076,19.2667786-9.4534999-.2481234,9.3294382-11.5129238,7.394076-19.2667786,9.4534999ZM296.851514,577.4357197h-19.2667786v-18.5348147h19.2667786v18.5348147ZM277.5847354,512.2537139c-4.2429094-20.0483672,13.9321265-17.815257,28.831934-18.8449689-4.2429094,11.6990163-12.2324815,19.0310615-28.831934,18.8449689ZM344.7021033,633.5860353h-19.0186553v-18.5968456h19.0186553v18.5968456ZM335.1245418,558.9009049c5.9425544,5.9301482-4.1188477-3.8831305,0,0h0ZM296.851514,455.9793366c-11.8851088-28.236438-7.1583588-36.2260101,9.5651554-55.6664751,16.2396737,11.8727026,37.6775317,19.2543725,38.2854339,46.4610985-23.137503-3.8831305-20.842362,17.0832931-47.8505893,9.2053765ZM363.3609798,465.4824611c16.9592314,8.6098805,32.9507818,17.3934473,28.5962169,46.7712527h-38.4094956c-3.5109455-22.5916316,17.8028508-20.4701769,9.8132788-46.7712527ZM363.3609798,605.5356898c-3.8831305-3.8707244,6.3023333,6.0666161,0,0h0ZM372.9261352,745.5392938h-19.3784342c-2.3075472-14.9618384,9.2053765-16.0535812,9.8132788-28.236438h19.3784342c2.3075472,15.3340234-9.2053765,16.3637354-9.8132788,28.236438ZM401.7704754,624.1945662c-4.2429094-3.8086935,5.9301482,6.1286469,0,0h0ZM382.7394139,558.9009049c-6.5380504-31.4992601,15.9915503-34.1665862,37.9256551-37.3177528-1.4515216,23.6213436-14.1802498,36.1019484-37.9256551,37.3177528ZM439.6837243,577.4357197v18.5968456h-19.0186553v-18.5968456h19.0186553ZM429.8704455,736.3215111c32.1071624-22.7156933-22.7777241,31.0774504,0,0h0ZM411.2115691,670.7176956c3.8831305-32.5289721,19.8746809-39.4888322,47.4908105-27.8022221-8.8455977,16.3637354-17.8028508,32.4049104-47.4908105,27.8022221ZM487.2985964,586.8271887c4.1188477,19.8622747-13.6840031,17.8028508-28.5962169,18.7085011,1.8237067-7.7538549,9.5775616-9.2053765,9.5775616-18.7085011h19.0186553ZM468.2799411,540.1799977c-3.027105-37.1316603,18.0509742-50.5179154,56.9443104-46.7712527-2.3075472,32.231224-28.236438,40.8286983-56.9443104,46.7712527ZM496.7520963,773.4655776c-4.7267499-20.0607734,13.6840031-17.6911953,28.4721552-18.5472209-4.1188477,11.3888621-12.120826,19.142717-28.4721552,18.5472209ZM487.2985964,726.8183866c-26.164608-22.839755,10.6568982-63.8545458,47.4908105-56.1006909-10.1730576,24.6634617-37.8015934,31.6233218-47.4908105,56.1006909ZM506.2055962,652.12085c5.9301482-34.2782417,32.7026584-49.0043629,66.6335274-56.0882848,18.8945936,28.162001-20.2344597,63.2466436-66.6335274,56.0882848ZM553.8080622,521.5831521c-.5954961-31.6233218,21.9341047-40.5309503,37.9256551-56.1006909,25.5691119,19.7506192-7.9895721,59.6736673-37.9256551,56.1006909ZM610.7523726,530.6644669c-1.6872388,29.3778054-17.8028508,44.8358906-47.4908105,46.7712527,17.5671337-13.8080648,14.2919053-48.2227744,47.4908105-46.7712527ZM553.8080622,558.9009049c5.9425544,5.9301482-4.2305032-3.8831305,0,0h0ZM572.8391236,708.0974793c1.6872388-35.4320153,13.5599414-61.2988753,47.4908105-65.1820058-5.3346522,31.8094143-6.9102355,67.9113627-47.4908105,65.1820058ZM620.3299341,428.2267391c-18.4231592,3.8210997-7.7538549,36.0523237-38.0497167,27.7525974v-27.7525974c-29.4398363,72.0302104-127.0887833,22.2318528-133.0189315,65.1820058-27.9883146,2.4936397-33.3229668-17.3810411-47.4908105-27.9262838,48.9423321-41.8584103,146.1074386-37.0075986,199.5408034-74.6851304,16.9592314,2.2455164,21.3137963,16.1776429,19.0186553,37.4294084,17.8028508-19.738213,15.1355248-59.8473536,56.9443104-56.0262539-5.3346522,28.831934-36.4741334,99.64634-56.9443104,56.0262539ZM629.7710278,549.3853742c-1.2033983-29.2537438,24.3533075-31.9210698,47.5032166-37.1316603-3.2752283,25.6807674-28.4721552,54.8228557-47.5032166,37.1316603ZM705.8580552,605.5356898c-20.8299558,1.6376142-30.2834557-7.7538549-28.5838107-28.0999701h28.5838107v28.0999701ZM725.1248338,568.1062815c-1.4515216-11.0290832,5.0865288-4.9128425,9.5651554-9.2053765,44.8358906-44.1039267-4.4786266,51.671689-9.5651554,9.2053765ZM762.8023655,614.9891897c6.5380504,5.9425544-3.5109455-3.994786,0,0h0ZM705.8580552,530.6644669c6.7861738-30.8913579,33.1989051-42.1561583,66.7575891-46.4610985,13.6964093,49.6122652-43.6200861,62.2169317-66.7575891,46.4610985ZM762.8023655,465.4824611c-6.7861738-28.831934,26.164608-18.113005,19.3908403-46.6347849,38.88093-3.39929,6.1782716,54.0288609-19.3908403,46.6347849ZM762.8023655,428.2267391h-9.4534999c1.2158044,11.091114-13.6840031,5.6448064,0,0-.8436194-43.6697108-17.1949486,6.4884258-28.2240318,9.3294382,9.2053765,38.7692745-28.4721552,1.7616758,0,0,.3597789-62.0804638,15.1479309-109.7573668,28.2240318-158.7617298,31.4992601,12.7783529,37.6775317,50.3318229,57.3164954,74.5610687-6.1906777,34.1665862-36.2260101,45.6174791-47.8629955,74.8712229ZM782.1932059,260.2472266c-5.9425544-.7195577-11.2772066-1.5135525-9.5775616-9.5031246-28.7078724-1.7616758,8.9696593-38.7692745,0,0,5.694431.6079022,11.0290832,1.5135525,9.5775616,9.5031246,16.9592314,8.4858188,32.9507818,17.0832931,28.4721552,46.4735047-11.0290832-13.9321265-27.6285358-22.7156933-28.4721552-46.4735047ZM753.3488656,176.1706272c27.864253-23.7454052,50.5303216,37.3177528,57.3164954,65.3680983-35.630514-5.6324002-29.4522424-51.9818432-57.3164954-65.3680983ZM819.8707376,474.7002438c11.2648004-36.7098506,11.2648004,36.9455678,0,0h0ZM838.8893929,446.77396c-12.4806048-2.8534186-7.7538549-23.3235955-9.2053765-37.255722,21.9216986,2.6673261,21.6859814,24.7751172,9.2053765,37.255722Z"/>
    </g>
  </g>
</svg>