<?xml version="1.0" encoding="UTF-8"?>
<svg id="pea" xmlns="http://www.w3.org/2000/svg" version="1.1" viewBox="0 0 4582.6301815 2834.6456693">
  <!-- Generator: Adobe Illustrator 30.0.0, SVG Export Plug-In . SVG Version: 2.1.1 Build 123)  -->
  <g id="pea1" data-name="pea">
    <g id="outline">
      <path d="M842.8102318,548.9576315c-.5277188-.9542312-1.7277368-1.3807436-2.2554555-2.3349748-.5277188.1445805-1.200018.4265124-1.7277368.600009,1.200018.2530158,2.7542582.8530248,3.9831923,1.7349658Z"/>
      <path d="M4553.1935954,2575.2024813c-113.8715875-147.616672-330.5326686-159.33492-468.2600356-204.8705428-118.6065983-39.1090203-234.8709928-76.4903039-344.7955331-120.6524121-215.735766-86.8639535-445.7416255-163.7084796-660.7038859-295.5803371-176.2074622-107.6257107-348.3883581-238.1240536-528.3404548-369.2874667-200.9524117-145.8889352-835.8920558-684.3933979-954.773357-767.4476557-312.3878181-218.5695434-638.9662105-426.2594056-979.2002294-430.9944164,12.4556085-11.0820939,25.4461648-20.1906643,36.1812656-41.0102537-121.9897816-68.126323-212.8513854,83.5819766-322.0602523,26.5377474C183.2702188,294.5610447,177.1978385,113.9800229,75.7890886,0,48.6441031,10.7351008,25.6268904,44.4729562,0,63.008174c97.0713355,88.9531415,108.334155,224.8804815,201.4512144,318.4240532,53.2995946,54.0731002,110.9366037,82.2807522,109.208867,140.7635571-.7084444,28.1353618-63.7093893,108.9703092,18.1448505,225.8419417,32.3643409,5.4723712,44.4729562-42.7090743,63.008174-55.6345694,92.9363337,242.8156902,202.8174999,551.4661029,425.5509612,783.9009145,72.6806082,76.6638005,127.216366,123.5440217,191.4173289,188.4534291,52.0706605,52.5983793,108.334155,106.2449671,165.7615224,154.534848,217.3622964,182.0702008,704.7214136,459.6502679,728.5844221,473.1323978,380.0514836,189.1618734,778.638185,353.5860264,1146.1617698,463.1491155,230.3528527,68.6901869,451.5320738,88.3820485,663.3930829,75.2541408,75.1095603-4.5181401,407.6880427-33.3908623,497.5592702-54.7092543,125.0910329-29.3715249,257.3171126-85.8446611,372.3887181-147.7612524-23.0099837-7.2723982-14.1833453-33.2462818-29.4365861-53.1550141ZM4399.7214139,2486.8132038c-3.8169247,5.5085164-9.6724342-.3542222-15.0363701-1.9084624,3.9470472-5.3639359,9.8097857.1445805,15.0363701,1.9084624ZM786.0551637,427.8136458c191.0341907,32.9643499,355.4511146,140.9442827,523.9958113,243.3072639,244.543427,148.3251163,441.1584242,335.470092,664.2027336,519.3764649,147.4720915,121.9897816,317.2240352,221.8442913,464.3129884,342.2147715,167.1711821,136.7080746,350.9980358,240.7265023,517.3234221,361.5162658,183.7617924,133.6068233,393.7143391,210.8055715,604.1584595,306.3154379,240.661441,109.3895926,501.8677686,173.742365,736.6737001,256.8327679,26.6823279,4.6554915,52.800792,4.8723622,82.3819586,23.718428-25.7642419,1.9084624-53.0899529-6.4266024-82.3819586-23.718428-425.6955417-89.5170053-884.5000138-237.4517544-1322.4776674-517.4680026-73.0637465-6.9181761-100.2448771-66.2901509-164.4169239-96.2255397-66.2901509-30.4631075-139.4984779-68.3359647-188.9883768-120.4355414-89.1627832-22.4822649-121.4909789-116.3077686-222.2346586-143.9804728-113.1631431-123.2982349-384.7142041-285.4524743-495.7953883-429.0136638-49.3453185,19.0990817-48.4633775-58.3454534-97.2809772-50.0176177-25.7642419-13.0556175-9.3543572-33.918581-23.8630085-49.0633865-54.3550321,1.9084624-53.1550141-66.4636475-98.8279884-59.7912583-28.0269264-6.0723802-1.7349658-22.4172037-11.089323-32.1257831-27.000405-31.3739646-42.2102717-.0650612-67.3094433-21.3545372,13.5182751-2.6819679,16.6267554-14.8917896.1734966-24.3907273-117.327061-53.1550141-190.8896102-137.3442287-298.869543-188.0269166-112.6643405-104.0979469-287.8163652-138.5442467-413.0881237-224.9238556-41.1909793-15.2821569-117.1535644-9.0724252-131.3802838-48.5356678-43.5910153,24.1449405-66.7817246-3.5277638-112.808921-3.1735416,23.8557795-34.2728032,92.408615-28.7353708,137.5900155-21.0364601ZM3772.5457417,2551.1948923c7.2723982-21.4557435,22.3087683-1.7638819,31.8366221-10.7278718-4.5181401-32.5450665-41.3717049-13.9086424-56.2634945-14.0459938-11.9278898-25.7714709,23.5810766-10.3808786,30.1450305-20.2629545-27.5353528-16.9448325-50.407985-8.9639899-76.6710295-19.9087323,10.5182301-11.7182481,26.8269084-15.7448145,22.807571-33.3908623-13.2724882-2.7542582-26.6172667-4.6627205-41.0174827-11.9351188,57.6731542-33.0366401,150.7902135,59.726197,186.935334,111.2619098-30.6366041,11.0820939-64.2371081,4.6627205-97.7725508-.9903763ZM3794.7099296,2590.9400668c.9903763,6.2820219-1.0554375-3.9542762,0,0h0ZM3784.9724341,2592.7039487c-3.8169247,5.3711649-10.0266564-.3469932-15.0363701-2.110875,3.8096957-5.3711649,10.0194274.3469932,15.0363701,2.110875ZM3723.4100649,2550.8406701c-7.2723982-11.0820939,6.2097317-10.7278718,11.7182481-17.3641159,7.1278178,11.0820939-6.2097317,11.0820939-11.7182481,17.3641159ZM3667.2839219,2512.2304525c15.9544562-10.5905203,33.2535108-14.0532228,53.0176627-5.0169427-13.9086424,22.1714169-33.4631525,13.8363521-53.0176627,5.0169427ZM3667.1465704,2536.7946763c1.0554375,6.2097317-.7084444-3.9542762,0,0h0ZM3652.1102003,2534.5392208c-4.0265664,7.4820399-10.3808786-2.0530428,0,0,4.1639179-6.9181761,10.5182301,2.2554555,0,0ZM3416.7404049,2398.4962164c4.1639179-3.4554735,7.6266204-11.0098037,13.1351368-7.5543302,5.8555095-11.2917356,14.8917896-8.1832553,20.9641699-18.3544922-4.0265664-11.7905383-42.7813646,13.489359-62.126233,6.5639539-87.0446791-194.8800315-361.0246922-319.1252685-529.9597562-246.7988825-6.00009,9.7085794-14.1905743,11.4363161-22.6629905,9.000135-2.400036,3.2819769-5.3639359,6.2458768-9.1808606,1.7277368-4.0916276,7.2723982-10.5182301-2.0819589,0,0,2.4723262-3.1012513,5.3639359-6.0362351,9.1808606-1.7277368,5.2193554-7.9446975,11.0820939-10.3808786,17.1544742-12.9905563,1.9084624,1.2361631,3.600054,2.6096777,5.5085164,3.9904213,33.1089303-23.0172127,70.6637105-23.5449315,102.5003326-53.6538168-65.4371261,16.0990367-128.4091549,43.9813826-192.7980725,65.7624322,14.8990187-51.3983613,81.1168793-52.0634315,115.7800499-85.3169423-27.3907723-14.1905743-82.2446071,46.9091373-126.3633411,28.7353708-10.3808786-45.8536998,46.0271964-47.5886656,72.00108-57.4707415-106.9461824,26.5088313-80.2638545-56.7550681-148.6721095-143.0985319-90.5001526-113.5173653-202.9620804-122.0259267-322.0602523-154.0360454-3.4554735-4.1350018-3.1012513-9.3182121,2.0819589-15.2170957-87.5723979.3542222-166.6362343,47.40794-252.661621,57.4635125,61.0997116-46.9091373,128.9441027-57.9912313,192.7980725-90.008579-66.9913663-2.5735326-124.4259627,47.7621622-190.535388,50.5525655,20.2268094-58.4900339,88.5989193-56.9357937,129.0814542-92.7700662-46.0271964-2.0819589-83.2349834,42.5717229-130.4621978,34.2800322-6.4193734-39.1090203,36.8535648-44.1621082,61.0707955-65.0901329-24.7449495-10.9085974-42.0440041,19.9087323-67.6708945,2.9277548,2.4361811-28.5185,18.00027-9.1447155,32.3715699-35.4728212-15.2170957-11.400171-24.7449495,6.2458768-37.9090023,7.2723982-40.3162674-151.6070933-253.0158432-321.7783204-419.3050844-336.3231169,18.8460658-11.0098037,41.1909793-4.7639269,60.3912673-15.9183111-104.5172303-.7084444-201.9717041,34.4173837-300.1057062,66.0805092,59.9069227-79.6710745,137.7707411-63.92626,202.6873775-116.1993333-60.0804192,8.4651872-114.2258097,48.8103707-175.6797435,52.4465698,23.8919246-65.5817066,94.1363517-57.2827869,138.4358114-94.1363517-45.318752-8.5808516-79.5987843,43.7717409-125.9802029,28.3811486,3.8169247-39.7090293,53.6538168-34.8800412,75.6445081-63.0804642-25.800387-7.0266114-46.5549152,12.1086154-69.7456244,18.1448505-8.6459128-24.2172307-7.800117-42.5717229,17.8267734-62.0177977-14.7182931-16.0267464-21.6364691,8.1181941-35.8270434-7.8724072-45.007904-175.8532401-254.750809-330.2145915-434.7318218-313.6962715-94.8447961,8.7543482-168.0531231,54.9622702-247.4711817,61.1720019,16.4460298-43.0632965,85.6639355-63.6732442,136.527349-79.4180587,54.8899799-16.9448325,118.0355054-18.600279,164.2434274-35.718608-59.5093263-6.2531058-114.0450841,17.8195444-169.9254403,32.0101187-55.208057,13.9086424-111.1173293,35.8993336-167.8796265,41.2632695,84.7892236-59.6900519,178.0797795-74.1625582,268.4064355-104.1991533-105.3991713-5.9639449-196.9258453,60.2539158-298.1610987,75.5722179,106.9534114-71.1552841,220.6515024-106.6353344,341.6147625-103.3172123,23.6822829,25.2437521-35.2993246,3.9542762-43.4536638,27.7449945,129.7898985-14.0098487,277.4065705,92.5170503,383.8684083,171.8700478,299.5346133,224.2804725,607.9392391,495.5423725,898.683359,729.1844311,445.8139158,358.9427332,902.8545059,594.9775989,1372.177208,781.9201619-82.1723169-3.4627025-159.6891422,16.7279617-233.8155552,53.5815266-2.1903943-.9903763-3.9542762-2.5446165-5.8555095-3.7446345-4.1711469,3.4627025-7.6266204,11.0170327-13.1351368,7.5543302-16.6629005,36.5716329-25.9811126-14.3279258,0,0ZM3045.3348341,2292.2512493c11.9351188-16.2363881,43.6271604,8.3278358,24.2172307,24.918446-17.089413,3.6723442-14.6821479-13.4821299-24.2172307-24.918446ZM3050.3517769,2345.1966218c-2.407265,3.8169247-5.1542942,7.6266204-7.7712009,11.2989647-3.6723442-2.4723262-7.4820399-5.2265844-11.2917356-7.6266204,2.6096777-3.6723442,5.0820039-7.4820399,7.8362621-11.2266744,3.600054,2.5446165,7.4097497,5.1542942,11.2266744,7.5543302ZM2993.097906,2248.6602341c19.5545102-3.1084804,29.718518,23.1907093,21.9545462,39.6367391-17.2990547,2.5807616-35.4439051-21.9906913-21.9545462-39.6367391ZM2995.9895157,2316.4684801c-2.7542582,3.8096957-5.0097137,7.2651692-7.7639719,11.0820939-3.600054-2.400036-7.2723982-5.0169427-10.8724522-7.6266204,2.400036-3.7374055,5.0097137-7.5543302,7.5543302-11.0459488,3.8096957,2.2554555,7.1278178,5.0458588,11.0820939,7.5904753ZM2925.7450886,2202.8065343c3.8169247-5.5446615,9.8820759,0,15.0363701,1.9084624-3.9542762,5.3639359-9.6724342-.3542222-15.0363701-1.9084624ZM2881.9733477,2254.8699658c20.7617572-12.9544112-1.0554375,31.1715519,0,0h0ZM2925.2535149,2251.5879888c-25.4895389,8.8266384-9.1808606-35.118599,0,0h0ZM2961.890209,2186.0062823c5.0820039-12.2821119,30.8534748,9.3543572,12.8532048,17.2918256-3.8169247-2.7542582-7.489269-5.1832103-11.2266744-7.5904753,4.3012693-4.3374145,1.5542402-7.0916726-1.6265304-9.7013503ZM2898.4266065,2290.8777348c1.200018,5.8916546-.7084444-3.9904213,0,0h0ZM2940.7814587,2229.2792205c11.4363161-12.4628375,21.6726142,14.5447965,8.8266384,22.4822649-6.00009-6.9181761-1.9084624-15.5640889-8.8266384-22.4822649ZM2935.9813867,2308.2057055c-6.4193734-8.6820579-8.3278358-18.00027-14.7544382-26.6823279,13.3447785-16.4171137,34.0993066,9.7013503,14.7544382,26.6823279ZM2991.3267951,2239.1251513c-5.5012873-3.9542762-11.2194454-7.7639719-16.800252-11.5736676,3.8169247-5.5446615,7.6266204-11.0820939,11.4363161-16.6267554,12.9905563,7.2723982,14.7544382,16.6267554,5.3639359,28.200423ZM3001.3534516,2188.4424634c2.4723262-3.6361991,5.2265844-7.6266204,7.8362621-11.2628195,3.2458318,2.6096777,7.2723982,5.0097137,11.0820939,7.800117-2.6096777,3.8096957-5.2193554,7.4458948-7.8362621,11.2266744-3.8096957-2.5807616-7.6193914-5.3639359-11.0820939-7.7639719ZM2953.2804413,2270.7882768c14.8917896-17.2918256,33.8824359,14.2267194,20.2629545,30.2896109-14.407445-8.8266384-11.089323-20.7545282-20.2629545-30.2896109ZM3167.5342574,2293.9789861c19.5617392,9.3543572,16.5906103,22.8364871,25.9088223,34.1354518-7.4097497,19.9087323-22.6557615.1373515-30.2823819,20.1906643-21.9545462-10.3808786-.4915736-29.0173027-22.0991266-39.7813196,7.6266204-11.0459488,19.9087323,3.4916186,26.4726862-14.5447965ZM3131.8879396,2286.0415177c.1373515-31.1715519-17.1544742-58.4900339-30.9908263-86.8711825,47.0826339-10.3808786,47.0826339,54.6731092,68.6901869,79.9530065-10.5182301,13.4821299-23.0172127,15.9183111-37.6993606,6.9181761ZM3102.0971313,2257.3061469c-39.4632425,24.5642239-42.4271424-47.40794-48.0802392-73.7360457,42.5717229,19.5906553,24.3545822,50.5453365,48.0802392,73.7360457ZM3029.2430265,2231.8527531c-13.3447785-7.0916726-14.8990187-16.5833813-5.3711649-28.200423,12.7809146,7.6266204,14.5447965,16.9809776,5.3711649,28.200423ZM3034.8166041,2235.8431744c20.400306,10.9085974,30.4269624,23.5449315,12.5640439,41.5452015-19.200288-11.0820939-22.4461198-25.0919426-12.5640439-41.5452015ZM3026.4887683,2295.8874485c13.1279078,11.2628195,11.9278898,32.3643409-7.9808426,35.8270434-2.6096777-6.0723802-5.1542942-11.9278898-13.1279078-16.9448325,5.7181581-13.3375494,13.9737036-12.4556085,21.1087503-18.8822109ZM3082.8896143,2285.3330733c6.0723802-10.3808786,15.0435991-7.2723982,20.9713989-18.4990727,10.7278718,6.0362351,7.0555275,14.689377,18.2822019,20.9352538-8.8266384,26.7907633-35.7908983,15.9183111-39.2536008-2.4361811ZM3087.7619765,2362.7053181c-19.5545102,3.600054-28.3739196-19.5545102-16.4460298-36.1451205,13.8363521,10.3808786,28.0269264,20.7545282,16.4460298,36.1451205ZM3125.9529108,2306.7960458c6.7808246,14.8917896,22.1714169,28.2365681,9.0362801,46.8729922-6.9181761-.8457958-13.1279078-1.8361721-19.0557075,3.6723442-23.1545642-16.2363881-10.3808786-39.1090203,10.0194274-50.5453365ZM3164.4330061,2382.2598283c-11.6531868,19.0629365-41.0174827,11.2266744-44.8271784-6.2097317,12.7736856-13.200198,41.0102537-12.9905563,44.8271784,6.2097317ZM3217.3783785,2377.3874661c-15.3905923,5.0169427-29.4365861,16.0990367-48.8537448-.8457958-1.3373695-38.0535828,46.9452825-31.6992706,48.8537448.8457958ZM3230.3689348,2394.4045888c-7.8362621-58.526179-68.7624772-117.016213-56.2634945-170.135082,81.8180947,18.4918436,148.1082456,124.2452371,107.3004046,155.5902855-16.9376034,12.7809146-4.8651332,3.8096957-20.7545282-5.9277998-2.9638999,21.8099657,12.289341,40.0271064,16.2363881,60.4274124-26.8269084,12.2821119-58.51895-1.200018-91.7001706-21.6726142,11.7182481-22.800342,29.2269444-17.4364061,45.1814006-18.2822019ZM3275.6876868,2400.4046788c6.7085344-5.7181581,15.5351728-1.9084624,22.3087683-8.8266384,1.7638819,14.1905743,21.9545462,24.918446,3.3181221,43.2801672-24.918446-8.4724162-6.2820219-25.2798972-25.6268904-34.4535288ZM3322.5679081,2391.5780404c17.2918256-13.1279078,10.5905203,16.6629005,18.7087144,20.9713989-17.1544742,13.4821299-17.5086964-15.3905923-18.7087144-20.9713989ZM2897.5808107,2207.9969736c20.7545282-12.9905563-1.0626665,31.4823999,0,0h0ZM2864.8188735,2267.8605221c-2.6096777,3.6361991-5.1470652,7.4458948-7.6193914,11.2628195-5.3639359-3.9904213-11.2266744-7.807346-16.7351908-11.6170417,2.5446165-3.6361991,5.0169427-7.4097497,7.5543302-11.0459488,5.7181581,3.6361991,11.2989647,7.4097497,16.800252,11.400171ZM2838.7004095,2233.5877188c-7.9736136,6.4193734-4.5181401-3.7807796-10.8724522-7.7639719,6.3543122-6.0723802,14.689377,2.0819589,10.8724522,7.7639719ZM2802.9095112,2250.2144743c-4.1639179-4.3446435-6.7808246-1.5542402-9.5278538,1.7277368-5.9350288-5.3639359,2.400036-13.3086334,6.0651512-20.5810316,10.8724522,4.4819949,7.5543302,11.5808966,3.4627025,18.8532948ZM2794.5816755,2154.1624311c21.8099657-17.6460478-8.689287,26.6534118,0,0h0ZM2632.9117807,2125.9620082c-13.4821299,21.2822469-4.3012693,20.2268094-22.6557615,33.5715879-23.8630085-42.7452195-11.9351188-92.2351184-39.9620452-133.9610454-6.0723802,43.4536638,21.1087503,80.4807252,4.3084984,125.9802029-42.2175007,3.9904213-91.3531775-34.7643769-59.3719749-81.5000176-19.6990907-7.9446975-13.2724882-3.4627025-28.0269264-19.207517,9.6724342-17.4725512,24.4268724-8.4651872,34.4535288-26.118464-18.7087144-19.3810136-25.9811126,18.318347-45.1814006-6.2458768,5.7181581-11.0820939,14.5375674-7.9446975,20.6099477-18.3544922-25.2726682-22.489494-38.7547982,17.3279707-63.8901149-2.7542582-1.6915916-29.0823639,35.2993246-23.1907093,51.2537808-38.7547982-7.6193914-23.8991536-44.118734,22.1280427-67.6998106,2.9277548-9.9905113-28.5546452,21.6726142-29.5811666,40.0271064-46.5621442-24.4268724-11.400171-45.1814006,24.7449495-60.0731902-8.1181941,15.9544562-27.3546272,38.400576-19.200288,56.9647098-35.4728212,3.8169247,2.7542582,7.4169787,5.1904393,11.089323,7.9446975-2.4723262-9.3182121,12.4194634-21.7810496-5.2265844-28.3811486,97.4255577-75.2541408,237.4156092,99.8617388,225.4804905,187.0799145,14.8990187,11.0820939,17.6532768-1.5542402,22.3087683,15.4267374-7.4097497,19.6918616-20.7545282,9.4917086-28.5185,29.5811666,18.1448505,20.2557255,38.0535828-6.0723802,43.2729382,21.2822469-23.0099837,25.6268904-53.6538168,10.0266564-81.326521,10.3736496,5.8627385,29.7618922,43.0632965,4.8362171,63.8178247,27.007634-17.7833993,7.9736136-34.2366581,25.6268904-54.8466058,20.0822289-19.5545102-9.3543572-4.5181401-25.0991716-16.807481-35.8270434ZM2598.819703,2176.333848c7.9736136-9.000135,18.2099117-6.2458768,29.7908083,4.1277728-9.1808606,19.200288-27.6727042,10.3808786-29.7908083-4.1277728ZM2583.7761039,2174.2518891c-10.5182301,4.8362171-23.718428-4.1639179-35.7908983-7.800117,10.3808786-17.1255581,34.4535288-1.5542402,35.7908983,7.800117ZM2501.3941454,2126.1355047c-18.9906463,2.089188-32.3354248-7.6193914-43.0632965-20.9641699,5.7181581-13.3086334,14.1905743-12.2821119,20.8991086-18.8460658,17.5014673,11.6098127,13.9014133,27.000405,22.1641879,39.8102357ZM2456.7766087,2071.288899c3.9542762-5.7181581,7.6266204-11.2628195,11.7182481-17.1544742,21.8171947,3.1012513-.8457958,36.3547622-11.7182481,17.1544742ZM2332.3145009,1928.6819407c18.88944-14.0459938,40.3451835-11.9640349,64.208192,2.400036-18.1448505,11.0820939-52.7718759,32.718563-64.208192-2.400036ZM2316.5769154,1999.8083087c29.0823639-12.1447605-4.489224,24.3907273,0,0h0ZM2258.0868815,1844.745742c-8.1181941,6.5639539-4.4819949-3.8169247-11.2628195-7.6266204,6.4266024-5.8916546,15.0725152,2.0819589,11.2628195,7.6266204ZM2285.0872865,1805.6367216c-.8819409-3.8169247,1.200018,6.2097317,0,0h0ZM2196.9871699,1934.5446792c5.3639359,3.9831923,11.0820939,7.800117,16.6195264,11.6098127-2.5735326,3.4627025-5.0097137,7.2723982-7.6193914,11.0820939-5.6820129-3.8096957-11.0531778-7.6193914-16.5906103-11.6098127,2.400036-3.6361991,5.0097137-7.4531238,7.5904753-11.0820939ZM2236.9781311,1887.982535c21.6364691-17.6460478-8.8266384,26.6534118,0,0h0ZM2315.3768974,1785.3737671c28.7281417-12.2821119-4.5181401,24.0726502,0,0h0ZM2264.6508354,1931.6096954c-7.0916726,21.1087503-22.3087683,1.7349658-31.8366221,10.7351008-5.5446615-6.9181761-7.0989017-14.8990187,0-24.2172307,9.7013503-.3542222,20.0822289,2.9277548,31.8366221,13.4821299ZM2429.7400586,1822.2201029c-.9903763,13.5255041,9.3905023,24.607598,16.4460298,36.1812656-18.4918436,22.489494-43.9452375,9.1808606-69.5359827-6.7374505,11.5808966-42.0801492,39.607823,2.0819589,53.0899529-29.4438151ZM2475.1311008,1804.2198329c17.4364061,16.6267554-15.4556535,28.4172937-30.4992526,20.4364511,7.7712009-21.2822469,19.4171587-18.00027,30.4992526-20.4364511ZM2361.4040938,1874.3196795c5.5374325,3.8169247,11.2555905,7.4531238,16.800252,11.4435451-12.9905563,17.8195444-44.2994596,16.4098847-48.9910963-.5349478,8.2916906-15.9183111,24.5642239,10.3808786,32.1908443-10.9085974ZM2306.7237556,1870.0184102c6.3904573-10.5905203,15.2170957-7.2723982,20.9352538-18.5352178,12.8098307,15.3905923,19.9087323,1.9084624,31.8366221,13.489359-17.118329,4.8651332-32.6824179,15.7737306-52.7718759,5.0458588ZM2384.5948031,1816.1838678c3.1012513,2.2265394,3.2819769,9.007364-3.8169247,5.7253871-3.9831923,7.0916726-10.7278718-2.089188,0,0,1.2361631-1.9084624,2.6169067-3.8169247,3.8169247-5.7253871-9.7085794-8.4651872-16.800252-2.0819589-26.2991896-9.8820759-3.1084804-24.5642239,30.4631075-12.1013863,45.3259811-18.00027,4.8651332,7.0989017,8.6820579,14.5447965,9.1736316,22.51841-5.0097137,25.9449675-21.1087503-9.5278538-28.200423,5.3639359ZM2346.8592973,1823.456266c-6.2097317,10.3808786-14.6821479,7.0989017-20.9280247,18.4990727-21.8171947-.3542222,5.8916546-31.8366221-12.9905563-16.9448325-11.0531778-19.7280067,22.1641879-18.1737666,33.918581-1.5542402ZM2287.6680481,1897.6911144c7.6193914,5.3639359,14.8917896,10.3736496,22.51841,15.5640889-7.6266204,21.4629725-23.8991536-4.8362171-32.1908443,10.9085974-6.3904573-6.7446795,5.0097137-17.118329,9.6724342-26.4726862ZM2277.2871695,1973.1548969c-3.8096957,5.5446615-7.5904753,11.2266744-11.2266744,16.5906103-16.4460298-6.5639539-28.5546452-5.1832103-14.7182931-26.2919606,9.3543572,7.6193914,16.2725332,1.200018,25.9449675,9.7013503ZM2300.3043822,1939.4098124c9.3543572,6.3904573,18.7087144,12.7809146,28.0558425,19.207517-7.4458948,18.6725692-55.200828,5.3639359-28.0558425-19.207517ZM2394.3033825,1946.3279885c18.9906463,6.0362351,9.3182121,17.8267734,24.0726502,24.7449495-21.8533398,5.3639359-40.5259091,25.9449675-65.7985773,12.4628375-2.0819589-18.3544922,27.1811306-27.000405,41.7259271-37.207787ZM2353.95097,2017.1001344c10.5543752,6.2169607,7.2723982,14.8990187,18.5352178,21.1087503-10.200153,13.8363521-22.8364871,16.0990367-37.5547802,7.0989017-2.2626845-12.2821119,6.9181761-25.6268904,19.0195624-28.207652ZM2374.5681467,2023.3170951c-3.1446255-24.2172307,27.8534298-24.7449495,42.0367751-37.3812836,9.889305,4.8723622,5.8627385,11.9640349,12.7809146,17.3279707-16.2363881,16.7713359-31.9812026,37.7355058-54.8176897,20.0533128ZM2451.9042464,2018.480878c15.607463,27.7088493-39.9548162,42.5717229-60.918986,40.6632605.8819409-28.5546452,43.4825799-18.00027,60.918986-40.6632605ZM2424.7303449,2082.1541222c28.0196974-.6650702-26.1256931,9.3543572,0,0h0ZM2689.0379237,2188.4424634c-11.4363161,9.6724342-24.2822919,10.3736496-36.2174107,16.9376034-8.2555455-13.1279078,23.2268544-30.2823819,36.2174107-16.9376034ZM2690.0283,2246.9252683c-19.6990907-17.6460478-34.2438871-8.4651872-54.1453904-28.9088673,16.9376034,1.9084624,75.4637825-2.5735326,54.1453904,28.9088673ZM2701.8188383,2205.734289c2.400036-3.8096957,5.2193554-7.6193914,7.7639719-11.2555905,4.1639179,4.3374145,6.9181761,1.4096597,9.3905023-1.7349658,12.4194634,5.1904393-9.0362801,30.9908263-17.1544742,12.9905563ZM2258.6146002,1796.2823644c-3.4554735,5.1832103-7.6266204,11.0820939-11.2628195,16.6195264-5.5374325-3.9831923-11.400171-7.800117-16.9376034-11.7833093,4.4819949-9.8531598,11.9278898-5.8627385,16.9376034-12.8170597,3.6361991,2.7904033,7.6266204,5.3639359,11.2628195,7.9808426ZM2179.5146186,1815.656149c3.9831923-3.8096957,9.3543572-1.7277368,13.1640529-7.2723982,3.8096957,2.4361811,7.6266204,5.1904393,11.400171,7.6266204-5.6820129,13.8363521-15.3905923,5.1904393-24.5642239-.3542222ZM2173.2976579,1860.8375496c-3.8096957,5.3639359-9.8820759-.5277188-15.0725152-1.9012333,3.9904213-5.5446615,9.7085794.3469932,15.0725152,1.9012333ZM1879.7992798,1676.8661155c-6.0723802-5.3639359-11.7905383-10.7278718-3.4988477-18.8460658-16.0918076.8457958-27.4919786,26.118464-46.8729922,8.8194094,56.7550681-46.0633415-56.9357937-96.926755-33.918581-154.6360544-55.7357757-4.5904303-61.7720109-92.1628281-100.3894576-117.8620088,41.3644759-19.3810136,77.8638185,54.608048,106.1076156,97.1725418,27.6727042,42.2175007,43.7645119,95.3797439,81.326521,121.3247113-42.3982263-96.1532494-131.1706422-183.624441-160.2530061-282.1777264,70.0998466,73.208327,121.3174823,149.6986309,164.735001,227.8154652,5.3639359-48.2537358-68.5166903-123.9633051-97.7797799-181.8533301,42.0801492-21.8171947,81.5433918,55.3454084,99.015943,83.9000536,15.9183111-19.200288-9.007364-30.7811846-18.5352178-45.4994776,8.4724162-14.1905743,17.8267734-27.5281237,28.9088673-29.6823729,34.5908803,48.4633775,88.7724159,64.7359107,116.6258457,129.3633861-7.2723982,19.9087323-19.3810136,16.4532588-28.3811486,29.6896019,14.8990187,41.0825439,36.7089843,80.9000086,19.2364331,128.3079486-40.51868,9.8820759-86.726602-10.3808786-126.327196,4.1639179ZM1883.2547533,1720.1390537c-26.8269084-9.3543572-15.7737306-36.3547622,2.400036-39.4632425,18.1809956,9.6724342-.8457958,26.1256931-2.400036,39.4632425ZM1859.0086065,1695.5748298c-10.200153,11.7543932-23.5449315,2.400036-26.2991896-9.7085794,10.7278718-12.1086154,23.8991536-2.7904033,26.2991896,9.7085794ZM1814.1814281,1664.7575001c-25.2437521-16.2725332-8.2989197-40.6632605-6.7446795-62.126233,20.2629545-4.3374145,11.7905383,18.4990727,29.9353888,28.5618742-17.4725512,2.7542582-5.1904393,17.2918256-23.1907093,33.5643589ZM1784.4195359,1636.2028549c-18.3544922-18.00027-8.2916906-60.7454894,6.5711829-69.3986313,9.7013503,20.7617572,7.9736136,43.9524665-6.5711829,69.3986313ZM1689.928962,1341.56952c14.5447965,8.7182031,11.4363161,20.689467,20.4364511,30.6366041-18.3544922,17.6532768-34.9812476-14.1182841-20.4364511-30.6366041ZM1650.8199417,1471.0051964c-2.0819589,5.4723712-5.7181581,3.7084894-9.5278538,1.8361721-3.6361991-2.6819679-7.2723982-5.3639359-10.8724522-7.800117,3.7735506-5.5374325,7.7639719-11.2555905,11.5736676-16.8725422,5.8988837,6.9904663,1.9084624,15.9183111,8.8266384,22.8364871ZM1692.3651431,1302.1062775c16.0990367-13.2363431,9.000135,16.8725422,27.8462008,19.3087233-10.200153,11.8266834-26.6461828-13.7640619-27.8462008-19.3087233ZM1671.5744698,1320.7065565c20.7906733-12.8821209-1.200018,31.4173387,0,0h0ZM1655.6561588,1391.9052148c-20.400306,3.9904213-23.0172127-20.400306-16.5906103-35.718608,14.0098487,10.3013593,28.0269264,20.5738026,16.5906103,35.718608ZM1565.6837249,1511.3214638c-3.8169247,5.5374325-9.7085794-.2530158-15.0725152-1.9084624,3.9831923-5.4362261,9.8820759.2819319,15.0725152,1.9084624ZM1575.5296557,1484.9499839c21.6364691-17.4725512-8.6459128,26.8269084,0,0h0ZM1615.6941136,1414.1416929c16.5906103-10.9736586,24.3907273,30.8173297,5.3711649,28.1353618-14.1905743-6.9904663,5.0097137-20.400306-5.3711649-28.1353618ZM1657.0658185,1401.4330685c19.0267914-20.400306-27.1811306,29.8630985,0,0h0ZM1644.921058,1491.6223731c-18.8460658,30.00045-40.1283127-11.4363161-29.7546632-28.6630805,2.2626845,11.0820939,15.7448145,19.7352358,29.7546632,28.6630805ZM1612.4121367,1526.993988c24.7449495,11.6821029,16.4171137,29.4365861,9.000135,47.0826339-14.8917896-6.9181761-5.0458588-18.3544922-23.8919246-24.7449495,4.8362171-7.5471012,10.0266564-15.000225,14.8917896-22.3376844ZM1673.1648551,1486.3307275c1.200018,6.0651512-.7084444-3.8819859,0,0h0ZM1687.1747038,1429.9949427c7.2723982,5.1181491,14.8628735,10.1278628,22.489494,15.2460118-4.8362171,12.3544022,2.2554555,22.3810586-8.2989197,35.718608-11.2628195-15.8460208-36.7089843-28.9739286-14.1905743-50.9646198ZM1690.1024586,1497.7670436c8.1181941,11.5736676,4.6627205,25.2365231-2.2554555,39.4270974-27.1449855-9.1447155-16.0990367-35.9716239,2.2554555-39.4270974ZM1675.5648911,1602.9493441c-10.200153,12.1447605-26.4726862-13.6556265-27.8534298-19.200288,10.200153-12.1086154,26.8269084,13.6990007,27.8534298,19.200288ZM1726.1102276,1481.3137848c29.5811666,17.0532678,24.5642239,40.9090473,12.2821119,65.9359287-5.3639359-21.8099657-32.1908443-39.5644489-12.2821119-65.9359287ZM1726.6018012,1588.4479218c-21.600324-13.6990007-16.4098847-32.5450665-5.0097137-52.6345244,11.0820939,15.7448145,25.2726682,30.9908263,5.0097137,52.6345244ZM1703.5918175,1622.1930063c21.6364691-17.6532768-8.4724162,26.2919606,0,0h0ZM1764.8650257,1532.712146c8.6531418,11.2555905,4.6627205,24.918446-2.4361811,39.2825169-18.1376214-9.7085794.8819409-26.118464,2.4361811-39.2825169ZM1754.6648727,1607.6482098c-5.3639359-7.0989017-6.4266024-15.0725152.1807256-24.5714529,5.3639359,7.2723982,6.9181761,15.0363701-.1807256,24.5714529ZM1748.7732181,1315.9426296c32.1908443-19.9737936,18.5279887,29.2630895,55.7357757,38.1620182-29.7908083,28.6558515-41.7259271-21.289476-55.7357757-38.1620182ZM2032.2521689,1682.4107769c16.2725332,9.8459308,7.6193914,28.3739196-3.9904213,30.1088853-8.8266384-8.1181941-6.0362351-18.3544922,3.9904213-30.1088853ZM2000.2348211,1693.3121453c6.5639539-5.3639359,17.8267734,5.7181581,16.7641069,11.5808966-3.2819769,15.4267374-29.2269444-1.200018-16.7641069-11.5808966ZM2049.8982167,1620.6387661c-15.0725152,17.2918256-6.5639539,30.2823819-6.0723802,44.9645299-41.0174827-15.0363701,10.2362981-89.7917082-32.5089213-120.8548248,43.0632965-5.2988747,42.9259451,74.6541318,59.0177527,106.1726768-20.7906733,11.0459488-9.8820759-23.8919246-20.4364511-30.2823819ZM1925.1180318,1682.9384957c20.5810316,11.2266744,1.5542402,48.607958-19.0267914,27.8462008,8.8266384-14.3640709,1.0265214-24.2100017,19.0267914-27.8462008ZM1919.0456516,1728.0837512c13.6990007,10.3808786-1.200018,29.7908083-13.6556265,31.8366221-6.0362351-11.7543932-1.200018-29.400441,13.6556265-31.8366221ZM1947.4268002,1698.329088c13.1640529-25.0991716,56.6177167-9.000135,28.0630715,19.0267914-12.2821119,2.2554555-25.4533938-6.5711829-28.0630715-19.0267914ZM1975.1356495,1741.9201033c-10.200153,13.8724972-20.5810316,28.0630715-35.8270434,16.6267554,7.6266204-9.6724342,1.0265214-16.6267554,9.7085794-26.2991896,7.9446975-1.0554375,16.9448325,2.4361811,26.118464,9.6724342ZM1955.9353615,1769.9831748c8.1181941,12.1086154,6.9181761,33.2173657-7.800117,35.6535468-8.4724162-12.1447605-11.400171-32.5450665,7.800117-35.6535468ZM2037.2618825,1735.0019272c-11.9278898,22.51841-26.8269084,29.7908083-45.3259811,18.5352178-2.6096777-23.3714349,27.4992076-27.8534298,45.3259811-18.5352178ZM2025.5074894,1776.5471287c18.8460658,30.9908263-57.8177347,36.007769-9.8820759,50.7260621-9.8531598,16.0556625-24.9256751,6.7374505-39.6439681-2.6169067,4.3446435-15.2098667,3.3181221-29.7546632,15.607463-46.7284117,11.400171-.6722992,23.0099837,2.4289521,33.918581-1.3807436ZM2065.8165277,1729.8114879c15.5640889,12.1086154-4.6554915,36.007769-21.1087503,18.7087144,5.5446615-13.1640529,14.0170777-12.2821119,21.1087503-18.7087144ZM2050.0717132,1776.9013509c9.000135,7.9446975,6.2169607,18.00027-3.9831923,29.7546632-9.007364-8.2916906-6.2169607-18.3544922,3.9831923-29.7546632ZM1575.0308531,1353.3239132c2.5807616-3.6361991,5.1904393-7.2723982,7.5904753-11.0820939,3.8169247,2.4361811,7.6266204,5.0458588,11.4363161,7.5543302-2.6096777,3.8096957-5.1832103,7.5904753-7.800117,11.2266744-3.6361991-2.400036-7.4458948-5.0169427-11.2266744-7.6989107ZM1544.2207524,1398.2233818c-.5277188-3.7735506,1.3735146,6.1446705,0,0h0ZM1512.0299081,1457.9495789c3.8096957,4.4097047,6.3832283,1.4819499,9.3543572-1.7277368,12.1013863,5.2555005-9.3543572,31.2366131-17.3351998,12.9833273,2.6096777-3.7374055,5.2265844-7.4458948,7.9808426-11.2555905ZM1580.5393694,1381.6327715c6.9543212-5.8916546,15.7809596-2.0096687,22.51841-9.1736316,9.1808606,8.2916906,6.0362351,18.4195534-4.1639179,30.1088853-12.9905563-5.5446615-12.1086154-14.0170777-18.3544922-20.9352538ZM1616.720635,1340.6875791c2.4361811-3.8096957,5.0097137-7.4458948,7.6266204-11.1543842,3.6361991,2.6096777,7.6193914,5.0169427,11.2555905,7.6989107-2.6096777,3.6361991-5.0458588,7.3736046-7.6193914,11.0820939-3.8169247-2.4361811-7.6266204-5.0169427-11.2628195-7.6266204ZM1530.2036747,1347.1864717c6.0362351,6.9181761,2.0819589,15.8460208,9.000135,22.7641969-11.7833093,12.3544022-21.8099657-14.5447965-9.000135-22.7641969ZM1552.8666652,1313.6871741c1.3735146,6.0723802-.7084444-3.9542762,0,0h0ZM1511.4949603,1326.4247146c1.0626665,5.9711739-.8457958-4.1639179,0,0h0ZM1438.9950777,1408.2861834c-.7084444-3.8169247,1.0265214,6.3181671,0,0h0ZM1158.3065303,1109.6624272c30.7811846,1.4819499,28.200423,44.8994686,55.6996306,62.726242,9.000135-31.0631165-43.5910153-50.5091913-15.9183111-84.9627202-18.4990727,4.0554825-46.7356408-43.5259541.7084444-48.9910963,15.7375854,32.8920596,25.9377384,66.7094343,56.9357937,96.7460294-50.8995586-117.8547798-79.2807072-215.2080472-120.1246933-328.7977028,15.7448145-10.7278718,35.3354698-2.6819679,56.2707235,13.7640619-29.4438151,57.008084,25.7642419,137.4888092,70.9456424,196.5788521-11.9278898-63.1527545-77.5529705-141.2262147-55.9092723-194.5980995,9.3543572,16.0918076,27.1739016,30.8101007,42.7452195,45.7814096,20.2557255,3.5277638-10.0266564-23.6533668,7.800117-35.5812566,138.616537,91.6351094,268.7606577,275.8523303,89.4808602,398.0517536,18.318347,2.0819589,33.7450845-10.4820849,49.1356768-23.8919246-15.2170957,124.3536724-193.4703718,76.4180137-214.0875485-23.1907093-12.2821119,23.7907183-46.0271964-16.4532588-29.9281597-28.7353708,19.9087323,7.800117,10.0194274,20.9352538,29.9281597,28.7353708-3.4554735-35.5451115-30.6366041-42.8175097-23.6822829-73.6348394ZM1094.9441341,901.7195491c6.2531058,13.5255041,22.1714169,25.207607,2.9349838,43.3524575-33.3980913,3.5639089-35.6174017-46.207922-2.9349838-43.3524575ZM1033.3528488,1015.9453588c-12.1086154-10.3085884-2.6096777-23.7907183,9.6724342-26.2268994,11.9640349,10.3085884,2.4361811,23.7907183-9.6724342,26.2268994ZM1091.1344384,882.9457736c-9.3182121,22.1641879-33.2173657,6.6723892-35.4728212-7.9446975,5.8916546-2.2554555,11.9640349-5.0097137,16.800252-12.7447695,10.7278718,6.007319,7.4458948,14.6532318,18.6725692,20.689467ZM1110.6889486,830.4196845c21.6364691-17.5448415-8.6459128,26.7546182,0,0h0ZM1114.3251477,849.3741857c19.200288,9.4266474,21.6364691,21.889485,6.9181761,37.7355058-13.8363521-10.3085884-16.0990367-22.9449225-6.9181761-37.7355058ZM1056.5435581,957.8095471c-17.3351998-9.600144-12.1086154-23.6461378-16.6267554-35.8270434,18.5352178-9.4266474,29.0823639,23.3714349,16.6267554,35.8270434ZM1041.9987617,906.8376982c-12.8098307-7.3736046-14.7182931-16.6918166-5.3639359-28.1281327,12.9905563,7.2723982,14.7182931,16.6267554,5.3639359,28.1281327ZM1050.2976813,846.8006531c6.9181761-5.8988837,15.9183111-2.0819589,22.8364871-9.2820669,12.1375315,11.9640349-14.6821479,22.0557525-22.8364871,9.2820669ZM988.5256704,985.2364645c-19.5545102-9.2459218-21.6436981-21.9906913-7.0989017-37.6632155,11.400171,10.9085974,23.718428,21.5714079,7.0989017,37.6632155ZM1022.7984737,934.97306c11.2266744,7.5181851-3.2819769,20.0533128,14.6821479,26.4726862-16.5906103,17.118329-26.6461828-11.0820939-14.6821479-26.4726862ZM1010.8344388,1000.6270568c9.000135,8.1543392,6.2458768,18.3544922-3.9542762,29.9353888-19.2364331-9.2531508-10.5543752-27.7811396,3.9542762-29.9353888ZM1130.2434587,934.1634093c-19.7280067-11.5086064-14.6821479-40.5620542,6.2458768-45.0801942,12.6363341,12.9905563,18.8532948,39.8174647-6.2458768,45.0801942ZM1145.315974,936.3538036c18.8532948,6.2097317,9.000135,17.8195444,24.0365051,24.6365141-6.0362351,10.6555815-14.8556445,7.200108-20.7545282,18.4556985-14.7182931-8.400126-11.4363161-20.5015123-20.4364511-30.0365951,6.0723802-2.6819679,11.9640349-5.1181491,17.1544742-13.0556175ZM1069.6714659,974.9278761c19.2364331,9.3543572,10.4170237,27.607643-4.4819949,30.2173207-8.8266384-8.2266294-6.0723802-18.4267824,4.4819949-30.2173207ZM1088.3801802,971.4001124c6.2169607-10.4820849,14.8628735-7.200108,20.9352538-18.600279,13.8363521,10.4459398,15.9183111,23.0822739,6.9181761,37.800567-20.5810316,2.0819589-22.489494.8530248-27.8534298-19.200288ZM1055.4808916,1031.2636609c11.6170417,12.6363341,25.6268904,24.4991626,12.9905563,41.4439951-15.5640889,2.4361811-32.0101187-22.489494-12.9905563-41.4439951ZM1074.7173247,1027.699752c24.0437341-19.0267914,22.6629905,16.0990367,29.5811666,28.4895839-18.8460658,10.9736586-26.2919606-20.5087413-29.5811666-28.4895839ZM1088.7344024,1103.2719699c-7.800117,6.3181671-4.5181401-3.9831923-11.2628195-7.6193914,6.2169607-6.2531058,15.0725152,1.800027,11.2628195,7.6193914ZM1114.3251477,1005.4632739c23.1907093-2.7542582,38.0897279,25.3811036,18.1809956,45.5356228-22.3087683-12.1086154-29.7618922-27.000405-18.1809956-45.5356228ZM1159.5065483,987.2172171c23.8630085-4.4819949,17.8267734,21.4557435,35.4728212,32.4366311-31.4823999,41.5452015-62.8274484-16.5183201-35.4728212-32.4366311ZM1118.8432878,1107.3346814c-13.5182751-5.7181581-12.2821119-14.0170777-18.5279887-21.0364601,11.2555905-15.3905923,31.1643229,5.6097227,18.5279887,21.0364601ZM1139.9520381,1064.2352398c17.8267734-3.2819769,14.3640709,9.0724252,28.0269264,19.1279977-6.3904573,18.0725602-19.0267914,3.8169247-26.6534118,14.8628735-4.8362171-10.5543752-11.9278898-20.6822379-1.3735146-33.9908713ZM1126.2891826,1120.4625891c15.3905923,8.5808516,22.6629905,18.5352178,10.7351008,32.1257831,2.0458138-11.6170417-28.2437971-17.40749-10.7351008-32.1257831ZM1033.3528488,859.7550643c-4.1639179,5.2916456-9.8820759-.3542222-15.2532408-2.1542492,3.9904213-5.1904393,9.889305.4265124,15.2532408,2.1542492ZM1052.7266334,807.3374106c1.0265214,6.2097317-.7012153-4.0988567,0,0h0ZM957.180622,922.8282995c28.9088673-12.3544022-4.3084984,23.9714439,0,0h0ZM1010.8344388,820.046035c1.2289341,6.2458768-.6722992-3.9904213,0,0h0ZM940.7635083,886.9361949c2.5807616-3.8169247,5.0169427-7.6266204,7.5904753-11.2628195,3.9904213,4.5181401,6.7808246,1.4819499,9.1808606-1.6265304,12.6363341,5.0169427-9.007364,30.9619102-16.7713359,12.88935ZM807.8362133,828.8654443c19.7280067-16.3375944,41.0102537-24.3907273,62.2997296-31.1281777-.1807256,16.7641069-36.6800682,62.0177977-62.2997296,31.1281777ZM655.2025986,667.2389237c55.9165014-60.5719929,163.1879899-65.1624232,242.1072459-89.5531505-91.526674-1.9012333-177.5448317,24.8172397-262.3629714,59.1623332,36.1740366-49.5621892,122.0186976-60.8900699,179.6629358-82.526539-78.7529885-13.3447785-142.7804548,52.4176537-220.5069219,46.200693,68.8998286-51.5646288,185.5256743-117.0812742,246.4518893-53.8996036,26.8269084-9.1013413,102.9629901,16.4171137,56.7550681,31.0631165,37.3812836.3180771,75.6445081,5.0169427,118.0427344,31.7354158-53.6538168,20.1545192-107.4883592,29.3353798-162.334965,44.9356138-54.6803382,15.5640889-110.5896106,39.5283037-167.8796265,41.4367661,72.6806082-55.3092633,154.534848-59.726197,232.4348116-87.5723979-92.2351184-6.0723802-173.0628368,48.0368651-262.3702004,59.0177527ZM581.3292014,559.0854943c28.8727222-40.51868,103.1364867-54.7092543,155.0264217-58.526179-6.9181761,22.2364781-112.1438507,54.3622612-155.0264217,58.526179ZM3542.192889,2443.1860434c.2096417,36.9909163-50.6899169,22.6629905-75.4710115,14.1905743,21.6726142-23.2268544,51.3983613-4.5181401,75.4710115-14.1905743ZM3525.385408,2431.7497273c-3.9470472-31.1354068,41.7259271-19.6990907,58.526179-25.6268904,6.5639539,6.9181761-4.8723622,17.2990547-9.5278538,25.9811126-15.2532408,6.5639539-34.9451025-12.4989827-48.9983253-.3542222ZM3571.6294751,2496.1314158c-11.5808966,17.2990547-28.9450125.7084444-45.0440491-6.2097317,12.9905563-8.1181941,28.0992166-5.9350288,45.0440491,6.2097317ZM3557.0846786,2469.4490879c16.4532588-23.1545642,37.9090023-23.1545642,60.2177707-16.0267464-15.3905923,30.5643139-37.4174287,25.7642419-60.2177707,16.0267464ZM3655.2114517,2422.077293c-34.3089483,53.6538168-48.6368741-23.8630085,0,0h0ZM3641.1654579,2502.6953697c-13.6267104,12.8532048-30.2823819,11.2266744-48.9260351-.7012153,14.689377-8.6169967,30.7811846-8.6169967,48.9260351.7012153ZM3622.8109657,2481.5866193c19.0629365-18.1376214,38.8270884-34.800522,63.8901149-21.8099657-16.800252,31.1281777-39.607823,30.6366041-63.8901149,21.8099657ZM638.4023466,499.605084c4.1639179-7.3374595,10.4097947,2.0168977,0,0-10.3808786,13.7712909-23.0172127,16.0267464-37.8728572,7.0266114,11.9278898-6.3904573,24.5642239-8.8266384,37.8728572-7.0266114ZM625.9395091,433.5318038c5.0530878,8.8266384,2.4361811,19.0267914-4.1277728,30.00045-7.4458948-5.0820039-14.7182931-10.2724432-22.3449135-15.3183021,6.600099-18.1448505,18.88944-3.5277638,26.4726862-14.6821479ZM570.420604,526.89465c-7.4531238-10.7278718,6.2097317-10.7278718,11.400171-16.5544652,7.2723982,10.7278718-6.0362351,10.4820849-11.400171,16.5544652ZM586.1581895,455.5947854c-4.5181401,11.1543842-11.4363161,7.5181851-18.7014853,3.6361991-7.5904753,9.4194184-1.200018,16.4098847-10.0266564,26.1907543-7.2723982-5.089233-14.7182931-10.2724432-22.1714169-15.289386,15.0725152-14.5375674,30.8173297-26.5088313,50.8995586-14.5375674ZM340.5954701,706.8756628c-72.1890346-74.4444901,33.918581-182.0629718,18.1737666-267.0256919-17.8195444-16.5544652-27.3546272,10.4459398-45.1814006-6.1808156C193.824594,311.5058772,94.6712995,185.2437424,69.7528535,45.007904c84.2542758,94.9170863,134.0983969,348.5329386,311.6793737,361.3427692,64.0346954,4.4097047,110.7631071-45.3548972,181.3617564-48.7091643-12.2821119,34.4173837-132.8983789,66.1817156-163.0434094,94.0351454,34.0993066,46.1284027,112.3173473,24.4919336,138.4791855,86.1916542-41.0174827-1.1277278-84.4711465-16.9376034-129.4790505-39.0367301-28.3739196,70.2805722,6.607328,128.9441027-68.1552391,208.0440843ZM461.204508,674.4028866c23.3714349,21.2171857-27.5281237,30.9257651,0,0h0ZM492.0218378,629.5034179c20.7545282-10.3736496,51.3911323,31.7715609,69.7456244,6.4988927-11.6098127-16.0267464-61.800927-16.2725332-90.008579-36.8535648-21.1087503,9.600144-20.5738026,13.7279168-34.4462998,26.118464-16.5906103-13.3375494-19.7352358-28.9811576-8.6531418-47.2633595,15.9255401,15.8532498,28.5618742,14.1182841,43.0994416,21.1448955,27.5353528-.1084354,58.1358117,15.3905923,84.4711465,8.5447065,44.4729562,56.6177167,103.1364867,108.0811392,157.9903215,165.7181483,48.4633775,50.4441301,59.6900519,57.608093,100.534038,93.2616398,106.4546088,92.3363247,231.2347936,236.74331,334.552006,351.9161218,255.7701014,186.7329213,350.6148975,331.5230449,632.1853859,506.0316864,27.8534298,12.4628375,9.8459308,33.9258101,14.6821479,50.8995586,23.7256571,7.9446975,11.9712639-27.8823459,32.1908443-10.7278718,711.7841702,506.3497635,1434.3395862,791.556451,2112.407588,876.6998968-583.8955049,12.8459758-1238.2523077-288.3151679-1875.9823551-657.7833602-560.0324964-324.1422113-1032.9913976-800.8385179-1450.2506682-1220.9532531-3.4554735-14.0821389-14.0098487-26.6534118-12.4556085-41.6174917-46.5621442-28.7353708-63.5069766-62.8997386-110.0618918-91.6351094ZM3247.0968965,2586.2845753c21.6726142-17.4364061-8.8194094,26.8269084,0,0h0ZM3035.098536,2679.8932082c-71.2998646-83.5819766-119.2355234-143.5901055-155.3806438-229.2974152,21.600324,11.6531868,42.4271424,18.007499,62.126233,17.5086964,9.5278538,72.9986853,102.7822645,130.4621978,125.3079036,201.0608471-8.3350648,15.7375854-24.5714529-10.7351008-32.0534928,10.7278718ZM2950.8804054,2647.0662098c-77.0252517-52.6634405-114.4354514-154.0432744-174.4435804-226.0515834,81.1168793,18.7087144,166.2530961,146.7708761,174.4435804,226.0515834ZM2793.5190089,2564.3300291c-108.1534294,4.5181401-150.3709301-173.3881428-221.1792211-241.5795271,123.0524481,51.8827059,145.9250803,164.5542754,221.1792211,241.5795271ZM2086.5710559,2204.3607744c-23.8630085-37.9090023-58.4900339-73.7360457-70.0637015-113.8715875-36.1812656-6.9181761-70.808291-96.926755-103.8449311-136.7080746,111.4354064,32.5089213,128.9368737,117.9993603,169.0724155,173.2074172,54.8538348,75.1095603,140.3442737,135.5080566,149.8793565,225.6901322-74.408345-46.2368381-133.7803198-137.5900155-142.6069583-212.3525827-20.0822289,5.7181581,14.7182931,42.5717229-2.4361811,64.0346954ZM1622.6195187,1969.3452012c5.0097137-12.2821119,31.1281777,9.3543572,12.9833273,16.9448325-3.6361991-2.400036-7.4458948-5.0169427-11.2555905-7.5904753,4.3012693-4.1639179,1.200018-6.600099-1.7277368-9.3543572ZM1590.0744522,1848.5554377c-1.7349658,5.1904393-7.2723982,11.0459488-2.089188,15.0363701-47.2272144-45.000675-93.2544108-132.2260797-91.8736672-202.4705068-26.4799152-.8819409,5.8916546,27.6727042-11.6170417,41.3717049-22.3087683-33.600504-28.5546452-69.5721279-44.118734-104.1991533,97.9460474,48.4633775,119.9367387,153.33483,146.0624318,231.1986485,7.6193914-11.0820939-10.3808786-17.4725512,4.3374145-29.9281597,46.8802212,69.3914023,92.408615,138.6093079,89.6254407,217.535793-37.8800862-54.6731092-77.5168253-109.0353704-90.326656-168.5446967ZM1511.6756859,1794.9016208c32.8992886,18.1809956,53.6538168,80.9722989,85.1362167,115.7800499-74.2276194,33.0366401-68.3359647-77.726467-85.1362167-115.7800499ZM1523.2854986,1934.3639536c-.7012153-3.9542762,1.0265214,6.2458768,0,0h0ZM1387.777442,1759.4287996c-7.0916726-3.8096957,2.0819589-10.4097947,0,0,23.0172127,10.5543752,13.4821299,26.8269084,31.6631255,38.2270794-9.1736316,11.6098127-22.3087683,2.2626845-35.6535468-7.9446975,14.5447965-12.6363341-3.2819769-19.0557075,3.9904213-30.2823819ZM1340.0225089,1841.7818421c-22.1714169,18.5279887-21.289476-20.7617572-45.007904-30.607688,28.9088673-16.9737486,34.0993066,9.1447155,45.007904,30.607688ZM1310.9329159,1739.8742895c19.207517,11.0459488-2.7831743,29.7546632,12.8170597,41.5090563-14.3712999,7.6266204-41.3717049-39.7813196-12.8170597-41.5090563ZM1331.6874441,1745.729799c14.8990187,15.2532408,20.9352538,31.8438511,33.2535108,47.2633595-27.3546272,18.4990727-39.8174647-29.0823639-33.2535108-47.2633595ZM1356.1143165,1746.0840211c-41.8994236-29.400441-38.7909433-67.6636655-53.3357398-102.4352714,0,1.3807436-8.4724162,10.7351008-7.7639719,11.400171-72.6806082-78.2180407-102.9629901-237.0903031-159.7252873-331.2338839,96.8978389,69.5721279,129.0886832,193.824594,161.9879719,291.4597933,2.5735326-3.6361991,5.1832103-7.2723982,7.7639719-11.089323,26.8269084,58.4900339,81.008444,111.9703542,67.4901689,177.9062829-6.2169607-11.9351188-30.2896109-20.4364511-16.4171137-36.007769ZM1225.9701958,1599.6673672c-4.6916366,7.4531238,1.9084624,12.6363341-5.7181581,20.4364511-37.3812836-64.3816886-88.4543388-126.4356314-67.3094433-202.1452007,37.200558,48.6368741,55.8731272,100.3171673,67.6636655,153.5083266,2.5807616-3.6361991,5.0169427-7.4458948,7.7639719-11.400171,22.5256391,59.3358297,88.1073456,110.5534654,76.8445261,175.9978205-57.6370091-22.1714169-63.8539698-90.6808782-79.2445621-136.3972266ZM1268.0141999,1718.729394c-3.9904213,5.2265844-9.8531598-.4915736-15.0725152-2.0458138,3.8096957-5.5446615,9.7085794.3180771,15.0725152,2.0458138ZM1116.9348254,1590.6672322c21.6364691-11.5736676,48.4633775,24.607598,33.2173657,47.7983073-15.3905923-15.2532408-24.3907273-31.5257741-33.2173657-47.7983073ZM1127.4892006,1647.4295294c1.3807436,6.2458768-.7012153-3.7807796,0,0h0ZM975.8893363,1436.8408285c18.3544922-17.9352088,34.6270254,14.0098487,20.0822289,30.3546722-14.3640709-8.7182031-11.2628195-20.5810316-20.0822289-30.3546722ZM977.0893543,1470.7594096c-7.9446975,6.3904573-4.3084984-3.9831923-10.9085974-7.800117,6.0723802-5.8916546,14.8917896,1.9084624,10.9085974,7.800117ZM1007.0536592,1342.9502636c20.2268094,35.2920956,41.5090563,70.3456334,30.607688,111.4354064-26.6534118-33.9258101-44.4801852-69.7167083-30.607688-111.4354064ZM846.2729344,1241.2884978c3.6361991-5.0458588,9.8459308.600009,14.8628735,2.400036-3.6361991,5.1904393-9.8531598-.4915736-14.8628735-2.400036ZM845.7452156,1266.1057375c-25.2726682,8.7543482-9.1808606-35.2270344,0,0h0ZM857.1815317,1117.3613378c33.0366401,47.5091463,49.8368921,97.9460474,34.0993066,154.7083446-22.3449135-49.4898989-55.7357757-96.8906099-34.0993066-154.7083446ZM798.3372756,1167.5524521c7.2723982-24.318437-4.5181401-44.8271784,6.3904573-69.6444181,3.4554735,48.3621712,55.5550501,87.2254047,26.2991896,141.5442917-23.6895119-8.400126-40.1355418-69.0444091-3.1084804-43.3452285,7.800117-12.9905563-22.1352718-18.600279-29.5811666-28.5546452ZM716.3023102,1095.1176307c9.1808606-11.7543932,22.3087683-2.4361811,35.8270434,7.807346-9.3471282,14.8556445-3.6289701,26.8196794-2.6096777,39.7090293-20.400306,5.0097137-18.00027-35.40776-33.2173657-47.5163754ZM721.3192529,1123.3252827c-2.4361811,3.8096957-5.0169427,7.5543302-7.6266204,11.1905293-3.6361991-2.4361811-7.0916726-5.1181491-10.9085974-7.6266204,2.6169067-3.8096957,4.8723622-7.3808336,7.6266204-11.2628195,3.8096957,2.6169067,7.2723982,5.1904393,10.9085974,7.6989107ZM654.1833062,945.7009317c28.200423-2.6096777,69.7094793,23.0172127,34.7643769,56.8345874-33.0366401-14.7905833-16.6267554-39.1090203-34.7643769-56.8345874ZM634.4480704,998.3716013c-6.9181761-4.3084984,2.0819589-10.5543752,0,0,7.2723982,3.9181311-2.2554555,10.4820849,0,0ZM664.2027336,870.482936c22.8437161,17.400261,30.1088853,56.7622972,12.4628375,66.0443641-34.9451025-16.200243-21.8171947-41.4729112-12.4628375-66.0443641ZM714.0468547,953.9998514c-1.7277368-7.800117,7.0916726-17.6460478.3542222-24.4991626,21.9545462-6.9904663,41.5452015,27.607643,46.7356408,39.8897549-14.3712999,2.6819679-30.9980553-7.6989107-47.0898629-15.3905923ZM686.8657241,1017.6803246c20.9713989-13.0628465-.8457958,31.4101097,0,0h0ZM727.2109076,970.8723936c30.9546812,12.2098217,28.8727222,30.4631075,33.2173657,47.5814366,2.6096777-3.7084894,5.0097137-7.4458948,7.6266204-11.0820939-7.2723982-4.2362081,2.0819589-10.6266654,0,0,3.6361991,12.2098217,21.6364691,21.918401,6.9181761,37.5547802,29.400441,13.3447785,17.1183291,52.0272864,1.3735146,58.4177437-24.7449495-14.1905743-20.9280247-51.0369101-1.3735146-58.4177437-18.007499-6.3181671-3.6361991-18.7810046-14.5447965-26.4726862-2.6096777,3.7446345-5.3639359,7.5181851-7.800117,11.3278808-24.2172307-16.7641069-34.4173837-35.8993336-25.4172487-58.9093173ZM898.0182888,1153.6076646c-24.918446-24.5642239-23.3642059-54.1453904-34.6270254-81.2542308,75.2902859,34.5547352,80.8349474,124.5994593,84.2904209,189.1618734-39.6367391-21.8822559-45.1814006-92.5893406-36.1812656-139.6358294-24.0365051-4.3446435,2.2626845,21.7087593-13.4821299,31.7281867ZM837.9450986,1145.4894706c-33.2173657-45.000675-26.7907633-109.808876-41.5162854-143.6623958,61.7720109,39.0439591,52.4176537,91.208597,41.5162854,143.6623958ZM748.5003835,1059.7170997c-5.1904393-7.1639629-6.607328-15.2170957.3469932-24.2822919,5.3350198,6.9181761,6.7446795,14.7833543-.3469932,24.2822919ZM687.5741685,1124.9807292c-14.0170777-17.1544742-13.3447785-36.600549-29.4365861-53.118869,30.9908263-18.1809956,48.1091553,31.4101097,29.4365861,53.118869ZM716.9746094,1021.7358071c1.4096597,20.8629635,34.0993066,36.007769,16.2725332,60.326206-35.4728212-13.4170687-33.5643589-52.2803022-16.2725332-60.326206ZM741.4014819,1202.6710511c-25.800387-14.6098577-37.7355058-32.0101187-29.6173117-53.0176627,20.4436801-.2819319,41.1982083,32.0173477,29.6173117,53.0176627ZM759.0475297,1140.7978339c20.5810316-12.9544112-1.2289341,31.2366131,0,0h0ZM768.5464673,1114.6070796c13.1640529-11.4363161,30.4631075,16.1640979,14.7182931,26.5449765-17.8267734-6.3904573-3.4554735-19.0990817-14.7182931-26.5449765ZM786.5467373,1208.8157216c-16.9448325,7.5543302-36.318617-25.4172487-22.1280427-39.7813196,26.2919606,9.600144,18.6725692,25.8726772,22.1280427,39.7813196ZM890.572394,1321.0607787c-34.2728032.1807256-49.1356768-37.5547802-31.4896289-62.2997296,21.289476,18.600279,39.607823,37.8728572,31.4896289,62.2997296ZM910.1269042,1244.2162526c18.5279887,30.4631075,43.9452375,60.0442741,32.718563,96.2978299-45.7091193-12.7809146-40.6994056-59.2707685-32.718563-96.2978299ZM946.4816663,1359.2878581c-3.8096957,5.3711649-9.8820759-.2457868-15.0725152-2.1470202,3.9904213-5.1904393,9.8531598.3469932,15.0725152,2.1470202ZM944.0454852,1398.7511006c-7.0916726,14.1905743-20.4364511-4.7639269-28.3739196,5.5446615-14.1905743-13.8363521,3.4554735-33.318572-8.8266384-47.3356498,21.6364691-6.6723892,21.6364691,31.4173387,37.200558,41.7909883ZM958.0625629,1342.5960414c21.4629725-17.8267734-8.6459128,26.400396,0,0h0ZM953.3998424,1240.8330693c34.7716059,16.4460298,35.1258281,81.1819406,42.0440041,118.9897366-36.3619912-15.9255401-40.6632605-80.1987933-42.0440041-118.9897366ZM1002.3620226,1241.4330783c-7.2723982-3.600054-11.5808966,7.0193824-17.118329,13.0917626-12.289341-35.2270344-28.3811486-69.6733342-24.9256751-107.726917,79.7722809,58.1358117,68.3359647,133.4983879,82.3530425,204.2705338-33.5715879-13.2363431-49.9814726-71.9721639-40.3090383-109.6353794ZM1110.6889486,1323.6415403c29.6173117,38.2632245,38.2632245,80.4807252,28.5546452,126.327196-28.8727222-7.6916816-34.9451025-61.6635755-36.4993426-90.7459394-36.8824809-.2819319-46.7284117-88.2808422-53.118869-126.6886472,58.8370271,34.5258191,50.5091913,81.608453,53.118869,126.6886472,15.9255401-14.2990097-8.1471102-21.1087503,7.9446975-35.5812566ZM1039.2083584,1488.4126864c-32.3281957,13.8363521-26.4726862-20.2629545-31.6631255-38.0897279,24.5714529-9.000135,18.1809956,28.807661,31.6631255,38.0897279ZM1050.9988966,1447.0409815c28.3811486,12.7086244,51.5718579,68.3721099,43.9452375,103.9172213-31.8366221-31.2366131-41.1909793-67.0636565-43.9452375-103.9172213ZM1101.515317,1457.0676379c-3.9542762,5.7181581-7.4169787,11.0098037-11.5808966,16.8725422-29.9353888-46.3814186-51.5718579-94.4978029-37.5547802-149.0624768,24.2100017,42.5644939,43.2729382,86.1627382,49.1356768,132.1899345,3.8096957-5.5446615,7.6193914-11.1543842,11.4363161-16.7713359,25.6196614,39.1162494,22.4822649,83.6614958,38.0824989,124.4259627-37.0632065-12.4556085-43.6271604-73.0276014-49.518815-107.6546268ZM1132.1519211,1568.5391894c-17.8267734,15.2098667-15.5640889-3.8169247-22.3087683-15.2532408,15.2098667-14.4363611,8.2916906,13.5182751,22.3087683,15.2532408ZM1160.7065663,1538.6760909c13.3447785,47.8633685,66.2901509,88.3531325,60.3984963,139.9177613-51.7525835-40.6632605-69.8902049-87.5723979-60.3984963-139.9177613ZM1211.6061249,1704.8930419c-20.0822289,10.0628015-25.6268904-7.5904753-33.5715879-23.0172127,16.4171137-11.9278898,22.6629905,17.8267734,33.5715879,23.0172127ZM1213.6519387,1689.8566718c18.00027-16.800252,24.0726502,7.0916726,28.2365681,19.0267914-16.0918076,12.9905563-15.9183111-15.7448145-28.2365681-19.0267914ZM1434.1588606,1667.8659805c-15.0725152-4.4819949-2.2554555,25.9449675,1.5542402,33.5643589-43.807886-35.2920956-69.0444091-116.9728388-86.5531055-173.735136,60.3984963,11.2266744,58.8442561,64.0346954,85.1795909,115.9535464,36.8463358,71.6251707,78.3915373,131.1706422,82.3458134,203.8512504-48.600729-36.1451205-73.0276014-119.416249-82.526539-179.6340197ZM1490.0392168,1862.5725154c-28.207652-2.9711289-21.4629725-28.3811486-23.6895119-49.3525475-27.000405-10.7278718,10.3808786-17.6460478,0,0,16.7713359,14.8990187,32.6896469,29.7908083,23.6895119,49.3525475ZM1451.2771896,1811.1741541c-44.118734-27.7088493-70.7721459-100.5629541-86.5097313-149.6986309-1.9084624-.7084444-2.7904033-2.0819589-3.8169247-3.9904213-54.3550321-56.9357937-92.0905379-155.6625758-114.0450841-232.5071019,31.8366221,14.9713089,35.118599,35.7258371,63.326251,51.3983613,24.7377204,115.8451111,115.7728208,219.1984685,141.0454891,334.7977928ZM1454.5591666,1854.4181762c-27.000405,17.4725512-45.8464708-11.089323-59.8635485-32.5089213,31.4896289-35.3354698,40.4897639,12.7736856,59.8635485,32.5089213ZM1465.1135418,1910.8551673c-15.9183111-13.1640529-38.9282947-25.0919426-27.6727042-43.4536638,23.1907093,3.289206,43.4175187,20.2629545,27.6727042,43.4536638ZM1482.6222381,1873.4738837c20.407535-17.6460478,47.7621622,23.8630085,37.0270614,42.2175007-23.1907093-12.1086154-34.6270254-26.2991896-37.0270614-42.2175007ZM1550.7847063,1689.8566718c5.0097137-12.2821119,30.8173297,9.4917086,12.6363341,17.118329-3.6361991-2.4361811-7.4458948-4.8362171-11.2628195-7.6266204,4.5181401-4.1277728,1.5903853-6.5639539-1.3735146-9.4917086ZM1572.9488941,1705.247264c77.5168253,19.7280067,82.526539,95.1990183,71.6540868,147.4359464,7.2362531,4.1639179-2.0819589,10.5543752,0,0-36.8824809-46.5549152-65.2636295-94.9821475-71.6540868-147.4359464ZM1690.4566808,1966.2367208c-7.0916726-4.1639179,2.0819589-10.4097947,0,0,25.0991716,26.1256931,51.7453545,52.2441571,49.8441211,83.40848-41.8994236-7.800117-47.5814366-52.9815176-49.8441211-83.40848ZM1740.9731011,1976.2633773c-3.7807796,5.7181581-7.5904753,11.2628195-11.5808966,16.9448325-43.0994416-62.126233-81.8542398-124.6066883-70.9456424-196.5788521,52.9453725,55.0345604,50.5091913,120.616267,82.526539,179.6340197,3.3181221-18.3544922-18.3255761-32.1908443-5.0169427-52.7718759,39.1090203,56.0538528,90.8616038,109.8811662,77.1987483,175.9978205-38.7547982-38.4367211-62.4804552-79.2807072-72.1818056-123.2259447ZM1675.3841655,1783.6460303c86.8711825,35.8270434,118.3897276,124.0717405,114.5800319,193.3257913-41.1909793-64.0708405-82.9169063-127.7440847-114.5800319-193.3257913ZM1796.1739291,1931.790421c59.1984783,32.8631435,87.3989013,113.6908619,86.3796089,174.2628548,27.000405,10.3808786-10.3808786,17.4725512,0,0-58.4900339-52.5911503-75.6445081-112.8450661-86.3796089-174.2628548ZM1789.255753,1869.4906914c103.1437157,47.5814366,164.5976496,144.8262687,155.5975146,229.6444083-50.1983433-76.8445261-114.2258097-151.0721455-155.5975146-229.6444083ZM1950.9256478,2053.9536992c49.3091733,34.807751,88.9459124,113.5535104,95.8640885,172.3616214-55.0273314-33.5715879-88.4543388-113.3438687-95.8640885-172.3616214ZM2058.1899073,2053.2813999c107.6618558,29.0534478,141.5804368,116.8065713,148.3251163,191.9161316-56.2273494-43.2729382-98.3074986-131.1634131-148.3251163-191.9161316ZM2207.223468,2171.815708c53.7911683,71.2998646,115.9535464,140.8358474,119.9078226,221.5262143-74.0613518-47.9284297-128.0621618-141.7539334-119.9078226-221.5262143ZM2329.3867461,2353.8786797c17.8267734-4.6554915,30.2896109,33.0438691,42.9259451,45.6802032-35.8270434,19.7641519-28.5618742-31.3450485-42.9259451-45.6802032ZM2298.750142,2242.4071282c-37.3812836,7.6266204-64.6997656-68.3359647-91.208597-95.1628731,27.3546272-1.5470112,60.4274124,27.3618562,90.008579,36.8535648-1.200018,1.9084624-2.4361811,3.8096957-3.8169247,5.7181581,84.1169243,49.4898989,108.6883772,151.7805898,112.1438507,232.6155372,7.1278178,3.9542762-2.2554555,10.3736496,0,0-41.0174827-59.2346234-91.7001706-116.134272-107.126908-180.024387ZM2395.8503936,2316.8154732c33.2535108,26.6895569,83.2349834,91.7796899,84.7892236,140.5611444-76.8445261-2.2626845-58.1719569-97.2809772-84.7892236-140.5611444ZM2353.6039768,2222.3610444c89.6905019-1.7277368,113.9077326,99.6810132,113.0547078,159.4072103-47.0826339-51.1164294-66.8540148-123.4066703-113.0547078-159.4072103ZM638.0842695,860.7092955c4.1277728-3.8169247,1.200018-6.6723892-1.9084624-9.2531508,5.1904393-12.3905473,31.3089033,9.0724252,12.8170597,17.0532678-3.6361991-2.6169067-7.4458948-4.8362171-10.9085974-7.800117ZM616.9755192,903.9099434c-14.7182931-5.3639359-1.0554375-16.0918076-9.3543572-22.6919066,11.7543932-12.3544022,22.1352718,14.3640709,9.3543572,22.6919066ZM579.9123127,837.4462959c-14.5375674-13.3447785-17.6460478-29.0895929-8.8194094-46.9814276,23.1907093,11.9278898,34.6270254,25.9449675,37.200558,41.6825529-7.2723982,14.2990097-20.400306-4.6554915-28.3811486,5.2988747ZM557.0758256,871.082945c-.8457958-3.8819859,1.0626665,6.2458768,0,0h0ZM584.9581715,734.0206483c1.0265214,6.3181671-1.0554375-3.8819859,0,0h0ZM509.6678856,723.8204953c-7.9736136,6.4988927-4.5181401-3.8819859-11.0820939-7.6266204,6.0723802-6.1374415,14.7182931,1.9084624,11.0820939,7.6266204ZM477.6577669,734.8013829c6.3904573,11.7905383,6.9181761,24.6726592,16.4460298,36.00054-18.3544922,9.1808606-29.0823639-23.4364961-16.4460298-36.00054ZM517.1210094,737.1652737c5.0097137-12.2821119,31.1281777,9.2459218,12.7736856,17.1906193-3.4554735-2.7542582-7.2362531-5.2627295-11.0459488-7.8724072,4.3084984-3.9542762,1.5542402-6.6362441-1.7277368-9.3182121ZM486.1301831,806.4554697c6.2458768-6.2169607,15.0725152,1.8361721,11.2555905,7.6193914-8.1543392,6.5711829-4.5181401-3.8819859-11.2555905-7.6193914ZM522.4849453,765.2644904c24.918446,10.1278628,10.5543752,27.4196884,22.1280427,39.8825259-20.2195804,8.2266294-36.8463358-25.2365231-22.1280427-39.8825259ZM525.4127,833.2100878c21.6364691-18.1809956,24.7449495,11.3278808,24.0365051,24.7449495-20.9280247,12.7086244-5.6820129-21.0364601-24.0365051-24.7449495ZM513.6583069,874.4010671c16.7713359-7.5543302,36.3258461,25.3449585,22.1352718,39.7813196-17.2990547-11.2266744-13.6628555-26.8269084-22.1352718-39.7813196ZM581.6400494,847.0464399c7.4531238,5.1181491,15.0725152,10.1278628,22.6991356,15.2098667-7.800117,9.7085794-1.2361631,16.4532588-9.8820759,26.2268994-10.9085974-12.6363341-20.9352538-25.3377294-12.8170597-41.4367661ZM565.902464,893.8543709c18.8822109,16.0195174,29.7546632,33.3908623,20.4364511,54.6731092-26.6534118-14.3640709-29.2630895-33.3908623-20.4364511-54.6731092ZM576.102617,999.3186034c-3.600054-2.5012423-7.4169787-4.9012783-11.2266744-7.5181851,2.5807616-3.7012603,5.3639359-7.6193914,7.6266204-11.1543842,3.7735506,2.5084714,7.5904753,5.0169427,11.2266744,7.5181851-2.5807616,3.7446345-5.0169427,7.4531238-7.6266204,11.1543842ZM609.0019056,915.0643276c30.2823819,12.1086154,25.800387,30.8896199,33.5643589,47.3356498-27.000405,18.2460568-45.8536998-28.0630715-33.5643589-47.3356498ZM609.8838465,997.8727986c-7.0989017-4.0554825,2.2193104-10.3736496,0,0,9.1374865,9.6724342,23.0099837,18.4990727,11.2194454,32.1908443-15.7375854-8.400126-23.0099837-18.5279887-11.2194454-32.1908443ZM620.7562988,1054.3531638c1.2361631,6.2458768-.6722992-3.9542762,0,0h0ZM614.7200637,1075.1438371c20.9280247-12.9905563-.8819409,31.2366131,0,0h0ZM658.8387977,998.3716013c12.1086154,15.7737306,12.2821119,33.6727942,23.8991536,49.2368831-27.5353528,7.5543302-47.0898629-21.5280337-23.8991536-49.2368831ZM625.9395091,1107.1539558c12.6363341,7.3446885,14.5447965,16.7713359,5.0530878,28.4534388-12.9905563-7.4097497-14.5447965-16.8725422-5.0530878-28.4534388ZM696.4008069,1172.1428824c-27.3618562,7.800117-19.207517-31.9450575-37.0342904-41.9717139,23.5449315-7.0916726,25.2798972,30.7088943,37.0342904,41.9717139ZM666.2846925,1192.3986079c24.2172307-8.9278448,18.007499,28.6992256,31.4896289,37.9812926-16.9448325,7.4531238-25.7714709-27.4269174-31.4896289-37.9812926ZM716.8011129,1226.7437013c12.8098307-6.7374505,43.0994416,24.1449405,21.8099657,39.8897549-24.918446-9.9543662-10.5543752-27.2534208-21.8099657-39.8897549ZM753.3293716,1317.4245796c-12.2821119-12.2098217-33.918581-22.8364871-22.4822649-39.4632425,22.1352718,10.207382,25.7714709,24.3256661,22.4822649,39.4632425,6.9254051,4.3084984-2.0819589,10.5543752,0,0ZM767.3464493,1236.7703578c-6.9181761-4.0554825,2.0819589-10.4820849,0,0,17.118329,11.4363161,13.5182751,26.7546182,21.9906913,39.8897549-21.1087503,8.3278358-29.0823639-26.7257021-21.9906913-39.8897549ZM806.8096918,1239.2065389c6.3904573,23.0822739,36.8535648,41.8632785,27.5353528,67.9166813-20.089458-16.7713359-44.6536818-33.4992976-27.5353528-67.9166813ZM765.9729347,1334.651344c5.3639359-7.4458948,10.3736496-14.9640799,15.3833633-22.4099747,10.3808786,9.4194184.5349478,22.8364871,10.9085974,32.1908443-6.7374505,6.3181671-16.9448325-4.9446525-26.2919606-9.7808696ZM811.4651834,1316.369142c5.7181581,3.8096957,11.2628195,7.6266204,16.9809776,11.3640259,8.4724162-21.1448955,16.7641069-.8096507,11.0820939,7.8724072,7.0989017,3.9542762-2.0819589,10.5543752,0,0-3.8096957-2.6096777-7.6193914-5.1181491-11.0820939-7.8724072-10.5543752,16.8725422,17.118329,26.118464,3.1084804,43.5259541-26.4726862-14.5447965-29.0895929-33.6800232-20.089458-54.8899799ZM823.9280209,1382.3050708c9.3543572,6.4266024,18.7087144,12.8098307,27.8895749,19.3087233-7.6266204,9.600144-1.2361631,16.4460298-9.7085794,26.118464-16.7713359-13.0556175-30.8173297-26.718473-18.1809956-45.4271874ZM863.3912634,1384.8135421c-4.6554915-13.9086424-14.0098487-26.7907633-3.1084804-43.5259541,7.807346,13.2363431,14.3712999,26.6534118,22.1352718,39.8174647-5.6820129,5.1904393-13.8363521-3.7084894-19.0267914,3.7084894ZM869.4636436,1339.6682867c25.2726682-19.3087233,26.2991896,15.4917986,29.7546632,28.5546452-23.5449315,11.8555995-12.9905563-23.0172127-29.7546632-28.5546452ZM876.3818197,1401.6860844c17.1183291-1.5542402,30.1088853,26.9281147,18.3544922,45.3548972-2.6096777-15.6725242-33.600504-26.2268994-18.3544922-45.3548972ZM862.7189642,1433.8046384c-.7012153-4.1639179,1.3807436,5.9639449,0,0h0ZM883.1264992,1464.0219591c-7.0989017-4.0988567,2.0819589-10.5905203,0,0,19.3737846,9.4194184,16.6195264,22.8364871,25.9738836,34.1643679-19.0557075,9.3543572-32.718563-22.6629905-25.9738836-34.1643679ZM941.4358075,1462.8870023c-10.3808786-14.3640709-28.8727222-27.2823369-18.318347-45.4271874,23.3642059-2.9638999,38.400576,25.2365231,18.318347,45.4271874ZM965.3349612,1355.7600943c21.1087503,18.8532948,19.5545102,41.8632785,31.3089033,62.3720199-35.9716239,17.3279707-47.9356588-38.6897369-31.3089033-62.3720199ZM935.573069,1483.4680339c13.8435811,10.3085884,16.2725332,23.0172127,7.2723982,37.5547802-3.8096957-12.2098217-21.8099657-21.9906913-7.2723982-37.5547802ZM935.0453502,1532.2856336c20.400306-4.2362081,25.6268904,15.9906013,29.7546632,28.6269354-5.8555095,8.4724162-49.8368921-16.2725332-29.7546632-28.6269354ZM980.5448278,1489.6127044c22.51841,12.0363251,29.9715339,26.8269084,18.5352178,45.4271874-17.4725512,1.7277368-30.1088853-26.8991986-18.5352178-45.4271874ZM990.781126,1595.1853722c-11.0820939-11.0820939,21.7810496-30.1088853,2.400036-39.6367391,18.3544922-9.4266474,29.0895929,23.1907093,16.2725332,36.00054-7.9374685-8.4724162-13.1279078-2.9277548-18.6725692,3.6361991ZM1025.906954,1495.6850846c34.0920776,11.5013773,12.1013863,33.6366491,24.0365051,49.2368831-15.5713179,4.1277728-39.607823-31.3450485-24.0365051-49.2368831ZM1081.6427298,1558.4763879c-18.7087144,12.4628375-18.7087144-18.6725692-24.2533758-24.8172397,15.5640889-11.6821029,15.7448145,19.3087233,24.2533758,24.8172397ZM1040.0902993,1571.112722c14.5447965,15.2532408,20.2629545,32.0173477,5.0169427,52.808021-4.8362171-17.1544742-15.9183111-32.8992886-5.0169427-52.808021ZM1039.2083584,1644.6752712c11.6170417-15.5640889,31.1715519,5.5446615,18.7087144,20.7545282-10.7278718-6.0362351-7.0916726-14.8628735-18.7087144-20.7545282ZM1070.0256881,1575.2766399c33.5715879-.1734966,41.7259271,38.9355238,31.1715519,62.4804552-27.3618562-1.0265214-34.2800322-40.3090383-31.1715519-62.4804552ZM1093.7441161,1648.8391891c22.3087683,12.1086154,29.9353888,27.000405,18.3544922,45.4994776-18.00027-12.9905563-25.4461648-27.8534298-18.3544922-45.4994776ZM1100.4887956,1711.1389187c4.3446435-3.8096957,9.5278538-1.7277368,13.3447785-7.2723982,3.7735506,2.400036,7.2362531,5.0169427,11.2194454,7.6266204-5.5374325,13.4821299-15.3905923,5.0097137-24.5642239-.3542222ZM1131.3061253,1666.1382437c21.2822469-5.5446615,41.6825529,10.9013683,25.9449675,34.2728032-27.007634-3.1084804-15.7448145-16.6267554-25.9449675-34.2728032ZM1158.7981039,1709.7654041c22.5256391,15.3905923,21.289476,35.2993246,10.5543752,56.7550681-16.2363881-15.600234-32.0101187-48.9910963-10.5543752-56.7550681ZM1199.9963122,1721.8740195c28.5546452,1.7277368,63.3551671,38.0463538,46.3814186,64.51904-31.8438511-5.3277908-65.5889356-35.4728212-46.3814186-64.51904ZM1204.6879488,1798.855897c21.600324-12.2821119,79.4180587,1.0626665,56.2273494,38.2632245-18.7087144-12.4628375-37.3812836-25.6268904-56.2273494-38.2632245ZM1265.5780188,1733.8019092c31.3450485,15.3905923,23.1907093,37.7355058,44.8271784,55.0273314-27.6727042,11.9351188-62.2997296-29.5739376-44.8271784-55.0273314ZM1302.2870031,1848.8735147c-13.5182751-5.5446615-12.2821119-13.8363521-18.8822109-20.9352538,5.0458588-10.9013683,38.4367211,11.6170417,18.8822109,20.9352538ZM1300.0243186,1864.1195265c13.6628555-9.8820759,44.8344074,7.9446975,48.8175997,24.9256751-15.4195084.3469932-44.8271784-7.2723982-48.8175997-24.9256751ZM1353.3311422,1810.1187166c16.2725332-3.1084804,38.7547982,17.2918256,35.6463178,32.1908443-17.2918256,30.4631075-56.7550681-12.8170597-35.6463178-32.1908443ZM1369.2494533,1894.9368562c-.6722992-3.8096957,1.3735146,5.8627385,0,0h0ZM1375.1411079,1874.3196795c18.00027-16.7641069,24.0365051,6.9254051,28.0269264,19.207517-15.9183111,13.1640529-15.7448145-15.7448145-28.0269264-19.207517ZM1412.1681693,1940.6098304c-24.0365051,8.6531418-31.3089033-31.1643229,0,0h0ZM1414.6043504,1876.7558606c6.5639539,11.5808966,30.2896109,20.2268094,16.5906103,35.8270434-13.6628555-10.5543752-28.0269264-20.7906733-16.5906103-35.8270434ZM1432.9226975,1921.9083451c27.3546272,2.7831743,32.3715699,22.1641879,56.2634945,38.4367211-22.1641879,20.0822289-73.3818236-6.9181761-56.2634945-38.4367211ZM1475.4944204,1991.8274661c5.5446615-5.8916546,13.3447785,2.6169067,20.6171767,6.2531058-5.5446615,5.8555095-13.3447785-2.4361811-20.6171767-6.2531058ZM1502.6755509,1928.5084441c8.1543392,14.6821479,21.6364691,28.3739196,27.7088493,43.5910153-20.089458,17.2918256-34.2728032-26.4726862-27.7088493-43.5910153ZM1600.4481018,1929.5277365c5.0458588,16.9809776,15.7448145,32.8992886,4.8723622,52.808021-19.5545102-5.7181581-45.5356228-31.6992706-34.9812476-56.9719389,11.0820939,6.600099,21.2822469,9.1808606,30.1088853,4.1639179ZM1556.8570865,1957.2365859c11.400171,6.0362351,8.1181941,14.5086514,18.6725692,21.1087503-10.3808786,13.1351368-20.2268094-11.4363161-22.489494-15.4267374,1.200018-1.9012333,2.4361811-3.8096957,3.8169247-5.6820129-7.0989017-3.8096957,2.0819589-10.7278718,0,0ZM1524.1312944,2017.1001344c3.8169247-5.5374325,9.7085794.3542222,15.2532408,2.089188,1.7277368-8.4724162.4915736-16.4532588-9.5350828-22.8437161,16.0990367-12.9905563,15.7448145,15.9255401,28.3811486,19.0267914-8.6459128,15.9183111-20.5738026,13.4821299-34.0993066,1.7277368ZM1569.4934206,1998.7456422c16.4098847-5.8555095,53.8273134,25.2726682,37.200558,41.7259271-21.6364691-11.9351188-26.8269084-27.3546272-37.200558-41.7259271ZM1625.5472734,2012.5819943c-25.4172487,9.007364-8.8266384-35.2920956,0,0h0ZM1641.1113623,1990.280455c21.4629725,17.118329,40.3451835,34.6270254,35.1547442,56.9357937-25.0919426-4.8362171-46.200693-31.6631255-35.1547442-56.9357937ZM1638.3571041,2078.5251521c-7.6193914-5.0169427-15.0363701-10.207382-22.6629905-15.0435991,2.5807616-3.8096957,5.3711649-7.800117,7.6266204-11.4363161,7.5904753,5.1904393,15.2170957,10.2362981,22.6629905,15.2532408-2.6096777,3.8096957-5.0097137,7.5904753-7.6266204,11.2266744ZM1664.6562938,2063.8357751c25.4461648-21.1087503,43.0994416,9.1808606,45.007904,30.6438331-23.3714349,1.5470112-38.5813016-10.7351008-45.007904-30.6438331ZM1709.4834722,2118.8703355c-.8457958-3.8169247,1.0626665,6.2097317,0,0h0ZM1723.1463277,2062.7803376c27.8823459-13.6628555,53.6538168,10.9085974,36.8824809,41.8994236-23.8919246-12.1086154-28.9088673-27.1811306-36.8824809-41.8994236ZM1753.9564284,2149.5069396c-3.6289701-2.2626845-7.0916726-5.0458588-11.0820939-7.6266204,2.6169067-3.6361991,5.0458588-7.4458948,7.6266204-10.9085974,3.6361991,2.4361811,7.6266204,4.8362171,11.2628195,7.2723982-2.6169067,3.8169247-5.0169427,7.6266204-7.807346,11.2628195ZM1763.6650077,2123.3523305c1.200018,6.2458768-.5277188-3.8169247,0,0h0ZM1784.6002615,2104.6797612c-3.4627025-2.4361811-7.2723982-5.0169427-11.0820939-7.4531238,4.5181401-4.1639179,1.3735146-6.7374505-1.9084624-9.5278538,5.1904393-12.4628375,31.3450485,9.1808606,12.9905563,16.9809776ZM1782.5183026,2119.8896279c20.4364511-18.318347,39.8102357,17.3351998,44.8271784,30.6366041-25.4533938,12.289341-32.5450665-14.7182931-44.8271784-30.6366041ZM1802.7740281,2174.6061113c19.7352358-21.1448955,56.408075-3.1446255,39.1162494,26.6461828-12.9905563-8.6820579-26.1618382-17.6821929-39.1162494-26.6461828ZM1828.3647734,2076.9709119c33.9258101,2.0819589,33.9258101,52.2730732,66.6443731,70.6275654-45.1814006,27.6727042-57.4635125-46.3814186-66.6443731-70.6275654ZM1866.8087235,2177.3531404c6.3904573-18.1737666,18.8460658-3.8096957,26.2919606-14.7182931,19.5617392,9.1808606,4.489224,25.0991716,16.6267554,35.8270434-21.8099657,10.3808786-19.2364331-8.6459128-42.918716-21.1087503ZM1919.0456516,2196.734154c1.4168887,6.2458768-.8457958-3.9904213,0,0h0ZM1881.5270165,2047.5632419c39.7813196,31.4896289,99.8255937,101.415979,88.4181937,159.1975686-66.2901509-27.318482-70.4540688-106.9534114-88.4181937-159.1975686ZM1937.7543659,2217.4886822c20.2629545,9.3543572,23.5449315,21.4629725,35.2993246,32.5450665-11.7543932,16.6267554-57.6442381-13.8363521-35.2993246-32.5450665ZM1984.6707323,2233.0889162c-25.6268904,9.1808606-9.1808606-35.2920956,0,0h0ZM2003.6902947,2205.2065703c-25.4461648,8.8266384-9.1736316-35.118599,0,0h0ZM1997.79864,2225.823747c19.5545102-17.8267734,25.4461648,11.2194454,43.0994416,21.1015213-15.9183111,28.7353708-43.5910153-6.0651512-43.0994416-21.1015213ZM2017.880869,2280.6703528c6.2169607-18.8460658,18.00027-9.1736316,24.9256751-24.2100017,15.2098667,13.3086334,22.1641879,28.200423,27.5281237,43.7717409-18.7087144,10.3736496-41.3717049-1.9084624-52.4537988-19.5617392ZM2045.4162217,2167.9987833c-7.2723982-3.8096957,2.400036-10.5471462,0,0,31.1281777,43.6343894,94.1363517,105.4064003,66.2540058,143.8069763-51.3983613-42.5717229-57.2900159-93.4351364-66.2540058-143.8069763ZM2122.7523215,2319.6420216c10.0266564,4.4458498,6.0723802,11.7182481,13.1640529,16.7351908-5.1832103,12.4917536-31.1643229-9.1808606-13.1640529-16.7351908ZM2130.9066606,2283.7788331c15.9183111-13.1279078,8.9639899,16.9809776,27.6727042,19.200288-16.9809776,16.3086784-19.200288-7.7639719-27.6727042-19.200288ZM2160.4878272,2312.3696234c26.118464,11.3640259,22.8364871,28.3811486,46.5549152,40.0993966-21.1087503,25.6268904-75.8180047-6.9181761-46.5549152-40.0993966ZM2187.9870349,2380.4959464c19.2364331-11.7182481,43.4464348-12.4266924,56.2634945,13.6990007-15.0725152,15.3833633-38.2632245-13.6990007-56.2634945-13.6990007ZM2251.8699208,2383.1056241c22.8437161-22.3087683-14.0459938-33.3908623-14.3640709-51.0369101,28.0269264,1.4096597,34.4173837,48.4272324,70.5986493,64.7359107-20.089458,4.8723622-44.4801852,5.1542942-56.2345784-13.6990007ZM2268.2870345,2419.1133931c19.7280067-11.2266744,61.6274304-4.6627205,73.208327,25.4100197-20.7545282,9.889305-47.0537178-8.8194094-73.208327-25.4100197ZM2363.8402749,2459.7766537c-9.000135-9.8820759,10.5543752-24.918446-10.7351008-32.1908443,24.9256751-31.2727582,40.4897639,3.4554735,57.9984603,23.2268544-12.8532048,18.8460658-32.7257921-.5710929-47.2633595,8.9639899ZM2386.1490433,2475.0226655c14.7182931-9.1736316,32.0101187-5.2193554,50.8634135,9.8820759-12.4266924,19.207517-32.1546992,2.5446165-50.8634135-9.8820759ZM2450.3500062,2477.4227015c18.3617212-25.6268904,64.7431398-13.3375494,43.0632965,21.318392-14.6821479-2.2554555-39.2463718.1445805-43.0632965-21.318392ZM2481.8396352,2515.5485745c22.1641879-25.8437611,28.5907903,25.200378,47.2272144-8.8266384,15.8171047,8.4724162,22.7352808,18.4990727,10.9447425,31.9812026-19.4171587-7.2723982-35.6535468,0-58.1719569-23.1545642ZM2549.6840263,2512.7220261c7.4820399-21.8171947,22.6557615-1.9084624,32.1908443-11.0820939-83.2349834-7.2723982-95.5170953-123.5440217-118.3897276-187.7160686,66.4997926,47.5814366,102.8545548,143.4527541,151.9902315,210.5887008-19.9087323,19.6990907-52.3092183,9.8820759-65.7913483-11.7905383ZM2583.0748886,2560.0215307c24.5642239-21.8171947,54.2176807-21.4629725,65.5817066,12.0724702-18.9906463,10.7278718-40.4536188,8.4724162-65.5817066-12.0724702ZM2660.4471334,2530.9391668c-91.7073996-44.8344074-118.0355054-181.5786271-200.0704708-260.15089,130.6718395,39.2897459,175.6435984,194.9161766,265.5148259,296.5056522-23.0172127,7.4097497-45.3982713,18.4918436-73.4251977-.9180861-2.8916096-18.1448505-14.3279258-22.800342,7.9808426-35.4366761ZM2657.6928752,2594.9666332c35.6535468-2.2626845,75.8180047-29.5811666,105.3991713,13.9809326-32.7547082,8.3278358-65.5817066,14.0459938-105.3991713-13.9809326ZM2759.636573,2590.3039127c20.8918796-23.0099837,50.6826879-12.4917536,56.0538528,13.8435811-18.007499,17.2918256-43.7717409,8.4651872-56.0538528-13.8435811ZM2770.3644447,2622.501986c16.0990367,26.2558155,64.3816886-31.9089123,73.208327,25.200378-19.0629365,6.2820219-92.408615,8.6820579-73.208327-25.200378ZM2841.8088899,2613.812699c-61.6346594-81.1819406-118.0355054-163.3542574-158.6987659-248.3531227,119.4451651,84.9988653,150.7179233,186.5811118,237.4806704,277.5800671-27.1739016,13.6990007-80.8277184,14.8990187-78.7819046-29.2269444ZM2886.6360682,2668.8834045c14.1905743-10.7351008,31.6992706-4.1711469,47.2272144-8.8989287,5.9350288,6.9904663,1.9084624,15.8171047,8.8266384,22.7352808-16.9448325,3.4554735-34.3812386,6.5639539-56.0538528-13.8363521ZM2952.571997,2656.5290024c12.7809146,7.4820399,14.5447965,16.800252,5.2265844,28.2365681-1.0626665-9.6724342-19.4171587-15.8821659-5.2265844-28.2365681ZM2976.9988694,2656.7386441c7.4097497-12.8459758,21.8171947,11.0820939,31.8366221,13.4821299-16.9376034,25.9811126-24.2100017,0-31.8366221-13.4821299ZM2991.5436659,2707.7755542c-5.2265844-21.2461018,35.2993246-18.00027,54.6369641,4.3084984-13.1279078,27.0365501-38.5451565-12.9905563-54.6369641-4.3084984ZM3049.9975547,2682.1558928c32.5450665-.1445805,30.2823819,52.0995766,61.9816526,17.5014673,2.2554555,7.9808426,8.4724162,14.8990187,18.4918436,21.1087503-18.00027,29.9353888-94.6640705-3.6651152-80.4734962-38.6102177ZM3116.1431251,2669.7292004c-46.2368381-7.1350468-49.3453185-52.9453725-59.3719749-81.5433918-5.2193554-1.9012333-9.8820759.2168707-12.9905563,7.2723982,6.9181761,4.1711469-2.2554555,10.3808786,0,0-29.5739376-33.5282137-48.9910963-68.8998286-68.5456064-104.5533754,28.3811486-4.0916276,63.326251,24.9256751,91.9170413,22.0268364,10.8724522,64.8804912,134.127313,124.0428244,93.4640525,212.0055895-22.6557615-.7084444-60.7816346-31.8438511-44.4729562-55.208057ZM3164.2161353,2743.6387427c-.4915736-4.1639179,1.0626665,6.2169607,0,0h0ZM3189.4960326,2670.4304157c-3.3181221,15.3905923,37.0632065,22.3087683,31.4823999,38.0535828-20.5448865,25.7714709-59.726197-13.6917716-31.4823999-38.0535828ZM3192.4599325,2738.4193873c18.4918436-21.9545462,44.2633145-7.9808426,64.1720469-21.8171947-35.0896829-23.1545642-95.6616758-78.2180407-96.3628911-123.5440217-2.4723262,3.8169247-4.8723622,7.4169787-7.6266204,11.089323-22.3087683-23.2268544-35.1547442-48.4995226-57.608093-72.2251797,116.9800679.7084444,190.6799685,122.0620718,191.3884128,213.2706688-27.0365501,18.4990727-71.1625132,29.7257471-93.9628551-6.7735956ZM3283.6685294,2677.1389501c19.6990907-9.6724342,19.6990907,25.2726682,44.6175367,30.8534748-14.5447965-41.2271244-67.2805272-75.326431-66.2901509-119.4523941,67.6998106-8.3278358,119.0909429,83.7988473,113.1631431,134.9803378-23.6461378,12.4989827-48.2898809,20.118374-75.3987213,14.1905743,8.6169967-22.800342-15.600234-39.4632425-16.0918076-60.5719929ZM3310.6327893,2769.7644357c24.9256751-39.3258911,95.8713175-38.2632245,71.3070936,15.8821659-22.5256391.7084444-44.4801852,6.0723802-71.3070936-15.8821659ZM3432.8394416,2795.6732581c12.2821119-36.8535648,76.3095783-25.0630265,107.6546268-49.6344794,14.6821479,13.489359,17.4364061,29.4438151,8.9639899,47.0898629-39.600594-1.7638819-77.5095963,4.3084984-116.6186167,2.5446165ZM4163.5058226,2736.3735735c-99.5436617,23.5015573-221.0346406,58.4466598-326.2241702,56.400846-14.1905743-22.6557615,18.8460658.7084444,21.1087503-18.7087144-78.2180407.3542222-149.1709121,37.0632065-230.2155012,23.8630085,23.718428-23.1545642,54.2176807-7.2723982,77.726467-29.2269444-8.3278358-22.8726322-72.008309,29.9353888-71.2998646-15.7448145-2.9638999,35.1619732-35.2993246,25.9811126-56.8996486,34.9451025-22.0268364-25.2726682-19.4171587-54.9911863-34.807751-81.326521-20.6099477-3.4554735,9.6724342,23.7256571-7.9736136,35.6535468-23.8630085-5.8555095-42.4271424,16.5906103-67.6347494,3.1084804-3.6723442-23.8630085-11.6459578-46.8802212-18.2099117-69.8902049-13.9809326,9.3182121,6.5639539,54.008039,5.0097137,77.1626032-10.7278718,21.8099657-29.3642959.1373515-39.8174647,22.1641879-23.8557795-49.1356768-33.8824359-101.0906729-52.9453724-151.2890162,319.869858,75.1167893,629.9299304,96.5797619,930.5995004,69.2540508-18.9255851,40.807841-81.6807432,32.5450665-128.416384,43.6343894ZM3955.8087315,2643.6107363c1.200018,6.2097317-.7012153-4.0265664,0,0h0ZM3980.2356039,2643.8926683c4.0988567-7.207337,10.3808786,2.1181041,0,0-4.0193374,7.1278178-10.5905203-2.0530428,0,0ZM4029.1616389,2644.2396614c7.2723982-5.1470652,14.8917896-6.3543122,24.4268724.5710929,55.6996306-6.0723802,112.808921-5.0169427,171.3351,1.9012333,2.6096777-3.1012513,5.1542942-6.0723802,9.3182121-1.9012333,5.5808066-5.2265844,12.1447605-4.3807886,18.8460658-3.3181221,4.0265664-7.2723982,10.5905203,2.1181041,0,0-5.5012873,6.2097317-10.7278718,12.1375315-18.8460658,3.3181221-2.7542582,3.2458318-5.5085164,6.3470832-9.3182121,1.9012333-54.008039,16.9448325-111.9631251,10.3808786-171.3351-1.9012333-7.2723982,5.5012873-15.0363701,6.3470832-24.4268724-.5710929ZM4305.8959102,2636.3383381c-7.4097497,21.4557435-23.718428-4.8723622-32.1908443,11.0820939-10.1640079-15.2532408,21.318392-21.8171947,32.1908443-11.0820939,13.4821299-14.407445,33.0366401,3.2458318,47.2272144-8.8266384,6.7808246,21.2461018-32.3281957,18.1448505-47.2272144,8.8266384ZM4285.2859625,2606.1933076c-106.2521961,8.6820579-207.8344426,9.0362801-321.7060301,1.7638819,51.0369101-14.8990187,99.5364327-41.5813466,149.5179053-62.3358747-43.9090923-7.6266204-117.8258637,48.4272324-177.33519,42.918716,23.0172127-32.8920596,52.9453724-28.8727222,77.6541768-53.2995946-13.2724882-18.8460658-56.8996486,25.7714709-86.6904569,6.5639539,12.2821119-21.1015213,30.9908263-9.3182121,43.7717409-28.0196974-2.7542582-20.0533128-36.4993426,13.3375494-54.4996126-4.1711469-23.3714349-41.1548342-79.7795099-96.7171133-124.9609105-118.0355054,221.0418697,49.4898989,439.3945424,86.5531055,668.1931549,176.9159066-46.8729922,37.9090023-117.4716415,33.0366401-173.9447777,37.6993606ZM4466.358558,2581.6218547c-3.4554735-16.9376034,13.6267104-14.5375674,24.9256751-24.2100017,18.8460658,2.400036,18.6364241,31.2727582,27.8100557,18.9906463,4.8723622,19.0557075-37.5547802,6.9832373-52.7357308,5.2193554ZM4501.6578826,2638.7383741c-2.9638999,3.1012513-5.3639359,5.8555095-9.5278538,1.5542402-4.1639179,7.4097497-10.5905203-1.9084624,0,0,2.6096777-2.9711289,5.3639359-6.0723802,9.5278538-1.5542402,10.3808786-26.9714889,17.2990547,10.2362981,0,0Z"/>
      <path d="M833.6366002,550.5769329c1.200018-1.3735146,2.9277548-2.400036,5.1904393-3.3542672-2.0819589-.3469932-4.1711469.2530158-5.1904393,3.3542672Z"/>
      <path d="M4395.2032738,2565.8842693c-18.1448505-18.1448505-27.3257111,10.0194274-41.7259271,12.7736856,18.2171407,17.5086964,29.9353888,3.3181221,41.7259271-12.7736856Z"/>
      <path d="M4263.541058,2566.0216207c-22.1714169-13.1279078-36.9258551,12.4989827-54.7164834,20.2629545,22.6629905,18.2099117,38.2632245-3.1084804,54.7164834-20.2629545Z"/>
      <path d="M4209.1787969,2537.28625c-20.9641699,19.0629365-45.0368201,20.8268184-64.7359107,46.3814186,22.3087683,1.4168887,80.6253057-9.6652052,64.7359107-46.3814186Z"/>
      <path d="M4144.4428861,2583.6676685c-11.4363161-9.3182121-20.9641699-7.4097497-28.0269264,5.2265844,11.2266744,9.6724342,21.1087503,7.6266204,28.0269264-5.2265844Z"/>
      <path d="M979.699032,601.3752852c-13.3447785-10.6266654-23.5449315-3.1807706-33.918581,1.4819499,13.4821299,10.3736496,23.3642059,3.3831833,33.918581-1.4819499Z"/>
      <path d="M945.780451,602.8572351c-3.8169247-4.4169337-6.5711829-1.4819499-9.3543572,1.5542402,3.9831923,4.5181401,6.7374505,1.7277368,9.3543572-1.5542402Z"/>
      <path d="M936.4260938,604.4114753c-8.2989197-8.407355-13.6628555-2.5807616-18.8532948,3.8096957,7.9446975,8.5736226,13.4821299,2.7542582,18.8532948-3.8096957Z"/>
      <path d="M824.1087465,552.3118987c4.1639179,4.4097047,6.7374505,1.5831563,9.5278538-1.7349658-4.1639179-4.1277728-6.9181761-1.200018-9.5278538,1.7349658Z"/>
      <path d="M824.1087465,552.3118987c-4.1350018-4.1350018-6.7446795-1.2723082-9.4989377,2.0096687,3.7807796,4.3084984,7.0916726,1.3012243,9.4989377-2.0096687Z"/>
      <path d="M2961.2540549,2078.6986486c10.3808786,2.0819589,3.9542762-6.9181761,0,0h0Z"/>
      <path d="M2370.5777254,1716.5028546c10.5543752,2.089188,4.3084984-7.4458948,0,0h0Z"/>
      <path d="M2370.5777254,1716.5028546c-3.9831923-4.3374145-6.5639539-1.5470112-9.3543572,1.5542402,4.1711469,4.4819949,6.7446795,1.5542402,9.3543572-1.5542402Z"/>
      <path d="M2466.4490429,1888.6909794c4.5181401-4.1639179,1.5542402-6.5639539-1.6915916-9.3543572-4.3807886,3.9904213-1.4168887,6.7735956,1.6915916,9.3543572Z"/>
      <path d="M2466.4490429,1888.6909794c-2.0458138,10.7278718,7.2723982,4.1639179,0,0h0Z"/>
      <path d="M2497.085647,2000.1263858c8.3350648-.6722992,15.7448145-4.4819949,22.8726322-9.1447155-10.0917176-10.7278718-16.3014493.6722992-22.8726322,9.1447155Z"/>
      <path d="M1890.1729293,1626.002702c3.6361991-5.5446615-3.9904213-9.000135-7.6193914-13.1640529-3.289206,5.5374325,3.9831923,9.1736316,7.6193914,13.1640529Z"/>
      <path d="M1890.1729293,1626.002702c-2.4361811,10.7278718,6.9181761,4.1277728,0,0h0Z"/>
      <path d="M1223.1870215,1194.9070792c10.7278718-10.0555725-.8530248-16.0267464-9.1808606-22.51841-2.2265394,8.4724162-.8457958,16.4460298,9.1808606,22.51841Z"/>
      <path d="M3154.8979233,2564.6842513c-8.6820579,8.1181941-2.6096777,13.4821299,3.8169247,18.9834173.8457958-6.9181761,1.9012333-13.4821299-3.8169247-18.9834173Z"/>
      <path d="M3158.714848,2583.6676685c-4.5181401,4.1711469-1.5542402,6.9254051,1.5542402,9.3905023,4.3012693-4.1639179,1.5470112-6.7735956-1.5542402-9.3905023Z"/>
      <path d="M2293.7331993,2189.815978c-19.5545102,2.4361811-8.2916906,40.1355418,5.0169427,52.5911503,4.1639179-18.6725692-9.1808606-33.8824359-5.0169427-52.5911503Z"/>
      <path d="M2841.8088899,2613.812699c1.9084624,1.4168887,3.8096957,2.7542582,5.7181581,3.8169247,3.4554735-7.1350468-3.3181221-6.9181761-5.7181581-3.8169247Z"/>
      <path d="M2016.5073544,2090.4891869c17.8267734-23.8991536-21.1087503-16.6267554,0,0h0Z"/>
      <path d="M1360.9505336,1657.4851019c1.200018,1.0265214,2.2626845,2.7542582,3.8169247,3.9904213,7.5832463-8.1543392,1.0192924-13.1640529,5.5374325-20.6099477-11.4363161-6.9181761-13.1640529,8.6459128-9.3543572,16.6195264Z"/>
      <path d="M1364.7674583,1661.4755232c-1.5542402-1.2361631-2.6169067-2.9638999-3.8169247-3.9904213,1.0265214,1.9084624,1.9084624,3.2819769,3.8169247,3.9904213Z"/>
      <path d="M1299.1423776,1624.9400354c4.1711469-4.1639179,1.4168887-6.9181761-1.8650882-9.6652052-4.3446435,4.4819949-1.5903853,7.2362531,1.8650882,9.6652052Z"/>
      <path d="M1220.6062599,1571.4669442c-9.3543572,11.2628195-7.4458948,20.9280247,5.3639359,28.200423,2.400036-10.200153.6722992-19.7280067-5.3639359-28.200423Z"/>
      <path d="M1299.1423776,1624.9400354c-1.0192924,6.5711829-2.0458138,13.5255041,3.6361991,18.7087144,8.3350648-7.9736136,2.6169067-13.5182751-3.6361991-18.7087144Z"/>
      <path d="M1586.4382531,1829.4925011c-.6722992,6.600099-1.7349658,13.5182751,3.6361991,19.0629365,8.6459128-8.1543392,2.9638999-13.6917716-3.6361991-19.0629365Z"/>
      <path d="M1356.1143165,1746.0840211c1.8723172,1.200018,3.600054,2.4361811,5.5085164,3.8169247,3.3181221-7.0989017-3.2819769-6.9181761-5.5085164-3.8169247Z"/>
    </g>
  </g>
</svg>