<?xml version="1.0" encoding="UTF-8"?>
<svg id="plum" xmlns="http://www.w3.org/2000/svg" version="1.1" viewBox="0 0 1000 1440.4521714">
  <!-- Generator: Adobe Illustrator 30.0.0, SVG Export Plug-In . SVG Version: 2.1.1 Build 123)  -->
  <defs>
    <style>
      .st0 {
        fill-rule: evenodd;
      }
    </style>
  </defs>
  <path class="st0" d="M255.6325127,480.0840253c2.2810364-4.9478953,27.2325302,3.6172393,18.0202494,11.9352257-8.1885571-3.1482124-15.8415237-6.4942666-18.0202494-11.9352257Z"/>
  <path class="st0" d="M471.8323621,623.3622034c2.4831926,18.7666247-8.2575861,42.6198189-8.4264604,62.3916774-7.631395-16.8110104,3.1001387-40.6457147,8.4264604-62.3916774Z"/>
  <path class="st0" d="M503.2898327,1127.7837319c3.8434324-12.7900751,55.7556549,12.5250533,28.8485468,5.1038267-10.5299939-4.1226297-17.5481408.9935236-28.8485468-5.1038267Z"/>
  <path class="st0" d="M491.2794148,1180.7917888c13.6720429,16.311167,27.5450094,55.8129736,32.2999935,84.4803195-12.9102594-27.3317593-23.2233052-55.692173-32.2999935-84.4803195Z"/>
  <path class="st0" d="M515.1591112,1144.756837c3.7405053-13.6868349,19.5160817,4.1411196,28.8602571,5.1161533-11.305953,5.4773225-17.0754159,4.5201624-28.8602571-5.1161533Z"/>
  <path class="st0" d="M36.9020134,351.2082409c17.0298075-51.4851061,52.5230054-131.2350947,87.6673606-178.765829,17.1567714-23.2325501,93.9422139-102.3865479,169.1023948-134.5990225,30.4041631-13.0193497,210.6356243-87.382,342.7009152,16.9244151,109.9945223,86.8759932,175.5966614,188.0952125,238.6022033,293.4006981,27.7108021,46.3030055,63.4776504,116.7778476,83.7339442,169.7316675,28.8306733,75.4159578,38.3129065,157.2121612,40.9945573,247.9100152,3.5272552,119.5106538-24.5058874,251.3830334-78.6874361,385.1641863-22.9496547,56.6493331-53.3630628,120.3889237-85.1003472,164.3202922-10.8128892,14.9749641-78.2418297,97.3733216-133.3447914,115.5501188-25.4143574,8.3839337-63.5435977-.0906005-98.4894948,2.702606-36.0435804,2.870864-59.8148027,14.3006993-97.0719364-.5602437-47.3772682-18.9052989-83.3123746-75.8492376-118.4357747-126.8653167-60.6758154-88.0673587-132.781466-185.3617901-199.329055-268.0670799-35.3452788-43.9011684-77.2729593-82.7472002-105.7960841-129.0076789C41.2144727,840.612895,9.8679413,746.2010378,2.4017227,654.8948663c-7.4360185-90.7520911,1.9408224-205.188502,34.5002907-303.6866254ZM546.8606484,1361.2667002c-3.3916626-89.2476301-27.4217434-170.6284273-74.2098005-243.2937054,10.8973264,2.9972116,10.6113494,10.3044172,16.5700255,15.2036224,5.7842547-17.4784955-20.4849521-22.6729227-17.6110064-39.0142898,9.7176712,1.9081569,8.6341635,21.4692307,16.5515356,15.1857488-1.7183274-17.2800373-12.0252098-31.2682574-8.5497264-50.522399-10.7765258-4.4233986-25.7872369,16.473878-29.9462301,6.0733134,12.4073343-1.2819659,34.7585328-20.3074491,19.1999045-34.2235586-41.7526429,10.3888543-72.2079614,50.3418144-109.820101,71.5583498,34.5243275-31.6590105,69.8942595-61.0671848,109.4620134-79.515167,6.2021263-4.9713158,20.0609172,17.159853,30.6420664,9.8045737-2.8443618-15.0285847-16.1429089-26.1095774-39.607199-33.2540719-9.6572709,7.8064327-30.1453046,24.0633626-35.7637667,19.0439731,12.0252098-9.642479,25.6306892-15.7151761,30.714177-25.1832338,12.5010164-3.4366547,22.6605961,18.3579981,37.1178432,12.6939276.5565458-14.5472312-32.7758-16.1546192-37.7982712-28.5896883,5.6246253-8.7272293,23.2208398,13.8433826,28.8516285,5.1161533-12.2575662-18.9891197-37.254052-27.0063372-52.6049772-39.0802371,7.7404854-7.8964168,27.6023281,15.9259609,35.3428135,8.0048909-8.6945639-15.4865177-33.8531444-24.7074272-49.3396622-37.60536,11.9925444-3.6714763,23.9098965,13.3799026,30.6211112,9.810737-3.5180102-15.6911392-26.4442445-23.9431783-47.5461426-32.9415927-25.2066543,11.4723621-47.8709484,29.6066324-71.1669805,46.0626369,17.7737175-21.6079049,40.1008792-31.1838203,59.9898404-47.1640182-33.1486795-4.6039833-49.4536832,34.8312598-77.6458388,43.1369195,27.4038699-24.4424054,56.6431698-44.0879163,84.5555117-67.2902663-50.4410435,11.1709768-84.6035854,64.8409718-133.2843911,80.5561479,41.5874665-24.5330059,89.4158882-63.5651693,121.7522451-89.5964728,6.5337117.6681015,17.3133191,12.4289058,20.9065216,5.4588326-5.6905726-14.3006993-24.9058854-15.6190286-36.3597576-31.8217216,6.4763931,2.8955172,12.9644964,5.790418,19.4556814,8.6853189,12.113345-23.4433349-34.4423557-24.4904791-35.2824131-42.9865351,10.9546451,2.9731747,8.838785,10.9546451,21.2769358,13.3799026,4.9115318-26.2963253-40.9279937-50.6844937-57.645322-45.2077875,8.3475702,5.4052119,8.4622075-10.7253704,15.5315098-8.6187553,10.8609629.2711851,14.0751226,5.5075227,21.2732378,13.3860659,2.6397403-21.1684618-31.6436023-28.583525-36.7295554-39.7545018,8.0652912,4.6884204,15.7509232,8.3598968,17.3219478-3.9426614-69.1263126-37.7378709-128.0357269,12.2002475-182.9790592,35.0180077,52.9119094-35.2041393,109.3899029-61.0012375,179.0339325-52.3337921-2.0314229-16.1188721-32.8417473-23.6362461-41.042631-30.028202,7.5623661-5.9586761,24.7702928,13.2295182,32.0713351,6.5485036-39.0112082-48.6561525-79.5176323,8.5706816-121.938993,11.6825305,37.4377183-7.2523522,68.3380269-54.2659859,110.0789595-28.6494723,11.4840723-15.1493854-7.7404854-18.5681665-20.1632279-24.5872429-65.1842675,7.7460324-134.5299936,42.0897753-186.6320457,60.6160314,28.8362202-17.5512224,61.7439148-28.4331406,95.3203272-39.1468007,28.5921537-9.1185987,59.5411523-17.3583112,79.8097726-30.5095555-2.3019916,4.3574514-9.8138187-.2705688-5.0588346-6.1330974,10.7734441,2.3895105,26.0793772,16.642136,33.8950549,11.2430874-8.203349-4.0264823,1.0169441-14.7222689-7.1956499-18.772788-4.8418866,4.2736305-29.1160339-6.5787038-29.1819812-13.036607,6.6988881-5.9408025,22.4830931,11.8748254,28.8633387,5.0976634-9.4224493-38.3942621-66.8421946-20.7647658-78.9734131-23.5937193,22.8658339-5.850202,46.7486119-9.0643617,76.4815919,3.0397384-5.8804022-48.4219472-73.3247509-15.5290445-94.8420553-22.9262342,27.8852234,4.9355687,45.0025497-18.3210183,72.5210569-14.2883727-16.2932934,3.1716329,14.0178039,17.3459846,18.032576,11.9475523,7.3189158-24.3043475-27.3465512-32.5921338-45.0093293-47.3507661,16.1219537-6.3377189,29.8414541,21.421157,43.6305997,15.5949918-1.2277289-39.8629759-12.8350671-75.7709637-38.0207662-106.4974673,13.1148809,10.274217,20.4190048,36.9619117,38.1625221,36.5163053-6.7623701-22.5280852-22.7961886-41.4937844-39.2065847-60.3269727,28.2821398,8.0110542,21.0445795,29.6127957,39.9769969,41.1930155,7.6770034-37.2386438-51.0099158-50.1606134-79.2439819-66.5321807,26.2507169,7.7404854,55.396951,22.9681446,78.9487599,23.6060459-18.4387373-20.9157666-63.2366655-22.8115969-79.6563065-39.4716065,22.5589017,7.3910264,47.4013051,20.7468922,66.0027534,17.7977543-.5898276-3.7435869-13.9999304-15.6369022-5.3805588-14.072041,9.1574275,14.4393735,18.1613889,28.9144941,27.3194327,43.3538676,23.8131327-45.0093293-56.3966379-50.1735563-82.8378007-75.9158012,24.6957169,7.5894846,75.5250481,42.9384614,72.4914731,20.6686183,5.2270927,9.6782261,8.6847026,20.0005169,18.6883508,27.8192761,7.1654497-26.9163531-17.6566148-41.6447852-21.8544368-64.2455973,14.2224254,10.7561869,16.2174848,40.3443294,32.0109348,41.5424745,4.9084502-18.0023758-8.444334-29.0408417-11.4563375-44.0219691,7.8212246,4.3636147,10.5293775,24.4306951,18.369092,19.868006-1.9950594-8.3358599-19.5518288-24.6291533-10.7703625-28.1619555,5.7719282,5.1519004,7.3941081,25.6343872,18.3388919,19.8864959-3.7072235-12.976823-21.4988145-34.7172388-16.1182557-42.246323,9.3170569,4.8209313,11.2856141,37.027859,20.148436,24.5625897,2.5275683-12.6156538-10.9213633-19.1154673-9.3386284-31.3761152,7.7466487,5.9827129,8.1854755,14.7820528,13.6806716,21.6498153,8.5922531-16.7327365-7.6227664-23.991252-6.4129111-37.8888717,5.8082916,6.091187,8.7783847,28.7043257,19.798977,16.6242625-17.4242585-36.3480473-61.828352-62.4274245-85.3172953-96.4821088,32.6913629,32.6642443,70.0082805,60.9525474,91.4688826,91.456556,5.6757807-37.1665332-55.0758432-63.204-53.2305519-89.9397685,16.3771142,28.7098726,45.5412219,52.5384136,65.5177019,79.851683,11.3910065-5.1340269-3.788579-16.4430615.3913694-27.0544109,5.5013594,6.8733094,5.9463495,15.6732657,13.6806716,21.6917257,5.7121442-12.0073363,7.7645223-7.6437216,8.7001108-19.4704733,5.3269381,3.5932025,5.0409611,22.8233071,16.5613968,15.1789692-6.322927-5.6696174-5.3540566-14.1139514-5.7183075-22.0165315,7.8064327,5.4169222,2.925101,22.7629068,15.1105566,18.4356556,7.9746907-7.8545064-10.1811512-19.0014463.7550039-19.122247,5.2665378,15.5469181,9.6541893,15.5469181,17.2560005,31.0574727,9.9617378-7.7762325-6.150971-18.6526037,3.9907352-17.6714067-1.1734919,4.9294054,5.4742409,6.885636,6.8406439,10.846171-2.5281847-55.5115884-11.3065694-108.6583194-40.0977975-154.1366757,46.9051597,45.7310515,24.5989532,117.9211393,61.3624067,167.5227417,9.593789-14.8184163,10.3734461-18.5262561,29.6608694-49.0117748-4.0270986,11.423672-14.243997,25.1647439-11.2406221,33.8919732,5.2579091,2.4918212,8.7395559,14.5059371,16.9219497,23.1185291,8.6791556-8.7031925-9.3953308-7.1685314-.7069302-15.8778871,6.436948,2.9257173.1898296,10.6896233,10.1028773,12.290848,16.2353584-27.7829127,16.3499957-63.6015327,37.6774706-84.3662985-19.1277939,34.7406593-25.835927,74.2665028-35.5622268,97.0059891,11.3065694,6.1028972,14.5447659-8.9078139,25.2732179-4.2853408-13.9124116,9.593789,1.5919798,12.6754377,1.0200257,23.8045041,12.3962404,6.6144509,16.1157904-9.4378575,28.5237411-2.8289536-31.6596268,26.8497894,19.6122291,15.3361333,18.6975958,27.8309864,9.9580398-6.8135254,16.7592387-21.8544368,27.4636539-26.645168-6.2773186,14.812253-30.6993851,27.276906-14.1379882,40.3683663-9.1130518-7.3854795-13.5876058-2.6668588-19.122247-.7463753.9781153-2.1910523,1.9414387-4.3278675,2.9072275-6.4942666-13.9728119-9.1007252-1.6283432,25.54995,3.9272532,17.3157845,23.5906377,2.9916646,54.1365567-36.6124528,76.9691088-58.9963168-17.3040742,29.2571735-49.6404311,50.6185464-60.4052466,74.1820656-12.28715,4.6163099-.2077031-6.3857926-11.5167378-9.0464881-1.9593123,11.5204358,8.5404814,18.2612343,15.4563176,26.3745992,9.2295381-4.0024454,17.9869676-9.2449463,29.9468465-6.0788604-7.1444945,7.0298572-17.7379703,5.1759373-24.9151303,12.2181211,12.4196609,16.528115,34.1206316,9.6541893,42.1735961,18.8572252,8.1676019-11.4902356,18.550293-17.1475264,29.273198-21.9567475-12.9466228,13.0427703-27.0131168,23.2023499-39.7637468,36.7147635,7.9691437,6.7956519,10.4393934-.8061593,17.6559985,4.0086087-4.883797,6.608904-19.064312-.0061633-13.722582,13.3256656,21.071698-1.1975287,32.026343-28.8238936,52.7430351-30.936672-14.8393715,12.7900751-32.7665551,17.5210223-42.6617293,43.2090301,24.4578137,16.9854317,38.5927203-30.2026233,51.6237803-19.7354951-17.8939018,10.0936324-45.5627935,35.3668503-45.5504669,49.6915865-9.578997-2.6181688,2.3654736-13.4520132-3.9334165-17.3164008-8.8868587,4.18303-3.1901228,19.1099204,8.9712959,23.4612084,16.5182538-22.4257745,34.5391195-40.9520306,56.7423989-48.5778786-28.9416126,21.3367198-47.8376666,39.4777698-57.5072641,67.7001256,11.8033311,2.7081529,20.3647678-2.9972116,31.7619376-1.3904399-5.4144569,7.8483431-22.7758498,2.9491379-18.4301087,15.1130219,9.6843894,6.5910304,16.0855903,4.5565259,24.1416365,6.9219995-17.0661709,7.3065892,6.4104458,15.4501543,8.9891695,23.4612084-10.4455567.8788862-21.7490444-.5898276-28.1588738,10.7561869,9.0279982,10.6168964,19.922243,4.9534422,24.4997241,14.8541634-13.4285927-6.6686879-5.4865675,6.2656083-4.3580677,9.7386265-6.6384878-.6502279-9.2116645-15.5469181-16.2236481-7.2468053-8.1133649,10.0997957,6.322927,29.047005,24.8608933,22.7511966-12.3173501,3.5210919-12.3296767,11.9777525-5.4471224,20.9398034-9.0853169-1.0773444-11.7786779-23.9068149-19.4797182-8.7155191,14.6409133,13.3016288-2.5670134,5.8384918-2.8955172,6.4881033-12.3025582,24.0756892,18.6347301,20.9878771,34.5754829,27.1333011-8.6039634-1.4144768-17.042134-2.4018371-21.9955763,5.741728,8.4412523,10.5392388,13.0125701,16.5940623,21.589415,21.307136-10.3432459,5.795965-26.4436281-3.4791815-34.6352669,7.8902535,17.5660143,39.9474131,83.6766255,2.8227903,105.3202775,8.143565-29.9406832,6.145424-58.5451634,15.6732657-88.0766036,22.901581,18.0147024,23.8951046,66.2344934-14.2039355,87.3031098-3.7978239-35.420471,3.4551446-66.2314118,19.0199362-100.6947227,25.0507229,5.9555944,4.9053685,5.6634541,12.1879209,16.5694091,15.1912958,26.3086519-6.2230815,63.8930567-20.4159231,85.1761558-16.4375146-30.8676431,6.091187-62.2172561,10.8221342-89.5305255,26.1699777,42.1797594,7.1204577,83.2223905-26.1459409,116.9189871-17.8094646-41.6626588,8.2877862-84.7632148,12.8141119-120.9275959,35.4870346,16.8103941,20.8251661,39.1375558.6983016,57.3747532,2.2748731-19.6097638,12.0560263-45.2164161,8.3426396-62.4730329,26.5792207,1.2942925,8.4566606,15.1857488,12.1281369,13.6510877,21.6559786-8.1978021-7.1383312-8.661282-7.349116-19.4470528-8.6970292-3.5001367,19.8501324,14.8849799,20.7228553,25.1832338,30.714177-13.6356795-5.2123007-24.3012659-2.6181688-34.9970525-.0665636,2.6995243,15.2276593,27.7410023,13.2233549,32.785045,22.4504276-13.040305-6.8554359-14.7734242-1.9864308-15.5228812,8.6249186-2.4979845-19.3743258-35.4056791-14.1564781-29.9499281,6.0671501,9.9463296,4.5139991,29.9018544-.9331232,32.0867434,6.5663772-5.6579071,6.3377189-18.9231725-7.3004259-22.0257764,5.6998176,7.6498849,6.0554398,14.240299,12.4954694,18.3814186,19.8982061-13.4612582,0-29.3027819-6.2656083-37.895035,6.4283193,6.6902595,16.015945,35.3341848,1.5167875,40.3745296,14.1324413-10.0393954-5.1038267-14.703779,3.7737871-25.604187-3.6474395-4.4449702,21.0057507,19.353987,14.812253,24.8337748,22.7573599-15.4137908,1.9019936-33.6269514-3.5093816-47.6207185,2.0764149,22.5915672,30.4793554,61.2656429,17.3885114,85.4461082,26.5366939-34.0694762,5.4532857-65.6083024-7.3127525-93.7881314.867176,27.5240542,26.0072667,51.3045214-4.6045996,75.3648024,14.2224254-20.5965077-2.2631629-39.2250746.631738-57.0166656,5.6517439,2.7087693,7.0477307,11.0809927,11.9235154,10.4338464,20.2291752-5.2246273-10.1478694-22.5619833-6.8973463-30.2963054-1.8717935,8.8991853,12.8504754,28.3037113,6.6871778,34.211232,19.1999045-12.2390763-5.1278636-10.8640446-.4813535-19.4495181-8.6970292-3.783032,5.001516,1.1013813,10.4726752-4.354986,9.7386265-3.3583808-7.9512702-21.6646072-15.3422966-25.6011054-3.6653131,6.0159947,16.1059292,34.2500608,3.7916607,38.926771,17.3940583-13.1481627-4.8751684-23.079084-1.2936762-25.2608913,4.2915041-4.2884224-10.3463276-19.7114582-10.2440169-23.8106674,1.0169441,12.5762086,4.5022889,33.9073815-4.7303309,41.8222882,10.9367715-11.6917754-2.4801109-25.1080415-9.3836205-31.7434477,1.3540765,5.4742409,11.9771361,21.7823262,4.2372671,24.514516,14.8362899-13.1512443-3.8582243-26.0226749-7.0421838-35.0173913-.0480737,2.6360424,13.7047084,26.8195893,5.1944272,27.7619575,16.2809668-11.5050275-8.9984144-14.1084044,5.3386483-25.6257585-3.6591498-1.889667,21.3243932,9.5549602,65.562694,3.8039872,87.3209833-9.1364723-20.7586025,1.7670174-63.4264951-14.2797441-72.5389305-.46348,14.5053208,7.8397145,25.6701343,4.9657688,41.1264519-10.2890089-11.3028714-2.6120055-29.5043217-12.9040961-40.7893195-1.3996849,3.497055-5.218464,7.5592844-4.700747,1.781193-17.972792-8.7031925,6.3827109,15.9980714-5.8021283,12.9706597-2.7266428-9.6899364-5.4656123-19.4168526-20.1422727-24.5625897,17.2350453,21.7219259,5.2123007,65.0819568,11.7336859,86.9659774-16.1127088-21.6676889,8.8806954-73.3093427-27.2744406-78.3293485,5.80521,4.887495,10.7253704,12.2668111.6921383,15.8538503-7.4329368-6.1152238-4.7124573-16.1120924-13.6566347-21.6559786-6.136179-1.1315814-1.1889001,4.4844153-4.3519044,9.7386265-7.8366328-13.6325978-25.6941711-4.7666943-40.362203-14.1564781,1.898912,79.9607734,57.2545689,139.4871338,52.5686138,221.9754755,18.8991356.1380579,37.1153778-1.4446769,59.1744361,6.9694569,12.1792923-6.0129131-6.2656083-17.5265692,1.8415933-30.304934,10.2711354,7.7343221-.5207986,23.5216088,14.0332122,29.618959,10.3432459-8.0412543-5.3780934-25.658424-1.7429805-39.6941015,10.5213652,9.5038048,7.2018132,38.3942621,22.2969615,37.2146069-4.9115318-25.9413194-22.6427225-61.260096-8.5047343-85.5280801-3.2320332,34.4275638,6.9096729,78.0464532,23.2719952,96.0007553-1.2308105-5.164227-9.5185967-21.1025145,2.2267994-22.3542802-4.4295619,11.5383093,5.9586761,17.455075,2.8141617,28.5114145,36.278402,15.1734222,60.0077139-2.5398949,83.3696933-21.1382616-7.8483431-7.7521957-21.5444229-13.2652653-24.8424034-22.78756,11.1469399,6.5367934,19.8834142,13.9339831,29.5616404,20.9940404,4.8813317-5.9346392,12.1669657-5.6696174,15.1610956-16.5638622-16.3499957-7.1864049-30.1151045-15.384207-34.5810299-27.1148112,8.2760759,11.1771401,36.1280176,14.8843636,37.831553,28.583525,2.3260285-7.9931806,6.0998156-12.2427742,10.4936304-14.7826692-12.8985491-8.5226078-24.7857011-17.4125482-29.8716542-28.9323677,11.4963989,5.5913435,23.8045041,24.8097379,37.4673021,20.6445815-8.5102813-11.9771361-26.9946269-20.1749382-31.6707208-33.6152412,14.3124096,7.9870173,21.2553643,18.7610777,34.5779482,27.1271378,9.0914802-12.9287493,36.2488182-32.4294227,26.4319179-50.4558354,4.5201624,1.8594669,6.436948,4.7124573,8.2877862,7.5894846,63.3155557-97.9988963,109.4558501-221.1625365,136.6612618-331.9755448-15.7003842-6.5602139-28.9601025-14.0597144-36.0263232-23.8889413,15.615947,4.773474,17.6202514,14.7826692,34.2266403,19.176484,6.0850237-9.5099681,1.0471443-14.7401424,2.2089258-22.3604435-12.9706597-7.5956479-32.6525341-12.6335273-31.3434497-25.6701343,8.2156756,8.5047343,20.8042109,15.3601701,32.7844286,22.4263908,3.4915081-7.5901009-1.3060028-12.049863,5.450204-20.9096033-23.7169853-16.0282716-48.3640122-31.7070842-67.3629932-49.5473653,27.8340681,9.1309253,44.0638795,36.8836378,68.485946,38.3640619,4.2970511-19.5851106-23.9074312-26.7351521-32.0294247-41.5480214,11.1198214,6.5004299,19.8649243,13.9154932,29.5376035,20.9940404,16.0547738-24.0935628-21.4938839-27.6688917-27.3410043-43.3538676,15.1919121,4.069009,15.8113235,13.6868349,30.9884437,17.737354,8.8597402-23.1123658-28.2741275-28.643309-33.8260259-46.2426052,16.4344329,3.6893499,22.6458042,25.2608913,37.4999676,20.6445815.4998434-19.0433568-27.725594-27.0667375-35.2824131-43.0167352,12.7272094,6.7894886,20.0670805,15.6430655,32.7819633,22.4381011,16.3080853-32.2550014-14.2224254-46.567411-28.351785-67.1577554,10.8159709,6.6082876,15.4951464,15.5765019,29.5283586,20.9817138,1.5888981-107.304243-39.0833187-198.4538667-76.2708072-290.9212035-22.965063-15.4322807-44.2111823-31.5147894-64.1278783-48.1267252,21.9777027,5.1401902,31.4784259,29.1191156,50.4441251,26.4411628-5.2665378-22.1977324-37.437102-34.0848844-54.705429-51.7082174,16.5909807,1.8841201,23.8587411,21.1746251,35.6830275,15.956161-13.085297-30.8645615-60.501394-48.6025318-87.5200578-74.1524818,25.2787649,9.2147462,48.6228707,33.362546,65.2138514,36.9495851-30.3862896-50.4496721-46.6487665-93.1958385-110.4999127-127.2018328,24.3222211,5.115537,35.5412716,29.3416106,53.6909503,27.8852234-23.3712243-33.2059982-58.8009403-61.7956865-100.8395602-87.8633535,13.5481607,1.2942925,22.7062045,17.9179386,29.2004711,13.0372233-54.3621334-57.7568776-148.6593532-160.8780906-244.3470129-132.5170606,5.8563653,4.9294054,23.0969576,5.5013594,21.2824828,13.3916129-22.038103-10.7130438-43.9763607-21.1499719-57.7174325-10.21998,23.247342,9.9494112,45.5054748,20.2593754,58.725748,34.0189371-30.8830514-9.9192111-64.7719429-47.2120919-88.690468-27.9394604,17.8939018,7.4995005,34.5989034,15.4501543,42.5261367,26.7776789-27.0309904-18.4541455-64.6727138-36.9921119-85.1126738-18.5743298,23.0729207,10.9121183,51.2743213,19.8501324,61.9972264,35.4753244-27.8014026-15.1198015-74.7903831-48.2715627-96.6509832-27.5967811,24.2291553,10.4486383,48.2049991,21.0359509,62.0064713,35.4629978-31.3132495-13.204865-66.4662334-44.9242758-90.1536349-24.7129742,23.7804673,10.6353862,49.6194759,20.494197,61.9762711,35.4987449-29.0198865-12.2057945-64.9340376-44.3406115-86.8969485-23.2689136,18.9348827,8.9084303,42.192086,16.1490722,49.0142401,29.6670327-25.2282259-9.070525-50.2573772-37.3951915-69.2286234-19.236268,20.5693892,9.1611255,43.0586457,17.5992961,52.2407263,31.1295833-23.7237649-5.7842547-57.7118856-38.3819355-70.6677534-16.015945,7.9062781,5.9346392,27.5665809,7.3848631,27.7379206,16.2809668-49.8690894-31.9419059-66.3485144,23.4494982-94.9708682,47.0851279,10.9330735,7.0723839,31.1801223,2.3778002,35.6793295,15.9382875-18.1558419-5.3207748-39.3298506-18.4060718-49.4117728-2.6304954,13.6208876,5.5555964,24.6531902,12.1158103,29.5314402,20.9940404-15.8020786-3.8403507-39.1794662-27.4519436-44.7319809-4.424015,10.0122769,6.9213831,32.0170981,9.2806934,34.2500608,19.1937412-18.8991356-7.1802416-41.8851538-25.1043436-49.4204014-2.6360424,12.1219736,7.9087434,36.3659209,11.2128872,40.7264539,22.0892584-16.7173283-6.1571343-36.4861052-20.3616861-46.5347455-9.1007252,1.3485295,12.0258262,34.7018305,11.8033311,36.0349518,23.877231-16.1965296-9.5703684-28.9477759-10.051722-43.6188894-15.5832815-1.4292687,10.3524909-8.3296966,6.3500455-10.4905488,14.7463057,11.0655844,7.4335532,34.1902768,10.2440169,37.4851757,20.6445815-14.7943794-8.1737652-24.9120487-4.1891933-40.3924031-14.1503148-2.8979825,6.4763931-5.7898017,12.9589494-8.6939475,19.4408895,12.1306022,7.9389436,36.3745495,11.201177,40.7233722,22.107132-17.1506081-9.6899364-31.4186419-11.8088781-46.8687962-17.0452157-2.8918192,6.4702298-5.7990467,12.9706597-8.6914822,19.4470528,15.3330516,9.3953308,42.9144245,14.1022411,50.4564517,26.4590364-18.550293-8.6255349-37.136333-17.4427484-53.3661445-19.9586064-6.3531271,11.1586502-11.941389,13.4101028-11.595628,25.9530296,12.1281369,7.92107,36.3930394,11.2073403,40.7326172,22.1009687-15.675731-8.2273859-29.9887569-12.795622-43.6305997-15.6005388-15.8593972,30.2747339-18.4116188,55.4518044-20.3524412,80.4119268,1.8323484-5.5796333,22.3900273,3.5993658,19.4618447,8.6847026-6.4825564-2.9010642-12.9706597-5.7836384-19.4618447-8.6847026-7.5901009,15.4322807-9.7959451,28.8362202-10.8942447,41.8247535,5.8563653,4.9176951,23.079084,5.5075227,21.2584459,13.3922292-8.8689852-6.7777783-13.3164207-1.9864308-20.9126849-5.4656123-22.0590583,131.2652948-9.8766843,249.4570029,31.3915234,356.520261,5.278248,3.4311077,20.2988205-1.9019936,19.4556814,8.6914822-6.2323265-2.2569996-11.7965515-2.7204795-15.8563156.6742648-.0449921,21.9505842,33.289819,14.4332102,44.3196563,31.4845892-12.1940842-6.0369499-23.7021934-10.3950176-32.1194088-6.5485036,4.6884204,24.8097379,33.6725598,29.5345218,54.4071254,43.7329104-12.2242844-8.4806974-18.8781804-2.4437475-30.6537767-9.7928635-5.967921,27.4821438,36.6968899,27.7231287,51.1479737,42.3122703-12.0344548-5.6634541-23.024847-8.6551187-32.1015353-6.5540506,4.014772,26.8319159,47.5670978,18.2667813,61.9941447,35.4808713-15.6036204-5.5857966-31.686129-12.4769796-43.281757-7.6498849,5.7423443,22.5644487,39.0506533,19.0556834,54.0496542,35.7939668-11.1111928-5.5975068-21.1505882-8.4085868-28.8664204-5.0976634,10.6711334,19.5851106,40.8528015,25.6399341,57.3020263,37.2805542-9.9099661-4.8153844-18.655069-6.5725405-25.6128156-3.6653131,22.9194546,34.5237112,63.209547,28.9323677,97.6679272,51.4185425-20.4763234-11.3571084-34.7560675-6.5059769-54.8015765-16.70192,3.3312623,38.4238459,73.0714394,28.0294446,94.4291144,49.9800288-24.9058854-11.1463236-44.3584851-8.1189119-69.2403336-19.2541415,2.1633174,30.136676,57.1849236,19.4470528,71.7173629,39.8149022-18.1922054-7.7041219-35.4808713-13.0668071-49.7698604-10.5571124,10.5299939,21.8365632,48.3165548,14.7765059,61.6391388,27.5419278-11.9321441-.7340487-26.1095774-7.2825524-36.7992007-4.760531,26.3351541,32.7061548,62.8366675,62.7220302,106.6478518,74.8803672-14.9540088-6.2779349-29.1733526-10.6175127-40.0435605-6.205208,7.8939515,17.1413631,39.8451023,8.3839337,47.2207205,24.9897062-10.9478654-5.1519004-22.1884875-11.1222868-28.8633387-5.10999,8.838785,13.4341397,45.0993135,7.349116,55.1541171,24.6414799-16.4948332-10.3586542-27.4192781-6.091187-43.6158078-15.6011551-3.8637712,30.4374449,40.3381661,15.1980754,54.0404092,35.8303303-13.2837552-9.0039614-21.3878751-4.3938148-33.8950549-11.2794508-5.5106043,27.3496329,33.235582,25.0926333,47.9097772,40.8922466-11.1050295-5.627707-21.1413432-8.4504973-28.8571754-5.1217003,3.5777942,17.8994487,31.9536161,11.9832994,39.2817769,25.3330019-9.0193696-4.8209313-16.8344309-6.5608302-22.3629088-2.1965992,15.7515395,25.8205187,57.8893885,27.6023281,71.7839265,4.814768-10.5244469,26.4109627-32.3542305,23.2750769-54.8743034,18.2914345,6.831399,16.3709509,37.4525102,7.0662206,43.9738953,23.5456456-12.6544825-4.941732-26.985382-14.3068626-33.5548408-3.3103071,6.2502,14.7943794,36.2543652,3.9303348,42.192086,18.8387353-11.8421599-2.8104637-24.6957169-8.2699126-33.5671674-3.3103071,5.9796313,6.885636,30.6537767,12.6877643,40.0281523,6.2113713,9.7115079-19.0131566-8.8535769-41.3674368-.6077011-50.8650783,5.7478913,11.2492507,2.9824197,25.7484082,11.1229031,36.0768622ZM259.4457449,1116.1073647c23.6029643,19.0316465,48.3523019,8.0412543,0,0h0ZM306.6541388,1141.0853607c-13.1691179-6.2779349-26.2537986-12.3444687-35.3391155-7.980854,12.859104,5.4649959,25.0803067,9.3349305,35.3391155,7.980854ZM318.5172539,1158.0825026c-2.6267974-9.0581984-36.865148-15.6732657-33.8888916-11.2609609,17.3164008,3.7737871,20.6599897,12.7900751,33.8888916,11.2609609ZM343.7152796,1188.7905163c26.6698211,7.6141378-18.0140861-12.5312166-27.7496309-16.2809668-2.8529904-.4271165-4.9836424,1.0175604-6.1423423,5.0200059,12.9614147,8.1010383,22.4954197,7.2646788,33.8919732,11.2609609ZM363.5235016,1205.4271054c-1.4292687-7.6381747-34.4879641-14.643995-30.6420664-9.7928635,9.6813078,1.9260305,23.8920229,15.6128653,30.6420664,9.7928635ZM381.9049202,1225.3012747c-6.5035116-4.4418885-29.9258912-25.8451719-37.1572883-12.6822174,3.2412782,3.3226337,27.4667355,14.5540108,37.1572883,12.6822174ZM392.3024032,1245.5181233c2.3562287-13.7527821-38.1656037-27.3434696-43.6096445-15.5765019,13.6332142,2.81108,27.9215869,7.3848631,43.6096445,15.5765019ZM407.4160414,1263.9599422c3.9691636-14.7820528-30.8768881-24.1773836-42.1742125-18.8387353,11.7577227,10.3463276,20.3795597,4.6767102,42.1742125,18.8387353ZM394.7855957,1266.0967575c50.3652349,28.2463927,10.1293795-12.1281369-11.1709768-1.1137079,4.4055251,2.1553052,7.7941061,1.661625,11.1709768,1.1137079ZM435.5299232,1288.1736893c-11.2702059-1.2875129-29.8026253-21.6257784-35.3637687-7.9925643,12.859104,5.4711592,25.0895517,9.3349305,35.3637687,7.9925643ZM442.3465303,1299.0321869c-10.0128932-5.104443-19.5314899-8.8659035-25.6072687-3.6474395,9.4255309,3.5204756,21.0057507,12.7118012,25.6072687,3.6474395ZM454.2213556,1316.005292c-11.2671242-1.312166-29.7902987-21.6621419-35.3483604-8.0110542,12.7204298,5.1217003,27.3675064,15.2634064,35.3483604,8.0110542ZM462.8462742,1331.5337202c-1.657927-2.3112366-23.9339334-15.8593972-28.8479305-5.10999,9.6270708,1.7331193,20.8609132,7.7041219,28.8479305,5.10999ZM471.4711928,1347.0559851c-5.3805588-8.9558877-28.7098726-17.797138-35.3335685-7.9987276,12.8473937,5.4532857,25.0895517,9.3232202,35.3335685,7.9987276ZM438.2775212,1351.6907848c3.8637712,12.3265951,32.8177105,5.1038267,37.4765471,20.6328712-12.0560263-3.4070709-25.1591969-9.4982579-35.3428135-8.0110542,7.8273879,13.6202713,25.6793792,4.7543677,40.3800765,14.1558618-11.887152,6.6693043-3.8458977,10.7555706,6.8406439,10.8400077-3.5241735,7.8187593,2.0856599,25.8088085,10.4215198,20.2113016-10.0301504-23.5277721-1.9229488-2.756843,8.2908679,7.5956479.7346651-14.4689573,14.7672609,5.8384918,15.5080893-8.6310819-38.6260021-6.3796293-32.499068-69.1324759-83.5749311-56.7935542ZM533.383982,1417.5431538c-3.4754835-3.1722492-4.7543677-7.1685314-2.1331173-12.6396906,1.1340467,2.756843,11.9832994,14.4689573,16.2144032,7.2344787-3.4760998-4.9355687-8.098573-9.4495678-3.9334165-17.3102375,8.1614386,5.0982797,4.4690071,28.5656515,16.9164028,23.1123658-3.6955132-6.6569777-9.765745-12.404869-5.7392627-22.0048212,6.4252377,8.1799285,5.5130697,15.0353644,7.9506538-.3432957,6.5515853,5.5617597,3.8551426,14.6563216,10.4190545,20.2174649,7.9149067-6.1934977-8.2939495-15.8834341,2.5577685-14.4270469,7.1777763,3.7318767,3.8311058,25.1468703,15.1222669,18.4356556-6.3284739-5.6634541-5.3565219-14.0960778-5.7269361-22.0171478,2.4049187,3.852061,9.2659015,19.344742,18.0085391,11.9296787-2.2693262-1.3781133,3.2499068-13.7349086,5.790418-12.976823,3.0964407,24.6772271,21.125935,5.8563653,17.6621618,4.014772.5627091.2946056,8.6908659,28.36103,6.8375623,10.8276811-2.2033789-1.8594669-2.5583848-4.4055251-.349459-7.9389436,28.5896883,8.6434085,31.6775004-4.3814882,63.8542279,5.1765536.0117103-5.3750118-12.2668111-6.0671501-10.0880854-12.2785214,20.6723163,7.0236939,57.0561107,18.032576,58.8255934-.9750337-2.7506797,4.5263257-9.1697541-.5238803-14.4270469-2.5577685-3.7799504,5.0193895,1.0921363,10.4665119-4.3426595,9.7380101-18.5922034-9.8890109-48.9932849-11.2128872-66.360841-25.7484082,8.666829,1.5044609,16.9065415,1.943904,27.4155802,8.3598968-1.8717935-25.5980237-51.4789428-13.3071757-70.6794636-16.0338186,5.8508184,4.9534422,23.1123658,5.5371065,21.2738541,13.4156498-11.3034877-.0178736-24.8966404-6.0905706-32.4503779-14.5053208-22.7752334,8.0954913-32.3727204,14.8486165-55.568907,2.4080004-5.0169242,24.923759-43.9529401,39.7723754-17.0489137,46.8866698ZM528.7528802,1384.3488659c-7.3189158,1.9081569-20.1120726-10.4184382-23.7958755,1.0231074,9.8082717,4.5201624,20.5003603,11.4298353,23.7958755-1.0231074ZM637.067904,1350.9863199c-24.9539591-4.2668509-46.8540043-.5898276-73.601483-9.5093518-1.4415953,3.2258699-2.8887376,6.4881033-4.3457411,9.7324632,32.9927481,18.2667813,54.305431,5.9888762,77.9472241-.2231114ZM722.4480649,1412.4991111c-7.0206122.4215696-16.6988384-6.0967339-22.3690721-2.2089258,3.8039872,10.0578853,17.1358162,9.1068885,22.3690721,2.2089258ZM764.3424637,1388.4178749c-12.2637295-.1503845-11.1678952-4.1589932-22.7271597-10.1540327-8.5860898,15.8174868,17.3133191,17.8883548,22.7271597,10.1540327ZM783.8825822,1362.109223c18.8060698-6.1330974-.9929072-35.7878035-13.6720429-21.6917257,7.4397165,6.1392607,4.7192369,16.1484559,13.6720429,21.6917257ZM764.4145743,1353.4183571c-10.9269102,10.4363117,13.4914583,7.3669896,8.6280002,15.5222649-5.3867221-2.3352734-5.8471204,8.1799285-10.846171,6.831399,2.6908957-7.3065892-5.0588346-10.6353862-13.3287473-13.7349086-1.9469857,9.7262999,3.2536048,16.7025364,13.6720429,21.6738522,7.7250771-1.775646,18.427027-14.2766624,14.8547797-24.5028057-4.3364962-1.9315775-8.6736086-3.8760978-12.9799046-5.7898017ZM809.8898489,1338.7084149c2.6847324-8.5768449-6.3586741-24.3826214-13.3164207-13.7293616,5.5611434,4.1528299,5.0255528,10.623676,13.3164207,13.7293616ZM850.1441941,1239.9329431c2.584887,3.8039872,11.9894627,18.3154713,3.9241715,17.3342744-4.0474375-3.8458977-6.027705-8.4628239-10.0695955-12.290848-8.8535769,15.1136382,5.1821006,23.1246924,7.517374,26.7117316-13.5389157,9.7386265-9.193791-1.3540765-11.9444706,18.032576-6.0905706-1.8477566-14.7851345-10.5386225-15.8711075.680428,23.3410241,17.4963691,56.4231401-53.7125218,26.4436281-50.468162ZM945.7264615,1060.8238184c3.3041438-8.4141338.9029231-14.6797421-7.171613-18.772788-3.2862703,8.438787-.917715,14.6865217,7.171613,18.772788ZM879.3989023,1217.9940691c4.7999761-8.1195282-3.0397384-11.3873085-8.6372452-15.5345915-1.9321938,4.3278675-3.8613059,8.661282-5.795965,12.9706597,5.8021283,3.4730182,8.8024216-.4511534,14.4332102,2.5639318ZM891.0573959,1157.0415217c-2.3987554,10.7796074-.1959929,19.8076057,12.2242844,24.9058854,4.8209313-10.7980973,9.6597362-21.6079049,14.4812839-32.4417493-12.2575662-3.3645441-2.8351169-15.0470746-15.1074749-18.4177821-8.5195262,12.2304477,12.8233569,13.0372233,4.2736305,25.2615077-4.0357272-3.8280241-6.0129131-8.4504973-10.0665139-12.2970113-7.7404854,9.4618944,11.7392328,22.1256219,1.0378993,23.822994,1.1734919-4.941732-5.4588326-6.8677625-6.8431093-10.8338444ZM917.4165869,1141.5790408c9.8890109-14.5416842,3.6234026-22.901581-6.0609868-29.9616384-10.9540287,14.9503109,2.2058442,20.6741653,6.0609868,29.9616384ZM928.6720009,1107.6987779c8.1885571-11.2190505-1.2942925-15.6547758-5.7176911-22.0411847-1.4570035,3.2443598-2.9072275,6.5004299-4.354986,9.7509531,9.9253744,1.5827348,3.6505211,9.3472571,10.0726772,12.2902316ZM489.4920585,261.5698577c-7.6924117,11.8926989.8332778,17.5869696,8.9675979,23.4433349,2.7691696-10.0036482-.2194134-17.8402811-8.9675979-23.4433349ZM527.296493,290.1287295c-4.7790209,8.0954913-.2588585,12.6581805,8.6489554,15.5290445,4.7999761-8.1133649.2619401-12.6520172-8.6489554-15.5290445ZM714.1726053,673.2584113c-6.939873-6.313682-8.784548-14.5774314-18.3758716-19.868006-8.7907113,10.5392388,8.0924097,11.2492507,7.1685314,18.7604614-4.0388089-1.1913654-8.947259-4.64651-11.1709768-1.1013813,3.166086,8.4264604,14.3851365,1.9445204,22.3783171,2.2089258ZM663.8307909,942.6438205c-1.9414387,4.3457411-3.8643876,8.6551187-5.8021283,13.0070231,6.9965754-.4936801,17.3700215,7.866833,20.5872628-2.4979845-10.382691-1.4083135-6.377164-8.3056598-14.7851345-10.5090386ZM489.6029979,1106.1098797c17.1900532,7.349116,32.3727204,9.534005,46.5470721,9.1062721-3.6172393-9.8588108-35.6109169-7.3065892-40.7233722-22.0948054,2.2958283-4.369778,24.219294,8.4320074,15.8957607-.6681015-17.0187135-2.4856579-6.0640685-15.6313552-23.0797003-18.0929763-6.7617537,13.3379922,6.2384898,19.1339572,1.3602398,31.749611ZM365.1062364,400.5867319c-11.137695-11.7484778-13.0335253-12.5971639-29.1881445-13.0489336,7.4754636-9.1543458-.4573167-12.3987057-3.9272532-17.3583112-1.8687118,2.1972156-2.9707094,6.3623721-6.1546689,5.0440427.3882877-2.816627,2.7747166-6.4344826-.3217241-7.9389436-13.4279764,21.2824828,7.7429507,29.3058635,16.1275007,42.2401597,3.8791795-3.9364981,3.7016765-18.4473659,10.4819201-14.7401424-11.8057965,15.2578594-3.8853428,22.9921815,1.3904399,31.7372844-4.5232441-1.8656302-6.4431113-4.7309472-8.266831-7.5894846-3.4939734,7.5956479,1.3115497,12.0313731-5.4711592,20.8855664,22.8504257,8.4018072,15.784205-22.4202275,25.3299203-39.2312379ZM370.5595221,379.6475448c-.3673325,19.8556794-11.7608044,43.9554055-8.4116685,62.4089346,2.5374296-6.1688445,5.5796333-5.7657649,7.9358619-.3667162,1.6462168-27.2232853,14.6230398-42.9926984.4758066-62.0422184ZM331.7165719,510.1781745c-9.2899384-10.2021064-6.891183,10.1293795-14.0775879,5.3688485,1.8175564-6.0671501,10.5238306-14.7826692-.7075466-15.8661769-2.3685552,8.0714545-.3130955,14.4517001-6.891183,24.1477998,13.6110263-.9207967,8.9226059,9.8890109,19.8106873,16.6359727,8.143565-3.4304914,15.7330496-21.8180733,8.3389416-27.4038699,22.4504276,9.9013375,19.1851126,19.0982101,20.5126869,32.5083129-6.145424,2.6779528-16.5311967-5.6757807-20.5817158,2.4856579-.0302002,4.5139991-7.5925662,20.7530555,2.8227903,28.5052512,4.0597641-11.5561829-2.293363-24.8399381,11.595628-25.9474827-2.2483709,12.3025582-7.1685314,14.9145637-9.7897818,30.6420664,11.6135016-.1023107,24.9601224,4.3032143,33.2029165-4.6107629-2.5577685,7.9629804,13.4039395,8.2280022,16.2174848,7.2591319-3.8816448,3.9001347-3.6924316,18.4356556-10.4905488,14.7463057,8.0622095-22.1736956-28.3579483-6.717378-38.58101-9.4557311-4.3938148,13.3373759,8.0745361,20.2353385,4.6163099,33.2177085,7.171613,6.2175346,20.5965077-6.0486602,20.9096033,5.4292488-7.8662167-4.18303-11.1229031,3.7497502-17.3157845,3.9420451,4.0776377,8.3179864,11.191932,15.4507706,7.5260026,26.7178949,5.9408025,3.8218608,8.375305-1.5106242,12.6094905-2.1368153-12.6359926,23.6541197,5.1857986,35.6737825,11.8150414,51.9726229,4.9084502-3.5932025,12.5342982-.0117103,19.1284103.7525386-8.2760759,4.0264823-1.5469877,4.2613039-5.7965813,12.9706597-1.1371284-2.756843-12.0134996-14.4572471-16.2267298-7.2529686,8.0202991,7.6924117,19.4920448,14.0782043,24.8461014,22.7998866-5.0951981-1.6190983-11.4483252-6.5244668-14.4184183-2.5460582,5.278248,7.7343221,16.4523065,10.6409332,2.130652,12.6212007,5.1130716,12.5256696,17.2227187,3.7016765,25.604187,3.6536028.0480737-5.3990487-12.2544845-6.0788604-10.0726772-12.2785214,18.8991356,16.1607825,22.2217693,15.7034658,43.6219711,15.5888285-3.8736325,3.9303348-3.6899662,18.4479822-10.4850018,14.7765059,1.9710226-5.2548275,5.4742409-11.0631191-2.1460602-12.621817-11.4175087,5.1463535-10.4184382,21.8667634-14.4812839,32.4177124,15.9925245,5.0317161,26.2032595-.1984582,35.3280215,8.0172174-.9664051,2.1663991-1.9321938,4.3272512-2.9010642,6.4702298-2.1398969-6.2600613-13.6597164-12.0979368-17.6683251-3.9907352-.5146353,4.1232461,12.5102614,18.2371974-1.089671,11.1833034-.1053924,12.5971639-11.5709748,29.5345218,3.1808779,36.4380314,12.8714306-13.2295182,4.4209333,2.2631629,24.1447181,6.891183,2.4135473-5.3984323,4.8301763-10.8036443,7.240642-16.1965296-11.7879229-9.7262999-15.6818943,1.1679449-25.5918604-3.6591498,8.7512662-8.1380181-1.5919798-22.2938799,10.1417061-22.7092861-6.0252397,9.4674414,2.2871997,13.4581765,11.8692784,16.9731051,7.2431073-8.38455,11.4538722-35.8303303,1.1642469-46.1643313,11.2732875-7.3854795,18.5324194,15.5888285,27.4069515,8.3296966-5.967921-.8967598,2.5762584-20.0368803,7.2437236-16.2144032-7.8483431,11.5438563,13.8070192,5.7780915,15.8809688-.680428-17.7712521-4.9115318-26.8263689-24.8941751-38.58101-9.4557311,5.1161533-8.4622075.8548494-26.9521002,13.0458519-29.2035528-4.3999781,7.0606737-5.0440427,12.6877643-4.0055271,17.6714067,9.0914802,7.3854795,13.5814425,2.6668588,19.1154673.7648652-7.4267735,16.2446033,21.8846369,10.4061116,13.6658797,21.6676889,13.0341417,10.2859273,31.3009229-2.0887415,37.1184595,12.6994746-8.4474156-3.3824177-16.2630932-5.0859531-22.3481169-2.2206361,12.5342982,7.8483431,25.7668981,29.5043217,37.8075161,28.5896883-6.2779349-.0184899,1.5888981-17.6473699,5.8021283-12.9829863-9.934003,10.9244449,8.4085868,13.1876078-3.9938168,17.683117,6.5787038.7950654,14.2137968,4.3519044,19.1160837.7587019-2.4135473-13.0668071-.1171027-1.6190983,6.485638,2.8949009,2.3895105-12.3987057,12.1817576-10.9965555,8.7001108-19.4710896-10.4098096-10.7857707-10.4819201,5.4354121-17.3225641,3.9303348,7.5358639-19.3200888-23.0186837-.4449901-21.2461193-13.3675761,4.6495917-11.2615773,20.5841811,6.9275464,25.2516464-4.2853408-2.7925901-5.2123007-10.5447858-8.5466447-13.313339-13.7472352-2.7266428,4.6107629-4.1953566,12.4954694-9.0464881,11.532146,6.7833253-7.9691437-.8215676-10.4486383,4.0055271-17.6892803-16.2359747-12.6094905-34.0756395-24.62299-49.363699-37.5936497-3.9962821,14.0658777,20.1693912,17.3940583,21.9629108,29.2516265-56.264127-21.4932675-28.075053-76.5598658-17.8039176-116.9220688-6.8042805,8.8652872,1.321411,12.0492467-5.4619143,20.9151502,11.8298333,2.8172433,18.896054,21.234409,27.7496309,16.311167.3340507-10.1478694-.2644055-33.8321892,9.4526494-38.6105938,1.9019936,7.3484997-10.4091932,20.1145379,1.0385156,23.8045041,13.2621837-2.0406678-6.2748532-10.5632757,4.3488227-9.7084263,17.6954436,19.0975938,61.4943013,11.8390783,59.5744341-20.0972806-3.1784125,5.8021283-11.8785234-2.9072275-15.8871321.6921383-4.9411156,5.8625286-5.5223146,23.1068188-13.3799026,21.2584459-10.7401623-7.7219955,4.9176951-10.21998,6.8917993-24.1656734-7.22585-4.8024414-9.6991814,2.7691696-17.6683251-3.9839555-7.9087434,6.1928814,8.2877862,15.8717238-2.5491399,14.4091733-1.6998375-4.7309472-3.4939734-9.419984-5.3867221-14.072041-6.0671501,2.9127744-14.580513-.6200277-20.5632259,2.4794946,1.8508383-4.532489,4.7038287-6.4283193,7.5833213-8.2699126-11.5740565-2.1608521-22.1940345-1.7873563-31.7311211,1.3725664,7.1654497,6.2169182,16.9071578,11.4477089,18.3425898,19.8797162-10.4455567-5.4649959-17.7798808-17.2917476-27.4038699-8.3537335,14.3672629-13.5666506-15.2097857-10.328454-5.7176911-22.0233111,16.8825046,9.0101247,33.3107743,3.3947443,36.4257048-3.1716329,31.572108,12.922586,46.6882116,24.8818485,68.1993527-4.5626892-4.3210879-1.9137039-8.6458738-3.8576079-12.967578-5.7898017-7.4181449-.626191-7.2942626,18.4535292-15.1912958,16.5638622-3.1235592-3.27456-5.8113733-6.7414149-6.8375623-10.8221342,5.6548255,2.9916646,9.0341615.1565478,10.8338444-6.8492726-14.1349066-9.6905527-12.509645,3.9241715-17.3281111,3.9426614-11.5050275-3.6776396-11.3244429-11.8150414-15.1161036-18.4418189,11.6671223,9.5635888,19.0347281,8.4320074,32.1076986,6.5787038-3.1420491-5.9950395-11.4692804-9.9857747-11.8692784-16.991595,6.1571343,1.2160186,6.1571343,8.5287711,9.7324632,4.3457411-3.2985968-7.7102852-4.0930459-16.3715673-4.2797938-25.2849282-8.0591279-2.2871997-15.4741912-2.9010642-20.5749362,2.5096948.8844332,11.5500196,18.1613889.0061633,18.0140861,11.9530993-5.9827129-2.8887376-7.9870173-.5898276-6.136179,5.0261692-1.5679429-1.8422096-8.8806954-13.6510877-12.9706597-5.8021283,1.7904379.7882858,2.5010661,4.2791775-1.4533056,3.2437435-4.2224751-14.5835947-2.8320352-39.3452589-16.1731091-42.2339964,2.0647047-4.074556,6.1817874-2.6606956,7.6079745-8.2699126-6.4788584-20.0972806-24.3006496-19.290505-33.4858119-38.3221515,10.9817636,2.0887415,7.0514287,9.8471005,18.023331,11.9296787,3.3195521-12.9287493-1.9198672-22.5589017-18.6945141-27.8014026,10.0578853-3.6172393,4.2828755-10.6532598,4.0055271-17.6714067-7.0569757-5.9284759-19.7207032,8.3179864-20.9151502-5.4471224,14.1022411,1.6794986,36.401668-4.706294,33.9523735-23.7441038-24.1989552,4.6705469-49.713158,5.9888762-77.9201056.1867479-3.8311058,5.9648394,1.5075426,8.3962602,2.1337336,12.6335273-9.7805369-18.5860401-32.9323478,1.0292707-40.3806929-14.1564781,8.0652912,2.3173999,15.4624809,2.9374276,20.5607606-2.4554577-25.8032615-13.5062502-51.0431976,11.6886938-64.9315723,5.9827129,14.7703426-12.9589494,37.5603679-4.9238584,51.608372-19.7120745,9.5130498,8.9441774,32.613089,4.2193935,18.0264127,11.9111888,9.6874711,4.255757,19.6338007,9.1426356,23.8045041-1.0169441-5.4076773-7.7823958-15.9253445,2.9189377-12.967578-5.8082916,9.4618944-6.8554359,16.9071578,9.4316942,21.2498173,13.3922292,14.1022411-2.9614645,26.0497934-11.6646569,42.5951657-8.1978021,2.4258739-5.4230855,4.8301763-10.8221342,7.2560502-16.2446033-8.0535809-2.3056896-15.152467-2.0825782-22.3629088-2.1972156-4.5294074,4.9115318,3.4816468,17.7194804-7.2468053,16.2267298-4.532489-2.76239.5207986-9.1783827,2.5368133-14.4387572-13.5697322-7.3676059-21.066151,1.1796552-29.9499281,6.0788604,2.6637772-13.6929982-15.9795816-6.6508144-16.5607805-15.1734222,7.2196867,4.8086047,9.7145896-2.7870432,17.6621618,4.0141557,8.8511116-10.5749859-2.1361989-13.5481607-2.4825763-20.608218,4.8301763,3.3522175,10.7105785-.4696433,6.1392607-5.0255528-14.9749641,4.6341834-24.0454891,6.2656083-27.4667355,26.645168-25.3188263-7.5839376-42.6802192,5.6153804-64.9586908,5.9888762,3.334344-4.0449722,6.3531271-3.7078398,4.3519044-9.7269162,20.3616861,6.3685354,32.4984516-8.7870133,54.1303934.8431391,11.4446272-21.6621419,5.5038247-32.1471437,20.2772489-45.412409-11.7971678-7.3669896-17.051379,2.2871997-27.0488639-.4215696-.0024653,16.7506101-13.9906854,31.7798111-6.2082896,40.0373972-21.411912-14.3604833-52.5414953-10.6890069-64.2628545,21.8969635.0807392,6.2532817,16.2026929,6.3494291,8.6095103,15.498228-3.6018311-2.1546888-4.7636127-9.0581984-9.7170549-4.3395778,4.3303329,5.513686,2.6298791,13.3441555-2.2033789,22.3721538,26.3357704,10.1836165,56.1531876-7.812596,75.0104128,6.2779349-36.0139966.8844332-54.7023474,3.8458977-92.3354422-2.3599266-9.0914802,15.1315118,10.7765258,19.1943576,13.9999304,29.618959-9.874219-.1744213-11.0563395-16.7684836-19.453216-8.6908659,5.6492785,5.0132262-4.6434284,16.1003822,2.4918212,20.5663076,4.3186226-3.2985968,32.9446744-2.2569996,40.0318502,6.205208-16.6211808-4.8092211-38.6956473-6.2236979-41.16035,4.9774791-2.53065-4.4055251-6.7740803-8.1614386-14.7549343-10.4850018-9.7386265,7.403353,2.2810364,41.397637-10.5632757,49.7458235,5.1284799-10.0270688-3.7799504-14.6920687,3.6683947-25.5856971ZM347.9858285,482.4192987c-1.889667-11.8390783,8.0202991-28.1625718-7.8637513-34.6445118-1.5469877,13.1512443-8.3660601,28.3123399,7.8637513,34.6445118ZM332.1954602,448.1236295c-2.407384,5.3928854-4.8301763,10.7980973-7.2498869,16.1965296,4.5263257,1.8662465,6.431401,4.7192369,8.2699126,7.6141378,6.145424-10.4128912.5657907-16.365404-1.0200257-23.8106674ZM348.2563972,525.3515968c-5.0132262-2.9312643-16.0128634,18.3031447-3.9814902,17.6590801,3.4908917-1.0890547,17.0846608-15.5407548,3.9814902-17.6590801ZM350.134354,677.9776483c-10.4153565,4.7784046.8154043,17.5444428,4.2705489,25.2368545,8.8233768-10.5509491-2.1429786-13.5247401-2.4825763-20.5607606,26.1157407-6.3555924-6.9250811-34.3973636-.6138644-50.8712416-9.4982579-6.0967339-15.0803564-1.8717935-20.5669239,2.4862742,5.8323285,3.1475961,9.8803823,6.9873304,10.0726772,12.3025582-6.4523562-2.0406678-5.5253963-6.885636-11.5229011-9.0464881.5990725,15.8957607,3.7707054,30.822651,20.8430396,40.4528035ZM317.753005,628.4604831c-2.6002952,9.238783,2.7685533,29.2392999,12.2212027,24.923759-7.0206122-7.1864049-5.1759373-17.737354-12.2212027-24.923759ZM364.5527723,680.5113799c-3.8822611,15.5765019,10.1207509,12.1879209-5.4409591,20.9213135,5.0859531,1.6190983,11.4538722,6.4942666,14.417802,2.5522215-3.7824157-7.5297006-2.0431331-17.1419795-8.9768429-23.473535ZM372.4220706,715.1558917c-8.2785413-7.6320114-8.9706796,4.6767102-12.2809867,10.0997957,8.9799245,3.6474395,4.1195481,8.2939495,12.9706597,5.795965-13.7355249,15.1013117,14.4572471,14.186062,2.8406638,28.4990879,13.8495459,9.588242-.7161752-10.4184382,10.8400077-6.8492726,5.3503586,3.3522175,4.9053685,8.9078139.6767301,15.8895974,10.3765278,1.4021502,6.3654537,8.3358599,14.7795875,10.4726752,10.8911631-10.4363117-13.5093319-7.3786998-8.6341635-15.5105546,5.8230835,3.4730182,8.7937929-.46348,14.4270469,2.5583848-7.3971897,9.9968686,11.3367695,9.9968686,2.4831926,20.5601443-12.5799066,3.8822611-15.7392129-16.5157884-25.9505643-11.5925464,2.8801089,5.1703903,7.4095163,9.7145896,8.6280002,15.5290445-4.0443559-1.203692-8.952806-4.6828735-11.1826871-1.1013813.4147899,5.4588326,5.6572908,22.5946488,16.5607805,15.1912958-3.4009076-4.0807193-2.934346-9.648026-.6865913-15.8895974,7.1414129-2.4560741,17.0760322,2.4314209,23.8168307-1.0415973-5.8440387-1.7331193-6.3981192-7.2283154,1.4446769-3.2381965,2.3771839-8.089328.3130955-14.462794,6.9096729-24.1773836-12.5792903-4.7488208-20.3197757,3.1901228-31.7588559,1.4083135-15.3718804-16.8886679-8.8295401-27.6442385-22.6273143-45.1535505-3.2234046,8.3124394,1.6456004,12.9349126-9.0588147,11.532146-2.5158581-8.8597402,2.1368153-3.9845719,5.8021283-12.98237ZM413.7118499,823.1159095c1.1882838-20.3136124.4930638-14.6680318,5.0828715-28.8423835-6.0283213,5.3022849-15.7453762.9929072-20.2143833,10.4246015,2.9553012,6.9213831.5929092,15.901924,15.1315118,18.4177821ZM480.7888661,829.7365238c10.4184382-5.8323285,26.1336143-5.2363376,36.7992007,4.7666943-4.3186226-1.8717935-5.5167676,4.3519044-9.3928655,3.5876555,5.6431152-10.7857707-24.9447142-7.8908699-30.3018524-1.8600832,17.0304238-1.3238763,17.0033053,22.1373321,33.8864262,11.2492507-1.9445204,13.4458499,19.7052949,36.8953481,29.8956911,28.9206574-1.0206421,15.6245756-14.9959193,36.23341,3.5149286,44.3646484-24.4670586-7.5956479-10.328454,23.9555049-2.2089258,22.3844804-2.756843,4.538036-9.1611255-.5238803-14.4184183-2.5824217-4.0985929,7.8729963.5990725,12.345085-.7673305,19.1579941,8.15281,8.7635928,22.2877166-1.6067717,22.6907963,10.1417061-2.816627-.4209532-6.4067478-2.7802635-7.917372.3309691,19.6183924,11.0569558,11.2067239-7.7762325,21.3243932-21.5955783-.2674871-9.7084263-15.212251,1.1617816-14.7728079-10.4905488,7.8847066,4.1953566,11.1229031-3.7497502,17.3102375-3.9426614.9325069-7.758359-7.8551227-16.0818923.7673305-19.0914305-5.5315595-2.7870432-10.3944013-3.8101505-14.4270469-2.5824217,8.2785413-8.5466447-1.5654776-10.1534164-.6773464-15.8772708,7.6677585,3.3405073,7.0477307,9.8766843,18.0140861,11.9290624,6.7894886-8.8659035-1.3300396-12.0196629,5.4440407-20.90344-6.9423384-3.4489813-24.9299223-.4992271-24.1625917-6.8917993,10.1207509-.7038486,28.3037113-5.3146115,33.5523755,3.3047601.6890567-15.7694131-13.5697322-18.1287234-16.2181012-7.240642,1.3602398-6.8135254-3.3583808-11.2794508.7617836-19.122247-15.787903-13.2110283-24.9360855-14.6674155-34.5693196-27.1209745-2.7297245,4.6169262-4.192275,12.4775959-9.0581984,11.5204358.8936781-11.827368,4.760531-8.143565,4.0141557-17.6652434-6.4640665-2.0043044-5.5284779-6.8554359-11.532146-9.0464881-2.2267994,3.5932025-3.5482104,9.4618944-7.586403,8.2822392,6.027705-9.4859313,3.6560681-15.7398293-7.1746947-18.772788-6.5004299-.5417539-6.6298592,15.5105546-13.7410719,13.3071757,1.1950634-4.0326456,4.6619183-8.9318508,1.0982996-11.1709768-1.8415933,2.2212524-4.4116884,2.5700951-7.926617.349459-3.8070689,8.6310819-10.3370826,18.2908181-2.2206361,22.3598272ZM509.2398802,861.9132513c-2.2181708,6.885636-22.8479603-14.6797421-35.0056811-.0899841,11.6973224,7.3725365-13.2868369-.3013853-8.7001108,19.4649263,10.4030299,3.7257134,16.647683-3.388581,25.2670546-4.2613039-11.2523323,1.1069282-10.801179-14.9453802-2.125105-12.6396906-5.4169222,14.2464623,13.8674195,19.1456675,19.4593793,8.6853189-2.2662445,8.0468013-4.700747,16.1540029,7.1500415,18.7968249,4.764229-12.5799066,7.0150653-24.2082001-6.0455786-29.9560914ZM537.3297251,886.1331617c-9.9555745.626191-9.2116645-15.5284282-16.2390564-7.2585155,4.7457391,6.2773186-7.5592844,19.0433568,1.0471443,23.8162144-4.3155409-1.8779568-5.509988,4.369778-9.3799225,3.5814922,7.526619-15.5050076-11.3213613-15.8840504-16.2181012-7.235095,1.9291121-4.3155409,3.8643876-8.6489554,5.7934997-12.9583331-12.5823719-7.1321679-18.8843437,2.1608521-28.5027858,2.7987534,24.2112818,19.5734004,29.9893732,19.6214741,52.234563,31.1412935-17.3700215-8.9916348-8.5373998,4.8394212-4.3543697,9.7386265-5.9315576-3.8156975-8.375305,1.498914-12.6125721,2.1189417,8.098573-9.3712939.2471482-12.6279803-8.6397105-15.5167179-7.3971897,9.1007252-2.6637772,13.5783608-.7463753,19.1216306,10.8547996,4.9596055,19.1518308,3.2024494,27.0427006.4154063-2.3654736-9.8526475,7.4693003-24.3702948-1.3633214-31.7434477,12.1817576,7.7041219,2.6693242-10.3099641,11.9383073-18.0202494ZM495.4236161,910.2143978c-3.9247879-2.9855013-4.1349563-7.3731529-11.5235174-9.0403248-3.8187792,5.9346392,1.498914,8.3962602,2.130652,12.6396906-2.8314189-.4154063-6.4307847-2.7685533-7.9327803.3432957,7.8760779,4.1768667,12.3777505-.4215696,17.3256457-3.9426614ZM571.4836385,940.3147104c5.9703863-5.5013594,18.8418169,7.0298572,23.8223777-1.040981-13.8581745-3.6659294-9.1999542-14.4153366-23.0698391-18.0806497-4.069009,7.8304695-7.6203011,15.4803545-.7525386,19.1216306ZM574.8001089,906.7654165c14.2557072,8.7155191,14.7999264-13.5358341,8.6908659-19.4464364-9.0489535,3.1956698-6.2958084,11.4353823-8.6908659,19.4464364ZM600.4098428,910.412856c-5.5432698-5.2844113-8.8862424-15.6788126.7679469-19.0914305-15.8957607-8.38455-15.8778871,30.9909091-.7679469,19.0914305ZM544.2813084,826.9741338c7.6979586-11.0205923.680428-16.3894408,8.3574315-27.3921596-3.2443598-1.4385136-6.4942666-2.8949009-9.7238345-4.3395778-8.2699126,8.5349344,1.5710245,10.1417061.7013833,15.8538503-8.7512662.571954-21.2917277-8.7216824-27.0698192-.409243,10.3586542,1.4323504,6.3648374,8.3118231,14.7765059,10.4967121,1.8477566-2.1787257,2.925101-6.3617557,6.1448077-5.0378794-1.6610087,16.7567734,22.3844804,23.7083567,30.2297418,36.8417274,1.6043064-5.0742429,6.4794747-11.4359986,2.5429766-14.4091733-9.7115079,5.4230855,3.3195521-2.2693262,4.3457411-9.7386265-9.2782281-1.8175564-11.0803763-6.5183035-5.3805588-14.072041-9.9222927.5959909-12.5071797-14.2828257-16.2242645-7.2585155.6835097.8603963.4363615,17.5506061-8.7001108,19.4649263ZM596.3260419,780.1712849c12.0412344-6.5602139,4.300749-1.0890547,8.2970312,7.5956479,1.4027665-10.3642012,8.3272313-6.3494291,10.4880834-14.758016-11.3392348-3.8218608-21.9265474-5.8082916-30.2839788-1.8779568,6.4492746,2.0345045,5.5075227,6.8677625,11.4988642,9.0403248ZM557.8898694,700.7288448c-17.569096,30.9428353-2.5608501,49.4025278,21.875392,64.2566912,3.6388109-6.1750078-8.6064287-19.5968209,5.459449-20.8972767-7.9598988,12.0134996,2.7685533,16.8646311,13.6566347,21.6676889,9.7145896-.2828954-1.1586999-15.221496,10.4997937-14.7820528-2.7593083,5.5494331-3.7799504,10.4246015-2.5577685,14.4455368,17.3009925,3.7374236,14.0325959-4.5084522,23.1240761-16.9071578-20.322241-3.6474395-41.0155125-5.7842547-56.2456371-13.4822134,4.769776-8.607045,18.8208617,7.0119836,22.0079029-5.7238544-17.8852732-2.239126-18.9509073-19.5074531-37.8198427-28.5773617ZM640.4534033,733.7178949c-12.3863791-11.7127307-27.89755,4.2372671-17.0033053,11.8933153,4.0357272-8.2582024,15.4291991,2.7685533,17.0033053-11.8933153ZM591.4477919,704.0329886c-15.3447619,33.362546,27.2929305,16.9669418,20.4732418,32.5200232,5.6517439-5.8144549,15.9894428-14.5959213,13.3983925-21.2590622-12.2489375-6.2354081-23.8408676-10.8036443-33.8716343-11.2609609ZM554.3120752,691.3575509c-6.1337137-4.1651565-16.4319676-20.3382656-24.508969-14.8547797,3.1956698,14.0239672-8.784548,33.8562261-5.8711572,47.9825041,7.5654477,1.0588545,19.5160817,13.5302871,24.1625917,6.8973463-3.1932045-11.3453981,5.6603725-27.2775223,6.2175346-40.0250706ZM572.3199979,703.2927766c15.3515415-5.7300177,37.5129105-2.2810364,47.6274981-2.070868,6.5787038-9.6960997,4.528791-16.0942189,6.9096729-24.1471835-18.0658578-.3192588-39.266985-9.7990268-62.3978407-8.444334-10.8849998,16.7142466-.2613238,25.1943277,7.8606697,34.6623854ZM576.9486344,553.5918261c4.8690051-8.3481865,16.2298114.2588585,22.0109845-5.741728-8.8745321-4.6705469,2.8529904-17.2258003-10.4128912-20.2113016-2.1454439,13.1629546-15.8082419-3.792277-18.772788,7.1740783,7.1537395,4.4363416,2.7691696,13.2837552,7.1746947,18.7789513ZM585.7091455,499.1452556c-11.6282935-2.6662425-12.2963949,12.4831429-22.3598272-2.2329627-5.5167676,11.9654259,6.9632936,17.0815792,7.5235373,26.7240582,4.6070649-6.7235413,17.5777246,8.4141338,20.5724709-2.4979845-2.1762604-7.240642-4.6224732-14.3728099-5.736181-21.993111ZM568.0377388,495.107063c7.8335512-2.9312643,11.0865396-17.9000651,16.2778852-27.7231287-13.6178059-9.8588108-16.3407508,8.7635928-24.908967,12.2002475-8.3327783-2.1787257,8.4085868-13.9820568-5.3805588-14.0899145-5.8773205,13.9031666-1.484122,23.8766147,14.0116406,29.6127957ZM587.2228514,460.8896677c-19.8982061-8.1854755,1.267174-8.6372452,5.795965-12.9885333-7.971609-6.7654517-10.4393934.8246492-17.6621618-4.014772-2.4252576,5.4169222-4.8418866,10.8276811-7.2529686,16.2569299,7.8458778,4.0628457,14.2261234,4.3155409,19.1191653.7463753ZM458.7082363,321.7519929c-2.1904359,10.9786819-.5171007,7.2468053-7.2437236,16.2088562,5.7934997,3.4489813,8.7907113-.4758066,14.4214999,2.5577685,4.5891914-8.9497244-5.5284779-12.2421579-7.1777763-18.7666247ZM476.7167754,333.6631818c-5.455751-5.0619163,8.0289277-9.3349305,2.5577685-14.4270469-3.8637712,6.2896451-14.7099423-5.627707-17.3250294,3.9543717,4.8992052,2.0942885,7.8847066,17.9721756,14.7672609,10.4726752ZM328.2380068,430.7714816c-12.9287493.6015378-1.9167855,20.2593754-13.3651107,21.2646092,2.1429786.9750337,4.3247859,1.943904,6.4887197,2.9072275-.7106282,2.0640883-1.2462188,4.074556,1.7842746,4.700747,5.3176931-10.9910085,12.0769815-22.5471914,5.0921164-28.8725837,7.9025801-5.055753,6.0967339,7.6437216,11.2067239,1.1377447-6.3703843-3.846514,5.4686939-14.6563216.749457-19.122247-14.7882161-3.3164704-12.5102614-13.1752812-23.0458022-18.1046865-.7192568,8.3481865-5.9888762,18.4418189,1.0292707,23.828541,2.7235612-4.6039833,4.1768667-12.4948531,9.0458718-11.532146-3.0120035,9.2091992-2.6631609,17.1419795,1.0144788,23.7927939ZM359.3947086,378.5215103c3.9962821-7.7762325,7.463137-15.4020806,5.4471224-20.90344-18.195287,6.6933411-5.9950395-10.7013335-23.0642921-18.0861967-3.3737891,7.5833213-6.7685334,15.1493854-10.1447878,22.7209964,5.0736265,3.6893499,15.6818943,18.7666247,21.2522826,13.3737393-.1294292-16.9490683-.0813555-4.4720887,6.5096749,2.8949009ZM359.4397006,343.5460294c1.6221799-5.10999,6.5244668-11.4594191,2.5762584-14.4147203-7.1327843,14.9928376-4.9176951-4.9657688-8.2853209-7.6018112-2.2841181,5.7596016-5.2455825,9.7565-9.0581984,11.532146,2.5670134,4.4116884,6.7894886,8.1374018,14.7672609,10.4843855ZM360.6131925,297.3693715c-2.4135473,5.4175385-4.8270946,10.8042606-7.2252337,16.2088562,7.749114,9.419984,19.4285629-16.7142466,7.2252337-16.2088562ZM313.0676662,447.347054c2.8918192-6.4757767,5.7928834-12.9762067,8.6970292-19.4704733-4.5349543-1.8360463-6.4400296-4.6890368-8.2877862-7.5722274-8.8295401,12.3265951-3.9093796,19.4113056-.409243,27.0427006ZM364.9170232,322.6308792c4.4985909,1.8656302,6.4246214,4.700747,8.2606677,7.5894846,2.4104657-5.4169222,4.8209313-10.797481,7.2468053-16.2205665-4.0357272-3.8156975-6.0252397-8.4381707-10.0634322-12.2723581-6.7864069,8.8714505,1.3300396,12.0196629-5.4440407,20.90344ZM389.1215253,294.5287077c-4.3186226-1.9260305-8.6397105-3.8637712-12.9552514-5.7898017-1.4570035,3.2437435-2.8985988,6.4881033-4.364231,9.7441734,8.0745361,4.700747,14.475737,5.0378794,17.3194824-3.9543717ZM311.5539603,485.5970949c1.9617776-8.8295401,8.8474136-19.5191633-1.035434-23.8106674-2.4197106,5.3990487-4.8301763,10.8276811-7.2498869,16.2267298,4.5355707,1.8415933,6.4400296,4.700747,8.2853209,7.5839376ZM368.4892704,332.0138833c-2.8955172,6.5189198-5.790418,12.976823-8.6914822,19.4710896,18.1737155,11.0088821,13.8193458-15.2997698,8.6914822-19.4710896ZM303.2057738,513.0126751c7.0477307-11.6886938,7.6708401-20.8849501.3969164-27.0784478-1.1889001,9.4372412-4.9836424,19.8501324-.3969164,27.0784478ZM381.4808853,337.822175c1.0169441-7.5777743,15.3028515-20.2051384,2.1965992-22.3777007-3.788579,8.6249186-10.3463276,18.3031447-2.1965992,22.3777007ZM396.6573892,321.2521495c1.9315775-4.3149246,3.8551426-8.6304656,5.795965-12.9700434-7.0027387-4.2015199-12.5435432-4.6711632-15.8686422.685975,4.0326456,3.8341874,6.0215417,8.4566606,10.0726772,12.2840683ZM395.6250369,297.4297718c4.3876515,2.1429786,7.7971877,1.6554617,11.1826871,1.1075446,4.7975108-8.0954913.2681034-12.6514009-8.6310819-15.5345915-2.7802635,5.5611434-3.7737871,10.4307648-2.5516052,14.4270469ZM409.2157243,354.1093051c6.1842528-9.4859313-1.3842766-15.8538503,8.7001108-19.4649263-8.7155191-8.6970292-7.1654497,9.3891675-15.8778871.680428-7.7521957,5.3984323,2.9072275,15.9376711-5.7928834,12.9946965-4.9750138-2.5824217,1.1525366-9.4378575-6.8375623-10.8400077-4.8634581,9.1241457-8.8209115,6.1448077-16.6298094,19.8020587,15.6245756-7.2529686,17.4482954-6.9158362,36.4380314-3.1722492ZM406.6696661,368.5301887c4.0381926,1.1919817,8.9497244,4.6890368,11.1617319,1.0958343-13.2141099-6.777162-17.6529168-1.5586979-25.9413194-11.5802198-3.9093796,6.1873344-11.6073383,2.4197106-15.5253465,8.6310819,8.6458738,3.0335751,27.9425421,20.0726275,30.304934,1.8533036ZM417.2323254,318.7788182c2.9614645-3.9186246,7.3854795-4.1528299,9.0316962-11.5259827-6.8554359-5.3571382-12.8837572-11.7429308-19.122247-.7765755,4.0449722,3.8280241,6.0283213,8.4566606,10.0905507,12.3025582ZM310.6596659,574.6937243c-11.4625008-3.6770233.2588585-16.2322768-10.4153565-20.2051384-5.2665378,8.4683708,1.6912088,25.9653562,10.4153565,20.2051384ZM328.3945546,543.7151418c-2.8560721,8.9435611-13.7318269-3.0699385-15.5167179,8.6187553,16.8017654,11.1352297-6.6871778,21.8125264,7.8458778,34.6568384-3.5543737-16.4917516,16.4011511-27.1930851,7.6708401-43.2755937ZM416.8144538,345.8153555c5.8323285,3.166086,9.8859293,6.9941101,10.0751425,12.2963949-5.5223146-2.6785691-9.4193676-1.2154023-12.6544825,2.1491419,5.8261652,2.5577685,14.9928376,17.1654,22.7302414,10.1595797,2.461621-19.3385787-3.3010622-24.6470269,12.6785194-37.1665332-13.6566347-1.943904-5.6246253-12.1700473-16.5484539-15.1857488-2.8289536,4.2797938-7.7854775,3.0878121-10.8400077,6.8498889,14.2316704,12.404869-1.2277289,3.8760978-5.4409591,20.8972767ZM432.4088293,302.2087927c-6.2680736,11.9592626,14.7345954,21.3428831,19.4710896,8.7031925-8.1102832-12.464653-13.722582,2.0647047-19.4710896-8.7031925ZM450.1554283,271.2178837c6.9669915,4.2070669,12.5404615,4.6582203,15.8748055-.685975-5.5790169-4.1589932-1.721409-11.9056419-13.3256656-13.7355249-3.4668549,5.8144549.454235,8.7635928-2.5491399,14.4214999ZM318.1832032,601.4177824c5.4230855,7.7823958.3882877,19.5734004,7.521072,26.7234418,9.2745301-11.7725146,3.379336-31.5930632-7.521072-26.7234418ZM332.6164134,603.9693876c6.8135254-13.0304437,1.9562306-14.7697262-8.6310819-15.5284282-4.8357233,8.1072016,3.0249464,11.3996351,8.6310819,15.5284282ZM485.8353741,287.1617181c4.592273-8.9380141-5.5494331-12.236611-7.1925682-18.7789513-1.0563892,1.8902834-2.1879706,3.6055291-4.6828735,1.7996829-.9565438,2.1546888-1.9284958,4.3217042-2.8949009,6.4887197,8.3993419,2.1663991,4.3876515,9.0643617,14.7703426,10.4905488ZM338.1960467,695.9676975c7.008902-10.8880814-.8363595-29.9616384-12.227366-24.9058854,5.3146115,7.8243062,4.7944292,17.8877385,12.227366,24.9058854ZM500.1810655,324.7011308c-1.1371284,4.0264823,3.5722473,5.8206182,8.2853209,7.5839376,6.7950355-12.3444687-22.0923401-16.1669458-24.1508814-6.885636,8.5410977,8.2699126,10.160196-1.5710245,15.8655605-.6983016ZM487.4877542,361.8257536c-15.1105566-17.3287274,9.1728357,7.2763891,12.28715-10.0819221-10.9632737-2.0764149-10.3370826-8.5768449-18.0140861-11.9290624-.2348216,11.9771361-5.0200059,8.8837771-10.1478694,22.7209964,6.2323265,2.244673,11.7996332,2.702606,15.8748055-.7100119ZM514.6173573,327.247189c8.1589733,8.7814663,9.642479,3.27456,22.6944942,10.1540327,7.2221521-12.4233589-19.6066822-15.2221123-22.6944942-10.1540327ZM517.0247413,382.8191777c-2.1546888-6.1750078-6.8973463-10.7253704,2.5583848-14.4270469-7.2018132-4.8332579-9.6905527,2.7685533-17.67757-3.9968985.2077031,13.548777-12.2150394,15.2461491-8.3512682,27.4038699,6.6027407-6.205208,18.649522,1.8779568,23.4704534-8.9799245ZM524.6025157,374.5313915c-5.9975048,9.4853149,2.3143182,13.4760501,11.881605,16.9848154,6.027705-9.4736047-2.2964447-13.4698868-11.881605-16.9848154ZM537.6606942,345.3278387c-7.3189158,13.4643398,7.9179884,14.0658777,16.5817357,15.1974591,5.9013574-8.7574295-7.2196867-23.8525778-15.1315118-18.4294923,12.7876098,2.8949009,9.2363177,10.8338444-1.4502239,3.2320332ZM564.7366766,345.7549552c-5.5408045-3.5266389-13.0008598-19.8020587-21.2830991-13.3916129,5.5463515,3.5328022,12.9706597,19.8020587,21.2830991,13.3916129ZM573.6956459,369.21678c5.9463495-9.810737-5.5346412-24.6772271-13.3077921-13.7349086,11.0625028,2.0400515,2.2452893,11.6880775,13.3077921,13.7349086ZM546.2227471,395.8557847c-2.411082,5.4052119-4.8301763,10.8221342-7.2468053,16.2390564,7.8483431,4.0868826,14.2285887,4.3217042,19.1339572.7463753-14.6834401-1.5586979-3.6418925-12.9527861-11.887152-16.9854317ZM555.2655373,384.3482918c3.2443598,1.4323504,6.494883,2.8825743,9.7386265,4.3451248,10.1780696-9.2991833-10.1595797-6.8794727-5.3928854-14.0899145,5.2307906,1.9741042,11.0507925,5.4711592,12.6427723-2.1429786-8.7216824-4.242814-8.9503407,2.4918212-12.976823-5.795965-6.7888722,7.975307.8067756,10.4609649-4.0116904,17.6837333ZM594.9540918,382.6145562c-5.519233-5.9525128-12.1552554-11.4902356-15.1105566-18.4418189-1.9346591,4.3574514-3.8551426,8.6674453-5.795965,12.9829863,6.5275484.685975,17.2923639,12.4584897,20.9065216,5.4588326ZM544.293635,461.1546895c12.5040981,4.5682361,22.0621399,1.4440606,26.3653542-15.4624809-12.9016308-6.6027407-28.4417692,4.9053685-26.3653542,15.4624809ZM579.3560184,426.2272823c-13.4427683-7.9272333-11.369435,6.9275464-20.9182319-5.4409591-2.4043024,5.3867221-4.824013,10.8036443-7.2437236,16.2082399,9.8347739-2.4135473,19.2393496-6.0067498,28.1619555-10.7672808ZM585.1550651,413.2683329c-8.8141318-1.9679409-19.5037551-8.8714505-23.8162144,1.0292707,7.3337078-1.9198672,20.1182359,10.4128912,23.8162144-1.0292707ZM590.9485648,400.2797996c-10.3944013-6.1330974-16.3499957-.5596274-23.8137491,1.0231074,8.8178298,1.9802675,19.5345716,8.8541933,23.8137491-1.0231074ZM409.7032411,840.7928632c3.4785651-5.8138386-.46348-8.7931766,2.5608501-14.4449205-5.0951981-1.6067717-11.4600355-6.5183035-14.4332102-2.5522215,5.8921125,4.9238584,7.4421818,11.5081092,11.8723601,16.997142ZM601.7250905,428.4362082c-7.8545064-4.0807193-14.2162621-4.3217042-19.1277939-.7525386,2.5398949,7.3127525,16.3925225,13.0008598,19.1277939.7525386ZM608.9688141,412.2150253c9.4045757-7.758359-16.7204099-19.4347262-16.2144032-7.2344787,5.3984323,2.4258739,10.8036443,4.8209313,16.2144032,7.2344787ZM432.4753929,815.9295046c9.9463296-10.9065713-8.3993419-13.1574076,3.9962821-17.6652434-8.1041199-4.7913475-12.6421559-.2711851-15.5136363,8.6304656,3.9124613,2.9855013,4.1201644,7.3971897,11.5173541,9.0347779ZM422.6165822,881.5827991c-13.5302871-7.240642-26.0830752-11.941389-31.749611,1.3602398,13.2899185,6.6391041,20.3949679-2.9368113,31.749611-1.3602398ZM425.9176443,848.0396685c-2.1152437-12.8141119.5990725-10.8036443,8.3574315-27.3977066-4.3426595-1.943904-8.661282-3.8699345-12.9829863-5.795965-2.5275683,18.6100769-.8727229,19.4106893,4.6255548,33.1936716ZM582.1276533,489.7320513c8.2884025-1.7392826,19.4408895,3.9722453,23.4649064-8.9743776-8.8868587-6.7833253-12.049863,1.3423662-20.9305585-5.4471224-2.7506797,5.5438861-3.7737871,10.4246015-2.534348,14.4214999ZM603.4378709,468.136473c-1.8902834-1.0835077-3.6264843-2.2089258-1.7670174-4.700747,4.4123047,2.2631629,12.7000909,4.8209313,7.92107-.349459-11.6739019.5781173-10.4153565-9.0520351-19.1216306-.7519223,3.5932025,2.2089258,9.4495678,3.556839,8.2877862,7.5956479-4.4388069-2.293363-12.7272094-4.8270946-7.9389436.3488426,5.5069064,2.648369,9.4255309,1.2160186,12.6187354-2.1423622ZM641.3384529,461.7321905c-2.2058442-6.4763931-11.9567972-19.344742-19.4618447-8.6908659,4.8992052,5.3984323,11.5019459,19.4766366,19.4618447,8.6908659ZM594.8184993,452.6018815c9.5161314,6.1571343,14.0634123-.7285018,24.1625917,6.9035096,8.1078179-14.4393735-15.2874432-16.5700255-16.5638622-15.1672589,9.5007232,8.3962602-9.4853149-3.0335751-7.5987295,8.2637494ZM629.141287,436.7843947c-10.7826891-4.6409631-22.3635252-11.5685095-27.0729008-.409243,12.6304457-3.0157015,18.5829584,17.2979109,27.0729008.409243ZM431.2384191,897.0871904c-2.1639338-6.2951921-16.8800393-14.2822094-20.9065216-5.4526693,6.5152218.6921383,17.2954456,12.459106,20.9065216,5.4526693ZM441.0460745,866.4574506c2.2329627-8.0289277,4.6828735-16.124419-7.1894866-18.7789513-6.0671501,9.4920946,4.0776377,12.7783648,7.1894866,18.7789513ZM437.0436291,884.122694c3.2862703-8.4264604.8905965-14.6920687-7.1802416-18.772788-1.4477586,3.2505231-2.9041458,6.5004299-4.3636147,9.7386265,5.7626832,2.2871997,9.7712919,5.218464,11.5438563,9.0341615ZM641.7476958,434.6537427c3.8908897-8.607045,7.0569757-19.0741733,13.4039395-21.2590622-15.0501563-7.9142904-25.4599658,13.2054813-13.4039395,21.2590622ZM611.9993075,518.6465454c-8.0591279-4.6945837-14.4843656-5.0495897-17.3071558,3.9303348,8.0652912,4.7186206,14.466492,5.0619163,17.3071558-3.9303348ZM614.8972901,512.1880259c11.014429-17.1592367-20.5965077-15.1013117-11.1765238-1.1371284,2.2329627-3.5210919,6.71368-1.2338922,11.1765238,1.1371284ZM622.1564219,495.9310959c1.9229488-4.3032143,3.8606896-8.6304656,5.7867201-12.9583331-6.2384898-2.2452893-11.7817596-2.7081529-15.8655605.6742648,6.4252377,2.9429746.1627111,10.7013335,10.0788405,12.2840683ZM629.4001455,479.728403c4.8030578-8.1072016-3.04282-11.3996351-8.6341635-15.5345915-1.4385136,3.2443598-2.8924355,6.4763931-4.3457411,9.7386265,4.3278675,1.9321938,8.6403268,3.852061,12.9799046,5.795965ZM465.1938743,873.3609601c-5.3355667-2.4252576,2.1935176-9.8045737-2.1368153-12.6335273-5.8532837,10.3463276-11.0175107-16.642136-15.8865158.7106282,9.4014941,1.1913654,9.2418647,19.3441257,18.023331,11.9228991ZM475.2153961,920.627289c-14.6680318-4.9657688-19.2455129-23.6966464-36.0472784-23.8710677,8.0776178,12.6760541,29.7274331,30.1724231,36.0472784,23.8710677ZM627.1215744,537.0760377c6.6964228,7.1204577,21.5505862,1.4446769,14.0782043-5.3805588-1.0773444,1.889667-2.1996809,3.6289496-4.6915021,1.8052299,2.0314229-4.0807193,6.1694608-2.6477526,7.5777743-8.2754596-12.3537136-3.792277-19.4051423,1.2881292-27.379833-8.3660601-12.621817,20.036264,31.3520783,1.9796512,10.4153565,20.2168486ZM609.4532493,533.0797556c-5.9432678,9.5635888,1.7935196,23.2208398,10.0788405,12.2963949-3.8009056-2.1368153-7.2585155-4.4116884-3.5932025-9.3953308,4.1195481,1.3966032,8.1250752,2.461621,9.4014941-3.5932025-7.812596-6.313682-9.4255309,3.5272552-15.8871321.6921383ZM638.7233657,511.1230081c3.6893499-6.777162-10.8615793-6.608904-14.7734242-10.4850018-1.4477586,3.2381965-2.9041458,6.4942666-4.3519044,9.7386265,6.7740803,1.2942925,17.569096,13.145081,19.1253286.7463753ZM650.3122141,485.1699784c5.7509729-9.4920946-9.7201366-20.1817178-14.7672609-10.4850018,2.5491399,4.3938148,6.7925702,8.1676019,14.7672609,10.4850018ZM487.966026,848.5093118c-5.7540546-2.2569996-9.7595817-5.2301743-11.5290644-9.0341615-1.9167855,4.3093776-3.8643876,8.666829-5.7873364,12.9644964,6.8135254,1.4083135,14.475737,5.0797898,17.3164008-3.9303348ZM474.8542268,912.706219c5.1728556-10.9423185-4.1411196-16.3413671-8.9651326-23.4612084-10.1028773,12.8141119,4.7574494,16.1003822,8.9651326,23.4612084ZM610.422736,591.8776142c2.984885-10.9299919,10.960192-8.8412503,13.3799026-21.2522826-11.6104199-9.7262999-23.1068188,16.7444468-13.3799026,21.2522826ZM659.2773467,508.6490604c3.2955152-8.4264604.9060047-14.6920687-7.1685314-18.772788-1.9377407,4.3395778-3.8637712,8.661282-5.8021283,12.976823,4.3093776,1.9321938,8.6403268,3.8582243,12.9706597,5.795965ZM627.0525455,572.0817188c-1.9291121,4.3278675-3.8699345,8.661282-5.7928834,12.976823,10.851718,4.9232421,21.6196151,9.6541893,25.263973-4.2736305-17.8519913-5.0076793-4.4844153,7.0964208-19.4710896-8.7031925ZM649.4185359,574.2906446c9.4045757-7.7460324-16.7382835-19.4285629-16.2150195-7.2585155,5.3990487,2.4135473,10.801179,4.8332579,16.2150195,7.2585155ZM485.627671,940.8866644c1.9321938-4.3334145,3.8674692-8.6729923,5.8082916-13.0070231-5.10999-1.612935-11.4569538-6.5059769-14.4393735-2.5460582,2.8862722,5.1703903,2.4529924,11.604873,8.6310819,15.5530814ZM672.9493897,530.3112023c-7.1956499-4.4116884-.9959889-13.95802-11.8754417-16.9792684-1.9198672,4.3272512-3.8582243,8.6551187-5.795965,12.9885333,9.7293815-1.4687138,13.4883767,7.3189158,17.6714067,3.9907352ZM664.2517442,549.7699653c8.7155191-8.1072016-.9750337-22.5102116-8.6187553-15.5345915,5.6609888,4.1226297-3.0754855,13.7410719,8.6187553,15.5345915ZM649.6804761,617.2229427c-10.9873105-2.1725624-7.2375603-.5053904-16.2088562-7.2461889-2.416629,5.4107589-4.824013,10.8215178-7.2437236,16.2205665,12.0886918,8.1497283,19.8951245,5.1703903,23.4525798-8.9743776ZM651.139945,613.9791992c4.7968945-8.1195282.2681034-12.6520172-8.6310819-15.5345915-1.4446769,3.2437435-2.8949009,6.4757767-4.3512881,9.7441734,4.3395778,1.9321938,8.6489554,3.8582243,12.98237,5.790418ZM669.9762149,571.81115c2.3112366-8.0591279,2.925101-15.4803545-2.4801109-20.5847975-9.7115079,3.6776396-7.339871,16.4677147,2.4801109,20.5847975ZM643.8031556,665.1931202c-4.3186226-1.943904-8.6224533-3.8576079-12.9527861-5.795965-1.9291121,4.3093776-3.8699345,8.6372452-5.8021283,12.976823,9.4766863,6.0246234,15.7361313,3.6412762,18.7549144-7.180858ZM649.9572082,660.1675673c3.4760998-5.8440387-.4456064-8.8116665,2.5491399-14.4572471-9.4588127-6.0307867-15.7182577-3.6234026-18.7697064,7.1987315,5.4286325,2.4252576,10.8098076,4.8332579,16.2205665,7.2585155ZM688.4026256,556.6796382c4.4659254-7.1444945,13.3016288-2.7808799,18.7851146-7.1685314-5.5765516-4.1713198-5.0138426-10.6353862-13.317037-13.7472352-3.9032163,5.5919599-13.7047084,11.9056419-5.4680776,20.9157666ZM670.6017896,622.6762284c1.4477586-3.2560701,2.8979825-6.5004299,4.3457411-9.7447898-8.7186007-4.2668509-8.947259,2.4918212-12.9614147-5.795965-4.7999761,8.1133649-.2773484,12.6637275,8.6156736,15.5407548ZM677.8393499,606.4556619c-5.6634541-4.1109195,3.0576119-13.7355249-8.6039634-15.5407548-8.7420212,8.1250752.9781153,22.5225382,8.6039634,15.5407548ZM645.1991424,696.9427311c-6.4579032-2.0160146-5.509988-6.8554359-11.537693-9.0464881-2.3056896,7.9870173-6.0609868,12.2125741-10.4788385,14.7586323,9.7232182,4.3272512,16.2415217.2705688,22.0165315-5.7121442ZM501.9930749,1061.0228929c-6.7981172-1.2764189-17.5838879-13.1333707-19.1370389-.740212-1.203692,7.8119796,19.5610738,20.9570607,27.7496309,16.2865138-8.4529626-15.6128653.340214-37.7859446-30.5872131-44.7917649-7.6048928,20.4757071,15.9407528,13.1629546,21.9746211,29.2454632ZM661.9016788,642.1411547c2.5429766,4.4116884,6.8011988,8.1614386,14.7789712,10.4911651,4.8153844-7.2412583-2.7741002-9.7084263,4.0055271-17.6714067-17.1715633-3.5876555-11.7484778,2.9066111-18.0350413-11.9475523-6.8554359,8.9078139,6.1330974,10.21998-.749457,19.1277939ZM573.8337038,847.9613946c7.9783887,6.777162,10.4369281-.8123226,17.6627781,4.0024454-3.1001387-13.7164187,8.0652912-16.1903663.4123246-27.0544109-4.0992092,5.6517439-13.7231983-3.0576119-15.5259629,8.6187553,4.5472809,2.7445164-.5207986,9.1666724-2.5491399,14.4332102ZM532.352246,1027.9192054c-3.5334185-2.2452893-1.2308105-6.722925,1.1100099-11.201177-2.1663991-.9750337-4.3241696-1.9321938-6.4881033-2.8949009-11.0896213-2.3235632-1.312166,23.2202235,5.3780934,14.0960778ZM504.2593194,1003.6690949c4.8961236,3.7799504,7.7429507,21.7940365,16.5724908,15.2036224-4.8690051-3.7861137-7.7614406-21.8063631-16.5724908-15.2036224ZM540.3509736,992.5585184c5.8082916,3.4668549,8.7907113-.4456064,14.4424551,2.5639318,3.4397364-18.1108498-14.5718844-23.3231506-29.8987727-28.9268207-5.0255528,9.9913217,3.334344,14.86649,10.4184382,20.2353385,2.2120075-3.5932025,3.5636186-9.4736047,7.5962642-8.2816229-2.7660879,5.5309432-3.7768687,10.4067279-2.5583848,14.4091733ZM589.2961847,874.3304468c.7975307-6.5848671,4.3519044-14.2285887.7556203-19.1160837-3.8551426,6.2717716-14.7253505-5.6517439-17.3225641,3.9303348,15.1376751,1.3959869,7.126621,11.6282935,16.5669438,15.1857488ZM531.6601077,1011.9994078c6.6686879-7.0483471-11.2282955-24.0756892-14.7555507-10.4788385,10.3586542,1.4385136,6.3531271,8.3358599,14.7555507,10.4788385ZM630.2155498,791.4088253c-8.3931786-2.1429786-4.3968965-9.0464881-14.7555507-10.4548016-1.9284958,4.2970511-3.8668529,8.6366289-5.8021283,12.9644964,9.5130498,6.0788604,15.0624829,1.889667,20.557679-2.5096948ZM674.8181015,682.9310905c-8.8720668,2.5158581-4.0086087-2.1491419-12.967578-5.8144549-9.2961017,9.1968726-2.9158561,25.8747558,7.1685314,18.7851146-11.9111888-10.0640486,15.5284282-8.607045,5.7990467-12.9706597ZM676.2689417,679.6867307c4.5861097-9.8169003,4.41477-17.8341178-1.0415973-23.8168307-4.5743994,9.8292269-4.4357252,17.8402811,1.0415973,23.8168307ZM604.1207643,849.8036043c-2.8258719-.3734958-6.4159927-2.7451327-7.9235353.3728795,19.2029862,8.6729923,13.2473917-10.6951702,29.624506-14.0060937-3.0785671-8.6427922-9.4347759-1.0588545-19.4772529-8.6970292-2.1516072,8.3962602-9.0729903,4.3938148-10.4967121,14.752469,3.5932025,2.2206361,9.464976,3.556839,8.2729943,7.5777743ZM663.1596078,743.8719277c8.1072016-17.1838899-2.4258739-11.6227465-10.4393934-20.2113016-7.6264644,10.9780656,7.7762325,13.1567913,10.4393934,20.2113016ZM596.3956871,928.1082996c1.6819639-4.242814-2.1368153-6.3617557,1.1075446-11.2005606-10.1780696-3.1901228-20.5786342-6.939873-27.0519456-.3913694,9.7115079,6.5725405,16.0942189,4.5201624,24.1539631,6.885636-1.6794986,3.3762544-2.1639338,8.9195242,1.7904379,4.706294ZM604.0905641,884.8271589c4.7728576-8.1195282.2379033-12.6760541-8.6637474-15.5345915-1.4477586,3.2320332-2.8985988,6.48194-4.3519044,9.7139733,8.9984144,3.6714763,4.1201644,8.3364763,13.0156518,5.8206182ZM637.7360054,818.1439774c1.8841201-4.5257094,4.709992-6.4400296,7.5956479-8.2816229-6.5244668-.685975-17.2979109-12.4467794-20.9182319-5.4649959,5.564225,4.1589932,5.0403447,10.629223,13.322584,13.7466189ZM669.2329212,773.8274027c1.9346591-4.3155409,3.8668529-8.6427922,5.7928834-12.9644964-9.8951742-.1929112-11.0717477-16.7808102-19.4618447-8.7031925.2619401,8.8535769,3.0785671,16.7506101,13.6689613,21.6676889ZM673.6624832,729.1132953c4.7611474-9.0039614,8.2970312-17.5567694-2.5127764-20.5724709-9.1093538,3.442818-12.2723581,18.3395082,2.5127764,20.5724709ZM546.4298339,1022.5078302c8.8628219-3.4545283.680428-6.722925,7.2412583-16.2144032-4.5146155-1.8539199-6.4283193-4.6945837-8.2853209-7.5777743-2.9700931,3.9124613-7.3762345,4.1349563-9.0132063,11.5019459,9.8890109,1.6067717,3.6172393,9.3836205,10.0572689,12.2902316ZM544.2270714,1044.874437c1.9260305-4.3278675,3.8551426-8.6372452,5.790418-12.9589494-3.8163138-4.5201624-12.5435432-8.5830082-16.2181012-7.2344787,4.2797938,6.4159927-5.4409591,18.2069973,10.4276831,20.1934281ZM563.1502438,967.7185803c11.1561849-2.7266428,13.4039395,10.0332321,20.897893,5.4471224-3.5241735-2.2452893-1.2462188-6.6871778,1.1130915-11.1648135.0209552-5.4052119-12.2785214-6.0794767-10.0726772-12.2846847,5.4896491,2.648369,9.4230656,1.203692,12.6187354-2.1546888-9.1062721-7.4212266-12.3111869.6200277-19.113002-.7525386-6.7888722,8.8597402,1.3244926,12.0375364-5.4440407,20.9096033ZM668.817515,800.8762667c4.083801-7.8243062,4.3334145-14.1922253.7432937-19.1099204-7.3158342,2.5639318-12.9946965,16.3832775-.7432937,19.1099204ZM666.3343224,780.3278327c-2.7833452-5.218464-10.5447858-8.5349344-13.322584-13.7527821.409243,7.4391001-14.5533945,6.5121402-5.8021283,13.0064068,7.0933391-8.3543498,1.4927507,9.6782261,11.5173541,9.0341615,1.8594669-4.5441993,4.7186206-6.4517399,7.6073582-8.2877862ZM564.161641,991.5230844c-2.0554597-.7100119-4.0536008-1.2098553-4.6859551,1.7873563,6.594112.7889021,14.2168785,4.369778,19.1191653.7827388-1.4656322-4.8270946-11.4933173-6.3857926-5.3811751-14.072041-6.8067458-3.7737871-11.5074929-1.9802675-14.062796,5.3750118,2.1670154,1.8292667,6.3290903,2.9429746,5.0107609,6.1269341ZM676.4852735,757.6068362c1.6850455-8.7155191,4.64651-17.9241019-5.7207728-22.0109845-1.4477586,3.2381965-2.9072275,6.4881033-4.3488227,9.7262999,4.024017,3.8280241,5.9981212,8.438787,10.0695955,12.2846847ZM627.5912177,840.8594269c-1.9260305,4.2976674-3.8643876,8.6427922-5.790418,12.9644964,12.7962384,11.8809887,18.7518328-11.7306042,5.790418-12.9644964ZM665.9164508,807.3582067c-4.9022869-5.2905746-9.4736047-10.7013335-16.5792704-15.1789692-1.1827368,4.0566824-4.6613019,8.9675979-1.1044629,11.1826871,2.0794966-8.8357034,11.3996351,14.4812839,17.6837333,3.9962821ZM567.0084681,1020.0283356c-15.0230378-16.3413671,8.730311-3.0576119,9.0403248-11.5198194.7765755-8.5891715-18.6852692-12.1343002-19.1401205-.7525386,1.9204835,3.2320332-.9898256,21.3786302,10.0997957,12.2723581ZM655.0012509,849.2193236c7.2166051-2.7081529,15.7207231-19.6874214,2.2089258-22.3777007-7.3941081,7.2646788-8.838785,14.2766624-2.2089258,22.3777007ZM649.1991226,862.1844364c4.7093757-8.0837811,5.0588346-14.4936105-3.9272532-17.3102375-2.3506817,11.1469399-6.2988901,13.0606438-4.0030618,17.6529168,1.8539199-2.2089258,4.3999781-2.5577685,7.930315-.3426793ZM666.9512685,831.187364c3.7799504-8.6193716,10.3222907-18.3037611,2.2002972-22.3844804-2.2120075,3.6055291-3.5543737,9.4557311-7.5931826,8.3124394,1.844675-4.2674672-7.1623681-8.1620549-9.7232182-4.3519044,7.8452614,5.3448116,9.7897818,7.403353,15.1161036,18.4239454ZM647.1374995,814.5507749c-4.0807193,7.8489594-7.635093,15.4809708-.7673305,19.1099204,7.3158342-2.5337316,13.0187334-16.3530774.7673305-19.1099204ZM710.4345653,733.8504058c4.655755-11.6282935-10.4276831-15.7330496-16.9157864-23.1006555-4.6588366,11.6406201,10.4276831,15.7392129,16.9157864,23.1006555ZM573.8429488,1030.8560167c-7.8335512-4.0683927-15.4772728-7.631395-19.1216306-.7278854,3.5420471,9.8945579,14.6828237,8.5645183,19.1216306.7278854ZM623.5376169,893.5124778c7.17716-2.702606,15.7151761-19.6640008,2.2089258-22.3604435-3.8009056,8.6310819-10.3346173,18.2852712-2.2089258,22.3604435ZM559.61436,1106.2423906c-4.9805607-4.3759413-12.7179645-7.6800851-13.322584-13.7472352,5.741728,2.3112366,9.7743736,5.2425009,11.532146,9.0581984,4.9534422-13.662798-10.2230616-15.7447599-16.2181012-7.2461889,4.6945837,2.9910483,9.5759154,19.2239414,18.0085391,11.9352257ZM654.1913936,903.3108882c7.1654497-14.3968467.3309691-23.4433349-9.3349305-31.400152-1.9260305,4.3272512-3.8643876,8.6606657-5.7934997,12.9644964,5.9586761,3.8341874,8.3876316-1.4804241,12.6396906-2.1189417-4.8061394,8.9922511-8.3241497,17.5210223,2.4887395,20.5545973ZM635.7588196,918.4362368c11.2702059,7.92107,16.3801959-17.8581546,3.9993638-17.67757-4.4024434,7.0483471-5.0588346,12.7000909-3.9993638,17.67757ZM680.6837117,817.8555351c6.2384898,2.2508363,11.7996332,2.7204795,15.8834341-.6742648-3.4304914-2.6662425-6.436948-18.5558399-14.7641793-10.5090386,3.5303368,2.2508363,1.2246472,6.722925-1.1192548,11.1833034ZM697.6654455,806.0102935c3.0033749-10.8702079,12.5527881-4.6884204,16.9854317-11.887152-9.825529.0961474-22.9527364-8.390097-28.5175778,2.8406638,6.4585195,2.0043044,5.5223146,6.8437256,11.532146,9.0464881ZM635.632472,988.4173988c1.7873563-11.5500196-1.898912-35.0118444-17.2769557-31.0451461,2.6298791,3.7799504-5.4656123,10.4850018,3.9272532,17.3342744,5.2511295-6.1694608-4.5682361-14.4510838,7.5956479-8.3001128-9.2030359,10.0153585-6.7833253,29.2097161,5.7540546,22.0109845ZM642.5150264,964.2517254c-4.3186226-5.5013594-2.6150871-13.3318289,2.2027625-22.3659905-4.5232441-1.8539199-6.436948-4.7069103-8.2791576-7.5901009-8.6280002,4.0992092-.4363615,7.45759-9.0427902,11.532146,7.5685294,3.5876555,5.5759353,24.4910955,15.1191852,18.4239454ZM677.0270273,843.4775957c7.8243062,4.0868826,14.2014702,4.3512881,19.1068387.7525386-9.8711374-3.4009076-6.6748512-11.773131-16.5607805-15.1795855-3.4582263,5.795965.4573167,8.7931766-2.5460582,14.4270469ZM620.756737,1012.9319148c18.6735589-3.4724018-3.2955152-32.844829-11.8723601-16.9669418,5.8323285,3.4366547,8.8116665-.4813535,14.4455368,2.5398949-1.6314249,5.10999-6.5121402,11.4359986-2.5731767,14.4270469ZM680.1265496,914.9089816c-4.9953527-6.6927248-17.7404357-1.8292667-9.3922491,3.5993658,3.8668529-6.2773186,14.7130239,5.6400336,17.3281111-3.9303348-3.280107-2.6662425-18.5798768-15.9259609-12.9792883-5.8021283,2.1996809,1.8477566,6.3469638,2.9553012,5.0434264,6.1330974ZM627.1400643,1085.808594c-2.470866-7.0243102-15.5105546-10.7136601-19.1370389-.7525386,7.8273879,4.0868826,14.2131805,4.3574514,19.1370389.7525386ZM664.0415757,1020.6064529c-6.4431113-7.7226118-15.1919121-8.5047343-22.7092861-10.1478694-1.4533056,3.2258699-2.8949009,6.4702298-4.3426595,9.7201366,10.8609629,4.9596055,19.1610757,3.2018331,27.0519456.4277328ZM533.8745805,806.7443423c2.3204815-7.980854,6.0763951-12.2242844,10.4880834-14.758016-10.3796094-1.4206401-6.3586741-8.330313-14.7672609-10.5090386-6.491185-.5115537-6.6206142,15.5105546-13.7441535,13.3318289,1.4563872-3.2320332,2.9041458-6.48194,4.3519044-9.7201366-9.6061156-4.0388089-15.3694151,2.0283412-22.0140662,5.7115278,3.8280241,16.942905,20.957677,9.6665159,35.6854928,15.9438344Z"/>
  <path class="st0" d="M170.7515789,539.435348c18.1620052-4.0807193,38.5150627-2.4135473,56.9957104-5.6455806-16.7956021,7.6203011-36.6364896,7.3189158-56.9957104,5.6455806Z"/>
  <path class="st0" d="M189.6482492,645.1747297c-5.0138426-4.6767102,11.6732856-11.0384659,18.7844983-7.1864049,10.1897798-6.1515873,21.1382616-10.3407806,32.8362003-12.5614167,5.4076773-7.5297006,34.8275618-10.5509491,14.1047064-5.3688485-21.0297876,10.6470965-43.2269037,18.255071-65.725405,25.1166702Z"/>
  <path class="st0" d="M212.4506011,620.3230813c5.7355647-10.8702079,36.7295554-16.3475304,54.8558135-18.2852712-16.7506101,10.111506-37.5338657,9.7380101-54.8558135,18.2852712Z"/>
  <path class="st0" d="M213.3411976,714.1327843c16.0221083-12.0800632,54.2055856-26.9705901,84.8143702-24.3524213-28.7185013,6.9213831-58.0964753,12.1879209-84.8143702,24.3524213Z"/>
  <path class="st0" d="M360.75803,593.2138171c16.0005368,1.0717974,13.081599,31.6473002,25.1943277,30.7024667,4.2372671,3.9358818-1.2936762,3.4724018-4.6853388,1.7935196-4.2009036,12.3623422,4.478252,19.8020587,10.7734441,28.1502452,8.5768449,59.5442339-19.6874214-17.9062284-20.8547499-40.4466402-15.5980734-2.0949048-3.8495956-14.6618685-10.4276831-20.1995914Z"/>
  <path class="st0" d="M417.2834808,466.6856327c-2.4375842,19.7601483-10.0301504,41.4999477-6.9725385,59.1473176-20.9213135-1.3183293,14.6470766-54.5605915-5.6424989-57.0166656,13.9333668-8.1250752,30.9187985-8.2273859,49.0746404-5.3022849-11.5383093,2.6785691-23.5998826,3.960535-36.459603,3.1716329Z"/>
  <path class="st0" d="M431.2988194,496.2984285c-.6983016-5.0797898,11.9980913-10.7734441,16.9792684-11.8933153,30.6297398-6.7531251,12.3802158,9.8649741-16.9792684,11.8933153Z"/>
  <path class="st0" d="M234.5213696,945.4185371c36.173626-29.7027799,93.1748833-65.8277158,135.4902353-102.9098118-32.3388222,39.7119751-90.3274399,73.2914691-135.4902353,102.9098118Z"/>
  <path class="st0" d="M356.4061256,785.8532289c-16.7352018,12.4893062-34.788733,21.5290147-52.7399534,30.9064719-.6169461-3.2258699,34.3523715-31.0389828,52.7399534-30.9064719Z"/>
  <path class="st0" d="M419.9860868,565.1905358c3.9636167,2.1663991-1.0835077,30.7979978-4.4178517,44.713491-5.4767062-2.6902794,2.9041458-24.0029623-8.612592-15.5407548-1.2973741-7.1019678,14.8455348-12.4825265,13.0304437-29.1727363Z"/>
  <path class="st0" d="M493.0008238,488.853165c-3.4033729-2.2810364-.340214-4.0807193,1.4533056-3.2683967-.1861316-5.3022849-4.2341854-9.1364723-10.0665139-12.2723581,14.2951523-4.4233986,23.5702988,15.9623243,32.785045,22.4325541-5.4409591,8.6606657-15.3120964-16.8707944-24.1718367-6.8917993Z"/>
  <path class="st0" d="M320.1727156,866.957294c-8.3870153-10.3463276,26.9884636-21.4932675,35.0716284-34.9514441,1.6973721,18.7906616-26.4528731,19.7595319-35.0716284,34.9514441Z"/>
  <path class="st0" d="M469.0668904,559.869761c15.8624789-7.7706855,34.9126153-7.1864049,55.5448702-2.4258739-18.9866544-.4573167-36.0109149,4.2613039-55.5448702,2.4258739Z"/>
  <path class="st0" d="M555.2840272,567.2367506c-6.8646808,3.966082-15.7275027-11.8933153-27.4217434-8.3364763,16.6538463-10.4301484-29.7607149-16.3167139-20.494197-32.5015333,18.4085371,14.9268903,32.2815036,36.5945792,58.7288297,34.0183208,10.3161274,8.0055072-30.3986162-4.2730142-10.8128892,6.8196887Z"/>
  <path class="st0" d="M517.0247413,565.7316733c9.3688286,11.6529467,19.2276394,23.1308557,31.6805821,33.6035309-8.9410958-1.149455-35.0870366-18.772788-31.6805821-33.6035309Z"/>
  <path class="st0" d="M495.152431,684.3813144c4.1891933,8.7512662-8.2637494,56.5353121-8.3568151,27.4161965,7.9506538-11.1229031,2.9608481-17.2923639,8.3568151-27.4161965Z"/>
  <path class="st0" d="M369.1838741,1079.5306591c10.8282975-26.1095774,65.6989029-57.6662772,98.6398793-72.683768-22.0350214,24.5453325-72.3731378,35.76993-98.6398793,72.683768Z"/>
  <path class="st0" d="M721.338055,692.0496892c-1.5771878-13.7891456,25.2485647-13.4705031,35.7637667-19.0556834.1503845,10.1232162-26.6513313,9.8045737-35.7637667,19.0556834Z"/>
  <path class="st0" d="M842.8881439,707.4277329c6.1725425-14.475737,42.3215153-11.1648135,55.9787663-29.456248-4.0326456,20.0966643-39.0839351,19.6029842-55.9787663,29.456248Z"/>
  <path class="st0" d="M811.1422309,1257.5377862c-17.0969874,3.7201664-29.3027819-17.4063849-39.2793116-25.3151283.3519243-7.0058203,26.0528751,19.6214741,39.2793116,25.3151283Z"/>
</svg>