<?xml version="1.0" encoding="UTF-8"?>
<svg id="raspberry" xmlns="http://www.w3.org/2000/svg" version="1.1" viewBox="0 0 1000 1080.9138017">
  <!-- Generator: Adobe Illustrator 30.0.0, SVG Export Plug-In . SVG Version: 2.1.1 Build 123)  -->
  <path d="M105.1199255,520.0025744c-2.6737033-4.8259457-3.7993048-12.7658297-9.4462546-11.5924811,2.3848501,5.3959588,2.6275888,15.1211817,9.4462546,11.5924811Z"/>
  <path d="M118.4221776,526.598987c1.3111331-4.6645896-4.401701-13.7946846-7.8042241-17.6839821,1.5080256,5.2713691.3985932,17.9090979,7.8042241,17.6839821Z"/>
  <path d="M127.8503845,532.6596034c-5.0013464-7.1530073-1.0494074-17.0055707-6.70329-19.903965-.2169753,5.0780325-3.3275367,22.4633436,6.70329,19.903965Z"/>
  <path d="M155.0017775,541.9869263c-1.2510634-3.959744-1.1307005-20.0597077-6.7241109-25.4431204,1.3324907,7.0365804-4.9987522,26.3251558,6.7241109,25.4431204Z"/>
  <path d="M48.4896976,642.4943222c-.7083567-6.2539306-6.8373621-5.9557516-8.3093817-2.7398112.966191,4.5440925,4.9030567,3.1127753,8.3093817,2.7398112Z"/>
  <path d="M31.4840151,690.702946c1.7527099-3.8660837-3.5766714-9.1576027-8.3298671-8.2785194-1.9130373,4.18401,2.9749461,10.3754556,8.3298671,8.2785194Z"/>
  <path d="M78.485051,676.7225285c-9.5906588,10.4366882-.3459931,30.2209388-14.8237632,38.230509-1.3313725-4.7443619-5.6723553-3.4101045-9.9705781-2.1802421-2.7224568,6.8760071,4.3298455,11.8952894,8.3458126,13.8115918,12.0663962-2.76345,14.97103-10.0694046,20.4274834-16.1156856-5.8457432-11.2645357,12.9929135-41.7243889-12.3061381-42.0264368,1.6959725,4.944609,6.213094,4.1896234,8.3271834,8.2802638Z"/>
  <path d="M74.0675833,680.051161c-1.4473074-5.2239798-8.3493908-5.492191-9.9695494-2.1805552,1.3303437,4.7446974,5.674122,3.4171491,9.9695494,2.1805552Z"/>
  <path d="M30.9761961,705.6488612c1.1746681-3.7621582-5.1600636-10.2111475-11.6449917-7.1627357,1.8331978,6.5141802,5.8441106,8.6501416,11.6449917,7.1627357Z"/>
  <path d="M59.2093349,707.2242918c9.9527317-1.5112683,2.8910365-11.4645591,3.2671539-17.7234992-8.889481,1.6864901-8.1641723,13.5791182-3.2671539,17.7234992Z"/>
  <path d="M151.6064557,696.4177928c-.8020842-9.5210621-7.6569349-6.8446751-8.9047108-15.4724304-1.6569249.5580708-3.3170927,1.1173268-4.9771486,1.6763592,3.9965999,5.8759346,6.9827727,13.7825633,13.8818594,13.7960712Z"/>
  <path d="M140.0297859,711.4017045c1.2192842,2.1820983,4.274696.6643668,6.0938939,1.637513-.3388367-5.8150822-5.4598304-1.9865477-7.2125179-4.9582063,4.9055391-.3293096-3.8191864-7.4230524,1.0827968-7.7522055,3.3258146,1.6535033,5.323097,5.9856523,9.431472,6.0594311.352926-10.1210654-7.3986309-12.7854429-16.6396066-11.0182188-2.3631347,11.5722641.2834411,31.3686583-18.7369454,26.6226638-3.0480316,20.4152727,31.3313552,6.9573896,25.980907-10.5909773Z"/>
  <path d="M120.6679462,714.2250675c4.9321523-.3160254,2.228347-4.4177807,5.5160311-5.5551233-1.6148583-4.1604384-3.1865318-8.4250482-7.7689337-6.6116425-2.1727054,5.5866565-3.9649548,8.3316338,2.2529027,12.1667657Z"/>
  <path d="M213.6056043,699.5476542c2.4195367-.2361636,3.964351,1.2949639,7.1933296-.5742847-5.1167669-6.1673596-14.6979881-15.8285097-20.5124442-11.5632514,1.6183024,6.1584364,12.9645337,7.1010111,11.1030454,11.034634-3.0337634-.3833186-4.2531147-4.4289403-8.3094935-2.7395876,2.3785659,7.6906598,5.6668537,19.0353032-2.6896488,24.9156659,9.8501928,13.4934418-18.3259849,12.07892-17.6395225,24.4048726,26.7542758,6.1394494,39.4550711-22.2609496,30.854734-45.4780488Z"/>
  <path d="M199.2033351,695.1624355c-3.4232992.401098-3.4789408-5.9902145-8.310388-2.7400573.4647235,4.0220053,7.5108757,8.5550276,8.310388,2.7400573Z"/>
  <path d="M194.8357168,715.1050454c-8.3416082,1.4634765-7.5169587,6.4991964-3.8436526,10.5222975,6.5256753-.9054952,6.4479828-5.0871346,3.8436526-10.5222975Z"/>
  <path d="M47.7685487,766.4766964c-1.5642039,2.9094644.787391,7.7609274,2.2554745,12.1739669,5.5585003-1.3913974,3.0525715-6.7774043,6.0567026-9.4274465-3.4230979.4017913-3.4758322-5.9911762-8.3121772-2.7465204Z"/>
  <path d="M91.5249512,775.7496973c-1.0986753-2.8456376-1.36919-5.28027-.5776393-7.1918983-9.8382952-4.2097062-12.1801841,14.05111.5776393,7.1918983Z"/>
  <path d="M97.5817433,766.32319c-2.2681549,7.1663586,3.0273897,18.0828884-5.4622904,22.1595737-1.1515661-6.9314026-8.6358958.4884741-8.2948227,2.7937084,11.3647487,21.3852432,31.6341411-12.1801394,18.7342617-26.6295966-1.6599441.5593679-3.3167572,1.117215-4.9771486,1.6763145Z"/>
  <path d="M260.7480924,729.8416115c1.7281766-3.23533-1.2985869-9.189449-6.1113602-7.1774959-1.7980193,3.3633637.7577811,10.2725142,6.1113602,7.1774959Z"/>
  <path d="M144.1131133,778.3593949c-.2704923,5.6666748-.7118902,11.2404944,3.3683733,15.4802578,3.2625246-.677897,3.0289999-3.1017946,6.0776353-3.8878885-1.4914315-4.4280234-2.979978-8.8484431-4.4689942-13.2685049-1.6602795.5589206-3.3170703,1.1167677-4.9770144,1.6761356Z"/>
  <path d="M392.9696701,711.1610457c-4.5923316-4.8560476,1.9327399-14.8465521-6.1293856-12.7099421-2.5333023,2.6194259,1.8232459,14.6708383,6.1293856,12.7099421Z"/>
  <path d="M327.6855658,720.2223714c-1.8410476,3.6943059-5.2520466,6.6083773-3.2822049,12.190315,9.3947727,5.1998938,12.381214-12.4290505,3.2822049-12.190315Z"/>
  <path d="M82.9844602,876.514592c.5082662,5.4724213,3.727673,5.4711689,5.0066914,9.390859,10.3128812-2.4134313,11.6422857-7.9939601,17.1302947-9.4590692-5.8657813-10.6346094,1.1394672-45.3830466-22.8348093-45.8679872,8.7578242,17.7913516,6.1613213,19.3652838,10.6278108,37.0459336-2.405917,3.410507-5.1939897,6.6340512-9.9299875,8.8902637Z"/>
  <path d="M223.3093354,794.1600391c1.6602795-.5589206,3.3172045-1.1169914,4.9770368-1.6761356,1.5621911-2.8931387-.4532508-10.886741-5.010046-9.3900539-2.3056593,2.896046-5.641985,8.2735098.0330092,11.0661895Z"/>
  <path d="M72.9091292,841.1240849c-3.0935647,3.8445024.5235408,11.7873385,6.1292738,12.709629.2600931-4.1683776,2.5955188-15.9112565-6.1292738-12.709629Z"/>
  <path d="M276.4930503,809.4937681c-7.9447146,2.0817735-8.5499734-10.6169419-17.1848628-7.1454707,5.4550445,10.4948346,8.2326509,14.511316,16.6762388,22.0906479,19.9367282-11.6139729,35.3922067-38.4996818,20.3086636-54.8592019-2.2110149.7447205-4.4244452,1.4901567-6.6347668,2.2346984-1.8264216,4.6204431,4.8893923,13.4801129,2.2694744,17.7068157-2.3975082-.7480304-5.1839483-.6886317-8.8538328,1.1330487.3613796,5.7704884,4.3393502,4.2498719,6.1105327,7.1779432-2.4295781,2.4795392-3.4941707,5.6328605-6.6157127,7.7668315-.7691644-4.0248456-2.4103898-6.2748856-4.4535183-7.7357008,6.9767568-1.1402052,2.6281926-7.9040122,1.0674328-13.2852779-10.5216713,4.8056616-8.8401907,15.3543039-2.6896488,24.9156659Z"/>
  <path d="M134.4718,881.3353269c24.2470053-6.4147052,14.467751-43.1830124,1.5172619-44.8407648.8742527,3.2000172-5.0956553,3.0014251-3.2961376,6.656281,2.7640762.9249295,6.6989291-.5135217,8.3084424,2.7399007-1.1689429.7992887-1.4611059,2.0404001-.5414096,3.8797033-2.8741964-1.5497344-8.9863394.1709503-7.7343366,4.4455568,2.9115443.6355843,6.8650264-.8461188,7.2085595,4.9595705-3.8520391.0877563-8.8515293-1.903622-10.5088791,1.6979629.8473041,6.6433546,7.5542171,1.47647,9.4255456,6.0536611-3.3167572,1.117215-6.6336262,2.2341169-9.9514122,3.351645,1.5008244,4.4016786,2.567206,9.6864214,5.5723659,11.0564836Z"/>
  <path d="M346.1558878,786.0319846c4.0251587-.7692762,6.2773457-2.4151757,7.7359021-4.4539656-.7660334-4.0257849-2.4105016-6.2746173-4.453742-7.7357903-6.2346081,2.7086806-7.7072315,7.773004-3.2821601,12.1897559Z"/>
  <path d="M238.4624753,861.0860845c-1.4655564-3.5492979-5.3781795-2.1565139-9.4131112-.5265376.5595244,5.499929-.085833,3.5835148,2.7936861,8.2948004,4.8598048-1.2766255,9.1243475-2.8404939,6.6194251-7.7682628Z"/>
  <path d="M94.1709232,915.2212301c-1.6616214.5669269-2.4261788-.6787915-3.8766842-.5432658-.8223459,12.56395,11.1519778,21.5769025,13.9514114,35.9343544-1.518559,6.1327402-7.0983498,6.1328296-1.0671868,13.2848306,20.7339147-5.9763712,1.2552902-41.8222984-9.0075404-48.6759191Z"/>
  <path d="M137.3133897,906.229747c-4.1951249,1.1419048-8.1500383,2.4062748-7.1727324,6.1133282,4.1847704.8444192,6.8089375,4.830083,9.9850253,7.7133816-.2490229,7.1706525.2520868,12.5855089-8.8181175,12.2056343,1.4276271,3.0135911-.6376418,4.2877565.5740387,7.1943583,7.7748378-1.672289,13.1069251-4.5499966,13.2540801-10.003319,5.9964094,11.7257928-4.0603372,15.4884878-4.905964,23.8137926,2.9491828,2.6970513,8.2265231-5.0174037,14.9260113-5.027065.5392627-13.0163734-.2491571-22.7536505-6.753117-36.5091981-7.3806279-.3699897-8.8744524,1.8770983-11.0892244-5.500913Z"/>
  <path d="M90.3300661,925.7508183c-10.3657944-3.1444651-10.9973756,11.6613398-.5232948,9.4119706-.3517183-3.398833,2.1689036-5.3753616.5232948-9.4119706Z"/>
  <path d="M188.3136421,931.5346804c-.7796978,6.5970164,4.0833497,9.009911,8.8694428,4.4001132-.9811526-5.4564981-3.9346964-6.9187446-8.8694428-4.4001132Z"/>
  <path d="M259.1137103,916.9254549c-3.8932783,1.3488164-5.8477112-1.2172267-10.5110037,1.6916115,6.1823435,5.6951218,12.1818167,15.1950723,16.6550601,16.5510452,1.2651304-4.0179575-3.1329029-9.9834151-6.1440564-18.2426567Z"/>
  <path d="M229.5151387,1010.000495c3.3622456,5.2855479,2.0730292,6.3131728,7.2266966,10.4918378,14.2405777-2.1434981,8.9989303-13.9573155,17.6549984-18.8720238-3.252416-8.696368-3.9240511-8.1014414-5.5878418-16.5893323-3.9982324-.2918499-6.6034125-3.3972228-11.6273018-1.6220595-1.2833123,6.7968609,11.1442175,6.2108799,12.7787337,16.0082267-2.9291.8511284-5.0343109,2.108655-6.0755331,3.8954476.0828362-5.8149927-.5047327-5.0380681-5.5516345-5.517686.963977,9.0309779-.5350135,9.220535-8.8181175,12.2055896Z"/>
  <path d="M194.1081047,1014.5383702c-2.5717459-1.3204589-3.8518602-5.2332162-5.0135571-9.395958-1.6567013.558205-3.3176741,1.1173045-4.9735703,1.6750621,2.1260765,6.8592117,4.2526898,13.7102382,7.8025244,17.6920555,9.8408894-2.4870983,12.8734228-8.3555409,11.0177268-16.6430059-6.7938194.3109488-3.3408432,5.7091664-8.8331237,6.6718463Z"/>
  <path d="M294.2073132,988.2127448c3.3965743-.3551847,5.3668857,2.1678748,9.4069164.5217964-1.1271893-5.5350404-10.2488308-7.0917524-9.4069164-.5217964Z"/>
  <path d="M287.5694154,990.4483825c.4835093,5.5184016,5.6277168,1.6511327,6.1139097,7.1765119-8.8291877,4.7997575-10.9350919-3.9522521-17.7231638-3.2667066-.8180297,3.7399285-5.2418039,5.6884573-6.0600572,9.4282516,2.5595128-.5239881,2.8722731,3.4961163,3.8948437,6.0749517,11.276165,2.8909918,22.1974583-1.4865785,27.639062-11.1568531-5.4618208-5.4278275-3.9779483-9.9030389-13.8645944-8.2561554Z"/>
  <path d="M995.5732737,1.4363686l2.7805584,8.255641c.5463968-.6891013,1.0937776-1.3779567,1.6461679-2.0630325l-2.3238412-6.9010324c-.4555543-1.3530655-2.5590208-.6472807-2.1028851.7084238Z"/>
  <path d="M967.8534777,7.3124373c-.5425502-1.3128104-2.6489688-.614674-2.1030193.7080883.9512743,2.3023047,1.9024591,4.604833,2.8531072,6.907339-11.9009475,1.2503031-23.6849761,2.477191-35.2835625,3.679009-1.4490965-3.5599879-2.8095421-7.1558252-4.0634905-10.7902627-.4653497-1.349286-2.5697555-.6439932-2.1027956.7082225,1.1991566,3.4743785,2.4968937,6.9129524,3.8734861,10.3200153-11.4962489,1.190636-22.8001675,2.3564032-33.8447982,3.4951994-1.0984293-2.7183866-2.1961429-5.4369744-3.2945274-8.1553609-.5318602-1.3181777-2.6386366-.6187666-2.1023483.7078647,1.0347366,2.5614361,2.0692049,5.1227605,3.1036732,7.6840624-13.3556349,1.3778001-26.3179322,2.7151214-38.759104,4.0091013-1.6528323-4.4247583-3.304949-8.8502993-4.9578261-13.2750352-.4981353-1.3351073-2.6035251-.632923-2.1021694.7076411,1.5929863,4.2687024,3.1876276,8.5365326,4.7808823,12.8047877-10.9273987,1.1378122-21.4394982,2.2413405-31.4543571,3.3082813-1.0913622-2.4722933-2.1821878-4.9445419-3.272566-7.4171483-.2423808-.5480293-.8009436-.9010671-1.4056656-.6972418-.5289976.1782186-.9406737.8541922-.6974431,1.4055538,1.0225706,2.3184068,2.0458122,4.6366122,3.0684723,6.9553768-9.7702863,1.0437046-19.0407377,2.0507546-27.7473931,3.0211725-1.2902228-4.0662189-2.7903091-8.0631542-4.4977543-11.9758668-.5669269-1.2985422-2.6752688-.602262-2.1031087.708312,1.6437973,3.765401,3.0881973,7.6110887,4.3447847,11.5195074-11.472722,1.2844305-21.906816,2.5011205-31.114022,3.6442553-1.2667853-2.7614819-2.5331233-5.523277-3.7996403-8.2852062-.2498504-.5444287-.7948159-.9027221-1.405442-.6971076-.5224226.1756243-.9484564.8573008-.6973536,1.4053302l3.6061024,7.8641595c-11.26259,1.4155952-20.5550923,2.7142269-27.5152103,3.8870834-.7338069-2.1703796-1.5886477-4.29829-2.5951163-6.3608528-.2630899-.5381221-.7850204-.9059201-1.4057998-.6970182-.5106144.1720237-.9616512.8630707-.6970405,1.4052183.9566416,1.9593978,1.7757448,3.9780601,2.4858012,6.0348083-2.6571987.4723496-4.9215965.923364-6.7361204,1.3515001-5.4181663,1.2769833-10.8239876,2.5956754-16.2194768,3.9430381-1.3466247-2.5005614-2.6930705-5.0007873-4.0395611-7.5010356-.2840673-.5280807-1.0787937-.6099328-1.5401626-.2990959-.5382116.3625649-.5841472,1.0112545-.2986486,1.5404086,1.2220573,2.2691836,2.443399,4.5385909,3.6656353,6.8078864-7.6152932,1.9153184-15.2021394,3.9092909-22.762037,5.9655247-1.7419752-2.4289743-3.4847554-4.8580827-5.2275581-7.2866321-.82948-1.1568663-2.6748886.0771781-1.8395045,1.2420955,1.5944624,2.2216602,3.1882091,4.4435216,4.7825819,6.6648464-11.63788,3.1901324-23.1991857,6.5495824-34.6685083,10.077232-2.971681-4.1263557-5.7177318-8.4128374-8.2135744-12.8484199-.6992546-1.2429006-2.5371489.0020799-1.8392808,1.2416482,2.3854092,4.2398305,4.99788,8.3441129,7.8184252,12.3021796-7.3971325,2.2916594-14.7529141,4.6584395-22.0646833,7.0930271-2.4389486-3.2831665-5.1471596-6.3629103-8.094844-9.2013914-1.0290338-.990702-2.4870535.682996-1.4585788,1.6730941,2.6630357,2.5631582,5.1106392,5.3278829,7.3378456,8.2679636-11.5641012,3.8784062-23.0100759,7.9424111-34.3215312,12.1841649-1.6734967-3.102555-3.3471051-6.204864-5.0203782-9.3072848-.2846487-.5275439-1.0785924-.609821-1.5401626-.2991182-.5380997.3629227-.584751,1.0118136-.2993642,1.5411913,1.5905934,2.9478857,3.1806948,5.8966436,4.7714894,8.8446412-8.1109908,3.0620986-16.1463019,6.223113-24.1054413,9.4751042-1.3356664-2.0904283-2.6708631-4.1811922-4.0065071-6.2716205-.7679344-1.2027796-2.6095634.0367217-1.839415,1.2418718,1.2520251,1.960024,2.5044974,3.9203163,3.7564331,5.8800048-9.348032,3.8457995-18.5795253,7.8278404-27.6920646,11.9399279-3.2598409-4.7974093-6.8105253-9.3901434-10.641095-13.7485254-.3985038-.4531166-.9943473-.658485-1.5407441-.2985368-.4520879.297754-.6941556,1.090915-.2986486,1.5404086,3.7467718,4.2621498,7.2243037,8.7495048,10.4251037,13.4319408-8.4169748,3.824755-16.7225098,7.7680168-24.9134742,11.8238588-2.3147838-3.457203-4.9431553-6.6936288-7.8498466-9.6768943-.9961364-1.0219892-2.4511146.6541912-1.4585564,1.6730941,2.7022398,2.7738269,5.13723,5.7892965,7.3022869,8.9947482-9.1909474,4.5826927-18.2193758,9.3226489-27.0916588,14.2045269-.9074632-3.8542308-1.8159776-7.7081708-2.723575-11.5622003-.1376056-.5840353-.8751696-.8760866-1.405442-.6971076-.6132874.2062406-.8352499.8196846-.6973313,1.4053302.9385715,3.985731,1.8773667,7.9715737,2.816967,11.9569916-10.2300227,5.6710358-20.2403863,11.5381366-30.0005641,17.6111202-.8539686-2.4989959-2.0812591-4.8691082-3.6426228-7.0029003-.8410646-1.1476524-2.686093.0851397-1.8393927,1.2418495,1.5608046,2.1326515,2.7483543,4.4787002,3.5499464,6.9719262-8.1513801,5.1113996-16.133219,10.3613887-23.9243377,15.7592708-.4330338-1.6545991-1.3220691-3.1717044-2.6308987-4.3611104-.429791-.3904975-1.1970097-.3543573-1.5657246.1076155-.3806797.4773815-.352434,1.1475182.1071458,1.5654786.4685925.4250722.6429868.6211372,1.0045453,1.1486364.1488323.2190552.2883164.4453116.4145387.6784784.0278432.0507886.0544116.1023599.0806445.1540431.0072907.0152075.0198369.0407472.0417088.0874879.0520857.1220402.1064973.2429846.1555638.366322.1051778.2640292.1961992.5338953.2719907.8078764.0309741.1093375.0585936.2195248.0844688.3302489.0125462.0528237.0231467.10605.0348878.1587395-.0029744-.0091245.0021917.0226323.0170414.1065867.0089456.0732644.013642.1463052.0224758.2192117-7.4895852,5.2336858-14.8141243,10.5925875-21.9414131,16.0964078-3.312687-2.1634915-6.6260672-4.3267817-9.9395817-6.4898482-.5017359-.3277665-1.2427888.0084983-1.4867127.5005506-.2922525.5894251-.0023482,1.1583647.5006401,1.4870705,3.0274344,1.9761037,6.0539519,3.9529006,9.0811626,5.9288925-11.3320078,8.8286286-22.1857172,18.0018413-32.5066271,27.5306638-4.1049757-1.9235707-8.6337265-2.8815094-13.1762087-2.7748109-1.430758.0339485-1.3012706,2.2495928.1240977,2.2159574,3.8876873-.0914687,7.7301993.6766222,11.2825163,2.1945774-7.8623257,7.3332163-15.4163416,14.8710183-22.6301566,22.6227988-1.7697736-1.6130245-3.5402405-3.2258253-5.310685-4.8386261-1.0549761-.9621208-2.5152098.7092065-1.4575277,1.672781,1.7526204,1.5972131,3.5059341,3.194225,5.2584427,4.7916841-6.9000483,7.4919335-13.497691,15.1739831-19.7528516,23.0602159-1.5988233-1.6271809-3.1980939-3.2540486-4.7977224-4.8808046-.4194588-.4273757-1.1927158-.3198496-1.5648077.1069446-.4193023.4812281-.3148848,1.1370071.1073918,1.5656128,1.6274492,1.6563435,3.2552115,3.3131566,4.8835777,4.9688292-6.0571499,7.7261962-11.8115363,15.6308345-17.2131308,23.737263-2.3356047-.0564914-4.6718132-.1124237-7.0076638-.1690493-.5987956-.0142011-1.0774071.6058626-1.045695,1.1701729.0356705.639252.5688278,1.031315,1.1697927,1.0458068,1.8107444.043565,3.6216901.0872643,5.4321885.1306951-3.4890493,5.3186242-6.8474035,10.7108035-10.0421429,16.1937806-.1743943-.5296014-.6907563-.9466897-1.3715829-.7171458-1.2968649.4366344-.7005741,2.380355.543892,2.1405237-1.5122076,2.6233396-2.9772273,5.2720624-4.4204197,7.9326828-3.5989236-.9723411-7.1959909-1.945465-10.7945566-2.917918-1.3818927-.3740152-1.822575,1.801441-.4495607,2.1730409,3.3893731.9160957,6.7789698,1.8322809,10.1676272,2.7491594-2.6495949,4.96212-5.194437,9.9816707-7.5987662,15.0753803-2.153875,4.5615811-4.3018906,9.350671-6.4308744,14.3234586-2.7782102-.9098115-5.8272482-.9090958-8.6203081.1408931-1.3337878.5011544-.6311339,2.6056497.7084462,2.102326,2.2428165-.8427419,4.7600838-.9018499,7.0509605-.2093492-8.3549147,19.7732475-16.3624721,42.4332823-23.0612446,66.2385766-4.4117201-.183407-8.8252516.1207431-13.1750682.9574244-.5935624.1145707-1.0760653.5148636-1.0461646,1.1699269.0237953.536579.5815529,1.1591251,1.1699045,1.0461646,4.097193-.7884645,8.2733757-1.1288219,12.4402101-.995801-2.4260222,8.7493706-4.6720144,17.6432126-6.6912135,26.5958494-3.6030609.2402115-7.2061441.4809821-10.8100101.7216186-1.4258827.0951811-1.3017849,2.3111608.1237399,2.2160692,3.396373-.2270391,6.7916949-.4537428,10.1871062-.6801334-1.9496918,8.8235743-3.681715,17.6952312-5.138706,26.5343484-18.9638503-19.7946051-34.3657-53.9554734-40.1177605-86.2187357-1.3541614-7.5990346,4.2642072-21.9136146-7.8190067-23.2170098-26.3707783,29.8403933-20.8323609,82.5555604-2.3640069,130.0742777-46.3122253-20.8269935-101.4307823-43.1518594-157.835872-29.9486126,21.774779,32.2766583,62.7877026,64.6205203,87.7332692,90.4941249-26.1006214,7.8809549-54.7034368,21.2416217-56.8697685,45.0115138-8.601992,1.0109637-31.2970935-4.601389-29.855489,10.0551811,6.3024381,4.9337625,16.6954271,1.6212768,22.7161237,7.1242025-7.5339554,8.23321-11.2215745,18.3801728-9.8675249,31.022777-11.3947164,10.5574761-16.2481698,23.5793063-16.2683198,38.0698908-3.1501008,6.8482981-6.3000675,13.6963949-9.4501459,20.544693-.5964697,1.2969767,1.3895636,2.2865605,1.9872633.9861621,2.5456024-5.5335197,5.0908471-11.0669276,7.6364271-16.6004472.7091395,10.0594302,3.5582211,20.7447388,8.0261642,31.7465872-11.2663472,10.1517264-14.1632877,33.3435767-10.1193433,55.8414279-.5336717-.096836-1.0961481.1454106-1.1783581.8404384-1.0659568,9.0525367-2.1319359,18.1050735-3.198161,27.1575208-.166634,1.4105857,2.0056241,1.8687342,2.1729291.4497844.9736159-8.2674268,1.9474331-16.5347642,2.9214068-24.8023253,3.5448698,16.5627639,10.8470673,32.3386288,21.3370265,41.7613789-5.6166466,9.5638668-5.0618633,22.3219362-1.197457,34.2846977l-2.315902,14.2837401c-.2284928,1.4084835,1.9436535,1.8613541,2.1727949.450008.5635276-3.4758098,1.126921-6.9508146,1.690538-10.4263113,4.1512915,10.5110261,10.6887079,19.9933538,17.5604211,25.5569754-3.1269765,13.3018272.5527929,24.4386869,6.817078,34.6579078-.3694306.1243437-.6861716.4203086-.7380561.8159275-.4422924,3.3510188-.8833101,6.701322-1.3258486,10.0527881-.0780503.5932717.2453776,1.1832335.8618631,1.311066.5539558.1149061,1.2325908-.2650132,1.3115133-.8616394.405705-3.075271.8110521-6.1504525,1.2166229-9.2255445,8.5674173,13.1120465,21.0016115,24.8220056,28.0657891,37.858596-.6439037,21.027509,7.6004882,37.3612658,19.9211181,49.4206397.0114951.0127922.0190541.0263895.0312425.0389581,4.2636258,4.3889759,7.202141,10.0358362,8.3133401,16.05783.1099637.5934059.5178603,1.0753049,1.1698151,1.0458292.5406269-.0248687,1.155122-.5816871,1.0466343-1.1702624-.6337728-3.4306346-1.7726362-6.7078523-3.3705873-9.745507,9.1038621,6.9986735,19.6259583,12.1217247,30.1412559,15.513446,4.7474705,4.6630688,8.1890858,10.5095501,9.9701756,16.9437567.3810822,1.3773528,2.4827149.664747,2.102326-.7078647-1.5218241-5.4987213-4.2341277-10.610188-7.8808654-14.965439,5.3563299,1.4960608,10.6611779,2.5442159,15.725613,3.1568548,4.995487,11.0457936,15.1328334,11.7278503,23.1086339,16.7609983,1.9119191,4.6461169,3.8239276,9.2920102,5.7358466,13.9380825.5400901,1.3135708,2.647202.6151884,2.1027733-.7082225-1.7191415-4.176697-3.4380371-8.3533045-5.156955-12.5298673,6.5097298-1.0884102,6.2191099-5.5519476,10.7693077-7.6126542,3.0826958,5.7992485,9.4634525,8.2035553,16.2417961,7.970791-1.1342116,6.661693-.7675318,13.5155821,1.0639216,20.0352639.385801,1.3760557,2.4875455.6638077,2.1019682-.7077753-1.7830131-6.3481948-2.0675947-13.0240666-.8823261-19.495129,7.6079131-.9079776,15.309643-4.9952187,19.1008521-11.2396446,4.7014007,2.6682465,9.9693258,2.7786798,15.1468332,1.2970661-1.316903,3.2703296-2.3101768,6.6705492-2.9504799,10.1400971-.2600707,1.4056209,1.912836,1.8560315,2.1725936.4499186.7368484-3.9917469,1.9468516-7.8645621,3.5993261-11.5552451,10.2147928-4.0528005,19.5935977-13.7499119,22.9231023-21.4989864,11.3032925-3.897192,20.1442659-9.0166649,27.208041-15.0189784-.7179061,2.875337-1.129381,5.8244751-1.2049489,8.8068461-.0153864.5993547.6060639,1.0781228,1.1700387,1.0459186.6396098-.0363638,1.0306217-.5686266,1.0455832-1.1699045.0997657-3.9378497.8413553-7.844032,2.1544564-11.5532323,11.4259142-10.9748103,17.7364033-24.4877088,22.5864573-38.7231874,12.0800159-7.2067927,23.4886203-16.8280455,31.6907443-27.9641895.3111948,2.8292224.9647374,5.6216338,1.9830589,8.3017779.5052247,1.3315961,2.61095.6299039,2.1023036-.7078647-1.2764242-3.3596513-1.9714743-6.8933392-2.0706586-10.4548478,11.3447776-16.9060063,15.1461176-36.9851036,3.1019065-57.2989333,6.357118-7.5173389,11.208581-15.7819032,14.2667659-24.9367775,1.9927201,5.1316837,4.7539784,9.955147,8.1939835,14.2658042.8836903,1.1073301,2.7327666-.1221521,1.8390572-1.2417824-3.9604149-4.964088-6.9823925-10.5647444-8.9493046-16.5796711,2.4454342-8.8546155,3.2605118-18.5183151,2.1810472-29.1215255,7.0772829-12.8053021,16.5401763-26.1350843,21.9756076-40.991074,1.4133812,4.1026722,3.4747364,7.9731169,6.1411267,11.4361345.8662017,1.1244609,2.7144952-.1062736,1.839415-1.2418271-3.161171-4.1058032-5.4659134-8.7953062-6.762331-13.7817582,4.6681455-14.8404691,4.9574235-31.2296885-5.2225262-50.1191562,2.0764509-7.0792957,3.507522-15.8909723,3.4795223-25.1542672,4.4095955,6.0528784,9.602713,11.5253221,15.4330922,16.2365405,1.1072183.8949841,2.5728418-.7717586,1.4576395-1.6724232-6.5764416-5.3142856-12.3008602-11.5818582-16.9989734-18.5922057-.627578-12.5857549-4.1026051-25.655198-12.430862-36.1066241,5.9228319-8.4185179,7.8859644-19.104229,6.865004-29.8409077l14.171965,12.4273061c1.0730238.9412328,2.535069-.7285514,1.4576172-1.6724232-5.346445-4.6884296-10.6921967-9.3770381-16.0387759-14.065244-3.7471744-24.731834-22.8490999-48.5268408-45.4406563-44.2122475,38.5354195-28.775264,129.7345241-31.4223318,110.4221983-88.899752-45.8889199,6.8510265-96.0147406,34.6139626-138.8085303,37.5138776,15.0701919-32.2787828,33.2597341-60.3033551,48.418711-92.026393,8.9874799-18.800638,22.1637334-39.5226997,19.7340658-62.0530011-46.4139814,21.7485684-132.111368,132.0122284-142.3567323,142.1353513-1.0202224-11.0541354-1.3005326-21.7415238-.9529068-32.1168005,1.3944389.6921428,2.7895935,1.384062,4.1846138,2.0756458.5209242.2583934,1.2435715.0473445,1.4866232-.500327.243991-.549483.0544339-1.2110543-.5005506-1.4867351l-5.0815213-2.5205995c.2672272-6.1447496.7480081-12.1829125,1.4473521-18.1123865l7.0109513,4.4359403c.5067454.3205429,1.2399038-.0030639,1.4867351-.5005506.2890768-.5829619.007313-1.1655659-.5007743-1.4868469-2.5676757-1.6245195-5.1352619-3.248726-7.7021101-4.8736928.7773943-6.0714181,1.7704445-12.0368757,2.9669622-17.9002641,2.3473681,1.3254013,4.6943784,2.6514735,7.0410532,3.9776576.5219306.2946678,1.2306004.0154982,1.4864891-.5006624.279259-.5617832.0227665-1.1913292-.5005506-1.4867351-2.5130852-1.4198891-5.025589-2.8397559-7.53854-4.2593095,1.4639238-6.8439148,3.1866212-13.5603996,5.1661466-20.148448,2.2912345.9391083,4.5824914,1.8782165,6.8737259,2.8173248.5372499.2195025,1.232479.073667,1.4873165-.5011097.2296557-.5170329.0725488-1.2516449-.5005506-1.4867127-2.4030321-.9843282-4.805259-1.9691038-7.207486-2.9538793,1.8384534-5.9373908,3.8681635-11.7791756,6.0783062-17.5322872l8.0467167,5.8856629c.4833303.3530825,1.1485246.3718235,1.5659483-.1075037.3674849-.4219859.3785104-1.2096901-.10728-1.565255-2.8923336-2.1150064-5.7839739-4.2302364-8.6755024-6.34569,2.1090128-5.3653649,4.3641295-10.6582929,6.7571649-15.8825411,3.154104,1.4513329,6.1165039,3.2872144,8.8057949,5.498028,1.1008893.9046677,2.5652604-.7624328,1.4587801-1.6729823-2.8472254-2.3406589-5.9918918-4.3059608-9.3403164-5.8394366,4.3749984-9.3860955,9.1735482-18.5620814,14.2982096-27.5762639.2421795.167372.4823463.3380316.7143279.5191574.5428409.4256536,1.0571677.888096,1.5377249,1.3833911.1195802.1239635.2374831.2499398.3542231.3770343.0111373.0134631.0298783.0344629.0450187.0523764.0601591.0697309.1202064.139104.1789789.2098189.2331669.2798629.4538546.5690515.6674977.8643455.3389261.4702027,1.0482221.6636288,1.5399166.2989841.471142-.3488781.6623093-1.0364587.2994761-1.5408335-1.1564862-1.6047498-2.6011993-2.9944252-4.2422458-4.0902378,2.7711208-4.8199969,5.6312279-9.5961604,8.5677751-14.3337236,3.8921601-9.1555005,8.6269726-18.3737767,14.257619-27.6364678,1.7023015,1.6427462,3.1710782,3.5090427,4.3640848,5.5778898.2995208.5192022,1.0689088.6165749,1.5408783.2983355.5260679-.3544915.5988179-1.0197081.2986486-1.5404086-1.3435609-2.3288731-3.0438496-4.4497612-5.0150555-6.2778824,3.6004443-5.7966766,7.5525846-11.6101039,11.8773982-17.4354959,1.1321318,1.7531795,2.2641517,3.5065827,3.3954561,5.2602095.7734135,1.1990224,2.6152439-.0397855,1.8392808-1.2416482-1.2722645-1.9710718-2.5439699-3.9421659-3.8161225-5.9129023,4.5036584-5.9575855,9.3869006-11.9275606,14.6921511-17.9056315,1.336382,2.322723,2.6733231,4.6448869,4.0097051,6.9676323.2989393.5197389,1.0689088.6165526,1.5409677.2986486.5266717-.3550506.5981247-1.0194844.2985591-1.5407441l-4.2971047-7.4676014c4.7688952-5.2958129,9.8614866-10.5977536,15.2905218-15.9018859,1.5823858,2.2590528,2.9757736,4.6492479,4.1339818,7.1547517.2514382.5435565.7933175.9033706,1.4056656.6972195.52079-.1753112.9499548-.8579494.6966604-1.4051065-1.2985422-2.8120245-2.8403373-5.4930185-4.6266156-8.011158,8.0697069-7.789844,16.8602496-15.5847423,26.4300652-23.374564.7444298,1.5171277,1.4883005,3.0348369,2.2319476,4.5524119.2638502.5376748.7843943.9065016,1.4056656.6972418.5109499-.1721132.9624786-.8634956.6973313-1.4053302-.8616618-1.7579878-1.7237709-3.5156177-2.5849854-5.2733595,6.5672276-5.2933976,13.4921-10.5841116,20.7884157-15.8691898l5.4112111,12.1701651c.5749779,1.2937786,2.6835435.5982141,2.1019905-.7077753-1.8941397-4.2619261-3.7892187-8.5231813-5.6836938-12.7849956,11.1465657-8.0038897,23.1446399-15.9938914,36.0441168-23.9579732,2.6610229,2.8633722,4.8049683,6.1832828,6.2973838,9.8179663.5393968,1.3143535,2.6464193.615658,2.1030193-.7080883-1.5561752-3.7893305-3.75489-7.2672202-6.4855096-10.2895332,8.9168321-5.4657345,18.2535703-10.9197949,28.0361345-16.3573955l4.0573404,10.0512003c.5319496,1.3185132,2.6386366.6187666,2.1029074-.7084462-1.4027583-3.4746693-2.8056508-6.9491149-4.2077158-10.4240078,9.3114222-5.1432906,19.0095399-10.2731181,29.1241868-15.3843387l2.7529613,8.1727154c.4556214,1.3528419,2.5587077.646811,2.1018563-.7081107l-2.8541136-8.4770221c10.6181719-5.3349052,21.6778535-10.651293,33.2027954-15.9446682l1.4671442,7.866955c.1090691.5885976.5179051,1.0828863,1.1698151,1.0458068.5384799-.0306387,1.1567322-.5770354,1.0458068-1.1697927-.5398665-2.8953975-1.0801803-5.7910186-1.6204046-8.6863042,8.2657048-3.7766277,16.7516054-7.5421182,25.4916502-11.2932063.773749,3.3120384,1.35973,6.6632809,1.7533361,10.0466157.1648449,1.4138732,2.3810259,1.2959703,2.2156443-.1239859-.4233949-3.6363161-1.0639216-7.2452811-1.9088999-10.8065214,10.6948133-4.5684916,21.7407411-9.1171686,33.1589844-13.6437948.4102449,4.7778855,1.1755403,9.5190717,2.2861355,14.1895654.3297569,1.3886466,2.431166.671568,2.1027733-.7082225-1.1209498-4.7137456-1.8569484-9.5040431-2.2319253-14.3296758,8.6061741-3.3961717,17.40687-6.7809154,26.4307809-10.1514804,1.4280296-.533202,2.8586534-1.0592476,4.2914018-1.5794785l-1.0880076,9.2129536c-.070044.5946582.2397866,1.1823166.8617513,1.311312.5475821.1138103,1.2407089-.263895,1.311066-.861304.4134429-3.4987329.8260583-6.9970186,1.2395013-10.4957515,9.7448361-3.4850238,19.5703615-6.6725619,29.3959092-9.5811541-.8751473,3.6999417-1.7501604,7.3996597-2.6247262,11.0990646-.3300476,1.3936562,1.8446258,1.8379837,2.1729291.4497844.9665041-4.0879344,1.9338134-8.1762936,2.9001834-12.2640043,14.297248-4.1660965,28.5781255-7.7609498,42.5891593-10.8560352-.5853996,3.9460125-1.1707991,7.8920474-1.7561987,11.8380823-.2090585,1.4095346,1.9634233,1.8640154,2.1736.4495831.6329006-4.2673606,1.2658908-8.5349224,1.8991492-12.8023948,9.2684386-2.0159116,18.413428-3.8182247,27.3578573-5.426754-.3715999,3.2791857-.7443627,6.5583491-1.1168572,9.8376466-.1601261,1.4103173,2.0122215,1.8688013,2.1736.4495831.4040724-3.5635214.8088604-7.1278255,1.2132012-10.6914587,10.5665335-1.8690473,20.8469869-3.4736853,30.7123649-4.8479519-.0939287,3.1406856-.1870971,6.2811252-.2808916,9.4221462-.0180701.5990639.6080319,1.0777202,1.1700835,1.045941.6415779-.0361849,1.0279827-.5685595,1.0459186-1.1700387.0949575-3.2022089.19072-6.4048427.2858117-9.6067162,9.9347063-1.3582987,19.4390402-2.4870983,28.3769392-3.4245292-1.091899,2.5191235-2.1829034,5.0381575-3.2748918,7.5569232-.2384.5498408-.0555074,1.2113674.5005953,1.4870705.5169658.2560228,1.2476417.0512359,1.4868469-.5007743,1.2725105-2.9351383,2.5435002-5.8696056,3.8162344-8.8051911,10.1558861-1.036906,19.5524256-1.8285909,27.9907132-2.4366451-1.4744125,3.6030609-2.9496301,7.2065691-4.4239084,10.8094063-.2273522.5542465-.0636479,1.2070288.5005506,1.4867127.5076624.2516619,1.2588237.0563349,1.4864891-.5006624,1.6340019-3.9904945,3.2665724-7.9805417,4.8996798-11.9705889,23.5206455-1.6331297,39.1077585-1.8278305,42.1988631-2.0348986.5449655-.0367887,1.0900204-.0694402,1.6351648-.1055133-2.1059713,3.5139628-3.7724457,7.2697473-4.9977234,11.1860828-.1791355.572093.3159583,1.198441.8619078,1.3114238.6362105.1316344,1.1313938-.2880704,1.3114238-.8619749,1.3027466-4.1634128,3.1881196-8.1342941,5.5342801-11.8107759,10.8830733-.703951,21.7758078-1.3229413,32.6752962-1.8689578.346597,3.3200224.521036,6.6559008.5143716,9.9956034-.0026837,1.4307804,2.2126028,1.2987434,2.2160468-.1237399.0064856-3.3349168-.1673273-6.6654949-.5130744-9.9804407,11.9318992-.5874347,23.8720284-1.0979596,35.8170776-1.555057.0425363,2.7519996-.2815178,5.4930632-.9784241,8.1754885-.3601048,1.3863879,1.8151948,1.8278752,2.1730185.4501422.7367142-2.8380338,1.0817905-5.7763701,1.0291457-8.7075723,1.7675148-.0667788,3.5367741-.1160914,5.304602-.1806786,2.3989395-4.8199522,4.9302737-9.5482791,7.611536-14.178048-.287243-.0850726-.5705499-.1703464-.8551986-.2555756,3.033495-3.5764254,5.6953454-7.4671542,7.9244528-11.5931744.0805998-.0055239.1611996-.0111373.2417546-.0166612,4.3306059-6.6463737,8.9541352-13.1120688,13.8579747-19.4199637-8.5921966.9171916-17.1643103,1.8261979-25.671479,2.7209808l-3.0454374-7.3741871ZM168.0139688,454.4974917c-10.0667656-8.0024137,4.7558794-29.5569522-5.6412693-33.1938498,1.3084718-10.4059825,3.0919992-20.5727151,8.7669711-28.8040241,5.7233899,50.3306077,26.5161218,69.1712101,47.9227003,103.9019127-3.052907.5849746-4.7411415-1.5820503-5.5517687-5.51744-3.8408571,4.0816724-.5899394,11.6814897-1.6068967,17.1645786-7.5334857-3.459842,1.3995603-15.9596521-6.70329-19.903965-1.8611752,1.8363512-1.8978745,4.5845265-1.082193,7.7516687-7.565086-4.2984018-2.7239328-14.1872396-5.0464993-20.4618121-1.6200244-5.097847-7.3152804-1.9700207-8.3269598-8.2795928-2.9148765,2.2359731-2.0962206,6.3265912-4.4010301,8.8689508-3.9566354-2.4995103-.2231478-12.9483421-2.8263822-19.3605426-6.4326188,7.3968194-.4125707,20.9777715-2.6747544,30.4490514-4.3631231-13.1013118-2.8963591-28.7834492-2.3535853-45.3786409-5.7592841,2.6685372-2.297653,9.9119174-4.3851069,14.4026047-.5961119,9.0379554-2.2640176-8.773971-2.2496599-12.167951-4.1027617-3.2700836-3.5195985,7.3554237-3.8402756,10.5290515ZM256.1201797,666.7575861c4.9642222,1.6646852,4.5682903,12.3033649-1.0618194,13.290019,2.0438218-4.2050322-1.2227954-4.2323609-2.7937979-8.2951805.8543935-1.880274,4.2106231-2.5144047,3.8556173-4.9948385ZM256.5955485,640.7460851c2.5707619-5.3073751,10.7870423,4.716474,8.8843372,9.9334987-4.2803988-.6476609-3.7993943-10.9020603-8.8843372-9.9334987ZM264.9745045,665.6236205c-6.1348424,1.0520687-5.9020781-8.7207224-6.1292738-12.7096066,4.2659293.1038807,7.9743469,8.661592,6.1292738,12.7096066ZM269.4936388,695.498991c-5.9621701,16.7821769,5.9657483,48.4604422-19.7655096,50.9789395-3.813573,7.0632607,7.753592,8.3305827,5.0275346,14.9300592-22.1583437-11.2721171-25.4324751-72.9707386,14.7379749-65.9089986ZM278.6984519,629.6044395c.0364309-2.7471466,1.0462317-5.0042761,1.0825285-7.7511991,3.6918012-.6647022,3.0094761,7.7410906-1.0825285,7.7511991ZM283.1521938,637.3402298c.4960778,1.6288805-1.5974815,1.9730845-2.757859,2.778076-.4990746-1.6281649,1.5939256-1.9729504,2.757859-2.778076ZM279.6019567,741.9556653c-5.29711-2.4399103-3.9819738-5.1970312-5.5697717-11.0498638,6.8088928-.6100447,3.4598196,6.2592756,5.5697717,11.0498638ZM310.1212086,766.7708275c17.0589983,21.9920227-34.8103407,95.2739561-51.8742814,48.8680704-9.348278-25.4231941,22.8321928-72.9331447,51.8742814-48.8680704ZM285.9604389,651.1685499c6.2625854-.650926,3.8714734,5.1592137,2.7936861,8.2948227-5.3320426.2328538-.8072502-5.6798248-2.7936861-8.2948227ZM292.6310328,660.006795c6.1698867-.936201,3.8107105,6.426424-1.0832218,7.7514004-2.7329902-4.1216369,2.1725712-4.4515056,1.0832218-7.7514004ZM303.5290452,604.6191769c3.7596311-.2295215,4.3857108,1.4087071,3.3344695,4.4228797l-3.3169809,1.1171032c-1.3681612-2.5227912.6051693-3.3904018-.0174886-5.5399829ZM322.9444243,618.4001077c-4.2333897.1706372-6.2978758-4.0187402-10.5294987-3.8410807-.180947-5.3116914,1.8543318-2.7061535,6.0757568-3.8947096-2.7441051,5.2752828,3.5159756,2.2501072,4.453742,7.7357903ZM343.8349762,751.7190635c3.9831815.3342968,3.7461904,9.1690531,8.3306722,8.2791903,4.9951739-2.1256963-7.1933072-12.780165,1.0648609-13.2843386l3.9105433,11.6085161c6.2937161.2250711,4.0231906-10.7185638-.0368558-11.0725856,38.1635959-6.6977885,8.6984702,82.8602473-28.0067482,70.3784625-7.8349746-7.5442652-10.0861999-20.4784733-4.5017574-24.3351417,6.2679081.782292-.4801323,16.1454521,8.9190238,21.0057712,24.6947992,1.5432488,28.3694696-24.764709,29.7545827-43.266609-15.1608555,7.6762574-7.1651062,26.8440225-23.6943242,33.839073-.8246271-13.7529087-20.1234451-15.203839-12.8137333-27.0815727,3.7526536-2.0003239,1.6224844,7.8619231,6.6494376,3.2986424,3.467893-1.9642731-2.0811473-8.3995085-2.2496823-12.1679287,5.6085061,8.0833266,8.9462407-.5928244,4.400225-8.8685259,5.4736289-3.6171949,4.0967681,6.5855213,7.7654673,6.6127159,5.131639-4.5314344-1.057369-11.607711.5082885-14.9456692ZM348.4001356,617.2142576c1.1278155-3.1232417-1.06173-7.8940378,4.4000013-8.8691968-1.8220606,2.7775616.3666575,7.5493865-4.4000013,8.8691968ZM355.2410759,681.3937602c3.4088744.5502434,5.4076328,3.9499933,6.6702808,8.8377754-2.8637301.8820801-3.8820739,2.6754924-3.8619016,4.990321-4.6901963-1.0948734-2.2689153-10.2299332-2.8083792-13.8280964ZM294.4549719,890.248715c14.5195236,1.2491178,13.3750469-18.9931919,22.62631-20.5538399-.2983579-10.7582375-1.1425534-16.3128688-7.8194316-23.2178372-1.6576182.5582944-3.3178083,1.1175728-4.973794,1.6749727-3.3322778,5.7143548,1.9370338,15.6932971-2.1509005,21.037707-3.2889588-2.6573776-4.4303269-9.6297511-9.9874853-7.7213432-2.5562253,7.3843627-4.0546791,13.9684527-2.1484405,21.0445503-6.2470425,3.3057989-6.8768122-4.7106594-8.8859698-9.9407893-9.1884874,6.9209363,5.7958492,25.3263133,13.6839605,24.8761711-3.0692774,1.3620559-6.3130386,2.4899161-9.7212645,3.3451595-21.8914743-22.9492458-6.8527933-56.9614161,14.720285-71.4491157,4.0884264-.7228486-1.5245525,17.4965943,12.221893,14.3554391,6.5360522-4.9137243-3.3322555-4.972318-5.0102249-9.3968079,6.6899164-2.974812,7.2306103-10.5290962,15.4704848-8.8999249,12.7384115,28.8689915-.2942429,59.6682181-27.3187427,71.8838715,2.9504576-3.4405195-4.7446079-3.8943741-.7066794-7.038213ZM211.8017927,831.2814288c-2.263861-1.9355131-3.4799472-5.98232-8.3104104-2.7394982-14.516907-20.9018234-15.6169688-57.594764,6.9852775-66.9952395,11.5944044-4.8224793,16.9386577,1.9526439,29.8917634,1.0092417,8.0593747,25.6471917-3.8542755,41.38222-13.6552899,58.1651797.2740259-5.5107084-7.4504483-5.7198564-13.3059645-6.6035914-1.1627033-7.671382-3.9034539-9.9650319-4.4830612-18.8023824,2.5200851-1.3751164,3.3823955.6044089,5.5304782-.0219167l-3.3503926-9.9478563c3.0908586-3.7536599,1.9081843-4.5427506,7.7359245-4.4539656-2.9856361-6.0439999-6.1305038-11.778214-11.6629947-12.6951819-4.4901282,9.0796419-21.5979918,61.2682714,13.4574582,56.4128723-1.2419837,3.0715585-4.6434333,5.0658889-8.8327883,6.6723383ZM219.5732089,837.8999146c-.5144834,3.4266985-1.982388,6.3865266-4.4006946,8.8694205-.8385822,5.4975584-1.1908372-8.7676196,4.4006946-8.8694205ZM191.125935,945.3613455c-9.6578179,2.1183162-3.8105986,11.924206-4.9261811,18.2822409,4.6991867,6.848969,12.0155629-2.3637833,15.5061777,2.1644755-21.8744777,19.2932718-32.8540068-40.4946831-21.1950376-51.9655712,1.9899023-.3168976,1.4822175,1.356778.5586746,1.6601677,6.0614885,8.6594674,5.503552-6.4978993,12.7099421-6.1288041,22.7197467,3.9430829,19.4097881,39.6109033,12.3414284,53.0987541-4.0597781-1.0975347-3.8667546-10.7666464-11.0851542-5.5025679,2.5960779-4.977238-2.7410189-6.2752882-3.90985-11.608695ZM156.3621785,979.2308783c-3.0442074-1.2294822-5.902011-5.0607451-4.453742-7.7357903,1.6281649.4288964,3.2761219.8282724,5.5367625-.0163257,1.0852569,3.3020864-3.8168158,3.6303449-1.0830205,7.752116ZM155.7487121,960.9660365c-29.1874098,22.1771518-61.5828879-92.7413248-9.599023-61.4020975,13.5753834,15.003413,23.0151525,51.2097581,9.599023,61.4020975ZM129.1920668,964.3718918c-3.7374908.1692953-7.9828452-.8658439-5.5516569-5.517686,2.5955636.3433766,4.284223,2.5024847,5.5516569,5.517686ZM56.6734608,781.949261c1.2581752,10.3304593-4.3183952,19.7681485-6.5657739,24.3729368-7.7588028-15.8740875-20.982289-51.0539706-9.0760636-70.8145154,8.0270588,4.2326069,15.7883664,9.013534,26.5919133,7.666462-3.1289669,15.9564317-6.9634279,38.8976712,4.606734,57.5455632.2297452,5.3329595-5.6760453.8071608-8.2948227,2.7936637,1.6999309-6.2008609,4.1687131-24.8951805-7.261987-21.5641103ZM57.8788794,812.9405495c-2.5956978-.3431082-4.2852741-2.5021716-5.5518805-5.5178202,2.9027999-1.2104728,4.1807449.8547513,7.1937769-.5734125.1445384,2.3707608-2.0451189,3.5889716-1.6418964,6.0912326ZM34.3463585,721.1361637c7.7662053,3.5014613-1.4003206,10.2784854-4.9438039,12.742437-1.9061491-5.4380702-5.5811773-7.3115232-6.6826705-14.3649214,5.4725107-4.5785777,12.5548703,11.1396105,11.6264743,1.6224844ZM67.2960832,638.0096285c-2.8137913.6920981-.5962237-7.5019525-3.9097158-11.6089186,2.7735809.9065016,4.7655406,3.3844977,8.3094935,2.7395876,1.2743667,4.3204527-5.6755981,4.5571083-4.3997777,8.869331ZM78.9578255,650.7044302c25.2561128,23.800486,18.1510538,83.2536521-21.8806948,83.0892097-22.2822625-28.2735281-15.830187-76.3022336,21.8806948-83.0892097ZM109.9148076,638.4298253c6.084434.7387494,8.5884618,8.6879815,11.1205564,16.5746392l-11.6085608,3.909604c-2.2466855-3.7594075-4.4177136-7.4623683-9.4462546-11.5924811-6.2380298,4.5279904,1.8386099,5.4378689,3.3505939,9.9479458-11.1993447,3.441906-13.8160198-17.770486-7.2627921-21.5636854,6.738737,1.2779673,9.8512439,9.8488286,14.4416746,15.4568204,6.2695183-2.8709536-4.2978203-7.3379351-.5952173-12.7328428ZM67.8451636,815.12229c8.451214-2.1854529,13.9866347,1.5193194,22.1388646-.0689705,17.2447312,20.2458431,31.1354691,63.5201453,2.4607535,78.5881903-24.5364175-18.5341041-32.8928754-53.1061342-24.5996181-78.5192198ZM102.1405513,807.2691782c-48.4983491-.2137997-26.8931114-111.8120973,10.8758273-60.9188119,2.4954177,23.3423152,3.671517,46.0318704-10.8758273,60.9188119ZM143.2103688,666.0001404c15.4257344,23.1661541,19.1141586,63.0676102-16.9215493,75.8798451-32.6256482-15.2830746-24.7174539-78.0207937,16.9215493-75.8798451ZM125.9533151,812.1748963c3.2008447,1.9055006,4.2808237,8.0795247,8.3268479,8.2797718,2.70508,4.1015987-8.2191654,1.4456077-5.5186029,5.5485483,4.5071919,5.9965435,4.3626982-1.0716372,8.2948227-2.7936637,3.6254249,1.9727714,7.8361151,2.7711655,12.1868933,3.2820483,8.7750221,25.0753895,4.8101791,43.8380534-3.689028,60.3393611-28.4304562-.5094515-41.7767206-60.0409809-19.600933-74.6560658ZM159.1946884,823.1399559c5.1193835-.6866637-1.6738768,3.4427112.0185621,5.5330277-6.0429264.231333.7499761-3.8979523-.0185621-5.5330277ZM154.1518792,802.6778083c-6.1318903,3.0793859-6.3096616-5.8487624-11.0889784-5.5008235-4.931213.3153321-2.2257528,4.423819-5.5155614,5.5542287,3.525279,6.8087139,7.5403291,12.648307,14.9792823,11.57828-.6998808,5.608439-6.703715-1.0190371-10.5104223,1.6916115-21.5406729-23.8726993-18.7501178-63.3253998,9.7275264-75.3064998,21.3949268,8.3124232,29.8533197,33.1033428,20.0922473,54.178174-6.3683447-5.2416697,2.8106156-27.1203518-8.3937162-30.4111668-8.2613215,10.1769529,2.7070257,29.8916963-9.2903777,38.216196ZM164.1634058,640.4792381c6.0265113,4.4935946,21.9298061,21.4567632,7.2781114,27.097876-1.141055-4.1999108-2.402048-8.1568146-6.1114497-7.1778313-8.7695206,3.1792635-2.7502329,16.4892983,2.8265835,19.3606544,18.5783624-3.6568015,23.5452683-19.9461658,17.061436-31.5975984,4.044593.1936944,5.127278,6.3746961,8.3288831,8.272168,6.2469978-4.734231-5.4404855-7.7644386-5.5847779-16.5830481,22.5397613,15.5621771,3.1121939,35.5487546-20.3438421,43.7872424-11.2439385-4.5701689-17.3031011-26.7570713-6.197797-34.8482253,2.44776,4.3452767,5.339132,7.7978951,7.7860869,12.1517595,2.6677992-4.663941-4.0386889-13.9778456-5.0432341-20.4629974ZM202.9063406,640.3566164c-3.8957607.5603072-5.4934658-8.9716462,1.0830205-7.7520936,1.0888575,3.3007893-3.8160107,3.6298753-1.0830205,7.7520936ZM223.5428154,690.6618186c1.1270775,28.6504506-1.2554244,55.5595523-30.2268429,69.2771706-23.9735832-7.1885437-21.2543916-47.4672802-15.1524242-66.9262467,15.3655753-12.6226331,33.7685147-16.663536,45.3792671-2.350924ZM167.9802216,799.8689818c4.5643095,1.0253438-3.2582307,7.4851348-3.8410807,10.5294987-4.5671497-1.032053,3.2520582-7.4910389,3.8410807-10.5294987ZM183.5525072,824.1722325c-.1027178,6.8588986-10.5779391,8.5677751-11.5766698,14.9839116,9.3240355,3.6308817,10.908188-8.3552726,16.5696073-11.1263934,2.0230233,3.7673467-1.8175878,4.6246028,1.1335183,8.8540788-7.501058.8805594-8.7947248,4.8479295-9.9341919,8.8840018,9.9315306,7.2959355,15.3158378,18.9572306,11.1748785,33.179604,17.6151681,6.8651605,12.0892298-36.7993484,2.6538217-35.9885199-.1657842-2.8445194,4.7395537-3.1745223,1.0825285-7.7512214,22.2701636,7.0403152,12.0464028,46.2542131,3.505129,59.7646068-5.8677941,2.5473021-10.8806803,3.371549-15.4844399,3.3658685-17.2234854-16.8861024-30.2368843-67.5196301.8758182-74.1659368ZM243.3509507,831.7322866c1.6167592,7.8803063,8.6168193,4.913948,10.0056001,13.2535657-4.8108053.4104685-7.9075904-2.6274546-12.1873182-3.2828981-2.7796415,5.5576728,4.097685,5.8719314,5.5674682,11.0504006-7.9109003,4.2349328-1.6896882,7.264626-2.7224792,13.8501473-2.1140671,4.1766523-3.3325909.0252713-8.2948227,2.7936637,1.2791302,3.9201374,4.5016904,3.9167381,5.0107616,9.3892936-7.287795,3.3863539-10.3700659.2910896-14.9293659,5.0278701,1.8550698,10.1370109,7.0171909,5.3173495,6.6883956,14.3705571,15.193574-11.2493953,28.9922617-33.5486544,23.1021484-46.564491-1.6876531-4.0606727,2.3565373-5.2729793,2.7388943-8.3098289-4.0077148-3.0541146-5.2971995-11.6001519-11.1031796-11.0344327,6.8688059-10.9328108,9.2164647,11.0311228,18.2818607,4.9268744-8.7822904,22.8123783-.7999149,53.9403107-31.3449972,65.9561643-21.7051152-16.9331114-17.8615074-61.1142283,9.1870337-71.4268859ZM263.4270065,880.3778802c4.3581583-.7159157,2.2643083,6.3994083-1.6410018,6.0916799-.1455448-2.3710292,2.0407356-3.5883901,1.6410018-6.0916799ZM228.8721072,980.6690164c4.7147296-1.956401-5.3553235,10.595383-1.6092449,17.1569749,9.7842638-7.1199757,4.5929578-21.6639431,23.1733776-24.4194986,17.4256558,16.9982354,8.3675057,44.2242346-17.5502679,52.0822664-13.1584517-11.3577711-10.9476604-34.6921247-4.0138648-44.8197427ZM253.6638543,944.6121522c-2.0343618.384079-2.4153099-2.553072-3.3320989-4.4169756,2.6142599-1.5636448,3.5647067.2424255,4.4330329,2.196948-1.5122971.1714423-1.3476311,1.1756745-1.100934,2.2200276ZM261.958677,941.8184437c-6.5810709-3.4424875-7.4600424-18.3792559-16.6549259-16.552387-.3735456,5.5520818,3.7943177,10.3629318-2.1654595,15.5036058,3.0307219,2.5867969,8.5739028,7.4532885,6.1253601,12.7109708-5.150134,3.6737311-11.3800233-4.6068011-13.8255469,2.8155357-18.3973483-23.284795,24.5019099-64.1927644,38.0636066-40.5266636,7.9671457,13.9019423-8.7780189,26.2821051-13.1678222,37.6802656-4.5222876-1.0093312,1.7961631-8.2099961,1.6247879-11.6313273ZM320.0578159,757.88611c-19.2385024,3.8491541-20.595258-28.082987-18.4016646-43.6712181,4.1387006,6.3990952-3.3496323,39.1983773,16.1670109,37.0364513-.0447727-12.5495924-10.1536273-27.6614931-2.8975891-41.505535-.9323096-3.6912644-6.1382194,1.2331275-8.8544366,1.1336302-4.3487655-6.2983231.2314896-8.1715301-.5928691-12.7257982,4.0485514.1917264,4.2809579,8.079301,8.3311418,8.2782957,4.368647-5.4012367-6.7869984-11.3154361-3.3721081-15.4868776,3.6031727,2.0178349,5.1962261,8.0867706,7.7862882,12.151849,4.9391969-3.6328944-1.5875519-5.0715693-.0345747-11.0725185,4.3195357-1.2748363,4.5543352,5.6802274,8.8691074,4.3996435,4.3521871-3.7430147-3.7199798-5.0975115-3.3504821-9.9481694,32.7496117,4.8562265,17.745237,67.1279474-3.649824,71.4102471ZM328.5292022,634.9831557c-3.5673009.6980917-3.6415717-5.6499913-7.2120259-4.9585194.7430209-5.7054092,7.3445325-.2712527,7.2120259,4.9585194ZM318.5446466,627.2694387c-5.4619326.7866754-6.9912487-6.3333898-12.7460152-4.9430659,2.8522797-6.4618485,10.9246479.0928552,12.7460152,4.9430659ZM315.7838803,630.0398662c-1.84476,7.084663-6.3555078-3.630837-9.969527-2.1805552-3.8952687-4.0685671,7.305977,1.7549239,9.969527,2.1805552ZM314.7364856,648.8641877c2.7819673-1.380126,2.8186666-4.128279,1.0826627-7.7520042,4.8079203-.4087912,7.9044818,2.6284386,12.1872288,3.2825851-.4118998,14.2065173-8.6207554,31.459881-23.694436,33.8392967.7255546-6.5497837,9.6664727-9.0202432,11.573427-14.9827487-7.168841-.132842-14.1963864-6.7839122-13.8784824-13.7974577,7.5632075,1.4736969,12.7083319,7.803911,21.0571636,7.6899218-7.1026884-8.8952956-18.1638684-9.8061805-23.8696802-21.5167434,8.3001901-5.9666205,9.4636985,6.424031,15.5421166,13.2371506ZM303.7174393,665.5009988c.728529,4.4063974-3.1100469,9.5313272-6.6171664,7.7744353.534678-3.4188935,1.1433585-6.802765,6.6171664-7.7744353ZM294.1177231,604.0991026c-.3876572-2.0342053,2.5513053-2.4229136,4.4186082-3.3373321.3848617,2.0350775-2.5565384,2.4169425-4.4186082,3.3373321ZM259.1919395,763.6113338c1.1251319-3.1301522-1.06419-7.9008365,4.3983464-8.8764428,2.5191235,4.9381905,1.0540144,7.8965873-4.3983464,8.8764428ZM245.1211492,688.9334408c1.7092119-4.221-4.1616908-12.2006248,4.9419924-12.7494816,1.1789396,5.6528092,3.6090992,11.921008-4.9419924,12.7494816ZM236.20179,667.9265961c-5.5642925,2.7013899-.9923345,8.2780721-2.184044,9.9717411-13.4214521-6.1352897-6.9793734-19.6981045-12.849471-38.1541136,6.9889228-1.0910939,8.3514036,9.1665483,13.3230506,12.1361271,4.0944646-8.0375028-7.2256232-14.0463912-10.0396828-24.3182793,5.9266114,3.8277071,10.3955609,10.6041497,14.9981128,17.1102565,5.2651296-2.3522211-.0008498-11.6856271-3.9097158-11.6088963,13.509432-2.8292001,21.6658441,36.10072.6617502,34.8631644ZM234.9273786,614.7981426c5.7386198,3.2822049,9.2552439,11.048276,13.3380792,17.6693113-6.7904872-1.1626586-9.0914948-11.3742534-13.3380792-17.6693113ZM235.5198899,627.5240526c-.4350912,3.3702295-7.2341886-3.7633883-8.3243655-8.2735546,4.9514524-1.6296633,4.7603969,7.1061324,8.3243655,8.2735546ZM205.0537524,619.3211235c-40.9334867,20.7293748-94.0005734,10.4293305-133.9506488-2.9068478,26.6830466-10.6924874,64.3805771,13.8250996,94.6517007,1.367535,20.4840643-8.4394506,27.4525464-29.6634048,37.4867948-47.7190762,2.7703604.9076645,4.7662339,3.3842964,8.3101868,2.7393863-1.6913431,15.2834548-10.1729498,27.1957632-24.7949899,36.0580495,25.3295561,9.4520022,24.8164146-33.3826242,45.272166-35.5671154-9.3106171,15.1816316-22.7306603,28.3284988-26.9752096,46.0280686ZM108.6605685,590.8396104c-7.8549679,1.9544777-3.5395919-12.3191763-7.7880773-12.1588936.2218731-3.3579293,2.9372852-1.2513765,4.9773722-1.6762474,3.3796,5.8282546.6464532,8.6127938,2.8107051,13.8351411ZM126.9229502,590.228045c5.0595151-3.7866244,8.977103,10.4124233,1.1367611,8.8528935-2.0275185-3.7665416,1.8104984-4.6303951-1.1367611-8.8528935ZM139.6680485,595.1712003c-7.483122,3.9556067.2346429-11.6219568-5.5691231-11.0576689-.2439463-2.4201852,3.6875967-2.7748332,6.0779932-3.8885595-3.2778215,4.4028192.8017263,13.2800894-.50887,14.9462283ZM144.0679157,586.3022271c4.1471765-4.2450637,7.2535334,7.1082123,4.452087,7.728522-5.4401053,3.6060129-5.3492405-6.1635801-4.452087-7.728522ZM155.1544341,591.7962073c-3.7335547,1.0320082-3.0744659-6.7951389-5.0106498-9.3889134,6.395338-.59108,1.5774657,4.015162,5.0106498,9.3889134ZM185.2764346,489.3089729c5.2368168.1077944,1.9175771,7.1993902,3.353054,9.9547668-5.7276838-.3479164-.1219061-6.3087-3.353054-9.9547668ZM27.4942809,475.9653474c18.1175973-10.2426136,35.3899032,1.1567322,51.4888606,4.8195272,45.07997,10.2633003,94.6130557,17.7106623,123.0528377,58.2864595,4.6148521-.0212011,8.0427583,2.3486876,13.2874472,1.0633402-5.248938,7.7423429-20.9140789.5135664-27.6547839,5.6238702,9.7283539-14.8039487-19.8147998-13.1956878-26.0866663-22.610275-2.4893794,5.6702307.4514617,14.0354552-.4896594,20.4769972-7.6702862,2.4631017-12.3516935-1.085078-18.8210787-1.04858-1.3991801-9.3877952-3.1503916-16.6063961-6.179548-29.3150858-4.0639378,6.2758697-1.4024899,15.884934,1.1868117,25.4582608-13.7743334-1.0047018-23.6142388-9.9474091-34.9166367-15.9399047-3.0161406,1.2637214-5.1786257,2.9537898-5.5186253,5.5485259,28.3973127,20.7359945,62.4214477,30.1307225,104.1305396,24.0341002-77.9265519,37.2695511-126.817456-32.0992001-173.4794987-76.3972358ZM172.7045901,539.7141421c3.5592946,1.1762336,7.6799698,1.2388527,9.4277596,6.0609518-4.0407464,1.6463021-6.0132494-.8753709-9.4108748-.5204098.427644-1.6317655.8239114-3.2755404-.0168848-5.540542ZM166.0512165,536.4169086c2.6083781-1.2015943,7.0067916,9.7240823,1.1369848,8.8530277-2.9492723-4.2296773.8907797-5.0875148-1.1369848-8.8530277ZM95.3566838,584.2359518c6.2715534-2.5407047,8.6982018,13.5429556,5.0285634,14.9297237-3.954399-.7274332-6.2253271-12.1894428-5.0285634-14.9297237ZM85.3688407,576.5158387c2.1423128,2.6673967,5.9830804,12.353505,10.0375359,24.3267328-12.226321-2.0299785-10.7029538-14.4089784-10.0375359-24.3267328ZM74.8607666,578.2133543c6.6211919-1.3356887,3.9185048,18.241203,11.1362112,22.1005999-8.5451651,3.298866-11.2130762-16.949795-11.1362112-22.1005999ZM77.1450236,601.4538239c-5.698208,1.2659578-5.8225294-8.6874224-8.3449851-13.8120167,3.0120033-.9840822,5.325311,9.185267,8.3449851,13.8120167ZM61.6063511,588.2156222c3.6013836,2.0261543,5.1957789,8.0876652,7.7863105,12.1524304l-6.634655,2.23443c-3.1484012-6.1691487-1.8157763-10.1126118-1.1516555-14.3868605ZM55.075957,623.6612117c4.9454365,2.0990832,5.2401937,13.572655,8.3598795,19.3454246-4.9950845-3.2099021-9.0605878-12.579247-8.3598795-19.3454246ZM48.9802963,622.0166764c-.4279795,1.6318549-.8250743,3.2760771.0179135,5.5320884-2.2851515-.0340156-4.1218829-.9708875-4.9918194-3.8568921l4.9739058-1.6751963ZM57.3611308,646.9015919c-5.4788398.5002152-3.9164921,4.5050226-9.3955331,5.0051036-22.4000088-12.3248567.0543668-29.326402,9.3955331-5.0051036ZM22.0024924,668.0381253c4.9773275.4429634,14.2221274.3804337,7.7375794-4.4472564.9684722-5.3237008,7.8873063.5377866,9.9673354,2.1819865-2.1931461,17.3309219-9.789497,31.980917-4.2628207,53.1450699-5.5789633.1131617-6.6950601-8.7769454-14.4022469-4.3851964-6.207995-18.733233-.4785668-31.551372.9601528-46.4946036ZM40.7293964,816.8671724c-1.5722996-5.1810634-6.6716674-3.2535566-11.6272794-1.6220595-10.0611746-24.4536708-24.1202238-58.7887322-11.3112317-77.4559467,5.8534588-1.0469921,11.9125097,7.380203,10.0051529,13.2528054-4.5546259-.1041267-4.9141716-8.6549499-11.088397-5.5013603-3.7753754,8.6590649,14.2198462,8.9631703,10.0227533,18.7936157-3.0941685-1.1895401-4.0362288-6.7190343-9.9689008-2.1882708,5.3045349,7.4714928,14.3970584,10.7293433,14.4562559,20.9891324-5.3102377.4888766-5.8406442-8.6506113-11.647899-7.161036-1.2360572.7693209-1.0919661,2.2238742-2.7581721,2.7769802,1.861287,5.5355772,7.3032262,3.8459784,8.8874458,9.9325594-.8579941,1.8827341-4.2080737,2.5222097-3.8592179,4.9972762,3.5388539,3.1667396,15.2685827,16.0950884,15.522235,7.6979504,4.5539326,3.8167711,7.0587879,11.7656007,11.1240004,16.5735434-4.3807012-.4563147-10.3599798,2.3170426-14.3914003,1.1492402-1.036906-4.4072696,3.6236805,1.3198774,6.634655-2.23443ZM46.4554476,877.7332053c.6780759-5.5713148,6.8068576.8108285,7.2118022,4.9583628-4.3448294,2.2520528-3.6383736-5.6587132-7.2118022-4.9583628ZM54.8335761,902.6111655c9.9656581.9497983,6.7246476,12.6369013,8.9229598,21.0044294-4.598996-3.0120703-10.4997994-14.3711833-8.9229598-21.0044294ZM66.4453797,898.7003316c-2.5997009-2.1303481-6.4950143-39.098947-20.0052962-26.5002434-10.1320013-11.3170687-14.4378727-26.1669753-8.9737037-37.6106689l16.5860672-5.5861198c1.2931077,6.170088-1.4369305,10.3359161,2.2704137,17.706771-7.3949856.980258-9.3209269-9.0643896-18.2827777-4.9267849,7.1935532,8.1053327,20.3147466,11.6523047,22.2080812,22.0688654-3.956792,6.8860932-6.591582-12.5842118-13.8620449-8.2571394,3.0553446,13.3695901,22.0012367,18.7491561,27.2376956,36.9976722-2.6467324,1.9135069-6.6037927,3.1715255-7.1784352,6.1076478ZM73.0972997,902.0058173c9.8372664-8.2879122,14.5688138,6.7636728,26.575118,2.1268145,12.2606721,17.7390646,25.2576559,49.7256844,10.7175127,64.7224329-29.5822012-2.285241-41.78381-40.7482459-37.2926307-66.8492475ZM114.3854344,1008.1424955c-11.9160208-3.5087296-20.6345068-19.8559942-23.9028236-32.5827093,5.8215007,3.1274238,14.2538171.9862515,18.8416759,6.5876235-6.1689251,1.0856371-8.0723235,4.2814499-8.2765737,8.3256626,11.8299866.6529388,12.4081402,17.6970203,17.7914634,25.4052134-1.8215462-1.0248965-11.365196-6.4825128-4.453742-7.7357903ZM165.3857986,1033.4471604c-19.5325887,9.5241931-52.4544925-33.7954633-46.6685506-56.3114293,14.7531377-12.7242103,25.2853425,3.8307262,37.1027829,5.9756556-2.2675958,9.8558956-13.9173958-1.340005-20.4840195-.4966593-7.7736302,2.5881387-3.1973559,11.312417-5.4803158,16.6277089,2.6756937,2.5109383,9.3012466-5.8305581,6.6529935,3.2984635l6.6347892-2.2346537c2.2141906-1.5575171-1.3712475-1.9061268-1.6752858-4.9748227,1.3059446-.7850652,1.7814476.1138774,2.2140564,1.0957456,2.5220979-1.36796,3.3872932.6099105,5.5365165-.0164599-3.1036285,5.3662818-4.7764319,11.4457063-7.1438605,17.1801887,1.3220914,1.9827905,3.8026147,1.6280978,4.9930717,3.8573394,9.0854565-4.5627887-.1117528-9.8596528,3.825739-16.0631526,6.8118001-.6482871,8.6426944,23.3165518,15.5394776,13.2377768,7.6524397,2.9086146,7.7257489,14.5398972-1.0473947,18.8242991ZM183.1418821,1047.7802803c-11.7962617,1.0195291-.5394639-11.3534325-6.688418-14.3705571.8781664-6.7882284,4.7436015,3.0393097,7.7534131,1.0860396-2.5287176,3.3466355-4.9024305,6.7762861-1.0649951,13.2845175ZM187.575832,1049.976602c-1.4651762-4.4059278-3.8172407-9.2576592-2.252925-12.1667657,2.5223215-1.3678258,3.38206.6039169,5.5367625-.016281,1.4677928,5.3300522,2.1647215,10.2882808-3.2838374,12.1830467ZM197.475494,1030.0270816c-16.1777904,1.4431477-20.8000673-27.4876578-10.0703439-35.3922067-4.5740602.4199508-11.4122721-5.3551446-2.7939097-8.2949345-1.7325823-2.0765403-3.9535045-3.1779216-6.6538209-3.2980609-5.14092.7774614-6.2353014,10.569575-1.6227528,11.6237236-6.1423791,4.8792838-12.3726038-16.5213906-5.0466111-20.4615661,10.3771553,2.7650378,18.7236835,13.2329014,29.9095875,6.5496942,16.3050861,13.1151774,15.1283382,47.5841543-3.7221491,49.2733505ZM204.1435384,1038.8576335c7.7274038-2.459188,2.8961131,7.3963051,5.5697717,11.0498638-4.8307092,1.5968777-7.0756727-8.0470074-5.5697717-11.0498638ZM216.3654537,1053.2130726c-3.6205719-5.5961836-8.668413-13.1317715-2.2670367-17.7081576,1.5671559,5.1988651,3.8474545,8.947426,7.2273899,10.4915694,1.1411668-6.6742169-6.9971975-14.762061-6.1620817-23.7751029,8.9262921,7.0482768,15.8538481,25.1182836,1.2017285,30.991691ZM232.3599712,1034.8937522c4.3411617-2.251695,3.6406324,5.6648857,7.2090515,4.9586759.0672485,3.8704446-11.3709211.2753006-7.2090515-4.9586759ZM246.2242749,1043.157064c-.5091831-5.4723318-3.7342033-5.4757759-5.0132217-9.3960922,2.6436238-1.9120309,6.6043518-3.1704073,7.1786812-6.1076031,3.8715181,1.4766936,6.3105338,5.8411139,9.9854725,7.7142314.7152001-5.3736172-6.3144475-12.7456797-.6075399-18.2590718,5.4008789,3.4184239,1.6329955,10.8952393,7.2424185,16.024776-7.565332,2.6980353-9.8499245,8.0059919-18.7858107,10.0237597ZM273.2707138,1019.2739431c-12.478542-12.9540673-2.9647034-33.1037901,9.8294838-42.0941997,6.6109044-2.7831526.4958318,2.3874891,3.8945977,6.0748175,3.8069533-7.5944947,17.6925251-16.6373702,29.8390515-15.5955218,5.7194762,26.4798474-20.7595438,43.8370247-43.563133,51.614904ZM307.9453722,957.7268376c3.6713381-4.2722359,9.7436732-11.6154042,6.5844702-18.8401328,3.6930983-.2141575,4.9347017,3.8987574,7.1934414-.5739492,2.1966125-8.1721563-.5688502-16.8519302-8.3601032-19.3460955-4.670762,3.2116465,2.7813412,12.4323157-8.8182293,12.2058133-1.7021673,4.955053-.4915827,11.3480204,3.3676129,15.4888456-6.5491128.5598152-7.8487731,5.9048065-11.6093883,3.9100736-1.5086518-4.3913465-2.3711634-10.0752863-6.6692297-8.8381109-7.2216871,1.4851472-1.9886275,9.1462418-4.942216,12.7488107,2.6357964,2.1771335,4.5891335,5.7370319,8.1961305,5.9621925-26.5890731,2.6911025-.7779311-50.3774602,21.5585641-49.2290698,10.9172678,12.8934162,23.8816449,39.014769-6.5010526,46.5116225ZM320.5361367,912.8540028c9.4701393-2.9640772,13.2799776,14.5169517,10.5799966,20.4467164-5.4569901-2.926953-5.3834797-16.9894687-10.5799966-20.4467164ZM332.8630062,960.4198186c-1.870993-3.2327581-.3433095-4.7771251-.5748438-7.1938663,4.0037116.5074834,7.0150887,5.7988907.5748438,7.1938663ZM344.9978585,947.0969693c.8651953-6.3483737-2.5110725-6.2186179-4.4683904-13.2690416.375357-4.9665481,4.3188425,5.8266667,6.1113602,7.1774959,6.4906757-5.6058001-4.7046658-11.4687859-5.0473044-20.4613872,12.7163829,11.6263178,3.0744435-4.7179053,1.6250339-11.6323561,5.4761113-3.6103963,4.0991163,6.5931251,7.7682852,6.6194251,5.0127073-5.4306006-5.066761-9.7987333-1.7111352-16.0460218,5.4670539-3.5928629,4.5151311,5.7534023,6.6706834,8.8298809,7.5634535-1.3068616,1.873453-9.1982157.5059851-14.9445958l4.9771486-1.6763592c11.8301431,21.6263717-3.7359924,41.3649997-16.4316663,55.4029597ZM364.695225,873.9787403c-5.9797035,8.6428286-16.0674018,15.7520249-23.7469466,17.2259454-1.3156506-6.9213836-.7703049-5.3011132-3.9091567-11.6082924,3.5645054-.6824592,4.8015019,3.3124633,7.2090515,4.9586312,12.0628851-1.845744,12.8536083-9.2806941,14.8956186-16.0932545-3.5325025-3.424328-9.1441396,3.6206837-8.8353601,6.6657633-12.6392272-2.4396419-13.1144394,4.9723627-13.3231848-12.1359482,1.9574745.6934176,3.5294387,2.1702007,4.9950621,3.8557291,6.3472778-4.7601285-4.3867395-9.4568328-1.7078701-16.0396257,3.5069181,1.2758204,5.0574576,6.5027299,8.3245221,8.2727942,5.8524748-5.0366368-5.7843317-10.4586496-3.3676129-15.4888456,6.5427838-3.9017989,3.7972697,10.9180505,9.9867697,7.7215668,1.348794-2.0780611-.5924442-7.2181089-3.9099394-11.6090528,9.4912062-4.5638175,4.1836522,4.5655619,10.5264572,3.8424002,1.801441-2.0051545-1.1286654-13.2821022-2.251449-12.1749957,1.7531572-6.8883744,5.7870378,4.7763648,7.7683075,6.6194251,4.6671391-1.8275845.7033025-7.9397498-.5927573-12.7259994,17.5972769,5.5029705,7.1947385,35.3309742-2.0615117,48.713759ZM370.5654568,803.6620918c3.7843433,2.580043,6.378319,7.5685077,8.3449851,13.8119943-5.6793999-.7100117-8.9601288-7.9164018-8.3449851-13.8119943ZM382.2092856,810.8247828c-1.5609611-2.6154675.2415981-3.5680389,2.1989384-4.4383556-.7071938-9.4183667-10.6170537-15.0677318-5.0430105-20.4628632,4.5861591.049156,3.3994369,11.7131795,7.7865342,12.1525423,5.0373748-2.1029298.0211563-9.1985288-1.1518792-14.3869723,1.9583914.6933281,3.5274483,2.1717661,4.99542,3.8643616,2.8008873-8.7741499-10.0384081-17.5785807-7.2838366-27.1035341,4.370548-2.2982121,1.7469847,9.4815226,6.1113602,7.1774959,1.1421508-6.726817-1.0798224-12.9897155-4.4846937-18.8014878,6.7486889-.6049009,9.7602225,6.3085658,12.2224968,14.3549023,6.9860155-7.3501458-7.0837684-14.8307184-3.3882101-21.0279115,16.6426257,18.7579675.5664125,51.240844-11.9631193,68.6718224ZM358.1543869,728.4322558c1.4108541.4866179,24.8313313,7.4713139,25.4402354-6.7186988-23.9692223,5.4643703-22.1998288-23.9207148-11.7316298-34.8335545-6.4141909-2.3108701-16.0704656-11.758802-7.2475399-16.0309708,1.000967,7.2681147,5.4142973,7.6532448,6.6886193,14.3706913,6.5672723-.4012545-1.5386195-9.1763214,5.5158074-5.5552351,3.5962622-1.4365279-1.6637012-7.2701946-1.6902026-10.50709,41.3050643,3.6805968,17.1385022,102.7646595-16.9752899,59.274858ZM373.9085811,632.6331487c3.0139489-4.9535769,1.2152587-12.2908858,7.6970559-15.5255672,8.8236414,12.4184053,9.7560628,25.1955958,3.9996861,39.2855521-14.0041457,1.0045229-28.0803033-11.6821383-30.5195874-24.8156095,2.9030236-1.2103834,4.1807449.8541699,7.1944925-.5742399-1.8485395,7.9345837,5.409668,17.7694125,11.6768604,18.228299,2.7101566-4.1819078,10.0905609-6.0435974,8.8207117-12.1990146-9.2884544,3.6693477-13.7366948-1.5504053-19.9576162-9.9007802,2.7740505-5.0750357,5.3417486-10.2461695,7.7002987-15.5267525,8.0172186,4.9727429-1.1784923,13.1791831,3.3880983,21.0281128ZM363.3296133,612.1861415c-1.1167006,5.4332396-3.4370754,10.2647987-3.8256049,16.0623028-1.9907074.3173225-1.4829108-1.3565543-.5597033-1.6603914-.587636-1.598063-2.4662103-.6045878-3.8765947-.5429751.4547045-6.3602713.1701675-15.214283,8.2619029-13.8589363ZM355.3451132,714.6042488c-5.8860431-1.2564755-2.0193109-9.1643119-4.4692179-13.2686391,8.7011539-1.6008808-.7368037,7.8078918,4.4692179,13.2686391ZM323.7350133,516.5557036c-4.3613787.7170339-2.2683338-6.3978428,1.6422765-6.0913668.1442924,2.3706937-2.0459464,3.5894189-1.6422765,6.0913668ZM322.0388843,506.0428437c-2.9477068-4.2233259.8930161-5.0802242-1.1335183-8.8540788,5.0586206-3.7783945,8.9738603,10.4141901,1.1335183,8.8540788ZM328.6401723,492.7423359c-4.9712221-.5351924-5.0523139-4.6263472-5.0100907-9.3970315,4.2028181-1.9795477,5.4424088,2.0225537,7.2092751,4.9588101-1.2269551,1.2325684-2.475469,2.4571305-2.1991844,4.4382214ZM312.5416846,477.8439441c3.2138605-11.6786495,38.1873017-46.2197726,54.0398304-64.3713408,3.4181555-3.9090672,6.5350458-8.9344549,12.137782-13.3157823-7.04405,32.4233883-29.9704399,68.9418228-45.0681394,101.9748979-3.2602211-7.6265199,2.8300275-22.5212216,3.7716406-32.6674464,2.7916062.8780546,4.8047447,3.3113004,7.2090515,4.9586983,2.2071236-11.797447,4.5174793-23.5472363,8.7492141-34.3430006-4.5928459,6.934802-8.258772,14.3241742-10.9983372,22.175631-1.9583914-.6933058-3.5305792-2.1707821-4.9930717-3.8572723-2.0361957,6.8179949-3.5754637,13.8821949-3.8079597,21.5954423-4.9554779,1.6312735-4.7632371-7.1062219-8.327832-8.2725035-3.6813125,5.2451362-4.4947128,8.8557113-9.3743768,10.5447286l3.3505939,9.9479458c-8.2066639-.8727991-7.3429893-11.985528-6.6883956-14.369998ZM315.4394973,519.3495909c4.3498613-3.7419188-3.7197338-5.0973997-3.3523607-9.9549681.8566523-1.8747278,4.2099522-2.5153663,3.8611189-4.9904551,4.2434087,4.4548378,2.3265249,17.695097-1.5914208,22.6974274-7.2515654,3.3132908-7.1395889-6.2378285-7.2268308-10.4915918,4.1940067-1.9612987,3.4721645,5.9915564,8.3094935,2.7395876ZM307.5673091,479.5194536c4.435985,2.2934709-1.0587779,11.3808284.0511017,16.6050542-7.5712809-1.6507078-8.7374283.2077837-8.2764843,8.3266019-3.0679132-1.2438399-5.0628697-4.6447304-6.6684917-8.8313122,9.0136458-3.358891,9.5617422-10.9156352,14.8938743-16.1003439ZM304.4197578,535.9866257c-5.0412214-.834825-3.790471-10.041047-4.469106-13.2688627,5.0459625.8329912,3.79188,10.040063,4.469106,13.2688627ZM291.047238,507.2445721c4.2106679-1.1400039,2.3790355,5.4581754,2.2338486,6.6346326-4.2057925,1.1460869-2.3742273-5.4530094-2.2338486-6.6346326ZM295.0123718,535.4651647c-5.7934339.8838469-4.4883838-5.4625588-5.0126626-9.3960698,3.6517473.3331339,6.9384697,5.7639805,5.0126626,9.3960698ZM288.2555424,498.9569059c.9406737,5.5293153-3.1005199,8.5886631-7.160544,11.6397585,1.8196453,3.7076796,5.5549891,5.7641371,3.3522712,9.9552141-8.1773671-.0261659-1.6872729-9.0054382-5.0277583-14.930171,5.0019726-1.2033834,3.8342821-5.4613064,8.836031-6.6648016ZM283.9429171,535.4955797c-3.0539357.5853101-4.7453012-1.5807532-5.5522383-5.5165231,3.0496642-.5838117,4.7413875,1.5809992,5.5522383,5.5165231ZM276.6611827,508.400119c-.4961449,3.4359125-6.0208308,4.379337-2.1802197,9.970019-7.9944521.1369794-2.3122567-8.1494121,2.1802197-9.970019ZM290.1373595,570.3446325c-7.8775779-1.7575405-17.4083684-.1783751-20.5147253-11.5545965,7.8507412,1.812377,17.2771813.4491135,20.5147253,11.5545965ZM270.0772716,527.2397151c3.0946829,2.2945891,10.4470875,10.3244434,2.2531487,12.1668776-1.4671666-4.4131066-3.8192311-9.2647933-2.2531487-12.1668776ZM264.5796013,538.3271728c-.5067007,6.0475781-3.6182908-5.311669-4.4544129-7.735589.5090713-6.0553384,3.6167253,5.3053176,4.4544129,7.735589ZM314.509849,576.9101828c2.5639185-5.1165209-4.8680571-4.3118202-5.5669091-11.0497967,7.5710796-2.2645096,8.5138108,8.8256318,12.2219153,14.3554391,9.8567455-6.7917172.3342744-6.6513162-2.8120469-13.8277386,9.4846759-6.1324047,10.1167715,5.5960046,16.622677,5.4788174,1.0379571-1.3269668,2.1117636-2.6351478,4.4154772-3.3363704-.3561688-4.8397219-4.5081088-2.0508441-6.6495494-3.2989778,4.1225538-8.1291056,9.688792,4.4700901,14.4020232,4.385666,1.7757448-.1390369,3.3815457-4.5023836,1.6948543-5.4822838,9.9092337-.2792814,23.7271322-10.4634579,36.4406525-12.8996334-26.6559414-11.3726432-82.1380696,19.0963345-106.8381915-4.6508805,8.1234028,1.6151267,4.8526259,3.4084495,12.1716187-2.2500401.3624083,5.761431,3.5635437,5.803274,6.1095935,7.1704512,18.5285354-8.6305284,36.5312043-2.6698791,54.7712891-7.3625355,30.8418524-7.930178,64.9663121-27.0650233,103.9577555-31.3145375-.7348804,23.7908695-27.6579819,31.5285384-57.4287338,43.3436753-54.5092056,21.6427197-116.4394285,51.9313543-144.9679283,13.7370079,22.5396943,2.8619186,39.9012772,16.6360731,61.4555027,7.0017374ZM293.4396696,563.6942556c6.2354803-1.4313395,10.6711969.7725861,13.3038847,6.6036585-4.6696438,2.9109628-5.8426346-1.2180095-10.5103104,1.6913878l-2.7935743-8.2950464ZM262.0966851,629.6575764l1.6748385,4.9740176c-9.757673-1.7187166-21.1953283-14.7819873-21.6671188-25.9482556,12.3677956,1.9516375,9.5069505,26.2416039,19.9922803,20.974238ZM276.2168104,364.4977449c-.6082332-5.8297306,5.855807-8.1499489,4.3791805-14.4083522,8.3765407.6734242-1.1405183,10.9051242-4.3791805,14.4083522ZM973.4007736,42.651306c-3.100587-.9364246-6.0164922-1.8363288-8.5586059-2.4200734-30.0407746,9.02693-73.4448773,1.9124558-99.5908752,11.3799562-3.9678174-1.2939128-7.6612735-3.1234653-11.0851989-5.5025456-6.0210992-3.0069043-2.6867192,5.6767386-8.8387818,6.6668144-5.9981985,2.8088489-7.6139066-3.207129-12.1863119-3.2832336-48.2373167,11.8499352-111.5645504,6.094632-154.8862195,28.1552003-.9786925-5.4496548-3.93492-6.9188565-8.8694205-4.4006723-4.8660667.812394,4.3458134,8.6063753-.5234066,9.4121495-6.9898397,4.8042303-8.6071357-1.2119936-12.1860882-3.2825403-4.9597047,1.6850588-5.9676493,5.3312375-6.0603703,9.4277596-3.4269669-.5140137-6.3872423-1.9815829-8.8691074-4.3996435-4.5595683,1.8812804-2.7156134,6.9417572-6.0569039,9.4267085-6.4721807,3.7657589-6.1343951-6.2002123-9.988514-7.7123305-4.8825489.9078434-6.9734246,10.2092689-3.8437644,10.5225435-.8057742,5.8397944-6.2028065-2.0216815-8.3092698-2.7394758-2.2890205,14.4330421-18.7419773,5.2446218-23.7443524,17.2325651-1.2608812-4.8813189-3.2609367-8.2884266-6.6704821-8.8384687-9.2237106.950335,2.1469869,12.1203158-4.3831165,14.4097612-7.755247,5.4221694-7.1383589-6.0354345-12.7453219-4.9432895-9.3523035,2.924247,2.4179488,9.1423058-3.2840387,12.1823758-6.4283249,1.8196453-7.1280491-7.9015521-13.3022521-6.5963902-5.4275815,4.5333801-1.8712613,5.5219799.5927573,12.7260218l-11.6122732,3.9111247c-1.8589611-4.6042963-5.3678697-5.8878546-7.226719-10.4918154-7.691778,2.5750558-4.2928108,9.5465123.592064,12.7262454.2916487,4.2901942-10.2946546,3.181634-10.4899592,7.2302972-5.7663958,2.3254514-5.8977842-6.678466-12.1895323-3.2820483-1.2393447.7629919-1.0947616,2.217165-2.7607439,2.7704275-3.5383843.6284279,1.954679,4.6775607,3.3377794,4.4226337.5326877,3.9460796-7.9481139,3.4201235-11.0555666,5.564136-1.5034186-4.3853529-2.367943-10.0764939-6.6672393-8.8309544-2.8364013.4365673-2.327576,2.5267943-4.4157009,3.3356771-2.659614,1.1511412,4.0652573,6.3336358,3.9103196,11.6083595-9.7152486,5.6614864-14.9125258,2.2117082-20.4810228-.4891897-1.2360572.7693657-1.0944485,2.2176347-2.7587759,2.7781655-4.6004944,2.7590443,2.7794849,3.0085145,2.2344524,6.6340735-5.9485728,1.1914634-9.0761531,3.7854392-12.7119549,6.1227882-.6167315-6.1723915-4.2026616-6.3776481-6.6677984-8.8315135-6.1401874,4.7959556-1.6166027,7.6840177,2.2494586,12.1678169-11.1169334,2.6924443-15.7445106,1.748416-24.3366625,4.5067893-4.8135561,2.8982824-.6748555,5.1497985,1.1307005,8.8473696-5.8921261,1.6841419-10.465985,4.0207977-12.15044,7.7896651-3.8839301-1.4577066-6.4666344-5.5328264-11.0851542-5.5025456-.853991,6.0893317-1.8686671,5.6420968,2.2513148,12.175197-26.8759806,6.3613448-23.0764522,27.1899485-50.8111649,35.5767096-4.8109171,2.8976786-.6691303,5.1548751,1.1359337,8.8533408-7.5634758,3.6815361-8.3852403,8.0011389-16.5862908,5.5859856-2.2962888.9913505-6.4723372,10.055114.5743965,7.1931059,1.2776095,4.3192674-5.6749271,4.5493256-4.399979,8.8691968-4.0591966,1.6826435-5.2765352-2.3558217-8.3092698-2.7394534-2.855187,2.7274887-5.4226614,5.5983976-8.2767973,8.3255508.7655638,1.2372425,2.2199382,1.0939341,2.7756607,2.762958,2.3132854,3.5254802,7.3506378-1.8319455,7.7124647-4.1451191-.4803336,6.4084881-14.3400974,23.7318062-22.5912209,25.7708198-.579898-3.0504693,1.5823634-4.7406719,5.5181333-5.547609-8.5872541-.0844911-19.5329913,10.5462717-17.0913366,20.5304695,1.713148,3.3451147,4.3356378-4.0983783,5.5166125-5.5556824,6.3649007,5.0859941-11.7414476,24.455281-11.5770947,14.9831065-10.1312186,14.0762471-26.1196308,31.8681802-18.1083833,50.421562-17.2095973,6.7505675-27.1046523,36.2196964-24.7445144,52.6566629-7.1738058,6.9101121-11.1605208,19.3292778-6.5628443,24.3788633-7.2863637,8.3085542-12.93924,27.1134637-4.8546611,40.4195401,2.7005848,4.1023591-8.2226318,1.4466364-5.5177978,5.5480786.342728,5.8061142,4.2983347,4.3308072,7.2083582,4.9588996-1.116231,4.0512574-.5024963,8.9617613-1.06419,13.2840926-5.2830207-.14427-7.4975021.6015016-11.6122732,3.9111247,2.9255441,3.3883667,5.6547101,7.1732915,12.1855962,3.2834572,2.6463969,5.4586898,2.4775936,9.5208832,2.8151108,13.833419-4.9555673,2.2924645-9.2213177-1.1705307-11.612631,3.9112365,2.0832048,6.008553,7.3292131,5.6399722,13.846256,2.7232843.2044739,5.1468465,3.7811005,3.5060012,4.4485088,7.7298191-5.5346155,9.2365252-20.1304226,6.0963987-30.4126428,8.4019462,10.1165255-87.0849821,27.1432749-170.7410963,65.6558831-243.7403937,66.1331752-98.9845206,179.2187893-189.5021725,321.4122646-230.1398955,48.4253978-13.8369302,96.9147342-32.6480569,142.6816362-36.9698514,74.2378593-7.0199416,153.4545669-13.3728328,232.7096958-18.8205419-2.2011077,3.9717758-4.8085689,7.7181898-7.7703203,11.159425Z"/>
  <path d="M335.129193,265.2389748c4.6047883-9.2308448,11.834191-17.151697,17.0766658-26.0637432-6.0228659,7.8222271-22.7396059,16.9697436-17.0766658,26.0637432Z"/>
</svg>