<?xml version="1.0" encoding="utf-8"?>
<!-- Generator: Adobe Illustrator 27.2.0, SVG Export Plug-In . SVG Version: 6.00 Build 0)  -->
<svg version="1.1" id="rosemary" xmlns="http://www.w3.org/2000/svg" xmlns:xlink="http://www.w3.org/1999/xlink" x="0px" y="0px"
	 viewBox="0 0 500 2016.0859375" enable-background="new 0 0 500 2016.0859375" xml:space="preserve">
<g id="outline">
	<path d="M382.0594482,1708.4334717C382.90802,1707.9592285,380.7769165,1709.1123047,382.0594482,1708.4334717
		L382.0594482,1708.4334717z"/>
	<path d="M314.5601501,1735.2312012C313.2779236,1735.9125977,315.387207,1734.7999268,314.5601501,1735.2312012
		L314.5601501,1735.2312012z"/>
	<path d="M257.3684692,1686.2077637c10.3100891-11.204834,8.6827087-22.1989746,15.6793518-34.5916748
		C260.7897949,1653.6959229,257.8184204,1675.7762451,257.3684692,1686.2077637z"/>
	<path d="M295.1174011,1569.5986328C293.8539124,1570.3341064,295.9469299,1569.1677246,295.1174011,1569.5986328
		L295.1174011,1569.5986328z"/>
	<path d="M158.5750427,1994.5137939C158.7852631,1994.4060059,158.7300873,1994.4301758,158.5750427,1994.5137939
		L158.5750427,1994.5137939z"/>
	<path d="M158.3960114,1994.6105957c0.063446-0.0350342,0.1252441-0.0700684,0.1790314-0.0968018
		c-0.0187531,0.0080566-0.0201263,0.0107422-0.0444031,0.0214844
		C158.4147644,1994.5703125,158.4740753,1994.5513916,158.3960114,1994.6105957z"/>
	<path d="M158.5604248,1973.1499023c-0.1130981,0.0378418-0.0565491,0.0214844-0.1321411,0.0755615
		C158.7300873,1973.0933838,158.9347839,1972.9614258,158.5604248,1973.1499023z"/>
	<path d="M159.7268066,1746.4516602C158.4445648,1747.1304932,160.5566254,1746.0151367,159.7268066,1746.4516602
		L159.7268066,1746.4516602z"/>
	<path d="M162.5285339,1721.1223145c0.1106415-0.0644531,0.2074585-0.1130371,0.2667694-0.1453857
		c-0.030899,0.0159912-0.0645447,0.0323486-0.1373749,0.0700684
		C162.5853729,1721.1036377,162.604126,1721.0686035,162.5285339,1721.1223145z"/>
	<path d="M162.7953033,1720.9769287C162.8560028,1720.9471436,162.8493805,1720.9499512,162.7953033,1720.9769287
		L162.7953033,1720.9769287z"/>
	<path d="M159.2876129,1726.5751953c-0.078064,0.0565186-0.0215149,0.0374756-0.096817,0.0941162
		C159.45755,1726.5186768,159.6622467,1726.3864746,159.2876129,1726.5751953z"/>
	<polygon points="157.930069,1731.0823975 157.930069,1731.0823975 157.9311676,1731.0823975 	"/>
	<path d="M157.9311676,1731.0823975C158.2114563,1730.9637451,158.0942078,1730.9987793,157.9311676,1731.0823975
		L157.9311676,1731.0823975z"/>
	<path d="M157.930069,1731.0823975c-0.0433197,0.0214844-0.0891113,0.0457764-0.1321411,0.0725098
		C157.8544769,1731.138916,157.8384705,1731.1763916,157.930069,1731.0823975z"/>
	<path d="M161.3326416,1704.1715088C162.1056366,1703.7565918,159.9963379,1704.8692627,161.3326416,1704.1715088
		L161.3326416,1704.1715088z"/>
	<path d="M203.200592,1547.720459c0.3771057-0.1914062,0.1293793-0.0755615-0.1131134,0.0375977
		C203.1440277,1547.7364502,203.1440277,1547.7364502,203.200592,1547.720459z"/>
	<path d="M202.2767029,1550.6973877C200.996933,1551.3763428,203.1062317,1550.2634277,202.2767029,1550.6973877
		L202.2767029,1550.6973877z"/>
	<path d="M293.527832,1166.0393066c-11.5142517,18.9931641-30.0951843,55.0526123-35.9682007,84.2641602
		c12.6243591-26.7813721,25.7576904-52.7895508,38.0049438-80.3227539
		C295.99823,1168.0733643,296.2434998,1166.2655029,293.527832,1166.0393066z"/>
	<path d="M243.8403625,1283.8928223c0.0267487-0.0134277,0.0281372-0.0134277,0.0496521-0.0241699
		c-0.0510406,0.0214844-0.1075897,0.0457764-0.1630402,0.0644531
		C243.7460022,1283.8956299,243.7837982,1283.9116211,243.8403625,1283.8928223z"/>
	<path d="M243.8900146,1283.8686523C244.0287781,1283.8065186,244.088089,1283.7714844,243.8900146,1283.8686523
		L243.8900146,1283.8686523z"/>
	<path d="M191.1340332,1448.5527344C189.8515167,1449.2315674,191.9663391,1448.1190186,191.1340332,1448.5527344
		L191.1340332,1448.5527344z"/>
	<path d="M192.9040222,1437.5582275C191.6027527,1438.27771,193.771347,1437.1433105,192.9040222,1437.5582275
		L192.9040222,1437.5582275z"/>
	<path d="M192.319458,1434.1072998C191.0344543,1434.7886963,193.1274719,1433.7111816,192.319458,1434.1072998
		L192.319458,1434.1072998z"/>
	<path d="M205.1402283,1382.1149902c-0.0187531,0.0377197-0.0375214,0.0753174-0.0375214,0.0753174
		C205.3101654,1382.0584717,205.4985809,1381.9641113,205.1402283,1382.1149902z"/>
	<path d="M191.4626007,1415.7231445c-0.0496521,0.0294189-0.0593109,0.0350342-0.0711823,0.0457764
		c0.0590363-0.0323486,0.1117401-0.0566406,0.1575317-0.0753174
		C191.5191498,1415.7043457,191.5097656,1415.7067871,191.4626007,1415.7231445z"/>
	<path d="M191.5489502,1415.6936035C191.6915741,1415.6422119,191.6634369,1415.6450195,191.5489502,1415.6936035
		L191.5489502,1415.6936035z"/>
	<path d="M191.3914185,1415.7689209c-0.0217896,0.0107422-0.0391693,0.0162354-0.0606842,0.029541
		C191.3671417,1415.7875977,191.3723907,1415.7823486,191.3914185,1415.7689209z"/>
	<path d="M175.920639,1455.328125C176.6939087,1454.9134521,174.6006012,1455.9882812,175.920639,1455.328125
		L175.920639,1455.328125z"/>
	<path d="M184.6899872,1400.5100098c0.3556061-0.2480469,0.1103516-0.1348877-0.153656,0.0159912
		C184.6331635,1400.526001,184.5741272,1400.5446777,184.6899872,1400.5100098z"/>
	<path d="M183.8709412,1387.0422363C182.5911713,1387.7211914,184.738266,1386.6273193,183.8709412,1387.0422363
		L183.8709412,1387.0422363z"/>
	<path d="M189.3047485,1337.7683105C190.1155243,1337.2780762,188.0034637,1338.3907471,189.3047485,1337.7683105
		L189.3047485,1337.7683105z"/>
	<path d="M187.4216614,1343.7086182c-0.075592,0.0565186-0.0187683,0.0378418-0.075592,0.0565186
		C187.6291046,1343.673584,187.8175354,1343.5767822,187.4216614,1343.7086182z"/>
	<path d="M253.8392639,1124.1495361C252.5528717,1124.8312988,254.6663208,1123.7186279,253.8392639,1124.1495361
		L253.8392639,1124.1495361z"/>
	<path d="M246.3000183,1143.1992188C247.1107941,1142.7089844,245.0365295,1143.840332,246.3000183,1143.1992188
		L246.3000183,1143.1992188z"/>
	<path d="M243.0428162,1153.6844482c0.030899-0.0162354,0.0350342-0.019043,0.0579376-0.0322266
		c-0.0513153,0.0240479-0.1103516,0.0483398-0.1737976,0.0698242
		C243.0240631,1153.7247314,242.9269562,1153.7220459,243.0428162,1153.6844482z"/>
	<path d="M243.1007538,1153.6522217C243.2624054,1153.5793457,243.313446,1153.536377,243.1007538,1153.6522217
		L243.1007538,1153.6522217z"/>
	<path d="M237.0324402,1173.1678467C235.7311554,1173.8842773,237.8432159,1172.7716064,237.0324402,1173.1678467
		L237.0324402,1173.1678467z"/>
	<path d="M187.0175018,1323.8509521c-0.0565491,0.0214844-0.0187531,0.0402832-0.0565491,0.0214844
		C187.1684113,1323.8347168,187.3758698,1323.7000732,187.0175018,1323.8509521z"/>
	<path d="M319.4714661,731.6088257c0.2532349-0.1318359,0.4714661-0.2827759,0.1426086-0.0943604
		C319.4902039,731.5712891,319.5360107,731.5712891,319.4714661,731.6088257z"/>
	<path d="M316.3436584,742.0198975c-0.0162964,0.0082397-0.0107727,0.0110474-0.0215149,0.0162354
		c0.0134888-0.0065918,0.0270081-0.017334,0.0377808-0.024231
		C316.3516541,742.0159912,316.3516541,742.0159912,316.3436584,742.0198975z"/>
	<path d="M316.3599243,742.0119019C316.6021423,741.9081421,316.5160522,741.9244385,316.3599243,742.0119019
		L316.3599243,742.0119019z"/>
	<path d="M316.3221436,742.0361328c-0.0378113,0.024292-0.0780945,0.0471802-0.1186523,0.0767212
		C316.2923279,742.0968628,316.2600708,742.0767212,316.3221436,742.0361328z"/>
	<path d="M324.5847168,710.0537109C325.3739624,709.6013184,323.2917175,710.751709,324.5847168,710.0537109
		L324.5847168,710.0537109z"/>
	<path d="M366.3505859,570.0257568C367.1533508,569.5543213,365.0410156,570.6668701,366.3505859,570.0257568
		L366.3505859,570.0257568z"/>
	<path d="M337.5053406,663.0576782c-0.0295105,1.2811279-0.8676147,2.9606323,0.573822,3.4685059
		C338.1086731,665.2453003,338.9655151,663.52771,337.5053406,663.0576782z"/>
	<path d="M325.4117737,702.0766602c-0.0402832,1.3013306-0.829834,2.9796753,0.5657959,3.4889526
		C326.0046082,704.2833862,326.8531799,702.5845337,325.4117737,702.0766602z"/>
	<path d="M418.399231,359.1293335c0.0485535,0,0.0377808,0.0187378,0.0943298-0.0014038
		C418.8897095,358.9017334,418.6282043,359.0526428,418.399231,359.1293335z"/>
	<path d="M86.5432205,1414.4974365C87.370285,1414.0609131,85.2582245,1415.173584,86.5432205,1414.4974365L86.5432205,1414.4974365
		z"/>
	<path d="M88.0464401,1398.6536865c0.2640076-0.151001,0.5820847-0.3178711,0.14814-0.1103516
		C88.1005096,1398.6373291,88.0814743,1398.5808105,88.0464401,1398.6536865z"/>
	<path d="M410.4411926,331.9395752C409.1992493,332.6375427,411.3085327,331.5235901,410.4411926,331.9395752
		L410.4411926,331.9395752z"/>
	<path d="M337.4432678,567.6022339C336.198822,568.3002319,338.3188782,567.1699829,337.4432678,567.6022339
		L337.4432678,567.6022339z"/>
	<path d="M82.9494705,1383.7611084C83.7387314,1383.3056641,81.6294327,1384.4210205,82.9494705,1383.7611084
		L82.9494705,1383.7611084z"/>
	<path d="M412.1355896,316.0045166c-0.0322571,0.0281372-0.0350342,0.0350342-0.0402832,0.0430298
		c0.0860901-0.0620728,0.1669006-0.1117249,0.2074585-0.1359863
		C412.2729797,315.9289246,412.2247009,315.9559631,412.1355896,316.0045166z"/>
	<path d="M412.0953064,316.0475464c-0.0162659,0.012146-0.0297852,0.0201416-0.0457764,0.0322876
		C412.0845642,316.067688,412.0845642,316.0638428,412.0953064,316.0475464z"/>
	<path d="M412.3027649,315.9115601C412.3430481,315.8886719,412.3377991,315.8927917,412.3027649,315.9115601
		L412.3027649,315.9115601z"/>
	<path d="M345.5847473,504.3152161C344.2567139,504.9955139,346.4065552,503.9003296,345.5847473,504.3152161
		L345.5847473,504.3152161z"/>
	<path d="M349.1569824,439.6165771c-0.4579468-16.0658569,1.1666565-31.8693237,1.0292664-45.7489014
		c-0.1265869-12.1057129-1.452179-26.4379883-5.2616577-36.1648865
		c-1.4088745,45.8418579-1.2767334,101.8092346,3.8823242,136.1083984
		C353.4837341,472.1794128,349.7255554,458.5663452,349.1569824,439.6165771z"/>
	<path d="M331.5435181,522.9891357C330.2530212,523.6868286,332.3543091,522.5916138,331.5435181,522.9891357
		L331.5435181,522.9891357z"/>
	<path d="M397.9489746,303.355896C391.488678,303.2643127,403.3154907,306.956543,397.9489746,303.355896L397.9489746,303.355896z"
		/>
	<path d="M399.2284851,293.9078979C403.9486084,284.8356323,395.6912842,289.1946716,399.2284851,293.9078979
		L399.2284851,293.9078979z"/>
	<path d="M399.8643494,281.030304c0.0565491-0.0215149,0.0458069-0.0011292,0.1130981-0.0389099
		C400.3250427,280.7651672,400.0798035,280.8769226,399.8643494,281.030304z"/>
	<path d="M297.792511,477.9892273c6.5383911,7.4826965,5.2020569,19.0237122,11.4656982,26.583374
		C314.0726929,496.8217773,303.412262,480.2306824,297.792511,477.9892273z"/>
	<path d="M199.2915039,779.791687c-11.3931427,14.9764404-5.2669067,40.9225464-0.819046,55.7047729
		C196.8641357,815.6981201,202.0987549,796.819519,199.2915039,779.791687z"/>
	<path d="M292.8704224,504.4459839C287.2236633,505.0898743,297.5877991,510.0078125,292.8704224,504.4459839
		L292.8704224,504.4459839z"/>
	<path d="M393.7003174,173.734848c-0.1051025,0.0187531-0.0295105,0.0565491-0.0752869,0.0551758
		C393.8699646,173.6782837,394.0774536,173.5447693,393.7003174,173.734848z"/>
	<path d="M349.3942261,242.311676c-0.0107422,0-0.0135193,0-0.0513,0.0201416
		C349.3616943,242.3265839,349.3752136,242.3182983,349.3942261,242.311676z"/>
	<path d="M349.4560242,242.2954102c0.0485535-0.0295258,0.0620728-0.0375214,0.0891113-0.0524292
		c-0.0405579,0.0215302-0.0915833,0.0444183-0.1509094,0.0686951
		C349.3994751,242.3103027,349.4074707,242.311676,349.4560242,242.2954102z"/>
	<path d="M349.5451355,242.242981C349.6259766,242.1999512,349.6419678,242.1864319,349.5451355,242.242981L349.5451355,242.242981z
		"/>
	<path d="M469.1578979,588.6966553c-0.1401367,0.2816772-0.075592,0.5266113-0.1616516,0.7919922
		c0.4066162-0.1508789,0.8295593-0.3406982,1.2284546-0.4714355
		C469.890625,588.9217529,469.5267334,588.8097534,469.1578979,588.6966553z"/>
	<path d="M418.2726135,46.5169029c0.0297852-0.0579338,0.0107422-0.0204163,0.0675964-0.0391884
		C418.6499939,46.2796555,418.4800415,46.3833809,418.2726135,46.5169029z"/>
	<path d="M328.4990234,309.8109741c-0.0347595,0.0739136-0.0267639,0.0565491-0.0940552,0.0940552
		C328.6311646,309.7353821,328.8306274,309.6208801,328.4990234,309.8109741z"/>
	<path d="M301.9385376,299.9574585C302.7655945,299.5237732,300.6643066,300.6173096,301.9385376,299.9574585
		L301.9385376,299.9574585z"/>
	<path d="M398.2720337,833.2415161C396.9925537,833.9204102,399.1018372,832.8064575,398.2720337,833.2415161
		L398.2720337,833.2415161z"/>
	<path d="M245.437912,1648.0976562c0.2733917-0.3284912,0.5467834-0.6601562,0.848587-1.0479736
		C246.0398712,1647.354248,245.743576,1647.7150879,245.437912,1648.0976562z"/>
	<path d="M378.8778381,364.9308777C379.6778564,364.4607849,377.6060791,365.5910339,378.8778381,364.9308777
		L378.8778381,364.9308777z"/>
	<path d="M145.7341309,1908.3447266C149.7507935,1912.6607666,139.6994781,1901.7442627,145.7341309,1908.3447266
		L145.7341309,1908.3447266z"/>
	<path d="M363.5540771,579.0210571c3.5857544-20.9514771,6.2744141-43.598999,5.5496826-65.7373047
		c15.5041504-16.1278992,31.8569031-33.6715698,43.6839905-50.6480408
		c5.7571411-8.3163757,10.7059631-18.124115,16.8106995-27.7067261
		c21.2963257-33.66745,55.4164429-93.8522949,43.9021912-131.1838379
		c-28.1392822,16.6992188-40.332428,43.5545959-60.6590881,68.3963928
		c0.9859619-11.503479,7.0476379-13.4472656,4.5099182-19.9696655
		c28.7238464-39.0068665,59.9691467-92.1198425,58.6706238-141.4128113
		c-17.4868469,6.5127411-25.9839172,30.1247101-39.8474731,43.6313019
		c25.9571533-49.4154663,67.6959839-167.6839142,54.0235901-195.5106354
		c-31.2480469,23.7708778-44.939209,67.598877-62.8707275,107.1677246
		C433.0495911,104.0239105,435.7059326,43.6045418,406.3974915,0c-10.377655,13.9755678-15.2536621,38.0763855-16.727356,54.0006866
		c-3.0147095,32.220787,0.9023743,71.6009369,5.0969849,100.3289185
		c1.4924622,10.1255341,7.6269531,22.5694733-1.3092957,30.8320465
		C391.62854,158.0635071,362.8238525,73.0194473,348.14151,65.8492966
		c-18.731842,31.0353622,11.0427856,146.7793274,23.7344666,178.4558105
		c4.1165161,10.3506317,13.8202515,21.0204468,9.6391602,32.5992737
		c-5.9458008-15.0823669-32.0535889-72.3617706-54.0371094-57.1850739
		c-0.6113281,27.5991211,34.0015259,58.9834747,11.7973022,81.9217682
		c-3.0389709-7.5028381-2.9391174-18.1765137-6.554657-26.6978455
		c-8.3704529-19.9492798-30.8681946-52.7049561-49.338501-53.1427612
		c-7.4680786,21.3677826,0.242218,46.3604736,6.8967285,67.9492493
		c8.3729248,27.1613159,25.3265076,57.006012,36.0084839,80.2527466
		c2.7371826,34.1496277,0.544281,75.9935913,4.8842773,111.7460327
		c2.2306824,18.8383484,13.4621582,43.0644226,0.1886902,57.6471863
		c-5.8948059-57.1743469-29.1227417-105.2129211-64.7110901-146.7255554
		c-15.7747803,26.7640686,28.8830261,146.9249573,33.1584778,158.3691711
		c5.8997498,15.6511841,12.1123352,50.0998535,10.2965698,62.4129639
		c-4.8034668,31.9850464-13.2252197,60.7265015-18.367981,96.3120728c1.3227844-9.9208374-5.353241-15.6119995-3.5076904-25.8156128
		c-10.1564026-29.2990723-18.5483704-59.7701416-26.6170349-83.9033813
		c-2.9258728-8.7677612-2.0072021-22.8737183-13.0218658-27.0575562
		c-20.0408478,49.921875-7.1822815,93.3458252,3.8150024,131.1499023
		c10.0579376,46.4802246,22.1813202,99.2944336,27.4992523,149.9813843
		c0.1509094,1.4899292,0.1994629,4.1286621,0.1346436,5.0150146c-1.853302,14.9356079-9.3804321,32.3619995-13.381073,48.486084
		c-4.9518738,20.0099487-7.8504333,40.5263672-15.7105255,55.973999
		c-1.848053-25.2688599-5.1455231-50.7435303-11.5277557-74.2937012
		c-6.4388123-23.7209473-20.4665222-126.4110107-49.0827789-133.6606445
		c-16.9237976,56.6151123-0.6598816,108.7879028,11.3581085,159.8293457
		c5.5711975,23.6644287,11.5010223,50.6640625,15.5905151,77.2058105
		c3.9871368,26.1698608,12.8585663,55.7748413,11.1128693,80.7782593
		c-1.5195007,22.0075684-10.0540771,42.5819092-15.0059509,64.4763184
		c-4.9703522-33.8262939-8.0388489-68.6358643-18.5321045-99.5206299
		c-3.9468689-22.3818359-9.7255249-41.7628174-16.7461395-62.8061523
		c-5.1242828-15.4153442-7.7050323-38.6447144-24.7342072-42.2047729
		c-8.9144592,23.8867188,0.3153229,48.8132324,4.0006561,72.0064087
		c10.9972839,69.2207031,23.7695007,140.4564209,23.9637146,214.6962891
		c-3.9413452-3.1468506-4.9976501-1.977417-9.483017-1.2932129c-20.9355011,46.5234375-17.6758118,96.7025146-14.94664,138.5059814
		c-17.6054535-39.3840332-41.6444778-81.6536865-69.075325-116.8513184
		c-8.1682281-10.4447021-19.5263443-27.430542-35.8738403-27.5384521
		c-4.9893837,29.041626,95.8352585,234.2496338,116.9456406,264.9239502
		c3.5319672,10.4824219-3.0494537,62.34021-4.2914276,77.6531982
		c-3.6613464-15.2161865-48.7621994-159.8754883-77.6234283-190.2236328
		c-23.1932068,6.894043-11.2234879,45.8658447-7.0666809,65.284668
		c11.2935562,52.5904541,35.8848724,107.2498779,44.9689941,152.0894775
		c-15.6578217,30.5906982-8.0280914,68.6226807-2.8530426,99.4908447
		c4.7444077,28.1500244,9.8819275,54.6622314,13.1363678,79.7625732
		c-37.3207779-57.296875-61.8174744-121.2884521-89.8814392-182.4890137
		c-8.982048-19.6665039-16.250391-44.7425537-36.5271034-57.3724365c-1.1666541,1.6811523-2.8273907,2.4544678-5.3921528,1.5493164
		c-10.6483021,17.5408936,6.7177076,66.4699707,12.7763624,86.2280273
		c5.8718891,19.1950684,8.9133549,32.0754395,16.4230862,47.8946533
		c40.0427895,84.3883057,106.9790192,164.9616699,108.9401703,168.6767578
		c7.3602142,16.2126465,8.1952667,35.8603516,5.204834,57.512207
		c-20.7547836-33.9366455-48.4926682-83.2376709-74.6222382-120.1889648
		c-13.278717-18.7021484-40.6543884-53.8216553-60.9189644-35.9980469
		c4.3482609,36.2078857,42.2817497,69.6276855,59.6367226,93.1925049
		c5.2075958,7.0313721,69.2367096,85.4925537,75.8426971,105.7626953
		c7.4570312,23.001709-4.8089752,53.1209717-3.7609406,81.1228027c9.6554413,1.8077393,21.3501282,10.1970215,25.515213,7.8934326
		c10.6847076-23.7452393-1.1663818-45.2194824,6.5196381-68.7166748
		c2.2601929-7.0718994,10.5903625-20.633667,15.3022156-28.1798096
		c21.9402161-35.2327881,45.1251373-58.3393555,68.7048492-88.935791
		c37.1157837-48.3417969,97.1848145-73.9512939,121.6439819-121.8757324
		c-24.973938-17.9450684-40.8066711,1.0130615-64.2611389,16.2559814
		c-60.5914917,39.3034668-110.3330383,109.5263672-142.7047119,184.512207
		c-0.196701-22.9101562,2.0232239-36.3210449,5.1833191-59.2526855c3.9416199-2.1339111,7.8264313-4.2459717,11.7677917-6.2827148
		c43.95047-61.564209,82.9587402-150.1118164,103.5629272-227.8674316
		c4.3104553-16.2746582,16.6465149-62.1029053,8.2302856-79.6923828c-5.9593506,3.8122559-9.916687,11.449707-15.0625,16.7515869
		c-3.906311-3.2246094-48.5048065,44.7265625-62.7319794,64.4360352
		c14.1733704-61.6853027,36.3061371-140.612793,47.1039581-215.7225342
		c12.6486206-9.755249,92.1524048-118.5108643,87.8929749-166.8771973
		c-21.5332947,3.1950684-38.667572,24.6585693-55.1979675,45.3865967
		c-38.2259216,48.0240479-70.4505615,110.0759277-100.8878326,166.1873779
		c21.5953674-100.7813721,80.0817108-187.2789307,108.9779816-277.2006836
		c4.3507385-13.5214844,9.5233154-50.3892822,4.3750305-51.0279541
		c-59.196167,48.5197754-98.2422333,183.1544189-103.6087341,201.2611084
		c-2.766983,9.5046387-1.6516418,22.5518799-11.9076538,22.6138916
		c1.6621246-40.6019287,18.8259125-84.770874,33.5193024-129.4676514
		c11.5843201-35.1706543,21.0822601-53.4282227,38.1784515-75.3847656
		c41.6958008-53.4577637,85.8159485-108.4672852,103.9954834-181.6577759
		c-28.9017639-13.8500366-43.848114,30.7886963-58.2046814,44.5231934
		c-0.2587585-14.7634888,11.0885925-31.8155518,0.0430603-42.7303467
		c-8.2250671-3.7311401-13.8771057,10.0366821-17.1853027,7.7938843
		c22.384613-20.6565552,109.3269348-119.1211548,112.48703-156.0065918
		c-21.7490234-13.078186-36.2592468,10.4973755-48.212677,22.9087524
		c-14.1733704,14.6947632-27.3497314,31.3520508-39.8287048,43.593811
		c13.4864502-40.3972778,25.2296753-82.7731323,32.7622986-116.5296631
		c47.4178772-44.2550659,105.2697144-100.6196899,123.6536865-170.6243896
		c-3.4618835-0.9037476-7.6672363-0.4121704-12.3034973,1.1368408c1.6836243,0.4877319,3.2596741,1.0170898,4.9002686,1.5060425
		c-1.5733032,0.9819946-2.6671143,2.8853149-3.3835449,5.5443726c-1.6408691-1.809082-3.534729-3.486084-2.7451782-6.5789795
		c-1.5652771,0.583374-3.1763611,1.2649536-4.7981873,2.0570068c0.7166748-0.3017578,1.5462341-0.4539185,2.5189514-0.3218994
		c-5.1160278,10.4299316-10.6171265,27.3848877-17.5249023,40.6436157
		c-3.6530762-11.3701782,15.2671814-24.5197754,8.7287903-33.5125122c1.9423828-1.9989624,3.3189697-5.1294556,5.5902405-6.4697266
		c-42.5148621,21.5119019-115.6578979,116.5953369-140.429657,165.4248657
		c12.6296082-45.2799072,20.6121826-81.3573608,32.0508423-129.9174194
		c29.5671997-25.6930542,125.7608032-152.9554443,140.1763916-186.9031677
		c3.6908569-8.6195374,8.1307068-15.6161499,0.5362854-22.8737488
		C448.6075134,439.8077393,372.9778137,565.5360107,363.5540771,579.0210571z M470.1896667,218.8506012
		c2.5377197,0.4902191,0.0242615,10.7114716-3.7987366,7.0355072
		C466.4557495,221.2294312,469.6723938,222.6236725,470.1896667,218.8506012z M297.690155,287.1350098
		C300.3975525,292.9420776,294.3684082,281.6123657,297.690155,287.1350098L297.690155,287.1350098z M300.3222351,294.508728
		C303.0136108,300.3522034,297.0407715,289.003479,300.3222351,294.508728L300.3222351,294.508728z M301.9385376,299.9574585
		C300.6643066,300.6173096,302.7655945,299.5237732,301.9385376,299.9574585L301.9385376,299.9574585z M320.4924622,330.3676758
		C321.7399292,334.1945496,316.1604614,317.2451172,320.4924622,330.3676758L320.4924622,330.3676758z M328.4049683,309.9050293
		c-0.1293945,0.0742188-0.2910461,0.1134033-0.2910461,0.1134033S328.2755737,309.979248,328.4049683,309.9050293
		c0.0672913-0.0375061,0.0592957-0.0201416,0.0940552-0.0940552
		C328.8306274,309.6208801,328.6311646,309.7353821,328.4049683,309.9050293z M305.5916138,261.5996704
		c1.0452881,23.4770813,19.1169739,42.4985962,21.8298645,67.6339111
		c-6.6004639-6.974823-9.6069031-26.7168884-16.2101135-37.9348755c-5.6627808,9.306488,4.6365356,21.0041809,7.128479,30.1680298
		c-13.2519531-15.6456604-18.8339233-46.1731567-22.4169006-71.0822754
		c-9.2110291,6.2622375,0.4309082,22.7214661,1.6621094,31.7719421
		c-7.775116-11.4226685-12.9286499-35.0683136-10.6469116-55.9632568
		c27.134552,20.4598999,38.32547,49.3360291,44.0125427,81.0690613
		C321.0177002,292.8033142,315.9665222,275.8337402,305.5916138,261.5996704z M144.9959106,1899.9124756
		c0.078064-0.024292,0.1481323-0.0593262,0.2019348-0.0863037c0.0984802-0.0565186,0.0821991-0.0430908,0,0
		c-0.0267487,0.0135498-0.0402832,0.0214844-0.0888367,0.0512695
		C144.9959106,1899.9124756,145.0524597,1899.8962402,144.9959106,1899.9124756
		c-0.1321411,0.0753174-0.2640076,0.151001-0.2640076,0.151001S144.8637695,1899.987793,144.9959106,1899.9124756z
		 M128.9259338,1888.3039551C127.6624527,1888.9450684,129.7179565,1887.8511963,128.9259338,1888.3039551L128.9259338,1888.3039551
		z M116.2800674,1854.741333c-6.3392181-1.6566162-5.9808578-6.899292-12.128624-8.6505127
		c-14.5289612-21.6816406-27.1505585-44.3410645-44.131176-64.7027588
		c5.9336815,20.2268066,23.595974,43.7055664,38.0129356,64.1317139c1.1007233,1.5219727,2.1810303,3.0494385,3.2169189,4.5880127
		c-1.048027-1.508667-2.1255798-3.041748-3.2169189-4.5880127c-23.310173-32.2342529-60.226532-61.0010986-66.6868515-104.286499
		c29.5873184,2.1015625,40.1211319,41.1112061,55.3450165,54.9855957
		c0.7947769,11.8996582,25.4183731,52.717041,36.7386932,67.3267822
		c5.1132431,6.6542969,9.8091049,11.9694824,15.3182144,19.5316162
		C134.2601624,1883.6645508,120.5447388,1863.9415283,116.2800674,1854.741333z M145.7341309,1908.3447266
		C139.6994781,1901.7442627,149.7507935,1912.6607666,145.7341309,1908.3447266L145.7341309,1908.3447266z
		 M224.1333313,1830.5679932c16.07547-30.2891846,37.2868347-44.4382324,54.191864-68.7520752
		c16.7623901-10.0568848,20.1354675-12.0019531,31.7468262-27.9776611
		c20.6094055-0.307251,31.8919373-31.199707,60.0877686-24.1358643
		c-48.7809753,61.6018066-113.0716248,95.6625977-158.4568939,166.4108887
		c17.8669891-33.5919189,42.9901733-74.1616211,67.8885651-102.3977051
		c-34.2211304,19.7147217-62.0908813,69.3741455-84.5913849,113.661377
		C199.4829559,1868.0258789,212.8615417,1845.0161133,224.1333313,1830.5679932z M191.098999,1889.4324951
		c1.6783905,0.7923584,0.414917,3.1306152,0.0943451,4.9976807
		C189.5149536,1893.6381836,190.7784424,1891.2995605,191.098999,1889.4324951z M404.8079529,812.2320557
		c0.9804382,0.2990723,1.9909363,0.6400146,2.9821472,0.9227905c-0.7434692,2.5269775-1.5570068,4.9973755-2.2980042,7.5257568
		c-2.8988342-3.3581543-1.9531555-5.5253906-2.6615906-7.4098511
		C402.9408569,811.9129028,403.8272095,812.0245972,404.8079529,812.2320557z M403.5902405,826.6572876
		C405.6915588,832.8227539,399.7106934,821.4916382,403.5902405,826.6572876L403.5902405,826.6572876z M343.1708984,883.6282959
		C343.9899597,883.2120361,341.8886414,884.3058472,343.1708984,883.6282959L343.1708984,883.6282959z M371.2723694,872.5678711
		C372.1319885,872.1705933,370.0303955,873.2655029,371.2723694,872.5678711L371.2723694,872.5678711z M374.7047424,872.0197144
		c-1.4441833-0.5092773-0.5953369-2.2078247-0.5200195-3.4889526
		C375.6178894,869.0587769,374.7800598,870.7371826,374.7047424,872.0197144z M377.646637,868.0203857
		c-1.4441833-0.5092163-0.5953369-2.2063599-0.5578308-3.5062866
		C378.5489807,864.9841919,377.6331177,866.7177734,377.646637,868.0203857z M386.7792969,854.3643188
		c-3.2461548-1.9021606,1.3255615-7.3737183,2.4381409-2.5269775
		C388.5575562,852.9672852,387.2590332,852.8381958,386.7792969,854.3643188z M392.1297913,847.8002319
		C388.5547791,843.0693359,396.8226013,838.6901855,392.1297913,847.8002319L392.1297913,847.8002319z M395.9365234,840.7459717
		c-1.452179-0.4890747-0.5578003-2.1862793-0.5390625-3.449707
		C396.8388977,837.8041382,396.0118408,839.4634399,395.9365234,840.7459717z M398.2720337,833.2415161
		C399.1018372,832.8064575,396.9925537,833.9204102,398.2720337,833.2415161L398.2720337,833.2415161z M399.0238037,820.3236084
		c4.1945801,2.3545532-2.4516907,2.7358398-1.8588257,5.9767456
		C393.471344,824.9265137,398.2962952,821.1142578,399.0238037,820.3236084z M396.8604126,811.4428101
		c-3.2569275,14.5397339-17.2554016,29.2532349-24.9628906,43.2649536
		c7.4868164-7.2415771,15.4503479-13.5631714,20.8789062-24.8026123
		c-8.4244995,19.78479-26.5579834,41.8342896-42.0999451,56.0575562
		c-4.8222046-9.6918335,6.5359192-19.5009766,13.2439575-32.0806274
		c-7.9017334-0.6951904-9.6502075,10.2629395-14.569519,15.2037354
		C357.6110229,845.0967407,379.526947,826.2316284,396.8604126,811.4428101z M347.1285095,881.5499268
		c-1.4899597-0.5078735-0.6493835-2.1862793-0.5845642-3.4497681
		C347.9958496,878.5903931,347.1500244,880.2877808,347.1285095,881.5499268z M345.8435059,869.6905518
		c1.4709473,0.4526978,0.6221008,2.1487427,0.5953369,3.432373
		C344.9866638,872.6326904,345.8810425,870.9352417,345.8435059,869.6905518z M342.9797058,873.7276001
		c1.6784058,0.7906494,0.395874,3.0740356,0.1238708,4.9397583
		C341.3956604,877.8375244,342.6779175,875.555542,342.9797058,873.7276001z M338.3269043,888.7012939
		c1.452179,0.4901733,0.5955811,2.2063599,0.5765686,3.4698486
		C337.4515686,891.6806641,338.308136,889.9647827,338.3269043,888.7012939z M334.4798889,895.7354126
		C341.408905,888.9448853,326.5756531,906.0926514,334.4798889,895.7354126L334.4798889,895.7354126z M329.6386414,900.8108521
		c1.4414368,0.5092773,0.5928345,2.2050171,0.5630493,3.4875488
		C328.7713013,903.7717896,329.6011353,902.1121216,329.6386414,900.8108521z M468.1744385,310.3469849
		c2.7586975,65.9985352-57.3776245,151.1775208-99.2808838,192.9795227c4.5879822-9.7497864-2.7559509-5.8070679-2.268219-13.859436
		C389.0988159,418.1610718,425.7999878,356.5808411,468.1744385,310.3469849z M379.3868103,363.4425354
		c-1.7374268-0.7746277-0.4524231-3.1493225-0.1533813-4.9799805
		C380.9118042,359.2545776,379.6590881,361.5740662,379.3868103,363.4425354z M379.5699768,373.3606262
		c-1.4896851-0.5078735-0.6411133-2.2064209-0.5870361-3.4511414
		C380.4726257,370.4173584,379.624054,372.1159058,379.5699768,373.3606262z M378.8778381,364.9308777
		C377.6060791,365.5910339,379.6778564,364.4607849,378.8778381,364.9308777L378.8778381,364.9308777z M388.0563049,329.9475403
		c-0.6195984,1.9989624-1.220459,3.9614868-1.8237915,6.0169983c-3.019928-1.4143982,0.2990417-6.0721741-2.6993713-7.4299927
		C384.9257202,326.4977722,385.3326416,329.7414551,388.0563049,329.9475403z M389.7051697,266.2671204
		C394.4222717,271.8275452,384.0503845,266.9297485,389.7051697,266.2671204L389.7051697,266.2671204z M385.8849182,342.4127197
		c-1.5004578-0.4888611-0.6411133-2.2064209-0.5765686-3.4685059
		C386.7605286,339.4344177,385.9036865,341.149231,385.8849182,342.4127197z M399.3578491,394.3215027
		c1.4979858,0.4904785,0.6411438,2.2063904,0.6223755,3.4701538
		C398.4902344,397.2824097,399.3471069,395.5662231,399.3578491,394.3215027z M424.851532,306.778595
		c-1.4438782-0.5089722-0.5980835-2.2050171-0.5415039-3.4508362
		C425.7541809,303.8381042,424.8785706,305.4949951,424.851532,306.778595z M429.5231323,291.7674255
		c-0.0783691,0.0554504-0.0673218,0.0377808-0.1241455,0.0554504c-0.1426086,0.095459-0.2099304,0.1332397-0.2640076,0.1520081
		c0.0540771-0.0187683,0.1213989-0.0565491,0.2640076-0.1520081
		C429.6522217,291.6921082,429.8516846,291.57901,429.5231323,291.7674255z M457.2797852,265.8279419
		C458.1013184,265.4143982,456.0350647,266.5269775,457.2797852,265.8279419L457.2797852,265.8279419z M454.8308716,247.047821
		c0.0107727-0.0055237,0.0215149-0.0107727,0.0322876-0.0162811c0.0027466-0.005249,0.0079956-0.0135193,0.0430298-0.0402832
		c0.3583374-0.179306,0.1859436-0.0686951-0.0430298,0.0402832
		C454.8603821,247.0370483,454.8603821,247.0384369,454.8308716,247.047821
		c-0.1321411,0.0753021-0.2154541,0.1508942-0.3017883,0.1318512
		C454.6154175,247.1987152,454.6987305,247.1231232,454.8308716,247.047821z M448.4298706,246.6558075
		c1.6783752,0.7892609,0.4256592,3.1101532,0.1130981,4.9571075
		C446.8753357,250.8046112,448.1468201,248.4459229,448.4298706,246.6558075z M444.2377319,260.1381226
		C440.7088318,255.4061127,448.9956665,251.0848846,444.2377319,260.1381226L444.2377319,260.1381226z M443.2653198,284.540741
		C444.1246338,284.1434937,441.9938354,285.2008972,443.2653198,284.540741L443.2653198,284.540741z M441.3444214,264.1373901
		C442.1554871,263.7415161,440.0809326,264.8742371,441.3444214,264.1373901L441.3444214,264.1373901z M438.5749512,273.1704712
		C434.5582886,269.9847412,442.7130127,265.7391052,438.5749512,273.1704712L438.5749512,273.1704712z M436.1152954,275.7366028
		C436.9451294,275.302948,434.8330688,276.4155273,436.1152954,275.7366028L436.1152954,275.7366028z M485.8849792,67.4239731
		c2.7371826,38.6755753-11.4954834,81.975563-27.2473755,119.8254623c-0.940155,3.0188446-1.872345,6.0186462-2.8152466,9.0344543
		c-3.9118347,2.8301544,2.966156-14.5195923,5.4983826-22.9882355c5.0864563-17.3497314,9.3240967-30.0816803,10.431427-44.4691162
		c-15.043457,42.0958099-28.6537476,79.6251526-36.789978,113.6454163
		c5.4635925-47.54039,20.0626221-91.1043701,37.1077881-146.4562836
		c-21.0860901,37.2129211-25.9946594,75.4371796-40.1895447,119.133316
		C439.6417542,158.6709747,456.9401855,105.6388474,485.8849792,67.4239731z M431.045105,223.1461792
		C427.4593506,218.4329224,435.7652283,214.0739136,431.045105,223.1461792L431.045105,223.1461792z M429.2833862,234.1205444
		C425.7486572,229.4084167,434.0140076,225.0306396,429.2833862,234.1205444L429.2833862,234.1205444z M430.3258972,188.3553925
		C435.6924133,191.9546661,423.8197937,188.2610321,430.3258972,188.3553925L430.3258972,188.3553925z M427.29245,171.1201477
		c0.2640076-0.1508942,0.5280151-0.3015289,0.1804199-0.0753174
		C427.348999,171.1013947,427.3677673,171.0635986,427.29245,171.1201477
		c-0.177948,0.0755768-0.1967163,0.1133881-0.1967163,0.1133881S427.114502,171.1957245,427.29245,171.1201477z
		 M433.281311,258.3882751c2.4246216,3.261322-2.4193726,12.7672424-6.7083435,11.0726013
		C429.5231323,267.1399536,430.6437073,261.3127747,433.281311,258.3882751z M424.6576233,132.33284
		c-1.8858643-1.9801941-0.7084351-5.5632019-0.6896667-8.4297485
		C427.2196045,125.1276779,426.0154419,128.6728821,424.6576233,132.33284z M424.4366455,122.3943481
		C420.4359741,113.9863968,427.2789307,110.3816071,424.4366455,122.3943481L424.4366455,122.3943481z M424.6871338,110.9474106
		c-2.4031067-2.920372-1.2929993-7.692627-1.2201843-11.898262
		C425.815979,101.9910126,424.7141724,106.7420502,424.6871338,110.9474106z M423.3052979,94.0909348
		c1.462677,0.4700851,0.6033325,2.1862717,0.5953369,3.4320984
		C422.4376831,97.0501785,423.2862549,95.3530426,423.3052979,94.0909348z M422.7852783,90.6020126
		C421.494751,91.2999649,423.5693054,90.1683426,422.7852783,90.6020126L422.7852783,90.6020126z M421.440979,152.8305359
		c0.0402527-0.024292,0.0510254-0.0311737,0.0860596-0.0433197c0.2264709-0.1144867,0.4256592-0.199173,0.0915833-0.0322723
		c-0.0617676,0.0201416-0.0725403,0.02565-0.0915833,0.0322723
		C421.4975281,152.8021088,421.4704895,152.8156281,421.440979,152.8305359
		c-0.1509094,0.1130981-0.1994629,0.1144714-0.1994629,0.1144714S421.2900696,152.943634,421.440979,152.8305359z
		 M420.7214966,65.295639C421.5245667,64.8713531,419.4392395,65.974556,420.7214966,65.295639L420.7214966,65.295639z
		 M420.1639709,61.8365059C418.8626709,62.5046654,420.9667358,61.41222,420.1639709,61.8365059L420.1639709,61.8365059z
		 M418.2726135,46.5169029c0.207428-0.133522,0.3773804-0.2372475,0.0675964-0.0391884
		C418.2833557,46.4964867,418.3023987,46.4589691,418.2726135,46.5169029
		c-0.3015442,0.1304855-0.3771362,0.1870232-0.3098145,0.1495209
		C417.8954773,46.7039261,417.9710693,46.6473885,418.2726135,46.5169029z M404.6462708,10.956708
		c8.6181946,1.9951067,8.2653503,18.9282761,13.0390015,27.0645065c-1.4681702,1.2458267-3.9493408,0.4995995-4.4478455,3.5736046
		c4.884552,29.6598892,5.8757324,61.3595428,3.5131836,94.8691864
		c-4.3805237-38.6929626-0.5119934-81.7736435-7.4732971-119.1184082
		c-18.9445496,44.9058228-5.4178162,93.9209976-6.5331421,137.8096924
		C397.7603149,110.7884979,388.9263916,62.0911369,404.6462708,10.956708z M416.7155762,41.0477829
		c-0.105072,0.0190353-0.0377808,0.0270348-0.105072,0.0190353c-0.1293945,0.0753098-0.2154846,0.150898-0.2532654,0.1318626
		c0.0377808,0.0190353,0.1238708-0.0565529,0.2532654-0.1318626
		C416.8772583,40.9617119,417.1034546,40.8403282,416.7155762,41.0477829z M406.6640015,36.2606125
		c6.8644714,30.3200302-0.3070374,67.9801254,3.6263123,99.8290329
		C402.7389221,111.2006607,402.838501,71.3747101,406.6640015,36.2606125z M406.5588989,31.2819881
		c1.452179,0.4916,0.5928345,2.2064075,0.5765686,3.4698925C405.702301,34.272419,406.5401306,32.5940247,406.5588989,31.2819881z
		 M395.4217529,189.1581726c0.2452393-0.1130981,0.4606934-0.2640076,0.1106262-0.037796
		C395.4675293,189.1581726,395.478302,189.1394196,395.4217529,189.1581726
		c-0.1318665,0.075592-0.2477417,0.1131134-0.2477417,0.1131134S395.2898865,189.2337646,395.4217529,189.1581726z
		 M394.8156738,318.8763428c3.019928,9.2391357-0.0135193-6.2986755,2.807251-9.0143433
		c-3.7071533-0.2261963,1.0532837,2.8853149-2.9498901,4.0169373
		c2.1200562-54.7240295,2.0499878-119.8753815,17.3359375-167.3633423
		c9.7227478,34.2238617,10.3048401,82.9697876,7.8746948,112.6514587c1.872345,18.4217529-2.6993713,45.6920471-7.1715088,60.307373
		c2.1283569,20.3641357-6.0964355,46.7295837-11.3283081,73.8114624
		c6.2150574-52.2563782,10.2507629-102.3226318,8.1412048-153.7638092
		c-1.5757751,0.2262115-3.1115417,0.4714661-3.9115601,2.0742645c0.805542-15.3869171,2.4891663-23.6657715,3.6072693-38.3563843
		c-7.8476868-4.2969513-5.2103577,16.3690033-4.6257935,15.012558c0.019043,4.1096344-3.7419128,23.4395599-1.462677,25.8534241
		c0.8215637,2.129715,4.4801331,0.3743439,1.1799316,6.9748077c-5.3745117-6.5019684,1.3147888,5.8649902-0.757019,12.9369202
		c-3.3865662-1.6204529-1.9073486-5.7127075-4.1137695-7.8989868c-4.296936,8.4121094,2.3868408,3.2423096,2.1523438,8.8995667
		c-5.3071899,0.812439-2.1578674,7.2415771-1.1743774,14.4252319c4.1110229-2.0930176-2.492218-10.5765686,2.6831055-13.9548645
		c7.3682251,39.6924133-8.0013123,91.3104248-5.102478,133.3414001c-4.9838562,7.9971924-9.7335205,16.4647522-13.322052,27.1384277
		c1.8157959-12.5945435,2.5054932-33.1325073,4.3778076-51.3106689c1.5947876-16.4995117,3.351532-34.2655334,6.9775696-43.8818054
		C394.1960754,327.5700989,391.9868774,324.5352478,394.8156738,318.8763428z M368.670105,212.0413055
		c3.6017456,0.6209869,0.312561,4.846756,3.0845032,5.901413
		C368.7294006,221.8275146,367.5114441,214.5508881,368.670105,212.0413055z M370.8224182,220.9411469
		c1.8778687,1.1490021,1.5572815,3.3932037,3.5940552,4.411438
		C372.6652527,228.86026,368.5809937,223.6377716,370.8224182,220.9411469z M374.5323181,230.3110657
		C377.23172,236.1382599,371.2481079,224.8071899,374.5323181,230.3110657L374.5323181,230.3110657z M376.1459045,235.7611542
		C374.8744202,236.4210358,376.975708,235.3260956,376.1459045,235.7611542L376.1459045,235.7611542z M379.238678,241.6435242
		C376.2780457,235.9685974,382.2506104,247.3184357,379.238678,241.6435242L379.238678,241.6435242z M353.8823547,148.2342682
		c1.0372925,22.4577332,11.6221313,39.9070587,13.7397156,61.8458862
		c-15.9003296-40.0656891-23.8100586-93.8616943-18.3194275-137.3098145
		c9.709259,20.8518982,21.078125,40.8361893,26.204895,64.0669174c-2.3007507-1.0560303-8.9442749-21.0621109-14.0197144-29.0176468
		c6.565155,36.7226944,28.885498,76.0609055,30.3644409,119.6210403
		c-13.2009277-29.4339447-16.9750977-63.8636017-32.2960815-92.2575073
		c3.1545715,20.2402954,11.2124634,38.8788757,16.6788025,57.8476868
		c5.4175415,18.8731079,11.7512512,37.7100525,13.1926575,58.3205566
		C374.866394,218.412796,366.407135,182.2291565,353.8823547,148.2342682z M386.0708618,283.2584839
		C387.3638611,288.8768616,381.9380493,273.4171143,386.0708618,283.2584839L386.0708618,283.2584839z M385.5022888,322.2372437
		c0.2722778,0.7729797,0.6195984,1.5826721,0.9404297,2.2615967c-0.8488464-0.3757324-1.6866455-0.7732849-0.9997253-1.9614563
		C385.4429932,322.4433289,385.4807739,322.3677368,385.5022888,322.2372437
		c-2.8717957-7.1850281-4.5717163-18.1216125-4.533905-22.4400635
		C381.0759583,287.3143311,388.0320129,312.4496765,385.5022888,322.2372437z M379.6643372,356.9350586
		c-3.1573181-1.2245789-2.006958-4.7510376-0.651886-8.4107361
		C380.8632812,350.4868774,381.086731,353.3330078,379.6643372,356.9350586z M379.4839172,347.0155945
		c-3.0765076-8.8418884-2.2601929-19.7230225-2.1311035-30.2634583
		C379.9203491,325.8591309,380.1305542,336.1924133,379.4839172,347.0155945z M340.2210083,229.549942
		c27.4333191,15.7560272,37.9213562,51.0911102,37.6007996,85.6934662
		c-4.3187256-6.9196472-1.6273499-17.5933228-7.4545593-23.6630249c2.551239,19.1384583,2.2764587,39.7867737,2.7534485,60.0582581
		C366.3505859,314.8135986,351.368927,271.2024231,340.2210083,229.549942z M335.6517944,435.4150696
		c-2.683136-42.0889282-9.3241272-85.1182861,12.955658-137.4538269c1.1316223-3.8660278,1.7269592-1.4711914,3.4889221-0.5657959
		c-4.711853,2.8287659,3.5292053,9.4452209,5.285675,14.7995911c7.909729,24.1722717,9.5718689,65.1864014,7.077179,99.2430725
		c-2.6025696,36.1499939-6.5464172,75.1839294-18.6993103,102.8156128
		C337.4918213,490.5151062,337.367981,462.9267273,335.6517944,435.4150696z M363.0906372,468.7067566
		c-0.1293945,0.075592-0.2424927,0.114502-0.2720032,0.171051
		C362.8481445,468.8212585,362.9612427,468.7823486,363.0906372,468.7067566
		c0.0673218-0.0364075,0.0187378-0.0377808,0.1238403-0.0565491
		C363.543335,468.4628906,363.3276062,468.6138,363.0906372,468.7067566z M312.3159485,484.1127319
		C313.5686646,489.8063965,308.1726685,474.2887268,312.3159485,484.1127319L312.3159485,484.1127319z M297.7977295,525.715271
		C296.4804688,526.3768311,298.6303101,525.28302,297.7977295,525.715271L297.7977295,525.715271z M294.66745,519.8141479
		c3.0171814-4.5259399,2.4624023,2.6213379,4.0759888,2.8853149
		C296.5477905,526.8104858,297.1000671,519.663269,294.66745,519.8141479z M306.5345459,539.930603
		c-2.141571-10.9917603-6.5762024-20.7967529-10.0971069-31.1095886c-1.8966064-0.3583679-2.6133118,1.3578186-2.497467,3.1118164
		c0.7059631,1.1299744,1.403656,2.280304,2.1311035,3.374176c-1.2447205-0.0551758-2.0179749-1.7148438-2.1311035-3.374176
		c-17.4628296-27.7892151-24.0577698-70.7255859-27.0697327-109.3244934
		c18.7964172,20.4910583,32.0726318,47.6038513,44.3223572,74.6021118
		c-3.9143066,3.5832825-4.4263306-5.1091003-10.0273132-4.7482605
		c11.1641846,20.8709412,19.3622131,43.3269958,21.3233643,69.1225281
		c-5.1993103-11.4819946-2.9120789-26.9080811-11.686676-36.5218811
		c-3.3137512,8.1481018,8.2330627,32.2988586,3.2867126,37.2046204
		c-6.1665039-26.9080811-11.3147888-54.3427734-25.5394897-77.00354
		C291.3374329,486.8537598,304.818634,513.6448975,306.5345459,539.930603z M322.1330566,543.0299683
		c-0.0538025,0.0308838-0.1183472,0.0714722-0.1884155,0.1213989c-0.183197,0.0739136-0.2452698,0.1116943-0.2452698,0.1116943
		s0.0620728-0.0377808,0.2452698-0.1116943c0.0187378-0.0391846,0.0079956-0.019043,0.0725403-0.0579224
		C322.0792542,543.0608521,322.100769,543.0476074,322.1330566,543.0299683
		C322.2166443,542.9800415,322.2381592,542.9720459,322.1330566,543.0299683z M290.9710693,765.4486694
		C289.6322632,766.1466064,291.8008728,765.0150146,290.9710693,765.4486694L290.9710693,765.4486694z M267.271637,639.7555542
		c0.0298157-0.0565796,0.0079956-0.0188599,0.1321411-0.0767822
		C267.7808838,639.4915161,267.5276489,639.6235352,267.271637,639.7555542
		c-0.1776733,0.0754395-0.2154541,0.1508179-0.2154541,0.1508179S267.0939636,639.8309937,267.271637,639.7555542z
		 M266.8272095,636.2088623C265.4936523,623.2182007,267.3955078,641.6790771,266.8272095,636.2088623L266.8272095,636.2088623z
		 M264.6638489,627.3292847C267.3444824,633.1942139,261.3823547,621.8253174,264.6638489,627.3292847L264.6638489,627.3292847z
		 M265.9568481,734.6638184C263.2789612,735.4949951,262.7807617,714.7887573,265.9568481,734.6638184L265.9568481,734.6638184z
		 M269.1547241,745.5236816C263.1013184,739.5293579,270.2565613,735.7739258,269.1547241,745.5236816L269.1547241,745.5236816z
		 M270.1867676,752.5200195c-0.1321411,0.0753174-0.2074585,0.1321411-0.2642822,0.1509399
		C269.9793091,752.6521606,270.0546265,752.5953369,270.1867676,752.5200195c0.0457764,0,0.053772-0.0201416,0.1318665-0.0766602
		C270.6471863,752.2546387,270.4424744,752.3881836,270.1867676,752.5200195z M271.4527283,759.4208984
		C270.1784668,760.0808105,272.2530212,758.9494629,271.4527283,759.4208984L271.4527283,759.4208984z M274.6506042,770.2805176
		C277.3500061,776.1077271,271.3694153,764.7766724,274.6506042,770.2805176L274.6506042,770.2805176z M272.6464233,744.9578857
		c-5.8354797-21.9107056-6.9668274-45.5011597-16.7301331-62.7509766c-1.1316223-1.9802246-0.7462311-1.0546875-1.9611664,0.9994507
		c-6.7905426-30.7523193-11.0174103-62.8667603-5.1579437-100.2613525
		c3.8122559,57.2874146,33.9949036,117.1663818,41.1636658,180.5612793
		c-5.8216858-17.496521-8.6181946-36.5229492-16.5737-52.8690796c2.8665466,32.8483887,18.4757996,69.8201904,21.1454163,106.930481
		C288.4631348,794.9041138,279.4515686,770.5823364,272.6464233,744.9578857z M291.7848816,826.5643311
		c-2.0745239,3.3016357-4.315979,6.1869507-5.2481384,11.5413208c-2.416626-8.3704834-1.9208984-18.2330933-3.0469971-27.3025513
		C288.4413452,809.9528198,283.6191406,824.9830322,291.7848816,826.5643311z M282.3664246,803.9008179
		C285.0172424,809.7280273,279.0259094,798.4157104,282.3664246,803.9008179L282.3664246,803.9008179z M252.118927,970.5894165
		C250.8069,971.2305298,252.9219971,970.1179199,252.118927,970.5894165L252.118927,970.5894165z M218.1257019,963.3408813
		c-2.6698761-8.805481-6.2528687-36.6363525-9.0306091-50.5158691
		c-8.4509888-42.2359619-28.2496185-92.4271851-14.6365509-149.3052368
		c18.4217682,24.9240723,20.0921631,57.8102417,27.2206421,87.4135132
		c7.2333069,29.7719116,17.7966309,59.4872437,17.8639526,91.0547485
		c-6.2473602-10.0488281-4.7899323-24.2854004-10.7330017-34.56073
		c-0.4416656,33.3375244,16.4848785,68.4262085,10.8273468,108.6212769
		c-3.3943024-68.968811-26.9188385-127.3608398-33.4759827-194.6217651
		c-6.5952301,19.8954468,0.9561768,40.5426636,4.7250977,59.0400391
		c8.241333,40.3889771,18.5351562,80.2676392,22.9559631,122.2704468
		c-11.0965881-38.9263306-12.6674042-82.8632812-26.8782806-120.1757812
		c0.6869202,22.7794189,7.9364929,45.8200684,11.2690125,64.3364258c1.9479065,10.5404663,1.1503754,0.6209717,2.8638,17.3858643
		C221.8165588,970.8641357,220.4479675,971.0525513,218.1257019,963.3408813z M238.6178589,1019.0873413
		c-0.0027618,0.0054932-0.0027618,0.0082397-0.0336456,0.0162354c-0.0971069,0.0943604-0.1724243,0.1509399-0.2667694,0.1509399
		c0.0943451,0,0.1696625-0.0565796,0.2667694-0.1509399C238.596344,1019.0980835,238.6057281,1019.0928345,238.6178589,1019.0873413
		c0.0027618-0.005249,0.0066223-0.0135498,0.0416565-0.0375366
		C239.0515289,1018.885376,238.8468323,1018.9797363,238.6178589,1019.0873413z M233.5275116,1009.2244263
		c-0.11586,0.0377808-0.0405579,0.0783081-0.11586,0.0377808c-0.0943451,0.0943604-0.2262115,0.1696777-0.2830505,0.1887207
		c0.056839-0.019043,0.1887054-0.0943604,0.2830505-0.1887207
		C233.6568909,1009.1491089,233.8858643,1009.0734863,233.5275116,1009.2244263z M232.9401855,1005.7735596
		c-0.0755768,0.059021-0.0565491,0.0187378-0.1131134,0.0375366c-0.0943451,0.0942993-0.2640076,0.1508789-0.2640076,0.1508789
		s0.1696625-0.0565796,0.2640076-0.1508789C233.072052,1005.697937,233.3173065,1005.5848389,232.9401855,1005.7735596z
		 M221.7975311,972.6931763c1.7349396,1.6207275,1.8212891,4.0922241,1.1153412,6.9210205
		C220.4316864,978.4450684,220.3373566,975.9934082,221.7975311,972.6931763z M225.3187256,998.4779053
		c-2.6941376-4.8922729-2.1120605-11.4334106-2.8502808-17.3171997
		C224.8580322,986.1931152,226.6415253,991.4923096,225.3187256,998.4779053z M225.9032898,1001.9317627
		c4.6042786,5.1240234,1.8723297,14.0845947,5.382782,19.7958984
		C225.6097717,1022.1425781,226.1888275,1008.5267334,225.9032898,1001.9317627z M230.7472992,1044.5999756
		C229.4810486,1045.2412109,231.633667,1044.1473389,230.7472992,1044.5999756L230.7472992,1044.5999756z M230.4777679,1029.6668701
		C231.3075867,1029.2332764,229.1764984,1030.383667,230.4777679,1029.6668701L230.4777679,1029.6668701z M178.1513367,1092.4217529
		C176.9471588,1097.2873535,177.2031555,1077.3353271,178.1513367,1092.4217529L178.1513367,1092.4217529z M157.477356,962.6553955
		c10.9296875,37.3690186,14.3377838,78.6658936,20.8789368,118.3222656
		C167.8575134,1048.3931885,165.0530396,1000.8972778,157.477356,962.6553955z M180.1585541,1117.7485352
		C178.8410034,1118.4086914,180.9883728,1117.3121338,180.1585541,1117.7485352L180.1585541,1117.7485352z
		 M179.9295807,1107.8291016c-1.6783905-0.7919922-0.3988953-3.1680908-0.0971069-4.9973145
		C181.5136261,1103.6237793,180.2501373,1105.9595947,179.9295807,1107.8291016z M135.9545441,1329.4516602
		C138.5973816,1335.2979736,132.6733551,1323.9477539,135.9545441,1329.4516602L135.9545441,1329.4516602z
		 M134.2951965,1324.0018311c-7.6942902-1.3928223-9.3026123-16.8540039-15.886795-23.0179443
		C126.0836563,1302.4117432,128.5405579,1317.4066162,134.2951965,1324.0018311z M115.6712189,1293.6291504
		c0.0645523-0.0214844,0.1252441-0.0457764,0.1765594-0.0700684c0.2033157-0.1103516,0.1561432-0.0700684,0,0
		c-0.0242767,0.0135498-0.0297928,0.0162354-0.0634537,0.0350342
		C115.7090149,1293.6479492,115.7655716,1293.6291504,115.6712189,1293.6291504
		c-0.1321411,0.0753174-0.2452469,0.1131592-0.2452469,0.1131592S115.5390778,1293.7044678,115.6712189,1293.6291504z
		 M113.7288208,1289.6905518C112.4275436,1290.3126221,114.5396042,1289.1972656,113.7288208,1289.6905518L113.7288208,1289.6905518
		z M107.4058838,1277.9067383c0.2452469-0.1158447,0.4527054-0.2452393,0.1158676-0.0377197
		C107.4058838,1277.9067383,107.4624329,1277.8876953,107.4058838,1277.9067383
		c-0.1318665,0.0753174-0.2452469,0.1131592-0.2640076,0.1508789
		C107.1606369,1278.0198975,107.2740173,1277.9820557,107.4058838,1277.9067383z M58.5090523,1218.2200928
		c19.5210991,59.2419434,46.9922218,114.2597656,74.2021027,169.4257812
		c-17.2796631-22.3012695-30.1680298-52.4503174-43.9615173-81.0693359
		C75.0664825,1278.2918701,60.8583603,1247.5826416,58.5090523,1218.2200928z M133.2794495,1391.1345215
		C137.9968109,1396.6949463,127.6246643,1391.7971191,133.2794495,1391.1345215L133.2794495,1391.1345215z
		 M136.4880829,1401.9753418c2.9040833-4.1109619,3.472641,2.9606934,5.5281525,3.3731689
		C139.1309052,1409.5187988,138.5463409,1402.3902588,136.4880829,1401.9753418z M66.6963196,1229.0043945
		c4.1675644-0.0377197,11.6166,8.9147949,13.6776276,14.1383057c18.8689499,35.3514404,50.1280365,74.8647461,58.250473,120.0250244
		c-9.8278656-11.5548096-18.0394058-34.8421631-28.866745-50.0552979
		c1.5545273,26.7950439,26.8705444,51.9788818,32.5010529,80.8105469
		C113.3326721,1345.9581299,89.832695,1284.2106934,66.6963196,1229.0043945z M142.1133423,1362.6018066
		c-0.0728302,0.0566406-0.0540619,0.0163574-0.1133881,0.0378418c-0.1291046,0.0755615-0.2262115,0.1696777-0.2262115,0.1696777
		s0.0971069-0.0941162,0.2262115-0.1696777C142.2479706,1362.5264893,142.490448,1362.4106445,142.1133423,1362.6018066z
		 M143.7001495,1368.0089111c-0.8676147-2.3167725,6.6217041,11.2773438,4.3802643,17.8399658
		C145.7986908,1380.3259277,142.7787323,1375.2369385,143.7001495,1368.0089111z M152.7304688,1418.5247803
		c-4.5449524-2.5997314-2.2279205-8.8419189-4.2459106-12.8206787
		C152.1243896,1403.8935547,153.2772369,1414.0391846,152.7304688,1418.5247803z M136.0704041,1334.411499
		c9.5100708,10.8759766,17.7754059,33.2956543,21.9294586,51.208374
		C149.3574066,1369.2346191,144.7128601,1350.7965088,136.0704041,1334.411499z M165.1688995,1558.9329834
		c1.6405945,1.2446289,2.4703979,2.8852539,1.6027985,5.46875
		C165.1498566,1563.1195068,164.3040314,1561.5164795,165.1688995,1558.9329834z M156.2489166,1561.123291
		C157.0812073,1560.6894531,155.0069427,1561.8210449,156.2489166,1561.123291L156.2489166,1561.123291z M83.2485123,1377.3087158
		C81.9850235,1377.9526367,84.097084,1376.8400879,83.2485123,1377.3087158L83.2485123,1377.3087158z M117.2983017,1527.6630859
		C119.997963,1533.4906006,113.9765549,1522.1405029,117.2983017,1527.6630859L117.2983017,1527.6630859z M116.1454391,1520.7260742
		C118.1471558,1529.454834,114.8226471,1514.9741211,116.1454391,1520.7260742L116.1454391,1520.7260742z M119.9196167,1535.0583496
		C122.6217651,1540.880249,116.6384201,1529.5516357,119.9196167,1535.0583496L119.9196167,1535.0583496z M101.3899918,1435.5349121
		c-3.4778976,26.590332,9.897934,55.0959473,14.1681213,81.7399902
		c-7.1312332-16.8564453-16.7544022-38.8209229-15.5932693-55.8688965c-1.5084534-0.4689941-2.979393-0.9213867-4.4881287-1.3928223
		c-2.4058609-28.2093506-24.0067444-59.1260986-8.8363876-88.2675781
		c35.1841736,53.0726318,55.1198959,114.1248779,67.9086685,179.0056152
		c-6.7000427-16.1185303-10.288559-33.9394531-19.4024658-48.8132324
		c8.9144592,35.4669189,22.053299,79.6439209,28.3870087,120.657959
		c-17.2175903-50.3625488-29.4593201-114.2652588-52.2185822-165.8885498
		c-1.5004501,17.5384521,8.9900513,39.6538086,11.1829376,59.4146729
		C113.0634232,1495.5716553,108.6773682,1461.4219971,101.3899918,1435.5349121z M161.2032623,1651.5030518
		c-0.0350342,0.0107422-0.0350342,0.0134277-0.0540771,0.0186768c-0.0430298,0.0270996-0.0874481,0.0513916-0.134613,0.078125
		c-0.1509094,0.0162354-0.2074585,0.1293945-0.1884308,0.0915527c-0.0190277,0.0378418,0.0375214-0.0753174,0.1884308-0.0915527
		c0.0593109-0.0457764,0.0620575-0.0510254,0.134613-0.078125
		C161.3500214,1651.4086914,161.4794006,1651.3330078,161.2032623,1651.5030518z M145.9065552,1589.1843262
		c2.5269623,0.3205566-0.3718719,8.7717285-2.8638153,4.0384521
		C143.4198608,1593.9769287,146.0384216,1589.2058105,145.9065552,1589.1843262z M132.956131,1540.7644043
		c5.0001221,12.4464111,9.1354218,25.3050537,10.7600098,39.5026855
		C142.8082581,1575.5739746,134.1092529,1553.6445312,132.956131,1540.7644043z M143.9641571,1583.9256592
		c0,0,0.1291046-0.0755615,0.2449646-0.1131592c0.0419312-0.0324707,0.043045-0.0324707,0.0513153-0.0297852
		c0.2383575-0.1318359,0.4270477-0.2181396,0.0617981-0.0079346c-0.0482788,0.0162354-0.0551758,0.0107422-0.0617981,0.0079346
		c-0.0176544,0.0107422-0.0322723,0.019043-0.0513153,0.0297852
		C144.0932617,1583.8500977,143.9641571,1583.9256592,143.9641571,1583.9256592z M147.5686646,1594.6343994
		c2.4326172,4.1865234,2.9255981,9.3348389,3.7769318,14.3297119
		C152.6659088,1612.7355957,144.4571381,1595.9571533,147.5686646,1594.6343994z M129.0335236,1547.8579102
		c-0.1130981,0.0374756-0.2046967,0.1318359-0.2640076,0.1480713
		C128.8288269,1547.9897461,128.9204254,1547.8953857,129.0335236,1547.8579102
		c0.056839-0.019043,0.0218048-0.0378418,0.0943604-0.0943604
		C129.5455475,1547.5910645,129.260025,1547.6879883,129.0335236,1547.8579102z M126.5443573,1540.3925781
		c-0.1509018,0.0186768-0.0780716,0.0537109-0.1509018,0.0186768c-0.1533813,0.1107178-0.2262115,0.1700439-0.2667694,0.151001
		c0.0405579,0.019043,0.1133881-0.0402832,0.2667694-0.151001
		C126.6737366,1540.3172607,126.8839493,1540.182373,126.5443573,1540.3925781z M122.5950012,1521.1195068
		c-0.735466-3.1494141,5.6978149,9.916626,3.324234,15.800415
		C123.4463348,1532.34021,123.9528351,1526.2299805,122.5950012,1521.1195068z M111.9533234,1776.4122314
		c-3.94384-5.6953125-15.8059692-9.5933838-11.0535583-15.2349854
		c-10.6386414-2.7667236-12.6593933-15.0406494-17.4520798-23.5648193
		c-18.0956802-32.2772217-39.6993294-67.5314941-52.8759766-105.2236328
		c-11.737711-33.3901367-22.5556736-65.802124-22.1341438-103.9146729
		c16.5063972,17.9100342,29.3583488,46.9086914,38.3632927,72.7579346
		c25.3022308,48.6060791,40.087204,102.7966309,72.7066116,147.6066895
		c2.737175,17.3469238,11.2287369,31.770752,16.4012833,47.8352051
		c-32.6922302-38.9100342-57.1889191-93.0009766-81.5297546-140.4212646
		C62.781723,1697.078125,96.6080627,1734.8565674,111.9533234,1776.4122314
		c0.735466,1.0722656,1.1881714,2.1470947,1.2447205,3.3540039
		C112.8209305,1778.6348877,112.3872681,1777.5219727,111.9533234,1776.4122314z M115.1782379,1778.7290039
		c-0.0565491,0.0189209-0.0565491,0.0189209-0.0565491,0.0189209c-0.2830429,0.1912842-0.3771133,0.1884766-0.3205643,0.1696777
		c-0.0565491,0.0187988,0.0375214,0.0216064,0.3205643-0.1696777
		C115.3291397,1778.6186523,115.4988022,1778.5620117,115.1782379,1778.7290039z M135.6662598,1808.1021729
		c-1.9611511-1.4521484-3.1115265-3.3945312-5.0726929-4.8439941
		C130.4804688,1801.0330811,138.212265,1804.8963623,135.6662598,1808.1021729z M138.0991516,1805.5911865
		C138.9289703,1805.1602783,136.8166351,1806.2729492,138.0991516,1805.5911865L138.0991516,1805.5911865z
		 M164.0563049,1997.9056396c-0.8488464,3.3970947-9.5020599,3.8334961-8.8609314,2.1738281
		c-0.1991882-26.7758789,4.7604065-75.2039795,7.4815826-114.5234375
		C162.7873077,1923.1782227,164.3255615,1960.1000977,164.0563049,1997.9056396z M162.0948792,1882.1075439
		C162.9597168,1881.692749,160.8476715,1882.8024902,162.0948792,1882.1075439L162.0948792,1882.1075439z M170.4087677,1828.7574463
		c-6.9775848-56.9842529-16.7461395-112.6297607-30.8684692-165.8747559
		c0.7167206,58.6625977,23.228241,105.8730469,22.8914032,165.0476074
		c-16.7083282-57.1298828-29.9873199-120.0921631-36.738678-184.1268311
		c-1.7807388-16.8189697-6.0291367-39.0717773,6.8266754-53.8594971
		c22.6353912,27.9023438,23.3305817,69.3500977,29.1144714,107.7779541
		c3.0982971,20.2132568,8.1980286,41.0516357,7.2793732,61.4726562c3.265213,9.6905518,4.8572388,33.2983398-0.6251221,39.2791748
		C174.4739838,1805.7126465,171.1036835,1817.9328613,170.4087677,1828.7574463z M176.4434204,1225.1949463
		c12.4384155,31.1486816,9.7335052,70.2392578,17.1395111,104.0117188
		c-0.8460846,2.3572998-1.0345154,5.9403076-3.3730621,5.5253906c-0.5089722,3.2814941,4.6768188-0.9616699,5.5632019,3.3918457
		c0.5415344,36.2832031,1.9316406,82.6506348-2.2171631,129.2681885c-3.6585999,3.8282471-1.1153564-5.9780273-4.5852356-6.3929443
		c-1.6568756,5.8676758,3.6047821,8.9199219,1.7754974,15.4073486c-3.6748657-0.6601562-3.96315-13.7667236-3.4188538-20.8009033
		c3.5829926,0.1887207,1.2474823,3.5455322,3.5479584,4.4128418c-11.4979858-37.9373779-8.6101837-87.87146-12.0933075-125.526001
		c-12.2177277,59.6488037,8.1089172,112.9313965,2.2088928,173.4261475
		C174.9266815,1423.4416504,146.2889099,1331.9733887,176.4434204,1225.1949463z M184.0218506,1158.4206543
		C182.7015228,1159.0805664,184.8110962,1157.96521,184.0218506,1158.4206543L184.0218506,1158.4206543z M185.2475281,1163.9838867
		c-0.0187683,0.0350342,0.1509094-0.0216064,0.2262115-0.0756836c0.0565491-0.0214844,0.0565491-0.0214844,0.1321411-0.0753174
		c0.377121-0.1885986,0.1131134-0.0377197-0.1321411,0.0753174
		C185.3984375,1163.9622803,185.2287598,1164.0189209,185.2475281,1163.9838867z M191.8372345,1244.7646484
		C190.5171967,1245.4248047,192.6292572,1244.3118896,191.8372345,1244.7646484L191.8372345,1244.7646484z
		 M191.7023315,1239.7481689c1.4143829,0.4714355,0.587326,2.2254639,0.568573,3.4862061
		C190.7999725,1242.7844238,191.6672974,1241.0494385,191.7023315,1239.7481689z M196.616394,1213.4031982
		c-0.0162659-0.0566406-0.0162659-0.0566406-0.0565491-0.0753174c0-0.2830811,0-0.4715576-0.037796-0.6789551
		c-0.0187531-0.2452393-0.0943298-0.4742432-0.0968323-0.7542725c-0.0350342-0.678833-0.1293793-1.2446289-0.148407-1.6783447
		c-0.0215302-0.43396-0.0968323-0.7545166-0.1318665-1.0535889c-0.0405579-0.3985596,0-0.5682373-0.0593109-0.5467529
		c0.0593109-0.0214844,0.0187531,0.1481934,0.0593109,0.5467529c0.0350342,0.2990723,0.1103363,0.6196289,0.1318665,1.0535889
		c0.0190277,0.4337158,0.1133728,0.9995117,0.148407,1.6783447c0.0025024,0.2800293,0.0780792,0.5090332,0.0968323,0.7542725
		C196.559845,1212.9506836,196.559845,1213.1391602,196.616394,1213.4031982
		c0.0187683,0.3395996,0.037796,0.5844727,0.0943604,0.7545166c-0.0093842,0.1130371-0.0229034,0.1640625-0.0284271,0.1616211
		c0.0055237,0.0024414,0.019043-0.048584,0.0284271-0.1616211
		C196.713501,1213.9689941,196.616394,1213.7805176,196.616394,1213.4031982z M196.675705,1218.2874756
		c1.7727509,1.6408691,1.8293152,4.0734863,1.1878967,6.9560547
		C195.3016052,1224.0581055,195.2047729,1221.6066895,196.675705,1218.2874756z M197.5270386,1279.4207764
		C196.2445221,1280.102417,198.3190613,1278.9708252,197.5270386,1279.4207764L197.5270386,1279.4207764z M188.8818359,1482.4033203
		C187.621109,1483.0444336,189.7116547,1481.9696045,188.8818359,1482.4033203L188.8818359,1482.4033203z M187.960434,1485.3829346
		C188.7712097,1484.9841309,186.6213531,1486.0806885,187.960434,1485.3829346L187.960434,1485.3829346z M183.9462433,1599.2816162
		C184.7545471,1598.8830566,182.6449738,1599.9984131,183.9462433,1599.2816162L183.9462433,1599.2816162z
		 M181.8179169,1664.4881592C180.535675,1665.1671143,182.6667633,1664.0167236,181.8179169,1664.4881592L181.8179169,1664.4881592z
		 M182.7475891,1730.5650635c1.694397-4.0574951,51.006134-55.7775879,59.2634735-63.9107666
		c-10.7236176,44.8421631-30.1895447,96.3092041-61.7581635,156.9333496
		C186.2012177,1793.2822266,168.7654114,1763.8309326,182.7475891,1730.5650635z M195.4229889,1694.9956055
		c15.1000061-17.1101074,33.3628693-45.2680664,50.2706604-66.6588135
		c-8.6639709,32.3419189-36.8084869,55.4703369-58.5440063,77.2786865
		c-0.6816711-5.619751,7.4462891-9.9031982,8.1224365-15.5985107
		C200.5712738,1691.8625488,190.5411987,1694.0147705,195.4229889,1694.9956055z M211.1776428,1665.3450928
		C209.895401,1666.0264893,211.9696655,1664.8951416,211.1776428,1665.3450928L211.1776428,1665.3450928z M219.9602356,1651.9179688
		c0,0,0.1321411-0.0756836,0.2480011-0.1134033c0.0711823-0.059082,0.0229034-0.0375977,0.1266327-0.0753174
		c0.0080109-0.005249,0.0187531-0.0107422,0.0253754-0.0135498c0.2251129-0.1373291,0.1616516-0.0968018,0,0
		c-0.0107574,0.0054932-0.0107574,0.0054932-0.0228882,0.0135498c0,0-0.0013885,0-0.0024872,0
		c-0.0405579,0.024292-0.0797272,0.0484619-0.1266327,0.0753174
		C220.0923767,1651.8422852,219.9817505,1651.8773193,219.9602356,1651.9179688z M223.2416992,1647.7098389
		c1.3953552,0.5117188,0.6060944,2.1873779,0.5845795,3.4508057
		C222.3768463,1650.6704102,223.2604675,1648.9920654,223.2416992,1647.7098389z M226.5766907,1642.1680908
		c1.4684753,0.4499512,0.6036072,2.1849365,0.587326,3.4483643
		C225.7121124,1645.1259766,226.5606995,1643.428833,226.5766907,1642.1680908z M245.437912,1648.0976562
		c-0.3961487,0.5117188-0.7920227,1.0209961-1.1316071,1.4171143c-0.2074585,0.2261963-0.2640076,0.3393555-0.43367,0.4875488
		c-0.7569885,0.9456787-0.6036072,0.7381592,0,0c0.1696625-0.1481934,0.2262115-0.2613525,0.43367-0.4875488
		C244.5675507,1649.1724854,244.9664612,1648.6634521,245.437912,1648.0976562
		c0.3056641-0.3825684,0.6019592-0.7434082,0.848587-1.0479736c0.0159912-0.0216064,0.030899-0.0402832,0.0485535-0.0618896
		c0.2206879-0.2750244,0.4080048-0.5119629,0.4954529-0.6437988c0.056839-0.0648193,0.0904846-0.1079102,0.0929718-0.1134033
		c-0.0024872,0.0054932-0.0361328,0.048584-0.0929718,0.1134033c-0.0753021,0.05896-0.1318665,0.1723633-0.2612457,0.342041
		c-0.0860748,0.1158447-0.1547546,0.1992188-0.2342072,0.3017578c-0.0204163,0.0240479-0.0284271,0.0375977-0.0485535,0.0618896
		C245.9846954,1647.4375,245.7113037,1647.769165,245.437912,1648.0976562z M245.9524078,1664.6175537
		c-1.4143829-0.4714355-0.5495148-2.2064209-0.5307617-3.4674072
		C246.8197479,1661.6566162,245.9333801,1663.335083,245.9524078,1664.6175537z M241.2513123,1653.2702637
		c0.5117493,6.1450195-17.4142761,22.0264893-16.4553528,21.2369385
		C229.7342987,1666.4143066,235.4078369,1659.6820068,241.2513123,1653.2702637z M219.914444,1679.5614014
		C226.3612366,1672.885376,215.3319702,1684.3916016,219.914444,1679.5614014L219.914444,1679.5614014z M190.1668396,1706.555542
		c-0.9241638,2.9825439-4.6955872,0.6251221-4.8439941,5.0758057
		C181.9660492,1709.5758057,186.8856354,1703.7861328,190.1668396,1706.555542z M299.691864,1549.5900879
		c-6.4873657,47.5229492-22.0966187,109.1517334-37.7381592,143.005127
		c-3.9413757,8.6396484-10.9365997,16.6948242-14.3822021,25.1998291c-1.8453064,4.4506836-0.261261,8.4460449-2.2386932,12.4089355
		c-17.9398193,36.4747314-39.6510468,74.0834961-63.6980743,110.2401123
		c34.4837341-64.7861328,58.2559967-142.0889893,86.2700195-220.0545654
		C277.0807495,1594.7609863,284.5971069,1570.5631104,299.691864,1549.5900879z M257.4035034,1617.170166
		c-1.3956299,6.0911865-5.8476257,6.4117432-7.2242126,12.5595703c-7.7668304-3.6936035,2.1498566-7.9743652,3.1278229-15.4989014
		C254.3267212,1615.3974609,255.250885,1616.5665283,257.4035034,1617.170166z M256.6812744,1608.7026367
		C257.513855,1608.2689209,255.3990326,1609.3815918,256.6812744,1608.7026367L256.6812744,1608.7026367z M259.1114197,1606.194458
		C257.8291626,1606.873291,259.962738,1605.7229004,259.1114197,1606.194458L259.1114197,1606.194458z M268.858429,1596.0272217
		c1.452179,0.4902344,0.6036072,2.1876221,0.5873413,3.4511719
		C268.0313721,1599.006958,268.8396912,1597.2879639,268.858429,1596.0272217z M268.4382935,1576.1154785
		c-6.5952148,18.1983643-25.8939819,47.6766357-38.3754272,65.4841309
		C238.1287384,1620.3625488,255.2453613,1595.6337891,268.4382935,1576.1154785z M250.3947449,1591.9405518
		C251.2058105,1591.5443115,249.0962219,1592.659668,250.3947449,1591.9405518L250.3947449,1591.9405518z M237.840744,1611.1247559
		c2.3222656-2.5675049,5.9996185-1.4361572,1.4924469,0.4121094c-7.8774567,19.2568359-17.6029816,26.7436523-26.2884674,47.8110352
		c-2.435379-7.1066895,5.0486908-15.7626953,9.0626068-18.612915
		C222.7810059,1630.416626,233.3766174,1621.8549805,237.840744,1611.1247559z M224.9576111,1588.9903564
		c-7.9312592,28.8909912-17.4438019,58.2156982-30.561142,82.6801758
		c17.1773224-62.5932617,27.0860138-143.3795166,48.6168213-215.2510986
		c-17.3982849,18.4082031-21.2345276,48.9211426-26.7331696,75.5866699
		c-10.5202942,51.5396729-16.5764618,106.3039551-34.1173706,147.3614502
		c8.4810638-72.9223633,16.2989502-144.6218262,47.011261-220.7202148
		c8.9307404-22.2177734,15.4851227-47.223999,34.4282837-63.3532715
		C257.1554871,1454.7139893,243.2232361,1522.697998,224.9576111,1588.9903564z M222.5895538,1453.3319092
		C221.2264709,1439.8321533,230.1276855,1440.7911377,222.5895538,1453.3319092L222.5895538,1453.3319092z
		 M259.4534912,1387.4707031C254.8332214,1392.2821045,265.8627625,1380.7734375,259.4534912,1387.4707031L259.4534912,1387.4707031
		z M262.3172913,1383.4350586c-3.6367798-1.3956299,1.1881714-5.2076416,1.8858337-6.0374756
		C267.8589783,1378.7553711,263.0527649,1382.62146,262.3172913,1383.4350586z M309.0292358,1333.7110596
		c-1.6971436-0.7543945-0.414917-3.1304932-0.1533813-4.9785156
		C310.5945129,1329.5432129,309.3282776,1331.8790283,309.0292358,1333.7110596z M312.8171997,1326.6958008
		c7.3276672-22.5006104,23.3223267-63.8594971,39.4756165-84.8730469
		C351.605896,1274.9000244,325.8752136,1301.2127686,312.8171997,1326.6958008z M337.1362305,1253.5766602
		c-17.2581482,47.56604-43.7915649,98.1278076-69.1776733,138.19104
		c7.1770325-25.6876221,35.9979858-55.265625,37.5362244-83.8143311
		c-9.5908813,20.1431885-24.0470276,44.9257812-37.805481,68.878418c0.9158936-26.361084,38.8642883-55.71521,35.5155029-82.7932129
		C313.9325562,1279.4558105,325.6920471,1266.8557129,337.1362305,1253.5766602z M303.3019104,1299.0334473
		c-15.1513367,25.9919434-31.2268372,50.4350586-45.5698547,78.0085449
		C268.7373352,1352.6580811,283.2257385,1314.1254883,303.3019104,1299.0334473z M254.5424652,1366.1661377
		c-0.7139587,8.973999-13.2859039,26.1187744-15.1877594,33.1341553
		C232.2612762,1391.6087646,251.1517334,1377.2924805,254.5424652,1366.1661377z M237.336731,1400.3184814
		c1.4899597,0.5092773,0.6223602,2.2442627,0.5685577,3.4914551
		C236.4503479,1403.3168945,237.336731,1401.6413574,237.336731,1400.3184814z M235.7203979,1416.291626
		c6.9182739-12.2416992,12.0773163-27.8564453,20.0342255-38.2095947
		c-1.6971588,4.9974365-13.1537476,28.6832275-18.0918274,37.1533203
		C236.2484131,1417.6870117,233.5167542,1426.0789795,235.7203979,1416.291626z M232.4607239,1426.7766113
		c-3.7824554,20.6903076-7.654007,2.1148682,1.9261169-1.0181885
		C234.3087769,1427.1350098,233.3873749,1427.0056152,232.4607239,1426.7766113z M233.4143982,1402.4118652
		c-4.5557098,19.1248779-18.1445007,40.7580566-23.5890808,60.1469727
		C207.08815,1446.6237793,226.3695221,1422.2750244,233.4143982,1402.4118652z M214.82547,1462.4620361
		c3.4536133,14.310791-9.9492493,25.0059814-9.5853729,41.4505615
		C198.111618,1497.6164551,211.6976471,1475.7947998,214.82547,1462.4620361z M207.3143616,1343.3234863
		c-3.5614777,2.2279053,0.191452,3.3000488-3.3727875,5.5281982
		C201.1315613,1348.5335693,203.8795013,1339.6298828,207.3143616,1343.3234863z M204.000885,1353.8303223
		c-1.3983917-0.5092773-0.5498047-2.2092285-0.530777-3.4702148
		C204.9220123,1350.8505859,204.0734406,1352.5477295,204.000885,1353.8303223z M312.2218628,1132.2962646
		c-13.1738892,76.3735352-57.8601074,146.8604736-84.9337006,215.5854492
		c-1.3956299,4.4884033-2.7884979,8.9765625-4.2028809,13.5024414c-0.3743439,5.4691162-4.8787537,7.8830566-1.9774323,1.0400391
		c6.6299896-24.8768311,18.4595642-52.428833,21.7517853-75.5301514
		c-15.261673,32.059082-29.6695251,81.3760986-38.0667267,123.0933838
		c-4.0196991-8.1844482,2.5162048-24.197876-2.0665436-25.3077393
		C232.9617004,1290.0083008,249.861496,1195.8837891,312.2218628,1132.2962646z M201.9048309,1509.4595947
		c-5.0459442,26.9836426-11.5035095,54.5380859-14.755188,79.3530273
		c-5.0594482-7.050293,0.1939392-30.0197754,2.1901398-38.8266602
		C182.774353,1538.9754639,196.1018982,1519.7561035,201.9048309,1509.4595947z M198.9199066,1274.9350586
		C197.5995941,1275.5925293,199.7119293,1274.4798584,198.9199066,1274.9350586L198.9199066,1274.9350586z
		 M199.3695831,1267.1467285c0.0190277-0.0405273,0.1508942-0.1158447,0.2452393-0.1130371
		c0.0645599-0.0513916,0.0256653-0.0593262,0.1037292-0.072876c0.1831818-0.1213379,0.3139496-0.1804199,0.0256653-0.0054932
		c-0.0201416,0.0026855-0.0135193,0.0054932-0.0256653,0.0054932c-0.0350342,0.024292-0.0673065,0.0457764-0.1037292,0.072876
		C199.5204773,1267.0308838,199.3886108,1267.1062012,199.3695831,1267.1467285z M201.2501831,1198.2788086
		C200.7839661,1209.0280762,201.1530762,1184.9838867,201.2501831,1198.2788086L201.2501831,1198.2788086z
		 M201.6245422,1191.8670654c-13.5832672-76.217041-24.8685608-153.5441895-37.2046356-230.3742065
		c-0.9429321-4.9033203-7.5083466,1.8223877-7.5135956-2.3170166c-3.2922363-4.543335,0.8430634-13.0108643-0.8918915-18.4041138
		c9.2863312,0.5630493,5.4931183,18.9119873,13.9336395,24.0952759
		c14.5369568,65.0612183,37.1078033,120.7388306,35.8710785,192.0934448
		c3.5076904,4.0167236,2.492218,10.3908691,1.3793488,16.8564453c-4.3805389-19.0604248-3.0279388-41.1057129-9.7092285-58.9616699
		C196.7215118,1136.6743164,202.352005,1165.8829346,201.6245422,1191.8670654z M208.208725,1197.182251
		c-1.5084534-0.4686279-0.6220703-2.2438965-0.6248322-3.4698486
		C209.0926208,1194.1838379,208.2277679,1195.9188232,208.208725,1197.182251z M206.9615173,1185.2451172
		C205.6199646,1185.942749,207.734787,1184.8302002,206.9615173,1185.2451172L206.9615173,1185.2451172z M206.8053741,1180.2664795
		C206.3957062,1190.9969482,206.7460632,1166.993042,206.8053741,1180.2664795L206.8053741,1180.2664795z M279.8932495,1109.1706543
		c8.8713989-25.2133789,31.4960632-45.1170654,44.6994629-70.0394287c5.0621948-3.2492676-5.0081482,9.6446533-7.6079407,14.0949707
		C306.5265503,1071.0501709,292.2373352,1093.984375,279.8932495,1109.1706543z M284.3546143,1084.1998291
		C283.0317993,1084.8624268,285.1278687,1083.7849121,284.3546143,1084.1998291L284.3546143,1084.1998291z M309.532959,1029.4594727
		C314.0942078,1028.0638428,300.9688721,1039.7130127,309.532959,1029.4594727L309.532959,1029.4594727z M310.907074,1025.0089111
		C309.6058044,1025.6340332,311.7098694,1024.5373535,310.907074,1025.0089111L310.907074,1025.0089111z M321.5512695,1059.5626221
		c-1.4171753-0.4714355-0.5845947-2.2250977-0.5686035-3.4886475
		C322.4726562,1056.5830078,321.6240845,1058.2803955,321.5512695,1059.5626221z M323.8842773,1052.0543213
		C322.6020203,1052.7359619,324.7355957,1051.5828857,323.8842773,1052.0543213L323.8842773,1052.0543213z
		 M327.2788391,1046.4910889C331.4301453,1052.8060303,321.1498413,1050.1712646,327.2788391,1046.4910889L327.2788391,1046.4910889
		z M336.8885193,983.6661987c1.4303589,0.5280151,0.5737915,2.2442017,0.5762634,3.4698486
		C335.9913635,986.6833496,336.8049011,984.9674683,336.8885193,983.6661987z M330.0105286,994.7925415
		c0.053772-0.0162354,0.0458069,0,0.1210938-0.053772C330.5007324,994.5663452,330.290802,994.7009888,330.0105286,994.7925415
		c-0.0863647,0.078064-0.256012,0.1346436-0.2262268,0.1724243
		C329.7545166,994.9271851,329.9241638,994.8706055,330.0105286,994.7925415z M327.6046448,997.3410645
		c0.2480164-0.1131592,0.4634705-0.2640381,0.102356-0.0215454
		C327.6531982,997.3410645,327.6236877,997.3032227,327.6046448,997.3410645
		c-0.1290894,0.0755615-0.2449646,0.1130981-0.2720032,0.1671753
		C327.3596802,997.4541626,327.4755554,997.416626,327.6046448,997.3410645z M343.7016602,977.5722046
		c8.72052-6.5075073,13.1576233-21.1429443,25.9138489-19.9776611c-5.9403076,30.850769-24.9063721,69.383728-41.4100037,85.9088745
		c0.2962646-19.2730713,20.7603149-35.232666,19.6286926-58.0700073
		c-5.1885681,16.4282837-27.8239746,50.6050415-13.5805359,17.1825562
		c-8.3596802,9.5665894-14.8495178,22.6568604-21.0780945,36.2512207
		C312.6392517,1019.9359131,343.6611023,995.390625,343.7016602,977.5722046z M328.4587402,1032.0565186
		c1.4306641,0.5279541,0.5925903,2.2064209,0.5360107,3.4511719
		C327.5428467,1035.0146484,328.3886719,1033.3199463,328.4587402,1032.0565186z M317.5991211,1013.8824463
		C318.4181824,1013.4675903,316.3166199,1014.5614014,317.5991211,1013.8824463L317.5991211,1013.8824463z M316.839386,1000.493103
		C317.6584473,1000.0782471,315.5568542,1001.1720581,316.839386,1000.493103L316.839386,1000.493103z M314.8189087,1022.9345703
		C311.2841797,1018.2227173,319.5603027,1013.8259277,314.8189087,1022.9345703L314.8189087,1022.9345703z M315.0263672,963.7409058
		c-0.5900879,44.6727295-23.0638123,90.9832153-42.0406494,125.1974487
		c-2.788208,5.019165-8.1737366,32.0241699-17.4087372,45.6021729
		c-2.5661621,6.3579102-10.6670837,21.5388184-14.2853851,30.1031494
		c-11.2124634,26.7790527-16.3662567,60.2147217-28.9715729,88.0899658c-1.0723114,7.3356934-4.6931,6.1855469-1.452179-0.487793
		c14.8900757-72.1733398,37.6330719-121.0028076,58.2060394-182.6534424
		c-34.0917053,62.7686768-48.98703,123.3414307-65.6360474,185.3500977
		C226.6925659,1153.1994629,248.8297424,1040.4835205,315.0263672,963.7409058z M267.5519104,1015.1809692
		c0.0565796-0.0187378,0.1509094-0.1130981,0.2640076-0.1508789c0.0808411-0.0457764,0.1509094-0.0860596,0.2074585-0.1210938
		c0.1238708-0.078064,0.102356-0.0620728,0,0c-0.0270386,0.0159912-0.0350037,0.0214844-0.075592,0.0457764
		c-0.0752869,0.053772-0.0752869,0.053772-0.1318665,0.0753174
		C267.7028198,1015.0678711,267.60849,1015.1622314,267.5519104,1015.1809692z M269.8121338,1008.9579468
		c1.6783752,0.7919922,0.4256592,3.1115112,0.0971069,4.9946289
		C268.2118225,1013.1067505,269.4915771,1010.824707,269.8121338,1008.9579468z M285.6801453,984.2694702
		c1.6808777,0.7895508,0.4174194,3.1306152,0.1158752,4.9571533
		C284.0986023,988.4723511,285.3811035,986.0960083,285.6801453,984.2694702z M303.5523987,937.1763306
		C302.2698669,937.8538208,304.3901978,936.723877,303.5523987,937.1763306L303.5523987,937.1763306z M372.7703552,734.9277954
		c-0.1401367,0.0957642-0.2910461,0.1134033-0.2990417,0.1321411
		C372.4793091,735.0411987,372.6302185,735.0235596,372.7703552,734.9277954
		c0.0107422-0.017334-0.0350342-0.017334,0.078064-0.0565186
		C373.1772461,734.6828613,372.9697876,734.8146973,372.7703552,734.9277954z M376.7522583,732.8157349
		C382.6224976,730.116394,371.2536011,736.0795898,376.7522583,732.8157349L376.7522583,732.8157349z M384.0448608,725.1942749
		C392.116272,720.4581909,373.8156128,731.2316895,384.0448608,725.1942749L384.0448608,725.1942749z M390.4000854,720.590332
		c-3.6235352-3.3165283,3.222168-6.3552246,4.2674255-8.5429077
		C399.1369019,709.8962402,391.2649536,717.7237549,390.4000854,720.590332z M397.4154663,698.0531006
		C398.2345276,697.6395874,396.1329346,698.7333984,397.4154663,698.0531006L397.4154663,698.0531006z M399.7998047,695.545166
		C398.5280457,696.2064209,400.629364,695.1112671,399.7998047,695.545166L399.7998047,695.545166z M414.1886292,691.7519531
		C412.8575439,692.4295044,414.9778748,691.2965088,414.1886292,691.7519531L414.1886292,691.7519531z M419.0323486,686.6762695
		c-0.1238708,0.0565186-0.0753174,0.0565186-0.183197,0.0741577c-0.1401367,0.095459-0.1588745,0.1333008-0.1588745,0.1333008
		s0.0187378-0.0378418,0.1588745-0.1333008C419.1159363,686.6009521,419.3799438,686.4500122,419.0323486,686.6762695z
		 M422.952179,684.5804443c-2.2251587-4.315979,5.8219604-9.4857788,7.6700134-14.0321045
		C434.4396667,669.6983643,425.4523926,681.9414673,422.952179,684.5804443z M434.5527954,668.4362793
		c-2.1956482-2.0177002,2.4218445-11.1641846,6.2393494-9.5638428
		C440.0756836,664.6430664,435.7784729,663.6273193,434.5527954,668.4362793z M442.1877441,654.385376
		C446.4954834,658.1182251,435.1914368,656.3104248,442.1877441,654.385376L442.1877441,654.385376z M464.610199,608.6488037
		c6.0751953-12.3535156,1.4549255,6.8064575-3.6343079,16.991333c-5.1052551,10.1268921-12.9286499,20.218689-16.7999268,27.6878662
		C447.3305359,642.3889771,456.3475952,625.4717407,464.610199,608.6488037z M445.7142029,632.4156494
		c1.6784058,0.7906494,0.414917,3.1304321,0.1078796,4.9785767
		C444.1409302,636.6021729,445.3748779,634.2246704,445.7142029,632.4156494z M377.6761475,682.0896606
		c2.2063904,4.3548584-5.8244629,9.4871216-7.6402283,14.0696411
		C368.3735352,692.8780518,375.7822876,686.6345825,377.6761475,682.0896606z M364.6801758,702.7233276
		C360.0516663,707.5510254,371.0974731,696.0072632,364.6801758,702.7233276L364.6801758,702.7233276z M359.828186,707.8150635
		C360.6579895,707.3827515,358.5349121,708.5155029,359.828186,707.8150635L359.828186,707.8150635z M419.0135803,638.9675293
		c-12.6403503,4.6431885-25.8707886,28.765564-37.886322,42.5361328c-4.6687927-5.5604248,9.0195923-9.3751221,6.6407471-16.0307617
		c24.4699402-21.6184082,38.3955688-47.3262939,68.1268921-66.0794678
		c-13.273468,31.8529663-28.8289185,65.5365601-49.2416687,89.9835815
		c5.3234558-11.6932983,22.8994141-32.2544556,24.2492371-51.6594849
		c-18.5028687,36.3829346-40.4725952,66.2033691-63.59021,93.7983398
		c12.4169006-29.6654053,37.2612-56.3753662,55.3623962-83.1783447c-1.7266541-5.692627-7.0556335,9.8843994-10.3801575,1.7200317
		c-18.2978821,30.4049683-45.092865,56.9654541-63.6277161,93.77948
		C363.1714478,701.4990234,396.596405,674.3148193,419.0135803,638.9675293z M328.0330811,762.2105103
		c0.2452393-0.1116943,0.4985046-0.2452393,0.1696472-0.0565186
		C328.1004028,762.1727295,328.130188,762.2119141,328.0330811,762.2105103
		c-0.0915833,0.0957642-0.2154541,0.1509399-0.2074585,0.131897
		C327.817627,762.3614502,327.9414978,762.3062744,328.0330811,762.2105103z M348.3084106,750.3056641
		c-2.9633789,74.4293823-44.6536865,161.9400024-74.0536804,233.7213745
		c8.9009399-50.0875244,39.241394-106.7633057,52.2911377-158.1724854
		c-10.0002747,5.8677368-14.162323,24.5750122-20.5393372,39.7006836
		c-18.7288208,44.3775635-33.7697754,95.9011841-51.9410553,151.7138062
		c1.9989471-35.8928833,9.5746002-77.383728,18.9525299-114.2705078
		C288.0374756,843.6878662,311.1953735,790.6339722,348.3084106,750.3056641z M302.7145691,780.6242676
		c1.4519043,0.4888306,0.5765686,2.1484985,0.5575562,3.4133301
		C301.8199158,783.5474243,302.6955566,781.8877563,302.7145691,780.6242676z M321.1390991,758.3660278
		C319.829834,759.0087891,321.941864,757.8945312,321.1390991,758.3660278L321.1390991,758.3660278z M327.6774902,715.9364014
		c-2.1012878,0.810791-1.0803223,4.9030151-4.9598694,0.1130981c5.4098206,15.5-9.0383301,36.7761841-12.2740173,55.4258423
		c0.0162964-61.7380371,9.0736389-122.8942261,27.2098999-193.9158325
		c-26.9754028,56.1654053-30.3699646,134.2926025-33.6701965,193.5414429
		c-0.2449646,1.0560303-0.5925598,2.0379028-0.940155,3.0172119
		c-10.4044495-42.6682129,3.6613159-100.7355347,9.2325134-151.8024902
		c11.6516418-36.8141479,21.7650452-79.132019,44.2685547-116.2492371
		C370.7821655,570.871582,339.7252808,652.2896118,327.6774902,715.9364014z M358.5133972,505.0468445
		c0.385376,0.7340698,2.9959412-4.0183411,2.882843-4.0735168
		C363.914917,501.3101807,361.0136108,509.7600708,358.5133972,505.0468445z M362.8481445,475.1375732
		c1.4549255,0.4902039,0.6060791,2.1873779,0.5415344,3.4508667
		C361.9645386,478.0416565,362.7915955,476.382019,362.8481445,475.1375732z M380.2974548,572.6793823
		c-0.0673218,0.0374756-0.0485535,0-0.1130981,0.0388794c-0.0863647,0.0742188-0.2154541,0.1508789-0.2154541,0.1508789
		s0.1290894-0.0766602,0.2154541-0.1508789c0.0592957-0.0201416,0.1130981-0.041626,0.1616516-0.0631714
		c0.2234497-0.1186523,0.1669006-0.0728149,0,0C380.3244934,572.6658325,380.3217468,572.6658325,380.2974548,572.6793823z
		 M391.8765564,577.8977051c19.0791321-35.8348999,56.4967651-81.0086365,72.0709839-115.862854
		c-12.0450134,14.7703552-28.5461731,41.0047607-41.9542847,61.053894
		c-4.6122742-0.2990723,9.4990234-13.5416565,7.0906982-17.5960999
		c-16.2559204,18.485199-29.6532593,42.2897644-44.3654175,63.622467c-4.3294983,1.3953857,2.9956665-7.506958,5.2208557-11.5818481
		c7.0181274-12.9192505,18.5701599-31.1390991,21.4527283-42.6599731
		c26.668335-35.1802673,49.3440247-67.0736084,81.0718079-91.7120972
		C472.1938477,486.8471375,429.5849304,533.3651733,391.8765564,577.8977051z M406.0256348,542.7808838
		C406.8391724,542.3861084,404.7243652,543.4986572,406.0256348,542.7808838L406.0256348,542.7808838z M408.4207458,540.2539062
		C409.2585754,539.8012085,407.1759949,540.9515991,408.4207458,540.2539062L408.4207458,540.2539062z M411.3706055,536.2369385
		c1.4411621,0.5078735,0.5953369,2.2050171,0.5467834,3.432373
		C410.5029907,539.1964722,411.3518372,537.5004272,411.3706055,536.2369385z M413.7844849,533.6721802
		C409.156189,538.5012817,420.1934814,526.9749146,413.7844849,533.6721802L413.7844849,533.6721802z M418.0976868,525.1268311
		c1.6808777,0.7920532,0.4066467,3.149353,0.0590515,4.9786377
		C416.5053711,529.3509521,417.7420959,526.9749146,418.0976868,525.1268311z"/>
	<path d="M246.8305054,1646.3439941c-0.0874481,0.1318359-0.274765,0.3687744-0.4954529,0.6437988
		c0.0794525-0.1025391,0.1481323-0.1859131,0.2342072-0.3017578
		C246.6986389,1646.5163574,246.7552032,1646.4029541,246.8305054,1646.3439941z"/>
	<path d="M220.2082367,1651.8045654c0.0469055-0.0268555,0.0860748-0.0510254,0.1266327-0.0753174
		C220.2311401,1651.7669678,220.2794189,1651.7454834,220.2082367,1651.8045654z"/>
	<path d="M371.2723694,872.5678711C370.0303955,873.2655029,372.1319885,872.1705933,371.2723694,872.5678711
		L371.2723694,872.5678711z"/>
	<path d="M211.1776428,1665.3450928C211.9696655,1664.8951416,209.895401,1666.0264893,211.1776428,1665.3450928
		L211.1776428,1665.3450928z"/>
	<path d="M220.3602448,1651.7156982C220.5218964,1651.6188965,220.5853577,1651.5783691,220.3602448,1651.7156982
		L220.3602448,1651.7156982z"/>
	<path d="M145.1978455,1899.8261719C145.2800446,1899.7830811,145.2963257,1899.7696533,145.1978455,1899.8261719
		L145.1978455,1899.8261719z"/>
	<path d="M98.0332031,1845.5197754c1.0913391,1.5462646,2.1688919,3.0793457,3.2169189,4.5880127
		C100.2142334,1848.5692139,99.1339264,1847.041748,98.0332031,1845.5197754z"/>
	<path d="M436.1152954,275.7366028C434.8330688,276.4155273,436.9451294,275.302948,436.1152954,275.7366028
		L436.1152954,275.7366028z"/>
	<path d="M317.5991211,1013.8824463C316.3166199,1014.5614014,318.4181824,1013.4675903,317.5991211,1013.8824463
		L317.5991211,1013.8824463z"/>
	<path d="M270.1867676,752.5200195c0.2557068-0.1318359,0.4604187-0.2653809,0.1318665-0.0766602
		C270.2405396,752.4998779,270.2325439,752.5200195,270.1867676,752.5200195z"/>
	<path d="M266.8272095,636.2088623C267.3955078,641.6790771,265.4936523,623.2182007,266.8272095,636.2088623
		L266.8272095,636.2088623z"/>
	<path d="M380.3460083,572.6550903C380.5129089,572.5822754,380.569458,572.536438,380.3460083,572.6550903L380.3460083,572.6550903
		z"/>
	<path d="M321.9446411,543.1513672c0.0700684-0.0499268,0.134613-0.0905151,0.1884155-0.1213989
		c-0.0322876,0.0176392-0.0538025,0.0308838-0.1158752,0.0634766
		C321.9526367,543.1323242,321.9633789,543.1121826,321.9446411,543.1513672z"/>
	<path d="M372.8484192,734.8712769c-0.1130981,0.0391846-0.0673218,0.0391846-0.078064,0.0565186
		C372.9697876,734.8146973,373.1772461,734.6828613,372.8484192,734.8712769z"/>
	<path d="M399.7998047,695.545166C400.629364,695.1112671,398.5280457,696.2064209,399.7998047,695.545166L399.7998047,695.545166z"
		/>
	<path d="M363.2144775,468.6502075c-0.1051025,0.0187683-0.0565186,0.0201416-0.1238403,0.0565491
		C363.3276062,468.6138,363.543335,468.4628906,363.2144775,468.6502075z"/>
	<path d="M297.7977295,525.715271C298.6303101,525.28302,296.4804688,526.3768311,297.7977295,525.715271L297.7977295,525.715271z"
		/>
	<path d="M268.0233765,1014.9089966C268.1257324,1014.8469238,268.1472473,1014.8309326,268.0233765,1014.9089966
		L268.0233765,1014.9089966z"/>
	<path d="M129.0335236,1547.8579102c0.2265015-0.1699219,0.5120239-0.2668457,0.0943604-0.0943604
		C129.0553284,1547.8200684,129.0903625,1547.8388672,129.0335236,1547.8579102z"/>
	<path d="M115.8477783,1293.559082C116.0039215,1293.4890137,116.0510941,1293.4487305,115.8477783,1293.559082
		L115.8477783,1293.559082z"/>
	<path d="M199.6148224,1267.0336914c0.0364227-0.0270996,0.0686951-0.048584,0.1037292-0.072876
		C199.6404877,1266.9743652,199.6793823,1266.9822998,199.6148224,1267.0336914z"/>
	<path d="M144.2091217,1583.8125c0.019043-0.0107422,0.0336609-0.019043,0.0513153-0.0297852
		C144.2521667,1583.7800293,144.2510529,1583.7800293,144.2091217,1583.8125z"/>
	<path d="M238.6178589,1019.0873413c0.2289734-0.107605,0.43367-0.2019653,0.0416565-0.0375366
		C238.6244812,1019.0737915,238.6206207,1019.0820923,238.6178589,1019.0873413z"/>
	<path d="M323.8842773,1052.0543213C324.7355957,1051.5828857,322.6020203,1052.7359619,323.8842773,1052.0543213
		L323.8842773,1052.0543213z"/>
	<path d="M330.1316223,994.7387695c-0.0752869,0.053772-0.0673218,0.0375366-0.1210938,0.053772
		C330.290802,994.7009888,330.5007324,994.5663452,330.1316223,994.7387695z"/>
	<path d="M230.4777679,1029.6668701C229.1764984,1030.383667,231.3075867,1029.2332764,230.4777679,1029.6668701
		L230.4777679,1029.6668701z"/>
	<path d="M138.0991516,1805.5911865C136.8166351,1806.2729492,138.9289703,1805.1602783,138.0991516,1805.5911865
		L138.0991516,1805.5911865z"/>
	<path d="M250.3947449,1591.9405518C249.0962219,1592.659668,251.2058105,1591.5443115,250.3947449,1591.9405518
		L250.3947449,1591.9405518z"/>
	<path d="M422.7852783,90.6020126C423.5693054,90.1683426,421.494751,91.2999649,422.7852783,90.6020126L422.7852783,90.6020126z"/>
	<path d="M187.960434,1485.3829346C186.6213531,1486.0806885,188.7712097,1484.9841309,187.960434,1485.3829346
		L187.960434,1485.3829346z"/>
	<path d="M421.5270386,152.7872162c0.019043-0.0066223,0.0298157-0.0121307,0.0915833-0.0322723
		C421.9526978,152.5880432,421.7535095,152.6727295,421.5270386,152.7872162z"/>
	<path d="M420.7214966,65.295639C419.4392395,65.974556,421.5245667,64.8713531,420.7214966,65.295639L420.7214966,65.295639z"/>
	<path d="M359.828186,707.8150635C358.5349121,708.5155029,360.6579895,707.3827515,359.828186,707.8150635L359.828186,707.8150635z
		"/>
	<path d="M321.1390991,758.3660278C321.941864,757.8945312,319.829834,759.0087891,321.1390991,758.3660278L321.1390991,758.3660278
		z"/>
	<path d="M454.906189,246.9912567c-0.0350342,0.0267639-0.0402832,0.0350342-0.0430298,0.0402832
		C455.0921326,246.9225616,455.2645264,246.8119507,454.906189,246.9912567z"/>
	<path d="M156.2489166,1561.123291C155.0069427,1561.8210449,157.0812073,1560.6894531,156.2489166,1561.123291
		L156.2489166,1561.123291z"/>
	<path d="M379.238678,241.6435242C382.2506104,247.3184357,376.2780457,235.9685974,379.238678,241.6435242L379.238678,241.6435242z
		"/>
	<path d="M427.29245,171.1201477c0.0753174-0.0565491,0.0565491-0.0187531,0.1804199-0.0753174
		C427.8204651,170.8186188,427.5564575,170.9692535,427.29245,171.1201477z"/>
	<path d="M419.0323486,686.6762695c0.3475952-0.2262573,0.0835876-0.0753174-0.183197,0.0741577
		C418.9570312,686.7327881,418.9084778,686.7327881,419.0323486,686.6762695z"/>
	<path d="M185.6058807,1163.8328857c-0.075592,0.053833-0.075592,0.053833-0.1321411,0.0753174
		C185.7189941,1163.795166,185.9830017,1163.6442871,185.6058807,1163.8328857z"/>
	<path d="M259.1114197,1606.194458C259.962738,1605.7229004,257.8291626,1606.873291,259.1114197,1606.194458
		L259.1114197,1606.194458z"/>
	<path d="M376.1459045,235.7611542C376.975708,235.3260956,374.8744202,236.4210358,376.1459045,235.7611542
		L376.1459045,235.7611542z"/>
	<path d="M364.6801758,702.7233276C371.0974731,696.0072632,360.0516663,707.5510254,364.6801758,702.7233276
		L364.6801758,702.7233276z"/>
	<path d="M256.6812744,1608.7026367C255.3990326,1609.3815918,257.513855,1608.2689209,256.6812744,1608.7026367
		L256.6812744,1608.7026367z"/>
	<path d="M197.5270386,1279.4207764C198.3190613,1278.9708252,196.2445221,1280.102417,197.5270386,1279.4207764
		L197.5270386,1279.4207764z"/>
	<path d="M196.7107544,1214.1577148c-0.0565643-0.1700439-0.075592-0.414917-0.0943604-0.7545166
		C196.616394,1213.7805176,196.713501,1213.9689941,196.7107544,1214.1577148z"/>
	<path d="M245.437912,1648.0976562c-0.4714508,0.5657959-0.8703613,1.0748291-1.1316071,1.4171143
		C244.6458893,1649.1186523,245.0417633,1648.609375,245.437912,1648.0976562z"/>
	<path d="M243.8726349,1650.0023193C243.2690277,1650.7404785,243.1156464,1650.947998,243.8726349,1650.0023193
		L243.8726349,1650.0023193z"/>
	<path d="M115.1782379,1778.7290039c0.3205643-0.1669922,0.1509018-0.1103516-0.0565491,0.0189209
		C115.1216888,1778.7479248,115.1216888,1778.7479248,115.1782379,1778.7290039z"/>
	<path d="M161.1491852,1651.5217285c0.019043-0.005249,0.019043-0.0079346,0.0540771-0.0186768
		C161.4794006,1651.3330078,161.3500214,1651.4086914,161.1491852,1651.5217285z"/>
	<path d="M161.1491852,1651.5217285c-0.0725555,0.0270996-0.0753021,0.0323486-0.134613,0.078125
		C161.0617371,1651.5731201,161.1061554,1651.5488281,161.1491852,1651.5217285z"/>
	<path d="M83.2485123,1377.3087158C84.097084,1376.8400879,81.9850235,1377.9526367,83.2485123,1377.3087158
		L83.2485123,1377.3087158z"/>
	<path d="M404.0239258,448.3842468c15.2564392-25.9151917,33.1043701-55.9794922,38.513916-81.8152771
		c-22.4897461,44.9243164-49.8422546,92.6048279-73.8732605,126.8394775
		C382.9725647,485.3331604,393.6114807,466.1124878,404.0239258,448.3842468z"/>
	<path d="M97.72892,1426.1652832C88.5449371,1427.6577148,104.326622,1425.1252441,97.72892,1426.1652832L97.72892,1426.1652832z"/>
</g>
</svg>
