<?xml version="1.0" encoding="UTF-8"?>
<svg id="rosemary" xmlns="http://www.w3.org/2000/svg" version="1.1" viewBox="0 0 1000 1919.8857313">
  <!-- Generator: Adobe Illustrator 30.0.0, SVG Export Plug-In . SVG Version: 2.1.1 Build 123)  -->
  <g id="outline">
    <path d="M917.9786732,1427.0368262c-39.539367,31.0343795-94.6098544,31.9498189-131.4908109,53.1609878,28.150131-20.3446217,55.0309805-60.930823,72.7034822-95.3148853,17.3238682-34.0530201,108.2542261-255.3598883,73.2900415-231.2847158-60.9527385,42.1341931-65.8748347,97.7229381-105.1179001,143.1183658,6.1600769-101.612401,119.6704388-206.8874442,76.4323132-309.414007-11.3659938-27.237689-82.8084004,154.0214804-93.6857667,199.3447244,2.7021924-41.5291579,43.6396316-155.4745378,11.1895395-213.9179011-14.7165611-26.5905426-15.0819506,45.6925647-26.9465468,68.3288807-20.8263699-60.7805593,46.0910241-114.5740504,90.3442408-169.3902982,21.3477232-26.4579194,64.8688341-178.7257166,35.4477017-166.8779255-37.4954753,15.0995911-65.9217123,87.8215492-101.6282725,128.2827927,48.2890614-105.4609811,102.3964456-319.3045856,36.5125695-272.8279763-25.0271706,17.4024397-47.0661661,98.2107303-77.6896051,145.4675514-10.4763517-36.2489446-3.2835923-72.0074436-15.4238031-108.2700976,12.1380979-16.1112426,120.1487964-231.4113442,74.4915128-344.7903604-7.4809042-9.1520848-14.6715016,1.7343229-22.0046972,3.268507-4.4145998-49.7936645,12.0891565-103.3346359,11.7048489-154.2314467-.3525646-30.4812831-8.7016867-127.1667723-20.8654837-95.3449085-21.4314542,55.9155122-19.281916,80.5609303-24.7742577,118.574221-5.8586158,40.6218263-14.5151939,79.6304546-19.2243263,120.7091653.5015016.6015955,1.1791135,1.1915945,1.8815892,1.9486133-2.4398451,1.640666-2.8915208-.9889006-1.8815892-1.9486133-4.3604989-5.0161462-8.6346625-6.8659923-12.8839624-5.7989624-24.6969638,52.8161871-25.1581231,106.2566714-42.8310671,159.2673955-3.5656931-60.2777309-13.9415087-252.1214046-40.209166-248.4543891-24.4973164,3.4338561-44.1205444,243.2471456-26.9667425,327.0989406-9.3401356.5213042-9.4049977-19.9590365-18.4256877-15.3057247-24.2701027,12.8268641,29.7371875,343.7984623,28.1527353,350.4403366,6.6517018,5.1690143.6221843,5.0711315,0,0-32.7983325-65.2952038-31.5342104-121.8316227-96.5141945-199.048865-22.8398453-26.9942106-11.4201438,64.2088136-3.1070889,92.9377402,27.5477001,95.3045663,57.3818859,192.382127,62.5329157,286.0103532-6.1888718,1.8961832-12.3446246-12.3093927-18.4042145-7.7595653-17.1744398,65.6284081-3.8052896,134.6386843,1.3997919,200.9970361,2.6377726,33.5909763,9.8893502,67.0033362-6.5980432,93.029235-25.8386833-34.6202191-5.6817193-65.6700279-59.411626-109.143475-11.579842-9.4157098-9.7330424,17.9885568-12.6666745,27.6193924.6398248.6054283,1.2688885,1.32466,1.9533306,1.9975547-2.3951787,1.7072479-2.9069993-.8819765-1.9533306-1.9975547-10.0009915-21.2626655-42.4570293-98.4150949-48.0357063-67.9144515-7.9124334,43.9006522.2223982,79.2744504-4.6469239,117.149467,1.5977686,3.9306896-2.3534606,2.0572573,0,0-7.5585913-16.8536674-10.0868355-33.6836995-13.1758907-50.5132894-3.3874699-6.7930225,61.1214781-284.4598553,2.5956614-407.6174157-9.0507133-18.8709756-34.8997647,311.9198934-45.2077208,330.4795803-25.7829118-50.0702127,5.1561401-453.3017743-32.6119524-454.8449998-40.989427-1.5544289-32.6252687,71.1993214-44.9849295,105.3209871-24.5925948-87.4556682,29.1931325-175.8187173-57.0525636-287.8953821-16.6595726-21.6053042-10.5746276,54.5685435-10.2774906,81.7860369.110806,29.6173402,3.4871216,59.5850828-1.3423005,87.4136062-1.5071583-36.6173315-15.2189471-64.1744662-26.2075617-97.2419762-27.5347769-82.2725514,19.1359272-155.3461404-62.3697287-260.0291208-26.2874108-33.7476771-14.450774,76.8471355-10.1439337,111.5816003,4.5644213,37.2906193,6.3854726,75.4975134,15.4452273,111.9435502-16.6222278-52.5426363-28.4781758-97.7959571-92.7926359-161.9463457-16.0777305-16.0326711,21.9995377,105.7547275,24.722712,125.1924599-28.9895541-50.2754618-35.8718602-96.9865081-99.9012221-154.5221466-26.3002849-23.7192175,10.3187664,65.1075461,20.7366932,95.3543922,10.7979103,31.0270579,98.8796939,244.7306685,146.942033,309.8777215,9.4372322,30.0544711,13.5348924,59.914012,15.201798,89.8019056-37.4112529-37.4190167-67.5275886-72.5703676-112.0972536-85.9970582-17.8953913-5.4490021,39.5569584,83.0750228,51.8105304,97.7108993,23.3091615,27.9083725,80.9929017,128.9402089,96.2925824,147.1125416-18.4024455-10.6940327-49.47245-48.6016769-55.1786891-30.87247-9.3899615,29.4825057,11.0182447,55.1790822,24.3830708,76.8222226,41.7734717,67.5851291,84.3241578,143.9998509,109.5136309,212.5339316-26.9293486-24.4375647-48.6106691-81.7099714-99.5465446-102.4732973-22.4452186-9.204859,15.6170134,50.2853385,27.9633578,72.9911847,13.8143889,25.8812368,27.58932,49.32995,35.3334069,73.4265958-22.0780601-7.1768388-37.783964-37.5559641-66.1878433-34.8052725-24.9159715,2.3801425,12.9543279,37.0411461,29.7053462,56.3200155,52.7285742,60.972492,97.4906141,140.8180724,135.1011212,198.1531791-55.1851261-29.6289858-119.4415544-103.6541306-169.1622491-89.0264601-11.0624688,3.3737604,5.2489125,21.9990955,11.2797076,30.131765,65.4304314,88.9285282,173.8551169,131.6329669,244.5658108,159.243367,107.6161211,86.3581237,110.1362084,214.380682,161.5791871,317.7214601,45.5792035-25.0766525-12.0745134-82.8341487-10.0074286-121.0900824-38.874187-108.2014028-42.5403672-215.5006334-15.1652885-322.4057288,78.2945912,100.8879606,19.5515357,215.8386532,15.1652885,322.4057288,8.4860695,23.0266185,31.2258699,25.7021782,49.7138154,28.8646947,12.5859409-69.6296105,22.5169109-151.6564232,29.4507626-228.3666113,5.6447676-62.0287607,93.8313132-48.6398571,145.9630582-60.5323636,37.7474545-8.4628764,81.9410179-21.2613388,113.1256611-49.891105,31.6745974-28.6791499,68.3713358-66.6894431,48.6274252-123.7441197-10.2203923-29.2472334-50.9062453,41.6987329-76.4537864,61.9106822ZM912.9680796,1236.9678667c.0141517-1.5200815-.012481,2.3702167,0,0h0ZM150.1252276,814.4075607c5.2149582,9.7270476-9.4285839-5.2960849,0,0h0ZM903.9143197,1249.862492c-5.1672944-6.0707442,9.2319339-5.7345426,0,0,5.1377134,6.0999813-9.3732055,5.7418641,0,0ZM860.1227046,1271.2776324c7.5723499-11.801454,7.7286576,3.6897663,0,0h0ZM860.2420606,1278.767922c-2.4994985,1.7678349-4.8886333,5.4563237-7.4250344,3.5704103,2.4479528-1.8300435,4.9221453-5.3918547,7.4250344-3.5704103ZM900.3546706,1009.6662215c9.3280969,36.0818756-7.346512,65.5446279-21.2549508,100.0403315-13.8444613,34.4621916-30.9304528,76.1094279-44.9741683,116.379181-21.0217914,60.7423299-28.8002257,120.2454507-75.6087617,169.7806007,25.0443197-127.9336678,81.0899491-265.1766126,141.8378808-386.2001132ZM816.535061,1075.0206365c-1.5239143-3.8061249,2.4273641-2.0198633,0,0,1.8034599,1.9043892-.7918084,3.7464715-1.826653,5.5752374.7394274.5384533,1.2971919,1.2959143,1.941734,1.9082219-1.1576402,52.1175441-30.2808003,103.5635203-24.5904819,155.8875911-21.7869671,36.2124351-23.7029037,64.9173332-39.4650705,103.4089816,5.4417297,2.9528941.8948506,14.6173516-3.5536543,11.083893,1.6475944-3.6541413,1.8395271-7.3846922,3.5536543-11.083893,17.2280984-87.1276726,35.4068681-174.3235978,62.1138184-261.2047946-1.7299987-1.8669952.8918532-3.7266689,1.826653-5.5752374ZM749.1337076,1371.4485234c.0205888-1.5239143.0437819,2.5265244,0,0h0ZM808.9970585,1041.3266181c.0094345-1.6131979.0321853,2.4372408,0,0h0ZM831.7591676,898.3826427c26.1886436-26.4995392,50.3986997-68.020098,74.3849818-100.8896805-8.4156548,35.3510474-36.6220488,81.3505766-74.3849818,100.8896805ZM818.6094673,851.6368068c37.3215271-33.4247918,58.0577289-93.1232849,96.308454-126.5055233-5.0019945,58.0040703-58.9925287,129.2046692-106.9153161,174.7645124,7.2343793-16.018028,4.5352334-32.2675447,10.6068621-48.258989ZM831.0579695,284.1406216c-1.5458298-3.7812611,2.3985692-1.9902331,0,0,3.8409146,2.6158571,2.0370616,5.0586505.088006,7.5018861,11.2973481,93.2800349-14.1149655,185.8154338-71.3238368,277.7969501.5749628-36.4004859,24.956756-63.9601757,34.1173908-98.0024346,16.005203-59.8380448,26.7335831-121.1308669,37.2064461-179.7945154-.8901334-2.5188097-1.7398754-4.9775238-.088006-7.5018861ZM810.9864563,304.2615184c1.9279754-.9193213,3.7155146-3.5446129,5.5717978-1.7630685.598549,35.6112327-10.2298759,65.4896917-19.5245099,101.9940552-9.4393451,37.8312347-21.4180887,73.0234192-33.9318951,109.2336922-5.4803521,15.6899832-5.461434,35.2522802-17.9937163,44.2424555-3.1169656-7.1686819,4.5464368-13.5520415,7.2327086-22.067348,2.8885234-9.6974175,2.5720752-21.7697688,5.1862125-31.6600035,17.2602837-65.2123082,35.6146723-135.9818201,53.4594024-199.9797829ZM676.5658952,191.7644787c9.5947683,63.0382992,14.4761292,119.2269199,14.1592388,180.886016-.3027387,51.9204519,2.7287761,101.9751862-15.4615902,150.4162804-8.6033125-110.4943747,3.6601362-220.7521011,1.3023514-331.3022964ZM661.8694807,180.377847c15.3761393,131.1885144-12.6747822,261.6182902,8.2409204,392.9531865,1.5638634,3.8658275-2.3251572,1.9412918,0,0-40.9589124-131.7574332-29.428454-262.5109788-8.2409204-392.9531865ZM652.600202,939.6399697c-22.7097281-92.3142783-63.663481-184.8372452-82.4648772-277.0398821,44.4773348,92.709298,88.2818732,185.3971718,82.4648772,277.0398821ZM525.0937392,1274.1369188c1.8991806,1.2688885.9901782,2.4514416.0150362,3.678612,3.2388768,3.1174079,3.4278121,6.291914,1.866553,9.2392555,1.9554435,1.4247048,1.1086989,2.5553192.0884483,3.7159568,14.0600293,38.1949044,29.6324255,76.3215563,13.6126286,113.9411049-10.1246717-38.1889096-14.9699162-75.9690409-13.6126286-113.9411049-1.9588831-1.2288902-1.0721894-2.299802-.0884483-3.7159568-3.253913-3.0104837-3.4205397-6.2094605-1.866553-9.2392555-1.9752461-1.3242178-1.0550403-2.4174873-.0150362-3.678612-1.5243565-3.8928534,2.3869727-2.0795167,0,0ZM484.2254372,1453.8283429c9.4964434,6.1025364-4.9955574,5.9157632,0,0-25.5059705-83.0561538-41.1809175-165.8310421-47.5612797-248.4182728-2.3767029-1.9932797-2.7605683-3.8164439-1.7635108-5.7169512-1.5307936-3.8885784,2.2873701-2.0125909,0,0,2.3651063,1.9043401,2.7541312,3.8211611,1.7635108,5.7169512,32.3397283,83.0973314,42.3776224,165.7812163,47.5612797,248.4182728ZM488.0190811,1465.0827444c1.9301375,1.257685,1.0279653,2.5226916-.0635353,3.6343879,2.5098175,1.9038978,2.9653696,3.7756594,2.012984,5.7422572,2.4381253,1.8550056,2.8606131,3.7494689,1.7733875,5.5164193,2.521414,1.9927883,2.9770208,3.864943,1.941734,5.6937581,1.8184961,1.2362118,1.0348446,2.5183675-.018869,3.7009206,1.5595393,3.8598327-2.4248089,2.008709,0,0-1.8184961-1.2357695-1.0348446-2.5175321.018869-3.7009206-2.554877-1.9700866-2.8653303-3.8426344-1.941734-5.6937581-2.3869727-1.7926987-2.90867-3.6202362-1.7733875-5.5164193-2.5097684-1.9035047-2.9473415-3.6910439-2.012984-5.7422572-1.918934-1.1687945-.9235963-2.4965011.0635353-3.6343879-1.6045987-3.9259232,2.3917391-1.9859581,0,0ZM497.5030925,1496.906328c5.1256746,9.5934908-9.495608-5.3381961,0,0h0ZM448.4802054,807.2848228c40.730028,114.3305229-6.0840606,226.9220548-13.9677483,340.3817554,1.5527091,3.7769861-2.3985692,1.9902823,0,0-5.0255807-5.7886434-4.3947972-11.3144972-9.3800848-17.0425536.6402179-107.9205796,3.6197939-215.8166885,23.3478331-323.3392018ZM327.6713885,808.641275c2.4771899,1.9266978,2.8988424,3.8211611,1.8635556,5.6499271,1.9258625,1.251248,1.1284523,2.4552744.0747388,3.6382698,24.0137993,53.9029704,25.4032722,107.1442005,34.0860408,160.679177,5.0054341,16.2959029,9.9263019,32.552692,7.6895929,48.6171553,3.2655095,3.0993742,3.4205397,6.2094605,1.8446375,9.3508968,1.5574263,3.8705447-2.3315943,1.9451245,0,0-3.2436432-3.2114578-3.4321362-6.2987933-1.8446375-9.3508968-4.2587343-16.2366426-9.5359994-32.4470455-7.6895929-48.6171553-15.3718152-53.5770386-26.5772754-107.2064582-34.0860408-160.679177-1.8850288-1.1915945-1.0614773-2.500383-.0747388-3.6382698-2.4281994-2.0554883-2.760126-3.816837-1.8635556-5.6499271-1.6153599-4.0148137,2.4587141-2.0306245,0,0ZM312.9543852,804.550445c30.9532036,126.0070191,49.2324604,251.7379323,75.9698762,377.4637351,3.2616768,3.295582,3.4321362,6.2978597,1.8777564,9.3280969-3.1985346-3.1444337-3.4025061-6.1244028-1.8777564-9.3280969-41.6562286-126.1869622-60.8196239-251.8942892-75.9698762-377.4637351-9.3182693-6.1257295,5.0874453-5.7938029,0,0ZM460.7462093,1492.5050446c-57.0474041-88.6996438-62.55262-176.2322129-87.9293086-264.2933585,63.6046629,88.7331559,59.3854355,176.0870595,87.9293086,264.2933585ZM362.2345093,1287.606556c-4.6408799-3.8782594-6.4984406-7.5469947-3.6700129-11.1435955,3.1392742,3.7460293,4.9345772,7.5534318,3.6700129,11.1435955,1.5574263,3.8705447-2.3535098,2.0572081,0,0ZM274.1501705,498.5158001c38.9343318,79.0404556,27.6919691,156.9443512,34.6481294,235.1754071-8.8060065,4.4115532-10.7554551,5.5292935-16.306615,9.0786236-.6621335,65.0182134,20.6585148,130.6655395,25.1460844,195.8992718-55.0524046-147.5178802-42.0465802-293.6397522-43.4875988-440.1533025ZM293.6621994,914.0451579c8.0193575,23.1666124,24.2993397,44.6396865,33.4252341,67.6238007,13.7628923,34.8027173,10.4248061,76.0918365,19.0465453,108.3885691-24.818875-55.8206268-32.8115997-111.1362633-72.5531693-167.1346711,1.6943737-38.3924389-17.7583948-77.3078526-26.501259-115.960919,33.7957831,36.5490298,34.3174804,71.8442565,46.5826489,107.0832203ZM287.363013,1062.8404766c-5.8363072-6.8500716-4.2982412-13.8479009-12.9736882-20.7735958-5.356672-84.5057715-30.2751495-169.2932508-49.3960405-254.0969947-1.6377177-3.9036146,2.3848598-2.0684116,0,0,41.2109899,92.0695223,45.4894285,183.2639474,62.3697287,274.8705904ZM175.8381179,315.9822388c49.6086111,77.3503569,32.5746075,153.3794935,43.7212005,229.8384885,3.3174975,3.2479182,3.3608862,6.336089,1.9116616,9.3920744-3.1723441-3.2487535-3.3540069-6.2540778-1.9116616-9.3920744-13.0067089-16.8790226-13.7435811-33.780796-35.1290423-50.968503-8.273548-59.6774621-22.6766582-119.4721182-8.5921582-178.8699855ZM174.9728974,706.8399879c-75.9690409-117.3809557-120.287955-234.3127417-158.1397785-351.0436028,1.9035047-2.5093752.8197188-7.6474817,5.467478-5.5744021,79.0614867,106.5199032,100.2125108,211.7031076,154.2881027,317.6196955-7.3962887,12.912708,3.3029035,26.1444195-1.6158022,38.9983094ZM97.6981146,390.8476912c86.2005875,111.4484856,93.9377951,221.4893664,121.3768513,331.8051248,3.5540965,5.6447676,11.2067378,11.4669231,5.5494892,16.9755786,8.3138902,6.3163847,6.8745914,12.3961702,7.4637059,18.6120187,4.7340454,3.8156085,6.5323458,7.6118568,3.6863267,11.3260938-3.1320018-3.7503043-4.9345772-7.5529895-3.6863267-11.3260938-6.1815502-6.2403683-7.2648939-12.4141547-7.4637059-18.6120187-3.8958999-5.7929184-5.9192029-11.335086-5.5494892-16.9755786-53.5723214-110.7962289-90.0960452-221.333501-121.3768513-331.8051248ZM189.8165783,733.3455219c3.5184224-8.1266747.9618256-16.1464254,1.6600263-24.1769372-3.1839406-3.2513578-3.4055035-6.3167778-1.8631133-9.4354632-1.5458298-3.7812611,2.3535098-2.0572573,0,0,3.1942596,3.050826,3.3724337,6.3386933,1.8631133,9.4354632,33.4793349,104.8298045,54.4916427,209.4474806,71.7364971,314.0333645-7.8055093-10.6274508-15.7342074-21.3661499-27.6309889-32.0885352-.8008007-5.6963133,6.3430174-11.1684593,1.7519142-16.871701-24.076057-80.4260958-29.7496194-160.5653736-47.5174487-240.896191ZM274.5559515,1064.4541658c36.7907884,66.308526,83.0977736,150.4102364,82.1333928,210.0559063-37.8857778-97.519802-90.5275744-195.3303039-148.6351782-293.3366695,29.8209186,29.8608677,50.7946039,54.7999831,66.5017854,83.2807632ZM197.3073592,988.110694c-.4373766-.2918792-.8433541-.6329455-1.2258437-.9727342-.2537482-.2041189-.51413-.4096137-.78203-.601399-.0716922-.0485483-.1163586-.115081-.0562629-.1554724-.4388016-.1998439-.78488-.4974232-1.1043256-.7543653-.186675-.136112-.3546284-.2594482-.4908387-.3508939-.2752706-.2794965-.3980663-.3903025-.3980663-.3903025,0,0,.1227957.110806.3980663.3903025.1600422.0890379.3229344.2158629.4908387.3508939.2970879.2165999.6544679.4743283,1.1043256.7543653.263281.2352724.5444481.4958016.8382929.7568714.453543.3647999.877505.7227205,1.2258437.9727342.1227957.1111991.3190034.2593499.5757981.3675516,1.5466651,1.2349342,2.2646193,1.8846357,0,0-.2567948-.1082017-.4530025-.2563525-.5757981-.3675516ZM202.6816225,1001.5154692c-11.6902058-8.112523,3.4338561-7.6917059,0,0,61.7586987,92.8111118,108.6462484,184.1811557,139.3671279,280.1878046,12.2338186,20.7967889,22.3902333,41.3831692,24.2598329,61.8698978,2.8378622,2.5351235,5.5236918,4.9886781,3.6644603,7.5650283,9.9704769,13.1411502,15.6118539,26.3664737,16.7918028,39.3783421,9.380527,6.0737416-5.0140333,5.8311477,0,0-7.7226136-13.2394752-15.1150696-26.4200832-16.7918028-39.3783421-2.6974752-2.5423959-5.5151418-5.1780065-3.6644603-7.5650283-10.3080052-20.6688337-18.461755-41.372408-24.2598329-61.8698978-40.2040557-93.3083384-85.3989024-186.5806095-139.3671279-280.1878046ZM369.3885972,1524.1650481c3.109251-.2997413,6.1390459.6930412,9.1791598,2.0464961-3.0310725,4.7778273-6.026127.7415403-9.1791598-2.0464961-42.2255897-22.9411677-94.337139-64.5699282-130.6461301-93.7561813,42.2655388,6.8346423,96.498716,70.6776241,130.6461301,93.7561813ZM415.5350488,1571.693258c-60.0376922-22.4928824-129.7590924-67.6907757-183.9570377-122.7573811,61.2984238,31.190638,122.7153191,88.9731454,183.9570377,122.7573811,7.7221714-3.4892836,7.8295377,12.1315625,0,0ZM221.1489301,1268.0966892c-1.0236411-1.8674375-.661249-3.7181189,1.7557961-5.5370573,126.8383345,102.5613525,155.8270532,240.8485764,262.4521607,343.8573296-124.148623-91.8819137-157.2161822-228.2879906-264.2079568-338.3202723ZM523.6771422,1594.1702197c-19.2041306-28.2101776-32.4260145-56.3779491-39.0412068-84.5542707-3.1771104-3.8173284-4.9345772-7.5534809-3.7082422-11.2148947-2.4432356-1.9481711-2.8825286-3.724556-1.9588831-5.5752374-2.3359184-1.9335771-2.787201-3.7988525-1.8159409-5.5941555-2.3719365-1.9000651-2.827101-3.7717775-1.8704349-5.7319383-26.5291694-99.6779394-66.1234726-199.7376312-57.0855843-298.8418854,15.4667005,94.6291165,33.06751,198.6078522,57.0855843,298.8418854,2.5098175,1.9039469,2.9057217,3.9027301,1.8704349,5.7319383,2.4806296,1.9327418,2.9430665,3.8873008,1.8159409,5.5941555,2.5432804,1.881147,2.9275881,3.7910887,1.9588831,5.5752374,4.6898213,3.7490267,6.4919544,7.5517119,3.7082422,11.2148947,14.965592,14.2347638,10.9319094,47.1047885,29.6731608,48.9739949-2.3912968-1.7996271-2.8872458-3.7314844-1.8494039-5.5718469-3.2792682-3.1775035-3.4608819-6.2691631-1.9065021-9.2989581-9.3920744-6.1626321,5.0355065-5.9423468,0,0,3.1534751,3.0774587,3.4201466,6.2090183,1.9065021,9.2989581,2.3693813,1.9112194,2.8207131,3.7765439,1.8494039,5.5718469,6.8290897,12.0396746,10.6532483,23.8440769,9.368046,35.5802758,9.4251934,6.1407657-5.0337376,5.9316348,0,0ZM555.0833974,1626.4601221c-72.5455038-154.7578612-36.8393367-307.258867-74.7173507-461.225362,2.2319917-2.439796.0888852-5.0646944,3.6017112-7.4271965,36.5310454,64.2951489,26.0001997,141.3427671,36.3683006,214.8303431,12.9702485,92.2417507,46.2795171,174.8809692,34.7473389,253.8222154ZM579.2513423,1418.4811774c-5.5984305,44.3197986,6.0806209,79.4784711-15.760447,109.4921577-32.772142-87.540726,2.2658969-173.6936497,42.1427431-259.6915924,20.328308,50.0500171-19.0993686,92.075124-26.3822961,150.1994348ZM643.3866947,1432.7293067c-21.1389853-59.3309415-18.1976386-118.2251452-21.4086542-177.3276445-4.9526109-7.0764009-9.775989-7.5113697-14.662018-11.3217696-3.0808984-62.7815536-10.4136518-125.6377477-10.4256905-188.2183272,7.1966413,72.2122504,23.3301926,152.7908212,36.2343015,225.8893723,6.9222552,39.1125059,19.187866,73.7902655,19.1316031,108.4285183-.0197534,14.3799663-4.3742084,41.2307433-8.8695418,42.5498508ZM651.8466228,1330.6059696c-16.4831184-100.8476184-38.0609545-201.9584686-42.5017448-302.4050233,35.1801457,80.1517588,14.9158153,159.1076481,53.0420249,239.3499681-5.5357305,19.6095185.6896016,49.4518612-10.5402802,63.0550552ZM662.0695703,1226.4550055c-31.0970303-68.8114642,3.4278612-136.4665657-34.4050933-205.3755195-2.4973365-123.4976439-58.6717563-248.1396608-77.8076835-371.9773882,68.82994,193.0958062,128.1097781,385.8957038,112.2127768,577.3529077,1.4930065,3.904499-2.3848106,2.0684116,0,0ZM693.686185,1037.2826165c-16.8300321-28.9552558-14.3511223-63.431206-17.2203346-95.2504655-2.9151562-32.1748706-8.9992168-65.0461729-11.6348273-97.0221823-10.2581794-122.4408838-55.1314675-237.6637021-41.0332089-356.4358998,32.6462998,69.5607683,53.6792455,145.0437369,62.0545581,222.7951575,11.7091239,109.3542767,14.3657654,220.9238381,7.8338127,325.91339ZM688.9616232,633.2618016c1.4792479,3.8263206-2.3986184,1.9902331,0,0-16.3642046-127.5901937,36.7139367-244.9754245,61.4228901-369.2755889,25.9477695,123.9909886-34.5725553,246.2747785-61.4228901,369.2755889ZM714.2124696,1091.6433066c-2.705583-4.5124825,1.8232133-8.6033125-5.545165-13.0964839-.3486827-83.5366244,2.6613588-167.9088882,10.9503852-251.0972721,8.2391514-83.3481804,7.6332809-168.3181088,25.7128903-250.8104541,49.2135423,149.9344831-28.8049921,297.229916-11.4867256,446.4933225-6.7358751,20.9779604-9.8592778,41.9859932-14.1454802,63.0206587-1.9223737,1.8639978-3.6970387,3.7159568-5.4859047,5.4902288,1.2237799,1.2581273,2.3878572,2.557039,3.6403827,3.7863715-1.1915454,1.1791135-2.3453529,2.4295261-3.6373853,3.5884439-3.8005232-2.5557614-2.02974-4.975804-.0029974-7.3748154ZM717.2104724,1257.3429539c-10.6798319-70.1507673,7.5891059-137.1738078,22.3413411-206.1884081,14.3408525-67.5958412,27.6443053-139.8867123,58.9500244-205.376404,1.2134609-1.2903126,2.4050554-2.4694261,3.6301129-3.6708482,3.205807,3.1397165,3.249638,6.2274942,1.8781495,9.3277037-23.5221253,123.5895318-35.7907335,247.4719256-77.9455154,370.6483549,2.3358693,10.7142284.2258379,31.0412588-8.8541125,35.2596017ZM729.1218479,1391.5286357c1.5496626,4.0603154-2.3912968,1.985909,0,0-1.4792479-3.8263206,2.3723787-1.8854711,0,0ZM729.1373263,1384.2383866c3.7313862-6.197864-3.2196147-12.5893805,3.5339009-18.6412066,2.7618459,5.2295522,3.1925397,19.7902477-3.5339009,18.6412066ZM737.8689871,1334.0265093c-1.5973263-3.8435189,2.3981761-1.9902331,0,0,5.1784979,6.1596347-9.3319787,5.8015175,0,0ZM805.413774,1045.0533361c-13.6456492,94.6420397-44.1278168,188.9800141-65.7889908,283.4357228,1.4324686-94.9378992,30.8965476-189.2492899,65.7889908-283.4357228ZM740.2491296,1410.319713c.0592603-1.4526152.0437819,2.5269666,0,0h0ZM889.4326379,1279.3605253c-.57968-.6458197-1.1709566-1.3809721-1.836972-1.8816383,7.8231498-2.705583,4.2218317-14.4666456,10.9577068-11.0577025-.0403914,4.3737662-4.4274739,8.7471392-9.1207348,12.9393408-29.6328186,65.875277-59.2690769,170.6131936-145.0269809,205.6039617,71.3758248-68.051448,103.0572523-136.9114604,145.0269809-205.6039617ZM746.5646298,1524.1633282c72.2487599-57.1946705,167.9441201-48.662657,222.3545869-133.5630552-3.1629096,18.4879455-20.7164484,37.0991288-34.3750209,49.6824654-21.2278758,19.6687788-54.029648,47.304485-76.4477916,58.0345849-21.931236,10.4891767-53.9132894,20.845288-74.8946894,26.5424857-13.0982037,3.5132629-34.4703485,4.5554291-36.637085-.6964809ZM801.5393474,1532.6644339c-2.7399304-2.02974-6.5104303-1.1013773-1.9082219-5.7160667,63.1903319-10.63605,125.9147381-54.9880339,180.3827455-121.1171083-18.3822989,84.2159561-116.9983679,118.8602036-178.4745235,126.833175ZM987.1636838,1379.8405429c5.1634617,9.5780614-9.3392512-5.2493056,0,0h0Z"/>
    <path d="M912.9680796,1236.9678667c-.012481,2.3702167.0141517-1.5200815,0,0h0Z"/>
    <path d="M195.2432226,986.3810884c-.4498576-.280037-.8072377-.5377654-1.1043256-.7543653.3194456.2569422.665524.5545214,1.1043256.7543653Z"/>
    <path d="M749.1337076,1371.4485234c.0437819,2.5265244.0205888-1.5239143,0,0h0Z"/>
    <path d="M740.2491296,1410.319713c.0437819,2.5269666.0592603-1.4526152,0,0h0Z"/>
    <path d="M197.3073592,988.110694c-.3483387-.2500137-.7723007-.6079343-1.2258437-.9727342.3824896.3397887.788467.680855,1.2258437.9727342Z"/>
    <path d="M195.2994855,986.5365608c.2678999.1917853.5282818.3972801.78203.601399-.2938448-.2610698-.5750119-.521599-.8382929-.7568714-.0600957.0403914-.0154293.1069241.0562629.1554724Z"/>
  </g>
</svg>