<?xml version="1.0" encoding="utf-8"?>
<!-- Generator: Adobe Illustrator 27.2.0, SVG Export Plug-In . SVG Version: 6.00 Build 0)  -->
<svg version="1.1" id="rosemary" xmlns="http://www.w3.org/2000/svg" xmlns:xlink="http://www.w3.org/1999/xlink" x="0px" y="0px"
	 viewBox="0 0 500 2224.9602051" enable-background="new 0 0 500 2224.9602051" xml:space="preserve">
<g id="outline">
	<path d="M328.0862732,555.4628296c19.449707-54.9472351,21.8847351-75.5718689,28.7474365-113.8935242
		c-27.5202026,12.2776794-48.9628906,71.9538879-60.5482178,94.7173157
		c3.8093872-19.2158203,8.7675781-49.4572144,2.745697-67.9923706
		c-13.8862915,12.0126038-35.7676392,55.5280151-50.6452332,73.2203369
		c26.0148315-44.9243164,67.1136475-115.3154907,74.5065308-165.8414307
		c-27.4481506,10.4103394-77.8577881,90.1860657-84.2593689,124.5756836
		c7.0101624-36.1828613,7.5436859-45.9816284,5.8714142-63.7195129c0,0,12.4264679-20.2466125,17.9181671-29.092926
		c16.5532227-28.5986633,29.8208618-63.6018982,37.2140503-94.3392944
		c-21.7342529,4.9565125-36.2290955,19.9064636-53.9934692,48.5050964
		c-5.4163055-17.7301636-0.6085815-31.7256775-13.192215-55.8242493
		c5.0302429-18.6088867,15.4767761-70.0068054,8.8526764-79.4667358
		c-14.8025208,10.7558594-29.7491302,55.9801025-39.2104034,71.4957581
		c2.2875824-22.1920471,24.332489-115.2715912,8.0869141-141.5022278
		c-21.8093262,14.2559204-23.9497528,70.8476257-32.3312531,95.7856903
		c8.2343597-59.484848,14.8745422-142.1584167-10.521637-188.3709412
		c-25.3244476,28.179718-23.9497681,70.2735672-25.173645,100.9684219C125.8324203,117.5608368,80.3058929,9.8737993,57.046814,0
		C45.9095726,26.6529007,74.9646606,108.0271759,89.8392258,139.6744537
		c-10.2990952-9.4515533-19.5968246-22.7258911-32.3342934-29.359375
		c-8.0835762,29.2856445,50.0265923,100.7455597,67.8693695,133.3074036
		C96.3946228,208.0052948,56.3561172,152.4102478,0,138.6107635
		c22.0482712,33.4767456,93.1154099,106.6920319,110.6602631,124.3501434
		c-26.7675171-17.4664154-56.5166473-34.6647491-93.5735321-41.0760345
		c-4.1170216,26.04599,120.4164429,102.1235809,151.3043213,136.9730072
		c0.3827362,6.6763611,4.9581909,11.6720886,5.2658386,18.0032959
		c-26.9280396-29.9337769-159.4730225-90.5332642-168.1685333-62.4664612
		c9.6087313,18.6889648,147.9527283,82.9044495,178.7655487,105.6286621
		c6.3291931,14.5652466,18.9161835,31.5357056,19.1420593,45.2239075
		c-13.6537018-34.5092468-118.8225784-94.7173157-139.4110413-90.717926
		c-0.0754013,17.7298584,25.7071762,31.1938782,38.738884,41.1853027
		c41.567009,31.0779114,115.3959122,90.6378479,112.9448013,99.9094238
		c-52.4616089-49.1167297-130.8626404-90.037262-138.4160461-83.7798157
		c6.1066666,31.3805237,57.5800018,61.1604919,77.5632172,70.0068054
		c-34.0166168-5.6388245-88.3076935-3.2778625-102.9597321,6.7876587
		c29.5886002,14.7254028,63.2322311,12.12854,89.0865173,16.0984497
		c10.0638275,36.6346436,50.7796173,72.8637085,64.5904999,97.6151733
		c-26.6954498-25.5942993-59.7174377-57.8876953-99.8309937-71.1194458
		c5.0335922,23.2952881,139.6436157,144.0585938,136.2038879,157.9807129
		c-8.1589813-9.6070557-13.3363342-17.8052368-43.0134125-31.072876
		c-8.6921692-4.0419922-14.9496307-6.5274658-20.2057343-10.7198486
		c-15.4798126-14.3427124-30.884552-36.9064331-48.812439-41.6796265
		c-1.295929,20.7849731,18.4614105,33.4078369,27.3894958,50.2982178
		c-8.6335144-0.0750732-25.6320953-9.767334-34.3996582-3.1270142
		c4.0419464,18.0753174,46.8227844,36.3745117,50.6321564,38.8980103
		c32.8778687,17.6185913,81.2221222,102.1903076,88.7755432,124.6936646
		c5.1056213,13.7991333,18.4613953,63.7131348,19.0636292,104.0951538
		c-8.7608643-43.855896-88.9947052-168.7362671-107.3056488-158.7823486
		c-6.6304779,23.9497681,19.6068878,52.3128662,30.8091278,77.6715088
		c-23.0234833,42.7070923,27.9196777,139.3339233,52.6975403,194.2074585
		c-20.0552521-26.7313232-77.0923615-90.2597656-101.4248505-98.9519653
		c6.4799957,38.4771729,79.7003174,126.1796265,124.3860016,158.6710815
		c2.2125244,15.5551758,10.5219727,33.3226318,10.7575378,45.8703613
		c-30.6653442-40.9990234-69.4766235-79.0428467-116.3124847-113.6026611
		c1.076767,38.4412842,68.8677216,118.6000977,122.1115265,150.5841064
		c0.9886169,24.7547607,5.1806946,53.5776367,6.9350891,74.4741211
		c-14.7274475-30.6523438-32.3346252-61.6123047-54.3795471-90.3728027
		c-21.8847351-28.2893066-45.5234985-57.727417-76.2605896-79.8115234
		c21.8093262,98.1583252,83.7419434,171.7158203,136.056427,219.3797607
		c-0.6186218,40.270752,8.5417175,81.5200195,11.8209229,116.9046631
		c-14.036438-50.8647461-56.9777832-156.3345947-127.4393616-197.1385498
		c28.9046173,112.9511719,73.5903015,156.1868896,106.6903687,198.2149658
		c-29.8208618-26.9310303-132.397522-65.4312744-151.9947052-35.8426514
		c51.322876,29.0552979,119.5163116,44.8427734,173.8073883,72.2910156
		c7.2427368,60.0183105,22.1923523,116.079834,25.4715576,173.7319336
		c-29.9746704-51.2471924-79.0099487-94.7220459-139.7940826-130.2570801
		c-8.1619873,47.8861084,88.4682159,119.4244385,141.6201935,148.5583496
		c2.749054,5.5633545,6.9511719,14.4881592,4.3529663,20.7456055
		c-52.1673889-41.864624-159.6955566-121.4178467-218.7973633-88.8509521
		c45.6706238,59.9462891,190.5797729,86.6387939,194.8475647,88.0852051
		c28.1418762,11.1402588,28.9076233,22.8009033,33.0250244,43.0163574
		c5.0332336,21.4266357,49.110321,269.2824707,59.3373718,326.7902832
		c-42.0247803-79.4645996-156.5698242-111.7268066-221.7786407-129.5666504
		c33.7776794,44.4631348,86.0167694,80.2208252,148.4108429,110.1136475
		c18.8411255,8.9281006,40.4932861,12.8980713,58.8762817,22.1956787
		c13.797821,6.7155762,17.6071777,19.138916,20.2057495,30.046875
		c11.0651855,44.3127441,11.8178711,87.9345703,16.9362488,132.9277344
		c12.8845825,11.4482422,39.5049744-14.0334473,53.90802,0.8410645
		c10.3745117-21.6618652-56.5032349-293.0847168-70.8442688-348.5275879
		c11.7424927-17.6169434,19.597168-37.8947754,27.7557983-56.8109131
		c22.1203308-50.4849854,36.0783081-125.6856689,16.0984497-172.5080566
		c-16.7036743,26.6954346-32.036377,69.859375-42.5583191,96.7739258
		c3.658905-39.6520996,7.0232239-138.036377-15.790802-151.3857422
		c-11.5822754,29.7487793-14.4033508,56.2904053-17.6922913,82.6785889
		c-1.9048767-10.227417-4.9581909-20.1403809-6.9347839-31.6536865c-1.61026-8.4699707-6.7155762-23.4195557-4.8110657-32.184082
		c1.8425293-9.5333252,59.9560547-80.2305908,63.8374939-181.4324951
		c-28.066803,23.0332031-60.8592224,58.3457031-71.3811646,108.1467285
		c-4.4246826-26.2342529-15.4764404-57.0467529-7.5534058-86.635376
		c6.4799805-25.4682617,41.4949646-158.484375,41.18396-192.3375244
		c-26.9997559,29.4381104-48.8844604,83.8046875-59.1869202,126.6706543
		c-5.5604248-12.1289062-7.6878052-80.6169434-7.6878052-80.6169434s80.2928467-76.2967529,85.7058105-192.5220947
		c-54.2156982,54.3382568-63.5264893,84.807251-92.3459778,124.1256104
		c61.3143005-110.6994629,80.3058777-161.3806152,83.8173218-194.9373779
		c-35.8460693,32.7531738-69.1066284,73.2973633-96.2471619,129.3817139
		c-5.5768127-21.6618652-9.8409729-51.5108643-3.6719666-71.6888428
		c51.944519-62.7248535,60.1065063-100.4737549,77.8742371-129.9873047
		c-9.8410034-1.904541-19.3026123,4.1924438-31.3426819,16.8528442
		c9.8410034-39.1564941,27.9029236-64.0583496,34.2358093-114.3567505
		c-9.6841431,2.7819214-69.6237488,75.4214478-96.1590271,125.0274658
		c12.5739136-26.0768433,55.9013672-151.1159668,42.8529053-185.996582
		c-19.6688843,8.1606445-30.5735474,39.9993286-43.1639099,65.8535767
		c-1.0733948-7.2832642-3.0499573-7.8643799-1.8260803-12.4395142
		c27.6086731-49.0745239,63.4513855-115.111084,78.6989441-166.4356079
		c3.0536804-10.0407104,4.2775574-20.7473145,1.295929-29.8225098
		c-36.3008423,28.1405029-51.931427,65.4688721-97.1603699,157.2491455
		c9.9917908-27.59729,62.0116882-160.909729,50.7206421-195.7657471
		c-28.760498,19.4121094-41.4946289,72.1829834-53.3909302,108.9798584
		c-5.9464722-16.9624023-4.6471863-37.0307617-8.234375-54.8359985
		c114.9281006-124.6068726,116.2273865-176.6988525,116.2273865-176.6988525S361.114624,512.8733521,328.0862732,555.4628296z
		 M201.6385651,476.1502686c-29.6640015-34.9656982-86.8612823-72.2189636-134.3777771-99.6000977
		C120.2656403,392.3034363,190.733902,435.7699585,201.6385651,476.1502686z M212.5432281,504.8306885
		C174.4977264,461.2039795,82.28582,403.3947754,67.496376,380.0994873
		C172.5080872,428.3703613,213.1615448,505.2070312,212.5432281,504.8306885z M141.4727325,1601.2752686
		c49.4213562,8.3845215,135.5986481,48.8027344,178.2189789,78.0933838
		C266.081604,1662.7366943,176.9327545,1641.7685547,141.4727325,1601.2752686z M151.6086273,1599.1381836
		c68.7956543-16.8544922,197.9793243,88.9227295,199.203537,89.6887207
		C349.7518311,1689.5075684,208.0431519,1611.4141846,151.6086273,1599.1381836z M208.1316376,1931.9471436
		c52.9163666,25.5562744,143.6721649,90.8405762,187.9845428,116.0765381
		C337.8421326,2034.7559814,255.7919006,1981.1456299,208.1316376,1931.9471436z M217.8841248,1541.6298828
		c31.8761902,29.5853271,96.8493958,83.2841797,125.7573547,117.3758545
		C299.7118225,1630.7131348,228.93927,1581.4425049,217.8841248,1541.6298828z M214.0747528,1527.1384277
		c45.6773224,27.1505127,105.2472992,81.0716553,131.4715729,122.3339844
		C307.8708191,1612.7851562,242.7471313,1567.3337402,214.0747528,1527.1384277z M314.2033386,1432.265625
		c-33.0119019-61.0032959-71.1455383-125.7540283-111.1937714-182.8792725
		C266.9194336,1304.7541504,293.231842,1366.6871338,314.2033386,1432.265625z M202.2538605,1255.7159424
		c34.8443756,43.2519531,86.0951996,142.9194336,114.1620026,192.3404541
		C315.8856812,1449.2806396,221.7786255,1336.5552979,202.2538605,1255.7159424z M166.6336517,1408.4042969
		c8.3975983-3.8945312,110.4377289,24.4832764,152.9860077,61.2388916
		C278.5177917,1449.7387695,207.3625183,1425.7889404,166.6336517,1408.4042969z M152.6719818,1400.539917
		c40.3494873-19.5217285,135.3040619,21.9731445,165.5733185,56.2089844
		C278.210144,1434.717041,191.4242706,1405.2755127,152.6719818,1400.539917z M469.9289856,1653.3669434
		c29.4414978,93.5734863-40.7157898,211.1685791-41.9396667,210.4748535
		C434.3972778,1796.967041,448.5777893,1726.1948242,469.9289856,1653.3669434z M460.1761475,1674.7935791
		c-7.0982666,33.7055664-18.3859863,71.6887207-21.9597778,93.6485596
		c-4.4280396,28.5970459-8.2437744,56.2089844-14.4161072,85.2641602
		C417.0126038,1782.1645508,433.1861267,1733.8199463,460.1761475,1674.7935791z M426.2349548,1659.5358887
		c4.1203613,40.1956787-0.9129028,98.6071777-13.0451355,140.9429932
		c-1.0633545,1.5184326,1.4631653-140.4848633,3.0570374-196.310791
		C422.1899719,1613.0961914,424.7885437,1645.3520508,426.2349548,1659.5358887z M413.500824,1600.434082
		c3.3609924,2.5101318-9.6807861,136.2790527-4.428009,192.5631104
		C394.7448425,1735.1192627,392.7518616,1672.5056152,413.500824,1600.434082z M310.7800598,1292.0167236
		c-0.5332031,1.2993164-94.4177399-116.9046631-128.2084808-180.0467529
		C239.0161743,1166.40979,280.4977112,1226.8602295,310.7800598,1292.0167236z M444.4607544,1432.4294434
		c-2.8177185,63.9095459-27.2256165,116.0634766-61.0787048,165.1835938
		C375.1446533,1550.0998535,423.8002625,1474.0581055,444.4607544,1432.4294434z M428.522522,1450.1968994
		c-13.8695374,35.9901123-46.675354,92.1237793-53.4629822,129.5666504
		C373.0075684,1545.4493408,386.6578979,1487.8690186,428.522522,1450.1968994z M178.912674,1112.7980957
		c41.036499,60.8216553,85.4145355,140.1000977,137.3557281,200.3540039
		C261.8891907,1282.1888428,203.8507385,1192.3496094,178.912674,1112.7980957z M357.1447144,1453.2471924
		c2.9685364-51.7907715,26.6203918-126.0650635,49.4213562-186.4664307
		C402.3736267,1319.0952148,377.0494995,1398.635376,357.1447144,1453.2471924z M396.4992065,1282.72229
		c-17.6202393,55.131958-34.4717102,110.3493652-44.770813,162.6605225
		C343.3468933,1399.401123,365.4508057,1336.6401367,396.4992065,1282.72229z M212.5432281,516.1559448
		c-31.2709351-22.3475342-93.4133301-59.5274353-131.3961639-82.3330688
		C122.9396133,447.7808533,182.8792267,490.1102905,212.5432281,516.1559448z M81.2941818,437.6795044
		c31.0353394,18.9490051,82.5934677,50.5209045,114.4696274,72.1029968
		C130.47995,493.1964417,99.444603,464.2147522,81.2941818,437.6795044z M196.4578552,532.4393921
		c26.2339935,18.6463623,44.0801239,72.937439,42.780838,94.0316772
		c-11.2156677-23.8007202-58.1855774-96.515625-85.4866028-101.9319458
		C166.0280914,524.6503906,186.7737274,525.6895752,196.4578552,532.4393921z M241.6016693,644.7704468
		c-25.7695007-33.3587646-55.9767609-78.3275146-88.0097656-112.8743286
		C189.5948181,539.5625,233.2168121,627.8063354,241.6016693,644.7704468z M146.6534424,528.6936646
		c38.2811127,46.2926025,76.4998779,92.6703491,101.6604614,144.7113647
		C227.8759155,639.5144653,147.1836243,547.3025513,146.6534424,528.6936646z M110.2772141,556.1552124
		c47.3563004,13.4164429,122.7891312,98.6051636,142.225769,137.5031738
		C252.0482178,694.8822632,155.1200714,599.7018433,110.2772141,556.1552124z M256.4729004,738.4174805
		c-22.1203461-20.5117188-53.6104584-37.2156982-70.3144684-60.1279297
		C222.6918488,685.0413208,258.0798035,734.6098022,256.4729004,738.4174805z M259.912262,766.8690186
		c-11.896286-15.4818115-23.2721252-31.3446655-35.8460541-46.4400635
		C242.3674316,729.119751,262.422699,746.2819214,259.912262,766.8690186z M124.0750198,674.0612183
		c13.2807083-2.90448,53.3879013,33.5075684,57.1222,35.114502
		C176.327179,708.2987061,149.3240662,705.28125,124.0750198,674.0612183z M134.5215607,631.5405273
		c30.2826385,18.3369751,93.8845367,98.680481,127.750351,144.1433105
		c-2.5198364,6.9005737,1.2962646,21.612915-1.3743591,28.2159424
		C241.6016693,777.7736816,135.5262756,649.5420532,134.5215607,631.5405273z M281.2634888,949.8233032
		c-27.2256317-54.4904785-74.8892517-106.5807495-98.3842621-162.7388306
		C216.6602478,820.2941284,261.9612427,892.2058105,281.2634888,949.8233032z M176.0915833,785.9715576
		c9.458252,15.9365234,65.6702728,108.336792,107.5315247,184.1409302
		C274.3156433,957.1428223,168.9212341,807.8187256,176.0915833,785.9715576z M281.2634888,1053.807251
		c-30.8878937-56.3200073-52.6218109-124.1879883-69.1783752-186.1943359
		C256.0898438,938.694458,270.12323,990.1677856,281.2634888,1053.807251z M205.7555847,863.4204712
		c16.936264,79.0820312,79.4778137,216.0925903,77.9462891,219.8640747
		C253.3441467,1035.5079346,190.3475037,933.7741089,205.7555847,863.4204712z M178.6868134,994.0622559
		c22.9517517,25.8546753,76.1071014,77.5257568,95.0953217,107.9162598
		C242.7471313,1075.7049561,201.7987518,1033.1091309,178.6868134,994.0622559z M158.2521515,958.3666992
		c39.1185913,21.132019,107.2993011,108.5593262,124.3072662,136.8979492
		C241.3757935,1050.5675049,195.2336426,1004.7330322,158.2521515,958.3666992z M181.0531158,1054.2260742
		c14.4161224,15.8662109,74.8895874,86.9089355,108.3693695,125.9946289
		C238.8556366,1152.0427246,193.0214691,1091.1472168,181.0531158,1054.2260742z M191.2640839,1061.2889404
		c36.3859558,27.5349121,84.2754364,70.7346191,105.7902069,114.7397461
		C296.5830994,1177.3637695,219.6415253,1097.5142822,191.2640839,1061.2889404z M329.6114197,1308.7991943
		c-3.2792053-13.6536865,6.3261719-25.3240967,13.4244995-38.8109131
		c35.1523438-66.9663086,67.9548035-124.8475342,79.99823-136.8651123
		C415.6379089,1195.3178711,365.3036804,1270.7409668,329.6114197,1308.7991943z M426.47052,1118.8312988
		c-6.565094,13.1563721-20.8240356,28.4365234-29.8241882,42.1361084
		c-25.9983826,38.244873-47.9712524,86.6746826-71.6100159,134.4890137
		c-0.0787659-11.2877197,3.4330139-24.8659668,6.5617676-34.5467529
		C336.6313171,1243.2174072,374.3789062,1167.8304443,426.47052,1118.8312988z M324.95755,1222.12146
		c11.8963013-55.7866211,57.5082703-123.543457,86.402832-161.7850342
		C400.0860596,1118.2126465,351.7283936,1180.1456299,324.95755,1222.12146z M414.414032,1049.1583252
		c-62.2275085,85.9088135-80.2308044,132.65625-101.2743835,179.7900391
		C321.298645,1159.9301758,380.3287354,1082.1474609,414.414032,1049.1583252z M390.8469849,972.3625488
		c-72.8995972,131.743042-71.6854248,111.0087891-93.1150818,141.2750244
		c-3.0533142-10.7445068,3.2037964-27.9799805,11.4382019-44.0771484
		C329.0025024,1033.1828613,365.4508057,987.0031738,390.8469849,972.3625488z M369.9542236,960.7279663
		c-4.1924133,11.821228-6.2574768,17.4714966-7.6321411,25.5584106
		c-27.9029236,24.2460327-57.4198303,71.909668-69.6954956,123.3076172
		c-13.2676086-55.4038086,65.198761-154.9237671,95.62854-210.8609619
		C392.2216797,912.3099976,375.6781921,944.1861572,369.9542236,960.7279663z M396.6463318,874.7098389
		c-7.7759094,23.3311768-29.6606445,55.899353-44.3093262,77.2522583
		c-23.1116333,32.9136963-49.3392639,75.1626587-59.7857971,116.4596558
		c-0.4581299,1.2108154-1.1454773,2.4349365-1.6069336,3.7718506
		C285.0698547,1045.8449707,305.363739,974.923584,396.6463318,874.7098389z M293.7653503,1005.5742188
		c-0.2979126-14.6031494,40.1953735-176.6613159,53.6985779-186.1209106
		C344.0996094,864.7197266,324.5027771,946.6212158,293.7653503,1005.5742188z M342.2671204,815.522583
		c-13.5002136,37.7965088-39.5736694,113.4421387-51.8530273,156.0366821
		C287.596344,932.6236572,309.9358521,856.5952759,342.2671204,815.522583z M291.9359131,873.5969238
		c0.3076477-16.8886719,7.5500488-38.3169556,17.5418091-56.9992676
		c13.5752869-27.425354,25.7071838-58.4586792,40.2741089-84.6960449
		c9.1469116-17.6564331,21.8093262-42.6695557,33.7776794-57.9647217
		C373.3905945,729.800415,324.1951294,819.0343628,291.9359131,873.5969238z M381.3170166,669.4368896
		c-26.3878174,39.5163574-88.3077087,158.5235596-93.8091431,180.2595215
		C286.4441833,822.8534546,334.8739014,721.144104,381.3170166,669.4368896z M285.0698547,809.116333
		c5.9498291-53.5366821,34.6218567-127.4393311,50.0299377-178.1453247
		C339.3773499,682.3706665,296.7436218,770.5292358,285.0698547,809.116333z M299.6367493,693.5846558
		c6.3291931-16.9020386,18.991272-41.7173462,27.991394-52.5107422
		c-14.4884949,51.9789429-39.6520996,123.8902588-50.4816895,177.4286499
		C273.5596008,789.9776001,285.4559021,733.5460815,299.6367493,693.5846558z M266.9945068,647.5145874
		c7.5567322-35.0016479,61.7723999-142.9178162,80.5414734-177.0081787
		C343.3468933,523.3641357,293.0093079,620.8959961,266.9945068,647.5145874z M352.7920837,446.0643311
		c-9.4451904,36.0340881-47.8898315,90.87677-59.4848328,131.3700562
		C291.5498352,538.3875122,329.9911194,462.6929626,352.7920837,446.0643311z M241.3757935,545.0524902
		c-4.4246674-9.4468384,5.4163055-30.0091553,10.2990875-39.15979
		c26.0771637-46.1729736,51.9314423-84.1561584,59.1051788-97.4237976
		C303.2986755,446.1806335,246.5565186,541.6650391,241.3757935,545.0524902z M314.7335205,382.2315674
		c-14.8611755,49.1921387-55.9730835,97.8460388-75.7927551,144.0274048
		C241.9059601,472.7943115,281.1914368,415.449585,314.7335205,382.2315674z M234.663559,487.6685486
		c-3.2761993-6.9052734-5.6391754-14.3359985-9.0755463-21.241272c2.062027-4.9206543,6.1069946-8.959259,13.8862762-24.3261414
		C242.2169495,457.5792847,235.0462646,473.8268433,234.663559,487.6685486z M221.5463867,460.6721497
		c10.2960815-42.5961914,47.0550232-102.2723999,70.6971741-136.7437744
		C274.0177307,397.4841614,244.6516418,428.9072266,221.5463867,460.6721497z M277.444397,333.6892395
		c-15.1724854,30.2806396-46.4431,80.4610596-61.3143158,120.195282
		C218.2671814,396.8768921,254.8790131,355.5820007,277.444397,333.6892395z M222.384201,332.3162231
		c3.5114441,17.8494873-10.9046631,51.5175781-12.8845825,71.1586304
		C199.8841858,384.8646545,217.1183624,355.9208374,222.384201,332.3162231z M238.322464,372.6982422
		c-4.0419617,14.0709229-19.4500427,25.5892029-22.9484253,44.5432739
		c-7.7038727-23.9856567,18.7559967-74.2857056,15.4797974-108.0322266
		C237.333847,323.5878906,242.3674316,358.7090759,238.322464,372.6982422z M195.0111237,384.5191345
		c2.9685364-31.1513062,31.1824493-103.1427002,44.3746948-137.0021515
		C236.4176025,289.3078613,211.7872009,348.3721008,195.0111237,384.5191345z M239.6183929,231.9550629
		c-8.3061066,32.946579-38.3662262,104.980545-49.342926,136.2873383
		C187.9128265,339.5995178,219.0363007,265.3205566,239.6183929,231.9550629z M188.5180511,317.597168
		c0.9165649-37.0619202,17.6956482-113.059082,23.0365601-148.2915497
		C215.5245056,217.1247406,198.8925476,276.2644043,188.5180511,317.597168z M208.5863953,161.8684998
		c-2.6706085,46.9404297-21.6621857,117.2562256-28.5969696,166.2945251
		C168.9962921,286.6372375,190.8056183,192.334137,208.5863953,161.8684998z M164.6567535,274.9651184
		c-6.4046021-56.2022858-5.7993469-138.2263641,3.881424-201.2538452
		C190.4359741,133.3449402,181.0531158,213.3840637,164.6567535,274.9651184z M161.6784821,84.2328949
		c-2.6736145,45.1850281-10.8326111,92.6948242-8.8426361,136.3986053
		C148.4828949,179.1794281,141.8557892,128.9236145,161.6784821,84.2328949z M69.0181808,16.1671448
		c35.1620865,54.9831085,71.6888046,133.615036,74.1238174,196.110672
		C141.9278412,213.6132965,84.9564362,78.130928,69.0181808,16.1671448z M60.0904274,19.7147884
		c17.6923027,48.4263687,34.3239326,105.5874557,59.3373985,153.937088
		C86.9460831,131.5138092,65.3592758,76.5307007,60.0904274,19.7147884z M142.9915314,240.1911316
		c-20.051918-28.1784058-67.6438217-96.7022705-82.0602722-126.4071655
		C105.7774734,150.0489502,130.7155457,209.0756836,142.9915314,240.1911316z M60.0904274,123.9295731
		c22.1199913,29.9337845,63.8374672,94.9870834,79.2452087,127.7781601
		C119.3527603,224.9760742,71.5416794,168.2731018,60.0904274,123.9295731z M8.8396168,145.3575287
		c64.6786423,28.2581482,128.663559,116.8718109,132.4729309,139.2213593
		C97.6905518,240.6850891,49.2705498,190.3934174,8.8396168,145.3575287z M29.8241978,241.3349152
		c38.2777557,17.3535004,100.1255875,59.5649567,131.245697,97.1587067
		C134.9830322,322.6290894,79.3176117,280.6089783,29.8241978,241.3349152z M23.0332069,313.0220337
		c7.998785-0.4567871,16.6188965,1.1437683,24.7812233,3.0908508c54.6117859,14.4918518,115.5430374,51.5913086,136.5112,85.4866028
		C145.1349945,370.3369446,88.0851746,334.6037903,23.0332069,313.0220337z M98.5317154,276.4182434
		c-22.2707901-16.3963928-61.1638336-31.1955414-78.1687927-52.3191986
		c61.3927231,15.442276,126.3659286,59.8300323,142.5397644,103.8726044
		C162.9026947,329.23172,122.0984421,293.4624023,98.5317154,276.4182434z M297.3488464,471.6143494
		c-10.2860107,41.908844-37.1419983,113.8938904-44.5348663,154.6963196
		C245.3456879,591.9259033,261.2085571,520.9539185,297.3488464,471.6143494z M297.8823853,480.4606628
		c0.6186523,39.7747498-10.066864,118.0923767-38.8109436,160.1550598
		C261.0480042,597.7496948,284.1566162,525.6895752,297.8823853,480.4606628z M278.9038696,664.8616333
		c3.8814087-19.8555908,91.3580017-141.5825806,105.0804138-145.4656982
		C342.7286072,607.5171509,287.8939514,661.2027588,278.9038696,664.8616333z M269.2070007,664.7879639
		c18.9915771-50.0266724,73.2987366-143.4888306,119.6634216-156.0316162
		C344.0996094,557.2564697,303.6063232,604.9200439,269.2070007,664.7879639z"/>
</g>
</svg>
