<?xml version="1.0" encoding="UTF-8"?>
<svg id="sea_buckthorn" xmlns="http://www.w3.org/2000/svg" version="1.1" viewBox="0 0 1012.171322 1000">
  <!-- Generator: Adobe Illustrator 30.0.0, SVG Export Plug-In . SVG Version: 2.1.1 Build 123)  -->
  <g id="outline">
    <path d="M718.1722283,226.4862866C497.276573,18.7654705,139.3870513,304.5951229,28.5060221,529.6344661c-62.1044363,126.070246-16.1953064,298.5217826,74.7165131,385.7932127,327.571757,314.4739059,924.4694631-324.8352078,678.0793709-662.7095213,71.9913578-87.6475351,179.5411343-147.6174609,230.8694159-241.3712498-13.7691411-.7675571-25.2312563-11.3469077-25.2312563-11.3469077,0,0-197.675648,197.6493299-268.7678373,226.4862866ZM693.4836101,259.7230089c-4.9686796,6.3472383-11.9625388-.8603573-18.2370589-3.2115425,4.993687-6.3291222,11.985538.8815386,18.2370589,3.2115425ZM84.9772743,550.9168093c21.7330478,8.625642,3.5608856,23.1425752,16.7149664,33.0815198-7.0191626,5.9982757-16.5716651-5.3378511-23.1893135,3.3972486-5.6731156-11.018154-1.8390507-23.4165578,6.4743471-36.4787685ZM317.2018904,960.8450733c-12.5957364-24.771018,27.0548544-26.185048,39.709167-11.7874867-12.0198255,12.1112516-27.6684562-.3515416-39.709167,11.7874867ZM465.0693411,678.4404884c-21.1537124-22.9770568-33.903531,10.9775671-51.3235887,13.4520773-11.0694795-8.2226692-22.1668835-16.4658222-33.2367224-24.6886605-11.1281825-26.9147663,39.60028,31.3898502,46.3693048-6.8401787.3339962-42.8032612-41.446222-7.4761032-58.1567704-32.868946-26.2817167,21.63695,4.9853371,34.78545-21.3144322,56.4516986-17.2785321-11.2820955-12.8134258-25.7753953-23.3719122-38.0271156-4.9455113,6.6578336-9.8927136,13.3179503-14.8170436,19.9472463,39.3984025,33.1324225,2.1625831,25.9278709,38.376649,59.5031555,12.0482151,4.4160639,3.7330416-10.4565753,14.8374216-19.9748327,42.3589829,30.3336613,33.6344738,68.53919,71.6382731,84.210207.4825399,40.3436963-18.9249431-13.5930532-47.870512,36.6824216,19.5581407,25.5767522,31.2103801-2.4363965,49.786255,16.316602-14.5607121,4.0563204-19.2343335,10.9151648-8.1795245,24.9245717-10.2802549,10.5047299-22.7066256,6.6500756-36.476866-6.4769895-8.2431741,11.0973829-16.4658222,22.1668624-24.7089962,33.2642876,25.9670204,28.8239985,44.4908087,7.2220547,69.7617641,31.1589278-13.3975598,16.3391784-28.8483717,18.5945828-46.3693048,6.8401998,7.9925712-24.3839207-78.2136646-32.727357-104.5279776-26.0259982-13.5496126,15.8091391,2.8837189,27.2160816.1860443,41.4264782-9.3707494,16.852687-24.7071783-6.8867479-34.7876062,5.1553792,6.1208819-10.4460481,24.8039315-38.0239448-20.1576005-56.2613631-14.7488492,16.0104247-26.9541905,31.5967165.1827678,41.4238992,16.8856004,14.1381858-70.0482187-11.3770096-39.8938161-29.633749-86.9486375-26.1153739-62.0153988-104.2350545-119.9260266-130.3708909,1.9267775-39.6849205,33.4056441-70.0197656,19.3871051-109.4982215,8.6331252-8.4549023,21.5753509,12.45698,29.846365,1.5480089,21.8991792-17.0387102-14.7711086-25.4619674-11.7874233-39.7092093,29.8896788-64.950105,83.328309,29.5120306,117.6323183-5.5280598-38.3028316-52.8118166-142.3291596-76.7453074-95.2138384-163.6334874,35.5112999,2.0613484-4.3048939,30.7834992,8.5547841,57.9734741,28.7058103,20.6093198,42.9613175-56.7068675,69.3653867-51.7118699,10.5678087-31.5846038-28.0814065-19.1344306-36.6842818-47.8678062,58.4192322-8.645872,41.1123104-55.856974,87.4174371-89.9217321,21.2694696,23.6094723,35.4483268-.6781814,53.0287873-1.8979228,4.6384039-10.5405605-12.5451507-17.8857922-21.6622111-26.421382,22.4952779-18.0671648,30.4079226,24.6001515,59.6885657,3.0491739,15.9249597,14.3495758-17.6534746,4.6536874-19.7637598,26.6071938,26.4359468,6.7002385,29.6073252,14.1392004,34.9484529,36.2912655,10.5690348,4.659564,17.8865109-12.5448548,26.4219739-21.6615558-4.8776973-10.6767168-32.0164313-44.0265963-51.7124829-69.3660209,26.9293311-31.6152343,57.9938732-35.2099634,87.6079841-48.4491921,18.5025436,29.9968536,40.4594324,66.5939159,78.1361479,47.7055644,7.7286508-17.3586278-12.3993339-60.8294164-31.7444358-54.5763946-10.1353682-20.3363096,34.3008807-4.5064542,44.6355263-18.419869-2.6198196,41.8625335-.6401735,83.0212651,12.1839275,122.5796898,13.7996658-.0840064,28.2252152,3.9566923,41.425844-.1854524,8.7602763-11.1734622,7.8528213-20.9181817,1.5479878-29.8463862-14.4934689-17.8623279-23.0916725,4.2268698-34.8122543,5.1374111,13.1869942-15.4892849,49.4299994-65.1314142,4.5745218-89.5048711,9.3708763-16.8530675,24.7068189,6.886621,34.7668689-5.127962-.613031,21.8017496,6.4622556,42.4713789,15.2331225,62.8910607,11.1456856,8.7393698,20.8744662,7.8590573,29.8186095,1.5270813,10.8751486-14.0149454-5.8235619-53.6782619,16.3390093-49.8169065,5.7461086,24.7232228-2.3172149,55.9876553-21.1012243,97.8984703,61.0580135,35.0191205,71.7100823,100.6842945,77.0024,160.3929845-15.1250177-46.4716598-75.3669601,13.819156-52.843821,43.3193488,36.0099477,3.1453775,32.8572139,19.3229059,66.5291671,49.4186266-18.693302,7.2398326-42.5519608-20.6884853-59.685881-3.0472925-6.0216977-6.9936267,5.2915778-16.567691-3.4180917-23.1615792-23.4914955-4.220655-62.290544,30.2545591-62.7357525,56.6363901,24.1859328,29.9778285,34.7970131-31.8607849,59.7089437,3.0216298-11.9098604,26.4330296-33.332778-11.6126249-44.6864713,18.4249212-13.8597851-13.5679612-26.3258972-17.8733202-38.1838402-18.0287975-18.2332328,31.7317736-14.166808,23.3675576-27.9470893,51.4783473,20.4974945,18.5458574,36.1214137,3.8989405,54.7391437,9.7072189,2.0432957,29.5335924-53.9049988,7.7155446-76.210681,5.3435798-16.3055251-28.0337804,48.7511838-46.0662984,17.8687753-79.6335924-6.357681-2.748683-11.5775553,1.7306922-18.2622144-3.2348377-18.402831,33.7078895-60.2632717,84.179196-4.5313982,89.4979798-40.3011858,15.4679557-1.4511078,34.5803595,8.5275993,57.9532441-12.9664299,5.6966222-28.5661238-6.2650076-43.1291823-11.3713867,11.7752472-17.548752,9.4715613-32.9924824-6.8401998-46.3693048ZM443.7783309,734.8666723c-15.2132096,13.0164236-34.4960571-19.3230751-8.3448315-16.5293449,4.4400566,5.2725739,1.6390758,11.5910209,8.3448315,16.5293449ZM548.120243,719.4661923c30.1342782,11.3392977,6.6822703,30.5840738,30.0042734,42.953475-23.9057354,11.599857-16.3574425,40.2252757-49.5854345,25.0780832,43.5009116-31.1937226,9.8646622-32.9541785,19.5811611-68.0315581ZM670.889909,748.7550374c-51.7041753,62.478512-126.4620362,126.4811459-186.6366298,140.0371636,71.0204647-48.0049772,123.8304844-95.9684373,155.0773293-153.192555,7.476082-22.6687445-32.0902487-5.4806662-28.311885-31.3181045,16.2642195-10.1365731,33.8656076-11.3841546,54.7341338,9.6613684,22.3096141-28.4536855,41.5819132-32.9116891,26.2363946-63.0836582-21.2738876-23.6601848-30.8376361,31.9036125-53.0265677,1.8954073,32.4654871-16.9619333,33.4656577-31.2550468,74.4755074-16.9207123,22.5895578-28.9978667,48.9086271-58.5469963,6.2891906-77.8998139,43.9937251,11.510439,53.1664444-63.6587658,54.3429566-73.1585054,24.0315336,62.0766173-33.9406933,180.2100991-103.1804298,263.9794099Z"/>
    <path d="M646.3563454,462.1493934c26.4667252-5.6678943,41.5040372-45.5276978,14.6312529-61.3732594-15.1207476,17.8718616-37.7643156-15.2011815-51.2929794,13.4744635,4.0258168,29.4065047,19.3805943,20.4431884,36.6617265,47.898796Z"/>
    <path d="M395.1152544,244.5662616c-8.2227961,11.0698388-16.4663295,22.1670949-24.6889776,33.2365321,17.5223916,8.0182128,43.7551081,12.0513226,46.5516498,34.5793025,7.839694-13.6635941,18.3920078-9.0982255,26.4220162-21.6572223-2.049426-17.4828406-29.7046703-31.139945-48.2846884-46.1586124Z"/>
    <path d="M485.0094213,331.9633207c-8.7591559,7.4371229-18.9029374,5.6568597-26.4246586,21.6596532,6.6603703,4.947752,13.3172527,9.8923965,19.9746847,14.8378021,13.0998592-13.7913371,16.9543233-26.2173484,6.4499739-36.4974553Z"/>
    <path d="M593.7254152,546.9097851c8.2430472-11.0970659,16.4658433-22.1669258,24.7089962-33.2642876-14.3371038-17.6212165-22.1925251-36.2216759-31.7649829-54.5484699-5.2999911,4.083949-11.2985628,3.6194195-18.2366784-3.2114157-9.1165318,11.2012811-13.8670781,21.7831261-13.1019731,31.5512254,44.0209733,3.3847766-4.139756,39.8906453,38.3946383,59.4729479Z"/>
    <path d="M407.2712784,367.1253621c10.4452871,67.5238839,54.688537-15.7820389,0,0h0Z"/>
    <path d="M537.2718352,525.5980375c15.4608741-18.0409524,27.7992432-35.670244,4.7417102-48.0536391-19.676498,22.1351962-38.7175365,25.2117239-4.7417102,48.0536391Z"/>
    <path d="M307.6905454,334.4391838c-6.5962769,8.8804726-13.1700196,17.7299766-19.7641403,26.6070247,17.0165354,9.4924044,39.2186788,7.0821779,28.3191569,31.3669567-20.8745085-7.6911714-38.8788059,4.0520714-54.5281131,31.7374177,8.849652,6.5733833,17.7274611,13.1677788,26.6045092,19.7618995,32.8178742-34.0019753,33.7218201-36.8571354,67.6327709-63.2867617-19.5068787-17.5568693-29.0435904-38.0807241-48.2641836-46.186537Z"/>
    <path d="M489.3808184,562.3083626c29.6111937,25.2729213,40.6701459-17.5461519,24.7091231-33.2646681-11.8098095,24.1549853-27.7579164,11.3020507-24.7091231,33.2646681Z"/>
    <path d="M223.5057264,406.101196c9.3686144,6.4946617,12.2565188,13.9727308,15.0020521,21.4741797,15.3597451-1.7380486,34.4925903-24.9476978,18.0492178-38.2113632-6.6149426,8.73696-16.1407255-2.583376-23.1588311,3.4199942,6.9919144,7.3781662-1.4034605,10.4234082-9.8924388,13.3171893Z"/>
    <path d="M316.611457,475.2612385c21.8847836-18.9417909-6.1054293-44.8167087-21.6572645-26.4220373,7.4648361,8.7791745,5.684573,18.9229349,21.6572645,26.4220373Z"/>
    <path d="M273.6880417,505.2838605c8.2227961-11.0698388,16.4659701-22.1672429,24.6886182-33.2367224-6.6574531-4.9453633-13.3149063-9.8907477-19.9472674-14.817107-22.1606475,31.9233352-24.5299912-23.3479195-43.1362216-11.4196259-6.5942687,8.8774286-13.1676309,17.7270806-19.7618995,26.6045092,14.2669857,32.815718,29.5785339,2.1917972,58.1567704,32.868946Z"/>
    <path d="M458.1966295,632.051461c6.5966574-8.8803458,13.1903976-17.7575419,19.7641614-26.6070881-6.6296976-4.9244145-13.2894761-9.8715112-19.9469292-14.8168745-14.7470947,16.0081205-26.9543174,31.5970759.1827678,41.4239626Z"/>
    <path d="M305.6148859,601.2840908c44.0303167,3.2626355-7.4831425,25.058741,30.0251587,42.925656,18.9112028-28.4581035,17.1423547-53.8394468-5.3156551-76.1901762-11.8369943,24.1347553-27.782797,11.2835541-24.7095036,33.2645201Z"/>
    <path d="M288.9029635,568.2045792c-9.0990076,5.4637761-18.3177676,9.7855812-28.1339158,10.0549766,6.5673587-14.7768795-1.9138405-27.3349673,11.3710273-43.1293514-15.8020787-13.5012677-28.392171-5.254352-41.421278.1846914,7.1858647,14.748363-5.1336484,32.3529219-4.7346709,48.1019206,24.238125,17.1227589,46.1131424,18.2113328,69.7592063,31.1567082,18.5943926-18.5301723-2.7926521-31.1825401-6.8403689-46.3689454Z"/>
    <path d="M197.4820535,510.6262776c-11.5092341,15.7723361-26.0347709,11.0724601-36.3168649,34.9774133,13.8863569,22.0731109,21.8168217,22.2526233,43.1572338,11.3915321-14.094872-13.7037793,19.4699065-34.4678366-6.8403689-46.3689454Z"/>
    <path d="M282.613646,646.1047525c3.2959294-4.4372451,6.5734045-8.8496942,9.8717015-13.2898143-6.6323611-4.9263593-13.2898143-9.8717015-19.9465276-14.8167688-3.2983181,4.4401623-6.575772,8.8525691-9.872082,13.2896663,6.6570938,4.9452153,13.3143144,9.8900501,19.9469081,14.8169168Z"/>
    <path d="M153.9580792,777.6352233c34.5911192,59.6715065,118.89438,98.7333762,149.3945532,49.0231159,11.8004661-74.3533028-126.6348053-156.7335911-149.3945532-49.0231159Z"/>
  </g>
</svg>