<?xml version="1.0" encoding="UTF-8"?>
<svg id="sea_buckthorn" xmlns="http://www.w3.org/2000/svg" version="1.1" viewBox="0 0 1020.4358965 1000">
  <!-- Generator: Adobe Illustrator 30.0.0, SVG Export Plug-In . SVG Version: 2.1.1 Build 123)  -->
  <g id="outline">
    <path d="M810.3229758,800.9011143C1018.0249505,499.0311681,552.7873787-56.6061422,232.9971027,4.6787521,158.5028859,18.9743455-82.1842453,159.202126,28.7508851,444.417835c94.4638762,242.8681177,460.5273707,655.6243296,745.9503148,391.9702792,63.3906423,28.261673,203.3682639,163.6118858,203.3682639,163.6118858,0,0,19.9143443-5.3756364,42.3664327-3.8223598-43.0606395-74.6482162-163.3834965-139.467968-210.1129207-195.2765259ZM790.564498,459.8290436c-12.2960622,14.3313667-18.7361575-6.016756-29.7669123.9322927-10.5818267-10.6289941,25.7890254-19.0337596,29.7669123-.9322927ZM749.1555436,529.9077122c-11.1378627-32.1532031,26.7508322,21.0366008,0,0h0ZM763.744538,407.9208849c-24.4949465-3.0310812-26.0932475-55.8128863-45.0929311-49.0473723,3.9831489-31.6153721,45.8045366,30.7459692,45.0929311,49.0473723ZM674.5901408,268.5049644c15.9510129,28.7674438-34.773018,12.5050372-19.2828364,44.1625056-4.847799,5.3091608-8.2268747,1.8944814-11.5361012-1.9377447-3.2004211-4.4929299-6.4008422-8.9858598-9.5794938-13.4483632,13.4764345-9.5994174,26.9247976-19.1789112,40.3984313-28.7763977ZM514.3231063,129.0027295c26.7916554-4.4686991,11.2709413,32.8032555-12.5463696,39.3640594-8.0538217-15.1941497,28.6489419-22.8419459,12.5463696-39.3640594ZM99.2848046,130.3521447c4.4690173,6.6840798-4.5180306,11.1068633-8.64788,16.319122-4.5002288-6.6621193,4.5067639-11.0568316,8.64788-16.319122ZM39.6484764,203.301572c4.8270692-5.3370623,8.201095-1.8767645,11.5123584,1.9586019,3.1781635,4.4622064,6.3786907,8.9555182,9.5790058,13.4480237-9.9424045,6.2158859-19.836114,12.4347423-15.3889723,21.1171863-22.569784,6.911387,4.664816-26.0296362-5.7023918-36.5238119ZM45.246943,310.9126659c24.7511949-11.9739959,28.8523577,18.7109507.9328444,29.7626687-3.8999324-10.5137598,4.3285549-19.017443-.9328444-29.7626687ZM145.8604841,523.3343261c-37.8914956,39.2512226-35.442803-21.5292589,0,0h0ZM157.2946545,596.3575917c-4.7786075-6.7088198-9.5795787-13.4487451-14.3780249-20.1852331,6.7084167-4.7785226,13.448342-9.5794938,20.1848299-14.3779824,9.6357212,9.5271493,1.8977278,16.1129478,7.6419401,24.9836156-4.493333,3.2004848-8.9866448,6.4010544-13.4487451,9.5795999ZM200.4513262,656.9435265c-11.1679708-32.136441,26.720724,21.0533841,0,0h0ZM238.8074936,710.7898542c-5.3397994-4.8251595-1.9073182-8.1797498,1.9298092-11.4873637,4.492845-3.200803,8.9833773-6.3993994,13.4763284-9.5998205,9.4320295,11.4432305,1.8618695,20.0576075,12.4404711,31.7204855-10.7887011,5.372581-16.6762402-18.425655-27.8466087-10.6333013ZM362.6488914,784.9533266c-1.9768705-38.1844722,25.6877524,15.312694,0,0h0ZM411.6963697,739.8607774c-18.7152155,9.2007969-19.0058156-25.8093097-.9296829-29.7647481,3.924821,10.4958943-4.3032844,18.9995139.9296829,29.7647481ZM412.5224033,840.712277c2.6891549-39.4027608,37.2244901,4.3256905,0,0h0ZM463.5009003,784.1275689c-15.4826705,3.5961347-9.679918-11.5592499-14.378428-20.185127-7.2320317-3.8913179-14.4744177-7.8561771-23.0477806-3.8969195-5.3113674-4.8451892-1.8971549-8.2245196,1.9379357-11.5353161,4.4933118-3.2005484,8.9554121-6.3790727,13.448342-9.5795362,10.6610543,7.1435956,16.9153022,40.383112,30.7145243,28.8622665,5.1307183,12.2417444-16.0535589,2.557307-8.6745934,16.3346323ZM429.867304,808.0851088c13.8025321-11.687703,25.3101801-9.7298862,34.5631731,5.8067838-11.3843721-2.7053654-26.3255621,15.615643-34.5631731-5.8067838ZM544.1089449,868.7772178c-3.467915-9.7945158,14.0292028-18.2122879,20.1875246-14.3802952,16.4643372,10.1925634-13.5502939,33.141405-20.1875246,14.3802952ZM772.8690778,776.8389278c-30.5610978-42.2676847-109.0121109-64.7043689-74.7759055-119.2307935-7.9993766-11.2297149-15.9784264-22.4314646-23.9777817-33.6611583-59.6507139,16.3547044-111.4411346,60.8431592-97.1913506,119.9725284,22.2707603,9.8155216,73.0531192,33.7563417,82.6027594,2.014214,28.9424489,15.881588,56.8419326,38.1207761,82.5215161,73.1275303-63.7963919-9.0515503-63.675259,33.1392832-126.8724153,49.7919291,11.2047839-37.4190157-43.4067669-56.9368402-76.81783-36.6081954-6.2525929-14.8669911,10.5940058-25.877801-10.4814874-43.2329288-24.2324176,32.8701979-9.3851592,82.4040327-66.3931429,77.7199296-7.8271722-17.1308971,31.2181521-26.3629692,42.3110753-40.2936998-9.8249423-35.2366288-3.8703122-67.7996342-35.4087483-106.6865033,14.8054592-17.5263136,22.9188395,4.6480751,34.6110619,5.8145496,7.1198527-8.6650453,2.1221069-19.3905171,10.5854126-27.854332-20.4669217-7.6336014-38.9316813-26.890361-60.4816276-27.9307164-15.417277,9.2488555,13.9279723,26.040033,17.2413574,38.4599652-25.3563715,21.6128786-34.1672049-55.3845821-62.4383199-16.4204374,7.0975952-26.6086087-9.5018363-38.43862-33.5572331-47.1095215-35.9583128,31.4775832,1.3607455,75.2861956-12.6502948,110.4513202-16.5008108-7.4016899-33.5858772-11.6225216-48.9414738-25.9915713,13.4248113-9.4402196,21.6453419,12.2435267,36.5041641-5.7309087,3.9460389-28.367423-4.1218078-45.9489455-29.6806404-70.1852884,16.0782566-7.1576206,14.5228157-17.2826262,22.1430075-25.8856729-17.8915159-11.2053568-32.6067354-41.1402723-55.7002405-21.2238486-11.0788769,11.9799369,21.3650324,31.2693084-12.5463484,39.3640381,7.9992493,11.229333,15.9987107,22.4594298,23.9777393,33.6611795-12.0495528,12.8787054-21.108105,8.1025167-31.7232226,12.4424232-7.8304822-40.7878644-1.4917659-79.2391515,7.8235864-117.1686484-13.8658675-23.2339463-36.2676483,4.3239082-50.9020489-14.4819501-6.89123,21.7942491-3.8483517,30.2382252-12.5236453,39.3901574-10.7884253,5.372093-16.6481902-18.4455361-27.8467148-10.6337045,18.8980924-20.6486105,16.9101462-39.9566537-18.1729924-68.2274928,16.2590329-14.3883156,32.0712596-26.269271,41.3051565,1.0089954,2.2708231-9.5071408,10.0505733-18.0586492,22.1410554-25.8884524-41.2583286-13.1757558-81.9862949-29.3757181-119.0401933-67.4290213-5.8785427,10.8760127-2.2823232,23.3439823,5.7028799,36.5241514-12.6532229-6.9252847-28.4979766,5.147629-39.3636562-12.5464545,25.7822357-25.2986588,77.8872327-71.0852875,15.4898209-92.2020283-2.4421787,17.8430118-31.3487057,37.1949124-43.2406309,10.5294398,67.1276849-13.9189123,64.4882859-65.9591735,28.9665312-101.8018912,32.0469227,11.0282298,43.9274326-25.3888561,67.3228258-47.9552028-14.3473226-20.6639722-27.6801756-47.0852058-48.9896808-26.0004404,2.1124316-23.3448946,23.4364286-43.4891984,23.1571588-67.2360235,8.5596985-4.1569871,8.543,4.1112201,4.7988281,6.7364031,17.9650359,22.3776773,36.7626616,39.7870592,62.4098879,16.4404883,2.7716501-9.4447602,1.49654-19.520307-.9219384-29.8125944-6.7117479-7.1072918-16.3080887,3.0724136-24.9637769,7.6695445-9.0709435-51.2172406,44.6982148-21.2319538,57.6948704-61.4119258,9.6688847,16.3572505,47.7364464,33.4582517,74.8799792,48.1438934,6.2324571-18.7245301,38.604947-33.0331725,9.6842041-57.6391098,15.1243428-7.8014561,26.1749151,8.809921,41.2995337,1.0079769-21.294589,45.3925913,25.625775,47.3944565,45.9994017,78.8332321,18.9581178-35.923961,31.3829514-27.6396282,72.1216328-41.2188209,18.3603888,18.8788054-9.7847768,29.9644933,15.2998572,49.9974031-8.9157346.1194779-17.817126.4314869-13.448342,9.5795574-13.181909,7.863964-20.3659458-19.8429886-32.6529056-17.3223037-17.7719531,19.6773405,4.0133844,24.1819615,17.2690468,38.4401689,16.1785535-28.5788804,41.8457246,41.2432215,75.8658683,6.8127238,3.5360456,23.4522359,13.5675653,69.0687608,45.9966221,78.8351842,8.8365707-7.2458445,7.5567502-44.9801793-5.7024979-36.5241938-2.6482256-15.658885,39.1909639-.9142999,54.7710032-8.5455037-2.7095665,29.1776916-5.6974905,58.3087038-20.2923197,85.4673438,3.1648387,22.9307639,38.2852359,21.9819,23.9778454,33.6615402,8.5810437,7.6365295,20.824528-6.4121301,31.7233287-12.4420413,23.4604048,37.1668836-8.5907191,80.848316,44.0867153,90.3505555,2.4490533-17.7209665,24.728216-28.9280844,36.5041429-5.7309723-56.1104459,4.1725822-23.4783127,53.9241974,2.755864,89.3642208-34.5702174,10.297401-26.5271957-13.8855365-51.8036818-44.2715231-22.8544432,26.1095852-53.2570434,21.9175674-84.5632921,9.4954073,22.4318253-15.9785325,44.862908-31.9567891,67.2947546-47.9352792-4.7989342-6.7367638-9.577563-13.4455836-14.378428-20.185127-19.0753254-3.9997838-40.671548,7.0079496-63.4457239,24.8797541,13.5722544,42.6454904-21.5713552,45.0103299,4.7245231,77.8065835,8.5958538,7.6637945,20.8241673-6.4119816,31.7205492-12.4401317,19.1206044,15.0736745,2.9260738,24.216292,17.2408694,38.459753,22.2294703,4.315124,31.7569591-5.3207033,45.1690185-22.0192011,5.2339433,25.5442134,27.1699279,42.9501368,53.7727865,32.7093239-3.8631406,27.1544176,27.8395219,41.5220669,45.0649235,49.0672746-2.5159321-12.2861322,25.1878378-19.468111,17.3469376-32.6240068,39.8319562,5.1482443-19.0147908,43.8446829-27.932626,60.478848,14.7008126,18.2638262,32.3299057,19.2478481,47.033519,37.5097222-30.0440603,13.3517582-39.8779141,17.9214331-49.0504913,45.0949893,4.4680625,8.587303,10.0072888,10.9151173,16.2910507,8.6677612-27.1810885,27.7448902-16.0298161,56.3800404-18.3310232,73.9576165Z"/>
    <path d="M245.3528296,107.5147182c-15.4957195-17.9852353-51.3110873-7.8747215-54.7678417,8.5434668,14.196612,21.2654357,34.6227741,5.5992093,54.7678417-8.5434668Z"/>
    <path d="M315.4143329,148.8936917c6.7371669-4.7990191,13.4736337-9.5974653,20.2131983-14.3983516-9.8475818-11.8536905-20.4535333-19.3241264-32.6553456-17.325359,4.3875194,10.6233501-.4162525,19.702123,12.4421474,31.7237107Z"/>
    <path d="M173.0516511,290.8876279c-10.636187-18.931256-23.0886887-27.19575-39.364314-12.5458816-3.3095023,16.3934058,19.3213256,34.5430797,39.364314,12.5458816Z"/>
    <path d="M167.264515,325.4793815c10.5951728-4.3679565,19.6740518.4361973,31.7006044-12.4681605-11.2801286-26.5604653-44.4081663-7.9180272-31.7006044,12.4681605Z"/>
    <path d="M174.9031875,350.4646097c-6.3985083-8.9831863-12.7774748-17.9382165-19.1788051-26.9243733-8.9834834,6.3989963-17.9389167,12.7780477-26.9220181,19.1769591,11.2753546,26.8981268,26.6578342,29.4826138,46.1008232,7.7474142Z"/>
    <path d="M424.8826708,202.8260368c-15.1781514-2.3576679-31.380384,8.9767361-22.1211318,25.9165025,15.1504833,2.3775066,31.3531827-8.9566215,22.1211318-25.9165025Z"/>
    <path d="M176.7580551,410.0402972c29.2222279,7.1760589,30.6965528-3.0399927,66.2883478-6.6328598-40.0804601-36.556742-100.1089797-7.3431286-111.4880897,28.6743185,15.574353-1.1459356,28.2822119,6.8946037,25.9184757,22.1239114,8.9834834-6.3990175,17.9385135-12.7779841,26.9219969-19.1769803-4.5715634-8.6786672-14.7692403-18.3002785-7.6407306-24.9883897Z"/>
    <path d="M504.5635363,257.7094736c-6.9177099-9.0706889-7.3871557-17.0357561-7.6915899-24.9949672-10.59286,4.37063-19.671739-.4335026-31.7005195,12.4685424,10.6338954,18.928625,23.0868639,27.1934161,39.3921094,12.5264248Z"/>
    <path d="M482.4177493,283.5970985c-6.3790727-8.9554121-12.7780689-17.9388954-19.1789112-26.9247764-9.2560695,8.3308424-26.5369771,15.3136064-22.1211318,25.9165237,16.267117-14.6018524,23.8955412,22.3644585,41.300043,1.0082527Z"/>
    <path d="M221.8525564,459.0905339c5.224756,19.8520062,6.9028999,22.2076796,23.9579218,33.6334902,33.0725741-20.3413967-4.1690601-43.9329705-23.9579218-33.6334902Z"/>
    <path d="M276.603636,450.5169589c4.4901716-3.1984691,8.9834834-6.3989963,13.4736549-9.5974653.6269037-15.061644-4.4484996-21.6054735-21.1148099-15.3862988,5.7406689,8.8728321-1.9945662,15.4566574,7.641155,24.9837642Z"/>
    <path d="M275.5929856,491.8188054c11.663069-10.5778378,20.2489716-2.9876057,31.7256627-12.4393254-4.8009712-6.7399253-9.5998205-13.4763071-14.3983516-20.213177-16.6655464,9.0640052-24.1359823,19.6699567-17.3273111,32.6525024Z"/>
    <path d="M547.698205,318.2641968c12.0952137-7.8289969,19.8725026-16.3836456,22.145787-25.8876249-6.266236-25.7179243-48.9810027-8.7107486-43.2605969,10.5012836,8.6524419-4.4299976,14.9013216,5.446589,21.1148099,15.3863413Z"/>
    <path d="M241.9314454,515.7966932c-14.241509,14.3175751-23.3817501-1.8788438-38.4600925,17.2409755,8.8123611,18.1633595,22.7171422,5.8658544,30.7172827,28.8602932,23.3319729-11.871365,6.9225052-30.444845,7.7428099-46.1012687Z"/>
    <path d="M310.1609752,497.6268835c6.3989114,8.9830802,12.7979077,17.9665636,19.1768742,26.921615,29.8822103-14.2676919,1.8555678-44.0515785-19.1768742-26.921615Z"/>
    <path d="M573.6058809,340.4384157c16.6931933-9.0839076,24.1386345-19.6722907,17.324871-32.6556214-17.5453461-3.4785664-35.4199726,13.9174482-17.324871,32.6556214Z"/>
    <path d="M267.8498999,537.9206045c-2.7644996,15.8828823,22.4780379,45.1765296,42.2250367,30.8184283,20.8296627-19.2130083-19.9477201-59.9406776-42.2250367-30.8184283Z"/>
    <path d="M551.4628734,366.3240886c-11.1782191,7.8397968-17.037984-15.9778323-27.8264942-10.6061212,4.0228476,17.8210937,35.6533269,37.6478718,27.8264942,10.6061212Z"/>
    <path d="M361.9903094,541.8754064c9.4862624,25.7753611,25.3585994,13.6871493,39.3652476,12.5415319-6.3790727-8.9554545-12.7780689-17.9388954-19.1769591-26.9219969-6.7399253,4.8009712-13.448639,9.5799818-20.1882885,14.3804649Z"/>
    <path d="M574.4350759,441.2878785c-4.3682536-10.594706.4359003-19.673585-12.4428263-31.7231378-8.9831014,6.398869-17.9665636,12.7979077-26.9243733,19.1788263,9.4882144,25.7781194,25.3582174,13.6872342,39.3671996,12.5443115Z"/>
    <path d="M374.4307806,573.5958495c-8.4836536-8.2000341-20.2257168,2.8489044-29.7626899.9328019,27.5505131,20.4204121-8.0225041,30.2357427,3.7646684,48.0599555,17.8973933-7.0965555-.6898359,16.3026569,21.1151918,15.3861928,23.3186269-17.8071536,3.7513223-42.8440261,4.8828298-64.3789502Z"/>
    <path d="M483.0781772,526.6773739c-17.9513503,13.6918384-21.5567573-1.5725-26.9246703,19.1793355,31.6929447,19.4521339,33.41641,27.8423015,70.0594664,41.375812,2.0912137-13.4626216-9.3218874-29.1942203-22.0480362-45.1488827-24.9428349,19.5807779-6.3589157-3.7692726-21.0867599-15.4062649Z"/>
    <path d="M438.8066754,578.4811193c-26.6257527,25.1595119-37.2591602,53.0057387-20.3172295,85.4852305,29.4832079,5.0497084,31.6041479-24.7823216,30.8212291-42.2269888,19.2978586,37.9886948,45.8110293,33.016474,72.0193625,29.871665,23.2718202-15.8371577,10.9528851-37.6540038,9.6834402-57.6388552-38.2420788,39.4587336-64.51118,7.6791774-92.2068023-15.4910515Z"/>
    <path d="M548.3559807,561.3468273c11.8801492,23.2834052,27.2361489,25.8907015,46.1012475,7.7427674-6.9152699-9.0675911-7.3846095-17.0322552-7.6891498-24.9918694-11.8228609-.0800975-24.3406288,3.9620796-38.4120977,17.249102Z"/>
    <path d="M600.2445129,534.498308c7.565683,13.8086853,18.1809067,9.4691608,25.9355986,22.1539134,23.2183724-11.9178958,11.2374806-29.7225245-3.7898328-48.0415384-12.0948106,7.8288908-19.8530671,16.4113774-22.1457658,25.8876249Z"/>
  </g>
</svg>