<?xml version="1.0" encoding="UTF-8"?>
<svg id="sea_buckthorn" xmlns="http://www.w3.org/2000/svg" version="1.1" viewBox="0 0 1109.5845749 1000">
  <!-- Generator: Adobe Illustrator 30.0.0, SVG Export Plug-In . SVG Version: 2.1.1 Build 123)  -->
  <g id="outline">
    <path d="M348.9300729,104.4381343C77.6273109,249.4614631-146.8276844,648.3006079,119.3887494,920.3639786c142.0505917,145.1701698,377.3288477,61.0372248,519.5417917-10.2727104,148.3615369-74.4088086,449.7863257-316.6389397,468.1270636-516.400107C1148.0135089-52.3811906,682.3246261-73.7759682,348.9300729,104.4381343ZM972.6956668,246.5451644c-33.0449668,7.7026714-68.5320899,24.8254564-82.1878419,26.7986867-7.7365667-36.5478941,53.6945321-50.8659473,82.1878419-26.7986867ZM1003.7845921,300.0678764c-21.1190888,5.0718049-45.7688876,30.2975926-60.2374355,10.5546957,7.0331547-44.6372928,29.9202641-14.1758082,60.2374355-10.5546957ZM830.1920741,88.4373615c4.5945832-21.1432866,22.2219359,16.0075518,47.8040714,7.1483755-2.4172003,27.3574178-35.1083699,13.8000883-27.7074923,54.4706752-65.503213-11.6598866,25.3616213-47.8214672-20.0965792-61.6190506ZM867.0767373,299.1879106c-26.0314828-25.3649074,20.203803-59.5715955,0,0h0ZM761.8617929,88.0009979c-19.9758433,18.9656738-41.9362229,35.2489144-65.9497797,48.756148,3.221011-10.8915107.4429818-17.3132186-6.7115293-20.5291052,28.332658-3.0401829,45.2147984-59.5697112,72.6613089-28.2270428ZM668.234142,191.2732981c-30.7031862.0226121-21.429615-29.5307793-43.5120404-35.8542485,16.3875-22.3650771,63.3718816,3.3111149,43.5120404,35.8542485ZM656.6809736,72.2726968c-2.6865696,28.0707571-43.0778369,23.2235798-50.6603469,11.9502825,10.2523043-12.9799389,32.8795581-9.2379526,50.6603469-11.9502825ZM650.0933285,247.1789016c-9.8864198-9.6715356-23.7507826-16.4358725-46.3732566-16.7199719,8.9371239-40.8954903,54.6362677-19.6667418,46.3732566,16.7199719ZM578.3424566,138.7429232c27.4398694-22.3451536,31.9931809,21.68345,5.2843911,30.0973236-10.580479-3.4510849-3.8928717-10.4038102,1.4313434-9.5712517,3.2166678-10.8922231.4383169-17.3101164-6.7157346-20.5260718ZM553.4903207,174.1151242c36.1152302,16.6964635-39.4234496,5.4010826,0,0h0ZM556.824806,86.6520141c-53.5866189,30.9979023-112.6678023,54.5731881-176.8035788,71.2680201,8.6409371,65.3548324-53.3405051,35.2085159-52.5306737,89.8926735-13.1509546-.3377572-11.827892-51.4778077-25.8498504-23.3920218,30.9196101-73.2799714,151.9883254-123.9337001,255.1841028-137.7686717ZM508.1105043,216.161972c-9.7341326,5.7847305-38.4390405-5.4304049-68.3344175-.4328707,32.4611187-5.9247236,49.6999747-32.3772194,75.477071-47.3316985-6.3512058,4.9752897-29.1413175,41.9714969-7.1426535,47.7645692ZM451.7660324,266.3960664c29.5791518,18.6589163-40.8604461,18.22446,0,0h0ZM336.1429346,385.9413811c15.6990249,13.8798282.0567601,50.950467,9.1341068,69.7655312-19.0057736-2.9605119-8.2730763-27.9220547-35.4153801-24.8628675,6.8087339-17.5914352,29.9300995-13.181196,26.2812733-44.9026636ZM338.0106187,308.0398712c-23.180125-21.0413941,14.7079976-55.8202794,45.3815629-42.087568-12.4508747,17.5827259-28.8842883,29.8790154-45.3815629,42.087568ZM268.6840479,248.7995297c17.2241259,23.3719375-26.7196362,58.2390653,7.7035677,79.3328533-20.5422726,17.9645814-27.1289296-12.1685447-54.5100626-27.7179021,5.4239016-30.959503,19.9129475-49.6706755,46.8064949-51.6149512ZM234.8156456,409.8815863c-9.2551644-1.6650481-5.6374529-12.8149208-6.6654088-20.5630693,9.2558538,1.6607049,5.6374529,12.8149208,6.6654088,20.5630693ZM241.5272438,430.4111741c17.8885412,3.7864752,1.9229505,32.6158878,24.3773501,32.9931243-5.9755549,24.276216-14.448073-15.6027624-38.2372548-5.718181,6.2102936-6.9464059,12.318488-14.0269679,13.8599047-27.2749433ZM154.5311983,358.7841404c29.369507,12.9022671,32.077241-10.2744339,42.5300902-22.9883355,22.6008729,13.2018089-13.9457343,41.1402023-34.4236175,33.9451549-3.6371294,25.3832683-13.705917,55.4935755,10.5592916,60.2338507-7.6791171,8.7913859-23.4558368,6.5915287-23.4249749,25.8040057-23.0382936-26.5093709-7.3536771-62.7760611,4.7592106-96.9946757ZM166.1267645,673.2448239c9.2558538,1.6607049,5.6781961,12.8166673,6.7053707,20.5686994-9.2551644-1.6650481-5.6770472-12.8210794-6.7053707-20.5686994ZM99.1450764,467.7748514c12.4765661,22.6619762,47.5335991,113.2067478-6.1941388,106.5613544,12.769214-29.2666494-10.5918081-31.8028621-11.9502595-50.6603239-2.5548723-30.2429926,20.6989489-25.6542462,18.1443984-55.9010305ZM58.567305,608.2869908c17.3354401,1.3584055,18.3989917,14.7235549,36.8066697,15.2855262-10.9540158,37.3359867-9.5582222,27.9996805-10.0040994,66.9030741-6.9476468-6.2063181-14.0331265-12.2788938-27.2458738-13.8148413,10.1660152-30.2138312.1219768-45.4751596.4433035-68.373759ZM868.7077064,680.5574131c-22.2733187-12.7534728,18.6289966-34.71445,10.0041224-66.9031201-1.0514642-7.3260783-25.3664471-23.4114627-33.9182915-20.8328063-1.4542543,1.5015238-2.4465225,3.3216166-2.8883783,5.5472802-.3344941-3.2069933.8163348-4.9225051,2.8883783-5.5472802,18.1532226-18.7431373,108.8876695,12.5706225,115.1145086-64.7729836,8.2113295,57.3418875-70.5398818,95.9865974-91.2003396,152.50891ZM939.8152814,466.4297742c23.5518234,4.992065-2.0390445,32.7809977-5.7173308,38.2338079-27.6836852-10.5821565,12.1948336-19.0546057,5.7173308-38.2338079ZM952.2484157,448.7224978c-39.8376607-31.7253742-69.6345233.5248818-83.6230689,36.3691571-6.684505,24.7685814,8.5335984,33.3683386,33.9508309,34.3836326-36.1504123,31.6590544-40.6736202-31.691387-62.6567499-38.6761003-48.0431993,31.9448084,1.3839361,82.7610273-39.1133371,130.9904551-27.8669721-38.6050007-83.7170334,2.7110661-54.9527916,40.6563164,10.4397507-8.8998966,35.729675,2.2805393,32.9625841-24.4227123,22.8425746,33.9198771,66.6274313,84.4502961,21.0804827,120.4250968-27.8859535-13.751486,14.8189441-23.8293276,15.289157-36.8019819-19.7173664-27.7231185-23.4041092,17.1377448-58.8068504.9875803,7.0757133-19.3798619-2.7461333-26.2970834-3.8096389-39.662049-37.47791,6.7669106-109.0895701-10.5831217-101.3272661,23.9404809,14.6840296,42.9984187,89.6973911,41.3313713,82.743218,100.339387-23.6775-5.2149462-32.1513279,10.2217872-42.5240694,22.9478221,6.8361258-20.173102-4.832677-59.6991105-37.8004546-74.0515185-9.1492505,2.9641197-18.371324,5.8405485-22.0000888,16.2763237-15.4768561,34.1110461,33.6008254,20.4943137,21.5671951,52.0578181-22.8061056-.1484496-42.6586162,3.6428054-52.0969987,21.5576355-14.3996085-6.3678892-3.6730928-31.2898608-35.3757859-24.8567089-21.0534585,41.0751694,33.58536,26.1808975,42.0868786,45.385952-15.7537398,28.5027775-54.5655588,25.8385443-75.5219736,47.3616641,28.4909659-39.2055781-23.5702073-39.155574-75.0404087-21.0024433-6.6426588,24.7344104,8.5758812,33.3340528,33.9508539,34.3841382,18.3983942-7.6290212-64.614331,31.0590516-101.2872353,23.9462489,9.2402965-29.3587754-15.2673951-40.4594484,8.573905-57.3362345-10.7197826-15.562341-38.7286091-31.6774383-55.9451977-18.1469721,3.2697742,31.587817,13.7839564,57.8126519,37.800041,74.0518862-118.949747,15.7348734-193.1900676-8.4913615-271.4987797-79.6907639,3.9225616-10.0294002,19.9506574-3.6583398,21.9509579-16.2435544-24.8136907-38.5473444-79.4332291-17.6847103-71.7013274-108.4691153,36.2275096,14.3641277,52.028358,12.6714349,79.3263041-7.6634449,4.2292961,19.0464478-30.1951716,80.6652457,1.946252,117.5638347,28.3683456-41.0516841,34.78378-66.4189125,82.6307088-95.1721699,5.4443306-29.4902659-25.9906477-31.7641641-9.0944896-69.7590508,10.8919244,3.2204595,17.3098176.4421315,20.5295877-6.7116212,17.9242288,3.7918525,1.9230194,32.6163244,24.4134974,32.9984326,52.9202274-17.7776636,2.3896015-72.378933-15.840029-90.3346212-28.3423325-11.5148611-22.2817753,23.4709345-50.6202931,11.9563722,5.8152477-37.5834563,33.8406886-93.3625099-17.2751871-80.7636682-8.6014808-38.4686845,43.0295333,4.5246556,34.4279607-33.9444655,18.0360026,23.4975911,7.5056426,68.1292538,36.329425,83.6131647,47.425571,10.4756911,46.8855684-43.890357,68.8075259-67.8912749-.3192815-12.4921694-26.6784104-16.7923353-28.6664397-4.2867457-16.2831946,1.979251-7.8435377-54.4604032,7.1482835-47.804531,32.1243956-3.9434503,8.7544114,33.2015971,22.9487413,42.5239316,32.4524783,5.5693178,39.7978137-22.802245,54.946633-40.6166533,12.0622401,5.2244598,12.5001894,19.0456206,25.8102562,23.3858632,9.1541911-2.968394,18.3720364-5.8447308,21.9943208-16.2370971-35.1421502-31.1822923-44.8422727-140.2425402,1.3132961-205.0423642-1.8754742,44.9766586-16.0113435,103.3460194,19.6552519,129.9562717,15.0357816,5.029614,17.8035618-6.5646653,30.1351024-5.2379489-20.2910343-31.0710011-10.6543131-58.5380096,20.9624354-75.0460387-4.7318416-10.6477869-20.4965198-13.1680516-14.8060984-31.5617579,51.4984666,9.0528272,3.672909,38.7250932,7.6639045,79.3262351,23.5856957,5.0377488,31.8467305-10.5854197,50.6603239-11.9502595-28.0720669-48.6978252,15.6559837-49.1182178,41.5316863-81.7510187,1.1591016-9.3311357-10.5551093-9.1773778-17.6672916-12.4275272,39.4370077-23.8457122,22.4051079,73.5783412-1.8638924,77.9018316-4.8703639,20.5895421,3.2702338,31.587794,24.3732137,32.9966172,35.5821446-15.3613595,7.7297646-27.2393016,8.579627-57.3757598,36.340892-11.6643218,22.5375635,9.8937504,55.9405328,18.1500974,10.7429463-.8203792,9.3009632-18.0577185,21.9604716-16.282781-1.043743-39.2850422-44.7674274-7.2515548-54.4760984-27.6717816-2.754337-30.5167281,28.9678429-14.4772573,26.2473781-44.9483245,8.3663973,10.7958918,16.5027207,21.7938909,24.3795332,32.9523122,36.837141,7.6176462,21.032432-55.8272883,56.3777466-50.1836308,15.3104593,19.6655929-11.3720875,23.1107949-8.5732156,57.3319143,10.150297,6.0545595,45.9229442,8.0199537,31.0845822,53.5219997,29.2892615,8.9159365,43.9155429-1.9438391,43.9546545-32.5151672-16.3242595-31.5120756-49.3949407-1.3029552-29.6576049-63.0939408,9.5712747,1.4313434,19.1385969,2.8619055,28.6702544,4.2870674,14.4488772-76.4189215-48.331527-72.5232003-97.9986406-63.4871253,31.2732694-51.4330201,95.4169968,12.9162158,139.5641532-18.2186691-35.4277892,53.6751142-4.2148648,135.8875445,33.0311329,171.0820427,13.4407989-1.0525213,11.5169752-22.7715669,15.289111-36.8020738,15.6818819,11.0510136,6.3730826,40.5989129,43.5176934,35.8142637-4.6142539,35.8941645-45.5540263,22.7352359-40.1049619,72.1833748,42.7767784,8.0664418,60.0605369-18.4160427,75.4825172-47.3674091,13.9570174,16.2416471,19.4952435,61.0936403-1.8639383,77.9018546ZM197.6545812,658.3926051c11.6659533,4.1712951,6.8026672,20.4656349-2.8618366,19.1390565-13.250664-6.3148058,2.2284671-8.2554508,2.8618366-19.1390565ZM991.4342311,513.237487c-25.0952853-23.6736394,20.4322683-48.0827936,29.1383991-64.0385718,18.6813906,14.9610513-29.6600408,35.610134-29.1383991,64.0385718ZM1041.1025166,442.4834794c-18.5891496-8.9042168,4.5794165-48.7060979-32.5163852-43.950679,2.118095-24.0220593,19.4786981-27.3508226,26.2836173-44.9425566,22.8855928,14.2371413,11.1104624,54.1508192,6.2327679,88.8932356ZM1055.3995433,346.8743713c-23.5478709-4.9913066,2.0785698-32.7752987,5.717009-38.2332793,27.6880054,10.5828459-12.1998892,19.0897648-5.717009,38.2332793ZM1060.1626604,249.880431c-8.2205674,11.8949012-23.1187459,14.716638-41.0930018,13.3808446,7.5249686-80.3582124-50.7822548-92.8147402-78.4567481-129.0050684,57.3473567-8.2466036,78.2347631,83.6774622,119.5497498,115.6242238Z"/>
    <path d="M820.2694841,350.8067454c-3.9202637,33.6521393-22.2557621,92.1915047,43.0749185,104.1884363,10.9773633-53.4750749-12.8298577-81.2150606-43.0749185-104.1884363Z"/>
    <path d="M779.7256078,491.3645685c-4.9901577,23.5119764-.9938768,40.4138795,11.9502825,50.6603239,17.3080252-12.0469356,22.1554323-52.4425001-11.9502825-50.6603239Z"/>
    <path d="M770.5972,421.5595351c-4.9321566,12.5050841-16.3474232,16.2464269-15.2851125,36.8065778,13.2422993,1.580942,20.3277561,7.6535176,27.2754259,13.8598358-10.0120734-30.1280476,16.1243352-33.8956563-11.9903133-50.6664136Z"/>
    <path d="M697.0604982,586.4908708c-6.4247872,24.6123416-2.646309,41.63675,22.9883125,42.5300902,6.4240978-24.6079985,2.6467686-41.636819-22.9883125-42.5300902Z"/>
    <path d="M661.6071555,366.16907c-14.1313193,10.7348114-17.5219443,33.4103917-7.1486742,47.8050366,53.7648963,18.8957922,47.69301-46.3514717,7.1486742-47.8050366Z"/>
    <path d="M556.6207453,741.4180381c-8.9516931,29.2836774,20.0064294,30.5521629,32.5194415,43.9549073,14.1702011-10.7242637,17.5616074-33.4038195,7.1483755-47.8039795-16.5442453-3.1910683-30.0370475-2.3053805-39.6678169,3.8490722Z"/>
    <path d="M511.2391135,783.5051924c-35.0932262-9.1809856-57.2293784-.7635272-63.05391,29.6637175,28.3712411,15.2984868,25.6574864,1.0146965,46.3400737,16.6699678-.4442457-23.6071588,20.571411-18.1556585,16.7138363-46.3336853Z"/>
    <path d="M286.6705979,847.6310875c-22.4738635.3000244-18.4753076,36.3297468-35.8541796,43.5125-11.2459513-28.5212992-3.1281726-71.3717969-14.37286-99.8967729,23.6769255,5.2142568,32.1050696-10.1886503,42.5240235-22.9482357-14.9245593-3.1071461-3.8219331-25.5050153-25.8106468-23.3853117-15.8139699,16.9248139-25.9020605,41.5796682-54.9471615,40.6163086,10.1319591,47.9250372-16.4034939,45.3496439-32.0045559,83.1802021,23.8545135,60.670559,125.5282921,59.9274838,162.5122051,24.3011491-13.4001247-26.8558605-24.3074915-14.0147427-42.0468247-45.3798394Z"/>
    <path d="M311.8418545,548.4540459c2.8521851,20.5465468-25.3714797,64.0881393,10.5649217,60.1938888,19.4922332-5.3560422,32.1360004-38.0620568,18.1005529-55.9074418-9.5274062-1.4249321-19.098566-2.8558159-28.6654746-4.2864469Z"/>
  </g>
</svg>