<?xml version="1.0" encoding="UTF-8"?>
<svg id="sea_buckthorn" xmlns="http://www.w3.org/2000/svg" version="1.1" viewBox="0 0 1000 1029.2284022">
  <!-- Generator: Adobe Illustrator 30.0.0, SVG Export Plug-In . SVG Version: 2.1.1 Build 123)  -->
  <g id="outline">
    <path d="M677.6888285,387.3205666c9.5350817-11.8933837,24.3404708-23.1945079,9.609789-37.721147-26.7948673-.0662284-40.036274,28.5864099-9.609789,37.721147Z"/>
    <path d="M683.896627,432.2733532c-8.1414159,6.9563275-15.6262844,7.8537651-23.0670708,8.5578747-2.0543683,14.3739552,14.5201639,37.2517266,30.4365247,25.4642662-9.6034193-12.1462961,10.3450091-21.042189-7.3694538-34.0221409Z"/>
    <path d="M603.7357253,456.8039883c7.8517825,12.5398914,17.5922145,7.8766287,25.5804613,19.3702372,14.8250679-13.1436248,16.408708-27.7464688,4.7456053-43.7627206-14.2411819-1.3875069-28.625915,10.1829814-30.3260666,24.3924833Z"/>
    <path d="M514.6309468,308.7369564c-8.1375772-10.117217-16.2549062-20.2088285-24.3924412-30.3256869-14.8506734,13.163894-16.408708,27.7464899-4.7434961,43.7655469,9.7197831-4.6892057,18.5188854-.6722187,29.1359373-13.4398599Z"/>
    <path d="M635.5005731,521.1043172c8.09069-8.3341955-6.2334884-19.1225766-13.436654-29.1380886-32.7057135,5.0126072-2.5170393,52.9025408,13.436654,29.1380886Z"/>
    <path d="M448.9614819,301.6157327c-20.2679279-.2395192-63.8953652,15.5468313-43.6291036,45.0888713,15.2719622,17.8280215,71.604166-24.9603184,43.6291036-45.0888713Z"/>
    <path d="M581.9927382,504.2429146c-4.7090742-9.74503-.6921083-18.544512-13.4667942-29.1181779-6.0440624,4.8613996-12.1157973,9.7451355-18.1850856,14.6267622,9.4372787,15.1683801,19.7955968,21.6308839,31.6518798,14.4914157Z"/>
    <path d="M550.594488,589.3980103c29.498886,19.7974739,3.2098226,33.5479537,11.0911337,51.0245637,10.0955978-7.9574949,16.9140268,14.1110873,26.7401129,8.4420382-4.6378259-7.892553,4.3008201-14.3081696,13.3310681-20.7187453-20.0997836-25.6929231-6.3794019-25.7134455-26.907983-58.256604-8.0934108,6.5097918-16.1612794,12.9989768-24.2543317,19.5087475Z"/>
    <path d="M388.3093487,350.4006994c-23.8255974,15.7473938-44.5002607,2.2229977-69.1864482,25.6956018,6.2683954,9.9142078,20.1505306,20.6542042,13.4415895,29.1387636-24.2963466,2.8380364-48.1320471,1.4478508-75.279275,30.5995647,14.7920169,16.8744163,28.6271383,42.3629803,45.0888713,43.6290825,31.2128949-13.2371672-9.7268278-34.277711-.1353043-49.8365647,46.701344,27.0921782,40.7041899-41.6004463,94.6738733-56.1547791-5.9331192-8.0284057,1.0045209-14.6657821-8.6033065-23.0716689Z"/>
    <path d="M566.5672483,646.4918622c-21.1833568-2.3869658-42.2138187,23.5092195-15.6985451,42.5774846,18.3241864-12.7874043,33.7031265-25.8482435,15.6985451-42.5774846Z"/>
    <path d="M497.2223158,622.3731723c4.6626721,7.872347-4.2941129,14.2651844-13.3264912,20.6729338,12.7775544,16.9929947,19.9164109,4.0976001,19.5108566,24.2567783,15.6351851-9.3633095,22.494237-19.6786213,25.4646881-30.4361872-9.4578644-15.1935638-19.8207804-21.6102561-31.6490535-14.4935249Z"/>
    <path d="M334.0003394,493.975397c12.7966426,1.2055475,26.9603541-10.3911792,41.2798079-23.206931-6.5098129-8.0934319-13.019225-16.1865053-19.5108566-24.2567783-24.7297422,13.919299-32.4541509,29.6832078-21.7689512,47.4637093Z"/>
    <path d="M243.961529,456.5054541c-33.0110393,8.0214665-46.994331,44.7493345-41.1210494,73.0669498,17.0598348-.7167014,74.8374005,4.4205375,76.4669577-41.5504586-25.4567575,3.1595396-18.482059-11.3062706-35.3459082-31.5164912Z"/>
    <path d="M279.9453605,737.196606c20.2722306,17.4222563,45.0515598-7.0988031,66.8591513-3.8321379,1.2083738-12.7983721-10.388374-26.9624843-23.2069521-41.2797868-11.5309622,15.3714736-50.1092613,27.7871972-43.6521992,45.1119247Z"/>
    <path d="M163.4126214,790.9786562c9.8312747,57.6431262,63.2429096,134.2033731,121.8032576,101.7699133,20.7876946-48.58046-55.6519069-178.4287858-121.8032576-101.7699133Z"/>
    <path d="M985.3728792,0c-97.717703,85.4974166-138.6885151,130.570701-199.9801956,210.7979577C537.8129261,32.2340784,37.4930131,429.5013977,1.5143069,701.4616162c-17.4443184,132.0087018,118.6331931,321.0912394,263.3948563,327.4666338,115.556186,5.0765577,242.2867974-54.8372338,341.2027289-134.6052996,202.1610307-163.0270032,453.6689363-404.6881106,220.6756766-656.9202053,56.1787605-92.6942124,104.5375029-131.7529208,173.2124313-219.2176807-4.8614207-6.0440835-9.7451144-12.1158184-14.6271208-18.1850645ZM817.4317257,374.7696231c-1.2872362,24.9722564-47.1900002,29.7506174-61.9733695,9.9018058,21.3286797-9.3527425,41.8902907-12.0332649,61.9733695-9.9018058ZM784.3205,271.5605911c-10.9501767,4.421571-3.6467405-5.8016958-9.7447347-12.1154598,8.8364771-4.6281236,15.8260665,7.1449731,9.7447347,12.1154598ZM751.6472258,317.8374192c13.6553766-6.7187066,24.9103307,8.4899167,40.0910706-12.2514391,6.0073415,15.4051362-25.1575273,26.7770658-15.6986294,42.577126-15.4405494,9.8600439-24.9403233-23.8303642-24.3924412-30.3256869ZM58.6287445,685.5140395c37.1923108.3637924-2.018934,35.232434,0,0h0ZM371.7244393,963.0080873c-4.2547344-14.3804725,10.3141939-9.7605536,18.1850434-14.6271208,4.2303311,14.3547827-10.3361083,9.7331342-18.1850434,14.6271208ZM383.5663799,853.5913622c-20.5493355-18.8271851,9.5036126-32.1926751-11.0457018-51.0196915,14.3614899,3.4047746,29.4232717.7573665,42.5572996,15.6736989-1.5632654,12.759774-15.9035791,24.1323785-31.5115979,35.3459926ZM446.8399571,882.5937247c5.8580533-14.1416283-8.0752718-30.4037901,15.6993255-42.5771682,6.509391,8.0928624,12.9989557,16.1607521,19.5083678,24.253952-11.1187007.5747954-22.6898851,5.0836445-35.2076933,18.3232162ZM463.9986284,928.7340252c-11.7467952-12.3326216-10.5612428-23.2859622,3.56077-32.8139148,4.8613996,6.0440413,9.7451355,12.1157551,14.6267622,18.1850645-6.0717349,4.8836937-12.1157973,9.7451144-18.1875322,14.6288503ZM511.1885442,850.8315344c14.8385245-.8035155,28.4901256,9.5518708,44.9528077-6.2074189,23.175947,25.1247506-56.0157626,38.6345933-44.9528077,6.2074189ZM553.6300074,816.6939367c-25.867184-19.4269954-12.2230072-34.5464424-11.0659289-51.0450861,18.7116017-8.0589467.5203784,45.0581193,30.4365457,25.464667,4.7549279,9.7503452-11.1270953,17.2396008-19.3706169,25.5804191ZM639.8601552,787.2813375c-12.1567155,5.146667-46.8755417-37.7641322-43.7655258-4.743475-28.7566634-20.1946126,40.3529261-36.4815784,58.2569837-26.907983,17.6004825,12.9930078-32.0716289,18.6885694-14.4914579,31.651458ZM634.7249411,681.5659386c3.0151658,14.9655186,5.2040369,34.2579479-14.5088165,31.6248822-2.5531697-11.3593167,3.8635015-21.7226124,14.5088165-31.6248822ZM685.8599417,720.3319763c-3.2559083-4.0479498-6.5094121-8.0934952-9.7653204-12.1410654,4.0479287-3.2559294,8.0930734-6.5097496,12.140981-9.7657001,3.2559505,4.0479287,6.5098339,8.0934108,9.7653204,12.140981-4.047528,3.2559505-8.0930312,6.5097918-12.140981,9.7657844ZM708.6780443,612.0824959c29.5991356-12.26382-18.320432,26.2796775,0,0h0ZM751.2583762,627.7793114c-15.3832639,8.3117327-36.7181447-29.0264283-7.3705506-34.017564,22.2759573,13.4974618,2.325462,22.3909291,7.3705506,34.017564ZM688.8982664,488.1546763c-50.3530621,29.6104409,11.4712723,71.3596902,5.1327886,105.7175292-25.4505987,6.6544397-60.9724763,3.1627877-52.3482678-27.7944739-11.5442712-12.5369174-25.752824-.7426655-40.043867,12.2589056-11.1552107,11.6942765,12.436246,27.1797094,1.2984571,38.901321,9.5531574,14.1014272,20.5069197,15.2873171,32.8374322,3.5380541,9.5877058,12.1214499-10.3652784,21.0166256,7.3698546,34.0221409-58.5570576-25.1561563-69.9247266,53.7250811-112.8572716,70.7795375,10.8347621-49.2309541-33.4276879-19.2758511-58.3943972-22.9310283-5.0447722-11.6270356,14.908212-20.5222113-7.3677876-34.0200528-6.7048915-6.3131102-15.1637399,3.782551-23.0939841,8.575634-.0749394,23.9596573,34.2537717,24.5499974-10.7899841,48.6290557-10.762417-22.0674432-5.124858-15.0584071-24.3722563-30.3008618-10.7714443,17.2783254-43.2492814,32.2278142-27.8399479,52.3428682,23.4021572-3.9500836,37.7425341-34.8271328,65.6513259,7.0984656,24.6549505-23.2061506,47.6515745-31.0956875,69.2298342-25.6930496,5.7681598,23.8460354-31.6936206,25.7755188-40.0914292,12.2515023-13.4076527,17.0848287-6.0009506,53.0671627-38.7453677,51.1605851-8.5644975-12.0084397,16.6402334-20.3344938,3.5376745-32.8374111-27.9604879-14.2478047-63.2938043,39.2869645-87.5324858-9.4943322-27.7111188,24.5656475-11.9934434,87.7576203,18.4589634,85.0451227-8.1310598,42.5905404-31.2834261,52.9612816-26.4893306,91.2060973-9.2505103.1248638-18.0763359-3.6253533-26.7677432-8.4193644-62.7211603,132.4591607-206.5614888-16.8132499-249.42867-99.008567,23.5133957-10.3772796,18.7736118-23.7976929,20.5813107-36.5083228-11.5845988-34.2071165-38.718328-4.9872126-35.3437569-31.5133063,9.9482501-22.9998722,42.514441,7.5391167,57.0913631-15.9710519,17.4514052-14.6854187,11.3723514-31.9437068,10.7900052-48.6290135,23.6275448-13.4739022,44.2997615.0526031,69.232323-25.6902655,29.1919994,37.1521097,64.4107027,18.5372142,94.9233268,43.4909941,3.1262566-27.3418425-2.7719345-55.6396526,14.3574402-81.4859557-50.2155854-25.0402144-2.9283095-59.620931,4.6284189-93.5768857-38.753003-19.8324653-33.4421147,33.6027293-60.6521332,48.7849667,4.8128251-57.2710025-44.1807401-.1066194-54.831075-55.7882869-36.4503202,51.3860149-3.9193949,64.1920434-75.1411233,80.4343788-11.3764854,35.3221166,24.2732722,14.8164202,28.0658839,47.3255787-25.2250213,7.8923421-15.3267799-16.7319197-42.5771682-15.6989669-3.5581547,6.0108005-15.3944005,11.1324948-22.4955869,16.7711927-1.1862695,4.6606051-2.1720398,9.2271616-2.9492537,13.6902414-4.8843686-5.2002825-2.2239679-9.582454,2.9492537-13.6902414,37.0875897-145.7095313,270.7093658-383.6024724,489.2898402-442.1793563-5.5478553,14.1751644-2.0929031,29.2781808,17.1587135,46.1404482,15.5100893,10.0377218,35.9065721-24.9818954,53.3927367-32.9503369-10.5080492-22.3093247-26.0438916,1.7266219-36.5334643-20.5603243,21.0086951-6.573679,39.7630711,7.6007682,60.7902427,1.0494677-11.4553268,16.7339867-6.9816378,17.4426943-26.6526449,41.3923751,31.5418014,25.2661926,34.6541163,30.8528147,62.1132296,39.9355181,1.9947838-21.9249044,19.0389474-42.217784,7.0963986-65.6537725,35.9692993-4.1374426,15.6778751,20.5523727,34.1581834,42.4670476-11.9214569,21.8607219-45.9653224,24.4541138-44.8377094,56.0191373,15.2237673,9.1739257,41.9810278,22.029731,40.2298972,37.582932-13.2005517,24.1092618-44.0274445,9.6867954-38.7683579,51.1378692,14.5161776,19.2058051,32.8383392,3.3320288,51.0245004-11.0918719,6.9847805,13.6870355-27.3469468,22.8912069,1.2984571,38.9017006-26.3338625,2.5298421-24.8471817-13.0521705-46.115623,17.1426204,18.9272027,29.6411084,39.6232531,42.9445673,59.7181434,61.8124597-28.4738005-15.7450526-57.9179109,25.2080212-69.3453121-24.1186477ZM262.6946444,641.221386c-27.9994867,3.7445012-32.9012984-53.2282624-49.9729446-49.6963038-20.5211357,16.2187125-25.3704074,34.1390109-27.8147642,52.3223037-20.7230059-.8051818,6.2690704-43.2861289,12.0049596-59.6018851,11.6018309-5.0245241,20.5222113,14.9078534,34.0200739-7.3677665,12.3107072,22.5279418,26.8062147,24.8885639,40.1820187,37.5759084-13.8327591,7.7138206-17.981971,16.4983484-8.4193433,26.7677432ZM743.4782639,444.2534455c13.1247054-1.8218094,27.3357681-14.0638204,37.6941916,9.6271687-14.5203116,14.6877599-26.6582553,7.6260996-37.6941916-9.6271687ZM785.1217798,570.5498177c-15.6860165,9.8539695-6.0606195-21.7836101-13.4394803-29.1359584,23.3640864-9.000867,13.7383098,22.6367547,13.4394803,29.1359584ZM821.3814296,491.4387844c-26.8097793,5.4719879-3.0029747-29.1989597-12.2564378-40.0459551,26.8101589-5.4716293,3.0054214,29.2013642,12.2564378,40.0459551ZM835.754984,409.9776961c14.1485464,10.7708748-4.6258246,17.9444696,2.4878271,27.9528737-9.3830093,10.5141025-19.2842879-23.2196705-2.4878271-27.9528737Z"/>
  </g>
</svg>