<?xml version="1.0" encoding="UTF-8"?>
<svg id="seeds" xmlns="http://www.w3.org/2000/svg" version="1.1" viewBox="0 0 1483.760033 1000">
  <!-- Generator: Adobe Illustrator 30.0.0, SVG Export Plug-In . SVG Version: 2.1.1 Build 123)  -->
  <g id="seed">
    <g id="outlline">
      <path d="M963.3185526,999.753159c49.8247368,4.7957246,197.8180786-61.7757046,222.4335618-70.388839,54.9895505-19.2216563,130.9970532-40.7631656,180.0436558-83.6140495,15.3188921-13.3586102,31.9517191-30.6071795,46.1516264-46.2335376,23.1749707-25.5542898,38.4519817-49.2698572,69.4530507-55.9310012,11.9101666-24.4463901-24.3401148-78.6633273-40.1964727-61.3539394-14.1865303,15.4802646-36.0064202,13.5828305-55.0826514,21.5926221-14.7324918,2.3301082-31.3888929-2.106689-48.0849517-.4852245-65.2009144,6.3055849-126.2811131,53.5288674-197.8164496,91.8494257-29.023644,15.5493286-57.7527432,31.9241554-86.6531721,47.8782094-77.0243502,42.6164964-192.2248028,86.8576807-195.742189,141.7117371-.1884879-.355697,6.6359473,1.4643507,11.1493894,2.7207893,30.709194,6.9422286,63.0875632,9.2694166,94.3446024,12.2538076ZM1389.1613515,807.3377321c-21.9583217,22.5590494-42.4275634,42.5099521-76.1231429,61.1977179-58.6301464,32.566257-123.6579339,47.0764807-193.0118967,71.6759638-53.2478601,18.8824861-98.0097199,41.458915-143.5427594,45.9106866-17.0859793,1.6480495-30.2441139-.3149851-46.8765063-1.1992865,66.2290889-14.4723849,142.4831804-38.6116349,219.4576866-67.1475162,51.4892424-19.0998584,104.9815825-34.1030254,153.0317468-57.5141595,47.6282625-23.2114979,78.4401529-62.3188478,117.9063768-92.2911218-3.3415649,16.1339329-18.7987678,27.0024382-30.841505,39.3677157ZM1403.3066764,772.407634c-36.0266546,29.9683822-68.0526956,64.2228534-119.8918002,88.6157121-30.5945833,14.3889835-65.2991207,25.4786284-98.9658886,37.182501-94.695442,32.9493263-200.4302891,75.2422715-284.457234,79.202346,6.2697982-4.2325811,14.7084777-4.5538869,22.2201173-5.8893095,56.4731933-10.1352215,119.448844-34.648003,183.6181474-56.9370037,73.1966556-25.4345154,148.0064251-53.0346244,218.6983306-100.2055015,32.134581-21.4224993,61.1549976-51.0289692,97.0028824-69.5610272,4.24956,13.7080575-9.300027,20.1824411-18.2245548,27.5922828ZM918.9500834,968.5211667c7.0361526-8.75398,26.3573962-9.3852737,39.9901883-14.1446712,52.6186162-18.4187715,105.9278673-43.7095804,160.1056084-67.8235052,29.6145273-13.1666324,60.1311019-24.4648912,89.6245117-36.7920717,62.2141677-25.9745518,119.1002841-67.1985422,178.5705827-89.1847201-83.1538044,74.8613218-191.7782131,121.8804598-297.5050009,156.5520127-61.178145,20.054553-117.2092458,42.1952771-170.7858902,51.3929555ZM921.1293451,960.9362876c-.969532-1.3023332-.9233825-2.3232694-.1280359-3.1188495,77.1320869-39.744848,144.7444199-65.3340096,219.376209-98.9714929,47.4232929-21.3734861,93.6736237-48.7946396,140.6073178-71.37608,45.2024181-21.7382146,89.6402466-42.0630571,134.4834214-53.6306736-160.6325466,91.2897962-334.5877158,169.7878321-494.3389124,227.0970961ZM1450.0745466,695.5814619c14.8352748-.2103474,27.4389353,29.6857629,21.0468049,40.9324744-16.7509466.2915842-19.2936127-29.6122818-21.0468049-40.9324744ZM952.3982546,902.2254349c31.651361-17.7211294,71.9609262-33.4242505,110.1086173-54.5115691,28.9431825-16.0072729,57.6358225-31.8684699,86.6651122-47.9026369,44.142712-24.4235989,86.7943315-54.8400167,127.4543436-72.0878188,44.5448917-18.8852846,89.4040135-13.4882378,124.7903713-16.4177499-6.4839954,7.0231258-46.7715965,10.046395-56.9311362,12.3740809-19.8833602,4.5151015-43.1750893,7.4146349-61.7900256,15.047059-21.3661111,8.72906-43.8952831,21.6003899-64.139148,33.8539402-94.7586739,57.4531288-289.6118716,143.6174909-344.4880705,187.3697459,2.9710646-6.4135613,33.4365725-32.6012574,78.3299359-57.7250512ZM1048.7609583,877.6242017c66.5271825-32.0098758,131.5082992-72.70819,202.59876-112.0031528,52.0561913-28.8091152,108.8028759-36.258042,158.5745443-44.6643817-1.8423659,9.2275603-14.2989945,9.2235842-20.7524582,11.4449849-63.5254629,22.1615942-130.9929052,54.6746846-197.8110694,91.8768837-101.1009536,56.27641-287.1361702,129.2338622-326.7250672,156.6564037,39.520694-46.8006225,117.8112127-71.4407645,184.1152904-103.3107378Z"/>
      <path d="M868.9739502,987.4993514c-3.736385-.8414697-7.4446769-1.7179841-11.1493894-2.7207893,18.7262681,5.048011,16.6722892,4.2974092,11.1493894,2.7207893Z"/>
    </g>
  </g>
  <g id="seed1" data-name="seed">
    <g id="outline">
      <path d="M677.3150353,177.7765724c9.3026993-17.7670274,12.2568416-23.9325303,30.2212929-42.002333-11.8874743-17.3249419-44.7933102-4.8422817-57.4699299,1.1283771-42.2697839,19.921122-82.4426956,57.0387732-122.0917106,95.4720158-66.8231609,64.8168577-130.0551839,173.579705-148.2190799,274.2070619-11.192469,61.9894998-8.4682941,176.0779865-27.4002299,208.2489462,1.2419847,15.0941046,18.1691099,44.920277,40.9721499,40.3377024,9.5767819-1.8967369,14.2195459-20.4449881,21.1890604-30.5829748,22.1833978-32.3467878,116.6799383-119.3789131,153.8221766-186.438096,12.6235397-22.8295682,27.2283882-45.5277177,36.6524281-69.4374988,18.2152816-46.3201724,61.2650829-269.8110285,72.3238425-290.9332008ZM639.5672176,212.2752947c-20.8600401,97.7262754-43.4272539,202.8604183-93.5326112,306.494592-21.2857542,44.0021427-52.7163152,77.5626381-78.059845,113.0354335,34.7980871-60.4344715,72.3972817-122.3756014,99.4095281-200.5941958,25.1375752-72.8150418,70.5883002-219.3212731,71.3822967-220.745364,1.2107173.1888736,1.0263674.9934986.8006314,1.8095344ZM621.7248443,230.6999889c-29.054581,95.7838746-54.5668955,220.9467508-110.6154498,319.2013713-17.9462273,31.4510815-37.3563329,60.535725-55.0326909,89.1796101,59.1753072-121.3323898,104.3263231-275.9801913,165.6481407-408.3809814ZM435.4994092,381.6842638c49.7608889-101.8127255,218.2695619-240.2078767,216.4656671-238.1300376-44.1701803,50.6803279-129.8207816,132.6678986-173.2743983,208.798711-57.4865596,100.7147888-76.8055354,218.8366076-100.5083086,320.2378713-2.375668-92.7892722,10.5299034-195.224648,57.3170398-290.9065447ZM405.2479874,600.796876c17.5448911-70.5178379,33.1064035-143.9111513,71.1640622-223.8273561,9.8370676-20.6826273,23.9137441-40.8461529,36.1549322-60.6528755,36.0327574-58.2965452,82.9192339-104.2626899,124.0883992-145.7403155-38.6079026,39.2388399-116.9864268,176.9336513-160.9010838,287.1780839-31.4034916,78.8419529-57.6322745,162.1045391-86.3882923,235.7973307-6.0469586-14.4183659,3.0217276-28.1001984,6.4080531-42.4889731,3.7342999-16.0736285,5.2963615-33.3795573,9.4739295-50.2658944ZM364.007474,719.4788489c12.1971974,6.9179476,21.3512951,15.1692855,24.1422808,26.1044746-10.5183136-3.4644431-24.3246788-14.4619923-24.1422808-26.1044746ZM418.8698806,687.2824093c-3.365412,5.1455005-8.0625709,17.6281207-17.6157291,14.0134052-6.5587016-4.616752.9044393-13.1485893,2.329881-17.1081461,31.2697094-86.6451429,63.9503411-179.6638791,98.2479708-265.5698078,18.6873835-46.7599408,38.1210081-92.2111386,62.7477143-131.1485621,25.2419806-39.8719701,49.7153087-74.0714424,78.2975048-109.9026253-.0763234,10.6374476-36.1696368,72.44669-45.9433629,92.781055-34.1574873,70.8678074-56.7552031,153.2523384-89.534246,228.5372581-27.7635178,63.8274896-52.0602752,132.7229713-88.5297328,188.3974232ZM638.9017024,285.565656c-3.7983152,17.750452-15.5939063,90.0540955-19.7792891,106.1933739-20.4299775,78.5741086-52.118282,144.8743352-93.4481349,196.9615615-7.1236293,8.9574149-16.4759858,14.8834172-24.2998088,23.3517769-29.2810224,31.5516504-52.4565593,66.8822162-84.5640923,95.418093,36.8995444-65.4709059,93.9709672-109.3826556,131.0344038-181.9695322,29.6328523-58.0731733,54.2137277-122.9243007,70.4004504-188.1282396,1.9608853-7.8383317,22.7189577-122.5928366,36.2975377-147.680734,9.4565105-17.4397845,23.5154245-31.394474,36.9519677-43.8087432-1.5041806,7.7996184-16.2302418,18.2334264-22.9872066,31.359023-16.2941871,31.5697748-21.7468104,71.5759233-29.6058279,108.3034208Z"/>
    </g>
  </g>
  <g id="seed2" data-name="seed">
    <g id="outline1" data-name="outline">
      <path d="M1113.1299507,399.8962736c-48.9045641,23.7168698-174.7072434,31.1748621-273.4505917,68.44173-97.2475496,36.7226602-166.1051208,84.6035658-216.8758183,146.2026028-4.8042651,5.8196098-36.3766297,54.6319939-58.6790908,72.43553-40.4485333,32.2908157-46.8808463,54.2155227-46.8808463,54.2155227,0,0,23.0898417,9.2458027,99.1028419,8.5461892,72.6433842-.6877445,139.05547,11.1154554,279.0380592-56.6622567,97.2002702-47.0935232,243.0384583-251.07237,243.6254244-258.7607488,1.4755478-18.5524698-16.5955388-31.4889078-25.8799785-34.4185693ZM807.9628985,573.512267c73.3082045-38.2794579,151.7172562-72.4652205,227.1934692-111.3194301-124.4550019,92.2563979-267.8759329,173.9043909-426.2279495,240.8513182,61.7155915-43.9911087,125.5666331-91.143594,199.0344803-129.5318881ZM583.0377807,708.5924845c49.9280631-50.3598538,104.058189-100.9737548,175.6700423-138.8019978,70.4303291-37.1989898,149.9985243-67.9399113,233.419813-95.524661-73.5105021,40.873206-146.8015652,67.45868-218.2372263,106.5381812-50.2728278,27.5262823-93.4752021,62.5764578-139.3543424,95.3805141-17.1427112,12.2701518-32.6625879,23.2992763-51.4982866,32.4079635ZM996.9140765,463.2624951c-144.6379164,47.5916848-288.2875967,113.377281-375.6480981,200.4908462,59.3125751-77.091588,159.7301842-144.9971067,275.2090621-183.3129198,53.2402272-17.6426459,107.0362247-26.7749096,160.8288691-41.5047713-17.828785,12.1721071-40.0254904,17.614767-60.389833,24.3268449ZM561.2644089,702.8331969c33.5780538-33.4981414,63.0985425-80.3171412,94.5884735-113.8993594,53.9478915-57.6038102,132.4177545-98.0390083,229.4200376-127.4942865,47.4137146-14.380683,102.5289619-29.1375967,154.392518-31.5586571-7.8810618,9.5390831-22.4906995,9.7622077-34.285113,13.0389431-102.3957589,28.2974194-196.2064224,54.7448839-271.3115007,105.0342619-47.9261583,32.11792-156.4074618,152.8631762-172.8044154,154.879098ZM563.9009593,732.6408351c95.0826355-43.0220935,187.384143-84.0408193,272.8956839-131.057925,73.7592976-40.5695492,227.1379389-146.9099339,237.9165485-147.8230153-4.1481622,9.0070772-98.9641962,81.0191758-137.4798406,110.6640232-15.2096883,11.7270548-65.1619986,47.2460151-74.2511193,52.9462336-29.5431802,18.642814-62.8545192,35.0282434-99.9570105,52.7531694-60.4342936,28.8837855-131.3944389,44.2789832-200.1779164,64.1870658-.5234621-1.1200341.2472487-1.4027485,1.0536543-1.6695516ZM573.5565217,737.7172917c-.5006632-1.1032311.2428119-1.3929452,1.0467509-1.6546495,28.3273076-11.0198355,56.4515315-14.7596067,86.4031511-22.7594024,93.5182307-24.8946329,167.6180473-65.6603253,232.9598217-111.1104179,65.3647095-45.4457094,120.6814989-98.3865539,185.5276814-139.4769222,3.5736677,9.1526686-88.2804946,96.2567047-125.7185493,132.4043509-12.0251769,11.6299753-24.0063877,25.3094848-38.1262779,35.2377676-22.2439802,15.7034764-51.644057,31.8280163-77.3247944,45.0556413-76.7678308,39.5109374-169.7362508,48.4170901-260.3835544,62.7867455-1.9459869.5427883-3.8240408,1.0440219-4.3842291-.4831133ZM1054.3359331,525.1414004c-11.6867504,15.1634366-23.8547847,30.7985882-37.4421022,45.0634921-26.4215725,27.7745574-51.0019202,61.6254898-83.1138137,84.8017237-38.1696697,27.5681993-87.7092352,50.8935405-139.7028169,66.9498841-60.3303724,18.6192517-116.8801474,15.3280604-175.9348136,17.6421692,31.9647968-8.3723539,68.7610591-9.0690317,106.1878637-16.9957551,178.3320639-37.7911267,264.4225185-154.2927574,362.1660725-247.1350162-3.5123739,19.2915988-19.9926296,33.8678332-32.1603898,49.6735022ZM1112.7360104,411.4039353c7.650473-2.8315357,18.7258127,12.9294475,16.7188196,24.9456378-5.8725386-7.8346454-10.1906809-18.1179827-16.7188196-24.9456378Z"/>
    </g>
  </g>
  <g id="seed3" data-name="seed">
    <g id="outline2" data-name="outline">
      <path d="M116.1505692,450.8672096c19.017533,26.5772301,42.8167643,46.0012183,64.2333174,70.7276165,14.2609087,16.4253065,46.1602739,72.6255626,57.6109925,54.7744601,11.2326192-17.4584412,2.9653827-43.0051878,6.2524787-61.559884,3.2664306-18.4723615,33.6626196-105.7836753,28.6460445-174.9649067-5.518485-76.0577164-71.7798603-161.6699985-84.7765303-179.0338013C148.302738,107.55172,92.0051314,76.7173061,63.9341302,10.265746,41.2399648,11.5465875,20.286602-11.16709,0,7.2050853c14.2905411,60.8054439,11.3341179,131.3949311,21.6013766,199.8328997,9.8579011,65.3229879,34.5667291,116.7167791,54.7231583,166.6233282,10.3219381,25.5842155,24.5399238,55.8380696,39.8260343,77.2058964ZM139.2880909,117.4063902c24.8240552,23.9887284,55.2219875,65.94327,77.2594495,101.1845579,29.6341645,47.2879849,58.4357666,111.0308491,49.1606158,185.7878094-3.9926458,32.0268971-23.4880342,94.9123128-23.9390078,93.8864005,4.9928794-34.8302936,13.7475985-67.9915739,10.8215301-106.0153272-11.6495799-151.5030432-109.0763434-230.8903444-168.4908963-322.9670506,6.7435461-.8991922,41.0904461,34.5044494,55.1883086,48.1236101ZM86.5910647,85.8513492c45.0721349,59.9613539,97.4055007,119.2208011,132.4279985,195.8236139,9.9581914,21.7644883,16.3227699,46.1558362,20.6465549,71.6489732,6.9378083,40.7054221,4.5062345,81.6111268.897528,118.3078226-4.7660247-26.7103594-.7704867-64.3862616-10.6061498-98.5343594C195.015552,251.703236,107.2593956,165.0993356,65.6684131,59.3608686c9.8098297,6.2445355,14.0013252,17.2618627,20.9226516,26.4904806ZM102.394138,144.1150591c14.8595419,22.6456884,30.6344252,47.7750702,44.7334774,72.2323594,14.0359413,24.3425459,29.7653349,49.9514155,42.5730688,76.802635,21.9179345,45.7737507,44.1302518,93.4139912,42.7800634,152.9051185.2063236,1.3694498-1.8565599,4.1922908-2.3473282,3.1729904C186.5421154,304.0723012,110.6062997,202.7144959,58.6537599,68.8862596c15.6619029,24.8585947,27.6275269,50.6187993,43.7403781,75.2287995ZM93.1244723,166.6514681c34.874069,68.5550401,70.136467,130.6278959,102.9100632,205.9267721,16.6832915,38.3257333,30.796927,88.6454266,33.9245072,131.6813817.4212586,1.9321302.8228541,3.8676343-.7359362,4.3519927C162.5134738,365.9299734,86.579704,235.8038942,44.5630288,59.7261423c18.4551681,35.4466448,30.9893039,72.3870541,48.5614435,106.9253258ZM111.7197748,280.9127215c11.9481272,26.4960748,24.5629819,52.2100115,37.0547842,77.6104228,15.77802,31.9764089,29.0358642,58.5000041,43.7258588,93.5499621,14.1660686,33.8379604,42.0115989,65.7785275,36.4542807,101.7073497-15.2008241-74.2466244-67.3621031-112.5632051-98.9184164-169.8596901-16.5823289-30.1364244-28.0795931-58.1175557-40.1863813-98.3221053-10.4951128-34.935507-25.2232282-68.7835544-35.6835078-106.0308-10.1243109-35.9582548-16.9536641-74.278613-19.0427906-117.0044343,22.8268265,76.7982784,45.7169229,149.8285951,76.5961723,218.3492952ZM29.9010854,74.6266681c4.1491047,62.6721623,60.1440283,240.2335076,64.8118982,252.550653,7.4042354,19.5939026,18.8145159,39.0146779,28.4430146,57.7803559,28.4631122,55.4734803,81.1248168,93.6311697,96.5045407,163.1642269-18.2681432-29.247173-38.4345934-52.5412643-59.0230804-82.7778228-20.7921493-30.5743194-44.9557439-59.9498776-63.0759472-100.502232C64.2105204,290.184245,18.0259989,92.4453323,29.9010854,74.6266681ZM13.0214991,9.4886704c15.2326205-1.8306686,21.8774725,7.9826419,35.1843491,8.8081171-6.8794577,8.85091-31.994644,3.4640167-35.1843491-8.8081171ZM17.7622945,87.7519662c11.359221,30.8188129,14.8027738,76.6462493,21.7824741,116.5902779,24.382609,139.3719478,108.7585302,250.7593073,115.3794017,260.4398015,9.392558,13.737527,48.426933,62.9172746,55.8261774,80.443042.4393954,1.1303975-.3443509,1.4008319-1.1548517,1.5983307-31.1863133-43.8190301-78.5550347-77.3371469-107.1096375-130.5611657-13.1647746-24.5000828-23.9281196-55.7375262-36.9285726-86.0920714-31.7274111-73.966651-43.0518468-153.2925363-47.7949914-242.4182151Z"/>
    </g>
  </g>
</svg>