<?xml version="1.0" encoding="UTF-8"?>
<svg id="sushi_stickes" xmlns="http://www.w3.org/2000/svg" version="1.1" viewBox="0 0 78.868276 1000">
  <!-- Generator: Adobe Illustrator 30.0.0, SVG Export Plug-In . SVG Version: 2.1.1 Build 123)  -->
  <g id="_x31_">
    <g id="outline">
      <path d="M30.393304,935.8944139c.3355069-10.8044917.9870144-127.7696002.9831131-136.3339983-.0343309-16.0582953,2.3657135-468.6441937,3.0285346-527.833458.2765981-23.4932836.4689294-177.1523108.0117037-227.06442-.0819261-10.193167-2.0423005-46.1236124-5.9435431-35.0561769-2.1636292,6.1206597-5.6365153,27.5622798-5.4613007,36.9876822.1446872,7.750989-.7982431,23.5997876-1.0284164,32.8785032-.7088558,28.9546333-11.1895441,449.1079405-11.2448932,472.5153968-.0971895,61.4976297-11.8558766,412.5981606-10.6520014,443.2404715,8.7473662,3.2766538,23.628266,6.3890652,30.2401411,1.6837764.4954578-9.1129129-.2590916-50.4188806.0666622-61.0177768ZM28.2523021,951.2481447c-6.7167694,1.7446357-18.8870374,1.6342306-22.2491768-3.5774396,1.7828679.7084657,3.7771831,1.1504765,6.1432868,1.1848074-1.7489271-2.2517973-6.2536919-1.5468427-6.5338011-5.4328706,1.312378-1.535139,3.7908375.7201694,4.7411802-.426796-1.5086105-1.6798751-4.9811066-1.196121-4.6537923-4.8496348,7.0710508,1.3904029,14.4201631,3.4135874,22.733321,1.9428189.2477289,3.0328261-1.516364,7.9815525-.1810177,11.1591147ZM28.0408547,934.7934832c-6.335618,1.3334448-17.6546833,2.300953-20.8283442-2.4765089,1.1028813.0230173,2.194449.0343309,3.3375131.0573483-.6000111-1.9545226-3.5470098-1.390793-4.7166023-2.7355514.0230173-1.2421557.053447-2.4648051.0706125-3.6991583,5.5069941,1.5846848,18.6374064-.4876553,22.717765,3.032436-1.5504028,2.9146184-.8056556,3.7221757-.580944,5.8214344ZM28.6982141,924.2250166c-7.0655405.8496907-19.8132409,2.7733934-23.1753318-4.1259543.9164503-.9370785,3.1471324-.3429192,4.7415703-.464638-.5239369-2.3622025-4.8289581-.65931-4.1774506-4.3054115.7825893-.8797302,2.7811959-.3616452,4.2667891-.4724405-.1045533-2.6512846-4.3888979-.7845399-3.7280274-4.3050213,5.3778629,2.3278715,13.7995242,1.5125118,20.3672173,1.9506214-.3085883,2.9945939,4.549239,7.1587804-.1540501,8.4692078-.358183,2.1527057,1.9868539,1.3451485,1.8592833,3.2536364ZM9.5727623,905.2977475c-.0819261-1.1274591,1.6857269-.197793,2.3754666-.4720504-1.1430641-2.0801426-4.3604189-1.9010756-5.1566625-4.3432535,2.2537964-.1751658,4.9241484,1.7106949,6.1721559-.4189935-2.2287799-.7162682-4.5375353-1.3451485-6.5970013-2.2404837-.9312266-1.3447584,1.265173-1.7563395.0726116-3.729588,5.5966742,1.5008081,14.6202484,1.7906704,20.8567748.8953352-.2247116,5.154712,1.2971632,6.5529174,1.2210889,11.1704283-5.8670788,1.070501-13.8638459,1.5581563-18.9444342-.8613944ZM27.7931258,892.8894549c-5.5183077.2438277-16.4581722,1.4551635-20.8299047-2.4726076.8379869-1.2799977,3.9410353,1.2456668,5.2327367-.4494232-1.8971743-1.4134202-4.8231062-1.7376135-6.1089558-3.8099536.7599621-2.3430864,2.7811959.0456445,4.7505431-.4572256-.7334336-1.9849523-2.4819706-2.8420553-4.6803208-3.26495.0117037-.891434.0288692-1.7793568.0324288-2.6364598,6.5415552-.0912891,15.1953404.8344758,22.304526.3772502.392465,2.9793791-1.3849411,3.4288022-1.9982165,5.2651172,1.337346,2.3504987,1.0818146,4.9108843,1.2971632,7.4482526ZM10.4641962,879.3224932c-.18843-.2438277.3183414.3659366,0,0h0ZM28.7703871,863.7023075c-8.0290986.1868695-16.9438769,2.7394526-21.7786869-2.4687064-.0667112-2.8494677,2.9146184-.1903806,5.2214717-.9753107-.6289289-2.2705233-4.0784076-1.4781809-5.1508592-3.2762636.3105389-1.7220085-.2801092-2.4839212-.417433-3.7221757,6.815861-.4954578,13.1019332,1.1617901,21.8110672.3772502.6784261,4.6670567-.1825782,6.0270299.3144402,10.0652062ZM28.5550385,847.7965508c-7.6955912.0343309-15.8351438.9296661-21.3042473-2.4804101-.4592247-4.5410465,3.398324-1.4169314,5.2592167-2.5638967-.9807724-1.5238254-3.0113692-1.9545226-5.1772906-2.22878.0058034-1.0626985.0401343-2.0992587.0553492-3.1467424,6.800256,1.1391629,14.7209489,2.9489494,21.3214613,1.4021066.3807613,2.3618123-.3351167,5.4211669-.1544892,9.0177225ZM29.0314292,762.9140921c-5.3431909-.3542328-8.9034649,0-13.2712962-.7505991-.4841442-1.5011982-1.8632335-.6932508-.8992364-2.6516747-2.4058477.3316056-2.6325585-1.6954801-5.2101095-1.158279-.2473388-1.2686841-.643705-2.4304742-.401828-4.2593768,6.2252128.2516302,12.5897001.6362927,19.9025793.8457894.401828,1.2956027-.3487711,5.1890429-.1201093,7.9741401ZM9.6071418,732.8850565c.0058033-.8953352.0284305-1.7828679.0323318-2.6707908,5.3107616-.4494232,12.4636899,1.4477512,19.4395018.872708-.241877,2.4113581.3866131,5.8518641-.5847963,7.4326476-4.0842109.5411024-9.98367-.8949451-14.2067651-1.8550409-.9277155-1.2269408.1221575-.5754333.4915566-1.5585465-1.5448921-.9257649-3.5431085-1.3904029-5.1718288-2.2209775ZM12.8798457,735.5823757c-.0117037.518085-.5812852.4154823-.9546341.518085.0230173-.518085.5965-.3846625.9546341-.518085ZM10.6604773,697.8959809c1.2971146.4494232,3.4115881,1.7676531,4.7376205.5980605.0589088-2.6629883-3.6725812-1.2269408-4.6974862-2.7394526.0152148-1.2456668.0495943-2.4726076.0780249-3.7182744,1.5448921.5945494,3.8611085.339018,5.1870922,1.1543777-1.3638744-1.6190157-3.2614388-2.7012205-5.6404166-3.2610488.0284791-.9105501.0323803-1.783258.0382322-2.6629883,1.462966-.4002675,4.2898064.4303071,5.6915229.6206877-.2761593-2.6629883-3.9964329-1.5807835-5.1621242-3.2688513.0113136-.8723179.0343309-1.7676531.0436939-2.6477734,1.1985103-1.1083431,3.9527877,1.8058853,5.6747475.0951903-2.2342416-1.7103048-6.5833469-1.2035334-6.0555088-5.9240371,2.5182521-.1104052,3.908655.9792119,6.1604522,1.1543777-.7392855-3.2688513-7.6273194-1.855431-5.5908708-6.4651394,2.0305968.4076799,3.3105945,1.622917,5.6517302,1.6876776-1.8877626-2.7811959-7.1814074-3.5735383-5.5300114-8.5874155,1.5772724.3772502,2.4058963,1.5542551,4.7185529,1.1469654-1.2534693-1.5316279-2.0590759-1.9088781-5.1718773-3.2766538-.2001337-1.6915788.8953352-1.855431.5411024-3.6878447,2.3906815-.3351167,3.3012315.9522933,5.6899624.6171766-1.0915677-1.7754556-3.7241262-1.8780582-5.657582-2.7581786-.4306972-2.1413921.0873878-2.122276.0873878-4.7548346,1.5203142-.0799755,1.9947054.9678983,3.7834251.5945494-.1926727-2.22878-2.3469876-2.3204592-3.7432423-3.2575377.4591763-1.9088781-.7829794-2.8268405.0667598-3.7182744,1.8534318-.9105501,3.1736123,1.2569804,5.6668965,1.158279-.803656-2.586914-4.0459787-2.549072-6.1089558-3.8212672-.0667112-1.6880677.8933846-2.2174664.5617789-4.2367496,2.2592096-.5637296,3.5052665,1.6650504,4.7357184.6288803-.5906481-2.4726076-3.9964329-1.9471102-5.1586131-3.79864.3963662-.6284902.6440952-1.4247338.5013097-2.6743019,1.9030261.0569581,2.8420552,1.1161455,4.7411802,1.1734938-.1201583-1.9736387-2.902866-3.7869363-4.228947-2.7355514-1.1789555-1.8250013-.7049545-4.5184193-.3807613-5.8405505,1.7446357.2438277,3.9238698,2.0423006,5.2003564,1.1469654-1.2019729-2.6860056-5.9607086-1.5468427-5.0997044-6.4464135,2.3563505.2325141,3.7050588,1.5468427,6.1319731,1.6876776-.8894833-2.3161678-3.506827-2.7925095-5.6252017-3.8060524.4915566-2.1675305-1.1141949-3.4018836.0838767-4.7926767,2.0021177-.4150922,3.3222982,1.4555537,4.7529326.1029928-1.093567-1.9697374-5.0006615-.8723179-5.1777779-3.8099536.3846625-.1104052.5621691-.4189935.4857047-1.0513849,2.0212338-.426796,3.3566291,1.4477512,4.7739993.0990916-1.181345-1.3638745-3.3890582-1.5620576-4.7299153-2.746865.0284791-1.0591874.0436939-2.1296884.0663211-3.1775622,2.3852684.0191161,3.4386039,1.4898846,5.6692858,1.6880677-.9222538-2.4804101-4.3280386-2.2744245-6.1109064-3.8212672-.2094967-2.2022515.3370674-3.5852421,1.0264169-4.7661482,1.2460569.5980605,2.8974529.6858385,4.7396197.6171766-1.5714205-2.8042133-7.1033826-1.3447584-5.5795572-7.5130132,2.4172099-.3124895,4.0861615,2.2248787,6.1530399.6362927-1.5203142-2.5143509-6.7873819-.9905255-6.0539483-5.939642,2.2420441.0304297,4.8785039,2.3391851,6.6235297,1.1621802-1.9814411-2.5603856-7.2407063-1.516413-6.5338011-6.9988294,1.1465752-1.2686841,3.0457001,1.9623251,4.2593767.5945494-.1486373-2.4269631-2.8022626-2.1296884-4.2156828-3.2345203.0284791-1.0935183.051545-2.141002.0667112-3.192777,1.9486707-.2169091,3.1791226,2.0231845,4.747032.5980605-1.0154935-2.5486819-5.3283172-1.5542551-4.6537923-5.9166247,2.2954912-.4076799,2.4058963,1.5698601,4.7185529,1.1469654-.6838391-3.0632558-5.2596553-1.961935-4.6459898-6.4577271,2.0703895.2212005,3.167809,1.4590648,5.1984058,1.6802652-.7049545-3.3870589-5.6349548-2.22878-5.5795572-6.4425122,1.2363038-.9639971,3.1295768.857103,4.7240147,1.1469654-.6456557-2.4421779-3.5372567-2.4421779-4.6631553-4.3432535-.0780249-3.6156717,3.8957809.6971521,4.2995595-2.0497129-1.3201318-.8266733-2.6290474-1.6993813-4.2499651-2.1792342.1314233-1.6650504-.249338-3.8821266.5675822-4.7774618,2.4632446-.2212005,3.0574038,1.5581563,5.6634339,1.1617901-.8781697-2.6704006-4.5640637-2.3391851-6.0995928-4.3393523.0285277-1.4247338.0553976-2.8268405.0838767-4.2402607,2.1125229.3085883,4.36393,2.6629883,6.1354843,1.6915788-1.7083054-2.4839212-6.6270408-1.516413-5.5659028-6.9797133,2.4441285-.4072897,3.0784705,1.1621802,5.1925539,1.1391629.6515075-1.5998996-3.32776-2.6399709-4.6744203-3.817366-.2551899-.9179624.6284416-3.0932953-.4209927-3.1810733,1.7411246-1.676364,3.7487527.78493,5.6688956.643705-.4915566-2.4304742-3.569637-2.0458117-5.14886-3.2840661.5293986-2.2170762-.9390291-3.6000668.0589088-4.7696593,1.9127793-.1295213,2.3754666,1.249568,4.2691298,1.1543777-.0780249-2.5525831-3.0593545-1.9127793-4.2117815-3.2688513.009363-1.2269408.0362816-2.4839212.0550075-3.7108621,2.185086-.4611269,2.2631108,1.3564621,4.2480631,1.1352616.1295213-2.7581786-2.7905588-2.194449-4.2191939-3.26495.474001-1.0818146,1.8417766-1.1048319,3.3371229-1.0057404-.3312155-1.5468427-2.2685726-1.3716769-3.284066-2.1527057.0288692-1.0896171.0495944-2.1296884.0612982-3.1962882,1.5787842.0230173,3.1619085.0401828,4.7450328.0760742-.6440952-1.9084879-3.4042243-1.5370896-4.7185529-2.7257983.0401828-.8855821.051545-1.7754556.06281-2.6477734,1.9447694-.3905144,2.4156494.8590536,4.2535248.5925988-.2703561-2.4843114-3.2894791-1.9830017-4.6974862-3.255587-.2968359-1.6420331.8574931-1.5562057.5297887-3.1795128,1.7181072-.0971409,2.2802763,1.0041799,3.7982498,1.1278493-.0495458-2.9278827-2.9848407-2.7066822-4.2098309-4.3280387.0382322-1.3904029-.1295213-3.0152705.5450036-3.6858941,1.1598394.4400602,2.5217632.7256311,4.2442106.5961099.1064552-3.399933-5.331877-.8305746-4.1833512-5.3642087,1.4134689-.1330324,1.4458005,1.2249902,2.8307416,1.0915677-.1088447-2.9469987-4.6233626-3.487711-2.7202878-6.9453824,2.1791855-.6054729,1.8382169,1.478571,3.7697221,1.1391629-.2551413-2.5065484-3.1354287-2.1753329-4.2059297-3.7962993.4189935-.6097642.6456557-1.4134202.5122332-2.6477734,1.6307194.1751658,2.2631108,1.3904029,4.2632779,1.1465752-1.346709-1.3256423-2.5295657-2.8170874-4.693585-3.2571475.5259362-1.2136766.3542815-3.2138437,1.0322688-4.2367496,2.3146072-.0323803,3.2403721,2.2385331,5.1831909,1.1563283-1.6627096-1.1563283-3.0132711-2.6571364-5.1601736-3.2860167.0113136-1.0435824.032429-2.1125229.0608594-3.1810733,1.6209663.1638522,2.257259,1.3904029,4.2441618,1.123948-.1599509-2.4058964-2.8190379-2.1527057-4.2098309-3.2458339.0265284-1.3982054-.1295213-3.0250236.5332999-3.6843336,1.50705.605863,2.7983613,1.4914451,4.7146517,1.6552973-.4474725-3.3125452-5.6841105-1.4684278-5.1071167-5.9298889,1.9928035-.0873878,3.0422378.872708,4.7033381,1.148916-.4857047-2.2404837-3.1506435-2.1394415-4.6744689-3.2653402.0226272-1.0685504.0226272-2.116034.0436939-3.1791227,1.1543777-1.0974196,2.2135651,1.0552862,4.2613273.5961099.0932885-3.2458339-2.6840549-1.5792231-4.205881-3.7869363-.0495945-1.312378.7731776-1.6342306.9924274-2.6247561,1.8780582.0362816,2.7449631,1.2019729,4.2515742,1.6474948,1.6287688-3.952349-6.2556425-1.8265618-5.1051661-6.9812738,1.9143398.179067,3.1908263,1.0552862,4.7068492,1.6837764.78493-2.0742908-2.7371118-3.5068271-4.668617-4.3335004.0378421-1.4079585-.1201583-3.0289248.5465641-3.6995485,1.5562057.1927214,2.0742907,1.5757119,4.2441618,1.1337011-1.1601808-1.3584127-2.097308-2.9376358-4.2230951-3.2536364.0284791-1.4231733.0514964-2.8287911.0780249-4.2422113,1.6381318.3046871,2.499136,1.4590648,4.2441618,1.6666109.706515-2.1675305-4.4821376-2.4437384-3.6858453-6.438611,1.9369182.1638522,2.6360209,1.6537368,4.7068005,1.676364-.9487822-2.4382767-3.4381651-3.211503-5.116431-4.8632892,1.4075196-3.158056,4.0954758,1.8230507,5.6782099.0955804-1.4551635-2.4347656-5.1866533-2.370005-5.1277933-6.4577271,1.8780582-.3752995,2.4402273,2.0075795,3.7927881.6000111-.9870144-2.219417-3.8633518-2.4058964-3.6897953-5.8994592,1.7715543-1.7372234,3.3640415,2.4495903,4.7220641,1.1430641-.706515-3.2786044-6.263445-3.3164464-4.1279048-8.0349995,1.9467201-.0284791,1.8534804,2.1601181,4.2441618,1.6646603.0324292-3.3332218-4.4649722-1.7715543-4.1833025-5.3696705,1.7259097.0550075,2.2783257,1.3525608,3.764309,1.6552973.9542439-1.5562057-1.5125118-2.9793791-2.7772946-3.7565066.6206877-1.6155046,1.6229169.6000111,2.847517.0417433.0117037-3.5029258-5.2592652-1.2515187-4.1754512-5.904921,1.7523895-.0269186,3.7014503,1.4590648,4.7376203.6054729-.8914339-1.8304631-3.7069607-1.5484032-4.2078803-3.7904474,1.6322799-.1962325,2.6477734.2590425,3.7850344.6132754-.0495946-3.0804212-3.7643578-2.185086-3.7031083-5.3755223,2.3181672-.078415,2.9411468,1.660759,5.1831909,1.6779245-.4704899-3.5829013-6.1834695-2.7601292-4.6194614-6.9812738,1.9869029.2684055,2.5221534,2.141002,5.1890428,1.6783146-.7431867-2.6785932-3.9757564-2.6614278-5.6138881-4.3374017-.3105389-1.9716881.8535919-2.2631109.5278381-4.234799,1.8878113.3963663,2.4609038,2.2229281,4.7201134,2.2077133-.31049-3.32776-4.23831-2.721897-4.6420886-5.9240371,1.0876664.18843,1.8211001-.044084,2.3715654-.4841442-.3522822-1.6896282-3.1163126-.7997548-2.7850971-3.2345203.7716658-.8438388,1.9638855.5126233,3.7947387.0612495-.3963662-1.3088669-1.0724516-2.3146073-2.8174774-2.1585576.0097531-1.0587973.0323803-2.1238365.0592989-3.1884857,1.6744133.0932397,1.6857269,1.990414,3.7639189,1.660759-.7505991-3.1810733-5.1776805-2.4000445-4.1489715-7.4954576,1.8534804-.0936298,2.4495902,1.1750543,3.764309,1.6435936,1.1028813-3.1354288-4.2004679-2.8018725-3.6652174-6.9547454,2.2517972-.1810177,2.4554421,1.8495792,4.6974862,1.6724628-1.1617901-1.676364-1.9201428-3.8134648-4.6651059-3.7962993.3600847-1.6174552-.4533244-1.9315053-.4361589-3.1791227,1.4247338-1.0213453,3.0632557,1.3026249,5.21167,1.142674-.3444797-3.4327035-5.33729-1.8706459-4.6326768-6.4518752,2.1752841-.2531907,2.931735.9944268,5.1948459.6249791-.7962436-1.9049768-3.4611825-1.8004235-4.6861726-3.2633895.0113136-1.0646491.0343309-2.1179847.0436939-3.1791227,2.2081033-.3639859,3.042189,2.5810622,4.7357184,1.1372123-1.4364375-1.7333221-3.4822492-2.8194281-5.1375464-4.3280387.5773839-1.4247338,2.4593922.0514964,3.32776.044084-.1923313-2.6481636-4.2117328-2.4823607-2.2915899-5.8616172.9316656.7392855,2.7051216.5543666,3.7814745,1.1200468.0893385-2.5315164-2.2802275-2.3926322-3.7412917-3.2438833-.0667112-.8001449.2208103-1.9467201-.4478627-2.1296884,1.0326589-1.5620576,2.4936743.7388954,4.2710804.0706125-1.7774061-2.0746809-5.0443067-2.5319065-4.1337567-7.4884354,1.855431-.1065039,2.4441285,1.1695926,3.7604078,1.6459343,1.312378-2.8213787-4.0424676-2.4363261-3.6975489-5.9014099,1.1391629.6991027,2.8630732.7447472,3.7642602,1.6666109.6324403-2.266622-4.747032-2.4952348-3.676531-6.966059,1.1200468.18843,1.7657024.8723179,3.3105945.5847963-1.1754444-1.5047093-2.9813296-2.3391851-3.7030595-4.3089226,1.777016-1.4247338,3.5813407.7427966,5.1925539,1.1469654-1.2191383-2.3298222-3.4323133-3.5754889-5.6232511-4.8519756-.2379758-1.9256534.6019617-2.5599955,1.0154935-3.7089115,1.5238254.266845,2.5486818,1.061138,4.2461125,1.1391629-.9394192-2.4573928-3.7869362-2.8381541-5.1184303-4.8632892,1.1200468-1.535139,2.5295657,1.0307083,4.2496236.5945494-.0495458-3.6024075-5.1262328-1.7372234-4.1563839-6.429248,1.1427228-.9979379,2.6782031.9390291,4.7298665.6019618-1.3790404-2.6821044-5.566293-2.3181184-5.111018-6.9812738,2.0707796.0171655,2.7772946,1.5125118,4.7259653,1.6724628-.9998885-2.9317839-5.0993142-2.4687064-4.150532-7.4938971,1.3408571.1084545,1.9697374,1.0018391,3.2992809,1.1180962.78493-2.4230619-5.0840994-2.1296884-3.6745804-6.9644985,1.5066599-.2321239,1.6611491.9831132,3.3051327.5965.7845888-1.7278604-3.6078692-2.3411358-3.701499-4.8519756,2.310706-.0780249,2.9622135,1.6744134,5.1870922,1.6896282-.9160118-1.9599843-4.6763707-3.613331-4.6573034-4.8515854.4170428-2.495625,3.2380314.3581341,4.2554754.590258-.1849189-3.3944713-5.7508217-2.7542774-4.1680876-6.4347097,1.9260923.1638522,3.2060412,1.0400713,4.7185529,1.6724628.5141838-2.4628545-5.8936072-1.9447695-4.630775-6.9773726,1.5067087-.2192498,1.6724627.982723,3.3222982.5961099-1.2019729-2.0021178-4.2710804-1.9869029-3.2060412-6.4347097,1.0322688.4361589,1.8152482,1.1602296,3.284066,1.1200468-1.2249902-1.9716881-3.9012426-2.3735161-4.1719401-5.3700606,1.5506952.044084,2.35084.9277155,4.2593279.6019618-.750209-2.4897731-4.5184192-1.7009418-4.1887642-5.3696705.9277155-1.0459232,2.2685726-.2286128,3.32776.0530569-.3464303-2.407847-3.3773057-1.9084879-2.7542773-5.352505,1.4458005-.3581341,1.7220085.5637296,2.8326923.5730926-1.120388-1.6400824-3.2957698-3.4763974-2.2861282-5.8783925,1.3525608.3144402,2.4554421.8134091,3.7795727,1.1313604-.7982431-1.8971743-3.6461503-1.5940478-3.7167627-4.3089226,1.9010755-.357744,1.9240929-.357744,3.7908864.0667113-.8610531-2.0266956-4.383095-1.1543777-3.705059-4.8402718,1.9049768.9390291,4.3927992,2.2229281,5.6688956,1.158279-1.6494454-1.8878114-5.14886-1.7239592-5.1223316-5.3852754,1.0385108-.857103,2.9033048.7104163,4.2387001,1.1317505-.2192498-3.0480409-4.3814856-1.8515298-4.1755-5.3833248,1.4645753-.7010533,3.2173548-.0230173,4.7333777.6171766-.2816697-3.1830239-4.9565287-1.5831243-4.1676975-5.9092123,1.5753218.204035,2.0762413,1.560107,4.2554754,1.123948-1.5277266-1.7754556-5.2920356-2.8916011-3.6897953-6.4233961,1.3392966.1107953,1.9564732,1.0096416,3.2992809,1.1200468-.0343309-1.5788329-5.4711026-4.1829124-3.2021399-6.9582565,1.6744133.1104052,2.1105723,1.5675193,3.748704,1.6552973-.5578777-2.1527057-2.8763862-2.4117482-3.7050101-4.2995596.5258875-2.0380092,2.925932.3429192,4.2519643.6019618-.266845-2.6399709-3.5395974-2.0590759-3.2232067-5.3583569.9542929.0152148,1.9030261.0265285,2.8459565.0475952-.9831131-1.3638745-3.1907775-1.4192721-3.2614388-3.7643091.6175667-.7162682,2.2424343-.687399,2.8479071.044084,0-2.7811959-3.6800422-1.5772724-2.765981-5.358747,1.4972969-.2247116,1.6783146.9811625,3.3129352.5847963-.1260101-2.4515409-3.952739-.9160118-3.2403721-4.2933176,1.9751991-.5793345,1.8269519,1.142674,3.2953796,1.1161455.1275706-3.0804212-4.0553417-1.5086106-3.2228165-5.3603075,1.4512623-.3526723,1.7181072.5695814,2.8362034.5750432-.1829683-2.5791116-3.4877109-1.7676531-2.7527168-5.3544556,1.0213453-1.148916,1.3830394.7065151,2.8307416.5847963.8418882-1.4516524-3.2286684-2.0364487-2.7640304-4.825057.5621691-.4365491,1.2838989-.6725742,2.3832691-.489606-.3983169-1.826952-2.6118331-1.6954801-2.2974418-4.2784929,1.4418993-.3620353,1.3716769.9331773,2.8326923.580895-.1658028-2.0820932-2.7811959-1.5125118-2.301343-4.2956584,1.0915677.1888201,1.9412583,1.0822047,2.8365935.0573483-1.0326589-1.6517862-3.3125451-1.961935-3.7147632-4.3108732.5828456-2.1640193,2.0325474.4474725,3.7966893.0667113-.2590425-1.8117371-3.0137099-.8953352-2.781147-3.2251574-.0589577-.9581452.4743422-1.2417656,1.4246849-1.0381207-.1333736-2.2935406-2.5849634-2.0742908-1.8000333-5.3357297,1.3810399-.1158669,1.4247827,1.2191383,2.8155268,1.0974196-.339018-2.0458117-2.2689627-2.3926322-3.2575376-3.7643091.6401939-1.1578888,2.5486818.668673,3.7869362.5984506.1104052-1.6744134-1.9049768-1.061138-2.329432-2.1601181-.3811514-1.7106949,1.5788329-.7049546,1.4610154-2.1031599-1.6385219-.8364264-4.0272528-3.0515521-2.2935405-5.8690295,1.4894944-.0284791,1.3506102,1.685727,3.3105945,1.1200468-.3370674-1.9049768-2.2896393-2.0438611-3.2727524-3.2536364,1.148916-1.5047093,2.5545337,1.0498244,4.2710804.6097642-.2152996-2.7105834-3.211893-2.4289137-4.1984684-4.3186757-.3772991-1.9638856,2.1237876-.0436939,2.8401047.0632001.2609442-3.5719778-4.1774996-2.0707796-3.6972566-5.9131136,1.8230507.3105389,2.6056399,1.7067937,4.7259653,1.667001-.5847963-2.1355403-3.0363371-2.2553084-3.7241262-4.2937077.8992364-1.622917,2.2553084.6515075,3.7908375.0667113-1.1219974-1.9108287-4.3717325-1.5238254-3.6936476-5.3833248,1.5561568.06281,1.7828679,1.5468427,3.7810354,1.1278493-.2438277-2.6938081-3.5009751-2.1296884-4.2113914-4.3089226.6952014-1.5242155,2.3239702.1810177,2.8440059.5769938,1.2799977-2.4780694-3.1697596-2.6707908-2.7546674-5.8822938,1.8382655-.2496795,1.9295546,1.3790893,3.2992809,1.651396-.0436939-3.26495-3.2727524-3.0648163-3.2115029-6.4194949,1.739174-.3257538,1.7942304,1.1695926,3.2875772,1.114585.552416-1.4914451-3.0952459-2.8935517-2.7468649-5.876832,1.0420219.7775177,2.0153819,1.6385219,3.7698197,1.6498355-.7674234-2.1164242-2.9486082-2.693418-3.2228655-5.3661594,1.1695925-1.3201805.9885749,1.1430641,2.8479071.5734827-.5621691-2.5260547-3.4022737-2.6001783-3.2345203-5.8881456,2.4113581-.3429192,2.9029146,1.3790893,4.2266063,2.203812-.3635468-3.4229504-4.112641-3.1869252-4.1544333-6.9738615,1.3069163.3374575,1.9677868,1.3525608,3.2993299,1.6517862.0666622-3.0347767-3.4499178-2.1698712-2.7488646-5.8939975,1.1430641-.1942819,1.0154935.9924761,2.3563505.5773839,1.0440215-1.158279-2.310706-1.9849523-2.3009529-3.7526054-.445912-1.5983391,1.0666487-.9203032,1.9162904-1.0248565.1217678-2.2307306-2.3068048-1.6783146-1.8230507-4.2784929,1.3791382-.1104052,1.4247338,1.2265507,2.8268404,1.1087332-.2648944-1.9697374-2.2018613-2.1335896-2.3087554-4.2745916.6362927.0035111,1.2706837.0191161,1.9010755.0358914-.6362927-1.7426851-3.1241151-1.4781809-2.7714428-4.3030707.7845399.0039012,1.5733711.0269186,2.373516.044084.3464303-2.2919801-2.3622024-1.2573705-1.8269519-3.7490943,1.0935183.2001338,1.9315052.6725742,2.8248898,1.1087332-.285571-1.952572-1.7219595-2.6629883-2.7964107-3.7678202.8059967-1.4859834,2.5814522.3027364,3.3164463.5961099.2707462-2.7336008-2.6399219-2.0212339-2.7811959-4.2937077.0269186-2.4304742,1.676364,0,2.8518084-.4743911.2438277-1.8152482-1.3904029-1.6112132-1.8534804-2.6875661.5122821-1.7715543,2.6438721.5067714.998328-2.6403611,1.7313715.0401828,2.1125229,1.5448921,3.284066,2.1772836.3596946,22.9580331.6113247,52.6784804,1.1200468,74.8227143,1.0322688,46.3444227-1.7886707,97.1748845-.634342,150.6628727,1.8324137,84.0405706-5.3185641,175.7977993-3.8575487,258.8478444,1.2019729,68.9267662-1.1430641,140.253967.2914228,209.5622748-7.1416147,1.6455442-12.8639574-1.8519199-18.4567788-3.4974641.0191161-.8840216.0343309-1.7680432.0460347-2.6290475,2.1410019-.3160007,4.0229614,1.5011982,5.6899624.0764644-1.1543777-1.5086106-3.8462351-1.3755782-5.657582-2.2061528.4131416-1.8324137-.6554088-2.0419104-.4076799-3.7334893,2.4113581-.2972747,4.2098309,2.0762414,6.147188.6440952-1.4383882-2.1831354-7.2844002-1.4668673-5.602526-5.3985397ZM9.8396073,719.0898721c5.158223-.9905255,12.9759231,1.7106949,18.9518465.8379869-.2212005,4.6136096.4248453,5.0899514.3258028,9.5818422-5.4290182-1.6002898-16.3575692,1.3790893-19.3712791-5.1090675,2.2576491.1751658,3.6422001,1.2573705,6.1436769,1.1695926-.7907819-2.7964108-4.7587357-2.1296884-6.0902299-4.3506659-.4228947-1.0057404,1.4590647-1.7524382.0401828-2.1296884ZM14.098984,748.3491925c-.1029442-2.4804101-3.4650837-1.4781809-4.6994369-2.7429638.0265284-1.4060079.0437424-2.8385442.06281-4.2289471,6.5813963.3733489,13.2162396,1.4551635,19.8815126,2.9715766-.0495458,2.8459566-.0971409,5.6575822-.1373237,8.4844227-7.7225098-.6971521-17.970684,1.3829905-20.3176716-5.0973637,2.1753329-.2746475,2.9317838.982723,5.2101095.6132754ZM8.4983601,771.5888954c2.4211112-.5411024,4.1774506,1.5011982,5.2155713-.4303071-1.3236916-1.1621802-3.9449365-.9487822-5.1831909-2.2174664.0171655-1.2269408.0323803-2.4726076.0612495-3.7221757,5.9068714,1.0287577,13.3914054,4.9030818,19.8963374,1.9315053,1.5335785,4.9986623.2820598,7.3074177.7069542,14.3288744-6.1987334-2.3204592-14.6105927-.6515075-19.3997582-3.5013653,1.0537256-1.4212227,2.1811847.5637296,3.3394637-.4724405.0475952-2.6707908-3.6916974-1.2230396-4.7033381-2.7238477.0210667-1.0744022.0324288-2.122276.0667112-3.192777ZM7.8090105,783.2660951c.6667709-.4611269,3.5868025-.0230173,4.7450814.5980605.7580114-3.7869363-4.3526164-1.1926099-4.6861726-3.7982499,6.360586,1.6685615,13.1097357,2.8459566,21.3042958,2.4952348-.643705,4.0268627-.0819261,6.2365266-.18843,11.1247837-8.2214787-.5258875-14.8297936-.053447-20.8014256-4.5796688,1.1543777-1.1883185,4.2726895-.1217188,6.1869807-.4494232-1.0572367-3.0402384-7.2559211-.4798529-6.5603296-5.3907372ZM7.113419,797.0308497c6.7776288-.8075572,14.6183462,3.9773169,21.7962425,1.4134202-.1942329,6.225213.6172256,8.1567183-.2114473,12.2218132-6.8045474-.7010533-13.7097468.7353843-19.8760509-2.4765089.2286128-1.1543777,2.3489382-.1751658,3.3242488-.4607368-.5126233-2.0458117-2.7394526-2.2631109-4.6955356-2.7277489.0265284-1.0478738.0378905-2.1183748.0589088-3.1775622,1.8058852-.2016942,3.3394637,1.4134202,4.7357184.0799755-.3542328-2.2209775-3.6078692-1.3182299-4.7072393-2.7199464-.0113136-.872708.2821083-2.0423006-.4248453-2.1527057ZM7.7859932,813.5007261c2.2517972-.1638522,3.4003231,1.1695926,5.2214231.0873878.337116-1.9084879-2.2572104-.6932508-2.3583012-2.1601181-2.5108397.5411024-.5219863-1.6455442,0,0,6.3051883.8079474,12.7359967,1.4898846,18.0319335.8153597.3866131,2.3735161-.141176,6.2025858-.1525386,9.0177225-6.7565621,0-14.953463,1.2460569-19.8873645-2.9828902,1.2764866.0382322,2.5451707.0569581,3.8025412.0686619-.552416-2.7164353-5.3911272-.7619127-4.6576936-4.8461237ZM8.2927646,810.8377378c.3105389.3694477-.1868695-.2286128,0,0h0ZM7.0623127,828.3511966c1.8495791-.1486373,3.7276373,1.4438499,5.2288841.087778-.4818521-2.4534915-5.1184304-.3885638-4.691683-3.79864,6.4175441,2.1413921,15.5628371,2.7051217,20.833806,1.943209.6725742,2.2935406.276208,6.3660479.2914228,10.5910937-6.2860722.0382322-11.9971013-.2742574-16.5783305-.7771275-.0436939-.9600958.6019617-1.1391629.518085-2.1218859-2.4554421.3542328-3.1069496-1.1926099-5.2253244-1.158279.4248453-2.1753329-.6569693-2.7238477-.37686-4.7661482ZM6.4451361,864.940562c7.1033826,2.1753329,14.4923361,1.5811737,21.7993635,1.4134202.9277155,1.622917.1658028,5.0099759.3429192,7.4408402-3.7849367,1.1883185-10.2044803,1.2343532-15.6560768.2625536-2.1963996-.3616452-5.8292367-.518085-6.1167583-2.7351613.8497391-2.5830128,3.6152815.3199019,5.236638-1.0057404-1.6213564-2.0536142-6.0539483-1.0822047-5.6060856-5.3759125ZM4.9763667,952.9814668c6.7682174.4420108,16.2638419,1.855431,23.2131254,1.4590648-3.0515031,2.5716992-.0152148,4.2823941.3542818,7.4065093-6.9376287,1.6876776-19.9139419,2.0497129-23.198008-3.5548124,1.1317505-1.4781809,4.2347989,1.3221312,5.7071278-.4416207-1.7372233-1.0708911-4.0003342-1.5546452-5.6404166-2.746865-.0171655-.8422783.2438277-2.0192832-.4361105-2.122276ZM25.6521239,992.5880533c-2.4956249-.750209-2.4554421,1.478571-4.7583456.9831132-.0117037.518085-.0230173,1.0591874-.0343309,1.588586,2.7449143,1.3451485,5.8460121-1.5468427,7.6460454-3.0554533-.0113136,1.0669899-.0397437,2.1183748-.0495458,3.1814634-7.0823158.7466979-16.2393125,4.5983948-21.8110672-.3698378,2.7090229.213398,11.0713364,3.7221757,10.4428462-1.3982054-2.2042021,2.7242378-8.6443734.7392855-10.8790052-1.2721952.9164019-.605863,4.3413028.518085,6.6328927.1330324-2.8362034-1.8324137-5.6173992-.7693251-7.0327701-4.3619795,1.5640082-.7392855,5.0134869.6210778,6.1604522.6284902-.8762191-2.9146184-5.8272861-1.3447584-6.093741-4.887867,1.9771498-.7201694,5.4917792,1.4134202,7.1107949.1217188-2.6001782-2.053224-8.2616615-.7619127-7.9546337-5.9509556,2.1484143.266845,3.8688623.998328,6.1432868,1.1391629-1.3946942-2.1218859-5.6138881-1.2039235-5.6138881-4.8574373.794293-.8610043,2.7944601-.3885638,4.282394-.4533244-1.7528283-1.3904029-4.486429-.8266733-3.6862841-5.9053111,6.1776177.8688068,14.4775114,2.0536142,22.2760953.3733489-1.6381318,5.1242823.6569693,8.6026303-1.6498355,13.2466696-.1540991,1.390793,1.8383145.4420108,1.390793,2.1296884.392465,1.7145962-1.5562057.7392855-1.9260435,1.5698601.1431756,1.7446357,2.5108397,1.1048319,2.3220196,3.2232067.2001337,2.7503761-3.9905811.4303071-2.9181295,4.194226Z"/>
      <path d="M23.074963,212.6500489c.2816697.7790782.5789444-.0436939,0,0h0Z"/>
      <path d="M24.1396121,290.1283391v.5352505c.5411024-.0990916.2703561-.5352505,0-.5352505Z"/>
      <path d="M24.5684076,971.8783063c-1.0725005-.1638522-1.7716032.1026027-1.9147788,1.017054,1.2156272.3124895,1.8289514.9487822,1.9147788-1.017054Z"/>
      <path d="M10.3022947,973.7676782c.3811514-.0873878.944881,0,.9831131-.5219863-.392465.1029928-.9507328,0-.9831131.5219863Z"/>
      <path d="M25.4597926,975.600482c-.4704899-.0117037-.9390291-.0117037-1.409519-.0230173-.0039012.3772502-.0323803.7162682-.015605,1.0630886.47088.0074124.9429303.0074124,1.4138103.018726.0113136-.3312155.0113136-.6932508.0113136-1.0587973Z"/>
      <path d="M20.1642459,980.3014795c0,.3468205-.0097531.6971521-.0152148,1.0591874.474001.0113136.552416.4342083.9444908.5450036-.0339408-.819261.0764644-1.8480187-.929276-1.604191Z"/>
      <path d="M24.3947534,982.4885161c.0152148-.7088558.0323803-1.4134202.0323803-2.1183748-1.8152482-.4533244-1.8589421,2.5143509-.0323803,2.1183748Z"/>
      <path d="M18.1847554,985.037198c-.0054617.3772502-.0054617.6932508-.0226272,1.070501.0171655.5106727.590258.4076799.9542439.5411024.6897397-.7697152.3811514-1.6802652-.9316167-1.6116034Z"/>
      <path d="M19.1163721,986.6488014c-.009363.7084657-.0284791,1.4134202-.0475952,2.1296884,2.1238365.1104052,1.1906592-1.7984729.0475952-2.1296884Z"/>
      <path d="M22.8194316,991.993894c2.0477623-.1560497,2.5299558-2.0879451,2.9146184-4.1715988-2.3126078-.1677534-2.5163015,2.1296884-2.9146184,4.1715988Z"/>
      <path d="M19.9715245,991.9708767c.2992253.0078025.6362927,0,.9507328.0078025,0-.5258875.3847113-.6132754.4950677-1.0478738-.6171766-.0530569-.6550186-.6971521-1.4227832-.5485147-.0058519.518085-.0058519,1.0591874-.0230173,1.588586Z"/>
    </g>
  </g>
  <g id="_x32_">
    <g id="outline1" data-name="outline">
      <path d="M72.3527289,714.6092949c.6284902-18.4887695-.5753832-36.8901511-.7275317-55.2572018-.3355069-35.5227656-9.9056952-451.5899111-10.3855481-489.4690273-.4650281-36.6084814-1.9657864-123.5632803-2.1296386-135.4480261-.091729-5.440283-3.2154539-49.1369323-7.497848-29.3069155-5.0786376,23.4074563-4.1146406,43.1153641-4.1376579,62.7589015-.0226272,40.4847562-.3007858,81.9662798-.464638,124.4796822-.1029433,21.350331-.2894722,395.1436105.2055955,435.5468307.5185246,41.3059678.5185246,83.5298979.5641197,125.4951757.0113136,37.3434755-1.4555536,202.2435434,1.0400713,243.0961868,5.3489938,5.6080364,24.9578095,3.5657358,30.0364472.1482472.3542328-39.6179-7.1435654-263.6994298-6.5033714-282.0438533ZM54.2864644,11.4524286c2.1831354.1732152-.1712646,3.2345203,0,0h0ZM49.1625724,694.2307634c1.767653-.0647606,4.2594263.9409797,5.2194725.0990916-1.2347433-2.7581786-6.0617508-.9183525-5.5967227-5.9166247.9905255-1.123948,2.6707907.3468205,4.7392295-.392465-.7962436-2.4421779-4.3089225-1.3295435-4.5944934-4.4002117,1.0896171-1.123948,2.7698823.6667224,4.7661481.1334225-.7162681-2.3052443-3.4174885-2.0614167-4.9795461-3.3222983-.2629438-1.2269408.8153597-1.2039235.3125391-2.6555759,1.2913113.3850527,3.1583965,1.9162904,4.3127742.6819372-.9030881-2.3735161-6.0804767-1.8211001-4.1794012-6.0270299,2.1714316-.1447361,3.1428411,1.2686841,5.7375575.5828457-1.4707685-2.6821044-6.2025361-1.123948-6.0691631-5.87059,1.5733711.25124,3.0667668.5980605,4.7887753.6628211-.4072897-3.2801649-4.8422223-1.3451485-4.6440392-5.4785151,1.1469653-1.1543777,2.5677979.9522933,4.7661977.12562-.720219-2.2783257-3.4096861-2.0571253-4.9565784-3.2762636.4876553-.6745249.4077294-1.9127793.25124-3.2157944,1.4251239-.1104052,2.8385441-.2321239,4.2671792-.3655464-1.4134202-2.194449-4.9186867-1.6420331-4.674859-5.9813853.7202189-1.390793,3.710862.9370785,4.7052887-.9409797-.7545003-1.6841665-2.891601-1.5963885-4.4306412-2.2709134-.5028702-1.8093964.5676308-2.1066711.2247116-3.7409016,2.053224-.5411024,2.7390624.6589199,4.7661481.1104052-1.1812963-2.4534915-5.1168698-1.3603633-5.1090673-5.3985397,1.0057403-1.1391629,2.6821539.339018,4.747032-.4076799-1.0822047-2.2174664-4.9452151-.8496907-4.6022959-4.9335115,1.5468427-.6440952,3.3222982,1.356072,4.2402606-.354623-.8874831-2.2857381-5.2003564-.1104052-4.5640637-4.3849968.6210778-1.070501,3.0936854-.339018,3.7221756-1.3904029-.6819372-1.3982054-2.5143509-1.3334448-3.4861504-2.3583012-.0873878-1.2382544-.1560497-2.4726076-.2360252-3.6995485,1.5694699.2438277,3.0819817.5828457,4.807941.6288803-.3238031-3.1888758-6.0500967-1.211726-4.6062468-4.9108843,1.7450258-.5411024,2.3052443.4303071,3.8212671.2094967.0304297-2.7394526-2.7047315-1.8667446-3.9847292-2.8498578-.0803656-1.070501-.1486373-2.1218859-.2020844-3.1810733,1.8441174-.3316056,2.6707907.6971521,4.747032.1334225-.4989689-2.2174664-2.7850971-2.1527057-4.4575598-2.8233294-.0456445-1.5238254-.4950677-3.424901.1868695-4.2628879,1.9658362-.4420108,2.7047811.7045644,4.3241373.6971521-.9905255-2.461294-6.0691631-2.2861282-4.2136826-6.5681322,1.6419835.25124,2.6172942,1.4208326,4.2897569.1638522-1.516413-1.9736387-6.0804273-1.9736387-4.6744689-5.9700717,1.9162904-.5754333,2.4839212.5941593,4.289856.1864794-.3051268-3.0780805-4.6671062-.8723179-4.1263939-4.9982722,1.5355291-.0760742,3.0480409,1.5963885,4.3054114.1751658-1.2004124-1.3256423-2.693808-2.2514072-4.4844784-2.8038231-.0760742-1.2573705.7088558-1.6194059.2746475-3.2232067.9636069.8418882,2.7199959.6971521,3.8895389,1.2725854.838377-2.8268405-4.5714266-1.9697374-3.7638694-6.5911496,1.6989416-1.6268182,3.1201643,1.8211001,4.7543949.1182077-1.5429415-2.0953575-6.0040124-3.1432313-4.2898064-7.616006,1.4555536-.179067,2.3165579.4498133,3.3870588.7736164.9179624-2.7507662-4.282394-1.9315053-3.7182743-6.0613608,1.4438499-1.1773951,3.2992809,1.196121,5.7375575.5750432-1.6650503-2.6247561-6.0044025-1.7676531-5.7070783-6.9527948,2.1066711-.25124,2.5716496,1.6342306,4.8495852,1.1773951-.6284406-3.1888758-4.6175108-2.0192832-4.6744689-5.9778742,1.4060078-1.4056178,3.0707177.6745249,4.8156939.6362927.7619127-3.0554533-5.1472995-2.0040684-4.7127011-6.4994704,2.1410019-.6819372,2.373516,1.1161455,4.3124336.6932508-.3615956-3.7104719-5.0973636-1.7524382-4.2515742-7.0862173,2.2248787-.2208103,2.9867913,1.4594549,5.2881344,1.1391629-.9257649-2.8837986-5.9891877-2.4839212-4.674859-6.4994704,1.7220085-.464638,2.8346429,1.390793,3.8060523.1942819-.6323914-2.6060301-4.228947-1.3677757-4.1372678-4.9639412,1.2039235-1.6802652,2.9142282,1.5429415,4.2667891-.354623-1.177395-1.7220085-3.5505209-1.9084879-4.103327-4.4384438.9717995-.9600958,2.5412694.9600958,4.3241373.6858385-.2968846-3.4135874-4.5562613-1.7333221-4.1790111-6.0157163,1.4664771-.3998774,1.7333221.8040461,3.3449254.2403166.1104548-3.2079919-3.4327034-1.676364-3.1888757-5.0443068,1.3677757.4455219,3.2536363,2.2514072,4.800479.6515075-1.2156272-1.6993813-5.4215569-2.4839212-4.594834-4.9221979-.4494727-2.0344981,1.8136381.1217188,3.2805054-.8079474-.6175667-2.4382767-3.9738057-1.356072-3.6652174-5.0060747,1.9545226-.5961099,2.3087554.8383771,3.8516968.7392855.2172992-2.3735161-1.9506213-1.6572479-2.5716991-2.9793791-.3085883-2.2077133,1.7450258.2055955,2.8346429-.2344647.5446135-1.6744134-3.3414143-2.5295658-3.6382989-5.0212895,1.0018391-1.3256423,1.5733711.8629549,3.3410242.2535808.0152148-2.3278715-1.9506213-2.0442512-3.0324359-2.9337345-.1260101-1.4056178-.213398-2.8038231-.2781586-4.219194,1.0935183.285571,2.4382766.2531907,3.3792564.7712757.3963662-1.8858607-4.2098309-2.1846959-3.7299781-6.0574596,1.3334447-1.4551635,2.6364598.8075572,4.7775114.1084545-1.447361-1.7750654-3.6001164-2.6477734-4.1716484-5.4972411.8953352.9179624,2.4573927,1.026417,3.8747142,1.2799977-.8040461-2.7811959-3.9394748-2.524104-4.2059297-6.0270299,1.1235579-1.1699827,2.571309.9179624,4.7774617.1236694-1.123948-2.1527057-4.3584683-1.5924873-4.5909823-4.9339017,1.7450258-1.6896282,3.6878446.3085883,5.6841105.0647606-1.5237757-1.4458006-3.3792564-2.470657-5.4172159-3.2684611-.0687114-1.0556763-.1334721-2.1164242-.2095463-3.1888758,1.9732485-.2438277,2.4382766,1.4360474,4.3580781,1.2246001.3964159-2.1066711-5.3642086-3.3640416-4.2402606-6.5451149,1.3603633.7295324,2.8728751,1.2573705,4.3927992,1.7582901-.464638-2.6403611-3.318397-2.1983503-3.6382989-5.0138771,1.8285124-.2645043,2.5221534.9277155,3.8821762,1.2917015-1.1466249-2.737502-4.236409-2.9165691-5.1395467-5.9587581.944881-1.2893607,1.6346207.2840105,3.3070834-.2894722-.0764644-2.5830128-2.7124844-1.8363149-2.6782031-4.558212,1.7750654-.6230285,3.0858829.5980605,3.7869362-.320292-.6667224-2.015382-3.710862-.9085994-4.0307639-3.3886194.8379869-1.4079585,2.9220307.3674971,4.3050212.1712646-.998328-2.5619461-4.3510559-2.024745-4.6518417-5.4535472,1.5390402.1045533,2.6516746.7884412,4.3393522.6971521-1.337346-1.7165468-3.3640415-2.533467-4.5792786-4.4021623.4837541-2.2861282,2.2744244.4587861,4.2706903-.3620353-.8722682-2.1527057-3.5087776-1.9638856-4.1068381-4.4345426,1.1387727-1.0400713,3.8782749.6932508,5.3107616,1.1352616-.8418882-2.9146184-4.4462462-2.2553084-5.1090673-5.4118039,1.9201916-.3905144,3.0667668.2340746,4.3354509.6971521-.8149199-2.5697486-4.2172433-1.7945716-4.1602851-5.4956806,1.2230892-1.1789555,2.6938577,1.1621802,4.7927262.6554088.5831861-2.6821044-5.7450196-1.3201805-5.1317442-5.9435433,2.3735656-.5922086,2.8994035,1.2136766,4.8231062,1.1793457.354623-2.0079696-4.240211-2.4991361-4.6362367-5.4461348,2.053224-.3846625,2.5256645,1.3084768,4.354567,1.2078247-.9561946-2.3622025-3.497464-2.6821044-4.1489715-5.4804658,1.6038008.1942819,2.4078469,1.4399487,3.9203587,1.7887198.3199019-.8403277-2.0114807-3.1128016-3.1241151-4.0022849,0-.1697041-.0113136-.3370674-.0191161-.5297888-.5637296.116257-.3542328-.7275818,0,0,1.4555536.0269186,2.183185.9772613,3.409686,1.3147188-.3312155-1.4727191-1.4703783-1.9049768-2.552583-2.4402273-.4303071-1.4079585.8879228-1.148916.8192609-2.2022515-1.2686841-.8173103-2.3430863-1.9315053-3.0819817-3.4533801,1.2152371-1.3584127,3.5774395.6838878,4.8461236,1.1789555.411191-2.345037-5.5280608-4.156384-4.7357184-7.0366715,2.1218859.4915566,3.4670343,1.9888535,5.4137544,2.7257983-1.2421556-3.2173549-6.0348322-4.1279049-5.2881344-8.0634786,1.69548.8403277,3.3222982,1.8058853,4.9186867,2.771833-.872708-2.6821044-3.1662485-3.5278938-4.1946161-6.0215681-1.3525608,1.8593323-.9144513-1.8000334,0,0,1.9884634-.2875216,2.1296883,1.8382656,3.9278207,1.7867692.7314333-1.9123892-3.4518691-2.3848297-3.6726795-5.004124,1.4325363-.5028702,1.4703783.8001449,2.9029146.2933735-.7388954-2.2970517-3.962102-1.3697263-3.6648273-5.0080253,1.8667446-.2988352,1.8780582,1.7602407,3.8860278,1.2647829-1.1504764-2.7144847-3.6422001-3.6819929-4.7013875-6.501421,1.855431-1.8706459,2.9220307,1.2686841,4.83481,1.1754444-.5832358-3.0687175-3.8212671-2.7164353-4.2063198-6.0231286,1.8097865-.2286128,2.373516,1.1391629,3.8977315,1.2608816-.53369-2.5888647-3.1662485-2.4019951-4.1072282-4.4384438.5067714-2.3181184,2.0649773.6952015,3.8325807.1942819.6936409-1.6896282-3.3944216-2.0820932-3.1810732-5.0404056,1.577322-.1334225,1.7181072,1.5850749,3.409686,1.3010644-.5598283-2.329432-3.0667668-2.1296884-3.177172-5.047818,1.1582789-.1658028,1.5199241.7065151,2.4304742.8610043.944881-2.5947165-3.7030595-2.3068048-3.2610487-6.1054449,1.4781808-.1771164,1.4703783,1.550744,3.39057.7736164-.8913843-1.8971743-3.0476507-2.1733823-3.177172-5.0329932,1.4668672.0039012,2.2057626.9581452,3.409686,1.2897508.4306972-1.3638745-2.5943263-3.1124114-3.623084-4.4630217.1104052-.7466979.6210778-1.0783035.3316056-2.1640193,1.6877272-.2820598,1.8437769,1.4399487,3.4249009,1.3065262-.4650281-2.4667558-2.9715765-2.2627208-3.192777-5.0556204,1.9584238-.4283565,2.194449,1.3755782,4.3280386.7030039-1.4364375-1.9162904-5.3642086-2.4839212-4.1602851-6.0270299,1.7106949-.3542328,1.3560719,2.0364487,3.3870588,1.3010644-1.211726-2.0629771-2.9567518-3.4327035-4.1833025-5.4956806,2.5143509-.1732152,3.3640415,1.792621,5.3985395,2.1963996-1.8784483-2.1468539-3.7526053-4.306972-5.6423672-6.4253468.6210778-2.3676642,2.659087.8231622,4.747032.1221089-.4876553-2.2307306-2.8042132-2.093797-4.015549-3.3776959-.0799755-1.2265507-.1560497-2.4780694-.2438277-3.6933065,2.0419104-.5411024,2.2096638,1.3350053,3.8747142,1.258931-.3316056-1.2741459-1.2268912-1.8437273-2.0422509-2.4839212.0420838-.9429304.7275321-1.2799977,1.8058356-1.2132865-1.0018391-1.4040573-3.9507884-2.6001783-3.5813407-3.9566404.3050772-2.3146073,2.8763862,1.3619238,4.3584683,1.2249902.1981831-1.8004235-4.0533911-2.7605193-4.1868136-6.02742,1.5581563-.1369336,1.7220085,1.5772724,3.409686,1.3088669-1.5086105-1.6685615-2.8190379-3.6059186-4.1563839-5.503093.5598779-2.4289137,1.6646602.7275818,3.3410242.2473388.2590425-1.3201805-2.765981-3.2688513-3.2228165-5.5756561.8949451-1.5008081,2.3426962,1.1278493,3.874324.7392855-.2972747-3.0839324-3.676531-2.1296884-3.7069607-5.5280609,1.4781808.1810177,2.5373682.9046982,3.8860278,1.2534693-.3655464-3.1584461-4.2098309-1.7906704-3.7221756-6.0613608,1.577322-.1486373,1.7333717,1.5792231,3.409686,1.3084768.5984506-1.9256534-3.9390351-2.1257872-3.2532462-6.108956,1.5238254.329655,2.1371007,1.8304631,3.9390847,1.7906704.3507217-1.8343643-3.710862-2.8401047-4.1602851-5.4956806,1.4477511.0171655,2.1870366.9772613,3.3870588,1.3030151.8953352-2.2861282-3.6308865-2.5049879-3.2345203-6.1034942,1.5047093.1427855,2.1675304,1.3849412,3.8860278,1.2725854-1.177395-2.2724739-4.2024185-2.2077133-4.1793517-6.0309311,1.6493958-.4306972,1.2647333,1.7774062,2.9220308,1.346709-.0456942-2.2420442-3.2763132-4.084211-.3277044-5.2935962-.9066984-1.5011982-2.773443-1.7602407-2.6860552-4.5586021,1.8671347-.3085883,1.5924872,2.1374909,3.4557207,1.8324137-.0799755-2.7827564-2.9945938-1.8589422-3.1432312-4.5145181-.1334225-2.4839212,1.1009307.5297888,1.908878.3639859.6589199-2.0458117-2.6325585-3.2953797-2.765981-6.1471881-.1829188-2.3696148,1.4517019.6113247,2.4117482.3257538.5750432-1.3697263-2.9145688-2.3298222-2.7164352-5.0840995,1.0283676-1.3790893.9257649.7236805,2.3961928.3312155-.5181346-1.6077021-1.756389-2.3352839-2.1753825-4.0725073.0113136-2.4573928,1.7106949,1.1754444,2.9029146.8153597-.6628211-2.3852198-2.7808057-2.8916011-3.2228165-5.5682437,1.6685615-.4474725,1.2991138,1.7715543,2.9676753,1.3353954-.2629438-2.7144847-3.177172-2.0021178-2.7468154-5.6060858,1.4094694-.5258875,1.0021797,1.3638745,2.4308147.8532018-.3238031-2.0629771-2.2213675-2.0895056-2.640361-4.0342751-.1103556-2.4784595.7162681.5141838,1.8784483-.1486373-.015605-2.0914562-1.8249518-1.8308532-1.6915788-4.1224432,1.2799977-.4911665,1.0248564.9717996,1.9732981.8879228.0342814-2.9239814-2.8460061-2.0305968-2.2705233-5.6501698,1.2265012.2020844,2.4382767,1.9260435,3.363992.7790782-.857103-2.1218859-3.318397-2.1866465-3.2079423-5.5698042,1.5659093-.150588,1.7297615,1.5772724,3.4174886,1.2952126-.6363423-2.8077244-3.6726794-2.4819706-3.7144227-6.0648719,1.500808-.2153486,1.6494454,1.2760965,3.3640415.7654238-.3772502-2.3372345-3.0137099-1.7961321-3.1471324-4.5125675,1.4781808-.3807613,1.7450258.8173103,3.3566291.2531907.0569581-1.82071-1.5242155-1.4684278-2.0649277-2.489383-.2859611-2.1449032.6515075.0456445,1.855431-.6838878-1.7220085-4.0670455-2.8459565-4.7013876-3.497464-9.8065538,1.7524382-.2114474,2.9333443,2.2077133,4.3355005.7010533-1.7333717-1.5905367-3.7070104-2.8611714-4.6479901-5.4652509,1.3904524-1.2534693,3.2040906.9620465,4.8461236,1.186758-.65931-2.5943264-3.4896615-2.3583012-3.6995484-5.5354733,1.0822047.5141838,2.0231844,1.1922198,3.8403832.740846-1.428635-2.1488045-4.533634-2.1086217-4.6440392-5.9907483,1.337346.3429192,2.4039457,1.0724516,3.8821265,1.2647829-.6667224-2.5716992-3.3870588-2.4936743-4.1337072-4.9565289.9831132-1.5944379,2.7355018.6362927,3.8516473.7182188.9257649-3.0745694-4.7809728-2.0746809-3.7791337-7.1150865,1.5694699-.1408349,1.7142556,1.5753218,3.4022737,1.3049657.8610042-2.3029036-3.1775621-2.5771609-3.211893-5.5756561,1.9775399.087778,2.891601,1.6155046,4.8574372,1.7161567-.6515075-1.8265618-2.4648051-2.1351501-3.5431085-3.4288022-.0530569-2.533467,1.7067936.2726969,2.8385441-.2360252-.2898623-3.255587-4.3050212-1.6611491-4.1641864-5.4956806,1.855431-.5106727,1.9962658,1.230452,3.8516968.731483-.7392855-2.6707908-3.9051439-2.1963996-3.7182743-6.0574596,1.3599732-.266845,1.5238254,1.0759627,2.8990134.8095079-.6667224-2.3774173-2.8646825-2.7753441-2.7811959-6.1413363,1.7906704.1771164,2.8763862,1.2456668,4.3927992,1.748537.5754333-2.0859945-4.2820039-2.0419104-4.1563839-5.4976312,1.070501.7353843,2.2057626,1.3412472,3.4553306,1.8324137-.5407122-2.9087666-3.3449254-2.9087666-3.7143731-6.0594102,1.2265507-1.4173215,2.4421779.6288803,4.2972187.159951-.731483-2.1429526-3.8630104-1.133311-4.0725072-3.9145069.8266733-.1026027,1.4781808,0,1.927604.3659366.2781586-2.6384104-2.3009034-1.5733712-2.160118-4.0557319.5411024-.1334225.4533244-.8801204.3620353-1.6303293,1.428635-.2801092,1.9545226,1.5409909,2.8724849.2875216-1.3104274-1.550744-3.543059-1.9030262-3.2114534-5.5737055,1.9657866-.445912,2.704682.7010533,4.3127742.6952015-.4154327-2.6992698-4.1719889-1.0818146-4.0842109-4.4364932,1.3829905-.2590425,1.5238254,1.0646491,2.9142282.8056066-.4837541-2.4250125-3.0324359-2.1811848-2.7468649-5.61935.8840216-.1829683,1.0822047.5239369,1.9201916.3811514.3885638-2.7889984-2.0419104-1.9471102-1.7181072-4.6424788,1.4134202-.5067714,1.4438499.78493,2.8689738.2875216-.1221089-2.7277489-3.4022737-1.3295435-3.158446-4.5199798.8953352-.1927214,1.0665997.5083319,1.9315052.3694477.2094967-2.5888647-2.2096638-1.7317616-1.7220085-4.6424788,1.4134202-.1143064,1.7145961,1.2382544,2.9372456,1.3431979,1.1013704-2.6516747-3.2914289-2.4230619-3.2115029-5.5756561,1.3752376-.2535808,1.5238254,1.0779134,2.9146184.8114585,1.1465752-1.7165468-2.5451707-2.0364487-2.640361-4.0233516,1.8324137-.6799866,1.5086105,1.4575043,3.3640415.7775177-.4381095-2.4897731-3.0897842-2.0859945-3.6156717-4.4825279.571532.4002675,1.3108175.5925988,2.3926321.3335563-.0569086-2.2248787-2.4304742-1.4364376-2.1562168-4.074848,1.4933957-.2094967,1.6572479,1.274536,3.3792564.7736164-.339018-2.6040795-3.4518195-1.6439837-3.1888757-5.0497686,1.0057403.2266622,1.428635,1.1980716,2.9068159.828624-.4416207-2.2974418-2.5065484-2.495625-3.5926543-3.9488379.9831131-1.7871593,2.5756004.4587861,3.8329709.1958424-.2898623-1.5464526-.9944267-2.533467-2.1109624-3.0039569.2251513-1.6151145,1.0591874.4189935,1.9010755-.1580003-1.1578888-2.5736498-.7923424-3.2688513.087778-5.8612271-.8344758-.8173103-2.0075795-1.2327927-2.0992091-3.0215125.8878733-.18843,1.0934687.5067714,1.9314557.3772502-.1638522-2.2857381-2.4800199-1.7524382-2.6477734-4.0346652,1.6994309-.2723067,1.8328038,1.4458006,3.4100762,1.3010644,1.1617901-.794293-1.3412472-1.6342306-1.1356517-3.0913447.6323914-.0592989,1.2612717-.1107953,1.8975644-.1544892-3.497464-1.7828679-1.6002897-3.8134648-4.2024185-6.0309311.2859611-2.4628545,2.7277488.9046982,3.7526053-.8516413-1.0744022-1.8534804-3.9964329-1.3295435-3.6534642-5.0060747,1.3677261-.2590425,1.5202647,1.0763529,2.8915515.8231622.3507217-2.9239814-2.7047315-1.4668673-2.6286573-4.0440282,1.303015-.543053,1.2725853.643705,2.3961432.3409686.4537145-2.8822381-2.6169535-1.2039235-2.1523156-4.084211,1.3677757-.2438277,1.516413,1.0818146,2.9068655.828624,1.741075-2.8763863-2.0801922-3.4459677-2.2857877-5.6575822.4607368-.0514964.9561946-.0780249,1.428635-.12562.2664549-2.6403611-2.1144735-1.8460681-2.160118-4.0631443,1.0057403.2036449,1.4208326,1.1922198,2.9068159.8056066-.480243-2.4515409-2.9715269-2.257259-3.192777-5.0443068,1.8402657-.2781586,2.5260546.9316168,3.8860278,1.2632224.9257649-1.3677757-1.2039235-2.2517973-2.0992587-3.0078581.5754333-1.5944379,1.6803148.794293,2.8689738.2875216-.5371515-2.1488045-2.5791115-2.3926322-3.585242-3.9468873.3620353-2.1698712,2.1605082.1045533,3.3566291.241877.5029198-1.6326701-3.2610487-1.8382656-.643705-2.6001783.1482472-2.2896394-2.6251462-.8173103-2.1374908-3.5431086,1.1126344.0780249,2.0079696.4704899,2.9146184.8134091-.0152148-2.0973081-2.1527057-1.4418993-2.1527057-3.5450593,1.9619349-.3027364,1.8936632.5352505,3.3222982-.2742574,3.2232067,74.0455868,1.3677757,143.4428428,4.7696592,219.7745578,3.5204813,79.6095391,8.8960536,415.0079582,10.2524656,472.9932991-7.0557874-.872708-19.3957583.8836315-21.9101588-7.7072951,1.5772724.8153597,4.0916233,1.5238254,5.7410686.5789444-1.1160959-2.5638967-5.5659028-.8114585-5.5315719-4.8613385ZM49.9244851,259.133746c-.0382322-.5126233.552416-.4533244.9027475-.6132754.0230173.5254974-.5637296.4626874-.9027475.6132754ZM49.2386466,710.2016708c7.3643757.3238031,13.9742511,1.4933957,20.9578655.8493005.2360252,2.9376358,1.0931783,10.5684665-.0303796,13.8451203-8.0237357.0530569-16.6337782.9409797-20.7179891-4.0728974,1.6802652-1.0287577,3.3449254.3316056,5.2307861.0799755-1.100881-2.960263-5.7032266-1.3829905-5.1620747-6.4842555,1.634181.1751658,2.3278219,1.588586,4.3697323,1.2269408-.4115811-2.6629883-3.6308865-3.0328261-4.5184192-3.352728-.0304297-.7010533-.0951903-1.3829905-.1295213-2.0914562ZM49.5472349,729.3002046c1.4933957-.2325141,2.0419104.7962436,3.7947387.2094967-.65931-1.7867692-2.7012204-1.855431-3.9738057-2.8233294-.0647606-.731483-.1104052-1.4360474-.1525386-2.1449032,6.0387334,1.9318954,12.3056896,3.5431086,21.0760731,1.943209,1.6494955,3.6991583.0074124,8.1797356.8001449,12.6712363-8.1645206.8305746-17.129186,1.8784484-21.6323903-3.4401158,1.9658362-.2208103,3.0250235.6745249,5.2346873.0608594-1.9314556-1.961935-6.7471991-1.5963885-5.1469094-6.476453ZM49.691971,746.3451241c5.6728466-4.030764,15.7610202.7392855,21.7541091-1.8858607-.2972747,5.3259766.0873878,8.2862395-1.0669899,12.8315774-9.4632442.9409797-17.1553243.7771275-20.8853024-6.6863399,1.7984728-.4533244,2.3622024.7162682,4.2710804.1560497-.3355069-2.6173437-4.9452151-2.1218859-4.0728973-4.4154265ZM50.0118729,765.9734466c2.194449-.3468205,3.211893.7693251,5.265117.6054729-.7314333-3.2688513-5.8936072-.7388954-5.5850189-5.352505,1.1695925-1.4820821,2.5260546.0951903,4.2593767-.3772502-.6858385-2.5373683-4.0194503-1.6572479-4.5601625-4.3927993,6.4347096,1.764142,12.1301337,4.511007,21.1174263,2.9715766,1.0708911,4.5983948.7623028,7.2274423-.2169091,11.1895444-6.956646,1.1465752-15.1594486.0760742-20.6262598-2.4839212.3351663-.5297888.4342083-1.2343532.3464303-2.1601181ZM50.0883373,774.4691829c-.2212005-.1981831.3160007.3199019,0,0h0ZM50.2557006,821.2497645c1.8402161-.0799755,2.3165579,1.6116034,4.3814856,1.2382544-.4076302-2.7394526-3.8099535-1.5468427-4.1068381-4.4384438,6.6859496,1.2573705,13.277099,2.659087,21.0948492,2.4382767-.6972021,3.3792564.2437776,5.2690184-.4077299,8.5530845-7.5738724-.1295213-15.7422942.159951-21.1747746-4.0459788.3542328-2.0992587-.4002675-2.1449032.2130078-3.745193ZM72.6308875,975.1928021c.1981831.6702335,1.2113358.3160007,1.9202418.3542328.7618625,6.6785374.3502814,12.2409293.7466477,18.5309029-2.2705232.7962436-5.406342,2.9029147-7.4825833,2.2439948,1.1161455-2.0423006,5.4441841-1.0209552,5.4290194-4.171989-1.4439-.37686-4.7127012,1.265173-6.5108339,2.1374909-.1755559,1.7372234.9944767,1.5694699.1638522,2.6403611-2.5907653-.2594326-5.2424898-.4306972-7.6694529-.926155-.1634621-1.4781809,2.9376357.1868695,2.7737835-1.2952126-3.7221756-.891434-7.6998826-1.5008081-10.2446631-3.9086551,1.3677757-.8001449,4.480187,1.0626985,6.7319843,1.0057404-1.0822047-3.3449255-6.0574594-1.6876776-6.9988293-5.24249,2.2404836-.6819372,4.0615837,1.1887087,5.2311762.087778-1.3108175-2.4804101-5.8366491-.8266733-5.5853595-5.3642087,1.169543-1.123948,2.8498082.9409797,5.2307365.0760742-1.2343532-2.2361923-5.2307365-.8379869-5.0517191-4.8991806,1.8632335-.3238031,2.6707907.7197793,4.7700493.1408349-.56407-2.7355514-4.6822714-.8344758-4.5831798-4.4002117.9714094-1.2573705,1.9732485.3616452,3.783035-.3316056-.2055955-2.2096639-2.5564843-1.6268182-3.5200912-2.8611714.464638-1.4781809,4.2285569.5293986,2.7808554-1.3256423,4.9681828.0799755,15.6509555.6971521,19.9025297-1.1543777-2.2400935,2.8763863,1.3260324,6.0231286-1.8171988,8.6634897ZM51.6235258,959.4161766c2.1413425-.6932508,3.4326538,1.5698601,4.7660985.1104052-1.0248068-2.4609039-5.2385886-.803656-5.0669339-4.8648497,1.5807835.0113136,3.3714539,1.6533467,4.7696592.1104052-1.1695925-1.3716769-3.4553306-1.249568-4.9108842-2.22878-.045595-.7162682-.0760742-1.4134202-.1408349-2.1218859,5.9357406-.2098869,13.2240421,2.7047316,21.4872641,1.3673856,1.2152371,2.2556985.6554088,8.0275871,1.0935183,9.4597333-6.3777514,3.7869363-17.7955182,3.5774396-21.9978872-1.8324137ZM72.8138558,948.5773539c-5.9013597,3.531795-16.4129178.4763417-21.5520247-2.4304742.7997547-1.7602407,3.2419326.9522933,4.1942259-.8879228-1.249568-2.0040684-5.1469094-.5676308-4.5944934-4.9260992,1.8858607.1868695,3.6839931,1.0935183,5.2307861.087778-1.070501-1.2991138-4.7696592-.518085-5.0365042-4.3623696,7.3795905,1.1391629,15.0794731,3.2384216,22.4434587,1.3030151-1.1122443,4.1985174-.6476063,4.548849.1451262,9.5627261-1.3564621-.7619127-2.0192331,1.5238254-.8305746,1.6533467ZM73.6327266,932.0200897c-8.5413806,1.8780582-16.4468586,1.1695926-22.5273354-2.8763863-.4571761-1.5737613.6971521-1.6194059.2629438-3.2040906,1.6002897-.0117037,2.3430863,1.1352616,4.3163845.6819372.6818875-2.4269631-5.2877939-1.1317505-4.6362864-5.4289694,6.8119597,1.2569804,13.2162396,3.1010978,22.0092504,1.8093964.2016942,3.1471325-1.6537367,6.0613608.5750432,9.0181127ZM72.4748378,921.4590356c-4.335841.1525386-7.0101429-.2016942-10.919188.4154823-2.9715765-2.4573928-12.1492498-1.0439726-10.3741844-6.0235188,2.0079696-.3238031,2.426963,1.4212227,4.800479.6515075-.9714094-2.3887309-4.1794012-1.855431-5.0517191-4.3619795,6.4881566-.6745249,13.8373174,2.2553084,21.4033874-.2516302.9831131,2.5373683.4268461,6.9375799.141225,9.5701385ZM72.4061759,906.037033c-6.6976533,2.1831354-15.8413858,1.4134202-21.0721719-2.4382767,2.2744244.0304297,2.0079696.0647606,4.2632779-.3542328-1.6459343-1.5125118-4.6252637-1.2799977-4.6022959-4.9339017,2.0497129-.1864794,2.7355513,1.425124,5.2729195.6288803.7845399-1.4134202-2.2822269-1.8211001-2.979379-1.9010756,5.2420997-.8574931,10.8501859,2.7277489,18.149751,1.1235579-.5637296.6897397-.2590425,2.2252688,1.0783035,2.0344981-1.7524382,2.6173437-.2437776,4.0728974-.1104052,5.8405505ZM72.2310101,895.9562218c-7.6046423.5219863-15.3424168,1.1926099-19.2167409-3.1315275.6284902-.0456445,1.2456668-.1221089,1.8858607-.1564398-.0951903-2.9372456-4.1489715-.750209-3.623084-4.4840884,1.4056177-.0191161,3.0246334,1.1621802,3.8325807.213398-.2324644-2.2096639-2.5908152-1.6459343-3.5204813-2.9146184,4.9109339.8840216,12.4086824,3.4100763,20.5884178,1.9545226-.8079473,2.7811959-.3850526,4.8652398.053447,8.5187536ZM71.3583021,882.2144845c-4.5718662.8610043-16.256478,1.9541325-20.1920515-3.0823719,2.0575154-.7162682,3.7338793.7545003,4.7396197-.3694477-1.0857158-1.8706459-3.8442845-1.516413-4.9756448-3.3375131.2742574-1.1887087,2.647823-.4189935,3.748704-.8266733-.0226272-2.834643-3.7943486-.8153597-3.5735382-3.942986,6.65591.8875327,12.2639463,3.1962882,20.5767141,1.9467201,1.6346207,3.638299-.7845399,7.0975309-.3238031,9.6122719ZM72.0098097,870.4725241c-7.3834419.6515075-18.0471484.944881-21.2929822-5.6536809,1.2838989,1.2000223,3.8212671.7845399,6.2021955.5637296-1.4551635-1.1465752-3.5200912-1.5355291-5.3525049-2.2174664-.2438277-1.2265507-.8801203-1.9237028-.7162681-3.6687287,7.1853087.2212005,12.1952844,3.6878447,20.0699426,1.4781809,2.1144735,3.7108621.4724405,6.4959592,1.0896171,9.4979655ZM50.7741757,850.9967402c.1330324-2.6325586,2.5677979.0456445,4.2250458-.8723179-.9565847-2.7889984-5.2616059-1.2039235-4.6787107-6.0044027,7.1169874-1.0439726,11.5132977,2.9146184,20.0815968,1.4781809,2.1905978,2.122276.2399765,7.0862173,1.5620575,9.452321-7.0635899,1.2152371-17.9137259-.3468205-21.1899894-4.0537813ZM50.4616862,838.7940431c1.2608816.4607368,2.3848296,1.0779134,4.3202361.6893496-.480243-2.4573928-3.6004568-1.4360474-4.5032044-3.3066933-.4572256-1.6116034.3620353-2.0114807.2590425-3.2462241,1.8706458.2746475,3.0480905,1.390793,5.322515,1.1469654-.1677534-.7505991-.8270635-.8075572-1.0553358-1.5125118-1.2268912.2551413-2.0422509,0-1.9888535-1.4134202.6589199.4611269,1.7754555.3429192,1.9888535,1.4134202,5.2725792,1.6116034,10.8579385.9027476,16.6980987.6971521.2555314,4.2898065-.5446135,6.7319844.1942819,10.6523432-7.1279604.552416-17.326979.3733489-21.2356339-5.1203811ZM51.2044828,813.7367513c1.7067936-.5332999,2.712534,1.0896171,3.7947387-.3124895-1.3564621-1.1352616-3.2766537-1.5008081-4.9108842-2.2627208-.0304297-1.5125118-.4841442-3.4327035.1903806-4.2593768,1.5238254-.2555314,2.0723401.7505991,3.8251684.1942819-.339018-2.4269631-3.6843335-.9561946-4.015549-3.352728,6.3126007,1.5316279,14.1189872,3.9090452,21.4377183.7923424-1.1965111,4.1946162-.4954578,8.0693304.3503316,12.7516019-6.0574594,2.2096639-16.1608975,1.9315053-20.6719044-3.5509111ZM71.2896903,800.852117c-6.6329428-.3772502-14.0581779.2894722-18.7100196-2.6707908.3124895-.5067714.78493-.8649055,1.3525608-1.158279-1.5390402-1.2608816-4.1946161-1.0740121-4.1107393-4.4536587,1.337346-1.5429415,2.1870366.9831132,4.3050212.179067-.1065039-3.123725-4.2402606-1.0131527-4.0916233-4.461071,6.3547341-.6132754,13.9629375,3.6343977,20.9804927.8875327-1.2039235,1.7450259,1.4060078,5.0212895-.9675082,6.9758121,1.1313604.605863,2.3583012,2.9337345,1.2418156,4.7013876ZM70.0552871,781.8222451c1.0822548,1.4438499,1.6572479,1.8515298,1.2269408,4.1298555-3.7869362,4.5905923-21.2625525,1.6646603-21.6398027-3.4900517,1.6802652.1295213,3.1280659.552416,5.2577047.1221089-.5602184-2.1753329-3.444017-1.3143287-4.9225879-2.2556985-.0682717-1.0552862-.1329828-2.1296884-.2016942-3.1884857,1.9123891-.5754333,2.4765088.6323914,4.2976585.1864794.2968349-1.7524382-1.3030151-.9905255-1.5699097-1.9888535-.5523664.0803656-.3160007-.7466979,0,0,4.9339015.4228947,10.0008355,2.0344981,17.6547334.6136655.2515801.5941593.5601684,1.1543777,1.03612,1.4855932.4724405,2.2861282-.3199019,3.3453156-1.1391628,4.3853869Z"/>
      <path d="M51.6235258,241.4388794c.3277044.7334336.5640701-.1104052,0,0h0Z"/>
      <path d="M70.462967,971.0933763c.3085883-.0078025.6288803-.053447.9409797-.053447.6632112-1.3790893-1.7028924-1.4325363-1.4438499-.3963663.2859611,0,.5602184,0,.5028702.4498133Z"/>
      <path d="M70.15833,973.7906955c.0381821.5411024.0760242,1.0818146.1181576,1.5998996,1.4056177.6401939,1.2039235-2.4952348-.1181576-1.5998996Z"/>
      <path d="M70.5316288,979.6195422c-1.2382544-.4342083-1.9658362,1.9623251-.8075572,2.2061528.1560497-.872708,1.4551635-.605863.8075572-2.2061528Z"/>
      <path d="M73.7548355,985.1819341c-.1334225-1.7294209-.0686619-3.7412918-1.6572479-3.5848519.1674134,1.6837764-.2094967,4.0955246,1.6572479,3.5848519Z"/>
      <path d="M60.3212966,983.1626509c-.4876553-.4416207-1.3256422.5489049-1.4021066.6288803-1.3904029,1.7980828,2.1640193.0990916,1.4021066-.6288803Z"/>
      <path d="M71.3926331,985.4031346c-.9905255-.819261-.6210778.0760742-1.8858106.1634621-.2551913,2.0575154,2.3812685,1.8211001,1.8858106-.1634621Z"/>
      <path d="M67.198017,986.8239672c-.464638.0382322-.9522933.0686619-1.4134202.1104052.0343309.3659366.0343309.7088558.0686619,1.0591874.4724405-.053447.9483921-.0838767,1.4208326-.1334225-.0304297-.3503316-.0530569-.6819372-.0760742-1.0361701Z"/>
      <path d="M64.4703181,988.6376549c-.7619626-.7545003-2.1527556-.4002675-1.8172487,1.2265507,1.0779133.0417433,1.7754555-.266845,1.8172487-1.2265507Z"/>
      <path d="M69.7353852,989.2509302c.3542328.3998774,2.9029146,1.1391629,2.3391851-.7123669-.2820598-1.1734938-2.6399709-.3085883-2.3391851.7123669Z"/>
      <path d="M60.2869657,990.0698011c-.2399264,1.2612718,1.9201916.9639971,1.4251738-.1408349-.2134478-.3885638-1.3147188-.5106727-1.4251738.1408349Z"/>
      <path d="M66.9772067,990.5691602c-.1221089.7084657-.6171766,1.0626985-.3542328,2.1296884,1.6342305.2781586,1.7220085-2.1753329.3542328-2.1296884Z"/>
      <path d="M62.9920873,995.1523401c.6210778-.0573483,1.2573705-.1029928,1.8858607-.1677534.2360751-2.0649278-2.4039457-1.8363149-1.8858607.1677534Z"/>
    </g>
  </g>
</svg>