<?xml version="1.0" encoding="utf-8"?>
<!-- Generator: Adobe Illustrator 27.2.0, SVG Export Plug-In . SVG Version: 6.00 Build 0)  -->
<svg version="1.1" id="thume" xmlns="http://www.w3.org/2000/svg" xmlns:xlink="http://www.w3.org/1999/xlink" x="0px" y="0px"
	 viewBox="0 0 197.8728027 878.9901123" enable-background="new 0 0 197.8728027 878.9901123" xml:space="preserve">
<g id="dried_bean_2">
	<g id="outline_2_">
		<path d="M151.9427185,89.3988647c0.7562103,3.3962631,1.1806488,6.7315063,1.6760101,10.239502
			c0.9384918-2.5847549,1.7763062-5.1782913,2.5771332-7.8187256c0.1487274-0.4080353,0.1487274-0.80616,0.2345276-1.2103882
			c-0.8118896-2.7632294-1.7316895-5.4631577-2.6999207-8.1093063
			C153.2724609,84.8593292,152.6989288,87.1012573,151.9427185,89.3988647z"/>
		<path d="M148.1555786,100.3831329c0.4877319-2.2419281,0.8564911-4.3088226,1.1730194-6.4946899
			c-0.603302-3.6834183-1.4041138-7.3645401-2.3647308-10.9899979c-0.3687592,6.3330078-1.0612793,12.5985107-2.1229553,18.6390228
			c0.1414795,4.7130508,1.5829773,9.2022476,2.5065918,13.7978363c1.1543274-2.931015,2.3609009-5.8616562,3.5339203-8.7423401
			c-0.2268982-3.502655-0.599472-6.842865-1.0685272-10.34552
			C149.2355499,97.6832123,148.725296,99.0610123,148.1555786,100.3831329z"/>
		<path d="M148.5018311,69.9014359c-1.906723,3.9179382,0.7337189,8.1707077,1.6908875,11.6787033
			c0.0892334,0.6909943,0.3165131,1.2065735,0.4618073,1.895668c0.2268982-2.8749619,0.4877472-5.8059845,0.6032867-8.6248932
			C150.7327118,72.9514389,150.2819519,71.0561523,148.5018311,69.9014359z"/>
		<path d="M156.1958618,68.6967621c-0.3428345,2.4711227-0.6814728,4.9437637-1.1695862,7.3084869
			c0.1452942,0.229187,0.1452942,0.3409195,0.1452942,0.3985062c1.024292,3.2772827,1.8956604,6.1522446,2.70755,8.9711533
			c0.4469299-2.2419357,0.9308624-4.6009369,1.4262238-6.9603195c-0.4953613-1.5528412-1.0612793-3.2174072-1.664566-4.8857956
			C157.1530304,72.4915314,157.0672302,70.1325302,156.1958618,68.6967621z"/>
		<path d="M161.2120819,732.4593506c-2.4840851,2.2380981-1.3331909,9.4295044-1.2103882,13.2280884
			c0.4915466,18.5757446,12.1035156,35.5425415,7.7313843,54.5686035c-0.7150116,2.8193359-2.9683838,6.2193604-3.7093353,9.4368286
			c-1.1543427,5.463501,0.3984985,10.4053345-1.5269165,13.6860962
			c-5.5375061,9.6079712-22.9775848,16.2780762-31.2562103,15.8197021
			c-6.4352036-0.4095459-12.818161-7.5372925-20.0690613-11.6748657c-6.7254105-3.9103394-14.9220505-7.19104-19.1862564-12.479187
			c-6.1819839-7.8244019-3.9103088-32.8353271-2.7037354-42.7823486c1.9887161-16.1697998,7.0979843-30.0794067,10.639534-44.744812
			c3.5491867-14.5536499,8.4948502-58.605896,9.239624-66.1431885c0.841629-7.9956665,0.6925201-17.0751343,1.065094-22.538269
			c0.7112122-12.7659302-4.1745911-28.0048828-11.2245178-42.1489868
			c-2.9939423-6.0366821-8.438797-11.2244873-11.0639801-17.4846802
			c-2.4730225-6.0477295-1.4041138-16.6278076-1.8994751-24.5525513
			c-1.4189911-25.0223389-6.6399918-48.658905-8.1928253-73.2156372c-1.0761566-16.5644836,0-32.8388062-0.4469376-49.62677
			c-0.3687592-16.7361145-2.1561279-33.9896851-0.3687592-49.5714722
			c1.1917038-10.9877014,5.1020203-22.7743225,5.8059769-34.6227112c0.837822-11.9075317,1.8991013-23.692627,5.5970078-34.2185059
			c4.7221985-14.0323792,11.0086823-27.6567078,14.7885742-42.6145935
			c2.0295258-7.6997375,2.8303452-15.6969452,4.7855072-23.5213928
			c5.6381912-22.9996948,15.2461853-47.3833008,22.4894638-71.7051392
			c5.1207123-17.0823669,7.2470856-34.6227264,13.0530701-50.9603271c0.223465-0.2848663,0.3500824-0.7447662,0.5769806-1.2046738
			c-1.4300537-10.4683075-2.5843811-19.8398743-3.5602417-31.1704102
			c-0.3535156-5.923439-2.7071686-13.4550095-1.4147949-18.0563202c0.4949799-1.7839355,2.3906555-3.8004913,3.0759277-5.694252
			c0.1414795-0.5716324,0.2345276-1.148613,0.3390198-1.7816467c-0.1975403-6.7315063-0.5662994-13.6861038,0.6143494-19.7841988
			c0.5922241-2.644249,2.9939423-5.3460808,3.4149475-8.1649857c0.5174866-3.2177925-2.3536682-6.8432426,1.0948486-9.0905113
			c-0.2307129,8.1089287-0.1117401,16.3932762-0.1117401,24.6757164c1.3183136,0.8061638,2.7037354,1.3797073,3.9141235,2.2419319
			c0-12.4234734-0.3500671-24.7874527,0.4503784-37.4362984c4.4018707,7.5319519,3.8061981,15.8140106,8.2080688,23.23423
			c-1.1916962,6.1541519-1.9959564,12.5371132-2.8528442,18.9204521c1.5120392,1.2603493,3.0763245,2.4669228,4.4800568,3.8504486
			c0.2608337-1.6142387,0.6334076-3.1617393,0.8381958-4.8320312c1.5154572-9.7773132,2.4951324-20.6441345,2.2716675-30.8222427
			c-0.2345276-9.6621475,3.6830292-27.6063557-7.9285431-29.3883839
			c-9.1538239-1.3797077-7.7237701,13.4607296-9.6118164,19.3837872c-2.1862488,6.6140556-5.9550934,13.799366-9.1465759,20.5289688
			c-8.9040222,18.8029976-16.6205521,42.268322-29.0402069,61.0133553
			c-10.4275131,15.7602463-20.8512039,29.6194839-29.1595764,43.8806534
			c-8.1741409,13.9172058-14.6913376,27.8374481-19.6629372,42.0376129
			c-14.2188416,40.4862976-29.0592804,83.1008759-28.8243732,122.4362946
			c0.1117344,13.6860962-5.1058331,27.0293579-9.6007519,40.6037292
			c-4.6215248,13.7417908-8.4162922,27.2582092-10.8931313,41.1734924
			c-1.1951361,6.6697388-3.2212243,13.3989563-4.4091153,20.1304626
			c-1.1806455,6.7254028-1.4262319,13.2258301-3.5564272,20.0671692c-7.1837845,24.4411926,0,51.8763123,4.2527637,78.3843994
			c1.5863967,8.9151001,5.1393924,18.1173096,6.7929063,27.7813721c4.2378902,24.5529175,10.4236946,49.105835,14.806879,74.2918091
			c2.1263828,12.2556763,2.1263828,25.4799805,2.8303452,37.7879028
			c0.7371426,12.4795532,0.1151676,25.4803467-0.1117344,38.7080688
			c-0.3466415,25.4094238,1.7835541,49.9624023,3.9549332,75.9041748c1.7355042,20.590332,0,41.4041748,18.2290726,58.2558594
			c10.3195915,9.6117554,39.9447899,29.2713013,42.9013634,31.7401123
			c4.1452179,3.2288818,9.8654022,5.9249878,14.4606171,9.2060547c7.9361801,5.6976929,11.0197372,8.2824707,20.0690613,12.4273071
			c13.920639,6.2601318,19.4920959,2.696106,31.9712372-6.1594849c3.0873718-2.1862793,6.7631683-4.0220947,8.401413-6.208313
			c3.7093506-4.4316406,4.8861847-11.9616699,7.8839417-17.8309326c2.7857361-5.6382446,7.813385-11.1051636,9.8017273-15.7602539
			c2.7300415-6.2601929,0.5998535-13.7974854,0.3649445-21.6219482c-0.282959-3.5007324,0.9201813-7.3027344,0.6967163-10.6917725
			c-0.1414795-3.8023682-1.6313934-7.0159912-1.6313934-10.2970581c0.1975403-13.1125488,8.7667542-22.4265747,9.142746-36.0005493
			C198.0691071,742.4063721,163.6847229,730.213623,161.2120819,732.4593506z M165.4648438,745.225647
			c3.3295288,2.5843506,6.3833313,4.137207,9.5969391,5.8017578c-3.9137573,20.7730713,2.2457428,41.9259033,2.130188,61.2501831
			c0.1155548,1.1021118,0.1155548,2.3571167-0.1151581,3.6235352c0.1151581-1.2664185,0.1151581-2.409729,0.1151581-3.6235352
			c-0.3424377-6.2601318-3.6830292-12.3601685-4.602829-18.5200195c-0.2345276-1.7763062,0.9197998-4.0220337,0.8118744-5.8094482
			C172.5891418,772.8842163,162.7279205,759.2579956,165.4648438,745.225647z M165.4648438,826.1982422
			c4.763382-7.3031616,0-17.3134766,5.1134644-24.0426636c0.3462524,5.6381836,4.5990143,13.4622192,2.130188,20.5270386
			c-3.5602417,9.6712646-17.5369263,20.0801392-25.3609924,23.2979126
			c-5.3479919,2.3571167-11.6192169-0.461792-16.0138397-3.2177734
			C141.3924103,844.0810547,158.7279968,836.7149658,165.4648438,826.1982422z M114.8473434,836.3797607
			c6.7330322,8.5059204,18.9814682,11.835083,26.0870743,15.1234131
			C130.8497314,861.8002319,113.0672226,844.7739258,114.8473434,836.3797607z M94.9235687,723.3688354
			c-5.422348,12.5428467-14.4308701,21.5101318-18.2553864,32.5001221
			c-3.9030685,11.2131348-1.307251,21.9682007,0.1006775,31.7439575
			c1.5677109,11.7828369,1.5677109,24.3256836,3.2322845,35.3041992c-1.4224243-3.0423584-2.8452225-6.0328369-6.6438065-8.7404175
			c0-12.3601685-8.1741333-23.8676147-6.3978271-36.8608398c1.5307159-11.1611938,9.2468643-22.3148193,12.6843109-34.9094849
			c3.4519348-12.7659302,11.0452881-24.2139282,17.6780243-35.6542969
			C96.7109375,712.3902588,97.0724487,718.4269409,94.9235687,723.3688354z M96.4504776,701.1771851
			c-3.8954468,7.5262451-9.4592743,13.8607788-13.615181,21.6218872
			c-3.5640488,6.6179199-4.6142731,15.2389526-7.3328857,23.1118164
			c-3.8058319,10.989624-11.7458229,20.132019-13.1682396,29.6809082
			c-1.6497002,11.2130737,5.2175636,21.1005859,5.9360237,30.883606
			c-9.2319908-11.9581909-5.6938705-25.7072144-9.730793-38.4735107
			c0.126606-12.1329346,9.8425255-21.9682007,14.5834084-33.5911865c2.8490372-6.8932495,3.8058319-13.7379761,7.4518738-20.2441406
			c6.759346-11.8983154,16.6205597-25.8674316,22.4265442-36.0004883
			C100.2639313,685.2453613,100.0294037,694.1013184,96.4504776,701.1771851z M101.7946472,665.7463989
			c-1.2961884,5.1801758-3.0614395,10.5205688-6.0256348,16.0469971
			c-7.1166687,13.4588013-19.6781845,27.4313354-24.4225082,41.5754395
			c-1.2065735,3.4523315-0.9461136,7.4259033-2.4989548,10.9899902
			c-4.0369186,8.7438354-10.4126358,16.3338013-12.7960434,24.2062988
			c0.2459679-10.4572754,6.8821411-26.2285767,11.1799011-39.4528809c1.1505203-3.6791992,1.3888626-7.4144897,4.115097-11.2058105
			C81.4273758,693.8740234,96.5808945,681.9645996,101.7946472,665.7463989
			c0.625412-2.1229858,1.0651016-4.2565918,1.5528412-6.2716064
			C103.0012283,661.6126099,102.5169144,663.7351685,101.7946472,665.7463989z M76.0908279,694.9059448
			c6.5248184-14.7176514,17.8866196-30.0160522,24.7653275-44.8565063
			C98.2416534,663.9697266,90.9240189,682.9961548,76.0908279,694.9059448z M102.5169144,623.8204956
			c4.4018707,18.5795288-16.4790726,43.3670044-26.902771,62.9780884
			C79.39785,666.8412476,101.9136276,641.8787231,102.5169144,623.8204956z M92.2125854,594.7875366
			c3.6868439,4.3687134,4.368309,9.0870972,6.5206223,13.682312c-2.0222702,10.8668213,0.3462601,22.4821777-6.617485,34.8499756
			c-6.189621,10.4050293-14.0251236,21.6818237-17.8050156,32.7236328
			c-2.9642029,8.7922974-1.6722031,19.4955444-5.0982056,26.9100342c-0.830574,1.8994751-2.9680176,3.3928223-3.7837143,5.0684814
			c-2.8524628,5.0535889-3.2250366,11.5482788-4.6588936,16.4417114c-1.7316895,6.0965576-3.530117,13.4588013-4.9491043,17.0228882
			c-2.7445412-12.1928101,5.4482841-23.5175781,10.2002296-37.3154297
			c2.0222702-5.9249878,1.2885666-12.5424805,2.4692078-18.690918c2.0184631-10.2451782,6.1854248-21.6333008,11.6302719-31.4052734
			c2.1263885-4.0255127,5.2133789-7.3660889,7.1128616-11.3286743
			C95.0391159,626.3046265,90.6891098,609.7995605,92.2125854,594.7875366z M54.1264725,725.6184082
			c-0.5514259,0.4579468-0.9201851,1.3144531-1.6237679,1.0314941c0.1117325-7.7611084-1.1657715-15.2389526-1.5269051-23.000061
			c-0.5064278-8.1108398,1.7316895-15.5852051,2.4875145-23.5842896c1.1619606-12.5317993-2.8600922-22.947876-5.608448-34.1536865
			c-0.8042564-3.2772827-2.9603844-7.5376587-0.4690552-10.8744507
			C61.7606277,663.388916,52.707489,695.2521973,54.1264725,725.6184082z M51.0726585,571.3782959
			c6.2750397,17.7077637,0.7035828,37.6132202,4.0292969,56.3563232
			c2.9458923,16.5050049,7.1017952,30.9435425,5.1020203,46.4093628c-0.4690552,0.9274292-1.4372902,0.8046265-0.4690552-0.3500366
			c0.6032867-16.8997192-6.6586723-32.5371704-10.5727997-48.8187256
			c2.8490295-18.6390381-0.3462639-39.0543213-2.4692116-56.6397095c-0.3683815-2.4837036-1.6683884-6.6174927,0.126606-6.8447876
			C46.3245277,565.2816772,49.7654076,567.8737183,51.0726585,571.3782959z M60.4533768,589.0860596
			c-1.7873688-0.5697632-0.8675613-1.489563-2.1450691-2.1859131c0.8343849-1.4376221-2.1450691-6.1445923,0.3577003-5.340332
			c4.3755569,8.7442627,12.3342361,17.7116089,17.4248199,27.4317017
			c5.452095,10.3451538,11.4926071,25.0143433,5.6011963,36.2277832c-0.3836288,0.3463135-0.741333,0.9198608-1.1993256,0.5731812
			C81.9971008,625.6082764,66.1102524,608.1235962,60.4533768,589.0860596z M78.2210236,650.5707397
			c-11.1387177,18.6275635-12.6694412,35.6542969-16.9519501,53.1908569
			c-0.4991798,0.2344971-0.7188377,0.9197998-1.1768341,0.5213013c2.8414078-13.5221558,2.4840851-26.6270752,4.8449936-40.2014771
			c-2.2419281-22.3143921-8.3941727-44.1113281-6.271225-67.0481567
			C69.82341,614.1602783,77.3980789,631.8794556,78.2210236,650.5707397z M49.0503845,726.2514038
			c1.5528374,7.3027954,5.947464,14.6021118,4.0258636,21.8564453
			c-3.6571007-17.5476074-15.2538147-34.5109863-15.9837112-52.5688477
			c-0.5960426-16.0435791,2.0218925-30.7722778,7.2284012-47.8470459
			c-0.1155472,7.0644531,3.9137497,12.3045044,5.2210007,19.149292c1.6645737,8.2824097-0.8080711,15.8086548-2.375782,24.3778687
			C45.2704887,701.5756836,46.8195152,715.4330444,49.0503845,726.2514038z M87.2333603,629.2874756
			c-5.6904373-24.0945435-26.3216095-45.8285522-36.3841705-69.237854
			c-1.7988052-0.8046265-2.0333328-1.9589233-2.9943237-2.8154297c-3.768837-8.5097656-7.5636024-19.1530762-9.6899872-27.8413086
			c-0.8488731-2.9828491-3.187664-6.6102295-0.9606094-8.3865356c7.2467079,12.1328735,7.1166687,27.0217896,16.002018,39.9036255
			c12.5988884,18.2923584,29.7743034,34.6227417,35.5688515,54.6917725
			C87.9373169,620.2084351,88.3095169,624.7402954,87.2333603,629.2874756z M36.2619667,536.5805054
			c1.2996254,4.4316406,1.4151726,8.9787598,5.5897598,13.0008545c-1.7988052,11.3286133,2.5992508,24.0422974,2.1115112,33.8775635
			c-2.2568016-7.6600952-4.4018707-15.3579102-8.3827362-22.7762451
			C36.1204872,552.8620605,34.7163734,543.197998,36.2619667,536.5805054z M86.5332031,591.6818848
			c-8.0887146-14.2669067-20.1697388-27.8413086-27.4949989-42.1005249
			c-0.3721962-0.8569336-0.8786201-1.664978-1.1878929-2.4692383c0.3092728,0.8042603,0.8156967,1.6123047,1.1878929,2.4692383
			c4.5845337,7.5372925,14.4457436,13.40271,20.1140633,20.7539062c2.2751083,2.8826294,2.6141205,6.9641724,3.8283234,9.6716919
			C84.846138,584.144165,89.5012207,590.0691528,86.5332031,591.6818848z M78.2210236,551.3687134
			c-0.3760071,0.5102539-0.6963425,0.9197998-1.0651016,1.3815918
			c-10.1964111-6.2712402-21.7077065-14.9037476-24.8881264-23.5846558
			C59.846653,535.262207,71.9234848,543.8943481,78.2210236,551.3687134z M42.6674271,512.8356323
			c-9.2583046-12.1328735-18.1436539-23.8638-20.9926853-36.3467712c-0.2421532-0.0598755-0.2421532-0.6334229,0.3721943-0.458374
			c10.2936554,18.3488159,29.8524818,35.1405945,37.2261734,53.8802795
			C50.2234039,524.5105591,47.3858109,518.8723755,42.6674271,512.8356323z M81.20047,566.7193604
			c-8.655014-7.9361572-19.2015038-15.7564087-22.534462-24.6124268
			c5.2099419,7.0758667,13.6449203,11.3248291,22.1580734,17.3615112
			C81.542923,561.8297729,81.20047,564.298584,81.20047,566.7193604z M64.1291656,520.5445557
			c5.2248077,8.3342896,9.3547821,16.7322998,14.8217468,25.0147095
			C67.0823059,538.2561646,69.082077,528.8788452,64.1291656,520.5445557z M78.7125778,332.6610107
			c-1.5566559-19.3780823-4.6325836-38.5330505-11.6302719-57.10495c1.895668-2.4169617,3.8023911-5.403656,5.8059769-6.6697388
			C74.1917267,288.3818359,88.0749893,311.6126404,78.7125778,332.6610107z M86.8756561,205.3385468
			c-0.1189804,14.5502319-15.6633835,35.6546478-24.9884224,48.9941101
			C58.0478477,240.0749207,78.8056259,220.0058441,86.8756561,205.3385468z M59.5858154,242.8923035
			c-6.7257881-16.3356934,16.0283279-31.5727386,28.1055374-45.3759155
			C79.39785,211.1445312,64.937233,228.338623,59.5858154,242.8923035z M82.3773041,232.47966
			c8.1851959-13.8012695,7.8053741-30.537384,14.6951447-43.3593597
			c-3.4263916,18.8083496,2.7220459,37.9575958-15.1866989,56.4681091
			c-4.5955963,4.8377533-13.0382004,9.4947357-16.010025,17.0267029
			C63.8759499,252.0907288,76.0908279,243.0059357,82.3773041,232.47966z M101.6901627,193.6655579
			c1.1695862,9.6564331,4.3610611,25.1302795-0.8340073,36.8032684c-0.7001495,1.664566-2.614502,2.9924164-3.7837067,5.0608368
			c-5.5714569,9.3700409-13.648735,28.75-24.4339447,29.0405884c-1.8731689,1.4411011-3.6605301,3.5636902-5.4070969,5.9806519
			c0-10.7550964,12.5462646-16.3318787,18.8064346-23.6327362
			C100.9938278,229.6679993,98.0071259,210.5114899,101.6901627,193.6655579z M84.6188507,311.5009155
			c-1.0647125-5.6942444-2.1263809-12.9409485-3.3104553-20.6460571c-1.1878967-7.1353455-5.947464-20.7024536,2.5992508-25.6515808
			C80.5746841,280.9021301,92.2125854,296.4873352,84.6188507,311.5009155z M97.1952438,275.8466492
			c-0.4843063-8.0532532,0.811882-18.5795288,6.0256348-26.2285614
			C99.7944946,258.591156,100.1560059,266.8678589,97.1952438,275.8466492z M100.0294037,243.2347412
			c-10.0812531,18.8644104-2.2568054,36.5184021-10.2078552,52.7926941
			c0.9758606-11.3267212-5.3365479-21.1063232-1.1692047-33.1835327c1.7724915-5.1782837,4.8857956-8.164978,7.5971603-13.7974548
			c2.8299637-5.6942444,4.2489548-13.3436584,11.8758621-19.2667084
			C106.6842575,234.7215881,102.5169144,238.6338196,100.0294037,243.2347412z M106.3116837,221.4397125
			c2.7296753-12.8219757,0.4991837-24.9605865,0.6929092-37.5533752c2.3795929-3.5640564,5.0349045-5.8673706,7.5037308-8.7926788
			C112.3521957,190.2132416,118.1581802,206.258728,106.3116837,221.4397125z M113.5366592,168.7049866
			c2.2865448-2.4169769,4.2786942-6.842865,6.7776489-7.9975891
			C118.0388184,163.1838531,116.0352325,167.6677246,113.5366592,168.7049866z M117.9347153,195.678299
			c-3.0873718-11.8480225,4.5059738-27.5506744,12.7845993-39.739624
			C127.4199142,168.7606506,123.937851,183.8302765,117.9347153,195.678299z M136.1824646,123.7367249
			c2.968399-21.8564301-3.1540985-44.5155869,2.0184631-65.335144
			C135.5010071,80.4891052,143.5489197,101.0161667,136.1824646,123.7367249z M137.9664001,48.9758682
			c1.0353546,2.2362099,0.8118896,6.7257881-0.8267517,7.8747826c0.4579926-0.8641281,0-1.6088982-1.1806488-2.2998924
			C136.6557159,52.7687302,137.5156555,50.8696289,137.9664001,48.9758682z M133.9481659,60.9916801
			c-6.5282516,27.8916054,6.7257996,54.9209862-10.2970886,83.0433044
			c4.7145691-22.7747192,6.271225-44.9739761,1.8396149-66.2477112
			C127.5278397,72.6089859,129.9223022,65.2444458,133.9481659,60.9916801z M115.823204,101.9416962
			c0.2120285-1.9608765,1.4967804-4.2584839,0.3275757-5.9863586c2.8490295-4.0853577,4.0182343-7.7611465,5.8059845-11.5559158
			c3.4782486,19.037529,2.5100174,46.2362289-4.4579315,66.5901566c-0.8637466,2.4764557-2.532135,3.1056824-4.0777206,4.3721313
			c-2.0146484-2.8154755,0.8488693-5.1729584,1.3221207-7.5338593
			C118.3069077,132.361618,119.8525009,116.2028656,115.823204,101.9416962z M97.4297714,159.7319183
			c8.2786255-7.1856842,13.283783-17.3672333,15.5295258-25.9364471
			C112.3521957,142.8859863,111.7748413,161.5139465,97.4297714,159.7319183z M92.4207993,160.4785919
			c-3.1392365,0.1170807-5.8875961,2.2453613-9.1088181,2.2453613
			c16.1290054-16.7898712,28.2393875-37.5533676,30.3325958-53.0214996
			C112.8399353,125.7479477,109.3841858,145.7052765,92.4207993,160.4785919z M109.3098221,106.7104187
			c4.0441666,15.4677505-16.9820709,36.6354675-28.1093521,53.0790863
			c-2.9794464,4.3145447-4.2718277,7.6494141-8.8895416,8.6847534
			C81.4273758,148.4013824,94.9235687,127.6432343,109.3098221,106.7104187z M96.0073547,164.4503021
			c-9.4741516,6.3272858-19.0787125,12.302597-28.9250488,16.6781464
			C71.2122726,167.8969116,85.8033142,165.0852509,96.0073547,164.4503021z M77.9754333,179.4600677
			c13.1419296-7.5338593,27.0476837-15.7045746,39.1210785-20.1880493
			c-13.7490234,15.7041931-31.5128555,23.9252319-48.3645096,29.3269806
			c-1.9959641,1.6142426-4.0254822,3.6273651-6.1556778,4.2043457
			C63.8759499,184.4633179,71.3465042,183.1411896,77.9754333,179.4600677z M87.9373169,185.6123047
			c5.4631577-2.5881805,8.5131607-6.6121368,13.9763107-8.6248779
			c-13.4813232,15.9276428-28.7908173,21.2794495-43.60532,29.0402069
			C64.3598785,190.7848816,77.774086,190.556076,87.9373169,185.6123047z M82.7346268,198.2668762
			c-10.4236984,9.8909607-22.28125,18.8640137-27.0293846,31.401123c0.5922318-4.6066589-1.0799675-8.8613281-0.8339996-13.348999
			C63.1533012,204.3592529,73.4839478,204.3592529,82.7346268,198.2668762z M49.9850616,234.1518555
			c7.0274353,11.5559082,8.0627861,26.5637512,12.218689,40.0245056
			c3.6719742,12.4814148,7.9361801,24.8991699,10.5613632,38.3560791
			c1.1695862,6.0405273,1.9105377,12.8833923,2.8490295,19.4955444c0.811882,6.4466248,2.8303452,13.6860962,2.7224274,19.497406
			c-0.1155472,9.3158875-3.7947693,19.4917297-4.9792328,29.6755371
			c-1.1692047,10.1144409-3.2174072,20.0072937-4.9754105,29.6175842
			c-3.332962,17.8233337-13.0637512,41.6349182-8.647007,59.5180969
			c4.1410294,17.0823669,20.9701805,32.6637573,17.555233,49.4555664c-2.8490295-8.8556213-5.209938-17.599884-9.4928284-26.2209473
			c-2.9866943-6.2716064-7.5933495-12.137085-10.3043327-18.40448c-6.2864799-15.0082397-0.8381996-34.7344666,2.8452148-50.893219
			c2.815094-12.9394531,7.0869255-25.8788757,9.0157661-38.7641602c0.4694366-3.3886414-0.506424-6.9602966,0-10.6357117
			c0.3428345-3.5079956,2.0928268-7.1914062,2.4730301-10.9282227c0.9381104-11.8483887-0.6147308-26.2232056-2.2385025-39.5664978
			c-1.7911758-13.9766846-2.1633682-27.6624146-5.5748825-39.1012573
			c-4.427803-14.4975891-13.1644287-30.2505951-12.6766853-46.0108337
			C51.0726585,237.4848175,48.1267662,236.1630707,49.9850616,234.1518555z M67.6520309,458.8924255
			c0.8381958,12.0211487,6.8897705,23.1152649,6.5396957,34.1014404c-2.4951477-9.20224-9.1427612-16.0432129-10.5689888-24.8991699
			c-2.3536644-14.5498657,3.928997-29.4463501,7.2619591-45.0315552
			C70.7653351,435.2593079,66.8477783,446.9346008,67.6520309,458.8924255z M73.7371597,472.2357178
			c-2.0405807-10.412262-2.2903595-21.0483704-0.506424-32.0345459
			C73.357338,450.6138,75.3609314,462.9701538,73.7371597,472.2357178z M46.201355,247.7185974
			c3.5640526,14.5536804,9.9618835,25.3034058,13.645298,38.1867981c3.7760849,13.4012451,3.909935,27.7184753,6.5168114,42.6145935
			c5.3331146,30.0793762-1.0536575,58.1997681-8.0551567,88.681488
			c-3.0648727,13.5705566-8.8891602,32.3769836-8.0849037,45.1989441
			c0.7523956,10.5243835,8.5432816,21.6219177,13.9057617,32.0273132
			c8.3083725,16.0469971,14.4495544,32.3285522,14.5834122,46.6999512
			c-5.3552399-10.468689-11.2874451-21.562439-16.5088272-32.5409851
			c-5.09058-10.4164429-11.3545609-21.1677246-14.2146492-31.520874
			c-4.9643555-18.0578308,0.4690552-38.6447754,4.5136032-58.1997986
			c10.5388603-50.5503845,16.3448448-98.3935852-0.3313904-143.1368408
			C48.938652,267.3334961,43.7138367,257.9580994,46.201355,247.7185974z M42.1682434,261.81427
			c3.9511223,11.1574097,8.8075562,22.024231,11.4068031,33.2373047c1.296196,5.5768127,1.5269089,11.2710571,2.4764595,17.1384277
			c0.8156967,5.8616638,3.2921524,11.7305603,3.6834145,17.3615112c0.226902,3.9179382-0.6967163,9.0905151-0.8381958,13.5743713
			c-0.2307167,11.2691345-0.3573227,22.1992493-2.1485023,33.6468811
			c-1.0429802,7.0125427-1.4300461,14.3751831-2.6217499,20.6967468
			c-3.6571007,20.0744019-11.9582291,38.5906372-12.7887993,58.2016907
			c-0.5548553,18.806427,8.5619659,35.8815613,16.5126381,52.7923279
			c-11.4140511-14.2035828-19.8009796-29.0402222-26.9176464-43.9328918
			c19.2907391-66.7129517,34.9430618-132.848938,12.7811718-193.1731873
			C41.7064362,268.30896,39.9190674,265.4339905,42.1682434,261.81427z M42.7791595,310.1734619
			c0.2455864-0.2311096,0.4915543-0.5716553,0.8080711-0.1136475c3.2322845,32.4887085-2.8044128,66.3666687-12.1965714,100.6412354
			C27.7038136,378.3202515,45.0245209,342.7830505,42.7791595,310.1734619z M47.7431335,324.8388367
			c0-15.1253052-4.8449936-28.9231262-5.7796707-43.4768066c19.4249725,54.9206238,4.3610649,117.3178711-13.4103947,176.6662903
			c-1.653513-5.1725769-3.1991062-10.408844-4.39081-15.5852051
			C40.2912636,401.0949707,47.854866,362.2804871,47.7431335,324.8388367z M38.9843903,273.7164307
			c1.5566521,2.0127563,2.4875183,4.1410522,2.2564201,6.4947205c-0.9495468-0.6273193-1.8842278-1.3164062-2.841404-2.005127
			C39.3565826,276.5860596,38.5111427,275.2692871,38.9843903,273.7164307z M38.3994064,288.8417358
			c7.5861053,32.7793274-5.3624763,69.6382751-10.6955929,104.6038208c-0.3237629,2.130188,0.1342335,6.6140442-0.6776524,3.6830444
			c-1.3221245-4.7759705-0.8641281-13.0527039-0.5064259-18.5795288
			C28.7056065,350.2593384,40.6638374,316.3256836,38.3994064,288.8417358z M21.4325886,363.0870361
			c4.6363964-7.0777893,4.1673412-15.5856018,8.0589714-21.2272034
			c-7.2097168,28.2393799-8.0589714,55.4979553-1.9925289,81.7246094
			c-2.4913311,3.3890076-1.2252636,8.2786255-4.2676373,10.4648743
			C20.7400646,410.5835876,20.136776,386.9508667,21.4325886,363.0870361z M21.5630074,444.8043823
			c1.4189873,7.6490479,4.2676373,16.0432129,7.3439503,23.2903137
			c7.9247379,19.3242798,24.2993298,35.6020203,31.862936,55.8423157
			c-11.1162186-20.538147-31.3713818-38.2462769-43.1358871-58.4865723
			c-2.0257072-3.7387085-2.5843782-10.0103149-3.6494761-14.6055298c-0.9758625-4.3797607-2.6328087-9.7201233-2.4764566-12.997406
			c0.3203297-8.9711304,5.6568775-17.3725586,6.1259327-27.4946289
			C21.198061,421.9160461,19.4328117,433.3602295,21.5630074,444.8043823z M15.6082993,395.6932068
			c-1.6237688,8.5074463-1.8548641,18.9200745-5.4185371,26.4520264
			C11.7426004,413.6320801,11.8284035,403.1633911,15.6082993,395.6932068z M8.893569,448.0256042
			c3.6647301,12.821991,5.3106165,26.7948608,11.6005278,39.6763306
			c7.0049343,14.2669067,19.7971668,25.8266296,26.4409657,40.7189026
			c0.9198036,13.5744019,9.2281761,25.6439819,17.8755684,38.4140625
			c8.8075485,12.7026367,21.5849075,23.9271851,23.4988861,37.9595337
			c-11.7755661-23.2346191-35.9113007-42.5066528-42.1081619-67.7521362
			c-1.534153-6.4984741-1.1768341-12.6469116-5.5375175-18.5684814c-5.6866226-7.6489868-10.34552-12.0211182-14.5018044-19.8455811
			C17.2915573,481.840271,7.6721201,464.7579041,8.893569,448.0256042z M31.7373028,548.2664795
			c-3.7913361-13.68573-5.0722752-27.7219238-5.5752697-41.9255066c2.1565094,2.2457275,2.644249,4.8301086,5.0165997,7.0682068
			C31.513834,524.7340088,34.7163734,537.7348633,31.7373028,548.2664795z M9.47474,499.1495361
			c-1.8026199-9.026825-1.1955185-20.0168152-1.6760135-28.5822144c0-0.9830933-1.187891-3.3924561,0.7226501-3.7947693
			c1.8842268,7.4743652,4.2676363,15.466217,7.9396105,22.4265442c7.8206329,14.8923035,8.7629356,28.4666748,9.8127804,43.9923706
			C18.3379688,522.0379028,11.9550104,511.7408142,9.47474,499.1495361z M33.6474609,617.2141113
			c-2.1336269-24.4412231-11.9727192-49.7461548-13.6449184-72.8613892
			C30.5604706,567.1178589,36.4964943,595.0708618,33.6474609,617.2141113z M36.6307259,614.2834473
			c0.0816078-8.05896,0.8191299-16.453125,0.2009697-24.4411621c-1.1692047-19.7304688-12.3079224-39.3411255-18.8178692-57.3955688
			c-0.9419231-2.413147-3.3402052-6.3829346-1.187891-7.1914062c7.9361782,11.3251953,11.8796711,23.2346191,14.3526974,35.3156128
			c5.6530628,13.5629272,11.8461132,27.0255737,12.784605,41.1696777c1.0612831,13.9839478-2.9828835,23.409668-3.798584,38.8717041
			c-0.3462601,5.1801758-0.8080711,20.8775024-3.9026871,23.3574219c0.1227913-0.1228027,0.1227913-0.3463135,0.3687592-0.4690552
			C34.0272827,647.293457,36.4964943,630.9002075,36.6307259,614.2834473z M35.8745193,714.5166626
			c8.7926826,18.40448,13.7791557,35.3041992,17.9350548,53.8204346c3.2029228,13.7493896,1.1882744,28.9956055,10.2040443,40.84552
			c5.8097916,7.4633179,14.937294,13.2765503,17.5293045,23.28302c-5.1168976-4.0220337-8.6546402-6.3829346-12.9226532-10.9785156
			c-12.7026176-13.6933594-11.2725716-27.9530029-15.5440216-44.5697632
			c-6.1411858-23.927124-17.2947769-40.4321289-17.4957466-61.942688
			C35.7814713,714.2897339,35.8745193,713.3695679,35.8745193,714.5166626z M40.2912636,766.7952881
			c6.6437988,13.8500977,6.2716064,28.75,8.8708572,43.3037109
			C40.7828178,796.8114014,39.9190674,780.0752563,40.2912636,766.7952881z M55.2434349,818.5449829
			c-7.1166687-12.3040771-4.3942451-26.6754761-7.7348289-39.1027222
			c-3.4225769-12.5947266-12.1740723-25.59552-8.7625542-37.6689453
			c2.9603844,10.8668213,8.420105,21.5101929,11.3804893,32.3770142c2.8452187,10.5281372,2.487896,21.9685059,6.1709328,32.4890747
			c4.6142769,13.0004272,18.1436501,22.0909424,31.0365562,34.7344971
			C74.9101791,834.1340332,66.8477783,827.401001,55.2434349,818.5449829z M93.1545029,840.5169678
			c-10.0587463-7.935791-8.420105-18.0578003-9.4813843-29.1591797c-0.6925278-7.5899048-0.9384918-15.6969604-1.9810944-22.4303589
			c-1.6908798-10.8668213-3.6014252-22.2510986-0.4915543-32.0269165
			c2.2232437-7.4144897,7.8202515-13.6860962,11.2203293-19.611084
			c-5.187439,18.6912842-10.5350494,35.2485352-10.173912,52.7927246
			c0.3687592,17.1380615,8.6771317,32.7232666,10.7886429,49.62677
			C93.2849274,839.9956665,93.6460571,840.1669312,93.1545029,840.5169678z M93.4004745,823.6619263
			c10.069809,11.5635376,14.3450699,23.9309082,15.5367737,36.80896
			C95.1580963,849.6040649,96.8375397,836.2047119,93.4004745,823.6619263z M114.8473434,862.3699951
			c-3.7837143-11.4476318-6.7219772-23.0595703-12.9337158-34.1609497
			c16.39328,12.4273071,10.9263077,28.1280518,23.9793854,41.1174316
			C122.336586,867.9486694,118.5303726,864.8430176,114.8473434,862.3699951z M122.1912918,854.7209473
			c6.3978348,4.6066895,11.6375198,4.9453125,17.18647,2.7072144c12.6843109-5.1279907,30.5038147-19.0375366,37.9297638-35.0807495
			c1.1806488,8.7404175-10.9041901,19.0264893-16.7097931,23.6331177
			c-8.5356598,7.0159912-14.9186096,18.0578613-22.8547974,20.1918335
			C132.0525055,866.395874,121.0369568,861.1672363,122.1912918,854.7209473z M133.1137848,869.3264771
			c8.0814667,3.3405762,14.9189911,0,22.4006042,0.6330566
			C149.2355499,874.7900391,138.8862152,878.4169922,133.1137848,869.3264771z M157.5252228,863.6398926
			c4.2527771-5.46698,11.153595-8.2225952,14.1997833-12.7175293
			C172.3546143,857.6553955,163.3422699,865.0661011,157.5252228,863.6398926z M155.7489166,858.1729126
			c9.3624115-9.6080322,19.7971649-21.1600952,28.3103333-31.1071167
			C180.5253143,840.1669312,165.4648438,850.5238647,155.7489166,858.1729126z M185.7649994,805.6074829
			c-0.1491089,6.208313,2.5843811,12.8258057-3.798584,16.3936768c-0.6032867-23.5214233-6.4203339-46.1748657-2.9943237-70.2808228
			c4.7447052,1.1542969,7.4854279,2.9939575,11.0456696,6.8447876
			C183.1207581,775.0701294,186.1074524,790.6034546,185.7649994,805.6074829z"/>
		<path d="M142.6958466,84.6861954c-0.1300354-2.1862488-0.1300354-4.4281845-0.1300354-6.7871857
			C142.3682709,80.2580109,142.461319,82.4999466,142.6958466,84.6861954z"/>
		<path d="M142.6958466,84.6861954c0.2234802,8.3381195,0.9682465,16.1568451,0.6257935,24.8991852
			c0.5773621-2.5881882,1.0277252-5.2286224,1.5192719-8.0479126c0-1.383522,0.1414795-2.7071686,0.320343-4.0239563
			C144.6140137,93.1993484,143.32164,89.0003586,142.6958466,84.6861954z"/>
		<path d="M151.2578125,74.850914c0.2345276,1.2660675,0.4618225,2.532135,0.9198151,3.5636749
			c0.5213013,1.3278427,1.0948334,2.70755,1.5528412,4.0853577c0.4839172-2.1858749,0.9682312-4.3141632,1.2958069-6.4946976
			c-0.8118896-1.9570618-3.6605377-7.6509323-1.065094-8.3400269c1.065094-0.3462601,1.787735,0.2307205,2.2346802,1.0315399
			c0.3798218-2.4707336,0.7634583-4.9475746,1.1020813-7.4144974c-1.7835541-1.5566521-3.6792145-2.9981384-5.4368439-4.4316139
			c-0.1414642-0.1750374-0.2608337-0.1750374-0.3687592-0.2867699
			C151.6002655,62.661972,151.4923401,68.6967621,151.2578125,74.850914z"/>
		<path d="M142.5658112,77.8990097c0.2715149-1.5528412,0.6143494-3.1617355,1.2065735-4.7183838
			c1.3370056,3.1655426,2.2568054,6.500412,3.1914825,9.7178192c0.6143494-9.3696518,0.6143494-19.0318031,0.6143494-28.5764961
			c-0.342453-0.17313-0.7558289-0.2905846-1.1543274-0.5773582c-5.6084595,2.1858749-3.3592834,8.282444-3.858078,12.9413376
			c0.1300354,2.6438675,0.1300354,5.4631577,0.1300354,8.0513458
			C142.5658112,75.8264008,142.5658112,76.8617477,142.5658112,77.8990097z"/>
		<path d="M149.328598,93.888443c0.1414795,0.8004456,0.3798065,1.6085129,0.4842987,2.3590012
			c0.6963348-2.1915894,1.5528412-4.427803,2.1298218-6.8485794c-0.342453-1.955162-0.8004456-4.0239563-1.2881927-5.9230576
			C150.2819519,86.9281235,149.9318848,90.4361191,149.328598,93.888443z"/>
		<path d="M155.0262756,76.005249c-0.3275757,2.1805344-0.8118896,4.3088226-1.2958069,6.4946976
			c0.9682312,2.6461487,1.888031,5.346077,2.6999207,8.1093063c0.5289307-1.6088943,0.9758606-3.3962631,1.4487305-5.2343445
			c-0.8118896-2.8189087-1.6832581-5.6938705-2.70755-8.9711533
			C155.1715698,76.3461685,155.1715698,76.234436,155.0262756,76.005249z"/>
		<path d="M149.8128967,96.2474442c0.4690552,3.502655,0.841629,6.842865,1.0685272,10.34552
			c0.9796753-2.3536606,1.925415-4.651268,2.7373047-6.9545975c-0.4953613-3.5079956-0.9197998-6.8432388-1.6760101-10.239502
			C151.3657379,91.8196411,150.5092316,94.0558548,149.8128967,96.2474442z"/>
		<path d="M149.328598,93.888443c0.6032867-3.4523239,0.9533539-6.9603195,1.3259277-10.4126358
			c-0.1452942-0.6890945-0.3725739-1.2046738-0.4618073-1.895668c-0.9571686-3.5079956-3.5976105-7.7607651-1.6908875-11.6787033
			c1.7801208,1.1547165,2.2308807,3.0500031,2.7559814,4.9494781c0.2345276-6.1541519,0.342453-12.188942,0.2345276-18.2870331
			c-1.2103882-0.8622246-2.5958099-1.4357681-3.9141235-2.2419319c0,9.544693,0,19.2068443-0.6143494,28.5764961
			C147.9244843,86.5239029,148.725296,90.2050247,149.328598,93.888443z"/>
		<path d="M143.32164,109.5853806c0.342453-8.7423401-0.4023132-16.5610657-0.6257935-24.8991852
			c-0.2345276-2.1862488-0.3275757-4.4281845-0.1300354-6.7871857c0-1.037262,0-2.0726089,0.1300354-3.1617355
			c0-2.5881882,0-5.4074783-0.1300354-8.0513458c-0.1044922,0.6330338-0.1975403,1.2100143-0.3390198,1.7816467
			c-0.6852722,1.8937607-2.5809479,3.9103165-3.0759277,5.694252c-1.2923737,4.6013107,1.0612793,12.1328812,1.4147949,18.0563202
			c0.9758606,11.3305359,2.130188,20.7021027,3.5602417,31.1704102c0.98349-2.701828,2.0482025-5.346077,3.2216034-8.0532532
			c-0.9236145-4.5955887-2.3651123-9.0847855-2.5065918-13.7978363
			C144.3493652,104.3567581,143.8990021,106.9971924,143.32164,109.5853806z"/>
		<path d="M156.1958618,68.6967621c0.8713684,1.4357681,0.9571686,3.7947693,1.4449158,4.8320312
			c0.6032867,1.6683884,1.1692047,3.3329544,1.664566,4.8857956c0.9495544-4.3664017,1.7614441-8.8536987,2.4726562-13.2818756
			c-1.4037323-1.3835258-2.9680176-2.5900993-4.4800568-3.8504486
			C156.9593201,63.7491875,156.5756836,66.2260284,156.1958618,68.6967621z"/>
	</g>
</g>
</svg>
