<?xml version="1.0" encoding="utf-8"?>
<!-- Generator: Adobe Illustrator 27.2.0, SVG Export Plug-In . SVG Version: 6.00 Build 0)  -->
<svg version="1.1" id="vetiver" xmlns="http://www.w3.org/2000/svg" xmlns:xlink="http://www.w3.org/1999/xlink" x="0px" y="0px"
	 viewBox="0 0 500 1014.5458984" enable-background="new 0 0 500 1014.5458984" xml:space="preserve">
<g id="outline">
	<path d="M152.191452,251.4050446C151.6116333,254.036026,151.959549,252.4555664,152.191452,251.4050446L152.191452,251.4050446z"
		/>
	<path d="M152.3318481,250.8092194c-0.020752,0.0793915-0.0402527,0.1746521-0.1000061,0.3631744
		C152.2915955,251.0039978,152.3110962,250.8886108,152.3318481,250.8092194z"/>
	<path d="M259.7852783,566.6951904c-0.0353699,0,0,0-0.0524902-0.0402832
		C259.6131592,566.499939,259.6925354,566.6157837,259.7852783,566.6951904z"/>
	<path d="M310.8774109,591.5202637c-0.111145-0.1097412-0.057373-0.0305176,0.057373,0.0404053
		C310.8774109,591.5606689,310.8994141,591.5606689,310.8774109,591.5202637z"/>
	<path d="M499.1778564,210.8313446c-6.1079712,3.9867859-7.4290161,11.8698425-9.7730713,17.9046631
		c-8.1248474,21.0202026-15.9212646,37.6172943-27.9333801,55.4199371
		c-7.680542,11.3535461-14.3208008,23.2057495-20.2286072,35.0065918
		c-6.3338318,12.6567383-9.7070312,26.3664246-16.0812683,39.2136536
		c-9.21875,18.6554871-27.9151306,31.325592-35.6932983,49.4140015c-3.6210022,8.381897-4.0288086,17.5036011-8.8695679,24.9496155
		c-5.1019287,7.916687-15.2961731,13.9221191-21.9975891,20.8945618
		c5.3180847-16.4487305,8.8195496-34.6567993,12.0377502-53.4898071c1.1305237-6.7037964,1.2904053-15.1986694,3.1779175-20.0191956
		c2.9435425-7.3819885,12.441925-8.4942627,11.210022-17.0286865c-4.1888123,1.4492188-6.1165771,5.9925537-8.6169128,3.9910583
		c2.9960327-14.6047363,0.1026306-27.8993225,2.8056335-41.7616577
		c2.7749939-14.0662231,9.7644348-27.8155823,14.0203552-41.6712036
		c4.4403687-14.4734497,8.9038391-28.1276398,12.6054688-42.601593
		c4.3694458-17.0841675,11.6923218-70.756012,10.7436829-82.3823242
		c-16.8833923,33.9633179-15.6990967,77.0038605-30.618103,113.5395203
		c-7.4290161,18.2018127-14.9373779,36.0931091-17.5304871,56.2092896
		c-2.1853027,17.3594666,0.0402527,41.6644897-8.3727417,54.5782166
		c-2.7176208,4.1748047-7.6853027,7.2489929-10.6508179,10.8389587
		c-10.1148682,12.0828857-16.4891052,25.2206421-23.1988831,43.3486938
		c-7.7965393,21.2113647-21.7851562,37.8565979-31.7536316,55.9010315
		c7.29599-33.8345642,3.3195801-63.5467834,11.6618042-93.2125244c2.6676331-9.4367676,5.4328613-19.9990845,9.0807495-27.2882996
		c7.0969238-14.1700439,17.9114075-23.2386169,24.6395569-33.8918762
		c11.2893982-18.0639343,18.3814697-38.9047852,21.2052002-64.5154724
		c1.3833313-12.5988159,5.1899719-25.2201538,7.269104-41.4094543c1.835022-14.3250427,7.6683044-40.4051819,1.976532-79.9643707
		c-4.2155762-29.4264526,2.1634216-64.3066406-2.5003357-73.242218c-1.5822144,22.434021-6.1164551,47.8140488-3.7003784,88.3481293
		c0.9534912,16.7428741,1.1695251,33.905304-0.6873474,52.0601196
		c-1.4980774,14.4942017-7.0516968,28.8899994-10.3896484,42.7371216
		c-6.5864868,27.4541931-10.6019287,55.7106018-27.0323792,71.0397949c3.2755737-24.5290527,5.5-61.8363037,12.1220093-90.0438538
		c1.9900208-8.3238678,6.8258057-16.3040619,5.0531921-23.7330627
		c-18.1909485,34.0848236-18.3008423,90.2233887-31.362854,130.6022949
		c-5.2265625,2.1139221-6.9821777,13.0376282-11.5995483,13.0975342
		c3.0046387-27.8352051,15.0875244-53.4569397,19.6841431-81.6998596
		c4.2900696-26.463562,3.9347839-53.9397583,11.018219-76.9281006
		c4.1668091-13.5583191,10.3102722-25.4086609,15.3365784-39.2593994c1.1696472-3.2224274,5.1056824-9.1998596,1.0500183-12.3667908
		c-11.2845459,18.536499-21.7498169,37.903717-26.3634338,63.3123779
		c-4.5881042,25.0650024-8.1957397,52.4325562-12.0524902,79.9466248
		c-3.6870117,26.1686707-18.0126648,54.4115601-20.6228943,83.9779053
		c-41.9636536,80.7397461-32.8425446,116.4891663-29.5511169,154.0308533
		c1.1525574,12.9423828-5.453598,15.7930908-10.9498291,23.3184814c-3.6259918,4.8712769-4.2902069,10.3285522-9.3165131,12.4735718
		c5.7881622-22.4943848-1.1305237-44.913147,2.8446503-69.0082703c2.7884827-16.7588806,10.7801971-33.016571,15.4183044-49.3541565
		c4.8139038-16.9560242,11.2845154-34.189209,14.0912781-50.9944763
		c4.0154114-24.1072388,2.3794556-50.9278259,7.9111938-75.6357117
		c3.8823853-17.3375244,9.7071838-34.1360474,13.3319092-51.0609436c3.8432617-18.02005,7.3496094-35.3972473,9.6716919-52.1401215
		c2.1682739-15.8658905,0.6385803-29.0921631-4.7332764-41.5669708
		c20.5568848-26.8602295,25.2597656-61.3992462,39.9003601-90.2672501
		c6.6036377-13.0425034,17.2056885-25.6039505,26.3902893-36.8909569
		c10.5226746-12.9222374,27.7368469-48.1662254,32.2710876-53.5361977
		c-12.192749-0.9907581-29.7366028,33.0898247-43.2100525,49.5891647
		c-8.6926575,10.7113152-17.5793457,20.7505417-23.7398071,32.4183578
		c-13.3734131,25.3580322-17.308197,55.9590225-36.6248169,78.0743637
		c-7.9918213-19.0039215-16.2583008-35.61203-19.7462769-59.0038071
		c-1.5163269-10.0746002-0.1990051-21.0404434-3.2939453-32.1521912
		c-3.8773804-14.1816559-12.0462341-45.1928215-15.337677-66.4793091
		c-1.7947388,25.353157,2.2403107,46.2959747,6.016449,70.4373398c2.4599304,15.7479935,0.6079407,31.8572845,2.7091064,47.64991
		c1.0939026,8.0778275,6.479126,19.3628464,10.3761292,27.9883804c3.5637512,7.9252014,11.1073914,20.3023529,9.6448059,27.9547577
		c-1.1878967,6.2050934-8.5375061,12.4351807-10.4468994,17.0731659
		c-6.9906921,17.1050568-4.9115295,25.3891602-7.8941956,39.8406067
		c-5.3009644,25.7407074-15.1436462,51.138504-18.6694946,78.6702118
		c-1.3270569,10.5758057-1.5407104,20.171814-3.411087,31.6162415
		c-5.7527771,35.0064697-24.0364838,63.307373-32.5935059,92.3945312c0.2551575-5.8881531-3.118042-11.1092224-3.09729-16.5280762
		c0-6.7104187,4.6783752-7.0144348,2.4575806-20.0783386c-8.3641357-48.6100159,6.0591888-85.4472351,7.4643707-100.2185974
		c3.2145691-34.2373352,12.9192352-68.1451569,12.317276-98.0966797
		c-0.2136536-11.8393402-3.8786316-23.2611237-5.3192139-34.5968933
		c-2.8276215-23.0487213-1.6200867-69.840889,2.2024231-87.7169189
		c-4.9127808,0.9950104-12.6140594,48.5942841-12.4760437,67.4938202
		c0.1941528,24.9612274,9.6667938,48.5746613,5.7697754,73.5243835
		c-2.3391876,15.1850433-7.8574371,29.7347412-9.8255768,45.1238251
		c-1.5004425,11.7941895-1.0682678,23.9168396-3.0790405,36.3164978
		c-1.9472504,12.2685242-7.9355621,24.9319763-9.1637268,37.3915405
		c-1.7312317,17.4631958,1.6004639,35.532135,0.7629852,52.9422302
		c-15.8090057-18.6755066-13.1181488-44.6848755-18.3593445-75.2591248
		c-1.7373657-10.0172119-4.5257416-18.024292-5.1679535-27.6184692
		c-1.2281647-17.9527893,3.2535706-36.0325775,3.3524628-57.2903137c0.0403748-8.9844666-1.362442-18.914917-2.1022949-28.1342773
		c-1.4051819-17.1446838-1.6603394-33.945694-2.4026947-51.4974213c-0.2697906-6.5335083-0.5628204-14.2792969-5.1056824-19.0553131
		c-2.9983978,20.7217865,1.2270355,50.5445404-2.8238831,77.5402985
		c-1.3831787,8.8598022-3.4134521,17.4834747-5.9260406,25.2243805
		c-4.3658447-19.5912476,4.9310303-34.5811462,5.5939941-57.1329193c0.6642151-22.259491-3.391571-45.1330719-3.2181854-67.890625
		c0.097641-17.5078583-0.0195007-34.0054474,1.3075562-51.2098846c0.3881836-4.5983696,2.3000641-10.7460709-0.9755096-14.8524971
		c-4.8126373,15.0411453-7.8538055,29.3668251-9.7461853,44.3565788
		c-4.2680664,33.3492432,9.0258484,63.6713181,0.7618561,97.255455
		c-13.8776093-33.985199-26.0997543-77.6885681-34.2489777-118.4350433
		c-4.7552643-23.9638443-12.081749-38.3981628-25.3976669-54.0307617
		c-3.9397736-4.580616-7.4253693-12.0669975-13.9386978-12.6988325
		c2.2818069,13.1555185,17.8356018,24.4997921,21.5202179,38.1430016c5.1069412,19.0369339,4.581871,41.2097931,9.6693039,62.952713
		c2.146286,9.1504822,6.7050247,18.5072403,9.6277924,27.9304962c7.7390366,24.9013519,26.3719254,55.5268402,26.6673355,83.6543732
		c0.2149048,22.6781769-1.8703766,38.6391907,1.7909851,58.4741211
		c-4.4219666,34.2000732,12.5541992,65.5898132,15.0899048,95.9741516
		c-7.7011566-16.5818787-15.7711182-33.5708008-20.1992188-53.6094666
		c-3.2133026-14.795105-17.0725403-50.9699707-21.8070526-52.1805115
		c4.1911926,13.4899292,3.6832504,17.3594666,5.3009644,26.0313721c1.7153625,9.3371277,1.7556152,18.5759888,3.6638641,27.4988098
		c3.4305878,16.0671692,11.5395508,30.7780151,17.0554199,46.3843689
		c8.0297089,22.6538086,8.7915649,52.7078247,19.920929,74.6236572c6.1970825,12.1556396,12.3795471,23.7770691,8.4618835,41.865387
		c-16.3755646-20.0759583-32.3957214-37.3890381-44.9511566-62.5291748
		c-3.8176422-7.6792603-10.0989914-16.0605164-11.4993057-23.3917542c-1.3833084-6.979187,0.8948746-15.7303772,1.187912-23.257019
		c0.6054611-14.4360657,1.440567-29.4686279,1.3868103-42.6655884c-0.0988846-20.9983215-6.2605896-42.3268127-8.1907272-62.8331909
		c-0.99263-10.7905884-2.2024155-21.7143097-3.2914352-32.1124573c-0.9547577-9.3768921-0.2540359-21.4993896-8.1309738-27.8241119
		c4.0959244,15.9407654,2.0107727,26.3126526,2.6907425,39.0512543c0.6030807,10.8547058-0.9925156,21.8779297-0.5054474,32.6483765
		c1.0157623,22.1618652,7.9136887,43.2266541,7.2494736,65.0826416c-0.4076767,12.0853577-1.9485092,24.688446-1.7348557,37.9501038
		c-7.4826279-12.8002319-23.1952438-21.4012756-29.9588165-35.6958008
		c-12.8850403-27.059906-14.7175674-64.883606-21.6544991-98.8261719
		c-6.0060539-29.5199738-18.9106674-59.0905609-27.075264-87.5770264
		c-2.340313-8.1400909-2.5747204-16.1691589-3.9360275-24.4045258c-0.9748821-6.2190857-2.6327305-14.4544373-8.1907272-18.5162354
		c3.0826645,14.0703888,0.2922897,27.7948608,2.4379539,42.1802979
		c3.8982735,25.8054657,15.790123,50.2496185,22.0263367,76.3097534
		c6.4913712,27.0556183,6.081192,55.0127716,15.5379639,82.0434113c0.9149971-0.0201416,0.3876762,1.1592712,0,0
		c-10.2741318-12.0718689-18.1109352-26.6563416-26.5123138-40.8928833
		c-2.727993-4.5941162-3.0985432-11.5396729-8.5766544-13.8714905c3.277441,22.055603,30.4082127,78.3179932,33.5061264,82.6197205
		c4.9335251,6.8679199,13.1206665,11.6483154,17.1153412,19.1877136c4.5220947,8.500885,5.1093216,21.4609985,8.5790253,31.7535095
		c3.271904,9.903717,5.9261322,21.0112,10.2320862,29.5462341c6.6292648,13.1438904,22.2624969,22.1527405,16.7832565,40.9393921
		c-6.0628128-10.6863403-17.5426025-14.9684143-24.1316147-25.1473999
		c-10.0196838-15.5948486-17.6208115-33.5641174-26.4123039-50.9944763
		c-4.3462067-8.6137695-6.2965965-19.3403625-8.7518005-29.4619446
		c-3.6436157-14.8701477-8.031456-29.0938721-16.0012741-41.6174927
		c3.253685,15.9231262,6.5866356,41.4850769,10.3475151,55.1965637
		c4.4255943,16.3554382,14.1504021,33.5836182,21.266861,49.8419495
		c7.408226,16.8760071,13.9948044,33.9186707,24.5968018,46.1543274
		c9.9244614,11.5041504,23.6653061,18.1346741,30.2335663,32.6348877
		c6.570755,17.6611328,14.2096558,34.8496704,20.2163391,53.6436768c5.983429,18.7525635,8.61203,38.4365845,12.9619904,59.2915039
		c-31.8707809-13.0888672-92.6473846-109.9720459-112.2783356-126.6967773
		c-8.9665794-13.8031311-17.9314098-27.4878235-23.1768646-45.2989807C14.0925198,424.0881348,10.48666,405.3343811,0,392.236969
		c2.4710822,14.5783386,13.0200005,71.1838379,19.8019123,84.7159119
		c7.7786694,15.4354553,22.6910496,24.5150452,32.7662811,38.2022705
		c8.8713684,12.0828857,14.5825882,26.6611938,22.944313,39.1030884
		c20.8755798,17.1921997,30.0553131,43.7424316,49.7613373,58.9813232
		c10.4517746,8.0308228,47.3647385,36.8421021,73.9174271,119.0980225
		c4.3853455,13.5223389,11.2270203,23.8240967,13.3916779,36.8018188
		c-3.1779327,8.6205444-14.0973969,9.0014648-17.1349182,16.5683594c-1.383194,3.3500366-0.6433411,7.2104492-0.9558868,10.8010864
		c-10.3322601,6.8612671-4.8138885,24.5552979-6.9785614,38.3583984
		c-2.5527191,15.8273926-15.8858795,22.5737915-15.0080109,35.4002686
		c2.2829285-3.4697266,2.6907349-9.2053833,6.8611603-10.3310547c-0.5273132,13.4515991-6.1213226,24.9497681-6.1604462,37.5772095
		c-0.0402527,10.4468994,3.3903351,21.2442017,3.257309,32.1611938c-0.1196442,9.3213501-0.2746582,18.479126-3.7456207,26.1558838
		c14.1925354-15.9750366,2.9655151-46.6994019,5.0665588-68.0632935
		c1.3869324,11.5371704,4.8530273,26.1948853,4.7785034,40.8172607c-0.078125,15.3230591-6.2190857,31.2260742-1.4406891,43.432312
		c0.8351135-7.6853638,3.6028595-16.6477051,5.1056824-24.5198975c4.325592-23.0438232-3.5282135-45.1879272-3.5904694-64.0211182
		c-0.9120026,0-0.3846893-1.1658936,0,0c2.8506317,5.5855103,1.3306732,18.8331909,6.5534973,19.9636841
		c-0.5078125-10.6020508-5.83078-24.4796753-0.2929077-31.9220581c-1.4223175,16.7186279,1.5760803,29.581604,1.4210663,45.2099609
		c4.795517-13.9520874-1.2673035-30.1712646,1.4820709-44.234436c-1.16716-0.9437256-0.6397095-6.980957,0.6434631-7.725647
		c-0.1929016,2.6151123-0.4101868,5.1813354-0.6434631,7.725647c0.8363647,28.3754272,8.5790253,63.6975708,1.9888916,91.9178467
		c2.3403168-2.9606323,3.7602539-5.7356567,4.5024719-9.0014648c8.4618988-38.9834595-12.1048737-70.6039429,0.7203522-105.6904297
		c2.8677521-0.8546143,3.8786469-13.9972534,7.6022644-18.8331909c-0.6225739,3.7811279-12.590683,44.8339233-8.8500519,59.9654541
		c0.705719,2.8811646,3.5686035,14.4989624,6.8612976,16.0592651c1.1732788-12.7080688-4.0923004-35.3930054,2.4564514-46.46875
		c-1.3430634,21.1247559,5.8674164,41.3972168,2.8848877,63.1921387
		c-2.3184357,17.0371704-5.7307739,25.1047363-8.4386292,55.3602295c-0.488327,5.6953735,3.9347687,30.7561035,7.5033722,35.5516357
		c-4.5806122-32.3602295-0.5823212-73.524292,4.1705627-102.3342896c1.5212097,3.4710083,0.3527985,9.2420044,1.9288788,12.5921021
		c1.8545074-25.2195435-7.6572723-57.0706787,0.8998718-81.5552368c-1.4406891,5.9260864-2.2207947,13.3721924-2.4356995,20.0380859
		c-0.273407,9.7474365-0.6458282,20.1540527,3.0375366,25.8848267c0.4078064-11.6165161-0.4675598-33.6812744,3.9580383-46.3526001
		c0.2356567,25.0643921,9.6472931,50.5194092,1.1708984,74.7341919c13.7627258-23.3504028-0.7032166-53.84021,2.9434052-79.1000366
		c0.0171204,17.4315186,5.88591,31.930542,5.437851,50.989502c-0.6996002,28.1105347-17.4449768,60.0006714-6.961441,81.829895
		c-1.734848-17.7331543,11.911972-73.1691284,14.3500519-80.5003662c0.2881622,1.3649902,0.1160278,3.1999512,1.1684113,3.9360352
		c0.9351196-12.5480347,3.9934082-32.0012817,0.6225891-42.687561c-1.7910004-5.5415039-7.2519836-12.5529785-6.431488-21.4848022
		c4.9884186,7.605896,8.2042236,16.8076172,9.6875458,27.1801758c3.4697113,24.204895-8.9294434,58.5906372,0.9742584,85.5668945
		c0.0781403-17.3082275-2.1022797-43.6594238,5.2411957-61.7880859c4.4854889,2.8067627,6.5511322,5.8063965,8.5754242,13.8738403
		c2.3000488-7.9868164-3.1548157-11.8924561-5.1044464-19.0197754c-2.3184357-8.425293,1.0731354-15.2474365,1.3075409-24.7983398
		c0.195282-6.8221436-3.2183075-13.9581299-3.4904633-20.5043945c-0.2551575-6.9015503,2.223175-11.6177979-0.0598755-17.112915
		c-2.7835083-6.7868042-13.2928009-10.4519043-15.8456421-16.7197266
		c-6.4119873-24.1341553,8.5961609-40.5512085,17.7380066-58.5162354
		c10.4225311-20.6229248,19.5497589-41.6462402,31.5216217-62.1897583
		c5.6635132-9.7474365,13.5405579-18.4790039,18.1236877-28.1410522c3.132782-6.5474854,3.8421326-13.7677002,6.2935791-21.2844849
		c1.7373657-5.1509399,5.8114319-10.4433594,8.9307251-16.4084473c3.2364197-6.2850952,5.0714111-13.5370483,8.2053528-17.3131714
		c4.1083069-4.9554443,10.7216797-8.4215088,15.2596741-12.0475464c5.1154175-4.1350098,10.7619324-7.7561646,14.5209351-12.0866089
		c9.7474365-11.2625122,38.9518738-63.1944885,46.3930054-78.1672363
		c5.1105347-10.2466431,8.6522827-19.4532471,15.8468628-27.5604553
		c6.5280151-7.3666382,23.2160034-27.0171509,23.610321-35.5119019
		c-11.1734009,10.7198181-26.5367126,29.0407715-37.625824,41.4404297
		c-16.2009277,18.24646-17.0690308,28.6507263-25.5394287,44.7136536
		c-6.1873474,11.7728271-39.2886658,56.1001587-52.1907654,58.2451782
		c11.1696167-23.0389404,18.4387207-50.7990723,24.7543335-79.7604675
		c10.8595581-21.4811096,31.1686707-36.5729065,42.3738098-57.4272156
		c3.9177856-7.2513428,5.3985901-15.2052917,9.5740356-24.1743774c6.5242615-14.072876,18.4387207-25.0625916,26.5050659-38.397522
		c8.5411377-14.0930176,12.787323-30.1333923,19.710907-46.7084961
		c7.6193848-18.3258667,22.0463257-34.018219,30.7377319-52.8672791
		c8.3421326-18.2341919,10.5811768-37.191864,18.3057251-56.9381409
		C497.7677917,214.7008667,501.6647949,212.9855194,499.1778564,210.8313446z M410.8322144,182.3442688
		C411.9663696,179.361618,411.4390564,185.473938,410.8322144,182.3442688L410.8322144,182.3442688z M322.0471497,238.5865784
		c1.5199585-1.7727356,0.0976562,5.1373138,0.1770325,7.0076904
		C320.6638489,247.3693848,322.1668091,240.4770813,322.0471497,238.5865784z M318.1293945,267.0736694L318.1293945,267.0736694
		c0.0390015-0.115387,0.0390015-0.115387,0.057373-0.2039185c0.1196289-0.5518188,0.1586609-0.769104,0,0
		C318.168396,266.9381409,318.168396,266.9978943,318.1293945,267.0736694
		C317.5481873,269.7283936,317.888855,268.1681824,318.1293945,267.0736694z M147.5155792,200.4795837
		c-0.9571228-5.8375397,0.3332977-13.6138306-0.5628204-19.491745c-1.9142609,1.9503937-0.9192505,7.4491272-1.6969757,10.7710724
		c-3.5686188-5.4963684,0.5444489-13.3728027-1.285553-20.3224792c-1.8752594,1.7061005-0.8607483,6.9301758-1.5823364,9.9903412
		c-3.4659729-2.9051361-2.2964325-9.870697-3.2535706-15.0276489c-0.8594818,0.079895-0.7203369,1.374054-0.9376221,2.2714386
		c-3.4684601-3.3244476,1.1122742-6.4534912-1.2427979-11.7637024c-2.4380646-0.984024-1.3674316,2.3184357-1.8349915,3.7590027
		c-4.2864532-5.075058-1.8106232-9.0440979-3.2181854-15.0172729c-2.0827789-0.2924194,0.4870758,5.1173096-2.530838,3.7059937
		c-1.2282867-16.6568604-12.5151825-32.6887665-16.688118-51.041481
		c-4.8138962-20.9823227-2.6883621-49.7930679-13.0596313-67.0725098
		c-4.5416107-7.4863815-9.7070541-12.9424992-13.2732849-20.4489994c0.6434631-1.3338041,1.3430557,0,2.2233047,0.1776495
		c20.7010269,20.3463593,27.3474274,51.468792,34.1890945,83.4347153
		c6.8039169,31.8597794,14.7957382,63.5938034,26.8603592,89.9107132
		C148.8610077,187.8607635,149.2491913,195.7853241,147.5155792,200.4795837z M150.6166229,190.6082611
		C151.3564758,187.8978882,148.9965363,196.2797699,150.6166229,190.6082611L150.6166229,190.6082611z M60.8321762,399.9937744
		C61.2839012,400.5009766,60.5794678,399.6061096,60.8321762,399.9937744L60.8321762,399.9937744z M205.544632,781.0269775
		c-0.9925079,4.175354-4.1314392,5.7356567-5.2839661,9.7072144
		C197.9984894,788.7831421,201.9370117,781.342041,205.544632,781.0269775z M196.5554199,799.0445557
		c-1.0280151,5.84552-2.6676025,18.3190918-6.5059967,23.5846558
		C190.0090485,812.0626831,192.6217651,804.7313232,196.5554199,799.0445557z M181.0820923,892.6826172
		c-1.0328827-0.7398071-0.8594971-2.5748291-1.1329041-3.940918
		C182.5044098,888.1166382,180.8868103,891.1980591,181.0820923,892.6826172z M182.3701477,878.0249023
		c0.0548706-0.3552856,0.0745087-0.5494385,0.1147614-0.625061
		C182.3701477,877.9846802,181.5875397,881.4152222,182.3701477,878.0249023z M192.7377777,861.690979
		C193.8475647,858.7303467,193.3249817,864.8077393,192.7377777,861.690979L192.7377777,861.690979z M194.0245819,846.2493896
		C194.4921417,849.5249634,191.7817841,846.2493896,194.0245819,846.2493896
		c0.5457001-4.2070923,3.0191498-5.9969482,3.8383942-9.8230591
		C199.6978455,840.1328125,195.6031647,843.8735962,194.0245819,846.2493896z M198.7980957,834.1665039
		C199.4989471,831.1252441,197.8055878,838.6824951,198.7980957,834.1665039L198.7980957,834.1665039z M200.4389343,832.7173462
		c-2.1852875-1.0866699,1.0096436-2.6066284,0.3675537-4.5966187
		C202.8757629,829.015564,200.3413086,831.3609009,200.4389343,832.7173462z M201.9162598,824.3043213
		C202.3666992,824.8500366,201.6085968,823.9453735,201.9162598,824.3043213L201.9162598,824.3043213z M201.7636261,817.2831421
		c-3.9984131,19.4935913-17.2313232,36.3366089-18.4607391,58.4771118
		c-2.8056183-19.6450195,10.3700256-31.6522827,12.1048737-45.7289429
		c-4.3463287,1.789917-2.9032593,10.642334-7.7390289,11.8522339c3.5856018-8.3825073,6.178833-18.0090332,8.3641205-28.1421509
		c2.1450348,0-1.0157623,4.7125244,1.1097717,4.7516479c2.4185791-13.2525635,7.1164551-23.7434692,12.5724335-33.2515869
		C205.0563049,794.8692627,204.0441742,805.9815063,201.7636261,817.2831421z M368.085968,385.9207458
		c0.3724365-0.9351196,1.0769043-1.519928,2.3575745-1.3691711
		C370.0357361,385.4868164,369.3581543,386.0782776,368.085968,385.9207458z M371.4189148,372.9362793
		c-0.2306519,0-0.4870605,0-0.7178345-0.0396423c-0.026886,0.9351196-1.1525269,0.3942871,0,0
		c0.0793762-2.4380798,2.180542-2.4380798,1.9241333-5.2815857
		C374.6542358,369.0514832,371.9292297,371.7703552,371.4189148,372.9362793z M372.2967834,318.595459
		c4.1753235-19.8860474,14.4978333-35.848938,21.2308655-55.9431458
		c8.4521179-25.1248779,7.5571289-51.3424072,16.4268188-78.8185883c1.2720642,7.3288574-2.2036743,14.7754822-3.4306946,23.0597229
		c-1.808136,11.8228302-2.1194153,24.5595398-4.5172424,35.4387665
		c-2.7921143,12.5791779-7.0602112,26.1576233-10.7838135,38.8338318
		c-3.8335266,13.0248718-9.7071838,24.74646-12.8448486,36.3367615c-2.0473022,7.5192871-2.2341919,14.0332336-6.1213379,18.9771423
		c-0.0524902,3.2798462,3.1779175-0.2637329,3.6088562,1.830658c-1.3308105,8.7848206-0.15625,15.3695679-1.2904053,24.003479
		c-4.8310242,3.1272888-5.3633423,10.2522583-7.9467163,14.1700439
		C370.4666748,359.1075439,368.4180298,336.9743958,372.2967834,318.595459z M361.5348511,401.0064087
		C362.6470032,398.0055237,362.1427917,404.0824585,361.5348511,401.0064087L361.5348511,401.0064087z M361.5213318,392.4273987
		C362.6300049,389.4643555,362.1196594,395.5479431,361.5213318,392.4273987L361.5213318,392.4273987z M358.5205688,401.5137329
		c2.0302734,0.9357605-0.4736938,3.2736816-0.4078064,4.636261
		C355.9237061,405.0578308,359.1419067,403.5818787,358.5205688,401.5137329z M342.1034851,408.8432312
		c0.2307739-0.5854797,0.1770325-1.5205994,0.9047546-1.480957c0.0707397-0.4675598,0.1903992-0.9351196,0.8288574-0.6977234
		c0.1453857-2.3849487,1.8349915-2.8855286,2.6322327-4.492218c1.5603333,1.2124023-1.5553589,3.7474976-2.6322327,4.492218
		c-0.0940247,0.4211731-0.1916504,0.8955078-0.8288574,0.6977234
		C342.7810669,407.940979,342.8616943,408.882843,342.1034851,408.8432312
		C342.1034851,409.7783508,341.0169678,409.2326355,342.1034851,408.8432312z M337.9720459,422.5279236
		c0.4126892-0.9352417,1.0951538-1.5224609,2.3721924-1.4028015
		C340.2953796,422.5675659,339.4347534,422.8758545,337.9720459,422.5279236
		c-0.9217529,4.0093079-4.382843,4.8730469-5.9480591,8.0668335
		C330.3892822,426.9334106,335.3618164,423.9306335,337.9720459,422.5279236z M328.1099854,282.5823669
		C328.7704468,279.5197144,327.0783386,287.1191101,328.1099854,282.5823669L328.1099854,282.5823669z M299.331604,391.6100159
		c2.1488037,1.3319397-0.9046326,3.3598328-0.4431763,5.3809814c5.3180847-2.2585449,5.4645996-10.9127197,8.1286011-16.4884644
		c-2.8105164-0.0402527-3.151062,2.9631348-4.1534424,5.1410522c2.3184204-10.2051086,7.0211792-24.9563293,12.5920715-34.0181885
		c2.7481079-19.0369873,9.0465698-43.0581665,12.030365-62.0950928c-0.4480591-3.2401733,2.2427979,0.0201111,0,0
		c-1.1134033,15.9610291-2.7835083,37.0722046-6.0285645,53.2193909
		c-6.0018005,29.9936829-20.9513245,55.0629272-23.9706116,88.3901367c-2.9068909,2.1079102-1.6749573,4.603363-2.3403015,9.9043274
		c-0.158783,2.772644,2.571106-1.4405518,2.1632996,0.974884c0.7447205,13.0980225-0.3051758,18.826416-2.7432556,32.4317322
		c-2.1060181-0.2703857,1.0853882-5.2546997-1.0413818-5.5317383c-2.4380798,4.4060974-5.2521973,8.3439941-7.8099365,12.6304626
		c-0.9351196-6.546875,5.926178-10.9969788,8.1468506-16.4884644c-1.2464294-1.2123108-4.1668091,2.8433838-4.9115295,5.070282
		c-1.4223022-5.8485107,3.776123-14.07901,0.8240967-18.5956116c0.417572,3.2639465-2.2695312,0,0,0
		c0.0317688-8.581543,6.7904358-20.9805603,0.7362366-26.3951721
		C291.9514771,412.1956787,295.7496338,402.0215454,299.331604,391.6100159z M286.3928833,508.7967834
		c-1.6396179-0.2367859-0.0305176-3.2706909-0.3504333-4.6735229
		C289.4157715,504.2807922,285.5371399,506.4209595,286.3928833,508.7967834z M287.1107178,500.3032532
		c-2.0779114-2.342804,1.0023804-5.5391235,1.369812-7.6438904
		C291.0786133,492.6593628,288.0728455,499.0531006,287.1107178,500.3032532z M288.7333069,490.3201599
		c-1.8703613-2.6077271,0.8423767-6.9002991,2.1670532-8.3825073
		C292.927002,484.7090454,289.0299683,487.514679,288.7333069,490.3201599z M289.4157715,481.8254089
		c-1.8703613-2.3440857,1.9900208-4.9921875,2.1585388-7.6047668
		C294.0391541,477.263031,289.98349,479.5986023,289.4157715,481.8254089z M283.7375183,478.269043
		C281.5215759,477.9674988,284.7130127,475.115509,283.7375183,478.269043
		C284.6421204,478.269043,284.0976868,479.4423218,283.7375183,478.269043z M285.2403259,486.9677124
		c-0.0756226,1.285553-0.7580872,1.9106445-1.688324,2.1804199c0,0.9352417-1.117157,0.4346924,0,0
		c0.057373-1.0547485,0.5054321-1.6726074,0.9302368-2.2585449
		C284.7532654,486.9298401,285.0328064,486.9298401,285.2403259,486.9677124
		C284.7801514,482.7996521,287.6247864,486.1863708,285.2403259,486.9677124z M284.7801514,492.3883362
		c2.2780762,2.4893188-1.4235535,4.9909058-2.0657654,6.8222656
		C280.449707,496.6345215,284.1550598,494.1793213,284.7801514,492.3883362z M288.2852478,459.95047
		c-1.0939026,2.4552002-0.6604614-2.1077881-0.4602966-3.1601868
		C288.8883362,454.3790894,288.4635315,458.9750671,288.2852478,459.95047z M288.0154724,454.5383606
		C289.1007385,451.5357056,288.6405334,457.611908,288.0154724,454.5383606L288.0154724,454.5383606z M287.270752,462.9928589
		C287.7444153,463.5380554,287.000824,462.6364441,287.270752,462.9928589L287.270752,462.9928589z M301.3485107,332.6616821
		c2.1096497,0.8020935-0.6653442,2.4423218-0.333313,3.858551
		C299.2828369,336.1783752,300.860199,333.0957031,301.3485107,332.6616821z M295.3822021,358.6332092
		c1.6347046,0.4608154,0.2392883,4.1350708-0.4078064,4.6557617
		C292.9490051,362.3342285,295.4614563,360.0024109,295.3822021,358.6332092z M294.0526428,365.5408936
		c0.8546143-2.4045715,1.4894409,7.5125122-1.2819214,6.1299438
		C293.3921814,369.8400879,294.1723022,368.2335205,294.0526428,365.5408936z M291.4460449,396.4434204
		c0.5799561-2.4154358,4.0960388-4.6741333,4.9640503-5.8461609c0.026886-0.9351196,1.1305237-0.3900452,0,0
		c-1.9900208,10.2920227-7.4423828,20.2359619-8.7450562,32.7857971
		c-0.7044678,6.4339905,0.3504333,13.2177734-0.2172852,20.1961975
		c-2.1670227,25.8806152-14.0326233,50.520813-13.5053101,70.4856262c0.2125244,7.5217285,4.6759949,16.8381348-3.319458,21.5543823
		c-0.1331177-24.4369202-5.7087402-51.0273743-0.9083557-77.8162231
		C272.6397705,441.6313782,287.3903809,412.5107117,291.4460449,396.4434204z M261.4481506,457.922699
		c3.328064-19.2164612,10.0305786-34.3485107,18.9881592-46.7415466c0-0.9352417,1.1256714-0.3883057,0,0
		C274.8374329,427.6696167,267.3156738,441.7486267,261.4481506,457.922699z M272.4798889,354.5774231
		c-1.2099304,12.1421204-1.9497681,24.7922058-3.9006653,37.0325928
		c-4.5611267,28.5798645-18.9833069,60.4237671-23.5822906,83.6960144c-0.7227325,3.634491,0.5457001,5.9663086-2.7701263,6.0456848
		c-0.155014,1.3306885,0.412674,2.0278931,1.2880554,2.4222107c-3.6064911,0.8961182-4.990921,3.54422-2.0279083,6.0799255
		c-1.7153473-0.3504028-2.9251404-1.7604675-4.481842-0.3101501c0.5628204,1.3625488,1.1708984,2.7652283,3.5467224,2.5674438
		c-0.5835724,1.5603638-1.4235687,2.8458862-3.9190216,2.0279236c1.7556,3.550354,1.9900055,7.0590515,1.3075409,10.9975891
		c-0.2124023,1.3246765-1.8898773,1.4028015-2.4954529,2.8848877c-5.8089142,14.7749634,10.0977325,33.4138794-0.2746735,47.4416504
		c-1.4004211-4.4012451,3.2377014-9.2723999,0.4480743-13.9532471c-1.9277649-0.3894653-2.0437775,1.480896-2.4918365,2.8897095
		c-1.6591034,0.0317993-0.0963898-2.7737427-0.4309387-3.9042358c0.2941742-2.180542,3.0826721-0.5103149,4.0569153-3.550354
		c-0.1770172-3.7810059-3.4904633,0.7044678-3.6454773-1.0950317c1.8703766-18.1994629-3.4709778-33.1368408-0.2722931-49.7833252
		c1.440567-7.6377563,9.21875-15.3566895,11.2845154-27.1313782c1.6982269-9.4677734,2.4575806-22.8820801,6.7245331-25.9183655
		c9.3762512-32.5953979,17.5584717-60.4908752,17.3008118-98.2145081c2.2696838,1.0328674,1.9779053,0.5182495,3.8078918-0.4810181
		c-0.3283997-2.464325-1.910614-1.1659241-3.661377-1.0682678c4.9640503-7.2159119,2.6468811-10.3517151,3.8604126-19.1347046
		c0.4615479,4.2798157,2.3673096,2.5291138,3.7944946-0.4938049c0.1012878-2.8525085-2.2964172-1.6933594-2.7835999-2.5350952
		c1.9143677-5.9395447,4.0507812-11.5244141,5.2973328-18.2752075c1.0413818,0.9755249,1.7763672,1.0549011,2.9911499,0.2441711
		c1.0242615-2.8433838-1.6799927-2.344696-1.0951538-4.7802734c3.2719421-0.026886,3.5027161-5.0976868,2.8861389-7.5461426
		c-0.2575378-0.0201111-0.5274353-0.0201111-0.7667236-0.0598755c0.4469299,3.2865601-2.2390442,0,0,0
		c-0.2710266-2.828125,1.5419617-2.6907349,0.7667236,0.0598755c0.9486389-2.147522,6.4132385-7.7702942,1.5114441-9.2041016
		c0,0.9351196-1.1256409,0.3833008,0,0c-1.4760742-1.7996216,1.0145264-3.098053,0.5274658-6.1855774
		c1.0011292,0.3192749,1.3124084,1.2190247,2.9117432,1.0108643c0.1196594-1.3032837,0.2088013-2.5820923,0.3284302-3.8585205
		c-1.6177063-0.2832642-2.4160767,0.4364319-2.433197,2.1524353c-0.7008362-2.6309814,1.0498962-9.5210419,4.5830994-9.7761993
		c-0.4529114-2.2866821-1.0426331-0.9327545-2.9129944-0.9901276c0.8156128-2.9922791,4.6417236-2.3318176,4.9909058-5.857666
		c-0.288147-2.4643402-3.6601257,2.7457428-3.7810059,0.4986877c-0.327179-5.5182343,3.4135742-6.0744324,5.2435913-8.9201965
		c1.2501526,0.7801056-1.1879272,4.9822998,1.369812,1.6469727
		C290.8393555,276.8490906,276.4684143,314.3358765,272.4798889,354.5774231z M235.0554657,574.8811646
		c-1.2856598-0.6642456,0-1.4040527,0.195282-2.3001709C236.5375366,573.2414551,235.210495,573.9776611,235.0554657,574.8811646z
		 M232.3866119,552.932312c-1.8349915-0.2746582,0.0183716-2.6540527,0.2881622-3.1205444
		C234.8600616,550.5077515,231.8201599,551.4526367,232.3866119,552.932312z M231.5271149,562.949585
		c-1.2672882-0.6653442,0.0171356-1.4052124,0.2344055-2.3001099
		C233.0300751,561.3099365,231.7615204,562.0546875,231.5271149,562.949585z M222.600174,535.8500366
		c-1.0926514,4.0959473-4.7785187,12.9472656-9.6497955,16.3779297c4.9714203-15.3621826,0.6250763-24.6346436,1.2465363-41.0858765
		c0.4296875-12.2867737-2.628479-26.946991-1.4809418-35.9086914c1.6969757-12.9785156,10.2516174-22.2637634,11.9901123-34.8539429
		c3.2353058,45.5358582,6.081192,95.0102539,2.180542,142.4495239c-5.534256,4.9115601-8.8695679,12.4772949-13.5858307,18.4033203
		c0.2551575-14.5831909-3.3329468-28.4205322,1.4455719-43.4287109
		C217.2967072,549.6921387,225.0552521,543.5756836,222.600174,535.8500366z M198.5063171,572.1072998
		c0.9168701-0.0402832,0.7800903-1.3209229,0.9571228-2.2561646c1.2099152-0.1110229,1.2099152,0.859436,2.1621552,0.9742432
		c-1.1695251,38.6734619,3.179184,72.4694824,4.0740509,111.4567261
		C196.1304932,651.871521,201.393692,608.4036865,198.5063171,572.1072998z M205.4273682,685.3988647
		C205.8742981,685.9519653,205.1148224,685.0484619,205.4273682,685.3988647L205.4273682,685.3988647z M180.6145325,641.5405273
		c-0.8399963-4.6369019-5.165451-7.9160767-7.1958466-12.1940308
		c-15.0837708-32.1295776-16.4889679-76.2541504-30.4642181-109.630249
		c3.1790466,2.2208252,6.1018219,4.6368408,10.7996979,5.4915161c7.3496094,22.7336426,8.9074554,46.9788818,17.4034729,68.9324951
		c2.3404388,6.12146,6.3742218,11.4968872,8.2287292,17.734375c4.4793549,15.1668091,5.2814636,30.6803589,9.6472931,45.8081665
		c4.2106934,14.8127441,5.1068115,30.5217285,11.1672516,45.1794434c0.8973694,0,0.3527985,1.1695557,0,0
		c-4.1509399-10.642334-9.9793396-20.4691162-13.8581085-31.3776245
		c-1.8496246-5.2202759-4.9676666-12.4417725-5.9211731-18.3275757
		C179.8344269,649.5761719,181.3543854,645.28125,180.6145325,641.5405273z M166.5196381,622.5559692
		C164.2609558,622.2459106,167.4767609,619.4402466,166.5196381,622.5559692
		C167.4170074,622.5559692,166.8516846,623.7304688,166.5196381,622.5559692z M155.0580902,509.7320251
		c-7.0944519-4.5159912-7.0944519-14.3403015-10.1527405-21.7485352
		c-3.0447845-7.4095154-7.8184204-14.7779846-8.5790253-23.2392578c-2.1426544-1.053009,1.1684113-3.9781494,0,0
		C142.9153442,479.4813232,152.1145782,491.8413696,155.0580902,509.7320251z M180.4753876,510.8649292
		c1.0742645,7.2507324,0.3540497,14.5820923,0.9950104,23.4345093
		C176.8115234,529.6223145,180.3422394,515.8204956,180.4753876,510.8649292z M183.5201721,536.7949219
		c-0.9571381-2.0302734-1.0547638-4.800415-0.8203583-7.8366699
		C185.2355194,529.5026855,183.3431396,534.059021,183.5201721,536.7949219z M184.8802338,520.5720825
		c1.4235535,5.6514282,1.4430695,12.5516968,2.1852875,18.7976685
		C183.9853516,535.194458,184.8057251,527.5529175,184.8802338,520.5720825z M182.5227814,521.9015503
		C185.7202148,522.4827271,181.3751373,526.3431396,182.5227814,521.9015503L182.5227814,521.9015503z M183.5372925,518.9007568
		c-3.2548065,0.9351196,0.2149048-3.9751587-1.9095001-4.015564
		C183.0904846,512.6584473,184.2002563,516.8313599,183.5372925,518.9007568z M188.7418671,607.9385986
		c-9.668045-23.1598511-19.201828-46.4296265-22.9046936-74.8538208
		C181.2774963,551.1413574,183.595932,580.7681885,188.7418671,607.9385986z M202.5621033,559.9938965
		c-6.3937378-8.741394-14.015625-19.9282837-11.3651581-34.3112183
		C196.4002838,535.8903198,205.3273468,542.7918701,202.5621033,559.9938965z M199.0130005,530.9433594
		C200.1459045,527.9827271,199.618576,534.059021,199.0130005,530.9433594L199.0130005,530.9433594z M200.9431305,534.9550171
		C202.0566559,531.9945068,201.5292206,538.1147461,200.9431305,534.9550171L200.9431305,534.9550171z M189.7538757,649.2208862
		c-4.5183563-12.3928833-4.5977325-25.9202271-8.0515747-37.932312
		c-3.8775177-13.5626221-11.3992767-25.5344238-14.6967316-39.2215576
		c-3.5247192-14.8078613-4.7920074-32.041687-10.3676453-45.8839111c1.9900208-1.6713257,3.6259918,2.9655151,5.7307739,3.5552368
		C165.8176727,574.5709839,192.1895905,599.1262817,189.7538757,649.2208862z M208.4502716,561.1987915
		c1.0303802,9.0772705-1.0755157,20.9746094,0.5066833,29.5866089
		C205.5043793,583.8045044,207.2769928,571.0561523,208.4502716,561.1987915z M226.0502625,424.1277771
		C226.5386963,424.6687317,225.7780914,423.8109741,226.0502625,424.1277771L226.0502625,424.1277771z M263.4332886,363.9940491
		c-3.9580383,37.0123596-17.0934296,68.2409363-25.6125793,98.3408508
		c-4.8712769-12.3283997-3.9177704-29.869751-5.9211578-44.7601318
		c9.4921417-22.9619751,18.9441681-51.4619141,22.7068024-82.2406311
		c1.9840088-16.1313171,4.4793396-31.2328796,8.3971252-46.0009766c3.7493896-14.159668,9.9769592-27.6184692,12.4552917-41.0664062
		c3.35495-18.0016632,0.8594971-35.0687103,10.7168274-46.6083832c0.6470642-0.0861359,0.7055969,0.3527985,0.7055969,0.8289795
		c4.2853088,24.608429-2.1767883,52.3684082-8.9489746,78.6390839
		c-3.7772522,14.7377319-10.2832336,29.5682068-12.8006897,44.8973999
		C263.0438538,338.8648987,264.7372131,351.6253967,263.4332886,363.9940491z M227.0062561,421.8630981
		c-0.7410889-8.8513184,5.513382-16.5683594,6.7037811-25.9183655c1.9082642,0.2307739,0.8203583,3.1138,2.7103577,3.3439636
		C233.0300751,406.507019,231.2120819,415.6268921,227.0062561,421.8630981z M295.9095154,237.3900452
		c-1.0327454-1.3185577-3.0057678-0.8002319-3.8078918,0.4963074c-2.4856873-5.0769196,2.2293091-8.6363983,3.9800415-11.3620148
		C299.2205811,227.9955292,295.5811157,232.4564972,295.9095154,237.3900452z M296.7470093,200.9185181
		C296.4772339,200.5596008,297.2121887,201.4544678,296.7470093,200.9185181L296.7470093,200.9185181z M296.9777832,207.1479797
		c3.7273865,0.6604614-0.6433105,2.9142609-0.4126587,4.6386261
		C294.3895569,210.6560669,297.6199951,209.2044983,296.9777832,207.1479797z M296.9777832,215.6933746
		c2.9117737,1.97052-0.7764587,4.3573303-1.3258057,6.9016724
		C293.4849548,220.4121399,296.8043823,217.8189087,296.9777832,215.6933746z M293.0771484,226.2801819
		c-0.9888916-0.2924194-0.4211731-1.9875183-0.4614563-3.1400604
		C294.7167358,223.9691162,293.3566895,224.3500366,293.0771484,226.2801819z M293.3921814,213.8608856
		C295.7496338,216.9613037,291.0517578,217.6437683,293.3921814,213.8608856L293.3921814,213.8608856z M286.2818604,165.1227112
		C286.7432861,165.6586609,285.9850769,164.7832794,286.2818604,165.1227112L286.2818604,165.1227112z M285.3868713,166.6139069
		C285.8484192,167.1591034,285.1121826,166.261734,285.3868713,166.6139069L285.3868713,166.6139069z M241.0388947,371.6311035
		c-1.2476654,0.4743042-0.1745148,3.807373-2.5149536,2.9252625
		C238.4860535,372.5132141,239.0488739,371.2361755,241.0388947,371.6311035z M236.0126038,377.4596252
		c2.1011505-1.7911072,2.3758087,2.1077881,4.286438,2.665741c1.3844452-1.6133423,4.7955322-13.5119629,0.2527924-11.641571
		c3.802887-5.3077087,1.8117371-16.1204224,4.3254547-24.5351868c3.0631714-0.0268555-0.252655,1.0462646,0.4700623,3.1205444
		c2.9056396,0.1397705,3.0009003-3.1473999,3.5075989-5.9529724c-1.2868042-0.1440735-2.3380585,0-3.0375366,0.5542603
		c0,0.9352417-1.1354065,0.401062,0,0c-0.1196442-0.6140747,0.0927734-1.5291138-0.6250763-1.5938416
		c2.0876465-12.6231384,2.7481232-25.1687622,4.7161255-37.7589417c1.6177216-10.5159302,5.4597321-19.394104,8.4947662-29.665863
		c7.269104-24.2891541,8.5584106-50.2540131,16.6734924-72.6086426c1.880127-1.9307556,1.7994995,2.1914215,3.6967468,0.2814178
		c-1.090271-2.9123993-3.466095-7.2140961,2.7885132-6.0103149c-0.111145-2.0388947-2.0303955-2.4979553-1.8533936-4.8096466
		c0.958374-0.8241119,2.7177429-0.6513367,4.5172424-0.4364319c0.2966614-2.3868256-2.1365356-2.3868256-0.9840088-5.5048676
		c1.9228821-1.4913177,1.6713562-0.9950104,4.5159912-0.4609375c0.3283997-2.4069519-1.7727356-2.7059784-1.0278931-5.4963684
		c0.9351196-0.5957031,2.07901-0.8753662,3.7943726-0.4961853c-0.9083557-2.0077667-1.5565796-3.1669312-0.3063965-5.4787292
		c1.964386-1.4710846,1.715332-0.974884,4.5562134-0.4186859c-2.1584167-4.1021729-0.2477722-7.3686218,4.3707275-7.424118
		c0.3858032-2.0474091-2.8458862-0.8601227-1.9716492-3.266449c1.5419617-2.3673096,2.517334-2.8635101,4.7417603-2.7683716
		c0.7582397-2.348938-1.9362488-1.626709-1.1524048-3.9756622c2.3000793-0.800354,3.7016296,0.653717,4.716156-2.7482452
		c0.1549988-2.730484-2.5882263,1.4517059-2.1804199-0.9546204c-0.138031-1.872879,1.5028076-1.5518341,1.1036377-3.803009
		c2.0302734-1.2368011,2.2073059,0.5158234,4.5074768-0.4194336c1.7372437-3.6833649-2.3001709-2.2714386-1.8301086-4.7931519
		c1.6969604-1.9595032,1.5419617-2.1719055,4.6222534-1.2171631c0.9486084-3.1889191,0.7178345-3.033905-1.1207886-4.7381287
		c8.7401733-24.209259,16.3193054-46.3709869,29.554718-65.4256668
		c6.0591736-8.7518044,13.8202209-16.8608932,20.1589661-25.6614532
		c8.8684387-12.3172798,14.8078613-27.826622,26.2120056-34.5591431
		c-9.3518677,14.7328558-14.3292847,34.8228035-28.4595642,43.7009964
		c-0.2307739,6.9278069-8.5949097,6.3050995-7.0920715,12.6810837c-2.3000793,1.070137-5.9664307,1.4315643-4.1704407,5.1344376
		c-1.4627075,1.3545532-2.1060486-1.0921478-3.803009,0.4986877c0.2880249,2.9520264-1.228302,3.603363-1.2453003,6.1104507
		c-1.8398743,0.1837769-1.5212097-1.5315781-3.6699829-1.0530167c0.216156,3.7034912-1.3038025,5.2545776-1.4759521,8.4215088
		c-2.8678894-0.5365753-2.6199951-1.0327682-4.5392456,0.4590607c-0.0440063,1.6750946,1.7287292,1.7904892,3.6076355,1.8106155
		c-14.6882324,20.5837708-15.6991272,47.5233841-27.6659851,69.4417038
		c-9.122345,16.7233734-20.9916992,30.3195801-27.9908752,46.850174
		c-3.9800415,9.4916534-4.1314392,22.2502441-9.1797485,28.8570099c-0.2917786,1.6976013,0.4078064,2.5130768,2.0473938,2.4929504
		c-1.7323608,2.8880157-2.5564575,6.3094788-0.7837219,9.2792511c-0.7984924,1.569458-2.2781677,2.331192-3.3329468,3.6168671
		c0.1012573,1.1011353,1.5822144,1.021759,2.1266479,1.7353516c-0.3491516,1.5780945-3.2975464-0.0377502-3.86026,1.2545471
		c-0.7936096,2.8495026,2.6956177,1.8947601,2.628479,4.1062927c0.3674316,2.3868256-1.4577026,2.1432953-1.1256409,4.5496063
		c-1.2319336-0.0774841-2.4783325-0.17276-3.71875-0.2722778c-1.312439,4.89328,2.9251404,0.7514648,2.6688538,4.1021729
		c-1.1708984,4.4543457-2.9483948-3.5063477-5.226593-0.399292c-0.1549988,3.0033875,2.76651,3.264679,3.2755737,5.693512
		c-14.8726196,37.8237-11.7923279,92.8292236-28.2227936,129.2458801
		c-1.6798401-3.7077637-2.6333466-8.1534729-3.4135742-12.6700745c2.2036591,0.6183167,1.1135254,4.2461853,3.3159332,4.9108887
		C239.6165771,385.4868164,233.1630859,382.8002014,236.0126038,377.4596252z M229.0487823,397.9261169
		c0.9351349,2.297699,1.075531,5.7351379,0.0622559,7.8031921
		C227.2589264,404.827179,227.648468,399.5260925,229.0487823,397.9261169z M225.2103882,407.7504578
		c2.2829437,1.5603333,1.5822296,3.5899658,0.9753876,6.3162231
		C224.5108032,413.1314087,224.9186096,410.405304,225.2103882,407.7504578z M224.3911591,426.3461914
		c1.4064331,0.9753723,0.3320465,6.0389404-0.6030731,6.9741821
		C222.055603,431.9645691,223.9259796,427.8691406,224.3911591,426.3461914z M222.3071289,415.3162231
		C225.6180725,419.097229,221.5270233,422.7183228,222.3071289,415.3162231L222.3071289,415.3162231z M220.7651672,433.8721924
		c1.1696625,1.7531128,0.9975128,3.6235046,0.2746735,5.4542542
		C219.3819885,438.865509,221.0594635,435.4660339,220.7651672,433.8721924z M215.3664551,444.3569946
		c2.0083923,0.8954773-0.5054474,3.2401733-0.3881836,4.5966187
		C212.7758484,447.8279419,216.0135345,446.3451233,215.3664551,444.3569946z M208.3098755,491.9915161
		C209.445282,488.9918518,208.9349518,495.114563,208.3098755,491.9915161L208.3098755,491.9915161z M208.4502716,490.4789429
		c-1.0755157-0.7447205-1.4430695-2.0681458-1.1902924-4.0166626
		C209.8530884,485.875061,208.2353668,488.9577332,208.4502716,490.4789429z M206.5775146,494.9570312
		C208.7396851,496.0900574,205.3871002,499.0127258,206.5775146,494.9570312
		C204.3738403,493.9022827,207.7080383,490.9391174,206.5775146,494.9570312z M205.3871002,482.4443665
		c-0.5078125-3.1607971,1.4430695-3.3511963,2.6127319-4.4768677
		C209.2096252,478.7036133,207.6494141,483.1829529,205.3871002,482.4443665z M208.956955,475.7405701
		c-3.5295868-0.4345398,0.5236969-3.0430298-0.2917786-5.4981079
		C209.6174316,470.9468079,209.5380402,476.0507507,208.956955,475.7405701z M205.7997894,468.4849854
		c0.0745087-3.6211243,1.9472656-5.0244141,2.2182922-8.3776245
		C210.5526733,460.5352783,209.8920898,470.5525208,205.7997894,468.4849854z M204.7461395,472.2702332
		C206.8473053,469.3865967,205.6202698,474.9251099,204.7461395,472.2702332L204.7461395,472.2702332z M205.8546753,459.1324768
		c0.3724213-4.6337585,0.5458221-9.4671631,1.8349915-13.0645142
		C209.8310852,449.4277954,210.0654907,457.6522827,205.8546753,459.1324768z M190.6891327,487.5549316
		C191.6096344,487.514679,191.0614319,488.7282104,190.6891327,487.5549316
		C189.7942657,487.5549316,190.3192139,486.3829041,190.6891327,487.5549316z M189.8540192,497.6100159
		c-1.4235687,1.2830505-2.943512-0.4675598-2.7884979-2.5357056c-0.4699402-0.1172791-0.8569946-0.236908-0.7019653-0.8546143
		c-0.8961182,0.0390015-0.3699341-1.1732788,0,0c0.4480591,0.0768738,0.8791199,0.1965332,0.7019653,0.8546143
		C189.0336609,494.9570312,190.2423248,495.5821228,189.8540192,497.6100159z M189.9492798,478.9405212
		c-0.9913788-29.986908-2.4930878-55.2070618-6.5682526-82.140564c5.9651794,5.031189,8.3031158,19.6088867,10.855957,31.146698
		c2.6504822,11.9316101,5.109314,24.7922058,5.0690613,37.7328186
		C195.6031647,469.3865967,192.9318085,474.3707886,189.9492798,478.9405212z M183.7729492,480.8121338
		c-0.2527771-0.0415039-0.4884338-0.0415039-0.7802277-0.0806274c0.4651947,3.313446-2.2036743,0,0,0
		c0.0977631-3.2377014,1.187912-5.4254761,2.1634216-7.6035156
		C186.7359772,474.8450928,183.302887,477.6512146,183.7729492,480.8121338z M181.0625916,486.0324707
		c-1.8557587-0.2295227,0-2.6126099,0.2319031-3.0801697C183.5201721,483.6176453,180.4972687,484.5527649,181.0625916,486.0324707z
		 M180.457016,458.0002136c-2.1853027-0.9352722-1.109787-4.7541504-1.6749878-7.0987244
		c3.4477234,2.6621094,3.5478516-5.1014404,5.1239471-7.3997498
		C185.5834503,448.3730164,180.8476868,452.7785034,180.457016,458.0002136z M179.347229,479.6791077
		C180.4972687,476.716095,179.9491882,482.7996521,179.347229,479.6791077L179.347229,479.6791077z M180.0492096,462.6364441
		C180.4972687,463.190155,179.7550354,462.295166,180.0492096,462.6364441L180.0492096,462.6364441z M184.5128021,454.4584656
		c2.4160767,0.4212036,0.7801056,4.5166016,0.8948669,7.0523376
		C181.2176056,461.0828552,185.1732635,457.922699,184.5128021,454.4584656z M184.5323029,462.9928589
		c1.7361145,4.4060974-2.2024231,9.1998596-2.6896057,13.8026123
		C179.934433,472.1194763,184.9401093,468.6425171,184.5323029,462.9928589z M200.0482635,483.5773926
		c-2.8054962,1.1720276-3.4928436,4.872406-6.4913635,5.7282715c2.0462646-2.14505-1.1316528-4.2864685-0.1171417-7.7561646
		c2.7676239-0.5469666,0.3320465,3.5099487,2.7078552,3.313446c2.4954681-1.1281738,1.2281647-6.5144958-0.797226-7.8368225
		c0.9925079-1.910614,2.1450348-3.6302185,3.4087067-5.1838074
		C200.1459045,474.9251099,200.0262604,479.3250732,200.0482635,483.5773926z M201.4693298,448.7234497
		c1.5224609-2.1811523,2.5748444,1.947876,1.9095001,4.0154114
		C201.9370117,452.1137695,203.2041931,449.1109924,201.4693298,448.7234497z M193.3995056,490.8658752
		c-0.4676971,1.1256409-1.2624207,1.8703613-1.7348633,2.9631348
		C190.0494232,493.4017029,191.0614319,489.2287598,193.3995056,490.8658752z M199.6380768,488.2130127
		c1.775116,6.5511169,1.4833374,14.9348755,1.8105011,22.7312927c-3.9531555-2.4954529-7.0955811-5.6489868-9.6839294-9.3164978
		C193.2651062,495.8128967,197.0657349,492.7766113,199.6380768,488.2130127z M206.1477051,446.739563
		c-3.411087-1.6842346-1.1682739-7.1757202,0.1196442-10.1014709
		C208.7799377,438.468689,206.8473053,443.8894348,206.1477051,446.739563z M200.708725,440.1089172
		c1.0328979-3.8651428,2.6908569-6.9386902,3.8982697-10.6086731
		C206.4004974,431.9243164,205.3492279,440.4990845,200.708725,440.1089172z M200.4389343,434.6504211
		c-1.5028229-3.2798157,1.5175934-8.3439941,2.4723358-11.497406
		C205.7191467,426.6568604,201.2935638,430.6343994,200.4389343,434.6504211z M198.8383484,426.7362366
		c-3.0032654-3.9776611,0.7618561-6.5066223,1.7348633-11.5371704
		C203.6315002,418.2017212,200.1862793,423.8909912,198.8383484,426.7362366z M169.2482452,174.1356659
		C170.3824005,171.1525116,169.8549652,177.2453308,169.2482452,174.1356659L169.2482452,174.1356659z M169.7170715,177.2849731
		c0.4663086,23.0792236,5.9664154,46.488739,2.4563293,68.6017151c-1.8312531,0.1886444-1.5028381-1.5267029-3.6662445-1.0505219
		c-0.3674316,3.0894165,2.7884979,4.6587524-1.2269135,5.3614807c0.3125305,2.3665619,3.8981476,1.8104858,4.1899261,4.1973114
		c-0.6799622,4.035553-3.1571655-3.3219452-5.2203217-0.3993073c-0.1575165,3.3623199,4.0324249,3.7255096,4.8907776,4.2620697
		c-0.3101654,3.5857239-0.6250763,7.2001038-0.9376221,10.786438c1.6396027,0.7397461-0.0757599,4.3853455,0.2331543,6.2581177
		c-1.9290009-0.2039185-0.5054321-3.3708496-3.5466003-2.5950012c-0.6030731,4.2016907,1.7372437,4.2016907,3.3536987,4.8933105
		c-2.9837646,2.1962891-3.1766663,5.9370422,0.076889,7.8074036c-2.8274994,3.2444458-1.5383301,11.9119873,1.8129883,14.1437988
		c-0.1745148,1.7775879-0.3284149,3.5948486-0.4675598,5.3876953c5.0104218,11.7453308,5.4779968,25.2200317,6.4729919,38.5879517
		c1.6958618,22.111084,11.0122375,40.1286316,18.4791107,56.6171265c2.628479,1.9502563,2.3000641,6.519989,3.6637421,9.5935364
		c-4.6392365,0.9351196,0.3321686,8.3439941-4.5012207,9.0020752c-0.3724365-5.214325,2.6504669-10.0544739,1.8507385-13.0511169
		c-2.790863,0-0.8399811,5.7692566-4.1911774,5.1037903c-0.3699341-3.002655-0.4480591-6.2758484,0.1367645-10.0947266
		c-1.3246765-2.885498-0.9388733,3.3110657-3.1950531,2.1079102c-7.7036591-18.4852295-15.0301514-37.2651367-19.8256683-58.2922058
		c1.0718994-0.3943176,0.3491669-2.9630127,1.754364-2.9764404c0.3686676-1.7507324-2.0474091-1.0395813-2.0474091-2.4753113
		c-0.7007141-27.6116943-9.6265411-52.09375-8.1492157-80.7090759
		C163.3417053,234.2207489,168.6047974,205.3129883,169.7170715,177.2849731z M177.1045532,382.3326416
		c0.272171-1.6793518-2.6114655-0.546936-3.6638641-1.0481262c-1.2891693-2.4753418,1.285553-3.9622803-0.195282-6.2428284
		c-0.6250763,0.0994873-0.8399811,0.6983337-1.579834,0.6672058c-1.5773315,0.0707397,0.8973694,2.1255188-0.9950104,3.033783
		c-1.8301086-2.2182922-1.8508759-5.9992981-2.2182922-9.5209045c1.4979553,0.5585632,1.264801,2.4490662,2.9410248,1.0127563
		c0.4493103-1.8502502-1.2099152-1.7904968-0.4480591-3.9355164c3.4709625,7.2024536,7.6597748,13.7757263,8.5546417,23.2055969
		c-3.816391-2.0681458-3.7590027,7.2159729-6.081192,9.6644287c4.2510681,0.0800171,4.5453644-4.6734924,5.9285431-8.0979614
		c1.4602051,1.5938416,1.0341492,4.7936401,1.6554718,7.1255798c-2.6309662-2.8062439-2.0840302,3.7449951-5.47435,2.692627
		c2.4734497,2.1473999,0.4078064,5.9656677-0.0402679,9.3163757c0.4664459,2.6083374,1.3636932,0.4675598,3.6442413,1.0951233
		c-0.9131165,3.3903503-2.7688599,5.6886597-3.0630341,9.8243408c-2.0437775-9.4367676-5.8065338-23.1990051-2.4905853-32.8260498
		c1.6175995-1.1660156,0.9546356,0.1507874,3.0179138,0.1903992
		C175.9166412,386.3090515,176.0692902,384.4404297,177.1045532,382.3326416z M173.1855316,384.4008179
		c-0.5469513,1.8703613-0.3870544,4.6429749-2.6297302,4.4433289c-0.2527771-2.8433838-0.293045-5.9260559-0.7801056-8.61203
		C171.2772675,381.2845154,172.3859253,382.6805725,173.1855316,384.4008179z M166.324234,341.0966492
		c2.2635498,2.6987,1.872879,7.1249084-0.0743866,10.0679321
		C164.6492615,348.3608398,167.9443207,344.5804443,166.324234,341.0966492z M166.4048767,340.3140564
		C166.1313324,339.9569702,166.8724365,340.852478,166.4048767,340.3140564L166.4048767,340.3140564z M166.324234,358.9743958
		c1.4028168,0.4364319,1.1904144,2.3050537,3.6064911,1.8307495c-0.2136536,2.3042908-0.390686,4.6227417-0.5835876,6.9472961
		C166.5793915,366.402771,167.184967,362.0436707,166.324234,358.9743958
		C164.1218109,358.6332092,167.3192444,355.8007202,166.324234,358.9743958z M169.3873901,358.415802
		c-1.3856812-0.7580872-1.7556-3.5502319-0.3527985-4.6959839
		C170.6705627,353.9567261,169.0528564,357.0393677,169.3873901,358.415802z M180.1273346,399.6836243
		c2.5333405,0.8948669,1.2478027,8.5345154-0.7801056,9.2322388
		C176.4635925,408.2973938,180.7097931,403.0366821,180.1273346,399.6836243z M165.8774261,337.929718
		C166.9897003,334.9666748,166.4817505,341.056366,165.8774261,337.929718L165.8774261,337.929718z M155.8773346,260.9833374
		c0.8753662,0.1971436,0.7203369,1.2965393,0.5652008,2.371582c2.2256622,0.3191528-0.9925079,3.1669006,0,0
		C155.5647888,263.1753845,155.7223053,262.0759888,155.8773346,260.9833374
		C154.9824524,261.003479,155.5074005,259.8246765,155.8773346,260.9833374z M154.8249359,273.3433838
		c0.9522552,0.6024475,1.2453003,1.7549744,1.2281647,3.206665c1.4406891,0.6427307,1.8117523,2.2140503,1.9095154,4.0245361
		c-1.4223175-0.6335754-1.8130035-2.2140198-1.9095154-4.0245361
		C154.7675476,276.2576294,154.4940186,275.0983582,154.8249359,273.3433838
		c-0.8948669-0.3815613-1.4223175-1.0926514-1.266037-2.4270935
		C154.4745178,271.2953491,154.9617004,272.0065613,154.8249359,273.3433838z M153.9690704,256.9588013
		C154.4342651,257.4971313,153.6944122,256.5979919,153.9690704,256.9588013L153.9690704,256.9588013z M153.4026184,263.9268494
		C153.0875854,263.547821,153.8494263,264.4432983,153.4026184,263.9268494L153.4026184,263.9268494z M152.231842,259.9328308
		c0.5677032,0.2153931,0.8021088,0.7117004,0.6030731,1.5870667c0.9192505,0,0.3722992,1.1525574,0,0
		C152.2720947,261.3245239,152.0389404,260.8197021,152.231842,259.9328308
		C151.2965851,259.9328308,151.8435364,258.7741699,152.231842,259.9328308z M152.231842,251.1723938
		c0,0.0556335-0.0171356,0.135025-0.04039,0.2326508c-0.2319031,1.0505219-0.5798187,2.6309814,0,0
		c0-0.0397491,0-0.0397491,0-0.0397491C152.2147064,251.2676544,152.231842,251.2676544,152.231842,251.1723938
		c0.0597534-0.1885223,0.0792542-0.283783,0.1000061-0.3631744c0.0378876-0.155014,0.0378876-0.155014,0,0
		C152.3110962,250.8886108,152.2915955,251.0039978,152.231842,251.1723938z M151.6470032,266.869751
		c0.8997498,0.4034424,1.4051971,1.1237793,1.2880554,2.4380798c0.9143677,0,0.3515472,1.1519165,0,0
		C152.0389404,268.9482727,151.4919891,268.2059326,151.6470032,266.869751
		C150.7313843,266.9008789,151.2563324,265.7214661,151.6470032,266.869751z M161.7838745,297.9713135
		c-4.0556641-6.954071-6.9589386-14.8548584-10.9120941-21.8021851
		C155.5647888,279.6192322,159.8732452,289.6279297,161.7838745,297.9713135z M164.9215393,313.7620544
		c-4.306076-9.5343933-9.9989624-17.8582764-13.350296-28.2234192
		C157.4571686,293.6787415,162.5457306,302.4885559,164.9215393,313.7620544z M160.0282593,309.5024719
		c2.2256775,4.2595825,6.4363708,8.7651672,5.5158691,14.4141235c-4.053299-8.8249817-8.6535339-17.1202087-12.7849731-25.8652649
		C156.6976929,299.1903381,157.7879639,305.2006531,160.0282593,309.5024719z M153.7920532,312.128479
		c0.1147614-1.5401001,0.2710266-3.0801697,0.3906708-4.636261c4.9102936,6.8638,7.9160614,15.4489136,12.3564148,22.7069702
		C161.7838745,327.4845886,158.9379883,316.8843689,153.7920532,312.128479z M157.0859985,326.3986206
		c-1.0157623-1.2696838-0.9132538-3.4971619-1.0328979-5.5384521c-0.9156189,0-0.3504181-1.1457825,0,0
		c1.6201019,0.9620361,2.5149689,2.5552673,2.59198,4.8669739
		C158.0602417,325.8468018,157.1848755,325.6539001,157.0859985,326.3986206z M161.9388885,339.9569702
		c-2.5137024-2.7652588-3.4879608-6.9272156-4.3254547-11.2069702
		C160.1087799,331.5024719,164.5345001,334.9862061,161.9388885,339.9569702z M163.1890564,343.1837769
		C165.4696198,347.7802429,161.0232697,346.4104614,163.1890564,343.1837769L163.1890564,343.1837769z M164.1817017,340.1413269
		C165.3122253,337.1514282,164.8019104,343.2636414,164.1817017,340.1413269L164.1817017,340.1413269z M164.6871338,351.8250427
		c1.5223389,0.7489929,2.6321106,3.4238586,1.0901489,4.7601624
		C164.5345001,355.7610779,164.3549652,354.0501099,164.6871338,351.8250427z M153.4416199,369.6429443
		c-4.6807404-15.3291931-13.4698029-29.725647-17.9149017-45.6732483
		c-3.466095-12.5969543-2.9240112-27.2100525-5.5744934-40.0706482
		c10.4872742,20.4465027,10.7204285,43.5544128,20.0770721,63.7109375
		c4.7382507,10.1673584,8.8513184,19.1095581,11.6971893,30.4544678
		c4.9506683,19.8616638,11.1111298,39.5896912,12.5126801,64.6993103
		C159.3885498,421.5524292,160.9243774,394.2251282,153.4416199,369.6429443z M175.7212524,424.9836426
		c3.2158051-3.7785034,4.5612335-9.7449341,5.8882904-15.870636c2.7432404,6.4736023-3.35495,14.6583557-4.8382874,21.4017334
		C175.7408752,429.2694702,175.8567657,427.051178,175.7212524,424.9836426z M182.1723633,420.0324707
		c3.7236328,6.1231995-2.8056335,14.1101379-3.9531555,19.9190674
		C175.0010223,433.9520874,182.4250183,427.9466553,182.1723633,420.0324707z M178.9944305,448.5701904
		c-1.1878967-5.5756226,3.9764099-10.3382874,4.4452362-16.7655029c3.1387939,5.341217-3.2926941,10.4847717-3.7053833,16.8454895
		C179.4815063,448.6099243,179.2471008,448.5701904,178.9944305,448.5701904
		C178.9944305,449.5054321,177.8639069,448.9536133,178.9944305,448.5701904z M142.2927551,448.1356201
		c4.6600037,3.9384155,6.7831573,10.181366,12.3575287,13.3751831c-1.2879181-6.7440491-7.8366699-8.8117065-9.2003632-15.47995
		c5.1068115,4.7601318,7.8928223,11.5810547,13.6651001,15.8297424c0.0183716,6.7819214,7.4424896,9.7449341,12.1024933,16.4487
		c9.3371277,13.3745422,15.5538483,28.7367554,29.162796,36.4160461c0.7179718,1.7507324,2.278183,2.7664795,2.6114807,4.8712769
		c4.0154114-0.3455811,2.8628845,4.7564697,6.4888611,2.805481c6.4534912,7.3362427,1.8521271,23.4700317,0.0573883,35.0072021
		c-1.6359711-10.522644,0.7618561-16.8736572-2.2610474-26.6210938c-1.2843018,1.835022-1.8300018,4.6015015-2.1621704,7.6060181
		c-2.4563293-1.7994385,0.2344055-9.9462891,2.4954529-11.4663696c-0.0805054-1.3648071-1.1487732-1.8300171-2.8262482-1.7592773
		c-1.6372223-0.2709961-0.5848236,2.694519-1.1121521,3.7896729c-3.3904572-1.760498-3.4502106-6.4755249-5.9810486-8.9709473
		c-5.2655792,0.6640625,0.1330109,5.1812744-0.7411041,8.4606323c-2.9447632-2.5346069-3.4525909-5.5355225-4.4854736-8.8867188
		c-6.5108795-21.2858582-26.4695587-31.9294128-37.7943268-49.5092773c2.8628845-1.5273132,3.7980042,4.7137756,7.0565643,5.1814575
		c-0.8387299-4.5631104-6.0238037-12.6305847-9.6497955-10.0551147
		C147.338562,460.8056946,144.5354309,454.6891174,142.2927551,448.1356201
		C140.0512085,447.7875671,143.2670135,444.9820862,142.2927551,448.1356201z M140.2441101,445.6071472
		C139.971817,445.2524719,140.6921692,446.1877441,140.2441101,445.6071472L140.2441101,445.6071472z M175.4685822,498.8553162
		c0.6409607,8.7694397,0.9547577,17.3106995,0.8948822,24.9165955c-5.3206024-4.6002197-9.8597107-9.8218384-17.6952667-12.2086487
		c-4.2510681-24.5955505-19.5118713-39.4840393-24.6603088-63.3080139
		C146.0712585,466.6542358,159.5410767,483.8874207,175.4685822,498.8553162z M133.5231934,445.0949707
		c-6.5695038,23.085968,9.799942,38.01474,13.174408,57.0005188c-2.8080139,2.1059265-6.6061401-6.9015503-10.5067902-8.5338745
		c-11.6165619-13.1451416-8.9660873-38.8327332-10.6239319-60.702179
		C129.1721191,436.092865,130.0119781,441.7486267,133.5231934,445.0949707z M109.1743011,272.2104797
		C110.2864532,269.2211914,109.7981339,275.3223877,109.1743011,272.2104797L109.1743011,272.2104797z M79.8001862,371.0792542
		C77.5598984,370.7355957,80.7951965,367.9057007,79.8001862,371.0792542
		C82.0233917,371.3936768,78.8271561,374.2260742,79.8001862,371.0792542z M96.1536789,408.0606079
		c-3.7236252-4.208313,0.2344055-13.5254517-5.9444275-18.3190918c-0.1940231,4.7137756,2.9216461,6.4711304,2.0083923,11.8124695
		c-9.0466385-13.6828308-8.9306564-35.4546509-15.9250107-50.9681091
		c-1.4626007,5.0843201,3.7627182,10.4829102,3.0228653,17.3198242c-3.7053375-13.9489746-9.9463959-26.89328-10.6276398-42.7767639
		c-0.6018906-14.2371521-11.6940727-27.3944092-9.8236961-43.5214539c-4.6008682,4.6960144-0.815609,12.820343,0.6647148,18.709137
		c1.7354965,6.8941956,4.0337791,13.7891235,5.0666275,19.8323975c0.4700317,0.0799561,0.8778076,0.1794434,0.7019958,0.8442078
		c2.2012253,0.3082581-0.9950104,3.1339722,0,0c-0.4273071-0.0927734-0.875351-0.1837158-0.7019958-0.8442078
		C51.2050095,293.6922302,53.8757439,263.8511047,47.1669655,234.0681
		c-7.5418892-33.4291229-25.3775368-62.9155884-23.5444145-102.8531952
		c2.8056259,36.9947205,22.3168755,69.051651,30.893528,104.2047424
		c6.7678223,27.5317078,6.2605553,54.7753601,14.0765419,81.9256592
		c8.9672775,31.0930481,23.09758,61.4773865,31.2261734,91.7677002c-2.0279007-0.8156128-3.1560516-2.4088135-2.5345917-5.6086426
		C95.6482315,403.4639893,96.6982498,406.7750549,96.1536789,408.0606079z M98.0643082,412.116272
		c1.3075485,1.7129822,2.1047821,3.8586426,2.477211,6.3937378
		C98.8041534,417.1469421,98.0057983,415.0018005,98.0643082,412.116272z M91.377655,375.8596497
		c6.6281433,4.8730469,11.2466431,17.7007751,18.205574,24.6815796c0,5.0306702,0.3504257,9.6644287,1.0328903,14.0705261
		C100.9493179,404.5567627,96.4638443,389.9386597,91.377655,375.8596497z M147.7487335,560.4945068
		C147.4581909,560.144043,148.1967926,561.0389404,147.7487335,560.4945068L147.7487335,560.4945068z M155.4902802,592.9707031
		c1.0096283,0.0794067,2.0035095,0.1588135,2.9776459,0.2393188c-0.579834-2.1109009-2.7652435-2.7750244-4.1301727-4.2156982
		c3.1376648-4.0556641-5.0665588-11.0366211-1.0157623-14.8579102c-6.276474-2.0291138,0.4321747-14.5380859-6.1360779-16.022644
		c-6.1213226-24.0144653-19.180954-47.4856262-26.0043716-73.4816284
		c-3.3538284-12.750061-8.0699615-18.7158813-7.6048965-34.0316772c0.2955399-10.6489258,3.3733292-20.7834167,0.958374-29.4753418
		c2.37957-1.4095764,1.2844238-5.0305481,0.6824722-7.7171631c-0.3906784-1.3715515-1.677475-0.6268311-1.5602112,0.6587219
		c-1.7336121-0.8179932,0.0598831-4.3658447,1.1305237-4.5587463c-5.5940018-23.7043152,2.1047821-57.0249329,0.5041962-85.5113525
		c-0.9522552-17.189209-6.8783035-32.3475037-5.6111298-48.6344299
		c3.3159485,21.3309937,12.1050034,44.0885315,6.6867752,71.2723389
		c-1.4601974,7.3222351-0.6409607,15.9830017-0.5482025,24.0413513c0.4700623,31.035675,5.7894058,67.9528809,7.1372147,93.0532532
		c0.3125381,5.8882751,3.4098282,13.4545593,5.8674088,19.1499329c2.5138397,15.5159912,9.1981201,31.5716553,14.0912781,46.1499634
		c8.20784,24.4039307,12.9020996,49.6331787,19.1431885,75.3190308c-1.8923798-1.2050781-3.3158112-2.8056641-4.893158-4.286499
		c-0.3724213-3.6246948,1.8300018,1.24646,2.3574371-1.3210449
		C159.6204529,595.4967041,154.8249359,596.6712036,155.4902802,592.9707031z M149.1735535,623.5717163
		C150.2833252,620.565918,149.7766266,626.7265015,149.1735535,623.5717163L149.1735535,623.5717163z M153.9068146,629.3782349
		c-1.0877686-1.1658936-1.6749725-2.8067627-1.8301239-4.7918701
		C153.5747681,625.4066772,154.1424713,627.0414429,153.9068146,629.3782349
		C156.1104889,629.6882935,152.9350586,632.5328979,153.9068146,629.3782349z M157.3777771,632.7685547
		C158.4888,629.7676392,157.9808655,635.8927612,157.3777771,632.7685547L157.3777771,632.7685547z M210.4732971,740.949585
		c-17.8710327-29.236145-26.9933777-66.2332764-41.1261597-98.7449951
		c-1.1904144-2.4550781,0.9558868-3.3903198-0.3125458-5.4559937c-4.3255768-5.1105347-8.4788818-4.3255615-11.2087555-9.3921509
		c-2.2805481,0.3417969,0.587204,1.7103882-0.2527771,3.0765381c-4.5391083-12.4381714-19.5313721-15.5940552-27.9151306-24.6749268
		c2.8898926,9.3921509,16.1032867,9.6265259,17.8002625,20.0332031c-1.8349915-0.7398682-1.6395874-3.3060913-2.5930939-4.8346558
		c-1.1097717,0.0391235-0.8374786,1.7593384-0.9950104,3.0046387c-2.2024231-0.8594971-1.4625702-4.4011841-3.2731934-5.6904907
		c-0.8777313,0.0794067-0.8997345,1.1694946-0.9399872,2.2646484
		c-11.5348053-13.3012695-26.1326447-29.0151367-35.8447037-46.2390747
		c4.8932877,13.0975342,15.9665222,26.8602295,26.0631332,37.7333374c0.4699402,0.0745239,0.8777466,0.1550293,0.7019653,0.8192139
		c0.8973694,0,0.3307953,1.1658936,0,0c-0.4468079-0.0793457-0.8973694-0.1904907-0.7019653-0.8192139
		c-18.4607315-16.4536133-30.2531967-38.4329224-46.1561661-57.1463013
		c-9.88414-11.6580811-17.0188904-25.694458-24.4253235-39.1825562
		c-8.6937943-6.9040222-14.3274269-16.4109192-22.7666855-23.5090027c0.1153908-4.6368713-6.2959709-5.7295227-4.4433479-9.6680603
		c-2.3404388-0.6263428-2.3978214,1.2904358-3.7255001-0.2759094c-0.9351254-1.0549011-0.4474354-3.4245911-0.2704124-5.4523621
		c-2.9276428,3.0814209-3.8627682-1.4491882-1.9326344-4.0179138c-1.2831726-1.5999756-1.8502483-0.2771606-3.7206249-0.316803
		c-0.0580082-1.7904663,0.3675499-2.9630127,1.0701447-3.8182373c-8.6144085-3.741394-6.118948-22.3772583-9.1596069-33.3339844
		c6.1965828,21.3682251,14.6779728,37.8969727,26.9556217,53.379425
		c11.933979,14.9616394,29.8825035,26.3926697,33.4291191,48.4171448c3.3952332,4.1350098,6.7855911,8.6118774,9.9244385,15.4732056
		c3.7785263-0.3809204,2.9825516,2.6895752,5.9053192,1.2501221c6.1568222,6.5060425,12.1842575,13.057251,16.1789246,21.4385376
		c2.0253906,0.2392578,1.6177139-1.1696777,2.9826508,0.2392578c14.0155029,29.0810547,50.4449005,38.3583984,67.2477875,64.9439697
		c-2.8861389,11.8510132,2.237793,20.7035522,6.3912354,30.8440552
		C193.0698242,694.9949341,201.6085968,719.1998291,210.4732971,740.949585
		C211.3730469,740.949585,210.8273315,742.1191406,210.4732971,740.949585z M216.0135345,755.3765259
		C216.4395905,755.9222412,215.6986237,755.0262451,216.0135345,755.3765259L216.0135345,755.3765259z M217.5897522,771.8338623
		c-0.9560089-4.175415-0.293045-9.7461548-1.0707703-14.0814819
		C221.1778564,759.5079956,218.2697144,767.1091309,217.5897522,771.8338623z M207.3576202,671.5250244
		c-1.1110229-12.711731-2.2635498-25.9251099-0.6629639-36.5673828
		c3.4307098-22.6936035,12.5505676-40.5474854,25.6529541-54.8145142
		c9.2589874-5.9262085,14.6772156-15.7126465,21.5385132-24.0498657
		c11.9803619-14.5479736,29.364212-26.7102051,36.1767426-46.2415771c1.9997559,0.078125,1.3831787,1.4026794,2.9605103,0.2380066
		c5.031189-34.2294617,30.1933289-43.8962708,36.5100403-76.5318909c3.7005005-1.7128601,6.4267273-4.6759033,8.927063-7.9160767
		c0.6604614,4.525116-6.2814636,7.1781006-8.4618835,11.0366211c3.3903503-0.394928,4.268219-3.8982849,7.8587036-4.0160522
		c-0.8813782,4.8712769-5.2302246,5.4987488-7.491272,8.7316895c-0.177002,2.5357056,0.9754944,3.8981323,2.598114,4.8340149
		c0.5187988,8.0735779-6.8039246,6.5108643-10.5446777,9.3163757c0.9352417,2.4558411,3.3060608-0.3875427,5.2168274,0.4279175
		c-1.1440125,3.3977051-5.0617981,3.4703674-6.5646362,6.5133972c0.3504333,1.947876,2.1278992-1.3228149,3.7992554-0.5073242
		c-0.7007141,5.3809814-7.1725769,3.7407532-8.9013062,7.8757935c0.3283997,1.9485168,2.1193848-1.2916565,3.7773743-0.5071716
		c-2.14505,4.4853516-6.4937439,6.3161011-8.4215088,11.0304871c2.3404541-0.5420837,3.235321-2.8458862,4.8529053-4.2864685
		c-10.2516174,12.4760437-18.0700684,35.3208618-27.6184692,51.5413208
		c-2.9605103,1.6713257-8.5180054,5.5720825-10.6679382,10.8413086c1.5688477,2.1414185,3.9263-1.9497681,4.7821655-3.5186157
		c0.2746582,0,0.5274353,0.0404053,0.763092,0.0404053c0.0524902-0.4212036,0.1501465-0.8961182,0.7886047-0.6959839
		c0.2392883-0.5895386,0.1600342-1.5211792,0.8643494-1.4856567c0.0220032-0.9304199,1.1659241-0.3455811,0,0
		c-0.1903992,0.5895386-0.1196289,1.5247803-0.8643494,1.4856567c-0.0536499,0.46521-0.1513977,0.8950195-0.7886047,0.6959839
		c-6.1263123,10.1807251-15.301178,16.6074829-22.4188843,25.5380859c-3.0007935-3.9800415-6.8245392,3.586853-9.4531555,5.5366211
		c-1.1292725,2.3757935,2.3209381,0.7446899,1.2086639,3.1558838c-5.9285431,5.265625-10.4872894,12.2062988-13.7432251,20.7389526
		c-1.2099152,0.8204346-1.9692535,0.7398071-3.0009003-0.1953125c-5.4781036,6.9418335-10.1564941,14.8579102-16.0605316,21.3248901
		c3.2340546,0.7800903,3.2535553-2.2915649,5.4767303-2.7262573c0-0.9400024,1.1305389-0.3504028,0,0
		c-2.3183136,5.4157104-7.2689667,8.2310791-7.1920929,14.2280273
		c-10.8962097,3.9360352-10.0013428,17.6622314-9.2614899,29.6254883
		c1.9131317,32.8657837,5.4792328,71.2241821,11.7948303,99.6447754
		C211.0800018,734.6816406,209.8530884,700.4510498,207.3576202,671.5250244z M319.9593811,502.0551147
		C320.433075,502.5605774,319.6883545,501.6656799,319.9593811,502.0551147L319.9593811,502.0551147z M319.6090698,506.6517334
		C320.021637,507.2035522,319.3209229,506.3086853,319.6090698,506.6517334L319.6090698,506.6517334z M320.1767883,499.7171936
		C320.6248474,500.2628784,319.9057617,499.3302612,320.1767883,499.7171936L320.1767883,499.7171936z M318.7140808,508.1790771
		C316.6130676,514.8046875,319.4185486,505.9533997,318.7140808,508.1790771L318.7140808,508.1790771z M307.5847168,550.8275757
		c2.0473938-9.9463501,5.7697754-17.1531982,9.0808411-27.2900391
		C315.7889404,531.8833618,313.0053101,545.215271,307.5847168,550.8275757
		C308.0535278,555.0029907,305.2480164,551.5625,307.5847168,550.8275757z M300.9004517,558.8987427
		C300.9004517,559.8338623,299.7882996,559.288208,300.9004517,558.8987427
		c0.5274353-3.895752,2.8983765-5.5757446,3.7932434-9.0465698c0.2405396,0,0.4529419,0.0402832,0.7447205,0.0402832
		c0-0.9353027,1.1305542-0.390686,0,0C304.6814575,553.8284302,302.9832153,556.593689,300.9004517,558.8987427z
		 M302.2837524,560.5701294C301.9956055,560.1843262,302.7134399,561.0791626,302.2837524,560.5701294L302.2837524,560.5701294z
		 M305.8291016,553.8284302c1.2891846,0.6593628-0.0183716,1.4041138-0.1734009,2.3002319
		C304.3665466,555.4631958,305.6557007,554.7233276,305.8291016,553.8284302z M295.8826294,556.2078857
		c-2.2511597-6.3154297-1.6309509-24.7945557-1.4223022-27.3302612c0.3137817-4.2852173,3.7089844-8.5803223,5.6600037-13.6066284
		c5.4963684-14.1901245,10.6777039-28.1910095,19.6657715-37.3828735
		C317.1941223,507.2035522,309.4367065,537.4993896,295.8826294,556.2078857z M291.4460449,537.9597168
		c-1.8568726,2.2659302-2.4783325,6.0859375-5.8283997,6.5510864
		C288.0728455,542.911499,288.0862122,538.4346313,291.4460449,537.9597168z M282.381073,591.72052
		c2.4380798,0.4736938,0.7813721,4.520874,0.8961182,7.055481
		C280.2360535,598.8565063,282.8426514,593.9058228,282.381073,591.72052z M280.4094543,614.8791504
		c13.1413879,31.1064453-9.5301819,63.7780762-21.4970398,85.4522705
		c-0.2527771-13.5235596,3.3867188-28.0665283,5.0263062-41.5987549
		C266.3939209,638.4589844,269.6072388,629.2268677,280.4094543,614.8791504z M258.6950073,658.3468628
		c-1.3831787,2.6066284,2.5174866,0.6165771,2.0657959,2.4564819c0.7800903,4.6758423-2.943512,3.7810059-2.9032593,7.5656128
		c-1.2453003-19.1480713-0.6030884-45.4625854,12.925354-55.0097656c-0.0402527-1.4455566,0.9706421-1.6359253,1.0316467-3.0057373
		c1.8349915,0.2392578-0.0171204,2.6150513-0.2966614,3.085144c-0.2308044-0.0440063-0.4872131-0.0440063-0.7349854-0.0794067
		c-0.1599121,1.8301392-1.4638367,2.1853027-1.1354065,4.5964966c2.9655151,0.7398682,2.0876465-3.1167603,4.7430115-2.7663574
		c1.4223328,5.1459351-6.3338623,8.6925659-9.5080261,14.8127441c-1.8167419,3.5063477-1.6225891,7.4020996-3.9043884,10.6031494
		C261.9535828,647.5459595,260.9598389,652.1021729,258.6950073,658.3468628z M254.7041168,696.9006958
		C254.4293213,696.5551147,255.1509247,697.4501343,254.7041168,696.9006958L254.7041168,696.9006958z M254.5660858,698.4609985
		C254.293808,698.1057129,255.0361481,698.9614868,254.5660858,698.4609985L254.5660858,698.4609985z M254.9567719,693.8203735
		c0.0793762-0.5456543,0.1196442-1.0070801,0.1367645-1.5601807c0.5078125,0.0390015,0.9730225,0.0794067,1.4968262,0.1196289
		c-0.0586243,0.5042114-0.1160278,1.0096436-0.1331482,1.5602417
		C255.9689026,693.8997803,255.4622192,693.8595581,254.9567719,693.8203735z M255.9871521,690.7438354
		C255.6771088,690.4289551,256.4169617,691.3249512,255.9871521,690.7438354L255.9871521,690.7438354z M254.6821136,688.3595581
		c-1.8313751-1.5114746,1.3844452-3.9361572,0.6067047-6.977356c0.973114,0.0758057,1.9253845,0.1550293,2.9631348,0.2356567
		C258.5973816,685.7127075,255.384079,685.5185547,254.6821136,688.3595581z M253.6883545,699.8967285
		C254.8017426,696.9398193,254.293808,703.0611572,253.6883545,699.8967285L253.6883545,699.8967285z M252.2855377,699.0408325
		c-1.6749725-0.6958008-0.3320465-4.8308716,1.8153687-3.7810059
		C253.2585449,696.2353516,253.1255188,698.0665894,252.2855377,699.0408325z M256.341217,677.5621948
		c-1.2476807-1.0548706,1.2452698-4.6759644,0.6605835-7.7171631c0.5456848,0.5139771,1.1305237,0.8948975,2.163269,0.9755249
		C259.5326233,674.6760864,257.8172913,675.9664917,256.341217,677.5621948z M274.4698792,605.0927124
		c1.090271,0.744751,1.4577026,2.060791,1.1830444,3.9764404c-1.0547791-0.1160278-2.1181641-0.2661743-2.2951965,0.5884399
		C271.2699585,608.4036865,274.8910828,607.1229858,274.4698792,605.0927124z M269.6072388,609.3791504
		c-0.3406677-21.9499512-6.701416-50.2105713,9.0686035-62.2923584
		C281.4508362,565.2057495,280.4363098,593.3601685,269.6072388,609.3791504z M279.3143005,610.1190186
		C280.4363098,607.1535034,279.9088745,613.239563,279.3143005,610.1190186L279.3143005,610.1190186z M285.9850769,531.3340454
		C286.433136,531.8833618,285.688385,530.9787598,285.9850769,531.3340454L285.9850769,531.3340454z M236.945343,605.3624878
		c0.9558868-3.9348755,4.3462067-7.0516968,6.2165833-11.1818848c4.1705627-9.3213501,5.3804779-19.2286987,13.3344116-24.6798096
		c-0.8399811,45.3783569-0.7044525,95.4680786-12.5945587,139.8014526
		c-1.7897339-10.7215576-1.6933441-21.9536133-2.4148254-33.6104126
		C240.3381805,656.0028076,231.4294891,628.4821167,236.945343,605.3624878z M232.7150269,637.6837158
		c-0.1734009-1.6359863,0.664093-1.9899902,1.0145111-3.0447998
		C235.0554657,634.5241699,234.7232971,639.0939331,232.7150269,637.6837158z M259.7327881,566.6549072
		c0.0524902,0.0402832,0.0171204,0.0402832,0.0524902,0.0402832c0.080658,0.0794067,0.1025391,0.1196289,0.080658,0.1196289
		c0.0218811,0,0-0.0402222-0.080658-0.1196289C259.6925354,566.6157837,259.6131592,566.499939,259.7327881,566.6549072z
		 M233.3791199,612.104187C233.1069641,611.7634888,233.8468018,612.6193848,233.3791199,612.104187L233.3791199,612.104187z
		 M232.4049835,623.651062C232.8517914,624.2359009,232.1119537,623.3410645,232.4049835,623.651062L232.4049835,623.651062z
		 M233.0678253,598.0800171c-0.2160339-0.0390015-0.4480591-0.0390015-0.7202148-0.0390015
		c-0.216156,0.579834-0.1600342,1.5163574-0.8998718,1.4759521c-0.195282,0.5445557-0.1330261,1.5199585-0.8753662,1.4845581
		c0,0.9401245-1.1109009,0.3858032,0,0c0.2320251-0.5896606,0.1551361-1.5247803,0.8753662-1.4845581
		c0.216156-0.5810547,0.1367645-1.5565796,0.8998718-1.4759521c0.0169983-1.9509888,1.3819275-2.3452759,1.8104858-3.7860107
		C236.1273651,595.1157837,233.1630859,596.9056396,233.0678253,598.0800171z M227.4140625,655.9271851
		c-5.4963531-9.0770874-13.4699249-27.2937012-2.1231537-36.6821899
		C226.4214325,632.3034058,225.0956268,643.569519,227.4140625,655.9271851z M216.9487915,664.5037231
		c14.2279053,19.6096191,14.7151031,51.4205322,7.8342896,84.5560913
		C217.3345947,724.0393677,217.2198181,693.1148071,216.9487915,664.5037231
		C216.0319061,664.5037231,216.576355,663.3378296,216.9487915,664.5037231z M229.3039398,642.8700562
		C229.0121613,642.5147705,229.6958771,643.4498901,229.3039398,642.8700562L229.3039398,642.8700562z M229.7141266,637.444458
		c-2.7481232-2.6065063,2.8458862-5.7270508,3.1205444-9.8572388
		C234.8429413,631.2571411,229.9095306,633.6244507,229.7141266,637.444458z M235.7781982,592.8498535
		C236.2055054,593.4003906,235.4851532,592.4957886,235.7781982,592.8498535L235.7781982,592.8498535z M219.5370026,784.4221802
		c1.075531-0.6653442,0.5677032,6.1202393,1.5822144,7.8758545c-0.6067047-0.6251221-1.6213379-0.9351196-2.9251404-0.9754028
		C218.057312,788.2825928,219.8519287,787.6172485,219.5370026,784.4221802z M217.9412994,820.8735962
		c-1.0328979,2.4161987-0.6604767-2.1804199-0.4675751-3.1559448
		C218.5248718,815.2528687,218.1366882,819.8188477,217.9412994,820.8735962z M215.5044708,840.8726807
		C216.6142426,837.8668823,216.1062927,843.9932251,215.5044708,840.8726807L215.5044708,840.8726807z M215.9732819,835.4910889
		c-1.0341492-2.0999146-1.2099152-4.9859619-0.1746521-7.0516968c2.0058899-0.0794067-1.0522614,4.3169556,1.984024,3.2719116
		C218.1940765,834.2457886,216.3810883,834.0113525,215.9732819,835.4910889z M223.9431,811.9466553
		C222.9285889,816.4675293,224.6255646,808.9067383,223.9431,811.9466553L223.9431,811.9466553z M225.7780914,790.3128662
		c-2.3978119-1.2146606-3.2181702-6.7868042-1.4430695-9.4372559
		C225.4630585,783.291687,226.9086304,788.2423706,225.7780914,790.3128662z M223.9626007,820.5233154
		c2.9056396-0.3944092,0.6434631,3.7407227,1.0536499,5.5317383
		C222.1874847,824.8097534,225.131012,822.5889893,223.9626007,820.5233154z M224.1029968,819.0033569
		C224.5498047,819.5477905,223.8283386,818.6529541,224.1029968,819.0033569L224.1029968,819.0033569z M223.7306976,832.1765137
		C225.0382538,829.6810303,225.3300323,835.3409424,223.7306976,832.1765137L223.7306976,832.1765137z M229.0121613,752.4904175
		c-0.0561371,1.3661499-0.3883057,2.3806763-1.0316467,3.0057983c-1.8521271-0.2306519,0.0182495-2.6151123,0.2734222-3.039917
		C228.4688263,752.4562988,228.7216187,752.4904175,229.0121613,752.4904175
		c2.4001923-16.2179565,4.1350555-23.8544922,2.3196869-36.3671265c6.6292572-13.682251,1.5955811-38.1265259,1.6749725-55.0891724
		c-0.6018372-1.8703613-1.8703766-3.1205444-2.6102295-4.8761597c-0.3722992-3.0009155,2.0656586-2.5663452,2.6334839-4.4367065
		c-0.587326-3.0009155-2.9655304,0.0403442-3.5332336-2.6151123c0.2172852-3.6662598,3.4708405-3.7052612,3.6503754-7.4862671
		C239.8509827,673.1610107,244.8419037,720.2937012,229.0121613,752.4904175z M228.9560242,806.0962524
		C228.0366516,806.1365967,228.5615997,804.9705811,228.9560242,806.0962524
		C231.1596985,806.4417725,227.920639,809.2876587,228.9560242,806.0962524z M233.5952759,884.2207642
		c-2.8836365-10.7924805-3.4709625-23.6200562-5.2668304-35.3562622
		C232.7747803,857.906189,238.1137543,871.7484131,233.5952759,884.2207642z M237.4531708,865.0372925
		C238.3689117,865.0775757,237.8207092,866.2484741,237.4531708,865.0372925
		c-4.2900848-12.1574097-10.0574799-22.9949951-9.3762665-39.5230713
		C229.3039398,840.8726807,237.7059479,850.3001709,237.4531708,865.0372925z M244.9566803,882.7411499
		C244.6648865,882.4297485,245.3852386,883.2856445,244.9566803,882.7411499L244.9566803,882.7411499z M246.0298157,878.960022
		c1.187912-27.0507202-9.4715271-43.5837402-14.7553558-64.8719482
		C242.9141541,830.1901245,251.7983398,851.5894775,246.0298157,878.960022z M246.6329041,827.6556396
		c-3.6833801-4.5661011-4.346344-11.8485718-7.6022797-16.87854
		C245.0153046,810.5378418,248.6009216,818.5735474,246.6329041,827.6556396z M231.4868622,802.4263916
		c0.5847015,0.1990356,0.8399963,0.7129517,0.6445923,1.6090698c0.8986206,0.3809204,1.4430695,1.0853882,1.266037,2.406311
		c1.4454498,1.1745605,2.3404388,2.7347412,2.5931091,4.8761597c2.2427979,0.3540649-0.9535065,3.1595459,0,0
		c-1.6175995-0.9352417-2.4954681-2.5308228-2.5931091-4.8761597c-0.8948669-0.3809204-1.4223175-1.0853882-1.266037-2.406311
		C231.5442505,803.8352051,231.3147125,803.2907104,231.4868622,802.4263916
		c-0.5433197-0.2307739-0.7752228-0.6959839-0.6030731-1.59198c-0.5665894-0.1990356-0.7802429-0.699585-0.6239624-1.5944824
		c-2.1829224-0.3552856,0.99263-3.1608887,0,0c0.6043243,0.1904297,0.8594818,0.6994629,0.6239624,1.5944824
		C231.4477386,801.0296631,231.7225189,801.5302734,231.4868622,802.4263916z M232.2095947,767.4985352
		c-1.3454437,8.2311401-0.7618561-4.5159912,1.2855377-6.1165771
		C236.4374084,762.4686279,233.087326,765.9078369,232.2095947,767.4985352z M245.4841156,743.644104
		C245.2093353,743.2545166,245.9504395,744.1898193,245.4841156,743.644104L245.4841156,743.644104z M289.0079651,663.7284546
		c-0.775238,0.9304199-3.0228882,0.3858032-3.8432617,1.2807007c-3.5453491,3.661499-4.0105286,9.7474365-7.0737,12.6727295
		c0.4883118,2.1450195,1.9106445-1.4760742,2.4380798-2.1903076
		c-11.5994263,22.8534546-24.1743774,51.8551025-39.2178955,73.2935791
		c-2.1829224-3.5808716-3.7786407,5.3461304-7.2483521,5.6160278c0.0391235,0.9351196-1.0951538,0.390686,0,0
		c14.5772095-37.6174316,36.8970947-65.8023682,52.2190247-102.5296631
		c0.540802-5.0214233,1.6932068-9.2762451,3.3340759-12.9779053c0.7349548,1.6359863-0.2001648,4.0557251-0.5273438,6.1568604
		c2.3977051-2.1804199,4.0948181-5.2216797,6.6256409-7.211731c-0.6873169-3.1998291-3.7322388,1.9900513-3.7322388-0.3149414
		c0.9047546-3.385437-0.5579529-4.7149658-0.0707703-7.7963867c-2.2952881-1.2050171-2.4954529-0.3101807-5.2216797-0.3809204
		c1.4235535-3.1999512,1.4235535-3.1999512,2.8287354-6.7905273c-2.7347412-1.324585-1.6408386,1.9899902-3.8652649,1.2856445
		c0.5091858-7.0114136-7.3129883-16.87854-1.147522-21.864563c-0.3504333,2.9251709-0.4310608,5.611145,0.8813782,7.0565796
		c0.9083557-0.3502808-0.2392883-3.7907715,1.2062683-5.3412476c1.4223328,0.1940308,0.3100586,2.5662231,2.060791,2.4857178
		c0.2564087-3.6210938,0.3320312-8.2177124-3.2133179-6.4656982c0.7349854-5.37677-2.2610474-11.0770264,1.2489319-14.6981201
		c-4.5428772-1.8703613-0.3138123-7.4423828,0.8387451-10.0220947c-2.5931091,0.7850952-3.7187805,3.4002075-4.9909363,5.8468018
		c-2.1010437-7.1628418,4.8712769-10.5629272,6.6037598-15.8236694c-1.4358215-1.9863892-2.6676025,3.5100098-4.7956543,3.5100098
		c0.4346924,3.2755127-2.2561646-0.0391235,0,0c1.17453-3.3903809,2.9655457-6.0054321,5.1899719-8.1505127
		c-0.9755249-2.4918213-2.4772034,1.4088135-3.8604126,1.2501831c-0.2344055,0.5847168-0.177002,1.5199585-0.8948669,1.5199585
		c0.4601746,3.2352905-2.2256775-0.0404053,0,0c0.252655-0.625061,0.1721497-1.5603638,0.8948669-1.5199585
		c0.8948669-3.4307251,3.466095-4.8712769,4.4414673-8.2225952c-2.9251404,0.111145-3.3329468,3.3109131-4.9248962,5.0616455
		c-0.7264709-3.7003174,4.0691528-8.0661621,6.2142029-11.1831055c-2.3171997-2.3794556-2.8458862,2.8861694-5.4779968,2.6908569
		c0.9754028-3.9007568,3.3683472-6.0860596,5.2387085-8.9306641c3.0631714,23.9741821-4.8443909,57.6554565,4.8357849,75.7890625
		c-0.0792542,1.0852661-0.5273132,1.6798096-0.9351196,2.2560425
		C305.6557007,633.2068481,299.2608337,651.4857178,289.0079651,663.7284546z M288.2730103,637.2136841
		c-1.703125-1.7543945-1.2330627-4.7161255,1.8654785-4.4853516
		C290.7062073,635.6534424,288.1130981,634.758606,288.2730103,637.2136841z M296.5651245,609.8882446
		c0.2576599-5.2253418-3.4220886-11.5774536-2.1755676-18.0529175c0.744751-4.0154419,4.8712769-9.506897,7.269104-15.0032959
		c7.8940735-18.1689453,16.2301941-40.0773926,20.4641418-64.56427c1.5822144-9.356781,2.6150818-18.7061462,4.5648499-27.6356201
		c2.8275146-12.7098083,3.9898071-24.0168457,9.5471802-32.7155151c2.1096497-18.2013245,8.9489441-37.8902283,17.818512-50.7173157
		c-10.876709,40.0352478-14.8127441,82.6881104-28.2471924,120.70224
		c-4.5574646,12.9022217-10.1148376,25.4196777-12.3002625,38.7077026
		C310.1998291,580.918335,309.007019,598.9359131,296.5651245,609.8882446z M310.7272644,602.4018555
		c-0.6348267-0.1952515-0.7228394,0.2747803-0.8253479,0.7008667c-0.8374939-0.1905518-0.5054626-1.4407349-0.5444641-2.3758545
		C310.619751,600.5670166,310.7272644,601.4276123,310.7272644,602.4018555z M310.8774109,591.5202637
		c0.0220032,0.0404053,0,0.0404053,0.057373,0.0404053c0.0805054,0.1196289,0.0927734,0.1196289,0.0927734,0.1196289
		s-0.0122681,0-0.0927734-0.1196289C310.8200378,591.4897461,310.7662659,591.4105225,310.8774109,591.5202637z
		 M311.4450989,593.9058228C311.8699036,594.4467773,311.1471863,593.5506592,311.4450989,593.9058228L311.4450989,593.9058228z
		 M305.7753601,607.4733887C306.2637939,608.0178833,305.5189514,607.1229858,305.7753601,607.4733887L305.7753601,607.4733887z
		 M308.7897644,598.3425903C309.9239197,595.3855591,309.4148254,601.4631348,308.7897644,598.3425903L308.7897644,598.3425903z
		 M308.3294373,613.1199341C309.4148254,610.1190186,308.9276428,616.2050781,308.3294373,613.1199341L308.3294373,613.1199341z
		 M310.646637,603.1429443c1.7336121,0.3491821,0.1513977,3.4697266-0.3149109,3.8995361
		C308.5943604,606.6932983,310.2120667,603.6117554,310.646637,603.1429443z M310.7662659,610.9785156
		c-1.4894409-3.5502319,3.9495239-6.0054321,3.8701477-10.6056519
		C318.1463928,603.2577515,311.4841309,607.628418,310.7662659,610.9785156z M312.725769,596.3208008
		C311.7149048,600.8464966,313.4131165,593.2807617,312.725769,596.3208008L312.725769,596.3208008z M313.2348633,599.5169678
		C315.3225098,596.5918579,314.0992126,602.1320801,313.2348633,599.5169678L313.2348633,599.5169678z M317.0732422,598.2314453
		c-1.5822144-5.0214233-4.5952454-8.8121948-3.8688965-15.8638916
		C316.0184631,586.0691528,320.021637,591.6802979,317.0732422,598.2314453z M327.1747131,576.4413452
		c19.2726135-7.4459839,27.9871521-25.6540527,40.5254517-44.3723145
		c6.9015503-10.3225098,14.1840515-20.3092346,16.9359131-31.3763428
		c13.7408447-22.9241943,30.1321716-42.7303772,47.8921814-60.8919373c0.7044678,0.0775146,0.4700623,1.0126343,0.5982056,1.5932312
		c-6.5413818,10.2192383-15.3352966,17.2734375-22.5432739,27.0910034
		c-7.0603333,9.5935364-11.7190857,21.2882385-18.4643555,32.008667
		c-6.2948303,9.9769897-13.7983398,20.4678955-19.1749573,31.194458
		c-5.7710266,11.6567993-9.7071838,23.7750854-17.0030518,32.9414062
		c-10.0123291,12.5480957-25.0643616,17.0737915-34.0756836,30.0516968
		C321.0142822,588.7954102,325.5180054,582.0927734,327.1747131,576.4413452z M339.8424377,524.5117798
		c-2.007019,0.0806274-0.3540649-3.0447998-2.7921448-2.5344849c-0.7532043-0.0402222-0.9486084,0.5848389-1.5504456,0.6641235
		c0.0390015,2.805603,1.3649292,4.5172119,3.2304382,5.6868896c-0.4480591,3.5904541-2.0657959-1.8301392-4.3658447-1.1305542
		c-1.2501526,4.175293,2.5003357,3.9762573,3.1644287,6.4766235c-6.5731506,17.8088989-14.7419739,33.7203979-18.1896973,55.3956909
		c-0.7764893-6.0018311-5.6513977-8.3422241-4.6233826-15.9482422c2.4783325,1.1744995,1.4405823,5.4255981,3.9580383,6.5512085
		c2.2073059-5.3010864-3.5099792-9.7425537-2.375824-16.487793c2.2390747,0.6286621,1.090271,4.2498169,3.3329468,4.9053955
		c1.4407043-2.7652588-0.9168701-7.5571289-2.1230164-10.243042c0.4078064-3.6295776,1.0157471,0.8961182,3.000885,0.1953125
		c1.6359863-4.800415-1.9717407-4.9505615-1.5383301-8.6608276c0.8558655-1.2806396,2.4783325-1.5198975,3.9092712-2.0253906
		c-1.090271-18.248291,11.0903625-35.27948,13.4747009-52.6694336c1.5919495-1.1256409,0.9351196,0.1501465,2.9837646,0.2295227
		c-0.0805054-3.6210938-0.9534912-6.3863525,2.1401672-7.5986328c-0.4480591-1.9900208-1.7909851-3.1999207-1.7909851-5.5708923
		c1.4405823-0.0806274,1.6175842,1.0145264,2.943512,1.0145264c-2.628479-19.7689209,7.4595032-49.7844543,12.4101868-66.7075806
		c0.8643494,0.1575012,0.6873169,1.2520447,0.5151672,2.3782959c1.5956116-3.1937866,5.4913635-3.5906067,6.6439209-7.2915955
		c-2.2830811-0.7355957-1.6176147,2.0302734-3.8786621,1.252533c0.9571228-2.2250366,1.0327759-5.5384827,2.8055115-6.7440186
		c0.9926147,0.079895,0.5848083,1.3960571,1.3833008,1.6334534c3.1595459-3.9781494,2.5528564-7.289093,4.0948181-12.9069824
		c0.2929077,39.4188232-19.1823425,74.186615-23.3675232,116.4109192c-1.4039307,0.0402527-1.5822144-1.0145264-2.9251404-1.0145264
		C340.8312988,516.7959595,338.0660706,518.3464355,339.8424377,524.5117798z M350.6178894,485.6845398
		C351.092804,486.2253723,350.3297119,485.328125,350.6178894,485.6845398L350.6178894,485.6845398z M355.6490479,479.0540161
		C356.1227417,482.3272095,353.4502563,479.0540161,355.6490479,479.0540161
		C355.2583618,475.8205872,357.9137268,479.0931702,355.6490479,479.0540161z M358.1127625,476.9126282
		c-0.4871826-0.039032-0.9742737-0.0794067-1.4881897-0.117157c0.0390015-0.5140686,0.0792542-1.0151367,0.1366272-1.5620728
		c0.46521,0.0396118,0.9974976,0.0726318,1.4845886,0.1128845
		C358.2019043,475.9004822,358.1665344,476.3986816,358.1127625,476.9126282z M406.0183105,389.5821228
		C406.0354614,388.6470032,407.1708374,389.1945801,406.0183105,389.5821228
		C406.0354614,390.5173645,404.8926697,389.9765625,406.0183105,389.5821228z M404.3384705,391.7692871
		C404.3384705,390.8341675,405.459259,391.3726196,404.3384705,391.7692871
		C404.3384705,392.7424316,403.2128296,392.1569824,404.3384705,391.7692871z M372.3944397,450.0065002
		C375.6126099,450.6004639,371.2285156,454.4584656,372.3944397,450.0065002L372.3944397,450.0065002z M359.9928894,472.4228821
		C359.7047119,472.0792236,360.4714355,472.9747009,359.9928894,472.4228821L359.9928894,472.4228821z M362.9046631,464.8236084
		C362.6080017,464.5134583,363.3258362,465.4090576,362.9046631,464.8236084L362.9046631,464.8236084z M364.9080505,458.7779236
		C365.3561096,459.3321228,364.6199951,458.4366455,364.9080505,458.7779236L364.9080505,458.7779236z M448.4312744,322.8239136
		c-9.2944946,20.1229553-15.6332397,41.0107422-27.3071594,57.0132751
		c-6.6842957,9.1266174-15.2961731,17.3509521-20.3273621,27.2082825
		c-4.6760254,9.2059937-5.926178,19.3806152-10.6289368,27.9926453
		c-4.4232178,8.1468506-11.129364,13.0602417-16.0408936,21.3309937c-2.8056335,0.578064-4.8346558,2.0675354-6.3729858,4.2059326
		c1.7776184-5.7350159,11.3516541-9.2389832,9.9011841-19.4912415c1.5212097,0.3101807-0.0927429,3.3909607,1.1525574,3.9715271
		c2.9655151-13.6450806,17.8405151-22.1398315,13.466156-34.7300415c2.2378235-6.0854492,5.8369141-10.4822693,9.498291-14.8169861
		c0-0.9731445,1.1036377-0.427948,0,0c-0.4076843,2.6151123-2.190155,3.5502319-2.0876465,6.7836609
		c5.0311584-5.4920044,8.500885-12.9069824,14.2500305-17.5432434c0.7801208-2.338562-1.9326477-1.6334534-1.1660156-3.975769
		c11.0281067-13.2841797,18.6292419-30.7407532,27.2107544-46.9459534c0.168396-2.7457275-2.5748291,1.4564819-2.1500244-0.9351807
		c13.0267639-34.9998779,37.0143433-56.5945435,49.097229-92.6742706
		C482.3347168,272.2305908,461.2186279,295.1260681,448.4312744,322.8239136z"/>
	<path d="M54.8108673,258.7741699c-0.760601-4.3395844,0-9.9928436-2.6706085-12.6634521
		C52.3752899,250.9087372,52.2751541,256.0059204,54.8108673,258.7741699z"/>
	<path d="M169.9123383,263.6075745c0.1551514-2.5266113-0.5847015-4.2418213-2.5930939-4.8535461
		C165.1168213,260.8880615,167.3778687,263.4500427,169.9123383,263.6075745z"/>
	<path d="M168.2153625,265.7989807c-0.6030884,0.0977783-0.776474,0.742981-1.538208,0.6629639
		c-0.6605835,2.6792297,2.9031372,5.2924805,3.5258484,2.5822144
		C168.6854248,268.7535095,169.735321,266.1383972,168.2153625,265.7989807z"/>
	<path d="M372.7045898,340.3916016c-0.9754944,0.8643799-1.0951538,2.6748962-1.1440125,4.5831604
		C374.0072632,346.3708191,375.550354,340.0570679,372.7045898,340.3916016z"/>
	<path d="M370.8342285,353.4762878c3.412323,1.5730591,4.4854736-4.1424561,1.0731201-3.7987671
		C371.2016296,350.5132446,370.7548218,351.6650391,370.8342285,353.4762878z"/>
	<path d="M371.1088867,358.9364929c-0.775238,1.3295593-2.2244263,1.8106384-1.8703918,4.5166321
		C372.6252136,365.0867004,373.5994568,359.4487,371.1088867,358.9364929z"/>
	<path d="M362.2001953,411.1408997C363.3124695,410.7135925,362.2001953,410.205658,362.2001953,411.1408997
		L362.2001953,411.1408997z"/>
	<path d="M359.2396545,419.4451294c-2.3404236,0.8619995-4.7736206,1.5999756-5.6295166,4.2487183
		C356.7832031,423.8909912,358.2457886,421.9803467,359.2396545,419.4451294z"/>
	<path d="M354.58078,430.0141907c-2.3001709,0.3101501-3.9628906,1.3960571-4.0960388,4.319458
		C352.5687561,433.7947083,353.7786865,432.1549683,354.58078,430.0141907z"/>
	<path d="M121.0862808,476.8332214c1.090271-5.5756226-2.1280365-13.295166-5.2668381-17.5010986
		C115.2553711,464.4738159,119.0778809,471.6055298,121.0862808,476.8332214z"/>
	<path d="M311.2545776,481.1613159c-0.6079407,0.1110229-1.4894409-0.0793762-1.5699463,0.664093
		C310.292572,481.666626,311.1740723,481.8973999,311.2545776,481.1613159z"/>
	<path d="M125.7401505,492.7362366c0.0391312,4.0179138,0.6665955,7.5266418,3.7652512,8.8123169
		C128.7850647,498.1569824,129.0768585,493.7911377,125.7401505,492.7362366z"/>
	<path d="M47.9690742,498.5048828c3.5863571,5.9260559,9.7468109,13.3355408,14.4233742,15.866394
		C58.0663071,508.6796265,53.9153709,502.831604,47.9690742,498.5048828z"/>
	<path d="M142.2146149,537.5385132c0.3320465,2.8018799,1.5004578,4.8321533,3.1961823,6.4668579
		C145.3705444,540.9214478,145.9174957,537.3394775,142.2146149,537.5385132z"/>
	<path d="M97.1108017,565.2057495c-1.8922501-1.2050781-2.5747147-3.4611206-4.9151611-4.2376099
		C92.1577606,563.4147339,95.3735733,566.6951904,97.1108017,565.2057495z"/>
	<path d="M234.8600616,585.7944946c0.0573883,2.8812866-3.1607971,1.7543945-2.6724854,5.2253418
		C233.9029388,590.9050903,238.056366,586.343811,234.8600616,585.7944946z"/>
	<path d="M214.6657257,620.7649536c-1.9900055,0.0720215-0.3296661-3.039917-2.825119-2.5344849
		c-1.2671814,2.0302734,0.1147614,3.9751587-1.2879333,6.9015503
		C213.5962067,625.7912598,213.710968,622.7159424,214.6657257,620.7649536z"/>
	<path d="M292.8867493,644.5852661c3.1424255,0.6959839,3.6429749-1.8312378,4.7955017-3.5112305
		C295.8521423,638.9338989,291.5656738,642.8700562,292.8867493,644.5852661z"/>
	<path d="M290.0628662,651.3660889c-0.5274353-2.2244263-3.4697266-0.3101807-3.7810059,0.5054321
		c-0.3944397,4.0556641-2.9606628,5.5010986-3.066925,9.8669434
		C285.5371399,658.3468628,288.8883362,656.1982422,290.0628662,651.3660889z"/>
</g>
</svg>
