<?xml version="1.0" encoding="UTF-8"?>
<svg id="vasabi" xmlns="http://www.w3.org/2000/svg" version="1.1" viewBox="0 0 1000 832.818093">
  <!-- Generator: Adobe Illustrator 30.0.0, SVG Export Plug-In . SVG Version: 2.1.1 Build 123)  -->
  <g id="outline">
    <path d="M910.2977259,429.4920398c-22.0401872-41.3507589-48.1372858-88.1089143-76.2587477-122.0524678-68.2063107-82.6196703-160.3052919-133.908089-225.0412655-213.6112574-21.3281133-26.3099029-29.7065765-54.4982077-45.8387331-68.7519629-92.0921607-81.3278428-134.4087199,56.8963417-171.6152624,106.7988081-22.0006276,29.746137-49.9897692,50.7018444-83.8855774,76.3460537-102.9888008,77.850685-166.2133226,151.8381644-236.6513437,251.7767815C34.5600719,511.991667-11.0672217,594.3194143,2.4212583,673.6351709c8.4262076,49.5300599,99.5116431,123.6116641,144.9315895,141.169333,90.1264548,34.6883664,193.61589,5.0622725,267.1109179-11.4832148,98.5458418,10.8966405,181.4260581,47.0514425,270.8799987,19.1427836,27.7354142-8.7126743,51.4480201-34.609247,79.9828123-38.2460076,1.6383156-.173244,13.4079965,7.6991285,22.9186845,7.6991285,20.2354482,0,55.5581324,6.580545,83.9265011,3.9041293,76.0855037-7.4208468,139.5623888-74.2548482,125.9879688-171.834891-10.7629558-76.3856134-56.1037829-135.0812376-87.8620053-194.4943921ZM685.3437644,208.2212136c2.3844926,2.5168129-1.6792394-1.598756,0,0h0ZM40.5540424,589.7100317c5.9475903,18.2765635,7.0334348,43.1609545-7.6336503,49.5286958,9.3456287-9.6839322-1.6710546-39.7642801,7.6336503-49.5286958ZM29.1513114,688.8888306c1.7583587-12.069789-6.9543154-13.495301-3.8509283-26.6031901,3.4375981,2.8905835,8.6731145,4.0228083,15.2536593,3.8100046.0804834-9.0059615-6.5000614-11.2704111-3.9027651-22.9527882,14.667085,3.8100046,11.3563507,50.6077197-7.4999659,45.7459737ZM48.0936281,711.7611354c-7.379923-2.9301432-13.5335562-13.2811331-7.5395856-19.1018598,12.775042-3.8100046,5.9475903,11.8951809,7.5395856,19.1018598ZM48.0936281,582.0095391c2.5986004,2.5045358-1.4242078-1.5578322,0,0h0ZM51.9908766,639.2387275c.9194211-5.3678368,11.4764543-1.2918276,11.4764543-7.5395258,12.6153788,1.3450285,5.9952743,21.9542478,7.5394651,34.3964433-6.4877843-.2537275-9.8435348,2.7705404-11.43547,7.5395258-11.0180474-10.642913.7120739-26.6031901-7.5804494-34.3964433ZM67.1967915,677.4983764c11.3972745,3.4771578,15.1267956,34.9830176,3.8100045,38.1668883-5.4019398-9.8844588-12.1489081-18.3174873-11.43547-34.3964433,4.528899.5865743,6.7865279-.799378,7.6254655-3.7704449ZM67.1967915,742.3080144c10.9771236-6.9938753,8.6335548-9.5120523,11.5636979-19.103224,5.6611238,7.0866359,7.3335425,18.1046836,7.4999659,30.5864387-6.6610283-3.436234-11.0166833-9.2978845-19.0636638-11.4832148ZM93.9336653,711.7611354h11.5636979c.7516335,19.5301955,10.0577026,30.6396396,11.3959104,49.650103-19.4033313-4.7689854-19.9885414-28.3615488-22.9596083-49.650103ZM135.9569997,708.0452555c4.1496097,7.2462386,4.9012432,17.9300754,7.6663895,26.7232332h-23.0469748c.9262417-12.2689515-6.700588-16.2522001-3.6831408-30.7064818h3.6831408c2.0980261-19.276468-3.1838706-10.2309469-11.3099704-15.1731763,2.8905834-13.9481909,12.1093484.2932871,26.6905558-3.7704449v15.2932194c-6.5819712-.4133303-11.9429873.8389376-15.3805853,3.6504018.713438,5.781167,9.306069,3.6367606,15.3805853,3.9832486ZM231.2793489,704.0620068c-16.8455946,3.0911101-24.3455605-3.4771578-22.8409293-18.9436212,16.179901-2.3040092,26.6509338,1.2931917,22.8409293,18.9436212ZM223.7794475,662.2856405c4.3555905-15.2536597,4.3555905,14.9999322,0,0h0ZM258.0489618,669.8251663h-22.9596083c.4187867-5.4483202.6261987-10.7629561-3.8100045-11.442291-1.0926651-8.8327175,11.0166833-4.3160954,11.5227741-11.5241385,11.769681.972622,11.8556209,13.6289853,15.2468387,22.9664295ZM254.1516532,646.8587368c-1.4650716-1.5851147,2.557802,2.5986605,0,0h0ZM258.0489618,696.5088398c-11.0644277,10.9498414,10.9361999-10.923923,0,0h0ZM258.0489618,654.6124303c9.8503554-13.2020138,9.1314609,19.5288314,0,0h0ZM250.508072,681.2688214c-2.1375858,2.971067-4.1892316,6.1944973-3.8959445,11.3904542-8.0060567-2.0120862-8.0469805-5.9557752-3.8100045-11.3904542h7.705949ZM216.0652493,715.6652647c.1268637-3.8100046,4.6489421-3.0106266,7.7141982-3.9041293-.1733085,3.7704449-4.696751,2.8919476-7.7141982,3.9041293ZM219.8356941,746.0784594c-1.545555-1.5851147,2.5972963,2.5577367,0,0h0ZM231.2793489,715.6652647c12.9878457,1.545555,8.9254778,24.7643479-7.4999014,19.103224-3.3571791-12.2689515,5.8602217-11.896545,7.4999014-19.103224ZM158.8360623,742.3080144c8.0401599,9.2978845,16.9247139-3.2643541,22.8737318,3.7704449-.1664868,11.5227744-27.1093437,11.1094442-22.8737318-3.7704449ZM147.3528478,715.6652647c12.5294993-14.7871285,12.7355452,14.9194488,22.9596083,15.1199753-11.3562879,17.5181093-18.4361031-4.4361386-22.9596083-15.1199753ZM189.3761835,685.1183856c7.5858423,2.6777798,10.1845027,10.1381863,11.4831508,18.9436212h-19.1495404c-3.2248578-12.0288653,3.3502306-14.3737983,7.6663895-18.9436212ZM204.6693389,711.7611354c4.9013055,11.4040954,3.7690807,19.3569515-3.8100045,26.6973148-3.1047513-1.9316028-6.2013178-3.9041293-11.4831508-3.6899615-3.8564484-9.3388083-1.2127718-8.2597844-3.8564484-23.0073533h19.1496038ZM208.4384196,742.3080144c14.4147217,6.5409854-8.3320829,6.3281817-7.5790852,11.4832148-14.5006616-6.5014257,8.2120398-6.2476982,7.5790852-11.4832148ZM204.6693389,673.6351709c.2932871-9.6716551,14.2073745-9.0045974,19.1101086-3.8100046-4.696751,5.4483202-14.7080733,8.6321909-19.1101086,3.8100046ZM197.0888895,654.6124303c-1.0449207,6.6610285,3.7704449,19.0227405-7.712706,15.2127359v7.6732101c-17.1389454,4.3570192-10.2651134-15.3859799-15.2469023-22.8859461,3.8100045,0,4.5220784,3.0638276,7.5805128,3.7704449v-7.7004927c6.5804814-.2523634,11.8555575.9589808,15.3790955,3.9300477,11.3495301-14.1214349,12.6959227,11.5227744,0,0ZM177.9392858,730.78524c-7.58727-2.5440955-10.1845032-9.9649422-11.4832145-19.0241047,10.6033531-.6247698,10.9771236,9.4724927,11.4832145,19.0241047ZM166.4560713,704.0620068c-13.8677071-10.8966405-13.8677071-12.1625496-22.8326821-3.6504018v-15.2932194c5.0281068,6.6610285,21.9937445-6.3268175,30.505892,3.7704449-1.9316027,5.5683633-5.6215641,9.724856-7.6732099,15.1731763ZM143.6233892,677.4983764c-6.6215311-2.3572102.2523009-18.1838029-7.6663895-19.1155011.5851479-10.8843633,15.9193533-6.9938753,26.7286268-7.7004927,2.9315072,8.5394303,7.9596765,14.9999322,7.6268297,26.8159938h-26.6890669ZM113.1160081,776.6239743v-7.5790854c3.1839324.6261339,3.5644618-1.5059954,3.7772655-3.9041293,7.3731642-1.4650716,5.5288035,17.5181093-3.7772655,11.4832148ZM124.5201032,738.4584502c4.5630022,4.4893395,13.48848,4.3556551,22.8327446,3.8495643-2.9765234,15.7201909,5.8616503,19.5697551,3.8495642,34.3159599-16.2917594-5.3146359-20.0622042-23.1655919-26.6823087-38.1655242ZM147.3528478,784.2180651c5.7416072-12.5758799,10.8107002,6.5273441,15.3327786,7.6991285-5.6938,12.5758799-10.7233962-6.4877844-15.3327786-7.6991285ZM174.1292812,784.2180651c5.4878798-12.7095642,9.4656718,14.9058075,0,0h0ZM170.3124561,757.6012338c10.6838365.7188945,16.1730804,6.6214688,15.207279,19.0227405-16.4663675,4.6503064-22.8341087-11.0166836-15.207279-19.0227405ZM193.1929451,799.5904038h-7.6732099v-7.6732101h7.6732099v7.6732101ZM208.4384196,776.6239743c-4.8549252-.8784973-3.9355041-7.5790854,0-7.5790854,1.512816-9.1792055-17.4703644,2.0516459-11.3495301-11.4436551,8.7522978-1.2127082,14.5402213.5865743,18.9763598,3.8100046v15.2127359c-3.4362339-2.3435689-6.873832-4.5684588-7.6268297,0ZM212.2156851,780.4339789c8.8381737-1.0381001,4.269715,11.0303248,11.5637624,11.4832148-4.317524,11.1503679-12.4900041-4.9013056-11.5637624-11.4832148ZM235.0893535,776.6239743c-7.7932531-.9985404-3.5180815-14.2401139-11.3099059-15.2127359,5.2340878-11.0562432,13.4079321,6.3281817,11.3099059,15.2127359ZM242.8021231,742.3080144c-11.6960182,14.0805111-12.8227864-11.6428175,0,0h0ZM238.899358,784.2180651c17.5167447,2.636856-3.058371,23.0728314,0,0h0ZM238.899358,761.4112384c.1719448-3.7704449,4.6953224-3.0106266,7.7127696-3.8100046-.1268637,3.7295212-4.689801,2.8905835-7.7127696,3.8100046ZM246.6121276,727.0147951c-1.631495-1.5851147,2.4704326,2.4786174,0,0h0ZM261.8249286,708.0452555c8.3797619-.6793349,1.6723533,13.5212194,3.7703794,18.9695396-12.1966525,3.4375981-5.1154733-12.5622386-15.0872359-11.3495304.7529977-5.489244,11.3168565-1.4255119,11.3168565-7.6200092ZM254.1516532,742.3080144c4.4429591-15.0394919,4.4429591,15.1731763,0,0h0ZM258.0489618,765.1407596v-11.3495304c11.143547-5.607923,11.143547,16.9710946,0,11.3495304ZM254.1516532,627.8891972c-7.3267219,13.1078891-15.5455823-4.3160954-11.3495301-15.2536597,3.0570068.7066174,3.8100045,3.8100046,7.705949,3.8100046v-7.5790854h18.9368001c3.8168251,18.5562093-26.3958422,2.7978229-15.293219,19.0227405ZM334.3472691,456.1347896c-11.0166833-.6261339-9.1710205-18.0910423,3.7308852-15.2536597-.2932871-4.6489423,5.5751838-2.3040092,0,0-1.1322248,5.1563972-5.3623801,7.379923-3.7308852,15.2536597ZM334.3472691,410.3356149c4.7362462-8.0333395,10.5637934-14.7871285,15.0872359-22.8736689,3.2234302,2.1444065,6.4073008,4.0228083,11.6033255,3.9027652-2.3053734,15.0804157-11.0644957,27.7763387-26.6905614,18.9709037ZM338.0781543,372.2082863c-9.6389158-.4528899-14.7080088-5.5683633-15.2536593-15.2918552h22.8791248c2.8510238,10.4833102-7.5395256,7.7523295-7.6254655,15.2918552ZM326.5949398,402.7156057c14.0805108,9.3920092-15.5401258,6.9133918-15.207279,15.332779-13.5348603-8.8859184,13.5348603-9.0059615,15.207279-15.332779ZM334.3472691,421.8720306c-2.8905834,11.6032579-35.4877434,33.3828975-34.315959,3.8495643,12.4421952-.2128037,18.8972404-6.4605019,34.315959-3.8495643ZM307.6581398,521.0767478c-13.1147094-2.8373826-2.550916-11.4695735,0-19.0623002,11.143547,3.2766312-4.9026696,9.4711285,0,19.0623002ZM338.0781543,700.411605c-35.1562608.8389376-35.8219544-44.9206773-34.3173231-99.2183585,25.8979362,13.2415735,29.3750939,56.8554179,15.3341428,76.3051299,10.7697765,5.0622725,21.8737638-1.7174349,18.9831804,22.9132286ZM383.9168875,669.8251663c-11.6032576,1.4255119-7.9596765-12.4012717-11.5227741-19.1427836-3.8973086,11.3495304-24.4246122,6.115378-34.315959,11.6032579,1.638383-9.2187652-6.9543154-8.3389038-3.7308852-19.1427836h11.3563507c3.0174472-15.7201909-18.1838024-7.2203202-15.1663552-22.9268698,15.7924892,6.9938753,29.3274174,16.4650038,49.523238,19.0227405-.7120739,12.4026358,6.7074086,16.2522001,3.8563848,30.5864387,4.6490108-.3724065,2.344933,5.5683633,0,0ZM345.7036198,673.6351709c12.4435593-8.7113102,19.2300872,14.8007698,34.3568828,15.2536597,1.8456628,15.7993102,0,28.028702-15.1267956,26.7764341,11.3563507-17.8509561-31.797782-24.0590946-19.2300872-42.0300938ZM364.9337071,673.6351709c2.4308729,2.5986605-1.718799-1.545555,0,0h0ZM383.9168875,730.78524c-5.1945926-1.0790239-3.1838706-9.5120523-3.8563848-15.1199753,11.1039874,3.3039138,4.2301554,5.607923,3.8563848,15.1199753ZM315.2850362,459.9979951h11.3099036c.9248776,10.9771239-.9194211,19.3965111-7.4999659,22.8736689-14.201918,3.4757937-6.9938751-20.1958891-3.8099377-22.8736689ZM303.7608312,456.1347896c11.8160613,12.1489084-3.1838706,29.8798213-22.8723042,22.8859461,3.2629899-12.0288653,19.6884336-10.816157,22.8723042-22.8859461ZM300.0313101,761.4112384c-1.6724187-1.5851147,2.4772532,2.4772533,0,0h0ZM296.2213056,715.6652647c-3.1442447-.8389376-3.8959445-3.9041293-7.7127696-3.9041293v-7.6991285c8.1724801-1.7583587,7.3335425,5.607923,7.7127696,11.6032579ZM288.508536,498.1239596v-7.5927267h7.7127696v7.5927267h-7.7127696ZM296.2213056,536.2908479c-3.2698105,22.5790177,2.1375858-15.3737028,0,0h0ZM288.508536,532.4399195c-5.2750761,8.6731147-4.1428513,23.9254103-19.0636638,22.8736689,1.005361-11.1899276-8.6717503-11.7369422-7.6199436-22.8736689,9.8843931-3.3966744,14.1609288-1.8511193,26.6836074,0ZM277.1986314,471.5207695c-5.3228863-2.7309807-7.167185-8.2993441-7.7537592-15.3859799,9.0919012.1336844,11.2308511-6.4877844,22.880489-3.7704449,2.9765234,14.2946789-14.5415854,8.3402679-15.1267297,19.1564249ZM277.1986314,486.7212283c14.0804449,19.103224-8.6322565,39.1381462-15.3737028,38.0864048-9.851785-3.9832486-5.3679021-22.5803818-15.212801-26.6836735,7.1261953-15.1336166,16.8851543-5.3678368,30.5865038-11.4027313ZM269.4448721,574.456372v22.8068267h-22.8327446c-2.0912055-17.2248221,5.5751838-24.7643479,22.8327446-22.8068267ZM269.4448721,650.6823826c4.4429591-14.9999322,4.4429591,15.159535,0,0h0ZM280.8885269,719.3947859c-.5865743.5865743-7.3799228-12.8678029-7.6268297-11.3495304,1.7583587-10.697478,13.4475562,5.5683633,7.6268297,11.3495304ZM280.8885269,692.6592755c-11.1899273-3.144311,2.3040092-12.1898321,0-19.0241047,5.1087187,2.5986605,7.1193747,8.2202248,7.620009,15.2536597-4.4361384-.5865743-6.7810055.9194211-7.620009,3.7704449ZM284.7380911,753.7912292c-1.631495-1.6383156,2.518177,2.4772533,0,0h0ZM284.7380911,734.7684887c9.392009-14.9603726,5.4879459,12.5213148,0,0h0ZM311.3876608,784.2180651c-5.4019398-.2141678-10.8107002-.6397752-11.3563507,3.8495643-5.155033-2.4772533-7.1602985-8.1656597-7.705949-15.2127359,9.1710205,1.5578322,8.2515995-6.9938753,19.0622997-3.8100046v15.1731763ZM315.2850362,803.3212891c-1.6329259-1.598756,2.4703658,2.5045358,0,0h0ZM315.2850362,746.0784594c-1.0463516-8.8859184,11.0166165,1.4650716,11.3099036,3.8222817.799378,6.3677413-10.3046094,4.9435935-11.3099036-3.8222817ZM353.3305173,749.9007411v-3.8222817c-14.6671528-6.9147559-21.8738316-21.1944295-26.7355774-38.0332039,9.7644154,6.7401478,22.3334744,10.8434395,30.6328182,18.9695396-3.2302509,4.4497798-5.069093,10.2309469-3.8972408,19.0636643,10.7246925-10.0986266,18.8507924,3.5699184,30.5863702,3.8222817-7.6268297,8.9664018-23.8449262,9.4588514-30.5863702,0ZM402.9805513,776.6239743c-9.7644154-.3724065-18.1046831-2.0107221-22.9200486-7.5790854-1.005361-12.4831193,14.8335084-8.0469807,15.3396681-19.1441478,11.8555521-1.7174349,10.0112535,10.3919138,19.063595,11.5104973-1.5987559,7.3403633-17.4785492.2932871-11.4832145,15.2127359ZM410.6073809,650.6823826c10.0099582-2.2644496,13.7408433,1.5851147,11.3563507,11.6032579-3.4375981-4.1960523-13.9550112-1.2659092-11.3563507-11.6032579-4.5698228.5333734-2.2658136-5.6215643,0,0ZM429.7160609,688.8888306c1.2522679,6.7933487-21.3744936,6.7933487-15.2522952-3.7704449-7.3335425,7.206679-9.6852961.4665312-19.063595,0,1.9247133-14.9194488-6.8342725-18.6503341-3.8564536-34.436003,13.3684369,12.1093487,31.0052247,19.9421616,38.1723438,38.2064479ZM441.1065148,708.0452555c-1.5059953-1.6383156,2.518177,2.4240523,0,0h0ZM441.1065148,746.0784594c-9.1723847-2.171689-8.4589466-14.4147221-11.3904539-22.8736689,11.5636979-.0395597,9.5052315,13.4011763,11.3904539,22.8736689ZM433.4865756,685.1183856c5.7347168,1.9316028,9.6716551,5.5683633,15.2931492,7.5408899-2.3517536,9.3374442-19.2763978,2.0107221-15.2931492-7.5408899ZM429.7160609,650.6823826c10.8038796,5.7279661,28.781699,4.3556551,38.0864039,11.6032579,6.6610283,11.1899276,9.0850806,26.5636304,7.6595687,45.759615-17.8440646-20.4086928-49.7292211-24.5119845-45.7459726-57.3628728ZM429.7160609,708.0452555c-5.2014133-1.2263495-7.2066788-5.4087606-15.2522952-3.9832486,2.8510238,8.1261001,2.8510238,14.9603726,0,22.9527882-6.2886218-6.4468606-11.7369419-13.9468268-11.4832145-26.6031901,4.9422984.173244,5.361016,4.8221863,11.4832145,3.6504018-5.0759136-12.4558368,18.0105584-4.9422294,15.2522952,3.9832486,4.6026316-.5865743,2.344933,5.434679,0,0ZM418.2328465,749.9007411c2.432237,2.5454596-1.5113825-1.5973918,0,0h0ZM395.4001707,696.5088398c0-3.7568037,4.6488733-2.9315073,7.5803805-3.8495643-.2537275,3.7690808-4.6093825,3.0229038-7.5803805,3.8495643ZM391.5437171,711.7611354c2.4704326,2.4786174-1.6792394-1.5441909,0,0h0ZM425.9401596,784.2180651c-7.2476026-1.5591963-23.2133358,5.2355165-19.1904585-7.5940908,2.3448639,6.6214688,18.1838029-.2523634,19.1904585,7.5940908,24.3441964-4.3160954,8.378533,11.8024203,0,0ZM441.1065148,749.9007411c7.879193,1.1199476,3.6899614,14.2019184,11.4832145,15.2400184-8.5462507,14.1214349-19.1031537-11.8951809-11.4832145-15.2400184ZM460.2561186,788.0676294c7.9201875-1.6778753,10.0972622,2.6777798,15.2059149,3.8495643,1.1799692,6.6610285-21.4072327,6.7947128-15.2059149-3.8495643ZM475.4620335,769.0448889c-10.0099582,1.091301-12.5213145-5.2764403-11.4763938-15.2536597,10.3046094.2128037,18.3515899,8.7126743,11.4763938,15.2536597ZM448.7797248,704.0620068c23.4193188-.4269715,27.6958545,18.2233625,30.4991339,38.2460076-22.2461703-.5456505-29.246866-16.4650038-30.4991339-38.2460076ZM486.9057594,772.8548935c2.5576655,2.4376936-1.5047023-1.7583587,0,0h0ZM479.2788586,677.4983764c26.6495697,11.0576074,23.8790294,27.7354149,34.3173231,53.2868636-20.4891757,6.6610285-35.9883778-24.7643479-34.3173231-53.2868636ZM490.7156928,730.78524c5.0296047,1.4255119,6.0348944,6.7537891,11.5228456,7.6732101-1.5920068,9.6839322-14.83358.173244-11.5228456-7.6732101ZM502.2385385,791.9171937c.6260624-4.5288991,6.8737605-3.2234303,11.3576433-3.8495643-.5865743,4.5288991-6.8274517,3.3434734-11.3576433,3.8495643ZM506.0089118,772.8548935c-6.8669399-11.0576074-.7529977-17.3448652-11.4367628-19.0636643,3.4770864-11.1899276,13.9944995-1.0926651,15.253588-7.7127698,12.0629681,5.9544111,15.0804153,27.3220846-3.8168251,26.7764341ZM528.8894008,742.3080144c-5.4019398-9.8448991-6.581909-23.8722093-11.5241382-34.262759,12.948286,4.4361386,19.5697547,19.3965111,11.5241382,34.262759ZM532.6980412,791.9171937c-3.0570068-14.4938414,17.9778194-4.9013056,26.7368738-7.6991285-5.6543032,11.2690469-24.0113496,11.8556212-26.7368738,7.6991285ZM570.9113088,772.8548935c-14.8266878,2.1444065-15.7529295-9.7657798-26.6427491-11.4436551-1.8920431-13.2279322,9.5120521-13.268856,15.1663552-19.103224,2.8905834,20.7810993,15.2932923,10.8175211,19.0636638,26.7368745-4.4033994-.6261339-6.873832.7584542-7.58727,3.8100046ZM544.2685597,738.4584502c2.3040818,2.5577367-1.6791668-1.5591963,0,0h0ZM578.4985788,742.3080144c12.9878457-1.545555,21.7005198,1.1717844,19.0622997,15.2932194-6.4141215,5.9544111-22.0401872-.4133303-19.0622997-15.2932194ZM582.3085833,780.4339789c17.8905153-6.0212533,12.6549989,3.144311,30.5455142,3.7840862-8.4657673,3.5958368-33.5629614,14.0668699-30.5455142-3.7840862ZM608.9977126,746.0784594c4.4429591-15.0804157,4.4429591,15.1731763,0,0h0ZM624.251372,784.2180651c2.344933-3.3571147,4.6489421-6.7142294,0-7.5940908.9658014-4.1019276,7.5859059-2.5045358,7.5859059-7.5790854,8.1260999,1.1717844.9589807,18.0501185-7.5859059,15.1731763ZM639.5445909,780.4339789c12.7818626-9.3374442-9.2583246,12.7886836,0,0h0ZM643.3545954,753.7912292c.5852101,10.6442771-9.3388081,11.0576074-19.1032235,11.3495304v-19.0623002c7.2871622,1.6778753,6.873832,10.9362001,19.1032235,7.7127698,4.6953976-12.4817552-12.3561805-3.0106266-7.6663893-15.332779h22.8792003c1.7187991,12.0288653-3.3108098,17.1716212-15.212811,15.332779ZM670.0505454,757.6012338c-.5060908-9.4179276,2.0120862-15.8388699,7.6663893-19.1427836h7.6268297c1.5046312-4.7826266,4.9026696-7.7932533,11.3495301-7.6732101v11.5227744c-4.7294256-.2523634-5.1945926-4.8617459-11.3495301-3.8495643.7926335,4.3556551,4.182411,5.9939707,7.5804494,7.6200092-2.1389499,9.3510854-14.4147217,8.4725881-22.8736683,11.5227744ZM666.2801006,719.3947859c-8.1329205-9.724856-24.9375913-10.5637937-26.7355097-26.7355103,14.3342382,3.0229038,18.1838024-4.6503064,30.5059545-3.7704449,2.8905834,14.3342386-4.6953224,18.2642863-3.7704449,30.5059553ZM681.4873796,688.8888306c7.2926187,1.7583587,9.5516117,8.2993441,19.02274,7.6200092-.799378-4.1837752-4.1101123-5.8616505-7.5859059-7.6200092,3.4757936-6.6214688,11.9416375-8.4193872,22.9186845-7.6200092.0873041,9.0059615-6.5737242,11.2294873-3.856308,22.7931855-5.4019399-.8389376-6.4073776-6.1685789-11.4764707-7.553167.4597105,6.0471717-.4201509,13.16109,7.6663893,11.5364157-2.0980261,11.8024203-22.0797469,5.8207267-30.4595742,11.3495304-.9262417-12.2416689,6.7006641-16.1717167,3.7704449-30.5059553ZM692.9242138,772.8548935c3.3093702-5.5683633,5.7416072-12.069789,15.2522952-11.4436551,1.2522679,10.0577028-5.2355164,12.4953964-15.2522952,11.4436551ZM715.8428983,757.6012338c4.4429591-15.2004588,4.4429591,14.9999322,0,0h0ZM708.176509,749.9007411c.5470146-13.3738937,10.8966402-16.9710946,11.3972745-30.5059553,13.1147094,2.8114642,2.6832363,31.2521323-11.3972745,30.5059553ZM727.2006131,761.4112384c-1.5523756-1.5851147,2.5099922,2.4772533,0,0h0ZM731.0501773,719.3947859c-11.3099704-.2932871-10.138186-22.6731424,3.8563848-18.9831809,3.1033871,10.7247606-5.4019398,9.8053395-3.8563848,18.9831809ZM788.2452612,650.6823826c-30.1662871-5.4087606-30.4991339-28.201946-15.2522952-49.4891361,12.0684246-1.9316028,14.9603722,5.4483202,23.0059886,7.6732101-11.3959104,12.9482863-1.804739,23.4193194-7.7536934,41.815926ZM769.2689014,654.6124303c2.4649761,2.4772533-1.5114518-1.6246744,0,0h0ZM765.3265767,646.8587368v7.7536936h-7.4604063v-7.7536936h7.4604063ZM754.0166062,627.8891972c-5.6624102-3.3571147-12.0302291-5.6215643-11.4832145-15.2536597,9.2187649,1.4664357,8.3389035-7.0061524,19.02274-3.7690808-3.8100045,4.8617459-3.6899614,13.9877505-7.5395256,19.0227405ZM746.3024725,673.6351709c-3.0570068-2.0107221-6.074454-3.8891239-11.3959104-3.8100046-4.0228082-6.9133918,1.005361-30.1199075,3.7704449-41.9359691,21.0812845,6.7415119,10.224126,24.5911039,7.6254655,45.7459737ZM742.5333918,688.8888306c-3.4771577,3.0106266-8.592631,4.062368-15.3327786,3.7704449-1.1335889-8.8327175.6656936-14.5743248,3.8495642-19.0241047,5.6611238,3.3571147,12.1557287,5.7020477,11.4832145,15.2536597ZM757.8661704,708.0452555c8.1329205,5.8616505-7.206601,20.4878121-15.3327786,22.7399845,5.6147435-14.2810377,6.2408774-11.3904542,3.7690807-30.373635h15.2536593c-4.7758059.5865743-11.3563507,16.6791716-3.6899614,7.6336505ZM754.0166062,685.1183856c-2.8113863-11.6428175,6.5341646-11.3099707,3.8495642-22.8327451,2.2644495,2.0912055,18.017379,8.925478,19.02274,0,11.81614,11.9756643-4.5220784,28.3615488-22.8723042,22.8327451ZM772.992966,723.2047905c3.4771577-6.7005881-.0804834-20.4086928,11.6100782-19.1427836-5.4496842,4.9026697-1.7583587,18.8099368-11.6100782,19.1427836,3.6899614,15.8388699-11.4368342.8389376,0,0ZM788.2452612,742.3080144c-10.1832022-4.5152579,0-19.8084772,0-26.6427497,7.8806361.9589808,3.6435811,14.1609946,11.5241382,15.1199753-.4597105,7.2598799-12.6959227,2.690057-11.5241382,11.5227744ZM860.7744878,502.0144476c-11.1026232-24.3783002-50.614539-20.6092194-72.5292266-34.4769268,6.9543154-9.5106882,21.5355398-11.6032579,30.586438-18.9422571-11.8556209-14.4147221-44.454145,18.9422571-57.2755673-11.4832148,6.2013178-17.4253487,13.7408433,5.7006836,23.0469124,7.6322864,8.3389035-10.5637937-18.0650452-17.9709992,3.642217-26.6959507-7.7918889-8.3798275-28.3206243-4.3556551-34.2286549-22.8736689,13.9468264-3.7295212,39.6305947,13.6153441,57.1896274,19.0241047-20.4891757-36.7413764-88.1962162-26.1898598-91.6324501-80.1560583,7.4535856,6.5409854,21.367673,6.6610285,30.6259976,11.4436551-10.2650498-20.1958891-43.6615877-17.3053056-61.0855718-30.426836,15.585142,12.987846-.2932871,37.5393902,26.728689,41.8568498-28.7407752,25.9361323-48.0172427-45.6668544-61.0460122-72.2700445,10.5583369-4.0228083,10.8503355,21.4877167,19.1442231,7.4604064-11.4778338-.799378,3.6094021-15.7993102,0,0,26.4421467,1.5046313,40.1434303,15.7856689,64.7358977,19.1427836-17.5112882-29.5333333-79.7768292-14.2810377-80.1096005-60.9996334,14.9602967,4.1837752,33.8097927,20.5682956,45.8400218,15.159535-15.1267956-17.8905157-44.707797-21.4863525-64.8628373-34.3950792-13.7422075,19.395147-29.960304,36.1943617-45.8796569,53.6319876v7.4604064c11.8965447-7.379923,22.0797469-16.1730808,30.586438-26.6973148,8.7113848,7.7932533,11.8951806,21.2080708,15.293219,34.3568837-11.1039874,3.0242679-9.932203,18.1838029-26.6904935,15.2932194.3396674,6.6201047-.9194211,11.9088221-3.8563848,15.2536597,20.9543428,12.0288653,17.2248217,48.9830453,34.3568828,64.8614748-22.7072449,17.4253487,8.2584201,29.7475011,30.5865138,34.317324-4.2302312-19.9830854-15.7939292-32.5589653-26.730129-45.8005388,0-16.4254441,18.9368001-13.9863864,19.0691203-30.3722709,43.1486763,58.3218536,103.196148,107.4645017,129.718854,171.488403,35.2749397,45.5863709,62.7648112,158.7256378-3.9368683,186.9535022,1.7584376-12.2689515,7.414026-20.6883387,7.7073131-34.262759,10.430109-.3464881,7.7060282,6.2354211,15.2059149,0-1.5046312-12.4558368-3.2234302-24.7247882-15.2059149-26.8159938,12.9878457-25.5241662,11.8160613-82.9265987-3.7704449-125.8747495-5.2818967.2128037-8.4261289-1.7187991-11.3959104-3.7308853,3.8100045,19.7429992,17.8509556,46.9723232,11.3959104,64.862839,11.3972745.7202587-3.6899614,15.8797936,0,0-5.1154733-10.0577028-14.9193698-9.551612-11.3959104,7.6336505,4.5684587-.3860477,2.2644495,5.4483202,0,0-18.730817-17.104779-36.660892-34.7033717-61.2997396-45.7991746,4.7362462-13.8281478-4.2301554-21.3676735-3.7295211-38.1668883,12.5281351,14.360157,52.333338,26.9360369,26.728689,45.7064141,11.942925-.7066174,28.0287013,2.5972964,34.4032631-3.7704449-13.2415732-19.8616782-36.4944686-29.6670176-49.6555583-49.5286958-14.7066447-.6261339-17.5508479-12.9482863-34.3568828-11.4832148,1.0927416,19.3160277,15.4200827,25.4436828,15.2932958,45.759615-4.7295024-.2141678-5.3147125-4.9026697-11.4764707-3.8509284,15.2468387,25.4709653,45.6259295,35.7823956,68.7587818,53.4996673-1.4718922,11.1899276-17.9368956,7.4208468-22.9664289,15.2536597-2.8905834-.8389376-4.3160953-3.2234303-3.7690807-7.6200092-3.9832485,3.6367606-7.7073131,7.4467652-11.4832145,11.38909-14.8266878-5.4878799-24.5119839-15.958913-38.1259635-22.9527882-2.8919476,16.9588175,12.6549989,15.4528221,19.0623765,22.9527882-11.9825615,12.4967606-47.4715934,16.8919753-57.1897042,0,1.0462848,14.7080092,34.4837465,35.6623525,49.6105421,38.1805295-2.8510238-11.1899276-20.6160395-7.3403633-19.0636638-22.9268698,17.0911373,2.4786174,32.51122-10.4301093,45.7064129,0,1.1717844,20.7810993-10.4710328,20.1154056-3.8495642,38.1668883-7.1275595.8389376-8.3402677-4.3965789-15.2140228-3.7704449.4664543,4.6093826,1.0925883,9.0182386,7.5871932,7.6732101-10.0113223,6.407301-21.6609601,11.2294873-38.0864039,11.3495304-1.0462848-6.6610285,10.7697765-19.0227405,0-22.9527882,2.8442032,11.7765019-6.6214686,11.3495304-3.7704449,22.9527882-20.2422689-16.6778075-39.2186286-34.609247-64.8628373-45.7459737,13.3684369,20.9011424,37.6266933,30.999769,57.196448,45.7459737-44.9997209,33.7703094-78.8573344-19.568391-106.8915659-38.045481.8389376,18.2765635,34.6951861,36.499926,53.5515028,49.5286958-36.660892,25.3509222-52.0004912-10.5637937-87.8210815-22.8327451,25.2636175,22.9527882,50.0688885,46.5453517,80.1083119,64.7291546.799378-13.5348606-17.8509556-7.4999661-15.3327786-22.9527882,2.9765234-.7598183,4.528899-3.144311,3.8959445-7.553167h34.2763994c4.3570191,14.7066451,21.7878239,16.5182047,30.6259976,26.6959507-9.3047049,5.8616505-24.891211,5.781167-38.2119035,7.5804496-1.5919353-9.0059615,7.0402554-8.2857028,3.8563848-19.0241047-6.7469683,3.5303587-13.2415732,7.2080431-11.3972745,19.0241047-3.8563848,0-4.6080183-3.0106266-7.7127696-3.7704449-8.7986141,17.7704726-30.9192847,2.8114642-53.3386991,7.7536936-6.9147558-11.0576074-18.7703767-16.9724588-15.3737024-38.2596489-6.6610283.972622-8.592631,6.6733056-7.58727,15.2522956-18.8958763-11.6018937-27.0219046-33.9299122-34.2695787-57.148705-10.3495544,3.4771578,5.3228205,11.8556212,0,22.8859461,4.5698228-.4256074,2.2180692,5.5683633,0,0-11.3563507-2.9437844-16.4650034-11.6564588-22.9664289-19.1155011-2.7173394-10.297789,17.9778907,2.690057,15.2536593-7.7004927-14.9999318-8.8054349-35.907824-5.6215643-64.7755332-7.5395258,1.5114518-18.0637598-6.8670114-26.2839845-3.9764279-45.8796581,15.9589126-2.9437844,31.9642054,5.2355165,38.2923869,0-34.7360403-11.6168991-80.4888347-17.4376258-110.8216136-49.4891361v-3.8100046c-3.7308852,0-4.5234425,3.1429469-7.4604063,3.8100046,0,10.1368221,12.0234084,8.2993441,11.3564185,19.0623002-7.8328805-2.3040092-10.7698442-9.4711285-22.7932527-7.7523295,15.5865061,31.7582232,51.7017476,19.568391,72.4432867,45.878294,11.229487-3.2234303-8.8395379-5.7416074-3.8563159-15.2522956,4.9885406,3.9027652,14.1663818,3.7295212,19.1086111,7.553167v41.9755288c-8.884554-6.3677413-32.5179721,2.0516459-30.4186504-15.2522956-16.5523075,17.0106543-26.3576467-6.0348945-45.8400973-7.5408899-.6725142-10.7233964,9.3047049-11.0562432,19.0637318-11.4832148.88525-19.2751039-19.902602-8.5912671-26.6905614-3.7690808.3328468,4.5288991-5.5288035,2.2644496,0,0-.4992702-9.378368-.6261339-18.47709,3.7308852-22.9132286-14.0341305-2.7309807-16.7596547,6.0348945-15.2536593,18.9831809-4.4361384-.4269715-8.5858104-6.6746697-11.4368342,0-1.3791316-59.6668821,37.5407534-117.4567264,57.3165592-160.1511497,38.7192903-84.0465464,67.7929123-170.4898626,91.5518985-259.3981549,7.58727-28.8676397,20.3213882-58.4009729,41.9824199-80.0223739,2.2657421-12.2416689-7.2067503-11.8556212,0-19.2355442,12.1502007-3.2643541,11.8173539,6.0348945,18.9831089,7.6732101,5.5683632-2.1048468,9.4261121-5.8752917,11.4763938-11.4436551-3.556277-9.2187652-27.7354142,2.344933-22.8723042-15.2932194-7.5871985,5.2355165-18.2301827,7.206679-26.6495697,11.5227744-17.4717285,28.5347928-14.7871282,66.7016811-49.6895917,83.8855795-3.7705146,15.2536597,11.476324,11.4832148,7.6199392,26.6836735-31.7582224,8.9650377-46.2125037,35.1153379-68.7124015,53.5133086,8.1724801,7.8328129,26.5636298-6.5409854,42.0696524-3.9832486-15.2536593,26.7764341-52.4206421,31.7186635-68.7601459,57.4024325,20.9884459-3.2247944,28.6617242-19.8234826,49.6965509-23.0073533,2.2180004,23.8462909-24.8912798,18.3979707-38.1724126,26.6973148,5.2355164,9.5106882,13.0274053,6.7797075,22.8327446,3.8100046,1.8456628,24.5911039-33.6830045,12.1093487-41.9823483,26.7764341.5061582,8.3784634,16.2112759,1.5851147,22.9596762,3.7690808-5.5684312,8.9664018-8.0402279,7.0743587-3.8100725,19.0241047-18.1442428-2.9315073-24.5515436,6.0744542-41.9427219,3.9286836,1.5918685-7.206679,8.1260331-9.6307313,7.5394588-19.1018598-27.1092802-1.7187991-24.9716945,25.8965727-34.315959,41.8950453,15.0463121,1.1731486,11.7765016-16.2112763,26.7765002-15.2918552-3.1839374,10.8966405,5.2818299,9.9772194,3.8099377,19.2751039-9.2187649-1.6383156-8.3797606,6.7551532-19.0636638,3.6899615,6.1208343,12.522679,14.2073745-.5852102,22.7931849,7.5804496,0,15.2536597-18.730817,11.6032579-22.7931849,22.8736689-14.7475685-3.0515504-7.414026-28.1091855-19.1427832-34.14408-.6329546,18.3570469,5.1087187,30.5468791,7.620009,45.6804957-9.5120521-.5865743-11.8160613,5.9407698-19.0636638,7.6200092,7.0402554,10.9362001,18.5630295-12.869167,22.880489,3.8100046-.5470146,12.0684249-15.0872359,10.35099-26.7300531,11.442291,1.8852224-11.9483818-4.8221862-15.5455827-11.4436548-19.0227405-7.3267219.3328468,6.0348944,14.1214349-3.6435811,19.0227405,6.5341646,5.316,14.9999974,16.758291,18.9368001,34.2764002-9.4643077-.5060908-15.7924892,2.0516459-18.9368001,7.7004927-12.1489081-4.3570192-8.2120398-25.0985588-19.2287231-30.5864387-6.0348944,18.9026974,12.8609819,45.6791315,19.2287231,64.9419583-5.6147435,5.8752917-14.9999318,7.9664973-26.7286245,7.5940908-.8403662,10.8434395,24.8038425-4.7035073,19.0226756,11.5227744,14.4542814-9.3510854,2.8046435,9.2187652,3.8100045,18.8904203-12.9892098,3.6490377-27.9481535,5.1945928-41.9427887,7.7523295,7.079815,11.8160616,30.4200146-3.8100046,34.2300191,3.8509284-10.5978966,3.3161909-7.2871622,20.6214965-7.620009,34.2750361h-22.8409293c-1.5046312-9.2583248,6.9611361-8.2993441,3.7772655-19.0227405-25.1448749-4.8221863-12.1093484,28.6152763-38.0864039,22.9268698-.0858767,12.7750423,15.1199749,10.1777459,22.9596083,15.1199753,7.7073131-1.0926651,7.414026-10.2582294,11.3495301-15.1199753,4.4033994,3.1033872,10.2255545,4.8617459,19.0241687,3.7690808.4187222,9.724856.838873,19.6093148,11.4367696,19.0636643-33.5970645,17.0911378-72.7761335,9.6716551-102.9423583,15.159535,1.0448584-8.6185496-.926304-14.2796736-7.6663895-15.159535-2.3053734,17.9709992,3.0105645,29.6670176,3.8495021,45.7991746h-22.8736683c-3.6899614-16.7719322-6.6201045-34.1959168-7.6268297-53.5119444-19.0622997,13.6671809,11.3099704,62.637949-7.705949,76.425173-12.828182,1.3859523-6.3745618-16.6778075-11.3563507-22.9132286-4.0227474-14.2537552,14.3274176-6.0348945,11.3563507-19.1155011-24.0986537,5.5806405-10.2705063-47.4252131-19.02274-68.6728436-9.7657191,4.1960523,1.5046312,29.5469745-7.7141337,34.2764002h-15.2059149c2.0912657-16.8387744,3.7704449-34.3964433,7.5804494-49.5300599-14.6616285-3.2234303-16.5059272,6.4209422-22.9200486,11.4832148-9.132825-35.3554241,22.3798547-38.8325819,22.9200486-76.3324124,3.8960049,0,4.6080183,3.144311,7.6254655,3.7704449,39.385052-88.0829959,120.2136225-163.8288341,183.3112805-232.754041,36.0348241-39.3918737,93.2243854-60.001093,129.5524306-102.9096841,45.4990657-53.4983032,63.3978358-162.4428818,145.012073-156.4871066-1.5851147,6.0744542-12.0234084,3.3502941-7.7073131,15.2522956,9.9717626,2.4254165,13.7422075-1.5182725,11.5241382-11.4027313,11.1026232,7.9187529,25.5569046,12.6549992,26.7696128,30.5864387.9658014,10.016779-8.0401599,9.8039753-15.3737024,11.442291,1.5523756,20.9025065,16.7582905,5.6488468,19.1496038,22.9132286,21.7878239-18.5562093,32.51122,21.1685111,64.816457,53.4191839,23.1260317,22.8463864,55.7231917,35.0362185,38.2119035,60.973715,13.661724,9.0850808,21.3281133,24.3373764,38.0468442,30.5864387,11.3563507-8.0469807-9.5583561-15.5865065-7.5859059-26.7764341,35.7414709,12.5745158,56.48301,40.2567297,80.0687522,64.7687142v3.8236459c4.6557628-.2128037,2.3913133,5.607923,0,0-12.1093484,3.3039138-11.6032576-5.9544111-18.9763598-7.553167-.8403017,3.0242679-.0873041,7.5136074-3.8168251,7.553167,11.1899273,14.3737983,34.109976,16.9574534,38.0454801,38.2460076,14.7080088-7.6200092,15.207279-6.1944973,26.7300531,3.7295212-.4133302,15.1336166-16.5918671,11.6973826-7.5790852,26.6973148,12.2280274,3.3434734,11.9824847-5.8357321,15.293219-11.4436551-4.6093825.4665312-2.3912337-5.4483202,0,0,43.4869796,53.2200214,74.7063721,118.6544293,106.7988054,183.2239811-8.9664016,1.1731486-15.7938533,4.6093826-22.9200486,7.5408899.3396674,11.2294873,8.7986141,14.2933148,15.293219,19.1564249,14.0409511-2.8510239-1.5919353-11.5241385,7.6268297-19.1564249,16.5509433,3.8632055,17.5167447,23.1792332,22.9596083,38.2187251-8.2938874,4.6093826-20.8220225,4.6093826-22.9596083,15.2536597,8.0060567,10.1381863,18.1838024-9.4315689,30.4595742-7.5927267,4.441595,4.408856,4.2751716,13.4148175,3.8959445,22.8859461,5.6147435,3.089746,5.5751838,12.2689515,7.5463462,19.0623002-8.3389035-.5852102-8.172397-9.7234919-7.5463462-19.0623002-3.0106266-.8389376-4.4361384-3.2766312-3.8959445-7.6336505-9.7984358,18.0242001-25.0521779,30.8797259-41.9427887,41.9496104,9.4316509,19.6488745,1.4242298,51.3279783-26.6441132,45.7459737-2.2248899-12.3617121,2.5577366-17.7568314,3.7704449-26.7764341,7.6663893-6.3268175,4.9026696.4665312,15.1663552,0,0-15.6260662-21.8273835-23.9649699-7.4999659-41.8964094-3.5630977-3.2234303-30.6723779,2.2658137-45.8387331,0,.2524438-11.3495304-11.2240305-19.3160277-3.7704449-26.6823094,11.2704108.0395597,4.9026696,18.0105588,11.3959104,22.9132286,17.7718363-5.1959569,7.1671191-38.6729791,34.3173231-34.3568837-16.9723772-7.206679-38.0468442-10.35099-38.1273277-34.3964433,2.8510238-6.0335304,18.7703767.8403018,15.293219-11.3631716-4.5684587-4.1428514-27.2757036,12.2034734-26.6891294-11.4695735-6.2013178-2.7309807-6.2013178,18.0514826,0,15.2004588-17.3912451,14.8403294-27.8227182-10.1777459-34.4032631-19.0241047,14.5879657-12.3480708,27.8690985-11.3099707,45.7991735-3.7690808ZM807.3962291,490.5312329c.8784973-4.7689854,7.5790852-3.8100046,7.5790852,0-1.631495,5.5820046-3.2234302-.4133303-7.5790852,0ZM757.8661704,421.8720306c-17.5112882,1.372311-19.9817208-12.2430331-15.3327786-22.9268698,7.7932531,5.0759138,12.9087264,12.5758799,15.3327786,22.9268698ZM727.2006131,395.1747158c-12.1093484-3.3966744-12.8227864-15.2932194-7.6268297-26.77507,6.9134688,9.8039753,21.1603258,16.5045635,7.6268297,26.77507ZM647.2109802,311.2495767c5.7006834,11.9893056,11.2758673,24.1791377,15.2522952,38.1655242-14.6193406-3.089746-4.5220784,18.3979707-19.10868,15.2141-2.1716889-18.7308175-23.6730463-39.4314333-7.6663893-53.3796242h11.5227741ZM639.5445909,250.2499432c4.528899,8.1670238,18.1838024,18.7171762,11.5227741,26.5636304-8.1724801-4.6489423-17.6777116-19.4892717-11.5227741-26.5636304ZM364.9337071,383.691501c2.4308729,2.5986605-1.718799-1.6246744,0,0h0ZM376.2900578,330.313241h11.5241382c1.7583587,11.9483818-5.4892439,15.0394919-7.7536934,23.0059892-12.5294312-2.2644496-5.4019398-14.4938414-3.7704449-23.0059892ZM391.5437171,315.0595813c12.8623461-9.2583248-9.2187649,12.7354826,0,0h0ZM402.9805513,265.4094782c6.1140137-1.091301,6.5805449,3.5576413,11.4832145,3.8509284-4.5302632,5.6611239-3.3107343,17.104779-15.3395304,15.3859799-3.0584399-10.8966405,5.4482512-10.0181432,3.8563159-19.2369083ZM418.2328465,215.8412228c.1664928-3.6367606,4.6898659-2.8919476,7.7073131-3.7704449-.1664234,3.7704449-4.6488727,2.9437844-7.7073131,3.7704449ZM555.6590136,74.685531c2.4376935,2.5181771-1.7119784-1.598756,0,0h0ZM963.8437721,635.5896898c-10.3441691,13.787224-24.5911032,23.6321231-41.9823483,30.5059553,4.0691885-11.2294873,8.4657673-22.0333672,7.6268297-38.2064479,7.1261953-5.5288037,19.7757377-5.6215643,22.9596083-15.2536597,10.0577026,1.2522679,3.350294,19.3965111,11.3959104,22.9541524ZM918.005039,708.0452555c8.9718581.9194211-.3342109,14.1609946-3.7704449,15.159535.379309,4.5698229-5.5682814,2.3053734,0,0-.3737706-6.7005881.8389376-11.7355781,3.7704449-15.159535ZM868.5281812,627.8891972c9.4643077-.6793349,11.769681,5.9816936,18.9368001,7.7004927-1.631495,7.2994396-26.7764334,6.8329084-18.9368001-7.7004927ZM883.6945365,650.6823826v11.6032579c-8.4262076,2.0120862-5.4087604-7.4194827-11.5227741-7.6732101.7120739-4.516622,6.9938751-3.2234303,11.5227741-3.9300477ZM868.5281812,666.0956451v7.5395258h-7.7536934v-7.5395258h7.7536934ZM883.6945365,620.215987c1.6724999-4.7294257,4.9026696-7.8328129,11.4368342-7.5804496-1.718799,4.689866-4.9422293,7.7932533-11.4368342,7.5804496ZM853.1885819,536.2908479v7.6732101h-11.4763938v-7.6732101h11.4763938ZM841.7121881,551.5431434c7.9596765,2.2644496,12.3548911,8.0865404,19.0622997,11.4832148-6.4932408,11.1367267-21.8737638-.5852102-19.0622997-11.4832148ZM860.7744878,715.6652647c-6.7865279.3724065-8.0456164-4.6489423-15.2522952-3.9041293,7.1671191-7.2857983,7.079815-2.9301432,3.8563848-15.2522956,5.6543032,2.1048468,9.5911714,5.7416074,15.2059149,7.553167-2.0516458,3.1838707-3.8959445,6.3281817-3.8100045,11.6032579ZM876.0677068,742.3080144c-3.0638275-2.0516459-6.2013178-4.0228083-11.4832145-3.8495643.5470146-12.1093487,8.7194948-16.6791716,22.880489-15.2536597-2.3053733,7.9132964-7.9201168,12.4421955-11.3972745,19.103224ZM895.1313706,708.0452555c-12.775042.8252964-19.648874-14.2141955-11.4368342-22.9268698,11.6905616-2.8510239,7.3336239,10.4314734,19.1032235,7.5408899,2.72416,10.5228699-7.6268297,7.7523295-7.6663893,15.3859799ZM906.5682048,757.6012338c10.1845663-16.5850469,23.7589863-29.5742571,45.8796569-34.3964433-11.9837662,14.9999322-26.9428568,26.5240708-45.8796569,34.3964433ZM956.1773828,719.3947859c-3.0570068-1.9316028-6.2408774-3.9832486-11.4368342-3.7295212,1.2590885-9.0591624,11.8160613-8.5926312,15.207279-15.2536597,10.4369297,3.317555-3.9368683,13.2824973-3.7704449,18.9831809ZM933.2573342,711.7611354c2.4308729-14.4133579,20.6146753-32.5439599,11.4832145-45.6654903-.2522807,2.3040092-.5865743,4.4361386-3.8563848,3.7295212.8798614,14.7871285-8.1260999,19.8630423-11.3959104,30.5864387-16.4663675-.4665312,6.366377-16.2522001-11.4832145-15.2932194,2.0980261-10.6838368,14.753025-10.7233964,22.8791248-15.2932194.2128037-2.3040092.6329546-4.6093826,3.8563848-3.7295212,10.2242089-5.0759138,18.9831804-11.6428175,30.5059545-15.4132625,1.4186913,35.7823956-23.4247753,45.2930838-41.989169,61.0787527Z"/>
    <path d="M483.1761672,44.0595327c9.1315321,13.7340231,31.0052247,16.0925973,38.0454801-3.6899615-16.7173667,5.0745496-32.7240237-12.7750423-38.0454801,3.6899615Z"/>
    <path d="M528.8894008,40.3695712c-1.1731485,5.1154734-5.4019398,7.2462386-3.8168251,15.2932194h15.2127355c3.3966743-12.2825927-5.868471-11.896545-11.3959104-15.2932194Z"/>
    <path d="M460.2561186,67.1050815c0,8.9664018-6.6201045,11.1776505-3.8100045,22.9132286,12.0234084,3.2247944,11.730192-5.9939707,19.0159194-7.7932533-.4119661-9.551612-5.5274394-14.7066451-15.2059149-15.1199753Z"/>
    <path d="M551.8080853,101.4224055c-3.8563848-8.0865404-11.0630636-22.8463864-22.9186845-11.4040954,2.4308729,9.0987221,5.1086527,17.677712,15.3791589,19.0241047,0-4.9831532,6.5341646-3.4771578,7.5395256-7.6200092Z"/>
    <path d="M452.5897293,93.8283147c-2.6777798,7.7141339-11.9824147,14.9999322-3.8100045,22.8463864,13.3220566,1.4118707,21.6214005-25.7765296,3.8100045-22.8463864Z"/>
    <path d="M559.4349149,128.1851983v-15.3737028c-8.8859182,1.3859523-17.8905153,2.4786174-15.1663552,15.3737028h15.1663552Z"/>
    <path d="M387.814196,192.9675539c16.0052929-9.9240185,13.0274053-34.8220507,41.9018649-22.9132286,3.3039137-12.2021093-9.9376595-7.9255735-11.4832145-15.2536597,9.9717626-7.7918891,13.8281474-21.6595966,26.7300531-26.6154672-33.7293847-7.5408899-56.5634934,49.4495765-57.1487036,64.7823555Z"/>
    <path d="M547.9517005,139.5879297c5.6147435,6.0348945,15.5865061,2.7173395,19.1101173-3.8891239-7.9664973-2.0652871-14.4134307-6.6214688-19.1101173,3.8891239Z"/>
    <path d="M494.5721489,162.4206748c-16.6314981,33.0650561-25.3509929,73.961561-34.3160303,114.3928989,13.2415732-31.5590607,49.1494675-80.195618,34.3160303-114.3928989Z"/>
    <path d="M578.4985788,177.7138941c1.0859179-10.0577028-5.3228205-12.5622386-15.3395993-11.4300138-3.0979306,13.5348606,8.1725534,18.8508606,15.3395993,11.4300138Z"/>
    <path d="M608.9977126,189.1179896h11.483289v-11.4040954h-7.6269042c-.2932871,4.8631101-4.9886096,5.3296412-3.8563848,11.4040954Z"/>
    <path d="M570.9113088,192.9675539c-2.8510238,18.2642863-24.6306629-6.1140138-26.6427491,11.4436551,7.4535856.0791193,4.6489421,10.469669,15.1663552,7.6595689,5.0295333-.0804834,3.4307774-6.8206312,7.6269028-7.6595689,3.849491,7.5790854,6.5736511,16.2917598,15.2467655,19.0623002,5.4087604-11.6960184-1.5918618-23.7126066-11.3972745-30.5059553Z"/>
    <path d="M635.6882061,196.8171181c-10.6838365,9.1792055,3.8563848,24.5119845,11.5227741,15.2536597.6329546-9.5911716-5.868471-11.9361047-11.5227741-15.2536597Z"/>
    <path d="M364.9337071,246.3867377c-1.718799-1.5851147,2.4308729,2.4786174,0,0h0Z"/>
    <path d="M750.1997811,253.8867038c-6.700588-.2128037-12.0234084.972622-15.293219,3.9041293-2.5113564,16.6246066,19.1496817,11.6823772,15.293219-3.9041293Z"/>
    <path d="M586.2045277,265.4094782c-10.8897462,5.1563972-.2523633,20.1167698,7.4604063,19.2369083.6725142-9.5911716.7529977-18.7294534-7.4604063-19.2369083Z"/>
    <path d="M292.3253611,295.9167976c10.9361999-1.8920431,29.1609261-16.2658414,19.0622997-26.656391-6.2804371,8.925478-21.2012496,9.2719661-19.0622997,26.656391Z"/>
    <path d="M460.2561186,276.8135737c-11.4763938.8389376,3.6040215,15.8388699,0,0h0Z"/>
    <path d="M341.9740988,292.106793c3.2302509.7052533,3.6040215-1.4650716,3.7295211-3.6899615-3.1429468-.8798614-3.523538,1.4650716-3.7295211,3.6899615Z"/>
    <path d="M341.9740988,292.106793h-3.8959445c.8389376,4.4361386,3.8959445,2.2112486,3.8959445,0Z"/>
    <path d="M254.1516532,303.6691271c11.4436548-.8389376-3.6435811-15.9193533,0,0h0Z"/>
    <path d="M250.508072,307.4395721c3.1443109.5865743,3.4771577-1.5059954,3.6435811-3.7704449-3.2234302-.7584542-3.5167174,1.4664357-3.6435811,3.7704449Z"/>
    <path d="M238.899358,318.7891024c10.3905494,2.7309807,7.4194825-7.8328129,11.6087141-11.3495304-8.4657673-.7598183-12.234848,3.1033872-11.6087141,11.3495304Z"/>
    <path d="M494.5721489,315.0595813c-2.2644496,16.8919753,20.5750443,13.1215304,15.253588-3.8100046-7.2066788-.8389376-8.3798273,4.3160954-15.253588,3.8100046Z"/>
    <path d="M231.2793489,326.4623126c3.3898536-1.6383156,6.8260876-3.2234303,7.620009-7.6732101-6.3677412-1.2918276-7.1207388,3.1047513-7.620009,7.6732101Z"/>
    <path d="M185.5197351,379.8814964c13.8267833-19.1823433,33.6093416-32.4239168,45.7596138-53.4191839-17.5590326,13.0287698-53.5064866,27.8158983-45.7596138,53.4191839Z"/>
    <path d="M612.8540974,353.3192301c-2.3913133-11.7369422-8.5448866-19.7825588-22.8791248-19.276468-3.4771577,17.5181093,12.5281351,15.5060231,22.8791248,19.276468Z"/>
    <path d="M280.8885269,376.1915349v-15.3723387c-6.1617581-2.7309807-6.1617581,17.9300754,0,15.3723387Z"/>
    <path d="M872.1717623,440.8811299c-10.2636856-29.0272424-27.1965041-51.5667004-45.7132335-72.481484-5.868471,30.665558,27.8227182,53.258217,45.7132335,72.481484Z"/>
    <path d="M414.4637657,440.8811299c-3.4771577-10.5501524-1.1731485-26.6823094-7.7140646-34.262759-6.2805062,14.068234-17.6777807,22.993712-18.9355051,41.9768929,20.7810987,1.1717844,9.424748-23.5530038,26.6495697-7.7141339Z"/>
    <path d="M166.4560713,433.3020444c-.5865743,9.4315689-.6656306,18.5166497,7.6732099,19.0623002,2.3053733-16.5045635,19.7689171-18.2629222,22.9596083-34.3159599-14.6275254.799378-14.5402213,16.0530377-30.6328182,15.2536597Z"/>
    <path d="M78.7604894,528.6708387c31.9314664-20.1154056,35.2422007-68.9661307,61.0528328-95.3687942-36.2475617,15.958913-50.9091903,53.5119444-61.0528328,95.3687942Z"/>
    <path d="M250.508072,444.7443354c-16.8851543-.6793349-1.1717844,14.9603726,0,0h0Z"/>
    <path d="M719.5737835,467.5375209c5.5274394-11.5227744.7516335-19.3555873-15.1663552-18.9422571-1.0926651,12.3617121,4.4825955,18.3966066,15.1663552,18.9422571Z"/>
    <path d="M380.0605026,463.8884832c7.4999659,25.5637259,37.3334062,28.8676397,49.6555583,49.4891361-4.9886096-28.0423433-26.4422225-39.7247205-49.6555583-49.4891361Z"/>
    <path d="M910.2977259,486.7212283c-4.9422293-5.489244-21.5340151-5.489244-26.6031894,0-2.6436766,14.2933148,21.8273835,2.1839661,26.6031894,0Z"/>
    <path d="M418.2328465,578.2800179c14.2414777-.4665312,2.6777798-17.2643818,19.0636638-7.5927267-19.3965106-22.6213056-38.2131987-45.6668544-68.5922902-57.3096719,2.7704722-7.6732101,11.8623734-15.1336166,3.6898933-22.8463864-13.5744199,10.1504634-28.8280793,36.0879599-22.9596083,53.4328251,29.3273495-20.1154056,79.6486013,2.7173395,68.7983414,34.3159599ZM368.7042201,524.8076331c-4.6490103.4665312-2.3845608-5.489244,0,0,4.5288991-.3328468,2.2644496,5.5820046,0,0Z"/>
    <path d="M746.3024725,498.1239596c-.6656936-2.9301432-3.8958669-3.8100046-3.7690807-7.5927267-8.2993439-.6670577-12.1093484,3.1033872-11.4832145,11.4832148,5.0745495,4.9558707,11.5227741,2.2248899,15.2522952-3.8904881Z"/>
    <path d="M147.3528478,521.0767478h7.6268297c.1664234-2.3040092.5388926-4.5561817,3.8563848-3.8100046v-7.6595689c-2.3040092-.173244-4.5684587-.5456505-3.8563848-3.8236459h-7.6268297c-.2128037,2.3053734-.5060908,4.4893395-3.7294586,3.8236459v7.6595689c2.3039467.173244,4.3951522.5470146,3.7294586,3.8100046Z"/>
    <path d="M93.9336653,536.2908479c7.6200704.1323202,4.8562893,10.4301093,15.3327786,7.6732101,6.2886218-7.5408899-.3792271-4.8631101,0-15.2932194-7.2066788.4924496-12.7818626,2.5577367-15.3327786,7.6200092Z"/>
    <path d="M242.8021231,540.1936131c-5.6147435,2.3040092.2933521,4.6093826,0,0h0Z"/>
    <path d="M78.7604894,570.6872912c10.0577026,1.0121817,12.4026355-5.3555596,11.3959104-15.3737028-12.2757718-3.3434734-5.361016,12.4421955-11.3959104,15.3737028Z"/>
    <path d="M193.1929451,574.456372c2.9697028-.8784973,7.4999659,0,7.6663893-3.7690808-3.0570068.7584542-7.5463462.0927606-7.6663893,3.7690808Z"/>
    <path d="M742.5333918,593.5732373c5.6147435-2.3585743-.3737706-4.5698229,0,0h0Z"/>
    <path d="M143.6233892,601.1932465c-1.1731486,9.8844588,1.3845256,16.305401,11.3562883,15.2522956,1.2590885-5.2341524,5.3623801-7.2857983,3.8563848-15.2522956h-15.2126731Z"/>
    <path d="M494.5721489,612.6355375c-4.6094538,4.9831532-3.8564561,26.191224,7.6663895,26.6031901-2.9302146-8.5912671,6.8342725-29.6670176-7.6663895-26.6031901Z"/>
    <path d="M128.2906102,631.6992018v-3.8100046c-4.3570812.7461771-2.0994523,3.8100046,0,3.8100046Z"/>
    <path d="M681.4873796,639.2387275c-4.86311.9603449-4.9490499,11.4436551,0,11.4436551,2.7637197-3.0638276,5.9475903-10.35099,0-11.4436551Z"/>
    <path d="M711.9865903,654.6124303c.1267869-6.5273441-2.8510239-9.9240185-7.5791621-11.4695735-1.3859522,7.5395258.7516335,11.8951809,7.5791621,11.4695735Z"/>
    <path d="M521.2216473,654.6124303c-1.4650716-1.6246744,2.5577366,2.4772533,0,0h0Z"/>
    <path d="M528.8894008,658.3828753c2.5099922,2.5168129-1.5523756-1.545555,0,0h0Z"/>
    <path d="M181.709794,658.3828753c-.1664868,6.5409854,2.8510239,9.9772194,7.6663895,11.442291.2127401-6.580545-2.8906471-9.843535-7.6663895-11.442291Z"/>
    <path d="M414.4637657,685.1183856h3.7690807c-.7584542-4.3160954-3.7690807-2.171689-3.7690807,0Z"/>
  </g>
</svg>